# https://github.com/mikedh/trimesh
v -0.02827384 -0.02993965 -0.02441730
v -0.02869200 -0.02952354 -0.02306029
v -0.03013129 -0.02812279 -0.02506991
v -0.02827384 -0.02969473 -0.10429436
v -0.02827384 -0.02600979 0.00126228
v -0.02855479 -0.02891501 0.00153161
v -0.03011542 -0.02810905 -0.02306029
v -0.03208394 -0.02606852 -0.06237211
v -0.02974393 -0.02825025 -0.10429436
v -0.03211194 -0.02610101 -0.02359895
v -0.03113375 -0.02710565 -0.02506991
v -0.03770762 -0.01722291 -0.10429436
v -0.03523506 -0.01717418 -0.10376606
v -0.02827384 -0.02653460 -0.10376606
v -0.02827384 -0.02599230 -0.00101667
v -0.03488971 -0.01717418 0.00153161
v -0.03051771 -0.02680451 0.00153161
v -0.03211287 -0.02610351 -0.02506991
v -0.03454436 -0.02271596 -0.06314902
v -0.03430914 -0.02282342 -0.10429436
v -0.03272051 -0.02492018 -0.10429436
v -0.03163591 -0.02624471 -0.10429436
v -0.03164058 -0.02554495 0.00153161
v -0.03274478 -0.02487644 -0.01303293
v -0.03374631 -0.02360439 -0.01303293
v -0.03376964 -0.02365063 -0.01504254
v -0.03458076 -0.02271346 -0.01905142
v -0.03651754 -0.01947961 -0.10429436
v -0.03780935 -0.01728539 -0.06113941
v -0.03780935 -0.01728289 -0.05914015
v -0.03776362 -0.01723041 -0.01905142
v -0.03774962 -0.01722291 -0.01704180
v -0.03759561 -0.01717418 -0.00501518
v -0.03515293 -0.01717418 -0.10114527
v -0.02827384 -0.02630719 -0.10123850
v -0.02827384 -0.02598980 -0.00300557
v -0.03716905 -0.01717418 0.00153161
v -0.02827384 -0.02609101 -0.04310466
v -0.03509319 -0.01717418 -0.09511643
v -0.03457329 -0.02272595 -0.02105068
v -0.03590244 -0.02078040 -0.01905142
v -0.03554775 -0.02118900 -0.07917416
v -0.03548895 -0.02116776 -0.10429436
v -0.03246290 -0.02454156 0.00153161
v -0.03452382 -0.02264848 -0.01504254
v -0.03379297 -0.02280843 0.00153161
v -0.03455836 -0.02267722 -0.01704180
v -0.03556082 -0.02125898 -0.01704180
v -0.03619459 -0.02022184 -0.06113941
v -0.03686290 -0.01904726 -0.06113941
v -0.03687410 -0.01904726 -0.01905142
v -0.03685076 -0.01904726 -0.01704180
v -0.03621046 -0.02025683 -0.01704180
v -0.03618712 -0.02021560 -0.01504254
v -0.03660528 -0.01890356 -0.00301593
v -0.03647087 -0.01872612 0.00153161
v -0.03748267 -0.01717418 -0.00314023
v -0.03512866 -0.01717418 -0.09904242
v -0.02827384 -0.02628344 -0.09924960
v -0.03535080 -0.02105155 -0.00702480
v -0.03552628 -0.02121774 -0.01504254
v -0.03631873 -0.01948710 -0.00501518
v -0.03605458 -0.02003191 -0.00702480
f 1 2 3
f 1 3 4
f 1 4 14
f 1 14 35
f 1 35 59
f 1 59 38
f 1 38 36
f 1 36 15
f 1 15 5
f 1 5 6
f 1 6 2
f 2 7 3
f 2 6 7
f 3 8 9
f 3 9 4
f 3 7 10
f 3 10 11
f 3 11 8
f 4 9 22
f 4 22 21
f 4 21 20
f 4 20 43
f 4 43 28
f 4 28 12
f 4 12 13
f 4 13 14
f 5 15 16
f 5 16 6
f 6 16 37
f 6 37 56
f 6 56 46
f 6 46 44
f 6 44 23
f 6 23 17
f 6 17 10
f 6 10 7
f 8 11 18
f 8 18 19
f 8 19 20
f 8 20 21
f 8 21 22
f 8 22 9
f 10 18 11
f 10 17 23
f 10 23 24
f 10 24 25
f 10 25 26
f 10 26 27
f 10 27 18
f 12 28 29
f 12 29 30
f 12 30 31
f 12 31 32
f 12 32 33
f 12 33 13
f 13 34 35
f 13 35 14
f 13 33 57
f 13 57 37
f 13 37 16
f 13 16 39
f 13 39 58
f 13 58 34
f 15 36 16
f 16 36 38
f 16 38 39
f 18 27 40
f 18 40 19
f 19 40 41
f 19 41 42
f 19 42 43
f 19 43 20
f 23 44 24
f 24 44 25
f 25 45 26
f 25 44 46
f 25 46 45
f 26 45 47
f 26 47 27
f 27 47 48
f 27 48 41
f 27 41 40
f 28 43 49
f 28 49 50
f 28 50 29
f 29 50 51
f 29 51 30
f 30 51 31
f 31 51 32
f 32 51 52
f 32 52 33
f 33 52 53
f 33 53 54
f 33 54 55
f 33 55 56
f 33 56 57
f 34 58 35
f 35 58 39
f 35 39 59
f 37 57 56
f 38 59 39
f 41 48 53
f 41 53 49
f 41 49 42
f 42 49 43
f 45 46 60
f 45 60 61
f 45 61 48
f 45 48 47
f 46 56 55
f 46 55 62
f 46 62 63
f 46 63 60
f 48 61 54
f 48 54 53
f 49 53 50
f 50 53 51
f 51 53 52
f 54 61 63
f 54 63 62
f 54 62 55
f 60 63 61

