# https://github.com/mikedh/trimesh
v 0.01953488 -0.03101946 0.10961597
v 0.00829232 -0.03592201 0.10961597
v 0.01953488 -0.03355088 0.10961597
v 0.01953488 -0.03102185 0.10925506
v 0.00823590 -0.03592201 0.10925506
v 0.01486551 -0.03592201 0.10961597
v 0.01933355 -0.03367469 0.10961597
v 0.01895633 -0.03459752 0.09522370
v 0.01953488 -0.03429134 0.09413360
v 0.01953488 -0.03148975 0.06115069
v 0.00951138 -0.03592201 0.07918890
v 0.01704034 -0.03486961 0.10961597
v 0.01648502 -0.03592201 0.09403047
v 0.01915655 -0.03377834 0.10961597
v 0.01712221 -0.03563504 0.09322027
v 0.01901827 -0.03463303 0.09322027
v 0.01953488 -0.03432446 0.09322027
v 0.01833131 -0.03424431 0.10961597
v 0.01953488 -0.03215200 0.03845008
v 0.01222716 -0.03592201 0.03437694
v 0.01653701 -0.03592201 0.09322027
v 0.01802710 -0.03592201 0.04912276
v 0.01953488 -0.03510860 0.04912276
v 0.01953488 -0.03219806 0.03709482
v 0.01953488 -0.03233387 0.03526817
v 0.01953488 -0.03241929 0.03437694
v 0.01759788 -0.03592201 0.03437694
v 0.01953488 -0.03484994 0.03437694
f 1 2 6
f 1 6 12
f 1 12 18
f 1 18 14
f 1 14 7
f 1 7 3
f 1 3 9
f 1 9 17
f 1 17 23
f 1 23 28
f 1 28 26
f 1 26 25
f 1 25 24
f 1 24 19
f 1 19 10
f 1 10 4
f 1 4 5
f 1 5 2
f 2 5 11
f 2 11 20
f 2 20 27
f 2 27 22
f 2 22 21
f 2 21 13
f 2 13 6
f 3 7 8
f 3 8 9
f 4 10 5
f 5 10 11
f 6 13 12
f 7 14 8
f 8 15 16
f 8 16 17
f 8 17 9
f 8 14 18
f 8 18 15
f 10 19 11
f 11 19 20
f 12 13 18
f 13 21 15
f 13 15 18
f 15 21 22
f 15 22 16
f 16 22 23
f 16 23 17
f 19 24 20
f 20 24 25
f 20 25 26
f 20 26 28
f 20 28 27
f 22 27 23
f 23 27 28

