# https://github.com/mikedh/trimesh
v 0.01078481 0.03895336 -0.10720852
v 0.00902127 0.03925419 -0.10720852
v 0.01078481 0.03677864 -0.10720852
v 0.01078481 0.03919603 -0.10902017
v 0.01009149 0.04012060 -0.11407269
v 0.00251736 0.04276194 -0.11798705
v 0.00100277 0.04309353 -0.11776647
v -0.00109928 0.04360830 -0.11799227
v 0.00897358 0.03925820 -0.10720852
v -0.00109928 0.03710288 -0.10720852
v 0.01078481 0.03744249 -0.11928444
v 0.01078481 0.03996283 -0.11527479
v 0.01028343 0.04019547 -0.11527479
v 0.00902127 0.04058055 -0.11527479
v 0.01030205 0.04020417 -0.11672229
v 0.00251736 0.04276194 -0.11879629
v -0.00109928 0.03919737 -0.10720852
v -0.00100156 0.03921207 -0.10720852
v 0.00100277 0.03927090 -0.10720852
v 0.00496375 0.03933776 -0.10720852
v 0.00696808 0.03934845 -0.10720852
v 0.00701578 0.03934779 -0.10720852
v -0.00109928 0.04360830 -0.11863966
v -0.00109928 0.03710555 -0.10725681
v 0.01078481 0.03748461 -0.11951024
v -0.00109928 0.03711424 -0.10735340
v -0.00109928 0.03733285 -0.10926164
v -0.00109928 0.03734822 -0.10935822
v 0.01078481 0.03997152 -0.11601355
v 0.01078481 0.03971948 -0.11903645
v 0.01078481 0.03895937 -0.12054137
v 0.00100277 0.04309353 -0.11904558
v -0.00109928 0.04338501 -0.11878846
v 0.00976694 0.03795926 -0.12046045
v 0.01078481 0.03787235 -0.12054137
v -0.00109928 0.03776004 -0.11140220
v -0.00109928 0.03895402 -0.11727962
v 0.00100277 0.04109798 -0.11985613
v -0.00109928 0.04327938 -0.11885242
v -0.00109928 0.04109798 -0.11967992
v -0.00109928 0.03952762 -0.11899599
v -0.00109928 0.04119492 -0.11964990
f 1 2 9
f 1 9 22
f 1 22 21
f 1 21 20
f 1 20 19
f 1 19 18
f 1 18 17
f 1 17 10
f 1 10 3
f 1 3 11
f 1 11 25
f 1 25 35
f 1 35 31
f 1 31 30
f 1 30 29
f 1 29 12
f 1 12 4
f 1 4 5
f 1 5 6
f 1 6 7
f 1 7 8
f 1 8 2
f 2 8 9
f 3 10 11
f 4 12 13
f 4 13 5
f 5 13 14
f 5 14 6
f 6 14 13
f 6 13 15
f 6 15 16
f 6 16 23
f 6 23 8
f 6 8 7
f 8 17 18
f 8 18 19
f 8 19 20
f 8 20 21
f 8 21 22
f 8 22 9
f 8 23 33
f 8 33 39
f 8 39 42
f 8 42 40
f 8 40 41
f 8 41 37
f 8 37 36
f 8 36 28
f 8 28 27
f 8 27 26
f 8 26 24
f 8 24 10
f 8 10 17
f 10 24 11
f 11 24 26
f 11 26 27
f 11 27 28
f 11 28 25
f 12 29 15
f 12 15 13
f 15 29 30
f 15 30 16
f 16 30 31
f 16 31 32
f 16 32 23
f 23 32 33
f 25 34 35
f 25 28 36
f 25 36 37
f 25 37 34
f 31 35 38
f 31 38 32
f 32 38 39
f 32 39 33
f 34 40 38
f 34 38 35
f 34 37 41
f 34 41 40
f 38 40 42
f 38 42 39

