# https://github.com/mikedh/trimesh
v 0.01443251 -0.03502247 0.11993474
v 0.01443686 -0.03355773 0.11767788
v 0.01523835 -0.03615260 0.11792341
v 0.01692843 -0.03409719 0.11974836
v 0.01846605 -0.03234223 0.12042011
v 0.01466119 -0.03228419 0.12101595
v 0.01443251 -0.02651059 0.12117454
v 0.01443251 -0.00127201 0.11860336
v 0.02994597 -0.02411716 0.11776163
v 0.02222735 -0.03197690 0.11781936
v 0.03398387 -0.00127201 0.11767788
v 0.01872305 -0.03426107 0.11815790
v 0.02008426 -0.03252660 0.11931609
v 0.02265205 -0.02969614 0.12004165
v 0.02508263 -0.02759293 0.12016175
v 0.01909983 -0.03116429 0.12068382
v 0.01704168 -0.03107211 0.12107619
v 0.01704168 -0.02906791 0.12128964
v 0.01473524 -0.02921814 0.12127503
v 0.01443251 -0.02365281 0.12103235
v 0.02906826 -0.00127201 0.12097995
v 0.02706238 -0.00127201 0.12085381
v 0.02506085 -0.00127201 0.12071268
v 0.02305715 -0.00127201 0.12056694
v 0.01443251 -0.01320502 0.12037057
v 0.02035433 -0.00127201 0.12035810
v 0.03216747 -0.02055603 0.11809554
v 0.03045561 -0.02189786 0.11932251
v 0.02804463 -0.02518584 0.11946647
v 0.02682716 -0.02756561 0.11830009
v 0.03627942 -0.00810746 0.11814186
v 0.03439115 -0.01574527 0.11814935
v 0.02482999 -0.02934788 0.11851213
v 0.03495959 -0.00214266 0.12019524
v 0.03668234 -0.00214266 0.11826766
v 0.02767656 -0.02332162 0.12067491
v 0.02582967 -0.02531558 0.12074725
v 0.02305715 -0.02706371 0.12101381
v 0.01904756 -0.02906791 0.12120626
v 0.02004941 -0.02706371 0.12129819
v 0.02405900 -0.02204809 0.12131851
v 0.02506085 -0.01904349 0.12130817
v 0.03100445 -0.00214266 0.12108152
v 0.01443251 -0.02164861 0.12091973
v 0.03301033 -0.00214266 0.12094326
v 0.01443251 -0.01849720 0.12072230
v 0.03215005 -0.01873962 0.11945365
v 0.03409059 -0.01290456 0.11980645
v 0.03600718 -0.00509262 0.11896614
v 0.03536686 -0.00702171 0.11957873
v 0.03301905 -0.01540725 0.12014998
v 0.03436501 -0.00702171 0.12045966
v 0.03119175 -0.01711782 0.12070663
v 0.02985450 -0.01904349 0.12081888
v 0.02706238 -0.02004389 0.12125828
v 0.02305715 -0.02505609 0.12127611
v 0.02906826 -0.01604231 0.12124225
v 0.02906826 -0.01303431 0.12126719
v 0.03107197 -0.00501751 0.12112358
v 0.03107197 -0.00802210 0.12115779
v 0.03107197 -0.01303431 0.12115849
v 0.03307785 -0.00702171 0.12088124
v 0.03393160 -0.00984876 0.12049138
v 0.03107197 -0.01504192 0.12106691
f 1 2 3
f 1 3 4
f 1 4 5
f 1 5 6
f 1 6 7
f 1 7 20
f 1 20 44
f 1 44 46
f 1 46 25
f 1 25 8
f 1 8 2
f 2 9 10
f 2 10 3
f 2 8 11
f 2 11 9
f 3 10 12
f 3 12 4
f 4 12 13
f 4 13 5
f 5 13 14
f 5 14 15
f 5 15 16
f 5 16 17
f 5 17 6
f 6 17 18
f 6 18 19
f 6 19 7
f 7 19 21
f 7 21 22
f 7 22 23
f 7 23 24
f 7 24 20
f 8 25 26
f 8 26 24
f 8 24 23
f 8 23 22
f 8 22 21
f 8 21 11
f 9 27 28
f 9 28 29
f 9 29 30
f 9 30 10
f 9 11 31
f 9 31 32
f 9 32 27
f 10 30 33
f 10 33 13
f 10 13 12
f 11 21 34
f 11 34 35
f 11 35 31
f 13 33 15
f 13 15 14
f 15 30 29
f 15 29 36
f 15 36 37
f 15 37 38
f 15 38 16
f 15 33 30
f 16 38 17
f 17 38 39
f 17 39 18
f 18 39 40
f 18 40 41
f 18 41 19
f 19 41 42
f 19 42 43
f 19 43 21
f 20 24 26
f 20 26 44
f 21 43 45
f 21 45 34
f 25 46 26
f 26 46 44
f 27 32 47
f 27 47 28
f 28 36 29
f 28 47 36
f 31 48 32
f 31 35 49
f 31 49 50
f 31 50 48
f 32 48 51
f 32 51 47
f 34 45 52
f 34 52 50
f 34 50 49
f 34 49 35
f 36 47 51
f 36 51 53
f 36 53 54
f 36 54 55
f 36 55 37
f 37 55 38
f 38 55 56
f 38 56 39
f 39 56 40
f 40 56 41
f 41 56 55
f 41 55 57
f 41 57 58
f 41 58 42
f 42 58 43
f 43 59 45
f 43 58 59
f 45 59 60
f 45 60 61
f 45 61 62
f 45 62 52
f 48 50 63
f 48 63 51
f 50 52 63
f 51 63 64
f 51 64 53
f 52 62 63
f 53 64 54
f 54 64 55
f 55 64 57
f 57 64 61
f 57 61 58
f 58 61 60
f 58 60 59
f 61 64 62
f 62 64 63

