# https://github.com/mikedh/trimesh
v -0.02827471 -0.02943928 0.01103579
v -0.02885728 -0.02886060 0.01103579
v -0.02827471 -0.02940326 0.00902420
v -0.02827471 -0.02815946 0.11698312
v -0.02985958 -0.02784371 0.01103579
v -0.02882332 -0.02884619 0.00902420
v -0.02827471 -0.02921117 0.00154290
v -0.02827471 -0.02421316 0.11698312
v -0.02945204 -0.02690006 0.11698312
v -0.03051094 -0.02652308 0.05714406
v -0.03074171 -0.02682922 0.01303607
v -0.03073736 -0.02684123 0.01103579
v -0.03164038 -0.02554461 0.00154290
v -0.03063721 -0.02667315 0.00154290
v -0.03039600 -0.02693848 0.00154290
v -0.02896700 -0.02847642 0.00154290
v -0.02870228 -0.02876095 0.00154290
v -0.03014608 -0.02614609 0.11698312
v -0.02827471 -0.02601643 0.00154290
v -0.03255822 -0.01717418 0.11698312
v -0.02827471 -0.02422877 0.11325377
v -0.03174401 -0.02564906 0.01303607
v -0.03173966 -0.02564065 0.01103579
v -0.03246156 -0.02454212 0.00154290
v -0.03075477 -0.02532370 0.11698312
v -0.03225605 -0.02431521 0.05714406
v -0.03151325 -0.02531770 0.05714406
v -0.03489024 -0.01717418 0.00154290
v -0.03482319 -0.01717418 0.00301204
v -0.03418489 -0.01717418 0.02707197
v -0.03541969 -0.01717418 0.11698312
v -0.03253645 -0.02462376 0.01503636
v -0.03252861 -0.02464657 0.01303607
v -0.03251032 -0.02463817 0.01103579
v -0.03346299 -0.02324190 0.00154290
v -0.03169089 -0.02402347 0.11698312
v -0.03353788 -0.02327551 0.01503636
v -0.03186244 -0.02378456 0.11698312
v -0.03717002 -0.01717418 0.00154290
v -0.03605103 -0.01717418 0.08720486
v -0.03533087 -0.01737947 0.11698312
v -0.03402640 -0.02250474 0.00154290
v -0.03422146 -0.02227303 0.01503636
v -0.03421885 -0.02223941 0.00154290
v -0.03461594 -0.02086475 0.05914435
v -0.03196345 -0.02363569 0.11698312
v -0.03647163 -0.01872532 0.00154290
v -0.03642025 -0.01859206 0.01704794
v -0.03704811 -0.01717418 0.01704794
v -0.03660225 -0.01717418 0.05714406
v -0.03617033 -0.01821268 0.05714406
v -0.03447922 -0.01933281 0.11698312
v -0.03459852 -0.01906028 0.11698312
v -0.03572448 -0.01941565 0.03709601
v -0.03251555 -0.02278327 0.11698312
v -0.03562869 -0.01921516 0.05714406
v -0.03685914 -0.01717418 0.03709601
v -0.03409868 -0.02008077 0.11698312
v -0.03369027 -0.02080232 0.11698312
f 1 2 3
f 1 3 7
f 1 7 19
f 1 19 21
f 1 21 8
f 1 8 4
f 1 4 2
f 2 5 3
f 2 4 5
f 3 5 6
f 3 6 7
f 4 8 20
f 4 20 31
f 4 31 41
f 4 41 53
f 4 53 52
f 4 52 58
f 4 58 59
f 4 59 55
f 4 55 46
f 4 46 38
f 4 38 36
f 4 36 25
f 4 25 18
f 4 18 9
f 4 9 5
f 5 10 11
f 5 11 12
f 5 12 13
f 5 13 14
f 5 14 15
f 5 15 16
f 5 16 17
f 5 17 7
f 5 7 6
f 5 9 18
f 5 18 10
f 7 17 16
f 7 16 15
f 7 15 14
f 7 14 13
f 7 13 24
f 7 24 35
f 7 35 42
f 7 42 44
f 7 44 47
f 7 47 39
f 7 39 28
f 7 28 19
f 8 21 20
f 10 22 11
f 10 18 22
f 11 22 12
f 12 22 23
f 12 23 13
f 13 23 24
f 18 25 26
f 18 26 27
f 18 27 22
f 19 28 29
f 19 29 30
f 19 30 20
f 19 20 21
f 20 30 29
f 20 29 28
f 20 28 39
f 20 39 49
f 20 49 57
f 20 57 50
f 20 50 40
f 20 40 31
f 22 32 33
f 22 33 23
f 22 27 32
f 23 33 34
f 23 34 35
f 23 35 24
f 25 36 26
f 26 37 27
f 26 36 38
f 26 38 37
f 27 37 32
f 31 40 41
f 32 37 33
f 33 42 35
f 33 35 34
f 33 37 42
f 37 43 44
f 37 44 42
f 37 38 45
f 37 45 43
f 38 46 45
f 39 47 48
f 39 48 49
f 40 50 51
f 40 51 52
f 40 52 53
f 40 53 41
f 43 54 48
f 43 48 47
f 43 47 44
f 43 45 54
f 45 46 55
f 45 55 56
f 45 56 54
f 48 57 49
f 48 54 56
f 48 56 51
f 48 51 57
f 50 57 51
f 51 56 58
f 51 58 52
f 55 59 56
f 56 59 58

