# https://github.com/mikedh/trimesh
v -0.04062272 -0.00127201 -0.10636382
v -0.03986120 -0.00127201 -0.10636382
v -0.04171033 -0.00127201 -0.10538953
v -0.04197430 -0.00126260 -0.10636382
v -0.03878136 0.00673631 -0.10636382
v -0.03861185 0.00673631 -0.10522369
v -0.03976092 -0.00127201 -0.10522369
v -0.04118561 -0.00127201 -0.00899707
v -0.04196460 -0.00096786 -0.10636382
v -0.04116943 -0.00127201 -0.00698630
v -0.04118108 -0.00100156 -0.00899707
v -0.04095140 0.00673631 -0.10636382
v -0.03850445 0.00673631 -0.10323366
v -0.03963734 -0.00127201 -0.10323366
v -0.03974086 -0.00127201 -0.10495421
v -0.04124772 0.00501094 -0.10636382
v -0.04105556 0.00100365 -0.01098710
v -0.04121343 0.00501094 -0.09118978
v -0.04122249 0.00501094 -0.09320055
v -0.04109956 -0.00127201 -0.00097472
v -0.04116296 -0.00100156 -0.00698630
v -0.04094622 0.00673631 -0.09145926
v -0.03956682 -0.00127201 -0.10122289
v -0.03772934 0.00673631 -0.07315506
v -0.04108856 -0.00100156 -0.00097472
v -0.04031345 0.00100365 0.04309633
v -0.04016529 0.00254088 0.04309633
v -0.04077735 0.00300651 -0.00899707
v -0.04080259 0.00300651 -0.01098710
v -0.04094493 0.00673631 -0.09118978
v -0.04046874 -0.00127201 0.04108556
v -0.04046679 -0.00100156 0.04108556
v -0.03536456 0.00673631 0.10323278
v -0.03693741 -0.00127201 0.09921125
v -0.03922779 0.00100365 0.09322041
v -0.03908739 0.00300651 0.09322041
v -0.03912815 0.00300651 0.09120964
v -0.03880401 0.00501094 0.09120964
v -0.03900587 0.00673631 0.06113104
v -0.04042215 0.00501094 -0.00497553
v -0.04044868 0.00501094 -0.00698630
v -0.04015882 0.00624088 -0.00497553
v -0.03995178 0.00673631 -0.00497553
v -0.04006824 -0.00127201 0.05914101
v -0.03536650 0.00673631 0.10352300
v -0.03691801 -0.00127201 0.10524355
v -0.03690571 -0.00127201 0.10323278
v -0.03691154 -0.00127201 0.10122202
v -0.03920320 -0.00100156 0.09521044
v -0.03916050 0.00100365 0.09521044
v -0.03871666 0.00501094 0.09322041
v -0.03865326 0.00100365 0.10540939
v -0.03838216 0.00300651 0.10540939
v -0.03817577 0.00441988 0.10540939
v -0.03839640 0.00673631 0.09114745
v -0.03845333 0.00673631 0.08919887
v -0.03920903 -0.00127201 0.09494096
v -0.03539497 0.00673631 0.10540939
v -0.03691930 -0.00127201 0.10540939
v -0.03880918 -0.00126025 0.10540939
v -0.03880724 -0.00100156 0.10540939
v -0.03920256 -0.00127201 0.09521044
v -0.03828576 0.00673396 0.09319968
v -0.03742072 0.00673631 0.10540939
f 1 2 7
f 1 7 15
f 1 15 14
f 1 14 23
f 1 23 34
f 1 34 48
f 1 48 47
f 1 47 46
f 1 46 59
f 1 59 62
f 1 62 57
f 1 57 44
f 1 44 31
f 1 31 20
f 1 20 10
f 1 10 8
f 1 8 3
f 1 3 4
f 1 4 9
f 1 9 16
f 1 16 12
f 1 12 5
f 1 5 2
f 2 5 6
f 2 6 7
f 3 8 4
f 4 8 10
f 4 10 11
f 4 11 9
f 5 12 22
f 5 22 30
f 5 30 43
f 5 43 39
f 5 39 56
f 5 56 55
f 5 55 64
f 5 64 58
f 5 58 45
f 5 45 33
f 5 33 24
f 5 24 13
f 5 13 6
f 6 13 14
f 6 14 15
f 6 15 7
f 9 11 17
f 9 17 18
f 9 18 19
f 9 19 16
f 10 20 21
f 10 21 11
f 11 21 17
f 12 16 22
f 13 23 14
f 13 24 23
f 16 19 22
f 17 21 25
f 17 25 26
f 17 26 27
f 17 27 28
f 17 28 29
f 17 29 18
f 18 29 30
f 18 30 22
f 18 22 19
f 20 25 21
f 20 31 32
f 20 32 25
f 23 24 33
f 23 33 34
f 25 32 26
f 26 32 35
f 26 35 36
f 26 36 27
f 27 36 37
f 27 37 38
f 27 38 39
f 27 39 40
f 27 40 41
f 27 41 28
f 28 41 29
f 29 41 30
f 30 41 42
f 30 42 43
f 31 44 32
f 32 44 35
f 33 45 46
f 33 46 47
f 33 47 48
f 33 48 34
f 35 44 49
f 35 49 50
f 35 50 36
f 36 51 38
f 36 38 37
f 36 50 52
f 36 52 53
f 36 53 54
f 36 54 51
f 38 51 55
f 38 55 56
f 38 56 39
f 39 43 42
f 39 42 40
f 40 42 41
f 44 57 49
f 45 58 59
f 45 59 46
f 49 60 61
f 49 61 50
f 49 57 62
f 49 62 60
f 50 61 52
f 51 63 55
f 51 54 63
f 52 61 60
f 52 60 59
f 52 59 58
f 52 58 64
f 52 64 54
f 52 54 53
f 54 64 63
f 55 63 64
f 59 60 62

