# https://github.com/mikedh/trimesh
v 0.01905192 -0.03592201 -0.04238026
v 0.01839999 -0.03627871 -0.04107946
v 0.01840614 -0.03627913 -0.04308978
v 0.01905192 -0.03592201 -0.04308978
v 0.01903839 -0.03592201 -0.04107946
v 0.01427804 -0.03819788 -0.04107946
v 0.01428296 -0.03819915 -0.04308978
v 0.01818596 -0.03616569 -0.00300157
v 0.01694851 -0.03651062 0.04910917
v 0.01839753 -0.03626946 -0.06914515
v 0.01903839 -0.03592201 -0.06914515
v 0.01648478 -0.03592201 0.09400640
v 0.01798792 -0.03594302 0.04910917
v 0.01263222 -0.03831300 0.04910917
v 0.01302953 -0.03864239 -0.04107946
v 0.01277490 -0.03833947 -0.09175144
v 0.01703954 -0.03681018 -0.08116768
v 0.01262607 -0.03830166 0.05109979
v 0.01632733 -0.03602453 0.09319833
v 0.01503453 -0.03657742 0.09319833
v 0.01834587 -0.03624048 -0.07915736
v 0.01894614 -0.03592201 -0.08037932
v 0.01486478 -0.03592201 0.10959626
v 0.01607763 -0.03610561 0.09451884
v 0.01102821 -0.03879153 0.04910917
v 0.01102821 -0.03914067 -0.04107946
v 0.01102821 -0.03895623 -0.07716674
v 0.01102821 -0.03886296 -0.09175144
v 0.01228411 -0.03849072 -0.09175144
v 0.01703954 -0.03668078 -0.09175144
v 0.01833603 -0.03623333 -0.08116768
v 0.01054111 -0.03826468 0.09319833
v 0.01102821 -0.03877473 0.05109979
v 0.01520797 -0.03643920 0.09518894
v 0.01893753 -0.03592201 -0.08116768
v 0.00802931 -0.03598461 0.10939917
v 0.00648681 -0.03650810 0.10941888
v 0.00648681 -0.03852475 0.10959626
v 0.01428911 -0.03620182 0.10959626
v 0.01308611 -0.03592201 -0.09117988
v 0.00902321 -0.03914319 0.05109979
v 0.00659014 -0.04021411 -0.04107946
v 0.00656308 -0.04020865 -0.04308978
v 0.00902321 -0.03921041 -0.09175144
v 0.01818104 -0.03615939 -0.09175144
v 0.00902321 -0.03865625 0.09319833
v 0.00902321 -0.03870330 0.09118800
v 0.01314884 -0.03666733 0.10959626
v 0.01044024 -0.03822393 0.09520865
v 0.01862509 -0.03592201 -0.09175144
v 0.00648681 -0.03752021 -0.08918926
v 0.00648681 -0.03895707 0.09719927
v 0.00701820 -0.03889153 0.09719927
v 0.00701820 -0.03844450 0.10959626
v 0.01311317 -0.03592201 -0.09175144
v 0.00701820 -0.03906882 0.09118800
v 0.00648681 -0.03911084 0.09118800
v 0.00648681 -0.03957088 -0.09175144
v 0.00839095 -0.03818780 0.10959626
v 0.00701820 -0.03902261 0.09319833
v 0.00648681 -0.03755928 -0.09066744
v 0.00648681 -0.03907008 0.09319833
v 0.00648681 -0.03759793 -0.09167260
v 0.00648681 -0.03757608 -0.09117988
f 1 2 3
f 1 3 4
f 1 4 11
f 1 11 22
f 1 22 35
f 1 35 50
f 1 50 55
f 1 55 40
f 1 40 23
f 1 23 12
f 1 12 5
f 1 5 2
f 2 6 7
f 2 7 3
f 2 5 8
f 2 8 9
f 2 9 6
f 3 7 10
f 3 10 11
f 3 11 4
f 5 12 13
f 5 13 8
f 6 9 14
f 6 14 15
f 6 15 7
f 7 15 16
f 7 16 17
f 7 17 10
f 8 13 9
f 9 18 14
f 9 13 19
f 9 19 20
f 9 20 18
f 10 17 21
f 10 21 22
f 10 22 11
f 12 23 24
f 12 24 19
f 12 19 13
f 14 18 25
f 14 25 15
f 15 25 26
f 15 26 27
f 15 27 28
f 15 28 29
f 15 29 16
f 16 30 17
f 16 29 28
f 16 28 44
f 16 44 58
f 16 58 55
f 16 55 50
f 16 50 45
f 16 45 30
f 17 30 31
f 17 31 21
f 18 32 33
f 18 33 25
f 18 20 32
f 19 24 20
f 20 24 34
f 20 34 32
f 21 35 22
f 21 31 35
f 23 36 37
f 23 37 38
f 23 38 54
f 23 54 59
f 23 59 48
f 23 48 39
f 23 39 24
f 23 40 36
f 24 39 34
f 25 33 41
f 25 41 42
f 25 42 26
f 26 42 27
f 27 42 43
f 27 43 28
f 28 43 44
f 30 45 31
f 31 45 35
f 32 46 47
f 32 47 33
f 32 34 48
f 32 48 49
f 32 49 46
f 33 47 41
f 34 39 48
f 35 45 50
f 36 40 51
f 36 51 37
f 37 51 61
f 37 61 64
f 37 64 63
f 37 63 58
f 37 58 57
f 37 57 62
f 37 62 52
f 37 52 38
f 38 52 53
f 38 53 54
f 40 55 51
f 41 47 56
f 41 56 42
f 42 56 57
f 42 57 43
f 43 58 44
f 43 57 58
f 46 49 59
f 46 59 53
f 46 53 60
f 46 60 47
f 47 60 56
f 48 59 49
f 51 55 61
f 52 62 60
f 52 60 53
f 53 59 54
f 55 58 63
f 55 63 64
f 55 64 61
f 56 60 62
f 56 62 57

