# https://github.com/mikedh/trimesh
v 0.00003347 0.03619643 0.11757562
v -0.00109928 0.03399586 0.11688422
v -0.00104729 0.03426726 0.11982922
v 0.00301204 0.03380514 0.12017027
v 0.00602032 0.03396651 0.11958216
v 0.00935914 0.03374646 0.11916902
v 0.00303060 0.03605339 0.11708836
v -0.00109928 0.00110094 0.11714182
v -0.00109928 -0.00127201 0.11924517
v -0.00107328 0.03006783 0.12075028
v 0.00902488 0.03485408 0.11708268
v 0.01128666 0.03415356 0.11708268
v 0.01911562 0.03015952 0.11708268
v 0.03060651 0.01883023 0.11708268
v 0.03460269 -0.00127201 0.11688422
v 0.00100652 0.03107276 0.12075676
v 0.00301204 0.03193832 0.12060162
v 0.00752446 0.03174760 0.12048053
v 0.01101183 0.03170726 0.12027760
v 0.01339989 0.03193465 0.11937397
v -0.00109928 -0.00111063 0.11716045
v 0.03000114 -0.00127201 0.12102205
v 0.01769690 0.03042726 0.11868622
v 0.01618904 0.03189064 0.11725969
v 0.02226874 0.02787459 0.11761612
v 0.02800304 0.02210542 0.11778339
v 0.03048395 0.01742920 0.11924233
v 0.03235205 0.01593648 0.11708268
v 0.03684219 0.00220857 0.11698346
v 0.03677162 -0.00100060 0.11792961
v 0.03496294 -0.00113264 0.12020307
v 0.00501384 0.03107276 0.12067534
v 0.02705971 0.01403665 0.12094226
v 0.02505790 0.01904296 0.12088232
v 0.02305238 0.02104915 0.12082278
v 0.01203316 0.02906657 0.12058462
v 0.01303221 0.03040892 0.12036834
v 0.02114342 0.02662760 0.11988998
v 0.01982498 0.02839173 0.11929418
v 0.03300942 -0.00113264 0.12093537
v 0.03107075 0.00601923 0.12095077
v 0.02906894 0.01203413 0.12094712
v 0.02522503 0.02320204 0.11991874
v 0.02656947 0.02353580 0.11823987
v 0.02448596 0.02567402 0.11786724
v 0.02652861 0.02134622 0.12009533
v 0.02935863 0.01615287 0.12057449
v 0.03183210 0.01529831 0.11906857
v 0.03430558 0.01114656 0.11798916
v 0.03516721 0.00922473 0.11708268
v 0.03614768 0.00554610 0.11723012
v 0.03575401 0.00329785 0.11896407
v 0.03592856 0.00100559 0.11924355
v 0.03394904 0.00374530 0.12049025
v 0.03375220 0.00100559 0.12067616
v 0.02104315 0.02305167 0.12074420
v 0.02709313 0.01806003 0.12073124
v 0.02466794 0.02263356 0.12044124
v 0.02005153 0.02509087 0.12056599
v 0.01704325 0.02706038 0.12053074
v 0.02330864 0.02451872 0.12010546
v 0.03205865 0.00978588 0.12055749
v 0.03405303 0.00902668 0.11939787
f 1 2 3
f 1 3 4
f 1 4 5
f 1 5 6
f 1 6 7
f 1 7 2
f 2 8 21
f 2 21 9
f 2 9 10
f 2 10 3
f 2 7 11
f 2 11 12
f 2 12 13
f 2 13 14
f 2 14 15
f 2 15 8
f 3 10 16
f 3 16 4
f 4 17 18
f 4 18 19
f 4 19 5
f 4 16 17
f 5 19 6
f 6 19 20
f 6 20 12
f 6 12 11
f 6 11 7
f 8 15 21
f 9 22 10
f 9 21 15
f 9 15 22
f 10 22 16
f 12 20 23
f 12 23 24
f 12 24 13
f 13 24 23
f 13 23 25
f 13 25 14
f 14 26 27
f 14 27 28
f 14 28 29
f 14 29 15
f 14 25 26
f 15 29 30
f 15 30 31
f 15 31 22
f 16 32 17
f 16 22 33
f 16 33 34
f 16 34 35
f 16 35 32
f 17 32 18
f 18 32 36
f 18 36 37
f 18 37 19
f 19 37 20
f 20 37 38
f 20 38 39
f 20 39 23
f 22 31 40
f 22 40 41
f 22 41 42
f 22 42 33
f 23 39 25
f 25 39 43
f 25 43 44
f 25 44 45
f 25 45 26
f 26 45 44
f 26 44 27
f 27 44 43
f 27 43 46
f 27 46 47
f 27 47 48
f 27 48 28
f 28 48 49
f 28 49 50
f 28 50 29
f 29 50 51
f 29 51 52
f 29 52 53
f 29 53 30
f 30 53 31
f 31 53 54
f 31 54 55
f 31 55 40
f 32 35 56
f 32 56 36
f 33 42 34
f 34 42 57
f 34 57 58
f 34 58 35
f 35 59 56
f 35 58 59
f 36 56 60
f 36 60 37
f 37 60 59
f 37 59 58
f 37 58 38
f 38 58 61
f 38 61 43
f 38 43 39
f 40 55 41
f 41 55 62
f 41 62 42
f 42 47 57
f 42 62 47
f 43 61 58
f 43 58 46
f 46 58 47
f 47 58 57
f 47 62 63
f 47 63 48
f 48 63 49
f 49 63 52
f 49 52 51
f 49 51 50
f 52 63 53
f 53 63 54
f 54 63 62
f 54 62 55
f 56 59 60

