# https://github.com/mikedh/trimesh
v -0.01375681 -0.03566655 -0.10154853
v -0.01375681 -0.03748231 -0.10154853
v -0.01375681 -0.03578410 -0.10325003
v -0.02827100 -0.02633281 -0.10154853
v -0.01384632 -0.03784348 -0.10154853
v -0.01375681 -0.03799361 -0.10283715
v -0.02827100 -0.02670531 -0.10525332
v -0.02827100 -0.02647586 -0.10325003
v -0.01375681 -0.03763386 -0.11823581
v -0.02827100 -0.02943462 -0.10154853
v -0.01715553 -0.03670615 -0.10154853
v -0.01503843 -0.03874994 -0.10926360
v -0.01386195 -0.04005581 -0.11465877
v -0.01375681 -0.03827405 -0.10429611
v -0.01375681 -0.03818765 -0.10382398
v -0.02827100 -0.02700133 -0.10725845
v -0.01375681 -0.03775708 -0.11890974
v -0.02827100 -0.02858481 -0.11738968
v -0.02799677 -0.02970514 -0.10154853
v -0.02827100 -0.03162146 -0.11527346
v -0.02793709 -0.03195713 -0.11527346
v -0.01833343 -0.03621609 -0.10154853
v -0.01679463 -0.03843126 -0.11126503
v -0.01640247 -0.03825138 -0.10926360
v -0.01375681 -0.04080081 -0.11959293
v -0.01720668 -0.03854457 -0.11316279
v -0.01375681 -0.03825988 -0.11954849
v -0.02759751 -0.02960458 -0.11863572
v -0.02827100 -0.02938929 -0.11863758
v -0.02776375 -0.02992609 -0.10154853
v -0.02827100 -0.03172343 -0.11727860
v -0.02799819 -0.03200671 -0.11727860
v -0.02699648 -0.03289759 -0.11727860
v -0.02582568 -0.03389753 -0.11727860
v -0.02693396 -0.03275879 -0.11527346
v -0.02559124 -0.03182400 -0.10154853
v -0.02683734 -0.03076032 -0.10154853
v -0.01918453 -0.03580535 -0.10154853
v -0.01822260 -0.03817915 -0.11376081
v -0.01607567 -0.03997225 -0.12028723
v -0.01375681 -0.04063652 -0.12046127
v -0.01375681 -0.03866779 -0.11991138
v -0.01375681 -0.03930798 -0.12037611
v -0.01375681 -0.03967057 -0.12044646
v -0.02827100 -0.02996858 -0.11867090
v -0.02827100 -0.03142034 -0.11786921
v -0.02665121 -0.03269222 -0.11878384
v -0.02224793 -0.03620759 -0.11692127
v -0.02224935 -0.03620759 -0.11527346
v -0.02325106 -0.03554616 -0.11527346
v -0.02466483 -0.03454338 -0.11527346
v -0.02566796 -0.03375873 -0.11527346
v -0.02462931 -0.03432244 -0.11854500
v -0.02447585 -0.03440175 -0.11326832
v -0.02466483 -0.03253217 -0.10154853
v -0.02114818 -0.03478558 -0.10154853
v -0.02044058 -0.03632374 -0.10926360
v -0.02115528 -0.03654044 -0.11334423
v -0.02211863 -0.03612686 -0.11406445
v -0.01843716 -0.03827971 -0.11527346
v -0.01943887 -0.03774008 -0.11527346
v -0.02827100 -0.03077165 -0.11865239
v -0.02324112 -0.03353353 -0.10154853
v -0.02223940 -0.03419779 -0.10154853
f 1 2 6
f 1 6 15
f 1 15 14
f 1 14 25
f 1 25 41
f 1 41 44
f 1 44 43
f 1 43 42
f 1 42 27
f 1 27 17
f 1 17 9
f 1 9 3
f 1 3 4
f 1 4 10
f 1 10 19
f 1 19 30
f 1 30 37
f 1 37 36
f 1 36 55
f 1 55 63
f 1 63 64
f 1 64 56
f 1 56 38
f 1 38 22
f 1 22 11
f 1 11 5
f 1 5 2
f 2 5 6
f 3 7 8
f 3 8 4
f 3 9 7
f 4 8 7
f 4 7 16
f 4 16 18
f 4 18 29
f 4 29 45
f 4 45 62
f 4 62 46
f 4 46 31
f 4 31 20
f 4 20 10
f 5 11 12
f 5 12 13
f 5 13 14
f 5 14 15
f 5 15 6
f 7 9 16
f 9 17 18
f 9 18 16
f 10 20 21
f 10 21 19
f 11 22 23
f 11 23 24
f 11 24 12
f 12 24 13
f 13 25 14
f 13 24 23
f 13 23 26
f 13 26 25
f 17 27 28
f 17 28 18
f 18 28 29
f 19 21 30
f 20 31 32
f 20 32 21
f 21 32 33
f 21 33 34
f 21 34 35
f 21 35 36
f 21 36 37
f 21 37 30
f 22 38 39
f 22 39 26
f 22 26 23
f 25 26 40
f 25 40 41
f 26 39 40
f 27 42 28
f 28 42 43
f 28 43 29
f 29 43 44
f 29 44 40
f 29 40 45
f 31 46 47
f 31 47 32
f 32 47 33
f 33 47 34
f 34 48 49
f 34 49 50
f 34 50 51
f 34 51 52
f 34 52 35
f 34 47 53
f 34 53 40
f 34 40 48
f 35 52 36
f 36 52 54
f 36 54 55
f 38 56 39
f 39 56 57
f 39 57 58
f 39 58 59
f 39 59 60
f 39 60 40
f 40 60 61
f 40 61 49
f 40 49 48
f 40 53 47
f 40 47 62
f 40 62 45
f 40 44 41
f 46 62 47
f 49 61 59
f 49 59 50
f 50 59 63
f 50 63 54
f 50 54 51
f 51 54 52
f 54 63 55
f 56 64 57
f 57 59 58
f 57 64 59
f 59 64 63
f 59 61 60

