# https://github.com/mikedh/trimesh
v -0.01117565 0.03339456 -0.11152839
v -0.00109928 0.03779130 -0.11152839
v -0.01117565 0.03607714 -0.11152839
v -0.01117565 0.03359413 -0.11201921
v -0.00109928 0.03952647 -0.11899610
v -0.00109928 0.03895298 -0.11728022
v -0.00109928 0.04005899 -0.11152839
v -0.01085115 0.03627566 -0.11152839
v -0.00834290 0.04246954 -0.11800648
v -0.01117565 0.03916935 -0.11725468
v -0.01117565 0.03411930 -0.11323390
v -0.00109928 0.04109779 -0.11968086
v -0.01117565 0.03586917 -0.11728022
v -0.01117565 0.03695733 -0.11888597
v -0.01117565 0.03705816 -0.11895380
v -0.00109928 0.04360811 -0.11799291
v -0.00146521 0.04411752 -0.11825787
v -0.00300783 0.04412383 -0.11824750
v -0.00446563 0.04411648 -0.11826026
v -0.00275632 0.03971658 -0.11152839
v -0.01061443 0.03641535 -0.11152839
v -0.00701629 0.04287077 -0.11778939
v -0.00834290 0.04246954 -0.11864095
v -0.01045563 0.04031423 -0.11815253
v -0.00873152 0.03749826 -0.11152839
v -0.00714944 0.03833433 -0.11152839
v -0.00699163 0.03840260 -0.11152839
v -0.01117565 0.03924918 -0.11887479
v -0.00701629 0.04109779 -0.11958510
v -0.00109928 0.04119442 -0.11965054
v -0.01117565 0.03924918 -0.11898972
v -0.00109928 0.04360811 -0.11863936
v -0.00146521 0.04411752 -0.11830177
v -0.00300783 0.04412383 -0.11830975
v -0.00446563 0.04411648 -0.11829938
v -0.00686932 0.03844567 -0.11152839
v -0.00500318 0.03909793 -0.11152839
v -0.00473687 0.03917460 -0.11152839
v -0.01045563 0.04031423 -0.11851885
v -0.00701629 0.04287077 -0.11887081
v -0.00508505 0.04329616 -0.11879978
v -0.00300783 0.04310289 -0.11893465
v -0.00109928 0.04327935 -0.11885325
v -0.00109928 0.04338439 -0.11878860
f 1 2 7
f 1 7 20
f 1 20 38
f 1 38 37
f 1 37 36
f 1 36 27
f 1 27 26
f 1 26 25
f 1 25 21
f 1 21 8
f 1 8 3
f 1 3 10
f 1 10 28
f 1 28 31
f 1 31 15
f 1 15 14
f 1 14 13
f 1 13 11
f 1 11 4
f 1 4 5
f 1 5 6
f 1 6 2
f 2 6 5
f 2 5 12
f 2 12 30
f 2 30 43
f 2 43 44
f 2 44 32
f 2 32 16
f 2 16 7
f 3 8 9
f 3 9 10
f 4 11 5
f 5 11 13
f 5 13 14
f 5 14 15
f 5 15 12
f 7 16 17
f 7 17 18
f 7 18 19
f 7 19 20
f 8 21 9
f 9 22 19
f 9 19 35
f 9 35 23
f 9 23 39
f 9 39 24
f 9 24 10
f 9 21 25
f 9 25 26
f 9 26 27
f 9 27 22
f 10 24 28
f 12 29 30
f 12 15 29
f 15 31 29
f 16 32 33
f 16 33 17
f 17 33 34
f 17 34 18
f 18 34 35
f 18 35 19
f 19 22 27
f 19 27 36
f 19 36 37
f 19 37 38
f 19 38 20
f 23 35 40
f 23 40 29
f 23 29 31
f 23 31 39
f 24 39 31
f 24 31 28
f 29 40 41
f 29 41 42
f 29 42 30
f 30 42 43
f 32 44 34
f 32 34 33
f 34 44 35
f 35 44 41
f 35 41 40
f 41 44 43
f 41 43 42

