# https://github.com/mikedh/trimesh
v 0.03939461 -0.00127201 -0.11940216
v 0.04065279 -0.00127201 -0.11932233
v 0.03892612 -0.00127201 -0.11742737
v 0.03601982 0.01371176 -0.12038325
v 0.03974387 -0.00054746 -0.12063746
v 0.04048026 -0.00054746 -0.12063746
v 0.04115284 0.00100269 -0.11928241
v 0.04093683 -0.00127201 -0.11727821
v 0.03560253 0.01461200 -0.11945888
v 0.03740634 -0.00127201 -0.10324881
v 0.03599176 0.01461200 -0.12054081
v 0.03762726 0.00902088 -0.12069417
v 0.03966742 0.00100269 -0.12073829
v 0.04072012 0.00100269 -0.12073829
v 0.04110024 0.00300996 -0.11928241
v 0.04112408 0.00100269 -0.11326771
v 0.04117458 -0.00113674 -0.11326771
v 0.04109883 -0.00127201 -0.11527401
v 0.04068856 0.00300996 -0.12072989
v 0.03724714 -0.00127201 -0.10137906
v 0.03458771 0.01461200 -0.10725931
v 0.03842678 0.01102504 -0.12065636
v 0.03745544 0.01102504 -0.12065636
v 0.03736286 0.01461200 -0.12050300
v 0.03944510 0.00501411 -0.12073409
v 0.03869258 0.00902088 -0.12069417
v 0.04050481 0.00501411 -0.12073409
v 0.04029792 0.00652384 -0.12053872
v 0.04076079 0.00501411 -0.11928241
v 0.04060791 0.00701672 -0.11527401
v 0.04088002 0.00501411 -0.11527401
v 0.04102239 0.00300996 -0.11326771
v 0.04092350 0.00100269 -0.11126351
v 0.04096839 -0.00113674 -0.11126351
v 0.03924032 -0.00127201 -0.10097570
v 0.03415499 0.01461200 -0.10187276
v 0.03712301 -0.00127201 -0.09939377
v 0.03403997 0.01461200 -0.10009545
v 0.03822620 0.01303075 -0.12047148
v 0.03786080 0.01461200 -0.11969207
v 0.03811889 0.01413933 -0.12033072
v 0.04012609 0.00817972 -0.11849670
v 0.04021376 0.00847825 -0.11727821
v 0.04031615 0.00711934 -0.11921098
v 0.04029932 0.00865860 -0.11527401
v 0.04023971 0.00841916 -0.11363116
v 0.04079516 0.00501411 -0.11326771
v 0.04079165 0.00300996 -0.11126351
v 0.03909795 0.00302706 -0.09927613
v 0.03921928 0.00102135 -0.09927613
v 0.03907551 -0.00120204 -0.09927613
v 0.03400981 0.01461200 -0.09927613
v 0.03791410 0.01461200 -0.11412065
v 0.03803333 0.01437878 -0.11326771
v 0.03850392 0.01322510 -0.11543788
v 0.03857826 0.01303075 -0.11326771
v 0.03811398 0.01408492 -0.11217528
v 0.03684107 0.01304630 -0.09927613
v 0.03819113 0.00850468 -0.09927613
v 0.03849130 0.00701672 -0.09927613
v 0.04014994 0.00622843 -0.10994839
v 0.04055601 0.00501411 -0.11126351
v 0.03883144 0.00503277 -0.09927613
v 0.03629684 0.01461200 -0.09927613
f 1 2 8
f 1 8 18
f 1 18 35
f 1 35 37
f 1 37 20
f 1 20 10
f 1 10 3
f 1 3 4
f 1 4 5
f 1 5 6
f 1 6 2
f 2 7 8
f 2 6 7
f 3 9 4
f 3 10 9
f 4 11 5
f 4 9 11
f 5 11 12
f 5 12 13
f 5 13 14
f 5 14 6
f 6 14 7
f 7 15 16
f 7 16 17
f 7 17 18
f 7 18 8
f 7 14 19
f 7 19 15
f 9 10 20
f 9 20 21
f 9 21 36
f 9 36 38
f 9 38 52
f 9 52 64
f 9 64 53
f 9 53 40
f 9 40 24
f 9 24 11
f 11 22 23
f 11 23 12
f 11 24 22
f 12 25 13
f 12 23 22
f 12 22 26
f 12 26 27
f 12 27 25
f 13 25 27
f 13 27 14
f 14 27 19
f 15 19 27
f 15 27 28
f 15 28 29
f 15 29 30
f 15 30 31
f 15 31 32
f 15 32 16
f 16 32 33
f 16 33 17
f 17 33 34
f 17 34 18
f 18 34 35
f 20 36 21
f 20 37 38
f 20 38 36
f 22 24 39
f 22 39 27
f 22 27 26
f 24 40 41
f 24 41 39
f 27 39 41
f 27 41 28
f 28 41 42
f 28 42 43
f 28 43 44
f 28 44 29
f 29 44 43
f 29 43 45
f 29 45 30
f 30 45 46
f 30 46 47
f 30 47 31
f 31 47 32
f 32 47 48
f 32 48 33
f 33 48 49
f 33 49 50
f 33 50 34
f 34 50 51
f 34 51 35
f 35 51 37
f 37 51 52
f 37 52 38
f 40 53 41
f 41 53 54
f 41 54 55
f 41 55 45
f 41 45 43
f 41 43 42
f 45 56 57
f 45 57 46
f 45 55 56
f 46 57 58
f 46 58 59
f 46 59 60
f 46 60 61
f 46 61 62
f 46 62 47
f 47 62 48
f 48 62 49
f 49 63 60
f 49 60 59
f 49 59 58
f 49 58 64
f 49 64 52
f 49 52 51
f 49 51 50
f 49 62 63
f 53 64 54
f 54 64 57
f 54 57 56
f 54 56 55
f 57 64 58
f 60 63 62
f 60 62 61

