# https://github.com/mikedh/trimesh
v 0.02989193 -0.02763103 -0.07314924
v 0.02780777 -0.02982064 -0.07915607
v 0.02874950 -0.02881869 -0.07915607
v 0.02986761 -0.02761987 -0.07515808
v 0.02981591 -0.02758240 -0.07899852
v 0.02747528 -0.02750588 0.10329403
v 0.02878802 -0.02797218 0.05110353
v 0.02747021 -0.02944042 0.05110353
v 0.02680522 -0.03070939 -0.07915607
v 0.02543774 -0.03154554 -0.09160301
v 0.02650213 -0.03059541 -0.09160301
v 0.02756550 -0.02957195 -0.09160301
v 0.02852445 -0.02857000 -0.09160301
v 0.02871402 -0.02877884 -0.08116492
v 0.02646665 -0.03045433 0.04909469
v 0.02975914 -0.02755770 -0.08106645
v 0.02740634 -0.02750588 0.10532257
v 0.02649604 -0.02851261 0.10522410
v 0.02940029 -0.02750588 -0.09160301
v 0.02646766 -0.03043201 0.05110353
v 0.02571854 -0.02972419 0.09519958
v 0.02509410 -0.03208996 -0.07716693
v 0.02507585 -0.03208358 -0.07915607
v 0.02428213 -0.03247096 -0.09160301
v 0.02527656 -0.03145627 0.04909469
v 0.02646056 -0.02847435 0.10723294
v 0.02413514 -0.02750588 0.10959628
v 0.02683259 -0.02796740 0.10941903
v 0.02644536 -0.02750588 -0.09160301
v 0.02471700 -0.03064244 0.09519958
v 0.02354720 -0.03167148 0.09319074
v 0.02542051 -0.02935832 0.10949781
v 0.02467037 -0.03059780 0.09720842
v 0.02267440 -0.03381406 -0.07114040
v 0.02315489 -0.03347132 -0.07716693
v 0.02427604 -0.03223025 0.04909469
v 0.02265818 -0.03380370 -0.07915607
v 0.02165563 -0.03432022 -0.08687633
v 0.02087407 -0.03467891 -0.09160301
v 0.01953599 -0.03102106 0.10939933
v 0.01953599 -0.03355023 0.10959628
v 0.02275448 -0.03150569 0.10959628
v 0.02442911 -0.02750588 0.06313689
v 0.01953599 -0.03542818 -0.09160301
v 0.01953599 -0.03294364 -0.09142577
v 0.02634196 -0.02750588 -0.08963356
v 0.02435004 -0.03031643 0.10939933
v 0.02298865 -0.03201583 0.09519958
v 0.02254465 -0.03243111 0.09319074
v 0.02157150 -0.03442544 -0.04508454
v 0.01953599 -0.03564897 -0.04307570
v 0.02105147 -0.03477855 -0.07915607
v 0.02105147 -0.03338762 0.09319074
v 0.02071897 -0.03448601 0.04909469
v 0.02105147 -0.03475463 -0.08116492
v 0.01953599 -0.03174721 0.01904084
v 0.02207530 -0.03209075 0.10851308
v 0.02144073 -0.03241597 0.10959628
v 0.01953599 -0.03510774 0.04909469
v 0.01965763 -0.03423493 0.09366341
v 0.01953599 -0.03560513 -0.08104675
v 0.02261763 -0.03174242 0.10723294
v 0.01953599 -0.03564897 -0.06913156
f 1 2 3
f 1 3 4
f 1 4 5
f 1 5 6
f 1 6 7
f 1 7 8
f 1 8 2
f 2 9 10
f 2 10 11
f 2 11 12
f 2 12 13
f 2 13 14
f 2 14 3
f 2 8 15
f 2 15 9
f 3 5 4
f 3 14 5
f 5 14 13
f 5 13 16
f 5 16 6
f 6 17 18
f 6 18 8
f 6 8 7
f 6 16 19
f 6 19 29
f 6 29 46
f 6 46 43
f 6 43 27
f 6 27 17
f 8 20 15
f 8 18 21
f 8 21 20
f 9 22 23
f 9 23 24
f 9 24 10
f 9 15 25
f 9 25 22
f 10 24 39
f 10 39 44
f 10 44 29
f 10 29 19
f 10 19 13
f 10 13 12
f 10 12 11
f 13 19 16
f 15 20 25
f 17 26 18
f 17 27 28
f 17 28 26
f 18 26 21
f 20 21 30
f 20 30 31
f 20 31 25
f 21 26 32
f 21 32 33
f 21 33 30
f 22 34 35
f 22 35 23
f 22 25 36
f 22 36 34
f 23 35 37
f 23 37 24
f 24 38 39
f 24 37 38
f 25 31 36
f 26 28 32
f 27 40 41
f 27 41 58
f 27 58 42
f 27 42 32
f 27 32 28
f 27 43 40
f 29 44 45
f 29 45 46
f 30 33 31
f 31 33 47
f 31 47 48
f 31 48 49
f 31 49 36
f 32 47 33
f 32 42 47
f 34 36 50
f 34 50 51
f 34 51 52
f 34 52 37
f 34 37 35
f 36 49 53
f 36 53 54
f 36 54 50
f 37 52 38
f 38 55 39
f 38 52 55
f 39 55 44
f 40 43 56
f 40 56 45
f 40 45 44
f 40 44 61
f 40 61 63
f 40 63 51
f 40 51 59
f 40 59 41
f 41 57 58
f 41 59 60
f 41 60 57
f 42 58 57
f 42 57 47
f 43 46 56
f 44 55 61
f 45 56 46
f 47 57 62
f 47 62 48
f 48 62 57
f 48 57 49
f 49 57 53
f 50 54 51
f 51 63 52
f 51 54 59
f 52 63 61
f 52 61 55
f 53 60 54
f 53 57 60
f 54 60 59

