# https://github.com/mikedh/trimesh
v -0.03778444 0.01320927 -0.10636381
v -0.03629743 0.01534583 -0.10636381
v -0.02507570 0.02449303 -0.10636381
v -0.02507570 0.02175275 -0.10593322
v -0.03501548 0.01320927 -0.10580497
v -0.03792785 0.01320927 -0.09121078
v -0.03784105 0.01336574 -0.08920443
v -0.03493120 0.01685375 -0.10636381
v -0.03673523 0.01484596 -0.08920443
v -0.03425060 0.01827304 -0.04110684
v -0.03347690 0.01927832 -0.03910048
v -0.03244908 0.02046361 -0.04912310
v -0.03152190 0.02143011 -0.05513301
v -0.03150429 0.02142181 -0.05714853
v -0.03224779 0.02022960 -0.08117900
v -0.02789245 0.02251986 -0.10636381
v -0.02507570 0.02573232 -0.09492117
v -0.02507570 0.02156997 -0.10340467
v -0.03471104 0.01320927 -0.10321228
v -0.03504190 0.01320927 -0.01277049
v -0.03739444 0.01332143 -0.01277049
v -0.03628359 0.01532368 -0.01277049
v -0.03387067 0.01886015 -0.01277049
v -0.03337752 0.01821350 -0.10636381
v -0.03222515 0.02020606 -0.08319452
v -0.03124388 0.02120580 -0.08319452
v -0.03024248 0.02221800 -0.08319452
v -0.03020599 0.02218199 -0.08520088
v -0.02919327 0.02322050 -0.08319452
v -0.02819061 0.02416486 -0.08319452
v -0.02810632 0.02408870 -0.08575056
v -0.03252330 0.02056192 -0.01277049
v -0.03201506 0.02100640 -0.03910048
v -0.03153574 0.02143704 -0.05313582
v -0.03053560 0.02251709 -0.05313582
v -0.03052176 0.02250047 -0.05513301
v -0.03091679 0.02025729 -0.10636381
v -0.02507570 0.02589432 -0.09321714
v -0.03464814 0.01320927 -0.07517825
v -0.03463556 0.01320927 -0.10123340
v -0.02507570 0.02443764 -0.01904608
v -0.03495384 0.01320927 -0.01504253
v -0.03491233 0.01320927 -0.01704888
v -0.03476765 0.01320927 -0.02707150
v -0.02507822 0.02467026 -0.01277965
v -0.02525183 0.02735516 -0.01277049
v -0.02952288 0.02351960 -0.05313582
v -0.02949772 0.02350298 -0.05513301
v -0.02821200 0.02418840 -0.08117900
v -0.02849506 0.02445564 -0.05513301
v -0.02734017 0.02545815 -0.05513301
v -0.02632368 0.02626819 -0.05714853
v -0.02554495 0.02635542 -0.08319452
v -0.02550595 0.02625434 -0.08520088
v -0.03158481 0.02160043 -0.01277049
v -0.03061863 0.02260017 -0.01277049
v -0.02507570 0.02725408 -0.05914572
v -0.02507570 0.02458164 -0.01486846
v -0.02508451 0.02730116 -0.05113862
v -0.02647464 0.02639696 -0.01277049
v -0.02852022 0.02446810 -0.05313582
v -0.02907753 0.02411224 -0.01277049
v -0.02755153 0.02549692 -0.01277049
v -0.02684954 0.02587909 -0.05313582
f 1 2 8
f 1 8 24
f 1 24 37
f 1 37 16
f 1 16 3
f 1 3 4
f 1 4 5
f 1 5 19
f 1 19 40
f 1 40 39
f 1 39 44
f 1 44 43
f 1 43 42
f 1 42 20
f 1 20 6
f 1 6 7
f 1 7 2
f 2 7 9
f 2 9 10
f 2 10 11
f 2 11 12
f 2 12 13
f 2 13 14
f 2 14 15
f 2 15 8
f 3 16 17
f 3 17 38
f 3 38 57
f 3 57 58
f 3 58 41
f 3 41 18
f 3 18 4
f 4 18 19
f 4 19 5
f 6 20 21
f 6 21 7
f 7 21 22
f 7 22 23
f 7 23 9
f 8 15 25
f 8 25 26
f 8 26 27
f 8 27 28
f 8 28 29
f 8 29 30
f 8 30 31
f 8 31 24
f 9 23 10
f 10 23 11
f 11 23 32
f 11 32 12
f 12 32 33
f 12 33 34
f 12 34 13
f 13 34 35
f 13 35 14
f 14 35 36
f 14 36 15
f 15 26 25
f 15 36 26
f 16 37 17
f 17 37 38
f 18 39 40
f 18 40 19
f 18 41 42
f 18 42 43
f 18 43 44
f 18 44 39
f 20 42 45
f 20 45 46
f 20 46 60
f 20 60 63
f 20 63 62
f 20 62 56
f 20 56 55
f 20 55 32
f 20 32 23
f 20 23 22
f 20 22 21
f 24 31 37
f 26 36 27
f 27 29 28
f 27 36 47
f 27 47 48
f 27 48 29
f 29 49 30
f 29 48 50
f 29 50 49
f 30 49 51
f 30 51 52
f 30 52 53
f 30 53 31
f 31 53 54
f 31 54 37
f 32 55 33
f 33 35 34
f 33 55 35
f 35 55 56
f 35 56 47
f 35 47 36
f 37 54 38
f 38 54 53
f 38 53 57
f 41 58 42
f 42 58 45
f 45 58 57
f 45 57 59
f 45 59 46
f 46 59 60
f 47 61 50
f 47 50 48
f 47 56 62
f 47 62 61
f 49 50 51
f 50 61 51
f 51 61 63
f 51 63 64
f 51 64 52
f 52 57 53
f 52 64 57
f 57 64 59
f 59 64 60
f 60 64 63
f 61 62 63

