# https://github.com/mikedh/trimesh
v 0.03831836 0.00663313 -0.01302015
v 0.03826629 0.00690573 -0.01302015
v 0.03825761 0.00687292 -0.01101947
v 0.03830258 0.00663313 -0.01101947
v 0.03831521 0.00663313 -0.01330050
v 0.03826629 0.00689011 -0.01330050
v 0.03798222 0.00790787 -0.01302015
v 0.03673392 0.01102600 0.03709877
v 0.03791200 0.00663313 0.03308467
v 0.03614765 0.00663313 -0.01330050
v 0.03802010 0.00775790 -0.01330050
v 0.03699352 0.01102600 -0.01330050
v 0.03789858 0.00663313 0.03416784
v 0.03637332 0.01286547 -0.00901879
v 0.03624549 0.01243275 0.03508535
v 0.03623366 0.01241400 0.03709877
v 0.03615475 0.01022694 0.07917674
v 0.03648458 0.00902171 0.07917674
v 0.03589673 0.00723535 -0.01330050
v 0.03562844 0.00663313 0.00101009
v 0.03639699 0.01277955 -0.01330050
v 0.03638437 0.01283657 -0.01101947
v 0.03788122 0.00663313 0.03508535
v 0.03558268 0.01461200 -0.00901879
v 0.03522839 0.01461200 0.03709877
v 0.03522050 0.01461200 0.03759575
v 0.03428230 0.01446437 0.08519153
v 0.03488120 0.01102600 0.11526542
v 0.03612477 0.01013789 0.08119017
v 0.03612398 0.00663313 0.11526542
v 0.03690909 0.00701742 0.08119017
v 0.03328966 0.01461200 -0.01330050
v 0.03555901 0.00663313 0.00301077
v 0.03259923 0.01461200 0.00273042
v 0.03548405 0.01461200 -0.01330050
v 0.03551403 0.01461200 -0.01231928
v 0.03555033 0.01461200 -0.01101947
v 0.03557005 0.01461200 -0.01029311
v 0.03696512 0.00663313 0.08119017
v 0.03420260 0.01461200 0.08519153
v 0.03323206 0.01461200 0.11526542
v 0.03378598 0.01350206 0.11526542
v 0.03427283 0.01249914 0.11526542
v 0.03419314 0.01231793 0.11673089
v 0.03427520 0.01204454 0.11688381
v 0.03461607 0.01112988 0.11688381
v 0.03513923 0.00941851 0.11688381
v 0.03595038 0.00663313 0.11688381
v 0.03258976 0.01461200 0.00301077
v 0.03315315 0.00663313 0.11688381
v 0.03305373 0.01461200 0.11688381
v 0.03408582 0.01247961 0.11688381
v 0.03025807 0.01461200 0.11688381
f 1 2 3
f 1 3 4
f 1 4 9
f 1 9 13
f 1 13 23
f 1 23 39
f 1 39 30
f 1 30 48
f 1 48 50
f 1 50 33
f 1 33 20
f 1 20 10
f 1 10 5
f 1 5 6
f 1 6 2
f 2 6 7
f 2 7 8
f 2 8 3
f 3 8 9
f 3 9 4
f 5 10 19
f 5 19 32
f 5 32 35
f 5 35 21
f 5 21 12
f 5 12 11
f 5 11 6
f 6 11 7
f 7 11 12
f 7 12 8
f 8 13 9
f 8 12 14
f 8 14 15
f 8 15 16
f 8 16 17
f 8 17 18
f 8 18 13
f 10 20 19
f 12 21 22
f 12 22 14
f 13 18 23
f 14 22 24
f 14 24 15
f 15 25 16
f 15 24 25
f 16 25 26
f 16 26 27
f 16 27 17
f 17 27 28
f 17 28 29
f 17 29 18
f 18 29 30
f 18 30 31
f 18 31 23
f 19 20 33
f 19 33 34
f 19 34 32
f 21 35 36
f 21 36 37
f 21 37 38
f 21 38 24
f 21 24 22
f 23 31 39
f 24 38 37
f 24 37 36
f 24 36 35
f 24 35 32
f 24 32 34
f 24 34 49
f 24 49 53
f 24 53 51
f 24 51 41
f 24 41 40
f 24 40 26
f 24 26 25
f 26 40 27
f 27 40 41
f 27 41 42
f 27 42 43
f 27 43 28
f 28 43 44
f 28 44 45
f 28 45 46
f 28 46 47
f 28 47 48
f 28 48 30
f 28 30 29
f 30 39 31
f 33 49 34
f 33 50 49
f 41 51 42
f 42 51 44
f 42 44 43
f 44 51 52
f 44 52 45
f 45 52 51
f 45 51 53
f 45 53 50
f 45 50 48
f 45 48 47
f 45 47 46
f 49 50 53

