# https://github.com/mikedh/trimesh
v -0.00056087 -0.03869253 -0.09085252
v -0.01375681 -0.03595874 -0.09085252
v -0.00056087 -0.04046870 -0.09085252
v -0.00056087 -0.03867088 -0.10124291
v -0.01375681 -0.03561150 -0.09923821
v -0.01375681 -0.03563481 -0.09723352
v -0.01375681 -0.03565896 -0.09668464
v -0.01375681 -0.03831947 -0.09085252
v -0.00063708 -0.04047037 -0.09085252
v -0.00997860 -0.04411681 -0.12025969
v -0.00056087 -0.04311339 -0.11727759
v -0.00056087 -0.03867671 -0.10168612
v -0.01375681 -0.03564731 -0.10124291
v -0.01303088 -0.03854431 -0.09085252
v -0.01375681 -0.04082344 -0.11975484
v -0.01231657 -0.04226653 -0.12016282
v -0.01005481 -0.04411681 -0.12025969
v -0.00100263 -0.04047203 -0.09085252
v -0.00997860 -0.04411681 -0.12030665
v -0.00056087 -0.04292104 -0.11892713
v -0.00056087 -0.03873250 -0.10324762
v -0.01375681 -0.03575972 -0.10285724
v -0.00056087 -0.03893984 -0.10769729
v -0.00056087 -0.03903561 -0.10925878
v -0.01266533 -0.03863507 -0.09085252
v -0.01375681 -0.04073600 -0.12046222
v -0.01231657 -0.04226653 -0.12040057
v -0.01005481 -0.04411681 -0.12030665
v -0.00264179 -0.04042124 -0.09085252
v -0.00300734 -0.04040625 -0.09085252
v -0.00484412 -0.04024137 -0.09085252
v -0.00508696 -0.04021806 -0.09085252
v -0.00600407 -0.04005651 -0.09085252
v -0.01102617 -0.03903061 -0.09085252
v -0.00953426 -0.04310257 -0.12053559
v -0.00946322 -0.04109823 -0.12056787
v -0.00056087 -0.04100747 -0.11884495
v -0.01375681 -0.03578720 -0.10324762
v -0.00056087 -0.03910222 -0.10970199
v -0.00185773 -0.04008732 -0.11829608
v -0.01183477 -0.03802303 -0.11844871
v -0.01375681 -0.04053865 -0.12046222
v -0.01102617 -0.04109823 -0.12083791
v -0.01084404 -0.04300181 -0.12055320
v -0.01102617 -0.03978255 -0.12051504
v -0.00056087 -0.04037627 -0.11739792
v -0.01375681 -0.03763582 -0.11823737
v -0.00056087 -0.03935037 -0.11126348
v -0.01303088 -0.03864173 -0.11978419
v -0.01375681 -0.03826202 -0.11954938
v -0.01375681 -0.03775989 -0.11890952
v -0.01303088 -0.03785566 -0.11878038
v -0.01375681 -0.03967263 -0.12044753
v -0.01303088 -0.03964432 -0.12051210
v -0.01375681 -0.03930957 -0.12037710
v -0.01375681 -0.03867005 -0.11991334
f 1 2 8
f 1 8 14
f 1 14 25
f 1 25 34
f 1 34 33
f 1 33 32
f 1 32 31
f 1 31 30
f 1 30 29
f 1 29 18
f 1 18 9
f 1 9 3
f 1 3 11
f 1 11 20
f 1 20 37
f 1 37 46
f 1 46 48
f 1 48 39
f 1 39 24
f 1 24 23
f 1 23 21
f 1 21 12
f 1 12 4
f 1 4 5
f 1 5 6
f 1 6 7
f 1 7 2
f 2 7 6
f 2 6 5
f 2 5 13
f 2 13 22
f 2 22 38
f 2 38 47
f 2 47 51
f 2 51 50
f 2 50 56
f 2 56 55
f 2 55 53
f 2 53 42
f 2 42 26
f 2 26 15
f 2 15 8
f 3 9 10
f 3 10 11
f 4 12 5
f 5 12 13
f 8 15 16
f 8 16 17
f 8 17 14
f 9 18 10
f 10 17 28
f 10 28 19
f 10 19 11
f 10 18 17
f 11 19 20
f 12 21 13
f 13 21 23
f 13 23 24
f 13 24 22
f 14 17 25
f 15 26 27
f 15 27 16
f 16 27 28
f 16 28 17
f 17 18 29
f 17 29 30
f 17 30 31
f 17 31 32
f 17 32 33
f 17 33 34
f 17 34 25
f 19 28 35
f 19 35 20
f 20 35 36
f 20 36 37
f 22 24 38
f 24 39 40
f 24 40 41
f 24 41 38
f 26 42 43
f 26 43 44
f 26 44 27
f 27 44 28
f 28 44 35
f 35 44 43
f 35 43 36
f 36 43 45
f 36 45 37
f 37 40 46
f 37 45 40
f 38 41 47
f 39 48 40
f 40 45 49
f 40 49 50
f 40 50 51
f 40 51 52
f 40 52 41
f 40 48 46
f 41 52 47
f 42 53 43
f 43 53 54
f 43 54 45
f 45 54 55
f 45 55 56
f 45 56 50
f 45 50 49
f 47 52 51
f 53 55 54

