# https://github.com/mikedh/trimesh
v 0.03426634 -0.02155727 -0.07116953
v 0.03400052 -0.02199515 -0.07116953
v 0.03425147 -0.02155727 -0.07317065
v 0.03340539 -0.02155727 0.05312166
v 0.03261487 -0.02288663 0.05312166
v 0.03233912 -0.02442735 -0.07317065
v 0.03232822 -0.02441803 -0.07517176
v 0.03398862 -0.02198641 -0.07317065
v 0.03420881 -0.02155727 -0.07517176
v 0.03239566 -0.02155727 0.09084630
v 0.03208421 -0.02206444 0.09040160
v 0.03035636 -0.02441104 0.09521910
v 0.03023238 -0.02625223 0.05312166
v 0.03162398 -0.02542888 -0.07317065
v 0.03161803 -0.02542014 -0.07517176
v 0.03023535 -0.02626620 0.05112055
v 0.03231036 -0.02438542 -0.07717286
v 0.03395688 -0.02195788 -0.07517176
v 0.03227862 -0.02433477 -0.07917398
v 0.03409872 -0.02155727 -0.07717286
v 0.03217547 -0.02155727 0.09722020
v 0.03032363 -0.02436563 0.09722020
v 0.02840831 -0.02646243 0.10324206
v 0.02918991 -0.02750530 0.05112055
v 0.02939127 -0.02726889 0.05112055
v 0.03062219 -0.02675124 -0.07317065
v 0.03061524 -0.02672970 -0.07517176
v 0.03157340 -0.02538754 -0.07717286
v 0.02999532 -0.02750530 -0.07317065
v 0.03032264 -0.02688459 -0.07967426
v 0.03208223 -0.02455137 -0.07967426
v 0.03225977 -0.02430914 -0.07967426
v 0.03389637 -0.02155727 -0.07967426
v 0.03208322 -0.02155727 0.09922132
v 0.03069658 -0.02300832 0.10961597
v 0.03022742 -0.02426082 0.10124095
v 0.03027701 -0.02431264 0.09922132
v 0.02827441 -0.02631511 0.10961597
v 0.02757315 -0.02714021 0.10961597
v 0.02749876 -0.02740806 0.10524318
v 0.02751662 -0.02746512 0.10324206
v 0.02747793 -0.02750530 0.10331618
v 0.02996259 -0.02750530 -0.07517176
v 0.02987927 -0.02750530 -0.07887752
v 0.02984951 -0.02750530 -0.07967426
v 0.03135816 -0.02155727 -0.07967426
v 0.03160018 -0.02155727 0.10961597
v 0.03152182 -0.02168596 0.10961597
v 0.03012525 -0.02383342 0.10961597
v 0.02999929 -0.02401102 0.10961597
v 0.02741644 -0.02731722 0.10961597
v 0.02740453 -0.02750530 0.10542846
v 0.02692645 -0.02750530 -0.07967426
v 0.02622519 -0.02750530 -0.06314657
v 0.02616469 -0.02750530 -0.06114546
v 0.03103183 -0.02155727 -0.06114546
v 0.02900443 -0.02155727 0.10961597
v 0.02567966 -0.02750530 0.10961597
v 0.02724187 -0.02750530 0.10959744
v 0.02725674 -0.02750530 0.10931951
v 0.02442890 -0.02750530 0.06314574
v 0.03003301 -0.02155727 0.02104830
v 0.02413332 -0.02750530 0.10961597
f 1 2 3
f 1 3 9
f 1 9 20
f 1 20 33
f 1 33 46
f 1 46 56
f 1 56 62
f 1 62 57
f 1 57 47
f 1 47 34
f 1 34 21
f 1 21 10
f 1 10 4
f 1 4 5
f 1 5 2
f 2 6 7
f 2 7 8
f 2 8 3
f 2 5 6
f 3 8 9
f 4 10 5
f 5 10 11
f 5 11 12
f 5 12 13
f 5 13 6
f 6 14 15
f 6 15 7
f 6 13 16
f 6 16 14
f 7 15 17
f 7 17 8
f 8 17 18
f 8 18 9
f 9 18 19
f 9 19 20
f 10 21 11
f 11 21 22
f 11 22 12
f 12 22 23
f 12 23 13
f 13 24 25
f 13 25 16
f 13 23 24
f 14 26 15
f 14 16 26
f 15 27 28
f 15 28 17
f 15 26 27
f 16 25 29
f 16 29 26
f 17 28 19
f 17 19 18
f 19 30 31
f 19 31 32
f 19 32 20
f 19 28 30
f 20 32 33
f 21 34 35
f 21 35 36
f 21 36 37
f 21 37 22
f 22 37 38
f 22 38 23
f 23 38 39
f 23 39 40
f 23 40 41
f 23 41 24
f 24 41 42
f 24 42 52
f 24 52 60
f 24 60 59
f 24 59 58
f 24 58 63
f 24 63 61
f 24 61 55
f 24 55 54
f 24 54 53
f 24 53 45
f 24 45 44
f 24 44 43
f 24 43 29
f 24 29 25
f 26 29 27
f 27 29 43
f 27 43 44
f 27 44 45
f 27 45 28
f 28 45 30
f 30 45 53
f 30 53 46
f 30 46 33
f 30 33 32
f 30 32 31
f 34 47 48
f 34 48 35
f 35 48 47
f 35 47 57
f 35 57 63
f 35 63 58
f 35 58 51
f 35 51 39
f 35 39 38
f 35 38 50
f 35 50 49
f 35 49 36
f 36 49 50
f 36 50 38
f 36 38 37
f 39 51 40
f 40 52 42
f 40 42 41
f 40 51 52
f 46 53 54
f 46 54 55
f 46 55 56
f 51 58 59
f 51 59 60
f 51 60 52
f 55 61 56
f 56 61 62
f 57 62 61
f 57 61 63

