# https://github.com/mikedh/trimesh
v 0.01753322 0.02815560 0.11688380
v 0.01753322 0.03115985 0.11688380
v 0.01514525 0.02921278 0.11688380
v 0.01078547 0.03309917 0.01704574
v 0.01078547 0.03314315 0.01504125
v 0.01753322 0.02830477 0.11125641
v 0.01614602 0.03213770 0.11652746
v 0.01652981 0.03181693 0.11688380
v 0.01753322 0.03132369 0.11526537
v 0.01111377 0.03119866 0.11688380
v 0.01078547 0.03168586 0.10323848
v 0.01753322 0.03085805 0.01704574
v 0.01078547 0.03484877 -0.03480354
v 0.01753322 0.03229809 -0.03480354
v 0.01196393 0.03399941 0.11526537
v 0.01096118 0.03443660 0.11526537
v 0.01080264 0.03437882 0.11688380
v 0.01160722 0.03403476 0.11688380
v 0.01562350 0.03230154 0.11688380
v 0.01606278 0.03208424 0.11688380
v 0.01715669 0.03155565 0.11526537
v 0.01753322 0.03348548 0.04709812
v 0.01723332 0.03366225 0.04709812
v 0.01623123 0.03417187 0.04709812
v 0.01078547 0.03158152 0.11688380
v 0.01078547 0.03683121 -0.03480354
v 0.01753322 0.03470132 -0.03480354
v 0.01078547 0.03448834 0.11526537
v 0.01078547 0.03438399 0.11688380
v 0.01503559 0.03460216 0.04709812
v 0.01753322 0.03439520 -0.00901254
v 0.01753322 0.03468235 -0.02905736
v 0.01421516 0.03615861 -0.03106185
v 0.01079075 0.03688208 -0.03480354
v 0.01078547 0.03694244 -0.03306632
v 0.01704043 0.03491000 -0.03480354
v 0.01753322 0.03470822 -0.03366025
v 0.01078547 0.03575333 0.04504910
v 0.01303142 0.03648715 -0.03106185
v 0.01753322 0.03470994 -0.03106185
v 0.01753322 0.03471253 -0.03174485
v 0.01753322 0.03471167 -0.03306632
v 0.01677818 0.03501865 -0.03480354
v 0.01416100 0.03613705 -0.03306632
v 0.01102658 0.03685190 -0.03480354
v 0.01078547 0.03696400 -0.03106185
v 0.01102658 0.03693468 -0.03106185
v 0.01102658 0.03691054 -0.03306632
v 0.01078547 0.03696228 -0.03082427
v 0.01303142 0.03644834 -0.03306632
v 0.01406785 0.03609911 -0.03480354
v 0.01303142 0.03636642 -0.03480354
v 0.01390932 0.03614223 -0.03480354
f 1 2 8
f 1 8 20
f 1 20 19
f 1 19 18
f 1 18 17
f 1 17 29
f 1 29 25
f 1 25 10
f 1 10 3
f 1 3 4
f 1 4 5
f 1 5 6
f 1 6 12
f 1 12 14
f 1 14 27
f 1 27 37
f 1 37 42
f 1 42 41
f 1 41 40
f 1 40 32
f 1 32 31
f 1 31 22
f 1 22 9
f 1 9 2
f 2 7 8
f 2 9 7
f 3 10 4
f 4 10 11
f 4 11 25
f 4 25 29
f 4 29 28
f 4 28 38
f 4 38 49
f 4 49 46
f 4 46 35
f 4 35 26
f 4 26 13
f 4 13 5
f 5 12 6
f 5 13 14
f 5 14 12
f 7 15 16
f 7 16 17
f 7 17 18
f 7 18 19
f 7 19 20
f 7 20 8
f 7 9 21
f 7 21 22
f 7 22 23
f 7 23 24
f 7 24 15
f 9 22 21
f 10 25 11
f 13 26 34
f 13 34 45
f 13 45 52
f 13 52 53
f 13 53 51
f 13 51 43
f 13 43 36
f 13 36 27
f 13 27 14
f 15 24 16
f 16 28 29
f 16 29 17
f 16 24 30
f 16 30 28
f 22 31 23
f 23 31 24
f 24 31 32
f 24 32 33
f 24 33 30
f 26 35 34
f 27 36 33
f 27 33 37
f 28 30 38
f 30 33 39
f 30 39 38
f 32 40 33
f 33 40 41
f 33 41 42
f 33 42 37
f 33 36 43
f 33 43 44
f 33 44 39
f 34 35 45
f 35 46 47
f 35 47 48
f 35 48 45
f 38 39 47
f 38 47 49
f 39 44 50
f 39 50 48
f 39 48 47
f 43 51 44
f 44 51 50
f 45 48 50
f 45 50 52
f 46 49 47
f 50 51 53
f 50 53 52

