# https://github.com/mikedh/trimesh
v -0.01302488 0.03393619 -0.00547567
v -0.01302724 0.03210136 -0.00547567
v -0.01302488 0.03173039 -0.00687611
v -0.01302488 0.03400214 -0.00701975
v -0.01698481 0.03251944 -0.00701975
v -0.01701902 0.03243935 -0.00547567
v -0.02506862 0.02514240 -0.00547567
v -0.02507452 0.02477850 -0.00691202
v -0.02507452 0.02444050 -0.01904919
v -0.02507452 0.02256916 -0.09718668
v -0.01674063 0.02860480 -0.09718668
v -0.01302606 0.03140534 -0.09717771
v -0.01302488 0.03413404 -0.09522068
v -0.01302488 0.03404925 -0.00902166
v -0.01302842 0.03459570 -0.05312662
v -0.01413843 0.03413404 -0.05312662
v -0.01414669 0.03413876 -0.05511955
v -0.01750501 0.03226859 -0.00902166
v -0.01798747 0.03198948 -0.00701975
v -0.02045992 0.03054210 -0.00547567
v -0.02471002 0.02784166 -0.00547567
v -0.02507452 0.02730935 -0.05112470
v -0.02507452 0.02725871 -0.05913236
v -0.02504149 0.02674406 -0.08318226
v -0.02500374 0.02665926 -0.08520213
v -0.02476664 0.02614226 -0.09321876
v -0.02470295 0.02600800 -0.09506807
v -0.02453898 0.02580897 -0.09706101
v -0.02072887 0.02854710 -0.09718668
v -0.01508683 0.03261129 -0.09718668
v -0.01313223 0.03394326 -0.09671987
v -0.02011429 0.03012049 -0.08872119
v -0.01675007 0.03248999 -0.08520213
v -0.01302488 0.03423886 -0.09357785
v -0.01302488 0.03460041 -0.07718550
v -0.01514935 0.03361940 -0.05511955
v -0.01411130 0.03411991 -0.07717652
v -0.02072651 0.03047733 -0.00902166
v -0.01805707 0.03208487 -0.05615193
v -0.02070763 0.03047026 -0.00701975
v -0.02465694 0.02788877 -0.00693895
v -0.02406950 0.02807955 -0.06023656
v -0.02374039 0.02780280 -0.08118933
v -0.02367669 0.02777100 -0.08318226
v -0.02017917 0.03016995 -0.08720405
v -0.02118183 0.02941505 -0.08720405
v -0.02241688 0.02836102 -0.08919698
v -0.02480439 0.02664395 -0.08720405
v -0.02230364 0.02827505 -0.09121685
v -0.02216680 0.02815964 -0.09321876
v -0.02207833 0.02808898 -0.09434989
v -0.01604231 0.03207780 -0.09623510
v -0.01995976 0.02996385 -0.09121685
v -0.01682792 0.03253475 -0.08318226
v -0.01302488 0.03442493 -0.08919698
v -0.01302842 0.03458745 -0.07918741
v -0.01302488 0.03447440 -0.08720405
v -0.01408299 0.03410460 -0.07918741
v -0.01508447 0.03358760 -0.07918741
v -0.01687157 0.03256890 -0.08118933
v -0.01787423 0.03188702 -0.08118933
v -0.02021928 0.03019939 -0.08520213
v -0.02273773 0.02852825 -0.08118933
v -0.01978636 0.02985197 -0.09321876
f 1 2 3
f 1 3 13
f 1 13 34
f 1 34 55
f 1 55 57
f 1 57 35
f 1 35 14
f 1 14 4
f 1 4 5
f 1 5 6
f 1 6 20
f 1 20 21
f 1 21 7
f 1 7 2
f 2 7 3
f 3 7 8
f 3 8 9
f 3 9 10
f 3 10 11
f 3 11 12
f 3 12 13
f 4 14 5
f 5 14 15
f 5 15 16
f 5 16 17
f 5 17 18
f 5 18 19
f 5 19 6
f 6 19 20
f 7 21 22
f 7 22 8
f 8 22 23
f 8 23 10
f 8 10 9
f 10 23 24
f 10 24 25
f 10 25 26
f 10 26 27
f 10 27 28
f 10 28 29
f 10 29 30
f 10 30 11
f 11 30 12
f 12 30 31
f 12 31 13
f 13 31 32
f 13 32 33
f 13 33 34
f 14 35 15
f 15 35 17
f 15 17 16
f 17 36 18
f 17 35 37
f 17 37 36
f 18 38 19
f 18 36 39
f 18 39 38
f 19 38 40
f 19 40 20
f 20 40 21
f 21 40 38
f 21 38 41
f 21 41 22
f 22 41 42
f 22 42 23
f 23 42 24
f 24 43 44
f 24 44 25
f 24 42 43
f 25 44 45
f 25 45 46
f 25 46 47
f 25 47 48
f 25 48 26
f 26 49 27
f 26 48 49
f 27 49 50
f 27 50 51
f 27 51 28
f 28 51 29
f 29 51 30
f 30 51 52
f 30 52 31
f 31 52 32
f 32 53 50
f 32 50 49
f 32 49 47
f 32 47 45
f 32 45 33
f 32 52 53
f 33 45 54
f 33 54 34
f 34 54 55
f 35 56 37
f 35 57 56
f 36 37 39
f 37 56 58
f 37 58 59
f 37 59 39
f 38 39 41
f 39 59 60
f 39 60 42
f 39 42 41
f 42 60 61
f 42 61 62
f 42 62 63
f 42 63 43
f 43 63 45
f 43 45 44
f 45 47 46
f 45 63 62
f 45 62 60
f 45 60 54
f 47 49 48
f 50 53 64
f 50 64 51
f 51 64 52
f 52 64 53
f 54 60 55
f 55 60 59
f 55 59 57
f 56 57 58
f 57 59 58
f 60 62 61

