# https://github.com/mikedh/trimesh
v -0.01302614 0.03328104 0.10539969
v -0.01302614 0.03123111 0.10539969
v -0.01302614 0.03339571 0.10538769
v -0.01459467 0.03325764 0.11711120
v -0.01459467 0.03044132 0.11711120
v -0.02588533 0.02215150 0.11711120
v -0.01302614 0.03096317 0.02507505
v -0.01459467 0.03336879 0.11526328
v -0.01459467 0.03329859 0.11653522
v -0.01459467 0.03329157 0.11665522
v -0.01302614 0.03389766 0.08318862
v -0.01685809 0.03241637 0.11711120
v -0.01805778 0.03208290 0.11629524
v -0.02588533 0.02643740 0.11711120
v -0.02588533 0.02307818 0.10539969
v -0.02507462 0.02473849 -0.00500769
v -0.02507462 0.02465190 -0.00299178
v -0.02507462 0.02453022 0.00339196
v -0.02507462 0.02449395 0.00544387
v -0.01302614 0.03109889 0.00702780
v -0.01302614 0.03107783 0.00903172
v -0.01302614 0.03410476 0.04713013
v -0.01702804 0.03235553 0.11708720
v -0.01702048 0.03235436 0.11711120
v -0.01696383 0.03252987 0.04912204
v -0.01805778 0.03208290 0.11621124
v -0.02076179 0.03045536 0.11526328
v -0.02176384 0.02984811 0.11526328
v -0.02072277 0.03034421 0.11711120
v -0.02063843 0.03039569 0.11711120
v -0.01900695 0.03130833 0.11711120
v -0.01882064 0.03140896 0.11711120
v -0.01704692 0.03234149 0.11711120
v -0.02476117 0.02750917 0.11711120
v -0.02420853 0.02819482 0.11666721
v -0.02588533 0.02649708 0.11693120
v -0.02588533 0.02600916 0.10539969
v -0.02507462 0.02552710 -0.00546367
v -0.02506204 0.02475721 -0.00546367
v -0.01302614 0.03127791 0.00101606
v -0.01302614 0.03120537 0.00301997
v -0.01302614 0.03393744 -0.00546367
v -0.01690341 0.03250178 -0.00546367
v -0.01713504 0.03237893 -0.00546367
v -0.02026832 0.03064842 -0.00546367
v -0.02065227 0.03043547 -0.00546367
v -0.02423875 0.02819833 -0.00546367
v -0.02164173 0.02976152 0.11711120
v -0.02350106 0.02853297 0.11711120
v -0.02588533 0.02661759 0.11526328
v -0.02588533 0.02658015 0.11623523
v -0.02588533 0.02650761 0.11684721
v -0.02443135 0.02805676 -0.00546367
v -0.02447037 0.02802750 -0.00546367
v -0.02507462 0.02756182 -0.00546367
v -0.02507462 0.02751619 0.06313746
v -0.01302992 0.03167222 -0.00546367
v -0.01302614 0.03140077 -0.00098786
v -0.01302614 0.03252870 -0.00546367
v -0.01302614 0.03165818 -0.00507969
f 1 2 7
f 1 7 21
f 1 21 20
f 1 20 41
f 1 41 40
f 1 40 58
f 1 58 60
f 1 60 59
f 1 59 42
f 1 42 22
f 1 22 11
f 1 11 3
f 1 3 4
f 1 4 5
f 1 5 2
f 2 5 6
f 2 6 7
f 3 8 9
f 3 9 10
f 3 10 4
f 3 11 8
f 4 12 24
f 4 24 33
f 4 33 32
f 4 32 31
f 4 31 30
f 4 30 29
f 4 29 48
f 4 48 49
f 4 49 34
f 4 34 14
f 4 14 6
f 4 6 5
f 4 10 13
f 4 13 12
f 6 14 36
f 6 36 52
f 6 52 51
f 6 51 50
f 6 50 37
f 6 37 15
f 6 15 16
f 6 16 17
f 6 17 18
f 6 18 19
f 6 19 20
f 6 20 21
f 6 21 7
f 8 13 9
f 8 11 22
f 8 22 13
f 9 13 10
f 12 13 23
f 12 23 24
f 13 22 25
f 13 25 26
f 13 26 27
f 13 27 28
f 13 28 29
f 13 29 30
f 13 30 31
f 13 31 32
f 13 32 33
f 13 33 24
f 13 24 23
f 14 34 35
f 14 35 36
f 15 37 55
f 15 55 38
f 15 38 16
f 16 38 39
f 16 39 17
f 17 40 41
f 17 41 20
f 17 20 18
f 17 39 40
f 18 20 19
f 22 42 43
f 22 43 25
f 25 43 26
f 26 43 44
f 26 44 45
f 26 45 46
f 26 46 27
f 27 46 28
f 28 35 29
f 28 46 47
f 28 47 35
f 29 35 48
f 34 49 35
f 35 50 51
f 35 51 52
f 35 52 36
f 35 49 48
f 35 47 53
f 35 53 54
f 35 54 55
f 35 55 56
f 35 56 50
f 37 50 55
f 38 55 54
f 38 54 53
f 38 53 47
f 38 47 46
f 38 46 45
f 38 45 44
f 38 44 43
f 38 43 42
f 38 42 59
f 38 59 57
f 38 57 39
f 39 57 40
f 40 57 58
f 50 56 55
f 57 59 60
f 57 60 58

