# https://github.com/mikedh/trimesh
v 0.02448799 0.03073549 -0.10320697
v 0.02344308 0.03159289 -0.10320697
v 0.02448799 0.02827579 -0.10320697
v 0.02448799 0.03442919 -0.11983427
v 0.02447055 0.03446590 -0.11985143
v 0.02246122 0.03235437 -0.10320697
v 0.02447860 0.02788025 -0.10320697
v 0.02448799 0.02787196 -0.10324985
v 0.02448799 0.03442919 -0.12060098
v 0.02447055 0.03446590 -0.12063700
v 0.02208832 0.03609899 -0.12025622
v 0.01918029 0.03459143 -0.10320697
v 0.02001997 0.03403246 -0.10320697
v 0.02088916 0.03343678 -0.10320697
v 0.02244110 0.03236976 -0.10320697
v 0.01078481 0.03618070 -0.10320697
v 0.02448799 0.02790275 -0.10387419
v 0.02448799 0.03442800 -0.12064043
v 0.02287569 0.03511369 -0.12064900
v 0.02208832 0.03609899 -0.12031111
v 0.01078481 0.03996914 -0.11601106
v 0.01078481 0.03996084 -0.11527523
v 0.01303290 0.03894476 -0.11126677
v 0.01459825 0.03835855 -0.11126677
v 0.01814074 0.03614280 -0.10801301
v 0.01731448 0.03569160 -0.10320697
v 0.02448799 0.02799868 -0.10525494
v 0.01078481 0.03837157 -0.10320697
v 0.01078481 0.03744075 -0.11928369
v 0.02448799 0.03303650 -0.12069532
v 0.02310640 0.03309098 -0.12072962
v 0.01303290 0.03877541 -0.12066787
v 0.01466264 0.03843197 -0.12060098
v 0.01303290 0.03912239 -0.11928369
v 0.01102893 0.03966004 -0.11928369
v 0.01078481 0.03971689 -0.11903670
v 0.01078481 0.03919463 -0.10902156
v 0.01102893 0.03918516 -0.10926168
v 0.01102893 0.03891515 -0.10725831
v 0.01102893 0.03862145 -0.10525494
v 0.01104369 0.03831355 -0.10320697
v 0.01210469 0.03811814 -0.10407487
v 0.01319252 0.03855395 -0.10912790
v 0.01432328 0.03823420 -0.10970592
v 0.01630713 0.03622807 -0.10320697
v 0.01633127 0.03621623 -0.10320697
v 0.02448799 0.02943518 -0.11794068
v 0.01078481 0.03864277 -0.10501138
v 0.01078481 0.03748338 -0.11951010
v 0.02448799 0.02956545 -0.11881544
v 0.02448799 0.03167697 -0.12066444
v 0.02104878 0.03360494 -0.12070389
v 0.01303290 0.03755444 -0.12066787
v 0.01102893 0.03900871 -0.12056153
v 0.01078481 0.03895660 -0.12054266
v 0.01078481 0.03893054 -0.10701646
v 0.01504090 0.03677757 -0.10320697
v 0.01078481 0.03787063 -0.12054266
v 0.02448799 0.02982125 -0.11918592
v 0.02448799 0.03142947 -0.12055295
v 0.01954111 0.03376245 -0.12061985
v 0.01102893 0.03784932 -0.12056153
v 0.02448799 0.03039443 -0.11992861
f 1 2 6
f 1 6 15
f 1 15 14
f 1 14 13
f 1 13 12
f 1 12 26
f 1 26 46
f 1 46 45
f 1 45 57
f 1 57 41
f 1 41 28
f 1 28 16
f 1 16 7
f 1 7 3
f 1 3 8
f 1 8 17
f 1 17 27
f 1 27 47
f 1 47 50
f 1 50 59
f 1 59 63
f 1 63 60
f 1 60 51
f 1 51 30
f 1 30 18
f 1 18 9
f 1 9 4
f 1 4 5
f 1 5 2
f 2 5 6
f 3 7 8
f 4 9 10
f 4 10 5
f 5 10 20
f 5 20 11
f 5 11 12
f 5 12 13
f 5 13 14
f 5 14 15
f 5 15 6
f 7 16 8
f 8 16 17
f 9 18 10
f 10 18 19
f 10 19 20
f 11 20 21
f 11 21 22
f 11 22 23
f 11 23 24
f 11 24 25
f 11 25 12
f 12 25 26
f 16 27 17
f 16 28 48
f 16 48 56
f 16 56 37
f 16 37 22
f 16 22 21
f 16 21 36
f 16 36 55
f 16 55 58
f 16 58 49
f 16 49 29
f 16 29 27
f 18 30 31
f 18 31 19
f 19 32 33
f 19 33 20
f 19 31 32
f 20 34 21
f 20 33 34
f 21 34 35
f 21 35 36
f 22 37 38
f 22 38 23
f 23 38 39
f 23 39 40
f 23 40 41
f 23 41 42
f 23 42 43
f 23 43 44
f 23 44 24
f 24 44 25
f 25 44 45
f 25 45 46
f 25 46 26
f 27 29 47
f 28 41 48
f 29 49 50
f 29 50 47
f 30 51 31
f 31 52 53
f 31 53 32
f 31 51 52
f 32 54 35
f 32 35 33
f 32 53 62
f 32 62 54
f 33 35 34
f 35 55 36
f 35 54 55
f 37 56 38
f 38 56 39
f 39 56 48
f 39 48 40
f 40 48 41
f 41 57 42
f 42 44 43
f 42 57 44
f 44 57 45
f 49 58 50
f 50 58 59
f 51 60 61
f 51 61 52
f 52 61 53
f 53 61 62
f 54 62 58
f 54 58 55
f 58 62 61
f 58 61 63
f 58 63 59
f 60 63 61

