# https://github.com/mikedh/trimesh
v 0.03216200 0.01461334 0.05234544
v 0.02448933 0.02535022 0.05234544
v 0.03445551 0.01469673 0.05234544
v 0.03431503 0.01461334 0.07532807
v 0.03188104 0.01461334 0.06012845
v 0.02448933 0.02391111 0.08060941
v 0.02448933 0.02835219 0.05234544
v 0.03180202 0.01971615 0.05234544
v 0.03246637 0.01871415 0.05273711
v 0.03423991 0.01461334 0.08331956
v 0.03420089 0.01461334 0.08520214
v 0.02994556 0.01498052 0.11687118
v 0.02530976 0.02132742 0.11687118
v 0.02448933 0.02257018 0.11687118
v 0.02566194 0.02730984 0.05234544
v 0.02448933 0.02830243 0.05730458
v 0.02540830 0.02748469 0.05914926
v 0.02921097 0.02343768 0.05234544
v 0.03016506 0.02217744 0.05273711
v 0.03017384 0.02218686 0.05513772
v 0.03015628 0.02216534 0.05914926
v 0.03162350 0.01933284 0.08520214
v 0.03223809 0.01831335 0.08720475
v 0.03231223 0.01644788 0.11526656
v 0.03312486 0.01482585 0.11526656
v 0.03292097 0.01489579 0.11687118
v 0.02486394 0.02565150 0.11687118
v 0.02448933 0.02614779 0.11526656
v 0.02651749 0.02650555 0.05234544
v 0.02649896 0.02648269 0.05914926
v 0.02448933 0.02828091 0.05914926
v 0.02469614 0.02697898 0.09321890
v 0.02590387 0.02589763 0.09321890
v 0.02840712 0.02446120 0.05234544
v 0.02841005 0.02445851 0.05714665
v 0.02940511 0.02319021 0.05513772
v 0.02941291 0.02316599 0.05714665
v 0.02939925 0.02316734 0.05914926
v 0.03014164 0.02214382 0.06115187
v 0.03160009 0.01931670 0.08720475
v 0.03009872 0.02208733 0.06663536
v 0.03171910 0.01744988 0.11526656
v 0.03221858 0.01628245 0.11687118
v 0.02632336 0.02430787 0.11687118
v 0.02641603 0.02439664 0.11526656
v 0.02532440 0.02539864 0.11526656
v 0.02732134 0.02567167 0.05234544
v 0.02750084 0.02544841 0.05914926
v 0.02796227 0.02396356 0.08920736
v 0.02792032 0.02392321 0.09121629
v 0.02839639 0.02444506 0.05914926
v 0.03059820 0.02075581 0.08720475
v 0.03071722 0.01898583 0.11526656
v 0.02823543 0.02424869 0.07117755
v 0.02879149 0.02296156 0.08920736
v 0.02981484 0.02175512 0.08720475
v 0.03062064 0.01885268 0.11687118
v 0.03162252 0.01728579 0.11687118
v 0.02741207 0.02310009 0.11687118
v 0.02741792 0.02331663 0.11526656
v 0.02875442 0.02292121 0.09121629
v 0.02828420 0.02231463 0.11526656
v 0.02979240 0.02170536 0.08920736
v 0.02818470 0.02219627 0.11687118
f 1 2 7
f 1 7 15
f 1 15 29
f 1 29 47
f 1 47 34
f 1 34 18
f 1 18 8
f 1 8 3
f 1 3 4
f 1 4 10
f 1 10 11
f 1 11 5
f 1 5 6
f 1 6 2
f 2 6 14
f 2 14 28
f 2 28 31
f 2 31 16
f 2 16 7
f 3 8 9
f 3 9 4
f 4 9 10
f 5 11 12
f 5 12 13
f 5 13 6
f 6 13 14
f 7 16 17
f 7 17 15
f 8 18 19
f 8 19 20
f 8 20 9
f 9 20 21
f 9 21 22
f 9 22 23
f 9 23 10
f 10 23 11
f 11 23 24
f 11 24 25
f 11 25 12
f 12 25 26
f 12 26 43
f 12 43 58
f 12 58 57
f 12 57 64
f 12 64 59
f 12 59 44
f 12 44 27
f 12 27 14
f 12 14 13
f 14 27 28
f 15 17 30
f 15 30 29
f 16 31 17
f 17 31 32
f 17 32 33
f 17 33 30
f 18 34 35
f 18 35 36
f 18 36 20
f 18 20 19
f 20 36 37
f 20 37 38
f 20 38 21
f 21 38 39
f 21 39 22
f 22 40 23
f 22 39 41
f 22 41 40
f 23 40 42
f 23 42 24
f 24 42 43
f 24 43 26
f 24 26 25
f 27 44 45
f 27 45 46
f 27 46 28
f 28 32 31
f 28 46 33
f 28 33 32
f 29 30 48
f 29 48 47
f 30 33 49
f 30 49 48
f 33 50 49
f 33 46 45
f 33 45 50
f 34 47 35
f 35 37 36
f 35 47 48
f 35 48 51
f 35 51 38
f 35 38 37
f 38 51 41
f 38 41 39
f 40 41 52
f 40 52 53
f 40 53 42
f 41 51 54
f 41 54 55
f 41 55 56
f 41 56 52
f 42 53 57
f 42 57 58
f 42 58 43
f 44 59 60
f 44 60 45
f 45 60 50
f 48 49 54
f 48 54 51
f 49 50 61
f 49 61 55
f 49 55 54
f 50 60 62
f 50 62 61
f 52 56 63
f 52 63 62
f 52 62 53
f 53 62 64
f 53 64 57
f 55 61 63
f 55 63 56
f 59 64 62
f 59 62 60
f 61 62 63

