# https://github.com/mikedh/trimesh
v 0.03222248 -0.02047338 0.10961597
v 0.03234415 -0.02049870 0.11747822
v 0.03244642 -0.02056991 0.11527413
v 0.03160885 -0.02154306 0.10961597
v 0.02966921 -0.02047338 0.10961597
v 0.02901503 -0.02047338 0.11767787
v 0.03190861 -0.02116013 0.11767787
v 0.03175873 -0.02156837 0.11727935
v 0.03180281 -0.02166806 0.11527413
v 0.03069546 -0.02300990 0.10961597
v 0.01443251 -0.03369873 0.10961597
v 0.01443427 -0.03355948 0.11767629
v 0.01587313 -0.03596308 0.11767787
v 0.03031811 -0.02361911 0.11767787
v 0.03066019 -0.02321719 0.11731802
v 0.03014002 -0.02416186 0.11667408
v 0.03014178 -0.02416344 0.11527413
v 0.03006067 -0.02392450 0.10961597
v 0.01443251 -0.03612922 0.10961597
v 0.01443251 -0.03656121 0.11745217
v 0.01501087 -0.03638240 0.11743955
v 0.01611470 -0.03612289 0.11626688
v 0.01688703 -0.03555325 0.11720123
v 0.01871028 -0.03448357 0.11747822
v 0.01937152 -0.03398196 0.11767787
v 0.02973270 -0.02444035 0.11767787
v 0.02944528 -0.02492297 0.11731802
v 0.02830795 -0.02634551 0.11747822
v 0.02842432 -0.02647052 0.11527413
v 0.02942588 -0.02516507 0.11527413
v 0.02827268 -0.02631703 0.10961597
v 0.01443251 -0.03658969 0.11465308
v 0.01704220 -0.03486809 0.10961597
v 0.01513078 -0.03641247 0.11534121
v 0.01443251 -0.03662767 0.11657149
v 0.01443251 -0.03663874 0.11531912
v 0.01833470 -0.03424147 0.10961597
v 0.01924809 -0.03372562 0.10961597
v 0.01874555 -0.03450889 0.11527413
v 0.01976121 -0.03384430 0.11727935
v 0.02146985 -0.03256417 0.11767787
v 0.02768903 -0.02696421 0.11767787
v 0.02743687 -0.02738196 0.11727935
v 0.02748448 -0.02747373 0.11527413
v 0.02641063 -0.02842315 0.10961597
v 0.02749154 -0.02723005 0.10961597
v 0.02118596 -0.03258000 0.10961597
v 0.02225100 -0.03222080 0.11527413
v 0.02169556 -0.03224770 0.10961597
v 0.02221220 -0.03219548 0.11690609
v 0.02282407 -0.03156412 0.11756739
v 0.02496472 -0.02968745 0.11767787
v 0.02705247 -0.02765887 0.11767787
v 0.02640358 -0.02840099 0.11747822
v 0.02648116 -0.02848486 0.11527413
v 0.02543729 -0.02948332 0.11527413
v 0.02539497 -0.02937414 0.10961597
v 0.02237266 -0.03178565 0.10961597
v 0.02313794 -0.03122234 0.10961597
v 0.02434228 -0.03030931 0.10961597
v 0.02325255 -0.03141222 0.11527413
v 0.02443573 -0.03040900 0.11527413
v 0.02433169 -0.03031565 0.11747822
v 0.02536323 -0.02942952 0.11727935
f 1 2 3
f 1 3 4
f 1 4 10
f 1 10 18
f 1 18 31
f 1 31 46
f 1 46 45
f 1 45 57
f 1 57 60
f 1 60 59
f 1 59 58
f 1 58 49
f 1 49 47
f 1 47 38
f 1 38 37
f 1 37 33
f 1 33 19
f 1 19 11
f 1 11 5
f 1 5 6
f 1 6 2
f 2 7 8
f 2 8 3
f 2 6 7
f 3 8 9
f 3 9 4
f 4 9 10
f 5 11 6
f 6 11 12
f 6 12 13
f 6 13 25
f 6 25 41
f 6 41 52
f 6 52 53
f 6 53 42
f 6 42 26
f 6 26 14
f 6 14 7
f 7 14 8
f 8 14 15
f 8 15 16
f 8 16 9
f 9 16 17
f 9 17 10
f 10 17 18
f 11 19 32
f 11 32 36
f 11 36 35
f 11 35 20
f 11 20 12
f 12 20 13
f 13 20 21
f 13 21 22
f 13 22 23
f 13 23 24
f 13 24 25
f 14 26 16
f 14 16 15
f 16 26 27
f 16 27 28
f 16 28 29
f 16 29 30
f 16 30 17
f 17 30 18
f 18 30 31
f 19 33 22
f 19 22 34
f 19 34 32
f 20 35 21
f 21 35 22
f 22 35 36
f 22 36 34
f 22 33 37
f 22 37 38
f 22 38 39
f 22 39 40
f 22 40 24
f 22 24 23
f 24 40 25
f 25 40 41
f 26 42 28
f 26 28 27
f 28 42 43
f 28 43 29
f 29 43 44
f 29 44 45
f 29 45 46
f 29 46 31
f 29 31 30
f 32 34 36
f 38 47 39
f 39 48 40
f 39 47 49
f 39 49 48
f 40 48 50
f 40 50 41
f 41 50 51
f 41 51 52
f 42 53 43
f 43 53 54
f 43 54 55
f 43 55 44
f 44 55 45
f 45 55 56
f 45 56 57
f 48 49 58
f 48 58 59
f 48 59 60
f 48 60 61
f 48 61 50
f 50 61 62
f 50 62 63
f 50 63 51
f 51 63 52
f 52 63 64
f 52 64 54
f 52 54 53
f 54 64 55
f 55 64 56
f 56 64 62
f 56 62 57
f 57 62 60
f 60 62 61
f 62 64 63

