# https://github.com/mikedh/trimesh
v 0.04775454 -0.01041792 0.01527291
v 0.04775454 -0.01734400 0.01405493
v 0.05751340 -0.01619571 0.01290386
v 0.05885346 -0.01013198 0.01306448
v 0.05866086 -0.00507131 0.01302878
v 0.04775454 -0.00514847 0.01492492
v 0.04775454 -0.02359382 0.01118619
v 0.06040376 -0.01393089 0.01139588
v 0.05799218 -0.02267246 0.00902237
v 0.06048378 -0.01841514 0.01023589
v 0.05878971 0.00291683 0.00933021
v 0.05782400 -0.00069145 0.01277894
v 0.04775454 0.00018906 0.01365785
v 0.04775454 -0.02760604 0.00747870
v 0.06161090 -0.01139828 -0.00760113
v 0.06103852 -0.00409549 -0.00596822
v 0.05891179 0.00671574 0.00546210
v 0.06118907 -0.02407038 0.00126384
v 0.06028846 -0.02425647 0.00568072
v 0.05448334 0.00784588 0.00784008
v 0.04775454 0.00620286 0.00953098
v 0.04775454 -0.03191783 -0.00002553
v 0.05849267 -0.02872257 -0.00023968
v 0.06074962 -0.02813707 -0.00600838
v 0.05921696 -0.01266459 -0.02788305
v 0.06098969 -0.00443589 -0.01139785
v 0.05841401 0.00989738 -0.01777332
v 0.05787283 0.01292924 -0.00760113
v 0.05673893 0.01018332 0.00357043
v 0.04775454 0.01047833 0.00432442
v 0.04775454 -0.03247609 -0.00507147
v 0.05993989 -0.02869987 -0.01212954
v 0.05321652 -0.01203370 -0.02986395
v 0.05827837 -0.00570673 -0.02870396
v 0.05917220 0.00048862 -0.02553631
v 0.05862288 -0.02427463 -0.02245342
v 0.05849267 -0.01848322 -0.02692383
v 0.05372786 0.00967044 -0.02093651
v 0.05698036 0.01242544 -0.01369552
v 0.05852387 0.00475047 -0.02376509
v 0.05321652 0.01389145 -0.00949726
v 0.05549788 0.01299278 -0.00214919
v 0.04796207 0.01287931 -0.00126136
v 0.04858462 -0.00253871 -0.02946688
v 0.04854529 -0.00851166 -0.03030563
v 0.04775454 -0.03214476 -0.01013525
v 0.05877886 -0.02817792 -0.01701040
v 0.05321652 -0.01646803 -0.02880211
v 0.04858462 -0.01393089 -0.02981487
v 0.05321652 -0.00507131 -0.02990410
v 0.05337521 0.00069740 -0.02817305
v 0.05203922 -0.02710678 -0.02071344
v 0.05448334 -0.02265884 -0.02521508
v 0.05384993 -0.02010808 -0.02696398
v 0.04858869 0.00994276 -0.02044575
v 0.05077240 0.01236644 -0.01598872
v 0.05321652 0.00596231 -0.02498754
v 0.04858462 0.00570814 -0.02510354
v 0.04858462 0.01372352 -0.00955526
v 0.04899966 0.00159606 -0.02787412
v 0.04858462 -0.01788865 -0.02845858
v 0.04923024 -0.02401592 -0.02449232
v 0.04901187 -0.03016134 -0.01557827
v 0.05321652 -0.02940338 -0.01646610
f 1 2 3
f 1 3 4
f 1 4 5
f 1 5 6
f 1 6 13
f 1 13 21
f 1 21 30
f 1 30 46
f 1 46 31
f 1 31 22
f 1 22 14
f 1 14 7
f 1 7 2
f 2 7 3
f 3 8 4
f 3 7 9
f 3 9 10
f 3 10 8
f 4 8 5
f 5 11 12
f 5 12 6
f 5 8 11
f 6 12 13
f 7 14 9
f 8 15 16
f 8 16 17
f 8 17 11
f 8 10 18
f 8 18 15
f 9 14 19
f 9 19 10
f 10 19 18
f 11 17 20
f 11 20 12
f 12 20 13
f 13 20 21
f 14 22 23
f 14 23 19
f 15 18 24
f 15 24 25
f 15 25 26
f 15 26 16
f 16 26 27
f 16 27 28
f 16 28 17
f 17 28 29
f 17 29 20
f 18 19 24
f 19 23 24
f 20 29 30
f 20 30 21
f 22 31 23
f 23 31 32
f 23 32 24
f 24 32 25
f 25 33 34
f 25 34 35
f 25 35 26
f 25 32 36
f 25 36 37
f 25 37 33
f 26 35 27
f 27 38 39
f 27 39 28
f 27 35 40
f 27 40 38
f 28 39 41
f 28 41 42
f 28 42 29
f 29 42 30
f 30 42 43
f 30 43 44
f 30 44 45
f 30 45 46
f 31 46 32
f 32 47 36
f 32 46 47
f 33 37 48
f 33 48 49
f 33 49 45
f 33 45 50
f 33 50 34
f 34 50 51
f 34 51 35
f 35 51 40
f 36 47 52
f 36 52 53
f 36 53 37
f 37 53 54
f 37 54 48
f 38 55 56
f 38 56 39
f 38 40 57
f 38 57 58
f 38 58 55
f 39 56 41
f 40 51 57
f 41 59 43
f 41 43 42
f 41 56 59
f 43 59 55
f 43 55 58
f 43 58 44
f 44 58 60
f 44 60 51
f 44 51 50
f 44 50 45
f 45 49 46
f 46 49 61
f 46 61 62
f 46 62 63
f 46 63 64
f 46 64 47
f 47 64 52
f 48 54 61
f 48 61 49
f 51 60 57
f 52 62 53
f 52 64 63
f 52 63 62
f 53 62 54
f 54 62 61
f 55 59 56
f 57 60 58

