# https://github.com/mikedh/trimesh
v -0.00195683 -0.05340953 -0.00883584
v -0.00390291 -0.05340953 -0.00847008
v -0.00633506 -0.04688061 -0.00895441
v -0.00195683 -0.05125680 -0.00911116
v -0.00195683 -0.05340953 -0.00432616
v -0.00817088 -0.04688061 -0.00830127
v -0.00450566 -0.05340953 -0.00712160
v -0.01134269 -0.05141514 0.00000064
v -0.00783735 -0.04851283 -0.00796364
v -0.00633506 -0.04434719 -0.00884790
v -0.00839508 -0.04434719 -0.00847611
v -0.00634516 -0.04433372 -0.00884589
v -0.00195683 -0.04941233 -0.00880368
v -0.00195683 -0.05141514 0.01141954
v -0.00511669 -0.05340953 -0.00432616
v -0.01134269 -0.04626409 -0.00323290
v -0.00484563 -0.05340953 -0.00633381
v -0.01134269 -0.05141514 0.01141954
v -0.00195683 -0.04879077 -0.00864492
v -0.00195683 -0.03620289 -0.00432616
v -0.00839691 -0.04433372 -0.00846606
v -0.00696078 -0.03620289 -0.00432616
v -0.01134269 -0.04434551 -0.00356851
v -0.01133717 -0.03620289 -0.00056809
v -0.00195683 -0.03620289 0.01141954
v -0.01134269 -0.03620289 0.01141954
v -0.01134269 -0.03674528 -0.00058819
v -0.01134269 -0.03620289 0.01086688
f 1 2 3
f 1 3 4
f 1 4 13
f 1 13 19
f 1 19 20
f 1 20 25
f 1 25 14
f 1 14 5
f 1 5 15
f 1 15 17
f 1 17 7
f 1 7 2
f 2 6 3
f 2 7 8
f 2 8 9
f 2 9 6
f 3 10 4
f 3 6 11
f 3 11 12
f 3 12 10
f 4 10 13
f 5 14 18
f 5 18 15
f 6 9 16
f 6 16 11
f 7 17 8
f 8 18 26
f 8 26 28
f 8 28 27
f 8 27 23
f 8 23 16
f 8 16 9
f 8 17 15
f 8 15 18
f 10 19 13
f 10 12 20
f 10 20 19
f 11 21 22
f 11 22 12
f 11 16 23
f 11 23 24
f 11 24 21
f 12 22 20
f 14 25 26
f 14 26 18
f 20 22 24
f 20 24 28
f 20 28 26
f 20 26 25
f 21 24 22
f 23 27 24
f 24 27 28

