# https://github.com/mikedh/trimesh
v 0.02136735 0.13723497 -0.01858065
v 0.03244109 0.13036935 -0.02908564
v 0.02532288 0.13036935 -0.01421721
v 0.02136735 0.13723497 -0.01394264
v 0.02136735 0.14063730 -0.02148519
v 0.02137082 0.14736842 -0.03054618
v 0.03420893 0.13036935 -0.03072813
v 0.03683727 0.13036935 -0.01929851
v 0.03198655 0.13043871 -0.01394264
v 0.02532288 0.13391040 -0.01394098
v 0.02532288 0.13723497 -0.01394098
v 0.02145583 0.14601716 -0.01394264
v 0.02136735 0.15093257 -0.01946888
v 0.02136735 0.14486553 -0.02486776
v 0.02136735 0.15183621 -0.02486776
v 0.02137082 0.15121838 -0.02912534
v 0.02145583 0.14997639 -0.03055942
v 0.02408417 0.14577338 -0.03067189
v 0.03674012 0.13304037 -0.03083895
v 0.03747397 0.13075603 -0.03028319
v 0.03850622 0.13049965 -0.02660454
v 0.03846112 0.13051226 -0.02407216
v 0.03823905 0.13084640 -0.02063666
v 0.03839172 0.13347538 -0.01972857
v 0.03212360 0.13347538 -0.01394264
v 0.03182694 0.13557478 -0.01394098
v 0.02483364 0.14476886 -0.01394264
v 0.02348217 0.15001211 -0.01972361
v 0.02163973 0.15167230 -0.02154143
v 0.02151655 0.15174165 -0.02696182
v 0.02316295 0.14977674 -0.02980185
v 0.02610357 0.14642905 -0.03059911
v 0.03420546 0.13810919 -0.03073806
v 0.03838131 0.13350900 -0.02975388
v 0.03686329 0.13541717 -0.03068843
v 0.03909088 0.13304037 -0.02660454
v 0.03886708 0.13347538 -0.02197645
v 0.03837784 0.13592784 -0.02077560
v 0.03596983 0.13991439 -0.01972526
v 0.03112778 0.13775614 -0.01394264
v 0.03008512 0.13998163 -0.01394264
v 0.02826003 0.14226597 -0.01394264
v 0.02648351 0.14370971 -0.01394264
v 0.02793040 0.14701327 -0.02054568
v 0.02441554 0.14976624 -0.02154143
v 0.03341782 0.14228068 -0.01981293
v 0.02440339 0.14975783 -0.02660454
v 0.02789050 0.14697964 -0.02790629
v 0.03061600 0.14460704 -0.02836943
v 0.03309167 0.14201799 -0.02949254
v 0.03498616 0.13981141 -0.03018064
v 0.03642610 0.13767418 -0.03049822
v 0.03788167 0.13660452 -0.02928248
v 0.03873696 0.13557478 -0.02660619
v 0.03870920 0.13557478 -0.02407050
v 0.03895903 0.13347538 -0.02407050
v 0.03784350 0.13784020 -0.02180939
v 0.03624915 0.14016447 -0.02154143
v 0.03486298 0.14142537 -0.02154143
v 0.03480399 0.14137704 -0.02660454
v 0.03623874 0.14011613 -0.02660454
v 0.03785911 0.13790325 -0.02672032
v 0.03782962 0.13798731 -0.02447079
v 0.03626129 0.14012874 -0.02447079
f 1 2 3
f 1 3 4
f 1 4 13
f 1 13 15
f 1 15 14
f 1 14 5
f 1 5 6
f 1 6 2
f 2 7 8
f 2 8 3
f 2 6 7
f 3 8 9
f 3 9 10
f 3 10 4
f 4 10 11
f 4 11 12
f 4 12 13
f 5 14 6
f 6 15 16
f 6 16 17
f 6 17 18
f 6 18 7
f 6 14 15
f 7 19 20
f 7 20 21
f 7 21 8
f 7 18 19
f 8 21 22
f 8 22 23
f 8 23 9
f 9 23 24
f 9 24 25
f 9 25 26
f 9 26 10
f 10 26 11
f 11 26 12
f 12 27 13
f 12 26 27
f 13 27 28
f 13 28 29
f 13 29 15
f 15 30 16
f 15 29 30
f 16 30 31
f 16 31 17
f 17 31 32
f 17 32 18
f 18 32 33
f 18 33 19
f 19 34 20
f 19 33 35
f 19 35 34
f 20 34 21
f 21 34 36
f 21 36 22
f 22 36 37
f 22 37 23
f 23 37 24
f 24 37 38
f 24 38 39
f 24 39 40
f 24 40 26
f 24 26 25
f 26 40 41
f 26 41 42
f 26 42 43
f 26 43 27
f 27 43 28
f 28 44 45
f 28 45 29
f 28 43 46
f 28 46 44
f 29 45 30
f 30 45 47
f 30 47 48
f 30 48 31
f 31 48 49
f 31 49 50
f 31 50 51
f 31 51 32
f 32 51 52
f 32 52 33
f 33 52 35
f 34 35 52
f 34 52 53
f 34 53 54
f 34 54 36
f 36 54 55
f 36 55 56
f 36 56 37
f 37 56 55
f 37 55 38
f 38 55 57
f 38 57 39
f 39 58 46
f 39 46 42
f 39 42 41
f 39 41 40
f 39 57 58
f 42 46 43
f 44 59 48
f 44 48 47
f 44 47 45
f 44 46 59
f 46 58 59
f 48 59 60
f 48 60 49
f 49 60 61
f 49 61 50
f 50 61 51
f 51 61 53
f 51 53 52
f 53 61 62
f 53 62 54
f 54 62 63
f 54 63 55
f 55 63 57
f 57 63 58
f 58 63 64
f 58 64 59
f 59 64 61
f 59 61 60
f 61 64 62
f 62 64 63

