# https://github.com/mikedh/trimesh
v -0.05436538 -0.01947102 0.00919991
v -0.04568791 -0.01945592 0.00919991
v -0.04415843 -0.05839076 0.01140131
v -0.04930288 -0.05839076 0.01197571
v -0.05436343 -0.02749345 0.01180027
v -0.05436538 -0.01930498 0.01505568
v -0.05436538 -0.01085992 0.00919991
v -0.04565670 -0.01318439 0.00919991
v -0.03612280 -0.01855029 0.01230394
v -0.03443530 -0.05839831 0.01601915
v -0.04209246 -0.05839831 0.01584089
v -0.03443725 -0.04665521 0.01512218
v -0.04937896 -0.05839076 0.01578147
v -0.05436343 -0.02488974 0.01329004
v -0.05436538 -0.01550886 0.01578854
v -0.04776559 -0.05804360 0.02023944
v -0.05436343 -0.00150922 0.01223320
v -0.05436343 -0.00212052 0.00919991
v -0.04808553 -0.00212052 0.00919991
v -0.03643689 0.01868648 0.01230394
v -0.03443725 -0.03052733 0.01475292
v -0.03817706 -0.05839831 0.02349768
v -0.03443530 -0.04686653 0.02014182
v -0.03443530 -0.05202866 0.02207441
v -0.03524101 -0.05775681 0.02247621
v -0.04189542 -0.05839831 0.02347787
v -0.05436343 -0.01085237 0.01551973
v -0.05436343 -0.00824112 0.01485337
v -0.05436343 -0.00521478 0.01392386
v -0.04835085 -0.02356148 0.02307042
v -0.05332557 0.00243785 0.01764473
v -0.04537773 -0.05718325 0.02302656
v -0.04518264 -0.05445879 0.02357974
v -0.05272275 0.00632454 0.01520707
v -0.05297246 0.00562267 0.01140414
v -0.04434962 0.01654314 0.01140414
v -0.03927931 0.01831668 0.01230394
v -0.03643689 0.01847516 0.01742686
v -0.03612280 0.01649786 0.01970748
v -0.03443725 -0.02949340 0.02008098
v -0.03573848 -0.05447388 0.02337884
v -0.03836240 -0.02153134 0.02358964
v -0.03443725 -0.03802148 0.02169525
v -0.03543804 -0.03794601 0.02283981
v -0.04646241 -0.03926673 0.02354295
v -0.04781046 -0.00520724 0.02347787
v -0.05168879 0.00632454 0.01881193
v -0.05172585 0.00886032 0.01647329
v -0.04315178 -0.00333559 0.02365330
v -0.05174536 0.00886032 0.01267178
v -0.05067824 0.01079235 0.01267178
v -0.04739882 0.01446772 0.01235487
v -0.04523726 0.01604504 0.01393942
v -0.04191298 0.01760726 0.01307782
v -0.04027425 0.01797707 0.01730377
v -0.03927931 0.01644503 0.01936511
v -0.03612280 0.01033198 0.02100342
v -0.04315178 0.01392434 0.01983906
v -0.03846384 -0.00652796 0.02319916
v -0.04687989 0.01139610 0.01975841
v -0.05009493 0.01000746 0.01833939
v -0.04722325 0.01426395 0.01725142
v -0.04474564 0.01609032 0.01743676
v -0.04193249 0.01649031 0.01878222
f 1 2 3
f 1 3 4
f 1 4 5
f 1 5 6
f 1 6 15
f 1 15 7
f 1 7 18
f 1 18 19
f 1 19 8
f 1 8 2
f 2 8 9
f 2 9 3
f 3 10 11
f 3 11 4
f 3 9 12
f 3 12 10
f 4 11 13
f 4 13 5
f 5 14 6
f 5 13 14
f 6 14 16
f 6 16 15
f 7 15 17
f 7 17 18
f 8 19 20
f 8 20 9
f 9 21 12
f 9 20 21
f 10 22 26
f 10 26 11
f 10 12 21
f 10 21 23
f 10 23 24
f 10 24 25
f 10 25 22
f 11 26 13
f 13 26 16
f 13 16 14
f 15 27 28
f 15 28 29
f 15 29 17
f 15 16 30
f 15 30 31
f 15 31 27
f 16 26 32
f 16 32 33
f 16 33 30
f 17 29 31
f 17 31 34
f 17 34 35
f 17 35 18
f 18 35 36
f 18 36 19
f 19 36 20
f 20 36 37
f 20 37 38
f 20 38 39
f 20 39 21
f 21 39 40
f 21 40 23
f 22 33 26
f 22 25 41
f 22 41 42
f 22 42 33
f 23 40 24
f 24 41 25
f 24 40 43
f 24 43 44
f 24 44 41
f 26 33 32
f 27 31 28
f 28 31 29
f 30 33 45
f 30 45 46
f 30 46 31
f 31 47 48
f 31 48 34
f 31 46 47
f 33 42 49
f 33 49 45
f 34 48 50
f 34 50 35
f 35 50 51
f 35 51 52
f 35 52 36
f 36 52 53
f 36 53 54
f 36 54 37
f 37 55 38
f 37 54 55
f 38 55 56
f 38 56 39
f 39 57 40
f 39 56 58
f 39 58 49
f 39 49 57
f 40 57 43
f 41 44 42
f 42 44 59
f 42 59 49
f 43 57 44
f 44 57 59
f 45 49 46
f 46 49 58
f 46 58 60
f 46 60 47
f 47 61 48
f 47 60 61
f 48 61 62
f 48 62 51
f 48 51 50
f 49 59 57
f 51 62 52
f 52 62 53
f 53 62 63
f 53 63 54
f 54 63 55
f 55 64 56
f 55 63 64
f 56 64 58
f 58 64 60
f 60 64 63
f 60 63 62
f 60 62 61

