# https://github.com/mikedh/trimesh
v -0.02914273 -0.03927704 0.02383140
v -0.03147233 -0.02154407 0.02348157
v -0.03443338 -0.05447798 0.02257764
v -0.02929009 -0.05446058 0.02347028
v -0.02736747 -0.05701002 0.02357523
v -0.02736747 -0.03497432 0.02372984
v -0.02736661 -0.01900768 0.02381560
v -0.02914273 -0.01900768 0.02383027
v -0.03108592 -0.02112206 0.02354025
v -0.03611953 -0.02154407 0.02184750
v -0.03141578 -0.02112206 0.02345900
v -0.03443338 -0.05701002 0.02213978
v -0.03611953 -0.02405000 0.02185201
v -0.02736747 -0.05840221 0.02313737
v -0.02736661 -0.02112206 0.02329424
v -0.02736661 -0.01982994 0.02370050
v -0.02736661 -0.01758069 0.02359442
v -0.02914273 -0.01720219 0.02332809
v -0.03064296 -0.01751108 0.02305161
v -0.03113304 -0.01900768 0.02334050
v -0.03611953 -0.01395665 0.02006447
v -0.03611953 -0.02407611 0.02184750
v -0.03611953 -0.02606432 0.02141641
v -0.03611953 -0.02950999 0.02013782
v -0.03443338 -0.05740157 0.02198743
v -0.03443338 -0.05840221 0.02150556
v -0.02736747 -0.05840221 0.01593190
v -0.02736661 -0.02112206 0.01542971
v -0.02736661 -0.01704121 0.02344433
v -0.02914273 -0.01395665 0.02102031
v -0.03611953 -0.01395665 0.01230264
v -0.03611953 -0.02950999 0.01492189
v -0.03443338 -0.05840221 0.01601766
v -0.03611953 -0.01855522 0.01230264
v -0.03573997 -0.01854652 0.01230264
v -0.03420890 -0.01848126 0.01230264
v -0.02935179 -0.01791568 0.01230264
v -0.02736661 -0.01765030 0.01230264
v -0.02775302 -0.05840221 0.01593190
v -0.02736661 -0.01395665 0.02122231
v -0.02736661 -0.01395665 0.01230264
v -0.03420804 -0.05840221 0.01601202
v -0.03028654 -0.05840221 0.01595108
v -0.03167624 -0.05840221 0.01596801
f 1 2 3
f 1 3 4
f 1 4 5
f 1 5 6
f 1 6 7
f 1 7 8
f 1 8 9
f 1 9 2
f 2 10 3
f 2 9 11
f 2 11 10
f 3 12 5
f 3 5 4
f 3 10 13
f 3 13 22
f 3 22 12
f 5 12 14
f 5 14 15
f 5 15 16
f 5 16 7
f 5 7 6
f 7 16 15
f 7 15 28
f 7 28 38
f 7 38 41
f 7 41 40
f 7 40 29
f 7 29 17
f 7 17 8
f 8 17 18
f 8 18 19
f 8 19 20
f 8 20 9
f 9 20 11
f 10 11 20
f 10 20 21
f 10 21 31
f 10 31 34
f 10 34 32
f 10 32 24
f 10 24 23
f 10 23 22
f 10 22 13
f 12 22 23
f 12 23 24
f 12 24 25
f 12 25 14
f 14 25 26
f 14 26 33
f 14 33 42
f 14 42 44
f 14 44 43
f 14 43 39
f 14 39 27
f 14 27 28
f 14 28 15
f 17 29 18
f 18 29 30
f 18 30 21
f 18 21 19
f 19 21 20
f 21 30 40
f 21 40 41
f 21 41 31
f 24 32 33
f 24 33 26
f 24 26 25
f 27 34 35
f 27 35 36
f 27 36 37
f 27 37 38
f 27 38 28
f 27 39 34
f 29 40 30
f 31 41 38
f 31 38 37
f 31 37 36
f 31 36 35
f 31 35 34
f 32 34 33
f 33 34 42
f 34 39 43
f 34 43 44
f 34 44 42

