# https://github.com/mikedh/trimesh
v 0.05282362 -0.12823435 -0.00508165
v 0.05282362 -0.12781743 -0.01009148
v 0.06582498 -0.12461033 -0.01266524
v 0.06593611 -0.12485773 -0.00570848
v 0.05282362 -0.12625511 0.01646771
v 0.05282362 -0.08160774 -0.01037640
v 0.05365343 -0.10642151 -0.03010702
v 0.05365047 -0.11956602 -0.02434691
v 0.05539603 -0.12451870 -0.01780328
v 0.06063717 -0.12365279 -0.01860105
v 0.06723565 -0.12183390 0.00069745
v 0.06613912 -0.12212712 -0.01769881
v 0.06733641 -0.11719277 -0.02026308
v 0.06659848 -0.12067477 0.00512794
v 0.06695856 -0.11618025 0.00822406
v 0.05282362 -0.12221875 0.01840515
v 0.06081648 -0.08175435 -0.01139735
v 0.05773284 -0.08234537 -0.01392838
v 0.05620806 -0.08387562 -0.01771780
v 0.05381495 -0.08637257 -0.02141225
v 0.05381495 -0.09348316 -0.02732906
v 0.05282362 -0.08143364 -0.00514339
v 0.05381495 -0.09952167 -0.02955618
v 0.06018374 -0.10326481 -0.03006903
v 0.06144920 -0.10895512 -0.02948970
v 0.05406241 -0.11200186 -0.02883913
v 0.05701861 -0.11641390 -0.02660727
v 0.06034230 -0.11955228 -0.02379607
v 0.05701861 -0.12181557 -0.02182063
v 0.06555232 -0.12017996 -0.02226701
v 0.06796026 -0.10769061 -0.00759844
v 0.06700894 -0.11155744 0.01033245
v 0.06537303 -0.11586412 -0.02568128
v 0.06656884 -0.11198353 -0.02553408
v 0.06732901 -0.10200030 -0.01266524
v 0.05282362 -0.11598782 0.01819621
v 0.06658070 -0.10674222 0.01232214
v 0.06528856 -0.09829381 0.01286823
v 0.06411942 -0.08372900 -0.01481163
v 0.06081648 -0.08392602 -0.01802647
v 0.06322292 -0.08203841 -0.00759844
v 0.06081648 -0.08619847 -0.02151197
v 0.05657407 -0.08881913 -0.02415697
v 0.05955102 -0.09302959 -0.02723409
v 0.05828555 -0.09883444 -0.02948970
v 0.05282362 -0.08223083 -0.00032351
v 0.06375490 -0.09880695 -0.02869193
v 0.06611837 -0.10674222 -0.02743828
v 0.06077350 -0.11465916 -0.02740029
v 0.05815071 -0.11167657 -0.02883438
v 0.06750089 -0.10010353 -0.00759844
v 0.06571236 -0.09406044 -0.02478854
v 0.05282362 -0.10330605 0.01673838
v 0.05282362 -0.09483015 0.01376573
v 0.06436243 -0.08382522 -0.00380902
v 0.06419055 -0.08944222 0.00783467
v 0.06334443 -0.09252104 0.01105425
v 0.06547971 -0.08743091 -0.01646891
v 0.06402014 -0.08878248 -0.02263740
v 0.06314439 -0.08375191 0.00127678
v 0.06366895 -0.09376722 -0.02713912
v 0.05282362 -0.08509889 0.00579275
v 0.05282362 -0.08884204 0.00982435
v 0.06257093 -0.08577697 0.00516118
f 1 2 3
f 1 3 4
f 1 4 5
f 1 5 16
f 1 16 36
f 1 36 53
f 1 53 54
f 1 54 63
f 1 63 62
f 1 62 46
f 1 46 22
f 1 22 6
f 1 6 2
f 2 6 7
f 2 7 8
f 2 8 9
f 2 9 10
f 2 10 3
f 3 11 4
f 3 10 12
f 3 12 13
f 3 13 11
f 4 11 5
f 5 14 15
f 5 15 16
f 5 11 14
f 6 17 18
f 6 18 19
f 6 19 20
f 6 20 21
f 6 21 7
f 6 22 17
f 7 21 23
f 7 23 24
f 7 24 25
f 7 25 26
f 7 26 8
f 8 26 27
f 8 27 28
f 8 28 29
f 8 29 9
f 9 29 10
f 10 29 30
f 10 30 12
f 11 13 31
f 11 31 32
f 11 32 15
f 11 15 14
f 12 30 13
f 13 30 33
f 13 33 34
f 13 34 35
f 13 35 31
f 15 32 16
f 16 32 37
f 16 37 38
f 16 38 36
f 17 39 40
f 17 40 18
f 17 22 41
f 17 41 39
f 18 40 19
f 19 40 42
f 19 42 20
f 20 42 43
f 20 43 21
f 21 44 45
f 21 45 23
f 21 43 44
f 22 46 41
f 23 45 24
f 24 45 47
f 24 47 25
f 25 47 48
f 25 48 33
f 25 33 49
f 25 49 50
f 25 50 26
f 26 50 49
f 26 49 27
f 27 49 28
f 28 30 29
f 28 49 33
f 28 33 30
f 31 35 51
f 31 51 32
f 32 51 37
f 33 48 34
f 34 48 35
f 35 48 52
f 35 52 51
f 36 38 53
f 37 51 38
f 38 54 53
f 38 51 55
f 38 55 56
f 38 56 57
f 38 57 54
f 39 41 55
f 39 55 58
f 39 58 59
f 39 59 42
f 39 42 40
f 41 46 60
f 41 60 55
f 42 59 61
f 42 61 44
f 42 44 43
f 44 61 45
f 45 61 47
f 46 62 60
f 47 61 52
f 47 52 48
f 51 52 58
f 51 58 55
f 52 61 59
f 52 59 58
f 54 57 63
f 55 60 56
f 56 60 64
f 56 64 57
f 57 64 63
f 60 62 64
f 62 63 64

