# https://github.com/mikedh/trimesh
v 0.02018707 -0.13475572 0.02106697
v 0.01959304 -0.12961898 -0.00633497
v 0.01959304 -0.12977726 -0.00379727
v 0.01710430 -0.13440325 0.02328584
v 0.02018707 -0.13806494 0.01961933
v 0.02018707 -0.14005207 0.00428975
v 0.02018319 -0.13431812 -0.01379725
v 0.01959304 -0.13013372 -0.00885974
v 0.01646367 -0.12982780 -0.00885974
v 0.01646367 -0.12966687 -0.00633497
v 0.01977552 -0.13165000 -0.01184982
v -0.01947742 -0.13460276 0.01410878
v 0.00014517 -0.13526647 0.02350558
v 0.01440979 -0.13659654 0.02299287
v 0.01988811 -0.13978471 0.01761157
v 0.02018707 -0.14003344 0.00692223
v 0.00597293 -0.14320699 -0.00091490
v 0.02018319 -0.14012122 -0.01080717
v 0.02018319 -0.13905318 -0.01380156
v 0.01577646 -0.13889623 -0.01847627
v 0.01400600 -0.13476103 -0.01832116
v 0.01687134 -0.13107940 -0.01220743
v 0.01393223 -0.13041170 -0.01139743
v 0.01139690 -0.13055003 -0.01139743
v 0.01393223 -0.12997012 -0.00885974
v 0.01390505 -0.13175109 -0.01476666
v -0.01947742 -0.13460276 0.00360039
v -0.01947742 -0.14270289 0.01401830
v 0.00009081 -0.13988846 0.01973134
v 0.01139690 -0.13916624 0.01998554
v 0.01393223 -0.13948013 0.01924880
v 0.01139690 -0.13996561 0.01871885
v 0.00009081 -0.14135420 0.01646982
v 0.00379868 -0.14110149 0.01646982
v 0.00751820 -0.14084212 0.01646982
v 0.00329006 -0.14320699 -0.00128543
v -0.00130304 -0.14320699 -0.01534831
v 0.00490133 -0.14320433 -0.02040216
v 0.01164150 -0.14137814 -0.01976881
v 0.01293440 -0.13828972 -0.02025567
v 0.01001082 -0.13451497 -0.01863999
v 0.01014671 -0.13226316 -0.01589118
v 0.00886545 -0.13103816 -0.01139743
v 0.00767738 -0.13175375 -0.01398252
v -0.01947742 -0.14274146 0.00360039
v 0.00379868 -0.13253051 -0.01393082
v -0.00094972 -0.13443517 -0.01614107
v -0.00297643 -0.13615230 -0.01741638
v -0.01305563 -0.13906648 -0.01235822
v -0.01947742 -0.14271486 0.01139874
v 0.00147689 -0.14320699 -0.00336642
v 0.00633401 -0.14015182 0.01888688
v 0.00886934 -0.14006137 0.01881364
v -0.01292750 -0.14190219 -0.01184551
v -0.01947742 -0.14272550 0.00886966
v -0.01947742 -0.14273349 0.00633197
v 0.00035483 -0.14144332 -0.02032891
v 0.00886157 -0.13849455 -0.02050987
v 0.00126723 -0.13806893 -0.02025998
v 0.00379868 -0.13557371 -0.01896312
v 0.00633401 -0.13460675 -0.01851935
v 0.00633401 -0.13296012 -0.01646420
v 0.00323182 -0.13382600 -0.01708893
v -0.00290655 -0.13851450 -0.01957924
f 1 2 3
f 1 3 4
f 1 4 5
f 1 5 16
f 1 16 6
f 1 6 7
f 1 7 2
f 2 8 9
f 2 9 10
f 2 10 3
f 2 7 11
f 2 11 8
f 3 10 12
f 3 12 4
f 4 13 14
f 4 14 5
f 4 12 13
f 5 14 15
f 5 15 16
f 6 16 17
f 6 17 18
f 6 18 19
f 6 19 7
f 7 19 20
f 7 20 21
f 7 21 11
f 8 11 22
f 8 22 23
f 8 23 9
f 9 23 24
f 9 24 25
f 9 25 10
f 10 25 12
f 11 21 26
f 11 26 22
f 12 25 27
f 12 27 45
f 12 45 56
f 12 56 55
f 12 55 50
f 12 50 28
f 12 28 13
f 13 29 14
f 13 28 29
f 14 29 30
f 14 30 31
f 14 31 15
f 15 31 32
f 15 32 33
f 15 33 34
f 15 34 35
f 15 35 17
f 15 17 16
f 17 35 34
f 17 34 33
f 17 33 28
f 17 28 36
f 17 36 51
f 17 51 37
f 17 37 38
f 17 38 18
f 18 38 39
f 18 39 19
f 19 39 20
f 20 39 40
f 20 40 21
f 21 40 41
f 21 41 26
f 22 26 23
f 23 26 42
f 23 42 24
f 24 43 27
f 24 27 25
f 24 42 44
f 24 44 43
f 26 41 42
f 27 43 46
f 27 46 47
f 27 47 48
f 27 48 49
f 27 49 45
f 28 50 37
f 28 37 51
f 28 51 36
f 28 33 29
f 29 33 52
f 29 52 30
f 30 52 53
f 30 53 31
f 31 53 32
f 32 53 33
f 33 53 52
f 37 54 38
f 37 50 55
f 37 55 56
f 37 56 45
f 37 45 54
f 38 57 58
f 38 58 40
f 38 40 39
f 38 54 57
f 40 58 41
f 41 58 59
f 41 59 60
f 41 60 61
f 41 61 42
f 42 61 62
f 42 62 44
f 43 44 46
f 44 62 63
f 44 63 46
f 45 49 54
f 46 63 47
f 47 63 48
f 48 63 60
f 48 60 64
f 48 64 49
f 49 64 54
f 54 64 57
f 57 64 59
f 57 59 58
f 59 64 60
f 60 63 61
f 61 63 62

