# https://github.com/mikedh/trimesh
v -0.02912656 -0.11024193 0.00950733
v -0.02912656 -0.10463522 0.00950733
v -0.02912031 -0.11170893 0.00950733
v -0.02912031 -0.11381179 0.01572068
v -0.02912656 -0.11024193 0.02020927
v -0.02912656 -0.10463522 0.02111830
v -0.02753263 -0.10463522 0.00950733
v -0.02659502 -0.11159847 0.00950733
v 0.03473097 -0.11249835 0.00985653
v 0.03418716 -0.11551859 0.01059591
v 0.02017925 -0.11839468 0.01412175
v 0.00009564 -0.11839468 0.01592567
v -0.02912031 -0.11381179 0.02064470
v -0.02554489 -0.10463522 0.02332230
v -0.02633873 -0.10463522 0.00950875
v -0.02633873 -0.10463926 0.00950733
v -0.02581367 -0.11156344 0.00950733
v 0.03473097 -0.10741432 0.00985653
v 0.03473097 -0.11551724 0.01063266
v -0.02456353 -0.11149744 0.00950733
v -0.02153192 -0.11129537 0.00950733
v -0.01946917 -0.11115662 0.00950733
v 0.02017925 -0.11839468 0.02033368
v 0.03473097 -0.11551859 0.01106527
v 0.00009564 -0.11839468 0.02352164
v -0.02359466 -0.11381179 0.02334351
v -0.02414472 -0.10463522 0.02364180
v -0.01946917 -0.10463522 0.01368915
v -0.01946917 -0.10571695 0.00950733
v 0.03473097 -0.10741432 0.02015131
v 0.01589125 -0.11839468 0.02330675
v 0.03473097 -0.11551859 0.02124271
v 0.03324330 -0.11551859 0.02317103
v 0.00009564 -0.11783158 0.02360505
v -0.02252579 -0.11381179 0.02354426
v 0.00887167 -0.11839468 0.02358950
v 0.00887167 -0.11783158 0.02374077
v -0.02153192 -0.10516463 0.02395000
v -0.02100686 -0.10463522 0.02386376
v -0.01946917 -0.10463522 0.02372097
v 0.03293076 -0.11150417 0.02280346
v 0.03321829 -0.11319076 0.02313710
v 0.03473097 -0.11261554 0.02151414
v 0.02918032 -0.10741432 0.02151132
v 0.02858025 -0.10872372 0.02308055
v 0.03026795 -0.10904568 0.02274974
v 0.03124306 -0.11073497 0.02322334
v 0.01548495 -0.11839468 0.02339864
v 0.03166186 -0.11551859 0.02376904
v 0.03473097 -0.11535962 0.02131480
v 0.03326830 -0.11529900 0.02320214
v 0.03166811 -0.11529900 0.02381428
v -0.02152567 -0.11381179 0.02356688
v 0.01306592 -0.11839468 0.02354284
v 0.03144934 -0.11551859 0.02380297
v 0.02406096 -0.11529766 0.02385245
v 0.00887167 -0.11529900 0.02384962
v 0.02406096 -0.11276507 0.02376904
v 0.02931159 -0.11002774 0.02340288
v 0.03192439 -0.11251451 0.02346792
v 0.01382851 -0.11839468 0.02350891
f 1 2 7
f 1 7 16
f 1 16 29
f 1 29 22
f 1 22 21
f 1 21 20
f 1 20 17
f 1 17 8
f 1 8 3
f 1 3 4
f 1 4 13
f 1 13 5
f 1 5 6
f 1 6 2
f 2 6 14
f 2 14 27
f 2 27 39
f 2 39 40
f 2 40 28
f 2 28 15
f 2 15 7
f 3 8 9
f 3 9 10
f 3 10 11
f 3 11 12
f 3 12 4
f 4 12 25
f 4 25 13
f 5 13 6
f 6 13 14
f 7 15 16
f 8 17 9
f 9 18 30
f 9 30 43
f 9 43 50
f 9 50 32
f 9 32 24
f 9 24 19
f 9 19 10
f 9 17 20
f 9 20 21
f 9 21 22
f 9 22 29
f 9 29 18
f 10 19 11
f 11 23 31
f 11 31 48
f 11 48 61
f 11 61 54
f 11 54 36
f 11 36 25
f 11 25 12
f 11 19 24
f 11 24 32
f 11 32 23
f 13 26 14
f 13 25 26
f 14 26 27
f 15 28 18
f 15 18 16
f 16 18 29
f 18 28 40
f 18 40 30
f 23 32 33
f 23 33 31
f 25 34 35
f 25 35 26
f 25 36 37
f 25 37 34
f 26 35 27
f 27 35 38
f 27 38 39
f 30 41 42
f 30 42 43
f 30 40 44
f 30 44 45
f 30 45 46
f 30 46 47
f 30 47 41
f 31 33 49
f 31 49 48
f 32 50 33
f 33 50 51
f 33 51 52
f 33 52 49
f 34 37 53
f 34 53 35
f 35 53 38
f 36 54 37
f 37 54 55
f 37 55 56
f 37 56 57
f 37 57 38
f 37 38 53
f 38 57 56
f 38 56 52
f 38 52 58
f 38 58 59
f 38 59 39
f 39 59 45
f 39 45 40
f 40 45 44
f 41 60 42
f 41 47 60
f 42 60 52
f 42 52 51
f 42 51 43
f 43 51 50
f 45 59 47
f 45 47 46
f 47 59 60
f 48 49 55
f 48 55 61
f 49 52 55
f 52 56 55
f 52 60 59
f 52 59 58
f 54 61 55

