# https://github.com/mikedh/trimesh
v -0.01947586 -0.13459895 0.00823540
v -0.01150885 -0.13459895 0.00823540
v -0.01140735 -0.14214972 0.01411957
v -0.01947586 -0.13459895 0.01411804
v -0.01947586 -0.12761208 0.00823540
v -0.01085961 -0.13459070 0.00823540
v 0.00008929 -0.14136026 0.01411957
v -0.00776091 -0.14189115 0.01647047
v -0.01140735 -0.14213872 0.01646586
v -0.01140735 -0.14201769 0.01801263
v -0.01141309 -0.14063957 0.01924574
v -0.01141309 -0.13827118 0.02032663
v -0.01141309 -0.13577901 0.02124454
v -0.01141309 -0.13304478 0.02171349
v -0.01260623 -0.11778921 0.02181651
v -0.01947586 -0.11946440 0.01411804
v -0.01947586 -0.12146418 0.01254206
v -0.01260623 -0.11404820 0.01563405
v -0.00380229 -0.11404820 0.01573553
v -0.01900282 -0.12765059 0.00823540
v -0.01173101 -0.13323183 0.00823540
v 0.00008929 -0.11404820 0.01597539
v 0.00008929 -0.12564255 0.01414725
v 0.00008737 -0.13459620 0.01297872
v 0.00008929 -0.14135201 0.01647047
v 0.00008929 -0.13306954 0.01411957
v -0.00938878 -0.14194891 0.01785887
v -0.00126855 -0.14054054 0.01900280
v -0.00380229 -0.13877181 0.02177038
v -0.00380229 -0.13750647 0.02352010
v -0.00568297 -0.13727816 0.02326487
v -0.00794859 -0.13485477 0.02322336
v -0.00821863 -0.13303653 0.02349243
v -0.00900192 -0.11770668 0.02342477
v -0.01022187 -0.11656237 0.02288356
v -0.00900192 -0.11542907 0.02342016
v -0.01260623 -0.11505497 0.02160279
v -0.01260623 -0.11404820 0.02031433
v -0.01673337 -0.12835478 0.00823540
v -0.01214276 -0.13262392 0.00823540
v -0.01382618 -0.13046459 0.00823540
v -0.01615117 -0.12869587 0.00823540
v 0.00008929 -0.11404820 0.02341709
v 0.00008929 -0.14033698 0.01912735
v -0.00126855 -0.13859577 0.02168428
v -0.00126855 -0.13733043 0.02335558
v -0.00126855 -0.13556720 0.02378148
v -0.00380229 -0.13556720 0.02387374
v -0.00645094 -0.13564698 0.02357238
v -0.00633412 -0.13303653 0.02394293
v -0.00762110 -0.11404820 0.02354009
v -0.00852888 -0.11404820 0.02329562
v -0.00933516 -0.11404820 0.02281129
v -0.00127430 -0.11404820 0.02366770
v 0.00008929 -0.11530528 0.02362158
v 0.00008929 -0.13943199 0.02033893
v 0.00008929 -0.13707461 0.02307883
v 0.00008929 -0.13623563 0.02332176
v 0.00008929 -0.13545443 0.02351088
v 0.00008929 -0.13421110 0.02377380
v -0.00126855 -0.11530528 0.02384760
v -0.00380229 -0.12037214 0.02383222
v -0.00629773 -0.11404820 0.02360620
v -0.00504140 -0.11404820 0.02366155
f 1 2 3
f 1 3 4
f 1 4 16
f 1 16 17
f 1 17 5
f 1 5 20
f 1 20 39
f 1 39 42
f 1 42 41
f 1 41 40
f 1 40 21
f 1 21 6
f 1 6 2
f 2 6 3
f 3 7 8
f 3 8 9
f 3 9 4
f 3 6 7
f 4 9 10
f 4 10 11
f 4 11 12
f 4 12 13
f 4 13 14
f 4 14 15
f 4 15 16
f 5 17 18
f 5 18 19
f 5 19 20
f 6 21 22
f 6 22 23
f 6 23 24
f 6 24 7
f 7 25 8
f 7 24 26
f 7 26 23
f 7 23 22
f 7 22 43
f 7 43 55
f 7 55 60
f 7 60 59
f 7 59 58
f 7 58 57
f 7 57 56
f 7 56 44
f 7 44 25
f 8 25 27
f 8 27 9
f 9 27 10
f 10 27 28
f 10 28 29
f 10 29 30
f 10 30 11
f 11 30 31
f 11 31 12
f 12 31 32
f 12 32 13
f 13 32 33
f 13 33 14
f 14 33 15
f 15 34 35
f 15 35 36
f 15 36 37
f 15 37 16
f 15 33 34
f 16 37 38
f 16 38 18
f 16 18 17
f 18 38 53
f 18 53 52
f 18 52 51
f 18 51 63
f 18 63 64
f 18 64 54
f 18 54 43
f 18 43 22
f 18 22 19
f 19 22 20
f 20 22 39
f 21 40 22
f 22 40 41
f 22 41 42
f 22 42 39
f 23 26 24
f 25 44 27
f 27 44 28
f 28 44 29
f 29 44 30
f 30 44 45
f 30 45 46
f 30 46 47
f 30 47 48
f 30 48 49
f 30 49 31
f 31 49 32
f 32 49 33
f 33 49 50
f 33 50 34
f 34 50 36
f 34 36 35
f 36 51 52
f 36 52 37
f 36 50 51
f 37 52 53
f 37 53 38
f 43 54 55
f 44 56 45
f 45 56 46
f 46 56 57
f 46 57 58
f 46 58 59
f 46 59 47
f 47 59 60
f 47 60 48
f 48 60 61
f 48 61 50
f 48 50 49
f 50 61 62
f 50 62 63
f 50 63 51
f 54 64 61
f 54 61 55
f 55 61 60
f 61 64 62
f 62 64 63

