# https://github.com/mikedh/trimesh
v -0.04397809 -0.05840972 0.01378401
v -0.04528587 -0.04178531 0.01139929
v -0.04934435 -0.05840972 0.01378401
v -0.04289611 -0.06461746 0.01378401
v -0.04513729 -0.04178531 -0.00382529
v -0.05052286 -0.04178531 0.01139929
v -0.04934015 -0.05847576 0.01378401
v -0.04195850 -0.07981981 0.01378401
v -0.04304216 -0.06535710 -0.00886713
v -0.04365072 -0.05701848 -0.00633382
v -0.04387904 -0.05448256 -0.00633382
v -0.04460092 -0.04688358 -0.00633382
v -0.04484603 -0.04434765 -0.00633382
v -0.04511379 -0.04178531 -0.00633382
v -0.05046746 -0.04178531 0.00126608
v -0.04772347 -0.08676278 -0.00630906
v -0.04768906 -0.08676278 -0.00301552
v -0.04761687 -0.08500172 0.01378401
v -0.04777972 -0.08250542 0.01378401
v -0.04910764 -0.06209033 0.01378401
v -0.04194759 -0.08676278 0.01378401
v -0.04218010 -0.08676278 -0.00633382
v -0.04240590 -0.07981981 -0.00633382
v -0.04249404 -0.07728387 -0.00633382
v -0.04296158 -0.06715338 -0.00886713
v -0.04307406 -0.06580177 -0.01014244
v -0.04376992 -0.05701848 -0.00886713
v -0.04399236 -0.05448256 -0.00886713
v -0.04422151 -0.05195103 -0.00886713
v -0.04520949 -0.04178531 -0.00888198
v -0.04511379 -0.04178531 -0.00635859
v -0.05039947 -0.04178531 -0.00126474
v -0.04772264 -0.08676278 -0.00633382
v -0.05025342 -0.04178531 -0.00633382
v -0.04749935 -0.08676278 0.01378401
v -0.04221032 -0.08676278 -0.00699501
v -0.04230182 -0.08676278 -0.00886713
v -0.04241177 -0.08676278 -0.00928811
v -0.04275677 -0.08676278 -0.01058819
v -0.04448424 -0.08676278 -0.01151434
v -0.04434658 -0.06715338 -0.01084820
v -0.04488128 -0.05448256 -0.01072934
v -0.04498452 -0.05195103 -0.01069467
v -0.04511043 -0.04941951 -0.01063028
v -0.04535470 -0.04434765 -0.01044208
v -0.04546130 -0.04181614 -0.01032817
v -0.04547641 -0.04178531 -0.01033560
v -0.04760512 -0.08676278 -0.00880274
v -0.05005280 -0.04178531 -0.00886713
v -0.04687988 -0.04688358 -0.01108841
v -0.04687988 -0.04434765 -0.01105622
v -0.04687988 -0.04178531 -0.01099678
v -0.04657350 -0.08676278 -0.01117508
v -0.04900439 -0.04178531 -0.01081106
v -0.04687988 -0.05195103 -0.01111812
v -0.04687988 -0.04941951 -0.01111070
v -0.04523886 -0.04688358 -0.01054114
v -0.04759925 -0.08676278 -0.00886713
v -0.04684715 -0.08676278 -0.01059809
v -0.04690590 -0.04178531 -0.01100174
f 1 2 6
f 1 6 3
f 1 3 7
f 1 7 20
f 1 20 19
f 1 19 18
f 1 18 35
f 1 35 21
f 1 21 8
f 1 8 4
f 1 4 2
f 2 5 14
f 2 14 31
f 2 31 30
f 2 30 47
f 2 47 52
f 2 52 60
f 2 60 54
f 2 54 49
f 2 49 34
f 2 34 32
f 2 32 15
f 2 15 6
f 2 4 5
f 3 6 7
f 4 8 9
f 4 9 10
f 4 10 11
f 4 11 12
f 4 12 13
f 4 13 14
f 4 14 5
f 6 15 16
f 6 16 17
f 6 17 18
f 6 18 19
f 6 19 20
f 6 20 7
f 8 21 22
f 8 22 23
f 8 23 24
f 8 24 25
f 8 25 9
f 9 25 26
f 9 26 27
f 9 27 10
f 10 27 28
f 10 28 11
f 11 28 29
f 11 29 12
f 12 29 13
f 13 29 30
f 13 30 31
f 13 31 14
f 15 32 16
f 16 33 48
f 16 48 58
f 16 58 59
f 16 59 53
f 16 53 40
f 16 40 39
f 16 39 38
f 16 38 37
f 16 37 36
f 16 36 22
f 16 22 21
f 16 21 35
f 16 35 17
f 16 32 34
f 16 34 33
f 17 35 18
f 22 36 23
f 23 25 24
f 23 36 37
f 23 37 25
f 25 37 26
f 26 37 38
f 26 38 39
f 26 39 40
f 26 40 41
f 26 41 42
f 26 42 43
f 26 43 44
f 26 44 45
f 26 45 46
f 26 46 30
f 26 30 29
f 26 29 28
f 26 28 27
f 30 46 47
f 33 34 48
f 34 49 48
f 40 50 51
f 40 51 52
f 40 52 43
f 40 43 42
f 40 42 41
f 40 53 54
f 40 54 55
f 40 55 56
f 40 56 50
f 43 52 44
f 44 52 57
f 44 57 45
f 45 57 52
f 45 52 47
f 45 47 46
f 48 49 58
f 49 54 53
f 49 53 59
f 49 59 58
f 50 56 54
f 50 54 51
f 51 54 60
f 51 60 52
f 54 56 55

