# https://github.com/mikedh/trimesh
v -0.00380230 -0.09249179 -0.00883646
v -0.00136102 -0.09483662 -0.00846583
v -0.00396875 -0.09483662 -0.00843213
v -0.00455441 -0.09483662 -0.00817447
v -0.00527570 -0.09441313 -0.00791681
v -0.00543804 -0.09249179 -0.00810907
v -0.00380230 -0.08995950 -0.00873934
v -0.00126855 -0.08742548 -0.00877106
v 0.00616420 -0.09483662 -0.00853123
v -0.00518939 -0.09483662 -0.00750654
v -0.00923969 -0.09483662 -0.00213926
v -0.00923969 -0.09253171 -0.00251188
v -0.00532502 -0.08995950 -0.00793861
v -0.00374476 -0.08760945 -0.00817645
v -0.00136719 -0.08597102 -0.00852132
v 0.00107615 -0.08597102 -0.00863826
v 0.00905140 -0.09100868 -0.00834889
v 0.00909661 -0.09268357 -0.00835285
v 0.00863836 -0.09483662 -0.00837862
v -0.00923969 -0.09483662 0.01140973
v -0.00923969 -0.08597102 -0.00112646
v -0.00512363 -0.08857880 -0.00768888
v -0.00307279 -0.08597102 -0.00796042
v 0.00107615 -0.08597102 0.01140973
v 0.01175366 -0.09100868 -0.00170917
v 0.01028026 -0.09100868 -0.00784744
v 0.01028026 -0.09196589 -0.00784744
v 0.01009326 -0.09365465 -0.00735987
v 0.00975625 -0.09483662 -0.00646202
v -0.00923969 -0.08597102 0.01140973
v 0.00418939 -0.09483662 0.01141171
v 0.01175366 -0.09100868 0.01141171
v 0.01175366 -0.09249352 -0.00176863
v 0.01175366 -0.09483662 -0.00116412
v 0.00418939 -0.09100868 0.01141171
v 0.01175366 -0.09483662 0.01141171
f 1 2 3
f 1 3 4
f 1 4 5
f 1 5 6
f 1 6 7
f 1 7 8
f 1 8 9
f 1 9 2
f 2 9 19
f 2 19 29
f 2 29 34
f 2 34 36
f 2 36 31
f 2 31 20
f 2 20 11
f 2 11 10
f 2 10 4
f 2 4 3
f 4 10 5
f 5 10 11
f 5 11 6
f 6 11 12
f 6 12 13
f 6 13 7
f 7 14 15
f 7 15 8
f 7 13 14
f 8 16 17
f 8 17 9
f 8 15 16
f 9 17 18
f 9 18 19
f 11 20 30
f 11 30 21
f 11 21 12
f 12 21 13
f 13 21 22
f 13 22 14
f 14 23 15
f 14 22 23
f 15 23 21
f 15 21 30
f 15 30 24
f 15 24 16
f 16 24 32
f 16 32 25
f 16 25 26
f 16 26 17
f 17 26 18
f 18 26 27
f 18 27 19
f 19 27 28
f 19 28 29
f 20 31 35
f 20 35 30
f 21 23 22
f 24 30 35
f 24 35 32
f 25 32 36
f 25 36 34
f 25 34 33
f 25 33 26
f 26 33 27
f 27 33 34
f 27 34 28
f 28 34 29
f 31 36 32
f 31 32 35

