# https://github.com/mikedh/trimesh
v 0.03680781 0.13036280 -0.01927596
v 0.03598221 0.12796577 -0.01975156
v 0.03805203 0.13015579 -0.02125176
v 0.03669347 0.13036280 -0.03072856
v 0.03310035 0.13036280 -0.01643786
v 0.03223986 0.12790220 -0.01643786
v 0.03110611 0.12546340 -0.01643786
v 0.03555778 0.12660199 -0.02087353
v 0.02918552 0.12288297 -0.01643786
v 0.03313717 0.12391986 -0.01996890
v 0.03791636 0.13000143 -0.02914086
v 0.03669541 0.12796577 -0.02153966
v 0.03815668 0.12987432 -0.02407151
v 0.03818769 0.12986160 -0.02660619
v 0.03594345 0.12843973 -0.03064106
v 0.03161388 0.12301916 -0.03074690
v 0.03167202 0.12543254 -0.03085557
v 0.03348796 0.12992879 -0.03062835
v 0.03244142 0.13036280 -0.02908864
v 0.02703818 0.13036280 -0.01643786
v 0.02545481 0.11397217 -0.02084390
v 0.02776688 0.11669607 -0.02153966
v 0.02606916 0.12043871 -0.01643786
v 0.02407493 0.11375244 -0.01985458
v 0.03697254 0.12796577 -0.02660619
v 0.03575352 0.12690163 -0.02968138
v 0.03686014 0.12796577 -0.02407151
v 0.03578065 0.12632416 -0.02660619
v 0.03338912 0.12468800 -0.03060154
v 0.03073014 0.12121049 -0.03061142
v 0.02834054 0.11846842 -0.03063823
v 0.02916614 0.12036971 -0.03077795
v 0.02154192 0.11349821 -0.03071021
v 0.01869882 0.11354360 -0.03068904
v 0.01838874 0.11565735 -0.03019650
v 0.01838874 0.11709013 -0.02869066
v 0.02798200 0.13036280 -0.01974733
v 0.01838874 0.12183516 -0.02039934
v 0.01838874 0.12226736 -0.01869874
v 0.01838874 0.12275221 -0.01643927
v 0.02552264 0.12623336 -0.01643786
v 0.02407493 0.11324216 -0.02153966
v 0.02478425 0.11338744 -0.02410962
v 0.02553814 0.11376333 -0.02660619
v 0.02797425 0.11645637 -0.02777191
v 0.02664864 0.11530324 -0.02153966
v 0.01869882 0.11804349 -0.01643927
v 0.02170277 0.11828683 -0.01643927
v 0.02409043 0.11936731 -0.01643927
v 0.02407493 0.11530324 -0.01886950
v 0.02154192 0.11334022 -0.01941426
v 0.02154192 0.11240138 -0.02153966
v 0.03339881 0.12358936 -0.02914086
v 0.02478425 0.11356721 -0.02913945
v 0.02479975 0.11466041 -0.03059590
v 0.02154192 0.11242681 -0.02913945
v 0.01869882 0.11231785 -0.02922977
v 0.01869882 0.11181120 -0.02676001
v 0.01869882 0.11196738 -0.02422534
v 0.01869882 0.11225611 -0.02169490
v 0.01869882 0.11326940 -0.01938321
v 0.02407493 0.11289350 -0.02660619
v 0.02154192 0.11205090 -0.02407151
v 0.02154192 0.11191834 -0.02660619
f 1 2 3
f 1 3 4
f 1 4 19
f 1 19 37
f 1 37 20
f 1 20 5
f 1 5 6
f 1 6 7
f 1 7 2
f 2 8 3
f 2 7 9
f 2 9 10
f 2 10 8
f 3 11 4
f 3 8 12
f 3 12 13
f 3 13 14
f 3 14 11
f 4 15 16
f 4 16 17
f 4 17 18
f 4 18 19
f 4 11 15
f 5 20 41
f 5 41 23
f 5 23 9
f 5 9 7
f 5 7 6
f 8 10 21
f 8 21 22
f 8 22 12
f 9 23 24
f 9 24 21
f 9 21 10
f 11 14 25
f 11 25 26
f 11 26 15
f 12 27 13
f 12 22 28
f 12 28 27
f 13 27 25
f 13 25 14
f 15 26 29
f 15 29 16
f 16 29 30
f 16 30 31
f 16 31 32
f 16 32 17
f 17 32 33
f 17 33 34
f 17 34 18
f 18 34 35
f 18 35 36
f 18 36 19
f 19 36 38
f 19 38 37
f 20 37 39
f 20 39 40
f 20 40 41
f 21 24 42
f 21 42 43
f 21 43 44
f 21 44 45
f 21 45 46
f 21 46 22
f 22 45 28
f 22 46 45
f 23 41 47
f 23 47 48
f 23 48 49
f 23 49 50
f 23 50 24
f 24 50 51
f 24 51 52
f 24 52 42
f 25 27 28
f 25 28 26
f 26 28 53
f 26 53 30
f 26 30 29
f 28 45 53
f 30 45 31
f 30 53 45
f 31 45 54
f 31 54 55
f 31 55 32
f 32 55 33
f 33 55 54
f 33 54 56
f 33 56 57
f 33 57 34
f 34 57 35
f 35 57 58
f 35 58 59
f 35 59 60
f 35 60 61
f 35 61 40
f 35 40 39
f 35 39 38
f 35 38 36
f 37 38 39
f 40 61 47
f 40 47 41
f 42 62 43
f 42 52 63
f 42 63 62
f 43 62 44
f 44 62 54
f 44 54 45
f 47 61 51
f 47 51 48
f 48 51 50
f 48 50 49
f 51 61 52
f 52 61 60
f 52 60 63
f 54 62 64
f 54 64 56
f 56 64 58
f 56 58 57
f 58 64 63
f 58 63 59
f 59 63 60
f 62 63 64

