# https://github.com/mikedh/trimesh
v -0.04620662 -0.01945998 -0.01404796
v -0.04620662 -0.01899853 -0.01667098
v -0.04209219 -0.01815983 -0.01193623
v -0.04617118 -0.01945998 -0.01394403
v -0.04620662 -0.01945998 0.00919347
v -0.04620662 -0.01895097 -0.01674165
v -0.04244503 -0.01796510 -0.01334543
v -0.04209219 -0.01804350 -0.01249742
v -0.04209179 -0.01847667 0.00919763
v -0.04209179 -0.01945933 0.01421505
v -0.04209219 -0.01821189 -0.01149560
v -0.04209219 -0.01843683 -0.00914693
v -0.04613493 -0.01945998 -0.01371956
v -0.04572046 -0.01945998 0.00919347
v -0.04227505 -0.01945933 0.02371781
v -0.04517832 -0.01945933 0.02349749
v -0.04565723 -0.01945933 0.02339773
v -0.04620662 -0.01289433 0.00919347
v -0.04620662 -0.01626713 -0.01873283
v -0.04321717 -0.01725493 -0.01503731
v -0.04209219 -0.01702614 -0.01371125
v -0.04209219 -0.01659747 -0.01409784
v -0.04209179 -0.01327094 0.00919763
v -0.04209219 -0.01631019 -0.01416851
v -0.04209179 -0.01945933 0.02370534
v -0.04575470 -0.01945998 0.00633350
v -0.04581753 -0.01945998 0.00126620
v -0.04584694 -0.01945998 -0.00074160
v -0.04585579 -0.01945998 -0.00126538
v -0.04589084 -0.01945998 -0.00332306
v -0.04605598 -0.01945998 -0.01109238
v -0.04606323 -0.01945998 -0.01139999
v -0.04209179 -0.01928003 0.02373444
v -0.04381530 -0.01289947 0.02278250
v -0.04523753 -0.01289947 0.02253724
v -0.04209179 -0.01898247 0.02373028
v -0.04454192 -0.01878580 0.02350165
v -0.04565723 -0.01289947 0.02238344
v -0.04620662 -0.01318547 -0.01139999
v -0.04302544 -0.01289947 0.02278250
v -0.04278619 -0.01289947 0.02277003
v -0.04276121 -0.01289947 0.02276587
v -0.04209179 -0.01289947 0.02246242
v -0.04209179 -0.01289947 0.01295966
v -0.04620662 -0.01623564 -0.01873283
v -0.04301577 -0.01556725 -0.01526178
v -0.04209219 -0.01623371 -0.01416851
v -0.04209219 -0.01478767 -0.01386505
v -0.04209219 -0.01474333 -0.01377360
v -0.04209219 -0.01381658 -0.01139999
v -0.04209219 -0.01349909 -0.00886426
v -0.04620662 -0.01325873 -0.01393572
v -0.04620662 -0.01466492 -0.01827556
v -0.04301577 -0.01514950 -0.01526178
v -0.04620662 -0.01379280 -0.01643820
f 1 2 3
f 1 3 4
f 1 4 13
f 1 13 32
f 1 32 31
f 1 31 30
f 1 30 29
f 1 29 28
f 1 28 27
f 1 27 26
f 1 26 14
f 1 14 5
f 1 5 18
f 1 18 39
f 1 39 52
f 1 52 55
f 1 55 53
f 1 53 45
f 1 45 19
f 1 19 6
f 1 6 2
f 2 6 7
f 2 7 8
f 2 8 3
f 3 8 9
f 3 9 10
f 3 10 11
f 3 11 4
f 4 11 12
f 4 12 13
f 5 14 15
f 5 15 16
f 5 16 17
f 5 17 18
f 6 19 20
f 6 20 7
f 7 21 8
f 7 20 22
f 7 22 21
f 8 21 9
f 9 23 44
f 9 44 43
f 9 43 36
f 9 36 33
f 9 33 25
f 9 25 10
f 9 21 22
f 9 22 24
f 9 24 47
f 9 47 23
f 10 25 14
f 10 14 26
f 10 26 27
f 10 27 28
f 10 28 29
f 10 29 30
f 10 30 31
f 10 31 32
f 10 32 13
f 10 13 12
f 10 12 11
f 14 25 15
f 15 25 33
f 15 33 16
f 16 34 35
f 16 35 17
f 16 33 36
f 16 36 37
f 16 37 34
f 17 35 38
f 17 38 18
f 18 38 35
f 18 35 34
f 18 34 40
f 18 40 41
f 18 41 42
f 18 42 43
f 18 43 44
f 18 44 39
f 19 45 54
f 19 54 46
f 19 46 24
f 19 24 22
f 19 22 20
f 23 47 48
f 23 48 49
f 23 49 50
f 23 50 51
f 23 51 44
f 24 46 54
f 24 54 47
f 34 37 36
f 34 36 40
f 36 43 42
f 36 42 41
f 36 41 40
f 39 51 52
f 39 44 51
f 45 53 54
f 47 54 48
f 48 54 53
f 48 53 49
f 49 53 55
f 49 55 50
f 50 55 52
f 50 52 51

