# https://github.com/mikedh/trimesh
v 0.00881610 0.14572900 -0.03077276
v 0.00962323 0.14758199 -0.03063437
v 0.01134888 0.14835110 -0.03072169
v 0.01138315 0.14576873 -0.03076453
v 0.00883495 0.14279925 -0.03073322
v 0.00590288 0.14265053 -0.03063766
v 0.00724125 0.14489775 -0.03057505
v 0.01046634 0.14926996 -0.03012197
v 0.01215601 0.14980477 -0.03054705
v 0.01393478 0.15015010 -0.03065414
v 0.01386109 0.14829100 -0.03069862
v 0.02134976 0.14823701 -0.03060636
v 0.01225883 0.14250588 -0.03037899
v 0.00451311 0.14250588 -0.02930476
v 0.00793356 0.14658673 -0.02971501
v 0.00991283 0.14972735 -0.02843319
v 0.01134888 0.15029985 -0.02922238
v 0.01413185 0.15186863 -0.02881872
v 0.01598945 0.15175657 -0.03011043
v 0.01773052 0.15205097 -0.03041359
v 0.01669719 0.15086828 -0.03056022
v 0.01877414 0.15080308 -0.03054540
v 0.02136690 0.15002990 -0.03054705
v 0.02136690 0.14639929 -0.02992920
v 0.01434092 0.14250588 -0.02863254
v 0.00399387 0.14250588 -0.02688116
v 0.00756341 0.14702986 -0.02802458
v 0.00983572 0.14980477 -0.02660436
v 0.01140371 0.15100885 -0.02660436
v 0.01350122 0.15215590 -0.02660436
v 0.01669376 0.15230157 -0.02922074
v 0.01877414 0.15227813 -0.02914659
v 0.01946645 0.15166591 -0.02999675
v 0.02095905 0.15170054 -0.02871657
v 0.02102416 0.15203467 -0.02678395
v 0.02136690 0.15093347 -0.01946865
v 0.02136690 0.14250588 -0.02212457
v 0.00386192 0.14250588 -0.02154132
v 0.00524484 0.14423051 -0.02154132
v 0.00856933 0.14829406 -0.02660436
v 0.00988027 0.14975078 -0.02077519
v 0.01140371 0.15100071 -0.02154132
v 0.00856247 0.14833888 -0.02154132
v 0.01285175 0.15197661 -0.02407037
v 0.01346867 0.15219665 -0.02154132
v 0.01646927 0.15291278 -0.02154132
v 0.01658409 0.15270191 -0.02660436
v 0.01900377 0.15261533 -0.02660436
v 0.01900377 0.15270701 -0.02154297
v 0.02076540 0.15209172 -0.02080320
v 0.02136690 0.14603664 -0.01394263
v 0.01900377 0.15243604 -0.01970261
v 0.02136690 0.14250588 -0.01394263
v 0.00441715 0.14253643 -0.01979323
v 0.00753428 0.14706348 -0.02086416
v 0.01669719 0.14250588 -0.01394263
v 0.01140371 0.15025095 -0.01956915
v 0.01446087 0.15232093 -0.01986901
v 0.00891206 0.14266886 -0.01394428
v 0.01646927 0.15255217 -0.01955597
v 0.01900377 0.14641356 -0.01394263
v 0.01658409 0.14627298 -0.01394263
v 0.01131289 0.14446582 -0.01394428
v 0.01393478 0.14564648 -0.01394428
f 1 2 3
f 1 3 4
f 1 4 5
f 1 5 6
f 1 6 7
f 1 7 2
f 2 7 8
f 2 8 9
f 2 9 3
f 3 9 10
f 3 10 11
f 3 11 4
f 4 11 12
f 4 12 5
f 5 12 13
f 5 13 6
f 6 14 7
f 6 13 14
f 7 14 15
f 7 15 8
f 8 16 17
f 8 17 9
f 8 15 16
f 9 17 18
f 9 18 19
f 9 19 20
f 9 20 10
f 10 20 21
f 10 21 22
f 10 22 23
f 10 23 12
f 10 12 11
f 12 23 24
f 12 24 13
f 13 24 25
f 13 25 37
f 13 37 53
f 13 53 56
f 13 56 38
f 13 38 26
f 13 26 14
f 14 26 27
f 14 27 15
f 15 27 16
f 16 28 29
f 16 29 30
f 16 30 17
f 16 27 28
f 17 30 18
f 18 31 20
f 18 20 19
f 18 30 31
f 20 22 21
f 20 31 32
f 20 32 33
f 20 33 23
f 20 23 22
f 23 33 34
f 23 34 35
f 23 35 36
f 23 36 51
f 23 51 53
f 23 53 37
f 23 37 24
f 24 37 25
f 26 38 27
f 27 38 39
f 27 39 40
f 27 40 28
f 28 41 42
f 28 42 29
f 28 40 43
f 28 43 41
f 29 42 44
f 29 44 30
f 30 44 45
f 30 45 46
f 30 46 47
f 30 47 31
f 31 47 32
f 32 48 35
f 32 35 34
f 32 34 33
f 32 47 48
f 35 48 49
f 35 49 50
f 35 50 36
f 36 50 52
f 36 52 51
f 38 54 55
f 38 55 39
f 38 56 54
f 39 55 43
f 39 43 40
f 41 57 58
f 41 58 42
f 41 43 55
f 41 55 54
f 41 54 59
f 41 59 57
f 42 45 44
f 42 58 45
f 45 58 46
f 46 58 60
f 46 60 52
f 46 52 49
f 46 49 48
f 46 48 47
f 49 52 50
f 51 52 61
f 51 61 62
f 51 62 56
f 51 56 53
f 52 60 61
f 54 56 59
f 56 62 59
f 57 59 63
f 57 63 58
f 58 64 60
f 58 63 64
f 59 62 63
f 60 64 62
f 60 62 61
f 62 64 63

