# https://github.com/mikedh/trimesh
v 0.02018722 -0.12329488 0.00948989
v 0.00417205 -0.12329488 0.01344770
v 0.00008929 -0.11839655 0.01592641
v 0.02210225 -0.12134195 0.00985581
v 0.02218517 -0.12130160 0.00985581
v 0.02729849 -0.11910436 0.00985581
v 0.02811978 -0.11876948 0.00985581
v 0.03167344 -0.11756241 0.00985581
v 0.03382144 -0.11715904 0.00985581
v 0.03418865 -0.11711261 0.00985581
v 0.03456771 -0.11710119 0.00985581
v 0.03651827 -0.11807538 0.00985581
v 0.03853991 -0.12005495 0.00985581
v 0.03876103 -0.12036624 0.00985581
v 0.03891896 -0.12059608 0.00985581
v 0.03998901 -0.12230623 0.00985581
v 0.04006403 -0.12248204 0.00985581
v 0.04042730 -0.12248204 0.01006190
v 0.02018722 -0.12329488 0.02008330
v 0.00178715 -0.12329488 0.01435338
v 0.00008929 -0.12329488 0.01500390
v 0.00008929 -0.11839655 0.02352237
v 0.02018722 -0.11552043 0.01582687
v 0.03418865 -0.11552043 0.01059465
v 0.03333182 -0.11658595 0.01015163
v 0.03502178 -0.11650984 0.01012499
v 0.03551535 -0.11650984 0.01012499
v 0.03651037 -0.11552043 0.01075588
v 0.03813716 -0.11894301 0.01007452
v 0.03991794 -0.12036624 0.01049652
v 0.04042335 -0.12189753 0.01020210
v 0.04042730 -0.12190895 0.01020070
v 0.04042730 -0.12248204 0.02009311
v 0.01394067 -0.12329488 0.02138014
v 0.00008929 -0.12329488 0.02049689
v 0.00008929 -0.11872002 0.02347611
v 0.01140573 -0.12009225 0.02350555
v 0.00887078 -0.11839655 0.02358827
v 0.02407651 -0.11552043 0.02381258
v 0.02238654 -0.11552043 0.02328123
v 0.02018722 -0.11552043 0.02166895
v 0.03873339 -0.11552043 0.01198963
v 0.04042730 -0.12033656 0.01081196
v 0.04042730 -0.11730897 0.02329245
v 0.02914245 -0.12248204 0.02150071
v 0.01140573 -0.12329488 0.02156099
v 0.00008929 -0.12030839 0.02296859
v 0.00008929 -0.11981597 0.02328263
v 0.02660750 -0.11957090 0.02331768
v 0.02914245 -0.11783412 0.02369201
v 0.02660750 -0.11783412 0.02372005
v 0.03145233 -0.11552043 0.02380417
v 0.03893476 -0.11552043 0.01217890
v 0.04042730 -0.11823749 0.01189149
v 0.04042730 -0.11890800 0.01152557
v 0.04042730 -0.11666205 0.02335413
v 0.02914245 -0.11950546 0.02326300
v 0.04042730 -0.11552043 0.02345648
v 0.04009957 -0.11552043 0.01382343
v 0.04042730 -0.11590401 0.01380520
v 0.04042730 -0.11682644 0.01295420
v 0.04042730 -0.11692843 0.01286307
v 0.04042730 -0.11552043 0.01440946
f 1 2 3
f 1 3 4
f 1 4 5
f 1 5 6
f 1 6 7
f 1 7 8
f 1 8 9
f 1 9 10
f 1 10 11
f 1 11 12
f 1 12 13
f 1 13 14
f 1 14 15
f 1 15 16
f 1 16 17
f 1 17 18
f 1 18 33
f 1 33 19
f 1 19 34
f 1 34 46
f 1 46 35
f 1 35 21
f 1 21 20
f 1 20 2
f 2 20 3
f 3 20 21
f 3 21 35
f 3 35 47
f 3 47 48
f 3 48 36
f 3 36 22
f 3 22 41
f 3 41 23
f 3 23 24
f 3 24 8
f 3 8 7
f 3 7 6
f 3 6 5
f 3 5 4
f 8 24 25
f 8 25 9
f 9 25 24
f 9 24 10
f 10 24 11
f 11 26 27
f 11 27 12
f 11 24 26
f 12 27 28
f 12 28 29
f 12 29 13
f 13 30 14
f 13 29 30
f 14 30 15
f 15 30 31
f 15 31 16
f 16 31 32
f 16 32 18
f 16 18 17
f 18 32 43
f 18 43 55
f 18 55 54
f 18 54 62
f 18 62 61
f 18 61 60
f 18 60 63
f 18 63 58
f 18 58 56
f 18 56 44
f 18 44 33
f 19 33 34
f 22 36 37
f 22 37 38
f 22 38 39
f 22 39 40
f 22 40 41
f 23 41 40
f 23 40 39
f 23 39 52
f 23 52 58
f 23 58 63
f 23 63 59
f 23 59 53
f 23 53 42
f 23 42 28
f 23 28 24
f 24 28 27
f 24 27 26
f 28 42 29
f 29 42 43
f 29 43 30
f 30 43 31
f 31 43 32
f 33 44 45
f 33 45 34
f 34 45 46
f 35 46 47
f 36 48 37
f 37 48 46
f 37 46 45
f 37 45 49
f 37 49 50
f 37 50 51
f 37 51 38
f 38 51 39
f 39 51 52
f 42 53 54
f 42 54 55
f 42 55 43
f 44 56 50
f 44 50 57
f 44 57 45
f 45 57 49
f 46 48 47
f 49 57 50
f 50 56 58
f 50 58 52
f 50 52 51
f 53 59 60
f 53 60 61
f 53 61 62
f 53 62 54
f 59 63 60

