# https://github.com/mikedh/trimesh
v -0.01131156 -0.02943508 -0.00192563
v -0.01032932 -0.02696508 -0.00633458
v -0.01024523 -0.02763305 -0.00780782
v -0.01022376 -0.02914845 -0.00776697
v -0.00984625 -0.04433236 -0.00432680
v -0.01094120 -0.03113741 -0.00192563
v -0.00601211 -0.02937027 -0.00192563
v -0.00195791 -0.02134713 -0.00194497
v -0.00617134 -0.01971209 -0.00215779
v -0.00782094 -0.02134713 -0.00215779
v -0.01007526 -0.02556433 -0.00432752
v -0.01002337 -0.02569892 -0.00633458
v -0.00979436 -0.02793214 -0.00808871
v -0.00839525 -0.04433236 -0.00846490
v -0.00782272 -0.02256593 -0.00791244
v -0.00832011 -0.02407635 -0.00829579
v -0.00905723 -0.02653887 -0.00843480
v -0.00924867 -0.04433236 -0.00633530
v -0.00434642 -0.04433236 -0.00432680
v -0.00196327 -0.03751057 -0.00194497
v -0.00765633 -0.03619705 -0.00192563
v -0.00196327 -0.03131687 -0.00192563
v 0.00362422 -0.02144932 -0.00194497
v -0.00110449 -0.01886965 -0.00215779
v -0.00351088 -0.01894442 -0.00215779
v -0.00548252 -0.01940802 -0.00215779
v -0.00273619 -0.02022554 -0.00768457
v -0.00796407 -0.02242137 -0.00633458
v -0.00912164 -0.02407635 -0.00633458
v -0.00895525 -0.02792965 -0.00854802
v -0.00886580 -0.02914845 -0.00864475
v -0.00633058 -0.04180503 -0.00896075
v -0.00634131 -0.04433236 -0.00884539
v -0.00633237 -0.02211729 -0.00831944
v -0.00633237 -0.02407635 -0.00897580
v -0.00441798 -0.04433236 -0.00634390
v 0.00475854 -0.03751057 -0.00194497
v -0.00196327 -0.03619705 -0.00192563
v 0.00696635 -0.02661115 -0.00194497
v 0.00615765 -0.02418103 -0.00194497
v 0.00296940 -0.02242885 -0.00807008
v 0.00100492 -0.01935318 -0.00215779
v -0.00214398 -0.02022554 -0.00768457
v -0.00365044 -0.02136707 -0.00836100
v -0.00126909 -0.03674040 -0.00924594
v -0.00049439 -0.03751306 -0.00911553
v 0.00225732 -0.03751306 -0.00846490
v -0.00478118 -0.04433236 -0.00797836
v 0.00126434 -0.02407635 -0.00893854
v 0.00388902 -0.03751306 -0.00633530
v 0.00693235 -0.02914596 -0.00194497
v 0.00591970 -0.02914346 -0.00633387
v 0.00546168 -0.02914346 -0.00820407
v 0.00538474 -0.02661115 -0.00810662
v 0.00518615 -0.02512566 -0.00778847
v 0.00448838 -0.02369002 -0.00633387
v 0.00380672 -0.02419848 -0.00836816
v 0.00126434 -0.02196027 -0.00839468
v -0.00045503 -0.02036511 -0.00676667
v -0.00136928 -0.02134464 -0.00834022
v 0.00379777 -0.02914346 -0.00895431
v 0.00379777 -0.02661115 -0.00893209
v 0.00321988 -0.03751306 -0.00792175
v 0.00530065 -0.03079595 -0.00794110
f 1 2 3
f 1 3 4
f 1 4 5
f 1 5 6
f 1 6 21
f 1 21 38
f 1 38 22
f 1 22 7
f 1 7 8
f 1 8 9
f 1 9 10
f 1 10 11
f 1 11 12
f 1 12 2
f 2 12 3
f 3 13 14
f 3 14 4
f 3 12 15
f 3 15 16
f 3 16 17
f 3 17 13
f 4 14 18
f 4 18 5
f 5 18 14
f 5 14 33
f 5 33 48
f 5 48 36
f 5 36 19
f 5 19 37
f 5 37 20
f 5 20 21
f 5 21 6
f 7 22 23
f 7 23 8
f 8 23 24
f 8 24 25
f 8 25 26
f 8 26 9
f 9 26 27
f 9 27 15
f 9 15 10
f 10 15 28
f 10 28 29
f 10 29 11
f 11 29 12
f 12 29 15
f 13 17 30
f 13 30 31
f 13 31 14
f 14 32 33
f 14 31 32
f 15 29 28
f 15 27 34
f 15 34 16
f 16 34 35
f 16 35 17
f 17 35 30
f 19 36 37
f 20 37 38
f 20 38 21
f 22 38 39
f 22 39 40
f 22 40 23
f 23 40 41
f 23 41 42
f 23 42 24
f 24 42 43
f 24 43 27
f 24 27 25
f 25 27 26
f 27 43 44
f 27 44 34
f 30 35 31
f 31 35 32
f 32 45 33
f 32 35 45
f 33 45 46
f 33 46 47
f 33 47 48
f 34 44 35
f 35 44 49
f 35 49 45
f 36 48 50
f 36 50 37
f 37 50 51
f 37 51 38
f 38 51 39
f 39 51 52
f 39 52 53
f 39 53 54
f 39 54 55
f 39 55 40
f 40 55 56
f 40 56 41
f 41 56 55
f 41 55 57
f 41 57 58
f 41 58 43
f 41 43 59
f 41 59 42
f 42 59 43
f 43 58 60
f 43 60 44
f 44 60 49
f 45 61 46
f 45 49 62
f 45 62 61
f 46 61 47
f 47 63 48
f 47 61 53
f 47 53 63
f 48 63 50
f 49 57 62
f 49 60 58
f 49 58 57
f 50 63 64
f 50 64 51
f 51 64 52
f 52 64 53
f 53 64 63
f 53 61 62
f 53 62 54
f 54 62 57
f 54 57 55

