# https://github.com/mikedh/trimesh
v -0.00923969 -0.07917502 -0.00245011
v -0.00371188 -0.08596936 -0.00637490
v -0.00383929 -0.08596936 -0.00498270
v -0.00401396 -0.08596936 -0.00245011
v -0.00923969 -0.07699534 -0.00116975
v -0.00923969 -0.07897397 -0.00301232
v -0.00306868 -0.08596936 -0.00796033
v 0.00107820 -0.08874581 -0.00633458
v 0.00107820 -0.08879049 -0.00480011
v 0.00107820 -0.08880007 -0.00380123
v 0.00107820 -0.08880007 -0.00174108
v -0.00170831 -0.07699534 -0.00116975
v -0.00923969 -0.05840585 -0.00116975
v 0.00547374 -0.09100847 -0.00174108
v -0.00923969 -0.07713576 -0.00406217
v -0.00560243 -0.07982286 -0.00816878
v -0.00380024 -0.07982286 -0.00886564
v -0.00136513 -0.08596936 -0.00852254
v 0.00643340 -0.09100847 -0.00837495
v 0.00553128 -0.09100847 -0.00633458
v 0.00548196 -0.09100847 -0.00380123
v 0.00107820 -0.07260407 -0.00116975
v 0.01173516 -0.09100847 -0.00174108
v -0.00284469 -0.05840585 -0.00116975
v -0.00923969 -0.05840585 -0.00126028
v -0.00591068 -0.07728895 -0.00839397
v -0.00923969 -0.05955793 -0.00145123
v -0.00784233 -0.05955793 -0.00799304
v -0.00778068 -0.06160675 -0.00788806
v 0.00126315 -0.08488749 -0.00892498
v -0.00632989 -0.05955793 -0.00873935
v -0.00379819 -0.06462256 -0.00883977
v 0.00126520 -0.06968720 -0.00894172
v 0.00735607 -0.09100847 -0.00837419
v 0.00633476 -0.08742461 -0.00875457
v 0.00107820 -0.06276840 -0.00116975
v 0.01171667 -0.08995533 -0.00174108
v 0.01028026 -0.09100847 -0.00784774
v 0.01175366 -0.07474865 -0.00381873
v 0.01175366 -0.07663791 -0.00339879
v 0.01175366 -0.06031427 -0.00286169
v 0.01175366 -0.05840585 -0.00286169
v -0.00777040 -0.05840585 -0.00788045
v -0.00637920 -0.05840585 -0.00858264
v 0.00633270 -0.07728256 -0.00887097
v 0.00506891 -0.05840585 -0.00864426
v 0.00633270 -0.05955154 -0.00873022
v 0.00126520 -0.06715648 -0.00893335
v 0.00126520 -0.06850960 -0.00893791
v 0.00633270 -0.07474865 -0.00886564
v 0.00905346 -0.09100847 -0.00834984
v 0.00949527 -0.07903460 -0.00174184
v 0.01028026 -0.09070529 -0.00784774
v 0.01175366 -0.05840585 -0.00301156
v 0.00638613 -0.05840585 -0.00855677
v 0.00785542 -0.05955154 -0.00801434
v 0.00834039 -0.07474865 -0.00845407
v 0.00775473 -0.05840585 -0.00785991
v 0.00720400 -0.05840585 -0.00817182
f 1 2 3
f 1 3 4
f 1 4 5
f 1 5 13
f 1 13 25
f 1 25 27
f 1 27 15
f 1 15 6
f 1 6 2
f 2 6 7
f 2 7 8
f 2 8 3
f 3 8 4
f 4 8 9
f 4 9 10
f 4 10 11
f 4 11 5
f 5 12 22
f 5 22 36
f 5 36 24
f 5 24 13
f 5 11 14
f 5 14 23
f 5 23 12
f 6 15 16
f 6 16 7
f 7 16 17
f 7 17 18
f 7 18 19
f 7 19 8
f 8 19 20
f 8 20 9
f 9 20 21
f 9 21 10
f 10 21 14
f 10 14 11
f 12 23 22
f 13 24 42
f 13 42 54
f 13 54 58
f 13 58 59
f 13 59 55
f 13 55 46
f 13 46 44
f 13 44 43
f 13 43 25
f 14 21 20
f 14 20 19
f 14 19 34
f 14 34 51
f 14 51 38
f 14 38 23
f 15 26 16
f 15 27 28
f 15 28 29
f 15 29 26
f 16 26 17
f 17 30 18
f 17 26 31
f 17 31 32
f 17 32 33
f 17 33 30
f 18 30 19
f 19 30 35
f 19 35 34
f 22 23 36
f 23 37 36
f 23 38 39
f 23 39 40
f 23 40 41
f 23 41 42
f 23 42 37
f 24 36 42
f 25 43 28
f 25 28 27
f 26 29 28
f 26 28 31
f 28 43 44
f 28 44 31
f 30 33 45
f 30 45 35
f 31 44 46
f 31 46 47
f 31 47 48
f 31 48 32
f 32 48 49
f 32 49 33
f 33 49 50
f 33 50 45
f 34 35 51
f 35 45 51
f 36 37 52
f 36 52 42
f 37 42 52
f 38 51 53
f 38 53 39
f 39 54 42
f 39 42 41
f 39 41 40
f 39 53 54
f 45 50 51
f 46 55 47
f 47 55 56
f 47 56 57
f 47 57 50
f 47 50 48
f 48 50 49
f 50 57 51
f 51 57 53
f 53 57 56
f 53 56 54
f 54 56 58
f 55 59 56
f 56 59 58

