# https://github.com/mikedh/trimesh
v 0.02277246 -0.00987350 0.00893579
v 0.02277246 -0.00884032 0.00893579
v 0.03009873 -0.00987350 0.00893579
v 0.03009873 -0.01075189 0.00893724
v -0.03611231 -0.01395397 0.01230546
v 0.03769957 -0.00773023 0.00893724
v 0.02913057 -0.00837501 0.00893579
v -0.03611231 -0.01195314 0.01230546
v -0.03542592 -0.01175562 0.01230546
v -0.02164038 -0.00425371 0.01464144
v 0.03009873 -0.00831139 0.00893579
v 0.03769957 -0.01075189 0.00893724
v -0.03611231 -0.01395397 0.02006254
v -0.02735545 -0.01395397 0.01230546
v 0.03769957 -0.00509127 0.01529331
v -0.02125745 -0.00425371 0.01463273
v -0.01885148 -0.00425371 0.01464725
v 0.01900094 -0.00425371 0.01527298
v 0.02277246 -0.00425371 0.01553721
v -0.03611231 -0.00900556 0.01440625
v -0.02735545 -0.00425371 0.01546753
v 0.03769957 -0.01075189 0.02146354
v -0.02912561 -0.01395397 0.02101638
v -0.02912561 -0.01079747 0.02341044
v -0.03083796 -0.01048220 0.02315637
v -0.03156048 -0.00900556 0.02333494
v -0.03611231 -0.00900556 0.02061133
v -0.02735545 -0.01395397 0.02121964
v 0.03769957 -0.00509127 0.02356723
v 0.02277246 -0.00425371 0.02353094
v -0.02735545 -0.00425371 0.02247111
v 0.03769957 -0.00598675 0.02339882
v 0.03673140 -0.01075189 0.02160873
v -0.02893053 -0.00900556 0.02351206
v -0.02658959 -0.01078702 0.02341334
v -0.01139515 -0.00887071 0.02366450
v -0.02406802 -0.00633525 0.02376758
v -0.02406802 -0.00425371 0.02365144
v -0.02647399 -0.00425371 0.02343366
v 0.01900094 -0.00633525 0.02372693
v 0.03769957 -0.00525650 0.02356868
v 0.01648660 -0.00425371 0.02366596
v 0.03673140 -0.00614723 0.02346851
v 0.00379206 -0.00851081 0.02350916
v 0.00126326 -0.00633525 0.02375016
v 0.00126326 -0.00425371 0.02370951
f 1 2 7
f 1 7 11
f 1 11 3
f 1 3 12
f 1 12 4
f 1 4 5
f 1 5 8
f 1 8 2
f 2 6 7
f 2 8 9
f 2 9 10
f 2 10 6
f 3 11 6
f 3 6 12
f 4 12 14
f 4 14 5
f 5 13 27
f 5 27 20
f 5 20 8
f 5 14 28
f 5 28 23
f 5 23 13
f 6 15 29
f 6 29 41
f 6 41 32
f 6 32 22
f 6 22 12
f 6 11 7
f 6 10 16
f 6 16 17
f 6 17 18
f 6 18 19
f 6 19 15
f 8 20 21
f 8 21 9
f 9 21 10
f 10 21 31
f 10 31 39
f 10 39 38
f 10 38 46
f 10 46 42
f 10 42 30
f 10 30 19
f 10 19 18
f 10 18 17
f 10 17 16
f 12 22 28
f 12 28 14
f 13 23 24
f 13 24 25
f 13 25 26
f 13 26 27
f 15 19 30
f 15 30 29
f 20 27 31
f 20 31 21
f 22 32 33
f 22 33 28
f 23 28 24
f 24 34 26
f 24 26 25
f 24 28 35
f 24 35 36
f 24 36 37
f 24 37 34
f 26 34 37
f 26 37 38
f 26 38 39
f 26 39 27
f 27 39 31
f 28 33 35
f 29 40 41
f 29 30 42
f 29 42 40
f 32 41 43
f 32 43 33
f 33 43 44
f 33 44 35
f 35 44 36
f 36 44 40
f 36 40 45
f 36 45 37
f 37 45 46
f 37 46 38
f 40 44 43
f 40 43 41
f 40 42 46
f 40 46 45

