# https://github.com/mikedh/trimesh
v -0.04860382 -0.13409361 -0.00782621
v -0.04625154 -0.13055272 0.00490801
v -0.04860382 -0.13357924 -0.00276445
v -0.05607886 -0.13335880 -0.00419189
v -0.05258404 -0.13367109 -0.01266728
v -0.04860382 -0.13346902 -0.01277998
v -0.04625154 -0.10272161 0.00492210
v -0.04625154 -0.12703939 0.00933588
v -0.05448229 -0.12928516 0.00645284
v -0.05330989 -0.13187999 0.00246165
v -0.04901006 -0.13214176 0.00177611
v -0.04870539 -0.12785687 -0.02295045
v -0.04860382 -0.11656369 -0.02953826
v -0.04860382 -0.11149806 -0.03012989
v -0.04837382 -0.10080191 -0.02749571
v -0.05704218 -0.13323020 -0.01044161
v -0.05797413 -0.13134265 0.00086048
v -0.05604750 -0.13215094 -0.01619361
v -0.04914299 -0.13142991 -0.01809529
v -0.04625154 -0.10310279 0.01783945
v -0.04779136 -0.08717569 -0.00563341
v -0.04625154 -0.12156042 0.01411591
v -0.05621029 -0.12655258 0.00888981
v -0.05321729 -0.12957450 -0.02137746
v -0.05274235 -0.12554680 -0.02533577
v -0.05059319 -0.12200591 -0.02754736
v -0.05321729 -0.11656369 -0.02950539
v -0.05258404 -0.11118117 -0.03003598
v -0.04860382 -0.10630843 -0.02950069
v -0.05321729 -0.10406724 -0.02866959
v -0.05416567 -0.09949761 -0.02634531
v -0.04860382 -0.09501524 -0.02307254
v -0.05799504 -0.12935865 -0.01956969
v -0.06103285 -0.11604932 -0.00777926
v -0.05887771 -0.12704398 0.00564990
v -0.04779136 -0.09015168 0.00374822
v -0.05992317 -0.09407376 0.00357918
v -0.06003966 -0.10027376 0.00967865
v -0.05901810 -0.10605584 0.01313455
v -0.05844309 -0.11149806 0.01350549
v -0.04625154 -0.10722694 0.01776902
v -0.04868448 -0.09116664 -0.01782296
v -0.05344132 -0.09123094 -0.01712332
v -0.05912712 -0.09148813 -0.01455958
v -0.06037271 -0.09096917 -0.00759613
v -0.05972154 -0.09122635 -0.00205073
v -0.04625154 -0.11355094 0.01710226
v -0.05835199 -0.11592990 0.01313925
v -0.05835050 -0.12139050 0.01084314
v -0.05811601 -0.12568917 -0.02321340
v -0.05733043 -0.12155583 -0.02732198
v -0.05826238 -0.11688057 -0.02812960
v -0.05732594 -0.10865524 -0.02889967
v -0.05854166 -0.10380087 -0.02743467
v -0.05890309 -0.09877657 -0.02473944
v -0.05448229 -0.09570873 -0.02339653
v -0.05656724 -0.09330680 -0.02005802
v -0.05920180 -0.12036176 -0.02406799
v -0.06084616 -0.10581243 0.01021864
v -0.06150778 -0.10897213 -0.00759613
v -0.06107168 -0.11376680 -0.01177983
v -0.06139875 -0.09503361 -0.00127128
v -0.06107914 -0.09868472 0.00581425
v -0.06055044 -0.09491880 -0.01917996
f 1 2 3
f 1 3 4
f 1 4 5
f 1 5 6
f 1 6 2
f 2 7 20
f 2 20 41
f 2 41 47
f 2 47 22
f 2 22 8
f 2 8 9
f 2 9 10
f 2 10 11
f 2 11 3
f 2 6 12
f 2 12 13
f 2 13 14
f 2 14 15
f 2 15 7
f 3 11 10
f 3 10 4
f 4 16 5
f 4 10 17
f 4 17 16
f 5 18 19
f 5 19 6
f 5 16 18
f 6 19 12
f 7 15 21
f 7 21 20
f 8 22 23
f 8 23 9
f 9 23 17
f 9 17 10
f 12 19 24
f 12 24 25
f 12 25 26
f 12 26 13
f 13 26 27
f 13 27 14
f 14 28 29
f 14 29 15
f 14 27 28
f 15 29 30
f 15 30 31
f 15 31 32
f 15 32 21
f 16 17 33
f 16 33 18
f 17 34 33
f 17 23 35
f 17 35 34
f 18 33 24
f 18 24 19
f 20 36 37
f 20 37 38
f 20 38 39
f 20 39 40
f 20 40 41
f 20 21 36
f 21 42 43
f 21 43 44
f 21 44 45
f 21 45 46
f 21 46 36
f 21 32 42
f 22 47 48
f 22 48 49
f 22 49 23
f 23 49 35
f 24 33 50
f 24 50 25
f 25 51 26
f 25 50 51
f 26 51 27
f 27 51 52
f 27 52 28
f 28 52 53
f 28 53 30
f 28 30 29
f 30 53 54
f 30 54 31
f 31 54 55
f 31 55 56
f 31 56 32
f 32 56 57
f 32 57 42
f 33 58 50
f 33 34 58
f 34 35 59
f 34 59 60
f 34 60 61
f 34 61 58
f 35 49 59
f 36 46 37
f 37 46 62
f 37 62 63
f 37 63 38
f 38 63 59
f 38 59 39
f 39 59 40
f 40 59 48
f 40 48 41
f 41 48 47
f 42 57 43
f 43 57 44
f 44 57 64
f 44 64 45
f 45 62 46
f 45 64 62
f 48 59 49
f 50 58 52
f 50 52 51
f 52 58 54
f 52 54 53
f 54 58 64
f 54 64 55
f 55 64 57
f 55 57 56
f 58 61 64
f 59 63 62
f 59 62 60
f 60 62 64
f 60 64 61

