# https://github.com/mikedh/trimesh
v -0.01305726 -0.13916270 -0.01290917
v -0.01305726 -0.13842825 -0.01184057
v -0.01086346 -0.13459058 0.00823028
v -0.01305726 -0.14031417 -0.01286748
v -0.03167310 -0.14063665 -0.01093434
v -0.03387367 -0.13826279 -0.01071492
v -0.03387367 -0.13679560 -0.00910433
v -0.02154420 -0.12596466 0.00950733
v -0.01948328 -0.12608284 0.00950733
v -0.01615653 -0.12870489 0.00823028
v -0.01305726 -0.13764148 -0.00974505
v -0.01948103 -0.14272180 0.00950733
v -0.01305726 -0.14235035 0.00360479
v -0.01305726 -0.14238750 -0.00633299
v -0.01305726 -0.14238919 -0.00886735
v -0.01305726 -0.14215112 -0.01119326
v -0.01305726 -0.14147915 -0.01244399
v -0.01194459 -0.13293259 0.00823028
v -0.01948103 -0.13499241 0.00950733
v -0.03167310 -0.14222710 -0.01044722
v -0.03387367 -0.14094731 -0.01058326
v -0.03387367 -0.13648662 -0.00806426
v -0.02734180 -0.12728159 0.00950733
v -0.02622687 -0.12689833 0.00950733
v -0.02407136 -0.12629727 0.00950733
v -0.01389289 -0.13041690 0.00823028
v -0.02407136 -0.14303584 0.00950733
v -0.01413390 -0.14242295 0.00360479
v -0.01349873 -0.14239257 0.00126352
v -0.01647411 -0.14261375 -0.00633299
v -0.01647411 -0.14261037 -0.00886735
v -0.02407136 -0.14297674 -0.00886735
v -0.02660527 -0.14309324 -0.00886735
v -0.02660527 -0.14243815 -0.01060081
v -0.02913694 -0.14241958 -0.01059862
v -0.02913694 -0.14303921 -0.00886735
v -0.03167310 -0.14263569 -0.00886735
v -0.03356284 -0.14192657 -0.00997545
v -0.03387367 -0.13429004 0.00950733
v -0.03378358 -0.14201944 -0.00854041
v -0.03365970 -0.14201268 0.00950733
v -0.03387367 -0.13619960 -0.00625838
v -0.03010546 -0.12951193 0.00950733
v -0.02871574 -0.12829124 0.00950733
v -0.02660527 -0.14318272 0.00950733
v -0.02407136 -0.14308818 -0.00633299
v -0.02154420 -0.14293454 -0.00633299
v -0.01948103 -0.14280453 -0.00633299
v -0.02660527 -0.14321142 -0.00633299
v -0.02913694 -0.14314559 -0.00633299
v -0.03167310 -0.14272180 -0.00633299
v -0.03374529 -0.14210554 -0.00633299
v -0.03373403 -0.14210217 -0.00379643
v -0.03371826 -0.14209204 -0.00126646
v -0.03352906 -0.14214437 0.00126352
v -0.03167310 -0.14268803 0.00379569
v -0.03135327 -0.14270154 0.00950733
v -0.02897702 -0.14312870 0.00918478
v -0.02913694 -0.14314221 0.00379569
v -0.02913694 -0.14314727 0.00126352
v -0.02913694 -0.14314727 -0.00379643
v -0.03167310 -0.14272180 -0.00379643
v -0.03167310 -0.14271505 -0.00126646
v -0.03167310 -0.14270491 0.00126352
f 1 2 3
f 1 3 4
f 1 4 5
f 1 5 6
f 1 6 7
f 1 7 2
f 2 8 9
f 2 9 10
f 2 10 11
f 2 11 3
f 2 7 8
f 3 12 13
f 3 13 14
f 3 14 15
f 3 15 16
f 3 16 17
f 3 17 4
f 3 11 18
f 3 18 9
f 3 9 19
f 3 19 12
f 4 17 20
f 4 20 5
f 5 20 21
f 5 21 6
f 6 21 39
f 6 39 42
f 6 42 22
f 6 22 7
f 7 22 23
f 7 23 24
f 7 24 25
f 7 25 8
f 8 25 24
f 8 24 23
f 8 23 44
f 8 44 43
f 8 43 39
f 8 39 41
f 8 41 57
f 8 57 45
f 8 45 27
f 8 27 12
f 8 12 19
f 8 19 9
f 9 18 26
f 9 26 10
f 10 26 11
f 11 26 18
f 12 27 13
f 13 27 28
f 13 28 29
f 13 29 14
f 14 29 30
f 14 30 15
f 15 30 31
f 15 31 16
f 16 31 32
f 16 32 33
f 16 33 34
f 16 34 17
f 17 34 35
f 17 35 20
f 20 35 36
f 20 36 37
f 20 37 38
f 20 38 21
f 21 38 40
f 21 40 41
f 21 41 39
f 22 42 43
f 22 43 44
f 22 44 23
f 27 45 46
f 27 46 47
f 27 47 48
f 27 48 30
f 27 30 29
f 27 29 28
f 30 48 31
f 31 48 47
f 31 47 46
f 31 46 49
f 31 49 32
f 32 49 33
f 33 49 36
f 33 36 35
f 33 35 34
f 36 50 37
f 36 49 50
f 37 40 38
f 37 50 51
f 37 51 40
f 39 43 42
f 40 52 53
f 40 53 41
f 40 51 52
f 41 53 54
f 41 54 55
f 41 55 56
f 41 56 57
f 45 57 58
f 45 58 59
f 45 59 60
f 45 60 49
f 45 49 46
f 49 60 61
f 49 61 50
f 50 61 51
f 51 61 60
f 51 60 62
f 51 62 52
f 52 62 53
f 53 55 54
f 53 62 63
f 53 63 55
f 55 63 64
f 55 64 56
f 56 64 59
f 56 59 57
f 57 59 58
f 59 64 63
f 59 63 62
f 59 62 60

