# https://github.com/mikedh/trimesh
v 0.03757723 0.00523493 0.00243660
v 0.03443902 0.01652888 0.00383474
v 0.03424478 0.01507226 0.01476951
v 0.03654132 0.00661291 0.01336440
v 0.02156245 0.00395611 0.03588083
v 0.03649942 0.00368598 -0.00954156
v 0.03531117 0.01340022 -0.00362900
v 0.03228340 0.02022857 0.01095764
v 0.03220342 0.01912755 -0.00821993
v 0.02954128 0.02438986 -0.00161177
v 0.03215391 0.01595444 0.02098813
v 0.03257666 0.00713264 0.02596164
v 0.01583826 0.01192308 0.03563737
v 0.01359124 0.00297135 0.03501829
v 0.02743136 0.00618549 0.03234720
v 0.02139868 0.01599205 0.03312627
v 0.01528983 0.00301922 -0.03509078
v 0.02881004 0.00410314 -0.02863566
v 0.03253476 0.00501951 -0.02210401
v 0.03484653 0.00551531 -0.01552368
v 0.03401628 0.01296939 -0.01199701
v 0.02748468 0.02679021 0.00895433
v 0.02625453 0.02493011 0.02071685
v 0.02965934 0.01831034 -0.01797218
v 0.02593842 0.02508740 -0.01384729
v 0.02402655 0.02983339 -0.00096486
v 0.02813974 0.01821118 0.02646942
v 0.01302377 0.02161680 0.03329322
v 0.00171250 0.02415051 0.03276456
v -0.00132670 0.01512355 0.03364797
v -0.00132670 0.00648297 0.03019086
v -0.00132670 0.00267387 -0.02728620
v 0.02260979 0.02189719 0.02915442
v 0.00768805 0.01641605 -0.03516730
v 0.02379804 0.00662658 -0.03263533
v -0.00132670 0.01006982 -0.03394305
v -0.00122387 0.01737345 -0.03472211
v 0.03051625 0.01244624 -0.02206923
v 0.02029802 0.03254489 0.00800832
v 0.02228987 0.03028816 0.01492254
v 0.01814621 0.02745013 0.02649725
v 0.02380947 0.02116204 -0.02410733
v 0.01858038 0.03158065 -0.01027889
v 0.01809290 0.02764845 -0.02089368
v 0.01774632 0.03387842 -0.00008841
v 0.01068534 0.02734414 0.03033693
v 0.00280173 0.03152594 0.02674070
v 0.00077941 0.03563936 0.01776057
v 0.00047092 0.03641896 -0.00808776
v 0.00120977 0.02321020 -0.03203016
v 0.01027022 0.02349742 -0.03082678
v 0.01626481 0.01767093 -0.03281618
v 0.00124405 0.02960430 -0.02433687
v 0.01161843 0.03626168 0.00494770
v 0.01571639 0.03427164 0.01299574
v 0.01395685 0.03143704 0.02310274
v 0.01781488 0.02349400 -0.02730707
v 0.01043779 0.03059247 -0.02067804
v 0.00830883 0.03524272 -0.01002152
v 0.01079198 0.03620697 -0.00198739
v 0.01020547 0.03489396 0.01705106
v 0.00303786 0.03718147 0.01056115
v 0.00086701 0.03760546 0.00262441
v 0.00163252 0.03386133 -0.01646969
f 1 2 3
f 1 3 4
f 1 4 5
f 1 5 6
f 1 6 7
f 1 7 2
f 2 8 3
f 2 7 9
f 2 9 10
f 2 10 8
f 3 11 4
f 3 8 11
f 4 11 12
f 4 12 5
f 5 13 14
f 5 14 6
f 5 12 15
f 5 15 16
f 5 16 13
f 6 17 18
f 6 18 19
f 6 19 20
f 6 20 21
f 6 21 7
f 6 14 17
f 7 21 9
f 8 10 22
f 8 22 23
f 8 23 11
f 9 21 24
f 9 24 25
f 9 25 10
f 10 25 26
f 10 26 22
f 11 23 27
f 11 27 12
f 12 27 15
f 13 16 28
f 13 28 29
f 13 29 30
f 13 30 14
f 14 30 31
f 14 31 32
f 14 32 17
f 15 27 16
f 16 27 33
f 16 33 28
f 17 34 35
f 17 35 18
f 17 32 36
f 17 36 37
f 17 37 34
f 18 35 38
f 18 38 19
f 19 38 20
f 20 38 21
f 21 38 24
f 22 39 40
f 22 40 23
f 22 26 39
f 23 40 41
f 23 41 33
f 23 33 27
f 24 38 42
f 24 42 25
f 25 43 26
f 25 42 44
f 25 44 43
f 26 45 39
f 26 43 45
f 28 33 46
f 28 46 29
f 29 46 47
f 29 47 48
f 29 48 30
f 30 48 49
f 30 49 37
f 30 37 36
f 30 36 32
f 30 32 31
f 33 41 46
f 34 37 50
f 34 50 51
f 34 51 52
f 34 52 35
f 35 52 42
f 35 42 38
f 37 49 53
f 37 53 50
f 39 54 55
f 39 55 40
f 39 45 54
f 40 55 56
f 40 56 41
f 41 56 46
f 42 57 44
f 42 52 57
f 43 44 58
f 43 58 59
f 43 59 60
f 43 60 45
f 44 57 58
f 45 60 54
f 46 56 47
f 47 56 61
f 47 61 48
f 48 61 62
f 48 62 63
f 48 63 49
f 49 60 59
f 49 59 64
f 49 64 53
f 49 63 60
f 50 53 51
f 51 57 52
f 51 53 58
f 51 58 57
f 53 64 58
f 54 63 62
f 54 62 61
f 54 61 55
f 54 60 63
f 55 61 56
f 58 64 59

