# https://github.com/mikedh/trimesh
v 0.03719805 -0.00923105 0.00421125
v 0.03660965 -0.00639403 0.01511885
v 0.03547435 -0.01272574 0.01270349
v 0.03482938 -0.01618174 0.00508638
v 0.03426362 -0.01578520 -0.00590524
v 0.03633431 -0.00798663 -0.00839760
v 0.01697386 -0.00504645 0.03534481
v 0.02869649 -0.00740955 0.03136823
v 0.03388644 -0.00750305 0.02400315
v 0.03443335 -0.00654233 -0.01706487
v 0.02986574 -0.00558483 -0.02747540
v 0.03204205 -0.01553052 0.02111173
v 0.03026555 -0.02157852 0.01355762
v 0.02898315 -0.02457996 0.00553444
v 0.03183083 -0.02113685 -0.00066147
v 0.03163093 -0.01610114 -0.01670082
v -0.00132673 -0.00464346 0.02739865
v -0.00132673 -0.01487929 0.03206833
v 0.00119658 -0.02352575 0.03351055
v 0.00880799 -0.02066939 0.03441368
v 0.02217889 -0.01110412 0.03475673
v 0.02625616 -0.01618174 0.03001703
v 0.03185346 -0.00996287 -0.02219662
v 0.02714630 -0.01304490 -0.02799347
v 0.02508692 -0.00630376 -0.03280318
v 0.01561602 -0.00601683 -0.03566660
v 0.02800626 -0.02095309 0.02259594
v 0.02536603 -0.02604360 0.01761821
v 0.01828266 -0.03252039 0.00890194
v 0.02310674 -0.02991549 -0.00205467
v 0.02758760 -0.02580181 -0.00524714
v 0.02598083 -0.02584695 -0.01157607
v 0.02772338 -0.02015034 -0.02049537
v -0.00132673 -0.00659391 -0.03047884
v -0.00057615 -0.03748195 0.00921698
v 0.00006128 -0.03594093 0.01803828
v 0.00129464 -0.03102773 0.02816176
v 0.01109745 -0.02619835 0.03150125
v 0.01746796 -0.01779691 0.03433666
v 0.02088895 -0.02417375 0.02816876
v 0.02338962 -0.02152372 -0.02590717
v 0.02008556 -0.01936372 -0.03108793
v 0.01888237 -0.01382831 -0.03442042
v 0.01069387 -0.01319642 -0.03617768
v 0.00247520 -0.01677494 -0.03559659
v 0.01767541 -0.03132110 0.01787725
v 0.01453353 -0.02959310 0.02641850
v 0.01276080 -0.03535418 0.00382619
v 0.01543121 -0.03413555 -0.00227170
v 0.00841196 -0.03590224 0.01265449
v 0.02019494 -0.03097615 -0.00866364
v 0.02022134 -0.02772969 -0.01914418
v 0.00260721 -0.02492492 -0.03279618
v 0.00143420 -0.03145650 -0.02419192
v 0.00006128 -0.03742714 -0.00348988
v 0.00272791 -0.03757866 0.00354615
v 0.00733323 -0.03362618 0.02296700
v 0.01752831 -0.02547298 -0.02684530
v 0.01245529 -0.02155918 -0.03324424
v 0.00746147 -0.03677591 -0.00277578
v 0.01294939 -0.03414200 -0.00962278
v 0.00909087 -0.03322642 -0.01760395
v 0.01108991 -0.02931585 -0.02557112
v 0.00322201 -0.03600541 -0.01131003
f 1 2 3
f 1 3 4
f 1 4 5
f 1 5 6
f 1 6 2
f 2 7 8
f 2 8 9
f 2 9 3
f 2 6 10
f 2 10 11
f 2 11 7
f 3 9 12
f 3 12 13
f 3 13 4
f 4 14 15
f 4 15 5
f 4 13 14
f 5 16 6
f 5 15 16
f 6 16 10
f 7 17 18
f 7 18 19
f 7 19 20
f 7 20 21
f 7 21 8
f 7 11 17
f 8 21 22
f 8 22 9
f 9 22 12
f 10 16 23
f 10 23 11
f 11 23 24
f 11 24 25
f 11 25 26
f 11 26 17
f 12 22 27
f 12 27 13
f 13 27 28
f 13 28 14
f 14 28 29
f 14 29 30
f 14 30 31
f 14 31 15
f 15 31 16
f 16 32 33
f 16 33 23
f 16 31 32
f 17 26 34
f 17 34 18
f 18 34 35
f 18 35 36
f 18 36 37
f 18 37 19
f 19 37 38
f 19 38 20
f 20 39 21
f 20 38 39
f 21 39 22
f 22 40 27
f 22 39 40
f 23 33 24
f 24 33 41
f 24 41 42
f 24 42 25
f 25 42 43
f 25 43 26
f 26 44 45
f 26 45 34
f 26 43 44
f 27 40 28
f 28 46 29
f 28 40 47
f 28 47 46
f 29 48 49
f 29 49 30
f 29 46 50
f 29 50 48
f 30 49 51
f 30 51 31
f 31 51 32
f 32 52 33
f 32 51 52
f 33 52 41
f 34 45 53
f 34 53 54
f 34 54 55
f 34 55 35
f 35 56 50
f 35 50 36
f 35 55 56
f 36 50 57
f 36 57 37
f 37 57 47
f 37 47 38
f 38 47 40
f 38 40 39
f 41 58 42
f 41 52 58
f 42 59 43
f 42 58 59
f 43 59 44
f 44 59 45
f 45 59 53
f 46 47 57
f 46 57 50
f 48 50 56
f 48 56 60
f 48 60 49
f 49 60 61
f 49 61 51
f 51 61 52
f 52 62 63
f 52 63 58
f 52 61 62
f 53 59 63
f 53 63 54
f 54 63 62
f 54 62 64
f 54 64 55
f 55 64 60
f 55 60 56
f 58 63 59
f 60 64 61
f 61 64 62

