# https://github.com/mikedh/trimesh
v 0.03799192 -0.00382189 0.00376487
v 0.03798189 -0.00352191 0.00059814
v 0.03798857 0.00076373 0.00322059
v 0.03786822 -0.00008824 0.00874823
v 0.03786153 -0.00440539 0.00804844
v 0.03772111 -0.00365365 -0.00329665
v 0.03790833 -0.00117863 -0.00150830
v 0.03777126 0.00205816 -0.00144468
v 0.03731323 0.00203382 0.01306714
v 0.03752720 -0.00289546 0.01207754
v 0.03613975 -0.00411328 0.01892700
v 0.01422473 -0.00464022 0.03501512
v 0.02669172 -0.00464022 -0.03183255
v 0.03735335 -0.00389134 -0.00638563
v 0.03715610 0.00031626 -0.00742471
v 0.03736004 0.00255502 -0.00516276
v 0.03463194 0.00241971 0.02356400
v 0.03640387 0.00130928 0.01811411
v 0.03691539 -0.00206926 0.01599354
v 0.03558812 -0.00078629 0.02131618
v 0.03429428 -0.00356988 0.02450412
v 0.02538785 -0.00320045 0.03452031
v 0.02169690 -0.00324270 0.03587042
v 0.01769169 -0.00343528 0.03591283
v 0.01597660 0.00217056 0.03585628
v 0.01280051 0.00267387 0.03489495
v 0.00928006 0.00267387 0.03317728
v 0.01031981 -0.00464022 0.03309953
v 0.01135622 -0.00464022 -0.03492153
v 0.01459918 -0.00457077 -0.03602423
v 0.01854421 -0.00448558 -0.03596768
v 0.02255946 -0.00267925 -0.03468827
v 0.02599967 -0.00098246 -0.03251821
v 0.02870770 -0.00300715 -0.02970491
v 0.03302384 -0.00390423 -0.02202135
v 0.03630357 -0.00348468 -0.01146794
v 0.03667802 -0.00062950 -0.01019560
v 0.03617319 0.00190566 -0.01201929
v 0.03524042 0.00227437 -0.01568789
v 0.03067688 0.00252209 -0.02636853
v 0.02047327 0.00267387 -0.03498515
v 0.02761780 0.00224216 0.03307125
v 0.03111819 0.00111454 0.02969954
v 0.03374264 0.00045373 0.02576233
v 0.03218469 -0.00296276 0.02833530
v 0.02438488 0.00137014 0.03509994
v 0.02939307 -0.00255038 0.03169288
v 0.01952713 0.00089618 0.03618850
v 0.00454936 0.00267387 0.03048415
v 0.00768533 -0.00464022 0.03157978
v 0.00384393 -0.00464022 -0.03024919
v 0.01200816 0.00267387 -0.03470240
v 0.01681241 0.00267387 -0.03555063
v 0.02486631 0.00235313 -0.03303422
v 0.02849039 0.00145175 -0.02970491
v 0.03111819 -0.00232557 -0.02595856
v 0.03276641 0.00092052 -0.02276355
v 0.03393655 0.00120404 -0.02001387
v 0.03409034 -0.00291121 -0.01943425
v 0.03516352 -0.00274082 -0.01606960
v 0.03588232 -0.00112923 -0.01364507
v 0.00384393 -0.00464022 0.02914112
v 0.00384393 0.00267387 -0.02813568
v 0.00827709 0.00267387 -0.03234856
f 1 2 3
f 1 3 4
f 1 4 5
f 1 5 6
f 1 6 2
f 2 6 7
f 2 7 3
f 3 7 8
f 3 8 9
f 3 9 4
f 4 9 10
f 4 10 5
f 5 10 11
f 5 11 12
f 5 12 13
f 5 13 14
f 5 14 6
f 6 14 7
f 7 14 15
f 7 15 16
f 7 16 8
f 8 16 9
f 9 16 17
f 9 17 18
f 9 18 19
f 9 19 10
f 10 19 11
f 11 19 20
f 11 20 21
f 11 21 12
f 12 21 22
f 12 22 23
f 12 23 24
f 12 24 25
f 12 25 26
f 12 26 27
f 12 27 28
f 12 28 50
f 12 50 62
f 12 62 51
f 12 51 29
f 12 29 13
f 13 29 30
f 13 30 31
f 13 31 32
f 13 32 33
f 13 33 34
f 13 34 35
f 13 35 14
f 14 35 36
f 14 36 37
f 14 37 15
f 15 37 38
f 15 38 16
f 16 38 39
f 16 39 40
f 16 40 41
f 16 41 26
f 16 26 17
f 17 26 42
f 17 42 43
f 17 43 44
f 17 44 20
f 17 20 18
f 18 20 19
f 20 44 21
f 21 44 45
f 21 45 22
f 22 46 23
f 22 45 47
f 22 47 42
f 22 42 46
f 23 48 24
f 23 46 48
f 24 48 25
f 25 48 46
f 25 46 42
f 25 42 26
f 26 41 53
f 26 53 52
f 26 52 64
f 26 64 63
f 26 63 49
f 26 49 27
f 27 49 28
f 28 49 50
f 29 51 52
f 29 52 30
f 30 52 53
f 30 53 31
f 31 53 41
f 31 41 32
f 32 41 54
f 32 54 33
f 33 55 34
f 33 54 55
f 34 55 40
f 34 40 56
f 34 56 35
f 35 56 57
f 35 57 58
f 35 58 59
f 35 59 60
f 35 60 36
f 36 60 61
f 36 61 37
f 37 61 38
f 38 61 39
f 39 61 60
f 39 60 58
f 39 58 40
f 40 55 54
f 40 54 41
f 40 58 57
f 40 57 56
f 42 47 43
f 43 47 45
f 43 45 44
f 49 62 50
f 49 63 62
f 51 63 64
f 51 64 52
f 51 62 63
f 58 60 59

