# https://github.com/mikedh/trimesh
v -0.01524810 -0.03754810 0.03163242
v -0.01481519 -0.03483572 0.03163242
v -0.02584210 -0.02740834 0.03175437
v -0.02536924 -0.03147464 0.03166953
v -0.01702190 -0.03675699 0.03163242
v -0.01682432 -0.03665527 0.01794421
v -0.01679546 -0.03664171 0.01609366
v -0.01575870 -0.03704857 0.01290956
v -0.01544124 -0.03704631 0.00466959
v -0.01481519 -0.03441983 0.00466959
v -0.01481519 -0.03467750 0.02366287
v -0.03469339 -0.01445901 0.03175437
v -0.03127231 -0.02555940 0.03173581
v -0.02156188 -0.03423900 0.03163242
v -0.02996915 -0.02708737 0.03153962
v -0.02795336 -0.02918720 0.03143358
v -0.02602415 -0.03096833 0.02862859
v -0.02300268 -0.03325803 0.03071245
v -0.01964821 -0.03539176 0.03145213
v -0.01897110 -0.03538724 0.00474382
v -0.01729719 -0.03622581 0.00466959
v -0.02584210 -0.02700826 0.00466959
v -0.03602763 -0.01755564 0.00467224
v -0.03436482 -0.01445901 0.00482601
v -0.03446694 -0.01445901 0.01565356
v -0.03450468 -0.01445901 0.01946070
v -0.01481519 -0.03448085 0.00954517
v -0.01481519 -0.03461421 0.01946335
v -0.03456018 -0.01445901 0.02328375
v -0.03741293 -0.01452456 0.00878162
v -0.03749507 -0.01506704 0.03105445
v -0.03520399 -0.01978205 0.03173581
v -0.03396965 -0.02182763 0.03154228
v -0.03260877 -0.02384383 0.03094310
v -0.03206708 -0.02406308 0.00801807
v -0.03006683 -0.02643866 0.00467224
v -0.02137983 -0.03435427 0.02985876
v -0.02912998 -0.02799376 0.03015569
v -0.02841513 -0.02842548 0.01183582
v -0.02738503 -0.02967543 0.02289932
v -0.02677674 -0.03020886 0.02060603
v -0.02597531 -0.03077846 0.01259937
v -0.02470323 -0.03174135 0.01107492
v -0.02291832 -0.03322638 0.02328375
v -0.02072936 -0.03442435 0.00725452
v -0.02111343 -0.03413050 0.00470671
v -0.02371309 -0.03236520 0.00466959
v -0.03664924 -0.01620171 0.00542784
v -0.03729749 -0.01470539 0.00615692
v -0.03472003 -0.01999452 0.00467224
v -0.03498199 -0.01960348 0.00687275
v -0.03521953 -0.01972554 0.02977127
v -0.03634953 -0.01760310 0.03122943
v -0.03358115 -0.02212825 0.01451089
v -0.03258657 -0.02334204 0.00649097
v -0.03204932 -0.02400205 0.00467224
v -0.02542030 -0.03106552 0.00467224
v -0.02774689 -0.02898603 0.00470936
v -0.02829302 -0.02847068 0.00734997
v -0.02178610 -0.03380276 0.01069314
v -0.02677230 -0.03003030 0.00916339
v -0.02496519 -0.03147238 0.00712196
v -0.02358655 -0.03252568 0.00840250
v -0.03304612 -0.02266620 0.00519983
f 1 2 3
f 1 3 4
f 1 4 5
f 1 5 6
f 1 6 7
f 1 7 8
f 1 8 9
f 1 9 10
f 1 10 2
f 2 11 12
f 2 12 3
f 2 10 27
f 2 27 28
f 2 28 11
f 3 12 13
f 3 13 4
f 4 14 5
f 4 13 15
f 4 15 16
f 4 16 17
f 4 17 18
f 4 18 14
f 5 14 19
f 5 19 20
f 5 20 21
f 5 21 6
f 6 21 7
f 7 21 8
f 8 21 9
f 9 21 47
f 9 47 22
f 9 22 10
f 10 22 23
f 10 23 24
f 10 24 25
f 10 25 26
f 10 26 27
f 11 28 29
f 11 29 12
f 12 24 30
f 12 30 31
f 12 31 32
f 12 32 13
f 12 29 26
f 12 26 25
f 12 25 24
f 13 32 33
f 13 33 34
f 13 34 35
f 13 35 36
f 13 36 15
f 14 18 37
f 14 37 19
f 15 38 16
f 15 36 39
f 15 39 38
f 16 38 40
f 16 40 17
f 17 40 41
f 17 41 42
f 17 42 43
f 17 43 18
f 18 43 44
f 18 44 37
f 19 37 45
f 19 45 20
f 20 45 46
f 20 46 21
f 21 46 47
f 22 47 23
f 23 48 49
f 23 49 24
f 23 47 50
f 23 50 51
f 23 51 52
f 23 52 53
f 23 53 31
f 23 31 48
f 24 49 30
f 26 28 27
f 26 29 28
f 30 49 48
f 30 48 31
f 31 53 32
f 32 53 52
f 32 52 33
f 33 52 54
f 33 54 34
f 34 54 55
f 34 55 35
f 35 55 56
f 35 56 36
f 36 56 47
f 36 47 57
f 36 57 58
f 36 58 59
f 36 59 39
f 37 44 60
f 37 60 45
f 38 39 40
f 39 59 58
f 39 58 40
f 40 58 61
f 40 61 41
f 41 61 42
f 42 61 57
f 42 57 62
f 42 62 43
f 43 62 47
f 43 47 63
f 43 63 44
f 44 63 60
f 45 60 46
f 46 60 47
f 47 56 50
f 47 60 63
f 47 62 57
f 50 56 64
f 50 64 54
f 50 54 52
f 50 52 51
f 54 64 55
f 55 64 56
f 57 61 58

