# https://github.com/mikedh/trimesh
v 0.02900971 0.03052007 0.03336858
v 0.02764850 0.03052007 0.03426225
v 0.03214596 0.03038735 0.03732145
v 0.03055051 0.03051942 0.03200458
v 0.02755871 0.02991309 0.03748465
v 0.02915546 0.03031514 0.03772854
v 0.02770836 0.02943298 0.03160050
v 0.02567826 0.02754244 0.03159930
v 0.02572120 0.02754244 0.03283081
v 0.03359176 0.02916950 0.03715404
v 0.03343950 0.03026505 0.03668913
v 0.03438037 0.03031969 0.03521494
v 0.03188959 0.03047388 0.03172275
v 0.03054660 0.03033791 0.03769361
v 0.03420339 0.02746438 0.03743225
v 0.02590990 0.02754244 0.03413338
v 0.02663085 0.02754244 0.03560396
v 0.02739343 0.02821577 0.03679633
v 0.03215247 0.02387457 0.03724075
v 0.03360607 0.02396239 0.03763399
v 0.02977751 0.02939264 0.03773215
v 0.03168658 0.02786642 0.03775142
v 0.02858157 0.02858464 0.03160050
v 0.02955498 0.02754244 0.03159930
v 0.03473434 0.02786642 0.03169144
v 0.02910991 0.02387392 0.03163724
v 0.03159809 0.02520887 0.03159930
v 0.03225397 0.02387457 0.03160050
v 0.02916717 0.02387392 0.03321261
v 0.03670458 0.02404372 0.03741780
v 0.03674492 0.02578787 0.03671984
v 0.03503105 0.02850137 0.03653557
v 0.03423332 0.02962294 0.03650787
v 0.03592247 0.02801215 0.03583701
v 0.03515467 0.02943753 0.03511678
v 0.03594459 0.02871606 0.03435619
v 0.03490872 0.02993716 0.03338423
v 0.03377004 0.03024748 0.03216477
v 0.03282786 0.02740387 0.03770686
v 0.03397305 0.02633955 0.03767555
v 0.02932594 0.02387392 0.03429959
v 0.02978922 0.02387392 0.03547629
v 0.03058174 0.02387392 0.03638562
v 0.03763504 0.02396825 0.03178177
v 0.03815298 0.02398126 0.03649462
v 0.03320786 0.02633955 0.03773275
v 0.03534597 0.02465850 0.03760810
v 0.03397305 0.02557709 0.03771830
v 0.03059735 0.02641111 0.03159930
v 0.03592898 0.02669801 0.03180646
v 0.03732663 0.02492328 0.03671442
v 0.03670718 0.02680796 0.03596649
v 0.03735395 0.02664597 0.03492949
v 0.03657835 0.02775192 0.03484036
v 0.03668636 0.02779746 0.03397560
v 0.03793826 0.02565841 0.03276276
v 0.03607863 0.02814356 0.03278564
v 0.03529132 0.02892033 0.03243817
v 0.03763374 0.02505014 0.03197989
v 0.03833907 0.02474697 0.03247972
v 0.03894290 0.02406388 0.03296691
v 0.03897153 0.02409121 0.03504030
v 0.03781203 0.02539623 0.03575210
v 0.03780292 0.02620489 0.03382143
f 1 2 3
f 1 3 4
f 1 4 2
f 2 5 6
f 2 6 3
f 2 4 7
f 2 7 8
f 2 8 9
f 2 9 5
f 3 10 11
f 3 11 12
f 3 12 13
f 3 13 4
f 3 6 14
f 3 14 15
f 3 15 10
f 4 13 7
f 5 9 16
f 5 16 17
f 5 17 18
f 5 18 19
f 5 19 20
f 5 20 21
f 5 21 6
f 6 21 22
f 6 22 14
f 7 23 24
f 7 24 8
f 7 13 25
f 7 25 23
f 8 26 9
f 8 24 49
f 8 49 27
f 8 27 28
f 8 28 26
f 9 26 29
f 9 29 16
f 10 15 30
f 10 30 31
f 10 31 32
f 10 32 33
f 10 33 11
f 11 33 12
f 12 33 34
f 12 34 35
f 12 35 36
f 12 36 37
f 12 37 38
f 12 38 13
f 13 38 25
f 14 22 39
f 14 39 40
f 14 40 15
f 15 40 30
f 16 29 41
f 16 41 42
f 16 42 17
f 17 42 43
f 17 43 18
f 18 43 19
f 19 43 28
f 19 28 44
f 19 44 45
f 19 45 20
f 20 46 22
f 20 22 21
f 20 45 30
f 20 30 47
f 20 47 48
f 20 48 46
f 22 46 39
f 23 25 24
f 24 25 49
f 25 38 50
f 25 50 44
f 25 44 28
f 25 28 27
f 25 27 49
f 26 28 43
f 26 43 42
f 26 42 41
f 26 41 29
f 30 45 51
f 30 51 31
f 30 40 47
f 31 51 45
f 31 45 52
f 31 52 32
f 32 52 33
f 33 52 34
f 34 52 53
f 34 53 54
f 34 54 35
f 35 54 36
f 36 54 55
f 36 55 37
f 37 55 56
f 37 56 57
f 37 57 58
f 37 58 38
f 38 58 59
f 38 59 50
f 39 46 48
f 39 48 40
f 40 48 47
f 44 50 59
f 44 59 60
f 44 60 61
f 44 61 45
f 45 61 62
f 45 62 63
f 45 63 52
f 52 63 53
f 53 55 54
f 53 63 62
f 53 62 64
f 53 64 55
f 55 64 56
f 56 64 61
f 56 61 60
f 56 60 58
f 56 58 57
f 58 60 59
f 61 64 62

