# https://github.com/mikedh/trimesh
v -0.00001623 0.03760252 0.03185138
v -0.00019989 0.04046858 0.03184872
v -0.00138756 0.04046197 0.03185138
v -0.01555078 0.03744322 0.03185138
v -0.01565179 0.03418783 0.03173166
v -0.01565179 0.03416668 0.03096279
v -0.00001623 0.03756881 0.03051849
v -0.00001623 0.03718411 0.00467491
v -0.00019989 0.04026896 0.01737854
v -0.00114574 0.04043091 0.02709982
v -0.00114574 0.04044281 0.02862691
v -0.00038202 0.04029739 0.01870345
v -0.00114574 0.04040711 0.02519228
v -0.00275735 0.04038133 0.03185138
v -0.00190946 0.04042959 0.02824647
v -0.01458810 0.03781933 0.03185138
v -0.01450545 0.03740951 0.00685381
v -0.01565179 0.03690187 0.00467491
v -0.01565179 0.03410323 0.02786337
v -0.00001623 0.03753840 0.02919093
v -0.00001623 0.03724823 0.01049331
v -0.01565179 0.03371588 0.00467491
v -0.00019989 0.04005943 0.00467491
v -0.00152837 0.04003233 0.00467491
v -0.00190946 0.04041438 0.02709982
v -0.00386084 0.04029342 0.03185138
v -0.00267318 0.04036415 0.02786337
v -0.00856100 0.03961590 0.03185138
v -0.01151180 0.03887625 0.03183009
v -0.01353052 0.03821658 0.03180881
v -0.01349838 0.03771687 0.00470949
v -0.01446260 0.03739365 0.00573110
v -0.01462636 0.03730441 0.00482123
v -0.01237653 0.03808967 0.00467491
v -0.01565179 0.03383023 0.01336127
v -0.00001623 0.03736522 0.01870345
v -0.01565179 0.03376215 0.00879860
v -0.00298234 0.03989947 0.00467491
v -0.00496280 0.04019692 0.03185138
v -0.00419908 0.03985386 0.00839953
v -0.00496280 0.03975670 0.00725554
v -0.00649024 0.03998936 0.03176624
v -0.00759985 0.03980561 0.03176624
v -0.00755699 0.03980363 0.03053712
v -0.00756312 0.03932903 0.00467491
v -0.00912422 0.03899457 0.00467491
v -0.00983284 0.03891525 0.00916308
v -0.00954052 0.03935283 0.02977357
v -0.01030577 0.03918362 0.03053712
v -0.01034556 0.03918957 0.03176624
v -0.01096541 0.03901771 0.03091756
v -0.01106948 0.03853055 0.00725554
v -0.01213471 0.03821196 0.00696023
v -0.01259539 0.03852196 0.03091756
v -0.01259539 0.03853717 0.03176624
v -0.01106948 0.03847834 0.00467491
v -0.00422051 0.03976992 0.00467491
v -0.00534236 0.03969985 0.00648401
v -0.00572652 0.04008918 0.03091756
v -0.00572652 0.04010372 0.03176624
v -0.00649024 0.03997350 0.03053712
v -0.00649024 0.03952204 0.00482123
v -0.00560255 0.03962053 0.00467491
v -0.01030577 0.03870241 0.00467491
f 1 2 3
f 1 3 14
f 1 14 26
f 1 26 39
f 1 39 28
f 1 28 16
f 1 16 4
f 1 4 5
f 1 5 6
f 1 6 7
f 1 7 20
f 1 20 36
f 1 36 21
f 1 21 8
f 1 8 9
f 1 9 2
f 2 10 11
f 2 11 3
f 2 9 12
f 2 12 13
f 2 13 10
f 3 11 15
f 3 15 14
f 4 16 17
f 4 17 18
f 4 18 5
f 5 18 22
f 5 22 37
f 5 37 35
f 5 35 19
f 5 19 6
f 6 19 20
f 6 20 7
f 8 21 22
f 8 22 18
f 8 18 34
f 8 34 56
f 8 56 64
f 8 64 46
f 8 46 45
f 8 45 63
f 8 63 57
f 8 57 38
f 8 38 24
f 8 24 23
f 8 23 9
f 9 23 12
f 10 15 11
f 10 13 15
f 12 23 13
f 13 23 24
f 13 24 25
f 13 25 15
f 14 15 26
f 15 25 27
f 15 27 26
f 16 28 29
f 16 29 30
f 16 30 17
f 17 31 32
f 17 32 33
f 17 33 18
f 17 30 31
f 18 33 31
f 18 31 34
f 19 35 20
f 20 35 36
f 21 36 37
f 21 37 22
f 24 38 27
f 24 27 25
f 26 27 39
f 27 38 40
f 27 40 41
f 27 41 39
f 28 39 42
f 28 42 43
f 28 43 44
f 28 44 45
f 28 45 46
f 28 46 47
f 28 47 48
f 28 48 49
f 28 49 50
f 28 50 29
f 29 50 51
f 29 51 52
f 29 52 53
f 29 53 54
f 29 54 55
f 29 55 30
f 30 55 54
f 30 54 31
f 31 33 32
f 31 54 34
f 34 54 53
f 34 53 56
f 35 37 36
f 38 57 58
f 38 58 41
f 38 41 40
f 39 41 58
f 39 58 59
f 39 59 60
f 39 60 42
f 42 60 61
f 42 61 44
f 42 44 43
f 44 61 62
f 44 62 45
f 45 62 63
f 46 64 47
f 47 64 51
f 47 51 49
f 47 49 48
f 49 51 50
f 51 64 52
f 52 64 56
f 52 56 53
f 57 63 58
f 58 63 62
f 58 62 59
f 59 61 60
f 59 62 61

