# https://github.com/mikedh/trimesh
v -0.03492707 -0.00896422 -0.03435649
v -0.03420403 -0.00911021 -0.03719985
v -0.03476488 -0.00925495 -0.03629825
v -0.03486551 -0.00925495 -0.03550081
v -0.03475999 -0.00954569 -0.03321115
v -0.03490851 -0.00896422 -0.03321115
v -0.03222738 -0.00896422 -0.03661896
v -0.03307354 -0.00925495 -0.03752826
v -0.03370767 -0.00983768 -0.03748003
v -0.03387280 -0.01107175 -0.03696226
v -0.03436036 -0.01060632 -0.03636239
v -0.03455969 -0.01030809 -0.03550081
v -0.03482057 -0.00925995 -0.03246913
v -0.03442094 -0.01064250 -0.03246913
v -0.03185023 -0.00896422 -0.03246913
v -0.03193035 -0.00896422 -0.03550081
v -0.02516892 -0.02171170 -0.03602371
v -0.02588610 -0.02171170 -0.03725219
v -0.02786763 -0.02023057 -0.03771145
v -0.03168315 -0.01412510 -0.03759805
v -0.03235441 -0.01336270 -0.03754673
v -0.03290451 -0.01244682 -0.03745437
v -0.03291818 -0.01326038 -0.03715161
v -0.03379365 -0.01196392 -0.03657073
v -0.03362169 -0.01293595 -0.03586361
v -0.03417765 -0.01152220 -0.03550081
v -0.03402815 -0.01183540 -0.03246913
v -0.02494615 -0.02171170 -0.03246913
v -0.03189909 -0.00896422 -0.03434161
v -0.02503506 -0.02171170 -0.03473828
v -0.02740352 -0.02171170 -0.03757239
v -0.03003285 -0.01821787 -0.03750927
v -0.03054485 -0.01757276 -0.03741485
v -0.03188443 -0.01536915 -0.03726142
v -0.03223911 -0.01460426 -0.03726501
v -0.03281071 -0.01454561 -0.03650710
v -0.03318298 -0.01412510 -0.03550081
v -0.03366956 -0.01279994 -0.03246913
v -0.02906163 -0.02125625 -0.03246913
v -0.02846365 -0.02171170 -0.03659433
v -0.02970358 -0.01926976 -0.03732813
v -0.03041489 -0.01808186 -0.03728965
v -0.03144767 -0.01633120 -0.03718804
v -0.03141836 -0.01733693 -0.03654558
v -0.03215899 -0.01606168 -0.03638394
v -0.03267196 -0.01529304 -0.03550081
v -0.03281755 -0.01488626 -0.03246913
v -0.03313998 -0.01414132 -0.03246913
v -0.02978565 -0.02023556 -0.03246913
v -0.02979933 -0.02026426 -0.03550081
v -0.02908215 -0.02126499 -0.03550081
v -0.02911341 -0.02094430 -0.03652403
v -0.03063669 -0.01848116 -0.03678112
v -0.03047840 -0.01899026 -0.03646348
v -0.03128743 -0.01791590 -0.03550081
v -0.03207887 -0.01643976 -0.03550081
v -0.03207007 -0.01641605 -0.03246913
v -0.03245212 -0.01564991 -0.03246913
v -0.03063571 -0.01901147 -0.03555777
v -0.03061031 -0.01899774 -0.03246913
v -0.02973386 -0.02017442 -0.03637316
v -0.03126691 -0.01788845 -0.03246913
v -0.03165286 -0.01719094 -0.03246913
f 1 2 3
f 1 3 4
f 1 4 5
f 1 5 6
f 1 6 15
f 1 15 29
f 1 29 16
f 1 16 7
f 1 7 2
f 2 7 8
f 2 8 9
f 2 9 10
f 2 10 3
f 3 11 12
f 3 12 4
f 3 10 11
f 4 12 5
f 5 13 6
f 5 12 14
f 5 14 13
f 6 13 15
f 7 16 17
f 7 17 18
f 7 18 8
f 8 18 19
f 8 19 20
f 8 20 9
f 9 20 21
f 9 21 22
f 9 22 10
f 10 22 23
f 10 23 24
f 10 24 11
f 11 24 25
f 11 25 26
f 11 26 12
f 12 26 14
f 13 14 27
f 13 27 38
f 13 38 48
f 13 48 47
f 13 47 58
f 13 58 57
f 13 57 63
f 13 63 62
f 13 62 60
f 13 60 49
f 13 49 39
f 13 39 28
f 13 28 15
f 14 26 27
f 15 28 29
f 16 29 28
f 16 28 30
f 16 30 17
f 17 30 28
f 17 28 40
f 17 40 31
f 17 31 18
f 18 31 19
f 19 31 32
f 19 32 20
f 20 32 21
f 21 32 33
f 21 33 34
f 21 34 35
f 21 35 22
f 22 35 23
f 23 35 36
f 23 36 24
f 24 36 25
f 25 36 37
f 25 37 26
f 26 37 38
f 26 38 27
f 28 39 40
f 31 40 41
f 31 41 32
f 32 41 33
f 33 41 42
f 33 42 34
f 34 42 43
f 34 43 44
f 34 44 45
f 34 45 36
f 34 36 35
f 36 45 46
f 36 46 37
f 37 46 47
f 37 47 48
f 37 48 38
f 39 49 50
f 39 50 51
f 39 51 40
f 40 51 52
f 40 52 41
f 41 52 53
f 41 53 42
f 42 53 43
f 43 53 44
f 44 53 54
f 44 54 55
f 44 55 45
f 45 55 56
f 45 56 46
f 46 56 57
f 46 57 58
f 46 58 47
f 49 59 50
f 49 60 59
f 50 59 61
f 50 61 51
f 51 61 52
f 52 61 53
f 53 61 54
f 54 61 59
f 54 59 55
f 55 59 60
f 55 60 62
f 55 62 63
f 55 63 57
f 55 57 56

