# https://github.com/mikedh/trimesh
v -0.03801892 0.01399484 0.03177528
v -0.03462547 0.01447346 0.03142508
v -0.03738640 0.01447346 0.00467489
v -0.03803104 0.01267793 0.00467489
v -0.03864114 0.01206620 0.03177528
v -0.03754877 -0.00014854 0.03177528
v -0.03469636 -0.01445901 0.03175140
v -0.03459942 0.01447346 0.02994737
v -0.03424439 0.01447346 0.00473856
v -0.03436617 -0.01445901 0.00467224
v -0.03721433 -0.00014854 0.00467224
v -0.03974260 -0.00538221 0.00467224
v -0.03901799 0.00915199 0.00467489
v -0.03860358 0.01082575 0.00525855
v -0.03909857 0.01030465 0.02939024
v -0.03935546 0.00939272 0.03177528
v -0.04043026 0.00152805 0.03177528
v -0.03899436 -0.01062721 0.03175140
v -0.03852421 -0.01221318 0.03173549
v -0.03776870 -0.01437405 0.03116509
v -0.03456489 -0.01445901 0.02328038
v -0.03441948 0.01447346 0.01878089
v -0.03427589 0.01447346 0.00796196
v -0.03447038 -0.01445901 0.01565566
v -0.03749182 -0.01416447 0.00521876
v -0.03822310 -0.01198378 0.00467224
v -0.03999404 -0.00589199 0.03173549
v -0.04002736 -0.00343091 0.00763829
v -0.03995950 -0.00368014 0.00522937
v -0.04010249 -0.00175149 0.00521876
v -0.04010734 0.00048868 0.00467489
v -0.03993951 0.00267221 0.00467489
v -0.03976199 0.00451305 0.00467489
v -0.03949359 -0.00686905 0.00474652
v -0.03989831 -0.00648672 0.03053633
v -0.03938999 0.00733097 0.00471203
v -0.03954146 0.00725167 0.01259940
v -0.03940393 0.00915766 0.03015165
v -0.03972867 0.00754337 0.02997124
v -0.03989104 0.00670508 0.03177528
v -0.04033877 0.00307436 0.03177528
v -0.04037452 0.00247963 0.02862617
v -0.04031212 0.00021680 0.01701930
v -0.04043329 -0.00052237 0.03175936
v -0.04037028 -0.00228676 0.03175140
v -0.03967354 -0.00771867 0.03175140
v -0.03930578 -0.00934712 0.03131631
v -0.03913977 -0.00862494 0.00495611
v -0.03859146 -0.01079431 0.00478366
v -0.03876292 -0.01141170 0.03043817
v -0.03450915 -0.01445901 0.01946536
v -0.04009340 -0.00305142 0.01069189
v -0.04027516 -0.00133518 0.01527362
v -0.04022487 0.00114289 0.01259940
v -0.04018186 0.00190755 0.01222002
v -0.03998859 0.00458102 0.01489159
v -0.03977290 0.00599140 0.01374550
v -0.03982864 0.00608486 0.01794520
v -0.04018852 0.00458102 0.02862617
v -0.04019579 0.00460368 0.03177528
v -0.04021215 0.00228988 0.01527362
v -0.03951420 -0.00839554 0.03034532
v -0.04006674 0.00458102 0.01965638
v -0.03985409 0.00572518 0.01603769
f 1 2 3
f 1 3 4
f 1 4 5
f 1 5 16
f 1 16 40
f 1 40 60
f 1 60 41
f 1 41 17
f 1 17 6
f 1 6 7
f 1 7 2
f 2 8 22
f 2 22 23
f 2 23 9
f 2 9 3
f 2 7 8
f 3 9 10
f 3 10 11
f 3 11 12
f 3 12 4
f 4 12 13
f 4 13 14
f 4 14 5
f 5 14 15
f 5 15 16
f 6 17 7
f 7 18 19
f 7 19 20
f 7 20 10
f 7 10 24
f 7 24 51
f 7 51 21
f 7 21 22
f 7 22 8
f 7 17 18
f 9 23 24
f 9 24 10
f 10 20 25
f 10 25 26
f 10 26 12
f 10 12 11
f 12 27 28
f 12 28 29
f 12 29 30
f 12 30 31
f 12 31 32
f 12 32 33
f 12 33 13
f 12 26 34
f 12 34 35
f 12 35 27
f 13 36 37
f 13 37 38
f 13 38 14
f 13 33 36
f 14 38 15
f 15 38 16
f 16 38 39
f 16 39 40
f 17 41 42
f 17 42 43
f 17 43 44
f 17 44 45
f 17 45 46
f 17 46 18
f 18 46 47
f 18 47 48
f 18 48 49
f 18 49 50
f 18 50 19
f 19 25 20
f 19 50 26
f 19 26 25
f 21 51 22
f 22 51 23
f 23 51 24
f 26 50 49
f 26 49 34
f 27 45 28
f 27 35 46
f 27 46 45
f 28 45 52
f 28 52 53
f 28 53 30
f 28 30 29
f 30 53 31
f 31 53 43
f 31 43 54
f 31 54 55
f 31 55 32
f 32 55 56
f 32 56 33
f 33 56 36
f 34 49 48
f 34 48 46
f 34 46 35
f 36 56 57
f 36 57 37
f 37 57 58
f 37 58 39
f 37 39 38
f 39 58 40
f 40 58 59
f 40 59 60
f 41 60 59
f 41 59 42
f 42 59 61
f 42 61 54
f 42 54 43
f 43 53 44
f 44 53 45
f 45 53 52
f 46 48 62
f 46 62 47
f 47 62 48
f 54 61 55
f 55 61 56
f 56 61 63
f 56 63 64
f 56 64 57
f 57 64 58
f 58 64 63
f 58 63 59
f 59 63 61

