# https://github.com/mikedh/trimesh
v 0.00008772 -0.02614526 -0.03003858
v 0.00014477 -0.03445521 -0.03239478
v 0.00068103 -0.03921140 -0.02923660
v 0.00008772 -0.02213198 -0.02890522
v 0.00008772 -0.01403648 -0.03208343
v 0.00481134 -0.03556575 -0.03239478
v 0.00008772 -0.00247915 -0.03237116
v 0.00081414 0.03586148 -0.03237796
v 0.03282600 -0.00008956 -0.03239478
v 0.00648477 -0.03828467 -0.02985177
v 0.01167619 -0.03710519 -0.02977984
v 0.02178520 -0.03262472 -0.02929279
v 0.03200831 -0.02266044 -0.02929350
v 0.03784628 -0.00070994 -0.02919008
v 0.00008772 0.03635930 -0.02873917
v 0.00912422 -0.03471561 -0.03239478
v 0.00280704 0.03903228 -0.02937939
v 0.00576976 0.03860337 -0.02977734
v 0.00380729 0.03564703 -0.03237796
v 0.00714273 0.03514919 -0.03237796
v 0.01180930 0.03383186 -0.03237796
v 0.03574689 -0.00092439 -0.03239478
v 0.01356640 -0.03322212 -0.03239478
v 0.01671929 -0.03520578 -0.02976839
v 0.02476694 -0.03007429 -0.02990760
v 0.02718580 -0.02783788 -0.02982637
v 0.02928519 -0.02568572 -0.02977233
v 0.03038052 -0.01890756 -0.03239478
v 0.03366272 -0.01991854 -0.02939192
v 0.03893401 0.00382415 -0.02940838
v 0.03840916 0.00762298 -0.02942377
v 0.03206536 0.02222091 -0.02937510
v 0.03879329 -0.00486874 -0.02960771
v 0.02353469 0.03115123 -0.02942985
v 0.01484049 0.03608359 -0.02967034
v 0.00917746 0.03782982 -0.02989651
v 0.01199186 0.03702564 -0.02998347
v 0.01602710 0.03204733 -0.03237796
v 0.01886051 0.03046193 -0.03237796
v 0.02215031 0.02809532 -0.03237796
v 0.02568733 0.02490154 -0.03237796
v 0.02807196 0.02219028 -0.03237796
v 0.03038052 0.01892757 -0.03237796
v 0.03216424 0.01569550 -0.03237796
v 0.03371596 0.01207282 -0.03237796
v 0.03491398 0.00777616 -0.03237796
v 0.03561758 0.00324207 -0.03237796
v 0.03546165 -0.00473088 -0.03239478
v 0.01673070 -0.03175160 -0.03239478
v 0.01935874 -0.03019683 -0.03239478
v 0.02226441 -0.02811361 -0.03239478
v 0.02456537 -0.02607633 -0.03239478
v 0.02698423 -0.02351825 -0.03239478
v 0.03227834 -0.01553763 -0.03239478
v 0.03587240 -0.01515469 -0.02983424
v 0.03713127 -0.01192262 -0.02974263
v 0.03748498 0.01052572 -0.02992836
v 0.03523346 0.01633119 -0.02994088
v 0.02981765 0.02484027 -0.02996844
v 0.02679407 0.02830211 -0.02966282
v 0.03813153 -0.00831526 -0.02976231
v 0.01965159 0.03362507 -0.02969646
v 0.03458691 -0.00919604 -0.03239478
v 0.03363229 -0.01226727 -0.03239478
f 1 2 3
f 1 3 4
f 1 4 15
f 1 15 7
f 1 7 5
f 1 5 2
f 2 6 3
f 2 5 7
f 2 7 8
f 2 8 9
f 2 9 22
f 2 22 48
f 2 48 63
f 2 63 64
f 2 64 54
f 2 54 28
f 2 28 53
f 2 53 52
f 2 52 51
f 2 51 50
f 2 50 49
f 2 49 23
f 2 23 16
f 2 16 6
f 3 6 10
f 3 10 11
f 3 11 12
f 3 12 4
f 4 12 13
f 4 13 14
f 4 14 15
f 6 16 10
f 7 15 8
f 8 15 17
f 8 17 18
f 8 18 19
f 8 19 9
f 9 19 20
f 9 20 21
f 9 21 22
f 10 16 11
f 11 16 23
f 11 23 24
f 11 24 12
f 12 24 25
f 12 25 26
f 12 26 13
f 13 26 27
f 13 27 28
f 13 28 29
f 13 29 14
f 14 30 31
f 14 31 32
f 14 32 15
f 14 29 33
f 14 33 30
f 15 32 34
f 15 34 35
f 15 35 17
f 17 36 18
f 17 35 36
f 18 36 20
f 18 20 19
f 20 36 37
f 20 37 21
f 21 38 22
f 21 37 38
f 22 38 39
f 22 39 40
f 22 40 41
f 22 41 42
f 22 42 43
f 22 43 44
f 22 44 45
f 22 45 46
f 22 46 47
f 22 47 30
f 22 30 33
f 22 33 48
f 23 49 24
f 24 49 50
f 24 50 25
f 25 50 51
f 25 51 52
f 25 52 26
f 26 52 53
f 26 53 27
f 27 53 28
f 28 54 55
f 28 55 29
f 29 55 56
f 29 56 33
f 30 47 57
f 30 57 31
f 31 57 58
f 31 58 32
f 32 58 59
f 32 59 60
f 32 60 34
f 33 56 61
f 33 61 48
f 34 60 40
f 34 40 62
f 34 62 35
f 35 62 38
f 35 38 37
f 35 37 36
f 38 62 39
f 39 62 40
f 40 60 41
f 41 59 42
f 41 60 59
f 42 59 43
f 43 58 44
f 43 59 58
f 44 58 45
f 45 58 57
f 45 57 46
f 46 57 47
f 48 61 63
f 54 64 55
f 55 64 56
f 56 64 63
f 56 63 61

