# https://github.com/mikedh/trimesh
v -0.02598950 0.02812363 0.03177587
v -0.02728257 0.02812363 0.03684600
v -0.02604700 0.02797827 0.03574454
v -0.02598950 0.02736655 0.03430263
v -0.02598950 0.02714109 0.03177587
v -0.02945779 0.02780027 0.03177587
v -0.03655707 0.02779256 0.03301137
v -0.03610127 0.02812363 0.03569769
v -0.02876778 0.02812363 0.03746523
v -0.03268767 0.02206225 0.03702453
v -0.03145631 0.02206343 0.03612949
v -0.03089672 0.02206225 0.03529791
v -0.02598950 0.02717729 0.03303985
v -0.03055312 0.02206225 0.03428425
v -0.03040165 0.02206225 0.03207778
v -0.03387275 0.02222422 0.03177587
v -0.03065830 0.02649852 0.03177587
v -0.03778843 0.02328627 0.03184586
v -0.03702689 0.02481289 0.03187671
v -0.03575626 0.02729832 0.03199711
v -0.03685860 0.02630510 0.03217921
v -0.03734806 0.02663736 0.03293249
v -0.03748269 0.02682010 0.03344081
v -0.03664963 0.02790470 0.03444024
v -0.03748129 0.02604938 0.03598002
v -0.03596242 0.02729713 0.03670602
v -0.03539302 0.02812363 0.03661289
v -0.03793289 0.02609210 0.03473977
v -0.03042690 0.02812363 0.03777247
v -0.03420233 0.02206225 0.03759216
v -0.03043391 0.02206225 0.03321186
v -0.03842796 0.02206581 0.03727365
v -0.03987390 0.02229601 0.03276700
v -0.03293170 0.02357403 0.03177587
v -0.03877296 0.02250546 0.03195263
v -0.03137496 0.02564236 0.03177587
v -0.03840131 0.02353487 0.03200067
v -0.03204815 0.02479153 0.03177587
v -0.03816429 0.02479746 0.03242773
v -0.03901419 0.02437324 0.03325397
v -0.03810539 0.02586129 0.03333997
v -0.03733684 0.02700641 0.03440880
v -0.03952468 0.02369032 0.03416680
v -0.03724708 0.02545309 0.03669712
v -0.03656969 0.02646174 0.03671729
v -0.03817411 0.02510659 0.03584301
v -0.03893284 0.02342926 0.03627006
v -0.03603535 0.02573907 0.03736558
v -0.03453892 0.02740690 0.03745396
v -0.03308737 0.02805896 0.03772561
v -0.03873650 0.02479153 0.03493076
v -0.03196400 0.02802692 0.03783416
v -0.03580535 0.02229246 0.03777959
v -0.03730739 0.02229246 0.03761055
v -0.03664262 0.02430026 0.03749489
v -0.03931151 0.02214472 0.03667458
v -0.04031567 0.02229246 0.03433525
v -0.03890619 0.02362743 0.03244908
v -0.03983323 0.02251851 0.03569353
v -0.03473667 0.02633951 0.03764258
v -0.03397373 0.02633951 0.03778315
v -0.03503680 0.02532018 0.03773273
v -0.03426965 0.02508819 0.03781696
v -0.03588108 0.02347732 0.03776002
f 1 2 3
f 1 3 4
f 1 4 13
f 1 13 5
f 1 5 16
f 1 16 34
f 1 34 38
f 1 38 36
f 1 36 17
f 1 17 6
f 1 6 7
f 1 7 8
f 1 8 27
f 1 27 29
f 1 29 9
f 1 9 2
f 2 9 10
f 2 10 11
f 2 11 3
f 3 11 12
f 3 12 4
f 4 12 14
f 4 14 13
f 5 13 15
f 5 15 16
f 6 17 18
f 6 18 19
f 6 19 20
f 6 20 7
f 7 21 22
f 7 22 23
f 7 23 24
f 7 24 8
f 7 20 21
f 8 25 26
f 8 26 27
f 8 24 28
f 8 28 25
f 9 29 30
f 9 30 10
f 10 12 11
f 10 30 15
f 10 15 31
f 10 31 14
f 10 14 12
f 13 14 31
f 13 31 15
f 15 30 32
f 15 32 33
f 15 33 16
f 16 33 35
f 16 35 18
f 16 18 34
f 17 36 18
f 18 35 37
f 18 37 19
f 18 36 38
f 18 38 34
f 19 37 20
f 20 37 21
f 21 37 39
f 21 39 22
f 22 39 40
f 22 40 41
f 22 41 23
f 23 42 24
f 23 41 43
f 23 43 28
f 23 28 42
f 24 42 28
f 25 44 45
f 25 45 26
f 25 28 46
f 25 46 47
f 25 47 44
f 26 45 48
f 26 48 49
f 26 49 27
f 27 49 50
f 27 50 29
f 28 43 51
f 28 51 46
f 29 50 52
f 29 52 53
f 29 53 30
f 30 53 32
f 32 53 54
f 32 54 55
f 32 55 48
f 32 48 56
f 32 56 33
f 33 57 40
f 33 40 58
f 33 58 37
f 33 37 35
f 33 56 57
f 37 58 39
f 39 58 40
f 40 57 43
f 40 43 41
f 43 57 51
f 44 48 45
f 44 47 56
f 44 56 48
f 46 51 59
f 46 59 47
f 47 59 56
f 48 55 60
f 48 60 49
f 49 60 50
f 50 61 52
f 50 60 62
f 50 62 61
f 51 57 59
f 52 61 63
f 52 63 53
f 53 63 64
f 53 64 54
f 54 64 62
f 54 62 55
f 55 62 60
f 56 59 57
f 61 62 64
f 61 64 63

