# https://github.com/mikedh/trimesh
v 0.02910656 0.02387313 0.03159930
v 0.03288866 0.02347734 0.03159930
v 0.03062629 0.02193923 0.03159930
v 0.02916597 0.02387313 0.03321197
v 0.03544809 0.02387392 0.03248496
v 0.03633094 0.02387392 0.03185993
v 0.03747519 0.02372657 0.03168876
v 0.03376438 0.02221472 0.03159930
v 0.03855410 0.02175975 0.03164582
v 0.03090196 0.02193923 0.03473996
v 0.03063461 0.02201957 0.03350361
v 0.03940724 0.02005157 0.03167385
v 0.03844716 0.01987053 0.03196191
v 0.03576059 0.01987053 0.03428729
v 0.02932638 0.02387313 0.03429981
v 0.03168024 0.02387313 0.03705877
v 0.03924208 0.02387392 0.03442446
v 0.03922425 0.02387392 0.03334616
v 0.03883571 0.02354278 0.03229232
v 0.03880125 0.02263912 0.03184859
v 0.03931693 0.02099560 0.03169890
v 0.03125961 0.02199527 0.03557015
v 0.02982068 0.02381396 0.03545087
v 0.03601249 0.01996105 0.03758122
v 0.04029127 0.01988738 0.03186768
v 0.04124542 0.01990344 0.03506917
v 0.03063461 0.02374146 0.03634786
v 0.03221851 0.02209128 0.03665381
v 0.03345426 0.02200703 0.03725976
v 0.03286371 0.02387313 0.03747327
v 0.03915534 0.02356159 0.03555107
v 0.03984807 0.02279509 0.03484731
v 0.03985045 0.02286758 0.03397537
v 0.03711160 0.02357962 0.03736652
v 0.03971618 0.02293538 0.03312549
v 0.04042079 0.02075420 0.03229411
v 0.03959379 0.02166727 0.03200604
v 0.03061916 0.02300827 0.03576458
v 0.03903533 0.01996497 0.03736353
v 0.03740984 0.02005157 0.03764623
v 0.03626440 0.02099560 0.03768142
v 0.03550037 0.02099599 0.03762357
v 0.04104580 0.02008763 0.03277063
v 0.04050991 0.02070796 0.03593992
v 0.04026513 0.02000651 0.03658702
v 0.04124185 0.02018481 0.03397537
v 0.04079270 0.02099560 0.03473638
v 0.04037207 0.02140236 0.03552661
v 0.03397470 0.02357923 0.03765339
v 0.03508330 0.02357923 0.03769156
v 0.03629054 0.02357962 0.03757168
v 0.03908048 0.02288561 0.03623156
v 0.03976014 0.02229976 0.03579022
v 0.03802534 0.02342169 0.03687329
v 0.04044575 0.02172801 0.03435647
v 0.04083786 0.02099560 0.03397537
v 0.04060140 0.02133457 0.03316008
v 0.03789464 0.02128794 0.03750786
v 0.03876798 0.02073500 0.03734564
v 0.03849944 0.02172017 0.03720012
v 0.03882145 0.02225626 0.03681723
v 0.03702842 0.02137807 0.03764444
v 0.03550037 0.02175975 0.03767605
v 0.03957715 0.02120995 0.03667230
f 1 2 8
f 1 8 3
f 1 3 4
f 1 4 5
f 1 5 6
f 1 6 7
f 1 7 2
f 2 7 9
f 2 9 8
f 3 10 11
f 3 11 4
f 3 8 12
f 3 12 13
f 3 13 14
f 3 14 10
f 4 15 5
f 4 11 15
f 5 15 16
f 5 16 17
f 5 17 18
f 5 18 6
f 6 18 7
f 7 18 19
f 7 19 20
f 7 20 21
f 7 21 9
f 8 9 12
f 9 21 12
f 10 22 23
f 10 23 15
f 10 15 11
f 10 14 24
f 10 24 22
f 12 21 25
f 12 25 13
f 13 25 26
f 13 26 14
f 14 26 24
f 15 23 16
f 16 27 28
f 16 28 29
f 16 29 30
f 16 30 17
f 16 23 27
f 17 31 32
f 17 32 33
f 17 33 18
f 17 30 34
f 17 34 31
f 18 33 35
f 18 35 19
f 19 35 36
f 19 36 37
f 19 37 20
f 20 37 25
f 20 25 21
f 22 28 38
f 22 38 23
f 22 24 28
f 23 38 27
f 24 26 39
f 24 39 40
f 24 40 41
f 24 41 42
f 24 42 30
f 24 30 29
f 24 29 28
f 25 36 43
f 25 43 26
f 25 37 36
f 26 44 45
f 26 45 39
f 26 43 46
f 26 46 47
f 26 47 48
f 26 48 44
f 27 38 28
f 30 42 49
f 30 49 50
f 30 50 51
f 30 51 34
f 31 52 53
f 31 53 48
f 31 48 32
f 31 34 54
f 31 54 52
f 32 48 47
f 32 47 55
f 32 55 33
f 33 55 56
f 33 56 57
f 33 57 35
f 34 51 58
f 34 58 59
f 34 59 60
f 34 60 61
f 34 61 54
f 35 57 36
f 36 57 43
f 39 45 59
f 39 59 58
f 39 58 40
f 40 58 62
f 40 62 41
f 41 50 63
f 41 63 42
f 41 62 50
f 42 63 49
f 43 57 46
f 44 48 53
f 44 53 52
f 44 52 64
f 44 64 45
f 45 64 59
f 46 57 56
f 46 56 47
f 47 56 55
f 49 63 50
f 50 62 51
f 51 62 58
f 52 54 61
f 52 61 64
f 59 64 60
f 60 64 61

