# https://github.com/mikedh/trimesh
v 0.03661964 -0.01646251 0.00466959
v 0.03372362 -0.01646251 0.00466959
v 0.03061373 -0.02597615 0.00466959
v 0.03328699 -0.02250317 0.00460734
v 0.03525851 -0.01919274 0.00383411
v 0.03656618 -0.01648514 0.00182242
v 0.03618301 -0.01646251 -0.01634508
v 0.01386135 -0.03501658 0.00466959
v 0.03265654 -0.01646251 -0.02879858
v 0.01529599 -0.03721187 0.00457785
v 0.01916330 -0.03538692 0.00454836
v 0.02299051 -0.03303114 0.00432885
v 0.02793602 -0.02881131 0.00440092
v 0.02866449 -0.02790192 -0.00381950
v 0.02892958 -0.02739579 -0.01335375
v 0.02951102 -0.02668597 -0.01648269
v 0.03040433 -0.02579921 -0.01183679
v 0.03141125 -0.02493096 0.00114093
v 0.03282808 -0.02291261 -0.00320354
v 0.03315555 -0.02215958 -0.01164676
v 0.03360778 -0.02140655 -0.01411715
v 0.03436743 -0.02063707 -0.00114925
v 0.03531866 -0.01896231 0.00037754
v 0.03579093 -0.01760645 -0.01069334
v 0.03516272 -0.01840474 -0.02099426
v 0.03555480 -0.01718878 -0.02693105
v 0.01386580 -0.03423063 -0.02880186
v 0.01388585 -0.03748140 -0.01034276
v 0.03075185 -0.02466144 -0.02817935
v 0.02225982 -0.03257027 -0.02847750
v 0.01587965 -0.03676129 -0.00687308
v 0.01684425 -0.03653292 0.00257271
v 0.01903186 -0.03508653 -0.01335048
v 0.02126180 -0.03402077 -0.00286608
v 0.02167838 -0.03385412 0.00228766
v 0.02285239 -0.03238098 -0.02490297
v 0.02453431 -0.03175552 -0.00229271
v 0.02544322 -0.03115886 0.00404052
v 0.02768206 -0.02872696 -0.01164676
v 0.02829469 -0.02777230 -0.02232774
v 0.02943973 -0.02642879 -0.02533218
v 0.03122858 -0.02431990 -0.02491936
v 0.03126200 -0.02476842 -0.01107667
v 0.03200605 -0.02358745 -0.01794068
v 0.03337609 -0.02139215 -0.02328444
v 0.03452782 -0.01970093 -0.01717401
v 0.03469935 -0.01912073 -0.02353017
v 0.03419367 -0.01983672 -0.02602677
v 0.03278798 -0.02197852 -0.02726852
v 0.01727866 -0.03552682 -0.02783533
v 0.01545193 -0.03647531 -0.02595797
v 0.01573040 -0.03646914 -0.02271108
v 0.02849741 -0.02727440 -0.02784188
v 0.02670187 -0.02907672 -0.02814003
v 0.02475485 -0.03084201 -0.02738974
v 0.02051552 -0.03384795 -0.02693433
v 0.01694004 -0.03594860 -0.02252105
v 0.01871330 -0.03501863 -0.02366451
v 0.02611153 -0.03014865 -0.01372726
v 0.02590881 -0.03047167 -0.00799360
v 0.02581302 -0.03012397 -0.02354328
v 0.02685558 -0.02929070 -0.01960835
v 0.02733009 -0.02866935 -0.02519130
v 0.03156497 -0.02402363 -0.02142346
f 1 2 8
f 1 8 3
f 1 3 4
f 1 4 5
f 1 5 6
f 1 6 7
f 1 7 9
f 1 9 2
f 2 9 8
f 3 8 10
f 3 10 11
f 3 11 12
f 3 12 13
f 3 13 14
f 3 14 15
f 3 15 16
f 3 16 17
f 3 17 18
f 3 18 4
f 4 18 19
f 4 19 20
f 4 20 21
f 4 21 22
f 4 22 5
f 5 23 6
f 5 22 23
f 6 23 24
f 6 24 7
f 7 25 26
f 7 26 9
f 7 24 25
f 8 9 27
f 8 27 28
f 8 28 10
f 9 26 29
f 9 29 30
f 9 30 27
f 10 28 31
f 10 31 32
f 10 32 11
f 11 32 33
f 11 33 34
f 11 34 35
f 11 35 12
f 12 35 34
f 12 34 36
f 12 36 37
f 12 37 38
f 12 38 13
f 13 38 39
f 13 39 14
f 14 39 15
f 15 39 40
f 15 40 16
f 16 40 41
f 16 41 42
f 16 42 17
f 17 43 18
f 17 42 43
f 18 43 44
f 18 44 19
f 19 44 20
f 20 44 45
f 20 45 21
f 21 45 46
f 21 46 22
f 22 46 25
f 22 25 23
f 23 25 24
f 25 46 47
f 25 47 26
f 26 48 49
f 26 49 29
f 26 47 48
f 27 30 50
f 27 50 51
f 27 51 28
f 28 51 52
f 28 52 31
f 29 49 42
f 29 42 41
f 29 41 53
f 29 53 54
f 29 54 30
f 30 54 55
f 30 55 36
f 30 36 56
f 30 56 50
f 31 52 57
f 31 57 32
f 32 57 33
f 33 57 58
f 33 58 34
f 34 58 56
f 34 56 36
f 36 55 37
f 37 59 60
f 37 60 38
f 37 55 61
f 37 61 59
f 38 60 39
f 39 59 62
f 39 62 63
f 39 63 40
f 39 60 59
f 40 63 41
f 41 63 53
f 42 49 45
f 42 45 44
f 42 44 64
f 42 64 43
f 43 64 44
f 45 47 46
f 45 49 48
f 45 48 47
f 50 56 58
f 50 58 57
f 50 57 51
f 51 57 52
f 53 63 54
f 54 63 61
f 54 61 55
f 59 61 62
f 61 63 62

