# https://github.com/mikedh/trimesh
v 0.02306640 -0.02339228 -0.03239566
v 0.02329923 -0.02339228 -0.03598677
v 0.02380649 -0.02339228 -0.03706722
v 0.02717638 -0.02335738 -0.03239566
v 0.03056083 -0.01189280 -0.03239566
v 0.03066790 -0.01189280 -0.03585224
v 0.02452994 -0.02335513 -0.03756576
v 0.02557563 -0.02333824 -0.03778523
v 0.02716183 -0.02335625 -0.03626427
v 0.03156286 -0.01228347 -0.03752039
v 0.02734893 -0.02316148 -0.03550089
v 0.02768675 -0.02275617 -0.03239566
v 0.03368542 -0.01219678 -0.03239566
v 0.03339542 -0.01189280 -0.03703556
v 0.03268651 -0.01201102 -0.03757262
v 0.03168344 -0.01336204 -0.03770082
v 0.02673462 -0.02326506 -0.03724500
v 0.02862850 -0.01870422 -0.03777678
v 0.02939249 -0.01794089 -0.03775779
v 0.02862850 -0.01946755 -0.03770293
v 0.02969497 -0.01881568 -0.03745445
v 0.02766908 -0.02272352 -0.03636292
v 0.02786866 -0.02252087 -0.03550089
v 0.02821791 -0.02208967 -0.03239566
v 0.03308254 -0.01371894 -0.03239566
v 0.03321871 -0.01336204 -0.03550089
v 0.03366047 -0.01219566 -0.03550089
v 0.03359603 -0.01222831 -0.03629223
v 0.03277590 -0.01406120 -0.03656392
v 0.03280916 -0.01311998 -0.03721810
v 0.03231335 -0.01336204 -0.03755099
v 0.03168344 -0.01412537 -0.03766863
v 0.03091944 -0.01488870 -0.03772456
v 0.02917213 -0.01993928 -0.03724395
v 0.02838215 -0.02155601 -0.03682507
v 0.03002759 -0.01794089 -0.03754519
v 0.02976254 -0.01941801 -0.03696962
v 0.03052653 -0.01753558 -0.03740169
v 0.02903700 -0.02084109 -0.03650325
v 0.02818673 -0.02205476 -0.03626427
v 0.02835096 -0.02189152 -0.03550089
v 0.02902037 -0.02100885 -0.03550089
v 0.02933220 -0.02055513 -0.03239566
v 0.03255970 -0.01494274 -0.03239566
v 0.03271354 -0.01454757 -0.03550089
v 0.03316154 -0.01336204 -0.03626427
v 0.03251708 -0.01488870 -0.03626427
v 0.03212625 -0.01558560 -0.03652013
v 0.03199839 -0.01476035 -0.03732889
v 0.03135497 -0.01709425 -0.03651961
v 0.03065854 -0.01836309 -0.03639880
v 0.03134146 -0.01616092 -0.03730304
v 0.02969497 -0.01997306 -0.03623472
v 0.02987064 -0.01977378 -0.03550089
v 0.02992989 -0.01967471 -0.03239566
v 0.03200567 -0.01614628 -0.03239566
v 0.03197449 -0.01610462 -0.03550089
v 0.03177076 -0.01641536 -0.03626427
v 0.03054420 -0.01871548 -0.03550089
v 0.03117827 -0.01761214 -0.03550089
v 0.03054316 -0.01871661 -0.03454758
v 0.03054940 -0.01869296 -0.03239566
v 0.03138928 -0.01728564 -0.03239566
v 0.03097661 -0.01799268 -0.03239566
f 1 2 3
f 1 3 4
f 1 4 12
f 1 12 24
f 1 24 43
f 1 43 55
f 1 55 62
f 1 62 64
f 1 64 63
f 1 63 56
f 1 56 44
f 1 44 25
f 1 25 13
f 1 13 5
f 1 5 6
f 1 6 2
f 2 6 3
f 3 7 8
f 3 8 9
f 3 9 4
f 3 6 10
f 3 10 7
f 4 9 11
f 4 11 12
f 5 13 14
f 5 14 6
f 6 14 15
f 6 15 10
f 7 10 16
f 7 16 8
f 8 17 9
f 8 16 18
f 8 18 19
f 8 19 20
f 8 20 21
f 8 21 17
f 9 17 22
f 9 22 23
f 9 23 11
f 10 15 16
f 11 23 12
f 12 23 24
f 13 25 26
f 13 26 27
f 13 27 14
f 14 27 28
f 14 28 29
f 14 29 30
f 14 30 15
f 15 30 31
f 15 31 32
f 15 32 16
f 16 32 33
f 16 33 18
f 17 21 34
f 17 34 35
f 17 35 22
f 18 33 19
f 19 33 32
f 19 32 36
f 19 36 20
f 20 36 21
f 21 37 34
f 21 36 38
f 21 38 37
f 22 35 39
f 22 39 40
f 22 40 23
f 23 40 41
f 23 41 24
f 24 41 42
f 24 42 43
f 25 44 45
f 25 45 26
f 26 46 28
f 26 28 27
f 26 45 47
f 26 47 46
f 28 46 29
f 29 46 47
f 29 47 48
f 29 48 30
f 30 48 49
f 30 49 31
f 31 49 38
f 31 38 36
f 31 36 32
f 34 37 35
f 35 37 39
f 37 38 50
f 37 50 51
f 37 51 39
f 38 49 52
f 38 52 50
f 39 51 53
f 39 53 40
f 40 53 42
f 40 42 41
f 42 53 54
f 42 54 43
f 43 54 55
f 44 56 45
f 45 56 57
f 45 57 47
f 47 57 58
f 47 58 48
f 48 58 50
f 48 50 52
f 48 52 49
f 50 58 51
f 51 59 53
f 51 58 60
f 51 60 59
f 53 59 54
f 54 59 61
f 54 61 55
f 55 61 62
f 56 63 60
f 56 60 57
f 57 60 58
f 59 60 63
f 59 63 64
f 59 64 61
f 61 64 62

