# https://github.com/mikedh/trimesh
v 0.00026805 -0.03802362 0.03163244
v -0.01481519 -0.03484013 0.03163244
v -0.00007005 -0.04062283 0.03163244
v 0.00026805 -0.04036133 0.01442436
v 0.00026805 -0.03793140 0.02671811
v -0.01481519 -0.03468056 0.02366446
v -0.01481519 -0.03772996 0.03163244
v -0.00117295 -0.04059067 0.03163244
v -0.00267300 -0.04039409 0.01984807
v -0.00229209 -0.04026911 0.00992703
v -0.00066949 -0.04031219 0.01088245
v -0.00038306 -0.04033828 0.01260062
v -0.00013059 -0.04020540 0.00466959
v 0.00026805 -0.03761711 0.00466959
v 0.00026805 -0.03775120 0.01412612
v -0.01481519 -0.03461868 0.01939147
v -0.01479157 -0.03747453 0.01383316
v -0.01412274 -0.03769659 0.01107247
v -0.01381122 -0.03811645 0.03163244
v -0.01481519 -0.03442513 0.00485434
v -0.00303030 -0.04048207 0.03163244
v -0.00343632 -0.04032493 0.01946801
v -0.00267300 -0.04023756 0.00878158
v -0.00160111 -0.04019691 0.00466959
v -0.01443870 -0.03746482 0.00466959
v -0.01481519 -0.03448459 0.00954433
v -0.01475023 -0.03746543 0.01221792
v -0.01412274 -0.03767900 0.00992703
v -0.01291059 -0.03807216 0.00706341
v -0.01259611 -0.03855268 0.03163244
v -0.00577794 -0.04014716 0.03163244
v -0.00421292 -0.04036982 0.03127613
v -0.00419964 -0.04035891 0.03015444
v -0.00496295 -0.04025515 0.03053450
v -0.00610866 -0.04008466 0.03015444
v -0.00635966 -0.03974186 0.00878158
v -0.00381872 -0.04018053 0.01336337
v -0.00343632 -0.04019873 0.01107247
v -0.00343632 -0.04015626 0.00840153
v -0.00312775 -0.04012046 0.00466959
v -0.01311286 -0.03795930 0.00466959
v -0.01213399 -0.03834822 0.00821150
v -0.01153013 -0.03887607 0.03163244
v -0.01106948 -0.03868919 0.00840153
v -0.00992377 -0.03932504 0.03163244
v -0.00687198 -0.03998213 0.03127613
v -0.00674353 -0.03967755 0.00878158
v -0.00662689 -0.03966056 0.00649069
v -0.00635818 -0.03967573 0.00474349
v -0.00742564 -0.03987474 0.02977175
v -0.00725438 -0.03950221 0.00466959
v -0.01084506 -0.03867767 0.00466959
v -0.01145040 -0.03854783 0.00725344
v -0.01039327 -0.03886151 0.00725344
v -0.00847096 -0.03966178 0.03015444
v -0.00831150 -0.03970850 0.03109667
v -0.00986471 -0.03895858 0.00470654
v -0.00697090 -0.03961748 0.00763614
v -0.00725438 -0.03954407 0.00649069
v -0.00801622 -0.03943001 0.00840153
v -0.00801622 -0.03940756 0.00725344
v -0.00877953 -0.03919096 0.00466959
v -0.00877953 -0.03926073 0.00801883
v -0.00877953 -0.03924010 0.00687339
f 1 2 7
f 1 7 19
f 1 19 30
f 1 30 43
f 1 43 45
f 1 45 31
f 1 31 21
f 1 21 8
f 1 8 3
f 1 3 4
f 1 4 14
f 1 14 15
f 1 15 5
f 1 5 6
f 1 6 2
f 2 6 16
f 2 16 26
f 2 26 20
f 2 20 7
f 3 8 9
f 3 9 10
f 3 10 11
f 3 11 12
f 3 12 4
f 4 12 13
f 4 13 14
f 5 15 16
f 5 16 6
f 7 17 18
f 7 18 19
f 7 20 17
f 8 21 9
f 9 21 22
f 9 22 23
f 9 23 10
f 10 23 24
f 10 24 11
f 11 24 13
f 11 13 12
f 13 24 40
f 13 40 51
f 13 51 62
f 13 62 52
f 13 52 41
f 13 41 25
f 13 25 14
f 14 25 20
f 14 20 26
f 14 26 16
f 14 16 15
f 17 27 28
f 17 28 18
f 17 20 27
f 18 28 29
f 18 29 19
f 19 29 30
f 20 25 27
f 21 31 32
f 21 32 22
f 22 32 33
f 22 33 34
f 22 34 35
f 22 35 36
f 22 36 37
f 22 37 38
f 22 38 23
f 23 38 39
f 23 39 40
f 23 40 24
f 25 41 28
f 25 28 27
f 28 41 29
f 29 41 42
f 29 42 30
f 30 42 44
f 30 44 43
f 31 45 46
f 31 46 35
f 31 35 34
f 31 34 32
f 32 34 33
f 35 46 36
f 36 47 48
f 36 48 49
f 36 49 39
f 36 39 37
f 36 46 50
f 36 50 47
f 37 39 38
f 39 49 40
f 40 49 51
f 41 52 53
f 41 53 42
f 42 53 44
f 43 44 45
f 44 53 52
f 44 52 54
f 44 54 45
f 45 55 56
f 45 56 46
f 45 54 57
f 45 57 55
f 46 56 50
f 47 58 48
f 47 50 58
f 48 59 49
f 48 58 59
f 49 59 51
f 50 56 55
f 50 55 60
f 50 60 58
f 51 59 61
f 51 61 62
f 52 62 57
f 52 57 54
f 55 57 63
f 55 63 60
f 57 62 64
f 57 64 63
f 58 60 59
f 59 60 61
f 60 63 64
f 60 64 61
f 61 64 62

