# https://github.com/mikedh/trimesh
v -0.02981377 -0.02768344 0.03748404
v -0.02981377 -0.02597745 0.03703360
v -0.02981377 -0.02727795 0.03175491
v -0.02970700 -0.03281238 0.03184382
v -0.02949207 -0.03506817 0.03348366
v -0.02960162 -0.02996845 0.03764773
v -0.01565067 -0.03893314 0.03759945
v -0.01564790 -0.03734587 0.03736275
v -0.02976940 -0.02461850 0.03633056
v -0.02925912 -0.02433721 0.03175491
v -0.02583829 -0.02741128 0.03163302
v -0.02516022 -0.03165252 0.03163302
v -0.02862681 -0.03397224 0.03183440
v -0.02862681 -0.03451838 0.03198572
v -0.02935064 -0.03425718 0.03219004
v -0.02823301 -0.03551932 0.03256158
v -0.02678259 -0.03686549 0.03290309
v -0.02544032 -0.03809658 0.03456589
v -0.02898595 -0.03554124 0.03470191
v -0.02908163 -0.03453299 0.03648895
v -0.02913432 -0.03277037 0.03737511
v -0.02691016 -0.03302061 0.03763949
v -0.02538347 -0.03435398 0.03762771
v -0.02136777 -0.03740797 0.03756648
v -0.01723421 -0.03957060 0.03752997
v -0.01565067 -0.04046561 0.03748993
v -0.01564790 -0.03444349 0.03163891
v -0.01564790 -0.03585723 0.03657551
v -0.02907192 -0.02433721 0.03505932
v -0.01564790 -0.03475400 0.03507639
v -0.02877102 -0.02433721 0.03359494
v -0.02346991 -0.02947345 0.03163302
v -0.02380548 -0.03270644 0.03163302
v -0.02748284 -0.03435216 0.03180084
v -0.01781521 -0.04084736 0.03189917
v -0.02744540 -0.03526908 0.03193214
v -0.02377081 -0.03824270 0.03228307
v -0.02187944 -0.03928201 0.03210878
v -0.02020438 -0.04042177 0.03231546
v -0.02319397 -0.03952128 0.03375039
v -0.02174216 -0.04038889 0.03434803
v -0.02382212 -0.03903725 0.03524126
v -0.02615583 -0.03742258 0.03559985
v -0.02429773 -0.03763811 0.03676628
v -0.02663838 -0.03583531 0.03685166
v -0.02348100 -0.03669196 0.03746697
v -0.01962754 -0.03923452 0.03737864
v -0.01655060 -0.04149578 0.03691525
v -0.01577408 -0.04279811 0.03589661
v -0.01644937 -0.04205653 0.03236021
v -0.01603338 -0.03721070 0.03163361
v -0.01564790 -0.03449280 0.03357669
v -0.01770012 -0.03643625 0.03163361
v -0.02119167 -0.03447454 0.03163420
v -0.01999500 -0.03520333 0.03163479
v -0.01958456 -0.04138071 0.03336825
v -0.02108074 -0.04044552 0.03578120
v -0.01826864 -0.04208758 0.03364558
v -0.01962199 -0.04133687 0.03535255
v -0.01946253 -0.04061539 0.03663439
v -0.02197096 -0.03876692 0.03698885
v -0.01802043 -0.04208941 0.03530309
v -0.01617759 -0.04299538 0.03438631
f 1 2 3
f 1 3 4
f 1 4 5
f 1 5 6
f 1 6 7
f 1 7 8
f 1 8 2
f 2 9 3
f 2 8 9
f 3 9 10
f 3 10 11
f 3 11 12
f 3 12 4
f 4 12 13
f 4 13 14
f 4 14 15
f 4 15 5
f 5 16 17
f 5 17 18
f 5 18 19
f 5 19 20
f 5 20 6
f 5 15 16
f 6 20 21
f 6 21 22
f 6 22 7
f 7 22 23
f 7 23 24
f 7 24 25
f 7 25 26
f 7 26 8
f 8 26 27
f 8 27 52
f 8 52 30
f 8 30 28
f 8 28 9
f 9 29 10
f 9 28 30
f 9 30 29
f 10 29 31
f 10 31 27
f 10 27 11
f 11 27 32
f 11 32 33
f 11 33 12
f 12 33 34
f 12 34 13
f 13 34 35
f 13 35 36
f 13 36 14
f 14 36 16
f 14 16 15
f 16 36 37
f 16 37 17
f 17 37 38
f 17 38 39
f 17 39 40
f 17 40 18
f 18 40 41
f 18 41 42
f 18 42 43
f 18 43 19
f 19 43 20
f 20 43 44
f 20 44 45
f 20 45 21
f 21 45 46
f 21 46 23
f 21 23 22
f 23 46 24
f 24 46 47
f 24 47 25
f 25 47 26
f 26 47 48
f 26 48 49
f 26 49 27
f 27 49 50
f 27 50 51
f 27 51 32
f 27 31 52
f 29 30 52
f 29 52 31
f 32 51 33
f 33 51 53
f 33 53 54
f 33 54 34
f 34 54 55
f 34 55 53
f 34 53 35
f 35 50 39
f 35 39 38
f 35 38 36
f 35 53 51
f 35 51 50
f 36 38 37
f 39 50 56
f 39 56 40
f 40 56 41
f 41 57 42
f 41 56 58
f 41 58 59
f 41 59 57
f 42 57 43
f 43 57 44
f 44 57 60
f 44 60 61
f 44 61 46
f 44 46 45
f 46 61 47
f 47 61 60
f 47 60 48
f 48 60 49
f 49 60 57
f 49 57 59
f 49 59 62
f 49 62 63
f 49 63 50
f 50 63 58
f 50 58 56
f 53 55 54
f 58 63 62
f 58 62 59

