# https://github.com/mikedh/trimesh
v -0.01564715 -0.03738214 0.03163244
v -0.01564715 -0.04023747 0.03207065
v -0.01564715 -0.03444342 0.03163244
v -0.01542818 -0.03748029 0.03163244
v -0.01564715 -0.04023747 0.03754002
v -0.01488635 -0.03770154 0.03163244
v -0.01412407 -0.03799769 0.03163244
v -0.01370406 -0.03815824 0.03163244
v -0.01332217 -0.03830177 0.03163244
v -0.01288871 -0.03845041 0.03163244
v -0.01259650 -0.03855196 0.03163361
v -0.01185813 -0.03878059 0.03163361
v -0.01140300 -0.03891674 0.03163361
v -0.01030740 -0.03922480 0.03163361
v -0.00954436 -0.03942563 0.03163361
v -0.00878133 -0.03960774 0.03163361
v -0.00838972 -0.03969681 0.03163361
v -0.00801231 -0.03978191 0.03163361
v -0.01537063 -0.04023747 0.03213099
v -0.00801231 -0.04023917 0.03380648
v -0.01288871 -0.04023917 0.03291015
v -0.01564715 -0.03447575 0.03315034
v -0.00801231 -0.03708997 0.03321186
v -0.00801231 -0.03706104 0.03163361
v -0.01288871 -0.03559735 0.03163244
v -0.01488262 -0.04023747 0.03757048
v -0.01564715 -0.04008089 0.03756931
v -0.01288871 -0.04023917 0.03759392
v -0.00801231 -0.03982446 0.03738419
v -0.00801530 -0.04022215 0.03746093
v -0.01030740 -0.04023917 0.03755232
v -0.01564715 -0.03451263 0.03400215
v -0.00801231 -0.03712912 0.03397520
v -0.01336028 -0.04015918 0.03760622
v -0.01412407 -0.04015918 0.03759684
v -0.01488635 -0.04008089 0.03759099
v -0.01564715 -0.03931727 0.03761735
v -0.01259650 -0.04023917 0.03759333
v -0.00801231 -0.03931841 0.03720434
v -0.01564715 -0.03708600 0.03729280
v -0.01541248 -0.03748312 0.03739356
v -0.00902122 -0.03965994 0.03742168
v -0.00954436 -0.04015974 0.03752537
v -0.01564715 -0.03775373 0.03747206
v -0.01107043 -0.04008146 0.03756287
v -0.01183272 -0.04008146 0.03758044
v -0.01107043 -0.04023917 0.03756931
v -0.01564715 -0.03462723 0.03473386
v -0.00801231 -0.03723861 0.03473152
v -0.01288871 -0.04008089 0.03760153
v -0.01564715 -0.03872442 0.03759099
v -0.01183272 -0.04023917 0.03758161
v -0.00801231 -0.03793301 0.03617971
v -0.00801530 -0.03864273 0.03684639
v -0.01564715 -0.03622424 0.03687099
v -0.01564715 -0.03855423 0.03758279
v -0.01259650 -0.04008146 0.03759626
v -0.01564715 -0.03549353 0.03628164
v -0.01564565 -0.03492110 0.03552240
v -0.00801231 -0.03736285 0.03521835
v -0.00801530 -0.03826092 0.03656050
v -0.00801231 -0.03755120 0.03560149
v -0.01538782 -0.03517356 0.03579071
v -0.01538483 -0.03594341 0.03660209
f 1 2 5
f 1 5 27
f 1 27 37
f 1 37 51
f 1 51 56
f 1 56 44
f 1 44 40
f 1 40 55
f 1 55 58
f 1 58 48
f 1 48 32
f 1 32 22
f 1 22 3
f 1 3 25
f 1 25 10
f 1 10 9
f 1 9 8
f 1 8 7
f 1 7 6
f 1 6 4
f 1 4 2
f 2 4 6
f 2 6 7
f 2 7 8
f 2 8 9
f 2 9 10
f 2 10 11
f 2 11 12
f 2 12 13
f 2 13 14
f 2 14 15
f 2 15 16
f 2 16 17
f 2 17 18
f 2 18 19
f 2 19 20
f 2 20 21
f 2 21 28
f 2 28 5
f 3 22 23
f 3 23 24
f 3 24 25
f 5 26 27
f 5 28 26
f 10 25 24
f 10 24 18
f 10 18 17
f 10 17 16
f 10 16 15
f 10 15 14
f 10 14 13
f 10 13 12
f 10 12 11
f 18 24 23
f 18 23 33
f 18 33 49
f 18 49 60
f 18 60 62
f 18 62 53
f 18 53 39
f 18 39 29
f 18 29 20
f 18 20 19
f 20 29 30
f 20 30 31
f 20 31 47
f 20 47 52
f 20 52 38
f 20 38 28
f 20 28 21
f 22 32 23
f 23 32 33
f 26 34 35
f 26 35 36
f 26 36 27
f 26 28 34
f 27 36 37
f 28 38 34
f 29 39 40
f 29 40 41
f 29 41 42
f 29 42 30
f 30 43 31
f 30 42 44
f 30 44 43
f 31 43 45
f 31 45 46
f 31 46 47
f 32 48 49
f 32 49 33
f 34 37 35
f 34 38 50
f 34 50 37
f 35 37 36
f 37 50 51
f 38 52 50
f 39 53 54
f 39 54 55
f 39 55 40
f 40 44 41
f 41 44 42
f 43 44 56
f 43 56 45
f 45 56 46
f 46 57 47
f 46 56 57
f 47 50 52
f 47 57 50
f 48 58 59
f 48 59 60
f 48 60 49
f 50 57 51
f 51 57 56
f 53 61 54
f 53 62 63
f 53 63 58
f 53 58 61
f 54 61 64
f 54 64 55
f 55 64 58
f 58 64 61
f 58 63 59
f 59 63 62
f 59 62 60

