# https://github.com/mikedh/trimesh
v 0.00606681 0.03667721 0.00466632
v 0.00542825 0.03958570 0.00393052
v 0.00402340 0.03975718 0.00454859
v 0.00182529 0.03995213 0.00460745
v -0.00604436 0.03956986 0.00466959
v 0.00008048 0.03718508 0.00466959
v -0.01223216 0.03813255 0.00466959
v -0.01230951 0.03504002 0.00413327
v 0.00606681 0.03617043 -0.01073307
v 0.00606681 0.03585097 -0.02873881
v 0.00568367 0.03909749 -0.02766945
v 0.00457922 0.03938256 -0.02404280
v 0.00523578 0.03925532 -0.02560268
v 0.00286139 0.03957478 -0.02356534
v 0.00266892 0.03982434 -0.00229267
v -0.00064983 0.04005807 0.00454859
v 0.00075142 0.03971240 -0.02309117
v -0.00755894 0.03932904 0.00466959
v -0.00381748 0.03981178 0.00454859
v -0.00517196 0.03964523 0.00181470
v -0.00495970 0.03941368 -0.02175365
v -0.00534284 0.03934105 -0.02347051
v -0.00610732 0.03920562 -0.02519064
v -0.00912387 0.03899483 0.00466959
v -0.01087768 0.03852792 0.00405152
v -0.01207747 0.03813418 0.00037581
v -0.01147128 0.03797254 -0.02568117
v -0.01145509 0.03786824 -0.02764002
v -0.01230951 0.03447973 -0.02837255
v 0.00606681 0.03595418 -0.01746969
v -0.01230951 0.03451632 -0.02557325
v 0.00008407 0.03637139 -0.02873881
v 0.00299090 0.03935634 -0.02847719
v 0.00266892 0.03952235 -0.02633521
v 0.00305206 0.03952891 -0.02500097
v -0.00257812 0.03992919 0.00348904
v -0.00068760 0.03971130 -0.02290804
v -0.00114629 0.03980414 -0.01488296
v -0.00191077 0.03991937 -0.00267529
v 0.00095288 0.03964632 -0.02519064
v -0.00722796 0.03903579 -0.02404280
v -0.00907531 0.03865134 -0.02423574
v -0.00899256 0.03899865 0.00228561
v -0.00438949 0.03943498 -0.02461508
v -0.00610732 0.03915757 -0.02671782
v -0.01047476 0.03829255 -0.02442541
v -0.00977503 0.03833624 -0.02754519
v -0.00842775 0.03862567 -0.02811747
v -0.00008501 0.03949014 -0.02839870
v 0.00133602 0.03948795 -0.02827444
v 0.00133602 0.03957915 -0.02671782
v -0.00114809 0.03964468 -0.02480802
v -0.00229211 0.03961738 -0.02366018
v -0.00191077 0.03984237 -0.00878403
v -0.00305659 0.03954420 -0.02519064
v -0.00060666 0.03958133 -0.02675706
v -0.00822628 0.03876383 -0.02624364
v -0.00438949 0.03936617 -0.02652815
v -0.00471507 0.03924057 -0.02786239
v -0.00686821 0.03895223 -0.02798666
v -0.00159419 0.03949614 -0.02811747
v -0.00229211 0.03952891 -0.02671782
v -0.00308717 0.03939730 -0.02798993
f 1 2 3
f 1 3 4
f 1 4 5
f 1 5 6
f 1 6 7
f 1 7 8
f 1 8 9
f 1 9 30
f 1 30 10
f 1 10 11
f 1 11 2
f 2 12 3
f 2 11 13
f 2 13 12
f 3 12 14
f 3 14 15
f 3 15 4
f 4 16 5
f 4 15 17
f 4 17 16
f 5 18 24
f 5 24 7
f 5 7 6
f 5 16 19
f 5 19 20
f 5 20 21
f 5 21 22
f 5 22 23
f 5 23 18
f 7 24 25
f 7 25 26
f 7 26 27
f 7 27 28
f 7 28 29
f 7 29 8
f 8 30 9
f 8 29 31
f 8 31 30
f 10 29 32
f 10 32 33
f 10 33 11
f 10 30 29
f 11 33 34
f 11 34 13
f 12 13 35
f 12 35 14
f 13 34 35
f 14 17 15
f 14 35 34
f 14 34 17
f 16 36 19
f 16 17 37
f 16 37 38
f 16 38 39
f 16 39 36
f 17 34 40
f 17 40 37
f 18 23 41
f 18 41 42
f 18 42 43
f 18 43 24
f 19 36 20
f 20 36 21
f 21 36 44
f 21 44 22
f 22 44 23
f 23 44 45
f 23 45 41
f 24 43 42
f 24 42 46
f 24 46 25
f 25 46 26
f 26 46 27
f 27 46 47
f 27 47 28
f 28 47 48
f 28 48 29
f 29 48 32
f 29 30 31
f 32 48 49
f 32 49 33
f 33 49 50
f 33 50 34
f 34 50 51
f 34 51 40
f 36 39 44
f 37 40 52
f 37 52 53
f 37 53 38
f 38 53 54
f 38 54 39
f 39 54 55
f 39 55 44
f 40 51 56
f 40 56 52
f 41 45 57
f 41 57 42
f 42 57 47
f 42 47 46
f 44 55 58
f 44 58 45
f 45 59 60
f 45 60 57
f 45 58 59
f 47 57 48
f 48 60 49
f 48 57 60
f 49 60 61
f 49 61 56
f 49 56 51
f 49 51 50
f 52 56 61
f 52 61 62
f 52 62 55
f 52 55 53
f 53 55 54
f 55 62 58
f 58 62 63
f 58 63 59
f 59 63 60
f 60 63 61
f 61 63 62

