# https://github.com/mikedh/trimesh
v 0.02308901 0.02968294 0.03124607
v -0.00001623 0.03753672 0.02909724
v 0.02308901 0.02932027 0.01412973
v 0.02308901 0.03276452 0.01134422
v 0.02304152 0.03286514 0.01421993
v 0.02264798 0.03349096 0.03134422
v 0.02114850 0.03447725 0.03176072
v -0.00001623 0.03760085 0.03177399
v -0.00001623 0.03736533 0.01870063
v 0.02308901 0.02917763 0.00649211
v 0.02308901 0.03260309 0.00467224
v 0.02295331 0.03280322 0.00877358
v 0.02214815 0.03359932 0.01946201
v 0.02221827 0.03323776 0.00474652
v 0.02230195 0.03370105 0.03015308
v 0.02113945 0.03444961 0.02977107
v 0.01981637 0.03527225 0.03177399
v 0.00018505 0.04046572 0.03177399
v -0.00001623 0.04025674 0.01719645
v -0.00001623 0.03724813 0.01049264
v -0.00001623 0.03718400 0.00467224
v 0.02308901 0.02916989 0.00467224
v 0.02137692 0.03381715 0.00467224
v 0.02201698 0.03385916 0.02862503
v 0.02053558 0.03434235 0.00527710
v 0.01831688 0.03606614 0.03177399
v 0.01902931 0.03518490 0.00467224
v 0.00148099 0.04043918 0.03177399
v 0.00038408 0.04015501 0.01183765
v -0.00001623 0.04004997 0.00467224
v 0.01641482 0.03697502 0.03177399
v 0.01809298 0.03566809 0.00467224
v 0.01783741 0.03583173 0.00649211
v 0.01761350 0.03636578 0.02919805
v 0.00305738 0.04034409 0.03177399
v 0.00152849 0.04007430 0.01030960
v 0.00098569 0.04000353 0.00467224
v 0.01522065 0.03750244 0.03176072
v 0.01259485 0.03844671 0.03177399
v 0.01595570 0.03670413 0.00467224
v 0.01717474 0.03612032 0.00467224
v 0.00453877 0.04020367 0.03177399
v 0.00267516 0.03998474 0.00954557
v 0.00236757 0.03991618 0.00467224
v 0.01372569 0.03806745 0.03175011
v 0.01488819 0.03713535 0.00467224
v 0.01259485 0.03842238 0.03015308
v 0.01163364 0.03874967 0.03133892
v 0.01030830 0.03914330 0.03172624
v 0.00687282 0.03987085 0.03177399
v 0.00570580 0.04006435 0.03172624
v 0.00381956 0.03986200 0.00878419
v 0.00398919 0.03976249 0.00467224
v 0.01439288 0.03736755 0.00725614
v 0.01304945 0.03781535 0.00467224
v 0.01192540 0.03821341 0.00474652
v 0.01081039 0.03854512 0.00467224
v 0.00935387 0.03937328 0.03133361
v 0.00933126 0.03897855 0.00763815
v 0.00837909 0.03957673 0.03053510
v 0.00782724 0.03924060 0.00527710
v 0.00610837 0.03950818 0.00467224
v 0.00971348 0.03882707 0.00474652
v 0.00932673 0.03894096 0.00592174
f 1 2 3
f 1 3 10
f 1 10 22
f 1 22 11
f 1 11 4
f 1 4 5
f 1 5 6
f 1 6 7
f 1 7 8
f 1 8 2
f 2 9 10
f 2 10 3
f 2 8 19
f 2 19 30
f 2 30 21
f 2 21 20
f 2 20 9
f 4 11 12
f 4 12 5
f 5 13 6
f 5 12 14
f 5 14 13
f 6 13 15
f 6 15 7
f 7 15 16
f 7 16 17
f 7 17 8
f 8 17 26
f 8 26 31
f 8 31 39
f 8 39 50
f 8 50 42
f 8 42 35
f 8 35 28
f 8 28 18
f 8 18 19
f 9 20 10
f 10 20 21
f 10 21 22
f 11 22 21
f 11 21 30
f 11 30 37
f 11 37 44
f 11 44 53
f 11 53 62
f 11 62 57
f 11 57 55
f 11 55 46
f 11 46 40
f 11 40 41
f 11 41 32
f 11 32 27
f 11 27 23
f 11 23 14
f 11 14 12
f 13 24 15
f 13 14 23
f 13 23 24
f 15 24 16
f 16 24 23
f 16 23 25
f 16 25 17
f 17 25 27
f 17 27 26
f 18 28 19
f 19 28 29
f 19 29 30
f 23 27 25
f 26 27 32
f 26 32 33
f 26 33 34
f 26 34 31
f 28 35 36
f 28 36 29
f 29 36 37
f 29 37 30
f 31 38 39
f 31 34 40
f 31 40 38
f 32 41 33
f 33 41 34
f 34 41 40
f 35 42 43
f 35 43 36
f 36 43 44
f 36 44 37
f 38 45 39
f 38 40 46
f 38 46 45
f 39 45 47
f 39 47 48
f 39 48 49
f 39 49 50
f 42 50 51
f 42 51 52
f 42 52 43
f 43 52 44
f 44 52 53
f 45 46 54
f 45 54 55
f 45 55 56
f 45 56 47
f 46 55 54
f 47 56 48
f 48 56 57
f 48 57 49
f 49 58 50
f 49 57 59
f 49 59 58
f 50 58 60
f 50 60 61
f 50 61 51
f 51 61 62
f 51 62 52
f 52 62 53
f 55 57 56
f 57 62 63
f 57 63 59
f 58 59 60
f 59 63 64
f 59 64 61
f 59 61 60
f 61 64 63
f 61 63 62

