# https://github.com/mikedh/trimesh
v -0.03560665 0.00531279 -0.03245916
v -0.03535510 0.00687378 -0.03245916
v -0.03558897 0.00531279 -0.03590368
v -0.03279198 0.00486080 -0.03275687
v -0.02171687 0.02486480 -0.03245865
v -0.02894119 0.01593685 -0.03245865
v -0.03232151 0.01585764 -0.03245865
v -0.03511578 0.00801540 -0.03245916
v -0.03503964 0.00842545 -0.03550045
v -0.03515929 0.00530813 -0.03703383
v -0.03275255 0.00485847 -0.03588074
v -0.03527351 0.00699726 -0.03593732
v -0.03268592 0.00485847 -0.03424488
v -0.02171687 0.02493935 -0.03511914
v -0.02171687 0.02866011 -0.03245865
v -0.03297011 0.01448770 -0.03530979
v -0.03295787 0.01448304 -0.03245916
v -0.03380635 0.01235589 -0.03245916
v -0.03443999 0.01051998 -0.03245916
v -0.03482208 0.00915935 -0.03245916
v -0.03142952 0.01751183 -0.03245865
v -0.03152062 0.01731612 -0.03573035
v -0.03474185 0.00954611 -0.03550045
v -0.03438016 0.01065511 -0.03587003
v -0.03452022 0.00900791 -0.03675703
v -0.03362822 0.01082286 -0.03721327
v -0.03375876 0.00916634 -0.03748804
v -0.03410685 0.00676894 -0.03754208
v -0.03372885 0.00530114 -0.03742636
v -0.02172775 0.02599477 -0.03745236
v -0.02171687 0.02511409 -0.03626408
v -0.02188548 0.02847139 -0.03588991
v -0.02280603 0.02778875 -0.03549994
v -0.02459817 0.02631862 -0.03549994
v -0.02270133 0.02784699 -0.03245865
v -0.03226168 0.01584832 -0.03599849
v -0.03353848 0.01306183 -0.03584403
v -0.03401847 0.01183401 -0.03550045
v -0.03063543 0.01886313 -0.03245865
v -0.03028597 0.01928949 -0.03617182
v -0.03381043 0.01195982 -0.03651795
v -0.03305441 0.01336005 -0.03690639
v -0.03130306 0.01603937 -0.03741055
v -0.03389337 0.00801773 -0.03753035
v -0.02916555 0.01946656 -0.03747071
v -0.02290529 0.02595516 -0.03766595
v -0.02203369 0.02773516 -0.03717096
v -0.02338120 0.02708047 -0.03660563
v -0.02444860 0.02634658 -0.03245865
v -0.02517334 0.02550084 -0.03658269
v -0.02704027 0.02373017 -0.03584862
v -0.02658883 0.02427768 -0.03359340
v -0.02620675 0.02467841 -0.03359340
v -0.02571724 0.02513972 -0.03245865
v -0.03254451 0.01451099 -0.03681056
v -0.02963466 0.02040316 -0.03245865
v -0.02950412 0.02057090 -0.03549994
v -0.03024246 0.01815719 -0.03727597
v -0.02877938 0.02116967 -0.03677385
v -0.02688254 0.02268640 -0.03738303
v -0.02595927 0.02434058 -0.03695890
v -0.02886776 0.02144226 -0.03245865
v -0.02786427 0.02270970 -0.03245865
v -0.02672889 0.02405634 -0.03245865
f 1 2 3
f 1 3 4
f 1 4 5
f 1 5 6
f 1 6 7
f 1 7 2
f 2 8 9
f 2 9 3
f 2 7 8
f 3 10 11
f 3 11 4
f 3 9 12
f 3 12 10
f 4 11 13
f 4 13 5
f 5 13 14
f 5 14 31
f 5 31 15
f 5 15 35
f 5 35 49
f 5 49 54
f 5 54 64
f 5 64 63
f 5 63 62
f 5 62 56
f 5 56 39
f 5 39 21
f 5 21 7
f 5 7 6
f 7 16 17
f 7 17 18
f 7 18 19
f 7 19 20
f 7 20 8
f 7 21 22
f 7 22 16
f 8 20 9
f 9 20 23
f 9 23 24
f 9 24 12
f 10 12 25
f 10 25 26
f 10 26 27
f 10 27 28
f 10 28 29
f 10 29 11
f 11 29 30
f 11 30 31
f 11 31 14
f 11 14 13
f 12 24 25
f 15 31 30
f 15 30 32
f 15 32 33
f 15 33 34
f 15 34 35
f 16 22 36
f 16 36 37
f 16 37 18
f 16 18 17
f 18 37 38
f 18 38 19
f 19 38 23
f 19 23 20
f 21 39 22
f 22 39 40
f 22 40 36
f 23 38 24
f 24 38 37
f 24 37 41
f 24 41 25
f 25 41 26
f 26 41 42
f 26 42 43
f 26 43 27
f 27 44 28
f 27 43 45
f 27 45 44
f 28 44 46
f 28 46 29
f 29 46 30
f 30 46 47
f 30 47 32
f 32 47 48
f 32 48 34
f 32 34 33
f 34 49 35
f 34 48 50
f 34 50 51
f 34 51 52
f 34 52 53
f 34 53 54
f 34 54 49
f 36 55 42
f 36 42 41
f 36 41 37
f 36 40 55
f 39 56 57
f 39 57 40
f 40 58 55
f 40 57 59
f 40 59 58
f 42 55 43
f 43 55 58
f 43 58 45
f 44 45 46
f 45 58 59
f 45 59 60
f 45 60 46
f 46 60 47
f 47 60 61
f 47 61 50
f 47 50 48
f 50 61 59
f 50 59 51
f 51 59 57
f 51 57 62
f 51 62 63
f 51 63 52
f 52 63 64
f 52 64 54
f 52 54 53
f 56 62 57
f 59 61 60

