# https://github.com/mikedh/trimesh
v -0.01230951 0.03505049 0.00466959
v -0.01283500 0.03794184 0.00466959
v -0.02431927 0.03183468 0.00466959
v -0.02431927 0.02817840 0.00465988
v -0.02431927 0.02769685 -0.00955882
v -0.01230951 0.03502071 0.00343402
v -0.01230951 0.03808251 0.00221786
v -0.01445848 0.03736378 0.00466959
v -0.01257872 0.03764408 -0.02509072
v -0.01381778 0.03721695 -0.02481256
v -0.02055270 0.03442725 0.00466959
v -0.02319306 0.03268792 0.00454991
v -0.02291210 0.03283680 -0.00190931
v -0.02431927 0.03148969 -0.02137109
v -0.02431927 0.02763935 -0.01486658
v -0.01230951 0.03447756 -0.02837370
v -0.01230951 0.03451350 -0.02557589
v -0.01230951 0.03805889 0.00038069
v -0.01599261 0.03675388 0.00466959
v -0.01519204 0.03669947 -0.02385515
v -0.01255873 0.03758247 -0.02671765
v -0.01447494 0.03691611 -0.02614839
v -0.01527903 0.03663375 -0.02517805
v -0.01896096 0.03533080 0.00466959
v -0.01938299 0.03506897 0.00190736
v -0.02063382 0.03436770 0.00343402
v -0.02175532 0.03369106 0.00443347
v -0.02239366 0.03324648 0.00305236
v -0.02200572 0.03350727 0.00190736
v -0.02165069 0.03335223 -0.02213765
v -0.02210447 0.03300929 -0.02442766
v -0.02361509 0.03203080 -0.01984442
v -0.02326477 0.03219097 -0.02461849
v -0.02421699 0.03149894 -0.02457321
v -0.02418290 0.03130693 -0.02811818
v -0.02431927 0.02759315 -0.02837370
v -0.02307315 0.03211910 -0.02824432
v -0.01288320 0.03738020 -0.02811818
v -0.01754321 0.03604029 0.00466959
v -0.01570459 0.03650130 -0.02251932
v -0.01704476 0.03588935 -0.02290099
v -0.01530372 0.03647768 -0.02811818
v -0.01534957 0.03652902 -0.02690849
v -0.01701537 0.03586060 -0.02500015
v -0.01681905 0.03588832 -0.02670148
v -0.01914082 0.03515009 -0.00267265
v -0.02163424 0.03375369 0.00305236
v -0.01973802 0.03448372 -0.02385515
v -0.02108524 0.03364794 -0.02519422
v -0.02224554 0.03286350 -0.02576672
v -0.02373383 0.03175870 -0.02671765
v -0.02146143 0.03321875 -0.02820227
v -0.02235017 0.03271667 -0.02720929
v -0.01881049 0.03529897 -0.00381765
v -0.01794173 0.03546427 -0.02175599
v -0.01794173 0.03541602 -0.02481256
v -0.01674616 0.03582261 -0.02811818
v -0.01821564 0.03524763 -0.02595756
v -0.01831204 0.03508232 -0.02766535
v -0.01911026 0.03513263 -0.00496265
v -0.01973097 0.03443649 -0.02573761
v -0.01877522 0.03505665 -0.02061099
v -0.02102881 0.03361303 -0.02671765
v -0.01991553 0.03420752 -0.02761037
f 1 2 8
f 1 8 19
f 1 19 39
f 1 39 24
f 1 24 11
f 1 11 3
f 1 3 4
f 1 4 5
f 1 5 6
f 1 6 17
f 1 17 16
f 1 16 18
f 1 18 7
f 1 7 2
f 2 7 9
f 2 9 10
f 2 10 8
f 3 11 12
f 3 12 13
f 3 13 14
f 3 14 36
f 3 36 15
f 3 15 5
f 3 5 4
f 5 15 16
f 5 16 17
f 5 17 6
f 7 18 9
f 8 10 20
f 8 20 19
f 9 21 10
f 9 18 21
f 10 21 22
f 10 22 23
f 10 23 20
f 11 24 25
f 11 25 26
f 11 26 27
f 11 27 12
f 12 27 28
f 12 28 13
f 13 29 30
f 13 30 31
f 13 31 32
f 13 32 14
f 13 28 29
f 14 32 33
f 14 33 34
f 14 34 35
f 14 35 36
f 15 36 16
f 16 36 37
f 16 37 38
f 16 38 21
f 16 21 18
f 19 20 40
f 19 40 41
f 19 41 39
f 20 23 40
f 21 38 22
f 22 38 42
f 22 42 43
f 22 43 23
f 23 44 40
f 23 43 45
f 23 45 44
f 24 39 46
f 24 46 25
f 25 46 26
f 26 30 47
f 26 47 27
f 26 46 48
f 26 48 49
f 26 49 30
f 27 47 29
f 27 29 28
f 29 47 30
f 30 49 31
f 31 49 50
f 31 50 33
f 31 33 32
f 33 50 51
f 33 51 34
f 34 51 35
f 35 37 36
f 35 51 37
f 37 52 38
f 37 51 53
f 37 53 52
f 38 52 42
f 39 41 54
f 39 54 46
f 40 44 41
f 41 55 54
f 41 44 56
f 41 56 55
f 42 52 57
f 42 57 45
f 42 45 43
f 44 45 58
f 44 58 56
f 45 57 59
f 45 59 58
f 46 54 60
f 46 60 48
f 48 56 58
f 48 58 61
f 48 61 49
f 48 60 62
f 48 62 56
f 49 61 63
f 49 63 50
f 50 63 53
f 50 53 51
f 52 53 63
f 52 63 64
f 52 64 59
f 52 59 57
f 54 55 60
f 55 56 60
f 56 62 60
f 58 59 61
f 59 64 61
f 61 64 63

