# https://github.com/mikedh/trimesh
v 0.03789083 -0.01656908 0.03748662
v 0.03789083 -0.01565583 0.03387653
v 0.03803415 -0.02059231 0.03749886
v 0.04015775 -0.01442788 0.03756821
v 0.04123109 0.01021129 0.03756647
v 0.03823162 -0.02108287 0.03186574
v 0.04144528 0.01043652 0.03251968
v 0.03971742 -0.02063550 0.03691894
v 0.04016650 -0.01669866 0.03743591
v 0.03889410 -0.01858995 0.03750818
v 0.04084650 -0.01373986 0.03753150
v 0.04161010 -0.00843932 0.03759561
v 0.04297885 0.00379079 0.03749594
v 0.04237689 0.00804541 0.03745281
v 0.04458488 0.00587954 0.03655524
v 0.04487153 0.00937209 0.03494778
v 0.04433008 0.01018661 0.03272892
v 0.03994435 -0.02006472 0.03174626
v 0.04122313 -0.02045347 0.03334265
v 0.04313651 0.00877354 0.03169264
v 0.04111722 -0.02036708 0.03545135
v 0.04162762 -0.01738051 0.03659080
v 0.04187286 -0.01484748 0.03705823
v 0.04240874 -0.01058669 0.03735198
v 0.04237131 -0.00843932 0.03752042
v 0.04271290 -0.00667762 0.03751401
v 0.04306325 0.00010695 0.03749944
v 0.04430381 0.00247645 0.03711360
v 0.04406891 -0.00191084 0.03724649
v 0.04548225 -0.00024786 0.03603827
v 0.04534291 0.00388026 0.03578998
v 0.04557860 0.00567591 0.03376054
v 0.04461355 0.00794668 0.03235940
v 0.04128523 -0.01858069 0.03200562
v 0.04313412 -0.01049413 0.03165009
v 0.04179642 -0.01621427 0.03180979
v 0.04249155 -0.01768904 0.03343124
v 0.04208546 -0.01842334 0.03513021
v 0.04466769 0.00610476 0.03205283
v 0.04466132 0.00343290 0.03177657
v 0.04389772 -0.00629504 0.03164193
v 0.04441448 -0.01192879 0.03472455
v 0.04472343 -0.01025656 0.03510806
v 0.04288808 -0.01244095 0.03686590
v 0.04313252 -0.00401192 0.03746331
v 0.04446385 -0.00821410 0.03633435
v 0.04518366 -0.00608216 0.03599572
v 0.04540422 -0.00416310 0.03590771
v 0.04587321 -0.00200648 0.03512555
v 0.04592894 0.00271094 0.03371042
v 0.04602370 0.00044324 0.03393423
v 0.04525532 0.00387101 0.03223642
v 0.04296133 -0.01340665 0.03193859
v 0.04454427 -0.01115438 0.03302442
v 0.04408404 -0.00888978 0.03182669
v 0.04325913 -0.01571445 0.03428510
v 0.04385472 -0.01379231 0.03455553
v 0.04522427 0.00173598 0.03208780
v 0.04505944 -0.00076619 0.03188847
v 0.04468202 -0.00605748 0.03187973
v 0.04536600 -0.00738724 0.03326571
v 0.04574820 -0.00478633 0.03334556
v 0.04585092 -0.00200031 0.03289678
f 1 2 3
f 1 3 4
f 1 4 5
f 1 5 2
f 2 6 3
f 2 5 7
f 2 7 6
f 3 6 8
f 3 8 9
f 3 9 10
f 3 10 4
f 4 11 12
f 4 12 5
f 4 10 11
f 5 13 14
f 5 14 15
f 5 15 16
f 5 16 17
f 5 17 7
f 5 12 13
f 6 18 19
f 6 19 8
f 6 7 20
f 6 20 18
f 7 17 20
f 8 19 21
f 8 21 22
f 8 22 23
f 8 23 9
f 9 23 24
f 9 24 11
f 9 11 10
f 11 24 25
f 11 25 12
f 12 25 26
f 12 26 27
f 12 27 13
f 13 28 14
f 13 27 29
f 13 29 28
f 14 28 15
f 15 28 30
f 15 30 31
f 15 31 16
f 16 32 17
f 16 31 32
f 17 32 33
f 17 33 20
f 18 34 19
f 18 20 35
f 18 35 36
f 18 36 34
f 19 34 37
f 19 37 38
f 19 38 21
f 20 33 39
f 20 39 40
f 20 40 41
f 20 41 35
f 21 38 22
f 22 38 42
f 22 42 43
f 22 43 44
f 22 44 23
f 23 44 24
f 24 44 29
f 24 29 26
f 24 26 25
f 26 29 45
f 26 45 27
f 27 45 29
f 28 29 30
f 29 44 46
f 29 46 47
f 29 47 48
f 29 48 30
f 30 48 49
f 30 49 31
f 31 50 32
f 31 49 51
f 31 51 50
f 32 50 52
f 32 52 33
f 33 52 39
f 34 36 53
f 34 53 54
f 34 54 37
f 35 55 36
f 35 41 55
f 36 55 53
f 37 56 38
f 37 54 56
f 38 56 57
f 38 57 42
f 39 52 40
f 40 52 58
f 40 58 59
f 40 59 41
f 41 59 60
f 41 60 55
f 42 57 54
f 42 54 61
f 42 61 43
f 43 61 62
f 43 62 47
f 43 47 46
f 43 46 44
f 47 62 49
f 47 49 48
f 49 62 51
f 50 51 63
f 50 63 52
f 51 62 63
f 52 63 58
f 53 55 54
f 54 57 56
f 54 55 60
f 54 60 61
f 58 63 59
f 59 63 60
f 60 63 61
f 61 63 62

