# https://github.com/mikedh/trimesh
v 0.03631524 0.00876224 0.00466959
v 0.03906016 0.00876224 0.00466959
v 0.03629707 0.00876224 0.00647360
v 0.02916430 0.02313184 0.00466959
v 0.03889264 0.00939395 0.00466959
v 0.03942043 0.01560580 0.03273333
v 0.03946181 0.00876224 0.02938995
v 0.03629707 0.00876224 0.00723844
v 0.02916430 0.02320328 0.00954589
v 0.02916430 0.02744103 0.01107558
v 0.02926017 0.02717029 0.00466959
v 0.03859595 0.01045621 0.00466959
v 0.03678551 0.01986987 0.03361113
v 0.03678551 0.01986987 0.03763868
v 0.03936897 0.01560580 0.03761286
v 0.03942043 0.01260140 0.03756122
v 0.03947392 0.00876224 0.03159413
v 0.03947190 0.00876224 0.03091319
v 0.03946887 0.00876224 0.03015157
v 0.03842136 0.01107288 0.00466959
v 0.03824173 0.01166511 0.00466959
v 0.03798540 0.01243219 0.00466959
v 0.03766853 0.01336284 0.00466959
v 0.03739504 0.01409420 0.00466959
v 0.03658468 0.01606454 0.00466959
v 0.03636771 0.01657217 0.00466959
v 0.03609928 0.01718132 0.00466959
v 0.03582176 0.01776039 0.00466959
v 0.03501644 0.01925883 0.00466959
v 0.03440186 0.02030793 0.00466959
v 0.03393058 0.02109005 0.00466959
v 0.03367425 0.02150367 0.00466959
v 0.03630515 0.00876224 0.00802265
v 0.02916430 0.02347026 0.02013111
v 0.02916430 0.02796933 0.03159413
v 0.03520011 0.02193797 0.03397258
v 0.02987980 0.02653294 0.00466959
v 0.03337958 0.02195677 0.00466959
v 0.03296481 0.02256029 0.00466959
v 0.03198592 0.02393464 0.00466959
v 0.03134914 0.02479760 0.00466959
v 0.03067401 0.02566809 0.00466959
v 0.03496800 0.02184585 0.03761286
v 0.03939420 0.01399644 0.03759995
v 0.03936897 0.01488948 0.03761609
v 0.03936796 0.01183620 0.03752895
v 0.03672899 0.00876224 0.03159413
v 0.03924383 0.01045997 0.03741277
v 0.03652312 0.00876224 0.02172212
v 0.02916430 0.02377295 0.03091642
v 0.02916430 0.02380491 0.03159413
v 0.03127648 0.02193797 0.03553131
v 0.03200207 0.02193797 0.03642525
v 0.03253793 0.02193797 0.03680606
v 0.03321609 0.02193797 0.03713846
v 0.03392957 0.02193797 0.03740955
v 0.03856063 0.01043929 0.03716105
v 0.03791577 0.01043929 0.03680283
v 0.03754743 0.01043929 0.03650593
v 0.03721440 0.01043929 0.03613480
v 0.03673000 0.01046749 0.03539577
v 0.03653322 0.01043929 0.03486006
v 0.03090208 0.02193797 0.03473419
f 1 2 7
f 1 7 19
f 1 19 18
f 1 18 17
f 1 17 47
f 1 47 49
f 1 49 33
f 1 33 8
f 1 8 3
f 1 3 4
f 1 4 11
f 1 11 37
f 1 37 42
f 1 42 41
f 1 41 40
f 1 40 39
f 1 39 38
f 1 38 32
f 1 32 31
f 1 31 30
f 1 30 29
f 1 29 28
f 1 28 27
f 1 27 26
f 1 26 25
f 1 25 24
f 1 24 23
f 1 23 22
f 1 22 21
f 1 21 20
f 1 20 12
f 1 12 5
f 1 5 2
f 2 5 6
f 2 6 7
f 3 8 4
f 4 8 9
f 4 9 34
f 4 34 50
f 4 50 51
f 4 51 35
f 4 35 10
f 4 10 11
f 5 12 6
f 6 13 14
f 6 14 15
f 6 15 16
f 6 16 17
f 6 17 18
f 6 18 19
f 6 19 7
f 6 12 20
f 6 20 21
f 6 21 22
f 6 22 23
f 6 23 24
f 6 24 25
f 6 25 26
f 6 26 27
f 6 27 28
f 6 28 29
f 6 29 30
f 6 30 31
f 6 31 32
f 6 32 13
f 8 33 9
f 9 33 34
f 10 35 36
f 10 36 11
f 11 36 37
f 13 36 14
f 13 32 38
f 13 38 39
f 13 39 40
f 13 40 41
f 13 41 42
f 13 42 36
f 14 43 44
f 14 44 45
f 14 45 15
f 14 36 43
f 15 45 44
f 15 44 16
f 16 44 43
f 16 43 46
f 16 46 17
f 17 46 48
f 17 48 47
f 33 49 50
f 33 50 34
f 35 51 52
f 35 52 53
f 35 53 54
f 35 54 55
f 35 55 56
f 35 56 43
f 35 43 36
f 36 42 37
f 43 56 48
f 43 48 46
f 47 50 49
f 47 48 57
f 47 57 58
f 47 58 59
f 47 59 60
f 47 60 61
f 47 61 62
f 47 62 51
f 47 51 50
f 48 56 57
f 51 62 63
f 51 63 52
f 52 63 61
f 52 61 60
f 52 60 53
f 53 60 59
f 53 59 58
f 53 58 54
f 54 58 57
f 54 57 55
f 55 57 56
f 61 63 62

