# https://github.com/mikedh/trimesh
v -0.02008843 -0.00396417 0.00865496
v -0.02410519 -0.00254751 0.00776752
v -0.02353616 -0.00424751 0.00777669
v -0.01995139 -0.00566106 0.00847839
v -0.01999767 0.01474203 0.00842336
v -0.02041786 0.00341183 0.00850591
v -0.02617437 -0.00141418 0.00730201
v -0.02671617 -0.00381472 0.00678146
v -0.02000856 -0.00585410 -0.01406328
v -0.01995139 0.01850632 -0.01132755
v -0.01995139 0.02338836 0.00557068
v -0.02042149 -0.00649860 0.00742125
v -0.02035433 -0.00838542 -0.00202653
v -0.02018553 0.01977042 0.00766432
v -0.02080175 0.01629881 0.00795326
v -0.02790958 -0.00177846 0.00650399
v -0.02851491 -0.00335080 0.00534136
v -0.02709008 -0.00506948 0.00468552
v -0.02019098 -0.00657644 -0.01282269
v -0.02618708 -0.00362791 -0.01312538
v -0.02456984 -0.00283084 -0.01454714
v -0.02184905 -0.00391747 -0.01477187
v -0.02022093 -0.00434091 -0.01475352
v -0.02007481 0.00967318 -0.01394174
v -0.02006392 0.01201145 -0.01363676
v -0.02020822 0.01523709 -0.01274701
v -0.02189443 0.01247226 -0.01247413
v -0.02152687 0.01524020 -0.01091020
v -0.01998043 0.01961163 -0.01018098
v -0.01995139 0.02336345 0.00339677
v -0.02037521 0.02250723 0.00453188
v -0.02326844 0.01507519 0.00489649
v -0.02020005 0.02194368 0.00663928
v -0.02250974 -0.00841966 -0.00164128
v -0.02100141 -0.00840098 -0.00010946
v -0.02148331 -0.00841966 -0.00294838
v -0.02045870 -0.00699366 -0.01121748
v -0.02273299 0.01518416 0.00653380
v -0.02381296 0.01131402 0.00679293
v -0.02403712 0.00991603 0.00700848
v -0.02922279 -0.00181582 0.00434843
v -0.02427308 0.01151640 0.00597198
v -0.02852852 -0.00395795 0.00361233
v -0.02259686 -0.00647681 -0.01058457
v -0.02654646 -0.00429110 -0.01166694
v -0.02727794 -0.00311106 -0.01189855
v -0.02642848 -0.00218634 -0.01388900
v -0.02495283 -0.00141418 -0.01454484
v -0.02410519 0.00085560 -0.01441184
v -0.02158132 0.00967629 -0.01362070
v -0.02267672 0.00960156 -0.01303136
v -0.02730153 -0.00173176 -0.01290524
v -0.02263407 0.01221072 -0.01117391
v -0.02156499 0.01590028 -0.00942194
v -0.02038338 0.01918196 -0.00849092
v -0.02155591 0.01899203 0.00155537
v -0.02322578 0.01508452 0.00286247
v -0.02501726 0.01036127 0.00481623
v -0.02912931 -0.00081015 0.00322249
v -0.02902767 -0.00088799 0.00141319
v -0.02838332 -0.00184073 -0.00585609
v -0.02761645 -0.00119934 -0.01162337
v -0.02268943 0.01304826 -0.00909402
v -0.02220571 0.01548617 -0.00538600
f 1 2 3
f 1 3 4
f 1 4 5
f 1 5 6
f 1 6 2
f 2 7 3
f 2 6 7
f 3 7 8
f 3 8 4
f 4 9 10
f 4 10 30
f 4 30 11
f 4 11 5
f 4 8 12
f 4 12 13
f 4 13 9
f 5 11 14
f 5 14 15
f 5 15 7
f 5 7 6
f 7 16 8
f 7 15 16
f 8 16 17
f 8 17 18
f 8 18 12
f 9 13 19
f 9 19 20
f 9 20 21
f 9 21 22
f 9 22 23
f 9 23 24
f 9 24 25
f 9 25 10
f 10 25 26
f 10 26 27
f 10 27 28
f 10 28 29
f 10 29 30
f 11 30 31
f 11 31 32
f 11 32 33
f 11 33 14
f 12 18 34
f 12 34 35
f 12 35 13
f 13 35 36
f 13 36 37
f 13 37 19
f 14 33 38
f 14 38 39
f 14 39 40
f 14 40 15
f 15 40 16
f 16 41 17
f 16 40 39
f 16 39 42
f 16 42 41
f 17 41 43
f 17 43 18
f 18 43 34
f 19 37 44
f 19 44 45
f 19 45 20
f 20 46 47
f 20 47 21
f 20 45 46
f 21 47 48
f 21 48 22
f 22 48 24
f 22 24 23
f 24 49 25
f 24 48 49
f 25 49 50
f 25 50 26
f 26 50 51
f 26 51 27
f 27 51 52
f 27 52 53
f 27 53 28
f 28 54 29
f 28 53 54
f 29 55 30
f 29 54 55
f 30 55 56
f 30 56 57
f 30 57 31
f 31 57 32
f 32 58 42
f 32 42 33
f 32 57 58
f 33 42 38
f 34 36 35
f 34 43 45
f 34 45 44
f 34 44 37
f 34 37 36
f 38 42 39
f 41 42 58
f 41 58 59
f 41 59 60
f 41 60 61
f 41 61 43
f 43 61 46
f 43 46 45
f 46 61 62
f 46 62 52
f 46 52 47
f 47 52 51
f 47 51 48
f 48 51 50
f 48 50 49
f 52 62 53
f 53 62 54
f 54 62 63
f 54 63 64
f 54 64 55
f 55 64 56
f 56 64 57
f 57 64 60
f 57 60 59
f 57 59 58
f 60 62 61
f 60 64 63
f 60 63 62

