# https://github.com/mikedh/trimesh
v -0.01672091 -0.00555794 -0.01478361
v -0.01966548 -0.00620991 -0.01373597
v -0.01922713 -0.00473884 -0.01475640
v -0.01994660 0.00084924 -0.01445979
v -0.00299389 0.00640423 -0.01383937
v -0.00934996 -0.00776537 -0.01476456
v -0.00708198 -0.00878800 -0.01477000
v -0.00534287 -0.01011511 -0.01420945
v -0.01172277 -0.00941846 -0.01304480
v -0.01994660 -0.00708196 -0.01137131
v -0.01994660 0.00312783 0.00858820
v -0.01994183 0.00614775 0.00850657
v -0.01981795 0.00571420 -0.01412509
v -0.01524386 0.00640423 -0.01402441
v -0.01263282 0.00640423 -0.01399176
v 0.01414464 0.00640423 -0.01123797
v 0.00182319 0.00571420 -0.01365978
v -0.00076402 0.00583831 -0.01381760
v -0.00274613 -0.01042620 -0.01453598
v -0.00664363 -0.01050067 -0.00963522
v -0.01348094 -0.01029217 0.00683851
v -0.01994660 -0.00813107 -0.00113713
v -0.01989418 -0.00611559 0.00805214
v -0.01975124 -0.00425069 0.00872970
v -0.00878297 -0.00141776 0.01105355
v -0.01048396 0.00255032 0.01062089
v -0.01751185 0.00640423 0.00903991
v 0.01626015 0.00640423 -0.01078898
v 0.01913325 0.00538656 -0.01017401
v 0.00350989 0.00372023 -0.01345841
v 0.02086759 -0.00708692 -0.00961073
v 0.02054836 -0.01048908 -0.00928692
v -0.00763468 -0.01050067 -0.00415486
v 0.02244946 -0.01049736 -0.00509093
v 0.01502134 -0.01050067 0.01206309
v -0.01440052 -0.00945652 0.00850385
v -0.00902597 -0.01049901 0.01034878
v -0.01309023 -0.00878138 0.00999231
v -0.00654834 -0.00995791 0.01156512
v -0.00197902 0.00084924 0.01237874
v -0.00054961 0.00640423 0.01261276
v 0.02669955 0.00640423 -0.00827738
v 0.02295928 0.00368548 -0.00932501
v 0.02510815 0.00361267 -0.00878895
v 0.02236846 -0.00741787 -0.00876718
v 0.02236370 -0.01028389 -0.00693586
v 0.02097718 -0.01048246 0.00863990
v 0.02872930 0.00640423 -0.00599163
v 0.02837671 0.00640423 0.00216089
v 0.02779066 0.00640423 0.00763036
v 0.01989083 -0.01037491 0.01089572
v 0.01703203 -0.01028224 0.01205765
v 0.02353104 0.00566621 0.01295018
v 0.02012430 0.00640423 0.01301549
v 0.00312395 0.00481898 0.01270255
v 0.00878438 -0.00789278 0.01211207
v -0.00311301 -0.01049570 0.01176376
v -0.00325595 -0.00340015 0.01213384
v 0.02697113 0.00640423 0.01093110
v 0.02495091 0.00339094 0.01191343
v 0.02439821 0.00392542 0.01248214
v 0.02211117 -0.00056722 0.01247126
v 0.02520821 0.00581845 0.01251752
v 0.00241401 -0.00510123 0.01216105
f 1 2 3
f 1 3 4
f 1 4 5
f 1 5 6
f 1 6 7
f 1 7 2
f 2 7 8
f 2 8 9
f 2 9 10
f 2 10 4
f 2 4 3
f 4 10 22
f 4 22 11
f 4 11 12
f 4 12 13
f 4 13 14
f 4 14 15
f 4 15 5
f 5 7 6
f 5 15 14
f 5 14 27
f 5 27 41
f 5 41 54
f 5 54 59
f 5 59 50
f 5 50 49
f 5 49 48
f 5 48 42
f 5 42 28
f 5 28 16
f 5 16 17
f 5 17 18
f 5 18 7
f 7 18 17
f 7 17 19
f 7 19 8
f 8 19 9
f 9 19 20
f 9 20 21
f 9 21 22
f 9 22 10
f 11 22 23
f 11 23 24
f 11 24 25
f 11 25 26
f 11 26 27
f 11 27 12
f 12 27 14
f 12 14 13
f 16 28 29
f 16 29 30
f 16 30 17
f 17 30 19
f 19 30 31
f 19 31 32
f 19 32 20
f 20 33 21
f 20 32 34
f 20 34 35
f 20 35 33
f 21 36 22
f 21 33 37
f 21 37 36
f 22 36 23
f 23 36 38
f 23 38 24
f 24 38 39
f 24 39 25
f 25 39 40
f 25 40 41
f 25 41 26
f 26 41 27
f 28 42 29
f 29 31 30
f 29 42 43
f 29 43 31
f 31 43 44
f 31 44 45
f 31 45 32
f 32 45 46
f 32 46 34
f 33 35 37
f 34 47 35
f 34 46 48
f 34 48 49
f 34 49 50
f 34 50 47
f 35 47 51
f 35 51 52
f 35 52 53
f 35 53 54
f 35 54 55
f 35 55 56
f 35 56 57
f 35 57 37
f 36 37 38
f 37 57 39
f 37 39 38
f 39 57 58
f 39 58 40
f 40 58 55
f 40 55 41
f 41 55 54
f 42 48 45
f 42 45 44
f 42 44 43
f 45 48 46
f 47 50 59
f 47 59 51
f 51 59 60
f 51 60 61
f 51 61 62
f 51 62 52
f 52 62 53
f 53 62 61
f 53 61 63
f 53 63 54
f 54 63 59
f 55 58 57
f 55 57 64
f 55 64 56
f 56 64 57
f 59 63 60
f 60 63 61

