# https://github.com/mikedh/trimesh
v 0.02135256 -0.01307976 -0.00685669
v 0.02100318 -0.01407788 -0.00705995
v 0.02084117 -0.01314241 -0.00809378
v 0.02011044 -0.01307976 -0.00904700
v 0.02098444 -0.01307976 -0.00140955
v 0.02126329 -0.01356316 -0.00564648
v 0.02031434 -0.01598157 -0.00708799
v 0.02009942 -0.01616383 -0.00765455
v 0.02037496 -0.01528958 -0.00776786
v 0.01982939 -0.01582637 -0.00847460
v 0.01993299 -0.01523903 -0.00859843
v 0.02019861 -0.01427366 -0.00862763
v 0.01846824 -0.01856444 -0.00897224
v 0.01771877 -0.01873602 -0.00949207
v 0.01876692 -0.01380664 -0.00979229
v 0.01814641 -0.01320435 -0.01000840
v 0.01485759 -0.01307976 -0.01068827
v 0.02080039 -0.01307976 0.00021770
v 0.02023939 -0.01469726 0.00021770
v 0.02016555 -0.01603995 -0.00397133
v 0.01994953 -0.01691064 -0.00538831
v 0.02033859 -0.01600436 -0.00595370
v 0.01919896 -0.01881718 -0.00684968
v 0.01879227 -0.01880080 -0.00818840
v 0.01651853 -0.01858651 -0.01004461
v 0.01616143 -0.01786391 -0.01043595
v 0.01682823 -0.02005451 -0.00796645
v 0.01574592 -0.01994914 -0.00845240
v 0.01531388 -0.01729650 -0.01063103
v 0.01106068 -0.01559642 -0.01157257
v 0.01203498 -0.01307976 -0.01126417
v 0.01009299 -0.01307976 -0.01165785
v 0.01401554 -0.01308190 0.00021770
v 0.01850350 -0.01885705 0.00021770
v 0.01864237 -0.01896241 -0.00118526
v 0.01986907 -0.01649701 -0.00281718
v 0.01973681 -0.01714130 -0.00408581
v 0.01920116 -0.01877873 -0.00568503
v 0.01881541 -0.01939313 -0.00510562
v 0.01859278 -0.01957609 -0.00637891
v 0.01531388 -0.01818783 -0.01040324
v 0.01123923 -0.01632543 -0.01143706
v 0.01672904 -0.02028802 -0.00680413
v 0.01587928 -0.02035280 -0.00722934
v 0.01470549 -0.02003386 -0.00777370
v 0.01471431 -0.01930058 -0.00908905
v 0.01019328 -0.01541986 -0.01171625
v 0.01009299 -0.01354536 -0.00396783
v 0.01010511 -0.01651623 -0.01080509
v 0.01009299 -0.01700960 -0.00614879
v 0.01009299 -0.01474994 -0.00390007
v 0.01449498 -0.01882287 0.00019785
v 0.01749283 -0.01977757 0.00021770
v 0.01833598 -0.01947927 -0.00141889
v 0.01810012 -0.01975051 -0.00226932
v 0.01770665 -0.01990500 -0.00141889
v 0.01360554 -0.01758127 -0.01077471
v 0.01559713 -0.02034212 -0.00595370
v 0.01474627 -0.02023249 -0.00680413
v 0.01391304 -0.01983666 -0.00680413
v 0.01009299 -0.01681951 -0.00464886
v 0.01009299 -0.01599795 -0.00401105
v 0.01420622 -0.01993775 -0.00595370
v 0.01502952 -0.02026096 -0.00595370
f 1 2 3
f 1 3 4
f 1 4 17
f 1 17 31
f 1 31 32
f 1 32 18
f 1 18 5
f 1 5 6
f 1 6 2
f 2 6 7
f 2 7 8
f 2 8 9
f 2 9 3
f 3 10 11
f 3 11 12
f 3 12 4
f 3 9 10
f 4 12 11
f 4 11 13
f 4 13 14
f 4 14 15
f 4 15 16
f 4 16 17
f 5 18 19
f 5 19 6
f 6 19 20
f 6 20 21
f 6 21 22
f 6 22 7
f 7 22 23
f 7 23 8
f 8 23 24
f 8 24 10
f 8 10 9
f 10 24 13
f 10 13 11
f 13 24 14
f 14 25 26
f 14 26 15
f 14 24 27
f 14 27 28
f 14 28 25
f 15 26 16
f 16 26 29
f 16 29 30
f 16 30 17
f 17 30 31
f 18 32 33
f 18 33 53
f 18 53 34
f 18 34 19
f 19 34 35
f 19 35 36
f 19 36 20
f 20 36 37
f 20 37 21
f 21 37 38
f 21 38 22
f 22 38 23
f 23 38 39
f 23 39 40
f 23 40 24
f 24 40 27
f 25 41 26
f 25 28 41
f 26 41 42
f 26 42 30
f 26 30 29
f 27 40 43
f 27 43 44
f 27 44 28
f 28 44 45
f 28 45 46
f 28 46 41
f 30 42 47
f 30 47 32
f 30 32 31
f 32 48 33
f 32 47 49
f 32 49 50
f 32 50 61
f 32 61 62
f 32 62 51
f 32 51 48
f 33 48 51
f 33 51 52
f 33 52 53
f 34 53 54
f 34 54 35
f 35 54 39
f 35 39 38
f 35 38 37
f 35 37 36
f 39 54 55
f 39 55 40
f 40 55 56
f 40 56 43
f 41 46 57
f 41 57 42
f 42 57 49
f 42 49 47
f 43 56 58
f 43 58 44
f 44 58 59
f 44 59 45
f 45 49 46
f 45 59 60
f 45 60 49
f 46 49 57
f 49 60 50
f 50 60 61
f 51 62 52
f 52 62 61
f 52 61 63
f 52 63 64
f 52 64 53
f 53 64 58
f 53 58 56
f 53 56 54
f 54 56 55
f 58 64 59
f 59 64 63
f 59 63 60
f 60 63 61

