# https://github.com/mikedh/trimesh
v -0.01994623 0.02028283 -0.00120311
v -0.01868083 0.02028283 0.00844448
v -0.01966123 0.02029368 0.00795523
v -0.02025403 0.02665664 0.00453824
v -0.01994623 0.02208957 -0.00120311
v 0.01856685 0.02028283 -0.00120311
v -0.00178599 0.02028283 0.01308539
v -0.00311220 0.02098545 0.01288219
v -0.00703760 0.02220487 0.01198652
v -0.01648442 0.02508726 0.00965434
v -0.01711902 0.02608965 0.00943081
v -0.01857443 0.02651557 0.00828661
v -0.01945603 0.02737283 0.00683916
v -0.01999563 0.02712731 0.00545892
v -0.01813362 0.03285954 0.00425532
v -0.01994243 0.02739724 0.00198566
v -0.01979043 0.02717479 -0.00074199
v -0.01726342 0.03338583 -0.00120311
v 0.01411324 0.02230389 -0.00120311
v 0.01512404 0.02274472 0.01020612
v 0.01817925 0.02028283 0.01361686
v 0.00140981 0.02028283 0.01392323
v -0.00751260 0.02382172 0.01194588
v -0.00878181 0.02353823 0.01163482
v -0.01558762 0.02807002 0.00999510
v -0.01590682 0.02934641 0.00985598
v -0.01763582 0.02856783 0.00880244
v -0.01868842 0.02970722 0.00702986
v -0.01811462 0.03224237 0.00612325
v -0.01768523 0.03359336 0.00510565
v -0.01795122 0.03317423 0.00312049
v -0.01774982 0.03341974 0.00212791
v -0.01714942 0.03381174 0.00108999
v -0.01578522 0.03403555 -0.00071072
v 0.00254602 0.02689537 -0.00120311
v -0.01234241 0.03345229 0.00519632
v 0.01462624 0.02293191 0.01105021
v 0.00074481 0.02842948 0.00878993
v 0.01559144 0.02107633 0.01425461
v 0.01687204 0.02043067 0.01428587
v 0.01555344 0.02044017 0.01449689
v 0.00337822 0.02028283 0.01434527
v -0.00014819 0.02203532 0.01359966
v -0.01388902 0.03090630 0.01041246
v -0.01495302 0.02946307 0.01017330
v -0.01388902 0.03147192 0.01039526
v -0.01527222 0.03183680 0.00987787
v -0.01643502 0.03261674 0.00887278
v -0.01722162 0.03324476 0.00742533
v -0.01669342 0.03413864 0.00578092
v -0.01288201 0.03359200 0.00629519
v 0.00678302 0.02439684 0.01433120
v 0.00053961 0.02835759 0.00982003
v 0.01465664 0.02134219 0.01432495
v 0.00847783 0.02068568 0.01476575
v 0.00800663 0.02325474 0.01461256
v 0.00396342 0.02197835 0.01446719
v 0.00538082 0.02443075 0.01440154
v -0.00895281 0.03009109 0.01135345
v -0.01360402 0.03228035 0.01008107
v -0.01409422 0.03281206 0.00943238
v -0.01591822 0.03350112 0.00804745
v -0.00878181 0.03069605 0.01088764
v -0.01247161 0.03188699 0.01031867
f 1 2 3
f 1 3 4
f 1 4 5
f 1 5 18
f 1 18 35
f 1 35 19
f 1 19 6
f 1 6 21
f 1 21 42
f 1 42 22
f 1 22 7
f 1 7 2
f 2 7 8
f 2 8 9
f 2 9 10
f 2 10 11
f 2 11 3
f 3 11 12
f 3 12 13
f 3 13 14
f 3 14 4
f 4 14 15
f 4 15 16
f 4 16 17
f 4 17 5
f 5 17 18
f 6 19 20
f 6 20 21
f 7 22 8
f 8 22 23
f 8 23 24
f 8 24 9
f 9 24 10
f 10 25 11
f 10 24 25
f 11 25 26
f 11 26 27
f 11 27 12
f 12 27 13
f 13 27 28
f 13 28 14
f 14 28 29
f 14 29 15
f 15 29 30
f 15 30 31
f 15 31 16
f 16 31 17
f 17 31 32
f 17 32 18
f 18 32 33
f 18 33 34
f 18 34 35
f 19 35 36
f 19 36 20
f 20 37 21
f 20 36 38
f 20 38 37
f 21 37 39
f 21 39 40
f 21 40 41
f 21 41 42
f 22 43 23
f 22 42 43
f 23 44 45
f 23 45 24
f 23 43 44
f 24 45 25
f 25 45 26
f 26 45 46
f 26 46 47
f 26 47 27
f 27 47 48
f 27 48 28
f 28 48 49
f 28 49 29
f 29 49 30
f 30 32 31
f 30 49 50
f 30 50 33
f 30 33 32
f 33 50 34
f 34 50 51
f 34 51 36
f 34 36 35
f 36 51 38
f 37 52 39
f 37 38 53
f 37 53 52
f 38 51 53
f 39 52 54
f 39 54 40
f 40 54 41
f 41 55 42
f 41 54 56
f 41 56 55
f 42 55 57
f 42 57 43
f 43 57 46
f 43 46 44
f 44 46 45
f 46 57 58
f 46 58 59
f 46 59 60
f 46 60 47
f 47 60 48
f 48 60 61
f 48 61 62
f 48 62 49
f 49 62 50
f 50 62 51
f 51 62 61
f 51 61 53
f 52 58 56
f 52 56 54
f 52 53 63
f 52 63 64
f 52 64 58
f 53 61 63
f 55 56 57
f 56 58 57
f 58 64 59
f 59 64 60
f 60 64 61
f 61 64 63

