# https://github.com/mikedh/trimesh
v 0.01009188 -0.01446999 -0.00389632
v 0.00805498 -0.01308015 0.00021770
v 0.01009188 -0.01502942 -0.00390424
v 0.01009188 -0.01385613 -0.00392797
v -0.00132168 -0.01308015 -0.00001173
v 0.00085153 -0.01392960 0.00021770
v 0.00538008 -0.01506091 0.00021770
v 0.01009188 -0.01679169 -0.00456485
v 0.01009188 -0.01599667 -0.00401104
v 0.01009188 -0.01320378 -0.00401104
v 0.01009188 -0.01308015 -0.01165760
v -0.00128481 -0.01308015 -0.00085300
v 0.00037555 -0.01436035 -0.00992364
v 0.00084818 -0.01474212 -0.00992364
v 0.00120685 -0.01496333 -0.00935664
v 0.00199904 -0.01530739 -0.00935664
v 0.00368733 -0.01502087 0.00021770
v 0.00454991 -0.01527162 0.00021770
v 0.01009188 -0.01705100 -0.00524657
v 0.01009188 -0.01544190 -0.01172089
v 0.00685273 -0.01413915 -0.01249227
v 0.00526276 -0.01320378 -0.01282851
v 0.00395660 -0.01308015 -0.01310014
v -0.00047809 -0.01308015 -0.00992364
v 0.00000013 -0.01390977 -0.00992364
v 0.00043700 -0.01408239 -0.01085589
v 0.00083589 -0.01436580 -0.01104445
v 0.00116886 -0.01480588 -0.01048404
v 0.00141914 -0.01507529 -0.00992364
v 0.00200351 -0.01530350 -0.00992364
v 0.01009188 -0.01703156 -0.00595598
v 0.01009188 -0.01633411 -0.01127388
v 0.00878907 -0.01558380 -0.01188044
v 0.00925723 -0.01526268 -0.01191472
v 0.00595439 -0.01389500 -0.01269533
v 0.00472309 -0.01320378 -0.01295114
v 0.00538567 -0.01389500 -0.01279555
v 0.00343481 -0.01308015 -0.01319113
v -0.00035071 -0.01308015 -0.01050250
v 0.00003141 -0.01368701 -0.01058821
v 0.00003253 -0.01308015 -0.01157321
v 0.00064371 -0.01382425 -0.01169584
v 0.00063701 -0.01411582 -0.01122378
v 0.00136327 -0.01477283 -0.01097720
v 0.00153981 -0.01467214 -0.01154552
v 0.00198675 -0.01505041 -0.01105763
v 0.00251413 -0.01529767 -0.01071875
v 0.01009188 -0.01661286 -0.01045767
v 0.01009188 -0.01697130 -0.00662582
v 0.00203256 -0.01463404 -0.01195428
v 0.00822258 -0.01543140 -0.01198593
v 0.00652088 -0.01466359 -0.01244744
v 0.00652088 -0.01438018 -0.01253315
v 0.00395102 -0.01360848 -0.01304212
v 0.00260351 -0.01308015 -0.01325310
v 0.00035097 -0.01308015 -0.01216789
v 0.00086941 -0.01308015 -0.01274808
v 0.00125154 -0.01426044 -0.01188703
v 0.00595439 -0.01468692 -0.01240524
v 0.00132640 -0.01308132 -0.01304872
v 0.00184261 -0.01308015 -0.01318585
v 0.00320575 -0.01360732 -0.01303949
v 0.00481918 -0.01431992 -0.01260567
v 0.00595439 -0.01440312 -0.01258853
f 1 2 3
f 1 3 9
f 1 9 8
f 1 8 19
f 1 19 31
f 1 31 49
f 1 49 48
f 1 48 32
f 1 32 20
f 1 20 11
f 1 11 10
f 1 10 4
f 1 4 2
f 2 5 6
f 2 6 17
f 2 17 18
f 2 18 7
f 2 7 8
f 2 8 9
f 2 9 3
f 2 4 10
f 2 10 11
f 2 11 23
f 2 23 38
f 2 38 55
f 2 55 61
f 2 61 57
f 2 57 56
f 2 56 41
f 2 41 39
f 2 39 24
f 2 24 12
f 2 12 5
f 5 12 13
f 5 13 14
f 5 14 15
f 5 15 16
f 5 16 6
f 6 16 17
f 7 18 8
f 8 18 19
f 11 20 21
f 11 21 22
f 11 22 23
f 12 24 25
f 12 25 13
f 13 25 26
f 13 26 27
f 13 27 14
f 14 27 28
f 14 28 29
f 14 29 15
f 15 29 16
f 16 29 30
f 16 30 19
f 16 19 18
f 16 18 17
f 19 30 31
f 20 32 33
f 20 33 34
f 20 34 21
f 21 35 22
f 21 34 35
f 22 35 36
f 22 36 23
f 23 36 35
f 23 35 37
f 23 37 38
f 24 39 25
f 25 39 40
f 25 40 26
f 26 40 41
f 26 41 42
f 26 42 43
f 26 43 27
f 27 44 28
f 27 43 45
f 27 45 44
f 28 44 29
f 29 44 46
f 29 46 30
f 30 46 47
f 30 47 48
f 30 48 49
f 30 49 31
f 32 46 50
f 32 50 51
f 32 51 33
f 32 48 47
f 32 47 46
f 33 51 52
f 33 52 53
f 33 53 34
f 34 53 35
f 35 53 37
f 37 53 54
f 37 54 38
f 38 54 55
f 39 41 40
f 41 56 42
f 42 56 57
f 42 57 58
f 42 58 43
f 43 58 45
f 44 45 46
f 45 58 50
f 45 50 46
f 50 59 51
f 50 58 60
f 50 60 61
f 50 61 62
f 50 62 63
f 50 63 59
f 51 59 62
f 51 62 52
f 52 62 54
f 52 54 64
f 52 64 53
f 53 64 54
f 54 62 55
f 55 62 61
f 57 61 60
f 57 60 58
f 59 63 62

