# https://github.com/mikedh/trimesh
v 0.03129624 -0.01089500 0.00877054
v 0.02873476 -0.01044709 0.00824379
v 0.01711411 -0.02535237 0.00877054
v 0.02917245 -0.01582647 0.00877054
v 0.03060300 -0.01275671 0.00828510
v 0.03092612 -0.01182294 0.00409175
v 0.03129330 -0.01080892 0.00393682
v 0.02815314 -0.01044709 -0.00868626
v 0.02825302 -0.01044709 -0.00280421
v 0.01663383 -0.02535237 -0.00000176
v 0.02151592 -0.02532611 0.00877054
v 0.01629308 -0.02535237 -0.00881537
v 0.02961160 -0.01495252 0.00819903
v 0.03009041 -0.01392538 0.00823346
v 0.02860404 -0.01681130 0.00877054
v 0.02822952 -0.01739929 0.00566512
v 0.02839255 -0.01679963 -0.00660852
v 0.02915042 -0.01564701 0.00094330
v 0.02928848 -0.01542378 0.00220165
v 0.03034891 -0.01333593 0.00637262
v 0.03062797 -0.01261518 0.00487671
v 0.03039150 -0.01290844 -0.00220172
v 0.03105537 -0.01090960 -0.00843321
v 0.03038562 -0.01256558 -0.00873446
v 0.02874504 -0.01605262 -0.00881537
v 0.02807383 -0.01044709 -0.00756734
v 0.02268797 -0.02428729 0.00877054
v 0.02123979 -0.02517291 -0.00881537
v 0.02235310 -0.02424352 -0.00881537
v 0.02984807 -0.01444770 0.00723848
v 0.02752893 -0.01852273 0.00877054
v 0.02771693 -0.01828053 0.00692347
v 0.02747312 -0.01823530 -0.00660852
v 0.02833233 -0.01685362 -0.00771022
v 0.02885079 -0.01594757 -0.00694592
v 0.02933401 -0.01505028 -0.00598021
v 0.02950291 -0.01493064 0.00031326
v 0.02955432 -0.01457464 -0.00683402
v 0.03020644 -0.01320171 -0.00503515
v 0.02962188 -0.01433098 -0.00834198
v 0.02795046 -0.01741825 -0.00851756
v 0.02672700 -0.01925807 -0.00881537
v 0.02371315 -0.02326452 0.00877054
v 0.02326665 -0.02338708 -0.00834198
v 0.02399661 -0.02258462 -0.00881537
v 0.02626875 -0.02030272 0.00877054
v 0.02627316 -0.02027938 0.00723848
v 0.02693997 -0.01933540 0.00535010
v 0.02705453 -0.01902609 -0.00188670
v 0.02706921 -0.01888602 -0.00570822
v 0.02703984 -0.01884371 -0.00786859
v 0.02570329 -0.02063392 -0.00881537
v 0.02652138 -0.01962574 -0.00660852
v 0.02456648 -0.02237015 0.00877054
v 0.02395108 -0.02269405 -0.00660852
v 0.02515985 -0.02131236 -0.00830066
v 0.02456208 -0.02204625 -0.00598021
v 0.02522154 -0.02162021 0.00877054
v 0.02579141 -0.02075210 -0.00031333
v 0.02643178 -0.01982125 -0.00409182
v 0.02698403 -0.01908445 -0.00330342
v 0.02621882 -0.02005761 -0.00574265
v 0.02583988 -0.02050115 -0.00739520
v 0.02458117 -0.02206667 -0.00440512
f 1 2 3
f 1 3 11
f 1 11 27
f 1 27 43
f 1 43 54
f 1 54 58
f 1 58 46
f 1 46 31
f 1 31 15
f 1 15 4
f 1 4 5
f 1 5 6
f 1 6 7
f 1 7 2
f 2 7 8
f 2 8 26
f 2 26 9
f 2 9 10
f 2 10 3
f 3 10 12
f 3 12 11
f 4 13 14
f 4 14 5
f 4 15 16
f 4 16 17
f 4 17 18
f 4 18 19
f 4 19 13
f 5 14 20
f 5 20 21
f 5 21 6
f 6 21 22
f 6 22 23
f 6 23 7
f 7 23 8
f 8 23 24
f 8 24 25
f 8 25 12
f 8 12 26
f 9 26 12
f 9 12 10
f 11 12 28
f 11 28 29
f 11 29 27
f 12 25 42
f 12 42 52
f 12 52 45
f 12 45 29
f 12 29 28
f 13 30 14
f 13 19 30
f 14 30 20
f 15 31 32
f 15 32 16
f 16 32 17
f 17 33 34
f 17 34 25
f 17 25 35
f 17 35 18
f 17 32 33
f 18 35 36
f 18 36 19
f 19 36 37
f 19 37 30
f 20 22 21
f 20 30 38
f 20 38 22
f 22 38 39
f 22 39 24
f 22 24 23
f 24 39 40
f 24 40 25
f 25 40 38
f 25 38 35
f 25 34 41
f 25 41 42
f 27 29 44
f 27 44 43
f 29 45 44
f 30 37 38
f 31 46 32
f 32 47 48
f 32 48 49
f 32 49 50
f 32 50 33
f 32 46 47
f 33 50 51
f 33 51 41
f 33 41 34
f 35 38 36
f 36 38 37
f 38 40 39
f 41 51 42
f 42 51 50
f 42 50 53
f 42 53 52
f 43 44 54
f 44 45 55
f 44 55 54
f 45 52 56
f 45 56 57
f 45 57 55
f 46 58 47
f 47 59 60
f 47 60 49
f 47 49 48
f 47 58 59
f 49 60 61
f 49 61 50
f 50 61 53
f 52 53 62
f 52 62 63
f 52 63 59
f 52 59 56
f 53 61 60
f 53 60 62
f 54 55 64
f 54 64 58
f 55 57 64
f 56 64 57
f 56 59 58
f 56 58 64
f 59 63 62
f 59 62 60

