# https://github.com/mikedh/trimesh
v 0.03125317 0.01088053 -0.00001257
v 0.03090442 0.01182058 -0.00001257
v 0.02849084 0.01073430 -0.00001257
v 0.03097240 0.01082550 -0.02392024
v 0.03058336 0.01260837 -0.00001257
v 0.02770897 0.01232234 -0.00001257
v 0.02033603 0.01483837 -0.00540545
v 0.01974554 0.01483837 -0.00594910
v 0.02346978 0.01073430 -0.00490027
v 0.02754781 0.01073430 -0.02621023
v 0.03085154 0.01083152 -0.02583840
v 0.03010996 0.01271402 -0.02549477
v 0.02966678 0.01380713 -0.02517935
v 0.03023083 0.01262323 -0.02328941
v 0.03015151 0.01305750 -0.01667845
v 0.03021572 0.01348173 -0.00016387
v 0.02977254 0.01442780 -0.00016387
v 0.02651162 0.01483837 -0.00001257
v 0.01918527 0.01483837 -0.00654147
v 0.02259853 0.01073430 -0.00592089
v 0.02468979 0.01073430 -0.02399461
v 0.02480059 0.01453586 -0.02621023
v 0.03015654 0.01244888 -0.02616664
v 0.02953584 0.01392042 -0.02612817
v 0.02910902 0.01482350 -0.02582558
v 0.02919086 0.01481587 -0.02454852
v 0.02952577 0.01435549 -0.01857096
v 0.02992110 0.01353476 -0.01794012
v 0.03013010 0.01365206 -0.00094600
v 0.02975239 0.01444989 -0.00089728
v 0.02105242 0.01483837 -0.02327402
v 0.01844117 0.01471945 -0.00764415
v 0.01909839 0.01483837 -0.02129176
v 0.02210372 0.01073430 -0.00661840
v 0.02375432 0.01073430 -0.02316119
v 0.02312858 0.01073430 -0.02254317
v 0.01839081 0.01432536 -0.00831089
v 0.02153086 0.01073430 -0.00753388
v 0.01841851 0.01468571 -0.02009932
v 0.02225103 0.01073430 -0.02155589
v 0.02172097 0.01073430 -0.02085582
v 0.01839081 0.01361349 -0.00957256
v 0.02089378 0.01073430 -0.00881094
v 0.01839081 0.01400518 -0.01896587
v 0.02118588 0.01073430 -0.02003521
v 0.02070745 0.01073430 -0.01907357
v 0.02050096 0.01073430 -0.00975207
v 0.01839081 0.01312017 -0.01068294
v 0.02021516 0.01073430 -0.01056497
v 0.01839081 0.01328970 -0.01768368
v 0.02030833 0.01073430 -0.01802987
v 0.01839081 0.01282410 -0.01164714
v 0.01998476 0.01073430 -0.01152149
v 0.02000868 0.01073430 -0.01700412
v 0.01839081 0.01293497 -0.01673230
v 0.01839081 0.01264894 -0.01260109
v 0.01983367 0.01073430 -0.01234722
v 0.01978961 0.01073430 -0.01585015
v 0.01839081 0.01269755 -0.01573476
v 0.01839081 0.01253967 -0.01362428
v 0.01973924 0.01073430 -0.01326013
v 0.01969895 0.01073430 -0.01487056
v 0.01839081 0.01256337 -0.01456284
v 0.01968007 0.01073430 -0.01416023
f 1 2 5
f 1 5 18
f 1 18 6
f 1 6 3
f 1 3 4
f 1 4 2
f 2 4 5
f 3 6 7
f 3 7 8
f 3 8 9
f 3 9 20
f 3 20 34
f 3 34 38
f 3 38 43
f 3 43 47
f 3 47 49
f 3 49 53
f 3 53 57
f 3 57 61
f 3 61 64
f 3 64 62
f 3 62 58
f 3 58 54
f 3 54 51
f 3 51 46
f 3 46 45
f 3 45 41
f 3 41 40
f 3 40 36
f 3 36 35
f 3 35 21
f 3 21 10
f 3 10 4
f 4 10 11
f 4 11 12
f 4 12 13
f 4 13 14
f 4 14 15
f 4 15 5
f 5 16 17
f 5 17 18
f 5 15 16
f 6 18 7
f 7 18 31
f 7 31 33
f 7 33 19
f 7 19 8
f 8 19 9
f 9 19 20
f 10 21 22
f 10 22 23
f 10 23 11
f 11 23 12
f 12 23 24
f 12 24 13
f 13 24 25
f 13 25 26
f 13 26 27
f 13 27 28
f 13 28 14
f 14 28 15
f 15 28 29
f 15 29 16
f 16 29 17
f 17 29 30
f 17 30 18
f 18 30 26
f 18 26 25
f 18 25 31
f 19 32 20
f 19 33 32
f 20 32 34
f 21 35 31
f 21 31 22
f 22 31 25
f 22 25 24
f 22 24 23
f 26 30 27
f 27 30 29
f 27 29 28
f 31 35 36
f 31 36 33
f 32 37 38
f 32 38 34
f 32 33 39
f 32 39 37
f 33 36 40
f 33 40 41
f 33 41 39
f 37 42 43
f 37 43 38
f 37 39 44
f 37 44 50
f 37 50 55
f 37 55 59
f 37 59 63
f 37 63 60
f 37 60 56
f 37 56 52
f 37 52 48
f 37 48 42
f 39 41 45
f 39 45 46
f 39 46 44
f 42 47 43
f 42 48 49
f 42 49 47
f 44 46 50
f 46 51 50
f 48 52 53
f 48 53 49
f 50 54 55
f 50 51 54
f 52 56 57
f 52 57 53
f 54 58 55
f 55 58 59
f 56 60 61
f 56 61 57
f 58 62 59
f 59 62 63
f 60 63 64
f 60 64 61
f 62 64 63

