# https://github.com/mikedh/trimesh
v -0.03797799 0.00228102 0.03224042
v -0.03764357 0.00401276 0.03382987
v -0.03760200 0.00586079 0.03303081
v -0.03776772 0.00429843 0.03202389
v -0.03758536 0.00118636 0.03131693
v -0.03767565 -0.00014088 0.03147221
v -0.03791918 -0.00207739 0.03249167
v -0.03792690 0.00016502 0.03342142
v -0.03773921 -0.00196616 0.03401071
v -0.03697416 -0.00130633 0.03505813
v -0.03663856 0.00302933 0.03529829
v -0.03631543 0.00659646 0.03516278
v -0.03720343 0.00753185 0.03358345
v -0.03678468 0.00949364 0.03309398
v -0.03693258 0.00832567 0.03168054
v -0.03727531 0.00328973 0.03106424
v -0.03691179 -0.00151363 0.03082457
v -0.03675617 -0.00384452 0.03085929
v -0.03696703 -0.00609452 0.03130729
v -0.03654471 -0.00981080 0.03193420
v -0.03722897 -0.00711333 0.03302116
v -0.03767803 -0.00447149 0.03312484
v -0.03715651 -0.00550547 0.03442592
v -0.03724086 -0.00377374 0.03460483
v -0.03671756 -0.00508581 0.03501280
v -0.03633978 -0.00330351 0.03541981
v -0.03556761 0.00503410 0.03563682
v -0.03575768 0.00844449 0.03530022
v -0.03588242 0.00094872 0.03560885
v -0.03526884 0.01204195 0.03481075
v -0.03474910 0.01437284 0.03429475
v -0.03545891 0.01326554 0.03325746
v -0.03600418 0.01194335 0.03268601
v -0.03625247 0.01073240 0.03177892
v -0.03680071 0.00560545 0.03109028
v -0.03498610 0.01267144 0.03107340
v -0.03507757 0.01080572 0.03076140
v -0.03606299 -0.00755069 0.03075947
v -0.03635463 -0.00786417 0.03097310
v -0.03541674 -0.01067793 0.03083373
v -0.03611942 -0.01115574 0.03192841
v -0.03620317 -0.01112540 0.03330713
v -0.03675617 -0.00918889 0.03319477
v -0.03607249 -0.00943917 0.03480014
v -0.03618654 -0.00760884 0.03501329
v -0.03504312 -0.00943917 0.03546900
v -0.03554741 -0.00567485 0.03556882
v -0.03588242 -0.00188779 0.03560210
v -0.03525339 0.00362091 0.03568552
v -0.03493977 0.00629309 0.03568311
v -0.03446755 0.00818157 0.03567588
v -0.03407493 0.01100291 0.03559583
v -0.03430005 0.01293183 0.03532433
v -0.03267670 0.01447902 0.03561367
v -0.03486136 0.01452958 0.03231902
v -0.03377141 0.01437031 0.03077683
v -0.03373874 -0.01124169 0.03098033
v -0.03418957 -0.01089029 0.03551529
v -0.03562641 -0.01063495 0.03485366
v -0.03493977 -0.00692120 0.03566768
v -0.03203876 0.01289138 0.03566768
v -0.03232387 0.01458520 0.03119638
v -0.03191106 0.00999167 0.03103579
v -0.03191106 0.01066920 0.03553314
f 1 2 3
f 1 3 4
f 1 4 5
f 1 5 6
f 1 6 7
f 1 7 8
f 1 8 2
f 2 8 9
f 2 9 10
f 2 10 11
f 2 11 12
f 2 12 13
f 2 13 3
f 3 13 14
f 3 14 15
f 3 15 4
f 4 16 5
f 4 15 16
f 5 17 6
f 5 16 17
f 6 17 18
f 6 18 19
f 6 19 7
f 7 19 20
f 7 20 21
f 7 21 22
f 7 22 9
f 7 9 8
f 9 22 23
f 9 23 24
f 9 24 10
f 10 24 25
f 10 25 26
f 10 26 11
f 11 27 28
f 11 28 12
f 11 26 29
f 11 29 27
f 12 28 30
f 12 30 13
f 13 30 31
f 13 31 14
f 14 31 32
f 14 32 33
f 14 33 34
f 14 34 15
f 15 35 16
f 15 34 36
f 15 36 37
f 15 37 35
f 16 35 37
f 16 37 17
f 17 38 18
f 17 37 38
f 18 38 39
f 18 39 19
f 19 39 20
f 20 40 41
f 20 41 42
f 20 42 43
f 20 43 21
f 20 39 40
f 21 43 23
f 21 23 22
f 23 25 24
f 23 43 44
f 23 44 25
f 25 44 45
f 25 45 46
f 25 46 26
f 26 46 47
f 26 47 48
f 26 48 29
f 27 29 49
f 27 49 50
f 27 50 51
f 27 51 52
f 27 52 28
f 28 52 53
f 28 53 30
f 29 48 49
f 30 53 31
f 31 54 55
f 31 55 32
f 31 53 54
f 32 55 33
f 33 55 34
f 34 55 36
f 36 55 56
f 36 56 37
f 37 56 38
f 38 40 39
f 38 56 40
f 40 56 57
f 40 57 41
f 41 57 42
f 42 58 59
f 42 59 44
f 42 44 43
f 42 57 58
f 44 59 46
f 44 46 45
f 46 60 47
f 46 59 58
f 46 58 60
f 47 60 48
f 48 60 49
f 49 61 50
f 49 60 61
f 50 61 51
f 51 61 54
f 51 54 52
f 52 54 53
f 54 61 62
f 54 62 55
f 55 62 56
f 56 62 63
f 56 63 57
f 57 63 64
f 57 64 58
f 58 64 61
f 58 61 60
f 61 64 63
f 61 63 62

