# https://github.com/mikedh/trimesh
v -0.03273725 -0.00053233 -0.02674858
v -0.03272655 0.00115516 -0.02676849
v -0.03263614 -0.00158327 -0.02714593
v -0.02983134 -0.00203010 -0.02659521
v -0.03264100 0.00320710 -0.02667522
v -0.03254475 0.00252063 -0.02738494
v -0.03214615 -0.00180044 -0.02805681
v -0.03251461 0.00063343 -0.02751772
v -0.03229489 -0.00062719 -0.02792768
v -0.02907595 -0.00203010 -0.02998647
v -0.02280721 -0.00203010 -0.02710410
v -0.02936275 -0.00085435 -0.02659521
v -0.02280624 0.01686928 -0.02659521
v -0.03070049 0.01140491 -0.02663538
v -0.03175824 0.00822714 -0.02665530
v -0.03250294 0.00447022 -0.02667522
v -0.03213351 0.00504936 -0.02774942
v -0.03227739 0.00220609 -0.02790843
v -0.02909831 0.00000437 -0.02998647
v -0.02909442 -0.00102660 -0.02998647
v -0.02640337 -0.00203010 -0.02998647
v -0.02280624 -0.00196021 -0.02901019
v -0.02280624 0.02346696 -0.02679372
v -0.02512785 0.02101311 -0.02667522
v -0.02748640 0.01778292 -0.02672733
v -0.02907011 0.01502203 -0.02677679
v -0.02955719 0.01407593 -0.02678144
v -0.03028731 0.01249079 -0.02677513
v -0.03130714 0.00965751 -0.02671804
v -0.03197212 0.00698648 -0.02718510
v -0.03234448 0.00566844 -0.02667522
v -0.03216559 0.00354410 -0.02788187
v -0.03127214 0.00848675 -0.02787756
v -0.03146075 0.00682422 -0.02819225
v -0.02897387 0.00232592 -0.02998647
v -0.02280624 -0.00068710 -0.02947792
v -0.02280624 0.01339445 -0.02998647
v -0.02314943 0.01777543 -0.02998647
v -0.02306193 0.02243350 -0.02790113
v -0.02446967 0.02140253 -0.02749880
v -0.02563242 0.02017186 -0.02720435
v -0.02647726 0.01924824 -0.02671505
v -0.02648698 0.01870904 -0.02767108
v -0.02779167 0.01690423 -0.02745332
v -0.02833708 0.01612039 -0.02717514
v -0.02932872 0.01354922 -0.02777797
v -0.03020078 0.01175688 -0.02766809
v -0.03085215 0.01009186 -0.02770793
v -0.02963399 0.01254072 -0.02802561
v -0.02743390 0.00991213 -0.02998647
v -0.02809208 0.00787266 -0.02998647
v -0.02832638 0.00693156 -0.02998647
v -0.02855485 0.00562601 -0.02998647
v -0.02394371 0.01664960 -0.02998647
v -0.02640921 0.01790274 -0.02830412
v -0.02567520 0.01891623 -0.02827026
v -0.02372400 0.02151986 -0.02811789
v -0.02696822 0.01711641 -0.02824337
v -0.02764779 0.01589073 -0.02829084
v -0.02829819 0.01475492 -0.02830113
v -0.02625366 0.01274292 -0.02998647
v -0.02450078 0.01579837 -0.02998647
v -0.02714711 0.01650482 -0.02837682
v -0.02515313 0.01473495 -0.02998647
f 1 2 3
f 1 3 4
f 1 4 5
f 1 5 2
f 2 5 6
f 2 6 3
f 3 7 4
f 3 6 8
f 3 8 9
f 3 9 7
f 4 7 10
f 4 10 21
f 4 21 11
f 4 11 12
f 4 12 13
f 4 13 14
f 4 14 15
f 4 15 5
f 5 15 16
f 5 16 6
f 6 16 17
f 6 17 18
f 6 18 8
f 7 9 18
f 7 18 19
f 7 19 20
f 7 20 10
f 8 18 9
f 10 20 19
f 10 19 35
f 10 35 53
f 10 53 52
f 10 52 51
f 10 51 50
f 10 50 61
f 10 61 64
f 10 64 62
f 10 62 54
f 10 54 38
f 10 38 37
f 10 37 21
f 11 21 22
f 11 22 13
f 11 13 12
f 13 23 24
f 13 24 14
f 13 22 36
f 13 36 37
f 13 37 23
f 14 24 25
f 14 25 26
f 14 26 27
f 14 27 28
f 14 28 29
f 14 29 15
f 15 29 30
f 15 30 31
f 15 31 16
f 16 31 17
f 17 32 18
f 17 31 30
f 17 30 33
f 17 33 34
f 17 34 32
f 18 32 34
f 18 34 35
f 18 35 19
f 21 36 22
f 21 37 36
f 23 37 38
f 23 38 39
f 23 39 40
f 23 40 24
f 24 41 42
f 24 42 25
f 24 40 41
f 25 42 43
f 25 43 44
f 25 44 45
f 25 45 26
f 26 45 27
f 27 45 46
f 27 46 28
f 28 46 47
f 28 47 48
f 28 48 29
f 29 48 30
f 30 48 33
f 33 48 49
f 33 49 34
f 34 49 50
f 34 50 51
f 34 51 52
f 34 52 53
f 34 53 35
f 38 54 55
f 38 55 56
f 38 56 57
f 38 57 39
f 39 57 40
f 40 57 43
f 40 43 41
f 41 43 42
f 43 55 58
f 43 58 44
f 43 57 56
f 43 56 55
f 44 58 59
f 44 59 60
f 44 60 46
f 44 46 45
f 46 49 47
f 46 60 49
f 47 49 48
f 49 60 50
f 50 60 61
f 54 62 55
f 55 62 63
f 55 63 59
f 55 59 58
f 59 63 60
f 60 63 64
f 60 64 61
f 62 64 63

