# https://github.com/mikedh/trimesh
v 0.00720421 -0.03208700 0.03513312
v 0.01378390 -0.03005304 0.03518150
v 0.01378712 -0.02886657 0.03439999
v 0.00720421 -0.03126638 0.03453914
v 0.00720421 -0.03114967 0.03048895
v 0.00722226 -0.03556676 0.03058920
v 0.00722226 -0.03592242 0.03511567
v 0.00753674 -0.03447013 0.03554258
v 0.00754125 -0.03334571 0.03550518
v 0.01378712 -0.03136548 0.03548273
v 0.01378712 -0.02810894 0.03328733
v 0.00720421 -0.03069398 0.03387732
v 0.00720421 -0.03009843 0.03153229
v 0.00721324 -0.03005675 0.03053733
v 0.01053079 -0.02910090 0.03048796
v 0.01086139 -0.03168780 0.03048796
v 0.00754577 -0.03262883 0.03048895
v 0.00818440 -0.03556676 0.03056526
v 0.00734728 -0.03655687 0.03092634
v 0.00751548 -0.03717002 0.03273174
v 0.00753674 -0.03698385 0.03367833
v 0.00750581 -0.03661615 0.03451470
v 0.00937532 -0.03571773 0.03493513
v 0.00806647 -0.03553156 0.03523636
v 0.00881401 -0.03430804 0.03555305
v 0.00975811 -0.03367822 0.03558298
v 0.00881401 -0.03367822 0.03557600
v 0.00915105 -0.03498880 0.03536104
v 0.01369175 -0.03263994 0.03553710
v 0.01375812 -0.03513144 0.03373868
v 0.01378712 -0.03367822 0.03058720
v 0.01378712 -0.02781533 0.03215271
v 0.00720421 -0.03019475 0.03270182
v 0.01378712 -0.02770881 0.03081662
v 0.01345395 -0.03073195 0.03048796
v 0.00951129 -0.03212682 0.03048895
v 0.00849953 -0.03240746 0.03048895
v 0.01073765 -0.03493694 0.03055080
v 0.01164566 -0.03493694 0.03061563
v 0.01073765 -0.03546302 0.03071538
v 0.00757025 -0.03714594 0.03175672
v 0.00895386 -0.03619565 0.03093182
v 0.00881401 -0.03688012 0.03257863
v 0.00955447 -0.03654020 0.03346637
v 0.00863808 -0.03665598 0.03385089
v 0.01087814 -0.03610766 0.03372022
v 0.01047472 -0.03564085 0.03470970
v 0.01171591 -0.03509254 0.03485833
v 0.01109983 -0.03448032 0.03533062
v 0.01007260 -0.03455997 0.03540892
v 0.01227463 -0.03367822 0.03545231
v 0.01341657 -0.03393015 0.03518798
v 0.01193953 -0.03595021 0.03274720
v 0.01329542 -0.03545376 0.03276416
v 0.01326255 -0.03541393 0.03165149
v 0.01314269 -0.03487951 0.03454662
v 0.01293582 -0.03448587 0.03063658
v 0.01227528 -0.03527593 0.03090539
v 0.01073765 -0.03585018 0.03101312
v 0.00881401 -0.03685789 0.03179213
v 0.01003135 -0.03654020 0.03212828
v 0.01101605 -0.03625400 0.03273573
v 0.01101605 -0.03625586 0.03179213
v 0.01201235 -0.03588445 0.03161558
f 1 2 3
f 1 3 4
f 1 4 12
f 1 12 33
f 1 33 13
f 1 13 5
f 1 5 6
f 1 6 7
f 1 7 8
f 1 8 9
f 1 9 2
f 2 9 10
f 2 10 3
f 3 11 12
f 3 12 4
f 3 10 31
f 3 31 34
f 3 34 32
f 3 32 11
f 5 13 14
f 5 14 15
f 5 15 16
f 5 16 17
f 5 17 6
f 6 18 19
f 6 19 7
f 6 17 18
f 7 19 20
f 7 20 21
f 7 21 22
f 7 22 23
f 7 23 24
f 7 24 8
f 8 25 26
f 8 26 27
f 8 27 9
f 8 24 28
f 8 28 25
f 9 27 10
f 10 27 26
f 10 26 29
f 10 29 30
f 10 30 31
f 11 32 33
f 11 33 12
f 13 32 34
f 13 34 14
f 13 33 32
f 14 34 15
f 15 34 35
f 15 35 16
f 16 36 37
f 16 37 17
f 16 35 38
f 16 38 36
f 17 37 38
f 17 38 18
f 18 38 39
f 18 39 40
f 18 40 19
f 19 41 20
f 19 40 42
f 19 42 41
f 20 41 43
f 20 43 44
f 20 44 21
f 21 45 22
f 21 44 45
f 22 45 46
f 22 46 47
f 22 47 23
f 23 47 48
f 23 48 49
f 23 49 28
f 23 28 24
f 25 28 50
f 25 50 51
f 25 51 29
f 25 29 26
f 28 49 50
f 29 51 52
f 29 52 30
f 30 46 53
f 30 53 54
f 30 54 55
f 30 55 31
f 30 52 56
f 30 56 46
f 31 55 57
f 31 57 38
f 31 38 35
f 31 35 34
f 36 38 37
f 38 57 39
f 39 58 40
f 39 57 58
f 40 59 42
f 40 58 59
f 41 42 59
f 41 59 60
f 41 60 43
f 43 60 61
f 43 61 62
f 43 62 44
f 44 62 46
f 44 46 45
f 46 62 53
f 46 56 47
f 47 56 48
f 48 56 52
f 48 52 49
f 49 52 51
f 49 51 50
f 53 62 63
f 53 63 54
f 54 63 64
f 54 64 55
f 55 64 58
f 55 58 57
f 58 64 59
f 59 64 60
f 60 63 61
f 60 64 63
f 61 63 62

