# https://github.com/mikedh/trimesh
v 0.03108380 0.01268550 0.03053420
v 0.03029177 0.01443440 0.03053420
v 0.02432674 0.02296841 0.03063264
v 0.02837693 0.01241882 0.03053420
v 0.02798551 0.01241882 0.00877054
v 0.03059131 0.01291772 0.00956447
v 0.03021643 0.01385385 0.01001173
v 0.02944094 0.01609076 0.03053420
v 0.02963022 0.01503853 0.01019791
v 0.02292277 0.02439438 0.03063264
v 0.02101896 0.02264367 0.03063264
v 0.02741951 0.01927832 0.03053420
v 0.02556164 0.02162772 0.03053420
v 0.02358249 0.02374489 0.02769657
v 0.01261535 0.03095273 0.03063050
v 0.01231214 0.02831487 0.03023888
v 0.02830526 0.01241882 0.02958618
v 0.01231214 0.02805000 0.00877054
v 0.02954752 0.01512924 0.00877054
v 0.03021459 0.01380305 0.00895030
v 0.02795795 0.01241882 0.01102180
v 0.02898887 0.01692893 0.03047214
v 0.02903665 0.01607806 0.00877054
v 0.02199475 0.02524161 0.03063264
v 0.02307530 0.02418212 0.02454866
v 0.01353786 0.03055723 0.03063264
v 0.02698215 0.01938355 0.01102180
v 0.02644556 0.02015821 0.01181360
v 0.02579319 0.02107620 0.01290927
v 0.02619196 0.02086212 0.02927161
v 0.02498462 0.02200144 0.01290927
v 0.02329030 0.02392087 0.02139860
v 0.02375890 0.02328590 0.01290927
v 0.01342025 0.03036130 0.01259469
v 0.01255471 0.03065883 0.00886042
v 0.01231214 0.03078582 0.01089768
v 0.01231214 0.02821691 0.02646180
v 0.02826116 0.01241882 0.02864031
v 0.01388701 0.03008735 0.00877054
v 0.01231214 0.02803730 0.01070295
v 0.01231214 0.02819332 0.02518637
v 0.02800022 0.01779249 0.00877054
v 0.02084989 0.02620677 0.03063264
v 0.02165846 0.02512550 0.00877054
v 0.02082600 0.02618500 0.02801115
v 0.02318004 0.02381565 0.01133210
v 0.01450447 0.03010549 0.03063264
v 0.01384842 0.03021435 0.01542376
v 0.02606149 0.02055371 0.00877054
v 0.02512061 0.02167307 0.00877054
v 0.02410622 0.02279244 0.00877054
v 0.01516051 0.02947415 0.00886042
v 0.01679970 0.02856161 0.00886042
v 0.01857671 0.02743680 0.00881548
v 0.01969217 0.02665488 0.00877054
v 0.01972341 0.02703767 0.03063264
v 0.02270593 0.02418575 0.00881548
v 0.01573386 0.02949048 0.03063264
v 0.01546740 0.02960478 0.02864245
v 0.01630353 0.02892082 0.01259469
v 0.01633293 0.02893715 0.01464052
v 0.01713967 0.02840921 0.01101752
v 0.01756233 0.02813527 0.01007593
v 0.01817426 0.02809354 0.03063264
f 1 2 3
f 1 3 4
f 1 4 5
f 1 5 6
f 1 6 7
f 1 7 2
f 2 8 3
f 2 7 9
f 2 9 8
f 3 10 24
f 3 24 43
f 3 43 56
f 3 56 64
f 3 64 58
f 3 58 47
f 3 47 26
f 3 26 11
f 3 11 4
f 3 8 12
f 3 12 13
f 3 13 14
f 3 14 10
f 4 11 15
f 4 15 16
f 4 16 17
f 4 17 38
f 4 38 21
f 4 21 5
f 5 18 39
f 5 39 55
f 5 55 44
f 5 44 51
f 5 51 50
f 5 50 49
f 5 49 42
f 5 42 23
f 5 23 19
f 5 19 20
f 5 20 6
f 5 21 18
f 6 20 7
f 7 20 9
f 8 22 12
f 8 9 22
f 9 20 19
f 9 19 23
f 9 23 22
f 10 14 25
f 10 25 24
f 11 26 15
f 12 22 27
f 12 27 28
f 12 28 29
f 12 29 30
f 12 30 13
f 13 30 29
f 13 29 31
f 13 31 14
f 14 32 25
f 14 31 33
f 14 33 32
f 15 26 34
f 15 34 35
f 15 35 36
f 15 36 16
f 16 37 38
f 16 38 17
f 16 36 18
f 16 18 40
f 16 40 41
f 16 41 37
f 18 21 40
f 18 36 35
f 18 35 39
f 21 38 41
f 21 41 40
f 22 23 42
f 22 42 27
f 24 25 44
f 24 44 45
f 24 45 43
f 25 32 46
f 25 46 44
f 26 47 48
f 26 48 34
f 27 42 49
f 27 49 28
f 28 49 29
f 29 49 50
f 29 50 31
f 31 50 51
f 31 51 33
f 32 33 46
f 33 51 46
f 34 39 35
f 34 48 39
f 37 41 38
f 39 48 52
f 39 52 53
f 39 53 54
f 39 54 55
f 43 45 56
f 44 57 51
f 44 55 45
f 44 46 57
f 45 55 56
f 46 51 57
f 47 58 59
f 47 59 48
f 48 59 52
f 52 60 53
f 52 59 61
f 52 61 60
f 53 60 62
f 53 62 63
f 53 63 54
f 54 63 64
f 54 64 56
f 54 56 55
f 58 64 61
f 58 61 59
f 60 61 62
f 61 64 62
f 62 64 63

