# https://github.com/mikedh/trimesh
v -0.01375515 -0.02766567 0.03054874
v -0.01336536 -0.03066708 0.03052433
v -0.01349461 -0.03431273 0.03070369
v -0.01366693 -0.03530177 0.03184662
v -0.01375515 -0.03085763 0.03544880
v -0.01375515 -0.02783807 0.03268962
v 0.00720293 -0.03019322 0.03269908
v 0.00714754 -0.03062675 0.03074554
v 0.00001859 -0.03091711 0.03048895
v 0.00015399 -0.03345878 0.03048895
v -0.01089536 -0.03556491 0.03094234
v 0.00519041 -0.03637752 0.03060304
v -0.00047172 -0.03719214 0.03078191
v -0.01249963 -0.03574437 0.03280371
v -0.01366693 -0.03419578 0.03490274
v -0.00858128 -0.03642289 0.03109978
v -0.00779350 -0.03704394 0.03219737
v -0.01375515 -0.02855994 0.03416038
v -0.01293044 -0.03281353 0.03557834
v 0.00627975 -0.03466862 0.03556040
v 0.00720293 -0.03257459 0.03529186
v 0.00720293 -0.03097760 0.03420472
v 0.00720293 -0.03270062 0.03048895
v 0.00171108 -0.03341240 0.03048895
v 0.00550429 -0.03300912 0.03048895
v 0.00697521 -0.03598432 0.03066881
v 0.00583458 -0.03715282 0.03120739
v 0.00314302 -0.03740588 0.03106939
v 0.00361691 -0.03326319 0.03048895
v 0.00145464 -0.03756417 0.03124177
v -0.00208624 -0.03771540 0.03138925
v -0.00368231 -0.03746637 0.03119345
v -0.01070662 -0.03624746 0.03319582
v -0.01199907 -0.03542074 0.03440601
v -0.01079689 -0.03509811 0.03505271
v -0.01169955 -0.03388928 0.03545029
v -0.00581996 -0.03745528 0.03257901
v -0.00654209 -0.03714677 0.03380315
v -0.00932597 -0.03448109 0.03546873
v -0.00212522 -0.03525237 0.03555791
v 0.00456060 -0.03532597 0.03548716
v 0.00697521 -0.03629888 0.03486687
v 0.00156747 -0.03556793 0.03552204
v 0.00664082 -0.03723449 0.03330343
v 0.00445392 -0.03745730 0.03161295
v 0.00045761 -0.03792208 0.03241360
v -0.00125949 -0.03796543 0.03273595
v -0.00265656 -0.03787167 0.03293674
v -0.00949624 -0.03626258 0.03420871
v -0.00699752 -0.03639869 0.03486488
v -0.00795762 -0.03562540 0.03517677
v -0.00047172 -0.03739983 0.03452359
v -0.00550403 -0.03687355 0.03463470
v -0.00606819 -0.03536428 0.03541442
v -0.00393259 -0.03593593 0.03537207
v -0.00031375 -0.03618798 0.03537755
v 0.00251321 -0.03651665 0.03518673
v 0.00367641 -0.03709132 0.03461078
v 0.00483550 -0.03725969 0.03408316
v 0.00262194 -0.03781723 0.03298706
v 0.00071610 -0.03772447 0.03401291
v -0.00062763 -0.03679491 0.03507214
v 0.00100331 -0.03689271 0.03497847
f 1 2 3
f 1 3 4
f 1 4 5
f 1 5 18
f 1 18 6
f 1 6 7
f 1 7 8
f 1 8 9
f 1 9 2
f 2 9 10
f 2 10 3
f 3 11 4
f 3 10 12
f 3 12 13
f 3 13 11
f 4 14 15
f 4 15 5
f 4 11 16
f 4 16 17
f 4 17 14
f 5 15 19
f 5 19 20
f 5 20 21
f 5 21 18
f 6 18 7
f 7 22 21
f 7 21 23
f 7 23 8
f 7 18 22
f 8 23 9
f 9 23 25
f 9 25 29
f 9 29 24
f 9 24 10
f 10 24 12
f 11 13 16
f 12 25 23
f 12 23 26
f 12 26 27
f 12 27 28
f 12 28 13
f 12 24 29
f 12 29 25
f 13 28 30
f 13 30 31
f 13 31 32
f 13 32 16
f 14 33 34
f 14 34 15
f 14 17 33
f 15 34 35
f 15 35 36
f 15 36 19
f 16 32 17
f 17 32 37
f 17 37 38
f 17 38 33
f 18 21 22
f 19 36 39
f 19 39 40
f 19 40 20
f 20 41 42
f 20 42 21
f 20 40 43
f 20 43 41
f 21 42 23
f 23 42 26
f 26 42 44
f 26 44 27
f 27 45 28
f 27 44 45
f 28 45 30
f 30 45 46
f 30 46 31
f 31 47 48
f 31 48 37
f 31 37 32
f 31 46 47
f 33 38 49
f 33 49 34
f 34 49 50
f 34 50 35
f 35 50 51
f 35 51 36
f 36 51 39
f 37 48 38
f 38 48 52
f 38 52 53
f 38 53 49
f 39 51 54
f 39 54 40
f 40 54 55
f 40 55 56
f 40 56 43
f 41 43 57
f 41 57 42
f 42 57 58
f 42 58 59
f 42 59 44
f 43 56 57
f 44 59 60
f 44 60 45
f 45 60 46
f 46 60 47
f 47 60 61
f 47 61 48
f 48 61 52
f 49 53 50
f 50 53 62
f 50 62 55
f 50 55 51
f 51 55 54
f 52 61 58
f 52 58 63
f 52 63 62
f 52 62 53
f 55 62 56
f 56 62 57
f 57 62 63
f 57 63 58
f 58 61 59
f 59 61 60

