# https://github.com/mikedh/trimesh
v -0.00053735 0.03784446 0.03241628
v 0.00191626 0.03783287 0.03260122
v 0.00130286 0.03756919 0.03139963
v -0.00184594 0.03725626 0.03115337
v -0.00716619 0.03712201 0.03269125
v -0.00231418 0.03776236 0.03293215
v 0.00155844 0.03750062 0.03423740
v 0.00393231 0.03755760 0.03336480
v 0.00408975 0.03765129 0.03242212
v 0.00514072 0.03731904 0.03159186
v 0.00331278 0.03693464 0.03092269
v -0.00001800 0.03709400 0.03090761
v -0.00695150 0.03652899 0.03105604
v -0.00765078 0.03527824 0.03081952
v -0.00764669 0.03166216 0.03497568
v -0.00692083 0.03628077 0.03489733
v -0.00562655 0.03729973 0.03334339
v -0.00361663 0.03754601 0.03335848
v -0.00109759 0.03695492 0.03493334
v 0.00334345 0.03709400 0.03464669
v 0.00567029 0.03722343 0.03363588
v 0.00689300 0.03717127 0.03242407
v 0.00868005 0.03672506 0.03218755
v 0.00998251 0.03596494 0.03112807
v 0.00761273 0.03649712 0.03113001
v 0.00597903 0.03619578 0.03075382
v -0.00707009 0.03263089 0.03064383
v -0.00764669 0.02991979 0.03064383
v -0.00765078 0.03406901 0.03152032
v -0.00708236 0.03455869 0.03555628
v -0.00764669 0.03016801 0.03283239
v 0.01323355 0.02829236 0.03321783
v 0.01323355 0.02958078 0.03480875
v 0.01323355 0.03166312 0.03557428
v -0.00489456 0.03645655 0.03505501
v -0.00093811 0.03619578 0.03541806
v 0.00050952 0.03670477 0.03514601
v 0.00680099 0.03634162 0.03488565
v 0.00852670 0.03662654 0.03366751
v 0.01070019 0.03622572 0.03273651
v 0.01151602 0.03556895 0.03125168
v 0.01296160 0.03491991 0.03124097
v 0.01295547 0.03081898 0.03063312
v 0.01140765 0.03137530 0.03063312
v 0.00969626 0.03194225 0.03063312
v 0.00736941 0.03257294 0.03063361
v 0.00496896 0.03299501 0.03063312
v 0.00188968 0.03328186 0.03063312
v 0.00008219 0.03336685 0.03063312
v -0.00005890 0.03089818 0.03063312
v 0.01323355 0.02797847 0.03147604
v 0.00708111 0.03462340 0.03560397
v -0.00062323 0.03556702 0.03558304
v 0.01323764 0.03273327 0.03121469
v 0.01323764 0.03481946 0.03455471
v 0.01251178 0.03364212 0.03543461
v 0.01101507 0.03383625 0.03554606
v 0.00205121 0.03597364 0.03546770
v 0.00660675 0.03556606 0.03541611
v 0.00904605 0.03525313 0.03530321
v 0.01106823 0.03557185 0.03449339
v 0.01257107 0.03555640 0.03327428
v 0.00408975 0.03531301 0.03556358
f 1 2 3
f 1 3 4
f 1 4 5
f 1 5 6
f 1 6 2
f 2 6 7
f 2 7 8
f 2 8 9
f 2 9 3
f 3 9 10
f 3 10 11
f 3 11 12
f 3 12 4
f 4 13 5
f 4 12 13
f 5 14 15
f 5 15 16
f 5 16 17
f 5 17 6
f 5 13 14
f 6 17 18
f 6 18 7
f 7 19 20
f 7 20 21
f 7 21 8
f 7 18 19
f 8 21 22
f 8 22 9
f 9 22 10
f 10 22 23
f 10 23 24
f 10 24 25
f 10 25 11
f 11 25 26
f 11 26 12
f 12 14 13
f 12 26 14
f 14 27 28
f 14 28 29
f 14 29 15
f 14 26 27
f 15 30 16
f 15 29 31
f 15 31 32
f 15 32 33
f 15 33 34
f 15 34 30
f 16 35 17
f 16 30 35
f 17 35 18
f 18 35 19
f 19 36 37
f 19 37 20
f 19 35 36
f 20 37 38
f 20 38 21
f 21 38 39
f 21 39 22
f 22 39 40
f 22 40 23
f 23 40 41
f 23 41 24
f 24 41 42
f 24 42 26
f 24 26 25
f 26 42 43
f 26 43 44
f 26 44 45
f 26 45 46
f 26 46 47
f 26 47 48
f 26 48 49
f 26 49 27
f 27 49 28
f 28 50 43
f 28 43 51
f 28 51 31
f 28 31 29
f 28 49 50
f 30 34 52
f 30 52 53
f 30 53 36
f 30 36 35
f 31 51 32
f 32 51 54
f 32 54 55
f 32 55 33
f 33 55 34
f 34 55 56
f 34 56 57
f 34 57 52
f 36 53 58
f 36 58 37
f 37 58 59
f 37 59 38
f 38 59 60
f 38 60 61
f 38 61 39
f 39 61 62
f 39 62 40
f 40 62 41
f 41 62 42
f 42 55 54
f 42 54 43
f 42 62 55
f 43 54 51
f 43 50 49
f 43 49 48
f 43 48 47
f 43 47 45
f 43 45 44
f 45 47 46
f 52 59 63
f 52 63 53
f 52 57 59
f 53 63 58
f 55 62 61
f 55 61 60
f 55 60 56
f 56 60 57
f 57 60 59
f 58 63 59

