# https://github.com/mikedh/trimesh
v 0.02468537 0.01484016 -0.02621023
v 0.02280536 0.01699464 -0.02621023
v 0.02695039 0.01837896 -0.02618677
v 0.02888010 0.01527961 -0.02569639
v 0.02904776 0.01509331 -0.02454907
v 0.02564625 0.01484016 -0.00224071
v 0.02259662 0.01484016 -0.02445756
v 0.02298958 0.02325304 -0.02584186
v 0.02383715 0.02227341 -0.02616565
v 0.02797025 0.01685915 -0.02593572
v 0.02641363 0.01915981 -0.02616565
v 0.02718896 0.01821316 -0.02392027
v 0.02773699 0.01737169 -0.02423467
v 0.02842021 0.01626727 -0.02459365
v 0.02892980 0.01537054 -0.02360587
v 0.02936585 0.01516106 -0.00224071
v 0.02259662 0.01919903 -0.00224071
v 0.02353828 0.01484016 -0.00327777
v 0.02259662 0.02379501 -0.02045952
v 0.02266885 0.01517800 -0.00362971
v 0.02259662 0.01626905 -0.00326134
v 0.02387956 0.02229926 -0.02549462
v 0.02337394 0.02306407 -0.01888517
v 0.02399552 0.02242673 -0.01825402
v 0.02436265 0.02199263 -0.01951397
v 0.02448193 0.02180009 -0.02148014
v 0.02455283 0.02155942 -0.02518022
v 0.02494381 0.02099873 -0.02598499
v 0.02586029 0.01990055 -0.02583482
v 0.02629965 0.01938176 -0.02510044
v 0.02658128 0.01907156 -0.02392027
v 0.02774627 0.01738685 -0.02360587
v 0.02640302 0.01946377 -0.01951397
v 0.02709684 0.01861428 -0.01479092
v 0.02794639 0.01760613 -0.00409427
v 0.02850768 0.01667196 -0.00409192
v 0.02891788 0.01598826 -0.00300090
v 0.02838575 0.01690996 -0.00262550
v 0.02752957 0.01828180 -0.00253869
v 0.02587620 0.02053789 -0.00224071
v 0.02480929 0.02181346 -0.00224071
v 0.02384974 0.02284747 -0.00239087
v 0.02293988 0.02375668 -0.00259969
v 0.02265361 0.02394565 -0.00944377
v 0.02290476 0.02362119 -0.01432401
v 0.02488947 0.02126615 -0.02329147
v 0.02391269 0.02265136 -0.01196366
v 0.02353695 0.02291699 -0.01793962
v 0.02446801 0.02193736 -0.01731082
v 0.02512539 0.02102102 -0.02234592
v 0.02514858 0.02089177 -0.02454907
v 0.02582716 0.02016351 -0.02108832
v 0.02588216 0.02023482 -0.01731082
v 0.02708359 0.01890755 -0.00472307
v 0.02617838 0.01994423 -0.01400727
v 0.02652960 0.01963759 -0.00692622
v 0.02700407 0.01903145 -0.00362032
v 0.02670786 0.01945218 -0.00253869
v 0.02628904 0.01993888 -0.00818617
v 0.02582981 0.02048975 -0.01070372
v 0.02508894 0.02129646 -0.01385007
v 0.02334345 0.02334308 -0.00440867
v 0.02543486 0.02084987 -0.01573647
v 0.02575559 0.02055482 -0.01196366
f 1 2 3
f 1 3 4
f 1 4 5
f 1 5 6
f 1 6 18
f 1 18 7
f 1 7 2
f 2 8 9
f 2 9 3
f 2 7 8
f 3 10 4
f 3 9 11
f 3 11 12
f 3 12 13
f 3 13 10
f 4 14 5
f 4 10 14
f 5 14 15
f 5 15 16
f 5 16 6
f 6 16 40
f 6 40 41
f 6 41 17
f 6 17 18
f 7 19 8
f 7 18 20
f 7 20 21
f 7 21 17
f 7 17 19
f 8 22 9
f 8 19 23
f 8 23 24
f 8 24 25
f 8 25 26
f 8 26 22
f 9 22 27
f 9 27 28
f 9 28 11
f 10 13 14
f 11 28 29
f 11 29 30
f 11 30 31
f 11 31 12
f 12 32 13
f 12 31 33
f 12 33 34
f 12 34 32
f 13 32 14
f 14 32 35
f 14 35 36
f 14 36 37
f 14 37 15
f 15 37 16
f 16 37 38
f 16 38 39
f 16 39 40
f 17 41 42
f 17 42 43
f 17 43 44
f 17 44 19
f 17 21 18
f 18 21 20
f 19 44 45
f 19 45 23
f 22 26 46
f 22 46 27
f 23 45 47
f 23 47 48
f 23 48 24
f 24 48 47
f 24 47 49
f 24 49 25
f 25 49 26
f 26 49 50
f 26 50 46
f 27 29 28
f 27 46 51
f 27 51 29
f 29 51 30
f 30 51 50
f 30 50 31
f 31 50 52
f 31 52 53
f 31 53 33
f 32 34 54
f 32 54 35
f 33 53 55
f 33 55 34
f 34 55 56
f 34 56 54
f 35 54 39
f 35 39 38
f 35 38 36
f 36 38 37
f 39 57 58
f 39 58 40
f 39 54 57
f 40 58 59
f 40 59 60
f 40 60 41
f 41 60 61
f 41 61 49
f 41 49 47
f 41 47 42
f 42 47 62
f 42 62 43
f 43 62 44
f 44 62 45
f 45 62 47
f 46 50 51
f 49 61 63
f 49 63 50
f 50 63 53
f 50 53 52
f 53 63 64
f 53 64 55
f 54 56 57
f 55 64 60
f 55 60 59
f 55 59 56
f 56 59 58
f 56 58 57
f 60 64 61
f 61 64 63

