# https://github.com/mikedh/trimesh
v 0.00001853 -0.03091644 0.03052353
v 0.00001853 -0.03084901 0.02877154
v -0.01175175 -0.02858216 0.03052353
v -0.00014963 -0.03345742 0.03052353
v 0.00001853 -0.03318959 0.01008736
v 0.00001853 -0.03081435 0.02776400
v -0.01167088 -0.03134687 0.03052353
v -0.01309579 -0.02767278 0.00876637
v -0.01309579 -0.03041858 0.00876637
v -0.00094553 -0.03342780 0.03052353
v -0.00236659 -0.03337234 0.02629748
v -0.00157454 -0.03338999 0.02612396
v -0.00079534 -0.03285621 -0.02576411
v 0.00001853 -0.03318013 0.00946045
v 0.00001853 -0.03072486 0.02108628
v -0.01309579 -0.02701925 -0.02296540
v -0.00944878 -0.03210311 0.03052353
v -0.01309579 -0.03010915 -0.02423041
v -0.01307525 -0.03011041 -0.02490770
v -0.01227422 -0.03041606 -0.02548424
v -0.01164520 -0.03063915 -0.02638542
v -0.01038589 -0.03113134 -0.02360350
v -0.00261434 -0.03334651 0.03052353
v -0.00346287 -0.03327340 0.03052353
v -0.00472347 -0.03300683 0.01919995
v -0.00409317 -0.03255749 -0.02486292
v -0.00346416 -0.03261358 -0.02548424
v -0.00283386 -0.03267660 -0.02548424
v -0.00278508 -0.03265517 -0.02665969
v -0.00212140 -0.03270559 -0.02665969
v -0.00150522 -0.03274088 -0.02665969
v -0.00077095 -0.03278499 -0.02659812
v 0.00001853 -0.03316942 0.00879435
v 0.00001853 -0.03061835 0.01140275
v -0.00064386 -0.03032216 -0.00409090
v -0.00064386 -0.03017784 -0.02665969
v -0.01309579 -0.02701925 -0.02360350
v -0.00849628 -0.03234826 0.03052353
v -0.00975559 -0.03131284 -0.02548424
v -0.00914070 -0.03147543 -0.02638542
v -0.00849628 -0.03164622 -0.02638542
v -0.01309579 -0.02705770 -0.02665969
v -0.01285060 -0.03015515 -0.02637982
v -0.01286729 -0.03018288 -0.02551222
v -0.01227422 -0.03040723 -0.02611675
v -0.00786726 -0.03178045 -0.02665969
v -0.01102517 -0.03086161 -0.02638542
v -0.01038589 -0.03112189 -0.02423041
v -0.00535248 -0.03300872 0.03052353
v -0.00472347 -0.03301187 0.01982687
v -0.00563105 -0.03285558 0.01982687
v -0.00472347 -0.03244658 -0.02611675
v -0.00409317 -0.03252157 -0.02638542
v -0.00346416 -0.03259719 -0.02638542
v -0.00526006 -0.03231675 -0.02665969
v 0.00001853 -0.03066688 0.00876637
v -0.00590319 -0.03279004 0.01919995
v -0.00625236 -0.03284234 0.03052353
v -0.00786726 -0.03180566 -0.02611675
v -0.01038589 -0.03111180 -0.02486292
v -0.00988268 -0.03124162 -0.02638542
v -0.00635121 -0.03211824 -0.02665410
v -0.00723825 -0.03193611 -0.02638542
v -0.00669909 -0.03206152 -0.02611675
f 1 2 3
f 1 3 7
f 1 7 17
f 1 17 38
f 1 38 58
f 1 58 49
f 1 49 24
f 1 24 23
f 1 23 10
f 1 10 4
f 1 4 5
f 1 5 14
f 1 14 33
f 1 33 56
f 1 56 34
f 1 34 15
f 1 15 6
f 1 6 2
f 2 6 3
f 3 6 8
f 3 8 9
f 3 9 7
f 4 10 11
f 4 11 12
f 4 12 13
f 4 13 5
f 5 13 14
f 6 15 16
f 6 16 8
f 7 9 18
f 7 18 19
f 7 19 20
f 7 20 21
f 7 21 22
f 7 22 17
f 8 16 37
f 8 37 42
f 8 42 18
f 8 18 9
f 10 23 11
f 11 23 24
f 11 24 25
f 11 25 26
f 11 26 27
f 11 27 28
f 11 28 13
f 11 13 12
f 13 28 29
f 13 29 30
f 13 30 31
f 13 31 32
f 13 32 33
f 13 33 14
f 15 34 16
f 16 35 36
f 16 36 37
f 16 34 35
f 17 22 39
f 17 39 40
f 17 40 41
f 17 41 38
f 18 42 19
f 19 43 44
f 19 44 45
f 19 45 20
f 19 42 43
f 20 45 21
f 21 45 43
f 21 43 46
f 21 46 47
f 21 47 22
f 22 48 39
f 22 47 48
f 24 49 50
f 24 50 25
f 25 50 49
f 25 49 51
f 25 51 52
f 25 52 26
f 26 52 53
f 26 53 54
f 26 54 27
f 27 54 28
f 28 54 29
f 29 55 46
f 29 46 42
f 29 42 36
f 29 36 31
f 29 31 30
f 29 54 53
f 29 53 55
f 31 36 32
f 32 36 33
f 33 36 56
f 34 56 36
f 34 36 35
f 36 42 37
f 38 57 58
f 38 41 59
f 38 59 57
f 39 60 47
f 39 47 61
f 39 61 40
f 39 48 60
f 40 61 46
f 40 46 41
f 41 46 59
f 42 46 43
f 43 45 44
f 46 55 62
f 46 62 63
f 46 63 59
f 46 61 47
f 47 60 48
f 49 58 51
f 51 58 57
f 51 57 64
f 51 64 52
f 52 64 62
f 52 62 55
f 52 55 53
f 57 59 64
f 59 63 64
f 62 64 63

