# https://github.com/mikedh/trimesh
v -0.03463523 0.01530531 0.03250374
v -0.03190452 0.00999573 0.03088220
v -0.03446374 0.01504678 0.03427875
v -0.03411205 0.01637364 0.03367858
v -0.03363973 0.01747615 0.03268320
v -0.03237393 0.01934786 0.03185110
v -0.03343918 0.01623476 0.03117297
v -0.02992079 0.00999573 0.03380803
v -0.03168362 0.01063887 0.03543595
v -0.03213414 0.01827526 0.03089151
v -0.02733832 0.01920470 0.03064340
v -0.02421087 0.01920470 0.03064340
v -0.01978999 0.02365748 0.03064340
v -0.02934239 0.00999573 0.03147795
v -0.03190742 0.01263236 0.03565268
v -0.03254541 0.01511301 0.03558844
v -0.03212396 0.01805518 0.03506918
v -0.03124037 0.02114692 0.03408998
v -0.03232161 0.01962135 0.03379087
v -0.03164438 0.02080933 0.03272782
v -0.03092210 0.02126230 0.03138136
v -0.01978999 0.02418524 0.03348686
v -0.01978999 0.02506554 0.03454697
v -0.01978999 0.02694365 0.03543006
v -0.01980017 0.02834102 0.03565022
v -0.03014896 0.02163621 0.03089298
v -0.02987284 0.02166826 0.03079541
v -0.02329385 0.02800984 0.03067871
v -0.02642275 0.02045464 0.03064340
v -0.01983505 0.02689237 0.03064340
v -0.01981034 0.03052468 0.03069195
v -0.01978999 0.02373013 0.03208940
v -0.02211233 0.02779831 0.03560511
v -0.02756067 0.02308272 0.03555167
v -0.03055297 0.01938845 0.03543693
v -0.02926973 0.02195671 0.03527512
v -0.02902994 0.02368740 0.03441605
v -0.02790365 0.02528775 0.03403457
v -0.02932931 0.02398866 0.03273616
v -0.02905028 0.02346091 0.03125338
v -0.02011553 0.03148404 0.03449695
v -0.02066051 0.02949695 0.03552911
v -0.02765804 0.02486683 0.03111069
v -0.02264568 0.02970421 0.03111707
v -0.02109213 0.02989864 0.03069293
v -0.02257157 0.02465744 0.03064340
v -0.02489681 0.02226866 0.03064340
v -0.02631521 0.02636248 0.03117787
v -0.02159497 0.03084304 0.03153385
v -0.02030155 0.03182163 0.03211882
v -0.02394346 0.02764661 0.03535553
v -0.02543888 0.02610609 0.03537024
v -0.02707382 0.02474718 0.03526041
v -0.02596642 0.02752482 0.03345058
v -0.02374000 0.02928970 0.03428758
v -0.02644165 0.02706758 0.03210608
v -0.02203095 0.03083663 0.03320050
v -0.02157317 0.03056100 0.03465435
v -0.02435038 0.02875767 0.03166036
v -0.02534442 0.02772353 0.03157063
v -0.02349440 0.02988796 0.03253267
v -0.02453059 0.02899270 0.03301467
f 1 2 3
f 1 3 4
f 1 4 5
f 1 5 6
f 1 6 7
f 1 7 2
f 2 8 9
f 2 9 3
f 2 7 10
f 2 10 11
f 2 11 12
f 2 12 13
f 2 13 14
f 2 14 8
f 3 15 16
f 3 16 17
f 3 17 18
f 3 18 19
f 3 19 4
f 3 9 15
f 4 19 5
f 5 19 20
f 5 20 6
f 6 10 7
f 6 20 21
f 6 21 10
f 8 14 22
f 8 22 23
f 8 23 9
f 9 23 24
f 9 24 25
f 9 25 15
f 10 21 26
f 10 26 27
f 10 27 11
f 11 27 28
f 11 28 29
f 11 29 47
f 11 47 46
f 11 46 30
f 11 30 13
f 11 13 12
f 13 30 31
f 13 31 24
f 13 24 23
f 13 23 22
f 13 22 32
f 13 32 14
f 14 32 22
f 15 25 33
f 15 33 16
f 16 33 34
f 16 34 35
f 16 35 17
f 17 35 36
f 17 36 18
f 18 20 19
f 18 36 37
f 18 37 38
f 18 38 39
f 18 39 20
f 20 39 21
f 21 40 26
f 21 39 40
f 24 31 25
f 25 31 41
f 25 41 42
f 25 42 33
f 26 40 43
f 26 43 27
f 27 43 28
f 28 44 45
f 28 45 31
f 28 31 30
f 28 30 46
f 28 46 47
f 28 47 29
f 28 43 48
f 28 48 44
f 31 45 49
f 31 49 50
f 31 50 41
f 33 42 51
f 33 51 34
f 34 36 35
f 34 51 52
f 34 52 53
f 34 53 36
f 36 53 37
f 37 53 38
f 38 54 39
f 38 53 55
f 38 55 54
f 39 54 56
f 39 56 40
f 40 56 43
f 41 50 57
f 41 57 58
f 41 58 42
f 42 58 51
f 43 56 48
f 44 48 59
f 44 59 49
f 44 49 45
f 48 56 60
f 48 60 59
f 49 59 61
f 49 61 50
f 50 61 57
f 51 53 52
f 51 58 55
f 51 55 53
f 54 55 62
f 54 62 56
f 55 58 57
f 55 57 62
f 56 62 61
f 56 61 59
f 56 59 60
f 57 61 62

