# https://github.com/mikedh/trimesh
v 0.02148390 -0.02535371 0.00876709
v 0.01710878 -0.02535371 0.00876709
v 0.02032947 -0.02633640 0.00876709
v 0.02108971 -0.02535371 -0.01353043
v 0.01662795 -0.02535371 -0.00000412
v -0.00064293 -0.03032298 -0.00409620
v -0.00064293 -0.03059600 0.00676766
v -0.00064293 -0.03067476 0.00876709
v 0.01692901 -0.02855644 0.00876709
v 0.01875053 -0.02744680 0.00873255
v 0.01883067 -0.02703843 -0.01479086
v 0.02034897 -0.02588062 -0.01754654
v 0.02102473 -0.02535371 -0.01636553
v 0.01616445 -0.02535371 -0.01038454
v 0.01587422 -0.02535371 -0.01919373
v -0.00064293 -0.03025339 -0.01919718
v -0.00004514 -0.03316552 0.00876709
v -0.00064293 -0.03030692 -0.02651113
v 0.01393357 -0.03010656 0.00876709
v 0.01512482 -0.02951924 0.00869802
v 0.01586772 -0.02903440 0.00157055
v 0.01634205 -0.02850214 -0.01903833
v 0.01710012 -0.02803489 -0.02064409
v 0.01877869 -0.02700402 -0.01856869
v 0.02018436 -0.02580185 -0.02432178
v 0.01597818 -0.02535371 -0.02651113
v 0.01591537 -0.02535371 -0.02485703
v -0.00064293 -0.03023657 -0.02420782
v 0.00189117 -0.03314334 0.00876709
v 0.00007615 -0.03282368 -0.02614508
v 0.00287232 -0.03261338 -0.02645933
v 0.01266869 -0.03066482 0.00876709
v 0.01353288 -0.02985573 -0.02360351
v 0.01399422 -0.02967066 -0.02218423
v 0.01479127 -0.02930206 -0.02045416
v 0.01455302 -0.02935712 -0.02446681
v 0.01661063 -0.02829031 -0.02265732
v 0.01772606 -0.02752863 -0.02573070
v 0.01974685 -0.02607104 -0.02601041
v 0.01501436 -0.02907417 -0.02621760
v 0.00493643 -0.03278315 0.00125631
v 0.00531546 -0.03278544 0.00873255
v 0.00759832 -0.03229371 0.00876709
v 0.00290265 -0.03268832 -0.02391775
v 0.01376463 -0.02969284 -0.02621760
v 0.00700486 -0.03196717 -0.02620724
v 0.00467435 -0.03241148 -0.02605875
v 0.01133016 -0.03117337 0.00876709
v 0.01138431 -0.03086824 -0.01416237
v 0.01256472 -0.03024422 -0.02568581
v 0.01611247 -0.02848073 -0.02554422
v 0.01664311 -0.02821919 -0.02438739
v 0.00496242 -0.03272885 -0.00283577
v 0.00692689 -0.03237019 0.00094206
v 0.00724094 -0.03235566 0.00597688
v 0.00969274 -0.03171022 0.00876709
v 0.00829790 -0.03201688 0.00000278
v 0.00912961 -0.03183640 0.00471645
v 0.00579845 -0.03227154 -0.02520581
v 0.01110924 -0.03079024 -0.02590336
v 0.00929205 -0.03139209 -0.02574451
v 0.01000680 -0.03145480 -0.00409620
v 0.01070205 -0.03119861 -0.00629936
v 0.01101394 -0.03101890 -0.01227345
f 1 2 8
f 1 8 17
f 1 17 29
f 1 29 43
f 1 43 56
f 1 56 48
f 1 48 32
f 1 32 19
f 1 19 9
f 1 9 3
f 1 3 4
f 1 4 13
f 1 13 26
f 1 26 27
f 1 27 15
f 1 15 14
f 1 14 5
f 1 5 2
f 2 5 6
f 2 6 7
f 2 7 8
f 3 9 10
f 3 10 11
f 3 11 12
f 3 12 4
f 4 12 13
f 5 14 6
f 6 14 15
f 6 15 16
f 6 16 28
f 6 28 18
f 6 18 8
f 6 8 7
f 8 18 17
f 9 19 20
f 9 20 21
f 9 21 22
f 9 22 23
f 9 23 10
f 10 23 11
f 11 23 24
f 11 24 12
f 12 24 25
f 12 25 13
f 13 25 26
f 15 27 28
f 15 28 16
f 17 18 30
f 17 30 29
f 18 28 26
f 18 26 31
f 18 31 30
f 19 32 33
f 19 33 34
f 19 34 35
f 19 35 20
f 20 35 21
f 21 35 22
f 22 35 36
f 22 36 37
f 22 37 23
f 23 37 38
f 23 38 24
f 24 38 39
f 24 39 25
f 25 39 26
f 26 40 31
f 26 28 27
f 26 39 40
f 29 41 42
f 29 42 43
f 29 30 44
f 29 44 41
f 30 31 44
f 31 40 45
f 31 45 46
f 31 46 47
f 31 47 44
f 32 48 49
f 32 49 50
f 32 50 33
f 33 50 45
f 33 45 34
f 34 45 36
f 34 36 35
f 36 45 40
f 36 40 37
f 37 40 51
f 37 51 52
f 37 52 38
f 38 51 40
f 38 40 39
f 38 52 51
f 41 53 54
f 41 54 42
f 41 44 53
f 42 54 55
f 42 55 43
f 43 55 57
f 43 57 58
f 43 58 56
f 44 47 59
f 44 59 53
f 45 50 60
f 45 60 46
f 46 60 61
f 46 61 57
f 46 57 54
f 46 54 59
f 46 59 47
f 48 56 62
f 48 62 63
f 48 63 64
f 48 64 49
f 49 64 60
f 49 60 50
f 53 59 54
f 54 57 55
f 56 58 62
f 57 61 58
f 58 61 62
f 60 64 61
f 61 64 62
f 62 64 63

