# https://github.com/mikedh/trimesh
v 0.01764058 -0.02018124 -0.03504410
v 0.01779274 -0.02143252 -0.03533931
v 0.01792504 -0.02281808 -0.03070721
v 0.01764058 -0.01948947 -0.02996974
v 0.01764058 -0.01943454 -0.03346172
v 0.02635629 -0.00203260 -0.03457254
v 0.02748200 -0.00227675 -0.03541257
v 0.02094935 -0.01830534 -0.03551350
v 0.02081043 -0.01986181 -0.03462897
v 0.01824037 -0.02236640 -0.03413353
v 0.02738277 -0.00378032 -0.03549125
v 0.01871117 -0.02215277 -0.03116250
v 0.01857004 -0.02227077 -0.03011084
v 0.01983467 -0.02108867 -0.02996974
v 0.02307729 -0.01228292 -0.02996974
v 0.02618209 -0.00203260 -0.02997083
v 0.02617878 -0.00203260 -0.03332118
v 0.02890320 -0.00210381 -0.02997083
v 0.02871576 -0.00212009 -0.03412647
v 0.02820308 -0.00385153 -0.03489433
v 0.02360652 -0.01416085 -0.03550699
v 0.02520192 -0.01233785 -0.03526659
v 0.02354257 -0.01631143 -0.03476301
v 0.02149622 -0.01931246 -0.03415198
v 0.02031428 -0.02055153 -0.03413787
v 0.02239591 -0.01815274 -0.03446129
v 0.02747980 -0.00492173 -0.03538326
v 0.02141794 -0.01952406 -0.03159119
v 0.02127461 -0.01957493 -0.02996974
v 0.02499905 -0.01463492 -0.02996974
v 0.02876538 -0.00378032 -0.02997083
v 0.02868710 -0.00314960 -0.03399353
v 0.02831443 -0.00548939 -0.03412051
v 0.02794949 -0.00679356 -0.03447432
v 0.02733536 -0.00626660 -0.03527690
v 0.02695609 -0.00822185 -0.03514069
v 0.02572784 -0.01140397 -0.03514504
v 0.02654483 -0.01061048 -0.03474782
v 0.02522286 -0.01368679 -0.03458556
v 0.02468923 -0.01491569 -0.03411996
v 0.02387995 -0.01634398 -0.03367879
v 0.02175532 -0.01915377 -0.03242091
v 0.02287993 -0.01775803 -0.03308892
v 0.02211035 -0.01862477 -0.02996974
v 0.02301775 -0.01746301 -0.02996974
v 0.02377411 -0.01650268 -0.03147724
v 0.02519089 -0.01426665 -0.03320613
v 0.02576532 -0.01322901 -0.03011084
v 0.02635629 -0.01202656 -0.02997029
v 0.02855920 -0.00500515 -0.02997083
v 0.02860661 -0.00409568 -0.03367879
v 0.02810274 -0.00692785 -0.03367879
v 0.02768708 -0.00831138 -0.03398973
v 0.02732875 -0.00934495 -0.03398267
v 0.02650293 -0.01138769 -0.03403368
v 0.02593181 -0.01246196 -0.03425780
v 0.02564625 -0.01337957 -0.03328536
v 0.02303319 -0.01753829 -0.03194935
v 0.02573335 -0.01327580 -0.03147724
v 0.02620745 -0.01227681 -0.03304876
v 0.02694837 -0.01070407 -0.02997083
v 0.02731331 -0.00972542 -0.02997083
v 0.02782931 -0.00809164 -0.02997083
v 0.02819315 -0.00677729 -0.02997083
f 1 2 3
f 1 3 4
f 1 4 5
f 1 5 6
f 1 6 7
f 1 7 2
f 2 8 9
f 2 9 10
f 2 10 3
f 2 7 11
f 2 11 8
f 3 10 12
f 3 12 13
f 3 13 4
f 4 13 14
f 4 14 29
f 4 29 44
f 4 44 45
f 4 45 30
f 4 30 15
f 4 15 16
f 4 16 5
f 5 16 17
f 5 17 6
f 6 17 16
f 6 16 18
f 6 18 19
f 6 19 7
f 7 19 20
f 7 20 11
f 8 21 22
f 8 22 23
f 8 23 9
f 8 11 21
f 9 24 25
f 9 25 10
f 9 23 26
f 9 26 24
f 10 25 12
f 11 20 27
f 11 27 21
f 12 25 14
f 12 14 13
f 14 25 28
f 14 28 29
f 15 18 16
f 15 30 18
f 18 31 32
f 18 32 19
f 18 30 31
f 19 32 20
f 20 33 34
f 20 34 35
f 20 35 27
f 20 32 33
f 21 27 22
f 22 27 35
f 22 35 36
f 22 36 37
f 22 37 38
f 22 38 39
f 22 39 23
f 23 39 40
f 23 40 41
f 23 41 26
f 24 42 25
f 24 26 43
f 24 43 42
f 25 42 28
f 26 41 43
f 28 42 44
f 28 44 29
f 30 45 46
f 30 46 41
f 30 41 47
f 30 47 48
f 30 48 49
f 30 49 50
f 30 50 31
f 31 50 51
f 31 51 32
f 32 51 33
f 33 51 52
f 33 52 34
f 34 52 53
f 34 53 38
f 34 38 36
f 34 36 35
f 36 38 37
f 38 53 54
f 38 54 55
f 38 55 56
f 38 56 39
f 39 56 40
f 40 56 57
f 40 57 47
f 40 47 41
f 41 46 43
f 42 43 58
f 42 58 44
f 43 46 58
f 44 58 45
f 45 58 46
f 47 57 59
f 47 59 48
f 48 59 49
f 49 59 60
f 49 60 61
f 49 61 62
f 49 62 63
f 49 63 64
f 49 64 50
f 50 64 52
f 50 52 51
f 52 64 63
f 52 63 53
f 53 63 62
f 53 62 54
f 54 62 61
f 54 61 60
f 54 60 55
f 55 60 57
f 55 57 56
f 57 60 59

