# https://github.com/mikedh/trimesh
v -0.00105503 0.03266639 -0.02667574
v -0.00102091 0.02801859 -0.02659560
v -0.00102091 0.02641138 -0.02998596
v -0.00128106 0.02904803 -0.02998596
v -0.00213828 0.03192328 -0.02806976
v -0.00233659 0.03252151 -0.02684266
v -0.00676553 0.03206304 -0.02544710
v -0.00677193 0.02425366 -0.02477128
v -0.00102091 0.01525633 -0.02713208
v -0.00175445 0.01525633 -0.02971849
v -0.02160474 0.01525633 -0.02998596
v -0.00391668 0.02881623 -0.02998596
v -0.00382499 0.03150742 -0.02835050
v -0.00713444 0.03146140 -0.02781505
v -0.00403823 0.03224370 -0.02713616
v -0.00631987 0.03194544 -0.02702999
v -0.00800444 0.03166081 -0.02664409
v -0.00897681 0.03150912 -0.02514594
v -0.01634417 0.02845661 -0.02485040
v -0.01341215 0.02007456 -0.02477128
v -0.01009417 0.02169030 -0.02477128
v -0.01137360 0.02090118 -0.02477128
v -0.02100128 0.01682775 -0.02484836
v -0.02280100 0.01525633 -0.02693709
v -0.02280100 0.01525633 -0.02998596
v -0.00564817 0.02854524 -0.02998596
v -0.00816437 0.03078647 -0.02828976
v -0.01069764 0.03020529 -0.02818461
v -0.00965917 0.03086488 -0.02771806
v -0.01163162 0.03046946 -0.02704020
v -0.01018587 0.03114098 -0.02535982
v -0.01200478 0.03050525 -0.02521587
v -0.01382157 0.02973829 -0.02499230
v -0.01524386 0.02906677 -0.02509235
v -0.01770889 0.02759932 -0.02631843
v -0.01770249 0.02763852 -0.02486009
v -0.02104606 0.02500528 -0.02485295
v -0.02280100 0.01687377 -0.02659560
v -0.02275409 0.01825090 -0.02998596
v -0.00693186 0.02828277 -0.02998596
v -0.00826673 0.02792826 -0.02998596
v -0.01180860 0.02962239 -0.02834897
v -0.01344627 0.02934459 -0.02783036
v -0.01381943 0.02969398 -0.02624288
v -0.01594541 0.02859467 -0.02627964
v -0.01736558 0.02732321 -0.02774971
v -0.01934655 0.02616595 -0.02753533
v -0.02012061 0.02587450 -0.02660887
v -0.01891794 0.02681531 -0.02587384
v -0.01993296 0.02606880 -0.02501374
v -0.02141922 0.02481098 -0.02656293
v -0.02266666 0.02362986 -0.02673495
v -0.02242784 0.02301288 -0.02799115
v -0.02112495 0.02005070 -0.02998596
v -0.00968689 0.02745956 -0.02998596
v -0.01130110 0.02682724 -0.02998596
v -0.01435040 0.02533081 -0.02998596
v -0.01889236 0.02581485 -0.02833213
v -0.02028906 0.02495245 -0.02806925
v -0.02021443 0.02461328 -0.02835305
v -0.02001399 0.02114320 -0.02998596
v -0.01621622 0.02418548 -0.02998596
v -0.01772808 0.02309810 -0.02998596
v -0.01910772 0.02196129 -0.02998596
f 1 2 3
f 1 3 4
f 1 4 5
f 1 5 6
f 1 6 7
f 1 7 8
f 1 8 2
f 2 9 3
f 2 8 9
f 3 9 10
f 3 10 11
f 3 11 25
f 3 25 39
f 3 39 54
f 3 54 61
f 3 61 64
f 3 64 63
f 3 63 62
f 3 62 57
f 3 57 56
f 3 56 55
f 3 55 41
f 3 41 40
f 3 40 26
f 3 26 12
f 3 12 4
f 4 12 13
f 4 13 5
f 5 13 14
f 5 14 15
f 5 15 6
f 6 15 16
f 6 16 7
f 7 16 17
f 7 17 18
f 7 18 8
f 8 18 19
f 8 19 20
f 8 20 22
f 8 22 21
f 8 21 9
f 9 21 22
f 9 22 20
f 9 20 23
f 9 23 24
f 9 24 25
f 9 25 11
f 9 11 10
f 12 26 13
f 13 26 27
f 13 27 14
f 14 27 28
f 14 28 29
f 14 29 16
f 14 16 15
f 16 29 17
f 17 29 30
f 17 30 31
f 17 31 18
f 18 31 32
f 18 32 33
f 18 33 19
f 19 33 34
f 19 34 35
f 19 35 36
f 19 36 37
f 19 37 20
f 20 37 23
f 23 37 38
f 23 38 24
f 24 38 25
f 25 38 39
f 26 40 27
f 27 40 41
f 27 41 42
f 27 42 28
f 28 42 43
f 28 43 29
f 29 43 30
f 30 32 31
f 30 43 44
f 30 44 32
f 32 44 33
f 33 44 34
f 34 45 35
f 34 44 45
f 35 45 46
f 35 46 47
f 35 47 48
f 35 48 49
f 35 49 36
f 36 49 50
f 36 50 37
f 37 50 51
f 37 51 52
f 37 52 38
f 38 52 39
f 39 52 53
f 39 53 54
f 41 55 42
f 42 55 56
f 42 56 57
f 42 57 58
f 42 58 46
f 42 46 43
f 43 46 45
f 43 45 44
f 46 58 47
f 47 58 59
f 47 59 52
f 47 52 51
f 47 51 48
f 48 51 50
f 48 50 49
f 52 59 53
f 53 59 60
f 53 60 54
f 54 60 61
f 57 62 58
f 58 62 63
f 58 63 64
f 58 64 60
f 58 60 59
f 60 64 61

