# https://github.com/mikedh/trimesh
v -0.01201623 -0.03122221 0.03051990
v -0.01175475 -0.02857706 0.03051990
v -0.02226105 -0.02140037 0.03055911
v -0.02614942 -0.02084890 0.03055911
v -0.01323899 -0.03072018 0.03051990
v -0.01331800 -0.02999757 -0.02520346
v -0.01175475 -0.03095979 0.00876601
v -0.01175475 -0.02851431 0.02737220
v -0.02783306 -0.01179531 -0.00597557
v -0.02836355 -0.01228212 0.02994301
v -0.03096143 -0.01277274 0.03055911
v -0.02777098 -0.01873240 0.03055911
v -0.02682287 -0.02001599 0.02706415
v -0.02470468 -0.02258127 0.03051990
v -0.02322233 -0.02409115 0.03051990
v -0.02203343 -0.02518268 0.03051990
v -0.02092354 -0.02612017 0.03051990
v -0.01806418 -0.02817392 0.03051990
v -0.01497342 -0.02990249 0.03051990
v -0.01448432 -0.02943089 -0.02593718
v -0.01331800 -0.02995573 -0.02638525
v -0.01175475 -0.02824618 0.00934850
v -0.01309790 -0.02705197 -0.02665969
v -0.01175475 -0.02844395 0.02360279
v -0.02829394 -0.01179531 0.00876601
v -0.01175475 -0.02838880 0.01982218
v -0.02755841 -0.01179531 -0.02665969
v -0.03097084 -0.01179531 0.00876601
v -0.02947908 -0.01587808 0.03055911
v -0.03063223 -0.01203681 -0.02391525
v -0.03015065 -0.01317398 -0.02391525
v -0.02951106 -0.01454314 -0.02422890
v -0.02884889 -0.01702475 0.03055911
v -0.02746435 -0.01813149 -0.02391525
v -0.02530289 -0.02104096 -0.02622842
v -0.02393717 -0.02268206 -0.01761984
v -0.02329193 -0.02329247 -0.01890245
v -0.02265422 -0.02391620 -0.01667889
v -0.02142958 -0.02520360 -0.00566192
v -0.02025385 -0.02589578 -0.02044829
v -0.01950703 -0.02643014 -0.02296870
v -0.01860219 -0.02703485 -0.02625083
v -0.01784220 -0.02755209 -0.02536028
v -0.01616796 -0.02859227 -0.02486180
v -0.01585569 -0.02871968 -0.02601559
v -0.01744904 -0.02777078 -0.02651967
v -0.01309790 -0.02701584 -0.02360160
v -0.02408390 -0.02235878 -0.02665969
v -0.03006788 -0.01319680 -0.02639085
v -0.03057768 -0.01203681 -0.02555632
v -0.02892413 -0.01564608 -0.02517545
v -0.03019580 -0.01301995 -0.02517545
v -0.02963709 -0.01422367 -0.02560112
v -0.02844632 -0.01657407 -0.02171410
v -0.02849335 -0.01636869 -0.02595958
v -0.02739287 -0.01819614 -0.02517545
v -0.02743801 -0.01805162 -0.02632364
v -0.02323549 -0.02323733 -0.02422890
v -0.02265986 -0.02375076 -0.02533228
v -0.02138631 -0.02485370 -0.02611641
v -0.02021623 -0.02586916 -0.02422890
v -0.01997168 -0.02601178 -0.02651967
v -0.02901067 -0.01537225 -0.02639085
v -0.02256392 -0.02378499 -0.02658688
f 1 2 3
f 1 3 4
f 1 4 5
f 1 5 6
f 1 6 7
f 1 7 2
f 2 7 22
f 2 22 26
f 2 26 24
f 2 24 8
f 2 8 9
f 2 9 10
f 2 10 11
f 2 11 3
f 3 11 29
f 3 29 33
f 3 33 12
f 3 12 4
f 4 12 13
f 4 13 14
f 4 14 15
f 4 15 16
f 4 16 17
f 4 17 18
f 4 18 19
f 4 19 5
f 5 19 6
f 6 20 21
f 6 21 7
f 6 19 20
f 7 21 23
f 7 23 22
f 8 24 9
f 9 25 10
f 9 24 26
f 9 26 22
f 9 22 27
f 9 27 28
f 9 28 25
f 10 28 11
f 10 25 28
f 11 28 30
f 11 30 31
f 11 31 32
f 11 32 29
f 12 33 34
f 12 34 13
f 13 34 35
f 13 35 14
f 14 35 36
f 14 36 15
f 15 36 37
f 15 37 38
f 15 38 39
f 15 39 16
f 16 39 17
f 17 39 40
f 17 40 41
f 17 41 18
f 18 41 42
f 18 42 43
f 18 43 44
f 18 44 19
f 19 44 20
f 20 45 21
f 20 44 45
f 21 45 46
f 21 46 23
f 22 23 47
f 22 47 27
f 23 46 48
f 23 48 27
f 23 27 47
f 27 48 49
f 27 49 50
f 27 50 28
f 28 50 30
f 29 32 51
f 29 51 33
f 30 50 52
f 30 52 31
f 31 52 53
f 31 53 32
f 32 53 51
f 33 51 54
f 33 54 34
f 34 55 56
f 34 56 35
f 34 54 55
f 35 56 57
f 35 57 48
f 35 48 36
f 36 48 37
f 37 48 58
f 37 58 59
f 37 59 38
f 38 59 39
f 39 59 60
f 39 60 61
f 39 61 40
f 40 61 41
f 41 61 62
f 41 62 42
f 42 62 46
f 42 46 43
f 43 46 44
f 44 46 45
f 46 62 48
f 48 57 63
f 48 63 49
f 48 62 64
f 48 64 59
f 48 59 58
f 49 63 53
f 49 53 52
f 49 52 50
f 51 53 63
f 51 63 55
f 51 55 54
f 55 63 57
f 55 57 56
f 59 64 60
f 60 64 62
f 60 62 61

