# https://github.com/mikedh/trimesh
v -0.03366483 0.00984394 0.03568531
v -0.03293118 0.00999360 0.03565269
v -0.03379920 0.00999360 0.03135493
v -0.03379920 0.00900417 0.03568481
v -0.03330555 -0.00975547 0.03566122
v -0.03230171 0.00999360 0.03556538
v -0.03241952 -0.01124169 0.03561957
v -0.02927265 0.00999360 0.03068857
v -0.03191370 0.00995202 0.03068857
v -0.03207631 0.00943237 0.03068857
v -0.03218243 0.00907484 0.03068857
v -0.03234066 0.00849698 0.03068857
v -0.03249060 0.00786716 0.03068857
v -0.03289369 0.00605667 0.03068857
v -0.03302270 0.00534578 0.03068857
v -0.03345258 -0.00015636 0.03056011
v -0.03344284 -0.00094208 0.03056011
v -0.03380456 -0.00408912 0.03214123
v -0.03380456 -0.00346138 0.03213721
v -0.03380456 -0.00283155 0.03217184
v -0.03380456 0.00000370 0.03233241
v -0.03380456 0.00000370 0.03554079
v -0.03380456 -0.00220173 0.03555786
v -0.03380456 -0.00492681 0.03557742
v -0.03330555 -0.01038530 0.03565922
v -0.03170339 0.00999360 0.03541686
v -0.03179005 -0.01124169 0.03552875
v -0.03317752 -0.01118349 0.03564466
v -0.03330555 -0.01124169 0.03128469
v -0.02931354 0.00999360 0.03116225
v -0.02892797 -0.01124169 0.03242122
v -0.02888172 -0.01124169 0.03182862
v -0.02885251 -0.01124169 0.03116225
v -0.02883158 -0.01124169 0.03055961
v -0.03093858 0.00000370 0.03056011
v -0.03313954 -0.00482288 0.03055961
v -0.03331285 -0.00344475 0.03056011
v -0.03380456 -0.00482080 0.03219341
v -0.03132220 0.00999360 0.03527084
v -0.03106808 -0.01124169 0.03528388
v -0.03325200 -0.00407457 0.03056011
v -0.03305191 -0.00535085 0.03055961
v -0.03284209 -0.00660842 0.03055961
v -0.03272817 -0.00720915 0.03055961
v -0.03257141 -0.00786807 0.03055961
v -0.03241271 -0.00847088 0.03055961
v -0.03224086 -0.00911317 0.03055961
v -0.03207971 -0.00967440 0.03055961
v -0.03184750 -0.01037490 0.03055961
v -0.03158217 -0.01111489 0.03055961
v -0.02937148 0.00999360 0.03179149
v -0.02904043 -0.01124169 0.03295963
v -0.02941675 0.00999360 0.03226768
v -0.02953310 0.00999360 0.03301533
v -0.03058417 -0.00492681 0.03055961
v -0.03088357 0.00999360 0.03497579
v -0.03050969 -0.01124169 0.03496475
v -0.02935152 -0.01124169 0.03367116
v -0.02971226 0.00999360 0.03352966
v -0.03043033 0.00999360 0.03460748
v -0.03013044 -0.01124169 0.03470332
v -0.02956523 -0.01124169 0.03402893
v -0.03002188 0.00999360 0.03407911
v -0.02983786 -0.01124169 0.03437315
f 1 2 3
f 1 3 4
f 1 4 5
f 1 5 2
f 2 6 26
f 2 26 39
f 2 39 56
f 2 56 60
f 2 60 63
f 2 63 59
f 2 59 54
f 2 54 53
f 2 53 51
f 2 51 30
f 2 30 8
f 2 8 3
f 2 5 7
f 2 7 6
f 3 8 9
f 3 9 10
f 3 10 11
f 3 11 12
f 3 12 13
f 3 13 14
f 3 14 15
f 3 15 16
f 3 16 17
f 3 17 18
f 3 18 19
f 3 19 20
f 3 20 21
f 3 21 22
f 3 22 4
f 4 22 23
f 4 23 24
f 4 24 25
f 4 25 5
f 5 25 7
f 6 7 27
f 6 27 26
f 7 25 28
f 7 28 29
f 7 29 34
f 7 34 33
f 7 33 32
f 7 32 31
f 7 31 52
f 7 52 58
f 7 58 62
f 7 62 64
f 7 64 61
f 7 61 57
f 7 57 40
f 7 40 27
f 8 30 31
f 8 31 32
f 8 32 33
f 8 33 34
f 8 34 35
f 8 35 9
f 9 35 16
f 9 16 10
f 10 16 11
f 11 16 12
f 12 16 13
f 13 16 14
f 14 16 15
f 16 35 36
f 16 36 17
f 17 36 37
f 17 37 29
f 17 29 38
f 17 38 18
f 18 38 24
f 18 24 23
f 18 23 22
f 18 22 21
f 18 21 20
f 18 20 19
f 24 38 29
f 24 29 25
f 25 29 28
f 26 27 40
f 26 40 39
f 29 37 41
f 29 41 36
f 29 36 42
f 29 42 43
f 29 43 44
f 29 44 45
f 29 45 46
f 29 46 47
f 29 47 48
f 29 48 49
f 29 49 50
f 29 50 34
f 30 51 31
f 31 51 53
f 31 53 54
f 31 54 52
f 34 50 49
f 34 49 48
f 34 48 47
f 34 47 46
f 34 46 45
f 34 45 44
f 34 44 43
f 34 43 42
f 34 42 36
f 34 36 55
f 34 55 35
f 35 55 36
f 36 41 37
f 39 40 57
f 39 57 56
f 52 54 59
f 52 59 58
f 56 57 61
f 56 61 60
f 58 59 63
f 58 63 62
f 60 61 64
f 60 64 62
f 60 62 63

