# https://github.com/mikedh/trimesh
v -0.02664456 -0.01199623 -0.02987125
v -0.02378823 -0.01162568 -0.02987125
v -0.02633670 -0.01165385 -0.03464062
v -0.02658243 -0.01194269 -0.03381247
v -0.02569475 -0.01381094 -0.03289237
v -0.02605783 -0.01316423 -0.02987125
v -0.02368884 -0.01162568 -0.03337743
v -0.02407124 -0.01162568 -0.03458523
v -0.02518671 -0.01163131 -0.03506222
v -0.01254242 -0.02328744 -0.02987125
v -0.02580381 -0.01257953 -0.03474387
v -0.02530130 -0.01374613 -0.03474387
v -0.02595981 -0.01318678 -0.03381247
v -0.02451440 -0.01577217 -0.03336398
v -0.02513426 -0.01480564 -0.03257832
v -0.02530682 -0.01452386 -0.03131997
v -0.02536204 -0.01442241 -0.03020197
v -0.02440395 -0.01592152 -0.02987125
v -0.01254242 -0.02330716 -0.03173028
v -0.01254242 -0.02332548 -0.03273481
v -0.01254242 -0.02338747 -0.03367857
v -0.01254242 -0.02385806 -0.03455673
v -0.01263353 -0.02508383 -0.03501436
v -0.01813634 -0.02073304 -0.03534347
v -0.02234144 -0.01636534 -0.03536498
v -0.02333128 -0.01578345 -0.03523215
v -0.01302422 -0.02601937 -0.02987125
v -0.01279644 -0.02598837 -0.03416255
v -0.02452406 -0.01538894 -0.03448144
v -0.02342239 -0.01687960 -0.03475516
v -0.02402983 -0.01611032 -0.03456641
v -0.02390834 -0.01666967 -0.03367911
v -0.02454477 -0.01573132 -0.03179212
v -0.02272523 -0.01832798 -0.03273481
v -0.02287846 -0.01790108 -0.02987125
v -0.01479545 -0.02423424 -0.03503480
v -0.01790026 -0.02169111 -0.03530529
v -0.01947683 -0.02018496 -0.03534239
v -0.02137368 -0.01885211 -0.03524506
v -0.01435368 -0.02531490 -0.02987125
v -0.01435920 -0.02521768 -0.03394422
v -0.01514196 -0.02447940 -0.03466105
v -0.02187068 -0.01907331 -0.03457448
v -0.02301376 -0.01789826 -0.03352155
v -0.02234558 -0.01872671 -0.03179212
v -0.02197698 -0.01914094 -0.03367911
v -0.02218544 -0.01873939 -0.02987125
v -0.01685658 -0.02336916 -0.03471429
v -0.01716582 -0.02249562 -0.03520419
v -0.02023889 -0.02074713 -0.03445133
v -0.02101751 -0.02007929 -0.03439702
v -0.01539460 -0.02472596 -0.02987125
v -0.01615527 -0.02414407 -0.03382430
v -0.02067099 -0.02051747 -0.03367857
v -0.02024027 -0.02087252 -0.02987125
v -0.01765315 -0.02293943 -0.03441100
v -0.01821088 -0.02262524 -0.03367857
v -0.01891634 -0.02205885 -0.03353661
v -0.01742398 -0.02337338 -0.02987125
v -0.01608486 -0.02429342 -0.03020251
v -0.01733839 -0.02330998 -0.03367857
v -0.01827853 -0.02268582 -0.03020251
v -0.01960108 -0.02147696 -0.02987125
f 1 2 3
f 1 3 4
f 1 4 5
f 1 5 6
f 1 6 18
f 1 18 35
f 1 35 47
f 1 47 55
f 1 55 63
f 1 63 59
f 1 59 52
f 1 52 40
f 1 40 27
f 1 27 10
f 1 10 2
f 2 7 8
f 2 8 9
f 2 9 3
f 2 10 7
f 3 9 11
f 3 11 12
f 3 12 4
f 4 12 13
f 4 13 5
f 5 13 14
f 5 14 15
f 5 15 16
f 5 16 6
f 6 16 17
f 6 17 18
f 7 10 19
f 7 19 20
f 7 20 21
f 7 21 8
f 8 21 22
f 8 22 9
f 9 22 23
f 9 23 24
f 9 24 25
f 9 25 26
f 9 26 11
f 10 27 28
f 10 28 23
f 10 23 22
f 10 22 21
f 10 21 20
f 10 20 19
f 11 26 12
f 12 29 13
f 12 26 30
f 12 30 31
f 12 31 29
f 13 29 14
f 14 32 33
f 14 33 15
f 14 29 32
f 15 33 16
f 16 33 17
f 17 33 18
f 18 33 32
f 18 32 34
f 18 34 35
f 23 28 36
f 23 36 37
f 23 37 24
f 24 37 38
f 24 38 25
f 25 39 26
f 25 38 39
f 26 39 30
f 27 40 41
f 27 41 28
f 28 41 42
f 28 42 36
f 29 31 32
f 30 32 31
f 30 39 43
f 30 43 32
f 32 43 44
f 32 44 34
f 34 45 35
f 34 44 46
f 34 46 45
f 35 45 47
f 36 42 48
f 36 48 49
f 36 49 37
f 37 49 39
f 37 39 38
f 39 49 48
f 39 48 50
f 39 50 51
f 39 51 43
f 40 52 41
f 41 52 53
f 41 53 42
f 42 53 48
f 43 51 46
f 43 46 44
f 45 46 54
f 45 54 55
f 45 55 47
f 46 51 54
f 48 53 56
f 48 56 50
f 50 56 57
f 50 57 58
f 50 58 54
f 50 54 51
f 52 59 60
f 52 60 53
f 53 60 59
f 53 59 61
f 53 61 56
f 54 58 62
f 54 62 63
f 54 63 55
f 56 61 57
f 57 62 58
f 57 61 59
f 57 59 62
f 59 63 62

