# https://github.com/mikedh/trimesh
v 0.06774820 0.04742459 -0.00032498
v 0.07312369 0.04541189 -0.00032498
v 0.07312369 0.05110256 -0.00483904
v 0.07124364 0.05043965 -0.00470935
v 0.06779135 0.04882230 -0.00515494
v 0.06774820 0.04283213 -0.01279808
v 0.06774820 0.01030549 -0.00229687
v 0.06775083 0.01043328 -0.00064421
v 0.07308633 0.01302902 -0.00093018
v 0.07312369 0.01408729 -0.00627888
v 0.07312369 0.04823526 -0.01022931
v 0.07293532 0.05048757 -0.00770709
v 0.07137992 0.05036776 -0.00656485
v 0.06824492 0.04855075 -0.00731304
v 0.06795920 0.04717301 -0.00905715
v 0.07022495 0.04555566 -0.01145800
v 0.07049277 0.04412201 -0.01278312
v 0.06774820 0.04137452 -0.01383390
v 0.06774820 0.01040533 -0.00395285
v 0.06982662 0.01136775 -0.00325621
v 0.07305160 0.01307295 -0.00357211
v 0.07153672 0.01294916 -0.00579339
v 0.06799972 0.01146359 -0.00644348
v 0.06774820 0.01294916 -0.00888423
v 0.06979453 0.01463439 -0.00971888
v 0.07239440 0.01631164 -0.01006304
v 0.07290427 0.01822051 -0.01176060
v 0.07312369 0.02026116 -0.01327027
v 0.07039122 0.04852678 -0.00879113
v 0.07312369 0.04613471 -0.01204491
v 0.07312369 0.04482885 -0.01305080
v 0.07063537 0.04167802 -0.01435930
v 0.06774820 0.03994087 -0.01467686
v 0.06965351 0.01146359 -0.00433692
v 0.06774820 0.01442274 -0.01074140
v 0.07047962 0.01657521 -0.01153115
v 0.07042489 0.01846810 -0.01314391
v 0.06895053 0.01985383 -0.01471510
v 0.07312369 0.02278502 -0.01489965
v 0.07312369 0.03811986 -0.01621812
v 0.07269117 0.04229700 -0.01442746
v 0.06838067 0.03815580 -0.01563454
v 0.06838067 0.03660634 -0.01625304
v 0.06774820 0.03166245 -0.01710098
v 0.06774820 0.01623976 -0.01249714
v 0.06774820 0.01840820 -0.01417641
v 0.06810390 0.02240165 -0.01614330
v 0.07290585 0.02619942 -0.01630791
v 0.07312369 0.03328379 -0.01694137
v 0.07312369 0.03653446 -0.01657060
v 0.06838067 0.03490513 -0.01671193
v 0.07269117 0.03977714 -0.01560794
v 0.06838067 0.03328379 -0.01696299
v 0.07063537 0.03328379 -0.01699458
v 0.07063537 0.03166245 -0.01712925
v 0.06774820 0.03004111 -0.01722901
v 0.06774820 0.02517310 -0.01695966
v 0.07269117 0.02841977 -0.01686655
v 0.07312369 0.03490513 -0.01679340
v 0.07269117 0.03085178 -0.01705443
v 0.07063537 0.03490513 -0.01679007
v 0.07063537 0.03004111 -0.01718245
v 0.06774820 0.02841977 -0.01731048
v 0.06774820 0.02679843 -0.01724563
f 1 2 3
f 1 3 4
f 1 4 5
f 1 5 6
f 1 6 18
f 1 18 33
f 1 33 44
f 1 44 56
f 1 56 63
f 1 63 64
f 1 64 57
f 1 57 46
f 1 46 45
f 1 45 35
f 1 35 24
f 1 24 19
f 1 19 7
f 1 7 8
f 1 8 2
f 2 8 9
f 2 9 10
f 2 10 28
f 2 28 39
f 2 39 49
f 2 49 59
f 2 59 50
f 2 50 40
f 2 40 31
f 2 31 30
f 2 30 11
f 2 11 3
f 3 11 12
f 3 12 13
f 3 13 4
f 4 13 5
f 5 13 14
f 5 14 15
f 5 15 6
f 6 15 16
f 6 16 17
f 6 17 18
f 7 19 20
f 7 20 9
f 7 9 8
f 9 20 21
f 9 21 10
f 10 21 22
f 10 22 23
f 10 23 24
f 10 24 25
f 10 25 26
f 10 26 27
f 10 27 28
f 11 29 12
f 11 30 16
f 11 16 15
f 11 15 29
f 12 29 14
f 12 14 13
f 14 29 15
f 16 30 17
f 17 31 18
f 17 30 31
f 18 32 33
f 18 31 32
f 19 23 34
f 19 34 21
f 19 21 20
f 19 24 23
f 21 34 22
f 22 34 23
f 24 35 25
f 25 35 26
f 26 35 36
f 26 36 27
f 27 37 28
f 27 36 37
f 28 37 38
f 28 38 39
f 31 40 41
f 31 41 32
f 32 41 33
f 33 41 42
f 33 42 43
f 33 43 44
f 35 45 36
f 36 45 37
f 37 45 46
f 37 46 38
f 38 46 47
f 38 47 39
f 39 47 48
f 39 48 49
f 40 50 51
f 40 51 43
f 40 43 52
f 40 52 41
f 41 52 42
f 42 52 43
f 43 51 44
f 44 51 53
f 44 53 54
f 44 54 55
f 44 55 56
f 46 57 47
f 47 57 48
f 48 57 58
f 48 58 49
f 49 54 59
f 49 58 60
f 49 60 55
f 49 55 54
f 50 59 61
f 50 61 51
f 51 61 53
f 53 61 54
f 54 61 59
f 55 60 62
f 55 62 63
f 55 63 56
f 57 64 58
f 58 64 60
f 60 64 62
f 62 64 63

