# https://github.com/mikedh/trimesh
v 0.01055304 -0.00243102 0.00930043
v 0.01055304 -0.00405688 0.00902937
v 0.02047857 0.00090718 0.00898694
v 0.02047857 0.01226053 0.00898694
v 0.01055401 -0.00080862 0.00912836
v 0.01055401 0.00894309 0.00750908
v 0.01055304 0.01172089 0.00625984
v 0.01055304 -0.00598024 0.00820912
v 0.01867339 -0.00215428 0.00837411
v 0.02041153 -0.00149356 0.00825154
v 0.02047857 -0.00352761 0.00680903
v 0.02047857 0.01392099 0.00873474
v 0.02047857 0.01532545 0.00810069
v 0.02047857 0.01727303 0.00654740
v 0.02047857 0.01843188 0.00532645
v 0.01055304 0.01334675 0.00452742
v 0.01818470 -0.00307445 0.00800405
v 0.01055304 -0.01141131 0.00389573
v 0.01055401 -0.00889295 0.00639891
v 0.01055401 -0.01018672 0.00529581
v 0.02047857 -0.00467609 0.00534060
v 0.02047857 0.01946275 0.00389337
v 0.01096207 0.01444334 0.00292934
v 0.01055304 0.01498644 -0.00243765
v 0.01055304 -0.01241450 0.00260642
v 0.01055304 -0.01332083 0.00105785
v 0.01055304 -0.01398847 -0.00059444
v 0.02047857 -0.00679317 -0.00012068
v 0.02047857 0.02073230 0.00074672
v 0.01985676 0.01991246 0.00224108
v 0.02047857 0.02095716 -0.00081365
v 0.02047857 0.02089489 -0.00243765
v 0.01062202 0.01496223 -0.00405694
v 0.01055401 0.01166554 -0.01167726
v 0.01055304 0.00730685 -0.01422994
v 0.01055304 -0.01433786 -0.00243765
v 0.02047857 -0.00703532 -0.00231037
v 0.02047857 0.02047286 -0.00485598
v 0.01081536 0.01461630 -0.00568094
v 0.01084839 0.01278980 -0.01021825
v 0.01243010 0.01070040 -0.01306085
v 0.01063853 0.00969029 -0.01315513
v 0.02047857 0.01864290 -0.00923065
v 0.02047857 0.01754977 -0.01053410
v 0.02047857 0.01585818 -0.01197189
v 0.02020944 0.01413892 -0.01306556
v 0.02047857 0.01217751 -0.01395888
v 0.01055304 0.00577439 -0.01447272
v 0.01055304 -0.01438283 -0.00405694
v 0.02047857 -0.00656486 -0.00730259
v 0.02047857 0.01974295 -0.00730259
v 0.02047857 0.01055165 -0.01408852
v 0.01055304 -0.00332005 -0.01477442
v 0.01055304 -0.01389507 -0.00634563
v 0.01975766 -0.00640919 -0.00920708
v 0.02022207 -0.00488711 -0.01078630
v 0.02038724 -0.00243794 -0.01237023
v 0.02047857 -0.00080516 -0.01269079
v 0.01055304 -0.00568620 -0.01428651
v 0.01055304 -0.01237299 -0.00924951
v 0.01055304 -0.01092355 -0.01085230
v 0.01055304 -0.00917661 -0.01226888
v 0.01553329 -0.00485252 -0.01301606
v 0.01055304 -0.00731206 -0.01346862
f 1 2 3
f 1 3 4
f 1 4 5
f 1 5 6
f 1 6 7
f 1 7 16
f 1 16 24
f 1 24 35
f 1 35 48
f 1 48 53
f 1 53 59
f 1 59 64
f 1 64 62
f 1 62 61
f 1 61 60
f 1 60 54
f 1 54 49
f 1 49 36
f 1 36 27
f 1 27 26
f 1 26 25
f 1 25 18
f 1 18 8
f 1 8 2
f 2 8 9
f 2 9 3
f 3 9 10
f 3 10 11
f 3 11 21
f 3 21 28
f 3 28 37
f 3 37 50
f 3 50 58
f 3 58 52
f 3 52 47
f 3 47 45
f 3 45 44
f 3 44 43
f 3 43 51
f 3 51 38
f 3 38 32
f 3 32 31
f 3 31 29
f 3 29 22
f 3 22 15
f 3 15 14
f 3 14 13
f 3 13 12
f 3 12 4
f 4 12 5
f 5 12 6
f 6 12 7
f 7 12 13
f 7 13 14
f 7 14 15
f 7 15 16
f 8 17 9
f 8 18 19
f 8 19 17
f 9 17 10
f 10 17 11
f 11 17 19
f 11 19 20
f 11 20 18
f 11 18 21
f 15 22 16
f 16 22 23
f 16 23 24
f 18 25 21
f 18 20 19
f 21 25 26
f 21 26 27
f 21 27 28
f 22 29 30
f 22 30 23
f 23 30 29
f 23 29 24
f 24 29 31
f 24 31 32
f 24 32 33
f 24 33 34
f 24 34 35
f 27 36 28
f 28 36 37
f 32 38 33
f 33 39 40
f 33 40 34
f 33 38 39
f 34 41 42
f 34 42 35
f 34 40 43
f 34 43 44
f 34 44 45
f 34 45 41
f 35 42 41
f 35 41 46
f 35 46 47
f 35 47 48
f 36 49 37
f 37 49 50
f 38 51 39
f 39 51 40
f 40 51 43
f 41 45 46
f 45 47 46
f 47 52 48
f 48 52 53
f 49 54 50
f 50 54 55
f 50 55 56
f 50 56 57
f 50 57 58
f 52 58 53
f 53 58 59
f 54 60 55
f 55 60 56
f 56 60 61
f 56 61 62
f 56 62 63
f 56 63 57
f 57 63 59
f 57 59 58
f 59 63 64
f 62 64 63

