# https://github.com/mikedh/trimesh
v 0.07310633 0.03471696 0.01786145
v 0.06838067 0.03337754 0.01751075
v 0.06838067 0.03094521 0.01750897
v 0.07312369 0.03146290 0.01764070
v 0.07312369 0.04242479 0.01594062
v 0.07290743 0.04026775 0.01672035
v 0.07269117 0.03726432 0.01749651
v 0.06774820 0.03580986 0.01694109
v 0.06774820 0.02697625 0.01709774
v 0.06838067 0.02850878 0.01729713
v 0.07063537 0.02923191 0.01741996
v 0.07290743 0.02894841 0.01729891
v 0.07312369 0.02183222 0.01453427
v 0.07312369 0.04399430 0.01509681
v 0.07007288 0.04256448 0.01484580
v 0.06774820 0.03996782 0.01541725
v 0.07087741 0.04036636 0.01622901
v 0.06774820 0.03833668 0.01617204
v 0.06774820 0.02535334 0.01678799
v 0.07063537 0.02679548 0.01700339
v 0.07269117 0.02663935 0.01677553
v 0.07269117 0.02509449 0.01622011
v 0.07269117 0.02354964 0.01551338
v 0.06838120 0.01955192 0.01431531
v 0.06930149 0.01827413 0.01320803
v 0.07312369 0.02014767 0.01334510
v 0.07312369 0.04538302 0.01420137
v 0.06791816 0.04156198 0.01460370
v 0.06784660 0.04357111 0.01310478
v 0.06774820 0.04479549 0.01200106
v 0.06774820 0.02282241 0.01598869
v 0.06793500 0.01739898 0.01294456
v 0.06952302 0.01441610 0.00993604
v 0.07312369 0.01594863 0.00979184
v 0.07312369 0.04705935 0.01300331
v 0.06901262 0.04495983 0.01256894
v 0.07310896 0.04875622 0.01134239
v 0.06776556 0.04643895 0.01016390
v 0.06774820 0.04917942 0.00626885
v 0.06774820 0.01375872 0.00992002
v 0.06796288 0.01234534 0.00800987
v 0.06968824 0.01305203 0.00797605
v 0.07311369 0.01449006 0.00751676
v 0.07312369 0.01347111 0.00243610
v 0.07312369 0.04541178 -0.00032498
v 0.07307265 0.05244991 0.00460615
v 0.07301372 0.05035860 0.00910647
v 0.07039017 0.05058047 0.00631869
v 0.06774820 0.04995184 0.00406141
v 0.06774820 0.01075529 0.00175606
v 0.06784028 0.01146609 0.00573479
v 0.07015601 0.01285481 0.00689369
v 0.07196293 0.01344646 0.00568494
v 0.06932254 0.01161400 0.00243610
v 0.06955669 0.01149896 0.00081434
v 0.07305266 0.01314653 0.00024468
v 0.06774820 0.04742091 -0.00032498
v 0.07298478 0.05172679 0.00243788
v 0.06775714 0.01048001 -0.00032498
v 0.07063537 0.05144740 0.00406141
v 0.07266591 0.05167337 0.00634895
v 0.06923099 0.05067497 0.00346149
v 0.06774820 0.04922051 0.00190560
v 0.06803234 0.01121135 0.00373920
f 1 2 3
f 1 3 4
f 1 4 5
f 1 5 6
f 1 6 7
f 1 7 2
f 2 7 8
f 2 8 9
f 2 9 3
f 3 9 10
f 3 10 11
f 3 11 4
f 4 11 12
f 4 12 13
f 4 13 26
f 4 26 34
f 4 34 44
f 4 44 45
f 4 45 35
f 4 35 27
f 4 27 14
f 4 14 5
f 5 14 15
f 5 15 16
f 5 16 17
f 5 17 6
f 6 18 8
f 6 8 7
f 6 17 18
f 8 18 16
f 8 16 30
f 8 30 39
f 8 39 49
f 8 49 63
f 8 63 57
f 8 57 50
f 8 50 40
f 8 40 31
f 8 31 19
f 8 19 9
f 9 19 20
f 9 20 11
f 9 11 10
f 11 20 12
f 12 20 21
f 12 21 13
f 13 21 22
f 13 22 23
f 13 23 24
f 13 24 25
f 13 25 26
f 14 27 15
f 15 28 16
f 15 27 28
f 16 18 17
f 16 28 29
f 16 29 30
f 19 31 20
f 20 31 21
f 21 31 22
f 22 31 23
f 23 31 24
f 24 32 25
f 24 31 32
f 25 32 33
f 25 33 26
f 26 33 34
f 27 35 28
f 28 35 29
f 29 36 30
f 29 35 36
f 30 36 35
f 30 35 37
f 30 37 38
f 30 38 39
f 31 40 32
f 32 40 33
f 33 40 41
f 33 41 42
f 33 42 34
f 34 42 43
f 34 43 44
f 35 45 37
f 37 45 46
f 37 46 47
f 37 47 38
f 38 47 39
f 39 47 48
f 39 48 49
f 40 50 51
f 40 51 41
f 41 51 42
f 42 51 52
f 42 52 43
f 43 52 53
f 43 53 44
f 44 53 54
f 44 54 55
f 44 55 56
f 44 56 45
f 45 57 58
f 45 58 46
f 45 56 59
f 45 59 57
f 46 58 60
f 46 60 48
f 46 48 61
f 46 61 47
f 47 61 48
f 48 60 49
f 49 60 62
f 49 62 63
f 50 59 55
f 50 55 54
f 50 54 64
f 50 64 51
f 50 57 59
f 51 64 53
f 51 53 52
f 53 64 54
f 55 59 56
f 57 63 58
f 58 62 60
f 58 63 62

