# https://github.com/mikedh/trimesh
v 0.10041944 -0.05790358 0.00923727
v 0.09779406 -0.07541911 0.01176291
v 0.10041944 -0.06216245 0.01000948
v 0.10179205 -0.05865283 0.00884198
v 0.10041944 -0.05790358 0.00884286
v 0.09921024 -0.05790358 0.00884286
v 0.07896247 -0.05865283 0.00341554
v 0.07768065 -0.06013246 0.00341554
v 0.06643472 -0.07335654 0.00341554
v 0.06469899 -0.07541739 0.00341554
v 0.10007084 -0.07541911 0.01230599
v 0.10041944 -0.07487560 0.01231298
v 0.09630889 -0.07541911 0.01138598
v 0.10041944 -0.07541911 0.01234971
v 0.10041944 -0.07541911 0.01142272
v 0.10041944 -0.07068360 0.01054119
v 0.10041944 -0.06321516 0.00916731
v 0.10041944 -0.06154693 0.00888396
v 0.10041944 -0.06128804 0.00884286
v 0.09534298 -0.06009645 0.00714278
v 0.09671195 -0.05865283 0.00732730
v 0.09471841 -0.05865283 0.00675186
v 0.08679505 -0.05865283 0.00459440
v 0.08649003 -0.05865283 0.00451220
v 0.08640287 -0.05865283 0.00448946
v 0.08304035 -0.05865283 0.00361668
v 0.08225237 -0.05865283 0.00341641
v 0.08103228 -0.05865283 0.00341554
v 0.06867882 -0.07541739 0.00341554
v 0.08762297 -0.07541911 0.00884286
v 0.09669016 -0.07541911 0.01034617
v 0.09677368 -0.07475730 0.01021674
v 0.09688988 -0.06850788 0.00899065
v 0.10029961 -0.06151607 0.00884286
v 0.08900284 -0.06678650 0.00656122
v 0.08661349 -0.05873512 0.00455680
v 0.08376297 -0.06958117 0.00562285
v 0.08103228 -0.06043250 0.00341554
v 0.07165280 -0.07541739 0.00404083
v 0.09107264 -0.07541911 0.00884286
v 0.07266955 -0.07170031 0.00341554
v 0.07286201 -0.07165059 0.00344440
v 0.07238994 -0.07313537 0.00367877
v 0.09594576 -0.07541911 0.01013541
v 0.09332764 -0.07541911 0.00943054
v 0.09369077 -0.07359657 0.00913932
v 0.08645734 -0.07541739 0.00763863
v 0.08305487 -0.07121682 0.00580912
v 0.07284748 -0.07152372 0.00341554
v 0.08054933 -0.06113545 0.00341554
v 0.08216160 -0.07315080 0.00601813
v 0.08026609 -0.07541739 0.00611258
v 0.08600344 -0.07541739 0.00752407
f 1 2 3
f 1 3 4
f 1 4 5
f 1 5 6
f 1 6 7
f 1 7 8
f 1 8 9
f 1 9 10
f 1 10 2
f 2 11 12
f 2 12 3
f 2 10 13
f 2 13 30
f 2 30 40
f 2 40 45
f 2 45 44
f 2 44 31
f 2 31 15
f 2 15 14
f 2 14 11
f 3 12 4
f 4 12 14
f 4 14 15
f 4 15 16
f 4 16 17
f 4 17 18
f 4 18 19
f 4 19 20
f 4 20 21
f 4 21 5
f 5 21 22
f 5 22 23
f 5 23 24
f 5 24 25
f 5 25 26
f 5 26 27
f 5 27 28
f 5 28 7
f 5 7 6
f 7 28 38
f 7 38 50
f 7 50 49
f 7 49 41
f 7 41 29
f 7 29 10
f 7 10 9
f 7 9 8
f 10 29 40
f 10 40 30
f 10 30 13
f 11 14 12
f 15 31 32
f 15 32 33
f 15 33 16
f 16 33 17
f 17 33 18
f 18 33 34
f 18 34 19
f 19 34 20
f 20 22 21
f 20 34 33
f 20 33 35
f 20 35 36
f 20 36 22
f 22 36 23
f 23 36 24
f 24 36 25
f 25 36 26
f 26 36 37
f 26 37 27
f 27 37 38
f 27 38 28
f 29 39 40
f 29 41 42
f 29 42 43
f 29 43 39
f 31 44 32
f 32 44 45
f 32 45 46
f 32 46 33
f 33 46 37
f 33 37 35
f 35 37 36
f 37 45 47
f 37 47 48
f 37 48 42
f 37 42 49
f 37 49 50
f 37 50 38
f 37 46 45
f 39 43 51
f 39 51 52
f 39 52 40
f 40 52 53
f 40 53 47
f 40 47 45
f 41 49 42
f 42 48 51
f 42 51 43
f 47 53 51
f 47 51 48
f 51 53 52

