# https://github.com/mikedh/trimesh
v 0.06625070 -0.09328263 0.00801006
v 0.07578406 -0.09512979 0.01068612
v 0.07578406 -0.09512979 0.00961714
v 0.07562022 -0.09512979 0.00957593
v 0.07487408 -0.09512979 0.00940310
v 0.07382294 -0.09512979 0.00916466
v 0.07325830 -0.09513184 0.00903663
v 0.06976459 -0.09513184 0.00828930
v 0.06845381 -0.09513184 0.00801045
v 0.06625070 -0.09513184 0.00801006
v 0.05003491 -0.10395419 0.00801006
v 0.07578406 -0.09808154 0.01148506
v 0.05003239 -0.11428635 0.01136624
v 0.07578406 -0.09660669 0.00996120
v 0.07381790 -0.10342966 0.01074053
v 0.06653554 -0.09665400 0.00801045
v 0.06623053 -0.09688027 0.00801006
v 0.07080312 -0.10551954 0.01056290
v 0.05003491 -0.10714455 0.00801006
v 0.05003239 -0.11233634 0.00964634
v 0.05003239 -0.11233634 0.01070613
v 0.07578406 -0.09956256 0.01185833
v 0.05003239 -0.11429458 0.01136744
v 0.07578406 -0.10009942 0.01104499
v 0.07382294 -0.10342966 0.01080654
v 0.06623053 -0.10876955 0.01052930
v 0.06507604 -0.09776682 0.00801006
v 0.05118940 -0.10657682 0.00801006
v 0.05579980 -0.11428429 0.01009282
v 0.05003491 -0.11219030 0.00959273
v 0.05003239 -0.11429458 0.01033086
v 0.07075018 -0.10473789 0.01209677
v 0.07080312 -0.10471732 0.01209677
v 0.07381790 -0.10342966 0.01207877
v 0.07578406 -0.09959135 0.01185873
v 0.05579980 -0.11429458 0.01185953
v 0.07578406 -0.10009942 0.01186073
v 0.07382294 -0.10342966 0.01202156
v 0.06623053 -0.10876955 0.01197595
v 0.05579980 -0.11429458 0.01040487
v 0.05876164 -0.10217902 0.00801006
v 0.05243211 -0.10593917 0.00801006
v 0.05366222 -0.11429458 0.01023244
v 0.05446633 -0.10478109 0.00801006
v 0.07046786 -0.10551954 0.01208797
v 0.07080312 -0.10551954 0.01208677
f 1 2 3
f 1 3 4
f 1 4 5
f 1 5 6
f 1 6 7
f 1 7 8
f 1 8 9
f 1 9 10
f 1 10 17
f 1 17 27
f 1 27 41
f 1 41 44
f 1 44 42
f 1 42 28
f 1 28 19
f 1 19 11
f 1 11 2
f 2 12 22
f 2 22 35
f 2 35 37
f 2 37 24
f 2 24 14
f 2 14 3
f 2 11 13
f 2 13 12
f 3 14 15
f 3 15 4
f 4 15 5
f 5 15 7
f 5 7 6
f 7 15 8
f 8 15 9
f 9 16 17
f 9 17 10
f 9 15 18
f 9 18 16
f 11 19 20
f 11 20 21
f 11 21 13
f 12 13 22
f 13 21 20
f 13 20 31
f 13 31 23
f 13 23 22
f 14 24 15
f 15 25 26
f 15 26 18
f 15 24 25
f 16 27 17
f 16 18 27
f 18 26 27
f 19 28 29
f 19 29 30
f 19 30 20
f 20 30 31
f 22 32 33
f 22 33 34
f 22 34 35
f 22 23 32
f 23 36 32
f 23 31 43
f 23 43 40
f 23 40 36
f 24 37 38
f 24 38 25
f 25 38 39
f 25 39 26
f 26 39 36
f 26 36 40
f 26 40 29
f 26 29 27
f 27 29 41
f 28 42 29
f 29 40 43
f 29 43 31
f 29 31 30
f 29 42 44
f 29 44 41
f 32 45 46
f 32 46 33
f 32 36 45
f 33 46 34
f 34 46 39
f 34 39 38
f 34 38 37
f 34 37 35
f 36 39 46
f 36 46 45

