# https://github.com/mikedh/trimesh
v 0.06861474 0.11078023 0.00999895
v 0.06861474 0.11064771 0.01039089
v 0.07146040 0.10895348 0.01079973
v 0.06984491 0.11010335 0.00999895
v 0.08673544 0.09351579 0.00877831
v 0.06861474 0.09862499 0.00907276
v 0.06861268 0.10773428 0.00999895
v 0.06861268 0.10773428 0.01242685
v 0.06861474 0.10952841 0.01222675
v 0.07402581 0.10736934 0.01078990
v 0.07500665 0.10659868 0.00999895
v 0.08850959 0.09627427 0.01021045
v 0.08868062 0.09603573 0.01021045
v 0.08966352 0.09434354 0.01021045
v 0.08966352 0.08995199 0.01021045
v 0.07963470 0.08995607 0.00918244
v 0.06861474 0.09862499 0.01009605
v 0.06861268 0.10447018 0.01084258
v 0.06861268 0.10682294 0.00999895
v 0.06861474 0.10915328 0.01228061
v 0.06861268 0.10683721 0.01251884
v 0.07320364 0.10458028 0.01262655
v 0.06919995 0.10910231 0.01225820
v 0.08012511 0.10256596 0.01157457
v 0.08224132 0.10123871 0.01062951
v 0.08196315 0.10152210 0.01022971
v 0.08826233 0.09647203 0.01021045
v 0.08855905 0.09627427 0.01028553
v 0.08966352 0.09466159 0.01103560
v 0.08966352 0.08995199 0.01274645
v 0.08907419 0.08995199 0.01021045
v 0.07963470 0.08995607 0.01010509
v 0.08673338 0.08995199 0.01106823
v 0.08529097 0.08995403 0.01179707
v 0.06861474 0.10186054 0.01112877
v 0.06861268 0.10447018 0.01189850
v 0.06861474 0.10364448 0.01169604
v 0.08606781 0.08995403 0.01197555
v 0.08966352 0.09016607 0.01279402
v 0.07729183 0.10109192 0.01268395
v 0.07722382 0.10114900 0.01268316
v 0.07395987 0.10393195 0.01263717
v 0.08289658 0.09759336 0.01276532
v 0.08302022 0.09751384 0.01276650
v 0.08222278 0.09862295 0.01260768
v 0.08072062 0.10070251 0.01230773
v 0.07224547 0.10707372 0.01220159
v 0.07722589 0.10392583 0.01198380
v 0.08331076 0.09918157 0.01201997
v 0.08966352 0.09394801 0.01168739
v 0.08673338 0.08995199 0.01210056
v 0.08966352 0.09075323 0.01274056
v 0.08668805 0.09491440 0.01272758
v 0.07635014 0.10433359 0.01210685
v 0.07614820 0.10447018 0.01211117
v 0.08673338 0.09488789 0.01272090
v 0.08673338 0.09490217 0.01271265
v 0.08966352 0.09297143 0.01225191
f 1 2 3
f 1 3 4
f 1 4 5
f 1 5 6
f 1 6 7
f 1 7 8
f 1 8 2
f 2 8 9
f 2 9 3
f 3 9 10
f 3 10 4
f 4 10 11
f 4 11 5
f 5 12 13
f 5 13 14
f 5 14 15
f 5 15 16
f 5 16 6
f 5 11 12
f 6 16 32
f 6 32 17
f 6 17 36
f 6 36 18
f 6 18 19
f 6 19 7
f 7 19 18
f 7 18 36
f 7 36 21
f 7 21 8
f 8 20 9
f 8 21 22
f 8 22 20
f 9 20 23
f 9 23 24
f 9 24 10
f 10 24 25
f 10 25 26
f 10 26 11
f 11 26 27
f 11 27 12
f 12 28 13
f 12 27 26
f 12 26 28
f 13 28 14
f 14 29 50
f 14 50 58
f 14 58 52
f 14 52 39
f 14 39 30
f 14 30 15
f 14 28 29
f 15 30 51
f 15 51 33
f 15 33 31
f 15 31 16
f 16 31 33
f 16 33 51
f 16 51 32
f 17 32 34
f 17 34 35
f 17 35 36
f 20 22 23
f 21 36 37
f 21 37 38
f 21 38 30
f 21 30 39
f 21 39 40
f 21 40 41
f 21 41 42
f 21 42 22
f 22 42 41
f 22 41 43
f 22 43 44
f 22 44 23
f 23 44 45
f 23 45 46
f 23 46 47
f 23 47 24
f 24 47 48
f 24 48 46
f 24 46 49
f 24 49 50
f 24 50 29
f 24 29 28
f 24 28 25
f 25 28 26
f 30 38 51
f 32 51 34
f 34 51 38
f 34 38 37
f 34 37 35
f 35 37 36
f 39 52 53
f 39 53 44
f 39 44 43
f 39 43 40
f 40 43 41
f 44 53 45
f 45 53 46
f 46 53 49
f 46 48 54
f 46 54 55
f 46 55 47
f 47 55 48
f 48 55 54
f 49 53 56
f 49 56 57
f 49 57 50
f 50 57 56
f 50 56 58
f 52 58 56
f 52 56 53

