# https://github.com/mikedh/trimesh
v 0.09190098 -0.01930961 0.00141904
v 0.09217684 -0.01928464 0.00177570
v 0.09191271 -0.01887572 0.00141904
v 0.09201249 -0.02098897 0.00141904
v 0.09313689 -0.02098897 0.00255934
v 0.09548294 0.01089406 0.00276834
v 0.09377161 0.01089406 0.00144970
v 0.09415144 -0.00025907 0.00141923
v 0.09418750 -0.00025907 0.00141904
v 0.09276964 -0.02098897 0.00141904
v 0.09372801 -0.02098897 0.00290194
v 0.09747013 0.01089406 0.00341428
v 0.09521212 -0.02098897 0.00341428
v 0.09511317 0.01089406 0.00144970
v 0.09519786 -0.00025907 0.00141904
v 0.09286522 -0.02056133 0.00141904
v 0.09385965 -0.01665008 0.00141923
v 0.09867586 -0.01826390 0.00341448
v 0.09859704 -0.01855108 0.00341448
v 0.09822643 -0.01989333 0.00341448
v 0.09784996 -0.02098897 0.00341448
v 0.10024045 0.01089406 0.00341428
v 0.09523559 -0.02098897 0.00341448
v 0.09553325 -0.01855108 0.00341448
v 0.09584181 -0.01621620 0.00341448
v 0.09601286 -0.01514240 0.00341448
v 0.09687229 -0.01050072 0.00341448
v 0.09552654 0.00913665 0.00144970
v 0.09543012 -0.00027156 0.00141904
v 0.09491613 -0.01075669 0.00141904
v 0.09978348 -0.01075981 0.00341428
v 0.09906491 -0.01528599 0.00341448
v 0.10024380 0.01085972 0.00341428
v 0.10037377 0.00897121 0.00341428
v 0.10046097 0.00431081 0.00341428
v 0.10046516 0.00285931 0.00341428
v 0.09551565 0.00009678 0.00144970
v 0.09530770 -0.00808156 0.00141904
v 0.10034862 -0.00279373 0.00341428
v 0.10040228 -0.00025907 0.00341428
f 1 2 3
f 1 3 9
f 1 9 15
f 1 15 29
f 1 29 38
f 1 38 30
f 1 30 16
f 1 16 10
f 1 10 4
f 1 4 2
f 2 4 5
f 2 5 6
f 2 6 7
f 2 7 3
f 3 7 8
f 3 8 9
f 4 10 21
f 4 21 23
f 4 23 13
f 4 13 11
f 4 11 5
f 5 11 6
f 6 12 22
f 6 22 14
f 6 14 7
f 6 11 13
f 6 13 12
f 7 14 15
f 7 15 9
f 7 9 8
f 10 16 17
f 10 17 18
f 10 18 19
f 10 19 20
f 10 20 21
f 12 13 23
f 12 23 24
f 12 24 25
f 12 25 26
f 12 26 27
f 12 27 22
f 14 22 28
f 14 28 29
f 14 29 15
f 16 30 17
f 17 30 18
f 18 30 31
f 18 31 32
f 18 32 27
f 18 27 26
f 18 26 25
f 18 25 24
f 18 24 23
f 18 23 21
f 18 21 20
f 18 20 19
f 22 27 32
f 22 32 33
f 22 33 28
f 28 33 34
f 28 34 35
f 28 35 36
f 28 36 37
f 28 37 29
f 29 37 38
f 30 38 31
f 31 38 39
f 31 39 32
f 32 39 40
f 32 40 36
f 32 36 35
f 32 35 34
f 32 34 33
f 36 40 38
f 36 38 37
f 38 40 39

