# https://github.com/mikedh/trimesh
v 0.10576031 -0.07541938 0.01018104
v 0.10570207 -0.07541938 0.01036350
v 0.10538522 -0.07598494 0.01020006
v 0.10367592 -0.07823894 0.00991821
v 0.10304907 -0.07906248 0.00981456
v 0.10125070 -0.08137104 0.00947331
v 0.10274421 -0.07820752 0.00902531
v 0.10430792 -0.07541938 0.00889021
v 0.10506666 -0.07541938 0.01180923
v 0.10492107 -0.07563766 0.01180185
v 0.09959108 -0.08411453 0.01039689
v 0.09987710 -0.08364488 0.01023733
v 0.09880665 -0.08304458 0.00877064
v 0.09599778 -0.08678690 0.00911343
v 0.09219896 -0.09059703 0.00878500
v 0.10386775 -0.07541938 0.00895659
v 0.09941809 -0.08088320 0.00888050
v 0.10276989 -0.07541938 0.01273669
v 0.09818664 -0.08275022 0.01250647
v 0.10226464 -0.07926919 0.01168539
v 0.09987710 -0.08359692 0.01053432
v 0.09792117 -0.08535646 0.00979981
v 0.09792117 -0.08307435 0.01248473
v 0.09598579 -0.08541599 0.01232673
v 0.09390312 -0.08793457 0.01215746
v 0.09262885 -0.09122709 0.01064884
v 0.09152929 -0.09231357 0.01060614
v 0.09152929 -0.09104517 0.00877723
v 0.09152929 -0.09128166 0.00881800
v 0.10261404 -0.07541938 0.00961889
v 0.08826312 -0.08541599 0.01034681
v 0.09173310 -0.08215324 0.01050171
v 0.10118391 -0.07541938 0.01246610
v 0.08826312 -0.08925257 0.01220211
v 0.08892766 -0.08925257 0.01230732
v 0.08902357 -0.08925257 0.01232013
v 0.09109254 -0.08925257 0.01259382
v 0.09152929 -0.08969741 0.01244358
v 0.09152929 -0.09191337 0.01095476
v 0.08826312 -0.08925257 0.01122807
v 0.10118391 -0.07541938 0.01123894
v 0.08826312 -0.08541599 0.01130105
v 0.09173310 -0.08215324 0.01154951
v 0.08995015 -0.08541599 0.01182321
v 0.08826312 -0.08840753 0.01205963
f 1 2 3
f 1 3 4
f 1 4 5
f 1 5 6
f 1 6 7
f 1 7 8
f 1 8 16
f 1 16 30
f 1 30 41
f 1 41 33
f 1 33 18
f 1 18 9
f 1 9 2
f 2 9 10
f 2 10 3
f 3 10 11
f 3 11 4
f 4 11 5
f 5 11 12
f 5 12 6
f 6 13 7
f 6 12 14
f 6 14 15
f 6 15 13
f 7 13 8
f 8 13 17
f 8 17 16
f 9 18 19
f 9 19 10
f 10 20 21
f 10 21 11
f 10 19 20
f 11 22 12
f 11 21 19
f 11 19 23
f 11 23 24
f 11 24 25
f 11 25 26
f 11 26 27
f 11 27 15
f 11 15 22
f 12 22 14
f 13 15 28
f 13 28 17
f 14 22 15
f 15 27 29
f 15 29 28
f 16 17 31
f 16 31 32
f 16 32 30
f 17 28 31
f 18 33 34
f 18 34 35
f 18 35 36
f 18 36 37
f 18 37 19
f 19 21 20
f 19 37 38
f 19 38 23
f 23 38 25
f 23 25 24
f 25 38 39
f 25 39 26
f 26 39 27
f 27 39 34
f 27 34 40
f 27 40 29
f 28 29 31
f 29 40 31
f 30 32 41
f 31 40 34
f 31 34 45
f 31 45 42
f 31 42 43
f 31 43 32
f 32 43 33
f 32 33 41
f 33 43 44
f 33 44 45
f 33 45 34
f 34 39 38
f 34 38 35
f 35 38 36
f 36 38 37
f 42 45 43
f 43 45 44

