# https://github.com/mikedh/trimesh
v -0.08523387 -0.03794302 0.00010986
v -0.08671173 -0.03794302 0.00010986
v -0.08536740 -0.03794302 0.00027778
v -0.07349557 -0.05804821 0.00010986
v -0.08569236 -0.04061004 0.00010986
v -0.10963189 -0.06410568 0.00925758
v -0.11720369 -0.04712461 0.01021439
v -0.11424352 -0.04202453 0.00948185
v -0.11720369 -0.04202453 0.01053896
v -0.09595724 -0.03794302 0.00341417
v -0.08654702 -0.03794302 0.00109371
v -0.07349557 -0.05858809 0.00034202
v -0.07172837 -0.07264661 0.00341643
v -0.07349557 -0.06061445 0.00010986
v -0.08376491 -0.04474193 0.00010986
v -0.10607968 -0.06943611 0.00961709
v -0.10963189 -0.06410568 0.01134024
v -0.11246297 -0.05818858 0.00989658
v -0.07763981 -0.05488091 0.00010986
v -0.11720369 -0.04712461 0.01161410
v -0.11720369 -0.04630759 0.01026510
v -0.11720369 -0.04202453 0.01129967
v -0.09302824 -0.03794302 0.00341417
v -0.08782012 -0.03794302 0.00187922
v -0.07349557 -0.06238526 0.00177441
v -0.07349557 -0.07471256 0.00341417
v -0.08789134 -0.03794302 0.00192205
v -0.08955171 -0.03794302 0.00246976
v -0.11607304 -0.04202453 0.01097961
v -0.11720369 -0.04236285 0.01134475
v -0.10445493 -0.06943611 0.01129178
v -0.09654038 -0.07304612 0.00967682
v -0.10607968 -0.06943611 0.01130531
v -0.09190204 -0.07304612 0.00757387
v -0.09637122 -0.07304612 0.00882820
v -0.09654038 -0.07304612 0.00887666
v -0.10963189 -0.06310510 0.01147661
v -0.11227156 -0.05818858 0.01162312
v -0.11246297 -0.05818858 0.01158367
v -0.11246297 -0.05778187 0.01162199
v -0.10607968 -0.06852192 0.01136842
f 1 2 10
f 1 10 23
f 1 23 28
f 1 28 27
f 1 27 24
f 1 24 11
f 1 11 3
f 1 3 4
f 1 4 14
f 1 14 19
f 1 19 15
f 1 15 5
f 1 5 2
f 2 5 6
f 2 6 7
f 2 7 8
f 2 8 9
f 2 9 10
f 3 11 12
f 3 12 4
f 4 12 13
f 4 13 14
f 5 15 6
f 6 16 33
f 6 33 17
f 6 17 39
f 6 39 18
f 6 18 7
f 6 15 19
f 6 19 14
f 6 14 16
f 7 18 39
f 7 39 20
f 7 20 30
f 7 30 22
f 7 22 9
f 7 9 21
f 7 21 8
f 8 21 9
f 9 22 10
f 10 22 23
f 11 24 25
f 11 25 12
f 12 25 13
f 13 26 14
f 13 25 27
f 13 27 28
f 13 28 29
f 13 29 22
f 13 22 30
f 13 30 31
f 13 31 32
f 13 32 26
f 14 26 16
f 16 26 34
f 16 34 35
f 16 35 36
f 16 36 32
f 16 32 33
f 17 33 37
f 17 37 38
f 17 38 39
f 20 39 40
f 20 40 38
f 20 38 31
f 20 31 30
f 22 29 28
f 22 28 23
f 24 27 25
f 26 32 36
f 26 36 35
f 26 35 34
f 31 38 41
f 31 41 33
f 31 33 32
f 33 41 38
f 33 38 37
f 38 40 39

