# https://github.com/mikedh/trimesh
v -0.04984642 0.05404967 -0.01267370
v -0.04984642 0.05404967 -0.01168447
v -0.04984642 0.05674932 -0.01283359
v -0.03781580 0.06311004 -0.01273102
v -0.04831433 0.05404967 -0.01259375
v -0.04777733 0.05404967 -0.01150733
v -0.04984642 0.06335326 -0.01140976
v -0.04984642 0.05832326 -0.01281671
v -0.03781698 0.06680422 -0.01293209
v -0.03781698 0.06571163 -0.01287737
v -0.03781698 0.06335326 -0.01274493
v -0.03781580 0.05404967 -0.01202244
v -0.03781580 0.06335326 -0.01274474
v -0.04362384 0.05404967 -0.01116472
v -0.04984642 0.06335326 -0.01233629
v -0.04712610 0.06705891 -0.01108923
v -0.04984642 0.06127759 -0.01275940
v -0.03781698 0.06705891 -0.01291632
v -0.04842974 0.06262742 -0.01274029
v -0.03781580 0.05404967 -0.01103729
v -0.03781580 0.06335326 -0.01160267
v -0.04337654 0.05404967 -0.01114506
v -0.04984642 0.06215752 -0.01261008
v -0.04712610 0.06705891 -0.01193711
v -0.04467900 0.06705891 -0.01248784
v -0.04439166 0.06693793 -0.01258225
v -0.03781698 0.06705891 -0.01165424
v -0.04290196 0.05404967 -0.01113467
v -0.03781580 0.05597381 -0.01110945
v -0.03781580 0.05779097 -0.01119143
v -0.03785348 0.06705891 -0.01291465
v -0.04775142 0.06335326 -0.01271377
v -0.04416791 0.06705891 -0.01258652
v -0.04386173 0.06705891 -0.01260358
v -0.04067036 0.06705891 -0.01278073
v -0.03781580 0.06218427 -0.01146429
v -0.04712610 0.06402181 -0.01268910
v -0.04431747 0.06705891 -0.01255962
f 1 2 7
f 1 7 15
f 1 15 23
f 1 23 17
f 1 17 8
f 1 8 3
f 1 3 4
f 1 4 5
f 1 5 12
f 1 12 20
f 1 20 28
f 1 28 22
f 1 22 14
f 1 14 6
f 1 6 2
f 2 6 7
f 3 8 9
f 3 9 10
f 3 10 11
f 3 11 4
f 4 12 5
f 4 11 13
f 4 13 21
f 4 21 36
f 4 36 30
f 4 30 29
f 4 29 20
f 4 20 12
f 6 14 7
f 7 14 16
f 7 16 24
f 7 24 15
f 8 17 9
f 9 18 13
f 9 13 10
f 9 17 19
f 9 19 18
f 10 13 11
f 13 18 27
f 13 27 21
f 14 22 16
f 15 24 25
f 15 25 26
f 15 26 23
f 16 27 18
f 16 18 31
f 16 31 35
f 16 35 34
f 16 34 33
f 16 33 38
f 16 38 25
f 16 25 24
f 16 22 28
f 16 28 20
f 16 20 29
f 16 29 30
f 16 30 27
f 17 23 19
f 18 19 31
f 19 23 32
f 19 32 33
f 19 33 34
f 19 34 35
f 19 35 31
f 21 27 36
f 23 26 37
f 23 37 32
f 25 38 26
f 26 38 33
f 26 33 32
f 26 32 37
f 27 30 36

