# https://github.com/mikedh/trimesh
v -0.07539589 -0.07265092 0.00341602
v -0.07172754 -0.07265092 0.00341602
v -0.07430379 -0.07385772 0.00341602
v -0.07852170 -0.07265092 0.00409966
v -0.06329173 -0.08051362 0.00341602
v -0.08918023 -0.07265092 0.00757297
v -0.09654144 -0.07304882 0.00967666
v -0.07235060 -0.07592499 0.00341602
v -0.09904768 -0.07855487 0.00980005
v -0.07851820 -0.07345673 0.00425951
v -0.07894874 -0.07341517 0.00434565
v -0.08636945 -0.07387773 0.00611024
v -0.08636596 -0.07265092 0.00594961
v -0.09654144 -0.08051362 0.01119604
v -0.06744312 -0.08051362 0.00341602
v -0.09904768 -0.07466200 0.01067458
v -0.09817959 -0.07855487 0.01125502
v -0.09219402 -0.07265092 0.00757297
v -0.09654144 -0.07304882 0.00887740
v -0.07099247 -0.07728419 0.00341602
v -0.07319768 -0.08051362 0.00455749
v -0.09904768 -0.07855487 0.01134270
v -0.09904768 -0.07466200 0.00986135
v -0.07540640 -0.08051362 0.00505179
v -0.08675449 -0.08051054 0.00778481
v -0.09013232 -0.08051054 0.00860503
v -0.09654144 -0.08051362 0.01017795
v -0.06874175 -0.08051362 0.00365347
v -0.06806618 -0.07999180 0.00341602
v -0.09904768 -0.07769056 0.01127364
v -0.07036941 -0.08051362 0.00396619
v -0.07851820 -0.08051362 0.00580217
v -0.08584441 -0.08051362 0.00757297
f 1 2 5
f 1 5 15
f 1 15 29
f 1 29 20
f 1 20 8
f 1 8 3
f 1 3 4
f 1 4 13
f 1 13 18
f 1 18 6
f 1 6 2
f 2 6 7
f 2 7 5
f 3 8 9
f 3 9 10
f 3 10 4
f 4 10 11
f 4 11 9
f 4 9 12
f 4 12 13
f 5 14 27
f 5 27 33
f 5 33 32
f 5 32 24
f 5 24 21
f 5 21 31
f 5 31 28
f 5 28 15
f 5 7 16
f 5 16 17
f 5 17 14
f 6 18 7
f 7 19 23
f 7 23 16
f 7 18 19
f 8 20 21
f 8 21 9
f 9 22 30
f 9 30 16
f 9 16 23
f 9 23 19
f 9 19 18
f 9 18 13
f 9 13 12
f 9 11 10
f 9 21 24
f 9 24 25
f 9 25 26
f 9 26 27
f 9 27 14
f 9 14 22
f 14 17 22
f 15 28 29
f 16 30 17
f 17 30 22
f 20 29 28
f 20 28 31
f 20 31 21
f 24 32 25
f 25 32 33
f 25 33 26
f 26 33 27

