# https://github.com/mikedh/trimesh
v -0.02341919 0.12793623 0.00924681
v -0.02341919 0.12605622 0.00816764
v -0.02642799 0.12765401 0.00898846
v -0.02341919 0.12782913 0.00980631
v -0.02341919 0.12592597 0.00810300
v -0.02939625 0.12690577 0.00953525
v -0.02601331 0.12749191 0.00980631
v -0.02377775 0.12589268 0.00811678
v -0.03018197 0.12445263 0.00806782
v -0.03791443 0.12471315 0.00911435
v -0.03727213 0.12452066 0.01000235
v -0.02341919 0.12448448 0.00980631
v -0.03490251 0.12293878 0.00798983
v -0.02341919 0.12519509 0.00820706
v -0.04417833 0.11996030 0.00789870
v -0.02949915 0.12678130 0.00980631
v -0.03838835 0.12425002 0.01000235
v -0.04638271 0.12153638 0.00908383
v -0.04396320 0.12268262 0.00987476
v -0.05526568 0.11544046 0.01006381
v -0.05066985 0.11544046 0.01006381
v -0.05053890 0.11543467 0.01006381
v -0.03727213 0.12075485 0.01000235
v -0.02342543 0.12434699 0.00980631
v -0.02341919 0.12447000 0.00974972
v -0.02341919 0.12502431 0.00852496
v -0.05526568 0.11315231 0.01006381
v -0.05526568 0.11438539 0.00823207
v -0.04699382 0.11853618 0.00796970
v -0.05526568 0.11510614 0.00810809
v -0.03990366 0.12374492 0.01000235
v -0.04385407 0.12266380 0.00995551
v -0.04391643 0.12264499 0.00995551
v -0.04414404 0.12257118 0.00995551
v -0.05142751 0.11918021 0.00912282
v -0.05288358 0.11846382 0.00995551
v -0.04316813 0.12265078 0.01000213
v -0.05526568 0.11718876 0.00995551
v -0.05526568 0.11708601 0.00933264
f 1 2 3
f 1 3 4
f 1 4 12
f 1 12 25
f 1 25 26
f 1 26 14
f 1 14 5
f 1 5 2
f 2 5 3
f 3 6 7
f 3 7 4
f 3 5 8
f 3 8 9
f 3 9 10
f 3 10 6
f 4 7 11
f 4 11 23
f 4 23 12
f 5 13 9
f 5 9 8
f 5 14 15
f 5 15 13
f 6 16 7
f 6 10 16
f 7 16 11
f 9 13 10
f 10 17 16
f 10 13 15
f 10 15 18
f 10 18 19
f 10 19 17
f 11 17 20
f 11 20 21
f 11 21 22
f 11 22 23
f 11 16 17
f 12 23 24
f 12 24 25
f 14 26 27
f 14 27 28
f 14 28 29
f 14 29 15
f 15 29 30
f 15 30 18
f 17 31 20
f 17 19 32
f 17 32 33
f 17 33 34
f 17 34 31
f 18 30 35
f 18 35 19
f 19 35 36
f 19 36 34
f 19 34 33
f 19 33 32
f 20 37 36
f 20 36 38
f 20 38 39
f 20 39 30
f 20 30 28
f 20 28 27
f 20 27 22
f 20 22 21
f 20 31 37
f 22 27 23
f 23 27 24
f 24 26 25
f 24 27 26
f 28 30 29
f 30 39 35
f 31 34 37
f 34 36 37
f 35 39 38
f 35 38 36

