# https://github.com/mikedh/trimesh
v 0.11153715 -0.06476564 0.00942344
v 0.11153715 -0.06476564 0.01145167
v 0.11153715 -0.06400017 0.00908248
v 0.11371827 -0.06267170 0.01012175
v 0.11260279 -0.06476564 0.01022963
v 0.11208895 -0.06476564 0.01145167
v 0.11153715 -0.05990612 0.01145167
v 0.11251260 -0.06220501 0.00907171
v 0.11153715 -0.06285443 0.00921680
v 0.12138781 -0.03953959 0.00933685
v 0.11593263 -0.05880483 0.01039929
v 0.11471983 -0.05790354 0.00906329
v 0.11504380 -0.05790354 0.00929847
v 0.11777198 -0.05491326 0.01022518
v 0.11231324 -0.06476564 0.01101476
v 0.11552915 -0.05892829 0.01145167
v 0.11155020 -0.05987649 0.01145167
v 0.11153715 -0.05990612 0.01144957
v 0.11153715 -0.06160745 0.00960597
v 0.12133441 -0.03953959 0.00935113
v 0.12228613 -0.03953959 0.00925307
v 0.11542710 -0.05652323 0.00906095
v 0.11635865 -0.05790354 0.01035904
v 0.11862165 -0.05247609 0.01126727
v 0.11999583 -0.04647823 0.00922008
v 0.12149936 -0.04598685 0.01056989
v 0.11955319 -0.05067599 0.01045710
v 0.11937757 -0.05072291 0.01126727
v 0.11597297 -0.05795787 0.01145167
v 0.11238088 -0.05817763 0.01145167
v 0.11970984 -0.04139648 0.01142125
v 0.12120625 -0.03953959 0.00963195
v 0.11153715 -0.06022960 0.01108286
v 0.12364251 -0.03953959 0.01033634
v 0.12072564 -0.04426824 0.00923037
v 0.12072564 -0.04426577 0.00923014
v 0.11599671 -0.05790354 0.01145167
v 0.12366031 -0.03953959 0.01035296
v 0.12038744 -0.04831537 0.01126727
v 0.12345146 -0.03953959 0.01142125
v 0.12187673 -0.04418428 0.01142125
v 0.11249243 -0.05804676 0.01145167
v 0.12073395 -0.03953959 0.01142125
v 0.11261466 -0.05790354 0.01145167
f 1 2 7
f 1 7 18
f 1 18 33
f 1 33 19
f 1 19 9
f 1 9 3
f 1 3 4
f 1 4 5
f 1 5 15
f 1 15 6
f 1 6 2
f 2 6 16
f 2 16 29
f 2 29 37
f 2 37 44
f 2 44 42
f 2 42 30
f 2 30 17
f 2 17 7
f 3 8 4
f 3 9 10
f 3 10 8
f 4 11 5
f 4 8 12
f 4 12 13
f 4 13 14
f 4 14 11
f 5 11 16
f 5 16 15
f 6 15 16
f 7 17 18
f 8 10 12
f 9 19 20
f 9 20 10
f 10 20 32
f 10 32 43
f 10 43 40
f 10 40 38
f 10 38 34
f 10 34 21
f 10 21 22
f 10 22 12
f 11 14 23
f 11 23 24
f 11 24 16
f 12 22 13
f 13 22 14
f 14 22 25
f 14 25 26
f 14 26 27
f 14 27 28
f 14 28 24
f 14 24 23
f 16 24 29
f 17 30 31
f 17 31 18
f 18 31 32
f 18 32 33
f 19 33 32
f 19 32 20
f 21 34 35
f 21 35 36
f 21 36 22
f 22 36 25
f 24 28 37
f 24 37 29
f 25 36 35
f 25 35 34
f 25 34 38
f 25 38 26
f 26 39 28
f 26 28 27
f 26 38 40
f 26 40 41
f 26 41 39
f 28 39 41
f 28 41 37
f 30 42 43
f 30 43 31
f 31 43 32
f 37 41 40
f 37 40 43
f 37 43 44
f 42 44 43

