# https://github.com/mikedh/trimesh
v 0.00047668 0.10388112 0.00341416
v 0.00019519 0.09470798 0.00016713
v -0.00043659 0.10385452 0.00341448
v 0.00019207 0.10387187 0.00341448
v 0.00881497 0.10346942 0.00341416
v 0.00893382 0.09441655 0.00016713
v 0.00460204 0.09461431 0.00016713
v 0.00105529 0.09472879 0.00016713
v 0.00019519 0.09384178 0.00016713
v -0.01307851 0.09310049 0.00033052
v -0.01270319 0.09413322 0.00033052
v -0.01195569 0.09433329 0.00033052
v -0.00771773 0.09473458 0.00033052
v -0.00459322 0.10359547 0.00341448
v 0.01636822 0.10248526 0.00341448
v 0.00895258 0.10346248 0.00341416
v 0.01423204 0.09398171 0.00016713
v 0.01802587 0.09208625 0.00016713
v -0.01162728 0.09300797 0.00033052
v -0.01355704 0.09346015 0.00092334
v -0.01355704 0.09343355 0.00072309
v -0.01355704 0.09354804 0.00045735
v -0.01355704 0.09417369 0.00050376
v -0.01355704 0.10262866 0.00341448
v -0.00687014 0.10341391 0.00341448
v -0.00549398 0.10353765 0.00341448
v 0.01839493 0.10221812 0.00341448
v 0.01179248 0.10320806 0.00341416
v 0.01839180 0.09299293 0.00016713
v 0.01839180 0.09206660 0.00016713
v -0.01355704 0.09618249 0.00227301
v 0.01839180 0.09267375 0.00075773
v 0.01839180 0.09272232 0.00079810
v 0.01839180 0.09509308 0.00205209
v -0.01355704 0.09983462 0.00341448
v 0.01839493 0.09927836 0.00341448
v 0.01839493 0.09568867 0.00121928
v 0.01839493 0.09568867 0.00228541
v 0.01839493 0.09588411 0.00236170
f 1 2 3
f 1 3 4
f 1 4 5
f 1 5 6
f 1 6 7
f 1 7 8
f 1 8 2
f 2 8 7
f 2 7 6
f 2 6 17
f 2 17 29
f 2 29 30
f 2 30 18
f 2 18 9
f 2 9 10
f 2 10 11
f 2 11 12
f 2 12 13
f 2 13 3
f 3 13 14
f 3 14 26
f 3 26 25
f 3 25 24
f 3 24 35
f 3 35 36
f 3 36 27
f 3 27 15
f 3 15 4
f 4 15 16
f 4 16 5
f 5 16 6
f 6 16 17
f 9 18 10
f 10 19 20
f 10 20 21
f 10 21 22
f 10 22 11
f 10 18 19
f 11 22 23
f 11 23 24
f 11 24 12
f 12 24 25
f 12 25 13
f 13 25 26
f 13 26 14
f 15 27 28
f 15 28 16
f 16 28 17
f 17 28 27
f 17 27 29
f 18 30 19
f 19 30 20
f 20 31 35
f 20 35 24
f 20 24 23
f 20 23 22
f 20 22 21
f 20 30 32
f 20 32 33
f 20 33 34
f 20 34 31
f 27 36 39
f 27 39 38
f 27 38 37
f 27 37 29
f 29 37 30
f 30 38 32
f 30 37 38
f 31 34 38
f 31 38 39
f 31 39 35
f 32 38 33
f 33 38 34
f 35 39 36

