# https://github.com/mikedh/trimesh
v 0.04658367 -0.11941805 0.01158476
v 0.04658367 -0.11941805 0.00840586
v 0.04547152 -0.11941805 0.01171731
v 0.04846685 -0.11978245 0.01125146
v 0.04870537 -0.11978245 0.01121986
v 0.04883018 -0.11978245 0.01118518
v 0.05003109 -0.11978245 0.01000648
v 0.04638399 -0.11941805 0.00844516
v 0.05003109 -0.11978245 0.00934296
v 0.05002276 -0.11978245 0.00881468
v 0.04747673 -0.11978245 0.00798586
v 0.02170018 -0.12144875 0.00933641
v 0.04332208 -0.11941805 0.01155817
v 0.02170018 -0.12471039 0.01131234
v 0.02171960 -0.12471039 0.01131350
v 0.02716390 -0.12398780 0.01149498
v 0.02886403 -0.12388586 0.01150307
v 0.03181777 -0.12371227 0.01151695
v 0.03719551 -0.12257775 0.01144566
v 0.04861107 -0.11987062 0.01120252
v 0.04574886 -0.12211416 0.00903586
v 0.04658367 -0.12174012 0.00904780
v 0.05003109 -0.12019369 0.00909790
v 0.05003109 -0.11978727 0.00999685
v 0.04332208 -0.11941805 0.01014289
v 0.03481866 -0.12000908 0.01007700
v 0.04332208 -0.12222920 0.00839892
v 0.04332208 -0.12152521 0.00792960
v 0.04712173 -0.11992711 0.00797931
v 0.03657703 -0.12388172 0.00778087
v 0.02938267 -0.12531381 0.00799125
v 0.02170018 -0.12471039 0.01031705
v 0.02170018 -0.12144875 0.01032245
v 0.03481866 -0.12000908 0.01106458
v 0.03485194 -0.12000908 0.01106882
v 0.02170018 -0.12406839 0.01112661
v 0.03213117 -0.12645522 0.00878193
v 0.02886958 -0.12531381 0.01103337
v 0.02567733 -0.12471039 0.01145414
v 0.03096077 -0.12531381 0.01099291
v 0.04187711 -0.12255364 0.01081759
v 0.04186602 -0.12268108 0.01061337
v 0.04176617 -0.12369022 0.00899155
v 0.04432053 -0.12268039 0.00901968
v 0.03213117 -0.12533793 0.01082337
v 0.04152766 -0.12268108 0.00819200
v 0.04143613 -0.12231875 0.00790571
v 0.04031288 -0.12268108 0.00787604
v 0.03213117 -0.12538477 0.00780707
v 0.03408646 -0.12472348 0.00779551
v 0.03829935 -0.12471039 0.00888057
v 0.03213117 -0.12585869 0.00819432
v 0.02170018 -0.12218856 0.01058138
v 0.03411419 -0.12583458 0.00871142
v 0.03515424 -0.12469317 0.01066962
v 0.04147773 -0.12268108 0.01080911
f 1 2 8
f 1 8 25
f 1 25 13
f 1 13 3
f 1 3 4
f 1 4 5
f 1 5 6
f 1 6 7
f 1 7 9
f 1 9 2
f 2 9 10
f 2 10 11
f 2 11 12
f 2 12 8
f 3 13 14
f 3 14 15
f 3 15 16
f 3 16 17
f 3 17 18
f 3 18 19
f 3 19 4
f 4 20 5
f 4 19 20
f 5 20 6
f 6 20 21
f 6 21 22
f 6 22 23
f 6 23 24
f 6 24 7
f 7 24 23
f 7 23 9
f 8 12 26
f 8 26 25
f 9 23 10
f 10 23 11
f 11 23 22
f 11 22 21
f 11 21 27
f 11 27 28
f 11 28 29
f 11 29 30
f 11 30 12
f 12 30 31
f 12 31 32
f 12 32 14
f 12 14 36
f 12 36 53
f 12 53 33
f 12 33 34
f 12 34 26
f 13 25 26
f 13 26 34
f 13 34 35
f 13 35 14
f 14 35 36
f 14 32 37
f 14 37 38
f 14 38 15
f 15 39 16
f 15 38 39
f 16 39 18
f 16 18 17
f 18 39 40
f 18 40 19
f 19 40 20
f 20 41 42
f 20 42 43
f 20 43 44
f 20 44 21
f 20 40 45
f 20 45 41
f 21 44 27
f 27 46 47
f 27 47 28
f 27 44 46
f 28 47 48
f 28 48 29
f 29 48 30
f 30 49 50
f 30 50 31
f 30 48 46
f 30 46 43
f 30 43 51
f 30 51 49
f 31 49 52
f 31 52 37
f 31 37 32
f 31 50 49
f 33 53 35
f 33 35 34
f 35 53 36
f 37 54 51
f 37 51 55
f 37 55 45
f 37 45 40
f 37 40 38
f 37 52 54
f 38 40 39
f 41 56 42
f 41 45 56
f 42 56 55
f 42 55 43
f 43 46 44
f 43 55 51
f 45 55 56
f 46 48 47
f 49 51 52
f 51 54 52

