# https://github.com/mikedh/trimesh
v 0.07369870 0.05951795 0.00109154
v 0.07494251 0.05485293 -0.00066163
v 0.08592054 0.03719736 0.00066941
v 0.07369870 0.05992997 0.00137363
v 0.07369870 0.06208201 0.00109154
v 0.07369870 0.06577998 0.00192504
v 0.07599274 0.05485293 -0.00066163
v 0.08499181 0.03719736 -0.00066163
v 0.08607293 0.03719396 0.00076278
v 0.08842463 0.03719396 0.00222947
v 0.07369870 0.06017855 0.00145862
v 0.07369870 0.07198071 0.00341408
v 0.07626250 0.05466565 -0.00066163
v 0.08577640 0.03719736 -0.00066163
v 0.08734351 0.03719396 0.00076278
v 0.09126850 0.03719396 0.00332750
v 0.07369870 0.06580041 0.00296362
v 0.07369870 0.06176534 0.00200085
v 0.07369870 0.06792521 0.00341408
v 0.07663730 0.06896036 0.00341408
v 0.07813851 0.06714544 0.00341408
v 0.08287074 0.06071315 0.00341408
v 0.08619237 0.05555098 0.00341408
v 0.08050668 0.04788605 -0.00066163
v 0.08545102 0.03817123 -0.00066163
v 0.09473633 0.03719396 0.00341408
v 0.09155680 0.03719396 0.00341408
v 0.08891680 0.05044670 0.00341408
v 0.08245683 0.04457627 -0.00066163
v 0.09395999 0.03939707 0.00341408
v 0.09056011 0.04735485 0.00341408
f 1 2 3
f 1 3 4
f 1 4 11
f 1 11 18
f 1 18 17
f 1 17 19
f 1 19 12
f 1 12 6
f 1 6 5
f 1 5 2
f 2 5 6
f 2 6 7
f 2 7 13
f 2 13 24
f 2 24 29
f 2 29 25
f 2 25 14
f 2 14 8
f 2 8 3
f 3 8 9
f 3 9 10
f 3 10 4
f 4 10 11
f 6 12 7
f 7 12 13
f 8 14 15
f 8 15 9
f 9 15 26
f 9 26 27
f 9 27 16
f 9 16 10
f 10 16 17
f 10 17 18
f 10 18 11
f 12 19 27
f 12 27 26
f 12 26 30
f 12 30 31
f 12 31 28
f 12 28 23
f 12 23 22
f 12 22 21
f 12 21 20
f 12 20 13
f 13 20 21
f 13 21 22
f 13 22 23
f 13 23 24
f 14 25 26
f 14 26 15
f 16 27 19
f 16 19 17
f 23 28 29
f 23 29 24
f 25 30 26
f 25 29 31
f 25 31 30
f 28 31 29

