# https://github.com/mikedh/trimesh
v -0.03781508 0.07727492 -0.00975749
v -0.03781508 0.07668547 -0.01024345
v -0.03907560 0.07669225 -0.00975749
v -0.03781508 0.07614486 -0.00975749
v -0.03781508 0.07660000 -0.01031361
v -0.03912026 0.07654166 -0.00986462
v -0.03927247 0.07659932 -0.00975749
v -0.03781508 0.07034532 -0.01159216
v -0.04003443 0.07458610 -0.00975749
v -0.03781508 0.07293103 -0.01203018
v -0.04033247 0.07360934 -0.01132132
v -0.04338031 0.07445722 -0.00975749
v -0.04045005 0.07600716 -0.00975749
v -0.03781508 0.07034532 -0.01270699
v -0.04712632 0.07053593 -0.00975749
v -0.04712632 0.07034532 -0.00982419
v -0.03781508 0.07157509 -0.01241420
v -0.04231940 0.07034532 -0.01193836
v -0.04434097 0.07034532 -0.01153528
v -0.04712632 0.07034532 -0.01068262
v -0.04712632 0.07134854 -0.01023940
v -0.04712632 0.07166260 -0.01005779
v -0.04547206 0.07318676 -0.00975749
v -0.03812315 0.07034532 -0.01268938
v -0.03781508 0.07056238 -0.01267523
v -0.04712632 0.07203906 -0.00975749
v -0.03826898 0.07034532 -0.01266945
v -0.04224466 0.07034532 -0.01195193
f 1 2 3
f 1 3 7
f 1 7 13
f 1 13 12
f 1 12 23
f 1 23 26
f 1 26 15
f 1 15 9
f 1 9 4
f 1 4 8
f 1 8 14
f 1 14 25
f 1 25 17
f 1 17 10
f 1 10 5
f 1 5 2
f 2 5 6
f 2 6 3
f 3 6 7
f 4 9 8
f 5 10 11
f 5 11 12
f 5 12 13
f 5 13 6
f 6 13 7
f 8 9 15
f 8 15 16
f 8 16 20
f 8 20 19
f 8 19 18
f 8 18 28
f 8 28 27
f 8 27 24
f 8 24 14
f 10 17 18
f 10 18 11
f 11 18 19
f 11 19 20
f 11 20 21
f 11 21 22
f 11 22 23
f 11 23 12
f 14 24 25
f 15 26 22
f 15 22 21
f 15 21 20
f 15 20 16
f 17 25 24
f 17 24 27
f 17 27 28
f 17 28 18
f 22 26 23

