# https://github.com/mikedh/trimesh
v 0.04743764 0.10464816 0.00808748
v 0.04743764 0.10543245 0.00834038
v 0.04743764 0.10779422 0.00808748
v 0.05844700 0.09869154 0.00808748
v 0.05855687 0.09862044 0.00808791
v 0.06860646 0.09862044 0.01009551
v 0.06860646 0.10364835 0.01169578
v 0.04743764 0.11379971 0.01098696
v 0.04773822 0.10766313 0.00808748
v 0.04743764 0.11379971 0.00996320
v 0.04744179 0.11876097 0.00809225
v 0.04744179 0.11857879 0.00809138
v 0.05844700 0.10189314 0.00808748
v 0.06363348 0.09862044 0.00808791
v 0.06860646 0.09862044 0.00907392
v 0.06861060 0.10468371 0.01195085
v 0.06861060 0.10684107 0.01251912
v 0.04744179 0.11681024 0.01193263
v 0.04804916 0.11638588 0.01191137
v 0.04743972 0.11638588 0.01180032
v 0.04744179 0.12062283 0.01161075
v 0.04744179 0.12131381 0.00966649
v 0.04744179 0.12131825 0.00962354
v 0.04930536 0.10696993 0.00808748
v 0.04744179 0.12112718 0.00941185
v 0.05149438 0.11745901 0.00834385
v 0.05940262 0.11346645 0.00821501
v 0.05476754 0.10415492 0.00808748
v 0.06508868 0.11053368 0.00857202
v 0.06793068 0.09862044 0.00891602
v 0.06233790 0.11192896 0.00838810
v 0.06861060 0.11053368 0.00969642
v 0.06861060 0.10665222 0.01012761
v 0.06861060 0.10468371 0.01087504
v 0.06527110 0.10889622 0.01246533
v 0.04744179 0.11864766 0.01220895
v 0.06861060 0.10915840 0.01228010
v 0.06140508 0.11291100 0.01232565
v 0.06161030 0.11266660 0.01233475
v 0.04744179 0.12008071 0.01183589
v 0.05079787 0.12011404 0.01067115
v 0.04911050 0.12009627 0.01169361
v 0.05665184 0.11737458 0.00961747
v 0.06861060 0.11082918 0.00985302
v 0.06419525 0.10956054 0.01244754
v 0.04970958 0.11786559 0.01222327
v 0.04909806 0.11807666 0.01221937
v 0.06861060 0.10953387 0.01222674
v 0.06160823 0.11285545 0.01231306
v 0.05267180 0.11862766 0.01150664
v 0.05868746 0.11573489 0.01170055
v 0.06108170 0.11469732 0.01153571
v 0.06350082 0.11379305 0.01086463
v 0.06559862 0.11174900 0.01206277
v 0.06478604 0.11294210 0.00981571
v 0.06861060 0.11065144 0.01038875
v 0.06725076 0.11053368 0.01215300
f 1 2 8
f 1 8 10
f 1 10 3
f 1 3 9
f 1 9 24
f 1 24 28
f 1 28 13
f 1 13 4
f 1 4 5
f 1 5 6
f 1 6 2
f 2 6 7
f 2 7 8
f 3 10 11
f 3 11 12
f 3 12 9
f 4 13 14
f 4 14 5
f 5 14 30
f 5 30 15
f 5 15 6
f 6 15 34
f 6 34 16
f 6 16 7
f 7 16 17
f 7 17 18
f 7 18 19
f 7 19 20
f 7 20 8
f 8 20 21
f 8 21 22
f 8 22 23
f 8 23 10
f 9 12 24
f 10 23 25
f 10 25 11
f 11 25 26
f 11 26 27
f 11 27 14
f 11 14 12
f 12 14 13
f 12 13 28
f 12 28 24
f 14 29 30
f 14 27 31
f 14 31 29
f 15 30 29
f 15 29 32
f 15 32 33
f 15 33 34
f 16 34 33
f 16 33 32
f 16 32 44
f 16 44 56
f 16 56 48
f 16 48 37
f 16 37 17
f 17 35 36
f 17 36 18
f 17 37 38
f 17 38 39
f 17 39 35
f 18 36 20
f 18 20 19
f 20 36 40
f 20 40 21
f 21 41 22
f 21 40 42
f 21 42 41
f 22 41 23
f 23 41 43
f 23 43 25
f 25 43 26
f 26 43 27
f 27 43 44
f 27 44 32
f 27 32 29
f 27 29 31
f 35 45 36
f 35 39 45
f 36 46 47
f 36 47 42
f 36 42 40
f 36 45 46
f 37 48 38
f 38 48 49
f 38 49 42
f 38 42 46
f 38 46 39
f 39 46 45
f 41 42 50
f 41 50 51
f 41 51 52
f 41 52 53
f 41 53 43
f 42 47 46
f 42 49 54
f 42 54 51
f 42 51 50
f 43 53 55
f 43 55 44
f 44 55 53
f 44 53 56
f 48 56 54
f 48 54 57
f 48 57 49
f 49 57 54
f 51 54 52
f 52 54 53
f 53 54 56

