# https://github.com/mikedh/trimesh
v -0.13007424 -0.00691572 0.01030676
v -0.12999799 -0.00841284 0.00938433
v -0.12906330 -0.01287093 0.01075307
v -0.12815430 -0.00842948 0.01178887
v -0.12869638 -0.00433735 0.01147733
v -0.12862843 0.00095248 0.01162764
v -0.12872431 0.00370967 0.01157096
v -0.12878547 0.00546047 0.01153402
v -0.12995193 0.00686194 0.01006954
v -0.12957972 0.00867512 0.00897832
v -0.12957444 0.00513610 0.00895649
v -0.12912748 -0.00180888 0.00858155
v -0.12888286 -0.01006799 0.00858155
v -0.12865410 -0.01592339 0.00894809
v -0.12947024 -0.01144451 0.00935032
v -0.12841552 -0.01592339 0.01085132
v -0.12688893 -0.01592339 0.01198369
v -0.12743101 -0.00106448 0.01228137
v -0.12703993 -0.01353216 0.01209495
v -0.12667905 0.01053820 0.01242580
v -0.12654315 0.01539969 0.01235190
v -0.12603051 0.01893455 0.01247912
v -0.12867298 0.01253852 0.01121156
v -0.12961520 0.01065880 0.00976304
v -0.12867751 0.01673878 0.00904508
v -0.12760617 0.02145055 0.00889519
v -0.12736005 0.00901197 0.00833677
v -0.12872431 -0.00076921 0.00849380
v -0.12795649 0.00120615 0.00832838
v -0.12702408 -0.01409774 0.00832250
v -0.12722868 -0.01592339 0.00838170
v -0.12808257 -0.01592339 0.00869156
v -0.12595803 -0.01593171 0.00980923
v -0.12595803 -0.01593171 0.01202021
v -0.12653635 -0.01044643 0.01235778
v -0.12461113 0.02427012 0.01260676
v -0.12774887 0.01707979 0.01143745
v -0.12434310 0.02655323 0.01261180
v -0.12579797 0.02654907 0.01183422
v -0.12616037 0.02639936 0.01163814
v -0.12700369 0.02347166 0.01121072
v -0.12804633 0.02160026 0.01003931
v -0.12730644 0.02423270 0.00911058
v -0.12669641 0.02654907 0.00896783
v -0.12615810 0.02654907 0.00883683
v -0.12570133 0.02576724 0.00872179
v -0.12570133 0.02401229 0.00865125
v -0.12570133 0.02157947 0.00857652
v -0.12681192 -0.01592339 0.00838548
v -0.12327932 -0.01593171 0.01078960
v -0.12534875 -0.01593171 0.01204415
v -0.12466851 -0.01593171 0.01198369
v -0.12282029 0.02655323 0.01241782
v -0.12570133 0.02655323 0.01024168
v -0.12701200 0.02645342 0.00965976
v -0.12570133 0.02654907 0.00876755
v -0.12236125 0.02655323 0.01096049
v -0.12236125 0.00570167 0.01026562
v -0.12236125 0.00370135 0.01030844
v -0.12327932 -0.01593171 0.01155249
v -0.12236125 0.02655323 0.01229984
v -0.12357980 0.02655323 0.01024168
v -0.12236125 0.00370135 0.01111080
f 1 2 3
f 1 3 4
f 1 4 5
f 1 5 6
f 1 6 7
f 1 7 8
f 1 8 9
f 1 9 2
f 2 9 10
f 2 10 11
f 2 11 12
f 2 12 13
f 2 13 14
f 2 14 15
f 2 15 3
f 3 15 14
f 3 14 16
f 3 16 17
f 3 17 4
f 4 18 6
f 4 6 5
f 4 17 19
f 4 19 18
f 6 18 7
f 7 18 8
f 8 20 21
f 8 21 22
f 8 22 23
f 8 23 9
f 8 18 20
f 9 23 24
f 9 24 10
f 10 24 25
f 10 25 26
f 10 26 27
f 10 27 12
f 10 12 11
f 12 27 28
f 12 28 13
f 13 28 29
f 13 29 30
f 13 30 31
f 13 31 32
f 13 32 14
f 14 33 34
f 14 34 16
f 14 32 33
f 16 34 17
f 17 34 35
f 17 35 19
f 18 19 35
f 18 35 20
f 20 36 22
f 20 22 21
f 20 35 36
f 22 37 23
f 22 36 38
f 22 38 39
f 22 39 40
f 22 40 37
f 23 37 40
f 23 40 41
f 23 41 42
f 23 42 24
f 24 42 25
f 25 42 43
f 25 43 26
f 26 43 44
f 26 44 45
f 26 45 27
f 27 45 46
f 27 46 47
f 27 47 48
f 27 48 30
f 27 30 29
f 27 29 28
f 30 49 31
f 30 48 49
f 31 49 33
f 31 33 32
f 33 49 50
f 33 50 60
f 33 60 52
f 33 52 51
f 33 51 34
f 34 51 35
f 35 51 52
f 35 52 53
f 35 53 38
f 35 38 36
f 38 54 39
f 38 53 61
f 38 61 57
f 38 57 62
f 38 62 54
f 39 54 44
f 39 44 55
f 39 55 40
f 40 55 42
f 40 42 41
f 42 55 43
f 43 55 44
f 44 54 45
f 45 54 56
f 45 56 46
f 46 56 57
f 46 57 47
f 47 57 58
f 47 58 48
f 48 58 49
f 49 58 59
f 49 59 50
f 50 59 63
f 50 63 60
f 52 60 61
f 52 61 53
f 54 62 56
f 56 62 57
f 57 61 63
f 57 63 59
f 57 59 58
f 60 63 61

