# https://github.com/mikedh/trimesh
v 0.08391767 -0.05605714 0.00341448
v 0.08391767 -0.05037658 0.00341448
v 0.08391767 -0.04550262 0.00155733
v 0.08588445 -0.04226589 0.00155733
v 0.08566895 -0.05300920 0.00341448
v 0.08391767 -0.04639503 0.00279881
v 0.09520828 -0.02100239 0.00341448
v 0.09520828 -0.02099553 0.00341428
v 0.09372569 -0.02099553 0.00290194
v 0.08391767 -0.04318577 0.00155733
v 0.08664689 -0.03692857 0.00141923
v 0.08796171 -0.03692857 0.00141923
v 0.08970482 -0.04530354 0.00341448
v 0.08811720 -0.03662309 0.00141923
v 0.08470738 -0.04089981 0.00155733
v 0.09313511 -0.02099553 0.00255934
v 0.09137291 -0.02227923 0.00141904
v 0.09523283 -0.02099553 0.00341448
v 0.09034860 -0.02543701 0.00141904
v 0.08936793 -0.02867716 0.00141904
v 0.08860277 -0.03122398 0.00141904
v 0.08860277 -0.03529819 0.00141904
v 0.09136336 -0.04161031 0.00341448
v 0.08846228 -0.03585423 0.00141923
v 0.09201123 -0.02099553 0.00141904
v 0.09785157 -0.02099553 0.00341448
v 0.09018765 -0.03095282 0.00141904
v 0.09142746 -0.04146615 0.00341428
v 0.09308737 -0.03726837 0.00341428
v 0.09320739 -0.03692857 0.00341448
v 0.09592571 -0.02927782 0.00341448
v 0.09370386 -0.03555219 0.00341448
v 0.09276684 -0.02099553 0.00141904
v 0.09709323 -0.02464413 0.00341448
v 0.09189938 -0.02477799 0.00141904
v 0.09664722 -0.02644269 0.00341448
v 0.09262636 -0.02162022 0.00141904
v 0.09668542 -0.02629167 0.00341448
f 1 2 6
f 1 6 10
f 1 10 3
f 1 3 4
f 1 4 5
f 1 5 13
f 1 13 23
f 1 23 30
f 1 30 32
f 1 32 31
f 1 31 36
f 1 36 38
f 1 38 34
f 1 34 26
f 1 26 18
f 1 18 7
f 1 7 2
f 2 7 8
f 2 8 9
f 2 9 6
f 3 10 11
f 3 11 12
f 3 12 4
f 4 13 5
f 4 12 14
f 4 14 13
f 6 15 10
f 6 9 16
f 6 16 17
f 6 17 15
f 7 18 8
f 8 18 26
f 8 26 33
f 8 33 25
f 8 25 16
f 8 16 9
f 10 15 17
f 10 17 19
f 10 19 11
f 11 19 20
f 11 20 21
f 11 21 22
f 11 22 12
f 12 22 14
f 13 14 23
f 14 22 24
f 14 24 23
f 16 25 17
f 17 25 33
f 17 33 37
f 17 37 35
f 17 35 27
f 17 27 22
f 17 22 21
f 17 21 20
f 17 20 19
f 22 27 24
f 23 24 28
f 23 28 29
f 23 29 30
f 24 27 31
f 24 31 32
f 24 32 29
f 24 29 28
f 26 34 33
f 27 35 31
f 29 32 30
f 31 35 36
f 33 34 37
f 34 38 35
f 34 35 37
f 35 38 36

