# https://github.com/mikedh/trimesh
v -0.06794543 -0.09494196 0.00704215
v -0.06794543 -0.09494196 0.00787244
v -0.06794543 -0.09207915 0.00626123
v -0.06794307 -0.09844241 0.00791726
v -0.06794307 -0.10655754 0.01018558
v -0.06794307 -0.10655754 0.01098625
v -0.06794307 -0.10459203 0.01063757
v -0.06794543 -0.08051945 0.00431576
v -0.06794543 -0.08575862 0.00467887
v -0.06467783 -0.10975232 0.00970472
v -0.06467783 -0.10975232 0.01092396
v -0.06184875 -0.11108676 0.01117540
v -0.06467783 -0.10746799 0.01093459
v -0.06794307 -0.10250491 0.01010430
v -0.06364050 -0.10763233 0.01088674
v -0.06382911 -0.08051945 0.00352876
v -0.06794543 -0.08051945 0.00350825
v -0.04745577 -0.11409419 0.01020077
v -0.04386047 -0.11403832 0.00954975
v -0.04386047 -0.11176713 0.00890101
v -0.06794543 -0.08463124 0.00440768
v -0.06184875 -0.11171126 0.00957330
v -0.06184875 -0.11171126 0.01099461
v -0.06184875 -0.11119851 0.01114882
v -0.06158941 -0.11171126 0.01105234
v -0.05547623 -0.11409419 0.01101208
v -0.05424558 -0.11409419 0.01111463
v -0.04386047 -0.09325255 0.00341634
v -0.06327980 -0.08051945 0.00341558
v -0.06743620 -0.08051945 0.00341558
v -0.06355327 -0.08407577 0.00341558
v -0.04386047 -0.11409419 0.00956115
v -0.06741734 -0.08534448 0.00446769
v -0.04386047 -0.10617956 0.00622172
v -0.04386047 -0.11374579 0.00859943
v -0.04386047 -0.11409419 0.00871034
v -0.05547623 -0.11409419 0.00978372
v -0.06282243 -0.08464111 0.00341482
v -0.06191004 -0.08534120 0.00341482
v -0.05919176 -0.08730013 0.00341482
v -0.05438703 -0.09061652 0.00341558
v -0.05235009 -0.09188523 0.00341558
v -0.05168761 -0.09226321 0.00341558
v -0.04947621 -0.09352535 0.00341634
v -0.04899055 -0.09378829 0.00341634
v -0.04465969 -0.09604304 0.00341634
v -0.04388876 -0.09639802 0.00341634
v -0.04386047 -0.09750567 0.00371716
v -0.04386047 -0.10019100 0.00446010
v -0.04386047 -0.10531184 0.00596344
v -0.04386047 -0.09640787 0.00341634
v -0.05772300 -0.08520972 0.00341482
v -0.06054501 -0.08282350 0.00341482
v -0.06282243 -0.08090729 0.00341482
v -0.05772300 -0.08829932 0.00341482
f 1 2 8
f 1 8 17
f 1 17 21
f 1 21 9
f 1 9 3
f 1 3 4
f 1 4 5
f 1 5 6
f 1 6 2
f 2 6 7
f 2 7 8
f 3 9 10
f 3 10 4
f 4 10 5
f 5 10 11
f 5 11 6
f 6 11 12
f 6 12 13
f 6 13 7
f 7 14 8
f 7 13 15
f 7 15 14
f 8 16 29
f 8 29 30
f 8 30 17
f 8 14 15
f 8 15 18
f 8 18 19
f 8 19 20
f 8 20 16
f 9 21 10
f 10 22 23
f 10 23 11
f 10 21 22
f 11 23 24
f 11 24 12
f 12 24 25
f 12 25 26
f 12 26 27
f 12 27 13
f 13 27 15
f 15 27 18
f 16 28 29
f 16 20 28
f 17 30 31
f 17 31 21
f 18 27 26
f 18 26 37
f 18 37 36
f 18 36 32
f 18 32 19
f 19 32 36
f 19 36 35
f 19 35 34
f 19 34 50
f 19 50 49
f 19 49 48
f 19 48 51
f 19 51 28
f 19 28 20
f 21 31 33
f 21 33 22
f 22 34 35
f 22 35 36
f 22 36 37
f 22 37 26
f 22 26 23
f 22 33 31
f 22 31 38
f 22 38 39
f 22 39 40
f 22 40 41
f 22 41 42
f 22 42 43
f 22 43 44
f 22 44 45
f 22 45 46
f 22 46 47
f 22 47 48
f 22 48 49
f 22 49 50
f 22 50 34
f 23 25 24
f 23 26 25
f 28 51 55
f 28 55 52
f 28 52 53
f 28 53 54
f 28 54 29
f 29 54 30
f 30 54 38
f 30 38 31
f 38 54 53
f 38 53 52
f 38 52 55
f 38 55 40
f 38 40 39
f 40 55 41
f 41 55 42
f 42 55 43
f 43 55 51
f 43 51 47
f 43 47 46
f 43 46 45
f 43 45 44
f 47 51 48

