# https://github.com/mikedh/trimesh
v 0.11272089 0.05779857 0.01069087
v 0.11792269 0.04530301 0.01301942
v 0.11272089 0.05835444 0.01069087
v 0.11272089 0.05835444 0.01045734
v 0.11291294 0.05835444 0.00995459
v 0.11329062 0.05835444 0.00898251
v 0.11792269 0.04128136 0.01154053
v 0.11792269 0.04128136 0.01255777
v 0.11792269 0.04187900 0.01263230
v 0.11792269 0.04324129 0.01278679
v 0.11857948 0.04530301 0.01325792
v 0.11934510 0.04324129 0.01330444
v 0.11572188 0.05899123 0.01097680
v 0.11572188 0.05965933 0.01011765
v 0.11391412 0.05835444 0.00876163
v 0.12311297 0.03358255 0.00920521
v 0.12246771 0.03299796 0.01101745
v 0.12246771 0.03358255 0.01305194
v 0.11910184 0.04128136 0.01299412
v 0.11919017 0.04530301 0.01314680
v 0.11988025 0.04310558 0.01321862
v 0.12007357 0.04128136 0.01334735
v 0.12019392 0.04128136 0.01332567
v 0.11861405 0.05414489 0.01002596
v 0.11977655 0.04530301 0.01293224
v 0.12168033 0.04530562 0.01191048
v 0.11876512 0.05297833 0.01097680
v 0.11406263 0.05835444 0.00874492
v 0.11441471 0.05761066 0.00873272
v 0.12394900 0.03358255 0.00895631
v 0.12405910 0.03358255 0.00903401
v 0.12578621 0.03358255 0.01026581
v 0.12579901 0.03358255 0.01051109
v 0.12555448 0.03358255 0.01187840
v 0.12307968 0.03358255 0.01307949
v 0.12289789 0.03358255 0.01313234
v 0.11964724 0.04444439 0.01314002
v 0.12358284 0.03712922 0.01260656
v 0.12308737 0.04295161 0.01031956
v 0.11841560 0.04921765 0.00881854
v 0.12103379 0.04760221 0.01097680
v 0.12359052 0.03718925 0.01259029
v 0.12385554 0.03927445 0.01200308
v 0.12292221 0.04210082 0.01185446
v 0.11981624 0.04530301 0.00884384
v 0.11988025 0.04512815 0.00884519
v 0.11994298 0.04495069 0.00884655
v 0.12280442 0.03718925 0.00896625
v 0.12476326 0.03718141 0.01033357
v 0.12508334 0.03629931 0.01169592
v 0.12270328 0.03750764 0.00896716
f 1 2 3
f 1 3 4
f 1 4 5
f 1 5 6
f 1 6 7
f 1 7 8
f 1 8 9
f 1 9 10
f 1 10 2
f 2 11 3
f 2 10 12
f 2 12 11
f 3 11 13
f 3 13 14
f 3 14 4
f 4 14 5
f 5 14 6
f 6 14 15
f 6 15 16
f 6 16 7
f 7 16 17
f 7 17 8
f 8 17 18
f 8 18 19
f 8 19 9
f 9 19 10
f 10 19 12
f 11 20 13
f 11 12 20
f 12 21 20
f 12 19 22
f 12 22 23
f 12 23 21
f 13 24 14
f 13 20 25
f 13 25 26
f 13 26 27
f 13 27 24
f 14 24 28
f 14 28 15
f 15 28 29
f 15 29 30
f 15 30 16
f 16 30 17
f 17 30 31
f 17 31 32
f 17 32 33
f 17 33 34
f 17 34 35
f 17 35 36
f 17 36 18
f 18 36 22
f 18 22 19
f 20 21 37
f 20 37 25
f 21 23 38
f 21 38 37
f 22 36 23
f 23 36 35
f 23 35 38
f 24 39 40
f 24 40 29
f 24 29 28
f 24 27 26
f 24 26 41
f 24 41 39
f 25 37 38
f 25 38 42
f 25 42 26
f 26 42 43
f 26 43 44
f 26 44 39
f 26 39 41
f 29 40 45
f 29 45 46
f 29 46 47
f 29 47 30
f 30 48 39
f 30 39 31
f 30 47 48
f 31 39 32
f 32 39 49
f 32 49 33
f 33 49 50
f 33 50 34
f 34 50 42
f 34 42 38
f 34 38 35
f 39 50 49
f 39 48 51
f 39 51 46
f 39 46 40
f 39 44 50
f 40 46 45
f 42 50 43
f 43 50 44
f 46 51 47
f 47 51 48

