# https://github.com/mikedh/trimesh
v -0.06184936 -0.10975580 0.01091569
v -0.06184936 -0.10975580 0.00993583
v -0.06257542 -0.10975580 0.01106463
v -0.04386047 -0.11409525 0.00956206
v -0.06658998 -0.10975580 0.00787278
v -0.04386047 -0.11409525 0.00871118
v -0.06612323 -0.10975580 0.01098909
v -0.06192008 -0.11106185 0.01117580
v -0.06184936 -0.11109027 0.01117580
v -0.05424221 -0.11409525 0.01111451
v -0.04386283 -0.11774230 0.01083231
v -0.04516880 -0.11657099 0.01070689
v -0.04386283 -0.11650768 0.01051519
v -0.04745542 -0.11409525 0.01020093
v -0.04386047 -0.11608964 0.01034416
v -0.06743155 -0.10975580 0.00757846
v -0.04386047 -0.11420321 0.00874610
v -0.05098436 -0.11766356 0.00796934
v -0.05221490 -0.11766356 0.00768072
v -0.05987862 -0.11423405 0.00753570
v -0.06484083 -0.11092224 0.01092673
v -0.06468053 -0.11092955 0.01094099
v -0.06765079 -0.10975580 0.01057078
v -0.05202867 -0.11682425 0.01107567
v -0.05221490 -0.11659534 0.01107924
v -0.04560726 -0.11804832 0.01102187
v -0.04386283 -0.11804832 0.01089039
v -0.04386047 -0.11608964 0.00946728
v -0.06490920 -0.11171448 0.00755851
v -0.06794074 -0.11014299 0.00758701
v -0.06794074 -0.10975580 0.00758488
v -0.04386283 -0.11804832 0.01001315
v -0.05221490 -0.11766356 0.01070226
v -0.06129067 -0.11491590 0.00852661
v -0.06129067 -0.11461231 0.00822838
v -0.04832057 -0.11804832 0.00955564
v -0.06458153 -0.11196773 0.00755637
v -0.06713453 -0.11061217 0.01040723
v -0.06074613 -0.11423405 0.01047956
v -0.06031945 -0.11423405 0.01057612
v -0.06794074 -0.10975580 0.01048277
v -0.06794074 -0.11016166 0.01033169
v -0.05039738 -0.11766356 0.01103577
v -0.05221490 -0.11696305 0.01098588
v -0.04832057 -0.11804832 0.01100120
v -0.06794074 -0.11117793 0.00829073
v -0.06506007 -0.11291176 0.00876356
v -0.06794074 -0.11127290 0.00838979
v -0.06614209 -0.11171448 0.00961907
f 1 2 5
f 1 5 16
f 1 16 31
f 1 31 41
f 1 41 23
f 1 23 7
f 1 7 3
f 1 3 4
f 1 4 6
f 1 6 2
f 2 6 5
f 3 7 8
f 3 8 9
f 3 9 10
f 3 10 11
f 3 11 12
f 3 12 13
f 3 13 14
f 3 14 4
f 4 14 13
f 4 13 15
f 4 15 28
f 4 28 17
f 4 17 6
f 5 6 16
f 6 17 18
f 6 18 19
f 6 19 20
f 6 20 16
f 7 21 22
f 7 22 8
f 7 23 21
f 8 22 24
f 8 24 9
f 9 24 25
f 9 25 10
f 10 25 26
f 10 26 27
f 10 27 11
f 11 27 15
f 11 15 13
f 11 13 12
f 15 27 32
f 15 32 28
f 16 20 29
f 16 29 30
f 16 30 31
f 17 28 32
f 17 32 18
f 18 32 19
f 19 33 34
f 19 34 35
f 19 35 20
f 19 32 36
f 19 36 45
f 19 45 33
f 20 35 37
f 20 37 29
f 21 23 38
f 21 38 39
f 21 39 40
f 21 40 24
f 21 24 22
f 23 41 42
f 23 42 38
f 24 43 26
f 24 26 25
f 24 40 44
f 24 44 43
f 26 43 45
f 26 45 36
f 26 36 32
f 26 32 27
f 29 37 30
f 30 37 46
f 30 46 48
f 30 48 42
f 30 42 41
f 30 41 31
f 33 45 43
f 33 43 44
f 33 44 40
f 33 40 39
f 33 39 34
f 34 39 47
f 34 47 48
f 34 48 46
f 34 46 35
f 35 46 37
f 38 42 49
f 38 49 39
f 39 49 47
f 42 48 47
f 42 47 49

