# https://github.com/mikedh/trimesh
v -0.08389097 -0.02055067 -0.00971880
v -0.08189962 -0.02055067 -0.00971880
v -0.08309757 -0.02055067 -0.01036266
v -0.08385562 -0.02070253 -0.00971880
v -0.08302949 -0.02418389 -0.00971848
v -0.08291166 -0.02401115 -0.00971848
v -0.07051711 -0.02055447 -0.01207471
v -0.07605911 -0.02055067 -0.01190216
v -0.08107349 -0.02401115 -0.00971848
v -0.07475642 -0.03994111 -0.00971816
v -0.08263541 -0.02055067 -0.01065087
v -0.08066239 -0.02400925 -0.01124840
v -0.08293653 -0.02401115 -0.00982840
v -0.08306483 -0.02401115 -0.00972391
v -0.08292475 -0.02425033 -0.00979101
v -0.08041887 -0.03257218 -0.00971848
v -0.07605911 -0.03994111 -0.00971816
v -0.07605911 -0.03761388 -0.00971816
v -0.07051711 -0.02410227 -0.01195744
v -0.07051580 -0.03994111 -0.01152288
v -0.07051580 -0.03813969 -0.01159094
v -0.07051580 -0.03204637 -0.01195744
v -0.07051711 -0.02055447 -0.01287897
v -0.07605911 -0.02055067 -0.01278790
v -0.07606042 -0.03994301 -0.00971848
v -0.07932304 -0.02055067 -0.01212647
v -0.07995409 -0.02400925 -0.01156314
v -0.08012429 -0.02495077 -0.01141008
v -0.07858332 -0.03103840 -0.01119120
v -0.08024212 -0.03304484 -0.00971848
v -0.07686822 -0.03994301 -0.00971848
v -0.07051580 -0.03994111 -0.01248595
v -0.07051580 -0.03204637 -0.01293329
v -0.07051711 -0.02327084 -0.01291061
v -0.07163258 -0.02055447 -0.01293553
v -0.07176088 -0.02055447 -0.01293936
v -0.07504052 -0.02055447 -0.01293457
v -0.07456788 -0.02381753 -0.01290613
v -0.07605911 -0.02212051 -0.01274125
v -0.07743643 -0.02055067 -0.01258884
v -0.07606042 -0.03994301 -0.01040356
v -0.07874436 -0.02055067 -0.01234695
v -0.07825208 -0.02401115 -0.01221179
v -0.07810152 -0.02505518 -0.01217089
v -0.07420130 -0.03408317 -0.01241597
v -0.07554065 -0.03715451 -0.01129697
v -0.07598710 -0.03948933 -0.01064480
v -0.07877185 -0.03473426 -0.01022813
v -0.07165876 -0.03994111 -0.01227857
v -0.07287242 -0.03460708 -0.01257989
v -0.07051580 -0.03553721 -0.01286939
v -0.07051580 -0.03403382 -0.01293649
v -0.07051711 -0.02749820 -0.01292690
v -0.07222828 -0.02762349 -0.01298250
v -0.07104735 -0.03204447 -0.01295087
v -0.07521727 -0.02858969 -0.01261408
v -0.07603816 -0.03994111 -0.01042145
v -0.07382293 -0.03994111 -0.01145929
v -0.07287242 -0.03994111 -0.01185711
v -0.07230291 -0.03994111 -0.01209452
v -0.07606042 -0.02756084 -0.01248435
v -0.07287242 -0.03945327 -0.01195489
v -0.07051711 -0.03204447 -0.01293393
f 1 2 8
f 1 8 24
f 1 24 40
f 1 40 42
f 1 42 26
f 1 26 11
f 1 11 3
f 1 3 4
f 1 4 5
f 1 5 6
f 1 6 9
f 1 9 2
f 2 7 8
f 2 9 10
f 2 10 7
f 3 11 12
f 3 12 13
f 3 13 4
f 4 13 14
f 4 14 5
f 5 14 15
f 5 15 16
f 5 16 17
f 5 17 18
f 5 18 6
f 6 18 9
f 7 19 20
f 7 20 21
f 7 21 22
f 7 22 33
f 7 33 23
f 7 23 24
f 7 24 8
f 7 10 19
f 9 18 10
f 10 18 17
f 10 17 31
f 10 31 25
f 10 25 20
f 10 20 19
f 11 26 12
f 12 27 28
f 12 28 13
f 12 26 27
f 13 28 15
f 13 15 14
f 15 28 29
f 15 29 16
f 16 29 30
f 16 30 17
f 17 30 31
f 20 32 51
f 20 51 52
f 20 52 33
f 20 33 22
f 20 22 21
f 20 25 41
f 20 41 32
f 23 34 35
f 23 35 24
f 23 33 34
f 24 35 36
f 24 36 37
f 24 37 38
f 24 38 39
f 24 39 40
f 25 31 41
f 26 42 43
f 26 43 27
f 27 43 28
f 28 43 44
f 28 44 29
f 29 45 46
f 29 46 47
f 29 47 48
f 29 48 30
f 29 44 45
f 30 48 47
f 30 47 41
f 30 41 31
f 32 41 49
f 32 49 45
f 32 45 50
f 32 50 51
f 33 52 53
f 33 53 34
f 34 53 54
f 34 54 35
f 35 54 36
f 36 54 37
f 37 54 38
f 38 54 55
f 38 55 52
f 38 52 51
f 38 51 56
f 38 56 39
f 39 56 40
f 40 56 42
f 41 47 57
f 41 57 58
f 41 58 59
f 41 59 60
f 41 60 49
f 42 56 43
f 43 61 44
f 43 56 61
f 44 61 45
f 45 49 60
f 45 60 62
f 45 62 46
f 45 61 56
f 45 56 50
f 46 62 47
f 47 62 59
f 47 59 58
f 47 58 57
f 50 56 51
f 52 55 63
f 52 63 53
f 53 63 54
f 54 63 55
f 59 62 60

