# https://github.com/mikedh/trimesh
v 0.06162587 -0.06879304 -0.00283790
v 0.06162587 -0.06723684 -0.00283790
v 0.06162587 -0.06763037 -0.00439667
v 0.06295097 -0.07343479 0.00155618
v 0.06162587 -0.06692829 -0.00315928
v 0.06295097 -0.07103789 0.00155618
v 0.06294809 -0.07064437 0.00138733
v 0.06294809 -0.07005409 0.00113529
v 0.06294809 -0.06843082 -0.00017143
v 0.08966854 -0.02775959 0.00141751
v 0.08373290 -0.02775064 -0.00677601
v 0.06162587 -0.06691487 -0.00526374
v 0.06389952 -0.07258067 0.00155618
v 0.06765062 -0.06850237 0.00155700
v 0.06490843 -0.07064437 0.00155700
v 0.06353160 -0.07064437 0.00155700
v 0.06162587 -0.06443748 -0.00614549
v 0.08680276 -0.03694024 0.00155618
v 0.09098790 -0.02775959 0.00141751
v 0.08816810 -0.02775064 -0.00080359
v 0.08494303 -0.02775064 -0.00677601
v 0.08324138 -0.02889543 -0.00677601
v 0.07163742 -0.05158546 -0.00673115
v 0.06162587 -0.06589529 -0.00614549
v 0.06295097 -0.06462083 -0.00614549
v 0.06456926 -0.06371305 -0.00556391
v 0.06652385 -0.06975895 0.00155618
v 0.06962821 -0.06637826 0.00155700
v 0.06443703 -0.06947276 0.00155700
v 0.08810487 -0.03694024 0.00155618
v 0.07858197 -0.05159441 0.00155700
v 0.09051074 -0.02966458 0.00141751
v 0.08603817 -0.02775064 -0.00544645
v 0.08902180 -0.02775064 -0.00080359
v 0.08526496 -0.02775064 -0.00639672
v 0.08484242 -0.02808603 -0.00677601
v 0.08029224 -0.03635890 -0.00677601
v 0.07311773 -0.05158546 -0.00673115
v 0.08008816 -0.03693130 -0.00677601
v 0.06520162 -0.06238491 -0.00611939
v 0.06370981 -0.06390534 -0.00611939
v 0.06749827 -0.05980020 -0.00612020
v 0.06963395 -0.05730045 -0.00612020
v 0.07495447 -0.06003721 0.00155700
v 0.08587721 -0.04226618 0.00155618
v 0.08845554 -0.03585806 0.00141751
v 0.09018019 -0.03095694 0.00141751
v 0.08040721 -0.05159441 0.00155700
v 0.08475906 -0.03087645 -0.00576783
v 0.08430778 -0.02974060 -0.00677601
v 0.08082688 -0.03693130 -0.00677601
v 0.08142188 -0.03692682 -0.00677601
v 0.07449457 -0.04971177 -0.00673115
v 0.07066586 -0.05701873 -0.00529636
v 0.08069465 -0.05118300 0.00155618
v 0.07645204 -0.04679614 -0.00673115
v 0.07926895 -0.04174298 -0.00673115
v 0.07944142 -0.04141206 -0.00673115
v 0.08228708 -0.03812080 -0.00516749
v 0.08096773 -0.05071793 0.00155618
v 0.07671073 -0.04636237 -0.00673115
v 0.08354606 -0.03185578 -0.00677601
v 0.08212323 -0.03533933 -0.00677601
f 1 2 5
f 1 5 17
f 1 17 24
f 1 24 12
f 1 12 3
f 1 3 4
f 1 4 6
f 1 6 2
f 2 6 7
f 2 7 8
f 2 8 9
f 2 9 10
f 2 10 11
f 2 11 5
f 3 12 4
f 4 13 14
f 4 14 15
f 4 15 16
f 4 16 6
f 4 12 13
f 5 11 17
f 6 16 18
f 6 18 10
f 6 10 7
f 7 10 8
f 8 10 9
f 10 18 30
f 10 30 19
f 10 19 34
f 10 34 20
f 10 20 11
f 11 21 36
f 11 36 50
f 11 50 62
f 11 62 63
f 11 63 52
f 11 52 51
f 11 51 39
f 11 39 37
f 11 37 22
f 11 22 23
f 11 23 17
f 11 20 34
f 11 34 33
f 11 33 35
f 11 35 21
f 12 24 25
f 12 25 13
f 13 25 26
f 13 26 27
f 13 27 28
f 13 28 14
f 14 28 44
f 14 44 48
f 14 48 31
f 14 31 29
f 14 29 16
f 14 16 15
f 16 29 18
f 17 23 24
f 18 29 31
f 18 31 48
f 18 48 30
f 19 32 33
f 19 33 34
f 19 30 32
f 21 35 36
f 22 37 23
f 23 38 24
f 23 37 39
f 23 39 51
f 23 51 38
f 24 38 25
f 25 40 41
f 25 41 26
f 25 38 40
f 26 41 40
f 26 40 28
f 26 28 27
f 28 40 42
f 28 42 43
f 28 43 44
f 30 45 46
f 30 46 47
f 30 47 32
f 30 48 45
f 32 47 33
f 33 47 49
f 33 49 35
f 35 49 50
f 35 50 36
f 38 43 42
f 38 42 40
f 38 51 52
f 38 52 53
f 38 53 43
f 43 54 44
f 43 53 54
f 44 55 48
f 44 54 53
f 44 53 56
f 44 56 55
f 45 57 58
f 45 58 59
f 45 59 46
f 45 48 60
f 45 60 61
f 45 61 57
f 46 59 49
f 46 49 47
f 48 55 60
f 49 62 50
f 49 59 62
f 52 59 58
f 52 58 57
f 52 57 61
f 52 61 56
f 52 56 53
f 52 63 59
f 55 56 61
f 55 61 60
f 59 63 62

