# https://github.com/mikedh/trimesh
v 0.03837246 0.11679820 0.01080067
v 0.04743557 0.11679547 0.01193012
v 0.03837246 0.11679820 0.00981292
v 0.00153140 0.11679820 0.00859344
v 0.04743557 0.08888617 0.00341464
v 0.04743557 0.11679547 0.01012383
v 0.03759511 0.11679820 0.00972123
v 0.00153140 0.11679820 0.00768988
v 0.00153140 0.10309355 0.00421151
v 0.03837246 0.09343799 0.00341464
v 0.04743557 0.09211561 0.00341464
v 0.00153140 0.10127937 0.00341548
v 0.03242774 0.11679820 0.00921193
v 0.04743557 0.09557456 0.00433988
v 0.04326573 0.09437240 0.00341464
v 0.04247490 0.09471666 0.00341464
v 0.03844884 0.09638602 0.00341464
v 0.03300289 0.09848161 0.00341714
v 0.03209973 0.09877669 0.00341631
v 0.02604717 0.10052256 0.00341548
v 0.02021479 0.10435035 0.00415983
v 0.02419591 0.11351411 0.00738064
v 0.02412851 0.11679547 0.00848258
v 0.01435095 0.11679820 0.00791994
v 0.00153140 0.11256058 0.00625786
v 0.00557991 0.11679820 0.00767571
v 0.03837246 0.09641335 0.00341464
v 0.00153140 0.10382850 0.00341548
v 0.03242774 0.09866740 0.00341631
v 0.02818601 0.09987502 0.00341548
v 0.01963964 0.10206351 0.00341548
v 0.01180322 0.10321103 0.00341548
v 0.01272436 0.11507419 0.00723977
v 0.01945541 0.11013439 0.00597695
v 0.02134712 0.11263981 0.00691052
v 0.01920828 0.11198408 0.00655793
v 0.01598654 0.11679547 0.00800413
v 0.01507438 0.11679547 0.00795328
v 0.01435095 0.11626542 0.00773323
v 0.01231546 0.11679820 0.00782659
v 0.00153140 0.11222451 0.00614700
v 0.00579110 0.11528183 0.00716392
v 0.00881963 0.10347332 0.00341548
v 0.00894993 0.10346512 0.00341548
v 0.00153140 0.10691314 0.00440573
v 0.00875672 0.10918359 0.00524427
v 0.00936332 0.11008521 0.00554851
v 0.00191333 0.11040761 0.00554851
v 0.00828492 0.11015352 0.00554851
v 0.00306363 0.11039668 0.00554851
v 0.00222787 0.10888851 0.00505172
f 1 2 6
f 1 6 3
f 1 3 7
f 1 7 13
f 1 13 24
f 1 24 40
f 1 40 26
f 1 26 8
f 1 8 4
f 1 4 2
f 2 5 11
f 2 11 14
f 2 14 6
f 2 4 5
f 3 6 7
f 4 8 25
f 4 25 41
f 4 41 45
f 4 45 28
f 4 28 12
f 4 12 9
f 4 9 5
f 5 10 27
f 5 27 17
f 5 17 16
f 5 16 15
f 5 15 11
f 5 9 12
f 5 12 10
f 6 13 7
f 6 14 15
f 6 15 16
f 6 16 17
f 6 17 18
f 6 18 19
f 6 19 20
f 6 20 21
f 6 21 22
f 6 22 23
f 6 23 24
f 6 24 13
f 8 26 25
f 10 12 28
f 10 28 27
f 11 15 14
f 17 27 29
f 17 29 18
f 18 29 19
f 19 29 27
f 19 27 30
f 19 30 20
f 20 30 27
f 20 27 31
f 20 31 21
f 21 31 32
f 21 32 33
f 21 33 34
f 21 34 22
f 22 34 35
f 22 35 23
f 23 35 36
f 23 36 37
f 23 37 24
f 24 37 38
f 24 38 39
f 24 39 33
f 24 33 40
f 25 26 42
f 25 42 41
f 26 40 33
f 26 33 42
f 27 28 43
f 27 43 44
f 27 44 32
f 27 32 31
f 28 45 46
f 28 46 43
f 32 44 33
f 33 39 36
f 33 36 34
f 33 44 47
f 33 47 42
f 34 36 35
f 36 39 37
f 37 39 38
f 41 42 48
f 41 48 45
f 42 49 50
f 42 50 48
f 42 47 49
f 43 46 44
f 44 46 47
f 45 48 51
f 45 51 50
f 45 50 49
f 45 49 46
f 46 49 47
f 48 50 51

