# https://github.com/mikedh/trimesh
v 0.04838221 0.08173052 0.00036368
v 0.04838468 0.08116749 -0.00003025
v 0.04838468 0.08027106 -0.00003025
v 0.04838221 0.08173052 0.00108891
v 0.04838221 0.09165420 0.00341399
v 0.04959894 0.07853481 -0.00162221
v 0.04959894 0.07768556 -0.00162221
v 0.07369820 0.05952098 0.00109088
v 0.04838468 0.08111403 0.00083352
v 0.04838468 0.08172423 0.00108940
v 0.04838221 0.08501744 0.00246147
v 0.04838221 0.08837986 0.00341399
v 0.05866373 0.08172423 0.00341448
v 0.06102286 0.08346677 0.00341448
v 0.05000535 0.09087729 0.00341399
v 0.05050344 0.07804728 -0.00162221
v 0.05108578 0.09033628 0.00341399
v 0.05054557 0.07701559 -0.00162221
v 0.07369820 0.06208761 0.00109088
v 0.07369820 0.05993617 0.00137289
v 0.05292203 0.07543976 -0.00162221
v 0.05580652 0.07357769 -0.00162221
v 0.05668127 0.07357769 -0.00162221
v 0.04838221 0.08621583 0.00284701
v 0.07369820 0.06018466 0.00145818
v 0.07369820 0.06177308 0.00200099
v 0.04838221 0.08720978 0.00310782
v 0.07369820 0.06580860 0.00296337
v 0.07369820 0.06793173 0.00341399
v 0.06412788 0.07758491 0.00341448
v 0.06261130 0.08224007 0.00341448
v 0.06078496 0.08365235 0.00341399
v 0.05519443 0.08751487 0.00341399
v 0.05321445 0.07628586 -0.00162221
v 0.07369820 0.06578973 0.00192457
v 0.07141094 0.07450872 0.00341399
v 0.07199081 0.07394570 0.00341399
v 0.07369820 0.07198298 0.00341399
v 0.06413036 0.08102280 0.00341399
v 0.06628133 0.07929285 0.00341399
v 0.06668277 0.07894371 0.00341399
v 0.06412788 0.08101966 0.00341448
f 1 2 3
f 1 3 4
f 1 4 11
f 1 11 24
f 1 24 27
f 1 27 12
f 1 12 5
f 1 5 2
f 2 5 6
f 2 6 7
f 2 7 3
f 3 7 8
f 3 8 9
f 3 9 4
f 4 10 11
f 4 9 10
f 5 12 13
f 5 13 14
f 5 14 15
f 5 15 6
f 6 16 34
f 6 34 23
f 6 23 22
f 6 22 21
f 6 21 18
f 6 18 7
f 6 15 17
f 6 17 16
f 7 18 8
f 8 19 35
f 8 35 38
f 8 38 29
f 8 29 28
f 8 28 26
f 8 26 25
f 8 25 20
f 8 20 9
f 8 18 21
f 8 21 22
f 8 22 23
f 8 23 19
f 9 20 10
f 10 20 11
f 11 20 25
f 11 25 26
f 11 26 24
f 12 27 26
f 12 26 28
f 12 28 29
f 12 29 13
f 13 29 30
f 13 30 42
f 13 42 31
f 13 31 14
f 14 31 32
f 14 32 33
f 14 33 17
f 14 17 15
f 16 17 34
f 17 33 34
f 19 23 35
f 23 36 37
f 23 37 38
f 23 38 35
f 23 34 31
f 23 31 39
f 23 39 40
f 23 40 41
f 23 41 36
f 24 26 27
f 29 38 42
f 29 42 30
f 31 34 32
f 31 42 40
f 31 40 39
f 32 34 33
f 36 41 42
f 36 42 37
f 37 42 38
f 40 42 41

