# https://github.com/mikedh/trimesh
v -0.03377905 -0.10058502 0.00341720
v -0.03371171 -0.11177516 0.00685757
v -0.03371171 -0.11304562 0.00726399
v -0.03371171 -0.11893856 0.00923792
v -0.03371171 -0.11912518 0.00930822
v -0.03371171 -0.11912518 0.01026278
v -0.03377905 -0.09764214 0.00341720
v -0.03377905 -0.08976095 -0.00001768
v -0.03371171 -0.11099637 0.00661151
v -0.03138290 -0.12361846 0.00972783
v -0.03138290 -0.12361846 0.01109651
v -0.03138290 -0.12252027 0.01105697
v -0.02873703 -0.12340313 0.01120416
v -0.02456480 -0.12210755 0.01074061
v -0.02436279 -0.12204295 0.01071755
v -0.00877375 -0.12257410 0.01020017
v -0.03377905 -0.09324216 0.00225173
v -0.03377905 -0.08817825 -0.00001768
v -0.03203385 -0.09056486 -0.00001768
v -0.01154027 -0.11987526 0.00806367
v -0.00958463 -0.12260999 0.00902702
v -0.00790956 -0.12483510 0.00985635
v -0.02277751 -0.12483510 0.01011229
v -0.03049627 -0.09112831 -0.00001768
v -0.02721628 -0.09224445 -0.00001768
v -0.01588646 -0.09491817 -0.00001768
v -0.00844547 -0.09571491 -0.00001768
v -0.00789553 -0.09576156 -0.00001768
v -0.03094239 -0.12361846 0.01111519
v -0.02277751 -0.12483510 0.01110750
v -0.02856868 -0.12361846 0.01118659
v -0.02811695 -0.12361846 0.01119318
v -0.02796544 -0.12361846 0.01119428
v -0.01569847 -0.12483510 0.01104818
v -0.01135789 -0.12483510 0.01093724
v -0.00645335 -0.12483510 0.01075599
v -0.00511499 -0.12483510 0.01068569
v -0.00511499 -0.12061816 0.00930054
v -0.00634393 -0.09909205 0.00224734
v -0.00634393 -0.09641474 0.00134551
v -0.03377905 -0.08908265 0.00076332
v -0.00634393 -0.09408555 -0.00001768
v -0.00758128 -0.11912160 0.00774951
v -0.00511499 -0.12291504 0.00910171
v -0.00511499 -0.12483151 0.00982889
v -0.00730632 -0.11907135 0.00772864
v -0.00512621 -0.12483510 0.00983109
v -0.00634393 -0.09574361 -0.00001768
v -0.00511499 -0.12483510 0.00986075
v -0.00511499 -0.11912518 0.00869638
v -0.00586975 -0.10295727 0.00341720
v -0.00558355 -0.10963977 0.00469251
v -0.00511499 -0.12095911 0.00839541
v -0.00558355 -0.11896369 0.00770777
v -0.00558355 -0.11912160 0.00776160
v -0.00511499 -0.11912518 0.00776819
f 1 2 3
f 1 3 4
f 1 4 5
f 1 5 6
f 1 6 7
f 1 7 17
f 1 17 41
f 1 41 18
f 1 18 8
f 1 8 2
f 2 8 9
f 2 9 10
f 2 10 3
f 3 10 4
f 4 10 5
f 5 10 11
f 5 11 6
f 6 11 12
f 6 12 13
f 6 13 14
f 6 14 15
f 6 15 16
f 6 16 17
f 6 17 7
f 8 18 42
f 8 42 48
f 8 48 28
f 8 28 27
f 8 27 26
f 8 26 25
f 8 25 24
f 8 24 19
f 8 19 10
f 8 10 9
f 10 20 21
f 10 21 22
f 10 22 23
f 10 23 30
f 10 30 11
f 10 19 24
f 10 24 25
f 10 25 26
f 10 26 27
f 10 27 28
f 10 28 20
f 11 29 13
f 11 13 12
f 11 30 29
f 13 29 31
f 13 31 32
f 13 32 33
f 13 33 34
f 13 34 35
f 13 35 14
f 14 35 15
f 15 35 36
f 15 36 16
f 16 36 37
f 16 37 38
f 16 38 17
f 17 39 40
f 17 40 41
f 17 38 39
f 18 41 42
f 20 28 43
f 20 43 21
f 21 44 45
f 21 45 22
f 21 43 46
f 21 46 44
f 22 45 47
f 22 47 49
f 22 49 37
f 22 37 36
f 22 36 35
f 22 35 34
f 22 34 30
f 22 30 23
f 28 48 46
f 28 46 43
f 29 30 31
f 30 34 33
f 30 33 32
f 30 32 31
f 37 49 45
f 37 45 44
f 37 44 53
f 37 53 56
f 37 56 50
f 37 50 38
f 38 50 51
f 38 51 40
f 38 40 39
f 40 51 42
f 40 42 41
f 42 51 52
f 42 52 48
f 44 46 53
f 45 49 47
f 46 48 54
f 46 54 55
f 46 55 53
f 48 52 56
f 48 56 54
f 50 56 51
f 51 56 52
f 53 55 56
f 54 56 55

