# https://github.com/mikedh/trimesh
v -0.09969508 0.02102090 0.00341417
v -0.09717204 0.02102090 0.00341417
v -0.09434922 0.03866841 0.00341448
v -0.09913263 0.02392029 0.00341417
v -0.09211801 0.02102090 0.00034627
v -0.09159271 0.03866841 0.00341448
v -0.09411310 0.02102090 0.00247941
v -0.07703286 0.05875363 0.00263715
v -0.08003079 0.05875363 0.00341448
v -0.09456145 0.03820303 0.00341417
v -0.09571287 0.03528148 0.00341417
v -0.09610552 0.03409217 0.00341417
v -0.09674756 0.03214570 0.00341417
v -0.09760448 0.02931279 0.00341417
v -0.09777163 0.02874768 0.00341417
v -0.09259821 0.04267585 0.00341448
v -0.09120006 0.02478087 0.00034627
v -0.09186597 0.02230993 0.00034627
v -0.08573216 0.03866841 0.00027937
v -0.09079945 0.02102090 0.00034627
v -0.09408656 0.02102090 0.00247082
v -0.07704612 0.05824393 0.00254201
v -0.07340882 0.05875363 0.00106376
v -0.08010772 0.05875363 0.00341448
v -0.08887866 0.03263324 0.00034627
v -0.09205964 0.04387254 0.00341448
v -0.08485400 0.04066659 0.00027937
v -0.08478237 0.03866841 0.00027937
v -0.09107537 0.02102090 0.00063474
v -0.08444543 0.03916703 0.00027937
v -0.07259168 0.05875363 0.00027937
v -0.09301208 0.02102090 0.00181716
v -0.08347708 0.05875363 0.00341417
v -0.08919437 0.04955314 0.00341448
v -0.08362300 0.04345518 0.00027937
v -0.08412177 0.04232867 0.00027937
v -0.09008313 0.04792061 0.00341448
v -0.07384125 0.05875363 0.00027937
v -0.07401636 0.05875363 0.00029042
v -0.07720530 0.05455043 0.00027968
v -0.08443747 0.05735011 0.00341417
v -0.08763969 0.05232326 0.00341417
v -0.08790765 0.05186157 0.00341417
v -0.08919437 0.04955314 0.00341417
v -0.08961620 0.04878858 0.00341448
v -0.08113975 0.04776918 0.00027937
v -0.07995651 0.04955314 0.00027937
f 1 2 6
f 1 6 3
f 1 3 4
f 1 4 5
f 1 5 20
f 1 20 29
f 1 29 32
f 1 32 21
f 1 21 7
f 1 7 2
f 2 7 8
f 2 8 9
f 2 9 6
f 3 10 11
f 3 11 12
f 3 12 13
f 3 13 14
f 3 14 15
f 3 15 4
f 3 6 9
f 3 9 24
f 3 24 34
f 3 34 45
f 3 45 37
f 3 37 26
f 3 26 16
f 3 16 10
f 4 15 17
f 4 17 18
f 4 18 5
f 5 18 19
f 5 19 28
f 5 28 20
f 7 21 8
f 8 22 23
f 8 23 31
f 8 31 38
f 8 38 39
f 8 39 33
f 8 33 24
f 8 24 9
f 8 21 22
f 10 16 25
f 10 25 11
f 11 25 12
f 12 25 13
f 13 25 14
f 14 25 15
f 15 25 17
f 16 26 25
f 17 25 19
f 17 19 18
f 19 25 27
f 19 27 36
f 19 36 35
f 19 35 46
f 19 46 47
f 19 47 38
f 19 38 31
f 19 31 30
f 19 30 28
f 20 28 30
f 20 30 31
f 20 31 29
f 21 32 23
f 21 23 22
f 23 32 29
f 23 29 31
f 24 33 34
f 25 26 35
f 25 35 36
f 25 36 27
f 26 37 35
f 33 39 40
f 33 40 41
f 33 41 34
f 34 41 42
f 34 42 43
f 34 43 44
f 34 44 45
f 35 37 45
f 35 45 44
f 35 44 43
f 35 43 46
f 38 47 40
f 38 40 39
f 40 43 42
f 40 42 41
f 40 47 46
f 40 46 43

