# https://github.com/mikedh/trimesh
v 0.04855680 -0.08256920 0.00078504
v 0.05081130 -0.08113320 0.00078504
v 0.04855680 -0.08066341 0.00078504
v 0.04855680 -0.07891261 -0.00283816
v 0.04855821 -0.07560473 -0.00688845
v 0.04855821 -0.07628520 -0.00614605
v 0.05954485 -0.07486615 0.00078504
v 0.05002835 -0.07376917 -0.00778751
v 0.05102394 -0.07457556 -0.00614605
v 0.04972418 -0.07974321 0.00078504
v 0.06294139 -0.05783517 -0.00940902
v 0.04855821 -0.07018039 -0.00940902
v 0.04855680 -0.07927585 -0.00075365
v 0.04855680 -0.07740397 -0.00283816
v 0.04855821 -0.07245910 -0.00940902
v 0.04855821 -0.07388541 -0.00850796
v 0.06019825 -0.07432129 0.00078504
v 0.05682706 -0.06959437 -0.00701218
v 0.05441625 -0.06832303 -0.00940004
v 0.05576247 -0.06869112 -0.00836627
v 0.06294139 -0.06963311 0.00078504
v 0.06294139 -0.06843927 -0.00017090
v 0.06294139 -0.06023738 -0.00940902
v 0.04855680 -0.07767518 -0.00253282
v 0.05048178 -0.07121440 -0.00940902
v 0.06294139 -0.07159701 0.00078504
v 0.05887174 -0.06859183 -0.00614605
v 0.06107836 -0.06750938 -0.00520906
v 0.06161769 -0.06692336 -0.00526394
v 0.05831832 -0.06693789 -0.00804895
v 0.06294139 -0.06409011 -0.00661104
v 0.06294139 -0.06462286 -0.00614605
v 0.05440498 -0.06831819 -0.00940902
v 0.05805077 -0.06520162 -0.00940902
v 0.05947162 -0.06488197 -0.00885023
v 0.05747060 -0.06693789 -0.00858879
v 0.06294139 -0.06038751 -0.00933219
v 0.05955048 -0.06371477 -0.00940902
v 0.06294139 -0.06047469 -0.00928729
f 1 2 7
f 1 7 17
f 1 17 26
f 1 26 21
f 1 21 10
f 1 10 3
f 1 3 13
f 1 13 24
f 1 24 14
f 1 14 4
f 1 4 5
f 1 5 6
f 1 6 2
f 2 6 5
f 2 5 8
f 2 8 9
f 2 9 7
f 3 10 11
f 3 11 12
f 3 12 13
f 4 14 12
f 4 12 15
f 4 15 16
f 4 16 5
f 5 16 8
f 7 9 18
f 7 18 17
f 8 16 19
f 8 19 20
f 8 20 18
f 8 18 9
f 10 21 22
f 10 22 11
f 11 22 21
f 11 21 26
f 11 26 32
f 11 32 31
f 11 31 39
f 11 39 37
f 11 37 23
f 11 23 38
f 11 38 34
f 11 34 33
f 11 33 25
f 11 25 15
f 11 15 12
f 12 14 24
f 12 24 13
f 15 25 16
f 16 25 19
f 17 18 27
f 17 27 28
f 17 28 29
f 17 29 26
f 18 20 30
f 18 30 31
f 18 31 32
f 18 32 27
f 19 33 34
f 19 34 35
f 19 35 36
f 19 36 20
f 19 25 33
f 20 36 30
f 23 37 38
f 26 29 32
f 27 32 29
f 27 29 28
f 30 36 35
f 30 35 31
f 31 35 39
f 34 38 35
f 35 38 37
f 35 37 39

