# https://github.com/mikedh/trimesh
v -0.02902932 0.08993854 0.00032899
v -0.02902932 0.08926011 0.00032899
v -0.02902932 0.08749905 -0.00218263
v -0.03099235 0.08509612 -0.00479415
v -0.03099235 0.08936574 0.00041539
v -0.04670991 0.08324975 0.00173296
v -0.02902932 0.08910574 0.00031886
v -0.02902932 0.08700749 -0.00218263
v -0.03099235 0.08449894 -0.00516135
v -0.03196220 0.08437910 -0.00516135
v -0.03245878 0.08425926 -0.00516135
v -0.03464844 0.08814701 0.00041539
v -0.03213217 0.08898793 0.00041539
v -0.04579005 0.08324975 0.00159256
v -0.04670991 0.08324975 0.00090948
v -0.05861140 0.07495425 0.00041606
v -0.06307404 0.06982543 0.00027904
v -0.06200087 0.06982543 0.00027904
v -0.02902932 0.08862434 -0.00014958
v -0.03212217 0.08360926 -0.00516135
v -0.03104567 0.08441769 -0.00511207
v -0.03099901 0.08447660 -0.00516135
v -0.02902932 0.08731014 -0.00172904
v -0.05960791 0.06918966 -0.00235138
v -0.03485175 0.08283131 -0.00516270
v -0.03485175 0.08318068 -0.00516270
v -0.03531168 0.08309131 -0.00516270
v -0.03311202 0.08400942 -0.00516135
v -0.04008094 0.08087525 -0.00516135
v -0.04578339 0.07799092 -0.00516270
v -0.05056931 0.08033495 0.00041606
v -0.05537523 0.07168805 -0.00463958
v -0.05960791 0.07017480 -0.00235138
v -0.05269898 0.07377005 -0.00477795
v -0.06092104 0.06982543 -0.00138750
v -0.05960791 0.06952075 -0.00190454
v -0.02902932 0.08796013 -0.00088126
v -0.02902932 0.08807795 -0.00074491
v -0.04179067 0.07877091 -0.00516270
v -0.03572828 0.08213257 -0.00516270
v -0.05537523 0.07069276 -0.00477795
v -0.03676478 0.08239053 -0.00516270
v -0.04215728 0.07976011 -0.00516270
v -0.04623998 0.07768827 -0.00516270
v -0.05537523 0.07147681 -0.00477795
v -0.04528013 0.07734296 -0.00516270
v -0.04645661 0.07742218 -0.00516270
v -0.04587004 0.07733890 -0.00516270
v -0.04629664 0.07763749 -0.00516270
f 1 2 7
f 1 7 19
f 1 19 38
f 1 38 37
f 1 37 23
f 1 23 8
f 1 8 3
f 1 3 4
f 1 4 5
f 1 5 6
f 1 6 2
f 2 6 7
f 3 8 9
f 3 9 4
f 4 9 10
f 4 10 11
f 4 11 12
f 4 12 13
f 4 13 5
f 5 13 6
f 6 14 7
f 6 13 12
f 6 12 15
f 6 15 16
f 6 16 17
f 6 17 18
f 6 18 14
f 7 14 18
f 7 18 19
f 8 20 21
f 8 21 22
f 8 22 9
f 8 23 24
f 8 24 20
f 9 22 25
f 9 25 26
f 9 26 10
f 10 26 27
f 10 27 11
f 11 27 28
f 11 28 12
f 12 28 27
f 12 27 15
f 15 27 29
f 15 29 30
f 15 30 31
f 15 31 16
f 16 32 33
f 16 33 17
f 16 31 34
f 16 34 32
f 17 33 35
f 17 35 24
f 17 24 18
f 18 24 36
f 18 36 37
f 18 37 38
f 18 38 19
f 20 39 40
f 20 40 22
f 20 22 21
f 20 24 41
f 20 41 39
f 22 40 25
f 23 37 36
f 23 36 24
f 24 35 33
f 24 33 45
f 24 45 41
f 25 40 39
f 25 39 46
f 25 46 48
f 25 48 47
f 25 47 49
f 25 49 44
f 25 44 30
f 25 30 43
f 25 43 42
f 25 42 27
f 25 27 26
f 27 42 29
f 29 42 43
f 29 43 30
f 30 44 31
f 31 44 34
f 32 45 33
f 32 34 45
f 34 44 45
f 39 41 46
f 41 45 47
f 41 47 48
f 41 48 46
f 44 49 45
f 45 49 47

