# https://github.com/mikedh/trimesh
v -0.10489970 -0.07333671 0.00774581
v -0.10489867 -0.07433778 0.00790250
v -0.10489867 -0.07646302 0.00833653
v -0.10489867 -0.07652761 0.00900821
v -0.10489970 -0.07333671 0.01108857
v -0.10489970 -0.07325800 0.00773338
v -0.10001723 -0.08195073 0.00737550
v -0.09841116 -0.08523447 0.00786243
v -0.10373119 -0.07808371 0.00829285
v -0.09985755 -0.08391250 0.00886434
v -0.10380480 -0.07808774 0.00940497
v -0.10489867 -0.07594837 0.00960575
v -0.10489867 -0.07506436 0.01051708
v -0.10489867 -0.07431154 0.01101163
v -0.10489867 -0.07364147 0.01107775
v -0.10489970 -0.06944345 0.01128575
v -0.10489970 -0.06944345 0.01007584
v -0.09654277 -0.06944144 0.00813174
v -0.10483853 -0.07333671 0.00772657
v -0.10397795 -0.07445282 0.00763039
v -0.09430839 -0.08830427 0.00762397
v -0.09650441 -0.08686725 0.00776184
v -0.09811981 -0.08548474 0.00784640
v -0.09439755 -0.08978771 0.00831569
v -0.09537944 -0.08915599 0.00904789
v -0.10017276 -0.08339582 0.00899018
v -0.09704149 -0.08726082 0.00929195
v -0.10188665 -0.08056417 0.00967668
v -0.10226302 -0.07733694 0.01112865
v -0.09845678 -0.08091939 0.01146970
v -0.10387531 -0.07333671 0.01126932
v -0.10445801 -0.06944345 0.01129416
v -0.10100533 -0.06944144 0.01028825
v -0.10283121 -0.07302590 0.01146409
v -0.10100533 -0.06944144 0.00944624
v -0.10023289 -0.06944144 0.00921020
v -0.09914420 -0.06944144 0.00888478
v -0.09430735 -0.08339582 0.01004498
v -0.09430839 -0.08660085 0.00776184
v -0.09654277 -0.06944144 0.00900180
v -0.09430735 -0.08548272 0.00925708
v -0.09430839 -0.08977358 0.00827802
v -0.09430839 -0.08987046 0.00832972
v -0.09430839 -0.09005816 0.00918575
v -0.09664646 -0.08433432 0.01108857
v -0.09430839 -0.08674011 0.01097997
v -0.09430735 -0.08437065 0.01130258
v -0.09430735 -0.08416277 0.01128495
v -0.09430735 -0.08339582 0.01114267
v -0.09430735 -0.08548272 0.01114708
f 1 2 3
f 1 3 4
f 1 4 5
f 1 5 16
f 1 16 17
f 1 17 6
f 1 6 2
f 2 6 7
f 2 7 3
f 3 7 8
f 3 8 9
f 3 9 10
f 3 10 4
f 4 10 11
f 4 11 12
f 4 12 5
f 5 12 13
f 5 13 14
f 5 14 15
f 5 15 16
f 6 17 18
f 6 18 19
f 6 19 20
f 6 20 7
f 7 21 22
f 7 22 23
f 7 23 8
f 7 20 18
f 7 18 21
f 8 23 24
f 8 24 25
f 8 25 10
f 8 10 9
f 10 26 11
f 10 25 27
f 10 27 26
f 11 26 28
f 11 28 13
f 11 13 12
f 13 28 14
f 14 28 29
f 14 29 30
f 14 30 15
f 15 30 31
f 15 31 16
f 16 32 33
f 16 33 35
f 16 35 17
f 16 31 34
f 16 34 32
f 17 35 36
f 17 36 37
f 17 37 18
f 18 38 39
f 18 39 21
f 18 20 19
f 18 37 36
f 18 36 35
f 18 35 33
f 18 33 40
f 18 40 49
f 18 49 38
f 21 39 41
f 21 41 42
f 21 42 24
f 21 24 22
f 22 24 23
f 24 42 43
f 24 43 25
f 25 43 44
f 25 44 27
f 26 27 28
f 27 44 45
f 27 45 28
f 28 45 29
f 29 45 30
f 30 45 46
f 30 46 47
f 30 47 34
f 30 34 31
f 32 40 33
f 32 34 48
f 32 48 49
f 32 49 40
f 34 47 48
f 38 49 48
f 38 48 47
f 38 47 50
f 38 50 41
f 38 41 39
f 41 50 44
f 41 44 43
f 41 43 42
f 44 50 46
f 44 46 45
f 46 50 47

