# https://github.com/mikedh/trimesh
v -0.03804445 -0.07688659 -0.00971797
v -0.04166079 -0.07688659 -0.00971797
v -0.04172525 -0.07688659 -0.00807361
v -0.01172445 -0.08488337 -0.00971777
v -0.03516943 -0.07783868 -0.00971797
v -0.04228607 -0.07688659 -0.00948494
v -0.04089369 -0.07730800 -0.00971797
v -0.04084856 -0.07812630 -0.00918115
v -0.04464862 -0.07688659 -0.00807361
v -0.03510174 -0.08076290 -0.00773764
v -0.03327745 -0.08135043 -0.00773764
v -0.01927945 -0.08594470 -0.00773764
v -0.01172445 -0.08683769 -0.00830043
v -0.01172445 -0.08691461 -0.00971777
v -0.02688279 -0.08130919 -0.00971797
v -0.02833964 -0.08068598 -0.00971797
v -0.04406846 -0.07725672 -0.00807361
v -0.04387830 -0.07688659 -0.00853404
v -0.03596554 -0.07981975 -0.00971797
v -0.03635876 -0.08064250 -0.00909314
v -0.04014592 -0.07960681 -0.00807361
v -0.04214426 -0.07847971 -0.00807361
v -0.03755776 -0.08100705 -0.00807361
v -0.03510174 -0.08235044 -0.00773764
v -0.01927945 -0.08747427 -0.00773764
v -0.01172445 -0.08827472 -0.00830043
v -0.01172445 -0.08712532 -0.00955648
v -0.01853813 -0.08573957 -0.00971777
v -0.02688279 -0.08318100 -0.00971797
v -0.03510174 -0.08022332 -0.00971797
v -0.03510174 -0.08045410 -0.00957431
v -0.02948062 -0.08351546 -0.00898225
v -0.03510174 -0.08173728 -0.00847549
v -0.03359654 -0.08304165 -0.00773764
v -0.01548261 -0.08789233 -0.00830043
v -0.02223827 -0.08688005 -0.00773764
v -0.01649467 -0.08771730 -0.00830043
v -0.01172445 -0.08823793 -0.00834366
v -0.02359843 -0.08550657 -0.00896829
v -0.02062671 -0.08530367 -0.00971777
v -0.02834286 -0.08290341 -0.00971797
v -0.03472464 -0.08039835 -0.00971797
v -0.02486834 -0.08406954 -0.00971777
v -0.02783683 -0.08522674 -0.00773764
v -0.03044433 -0.08431145 -0.00773764
v -0.02546139 -0.08602497 -0.00773764
f 1 2 6
f 1 6 18
f 1 18 9
f 1 9 3
f 1 3 4
f 1 4 5
f 1 5 16
f 1 16 15
f 1 15 29
f 1 29 41
f 1 41 42
f 1 42 30
f 1 30 19
f 1 19 7
f 1 7 2
f 2 7 8
f 2 8 6
f 3 9 10
f 3 10 11
f 3 11 12
f 3 12 13
f 3 13 4
f 4 13 26
f 4 26 38
f 4 38 27
f 4 27 14
f 4 14 29
f 4 29 15
f 4 15 16
f 4 16 5
f 6 17 18
f 6 8 17
f 7 19 20
f 7 20 8
f 8 21 22
f 8 22 17
f 8 20 23
f 8 23 21
f 9 18 17
f 9 17 24
f 9 24 10
f 10 24 34
f 10 34 45
f 10 45 44
f 10 44 46
f 10 46 36
f 10 36 25
f 10 25 12
f 10 12 11
f 12 25 26
f 12 26 13
f 14 27 28
f 14 28 29
f 17 22 24
f 19 30 20
f 20 30 31
f 20 31 32
f 20 32 33
f 20 33 23
f 21 23 24
f 21 24 22
f 23 33 34
f 23 34 24
f 25 35 26
f 25 36 37
f 25 37 35
f 26 35 38
f 27 38 35
f 27 35 37
f 27 37 28
f 28 37 39
f 28 39 40
f 28 40 41
f 28 41 29
f 30 42 31
f 31 42 32
f 32 41 43
f 32 43 39
f 32 39 44
f 32 44 45
f 32 45 33
f 32 42 41
f 33 45 34
f 36 46 39
f 36 39 37
f 39 46 44
f 39 43 40
f 40 43 41

