# https://github.com/mikedh/trimesh
v 0.01839493 0.10221944 0.00341414
v 0.01839493 0.09927861 0.00341414
v 0.04651240 0.08937772 0.00341448
v 0.04837927 0.08937772 0.00341448
v 0.01963951 0.10206047 0.00341414
v 0.01865618 0.09296515 0.00016716
v 0.01839493 0.09299093 0.00016716
v 0.01839493 0.09588021 0.00236182
v 0.04837927 0.08622421 0.00284701
v 0.04837927 0.08766133 0.00322465
v 0.04837927 0.08838741 0.00341448
v 0.04837927 0.09165692 0.00341414
v 0.04326300 0.09436360 0.00341414
v 0.04247046 0.09470516 0.00341414
v 0.03845200 0.09637859 0.00341414
v 0.03300698 0.09847089 0.00341414
v 0.03210877 0.09876949 0.00341414
v 0.02605906 0.10051810 0.00341414
v 0.02312961 0.09199418 0.00016716
v 0.03485623 0.08777304 -0.00002942
v 0.01839493 0.09206722 0.00016716
v 0.03485329 0.08766133 -0.00003009
v 0.01839493 0.09509183 0.00205263
v 0.04837927 0.08502339 0.00246230
v 0.04837927 0.08117173 -0.00003009
v 0.04411131 0.08361634 -0.00003009
v 0.04002533 0.08566784 -0.00003009
v 0.03561941 0.08750667 -0.00003009
v 0.03517324 0.08766133 -0.00003009
v 0.02665493 0.09109410 0.00016716
v 0.04837927 0.08027380 -0.00003009
v 0.04837927 0.08112017 0.00083274
v 0.01839493 0.09267300 0.00075788
v 0.03485329 0.08695674 -0.00003009
v 0.04699673 0.08085381 -0.00003009
v 0.01839493 0.09272026 0.00079801
f 1 2 3
f 1 3 4
f 1 4 5
f 1 5 6
f 1 6 7
f 1 7 21
f 1 21 33
f 1 33 36
f 1 36 23
f 1 23 8
f 1 8 2
f 2 8 9
f 2 9 10
f 2 10 11
f 2 11 3
f 3 11 4
f 4 11 10
f 4 10 9
f 4 9 24
f 4 24 32
f 4 32 31
f 4 31 25
f 4 25 12
f 4 12 13
f 4 13 14
f 4 14 15
f 4 15 16
f 4 16 17
f 4 17 18
f 4 18 5
f 5 18 19
f 5 19 6
f 6 19 20
f 6 20 7
f 7 20 22
f 7 22 34
f 7 34 21
f 8 23 24
f 8 24 9
f 12 25 26
f 12 26 13
f 13 26 27
f 13 27 14
f 14 27 28
f 14 28 15
f 15 28 16
f 16 28 29
f 16 29 20
f 16 20 30
f 16 30 17
f 17 30 18
f 18 30 19
f 19 30 20
f 20 29 22
f 21 31 32
f 21 32 33
f 21 34 35
f 21 35 31
f 22 29 28
f 22 28 27
f 22 27 26
f 22 26 25
f 22 25 31
f 22 31 35
f 22 35 34
f 23 36 32
f 23 32 24
f 32 36 33

