# https://github.com/mikedh/trimesh
v 0.06861499 0.11082891 0.00985176
v 0.06509618 0.11053261 0.00857148
v 0.06342068 0.11053261 0.00857417
v 0.06201587 0.11053261 0.01004547
v 0.06201587 0.11053261 0.01012676
v 0.06861499 0.11077986 0.00999777
v 0.06984115 0.11010554 0.00999777
v 0.06956506 0.11030170 0.00986116
v 0.07603425 0.10579598 0.00916851
v 0.06876656 0.10778014 0.00819369
v 0.06201587 0.11034053 0.01012676
v 0.08966286 0.09031510 0.00875870
v 0.06861499 0.11053261 0.01012676
v 0.07187665 0.10446981 0.01037220
v 0.07975878 0.10306803 0.01022865
v 0.07500568 0.10660109 0.00999777
v 0.07569861 0.10314159 0.00825371
v 0.07426132 0.10447185 0.00833343
v 0.07315695 0.10549356 0.00839479
v 0.08143697 0.10206267 0.00947710
v 0.08787910 0.09625938 0.00924599
v 0.08687218 0.09435287 0.00842390
v 0.08966286 0.09145940 0.00852288
v 0.07187665 0.10378935 0.01037220
v 0.08966286 0.08995545 0.00932348
v 0.08907550 0.08995545 0.01020939
v 0.07963426 0.09788389 0.01048148
v 0.07396086 0.10446981 0.01037220
v 0.08289593 0.09861952 0.01048148
v 0.08503428 0.09861952 0.01038631
v 0.07756629 0.10446981 0.01022865
v 0.07963697 0.09861952 0.01048148
v 0.08096600 0.10224249 0.01022865
v 0.08195939 0.10152525 0.01022865
v 0.08826617 0.09647189 0.01020939
v 0.08851249 0.09627164 0.01020939
v 0.08868301 0.09603665 0.01020939
v 0.08966286 0.09412401 0.00960564
v 0.08966286 0.08995545 0.01020939
v 0.08521293 0.09351712 0.01038631
v 0.08289593 0.09554419 0.01048148
v 0.08673414 0.09737304 0.01038631
v 0.08966286 0.09434675 0.01020939
v 0.08673414 0.09351712 0.01038631
f 1 2 3
f 1 3 4
f 1 4 5
f 1 5 6
f 1 6 7
f 1 7 8
f 1 8 9
f 1 9 2
f 2 9 10
f 2 10 3
f 3 11 4
f 3 10 12
f 3 12 11
f 4 11 5
f 5 13 6
f 5 11 24
f 5 24 14
f 5 14 28
f 5 28 13
f 6 13 7
f 7 13 15
f 7 15 16
f 7 16 8
f 8 16 9
f 9 17 18
f 9 18 19
f 9 19 10
f 9 16 20
f 9 20 21
f 9 21 17
f 10 19 18
f 10 18 17
f 10 17 22
f 10 22 23
f 10 23 12
f 11 12 25
f 11 25 26
f 11 26 27
f 11 27 24
f 12 23 38
f 12 38 43
f 12 43 39
f 12 39 25
f 13 28 29
f 13 29 30
f 13 30 31
f 13 31 15
f 14 24 27
f 14 27 32
f 14 32 29
f 14 29 28
f 15 31 30
f 15 30 33
f 15 33 16
f 16 33 34
f 16 34 20
f 17 21 22
f 20 34 35
f 20 35 36
f 20 36 21
f 21 36 37
f 21 37 38
f 21 38 23
f 21 23 22
f 25 39 26
f 26 39 44
f 26 44 40
f 26 40 41
f 26 41 27
f 27 41 29
f 27 29 32
f 29 41 44
f 29 44 42
f 29 42 30
f 30 34 33
f 30 42 34
f 34 42 35
f 35 42 36
f 36 42 37
f 37 42 43
f 37 43 38
f 39 43 42
f 39 42 44
f 40 44 41

