# https://github.com/mikedh/trimesh
v 0.04743753 0.10779455 0.00808713
v 0.04743753 0.10609471 0.00753511
v 0.04743753 0.10463889 0.00808713
v 0.08236275 0.08020840 0.00839581
v 0.08605596 0.08020840 0.00839581
v 0.04930844 0.10696738 0.00808713
v 0.04910434 0.09604872 0.00470919
v 0.04743753 0.09556483 0.00433955
v 0.04743753 0.08888542 0.00341497
v 0.09387489 0.06554265 0.00839581
v 0.08657107 0.07965419 0.00839581
v 0.08219751 0.08316553 0.00808713
v 0.08026344 0.08510111 0.00808713
v 0.07871812 0.08664379 0.00808713
v 0.07297905 0.09200799 0.00808664
v 0.07255627 0.09238021 0.00808664
v 0.06605427 0.09702478 0.00808664
v 0.06353219 0.09868326 0.00808664
v 0.06080115 0.10044927 0.00808664
v 0.06032492 0.10074292 0.00808664
v 0.05477051 0.10414259 0.00808713
v 0.05417766 0.10133021 0.00712451
v 0.05445464 0.09168953 0.00436734
v 0.05416794 0.09157786 0.00428542
v 0.05108701 0.09034537 0.00341497
v 0.04743753 0.09210725 0.00341497
v 0.05000821 0.09088304 0.00341497
v 0.04855522 0.09157786 0.00341497
v 0.07579270 0.06554265 0.00341545
v 0.07004392 0.07194082 0.00341497
v 0.09708216 0.06554265 0.00839581
v 0.08490426 0.07728435 0.00737711
v 0.09096405 0.07455055 0.00839581
v 0.08214893 0.08020840 0.00736784
v 0.08048697 0.08196200 0.00736199
v 0.07681320 0.08446419 0.00707574
v 0.07251740 0.09166472 0.00787597
v 0.06550028 0.09172675 0.00645448
v 0.06235619 0.09577576 0.00700942
v 0.06037837 0.10033761 0.00797399
v 0.05657825 0.10094557 0.00745269
v 0.05447895 0.09157786 0.00434052
v 0.05519329 0.08752472 0.00341497
v 0.07928668 0.06554265 0.00341545
v 0.07374199 0.07194082 0.00341497
v 0.09543479 0.06802416 0.00839581
v 0.08606082 0.06554265 0.00518269
v 0.08957910 0.07057186 0.00715523
v 0.07813984 0.06715564 0.00341545
v 0.07663339 0.06896714 0.00341545
v 0.07535049 0.07454228 0.00433857
v 0.07397039 0.08020840 0.00537678
v 0.06649648 0.08413746 0.00461848
v 0.06191883 0.08952234 0.00518952
v 0.06078657 0.08366597 0.00341497
v 0.07200230 0.07394671 0.00341497
v 0.07141915 0.07451746 0.00341497
v 0.07322203 0.07908344 0.00492911
v 0.06668114 0.07895524 0.00341497
v 0.06628266 0.07929851 0.00341497
v 0.06261860 0.08225151 0.00341497
f 1 2 8
f 1 8 26
f 1 26 9
f 1 9 3
f 1 3 4
f 1 4 5
f 1 5 6
f 1 6 2
f 2 6 7
f 2 7 8
f 3 9 10
f 3 10 4
f 4 10 31
f 4 31 46
f 4 46 33
f 4 33 11
f 4 11 5
f 5 11 12
f 5 12 13
f 5 13 14
f 5 14 15
f 5 15 16
f 5 16 17
f 5 17 18
f 5 18 19
f 5 19 20
f 5 20 21
f 5 21 6
f 6 21 22
f 6 22 7
f 7 22 23
f 7 23 24
f 7 24 25
f 7 25 8
f 8 25 27
f 8 27 28
f 8 28 26
f 9 29 10
f 9 26 28
f 9 28 27
f 9 27 25
f 9 25 43
f 9 43 55
f 9 55 61
f 9 61 60
f 9 60 59
f 9 59 57
f 9 57 56
f 9 56 45
f 9 45 30
f 9 30 29
f 10 29 44
f 10 44 47
f 10 47 31
f 11 32 12
f 11 33 32
f 12 32 34
f 12 34 35
f 12 35 13
f 13 35 14
f 14 35 36
f 14 36 37
f 14 37 15
f 15 37 16
f 16 37 38
f 16 38 17
f 17 38 39
f 17 39 18
f 18 39 19
f 19 39 40
f 19 40 20
f 20 40 41
f 20 41 21
f 21 41 22
f 22 41 23
f 23 41 40
f 23 40 39
f 23 39 38
f 23 38 42
f 23 42 24
f 24 42 25
f 25 42 43
f 29 30 45
f 29 45 44
f 31 47 48
f 31 48 46
f 32 33 48
f 32 48 49
f 32 49 50
f 32 50 51
f 32 51 34
f 33 46 48
f 34 51 35
f 35 51 36
f 36 51 52
f 36 52 53
f 36 53 37
f 37 53 38
f 38 53 54
f 38 54 42
f 42 55 43
f 42 54 55
f 44 45 49
f 44 49 47
f 45 56 50
f 45 50 49
f 47 49 48
f 50 56 51
f 51 56 57
f 51 57 58
f 51 58 52
f 52 58 53
f 53 59 60
f 53 60 61
f 53 61 55
f 53 55 54
f 53 58 57
f 53 57 59

