# https://github.com/mikedh/trimesh
v -0.05020310 -0.07166677 -0.00807272
v -0.05020310 -0.07336804 -0.00807272
v -0.05020523 -0.07475032 -0.00502660
v -0.05020523 -0.07563246 -0.00378386
v -0.02848021 -0.08941197 -0.00046050
v -0.02847808 -0.08610591 -0.00437090
v -0.02847808 -0.08334922 -0.00773651
v -0.03781463 -0.07875343 -0.00807272
v -0.05020310 -0.07367324 -0.00780604
v -0.05020523 -0.07645159 -0.00502660
v -0.04923542 -0.07410250 -0.00807272
v -0.05020523 -0.07728844 -0.00199984
v -0.02848021 -0.08994952 -0.00001867
v -0.02847808 -0.08828960 -0.00188543
v -0.05020523 -0.07734949 -0.00193735
v -0.05020523 -0.07952137 0.00021456
v -0.02847808 -0.08500127 -0.00773651
v -0.03510512 -0.08046258 -0.00807272
v -0.03510725 -0.08037988 -0.00807272
v -0.05020310 -0.07571123 -0.00586008
v -0.04811248 -0.07492950 -0.00807272
v -0.05020523 -0.08179170 0.00021456
v -0.02848021 -0.09177879 -0.00001867
v -0.04171514 -0.08629298 0.00091866
v -0.02847808 -0.08952814 -0.00188543
v -0.02847808 -0.08586175 -0.00679126
v -0.03044748 -0.08431209 -0.00773651
v -0.03510512 -0.08206539 -0.00807272
v -0.04994364 -0.07622515 -0.00554940
v -0.04747232 -0.07533514 -0.00807272
v -0.04169812 -0.08667497 0.00021456
v -0.04511585 -0.07928901 -0.00553619
v -0.03510512 -0.08956359 0.00021456
v -0.03050490 -0.09112112 -0.00001867
v -0.03884187 -0.08826007 0.00021456
v -0.03131308 -0.08502883 -0.00661435
v -0.03359936 -0.08304205 -0.00773651
v -0.03514340 -0.08204964 -0.00807272
v -0.04214688 -0.07847973 -0.00807272
v -0.04344633 -0.07883613 -0.00696112
v -0.03924382 -0.08151996 -0.00663987
v -0.03756367 -0.08100604 -0.00807272
v -0.04014771 -0.07960604 -0.00807272
f 1 2 10
f 1 10 3
f 1 3 4
f 1 4 5
f 1 5 6
f 1 6 7
f 1 7 8
f 1 8 19
f 1 19 18
f 1 18 28
f 1 28 38
f 1 38 42
f 1 42 43
f 1 43 39
f 1 39 30
f 1 30 21
f 1 21 11
f 1 11 2
f 2 9 10
f 2 11 9
f 3 10 22
f 3 22 16
f 3 16 15
f 3 15 12
f 3 12 4
f 4 12 5
f 5 13 14
f 5 14 6
f 5 12 15
f 5 15 16
f 5 16 13
f 6 14 25
f 6 25 26
f 6 26 17
f 6 17 7
f 7 17 28
f 7 28 18
f 7 18 19
f 7 19 8
f 9 20 10
f 9 11 21
f 9 21 20
f 10 20 22
f 13 23 25
f 13 25 14
f 13 16 24
f 13 24 23
f 16 22 24
f 17 26 27
f 17 27 28
f 20 21 29
f 20 29 22
f 21 30 22
f 21 22 29
f 22 31 24
f 22 30 32
f 22 32 31
f 23 24 33
f 23 33 34
f 23 34 26
f 23 26 25
f 24 31 35
f 24 35 33
f 26 34 36
f 26 36 27
f 27 36 37
f 27 37 28
f 28 37 38
f 30 39 40
f 30 40 32
f 31 32 41
f 31 41 35
f 32 40 41
f 33 35 34
f 34 35 36
f 35 41 42
f 35 42 37
f 35 37 36
f 37 42 38
f 39 43 41
f 39 41 40
f 41 43 42

