# https://github.com/mikedh/trimesh
v -0.05867649 -0.11423616 0.01071331
v -0.05700201 -0.11507464 0.01087099
v -0.05547099 -0.11448371 0.01100351
v -0.05547099 -0.11443380 0.00971052
v -0.05884920 -0.11423616 0.00775384
v -0.06074323 -0.11423616 0.01047979
v -0.06023386 -0.11440086 0.01054535
v -0.05333984 -0.11780168 0.01044046
v -0.05039488 -0.11766692 0.01103576
v -0.05220986 -0.11659786 0.01107828
v -0.05240014 -0.11612473 0.01108359
v -0.03139021 -0.12252010 0.01105666
v -0.03707522 -0.12017137 0.01093973
v -0.03139021 -0.12034904 0.01047235
v -0.03139021 -0.11913026 0.01004537
v -0.03139021 -0.11928597 0.00912444
v -0.05987672 -0.11423616 0.00753663
v -0.06129358 -0.11423616 0.00980477
v -0.06017239 -0.11551384 0.00845686
v -0.05201373 -0.11947763 0.00861206
v -0.05220986 -0.11912926 0.00909786
v -0.05220986 -0.11832871 0.01043408
v -0.04831643 -0.11873498 0.01098509
v -0.03880238 -0.12158480 0.01110946
v -0.03139021 -0.12366301 0.01109848
v -0.03139021 -0.12431682 0.00865103
v -0.03242944 -0.12431682 0.00782790
v -0.03318471 -0.12431682 0.00772195
v -0.06129358 -0.11423616 0.00798416
v -0.04714547 -0.12019931 0.00749694
v -0.05165073 -0.11830675 0.00748950
v -0.06129358 -0.11476719 0.00837748
v -0.04831643 -0.12092699 0.00858832
v -0.04831643 -0.12043987 0.00990824
v -0.04697568 -0.12076529 0.01039830
v -0.04831643 -0.12014142 0.01040786
v -0.04510214 -0.12049378 0.01086142
v -0.04635800 -0.11973915 0.01093690
v -0.03799149 -0.12199305 0.01108855
v -0.03261094 -0.12431682 0.01099536
v -0.03139021 -0.12431682 0.01103221
v -0.03799149 -0.12443261 0.00880411
v -0.03799149 -0.12438270 0.00825594
v -0.03492066 -0.12431682 0.00767553
v -0.03799149 -0.12376483 0.00766596
v -0.04386093 -0.12159977 0.00759368
v -0.04410390 -0.12239332 0.00840193
v -0.04635800 -0.12162173 0.00851390
v -0.04770460 -0.12116057 0.00858123
v -0.04195519 -0.12289242 0.00996600
v -0.03808517 -0.12389260 0.01030510
v -0.04635800 -0.12091601 0.01044861
v -0.04354184 -0.12117454 0.01085894
v -0.03413904 -0.12393252 0.01098863
v -0.03348916 -0.12431682 0.01085433
v -0.03492066 -0.12431682 0.01055491
v -0.04049149 -0.12304414 0.00770388
v -0.03492066 -0.12391855 0.01085823
v -0.04189372 -0.12200204 0.01080862
f 1 2 3
f 1 3 4
f 1 4 5
f 1 5 17
f 1 17 29
f 1 29 18
f 1 18 6
f 1 6 7
f 1 7 2
f 2 7 8
f 2 8 9
f 2 9 10
f 2 10 3
f 3 10 11
f 3 11 12
f 3 12 13
f 3 13 14
f 3 14 15
f 3 15 4
f 4 15 16
f 4 16 5
f 5 16 17
f 6 18 19
f 6 19 20
f 6 20 21
f 6 21 8
f 6 8 7
f 8 21 22
f 8 22 23
f 8 23 9
f 9 23 24
f 9 24 10
f 10 24 11
f 11 24 25
f 11 25 12
f 12 25 41
f 12 41 26
f 12 26 16
f 12 16 15
f 12 15 14
f 12 14 13
f 16 26 27
f 16 27 28
f 16 28 17
f 17 28 30
f 17 30 31
f 17 31 29
f 18 29 32
f 18 32 19
f 19 32 29
f 19 29 31
f 19 31 20
f 20 31 30
f 20 30 33
f 20 33 34
f 20 34 21
f 21 34 35
f 21 35 36
f 21 36 22
f 22 36 37
f 22 37 23
f 23 37 38
f 23 38 24
f 24 39 40
f 24 40 41
f 24 41 25
f 24 38 39
f 26 41 42
f 26 42 27
f 27 42 28
f 28 42 43
f 28 43 44
f 28 44 30
f 30 44 45
f 30 45 46
f 30 46 47
f 30 47 33
f 33 47 48
f 33 48 49
f 33 49 50
f 33 50 34
f 34 50 35
f 35 50 51
f 35 51 52
f 35 52 37
f 35 37 36
f 37 53 38
f 37 52 53
f 38 53 54
f 38 54 39
f 39 54 40
f 40 54 55
f 40 55 42
f 40 42 41
f 42 55 56
f 42 56 51
f 42 51 50
f 42 50 49
f 42 49 48
f 42 48 47
f 42 47 43
f 43 45 44
f 43 47 57
f 43 57 45
f 45 57 46
f 46 57 47
f 51 56 55
f 51 55 58
f 51 58 59
f 51 59 52
f 52 59 53
f 53 59 54
f 54 58 55
f 54 59 58

