# https://github.com/mikedh/trimesh
v -0.07952421 -0.05162573 0.00010778
v -0.07763016 -0.05487702 0.00010778
v -0.06367730 -0.07113052 0.00021376
v -0.06367730 -0.06903386 0.00021376
v -0.07818116 -0.05162573 0.00010778
v -0.07313035 -0.05162278 -0.00690825
v -0.07276302 -0.05162278 -0.00733508
v -0.07248177 -0.05162278 -0.00763746
v -0.06811971 -0.05803677 -0.00748968
v -0.07255065 -0.06209423 0.00010778
v -0.06271305 -0.07205777 0.00021376
v -0.07171268 -0.06322230 0.00010778
v -0.06919301 -0.06568217 0.00010778
v -0.06193534 -0.06587412 -0.00609639
v -0.05020655 -0.07951123 0.00021376
v -0.06745679 -0.05162278 -0.00971816
v -0.07170981 -0.05162278 -0.00690825
v -0.07153188 -0.05162278 -0.00837446
v -0.06573205 -0.05853878 -0.00898408
v -0.06076734 -0.06384538 -0.00890144
v -0.06367442 -0.06232162 -0.00773858
v -0.06544794 -0.06138551 -0.00702687
v -0.06904665 -0.05262090 -0.00971816
v -0.06772943 -0.05446360 -0.00971816
v -0.05821036 -0.06920514 -0.00626848
v -0.05883598 -0.07569591 0.00021376
v -0.06367730 -0.06365639 -0.00655531
v -0.06368016 -0.06325773 -0.00690728
v -0.06143026 -0.06499707 -0.00731369
v -0.05020655 -0.08178802 0.00021376
v -0.05020655 -0.06879172 -0.00971719
v -0.06367442 -0.05665179 -0.00971816
v -0.06975262 -0.05162278 -0.00971816
v -0.06536185 -0.05764106 -0.00971816
v -0.06368016 -0.05951624 -0.00971816
v -0.05682713 -0.06606902 -0.00971719
v -0.05474367 -0.06912836 -0.00902784
v -0.05784303 -0.06832809 -0.00731369
v -0.05992649 -0.06560834 -0.00803707
v -0.06200995 -0.06125557 -0.00971719
v -0.05996380 -0.06320458 -0.00971719
v -0.05784303 -0.06919923 -0.00656017
v -0.05481254 -0.07876116 0.00021376
v -0.05472358 -0.07095333 -0.00731175
v -0.05241054 -0.08056546 0.00021376
v -0.05020655 -0.07570181 -0.00586012
v -0.05020655 -0.07150851 -0.00971719
v -0.06367442 -0.05952214 -0.00971816
v -0.05353549 -0.06896890 -0.00971719
v -0.05180215 -0.07040702 -0.00971719
v -0.05020655 -0.07366422 -0.00780761
v -0.05020655 -0.07418100 -0.00731369
f 1 2 3
f 1 3 4
f 1 4 5
f 1 5 17
f 1 17 6
f 1 6 7
f 1 7 2
f 2 7 8
f 2 8 9
f 2 9 10
f 2 10 3
f 3 11 26
f 3 26 43
f 3 43 45
f 3 45 30
f 3 30 15
f 3 15 4
f 3 10 12
f 3 12 13
f 3 13 14
f 3 14 11
f 4 15 5
f 5 16 17
f 5 15 16
f 6 17 16
f 6 16 33
f 6 33 18
f 6 18 8
f 6 8 7
f 8 18 9
f 9 19 20
f 9 20 21
f 9 21 22
f 9 22 12
f 9 12 10
f 9 18 23
f 9 23 24
f 9 24 19
f 11 14 25
f 11 25 26
f 12 22 27
f 12 27 14
f 12 14 13
f 14 27 28
f 14 28 29
f 14 29 25
f 15 30 46
f 15 46 52
f 15 52 51
f 15 51 47
f 15 47 31
f 15 31 16
f 16 32 48
f 16 48 35
f 16 35 34
f 16 34 24
f 16 24 23
f 16 23 33
f 16 31 32
f 18 33 23
f 19 24 34
f 19 34 35
f 19 35 20
f 20 36 37
f 20 37 38
f 20 38 39
f 20 39 29
f 20 29 21
f 20 35 40
f 20 40 41
f 20 41 36
f 21 29 28
f 21 28 22
f 22 28 27
f 25 29 39
f 25 39 38
f 25 38 42
f 25 42 26
f 26 42 37
f 26 37 44
f 26 44 43
f 30 45 46
f 31 47 48
f 31 48 32
f 35 48 40
f 36 49 37
f 36 41 48
f 36 48 49
f 37 42 38
f 37 49 50
f 37 50 51
f 37 51 45
f 37 45 44
f 40 48 41
f 43 44 45
f 45 51 52
f 45 52 46
f 47 51 50
f 47 50 48
f 48 50 49

