# https://github.com/mikedh/trimesh
v -0.10491267 0.04930772 0.00818948
v -0.10421200 0.04930772 0.00793098
v -0.10226570 0.04930772 0.00818948
v -0.09673042 0.06398094 0.00819042
v -0.10459607 0.05013112 0.00818948
v -0.10206588 0.05502460 0.00818948
v -0.10131591 0.05491265 0.00793191
v -0.10094222 0.04930772 0.00689744
v -0.09382913 0.06398094 0.00819042
v -0.09604013 0.04930772 0.00632902
v -0.08543149 0.05037670 0.00341539
v -0.07840404 0.08251118 0.00819042
v -0.09752970 0.06306725 0.00818948
v -0.09824335 0.06192243 0.00818948
v -0.10148199 0.05610081 0.00818948
v -0.09427030 0.06777295 0.00819042
v -0.09892066 0.05072701 0.00649543
v -0.09660067 0.05928609 0.00722326
v -0.09772433 0.04930772 0.00591252
v -0.08632419 0.04930772 0.00341539
v -0.07840404 0.06398094 0.00341492
v -0.07840145 0.06111347 0.00341539
v -0.07840145 0.06398094 0.00395436
v -0.07840404 0.08620206 0.00819042
v -0.07840145 0.06201272 0.00358554
v -0.09152471 0.07192969 0.00819042
v -0.09123666 0.07236307 0.00819042
v -0.09103165 0.07216444 0.00806561
v -0.08885958 0.06547607 0.00593636
v -0.09689910 0.05430593 0.00648468
v -0.09505141 0.05171293 0.00550350
v -0.09058270 0.04930772 0.00378374
v -0.08933707 0.04930772 0.00341539
v -0.07961075 0.06398094 0.00341492
v -0.07840404 0.06544357 0.00341492
v -0.07840145 0.06398094 0.00341539
v -0.07840404 0.08174194 0.00706105
v -0.08146882 0.08320818 0.00819042
v -0.08895559 0.07544362 0.00819042
v -0.08784491 0.07506442 0.00777906
v -0.08002078 0.06898278 0.00447557
v -0.07990919 0.06361258 0.00341539
v -0.08308555 0.05933665 0.00341539
v -0.08444017 0.05735398 0.00341539
v -0.08764768 0.05233048 0.00341539
v -0.08780079 0.05234493 0.00346073
v -0.08791497 0.05186461 0.00341539
v -0.07840404 0.06932225 0.00420398
v -0.07840404 0.07252197 0.00490796
v -0.07840404 0.07447575 0.00536186
v -0.07840404 0.08120023 0.00692829
v -0.08678872 0.07773687 0.00819042
v -0.08799542 0.07646565 0.00819042
v -0.08190479 0.07773687 0.00695868
f 1 2 8
f 1 8 19
f 1 19 32
f 1 32 33
f 1 33 20
f 1 20 10
f 1 10 3
f 1 3 9
f 1 9 4
f 1 4 5
f 1 5 2
f 2 5 6
f 2 6 7
f 2 7 8
f 3 10 11
f 3 11 12
f 3 12 9
f 4 13 14
f 4 14 15
f 4 15 6
f 4 6 5
f 4 9 12
f 4 12 24
f 4 24 38
f 4 38 52
f 4 52 53
f 4 53 39
f 4 39 27
f 4 27 26
f 4 26 16
f 4 16 13
f 6 15 7
f 7 17 8
f 7 15 14
f 7 14 18
f 7 18 17
f 8 17 19
f 10 20 11
f 11 20 21
f 11 21 22
f 11 22 12
f 12 23 24
f 12 22 25
f 12 25 23
f 13 16 26
f 13 26 27
f 13 27 28
f 13 28 29
f 13 29 14
f 14 29 18
f 17 18 30
f 17 30 31
f 17 31 32
f 17 32 19
f 18 29 30
f 20 33 34
f 20 34 21
f 21 34 35
f 21 35 36
f 21 36 22
f 22 36 23
f 22 23 25
f 23 36 24
f 24 37 38
f 24 36 37
f 27 39 28
f 28 39 40
f 28 40 29
f 29 40 41
f 29 41 42
f 29 42 43
f 29 43 44
f 29 44 45
f 29 45 46
f 29 46 47
f 29 47 32
f 29 32 31
f 29 31 30
f 32 47 33
f 33 47 34
f 34 41 35
f 34 47 45
f 34 45 44
f 34 44 43
f 34 43 42
f 34 42 41
f 35 41 48
f 35 48 36
f 36 48 49
f 36 49 50
f 36 50 51
f 36 51 37
f 37 51 40
f 37 40 38
f 38 40 52
f 39 53 40
f 40 53 52
f 40 51 54
f 40 54 41
f 41 54 49
f 41 49 48
f 45 47 46
f 49 54 50
f 50 54 51

