# https://github.com/mikedh/trimesh
v 0.09792295 -0.07823436 0.01142716
v 0.09792295 -0.07823436 0.01218943
v 0.09792295 -0.07541453 0.01076128
v 0.10084588 -0.07823436 0.00938490
v 0.09792295 -0.07541453 0.01179167
v 0.09917917 -0.07823436 0.01248870
v 0.10959170 -0.06153710 0.01277702
v 0.10101751 -0.07823436 0.00928472
v 0.10042124 -0.05790667 0.00884361
v 0.10042124 -0.06128768 0.00884361
v 0.11362047 -0.05464342 0.01281111
v 0.11191307 -0.05464342 0.01234475
v 0.10268245 -0.05790667 0.00999648
v 0.10042124 -0.05790667 0.00923842
v 0.10029208 -0.07823436 0.01262633
v 0.10523029 -0.07131758 0.01296769
v 0.11362047 -0.05760644 0.01314363
v 0.10118736 -0.07823436 0.00925905
v 0.11191307 -0.05464342 0.01149493
v 0.10220296 -0.05790667 0.00884361
v 0.10486050 -0.07443995 0.00884361
v 0.10431732 -0.07541453 0.00889117
v 0.11577906 -0.05790667 0.01198739
v 0.11599669 -0.05790667 0.01145115
v 0.11362047 -0.05464342 0.01166161
v 0.10103521 -0.07823436 0.01262676
v 0.10892643 -0.06968481 0.01202317
v 0.10631843 -0.06975410 0.01296980
v 0.11312683 -0.05863183 0.01312259
v 0.11347715 -0.05790667 0.01313732
v 0.11397611 -0.05790667 0.01291340
v 0.10576110 -0.07541453 0.01018084
v 0.10118736 -0.07823436 0.01255352
v 0.11362047 -0.05726002 0.00981844
v 0.11362047 -0.05790435 0.00965597
v 0.11153620 -0.06400128 0.00908268
v 0.11112040 -0.06476570 0.00908689
v 0.10947670 -0.06779338 0.00910626
v 0.10877427 -0.07086955 0.01002300
v 0.11537035 -0.05897824 0.01186070
v 0.11597192 -0.05796209 0.01145115
v 0.11259780 -0.06477032 0.01023135
v 0.10506929 -0.07541453 0.01180935
v 0.10570448 -0.07541453 0.01036394
v 0.11084262 -0.06740308 0.01087871
v 0.11179983 -0.06626222 0.01030838
v 0.11153620 -0.06158098 0.01305019
v 0.10993495 -0.06455092 0.01297569
v 0.10795153 -0.06740308 0.01297274
v 0.11105494 -0.06740308 0.01023767
v 0.11552781 -0.05892975 0.01145115
v 0.11563928 -0.05868725 0.01145115
v 0.10978456 -0.06476570 0.01297569
f 1 2 5
f 1 5 3
f 1 3 4
f 1 4 8
f 1 8 18
f 1 18 33
f 1 33 26
f 1 26 15
f 1 15 6
f 1 6 2
f 2 6 7
f 2 7 5
f 3 8 4
f 3 5 14
f 3 14 9
f 3 9 10
f 3 10 8
f 5 7 11
f 5 11 12
f 5 12 13
f 5 13 14
f 6 15 16
f 6 16 7
f 7 17 11
f 7 16 17
f 8 10 18
f 9 14 12
f 9 12 19
f 9 19 20
f 9 20 21
f 9 21 10
f 10 21 22
f 10 22 18
f 11 17 23
f 11 23 24
f 11 24 25
f 11 25 19
f 11 19 12
f 12 14 13
f 15 26 16
f 16 26 27
f 16 27 28
f 16 28 29
f 16 29 17
f 17 29 30
f 17 30 31
f 17 31 23
f 18 22 32
f 18 32 33
f 19 25 34
f 19 34 20
f 20 34 35
f 20 35 36
f 20 36 21
f 21 37 38
f 21 38 22
f 21 36 37
f 22 38 39
f 22 39 32
f 23 40 24
f 23 31 27
f 23 27 40
f 24 41 42
f 24 42 36
f 24 36 35
f 24 35 34
f 24 34 25
f 24 40 41
f 26 33 43
f 26 43 27
f 27 43 44
f 27 44 45
f 27 45 46
f 27 46 40
f 27 31 29
f 27 29 47
f 27 47 48
f 27 48 28
f 28 49 47
f 28 47 29
f 28 48 49
f 29 31 30
f 32 39 50
f 32 50 46
f 32 46 44
f 32 44 33
f 33 44 43
f 36 42 37
f 37 42 38
f 38 42 39
f 39 42 50
f 40 51 52
f 40 52 41
f 40 46 51
f 41 52 42
f 42 46 50
f 42 52 51
f 42 51 46
f 44 46 45
f 47 49 53
f 47 53 48
f 48 53 49

