# https://github.com/mikedh/trimesh
v 0.01099915 0.01813369 -0.00223587
v -0.01339833 0.01367312 0.00488866
v -0.01414407 0.01406030 -0.00440127
v 0.01099915 0.01837618 -0.00661059
v 0.01099915 0.01939972 -0.01461007
v 0.01087855 0.02028259 -0.01493437
v 0.00963321 0.01823551 0.01467181
v 0.00963321 0.01702910 0.01577985
v -0.01339833 0.01359676 0.00880057
v -0.01414407 0.01405360 -0.00212439
v -0.01414407 0.01512738 -0.01310679
v 0.01099915 0.01914249 -0.01339055
v -0.01414407 0.01535981 -0.01487019
v -0.01414407 0.01601359 -0.01700181
v -0.00863107 0.01747723 -0.01873142
v -0.00285964 0.01997110 -0.01680587
v 0.00956429 0.02043933 -0.01493437
v 0.00957168 0.01841034 0.01338811
v 0.00794485 0.01841436 0.01474275
v 0.00932556 0.01788986 0.01552648
v 0.00887025 0.01841369 0.01443196
v 0.00861428 0.01790795 0.01562783
v 0.00659367 0.01797225 0.01574607
v 0.00498161 0.01804661 0.01576295
v 0.00302991 0.01802048 0.01576971
v 0.00076072 0.01728565 0.01577985
v -0.01339833 0.01395379 0.01449277
v -0.01339833 0.01456202 0.01291855
v -0.01414407 0.01730441 -0.01772473
v -0.00671382 0.01964823 -0.01675858
v -0.00264060 0.02004412 -0.01604241
v 0.00454599 0.02037168 -0.01483641
v 0.00643862 0.02042527 -0.01454251
v 0.00645585 0.02041656 -0.01369459
v 0.00665028 0.02038507 -0.01281289
v 0.00625895 0.01857378 0.01447588
v 0.00880379 0.01851886 0.01310772
v 0.00782425 0.01809484 0.01542514
v 0.00706622 0.01852153 0.01450628
v 0.00254506 0.01842642 0.01493193
v 0.00196669 0.01798766 0.01572917
v -0.00714945 0.01685761 0.01456371
v -0.01008561 0.01609599 0.01417860
v -0.01100116 0.01575369 0.01401983
v -0.01136788 0.01574565 0.01291179
v -0.01058031 0.01607321 0.01318542
v -0.00254462 0.02000460 -0.01506274
v -0.00861876 0.01652068 0.01433737
v -0.00745709 0.01683685 0.01415495
v -0.00352416 0.01777800 0.01449277
v -0.00258646 0.01800374 0.01445561
v -0.00157000 0.01817053 0.01427994
v 0.00053676 0.01843043 0.01445561
v -0.00175951 0.02007560 -0.01506274
v 0.00438355 0.02036230 -0.01415064
v 0.00537786 0.02040115 -0.01418104
v 0.00567074 0.02038641 -0.01330272
v 0.00499884 0.02035895 -0.01308652
v 0.00352214 0.01859321 0.01437791
v 0.00523265 0.01858115 0.01448601
v 0.00273950 0.01852019 0.01467181
v 0.00152860 0.01847599 0.01458736
v 0.00107821 0.01803321 0.01548932
v -0.00097932 0.02010440 -0.01467088
f 1 2 3
f 1 3 4
f 1 4 12
f 1 12 5
f 1 5 6
f 1 6 7
f 1 7 8
f 1 8 2
f 2 8 9
f 2 9 3
f 3 9 10
f 3 10 29
f 3 29 14
f 3 14 13
f 3 13 11
f 3 11 12
f 3 12 4
f 5 13 14
f 5 14 15
f 5 15 6
f 5 12 13
f 6 15 16
f 6 16 17
f 6 17 18
f 6 18 7
f 7 19 20
f 7 20 8
f 7 18 21
f 7 21 19
f 8 20 22
f 8 22 23
f 8 23 24
f 8 24 25
f 8 25 26
f 8 26 27
f 8 27 9
f 9 27 10
f 10 27 28
f 10 28 29
f 11 13 12
f 14 29 15
f 15 29 30
f 15 30 16
f 16 30 31
f 16 31 32
f 16 32 17
f 17 32 33
f 17 33 34
f 17 34 35
f 17 35 36
f 17 36 37
f 17 37 18
f 18 37 21
f 19 24 38
f 19 38 20
f 19 21 39
f 19 39 36
f 19 36 24
f 20 38 22
f 21 37 39
f 22 38 23
f 23 38 24
f 24 36 40
f 24 40 25
f 25 40 41
f 25 41 26
f 26 41 42
f 26 42 27
f 27 42 43
f 27 43 44
f 27 44 28
f 28 45 29
f 28 44 45
f 29 45 46
f 29 46 30
f 30 47 31
f 30 46 48
f 30 48 49
f 30 49 50
f 30 50 51
f 30 51 52
f 30 52 53
f 30 53 47
f 31 47 54
f 31 54 55
f 31 55 32
f 32 56 33
f 32 55 56
f 33 56 34
f 34 57 35
f 34 56 57
f 35 57 58
f 35 58 59
f 35 59 60
f 35 60 36
f 36 60 40
f 36 39 37
f 40 61 62
f 40 62 63
f 40 63 41
f 40 60 61
f 41 63 42
f 42 63 50
f 42 50 48
f 42 48 43
f 43 48 46
f 43 46 44
f 44 46 45
f 47 53 54
f 48 50 49
f 50 63 51
f 51 63 53
f 51 53 52
f 53 63 62
f 53 62 58
f 53 58 64
f 53 64 54
f 54 64 55
f 55 58 56
f 55 64 58
f 56 58 57
f 58 62 59
f 59 62 61
f 59 61 60

