# https://github.com/mikedh/trimesh
v -0.01491465 -0.02188455 -0.01525127
v -0.01491465 -0.02182545 -0.01535637
v -0.01487313 -0.02309856 -0.01565681
v -0.01491465 -0.02169391 -0.01507354
v -0.01491465 -0.01965588 -0.01688222
v -0.01451658 -0.02349203 -0.01605244
v -0.01454046 -0.02350304 -0.01585160
v -0.01452454 -0.02350014 -0.01564360
v -0.01490043 -0.01840073 -0.01320104
v -0.01491465 -0.01771984 -0.01320104
v -0.01491465 -0.01947682 -0.01688222
v -0.01098345 -0.01966051 -0.01880699
v -0.01211339 -0.02349840 -0.01684040
v -0.01221120 -0.02354418 -0.01663350
v -0.01389332 -0.02355114 -0.01578612
v -0.01429594 -0.02352158 -0.01586865
v -0.01428513 -0.02352390 -0.01562489
v -0.00910514 -0.02216560 -0.01320104
v -0.00926437 -0.02209259 -0.01320104
v -0.00950264 -0.02197901 -0.01320104
v -0.01130247 -0.02111848 -0.01320104
v -0.01146113 -0.02102866 -0.01320104
v -0.01271049 -0.02018668 -0.01320104
v -0.01292602 -0.02001226 -0.01320104
v -0.01055524 -0.01955273 -0.01837174
v -0.01053420 -0.01952607 -0.01859019
v -0.01491465 -0.01766479 -0.01429109
v -0.00910514 -0.02170434 -0.01320269
v -0.01491465 -0.01935803 -0.01679087
v -0.01098345 -0.01953477 -0.01880699
v -0.01076394 -0.01970977 -0.01882185
v -0.00910514 -0.02176171 -0.01663350
v -0.01203378 -0.02354418 -0.01663350
v -0.01053591 -0.01966631 -0.01881249
v -0.00910514 -0.02163770 -0.01681288
v -0.01271675 -0.02358243 -0.01585655
v -0.01311083 -0.02358475 -0.01576686
v -0.01350208 -0.02357142 -0.01577181
v -0.01389332 -0.02355114 -0.01560013
v -0.01350208 -0.02357142 -0.01557482
v -0.01311083 -0.02358475 -0.01555116
v -0.01271959 -0.02356388 -0.01556326
v -0.01248701 -0.02352042 -0.01560894
v -0.01240853 -0.02355403 -0.01585160
v -0.01205197 -0.02354824 -0.01631821
v -0.00910514 -0.02195989 -0.01574265
v -0.00910514 -0.02165740 -0.01362858
v -0.00910514 -0.02162900 -0.01396919
v -0.00910514 -0.02157164 -0.01467791
v -0.00910514 -0.02147892 -0.01624227
v -0.00910514 -0.02147834 -0.01636443
v -0.00910514 -0.02148297 -0.01667312
v -0.01053591 -0.01952839 -0.01881249
v -0.01491465 -0.01767985 -0.01468616
v -0.01491465 -0.01928153 -0.01672650
v -0.01491465 -0.01916854 -0.01660764
v -0.01491465 -0.01792034 -0.01507849
v -0.01491465 -0.01786413 -0.01500751
v -0.01076394 -0.01951217 -0.01882185
v -0.00910514 -0.02180690 -0.01653336
v -0.00910514 -0.02187760 -0.01632976
v -0.00910514 -0.02192396 -0.01608820
v -0.00910514 -0.02195177 -0.01583509
v -0.00910514 -0.02153281 -0.01684480
f 1 2 3
f 1 3 4
f 1 4 10
f 1 10 27
f 1 27 54
f 1 54 58
f 1 58 57
f 1 57 56
f 1 56 55
f 1 55 29
f 1 29 11
f 1 11 5
f 1 5 2
f 2 5 3
f 3 6 7
f 3 7 8
f 3 8 9
f 3 9 4
f 3 5 6
f 4 9 10
f 5 11 30
f 5 30 12
f 5 12 6
f 6 13 14
f 6 14 15
f 6 15 16
f 6 16 7
f 6 12 13
f 7 16 17
f 7 17 8
f 8 17 18
f 8 18 19
f 8 19 20
f 8 20 21
f 8 21 22
f 8 22 23
f 8 23 24
f 8 24 9
f 9 24 23
f 9 23 22
f 9 22 21
f 9 21 20
f 9 20 19
f 9 19 18
f 9 18 10
f 10 25 26
f 10 26 27
f 10 18 28
f 10 28 25
f 11 29 30
f 12 30 59
f 12 59 31
f 12 31 13
f 13 32 33
f 13 33 14
f 13 31 34
f 13 34 35
f 13 35 32
f 14 33 36
f 14 36 37
f 14 37 38
f 14 38 15
f 15 38 40
f 15 40 39
f 15 39 17
f 15 17 16
f 17 39 18
f 18 39 40
f 18 40 41
f 18 41 42
f 18 42 43
f 18 43 44
f 18 44 45
f 18 45 33
f 18 33 46
f 18 46 63
f 18 63 62
f 18 62 61
f 18 61 60
f 18 60 32
f 18 32 35
f 18 35 64
f 18 64 52
f 18 52 51
f 18 51 50
f 18 50 49
f 18 49 48
f 18 48 47
f 18 47 28
f 25 28 26
f 26 28 47
f 26 47 48
f 26 48 49
f 26 49 50
f 26 50 51
f 26 51 52
f 26 52 53
f 26 53 27
f 27 53 54
f 29 55 30
f 30 55 56
f 30 56 57
f 30 57 58
f 30 58 59
f 31 59 53
f 31 53 34
f 32 60 33
f 33 45 36
f 33 60 61
f 33 61 62
f 33 62 63
f 33 63 46
f 34 64 35
f 34 53 64
f 36 44 42
f 36 42 41
f 36 41 37
f 36 45 44
f 37 41 40
f 37 40 38
f 42 44 43
f 52 64 53
f 53 59 54
f 54 59 58

