# https://github.com/mikedh/trimesh
v 0.00076330 0.01700416 0.01653719
v 0.00076672 0.01365300 0.01842989
v 0.00091887 0.01542244 0.01770648
v 0.00290017 0.01740045 0.01644951
v 0.00460796 0.01792190 0.01594811
v 0.00267623 -0.01758507 0.01716353
v 0.00076843 -0.01715053 0.01747536
v 0.00076843 -0.01505432 0.01804030
v 0.00076672 -0.00040170 0.01840388
v 0.00076672 0.00372468 0.01851086
v 0.00079236 0.00970044 0.01861087
v 0.00107101 0.01211300 0.01859210
v 0.00289162 0.01368429 0.01844168
v 0.00326942 0.01510609 0.01799069
v 0.00540971 0.01623589 0.01738822
v 0.00641490 0.01790452 0.01587277
v 0.01071257 -0.01572872 0.01718417
v 0.00831586 -0.01544019 0.01763355
v 0.00355320 -0.01602421 0.01774241
v 0.00955866 0.01758470 0.01588296
v 0.00961849 -0.01369508 0.01804137
v 0.00489857 -0.01349694 0.01814942
v 0.00076843 -0.01360470 0.01814942
v 0.00076843 -0.01173793 0.01819393
v 0.00646447 -0.01193260 0.01821243
v 0.00956379 -0.01212727 0.01820895
v 0.00871246 0.00596689 0.01854384
v 0.00734315 0.00977692 0.01858862
v 0.00460283 0.01114658 0.01861167
v 0.00890734 0.01164022 0.01854786
v 0.00499431 0.01303074 0.01849933
v 0.00652943 0.01339575 0.01844490
v 0.00740640 0.01555801 0.01768664
v 0.00896547 0.01371905 0.01825641
v 0.00929711 0.01573183 0.01739921
v 0.01755739 -0.01159887 0.01714798
v 0.01485297 -0.01358384 0.01742093
v 0.01281525 -0.01369161 0.01776654
v 0.01339477 0.01577702 0.01605831
v 0.01124081 0.01588826 0.01703295
v 0.01433328 -0.01097314 0.01811537
v 0.01231437 -0.01134510 0.01819528
v 0.01263917 0.00762856 0.01849745
v 0.00880990 0.01016974 0.01857333
v 0.01041854 0.01158808 0.01851863
v 0.01063052 0.01425788 0.01788747
v 0.01241181 0.01185575 0.01827142
v 0.01626331 -0.01240885 0.01744533
v 0.01822752 -0.00762893 0.01705869
v 0.01813350 -0.00992330 0.01715575
v 0.01683257 -0.01005887 0.01774214
v 0.01274858 0.01437955 0.01734532
v 0.01439825 0.01437955 0.01632993
v 0.01564789 -0.00935318 0.01806738
v 0.01448543 0.00601208 0.01830065
v 0.01268704 0.01012107 0.01840763
v 0.01476408 0.00816392 0.01815559
v 0.01494187 0.01011412 0.01779335
v 0.01437089 0.01260663 0.01737642
v 0.01749243 -0.00095443 0.01705869
v 0.01689582 0.00350219 0.01729571
v 0.01675735 0.00195176 0.01754400
v 0.01685308 -0.00802176 0.01779389
v 0.01607526 0.00769809 0.01748581
f 1 2 3
f 1 3 4
f 1 4 5
f 1 5 6
f 1 6 7
f 1 7 8
f 1 8 9
f 1 9 10
f 1 10 2
f 2 11 12
f 2 12 13
f 2 13 14
f 2 14 3
f 2 10 11
f 3 14 15
f 3 15 4
f 4 15 5
f 5 15 16
f 5 16 6
f 6 17 18
f 6 18 19
f 6 19 7
f 6 16 20
f 6 20 17
f 7 19 8
f 8 19 21
f 8 21 22
f 8 22 23
f 8 23 9
f 9 23 10
f 10 23 24
f 10 24 25
f 10 25 26
f 10 26 27
f 10 27 11
f 11 28 29
f 11 29 12
f 11 27 28
f 12 30 31
f 12 31 13
f 12 29 30
f 13 31 32
f 13 32 14
f 14 33 15
f 14 32 34
f 14 34 33
f 15 20 16
f 15 33 35
f 15 35 20
f 17 36 37
f 17 37 38
f 17 38 18
f 17 20 36
f 18 38 21
f 18 21 19
f 20 39 36
f 20 35 40
f 20 40 39
f 21 38 41
f 21 41 42
f 21 42 26
f 21 26 22
f 22 26 23
f 23 26 25
f 23 25 24
f 26 42 27
f 27 43 44
f 27 44 28
f 27 42 43
f 28 44 29
f 29 44 30
f 30 32 31
f 30 44 45
f 30 45 32
f 32 45 34
f 33 34 46
f 33 46 35
f 34 45 47
f 34 47 46
f 35 46 40
f 36 48 37
f 36 39 49
f 36 49 50
f 36 50 51
f 36 51 48
f 37 48 38
f 38 48 41
f 39 40 52
f 39 52 53
f 39 53 49
f 40 46 52
f 41 51 54
f 41 54 43
f 41 43 42
f 41 48 51
f 43 54 55
f 43 55 56
f 43 56 45
f 43 45 44
f 45 56 47
f 46 47 52
f 47 56 57
f 47 57 58
f 47 58 59
f 47 59 52
f 49 60 61
f 49 61 62
f 49 62 63
f 49 63 50
f 49 53 60
f 50 63 51
f 51 63 54
f 52 59 53
f 53 64 61
f 53 61 60
f 53 59 64
f 54 63 55
f 55 63 57
f 55 57 56
f 57 63 62
f 57 62 64
f 57 64 58
f 58 64 59
f 61 64 62

