# https://github.com/mikedh/trimesh
v -0.02055397 0.00733837 -0.01420474
v -0.02101935 0.00748573 -0.01420474
v -0.01414461 0.01527651 -0.01420474
v -0.02019674 0.00733837 -0.01310813
v -0.01864026 0.00733837 -0.00212196
v -0.02089406 0.00822826 -0.01420474
v -0.01761107 0.00799035 0.01504589
v -0.01759018 0.00950833 0.01502871
v -0.01759168 0.00985984 0.01476816
v -0.01760808 0.01013808 0.01420983
v -0.01418190 0.01574821 -0.01420474
v -0.01340031 0.01467475 -0.00212196
v -0.01340031 0.01420800 -0.00212196
v -0.01900794 0.00733837 -0.00753344
v -0.01911907 0.00733837 -0.00829220
v -0.01864474 0.00733837 -0.00420639
v -0.02003863 0.01003848 -0.01420474
v -0.01761107 0.01035541 0.01330506
v -0.01340031 0.01332058 0.01504589
v -0.01565559 0.01226524 0.01500008
v -0.01717179 0.01026568 0.01501440
v -0.01689287 0.01105102 0.01460209
v -0.01721654 0.01056368 0.01459350
v -0.01684961 0.01130127 0.01421270
v -0.01731499 0.01072091 0.01389202
v -0.01722549 0.01097281 0.01354557
v -0.01625819 0.01451011 -0.01420474
v -0.01444890 0.01414049 0.01279540
v -0.01358526 0.01452493 0.01262075
v -0.01340553 0.01452575 0.01314185
v -0.01340031 0.01425410 0.01427855
v -0.01340031 0.01402113 -0.00101103
v -0.01876108 0.00733837 -0.00542325
v -0.01869172 0.00733837 -0.00471890
v -0.01340031 0.01383262 0.00077848
v -0.01340031 0.01367045 0.00488720
v -0.01973733 0.01055051 -0.01420474
v -0.01726949 0.01104690 0.01291279
v -0.01343685 0.01402442 0.01484547
v -0.01667584 0.01100162 0.01500008
v -0.01475542 0.01336668 0.01478820
v -0.01521110 0.01299789 0.01469085
v -0.01611053 0.01194995 0.01476816
v -0.01636335 0.01156140 0.01486551
v -0.01638647 0.01187586 0.01433582
v -0.01672506 0.01159433 0.01389202
v -0.01681307 0.01182071 0.01284694
v -0.01718596 0.01389024 -0.01420474
v -0.01512384 0.01369514 0.01291279
v -0.01501495 0.01360706 0.01366296
v -0.01460104 0.01370584 0.01440167
v -0.01378216 0.01402278 0.01455915
v -0.01916605 0.01146591 -0.01420474
v -0.01425499 0.01369020 0.01477102
v -0.01499556 0.01343830 0.01428141
v -0.01569587 0.01256736 0.01455056
v -0.01609636 0.01218539 0.01440740
v -0.01644688 0.01194913 0.01389202
v -0.01644539 0.01223725 0.01291279
v -0.01760957 0.01348605 -0.01420474
v -0.01799366 0.01302835 -0.01420474
v -0.01840310 0.01252372 -0.01420474
v -0.01880583 0.01199935 -0.01420474
v -0.01528120 0.01312796 0.01428141
f 1 2 6
f 1 6 17
f 1 17 37
f 1 37 53
f 1 53 63
f 1 63 62
f 1 62 61
f 1 61 60
f 1 60 48
f 1 48 27
f 1 27 11
f 1 11 3
f 1 3 4
f 1 4 15
f 1 15 14
f 1 14 33
f 1 33 34
f 1 34 16
f 1 16 5
f 1 5 2
f 2 5 7
f 2 7 8
f 2 8 9
f 2 9 10
f 2 10 6
f 3 11 12
f 3 12 13
f 3 13 14
f 3 14 15
f 3 15 4
f 5 16 7
f 6 10 18
f 6 18 17
f 7 19 8
f 7 16 19
f 8 19 20
f 8 20 21
f 8 21 9
f 9 21 22
f 9 22 23
f 9 23 10
f 10 23 24
f 10 24 25
f 10 25 26
f 10 26 18
f 11 27 28
f 11 28 29
f 11 29 30
f 11 30 12
f 12 30 31
f 12 31 19
f 12 19 36
f 12 36 35
f 12 35 32
f 12 32 13
f 13 32 14
f 14 32 33
f 16 34 32
f 16 32 35
f 16 35 36
f 16 36 19
f 17 18 38
f 17 38 37
f 18 26 38
f 19 31 39
f 19 39 20
f 20 40 21
f 20 39 41
f 20 41 42
f 20 42 43
f 20 43 44
f 20 44 40
f 21 40 22
f 22 40 44
f 22 44 45
f 22 45 24
f 22 24 23
f 24 45 46
f 24 46 47
f 24 47 26
f 24 26 25
f 26 47 38
f 27 48 49
f 27 49 28
f 28 49 50
f 28 50 51
f 28 51 30
f 28 30 29
f 30 51 52
f 30 52 31
f 31 52 39
f 32 34 33
f 37 38 47
f 37 47 53
f 39 52 54
f 39 54 41
f 41 54 51
f 41 51 55
f 41 55 42
f 42 55 56
f 42 56 43
f 43 56 57
f 43 57 45
f 43 45 44
f 45 57 58
f 45 58 46
f 46 58 47
f 47 58 59
f 47 59 60
f 47 60 61
f 47 61 62
f 47 62 63
f 47 63 53
f 48 60 49
f 49 60 59
f 49 59 50
f 50 58 64
f 50 64 55
f 50 55 51
f 50 59 58
f 51 54 52
f 55 64 56
f 56 64 57
f 57 64 58

