# https://github.com/mikedh/trimesh
v -0.01882199 0.00449397 0.01517439
v -0.01837671 0.00105189 0.01513875
v -0.01732322 0.00105189 0.01675497
v -0.01831674 0.00391539 0.01577447
v -0.01839263 0.00530055 0.01565349
v -0.01868081 0.00597720 0.01527453
v -0.01862350 0.00661830 0.01512978
v -0.01841757 0.00746166 0.01504589
v -0.01530805 0.00105189 0.01752258
v -0.01406934 0.01357478 0.01504589
v -0.01342133 0.01347794 0.01536618
v -0.01648945 0.00121247 0.01742318
v -0.01672244 0.00186828 0.01728692
v -0.01732322 0.00377442 0.01674236
v -0.01772551 0.00394603 0.01635710
v -0.01801582 0.00450132 0.01605936
v -0.01824297 0.00606791 0.01568889
v -0.01701964 0.00429416 0.01695354
v -0.01758540 0.00721650 0.01601717
v -0.01726112 0.00793605 0.01609088
v -0.01808959 0.00817385 0.01510748
v -0.01757850 0.00943276 0.01508420
v -0.01625805 0.00214777 0.01752258
v -0.01340010 0.00940825 0.01752258
v -0.01686627 0.01060341 0.01510772
v -0.01489144 0.01295697 0.01511014
v -0.01426624 0.01243355 0.01603124
v -0.01349563 0.01288342 0.01602105
v -0.01340010 0.01206703 0.01666526
v -0.01641409 0.00276558 0.01742172
v -0.01667414 0.00391539 0.01723649
v -0.01690607 0.00548075 0.01689462
v -0.01675322 0.00631185 0.01688638
v -0.01676330 0.00756095 0.01666550
v -0.01662160 0.00450132 0.01721030
v -0.01672615 0.00817998 0.01651978
v -0.01714171 0.00926605 0.01567337
v -0.01776637 0.00884437 0.01516882
v -0.01673836 0.00982747 0.01581060
v -0.01724520 0.01002360 0.01511863
v -0.01607761 0.00388352 0.01752258
v -0.01347015 0.01042444 0.01752161
v -0.01393932 0.00999909 0.01752258
v -0.01606328 0.01097851 0.01567216
v -0.01642152 0.01114277 0.01516688
v -0.01595076 0.01175077 0.01516009
v -0.01627451 0.01041464 0.01587728
v -0.01534521 0.01235142 0.01523889
v -0.01513398 0.01187090 0.01587946
v -0.01417549 0.01199225 0.01640607
v -0.01493071 0.01150070 0.01632049
v -0.01596881 0.00465087 0.01752258
v -0.01619437 0.00668082 0.01718945
v -0.01660462 0.00704611 0.01687280
v -0.01553892 0.00781469 0.01740087
v -0.01626601 0.00814076 0.01685292
v -0.01569283 0.00722630 0.01741590
v -0.01650060 0.00871444 0.01647954
v -0.01531708 0.01064386 0.01647347
v -0.01444404 0.00975025 0.01739966
v -0.01474920 0.00894489 0.01752258
v -0.01562437 0.01111212 0.01601257
v -0.01517856 0.00949283 0.01707695
v -0.01523641 0.00848398 0.01738996
f 1 2 3
f 1 3 4
f 1 4 5
f 1 5 6
f 1 6 7
f 1 7 8
f 1 8 2
f 2 9 3
f 2 8 10
f 2 10 11
f 2 11 9
f 3 9 12
f 3 12 13
f 3 13 14
f 3 14 15
f 3 15 4
f 4 15 16
f 4 16 5
f 5 17 6
f 5 16 14
f 5 14 18
f 5 18 17
f 6 17 19
f 6 19 7
f 7 19 8
f 8 19 20
f 8 20 21
f 8 21 22
f 8 22 10
f 9 23 12
f 9 11 24
f 9 24 43
f 9 43 61
f 9 61 52
f 9 52 41
f 9 41 23
f 10 22 25
f 10 25 26
f 10 26 27
f 10 27 28
f 10 28 11
f 11 28 29
f 11 29 24
f 12 23 13
f 13 23 30
f 13 30 31
f 13 31 14
f 14 31 18
f 14 16 15
f 17 18 32
f 17 32 33
f 17 33 34
f 17 34 19
f 18 31 35
f 18 35 32
f 19 34 36
f 19 36 20
f 20 36 37
f 20 37 21
f 21 37 38
f 21 38 22
f 22 39 40
f 22 40 25
f 22 38 37
f 22 37 39
f 23 41 30
f 24 29 42
f 24 42 43
f 25 44 45
f 25 45 46
f 25 46 26
f 25 40 39
f 25 39 47
f 25 47 44
f 26 46 48
f 26 48 49
f 26 49 27
f 27 50 28
f 27 49 51
f 27 51 50
f 28 50 29
f 29 50 42
f 30 41 31
f 31 41 52
f 31 52 35
f 32 35 33
f 33 35 53
f 33 53 54
f 33 54 34
f 34 54 55
f 34 55 56
f 34 56 36
f 35 52 57
f 35 57 53
f 36 58 39
f 36 39 37
f 36 56 58
f 39 58 59
f 39 59 47
f 42 50 51
f 42 51 43
f 43 51 60
f 43 60 61
f 44 47 62
f 44 62 46
f 44 46 45
f 46 62 49
f 46 49 48
f 47 59 62
f 49 62 51
f 51 62 59
f 51 59 63
f 51 63 60
f 52 61 57
f 53 57 54
f 54 57 55
f 55 57 61
f 55 61 64
f 55 64 56
f 56 64 63
f 56 63 58
f 58 63 59
f 60 63 61
f 61 63 64

