# https://github.com/mikedh/trimesh
v 0.00197782 -0.02154179 -0.01881394
v 0.00261019 -0.02091564 -0.01879760
v 0.01659301 -0.01945690 -0.01712469
v 0.01663332 -0.02144368 -0.01660027
v -0.00312654 -0.02245410 -0.01663294
v -0.00391008 -0.02246909 -0.01663294
v -0.00469362 -0.02247659 -0.01663294
v -0.00547717 -0.02247386 -0.01663294
v -0.00625819 -0.02243979 -0.01669012
v -0.00701402 -0.02236417 -0.01674076
v -0.00866676 -0.02193015 -0.01673096
v -0.00909002 -0.02169441 -0.01661824
v 0.01663332 -0.01756892 -0.01487017
v 0.01663332 -0.01782102 -0.01544197
v 0.01663332 -0.01827342 -0.01622451
v 0.01663332 -0.01881713 -0.01683879
v 0.01663332 -0.01649922 -0.00212398
v 0.01448677 -0.01758527 -0.00212398
v 0.01311116 -0.01809151 -0.00212398
v 0.01206560 -0.01844376 -0.00212398
v 0.01157180 -0.01856299 -0.00212398
v 0.00371874 -0.02012802 -0.00212398
v -0.00058696 -0.02090951 -0.00212398
v -0.00252944 -0.02115888 -0.00212398
v -0.00281665 -0.02270892 -0.01165666
v -0.00312654 -0.02282339 -0.01252253
v -0.00322480 -0.02284655 -0.01330671
v -0.00118406 -0.02271642 -0.01473784
v -0.00176101 -0.02272050 -0.01499596
v -0.00254455 -0.02250793 -0.01624248
v -0.00276878 -0.02273072 -0.01512666
v -0.00410660 -0.02272187 -0.01539949
v -0.00469362 -0.02275593 -0.01524919
v -0.00536127 -0.02274435 -0.01522468
v -0.00665122 -0.02250997 -0.01624248
v -0.00735162 -0.02236144 -0.01636665
v -0.00910010 -0.02194037 -0.01594025
v -0.00910514 -0.02002650 -0.00352406
v 0.01663332 -0.01593916 -0.00212398
v -0.00311646 -0.02121680 -0.00212398
v -0.00312654 -0.02247250 -0.00998048
v -0.00352461 -0.02270415 -0.01134299
v -0.00332305 -0.02276888 -0.01193276
v -0.00625819 -0.02289901 -0.01252253
v -0.00449963 -0.02288198 -0.01311067
v -0.00322480 -0.02280908 -0.01447971
v -0.00430311 -0.02284383 -0.01428203
v -0.00469362 -0.02282816 -0.01467576
v -0.00351957 -0.02275116 -0.01513320
v -0.00665122 -0.02288334 -0.01311067
v -0.00737177 -0.02276138 -0.01311067
v -0.00910514 -0.01997268 -0.00212888
v -0.00858110 -0.02238597 -0.01294076
v -0.00895397 -0.02047550 -0.00212398
v -0.00910514 -0.01998494 -0.00274152
v -0.00469362 -0.02127812 -0.00212398
v -0.00508665 -0.02273209 -0.01128091
v -0.00606419 -0.02282952 -0.01193276
v -0.00684773 -0.02287653 -0.01252253
v -0.00737681 -0.02275457 -0.01255030
v -0.00708708 -0.02271369 -0.01182820
v -0.00743476 -0.02088839 -0.00212398
v -0.00546205 -0.02123587 -0.00212398
v -0.00619520 -0.02114934 -0.00212398
f 1 2 3
f 1 3 4
f 1 4 5
f 1 5 6
f 1 6 7
f 1 7 8
f 1 8 9
f 1 9 10
f 1 10 11
f 1 11 12
f 1 12 2
f 2 13 14
f 2 14 15
f 2 15 16
f 2 16 3
f 2 12 13
f 3 16 4
f 4 16 15
f 4 15 14
f 4 14 13
f 4 13 39
f 4 39 17
f 4 17 18
f 4 18 19
f 4 19 20
f 4 20 21
f 4 21 22
f 4 22 23
f 4 23 24
f 4 24 25
f 4 25 26
f 4 26 27
f 4 27 28
f 4 28 29
f 4 29 30
f 4 30 5
f 5 30 29
f 5 29 31
f 5 31 32
f 5 32 6
f 6 32 7
f 7 32 33
f 7 33 8
f 8 34 9
f 8 33 34
f 9 34 35
f 9 35 10
f 10 35 36
f 10 36 11
f 11 36 37
f 11 37 12
f 12 37 38
f 12 38 39
f 12 39 13
f 17 39 54
f 17 54 62
f 17 62 64
f 17 64 63
f 17 63 56
f 17 56 40
f 17 40 24
f 17 24 23
f 17 23 22
f 17 22 21
f 17 21 20
f 17 20 19
f 17 19 18
f 24 40 41
f 24 41 25
f 25 41 42
f 25 42 43
f 25 43 26
f 26 43 44
f 26 44 45
f 26 45 27
f 27 46 28
f 27 45 47
f 27 47 46
f 28 46 29
f 29 46 48
f 29 48 49
f 29 49 31
f 31 49 32
f 32 49 33
f 33 49 48
f 33 48 34
f 34 50 35
f 34 48 50
f 35 51 36
f 35 50 51
f 36 51 37
f 37 52 38
f 37 51 53
f 37 53 54
f 37 54 52
f 38 52 55
f 38 55 39
f 39 55 52
f 39 52 54
f 40 56 41
f 41 56 42
f 42 56 57
f 42 57 43
f 43 57 58
f 43 58 44
f 44 58 59
f 44 59 50
f 44 50 45
f 45 50 47
f 46 47 48
f 47 50 48
f 50 59 51
f 51 60 53
f 51 59 60
f 53 60 54
f 54 60 61
f 54 61 62
f 56 63 58
f 56 58 57
f 58 63 59
f 59 61 60
f 59 63 64
f 59 64 61
f 61 64 62

