# https://github.com/mikedh/trimesh
v -0.02270945 0.01193874 -0.01643788
v -0.02270526 0.01271995 -0.01642624
v -0.02270777 0.01232884 -0.01643600
v -0.02270526 0.01271995 -0.01644501
v -0.02240426 0.01134247 -0.01684960
v -0.02270609 0.01171640 -0.01643863
v -0.02103678 0.00763246 -0.01420474
v -0.02270106 0.01335462 -0.01643750
v -0.02270274 0.01311005 -0.01643675
v -0.02254009 0.01349206 -0.01647916
v -0.01653778 0.01758206 -0.01799769
v -0.02047336 0.00985786 -0.01731049
v -0.02048007 0.00959004 -0.01729135
v -0.02154655 0.00763246 -0.01684735
v -0.02151888 0.00736970 -0.01663379
v -0.02152056 0.00736566 -0.01633767
v -0.02127154 0.00733837 -0.01501993
v -0.02117009 0.00733837 -0.01463260
v -0.02110553 0.00738587 -0.01443294
v -0.02100157 0.00733837 -0.01420474
v -0.02096552 0.00806097 -0.01420474
v -0.02254009 0.01349206 -0.01633692
v -0.02243361 0.01373866 -0.01641085
v -0.01624265 0.01757398 -0.01765691
v -0.01624265 0.01766291 -0.01785282
v -0.01624265 0.01766291 -0.01803898
v -0.01624265 0.01747999 -0.01803898
v -0.02026375 0.00959004 -0.01729135
v -0.02148450 0.00738587 -0.01681207
v -0.02123214 0.00733837 -0.01676253
v -0.02055385 0.00733837 -0.01420474
v -0.02082382 0.00839448 -0.01420474
v -0.01768726 0.01339707 -0.01420474
v -0.01749359 0.01362345 -0.01420474
v -0.01732590 0.01378717 -0.01420474
v -0.02003906 0.01003775 -0.01420474
v -0.01986131 0.01034195 -0.01420474
v -0.01964835 0.01069769 -0.01420474
v -0.01916625 0.01146576 -0.01420474
v -0.01886693 0.01191246 -0.01420474
v -0.01874620 0.01208932 -0.01420474
v -0.01853156 0.01236522 -0.01420474
v -0.01831860 0.01263404 -0.01420474
v -0.01799580 0.01302920 -0.01420474
v -0.01704503 0.01399435 -0.01420474
v -0.01633655 0.01446125 -0.01420474
v -0.01618061 0.01456029 -0.01420474
v -0.01418179 0.01574778 -0.01420474
v -0.01421533 0.01764573 -0.01758447
v -0.01421533 0.01765988 -0.01781379
v -0.01421533 0.01760834 -0.01801308
v -0.01467731 0.01759823 -0.01802247
v -0.01506969 0.01758610 -0.01802734
v -0.01546124 0.01750829 -0.01803110
v -0.01414407 0.01733951 -0.01788060
v -0.01414407 0.01704138 -0.01771771
v -0.01414407 0.01632889 -0.01728872
v -0.01414407 0.01613283 -0.01715361
v -0.01414407 0.01587411 -0.01694681
v -0.02109967 0.00733837 -0.01659626
v -0.01414407 0.01571241 -0.01663379
v -0.01414407 0.01538698 -0.01507060
v -0.01414407 0.01532837 -0.01467727
v -0.01414407 0.01527784 -0.01420474
f 1 2 3
f 1 3 4
f 1 4 5
f 1 5 6
f 1 6 7
f 1 7 2
f 2 4 3
f 2 7 8
f 2 8 9
f 2 9 4
f 4 9 8
f 4 8 5
f 5 8 10
f 5 10 11
f 5 11 12
f 5 12 13
f 5 13 14
f 5 14 6
f 6 14 15
f 6 15 16
f 6 16 17
f 6 17 18
f 6 18 19
f 6 19 20
f 6 20 7
f 7 20 31
f 7 31 64
f 7 64 48
f 7 48 47
f 7 47 46
f 7 46 45
f 7 45 35
f 7 35 34
f 7 34 33
f 7 33 44
f 7 44 43
f 7 43 42
f 7 42 41
f 7 41 40
f 7 40 39
f 7 39 38
f 7 38 37
f 7 37 36
f 7 36 32
f 7 32 21
f 7 21 8
f 8 21 22
f 8 22 23
f 8 23 10
f 10 23 11
f 11 23 24
f 11 24 25
f 11 25 26
f 11 26 27
f 11 27 12
f 12 27 13
f 13 28 29
f 13 29 14
f 13 27 28
f 14 29 15
f 15 30 16
f 15 29 30
f 16 30 17
f 17 30 60
f 17 60 31
f 17 31 20
f 17 20 18
f 18 20 19
f 21 32 22
f 22 33 34
f 22 34 35
f 22 35 23
f 22 32 36
f 22 36 37
f 22 37 38
f 22 38 39
f 22 39 40
f 22 40 41
f 22 41 42
f 22 42 43
f 22 43 44
f 22 44 33
f 23 35 45
f 23 45 46
f 23 46 47
f 23 47 48
f 23 48 24
f 24 49 25
f 24 48 49
f 25 49 50
f 25 50 26
f 26 50 51
f 26 51 52
f 26 52 53
f 26 53 27
f 27 53 54
f 27 54 28
f 28 30 29
f 28 54 51
f 28 51 55
f 28 55 30
f 30 55 56
f 30 56 57
f 30 57 58
f 30 58 59
f 30 59 60
f 31 60 61
f 31 61 62
f 31 62 63
f 31 63 64
f 48 64 55
f 48 55 49
f 49 55 50
f 50 55 51
f 51 54 52
f 52 54 53
f 55 64 63
f 55 63 62
f 55 62 61
f 55 61 59
f 55 59 58
f 55 58 57
f 55 57 56
f 59 61 60

