# https://github.com/mikedh/trimesh
v 0.00958708 0.02351709 -0.01663378
v 0.00997925 0.02350910 -0.01642105
v 0.01037143 0.02351629 -0.01641576
v 0.00997925 0.02351629 -0.01663378
v 0.00894456 0.02350111 -0.01684103
v 0.00908268 0.02349911 -0.01653365
v 0.00958708 0.02350111 -0.01642634
v 0.00419902 0.02035781 -0.01494196
v 0.01076113 0.02031106 -0.01494196
v 0.01099915 0.02025673 -0.01494196
v 0.01064027 0.02350790 -0.01648642
v 0.00450117 0.02036859 -0.01494196
v 0.00639297 0.02041374 -0.01494196
v 0.00956612 0.02044010 -0.01494196
v 0.01028387 0.02349551 -0.01674657
v 0.00958708 0.02349831 -0.01683895
v 0.00919614 0.02344957 -0.01684424
v -0.00097815 0.01957318 -0.01687182
v -0.00136909 0.01957758 -0.01686767
v -0.00159971 0.01976694 -0.01666911
v -0.00159971 0.01987600 -0.01641916
v -0.00159971 0.01997228 -0.01612481
v -0.00159971 0.02002022 -0.01585068
v -0.00159971 0.02007056 -0.01545999
v -0.00159971 0.02007815 -0.01500524
v -0.00136909 0.02008854 -0.01494196
v 0.01099915 0.01955760 -0.01495537
v 0.01099915 0.02165739 -0.01596309
v 0.01096092 0.02300212 -0.01644429
v -0.00159971 0.01971660 -0.01494196
v 0.01076730 0.02325821 -0.01655745
v 0.00997925 0.02347354 -0.01683366
v 0.01076113 0.02289546 -0.01656558
v 0.00958708 0.02342520 -0.01683895
v 0.00828107 0.02149799 -0.01685180
v 0.00528181 0.01996549 -0.01686937
v 0.00489087 0.01996030 -0.01687069
v 0.00371929 0.02001903 -0.01687088
v 0.00215306 0.02001903 -0.01687088
v 0.00136995 0.02001623 -0.01687069
v 0.00567275 0.01991915 -0.01686483
v -0.00058598 0.01952764 -0.01686408
v -0.00159971 0.01954442 -0.01681194
v 0.01099915 0.02068140 -0.01584407
v -0.00121370 0.01956359 -0.01562322
v -0.00097815 0.01944893 -0.01624233
v -0.00097815 0.01943575 -0.01663378
v 0.00656439 0.01995111 -0.01683952
v 0.01099915 0.02167777 -0.01619151
v 0.01099915 0.02140411 -0.01623345
v 0.01088199 0.02252432 -0.01648264
v -0.00159971 0.01950846 -0.01623723
v -0.00136909 0.01947290 -0.01624233
v 0.01037143 0.02250434 -0.01662736
v 0.00791480 0.02105454 -0.01685388
v 0.01071304 0.02211283 -0.01648661
v 0.00751892 0.02066822 -0.01685539
v 0.00712059 0.02028350 -0.01685633
v 0.00606616 0.01993153 -0.01685633
v -0.00159971 0.01948848 -0.01655311
v -0.00136909 0.01945573 -0.01663378
v 0.01099915 0.02100860 -0.01608250
v 0.01063411 0.02183597 -0.01645600
f 1 2 3
f 1 3 4
f 1 4 5
f 1 5 6
f 1 6 2
f 2 6 7
f 2 7 8
f 2 8 3
f 3 9 10
f 3 10 11
f 3 11 4
f 3 8 12
f 3 12 13
f 3 13 14
f 3 14 9
f 4 15 16
f 4 16 5
f 4 11 15
f 5 16 17
f 5 17 18
f 5 18 19
f 5 19 20
f 5 20 21
f 5 21 22
f 5 22 23
f 5 23 24
f 5 24 25
f 5 25 6
f 6 25 26
f 6 26 7
f 7 26 8
f 8 26 30
f 8 30 10
f 8 10 9
f 8 9 14
f 8 14 13
f 8 13 12
f 10 27 44
f 10 44 62
f 10 62 50
f 10 50 49
f 10 49 28
f 10 28 29
f 10 29 11
f 10 30 27
f 11 31 15
f 11 29 31
f 15 32 16
f 15 31 33
f 15 33 32
f 16 32 17
f 17 32 34
f 17 34 35
f 17 35 36
f 17 36 37
f 17 37 38
f 17 38 39
f 17 39 40
f 17 40 18
f 18 40 39
f 18 39 38
f 18 38 37
f 18 37 36
f 18 36 41
f 18 41 42
f 18 42 19
f 19 42 43
f 19 43 20
f 20 43 60
f 20 60 52
f 20 52 30
f 20 30 25
f 20 25 24
f 20 24 23
f 20 23 22
f 20 22 21
f 25 30 26
f 27 30 45
f 27 45 46
f 27 46 47
f 27 47 42
f 27 42 48
f 27 48 44
f 28 49 29
f 29 49 50
f 29 50 51
f 29 51 33
f 29 33 31
f 30 52 53
f 30 53 45
f 32 33 54
f 32 54 55
f 32 55 35
f 32 35 34
f 33 51 56
f 33 56 54
f 35 55 36
f 36 55 57
f 36 57 58
f 36 58 41
f 41 58 59
f 41 59 42
f 42 59 48
f 42 47 43
f 43 47 61
f 43 61 60
f 44 48 62
f 45 53 46
f 46 53 61
f 46 61 47
f 48 59 58
f 48 58 62
f 50 63 56
f 50 56 51
f 50 62 58
f 50 58 63
f 52 60 53
f 53 60 61
f 54 56 63
f 54 63 55
f 55 63 57
f 57 63 58

