# https://github.com/mikedh/trimesh
v -0.02021415 -0.00072726 -0.01676722
v -0.02053032 -0.00072726 -0.01454670
v -0.02067431 -0.00057408 -0.01679042
v -0.02034900 -0.00000296 -0.01842101
v -0.01827368 -0.00072726 -0.00332478
v -0.02049794 -0.00072726 -0.01403299
v -0.02074707 -0.00001281 -0.01516314
v -0.02117257 0.00163711 -0.01662802
v -0.02076726 0.00014475 -0.01835141
v -0.02037528 0.00090515 -0.01879220
v -0.02032728 0.00137124 -0.01880546
v -0.01761276 0.00913613 -0.00211841
v -0.01820625 -0.00072726 -0.00273816
v -0.02046556 -0.00072726 -0.01363860
v -0.01893917 0.00105286 0.01428031
v -0.02150436 0.00733741 -0.01630986
v -0.02115238 0.00163492 -0.01708207
v -0.02078250 0.00058895 -0.01850718
v -0.02037185 0.00188438 -0.01881209
v -0.01761276 0.01003548 -0.00211841
v -0.01761276 0.00836916 0.00684653
v -0.01817425 -0.00072726 -0.00211841
v -0.02042061 -0.00072726 -0.01310833
v -0.01882527 0.00105286 0.01483710
v -0.01899516 0.00391504 0.01467139
v -0.02037185 -0.00072726 -0.01266422
v -0.01931781 -0.00072726 -0.00645339
v -0.01857385 -0.00072726 -0.00211841
v -0.02129409 0.00728161 -0.01676059
v -0.01898716 0.00567437 0.01467139
v -0.01900469 0.00606496 0.01428031
v -0.01896659 0.00645556 0.01428031
v -0.01889879 0.00684835 0.01428031
v -0.01879403 0.00739321 0.01425048
v -0.01846033 0.00837791 0.01388923
v -0.01847062 0.00850701 0.01319656
v -0.01806455 0.00953219 0.01310708
v -0.01798798 0.00976961 0.01271600
v -0.01765581 0.01038888 0.01271600
v -0.01761276 0.01045015 0.01232493
v -0.02068650 0.00186468 -0.01850386
v -0.01761276 0.00798731 0.01504589
v -0.01817235 0.00105286 0.01504589
v -0.01888736 0.00391504 0.01504589
v -0.01886146 0.00589975 0.01503595
v -0.01896583 0.00606496 0.01467139
v -0.01891060 0.00645556 0.01467139
v -0.01877003 0.00721159 0.01462499
v -0.01843024 0.00829804 0.01440956
v -0.01764628 0.01034293 0.01310708
v -0.01804778 0.00940090 0.01368044
v -0.01765885 0.01002017 0.01430682
v -0.01761276 0.01020288 0.01396215
v -0.01761276 0.01031120 0.01349816
v -0.01762609 0.00982651 0.01474098
v -0.01766495 0.00934948 0.01502269
v -0.01805236 0.00841292 0.01504589
v -0.01874413 0.00645556 0.01504589
v -0.01869880 0.00688008 0.01493321
v -0.01860395 0.00763063 0.01467139
v -0.01805845 0.00912190 0.01442614
v -0.01797503 0.00884728 0.01490670
v -0.01832053 0.00797199 0.01492658
v -0.01844395 0.00746105 0.01501606
f 1 2 3
f 1 3 4
f 1 4 5
f 1 5 13
f 1 13 22
f 1 22 28
f 1 28 27
f 1 27 26
f 1 26 23
f 1 23 14
f 1 14 6
f 1 6 2
f 2 6 7
f 2 7 3
f 3 7 8
f 3 8 9
f 3 9 4
f 4 9 10
f 4 10 11
f 4 11 5
f 5 12 13
f 5 11 12
f 6 14 15
f 6 15 7
f 7 15 8
f 8 16 17
f 8 17 9
f 8 15 16
f 9 17 18
f 9 18 10
f 10 18 19
f 10 19 11
f 11 19 20
f 11 20 12
f 12 20 40
f 12 40 54
f 12 54 53
f 12 53 42
f 12 42 21
f 12 21 22
f 12 22 13
f 14 23 15
f 15 24 25
f 15 25 16
f 15 23 26
f 15 26 27
f 15 27 28
f 15 28 24
f 16 29 18
f 16 18 17
f 16 25 30
f 16 30 31
f 16 31 32
f 16 32 33
f 16 33 34
f 16 34 35
f 16 35 36
f 16 36 37
f 16 37 38
f 16 38 39
f 16 39 40
f 16 40 20
f 16 20 29
f 18 29 41
f 18 41 19
f 19 41 29
f 19 29 20
f 21 42 22
f 22 42 43
f 22 43 28
f 24 43 44
f 24 44 25
f 24 28 43
f 25 44 30
f 30 44 45
f 30 45 46
f 30 46 31
f 31 46 32
f 32 46 47
f 32 47 33
f 33 47 48
f 33 48 34
f 34 48 49
f 34 49 35
f 35 49 37
f 35 37 36
f 37 50 38
f 37 49 51
f 37 51 52
f 37 52 53
f 37 53 50
f 38 50 39
f 39 50 54
f 39 54 40
f 42 53 55
f 42 55 56
f 42 56 57
f 42 57 58
f 42 58 44
f 42 44 43
f 44 58 45
f 45 58 47
f 45 47 46
f 47 58 48
f 48 58 59
f 48 59 60
f 48 60 49
f 49 60 55
f 49 55 61
f 49 61 51
f 50 53 54
f 51 61 52
f 52 61 55
f 52 55 53
f 55 60 62
f 55 62 56
f 56 62 57
f 57 62 63
f 57 63 64
f 57 64 58
f 58 64 59
f 59 64 60
f 60 64 63
f 60 63 62

