# https://github.com/mikedh/trimesh
v 0.00095488 -0.00185544 0.08101686
v -0.04202343 -0.03810071 0.08243565
v 0.00095488 -0.01093095 0.08092440
v 0.00095488 -0.00185544 0.05338659
v -0.06394373 -0.00253664 0.06782010
v -0.06438460 -0.00269629 0.08168147
v -0.06269892 -0.00689700 0.08290666
v -0.04391657 -0.03810071 0.06144855
v -0.00169682 -0.03810071 0.05568959
v 0.00095488 -0.03786300 0.08040427
v 0.00095488 -0.03024568 0.08060365
v 0.00095488 -0.02411492 0.08072212
v 0.00095488 -0.01800190 0.08082615
v -0.05948965 -0.02187620 0.08277374
v -0.05185871 -0.03737340 0.08228250
v -0.05326561 -0.03794106 0.07398360
v -0.00023157 -0.03204801 0.05338659
v -0.05228661 -0.00403385 0.05338659
v -0.06244607 -0.00669122 0.06574248
v -0.06238124 -0.01182147 0.06713237
v -0.06480602 -0.00739016 0.07126160
v -0.06527930 -0.00296593 0.07176150
v -0.05982678 -0.00462989 0.06185598
v -0.06474767 -0.00727307 0.08143296
v -0.06325649 -0.01119350 0.08249345
v -0.06248497 -0.01103029 0.08284020
v -0.04128432 -0.03645449 0.05884792
v -0.03520291 -0.03745145 0.05749270
v -0.04959601 -0.03725277 0.06552287
v -0.04965436 -0.03335363 0.06257549
v -0.04560225 -0.03389646 0.05988239
v -0.03729705 -0.03405257 0.05602767
v -0.06098083 -0.02205714 0.08127982
v -0.05899691 -0.02699581 0.08153121
v -0.05510041 -0.03313012 0.08217848
v -0.05464008 -0.03628419 0.07889301
v -0.05660454 -0.03317624 0.07725751
v -0.05535326 -0.03440736 0.07230763
v -0.05287012 -0.03664253 0.06957697
v -0.04077214 -0.02575405 0.05338659
v -0.05041292 -0.01266942 0.05338659
v -0.05926273 -0.01090612 0.06239923
v -0.05999535 -0.01568868 0.06484093
v -0.06196630 -0.01654727 0.06835467
v -0.06446240 -0.01103029 0.08062099
v -0.06365846 -0.01495071 0.07359639
v -0.06254980 -0.01671756 0.08143874
v -0.04421481 -0.02368208 0.05338659
v -0.05231255 -0.03436833 0.06623082
v -0.04963492 -0.02210327 0.05647845
v -0.05432239 -0.02709515 0.06340191
v -0.05123631 -0.02977026 0.06190799
v -0.05831616 -0.03005764 0.07927444
v -0.06268596 -0.01929688 0.07655822
v -0.05967118 -0.02724062 0.07524346
v -0.05717508 -0.03017827 0.07037450
v -0.05468546 -0.03090559 0.06656601
v -0.04792330 -0.01878953 0.05346749
v -0.05065929 -0.01933946 0.05614615
v -0.05738904 -0.01638052 0.06180975
v -0.05632576 -0.02266029 0.06339902
v -0.06098731 -0.02094310 0.06982837
v -0.05871812 -0.02621528 0.06924178
v -0.05107423 -0.02495222 0.05918889
f 1 2 3
f 1 3 13
f 1 13 12
f 1 12 11
f 1 11 10
f 1 10 4
f 1 4 5
f 1 5 6
f 1 6 7
f 1 7 2
f 2 8 9
f 2 9 10
f 2 10 11
f 2 11 12
f 2 12 13
f 2 13 3
f 2 7 14
f 2 14 15
f 2 15 16
f 2 16 8
f 4 10 17
f 4 17 40
f 4 40 48
f 4 48 41
f 4 41 18
f 4 18 5
f 5 19 20
f 5 20 21
f 5 21 22
f 5 22 6
f 5 18 23
f 5 23 19
f 6 22 24
f 6 24 7
f 7 24 25
f 7 25 26
f 7 26 14
f 8 27 28
f 8 28 9
f 8 16 29
f 8 29 30
f 8 30 31
f 8 31 27
f 9 28 32
f 9 32 17
f 9 17 10
f 14 33 34
f 14 34 35
f 14 35 15
f 14 26 25
f 14 25 33
f 15 36 16
f 15 35 36
f 16 36 37
f 16 37 38
f 16 38 39
f 16 39 29
f 17 32 40
f 18 41 42
f 18 42 23
f 19 23 42
f 19 42 20
f 20 42 43
f 20 43 44
f 20 44 21
f 21 45 22
f 21 44 46
f 21 46 45
f 22 45 24
f 24 45 25
f 25 45 47
f 25 47 33
f 27 31 48
f 27 48 32
f 27 32 28
f 29 39 49
f 29 49 30
f 30 50 31
f 30 49 51
f 30 51 52
f 30 52 50
f 31 50 48
f 32 48 40
f 33 53 34
f 33 47 45
f 33 45 54
f 33 54 53
f 34 53 35
f 35 53 36
f 36 53 37
f 37 53 55
f 37 55 38
f 38 55 56
f 38 56 39
f 39 56 57
f 39 57 49
f 41 48 58
f 41 58 59
f 41 59 60
f 41 60 42
f 42 60 43
f 43 60 61
f 43 61 44
f 44 62 46
f 44 61 63
f 44 63 62
f 45 46 54
f 46 62 54
f 48 50 58
f 49 57 51
f 50 52 64
f 50 64 59
f 50 59 58
f 51 59 64
f 51 64 52
f 51 57 63
f 51 63 61
f 51 61 59
f 53 54 55
f 54 62 55
f 55 63 56
f 55 62 63
f 56 63 57
f 59 61 60

