# https://github.com/mikedh/trimesh
v 0.00095488 -0.03810620 0.08039957
v 0.00095488 -0.05718866 0.08199175
v 0.00008029 -0.05031469 0.05748580
v -0.00169522 -0.03810620 0.05568674
v -0.04203161 -0.03810620 0.08243692
v -0.01103118 -0.06270430 0.08214363
v -0.00097870 -0.06378547 0.08187128
v 0.00077048 -0.06613716 0.07906926
v 0.00009610 -0.05963640 0.06503032
v -0.00007250 -0.05680449 0.06216021
v -0.00542539 -0.05356645 0.06000762
v -0.03345433 -0.03810620 0.05756960
v -0.00276475 -0.04698336 0.05676565
v -0.05286911 -0.03862209 0.07437128
v -0.05201033 -0.03895138 0.08109090
v -0.04434979 -0.04679401 0.08166964
v -0.03230578 -0.05527053 0.08217244
v -0.01499843 -0.06224329 0.08205983
v -0.00664771 -0.06524808 0.07995962
v -0.01516703 -0.06429038 0.07924209
v -0.00878149 -0.06513557 0.07405442
v -0.00413985 -0.06563225 0.07372970
v -0.00009357 -0.06543193 0.07291266
v -0.00179533 -0.06255337 0.06825920
v -0.00401341 -0.05917264 0.06485487
v -0.00805969 -0.05659868 0.06313437
v -0.01784348 -0.05716396 0.06617732
v -0.02034606 -0.05638464 0.06625850
v -0.03245330 -0.05086626 0.06554883
v -0.03594111 -0.04405266 0.06159980
v -0.03929194 -0.03995572 0.06020141
v -0.04509266 -0.03884985 0.06279656
v -0.04905992 -0.03867972 0.06611709
v -0.05031911 -0.04094085 0.07135190
v -0.04696301 -0.04515853 0.07203539
v -0.04895455 -0.04329254 0.08078189
v -0.04103584 -0.05142057 0.07962966
v -0.03565134 -0.05491380 0.07997010
v -0.02876528 -0.05875828 0.08078189
v -0.02315949 -0.06071208 0.08166703
v -0.02504565 -0.06094807 0.07692977
v -0.01876548 -0.06324763 0.07679359
v -0.01415546 -0.06439466 0.07642959
v -0.01441889 -0.06358515 0.07285504
v -0.00554657 -0.06419434 0.07084387
v -0.00413985 -0.06512185 0.07229464
v -0.00706919 -0.06100844 0.06707030
v -0.01521445 -0.06021540 0.06830634
v -0.02306466 -0.05837685 0.06918622
v -0.02584647 -0.05564099 0.06747096
v -0.03652065 -0.05165656 0.06861796
v -0.03739524 -0.04666230 0.06417400
v -0.02984534 -0.05586052 0.06948214
v -0.04235299 -0.04327059 0.06429446
v -0.04554049 -0.04343249 0.06709125
v -0.04284824 -0.04783677 0.06983566
v -0.03991890 -0.05162912 0.07293361
v -0.03692634 -0.05416466 0.07510452
v -0.02864410 -0.05885158 0.07453626
v -0.02267478 -0.06074501 0.07257746
v -0.01087839 -0.06229543 0.06940882
v -0.01932922 -0.05963365 0.06914956
v -0.03315402 -0.05606632 0.07290480
v -0.04064597 -0.04756511 0.06701269
f 1 2 3
f 1 3 4
f 1 4 12
f 1 12 5
f 1 5 2
f 2 6 7
f 2 7 8
f 2 8 3
f 2 5 6
f 3 8 9
f 3 9 10
f 3 10 11
f 3 11 12
f 3 12 13
f 3 13 4
f 4 13 12
f 5 12 14
f 5 14 15
f 5 15 16
f 5 16 17
f 5 17 6
f 6 18 19
f 6 19 7
f 6 17 18
f 7 19 8
f 8 19 20
f 8 20 21
f 8 21 22
f 8 22 23
f 8 23 9
f 9 23 24
f 9 24 25
f 9 25 10
f 10 25 11
f 11 25 26
f 11 26 27
f 11 27 28
f 11 28 29
f 11 29 30
f 11 30 12
f 12 30 31
f 12 31 32
f 12 32 33
f 12 33 14
f 14 33 34
f 14 34 35
f 14 35 36
f 14 36 15
f 15 36 16
f 16 37 17
f 16 36 37
f 17 38 39
f 17 39 40
f 17 40 18
f 17 37 38
f 18 20 19
f 18 40 20
f 20 40 39
f 20 39 41
f 20 41 42
f 20 42 43
f 20 43 21
f 21 43 44
f 21 44 45
f 21 45 46
f 21 46 22
f 22 46 23
f 23 46 24
f 24 46 45
f 24 45 47
f 24 47 25
f 25 47 26
f 26 47 48
f 26 48 27
f 27 48 28
f 28 48 49
f 28 49 50
f 28 50 29
f 29 51 52
f 29 52 30
f 29 50 53
f 29 53 51
f 30 52 31
f 31 54 32
f 31 52 54
f 32 54 55
f 32 55 33
f 33 55 34
f 34 55 35
f 35 55 56
f 35 56 57
f 35 57 37
f 35 37 36
f 37 58 38
f 37 57 58
f 38 58 41
f 38 41 39
f 41 58 59
f 41 59 60
f 41 60 42
f 42 60 44
f 42 44 43
f 44 61 45
f 44 60 62
f 44 62 61
f 45 61 47
f 47 61 48
f 48 62 49
f 48 61 62
f 49 53 50
f 49 62 60
f 49 60 53
f 51 53 63
f 51 63 57
f 51 57 56
f 51 56 64
f 51 64 52
f 52 64 54
f 53 60 63
f 54 64 55
f 55 64 56
f 57 63 58
f 58 63 59
f 59 63 60

