# https://github.com/mikedh/trimesh
v 0.04698662 -0.03925468 0.02344341
v 0.04698662 -0.04042775 0.02344341
v 0.04698662 -0.03865602 0.02342206
v 0.04337818 -0.03535125 0.02800174
v 0.04341548 -0.04179391 0.02800174
v 0.04341548 -0.04203357 0.02800174
v 0.04698662 -0.04252842 0.02335801
v 0.04698662 -0.03535125 0.02327261
v -0.03763911 -0.03535125 0.02800174
v 0.04322900 -0.04317171 0.02800174
v 0.04698662 -0.04526266 0.02322991
v 0.04698662 -0.03535125 -0.08077896
v -0.03737803 -0.03938082 0.02800174
v -0.04826861 -0.03535125 0.02620830
v -0.04826861 -0.03749945 0.02619763
v 0.04318238 -0.04341137 0.02800174
v 0.04282807 -0.04418760 0.02800174
v 0.04269752 -0.04424775 0.02800174
v 0.04202619 -0.04447965 0.02800174
v 0.04179308 -0.04453884 0.02800174
v 0.04065554 -0.04478820 0.02800174
v 0.03927557 -0.04494053 0.02800174
v 0.03789560 -0.04499487 0.02800174
v 0.02524277 -0.04526266 0.02800174
v 0.04698662 -0.04526266 -0.08074694
v 0.03535012 -0.03535125 -0.08089639
v -0.03727547 -0.04065480 0.02800174
v -0.04826861 -0.03535125 -0.07934848
v -0.04826861 -0.04066159 0.02609087
v -0.03450620 -0.04526266 0.02800174
v 0.02596073 -0.04526266 -0.08089639
v 0.03375569 -0.03535125 -0.08090706
v -0.03717290 -0.04109337 0.02800174
v -0.03768573 -0.03535125 -0.08017047
v -0.04826861 -0.03579951 -0.07935915
v -0.04826861 -0.04203357 0.02600547
v -0.03693980 -0.04191908 0.02800174
v -0.03579293 -0.04376164 0.02800174
v -0.04826861 -0.04275546 0.02578129
v -0.04826861 -0.04341137 0.02554643
v -0.04826861 -0.04526266 0.02446824
v 0.00942906 -0.04526266 -0.08092841
v 0.00619359 -0.03535125 -0.08104584
v -0.03652021 -0.03535125 -0.08025587
v -0.04826861 -0.04526266 -0.07954063
v -0.04826861 -0.04341137 -0.07950860
v -0.04826861 -0.03717731 -0.07939118
v -0.03621251 -0.04319306 0.02800174
v 0.00482294 -0.04526266 -0.08092841
v 0.00344297 -0.04526266 -0.08091774
v -0.00461307 -0.03535125 -0.08093909
v -0.03630576 -0.03535125 -0.08026655
v -0.03652021 -0.04479014 -0.08027722
v -0.03789086 -0.04526266 -0.08020250
v 0.00068303 -0.04526266 -0.08088571
v -0.00619817 -0.03535125 -0.08091774
v -0.03217517 -0.03535125 -0.08037330
v -0.03652021 -0.04526266 -0.08027722
v -0.02548978 -0.03535125 -0.08054411
v -0.00757814 -0.03535125 -0.08089639
v -0.03604468 -0.04526266 -0.08028790
v -0.02410981 -0.03535125 -0.08057613
v -0.02252471 -0.03535125 -0.08060815
f 1 2 7
f 1 7 11
f 1 11 25
f 1 25 12
f 1 12 8
f 1 8 3
f 1 3 4
f 1 4 5
f 1 5 6
f 1 6 2
f 2 6 7
f 3 8 4
f 4 9 13
f 4 13 27
f 4 27 33
f 4 33 37
f 4 37 48
f 4 48 38
f 4 38 30
f 4 30 24
f 4 24 23
f 4 23 22
f 4 22 21
f 4 21 20
f 4 20 19
f 4 19 18
f 4 18 17
f 4 17 16
f 4 16 10
f 4 10 6
f 4 6 5
f 4 8 12
f 4 12 26
f 4 26 32
f 4 32 43
f 4 43 51
f 4 51 56
f 4 56 60
f 4 60 63
f 4 63 62
f 4 62 59
f 4 59 57
f 4 57 52
f 4 52 44
f 4 44 34
f 4 34 28
f 4 28 14
f 4 14 9
f 6 10 11
f 6 11 7
f 9 14 15
f 9 15 13
f 10 16 11
f 11 16 17
f 11 17 18
f 11 18 19
f 11 19 20
f 11 20 21
f 11 21 22
f 11 22 23
f 11 23 24
f 11 24 30
f 11 30 41
f 11 41 45
f 11 45 54
f 11 54 58
f 11 58 61
f 11 61 55
f 11 55 50
f 11 50 49
f 11 49 42
f 11 42 31
f 11 31 25
f 12 25 26
f 13 15 27
f 14 28 35
f 14 35 47
f 14 47 46
f 14 46 45
f 14 45 41
f 14 41 40
f 14 40 39
f 14 39 36
f 14 36 29
f 14 29 15
f 15 29 27
f 25 31 26
f 26 31 32
f 27 29 33
f 28 34 35
f 29 36 37
f 29 37 33
f 30 38 36
f 30 36 39
f 30 39 40
f 30 40 41
f 31 42 43
f 31 43 32
f 34 44 45
f 34 45 46
f 34 46 47
f 34 47 35
f 36 38 48
f 36 48 37
f 42 49 43
f 43 49 50
f 43 50 51
f 44 52 53
f 44 53 54
f 44 54 45
f 50 55 51
f 51 55 56
f 52 57 53
f 53 58 54
f 53 57 59
f 53 59 58
f 55 60 56
f 55 61 60
f 58 59 62
f 58 62 61
f 60 61 63
f 61 62 63

