# https://github.com/mikedh/trimesh
v -0.00334122 -0.04526590 -0.06669177
v -0.00335408 -0.06035058 -0.06669030
v -0.00334122 -0.06034831 -0.06669177
v -0.00334122 -0.06270267 -0.08104066
v -0.00339907 -0.04526590 -0.08080672
v -0.04869795 -0.04526590 -0.06669030
v -0.00335408 -0.06296326 -0.06669030
v -0.00335408 -0.06524285 -0.06671384
v -0.00334122 -0.06387872 -0.07368230
v -0.00335408 -0.06782154 -0.07645879
v -0.00335408 -0.06667495 -0.07893512
v -0.00335408 -0.06501851 -0.08015931
v -0.00335408 -0.06399882 -0.08072138
v -0.00621418 -0.06408266 -0.08067577
v -0.02000052 -0.06270267 -0.08089206
v -0.00758960 -0.05718952 -0.08171014
v -0.00339907 -0.05718952 -0.08171897
v -0.03651198 -0.04526590 -0.08027849
v -0.06551792 -0.04526590 -0.06669030
v -0.01586140 -0.06533802 -0.06669030
v -0.01999409 -0.06800056 -0.07535526
v -0.00758960 -0.06820676 -0.07648527
v -0.00621418 -0.06809119 -0.07648527
v -0.00340550 -0.06755868 -0.07795518
v -0.00483876 -0.06761760 -0.07809497
v -0.00621418 -0.06765159 -0.07813028
v -0.04064467 -0.06750203 -0.07852755
v -0.00621418 -0.06501398 -0.08015931
v -0.04477736 -0.06713495 -0.07874237
v -0.03829875 -0.06449960 -0.08008721
v -0.03788098 -0.06270267 -0.08051097
v -0.05855727 -0.05764046 -0.08021375
v -0.05994554 -0.05580501 -0.08022111
v -0.06460526 -0.04526590 -0.07897926
v -0.06636631 -0.04526590 -0.07669863
v -0.06900146 -0.05942153 -0.07407663
v -0.06623134 -0.05251479 -0.06669030
v -0.03376757 -0.06510689 -0.06669030
v -0.04615921 -0.06841523 -0.07648527
v -0.01999409 -0.06829513 -0.07648527
v -0.03651198 -0.06837218 -0.07648527
v -0.04339551 -0.06798469 -0.07782276
v -0.04477736 -0.06798243 -0.07780952
v -0.04202009 -0.06749524 -0.07852019
v -0.04615921 -0.06794164 -0.07778303
v -0.04615921 -0.06702618 -0.07865262
v -0.06406538 -0.05838823 -0.07892335
v -0.06406538 -0.05718952 -0.07933387
v -0.06046614 -0.05715554 -0.08001658
v -0.06406538 -0.05581634 -0.07934858
v -0.06539580 -0.05768805 -0.07871294
v -0.06616707 -0.04526590 -0.07807290
v -0.06752321 -0.05787839 -0.07717094
v -0.06740752 -0.06222455 -0.07344835
v -0.06553077 -0.05856725 -0.06669030
v -0.06594854 -0.05718952 -0.06669030
v -0.06607066 -0.05587752 -0.06669030
v -0.06621206 -0.05418256 -0.06669030
v -0.03514299 -0.06505930 -0.06669030
v -0.03830517 -0.06491201 -0.06669030
v -0.04798453 -0.06789178 -0.07541264
v -0.04753463 -0.06834272 -0.07648527
v -0.04798453 -0.06781701 -0.07753437
v -0.06453456 -0.05955748 -0.06669030
f 1 2 7
f 1 7 3
f 1 3 9
f 1 9 4
f 1 4 5
f 1 5 18
f 1 18 34
f 1 34 52
f 1 52 35
f 1 35 19
f 1 19 6
f 1 6 2
f 2 6 19
f 2 19 37
f 2 37 58
f 2 58 57
f 2 57 56
f 2 56 55
f 2 55 64
f 2 64 60
f 2 60 59
f 2 59 38
f 2 38 20
f 2 20 7
f 3 7 8
f 3 8 9
f 4 9 10
f 4 10 11
f 4 11 12
f 4 12 13
f 4 13 14
f 4 14 15
f 4 15 16
f 4 16 17
f 4 17 5
f 5 17 16
f 5 16 18
f 7 20 8
f 8 10 9
f 8 20 21
f 8 21 22
f 8 22 23
f 8 23 10
f 10 24 11
f 10 23 24
f 11 24 25
f 11 25 26
f 11 26 27
f 11 27 12
f 12 27 28
f 12 28 14
f 12 14 13
f 14 28 29
f 14 29 30
f 14 30 15
f 15 30 31
f 15 31 16
f 16 31 32
f 16 32 33
f 16 33 18
f 18 33 34
f 19 35 36
f 19 36 37
f 20 38 39
f 20 39 21
f 21 40 22
f 21 39 41
f 21 41 40
f 22 40 26
f 22 26 25
f 22 25 24
f 22 24 23
f 26 40 42
f 26 42 27
f 27 42 43
f 27 43 44
f 27 44 29
f 27 29 28
f 29 44 45
f 29 45 46
f 29 46 30
f 30 46 32
f 30 32 31
f 32 46 47
f 32 47 48
f 32 48 49
f 32 49 33
f 33 49 48
f 33 48 50
f 33 50 34
f 34 50 51
f 34 51 52
f 35 52 36
f 36 53 54
f 36 54 55
f 36 55 56
f 36 56 57
f 36 57 58
f 36 58 37
f 36 52 53
f 38 59 39
f 39 59 60
f 39 60 61
f 39 61 62
f 39 62 45
f 39 45 43
f 39 43 42
f 39 42 41
f 40 41 42
f 43 45 44
f 45 62 63
f 45 63 46
f 46 63 47
f 47 54 51
f 47 51 48
f 47 63 54
f 48 51 50
f 51 54 53
f 51 53 52
f 54 64 55
f 54 63 62
f 54 62 61
f 54 61 64
f 60 64 61

