# https://github.com/mikedh/trimesh
v 0.06950496 -0.04526364 -0.05443999
v 0.06664483 -0.04526364 -0.04884106
v 0.06921620 -0.04571704 -0.05254188
v 0.06945271 -0.04823879 -0.05443999
v 0.06942245 -0.05099371 -0.05650660
v 0.06937296 -0.05099371 -0.05926633
v 0.06896594 -0.04549034 -0.06893489
v 0.06801164 -0.04526364 -0.07392974
v 0.04140971 -0.04526364 -0.04884106
v 0.06644682 -0.05515201 -0.04884106
v 0.06892469 -0.04928807 -0.05233840
v 0.06914469 -0.04755005 -0.05263727
v 0.06927120 -0.05168245 -0.05443999
v 0.06916670 -0.05332979 -0.05650660
v 0.06905394 -0.05364068 -0.05398215
v 0.06902369 -0.05331467 -0.05914233
v 0.06881193 -0.05318081 -0.06199426
v 0.06834991 -0.05099371 -0.07028296
v 0.06891094 -0.04810061 -0.06846434
v 0.06849842 -0.04571704 -0.07223194
v 0.06817665 -0.05030498 -0.07234958
v 0.06621857 -0.05404011 -0.07733171
v 0.06517627 -0.05513042 -0.07967811
v 0.06501401 -0.04526364 -0.07975759
v 0.04140971 -0.06670499 -0.04957232
v 0.04412408 -0.06685612 -0.04886331
v 0.04617017 -0.06692737 -0.04884106
v 0.04140971 -0.04526364 -0.08069869
v 0.06603155 -0.06141320 -0.04884106
v 0.06883118 -0.05112541 -0.05254506
v 0.06585555 -0.06343621 -0.04884106
v 0.06753587 -0.06102674 -0.05336217
v 0.06562729 -0.06546139 -0.04884106
v 0.06861392 -0.05305991 -0.06408630
v 0.06552004 -0.05994722 -0.07579605
v 0.06830041 -0.05305991 -0.06683649
v 0.06781914 -0.05190914 -0.07290598
v 0.06843516 -0.04823879 -0.07165965
v 0.06488200 -0.06089287 -0.07828234
v 0.06472525 -0.05942042 -0.07950960
v 0.06443649 -0.05800841 -0.08029173
v 0.06334743 -0.05697423 -0.08131868
v 0.06270391 -0.04526364 -0.08069551
v 0.04140971 -0.06327213 -0.08065418
v 0.04141521 -0.06499072 -0.07886736
v 0.05719266 -0.06653874 -0.07845721
v 0.06272591 -0.06732031 -0.04888557
v 0.05811670 -0.04526364 -0.08100392
v 0.04140971 -0.05885691 -0.08106433
v 0.06430998 -0.06270430 -0.07855259
v 0.06486826 -0.06674385 -0.04959457
v 0.06457399 -0.06681942 -0.05237338
v 0.06270391 -0.06270430 -0.08068280
v 0.06059182 -0.06337361 -0.08131232
v 0.06099058 -0.04526364 -0.08086084
v 0.04140971 -0.06069640 -0.08099756
v 0.04350806 -0.06456107 -0.08021861
v 0.05719266 -0.06561468 -0.08000558
v 0.05896374 -0.06630125 -0.07877197
v 0.06270391 -0.06721668 -0.05237338
v 0.06330894 -0.06448335 -0.07872746
v 0.06270391 -0.06544411 -0.07648598
v 0.05913700 -0.06526060 -0.08001512
v 0.05168417 -0.06506412 -0.08022814
f 1 2 3
f 1 3 4
f 1 4 5
f 1 5 6
f 1 6 7
f 1 7 8
f 1 8 24
f 1 24 43
f 1 43 55
f 1 55 48
f 1 48 28
f 1 28 9
f 1 9 2
f 2 9 27
f 2 27 33
f 2 33 31
f 2 31 29
f 2 29 10
f 2 10 3
f 3 10 11
f 3 11 12
f 3 12 4
f 4 13 5
f 4 12 13
f 5 14 6
f 5 13 15
f 5 15 14
f 6 16 17
f 6 17 18
f 6 18 19
f 6 19 7
f 6 14 16
f 7 19 20
f 7 20 8
f 8 20 21
f 8 21 22
f 8 22 23
f 8 23 24
f 9 25 26
f 9 26 27
f 9 28 49
f 9 49 56
f 9 56 44
f 9 44 25
f 10 29 11
f 11 30 15
f 11 15 12
f 11 29 31
f 11 31 30
f 12 15 13
f 14 15 32
f 14 32 16
f 15 30 33
f 15 33 32
f 16 32 17
f 17 34 18
f 17 32 35
f 17 35 34
f 18 34 36
f 18 36 37
f 18 37 21
f 18 21 19
f 19 21 38
f 19 38 20
f 20 38 21
f 21 37 22
f 22 37 39
f 22 39 40
f 22 40 23
f 23 40 41
f 23 41 42
f 23 42 24
f 24 42 43
f 25 44 45
f 25 45 46
f 25 46 26
f 26 46 27
f 27 47 33
f 27 46 47
f 28 48 49
f 30 31 33
f 32 33 50
f 32 50 35
f 33 47 51
f 33 51 52
f 33 52 50
f 34 35 36
f 35 50 39
f 35 39 37
f 35 37 36
f 39 50 40
f 40 50 53
f 40 53 41
f 41 53 42
f 42 54 49
f 42 49 48
f 42 48 55
f 42 55 43
f 42 53 54
f 44 56 54
f 44 54 57
f 44 57 45
f 45 57 46
f 46 57 58
f 46 58 59
f 46 59 60
f 46 60 47
f 47 60 52
f 47 52 51
f 49 54 56
f 50 61 53
f 50 52 61
f 52 60 59
f 52 59 62
f 52 62 61
f 53 61 54
f 54 61 63
f 54 63 58
f 54 58 64
f 54 64 57
f 57 64 58
f 58 63 59
f 59 61 62
f 59 63 61

