# https://github.com/mikedh/trimesh
v -0.04613194 0.02958860 0.02816926
v -0.06270295 0.02958860 0.02748341
v -0.04614166 0.02772401 0.02786243
v -0.04613194 0.02254939 0.02605757
v -0.04613194 0.02958860 -0.06044932
v -0.07057041 0.02958860 0.02272761
v -0.07029577 0.02955473 0.02467686
v -0.06867464 0.02939977 0.02643659
v -0.06821528 0.02411930 0.02423467
v -0.04613437 0.02115899 0.02537173
v -0.04613194 0.02093799 -0.06402294
v -0.04613194 0.02562148 -0.06304831
v -0.06085336 0.02933372 -0.06189320
v -0.06589903 0.02958860 -0.06102687
v -0.07064819 0.02825070 0.02272761
v -0.07067735 0.02958860 -0.00896571
v -0.07093742 0.02825070 -0.00620428
v -0.07060444 0.02687300 0.02330516
v -0.07032493 0.02806102 0.02464076
v -0.06970516 0.02687300 0.02484832
v -0.06916073 0.02549785 0.02451442
v -0.06864790 0.02291519 0.02350370
v -0.06842187 0.02093799 0.02251103
v -0.06367028 0.02093799 -0.06250686
v -0.06545668 0.02274245 -0.06300320
v -0.06100890 0.02334959 -0.06343636
v -0.06110126 0.02600760 -0.06349050
v -0.04613194 0.02411930 -0.06358075
v -0.06291683 0.02932948 -0.06182101
v -0.06697330 0.02958860 -0.05996200
v -0.06655769 0.02764780 -0.06155028
v -0.07096172 0.02687300 -0.00620428
v -0.07069923 0.02411930 0.02134689
v -0.07023258 0.02958860 -0.03366521
v -0.07091311 0.02825070 -0.00758500
v -0.07060687 0.02274245 0.02134689
v -0.07050965 0.02411930 0.02253810
v -0.07035167 0.02528700 0.02350370
v -0.07034438 0.02239020 0.02212298
v -0.06969058 0.02098371 0.02193347
v -0.07019612 0.02093799 -0.00898376
v -0.06552231 0.02093799 -0.06131565
v -0.06601569 0.02411930 -0.06287685
v -0.06209290 0.02449104 -0.06340928
v -0.06662331 0.02254770 -0.06180296
v -0.06675699 0.02549361 -0.06185711
v -0.06713371 0.02825070 -0.05994396
v -0.06745454 0.02958860 -0.05796763
v -0.07020341 0.02825070 -0.03375545
v -0.07011591 0.02687300 -0.03513617
v -0.07005758 0.02549361 -0.03513617
v -0.06985585 0.02274245 -0.03650786
v -0.06968815 0.02115053 -0.03798785
v -0.07082318 0.02549361 -0.00620428
v -0.07058013 0.02104468 0.02043544
v -0.06876943 0.02958860 -0.04695800
v -0.07011105 0.02891880 -0.03513617
v -0.07041972 0.02218105 -0.00758500
v -0.06769272 0.02093799 -0.05640644
v -0.06671081 0.02093799 -0.06000713
v -0.06707781 0.02411930 -0.06132468
v -0.06737433 0.02093799 -0.05822934
v -0.06772918 0.02958860 -0.05580181
v -0.06994092 0.02549361 -0.03650786
f 1 2 3
f 1 3 4
f 1 4 11
f 1 11 28
f 1 28 12
f 1 12 5
f 1 5 14
f 1 14 30
f 1 30 48
f 1 48 63
f 1 63 56
f 1 56 34
f 1 34 16
f 1 16 6
f 1 6 2
f 2 4 3
f 2 6 7
f 2 7 8
f 2 8 9
f 2 9 4
f 4 10 11
f 4 9 10
f 5 12 13
f 5 13 14
f 6 15 7
f 6 16 17
f 6 17 15
f 7 15 18
f 7 18 19
f 7 19 8
f 8 19 20
f 8 20 21
f 8 21 9
f 9 21 22
f 9 22 23
f 9 23 10
f 10 23 11
f 11 24 25
f 11 25 26
f 11 26 27
f 11 27 28
f 11 23 41
f 11 41 59
f 11 59 62
f 11 62 60
f 11 60 42
f 11 42 24
f 12 28 27
f 12 27 13
f 13 27 29
f 13 29 14
f 14 29 27
f 14 27 31
f 14 31 30
f 15 17 32
f 15 32 33
f 15 33 18
f 16 34 35
f 16 35 17
f 17 35 32
f 18 33 36
f 18 36 37
f 18 37 38
f 18 38 19
f 19 38 20
f 20 38 39
f 20 39 40
f 20 40 21
f 21 40 22
f 22 40 23
f 23 40 41
f 24 42 25
f 25 43 44
f 25 44 26
f 25 42 45
f 25 45 43
f 26 44 27
f 27 44 43
f 27 43 31
f 30 31 46
f 30 46 47
f 30 47 48
f 31 43 46
f 32 35 34
f 32 34 49
f 32 49 50
f 32 50 51
f 32 51 52
f 32 52 53
f 32 53 54
f 32 54 55
f 32 55 33
f 33 55 36
f 34 56 57
f 34 57 50
f 34 50 49
f 36 55 37
f 37 55 39
f 37 39 38
f 39 55 40
f 40 55 41
f 41 55 58
f 41 58 53
f 41 53 59
f 42 60 45
f 43 45 61
f 43 61 46
f 45 60 62
f 45 62 61
f 46 61 47
f 47 61 48
f 48 61 63
f 50 52 51
f 50 57 56
f 50 56 59
f 50 59 64
f 50 64 53
f 50 53 52
f 53 64 59
f 53 58 54
f 54 58 55
f 56 63 59
f 59 63 61
f 59 61 62

