# https://github.com/mikedh/trimesh
v -0.02133469 -0.00522124 -0.08152463
v 0.00601158 0.00086487 -0.08108688
v 0.00756741 0.00086487 -0.08108688
v 0.05715791 0.00077640 -0.08096181
v 0.03924478 -0.00640278 -0.08088222
v 0.00892701 -0.00660458 -0.08110962
v -0.01031769 -0.00660458 -0.08108119
v -0.04063545 -0.00640278 -0.08104709
v -0.03926183 0.00086487 -0.08089928
v 0.06497914 0.00086487 -0.07827276
v 0.06384380 0.00082027 -0.07958602
v 0.05854555 0.00077640 -0.08087653
v 0.06352142 -0.00660458 -0.07967698
v -0.06449160 -0.00660458 -0.07868209
v -0.06517841 0.00082027 -0.07839215
v -0.07032248 0.00086487 -0.05405428
v 0.06514734 -0.00068883 -0.07825571
v 0.07135666 0.00086487 -0.02894892
v 0.06911402 0.00082320 -0.05587919
v 0.06617055 -0.00004249 -0.07649901
v 0.06514734 -0.00206924 -0.07827276
v 0.06503521 -0.00660458 -0.07823865
v -0.06969173 -0.00660458 -0.02615186
v -0.07138773 -0.00650368 -0.02732867
v -0.07023838 -0.00640278 -0.05562905
v -0.06646793 -0.00640278 -0.07700499
v -0.06662211 0.00077640 -0.07698793
v -0.07032248 -0.00140389 -0.05760177
v -0.07046264 -0.00096155 -0.05580529
v -0.07138773 0.00064918 -0.02743100
v -0.07039256 0.00086487 -0.02610637
v 0.06603038 -0.00207217 -0.07687991
v 0.06942238 0.00022146 -0.02346281
v 0.07131461 -0.00206924 -0.02826102
v 0.07148281 -0.00206705 -0.02963682
v 0.06925418 0.00068866 -0.05442381
v -0.05246541 0.00086487 -0.02345144
v 0.06917008 -0.00082482 -0.05594741
v 0.06629669 -0.00207217 -0.07619202
v 0.06563791 -0.00660458 -0.07647059
v -0.06819196 -0.00660458 -0.02570273
v -0.06994403 -0.00364414 -0.02604952
v -0.07040657 -0.00068883 -0.02610069
v -0.07171012 -0.00482203 -0.02768683
v -0.07053272 -0.00207217 -0.05457162
v -0.06890681 -0.00138561 -0.06620900
v -0.06707064 -0.00207217 -0.07509480
v -0.06679031 -0.00068883 -0.07647059
v -0.06709867 -0.00068883 -0.07509480
v -0.07168208 -0.00275945 -0.02763566
v -0.05958581 0.00077567 -0.02345144
v -0.05246541 -0.00207217 -0.02345144
v 0.06938033 -0.00207217 -0.02346281
v 0.07128658 -0.00655413 -0.02885227
v 0.07145478 -0.00344600 -0.02964250
v 0.06858139 -0.00660458 -0.05580529
v 0.07127256 -0.00640278 -0.03101829
v 0.07111838 -0.00660458 -0.03239977
v -0.06998608 -0.00207290 -0.02600404
v -0.05630594 -0.00660458 -0.02346281
v -0.05765153 -0.00207217 -0.02345144
v -0.05299804 -0.00660458 -0.02346281
v 0.06895983 -0.00660458 -0.02346849
f 1 2 3
f 1 3 4
f 1 4 5
f 1 5 6
f 1 6 7
f 1 7 8
f 1 8 9
f 1 9 2
f 2 9 16
f 2 16 31
f 2 31 37
f 2 37 18
f 2 18 10
f 2 10 3
f 3 10 11
f 3 11 4
f 4 12 13
f 4 13 5
f 4 11 12
f 5 13 6
f 6 13 22
f 6 22 40
f 6 40 56
f 6 56 58
f 6 58 63
f 6 63 62
f 6 62 60
f 6 60 41
f 6 41 23
f 6 23 14
f 6 14 7
f 7 14 8
f 8 14 15
f 8 15 9
f 9 15 16
f 10 17 11
f 10 18 19
f 10 19 20
f 10 20 17
f 11 17 21
f 11 21 13
f 11 13 12
f 13 21 22
f 14 23 24
f 14 24 25
f 14 25 26
f 14 26 15
f 15 26 27
f 15 27 16
f 16 28 29
f 16 29 30
f 16 30 31
f 16 27 28
f 17 32 21
f 17 20 32
f 18 33 34
f 18 34 35
f 18 35 36
f 18 36 19
f 18 37 33
f 19 36 38
f 19 38 39
f 19 39 20
f 20 39 32
f 21 32 22
f 22 32 39
f 22 39 40
f 23 41 42
f 23 42 24
f 24 43 44
f 24 44 25
f 24 42 43
f 25 44 45
f 25 45 28
f 25 28 46
f 25 46 26
f 26 47 48
f 26 48 27
f 26 46 47
f 27 48 49
f 27 49 46
f 27 46 28
f 28 45 29
f 29 45 50
f 29 50 30
f 30 50 31
f 31 50 43
f 31 43 51
f 31 51 37
f 33 52 53
f 33 53 34
f 33 37 52
f 34 53 54
f 34 54 55
f 34 55 35
f 35 55 38
f 35 38 36
f 37 51 61
f 37 61 52
f 38 56 39
f 38 55 57
f 38 57 58
f 38 58 56
f 39 56 40
f 41 59 42
f 41 60 51
f 41 51 59
f 42 59 43
f 43 50 44
f 43 59 51
f 44 50 45
f 46 49 47
f 47 49 48
f 51 60 61
f 52 61 60
f 52 60 62
f 52 62 63
f 52 63 53
f 53 63 54
f 54 58 57
f 54 57 55
f 54 63 58

