# https://github.com/mikedh/trimesh
v 0.01966638 0.04694754 0.02814269
v 0.02037301 0.04537847 0.02684677
v -0.01010442 0.04568703 0.02683688
v -0.00933891 0.04694754 0.02814269
v -0.01084469 0.04694754 0.03754502
v 0.02070950 0.04680311 0.03754502
v 0.02130676 0.04635668 0.03754502
v 0.02216481 0.04569032 0.03754502
v 0.02278732 0.04515198 0.03754502
v 0.02366219 0.04434446 0.03754502
v 0.03993981 0.02483612 0.03016737
v 0.04179890 0.02228227 0.03016737
v 0.04232046 0.02136972 0.03016737
v 0.04455811 0.01711222 0.03016737
v 0.04592088 0.01431218 0.03016737
v 0.02075156 0.04434446 0.02683688
v 0.02283779 0.02959585 0.02631697
v -0.01575742 0.02959585 0.02631697
v -0.01829791 0.02562065 0.02631697
v -0.03463442 0.01341604 0.02770303
v -0.02328635 0.03971275 0.03747906
v -0.02234418 0.04033315 0.03689211
v -0.02217594 0.04115052 0.03748456
v -0.02112441 0.04235522 0.03754502
v -0.02049350 0.04292639 0.03746917
v -0.01925690 0.04390460 0.03754502
v -0.01843251 0.04441996 0.03754502
v -0.01728845 0.04505350 0.03754502
v -0.01600979 0.04560497 0.03754502
v -0.01437782 0.04615972 0.03754502
v -0.01065963 0.04694754 0.03345829
v -0.02896459 0.02959257 0.03754611
v 0.03273054 0.02947440 0.03754611
v 0.03854338 0.02322109 0.03754611
v 0.02417533 0.04374375 0.03754502
v 0.02487354 0.04281807 0.03754502
v 0.03897240 0.02262038 0.03754611
v 0.03994822 0.02118918 0.03754611
v 0.04056231 0.02023723 0.03754611
v 0.04116799 0.01922620 0.03754611
v 0.04158018 0.01841212 0.03754611
v 0.04217745 0.01723039 0.03754611
v 0.04603866 0.01341276 0.03016737
v 0.04279996 0.01590423 0.03754611
v 0.04330469 0.01447959 0.03754611
v 0.04363277 0.01343245 0.03754611
v 0.02290509 0.02856512 0.02631697
v 0.02179467 0.02562065 0.02631697
v -0.02905713 0.01341604 0.02770303
v -0.02905713 0.01341276 0.03016737
v -0.03545882 0.01341604 0.02874284
v -0.03606449 0.01341604 0.02960240
v -0.03698143 0.01341604 0.03101044
v -0.03717491 0.01376071 0.03173259
v -0.03783947 0.01341604 0.03251960
v -0.03585419 0.02057205 0.03751754
v -0.03457553 0.02234464 0.03754611
v -0.03837785 0.01341604 0.03379574
v 0.02267796 0.02722583 0.02631697
v -0.03990046 0.01350139 0.03754611
v -0.03794883 0.01719100 0.03754611
v -0.03735156 0.01800836 0.03732848
v -0.03880687 0.01564819 0.03754611
v -0.03845356 0.01631784 0.03754611
f 1 2 3
f 1 3 4
f 1 4 31
f 1 31 5
f 1 5 6
f 1 6 7
f 1 7 8
f 1 8 9
f 1 9 10
f 1 10 11
f 1 11 2
f 2 11 12
f 2 12 13
f 2 13 14
f 2 14 15
f 2 15 16
f 2 16 17
f 2 17 3
f 3 18 19
f 3 19 20
f 3 20 21
f 3 21 22
f 3 22 23
f 3 23 24
f 3 24 25
f 3 25 4
f 3 17 18
f 4 25 26
f 4 26 27
f 4 27 28
f 4 28 29
f 4 29 30
f 4 30 31
f 5 31 30
f 5 30 32
f 5 32 33
f 5 33 6
f 6 33 7
f 7 33 8
f 8 33 9
f 9 33 10
f 10 33 34
f 10 34 35
f 10 35 11
f 11 35 36
f 11 36 12
f 12 37 38
f 12 38 39
f 12 39 40
f 12 40 13
f 12 36 37
f 13 40 14
f 14 40 41
f 14 41 42
f 14 42 15
f 15 43 17
f 15 17 16
f 15 42 44
f 15 44 45
f 15 45 46
f 15 46 43
f 17 43 47
f 17 47 59
f 17 59 48
f 17 48 19
f 17 19 18
f 19 48 49
f 19 49 20
f 20 49 43
f 20 43 50
f 20 50 51
f 20 51 21
f 21 24 23
f 21 23 22
f 21 51 52
f 21 52 53
f 21 53 54
f 21 54 55
f 21 55 56
f 21 56 57
f 21 57 24
f 24 57 32
f 24 32 26
f 24 26 25
f 26 32 27
f 27 32 28
f 28 32 29
f 29 32 30
f 32 57 61
f 32 61 64
f 32 64 63
f 32 63 60
f 32 60 46
f 32 46 45
f 32 45 44
f 32 44 42
f 32 42 41
f 32 41 40
f 32 40 39
f 32 39 38
f 32 38 37
f 32 37 34
f 32 34 33
f 34 37 36
f 34 36 35
f 43 46 58
f 43 58 50
f 43 49 48
f 43 48 59
f 43 59 47
f 46 60 58
f 50 58 55
f 50 55 53
f 50 53 52
f 50 52 51
f 53 55 54
f 55 61 62
f 55 62 56
f 55 58 63
f 55 63 64
f 55 64 61
f 56 62 61
f 56 61 57
f 58 60 63

