# https://github.com/mikedh/trimesh
v 0.04140258 -0.04526805 -0.06742535
v 0.04140258 -0.06476241 -0.06742535
v 0.04140258 -0.04526805 -0.08070044
v -0.00333684 -0.04526805 -0.06742535
v 0.03622619 -0.06560125 -0.06742535
v 0.04140258 -0.06513768 -0.07815124
v 0.04140258 -0.05885737 -0.08106568
v 0.03926984 -0.05857039 -0.08192393
v 0.03789472 -0.05857039 -0.08234479
v 0.03620867 -0.05818629 -0.08264089
v 0.02593910 -0.05648211 -0.08270402
v 0.03468466 -0.04526805 -0.08081768
v -0.00314853 -0.04526805 -0.08081467
v -0.00333684 -0.05719071 -0.08171801
v -0.00333684 -0.06522819 -0.06742535
v 0.03513573 -0.06570280 -0.06742535
v 0.03100601 -0.06648425 -0.07803250
v 0.04140258 -0.06448426 -0.07996544
v 0.02962651 -0.06658800 -0.07907712
v 0.03100601 -0.06625467 -0.07945439
v 0.04140258 -0.06069621 -0.08099954
v 0.04140258 -0.06270503 -0.08086277
v 0.03555615 -0.06350193 -0.08136930
v 0.03376062 -0.06357477 -0.08139786
v 0.02824702 -0.05781764 -0.08278068
v 0.02135830 -0.05775141 -0.08277767
v 0.02455523 -0.05649094 -0.08269952
v 0.00483064 -0.04526805 -0.08093041
v 0.00667873 -0.04526805 -0.08093041
v 0.00943772 -0.04526805 -0.08092740
v 0.02411291 -0.04526805 -0.08090335
v 0.02572889 -0.04526805 -0.08090035
v 0.02687190 -0.04526805 -0.08089283
v 0.02986300 -0.04526805 -0.08086578
v 0.01997881 -0.05780439 -0.08275513
v 0.00093302 -0.04526805 -0.08088832
v -0.00333684 -0.06270503 -0.08104013
v -0.00333684 -0.06772044 -0.07608903
v 0.00069654 -0.06534519 -0.06742535
v 0.01211788 -0.06557918 -0.06742535
v 0.00620576 -0.06769396 -0.07662713
v 0.00758525 -0.06766967 -0.07669627
v 0.01860807 -0.06729661 -0.07786415
v 0.03238113 -0.06526351 -0.08032918
v 0.00758525 -0.06766967 -0.07824743
v 0.00620576 -0.06758358 -0.07861418
v 0.03100601 -0.06533415 -0.08035774
v 0.03238113 -0.06427896 -0.08101909
v 0.03100601 -0.06393901 -0.08121899
v 0.03238113 -0.06359023 -0.08139485
v 0.01229743 -0.06339597 -0.08131068
v 0.00207165 -0.04526805 -0.08090486
v 0.00345115 -0.04526805 -0.08092139
v -0.00333684 -0.06408250 -0.08070795
v -0.00333684 -0.06755930 -0.07794381
v 0.00069654 -0.06781758 -0.07715019
v 0.00620576 -0.06775135 -0.07786415
v -0.00333684 -0.06667630 -0.07893584
v -0.00333684 -0.06504717 -0.08013979
v -0.00206245 -0.06504276 -0.08016535
v 0.01033986 -0.06408250 -0.08090035
v -0.00206245 -0.06408250 -0.08072899
f 1 2 6
f 1 6 18
f 1 18 22
f 1 22 21
f 1 21 7
f 1 7 3
f 1 3 12
f 1 12 34
f 1 34 33
f 1 33 32
f 1 32 31
f 1 31 30
f 1 30 29
f 1 29 28
f 1 28 53
f 1 53 52
f 1 52 36
f 1 36 13
f 1 13 4
f 1 4 15
f 1 15 39
f 1 39 40
f 1 40 16
f 1 16 5
f 1 5 2
f 2 5 6
f 3 7 8
f 3 8 9
f 3 9 10
f 3 10 11
f 3 11 12
f 4 13 14
f 4 14 37
f 4 37 54
f 4 54 59
f 4 59 58
f 4 58 55
f 4 55 38
f 4 38 15
f 5 16 17
f 5 17 6
f 6 17 19
f 6 19 20
f 6 20 18
f 7 21 8
f 8 21 22
f 8 22 9
f 9 22 23
f 9 23 10
f 10 23 24
f 10 24 25
f 10 25 11
f 11 25 26
f 11 26 27
f 11 27 28
f 11 28 29
f 11 29 30
f 11 30 31
f 11 31 32
f 11 32 33
f 11 33 34
f 11 34 12
f 13 35 14
f 13 36 27
f 13 27 35
f 14 35 37
f 15 38 39
f 16 40 38
f 16 38 41
f 16 41 42
f 16 42 43
f 16 43 17
f 17 43 19
f 18 23 22
f 18 20 44
f 18 44 23
f 19 43 45
f 19 45 46
f 19 46 20
f 20 46 47
f 20 47 44
f 23 44 48
f 23 48 24
f 24 48 49
f 24 49 50
f 24 50 25
f 25 50 26
f 26 51 35
f 26 35 27
f 26 50 51
f 27 36 52
f 27 52 53
f 27 53 28
f 35 51 37
f 37 51 54
f 38 55 56
f 38 56 41
f 38 40 39
f 41 56 57
f 41 57 42
f 42 57 43
f 43 57 45
f 44 47 48
f 45 57 46
f 46 57 56
f 46 56 55
f 46 55 58
f 46 58 59
f 46 59 60
f 46 60 47
f 47 49 48
f 47 60 61
f 47 61 49
f 49 61 51
f 49 51 50
f 51 61 62
f 51 62 54
f 54 62 60
f 54 60 59
f 60 62 61

