# https://github.com/mikedh/trimesh
v 0.04140258 -0.04526616 -0.00134832
v -0.00333684 -0.04526616 -0.00134832
v 0.03951508 -0.06920628 -0.00134832
v 0.04140258 -0.06632113 -0.00165878
v 0.04140258 -0.04526616 -0.06742385
v -0.00333684 -0.06713716 -0.00134832
v -0.00333684 -0.04526616 -0.06742385
v 0.04140258 -0.06693252 -0.00345037
v 0.03756627 -0.06948166 -0.00134832
v 0.03839397 -0.07070948 -0.00542306
v 0.03953260 -0.07041894 -0.00827538
v 0.04140258 -0.06476235 -0.06742385
v -0.00236025 -0.06913806 -0.00314638
v 0.01422434 -0.06907238 -0.00134832
v -0.00333684 -0.06952461 -0.00477628
v -0.00333684 -0.06522721 -0.06742385
v 0.04140258 -0.06721800 -0.00552008
v 0.02759012 -0.06936797 -0.00134832
v 0.02342535 -0.07044169 -0.00396133
v 0.03169356 -0.07049474 -0.00392252
v 0.03444818 -0.07085854 -0.00483449
v 0.03651523 -0.07094696 -0.00552008
v 0.03789472 -0.07107329 -0.00827538
v 0.03756189 -0.07047958 -0.03720606
v 0.03859104 -0.07029010 -0.02776301
v 0.04140258 -0.06663693 -0.05098258
v 0.04140258 -0.06674051 -0.04854420
v 0.04140258 -0.06728117 -0.03101634
v 0.03567877 -0.06565164 -0.06742385
v 0.04140258 -0.06651314 -0.05305229
v 0.03761882 -0.06922901 -0.05236023
v 0.03695754 -0.06924923 -0.05463045
v 0.00000460 -0.06962819 -0.00414243
v 0.01997881 -0.07037347 -0.00402601
v 0.02411291 -0.06931239 -0.00134832
v 0.01378641 -0.07050990 -0.03135913
v 0.02480047 -0.07076001 -0.00586288
v -0.00333684 -0.06836246 -0.04406845
v 0.00109068 -0.06535100 -0.06742385
v 0.01387838 -0.06901680 -0.05483095
v 0.01309447 -0.06926438 -0.05305229
v -0.00333684 -0.06767275 -0.05342096
v 0.02585151 -0.06934523 -0.00134832
v 0.02549241 -0.07060843 -0.00438174
v 0.03169356 -0.07083580 -0.00483449
v 0.03444818 -0.07099496 -0.00620567
v 0.03238113 -0.07095202 -0.00620567
v 0.03479414 -0.07081559 -0.03307958
v 0.03582767 -0.07071454 -0.03582842
v 0.03651523 -0.07064127 -0.03789166
v 0.03743927 -0.07041137 -0.03996137
v 0.01211788 -0.06557838 -0.06742385
v 0.03582767 -0.06965598 -0.05340156
v 0.03169356 -0.06955745 -0.05443641
v 0.03732979 -0.07035074 -0.04202461
v 0.03651523 -0.07005767 -0.04822728
v 0.01332220 -0.07034821 -0.03445076
v 0.01309447 -0.06955745 -0.05098258
v -0.00333684 -0.06808456 -0.04881585
v 0.02962651 -0.06950692 -0.05443641
v -0.00333684 -0.06793297 -0.05098258
v 0.03513573 -0.07001725 -0.04960493
v 0.03687434 -0.07028505 -0.04420428
v 0.03582767 -0.06985556 -0.05132538
f 1 2 6
f 1 6 14
f 1 14 35
f 1 35 43
f 1 43 18
f 1 18 9
f 1 9 3
f 1 3 4
f 1 4 8
f 1 8 17
f 1 17 28
f 1 28 27
f 1 27 26
f 1 26 30
f 1 30 12
f 1 12 5
f 1 5 7
f 1 7 2
f 2 7 16
f 2 16 42
f 2 42 61
f 2 61 59
f 2 59 38
f 2 38 15
f 2 15 6
f 3 8 4
f 3 9 10
f 3 10 11
f 3 11 8
f 5 12 29
f 5 29 52
f 5 52 39
f 5 39 16
f 5 16 7
f 6 13 14
f 6 15 13
f 8 11 17
f 9 18 19
f 9 19 20
f 9 20 21
f 9 21 22
f 9 22 10
f 10 22 23
f 10 23 11
f 11 23 24
f 11 24 25
f 11 25 26
f 11 26 27
f 11 27 28
f 11 28 17
f 12 30 31
f 12 31 32
f 12 32 29
f 13 33 34
f 13 34 14
f 13 15 33
f 14 34 19
f 14 19 35
f 15 36 37
f 15 37 33
f 15 38 36
f 16 39 40
f 16 40 41
f 16 41 42
f 18 43 19
f 19 34 44
f 19 44 45
f 19 45 21
f 19 21 20
f 19 43 35
f 21 45 22
f 22 45 46
f 22 46 23
f 23 46 47
f 23 47 36
f 23 36 48
f 23 48 49
f 23 49 50
f 23 50 24
f 24 50 51
f 24 51 25
f 25 51 30
f 25 30 26
f 29 32 53
f 29 53 54
f 29 54 52
f 30 51 55
f 30 55 31
f 31 55 56
f 31 56 32
f 32 56 53
f 33 37 34
f 34 37 44
f 36 47 37
f 36 38 57
f 36 57 58
f 36 58 50
f 36 50 48
f 37 45 44
f 37 47 45
f 38 59 58
f 38 58 57
f 39 52 54
f 39 54 60
f 39 60 40
f 40 60 41
f 41 60 58
f 41 58 42
f 42 58 61
f 45 47 46
f 48 50 49
f 50 58 62
f 50 62 63
f 50 63 55
f 50 55 51
f 53 56 64
f 53 64 54
f 54 64 62
f 54 62 58
f 54 58 60
f 55 63 56
f 56 63 62
f 56 62 64
f 58 59 61

