# https://github.com/mikedh/trimesh
v -0.06132549 0.02958944 -0.06175758
v -0.06110541 0.02958944 -0.06174969
v -0.06270370 0.02958944 -0.06158019
v -0.06303772 0.03967339 -0.05918939
v -0.05999878 0.02958944 -0.06162553
v -0.06303772 0.02958944 -0.06151909
v -0.06303772 0.04029306 -0.05896864
v -0.05147820 0.02958944 -0.05989106
v -0.06723168 0.04569525 -0.05204851
v -0.06742366 0.04569525 -0.05150452
v -0.06303772 0.02958944 -0.04162200
v -0.06488106 0.04569525 -0.05475073
v -0.06420210 0.04569525 -0.05524939
v -0.06408348 0.04572185 -0.05526713
v -0.06315791 0.04571996 -0.05528092
v -0.05213375 0.04706385 -0.05252943
v -0.05147820 0.04569145 -0.05301824
v -0.05147820 0.02958944 -0.04162200
v -0.06695853 0.04596896 -0.05178045
v -0.06367298 0.04694409 -0.05393671
v -0.06411157 0.04643087 -0.05441172
v -0.06742366 0.04569525 -0.05093687
v -0.06303772 0.04215018 -0.04162200
v -0.06723323 0.04569525 -0.04993759
v -0.06740805 0.04569525 -0.05047172
v -0.06270526 0.04695360 -0.05392489
v -0.05213375 0.04775386 -0.05167993
v -0.05213375 0.04825947 -0.05103937
v -0.05213375 0.04851799 -0.05030419
v -0.05213375 0.04891337 -0.04898757
v -0.05213375 0.04900841 -0.04754875
v -0.05147820 0.04569145 -0.04162200
v -0.06542891 0.04670269 -0.05164051
v -0.06696165 0.04593665 -0.05020366
v -0.06494662 0.04687947 -0.05115171
v -0.05354942 0.04569145 -0.04162200
v -0.05213375 0.04693840 -0.04238083
v -0.06590497 0.04569525 -0.04849088
v -0.06655115 0.04569525 -0.04893041
v -0.06655896 0.04569525 -0.04893830
v -0.06494662 0.04687947 -0.05094081
v -0.05213375 0.04892857 -0.04720777
v -0.05213375 0.04868336 -0.04628535
v -0.05213375 0.04862634 -0.04608234
v -0.06542891 0.04658484 -0.05041062
f 1 2 5
f 1 5 8
f 1 8 18
f 1 18 11
f 1 11 6
f 1 6 3
f 1 3 4
f 1 4 2
f 2 4 5
f 3 6 4
f 4 7 8
f 4 8 5
f 4 6 9
f 4 9 7
f 6 10 9
f 6 11 22
f 6 22 10
f 7 9 12
f 7 12 13
f 7 13 14
f 7 14 15
f 7 15 16
f 7 16 17
f 7 17 8
f 8 17 32
f 8 32 18
f 9 10 19
f 9 19 20
f 9 20 21
f 9 21 12
f 10 22 19
f 11 18 32
f 11 32 36
f 11 36 23
f 11 23 24
f 11 24 25
f 11 25 22
f 12 21 13
f 13 21 14
f 14 21 20
f 14 20 15
f 15 20 26
f 15 26 16
f 16 26 27
f 16 27 17
f 17 27 28
f 17 28 29
f 17 29 30
f 17 30 31
f 17 31 32
f 19 33 20
f 19 22 25
f 19 25 34
f 19 34 33
f 20 33 35
f 20 35 31
f 20 31 30
f 20 30 29
f 20 29 28
f 20 28 26
f 23 36 37
f 23 37 38
f 23 38 39
f 23 39 40
f 23 40 24
f 24 40 34
f 24 34 25
f 26 28 27
f 31 35 41
f 31 41 42
f 31 42 32
f 32 42 43
f 32 43 44
f 32 44 37
f 32 37 36
f 33 34 41
f 33 41 35
f 34 40 45
f 34 45 41
f 37 44 38
f 38 44 39
f 39 44 45
f 39 45 40
f 41 45 44
f 41 44 43
f 41 43 42

