# https://github.com/mikedh/trimesh
v 0.06132585 0.04569457 -0.07924244
v 0.06090636 0.04569457 -0.08033073
v 0.06132262 0.04569457 -0.07877063
v 0.06501417 0.04298936 -0.07952552
v 0.06501417 0.04298936 -0.08015369
v 0.06015772 0.04569457 -0.08101911
v 0.06130972 0.04569457 -0.07786747
v 0.06522713 0.04211758 -0.07913640
v 0.06563050 0.04065462 -0.07924244
v 0.06074179 0.04569457 -0.07373268
v 0.06074179 0.04568827 -0.07372549
v 0.06514647 0.04203088 -0.08024176
v 0.05947040 0.04569457 -0.08140375
v 0.06525295 0.04065462 -0.07823233
v 0.06503030 0.04171716 -0.07842016
v 0.06559500 0.03927680 -0.07924244
v 0.06514969 0.04065462 -0.08020761
v 0.06531749 0.03927680 -0.07804091
v 0.06529813 0.03100983 -0.07786567
v 0.06027712 0.04569457 -0.07372549
v 0.06333619 0.03848541 -0.07372459
v 0.06363952 0.03780123 -0.07372459
v 0.05304570 0.04569457 -0.07372369
v 0.05762786 0.02963201 -0.08257741
v 0.05697280 0.03514489 -0.08290453
v 0.05857011 0.04203088 -0.08213616
v 0.05857011 0.04569457 -0.08161403
v 0.06390735 0.03651326 -0.07372459
v 0.06526263 0.02963201 -0.07786567
v 0.06512065 0.02963201 -0.07899890
v 0.06446559 0.02963201 -0.07968728
v 0.06377505 0.02958944 -0.08017616
v 0.06398802 0.03376076 -0.07372459
v 0.06402997 0.02962570 -0.07372459
v 0.06402997 0.02958944 -0.07372459
v 0.06525295 0.02958944 -0.07783512
v 0.03266802 0.04569457 -0.07372369
v 0.05304570 0.02958944 -0.07372369
v 0.05761495 0.02958944 -0.08257202
v 0.05693085 0.02958944 -0.08277602
v 0.05694053 0.02963201 -0.08277692
v 0.05675338 0.03606712 -0.08282544
v 0.05719223 0.04203088 -0.08225928
v 0.05684696 0.03101141 -0.08281016
v 0.05615963 0.03514489 -0.08290453
v 0.05766335 0.04569457 -0.08167514
v 0.06525941 0.02958944 -0.07786567
v 0.06511742 0.02958944 -0.07899441
v 0.06446237 0.02958944 -0.07968369
v 0.03266802 0.04569457 -0.08061920
v 0.03266802 0.02958944 -0.07372369
v 0.05635970 0.02958944 -0.08277602
v 0.05623708 0.03606712 -0.08282544
v 0.03652413 0.04569457 -0.08082230
v 0.05719223 0.04569457 -0.08169402
v 0.05633388 0.03101141 -0.08281016
v 0.05635647 0.02963201 -0.08277692
v 0.03266802 0.02958944 -0.08088072
f 1 2 6
f 1 6 13
f 1 13 27
f 1 27 46
f 1 46 55
f 1 55 54
f 1 54 50
f 1 50 37
f 1 37 23
f 1 23 20
f 1 20 10
f 1 10 7
f 1 7 3
f 1 3 4
f 1 4 5
f 1 5 2
f 2 5 6
f 3 7 4
f 4 8 9
f 4 9 5
f 4 7 10
f 4 10 11
f 4 11 8
f 5 9 12
f 5 12 13
f 5 13 6
f 8 14 9
f 8 11 15
f 8 15 14
f 9 16 17
f 9 17 12
f 9 14 18
f 9 18 19
f 9 19 29
f 9 29 16
f 10 20 11
f 11 21 22
f 11 22 15
f 11 20 23
f 11 23 21
f 12 17 24
f 12 24 25
f 12 25 26
f 12 26 13
f 13 26 27
f 14 15 22
f 14 22 28
f 14 28 18
f 16 29 30
f 16 30 17
f 17 30 31
f 17 31 32
f 17 32 24
f 18 28 33
f 18 33 34
f 18 34 19
f 19 34 35
f 19 35 36
f 19 36 29
f 21 23 22
f 22 23 28
f 23 37 51
f 23 51 38
f 23 38 35
f 23 35 34
f 23 34 33
f 23 33 28
f 24 39 40
f 24 40 41
f 24 41 25
f 24 32 39
f 25 42 43
f 25 43 26
f 25 41 44
f 25 44 56
f 25 56 45
f 25 45 53
f 25 53 42
f 26 43 27
f 27 43 46
f 29 36 47
f 29 47 30
f 30 48 49
f 30 49 31
f 30 47 48
f 31 49 32
f 32 49 48
f 32 48 47
f 32 47 36
f 32 36 35
f 32 35 38
f 32 38 51
f 32 51 58
f 32 58 52
f 32 52 40
f 32 40 39
f 37 50 58
f 37 58 51
f 40 52 56
f 40 56 44
f 40 44 41
f 42 53 43
f 43 53 54
f 43 54 55
f 43 55 46
f 45 56 52
f 45 52 57
f 45 57 58
f 45 58 50
f 45 50 53
f 50 54 53
f 52 58 57

