# https://github.com/mikedh/trimesh
v 0.03266704 0.03812044 0.02354213
v 0.03266704 0.04569615 0.02284624
v 0.02075694 0.04435010 0.02682123
v 0.02100488 0.04345199 0.02682123
v 0.02171655 0.04073541 0.02682123
v 0.02187265 0.03955622 0.02683177
v 0.02190938 0.03927960 0.02683177
v 0.02190938 0.03812118 0.02683177
v 0.02274961 0.03812044 0.02384789
v 0.03266704 0.03812044 -0.08070387
v 0.02025189 0.04569615 0.02682123
v 0.02050442 0.04503907 0.02682123
v 0.03266704 0.04569615 -0.08060897
v -0.01011106 0.04569615 0.02682123
v -0.01253992 0.03888802 0.02682123
v -0.01264093 0.03812118 0.02682123
v 0.02187265 0.03812118 0.02683177
v -0.01423873 0.03812118 0.02389007
v 0.02274961 0.03812044 -0.08079876
v 0.03216658 0.03812044 -0.08071441
v 0.03100495 0.04569615 -0.08067224
v -0.01423873 0.04569615 0.02579849
v -0.01423873 0.03812118 -0.08074604
v -0.01330668 0.03812118 -0.08079876
v -0.01170428 0.03812118 -0.08085148
v 0.00459979 0.03812118 -0.08086202
v 0.00598181 0.03812118 -0.08086202
v 0.00619760 0.04341120 -0.08088311
v 0.02549527 0.03812044 -0.08078822
v 0.02940715 0.03812044 -0.08074604
v 0.00619760 0.04478840 -0.08086202
v 0.00619760 0.04569615 -0.08083039
v -0.01423873 0.04569615 -0.08063006
v -0.01423873 0.04341120 -0.08068278
v -0.01423873 0.04478840 -0.08066169
f 1 2 3
f 1 3 4
f 1 4 5
f 1 5 6
f 1 6 7
f 1 7 8
f 1 8 9
f 1 9 19
f 1 19 29
f 1 29 30
f 1 30 20
f 1 20 10
f 1 10 13
f 1 13 2
f 2 11 12
f 2 12 3
f 2 13 21
f 2 21 32
f 2 32 33
f 2 33 22
f 2 22 14
f 2 14 11
f 3 12 6
f 3 6 4
f 4 6 5
f 6 12 11
f 6 11 14
f 6 14 15
f 6 15 16
f 6 16 17
f 6 17 8
f 6 8 7
f 8 17 9
f 9 16 18
f 9 18 23
f 9 23 19
f 9 17 16
f 10 20 21
f 10 21 13
f 14 22 15
f 15 22 16
f 16 22 18
f 18 22 33
f 18 33 35
f 18 35 34
f 18 34 23
f 19 23 24
f 19 24 25
f 19 25 26
f 19 26 27
f 19 27 28
f 19 28 29
f 20 30 21
f 21 30 29
f 21 29 28
f 21 28 31
f 21 31 32
f 23 34 24
f 24 34 35
f 24 35 25
f 25 31 28
f 25 28 26
f 25 35 31
f 26 28 27
f 31 35 33
f 31 33 32

