# https://github.com/mikedh/trimesh
v 0.01527991 0.04290724 0.05338658
v 0.00095488 0.04157416 0.05659386
v 0.00095488 0.04817138 0.05707396
v 0.00095488 0.05111262 0.05761372
v 0.01919844 0.04696291 0.05338658
v 0.03227862 0.04145190 0.05338658
v 0.00095488 0.04145190 0.08036583
v 0.00095488 0.05522707 0.05943468
v 0.02343586 0.04768940 0.05338658
v 0.03139863 0.04427559 0.05338658
v 0.03227862 0.04694175 0.05695465
v 0.03227862 0.04145190 0.08005618
v 0.00095488 0.05650137 0.08222940
v 0.03227862 0.04576854 0.08196521
v 0.00095488 0.05769104 0.06119599
v 0.02469297 0.05484619 0.06212777
v 0.02659092 0.04682890 0.05338658
v 0.00275471 0.06137993 0.06484075
v 0.00731713 0.06143401 0.06549983
v 0.01171705 0.06039482 0.06506518
v 0.01500396 0.05938384 0.06463054
v 0.01813449 0.05849512 0.06440043
v 0.03111348 0.05174742 0.06163915
v 0.03227862 0.04931637 0.05959945
v 0.01051206 0.06299044 0.08220952
v 0.00137495 0.06432823 0.08173794
v 0.00095488 0.06540739 0.07559609
v 0.02876482 0.05615811 0.08240837
v 0.02273677 0.05925923 0.08235440
v 0.03195974 0.05409148 0.08226633
v 0.00124310 0.06350533 0.06772703
v 0.02144286 0.05863383 0.06576402
v 0.02325189 0.05672473 0.06399703
v 0.02869123 0.05405386 0.06315899
v 0.00986510 0.06273417 0.06797418
v 0.01348009 0.06150924 0.06704239
v 0.03117787 0.05439007 0.06530097
v 0.03146302 0.05621689 0.06882359
v 0.03154581 0.05742066 0.08002777
v 0.01904820 0.06151629 0.08187146
v 0.01530444 0.06328198 0.08111012
v 0.00537013 0.06488779 0.08062150
v 0.00123390 0.06547087 0.07855338
v 0.00293255 0.06481725 0.07146838
v 0.00920588 0.06486898 0.07985732
v 0.00855279 0.06439406 0.07144566
v 0.02554536 0.05947083 0.08180612
v 0.00566448 0.06381098 0.06900539
v 0.02365355 0.05928039 0.06802247
v 0.02633030 0.05794025 0.06742874
v 0.02812399 0.05644965 0.06623276
v 0.01727904 0.06113541 0.06790316
v 0.01385109 0.06362760 0.07211893
v 0.03134038 0.05756878 0.07314731
v 0.02726547 0.05849512 0.06970424
v 0.03069955 0.05810248 0.07648527
v 0.02962947 0.05866910 0.07648527
v 0.02838768 0.05917459 0.07863861
v 0.02339906 0.06130705 0.07924086
v 0.01923830 0.06282587 0.07721820
v 0.02088482 0.06094027 0.06954799
v 0.01931496 0.06237445 0.07243426
v 0.02744637 0.05945202 0.07343139
v 0.02419932 0.06072162 0.07285755
f 1 2 3
f 1 3 4
f 1 4 5
f 1 5 9
f 1 9 17
f 1 17 10
f 1 10 6
f 1 6 2
f 2 7 13
f 2 13 27
f 2 27 15
f 2 15 8
f 2 8 4
f 2 4 3
f 2 6 7
f 4 8 5
f 5 8 9
f 6 10 11
f 6 11 24
f 6 24 14
f 6 14 12
f 6 12 7
f 7 12 14
f 7 14 13
f 8 15 9
f 9 16 17
f 9 15 18
f 9 18 19
f 9 19 20
f 9 20 21
f 9 21 22
f 9 22 16
f 10 23 24
f 10 24 11
f 10 17 23
f 13 25 26
f 13 26 27
f 13 14 28
f 13 28 29
f 13 29 25
f 14 24 30
f 14 30 28
f 15 27 31
f 15 31 18
f 16 22 32
f 16 32 33
f 16 33 34
f 16 34 17
f 17 34 23
f 18 31 19
f 19 31 35
f 19 35 36
f 19 36 20
f 20 36 21
f 21 36 22
f 22 36 32
f 23 37 24
f 23 34 37
f 24 37 38
f 24 38 39
f 24 39 30
f 25 29 40
f 25 40 41
f 25 41 42
f 25 42 26
f 26 42 43
f 26 43 27
f 27 44 31
f 27 43 45
f 27 45 46
f 27 46 44
f 28 30 47
f 28 47 29
f 29 47 40
f 30 39 47
f 31 44 48
f 31 48 35
f 32 49 50
f 32 50 51
f 32 51 33
f 32 36 52
f 32 52 49
f 33 51 34
f 34 51 37
f 35 46 53
f 35 53 52
f 35 52 36
f 35 48 46
f 37 51 38
f 38 54 39
f 38 51 50
f 38 50 55
f 38 55 54
f 39 54 56
f 39 56 57
f 39 57 58
f 39 58 59
f 39 59 47
f 40 47 41
f 41 47 59
f 41 59 60
f 41 60 45
f 41 45 42
f 42 45 43
f 44 46 48
f 45 60 53
f 45 53 46
f 49 52 61
f 49 61 55
f 49 55 50
f 52 53 61
f 53 60 62
f 53 62 61
f 54 57 56
f 54 55 63
f 54 63 57
f 55 61 64
f 55 64 63
f 57 63 59
f 57 59 58
f 59 63 64
f 59 64 60
f 60 64 62
f 61 62 64

