# https://github.com/mikedh/trimesh
v 0.04717925 -0.03311415 0.08216742
v 0.05098462 -0.03859123 0.08225862
v 0.05484382 -0.03509234 0.08117262
v 0.05404184 -0.03387772 0.06885085
v 0.04329853 -0.03339767 0.06042816
v 0.01618188 -0.03311415 0.05445104
v 0.00096039 -0.03311415 0.08053429
v 0.00096039 -0.05719074 0.08199057
v 0.00741392 -0.06270326 0.08217571
v 0.04981125 -0.04277636 0.08037678
v 0.05327215 -0.03880065 0.08005899
v 0.02557421 -0.05926236 0.08187174
v 0.03536483 -0.05490969 0.08068074
v 0.04532232 -0.04742221 0.08038507
v 0.05594722 -0.03487970 0.07444663
v 0.05236791 -0.03819817 0.07087638
v 0.04587132 -0.04074662 0.06567576
v 0.04953137 -0.03554340 0.06518388
v 0.04330391 -0.03840436 0.06266371
v 0.03789457 -0.04204501 0.06208894
v 0.03756625 -0.03575604 0.05936704
v 0.00781222 -0.05125616 0.05906583
v 0.00236520 -0.05293795 0.05904649
v 0.00266662 -0.03311415 0.05402825
v 0.03333028 -0.04133299 0.06039224
v 0.00234905 -0.06399842 0.07019660
v 0.00286039 -0.06602494 0.07631465
v 0.00298956 -0.06432383 0.08157330
v 0.01318387 -0.06315431 0.08189109
v 0.04847103 -0.04373646 0.07169433
v 0.02042861 -0.06210400 0.08120025
v 0.03023539 -0.05842791 0.07942066
v 0.03403000 -0.05651416 0.07470915
v 0.03990222 -0.05168145 0.08033533
v 0.03892800 -0.05284451 0.07304561
v 0.04313167 -0.04840808 0.07068295
v 0.04239966 -0.04397165 0.06551825
v 0.03460591 -0.04611738 0.06310309
v 0.01105782 -0.05651094 0.06339047
v 0.02979941 -0.04497041 0.06116045
v 0.01703230 -0.05079222 0.06095597
v 0.01913145 -0.05495158 0.06416974
v 0.00616519 -0.05600834 0.06207236
v 0.00260203 -0.05888219 0.06433001
v 0.00951306 -0.06001949 0.06629751
v 0.01074025 -0.06301899 0.07000317
v 0.00708559 -0.06509706 0.07292679
v 0.00831278 -0.06513250 0.07975502
v 0.01185980 -0.06468145 0.07372263
v 0.01259719 -0.06498107 0.07851980
v 0.02495523 -0.06144031 0.07724314
v 0.03287816 -0.05544130 0.07037898
v 0.02297450 -0.06128566 0.07318378
v 0.03732404 -0.05201973 0.06929851
v 0.03865349 -0.04885914 0.06688335
v 0.03203312 -0.05081155 0.06531929
v 0.02301218 -0.05233869 0.06341258
v 0.01624109 -0.05953622 0.06739456
v 0.02668299 -0.05352432 0.06538561
v 0.02384645 -0.05749681 0.06789197
v 0.01942748 -0.06105369 0.07046741
v 0.01710766 -0.06381156 0.07608530
v 0.02866910 -0.05750648 0.07052544
v 0.02888978 -0.05492258 0.06740009
f 1 2 3
f 1 3 4
f 1 4 5
f 1 5 6
f 1 6 24
f 1 24 7
f 1 7 8
f 1 8 9
f 1 9 2
f 2 10 11
f 2 11 3
f 2 9 12
f 2 12 13
f 2 13 14
f 2 14 10
f 3 11 15
f 3 15 4
f 4 15 16
f 4 16 17
f 4 17 18
f 4 18 5
f 5 18 19
f 5 19 20
f 5 20 21
f 5 21 6
f 6 22 23
f 6 23 24
f 6 21 25
f 6 25 22
f 7 24 23
f 7 23 8
f 8 23 26
f 8 26 27
f 8 27 28
f 8 28 9
f 9 28 29
f 9 29 12
f 10 14 30
f 10 30 11
f 11 30 15
f 12 29 31
f 12 31 32
f 12 32 13
f 13 32 33
f 13 33 34
f 13 34 14
f 14 34 35
f 14 35 30
f 15 30 16
f 16 30 17
f 17 30 36
f 17 36 37
f 17 37 19
f 17 19 18
f 19 37 20
f 20 38 25
f 20 25 21
f 20 37 38
f 22 39 23
f 22 25 40
f 22 40 41
f 22 41 42
f 22 42 39
f 23 39 43
f 23 43 44
f 23 44 26
f 25 38 40
f 26 44 45
f 26 45 46
f 26 46 47
f 26 47 27
f 27 48 28
f 27 47 49
f 27 49 50
f 27 50 48
f 28 48 29
f 29 50 31
f 29 48 50
f 30 35 36
f 31 51 32
f 31 50 51
f 32 51 33
f 33 52 35
f 33 35 34
f 33 51 53
f 33 53 52
f 35 52 54
f 35 54 36
f 36 54 55
f 36 55 37
f 37 55 38
f 38 55 56
f 38 56 57
f 38 57 40
f 39 45 43
f 39 42 58
f 39 58 45
f 40 57 41
f 41 57 42
f 42 57 59
f 42 59 60
f 42 60 58
f 43 45 44
f 45 58 46
f 46 58 61
f 46 61 49
f 46 49 47
f 49 61 53
f 49 53 62
f 49 62 50
f 50 62 51
f 51 62 53
f 52 53 63
f 52 63 64
f 52 64 54
f 53 61 63
f 54 64 55
f 55 64 56
f 56 64 59
f 56 59 57
f 58 60 61
f 59 64 60
f 60 64 63
f 60 63 61

