# https://github.com/mikedh/trimesh
v 0.03266710 0.02960364 0.02469970
v 0.03266710 0.03100963 0.02465691
v 0.02189377 0.03811896 0.02681809
v 0.02277507 0.02961198 0.02681809
v 0.02128427 0.02958944 0.02681809
v 0.03266710 0.02961031 -0.08085576
v 0.03266710 0.03238892 0.02451782
v -0.04478884 0.03019309 0.02812335
v 0.03266710 0.03811896 0.02352282
v -0.01262535 0.03811896 0.02681809
v -0.04615610 0.02961198 0.02814475
v -0.01585405 0.02958944 0.02681809
v 0.00072600 0.02958944 -0.08115533
v 0.02826058 0.02961031 -0.08091995
v 0.03099509 0.03100963 -0.08085576
v 0.03237058 0.03100963 -0.08083436
v 0.03266710 0.03238892 -0.08080226
v -0.04615610 0.03066231 0.02781308
v -0.04753159 0.03055544 0.02771680
v 0.03259297 0.03576115 -0.08073807
v 0.03241177 0.03811896 -0.08069527
v -0.05147687 0.03127430 0.02639013
v -0.03572870 0.03811896 0.02265621
v -0.04927772 0.03035673 0.02757771
v -0.05147687 0.02962284 0.02720325
v -0.03780430 0.02958944 0.02525605
v -0.01170286 0.02961031 -0.08109113
v -0.01170286 0.03100963 -0.08106974
v -0.00000705 0.03238892 -0.08109113
v 0.01306426 0.03652009 -0.08097345
v 0.00619502 0.03100963 -0.08110183
v 0.00621150 0.02961031 -0.08112323
v 0.02136664 0.02961031 -0.08100554
v 0.02325279 0.02961031 -0.08098415
v -0.03784548 0.02959111 -0.08044920
v 0.03237058 0.03376570 -0.08078086
v 0.02881242 0.03811896 -0.08073807
v -0.05147687 0.03304934 0.02340513
v -0.03731010 0.03811896 0.02054852
v -0.05147687 0.03614104 0.01688950
v -0.05147687 0.02959195 -0.05987519
v -0.03780430 0.03811896 -0.08036361
v -0.01170286 0.03376570 -0.08100554
v -0.02983961 0.03811896 -0.08053479
v -0.01170286 0.03652009 -0.08094135
v -0.00069068 0.03376570 -0.08104834
v 0.01032974 0.03652009 -0.08097345
v 0.01997467 0.02963119 -0.08101624
v 0.00598088 0.03811896 -0.08084506
v 0.01306426 0.03789854 -0.08084506
v 0.02134193 0.03800875 -0.08080226
v 0.02298922 0.03800875 -0.08079156
v -0.03973163 0.02960196 -0.08026732
v -0.04076119 0.02959278 -0.07922952
v -0.03771369 0.03811896 0.01804498
v -0.03780430 0.03811896 0.01627966
v -0.05147687 0.03614104 -0.05644084
v -0.04764690 0.03614104 -0.06833803
v -0.03973163 0.03100963 -0.08024592
v -0.03972340 0.03238892 -0.08020312
v -0.04006109 0.03426581 -0.07998915
v -0.04017640 0.03614020 -0.07961468
v -0.01031913 0.03811896 -0.08084506
v -0.01180994 0.03800875 -0.08084506
f 1 2 3
f 1 3 4
f 1 4 5
f 1 5 6
f 1 6 17
f 1 17 9
f 1 9 7
f 1 7 2
f 2 7 3
f 3 8 4
f 3 7 9
f 3 9 21
f 3 21 37
f 3 37 49
f 3 49 63
f 3 63 44
f 3 44 42
f 3 42 56
f 3 56 55
f 3 55 39
f 3 39 23
f 3 23 10
f 3 10 8
f 4 8 11
f 4 11 5
f 5 11 12
f 5 12 26
f 5 26 13
f 5 13 6
f 6 13 14
f 6 14 15
f 6 15 16
f 6 16 17
f 8 10 18
f 8 18 19
f 8 19 11
f 9 17 20
f 9 20 21
f 10 22 19
f 10 19 18
f 10 23 22
f 11 19 24
f 11 24 25
f 11 25 26
f 11 26 12
f 13 27 28
f 13 28 29
f 13 29 30
f 13 30 31
f 13 31 32
f 13 32 33
f 13 33 34
f 13 34 14
f 13 26 35
f 13 35 27
f 14 34 21
f 14 21 15
f 15 21 36
f 15 36 16
f 16 36 17
f 17 36 20
f 19 22 24
f 20 36 21
f 21 34 30
f 21 30 37
f 22 25 24
f 22 23 38
f 22 38 40
f 22 40 57
f 22 57 41
f 22 41 25
f 23 39 40
f 23 40 38
f 25 41 26
f 26 41 35
f 27 35 42
f 27 42 28
f 28 43 29
f 28 42 44
f 28 44 43
f 29 43 45
f 29 45 46
f 29 46 47
f 29 47 30
f 30 34 33
f 30 33 48
f 30 48 32
f 30 32 31
f 30 47 63
f 30 63 49
f 30 49 50
f 30 50 51
f 30 51 52
f 30 52 37
f 32 48 33
f 35 53 42
f 35 41 54
f 35 54 53
f 37 52 51
f 37 51 49
f 39 55 40
f 40 55 56
f 40 56 42
f 40 42 57
f 41 57 58
f 41 58 54
f 42 53 59
f 42 59 60
f 42 60 61
f 42 61 62
f 42 62 58
f 42 58 57
f 43 44 45
f 44 63 64
f 44 64 45
f 45 47 46
f 45 64 63
f 45 63 47
f 49 51 50
f 53 54 61
f 53 61 59
f 54 58 61
f 58 62 61
f 59 61 60

