# https://github.com/mikedh/trimesh
v -0.03678914 0.01341275 -0.08084173
v -0.03901327 0.01394322 -0.08063843
v -0.03734517 0.01454177 -0.08091664
v -0.03678914 0.01611890 -0.08094874
v -0.03678914 0.01341275 0.01876960
v -0.04065027 0.01341275 -0.07962188
v -0.03927757 0.01585129 -0.08075613
v -0.04053595 0.01447368 -0.08025321
v -0.03790029 0.01585129 -0.08089524
v -0.03790029 0.01722732 -0.08087384
v -0.03790029 0.01860652 -0.08083103
v -0.03790029 0.02549460 -0.08060633
v -0.03678914 0.02714140 -0.08057422
v -0.03678914 0.02009815 0.02245058
v -0.04000279 0.01953918 0.02497591
v -0.04116240 0.01344759 0.02201186
v -0.04146054 0.01341275 -0.07410040
v -0.04613194 0.02093897 -0.06400978
v -0.04113863 0.01447368 -0.07922596
v -0.03927757 0.01722732 -0.08073473
v -0.04048840 0.01585129 -0.08027461
v -0.04077282 0.02958944 -0.07922596
v -0.03927757 0.02411698 -0.08056352
v -0.03927757 0.02687221 -0.08048862
v -0.03734517 0.02958944 -0.08047792
v -0.03678914 0.02941051 0.02511502
v -0.03678914 0.02536000 0.02479400
v -0.03889164 0.02168636 0.02506152
v -0.03964886 0.02262853 0.02606737
v -0.04138555 0.02125249 0.02619577
v -0.04105815 0.02001897 0.02557514
v -0.04146054 0.01882821 0.02505082
v -0.04402944 0.02117490 0.02623858
v -0.04613194 0.02115115 0.02547884
v -0.04613194 0.02411698 -0.06357106
v -0.03974763 0.02958944 -0.08028531
v -0.04613194 0.02562128 -0.06304674
v -0.04613194 0.02958627 -0.06043580
v -0.04103711 0.02958944 -0.07786699
v -0.04146054 0.02958944 -0.06936006
v -0.04190500 0.02958786 0.02751194
v -0.03868953 0.02826091 0.02627068
v -0.03678914 0.02810890 0.02533973
v -0.03678914 0.02682629 0.02521132
v -0.03911204 0.02432442 0.02628138
v -0.04065667 0.02411698 0.02699831
v -0.04203212 0.02273937 0.02683781
v -0.04341214 0.02273937 0.02691271
v -0.04535002 0.02246859 0.02632418
v -0.04613194 0.02773995 0.02786506
v -0.04613194 0.02958627 0.02815398
v -0.04478941 0.02958627 0.02836798
v -0.04343226 0.02958627 0.02817538
v -0.04126209 0.02833217 0.02746914
v -0.03885780 0.02687221 0.02650609
v -0.04084232 0.02687221 0.02745844
v -0.03882762 0.02565453 0.02643119
v -0.04152547 0.02558644 0.02752264
v -0.04203212 0.02411698 0.02722303
v -0.04355298 0.02483904 0.02752264
v -0.04478941 0.02825141 0.02828238
v -0.04341214 0.02825141 0.02825028
v -0.04341214 0.02687221 0.02804697
f 1 2 3
f 1 3 4
f 1 4 13
f 1 13 26
f 1 26 43
f 1 43 44
f 1 44 27
f 1 27 14
f 1 14 5
f 1 5 17
f 1 17 6
f 1 6 2
f 2 7 3
f 2 6 8
f 2 8 7
f 3 9 4
f 3 7 9
f 4 9 10
f 4 10 11
f 4 11 12
f 4 12 13
f 5 14 15
f 5 15 16
f 5 16 17
f 6 17 18
f 6 18 19
f 6 19 8
f 7 20 10
f 7 10 9
f 7 8 21
f 7 21 20
f 8 19 22
f 8 22 21
f 10 20 23
f 10 23 24
f 10 24 11
f 11 24 12
f 12 24 25
f 12 25 13
f 13 25 26
f 14 27 28
f 14 28 15
f 15 28 29
f 15 29 30
f 15 30 31
f 15 31 16
f 16 31 32
f 16 32 33
f 16 33 34
f 16 34 17
f 17 34 18
f 18 35 22
f 18 22 19
f 18 34 50
f 18 50 51
f 18 51 38
f 18 38 37
f 18 37 35
f 20 21 36
f 20 36 23
f 21 22 36
f 22 35 37
f 22 37 38
f 22 38 39
f 22 39 40
f 22 40 25
f 22 25 36
f 23 36 24
f 24 36 25
f 25 40 41
f 25 41 26
f 26 41 42
f 26 42 43
f 27 44 45
f 27 45 29
f 27 29 28
f 29 45 46
f 29 46 30
f 30 33 32
f 30 32 31
f 30 46 47
f 30 47 48
f 30 48 33
f 33 49 34
f 33 48 50
f 33 50 49
f 34 49 50
f 38 40 39
f 38 51 40
f 40 51 41
f 41 51 52
f 41 52 53
f 41 53 54
f 41 54 42
f 42 55 43
f 42 54 56
f 42 56 55
f 43 55 57
f 43 57 44
f 44 57 45
f 45 57 46
f 46 56 58
f 46 58 59
f 46 59 47
f 46 57 56
f 47 59 60
f 47 60 48
f 48 60 50
f 50 60 61
f 50 61 51
f 51 61 52
f 52 61 62
f 52 62 53
f 53 62 56
f 53 56 54
f 55 56 57
f 56 62 58
f 58 62 63
f 58 63 59
f 59 63 60
f 60 63 61
f 61 63 62

