# https://github.com/mikedh/trimesh
v 0.00973923 -0.01365361 -0.08137280
v -0.00066180 -0.01365361 -0.08136147
v 0.00892839 -0.00660458 -0.08111767
v 0.03526648 -0.01337209 -0.08116870
v 0.06400911 -0.01365361 -0.07977396
v -0.00843461 -0.01365361 -0.08128209
v -0.04061629 -0.00660458 -0.08102696
v -0.01030792 -0.00660458 -0.08109499
v 0.03925074 -0.00660458 -0.08083419
v 0.06206590 -0.01337209 -0.08036361
v 0.06350583 -0.01033679 -0.08001208
v 0.06346389 -0.00895886 -0.07998941
v 0.06459626 -0.01006079 -0.07912761
v 0.06561680 -0.01365361 -0.07839623
v -0.03649222 -0.01365361 -0.08076048
v -0.03786225 -0.01365361 -0.08072079
v -0.06267653 -0.01337209 -0.07965489
v -0.06267653 -0.01171402 -0.07964356
v -0.06267653 -0.01033679 -0.07954717
v -0.06385084 -0.00660458 -0.07887248
v 0.06424676 -0.00660458 -0.07918431
v 0.06324022 -0.00709241 -0.07995539
v 0.06614803 -0.00955157 -0.07719426
v 0.06651150 -0.01365361 -0.07687109
v 0.06508555 -0.00660458 -0.07818645
v -0.06610160 -0.01365361 -0.07795966
v -0.06459178 -0.01337209 -0.07928070
v -0.06406054 -0.01033679 -0.07934307
v -0.06510903 -0.00660458 -0.07850395
v 0.06565873 -0.00660458 -0.07647988
v 0.06859451 -0.00660458 -0.05580825
v 0.07120875 -0.00660458 -0.03160442
v 0.07129262 -0.01337209 -0.03102044
v 0.07134854 -0.01337209 -0.02963704
v 0.07102701 -0.01337209 -0.02826498
v -0.05771367 -0.01365361 -0.02345710
v -0.06652100 -0.01365361 -0.07670100
v -0.06640916 -0.00660458 -0.07712055
v -0.06516494 -0.01033679 -0.07888949
v -0.06463371 -0.01171402 -0.07921266
v 0.07127864 -0.00660458 -0.02885462
v 0.07139048 -0.01171402 -0.02963704
v 0.07112486 -0.01171402 -0.02826498
v 0.06898594 -0.00955295 -0.02345710
v 0.06877625 -0.01268899 -0.02345710
v -0.05581241 -0.00996902 -0.02345710
v -0.05659528 -0.00709793 -0.02346844
v -0.06489933 -0.00829508 -0.02480081
v -0.06016016 -0.01365361 -0.02390500
v -0.07137201 -0.01365361 -0.02963704
v -0.07025363 -0.00679571 -0.05524128
v -0.06975035 -0.00660458 -0.02619555
v 0.06897196 -0.00672050 -0.02346844
v 0.07115282 -0.00996902 -0.02826498
v -0.06817062 -0.00660458 -0.02570796
v -0.06680059 -0.00895886 -0.02533943
v -0.06923309 -0.01151806 -0.02625792
v -0.07022566 -0.01337209 -0.02684756
v -0.07142793 -0.01337209 -0.02840105
v -0.07133007 -0.00709241 -0.02731814
v -0.06945677 -0.01024433 -0.02623524
v -0.06917717 -0.00895886 -0.02608216
v -0.07119027 -0.01001456 -0.02722176
v -0.07134406 -0.01147736 -0.02751658
f 1 2 3
f 1 3 4
f 1 4 5
f 1 5 14
f 1 14 24
f 1 24 36
f 1 36 49
f 1 49 50
f 1 50 37
f 1 37 26
f 1 26 16
f 1 16 15
f 1 15 6
f 1 6 2
f 2 6 7
f 2 7 8
f 2 8 3
f 3 8 7
f 3 7 20
f 3 20 29
f 3 29 38
f 3 38 52
f 3 52 55
f 3 55 41
f 3 41 32
f 3 32 31
f 3 31 30
f 3 30 25
f 3 25 21
f 3 21 9
f 3 9 4
f 4 9 10
f 4 10 5
f 5 10 11
f 5 11 12
f 5 12 13
f 5 13 14
f 6 15 7
f 7 16 17
f 7 17 18
f 7 18 19
f 7 19 20
f 7 15 16
f 9 21 22
f 9 22 10
f 10 22 12
f 10 12 11
f 12 22 21
f 12 21 13
f 13 21 14
f 14 23 24
f 14 21 25
f 14 25 23
f 16 26 17
f 17 27 18
f 17 26 27
f 18 27 28
f 18 28 19
f 19 28 20
f 20 28 29
f 23 25 30
f 23 30 31
f 23 31 24
f 24 31 32
f 24 32 33
f 24 33 34
f 24 34 35
f 24 35 36
f 26 37 38
f 26 38 39
f 26 39 27
f 27 39 40
f 27 40 28
f 28 40 39
f 28 39 29
f 29 39 38
f 32 41 42
f 32 42 33
f 33 42 34
f 34 42 43
f 34 43 35
f 35 43 44
f 35 44 45
f 35 45 36
f 36 46 47
f 36 47 48
f 36 48 49
f 36 45 44
f 36 44 46
f 37 50 51
f 37 51 38
f 38 51 52
f 41 53 54
f 41 54 42
f 41 55 53
f 42 54 43
f 43 54 44
f 44 53 47
f 44 47 46
f 44 54 53
f 47 55 48
f 47 53 55
f 48 55 56
f 48 56 49
f 49 56 57
f 49 57 58
f 49 58 50
f 50 58 59
f 50 59 51
f 51 59 60
f 51 60 52
f 52 58 61
f 52 61 62
f 52 62 56
f 52 56 55
f 52 60 63
f 52 63 58
f 56 62 61
f 56 61 57
f 57 61 58
f 58 63 64
f 58 64 59
f 59 64 60
f 60 64 63

