# https://github.com/mikedh/trimesh
v -0.03574957 0.06192975 0.01313992
v -0.03565292 0.05807842 0.01313992
v -0.05624014 0.06585371 0.01314229
v -0.05392045 0.06880037 0.01314229
v -0.05062214 0.06914993 0.01314229
v 0.03659567 0.06995368 0.01314229
v 0.06607502 0.06175990 0.01313992
v -0.03527838 0.05807842 0.02274027
v -0.05407751 0.06474471 0.03304130
v -0.05674757 0.06583402 0.01950057
v 0.06636498 0.05831720 0.01325155
v 0.06642539 0.05807842 0.01723230
v -0.05696504 0.06736643 0.01585471
v -0.05628846 0.06813817 0.01380971
v -0.05465744 0.06917086 0.02755708
v 0.05679627 0.07065157 0.01364345
v 0.06548302 0.06495888 0.01347719
v 0.06600253 0.06300921 0.01595209
v -0.03436017 0.05807842 0.02496579
v -0.05340094 0.06635344 0.03667053
v -0.05555148 0.06776769 0.03519556
v -0.05642136 0.06745258 0.03274203
v -0.05609516 0.06570231 0.03031225
v -0.03236669 0.05807842 0.02611774
v -0.05692880 0.06632512 0.02378059
v 0.06646164 0.05807842 0.01998510
v -0.05580520 0.06871052 0.02446701
v -0.05562397 0.06866005 0.03031225
v -0.05393254 0.06913885 0.03203424
v -0.04613984 0.06930625 0.03100105
v 0.05028424 0.07052972 0.02825062
v 0.05771448 0.07064788 0.01654351
v 0.06545886 0.06491088 0.02037700
v 0.06510849 0.06583771 0.01688553
v 0.06614752 0.06135125 0.02076415
v -0.02961207 0.06295874 0.03564209
v -0.05028386 0.06658115 0.03740208
v -0.05062214 0.06856528 0.03594136
v -0.05253106 0.06894930 0.03435001
v -0.02694201 0.06201468 0.03443789
v 0.00548528 0.05807842 0.02810099
v -0.01788073 0.06164420 0.03449964
v -0.02080450 0.06195560 0.03491767
v 0.06497559 0.05810919 0.02268802
v 0.06196724 0.05807842 0.02379009
v -0.04338521 0.06934071 0.03100105
v 0.05771448 0.07035617 0.03140245
v 0.05800445 0.07044602 0.02626737
v 0.05955090 0.06974197 0.02932894
v 0.05959923 0.06854066 0.03174922
v -0.02393366 0.06346832 0.03631426
v -0.03443266 0.06600633 0.03722869
v -0.03021615 0.06614665 0.03720019
v -0.04407386 0.06770368 0.03733320
v -0.04751715 0.06830064 0.03641876
v -0.02483979 0.06890622 0.03582498
v 0.01306051 0.06210330 0.03296767
v 0.02320914 0.06329969 0.03359234
v 0.05742452 0.06845450 0.03293442
v 0.02069615 0.06891730 0.03446639
v -0.01873853 0.06409974 0.03649952
v 0.01962087 0.06518905 0.03485829
v -0.01651550 0.06771353 0.03643777
v 0.02513013 0.06448869 0.03423600
f 1 2 3
f 1 3 4
f 1 4 5
f 1 5 6
f 1 6 7
f 1 7 2
f 2 8 9
f 2 9 10
f 2 10 3
f 2 7 11
f 2 11 12
f 2 12 26
f 2 26 45
f 2 45 41
f 2 41 24
f 2 24 19
f 2 19 8
f 3 10 13
f 3 13 14
f 3 14 4
f 4 14 15
f 4 15 5
f 5 15 16
f 5 16 6
f 6 16 7
f 7 17 18
f 7 18 11
f 7 16 17
f 8 19 9
f 9 20 21
f 9 21 22
f 9 22 23
f 9 23 10
f 9 19 24
f 9 24 20
f 10 25 13
f 10 23 25
f 11 18 26
f 11 26 12
f 13 25 22
f 13 22 27
f 13 27 14
f 14 27 15
f 15 28 29
f 15 29 30
f 15 30 16
f 15 27 28
f 16 31 32
f 16 32 17
f 16 30 31
f 17 33 18
f 17 32 34
f 17 34 33
f 18 33 35
f 18 35 26
f 20 24 36
f 20 36 37
f 20 37 21
f 21 28 22
f 21 37 38
f 21 38 39
f 21 39 29
f 21 29 28
f 22 25 23
f 22 28 27
f 24 40 36
f 24 41 42
f 24 42 43
f 24 43 40
f 26 35 44
f 26 44 45
f 29 39 46
f 29 46 30
f 30 46 31
f 31 47 32
f 31 46 47
f 32 47 48
f 32 48 49
f 32 49 34
f 33 34 49
f 33 49 50
f 33 50 35
f 35 50 44
f 36 40 43
f 36 43 51
f 36 51 37
f 37 51 52
f 37 52 53
f 37 53 54
f 37 54 38
f 38 54 55
f 38 55 56
f 38 56 39
f 39 56 47
f 39 47 46
f 41 45 57
f 41 57 42
f 42 57 58
f 42 58 43
f 43 58 51
f 44 50 59
f 44 59 45
f 45 59 58
f 45 58 57
f 47 50 49
f 47 49 48
f 47 56 60
f 47 60 59
f 47 59 50
f 51 58 61
f 51 61 52
f 52 61 53
f 53 61 62
f 53 62 59
f 53 59 63
f 53 63 54
f 54 63 60
f 54 60 56
f 54 56 55
f 58 59 64
f 58 64 61
f 59 60 63
f 59 62 64
f 61 64 62

