# https://github.com/mikedh/trimesh
v -0.06347213 0.02958944 -0.06144826
v -0.06697440 0.02958944 -0.05996583
v -0.06590718 0.02960048 -0.06102471
v -0.06312570 0.03992945 -0.05916452
v -0.05925801 0.02958944 -0.01587663
v -0.06773095 0.02958944 -0.05581047
v -0.06745940 0.02959575 -0.05796256
v -0.06755215 0.03247279 -0.05774506
v -0.06745828 0.03412808 -0.05776795
v -0.06758791 0.03693575 -0.05658889
v -0.06467792 0.04106293 -0.05779085
v -0.06379062 0.04567250 -0.05517514
v -0.05925801 0.03606239 -0.01587663
v -0.05925801 0.02999144 -0.00309574
v -0.07067335 0.02961151 -0.00896820
v -0.07009671 0.02958944 -0.03514240
v -0.06779018 0.03238924 -0.05581047
v -0.06760467 0.03101141 -0.05711546
v -0.06901832 0.02958944 -0.04478674
v -0.06877358 0.02960048 -0.04694455
v -0.06781588 0.03445598 -0.05581047
v -0.06778906 0.03652272 -0.05581047
v -0.06781812 0.03989792 -0.05465429
v -0.06778794 0.04260943 -0.05353818
v -0.06759350 0.04486850 -0.05228471
v -0.06743034 0.04561259 -0.05044170
v -0.06611839 0.04569299 -0.04869598
v -0.06362523 0.04569457 -0.04877611
v -0.06547135 0.03060626 -0.00297554
v -0.06304078 0.04050328 -0.02483413
v -0.06734094 0.03031619 -0.00297554
v -0.07031016 0.03177915 -0.01355855
v -0.07035262 0.03420847 -0.03143921
v -0.07034145 0.03238924 -0.03222907
v -0.07026434 0.02996779 -0.03342531
v -0.07037721 0.02999459 -0.00754301
v -0.06896803 0.03867616 -0.02595596
v -0.06968882 0.03514489 -0.01998620
v -0.06977711 0.03583381 -0.03789547
v -0.06838246 0.03721163 -0.05098544
v -0.06845621 0.03514489 -0.05029288
v -0.06858585 0.03238924 -0.04891921
v -0.06813549 0.03445598 -0.05305740
v -0.06798239 0.03514489 -0.05443107
v -0.06814443 0.03652272 -0.05305740
v -0.06796674 0.03721163 -0.05443107
v -0.06808744 0.04065147 -0.05305740
v -0.06804832 0.04341028 -0.05167228
v -0.06841710 0.04341028 -0.04822664
v -0.06760691 0.04000985 -0.02609333
v -0.06907196 0.03599145 -0.01895595
v -0.06896245 0.04151379 -0.04395681
v -0.06957931 0.03789739 -0.03927487
v -0.07010677 0.03514489 -0.03444984
v -0.06900826 0.03733775 -0.02232717
v -0.06946085 0.03789739 -0.04065427
v -0.06843386 0.03927522 -0.05029288
v -0.06811984 0.03858631 -0.05305740
v -0.06826177 0.03996256 -0.05167228
v -0.06853444 0.04134196 -0.04891921
v -0.06819360 0.04203088 -0.05167228
v -0.06829753 0.04272136 -0.05029288
v -0.06872665 0.04203088 -0.04684725
v -0.06928428 0.03927522 -0.04202794
f 1 2 3
f 1 3 4
f 1 4 5
f 1 5 16
f 1 16 19
f 1 19 6
f 1 6 2
f 2 6 7
f 2 7 8
f 2 8 9
f 2 9 10
f 2 10 3
f 3 11 4
f 3 10 11
f 4 11 12
f 4 12 13
f 4 13 5
f 5 13 14
f 5 14 15
f 5 15 16
f 6 17 18
f 6 18 7
f 6 19 20
f 6 20 17
f 7 18 8
f 8 18 17
f 8 17 21
f 8 21 22
f 8 22 10
f 8 10 9
f 10 22 23
f 10 23 24
f 10 24 11
f 11 24 25
f 11 25 12
f 12 25 26
f 12 26 27
f 12 27 28
f 12 28 13
f 13 29 14
f 13 28 30
f 13 30 29
f 14 29 31
f 14 31 15
f 15 32 33
f 15 33 34
f 15 34 35
f 15 35 16
f 15 31 36
f 15 36 37
f 15 37 38
f 15 38 32
f 16 35 39
f 16 39 40
f 16 40 41
f 16 41 42
f 16 42 19
f 17 43 21
f 17 20 42
f 17 42 43
f 19 42 20
f 21 43 44
f 21 44 45
f 21 45 46
f 21 46 22
f 22 46 47
f 22 47 23
f 23 47 24
f 24 47 48
f 24 48 25
f 25 48 49
f 25 49 26
f 26 49 37
f 26 37 50
f 26 50 27
f 27 50 30
f 27 30 28
f 29 30 31
f 30 50 31
f 31 50 51
f 31 51 36
f 32 38 52
f 32 52 33
f 33 52 53
f 33 53 54
f 33 54 34
f 34 54 35
f 35 54 39
f 36 51 55
f 36 55 37
f 37 55 50
f 37 49 52
f 37 52 38
f 39 54 56
f 39 56 57
f 39 57 40
f 40 57 58
f 40 58 45
f 40 45 41
f 41 45 44
f 41 44 43
f 41 43 42
f 45 58 46
f 46 58 47
f 47 58 59
f 47 59 60
f 47 60 61
f 47 61 48
f 48 61 62
f 48 62 49
f 49 63 52
f 49 62 63
f 50 55 51
f 52 63 64
f 52 64 53
f 53 56 54
f 53 64 56
f 56 64 63
f 56 63 60
f 56 60 57
f 57 59 58
f 57 60 59
f 60 63 61
f 61 63 62

