# https://github.com/mikedh/trimesh
v 0.02564314 -0.05509456 0.03754612
v 0.02405588 -0.05509456 0.04697635
v 0.02615493 -0.05637621 0.03754612
v -0.03334534 -0.05719690 0.03754612
v -0.03305607 -0.05509456 0.03776320
v 0.02487176 -0.05795686 0.04776704
v 0.02251311 -0.05509456 0.04820242
v 0.02734167 -0.06194196 0.03754612
v -0.03351593 -0.05857510 0.03754612
v -0.04745273 -0.06937491 0.04703092
v -0.04843180 -0.06894821 0.04815027
v -0.03325633 -0.05509456 0.04103637
v 0.02272821 -0.05857510 0.04872026
v 0.02272821 -0.05995175 0.04865841
v 0.02199392 -0.06560471 0.04824850
v 0.02134121 -0.06959448 0.04779252
v 0.02218676 -0.07008503 0.04679201
v 0.00867274 -0.05540913 0.04989903
v -0.00787489 -0.05509456 0.04989903
v 0.02297298 -0.06959604 0.04478736
v 0.02280980 -0.07005855 0.04341212
v 0.02278755 -0.07006167 0.04203566
v 0.02180848 -0.07062852 0.03772439
v 0.01996904 -0.07075622 0.03754733
v 0.02375178 -0.06456288 0.03754612
v -0.03393129 -0.06270815 0.03754612
v -0.04645142 -0.07021273 0.04820363
v -0.03362719 -0.06709815 0.03754733
v -0.03258137 -0.06926122 0.03754733
v -0.03123887 -0.07026568 0.03754733
v -0.04723022 -0.06904164 0.04909984
v -0.03279647 -0.05509456 0.04818665
v -0.03326375 -0.05509456 0.04652763
v 0.02066625 -0.05995175 0.04893733
v 0.02134862 -0.06132995 0.04878332
v 0.02068850 -0.06824431 0.04813693
v 0.01858203 -0.06880027 0.04822425
v -0.00383255 -0.06789237 0.04978746
v -0.00506380 -0.07001184 0.04849711
v 0.02022122 -0.07079360 0.04635300
v 0.02134121 -0.07085900 0.04478736
v -0.03650504 -0.06880961 0.04993542
v 0.00738216 -0.05680602 0.04989903
v -0.03100152 -0.05509456 0.04878696
v -0.04340298 -0.06920516 0.04977048
v 0.02134121 -0.07087302 0.04272328
v 0.02134121 -0.07085433 0.04065678
v 0.02134121 -0.07082007 0.03927912
v 0.01996904 -0.07084032 0.03927912
v -0.02961452 -0.07035756 0.03754733
v -0.04408535 -0.07051484 0.04754390
v -0.04063638 -0.07043698 0.04854805
v -0.04063638 -0.06995110 0.04923688
v -0.04477514 -0.06930483 0.04944547
v 0.00624734 -0.05769368 0.04989903
v -0.03789204 -0.06932352 0.04988812
v -0.03926421 -0.07021896 0.04891187
v 0.01996904 -0.07100383 0.04478736
v -0.00615412 -0.07078270 0.04696179
v 0.01996904 -0.07098981 0.04341212
v 0.01996904 -0.07094932 0.04203566
v 0.01996904 -0.07090105 0.04065678
v -0.03098669 -0.07060984 0.04478736
f 1 2 3
f 1 3 8
f 1 8 25
f 1 25 26
f 1 26 9
f 1 9 4
f 1 4 5
f 1 5 12
f 1 12 33
f 1 33 32
f 1 32 44
f 1 44 19
f 1 19 7
f 1 7 2
f 2 6 3
f 2 7 6
f 3 6 8
f 4 9 10
f 4 10 5
f 5 10 11
f 5 11 12
f 6 7 13
f 6 13 14
f 6 14 15
f 6 15 16
f 6 16 17
f 6 17 8
f 7 18 13
f 7 19 18
f 8 17 20
f 8 20 21
f 8 21 22
f 8 22 23
f 8 23 24
f 8 24 25
f 9 26 10
f 10 27 11
f 10 26 28
f 10 28 29
f 10 29 30
f 10 30 27
f 11 27 31
f 11 31 32
f 11 32 33
f 11 33 12
f 13 18 34
f 13 34 35
f 13 35 14
f 14 35 15
f 15 35 36
f 15 36 16
f 16 36 37
f 16 37 38
f 16 38 39
f 16 39 40
f 16 40 17
f 17 21 20
f 17 40 41
f 17 41 21
f 18 19 42
f 18 42 43
f 18 43 34
f 19 44 45
f 19 45 42
f 21 41 46
f 21 46 23
f 21 23 22
f 23 46 47
f 23 47 48
f 23 48 24
f 24 48 49
f 24 49 50
f 24 50 25
f 25 50 26
f 26 50 30
f 26 30 29
f 26 29 28
f 27 30 51
f 27 51 52
f 27 52 53
f 27 53 45
f 27 45 54
f 27 54 31
f 30 50 51
f 31 54 45
f 31 45 44
f 31 44 32
f 34 43 38
f 34 38 35
f 35 37 36
f 35 38 37
f 38 43 55
f 38 55 42
f 38 42 56
f 38 56 39
f 39 56 57
f 39 57 52
f 39 52 40
f 40 58 41
f 40 52 59
f 40 59 58
f 41 58 46
f 42 45 56
f 42 55 43
f 45 53 56
f 46 58 47
f 47 58 60
f 47 60 48
f 48 60 61
f 48 61 62
f 48 62 49
f 49 62 50
f 50 63 51
f 50 62 63
f 51 63 58
f 51 58 59
f 51 59 52
f 52 57 53
f 53 57 56
f 58 63 60
f 60 63 61
f 61 63 62

