# https://github.com/mikedh/trimesh
v -0.01423873 0.04569733 0.02578469
v -0.01588510 0.04864907 0.02631732
v -0.01588510 0.04755315 0.02644516
v -0.01588510 0.04654905 0.02629602
v -0.01423873 0.03811970 0.02387786
v -0.01423873 0.04569733 -0.08063548
v -0.01588510 0.05807471 0.02460225
v -0.03238430 0.05807667 0.02611493
v -0.02321389 0.04569928 0.02667952
v -0.02274350 0.04569928 0.02666887
v -0.02183600 0.04569928 0.02662625
v -0.02103722 0.04484951 0.02643450
v -0.01425205 0.03811970 0.02387786
v -0.01423873 0.03811970 -0.08076331
v -0.01423873 0.04479286 -0.08065679
v -0.01860539 0.05719173 -0.08186054
v -0.01856545 0.05807471 -0.08180728
v -0.01588510 0.05585163 -0.08081658
v -0.01588510 0.05721322 -0.08071005
v -0.01588510 0.05807471 -0.08059287
v -0.02013194 0.05807667 0.02469812
v -0.03376885 0.05807667 0.02562490
v -0.03514009 0.04569928 0.02420810
v -0.02791337 0.04569928 0.02627471
v -0.02687496 0.04569928 0.02640255
v -0.02459400 0.04569928 0.02662625
v -0.02412139 0.04569928 0.02665821
v -0.01722971 0.03811970 0.02375003
v -0.02103722 0.03811970 -0.08055026
v -0.01998328 0.05719173 -0.08213751
v -0.01948848 0.05807471 -0.08205229
v -0.02013194 0.05807667 -0.08209490
v -0.03401292 0.05807667 0.02549707
v -0.03546847 0.04569928 0.02402700
v -0.02103722 0.03811970 0.02353698
v -0.02086637 0.03811970 0.02354763
v -0.01860095 0.03811970 0.02368611
v -0.03690406 0.04569928 -0.08060353
v -0.03176303 0.05648066 -0.08130660
v -0.01998328 0.05807471 -0.08214816
v -0.03690627 0.05807667 -0.08040112
v -0.03460313 0.05807667 0.02497509
v -0.03602096 0.04569928 0.02369677
v -0.03613634 0.04569928 0.02333458
v -0.03628722 0.04569928 0.02272738
v -0.03633825 0.04569928 0.02225866
v -0.03643588 0.04569928 0.02134253
v -0.03656014 0.04569928 0.01996833
v -0.03690406 0.04570514 0.01206405
v -0.03690627 0.05581256 -0.08058222
v -0.03176303 0.05659201 -0.08130660
v -0.03690627 0.05272212 0.01171252
v -0.03690627 0.05272212 -0.08044374
v -0.03690627 0.05443534 -0.08055026
v -0.03690627 0.05757852 -0.08045439
v -0.03690627 0.05807667 0.01187230
v -0.03475401 0.05807667 0.02468747
v -0.03500696 0.05807667 0.02410157
v -0.03557276 0.05581256 0.02271672
v -0.03690627 0.05801416 0.01187230
v -0.03690627 0.05719173 0.01186165
v -0.03690627 0.05719173 -0.08048635
v -0.03529984 0.05807667 0.02271672
v -0.03513121 0.05807667 0.02360090
f 1 2 3
f 1 3 4
f 1 4 5
f 1 5 14
f 1 14 15
f 1 15 6
f 1 6 20
f 1 20 7
f 1 7 2
f 2 8 3
f 2 7 8
f 3 9 10
f 3 10 11
f 3 11 4
f 3 8 9
f 4 11 12
f 4 12 5
f 5 12 13
f 5 13 28
f 5 28 37
f 5 37 36
f 5 36 35
f 5 35 29
f 5 29 14
f 6 15 16
f 6 16 17
f 6 17 18
f 6 18 19
f 6 19 20
f 7 21 8
f 7 20 32
f 7 32 21
f 8 22 23
f 8 23 24
f 8 24 25
f 8 25 26
f 8 26 27
f 8 27 9
f 8 21 32
f 8 32 41
f 8 41 56
f 8 56 63
f 8 63 64
f 8 64 58
f 8 58 57
f 8 57 42
f 8 42 33
f 8 33 22
f 9 27 12
f 9 12 10
f 10 12 11
f 12 27 28
f 12 28 13
f 14 29 30
f 14 30 31
f 14 31 16
f 14 16 15
f 16 31 17
f 17 31 32
f 17 32 20
f 17 20 19
f 17 19 18
f 22 33 23
f 23 34 35
f 23 35 24
f 23 33 34
f 24 35 25
f 25 35 26
f 26 35 27
f 27 35 36
f 27 36 37
f 27 37 28
f 29 38 30
f 29 35 38
f 30 39 40
f 30 40 31
f 30 38 39
f 31 40 32
f 32 40 41
f 33 42 43
f 33 43 34
f 34 43 35
f 35 43 44
f 35 44 45
f 35 45 46
f 35 46 47
f 35 47 48
f 35 48 49
f 35 49 38
f 38 50 51
f 38 51 39
f 38 49 52
f 38 52 53
f 38 53 54
f 38 54 50
f 39 51 40
f 40 51 41
f 41 55 62
f 41 62 50
f 41 50 54
f 41 54 53
f 41 53 52
f 41 52 61
f 41 61 60
f 41 60 56
f 41 51 55
f 42 57 43
f 43 57 58
f 43 58 44
f 44 58 59
f 44 59 45
f 45 59 56
f 45 56 46
f 46 56 47
f 47 56 48
f 48 56 49
f 49 56 60
f 49 60 61
f 49 61 52
f 50 62 51
f 51 62 55
f 56 59 63
f 58 64 59
f 59 64 63

