# https://github.com/mikedh/trimesh
v 0.01582448 0.01324665 -0.00703978
v 0.01552324 0.01324370 -0.00639268
v 0.01411316 0.01106836 -0.00661040
v 0.01348183 0.01017315 -0.00703978
v 0.01540253 0.01279388 -0.00778056
v 0.01565891 0.01322600 -0.00795542
v 0.01074500 0.01324665 -0.00833055
v 0.01398711 0.01324665 -0.00566973
v 0.01466865 0.01324222 -0.00579072
v 0.01474877 0.01268843 -0.00598417
v 0.01321584 0.01052637 -0.00603082
v 0.01343162 0.01025353 -0.00652468
v 0.01114559 0.00737471 -0.00661382
v 0.01343697 0.01022698 -0.00757384
v 0.01318272 0.00980298 -0.00703978
v 0.01492502 0.01248860 -0.00821183
v 0.01518140 0.01312571 -0.00828086
v 0.01444966 0.01310654 -0.00843069
v 0.01363886 0.01310654 -0.00845686
v 0.00704034 0.00571408 -0.00889610
v 0.01000578 0.01324665 -0.00829679
v 0.01222665 0.01074464 -0.00559045
v 0.00895783 0.01324665 -0.00502149
v 0.01296908 0.01076160 -0.00578048
v 0.01340385 0.01102043 -0.00589162
v 0.01113811 0.00812022 -0.00591589
v 0.01094583 0.00762690 -0.00611996
v 0.01069159 0.00710113 -0.00634034
v 0.01043948 0.00659380 -0.00656071
v 0.01015640 0.00616905 -0.00703978
v 0.01048008 0.00653923 -0.00703978
v 0.01045123 0.00657241 -0.00756246
v 0.00959878 0.00579519 -0.00787387
v 0.00901872 0.00571408 -0.00829186
v 0.00852092 0.00571408 -0.00850731
v 0.01445286 0.01223567 -0.00831462
v 0.00778170 0.00571408 -0.00873830
v 0.00491134 0.00571408 -0.00858469
v 0.00491134 0.01012669 -0.00812345
v 0.00778170 0.01222608 -0.00825734
v 0.00852306 0.01222608 -0.00831765
v 0.00926335 0.01324665 -0.00825659
v 0.01045123 0.00732088 -0.00588593
v 0.00491134 0.00693227 -0.00502149
v 0.01000578 0.00778175 -0.00567504
v 0.00491134 0.01324665 -0.00502149
v 0.01017990 0.00682682 -0.00606686
v 0.00953148 0.00574800 -0.00655009
v 0.00973979 0.00575242 -0.00703978
v 0.00785327 0.00571408 -0.00576986
v 0.00491134 0.00571703 -0.00553166
v 0.00555869 0.00571408 -0.00581234
v 0.00491134 0.01069744 -0.00801535
v 0.00758621 0.01269949 -0.00816821
v 0.00847819 0.01324665 -0.00819514
v 0.00996305 0.00706057 -0.00582410
v 0.00877089 0.00575463 -0.00590148
v 0.00555015 0.01324665 -0.00740239
v 0.00491134 0.01309843 -0.00713612
v 0.00491134 0.01148573 -0.00782342
v 0.00708841 0.01307631 -0.00798083
v 0.00789921 0.01322305 -0.00811814
v 0.00623275 0.01310654 -0.00773694
v 0.00491134 0.01226811 -0.00753249
f 1 2 3
f 1 3 4
f 1 4 5
f 1 5 6
f 1 6 7
f 1 7 21
f 1 21 42
f 1 42 55
f 1 55 58
f 1 58 46
f 1 46 23
f 1 23 8
f 1 8 2
f 2 8 9
f 2 9 10
f 2 10 11
f 2 11 3
f 3 12 13
f 3 13 4
f 3 11 12
f 4 14 5
f 4 13 15
f 4 15 14
f 5 14 6
f 6 14 16
f 6 16 17
f 6 17 18
f 6 18 7
f 7 18 19
f 7 19 20
f 7 20 21
f 8 22 9
f 8 23 22
f 9 22 24
f 9 24 10
f 10 24 25
f 10 25 11
f 11 25 26
f 11 26 27
f 11 27 12
f 12 27 13
f 13 27 28
f 13 28 29
f 13 29 30
f 13 30 31
f 13 31 15
f 14 15 32
f 14 32 16
f 15 31 32
f 16 32 33
f 16 33 34
f 16 34 35
f 16 35 36
f 16 36 17
f 17 36 18
f 18 36 20
f 18 20 19
f 20 37 35
f 20 35 34
f 20 34 50
f 20 50 52
f 20 52 38
f 20 38 39
f 20 39 40
f 20 40 41
f 20 41 42
f 20 42 21
f 20 36 37
f 22 43 24
f 22 23 44
f 22 44 45
f 22 45 43
f 23 46 44
f 24 43 25
f 25 43 26
f 26 43 27
f 27 43 28
f 28 43 47
f 28 47 29
f 29 47 48
f 29 48 49
f 29 49 30
f 30 32 31
f 30 49 32
f 32 49 33
f 33 49 34
f 34 49 48
f 34 48 50
f 35 37 36
f 38 51 44
f 38 44 46
f 38 46 59
f 38 59 64
f 38 64 60
f 38 60 53
f 38 53 39
f 38 52 51
f 39 53 54
f 39 54 40
f 40 55 41
f 40 54 55
f 41 55 42
f 43 45 56
f 43 56 57
f 43 57 47
f 44 51 50
f 44 50 57
f 44 57 45
f 45 57 56
f 46 58 59
f 47 57 48
f 48 57 50
f 50 51 52
f 53 60 61
f 53 61 54
f 54 61 62
f 54 62 55
f 55 62 58
f 58 63 64
f 58 64 59
f 58 62 63
f 60 64 63
f 60 63 61
f 61 63 62

