# https://github.com/mikedh/trimesh
v -0.01863041 0.01246785 -0.00055717
v -0.02037936 0.01181083 -0.00223170
v -0.01963804 0.01221877 -0.00037045
v -0.01963804 0.01224301 0.00037002
v -0.01872038 0.01245977 0.00037002
v -0.01854045 0.01238842 0.00111141
v -0.01854045 0.01223359 -0.00223170
v -0.02112068 0.01152675 -0.00223170
v -0.02046213 0.01189161 -0.00037045
v -0.02029479 0.01198990 0.00037002
v -0.02112068 0.01154695 0.00185233
v -0.02136179 0.01138807 0.00244361
v -0.02038116 0.01169370 0.00244361
v -0.01854045 0.01215550 0.00244361
v -0.01854045 0.00049338 -0.00203720
v -0.02435048 -0.00128515 -0.00223170
v -0.02112068 0.01156579 -0.00111138
v -0.02455920 0.00970917 -0.00223170
v -0.02215530 0.01107707 -0.00111138
v -0.02112068 0.01159003 -0.00037045
v -0.02112068 0.01160484 0.00037002
v -0.02112068 0.01159811 0.00111141
v -0.02178104 0.01127767 0.00111141
v -0.02360016 0.01031638 0.00111141
v -0.02449263 0.00971994 0.00244361
v -0.02075722 -0.00078700 0.00239373
v -0.01854045 -0.00005863 0.00211090
v -0.03610191 -0.00128515 0.00244361
v -0.01854045 0.00017295 -0.00127064
v -0.01925838 -0.00000208 -0.00148848
v -0.02376570 -0.00128515 -0.00187062
v -0.02236582 -0.00069814 -0.00213468
v -0.03692240 -0.00128515 -0.00223170
v -0.02832700 0.00680105 -0.00223170
v -0.02459159 0.00973745 -0.00111138
v -0.02408598 0.01004576 -0.00111138
v -0.02324929 0.01053853 -0.00037045
v -0.02239281 0.01098686 -0.00037045
v -0.02200595 0.01118478 0.00037002
v -0.02260513 0.01088723 0.00037002
v -0.02408598 0.01003903 0.00111141
v -0.02324929 0.01053718 0.00037002
v -0.02458619 0.00972398 0.00111141
v -0.02848534 0.00661660 0.00185233
v -0.02832880 0.00668122 0.00244361
v -0.02207073 -0.00128515 0.00209077
v -0.02009147 -0.00071565 0.00111141
v -0.01854045 -0.00019865 0.00083224
v -0.03483518 0.00117194 0.00244361
v -0.01854045 -0.00003170 -0.00051141
v -0.02274728 -0.00128515 -0.00096448
v -0.02151114 -0.00073315 -0.00145965
v -0.03479739 0.00143717 0.00037002
v -0.03481359 0.00146410 -0.00037045
v -0.03483518 0.00149237 -0.00148208
v -0.03482258 0.00147353 -0.00223170
v -0.03332194 0.00276872 -0.00223170
v -0.02832160 0.00678758 0.00111141
v -0.03392472 0.00210631 0.00244361
v -0.02196997 -0.00128515 0.00029130
v -0.02187640 -0.00128381 0.00109539
v -0.03434936 0.00173606 0.00244361
v -0.02229385 -0.00128515 -0.00040478
v -0.03440154 0.00185185 -0.00223170
f 1 2 3
f 1 3 4
f 1 4 5
f 1 5 6
f 1 6 7
f 1 7 2
f 2 7 16
f 2 16 33
f 2 33 56
f 2 56 64
f 2 64 57
f 2 57 34
f 2 34 18
f 2 18 8
f 2 8 3
f 3 8 9
f 3 9 10
f 3 10 4
f 4 10 11
f 4 11 12
f 4 12 13
f 4 13 14
f 4 14 6
f 4 6 5
f 6 14 27
f 6 27 48
f 6 48 50
f 6 50 29
f 6 29 15
f 6 15 7
f 7 15 16
f 8 17 9
f 8 18 19
f 8 19 17
f 9 17 20
f 9 20 10
f 10 20 21
f 10 21 22
f 10 22 11
f 11 22 23
f 11 23 12
f 12 23 24
f 12 24 25
f 12 25 45
f 12 45 59
f 12 59 62
f 12 62 49
f 12 49 28
f 12 28 14
f 12 14 13
f 14 26 27
f 14 28 26
f 15 29 30
f 15 30 31
f 15 31 32
f 15 32 16
f 16 32 31
f 16 31 51
f 16 51 63
f 16 63 60
f 16 60 46
f 16 46 28
f 16 28 33
f 17 19 20
f 18 34 35
f 18 35 36
f 18 36 19
f 19 36 37
f 19 37 38
f 19 38 20
f 20 38 21
f 21 38 39
f 21 39 22
f 22 39 23
f 23 39 40
f 23 40 24
f 24 41 25
f 24 40 42
f 24 42 41
f 25 41 43
f 25 43 44
f 25 44 45
f 26 46 27
f 26 28 46
f 27 46 47
f 27 47 48
f 28 49 33
f 29 50 51
f 29 51 30
f 30 52 31
f 30 51 52
f 31 52 51
f 33 49 53
f 33 53 54
f 33 54 55
f 33 55 56
f 34 57 58
f 34 58 35
f 35 58 43
f 35 43 41
f 35 41 36
f 36 41 42
f 36 42 37
f 37 42 40
f 37 40 38
f 38 40 39
f 43 58 44
f 44 58 59
f 44 59 45
f 46 60 61
f 46 61 47
f 47 61 60
f 47 60 48
f 48 60 50
f 49 62 53
f 50 60 63
f 50 63 51
f 53 62 54
f 54 62 59
f 54 59 55
f 55 59 58
f 55 58 57
f 55 57 64
f 55 64 56

