# https://github.com/mikedh/trimesh
v 0.02178724 0.03051574 0.00270430
v 0.02122185 0.02933251 0.00270430
v 0.02018152 0.02704888 -0.00034965
v 0.02083327 0.02872400 -0.00034965
v 0.02099158 0.02925814 -0.00034965
v 0.02135754 0.03051574 -0.00034965
v 0.01764650 0.03051574 0.00270430
v 0.01709550 0.02454889 0.00360122
v 0.02088672 0.02877809 0.00270430
v 0.01978472 0.02628824 -0.00034965
v 0.01980733 0.02632712 -0.00034965
v 0.01662468 0.03051574 -0.00034965
v 0.01726820 0.03051574 0.00270275
v 0.01726615 0.03051236 0.00270430
v 0.01222900 0.02454889 0.00360122
v 0.01156492 0.01745122 0.00360122
v 0.01941053 0.02578114 -0.00034965
v 0.01314597 0.02688492 -0.00034965
v 0.01664524 0.03051574 0.00010597
v 0.01709550 0.03051574 0.00239140
v 0.01698242 0.03043799 0.00233106
v 0.01691663 0.03016077 0.00270430
v 0.01649927 0.02972974 0.00270430
v 0.00892093 0.02105499 0.00360122
v 0.01216938 0.01733121 -0.00034965
v 0.00656273 0.01324739 0.00360122
v 0.00821368 0.01328626 0.00086481
v 0.00825685 0.01324739 0.00055926
v 0.00830620 0.01324739 0.00037091
v 0.00865366 0.01361588 0.00037091
v 0.01316447 0.02686971 0.00037091
v 0.00787239 0.02106007 -0.00034965
v 0.00078338 0.01324739 0.00111196
v 0.01666169 0.03051574 0.00037091
v 0.01702765 0.03051574 0.00225371
v 0.01692691 0.03051574 0.00200076
v 0.01686934 0.03051574 0.00185224
v 0.00108972 0.01324739 0.00259291
v 0.00140634 0.01324739 0.00326434
v 0.00164483 0.01324739 0.00360122
v 0.00868039 0.01355333 -0.00034965
v 0.00812527 0.01324739 0.00091819
v 0.00817256 0.01324739 0.00081879
v 0.00837816 0.01324739 -0.00034965
v 0.01324054 0.02678689 0.00111196
v 0.01672131 0.03051574 0.00111196
v 0.01669459 0.03051574 0.00087255
v 0.00085533 0.01324739 0.00185224
v 0.00085945 0.01324739 0.00188589
v 0.00082655 0.01324739 -0.00034965
v 0.00080188 0.01324739 0.00037091
f 1 2 3
f 1 3 4
f 1 4 5
f 1 5 6
f 1 6 12
f 1 12 19
f 1 19 34
f 1 34 47
f 1 47 46
f 1 46 37
f 1 37 36
f 1 36 35
f 1 35 20
f 1 20 13
f 1 13 7
f 1 7 15
f 1 15 8
f 1 8 2
f 2 8 9
f 2 9 10
f 2 10 11
f 2 11 3
f 3 11 10
f 3 10 17
f 3 17 25
f 3 25 41
f 3 41 44
f 3 44 50
f 3 50 32
f 3 32 18
f 3 18 12
f 3 12 6
f 3 6 5
f 3 5 4
f 7 13 14
f 7 14 15
f 8 15 24
f 8 24 40
f 8 40 26
f 8 26 16
f 8 16 9
f 9 17 10
f 9 16 17
f 12 18 19
f 13 20 21
f 13 21 22
f 13 22 14
f 14 22 15
f 15 22 23
f 15 23 24
f 16 25 17
f 16 26 27
f 16 27 28
f 16 28 29
f 16 29 30
f 16 30 25
f 18 31 19
f 18 32 33
f 18 33 31
f 19 31 34
f 20 35 21
f 21 23 22
f 21 35 36
f 21 36 37
f 21 37 38
f 21 38 39
f 21 39 23
f 23 39 24
f 24 39 40
f 25 30 41
f 26 40 39
f 26 39 38
f 26 38 49
f 26 49 48
f 26 48 33
f 26 33 51
f 26 51 50
f 26 50 44
f 26 44 29
f 26 29 28
f 26 28 43
f 26 43 42
f 26 42 27
f 27 42 43
f 27 43 28
f 29 44 41
f 29 41 30
f 31 45 37
f 31 37 46
f 31 46 47
f 31 47 34
f 31 33 48
f 31 48 49
f 31 49 45
f 32 50 51
f 32 51 33
f 37 45 49
f 37 49 38

