# https://github.com/mikedh/trimesh
v 0.01115574 0.01324739 -0.00209791
v 0.01114771 0.01324739 -0.00205178
v 0.00967830 0.01106699 -0.00212653
v 0.00969837 0.01103253 -0.00259313
v 0.01113367 0.01324739 -0.00259313
v 0.01097062 0.01324739 -0.00164475
v 0.00883499 0.01039509 -0.00230114
v 0.00895338 0.01033752 -0.00279519
v 0.00968834 0.01175947 -0.00144094
v 0.00944653 0.01126574 -0.00163307
v 0.00922479 0.01093462 -0.00186899
v 0.00895338 0.01033752 -0.00306791
v 0.00967479 0.01105354 -0.00305564
v 0.01099570 0.01324739 -0.00305739
v 0.01081059 0.01324739 -0.00146605
v 0.00603113 0.00895508 -0.00261298
v 0.00895238 0.01108926 -0.00146313
v 0.00603113 0.00959546 -0.00144269
v 0.00603113 0.00951436 -0.00156007
v 0.00603113 0.00931309 -0.00185264
v 0.00809702 0.01324739 0.00094521
v 0.00807696 0.01322806 0.00094521
v 0.00873917 0.01045056 -0.00356195
v 0.00924887 0.01075184 -0.00330909
v 0.00603113 0.00895760 -0.00298673
v 0.00603113 0.00896516 -0.00334004
v 0.00603113 0.00906097 -0.00385277
v 0.00603113 0.00934460 -0.00502074
v 0.00905021 0.01094471 -0.00383058
v 0.00954436 0.01130944 -0.00354969
v 0.01080306 0.01324739 -0.00334880
v 0.00603113 0.01169014 0.00094521
v 0.00603113 0.01324739 0.00094521
v 0.00611992 0.00940637 -0.00502074
v 0.00603113 0.01324739 -0.00502074
v 0.01046443 0.01324739 -0.00378036
v 0.00895639 0.01324739 -0.00502074
f 1 2 3
f 1 3 4
f 1 4 5
f 1 5 14
f 1 14 31
f 1 31 36
f 1 36 37
f 1 37 35
f 1 35 33
f 1 33 21
f 1 21 15
f 1 15 6
f 1 6 2
f 2 6 3
f 3 7 8
f 3 8 4
f 3 6 9
f 3 9 10
f 3 10 11
f 3 11 7
f 4 8 12
f 4 12 13
f 4 13 5
f 5 13 14
f 6 15 9
f 7 16 8
f 7 11 17
f 7 17 18
f 7 18 19
f 7 19 20
f 7 20 16
f 8 16 12
f 9 15 21
f 9 21 10
f 10 21 22
f 10 22 17
f 10 17 11
f 12 23 24
f 12 24 13
f 12 16 25
f 12 25 26
f 12 26 27
f 12 27 28
f 12 28 23
f 13 24 29
f 13 29 30
f 13 30 14
f 14 30 31
f 16 20 19
f 16 19 18
f 16 18 32
f 16 32 33
f 16 33 35
f 16 35 28
f 16 28 27
f 16 27 26
f 16 26 25
f 17 22 32
f 17 32 18
f 21 33 32
f 21 32 22
f 23 29 24
f 23 28 34
f 23 34 29
f 28 35 37
f 28 37 34
f 29 36 30
f 29 34 37
f 29 37 36
f 30 36 31

