# https://github.com/mikedh/trimesh
v -0.00375825 -0.01201346 -0.00089293
v -0.00405109 -0.01201346 0.00041262
v 0.00540023 -0.01201346 -0.00089293
v -0.00288403 -0.01485360 -0.00089293
v -0.00411856 -0.01201346 0.00076523
v 0.00548780 -0.01201346 -0.00058351
v 0.00762095 -0.01254613 0.00333471
v 0.00792527 -0.01275658 0.00333471
v 0.01023212 -0.01468401 0.00236325
v 0.01023212 -0.01476686 0.00215971
v 0.01023212 -0.01485360 0.00204200
v 0.01020628 -0.01485360 0.00202452
v 0.00563709 -0.01485360 -0.00089293
v -0.00298165 -0.01485360 0.00199009
v -0.00443150 -0.01201346 0.00312140
v -0.00437121 -0.01201346 0.00263978
v -0.00422766 -0.01201346 0.00150230
v -0.00417311 -0.01201346 0.00111218
v 0.00647685 -0.01201346 0.00312088
v 0.00778172 -0.01254613 0.00435757
v 0.00843057 -0.01312717 0.00333471
v 0.00879949 -0.01339906 0.00333471
v 0.01023212 -0.01465621 0.00259301
v 0.01023355 -0.01466539 0.00312140
v 0.01023355 -0.01485360 0.00312140
v -0.00299744 -0.01485360 0.00259301
v -0.00412000 -0.01254613 0.00435757
v 0.00633043 -0.01201346 0.00312140
v 0.00841621 -0.01306851 0.00435757
v 0.01023355 -0.01466539 0.00319336
v 0.01023355 -0.01485360 0.00359171
v -0.00297878 -0.01485360 0.00312140
v -0.00291418 -0.01485360 0.00435757
v 0.00967084 -0.01478076 0.00435757
v 0.00991344 -0.01485360 0.00408926
v 0.01023355 -0.01478437 0.00349045
v 0.00970673 -0.01485360 0.00435757
v 0.00968376 -0.01480550 0.00435757
f 1 2 5
f 1 5 18
f 1 18 17
f 1 17 16
f 1 16 15
f 1 15 28
f 1 28 19
f 1 19 6
f 1 6 3
f 1 3 13
f 1 13 4
f 1 4 2
f 2 4 5
f 3 6 7
f 3 7 8
f 3 8 9
f 3 9 10
f 3 10 11
f 3 11 12
f 3 12 13
f 4 13 12
f 4 12 11
f 4 11 25
f 4 25 31
f 4 31 35
f 4 35 37
f 4 37 33
f 4 33 32
f 4 32 26
f 4 26 14
f 4 14 15
f 4 15 16
f 4 16 17
f 4 17 18
f 4 18 5
f 6 19 7
f 7 19 20
f 7 20 8
f 8 20 21
f 8 21 9
f 9 21 22
f 9 22 23
f 9 23 24
f 9 24 10
f 10 24 11
f 11 24 25
f 14 26 15
f 15 26 27
f 15 27 20
f 15 20 28
f 19 28 20
f 20 29 22
f 20 22 21
f 20 27 33
f 20 33 37
f 20 37 38
f 20 38 34
f 20 34 29
f 22 29 23
f 23 30 24
f 23 29 30
f 24 30 36
f 24 36 31
f 24 31 25
f 26 32 27
f 27 32 33
f 29 34 35
f 29 35 31
f 29 31 36
f 29 36 30
f 34 38 35
f 35 38 37

