# https://github.com/mikedh/trimesh
v 0.00603051 0.01324665 0.00094521
v 0.00491122 0.01324665 0.00094521
v 0.00603051 0.01168925 0.00094521
v 0.00603051 0.01324665 -0.00501918
v 0.00077944 0.01324517 -0.00111225
v 0.00078983 0.01324517 0.00094521
v 0.00491122 0.01324665 -0.00501918
v -0.00213712 0.00571334 0.00094521
v 0.00428522 0.00571334 0.00093940
v 0.00603051 0.00955447 -0.00150207
v 0.00603051 0.00934579 -0.00501918
v 0.00491042 0.00571334 -0.00877425
v 0.00491042 0.01012596 -0.00812326
v 0.00491042 0.01069745 -0.00801395
v 0.00491042 0.01148499 -0.00782339
v 0.00491042 0.01226738 -0.00753127
v 0.00491042 0.01295021 -0.00720819
v 0.00488084 0.01324222 -0.00704762
v 0.00431240 0.01324517 -0.00673615
v 0.00081541 0.01324517 -0.00182128
v -0.00213712 0.01195988 -0.00407510
v -0.00213712 0.01197389 -0.00010528
v -0.00213712 0.01196136 0.00046252
v -0.00213712 0.01191564 0.00094521
v 0.00271741 0.01324517 -0.00542642
v 0.00234325 0.01324517 -0.00505207
v 0.00199387 0.01324517 -0.00468450
v 0.00156934 0.01324517 -0.00407510
v 0.00121836 0.01324517 -0.00339992
v 0.00095852 0.01324517 -0.00256900
v 0.00394543 0.01324517 -0.00646337
v 0.00351051 0.01324517 -0.00612191
v 0.00311716 0.01324517 -0.00578529
v -0.00213712 0.00571334 -0.00852179
v 0.00440594 0.00571334 0.00029034
v 0.00603051 0.00931408 -0.00185320
v 0.00603051 0.00906189 -0.00385358
v 0.00185396 0.00571334 -0.00891064
v 0.00603051 0.00896602 -0.00334188
v 0.00603051 0.00895865 -0.00298688
v 0.00603051 0.00895570 -0.00261350
v 0.00491042 0.00571334 -0.00839604
v 0.00139904 0.00571334 -0.00892709
v 0.00111362 0.00571334 -0.00893676
v 0.00066031 0.00571334 -0.00892612
v -0.00185170 0.00868434 -0.00813003
v -0.00213712 0.00890777 -0.00806425
v -0.00213712 0.00926394 -0.00796559
v -0.00213712 0.00952940 -0.00783307
v -0.00213712 0.01002788 -0.00757190
v -0.00213712 0.01032653 -0.00737263
v -0.00213712 0.01049982 -0.00721593
v -0.00213712 0.01082428 -0.00690059
v -0.00213712 0.01108901 -0.00662974
v -0.00213712 0.01128147 -0.00628732
v -0.00213712 0.01164575 -0.00555700
v -0.00213712 0.01191269 -0.00472609
v -0.00213712 0.01183673 -0.00509850
v -0.00213712 0.00861355 -0.00812519
v -0.00015917 0.00571334 -0.00884196
v 0.00450748 0.00571334 -0.00043804
v 0.00458343 0.00571334 -0.00126701
v 0.00490882 0.00571481 -0.00552992
v 0.00037249 0.00571334 -0.00890968
f 1 2 6
f 1 6 24
f 1 24 8
f 1 8 3
f 1 3 10
f 1 10 36
f 1 36 41
f 1 41 40
f 1 40 39
f 1 39 37
f 1 37 11
f 1 11 4
f 1 4 7
f 1 7 2
f 2 5 6
f 2 7 5
f 3 8 9
f 3 9 10
f 4 11 12
f 4 12 13
f 4 13 14
f 4 14 15
f 4 15 16
f 4 16 17
f 4 17 18
f 4 18 19
f 4 19 7
f 5 20 21
f 5 21 22
f 5 22 6
f 5 7 20
f 6 22 23
f 6 23 24
f 7 25 26
f 7 26 27
f 7 27 28
f 7 28 29
f 7 29 30
f 7 30 20
f 7 19 31
f 7 31 32
f 7 32 33
f 7 33 25
f 8 24 23
f 8 23 22
f 8 22 21
f 8 21 57
f 8 57 58
f 8 58 56
f 8 56 55
f 8 55 54
f 8 54 53
f 8 53 52
f 8 52 51
f 8 51 50
f 8 50 49
f 8 49 48
f 8 48 47
f 8 47 59
f 8 59 34
f 8 34 60
f 8 60 64
f 8 64 45
f 8 45 44
f 8 44 43
f 8 43 38
f 8 38 12
f 8 12 42
f 8 42 62
f 8 62 61
f 8 61 35
f 8 35 9
f 9 35 36
f 9 36 10
f 11 37 12
f 12 38 13
f 12 37 39
f 12 39 40
f 12 40 41
f 12 41 42
f 13 38 43
f 13 43 44
f 13 44 14
f 14 44 45
f 14 45 46
f 14 46 47
f 14 47 15
f 15 47 48
f 15 48 16
f 16 48 17
f 17 48 49
f 17 49 50
f 17 50 18
f 18 50 51
f 18 51 52
f 18 52 53
f 18 53 54
f 18 54 19
f 19 54 55
f 19 55 56
f 19 56 31
f 20 30 57
f 20 57 21
f 25 58 26
f 25 33 58
f 26 58 27
f 27 58 28
f 28 58 57
f 28 57 29
f 29 57 30
f 31 56 58
f 31 58 32
f 32 58 33
f 34 59 60
f 35 61 41
f 35 41 36
f 41 61 62
f 41 62 63
f 41 63 42
f 42 63 62
f 45 64 46
f 46 64 47
f 47 64 59
f 59 64 60

