# https://github.com/mikedh/trimesh
v 0.00851456 0.01324739 0.00488109
v 0.00839276 0.01309678 0.00488109
v 0.00809588 0.01324739 0.00094544
v 0.00256822 0.01324739 0.00488109
v 0.00577302 0.01049859 0.00488109
v 0.00449523 0.00925113 0.00094544
v 0.00078910 0.01324739 0.00094544
v 0.00251167 0.01324739 0.00481676
v -0.00259513 0.01171554 0.00481676
v -0.00259513 0.01169442 0.00488109
v 0.00537392 0.01014340 0.00488109
v 0.00494328 0.00992200 0.00488109
v 0.00479647 0.00987114 0.00488109
v 0.00437887 0.00972915 0.00488109
v 0.00407547 0.00963135 0.00488109
v 0.00271503 0.00925113 0.00488109
v -0.00259513 0.00925113 0.00094544
v -0.00259296 0.01186223 0.00094544
v -0.00259513 0.01186223 0.00094621
v 0.00078475 0.01324739 0.00111186
v 0.00220065 0.01324739 0.00445771
v 0.00140679 0.01324739 0.00326461
v 0.00108816 0.01324739 0.00259390
v 0.00092178 0.01324739 0.00208422
v 0.00085761 0.01324739 0.00188697
v -0.00259513 0.01178008 0.00407555
v 0.00193531 0.01324739 0.00412447
v -0.00259513 0.00925113 0.00488109
v -0.00259513 0.01185636 0.00094544
v 0.00079019 0.01324739 0.00118660
v 0.00085326 0.01324739 0.00185269
f 1 2 3
f 1 3 7
f 1 7 20
f 1 20 30
f 1 30 31
f 1 31 25
f 1 25 24
f 1 24 23
f 1 23 22
f 1 22 27
f 1 27 21
f 1 21 8
f 1 8 4
f 1 4 10
f 1 10 28
f 1 28 16
f 1 16 15
f 1 15 14
f 1 14 13
f 1 13 12
f 1 12 11
f 1 11 5
f 1 5 2
f 2 5 6
f 2 6 3
f 3 6 17
f 3 17 29
f 3 29 18
f 3 18 7
f 4 8 9
f 4 9 10
f 5 11 6
f 6 11 12
f 6 12 13
f 6 13 14
f 6 14 15
f 6 15 16
f 6 16 28
f 6 28 17
f 7 18 19
f 7 19 20
f 8 21 9
f 9 22 23
f 9 23 24
f 9 24 25
f 9 25 26
f 9 26 19
f 9 19 29
f 9 29 17
f 9 17 28
f 9 28 10
f 9 21 27
f 9 27 22
f 18 29 19
f 19 26 20
f 20 26 30
f 25 31 26
f 26 31 30

