# https://github.com/mikedh/trimesh
v 0.00665478 0.00571260 0.00863907
v 0.00666691 0.00541091 0.01074458
v 0.00816593 0.00568004 0.00831157
v -0.00037243 0.00571260 0.00840795
v 0.00133975 0.00571260 0.00863188
v 0.00110926 0.00550147 0.01074458
v 0.00728038 0.00509040 0.01141828
v 0.00036755 0.00520690 0.01154439
v 0.00629779 0.00498661 0.01184168
v 0.00782800 0.00481669 0.01074458
v 0.00826298 0.00470222 0.00820081
v -0.00150059 0.00566936 0.00820656
v -0.00000157 0.00549943 0.01074458
v 0.00635671 0.00364706 0.01262375
v 0.00735836 0.00415989 0.01191840
v 0.00185098 0.00473274 0.01212603
v -0.00069823 0.00516722 0.01143794
v -0.00147980 0.00460352 0.01200663
v -0.00037243 0.00446514 0.01227036
v 0.00518522 0.00410291 0.01260265
v 0.00780894 0.00407543 0.01074458
v 0.00635151 0.00051518 0.01148589
v 0.00641216 0.00051518 0.01037488
v 0.00628739 0.00051518 0.00919146
v 0.00609676 0.00051518 0.00829815
v -0.00914301 0.00051518 0.00820081
v -0.00259237 0.00548875 0.00820081
v -0.00144861 0.00524150 0.01072971
v 0.00571377 0.00296432 0.01291577
v 0.00596332 0.00051518 0.01235475
v 0.00073841 0.00441172 0.01236674
v -0.00361309 0.00438323 0.01139766
v -0.00231163 0.00349800 0.01265252
v -0.00301175 0.00416955 0.01200903
v -0.00037243 0.00358907 0.01277384
v 0.00073841 0.00333469 0.01291625
v 0.00407438 0.00333469 0.01293975
v -0.00548470 0.00051518 0.01297043
v -0.00660247 0.00064695 0.01265924
v -0.00777742 0.00077821 0.01170886
v -0.00943761 0.00154744 0.00820081
v -0.00438773 0.00482737 0.00820081
v -0.00421963 0.00434558 0.01074458
v 0.00370352 0.00259445 0.01305866
v 0.00481609 0.00222357 0.01303517
v 0.00446257 0.00081382 0.01299441
v 0.00036755 0.00051518 0.01309942
v -0.00488163 0.00385107 0.01110181
v -0.00451770 0.00354938 0.01198361
v -0.00222151 0.00259445 0.01296468
v -0.00386437 0.00300502 0.01256190
v -0.00407406 0.00185269 0.01293159
v 0.00036755 0.00259445 0.01302174
v -0.00429935 0.00051518 0.01303709
v -0.00296322 0.00185269 0.01303325
v -0.00481404 0.00111195 0.01295940
v -0.00565800 0.00135717 0.01274698
v -0.00497694 0.00237722 0.01255662
v -0.00630093 0.00212996 0.01200184
v -0.00603405 0.00305030 0.01127683
v -0.00621082 0.00392790 0.00820081
v 0.00407438 0.00185269 0.01306058
v -0.00333235 0.00111195 0.01304907
v -0.00555402 0.00284883 0.01197115
f 1 2 3
f 1 3 4
f 1 4 5
f 1 5 6
f 1 6 2
f 2 7 3
f 2 6 8
f 2 8 9
f 2 9 7
f 3 10 11
f 3 11 12
f 3 12 4
f 3 7 10
f 4 13 5
f 4 12 13
f 5 13 6
f 6 13 8
f 7 9 14
f 7 14 15
f 7 15 10
f 8 16 9
f 8 13 17
f 8 17 18
f 8 18 19
f 8 19 16
f 9 16 20
f 9 20 14
f 10 21 11
f 10 15 21
f 11 21 22
f 11 22 23
f 11 23 24
f 11 24 25
f 11 25 26
f 11 26 41
f 11 41 61
f 11 61 42
f 11 42 27
f 11 27 12
f 12 27 13
f 13 27 28
f 13 28 17
f 14 20 29
f 14 29 30
f 14 30 15
f 15 30 22
f 15 22 21
f 16 19 31
f 16 31 20
f 17 28 32
f 17 32 18
f 18 33 19
f 18 32 34
f 18 34 33
f 19 33 35
f 19 35 31
f 20 31 35
f 20 35 36
f 20 36 37
f 20 37 29
f 22 30 47
f 22 47 54
f 22 54 38
f 22 38 26
f 22 26 25
f 22 25 24
f 22 24 23
f 26 38 39
f 26 39 40
f 26 40 41
f 27 42 43
f 27 43 32
f 27 32 28
f 29 37 44
f 29 44 45
f 29 45 46
f 29 46 30
f 30 46 47
f 32 43 48
f 32 48 49
f 32 49 34
f 33 50 35
f 33 34 51
f 33 51 52
f 33 52 50
f 34 49 51
f 35 50 36
f 36 53 44
f 36 44 37
f 36 50 53
f 38 54 55
f 38 55 56
f 38 56 52
f 38 52 57
f 38 57 39
f 39 57 58
f 39 58 59
f 39 59 40
f 40 59 60
f 40 60 41
f 41 60 61
f 42 61 43
f 43 61 48
f 44 62 45
f 44 53 55
f 44 55 47
f 44 47 62
f 45 62 46
f 46 62 47
f 47 55 63
f 47 63 54
f 48 61 60
f 48 60 49
f 49 60 64
f 49 64 58
f 49 58 51
f 50 52 55
f 50 55 53
f 51 58 52
f 52 58 57
f 52 56 55
f 54 63 55
f 58 64 59
f 59 64 60

