# https://github.com/mikedh/trimesh
v -0.01175722 0.00391678 -0.00505037
v -0.01175207 0.00282664 -0.00350438
v -0.01175722 0.00282664 -0.00349776
v -0.01175722 0.00571260 -0.00505037
v -0.00954616 0.00335236 -0.00505037
v -0.00886637 0.00318569 -0.00505037
v -0.00733511 0.00282664 -0.00505037
v -0.01175722 0.00282664 0.00460947
v -0.01175722 0.00571260 0.00460947
v 0.00445318 0.00571260 -0.00505037
v 0.00404462 0.00282664 -0.00505037
v 0.00578016 0.00282664 0.00460947
v 0.00417680 0.00571260 0.00460947
v 0.00459910 0.00571260 -0.00200662
v 0.00499393 0.00282664 -0.00111117
v 0.00489264 0.00282664 -0.00182412
v 0.00473643 0.00282664 -0.00257963
v 0.00453386 0.00282664 -0.00332000
v 0.00558961 0.00333965 0.00460947
v 0.00477419 0.00479704 0.00460947
v 0.00458365 0.00571260 -0.00126624
v 0.00534241 0.00386650 0.00460947
f 1 2 3
f 1 3 8
f 1 8 9
f 1 9 4
f 1 4 10
f 1 10 11
f 1 11 7
f 1 7 6
f 1 6 5
f 1 5 2
f 2 5 6
f 2 6 7
f 2 7 11
f 2 11 18
f 2 18 17
f 2 17 16
f 2 16 15
f 2 15 12
f 2 12 8
f 2 8 3
f 4 9 13
f 4 13 21
f 4 21 14
f 4 14 10
f 8 12 19
f 8 19 22
f 8 22 20
f 8 20 13
f 8 13 9
f 10 14 12
f 10 12 15
f 10 15 16
f 10 16 17
f 10 17 18
f 10 18 11
f 12 14 19
f 13 20 21
f 14 21 22
f 14 22 19
f 20 22 21

