# https://github.com/mikedh/trimesh
v 0.00731978 -0.00898383 -0.00867930
v 0.00717598 -0.00898383 -0.00703959
v 0.00995196 -0.01087875 -0.00703959
v 0.01023355 -0.01109019 -0.00712305
v 0.00992600 -0.01088622 -0.00778044
v 0.00936082 -0.01051907 -0.00867930
v -0.00703143 -0.00898383 -0.00867930
v 0.00706614 -0.00898383 -0.00626628
v 0.01023355 -0.01121315 -0.00629946
v 0.00680652 -0.00898383 -0.00503570
v 0.01023355 -0.01113615 -0.00783430
v 0.00984412 -0.01092012 -0.00867930
v -0.00713329 -0.00926422 -0.00867930
v -0.01016889 -0.01449909 -0.00821025
v -0.01016889 -0.01426984 -0.00811287
v -0.01016889 -0.01407851 -0.00798981
v -0.01016889 -0.01385328 -0.00769697
v -0.01016889 -0.01371883 -0.00700749
v -0.00708136 -0.00898383 -0.00775582
v 0.01023355 -0.01155559 -0.00573160
v 0.00682849 -0.00926939 -0.00503570
v 0.01000389 -0.01222668 -0.00535958
v 0.01023355 -0.01222668 -0.00542021
v -0.00467884 -0.00898383 -0.00503570
v 0.01023355 -0.01128094 -0.00847991
v 0.01017963 -0.01126256 -0.00867930
v -0.00763456 -0.01074602 -0.00867930
v -0.01016889 -0.01485303 -0.00824734
v -0.01016889 -0.01376020 -0.00681773
v -0.00743285 -0.00959287 -0.00657018
v -0.00721517 -0.00921480 -0.00703959
v -0.00706139 -0.00898383 -0.00703959
v 0.00670067 -0.00992439 -0.00503570
v 0.01023355 -0.01485303 -0.00550725
v 0.00644504 -0.01053516 -0.00503570
v 0.00381685 -0.01485303 -0.00503570
v -0.00672987 -0.00898383 -0.00634440
v -0.00683771 -0.00950151 -0.00585252
v -0.01016889 -0.01485303 -0.00570271
v -0.00495045 -0.01485303 -0.00503570
v 0.01023355 -0.01301556 -0.00867930
v -0.00783227 -0.01149468 -0.00867930
v -0.00773641 -0.01220830 -0.00867930
v -0.00700946 -0.01290869 -0.00867930
v -0.00926220 -0.01485303 -0.00832296
v -0.01016889 -0.01396360 -0.00636758
v -0.00704541 -0.00929984 -0.00630944
v -0.00686767 -0.00898383 -0.00645533
v -0.01016889 -0.01418078 -0.00606975
v 0.01023355 -0.01485303 -0.00812643
v -0.01016889 -0.01457034 -0.00579046
v 0.01000389 -0.01309830 -0.00867930
v -0.00268373 -0.01441865 -0.00867930
v -0.00852127 -0.01485303 -0.00837433
v 0.00184970 -0.01485303 -0.00847456
v 0.00184970 -0.01463527 -0.00867930
v 0.00255468 -0.01459447 -0.00867930
v 0.00320574 -0.01451288 -0.00867930
v 0.00385280 -0.01440314 -0.00867930
v -0.00185094 -0.01456115 -0.00867930
v -0.00111001 -0.01463411 -0.00867930
v -0.00036908 -0.01468985 -0.00867930
v -0.00036908 -0.01485303 -0.00855160
f 1 2 3
f 1 3 4
f 1 4 5
f 1 5 6
f 1 6 12
f 1 12 26
f 1 26 41
f 1 41 52
f 1 52 59
f 1 59 58
f 1 58 57
f 1 57 56
f 1 56 62
f 1 62 61
f 1 61 60
f 1 60 53
f 1 53 44
f 1 44 43
f 1 43 42
f 1 42 27
f 1 27 13
f 1 13 7
f 1 7 19
f 1 19 32
f 1 32 48
f 1 48 37
f 1 37 24
f 1 24 10
f 1 10 8
f 1 8 2
f 2 8 3
f 3 9 4
f 3 8 10
f 3 10 9
f 4 11 5
f 4 9 20
f 4 20 23
f 4 23 34
f 4 34 50
f 4 50 41
f 4 41 25
f 4 25 11
f 5 11 6
f 6 11 12
f 7 13 14
f 7 14 15
f 7 15 16
f 7 16 17
f 7 17 18
f 7 18 19
f 9 10 20
f 10 21 22
f 10 22 23
f 10 23 20
f 10 24 40
f 10 40 36
f 10 36 35
f 10 35 33
f 10 33 21
f 11 25 26
f 11 26 12
f 13 27 14
f 14 28 39
f 14 39 51
f 14 51 49
f 14 49 46
f 14 46 29
f 14 29 18
f 14 18 17
f 14 17 16
f 14 16 15
f 14 27 28
f 18 29 30
f 18 30 31
f 18 31 19
f 19 31 32
f 21 33 22
f 22 34 23
f 22 33 35
f 22 35 36
f 22 36 34
f 24 37 38
f 24 38 39
f 24 39 40
f 25 41 26
f 27 42 28
f 28 42 43
f 28 43 44
f 28 44 45
f 28 45 54
f 28 54 63
f 28 63 55
f 28 55 50
f 28 50 34
f 28 34 36
f 28 36 40
f 28 40 39
f 29 46 30
f 30 47 48
f 30 48 32
f 30 32 31
f 30 46 49
f 30 49 47
f 37 48 38
f 38 48 47
f 38 47 49
f 38 49 51
f 38 51 39
f 41 50 52
f 44 53 54
f 44 54 45
f 50 55 56
f 50 56 57
f 50 57 58
f 50 58 59
f 50 59 52
f 53 60 54
f 54 60 61
f 54 61 62
f 54 62 63
f 55 63 56
f 56 63 62

