# https://github.com/mikedh/trimesh
v 0.00969239 0.00571260 -0.00703912
v 0.00959371 0.00571260 -0.00673178
v 0.00630992 0.00051518 -0.00505037
v 0.00636871 0.00051518 -0.00703912
v 0.00630362 0.00051518 -0.00778064
v 0.00956851 0.00571260 -0.00772254
v 0.00940475 0.00571260 -0.00644198
v 0.00886515 0.00571260 -0.00596997
v 0.00863629 0.00571260 -0.00586650
v 0.00627843 0.00061591 -0.00505037
v -0.00498598 0.00051518 -0.00505037
v 0.00616085 0.00051518 -0.00854451
v 0.00943414 0.00571260 -0.00796766
v 0.00445387 0.00571260 -0.00505037
v -0.00851962 0.00051518 -0.00564339
v -0.01175722 0.00391670 -0.00505037
v 0.00815758 0.00444784 -0.00856239
v -0.00903193 0.00051518 -0.00856239
v 0.00830665 0.00476225 -0.00856239
v 0.00901842 0.00571260 -0.00829218
v -0.01175722 0.00571260 -0.00505037
v -0.00922089 0.00051518 -0.00578227
v -0.01175722 0.00202007 -0.00580599
v -0.00936576 0.00051518 -0.00835269
v -0.01175722 0.00212233 -0.00819661
v -0.01175722 0.00225054 -0.00821621
v -0.01175722 0.00259140 -0.00825849
v -0.01175722 0.00286511 -0.00827087
v -0.00906762 0.00080263 -0.00856239
v 0.00849561 0.00549028 -0.00856239
v 0.00851871 0.00571260 -0.00850773
v -0.01175722 0.00567953 -0.00815708
v -0.00158881 0.00571260 -0.00856239
v -0.00938466 0.00051518 -0.00583796
v -0.01175722 0.00165021 -0.00616799
v -0.00945815 0.00051518 -0.00829321
v -0.01175722 0.00191883 -0.00800410
v -0.01175722 0.00333469 -0.00826640
v -0.00893534 0.00145943 -0.00856239
v 0.00819957 0.00571260 -0.00856239
v -0.01175722 0.00509396 -0.00819695
v -0.00265751 0.00557626 -0.00856239
v -0.00316562 0.00542109 -0.00856239
v -0.00363593 0.00527304 -0.00856239
v -0.00418813 0.00503647 -0.00856239
v -0.00524843 0.00455265 -0.00856239
v -0.00577333 0.00427029 -0.00856239
v -0.00659848 0.00373152 -0.00856239
v -0.00992216 0.00051518 -0.00633300
v -0.01175722 0.00139838 -0.00652998
v -0.00965971 0.00051518 -0.00807938
v -0.01175722 0.00175705 -0.00782499
v -0.01175722 0.00434660 -0.00823511
v -0.00863090 0.00196564 -0.00856239
v -0.00745092 0.00303046 -0.00856239
v -0.00786454 0.00267738 -0.00856239
v -0.01043657 0.00070240 -0.00660768
v -0.01020771 0.00051518 -0.00703912
v -0.01175722 0.00137345 -0.00694595
v -0.00994106 0.00051518 -0.00773801
v -0.01175722 0.00148283 -0.00736949
v -0.01017621 0.00051518 -0.00721994
v -0.01175722 0.00139736 -0.00706834
v -0.01175722 0.00145485 -0.00727598
f 1 2 3
f 1 3 4
f 1 4 5
f 1 5 6
f 1 6 13
f 1 13 20
f 1 20 31
f 1 31 40
f 1 40 33
f 1 33 21
f 1 21 14
f 1 14 9
f 1 9 8
f 1 8 7
f 1 7 2
f 2 7 3
f 3 7 8
f 3 8 9
f 3 9 10
f 3 10 14
f 3 14 21
f 3 21 16
f 3 16 11
f 3 11 15
f 3 15 22
f 3 22 34
f 3 34 49
f 3 49 58
f 3 58 62
f 3 62 60
f 3 60 51
f 3 51 36
f 3 36 24
f 3 24 18
f 3 18 12
f 3 12 5
f 3 5 4
f 5 12 6
f 6 12 13
f 9 14 10
f 11 16 15
f 12 17 13
f 12 18 17
f 13 17 19
f 13 19 20
f 15 16 22
f 16 23 22
f 16 21 32
f 16 32 41
f 16 41 53
f 16 53 38
f 16 38 28
f 16 28 27
f 16 27 26
f 16 26 25
f 16 25 37
f 16 37 52
f 16 52 61
f 16 61 64
f 16 64 63
f 16 63 59
f 16 59 50
f 16 50 35
f 16 35 23
f 17 18 29
f 17 29 39
f 17 39 54
f 17 54 56
f 17 56 55
f 17 55 48
f 17 48 47
f 17 47 46
f 17 46 45
f 17 45 44
f 17 44 43
f 17 43 42
f 17 42 33
f 17 33 40
f 17 40 30
f 17 30 19
f 18 24 25
f 18 25 26
f 18 26 27
f 18 27 28
f 18 28 29
f 19 30 20
f 20 30 31
f 21 33 32
f 22 23 34
f 23 35 34
f 24 36 25
f 25 36 37
f 28 38 29
f 29 38 39
f 30 40 31
f 32 33 42
f 32 42 43
f 32 43 44
f 32 44 45
f 32 45 46
f 32 46 47
f 32 47 48
f 32 48 41
f 34 35 50
f 34 50 49
f 36 51 52
f 36 52 37
f 38 53 39
f 39 53 54
f 41 48 55
f 41 55 56
f 41 56 54
f 41 54 53
f 49 50 57
f 49 57 58
f 50 59 58
f 50 58 57
f 51 60 61
f 51 61 52
f 58 59 62
f 59 63 62
f 60 62 63
f 60 63 64
f 60 64 61

