# https://github.com/mikedh/trimesh
v -0.03260418 -0.00259392 -0.00798924
v -0.03223327 -0.00157024 -0.00798147
v -0.03107699 -0.00157024 -0.00792085
v -0.03265906 -0.00361379 -0.00767686
v -0.03371693 -0.00333451 -0.00797525
v -0.03593863 -0.00157024 -0.00794883
v -0.03519869 -0.00128785 -0.00794572
v -0.02252324 -0.00128785 -0.00068013
v -0.03093696 -0.00269290 -0.00743286
v -0.03362609 -0.00465857 -0.00726812
v -0.03467828 -0.00482330 -0.00751989
v -0.03630765 -0.00444886 -0.00787423
v -0.03667857 -0.00259392 -0.00793484
v -0.03667857 -0.00128785 -0.00785869
v -0.03667857 -0.00185264 -0.00792707
v -0.02197444 -0.00128785 0.00029120
v -0.03298077 -0.00482330 -0.00592845
v -0.02854304 -0.00261641 -0.00531768
v -0.03890406 -0.00482330 -0.00777632
v -0.03890406 -0.00333451 -0.00784004
v -0.03816223 -0.00259392 -0.00788356
v -0.03903274 -0.00232641 -0.00761624
v -0.03770048 -0.00129200 -0.00758050
v -0.03835336 -0.00128785 -0.00702878
v -0.02193470 -0.00128785 0.00148167
v -0.02589176 -0.00383908 0.00644558
v -0.02706884 -0.00442152 0.00659634
v -0.03219163 -0.00482330 0.00260997
v -0.04055047 -0.00482330 -0.00663714
v -0.03985027 -0.00444886 -0.00753698
v -0.04006033 -0.00306665 -0.00716244
v -0.03983324 -0.00220944 -0.00592690
v -0.03893055 -0.00142835 -0.00593311
v -0.03837986 -0.00134945 0.00603685
v -0.03777239 -0.00128785 0.00700818
v -0.02482254 -0.00128785 0.00762362
v -0.02302473 -0.00134599 0.00632902
v -0.02693070 -0.00359129 0.00759409
v -0.02443080 -0.00194919 0.00742780
v -0.03430169 -0.00482330 0.00745577
v -0.03329113 -0.00482330 0.00686831
v -0.04126580 -0.00482330 -0.00073764
v -0.04046342 -0.00333451 -0.00629678
v -0.04009250 -0.00245688 -0.00481569
v -0.03918603 -0.00191770 0.00555506
v -0.03955127 -0.00240843 0.00679837
v -0.03704191 -0.00129131 0.00751172
v -0.03611274 -0.00128785 0.00767801
v -0.03901950 -0.00246657 0.00744179
v -0.02565709 -0.00128785 0.00767801
v -0.02374575 -0.00136675 0.00716515
v -0.02648598 -0.00128785 0.00770910
v -0.03778942 -0.00482330 0.00784431
v -0.03557150 -0.00482330 0.00767957
v -0.04124877 -0.00482330 0.00115530
v -0.04024768 -0.00308672 0.00643315
v -0.03987298 -0.00335251 0.00745733
v -0.03890217 -0.00333451 0.00778525
v -0.03491483 -0.00128785 0.00774640
v -0.03853125 -0.00407510 0.00788782
v -0.03890406 -0.00482330 0.00787228
v -0.04053722 -0.00482330 0.00703771
v -0.04048045 -0.00407510 0.00666782
v -0.03991461 -0.00444886 0.00768268
f 1 2 3
f 1 3 4
f 1 4 5
f 1 5 6
f 1 6 2
f 2 6 7
f 2 7 3
f 3 8 9
f 3 9 4
f 3 7 8
f 4 10 11
f 4 11 5
f 4 9 10
f 5 11 12
f 5 12 13
f 5 13 6
f 6 14 7
f 6 13 15
f 6 15 14
f 7 14 24
f 7 24 35
f 7 35 48
f 7 48 59
f 7 59 52
f 7 52 50
f 7 50 36
f 7 36 25
f 7 25 16
f 7 16 8
f 8 16 17
f 8 17 10
f 8 10 18
f 8 18 9
f 9 18 10
f 10 17 11
f 11 17 28
f 11 28 41
f 11 41 40
f 11 40 54
f 11 54 53
f 11 53 61
f 11 61 62
f 11 62 55
f 11 55 42
f 11 42 29
f 11 29 19
f 11 19 12
f 12 19 20
f 12 20 13
f 13 20 21
f 13 21 15
f 14 15 21
f 14 21 22
f 14 22 23
f 14 23 24
f 16 25 26
f 16 26 27
f 16 27 17
f 17 27 28
f 19 29 30
f 19 30 20
f 20 30 22
f 20 22 21
f 22 30 31
f 22 31 24
f 22 24 23
f 24 31 32
f 24 32 33
f 24 33 34
f 24 34 35
f 25 36 37
f 25 37 26
f 26 38 27
f 26 37 39
f 26 39 38
f 27 38 40
f 27 40 41
f 27 41 28
f 29 42 43
f 29 43 31
f 29 31 30
f 31 43 32
f 32 43 44
f 32 44 33
f 33 44 45
f 33 45 34
f 34 45 46
f 34 46 35
f 35 47 48
f 35 46 49
f 35 49 47
f 36 50 38
f 36 38 39
f 36 39 51
f 36 51 37
f 37 51 39
f 38 50 52
f 38 52 53
f 38 53 54
f 38 54 40
f 42 55 44
f 42 44 43
f 44 55 56
f 44 56 45
f 45 56 46
f 46 56 57
f 46 57 49
f 47 49 58
f 47 58 48
f 48 58 59
f 49 57 58
f 52 60 61
f 52 61 53
f 52 59 60
f 55 62 63
f 55 63 56
f 56 63 57
f 57 64 58
f 57 63 62
f 57 62 64
f 58 61 60
f 58 60 59
f 58 64 61
f 61 64 62

