# https://github.com/mikedh/trimesh
v 0.00137742 -0.01069336 -0.01294754
v -0.00216108 -0.01069336 -0.01290352
v 0.00110212 -0.01157849 -0.01294363
v 0.00110212 -0.01240516 -0.01299743
v 0.00110212 -0.01319897 -0.01313439
v 0.00137742 -0.01420973 -0.01366166
v 0.00137742 -0.01063490 -0.02289629
v -0.00443343 -0.01063490 -0.01804811
v -0.00330721 -0.01069336 -0.01290254
v -0.00192901 -0.01157801 -0.01291526
v 0.00027509 -0.01212928 -0.01295634
v -0.00165314 -0.01240516 -0.01297102
v -0.00110311 -0.01326758 -0.01313243
v -0.00027608 -0.01388167 -0.01334080
v 0.00068860 -0.01434936 -0.01369981
v 0.00137742 -0.01478177 -0.01414980
v 0.00137742 -0.01552583 -0.02150034
v 0.00123977 -0.01553162 -0.02261162
v -0.00055422 -0.01554902 -0.02288651
v -0.00331745 -0.01509775 -0.02289140
v -0.00443343 -0.01121613 -0.02289629
v -0.00174870 -0.01063490 -0.02289629
v -0.00443343 -0.01069336 -0.01292797
v -0.00358251 -0.01157801 -0.01293776
v -0.00275605 -0.01157801 -0.01292113
v -0.00275605 -0.01240516 -0.01300330
v -0.00192901 -0.01317240 -0.01312069
v -0.00110311 -0.01425273 -0.01355699
v -0.00275605 -0.01317289 -0.01316667
v -0.00041430 -0.01466437 -0.01387687
v 0.00027509 -0.01484362 -0.01408817
v 0.00110212 -0.01514752 -0.01462230
v 0.00108847 -0.01544127 -0.01549685
v 0.00137742 -0.01552341 -0.02067372
v 0.00082682 -0.01556496 -0.02205109
v 0.00013516 -0.01557076 -0.02260673
v -0.00175325 -0.01544417 -0.02260771
v -0.00000078 -0.01552921 -0.01654063
v -0.00082725 -0.01549249 -0.01654063
v -0.00248245 -0.01529681 -0.02260673
v -0.00275605 -0.01521081 -0.01654063
v -0.00418544 -0.01487792 -0.02288944
v -0.00435835 -0.01468031 -0.01536967
v -0.00443343 -0.01240516 -0.01308254
v -0.00443343 -0.01157801 -0.01297200
v -0.00358251 -0.01240516 -0.01303656
v -0.00303134 -0.01378890 -0.01346699
v -0.00330721 -0.01426770 -0.01391111
v -0.00163380 -0.01486874 -0.01426230
v -0.00402731 -0.01314100 -0.01324101
v -0.00110311 -0.01514220 -0.01461056
v -0.00000078 -0.01519004 -0.01461056
v 0.00027509 -0.01545577 -0.01547435
v 0.00096447 -0.01552196 -0.01654063
v -0.00181241 -0.01539634 -0.01654063
v -0.00069472 -0.01541953 -0.01544696
v -0.00155304 -0.01537267 -0.01561717
v -0.00303134 -0.01509727 -0.01571304
v -0.00406770 -0.01487212 -0.01652400
v -0.00365702 -0.01487889 -0.01528750
v -0.00333906 -0.01478226 -0.01473186
v -0.00423777 -0.01425321 -0.01422415
v -0.00428384 -0.01368164 -0.01360981
v -0.00248075 -0.01490449 -0.01456164
f 1 2 3
f 1 3 4
f 1 4 5
f 1 5 6
f 1 6 16
f 1 16 34
f 1 34 17
f 1 17 7
f 1 7 8
f 1 8 2
f 2 9 10
f 2 10 3
f 2 8 9
f 3 10 11
f 3 11 4
f 4 11 12
f 4 12 5
f 5 13 14
f 5 14 6
f 5 12 13
f 6 15 16
f 6 14 15
f 7 17 18
f 7 18 19
f 7 19 20
f 7 20 21
f 7 21 22
f 7 22 8
f 8 23 9
f 8 22 21
f 8 21 44
f 8 44 45
f 8 45 23
f 9 23 24
f 9 24 25
f 9 25 10
f 10 25 12
f 10 12 11
f 12 26 27
f 12 27 13
f 12 25 24
f 12 24 26
f 13 27 14
f 14 28 15
f 14 27 29
f 14 29 28
f 15 30 31
f 15 31 16
f 15 28 30
f 16 31 32
f 16 32 33
f 16 33 34
f 17 34 35
f 17 35 18
f 18 35 36
f 18 36 19
f 19 37 20
f 19 36 38
f 19 38 39
f 19 39 37
f 20 37 40
f 20 40 41
f 20 41 42
f 20 42 21
f 21 42 43
f 21 43 44
f 23 45 24
f 24 45 26
f 26 46 27
f 26 45 46
f 27 46 44
f 27 44 29
f 28 29 47
f 28 47 48
f 28 48 49
f 28 49 30
f 29 50 47
f 29 44 50
f 30 49 51
f 30 51 31
f 31 51 52
f 31 52 32
f 32 52 33
f 33 53 54
f 33 54 34
f 33 52 53
f 34 54 35
f 35 54 38
f 35 38 36
f 37 39 55
f 37 55 41
f 37 41 40
f 38 54 53
f 38 53 56
f 38 56 39
f 39 56 57
f 39 57 55
f 41 55 58
f 41 58 59
f 41 59 42
f 42 59 43
f 43 59 60
f 43 60 61
f 43 61 62
f 43 62 63
f 43 63 44
f 44 63 50
f 44 46 45
f 47 63 48
f 47 50 63
f 48 62 64
f 48 64 49
f 48 63 62
f 49 64 51
f 51 64 57
f 51 57 56
f 51 56 52
f 52 56 53
f 55 57 58
f 57 64 60
f 57 60 58
f 58 60 59
f 60 64 61
f 61 64 62

