# https://github.com/mikedh/trimesh
v -0.00158013 0.01558344 -0.02523419
v 0.00217114 0.01161522 -0.02523419
v 0.00117314 0.01549892 -0.02528589
v 0.00054960 0.01558006 -0.02729042
v -0.00165536 0.01558231 -0.03169896
v -0.00256308 0.01545045 -0.02949391
v -0.00319331 0.01529380 -0.02523419
v 0.00217114 0.01047355 -0.03320686
v 0.00212601 0.01189922 -0.03321940
v 0.00164122 0.01524646 -0.03246505
v 0.00139548 0.00943557 -0.02523419
v 0.00217114 0.00875372 -0.03080206
v 0.00017013 0.01531296 -0.03232797
v -0.00275867 0.01486215 -0.03276977
v -0.00324513 0.01528253 -0.03159635
v -0.00479312 0.01490836 -0.03107936
v -0.00526287 0.01464238 -0.02523419
v 0.00211431 0.00902759 -0.03265619
v 0.00060310 0.00879880 -0.03308858
v -0.00992688 0.00407097 -0.03313636
v -0.01115725 0.00443049 -0.03323193
v -0.00957750 0.00703051 -0.03323663
v -0.00313647 0.01150815 -0.03323193
v -0.00179411 0.01212801 -0.03321705
v 0.00037909 0.00805046 -0.02523419
v -0.00130430 0.00705531 -0.02523419
v -0.00851430 0.00407097 -0.03091329
v -0.00882858 0.00407097 -0.03247994
v -0.00510907 0.01391771 -0.03282695
v -0.00725051 0.01323136 -0.03278700
v -0.00664702 0.01413523 -0.03158303
v -0.00548520 0.01464464 -0.02945944
v -0.00698136 0.01395603 -0.02825547
v -0.00710507 0.01382642 -0.02523419
v -0.01156848 0.00407097 -0.02523419
v -0.01432510 0.00439442 -0.03272825
v -0.01093825 0.00603085 -0.03319668
v -0.01198975 0.00868385 -0.03286847
v -0.00757983 0.00957982 -0.03319433
v -0.00496363 0.01143940 -0.03317788
v -0.00500208 0.00568035 -0.02523419
v -0.00923313 0.00407097 -0.02929729
v -0.00890715 0.01217309 -0.03282460
v -0.00833376 0.01324037 -0.03144360
v -0.00814152 0.01332941 -0.02880615
v -0.00792921 0.01341844 -0.02724420
v -0.00850427 0.01300708 -0.02523419
v -0.01471795 0.00484861 -0.02523419
v -0.01490350 0.00461194 -0.03085219
v -0.01425489 0.00566006 -0.03230212
v -0.01356782 0.00703728 -0.03236087
v -0.01103856 0.01036761 -0.03269065
v -0.00984998 0.01218323 -0.03143968
v -0.00999041 0.01191162 -0.02523419
v -0.01402252 0.00657407 -0.02523419
v -0.01459926 0.00543128 -0.02921974
v -0.01414288 0.00659549 -0.03045896
v -0.01310309 0.00830066 -0.03188696
v -0.01122746 0.01091534 -0.03148120
v -0.01114889 0.01080038 -0.02523419
v -0.01292924 0.00849902 -0.02523419
v -0.01295264 0.00859819 -0.02825547
v -0.01248624 0.00934879 -0.03142323
v -0.01155344 0.01044650 -0.02673896
f 1 2 3
f 1 3 4
f 1 4 5
f 1 5 6
f 1 6 7
f 1 7 17
f 1 17 34
f 1 34 47
f 1 47 54
f 1 54 60
f 1 60 61
f 1 61 55
f 1 55 48
f 1 48 35
f 1 35 41
f 1 41 26
f 1 26 25
f 1 25 11
f 1 11 2
f 2 8 9
f 2 9 10
f 2 10 3
f 2 11 12
f 2 12 8
f 3 10 4
f 4 10 5
f 5 10 13
f 5 13 14
f 5 14 15
f 5 15 6
f 6 15 16
f 6 16 7
f 7 16 17
f 8 12 18
f 8 18 19
f 8 19 20
f 8 20 21
f 8 21 9
f 9 21 22
f 9 22 23
f 9 23 24
f 9 24 14
f 9 14 10
f 10 14 13
f 11 25 12
f 12 25 26
f 12 26 27
f 12 27 28
f 12 28 18
f 14 29 30
f 14 30 31
f 14 31 15
f 14 24 29
f 15 31 16
f 16 31 32
f 16 32 17
f 17 32 33
f 17 33 34
f 18 28 20
f 18 20 19
f 20 28 27
f 20 27 42
f 20 42 35
f 20 35 36
f 20 36 21
f 21 37 22
f 21 36 37
f 22 37 38
f 22 38 39
f 22 39 23
f 23 39 40
f 23 40 24
f 24 40 29
f 26 41 27
f 27 41 42
f 29 40 30
f 30 40 43
f 30 43 44
f 30 44 31
f 31 44 33
f 31 33 32
f 33 44 45
f 33 45 46
f 33 46 34
f 34 46 47
f 35 48 49
f 35 49 36
f 35 42 41
f 36 49 50
f 36 50 51
f 36 51 38
f 36 38 37
f 38 51 52
f 38 52 43
f 38 43 39
f 39 43 40
f 43 52 53
f 43 53 44
f 44 53 45
f 45 53 47
f 45 47 46
f 47 53 54
f 48 55 56
f 48 56 49
f 49 56 57
f 49 57 50
f 50 57 58
f 50 58 51
f 51 58 52
f 52 58 59
f 52 59 53
f 53 59 54
f 54 59 60
f 55 57 56
f 55 61 62
f 55 62 57
f 57 62 63
f 57 63 58
f 58 63 59
f 59 63 64
f 59 64 60
f 60 64 61
f 61 64 62
f 62 64 63

