# https://github.com/mikedh/trimesh
v 0.00201145 -0.00955895 0.01560162
v 0.00614888 -0.00713874 0.01630652
v 0.00497550 -0.00697111 0.02119231
v 0.00303178 -0.00756251 0.02342594
v 0.00045545 -0.00756628 0.02565957
v -0.00165492 -0.00947797 0.01616113
v -0.00205115 -0.00816709 -0.01185399
v 0.00179038 -0.00817274 -0.01185399
v 0.00648048 -0.00561692 -0.01185399
v 0.00721342 -0.00489933 -0.00870840
v 0.00826945 -0.00251489 -0.00654085
v 0.00839870 -0.00214009 0.00463612
v 0.00859086 0.00084705 0.00332766
v 0.00328856 0.00649360 0.02195448
v 0.00098262 -0.00123792 0.03315347
v 0.00387695 -0.00671496 0.02469916
v 0.00224273 -0.00620832 0.02945719
v -0.00000539 -0.00661891 0.02922810
v -0.00402718 -0.00792413 0.01517428
v -0.00606783 -0.00615181 -0.00799029
v -0.00555087 -0.00619513 -0.01185399
v 0.00325625 0.00782142 -0.01185399
v 0.00686310 0.00499626 -0.01136937
v 0.00857895 0.00070956 -0.01102574
v 0.00816402 -0.00267875 -0.01074818
v 0.00887145 -0.00003817 -0.00054925
v 0.00832217 0.00252519 -0.00027170
v 0.00732905 0.00448397 0.00451276
v 0.00661142 0.00507537 0.00862318
v 0.00419495 0.00838834 0.01504652
v 0.00285322 0.00760671 0.02167252
v 0.00059320 0.00465913 0.03186704
v 0.00093161 -0.00470910 0.03221508
v -0.00193721 0.00465536 0.03006075
v -0.00166342 -0.00630437 0.02595475
v -0.00677186 -0.00440210 0.00646444
v -0.00758642 -0.00339446 -0.00413099
v -0.00789422 -0.00260153 -0.00922826
v -0.00832786 0.00047789 -0.01184958
v -0.00730753 0.00386620 -0.01184958
v 0.00656381 0.00570255 -0.00545708
v -0.00500669 0.00670266 -0.01184958
v -0.00154609 0.00825273 -0.01184958
v -0.00000029 0.00968226 0.01591442
v 0.00852114 0.00144033 -0.00663777
v 0.00868779 0.00105046 -0.00308687
v 0.00257773 0.00894395 0.01765022
v 0.00112887 0.00738446 0.02525426
v -0.00168893 0.00555188 0.02985369
v -0.00439450 0.00723567 0.01928469
v -0.00558658 0.00658400 0.01529323
v -0.00781089 0.00174921 0.00464934
v -0.00805067 -0.00095917 0.00287389
v -0.00807958 -0.00192726 -0.00606064
v -0.00844859 0.00057583 -0.00838679
v -0.00850131 0.00048166 -0.00564652
v -0.00769695 0.00323148 -0.00654085
v -0.00508322 0.00695881 -0.00849252
v -0.00274157 0.00905319 0.01607742
v -0.00194571 0.00643144 0.02713104
v -0.00264124 0.00714903 0.02350965
v -0.00782279 0.00276627 -0.00013513
v -0.00836697 0.00118230 -0.00275205
f 1 2 3
f 1 3 4
f 1 4 5
f 1 5 6
f 1 6 7
f 1 7 8
f 1 8 9
f 1 9 2
f 2 9 10
f 2 10 11
f 2 11 12
f 2 12 13
f 2 13 3
f 3 14 15
f 3 15 16
f 3 16 4
f 3 13 14
f 4 16 17
f 4 17 5
f 5 17 18
f 5 18 6
f 6 18 19
f 6 19 20
f 6 20 7
f 7 20 21
f 7 21 22
f 7 22 9
f 7 9 8
f 9 22 23
f 9 23 24
f 9 24 25
f 9 25 10
f 10 25 11
f 11 26 12
f 11 25 26
f 12 26 13
f 13 26 27
f 13 27 28
f 13 28 29
f 13 29 14
f 14 29 30
f 14 30 31
f 14 31 32
f 14 32 15
f 15 33 17
f 15 17 16
f 15 32 34
f 15 34 33
f 17 33 18
f 18 33 35
f 18 35 19
f 19 36 20
f 19 35 36
f 20 37 38
f 20 38 21
f 20 36 37
f 21 38 39
f 21 39 40
f 21 40 22
f 22 41 23
f 22 40 42
f 22 42 43
f 22 43 44
f 22 44 30
f 22 30 41
f 23 41 27
f 23 27 45
f 23 45 24
f 24 45 46
f 24 46 26
f 24 26 25
f 26 46 27
f 27 46 45
f 27 41 28
f 28 41 30
f 28 30 29
f 30 44 47
f 30 47 31
f 31 47 48
f 31 48 32
f 32 49 34
f 32 48 49
f 33 34 35
f 34 49 50
f 34 50 51
f 34 51 52
f 34 52 53
f 34 53 36
f 34 36 35
f 36 53 37
f 37 54 38
f 37 53 54
f 38 55 39
f 38 54 56
f 38 56 55
f 39 55 40
f 40 55 57
f 40 57 51
f 40 51 58
f 40 58 42
f 42 58 43
f 43 58 59
f 43 59 44
f 44 59 60
f 44 60 48
f 44 48 47
f 48 60 49
f 49 60 50
f 50 59 51
f 50 60 61
f 50 61 59
f 51 59 58
f 51 57 62
f 51 62 52
f 52 62 63
f 52 63 53
f 53 63 56
f 53 56 54
f 55 56 63
f 55 63 57
f 57 63 62
f 59 61 60

