# https://github.com/mikedh/trimesh
v -0.01128671 0.00422613 -0.02266195
v -0.01480193 0.00447887 -0.02266195
v -0.00996389 0.00650810 -0.02266195
v -0.00996389 0.00422613 -0.01956802
v -0.01209518 0.00434121 -0.01292646
v -0.01473372 0.00445629 -0.01598668
v -0.01476072 0.00445629 -0.01709152
v -0.01442777 0.00553282 -0.02266195
v -0.01440266 0.00548402 -0.01681603
v -0.01029826 0.01160522 -0.02266195
v -0.01019170 0.01164310 -0.01601847
v -0.01008419 0.01019874 -0.01356316
v -0.00999373 0.00584310 -0.01283014
v -0.01008182 0.00451529 -0.01282243
v -0.01100396 0.00445629 -0.01282243
v -0.01008182 0.00700995 -0.01286770
v -0.01075105 0.00689268 -0.01293417
v -0.01130234 0.00634058 -0.01296981
v -0.01281082 0.00457137 -0.01318461
v -0.01368087 0.00446212 -0.01374425
v -0.01436146 0.00549276 -0.01599342
v -0.01445713 0.00466023 -0.01499261
v -0.01391626 0.00670403 -0.02266195
v -0.01391057 0.00661517 -0.01654055
v -0.01154341 0.01032548 -0.02266195
v -0.01104422 0.01088050 -0.02249435
v -0.01021964 0.01166713 -0.01681603
v -0.01157467 0.01020238 -0.01654055
v -0.01153584 0.01015723 -0.01571312
v -0.01104990 0.01049883 -0.01502151
v -0.01031200 0.01127017 -0.01504945
v -0.01027411 0.01080620 -0.01424225
v -0.01091066 0.01002612 -0.01414689
v -0.01259722 0.00705729 -0.01375677
v -0.01165945 0.00751107 -0.01332717
v -0.01113326 0.00810396 -0.01327226
v -0.01007045 0.00946018 -0.01326359
v -0.01008182 0.00780751 -0.01292742
v -0.01107453 0.00732242 -0.01306613
v -0.01209802 0.00665669 -0.01328093
v -0.01290792 0.00556997 -0.01347358
v -0.01302443 0.00624880 -0.01379145
v -0.01385232 0.00555685 -0.01444742
v -0.01387695 0.00632383 -0.01530374
v -0.01383669 0.00686646 -0.02150028
v -0.01338627 0.00771719 -0.02257815
v -0.01256359 0.00898965 -0.02266195
v -0.01327545 0.00759628 -0.01547616
v -0.01332944 0.00768369 -0.01654055
v -0.01336780 0.00774851 -0.02150028
v -0.01171155 0.01009386 -0.02067286
v -0.01133313 0.01049883 -0.01736701
v -0.01223916 0.00933199 -0.01654055
v -0.01218991 0.00925624 -0.01547520
v -0.01167366 0.00970272 -0.01494638
v -0.01213970 0.00883961 -0.01458805
v -0.01253233 0.00778348 -0.01417579
v -0.01322761 0.00709662 -0.01454471
v -0.01035889 0.00877114 -0.01317401
v -0.01295291 0.00839676 -0.02067286
v -0.01271799 0.00860507 -0.01598861
v -0.01279330 0.00823142 -0.01512651
v -0.01282645 0.00848999 -0.01681603
f 1 2 8
f 1 8 23
f 1 23 47
f 1 47 25
f 1 25 10
f 1 10 3
f 1 3 4
f 1 4 5
f 1 5 6
f 1 6 7
f 1 7 2
f 2 7 9
f 2 9 8
f 3 10 11
f 3 11 12
f 3 12 13
f 3 13 4
f 4 13 14
f 4 14 5
f 5 14 15
f 5 15 16
f 5 16 17
f 5 17 18
f 5 18 19
f 5 19 20
f 5 20 6
f 6 21 9
f 6 9 7
f 6 20 22
f 6 22 21
f 8 9 24
f 8 24 23
f 9 21 24
f 10 25 26
f 10 26 27
f 10 27 11
f 11 27 28
f 11 28 29
f 11 29 30
f 11 30 31
f 11 31 32
f 11 32 12
f 12 32 33
f 12 33 34
f 12 34 35
f 12 35 36
f 12 36 37
f 12 37 13
f 13 37 38
f 13 38 16
f 13 16 15
f 13 15 14
f 16 38 17
f 17 38 39
f 17 39 18
f 18 39 40
f 18 40 19
f 19 40 41
f 19 41 20
f 20 41 42
f 20 42 43
f 20 43 22
f 21 22 44
f 21 44 24
f 22 43 44
f 23 24 45
f 23 45 46
f 23 46 47
f 24 44 48
f 24 48 49
f 24 49 50
f 24 50 45
f 25 47 51
f 25 51 28
f 25 28 52
f 25 52 26
f 26 52 27
f 27 52 28
f 28 53 29
f 28 51 53
f 29 54 55
f 29 55 30
f 29 53 54
f 30 55 33
f 30 33 32
f 30 32 31
f 33 55 56
f 33 56 57
f 33 57 34
f 34 41 40
f 34 40 35
f 34 57 58
f 34 58 42
f 34 42 41
f 35 40 36
f 36 40 39
f 36 39 59
f 36 59 37
f 37 59 38
f 38 59 39
f 42 58 43
f 43 58 44
f 44 58 48
f 45 50 46
f 46 50 60
f 46 60 47
f 47 60 53
f 47 53 51
f 48 61 49
f 48 58 62
f 48 62 61
f 49 63 60
f 49 60 50
f 49 61 63
f 53 60 63
f 53 63 61
f 53 61 54
f 54 61 62
f 54 62 55
f 55 62 56
f 56 62 58
f 56 58 57

