# https://github.com/mikedh/trimesh
v 0.00865170 -0.01288627 -0.01736713
v 0.00865170 -0.00629505 -0.02275968
v 0.00897802 -0.01267726 -0.02275968
v 0.00903272 -0.01263421 -0.01736713
v 0.00896544 -0.01266650 -0.01653979
v 0.00892017 -0.01233550 -0.01496354
v 0.00865610 -0.01147796 -0.01380526
v 0.00865170 -0.00372333 -0.01298940
v 0.00865170 -0.00372333 -0.02030157
v 0.01154457 -0.00372333 -0.02275968
v 0.01209536 -0.00978800 -0.02275968
v 0.01108684 -0.01088594 -0.02254256
v 0.01001923 -0.01186996 -0.02254256
v 0.00907170 -0.01261089 -0.02122456
v 0.00968284 -0.01215251 -0.01709167
v 0.00965204 -0.01212740 -0.01598887
v 0.01053417 -0.01135149 -0.01571341
v 0.01070708 -0.01078458 -0.01474451
v 0.01045809 -0.01015577 -0.01387604
v 0.00978219 -0.00971983 -0.01329547
v 0.00866490 -0.01035940 -0.01321321
v 0.00887427 -0.00922019 -0.01306209
v 0.00887427 -0.00744322 -0.01303339
v 0.01157852 -0.00382648 -0.01304487
v 0.01451856 -0.00379150 -0.01441835
v 0.01505614 -0.00392964 -0.02275968
v 0.01267695 -0.00906681 -0.02275968
v 0.01219030 -0.00972073 -0.01653979
v 0.01148233 -0.01052534 -0.01681621
v 0.01042540 -0.01153448 -0.01736713
v 0.01057567 -0.01138826 -0.01653979
v 0.01211296 -0.00962744 -0.01540256
v 0.01145843 -0.01049933 -0.01598887
v 0.01151251 -0.00988667 -0.01465651
v 0.01118053 -0.00942471 -0.01391238
v 0.01273857 -0.00498452 -0.01335477
v 0.00995132 -0.00881026 -0.01315295
v 0.01208781 -0.00747731 -0.01369431
v 0.01217395 -0.00495313 -0.01317782
v 0.01262917 -0.00394848 -0.01319982
v 0.01417966 -0.00458087 -0.01432462
v 0.01378606 -0.00606811 -0.01460104
v 0.01449215 -0.00520877 -0.01533752
v 0.01493290 -0.00411084 -0.01556229
v 0.01507437 -0.00392964 -0.01653979
v 0.01361882 -0.00408931 -0.01365318
v 0.01474868 -0.00497376 -0.02275968
v 0.01314411 -0.00835010 -0.02275968
v 0.01316423 -0.00836445 -0.01650153
v 0.01268135 -0.00910358 -0.01653979
v 0.01264048 -0.00904618 -0.01563115
v 0.01300579 -0.00767644 -0.01467756
v 0.01299824 -0.00673100 -0.01408072
v 0.01296115 -0.00575685 -0.01366083
v 0.01363894 -0.00535947 -0.01406064
v 0.01375840 -0.00669153 -0.01508310
v 0.01376343 -0.00717771 -0.01594965
v 0.01432805 -0.00607349 -0.01657040
v 0.01476629 -0.00493788 -0.01653979
v 0.01475308 -0.00501143 -0.01736713
v 0.01428215 -0.00616857 -0.02275968
v 0.01381939 -0.00716605 -0.02254256
v 0.01312902 -0.00830614 -0.01571341
v 0.01385397 -0.00712568 -0.01709167
f 1 2 3
f 1 3 4
f 1 4 5
f 1 5 6
f 1 6 7
f 1 7 8
f 1 8 9
f 1 9 2
f 2 9 10
f 2 10 26
f 2 26 47
f 2 47 61
f 2 61 48
f 2 48 27
f 2 27 11
f 2 11 3
f 3 11 12
f 3 12 13
f 3 13 14
f 3 14 4
f 4 14 15
f 4 15 5
f 5 15 16
f 5 16 6
f 6 17 18
f 6 18 7
f 6 16 17
f 7 19 20
f 7 20 21
f 7 21 8
f 7 18 19
f 8 21 22
f 8 22 23
f 8 23 24
f 8 24 25
f 8 25 10
f 8 10 9
f 10 25 26
f 11 27 28
f 11 28 29
f 11 29 12
f 12 29 30
f 12 30 13
f 13 30 15
f 13 15 14
f 15 30 31
f 15 31 16
f 16 31 17
f 17 32 18
f 17 31 33
f 17 33 32
f 18 32 34
f 18 34 19
f 19 34 35
f 19 35 20
f 20 36 37
f 20 37 21
f 20 35 38
f 20 38 36
f 21 37 22
f 22 24 23
f 22 37 24
f 24 37 39
f 24 39 40
f 24 40 25
f 25 41 42
f 25 42 43
f 25 43 44
f 25 44 45
f 25 45 26
f 25 40 46
f 25 46 41
f 26 45 47
f 27 48 49
f 27 49 50
f 27 50 28
f 28 50 51
f 28 51 33
f 28 33 29
f 29 33 31
f 29 31 30
f 32 33 51
f 32 51 34
f 34 51 52
f 34 52 35
f 35 52 53
f 35 53 38
f 36 38 54
f 36 54 46
f 36 46 40
f 36 40 39
f 36 39 37
f 38 53 54
f 41 46 55
f 41 55 42
f 42 55 53
f 42 53 52
f 42 52 56
f 42 56 43
f 43 56 57
f 43 57 58
f 43 58 59
f 43 59 44
f 44 59 45
f 45 59 60
f 45 60 47
f 46 54 55
f 47 60 61
f 48 61 62
f 48 62 49
f 49 57 63
f 49 63 51
f 49 51 50
f 49 62 64
f 49 64 57
f 51 63 52
f 52 63 56
f 53 55 54
f 56 63 57
f 57 64 58
f 58 64 61
f 58 61 60
f 58 60 59
f 61 64 62

