# https://github.com/mikedh/trimesh
v -0.00174870 -0.01063490 -0.02289629
v -0.00443343 -0.00573583 -0.02152681
v -0.00443343 -0.00524677 -0.02160139
v -0.00443343 -0.00468679 -0.02168138
v -0.00443343 -0.00415327 -0.02169543
v -0.00443343 -0.00358376 -0.02167814
v -0.00443343 -0.00303224 -0.02165219
v -0.00443343 0.00017840 -0.02144358
v -0.00139093 -0.00964725 -0.02289629
v 0.00137742 -0.01063490 -0.02289629
v -0.00443343 -0.01063490 -0.01804961
v -0.00443343 -0.00807951 -0.02048592
v -0.00443343 -0.00794507 -0.02059941
v -0.00443343 -0.00767831 -0.02079830
v -0.00443343 -0.00743060 -0.02097988
v -0.00443343 -0.00690767 -0.02121444
v 0.00137742 0.00017840 -0.02138954
v 0.00137742 -0.00681663 -0.02289629
v 0.00036837 -0.00731628 -0.02289629
v 0.00032173 -0.00734063 -0.02289629
v -0.00012933 -0.00761374 -0.02289629
v -0.00013786 -0.00762115 -0.02289629
v -0.00040520 -0.00787838 -0.02289629
v -0.00062931 -0.00815361 -0.02289629
v -0.00063670 -0.00816419 -0.02289629
v -0.00087730 -0.00855586 -0.02289629
v -0.00106785 -0.00889461 -0.02289629
v -0.00119299 -0.00916984 -0.02289629
v -0.00119924 -0.00918466 -0.02289629
v -0.00443343 0.00017840 -0.01185398
v 0.00137742 -0.01063490 -0.01294892
v -0.00443343 -0.01063490 -0.01292838
v 0.00137742 0.00017840 -0.01185398
v -0.00443343 -0.00712891 -0.01185398
v 0.00137742 -0.00836426 -0.01185506
v 0.00082682 -0.00846589 -0.01185398
v 0.00027509 -0.00852728 -0.01185398
v -0.00181355 -0.01063490 -0.01290568
v -0.00358308 -0.01063490 -0.01290676
v -0.00027608 -0.00852728 -0.01185398
v -0.00082725 -0.00846377 -0.01185398
v -0.00137841 -0.00836744 -0.01185398
v -0.00174927 -0.00829122 -0.01185398
v -0.00202457 -0.00823088 -0.01185398
v -0.00248075 -0.00810386 -0.01185398
v -0.00303191 -0.00790061 -0.01185398
v -0.00337319 -0.00775135 -0.01185398
v -0.00364849 -0.00761162 -0.01185398
v -0.00367466 -0.00759680 -0.01185398
v -0.00417804 -0.00730569 -0.01185398
v -0.00440443 -0.00716279 -0.01185398
v -0.00443343 -0.00714056 -0.01185614
v 0.00137742 -0.00829334 -0.01185398
v -0.00303191 -0.01063490 -0.01290136
v -0.00236471 -0.01063490 -0.01290352
f 1 2 3
f 1 3 4
f 1 4 5
f 1 5 6
f 1 6 7
f 1 7 8
f 1 8 9
f 1 9 29
f 1 29 28
f 1 28 27
f 1 27 26
f 1 26 25
f 1 25 24
f 1 24 23
f 1 23 22
f 1 22 21
f 1 21 20
f 1 20 19
f 1 19 18
f 1 18 10
f 1 10 31
f 1 31 38
f 1 38 55
f 1 55 54
f 1 54 39
f 1 39 32
f 1 32 11
f 1 11 12
f 1 12 13
f 1 13 14
f 1 14 15
f 1 15 16
f 1 16 2
f 2 16 15
f 2 15 14
f 2 14 13
f 2 13 12
f 2 12 11
f 2 11 32
f 2 32 52
f 2 52 34
f 2 34 30
f 2 30 8
f 2 8 7
f 2 7 6
f 2 6 5
f 2 5 4
f 2 4 3
f 8 17 18
f 8 18 19
f 8 19 20
f 8 20 21
f 8 21 22
f 8 22 23
f 8 23 24
f 8 24 25
f 8 25 26
f 8 26 27
f 8 27 28
f 8 28 29
f 8 29 9
f 8 30 33
f 8 33 17
f 10 18 17
f 10 17 33
f 10 33 53
f 10 53 35
f 10 35 31
f 30 34 51
f 30 51 50
f 30 50 49
f 30 49 48
f 30 48 47
f 30 47 46
f 30 46 45
f 30 45 44
f 30 44 43
f 30 43 42
f 30 42 41
f 30 41 40
f 30 40 37
f 30 37 36
f 30 36 53
f 30 53 33
f 31 35 36
f 31 36 37
f 31 37 38
f 32 39 40
f 32 40 41
f 32 41 42
f 32 42 43
f 32 43 44
f 32 44 45
f 32 45 46
f 32 46 47
f 32 47 48
f 32 48 49
f 32 49 50
f 32 50 51
f 32 51 52
f 34 52 51
f 35 53 36
f 37 40 54
f 37 54 55
f 37 55 38
f 39 54 40

