# https://github.com/mikedh/trimesh
v -0.00000016 0.00857647 -0.01185398
v -0.00110200 0.00847416 -0.01185398
v 0.00082653 0.00850877 -0.01185398
v 0.00110231 0.01323763 -0.01313926
v -0.00110200 0.01326171 -0.01310964
v -0.00248086 0.01295478 -0.01304406
v -0.00221999 0.00819882 -0.01185398
v -0.00366655 0.01240260 -0.01297001
v 0.00231346 0.00817475 -0.01185398
v 0.00227868 0.01344827 -0.01329477
v 0.00013773 0.01415843 -0.01352961
v -0.00220509 0.01337756 -0.01316994
v -0.00333301 0.01318197 -0.01317734
v -0.00327649 0.00780162 -0.01185398
v -0.00366655 0.00017946 -0.01185398
v -0.00362493 0.01453157 -0.01440550
v -0.00366655 0.01502356 -0.01649051
v 0.00267867 0.00017946 -0.01185398
v 0.00257930 0.01505817 -0.01489316
v 0.00226874 0.01432093 -0.01385860
v 0.00124019 0.01444581 -0.01382157
v -0.00115790 0.01425472 -0.01360577
v -0.00248086 0.01363785 -0.01330957
v -0.00317960 0.01413286 -0.01378560
v -0.00366655 0.00017946 -0.02143168
v -0.00208459 0.01499347 -0.01462659
v -0.00344419 0.01488965 -0.01518619
v -0.00248086 0.01524323 -0.01571299
v -0.00248086 0.01531996 -0.01654022
v -0.00365599 0.01507020 -0.01757374
v 0.00267867 0.00017946 -0.02139043
v 0.00267867 0.01178271 -0.02265984
v 0.00257930 0.01531244 -0.01601342
v 0.00168490 0.01536058 -0.01550565
v 0.00186627 0.01493028 -0.01444358
v 0.00055076 0.01498143 -0.01436636
v -0.00055108 0.01499949 -0.01435261
v -0.00325103 0.00598410 -0.02265984
v -0.00358270 0.01514092 -0.02177548
v -0.00338208 0.01520561 -0.02265984
v -0.00166410 0.01537262 -0.01547392
v -0.00163615 0.01545688 -0.01681632
v -0.00209453 0.01545086 -0.01925359
v -0.00210074 0.01547493 -0.02067215
v -0.00303116 0.01528686 -0.02177548
v -0.00214360 0.00630457 -0.02265984
v 0.00070666 0.00770683 -0.02265984
v 0.00149174 0.00859754 -0.02265984
v -0.00115604 0.01555016 -0.02265984
v 0.00215446 0.01539970 -0.02261858
v 0.00137808 0.01546591 -0.01681632
v 0.00055511 0.01546290 -0.01586532
v -0.00055108 0.01544183 -0.01548344
v -0.00223055 0.01546891 -0.02265984
v -0.00055108 0.01550803 -0.01660898
v -0.00137715 0.01552609 -0.01929484
v -0.00163615 0.01549148 -0.01846761
v -0.00055108 0.01553211 -0.01846761
v -0.00000016 0.01553662 -0.02067215
v -0.00005482 0.01554264 -0.02257733
v 0.00077188 0.01551706 -0.02249376
v 0.00137808 0.01548246 -0.02177548
v 0.00055076 0.01550502 -0.01709136
v 0.00027561 0.01551706 -0.01791648
f 1 2 7
f 1 7 14
f 1 14 15
f 1 15 18
f 1 18 9
f 1 9 3
f 1 3 4
f 1 4 5
f 1 5 6
f 1 6 2
f 2 6 8
f 2 8 7
f 3 9 4
f 4 10 11
f 4 11 5
f 4 9 10
f 5 12 6
f 5 11 12
f 6 12 13
f 6 13 8
f 7 8 14
f 8 15 14
f 8 13 16
f 8 16 17
f 8 17 25
f 8 25 15
f 9 18 19
f 9 19 10
f 10 20 21
f 10 21 11
f 10 19 20
f 11 21 22
f 11 22 23
f 11 23 12
f 12 23 13
f 13 23 24
f 13 24 16
f 15 25 31
f 15 31 18
f 16 24 26
f 16 26 27
f 16 27 17
f 17 28 29
f 17 29 30
f 17 30 25
f 17 27 28
f 18 31 32
f 18 32 19
f 19 33 34
f 19 34 35
f 19 35 20
f 19 32 33
f 20 35 21
f 21 35 36
f 21 36 37
f 21 37 22
f 22 24 23
f 22 37 24
f 24 37 26
f 25 38 31
f 25 30 39
f 25 39 40
f 25 40 38
f 26 37 41
f 26 41 27
f 27 41 28
f 28 41 29
f 29 41 42
f 29 42 43
f 29 43 44
f 29 44 45
f 29 45 30
f 30 40 39
f 30 45 40
f 31 38 46
f 31 46 47
f 31 47 48
f 31 48 32
f 32 49 50
f 32 50 33
f 32 48 47
f 32 47 46
f 32 46 38
f 32 38 40
f 32 40 54
f 32 54 49
f 33 50 51
f 33 51 34
f 34 51 52
f 34 52 53
f 34 53 36
f 34 36 35
f 36 53 37
f 37 53 41
f 40 45 54
f 41 53 42
f 42 55 56
f 42 56 57
f 42 57 43
f 42 53 55
f 43 57 44
f 44 57 56
f 44 56 49
f 44 49 54
f 44 54 45
f 49 56 58
f 49 58 59
f 49 59 60
f 49 60 50
f 50 60 61
f 50 61 62
f 50 62 51
f 51 62 61
f 51 61 63
f 51 63 52
f 52 63 55
f 52 55 53
f 55 58 56
f 55 63 58
f 58 63 64
f 58 64 59
f 59 64 63
f 59 63 61
f 59 61 60

