# https://github.com/mikedh/trimesh
v 0.01565446 -0.00004854 -0.03169841
v 0.01557201 -0.00004854 -0.02264136
v 0.01557848 -0.00082762 -0.02425846
v 0.01563668 -0.00082762 -0.03169841
v 0.01555908 -0.00004854 -0.03243279
v 0.01458909 0.00017946 -0.03306376
v 0.01552998 -0.00121830 -0.02264136
v 0.01556959 -0.00082762 -0.02343215
v 0.00767229 0.00017946 -0.03141113
v 0.00739665 -0.00004625 -0.02264136
v 0.01554372 -0.00137870 -0.02398372
v 0.01558252 -0.00137870 -0.02949421
v 0.01559222 -0.00137870 -0.03169841
v 0.01554130 -0.00082762 -0.03242548
v 0.01517513 -0.00004854 -0.03285274
v 0.01460930 -0.00303157 -0.03296870
v 0.01405803 -0.00372205 -0.03306063
v 0.01185212 -0.00165405 -0.03328105
v 0.01185212 0.00017946 -0.03327791
v 0.01542247 -0.00220094 -0.02264136
v 0.00866652 -0.00372205 -0.03193554
v 0.00853396 -0.00372205 -0.03114266
v 0.00795681 0.00017946 -0.03251741
v 0.00780808 -0.00073558 -0.02264136
v 0.01552190 -0.00192902 -0.02977000
v 0.01548229 -0.00210317 -0.03177989
v 0.01547016 -0.00138748 -0.03248294
v 0.01551866 -0.00192902 -0.03114788
v 0.01516058 -0.00082762 -0.03283080
v 0.01503044 -0.00303157 -0.03270231
v 0.01479279 -0.00365254 -0.03277230
v 0.01130246 -0.00372205 -0.03327060
v 0.01185212 -0.00365254 -0.03323926
v 0.01185212 -0.00248049 -0.03326747
v 0.01515653 -0.00366973 -0.03194077
v 0.01511854 -0.00366744 -0.02264136
v 0.01153930 -0.00372205 -0.02264136
v 0.01130246 -0.00192902 -0.03330298
v 0.01130246 -0.00137870 -0.03330716
v 0.01130246 -0.00082762 -0.03330716
v 0.01130246 -0.00004854 -0.03330403
v 0.01048767 -0.00004854 -0.03330403
v 0.00969632 0.00017946 -0.03327687
v 0.01529637 -0.00287499 -0.02264136
v 0.01532547 -0.00303157 -0.02729106
v 0.01545400 -0.00230405 -0.02839107
v 0.00906098 -0.00372205 -0.03250592
v 0.00870209 -0.00372205 -0.03059631
v 0.00821709 -0.00115109 -0.02264136
v 0.00914505 0.00017946 -0.03322777
v 0.00864712 -0.00004854 -0.03309719
v 0.01532952 -0.00303157 -0.02784263
v 0.01545480 -0.00229145 -0.03114788
v 0.01531416 -0.00303157 -0.03169841
v 0.01524787 -0.00303157 -0.03224998
v 0.01540226 -0.00192902 -0.03240459
v 0.01075118 -0.00372205 -0.03326955
v 0.01519857 -0.00365254 -0.02784263
v 0.01519453 -0.00365254 -0.02729106
v 0.00888396 -0.00372205 -0.03006355
v 0.01075118 -0.00137870 -0.03330612
v 0.01075118 -0.00082762 -0.03331343
v 0.01019991 -0.00082762 -0.03329045
v 0.00995175 -0.00372205 -0.03311912
f 1 2 3
f 1 3 4
f 1 4 5
f 1 5 6
f 1 6 2
f 2 7 8
f 2 8 3
f 2 6 9
f 2 9 10
f 2 10 24
f 2 24 49
f 2 49 37
f 2 37 36
f 2 36 44
f 2 44 20
f 2 20 7
f 3 8 11
f 3 11 4
f 4 11 12
f 4 12 13
f 4 13 14
f 4 14 5
f 5 14 15
f 5 15 6
f 6 15 16
f 6 16 17
f 6 17 18
f 6 18 19
f 6 19 43
f 6 43 50
f 6 50 23
f 6 23 9
f 7 20 11
f 7 11 8
f 9 21 22
f 9 22 10
f 9 23 21
f 10 22 24
f 11 20 25
f 11 25 12
f 12 25 13
f 13 26 27
f 13 27 14
f 13 25 28
f 13 28 26
f 14 27 15
f 15 29 16
f 15 27 29
f 16 29 30
f 16 30 31
f 16 31 17
f 17 32 33
f 17 33 34
f 17 34 18
f 17 31 35
f 17 35 36
f 17 36 37
f 17 37 60
f 17 60 48
f 17 48 22
f 17 22 21
f 17 21 47
f 17 47 64
f 17 64 57
f 17 57 32
f 18 34 38
f 18 38 39
f 18 39 40
f 18 40 19
f 19 40 41
f 19 41 42
f 19 42 43
f 20 44 45
f 20 45 46
f 20 46 25
f 21 23 47
f 22 48 49
f 22 49 24
f 23 50 51
f 23 51 47
f 25 46 52
f 25 52 53
f 25 53 28
f 26 28 53
f 26 53 54
f 26 54 55
f 26 55 56
f 26 56 27
f 27 56 30
f 27 30 29
f 30 56 55
f 30 55 31
f 31 55 35
f 32 34 33
f 32 57 38
f 32 38 34
f 35 54 58
f 35 58 36
f 35 55 54
f 36 58 59
f 36 59 44
f 37 49 60
f 38 61 62
f 38 62 39
f 38 57 61
f 39 62 40
f 40 62 41
f 41 62 42
f 42 62 43
f 43 57 50
f 43 62 63
f 43 63 57
f 44 59 45
f 45 59 58
f 45 58 52
f 45 52 46
f 47 51 64
f 48 60 49
f 50 57 64
f 50 64 51
f 52 58 54
f 52 54 53
f 57 63 61
f 61 63 62

