# https://github.com/mikedh/trimesh
v 0.01136733 0.00572770 0.01787509
v 0.01112164 0.00572770 0.02036702
v 0.01122553 0.00551404 0.01982587
v 0.01137225 0.00538390 0.01787509
v 0.00865840 0.00572770 0.01787509
v 0.01115113 0.00538390 0.02036702
v 0.01100722 0.00572770 0.02083517
v 0.01132662 0.00491928 0.01787509
v 0.01113077 0.00491579 0.01989886
v 0.00420085 0.00175942 0.01787509
v 0.00420085 0.00356311 0.01788615
v 0.00906766 0.00572770 0.02036702
v 0.01103600 0.00538390 0.02083517
v 0.01096510 0.00491579 0.02083517
v 0.01107040 0.00491579 0.02036702
v 0.01085279 0.00572770 0.02116178
v 0.01105987 0.00444767 0.01943144
v 0.01097002 0.00397956 0.01896291
v 0.01089420 0.00353126 0.01787509
v 0.01100301 0.00444767 0.01989886
v 0.00772056 0.00175942 0.02160118
v 0.00420085 0.00192608 0.02156027
v 0.00991284 0.00176797 0.01787509
v 0.00952254 0.00175942 0.02001461
v 0.00420085 0.00351688 0.01840481
v 0.00918489 0.00572770 0.02083517
v 0.01086753 0.00538390 0.02118095
v 0.01081277 0.00476739 0.02113081
v 0.01070397 0.00397878 0.02082485
v 0.01073626 0.00373482 0.02035412
v 0.01053479 0.00572770 0.02131845
v 0.01092298 0.00397956 0.01943144
v 0.01076153 0.00352465 0.01943144
v 0.01078540 0.00346716 0.01896291
v 0.01045406 0.00255813 0.01787509
v 0.00729166 0.00188567 0.02164063
v 0.00817334 0.00175942 0.02150092
v 0.00999988 0.00354680 0.02145853
v 0.01004692 0.00397956 0.02153004
v 0.00953798 0.00411242 0.02155400
v 0.01000409 0.00572770 0.02137853
v 0.00420085 0.00251617 0.02146590
v 0.01015011 0.00210011 0.01787509
v 0.00985668 0.00206670 0.01989886
v 0.00981175 0.00211721 0.02036702
v 0.00945655 0.00176991 0.02036702
v 0.00420085 0.00315949 0.02035928
v 0.00420085 0.00303595 0.02074670
v 0.00945585 0.00572770 0.02121965
v 0.01053479 0.00538390 0.02133798
v 0.01053479 0.00491579 0.02133393
v 0.01046670 0.00397956 0.02126573
v 0.01039720 0.00348114 0.02108068
v 0.01038035 0.00315055 0.02075666
v 0.01048355 0.00304372 0.01989886
v 0.00997602 0.00434511 0.02152488
v 0.01026102 0.00263854 0.01989886
v 0.00933160 0.00180604 0.02088789
v 0.00911258 0.00191054 0.02120860
v 0.00948463 0.00218752 0.02116583
v 0.00988125 0.00271624 0.02112565
v 0.00420085 0.00286114 0.02112823
v 0.01025049 0.00273255 0.02034121
v 0.00983492 0.00234835 0.02084918
f 1 2 3
f 1 3 4
f 1 4 8
f 1 8 19
f 1 19 35
f 1 35 43
f 1 43 23
f 1 23 10
f 1 10 5
f 1 5 12
f 1 12 26
f 1 26 49
f 1 49 41
f 1 41 31
f 1 31 16
f 1 16 7
f 1 7 2
f 2 6 3
f 2 7 6
f 3 8 4
f 3 6 9
f 3 9 8
f 5 10 11
f 5 11 12
f 6 7 13
f 6 13 14
f 6 14 15
f 6 15 9
f 7 16 13
f 8 9 17
f 8 17 18
f 8 18 19
f 9 15 20
f 9 20 17
f 10 21 22
f 10 22 42
f 10 42 62
f 10 62 48
f 10 48 47
f 10 47 25
f 10 25 11
f 10 23 24
f 10 24 37
f 10 37 21
f 11 25 12
f 12 25 26
f 13 16 27
f 13 27 28
f 13 28 14
f 14 28 29
f 14 29 15
f 15 29 30
f 15 30 20
f 16 31 27
f 17 20 32
f 17 32 18
f 18 32 33
f 18 33 34
f 18 34 19
f 19 34 35
f 20 30 32
f 21 36 22
f 21 37 38
f 21 38 39
f 21 39 36
f 22 36 40
f 22 40 41
f 22 41 42
f 23 43 44
f 23 44 24
f 24 44 45
f 24 45 46
f 24 46 37
f 25 47 26
f 26 47 48
f 26 48 49
f 27 31 50
f 27 50 51
f 27 51 39
f 27 39 52
f 27 52 28
f 28 52 53
f 28 53 29
f 29 53 54
f 29 54 30
f 30 54 55
f 30 55 33
f 30 33 32
f 31 41 56
f 31 56 39
f 31 39 50
f 33 55 34
f 34 55 35
f 35 55 57
f 35 57 43
f 36 39 40
f 37 46 58
f 37 58 59
f 37 59 38
f 38 59 60
f 38 60 61
f 38 61 53
f 38 53 52
f 38 52 39
f 39 56 40
f 39 51 50
f 40 56 41
f 41 49 42
f 42 49 62
f 43 57 44
f 44 57 45
f 45 57 63
f 45 63 64
f 45 64 58
f 45 58 46
f 48 62 49
f 53 61 64
f 53 64 54
f 54 64 63
f 54 63 55
f 55 63 57
f 58 64 60
f 58 60 59
f 60 64 61

