# https://github.com/mikedh/trimesh
v 0.00196566 -0.02707775 -0.01054966
v -0.00085202 -0.02377927 -0.00865941
v -0.00085202 -0.02377802 -0.00959508
v -0.00085999 -0.02376674 -0.01055596
v 0.00197792 -0.02357241 -0.01055596
v 0.00197792 -0.02704390 0.00070363
v 0.00196719 -0.02707148 -0.00584924
v 0.00186141 -0.02694987 -0.00631865
v -0.00112857 -0.02345456 -0.00873817
v -0.00112734 -0.02344454 -0.00152687
v -0.00112796 -0.02345080 -0.01043625
v -0.00115433 -0.01883595 -0.01055596
v 0.00102960 -0.02035167 -0.01055596
v 0.00183719 -0.01426998 -0.00793481
v 0.00197792 -0.01429129 0.02159404
v 0.00197792 -0.02693232 0.01427877
v -0.00109209 -0.02344579 0.00410923
v -0.00115433 -0.02336179 0.00517722
v -0.00023391 -0.01426998 -0.00793481
v 0.00051390 -0.01426998 -0.00795057
v 0.00126078 -0.01426998 -0.00795057
v -0.00070209 -0.01894878 -0.01055596
v -0.00115433 -0.01427374 -0.00785920
v -0.00070638 -0.01426998 -0.00790331
v 0.00072882 -0.01987526 -0.01055596
v 0.00026769 -0.01940638 -0.01055596
v -0.00026334 -0.01910424 -0.01055596
v 0.00147908 -0.01426998 0.02153103
v 0.00052340 -0.01568666 0.02162870
v 0.00053934 -0.01904281 0.02161610
v 0.00193009 -0.02084061 0.02149953
v 0.00197792 -0.02643335 0.01706374
v -0.00115433 -0.02335678 0.00564348
v 0.00197792 -0.02690599 0.01562400
v -0.00033784 -0.02419174 0.01568071
v -0.00115433 -0.02324520 0.01510418
v -0.00115433 -0.02325648 0.01445520
v -0.00115433 -0.01426998 -0.00743390
v 0.00068866 -0.01433643 0.02107107
v 0.00048140 -0.01505981 0.02151213
v -0.00115433 -0.01426998 0.01736933
v -0.00003247 -0.01691403 0.02154679
v 0.00007607 -0.01848993 0.02151528
v 0.00083828 -0.02024886 0.02118134
v 0.00058472 -0.02493518 0.01698498
v 0.00197792 -0.02673925 0.01663214
v 0.00197792 -0.02686337 0.01615957
v -0.00075758 -0.02366895 0.01615012
v -0.00115433 -0.02323391 0.01570276
v -0.00002327 -0.01556505 0.02111518
v -0.00010667 -0.01617059 0.02131681
v -0.00012844 -0.01655171 0.02142392
v -0.00115433 -0.01615429 0.01748590
v -0.00047306 -0.01709080 0.02086315
v -0.00046508 -0.01664574 0.02079699
v -0.00115433 -0.02268229 0.01710785
v -0.00101544 -0.02304210 0.01696608
v -0.00048195 -0.02389461 0.01668884
v -0.00105253 -0.02330914 0.01623833
v -0.00115433 -0.02308598 0.01659748
v -0.00115433 -0.01662317 0.01750165
v -0.00115433 -0.01709080 0.01750165
v -0.00115433 -0.02130197 0.01743549
v -0.00115433 -0.02193885 0.01739139
f 1 2 3
f 1 3 4
f 1 4 5
f 1 5 6
f 1 6 7
f 1 7 8
f 1 8 2
f 2 9 3
f 2 8 10
f 2 10 9
f 3 9 4
f 4 9 11
f 4 11 12
f 4 12 22
f 4 22 27
f 4 27 26
f 4 26 25
f 4 25 13
f 4 13 5
f 5 13 14
f 5 14 15
f 5 15 32
f 5 32 46
f 5 46 47
f 5 47 34
f 5 34 16
f 5 16 6
f 6 16 17
f 6 17 10
f 6 10 7
f 7 10 8
f 9 10 18
f 9 18 11
f 10 17 18
f 11 18 12
f 12 19 20
f 12 20 21
f 12 21 14
f 12 14 22
f 12 18 33
f 12 33 37
f 12 37 36
f 12 36 49
f 12 49 60
f 12 60 56
f 12 56 64
f 12 64 63
f 12 63 62
f 12 62 61
f 12 61 53
f 12 53 41
f 12 41 38
f 12 38 23
f 12 23 24
f 12 24 19
f 13 25 14
f 14 25 26
f 14 26 27
f 14 27 22
f 14 21 20
f 14 20 19
f 14 19 24
f 14 24 38
f 14 38 41
f 14 41 28
f 14 28 15
f 15 28 29
f 15 29 30
f 15 30 31
f 15 31 32
f 16 33 18
f 16 18 17
f 16 34 35
f 16 35 36
f 16 36 37
f 16 37 33
f 23 38 24
f 28 39 40
f 28 40 29
f 28 41 39
f 29 40 42
f 29 42 30
f 30 42 43
f 30 43 44
f 30 44 31
f 31 44 32
f 32 45 46
f 32 44 45
f 34 47 48
f 34 48 35
f 35 48 49
f 35 49 36
f 39 50 40
f 39 41 50
f 40 50 51
f 40 51 52
f 40 52 42
f 41 53 54
f 41 54 55
f 41 55 50
f 42 52 54
f 42 54 43
f 43 54 56
f 43 56 44
f 44 56 57
f 44 57 45
f 45 57 58
f 45 58 46
f 46 58 47
f 47 58 59
f 47 59 48
f 48 59 49
f 49 59 60
f 50 55 51
f 51 55 52
f 52 55 54
f 53 61 54
f 54 61 62
f 54 62 63
f 54 63 64
f 54 64 56
f 56 60 57
f 57 60 58
f 58 60 59

