# https://github.com/mikedh/trimesh
v -0.00213438 0.02346391 -0.01029858
v -0.00182551 0.02694070 -0.01029858
v -0.00202180 0.02722278 -0.01381451
v -0.00213438 0.02733154 -0.01732259
v -0.00213438 0.02357947 -0.01849232
v -0.00146468 0.02013327 -0.01029858
v 0.00956818 0.01380845 -0.01029858
v 0.01113853 0.01204117 -0.01101298
v 0.02682470 -0.00617201 -0.01849232
v -0.00162344 0.02669600 -0.01942878
v -0.00206222 0.02719559 -0.01928186
v -0.00213438 0.02714801 -0.02052225
v -0.00213438 0.02359646 -0.01942878
v -0.00095374 0.02038477 -0.02048412
v -0.00101147 0.01934139 -0.01029858
v -0.00213438 0.02363044 -0.02014318
v 0.00615036 0.01380845 -0.01029858
v 0.02414009 -0.00738871 -0.01045110
v 0.02724904 -0.00704206 -0.01045110
v 0.02679872 -0.00621279 -0.01047241
v 0.02671501 -0.00604286 -0.01334572
v 0.02715089 -0.00666821 -0.01492592
v 0.02717687 -0.00678036 -0.01884447
v 0.02680449 -0.00618220 -0.01919439
v 0.02646098 -0.00590352 -0.02017346
v -0.00213438 0.02670959 -0.02121983
v 0.02157673 -0.00041136 -0.02068711
v 0.02218293 -0.00122363 -0.02089235
v 0.02254665 -0.00179459 -0.02114132
v -0.00038217 0.02076541 -0.02119516
v 0.00955952 0.00838086 -0.02067141
v 0.02002370 -0.00384056 -0.02052113
v 0.00945560 0.00803760 -0.01966205
v -0.00213438 0.02377659 -0.02089123
v -0.00213438 0.02433056 -0.02144189
v 0.01992267 -0.00393912 -0.01966205
v 0.01942039 -0.00396291 -0.01045110
v 0.02418628 -0.00738871 -0.01815587
v 0.02477805 -0.00738871 -0.02130506
v 0.02735585 -0.00731734 -0.01334572
v 0.02722883 -0.00686873 -0.01217598
v 0.02710759 -0.00663422 -0.01147392
v 0.02680161 -0.00618220 -0.01194159
v 0.02734141 -0.00724937 -0.01802465
v 0.02722883 -0.00705225 -0.01966205
v 0.02715378 -0.00722218 -0.02057608
v 0.02629932 -0.00616861 -0.02108076
v -0.00213438 0.02603667 -0.02153273
v 0.01865831 0.00216140 -0.02154283
v 0.00012877 0.02157089 -0.02156638
v 0.00561921 0.01568109 -0.02168750
v 0.02011896 -0.00329678 -0.02107740
v 0.02423824 -0.00738871 -0.02002654
v -0.00212572 0.02529916 -0.02163703
v 0.01404541 0.00655580 -0.02175479
v 0.02571044 -0.00673958 -0.02164825
v 0.02671789 -0.00703866 -0.02120749
v 0.02735296 -0.00731734 -0.01732146
v 0.02504362 -0.00584574 -0.02165834
v 0.01454191 0.00658299 -0.02164937
v 0.00632356 0.01568109 -0.02173124
v -0.00139251 0.02481656 -0.02162021
v 0.00468393 0.01732262 -0.02174470
v 0.01568215 0.00491767 -0.02172563
f 1 2 3
f 1 3 4
f 1 4 12
f 1 12 26
f 1 26 48
f 1 48 35
f 1 35 34
f 1 34 16
f 1 16 13
f 1 13 5
f 1 5 6
f 1 6 15
f 1 15 17
f 1 17 7
f 1 7 2
f 2 7 8
f 2 8 3
f 3 8 4
f 4 8 9
f 4 9 10
f 4 10 11
f 4 11 12
f 5 13 6
f 6 14 15
f 6 13 16
f 6 16 14
f 7 17 18
f 7 18 19
f 7 19 20
f 7 20 8
f 8 21 9
f 8 20 21
f 9 21 22
f 9 22 23
f 9 23 24
f 9 24 10
f 10 12 11
f 10 24 25
f 10 25 12
f 12 25 27
f 12 27 28
f 12 28 29
f 12 29 26
f 14 30 31
f 14 31 32
f 14 32 33
f 14 33 15
f 14 16 34
f 14 34 35
f 14 35 30
f 15 33 36
f 15 36 37
f 15 37 17
f 17 37 18
f 18 38 53
f 18 53 39
f 18 39 40
f 18 40 19
f 18 37 38
f 19 40 41
f 19 41 42
f 19 42 20
f 20 42 43
f 20 43 21
f 21 43 42
f 21 42 22
f 22 42 41
f 22 41 44
f 22 44 23
f 23 44 45
f 23 45 24
f 24 45 25
f 25 45 46
f 25 46 47
f 25 47 28
f 25 28 27
f 26 29 49
f 26 49 48
f 28 47 29
f 29 47 49
f 30 35 50
f 30 50 51
f 30 51 52
f 30 52 31
f 31 52 32
f 32 52 39
f 32 39 53
f 32 53 36
f 32 36 33
f 35 48 54
f 35 54 50
f 36 53 37
f 37 53 38
f 39 52 55
f 39 55 56
f 39 56 57
f 39 57 46
f 39 46 58
f 39 58 40
f 40 58 44
f 40 44 41
f 44 58 46
f 44 46 45
f 46 57 47
f 47 59 49
f 47 57 59
f 48 49 60
f 48 60 61
f 48 61 62
f 48 62 54
f 49 59 60
f 50 63 51
f 50 54 63
f 51 63 55
f 51 55 52
f 54 62 63
f 55 63 61
f 55 61 64
f 55 64 59
f 55 59 56
f 56 59 57
f 59 64 60
f 60 64 61
f 61 63 62

