# https://github.com/mikedh/trimesh
v -0.00150103 -0.00926294 0.01738923
v -0.00413724 -0.00926294 0.02116014
v -0.00150103 -0.01287560 0.01737721
v -0.00150103 -0.00926294 -0.00712625
v -0.00444827 -0.00926294 0.02135245
v -0.00150103 -0.01426900 0.01736819
v -0.00150103 -0.01334366 0.01737420
v -0.00150103 -0.01020495 -0.00732757
v -0.00782216 -0.01062890 -0.00912139
v -0.00890670 -0.00926294 -0.00912139
v -0.00823609 -0.00926294 0.02134644
v -0.00478126 -0.00926932 0.02148465
v -0.00678964 -0.00940410 0.02155376
v -0.00256477 -0.01426900 0.01737420
v -0.00150103 -0.01426900 -0.00781734
v -0.00150103 -0.01060096 -0.00740569
v -0.00760132 -0.01096120 -0.00912139
v -0.01324373 -0.00926294 -0.00912139
v -0.00775741 -0.00931441 0.02155076
v -0.01285061 -0.00926294 0.01702265
v -0.01275465 -0.00950310 0.01695054
v -0.01217884 -0.01030738 0.01685739
v -0.01173022 -0.01079750 0.01687842
v -0.00948251 -0.01324956 0.01697458
v -0.00856561 -0.01426900 0.01698960
v -0.00827309 -0.01426900 0.01722096
v -0.00725907 -0.00933254 0.02156879
v -0.00771463 -0.01426900 0.01736819
v -0.00725907 -0.01426900 0.01739223
v -0.00678502 -0.01426900 0.01739524
v -0.00560797 -0.01426900 -0.00912139
v -0.00150103 -0.01254477 -0.00767311
v -0.00150103 -0.01160963 -0.00756494
v -0.01326686 -0.00926294 -0.00772119
v -0.01210831 -0.01067938 -0.00912139
v -0.01171635 -0.01124792 -0.00840025
v -0.00804069 -0.01426900 0.01733514
v -0.01305295 -0.00927716 0.01676124
v -0.01321714 -0.00926294 0.01615128
v -0.01262399 -0.00981531 0.01679129
v -0.00889398 -0.01404453 0.01685138
v -0.01031384 -0.01265652 0.01641269
v -0.00934839 -0.01356127 0.01681232
v -0.00887317 -0.01419646 0.01660199
v -0.00892289 -0.01426900 0.01615128
v -0.00150103 -0.01200809 -0.00761903
v -0.00903505 -0.01426900 -0.00910636
v -0.01187129 -0.01096561 -0.00912139
v -0.01330501 -0.00926294 -0.00397731
v -0.00953801 -0.01377692 -0.00069917
v -0.00977272 -0.01350393 -0.00023043
v -0.01214762 -0.01073379 0.00304471
v -0.01314892 -0.00931686 0.01644575
v -0.01322408 -0.00926294 0.01568255
v -0.01169091 -0.01122145 0.00725432
v -0.01032078 -0.01266436 0.01615128
v -0.00894023 -0.01426900 0.01576968
v -0.00905817 -0.01426900 0.00538839
v -0.00909054 -0.01426704 -0.00069015
v -0.00932988 -0.01401120 -0.00069917
v -0.01331311 -0.00926294 0.00398218
v -0.00953801 -0.01377300 -0.00023043
v -0.00930792 -0.01398081 0.00585713
v -0.00906395 -0.01425773 0.00585713
f 1 2 3
f 1 3 7
f 1 7 6
f 1 6 15
f 1 15 32
f 1 32 46
f 1 46 33
f 1 33 16
f 1 16 8
f 1 8 4
f 1 4 10
f 1 10 18
f 1 18 34
f 1 34 49
f 1 49 61
f 1 61 54
f 1 54 39
f 1 39 20
f 1 20 11
f 1 11 5
f 1 5 2
f 2 5 6
f 2 6 7
f 2 7 3
f 4 8 9
f 4 9 10
f 5 11 12
f 5 12 6
f 6 12 13
f 6 13 14
f 6 14 30
f 6 30 29
f 6 29 28
f 6 28 37
f 6 37 26
f 6 26 25
f 6 25 45
f 6 45 57
f 6 57 58
f 6 58 47
f 6 47 31
f 6 31 15
f 8 16 9
f 9 17 31
f 9 31 48
f 9 48 35
f 9 35 18
f 9 18 10
f 9 16 17
f 11 19 12
f 11 20 21
f 11 21 22
f 11 22 23
f 11 23 24
f 11 24 25
f 11 25 26
f 11 26 19
f 12 19 27
f 12 27 13
f 13 27 19
f 13 19 28
f 13 28 29
f 13 29 30
f 13 30 14
f 15 31 32
f 16 33 31
f 16 31 17
f 18 35 36
f 18 36 34
f 19 26 37
f 19 37 28
f 20 38 21
f 20 39 38
f 21 38 40
f 21 40 22
f 22 41 23
f 22 40 42
f 22 42 43
f 22 43 41
f 23 41 24
f 24 41 25
f 25 41 44
f 25 44 45
f 31 33 46
f 31 46 32
f 31 47 48
f 34 36 49
f 35 48 36
f 36 48 47
f 36 47 50
f 36 50 51
f 36 51 52
f 36 52 49
f 38 53 40
f 38 39 53
f 39 54 55
f 39 55 56
f 39 56 42
f 39 42 53
f 40 53 42
f 41 43 44
f 42 56 45
f 42 45 44
f 42 44 43
f 45 56 57
f 47 58 59
f 47 59 60
f 47 60 50
f 49 52 61
f 50 60 58
f 50 58 62
f 50 62 51
f 51 62 63
f 51 63 55
f 51 55 52
f 52 55 54
f 52 54 61
f 55 63 57
f 55 57 56
f 57 63 64
f 57 64 58
f 58 64 63
f 58 63 62
f 58 60 59

