# https://github.com/mikedh/trimesh
v -0.00213604 0.00994471 -0.01104470
v -0.00214497 0.01328797 -0.01104470
v -0.00730569 0.01078379 -0.01104470
v -0.00730569 0.01071471 -0.01147186
v -0.00730569 0.01066542 -0.01194123
v -0.00730569 0.01063144 -0.01237767
v -0.00730569 0.01056347 -0.01334511
v -0.00730569 0.01053733 -0.01384402
v -0.00213604 0.00986368 -0.01428131
v -0.00213604 0.01101718 -0.01959714
v -0.00351249 0.01275397 -0.01849294
v -0.00257661 0.01338879 -0.01120003
v -0.00317521 0.01353406 -0.01120003
v -0.00386763 0.01362480 -0.01120003
v -0.00444892 0.01364048 -0.01120003
v -0.00728112 0.01338581 -0.01112237
v -0.00213827 0.01166545 -0.01943928
v -0.00216898 0.01219459 -0.01867866
v -0.00332598 0.01261767 -0.01893023
v -0.00784063 0.01333091 -0.01120003
v -0.00730569 0.01052987 -0.01431254
v -0.00213604 0.00985546 -0.01475067
v -0.00213604 0.01054966 -0.01947811
v -0.00291221 0.01134057 -0.01966720
v -0.00398098 0.01286077 -0.01849294
v -0.00444892 0.01293098 -0.01849294
v -0.00491686 0.01298699 -0.01849294
v -0.00678805 0.01354152 -0.01120003
v -0.00538368 0.01299894 -0.01849294
v -0.00341700 0.01174685 -0.01965539
v -0.00257605 0.01193879 -0.01942830
v -0.00245767 0.01219757 -0.01921979
v -0.00391956 0.01270842 -0.01908809
v -0.00632011 0.01285779 -0.01849294
v -0.00678861 0.01275584 -0.01849294
v -0.00719847 0.01258780 -0.01878503
v -0.00728112 0.01231147 -0.01933375
v -0.00729005 0.01175656 -0.01960811
v -0.00730569 0.01097200 -0.01935739
v -0.00730569 0.01068857 -0.01895471
v -0.00730569 0.01056646 -0.01851658
v -0.00730569 0.01052987 -0.01805566
v -0.00730569 0.01051418 -0.01758798
v -0.00730569 0.01051456 -0.01708822
v -0.00213604 0.00982559 -0.01802611
v -0.00213604 0.00982932 -0.01755674
v -0.00213604 0.01011798 -0.01913199
v -0.00444892 0.01282791 -0.01896147
v -0.00491686 0.01288355 -0.01896147
v -0.00585218 0.01294293 -0.01849294
v -0.00538368 0.01281708 -0.01913283
v -0.00585218 0.01279318 -0.01912777
v -0.00538368 0.01240744 -0.01952285
v -0.00398098 0.01240744 -0.01944181
v -0.00304455 0.01230885 -0.01932784
v -0.00355269 0.01243208 -0.01934979
v -0.00444892 0.01255046 -0.01938187
v -0.00638600 0.01271962 -0.01909400
v -0.00682602 0.01264269 -0.01900705
v -0.00675846 0.01243395 -0.01934895
v -0.00632011 0.01240744 -0.01944940
v -0.00585218 0.01240744 -0.01951019
v -0.00213604 0.00988945 -0.01853093
v -0.00491686 0.01256166 -0.01940635
f 1 2 3
f 1 3 4
f 1 4 5
f 1 5 6
f 1 6 7
f 1 7 8
f 1 8 9
f 1 9 22
f 1 22 46
f 1 46 45
f 1 45 63
f 1 63 47
f 1 47 23
f 1 23 10
f 1 10 2
f 2 11 12
f 2 12 13
f 2 13 14
f 2 14 15
f 2 15 16
f 2 16 3
f 2 10 17
f 2 17 18
f 2 18 19
f 2 19 11
f 3 16 20
f 3 20 4
f 4 20 5
f 5 20 6
f 6 20 7
f 7 20 8
f 8 20 21
f 8 21 22
f 8 22 9
f 10 23 24
f 10 24 17
f 11 25 13
f 11 13 12
f 11 19 25
f 13 25 26
f 13 26 14
f 14 26 27
f 14 27 15
f 15 28 16
f 15 27 29
f 15 29 28
f 16 28 20
f 17 24 30
f 17 30 31
f 17 31 32
f 17 32 18
f 18 32 19
f 19 32 33
f 19 33 25
f 20 28 34
f 20 34 35
f 20 35 36
f 20 36 37
f 20 37 38
f 20 38 39
f 20 39 40
f 20 40 41
f 20 41 42
f 20 42 43
f 20 43 44
f 20 44 21
f 21 44 45
f 21 45 46
f 21 46 22
f 23 39 38
f 23 38 24
f 23 47 39
f 24 38 30
f 25 33 48
f 25 48 26
f 26 48 27
f 27 48 49
f 27 49 29
f 28 29 50
f 28 50 34
f 29 49 51
f 29 51 52
f 29 52 50
f 30 38 53
f 30 53 54
f 30 54 31
f 31 54 55
f 31 55 32
f 32 55 33
f 33 55 56
f 33 56 57
f 33 57 51
f 33 51 49
f 33 49 48
f 34 50 58
f 34 58 59
f 34 59 35
f 35 59 36
f 36 59 37
f 37 59 58
f 37 58 60
f 37 60 61
f 37 61 38
f 38 61 62
f 38 62 53
f 39 47 40
f 40 47 63
f 40 63 41
f 41 45 42
f 41 63 45
f 42 45 43
f 43 45 44
f 50 52 58
f 51 57 64
f 51 64 62
f 51 62 52
f 52 62 61
f 52 61 60
f 52 60 58
f 53 62 64
f 53 64 54
f 54 64 57
f 54 57 56
f 54 56 55

