# https://github.com/mikedh/trimesh
v 0.00856881 -0.01742256 0.02152342
v 0.00838827 -0.01849505 0.02161429
v 0.00907681 -0.01749073 0.02124739
v 0.00933776 -0.01743504 0.02060538
v 0.00732621 -0.01742256 0.01944732
v 0.00800745 -0.01742256 0.02147409
v 0.00204663 -0.02005194 0.02151080
v 0.00257656 -0.02083495 0.02166546
v 0.00836488 -0.01925357 0.02145160
v 0.00888750 -0.01823965 0.02134514
v 0.00772530 -0.01943168 0.02167119
v 0.00793947 -0.01992712 0.02156977
v 0.00914845 -0.01802698 0.02083529
v 0.00944521 -0.01750562 0.01932732
v 0.00920692 -0.01826078 0.02013362
v 0.00930414 -0.01829774 0.01935348
v 0.00739346 -0.01742256 0.01998241
v 0.00197792 -0.01845665 0.01932732
v 0.00752357 -0.01742256 0.02068110
v 0.00197792 -0.01868997 0.02009714
v 0.00197792 -0.01918396 0.02104249
v 0.00197792 -0.02132078 0.02078871
v 0.00208683 -0.02110427 0.02140296
v 0.00283897 -0.02139232 0.02152893
v 0.00585190 -0.02122717 0.02161612
v 0.00840435 -0.01972405 0.02089931
v 0.00891966 -0.01867748 0.02090252
v 0.00659819 -0.02112347 0.02141420
v 0.00761128 -0.02070533 0.02099935
v 0.00800452 -0.02031454 0.02102918
v 0.00824573 -0.02051810 0.01934040
v 0.00206563 -0.02159011 0.01932732
v 0.00885607 -0.01921085 0.02014532
v 0.00900737 -0.01909707 0.01937941
v 0.00864483 -0.01989880 0.01937941
v 0.00209926 -0.02153202 0.02014647
v 0.00244061 -0.02159683 0.02095920
v 0.00428696 -0.02204426 0.02136716
v 0.00847817 -0.01999865 0.02017607
v 0.00678824 -0.02131022 0.02083529
v 0.00721730 -0.02104138 0.02089885
v 0.00492288 -0.02203274 0.02100830
v 0.00613185 -0.02160211 0.02093189
v 0.00780644 -0.02080182 0.02012995
v 0.00737153 -0.02118348 0.02000214
v 0.00768510 -0.02105098 0.01936633
v 0.00705649 -0.02144896 0.01936633
v 0.00509904 -0.02221901 0.01935348
v 0.00418901 -0.02232654 0.01936633
v 0.00351216 -0.02220748 0.01937941
v 0.00275418 -0.02192904 0.01936633
v 0.00257656 -0.02178070 0.02013362
v 0.00304363 -0.02185847 0.02083529
v 0.00398070 -0.02219644 0.02036767
v 0.00444923 -0.02215948 0.02083529
v 0.00656238 -0.02154402 0.02039199
v 0.00491703 -0.02220172 0.02013362
v 0.00563262 -0.02197753 0.02014854
v 0.00654264 -0.02163187 0.01989958
v 0.00632044 -0.02177782 0.01937941
v 0.00579489 -0.02199001 0.01937941
v 0.00421460 -0.02228094 0.01989958
v 0.00326803 -0.02201257 0.02040002
v 0.00328411 -0.02208170 0.01989958
f 1 2 3
f 1 3 4
f 1 4 5
f 1 5 17
f 1 17 19
f 1 19 6
f 1 6 7
f 1 7 8
f 1 8 2
f 2 9 10
f 2 10 3
f 2 8 11
f 2 11 12
f 2 12 9
f 3 13 4
f 3 10 13
f 4 14 5
f 4 13 15
f 4 15 16
f 4 16 14
f 5 14 18
f 5 18 17
f 6 19 18
f 6 18 20
f 6 20 21
f 6 21 7
f 7 21 22
f 7 22 23
f 7 23 8
f 8 23 24
f 8 24 25
f 8 25 11
f 9 12 26
f 9 26 27
f 9 27 10
f 10 27 13
f 11 25 12
f 12 25 28
f 12 28 29
f 12 29 30
f 12 30 26
f 13 27 15
f 14 16 31
f 14 31 32
f 14 32 18
f 15 27 33
f 15 33 34
f 15 34 16
f 16 34 35
f 16 35 31
f 17 18 19
f 18 32 22
f 18 22 21
f 18 21 20
f 22 32 36
f 22 36 37
f 22 37 23
f 23 37 24
f 24 37 38
f 24 38 25
f 25 38 28
f 26 39 27
f 26 30 39
f 27 39 33
f 28 40 41
f 28 41 29
f 28 38 42
f 28 42 43
f 28 43 40
f 29 44 30
f 29 41 45
f 29 45 44
f 30 31 39
f 30 44 31
f 31 35 39
f 31 44 46
f 31 46 47
f 31 47 48
f 31 48 32
f 32 48 49
f 32 49 50
f 32 50 51
f 32 51 52
f 32 52 36
f 33 39 35
f 33 35 34
f 36 52 37
f 37 52 53
f 37 53 38
f 38 53 54
f 38 54 55
f 38 55 42
f 40 45 41
f 40 43 56
f 40 56 45
f 42 55 57
f 42 57 58
f 42 58 43
f 43 58 56
f 44 45 46
f 45 56 47
f 45 47 46
f 47 56 59
f 47 59 60
f 47 60 48
f 48 60 61
f 48 61 58
f 48 58 57
f 48 57 49
f 49 62 54
f 49 54 50
f 49 57 62
f 50 54 63
f 50 63 64
f 50 64 51
f 51 64 52
f 52 64 63
f 52 63 53
f 53 63 54
f 54 62 55
f 55 62 57
f 56 58 59
f 58 61 60
f 58 60 59

