# https://github.com/mikedh/trimesh
v 0.00636867 -0.01179132 0.01741091
v 0.00636867 -0.01006679 0.01734916
v 0.00600584 -0.01179132 0.01751465
v 0.00636867 -0.01179132 -0.00695404
v 0.00636867 -0.00966128 0.01733187
v 0.00548279 -0.01179132 0.01758382
v 0.00636867 -0.00943129 0.01731952
v 0.00023452 -0.01179132 -0.00754439
v 0.00023452 -0.01163263 -0.00750981
v -0.00150026 -0.00926815 -0.00712942
v -0.00118751 -0.00926245 -0.00708743
v -0.00085087 -0.00926245 -0.00703802
v -0.00060976 -0.00926245 -0.00699356
v 0.00636867 -0.01141552 -0.00666998
v 0.00497283 -0.01179132 0.01762828
v 0.00636867 -0.00926245 0.01729976
v 0.00491582 -0.01179132 0.01763322
v 0.00006197 -0.01179132 -0.00755674
v -0.00023384 -0.01130313 -0.00747523
v -0.00150026 -0.01020444 -0.00733196
v -0.00150026 -0.00926245 -0.00712695
v -0.00023307 -0.00926245 -0.00688735
v 0.00636867 -0.00926245 -0.00500267
v -0.00150026 -0.00926245 0.01739115
v 0.00449831 -0.01179132 0.01763816
v -0.00023384 -0.01179132 -0.00756909
v -0.00150026 -0.01053469 -0.00739619
v -0.00150026 -0.01179132 0.01738127
v 0.00444746 -0.01179132 0.01763816
v -0.00038174 -0.01179132 -0.00757403
v -0.00150026 -0.01066589 -0.00741842
v -0.00150026 -0.01179132 -0.00759132
v -0.00131846 -0.01179132 -0.00759132
v -0.00150026 -0.01160887 -0.00756662
f 1 2 3
f 1 3 6
f 1 6 15
f 1 15 17
f 1 17 25
f 1 25 29
f 1 29 28
f 1 28 32
f 1 32 33
f 1 33 30
f 1 30 26
f 1 26 18
f 1 18 8
f 1 8 4
f 1 4 14
f 1 14 23
f 1 23 16
f 1 16 7
f 1 7 5
f 1 5 2
f 2 5 3
f 3 5 7
f 3 7 6
f 4 8 9
f 4 9 10
f 4 10 11
f 4 11 12
f 4 12 13
f 4 13 14
f 6 7 15
f 7 16 17
f 7 17 15
f 8 18 19
f 8 19 9
f 9 19 10
f 10 19 20
f 10 20 27
f 10 27 31
f 10 31 34
f 10 34 32
f 10 32 28
f 10 28 24
f 10 24 21
f 10 21 11
f 11 21 24
f 11 24 16
f 11 16 23
f 11 23 22
f 11 22 13
f 11 13 12
f 13 22 14
f 14 22 23
f 16 24 25
f 16 25 17
f 18 26 27
f 18 27 20
f 18 20 19
f 24 28 29
f 24 29 25
f 26 30 27
f 27 30 31
f 30 33 34
f 30 34 31
f 32 34 33

