# https://github.com/mikedh/trimesh
v 0.01279019 -0.00179985 0.01734494
v 0.00118911 -0.00179985 0.01729237
v 0.01060647 -0.00179985 -0.01861960
v 0.01279019 -0.00178306 -0.00895706
v 0.01279019 0.00108446 0.01730854
v 0.00885768 0.00168769 0.02120349
v 0.00796397 0.00165796 0.02152706
v 0.00733146 0.00125546 0.02147043
v 0.00725764 0.00087569 0.02116304
v 0.00679092 0.00082498 0.02121158
v 0.00608913 0.00077533 0.02123989
v 0.00538507 0.00082009 0.02123585
v 0.00491722 0.00085716 0.02119944
v 0.00417114 0.00104424 0.02115495
v 0.00287204 0.00177057 0.02100530
v 0.00118911 -0.00070215 0.01729641
v 0.00118911 -0.00171907 -0.01949323
v 0.00992171 -0.00173376 -0.01958221
v 0.01034188 -0.00161416 -0.01903619
v 0.01277202 0.00175833 -0.00761021
v 0.01279019 0.00165552 0.01729641
v 0.00732351 0.00172825 0.02164031
v 0.00679092 0.00113901 0.02144616
v 0.00563263 0.00118447 0.02147448
v 0.00491722 0.00124357 0.02149066
v 0.00435283 0.00134813 0.02148257
v 0.00401897 0.00176847 0.02152706
v 0.00420180 0.00177267 -0.00677702
v 0.00118911 0.00177267 0.01728832
v 0.00118911 0.00025218 0.01729641
v 0.00118911 -0.00117039 -0.01950537
v 0.00930623 -0.00144596 -0.01967928
v 0.00929942 -0.00076719 -0.01933145
v 0.00977295 -0.00110850 -0.01922629
v 0.00919154 -0.00043008 -0.01895530
v 0.00851587 -0.00005626 -0.01906450
v 0.00743366 0.00048298 -0.01889868
v 0.00679092 0.00066377 -0.01895530
v 0.00602213 0.00090192 -0.01844164
v 0.00118911 0.00164293 -0.01521001
v 0.00118911 0.00169713 -0.01453860
v 0.00118911 0.00177267 -0.00608540
v 0.00118911 0.00139744 -0.01617262
v 0.00128450 -0.00052520 -0.01914944
v 0.00207940 -0.00006255 -0.01916966
v 0.00257565 -0.00008143 -0.01935167
v 0.00210779 -0.00070215 -0.01950537
v 0.00257565 -0.00070215 -0.01953368
v 0.00679092 -0.00023355 -0.01959030
v 0.00725764 -0.00023355 -0.01957008
v 0.00874071 -0.00053394 -0.01942043
v 0.00698397 0.00038052 -0.01933145
v 0.00632306 0.00074420 -0.01895530
v 0.00118911 0.00156180 -0.01567918
v 0.00538507 0.00085995 -0.01874903
v 0.00491722 0.00079386 -0.01895530
v 0.00427107 0.00063020 -0.01910495
v 0.00358859 0.00048648 -0.01912922
v 0.00304351 0.00014622 -0.01930718
v 0.00304351 -0.00023355 -0.01950132
v 0.00538507 0.00041863 -0.01944065
v 0.00632306 0.00039975 -0.01941639
v 0.00585520 0.00069350 -0.01913731
v 0.00491722 0.00041094 -0.01942448
f 1 2 3
f 1 3 4
f 1 4 21
f 1 21 5
f 1 5 6
f 1 6 7
f 1 7 8
f 1 8 9
f 1 9 10
f 1 10 11
f 1 11 2
f 2 11 12
f 2 12 13
f 2 13 14
f 2 14 15
f 2 15 16
f 2 16 30
f 2 30 29
f 2 29 42
f 2 42 41
f 2 41 40
f 2 40 54
f 2 54 43
f 2 43 31
f 2 31 17
f 2 17 3
f 3 17 18
f 3 18 19
f 3 19 20
f 3 20 4
f 4 20 21
f 5 21 6
f 6 22 7
f 6 21 22
f 7 22 8
f 8 22 23
f 8 23 10
f 8 10 9
f 10 23 11
f 11 23 24
f 11 24 25
f 11 25 12
f 12 25 13
f 13 25 26
f 13 26 14
f 14 26 15
f 15 26 27
f 15 27 20
f 15 20 28
f 15 28 29
f 15 29 30
f 15 30 16
f 17 31 32
f 17 32 18
f 18 32 33
f 18 33 34
f 18 34 19
f 19 34 20
f 20 34 35
f 20 35 36
f 20 36 37
f 20 37 38
f 20 38 39
f 20 39 40
f 20 40 41
f 20 41 28
f 20 27 22
f 20 22 21
f 22 27 25
f 22 25 24
f 22 24 23
f 25 27 26
f 28 41 42
f 28 42 29
f 31 43 44
f 31 44 45
f 31 45 46
f 31 46 47
f 31 47 48
f 31 48 32
f 32 49 50
f 32 50 51
f 32 51 33
f 32 48 49
f 33 51 36
f 33 36 35
f 33 35 34
f 36 51 52
f 36 52 37
f 37 52 38
f 38 52 53
f 38 53 39
f 39 54 40
f 39 53 55
f 39 55 54
f 43 54 56
f 43 56 57
f 43 57 58
f 43 58 45
f 43 45 44
f 45 58 59
f 45 59 46
f 46 60 47
f 46 59 60
f 47 60 48
f 48 60 49
f 49 60 61
f 49 61 62
f 49 62 50
f 50 62 52
f 50 52 51
f 52 62 63
f 52 63 53
f 53 63 55
f 54 55 56
f 55 63 56
f 56 63 64
f 56 64 57
f 57 64 58
f 58 64 59
f 59 64 60
f 60 64 61
f 61 64 63
f 61 63 62

