# https://github.com/mikedh/trimesh
v 0.02248002 -0.00926245 -0.01044822
v 0.02316926 -0.00926245 -0.01044822
v 0.02110649 -0.00926245 -0.00806899
v 0.02110649 -0.00433827 -0.01044822
v 0.02676963 -0.00872482 -0.01044822
v 0.02624695 -0.00920913 -0.01025546
v 0.02618418 -0.00926245 -0.00862249
v 0.02503750 -0.00926245 0.01731216
v 0.02117175 -0.00915507 0.01767841
v 0.02130413 -0.00179985 -0.01044822
v 0.02118791 -0.00180058 0.01730941
v 0.02717113 -0.00825001 -0.01044822
v 0.02676280 -0.00874016 -0.00819291
v 0.02641351 -0.00906522 -0.00866105
v 0.02673607 -0.00871313 0.01568195
v 0.02607541 -0.00926026 0.01592428
v 0.02567703 -0.00926245 0.01693490
v 0.02591880 -0.00877449 0.01730115
v 0.02598530 -0.00795927 0.01745811
v 0.02172986 -0.00771383 0.01768391
v 0.02120904 -0.00404900 0.01768391
v 0.02294428 -0.00180058 -0.01023893
v 0.02680817 -0.00622438 -0.01044822
v 0.02308225 -0.00179985 0.01572050
v 0.02303564 -0.00180131 0.01630429
v 0.02540792 -0.00537118 0.01728738
v 0.02201265 -0.00187728 0.01718824
v 0.02275348 -0.00182615 0.01686606
v 0.02735012 -0.00750930 -0.01044822
v 0.02738430 -0.00772552 -0.00632037
v 0.02722333 -0.00819522 -0.00749071
v 0.02720842 -0.00828142 0.01451162
v 0.02700083 -0.00839026 0.01615009
v 0.02647815 -0.00891621 0.01615009
v 0.02640854 -0.00885850 0.01668982
v 0.02642967 -0.00837784 0.01727086
v 0.02598530 -0.00725728 0.01742782
v 0.02175410 -0.00538871 0.01768391
v 0.02190015 -0.00609216 0.01768391
v 0.02187405 -0.00702426 0.01768391
v 0.02675783 -0.00771456 0.01723781
v 0.02442594 -0.00319945 0.01631806
v 0.02673172 -0.00567360 0.01605095
v 0.02716491 -0.00676640 -0.01044822
v 0.02582371 -0.00578463 0.01727636
v 0.02597908 -0.00539163 0.01701200
v 0.02664906 -0.00596214 0.01685779
v 0.02732153 -0.00716305 -0.00936325
v 0.02741848 -0.00725728 0.00491210
v 0.02745515 -0.00772552 0.01357535
v 0.02744769 -0.00772552 0.01428030
v 0.02723017 -0.00811194 0.01556630
v 0.02714626 -0.00791398 0.01660996
v 0.02680257 -0.00843920 0.01680547
v 0.02625689 -0.00648662 0.01729013
v 0.02718231 -0.00725728 0.01669808
v 0.02679263 -0.00707101 0.01714694
v 0.02727243 -0.00671380 0.01544788
v 0.02727181 -0.00681972 0.00397583
v 0.02716553 -0.00669700 0.01642546
v 0.02744583 -0.00725728 0.01404348
v 0.02742346 -0.00749104 0.01498250
v 0.02732153 -0.00749104 0.01615009
v 0.02738679 -0.00725728 0.01568195
f 1 2 7
f 1 7 17
f 1 17 8
f 1 8 3
f 1 3 4
f 1 4 10
f 1 10 23
f 1 23 44
f 1 44 29
f 1 29 12
f 1 12 5
f 1 5 2
f 2 5 6
f 2 6 7
f 3 8 9
f 3 9 4
f 4 9 11
f 4 11 10
f 5 12 13
f 5 13 14
f 5 14 6
f 6 14 7
f 7 14 15
f 7 15 16
f 7 16 17
f 8 18 19
f 8 19 9
f 8 17 18
f 9 19 20
f 9 20 21
f 9 21 11
f 10 22 23
f 10 11 24
f 10 24 22
f 11 25 24
f 11 21 26
f 11 26 27
f 11 27 28
f 11 28 25
f 12 29 30
f 12 30 31
f 12 31 32
f 12 32 13
f 13 32 14
f 14 32 15
f 15 32 33
f 15 33 34
f 15 34 16
f 16 34 35
f 16 35 17
f 17 35 18
f 18 35 36
f 18 36 19
f 19 37 21
f 19 21 38
f 19 38 39
f 19 39 40
f 19 40 20
f 19 36 41
f 19 41 37
f 20 40 39
f 20 39 38
f 20 38 21
f 21 37 26
f 22 24 42
f 22 42 43
f 22 43 23
f 23 43 44
f 24 25 42
f 25 28 42
f 26 45 46
f 26 46 28
f 26 28 27
f 26 37 45
f 28 46 47
f 28 47 42
f 29 44 48
f 29 48 49
f 29 49 30
f 30 49 50
f 30 50 31
f 31 50 32
f 32 50 51
f 32 51 52
f 32 52 33
f 33 53 54
f 33 54 34
f 33 52 53
f 34 54 35
f 35 54 36
f 36 54 41
f 37 41 55
f 37 55 45
f 41 54 53
f 41 53 56
f 41 56 57
f 41 57 55
f 42 47 43
f 43 58 59
f 43 59 44
f 43 47 60
f 43 60 58
f 44 59 48
f 45 55 47
f 45 47 46
f 47 56 60
f 47 55 57
f 47 57 56
f 48 59 49
f 49 59 58
f 49 58 61
f 49 61 50
f 50 61 51
f 51 61 62
f 51 62 63
f 51 63 52
f 52 63 53
f 53 63 56
f 56 63 64
f 56 64 60
f 58 60 64
f 58 64 61
f 61 64 62
f 62 64 63

