# https://github.com/mikedh/trimesh
v -0.00036870 0.00572928 -0.01005602
v -0.00213553 0.00986254 -0.01005602
v 0.00230281 0.00579020 -0.01005602
v 0.00590812 0.00572928 -0.00716188
v -0.00213553 0.00572928 -0.00534492
v -0.00213553 0.01332723 0.01379354
v -0.00213317 0.01379562 -0.01003435
v -0.00160013 0.01351474 -0.01005602
v 0.00228706 0.00631161 -0.01005602
v 0.00590812 0.01381144 -0.00840621
v 0.00590812 0.00819784 -0.00773761
v 0.00590812 0.00769859 -0.00764166
v 0.00590812 0.00626651 -0.00729808
v 0.00590812 0.00572928 0.01708698
v 0.00273035 0.00572928 0.02128426
v -0.00213553 0.00579100 0.01727270
v -0.00213553 0.01147501 0.01531026
v -0.00207648 0.01267369 0.01439404
v -0.00132298 0.01376002 0.01402260
v -0.00208042 0.01373311 0.01348401
v -0.00024981 0.01381144 0.01475619
v -0.00116393 0.01326393 -0.01005602
v 0.00222880 0.00678475 -0.01005602
v 0.00212329 0.00725868 -0.01005602
v 0.00139656 0.00984355 -0.01005602
v 0.00114775 0.01053427 -0.01005602
v 0.00092415 0.01099554 -0.01005602
v 0.00060054 0.01150587 -0.01005602
v 0.00022891 0.01198930 -0.01005602
v -0.00016398 0.01241022 -0.01005602
v -0.00069230 0.01290789 -0.01005602
v 0.00587978 0.01381144 0.01724484
v 0.00590812 0.00897243 0.02133688
v 0.00460898 0.00890676 0.02155974
v 0.00180835 0.00587249 0.02146688
v 0.00132412 0.00579100 0.02118211
v -0.00213553 0.00701024 0.01726341
v -0.00213553 0.01074078 0.01589528
v 0.00316969 0.00898667 0.02116354
v -0.00077812 0.01368485 0.01448690
v 0.00064070 0.01381144 0.01536288
v 0.00538374 0.01381144 0.01723556
v 0.00538374 0.00992583 0.02117592
v 0.00589395 0.00979449 0.02129045
v 0.00479637 0.00940760 0.02155665
v 0.00424129 0.00919476 0.02156593
v 0.00231383 0.00739556 0.02154736
v 0.00149419 0.00629420 0.02123783
v -0.00213553 0.00864883 0.01709317
v -0.00213553 0.00816619 0.01718603
v -0.00213553 0.00772628 0.01723246
v -0.00213553 0.01035546 0.01618933
v 0.00271932 0.00853410 0.02115735
v 0.00261933 0.01381144 0.01661959
v 0.00217526 0.01381144 0.01635958
v 0.00154222 0.01381144 0.01597266
v 0.00491605 0.01381144 0.01721389
v 0.00444757 0.01381144 0.01717365
v 0.00397910 0.01381144 0.01709627
v 0.00322323 0.01381144 0.01690126
v 0.00169103 0.00679029 0.02125640
v -0.00213553 0.00999467 0.01644315
v -0.00213553 0.00926122 0.01686412
f 1 2 8
f 1 8 22
f 1 22 31
f 1 31 30
f 1 30 29
f 1 29 28
f 1 28 27
f 1 27 26
f 1 26 25
f 1 25 24
f 1 24 23
f 1 23 9
f 1 9 3
f 1 3 4
f 1 4 14
f 1 14 15
f 1 15 5
f 1 5 2
f 2 5 16
f 2 16 37
f 2 37 51
f 2 51 50
f 2 50 49
f 2 49 63
f 2 63 62
f 2 62 52
f 2 52 38
f 2 38 17
f 2 17 6
f 2 6 7
f 2 7 8
f 3 9 10
f 3 10 11
f 3 11 12
f 3 12 13
f 3 13 4
f 4 13 12
f 4 12 11
f 4 11 10
f 4 10 33
f 4 33 14
f 5 15 16
f 6 17 18
f 6 18 19
f 6 19 20
f 6 20 7
f 7 20 21
f 7 21 10
f 7 10 8
f 8 10 22
f 9 23 10
f 10 23 24
f 10 24 25
f 10 25 26
f 10 26 27
f 10 27 28
f 10 28 29
f 10 29 30
f 10 30 31
f 10 31 22
f 10 21 41
f 10 41 56
f 10 56 55
f 10 55 54
f 10 54 60
f 10 60 59
f 10 59 58
f 10 58 57
f 10 57 42
f 10 42 32
f 10 32 33
f 14 33 15
f 15 33 34
f 15 34 35
f 15 35 36
f 15 36 16
f 16 36 37
f 17 38 39
f 17 39 18
f 18 40 19
f 18 39 40
f 19 40 21
f 19 21 20
f 21 40 39
f 21 39 41
f 32 42 43
f 32 43 44
f 32 44 33
f 33 44 45
f 33 45 34
f 34 46 47
f 34 47 35
f 34 45 46
f 35 47 48
f 35 48 36
f 36 48 49
f 36 49 50
f 36 50 51
f 36 51 37
f 38 52 39
f 39 53 47
f 39 47 46
f 39 46 54
f 39 54 55
f 39 55 56
f 39 56 41
f 39 52 53
f 42 57 43
f 43 57 58
f 43 58 59
f 43 59 45
f 43 45 44
f 45 59 60
f 45 60 46
f 46 60 54
f 47 61 48
f 47 53 62
f 47 62 63
f 47 63 61
f 48 61 49
f 49 61 63
f 52 62 53

