# https://github.com/mikedh/trimesh
v -0.00213146 0.01381404 -0.01001582
v -0.00213553 0.02346953 -0.01029522
v -0.00146869 0.02013784 -0.01029522
v -0.00075810 0.01917165 -0.01029522
v 0.00117020 0.01811320 -0.01029522
v 0.00306086 0.01714701 -0.01029522
v -0.00116299 0.01381404 -0.00951502
v -0.00109584 0.01381404 0.01414644
v -0.00203227 0.01396396 0.01332144
v -0.00209840 0.01540556 0.01195083
v -0.00213553 0.01664469 0.01069093
v -0.00211671 0.02659491 -0.00550599
v -0.00190460 0.02690373 -0.00812333
v -0.00165333 0.02677175 -0.00988140
v 0.00306086 0.02117707 -0.01029522
v -0.00213553 0.02095026 0.00564339
v 0.00306086 0.01794405 0.01367464
v 0.00297846 0.01381404 -0.00701893
v 0.00200846 0.01381404 -0.00774377
v 0.00045961 0.01381404 -0.00865312
v 0.00192352 0.01388323 0.01615755
v -0.00007040 0.01389477 0.01481330
v 0.00139096 0.01523000 0.01475531
v 0.00183348 0.01642301 0.01407264
v 0.00301000 0.01929210 0.01243318
v 0.00227957 0.01949841 0.01165035
v 0.00177957 0.02003020 0.01066457
v 0.00081618 0.02025189 0.00958390
v -0.00209077 0.01773902 0.00958390
v -0.00213502 0.01892434 0.00820538
v -0.00213553 0.01989821 0.00701137
v -0.00207958 0.02587732 -0.00269097
v -0.00185323 0.02629890 -0.00425399
v -0.00198955 0.02679097 -0.00678698
v -0.00079523 0.02576583 -0.00380327
v -0.00127642 0.02634375 -0.00655240
v -0.00094376 0.02595420 -0.00518442
v 0.00173125 0.02276859 0.00547470
v 0.00278161 0.02149486 0.00839516
v 0.00305628 0.02098742 0.00987383
v -0.00063501 0.02198821 0.00607039
v -0.00210603 0.02204075 0.00421743
v 0.00289148 0.01690738 0.01442584
v 0.00298406 0.01588609 0.01532991
v 0.00294794 0.01407673 0.01663199
v 0.00305171 0.02051458 0.01086225
v 0.00262393 0.01486993 0.01588343
v 0.00230246 0.02086184 0.01010315
v 0.00091486 0.02115144 0.00866137
v -0.00187917 0.02525455 -0.00070095
v -0.00023368 0.02441266 0.00205345
v -0.00132118 0.02573252 -0.00220862
v -0.00205211 0.02373735 0.00179251
v -0.00200379 0.02458693 0.00044562
v -0.00076115 0.02534297 -0.00105414
v -0.00016450 0.02484065 0.00002126
v 0.00193013 0.02206894 0.00764923
v 0.00006032 0.02437421 0.00197965
v 0.00054202 0.02192542 0.00731448
v -0.00069350 0.02290186 0.00469978
v -0.00179982 0.02311073 0.00308668
v 0.00064222 0.02323119 0.00513469
v -0.00120571 0.02459974 0.00132861
v -0.00072402 0.02389112 0.00306559
f 1 2 3
f 1 3 4
f 1 4 5
f 1 5 6
f 1 6 7
f 1 7 20
f 1 20 19
f 1 19 18
f 1 18 8
f 1 8 9
f 1 9 10
f 1 10 11
f 1 11 2
f 2 12 13
f 2 13 14
f 2 14 15
f 2 15 6
f 2 6 5
f 2 5 4
f 2 4 3
f 2 11 31
f 2 31 16
f 2 16 12
f 6 15 17
f 6 17 18
f 6 18 19
f 6 19 20
f 6 20 7
f 8 21 22
f 8 22 23
f 8 23 24
f 8 24 17
f 8 17 9
f 8 18 21
f 9 17 25
f 9 25 10
f 10 25 26
f 10 26 11
f 11 26 27
f 11 27 28
f 11 28 29
f 11 29 30
f 11 30 31
f 12 32 33
f 12 33 34
f 12 34 13
f 12 16 32
f 13 34 35
f 13 35 36
f 13 36 14
f 14 36 15
f 15 36 37
f 15 37 38
f 15 38 39
f 15 39 40
f 15 40 17
f 16 31 41
f 16 41 42
f 16 42 32
f 17 24 43
f 17 43 44
f 17 44 45
f 17 45 18
f 17 40 46
f 17 46 25
f 18 45 21
f 21 45 47
f 21 47 22
f 22 47 44
f 22 44 23
f 23 44 43
f 23 43 24
f 25 46 48
f 25 48 26
f 26 48 27
f 27 48 49
f 27 49 28
f 28 49 30
f 28 30 29
f 30 49 41
f 30 41 31
f 32 50 51
f 32 51 52
f 32 52 33
f 32 42 53
f 32 53 54
f 32 54 50
f 33 52 55
f 33 55 34
f 34 55 35
f 35 37 36
f 35 55 56
f 35 56 38
f 35 38 37
f 38 57 40
f 38 40 39
f 38 56 58
f 38 58 57
f 40 57 46
f 41 49 59
f 41 59 60
f 41 60 61
f 41 61 42
f 42 61 53
f 44 47 45
f 46 57 48
f 48 57 62
f 48 62 59
f 48 59 49
f 50 54 63
f 50 63 51
f 51 58 55
f 51 55 52
f 51 63 62
f 51 62 58
f 53 61 60
f 53 60 64
f 53 64 54
f 54 64 63
f 55 58 56
f 57 58 62
f 59 62 64
f 59 64 60
f 62 63 64

