# https://github.com/mikedh/trimesh
v 0.01778493 -0.00926245 -0.00927788
v 0.01802585 -0.00926245 -0.00927513
v 0.01755866 -0.00926245 -0.00927513
v 0.02036715 -0.00433608 -0.01044822
v 0.02110587 -0.00433754 -0.01044822
v 0.01825080 -0.00926245 -0.00927237
v 0.01730776 -0.00926245 -0.00926687
v 0.01990395 -0.00427765 -0.01044822
v 0.01955322 -0.00926245 -0.00902729
v 0.01940215 -0.00926245 -0.00907686
v 0.01913527 -0.00926245 -0.00915396
v 0.01896224 -0.00926245 -0.00918976
v 0.01869669 -0.00926245 -0.00923658
v 0.01849438 -0.00926245 -0.00925585
v 0.02110587 -0.00179985 -0.01044822
v 0.02110587 -0.00926245 -0.00806899
v 0.02099340 -0.00926245 -0.00818740
v 0.02046697 -0.00926245 -0.00855640
v 0.02008164 -0.00926245 -0.00876018
v 0.01709013 -0.00926245 -0.00925310
v 0.01981543 -0.00424843 -0.01044822
v 0.01884444 -0.00179985 -0.01044822
v 0.02110587 -0.00179985 0.01731491
v 0.02110587 -0.00926245 0.01766464
v 0.01430693 -0.00926245 -0.00899700
v 0.01951395 -0.00404973 -0.01044822
v 0.01905009 -0.00304386 -0.01044822
v 0.01430693 -0.00304386 -0.00890062
v 0.01430693 -0.00279404 -0.00889511
v 0.01430693 -0.00259900 -0.00888961
v 0.01430693 -0.00215633 -0.00886482
v 0.01430693 -0.00210738 -0.00886207
v 0.01430693 -0.00179985 -0.00882352
v 0.02109523 -0.00179985 0.01732593
v 0.02110587 -0.00180204 0.01732318
v 0.02110587 -0.00920694 0.01768391
v 0.02107925 -0.00926245 0.01768391
v 0.01913527 -0.00351210 -0.01044822
v 0.01936621 -0.00391533 -0.01044822
v 0.01943941 -0.00399349 -0.01044822
v 0.01430693 -0.00926245 0.01768391
v 0.01430693 -0.00179985 0.01748840
v 0.01830604 -0.00179985 0.01768391
v 0.01928368 -0.00217824 0.01768391
v 0.01938551 -0.00223376 0.01768391
v 0.01989197 -0.00259754 0.01768391
v 0.01991726 -0.00261653 0.01768391
v 0.02012623 -0.00280572 0.01768391
v 0.02037780 -0.00303656 0.01768391
v 0.02039310 -0.00305117 0.01768391
v 0.02061006 -0.00327323 0.01768391
v 0.02079574 -0.00347996 0.01768391
v 0.02081903 -0.00351064 0.01768391
v 0.02110587 -0.00394308 0.01768391
v 0.01430693 -0.00206575 0.01768391
v 0.01515281 -0.00179985 0.01768391
f 1 2 6
f 1 6 14
f 1 14 13
f 1 13 12
f 1 12 11
f 1 11 10
f 1 10 9
f 1 9 19
f 1 19 18
f 1 18 17
f 1 17 16
f 1 16 24
f 1 24 37
f 1 37 41
f 1 41 25
f 1 25 20
f 1 20 7
f 1 7 3
f 1 3 4
f 1 4 5
f 1 5 2
f 2 5 6
f 3 7 8
f 3 8 4
f 4 8 21
f 4 21 26
f 4 26 40
f 4 40 39
f 4 39 38
f 4 38 27
f 4 27 22
f 4 22 15
f 4 15 5
f 5 9 10
f 5 10 11
f 5 11 12
f 5 12 13
f 5 13 14
f 5 14 6
f 5 15 23
f 5 23 35
f 5 35 54
f 5 54 36
f 5 36 24
f 5 24 16
f 5 16 17
f 5 17 18
f 5 18 19
f 5 19 9
f 7 20 8
f 8 20 21
f 15 22 33
f 15 33 42
f 15 42 56
f 15 56 43
f 15 43 34
f 15 34 23
f 20 25 21
f 21 25 26
f 22 27 25
f 22 25 28
f 22 28 29
f 22 29 30
f 22 30 31
f 22 31 32
f 22 32 33
f 23 34 35
f 24 36 37
f 25 27 38
f 25 38 39
f 25 39 40
f 25 40 26
f 25 41 55
f 25 55 42
f 25 42 33
f 25 33 32
f 25 32 31
f 25 31 30
f 25 30 29
f 25 29 28
f 34 43 44
f 34 44 45
f 34 45 46
f 34 46 47
f 34 47 48
f 34 48 49
f 34 49 50
f 34 50 51
f 34 51 52
f 34 52 53
f 34 53 54
f 34 54 35
f 36 54 53
f 36 53 52
f 36 52 51
f 36 51 50
f 36 50 49
f 36 49 48
f 36 48 47
f 36 47 46
f 36 46 45
f 36 45 44
f 36 44 43
f 36 43 56
f 36 56 55
f 36 55 41
f 36 41 37
f 42 55 56

