# https://github.com/mikedh/trimesh
v -0.00596710 -0.00926245 0.01758100
v -0.00392579 -0.00926245 0.02085634
v -0.00456346 -0.00924986 0.02142146
v -0.00589737 -0.00916840 0.02152407
v -0.00596710 -0.00870522 0.02152086
v -0.00596710 -0.00759155 0.01758100
v -0.00257059 -0.00926245 0.01758100
v -0.00366923 -0.00926245 0.02029922
v -0.00319656 -0.00894606 0.02036696
v -0.00296235 -0.00879691 0.02036696
v -0.00326203 -0.00890553 0.02062588
v -0.00279894 -0.00843645 0.02108679
v -0.00408867 -0.00917312 0.02121786
v -0.00432340 -0.00894291 0.02155413
v -0.00489827 -0.00917037 0.02155052
v -0.00536295 -0.00916486 0.02154892
v -0.00491584 -0.00866194 0.02160904
v -0.00257592 -0.00678955 0.02167557
v -0.00258603 -0.00629529 0.02159381
v -0.00211389 -0.00524222 0.02147637
v -0.00261158 -0.00524222 0.02127517
v -0.00596710 -0.00835381 0.02123068
v -0.00596710 -0.00822906 0.02083509
v -0.00356809 -0.00524222 0.01758100
v -0.00209526 -0.00891222 0.01758100
v -0.00266268 -0.00856277 0.02036696
v -0.00274305 -0.00848406 0.02083509
v -0.00308159 -0.00872333 0.02080383
v -0.00250885 -0.00826487 0.02083509
v -0.00232681 -0.00797563 0.02109681
v -0.00261584 -0.00815665 0.02118619
v -0.00257592 -0.00782649 0.02143709
v -0.00286016 -0.00793392 0.02153128
v -0.00304379 -0.00851397 0.02117377
v -0.00444743 -0.00866194 0.02159902
v -0.00257592 -0.00725666 0.02163629
v -0.00210165 -0.00674587 0.02159461
v -0.00186319 -0.00605327 0.02154250
v -0.00158108 -0.00524222 0.02135413
v -0.00283993 -0.00524222 0.02096575
v -0.00296927 -0.00524222 0.02044752
v -0.00052928 -0.00531344 0.01758100
v -0.00172266 -0.00856670 0.01758100
v -0.00228050 -0.00803033 0.02083509
v -0.00226347 -0.00768088 0.02127317
v -0.00230605 -0.00737629 0.02155814
v -0.00208409 -0.00772496 0.02083509
v -0.00184083 -0.00709099 0.02113689
v -0.00186798 -0.00644089 0.02154050
v -0.00127235 -0.00531344 0.02116495
v -0.00111214 -0.00531344 0.02083509
v -0.00102271 -0.00531344 0.02036696
v -0.00065118 -0.00586674 0.01758100
v -0.00147941 -0.00820309 0.01758100
v -0.00203245 -0.00725155 0.02129762
v -0.00186425 -0.00680923 0.02137337
v -0.00185361 -0.00729720 0.02083509
v -0.00160503 -0.00678955 0.02083509
v -0.00139265 -0.00612135 0.02109201
v -0.00135326 -0.00585296 0.02114130
v -0.00125159 -0.00585296 0.02083509
v -0.00115472 -0.00585296 0.02036696
v -0.00136976 -0.00643774 0.02046315
v -0.00140596 -0.00632480 0.02083509
f 1 2 3
f 1 3 4
f 1 4 5
f 1 5 22
f 1 22 23
f 1 23 6
f 1 6 24
f 1 24 42
f 1 42 53
f 1 53 54
f 1 54 43
f 1 43 25
f 1 25 7
f 1 7 8
f 1 8 2
f 2 8 9
f 2 9 10
f 2 10 11
f 2 11 12
f 2 12 13
f 2 13 3
f 3 13 14
f 3 14 15
f 3 15 16
f 3 16 4
f 4 16 17
f 4 17 5
f 5 17 18
f 5 18 19
f 5 19 20
f 5 20 21
f 5 21 22
f 6 23 24
f 7 25 10
f 7 10 9
f 7 9 8
f 10 26 27
f 10 27 12
f 10 12 28
f 10 28 11
f 10 25 26
f 11 28 12
f 12 27 29
f 12 29 30
f 12 30 31
f 12 31 32
f 12 32 33
f 12 33 34
f 12 34 13
f 13 34 14
f 14 35 15
f 14 34 33
f 14 33 36
f 14 36 35
f 15 35 17
f 15 17 16
f 17 35 18
f 18 35 36
f 18 36 37
f 18 37 38
f 18 38 20
f 18 20 19
f 20 38 39
f 20 39 24
f 20 24 41
f 20 41 40
f 20 40 21
f 21 40 22
f 22 40 23
f 23 40 41
f 23 41 24
f 24 39 42
f 25 43 26
f 26 43 29
f 26 29 27
f 29 43 44
f 29 44 30
f 30 45 46
f 30 46 32
f 30 32 31
f 30 44 47
f 30 47 48
f 30 48 45
f 32 46 33
f 33 46 36
f 36 46 37
f 37 46 49
f 37 49 38
f 38 49 50
f 38 50 39
f 39 50 51
f 39 51 52
f 39 52 42
f 42 52 53
f 43 54 44
f 44 54 47
f 45 48 55
f 45 55 46
f 46 55 56
f 46 56 49
f 47 57 48
f 47 54 57
f 48 58 59
f 48 59 56
f 48 56 55
f 48 57 58
f 49 56 59
f 49 59 60
f 49 60 50
f 50 60 51
f 51 60 59
f 51 59 61
f 51 61 62
f 51 62 52
f 52 62 53
f 53 62 63
f 53 63 54
f 54 63 58
f 54 58 57
f 58 63 64
f 58 64 59
f 59 64 61
f 61 64 62
f 62 64 63

