# https://github.com/mikedh/trimesh
v 0.00070197 0.00572770 -0.01957645
v -0.00213553 0.01101531 -0.01959717
v -0.00006573 0.00851945 -0.01968007
v 0.00043129 0.00805167 -0.01967819
v 0.00133151 0.00579049 -0.01939840
v 0.00176119 0.00577479 -0.01869657
v 0.00230297 0.00578892 -0.01006261
v -0.00036943 0.00572770 -0.01005696
v 0.00007286 0.00572770 -0.01925521
v -0.00213553 0.01054832 -0.01947847
v -0.00211337 0.01213138 -0.01886425
v -0.00191699 0.01164791 -0.01938427
v -0.00163850 0.01100275 -0.01959340
v -0.00041896 0.00982075 -0.01964145
v -0.00213553 0.00986235 -0.01005696
v 0.00007981 0.00956645 -0.01955855
v 0.00106170 0.00819452 -0.01932115
v 0.00112687 0.00772596 -0.01937956
v 0.00116989 0.00679040 -0.01944644
v 0.00132412 0.00632184 -0.01938427
v 0.00166605 0.00632184 -0.01896128
v 0.00174729 0.00655573 -0.01849402
v 0.00228603 0.00631948 -0.01006261
v 0.00092398 0.01099412 -0.01005696
v -0.00213553 0.00982467 -0.01802488
v -0.00029426 0.00572770 -0.01825945
v -0.00213553 0.01011664 -0.01913180
v -0.00145907 0.01173581 -0.01890570
v -0.00206037 0.01374584 -0.01005696
v -0.00159983 0.01351509 -0.01005696
v -0.00179925 0.01203406 -0.01849402
v -0.00117015 0.01116365 -0.01940217
v -0.00070179 0.01053419 -0.01956137
v 0.00009024 0.01006563 -0.01930608
v 0.00056685 0.00929646 -0.01930419
v 0.00125330 0.00819452 -0.01896128
v 0.00140537 0.00769927 -0.01891983
v 0.00151268 0.00689793 -0.01907810
v 0.00120899 0.00725975 -0.01937202
v 0.00160609 0.00725818 -0.01849402
v 0.00222824 0.00679040 -0.01006261
v 0.00223129 0.00655573 -0.01053553
v 0.00022796 0.01198932 -0.01005696
v 0.00212310 0.00725818 -0.01006261
v 0.00114556 0.01053419 -0.01006261
v 0.00116728 0.00866308 -0.01849402
v 0.00092572 0.00910025 -0.01870033
v 0.00055338 0.00976502 -0.01870505
v 0.00034179 0.01013626 -0.01849402
v 0.00052340 0.01159061 -0.01013892
v -0.00213553 0.00988825 -0.01853076
v -0.00076045 0.01107810 -0.01916854
v -0.00117145 0.01326943 -0.01005696
v -0.00110541 0.01157805 -0.01849402
v -0.00068659 0.01124370 -0.01849402
v -0.00019607 0.01056009 -0.01911672
v 0.00140710 0.00796612 -0.01851946
v 0.00151181 0.00772596 -0.01802488
v -0.00016436 0.01241001 -0.01005696
v 0.00000769 0.01054910 -0.01849402
v -0.00032685 0.01091014 -0.01849402
v 0.00138234 0.00988040 -0.01010218
v -0.00069267 0.01290839 -0.01005696
f 1 2 3
f 1 3 4
f 1 4 5
f 1 5 6
f 1 6 7
f 1 7 8
f 1 8 26
f 1 26 9
f 1 9 10
f 1 10 2
f 2 11 12
f 2 12 13
f 2 13 14
f 2 14 3
f 2 10 27
f 2 27 51
f 2 51 25
f 2 25 15
f 2 15 11
f 3 14 4
f 4 14 16
f 4 16 17
f 4 17 18
f 4 18 19
f 4 19 5
f 5 19 20
f 5 20 21
f 5 21 6
f 6 22 23
f 6 23 7
f 6 21 22
f 7 23 24
f 7 24 8
f 8 24 43
f 8 43 59
f 8 59 63
f 8 63 53
f 8 53 30
f 8 30 29
f 8 29 15
f 8 15 25
f 8 25 26
f 9 27 10
f 9 26 27
f 11 28 12
f 11 15 29
f 11 29 30
f 11 30 31
f 11 31 28
f 12 32 33
f 12 33 13
f 12 28 32
f 13 33 14
f 14 33 16
f 16 33 34
f 16 34 35
f 16 35 17
f 17 35 36
f 17 36 37
f 17 37 38
f 17 38 18
f 18 39 19
f 18 38 39
f 19 39 20
f 20 39 38
f 20 38 21
f 21 38 37
f 21 37 22
f 22 37 40
f 22 40 41
f 22 41 42
f 22 42 23
f 23 41 24
f 23 42 41
f 24 41 44
f 24 44 45
f 24 45 46
f 24 46 47
f 24 47 48
f 24 48 49
f 24 49 50
f 24 50 43
f 25 51 26
f 26 51 27
f 28 52 32
f 28 31 53
f 28 53 54
f 28 54 55
f 28 55 52
f 30 53 31
f 32 52 33
f 33 52 34
f 34 52 56
f 34 56 48
f 34 48 35
f 35 48 47
f 35 47 36
f 36 47 46
f 36 46 57
f 36 57 37
f 37 57 40
f 40 57 58
f 40 58 44
f 40 44 41
f 43 50 49
f 43 49 60
f 43 60 61
f 43 61 59
f 44 58 62
f 44 62 45
f 45 62 46
f 46 62 57
f 48 56 49
f 49 56 60
f 52 55 61
f 52 61 56
f 53 63 54
f 54 63 55
f 55 63 61
f 56 61 60
f 57 62 58
f 59 61 63

