# https://github.com/mikedh/trimesh
v -0.00564619 -0.00926210 -0.00739108
v -0.00899104 -0.00926210 -0.00988493
v -0.00931521 -0.00831569 -0.00988493
v -0.00596867 -0.00562538 -0.00651145
v -0.00596867 -0.00560570 0.01714928
v -0.00596867 -0.00835327 0.02122648
v -0.00596867 -0.00858487 0.02147339
v -0.00596867 -0.00879033 0.02155981
v -0.00596867 -0.00904160 0.02155981
v -0.00596867 -0.00910639 0.02155055
v -0.00596867 -0.00926210 0.02142092
v -0.01140511 -0.00926210 -0.00988493
v -0.00935411 -0.00822477 -0.00988493
v -0.00942627 -0.00808160 -0.00988493
v -0.00964671 -0.00770969 -0.00988493
v -0.00981528 -0.00745519 -0.00988493
v -0.01005093 -0.00726226 -0.00988493
v -0.01024092 -0.00712481 -0.00988493
v -0.00975326 -0.00560570 -0.00847134
v -0.00927631 -0.00560570 0.02120179
v -0.00960217 -0.00560570 0.02142710
v -0.00959766 -0.00678978 0.02164623
v -0.00725801 -0.00912930 0.02160611
v -0.00993310 -0.00560570 0.02151969
v -0.01002274 -0.00560570 0.02154130
v -0.01014847 -0.00560570 0.02155673
v -0.00642363 -0.00926210 0.02155055
v -0.00597092 -0.00925243 0.02150426
v -0.01140511 -0.00675255 -0.00988493
v -0.01140511 -0.00926210 0.01735607
v -0.01037566 -0.00705072 -0.00988493
v -0.00992296 -0.00560570 -0.00853616
v -0.00959766 -0.00725797 0.02162463
v -0.00774680 -0.00916724 0.02159068
v -0.01006559 -0.00632158 0.02162154
v -0.01009829 -0.00681233 0.02161228
v -0.00725801 -0.00926210 0.02158142
v -0.00679008 -0.00926210 0.02156599
v -0.01034804 -0.00560570 0.02155673
v -0.01140511 -0.00560570 -0.00838492
v -0.01103528 -0.00560570 -0.00853924
v -0.01053408 -0.00560570 -0.00863492
v -0.01006559 -0.00560570 -0.00858554
v -0.01102738 -0.00684132 -0.00988493
v -0.00981133 -0.00839408 0.02096104
v -0.00988237 -0.00808195 0.02115240
v -0.01027588 -0.00698342 0.02150734
v -0.01042697 -0.00681233 0.02133142
v -0.01077820 -0.00612078 0.02108759
v -0.01089208 -0.00560570 0.02083141
v -0.01099243 -0.00560570 0.02036227
v -0.01140511 -0.00560570 0.01758138
v -0.00823785 -0.00926210 0.02134685
v -0.00939639 -0.00846639 0.02155673
v -0.01064909 -0.00695550 -0.00988493
v -0.00819443 -0.00902836 0.02157216
v -0.00783475 -0.00926210 0.02155673
v -0.00768366 -0.00926210 0.02157216
v -0.01036721 -0.00585339 0.02157216
v -0.01037116 -0.00632158 0.02158450
v -0.01033958 -0.00667130 0.02156599
v -0.01058257 -0.00560570 0.02137154
v -0.01079962 -0.00560570 0.02113697
v -0.01060174 -0.00585339 0.02134685
f 1 2 3
f 1 3 4
f 1 4 5
f 1 5 6
f 1 6 7
f 1 7 8
f 1 8 9
f 1 9 10
f 1 10 11
f 1 11 27
f 1 27 38
f 1 38 37
f 1 37 58
f 1 58 57
f 1 57 53
f 1 53 30
f 1 30 12
f 1 12 2
f 2 12 29
f 2 29 44
f 2 44 55
f 2 55 31
f 2 31 18
f 2 18 17
f 2 17 16
f 2 16 15
f 2 15 14
f 2 14 13
f 2 13 3
f 3 13 4
f 4 13 14
f 4 14 15
f 4 15 16
f 4 16 17
f 4 17 18
f 4 18 19
f 4 19 5
f 5 19 32
f 5 32 43
f 5 43 42
f 5 42 41
f 5 41 40
f 5 40 52
f 5 52 51
f 5 51 50
f 5 50 63
f 5 63 62
f 5 62 39
f 5 39 26
f 5 26 25
f 5 25 24
f 5 24 21
f 5 21 20
f 5 20 6
f 6 20 7
f 7 21 8
f 7 20 21
f 8 22 23
f 8 23 9
f 8 21 24
f 8 24 25
f 8 25 26
f 8 26 22
f 9 23 27
f 9 27 10
f 10 27 28
f 10 28 11
f 11 28 27
f 12 30 52
f 12 52 40
f 12 40 29
f 18 31 19
f 19 31 32
f 22 33 34
f 22 34 23
f 22 26 35
f 22 35 36
f 22 36 33
f 23 34 37
f 23 37 38
f 23 38 27
f 26 39 35
f 29 40 41
f 29 41 42
f 29 42 43
f 29 43 44
f 30 45 46
f 30 46 47
f 30 47 48
f 30 48 49
f 30 49 50
f 30 50 51
f 30 51 52
f 30 53 54
f 30 54 45
f 31 55 43
f 31 43 32
f 33 36 54
f 33 54 34
f 34 54 56
f 34 56 57
f 34 57 58
f 34 58 37
f 35 59 60
f 35 60 36
f 35 39 59
f 36 60 61
f 36 61 54
f 39 62 59
f 43 55 44
f 45 54 46
f 46 54 47
f 47 54 61
f 47 61 49
f 47 49 48
f 49 63 50
f 49 61 60
f 49 60 63
f 53 57 54
f 54 57 56
f 59 62 60
f 60 62 64
f 60 64 63
f 62 63 64

