# https://github.com/mikedh/trimesh
v 0.01279019 0.00175903 0.01729909
v 0.01279019 0.00572770 0.01729378
v 0.01137180 0.00538425 0.01787473
v 0.01132724 0.00491959 0.01787473
v 0.01089424 0.00353104 0.01787473
v 0.01045452 0.00255782 0.01787473
v 0.01015100 0.00209976 0.01787473
v 0.00992904 0.00177651 0.01787473
v 0.00989709 0.00175903 0.01787473
v 0.01279019 0.00175903 -0.00761257
v 0.01136676 0.00572770 0.01787473
v 0.01137012 0.00550469 0.01787473
v 0.01279019 0.00572770 -0.00922543
v 0.00420085 0.00175903 0.01787473
v 0.01269182 0.00175903 -0.00762053
v 0.00865947 0.00572770 0.01787473
v 0.01006608 0.00175903 -0.00782214
v 0.00994669 0.00175903 -0.00782744
v 0.00959777 0.00175903 -0.00783275
v 0.00632128 0.00175903 -0.00785662
v 0.00585297 0.00175903 -0.00783010
v 0.00540736 0.00175903 -0.00774256
v 0.00420085 0.00572770 -0.00697062
v 0.00420085 0.00356290 0.01787473
v 0.00420085 0.00175903 -0.00679023
v 0.00420085 0.00572770 0.01710013
v 0.00489785 0.00175903 -0.00737913
f 1 2 3
f 1 3 4
f 1 4 5
f 1 5 6
f 1 6 7
f 1 7 8
f 1 8 9
f 1 9 14
f 1 14 25
f 1 25 27
f 1 27 22
f 1 22 21
f 1 21 20
f 1 20 19
f 1 19 18
f 1 18 17
f 1 17 15
f 1 15 10
f 1 10 13
f 1 13 2
f 2 11 12
f 2 12 3
f 2 13 23
f 2 23 26
f 2 26 16
f 2 16 11
f 3 12 11
f 3 11 16
f 3 16 24
f 3 24 14
f 3 14 9
f 3 9 8
f 3 8 7
f 3 7 6
f 3 6 5
f 3 5 4
f 10 15 13
f 13 15 17
f 13 17 18
f 13 18 19
f 13 19 20
f 13 20 21
f 13 21 22
f 13 22 23
f 14 24 26
f 14 26 23
f 14 23 25
f 16 26 24
f 22 27 23
f 23 27 25

