# https://github.com/mikedh/trimesh
v -0.00596816 -0.00560498 0.01714876
v -0.00596816 -0.00560498 -0.00650531
v -0.00596816 -0.00180059 -0.00631191
v -0.00597987 -0.00180059 0.02112436
v -0.00927645 -0.00560498 0.02120111
v -0.00634557 -0.00180059 -0.00658206
v -0.00987423 -0.00560498 -0.00851614
v -0.01023566 -0.00383333 -0.00940950
v -0.01022449 -0.00351192 -0.00941871
v -0.00790842 -0.00180059 0.02155723
v -0.00960222 -0.00560498 0.02142829
v -0.00675385 -0.00180059 -0.00685836
v -0.01053429 -0.00560498 -0.00863587
v -0.01070143 -0.00424523 -0.00938801
v -0.01054121 -0.00398528 -0.00947704
v -0.01053429 -0.00351192 -0.00960905
v -0.01049277 -0.00301807 -0.00952923
v -0.00833001 -0.00180059 0.02156030
v -0.00973157 -0.00298083 0.02156951
v -0.01020639 -0.00560498 0.02155109
v -0.00946701 -0.00180059 -0.00852228
v -0.01060029 -0.00257562 -0.00948011
v -0.01103572 -0.00560498 -0.00853763
v -0.01100219 -0.00397932 -0.00956607
v -0.01102082 -0.00348398 -0.00977483
v -0.01102082 -0.00304377 -0.00979325
v -0.00957135 -0.00261212 0.02156030
v -0.00943295 -0.00180059 0.02117348
v -0.00880589 -0.00181698 0.02153881
v -0.01005947 -0.00354544 0.02156337
v -0.01024844 -0.00385120 0.02154802
v -0.01056303 -0.00491561 0.02143750
v -0.01058273 -0.00560498 0.02136996
v -0.01020692 -0.00180059 -0.00895822
v -0.01100219 -0.00257562 -0.00966124
v -0.01069132 -0.00225682 -0.00940336
v -0.01140514 -0.00560498 -0.00838720
v -0.01132636 -0.00410259 -0.00941871
v -0.01134233 -0.00339088 -0.00978711
v -0.01140514 -0.00260989 -0.00972264
v -0.00939728 -0.00229556 0.02154495
v -0.00982206 -0.00254620 0.02136996
v -0.00986305 -0.00230040 0.02113050
v -0.00918010 -0.00189184 0.02143443
v -0.01140514 -0.00180059 0.01730533
v -0.01023726 -0.00311453 0.02122260
v -0.01079884 -0.00431674 0.02113050
v -0.01056569 -0.00444746 0.02140066
v -0.01083398 -0.00491561 0.02120418
v -0.01079991 -0.00560498 0.02113664
v -0.01053109 -0.00180059 -0.00910557
v -0.01140514 -0.00213988 -0.00952002
v -0.01099314 -0.00198793 -0.00936652
v -0.01140514 -0.00546308 0.01761846
v -0.01027506 -0.00287878 0.02095245
v -0.01140514 -0.00494354 0.01768907
v -0.01112408 -0.00491561 0.01989638
v -0.01106127 -0.00491561 0.02036301
v -0.01103892 -0.00444746 0.02036301
v -0.01092660 -0.00444746 0.02083272
v -0.01130613 -0.00182704 -0.00933582
v -0.01095800 -0.00491561 0.02083272
v -0.01090371 -0.00549437 0.02083272
v -0.01100751 -0.00549437 0.02036301
f 1 2 3
f 1 3 4
f 1 4 5
f 1 5 11
f 1 11 20
f 1 20 33
f 1 33 50
f 1 50 37
f 1 37 23
f 1 23 13
f 1 13 7
f 1 7 2
f 2 6 3
f 2 7 8
f 2 8 9
f 2 9 6
f 3 6 12
f 3 12 21
f 3 21 34
f 3 34 51
f 3 51 45
f 3 45 28
f 3 28 18
f 3 18 10
f 3 10 4
f 4 10 11
f 4 11 5
f 6 9 12
f 7 13 14
f 7 14 15
f 7 15 8
f 8 15 16
f 8 16 9
f 9 16 17
f 9 17 12
f 10 18 19
f 10 19 20
f 10 20 11
f 12 17 22
f 12 22 21
f 13 23 24
f 13 24 14
f 14 24 15
f 15 24 25
f 15 25 16
f 16 25 26
f 16 26 17
f 17 26 22
f 18 27 19
f 18 28 29
f 18 29 27
f 19 30 20
f 19 27 30
f 20 30 31
f 20 31 32
f 20 32 33
f 21 22 34
f 22 26 35
f 22 35 36
f 22 36 34
f 23 37 38
f 23 38 24
f 24 39 25
f 24 38 39
f 25 39 26
f 26 39 40
f 26 40 35
f 27 29 41
f 27 41 42
f 27 42 31
f 27 31 30
f 28 43 42
f 28 42 41
f 28 41 44
f 28 44 29
f 28 45 43
f 29 44 41
f 31 42 46
f 31 46 47
f 31 47 48
f 31 48 32
f 32 48 49
f 32 49 33
f 33 49 50
f 34 36 51
f 35 40 52
f 35 52 53
f 35 53 36
f 36 53 51
f 37 54 56
f 37 56 45
f 37 45 52
f 37 52 40
f 37 40 39
f 37 39 38
f 37 50 54
f 42 43 46
f 43 55 46
f 43 45 55
f 45 56 57
f 45 57 58
f 45 58 59
f 45 59 60
f 45 60 47
f 45 47 55
f 45 51 61
f 45 61 52
f 46 55 47
f 47 60 49
f 47 49 48
f 49 60 62
f 49 62 50
f 50 62 63
f 50 63 64
f 50 64 54
f 51 53 61
f 52 61 53
f 54 64 58
f 54 58 57
f 54 57 56
f 58 62 59
f 58 64 62
f 59 62 60
f 62 64 63

