# https://github.com/mikedh/trimesh
v 0.00965456 -0.02349538 -0.01966404
v 0.00947344 -0.02349538 -0.01024936
v 0.00557688 -0.02711865 -0.01942961
v 0.00489301 -0.02770649 -0.01966404
v 0.00893612 -0.02391432 -0.02068578
v 0.00940581 -0.02349538 -0.02065593
v 0.00622168 -0.02349538 -0.01024936
v 0.00458339 -0.02783670 -0.01024936
v 0.00442407 -0.02806976 -0.01966404
v 0.00418509 -0.02806457 -0.02047126
v 0.00462473 -0.02766403 -0.02069574
v 0.00449396 -0.02802966 -0.01866883
v 0.00656812 -0.02576464 -0.02107945
v 0.00877830 -0.02372655 -0.02114690
v 0.00795841 -0.02357040 -0.02147642
v 0.00723922 -0.02349538 -0.02143219
v 0.00197867 -0.02355860 -0.01024936
v 0.00618711 -0.02349538 -0.01146684
v 0.00197867 -0.02351048 -0.01708866
v 0.00407913 -0.02815280 -0.01024936
v 0.00415579 -0.02816176 -0.01182290
v 0.00431661 -0.02815940 -0.01802526
v 0.00398068 -0.02827876 -0.01919518
v 0.00398068 -0.02825045 -0.01989846
v 0.00326450 -0.02810609 -0.02046463
v 0.00351174 -0.02774990 -0.02119666
v 0.00424446 -0.02746777 -0.02123426
v 0.00513951 -0.02696533 -0.02108829
v 0.00626451 -0.02523531 -0.02151402
v 0.00701001 -0.02422523 -0.02154609
v 0.00197867 -0.02469654 -0.02143883
v 0.00197867 -0.02400255 -0.02104738
v 0.00197867 -0.02372938 -0.02042814
v 0.00197867 -0.02363031 -0.01966404
v 0.00657413 -0.02349538 -0.02104517
v 0.00197867 -0.02709129 -0.01024936
v 0.00616381 -0.02349538 -0.01614100
v 0.00197867 -0.02352274 -0.01775987
v 0.00616606 -0.02349538 -0.01779083
v 0.00623145 -0.02349538 -0.02010635
v 0.00342983 -0.02824904 -0.01024936
v 0.00351174 -0.02828961 -0.01334557
v 0.00351174 -0.02831509 -0.01966404
v 0.00304431 -0.02820611 -0.01942961
v 0.00275272 -0.02800183 -0.01983875
v 0.00270989 -0.02751118 -0.02100315
v 0.00351174 -0.02719037 -0.02148527
v 0.00406936 -0.02691013 -0.02151734
v 0.00642533 -0.02487864 -0.02153282
v 0.00296014 -0.02665348 -0.02153171
v 0.00197867 -0.02551885 -0.02151955
v 0.00251825 -0.02771262 -0.01032124
v 0.00197867 -0.02711535 -0.01294859
v 0.00235217 -0.02761072 -0.01545209
v 0.00291881 -0.02809099 -0.01039312
v 0.00294887 -0.02815563 -0.01418375
v 0.00244010 -0.02764139 -0.02013179
v 0.00284816 -0.02807165 -0.01100462
v 0.00247166 -0.02773244 -0.01942961
v 0.00208012 -0.02721348 -0.02037727
v 0.00219886 -0.02703704 -0.02101310
v 0.00197867 -0.02642325 -0.02126411
v 0.00206810 -0.02726538 -0.01898840
v 0.00202526 -0.02720310 -0.01968947
f 1 2 3
f 1 3 4
f 1 4 5
f 1 5 6
f 1 6 16
f 1 16 35
f 1 35 40
f 1 40 39
f 1 39 37
f 1 37 18
f 1 18 7
f 1 7 2
f 2 7 17
f 2 17 36
f 2 36 41
f 2 41 20
f 2 20 8
f 2 8 3
f 3 8 4
f 4 9 10
f 4 10 11
f 4 11 5
f 4 8 12
f 4 12 9
f 5 11 13
f 5 13 14
f 5 14 6
f 6 14 15
f 6 15 16
f 7 18 19
f 7 19 17
f 8 20 21
f 8 21 22
f 8 22 12
f 9 12 22
f 9 22 23
f 9 23 24
f 9 24 10
f 10 24 25
f 10 25 26
f 10 26 27
f 10 27 11
f 11 27 28
f 11 28 13
f 13 28 27
f 13 27 29
f 13 29 14
f 14 29 15
f 15 29 30
f 15 30 31
f 15 31 16
f 16 31 32
f 16 32 33
f 16 33 34
f 16 34 35
f 17 19 38
f 17 38 34
f 17 34 33
f 17 33 32
f 17 32 31
f 17 31 51
f 17 51 62
f 17 62 53
f 17 53 36
f 18 37 19
f 19 37 39
f 19 39 40
f 19 40 35
f 19 35 38
f 20 41 42
f 20 42 21
f 21 42 23
f 21 23 22
f 23 42 43
f 23 43 24
f 24 43 25
f 25 43 44
f 25 44 45
f 25 45 46
f 25 46 26
f 26 47 27
f 26 46 47
f 27 47 48
f 27 48 29
f 29 48 49
f 29 49 30
f 30 49 48
f 30 48 50
f 30 50 51
f 30 51 31
f 34 38 35
f 36 52 41
f 36 53 54
f 36 54 52
f 41 52 55
f 41 55 56
f 41 56 42
f 42 56 44
f 42 44 43
f 44 56 45
f 45 57 46
f 45 56 58
f 45 58 54
f 45 54 59
f 45 59 57
f 46 57 60
f 46 60 61
f 46 61 62
f 46 62 47
f 47 50 48
f 47 62 50
f 50 62 51
f 52 54 58
f 52 58 55
f 53 63 54
f 53 62 64
f 53 64 63
f 54 63 59
f 55 58 56
f 57 59 60
f 59 63 64
f 59 64 60
f 60 64 62
f 60 62 61

