# https://github.com/mikedh/trimesh
v 0.00420085 0.00209244 0.02156305
v 0.00302239 0.00348770 0.02156585
v 0.00396516 0.00210019 0.02156305
v 0.00420085 0.00183306 0.02155747
v 0.00420085 0.00240487 0.02155467
v 0.00257458 0.00384813 0.02156305
v 0.00257892 0.00350667 0.02156305
v 0.00208893 0.00572731 0.02150160
v 0.00409789 0.00177267 0.02155467
v 0.00420085 0.00177267 0.02155467
v 0.00420085 0.00262670 0.02137591
v 0.00288718 0.00572731 0.02118317
v 0.00257458 0.00572731 0.02138987
v 0.00228307 0.00381793 0.02154909
v 0.00228307 0.00365959 0.02154909
v 0.00257458 0.00257521 0.02149881
v 0.00195124 0.00572731 0.02147646
v 0.00388205 0.00177267 0.02150439
v 0.00420085 0.00177267 -0.00678283
v 0.00420085 0.00286053 0.02112731
v 0.00299510 0.00572731 0.02092619
v 0.00166779 0.00572731 0.02142339
v 0.00211870 0.00397627 0.02150439
v 0.00211870 0.00350667 0.02145132
v 0.00219871 0.00257521 0.02129490
v 0.00228989 0.00228872 0.02121390
v 0.00259753 0.00212264 0.02126976
v 0.00304286 0.00177267 0.02119993
v -0.00135961 0.00177267 -0.00696998
v 0.00420085 0.00571880 -0.00696998
v 0.00303170 0.00572731 0.02083401
v 0.00420085 0.00572731 0.01709944
v 0.00157785 0.00572731 0.02136194
v 0.00163864 0.00538431 0.02138708
v 0.00168267 0.00397976 0.02127535
v 0.00175400 0.00351170 0.02120552
v -0.00213553 0.00177267 0.01726983
v 0.00276871 0.00183771 0.02112172
v 0.00298890 0.00177267 0.02117759
v -0.00213553 0.00177267 -0.00696998
v 0.00420085 0.00572731 -0.00696998
v 0.00132479 0.00572731 0.02118317
v 0.00133224 0.00538431 0.02117759
v -0.00213553 0.00488760 0.01728100
v -0.00213553 0.00224653 -0.00696998
v 0.00137255 0.00572731 -0.00696998
v -0.00213553 0.00572731 0.01727542
v -0.00213553 0.00538431 0.01727821
v -0.00213553 0.00491625 0.01728100
v -0.00213553 0.00572731 -0.00534710
v 0.00057058 0.00572731 -0.00661244
v 0.00119020 0.00572731 -0.00689177
f 1 2 3
f 1 3 4
f 1 4 10
f 1 10 19
f 1 19 30
f 1 30 41
f 1 41 32
f 1 32 20
f 1 20 11
f 1 11 5
f 1 5 2
f 2 6 7
f 2 7 3
f 2 5 8
f 2 8 6
f 3 7 9
f 3 9 4
f 4 9 10
f 5 11 12
f 5 12 13
f 5 13 8
f 6 8 14
f 6 14 15
f 6 15 7
f 7 15 16
f 7 16 9
f 8 13 12
f 8 12 21
f 8 21 31
f 8 31 32
f 8 32 41
f 8 41 46
f 8 46 52
f 8 52 51
f 8 51 50
f 8 50 47
f 8 47 42
f 8 42 33
f 8 33 22
f 8 22 17
f 8 17 14
f 9 18 28
f 9 28 39
f 9 39 37
f 9 37 40
f 9 40 29
f 9 29 19
f 9 19 10
f 9 16 18
f 11 20 12
f 12 20 21
f 14 17 22
f 14 22 15
f 15 22 23
f 15 23 24
f 15 24 16
f 16 24 25
f 16 25 26
f 16 26 27
f 16 27 18
f 18 27 28
f 19 29 30
f 20 31 21
f 20 32 31
f 22 33 34
f 22 34 23
f 23 34 35
f 23 35 24
f 24 35 25
f 25 35 36
f 25 36 37
f 25 37 26
f 26 38 27
f 26 37 38
f 27 38 39
f 27 39 28
f 29 40 45
f 29 45 46
f 29 46 41
f 29 41 30
f 33 42 43
f 33 43 34
f 34 43 35
f 35 43 37
f 35 37 36
f 37 39 38
f 37 43 42
f 37 42 44
f 37 44 49
f 37 49 48
f 37 48 47
f 37 47 50
f 37 50 45
f 37 45 40
f 42 47 48
f 42 48 49
f 42 49 44
f 45 50 51
f 45 51 52
f 45 52 46

