# https://github.com/mikedh/trimesh
v 0.00197792 -0.01589477 0.01830015
v 0.00197792 -0.01534320 0.02038427
v 0.00197792 -0.01427029 0.01830015
v 0.00707376 -0.01679062 0.01830015
v 0.00731094 -0.01742116 0.01932779
v 0.00739323 -0.01742116 0.01998247
v 0.00747254 -0.01742116 0.02050904
v 0.00757429 -0.01742116 0.02085248
v 0.00197792 -0.01521672 0.02079948
v 0.00800749 -0.01742116 0.02147396
v 0.00197792 -0.01427029 0.01932745
v 0.00866888 -0.01427029 0.01932745
v 0.00873547 -0.01428417 0.01830015
v 0.00962131 -0.01670578 0.01830015
v 0.00945372 -0.01742116 0.01932779
v 0.00197792 -0.01495513 0.02123549
v 0.00202580 -0.01438505 0.02159201
v 0.00856862 -0.01742116 0.02152326
v 0.00819304 -0.01708923 0.02157390
v 0.00678796 -0.01427584 0.02172617
v 0.00845116 -0.01427029 0.02083537
v 0.00863371 -0.01427029 0.01996268
v 0.00892775 -0.01466855 0.01896322
v 0.00893074 -0.01463307 0.01834912
v 0.00933850 -0.01562855 0.01830015
v 0.00954649 -0.01628994 0.01830015
v 0.00938638 -0.01606105 0.01983993
v 0.00935646 -0.01616285 0.02036683
v 0.00942753 -0.01662095 0.02036683
v 0.00941257 -0.01708923 0.02036683
v 0.00937516 -0.01742116 0.02034704
v 0.00877961 -0.01662095 0.02150750
v 0.00855291 -0.01568562 0.02159101
v 0.00819304 -0.01568562 0.02163327
v 0.00909310 -0.01725519 0.02124220
v 0.00725557 -0.01427584 0.02166882
v 0.00802320 -0.01438875 0.02143539
v 0.00848109 -0.01461302 0.02115131
v 0.00869507 -0.01474937 0.02083537
v 0.00857611 -0.01427029 0.02039433
v 0.00770373 -0.01428356 0.02155043
v 0.00889333 -0.01475029 0.01989963
v 0.00891353 -0.01470155 0.01940526
v 0.00915445 -0.01521734 0.01896322
v 0.00913425 -0.01511091 0.01834912
v 0.00930558 -0.01563194 0.01896322
v 0.00930408 -0.01570660 0.01940124
v 0.00925844 -0.01568562 0.01989963
v 0.00918512 -0.01568562 0.02036683
v 0.00932428 -0.01626927 0.02074146
v 0.00935870 -0.01662095 0.02082531
v 0.00933476 -0.01725026 0.02076796
v 0.00869806 -0.01615298 0.02154171
v 0.00909833 -0.01662095 0.02127373
v 0.00836437 -0.01500664 0.02152695
v 0.00878784 -0.01568562 0.02142029
v 0.00857760 -0.01526515 0.02144243
v 0.00893523 -0.01555081 0.02114259
v 0.00889558 -0.01520685 0.02083537
v 0.00887987 -0.01492243 0.02044363
v 0.00908038 -0.01521765 0.01989963
v 0.00912153 -0.01521765 0.01943143
v 0.00908113 -0.01568562 0.02083537
v 0.00905344 -0.01615298 0.02127105
f 1 2 9
f 1 9 16
f 1 16 11
f 1 11 3
f 1 3 13
f 1 13 25
f 1 25 26
f 1 26 14
f 1 14 4
f 1 4 5
f 1 5 6
f 1 6 7
f 1 7 8
f 1 8 2
f 2 8 10
f 2 10 9
f 3 11 21
f 3 21 40
f 3 40 22
f 3 22 12
f 3 12 13
f 4 14 15
f 4 15 5
f 5 15 31
f 5 31 18
f 5 18 10
f 5 10 8
f 5 8 7
f 5 7 6
f 9 10 16
f 10 17 16
f 10 18 19
f 10 19 17
f 11 16 17
f 11 17 20
f 11 20 21
f 12 22 13
f 13 22 23
f 13 23 24
f 13 24 25
f 14 26 27
f 14 27 28
f 14 28 29
f 14 29 30
f 14 30 31
f 14 31 15
f 17 19 20
f 18 32 33
f 18 33 34
f 18 34 19
f 18 31 35
f 18 35 32
f 19 34 20
f 20 36 21
f 20 34 33
f 20 33 36
f 21 37 38
f 21 38 39
f 21 39 40
f 21 36 41
f 21 41 37
f 22 40 42
f 22 42 43
f 22 43 23
f 23 43 44
f 23 44 45
f 23 45 24
f 24 45 25
f 25 45 44
f 25 44 46
f 25 46 26
f 26 46 47
f 26 47 27
f 27 47 48
f 27 48 28
f 28 48 49
f 28 49 50
f 28 50 29
f 29 51 30
f 29 50 51
f 30 51 52
f 30 52 31
f 31 52 35
f 32 53 33
f 32 35 54
f 32 54 53
f 33 55 36
f 33 53 56
f 33 56 55
f 35 52 51
f 35 51 54
f 36 55 41
f 37 55 38
f 37 41 55
f 38 55 57
f 38 57 58
f 38 58 39
f 39 58 59
f 39 59 60
f 39 60 40
f 40 60 42
f 42 60 61
f 42 61 62
f 42 62 43
f 43 62 44
f 44 62 47
f 44 47 46
f 47 62 48
f 48 62 61
f 48 61 49
f 49 61 60
f 49 60 50
f 50 60 63
f 50 63 58
f 50 58 64
f 50 64 51
f 51 64 54
f 53 54 64
f 53 64 56
f 55 56 57
f 56 64 58
f 56 58 57
f 58 63 59
f 59 63 60

