# https://github.com/mikedh/trimesh
v -0.01140567 -0.00494457 0.01769052
v -0.01545507 -0.00489855 0.01736661
v -0.01168118 -0.00926245 0.01733422
v -0.01140567 -0.00926245 -0.00988493
v -0.01140567 -0.00675179 -0.00988493
v -0.01141464 -0.00198612 -0.00943416
v -0.01152386 -0.00179985 0.01730992
v -0.01233570 -0.00179985 0.01730183
v -0.01323149 -0.00179985 0.01726674
v -0.01580393 -0.00421628 0.01731262
v -0.01598406 -0.00494604 0.01726944
v -0.01550560 -0.00549901 0.01730453
v -0.01359258 -0.00787892 0.01726944
v -0.01287692 -0.00866200 0.01726674
v -0.01241313 -0.00919525 0.01723704
v -0.01312553 -0.00917699 0.01677277
v -0.01322171 -0.00926245 0.01591711
v -0.01325513 -0.00926245 -0.00973648
v -0.01456987 -0.00801260 -0.00988493
v -0.01141464 -0.00285759 -0.00977427
v -0.01633863 -0.00179985 -0.00988493
v -0.01420797 -0.00179985 0.01713447
v -0.01568411 -0.00327835 0.01720465
v -0.01615197 -0.00374658 0.01721005
v -0.01678530 -0.00375389 0.01693473
v -0.01680079 -0.00449241 0.01688344
v -0.01626853 -0.00539893 0.01688344
v -0.01562542 -0.00603591 0.01701841
v -0.01366023 -0.00838880 0.01701031
v -0.01454787 -0.00752683 0.01688614
v -0.01362436 -0.00871532 0.01662162
v -0.01605416 -0.00598332 0.01622213
v -0.01678856 -0.00555014 -0.00988493
v -0.01362273 -0.00894250 0.00351410
v -0.01331381 -0.00926245 0.00397567
v -0.01330566 -0.00926245 -0.00397629
v -0.01973269 -0.00179985 -0.00988493
v -0.01514044 -0.00180058 0.01682406
v -0.01569226 -0.00256101 0.01696982
v -0.01633211 -0.00179985 0.01616005
v -0.01637531 -0.00297300 0.01688074
v -0.01715617 -0.00276920 0.01635169
v -0.01735994 -0.00335943 0.01642187
v -0.01779195 -0.00307089 0.01591981
v -0.01776260 -0.00365016 0.01581184
v -0.01735668 -0.00415492 0.01621673
v -0.01686926 -0.00492047 0.01636519
v -0.01499046 -0.00703010 0.01685915
v -0.01460003 -0.00758600 0.01662162
v -0.01647394 -0.00548951 0.01615195
v -0.01968623 -0.00179985 0.01184396
v -0.01711949 -0.00514984 -0.00966630
v -0.01586424 -0.00180423 0.01645157
v -0.01585528 -0.00239519 0.01682406
v -0.01958678 -0.00180204 0.01264563
v -0.01813102 -0.00182250 0.01499937
v -0.01748710 -0.00183564 0.01545015
v -0.01743249 -0.00223157 0.01579295
v -0.01789954 -0.00241492 0.01556351
v -0.01842527 -0.00248212 0.01494269
v -0.01832583 -0.00306797 0.01497508
v -0.01881570 -0.00248285 0.01419230
v -0.01927705 -0.00192257 0.01340682
v -0.01875783 -0.00195398 0.01434076
f 1 2 3
f 1 3 4
f 1 4 5
f 1 5 6
f 1 6 7
f 1 7 8
f 1 8 9
f 1 9 10
f 1 10 2
f 2 10 11
f 2 11 12
f 2 12 3
f 3 12 13
f 3 13 14
f 3 14 15
f 3 15 16
f 3 16 17
f 3 17 35
f 3 35 36
f 3 36 18
f 3 18 4
f 4 18 19
f 4 19 33
f 4 33 37
f 4 37 21
f 4 21 5
f 5 20 6
f 5 21 20
f 6 20 21
f 6 21 7
f 7 21 37
f 7 37 51
f 7 51 40
f 7 40 22
f 7 22 9
f 7 9 8
f 9 22 23
f 9 23 10
f 10 23 24
f 10 24 11
f 11 24 25
f 11 25 26
f 11 26 27
f 11 27 28
f 11 28 12
f 12 28 13
f 13 28 29
f 13 29 14
f 14 29 15
f 15 29 16
f 16 29 30
f 16 30 31
f 16 31 17
f 17 32 33
f 17 33 34
f 17 34 35
f 17 31 32
f 18 36 19
f 19 36 35
f 19 35 34
f 19 34 33
f 22 38 39
f 22 39 23
f 22 40 38
f 23 39 24
f 24 39 41
f 24 41 25
f 25 41 42
f 25 42 43
f 25 43 26
f 26 43 44
f 26 44 45
f 26 45 46
f 26 46 47
f 26 47 27
f 27 47 48
f 27 48 28
f 28 48 30
f 28 30 29
f 30 48 31
f 31 48 49
f 31 49 32
f 32 50 51
f 32 51 33
f 32 49 48
f 32 48 47
f 32 47 50
f 33 51 52
f 33 52 37
f 37 52 51
f 38 53 54
f 38 54 39
f 38 40 53
f 39 54 41
f 40 51 55
f 40 55 56
f 40 56 57
f 40 57 58
f 40 58 42
f 40 42 53
f 41 54 42
f 42 58 59
f 42 59 43
f 42 54 53
f 43 59 44
f 44 59 60
f 44 60 61
f 44 61 45
f 45 61 47
f 45 47 46
f 47 61 55
f 47 55 51
f 47 51 50
f 55 61 62
f 55 62 63
f 55 63 64
f 55 64 56
f 56 64 59
f 56 59 58
f 56 58 57
f 59 64 60
f 60 64 63
f 60 63 62
f 60 62 61

