# https://github.com/mikedh/trimesh
v 0.02308079 -0.00179985 0.01568318
v 0.02066729 0.00101271 0.01568002
v 0.02109943 0.00050458 0.01615174
v 0.02307978 -0.00179985 0.01575916
v 0.02293976 -0.00179985 -0.01161983
v 0.02282393 -0.00166507 -0.01161983
v 0.02095437 0.00050729 -0.01161983
v 0.02059275 0.00092712 -0.01161983
v 0.01960157 0.00215679 0.00106606
v 0.02002765 0.00175168 0.01568002
v 0.01966805 0.00215679 0.01615174
v 0.02108633 0.00048947 0.01642401
v 0.02306669 -0.00179985 0.01615174
v 0.01962977 -0.00179985 -0.01161983
v 0.01953206 0.00215679 -0.01161983
v 0.01967308 0.00215679 0.01568002
v 0.01967107 0.00215679 0.01595862
v 0.01952400 0.00215679 0.01665512
v 0.01973856 0.00196276 0.01653165
v 0.02298509 -0.00179985 0.01650632
v 0.02300927 -0.00179985 0.01641451
v 0.02100474 0.00039458 0.01673744
v 0.01631675 0.00215679 -0.01161983
v 0.01279119 -0.00179985 -0.00896678
v 0.01931549 0.00215679 0.01693372
v 0.01965898 0.00186632 0.01684508
v 0.02010824 0.00137716 0.01681025
v 0.02284407 -0.00179985 0.01675643
v 0.02113972 0.00008281 0.01690840
v 0.01279119 0.00215679 -0.00751362
v 0.01279119 -0.00179985 0.01735479
v 0.01896193 0.00215679 0.01711418
v 0.01708130 -0.00179985 0.02071702
v 0.02259930 -0.00173401 0.01693689
v 0.02262549 -0.00179985 0.01695272
v 0.01279119 0.00215679 0.01728831
v 0.01642554 -0.00179985 0.02058721
v 0.01279119 0.00108436 0.01731047
v 0.01849353 0.00215679 0.01725032
v 0.01802111 0.00215679 0.01730414
v 0.01755876 0.00215679 0.01731364
v 0.01675392 -0.00179985 0.02072335
v 0.01279119 0.00210644 0.01729148
v 0.01661189 -0.00179985 0.02070435
v 0.01292718 0.00215679 0.01729148
v 0.01334521 0.00215679 0.01729464
f 1 2 3
f 1 3 4
f 1 4 13
f 1 13 21
f 1 21 20
f 1 20 28
f 1 28 35
f 1 35 33
f 1 33 42
f 1 42 44
f 1 44 37
f 1 37 31
f 1 31 24
f 1 24 14
f 1 14 5
f 1 5 2
f 2 5 6
f 2 6 7
f 2 7 8
f 2 8 9
f 2 9 10
f 2 10 3
f 3 10 11
f 3 11 12
f 3 12 13
f 3 13 4
f 5 14 23
f 5 23 15
f 5 15 8
f 5 8 7
f 5 7 6
f 8 15 9
f 9 15 23
f 9 23 30
f 9 30 36
f 9 36 45
f 9 45 46
f 9 46 41
f 9 41 40
f 9 40 39
f 9 39 32
f 9 32 25
f 9 25 18
f 9 18 11
f 9 11 17
f 9 17 16
f 9 16 10
f 10 16 17
f 10 17 11
f 11 18 19
f 11 19 12
f 12 20 21
f 12 21 13
f 12 19 18
f 12 18 22
f 12 22 20
f 14 24 23
f 18 25 26
f 18 26 27
f 18 27 22
f 20 22 28
f 22 27 29
f 22 29 28
f 23 24 30
f 24 31 38
f 24 38 43
f 24 43 36
f 24 36 30
f 25 32 33
f 25 33 29
f 25 29 26
f 26 29 27
f 28 29 34
f 28 34 35
f 29 33 34
f 31 37 38
f 32 39 33
f 33 40 41
f 33 41 42
f 33 35 34
f 33 39 40
f 36 43 37
f 36 37 44
f 36 44 42
f 36 42 45
f 37 43 38
f 41 46 42
f 42 46 45

