# https://github.com/mikedh/trimesh
v -0.00115433 -0.02342580 -0.00879250
v -0.00115433 -0.02341326 -0.00163425
v -0.00740112 -0.01627643 0.00117576
v -0.00845896 -0.01502184 -0.00819369
v -0.00115433 -0.02341864 -0.01055596
v -0.00115433 -0.02337204 0.00415608
v -0.00115433 -0.02336756 0.00469995
v -0.00320086 -0.02098204 0.00959755
v -0.00330106 -0.02086196 0.01006451
v -0.00349600 -0.02058147 0.01474786
v -0.00588117 -0.01782585 0.01615150
v -0.00847449 -0.01480587 0.01615150
v -0.00896690 -0.01438110 0.00538391
v -0.00908884 -0.01427088 -0.00069758
v -0.00903913 -0.01427088 -0.00954238
v -0.00903214 -0.01427088 -0.00999836
v -0.00902049 -0.01427088 -0.01054498
v -0.00693279 -0.01673077 -0.01055596
v -0.00659183 -0.01712955 -0.01055047
v -0.00615456 -0.01763945 -0.01055596
v -0.00367464 -0.02051784 -0.01055596
v -0.00115433 -0.01883490 -0.01055596
v -0.00115433 -0.02325733 0.01445395
v -0.00327310 -0.02082880 0.01521483
v -0.00360940 -0.02044436 0.01521483
v -0.00127937 -0.02308706 0.01579990
v -0.00422297 -0.01967458 0.01641519
v -0.00749666 -0.01592694 0.01641245
v -0.00890244 -0.01430583 0.01596197
v -0.00833391 -0.01485964 0.01662120
v -0.00905311 -0.01427088 0.00585087
v -0.00572972 -0.01427088 -0.01055596
v -0.00115899 -0.01427177 -0.00764707
v -0.00115433 -0.01427088 0.01737109
v -0.00115433 -0.02324568 0.01510770
v -0.00115433 -0.02313904 0.01639047
v -0.00377871 -0.02016925 0.01647837
v -0.00703298 -0.01640099 0.01667614
v -0.00864769 -0.01434167 0.01679975
v -0.00725589 -0.01427088 0.01739581
v -0.00801470 -0.01516880 0.01677777
v -0.00678910 -0.01427088 0.01739856
v -0.00115433 -0.01615455 0.01748920
v -0.00115433 -0.01709102 0.01750569
v -0.00116287 -0.02177154 0.01741504
v -0.00128403 -0.02220347 0.01729693
v -0.00131354 -0.02261391 0.01702224
v -0.00192712 -0.02206457 0.01691512
v -0.00237992 -0.02157797 0.01690138
v -0.00255156 -0.02150628 0.01662120
v -0.00329873 -0.02062359 0.01673932
v -0.00714948 -0.01607121 0.01697829
v -0.00757588 -0.01540090 0.01708817
v -0.00782441 -0.01468400 0.01729418
v -0.00725589 -0.01475031 0.01740131
v -0.00678910 -0.01521809 0.01742328
v -0.00678910 -0.01475031 0.01741504
v -0.00115433 -0.01660352 0.01750294
v -0.00632077 -0.01568677 0.01742603
v -0.00116287 -0.02130286 0.01743701
v -0.00304398 -0.01942993 0.01742877
v -0.00694755 -0.01561508 0.01736560
v -0.00307660 -0.02007873 0.01733263
f 1 2 3
f 1 3 4
f 1 4 5
f 1 5 22
f 1 22 34
f 1 34 43
f 1 43 58
f 1 58 44
f 1 44 36
f 1 36 35
f 1 35 23
f 1 23 7
f 1 7 6
f 1 6 2
f 2 6 3
f 3 6 7
f 3 7 8
f 3 8 9
f 3 9 10
f 3 10 11
f 3 11 12
f 3 12 13
f 3 13 14
f 3 14 4
f 4 14 15
f 4 15 16
f 4 16 17
f 4 17 18
f 4 18 19
f 4 19 20
f 4 20 21
f 4 21 5
f 5 21 20
f 5 20 18
f 5 18 32
f 5 32 22
f 7 23 8
f 8 23 9
f 9 23 10
f 10 24 25
f 10 25 11
f 10 23 24
f 11 25 24
f 11 24 26
f 11 26 27
f 11 27 28
f 11 28 12
f 12 29 13
f 12 28 30
f 12 30 29
f 13 31 14
f 13 29 31
f 14 31 40
f 14 40 42
f 14 42 34
f 14 34 32
f 14 32 17
f 14 17 16
f 14 16 15
f 17 32 18
f 18 20 19
f 22 32 33
f 22 33 34
f 23 35 24
f 24 35 26
f 26 35 36
f 26 36 37
f 26 37 27
f 27 37 38
f 27 38 28
f 28 38 30
f 29 30 39
f 29 39 40
f 29 40 31
f 30 38 41
f 30 41 39
f 32 34 33
f 34 42 43
f 36 44 45
f 36 45 46
f 36 46 47
f 36 47 48
f 36 48 49
f 36 49 50
f 36 50 37
f 37 50 51
f 37 51 38
f 38 51 49
f 38 49 52
f 38 52 41
f 39 41 52
f 39 52 53
f 39 53 54
f 39 54 40
f 40 54 55
f 40 55 56
f 40 56 57
f 40 57 42
f 42 57 43
f 43 57 58
f 44 58 56
f 44 56 59
f 44 59 60
f 44 60 45
f 45 60 61
f 45 61 56
f 45 56 62
f 45 62 63
f 45 63 46
f 46 63 62
f 46 62 53
f 46 53 52
f 46 52 47
f 47 52 49
f 47 49 48
f 49 51 50
f 53 62 54
f 54 62 55
f 55 62 56
f 56 61 59
f 56 58 57
f 59 61 60

