# https://github.com/mikedh/trimesh
v -0.02534766 -0.01123734 0.07456512
v -0.02534766 -0.01123734 0.09832695
v -0.02534766 0.00402460 0.07456512
v 0.01313533 -0.01123734 0.07456512
v -0.02530622 -0.01123734 0.09835256
v -0.02534766 0.00402460 0.09700672
v 0.01313533 0.00402460 0.07456512
v 0.01313533 -0.01123734 0.09733038
v 0.00557886 -0.01123734 0.09835256
v -0.01965582 0.00402460 0.09835256
v 0.01313533 0.00402460 0.09826642
v 0.01313533 -0.01123585 0.09737229
v 0.01312779 -0.01123734 0.09737229
v 0.01310896 0.00401414 0.09835256
v 0.01241961 0.00402460 0.09835256
v 0.01313533 0.00401414 0.09834092
f 1 2 6
f 1 6 3
f 1 3 7
f 1 7 4
f 1 4 8
f 1 8 13
f 1 13 9
f 1 9 5
f 1 5 2
f 2 5 6
f 3 6 10
f 3 10 15
f 3 15 11
f 3 11 7
f 4 7 11
f 4 11 16
f 4 16 12
f 4 12 8
f 5 9 14
f 5 14 15
f 5 15 10
f 5 10 6
f 8 12 13
f 9 13 12
f 9 12 14
f 11 15 14
f 11 14 16
f 12 16 14

