# https://github.com/mikedh/trimesh
v 0.05465646 -0.01708787 0.05036466
v -0.00503131 -0.01632695 0.07454604
v 0.05410141 -0.02248730 0.06885855
v 0.05248886 -0.02212769 0.02868348
v 0.05066597 -0.01746312 -0.02548129
v -0.00503131 -0.01632695 -0.11835152
v 0.00049576 -0.06957077 0.06194957
v 0.02037221 -0.06344169 0.06792335
v 0.04772716 -0.03787777 0.07200766
v -0.00503131 -0.06590687 -0.03330636
v 0.04990644 -0.03135259 0.04378014
v 0.04988307 -0.02872583 0.01927431
v 0.04799007 -0.02704242 -0.02824869
v 0.04461307 -0.02835058 -0.07275617
v 0.04057584 -0.03225944 -0.10747277
v 0.03806938 -0.02066838 -0.11747360
v 0.00460894 -0.05102195 -0.12039368
v -0.00209834 -0.06033545 -0.11287398
v -0.00004175 -0.06818964 0.02505723
v 0.00256988 -0.06844502 0.03870339
v 0.01247305 -0.06626648 0.04610858
v 0.02080456 -0.06238890 0.04208153
v 0.02987224 -0.05747416 0.05460164
v 0.03958261 -0.04915091 0.06834324
v 0.04299467 -0.04311042 0.03818808
v 0.04393533 -0.04084329 0.02372124
v 0.04659954 -0.03662172 0.02524808
v -0.00195228 -0.06406710 -0.06399590
v -0.00302731 -0.06517722 -0.04542567
v -0.00100578 -0.06739223 0.00501741
v 0.04464812 -0.03436501 -0.03189403
v 0.04457801 -0.03229592 -0.04949090
v 0.03636919 -0.04043155 -0.09922782
v 0.01576242 -0.05571257 -0.10878968
v 0.02643096 -0.03872208 -0.11882866
v 0.04034214 -0.03787777 -0.06850009
v 0.00962187 -0.06101819 -0.07636334
v 0.00871043 -0.06671991 0.03114552
v 0.00587678 -0.06459349 -0.02725624
v 0.00602868 -0.06664694 0.01526635
v 0.01239709 -0.06281106 -0.02322919
v 0.01455885 -0.06422867 0.02017133
v 0.02190297 -0.06029375 0.01057130
v 0.01756193 -0.06099213 -0.01719816
v 0.03025785 -0.05652040 0.04091731
v 0.03388609 -0.05307019 0.03364572
v 0.03861274 -0.04672742 0.00906355
v 0.04008507 -0.04141137 -0.03447058
v 0.03057920 -0.04874960 -0.07874903
v 0.02994820 -0.04815024 -0.09390296
v 0.02331687 -0.05435229 -0.07617248
v 0.01612466 -0.05855301 -0.07435936
v 0.01226856 -0.06064815 -0.06561818
v 0.01562804 -0.06292571 0.00392953
v 0.01646353 -0.06073676 -0.03128329
v 0.02175106 -0.05628066 -0.06159114
v 0.02605704 -0.05439920 -0.04744874
v 0.02871541 -0.05286171 -0.04139863
v 0.03430092 -0.04966166 -0.01315203
f 1 2 3
f 1 3 4
f 1 4 5
f 1 5 6
f 1 6 2
f 2 7 8
f 2 8 9
f 2 9 3
f 2 6 10
f 2 10 7
f 3 9 11
f 3 11 12
f 3 12 4
f 4 12 13
f 4 13 5
f 5 13 14
f 5 14 15
f 5 15 16
f 5 16 6
f 6 16 17
f 6 17 18
f 6 18 10
f 7 19 20
f 7 20 21
f 7 21 8
f 7 10 19
f 8 21 22
f 8 22 23
f 8 23 24
f 8 24 9
f 9 24 25
f 9 25 26
f 9 26 27
f 9 27 11
f 10 18 28
f 10 28 29
f 10 29 30
f 10 30 19
f 11 27 12
f 12 27 31
f 12 31 32
f 12 32 13
f 13 32 14
f 14 32 15
f 15 33 34
f 15 34 35
f 15 35 16
f 15 32 36
f 15 36 33
f 16 35 17
f 17 35 34
f 17 34 18
f 18 34 37
f 18 37 28
f 19 30 20
f 20 38 21
f 20 30 39
f 20 39 40
f 20 40 38
f 21 38 41
f 21 41 42
f 21 42 22
f 22 43 23
f 22 42 44
f 22 44 43
f 23 43 45
f 23 45 46
f 23 46 24
f 24 46 47
f 24 47 25
f 25 47 26
f 26 47 48
f 26 48 36
f 26 36 31
f 26 31 27
f 28 39 30
f 28 30 29
f 28 37 39
f 31 36 32
f 33 36 48
f 33 48 47
f 33 47 49
f 33 49 50
f 33 50 34
f 34 50 51
f 34 51 52
f 34 52 37
f 37 52 53
f 37 53 41
f 37 41 38
f 37 38 39
f 38 40 39
f 41 53 42
f 42 54 44
f 42 53 55
f 42 55 54
f 43 44 52
f 43 52 56
f 43 56 57
f 43 57 45
f 44 55 52
f 44 54 55
f 45 57 58
f 45 58 46
f 46 58 59
f 46 59 47
f 47 59 49
f 49 58 50
f 49 59 58
f 50 58 57
f 50 57 51
f 51 57 56
f 51 56 52
f 52 55 53

