# https://github.com/mikedh/trimesh
v 0.03988872 0.04767030 -0.01719707
v 0.04972274 0.03731731 -0.02134715
v 0.04035474 0.04634200 -0.01729450
v 0.04735365 0.05436745 -0.00220619
v 0.04682911 0.05575381 -0.00220619
v 0.04036124 0.05055191 -0.01609163
v 0.03988872 0.04955267 -0.01717271
v 0.05083251 0.03737780 -0.02054337
v 0.05065477 0.03615595 -0.02044219
v 0.04972274 0.03553415 -0.02091435
v 0.04022035 0.05062450 -0.01723080
v 0.04141465 0.05122453 -0.01729450
v 0.05366979 0.05595705 -0.01729450
v 0.05717466 0.05595705 -0.01729450
v 0.05717466 0.05134792 -0.01729450
v 0.04182865 0.04399026 -0.01729450
v 0.04770478 0.05370693 -0.00220619
v 0.04745118 0.05735794 -0.00220619
v 0.04634792 0.05669500 -0.00345027
v 0.05065477 0.03615595 -0.01961030
v 0.05262721 0.03821736 -0.01837933
v 0.05673465 0.04223371 -0.01069746
v 0.05680401 0.04220710 -0.00909176
v 0.04972274 0.03563335 -0.01945854
v 0.04467026 0.04062475 -0.01729450
v 0.04367537 0.04166271 -0.01729450
v 0.04275201 0.04268615 -0.01729450
v 0.04224698 0.05268832 -0.01367653
v 0.04224698 0.05268832 -0.01470327
v 0.05539513 0.05867898 -0.01273971
v 0.05932700 0.05867898 -0.01273971
v 0.06202990 0.06025165 -0.00767905
v 0.06202990 0.05500135 -0.00767905
v 0.04853061 0.05257460 -0.00220619
v 0.04638693 0.05661757 -0.00627008
v 0.04632191 0.05670467 -0.00505222
v 0.05900187 0.06025165 -0.00220619
v 0.05791812 0.06025165 -0.00511967
v 0.05732205 0.06025165 -0.00707012
v 0.05716816 0.06025165 -0.00767905
v 0.05875911 0.04428544 -0.00303245
v 0.05871576 0.04433625 -0.00220619
v 0.05868325 0.04428302 -0.00642184
v 0.05875911 0.04422495 -0.00505222
v 0.04972274 0.03657694 -0.01814325
v 0.04804942 0.03810364 -0.01729450
v 0.04681610 0.03885610 -0.01729450
v 0.04574101 0.03964002 -0.01729450
v 0.05788344 0.04428060 -0.00220619
v 0.05645504 0.04448383 -0.00220619
v 0.05327530 0.04718640 -0.00220619
v 0.05267056 0.04776466 -0.00220619
v 0.05223489 0.04819533 -0.00220619
v 0.05174937 0.04870584 -0.00220619
v 0.05123566 0.04924781 -0.00220619
v 0.05002836 0.05066079 -0.00220619
v 0.04894027 0.05201570 -0.00220619
v 0.06202990 0.06025165 -0.00220619
v 0.05930966 0.04538631 -0.00220619
v 0.05930316 0.04545163 -0.00303245
v 0.06202990 0.05513443 -0.00707012
v 0.05550350 0.04525081 -0.00220619
v 0.05466684 0.04594521 -0.00220619
v 0.06202990 0.05639740 -0.00220619
f 1 2 3
f 1 3 4
f 1 4 5
f 1 5 6
f 1 6 7
f 1 7 2
f 2 8 9
f 2 9 10
f 2 10 3
f 2 7 11
f 2 11 12
f 2 12 13
f 2 13 14
f 2 14 15
f 2 15 8
f 3 10 16
f 3 16 17
f 3 17 4
f 4 17 34
f 4 34 57
f 4 57 56
f 4 56 55
f 4 55 54
f 4 54 53
f 4 53 52
f 4 52 51
f 4 51 63
f 4 63 62
f 4 62 50
f 4 50 49
f 4 49 42
f 4 42 59
f 4 59 64
f 4 64 58
f 4 58 37
f 4 37 18
f 4 18 5
f 5 18 19
f 5 19 6
f 6 11 7
f 6 19 11
f 8 15 9
f 9 20 10
f 9 15 21
f 9 21 22
f 9 22 23
f 9 23 20
f 10 20 24
f 10 24 25
f 10 25 26
f 10 26 27
f 10 27 16
f 11 19 28
f 11 28 29
f 11 29 12
f 12 29 30
f 12 30 13
f 13 30 31
f 13 31 14
f 14 31 32
f 14 32 33
f 14 33 15
f 15 33 21
f 16 27 17
f 17 27 34
f 18 35 36
f 18 36 19
f 18 37 38
f 18 38 39
f 18 39 40
f 18 40 35
f 19 36 28
f 20 23 41
f 20 41 42
f 20 42 24
f 21 33 22
f 22 43 44
f 22 44 23
f 22 33 43
f 23 44 41
f 24 45 46
f 24 46 47
f 24 47 48
f 24 48 25
f 24 42 49
f 24 49 50
f 24 50 45
f 25 48 51
f 25 51 52
f 25 52 53
f 25 53 26
f 26 53 54
f 26 54 55
f 26 55 27
f 27 55 56
f 27 56 57
f 27 57 34
f 28 36 29
f 29 36 35
f 29 35 30
f 30 40 32
f 30 32 31
f 30 35 40
f 32 40 39
f 32 39 38
f 32 38 37
f 32 37 58
f 32 58 64
f 32 64 61
f 32 61 33
f 33 59 60
f 33 60 43
f 33 61 59
f 41 44 59
f 41 59 42
f 43 60 44
f 44 60 59
f 45 50 46
f 46 50 47
f 47 50 48
f 48 50 62
f 48 62 63
f 48 63 51
f 59 61 64

