# https://github.com/mikedh/trimesh
v 0.07477270 0.05652711 0.06636530
v 0.07470987 0.05830954 0.07627973
v 0.07455787 0.05715952 0.08077864
v 0.06848792 0.05269761 0.09311555
v 0.07302569 0.05622355 0.02324691
v 0.07468150 0.05910930 0.04453487
v 0.07457814 0.06045391 0.06348451
v 0.07457814 0.05976117 0.07040591
v 0.07178940 0.06274422 0.07651356
v 0.07124220 0.06087228 0.08329466
v 0.07200221 0.05671392 0.08811158
v 0.06751916 0.05990906 0.09093624
v 0.06204709 0.06363933 0.09306879
v 0.06161135 0.05505797 0.09334003
v 0.06246459 0.05672365 -0.00220323
v 0.06994511 0.05632279 0.00099557
v 0.07229405 0.05791647 0.01618522
v 0.07250078 0.05988376 0.02432253
v 0.07272777 0.06084114 0.03216054
v 0.07390527 0.06109411 0.05042740
v 0.07159484 0.06409855 0.06087496
v 0.07092198 0.06465702 0.06875974
v 0.06505267 0.06758169 0.08278023
v 0.06741986 0.06779574 0.07385724
v 0.06332593 0.06584207 0.08885983
v 0.05951372 0.06773542 0.09107654
v 0.05407002 0.06740461 0.09295654
v 0.05666824 0.05975339 0.09334938
v 0.05900907 0.06048894 -0.00220323
v 0.05682024 0.06691620 -0.00189458
v 0.06145529 0.06603276 -0.00070672
v 0.06592821 0.06188803 -0.00002393
v 0.07059974 0.05872985 0.00704711
v 0.06982554 0.06077304 0.01212592
v 0.06995930 0.06192889 0.01869189
v 0.06954991 0.06449746 0.03231019
v 0.07182589 0.06258855 0.03811855
v 0.07194749 0.06305750 0.04427298
v 0.06895001 0.06667880 0.05218581
v 0.06815149 0.06764396 0.06361546
v 0.06648757 0.06915397 0.06777765
v 0.06161743 0.07177507 0.07825327
v 0.06027373 0.07104536 0.08404292
v 0.06233285 0.07222457 0.07166859
v 0.05673917 0.07072624 0.08731655
v 0.06159108 0.07257484 0.04818263
v 0.06143502 0.07034874 0.02148850
v 0.06069325 0.06847874 0.00747736
v 0.06406365 0.06519020 0.00510164
v 0.06748673 0.06159225 0.00458721
v 0.06583498 0.06488859 0.01163020
v 0.06767319 0.06526803 0.02396711
v 0.06489460 0.06906445 0.03256273
v 0.06619168 0.06854296 0.03947477
v 0.06435752 0.07101034 0.05250382
v 0.06621195 0.06950228 0.05856471
v 0.06535870 0.06974746 0.04507735
v 0.06339281 0.07186847 0.06361546
v 0.06227813 0.07252618 0.05780710
v 0.06228624 0.07152989 0.03729546
v 0.06395826 0.06925904 0.02734363
v 0.06295100 0.06802535 0.01388433
v 0.06470611 0.06728008 0.01863577
f 1 2 3
f 1 3 4
f 1 4 5
f 1 5 6
f 1 6 2
f 2 6 7
f 2 7 8
f 2 8 9
f 2 9 3
f 3 9 10
f 3 10 11
f 3 11 4
f 4 12 13
f 4 13 14
f 4 14 15
f 4 15 16
f 4 16 5
f 4 11 12
f 5 16 17
f 5 17 6
f 6 17 18
f 6 18 19
f 6 19 20
f 6 20 7
f 7 21 22
f 7 22 8
f 7 20 21
f 8 22 9
f 9 23 10
f 9 22 24
f 9 24 23
f 10 23 25
f 10 25 12
f 10 12 11
f 12 25 13
f 13 25 26
f 13 26 27
f 13 27 28
f 13 28 14
f 14 28 15
f 15 29 30
f 15 30 31
f 15 31 32
f 15 32 16
f 15 28 29
f 16 32 33
f 16 33 17
f 17 33 18
f 18 33 34
f 18 34 35
f 18 35 19
f 19 35 36
f 19 36 37
f 19 37 38
f 19 38 20
f 20 38 21
f 21 39 40
f 21 40 22
f 21 38 39
f 22 40 41
f 22 41 24
f 23 24 42
f 23 42 43
f 23 43 25
f 24 41 44
f 24 44 42
f 25 43 26
f 26 43 45
f 26 45 27
f 27 45 30
f 27 30 29
f 27 29 28
f 30 46 47
f 30 47 48
f 30 48 31
f 30 45 46
f 31 48 49
f 31 49 32
f 32 49 50
f 32 50 33
f 33 50 34
f 34 50 51
f 34 51 35
f 35 51 52
f 35 52 36
f 36 52 53
f 36 53 54
f 36 54 38
f 36 38 37
f 38 54 39
f 39 55 56
f 39 56 40
f 39 54 57
f 39 57 55
f 40 56 41
f 41 56 58
f 41 58 44
f 42 45 43
f 42 44 45
f 44 58 59
f 44 59 45
f 45 59 46
f 46 60 47
f 46 59 55
f 46 55 60
f 47 60 61
f 47 61 62
f 47 62 48
f 48 62 49
f 49 62 51
f 49 51 50
f 51 62 63
f 51 63 52
f 52 61 53
f 52 63 61
f 53 61 60
f 53 60 57
f 53 57 54
f 55 59 58
f 55 58 56
f 55 57 60
f 61 63 62

