# https://github.com/mikedh/trimesh
v -0.00184113 -0.06346397 0.07457168
v -0.00184113 -0.03395858 0.07457168
v 0.00161780 -0.03395858 0.07456767
v 0.00560753 -0.06346397 0.07457168
v -0.00184113 -0.06346397 0.11389346
v 0.00161780 -0.02432777 0.07456767
v -0.00184113 -0.03395858 0.10266211
v 0.00560753 -0.03395858 0.07456767
v 0.00560753 -0.06346397 0.11339643
v -0.00100993 -0.06346397 0.11386540
v -0.00184113 -0.06236835 0.11432636
v 0.00161780 -0.02432777 0.09870187
v 0.00560753 -0.02432777 0.07456767
v -0.00184113 -0.05342325 0.11414599
v 0.00560753 -0.06334139 0.11345655
v 0.00504903 -0.06340268 0.11348862
v 0.00509934 -0.06346397 0.11345254
v 0.00101045 -0.06346397 0.11376519
v 0.00101045 -0.06160600 0.11451876
v -0.00100993 -0.06160600 0.11459893
v -0.00184113 -0.06160600 0.11462298
v 0.00560753 -0.02432777 0.09777193
v -0.00184113 -0.05492496 0.11496368
v 0.00560753 -0.05462232 0.11510398
v 0.00560753 -0.05410898 0.11482740
v 0.00560753 -0.06290849 0.11364494
v 0.00328894 -0.06346397 0.11360085
v 0.00472019 -0.06346397 0.11348862
v 0.00497611 -0.06346397 0.11346456
v 0.00560753 -0.06160600 0.11419409
v 0.00504903 -0.06160600 0.11424219
v 0.00117013 -0.06346397 0.11375718
v 0.00302937 -0.06160600 0.11439450
v 0.00302937 -0.05995106 0.11494765
v 0.00101045 -0.06012345 0.11501179
v -0.00100993 -0.06027285 0.11505187
v -0.00184113 -0.06082067 0.11489153
v -0.00184113 -0.05587118 0.11533245
v 0.00560753 -0.05503988 0.11519216
v 0.00560753 -0.06099306 0.11441054
v 0.00560753 -0.05967907 0.11486749
v 0.00560753 -0.05929215 0.11499175
v 0.00560753 -0.05871752 0.11517212
v 0.00504903 -0.05877115 0.11518414
v 0.00302937 -0.05893971 0.11522423
v -0.00184113 -0.05931131 0.11531241
v -0.00184113 -0.06032265 0.11505989
v -0.00184113 -0.05756443 0.11551684
v 0.00560753 -0.05553789 0.11526431
v 0.00560753 -0.05530038 0.11523225
v 0.00560753 -0.05758741 0.11531241
v 0.00504903 -0.05756443 0.11533245
v 0.00560753 -0.05700512 0.11532844
f 1 2 6
f 1 6 3
f 1 3 8
f 1 8 4
f 1 4 9
f 1 9 17
f 1 17 29
f 1 29 28
f 1 28 27
f 1 27 32
f 1 32 18
f 1 18 10
f 1 10 5
f 1 5 11
f 1 11 21
f 1 21 37
f 1 37 47
f 1 47 46
f 1 46 48
f 1 48 38
f 1 38 23
f 1 23 14
f 1 14 7
f 1 7 2
f 2 7 12
f 2 12 6
f 3 6 13
f 3 13 8
f 4 8 13
f 4 13 22
f 4 22 25
f 4 25 24
f 4 24 39
f 4 39 50
f 4 50 49
f 4 49 53
f 4 53 51
f 4 51 43
f 4 43 42
f 4 42 41
f 4 41 40
f 4 40 30
f 4 30 26
f 4 26 15
f 4 15 9
f 5 10 11
f 6 12 22
f 6 22 13
f 7 14 12
f 9 15 16
f 9 16 17
f 10 18 19
f 10 19 20
f 10 20 11
f 11 20 21
f 12 14 23
f 12 23 24
f 12 24 25
f 12 25 22
f 15 26 16
f 16 27 28
f 16 28 29
f 16 29 17
f 16 26 30
f 16 30 31
f 16 31 27
f 18 32 19
f 19 33 34
f 19 34 35
f 19 35 36
f 19 36 20
f 19 32 33
f 20 37 21
f 20 36 37
f 23 38 24
f 24 38 39
f 27 31 33
f 27 33 32
f 30 40 31
f 31 40 41
f 31 41 33
f 33 41 34
f 34 41 42
f 34 42 43
f 34 43 35
f 35 43 44
f 35 44 45
f 35 45 36
f 36 45 46
f 36 46 47
f 36 47 37
f 38 48 49
f 38 49 50
f 38 50 39
f 43 51 44
f 44 51 52
f 44 52 45
f 45 52 46
f 46 52 48
f 48 52 53
f 48 53 49
f 51 53 52

