# https://github.com/mikedh/trimesh
v 0.02916472 0.02565240 0.08790590
v 0.02358300 0.04946550 0.08789324
v -0.00203887 0.05765056 0.08790590
v -0.04109286 0.04925392 0.08790590
v -0.06280753 0.02840286 0.08789324
v -0.06222236 0.02565240 0.04139929
v 0.02916472 0.02565240 -0.04141134
v 0.02916472 0.04003310 -0.02015804
v 0.02115226 0.04955076 0.06027282
v 0.01341888 0.05305593 0.06336145
v 0.00982678 0.05514957 0.08789324
v 0.00258855 0.05596744 0.06494374
v -0.00247100 0.05628954 0.05715888
v -0.01187889 0.05791266 0.08790590
v -0.05095089 0.04220252 0.08728565
v -0.05745989 0.03571636 0.08738691
v -0.03231517 0.05355802 0.08790590
v -0.03855408 0.04945286 0.06280448
v -0.04469397 0.04462456 0.04241196
v -0.06018773 0.03065754 0.06331082
v -0.06215033 0.02696289 0.05336139
v -0.06076391 0.02577239 0.01976625
v -0.05862125 0.02588607 -0.01110736
v -0.05538925 0.02829233 -0.03277837
v -0.04774591 0.03611109 -0.03837334
v -0.04007555 0.04173516 -0.03976576
v -0.00689136 0.05071283 -0.04134804
v 0.00583855 0.04884656 -0.04141134
v 0.02916472 0.03760473 -0.04141134
v 0.01665988 0.04468140 -0.04139867
v 0.01801929 0.04760870 0.00799402
v 0.01960378 0.04821816 0.02725997
v 0.02082816 0.04867288 0.04276639
v 0.01413010 0.05049179 0.02624730
v 0.01013287 0.05252542 0.03615875
v 0.00856639 0.05394328 0.05346266
v -0.01554302 0.05652006 0.06296904
v -0.02322237 0.05630533 0.08790590
v -0.05556931 0.03740263 0.07851344
v -0.05157208 0.04048782 0.06298170
v -0.05857623 0.03232486 0.05448798
v -0.02648137 0.05468537 0.06663995
v -0.02687750 0.05390854 0.05507026
v -0.03747375 0.04853078 0.03634863
v -0.03899522 0.04865078 0.05298164
v -0.03830201 0.04641504 0.01113329
v -0.03886018 0.04392353 -0.02057577
v -0.04058871 0.04254356 -0.02523402
v -0.04435187 0.04112254 -0.00889215
v -0.04634147 0.04232883 0.02725997
v -0.05894534 0.03080911 0.04342462
v -0.05872028 0.02898705 0.02122195
v -0.05840518 0.02804918 0.00708263
v -0.05677568 0.03160488 0.02122195
v -0.05454299 0.03435218 0.02210804
v -0.05338164 0.03294380 -0.00762632
v -0.04843912 0.03633213 -0.02872772
v -0.03650145 0.04451088 -0.03128469
v -0.02891212 0.04729923 -0.03939866
v -0.01854994 0.05019495 -0.03834803
v 0.01471528 0.04872341 0.00304463
v -0.05502014 0.03612372 0.05076643
v -0.05146405 0.03883628 0.03862712
v -0.03642043 0.04648767 -0.00247439
f 1 2 3
f 1 3 14
f 1 14 38
f 1 38 17
f 1 17 4
f 1 4 5
f 1 5 6
f 1 6 7
f 1 7 29
f 1 29 8
f 1 8 2
f 2 9 10
f 2 10 11
f 2 11 3
f 2 8 9
f 3 11 12
f 3 12 13
f 3 13 14
f 4 15 16
f 4 16 5
f 4 17 18
f 4 18 19
f 4 19 15
f 5 16 20
f 5 20 21
f 5 21 6
f 6 21 22
f 6 22 23
f 6 23 7
f 7 23 24
f 7 24 25
f 7 25 26
f 7 26 27
f 7 27 28
f 7 28 29
f 8 29 30
f 8 30 31
f 8 31 32
f 8 32 33
f 8 33 9
f 9 33 10
f 10 33 34
f 10 34 35
f 10 35 36
f 10 36 11
f 11 36 12
f 12 36 28
f 12 28 13
f 13 37 14
f 13 28 27
f 13 27 37
f 14 37 38
f 15 39 16
f 15 19 40
f 15 40 39
f 16 39 41
f 16 41 20
f 17 38 42
f 17 42 43
f 17 43 44
f 17 44 18
f 18 45 19
f 18 44 45
f 19 45 44
f 19 44 46
f 19 46 47
f 19 47 48
f 19 48 49
f 19 49 50
f 19 50 40
f 20 41 21
f 21 41 51
f 21 51 52
f 21 52 22
f 22 52 53
f 22 53 23
f 23 53 24
f 24 53 52
f 24 52 54
f 24 54 55
f 24 55 56
f 24 56 57
f 24 57 25
f 25 57 49
f 25 49 26
f 26 49 48
f 26 48 58
f 26 58 59
f 26 59 27
f 27 59 60
f 27 60 37
f 28 30 29
f 28 36 35
f 28 35 34
f 28 34 61
f 28 61 30
f 30 61 31
f 31 61 32
f 32 61 34
f 32 34 33
f 37 42 38
f 37 60 42
f 39 40 62
f 39 62 41
f 40 50 63
f 40 63 62
f 41 62 55
f 41 55 54
f 41 54 51
f 42 60 43
f 43 60 59
f 43 59 44
f 44 59 64
f 44 64 46
f 46 64 58
f 46 58 47
f 47 58 48
f 49 57 50
f 50 57 63
f 51 54 52
f 55 57 56
f 55 62 63
f 55 63 57
f 58 64 59

