# https://github.com/mikedh/trimesh
v 0.05905465 -0.01123734 0.10913790
v 0.05901336 -0.01123734 0.11283492
v 0.05899500 -0.01313126 0.11210156
v 0.05896747 -0.01313126 0.11008182
v 0.05864169 -0.01219458 0.10593584
v 0.05836180 -0.01218773 0.10350223
v 0.02661432 -0.01123734 0.10297944
v 0.05874723 -0.01313126 0.11337222
v 0.04058615 -0.01123734 0.11402813
v 0.05755882 -0.01218544 0.11419271
v 0.05863252 -0.01512798 0.11283976
v 0.05807731 -0.01918995 0.11210156
v 0.05854075 -0.01622229 0.11032869
v 0.05860040 -0.01428954 0.10785030
v 0.05800849 -0.01515311 0.10350223
v 0.05666407 -0.02169385 0.10299638
v 0.01218365 -0.03457658 0.10297944
v 0.05728810 -0.01918995 0.11386112
v 0.05709998 -0.02121181 0.11374979
v 0.03111100 -0.03457658 0.11381030
v 0.03346946 -0.03457658 0.11499867
v 0.04238482 -0.01385775 0.11514389
v 0.04406878 -0.01234536 0.11515599
v 0.04457810 -0.01515311 0.11517051
v 0.05553990 -0.02121181 0.11438754
v 0.05553990 -0.02322452 0.11429678
v 0.05801767 -0.01918995 0.11008182
v 0.05691185 -0.02353979 0.11294504
v 0.05765977 -0.02121181 0.11210156
v 0.05818285 -0.01717039 0.10806571
v 0.05828838 -0.01515311 0.10604597
v 0.05797178 -0.01717039 0.10604597
v 0.05768730 -0.01717039 0.10350223
v 0.05729728 -0.01918995 0.10350223
v 0.05711833 -0.02121181 0.10604597
v 0.05671454 -0.02283614 0.10604597
v 0.05588862 -0.02462040 0.10336185
v 0.05353934 -0.03130735 0.10350223
v 0.05244270 -0.03403970 0.10433723
v 0.05258953 -0.03450347 0.10725612
v 0.05024942 -0.03457658 0.11446862
v 0.05526459 -0.02726822 0.11385870
v 0.03573616 -0.03457658 0.11534235
v 0.03938397 -0.02928550 0.11531452
v 0.04209575 -0.02322452 0.11525159
v 0.04302720 -0.02121181 0.11522860
v 0.05352098 -0.02928550 0.11441538
v 0.05755423 -0.02121181 0.11008182
v 0.05780201 -0.01918995 0.10806571
v 0.05492505 -0.02969901 0.11299708
v 0.05619605 -0.02656000 0.11210278
v 0.05704491 -0.02322452 0.11008182
v 0.05733857 -0.02121181 0.10806571
v 0.05648971 -0.02489226 0.10916574
v 0.05620064 -0.02465923 0.10604597
v 0.05470021 -0.02834425 0.10363293
v 0.05459010 -0.02944771 0.10604475
v 0.05384676 -0.03130735 0.10604475
v 0.05324109 -0.03395061 0.11102332
v 0.05211692 -0.03363762 0.11415882
v 0.03736047 -0.03332692 0.11533146
v 0.05363569 -0.03130050 0.11391679
v 0.05464515 -0.03021989 0.10910886
v 0.05582897 -0.02726822 0.11008303
f 1 2 3
f 1 3 4
f 1 4 5
f 1 5 6
f 1 6 7
f 1 7 9
f 1 9 2
f 2 8 3
f 2 9 10
f 2 10 8
f 3 8 11
f 3 11 12
f 3 12 13
f 3 13 4
f 4 14 5
f 4 13 14
f 5 14 15
f 5 15 6
f 6 15 16
f 6 16 7
f 7 17 9
f 7 16 17
f 8 10 18
f 8 18 19
f 8 19 11
f 9 17 20
f 9 20 21
f 9 21 22
f 9 22 23
f 9 23 10
f 10 23 24
f 10 24 25
f 10 25 26
f 10 26 18
f 11 19 12
f 12 27 13
f 12 19 28
f 12 28 29
f 12 29 27
f 13 27 30
f 13 30 14
f 14 30 31
f 14 31 15
f 15 31 32
f 15 32 33
f 15 33 16
f 16 33 34
f 16 34 35
f 16 35 36
f 16 36 37
f 16 37 38
f 16 38 17
f 17 38 39
f 17 39 40
f 17 40 41
f 17 41 43
f 17 43 21
f 17 21 20
f 18 26 19
f 19 26 42
f 19 42 28
f 21 43 22
f 22 43 23
f 23 43 44
f 23 44 45
f 23 45 46
f 23 46 24
f 24 46 25
f 25 46 47
f 25 47 26
f 26 47 42
f 27 29 48
f 27 48 53
f 27 53 49
f 27 49 32
f 27 32 30
f 28 42 50
f 28 50 51
f 28 51 29
f 29 51 52
f 29 52 48
f 30 32 31
f 32 49 34
f 32 34 33
f 34 49 35
f 35 49 53
f 35 53 36
f 36 53 48
f 36 48 52
f 36 52 54
f 36 54 55
f 36 55 37
f 37 56 38
f 37 55 56
f 38 56 57
f 38 57 58
f 38 58 39
f 39 58 40
f 40 58 59
f 40 59 41
f 41 59 60
f 41 60 47
f 41 47 61
f 41 61 43
f 42 47 62
f 42 62 50
f 43 61 44
f 44 61 47
f 44 47 45
f 45 47 46
f 47 60 62
f 50 62 59
f 50 59 51
f 51 59 63
f 51 63 64
f 51 64 54
f 51 54 52
f 54 64 55
f 55 64 56
f 56 64 57
f 57 63 58
f 57 64 63
f 58 63 59
f 59 62 60

