# https://github.com/mikedh/trimesh
v 0.01514910 -0.05352592 0.11537127
v 0.01633458 -0.05358797 0.11531150
v 0.01633458 -0.05234129 0.11535384
v 0.01312885 -0.05352592 0.11536629
v 0.00909046 -0.05554542 0.11535632
v 0.01110861 -0.05554542 0.11535632
v 0.01311310 -0.05562157 0.11526916
v 0.01633458 -0.05420566 0.11524674
v 0.01633458 -0.05152052 0.11530402
v 0.00707021 -0.05554542 0.11532394
v 0.00560858 -0.05700645 0.11533391
v 0.00560858 -0.05759313 0.11531647
v 0.00909046 -0.05716158 0.11525172
v 0.01110861 -0.05686543 0.11521188
v 0.01514910 -0.05499542 0.11522184
v 0.01243059 -0.05665953 0.11516705
v 0.01633458 -0.05473029 0.11517203
v 0.01633458 -0.05083513 0.11522433
v 0.00560858 -0.05553978 0.11526667
v 0.00560858 -0.05846185 0.11521188
v 0.00703976 -0.05766082 0.11526168
v 0.00634570 -0.05865082 0.11515459
v 0.01514910 -0.05756492 0.11457680
v 0.01377672 -0.05634645 0.11509233
v 0.01633458 -0.05488259 0.11514214
v 0.00909046 -0.05817134 0.11504252
v 0.00909046 -0.05958442 0.11462910
v 0.01633458 -0.06338932 0.11262177
v 0.01633458 -0.05043179 0.11515211
v 0.00601284 -0.05452156 0.11513965
v 0.00560858 -0.05504336 0.11519693
v 0.00560858 -0.05530567 0.11523678
v 0.00560858 -0.05871852 0.11517451
v 0.00560858 -0.05929391 0.11499769
v 0.00703976 -0.05942929 0.11485325
v 0.01633458 -0.05756492 0.11439748
v 0.01633458 -0.05633235 0.11477106
v 0.01633458 -0.05567234 0.11495535
v 0.00560858 -0.06099469 0.11441741
v 0.00560858 -0.06160392 0.11419575
v 0.00560858 -0.06290701 0.11365034
v 0.00560858 -0.06334137 0.11346106
v 0.00560858 -0.06338932 0.11343865
v 0.01633458 -0.06338932 0.08992844
v 0.01633458 -0.05022590 0.11507241
v 0.01612142 -0.05047974 0.11513965
v 0.00560858 -0.05462310 0.11510976
v 0.00560858 -0.05968314 0.11487068
v 0.00560858 -0.06338932 0.08992844
v 0.01633458 -0.03458040 0.08992844
v 0.01633458 -0.04943897 0.11468140
v 0.00560858 -0.05410977 0.11483333
v 0.00560858 -0.03458040 0.08992844
v 0.01633458 -0.03458040 0.10460737
v 0.01633458 -0.04835870 0.11409862
v 0.00560858 -0.05365566 0.11456684
v 0.01633458 -0.04759152 0.11365034
v 0.00560858 -0.03458040 0.10091648
v 0.01626843 -0.03458040 0.10490375
v 0.01633458 -0.03459168 0.10494359
v 0.00560858 -0.05331438 0.11435764
v 0.01633458 -0.04665228 0.11303768
v 0.00560858 -0.05198873 0.11350838
f 1 2 3
f 1 3 4
f 1 4 5
f 1 5 6
f 1 6 7
f 1 7 2
f 2 8 17
f 2 17 25
f 2 25 38
f 2 38 37
f 2 37 36
f 2 36 28
f 2 28 44
f 2 44 50
f 2 50 54
f 2 54 60
f 2 60 62
f 2 62 57
f 2 57 55
f 2 55 51
f 2 51 45
f 2 45 29
f 2 29 18
f 2 18 9
f 2 9 3
f 2 7 8
f 3 9 4
f 4 9 10
f 4 10 5
f 5 10 11
f 5 11 6
f 6 11 12
f 6 12 13
f 6 13 14
f 6 14 7
f 7 15 8
f 7 14 16
f 7 16 15
f 8 15 17
f 9 18 19
f 9 19 10
f 10 19 11
f 11 19 32
f 11 32 31
f 11 31 47
f 11 47 52
f 11 52 56
f 11 56 61
f 11 61 63
f 11 63 58
f 11 58 53
f 11 53 49
f 11 49 43
f 11 43 42
f 11 42 41
f 11 41 40
f 11 40 39
f 11 39 48
f 11 48 34
f 11 34 33
f 11 33 20
f 11 20 12
f 12 20 21
f 12 21 13
f 13 21 20
f 13 20 14
f 14 20 22
f 14 22 16
f 15 16 17
f 16 23 24
f 16 24 25
f 16 25 17
f 16 22 26
f 16 26 27
f 16 27 28
f 16 28 23
f 18 29 30
f 18 30 31
f 18 31 32
f 18 32 19
f 20 33 22
f 22 33 34
f 22 34 35
f 22 35 27
f 22 27 26
f 23 36 37
f 23 37 24
f 23 28 36
f 24 37 38
f 24 38 25
f 27 35 39
f 27 39 28
f 28 39 40
f 28 40 41
f 28 41 42
f 28 42 43
f 28 43 49
f 28 49 44
f 29 45 46
f 29 46 30
f 30 46 45
f 30 45 47
f 30 47 31
f 34 48 35
f 35 48 39
f 44 49 53
f 44 53 50
f 45 51 47
f 47 51 52
f 50 53 58
f 50 58 59
f 50 59 54
f 51 55 52
f 52 55 57
f 52 57 56
f 54 59 60
f 56 57 61
f 57 62 63
f 57 63 61
f 58 60 59
f 58 63 60
f 60 63 62

