# https://github.com/mikedh/trimesh
v -0.03736719 -0.06346784 0.07456911
v -0.03532363 -0.06444108 0.07456911
v -0.04152351 -0.06509379 0.10800001
v -0.04152351 -0.06346784 0.10078973
v 0.00560292 -0.06346784 0.07456911
v -0.03290181 -0.06551407 0.07456911
v -0.04134821 -0.06419898 0.11100794
v -0.03042462 -0.06651250 0.07456911
v -0.03244512 -0.06872628 0.11121167
v -0.03156404 -0.06874855 0.11310112
v -0.03938308 -0.06354724 0.11191872
v -0.01717147 -0.06346784 0.11374825
v 0.00523849 -0.06346784 0.11343667
v 0.00545991 -0.07190555 0.11239407
v 0.00438508 -0.06941191 0.07456911
v -0.03396741 -0.06631592 0.11328887
v -0.02684494 -0.06769783 0.07456911
v -0.02565017 -0.07096620 0.11256584
v -0.02322373 -0.07124897 0.11387608
v -0.02029447 -0.07069311 0.11513837
v -0.03732567 -0.06354724 0.11237809
v -0.01515559 -0.06346784 0.11386809
v 0.00532152 -0.07092940 0.11473891
v 0.00328258 -0.06346784 0.11360045
v 0.00302425 -0.07063791 0.11529816
v -0.00056467 -0.07286912 0.11299327
v 0.00302425 -0.07241784 0.11209848
v 0.00100376 -0.06997649 0.07456911
v -0.02420630 -0.06847061 0.07456911
v -0.02322373 -0.07163149 0.11209848
v -0.01770197 -0.07275678 0.11322895
v -0.01515559 -0.07264929 0.11422760
v -0.01717147 -0.07078027 0.11531813
v -0.01313509 -0.07275969 0.11445929
v -0.01313509 -0.07149786 0.11535009
v -0.01313509 -0.06346784 0.11395596
v -0.00303723 -0.07266866 0.11430749
v 0.00007654 -0.06346784 0.11381616
v -0.00303723 -0.07087129 0.11534609
v -0.00909411 -0.07281392 0.11455916
v -0.00287578 -0.06346784 0.11392801
v -0.00497469 -0.06346784 0.11399192
v -0.00707361 -0.06346784 0.11402387
v -0.01515559 -0.07086645 0.11537805
v -0.00505773 -0.07315577 0.11300525
v -0.00303723 -0.07313640 0.11209848
v -0.00181479 -0.07031156 0.07456911
v -0.02078345 -0.06928117 0.07456911
v -0.02120323 -0.07206825 0.11209848
v -0.01876296 -0.06965982 0.07456911
v -0.01675169 -0.06996390 0.07456911
v -0.01473581 -0.07021472 0.07456911
v -0.01515559 -0.07298727 0.11209848
v -0.01313509 -0.07316448 0.11209848
v -0.01111460 -0.07329716 0.11209848
v -0.01111460 -0.06346784 0.11401189
v -0.01111460 -0.07280810 0.11454318
v -0.00707361 -0.07320806 0.11305319
v -0.00901568 -0.06346784 0.11402787
v -0.00909411 -0.07336010 0.11209848
v -0.00463795 -0.07051492 0.07456911
v -0.01191265 -0.07046747 0.07456911
v -0.00867432 -0.07059433 0.07456911
v -0.00665383 -0.07058659 0.07456911
f 1 2 3
f 1 3 4
f 1 4 12
f 1 12 22
f 1 22 36
f 1 36 56
f 1 56 59
f 1 59 43
f 1 43 42
f 1 42 41
f 1 41 38
f 1 38 24
f 1 24 13
f 1 13 5
f 1 5 15
f 1 15 28
f 1 28 47
f 1 47 61
f 1 61 64
f 1 64 63
f 1 63 62
f 1 62 52
f 1 52 51
f 1 51 50
f 1 50 48
f 1 48 29
f 1 29 17
f 1 17 8
f 1 8 6
f 1 6 2
f 2 6 3
f 3 7 4
f 3 6 8
f 3 8 9
f 3 9 10
f 3 10 7
f 4 7 11
f 4 11 12
f 5 13 14
f 5 14 15
f 7 10 16
f 7 16 11
f 8 17 9
f 9 17 18
f 9 18 10
f 10 18 19
f 10 19 20
f 10 20 16
f 11 16 21
f 11 21 12
f 12 20 22
f 12 21 16
f 12 16 20
f 13 23 14
f 13 24 25
f 13 25 23
f 14 23 26
f 14 26 27
f 14 27 15
f 15 27 28
f 17 29 18
f 18 29 30
f 18 30 31
f 18 31 19
f 19 31 32
f 19 32 20
f 20 33 22
f 20 32 34
f 20 34 35
f 20 35 33
f 22 33 36
f 23 25 37
f 23 37 26
f 24 38 25
f 25 39 35
f 25 35 40
f 25 40 37
f 25 38 41
f 25 41 42
f 25 42 43
f 25 43 44
f 25 44 39
f 26 37 45
f 26 45 46
f 26 46 27
f 27 46 47
f 27 47 28
f 29 48 30
f 30 48 49
f 30 49 31
f 31 49 50
f 31 50 51
f 31 51 52
f 31 52 53
f 31 53 54
f 31 54 55
f 31 55 34
f 31 34 32
f 33 44 56
f 33 56 36
f 33 35 44
f 34 55 57
f 34 57 35
f 35 57 40
f 35 39 44
f 37 40 45
f 40 57 58
f 40 58 45
f 43 59 44
f 44 59 56
f 45 58 60
f 45 60 46
f 46 60 61
f 46 61 47
f 48 50 49
f 52 62 53
f 53 62 54
f 54 62 55
f 55 62 63
f 55 63 60
f 55 60 57
f 57 60 58
f 60 63 64
f 60 64 61

