# https://github.com/mikedh/trimesh
v 0.01633458 -0.05444192 0.08992844
v 0.01633458 -0.03457953 0.08992844
v 0.03243606 -0.05444192 0.08992844
v 0.01633458 -0.05444192 0.11521383
v 0.01633458 -0.03457953 0.10460818
v 0.03243606 -0.03457953 0.08992844
v 0.03243606 -0.05444192 0.11313062
v 0.01656156 -0.05444192 0.11519886
v 0.01633458 -0.05420662 0.11524875
v 0.01633458 -0.03458925 0.10494250
v 0.01634246 -0.03457953 0.10494000
v 0.03243606 -0.03457953 0.11454271
v 0.03243606 -0.04297447 0.11516143
v 0.02989040 -0.04606837 0.11506414
v 0.02854428 -0.04669843 0.11517640
v 0.02776876 -0.04804605 0.11505166
v 0.02642263 -0.04860416 0.11515644
v 0.02419695 -0.05045933 0.11512651
v 0.02285083 -0.05090465 0.11522380
v 0.02045176 -0.05267426 0.11516892
v 0.01918918 -0.05402966 0.11502172
v 0.01789034 -0.05437580 0.11510904
v 0.01784621 -0.05444192 0.11509656
v 0.01918918 -0.05301846 0.11521632
v 0.01759716 -0.05444192 0.11512151
v 0.01719837 -0.05363101 0.11526622
v 0.01633458 -0.05358629 0.11531112
v 0.01633458 -0.04664981 0.11303831
v 0.03046889 -0.03457953 0.11344996
v 0.03214445 -0.03457953 0.11439800
v 0.01633458 -0.04835719 0.11409862
v 0.01633458 -0.04943840 0.11467992
v 0.01633458 -0.05022792 0.11507411
v 0.01633458 -0.05043211 0.11515146
v 0.03243606 -0.03572102 0.11495187
v 0.03243606 -0.04277417 0.11519636
v 0.03055874 -0.04472074 0.11518139
v 0.02924571 -0.04541498 0.11525624
v 0.02716505 -0.04741016 0.11524127
v 0.02524832 -0.04904948 0.11522879
v 0.02524832 -0.04746655 0.11539595
v 0.02115950 -0.05155027 0.11527370
v 0.01918918 -0.05150554 0.11535852
v 0.01633458 -0.05234173 0.11535603
v 0.01633458 -0.04758907 0.11364955
v 0.03132953 -0.03457953 0.11393895
v 0.01633458 -0.05083464 0.11522630
v 0.03243606 -0.03635108 0.11513399
v 0.03243606 -0.03618579 0.11509158
v 0.03243606 -0.04217329 0.11525124
v 0.03126175 -0.04339646 0.11526372
v 0.02726751 -0.04544609 0.11541591
v 0.02120994 -0.04948702 0.11539844
v 0.03130746 -0.04140905 0.11539595
v 0.03243606 -0.03800790 0.11528618
v 0.01633458 -0.05152110 0.11530364
v 0.03243606 -0.04134488 0.11530863
v 0.02928827 -0.04342951 0.11540843
v 0.03243606 -0.04027922 0.11537100
f 1 2 6
f 1 6 3
f 1 3 7
f 1 7 23
f 1 23 25
f 1 25 8
f 1 8 4
f 1 4 9
f 1 9 27
f 1 27 44
f 1 44 56
f 1 56 47
f 1 47 34
f 1 34 33
f 1 33 32
f 1 32 31
f 1 31 45
f 1 45 28
f 1 28 10
f 1 10 5
f 1 5 2
f 2 5 11
f 2 11 29
f 2 29 46
f 2 46 30
f 2 30 12
f 2 12 6
f 3 6 12
f 3 12 35
f 3 35 49
f 3 49 48
f 3 48 55
f 3 55 59
f 3 59 57
f 3 57 50
f 3 50 36
f 3 36 13
f 3 13 7
f 4 8 9
f 5 10 11
f 7 13 14
f 7 14 15
f 7 15 16
f 7 16 17
f 7 17 18
f 7 18 19
f 7 19 20
f 7 20 21
f 7 21 22
f 7 22 23
f 8 24 9
f 8 25 24
f 9 26 27
f 9 24 26
f 10 28 29
f 10 29 11
f 12 30 31
f 12 31 32
f 12 32 33
f 12 33 34
f 12 34 35
f 13 36 14
f 14 36 37
f 14 37 15
f 15 37 38
f 15 38 39
f 15 39 17
f 15 17 16
f 17 39 40
f 17 40 19
f 17 19 18
f 19 40 41
f 19 41 42
f 19 42 20
f 20 42 24
f 20 24 22
f 20 22 21
f 22 24 25
f 22 25 23
f 24 42 26
f 26 42 27
f 27 43 44
f 27 42 43
f 28 45 29
f 29 45 46
f 30 46 45
f 30 45 31
f 34 47 48
f 34 48 49
f 34 49 35
f 36 50 51
f 36 51 37
f 37 51 38
f 38 51 52
f 38 52 41
f 38 41 39
f 39 41 40
f 41 52 53
f 41 53 43
f 41 43 42
f 43 53 44
f 44 53 54
f 44 54 55
f 44 55 56
f 47 56 48
f 48 56 55
f 50 57 51
f 51 57 54
f 51 54 58
f 51 58 52
f 52 58 53
f 53 58 54
f 54 57 59
f 54 59 55

