# https://github.com/mikedh/trimesh
v 0.03988002 0.02565240 0.09402353
v 0.04926022 0.02565240 0.09402353
v 0.03988002 0.02565240 0.10197657
v 0.03988002 0.03523400 0.08178690
v 0.03988105 0.02565540 0.08178690
v 0.05035959 0.02565240 0.10164922
v 0.04817321 0.02565540 0.08178690
v 0.05040596 0.02565240 0.10197657
v 0.04125758 0.03523400 0.11363334
v 0.04117619 0.03523400 0.11361463
v 0.03991917 0.03578190 0.11339016
v 0.03988002 0.03574588 0.11332157
v 0.03988002 0.03678465 0.08178690
v 0.04814437 0.02570794 0.08178690
v 0.04979394 0.03523400 0.08997064
v 0.04613624 0.04098776 0.10869191
v 0.04613624 0.03523400 0.11045960
v 0.04485243 0.03523400 0.11219923
v 0.04372112 0.03523400 0.11352110
v 0.04347693 0.03523400 0.11359281
v 0.04960848 0.03523400 0.09206256
v 0.04152341 0.03747816 0.11358345
v 0.03988002 0.03732655 0.11360840
v 0.03988002 0.03587497 0.11340263
v 0.03988002 0.04098776 0.08715543
v 0.04531093 0.04098776 0.08863006
v 0.04106800 0.03546517 0.08178690
v 0.04717070 0.02727360 0.08178690
v 0.04715112 0.04098776 0.09290432
v 0.04715112 0.04098776 0.09384583
v 0.03988002 0.04098776 0.11221482
v 0.03988002 0.04077910 0.11260141
v 0.04026228 0.04026273 0.11293499
v 0.04092581 0.03891623 0.11337145
v 0.04284328 0.03687772 0.11335587
v 0.04348106 0.03536610 0.11357722
v 0.03988002 0.03935155 0.11353981
v 0.04649583 0.02834089 0.08178690
v 0.04582714 0.02933463 0.08178690
v 0.04511002 0.03036739 0.08178690
v 0.04480813 0.03080121 0.08178690
v 0.04405598 0.03181146 0.08178690
v 0.04304625 0.03310542 0.08178690
v 0.04223022 0.03411417 0.08178690
v 0.03988002 0.03987994 0.11327169
f 1 2 6
f 1 6 8
f 1 8 3
f 1 3 12
f 1 12 24
f 1 24 23
f 1 23 37
f 1 37 45
f 1 45 32
f 1 32 31
f 1 31 25
f 1 25 13
f 1 13 4
f 1 4 5
f 1 5 7
f 1 7 2
f 2 7 6
f 3 8 9
f 3 9 10
f 3 10 11
f 3 11 12
f 4 13 27
f 4 27 44
f 4 44 43
f 4 43 42
f 4 42 41
f 4 41 40
f 4 40 39
f 4 39 38
f 4 38 28
f 4 28 14
f 4 14 7
f 4 7 5
f 6 7 8
f 7 14 15
f 7 15 8
f 8 16 17
f 8 17 18
f 8 18 19
f 8 19 20
f 8 20 9
f 8 15 21
f 8 21 16
f 9 20 22
f 9 22 23
f 9 23 10
f 10 23 24
f 10 24 11
f 11 24 12
f 13 25 26
f 13 26 27
f 14 28 26
f 14 26 15
f 15 26 29
f 15 29 30
f 15 30 16
f 15 16 21
f 16 31 32
f 16 32 33
f 16 33 34
f 16 34 35
f 16 35 19
f 16 19 18
f 16 18 17
f 16 30 29
f 16 29 26
f 16 26 25
f 16 25 31
f 19 35 36
f 19 36 20
f 20 36 22
f 22 37 23
f 22 36 34
f 22 34 37
f 26 28 38
f 26 38 39
f 26 39 40
f 26 40 41
f 26 41 42
f 26 42 43
f 26 43 44
f 26 44 27
f 32 45 33
f 33 45 34
f 34 45 37
f 34 36 35

