# https://github.com/mikedh/trimesh
v -0.02741450 -0.03395510 0.07456512
v -0.02741450 -0.03395510 0.10294717
v -0.02741450 -0.02432777 0.07456512
v 0.00161780 -0.03395510 0.07456512
v -0.02741450 -0.02432777 0.10294717
v -0.00194019 -0.03395510 0.10294717
v 0.00161780 -0.02432777 0.07456512
v 0.00161780 -0.03395510 0.10016342
v 0.00031055 -0.02432777 0.10294717
v -0.00168442 -0.03319830 0.10294717
v 0.00161780 -0.02432777 0.09870208
f 1 2 5
f 1 5 3
f 1 3 7
f 1 7 4
f 1 4 8
f 1 8 6
f 1 6 2
f 2 6 10
f 2 10 9
f 2 9 5
f 3 5 9
f 3 9 11
f 3 11 7
f 4 7 11
f 4 11 8
f 6 8 10
f 8 11 9
f 8 9 10

