# https://github.com/mikedh/trimesh
v -0.02322724 -0.01530494 -0.11860379
v -0.00503310 -0.01530494 -0.11835623
v -0.02332034 -0.01530494 -0.11477621
v -0.02332034 -0.01529693 -0.11860379
v -0.02332034 0.02565240 -0.11997486
v -0.00503310 0.02564839 -0.11970826
v -0.00503310 -0.01530494 0.07456512
v -0.02332034 -0.01530494 0.07456512
v -0.00505101 0.02565240 -0.11970826
v -0.02332034 0.02565240 0.07456512
v -0.00503310 0.02565240 -0.11968922
v -0.00503310 0.02565240 0.07456512
f 1 2 7
f 1 7 8
f 1 8 3
f 1 3 4
f 1 4 5
f 1 5 2
f 2 5 6
f 2 6 11
f 2 11 12
f 2 12 7
f 3 8 10
f 3 10 5
f 3 5 4
f 5 9 6
f 5 10 12
f 5 12 11
f 5 11 9
f 6 9 11
f 7 12 10
f 7 10 8

