# https://github.com/mikedh/trimesh
v 0.02917493 0.02565240 0.08609167
v 0.02917388 0.02565859 0.08182544
v 0.03987793 0.02565240 0.08609167
v 0.02917388 0.02565240 0.09337028
v 0.02917388 0.04496375 0.08182544
v 0.03987793 0.02565859 0.08182544
v 0.03988002 0.03408446 0.09955490
v 0.03987793 0.02565240 0.09955177
v 0.02917388 0.02565240 0.09955177
v 0.02917388 0.04589927 0.08239594
v 0.02917703 0.04587139 0.08182544
v 0.03987793 0.03678880 0.08182544
v 0.03988002 0.04291614 0.09955490
v 0.03988002 0.03408446 0.11231911
v 0.02917388 0.03408756 0.11382059
v 0.02917388 0.04786634 0.09955177
v 0.02917493 0.05096098 0.10652318
v 0.03987793 0.05268643 0.09051777
v 0.03079091 0.04478098 0.08182544
v 0.03834369 0.05657100 0.10498094
v 0.03937909 0.05701708 0.10419415
v 0.03988002 0.05729897 0.10418475
v 0.03988002 0.05715957 0.10373963
v 0.03988002 0.05695513 0.10313152
v 0.03949751 0.03721938 0.08182544
v 0.03988002 0.05553946 0.10275849
v 0.03988002 0.03588116 0.11340369
v 0.03988002 0.03733400 0.11361058
v 0.03332807 0.04342417 0.11380492
v 0.03131071 0.04544700 0.11384881
v 0.02936461 0.04673875 0.11363879
v 0.02917388 0.04673875 0.11361058
v 0.02917493 0.05089903 0.10822528
v 0.02917493 0.05096718 0.10663289
v 0.03936651 0.03736188 0.08182544
v 0.03930259 0.03743003 0.08182544
v 0.03739108 0.03935373 0.08182544
v 0.03729990 0.03943737 0.08182544
v 0.03567868 0.04090570 0.08182544
v 0.03549633 0.04106369 0.08182544
v 0.03411090 0.04222534 0.08182544
v 0.03311533 0.04301217 0.08182544
v 0.03178963 0.04403133 0.08182544
v 0.03834369 0.05657100 0.10506558
v 0.03988002 0.05716887 0.10501856
v 0.03950799 0.03951481 0.11360117
v 0.03988002 0.03935992 0.11354161
v 0.03536953 0.04347683 0.11356983
v 0.03323584 0.04541912 0.11348832
v 0.03131071 0.04673875 0.11349773
v 0.02917493 0.04909304 0.11256361
v 0.02917493 0.04931298 0.11219999
v 0.03199504 0.05268643 0.10729117
v 0.03938747 0.05684361 0.10530381
v 0.03988002 0.05693963 0.10534456
v 0.03891484 0.04088711 0.11336294
v 0.03988002 0.05422911 0.10696203
v 0.03682726 0.04283560 0.11334100
v 0.03471035 0.04473452 0.11330025
v 0.03250226 0.04659007 0.11321561
v 0.03207469 0.04673875 0.11329084
v 0.03988002 0.05589879 0.10614703
f 1 2 6
f 1 6 3
f 1 3 8
f 1 8 9
f 1 9 4
f 1 4 2
f 2 5 11
f 2 11 19
f 2 19 43
f 2 43 42
f 2 42 41
f 2 41 40
f 2 40 39
f 2 39 38
f 2 38 37
f 2 37 36
f 2 36 35
f 2 35 25
f 2 25 12
f 2 12 6
f 2 4 9
f 2 9 15
f 2 15 32
f 2 32 16
f 2 16 10
f 2 10 5
f 3 6 7
f 3 7 14
f 3 14 8
f 5 10 11
f 6 12 13
f 6 13 7
f 7 13 26
f 7 26 24
f 7 24 23
f 7 23 22
f 7 22 45
f 7 45 55
f 7 55 62
f 7 62 57
f 7 57 47
f 7 47 28
f 7 28 27
f 7 27 14
f 8 14 15
f 8 15 9
f 10 16 17
f 10 17 11
f 11 18 19
f 11 17 20
f 11 20 21
f 11 21 22
f 11 22 23
f 11 23 24
f 11 24 18
f 12 25 18
f 12 18 24
f 12 24 26
f 12 26 13
f 14 27 15
f 15 27 28
f 15 28 29
f 15 29 30
f 15 30 31
f 15 31 32
f 16 32 33
f 16 33 34
f 16 34 17
f 17 34 20
f 18 25 35
f 18 35 36
f 18 36 37
f 18 37 38
f 18 38 39
f 18 39 40
f 18 40 41
f 18 41 42
f 18 42 43
f 18 43 19
f 20 44 22
f 20 22 21
f 20 34 44
f 22 44 45
f 28 46 29
f 28 47 46
f 29 46 30
f 30 46 48
f 30 48 49
f 30 49 50
f 30 50 31
f 31 50 51
f 31 51 32
f 32 51 52
f 32 52 33
f 33 52 53
f 33 53 34
f 34 53 44
f 44 54 45
f 44 53 52
f 44 52 54
f 45 54 55
f 46 47 56
f 46 56 48
f 47 57 56
f 48 56 58
f 48 58 59
f 48 59 49
f 49 59 60
f 49 60 61
f 49 61 50
f 50 61 62
f 50 62 51
f 51 62 55
f 51 55 54
f 51 54 52
f 56 57 58
f 57 62 61
f 57 61 60
f 57 60 59
f 57 59 58

