# https://github.com/mikedh/trimesh
v -0.03146034 0.02565240 0.08790591
v -0.03146034 0.05153836 0.08790591
v -0.01510930 0.02565240 0.08790591
v -0.03146034 0.02565240 0.10658992
v -0.01510930 0.05153836 0.08790591
v -0.03146034 0.05153836 0.11195496
v -0.01510930 0.02565240 0.10224480
v -0.01510930 0.03957092 0.11234785
v -0.01510930 0.03982430 0.11252738
v -0.01510930 0.04109630 0.11340681
v -0.01510930 0.04124073 0.11350568
v -0.03146034 0.03322105 0.11155428
v -0.01510930 0.05153836 0.11238428
v -0.03146034 0.04327289 0.11405207
v -0.03130827 0.04342746 0.11402866
v -0.02928820 0.04342746 0.11423421
v -0.02524806 0.04544695 0.11405988
v -0.02322960 0.04544695 0.11418737
v -0.01918945 0.04746644 0.11386734
v -0.01716938 0.04746644 0.11398182
v -0.01514931 0.04924775 0.11342242
v -0.01510930 0.04927055 0.11341461
v -0.01510930 0.05026129 0.11301393
v -0.01510930 0.04130408 0.11354470
v -0.03146034 0.03587907 0.11326110
v -0.03146034 0.03490354 0.11264967
v -0.03146034 0.04140544 0.11443715
v -0.03130827 0.04140544 0.11444756
v -0.02726813 0.04342746 0.11436430
v -0.01918945 0.04544695 0.11435649
v -0.01716938 0.04544695 0.11442934
v -0.01510930 0.04746644 0.11405207
v -0.01510930 0.04925028 0.11342242
v -0.03146034 0.03721696 0.11388035
v -0.03146034 0.03597790 0.11331574
v -0.01510930 0.04342746 0.11438771
v -0.03146034 0.04125340 0.11445536
v -0.02524806 0.04342746 0.11444495
v -0.01510930 0.04544695 0.11448138
v -0.03146034 0.03736899 0.11393759
v -0.03146034 0.03938594 0.11446057
v -0.03146034 0.03923391 0.11443975
v -0.02928820 0.04140544 0.11448398
f 1 2 5
f 1 5 3
f 1 3 7
f 1 7 4
f 1 4 12
f 1 12 26
f 1 26 25
f 1 25 35
f 1 35 34
f 1 34 40
f 1 40 42
f 1 42 41
f 1 41 37
f 1 37 27
f 1 27 14
f 1 14 6
f 1 6 2
f 2 6 13
f 2 13 5
f 3 5 13
f 3 13 23
f 3 23 22
f 3 22 33
f 3 33 32
f 3 32 39
f 3 39 36
f 3 36 24
f 3 24 11
f 3 11 10
f 3 10 9
f 3 9 8
f 3 8 7
f 4 7 8
f 4 8 9
f 4 9 10
f 4 10 11
f 4 11 12
f 6 14 15
f 6 15 16
f 6 16 17
f 6 17 18
f 6 18 19
f 6 19 20
f 6 20 21
f 6 21 22
f 6 22 23
f 6 23 13
f 11 24 25
f 11 25 26
f 11 26 12
f 14 27 16
f 14 16 15
f 16 27 28
f 16 28 29
f 16 29 17
f 17 29 18
f 18 29 30
f 18 30 20
f 18 20 19
f 20 30 31
f 20 31 32
f 20 32 21
f 21 32 33
f 21 33 22
f 24 34 35
f 24 35 25
f 24 36 34
f 27 37 28
f 28 37 38
f 28 38 29
f 29 38 30
f 30 38 31
f 31 38 39
f 31 39 32
f 34 36 40
f 36 39 41
f 36 41 42
f 36 42 40
f 37 41 43
f 37 43 38
f 38 43 39
f 39 43 41

