# https://github.com/mikedh/trimesh
v 0.02147215 0.02565240 0.10418745
v 0.02147215 0.02565240 0.07456514
v 0.01666966 0.02565240 0.10418745
v 0.02147215 0.01462447 0.10418745
v 0.01666966 0.02565240 0.07456514
v 0.02147215 0.00402626 0.07456514
v 0.01666966 0.01573665 0.10418745
v 0.01313533 0.00402626 0.09826589
v 0.01313533 0.00401542 0.09834129
v 0.02147215 0.00402626 0.10062060
v 0.02147133 -0.01123734 0.09993622
v 0.01666966 0.00402626 0.07456514
v 0.01313533 0.00402626 0.07456803
v 0.02147133 -0.01123734 0.07456803
v 0.01313533 -0.01123373 0.09737273
v 0.01313533 -0.01123734 0.09732923
v 0.01313533 -0.01123734 0.07456803
f 1 2 5
f 1 5 3
f 1 3 7
f 1 7 4
f 1 4 10
f 1 10 6
f 1 6 2
f 2 6 12
f 2 12 5
f 3 5 13
f 3 13 8
f 3 8 9
f 3 9 7
f 4 7 11
f 4 11 10
f 5 12 17
f 5 17 13
f 6 10 11
f 6 11 14
f 6 14 17
f 6 17 12
f 7 9 15
f 7 15 11
f 8 13 17
f 8 17 16
f 8 16 15
f 8 15 9
f 11 15 16
f 11 16 17
f 11 17 14

