# https://github.com/mikedh/trimesh
v -0.03146034 0.05154195 0.08790590
v -0.03146034 0.05290473 0.11311385
v -0.03138414 0.05624183 0.11319020
v -0.03045062 0.05428966 0.08790590
v 0.01498036 0.04827679 0.08790590
v 0.03003088 0.04674244 0.09955678
v 0.03236784 0.04677703 0.11274992
v -0.02877411 0.05633868 0.11379591
v 0.02944029 0.04756426 0.11341925
v -0.02120439 0.05897156 0.11348796
v -0.02354770 0.05894112 0.11266848
v -0.02928214 0.05755620 0.11209841
v -0.03036807 0.05720754 0.11012351
v -0.02625299 0.05562062 0.08790590
v 0.02539506 0.04856595 0.08790590
v 0.03341566 0.04674244 0.10353712
v 0.03341566 0.04909861 0.10936002
v 0.02586499 0.04980560 0.11361012
v -0.02221411 0.05756450 0.11390534
v -0.01817524 0.05920123 0.11361776
v -0.01235825 0.06037309 0.11274992
v -0.01500002 0.06057924 0.11103716
v -0.02018833 0.05980722 0.11108806
v -0.02570050 0.05864781 0.11106006
v -0.02321748 0.05926764 0.11007770
v -0.02446852 0.05863951 0.10746147
v -0.02212521 0.05665413 0.08790590
v 0.02235956 0.05023035 0.08790590
v 0.03341566 0.04909861 0.10518881
v 0.02916722 0.05093595 0.10739785
v 0.01379283 0.05671085 0.11225111
v 0.01835244 0.05482647 0.11239108
v 0.02184517 0.05184771 0.11365084
v 0.00402586 0.05756450 0.11381881
v -0.00000031 0.05921091 0.11359231
v -0.00789389 0.06042566 0.11293316
v -0.00503620 0.06054327 0.11263540
v -0.00807170 0.06087670 0.11008279
v -0.01193277 0.06075218 0.10975958
v -0.01716552 0.06032328 0.11007770
v -0.01817524 0.05735974 0.08790590
v 0.01851755 0.05210228 0.08790590
v 0.01418655 0.05382755 0.08790590
v 0.01374202 0.05690593 0.10974431
v 0.01110024 0.05768072 0.11209841
v 0.01513912 0.05523738 0.11358722
v 0.01811747 0.05356053 0.11367629
v 0.01059221 0.05632900 0.11369156
v 0.00302250 0.05897848 0.11346506
v -0.00282625 0.06059030 0.11125857
v 0.00548011 0.05898816 0.11257941
v -0.00454087 0.06066087 0.10951272
v -0.00807806 0.05805012 0.08790590
v -0.01211693 0.05794082 0.08790590
v -0.01512068 0.05771669 0.08790590
v 0.01126536 0.05486798 0.08790590
v 0.01110024 0.05782184 0.11008279
v 0.00875694 0.05847072 0.11154615
v 0.00150474 0.06000506 0.11083865
v -0.00404553 0.05787580 0.08790590
v -0.00000031 0.05742891 0.08790590
v 0.00807109 0.05580740 0.08790590
v 0.00613421 0.05914312 0.11000389
v 0.00400681 0.05674959 0.08790590
f 1 2 3
f 1 3 4
f 1 4 14
f 1 14 27
f 1 27 41
f 1 41 55
f 1 55 54
f 1 54 53
f 1 53 60
f 1 60 61
f 1 61 64
f 1 64 62
f 1 62 56
f 1 56 43
f 1 43 42
f 1 42 28
f 1 28 15
f 1 15 5
f 1 5 6
f 1 6 7
f 1 7 2
f 2 8 3
f 2 7 9
f 2 9 8
f 3 8 10
f 3 10 11
f 3 11 12
f 3 12 13
f 3 13 4
f 4 13 14
f 5 15 6
f 6 16 7
f 6 15 16
f 7 16 17
f 7 17 18
f 7 18 9
f 8 9 18
f 8 18 19
f 8 19 10
f 10 19 20
f 10 20 21
f 10 21 11
f 11 21 22
f 11 22 23
f 11 23 24
f 11 24 12
f 12 24 13
f 13 24 25
f 13 25 26
f 13 26 14
f 14 26 27
f 15 28 29
f 15 29 16
f 16 29 17
f 17 29 30
f 17 30 31
f 17 31 32
f 17 32 18
f 18 32 33
f 18 33 34
f 18 34 19
f 19 34 35
f 19 35 20
f 20 36 21
f 20 35 36
f 21 36 37
f 21 37 38
f 21 38 22
f 22 38 39
f 22 39 40
f 22 40 23
f 23 25 24
f 23 40 25
f 25 40 41
f 25 41 27
f 25 27 26
f 28 42 29
f 29 42 43
f 29 43 44
f 29 44 30
f 30 44 31
f 31 44 45
f 31 45 46
f 31 46 32
f 32 46 33
f 33 46 47
f 33 47 34
f 34 47 48
f 34 48 49
f 34 49 35
f 35 49 37
f 35 37 36
f 37 50 38
f 37 49 51
f 37 51 50
f 38 50 52
f 38 52 53
f 38 53 39
f 39 54 55
f 39 55 40
f 39 53 54
f 40 55 41
f 43 56 44
f 44 56 57
f 44 57 45
f 45 57 58
f 45 58 51
f 45 51 46
f 46 51 49
f 46 49 48
f 46 48 47
f 50 51 59
f 50 59 52
f 51 58 59
f 52 60 53
f 52 59 61
f 52 61 60
f 56 62 57
f 57 62 63
f 57 63 58
f 58 63 59
f 59 63 61
f 61 63 64
f 62 64 63

