# https://github.com/mikedh/trimesh
v -0.00184112 -0.04467608 0.10687330
v -0.00184112 -0.04467608 0.07456512
v -0.00184112 -0.03395615 0.10266234
v -0.00322622 -0.03395615 0.11354481
v -0.00391356 -0.03397924 0.11671999
v -0.00618040 -0.04457743 0.11654359
v -0.02286058 -0.04467608 0.11863324
v -0.00184112 -0.03395615 0.07456512
v -0.03730516 -0.04467608 0.07456512
v -0.00736068 -0.03395615 0.12027059
v -0.00535767 -0.03418597 0.11884130
v -0.00603460 -0.04253944 0.11718134
v -0.00832574 -0.04120771 0.11925290
v -0.00997814 -0.04403593 0.11908102
v -0.01294620 -0.04436335 0.11919862
v -0.01972936 -0.04445255 0.11887748
v -0.01919129 -0.04208818 0.11935693
v -0.02119430 -0.04240826 0.11916696
v -0.02322855 -0.04197275 0.11909007
v -0.02556829 -0.04064837 0.11913530
v -0.02726234 -0.04467608 0.11826687
v -0.03730516 -0.03395615 0.07456512
v -0.03694414 -0.04388586 0.11692352
v -0.03730516 -0.04156242 0.11668380
v -0.02928618 -0.04467608 0.11803620
v -0.02540166 -0.03465297 0.12008062
v -0.02322855 -0.03465297 0.12026606
v -0.02120818 -0.03465297 0.12041080
v -0.01919129 -0.03465297 0.12053744
v -0.01717092 -0.03465297 0.12064147
v -0.01422021 -0.03465297 0.12076360
v -0.01017948 -0.03465297 0.12076812
v -0.00909292 -0.03736890 0.12024797
v -0.00692329 -0.03660701 0.11953333
v -0.03224036 -0.03395615 0.11757937
v -0.00909292 -0.03938695 0.11986803
v -0.01212000 -0.04140605 0.11976852
v -0.01624752 -0.04379561 0.11918505
v -0.01717092 -0.04140605 0.11958760
v -0.01919129 -0.03938695 0.11982280
v -0.02120818 -0.03938695 0.11969616
v -0.02322855 -0.03938695 0.11954689
v -0.02726234 -0.03944362 0.11917601
v -0.02524545 -0.03736890 0.11969616
v -0.02928618 -0.04140605 0.11861062
v -0.03730516 -0.03395615 0.10841113
v -0.03400732 -0.04405167 0.11748439
v -0.03130655 -0.04140605 0.11833924
v -0.02910567 -0.03813813 0.11913982
v -0.02741161 -0.03465297 0.11982280
v -0.02970622 -0.03465297 0.11923481
v -0.03730516 -0.03877723 0.11512335
v -0.03130655 -0.04342621 0.11799096
v -0.02726234 -0.03736890 0.11950167
v -0.02322855 -0.03736890 0.11986803
v -0.02120818 -0.03736890 0.12001729
v -0.01919129 -0.03736890 0.12013942
v -0.01717092 -0.03736890 0.12025249
v -0.01515403 -0.03736890 0.12035200
v -0.01212000 -0.03736890 0.12042889
v -0.01212000 -0.03938695 0.12011680
v -0.03353520 -0.03395615 0.11585156
v -0.01515403 -0.03938695 0.12002634
v -0.01717092 -0.03938695 0.11993135
f 1 2 8
f 1 8 3
f 1 3 4
f 1 4 5
f 1 5 6
f 1 6 7
f 1 7 21
f 1 21 25
f 1 25 9
f 1 9 2
f 2 9 22
f 2 22 8
f 3 8 22
f 3 22 46
f 3 46 62
f 3 62 35
f 3 35 10
f 3 10 4
f 4 10 5
f 5 11 12
f 5 12 6
f 5 10 11
f 6 12 13
f 6 13 14
f 6 14 15
f 6 15 7
f 7 16 17
f 7 17 18
f 7 18 19
f 7 19 20
f 7 20 21
f 7 15 16
f 9 23 24
f 9 24 52
f 9 52 46
f 9 46 22
f 9 25 23
f 10 26 27
f 10 27 28
f 10 28 29
f 10 29 30
f 10 30 31
f 10 31 32
f 10 32 33
f 10 33 13
f 10 13 34
f 10 34 11
f 10 35 26
f 11 34 12
f 12 34 13
f 13 33 36
f 13 36 14
f 14 36 33
f 14 33 37
f 14 37 15
f 15 37 38
f 15 38 16
f 16 38 17
f 17 39 40
f 17 40 41
f 17 41 18
f 17 38 39
f 18 41 42
f 18 42 19
f 19 42 20
f 20 43 21
f 20 42 44
f 20 44 43
f 21 43 45
f 21 45 25
f 23 47 48
f 23 48 49
f 23 49 50
f 23 50 51
f 23 51 24
f 23 25 47
f 24 35 52
f 24 51 35
f 25 45 53
f 25 53 47
f 26 35 50
f 26 50 54
f 26 54 44
f 26 44 27
f 27 44 55
f 27 55 56
f 27 56 28
f 28 56 29
f 29 56 57
f 29 57 58
f 29 58 30
f 30 58 59
f 30 59 31
f 31 59 60
f 31 60 32
f 32 60 61
f 32 61 33
f 33 61 37
f 35 62 52
f 35 51 50
f 37 61 63
f 37 63 39
f 37 39 38
f 39 63 64
f 39 64 40
f 40 64 58
f 40 58 57
f 40 57 56
f 40 56 41
f 41 56 55
f 41 55 42
f 42 55 44
f 43 44 54
f 43 54 45
f 45 48 53
f 45 54 49
f 45 49 48
f 46 52 62
f 47 53 48
f 49 54 50
f 58 64 59
f 59 64 63
f 59 63 61
f 59 61 60

