# https://github.com/mikedh/trimesh
v -0.02917657 -0.06603911 0.04612864
v -0.02792084 -0.01530494 0.07456512
v -0.03217637 -0.06547794 0.06132679
v -0.03227486 -0.06418674 0.03310166
v -0.03218458 -0.06256281 -0.00254000
v -0.02837635 -0.06468335 0.01108261
v -0.02792084 -0.01530494 -0.11878371
v -0.06984419 -0.01623858 0.03483091
v -0.06972518 -0.02232708 0.06319053
v -0.06511673 -0.03544764 0.07291273
v -0.05571517 -0.04973525 0.07456512
v -0.03934142 -0.06205626 0.07245160
v -0.02822862 -0.06262737 -0.03209088
v -0.03949326 -0.06094881 0.03836625
v -0.03204916 -0.06048199 -0.04442617
v -0.02929147 -0.06316867 -0.01314604
v -0.02877031 -0.05994068 -0.08045211
v -0.03365781 -0.05293841 -0.11423003
v -0.04071206 -0.03858625 -0.12076274
v -0.04943652 -0.02121963 -0.12172343
v -0.06621653 -0.01653158 -0.03431969
v -0.06874030 -0.01653158 0.01411839
v -0.06816988 -0.01971488 0.01494459
v -0.06903986 -0.02174107 0.04126754
v -0.06626167 -0.03032754 0.04138283
v -0.06452991 -0.03490136 0.04808845
v -0.06234674 -0.03873523 0.04632078
v -0.06267093 -0.03893388 0.05973204
v -0.04285829 -0.05949373 0.05339147
v -0.05856724 -0.04442147 0.04658977
v -0.05501754 -0.04303591 -0.02928566
v -0.04661317 -0.04873705 -0.07591764
v -0.04641209 -0.05246663 -0.02455906
v -0.04646544 -0.05453751 0.01002585
v -0.04379394 -0.05812307 0.03734792
v -0.04286650 -0.05886799 0.03936538
v -0.03838527 -0.05857499 -0.01823771
v -0.03557834 -0.05744271 -0.06811683
v -0.03194246 -0.05777544 -0.09445899
v -0.04710562 -0.04623908 -0.09887818
v -0.05843182 -0.02297764 -0.11265450
v -0.06209642 -0.02250089 -0.08514028
v -0.06660227 -0.02150270 -0.00738189
v -0.06570767 -0.02753160 0.01194723
v -0.06452170 -0.02589774 -0.02200362
v -0.06459967 -0.02819210 -0.00542208
v -0.06477202 -0.03183725 0.02522399
v -0.06242882 -0.03395283 0.00099534
v -0.06260527 -0.03635148 0.02637682
v -0.05662619 -0.03574064 -0.08429488
v -0.05998301 -0.04087564 0.02825978
v -0.05654822 -0.04240521 -0.01201242
v -0.03647705 -0.05620614 -0.08152809
v -0.04044532 -0.05657860 -0.03078434
v -0.04473778 -0.05476596 -0.00911114
v -0.04311682 -0.05617634 -0.00553736
v -0.05856724 -0.03028781 -0.09834019
v -0.06265452 -0.02637449 -0.05351431
v -0.06264631 -0.02836591 -0.04002620
v -0.06059036 -0.03130587 -0.05453264
v -0.06039748 -0.03394787 -0.03533802
f 1 2 3
f 1 3 4
f 1 4 5
f 1 5 6
f 1 6 2
f 2 7 8
f 2 8 9
f 2 9 10
f 2 10 11
f 2 11 12
f 2 12 3
f 2 6 13
f 2 13 7
f 3 12 14
f 3 14 4
f 4 14 5
f 5 14 15
f 5 15 13
f 5 13 16
f 5 16 6
f 6 16 13
f 7 13 17
f 7 17 18
f 7 18 19
f 7 19 20
f 7 20 21
f 7 21 8
f 8 22 23
f 8 23 24
f 8 24 9
f 8 21 22
f 9 24 25
f 9 25 10
f 10 25 26
f 10 26 27
f 10 27 28
f 10 28 11
f 11 29 12
f 11 28 30
f 11 30 31
f 11 31 32
f 11 32 33
f 11 33 34
f 11 34 35
f 11 35 29
f 12 29 14
f 13 15 17
f 14 29 36
f 14 36 37
f 14 37 38
f 14 38 15
f 15 38 39
f 15 39 17
f 17 39 18
f 18 39 40
f 18 40 41
f 18 41 19
f 19 41 20
f 20 41 21
f 21 41 42
f 21 42 43
f 21 43 23
f 21 23 22
f 23 43 24
f 24 44 25
f 24 43 45
f 24 45 44
f 25 44 46
f 25 46 47
f 25 47 26
f 26 47 48
f 26 48 49
f 26 49 27
f 27 30 28
f 27 49 50
f 27 50 51
f 27 51 30
f 29 35 36
f 30 51 52
f 30 52 31
f 31 52 50
f 31 50 40
f 31 40 32
f 32 40 53
f 32 53 33
f 33 53 54
f 33 54 55
f 33 55 34
f 34 55 35
f 35 55 56
f 35 56 54
f 35 54 36
f 36 54 37
f 37 54 53
f 37 53 38
f 38 53 39
f 39 53 40
f 40 50 57
f 40 57 41
f 41 57 42
f 42 57 58
f 42 58 45
f 42 45 43
f 44 45 46
f 45 58 46
f 46 58 59
f 46 59 47
f 47 59 60
f 47 60 48
f 48 60 61
f 48 61 49
f 49 61 50
f 50 52 51
f 50 61 57
f 54 56 55
f 57 61 60
f 57 60 59
f 57 59 58

