# https://github.com/mikedh/trimesh
v -0.06220586 -0.04239243 0.10044887
v -0.06204389 -0.04127351 0.10873481
v -0.06220586 -0.03948942 0.11012293
v -0.06220586 -0.03385872 0.10044887
v -0.04784401 -0.05349914 0.10044887
v -0.04583368 -0.06019720 0.10441928
v -0.05264209 -0.05264835 0.10921585
v -0.05685306 -0.04801024 0.10935481
v -0.06020767 -0.04310143 0.10974880
v -0.06206009 -0.03752487 0.11116593
v -0.06036761 -0.04007466 0.11124228
v -0.06181715 -0.03468631 0.11221503
v -0.05058722 -0.03385872 0.11496989
v -0.04152351 -0.03385872 0.10044887
v -0.04152351 -0.05349914 0.10044887
v -0.04152351 -0.06019720 0.10330451
v -0.04239607 -0.06019720 0.11024509
v -0.04847768 -0.05655427 0.10907077
v -0.05096175 -0.05403024 0.10937008
v -0.05104678 -0.05170217 0.11109721
v -0.05403090 -0.05100606 0.10942811
v -0.05541972 -0.04933284 0.10958693
v -0.05509579 -0.04757453 0.11101933
v -0.05831071 -0.04467926 0.11038101
v -0.05889376 -0.03746815 0.11291444
v -0.05826414 -0.04270181 0.11143927
v -0.05714257 -0.03994576 0.11297858
v -0.05756164 -0.03460381 0.11413152
v -0.05962866 -0.03499827 0.11324582
v -0.04718807 -0.03385872 0.11350541
v -0.05355515 -0.03498280 0.11513176
v -0.04152351 -0.04343143 0.11604954
v -0.04152351 -0.04101312 0.11531348
v -0.04152351 -0.03385872 0.11006949
v -0.04152351 -0.05549980 0.11307478
v -0.04252766 -0.05785366 0.11153853
v -0.04510283 -0.05618816 0.11143317
v -0.04769622 -0.05409986 0.11144080
v -0.04902228 -0.04951331 0.11305188
v -0.05314619 -0.04963706 0.11108957
v -0.05632264 -0.04572341 0.11123770
v -0.05554523 -0.03737017 0.11426438
v -0.05484273 -0.04349588 0.11290069
v -0.05352478 -0.04141273 0.11400935
v -0.05554523 -0.03534890 0.11463699
v -0.05268461 -0.03704791 0.11506151
v -0.04247705 -0.04547849 0.11575023
v -0.04250134 -0.04815720 0.11517451
v -0.04152351 -0.05356618 0.11381236
v -0.04338605 -0.05403540 0.11313281
v -0.04558062 -0.05349141 0.11260902
v -0.04633980 -0.05137474 0.11324582
v -0.04545105 -0.04948495 0.11416512
v -0.04746948 -0.04746367 0.11421093
v -0.05102249 -0.04749977 0.11304882
v -0.05352478 -0.03939145 0.11447512
v -0.05224529 -0.04544497 0.11329010
v -0.05151039 -0.04343143 0.11412694
v -0.05119659 -0.04059803 0.11481412
v -0.04921865 -0.04238985 0.11495309
v -0.04496314 -0.04696609 0.11497752
v -0.04662729 -0.04534442 0.11495004
v -0.04247705 -0.05150365 0.11424147
v -0.04948994 -0.04545013 0.11418803
f 1 2 3
f 1 3 4
f 1 4 14
f 1 14 15
f 1 15 5
f 1 5 6
f 1 6 7
f 1 7 8
f 1 8 2
f 2 8 9
f 2 9 3
f 3 10 4
f 3 9 11
f 3 11 10
f 4 12 13
f 4 13 30
f 4 30 34
f 4 34 14
f 4 10 12
f 5 15 16
f 5 16 6
f 6 16 17
f 6 17 18
f 6 18 7
f 7 18 19
f 7 19 20
f 7 20 21
f 7 21 8
f 8 21 22
f 8 22 23
f 8 23 24
f 8 24 9
f 9 24 11
f 10 11 25
f 10 25 12
f 11 24 26
f 11 26 27
f 11 27 25
f 12 28 13
f 12 25 29
f 12 29 28
f 13 28 31
f 13 31 32
f 13 32 33
f 13 33 30
f 14 34 33
f 14 33 32
f 14 32 49
f 14 49 35
f 14 35 16
f 14 16 15
f 16 35 17
f 17 35 36
f 17 36 37
f 17 37 38
f 17 38 20
f 17 20 18
f 18 20 19
f 20 38 39
f 20 39 40
f 20 40 21
f 21 40 22
f 22 40 23
f 23 41 24
f 23 40 41
f 24 41 26
f 25 42 29
f 25 27 42
f 26 41 43
f 26 43 27
f 27 43 44
f 27 44 42
f 28 29 42
f 28 42 45
f 28 45 31
f 30 33 34
f 31 45 46
f 31 46 47
f 31 47 32
f 32 47 48
f 32 48 49
f 35 49 50
f 35 50 36
f 36 50 51
f 36 51 37
f 37 51 38
f 38 51 39
f 39 51 52
f 39 52 53
f 39 53 54
f 39 54 55
f 39 55 40
f 40 55 41
f 41 55 43
f 42 44 56
f 42 56 45
f 43 57 44
f 43 55 57
f 44 57 58
f 44 58 56
f 45 56 46
f 46 56 59
f 46 59 60
f 46 60 47
f 47 61 48
f 47 60 62
f 47 62 61
f 48 63 49
f 48 61 63
f 49 63 53
f 49 53 50
f 50 53 52
f 50 52 51
f 53 63 61
f 53 61 54
f 54 61 62
f 54 62 64
f 54 64 55
f 55 64 57
f 56 58 60
f 56 60 59
f 57 64 58
f 58 64 62
f 58 62 60

