# https://github.com/mikedh/trimesh
v 0.02607429 -0.01632695 -0.11965813
v 0.02735983 0.01683411 -0.12159787
v 0.03376081 -0.01603109 -0.12163628
v 0.05454618 -0.01621189 0.04525782
v 0.02607429 -0.01632695 0.07456512
v 0.02607429 0.02565240 0.07456512
v 0.02931338 0.02467852 -0.11839058
v 0.03470196 0.01537535 -0.11912039
v 0.03251090 0.00823360 -0.12159787
v 0.03478212 -0.00090932 -0.12159787
v 0.03586874 -0.00959201 -0.12136742
v 0.04141171 -0.01395184 -0.11823694
v 0.04514957 -0.01393130 -0.11301310
v 0.04631338 -0.01545580 -0.10544620
v 0.05117053 -0.01558729 -0.02199916
v 0.05454618 -0.01223010 0.03611610
v 0.05562984 -0.01359845 0.06044922
v 0.05579313 -0.01385322 0.06590353
v 0.05598611 -0.01397650 0.07354724
v 0.05236106 0.01634100 0.07444989
v 0.04178876 0.02565240 -0.04504552
v 0.04847772 0.02442375 0.07270220
v 0.04781862 0.02503602 0.06574989
v 0.03351439 0.02011734 -0.11800648
v 0.03563716 0.02419775 -0.11118860
v 0.03811324 0.00961017 -0.11865946
v 0.03858233 0.01658756 -0.11506807
v 0.04185110 -0.00245026 -0.11806409
v 0.04173532 -0.00757029 -0.11835217
v 0.04531583 -0.00593484 -0.11357005
v 0.04668747 -0.00662929 -0.10598396
v 0.04939215 -0.00908658 -0.06158129
v 0.05053815 -0.01262869 -0.03861174
v 0.05073707 -0.01521336 -0.03043028
v 0.05113193 -0.01110829 -0.02927797
v 0.05511622 -0.00908658 0.04339491
v 0.05570703 -0.01009744 0.05603200
v 0.05620581 -0.00757029 0.06411743
v 0.05640175 -0.00907425 0.07262539
v 0.05538045 0.00544758 0.07210684
v 0.05393459 0.01137712 0.07164591
v 0.05233731 0.01550684 0.06638366
v 0.05027095 0.02072550 0.06974459
v 0.04190751 0.01446311 -0.10803893
v 0.03938987 0.01915990 -0.10917204
v 0.04965638 0.02129667 0.06284989
v 0.05313001 0.01204281 0.05900882
v 0.04183626 0.00856644 -0.11549058
v 0.04137608 0.00348339 -0.11748793
v 0.04302086 0.01054296 -0.11103495
v 0.04474283 0.00252595 -0.11266740
v 0.04601352 -0.00019432 -0.10853826
v 0.04646480 -0.00040389 -0.10348727
v 0.04873008 -0.00623070 -0.07277798
v 0.05145257 -0.00605811 -0.02472631
v 0.05603361 0.00039329 0.06985982
v 0.05569812 -0.00239684 0.05630088
v 0.05597720 -0.00264750 0.06185121
v 0.05453728 0.00574344 0.05511014
v 0.05457290 0.00771995 0.06461677
v 0.05370598 0.00908420 0.05351611
v 0.04492393 0.00637625 -0.10584952
v 0.04775924 -0.00050251 -0.08178527
v 0.05102208 -0.00302965 -0.02927797
f 1 2 3
f 1 3 4
f 1 4 5
f 1 5 6
f 1 6 2
f 2 7 8
f 2 8 9
f 2 9 3
f 2 6 7
f 3 9 10
f 3 10 11
f 3 11 12
f 3 12 13
f 3 13 14
f 3 14 4
f 4 15 16
f 4 16 17
f 4 17 18
f 4 18 19
f 4 19 5
f 4 14 15
f 5 19 20
f 5 20 6
f 6 21 7
f 6 20 22
f 6 22 23
f 6 23 21
f 7 24 8
f 7 21 25
f 7 25 24
f 8 26 9
f 8 24 27
f 8 27 26
f 9 26 10
f 10 26 28
f 10 28 29
f 10 29 11
f 11 29 12
f 12 29 30
f 12 30 13
f 13 30 31
f 13 31 14
f 14 31 32
f 14 32 33
f 14 33 34
f 14 34 15
f 15 34 33
f 15 33 16
f 16 33 35
f 16 35 36
f 16 36 37
f 16 37 17
f 17 37 38
f 17 38 39
f 17 39 18
f 18 39 19
f 19 39 20
f 20 39 40
f 20 40 41
f 20 41 42
f 20 42 43
f 20 43 22
f 21 44 45
f 21 45 25
f 21 23 46
f 21 46 42
f 21 42 47
f 21 47 44
f 22 43 46
f 22 46 23
f 24 25 27
f 25 45 27
f 26 27 48
f 26 48 49
f 26 49 28
f 27 45 50
f 27 50 48
f 28 49 51
f 28 51 30
f 28 30 29
f 30 51 52
f 30 52 31
f 31 53 54
f 31 54 32
f 31 52 53
f 32 54 55
f 32 55 35
f 32 35 33
f 35 55 36
f 36 55 38
f 36 38 37
f 38 56 39
f 38 55 57
f 38 57 58
f 38 58 56
f 39 56 40
f 40 56 59
f 40 59 60
f 40 60 41
f 41 60 61
f 41 61 47
f 41 47 42
f 42 46 43
f 44 50 45
f 44 47 62
f 44 62 50
f 47 61 62
f 48 50 51
f 48 51 49
f 50 62 51
f 51 62 52
f 52 62 53
f 53 62 59
f 53 59 63
f 53 63 54
f 54 63 64
f 54 64 55
f 55 64 57
f 56 58 57
f 56 57 59
f 57 64 59
f 59 64 63
f 59 62 61
f 59 61 60

