# https://github.com/mikedh/trimesh
v -0.00297180 -0.00852218 -0.02144299
v -0.01231375 0.00311741 -0.02145430
v -0.01261781 -0.00142524 -0.01949732
v -0.01143670 -0.00343918 -0.01950109
v -0.00297180 -0.00977450 -0.02144299
v -0.00297180 -0.00826179 -0.02248370
v -0.01354223 0.00311741 -0.02145430
v -0.01326414 0.00044570 -0.02019490
v -0.01211970 0.00311741 -0.02242337
v -0.01273852 -0.00287473 -0.01940305
v -0.01204330 -0.00290484 -0.01940682
v -0.01237334 -0.00352347 -0.01947092
v -0.00402303 -0.00964656 -0.02144299
v -0.00297180 -0.01225956 -0.05692135
v -0.00297180 -0.00802397 -0.02356966
v -0.01386157 0.00156255 -0.02145430
v -0.01709932 0.00311741 -0.05754351
v -0.01858144 0.00299398 -0.05741531
v -0.01378670 0.00032077 -0.02131479
v -0.01199440 0.00311741 -0.02356966
v -0.01851574 0.00210592 -0.05743416
v -0.01728573 -0.00123258 -0.05513027
v -0.01622227 -0.00352347 -0.05515667
v -0.01011196 -0.00663167 -0.02242337
v -0.00953744 -0.00722170 -0.02242337
v -0.00940451 -0.00709376 -0.02172202
v -0.00741205 -0.00846499 -0.02144299
v -0.00503607 -0.00940272 -0.02144299
v -0.01494490 -0.00577372 -0.05632558
v -0.01410299 -0.00699743 -0.05645755
v -0.00862372 -0.00984825 -0.05690250
v -0.00464644 -0.01151901 -0.05750580
v -0.00297180 -0.01205034 -0.05792435
v -0.00297180 -0.00769283 -0.04292457
v -0.01652481 0.00311741 -0.05725317
v -0.00297180 -0.01125560 -0.05758499
v -0.01782816 0.00299398 -0.05771696
v -0.01198065 0.00311741 -0.03162006
v -0.01783580 0.00172210 -0.05767548
v -0.01301203 -0.00705914 -0.05760007
v -0.00868484 -0.00779819 -0.02242337
v -0.00936020 -0.00936208 -0.05758499
v -0.00726842 -0.01037356 -0.05751334
v -0.01198065 0.00311741 -0.03289078
v -0.00297180 -0.00771540 -0.04415759
v -0.01572263 0.00311741 -0.05673658
v -0.01512520 0.00311741 -0.05625016
v -0.01471265 0.00311741 -0.05568079
v -0.00297180 -0.01072276 -0.05689496
v -0.01200357 0.00311741 -0.03391641
v -0.00297180 -0.00780722 -0.04645770
v -0.00297180 -0.00943583 -0.05480223
v -0.00297180 -0.01022154 -0.05609934
v -0.01432913 0.00311741 -0.05460238
v -0.00297180 -0.00910319 -0.05423285
v -0.01218540 0.00311741 -0.03874666
v -0.00297180 -0.00786141 -0.04770203
v -0.00297180 -0.00850111 -0.05225324
v -0.00297180 -0.00880365 -0.05344855
v -0.01255975 0.00311741 -0.04396151
v -0.01228319 0.00311741 -0.04080168
v -0.00297180 -0.00797881 -0.04898406
v -0.01243446 0.00311741 -0.04310179
v -0.01234889 0.00311741 -0.04195551
f 1 2 3
f 1 3 4
f 1 4 5
f 1 5 14
f 1 14 33
f 1 33 36
f 1 36 49
f 1 49 53
f 1 53 52
f 1 52 55
f 1 55 59
f 1 59 58
f 1 58 62
f 1 62 57
f 1 57 51
f 1 51 45
f 1 45 34
f 1 34 15
f 1 15 6
f 1 6 2
f 2 7 8
f 2 8 3
f 2 6 9
f 2 9 20
f 2 20 38
f 2 38 44
f 2 44 50
f 2 50 56
f 2 56 61
f 2 61 64
f 2 64 63
f 2 63 60
f 2 60 54
f 2 54 48
f 2 48 47
f 2 47 46
f 2 46 35
f 2 35 17
f 2 17 7
f 3 10 11
f 3 11 4
f 3 8 10
f 4 11 12
f 4 12 5
f 5 12 13
f 5 13 14
f 6 15 9
f 7 16 8
f 7 17 18
f 7 18 16
f 8 19 10
f 8 16 19
f 9 15 20
f 10 12 11
f 10 19 21
f 10 21 22
f 10 22 23
f 10 23 12
f 12 24 25
f 12 25 26
f 12 26 27
f 12 27 28
f 12 28 13
f 12 23 29
f 12 29 30
f 12 30 24
f 13 28 14
f 14 31 32
f 14 32 33
f 14 28 27
f 14 27 31
f 15 34 20
f 16 18 19
f 17 35 36
f 17 36 33
f 17 33 37
f 17 37 18
f 18 37 21
f 18 21 19
f 20 34 38
f 21 37 39
f 21 39 40
f 21 40 29
f 21 29 23
f 21 23 22
f 24 30 25
f 25 41 27
f 25 27 26
f 25 30 41
f 27 41 30
f 27 30 31
f 29 40 30
f 30 40 42
f 30 42 31
f 31 42 43
f 31 43 32
f 32 43 33
f 33 43 42
f 33 42 40
f 33 40 39
f 33 39 37
f 34 44 38
f 34 45 44
f 35 46 36
f 36 46 47
f 36 47 48
f 36 48 49
f 44 45 50
f 45 51 50
f 48 52 53
f 48 53 49
f 48 54 55
f 48 55 52
f 50 51 56
f 51 57 56
f 54 58 59
f 54 59 55
f 54 60 58
f 56 57 61
f 57 62 63
f 57 63 64
f 57 64 61
f 58 60 62
f 60 63 62

