# https://github.com/mikedh/trimesh
v -0.02744793 -0.02455875 0.05044692
v -0.02744793 -0.02358705 0.05551662
v -0.02744793 -0.02193349 0.05075291
v -0.02211596 -0.03147952 0.04690716
v -0.02665092 -0.04161149 0.05108455
v -0.02665092 -0.04161149 0.05254512
v -0.02741704 -0.02031120 0.05513651
v -0.02744294 -0.02070948 0.05279219
v -0.02665092 -0.03880273 0.05430977
v -0.02665092 -0.03717419 0.05515646
v -0.02639489 -0.03407976 0.05625403
v -0.02636300 -0.03153999 0.05661513
v -0.02040340 -0.03147952 0.04690716
v -0.02034363 -0.04161149 0.04690716
v -0.02221459 -0.04161149 0.05062557
v -0.02391421 -0.04160732 0.05168037
v -0.02485965 -0.02362875 0.05345358
v -0.02410947 -0.02461713 0.05230470
v -0.02510174 -0.02586825 0.05551662
v -0.02521233 -0.02408541 0.05504338
v -0.02413538 -0.02482565 0.05339086
v -0.02272268 -0.03876519 0.05276083
v -0.02629227 -0.03593559 0.05552137
v -0.02394708 -0.03387124 0.05505478
v -0.02598742 -0.03275983 0.05635000
v -0.02545143 -0.03505771 0.05550141
v -0.02471420 -0.03275983 0.05567341
v -0.02370201 -0.03161089 0.05505859
v -0.02465343 -0.02936096 0.05551662
v -0.01926468 -0.03277234 0.04690716
v -0.01767864 -0.03513070 0.04690716
v -0.01731102 -0.03904670 0.04694992
v -0.01848461 -0.04120696 0.04717704
v -0.01988336 -0.04160107 0.04861005
v -0.02106890 -0.04161149 0.04970761
v -0.02035658 -0.03940118 0.05084033
v -0.02134387 -0.03896329 0.05186377
v -0.01840093 -0.03384413 0.04730913
v -0.02190874 -0.02825163 0.05115868
v -0.02411545 -0.02977800 0.05519732
v -0.02277150 -0.03154624 0.05425751
v -0.02290002 -0.03006784 0.05412827
v -0.02205320 -0.03031598 0.05321696
v -0.02194561 -0.02876459 0.05238167
v -0.02173540 -0.03753910 0.05278269
v -0.02370997 -0.03275983 0.05506999
v -0.02260513 -0.03434041 0.05408266
v -0.02269579 -0.03275983 0.05429457
v -0.01829433 -0.03429036 0.04847796
v -0.01782609 -0.03505771 0.04771014
v -0.01735486 -0.03620249 0.04735094
v -0.01951474 -0.03862132 0.05062652
v -0.01727117 -0.03735977 0.04752199
v -0.01943105 -0.04047714 0.04911654
v -0.02155906 -0.03391086 0.05320651
v -0.02188483 -0.03275983 0.05342982
v -0.02194660 -0.03154624 0.05331484
v -0.01967414 -0.03488464 0.05099143
v -0.01805224 -0.03577294 0.04877160
v -0.02156105 -0.03505771 0.05314854
v -0.02058472 -0.03771009 0.05182291
v -0.01940814 -0.03735977 0.05075481
v -0.02071822 -0.03505771 0.05228854
v -0.02047115 -0.03620874 0.05195025
f 1 2 3
f 1 3 4
f 1 4 5
f 1 5 6
f 1 6 2
f 2 7 8
f 2 8 3
f 2 6 9
f 2 9 10
f 2 10 11
f 2 11 12
f 2 12 7
f 3 8 13
f 3 13 4
f 4 13 30
f 4 30 31
f 4 31 14
f 4 14 5
f 5 14 35
f 5 35 15
f 5 15 6
f 6 15 16
f 6 16 9
f 7 17 18
f 7 18 8
f 7 12 19
f 7 19 20
f 7 20 21
f 7 21 17
f 8 18 13
f 9 16 22
f 9 22 10
f 10 22 23
f 10 23 11
f 11 24 25
f 11 25 12
f 11 23 26
f 11 26 24
f 12 25 27
f 12 27 28
f 12 28 29
f 12 29 19
f 13 18 30
f 14 31 32
f 14 32 33
f 14 33 34
f 14 34 35
f 15 35 36
f 15 36 37
f 15 37 16
f 16 37 22
f 17 21 18
f 18 38 30
f 18 21 39
f 18 39 38
f 19 29 40
f 19 40 41
f 19 41 42
f 19 42 43
f 19 43 20
f 20 43 44
f 20 44 21
f 21 44 39
f 22 37 45
f 22 45 26
f 22 26 23
f 24 46 27
f 24 27 25
f 24 26 45
f 24 45 47
f 24 47 46
f 27 46 28
f 28 48 41
f 28 41 40
f 28 40 29
f 28 46 48
f 30 38 31
f 31 49 50
f 31 50 51
f 31 51 32
f 31 38 49
f 32 52 33
f 32 51 53
f 32 53 52
f 33 52 54
f 33 54 34
f 34 54 35
f 35 54 36
f 36 54 52
f 36 52 37
f 37 52 45
f 38 39 49
f 39 44 49
f 41 48 55
f 41 55 56
f 41 56 57
f 41 57 43
f 41 43 42
f 43 57 58
f 43 58 59
f 43 59 44
f 44 59 49
f 45 60 47
f 45 52 61
f 45 61 60
f 46 47 48
f 47 60 48
f 48 60 55
f 49 59 51
f 49 51 50
f 51 59 53
f 52 53 62
f 52 62 61
f 53 59 62
f 55 57 56
f 55 60 63
f 55 63 58
f 55 58 57
f 58 63 62
f 58 62 59
f 60 61 64
f 60 64 63
f 61 62 64
f 62 63 64

