# https://github.com/mikedh/trimesh
v -0.03721664 -0.00614988 0.04637929
v -0.03421779 -0.00579766 0.04180982
v -0.03751207 -0.00614988 0.04811946
v -0.04691996 0.00774205 0.01477786
v -0.03767634 -0.00134313 0.02155428
v -0.03403442 -0.00542990 0.04354589
v -0.03694541 -0.00579248 0.05436358
v -0.03764960 0.00097910 0.01384022
v -0.03403442 0.00023668 0.03201984
v -0.04704348 0.00374333 0.04853710
v -0.04704094 0.01029909 0.02175491
v -0.04679772 0.00928387 0.01702166
v -0.04540462 0.00847584 0.01553125
v -0.04443047 0.00796823 0.01509724
v -0.03756046 0.00225848 0.01253407
v -0.03403442 -0.00222713 0.04039721
v -0.03403442 -0.00095120 0.03886586
v -0.03403442 -0.00023295 0.03777672
v -0.04052622 0.00258653 0.04741111
v -0.04144307 0.00285760 0.04841426
v -0.04547593 0.00561665 0.04842245
v -0.04680918 0.00569434 0.04843473
v -0.03403442 0.00164901 0.03241292
v -0.04704348 0.00983982 0.04043406
v -0.04704348 0.00857425 0.04043406
v -0.04686139 0.01148869 0.02894896
v -0.04540462 0.00968443 0.01897883
v -0.04673787 0.00966889 0.01852843
v -0.04690213 0.01141445 0.03421041
v -0.04490544 0.00930976 0.01766859
v -0.04243250 0.00795096 0.01654260
v -0.04117820 0.00715674 0.01667772
v -0.03403442 0.00066832 0.03614302
v -0.04087513 0.00333758 0.04673551
v -0.03403442 0.00118974 0.03513167
v -0.04320163 0.00678726 0.04441393
v -0.04476919 0.00722235 0.04557267
v -0.04667420 0.00798031 0.04494212
v -0.04679899 0.00710149 0.04641614
v -0.04510791 0.01059605 0.03161449
v -0.04521615 0.01059951 0.03337922
v -0.03403442 0.00155404 0.03396474
v -0.04191295 0.00804937 0.01783237
v -0.04680536 0.01041304 0.03882082
v -0.04667929 0.00922862 0.04240761
v -0.04378358 0.00924588 0.01895017
v -0.04660161 0.01148178 0.03161449
v -0.04663599 0.01148178 0.03052535
v -0.04568477 0.01033362 0.03772350
v -0.04563638 0.01052354 0.03620443
v -0.04553450 0.01061850 0.03504978
v -0.04667038 0.01144552 0.03276095
v -0.04131318 0.00467740 0.04498716
v -0.04141378 0.00571333 0.04305864
v -0.04450178 0.00796132 0.04357046
v -0.04272156 0.00692193 0.04309550
v -0.04379249 0.00813398 0.04186305
v -0.04575735 0.00928559 0.04166651
v -0.04506207 0.01018686 0.03620443
v -0.04444320 0.00954630 0.03735090
v -0.04453233 0.00945307 0.03850145
v -0.04348305 0.00820994 0.04080257
v -0.04502387 0.00924243 0.04067154
v -0.04466986 0.00932358 0.03965201
f 1 2 3
f 1 3 4
f 1 4 5
f 1 5 2
f 2 6 7
f 2 7 3
f 2 5 8
f 2 8 9
f 2 9 6
f 3 7 10
f 3 10 4
f 4 11 12
f 4 12 13
f 4 13 14
f 4 14 15
f 4 15 8
f 4 8 5
f 4 10 11
f 6 16 7
f 6 9 23
f 6 23 42
f 6 42 35
f 6 35 33
f 6 33 18
f 6 18 17
f 6 17 16
f 7 16 17
f 7 17 18
f 7 18 19
f 7 19 20
f 7 20 21
f 7 21 22
f 7 22 10
f 8 15 9
f 9 15 23
f 10 22 24
f 10 24 25
f 10 25 11
f 11 26 27
f 11 27 28
f 11 28 12
f 11 25 24
f 11 24 29
f 11 29 26
f 12 28 30
f 12 30 13
f 13 30 14
f 14 30 31
f 14 31 15
f 15 31 32
f 15 32 23
f 18 33 19
f 19 34 20
f 19 33 35
f 19 35 34
f 20 34 36
f 20 36 37
f 20 37 21
f 21 37 38
f 21 38 39
f 21 39 22
f 22 39 24
f 23 40 41
f 23 41 42
f 23 32 43
f 23 43 40
f 24 44 29
f 24 39 38
f 24 38 45
f 24 45 44
f 26 46 27
f 26 29 47
f 26 47 48
f 26 48 46
f 27 46 30
f 27 30 28
f 29 49 50
f 29 50 51
f 29 51 52
f 29 52 47
f 29 44 49
f 30 46 31
f 31 46 43
f 31 43 32
f 34 53 36
f 34 35 53
f 35 42 54
f 35 54 53
f 36 55 37
f 36 53 54
f 36 54 56
f 36 56 57
f 36 57 55
f 37 55 58
f 37 58 45
f 37 45 38
f 40 48 47
f 40 47 41
f 40 43 46
f 40 46 48
f 41 47 52
f 41 52 51
f 41 51 59
f 41 59 42
f 42 59 60
f 42 60 61
f 42 61 62
f 42 62 56
f 42 56 54
f 44 45 58
f 44 58 49
f 49 59 50
f 49 58 63
f 49 63 64
f 49 64 61
f 49 61 59
f 50 59 51
f 55 57 63
f 55 63 58
f 56 62 57
f 57 62 64
f 57 64 63
f 59 61 60
f 61 64 62

