# https://github.com/mikedh/trimesh
v -0.05194844 -0.03024822 0.00796060
v -0.05192883 -0.03161199 0.00807328
v -0.05194844 -0.03016219 0.00863787
v -0.05194844 -0.02965445 0.00791717
v -0.05185178 -0.03284988 0.00747818
v -0.05194844 -0.02926840 0.00932922
v -0.05186579 -0.03275966 0.00822118
v -0.05189801 -0.03215750 0.00828456
v -0.05194844 -0.02701502 0.00845241
v -0.05171310 -0.03329259 0.00687603
v -0.05170329 -0.03420107 0.00688894
v -0.05194844 -0.02192498 0.01384121
v -0.05177334 -0.03345204 0.00809793
v -0.05194844 -0.02531764 0.00923180
v -0.05172150 -0.02609394 0.00890432
v -0.05060365 -0.03109795 0.00806976
v -0.05107293 -0.03390943 0.00706971
v -0.05159823 -0.03421786 0.00769181
v -0.04489531 -0.03959324 0.01261462
v -0.04727110 -0.03814554 0.01125069
v -0.04600056 -0.03959324 0.01398911
v -0.04599075 -0.03959324 0.01489878
v -0.04883302 -0.02016676 0.01886732
v -0.04940455 -0.01815886 0.01886732
v -0.05194844 -0.02114238 0.01410649
v -0.04560973 -0.03959324 0.01549858
v -0.05194844 -0.01897083 0.01439523
v -0.05185598 -0.01817354 0.01405367
v -0.05000410 -0.01823439 0.01359942
v -0.04944097 -0.01951005 0.01262753
v -0.04867753 -0.02012270 0.01298670
v -0.03771331 -0.03441928 0.01702684
v -0.05035571 -0.03275966 0.00783383
v -0.05025625 -0.03390943 0.00764368
v -0.04596554 -0.03797139 0.01147488
v -0.04095061 -0.03959324 0.01797877
v -0.04555370 -0.03959324 0.01320033
v -0.04498497 -0.03959324 0.01625332
v -0.04851643 -0.02114868 0.01886732
v -0.04805276 -0.01815886 0.01886732
v -0.04797431 -0.01815886 0.01475324
v -0.05194844 -0.01994226 0.01441401
v -0.04916361 -0.01821970 0.01382478
v -0.04844499 -0.01861415 0.01391986
v -0.04820545 -0.01938206 0.01370271
v -0.03764047 -0.03408148 0.01781679
v -0.03764047 -0.03487247 0.01781679
v -0.03763767 -0.03516201 0.01886614
v -0.04091839 -0.03959324 0.01883093
v -0.04418090 -0.03959324 0.01685547
v -0.04605939 -0.02712412 0.01886732
v -0.04367520 -0.03959324 0.01721934
v -0.04314429 -0.03959324 0.01758790
v -0.04156416 -0.03959324 0.01855392
v -0.04792949 -0.01815886 0.01815718
v -0.03998404 -0.03215750 0.01886732
v -0.03768390 -0.03414442 0.01886614
v -0.04777540 -0.01815886 0.01551736
v -0.04782863 -0.01815886 0.01683669
v -0.03848937 -0.03517250 0.01886614
v -0.04049534 -0.03354856 0.01886614
v -0.04170985 -0.03215750 0.01886732
v -0.04434339 -0.02934603 0.01886732
v -0.04532256 -0.02827179 0.01886732
f 1 2 3
f 1 3 6
f 1 6 12
f 1 12 25
f 1 25 42
f 1 42 27
f 1 27 14
f 1 14 9
f 1 9 4
f 1 4 5
f 1 5 2
f 2 6 3
f 2 5 7
f 2 7 8
f 2 8 6
f 4 9 10
f 4 10 5
f 5 10 11
f 5 11 7
f 6 8 12
f 7 11 13
f 7 13 12
f 7 12 8
f 9 14 15
f 9 15 16
f 9 16 10
f 10 17 11
f 10 16 17
f 11 18 13
f 11 17 19
f 11 19 20
f 11 20 21
f 11 21 22
f 11 22 18
f 12 23 24
f 12 24 25
f 12 13 22
f 12 22 26
f 12 26 23
f 13 18 22
f 14 27 28
f 14 28 29
f 14 29 30
f 14 30 15
f 15 30 16
f 16 30 31
f 16 31 32
f 16 32 33
f 16 33 17
f 17 34 35
f 17 35 19
f 17 33 34
f 19 36 49
f 19 49 54
f 19 54 53
f 19 53 52
f 19 52 50
f 19 50 38
f 19 38 26
f 19 26 22
f 19 22 21
f 19 21 37
f 19 37 20
f 19 35 32
f 19 32 36
f 20 37 21
f 23 26 38
f 23 38 39
f 23 39 51
f 23 51 64
f 23 64 63
f 23 63 62
f 23 62 56
f 23 56 40
f 23 40 24
f 24 40 55
f 24 55 59
f 24 59 58
f 24 58 41
f 24 41 28
f 24 28 27
f 24 27 42
f 24 42 25
f 28 41 43
f 28 43 29
f 29 43 30
f 30 43 44
f 30 44 45
f 30 45 31
f 31 45 32
f 32 34 33
f 32 45 41
f 32 41 46
f 32 46 47
f 32 47 36
f 32 35 34
f 36 47 48
f 36 48 49
f 38 50 39
f 39 50 52
f 39 52 53
f 39 53 54
f 39 54 51
f 40 56 57
f 40 57 55
f 41 45 44
f 41 44 43
f 41 58 46
f 46 57 48
f 46 48 47
f 46 58 59
f 46 59 55
f 46 55 57
f 48 60 49
f 48 57 56
f 48 56 60
f 49 60 61
f 49 61 62
f 49 62 63
f 49 63 64
f 49 64 51
f 49 51 54
f 56 62 60
f 60 62 61

