# https://github.com/mikedh/trimesh
v 0.03871746 0.03501268 0.04093905
v 0.04551883 0.03492814 0.03530085
v 0.04551883 0.03272828 0.03530085
v 0.05074030 0.01739612 0.03276316
v 0.03899199 0.03351072 0.04114193
v 0.03905017 0.03404545 0.04235760
v 0.04014828 0.03455462 0.04382851
v 0.04136092 0.03449367 0.04484292
v 0.04447526 0.03424400 0.04732170
v 0.04560246 0.03425383 0.04751314
v 0.04860953 0.03607623 0.03530085
v 0.04767141 0.03597597 0.03530085
v 0.04634605 0.03541962 0.03530085
v 0.05595631 0.02706448 0.03276316
v 0.05108573 0.01894919 0.03276316
v 0.05504001 0.02133188 0.03276316
v 0.05200385 0.01705995 0.03314439
v 0.04960583 0.01599246 0.04192893
v 0.04782413 0.01705995 0.03985591
v 0.04240449 0.02894193 0.04626966
v 0.04794958 0.01705995 0.04123683
v 0.04482069 0.02411168 0.04603896
v 0.04258084 0.03078596 0.04710246
v 0.04250994 0.03204415 0.04714827
v 0.04599334 0.03247075 0.04837375
v 0.05296379 0.03321386 0.03592913
v 0.05234565 0.03410442 0.03530085
v 0.05154933 0.03475317 0.03530085
v 0.05002035 0.03571254 0.03530085
v 0.04767687 0.03049501 0.04926219
v 0.04767687 0.03137967 0.04864372
v 0.05726350 0.02703696 0.03276316
v 0.05053849 0.01603177 0.04256539
v 0.05575451 0.02242493 0.03276316
v 0.04877316 0.01655471 0.04192893
v 0.04891860 0.02073031 0.04711719
v 0.04780958 0.02081681 0.04651181
v 0.04307535 0.02815557 0.04661979
v 0.04303717 0.02931152 0.04710246
v 0.04689692 0.02156189 0.04630565
v 0.04574245 0.02333514 0.04656743
v 0.04499341 0.02508088 0.04695848
v 0.04763505 0.02842686 0.04932927
v 0.04767687 0.02956316 0.04947816
v 0.05151843 0.02688952 0.04864208
v 0.05382918 0.03248844 0.03530085
v 0.05022397 0.02675584 0.04944380
v 0.05729077 0.02585545 0.03276316
v 0.05451096 0.03152907 0.03530085
v 0.05506546 0.03047731 0.03530085
v 0.05549271 0.02954743 0.03530085
v 0.05696170 0.02703696 0.03391829
v 0.05643446 0.02358088 0.03276316
v 0.05692352 0.02471718 0.03276480
v 0.05651082 0.02485087 0.03430933
v 0.05050940 0.01715824 0.04385305
v 0.05030033 0.02066150 0.04714991
v 0.04885315 0.02706842 0.04939636
v 0.04801685 0.02155599 0.04720881
v 0.04709327 0.02236005 0.04713682
v 0.04350442 0.02850353 0.04719409
v 0.04576427 0.02434759 0.04723335
v 0.04786231 0.02706842 0.04903313
v 0.05696716 0.02586921 0.03391666
f 1 2 3
f 1 3 4
f 1 4 5
f 1 5 6
f 1 6 7
f 1 7 8
f 1 8 9
f 1 9 10
f 1 10 11
f 1 11 12
f 1 12 13
f 1 13 2
f 2 13 14
f 2 14 15
f 2 15 4
f 2 4 3
f 4 15 14
f 4 14 32
f 4 32 48
f 4 48 53
f 4 53 34
f 4 34 16
f 4 16 17
f 4 17 18
f 4 18 19
f 4 19 5
f 5 20 6
f 5 19 21
f 5 21 22
f 5 22 20
f 6 20 23
f 6 23 24
f 6 24 7
f 7 24 8
f 8 24 9
f 9 24 25
f 9 25 10
f 10 26 27
f 10 27 28
f 10 28 29
f 10 29 11
f 10 25 30
f 10 30 31
f 10 31 26
f 11 29 32
f 11 32 14
f 11 14 12
f 12 14 13
f 16 33 17
f 16 34 33
f 17 33 18
f 18 35 21
f 18 21 19
f 18 33 36
f 18 36 37
f 18 37 35
f 20 38 39
f 20 39 23
f 20 22 38
f 21 35 40
f 21 40 22
f 22 40 41
f 22 41 42
f 22 42 38
f 23 39 43
f 23 43 44
f 23 44 24
f 24 44 25
f 25 44 30
f 26 31 45
f 26 45 46
f 26 46 27
f 27 46 32
f 27 32 28
f 28 32 29
f 30 44 47
f 30 47 45
f 30 45 31
f 32 46 49
f 32 49 50
f 32 50 51
f 32 51 52
f 32 52 48
f 33 34 53
f 33 53 54
f 33 54 55
f 33 55 56
f 33 56 36
f 35 37 40
f 36 57 47
f 36 47 58
f 36 58 59
f 36 59 37
f 36 56 57
f 37 59 60
f 37 60 40
f 38 61 39
f 38 42 61
f 39 61 43
f 40 60 41
f 41 62 42
f 41 60 62
f 42 62 61
f 43 61 62
f 43 62 63
f 43 63 58
f 43 58 44
f 44 58 47
f 45 47 57
f 45 57 64
f 45 64 52
f 45 52 51
f 45 51 50
f 45 50 49
f 45 49 46
f 48 54 53
f 48 52 64
f 48 64 54
f 54 64 55
f 55 64 57
f 55 57 56
f 58 63 59
f 59 63 60
f 60 63 62

