# https://github.com/mikedh/trimesh
v -0.05838954 -0.00616237 0.05027756
v -0.06400631 -0.01816317 0.05042787
v -0.06122351 -0.00665427 0.05048765
v -0.05498878 -0.00653216 0.05370896
v -0.04491246 -0.00620075 0.05692002
v -0.03696948 -0.00689847 0.05594218
v -0.03334043 -0.01148598 0.05462360
v -0.03018370 -0.01695262 0.05462360
v -0.02454726 -0.03041514 0.05551859
v -0.06475416 -0.01520134 0.05064393
v -0.04913192 -0.04179845 0.05487809
v -0.05992067 -0.02790683 0.05214869
v -0.06265624 -0.02378679 0.05252957
v -0.06386067 -0.01168483 0.05083779
v -0.05551622 -0.01173716 0.05530851
v -0.05361509 -0.00936491 0.05538622
v -0.05107240 -0.00677986 0.05551262
v -0.04703399 -0.00707290 0.05671506
v -0.04819513 -0.01438850 0.05773730
v -0.03830774 -0.01375357 0.05878004
v -0.04144872 -0.00640658 0.05733079
v -0.03766223 -0.00912071 0.05786113
v -0.03583589 -0.01075686 0.05781160
v -0.02921150 -0.02034005 0.05777232
v -0.02741271 -0.02043076 0.05563730
v -0.02549191 -0.02504618 0.05579871
v -0.02755441 -0.02413914 0.05763055
v -0.02640902 -0.03147567 0.05660147
v -0.06331356 -0.01962140 0.05271490
v -0.03817785 -0.03315369 0.05797386
v -0.04220838 -0.03355837 0.05800717
v -0.04884459 -0.03734699 0.05672957
v -0.05195408 -0.04064023 0.05481233
v -0.05645694 -0.03387932 0.05500448
v -0.05549653 -0.03249085 0.05668090
v -0.05977504 -0.02319373 0.05530168
v -0.05777945 -0.01619908 0.05536146
v -0.05309947 -0.01354774 0.05671676
v -0.05073390 -0.01077082 0.05669541
v -0.05166281 -0.01983769 0.05780989
v -0.04267677 -0.01968768 0.05863400
v -0.03622162 -0.01782826 0.05897988
v -0.03517070 -0.01489086 0.05863486
v -0.03005775 -0.02306814 0.05870404
v -0.02971925 -0.03001395 0.05776975
v -0.03239971 -0.03122100 0.05793372
v -0.03429295 -0.02668233 0.05865279
v -0.03673725 -0.02674861 0.05865279
v -0.04582956 -0.03244899 0.05804901
v -0.04982467 -0.03365605 0.05758870
v -0.05086772 -0.03562711 0.05694222
v -0.05625620 -0.02586600 0.05674068
v -0.05292235 -0.02998604 0.05748366
v -0.05543356 -0.01758755 0.05661514
v -0.05224928 -0.02256927 0.05783466
v -0.05000573 -0.02643813 0.05818651
v -0.04138181 -0.02300883 0.05868269
v -0.03420636 -0.02012027 0.05900123
v -0.03233673 -0.02270881 0.05893205
v -0.03184472 -0.02559040 0.05866304
v -0.03900442 -0.02641022 0.05864169
v -0.04116926 -0.02529736 0.05863828
v -0.04943106 -0.02931274 0.05807890
v -0.04826992 -0.03160126 0.05799265
f 1 2 3
f 1 3 4
f 1 4 5
f 1 5 6
f 1 6 7
f 1 7 8
f 1 8 9
f 1 9 2
f 2 10 3
f 2 9 11
f 2 11 12
f 2 12 13
f 2 13 10
f 3 10 14
f 3 14 15
f 3 15 4
f 4 15 16
f 4 16 17
f 4 17 5
f 5 18 19
f 5 19 20
f 5 20 21
f 5 21 6
f 5 17 18
f 6 21 22
f 6 22 23
f 6 23 24
f 6 24 25
f 6 25 7
f 7 25 8
f 8 25 26
f 8 26 9
f 9 26 27
f 9 27 28
f 9 28 11
f 10 13 29
f 10 29 14
f 11 28 30
f 11 30 31
f 11 31 32
f 11 32 33
f 11 33 12
f 12 34 13
f 12 33 34
f 13 34 35
f 13 35 36
f 13 36 29
f 14 29 37
f 14 37 15
f 15 37 38
f 15 38 16
f 16 38 17
f 17 38 39
f 17 39 18
f 18 39 19
f 19 39 38
f 19 38 40
f 19 40 20
f 20 41 42
f 20 42 43
f 20 43 22
f 20 22 21
f 20 40 41
f 22 43 23
f 23 43 24
f 24 43 44
f 24 44 27
f 24 27 26
f 24 26 25
f 27 44 28
f 28 44 45
f 28 45 46
f 28 46 30
f 29 36 37
f 30 46 47
f 30 47 31
f 31 47 48
f 31 48 49
f 31 49 50
f 31 50 32
f 32 50 51
f 32 51 33
f 33 51 35
f 33 35 34
f 35 52 36
f 35 51 50
f 35 50 53
f 35 53 52
f 36 52 54
f 36 54 37
f 37 54 38
f 38 54 40
f 40 54 55
f 40 55 56
f 40 56 41
f 41 57 42
f 41 56 57
f 42 57 58
f 42 58 43
f 43 58 44
f 44 58 59
f 44 59 60
f 44 60 45
f 45 60 46
f 46 60 47
f 47 60 59
f 47 59 48
f 48 61 49
f 48 59 61
f 49 61 62
f 49 62 63
f 49 63 64
f 49 64 50
f 50 64 63
f 50 63 53
f 52 53 55
f 52 55 54
f 53 63 56
f 53 56 55
f 56 63 62
f 56 62 57
f 57 62 58
f 58 62 61
f 58 61 59

