# https://github.com/mikedh/trimesh
v 0.02684672 0.00402326 -0.00652604
v 0.02677093 0.00521470 -0.00753632
v 0.02670989 0.00485950 -0.00665208
v 0.02607177 0.00402326 -0.00652604
v 0.02680362 0.00287358 -0.00660287
v 0.02761471 0.00113647 -0.00911953
v 0.02774112 0.00126974 -0.00977129
v 0.02675502 0.00525474 -0.00861489
v 0.02644579 0.00577525 -0.00809469
v 0.02776658 0.00128404 -0.01060080
v 0.02621062 0.00485950 -0.00665208
v 0.02549701 0.00402326 -0.00716173
v 0.02555631 0.00287358 -0.00718885
v 0.02613107 0.00287358 -0.00660287
v 0.02665204 0.00216089 -0.00675451
v 0.02700928 0.00086821 -0.00869071
v 0.02708391 0.00026934 -0.00975522
v 0.02774112 0.00085906 -0.00977129
v 0.02681374 0.00497047 -0.00977129
v 0.02594421 0.00540632 -0.00861489
v 0.02517737 0.00476455 -0.00787676
v 0.02591152 0.00519468 -0.00753582
v 0.02669456 0.00476570 -0.01053301
v 0.02626703 0.00476570 -0.01053301
v 0.02678510 0.00172447 -0.01165576
v 0.02672088 0.00287358 -0.01163869
v 0.02679956 0.00397007 -0.01091814
v 0.02776658 0.00081559 -0.01060080
v 0.02506629 0.00402326 -0.00773617
v 0.02506716 0.00287358 -0.00776378
v 0.02517853 0.00218034 -0.00791342
v 0.02628901 0.00216089 -0.00675451
v 0.02647327 0.00104781 -0.00792798
v 0.02674605 -0.00006812 -0.01012679
v 0.02587652 0.00494702 -0.00971354
v 0.02523233 0.00468276 -0.00929175
v 0.02516175 0.00478572 -0.00862192
v 0.02490372 0.00402326 -0.00862192
v 0.02647241 0.00355138 -0.01155885
v 0.02593495 0.00389400 -0.01083077
v 0.02550077 0.00423661 -0.01005800
v 0.02666159 0.00098833 -0.01158095
v 0.02625025 0.00172447 -0.01165576
v 0.02627657 0.00287358 -0.01163869
v 0.02674605 -0.00006812 -0.01049083
v 0.02708709 0.00051873 -0.01092869
v 0.02481145 0.00287358 -0.00862192
v 0.02506947 0.00194239 -0.00862192
v 0.02531188 0.00117479 -0.00930481
v 0.02550684 0.00136698 -0.00862192
v 0.02608161 0.00083790 -0.00862192
v 0.02592367 0.00178739 -0.00753732
v 0.02632228 -0.00006812 -0.01012679
v 0.02528092 0.00347016 -0.01036229
v 0.02515481 0.00392145 -0.00971354
v 0.02498703 0.00287358 -0.00977129
v 0.02633269 0.00098833 -0.01158095
v 0.02567548 0.00172447 -0.01102509
v 0.02570181 0.00287358 -0.01099748
v 0.02632228 -0.00006812 -0.01049083
v 0.02525923 0.00108156 -0.01023475
v 0.02524274 0.00287358 -0.01042304
v 0.02522654 0.00172447 -0.01045066
v 0.02594508 0.00065200 -0.01082776
f 1 2 3
f 1 3 11
f 1 11 4
f 1 4 14
f 1 14 5
f 1 5 6
f 1 6 7
f 1 7 2
f 2 8 9
f 2 9 3
f 2 7 10
f 2 10 8
f 3 9 11
f 4 12 13
f 4 13 14
f 4 11 12
f 5 14 32
f 5 32 15
f 5 15 6
f 6 16 17
f 6 17 18
f 6 18 7
f 6 15 16
f 7 18 28
f 7 28 10
f 8 10 19
f 8 19 9
f 9 20 21
f 9 21 22
f 9 22 11
f 9 19 23
f 9 23 24
f 9 24 20
f 10 25 26
f 10 26 27
f 10 27 23
f 10 23 19
f 10 28 25
f 11 22 21
f 11 21 12
f 12 21 29
f 12 29 30
f 12 30 13
f 13 30 31
f 13 31 32
f 13 32 14
f 15 32 33
f 15 33 16
f 16 33 17
f 17 34 18
f 17 33 34
f 18 34 28
f 20 24 35
f 20 35 36
f 20 36 37
f 20 37 21
f 21 37 38
f 21 38 29
f 23 27 39
f 23 39 24
f 24 39 40
f 24 40 41
f 24 41 36
f 24 36 35
f 25 28 42
f 25 42 57
f 25 57 43
f 25 43 44
f 25 44 26
f 26 39 27
f 26 44 39
f 28 34 45
f 28 45 46
f 28 46 42
f 29 38 47
f 29 47 30
f 30 47 31
f 31 48 49
f 31 49 50
f 31 50 51
f 31 51 52
f 31 52 32
f 31 47 48
f 32 52 33
f 33 51 53
f 33 53 34
f 33 52 51
f 34 53 60
f 34 60 45
f 36 41 54
f 36 54 55
f 36 55 38
f 36 38 37
f 38 55 56
f 38 56 47
f 39 54 40
f 39 44 54
f 40 54 41
f 42 46 45
f 42 45 60
f 42 60 57
f 43 58 44
f 43 57 58
f 44 59 54
f 44 58 59
f 47 56 61
f 47 61 48
f 48 61 49
f 49 61 53
f 49 53 51
f 49 51 50
f 53 61 60
f 54 62 56
f 54 56 55
f 54 59 62
f 56 62 63
f 56 63 61
f 57 61 63
f 57 63 58
f 57 60 64
f 57 64 61
f 58 63 62
f 58 62 59
f 60 61 64

