# https://github.com/mikedh/trimesh
v -0.05514529 -0.03018871 0.02687999
v -0.05672043 -0.02975061 0.02823231
v -0.05653573 -0.02973177 0.02641305
v -0.05544433 -0.02996260 0.02441240
v -0.05365091 -0.03010038 0.02297388
v -0.04955396 -0.03018753 0.02183886
v -0.05484786 -0.03018871 0.03173074
v -0.05581932 -0.03018753 0.03290347
v -0.05667645 -0.02975061 0.02994381
v -0.05692991 -0.02816427 0.03046283
v -0.05696829 -0.02816427 0.02873876
v -0.05678359 -0.02816309 0.02644178
v -0.05624789 -0.02866596 0.02482906
v -0.05442169 -0.02861768 0.02291461
v -0.04883035 -0.02016308 0.01887022
v -0.04882316 -0.02327335 0.02284457
v -0.04931409 -0.02049166 0.03721725
v -0.05171517 -0.03018753 0.03721725
v -0.05641420 -0.02937729 0.03207915
v -0.05392196 -0.02956336 0.03680419
v -0.05536997 -0.02971763 0.03431686
v -0.05680678 -0.02758838 0.03161221
v -0.05699148 -0.02644014 0.02988814
v -0.05690912 -0.02645663 0.02757321
v -0.05643818 -0.02701485 0.02535705
v -0.05552588 -0.02758838 0.02383771
v -0.04913419 -0.01815867 0.01890793
v -0.04882316 -0.01845544 0.02216931
v -0.04882316 -0.02177062 0.02354318
v -0.04927411 -0.01855437 0.03707718
v -0.05079008 -0.01815749 0.03704305
v -0.05417702 -0.02644014 0.03712746
v -0.05634064 -0.02804532 0.03322135
v -0.05509732 -0.02644014 0.03610559
v -0.05526363 -0.02808537 0.03552550
v -0.05629106 -0.02644014 0.03390559
v -0.05671243 -0.02586543 0.03221564
v -0.05681957 -0.02446281 0.03001026
v -0.05671003 -0.02441452 0.02828978
v -0.05636942 -0.02542262 0.02587069
v -0.05622230 -0.02393521 0.02700929
v -0.05541874 -0.02261855 0.02701648
v -0.05512530 -0.02166699 0.02792880
v -0.05412186 -0.01966139 0.02941941
v -0.05239480 -0.01816102 0.02812815
v -0.05187429 -0.01815867 0.02687639
v -0.05142973 -0.01815749 0.03173074
v -0.04882316 -0.02011244 0.02346775
v -0.05213734 -0.01815749 0.03435457
v -0.05509892 -0.02194610 0.03360388
v -0.05558025 -0.02314498 0.03409057
v -0.05519327 -0.02374560 0.03529922
v -0.05440810 -0.02454996 0.03662460
v -0.05577615 -0.02644014 0.03506036
v -0.05635823 -0.02463004 0.03313694
v -0.05647736 -0.02397760 0.03202527
v -0.05634943 -0.02302839 0.03005516
v -0.05519966 -0.02120416 0.02931165
v -0.05525003 -0.02112643 0.03103573
v -0.05407548 -0.01949534 0.03078789
v -0.05292411 -0.01816102 0.03005695
v -0.05293450 -0.01815984 0.03155115
v -0.05554107 -0.02231353 0.03285139
v -0.05596244 -0.02250550 0.03162478
f 1 2 3
f 1 3 4
f 1 4 5
f 1 5 6
f 1 6 7
f 1 7 8
f 1 8 2
f 2 8 9
f 2 9 10
f 2 10 11
f 2 11 12
f 2 12 3
f 3 12 13
f 3 13 4
f 4 13 14
f 4 14 5
f 5 14 15
f 5 15 6
f 6 15 16
f 6 16 17
f 6 17 18
f 6 18 7
f 7 18 8
f 8 19 9
f 8 18 20
f 8 20 21
f 8 21 19
f 9 19 10
f 10 19 22
f 10 22 23
f 10 23 11
f 11 23 24
f 11 24 12
f 12 25 13
f 12 24 25
f 13 26 14
f 13 25 26
f 14 27 15
f 14 26 27
f 15 27 28
f 15 28 16
f 16 28 48
f 16 48 29
f 16 29 30
f 16 30 17
f 17 30 31
f 17 31 32
f 17 32 18
f 18 32 20
f 19 21 33
f 19 33 22
f 20 34 35
f 20 35 21
f 20 32 34
f 21 35 33
f 22 33 36
f 22 36 37
f 22 37 23
f 23 38 24
f 23 37 38
f 24 38 39
f 24 39 40
f 24 40 25
f 25 40 26
f 26 40 27
f 27 40 41
f 27 41 42
f 27 42 43
f 27 43 44
f 27 44 45
f 27 45 46
f 27 46 47
f 27 47 31
f 27 31 30
f 27 30 28
f 28 30 48
f 29 48 30
f 31 49 50
f 31 50 51
f 31 51 52
f 31 52 53
f 31 53 32
f 31 47 49
f 32 53 34
f 33 35 54
f 33 54 36
f 34 53 52
f 34 52 54
f 34 54 35
f 36 54 55
f 36 55 37
f 37 55 56
f 37 56 38
f 38 57 39
f 38 56 57
f 39 57 41
f 39 41 40
f 41 57 58
f 41 58 43
f 41 43 42
f 43 58 44
f 44 58 59
f 44 59 60
f 44 60 61
f 44 61 45
f 45 61 46
f 46 61 62
f 46 62 49
f 46 49 47
f 49 62 59
f 49 59 50
f 50 59 63
f 50 63 51
f 51 63 64
f 51 64 56
f 51 56 55
f 51 55 52
f 52 55 54
f 56 64 57
f 57 64 59
f 57 59 58
f 59 64 63
f 59 62 60
f 60 62 61

