# https://github.com/mikedh/trimesh
v -0.04203242 -0.00615583 0.05601489
v -0.03685273 -0.00932921 0.04811740
v -0.02031274 -0.03148200 0.03615108
v -0.02204254 -0.03148200 0.04053826
v -0.02660027 -0.02665266 0.04798894
v -0.02660999 -0.02665604 0.04885185
v -0.04199031 -0.00615583 0.05726318
v -0.04199031 -0.00517577 0.05700068
v -0.04203242 -0.00192467 0.05485875
v -0.04203242 0.00124871 0.04853908
v -0.02168621 -0.01694328 0.02878418
v -0.02085046 -0.01790307 0.02878418
v -0.01965515 -0.01876147 0.02878418
v -0.01776015 -0.01974829 0.02878418
v -0.01006999 -0.02348605 0.02878418
v -0.01898461 -0.03148200 0.03615108
v -0.03403128 -0.00134001 0.03694697
v -0.02225957 -0.03148200 0.04208816
v -0.02235675 -0.03148200 0.04339789
v -0.02289448 -0.03089059 0.04426081
v -0.02233732 -0.03148200 0.04540857
v -0.02219155 -0.03148200 0.05044364
v -0.04080471 -0.00615583 0.05731345
v -0.02744573 -0.02357729 0.05551222
v -0.04199031 -0.00417881 0.05661809
v -0.04175060 -0.00245187 0.05528881
v -0.04153356 -0.00119807 0.05397628
v -0.04203242 -0.00042078 0.05333398
v -0.04197735 0.00304324 0.04865078
v -0.02676871 -0.00134001 0.03518484
v -0.01996613 -0.01694328 0.02878418
v -0.01060124 -0.02048503 0.02880932
v -0.00923748 -0.02222548 0.02898525
v -0.00893946 -0.02348605 0.02910813
v -0.01115192 -0.02630795 0.03322443
v -0.02040344 -0.03148200 0.04901103
v -0.02087962 -0.03148200 0.05044364
v -0.03965475 -0.00615583 0.05712635
v -0.04080471 -0.00517577 0.05690573
v -0.02744573 -0.02034647 0.05551222
v -0.04049050 -0.00446269 0.05642819
v -0.04080471 -0.00254650 0.05494532
v -0.04178947 0.00009967 0.05263304
v -0.04080471 -0.00199226 0.05437283
v -0.04010826 -0.00222207 0.05412708
v -0.04116428 0.00252955 0.04858376
v -0.02676871 -0.00134001 0.03741892
v -0.04111893 0.00017064 0.05201308
v -0.01016717 -0.02161717 0.03016653
v -0.00991774 -0.02236066 0.03051560
v -0.00922452 -0.02303319 0.02987051
v -0.00948367 -0.02348605 0.03061614
v -0.01054617 -0.02474323 0.03314065
v -0.03851775 -0.00578071 0.05646170
v -0.03973574 -0.00518591 0.05660413
v -0.01000196 -0.02348605 0.03166895
v -0.01044899 -0.02310078 0.03208225
v -0.03730948 -0.00624032 0.05583337
v -0.03893562 -0.00220855 0.05301283
v -0.03934054 -0.00251946 0.05378359
v -0.04035445 -0.00010648 0.05157464
v -0.03782129 -0.00329676 0.05300166
v -0.01017689 -0.02271213 0.03131429
f 1 2 3
f 1 3 4
f 1 4 5
f 1 5 6
f 1 6 7
f 1 7 8
f 1 8 9
f 1 9 28
f 1 28 10
f 1 10 2
f 2 10 3
f 3 11 12
f 3 12 13
f 3 13 14
f 3 14 15
f 3 15 16
f 3 16 36
f 3 36 37
f 3 37 22
f 3 22 21
f 3 21 19
f 3 19 18
f 3 18 4
f 3 10 17
f 3 17 11
f 4 18 5
f 5 18 19
f 5 19 20
f 5 20 6
f 6 20 21
f 6 21 22
f 6 22 7
f 7 23 8
f 7 22 24
f 7 24 23
f 8 25 9
f 8 23 25
f 9 26 27
f 9 27 28
f 9 25 26
f 10 28 29
f 10 29 17
f 11 17 30
f 11 30 31
f 11 31 15
f 11 15 14
f 11 14 13
f 11 13 12
f 15 32 33
f 15 33 34
f 15 34 16
f 15 31 32
f 16 34 35
f 16 35 36
f 17 29 30
f 19 21 20
f 22 37 24
f 23 38 39
f 23 39 25
f 23 24 40
f 23 40 38
f 24 37 40
f 25 39 41
f 25 41 26
f 26 41 42
f 26 42 27
f 27 43 28
f 27 42 44
f 27 44 45
f 27 45 43
f 28 43 29
f 29 46 47
f 29 47 30
f 29 43 48
f 29 48 46
f 30 47 32
f 30 32 31
f 32 47 33
f 33 47 49
f 33 49 50
f 33 50 51
f 33 51 34
f 34 51 52
f 34 52 53
f 34 53 35
f 35 53 37
f 35 37 36
f 37 53 40
f 38 54 55
f 38 55 41
f 38 41 39
f 38 40 54
f 40 53 56
f 40 56 57
f 40 57 47
f 40 47 58
f 40 58 54
f 41 55 54
f 41 54 42
f 42 54 45
f 42 45 44
f 43 45 48
f 45 59 48
f 45 54 60
f 45 60 59
f 46 48 61
f 46 61 47
f 47 61 59
f 47 59 62
f 47 62 58
f 47 57 63
f 47 63 50
f 47 50 49
f 48 59 61
f 50 63 51
f 51 63 56
f 51 56 52
f 52 56 53
f 54 58 60
f 56 63 57
f 58 62 59
f 58 59 60

