# https://github.com/mikedh/trimesh
v 0.01206791 -0.00085960 -0.01721850
v 0.01486536 -0.00109481 -0.01605408
v 0.01469388 -0.00104194 -0.01697645
v 0.01321709 -0.00093618 -0.01740185
v 0.00918088 -0.00104376 -0.01833548
v 0.01091617 -0.00089789 -0.01732626
v 0.01002293 -0.00102553 -0.01715497
v 0.01435603 -0.00166918 -0.01585786
v 0.01498821 -0.00343056 -0.01493951
v 0.01582002 -0.00350532 -0.01497248
v 0.01781381 -0.00444436 -0.01480441
v 0.01878639 -0.00463946 -0.01517915
v 0.01874032 -0.00450453 -0.01624949
v 0.00960063 -0.00172753 -0.01872228
v 0.00925511 -0.00132821 -0.01731741
v -0.00631897 -0.00790148 -0.02144034
v -0.00736066 -0.00837191 -0.02144034
v -0.00468094 -0.01024635 -0.01717105
v -0.00521074 -0.01314187 -0.01580318
v -0.00477820 -0.01474644 -0.01487196
v 0.01075237 -0.01086083 -0.01322504
v 0.01145109 -0.01050527 -0.01322504
v 0.01441490 -0.00859801 -0.01366170
v 0.01539004 -0.00918514 -0.01366170
v 0.01737103 -0.00706273 -0.01494996
v 0.01490631 -0.00916873 -0.01492745
v 0.00546204 -0.00935107 -0.01893216
v -0.00296869 -0.00977774 -0.02144034
v 0.00884048 -0.00515730 -0.01893216
v 0.00936516 -0.00402680 -0.01893216
v 0.00940355 -0.00287625 -0.01888070
v -0.00296869 -0.00852690 -0.02144034
v -0.00413323 -0.00820416 -0.02144034
v -0.00517235 -0.00794524 -0.02144034
v -0.00461440 -0.00918697 -0.01836684
v -0.00502902 -0.00940759 -0.02144034
v -0.00663634 -0.01505824 -0.01620928
v -0.00692300 -0.01406450 -0.01605970
v -0.00631897 -0.01353390 -0.01598009
v -0.00268204 -0.01901315 -0.01322585
v -0.00161732 -0.01800664 -0.01322585
v 0.00617868 -0.01411373 -0.01322504
v 0.01145109 -0.01243440 -0.01322504
v 0.01477578 -0.01027552 -0.01366572
v 0.00932677 -0.01388399 -0.01351132
v 0.00318416 -0.01737211 -0.01400829
v 0.00218343 -0.01719889 -0.01492423
v 0.00388544 -0.01035940 -0.01893136
v -0.00401805 -0.00965375 -0.02144034
v 0.00141816 -0.01732105 -0.01497972
v -0.00171969 -0.01816163 -0.01483014
v -0.00246192 -0.01860107 -0.01413616
v -0.00171969 -0.01948723 -0.01322585
v 0.00497575 -0.01586600 -0.01322504
v 0.00497575 -0.01508559 -0.01322504
v 0.01003317 -0.01353754 -0.01322504
v 0.00860501 -0.01449664 -0.01322504
v 0.00218854 -0.01822910 -0.01324997
v 0.00126459 -0.01843331 -0.01390214
v -0.00171969 -0.01871412 -0.01425597
v -0.00055516 -0.01917725 -0.01322585
v 0.00626826 -0.01563261 -0.01322504
v 0.00763755 -0.01501813 -0.01322504
v 0.00057867 -0.01886546 -0.01322585
f 1 2 3
f 1 3 4
f 1 4 5
f 1 5 6
f 1 6 2
f 2 6 7
f 2 7 8
f 2 8 9
f 2 9 10
f 2 10 11
f 2 11 12
f 2 12 13
f 2 13 3
f 3 13 14
f 3 14 4
f 4 14 5
f 5 15 7
f 5 7 6
f 5 14 16
f 5 16 17
f 5 17 15
f 7 9 8
f 7 15 18
f 7 18 19
f 7 19 20
f 7 20 9
f 9 11 10
f 9 20 21
f 9 21 22
f 9 22 23
f 9 23 11
f 11 23 24
f 11 24 12
f 12 24 25
f 12 25 13
f 13 25 26
f 13 26 27
f 13 27 28
f 13 28 29
f 13 29 30
f 13 30 31
f 13 31 14
f 14 31 32
f 14 32 33
f 14 33 34
f 14 34 16
f 15 17 35
f 15 35 18
f 16 34 33
f 16 33 32
f 16 32 28
f 16 28 49
f 16 49 36
f 16 36 17
f 17 36 37
f 17 37 38
f 17 38 18
f 17 18 35
f 18 38 39
f 18 39 19
f 19 39 20
f 20 39 38
f 20 38 40
f 20 40 41
f 20 41 21
f 21 42 55
f 21 55 54
f 21 54 62
f 21 62 63
f 21 63 57
f 21 57 56
f 21 56 43
f 21 43 22
f 21 41 42
f 22 24 23
f 22 43 24
f 24 43 44
f 24 44 25
f 25 44 26
f 26 44 45
f 26 45 46
f 26 46 47
f 26 47 48
f 26 48 27
f 27 48 28
f 28 32 30
f 28 30 29
f 28 48 47
f 28 47 50
f 28 50 51
f 28 51 49
f 30 32 31
f 36 49 51
f 36 51 37
f 37 40 38
f 37 51 52
f 37 52 40
f 40 53 54
f 40 54 55
f 40 55 41
f 40 52 53
f 41 55 42
f 43 56 44
f 44 56 57
f 44 57 45
f 45 57 46
f 46 58 59
f 46 59 47
f 46 57 58
f 47 59 50
f 50 59 51
f 51 59 60
f 51 60 52
f 52 60 53
f 53 60 59
f 53 59 61
f 53 61 62
f 53 62 54
f 57 63 64
f 57 64 58
f 58 64 59
f 59 64 61
f 61 64 62
f 62 64 63

