# https://github.com/mikedh/trimesh
v 0.05277005 -0.01073248 0.02994699
v 0.05511910 -0.00940006 0.03335791
v 0.05302881 -0.00983927 0.03543725
v 0.05260538 -0.00927548 0.03821258
v 0.05201392 -0.01035872 0.02307913
v 0.05267259 -0.01065012 0.02638652
v 0.05625161 -0.00923536 0.02899216
v 0.05779243 -0.00794940 0.03268493
v 0.05714552 -0.00747429 0.03666817
v 0.05553413 -0.00782904 0.03862096
v 0.05490906 -0.00707520 0.04144806
v 0.05232310 -0.00749963 0.04154010
v 0.05232141 -0.00813100 0.01401402
v 0.05230629 -0.00934305 0.01825035
v 0.05354802 -0.00934516 0.02075533
v 0.05625161 -0.00871591 0.02457752
v 0.05861241 -0.00756720 0.02644116
v 0.05887622 -0.00752919 0.02931139
v 0.05972812 -0.00627702 0.03370878
v 0.06015828 -0.00509453 0.03671994
v 0.05770170 -0.00583781 0.04046448
v 0.05973484 -0.00383391 0.04122086
v 0.06133952 -0.00107829 0.04145094
v 0.06618547 0.00529027 0.04157461
v 0.06754650 0.01051223 0.04145957
v 0.06761035 0.01077195 0.02326319
v 0.05374630 -0.00627702 0.01219352
v 0.05618944 -0.00614610 0.01462660
v 0.05427559 -0.00817745 0.01740768
v 0.05693380 -0.00753553 0.02067193
v 0.05863426 -0.00689783 0.02297560
v 0.06094297 -0.00576602 0.02801720
v 0.06052962 -0.00575546 0.02529364
v 0.06109924 -0.00553374 0.03047905
v 0.06211413 -0.00381913 0.03458020
v 0.06269719 -0.00249939 0.03692989
v 0.06144370 -0.00298717 0.03928244
v 0.06391708 0.00107553 0.04119210
v 0.06556208 0.00252619 0.03951828
v 0.06809260 0.00768692 0.03988640
v 0.06910749 0.01083952 0.02531377
v 0.06916126 0.00916292 0.03782144
v 0.06822366 0.01040031 0.01739043
v 0.06556880 0.00448575 0.01292402
v 0.06085392 -0.00164419 0.01336117
v 0.05848975 -0.00408519 0.01405428
v 0.05959202 -0.00527191 0.02020027
v 0.06258293 -0.00384025 0.02667124
v 0.06398429 -0.00229456 0.02860103
v 0.06301477 -0.00340948 0.03132459
v 0.06096481 -0.00349184 0.01882554
v 0.06209901 -0.00347494 0.02290082
v 0.06478411 -0.00038569 0.03533371
v 0.06398597 -0.00034979 0.03836501
v 0.06685423 0.00205742 0.03351609
v 0.06917974 0.00739130 0.03507488
v 0.06915790 0.00652343 0.02615931
v 0.06905204 0.00932129 0.02013124
v 0.06734487 0.00436539 0.02072370
v 0.06389356 0.00145562 0.01359988
v 0.06429347 -0.00161041 0.02644116
v 0.06757003 0.00268879 0.03063147
v 0.06900499 0.00566613 0.02965364
f 1 2 3
f 1 3 4
f 1 4 5
f 1 5 6
f 1 6 7
f 1 7 2
f 2 8 9
f 2 9 10
f 2 10 3
f 2 7 8
f 3 10 4
f 4 10 11
f 4 11 12
f 4 12 5
f 5 13 14
f 5 14 15
f 5 15 6
f 5 12 13
f 6 15 16
f 6 16 7
f 7 16 17
f 7 17 18
f 7 18 8
f 8 18 19
f 8 19 9
f 9 19 20
f 9 20 21
f 9 21 10
f 10 21 11
f 11 21 22
f 11 22 23
f 11 23 24
f 11 24 12
f 12 24 25
f 12 25 26
f 12 26 27
f 12 27 13
f 13 27 28
f 13 28 29
f 13 29 14
f 14 29 15
f 15 29 30
f 15 30 16
f 16 31 17
f 16 30 31
f 17 32 18
f 17 31 33
f 17 33 32
f 18 34 19
f 18 32 34
f 19 35 20
f 19 34 35
f 20 35 36
f 20 36 37
f 20 37 22
f 20 22 21
f 22 37 38
f 22 38 23
f 23 38 24
f 24 38 39
f 24 39 40
f 24 40 25
f 25 41 26
f 25 40 42
f 25 42 41
f 26 41 43
f 26 43 27
f 27 44 45
f 27 45 46
f 27 46 28
f 27 43 44
f 28 46 47
f 28 47 30
f 28 30 29
f 30 47 31
f 31 47 33
f 32 33 48
f 32 48 49
f 32 49 50
f 32 50 34
f 33 47 51
f 33 51 52
f 33 52 48
f 34 50 35
f 35 53 36
f 35 50 53
f 36 54 37
f 36 53 54
f 37 54 38
f 38 54 39
f 39 54 53
f 39 53 55
f 39 55 56
f 39 56 40
f 40 56 42
f 41 57 58
f 41 58 43
f 41 42 56
f 41 56 57
f 43 58 44
f 44 58 59
f 44 59 60
f 44 60 45
f 45 60 51
f 45 51 47
f 45 47 46
f 48 61 49
f 48 52 61
f 49 61 62
f 49 62 50
f 50 62 55
f 50 55 53
f 51 60 52
f 52 60 61
f 55 62 56
f 56 62 63
f 56 63 57
f 57 59 58
f 57 63 62
f 57 62 59
f 59 62 61
f 59 61 60

