# https://github.com/mikedh/trimesh
v 0.03278111 0.01305202 0.04617408
v 0.02737084 0.01305202 0.03665120
v 0.03117234 0.01305202 0.04617408
v 0.03690537 0.00933486 0.04617408
v 0.03688151 0.00930217 0.04586779
v 0.02737084 0.01305202 0.04028542
v 0.02737084 0.01293923 0.03648775
v 0.02526852 0.00240891 0.03113068
v 0.02510777 0.00172563 0.03113068
v 0.03170232 0.01205980 0.04617408
v 0.02972433 0.01305202 0.04396234
v 0.02639252 -0.00120364 0.03349262
v 0.02752029 -0.00120364 0.03465739
v 0.03708119 0.00900139 0.04617408
v 0.03771540 0.00759724 0.04617408
v 0.03771540 0.00731118 0.04557329
v 0.03771666 -0.00037651 0.03313332
v 0.02745247 0.01305202 0.04045181
v 0.02506005 0.00145918 0.03113068
v 0.02493320 0.00057648 0.03113068
v 0.02490055 0.00015474 0.03113068
v 0.02488674 -0.00057267 0.03113068
v 0.02502865 -0.00057267 0.03150912
v 0.02507386 -0.00120364 0.03142666
v 0.02737084 0.01206797 0.03594439
v 0.02551216 0.00314122 0.03113068
v 0.03189572 0.01173941 0.04617408
v 0.03100029 -0.00364579 0.03317603
v 0.03100029 -0.00353627 0.03351176
v 0.03100029 -0.00294126 0.03448069
v 0.03100029 -0.00263395 0.03487975
v 0.03100029 -0.00241491 0.03514628
v 0.02954851 -0.00120364 0.03578536
v 0.03771540 0.00446528 0.04617408
v 0.03407842 0.00875783 0.04617408
v 0.03374436 0.00916486 0.04617408
v 0.03330104 0.00972717 0.04617408
v 0.03273339 0.01048401 0.04617408
v 0.03211550 0.01139777 0.04617408
v 0.03771666 0.00313959 0.04430396
v 0.03771666 0.00313959 0.04222916
v 0.03771666 -0.00143412 0.03427159
v 0.03771289 -0.00161393 0.03313332
v 0.02682705 0.00314122 0.03113068
v 0.02737084 0.00865485 0.03395500
v 0.02737084 0.00933322 0.03431577
v 0.02496962 -0.00120364 0.03113068
v 0.02635484 -0.00120364 0.03113068
v 0.03149761 -0.00358694 0.03313332
v 0.03131049 -0.00352155 0.03348084
v 0.03771666 -0.00048277 0.04008663
v 0.03771666 -0.00026372 0.04066533
v 0.03771666 0.00020705 0.04150173
v 0.03771666 0.00072360 0.04224242
v 0.03771666 0.00096552 0.04252219
v 0.03771666 0.00119927 0.04276811
v 0.03771666 0.00179101 0.04334829
v 0.03771666 0.00206890 0.04359715
v 0.03771666 0.00253314 0.04392552
v 0.03771666 0.00287641 0.04414787
v 0.03771666 0.00164063 0.04320545
v 0.03771666 -0.00074267 0.03884528
v 0.03196354 -0.00345127 0.03313332
v 0.03771666 -0.00060209 0.03966990
f 1 2 6
f 1 6 18
f 1 18 11
f 1 11 3
f 1 3 10
f 1 10 27
f 1 27 39
f 1 39 38
f 1 38 37
f 1 37 36
f 1 36 35
f 1 35 34
f 1 34 15
f 1 15 14
f 1 14 4
f 1 4 5
f 1 5 2
f 2 5 7
f 2 7 8
f 2 8 9
f 2 9 6
f 3 11 12
f 3 12 13
f 3 13 10
f 4 14 5
f 5 14 15
f 5 15 16
f 5 16 17
f 5 17 7
f 6 9 19
f 6 19 20
f 6 20 21
f 6 21 22
f 6 22 23
f 6 23 24
f 6 24 18
f 7 25 26
f 7 26 8
f 7 17 25
f 8 26 44
f 8 44 48
f 8 48 47
f 8 47 22
f 8 22 21
f 8 21 20
f 8 20 19
f 8 19 9
f 10 13 27
f 11 18 12
f 12 24 28
f 12 28 29
f 12 29 13
f 12 18 24
f 13 29 30
f 13 30 31
f 13 31 32
f 13 32 33
f 13 33 34
f 13 34 35
f 13 35 36
f 13 36 37
f 13 37 38
f 13 38 39
f 13 39 27
f 15 34 40
f 15 40 41
f 15 41 17
f 15 17 16
f 17 42 43
f 17 43 44
f 17 44 45
f 17 45 46
f 17 46 25
f 17 41 40
f 17 40 60
f 17 60 59
f 17 59 58
f 17 58 57
f 17 57 61
f 17 61 56
f 17 56 55
f 17 55 54
f 17 54 53
f 17 53 52
f 17 52 51
f 17 51 64
f 17 64 62
f 17 62 42
f 22 47 24
f 22 24 23
f 24 47 28
f 25 46 26
f 26 46 45
f 26 45 44
f 28 48 49
f 28 49 50
f 28 50 29
f 28 47 48
f 29 50 51
f 29 51 52
f 29 52 53
f 29 53 30
f 30 53 54
f 30 54 31
f 31 54 32
f 32 54 55
f 32 55 33
f 33 55 56
f 33 56 34
f 34 57 58
f 34 58 59
f 34 59 60
f 34 60 40
f 34 56 61
f 34 61 57
f 42 62 43
f 43 48 44
f 43 62 63
f 43 63 48
f 48 63 49
f 49 63 64
f 49 64 50
f 50 64 51
f 62 64 63

