# https://github.com/mikedh/trimesh
v 0.00172032 0.02342328 -0.01428423
v 0.00136961 0.02228313 -0.00710883
v 0.00365292 0.02228313 -0.00503530
v 0.00426851 0.02228313 -0.00501922
v 0.00286570 0.02335131 -0.01428423
v -0.00298060 0.01366119 -0.02144034
v -0.00518182 0.01320243 -0.02144034
v -0.00624885 0.01291683 -0.02144034
v -0.00697264 0.01267396 -0.02144034
v -0.00854707 0.01181266 -0.02144034
v -0.00479754 0.01981169 -0.01411867
v -0.00475650 0.02081241 -0.01269773
v -0.00177552 0.02228313 -0.01057758
v -0.00148078 0.02228313 -0.00999410
v -0.02864907 0.00591628 -0.00512210
v -0.02914528 0.00556771 -0.00512210
v -0.02958926 0.00518541 -0.00512210
v 0.00357457 0.02100131 -0.00501922
v 0.00424240 0.02029968 -0.00501922
v 0.00580937 0.01551646 -0.01724505
v 0.00580937 0.01666560 -0.01724183
v 0.00580190 0.01781474 -0.01723540
v 0.00577952 0.01845790 -0.01723379
v 0.00426851 0.02228088 -0.00643051
v 0.00363053 0.02241131 -0.01428423
v 0.00516019 0.01851862 -0.01734631
v -0.00298060 0.01244008 -0.02144034
v 0.00368276 0.01294831 -0.01892798
v -0.00913655 0.01144161 -0.02144034
v -0.01854584 0.01284936 -0.01174294
v -0.01786682 0.01360721 -0.01084763
v -0.01751612 0.01380961 -0.01036380
v -0.03010412 0.00596125 -0.01000214
v -0.01976584 0.00518541 -0.00512210
v -0.03229415 0.00213153 -0.00617011
v -0.03160766 0.00161655 -0.00624727
v -0.00298433 0.00991017 -0.00728886
v 0.00426851 0.01953508 -0.00546929
v 0.00577952 0.01483057 -0.01724344
v 0.00368276 0.01234113 -0.01892798
v -0.01249808 0.00044942 -0.02144034
v -0.00971857 0.01097386 -0.02144034
v -0.02771262 0.00585781 -0.01273149
v -0.03010412 0.00571613 -0.01055829
v -0.03229788 0.00228894 -0.00829026
v -0.03230534 0.00245985 -0.00747371
v -0.01436725 0.00082947 -0.01695089
v -0.01365838 0.00095090 -0.01707788
v -0.03230534 0.00196736 -0.00747371
v -0.03160394 0.00176272 -0.00747371
v -0.01383374 0.00057085 -0.02139533
v -0.01326664 0.00044942 -0.02018818
v -0.01666548 0.00077999 -0.01666799
v 0.00356337 0.01243783 -0.01812590
v 0.00426851 0.01666785 -0.00722939
v -0.01259135 0.00044942 -0.02047590
v -0.01386358 0.00156933 -0.02144034
v -0.01042744 0.01035768 -0.02144034
v -0.01099453 0.00966730 -0.02144034
v -0.01143851 0.00912083 -0.02144034
v -0.01173325 0.00854514 -0.02144034
v -0.01279655 0.00612092 -0.02144034
v -0.01313233 0.00517417 -0.02144034
v -0.01346065 0.00394407 -0.02144034
f 1 2 3
f 1 3 4
f 1 4 5
f 1 5 6
f 1 6 7
f 1 7 8
f 1 8 9
f 1 9 10
f 1 10 11
f 1 11 12
f 1 12 13
f 1 13 14
f 1 14 2
f 2 14 15
f 2 15 3
f 3 15 4
f 4 15 16
f 4 16 17
f 4 17 18
f 4 18 19
f 4 19 20
f 4 20 21
f 4 21 22
f 4 22 23
f 4 23 24
f 4 24 5
f 5 24 25
f 5 25 23
f 5 23 26
f 5 26 6
f 6 27 41
f 6 41 57
f 6 57 64
f 6 64 63
f 6 63 62
f 6 62 61
f 6 61 60
f 6 60 59
f 6 59 58
f 6 58 42
f 6 42 29
f 6 29 10
f 6 10 9
f 6 9 8
f 6 8 7
f 6 26 23
f 6 23 28
f 6 28 40
f 6 40 27
f 10 29 11
f 11 29 30
f 11 30 12
f 12 30 31
f 12 31 32
f 12 32 13
f 13 32 14
f 14 32 15
f 15 32 33
f 15 33 16
f 16 33 17
f 17 34 19
f 17 19 18
f 17 33 35
f 17 35 36
f 17 36 34
f 19 34 37
f 19 37 38
f 19 38 39
f 19 39 20
f 20 39 40
f 20 40 28
f 20 28 21
f 21 28 22
f 22 28 23
f 23 25 24
f 27 40 41
f 29 42 43
f 29 43 30
f 30 43 44
f 30 44 33
f 30 33 31
f 31 33 32
f 33 44 45
f 33 45 46
f 33 46 35
f 34 36 47
f 34 47 48
f 34 48 37
f 35 46 49
f 35 49 36
f 36 49 50
f 36 50 51
f 36 51 52
f 36 52 53
f 36 53 47
f 37 40 54
f 37 54 55
f 37 55 38
f 37 48 56
f 37 56 40
f 38 55 39
f 39 55 54
f 39 54 40
f 40 56 41
f 41 56 52
f 41 52 51
f 41 51 57
f 42 58 43
f 43 45 44
f 43 58 59
f 43 59 60
f 43 60 61
f 43 61 62
f 43 62 63
f 43 63 64
f 43 64 57
f 43 57 51
f 43 51 45
f 45 49 46
f 45 51 49
f 47 53 52
f 47 52 56
f 47 56 48
f 49 51 50

