# https://github.com/mikedh/trimesh
v -0.04730615 0.00784608 0.04508103
v -0.05121728 0.00680019 0.04512028
v -0.04912211 0.00713512 0.04559701
v -0.04721465 0.00673443 0.04683906
v -0.04683456 0.00561045 0.04852205
v -0.04503502 0.00518922 0.04860401
v -0.04203422 0.00306866 0.04865480
v -0.04704807 0.00638101 0.04508103
v -0.05542637 0.00310770 0.04507872
v -0.05590735 0.00452552 0.04508449
v -0.05169590 0.00589402 0.04627806
v -0.04950924 0.00571525 0.04767478
v -0.05395061 0.00563100 0.04515837
v -0.04613773 0.00470634 0.04951823
v -0.04935673 0.00471250 0.04900456
v -0.04943416 0.00342209 0.05029277
v -0.04210930 -0.00011629 0.05303312
v -0.04203422 0.00125016 0.04854283
v -0.06597023 -0.01292799 0.04623189
v -0.06404634 -0.00588412 0.04524263
v -0.06320171 -0.00290877 0.04507872
v -0.05972932 0.00108577 0.04541693
v -0.05855152 0.00223646 0.04540655
v -0.05732915 0.00285085 0.04602295
v -0.05510729 0.00330702 0.04743815
v -0.06209899 -0.00149917 0.04524379
v -0.05134866 0.00475155 0.04815960
v -0.05357756 0.00350222 0.04837545
v -0.04442735 -0.00194506 0.05499893
v -0.04260200 -0.00212589 0.05513052
v -0.05158563 0.00309126 0.05007461
v -0.05115862 0.00108166 0.05168488
v -0.04257384 -0.00417658 0.05660228
v -0.04229699 -0.00590467 0.05655610
v -0.06267851 -0.01314580 0.05027662
v -0.06569808 -0.01264443 0.04836853
v -0.06600308 -0.01081976 0.04681943
v -0.06575908 -0.00938551 0.04631846
v -0.06393373 -0.00421768 0.04521839
v -0.06333075 -0.00671837 0.04842163
v -0.06150775 -0.00249986 0.04708262
v -0.06083908 -0.00012040 0.04539385
v -0.06089070 -0.00118478 0.04653432
v -0.05751450 0.00131591 0.04763438
v -0.05511668 0.00168578 0.04931738
v -0.05306374 0.00195496 0.05048324
v -0.04603920 -0.00288000 0.05530367
v -0.05198449 -0.00433891 0.05415859
v -0.04919954 -0.00444165 0.05526096
v -0.04769562 -0.00397932 0.05544103
v -0.04476755 -0.00476631 0.05655149
v -0.04523914 -0.00614919 0.05687008
v -0.06467982 -0.01248621 0.05025237
v -0.06399238 -0.01028141 0.05000881
v -0.06433493 -0.00695262 0.04709531
v -0.06108543 -0.00599919 0.05019235
v -0.05954162 -0.00239301 0.04890529
v -0.05611616 0.00090290 0.04924581
v -0.05760835 -0.00258411 0.05066447
v -0.05669333 -0.00330123 0.05158215
v -0.05344383 -0.00581837 0.05416551
v -0.05028583 -0.00551220 0.05534292
v -0.04686975 -0.00594577 0.05647299
v -0.05561876 -0.00576289 0.05309084
f 1 2 3
f 1 3 4
f 1 4 5
f 1 5 6
f 1 6 7
f 1 7 8
f 1 8 9
f 1 9 10
f 1 10 2
f 2 11 12
f 2 12 3
f 2 10 13
f 2 13 11
f 3 12 4
f 4 12 5
f 5 14 6
f 5 12 15
f 5 15 16
f 5 16 14
f 6 14 17
f 6 17 7
f 7 17 18
f 7 18 8
f 8 18 19
f 8 19 20
f 8 20 21
f 8 21 9
f 9 21 10
f 10 22 23
f 10 23 24
f 10 24 25
f 10 25 13
f 10 21 26
f 10 26 22
f 11 27 12
f 11 13 27
f 12 27 15
f 13 25 28
f 13 28 27
f 14 29 30
f 14 30 17
f 14 16 29
f 15 27 31
f 15 31 16
f 16 31 32
f 16 32 29
f 17 30 33
f 17 33 34
f 17 34 18
f 18 34 19
f 19 35 36
f 19 36 37
f 19 37 38
f 19 38 39
f 19 39 20
f 19 34 35
f 20 39 21
f 21 39 40
f 21 40 41
f 21 41 26
f 22 26 42
f 22 42 43
f 22 43 44
f 22 44 23
f 23 44 24
f 24 44 45
f 24 45 25
f 25 45 28
f 26 41 43
f 26 43 42
f 27 28 31
f 28 45 46
f 28 46 31
f 29 33 30
f 29 32 47
f 29 47 33
f 31 46 32
f 32 46 48
f 32 48 49
f 32 49 50
f 32 50 47
f 33 47 51
f 33 51 52
f 33 52 34
f 34 52 35
f 35 52 53
f 35 53 36
f 36 53 37
f 37 53 38
f 38 53 54
f 38 54 55
f 38 55 39
f 39 55 40
f 40 56 41
f 40 55 54
f 40 54 56
f 41 56 57
f 41 57 43
f 43 57 44
f 44 57 58
f 44 58 45
f 45 58 46
f 46 58 59
f 46 59 60
f 46 60 48
f 47 50 51
f 48 60 61
f 48 61 62
f 48 62 49
f 49 62 63
f 49 63 51
f 49 51 50
f 51 63 52
f 52 63 53
f 53 63 62
f 53 62 61
f 53 61 64
f 53 64 54
f 54 64 56
f 56 64 60
f 56 60 59
f 56 59 57
f 57 59 58
f 60 64 61

