# https://github.com/mikedh/trimesh
v -0.05659708 -0.03025591 0.02836673
v -0.05540569 -0.03018530 0.02870070
v -0.04881896 -0.01875104 0.02260750
v -0.04881896 -0.01815749 0.02172590
v -0.04846175 -0.01815749 0.01900317
v -0.05627291 -0.03026915 0.02596545
v -0.05636995 -0.03073914 0.02697890
v -0.05624193 -0.03141434 0.02843218
v -0.04881896 -0.02011027 0.02346503
v -0.05399543 -0.03502422 0.02843218
v -0.05326449 -0.03595318 0.02843218
v -0.04801782 -0.03796333 0.02870070
v -0.04500320 -0.03593332 0.02870070
v -0.04075383 -0.03533756 0.02869877
v -0.03965329 -0.03622458 0.02869877
v -0.03884389 -0.03703438 0.02869877
v -0.03810262 -0.03785962 0.02869877
v -0.03688232 -0.03629519 0.02335628
v -0.03768966 -0.03414823 0.01892040
v -0.04881896 -0.02020956 0.01886842
v -0.05563488 -0.03024267 0.02483651
v -0.05530451 -0.03122678 0.02510118
v -0.05551719 -0.03161072 0.02587787
v -0.05536026 -0.03245803 0.02664204
v -0.05538711 -0.03310013 0.02839175
v -0.05384883 -0.03484550 0.02686918
v -0.05300226 -0.03578548 0.02668150
v -0.05251289 -0.03642979 0.02701451
v -0.05243650 -0.03679166 0.02843218
v -0.05128847 -0.03731019 0.02843218
v -0.03715281 -0.04069943 0.02365271
v -0.03947365 -0.03959175 0.02800967
v -0.03873858 -0.03959175 0.02869877
v -0.04659930 -0.03788389 0.02870070
v -0.04522001 -0.03743817 0.02870070
v -0.03719204 -0.03931593 0.02869877
v -0.03550510 -0.03911293 0.02292125
v -0.03813566 -0.03531328 0.01895023
v -0.04086533 -0.03316632 0.01886939
v -0.04145587 -0.03018530 0.01886842
v -0.04851543 -0.02115175 0.01886842
v -0.05341315 -0.03032431 0.02293280
v -0.05500512 -0.03048759 0.02419937
v -0.05300226 -0.03462926 0.02511850
v -0.05335947 -0.03494479 0.02600876
v -0.05221350 -0.03611646 0.02597796
v -0.05152179 -0.03702334 0.02684223
v -0.03683483 -0.04052953 0.02285773
v -0.03553401 -0.04027577 0.02405789
v -0.03574875 -0.04013676 0.02311085
v -0.05188313 -0.03460719 0.02405308
v -0.05035517 -0.03357233 0.02283656
v -0.04972541 -0.03246906 0.02200020
v -0.05056992 -0.03155776 0.02199731
v -0.04433007 -0.02936447 0.01886842
v -0.04336581 -0.03018530 0.01886842
v -0.04605832 -0.02712484 0.01886842
v -0.05115632 -0.03266985 0.02276149
v -0.05422462 -0.03129519 0.02399341
v -0.05264917 -0.03410851 0.02435144
v -0.05225479 -0.03499995 0.02475566
v -0.05186042 -0.03574797 0.02515989
v -0.05262646 -0.03539713 0.02558143
v -0.04532531 -0.02827223 0.01886842
f 1 2 3
f 1 3 4
f 1 4 5
f 1 5 6
f 1 6 7
f 1 7 8
f 1 8 2
f 2 9 3
f 2 8 10
f 2 10 11
f 2 11 12
f 2 12 34
f 2 34 35
f 2 35 13
f 2 13 14
f 2 14 9
f 3 9 15
f 3 15 16
f 3 16 17
f 3 17 4
f 4 17 18
f 4 18 19
f 4 19 5
f 5 19 20
f 5 20 21
f 5 21 6
f 6 21 22
f 6 22 23
f 6 23 24
f 6 24 7
f 7 24 25
f 7 25 8
f 8 25 10
f 9 14 15
f 10 26 11
f 10 25 26
f 11 26 27
f 11 27 28
f 11 28 29
f 11 29 12
f 12 29 30
f 12 30 31
f 12 31 32
f 12 32 33
f 12 33 34
f 13 35 36
f 13 36 17
f 13 17 16
f 13 16 15
f 13 15 14
f 17 36 18
f 18 36 37
f 18 37 19
f 19 37 38
f 19 38 39
f 19 39 40
f 19 40 20
f 20 40 56
f 20 56 55
f 20 55 64
f 20 64 57
f 20 57 41
f 20 41 42
f 20 42 43
f 20 43 21
f 21 43 22
f 22 43 44
f 22 44 45
f 22 45 23
f 23 45 24
f 24 45 26
f 24 26 25
f 26 45 27
f 27 46 28
f 27 45 46
f 28 46 47
f 28 47 29
f 29 47 30
f 30 47 31
f 31 48 49
f 31 49 36
f 31 36 33
f 31 33 32
f 31 47 48
f 33 36 34
f 34 36 35
f 36 49 37
f 37 49 50
f 37 50 38
f 38 50 48
f 38 48 51
f 38 51 52
f 38 52 39
f 39 52 53
f 39 53 54
f 39 54 55
f 39 55 56
f 39 56 40
f 41 57 42
f 42 57 54
f 42 54 58
f 42 58 51
f 42 51 59
f 42 59 43
f 43 59 60
f 43 60 44
f 44 61 62
f 44 62 63
f 44 63 45
f 44 60 51
f 44 51 61
f 45 63 46
f 46 63 62
f 46 62 47
f 47 62 48
f 48 50 49
f 48 62 51
f 51 60 59
f 51 58 53
f 51 53 52
f 51 62 61
f 53 58 54
f 54 57 64
f 54 64 55

