# https://github.com/mikedh/trimesh
v -0.00297180 0.01608759 -0.01428348
v -0.00297180 0.01958327 -0.01428348
v -0.00188888 0.01666512 -0.01428348
v 0.02308208 0.02735899 -0.00244916
v 0.02312039 0.02723266 -0.00172678
v 0.02241547 0.02689392 -0.00172678
v 0.01134111 0.02697444 0.00983371
v 0.00956604 0.02697444 0.00983371
v -0.00297180 0.01885998 -0.01057006
v -0.00297180 0.01985676 -0.01414656
v -0.00230264 0.02414097 -0.01264750
v 0.00114533 0.02306923 -0.01428348
v 0.00287698 0.01945416 -0.01428348
v 0.02308208 0.02766997 -0.00244916
v 0.00313749 0.02012053 -0.01428348
v 0.00354870 0.02125892 -0.01428348
v 0.00708861 0.02624143 -0.01274665
v 0.02312039 0.02769773 -0.00172678
v 0.02306676 0.02734511 -0.00091469
v 0.01136154 0.02699388 0.00983371
v -0.00248653 0.02435338 -0.01017818
v -0.00297180 0.02054534 -0.01057006
v 0.01240870 0.03017303 0.00983371
v -0.00297180 0.02127002 -0.01306535
v -0.00248653 0.02426870 -0.01206912
v 0.00665953 0.02660794 -0.01274665
v 0.00172766 0.02347321 -0.01425516
v 0.00172766 0.02342185 -0.01428348
v 0.00092824 0.02331079 -0.01409699
v 0.01723330 0.02871395 -0.00456437
v 0.01833410 0.02870284 -0.00338873
v 0.02241547 0.02797122 -0.00172678
v 0.00708861 0.02660794 -0.01274665
v 0.00365086 0.02221683 -0.01428348
v 0.02306676 0.02765331 -0.00091469
v 0.01330006 0.02931785 0.00983371
v 0.01275861 0.02860011 0.00983371
v 0.01230143 0.02805591 0.00983371
v 0.01170378 0.02735622 0.00983371
v -0.00256060 0.02439364 -0.01057006
v -0.00262445 0.02442696 -0.01091709
v -0.00297180 0.02127835 -0.01206912
v 0.01318513 0.03019107 0.00983371
v 0.01228611 0.03026882 0.00747062
v 0.01033992 0.02873755 -0.00690385
v 0.00646798 0.02674676 -0.01206912
v 0.00178640 0.02341907 -0.01428348
v 0.01646453 0.02884445 -0.00471782
v 0.01510322 0.03000782 0.00078976
v 0.01858951 0.02877087 -0.00262149
v 0.01510322 0.03000782 0.00134925
v 0.00364064 0.02241813 -0.01428348
v 0.00287698 0.02335521 -0.01428348
v 0.01035269 0.02873755 -0.00690385
v 0.01551698 0.02895551 -0.00481933
v 0.01226567 0.03026604 0.00632094
v 0.01308552 0.03026882 0.00747062
v 0.01228866 0.03018691 0.00517127
v 0.01358612 0.02993424 0.00090780
v 0.01436766 0.03001337 0.00069769
v 0.01436766 0.02924288 -0.00402140
v 0.01310596 0.03026604 0.00632094
f 1 2 12
f 1 12 28
f 1 28 47
f 1 47 53
f 1 53 52
f 1 52 34
f 1 34 16
f 1 16 15
f 1 15 13
f 1 13 3
f 1 3 4
f 1 4 5
f 1 5 6
f 1 6 7
f 1 7 8
f 1 8 9
f 1 9 22
f 1 22 42
f 1 42 24
f 1 24 10
f 1 10 2
f 2 10 11
f 2 11 12
f 3 13 4
f 4 14 18
f 4 18 5
f 4 13 15
f 4 15 16
f 4 16 17
f 4 17 33
f 4 33 14
f 5 18 35
f 5 35 19
f 5 19 6
f 6 19 7
f 7 20 39
f 7 39 38
f 7 38 37
f 7 37 36
f 7 36 43
f 7 43 23
f 7 23 8
f 7 19 20
f 8 21 22
f 8 22 9
f 8 23 21
f 10 24 25
f 10 25 11
f 11 25 26
f 11 26 27
f 11 27 28
f 11 28 29
f 11 29 12
f 12 29 28
f 14 30 31
f 14 31 32
f 14 32 18
f 14 33 30
f 16 34 17
f 17 34 33
f 18 32 35
f 19 36 37
f 19 37 38
f 19 38 39
f 19 39 20
f 19 35 36
f 21 40 22
f 21 23 40
f 22 40 41
f 22 41 42
f 23 43 44
f 23 44 41
f 23 41 40
f 24 42 41
f 24 41 25
f 25 41 45
f 25 45 46
f 25 46 26
f 26 28 27
f 26 46 45
f 26 45 54
f 26 54 33
f 26 33 28
f 28 33 47
f 30 48 31
f 30 33 48
f 31 48 49
f 31 49 50
f 31 50 32
f 32 50 49
f 32 49 51
f 32 51 43
f 32 43 35
f 33 34 52
f 33 52 53
f 33 53 47
f 33 54 55
f 33 55 48
f 35 43 36
f 41 44 56
f 41 56 45
f 43 51 57
f 43 57 44
f 44 57 62
f 44 62 56
f 45 56 58
f 45 58 59
f 45 59 60
f 45 60 61
f 45 61 54
f 48 55 49
f 49 55 61
f 49 61 60
f 49 60 62
f 49 62 57
f 49 57 51
f 54 61 55
f 56 62 60
f 56 60 58
f 58 60 59

