# https://github.com/mikedh/trimesh
v -0.04431192 -0.05008588 0.02284002
v -0.04358500 -0.05008588 0.02287135
v -0.04445494 -0.05008588 0.02286171
v -0.04718507 -0.04384151 0.01488001
v -0.04655777 -0.04388464 0.01486555
v -0.04015558 -0.04146495 0.01944201
v -0.03715026 -0.04066489 0.02277977
v -0.03807839 -0.04233074 0.02311716
v -0.03779532 -0.04262550 0.02388353
v -0.04129477 -0.04839538 0.02853952
v -0.04352878 -0.05008588 0.02346420
v -0.04593146 -0.04379324 0.01490652
v -0.04464135 -0.04395243 0.01596930
v -0.04363333 -0.04387129 0.01713330
v -0.04489976 -0.05008588 0.02356782
v -0.04718507 -0.04384151 0.01504629
v -0.04722649 -0.04310923 0.01482940
v -0.04491357 -0.04028899 0.01261226
v -0.04495106 -0.05008588 0.02410524
v -0.04509308 -0.05008588 0.02578496
v -0.04585847 -0.05008588 0.03721770
v -0.04479127 -0.04028899 0.01261226
v -0.03997607 -0.04070597 0.01902268
v -0.04022462 -0.04025202 0.01838887
v -0.03715026 -0.03967174 0.02247853
v -0.03715026 -0.04255566 0.02746228
v -0.03715026 -0.04257414 0.02762615
v -0.03715026 -0.04260393 0.02809368
v -0.03715026 -0.04260907 0.02844071
v -0.04129477 -0.04839538 0.02886486
v -0.04320922 -0.05008588 0.02939264
v -0.04722649 -0.04310923 0.01511618
v -0.04720282 -0.04229274 0.01485832
v -0.04555468 -0.03959369 0.01320269
v -0.04500234 -0.03959369 0.01264358
v -0.04495303 -0.03959369 0.01260021
v -0.04446579 -0.05008588 0.03721770
v -0.04549649 -0.04885652 0.03721770
v -0.04720282 -0.04229274 0.01507521
v -0.04483171 -0.03959369 0.01260021
v -0.04479620 -0.03966147 0.01261708
v -0.04022462 -0.04019142 0.01838887
v -0.03715026 -0.03959369 0.02247853
v -0.03715026 -0.04117738 0.03276173
v -0.04005201 -0.04610715 0.03464871
v -0.04347947 -0.05008588 0.03265569
v -0.04334533 -0.05008588 0.03160978
v -0.04604094 -0.03959369 0.01427511
v -0.04603896 -0.03959369 0.01421486
v -0.04596302 -0.03959369 0.01374011
v -0.04347256 -0.04778121 0.03721770
v -0.04348539 -0.05008588 0.03268943
v -0.03715026 -0.03959369 0.03486801
v -0.04511577 -0.04804722 0.03721770
v -0.04599162 -0.03959369 0.01490169
v -0.04480015 -0.03959369 0.01261949
v -0.03715026 -0.04072240 0.03390645
v -0.04343903 -0.04692261 0.03721770
v -0.04459697 -0.04736732 0.03721770
v -0.04402194 -0.04692261 0.03721770
v -0.04506350 -0.04794246 0.03721770
f 1 2 11
f 1 11 31
f 1 31 47
f 1 47 46
f 1 46 52
f 1 52 37
f 1 37 21
f 1 21 20
f 1 20 19
f 1 19 15
f 1 15 3
f 1 3 4
f 1 4 5
f 1 5 2
f 2 6 7
f 2 7 8
f 2 8 9
f 2 9 10
f 2 10 11
f 2 5 12
f 2 12 13
f 2 13 14
f 2 14 6
f 3 15 4
f 4 16 32
f 4 32 17
f 4 17 18
f 4 18 5
f 4 15 19
f 4 19 20
f 4 20 21
f 4 21 16
f 5 18 22
f 5 22 12
f 6 23 7
f 6 14 22
f 6 22 23
f 7 9 8
f 7 23 24
f 7 24 25
f 7 25 43
f 7 43 53
f 7 53 57
f 7 57 44
f 7 44 29
f 7 29 28
f 7 28 27
f 7 27 26
f 7 26 9
f 9 26 10
f 10 26 27
f 10 27 28
f 10 28 29
f 10 29 30
f 10 30 31
f 10 31 11
f 12 22 13
f 13 22 14
f 16 21 32
f 17 32 39
f 17 39 33
f 17 33 34
f 17 34 35
f 17 35 36
f 17 36 18
f 18 36 40
f 18 40 22
f 21 37 51
f 21 51 58
f 21 58 60
f 21 60 59
f 21 59 61
f 21 61 54
f 21 54 38
f 21 38 39
f 21 39 32
f 22 40 41
f 22 41 42
f 22 42 24
f 22 24 23
f 24 42 43
f 24 43 25
f 29 44 45
f 29 45 30
f 30 45 46
f 30 46 47
f 30 47 31
f 33 48 49
f 33 49 50
f 33 50 34
f 33 39 48
f 34 50 49
f 34 49 48
f 34 48 55
f 34 55 53
f 34 53 43
f 34 43 56
f 34 56 40
f 34 40 36
f 34 36 35
f 37 52 45
f 37 45 53
f 37 53 51
f 38 54 55
f 38 55 39
f 39 55 48
f 40 56 41
f 41 56 42
f 42 56 43
f 44 57 45
f 45 57 53
f 45 52 46
f 51 53 58
f 53 55 59
f 53 59 60
f 53 60 58
f 54 61 55
f 55 61 59

