# https://github.com/mikedh/trimesh
v 0.00984028 -0.00003990 -0.05398441
v 0.00948764 -0.00003990 -0.05225452
v -0.00297180 0.01244261 -0.04359375
v -0.00297180 0.01374711 -0.04845626
v 0.00838094 0.00206229 -0.05525551
v 0.00947370 0.00102251 -0.05527808
v 0.01126756 0.00056097 -0.05523671
v 0.00990579 -0.00003990 -0.02102611
v 0.00895659 -0.00003990 -0.04488365
v -0.00297180 0.01207163 -0.04023173
v -0.00297180 0.01221271 -0.04200676
v -0.00297180 0.01489139 -0.05182580
v -0.00294671 0.01752653 -0.05506372
v 0.00344957 0.01621505 -0.05735395
v 0.00793352 0.00960021 -0.05476287
v 0.00921305 0.00724722 -0.05378510
v 0.01043126 0.00707306 -0.02702058
v 0.01085638 0.00581732 -0.02416625
v 0.01109890 0.00402514 -0.02357583
v 0.01113375 0.00287564 -0.02357583
v 0.01102643 0.00172615 -0.02357583
v 0.01047168 0.00022483 -0.02377891
v 0.01036157 0.00032062 -0.02236114
v 0.01061106 0.00137085 -0.02112013
v 0.01045774 0.00214066 -0.02002202
v 0.00891477 -0.00003990 -0.01999946
v 0.00863740 -0.00003990 -0.03912234
v 0.00859698 -0.00003990 -0.03780612
v -0.00297180 0.01205248 -0.03850559
v -0.00297180 0.01279617 -0.01945040
v -0.00172293 0.01775294 -0.05502987
v -0.00292022 0.01417905 -0.01893520
v -0.00032213 0.01761361 -0.05489825
v 0.00280423 0.01341620 -0.01893520
v 0.00662750 0.01170763 -0.02226337
v 0.00786940 0.01078803 -0.02357207
v 0.00818720 0.01052504 -0.02472283
v 0.00937056 0.00890180 -0.02472283
v 0.00955175 0.00858134 -0.02644896
v 0.00954479 0.00852038 -0.02817134
v 0.01025285 0.00730818 -0.02932210
v 0.01012322 0.00764606 -0.02702058
v 0.01029048 0.00738656 -0.02472283
v 0.01026958 0.00734127 -0.02817134
v 0.01027515 0.00736566 -0.02357207
v 0.01053162 0.00648786 -0.02218063
v 0.01089262 0.00517464 -0.02242131
v 0.01099855 0.00402514 -0.02242131
v 0.01107800 0.00287564 -0.02242131
v 0.01096231 0.00172615 -0.02242131
v 0.00703729 0.01063998 -0.02037928
v 0.00328649 0.01233985 -0.01893520
v 0.00176583 0.01217613 -0.01893520
v 0.00862068 -0.00003990 -0.02124047
v 0.00857189 -0.00003990 -0.03506837
v -0.00297180 0.01216568 -0.02826912
v -0.00297180 0.01245132 -0.02127432
v -0.00172293 0.01429748 -0.01893520
v -0.00004476 0.01410416 -0.01893520
v 0.00634316 0.01163622 -0.02074783
v 0.00780111 0.01068179 -0.02227841
v 0.00933571 0.00885826 -0.02357207
v 0.00974828 0.00801181 -0.02242508
v -0.00297180 0.01238862 -0.02242508
f 1 2 3
f 1 3 4
f 1 4 5
f 1 5 6
f 1 6 7
f 1 7 8
f 1 8 26
f 1 26 54
f 1 54 55
f 1 55 28
f 1 28 27
f 1 27 9
f 1 9 2
f 2 9 10
f 2 10 11
f 2 11 3
f 3 11 10
f 3 10 29
f 3 29 56
f 3 56 64
f 3 64 57
f 3 57 30
f 3 30 12
f 3 12 4
f 4 12 5
f 5 13 14
f 5 14 6
f 5 12 13
f 6 14 7
f 7 14 15
f 7 15 16
f 7 16 17
f 7 17 18
f 7 18 19
f 7 19 20
f 7 20 21
f 7 21 22
f 7 22 8
f 8 22 23
f 8 23 24
f 8 24 25
f 8 25 26
f 9 27 10
f 10 27 28
f 10 28 29
f 12 30 13
f 13 31 14
f 13 30 32
f 13 32 31
f 14 31 33
f 14 33 34
f 14 34 35
f 14 35 36
f 14 36 37
f 14 37 38
f 14 38 39
f 14 39 40
f 14 40 15
f 15 40 41
f 15 41 16
f 16 41 17
f 17 42 43
f 17 43 18
f 17 41 44
f 17 44 42
f 18 43 45
f 18 45 46
f 18 46 47
f 18 47 19
f 19 47 48
f 19 48 49
f 19 49 20
f 20 49 21
f 21 49 50
f 21 50 22
f 22 50 23
f 23 50 24
f 24 50 25
f 25 50 49
f 25 49 48
f 25 48 47
f 25 47 46
f 25 46 51
f 25 51 34
f 25 34 52
f 25 52 26
f 26 52 53
f 26 53 32
f 26 32 30
f 26 30 54
f 28 55 29
f 29 55 54
f 29 54 56
f 30 57 54
f 31 32 58
f 31 58 33
f 32 53 52
f 32 52 34
f 32 34 59
f 32 59 58
f 33 58 59
f 33 59 34
f 34 51 60
f 34 60 35
f 35 60 61
f 35 61 36
f 36 61 62
f 36 62 37
f 37 62 38
f 38 43 42
f 38 42 39
f 38 62 45
f 38 45 43
f 39 42 40
f 40 42 41
f 41 42 44
f 45 62 63
f 45 63 46
f 46 63 51
f 51 63 61
f 51 61 60
f 54 57 64
f 54 64 56
f 61 63 62

