# https://github.com/mikedh/trimesh
v 0.01591003 0.02697478 0.03155966
v 0.01804937 0.02697478 0.03369585
v 0.02432404 0.01522260 0.03158571
v 0.02533196 0.01305475 0.03158571
v 0.01230623 0.02039492 0.03160104
v 0.01172398 0.02095494 0.03160104
v 0.01120789 0.02152313 0.03160104
v 0.01173941 0.02575800 0.03158571
v 0.01242533 0.02667229 0.03159338
v 0.01313109 0.02697478 0.03184316
v 0.02131353 0.02697478 0.03832680
v 0.02189137 0.02697342 0.03907309
v 0.02410791 0.02697342 0.04255779
v 0.02440785 0.02697342 0.04306349
v 0.02657366 0.02551819 0.04572376
v 0.02909677 0.01901463 0.04420820
v 0.02982238 0.01828702 0.04495295
v 0.02394690 0.01305475 0.03166540
v 0.03331590 0.01310789 0.04719947
v 0.03174999 0.01305475 0.04721326
v 0.01248929 0.02054617 0.03248371
v 0.02422039 0.01305475 0.03276720
v 0.02458209 0.01305475 0.03387974
v 0.02500775 0.01305475 0.03493710
v 0.02697727 0.01305475 0.03957112
v 0.01083957 0.02241425 0.03160104
v 0.01139536 0.02171253 0.03237031
v 0.01078443 0.02356563 0.03160104
v 0.01116157 0.02483145 0.03160257
v 0.01252458 0.02657555 0.03254960
v 0.01311786 0.02677993 0.03286528
v 0.01356999 0.02697478 0.03282390
v 0.02131353 0.02697478 0.04059477
v 0.02608625 0.02697342 0.04721326
v 0.02596715 0.02697342 0.04657731
v 0.02557016 0.02697342 0.04545405
v 0.02633547 0.02628396 0.04632293
v 0.02973636 0.02053254 0.04721326
v 0.03090969 0.01815894 0.04721326
v 0.03248884 0.01486152 0.04721326
v 0.03274027 0.01433148 0.04721326
v 0.02439903 0.02697342 0.04721326
v 0.01240768 0.02152858 0.03358858
v 0.01274513 0.02076145 0.03324991
v 0.02744484 0.01305475 0.04045226
v 0.01206583 0.02123835 0.03281011
v 0.01128287 0.02241425 0.03255420
v 0.01117922 0.02312551 0.03241015
v 0.01165781 0.02241425 0.03312885
v 0.01124979 0.02356563 0.03260783
v 0.01135124 0.02442268 0.03244233
v 0.01266573 0.02641340 0.03331581
v 0.02645457 0.02646109 0.04715197
v 0.02664203 0.02588472 0.04664474
v 0.02763893 0.02422102 0.04694356
v 0.01162252 0.02356563 0.03318249
v 0.01219816 0.02356563 0.03381231
v 0.01221139 0.02312551 0.03379699
v 0.01223345 0.02241425 0.03377094
v 0.01280467 0.02241425 0.03434712
v 0.01249149 0.02564627 0.03349663
v 0.01231726 0.02471563 0.03368359
f 1 2 3
f 1 3 4
f 1 4 5
f 1 5 6
f 1 6 7
f 1 7 8
f 1 8 9
f 1 9 10
f 1 10 32
f 1 32 33
f 1 33 11
f 1 11 2
f 2 11 12
f 2 12 3
f 3 12 13
f 3 13 14
f 3 14 15
f 3 15 16
f 3 16 17
f 3 17 4
f 4 18 5
f 4 17 19
f 4 19 20
f 4 20 45
f 4 45 25
f 4 25 24
f 4 24 23
f 4 23 22
f 4 22 18
f 5 21 6
f 5 18 22
f 5 22 23
f 5 23 24
f 5 24 25
f 5 25 21
f 6 21 7
f 7 26 8
f 7 21 27
f 7 27 26
f 8 26 28
f 8 28 29
f 8 29 30
f 8 30 9
f 9 30 10
f 10 30 31
f 10 31 32
f 11 33 34
f 11 34 35
f 11 35 36
f 11 36 14
f 11 14 13
f 11 13 12
f 14 36 15
f 15 37 38
f 15 38 17
f 15 17 16
f 15 36 37
f 17 39 40
f 17 40 19
f 17 38 39
f 19 40 41
f 19 41 20
f 20 42 43
f 20 43 44
f 20 44 21
f 20 21 45
f 20 41 40
f 20 40 39
f 20 39 38
f 20 38 34
f 20 34 42
f 21 25 45
f 21 44 46
f 21 46 27
f 26 27 47
f 26 47 48
f 26 48 28
f 27 46 43
f 27 43 49
f 27 49 47
f 28 48 50
f 28 50 51
f 28 51 29
f 29 51 52
f 29 52 30
f 30 52 31
f 31 52 42
f 31 42 32
f 32 42 33
f 33 42 34
f 34 38 53
f 34 53 35
f 35 53 37
f 35 37 36
f 37 53 54
f 37 54 55
f 37 55 38
f 38 55 53
f 42 56 57
f 42 57 58
f 42 58 59
f 42 59 60
f 42 60 43
f 42 52 61
f 42 61 62
f 42 62 56
f 43 60 59
f 43 59 49
f 43 46 44
f 47 50 48
f 47 49 56
f 47 56 50
f 49 59 56
f 50 56 51
f 51 56 62
f 51 62 61
f 51 61 52
f 53 55 54
f 56 59 58
f 56 58 57

