# https://github.com/mikedh/trimesh
v -0.04704865 0.00764644 0.01486706
v -0.04837979 0.00643567 0.01195794
v -0.04905387 0.00822217 0.01470929
v -0.04829899 0.00948353 0.01837919
v -0.04754624 0.01033491 0.02180919
v -0.04738038 0.01165385 0.03103581
v -0.04722514 0.01078502 0.03371799
v -0.06811307 -0.00552898 0.03332031
v -0.06676703 -0.00615007 0.02242084
v -0.06549118 -0.00578719 0.01720344
v -0.05208616 0.00593496 0.01290027
v -0.06186349 -0.00056028 0.01292405
v -0.06019849 0.00124366 0.01298457
v -0.05119094 0.00817332 0.01634324
v -0.04943451 0.00974523 0.02012120
v -0.05065082 0.01036631 0.02404398
v -0.04828836 0.01155615 0.02842495
v -0.04936220 0.01167304 0.03103581
v -0.04933031 0.01145322 0.03348889
v -0.05158858 0.01060358 0.03399464
v -0.06178056 0.00403332 0.03400545
v -0.06384958 0.00167633 0.03386280
v -0.06783025 -0.00395707 0.03218563
v -0.06877013 -0.00615007 0.02988599
v -0.06717318 -0.00500210 0.01966949
v -0.05844206 0.00295165 0.01347734
v -0.05632839 0.00488993 0.01441967
v -0.06558899 -0.00245146 0.01916591
v -0.06211015 0.00119132 0.01767893
v -0.05883333 0.00523362 0.02085173
v -0.05464426 0.00706722 0.01745199
v -0.05402122 0.00790116 0.01902110
v -0.05132278 0.00947307 0.02081282
v -0.05280064 0.00927243 0.02208151
v -0.05166726 0.01062626 0.02758852
v -0.05266668 0.01051810 0.02992490
v -0.05244978 0.01052508 0.03215321
v -0.05973706 0.00592449 0.03403787
v -0.05462937 0.00937711 0.03309121
v -0.05676218 0.00813319 0.03338947
v -0.06166361 0.00446599 0.03218563
v -0.06403032 0.00180020 0.03140972
v -0.06613549 -0.00107146 0.03151346
v -0.06680106 -0.00179722 0.02844872
v -0.06797485 -0.00420481 0.02988599
v -0.06788554 -0.00446825 0.02528673
v -0.05580316 0.00690497 0.01897355
v -0.06573147 -0.00044514 0.02655758
v -0.06399417 -0.00021659 0.01990291
v -0.06202510 0.00225205 0.02092089
v -0.06087895 0.00339653 0.02086037
v -0.05973919 0.00571165 0.02503386
v -0.05718747 0.00679681 0.02186538
v -0.05533960 0.00813494 0.02267155
v -0.05444225 0.00938932 0.02701362
v -0.05531408 0.00922358 0.02963312
v -0.05969878 0.00625248 0.03189817
v -0.05736396 0.00810004 0.03052358
v -0.06158705 0.00469802 0.02988599
v -0.06132550 0.00470849 0.02718004
v -0.05882695 0.00706025 0.02988599
v -0.05806568 0.00729403 0.02701145
v -0.05708115 0.00821519 0.02867134
f 1 2 3
f 1 3 4
f 1 4 5
f 1 5 6
f 1 6 7
f 1 7 8
f 1 8 9
f 1 9 10
f 1 10 2
f 2 11 3
f 2 10 12
f 2 12 13
f 2 13 11
f 3 11 14
f 3 14 15
f 3 15 4
f 4 15 5
f 5 15 16
f 5 16 17
f 5 17 6
f 6 17 18
f 6 18 19
f 6 19 7
f 7 19 20
f 7 20 21
f 7 21 8
f 8 22 23
f 8 23 24
f 8 24 9
f 8 21 22
f 9 25 10
f 9 24 25
f 10 25 12
f 11 13 26
f 11 26 27
f 11 27 14
f 12 25 28
f 12 28 29
f 12 29 13
f 13 29 30
f 13 30 26
f 14 27 31
f 14 31 32
f 14 32 33
f 14 33 15
f 15 33 16
f 16 33 34
f 16 34 35
f 16 35 18
f 16 18 17
f 18 35 36
f 18 36 37
f 18 37 19
f 19 37 20
f 20 38 21
f 20 37 39
f 20 39 40
f 20 40 38
f 21 38 41
f 21 41 22
f 22 41 42
f 22 42 43
f 22 43 23
f 23 43 44
f 23 44 45
f 23 45 24
f 24 45 46
f 24 46 25
f 25 46 28
f 26 47 27
f 26 30 47
f 27 47 31
f 28 46 48
f 28 48 49
f 28 49 29
f 29 49 50
f 29 50 51
f 29 51 30
f 30 51 52
f 30 52 53
f 30 53 47
f 31 47 32
f 32 47 54
f 32 54 34
f 32 34 33
f 34 54 55
f 34 55 35
f 35 55 36
f 36 55 56
f 36 56 37
f 37 56 39
f 38 40 57
f 38 57 41
f 39 56 58
f 39 58 40
f 40 58 57
f 41 57 59
f 41 59 42
f 42 59 48
f 42 48 44
f 42 44 43
f 44 48 46
f 44 46 45
f 47 53 54
f 48 59 60
f 48 60 49
f 49 60 50
f 50 60 51
f 51 60 52
f 52 60 61
f 52 61 62
f 52 62 53
f 53 62 54
f 54 62 63
f 54 63 55
f 55 63 56
f 56 63 58
f 57 58 61
f 57 61 59
f 58 63 61
f 59 61 60
f 61 63 62

