# https://github.com/mikedh/trimesh
v -0.00039739 0.04205406 0.01677166
v -0.00039739 0.04296644 0.01580708
v -0.00316110 0.04272723 0.01646339
v -0.00588449 0.04193599 0.01681806
v -0.00392167 0.04170752 0.01689430
v -0.00039739 0.02730125 0.01318848
v -0.00482885 0.04275943 0.01608552
v -0.00039739 0.04179645 -0.01461507
v -0.00073461 0.04219514 -0.01262626
v -0.00225575 0.04212307 -0.01270581
v -0.01179127 0.04073688 0.01670536
v -0.01678904 0.03902407 0.01657609
v -0.01881233 0.03781269 0.01647665
v -0.01043507 0.02730125 0.01360282
v -0.00039739 0.02730125 -0.01455541
v -0.00641963 0.04170752 -0.01247379
v -0.00998240 0.04183019 0.01532314
v -0.00830731 0.04212307 0.01588001
v -0.00039739 0.04086261 -0.01615640
v -0.00266261 0.04148824 -0.01516199
v -0.00546846 0.04133183 -0.01456204
v -0.00798292 0.04141004 -0.01308700
v -0.01571874 0.03980764 0.01641367
v -0.01426724 0.04064180 0.01568113
v -0.01912023 0.03858859 0.01550545
v -0.01912023 0.02730125 0.01374535
v -0.01156035 0.02730125 -0.01503272
v -0.01912023 0.03015337 -0.01653096
v -0.01900477 0.03137242 -0.01685248
v -0.00039739 0.03725300 -0.01685248
v -0.01084010 0.04084268 -0.01214232
v -0.00056600 0.03922801 -0.01693866
v -0.00362111 0.04048080 -0.01655416
v -0.00732132 0.04055440 -0.01573875
v -0.00606226 0.04096229 -0.01532441
v -0.00713255 0.04107576 -0.01461507
v -0.01126712 0.04007598 -0.01499957
v -0.01297886 0.04021859 -0.01235114
v -0.01512495 0.03949329 -0.01252682
v -0.01675421 0.03886613 -0.01247379
v -0.01782817 0.03835091 -0.01281520
v -0.01894245 0.03782649 -0.01278537
v -0.01898277 0.03701072 -0.01502609
v -0.01906341 0.03422454 -0.01689889
v -0.01912023 0.02730125 -0.01411455
v -0.01374492 0.02730125 -0.01502278
v -0.01782268 0.03458182 -0.01693535
v -0.00374390 0.03921268 -0.01696849
v -0.00677518 0.03956996 -0.01681270
v -0.00677518 0.04006678 -0.01652101
v -0.00920533 0.04029372 -0.01553324
v -0.01323910 0.03936755 -0.01517857
v -0.01533021 0.03863919 -0.01509570
v -0.01762474 0.03747381 -0.01543711
v -0.01863456 0.03609375 -0.01642157
v -0.01689900 0.03678684 -0.01655747
v -0.01568392 0.03636056 -0.01689889
v -0.01675421 0.03529178 -0.01694529
v -0.01158417 0.03786022 -0.01690552
v -0.01443585 0.03769922 -0.01663371
v -0.01103070 0.03908541 -0.01642157
v -0.01318778 0.03849965 -0.01638843
v -0.01599914 0.03768695 -0.01614977
f 1 2 3
f 1 3 4
f 1 4 5
f 1 5 6
f 1 6 15
f 1 15 30
f 1 30 19
f 1 19 8
f 1 8 2
f 2 7 3
f 2 8 9
f 2 9 10
f 2 10 7
f 3 7 4
f 4 7 11
f 4 11 5
f 5 11 12
f 5 12 13
f 5 13 14
f 5 14 6
f 6 14 26
f 6 26 45
f 6 45 46
f 6 46 27
f 6 27 15
f 7 10 16
f 7 16 17
f 7 17 18
f 7 18 11
f 8 10 9
f 8 19 20
f 8 20 10
f 10 20 21
f 10 21 22
f 10 22 16
f 11 23 12
f 11 18 24
f 11 24 23
f 12 23 25
f 12 25 13
f 13 25 26
f 13 26 14
f 15 27 28
f 15 28 29
f 15 29 30
f 16 22 17
f 17 24 18
f 17 22 31
f 17 31 24
f 19 30 32
f 19 32 33
f 19 33 20
f 20 33 34
f 20 34 35
f 20 35 21
f 21 36 22
f 21 35 36
f 22 36 37
f 22 37 38
f 22 38 31
f 23 24 25
f 24 31 38
f 24 38 39
f 24 39 40
f 24 40 25
f 25 40 41
f 25 41 42
f 25 42 43
f 25 43 44
f 25 44 28
f 25 28 45
f 25 45 26
f 27 46 28
f 28 46 45
f 28 44 29
f 29 44 47
f 29 47 48
f 29 48 32
f 29 32 30
f 32 48 33
f 33 48 49
f 33 49 50
f 33 50 34
f 34 51 36
f 34 36 35
f 34 50 51
f 36 51 37
f 37 51 52
f 37 52 39
f 37 39 38
f 39 41 40
f 39 52 53
f 39 53 41
f 41 53 43
f 41 43 42
f 43 53 54
f 43 54 55
f 43 55 44
f 44 55 56
f 44 56 57
f 44 57 58
f 44 58 47
f 47 58 48
f 48 58 59
f 48 59 49
f 49 60 61
f 49 61 50
f 49 59 60
f 50 61 51
f 51 61 62
f 51 62 52
f 52 62 63
f 52 63 53
f 53 63 54
f 54 63 55
f 55 63 56
f 56 60 57
f 56 63 60
f 57 59 58
f 57 60 59
f 60 63 62
f 60 62 61

