# https://github.com/mikedh/trimesh
v 0.03904668 -0.00002490 -0.01697833
v 0.03721020 -0.00002490 -0.01693529
v 0.03760909 0.00142701 -0.01701475
v 0.03885583 0.00214156 -0.01702469
v 0.03992581 0.00303285 -0.01684589
v 0.04039353 -0.00002490 -0.01668033
v 0.03064486 0.01938963 -0.01661742
v 0.03279889 0.01782179 -0.01698826
v 0.03349031 0.01928320 -0.01711409
v 0.02959053 -0.00002490 -0.01523007
v 0.03746987 0.01247406 -0.01699820
v 0.03850074 0.00944861 -0.01696840
v 0.03956915 0.00534754 -0.01691542
v 0.04049677 0.00427952 -0.01658762
v 0.04137278 0.00067065 -0.01564396
v 0.04232387 0.00111344 -0.01272688
v 0.04265862 -0.00002490 0.01569561
v 0.03494197 0.01938203 -0.01684920
v 0.02689056 -0.00002490 -0.01440561
v 0.02689056 0.01339385 -0.01512080
v 0.02689056 0.01501110 -0.01505127
v 0.02923231 0.01938963 -0.01583269
v 0.02689056 0.01938963 0.01378180
v 0.03782809 0.01938012 0.01615917
v 0.03682851 0.01627486 -0.01674986
v 0.03950501 0.00962725 -0.01661411
v 0.04022928 0.00901722 -0.01584924
v 0.04118506 0.00434223 -0.01555125
v 0.04138216 0.00285421 -0.01540556
v 0.04225191 0.00285421 -0.01278648
v 0.04286981 0.00368659 0.01475195
v 0.04240677 0.00414839 0.01614924
v 0.02689056 -0.00002490 0.01325202
v 0.03695052 0.01921859 -0.01491883
v 0.03635766 0.01880810 -0.01627638
v 0.02689056 0.01938963 -0.01415396
v 0.02689056 0.01211868 0.01363942
v 0.03885583 0.01639649 0.01671212
v 0.03934858 0.01675377 0.01649690
v 0.04014324 0.01574655 0.01532477
v 0.03791413 0.01865227 -0.01267721
v 0.03811592 0.01471273 -0.01635584
v 0.03934389 0.01102785 -0.01631611
v 0.03932981 0.01292255 -0.01549496
v 0.04152921 0.00843380 -0.01265403
v 0.04183893 0.00641937 -0.01282952
v 0.04211269 0.00419780 -0.01293879
v 0.04225504 0.00822665 0.01556979
v 0.04147915 0.00962725 0.01647041
v 0.03748238 0.01743031 -0.01563071
v 0.03867281 0.01705213 -0.01259443
v 0.03858521 0.01573325 -0.01478307
v 0.04023241 0.01459301 0.01633135
v 0.04064069 0.01248356 -0.00605832
v 0.04013855 0.01350028 -0.01033626
v 0.03980849 0.01427754 -0.01158124
v 0.03927193 0.01561733 -0.01252159
v 0.04099891 0.01087202 -0.01086935
v 0.03898567 0.01429274 -0.01517378
v 0.04078930 0.01131101 -0.01258450
v 0.04157457 0.00855733 -0.01086935
v 0.04063600 0.01210728 -0.01023693
v 0.04030906 0.01281233 -0.01214412
f 1 2 3
f 1 3 4
f 1 4 5
f 1 5 6
f 1 6 17
f 1 17 33
f 1 33 19
f 1 19 10
f 1 10 2
f 2 7 8
f 2 8 9
f 2 9 3
f 2 10 7
f 3 9 4
f 4 9 11
f 4 11 12
f 4 12 13
f 4 13 5
f 5 13 14
f 5 14 6
f 6 14 15
f 6 15 16
f 6 16 17
f 7 18 9
f 7 9 8
f 7 10 19
f 7 19 20
f 7 20 21
f 7 21 22
f 7 22 36
f 7 36 23
f 7 23 24
f 7 24 18
f 9 18 11
f 11 18 25
f 11 25 26
f 11 26 12
f 12 26 13
f 13 26 14
f 14 26 27
f 14 27 28
f 14 28 15
f 15 28 29
f 15 29 30
f 15 30 16
f 16 30 31
f 16 31 17
f 17 31 32
f 17 32 33
f 18 34 35
f 18 35 25
f 18 24 34
f 19 33 37
f 19 37 23
f 19 23 36
f 19 36 21
f 19 21 20
f 21 36 22
f 23 37 38
f 23 38 24
f 24 38 39
f 24 39 40
f 24 40 41
f 24 41 34
f 25 35 42
f 25 42 26
f 26 42 43
f 26 43 27
f 27 43 44
f 27 44 45
f 27 45 46
f 27 46 28
f 28 46 47
f 28 47 29
f 29 47 30
f 30 47 31
f 31 48 32
f 31 47 46
f 31 46 48
f 32 48 49
f 32 49 38
f 32 38 33
f 33 38 37
f 34 50 35
f 34 41 51
f 34 51 52
f 34 52 50
f 35 50 42
f 38 49 39
f 39 49 53
f 39 53 40
f 40 54 55
f 40 55 56
f 40 56 57
f 40 57 51
f 40 51 41
f 40 53 48
f 40 48 58
f 40 58 54
f 42 50 59
f 42 59 44
f 42 44 43
f 44 59 60
f 44 60 45
f 45 60 58
f 45 58 61
f 45 61 46
f 46 61 48
f 48 53 49
f 48 61 58
f 50 52 59
f 51 57 52
f 52 57 60
f 52 60 59
f 54 62 55
f 54 58 62
f 55 62 63
f 55 63 56
f 56 63 57
f 57 63 60
f 58 60 62
f 60 63 62

