# https://github.com/mikedh/trimesh
v -0.03367279 0.01598263 -0.01681375
v -0.03368663 0.01907460 -0.01690944
v -0.01912226 0.03136849 -0.01685665
v -0.01912226 0.01598263 -0.01423671
v -0.03931629 0.01598263 0.01590907
v -0.03843468 0.01618717 -0.01495934
v -0.03712610 0.01630031 -0.01653988
v -0.02317253 0.03172534 -0.01690944
v -0.02263882 0.03065697 -0.01693254
v -0.03426383 0.02146157 -0.01660917
v -0.03143121 0.02444910 -0.01679065
v -0.02696188 0.02905332 -0.01686325
v -0.01993271 0.03422111 -0.01684345
v -0.01924481 0.03591179 -0.01628250
v -0.01917167 0.03821173 0.01606086
v -0.01912226 0.01598263 0.01312745
v -0.02707653 0.03258700 0.01677689
v -0.03840108 0.01823252 0.01605756
v -0.03742261 0.02096329 0.01584968
v -0.03885572 0.01666151 -0.01289704
v -0.03714587 0.01918122 -0.01473826
v -0.03741865 0.01787132 -0.01548068
v -0.03587287 0.01953372 -0.01630230
v -0.02174732 0.03315274 -0.01687644
v -0.03410372 0.02362660 -0.01543449
v -0.03186213 0.02602010 -0.01590304
v -0.03032030 0.02693834 -0.01649698
v -0.02958892 0.02673815 -0.01680055
v -0.02909079 0.02801759 -0.01656298
v -0.02472029 0.03182108 -0.01664547
v -0.02100408 0.03459536 -0.01655638
v -0.02071548 0.03566591 -0.01571496
v -0.01973108 0.03663637 -0.01493954
v -0.01972515 0.03743928 -0.01275516
v -0.02216045 0.03611415 -0.01265617
v -0.02476378 0.03512629 0.01578038
v -0.03450104 0.02523895 0.01634463
v -0.02835348 0.03226932 0.01589587
v -0.03245910 0.02804152 0.01585298
v -0.03662402 0.02123310 -0.01217772
v -0.03799783 0.01863724 -0.01230970
v -0.03598357 0.02336332 0.01599816
v -0.03714587 0.02010163 -0.01302573
v -0.03534509 0.02176838 -0.01537840
v -0.03643425 0.02063037 -0.01458647
v -0.03519091 0.02294990 -0.01391004
v -0.03332885 0.02557622 -0.01410472
v -0.03174550 0.02721903 -0.01471186
v -0.03001589 0.02879004 -0.01508142
v -0.02655467 0.03122053 -0.01608122
v -0.02288788 0.03355310 -0.01641119
v -0.02472820 0.03331593 -0.01529920
v -0.02360148 0.03427115 -0.01505173
v -0.02200232 0.03521550 -0.01517052
v -0.02539039 0.03391648 -0.01291684
v -0.02410949 0.03484559 -0.01247469
v -0.02654677 0.03314403 -0.01247469
v -0.03388233 0.02658584 0.01532503
v -0.02812022 0.03186677 -0.01273206
v -0.02928846 0.03071354 -0.01292014
v -0.03431918 0.02474502 -0.01211832
v -0.03420651 0.02457965 -0.01359657
v -0.03250654 0.02708630 -0.01283105
v -0.03103587 0.02889883 -0.01287395
f 1 2 3
f 1 3 4
f 1 4 16
f 1 16 5
f 1 5 6
f 1 6 7
f 1 7 2
f 2 8 9
f 2 9 3
f 2 7 10
f 2 10 11
f 2 11 12
f 2 12 8
f 3 9 13
f 3 13 14
f 3 14 15
f 3 15 16
f 3 16 4
f 5 16 17
f 5 17 18
f 5 18 19
f 5 19 20
f 5 20 6
f 6 21 22
f 6 22 7
f 6 20 21
f 7 22 23
f 7 23 10
f 8 24 9
f 8 12 24
f 9 24 13
f 10 23 25
f 10 25 26
f 10 26 27
f 10 27 11
f 11 27 28
f 11 28 12
f 12 28 29
f 12 29 30
f 12 30 24
f 13 24 31
f 13 31 14
f 14 31 32
f 14 32 33
f 14 33 34
f 14 34 15
f 15 34 35
f 15 35 36
f 15 36 17
f 15 17 16
f 17 37 18
f 17 36 38
f 17 38 39
f 17 39 37
f 18 37 19
f 19 40 41
f 19 41 20
f 19 37 42
f 19 42 40
f 20 41 43
f 20 43 21
f 21 44 22
f 21 43 45
f 21 45 44
f 22 44 23
f 23 44 25
f 24 30 31
f 25 44 45
f 25 45 46
f 25 46 47
f 25 47 48
f 25 48 26
f 26 48 49
f 26 49 50
f 26 50 27
f 27 29 28
f 27 50 29
f 29 50 30
f 30 50 51
f 30 51 31
f 31 51 32
f 32 51 52
f 32 52 53
f 32 53 54
f 32 54 33
f 33 54 35
f 33 35 34
f 35 54 53
f 35 53 55
f 35 55 56
f 35 56 36
f 36 56 57
f 36 57 38
f 37 39 58
f 37 58 42
f 38 58 39
f 38 57 59
f 38 59 60
f 38 60 58
f 40 61 62
f 40 62 46
f 40 46 43
f 40 43 41
f 40 42 58
f 40 58 61
f 43 46 45
f 46 62 47
f 47 62 63
f 47 63 64
f 47 64 48
f 48 64 60
f 48 60 49
f 49 52 50
f 49 60 59
f 49 59 52
f 50 52 51
f 52 59 55
f 52 55 53
f 55 59 57
f 55 57 56
f 58 60 64
f 58 64 63
f 58 63 61
f 61 63 62

