# https://github.com/mikedh/trimesh
v -0.00178387 -0.04303470 0.01532411
v -0.00068883 -0.04268499 0.01588492
v -0.00303185 -0.04290411 0.01563091
v -0.00415442 -0.04280230 0.01573977
v -0.00641791 -0.04260973 0.01532411
v -0.00320926 -0.04227773 -0.01175946
v -0.00088001 -0.04243045 -0.01175946
v -0.00068883 -0.02042508 -0.01356723
v -0.00088001 -0.02042508 0.01307100
v -0.00997985 -0.04129278 0.01670303
v -0.00832200 -0.04212279 0.01627418
v -0.00083259 -0.04226002 -0.01297673
v -0.00068883 -0.04174209 -0.01478121
v -0.00971068 -0.04197228 0.01551215
v -0.00799012 -0.04155838 -0.01196399
v -0.00713061 -0.04167790 -0.01247531
v -0.00446795 -0.04208295 -0.01254129
v -0.00214022 -0.04232642 -0.01226418
v -0.00068883 -0.02246138 -0.01405216
v -0.01166065 -0.02042508 -0.01407525
v -0.01033773 -0.02042508 0.01311059
v -0.01390120 -0.03956856 0.01678221
v -0.01297898 -0.04070402 0.01650180
v -0.01169124 -0.04135032 0.01623130
v -0.00619768 -0.04116440 -0.01491316
v -0.00109259 -0.04120424 -0.01596879
v -0.00088001 -0.03984301 -0.01681000
v -0.00078518 -0.03707408 -0.01685948
v -0.01407861 -0.04068188 0.01582884
v -0.01137465 -0.04070845 -0.01216522
v -0.01015879 -0.04105373 -0.01211903
v -0.00984068 -0.04053802 -0.01474162
v -0.01624422 -0.03326265 -0.01675392
v -0.01368556 -0.02042508 -0.01415772
v -0.01430954 -0.02042508 0.01311388
v -0.01631304 -0.02042508 0.01310729
v -0.01594599 -0.03924983 0.01659747
v -0.00819965 -0.04072615 -0.01514408
v -0.00699602 -0.04069517 -0.01563231
v -0.00397548 -0.04069738 -0.01628548
v -0.00427830 -0.03956856 -0.01683309
v -0.00097483 -0.03845744 -0.01691886
v -0.01497177 -0.03386469 -0.01681000
v -0.01626410 -0.03983195 0.01532411
v -0.01597505 -0.03916129 -0.01224109
v -0.01311204 -0.04015953 -0.01230707
v -0.01106419 -0.04008870 -0.01510449
v -0.01624422 -0.03561325 -0.01684629
v -0.01631304 -0.02042508 -0.01414783
v -0.01269604 -0.03927196 -0.01575107
v -0.00769189 -0.03996032 -0.01642403
v -0.00641791 -0.03969251 -0.01668464
v -0.00641791 -0.03885585 -0.01688587
v -0.00891081 -0.03885585 -0.01679680
v -0.00855447 -0.03814314 -0.01690237
v -0.01425908 -0.03636138 -0.01687598
v -0.01599952 -0.03832464 -0.01513748
v -0.01434472 -0.03890897 -0.01529253
v -0.01319003 -0.03743044 -0.01681330
v -0.01536635 -0.03744593 -0.01648011
v -0.01373450 -0.03822946 -0.01638775
v -0.00991562 -0.03955749 -0.01623930
v -0.01176312 -0.03828037 -0.01670444
v -0.00997985 -0.03814314 -0.01686608
f 1 2 3
f 1 3 4
f 1 4 5
f 1 5 6
f 1 6 7
f 1 7 2
f 2 8 9
f 2 9 10
f 2 10 11
f 2 11 4
f 2 4 3
f 2 7 12
f 2 12 13
f 2 13 19
f 2 19 8
f 4 11 5
f 5 11 14
f 5 14 15
f 5 15 16
f 5 16 17
f 5 17 6
f 6 17 18
f 6 18 7
f 7 18 12
f 8 19 20
f 8 20 34
f 8 34 49
f 8 49 36
f 8 36 35
f 8 35 21
f 8 21 9
f 9 21 22
f 9 22 10
f 10 22 23
f 10 23 24
f 10 24 11
f 11 24 14
f 12 18 17
f 12 17 13
f 13 25 26
f 13 26 27
f 13 27 28
f 13 28 19
f 13 17 25
f 14 24 29
f 14 29 30
f 14 30 31
f 14 31 15
f 15 31 16
f 16 31 32
f 16 32 25
f 16 25 17
f 19 28 33
f 19 33 34
f 19 34 20
f 21 35 22
f 22 35 36
f 22 36 37
f 22 37 23
f 23 37 29
f 23 29 24
f 25 38 39
f 25 39 26
f 25 32 38
f 26 39 40
f 26 40 27
f 27 41 42
f 27 42 28
f 27 40 41
f 28 42 43
f 28 43 33
f 29 37 44
f 29 44 45
f 29 45 46
f 29 46 30
f 30 46 47
f 30 47 32
f 30 32 31
f 32 47 38
f 33 43 48
f 33 48 49
f 33 49 34
f 36 49 44
f 36 44 37
f 38 47 39
f 39 50 51
f 39 51 40
f 39 47 50
f 40 51 52
f 40 52 41
f 41 53 42
f 41 52 54
f 41 54 53
f 42 55 56
f 42 56 43
f 42 53 55
f 43 56 48
f 44 49 48
f 44 48 45
f 45 48 57
f 45 57 58
f 45 58 46
f 46 58 47
f 47 58 50
f 48 56 59
f 48 59 60
f 48 60 57
f 50 58 57
f 50 57 60
f 50 60 61
f 50 61 62
f 50 62 51
f 51 62 61
f 51 61 63
f 51 63 54
f 51 54 52
f 53 54 64
f 53 64 55
f 54 63 59
f 54 59 64
f 55 64 56
f 56 64 59
f 59 63 60
f 60 63 61

