# https://github.com/mikedh/trimesh
v 0.02124831 -0.02740161 -0.01547221
v 0.00957327 -0.02740161 -0.01502043
v 0.02031852 -0.02174458 -0.01520460
v 0.02103143 -0.02174458 -0.01522762
v 0.02124831 -0.02175530 -0.01518733
v 0.02124831 -0.02740161 0.01388769
v 0.01675395 -0.00002490 -0.01377732
v -0.00068883 -0.02740161 -0.01445355
v -0.00068883 -0.00002490 -0.01289678
v 0.02124831 -0.00002490 -0.01381185
v 0.02124831 -0.02723279 0.01391358
v 0.02108082 -0.02740161 0.01391071
v -0.00068883 -0.02740161 0.01318268
v -0.00068883 -0.00002490 0.01286615
v 0.02124831 -0.00002490 0.01314815
v 0.02124831 -0.02673702 0.01392222
v 0.02103143 -0.02673702 0.01392509
v 0.02036791 -0.02740161 0.01391934
v 0.01039784 -0.02740161 0.01362870
v -0.00068883 -0.02530870 0.01316254
v -0.00068883 -0.00018033 0.01286902
v 0.01109573 -0.02740161 0.01365460
v -0.00068883 -0.00035719 0.01287190
v -0.00068883 -0.00107002 0.01288053
f 1 2 3
f 1 3 4
f 1 4 5
f 1 5 10
f 1 10 15
f 1 15 16
f 1 16 11
f 1 11 6
f 1 6 12
f 1 12 18
f 1 18 22
f 1 22 19
f 1 19 13
f 1 13 8
f 1 8 2
f 2 7 3
f 2 8 9
f 2 9 7
f 3 7 4
f 4 7 10
f 4 10 5
f 6 11 12
f 7 9 14
f 7 14 15
f 7 15 10
f 8 13 20
f 8 20 24
f 8 24 23
f 8 23 21
f 8 21 14
f 8 14 9
f 11 16 17
f 11 17 18
f 11 18 12
f 13 19 20
f 14 21 17
f 14 17 15
f 15 17 16
f 17 21 18
f 18 21 22
f 19 22 23
f 19 23 24
f 19 24 20
f 21 23 22

