# https://github.com/mikedh/trimesh
v -0.00879487 -0.03478263 0.00581421
v -0.00847912 -0.03524453 0.00518699
v -0.00824214 -0.03480014 0.00582050
v -0.00879487 -0.03435576 0.00624074
v -0.00879487 -0.03440027 0.00517137
v -0.00674430 -0.03518688 0.00517371
v -0.00763052 -0.03524745 0.00520284
v -0.00763052 -0.03479868 0.00581491
v -0.00763052 -0.03437181 0.00625682
v -0.00824214 -0.03436962 0.00624983
v -0.00879487 -0.03383329 0.00667054
v -0.00336051 -0.03403469 0.00517137
v -0.00879487 -0.03022274 0.00755251
v -0.00154693 -0.02779284 0.00755251
v -0.00154693 -0.03215133 0.00517207
v -0.00552815 -0.03490814 0.00528372
v -0.00641011 -0.03475636 0.00575850
v -0.00702031 -0.03466004 0.00593937
v -0.00702031 -0.03435503 0.00625286
v -0.00641011 -0.03383840 0.00666937
v -0.00702031 -0.03384278 0.00667776
v -0.00763052 -0.03384278 0.00668009
v -0.00824214 -0.03399163 0.00655470
v -0.00824214 -0.03368662 0.00679780
v -0.00879487 -0.03293941 0.00728866
v -0.00160866 -0.03301530 0.00533267
v -0.00213726 -0.03289709 0.00599624
v -0.00391182 -0.03422295 0.00528442
v -0.00879487 -0.03247240 0.00751009
v -0.00652576 -0.03226225 0.00755251
v -0.00508682 -0.03208566 0.00755251
v -0.00331013 -0.03136472 0.00755088
v -0.00213230 -0.03069266 0.00750216
v -0.00157815 -0.03042486 0.00744110
v -0.00154693 -0.03267015 0.00581094
v -0.00330446 -0.03288614 0.00675188
v -0.00396858 -0.03308097 0.00683066
v -0.00579919 -0.03411204 0.00632931
v -0.00641011 -0.03433021 0.00623748
v -0.00763052 -0.03293138 0.00728144
v -0.00559414 -0.03363335 0.00676074
v -0.00641011 -0.03275771 0.00735276
v -0.00702031 -0.03277085 0.00736068
v -0.00830883 -0.03248116 0.00750473
v -0.00216848 -0.03256580 0.00641695
v -0.00763052 -0.03246875 0.00750240
v -0.00589640 -0.03221701 0.00755251
v -0.00448726 -0.03196088 0.00753759
v -0.00458021 -0.03245708 0.00737817
v -0.00407502 -0.03240819 0.00735160
v -0.00277372 -0.03143696 0.00741336
v -0.00392956 -0.03189813 0.00749144
v -0.00351377 -0.03229727 0.00729426
v -0.00233026 -0.03122899 0.00736814
v -0.00159092 -0.03164784 0.00680899
v -0.00158311 -0.03228122 0.00630157
v -0.00257008 -0.03244613 0.00678451
v -0.00391111 -0.03263220 0.00717329
v -0.00458021 -0.03276282 0.00719077
v -0.00518899 -0.03266650 0.00731547
v -0.00579919 -0.03272488 0.00733901
v -0.00198613 -0.03223890 0.00662439
v -0.00216848 -0.03204188 0.00684931
v -0.00278294 -0.03186675 0.00721897
f 1 2 3
f 1 3 4
f 1 4 11
f 1 11 25
f 1 25 29
f 1 29 13
f 1 13 5
f 1 5 2
f 2 6 7
f 2 7 3
f 2 5 6
f 3 8 9
f 3 9 10
f 3 10 4
f 3 7 8
f 4 10 11
f 5 12 6
f 5 13 14
f 5 14 15
f 5 15 12
f 6 16 17
f 6 17 7
f 6 12 16
f 7 17 8
f 8 17 18
f 8 18 9
f 9 18 19
f 9 19 20
f 9 20 21
f 9 21 22
f 9 22 23
f 9 23 10
f 10 23 11
f 11 23 24
f 11 24 25
f 12 15 26
f 12 26 27
f 12 27 28
f 12 28 16
f 13 29 30
f 13 30 47
f 13 47 31
f 13 31 14
f 14 31 32
f 14 32 33
f 14 33 34
f 14 34 35
f 14 35 15
f 15 35 26
f 16 28 36
f 16 36 37
f 16 37 38
f 16 38 17
f 17 38 39
f 17 39 18
f 18 39 19
f 19 39 20
f 20 40 21
f 20 39 41
f 20 41 42
f 20 42 40
f 21 40 24
f 21 24 22
f 22 24 23
f 24 40 25
f 25 40 43
f 25 43 44
f 25 44 29
f 26 35 27
f 27 36 28
f 27 35 45
f 27 45 36
f 29 44 30
f 30 44 46
f 30 46 47
f 31 48 32
f 31 47 49
f 31 49 50
f 31 50 48
f 32 51 33
f 32 48 52
f 32 52 53
f 32 53 51
f 33 51 54
f 33 54 34
f 34 54 55
f 34 55 35
f 35 55 56
f 35 56 45
f 36 45 57
f 36 57 53
f 36 53 58
f 36 58 37
f 37 41 38
f 37 58 41
f 38 41 39
f 40 42 43
f 41 58 50
f 41 50 59
f 41 59 60
f 41 60 61
f 41 61 42
f 42 61 47
f 42 47 46
f 42 46 43
f 43 46 44
f 45 56 62
f 45 62 57
f 47 61 49
f 48 50 52
f 49 61 60
f 49 60 59
f 49 59 50
f 50 58 53
f 50 53 52
f 51 53 54
f 53 57 63
f 53 63 64
f 53 64 54
f 54 64 55
f 55 64 63
f 55 63 62
f 55 62 56
f 57 62 63

