# https://github.com/mikedh/trimesh
v -0.02962705 -0.00708900 -0.00167392
v -0.02984265 -0.00930459 -0.00714704
v -0.02978245 -0.00890347 -0.00697435
v -0.02970504 -0.00824285 -0.00702036
v -0.02965630 -0.00708900 -0.00702036
v -0.03049061 -0.00708900 -0.00193673
v -0.03044932 -0.00714843 -0.00167392
v -0.03164144 -0.01720721 -0.00167392
v -0.02984265 -0.00930459 -0.00738212
v -0.02980481 -0.00885295 -0.00741048
v -0.02978990 -0.00708900 -0.00740355
v -0.03073889 -0.00708900 -0.00282791
v -0.03268963 -0.00709891 -0.00640586
v -0.03324411 -0.00719894 -0.00635355
v -0.03358185 -0.00731779 -0.00610586
v -0.03058522 -0.00740297 -0.00167392
v -0.03236795 -0.01718047 -0.00167392
v -0.03429116 -0.01720721 -0.00610082
v -0.03172171 -0.01720721 -0.00487812
v -0.03188284 -0.01720721 -0.00534955
v -0.03105943 -0.01129634 -0.00807540
v -0.03103248 -0.01068524 -0.00811196
v -0.03002557 -0.00708900 -0.00740355
v -0.03105599 -0.01007514 -0.00802624
v -0.03115748 -0.00965718 -0.00797141
v -0.03083408 -0.00708900 -0.00335921
v -0.03024633 -0.00708900 -0.00702036
v -0.03266325 -0.00710386 -0.00685586
v -0.03089027 -0.00708900 -0.00457938
v -0.03088912 -0.00708900 -0.00518884
v -0.03073029 -0.00708900 -0.00583863
v -0.03302048 -0.00720785 -0.00674935
v -0.03545288 -0.01093186 -0.00611972
v -0.03133007 -0.00889851 -0.00167392
v -0.03248148 -0.01678925 -0.00167392
v -0.03541676 -0.01710024 -0.00610649
v -0.03400675 -0.01720721 -0.00620355
v -0.03510597 -0.01712005 -0.00614556
v -0.03213801 -0.01720721 -0.00564262
v -0.03116035 -0.01165190 -0.00797330
v -0.03128879 -0.01129634 -0.00807540
v -0.03132893 -0.01068524 -0.00811196
v -0.03186851 -0.00720885 -0.00736952
v -0.03129624 -0.01007514 -0.00802624
v -0.03547926 -0.01129634 -0.00611972
v -0.03548098 -0.01251556 -0.00599367
v -0.03245969 -0.01251258 -0.00167392
v -0.03237712 -0.01186385 -0.00167392
v -0.03228193 -0.01142906 -0.00167392
v -0.03210704 -0.01077141 -0.00167392
v -0.03183410 -0.01000977 -0.00167392
v -0.03162481 -0.00954229 -0.00167392
v -0.03259387 -0.01617915 -0.00167392
v -0.03545116 -0.01678925 -0.00611027
v -0.03510597 -0.01617915 -0.00636552
v -0.03510597 -0.01678925 -0.00628485
v -0.03346774 -0.01720721 -0.00624577
v -0.03293447 -0.01720721 -0.00617582
v -0.03449529 -0.01678925 -0.00631825
v -0.03548499 -0.01617915 -0.00610901
v -0.03548385 -0.01190644 -0.00610586
v -0.03263057 -0.01495795 -0.00167392
v -0.03548385 -0.01556805 -0.00599809
v -0.03263343 -0.01556805 -0.00167392
f 1 2 3
f 1 3 4
f 1 4 5
f 1 5 11
f 1 11 23
f 1 23 27
f 1 27 31
f 1 31 30
f 1 30 29
f 1 29 26
f 1 26 12
f 1 12 6
f 1 6 7
f 1 7 16
f 1 16 34
f 1 34 52
f 1 52 51
f 1 51 50
f 1 50 49
f 1 49 48
f 1 48 47
f 1 47 62
f 1 62 64
f 1 64 53
f 1 53 35
f 1 35 17
f 1 17 8
f 1 8 2
f 2 9 3
f 2 8 9
f 3 9 4
f 4 9 10
f 4 10 5
f 5 10 11
f 6 12 13
f 6 13 14
f 6 14 15
f 6 15 7
f 7 15 16
f 8 17 18
f 8 18 37
f 8 37 57
f 8 57 58
f 8 58 39
f 8 39 20
f 8 20 19
f 8 19 9
f 9 19 20
f 9 20 21
f 9 21 10
f 10 21 22
f 10 22 11
f 11 22 24
f 11 24 25
f 11 25 23
f 12 26 13
f 13 27 23
f 13 23 28
f 13 28 14
f 13 26 29
f 13 29 30
f 13 30 31
f 13 31 27
f 14 28 32
f 14 32 15
f 15 32 33
f 15 33 16
f 16 33 34
f 17 35 36
f 17 36 18
f 18 36 38
f 18 38 37
f 20 39 40
f 20 40 21
f 21 40 41
f 21 41 42
f 21 42 22
f 22 42 25
f 22 25 24
f 23 25 43
f 23 43 28
f 25 42 44
f 25 44 43
f 28 43 32
f 32 43 33
f 33 45 46
f 33 46 47
f 33 47 48
f 33 48 49
f 33 49 50
f 33 50 51
f 33 51 52
f 33 52 34
f 33 43 42
f 33 42 45
f 35 53 36
f 36 53 54
f 36 54 55
f 36 55 56
f 36 56 38
f 37 38 56
f 37 56 57
f 39 58 40
f 40 58 57
f 40 57 41
f 41 57 59
f 41 59 56
f 41 56 55
f 41 55 42
f 42 43 44
f 42 55 45
f 45 55 60
f 45 60 61
f 45 61 46
f 46 62 47
f 46 61 63
f 46 63 64
f 46 64 62
f 53 64 63
f 53 63 54
f 54 63 60
f 54 60 55
f 56 59 57
f 60 63 61

