# https://github.com/mikedh/trimesh
v 0.02448431 0.02831146 -0.00779389
v 0.02337605 0.02831146 -0.00740335
v 0.02310724 0.02865168 -0.00913627
v 0.02228431 0.02943540 -0.00926276
v 0.01774014 0.03422298 -0.00856864
v 0.02363885 0.02850903 -0.00299673
v 0.02305468 0.02831146 0.00029677
v 0.01743830 0.02831146 0.00686954
v 0.02234287 0.02900173 -0.00924379
v 0.00914287 0.03183411 0.00686954
v 0.01373960 0.03355649 -0.00928331
v 0.01623243 0.03386719 -0.00924853
v 0.01700581 0.03404590 -0.00921533
v 0.00962642 0.03577976 -0.00899239
v 0.00938465 0.03624868 -0.00785555
v 0.00939366 0.03667498 -0.00563564
v 0.01129782 0.03620114 -0.00518818
v 0.01138342 0.03612244 -0.00434702
v 0.01245864 0.03550841 -0.00274533
v 0.01347680 0.03487717 -0.00124958
v 0.01424267 0.03430578 -0.00030722
v 0.01768458 0.03233910 0.00054027
v 0.01841591 0.03182427 0.00054185
v 0.02075106 0.03051998 -0.00124009
v 0.02153946 0.02993055 -0.00128120
v 0.02156799 0.03007320 -0.00213501
v 0.02197946 0.02991825 -0.00304416
v 0.02260867 0.02932227 -0.00265520
v 0.02216417 0.02946737 -0.00152469
v 0.02173318 0.02840000 0.00473659
v 0.02094779 0.02831146 0.00557459
v 0.02014588 0.02831146 0.00616120
v 0.01903011 0.02849673 0.00676203
v 0.01624745 0.03052818 0.00677151
v 0.01158915 0.03255061 0.00677942
v 0.00958137 0.03307527 0.00668771
v 0.00934410 0.03389342 0.00595723
v 0.00930355 0.03487471 0.00426700
v 0.00915188 0.03663153 -0.00344735
v 0.00943120 0.03668645 -0.00445611
v 0.01080076 0.03622737 -0.00366080
v 0.01221536 0.03545840 -0.00188677
v 0.01214028 0.03421642 0.00451524
v 0.01409100 0.03421642 0.00047070
v 0.01574137 0.03240714 0.00485992
v 0.01709591 0.03175049 0.00427807
v 0.01888895 0.03050113 0.00449626
v 0.01771611 0.03114548 0.00489313
v 0.01808704 0.03057327 0.00541648
v 0.01728813 0.02997072 0.00666241
v 0.01597714 0.03120942 0.00618491
v 0.01551461 0.03091512 0.00676361
v 0.01255925 0.03228991 0.00673831
v 0.01190601 0.03276457 0.00647900
v 0.01101850 0.03431480 0.00497693
v 0.00964895 0.03439022 0.00528525
v 0.01021509 0.03482716 0.00394761
v 0.00922396 0.03634706 -0.00190733
v 0.01007543 0.03629213 -0.00274533
v 0.01166274 0.03542971 -0.00075784
v 0.01397536 0.03232926 0.00606791
v 0.01494997 0.03235222 0.00548447
v 0.01575038 0.03191691 0.00550661
v 0.01779571 0.03120287 0.00457690
f 1 2 3
f 1 3 4
f 1 4 5
f 1 5 6
f 1 6 7
f 1 7 31
f 1 31 32
f 1 32 8
f 1 8 2
f 2 8 3
f 3 9 4
f 3 8 10
f 3 10 9
f 4 11 12
f 4 12 13
f 4 13 5
f 4 9 11
f 5 13 14
f 5 14 15
f 5 15 16
f 5 16 17
f 5 17 18
f 5 18 19
f 5 19 20
f 5 20 21
f 5 21 22
f 5 22 23
f 5 23 24
f 5 24 25
f 5 25 26
f 5 26 27
f 5 27 6
f 6 27 28
f 6 28 29
f 6 29 7
f 7 29 30
f 7 30 31
f 8 32 33
f 8 33 34
f 8 34 35
f 8 35 10
f 9 10 11
f 10 35 36
f 10 36 37
f 10 37 38
f 10 38 39
f 10 39 15
f 10 15 14
f 10 14 11
f 11 14 12
f 12 14 13
f 15 39 16
f 16 40 17
f 16 39 40
f 17 40 18
f 18 40 41
f 18 41 19
f 19 42 20
f 19 41 42
f 20 42 43
f 20 43 44
f 20 44 21
f 21 44 22
f 22 44 45
f 22 45 46
f 22 46 47
f 22 47 23
f 23 47 30
f 23 30 24
f 24 30 25
f 25 29 27
f 25 27 26
f 25 30 29
f 27 29 28
f 30 47 48
f 30 48 49
f 30 49 31
f 31 49 50
f 31 50 32
f 32 50 33
f 33 50 34
f 34 50 49
f 34 49 51
f 34 51 52
f 34 52 35
f 35 52 53
f 35 53 54
f 35 54 37
f 35 37 36
f 37 54 55
f 37 55 56
f 37 56 38
f 38 56 55
f 38 55 57
f 38 57 58
f 38 58 39
f 39 58 59
f 39 59 41
f 39 41 40
f 41 59 42
f 42 60 43
f 42 59 60
f 43 60 59
f 43 59 58
f 43 58 57
f 43 57 55
f 43 55 61
f 43 61 62
f 43 62 45
f 43 45 44
f 45 62 63
f 45 63 49
f 45 49 48
f 45 48 46
f 46 48 64
f 46 64 47
f 47 64 48
f 49 63 51
f 51 63 62
f 51 62 61
f 51 61 52
f 52 61 53
f 53 61 54
f 54 61 55

