# https://github.com/mikedh/trimesh
v -0.02834472 -0.01720721 0.00707082
v -0.03066526 -0.01720721 0.00462574
v -0.03052137 -0.01720721 0.00611083
v -0.02974568 -0.01741565 0.00701242
v -0.02899222 -0.01918063 0.00707082
v -0.01794547 -0.02771622 0.00707082
v -0.03128529 -0.01801192 0.00462574
v -0.03130753 -0.01729639 0.00484378
v -0.02186187 -0.02780125 0.00462574
v -0.03106684 -0.01865280 0.00482535
v -0.03061817 -0.01909145 0.00535788
v -0.02991573 -0.01802748 0.00671756
v -0.02941473 -0.01854702 0.00697868
v -0.02935718 -0.01939114 0.00675777
v -0.02879078 -0.01982254 0.00695642
v -0.02822307 -0.02046029 0.00707082
v -0.02580704 -0.02336183 0.00707082
v -0.02039681 -0.02777740 0.00705766
v -0.02992358 -0.02108664 0.00462574
v -0.03062209 -0.01972195 0.00480285
v -0.02154139 -0.02780125 0.00635328
v -0.02220458 -0.02780125 0.00576068
v -0.02292795 -0.02772659 0.00495938
v -0.02566184 -0.02565776 0.00476408
v -0.02648332 -0.02495986 0.00471142
v -0.02951545 -0.02164455 0.00462574
v -0.02984901 -0.02078384 0.00523964
v -0.02950106 -0.02036800 0.00599332
v -0.02986079 -0.01917233 0.00631236
v -0.02994843 -0.01862272 0.00646841
v -0.02920021 -0.02087924 0.00599619
v -0.02882609 -0.02057747 0.00654547
v -0.02877116 -0.02026534 0.00677787
v -0.02814589 -0.02122457 0.00676495
v -0.02771553 -0.02145063 0.00695618
v -0.02721846 -0.02183432 0.00707082
v -0.02552449 -0.02403692 0.00688533
v -0.02504181 -0.02441958 0.00693536
v -0.02696339 -0.02269919 0.00677667
v -0.02115942 -0.02746008 0.00691884
v -0.02873060 -0.02263386 0.00477413
v -0.02938465 -0.02136456 0.00537511
v -0.02476057 -0.02494015 0.00677308
v -0.02521579 -0.02516207 0.00625683
v -0.02569324 -0.02507289 0.00587868
v -0.02617069 -0.02495882 0.00537535
v -0.02695031 -0.02450772 0.00480548
v -0.02755856 -0.02389796 0.00480237
v -0.02815505 -0.02327576 0.00479471
v -0.02810011 -0.02230616 0.00610868
v -0.02877508 -0.02123390 0.00618120
v -0.02814328 -0.02169537 0.00647774
v -0.02762004 -0.02228335 0.00656151
v -0.02618900 -0.02374138 0.00667160
v -0.02857887 -0.02244512 0.00532939
v -0.02561868 -0.02469750 0.00637171
v -0.02631327 -0.02447972 0.00588729
v -0.02679203 -0.02434906 0.00539210
v -0.02758211 -0.02361175 0.00528009
v -0.02766321 -0.02308910 0.00585522
v -0.02741206 -0.02284748 0.00634347
v -0.02643492 -0.02400166 0.00626473
v -0.02808441 -0.02289829 0.00549645
f 1 2 3
f 1 3 4
f 1 4 5
f 1 5 16
f 1 16 36
f 1 36 17
f 1 17 6
f 1 6 2
f 2 7 8
f 2 8 3
f 2 6 9
f 2 9 26
f 2 26 19
f 2 19 7
f 3 8 10
f 3 10 11
f 3 11 12
f 3 12 4
f 4 12 13
f 4 13 5
f 5 14 15
f 5 15 16
f 5 13 14
f 6 17 18
f 6 18 9
f 7 19 20
f 7 20 10
f 7 10 8
f 9 18 21
f 9 21 22
f 9 22 23
f 9 23 24
f 9 24 25
f 9 25 26
f 10 20 11
f 11 20 27
f 11 27 28
f 11 28 29
f 11 29 30
f 11 30 12
f 12 30 14
f 12 14 13
f 14 31 32
f 14 32 33
f 14 33 16
f 14 16 15
f 14 30 29
f 14 29 28
f 14 28 31
f 16 33 34
f 16 34 35
f 16 35 36
f 17 37 38
f 17 38 18
f 17 36 39
f 17 39 37
f 18 40 21
f 18 38 40
f 19 26 41
f 19 41 42
f 19 42 27
f 19 27 20
f 21 40 43
f 21 43 44
f 21 44 22
f 22 44 45
f 22 45 23
f 23 45 46
f 23 46 24
f 24 46 25
f 25 46 47
f 25 47 48
f 25 48 49
f 25 49 26
f 26 49 41
f 27 42 31
f 27 31 28
f 31 42 50
f 31 50 51
f 31 51 32
f 32 51 52
f 32 52 34
f 32 34 33
f 34 52 53
f 34 53 35
f 35 53 39
f 35 39 36
f 37 39 54
f 37 54 38
f 38 54 43
f 38 43 40
f 39 53 54
f 41 49 55
f 41 55 42
f 42 55 50
f 43 56 44
f 43 54 56
f 44 56 45
f 45 56 57
f 45 57 46
f 46 57 58
f 46 58 47
f 47 58 48
f 48 58 59
f 48 59 49
f 49 59 55
f 50 52 51
f 50 55 60
f 50 60 61
f 50 61 53
f 50 53 52
f 53 61 54
f 54 61 62
f 54 62 56
f 55 59 63
f 55 63 60
f 56 62 57
f 57 62 60
f 57 60 59
f 57 59 58
f 59 60 63
f 60 62 61

