# https://github.com/mikedh/trimesh
v -0.03088804 -0.00708828 -0.00488231
v -0.02660475 -0.00708828 0.00706946
v -0.02917971 -0.00708828 0.00371842
v -0.03073528 -0.00698560 -0.00314680
v -0.01955945 0.01237167 -0.00730561
v -0.03063241 -0.00689113 -0.00585483
v -0.03000582 -0.00678024 -0.00714726
v -0.02773948 -0.00705132 0.00702627
v -0.02071600 0.00483905 -0.00735680
v -0.02389262 -0.00344108 0.00706946
v -0.02234640 0.00031291 0.00706946
v -0.02809486 -0.00702256 0.00650002
v -0.02879939 -0.00698560 0.00482531
v -0.02815409 -0.00597933 0.00504764
v -0.02983436 -0.00698560 0.00100880
v -0.02986865 -0.00677203 0.00030340
v -0.02128648 0.00834661 -0.00818536
v -0.02749008 -0.00485396 0.00491808
v -0.00430607 0.02829121 0.00476772
v -0.01772019 0.01466349 -0.00669778
v -0.00614845 0.02940426 -0.00920586
v -0.02105891 0.00763606 -0.00823334
v -0.00659735 0.02735887 -0.00924105
v -0.02756178 -0.00623398 0.00658960
v -0.00329916 0.02909212 0.00528277
v -0.02339695 -0.00277160 0.00706946
v 0.00095919 0.03443970 -0.00720324
v -0.02127402 0.00031291 0.00706946
v 0.00095919 0.03199591 0.00528277
v -0.00002902 0.03243949 0.00522679
v -0.00073978 0.03186858 0.00523479
v -0.00232965 0.03019695 0.00528277
v -0.00277544 0.02969177 0.00528277
v -0.02813538 -0.00661595 0.00597218
v -0.00619833 0.02899354 -0.00925545
v -0.00741411 0.02689886 -0.00923146
v -0.02569759 -0.00234856 0.00499006
v -0.00385717 0.02864443 0.00501405
v -0.00243876 0.03051732 0.00456458
v -0.00230471 0.03097321 0.00366084
v -0.00368260 0.03235734 -0.00793103
v -0.00606428 0.02816799 -0.00926825
v -0.02253656 -0.00158462 0.00706946
v 0.00019231 0.03436988 -0.00715845
v 0.00095608 0.03486685 -0.00612515
v 0.00095919 0.03355665 0.00335533
v -0.02216870 -0.00104247 0.00706946
v 0.00095919 0.03299807 0.00514361
v 0.00044482 0.03296932 0.00474053
v -0.00064314 0.03242717 0.00426227
v -0.00139443 0.03160983 0.00462536
v -0.00122921 0.03140037 0.00521079
v -0.00182775 0.03078018 0.00523479
v -0.00184957 0.03114572 0.00461257
v -0.00185269 0.03145786 0.00366084
v -0.00022853 0.03434934 -0.00518782
v -0.00024412 0.03434112 -0.00610276
v -0.00119492 0.03202466 0.00396635
v 0.00086567 0.03487096 -0.00434486
v 0.00030142 0.03461631 -0.00579724
v 0.00072539 0.03483810 -0.00509984
v 0.00007074 0.03298986 0.00386238
v 0.00095919 0.03335950 0.00426547
f 1 2 3
f 1 3 4
f 1 4 5
f 1 5 6
f 1 6 7
f 1 7 2
f 2 8 3
f 2 7 9
f 2 9 10
f 2 10 26
f 2 26 43
f 2 43 47
f 2 47 28
f 2 28 11
f 2 11 8
f 3 8 12
f 3 12 13
f 3 13 14
f 3 14 15
f 3 15 4
f 4 15 16
f 4 16 5
f 5 17 7
f 5 7 6
f 5 16 15
f 5 15 18
f 5 18 19
f 5 19 20
f 5 20 21
f 5 21 17
f 7 17 22
f 7 22 23
f 7 23 9
f 8 24 12
f 8 11 25
f 8 25 24
f 9 26 10
f 9 23 27
f 9 27 26
f 11 28 29
f 11 29 30
f 11 30 31
f 11 31 32
f 11 32 33
f 11 33 25
f 12 24 34
f 12 34 13
f 13 34 14
f 14 34 18
f 14 18 15
f 17 21 35
f 17 35 36
f 17 36 22
f 18 34 24
f 18 24 37
f 18 37 19
f 19 37 24
f 19 24 38
f 19 38 39
f 19 39 40
f 19 40 41
f 19 41 20
f 20 41 21
f 21 41 27
f 21 27 35
f 22 36 23
f 23 36 42
f 23 42 27
f 24 25 38
f 25 33 38
f 26 27 43
f 27 29 43
f 27 42 35
f 27 41 44
f 27 44 45
f 27 45 46
f 27 46 63
f 27 63 48
f 27 48 29
f 28 47 29
f 29 48 30
f 29 47 43
f 30 48 49
f 30 49 50
f 30 50 31
f 31 51 52
f 31 52 53
f 31 53 32
f 31 50 51
f 32 53 54
f 32 54 39
f 32 39 38
f 32 38 33
f 35 42 36
f 39 54 40
f 40 54 55
f 40 55 41
f 41 50 56
f 41 56 57
f 41 57 44
f 41 55 58
f 41 58 50
f 44 57 45
f 45 59 46
f 45 57 60
f 45 60 61
f 45 61 59
f 46 62 63
f 46 59 62
f 48 63 49
f 49 63 62
f 49 62 50
f 50 58 51
f 50 62 56
f 51 58 55
f 51 55 54
f 51 54 53
f 51 53 52
f 56 59 61
f 56 61 57
f 56 62 59
f 57 61 60

