# https://github.com/mikedh/trimesh
v -0.02660973 -0.00708900 0.00707106
v -0.02962619 -0.00708900 -0.00167329
v -0.02886898 -0.00710188 0.00481051
v -0.02794723 -0.00711376 0.00679117
v -0.02940327 -0.01045150 0.00690158
v -0.02990277 -0.01251556 0.00695294
v -0.03001482 -0.01396950 0.00701457
v -0.03004136 -0.01483216 0.00704025
v -0.02994700 -0.01608406 0.00704966
v -0.02834766 -0.01720721 0.00707106
v -0.03051550 -0.00727421 -0.00167329
v -0.02992223 -0.00719498 0.00113678
v -0.03163952 -0.01720721 -0.00167329
v -0.02933604 -0.00737920 0.00378679
v -0.02933368 -0.00787837 0.00466585
v -0.03000361 -0.00957795 0.00507414
v -0.03000243 -0.01019003 0.00568100
v -0.02990041 -0.01055946 0.00622196
v -0.02970757 -0.01117551 0.00686478
v -0.02980252 -0.01178561 0.00691271
v -0.03045652 -0.01304147 0.00630328
v -0.03039460 -0.01373675 0.00651812
v -0.02996882 -0.01312566 0.00697605
v -0.03052670 -0.01434686 0.00641626
v -0.03054145 -0.01495795 0.00643852
v -0.03002013 -0.01543533 0.00703511
v -0.03052434 -0.01556805 0.00641369
v -0.03049368 -0.01617915 0.00636747
v -0.02989333 -0.01701804 0.00696920
v -0.03048424 -0.01698832 0.00622282
v -0.03132873 -0.00889851 -0.00167329
v -0.03158939 -0.00946801 -0.00167329
v -0.03061516 -0.01017022 0.00396825
v -0.02997413 -0.00868161 0.00382446
v -0.03238081 -0.01707548 -0.00136943
v -0.03259370 -0.01617915 -0.00167329
v -0.02993874 -0.00910155 0.00466414
v -0.03056916 -0.01041882 0.00455543
v -0.03058921 -0.01084074 0.00501337
v -0.03119899 -0.01249476 0.00486272
v -0.03128981 -0.01373675 0.00511950
v -0.03059452 -0.01373675 0.00621340
v -0.03117010 -0.01483712 0.00547301
v -0.03122258 -0.01546901 0.00537543
v -0.03131045 -0.01617915 0.00514775
v -0.03137650 -0.01689324 0.00477541
v -0.03184356 -0.01003850 -0.00167329
v -0.03120194 -0.01169944 0.00389122
v -0.03263439 -0.01556805 -0.00167329
v -0.03242032 -0.01505105 0.00052906
v -0.03119368 -0.01204609 0.00445529
v -0.03144609 -0.01251556 0.00396825
v -0.03134112 -0.01312566 0.00481992
v -0.03156285 -0.01434686 0.00457854
v -0.03160531 -0.01495795 0.00457854
v -0.03155932 -0.01556805 0.00457854
v -0.03175923 -0.01518773 0.00395028
v -0.03210599 -0.01077141 -0.00167329
v -0.03241383 -0.01437954 0.00056758
v -0.03263085 -0.01495795 -0.00167329
v -0.03175687 -0.01297313 0.00310546
v -0.03176690 -0.01414481 0.00378080
v -0.03232891 -0.01164695 -0.00167329
v -0.03245865 -0.01251258 -0.00167329
f 1 2 3
f 1 3 4
f 1 4 5
f 1 5 6
f 1 6 7
f 1 7 8
f 1 8 9
f 1 9 10
f 1 10 2
f 2 11 12
f 2 12 3
f 2 10 13
f 2 13 36
f 2 36 49
f 2 49 60
f 2 60 64
f 2 64 63
f 2 63 58
f 2 58 47
f 2 47 32
f 2 32 31
f 2 31 11
f 3 12 14
f 3 14 15
f 3 15 4
f 4 15 16
f 4 16 17
f 4 17 18
f 4 18 5
f 5 18 19
f 5 19 20
f 5 20 6
f 6 20 21
f 6 21 22
f 6 22 23
f 6 23 7
f 7 23 22
f 7 22 24
f 7 24 8
f 8 24 25
f 8 25 26
f 8 26 9
f 9 26 27
f 9 27 28
f 9 28 29
f 9 29 10
f 10 29 30
f 10 30 13
f 11 31 12
f 12 31 32
f 12 32 33
f 12 33 34
f 12 34 14
f 13 30 35
f 13 35 36
f 14 34 15
f 15 34 37
f 15 37 16
f 16 37 38
f 16 38 39
f 16 39 17
f 17 39 18
f 18 39 40
f 18 40 19
f 19 40 21
f 19 21 20
f 21 40 41
f 21 41 42
f 21 42 22
f 22 42 24
f 24 42 41
f 24 41 43
f 24 43 25
f 25 43 44
f 25 44 27
f 25 27 26
f 27 44 45
f 27 45 28
f 28 45 30
f 28 30 29
f 30 45 46
f 30 46 35
f 32 47 33
f 33 37 34
f 33 47 48
f 33 48 38
f 33 38 37
f 35 46 36
f 36 46 50
f 36 50 49
f 38 48 51
f 38 51 39
f 39 51 40
f 40 51 52
f 40 52 53
f 40 53 41
f 41 53 54
f 41 54 55
f 41 55 43
f 43 55 44
f 44 55 45
f 45 55 56
f 45 56 46
f 46 56 57
f 46 57 50
f 47 58 48
f 48 58 51
f 49 50 59
f 49 59 60
f 50 57 59
f 51 58 52
f 52 61 53
f 52 58 61
f 53 62 54
f 53 61 62
f 54 62 55
f 55 62 57
f 55 57 56
f 57 62 59
f 58 63 61
f 59 62 61
f 59 61 63
f 59 63 64
f 59 64 60

