# https://github.com/mikedh/trimesh
v -0.02368153 0.00031182 0.00516976
v -0.02366542 0.00031182 0.00520037
v -0.02364702 0.00032852 0.00521463
v -0.02344690 0.00065543 0.00516976
v -0.02274070 0.00031182 0.00516976
v -0.02365163 0.00031182 0.00522295
v -0.02330658 0.00085587 0.00516976
v -0.02283042 0.00031182 0.00641842
v -0.02253368 0.00053135 0.00663683
v -0.02198850 0.00123528 0.00672954
v -0.01473104 0.00495777 0.00820553
v -0.01763863 0.00176263 0.00820553
v -0.01880948 0.00049317 0.00820553
v -0.01902341 0.00031182 0.00820553
v -0.01942826 0.00458791 0.00516976
v -0.00658796 0.01512543 0.00820553
v -0.02198160 0.00183661 0.00610937
v -0.00612330 0.02468937 0.00551684
v -0.00633492 0.02468937 0.00519650
v -0.00635103 0.02468937 0.00516976
v -0.02260729 0.00031182 0.00673430
v -0.02197470 0.00060771 0.00732326
v -0.02209662 0.00091792 0.00687634
v -0.02092116 0.00031182 0.00820553
v -0.01828961 0.00607452 0.00516976
v -0.01802278 0.00642291 0.00516976
v -0.00554592 0.01653091 0.00820553
v -0.00617850 0.02452950 0.00558697
v -0.00590937 0.02468937 0.00576021
v -0.00538720 0.02468937 0.00516976
v -0.02239106 0.00031182 0.00701660
v -0.02235195 0.00031182 0.00706474
v -0.02233355 0.00031182 0.00708702
v -0.02206211 0.00031182 0.00741093
v -0.02173777 0.00031182 0.00768193
v -0.00554132 0.02468937 0.00613552
v -0.00583346 0.02468937 0.00584282
v -0.02107068 0.00031659 0.00812232
v -0.02107758 0.00031182 0.00812054
v -0.00221508 0.02468937 0.00820553
v -0.00261073 0.02468937 0.00802694
v -0.01618713 0.00890457 0.00516976
v -0.00428075 0.01831580 0.00820553
v -0.00018391 0.02468937 0.00820553
v -0.00735856 0.02148707 0.00516976
v -0.02166876 0.00031182 0.00773364
v -0.00523078 0.02468937 0.00637295
v -0.00376088 0.02468937 0.00738091
v -0.02137892 0.00031182 0.00794730
v -0.00763920 0.02104801 0.00516976
v -0.00234850 0.02125800 0.00820553
v -0.00186773 0.02200250 0.00820553
v -0.00482823 0.02468937 0.00667368
v -0.00402082 0.02468937 0.00721302
v -0.00405532 0.02468937 0.00719043
v -0.00457059 0.02468937 0.00685108
f 1 2 3
f 1 3 4
f 1 4 7
f 1 7 20
f 1 20 30
f 1 30 45
f 1 45 50
f 1 50 42
f 1 42 26
f 1 26 25
f 1 25 15
f 1 15 5
f 1 5 14
f 1 14 24
f 1 24 39
f 1 39 49
f 1 49 46
f 1 46 35
f 1 35 34
f 1 34 33
f 1 33 32
f 1 32 31
f 1 31 21
f 1 21 8
f 1 8 6
f 1 6 2
f 2 6 3
f 3 7 4
f 3 6 8
f 3 8 9
f 3 9 10
f 3 10 7
f 5 11 12
f 5 12 13
f 5 13 14
f 5 15 16
f 5 16 11
f 7 10 17
f 7 17 18
f 7 18 19
f 7 19 20
f 8 21 9
f 9 21 22
f 9 22 23
f 9 23 10
f 10 23 22
f 10 22 18
f 10 18 17
f 11 16 27
f 11 27 43
f 11 43 51
f 11 51 52
f 11 52 44
f 11 44 40
f 11 40 24
f 11 24 14
f 11 14 13
f 11 13 12
f 15 25 16
f 16 25 26
f 16 26 27
f 18 28 29
f 18 29 37
f 18 37 36
f 18 36 47
f 18 47 53
f 18 53 56
f 18 56 55
f 18 55 54
f 18 54 48
f 18 48 41
f 18 41 40
f 18 40 44
f 18 44 30
f 18 30 20
f 18 20 19
f 18 22 28
f 21 31 22
f 22 31 32
f 22 32 33
f 22 33 34
f 22 34 35
f 22 35 36
f 22 36 37
f 22 37 29
f 22 29 28
f 24 38 39
f 24 40 41
f 24 41 38
f 26 42 27
f 27 42 43
f 30 44 45
f 35 46 47
f 35 47 36
f 38 41 39
f 39 41 48
f 39 48 49
f 42 50 43
f 43 50 51
f 44 52 45
f 45 52 50
f 46 49 53
f 46 53 47
f 48 54 49
f 49 54 55
f 49 55 56
f 49 56 53
f 50 52 51

