# https://github.com/mikedh/trimesh
v -0.05814700 0.00455182 -0.00374712
v -0.06029111 -0.00597403 -0.00374712
v -0.05840193 -0.00451488 -0.00378013
v -0.05814700 0.00080066 -0.00625831
v -0.05814700 0.00451284 -0.00663545
v -0.07453508 0.00455182 -0.01113299
v -0.07758098 0.00455182 -0.00374712
v -0.06194057 -0.00695632 -0.00374712
v -0.06352155 -0.00494106 -0.00760180
v -0.06167232 -0.00343124 -0.00762738
v -0.06027018 -0.00089626 -0.00776024
v -0.05814700 0.00268468 -0.00683350
v -0.06152963 0.00089421 -0.00906907
v -0.06332749 0.00371505 -0.00937028
v -0.06534603 0.00451284 -0.00984974
v -0.07429347 0.00268468 -0.01187983
v -0.07683140 0.00268468 -0.01185094
v -0.07690369 0.00438810 -0.01115197
v -0.07168134 0.00451414 -0.01101415
v -0.07758098 -0.00608187 -0.00857393
v -0.07758098 -0.00742407 -0.00374712
v -0.06506447 -0.00815300 -0.00374712
v -0.06866779 -0.00692123 -0.00775612
v -0.06679384 -0.00550107 -0.00877941
v -0.06476578 -0.00396397 -0.00922421
v -0.06288801 -0.00247104 -0.00904679
v -0.06176364 -0.00089626 -0.00893208
v -0.06355579 -0.00089626 -0.00988853
v -0.06355579 0.00089421 -0.01006761
v -0.06622118 0.00277564 -0.01075420
v -0.06753771 0.00411394 -0.01058173
v -0.06932606 0.00440239 -0.01076493
v -0.07429347 0.00089421 -0.01214720
v -0.07683140 0.00089421 -0.01217609
v -0.07250322 0.00268468 -0.01175687
v -0.07250322 0.00089421 -0.01203167
v -0.07071297 0.00268468 -0.01157531
v -0.07282284 -0.00751113 -0.00691520
v -0.07369418 -0.00872210 -0.00389236
v -0.07683140 -0.00089626 -0.01208201
v -0.07701974 -0.00386652 -0.01091925
v -0.07250322 -0.00581421 -0.00940412
v -0.07071297 -0.00702258 -0.00789971
v -0.07071297 -0.00790612 -0.00626657
v -0.06892273 -0.00571806 -0.00928115
v -0.06894746 -0.00387821 -0.01055119
v -0.06713628 -0.00273610 -0.01074760
v -0.06561048 -0.00157970 -0.01060401
v -0.06533082 0.00089421 -0.01074430
v -0.06713628 0.00089421 -0.01127163
v -0.06892273 0.00268468 -0.01133930
v -0.07429347 -0.00089626 -0.01202012
v -0.07250322 -0.00089626 -0.01194337
v -0.07071297 0.00089421 -0.01187240
v -0.07071297 -0.00089626 -0.01179318
v -0.07429347 -0.00268283 -0.01153158
v -0.07429347 -0.00437196 -0.01062547
v -0.07071297 -0.00581031 -0.00936946
v -0.07250322 -0.00432908 -0.01061474
v -0.07071297 -0.00345073 -0.01093328
v -0.07250322 -0.00268283 -0.01146556
v -0.06892273 -0.00089626 -0.01155221
v -0.06713628 -0.00089626 -0.01120808
v -0.06892273 0.00089421 -0.01163556
f 1 2 3
f 1 3 4
f 1 4 12
f 1 12 5
f 1 5 6
f 1 6 7
f 1 7 21
f 1 21 22
f 1 22 8
f 1 8 2
f 2 8 9
f 2 9 3
f 3 9 10
f 3 10 11
f 3 11 4
f 4 11 12
f 5 12 13
f 5 13 14
f 5 14 15
f 5 15 6
f 6 16 17
f 6 17 18
f 6 18 7
f 6 15 19
f 6 19 16
f 7 18 20
f 7 20 21
f 8 22 23
f 8 23 24
f 8 24 9
f 9 24 25
f 9 25 10
f 10 25 26
f 10 26 27
f 10 27 11
f 11 27 12
f 12 27 13
f 13 27 28
f 13 28 29
f 13 29 14
f 14 29 30
f 14 30 15
f 15 30 31
f 15 31 32
f 15 32 19
f 16 33 34
f 16 34 17
f 16 19 35
f 16 35 36
f 16 36 33
f 17 34 18
f 18 34 20
f 19 32 37
f 19 37 35
f 20 38 39
f 20 39 21
f 20 34 40
f 20 40 41
f 20 41 42
f 20 42 43
f 20 43 38
f 21 39 22
f 22 39 44
f 22 44 23
f 23 45 24
f 23 44 43
f 23 43 45
f 24 45 25
f 25 45 46
f 25 46 47
f 25 47 48
f 25 48 26
f 26 28 27
f 26 48 28
f 28 48 29
f 29 48 49
f 29 49 30
f 30 50 51
f 30 51 31
f 30 49 50
f 31 51 32
f 32 51 37
f 33 52 40
f 33 40 34
f 33 36 53
f 33 53 52
f 35 37 54
f 35 54 36
f 36 54 55
f 36 55 53
f 37 51 54
f 38 43 44
f 38 44 39
f 40 52 56
f 40 56 41
f 41 56 57
f 41 57 42
f 42 58 43
f 42 57 58
f 43 58 45
f 45 58 59
f 45 59 46
f 46 59 60
f 46 60 61
f 46 61 47
f 47 62 63
f 47 63 48
f 47 61 55
f 47 55 62
f 48 63 49
f 49 63 50
f 50 63 64
f 50 64 51
f 51 64 54
f 52 53 61
f 52 61 56
f 53 55 61
f 54 64 55
f 55 64 62
f 56 61 59
f 56 59 57
f 57 59 58
f 59 61 60
f 62 64 63

