# https://github.com/mikedh/trimesh
v -0.05222172 -0.00626454 0.00158221
v -0.05281242 -0.00626454 0.00156656
v -0.05630385 -0.00819416 0.00061429
v -0.05222172 -0.00762441 0.00095038
v -0.05222172 -0.00447554 0.00129060
v -0.05281242 -0.00447554 0.00127742
v -0.05639255 -0.00626454 0.00141498
v -0.05814320 -0.00447554 0.00107642
v -0.05814320 -0.00797815 0.00060028
v -0.05564823 -0.00896688 0.00002529
v -0.05272952 -0.00820141 0.00066948
v -0.05222172 -0.00820431 0.00067195
v -0.05222172 0.00584380 -0.00127625
v -0.05281242 0.00584380 -0.00127214
v -0.05599083 0.00022166 0.00005165
v -0.05814320 -0.00263871 0.00065383
v -0.05814320 -0.00268510 0.00066454
v -0.05814320 -0.00626454 0.00126176
v -0.05814320 -0.00793466 0.00061840
v -0.05814320 -0.00884075 -0.00081742
v -0.05564823 -0.00896688 -0.00019218
v -0.05535317 -0.00896688 0.00002529
v -0.05222172 -0.00879871 0.00017275
v -0.05814320 -0.00884800 -0.00083389
v -0.05222172 0.00584380 -0.00520232
v -0.05323501 0.00584380 -0.00128779
v -0.05460306 0.00584380 -0.00134875
v -0.05502507 0.00584380 -0.00137181
v -0.05814320 -0.00103383 0.00024606
v -0.05535317 -0.00896688 -0.00019218
v -0.05222172 -0.00892774 -0.00030668
v -0.05814320 -0.00820576 -0.00227630
v -0.05630385 -0.00884075 -0.00083142
v -0.05294342 0.00584380 -0.00542803
v -0.05222172 0.00096538 -0.00552606
v -0.05814320 0.00584380 -0.00159588
v -0.05222172 -0.00879146 -0.00081412
v -0.05814320 -0.00819561 -0.00229278
v -0.05320370 0.00584380 -0.00550299
v -0.05222172 -0.00055831 -0.00552606
v -0.05814320 0.00268479 -0.00683337
v -0.05639255 0.00268479 -0.00643055
v -0.05639255 0.00447523 -0.00636630
v -0.05814320 0.00584380 -0.00618919
v -0.05222172 -0.00819996 -0.00175157
v -0.05814320 0.00080156 -0.00625674
v -0.05222172 -0.00142816 -0.00520726
v -0.05222172 -0.00789406 -0.00223347
v -0.05456712 0.00584380 -0.00577566
v -0.05222172 -0.00094829 -0.00539837
v -0.05814320 0.00447523 -0.00664720
v -0.05639255 0.00584380 -0.00607880
f 1 2 3
f 1 3 4
f 1 4 12
f 1 12 23
f 1 23 31
f 1 31 37
f 1 37 45
f 1 45 48
f 1 48 47
f 1 47 50
f 1 50 40
f 1 40 35
f 1 35 25
f 1 25 13
f 1 13 5
f 1 5 6
f 1 6 2
f 2 7 3
f 2 6 8
f 2 8 7
f 3 9 10
f 3 10 11
f 3 11 4
f 3 7 9
f 4 11 12
f 5 13 14
f 5 14 15
f 5 15 6
f 6 16 17
f 6 17 8
f 6 15 16
f 7 18 19
f 7 19 9
f 7 8 18
f 8 17 16
f 8 16 29
f 8 29 36
f 8 36 44
f 8 44 51
f 8 51 41
f 8 41 46
f 8 46 38
f 8 38 32
f 8 32 24
f 8 24 20
f 8 20 9
f 8 9 19
f 8 19 18
f 9 20 10
f 10 21 30
f 10 30 22
f 10 22 23
f 10 23 12
f 10 12 11
f 10 20 24
f 10 24 21
f 13 25 34
f 13 34 39
f 13 39 49
f 13 49 52
f 13 52 44
f 13 44 36
f 13 36 28
f 13 28 27
f 13 27 26
f 13 26 14
f 14 26 15
f 15 26 27
f 15 27 28
f 15 28 29
f 15 29 16
f 21 24 30
f 22 30 31
f 22 31 23
f 24 32 33
f 24 33 30
f 25 35 34
f 28 36 29
f 30 33 31
f 31 33 37
f 32 38 37
f 32 37 33
f 34 35 39
f 35 40 41
f 35 41 42
f 35 42 43
f 35 43 39
f 37 38 45
f 38 46 47
f 38 47 48
f 38 48 45
f 39 43 49
f 40 46 41
f 40 50 46
f 41 51 43
f 41 43 42
f 43 51 52
f 43 52 49
f 44 52 51
f 46 50 47

