# https://github.com/mikedh/trimesh
v -0.03652308 0.00342755 -0.00345938
v -0.03702709 -0.00091934 -0.00345938
v -0.03936274 -0.00005131 -0.00538801
v -0.03934123 0.00089447 -0.00540572
v -0.03934891 0.00186646 -0.00540001
v -0.04031698 0.00255192 -0.00564705
v -0.04075799 0.00342755 -0.00553995
v -0.05222114 0.00342755 -0.00345938
v -0.03755415 -0.00170707 -0.00345938
v -0.03976534 -0.00124390 -0.00513783
v -0.04033081 -0.00074691 -0.00562477
v -0.04028164 0.00089447 -0.00586068
v -0.04207180 0.00089447 -0.00637703
v -0.04207180 0.00268462 -0.00608144
v -0.04207180 0.00342755 -0.00579527
v -0.05222114 0.00342755 -0.00492192
v -0.05222114 -0.00344227 -0.00345938
v -0.03849609 -0.00258524 -0.00345938
v -0.04095929 -0.00195471 -0.00547626
v -0.04207180 -0.00089483 -0.00616255
v -0.04386195 -0.00089483 -0.00628764
v -0.04386195 0.00089447 -0.00627051
v -0.04288006 0.00342755 -0.00574273
v -0.05222114 0.00181237 -0.00536888
v -0.04744073 -0.00506084 -0.00345938
v -0.05222114 -0.00248128 -0.00436072
v -0.03864514 -0.00272216 -0.00345938
v -0.04207180 -0.00312617 -0.00499361
v -0.04207180 -0.00223109 -0.00563934
v -0.04028779 -0.00399757 -0.00345938
v -0.04386195 -0.00249733 -0.00575529
v -0.04565057 -0.00253452 -0.00573987
v -0.04744073 -0.00235365 -0.00565705
v -0.04923089 -0.00089483 -0.00579356
v -0.05222114 -0.00055759 -0.00552624
v -0.05222114 0.00096632 -0.00552624
v -0.04744073 -0.00423000 -0.00423278
v -0.04565057 -0.00342959 -0.00527263
v -0.04565057 -0.00432467 -0.00437786
v -0.04565057 -0.00520706 -0.00345938
v -0.05222114 -0.00142730 -0.00520752
v -0.05153581 -0.00162762 -0.00528463
v -0.04744073 -0.00324872 -0.00512755
v -0.04088707 -0.00429762 -0.00345938
v -0.04207180 -0.00470416 -0.00345938
v -0.04386195 -0.00339241 -0.00522865
v -0.04923089 -0.00203416 -0.00550882
v -0.05097187 -0.00097681 -0.00558822
v -0.05222114 -0.00094638 -0.00539858
v -0.04386195 -0.00501182 -0.00345938
v -0.04386195 -0.00421817 -0.00433388
v -0.05034186 -0.00183723 -0.00540544
v -0.04243137 -0.00478953 -0.00345938
f 1 2 3
f 1 3 4
f 1 4 5
f 1 5 6
f 1 6 7
f 1 7 15
f 1 15 23
f 1 23 16
f 1 16 8
f 1 8 17
f 1 17 25
f 1 25 40
f 1 40 50
f 1 50 53
f 1 53 45
f 1 45 44
f 1 44 30
f 1 30 27
f 1 27 18
f 1 18 9
f 1 9 2
f 2 9 10
f 2 10 3
f 3 10 11
f 3 11 12
f 3 12 4
f 4 12 5
f 5 12 6
f 6 12 13
f 6 13 14
f 6 14 7
f 7 14 15
f 8 16 24
f 8 24 36
f 8 36 35
f 8 35 49
f 8 49 41
f 8 41 26
f 8 26 17
f 9 18 19
f 9 19 10
f 10 19 11
f 11 19 20
f 11 20 12
f 12 20 13
f 13 20 21
f 13 21 22
f 13 22 14
f 14 23 15
f 14 22 24
f 14 24 16
f 14 16 23
f 17 26 25
f 18 27 19
f 19 28 29
f 19 29 20
f 19 27 30
f 19 30 28
f 20 29 31
f 20 31 21
f 21 31 32
f 21 32 33
f 21 33 34
f 21 34 35
f 21 35 36
f 21 36 22
f 22 36 24
f 25 37 38
f 25 38 39
f 25 39 40
f 25 26 37
f 26 41 42
f 26 42 43
f 26 43 37
f 28 30 44
f 28 44 45
f 28 45 46
f 28 46 29
f 29 46 31
f 31 46 38
f 31 38 32
f 32 38 33
f 33 38 43
f 33 43 47
f 33 47 48
f 33 48 34
f 34 48 35
f 35 48 42
f 35 42 49
f 37 43 38
f 38 46 39
f 39 46 40
f 40 46 51
f 40 51 50
f 41 49 42
f 42 48 52
f 42 52 43
f 43 52 47
f 45 53 46
f 46 53 51
f 47 52 48
f 50 51 53

