# https://github.com/mikedh/trimesh
v -0.01757762 0.01080205 -0.00167900
v -0.01697354 0.00996990 -0.00134511
v -0.01757762 0.01080205 -0.00192118
v -0.01815302 0.01080205 -0.00167900
v -0.02416875 0.01077848 -0.00142765
v -0.02295700 0.01077464 -0.00141973
v -0.02416875 0.01045998 -0.00053271
v -0.02237981 0.00942281 0.00009629
v -0.02115551 0.00909280 0.00003627
v -0.01697354 0.00805563 -0.00069652
v -0.01697354 0.00996990 -0.00135929
v -0.01758479 0.00905388 -0.00362519
v -0.03311885 0.00910541 -0.00371856
v -0.03528243 0.00911199 -0.00371731
v -0.01815302 0.01080205 -0.00192118
v -0.01697354 0.00985259 -0.00271399
v -0.03490959 0.01078834 -0.00164148
v -0.02416875 0.00956479 0.00013089
v -0.03528243 0.01078341 -0.00165982
v -0.03478590 0.00968484 -0.00062858
v -0.03410653 0.00898097 0.00000751
v -0.02237981 0.00871345 0.00009629
v -0.01697354 0.00520231 -0.00013213
v -0.01697354 0.00984162 -0.00271858
v -0.01697354 0.00811538 -0.00339927
v -0.01758479 0.00875292 -0.00362519
v -0.03132811 0.00805563 -0.00407871
v -0.03311885 0.00805563 -0.00412747
v -0.03528243 0.00805563 -0.00411164
v -0.03528243 0.01003185 -0.00271816
v -0.03490959 0.01000444 -0.00276568
v -0.03490959 0.01078834 -0.00187074
v -0.02416875 0.00865480 0.00013089
v -0.03528243 0.01078341 -0.00186199
v -0.03528243 0.00976597 -0.00077113
v -0.03528243 0.00926109 -0.00068652
v -0.03528243 0.00818281 -0.00059023
v -0.03528243 0.00520231 -0.00057606
v -0.03410653 0.00893821 0.00000751
v -0.01697354 0.00520231 -0.00292283
v -0.02058907 0.00520231 -0.00010128
v -0.01697354 0.00809126 -0.00339552
v -0.01961752 0.00710946 -0.00359518
v -0.02058907 0.00694336 -0.00362602
v -0.03132811 0.00638037 -0.00396283
v -0.03311885 0.00628115 -0.00398909
v -0.03528243 0.00611943 -0.00391447
v -0.03528243 0.01024071 -0.00248140
v -0.03490959 0.00520231 -0.00055938
v -0.03528243 0.00520231 -0.00359309
v -0.03418361 0.00520231 -0.00052812
v -0.02538767 0.00520231 -0.00023259
v -0.01772820 0.00520231 -0.00300119
v -0.01962469 0.00520231 -0.00314417
v -0.02058907 0.00604817 -0.00341677
v -0.02058907 0.00520231 -0.00320794
v -0.03501714 0.00520231 -0.00363103
v -0.03522149 0.00520231 -0.00360185
f 1 2 11
f 1 11 3
f 1 3 15
f 1 15 4
f 1 4 5
f 1 5 6
f 1 6 7
f 1 7 8
f 1 8 9
f 1 9 2
f 2 10 23
f 2 23 40
f 2 40 42
f 2 42 25
f 2 25 24
f 2 24 16
f 2 16 11
f 2 9 10
f 3 12 13
f 3 13 14
f 3 14 15
f 3 11 16
f 3 16 12
f 4 15 32
f 4 32 17
f 4 17 5
f 5 7 6
f 5 17 7
f 7 18 8
f 7 17 19
f 7 19 20
f 7 20 21
f 7 21 18
f 8 18 33
f 8 33 22
f 8 22 23
f 8 23 9
f 9 23 10
f 12 16 24
f 12 24 25
f 12 25 26
f 12 26 27
f 12 27 28
f 12 28 13
f 13 28 14
f 14 29 47
f 14 47 50
f 14 50 38
f 14 38 37
f 14 37 36
f 14 36 35
f 14 35 19
f 14 19 34
f 14 34 48
f 14 48 30
f 14 30 31
f 14 31 15
f 14 28 29
f 15 31 32
f 17 32 34
f 17 34 19
f 18 21 39
f 18 39 33
f 19 35 20
f 20 35 21
f 21 35 36
f 21 36 37
f 21 37 38
f 21 38 39
f 22 33 23
f 23 33 41
f 23 41 52
f 23 52 51
f 23 51 49
f 23 49 38
f 23 38 50
f 23 50 58
f 23 58 57
f 23 57 56
f 23 56 54
f 23 54 53
f 23 53 40
f 25 42 26
f 26 42 40
f 26 40 43
f 26 43 44
f 26 44 27
f 27 45 28
f 27 44 45
f 28 45 46
f 28 46 29
f 29 46 47
f 30 48 31
f 31 48 34
f 31 34 32
f 33 39 41
f 38 49 39
f 39 49 51
f 39 51 52
f 39 52 41
f 40 53 43
f 43 54 55
f 43 55 44
f 43 53 54
f 44 55 45
f 45 55 56
f 45 56 46
f 46 57 47
f 46 56 57
f 47 57 58
f 47 58 50
f 54 56 55

