# https://github.com/mikedh/trimesh
v -0.07453830 0.00457238 -0.01112591
v -0.07616238 0.00493438 -0.01090786
v -0.07274834 0.00562489 -0.01044161
v -0.07031801 0.00470226 -0.01077646
v -0.06875950 0.00462762 -0.01055841
v -0.06742475 0.00455240 -0.01032869
v -0.08317177 0.00455240 -0.01026347
v -0.08145125 0.00472047 -0.01053603
v -0.07966129 0.00482273 -0.01072000
v -0.07799863 0.00489325 -0.01083097
v -0.07608909 0.00626661 -0.00986340
v -0.07417182 0.00609090 -0.01008242
v -0.07061504 0.00685663 -0.00917910
v -0.06892925 0.00661862 -0.00921317
v -0.06713929 0.00642587 -0.00902822
v -0.06483625 0.00556083 -0.00909442
v -0.06534933 0.00455240 -0.00982836
v -0.09755703 0.00455240 -0.00412227
v -0.08861109 0.00464760 -0.00854152
v -0.08690986 0.00483389 -0.00903991
v -0.08530506 0.00500373 -0.00939325
v -0.08324121 0.00576886 -0.00934458
v -0.08145125 0.00595809 -0.00954900
v -0.07966129 0.00612146 -0.00968138
v -0.07768231 0.00683900 -0.00918202
v -0.07429913 0.00754008 -0.00854834
v -0.07250917 0.00753303 -0.00854055
v -0.05814705 0.00941296 -0.00417386
v -0.05814705 0.00803313 -0.00530788
v -0.06375225 0.00455240 -0.00923264
v -0.09744130 0.00455240 -0.00244705
v -0.09694752 0.00549678 -0.00336107
v -0.08861109 0.00581999 -0.00757785
v -0.08666297 0.00601509 -0.00813756
v -0.08628106 0.00710403 -0.00700744
v -0.07966129 0.00701647 -0.00873134
v -0.07608909 0.00749306 -0.00852887
v -0.07429913 0.00866134 -0.00635039
v -0.07250917 0.00867368 -0.00640782
v -0.07071921 0.00865722 -0.00645163
v -0.05816248 0.01055537 -0.00232829
v -0.05814705 0.00455240 -0.00128675
v -0.05814705 0.00626661 -0.00605448
v -0.05814705 0.00455240 -0.00662197
v -0.09249577 0.00455240 -0.00174328
v -0.09565134 0.00491675 -0.00178319
v -0.09152749 0.00724155 -0.00221051
v -0.09040105 0.00762529 -0.00268650
v -0.09150435 0.00722274 -0.00365407
v -0.08503117 0.00821295 -0.00447659
v -0.07787133 0.00847152 -0.00626473
v -0.07966129 0.00754125 -0.00783678
v -0.08682113 0.00795144 -0.00447659
v -0.07616238 0.00887348 -0.00551619
v -0.06379083 0.01030679 -0.00150479
v -0.05817019 0.00984783 -0.00118162
v -0.08194117 0.00900747 -0.00318683
v -0.08861109 0.00706231 -0.00157196
v -0.09398097 0.00496729 -0.00168293
v -0.09040105 0.00699708 -0.00159921
v -0.08145125 0.00906565 -0.00167514
v -0.08266256 0.00900982 -0.00203627
v -0.07250917 0.00944469 -0.00142595
v -0.06892925 0.00963039 -0.00135002
f 1 2 3
f 1 3 4
f 1 4 5
f 1 5 6
f 1 6 7
f 1 7 8
f 1 8 9
f 1 9 10
f 1 10 2
f 2 11 12
f 2 12 3
f 2 10 11
f 3 12 13
f 3 13 14
f 3 14 4
f 4 14 5
f 5 14 15
f 5 15 6
f 6 15 16
f 6 16 17
f 6 17 30
f 6 30 44
f 6 44 42
f 6 42 45
f 6 45 31
f 6 31 18
f 6 18 7
f 7 18 19
f 7 19 20
f 7 20 21
f 7 21 22
f 7 22 8
f 8 22 23
f 8 23 9
f 9 23 24
f 9 24 10
f 10 24 11
f 11 24 25
f 11 25 26
f 11 26 12
f 12 27 13
f 12 26 27
f 13 27 28
f 13 28 14
f 14 28 15
f 15 28 29
f 15 29 16
f 16 29 17
f 17 29 30
f 18 31 32
f 18 32 33
f 18 33 19
f 19 33 20
f 20 33 34
f 20 34 21
f 21 34 22
f 22 34 35
f 22 35 36
f 22 36 23
f 23 36 24
f 24 36 25
f 25 37 26
f 25 36 37
f 26 37 38
f 26 38 39
f 26 39 40
f 26 40 27
f 27 40 41
f 27 41 28
f 28 41 42
f 28 42 44
f 28 44 43
f 28 43 29
f 29 43 30
f 30 43 44
f 31 45 46
f 31 46 32
f 32 46 47
f 32 47 48
f 32 48 49
f 32 49 35
f 32 35 33
f 33 35 34
f 35 50 51
f 35 51 52
f 35 52 36
f 35 49 53
f 35 53 50
f 36 52 37
f 37 52 51
f 37 51 38
f 38 51 54
f 38 54 41
f 38 41 39
f 39 41 40
f 41 55 56
f 41 56 42
f 41 54 57
f 41 57 55
f 42 56 58
f 42 58 59
f 42 59 45
f 45 59 46
f 46 59 60
f 46 60 47
f 47 60 61
f 47 61 62
f 47 62 48
f 48 53 49
f 48 62 57
f 48 57 53
f 50 57 51
f 50 53 57
f 51 57 54
f 55 63 64
f 55 64 56
f 55 57 62
f 55 62 61
f 55 61 63
f 56 64 58
f 58 60 59
f 58 64 60
f 60 64 63
f 60 63 61

