# https://github.com/mikedh/trimesh
v 0.00433828 -0.03899796 -0.00935728
v 0.01328718 -0.03899796 -0.00801754
v 0.00433828 -0.03899796 -0.00306126
v 0.00433828 -0.03798476 -0.00977557
v 0.01289124 -0.03561276 -0.00999761
v 0.01328718 -0.03899796 -0.00306126
v 0.01328718 -0.03546507 -0.00999761
v 0.00433828 -0.02893887 -0.00306126
v 0.00433828 -0.03782033 -0.00981292
v 0.01205732 -0.03559701 -0.00999761
v 0.01328718 -0.02893887 -0.00306126
v 0.01328718 -0.03445384 -0.00999761
v 0.00433828 -0.02893887 -0.00925407
v 0.00977367 -0.03505053 -0.00999761
v 0.01039648 -0.03533017 -0.00999761
v 0.01121989 -0.03552907 -0.00999761
v 0.00433828 -0.03706905 -0.00982718
v 0.00636877 -0.03278291 -0.00999761
v 0.00670865 -0.03318267 -0.00999761
v 0.00677260 -0.03325553 -0.00999761
v 0.00712473 -0.03363659 -0.00999761
v 0.00770463 -0.03399894 -0.00999761
v 0.01328718 -0.02893887 -0.00717418
v 0.00857446 -0.02893887 -0.00999761
v 0.00535878 -0.02893887 -0.00999761
v 0.00433828 -0.03680615 -0.00981495
v 0.00535966 -0.02896053 -0.00999761
v 0.00541046 -0.02951193 -0.00999761
v 0.00561106 -0.03035872 -0.00999761
v 0.00609372 -0.03202276 -0.00999761
f 1 2 6
f 1 6 3
f 1 3 8
f 1 8 13
f 1 13 26
f 1 26 17
f 1 17 9
f 1 9 4
f 1 4 5
f 1 5 2
f 2 5 7
f 2 7 12
f 2 12 23
f 2 23 11
f 2 11 6
f 3 6 11
f 3 11 8
f 4 9 5
f 5 9 10
f 5 10 16
f 5 16 15
f 5 15 14
f 5 14 22
f 5 22 21
f 5 21 20
f 5 20 19
f 5 19 18
f 5 18 30
f 5 30 29
f 5 29 28
f 5 28 27
f 5 27 25
f 5 25 24
f 5 24 12
f 5 12 7
f 8 11 23
f 8 23 24
f 8 24 25
f 8 25 13
f 9 14 15
f 9 15 16
f 9 16 10
f 9 17 18
f 9 18 19
f 9 19 20
f 9 20 21
f 9 21 22
f 9 22 14
f 12 24 23
f 13 25 26
f 17 26 25
f 17 25 27
f 17 27 28
f 17 28 29
f 17 29 30
f 17 30 18

