# https://github.com/mikedh/trimesh
v -0.00534687 -0.01344475 0.02173875
v -0.00719759 -0.01326554 0.02170720
v -0.00636960 -0.01418590 0.02165865
v -0.00534687 -0.01458988 0.02145716
v -0.00532551 -0.01279777 0.02123625
v -0.00647765 -0.00926520 0.02087454
v -0.00699781 -0.00926520 0.02150571
v -0.00809090 -0.00941707 0.02170720
v -0.00814744 -0.01157063 0.02171448
v -0.00532677 -0.02571613 0.01723319
v -0.00532551 -0.01244846 0.02037204
v -0.00532677 -0.00926520 0.01730845
v -0.00532677 -0.02683088 0.01621361
v -0.00532551 -0.01576538 0.01786193
v -0.01030096 -0.00131614 0.01791291
v -0.01124328 -0.00131614 0.01789592
v -0.01214790 -0.00131614 0.01782795
v -0.01610188 -0.00131614 0.01740312
v -0.00839747 -0.02011504 0.01675496
v -0.00584065 -0.02499929 0.01712152
v -0.01681050 -0.00161989 0.01684235
v -0.00532551 -0.01182274 0.01786436
v -0.00532677 -0.00926520 0.00750351
v -0.01020296 -0.00131614 0.00712238
v -0.00532677 -0.02688859 0.01544650
v -0.00582431 -0.02577688 0.01620390
v -0.00532551 -0.01456862 0.01786193
v -0.00532677 -0.02718626 -0.00306126
v -0.01476755 0.00269636 0.00624603
v -0.01621244 0.00384452 0.00624603
v -0.01719748 -0.00131614 0.01616506
v -0.00859347 -0.01987204 0.01621604
v -0.01593854 -0.00386761 0.01655833
v -0.01663962 -0.00251290 0.01627188
v -0.00532677 -0.01950450 -0.00306126
v -0.01505402 0.00207367 -0.00141537
v -0.01493968 0.00251715 -0.00062884
v -0.01486304 0.00259004 0.00041987
v -0.01483791 0.00262042 0.00125252
v -0.01481153 0.00264472 0.00208032
v -0.01479519 0.00265383 0.00291298
v -0.00905081 -0.01890916 0.01538096
v -0.00731820 -0.02291558 -0.00041279
v -0.00662089 -0.02445558 -0.00302242
v -0.00591101 -0.02595913 -0.00306126
v -0.01621370 0.00362886 0.00125252
v -0.01816116 0.00036662 -0.00044434
v -0.01809080 0.00036662 0.00499583
v -0.01725025 -0.00131614 0.01538339
v -0.00695133 -0.01972017 -0.00306126
v -0.01580033 -0.00083318 -0.00249321
v -0.01625516 0.00036662 -0.00245194
v -0.01621370 0.00163628 -0.00231600
v -0.01621370 0.00279052 -0.00183534
v -0.01621370 0.00329170 -0.00108279
v -0.01621370 0.00355596 0.00006302
v -0.00694253 -0.02375089 -0.00306126
v -0.01808828 0.00036662 -0.00129885
v -0.00745138 -0.02042486 -0.00306126
v -0.01703289 0.00036662 -0.00241553
v -0.00763231 -0.02117815 -0.00306126
v -0.01773523 0.00036662 -0.00198342
v -0.00742249 -0.02259968 -0.00306126
v -0.01751661 -0.00063271 -0.00173095
f 1 2 3
f 1 3 4
f 1 4 5
f 1 5 6
f 1 6 7
f 1 7 8
f 1 8 9
f 1 9 2
f 2 9 10
f 2 10 3
f 3 10 4
f 4 10 5
f 5 11 12
f 5 12 6
f 5 10 13
f 5 13 14
f 5 14 27
f 5 27 22
f 5 22 11
f 6 12 15
f 6 15 7
f 7 15 8
f 8 15 16
f 8 16 17
f 8 17 18
f 8 18 9
f 9 19 20
f 9 20 10
f 9 18 21
f 9 21 19
f 10 20 13
f 11 22 12
f 12 23 24
f 12 24 15
f 12 22 23
f 13 25 14
f 13 20 19
f 13 19 26
f 13 26 25
f 14 25 28
f 14 28 35
f 14 35 27
f 15 24 29
f 15 29 30
f 15 30 16
f 16 30 17
f 17 30 18
f 18 30 31
f 18 31 21
f 19 32 26
f 19 21 33
f 19 33 34
f 19 34 32
f 21 31 34
f 21 34 33
f 22 27 35
f 22 35 23
f 23 35 36
f 23 36 37
f 23 37 24
f 24 37 38
f 24 38 39
f 24 39 40
f 24 40 41
f 24 41 29
f 25 26 32
f 25 32 42
f 25 42 43
f 25 43 44
f 25 44 45
f 25 45 28
f 28 45 57
f 28 57 63
f 28 63 61
f 28 61 59
f 28 59 50
f 28 50 35
f 29 41 30
f 30 41 40
f 30 40 46
f 30 46 47
f 30 47 48
f 30 48 31
f 31 49 34
f 31 48 49
f 32 34 49
f 32 49 42
f 35 50 51
f 35 51 52
f 35 52 53
f 35 53 36
f 36 53 54
f 36 54 37
f 37 54 55
f 37 55 56
f 37 56 38
f 38 56 46
f 38 46 39
f 39 46 40
f 42 49 43
f 43 49 47
f 43 47 44
f 44 47 57
f 44 57 45
f 46 56 47
f 47 49 48
f 47 56 58
f 47 58 57
f 50 59 51
f 51 60 52
f 51 59 61
f 51 61 60
f 52 60 53
f 53 60 54
f 54 60 62
f 54 62 58
f 54 58 55
f 55 58 56
f 57 58 64
f 57 64 63
f 58 62 64
f 60 61 63
f 60 63 62
f 62 63 64

