# https://github.com/mikedh/trimesh
v -0.01539198 0.04301087 -0.00303663
v -0.01539198 0.04332498 -0.00386690
v -0.01557680 0.04314236 -0.00360321
v -0.01621704 0.04263468 -0.00303663
v -0.01539198 0.02772571 -0.00303663
v -0.01539198 0.04357699 -0.00457648
v -0.01580655 0.04324462 -0.00415750
v -0.02060783 0.04088520 -0.00385076
v -0.02060783 0.04067701 -0.00330108
v -0.02060783 0.04057474 -0.00303663
v -0.02060783 0.02772571 -0.00303663
v -0.02035868 0.00749158 -0.00303739
v -0.02021317 0.00749889 -0.00303739
v -0.01949737 0.00781299 -0.00303739
v -0.01539198 0.01009207 -0.00303739
v -0.01539198 0.04385457 -0.00542828
v -0.01657034 0.04321541 -0.00508310
v -0.01826999 0.04240093 -0.00502929
v -0.02060783 0.04105686 -0.00433201
v -0.02060783 0.00760480 -0.00303739
v -0.02060783 0.00794813 -0.01089042
v -0.02037654 0.00794813 -0.01089042
v -0.01966074 0.00818553 -0.01089042
v -0.01539198 0.01018703 -0.01089042
v -0.01539198 0.01015781 -0.00867943
v -0.01539198 0.01009572 -0.00358322
v -0.01676742 0.04330306 -0.00563816
v -0.01539198 0.04404084 -0.00603100
v -0.01704771 0.04309123 -0.00537908
v -0.01847166 0.04249589 -0.00558357
v -0.02060783 0.04142940 -0.00540753
v -0.02060783 0.04116643 -0.00464336
v -0.02060783 0.02772571 -0.01089042
v -0.01539198 0.02457737 -0.01089042
v -0.01578306 0.04406641 -0.00668753
v -0.01732188 0.04317888 -0.00605483
v -0.01539198 0.04414676 -0.00637926
v -0.01902561 0.04236440 -0.00598411
v -0.02060783 0.04163758 -0.00603408
v -0.02060783 0.04156819 -0.00582343
v -0.02060783 0.04149514 -0.00560433
v -0.01832053 0.02772571 -0.01089042
v -0.02060783 0.04239362 -0.00875938
v -0.02032140 0.04253241 -0.00878629
v -0.01683736 0.04413945 -0.00878629
v -0.01617568 0.04444260 -0.00878629
v -0.01539198 0.04480053 -0.00878629
v -0.01540883 0.04434399 -0.00705270
v -0.01749445 0.04325923 -0.00660912
v -0.01920380 0.04244841 -0.00653839
v -0.01539198 0.04427459 -0.00679977
v -0.02060783 0.04172524 -0.00631468
v -0.02060783 0.04215987 -0.00787068
v -0.02008042 0.04247032 -0.00810746
v -0.01837874 0.04328115 -0.00817665
v -0.01539198 0.04457774 -0.00790066
v -0.01666428 0.04408832 -0.00826506
v -0.01595512 0.04414676 -0.00724105
v -0.01871366 0.04282460 -0.00706885
v -0.02060783 0.04187499 -0.00681515
v -0.02060783 0.04195169 -0.00709114
v -0.01821638 0.04320810 -0.00762236
v -0.01650959 0.04401893 -0.00771000
f 1 2 3
f 1 3 4
f 1 4 10
f 1 10 11
f 1 11 5
f 1 5 15
f 1 15 26
f 1 26 25
f 1 25 24
f 1 24 34
f 1 34 47
f 1 47 56
f 1 56 51
f 1 51 37
f 1 37 28
f 1 28 16
f 1 16 6
f 1 6 2
f 2 6 7
f 2 7 3
f 3 7 4
f 4 7 8
f 4 8 9
f 4 9 10
f 5 11 12
f 5 12 13
f 5 13 14
f 5 14 15
f 6 16 17
f 6 17 7
f 7 17 18
f 7 18 19
f 7 19 8
f 8 19 32
f 8 32 31
f 8 31 41
f 8 41 40
f 8 40 39
f 8 39 52
f 8 52 60
f 8 60 61
f 8 61 53
f 8 53 43
f 8 43 33
f 8 33 21
f 8 21 20
f 8 20 11
f 8 11 10
f 8 10 9
f 11 20 12
f 12 20 21
f 12 21 22
f 12 22 13
f 13 22 23
f 13 23 14
f 14 23 24
f 14 24 25
f 14 25 26
f 14 26 15
f 16 27 17
f 16 28 27
f 17 29 30
f 17 30 18
f 17 27 29
f 18 30 31
f 18 31 32
f 18 32 19
f 21 33 42
f 21 42 34
f 21 34 24
f 21 24 23
f 21 23 22
f 27 28 35
f 27 35 36
f 27 36 29
f 28 37 35
f 29 36 30
f 30 36 38
f 30 38 39
f 30 39 40
f 30 40 41
f 30 41 31
f 33 43 44
f 33 44 45
f 33 45 46
f 33 46 47
f 33 47 42
f 34 42 47
f 35 37 48
f 35 48 36
f 36 49 50
f 36 50 38
f 36 48 49
f 37 51 48
f 38 52 39
f 38 50 52
f 43 53 54
f 43 54 55
f 43 55 44
f 44 55 45
f 45 55 46
f 46 56 47
f 46 55 57
f 46 57 56
f 48 56 58
f 48 58 49
f 48 51 56
f 49 59 50
f 49 58 59
f 50 59 60
f 50 60 52
f 53 61 54
f 54 62 55
f 54 61 62
f 55 62 63
f 55 63 57
f 56 57 63
f 56 63 58
f 58 63 62
f 58 62 59
f 59 62 61
f 59 61 60

