# https://github.com/mikedh/trimesh
v 0.01985074 -0.00791837 -0.01289401
v 0.01985074 -0.01026097 -0.02172525
v 0.01972412 -0.00834953 -0.02117896
v 0.01971064 -0.00811077 -0.01996033
v 0.01969448 -0.00805740 -0.01788024
v 0.01969448 -0.00803212 -0.01663286
v 0.01969448 -0.00794365 -0.01089465
v 0.01985074 -0.01166541 -0.01104505
v 0.01985074 -0.01103341 -0.02086933
v 0.01525448 -0.01402486 -0.02063047
v 0.00091879 -0.02085043 -0.02059397
v -0.00526433 -0.02226470 -0.02160029
v 0.00541267 -0.01621719 -0.02178054
v 0.00998738 -0.01370886 -0.02177833
v 0.01933615 -0.00916972 -0.02173852
v 0.01494735 -0.01080589 -0.02163125
v 0.01062051 -0.01239431 -0.02095780
v 0.01765230 -0.00902506 -0.02048560
v 0.01893742 -0.00843801 -0.02037612
v 0.00281818 -0.01581833 -0.01048328
v 0.00281818 -0.01887860 -0.01048328
v 0.00158425 -0.02117486 -0.01048328
v 0.01597383 -0.01455574 -0.01089465
v 0.01122670 -0.01198000 -0.01954453
v -0.00071118 -0.01752051 -0.01954453
v -0.00616419 -0.01996845 -0.01048328
v 0.01985074 -0.01130728 -0.01954453
v 0.01577715 -0.01412036 -0.01954453
v 0.00111008 -0.02097402 -0.01954453
v -0.00444531 -0.02226470 -0.02074105
v -0.00551489 -0.02097543 -0.02167770
v -0.00041482 -0.01871428 -0.02173078
v -0.00761365 -0.02226470 -0.01321581
v -0.00762982 -0.02220853 -0.01927139
v -0.00653329 -0.02216639 -0.02153394
v 0.00541267 -0.01558660 -0.02172967
v 0.00706689 -0.01477764 -0.02173520
v 0.00873189 -0.01394902 -0.02173631
v 0.01323655 -0.01161906 -0.02164342
v 0.00419221 -0.01583378 -0.02161245
v 0.00374767 -0.01565822 -0.02103631
v 0.00326272 -0.01576918 -0.02085385
v 0.00662774 -0.01412879 -0.02005543
v 0.00072212 -0.02196134 -0.01048328
v -0.00627465 -0.02012012 -0.01954453
v -0.00631237 -0.02011451 -0.01788024
v -0.00703171 -0.02053163 -0.01788024
v -0.00728766 -0.02073667 -0.01048328
v -0.00421091 -0.02226470 -0.01954453
v -0.00417858 -0.01995019 -0.02163125
v -0.00637972 -0.02126193 -0.02157706
v -0.00363166 -0.02226470 -0.01048328
v -0.00760018 -0.02215235 -0.01048328
v -0.00766754 -0.02215235 -0.01621817
v -0.00767292 -0.02215235 -0.01761595
v -0.00760288 -0.02127317 -0.01704976
v -0.00751936 -0.02107374 -0.01829604
v -0.00745739 -0.02174085 -0.02040266
v -0.00085397 -0.01828593 -0.02163125
v 0.00647148 -0.01489000 -0.02168544
v -0.00526433 -0.01984205 -0.02096332
v -0.00372057 -0.02226470 -0.01313398
v -0.00647402 -0.02044595 -0.02080298
v -0.00725802 -0.02082094 -0.01954453
f 1 2 3
f 1 3 4
f 1 4 5
f 1 5 6
f 1 6 7
f 1 7 8
f 1 8 27
f 1 27 9
f 1 9 2
f 2 9 10
f 2 10 11
f 2 11 12
f 2 12 13
f 2 13 14
f 2 14 15
f 2 15 3
f 3 15 16
f 3 16 17
f 3 17 18
f 3 18 19
f 3 19 4
f 4 19 5
f 5 19 6
f 6 19 18
f 6 18 7
f 7 20 21
f 7 21 22
f 7 22 23
f 7 23 8
f 7 18 24
f 7 24 25
f 7 25 26
f 7 26 20
f 8 23 27
f 9 27 28
f 9 28 10
f 10 28 11
f 11 29 30
f 11 30 12
f 11 28 29
f 12 31 32
f 12 32 13
f 12 30 49
f 12 49 62
f 12 62 52
f 12 52 33
f 12 33 34
f 12 34 35
f 12 35 31
f 13 32 14
f 14 32 36
f 14 36 37
f 14 37 38
f 14 38 15
f 15 38 16
f 16 38 39
f 16 39 40
f 16 40 41
f 16 41 17
f 17 41 42
f 17 42 18
f 18 42 43
f 18 43 24
f 20 26 48
f 20 48 53
f 20 53 52
f 20 52 44
f 20 44 22
f 20 22 21
f 22 44 23
f 23 28 27
f 23 44 28
f 24 43 25
f 25 45 46
f 25 46 26
f 25 43 45
f 26 46 47
f 26 47 48
f 28 44 29
f 29 44 30
f 30 44 49
f 31 50 36
f 31 36 32
f 31 35 51
f 31 51 50
f 33 52 53
f 33 53 54
f 33 54 55
f 33 55 34
f 34 55 56
f 34 56 57
f 34 57 58
f 34 58 35
f 35 58 51
f 36 50 37
f 37 50 59
f 37 59 38
f 38 59 60
f 38 60 39
f 39 60 40
f 40 60 59
f 40 59 61
f 40 61 41
f 41 61 42
f 42 61 45
f 42 45 43
f 44 52 62
f 44 62 49
f 45 63 64
f 45 64 47
f 45 47 46
f 45 61 63
f 47 64 57
f 47 57 48
f 48 57 56
f 48 56 53
f 50 51 61
f 50 61 59
f 51 58 63
f 51 63 61
f 53 56 54
f 54 56 55
f 57 64 58
f 58 64 63

