# https://github.com/mikedh/trimesh
v -0.01020151 0.00037422 0.02171157
v -0.01366916 0.00473586 0.02120762
v -0.01401755 0.00473586 0.02161176
v -0.01450498 0.00473586 0.02167721
v -0.01455442 0.00457425 0.02167885
v -0.01041240 0.00037422 0.02171157
v -0.01039695 -0.00014316 0.02171157
v -0.01020151 -0.00007449 0.02170666
v -0.01020151 0.00037422 0.00744551
v -0.01104119 0.00473586 0.01714329
v -0.01531067 0.00473586 0.02124853
v -0.01501173 0.00465476 0.02164285
v -0.01499087 0.00374194 0.02163467
v -0.01432036 0.00207910 0.02166739
v -0.01206164 0.00039553 0.02169357
v -0.01123045 -0.00011948 0.02169848
v -0.01039695 -0.00050781 0.02120762
v -0.01020151 -0.00044211 0.02126162
v -0.01020151 -0.00127915 0.00712645
v -0.01458532 0.00037422 0.00499611
v -0.01114934 0.00473586 0.00823416
v -0.01562971 0.00473586 0.02053187
v -0.01535084 0.00457425 0.02120762
v -0.01497697 0.00325830 0.02162813
v -0.01421994 0.00147233 0.02166412
v -0.01206241 -0.00006206 0.02166739
v -0.01123045 -0.00044447 0.02120762
v -0.01118101 -0.00073809 0.02032898
v -0.01039617 -0.00078545 0.02032898
v -0.01020151 -0.00075526 0.02034043
v -0.01408862 -0.00131171 0.00499611
v -0.01020151 -0.00131171 0.01790413
v -0.01809314 0.00037422 0.00499611
v -0.01621293 0.00384495 0.00625599
v -0.01141507 0.00473586 0.00823743
v -0.01570927 0.00473586 0.02031916
v -0.01797109 0.00037422 0.01621393
v -0.01768218 0.00037422 0.01687495
v -0.01529909 0.00374194 0.02120762
v -0.01516004 0.00295344 0.02127143
v -0.01485337 0.00270363 0.02159213
v -0.01473672 0.00207910 0.02140887
v -0.01687726 -0.00131171 0.01690604
v -0.01399206 0.00091765 0.02154959
v -0.01250967 -0.00001885 0.02163958
v -0.01589544 -0.00131171 0.01749016
v -0.01214970 -0.00131171 0.01783050
v -0.01124281 -0.00131171 0.01789758
v -0.01039695 -0.00131171 0.01792703
v -0.01730444 -0.00131171 0.00499611
v -0.01803752 0.00037422 0.01538437
v -0.01621447 0.00473586 0.01788122
v -0.01621447 0.00473586 0.00917007
v -0.01747129 -0.00084465 0.01583269
v -0.01385687 0.00473586 0.00847304
v -0.01368538 0.00473586 0.00842887
v -0.01289282 0.00473586 0.00832251
v -0.01211648 0.00473586 0.00827179
v -0.01580120 0.00473586 0.02005082
v -0.01719938 -0.00131171 0.01616811
v -0.01742031 -0.00073336 0.01638900
v -0.01755009 -0.00017868 0.01675387
v -0.01631103 -0.00131171 0.01731836
v -0.01725268 -0.00131171 0.01538437
f 1 2 3
f 1 3 4
f 1 4 5
f 1 5 6
f 1 6 7
f 1 7 8
f 1 8 18
f 1 18 30
f 1 30 32
f 1 32 19
f 1 19 9
f 1 9 10
f 1 10 2
f 2 10 21
f 2 21 35
f 2 35 58
f 2 58 57
f 2 57 56
f 2 56 55
f 2 55 53
f 2 53 52
f 2 52 59
f 2 59 36
f 2 36 22
f 2 22 11
f 2 11 4
f 2 4 3
f 4 11 12
f 4 12 5
f 5 12 13
f 5 13 14
f 5 14 15
f 5 15 7
f 5 7 6
f 7 15 16
f 7 16 17
f 7 17 18
f 7 18 8
f 9 19 20
f 9 20 21
f 9 21 10
f 11 22 23
f 11 23 12
f 12 23 13
f 13 24 14
f 13 23 24
f 14 24 25
f 14 25 15
f 15 25 26
f 15 26 16
f 16 26 27
f 16 27 17
f 17 27 28
f 17 28 29
f 17 29 30
f 17 30 18
f 19 31 20
f 19 32 31
f 20 31 50
f 20 50 33
f 20 33 34
f 20 34 21
f 21 34 35
f 22 36 37
f 22 37 38
f 22 38 23
f 23 38 39
f 23 39 24
f 24 39 38
f 24 38 40
f 24 40 41
f 24 41 25
f 25 41 42
f 25 42 43
f 25 43 44
f 25 44 45
f 25 45 26
f 26 45 27
f 27 45 46
f 27 46 28
f 28 46 29
f 29 46 47
f 29 47 48
f 29 48 49
f 29 49 32
f 29 32 30
f 31 32 49
f 31 49 48
f 31 48 47
f 31 47 46
f 31 46 63
f 31 63 43
f 31 43 60
f 31 60 64
f 31 64 50
f 33 51 52
f 33 52 53
f 33 53 34
f 33 50 54
f 33 54 51
f 34 53 55
f 34 55 56
f 34 56 57
f 34 57 58
f 34 58 35
f 36 59 37
f 37 54 60
f 37 60 61
f 37 61 62
f 37 62 38
f 37 59 52
f 37 52 51
f 37 51 54
f 38 62 41
f 38 41 40
f 41 62 42
f 42 62 43
f 43 62 61
f 43 61 60
f 43 63 45
f 43 45 44
f 45 63 46
f 50 64 54
f 54 64 60

