# https://github.com/mikedh/trimesh
v -0.00343600 0.04645538 -0.00303663
v -0.00340186 0.04641401 -0.00374390
v -0.00421881 0.04812569 -0.00873247
v -0.00401476 0.04763326 -0.00623857
v -0.00402886 0.04758402 -0.00540753
v -0.00404964 0.04753084 -0.00457571
v -0.00410380 0.04746190 -0.00374390
v -0.00433160 0.04737720 -0.00306892
v -0.00575848 0.04746190 -0.00307507
v -0.01064831 0.02932090 -0.00303663
v -0.00306796 0.02932090 -0.00303663
v -0.00313845 0.04584477 -0.00311812
v -0.00411345 0.04793069 -0.00956429
v -0.00424553 0.04810008 -0.00790066
v -0.00432344 0.04833251 -0.01089042
v -0.00450523 0.04865554 -0.01039533
v -0.00482652 0.04914009 -0.01064288
v -0.00428188 0.04808039 -0.00706885
v -0.00476493 0.04838372 -0.00623857
v -0.00487104 0.04830099 -0.00556512
v -0.00540677 0.04780069 -0.00374390
v -0.00622075 0.04755054 -0.00378695
v -0.01064831 0.04534840 -0.00346560
v -0.00599073 0.04831872 -0.00559126
v -0.01064831 0.02932090 -0.00756547
v -0.00306796 0.02932090 -0.00977877
v -0.00306796 0.04568522 -0.00374390
v -0.00411716 0.04791887 -0.01039533
v -0.00306796 0.04558871 -0.00956429
v -0.00692195 0.04919327 -0.01064288
v -0.00630163 0.04942767 -0.01064288
v -0.00540677 0.04944145 -0.01064288
v -0.00306796 0.04554340 -0.01089042
v -0.01064831 0.03276000 -0.01089042
v -0.01064831 0.04741069 -0.01044607
v -0.00517749 0.04918736 -0.00943821
v -0.00525614 0.04903373 -0.00850569
v -0.00540677 0.04878554 -0.00706885
v -0.00540677 0.04857675 -0.00623857
v -0.00540677 0.04828524 -0.00524762
v -0.00540677 0.04807448 -0.00457571
v -0.00623930 0.04783811 -0.00457571
v -0.01064831 0.04591371 -0.00502545
v -0.00589649 0.04909479 -0.00852106
v -0.00623930 0.04865357 -0.00706885
v -0.00625562 0.04840933 -0.00626394
v -0.01064831 0.04629977 -0.00619859
v -0.00878661 0.02932090 -0.01089042
v -0.00541270 0.02932090 -0.01089042
v -0.00306796 0.03285652 -0.01037150
v -0.00706886 0.04869888 -0.00873247
v -0.00657543 0.04911646 -0.00961656
v -0.00859146 0.04836600 -0.01039533
v -0.00858330 0.04820054 -0.00962348
v -0.00306796 0.03863367 -0.01089042
v -0.01064831 0.04716447 -0.00941745
v -0.00615768 0.04889191 -0.00797907
v -0.00736270 0.04837387 -0.00798753
v -0.00913610 0.04740281 -0.00750628
v -0.01064831 0.04655780 -0.00705655
v -0.00306796 0.03368774 -0.01047144
v -0.00776264 0.04836993 -0.00873247
v -0.01064831 0.04700887 -0.00879859
v -0.01052217 0.04682765 -0.00783608
f 1 2 3
f 1 3 4
f 1 4 5
f 1 5 6
f 1 6 7
f 1 7 8
f 1 8 9
f 1 9 10
f 1 10 11
f 1 11 12
f 1 12 2
f 2 12 13
f 2 13 3
f 3 14 4
f 3 13 15
f 3 15 16
f 3 16 17
f 3 17 14
f 4 14 5
f 5 14 18
f 5 18 6
f 6 18 17
f 6 17 7
f 7 17 19
f 7 19 20
f 7 20 8
f 8 20 21
f 8 21 9
f 9 22 23
f 9 23 10
f 9 21 24
f 9 24 22
f 10 23 43
f 10 43 47
f 10 47 60
f 10 60 63
f 10 63 56
f 10 56 35
f 10 35 34
f 10 34 25
f 10 25 48
f 10 48 49
f 10 49 26
f 10 26 11
f 11 26 50
f 11 50 61
f 11 61 55
f 11 55 33
f 11 33 29
f 11 29 27
f 11 27 12
f 12 27 13
f 13 28 15
f 13 27 29
f 13 29 28
f 14 17 18
f 15 30 31
f 15 31 32
f 15 32 17
f 15 17 16
f 15 28 33
f 15 33 55
f 15 55 49
f 15 49 48
f 15 48 34
f 15 34 35
f 15 35 30
f 17 32 36
f 17 36 19
f 19 36 20
f 20 36 37
f 20 37 38
f 20 38 39
f 20 39 40
f 20 40 41
f 20 41 21
f 21 41 24
f 22 24 42
f 22 42 23
f 23 42 43
f 24 41 40
f 24 40 39
f 24 39 44
f 24 44 45
f 24 45 46
f 24 46 47
f 24 47 43
f 24 43 42
f 25 34 48
f 26 49 50
f 28 29 33
f 30 51 52
f 30 52 31
f 30 35 53
f 30 53 54
f 30 54 51
f 31 52 44
f 31 44 32
f 32 44 38
f 32 38 37
f 32 37 36
f 35 56 54
f 35 54 53
f 38 44 39
f 44 52 57
f 44 57 45
f 45 57 52
f 45 52 51
f 45 51 58
f 45 58 59
f 45 59 60
f 45 60 46
f 46 60 47
f 49 55 61
f 49 61 50
f 51 54 62
f 51 62 58
f 54 56 62
f 56 63 64
f 56 64 58
f 56 58 62
f 58 64 59
f 59 64 60
f 60 64 63

