# https://github.com/mikedh/trimesh
v 0.01720030 0.00246709 0.01538622
v 0.01511076 0.00695369 0.01538622
v 0.01587831 0.00515615 0.01621793
v 0.01715944 0.00246709 0.01585457
v 0.01719870 0.00246709 0.01507359
v 0.01491686 0.00736936 0.01538622
v 0.01719229 0.00246709 0.01423599
v 0.01712980 0.00246709 0.00611004
v 0.01712178 0.00246709 0.01625922
v 0.01466849 0.00790122 0.01538622
v 0.01411245 0.00909082 0.01538622
v 0.01507230 0.00686585 0.01621793
v 0.01583184 0.00505379 0.01667212
v 0.01427029 0.00859769 0.00623863
v 0.01712900 0.00246709 0.00605931
v 0.01411726 0.00892207 0.00605931
v 0.01663786 0.00333440 0.01663791
v 0.01673400 0.00291112 0.01673701
v 0.01684296 0.00246709 0.01682313
v 0.01389853 0.00953208 0.01461232
v 0.01390334 0.00953208 0.01538622
v 0.01383363 0.00953208 0.00628936
v 0.01389693 0.00953208 0.01543341
v 0.01378636 0.00953208 0.01621793
v 0.01501141 0.00673306 0.01668038
v 0.01512838 0.00623785 0.01679128
v 0.01593520 0.00457518 0.01677594
v 0.01373589 0.00246709 0.00605931
v 0.01383123 0.00953208 0.00605931
v 0.01540560 0.00536156 0.01688447
v 0.01538717 0.00457518 0.01711806
v 0.01621883 0.00291112 0.01706851
v 0.01621883 0.00246709 0.01716997
v 0.01349072 0.00953208 0.01680425
v 0.01417735 0.00839504 0.01667684
v 0.01349953 0.00291389 0.00605931
v 0.00901598 0.00246709 0.00610886
v 0.01060397 0.00953208 0.00605931
v 0.01457475 0.00703392 0.01689037
v 0.01455472 0.00623785 0.01713222
v 0.01538717 0.00374315 0.01726552
v 0.01538717 0.00291112 0.01732805
v 0.01538717 0.00246709 0.01734575
v 0.01289222 0.00953208 0.01712278
v 0.00901598 0.00291112 0.00613245
v 0.00901598 0.00246709 0.01741063
v 0.00901598 0.00369681 0.00623745
v 0.00901598 0.00457518 0.00644154
v 0.00901598 0.00515546 0.00660788
v 0.00901598 0.00557043 0.00672821
v 0.00901598 0.00621296 0.00691697
v 0.00901598 0.00953208 0.00801883
v 0.01455472 0.00540652 0.01727260
v 0.00901598 0.00953208 0.01811139
v 0.01122891 0.00246709 0.01744248
v 0.01372307 0.00706919 0.01725727
v 0.01039726 0.00246709 0.01745428
f 1 2 3
f 1 3 4
f 1 4 9
f 1 9 19
f 1 19 33
f 1 33 43
f 1 43 55
f 1 55 57
f 1 57 46
f 1 46 37
f 1 37 28
f 1 28 15
f 1 15 8
f 1 8 7
f 1 7 5
f 1 5 2
f 2 6 3
f 2 5 7
f 2 7 8
f 2 8 6
f 3 9 4
f 3 6 10
f 3 10 11
f 3 11 12
f 3 12 13
f 3 13 9
f 6 8 14
f 6 14 10
f 8 15 16
f 8 16 14
f 9 13 17
f 9 17 18
f 9 18 19
f 10 14 16
f 10 16 11
f 11 20 21
f 11 21 12
f 11 16 22
f 11 22 20
f 12 21 23
f 12 23 24
f 12 24 13
f 13 25 26
f 13 26 27
f 13 27 19
f 13 19 18
f 13 18 17
f 13 24 25
f 15 28 36
f 15 36 38
f 15 38 29
f 15 29 16
f 16 29 22
f 19 27 30
f 19 30 31
f 19 31 32
f 19 32 33
f 20 22 29
f 20 29 38
f 20 38 52
f 20 52 54
f 20 54 44
f 20 44 34
f 20 34 24
f 20 24 23
f 20 23 21
f 24 34 35
f 24 35 25
f 25 35 34
f 25 34 26
f 26 34 30
f 26 30 27
f 28 37 36
f 30 34 39
f 30 39 40
f 30 40 31
f 31 40 41
f 31 41 33
f 31 33 32
f 33 41 42
f 33 42 43
f 34 44 40
f 34 40 39
f 36 37 38
f 37 45 38
f 37 46 54
f 37 54 52
f 37 52 51
f 37 51 50
f 37 50 49
f 37 49 48
f 37 48 47
f 37 47 45
f 38 45 47
f 38 47 48
f 38 48 49
f 38 49 50
f 38 50 51
f 38 51 52
f 40 44 53
f 40 53 41
f 41 53 54
f 41 54 42
f 42 54 43
f 43 54 55
f 44 56 53
f 44 54 56
f 46 57 54
f 53 56 54
f 54 57 55

