# https://github.com/mikedh/trimesh
v 0.00294995 -0.04492773 -0.00306126
v 0.00612491 -0.04716236 -0.00302319
v 0.00504870 -0.04736847 -0.00298596
v 0.00394566 -0.04681161 -0.00253244
v 0.00337328 -0.04589318 -0.00256967
v 0.00311093 -0.04529655 -0.00090450
v 0.00294995 -0.04490603 0.00042560
v 0.00294995 -0.01567139 -0.00306126
v 0.01397439 -0.01050064 -0.00306126
v 0.03340579 -0.03258662 -0.00302319
v 0.00574332 -0.04686586 -0.00195115
v 0.03313450 -0.03419932 -0.00294534
v 0.03214475 -0.03491165 -0.00289881
v 0.02152873 -0.03904464 -0.00093243
v 0.00536769 -0.04654765 -0.00086643
v 0.00436899 -0.04569430 0.00162116
v 0.00413944 -0.04661274 -0.00113126
v 0.00337328 -0.04570153 0.00015907
v 0.00294995 -0.04474693 0.00189531
v 0.00294995 -0.01554122 0.00558269
v 0.01234070 -0.01043194 0.00082412
v 0.01254044 -0.01043194 -0.00091466
v 0.01308003 -0.01043194 -0.00204930
v 0.02312068 -0.01043194 -0.00256967
v 0.02313559 -0.01043194 -0.00011677
v 0.03144119 -0.02825476 0.00555985
v 0.03187644 -0.02956010 0.00549385
v 0.03333126 -0.03260470 -0.00192069
v 0.00714448 -0.04494219 0.00089096
v 0.00553166 -0.04574854 0.00074035
v 0.03242796 -0.03327726 0.00024960
v 0.03202848 -0.03415231 -0.00101873
v 0.03288408 -0.03201892 0.00083258
v 0.03246374 -0.03247091 0.00171593
v 0.02411044 -0.03742110 -0.00000846
v 0.00442564 -0.04493134 0.00319664
v 0.00309602 -0.04391889 0.00513679
v 0.00315565 -0.04468546 0.00319579
v 0.00318248 -0.04505428 0.00207807
v 0.01488365 -0.01043194 0.00558269
v 0.01240330 -0.01043194 0.00550147
v 0.01234070 -0.01043194 0.00207807
v 0.00429148 -0.04384657 0.00519602
v 0.01554250 -0.03837570 0.00558269
v 0.02313559 -0.01043194 0.00558269
v 0.02321906 -0.01060550 0.00124802
v 0.03207320 -0.03035199 0.00457327
v 0.03253528 -0.03116919 0.00247151
v 0.03099401 -0.03114026 0.00537116
v 0.03160813 -0.03160671 0.00416798
v 0.00549290 -0.04494580 0.00235729
v 0.01789764 -0.03992692 0.00083681
v 0.01420394 -0.04078028 0.00254682
v 0.03152764 -0.03323387 0.00138679
v 0.03139349 -0.03249261 0.00292503
v 0.02326378 -0.03741387 0.00081058
v 0.00505467 -0.04410691 0.00420690
v 0.01515792 -0.03907357 0.00475773
v 0.01558125 -0.03981844 0.00313318
v 0.01332449 -0.04075858 0.00333625
v 0.01781118 -0.03915312 0.00241736
v 0.01574522 -0.03942070 0.00369331
v 0.01700626 -0.03906634 0.00328294
v 0.01455870 -0.04005709 0.00355624
f 1 2 3
f 1 3 4
f 1 4 5
f 1 5 6
f 1 6 7
f 1 7 19
f 1 19 20
f 1 20 8
f 1 8 9
f 1 9 10
f 1 10 2
f 2 11 3
f 2 10 12
f 2 12 13
f 2 13 14
f 2 14 11
f 3 11 15
f 3 15 16
f 3 16 17
f 3 17 4
f 4 17 18
f 4 18 5
f 5 18 6
f 6 18 7
f 7 18 19
f 8 20 21
f 8 21 22
f 8 22 23
f 8 23 9
f 9 23 24
f 9 24 10
f 10 24 25
f 10 25 26
f 10 26 27
f 10 27 28
f 10 28 12
f 11 14 29
f 11 29 30
f 11 30 15
f 12 31 32
f 12 32 13
f 12 28 33
f 12 33 34
f 12 34 31
f 13 32 14
f 14 32 35
f 14 35 29
f 15 30 16
f 16 30 36
f 16 36 37
f 16 37 38
f 16 38 17
f 17 38 39
f 17 39 18
f 18 39 19
f 19 39 38
f 19 38 37
f 19 37 20
f 20 40 41
f 20 41 42
f 20 42 21
f 20 37 43
f 20 43 44
f 20 44 45
f 20 45 40
f 21 42 41
f 21 41 40
f 21 40 45
f 21 45 25
f 21 25 24
f 21 24 23
f 21 23 22
f 25 45 46
f 25 46 26
f 26 46 45
f 26 45 44
f 26 44 27
f 27 47 48
f 27 48 28
f 27 44 49
f 27 49 50
f 27 50 47
f 28 48 33
f 29 51 30
f 29 35 52
f 29 52 53
f 29 53 51
f 30 51 36
f 31 54 32
f 31 34 54
f 32 54 35
f 33 48 47
f 33 47 34
f 34 50 55
f 34 55 54
f 34 47 50
f 35 54 56
f 35 56 52
f 36 51 57
f 36 57 43
f 36 43 37
f 43 57 58
f 43 58 44
f 44 55 50
f 44 50 49
f 44 58 55
f 51 53 59
f 51 59 60
f 51 60 57
f 52 61 53
f 52 56 54
f 52 54 61
f 53 61 59
f 54 55 61
f 55 58 62
f 55 62 63
f 55 63 59
f 55 59 61
f 57 60 64
f 57 64 58
f 58 64 62
f 59 63 64
f 59 64 60
f 62 64 63

