# https://github.com/mikedh/trimesh
v 0.00454287 0.02931726 -0.00303663
v 0.00718905 0.02370320 -0.00303663
v 0.00745458 0.02321524 -0.00540703
v 0.00745458 0.02322024 -0.00623860
v 0.00449748 0.02931726 -0.01068446
v -0.01064429 0.02931726 -0.00303663
v 0.00739784 0.02324522 -0.00303663
v 0.00743415 0.02316361 -0.00303663
v 0.00759755 0.02274893 -0.00303663
v 0.00761571 0.02279889 -0.00540703
v 0.00761571 0.02280389 -0.00623860
v 0.00761117 0.02275559 -0.00956489
v 0.00760663 0.02275226 -0.01039568
v 0.00742507 0.02316028 -0.01088984
v 0.00449522 0.02931726 -0.01088984
v -0.01064429 0.02931726 -0.00756587
v -0.01539198 0.02477905 -0.00851635
v -0.01064429 0.01239181 -0.00303663
v 0.00777003 0.02214606 -0.00303663
v 0.00779273 0.02203947 -0.00303663
v 0.00774507 0.02203947 -0.01039568
v 0.00765883 0.02245415 -0.01088984
v 0.00760209 0.02274393 -0.01088984
v -0.01089166 0.02083872 -0.01092459
v -0.00878561 0.02931726 -0.01088984
v -0.01539198 0.02458253 -0.01088598
v -0.01539198 0.01949308 -0.00851635
v -0.01064202 0.01230688 -0.00303663
v -0.01538971 0.01877695 -0.00851635
v 0.00777230 0.02122842 -0.00303663
v 0.00773599 0.02203947 -0.01088984
v -0.00332985 0.01580755 -0.01088984
v -0.01064429 0.01240514 -0.01088984
v -0.01095066 0.02083872 -0.01092459
v 0.00761571 0.02139329 -0.01088984
v 0.00742961 0.02114682 -0.01088984
v 0.00730026 0.02097861 -0.01088984
v 0.00688268 0.02063554 -0.01088984
v 0.00650141 0.02043236 -0.01088984
v 0.00623588 0.02029247 -0.01088984
v -0.01538517 0.02458087 -0.01088984
v -0.01539198 0.02457254 -0.01088984
v -0.01539198 0.01954637 -0.00861364
v -0.01064429 0.01230355 -0.00304126
v 0.00651276 0.01987612 -0.00303663
v -0.01539198 0.02180298 -0.01088984
v -0.01064429 0.01230355 -0.00314472
v 0.00776322 0.02117013 -0.00303663
v 0.00766110 0.02062055 -0.00303663
v 0.00725487 0.02022918 -0.00303663
f 1 2 3
f 1 3 4
f 1 4 5
f 1 5 15
f 1 15 25
f 1 25 16
f 1 16 6
f 1 6 18
f 1 18 28
f 1 28 45
f 1 45 50
f 1 50 49
f 1 49 48
f 1 48 30
f 1 30 20
f 1 20 19
f 1 19 9
f 1 9 8
f 1 8 7
f 1 7 2
f 2 7 3
f 3 7 8
f 3 8 9
f 3 9 10
f 3 10 11
f 3 11 4
f 4 11 12
f 4 12 13
f 4 13 14
f 4 14 15
f 4 15 5
f 6 16 17
f 6 17 27
f 6 27 18
f 9 19 10
f 10 19 11
f 11 19 20
f 11 20 12
f 12 20 13
f 13 20 21
f 13 21 22
f 13 22 23
f 13 23 14
f 14 23 24
f 14 24 15
f 15 24 34
f 15 34 25
f 16 25 26
f 16 26 17
f 17 26 42
f 17 42 46
f 17 46 43
f 17 43 27
f 18 27 29
f 18 29 28
f 20 30 21
f 21 30 31
f 21 31 22
f 22 31 24
f 22 24 23
f 24 32 33
f 24 33 34
f 24 31 35
f 24 35 36
f 24 36 37
f 24 37 38
f 24 38 39
f 24 39 40
f 24 40 32
f 25 34 41
f 25 41 26
f 26 41 42
f 27 43 29
f 28 29 44
f 28 44 45
f 29 43 46
f 29 46 33
f 29 33 47
f 29 47 44
f 30 48 31
f 31 48 49
f 31 49 35
f 32 40 45
f 32 45 33
f 33 45 47
f 33 46 34
f 34 46 42
f 34 42 41
f 35 49 36
f 36 49 37
f 37 49 50
f 37 50 38
f 38 50 39
f 39 50 40
f 40 50 45
f 44 47 45

