# https://github.com/mikedh/trimesh
v 0.01621910 -0.02370500 -0.01969971
v 0.01328718 -0.02287344 -0.01962242
v 0.01372446 -0.02287344 -0.01963247
v 0.01455573 -0.02287344 -0.01965024
v 0.01538869 -0.02287344 -0.01963169
v 0.01705207 -0.02370500 -0.01967189
v 0.01788078 -0.02453596 -0.01967111
v 0.01871375 -0.02619907 -0.01968735
v 0.01328718 -0.02217537 -0.01938126
v 0.01372446 -0.02216214 -0.01939363
v 0.01956114 -0.02706851 -0.01965797
v 0.01874856 -0.02710639 -0.01958609
v 0.01328718 -0.02361120 -0.01937044
v 0.01538869 -0.02228841 -0.01932715
v 0.01626326 -0.02280851 -0.01945082
v 0.01455573 -0.02220303 -0.01938744
v 0.01705207 -0.02303458 -0.01936812
v 0.01786805 -0.02371222 -0.01938744
v 0.01870525 -0.02455580 -0.01937817
v 0.01871375 -0.02536751 -0.01964329
v 0.01328718 -0.02180739 -0.01871343
v 0.01372446 -0.02178214 -0.01871343
v 0.01960445 -0.02615939 -0.01943305
v 0.02017419 -0.02706851 -0.01933566
v 0.02042467 -0.02706851 -0.01871343
v 0.02175860 -0.02706911 -0.01180405
v 0.01790880 -0.02710639 -0.01180405
v 0.01818561 -0.02710639 -0.01927536
v 0.01328718 -0.02403991 -0.01868406
v 0.01538869 -0.02203527 -0.01871343
v 0.01601447 -0.02237860 -0.01922976
v 0.01455573 -0.02186511 -0.01871343
v 0.01758275 -0.02319693 -0.01922744
v 0.01842166 -0.02399421 -0.01924986
v 0.01920028 -0.02484621 -0.01921353
v 0.01936076 -0.02536751 -0.01932870
v 0.01328718 -0.02097884 -0.01180405
v 0.01455573 -0.02096441 -0.01180405
v 0.01538869 -0.02098004 -0.01180405
v 0.02006126 -0.02641012 -0.01924213
v 0.02178407 -0.02524906 -0.01180405
v 0.02196153 -0.02619907 -0.01180405
v 0.01328718 -0.02408440 -0.01180405
v 0.01328718 -0.02410485 -0.01292250
v 0.01328718 -0.02411266 -0.01356096
v 0.01782050 -0.02710639 -0.01705005
v 0.01794701 -0.02710639 -0.01874358
v 0.01328718 -0.02409402 -0.01802705
v 0.01782559 -0.02710639 -0.01791807
v 0.01621656 -0.02113758 -0.01180405
v 0.01626326 -0.02231426 -0.01871034
v 0.01656893 -0.02248803 -0.01898628
v 0.01769653 -0.02310193 -0.01871343
v 0.01811259 -0.02345668 -0.01871343
v 0.01699942 -0.02265879 -0.01871034
v 0.01853883 -0.02387276 -0.01871343
v 0.01895404 -0.02432551 -0.01871343
v 0.02101904 -0.02397677 -0.01180405
v 0.02135358 -0.02441029 -0.01180405
v 0.01992031 -0.02585575 -0.01885411
v 0.02156671 -0.02476985 -0.01180405
v 0.01705122 -0.02150976 -0.01180405
v 0.01668780 -0.02243392 -0.01843208
v 0.02049685 -0.02355769 -0.01180405
f 1 2 3
f 1 3 4
f 1 4 5
f 1 5 6
f 1 6 7
f 1 7 8
f 1 8 2
f 2 9 10
f 2 10 3
f 2 8 11
f 2 11 12
f 2 12 13
f 2 13 29
f 2 29 48
f 2 48 45
f 2 45 44
f 2 44 43
f 2 43 37
f 2 37 21
f 2 21 9
f 3 10 4
f 4 10 5
f 5 14 15
f 5 15 6
f 5 10 16
f 5 16 14
f 6 15 17
f 6 17 18
f 6 18 7
f 7 18 19
f 7 19 20
f 7 20 8
f 8 20 11
f 9 21 22
f 9 22 10
f 10 22 16
f 11 23 24
f 11 24 12
f 11 20 23
f 12 24 25
f 12 25 26
f 12 26 27
f 12 27 46
f 12 46 49
f 12 49 47
f 12 47 28
f 12 28 13
f 13 28 29
f 14 30 31
f 14 31 15
f 14 16 32
f 14 32 30
f 15 31 17
f 16 22 32
f 17 31 33
f 17 33 18
f 18 33 34
f 18 34 19
f 19 34 35
f 19 35 36
f 19 36 20
f 20 36 23
f 21 37 22
f 22 37 38
f 22 38 39
f 22 39 32
f 23 40 24
f 23 36 40
f 24 40 25
f 25 41 42
f 25 42 26
f 25 40 41
f 26 42 41
f 26 41 61
f 26 61 59
f 26 59 58
f 26 58 64
f 26 64 62
f 26 62 50
f 26 50 39
f 26 39 38
f 26 38 37
f 26 37 43
f 26 43 27
f 27 43 44
f 27 44 45
f 27 45 46
f 28 47 29
f 29 47 49
f 29 49 48
f 30 50 51
f 30 51 52
f 30 52 31
f 30 32 50
f 31 52 33
f 32 39 50
f 33 53 54
f 33 54 34
f 33 52 55
f 33 55 53
f 34 54 56
f 34 56 57
f 34 57 35
f 35 57 58
f 35 58 59
f 35 59 60
f 35 60 40
f 35 40 36
f 40 60 61
f 40 61 41
f 45 48 49
f 45 49 46
f 50 62 63
f 50 63 51
f 51 63 52
f 52 63 55
f 53 64 58
f 53 58 54
f 53 55 64
f 54 58 56
f 55 63 62
f 55 62 64
f 56 58 57
f 59 61 60

