# https://github.com/mikedh/trimesh
v -0.00767238 0.00037387 0.00689147
v -0.00582496 0.00037476 -0.00066687
v -0.00443096 0.00037387 0.00689147
v -0.01104101 0.00037387 0.00746968
v -0.00540615 0.00208072 -0.00064715
v -0.00255671 0.00540479 -0.00056612
v -0.00476842 0.00037476 0.00013474
v -0.00684775 0.00039628 -0.00027482
v -0.00652499 0.00124791 -0.00041061
v -0.00220107 0.00037387 0.00899843
v -0.01104101 0.00680685 0.00851221
v -0.00883622 0.00037387 0.02156353
v -0.00959509 0.00038552 0.02170809
v -0.01072604 0.00041690 0.02170152
v -0.01104101 0.00808789 0.02141022
v -0.00540615 0.00291174 -0.00055298
v -0.00384861 0.00565490 -0.00023321
v -0.00262160 0.00640255 -0.00029234
v -0.00220107 0.00699959 0.00042823
v -0.00220107 0.00459350 0.00010408
v -0.00651634 0.00199466 -0.00022445
v -0.01104101 0.00822056 0.00886483
v -0.00609320 0.00291174 -0.00023540
v -0.00220107 0.00037387 0.01704518
v -0.00707013 0.00207983 0.02158762
v -0.00801591 0.00037387 0.02112550
v -0.00729857 0.00069659 0.02098532
v -0.00676901 0.00133846 0.02113426
v -0.00707013 0.00623760 0.02155915
v -0.00873238 0.00789963 0.02155915
v -0.01071825 0.00888843 0.02121310
v -0.01071825 0.00934562 0.02048815
v -0.01104015 0.00953119 0.01820379
v -0.01104101 0.00953208 0.01194423
v -0.00573324 0.00387723 -0.00006018
v -0.00466026 0.00500049 -0.00014779
v -0.01104101 0.00871451 0.00951312
v -0.00874450 0.00953208 0.01058631
v -0.00785496 0.00953208 0.01019865
v -0.00699139 0.00953208 0.00991831
v -0.00622387 0.00953208 0.00975842
v -0.00540961 0.00953208 0.00967739
v -0.00457460 0.00953208 0.00960949
v -0.00372227 0.00953208 0.00955255
v -0.00220107 0.00953208 0.00952626
v -0.00220107 0.00362173 0.01727515
v -0.00571334 0.00340479 0.02100722
v -0.00633376 0.00207983 0.02118463
v -0.00623944 0.00374545 0.02146497
v -0.00594178 0.00457467 0.02125253
v -0.00597639 0.00540300 0.02117368
v -0.00620050 0.00621071 0.02114521
v -0.00677333 0.00706862 0.02121967
v -0.00790169 0.00817933 0.02121310
v -0.00880853 0.00874768 0.02110578
v -0.00956394 0.00897269 0.02113864
v -0.00220107 0.00953208 0.01730800
v -0.01071825 0.00946395 0.01954418
v -0.01039550 0.00953119 0.01886303
v -0.00900582 0.00953208 0.01793877
v -0.00220107 0.00445365 0.01730800
v -0.00220107 0.00528377 0.01731019
v -0.00220107 0.00611568 0.01731019
v -0.00712811 0.00784495 0.02102037
f 1 2 3
f 1 3 10
f 1 10 24
f 1 24 26
f 1 26 12
f 1 12 4
f 1 4 2
f 2 5 6
f 2 6 7
f 2 7 3
f 2 4 8
f 2 8 9
f 2 9 5
f 3 7 10
f 4 11 8
f 4 12 13
f 4 13 14
f 4 14 15
f 4 15 34
f 4 34 37
f 4 37 22
f 4 22 11
f 5 9 16
f 5 16 6
f 6 16 17
f 6 17 18
f 6 18 19
f 6 19 20
f 6 20 7
f 7 20 10
f 8 21 9
f 8 11 22
f 8 22 21
f 9 21 23
f 9 23 16
f 10 20 19
f 10 19 45
f 10 45 57
f 10 57 63
f 10 63 62
f 10 62 61
f 10 61 46
f 10 46 24
f 12 25 13
f 12 26 27
f 12 27 28
f 12 28 25
f 13 25 29
f 13 29 30
f 13 30 14
f 14 30 15
f 15 30 31
f 15 31 32
f 15 32 33
f 15 33 34
f 16 23 35
f 16 35 36
f 16 36 17
f 17 36 22
f 17 22 18
f 18 22 37
f 18 37 19
f 19 37 38
f 19 38 39
f 19 39 40
f 19 40 41
f 19 41 42
f 19 42 43
f 19 43 44
f 19 44 45
f 21 22 23
f 22 36 35
f 22 35 23
f 24 46 47
f 24 47 48
f 24 48 28
f 24 28 27
f 24 27 26
f 25 28 48
f 25 48 49
f 25 49 29
f 29 49 50
f 29 50 51
f 29 51 52
f 29 52 53
f 29 53 30
f 30 53 54
f 30 54 55
f 30 55 56
f 30 56 31
f 31 56 32
f 32 57 58
f 32 58 33
f 32 56 57
f 33 58 59
f 33 59 60
f 33 60 34
f 34 38 37
f 34 60 57
f 34 57 45
f 34 45 44
f 34 44 43
f 34 43 42
f 34 42 41
f 34 41 40
f 34 40 39
f 34 39 38
f 46 61 47
f 47 61 50
f 47 50 49
f 47 49 48
f 50 61 62
f 50 62 63
f 50 63 57
f 50 57 51
f 51 57 52
f 52 57 53
f 53 57 64
f 53 64 54
f 54 64 57
f 54 57 55
f 55 57 56
f 57 60 59
f 57 59 58

