# https://github.com/mikedh/trimesh
v 0.00295260 -0.03758183 0.01397979
v 0.00913604 -0.03563517 0.01297452
v 0.00908257 -0.03503991 0.01362864
v 0.00774568 -0.03505278 0.01426121
v 0.00873638 -0.03419368 0.01464912
v 0.00296386 -0.03547429 0.01602329
v 0.00295260 -0.03014591 0.01853329
v 0.00295260 -0.01554112 0.00558269
v 0.00300044 -0.04210903 0.00845652
v 0.00308488 -0.04041012 0.01083341
v 0.01167753 -0.03411324 0.01332187
v 0.02879528 -0.02619789 0.01309495
v 0.02240920 -0.02742380 0.01494956
v 0.02287077 -0.02690255 0.01523352
v 0.02581192 -0.02420618 0.01641120
v 0.00379413 -0.03372069 0.01711349
v 0.00478483 -0.02956030 0.01853329
v 0.00295260 -0.01938940 0.01853329
v 0.00295260 -0.01042832 0.00802804
v 0.01239804 -0.01043154 0.00561058
v 0.01488324 -0.01042832 0.00558269
v 0.02313534 -0.01042832 0.00558269
v 0.01498456 -0.03856643 0.00569298
v 0.00320590 -0.04329955 0.00630020
v 0.00413750 -0.04240505 0.00747407
v 0.01252188 -0.03816744 0.00795959
v 0.03042206 -0.02971475 0.00794057
v 0.02951580 -0.02787105 0.01082327
v 0.03005899 -0.02593726 0.01167135
v 0.02839844 -0.02484970 0.01454264
v 0.02713192 -0.02381685 0.01619442
v 0.02576407 -0.02273251 0.01734674
v 0.01241211 -0.02904870 0.01745323
v 0.02012946 -0.02238179 0.01853329
v 0.01577825 -0.01295415 0.01853329
v 0.00295260 -0.01042832 0.01745323
v 0.02239512 -0.01042832 0.01712236
v 0.02330421 -0.01098497 0.01628316
v 0.02412885 -0.01245542 0.01587117
v 0.02472552 -0.01372638 0.01538564
v 0.03127485 -0.02785818 0.00665515
v 0.03169984 -0.02924497 0.00583369
v 0.01249655 -0.03909733 0.00666656
v 0.03065003 -0.03094066 0.00600990
v 0.01683368 -0.03752070 0.00596553
v 0.03095963 -0.02755572 0.00873921
v 0.03041925 -0.02620432 0.01039860
v 0.02908799 -0.02325054 0.01396838
v 0.02815358 -0.02257484 0.01619189
v 0.02242890 -0.02410643 0.01746337
v 0.02705030 -0.02100786 0.01723138
v 0.02195043 -0.02069575 0.01853329
v 0.01759078 -0.01268709 0.01853329
v 0.01161280 -0.01042832 0.01745576
v 0.02079086 -0.01042832 0.01743168
v 0.02123274 -0.01423155 0.01853329
v 0.02578378 -0.01829862 0.01746717
v 0.02667034 -0.01819244 0.01670403
v 0.02829149 -0.02139398 0.01496985
v 0.02271598 -0.01719498 0.01853329
v 0.02262591 -0.01899685 0.01853329
v 0.01922600 -0.01302172 0.01853329
v 0.01705321 -0.01042832 0.01744182
f 1 2 3
f 1 3 4
f 1 4 5
f 1 5 6
f 1 6 7
f 1 7 18
f 1 18 36
f 1 36 19
f 1 19 8
f 1 8 9
f 1 9 10
f 1 10 2
f 2 11 3
f 2 10 12
f 2 12 11
f 3 11 4
f 4 11 13
f 4 13 5
f 5 13 6
f 6 13 14
f 6 14 15
f 6 15 16
f 6 16 7
f 7 16 17
f 7 17 34
f 7 34 52
f 7 52 61
f 7 61 60
f 7 60 56
f 7 56 62
f 7 62 53
f 7 53 35
f 7 35 18
f 8 19 20
f 8 20 21
f 8 21 22
f 8 22 23
f 8 23 24
f 8 24 9
f 9 24 25
f 9 25 10
f 10 25 26
f 10 26 27
f 10 27 28
f 10 28 12
f 11 12 13
f 12 28 29
f 12 29 30
f 12 30 31
f 12 31 13
f 13 31 14
f 14 31 15
f 15 31 32
f 15 32 33
f 15 33 16
f 16 33 17
f 17 33 34
f 18 35 36
f 19 36 54
f 19 54 63
f 19 63 55
f 19 55 37
f 19 37 22
f 19 22 21
f 19 21 20
f 22 37 38
f 22 38 39
f 22 39 40
f 22 40 41
f 22 41 42
f 22 42 23
f 23 43 25
f 23 25 24
f 23 42 44
f 23 44 45
f 23 45 43
f 25 43 26
f 26 43 27
f 27 44 42
f 27 42 46
f 27 46 29
f 27 29 28
f 27 43 44
f 29 46 47
f 29 47 48
f 29 48 49
f 29 49 30
f 30 49 31
f 31 49 32
f 32 34 50
f 32 50 33
f 32 49 51
f 32 51 52
f 32 52 34
f 33 50 34
f 35 53 36
f 36 53 54
f 37 55 56
f 37 56 57
f 37 57 58
f 37 58 38
f 38 58 39
f 39 58 59
f 39 59 40
f 40 59 41
f 41 47 46
f 41 46 42
f 41 59 48
f 41 48 47
f 43 45 44
f 48 59 49
f 49 59 58
f 49 58 51
f 51 58 57
f 51 57 60
f 51 60 61
f 51 61 52
f 53 62 55
f 53 55 63
f 53 63 54
f 55 62 56
f 56 60 57

