# https://github.com/mikedh/trimesh
v 0.01761663 -0.01268429 0.01853329
v 0.01919510 -0.01322200 0.02056833
v 0.01922655 -0.01302166 0.01853329
v 0.01621948 -0.01283688 0.01853329
v 0.01738080 -0.01285038 0.02045866
v 0.02023903 -0.01424034 0.02148656
v 0.02062265 -0.01390919 0.02050768
v 0.01754745 -0.01328117 0.02134703
v 0.02079664 -0.01379086 0.01853329
v 0.01392199 -0.01393618 0.01853329
v 0.01502462 -0.01328117 0.01892389
v 0.01602977 -0.01326871 0.02090489
v 0.01871296 -0.01392061 0.02164965
v 0.02152089 -0.01557528 0.02157643
v 0.02155338 -0.01482372 0.02043792
v 0.01621948 -0.01389259 0.02169019
v 0.02167182 -0.01467009 0.01853329
v 0.01448064 -0.01405037 0.02091809
v 0.01317049 -0.01480711 0.01853329
v 0.01343042 -0.01485071 0.02027923
v 0.02176929 -0.01705140 0.02167385
v 0.02241599 -0.01665382 0.02057525
v 0.02262980 -0.01660503 0.01853329
v 0.01310970 -0.01607874 0.02139103
v 0.01340107 -0.01705140 0.02174361
v 0.02177978 -0.01871333 0.02168987
v 0.01224814 -0.01672648 0.01853329
v 0.01259716 -0.01610365 0.01954641
v 0.01252274 -0.01655417 0.02045583
v 0.02248831 -0.01806039 0.02076034
v 0.02280589 -0.01778115 0.01853329
v 0.01239383 -0.01769188 0.02078296
v 0.01346606 -0.02001609 0.02169113
v 0.01826856 -0.02240155 0.02153275
v 0.02155653 -0.02018218 0.02132818
v 0.01209826 -0.01798253 0.01853392
v 0.01227749 -0.01922301 0.01853329
v 0.02233633 -0.01922613 0.02025849
v 0.02262666 -0.01899256 0.01853329
v 0.01258668 -0.01931540 0.02081910
v 0.01330884 -0.02101366 0.02070095
v 0.01584215 -0.02252300 0.02126847
v 0.01705483 -0.02252819 0.02145576
v 0.01767427 -0.02310535 0.01996184
v 0.01871401 -0.02290501 0.01996216
v 0.01953155 -0.02244203 0.02075405
v 0.02044342 -0.02156902 0.02121536
v 0.02144752 -0.02113927 0.01996624
v 0.02198940 -0.02037733 0.01954641
v 0.01290007 -0.02086937 0.01853329
v 0.01279002 -0.02037733 0.01996216
v 0.02195167 -0.02069187 0.01853329
v 0.01349016 -0.02144965 0.01954673
v 0.01404253 -0.02170605 0.02062301
v 0.01483910 -0.02234653 0.02033516
v 0.01622053 -0.02295483 0.01996216
v 0.01741853 -0.02328909 0.01853329
v 0.01913326 -0.02286556 0.01853329
v 0.01991726 -0.02243476 0.01954641
v 0.02071069 -0.02205068 0.01853329
v 0.01360546 -0.02171435 0.01853329
v 0.01390522 -0.02180674 0.01954673
v 0.01493029 -0.02262577 0.01853329
v 0.01599832 -0.02306487 0.01853329
f 1 2 3
f 1 3 9
f 1 9 17
f 1 17 23
f 1 23 31
f 1 31 39
f 1 39 52
f 1 52 60
f 1 60 58
f 1 58 57
f 1 57 64
f 1 64 63
f 1 63 61
f 1 61 50
f 1 50 37
f 1 37 27
f 1 27 19
f 1 19 10
f 1 10 4
f 1 4 5
f 1 5 2
f 2 6 7
f 2 7 3
f 2 5 8
f 2 8 6
f 3 7 9
f 4 10 11
f 4 11 12
f 4 12 5
f 5 12 8
f 6 8 13
f 6 13 14
f 6 14 7
f 7 14 15
f 7 15 9
f 8 12 16
f 8 16 13
f 9 15 17
f 10 18 11
f 10 19 20
f 10 20 18
f 11 18 12
f 12 18 16
f 13 21 14
f 13 16 21
f 14 21 22
f 14 22 15
f 15 22 23
f 15 23 17
f 16 18 24
f 16 24 25
f 16 25 26
f 16 26 21
f 18 20 24
f 19 27 28
f 19 28 20
f 20 28 29
f 20 29 24
f 21 26 30
f 21 30 22
f 22 30 31
f 22 31 23
f 24 29 32
f 24 32 25
f 25 32 33
f 25 33 26
f 26 34 35
f 26 35 30
f 26 33 34
f 27 36 32
f 27 32 29
f 27 29 28
f 27 37 36
f 30 38 39
f 30 39 31
f 30 35 38
f 32 36 40
f 32 40 33
f 33 40 41
f 33 41 42
f 33 42 43
f 33 43 34
f 34 44 45
f 34 45 46
f 34 46 47
f 34 47 35
f 34 43 44
f 35 48 49
f 35 49 38
f 35 47 48
f 36 37 40
f 37 50 51
f 37 51 40
f 38 49 39
f 39 49 52
f 40 51 41
f 41 50 53
f 41 53 54
f 41 54 42
f 41 51 50
f 42 54 55
f 42 55 56
f 42 56 44
f 42 44 43
f 44 57 45
f 44 56 57
f 45 57 58
f 45 58 59
f 45 59 46
f 46 59 48
f 46 48 47
f 48 52 49
f 48 59 60
f 48 60 52
f 50 61 53
f 53 61 62
f 53 62 54
f 54 62 55
f 55 62 63
f 55 63 64
f 55 64 56
f 56 64 57
f 58 60 59
f 61 63 62

