# https://github.com/mikedh/trimesh
v 0.00281722 -0.01877469 -0.01199517
v 0.00868249 -0.01949549 -0.01033083
v 0.00785133 -0.01949549 -0.01021889
v 0.00696585 -0.01949549 -0.01007720
v 0.00656411 -0.01949549 -0.01000461
v 0.00611317 -0.01949549 -0.00988829
v 0.00535067 -0.01949549 -0.00967139
v 0.00281722 -0.01949549 -0.00878719
v 0.00281722 -0.01584821 -0.01199517
v 0.00464762 -0.01795212 -0.01199517
v 0.01328718 -0.01949549 -0.01037981
v 0.01117802 -0.01949549 -0.01043666
v 0.01034583 -0.01949549 -0.01042966
v 0.00951365 -0.01949549 -0.01039206
v 0.00281722 -0.01949549 -0.00306126
v 0.00281722 -0.01582871 -0.01122816
v 0.00369348 -0.01543184 -0.01199517
v 0.00630072 -0.01720757 -0.01199517
v 0.01328718 -0.01405383 -0.01199517
v 0.01328718 -0.01949549 -0.00306126
v 0.00281722 -0.01573119 -0.00306126
v 0.00281722 -0.01575493 -0.00540691
v 0.00654258 -0.01408096 -0.01199517
v 0.01328718 -0.01096793 -0.01199517
v 0.01328718 -0.01083224 -0.00306126
v 0.00281722 -0.01573288 -0.00327204
v 0.00281722 -0.01574984 -0.00497136
v 0.00954644 -0.01265376 -0.01039643
v 0.00964176 -0.01262578 -0.01130250
v 0.00957104 -0.01267157 -0.01199517
v 0.01328718 -0.01095097 -0.01122816
v 0.01325643 -0.01098149 -0.01199517
v 0.00281722 -0.01574051 -0.00412126
v 0.00995946 -0.01249264 -0.01199517
f 1 2 3
f 1 3 4
f 1 4 5
f 1 5 6
f 1 6 7
f 1 7 8
f 1 8 15
f 1 15 21
f 1 21 26
f 1 26 33
f 1 33 27
f 1 27 22
f 1 22 16
f 1 16 9
f 1 9 17
f 1 17 23
f 1 23 30
f 1 30 34
f 1 34 32
f 1 32 24
f 1 24 19
f 1 19 18
f 1 18 10
f 1 10 11
f 1 11 12
f 1 12 13
f 1 13 14
f 1 14 2
f 2 14 13
f 2 13 12
f 2 12 11
f 2 11 20
f 2 20 15
f 2 15 8
f 2 8 7
f 2 7 6
f 2 6 5
f 2 5 4
f 2 4 3
f 9 16 17
f 10 18 11
f 11 19 24
f 11 24 31
f 11 31 25
f 11 25 20
f 11 18 19
f 15 20 25
f 15 25 21
f 16 22 23
f 16 23 17
f 21 25 26
f 22 27 23
f 23 27 28
f 23 28 29
f 23 29 30
f 24 32 31
f 25 31 28
f 25 28 33
f 25 33 26
f 27 33 28
f 28 31 29
f 29 34 30
f 29 31 34
f 31 32 34

