# https://github.com/mikedh/trimesh
v 0.02269429 -0.01780765 -0.00306126
v 0.02269429 -0.02710639 -0.00306126
v 0.02269429 -0.01780765 -0.00975528
v 0.01328718 -0.01780765 -0.00306126
v 0.02269429 -0.02710639 -0.01068125
v 0.01328718 -0.02710639 -0.00306126
v 0.02269429 -0.01780947 -0.00976469
v 0.02120886 -0.01780765 -0.01010787
v 0.01328718 -0.01780765 -0.00935562
v 0.02173747 -0.02710639 -0.01180319
v 0.02269429 -0.02704722 -0.01072917
v 0.01328718 -0.02710639 -0.00723069
v 0.02269429 -0.02536788 -0.01091573
v 0.02196125 -0.02619982 -0.01180319
v 0.02183600 -0.02536788 -0.01180319
v 0.02173378 -0.02513031 -0.01180319
v 0.02156710 -0.02476987 -0.01180319
v 0.02135437 -0.02441034 -0.01180319
v 0.02105599 -0.02402259 -0.01180319
v 0.02098324 -0.02392974 -0.01180319
v 0.02073459 -0.01780765 -0.01013439
v 0.02088838 -0.02385693 -0.01180319
v 0.02049700 -0.02355656 -0.01180319
v 0.01704726 -0.02150767 -0.01180319
v 0.01621568 -0.02113721 -0.01180319
v 0.01538778 -0.02097974 -0.01180319
v 0.01328718 -0.02097883 -0.01180319
v 0.01621936 -0.01780765 -0.00982032
v 0.02177983 -0.02703266 -0.01180319
v 0.01791016 -0.02710639 -0.01180319
v 0.02269429 -0.02619982 -0.01093028
v 0.01328718 -0.02408448 -0.01180319
v 0.02038188 -0.01780765 -0.01014124
v 0.01455620 -0.02096336 -0.01180319
v 0.01705095 -0.01780765 -0.00989221
f 1 2 5
f 1 5 11
f 1 11 31
f 1 31 13
f 1 13 7
f 1 7 3
f 1 3 8
f 1 8 21
f 1 21 33
f 1 33 35
f 1 35 28
f 1 28 9
f 1 9 4
f 1 4 6
f 1 6 2
f 2 6 12
f 2 12 30
f 2 30 10
f 2 10 5
f 3 7 8
f 4 9 27
f 4 27 32
f 4 32 12
f 4 12 6
f 5 10 11
f 7 13 14
f 7 14 15
f 7 15 16
f 7 16 17
f 7 17 18
f 7 18 19
f 7 19 20
f 7 20 8
f 8 20 22
f 8 22 23
f 8 23 24
f 8 24 25
f 8 25 26
f 8 26 21
f 9 28 27
f 10 29 11
f 10 30 32
f 10 32 27
f 10 27 34
f 10 34 26
f 10 26 25
f 10 25 24
f 10 24 23
f 10 23 22
f 10 22 20
f 10 20 19
f 10 19 18
f 10 18 17
f 10 17 16
f 10 16 15
f 10 15 14
f 10 14 29
f 11 29 14
f 11 14 31
f 12 32 30
f 13 31 14
f 21 26 33
f 26 34 33
f 27 28 35
f 27 35 33
f 27 33 34

