# https://github.com/mikedh/trimesh
v -0.03438121 0.03534356 -0.01064211
v -0.03419379 0.03456010 -0.01088965
v -0.03409941 0.03474222 -0.00763082
v -0.03410615 0.03577308 -0.00828889
v -0.03429626 0.03619574 -0.01088965
v -0.02247169 0.00937602 -0.01088965
v -0.02230450 0.00898773 -0.00956429
v -0.02242450 0.00923857 -0.00706808
v -0.02242450 0.00923857 -0.00623857
v -0.03377043 0.03368042 -0.00790066
v -0.03375425 0.03368042 -0.00706808
v -0.02633591 0.03628164 -0.01089042
v -0.03337403 0.03300005 -0.00374390
v -0.03328234 0.03283511 -0.00303663
v -0.03352908 0.03368042 -0.00374390
v -0.03338481 0.03395532 -0.00303663
v -0.03329313 0.03578339 -0.00615631
v -0.03379605 0.03676959 -0.01065287
v -0.03322976 0.03488654 -0.00380386
v -0.02160608 0.04240156 -0.01089042
v -0.02197282 0.00850322 -0.01088965
v -0.02218854 0.00874032 -0.00873170
v -0.02217641 0.00874032 -0.00790066
v -0.02214405 0.00874032 -0.00623857
v -0.02227079 0.00899460 -0.00540753
v -0.02247843 0.00952721 -0.00303663
v -0.03293178 0.03201729 -0.00303663
v -0.03341717 0.03296225 -0.00623857
v -0.02061104 0.03976254 -0.01089042
v -0.02091036 0.00794311 -0.01088965
v -0.03207966 0.03529201 -0.00303663
v -0.03278078 0.03488654 -0.00303893
v -0.03238438 0.03573528 -0.00464490
v -0.03250438 0.03615107 -0.00608097
v -0.03260415 0.03640191 -0.00703963
v -0.03307470 0.03650500 -0.00820202
v -0.03338481 0.03664932 -0.00931136
v -0.03285089 0.03715444 -0.01039533
v -0.02061104 0.04279329 -0.01056984
v -0.02180967 0.00814929 -0.00956429
v -0.02181372 0.00813898 -0.00873170
v -0.02190540 0.00846198 -0.00303663
v -0.02060969 0.03127850 -0.01088965
v -0.02091440 0.00769227 -0.00303663
v -0.02121238 0.00784690 -0.00873170
v -0.02060969 0.03619917 -0.00303663
v -0.02085238 0.04050132 -0.00313042
v -0.02426358 0.03895846 -0.00318884
v -0.03187202 0.03570092 -0.00386844
v -0.03186528 0.03653936 -0.00635696
v -0.02290719 0.03993435 -0.00412982
v -0.02150900 0.04077966 -0.00470410
v -0.02235708 0.04070406 -0.00563047
v -0.02237056 0.04091023 -0.00629085
v -0.02318224 0.04070062 -0.00685052
v -0.02146990 0.04151157 -0.00692662
v -0.02061104 0.04216446 -0.00786991
v -0.02063261 0.04242905 -0.00893927
v -0.02060969 0.03619917 -0.00802751
v -0.02121238 0.00783316 -0.00790066
v -0.02061104 0.04191361 -0.00695353
v -0.02061104 0.04143254 -0.00540753
v -0.02068789 0.04097896 -0.00420978
v -0.02070137 0.04164215 -0.00617476
f 1 2 3
f 1 3 4
f 1 4 5
f 1 5 2
f 2 6 7
f 2 7 8
f 2 8 9
f 2 9 10
f 2 10 11
f 2 11 3
f 2 5 12
f 2 12 6
f 3 11 13
f 3 13 14
f 3 14 15
f 3 15 16
f 3 16 4
f 4 17 18
f 4 18 5
f 4 16 19
f 4 19 17
f 5 18 20
f 5 20 12
f 6 21 7
f 6 12 21
f 7 22 8
f 7 21 22
f 8 22 9
f 9 22 23
f 9 23 24
f 9 24 25
f 9 25 26
f 9 26 27
f 9 27 28
f 9 28 10
f 10 28 11
f 11 28 27
f 11 27 13
f 12 20 29
f 12 29 30
f 12 30 21
f 13 27 14
f 14 27 26
f 14 26 42
f 14 42 44
f 14 44 46
f 14 46 31
f 14 31 16
f 14 16 15
f 16 31 32
f 16 32 19
f 17 33 34
f 17 34 35
f 17 35 36
f 17 36 37
f 17 37 18
f 17 19 32
f 17 32 33
f 18 37 38
f 18 38 20
f 20 39 29
f 20 38 39
f 21 30 40
f 21 40 22
f 22 40 41
f 22 41 23
f 23 41 24
f 24 41 42
f 24 42 25
f 25 42 26
f 29 39 43
f 29 43 30
f 30 44 45
f 30 45 40
f 30 43 44
f 31 46 47
f 31 47 48
f 31 48 49
f 31 49 33
f 31 33 32
f 33 50 34
f 33 49 51
f 33 51 52
f 33 52 53
f 33 53 50
f 34 50 35
f 35 50 54
f 35 54 55
f 35 55 36
f 36 55 56
f 36 56 57
f 36 57 37
f 37 57 58
f 37 58 38
f 38 58 39
f 39 58 57
f 39 57 46
f 39 46 59
f 39 59 43
f 40 45 60
f 40 60 41
f 41 60 44
f 41 44 42
f 43 59 46
f 43 46 44
f 44 60 45
f 46 57 61
f 46 61 62
f 46 62 63
f 46 63 47
f 47 63 51
f 47 51 48
f 48 51 49
f 50 53 54
f 51 63 52
f 52 63 62
f 52 62 53
f 53 62 64
f 53 64 54
f 54 64 56
f 54 56 55
f 56 64 61
f 56 61 57
f 61 64 62

