# https://github.com/mikedh/trimesh
v -0.05531321 0.12262212 -0.01176414
v -0.05312603 0.12521484 -0.00657068
v -0.04810750 0.12489925 -0.00629599
v -0.04562821 0.12237928 -0.00845514
v -0.05092762 0.12104702 -0.01113492
v -0.05956023 0.12180291 -0.01052486
v -0.06123057 0.12470366 -0.00663775
v -0.05696108 0.12537924 -0.00657068
v -0.05257923 0.12530366 -0.00328084
v -0.04765060 0.12511846 -0.00218530
v -0.04392790 0.12490303 -0.00218530
v -0.03780081 0.12456099 0.00000260
v -0.03615668 0.12414997 -0.00109295
v -0.03944493 0.12414146 -0.00328084
v -0.03547506 0.12307282 -0.00285285
v -0.03153514 0.12150339 -0.00124306
v -0.04614130 0.11820108 -0.00629599
v -0.05641429 0.11920359 -0.00629599
v -0.03043032 0.11819824 -0.00012197
v -0.02365156 0.11572647 0.00499484
v -0.06166876 0.12084482 -0.00664094
v -0.06050026 0.12134466 -0.00140277
v -0.05833556 0.12490397 -0.00164551
v -0.05257923 0.12528098 0.00000260
v -0.04874419 0.12519688 0.00000260
v -0.04293543 0.12498051 0.00150379
v -0.03751992 0.12473295 0.00438478
v -0.02958766 0.12422651 0.00547714
v -0.03188344 0.12403375 0.00210745
v -0.02596982 0.12374462 0.00586680
v -0.03390209 0.12343565 -0.00121751
v -0.02567770 0.12038845 0.00262488
v -0.05079654 0.11844675 -0.00328084
v -0.02725442 0.11572647 0.00639701
v -0.05586750 0.11920547 -0.00273467
v -0.02385755 0.12395910 0.01099958
v -0.02340813 0.12286117 0.01975437
v -0.02418712 0.11846091 0.02086588
v -0.02733306 0.11576899 0.01688934
v -0.02872252 0.11572647 0.01142439
v -0.04826855 0.11830596 0.00446463
v -0.04514883 0.11825494 0.00785348
v -0.04174447 0.11827383 0.01101236
v -0.05037708 0.12056514 0.00655991
v -0.05459414 0.12134749 0.00371085
v -0.05034337 0.12307660 0.00647686
v -0.05263916 0.12480287 0.00311996
v -0.04674427 0.12498146 0.00468502
v -0.03989061 0.12484350 0.00674516
v -0.03506309 0.12463279 0.00876058
v -0.03177858 0.12447028 0.00985293
v -0.02430697 0.12398934 0.01533066
v -0.02679002 0.12101301 0.01993004
v -0.03396950 0.12447784 0.01204722
v -0.03396950 0.12385044 0.01423831
v -0.03499193 0.12315408 0.01496974
v -0.03518668 0.12276574 0.01539135
v -0.03420170 0.11918280 0.01601098
v -0.03767347 0.11812076 0.01339190
v -0.04547465 0.12127663 0.00962935
v -0.03548255 0.12160449 0.01555743
f 1 2 3
f 1 3 4
f 1 4 5
f 1 5 6
f 1 6 7
f 1 7 8
f 1 8 2
f 2 8 9
f 2 9 10
f 2 10 11
f 2 11 3
f 3 11 12
f 3 12 13
f 3 13 14
f 3 14 15
f 3 15 4
f 4 15 16
f 4 16 5
f 5 17 18
f 5 18 6
f 5 16 19
f 5 19 20
f 5 20 17
f 6 18 21
f 6 21 7
f 7 21 22
f 7 22 23
f 7 23 8
f 8 23 24
f 8 24 9
f 9 24 25
f 9 25 10
f 10 25 26
f 10 26 11
f 11 26 27
f 11 27 28
f 11 28 12
f 12 28 29
f 12 29 13
f 13 29 30
f 13 30 31
f 13 31 14
f 14 31 15
f 15 31 16
f 16 30 32
f 16 32 19
f 16 31 30
f 17 33 18
f 17 20 34
f 17 34 33
f 18 35 21
f 18 33 35
f 19 32 20
f 20 32 36
f 20 36 37
f 20 37 38
f 20 38 39
f 20 39 40
f 20 40 34
f 21 35 22
f 22 35 41
f 22 41 42
f 22 42 43
f 22 43 44
f 22 44 45
f 22 45 46
f 22 46 23
f 23 47 24
f 23 46 47
f 24 47 48
f 24 48 49
f 24 49 25
f 25 49 26
f 26 49 50
f 26 50 27
f 27 50 51
f 27 51 28
f 28 51 36
f 28 36 30
f 28 30 29
f 30 36 32
f 33 34 40
f 33 40 41
f 33 41 35
f 36 51 52
f 36 52 37
f 37 53 38
f 37 52 54
f 37 54 55
f 37 55 56
f 37 56 57
f 37 57 53
f 38 53 58
f 38 58 59
f 38 59 39
f 39 59 43
f 39 43 42
f 39 42 41
f 39 41 40
f 43 59 58
f 43 58 44
f 44 58 60
f 44 60 46
f 44 46 45
f 46 60 61
f 46 61 57
f 46 57 47
f 47 57 56
f 47 56 55
f 47 55 54
f 47 54 48
f 48 54 49
f 49 54 50
f 50 54 51
f 51 54 52
f 53 61 58
f 53 57 61
f 58 61 60

