# https://github.com/mikedh/trimesh
v -0.04836564 -0.01928296 0.03615831
v -0.04836564 -0.01916817 0.03708923
v -0.04836564 -0.01874248 0.03396503
v -0.01100119 -0.02105747 0.03157662
v -0.04836564 -0.01901032 0.03834690
v -0.04836564 -0.01795327 0.03219958
v -0.01100119 -0.02101442 0.03170357
v -0.04836199 -0.01745584 0.03157427
v -0.04836199 -0.01707798 0.03110176
v -0.04836199 -0.01598744 0.03030720
v -0.04836199 -0.01424163 0.02984879
v -0.02089823 -0.01204621 0.02981118
v -0.01100119 0.01258168 0.03157192
v -0.04836564 -0.01861812 0.03903803
v -0.01100119 -0.02012478 0.03368058
v -0.03614978 -0.01777630 0.03974797
v -0.04836564 -0.01745584 0.03157662
v -0.04836564 -0.00408723 0.03157662
v -0.04836199 -0.01204621 0.02992872
v -0.03177182 -0.01204621 0.02982763
v -0.02759136 0.02780133 0.03157192
v -0.01100119 0.02780133 0.03157192
v -0.04836564 -0.01804415 0.03999950
v -0.01100119 -0.01979953 0.03420480
v -0.02850572 -0.01752280 0.03944001
v -0.02300858 -0.01622659 0.04023928
v -0.03700562 -0.01542782 0.04168502
v -0.04836564 0.01193119 0.03482306
v -0.04836199 -0.00985558 0.03033305
v -0.04836564 0.02780612 0.03818704
v -0.03834059 0.02780612 0.03661907
v -0.02825335 0.02780612 0.03530263
v -0.01100119 0.02780133 0.05314042
v -0.04836564 -0.01737452 0.04046261
v -0.01100119 -0.01940732 0.03477605
v -0.02824970 -0.01751323 0.03941886
v -0.02081411 -0.01606875 0.04017816
v -0.02081411 -0.01438991 0.04127128
v -0.03750303 -0.01542782 0.04168502
v -0.04836564 -0.01630312 0.04115844
v -0.02081411 -0.01328980 0.04167562
v -0.02081411 -0.01204143 0.04205644
v -0.02081411 -0.00985558 0.04269586
v -0.01100119 0.00652157 0.04709419
v -0.01100119 0.02738043 0.05302523
v -0.03925495 -0.00011252 0.04604574
v -0.04836564 0.02780612 0.05371166
v -0.02825335 0.02780612 0.05336844
v -0.04272221 0.02780612 0.05382685
v -0.04103247 0.02365922 0.05269612
v -0.01100119 -0.01831678 0.03541311
v -0.01967665 -0.01319414 0.04164976
v -0.01917192 -0.01574351 0.03990782
v -0.04836564 -0.01587265 0.04137471
v -0.03962069 -0.00011252 0.04604574
v -0.04836564 -0.01532738 0.04163330
v -0.04836564 -0.01539913 0.04160039
v -0.01100119 0.00438355 0.04638190
v -0.04272221 0.02371661 0.05268672
v -0.01100119 0.00385741 0.04620088
f 1 2 5
f 1 5 14
f 1 14 23
f 1 23 34
f 1 34 40
f 1 40 54
f 1 54 57
f 1 57 56
f 1 56 47
f 1 47 30
f 1 30 28
f 1 28 18
f 1 18 17
f 1 17 6
f 1 6 3
f 1 3 4
f 1 4 2
f 2 4 5
f 3 6 4
f 4 7 5
f 4 6 8
f 4 8 9
f 4 9 10
f 4 10 11
f 4 11 12
f 4 12 13
f 4 13 22
f 4 22 33
f 4 33 45
f 4 45 44
f 4 44 58
f 4 58 60
f 4 60 51
f 4 51 35
f 4 35 24
f 4 24 15
f 4 15 7
f 5 7 15
f 5 15 16
f 5 16 14
f 6 17 8
f 8 17 9
f 9 17 10
f 10 17 11
f 11 18 19
f 11 19 20
f 11 20 12
f 11 17 18
f 12 20 21
f 12 21 22
f 12 22 13
f 14 16 23
f 15 24 16
f 16 24 25
f 16 25 26
f 16 26 27
f 16 27 23
f 18 28 29
f 18 29 19
f 19 29 21
f 19 21 20
f 21 28 30
f 21 30 31
f 21 31 32
f 21 32 22
f 21 29 28
f 22 32 48
f 22 48 33
f 23 27 34
f 24 35 25
f 25 36 37
f 25 37 26
f 25 35 36
f 26 37 38
f 26 38 27
f 27 39 40
f 27 40 34
f 27 38 41
f 27 41 42
f 27 42 43
f 27 43 44
f 27 44 45
f 27 45 46
f 27 46 55
f 27 55 39
f 30 47 49
f 30 49 48
f 30 48 32
f 30 32 31
f 33 48 49
f 33 49 50
f 33 50 45
f 35 51 52
f 35 52 53
f 35 53 37
f 35 37 36
f 37 53 38
f 38 52 41
f 38 53 52
f 39 54 40
f 39 55 56
f 39 56 57
f 39 57 54
f 41 52 42
f 42 52 44
f 42 44 43
f 44 52 58
f 45 50 46
f 46 50 55
f 47 59 49
f 47 56 59
f 49 59 50
f 50 59 55
f 51 60 52
f 52 60 58
f 55 59 56

