# https://github.com/mikedh/trimesh
v 0.02906554 0.07259863 0.02301668
v 0.02749560 0.07259863 -0.00996419
v -0.02932873 0.07259863 -0.00996419
v -0.03870244 0.07224824 0.00889263
v -0.03956783 0.07090927 0.01549784
v -0.03871776 0.06710509 0.02217730
v -0.03730864 0.05904623 0.02255179
v -0.03277495 0.03479458 0.02301668
v 0.03601159 0.04381699 0.02301345
v 0.03696887 0.04818012 0.02301345
v 0.03824780 0.07045043 0.02246140
v 0.03843926 0.07190204 0.01324445
v 0.03627963 0.07099270 0.00357553
v 0.03315505 0.06959950 -0.00285212
v 0.03276448 0.04711228 -0.00642268
v 0.03219011 0.03045230 -0.00895048
v -0.02964272 0.03043562 -0.00696182
v -0.03055405 0.04163543 -0.00635166
v -0.03551661 0.07224824 0.00019867
v -0.03855694 0.06791849 0.00985791
v -0.03733927 0.07121378 0.00459246
v -0.03745415 0.06682145 0.00589672
v -0.03631306 0.05477487 0.00548349
v -0.03584591 0.04492237 0.00766585
v -0.03648155 0.04711228 0.01259555
v -0.03910833 0.06682145 0.01643083
v -0.03528686 0.04397967 0.01896186
v -0.03390071 0.03615858 0.01862289
v -0.03403856 0.03396867 0.01533642
v -0.03366330 0.03088194 0.01345429
v -0.03134285 0.03088194 0.02301345
v 0.03408170 0.02998930 0.01533642
v 0.03611880 0.02998930 0.00766585
v 0.03687697 0.02998930 0.00410175
v 0.03235860 0.02998930 0.02133470
v 0.03804102 0.04272830 0.01095232
v 0.03801039 0.05039506 0.01697965
v 0.03807932 0.05477487 0.01862289
v 0.03822482 0.06463154 0.02081494
v 0.03851584 0.06682145 0.01862289
v 0.03866901 0.07045878 0.01697642
v 0.03849286 0.06709675 0.01369319
v 0.03798742 0.06244163 0.00903468
v 0.03807166 0.07045878 0.00995798
v 0.03737476 0.05214698 0.00519939
v 0.03663957 0.03725144 0.00109615
v 0.03466373 0.03110719 -0.00482788
v 0.03552911 0.06682145 0.00118009
v 0.03451822 0.03506154 -0.00469228
v 0.03645576 0.03043562 -0.00004346
v -0.03041620 0.03506154 -0.00605465
v -0.03243798 0.03021037 -0.00044700
v -0.03512604 0.06791849 -0.00014999
v -0.03736225 0.05884601 0.00827601
v -0.03555489 0.04807167 0.00495404
v -0.03370925 0.03088194 0.00443750
v -0.03393135 0.02998930 0.00896042
v 0.03742070 0.04218186 0.00499278
v 0.03833204 0.05477487 0.01424201
v 0.03826312 0.05477487 0.01643083
v 0.03782659 0.05203436 0.00766585
v 0.03849286 0.06244163 0.01424201
v 0.03856944 0.06572858 0.01643083
v 0.03781894 0.05696478 0.00766585
f 1 2 3
f 1 3 4
f 1 4 5
f 1 5 6
f 1 6 7
f 1 7 8
f 1 8 9
f 1 9 10
f 1 10 11
f 1 11 12
f 1 12 2
f 2 12 13
f 2 13 14
f 2 14 15
f 2 15 16
f 2 16 3
f 3 16 17
f 3 17 18
f 3 18 19
f 3 19 4
f 4 20 5
f 4 19 21
f 4 21 22
f 4 22 23
f 4 23 20
f 5 20 24
f 5 24 25
f 5 25 26
f 5 26 6
f 6 26 25
f 6 25 27
f 6 27 7
f 7 27 8
f 8 28 29
f 8 29 30
f 8 30 31
f 8 31 9
f 8 27 28
f 9 32 33
f 9 33 34
f 9 34 10
f 9 31 35
f 9 35 32
f 10 34 36
f 10 36 37
f 10 37 38
f 10 38 39
f 10 39 11
f 11 39 40
f 11 40 41
f 11 41 12
f 12 41 42
f 12 42 43
f 12 43 44
f 12 44 13
f 13 45 46
f 13 46 47
f 13 47 48
f 13 48 14
f 13 44 45
f 14 48 15
f 15 48 49
f 15 49 16
f 16 49 47
f 16 47 50
f 16 50 34
f 16 34 17
f 17 51 18
f 17 34 52
f 17 52 51
f 18 51 19
f 19 53 21
f 19 51 53
f 20 54 24
f 20 23 54
f 21 53 51
f 21 51 52
f 21 52 22
f 22 52 23
f 23 55 54
f 23 52 55
f 24 54 55
f 24 55 56
f 24 56 57
f 24 57 25
f 25 57 29
f 25 29 27
f 27 29 28
f 29 57 30
f 30 57 31
f 31 57 35
f 32 35 57
f 32 57 34
f 32 34 33
f 34 50 58
f 34 58 36
f 34 57 52
f 36 59 60
f 36 60 37
f 36 58 61
f 36 61 42
f 36 42 62
f 36 62 59
f 37 60 38
f 38 60 40
f 38 40 39
f 40 60 63
f 40 63 41
f 41 63 62
f 41 62 42
f 42 61 43
f 43 61 64
f 43 64 44
f 44 64 45
f 45 64 58
f 45 58 46
f 46 50 47
f 46 58 50
f 47 49 48
f 52 57 56
f 52 56 55
f 58 64 61
f 59 62 63
f 59 63 60

