# https://github.com/mikedh/trimesh
v 0.02839192 0.10284884 -0.08010188
v 0.03834823 0.10688123 -0.07837306
v 0.03285928 0.10512375 -0.08022355
v 0.03287276 0.10243401 -0.08327392
v 0.02967649 0.09857113 -0.08560944
v 0.02884034 0.08818686 -0.08853644
v 0.03061380 0.06546903 -0.08653046
v 0.03283230 0.06141880 -0.07557619
v 0.03663546 0.07496118 -0.07510131
v 0.05527361 0.10657790 -0.07947829
v 0.04886422 0.10698828 -0.07926873
v 0.05064779 0.07496118 -0.07510131
v 0.04600848 0.10414688 -0.08251344
v 0.03693890 0.10292021 -0.08320464
v 0.03615669 0.09856667 -0.08671636
v 0.03140612 0.09358418 -0.08891498
v 0.03177700 0.08764266 -0.09134006
v 0.03008109 0.08286983 -0.09126739
v 0.02999005 0.07434116 -0.09064718
v 0.03206695 0.06974674 -0.09026356
v 0.03661186 0.06141880 -0.08605052
v 0.06283609 0.06179350 -0.07785931
v 0.06229327 0.06546011 -0.07510469
v 0.03733338 0.06994301 -0.07510131
v 0.05954879 0.10116274 -0.07938196
v 0.05700324 0.10118058 -0.08428789
v 0.05066465 0.10281763 -0.08405806
v 0.05269435 0.06994301 -0.07510131
v 0.05257971 0.09879862 -0.08729770
v 0.04874621 0.09816521 -0.08761372
v 0.04245820 0.09667984 -0.08822210
v 0.04273129 0.09232183 -0.09025173
v 0.03615669 0.08983282 -0.09091251
v 0.03929902 0.08641600 -0.09184705
v 0.03506430 0.08308840 -0.09222053
v 0.03042836 0.07873485 -0.09157159
v 0.03292671 0.07452850 -0.09175917
v 0.03594428 0.06962631 -0.09047143
v 0.04218847 0.06445647 -0.08788242
v 0.05049944 0.06178011 -0.08538636
v 0.05430596 0.06239568 -0.08555367
v 0.06118738 0.06411300 -0.08362543
v 0.06125481 0.06856468 -0.08593559
v 0.06068164 0.08055477 -0.08903497
v 0.06075245 0.08764266 -0.08654567
v 0.05981852 0.09422651 -0.08580209
v 0.05665596 0.09734892 -0.08787566
v 0.05674700 0.09358418 -0.08974306
v 0.05472067 0.08807980 -0.09164426
v 0.04984198 0.08628665 -0.09203464
v 0.03835160 0.08107666 -0.09236586
v 0.03506430 0.07888205 -0.09230165
v 0.04273804 0.07534033 -0.09190451
v 0.05419807 0.07502809 -0.09165440
v 0.05257971 0.07016158 -0.09021624
v 0.04983861 0.06583926 -0.08826942
v 0.05555345 0.06553148 -0.08768469
v 0.05715833 0.07022403 -0.08979207
v 0.05978143 0.07432332 -0.08978700
v 0.05866206 0.08549712 -0.09078069
v 0.05917454 0.09031903 -0.08929015
v 0.05676385 0.07942624 -0.09201604
v 0.05257971 0.08162086 -0.09232193
v 0.04819664 0.07772676 -0.09216476
f 1 2 3
f 1 3 4
f 1 4 5
f 1 5 6
f 1 6 7
f 1 7 8
f 1 8 9
f 1 9 2
f 2 10 11
f 2 11 3
f 2 9 12
f 2 12 10
f 3 11 13
f 3 13 14
f 3 14 4
f 4 15 5
f 4 14 15
f 5 15 16
f 5 16 6
f 6 16 17
f 6 17 18
f 6 18 19
f 6 19 7
f 7 20 21
f 7 21 8
f 7 19 20
f 8 21 22
f 8 22 23
f 8 23 24
f 8 24 9
f 9 24 28
f 9 28 12
f 10 25 26
f 10 26 27
f 10 27 11
f 10 12 23
f 10 23 25
f 11 27 13
f 12 28 23
f 13 27 14
f 14 27 15
f 15 27 29
f 15 29 30
f 15 30 31
f 15 31 16
f 16 31 32
f 16 32 33
f 16 33 17
f 17 34 35
f 17 35 36
f 17 36 18
f 17 33 34
f 18 36 19
f 19 36 37
f 19 37 20
f 20 38 21
f 20 37 38
f 21 38 39
f 21 39 40
f 21 40 22
f 22 40 41
f 22 41 42
f 22 42 43
f 22 43 44
f 22 44 45
f 22 45 25
f 22 25 23
f 23 28 24
f 25 45 46
f 25 46 26
f 26 46 47
f 26 47 27
f 27 47 29
f 29 47 48
f 29 48 30
f 30 48 32
f 30 32 31
f 32 48 49
f 32 49 33
f 33 49 34
f 34 49 50
f 34 50 35
f 35 50 51
f 35 51 52
f 35 52 36
f 36 52 37
f 37 52 53
f 37 53 38
f 38 53 54
f 38 54 55
f 38 55 39
f 39 41 40
f 39 55 56
f 39 56 57
f 39 57 41
f 41 57 42
f 42 57 58
f 42 58 43
f 43 58 59
f 43 59 44
f 44 59 60
f 44 60 61
f 44 61 45
f 45 61 46
f 46 61 47
f 47 61 48
f 48 61 60
f 48 60 49
f 49 60 62
f 49 62 63
f 49 63 50
f 50 63 51
f 51 63 52
f 52 63 64
f 52 64 53
f 53 64 54
f 54 58 55
f 54 64 62
f 54 62 58
f 55 58 57
f 55 57 56
f 58 62 59
f 59 62 60
f 62 64 63

