# https://github.com/mikedh/trimesh
v 0.02950827 0.02184861 -0.02218028
v 0.02950827 0.00880413 -0.03593882
v 0.02902284 0.02184628 -0.03453645
v 0.02518353 0.02184628 -0.03453804
v -0.00431420 0.02184628 -0.03441825
v -0.02520659 0.02184861 -0.02190715
v 0.02541049 0.02184861 -0.02014062
v 0.02518353 0.00939696 -0.02014062
v 0.02950827 0.00547591 -0.02430459
v 0.02950827 0.00551559 -0.03626944
v 0.00875458 0.00876912 -0.03602506
v 0.00437310 0.01792523 -0.03511624
v -0.01855557 0.02184628 -0.03429367
v -0.02176445 0.02184861 -0.02014062
v -0.02629723 0.02184628 -0.03421061
v -0.03489627 0.02184628 -0.02081784
v 0.02471702 -0.00199508 -0.02280160
v 0.02950827 0.00329133 -0.02475821
v -0.01885187 0.00939696 -0.02014062
v 0.02950827 0.00329133 -0.03628701
v 0.01971142 0.00329133 -0.03640681
v 0.01532994 0.00329133 -0.03645472
v 0.01094216 0.00438595 -0.03638923
v 0.00546374 0.00767450 -0.03610972
v 0.00437310 0.00986608 -0.03591007
v -0.02629723 0.00329600 -0.03615764
v -0.02957546 0.00329133 -0.03611131
v -0.03441715 0.02182060 -0.03410520
v -0.03489627 0.00548058 -0.03579826
v -0.03489627 0.00129580 -0.02425348
v 0.02080206 -0.00199508 -0.03213262
v 0.02466658 -0.00196007 -0.03135477
v 0.02853111 -0.00180837 -0.03072865
v 0.02950827 -0.00122254 -0.02739683
v 0.02950827 0.00039489 -0.02576286
v -0.01761623 -0.00199508 -0.02280160
v -0.03489627 -0.00163799 -0.02490515
v 0.02761699 0.00033421 -0.03506673
v 0.02518353 0.00109974 -0.03578548
v 0.01861447 0.00109974 -0.03602986
v 0.01313605 0.00109974 -0.03616083
v -0.00875872 0.00109974 -0.03636048
v -0.01204955 0.00109974 -0.03638125
v -0.01532778 0.00109974 -0.03638764
v -0.01971556 0.00109974 -0.03637965
v -0.00875872 0.00329133 -0.03634611
v -0.00000207 0.00767450 -0.03606500
v -0.03442345 0.00109974 -0.03623271
v -0.03442345 0.00329133 -0.03602986
v -0.03442345 -0.00149328 -0.03598194
v 0.01861447 -0.00199508 -0.03253193
v 0.02518353 -0.00011391 -0.03516256
v -0.03176935 -0.00199508 -0.03576951
v 0.02300225 0.00046024 -0.03554590
v 0.01642689 0.00036455 -0.03573916
v -0.01204955 -0.00108951 -0.03584458
v -0.01971556 -0.00108951 -0.03600111
v -0.02521289 0.00110908 -0.03632694
v 0.01541820 -0.00199508 -0.03306061
v -0.00067663 -0.00199508 -0.03488305
v -0.00423224 -0.00199508 -0.03512583
v -0.02299379 -0.00199508 -0.03562097
v -0.01532778 -0.00154230 -0.03570242
v -0.01861862 -0.00199508 -0.03554430
f 1 2 3
f 1 3 4
f 1 4 5
f 1 5 6
f 1 6 14
f 1 14 7
f 1 7 8
f 1 8 9
f 1 9 18
f 1 18 35
f 1 35 34
f 1 34 20
f 1 20 10
f 1 10 2
f 2 10 11
f 2 11 12
f 2 12 3
f 3 12 4
f 4 12 5
f 5 13 6
f 5 12 13
f 6 13 15
f 6 15 16
f 6 16 14
f 7 14 19
f 7 19 8
f 8 17 18
f 8 18 9
f 8 19 36
f 8 36 17
f 10 20 21
f 10 21 22
f 10 22 23
f 10 23 11
f 11 23 24
f 11 24 25
f 11 25 12
f 12 25 26
f 12 26 27
f 12 27 28
f 12 28 15
f 12 15 13
f 14 16 19
f 15 28 16
f 16 28 29
f 16 29 37
f 16 37 30
f 16 30 19
f 17 31 32
f 17 32 33
f 17 33 34
f 17 34 35
f 17 35 18
f 17 36 53
f 17 53 62
f 17 62 64
f 17 64 61
f 17 61 60
f 17 60 59
f 17 59 51
f 17 51 31
f 19 30 37
f 19 37 36
f 20 34 33
f 20 33 38
f 20 38 39
f 20 39 40
f 20 40 41
f 20 41 21
f 21 41 22
f 22 41 42
f 22 42 43
f 22 43 44
f 22 44 45
f 22 45 46
f 22 46 23
f 23 46 24
f 24 46 47
f 24 47 25
f 25 47 26
f 26 47 46
f 26 46 48
f 26 48 27
f 27 48 49
f 27 49 29
f 27 29 28
f 29 49 48
f 29 48 50
f 29 50 37
f 31 51 52
f 31 52 32
f 32 52 33
f 33 52 38
f 36 37 53
f 37 50 53
f 38 52 39
f 39 52 54
f 39 54 40
f 40 54 55
f 40 55 56
f 40 56 41
f 41 56 57
f 41 57 42
f 42 57 43
f 43 57 50
f 43 50 44
f 44 50 45
f 45 50 58
f 45 58 46
f 46 58 48
f 48 58 50
f 50 57 53
f 51 59 52
f 52 59 60
f 52 60 61
f 52 61 55
f 52 55 54
f 53 57 62
f 55 61 56
f 56 61 63
f 56 63 57
f 57 63 64
f 57 64 62
f 61 64 63

