# https://github.com/mikedh/trimesh
v 0.03454382 0.08287527 -0.07836970
v 0.03480120 0.08002196 -0.07836970
v 0.02703547 0.06994148 -0.07463185
v 0.02504624 0.06994148 -0.07348505
v 0.02689207 0.08668549 -0.07212053
v 0.05206450 0.09226100 -0.07303430
v 0.04943180 0.08358094 -0.07836970
v 0.03508801 0.07778695 -0.07836970
v 0.03539687 0.07568958 -0.07836970
v 0.02958360 0.06994148 -0.07507647
v 0.02395786 0.06994148 -0.07090320
v 0.02535143 0.08668549 -0.06894382
v 0.05206450 0.09226100 -0.05335768
v 0.05653200 0.09226100 -0.07303430
v 0.02516023 0.08668549 -0.05570649
v 0.02509772 0.08668549 -0.05130631
v 0.05117100 0.07495987 -0.07836970
v 0.03733463 0.06994148 -0.07509793
v 0.02594342 0.07495769 -0.04704412
v 0.02509772 0.08663524 -0.04704719
v 0.05153502 0.06994148 -0.07059963
v 0.04983994 0.08668549 -0.04704412
v 0.05740344 0.08765771 -0.05339755
v 0.05775643 0.08954971 -0.05608058
v 0.05735564 0.09157935 -0.05889240
v 0.05774172 0.09159246 -0.06244934
v 0.05936325 0.08910402 -0.06244934
v 0.06063916 0.08654566 -0.06244934
v 0.06027146 0.08654566 -0.06463257
v 0.06107304 0.08435435 -0.06463257
v 0.06046634 0.08435435 -0.06682806
v 0.05917573 0.08450947 -0.07012128
v 0.05942577 0.07997608 -0.07059043
v 0.05924192 0.07744395 -0.07025314
v 0.05269694 0.06994148 -0.07509793
v 0.04706017 0.07495769 -0.04704412
v 0.05911322 0.07495769 -0.05555931
v 0.05721224 0.07718396 -0.05249605
v 0.05756522 0.07997608 -0.05233047
v 0.05766450 0.08216740 -0.05221394
v 0.05810206 0.08435435 -0.05293147
v 0.05974934 0.08522170 -0.05612045
v 0.05894041 0.08872387 -0.05800623
v 0.05862419 0.09019203 -0.06025692
v 0.06047370 0.08654566 -0.06025692
v 0.06089287 0.08435435 -0.05806449
v 0.06118335 0.08435435 -0.06244934
v 0.06124953 0.08180910 -0.06543594
v 0.05966844 0.08216740 -0.06974413
v 0.06138558 0.07925730 -0.06502199
v 0.05943679 0.07495769 -0.06738613
v 0.06006188 0.07495769 -0.06458350
v 0.06014277 0.07511718 -0.05985216
v 0.05787041 0.07532692 -0.05395255
v 0.06127527 0.07800761 -0.06149878
v 0.06123115 0.08065992 -0.05866549
v 0.05884848 0.07740899 -0.05394029
v 0.05866096 0.07997608 -0.05346501
v 0.05883378 0.08227227 -0.05381763
v 0.05993318 0.08227227 -0.05566663
v 0.05985229 0.08671170 -0.05800623
v 0.06122747 0.08346734 -0.06025692
v 0.06152163 0.07997608 -0.06244934
v 0.06044060 0.07527666 -0.06229602
f 1 2 3
f 1 3 4
f 1 4 5
f 1 5 6
f 1 6 7
f 1 7 17
f 1 17 9
f 1 9 8
f 1 8 2
f 2 8 3
f 3 8 9
f 3 9 10
f 3 10 18
f 3 18 35
f 3 35 21
f 3 21 11
f 3 11 4
f 4 11 12
f 4 12 5
f 5 12 6
f 6 13 14
f 6 14 7
f 6 12 15
f 6 15 16
f 6 16 13
f 7 14 17
f 9 17 10
f 10 17 18
f 11 19 20
f 11 20 16
f 11 16 15
f 11 15 12
f 11 21 19
f 13 22 23
f 13 23 24
f 13 24 25
f 13 25 14
f 13 16 20
f 13 20 22
f 14 25 26
f 14 26 27
f 14 27 28
f 14 28 29
f 14 29 30
f 14 30 31
f 14 31 32
f 14 32 33
f 14 33 17
f 17 33 34
f 17 34 35
f 17 35 18
f 19 21 36
f 19 36 22
f 19 22 20
f 21 35 37
f 21 37 36
f 22 36 38
f 22 38 39
f 22 39 40
f 22 40 41
f 22 41 23
f 23 41 42
f 23 42 24
f 24 42 43
f 24 43 25
f 25 43 44
f 25 44 26
f 26 44 27
f 27 44 45
f 27 45 28
f 28 45 46
f 28 46 47
f 28 47 30
f 28 30 29
f 30 47 48
f 30 48 31
f 31 48 49
f 31 49 32
f 32 49 33
f 33 49 48
f 33 48 50
f 33 50 34
f 34 50 51
f 34 51 35
f 35 51 52
f 35 52 53
f 35 53 37
f 36 37 54
f 36 54 38
f 37 53 55
f 37 55 56
f 37 56 57
f 37 57 54
f 38 54 57
f 38 57 39
f 39 57 58
f 39 58 40
f 40 58 59
f 40 59 41
f 41 59 60
f 41 60 42
f 42 60 46
f 42 46 61
f 42 61 43
f 43 61 45
f 43 45 44
f 45 61 46
f 46 56 62
f 46 62 47
f 46 60 56
f 47 62 63
f 47 63 48
f 48 63 50
f 50 63 55
f 50 55 64
f 50 64 52
f 50 52 51
f 52 64 53
f 53 64 55
f 55 63 56
f 56 60 57
f 56 63 62
f 57 60 58
f 58 60 59

