# https://github.com/mikedh/trimesh
v 0.01862443 0.08591991 -0.03167077
v 0.02455462 0.08609225 -0.03654287
v 0.02092231 0.08603587 -0.03167077
v 0.01643372 0.08593055 -0.03167077
v 0.02455462 0.08616034 -0.03835174
v 0.02455462 0.09207945 -0.03715093
v 0.02292240 0.09104860 -0.03167077
v 0.02294816 0.08616672 -0.03167077
v 0.01444703 0.08686991 -0.03167077
v 0.01487981 0.08724119 -0.03615662
v 0.01526107 0.08758586 -0.03978583
v 0.01643372 0.08631033 -0.03396532
v 0.01724364 0.08973478 -0.05540026
v 0.02455462 0.09055499 -0.06682331
v 0.02455462 0.08840607 -0.05367935
v 0.02455462 0.08632842 -0.04054686
v 0.02455462 0.09422200 -0.04978243
v 0.01851727 0.09075925 -0.03167077
v 0.01402764 0.08874011 -0.03167077
v 0.01431513 0.08874011 -0.03615662
v 0.01529302 0.09207945 -0.05982493
v 0.01529302 0.08978797 -0.05076527
v 0.01728383 0.09190286 -0.06747343
v 0.01643372 0.08667736 -0.03615662
v 0.02455462 0.09114222 -0.06892665
v 0.02455462 0.09515391 -0.05586682
v 0.01862546 0.09501561 -0.05805812
v 0.01818959 0.09416455 -0.05290685
v 0.01862546 0.09362732 -0.04930440
v 0.01563409 0.09039435 -0.03167077
v 0.01474070 0.09059542 -0.03835174
v 0.01513021 0.09235498 -0.05148805
v 0.01513536 0.09239541 -0.05367935
v 0.01518894 0.09236669 -0.05586682
v 0.01524356 0.09232201 -0.05805812
v 0.01562276 0.09311987 -0.06244072
v 0.01588758 0.09311987 -0.06463584
v 0.01627915 0.09311987 -0.06682331
v 0.01680983 0.09163159 -0.06463584
v 0.01690772 0.09306136 -0.06891900
v 0.01862546 0.09293371 -0.06993625
v 0.02455462 0.09345924 -0.07073552
v 0.02455462 0.09581667 -0.06024942
v 0.01726631 0.09434114 -0.05511345
v 0.01862546 0.09534540 -0.06024942
v 0.01544140 0.09199967 -0.04287201
v 0.01660271 0.09488901 -0.06244072
v 0.01660889 0.09503475 -0.06463584
v 0.01665320 0.09518901 -0.06682331
v 0.01684280 0.09511774 -0.06901078
v 0.01718285 0.09423370 -0.07035310
v 0.01862546 0.09507306 -0.07050607
v 0.02300587 0.09531241 -0.07071640
v 0.02455462 0.09600922 -0.07045253
v 0.02455462 0.09610071 -0.06218831
v 0.01855848 0.09627199 -0.06687303
v 0.01689432 0.09457412 -0.05805812
v 0.02081309 0.09651347 -0.06718279
v 0.01669751 0.09473582 -0.06024942
v 0.01890059 0.09632411 -0.06849833
v 0.02072138 0.09633050 -0.06953471
v 0.02300587 0.09661986 -0.06961502
v 0.02455462 0.09678794 -0.06901078
v 0.02455462 0.09675496 -0.06676977
f 1 2 3
f 1 3 8
f 1 8 7
f 1 7 18
f 1 18 30
f 1 30 19
f 1 19 9
f 1 9 4
f 1 4 5
f 1 5 2
f 2 6 7
f 2 7 8
f 2 8 3
f 2 5 16
f 2 16 15
f 2 15 14
f 2 14 25
f 2 25 42
f 2 42 54
f 2 54 63
f 2 63 64
f 2 64 55
f 2 55 43
f 2 43 26
f 2 26 17
f 2 17 6
f 4 9 10
f 4 10 11
f 4 11 12
f 4 12 13
f 4 13 14
f 4 14 15
f 4 15 16
f 4 16 5
f 6 17 7
f 7 17 18
f 9 19 20
f 9 20 21
f 9 21 22
f 9 22 10
f 10 22 11
f 11 22 23
f 11 23 13
f 11 13 24
f 11 24 12
f 12 24 13
f 13 23 14
f 14 23 25
f 17 26 27
f 17 27 28
f 17 28 29
f 17 29 18
f 18 29 28
f 18 28 30
f 19 30 31
f 19 31 32
f 19 32 33
f 19 33 34
f 19 34 35
f 19 35 21
f 19 21 20
f 21 35 36
f 21 36 37
f 21 37 38
f 21 38 23
f 21 23 39
f 21 39 22
f 22 39 23
f 23 40 41
f 23 41 25
f 23 38 40
f 25 41 42
f 26 43 27
f 27 44 28
f 27 43 45
f 27 45 44
f 28 44 30
f 30 44 46
f 30 46 31
f 31 46 32
f 32 46 47
f 32 47 48
f 32 48 49
f 32 49 33
f 33 49 36
f 33 36 34
f 34 36 35
f 36 49 50
f 36 50 37
f 37 50 38
f 38 50 51
f 38 51 40
f 40 51 41
f 41 51 42
f 42 51 52
f 42 52 53
f 42 53 54
f 43 55 45
f 44 45 56
f 44 56 57
f 44 57 46
f 45 55 58
f 45 58 56
f 46 57 59
f 46 59 47
f 47 59 56
f 47 56 48
f 48 56 49
f 49 56 50
f 50 56 60
f 50 60 52
f 50 52 51
f 52 54 53
f 52 60 61
f 52 61 62
f 52 62 54
f 54 62 63
f 55 64 58
f 56 58 60
f 56 59 57
f 58 63 60
f 58 64 63
f 60 63 62
f 60 62 61

