# https://github.com/mikedh/trimesh
v -0.04710842 0.07217170 0.06577136
v -0.04836761 0.07130647 0.06574071
v -0.04108827 0.07229597 0.06573662
v -0.04491627 0.07223614 0.06575910
v -0.03396338 0.07339593 0.06562218
v -0.04773723 0.07351099 0.06557926
v -0.04836761 0.07595944 0.06474545
v -0.04836761 0.06901450 0.06534015
v -0.03226765 0.07095669 0.06541986
v -0.03226765 0.07314740 0.06560378
v -0.03226765 0.07533812 0.06530132
v -0.03396338 0.07558665 0.06524615
v -0.03615396 0.07558665 0.06521753
v -0.03834453 0.07558665 0.06516849
v -0.03396338 0.07771753 0.06423045
v -0.03615396 0.07763469 0.06421410
v -0.04773723 0.07742759 0.06391982
v -0.04836761 0.07950324 0.06157166
v -0.04836761 0.04930265 0.06000214
v -0.04491627 0.04930265 0.06001236
v -0.03396338 0.06901450 0.06501726
v -0.03226765 0.06901450 0.06497843
v -0.03226765 0.07794305 0.06414462
v -0.03226765 0.07918568 0.06321067
v -0.04773723 0.07850453 0.06294295
v -0.03226765 0.08107264 0.06061727
v -0.04836761 0.08027184 0.05978755
v -0.04836761 0.03485589 0.05570638
v -0.04387772 0.03900260 0.05709811
v -0.03226765 0.05149797 0.06024737
v -0.03226765 0.08171237 0.05825686
v -0.03834453 0.08113247 0.05934612
v -0.03976289 0.08108645 0.05921533
v -0.04122065 0.08103582 0.05901096
v -0.04272569 0.08098519 0.05872485
v -0.04836761 0.08075048 0.05759676
v -0.04836761 0.03485589 0.04489342
v -0.04491627 0.03485589 0.05581878
v -0.04272569 0.03485589 0.05583104
v -0.03226765 0.03485589 0.05540801
v -0.03226765 0.08187345 0.05612124
v -0.03615396 0.08154668 0.05806271
v -0.03834453 0.08141321 0.05806271
v -0.04050675 0.08123833 0.05819351
v -0.04272569 0.08118310 0.05762946
v -0.04451598 0.08111407 0.05726569
v -0.04773723 0.08086554 0.05563894
v -0.04836761 0.08044212 0.05368316
v -0.03226765 0.03485589 0.04489342
v -0.04836761 0.05942321 0.04489342
v -0.03226765 0.08148225 0.05391614
v -0.03615396 0.08166174 0.05587192
v -0.03834453 0.08152828 0.05587192
v -0.04272569 0.08124293 0.05587192
v -0.04438832 0.08110486 0.05529561
v -0.03242367 0.08078270 0.05214838
v -0.04836761 0.07907062 0.05116743
v -0.03226765 0.06917558 0.04489342
v -0.04836761 0.07339593 0.04773818
v -0.03226765 0.07920869 0.05005977
v -0.04836761 0.07758406 0.04965308
v -0.03226765 0.07585819 0.04767074
v -0.04836761 0.07535193 0.04832267
v -0.03226765 0.07782799 0.04896029
f 1 2 3
f 1 3 4
f 1 4 5
f 1 5 6
f 1 6 2
f 2 6 7
f 2 7 18
f 2 18 27
f 2 27 36
f 2 36 48
f 2 48 57
f 2 57 61
f 2 61 63
f 2 63 59
f 2 59 50
f 2 50 37
f 2 37 28
f 2 28 19
f 2 19 8
f 2 8 9
f 2 9 3
f 3 9 10
f 3 10 5
f 3 5 4
f 5 10 11
f 5 11 6
f 6 11 12
f 6 12 13
f 6 13 14
f 6 14 7
f 7 14 15
f 7 15 16
f 7 16 17
f 7 17 18
f 8 19 20
f 8 20 21
f 8 21 9
f 9 21 22
f 9 22 30
f 9 30 40
f 9 40 49
f 9 49 58
f 9 58 62
f 9 62 64
f 9 64 60
f 9 60 51
f 9 51 41
f 9 41 31
f 9 31 26
f 9 26 24
f 9 24 23
f 9 23 11
f 9 11 10
f 11 23 12
f 12 23 15
f 12 15 13
f 13 15 14
f 15 23 16
f 16 23 17
f 17 23 24
f 17 24 25
f 17 25 18
f 18 25 24
f 18 24 26
f 18 26 27
f 19 28 29
f 19 29 20
f 20 30 22
f 20 22 21
f 20 29 30
f 26 31 32
f 26 32 33
f 26 33 27
f 27 33 34
f 27 34 35
f 27 35 36
f 28 37 49
f 28 49 40
f 28 40 39
f 28 39 38
f 28 38 29
f 29 38 39
f 29 39 40
f 29 40 30
f 31 41 42
f 31 42 33
f 31 33 32
f 33 42 43
f 33 43 34
f 34 43 35
f 35 43 44
f 35 44 45
f 35 45 46
f 35 46 36
f 36 46 47
f 36 47 48
f 37 50 58
f 37 58 49
f 41 51 52
f 41 52 46
f 41 46 42
f 42 46 43
f 43 46 45
f 43 45 44
f 46 52 53
f 46 53 54
f 46 54 47
f 47 54 55
f 47 55 48
f 48 55 51
f 48 51 56
f 48 56 57
f 50 59 58
f 51 55 52
f 51 60 56
f 52 55 53
f 53 55 54
f 56 60 57
f 57 60 61
f 58 59 63
f 58 63 62
f 60 64 61
f 61 64 62
f 61 62 63

