# https://github.com/mikedh/trimesh
v -0.02530295 -0.02251255 0.00750582
v -0.02493121 -0.02179387 0.00940692
v 0.00742927 -0.02179387 0.00745012
v -0.02408519 -0.02921893 0.00745012
v -0.02427426 -0.02352598 0.01042841
v -0.02401789 -0.02179387 0.01203946
v 0.00742927 -0.05840643 0.00745012
v 0.00742927 -0.02179387 0.01818520
v -0.02263989 -0.03626851 0.00756151
v -0.02168811 -0.04106916 0.00745012
v -0.02192526 -0.03913113 0.00795140
v -0.02194769 -0.03745959 0.00886675
v -0.02301163 -0.02179387 0.01424007
v -0.02173298 -0.03405996 0.01109784
v 0.00742927 -0.05905648 0.01643123
v 0.00397787 -0.06304155 0.00745012
v -0.02079081 -0.02179387 0.01808221
v -0.02007297 -0.02414776 0.01818520
v -0.00110149 -0.05980746 0.01818520
v 0.00742927 -0.05779676 0.01810849
v -0.02000247 -0.04866784 0.00745012
v -0.02080043 -0.04053620 0.00986196
v -0.02194128 -0.02179387 0.01626939
v -0.02191885 -0.02415988 0.01535824
v -0.01986788 -0.04257114 0.01075734
v 0.00289470 -0.06304155 0.01652266
v 0.00380802 -0.06304155 0.01424007
v -0.01623702 -0.06304155 0.00756467
v -0.01722725 -0.05977112 0.00745012
v -0.01976853 -0.03745151 0.01322489
v -0.01737467 -0.03391865 0.01788674
v -0.01785536 -0.03151630 0.01818520
v -0.01730737 -0.04710127 0.01283920
v -0.01539099 -0.05825704 0.01098644
v -0.00321015 -0.06027986 0.01818520
v 0.00118021 -0.06304155 0.01750631
v -0.01786818 -0.05740108 0.00745012
v -0.01948973 -0.05081179 0.00746693
v -0.01782011 -0.05367442 0.00924718
v -0.01488466 -0.06304155 0.00957717
v -0.01737146 -0.05203921 0.01071215
v -0.01741633 -0.05657742 0.00859246
v -0.01766629 -0.04993564 0.01116930
v -0.01545508 -0.04637047 0.01547069
v -0.01585246 -0.03777855 0.01814106
v -0.00958098 -0.05315761 0.01818520
v -0.01306763 -0.06273873 0.01188497
v -0.00600459 -0.06191103 0.01747689
v -0.00598216 -0.05973882 0.01818520
v -0.00787611 -0.06304155 0.01603819
v -0.01135314 -0.06304155 0.01350548
v -0.01526281 -0.04143658 0.01745797
v -0.01302276 -0.05991648 0.01301681
v -0.01310288 -0.05359367 0.01529834
v -0.01537176 -0.03970851 0.01794980
v -0.01323106 -0.04538935 0.01796977
v -0.01075387 -0.05306474 0.01738125
v -0.00965148 -0.06304155 0.01478760
v -0.00844653 -0.05599601 0.01802126
v -0.01100704 -0.05076737 0.01795926
v -0.01072183 -0.05961770 0.01517328
v -0.01119611 -0.05751817 0.01552324
v -0.01154863 -0.05586277 0.01580698
v -0.01232735 -0.04843771 0.01770283
f 1 2 3
f 1 3 4
f 1 4 2
f 2 4 5
f 2 5 6
f 2 6 13
f 2 13 23
f 2 23 17
f 2 17 8
f 2 8 3
f 3 7 16
f 3 16 29
f 3 29 37
f 3 37 21
f 3 21 10
f 3 10 4
f 3 8 20
f 3 20 15
f 3 15 7
f 4 9 5
f 4 10 9
f 5 9 11
f 5 11 12
f 5 12 6
f 6 12 14
f 6 14 13
f 7 15 16
f 8 17 18
f 8 18 32
f 8 32 46
f 8 46 49
f 8 49 35
f 8 35 19
f 8 19 20
f 9 10 11
f 10 21 12
f 10 12 11
f 12 21 22
f 12 22 14
f 13 14 24
f 13 24 23
f 14 22 25
f 14 25 24
f 15 20 26
f 15 26 27
f 15 27 16
f 16 27 26
f 16 26 36
f 16 36 50
f 16 50 58
f 16 58 51
f 16 51 40
f 16 40 28
f 16 28 29
f 17 23 24
f 17 24 30
f 17 30 18
f 18 31 32
f 18 30 33
f 18 33 34
f 18 34 31
f 19 35 36
f 19 36 20
f 20 36 26
f 21 37 38
f 21 38 22
f 22 38 25
f 24 25 30
f 25 38 37
f 25 37 39
f 25 39 30
f 28 40 34
f 28 34 41
f 28 41 42
f 28 42 29
f 29 42 39
f 29 39 37
f 30 39 43
f 30 43 33
f 31 44 45
f 31 45 32
f 31 34 44
f 32 45 46
f 33 43 34
f 34 40 47
f 34 47 44
f 34 43 41
f 35 48 36
f 35 49 48
f 36 48 50
f 39 42 41
f 39 41 43
f 40 51 47
f 44 52 45
f 44 47 53
f 44 53 54
f 44 54 52
f 45 52 55
f 45 55 56
f 45 56 46
f 46 57 58
f 46 58 50
f 46 50 59
f 46 59 49
f 46 56 60
f 46 60 57
f 47 51 53
f 48 49 59
f 48 59 50
f 51 58 61
f 51 61 62
f 51 62 63
f 51 63 54
f 51 54 53
f 52 54 55
f 54 63 64
f 54 64 56
f 54 56 55
f 56 64 60
f 57 63 62
f 57 62 61
f 57 61 58
f 57 60 63
f 60 64 63

