# https://github.com/mikedh/trimesh
v -0.02928515 0.07067242 -0.07368384
v -0.03123962 0.07095840 -0.07466890
v -0.03033649 0.07094276 -0.07460154
v -0.02144513 0.09092592 -0.07044241
v -0.02826983 0.07067242 -0.07239989
v -0.03123962 0.07067242 -0.03654631
v -0.03123962 0.08585417 -0.07226098
v -0.03120637 0.07263186 -0.07455944
v -0.03057058 0.07273240 -0.07455944
v -0.02150608 0.09242510 -0.07042136
v -0.02048383 0.09092592 -0.06901534
v -0.01966104 0.08975294 -0.06611068
v -0.02811054 0.07067242 -0.07120435
v -0.02749829 0.07067242 -0.03654631
v -0.02707305 0.08311721 -0.03166312
v -0.02962867 0.08311944 -0.03166312
v -0.03123962 0.08927928 -0.03654631
v -0.03067032 0.08545647 -0.07230307
v -0.03123962 0.09092592 -0.07120857
v -0.02300759 0.09262396 -0.07057291
v -0.02300759 0.09343052 -0.06901534
v -0.02111269 0.09273344 -0.06901534
v -0.01983972 0.09107786 -0.06683474
v -0.01966104 0.09045003 -0.06611068
v -0.01751404 0.08763263 -0.04198939
v -0.01708879 0.08493589 -0.03166312
v -0.02775178 0.07067242 -0.05095594
v -0.01857230 0.08396176 -0.03166312
v -0.02082319 0.08340767 -0.03166312
v -0.02537899 0.08312838 -0.03166733
v -0.02960374 0.08802587 -0.03166312
v -0.03123962 0.09066898 -0.04080648
v -0.03123962 0.09249437 -0.07054765
v -0.02957742 0.09256587 -0.07057291
v -0.03123962 0.09318029 -0.06920056
v -0.03123962 0.09349531 -0.06708732
v -0.02300759 0.09348415 -0.06681790
v -0.02088414 0.09276472 -0.06681790
v -0.01976770 0.09186207 -0.06462888
v -0.01957516 0.09076506 -0.06462888
v -0.01751404 0.08767509 -0.04106327
v -0.01720653 0.08672330 -0.03166312
v -0.02738609 0.08815768 -0.03166312
v -0.03123962 0.09105775 -0.04284816
v -0.02519477 0.08825599 -0.03166312
v -0.02300898 0.08833196 -0.03166312
v -0.02081765 0.08839452 -0.03166312
v -0.03123962 0.09334785 -0.06516351
v -0.03123962 0.09159843 -0.04711674
v -0.03123962 0.09136161 -0.04498245
v -0.02173878 0.09205869 -0.05670211
v -0.02145759 0.09215253 -0.05805762
v -0.02115979 0.09230222 -0.06024664
v -0.02097140 0.09245415 -0.06243986
v -0.02086336 0.09260832 -0.06462888
v -0.01987574 0.09180399 -0.06243986
v -0.01919008 0.09026458 -0.04711674
v -0.01915130 0.09037183 -0.04930576
v -0.01757914 0.08755667 -0.03229878
v -0.01913606 0.09063994 -0.05586439
v -0.01842547 0.08795214 -0.03166312
v -0.01969844 0.08984454 -0.04153896
v -0.01954884 0.08993615 -0.04273450
v -0.01932167 0.09010818 -0.04492773
f 1 2 3
f 1 3 4
f 1 4 5
f 1 5 13
f 1 13 27
f 1 27 14
f 1 14 6
f 1 6 2
f 2 7 8
f 2 8 9
f 2 9 3
f 2 6 17
f 2 17 32
f 2 32 44
f 2 44 50
f 2 50 49
f 2 49 48
f 2 48 36
f 2 36 35
f 2 35 33
f 2 33 19
f 2 19 7
f 3 9 10
f 3 10 4
f 4 10 11
f 4 11 5
f 5 11 12
f 5 12 13
f 6 14 15
f 6 15 16
f 6 16 17
f 7 18 9
f 7 9 8
f 7 19 20
f 7 20 18
f 9 18 20
f 9 20 10
f 10 20 21
f 10 21 22
f 10 22 11
f 11 22 23
f 11 23 12
f 12 23 24
f 12 24 25
f 12 25 26
f 12 26 13
f 13 26 27
f 14 26 28
f 14 28 29
f 14 29 30
f 14 30 15
f 14 27 26
f 15 30 29
f 15 29 28
f 15 28 26
f 15 26 42
f 15 42 61
f 15 61 47
f 15 47 46
f 15 46 45
f 15 45 43
f 15 43 31
f 15 31 16
f 16 31 17
f 17 31 32
f 19 33 34
f 19 34 20
f 20 34 21
f 21 34 35
f 21 35 36
f 21 36 37
f 21 37 38
f 21 38 22
f 22 38 39
f 22 39 23
f 23 39 40
f 23 40 24
f 24 40 25
f 25 41 42
f 25 42 26
f 25 40 39
f 25 39 41
f 31 43 32
f 32 43 45
f 32 45 46
f 32 46 47
f 32 47 44
f 33 35 34
f 36 48 37
f 37 48 49
f 37 49 50
f 37 50 51
f 37 51 52
f 37 52 53
f 37 53 54
f 37 54 55
f 37 55 38
f 38 55 56
f 38 56 39
f 39 56 57
f 39 57 58
f 39 58 59
f 39 59 60
f 39 60 41
f 41 60 59
f 41 59 42
f 42 59 61
f 44 47 62
f 44 62 50
f 47 61 62
f 50 62 51
f 51 62 52
f 52 62 63
f 52 63 64
f 52 64 53
f 53 64 54
f 54 64 57
f 54 57 55
f 55 57 56
f 57 64 59
f 57 59 58
f 59 64 61
f 61 64 63
f 61 63 62

