# https://github.com/mikedh/trimesh
v -0.01621648 0.06025650 -0.04054638
v -0.01639922 0.06086721 -0.03790001
v -0.01659132 0.05839965 -0.03745083
v -0.01672720 0.06025650 -0.04602314
v -0.01744408 0.06165496 -0.05661947
v -0.01722855 0.06212020 -0.05259308
v -0.01702239 0.06225058 -0.04821492
v -0.01692399 0.06212569 -0.04383135
v -0.01691462 0.06197885 -0.04054638
v -0.02750852 0.07067019 -0.03654164
v -0.01882630 0.05725508 -0.03654164
v -0.01743940 0.05907762 -0.04777657
v -0.01965564 0.06131049 -0.06600356
v -0.01924331 0.06411428 -0.07138290
v -0.01879819 0.06463305 -0.06794640
v -0.01958535 0.06584487 -0.06791393
v -0.04690179 0.07067019 -0.03654164
v -0.02778966 0.07067019 -0.05231708
v -0.02761629 0.05665123 -0.03654164
v -0.03315923 0.05822536 -0.08581080
v -0.01981026 0.06461246 -0.07388857
v -0.02788805 0.07067019 -0.05685759
v -0.03138811 0.07067019 -0.08873318
v -0.04953503 0.07066882 -0.03655246
v -0.04690179 0.06468794 -0.03654164
v -0.06402727 0.07067019 -0.08653599
v -0.03027765 0.05681455 -0.03654164
v -0.06322605 0.05810184 -0.07346104
v -0.06318856 0.05810184 -0.08318066
v -0.06172669 0.05810184 -0.08583786
v -0.04388901 0.05834613 -0.08716376
v -0.03725904 0.05894587 -0.08734234
v -0.03330917 0.06040883 -0.08782400
v -0.03347316 0.06644460 -0.09041626
v -0.03307021 0.06984264 -0.09093038
v -0.03718875 0.07025573 -0.09180709
v -0.05257592 0.07067019 -0.09182874
v -0.06127688 0.06728724 -0.05910891
v -0.04953503 0.06472911 -0.03655246
v -0.06408349 0.07025573 -0.08334843
v -0.06272470 0.06981656 -0.09016190
v -0.06380705 0.06682612 -0.08653599
v -0.06390544 0.06463305 -0.08434961
v -0.06397573 0.06354200 -0.08215241
v -0.04953503 0.06096465 -0.04273276
v -0.06377425 0.05917917 -0.07733590
v -0.06381642 0.05917917 -0.07996604
v -0.06343690 0.06216961 -0.08578374
v -0.06193754 0.06103190 -0.08728823
v -0.05892476 0.05971578 -0.08789435
v -0.05590731 0.05940287 -0.08794847
v -0.05367232 0.06225607 -0.08945295
v -0.03738555 0.06307813 -0.08960448
v -0.03396982 0.06244957 -0.08897130
v -0.03616263 0.06682612 -0.09099532
v -0.05589325 0.06984264 -0.09168262
v -0.05148420 0.06682612 -0.09108732
v -0.05908407 0.06984264 -0.09148238
v -0.06093484 0.06650499 -0.09035131
v -0.06294492 0.06473460 -0.08789435
v -0.05892945 0.06410742 -0.08997790
v -0.05476404 0.06417192 -0.09021602
v -0.04162592 0.06387686 -0.09004825
v -0.05696154 0.06682612 -0.09106567
f 1 2 3
f 1 3 4
f 1 4 5
f 1 5 6
f 1 6 7
f 1 7 2
f 2 7 8
f 2 8 9
f 2 9 10
f 2 10 11
f 2 11 3
f 3 12 4
f 3 11 12
f 4 12 5
f 5 13 14
f 5 14 15
f 5 15 6
f 5 12 13
f 6 15 7
f 7 15 16
f 7 16 8
f 8 16 9
f 9 16 10
f 10 17 25
f 10 25 27
f 10 27 19
f 10 19 11
f 10 16 18
f 10 18 22
f 10 22 23
f 10 23 37
f 10 37 26
f 10 26 17
f 11 19 20
f 11 20 12
f 12 20 13
f 13 21 14
f 13 20 21
f 14 21 15
f 15 21 16
f 16 22 18
f 16 21 23
f 16 23 22
f 17 24 39
f 17 39 25
f 17 26 24
f 19 27 28
f 19 28 29
f 19 29 30
f 19 30 20
f 20 30 31
f 20 31 32
f 20 32 33
f 20 33 21
f 21 33 34
f 21 34 35
f 21 35 23
f 23 35 36
f 23 36 37
f 24 38 39
f 24 26 40
f 24 40 38
f 25 39 27
f 26 37 41
f 26 41 42
f 26 42 43
f 26 43 44
f 26 44 40
f 27 39 45
f 27 45 28
f 28 38 46
f 28 46 47
f 28 47 29
f 28 45 39
f 28 39 38
f 29 47 48
f 29 48 30
f 30 48 49
f 30 49 50
f 30 50 51
f 30 51 31
f 31 51 52
f 31 52 53
f 31 53 32
f 32 53 33
f 33 53 54
f 33 54 34
f 34 54 55
f 34 55 36
f 34 36 35
f 36 56 37
f 36 55 57
f 36 57 56
f 37 56 58
f 37 58 41
f 38 40 46
f 40 44 46
f 41 58 59
f 41 59 49
f 41 49 60
f 41 60 42
f 42 48 43
f 42 60 48
f 43 48 47
f 43 47 44
f 44 47 46
f 48 60 49
f 49 59 50
f 50 59 61
f 50 61 52
f 50 52 51
f 52 61 62
f 52 62 63
f 52 63 53
f 53 63 55
f 53 55 54
f 55 63 57
f 56 57 64
f 56 64 58
f 57 63 62
f 57 62 64
f 58 64 59
f 59 64 61
f 61 64 62

