# https://github.com/mikedh/trimesh
v 0.02950828 0.02584870 -0.02089286
v 0.02995779 0.00269382 -0.03448706
v 0.03563288 0.00171087 -0.02561640
v 0.05369766 0.00548051 -0.02451968
v 0.11652640 0.03995443 -0.01926819
v 0.05149692 0.08872661 -0.01057606
v 0.04018420 0.09114850 -0.01041793
v 0.02950828 0.05413109 -0.02014046
v 0.04985808 0.00330182 -0.03604797
v 0.04821923 0.00171087 -0.03542055
v 0.05671314 -0.00010301 -0.03070211
v 0.03102538 0.05413109 -0.03134994
v 0.07642613 0.00213648 -0.02624127
v 0.05424082 0.00243035 -0.02542256
v 0.08544448 0.00243035 -0.02652948
v 0.11912045 0.02789565 -0.02221402
v 0.12048772 0.04271072 -0.01971708
v 0.12066566 0.07290833 -0.01428195
v 0.11764081 0.06355518 -0.01534551
v 0.08873154 0.09311439 -0.01023685
v 0.06301568 0.09091543 -0.01034142
v 0.05368830 0.09091543 -0.01029296
v 0.05368830 0.09311439 -0.01029296
v 0.04610278 0.09805950 -0.01293783
v 0.03509909 0.09782643 -0.01460076
v 0.05917610 0.00330182 -0.03584393
v 0.05479335 0.00548051 -0.03626476
v 0.07231497 0.00548051 -0.03617805
v 0.05917610 0.00196421 -0.03523181
v 0.07450634 0.00355515 -0.03553787
v 0.07942289 0.00221754 -0.03407643
v 0.04925873 0.10089685 -0.01907435
v 0.08394611 0.10297421 -0.01992877
v 0.11615180 0.04166698 -0.03286494
v 0.11501865 0.03178688 -0.03386219
v 0.10148646 0.00495357 -0.02691971
v 0.11353901 0.01339471 -0.02604999
v 0.12035661 0.01860330 -0.02917180
v 0.12274465 0.04127177 -0.02183400
v 0.12271656 0.05031079 -0.01969923
v 0.12266973 0.06022128 -0.01752874
v 0.12512332 0.07193553 -0.01723033
v 0.11746288 0.08844287 -0.01180796
v 0.10667458 0.09382373 -0.01070104
v 0.08762649 0.09530321 -0.01029806
v 0.07313908 0.09311439 -0.01020879
v 0.07013296 0.09590108 -0.01068574
v 0.06246315 0.09893098 -0.01283326
v 0.07996605 0.10051179 -0.01345814
v 0.08967739 0.10297421 -0.01749304
v 0.06684591 0.10192034 -0.01862546
v 0.11411027 0.01964704 -0.03495380
v 0.08842250 0.00628105 -0.03567304
v 0.10838834 0.00894614 -0.03346176
v 0.10178613 0.10340995 -0.01794703
v 0.11830572 0.03944776 -0.03286239
v 0.12095597 0.05246921 -0.02948297
v 0.12026297 0.02930419 -0.03100052
v 0.12301623 0.03944776 -0.02905703
v 0.12491730 0.06104209 -0.01966607
v 0.12517950 0.08266683 -0.01721248
v 0.11890506 0.09564775 -0.01600354
v 0.11193762 0.10119073 -0.01660546
v 0.09191559 0.10085633 -0.01307046
f 1 2 3
f 1 3 4
f 1 4 5
f 1 5 6
f 1 6 7
f 1 7 8
f 1 8 2
f 2 9 10
f 2 10 11
f 2 11 3
f 2 8 12
f 2 12 9
f 3 11 13
f 3 13 14
f 3 14 4
f 4 14 13
f 4 13 15
f 4 15 5
f 5 15 16
f 5 16 17
f 5 17 18
f 5 18 19
f 5 19 6
f 6 19 20
f 6 20 21
f 6 21 22
f 6 22 7
f 7 22 23
f 7 23 24
f 7 24 25
f 7 25 8
f 8 25 12
f 9 26 10
f 9 12 27
f 9 27 28
f 9 28 26
f 10 29 11
f 10 26 30
f 10 30 29
f 11 29 31
f 11 31 15
f 11 15 13
f 12 25 32
f 12 32 33
f 12 33 34
f 12 34 35
f 12 35 27
f 15 31 36
f 15 36 16
f 16 37 38
f 16 38 39
f 16 39 17
f 16 36 37
f 17 39 40
f 17 40 41
f 17 41 18
f 18 41 42
f 18 42 43
f 18 43 19
f 19 43 44
f 19 44 20
f 20 44 45
f 20 45 46
f 20 46 22
f 20 22 21
f 22 46 23
f 23 46 45
f 23 45 47
f 23 47 24
f 24 48 49
f 24 49 50
f 24 50 51
f 24 51 32
f 24 32 25
f 24 47 48
f 26 28 30
f 27 35 52
f 27 52 28
f 28 52 53
f 28 53 30
f 29 30 31
f 30 53 31
f 31 53 54
f 31 54 36
f 32 51 33
f 33 51 50
f 33 50 55
f 33 55 34
f 34 56 35
f 34 55 57
f 34 57 56
f 35 56 52
f 36 54 37
f 37 54 38
f 38 54 52
f 38 52 58
f 38 58 59
f 38 59 39
f 39 59 60
f 39 60 42
f 39 42 40
f 40 42 41
f 42 60 61
f 42 61 43
f 43 61 62
f 43 62 44
f 44 62 63
f 44 63 64
f 44 64 45
f 45 64 47
f 47 64 48
f 48 64 49
f 49 64 50
f 50 64 55
f 52 54 53
f 52 56 58
f 55 64 63
f 55 63 57
f 56 59 58
f 56 57 59
f 57 63 62
f 57 62 61
f 57 61 59
f 59 61 60

