# https://github.com/mikedh/trimesh
v -0.12537484 0.05882895 0.05001825
v -0.11696926 0.05546221 0.04475068
v -0.12440235 0.04600000 0.04668059
v -0.12275139 0.02827307 0.04849055
v -0.12272878 0.03276860 0.05263969
v -0.12280417 0.06456125 0.05983717
v -0.11672802 0.06875249 0.04990888
v -0.10954369 0.06202883 0.04593262
v -0.11398395 0.01979241 0.03723919
v -0.12060288 0.02957854 0.04152592
v -0.11949470 0.01806487 0.04042160
v -0.12202768 0.02521061 0.04547396
v -0.12275139 0.02827307 0.04748854
v -0.12050488 0.01753483 0.04600318
v -0.12054258 0.01960592 0.04827533
v -0.12172614 0.03609608 0.05543048
v -0.11618524 0.00422492 0.04608433
v -0.11485089 0.06782002 0.06344297
v -0.10563867 0.07542708 0.06117435
v -0.11047095 0.07459276 0.05347587
v -0.12092704 0.04933729 0.05956550
v -0.10109287 0.07016594 0.04759792
v -0.10032393 0.07571173 0.05121077
v -0.06606080 0.07271799 0.04777080
v -0.04837515 0.02957854 0.03851639
v -0.04837515 0.01194977 0.03482239
v -0.07231034 -0.01423818 0.02975592
v -0.10915923 -0.00464836 0.03225387
v -0.11405934 0.00514758 0.03557036
v -0.10959646 -0.01337441 0.03749322
v -0.11362964 -0.00383367 0.04163530
v -0.11835637 0.02074453 0.05151420
v -0.12034657 0.03737211 0.05691231
v -0.11412718 0.00627637 0.04830708
v -0.10516374 -0.01158797 0.04351934
v -0.08436463 0.06681883 0.06537641
v -0.08744039 0.07117694 0.06497773
v -0.07450408 0.07651662 0.06339357
v -0.07563488 0.07887235 0.05913506
v -0.08149240 0.07889198 0.05686644
v -0.07340344 0.07338545 0.06523882
v -0.05133783 0.07681108 0.04954194
v -0.07737631 0.07895088 0.05454490
v -0.05215201 0.07132418 0.06553518
v -0.05146599 -0.01822330 0.03720743
v -0.05277772 -0.01245174 0.02993233
v -0.07231034 -0.01678041 0.03002406
v -0.10171858 -0.01441486 0.03089552
v -0.09221990 -0.01916560 0.03245850
v -0.09973592 -0.01839017 0.03999116
v -0.09585352 0.04600000 0.06003475
v -0.11808498 0.02866569 0.05471426
v -0.11417996 0.01281354 0.05049808
v -0.08316598 -0.01922449 0.04060860
v -0.05290587 0.04928822 0.06009473
v -0.09416487 0.03502618 0.05697229
v -0.06437215 0.07055856 0.06579979
v -0.07121723 0.07202108 0.06570806
v -0.06076114 0.07920608 0.05604438
v -0.07121723 0.07338545 0.06527762
v -0.06676943 -0.01971527 0.03943371
v -0.07669783 -0.01994103 0.03251848
v -0.06299258 -0.01759511 0.03061327
v -0.08436463 -0.02106982 0.03834703
f 1 2 3
f 1 3 4
f 1 4 5
f 1 5 6
f 1 6 7
f 1 7 2
f 2 7 8
f 2 8 9
f 2 9 10
f 2 10 3
f 3 10 11
f 3 11 12
f 3 12 13
f 3 13 4
f 4 13 14
f 4 14 15
f 4 15 5
f 5 16 6
f 5 15 17
f 5 17 16
f 6 18 19
f 6 19 20
f 6 20 7
f 6 16 21
f 6 21 18
f 7 22 8
f 7 20 23
f 7 23 22
f 8 22 24
f 8 24 25
f 8 25 26
f 8 26 9
f 9 26 27
f 9 27 28
f 9 28 29
f 9 29 10
f 10 29 11
f 11 14 12
f 11 29 30
f 11 30 31
f 11 31 14
f 12 14 13
f 14 31 17
f 14 17 15
f 16 17 32
f 16 32 33
f 16 33 21
f 17 34 32
f 17 31 30
f 17 30 35
f 17 35 34
f 18 21 36
f 18 36 37
f 18 37 19
f 19 38 39
f 19 39 40
f 19 40 20
f 19 37 41
f 19 41 38
f 20 40 23
f 21 33 36
f 22 23 42
f 22 42 24
f 23 40 43
f 23 43 42
f 24 42 25
f 25 42 44
f 25 44 26
f 26 45 46
f 26 46 27
f 26 44 45
f 27 47 48
f 27 48 28
f 27 46 47
f 28 48 30
f 28 30 29
f 30 48 49
f 30 49 50
f 30 50 35
f 32 34 33
f 33 51 36
f 33 34 52
f 33 52 51
f 34 53 52
f 34 35 53
f 35 50 54
f 35 54 55
f 35 55 56
f 35 56 53
f 36 51 55
f 36 55 57
f 36 57 58
f 36 58 37
f 37 58 41
f 38 59 39
f 38 41 60
f 38 60 44
f 38 44 59
f 39 59 40
f 40 59 43
f 41 58 60
f 42 43 59
f 42 59 44
f 44 60 58
f 44 58 57
f 44 57 55
f 44 55 45
f 45 61 62
f 45 62 63
f 45 63 46
f 45 55 61
f 46 63 47
f 47 63 62
f 47 62 49
f 47 49 48
f 49 62 64
f 49 64 50
f 50 64 54
f 51 52 53
f 51 53 56
f 51 56 55
f 54 64 61
f 54 61 55
f 61 64 62

