# https://github.com/mikedh/trimesh
v 0.05148815 0.11167803 -0.06897087
v 0.05465784 0.11164779 -0.06885917
v 0.05258523 0.11110613 -0.07121346
v 0.04929720 0.11098515 -0.07121346
v 0.04735572 0.11154880 -0.06868297
v 0.05645538 0.11024553 -0.07170069
v 0.05412049 0.10984136 -0.07431400
v 0.05864953 0.10953066 -0.06865504
v 0.04984414 0.10951416 -0.07501692
v 0.04053657 0.10938493 -0.07407905
v 0.03944589 0.11039125 -0.07121346
v 0.04054297 0.11113363 -0.06877733
v 0.03713340 0.11092191 -0.06877733
v 0.03280906 0.11057273 -0.06877733
v 0.02753798 0.10541188 -0.06865504
v 0.02937390 0.10118037 -0.06853275
v 0.05745011 0.10777646 -0.07633127
v 0.05294026 0.10789194 -0.07814923
v 0.05591804 0.10739703 -0.07822530
v 0.05828811 0.09736129 -0.06853275
v 0.05944915 0.10081468 -0.06865504
v 0.05981698 0.10516992 -0.06877733
v 0.05942676 0.10697636 -0.07121346
v 0.05916129 0.10697911 -0.07352442
v 0.04818093 0.10774897 -0.07809819
v 0.03835202 0.10848584 -0.07559177
v 0.03506079 0.10823838 -0.07559177
v 0.03267792 0.10939593 -0.07252493
v 0.03670480 0.10964614 -0.07271462
v 0.02958180 0.10853533 -0.07340406
v 0.02889093 0.10941518 -0.06983459
v 0.02739404 0.10626423 -0.07121346
v 0.02727570 0.10407286 -0.07449695
v 0.02747081 0.10407286 -0.07121346
v 0.02831521 0.09714133 -0.07836973
v 0.03450425 0.08358894 -0.07836780
v 0.03596915 0.08479873 -0.07304779
v 0.03524950 0.09721281 -0.06853275
v 0.05897898 0.10600027 -0.07588064
v 0.05853759 0.10514242 -0.07808568
v 0.03835202 0.10692411 -0.07831196
v 0.05952591 0.09467500 -0.07836877
v 0.05196152 0.08479873 -0.07304104
v 0.05815377 0.09163129 -0.07836780
v 0.05994812 0.09743277 -0.07807605
v 0.05988414 0.10188424 -0.07559177
v 0.05982977 0.10407286 -0.07230828
v 0.05962187 0.10407286 -0.07559177
v 0.03835202 0.10762799 -0.07715744
v 0.03396691 0.10747952 -0.07688302
v 0.03169279 0.10705609 -0.07724988
v 0.02958180 0.10744927 -0.07580168
v 0.02780985 0.10662717 -0.07411468
v 0.02748360 0.10282733 -0.07807605
v 0.02764672 0.09939868 -0.07822337
v 0.02745162 0.10188424 -0.07559177
v 0.02891012 0.10574732 -0.07807605
v 0.04942833 0.08358894 -0.07836780
v 0.03610349 0.08358894 -0.07499958
v 0.04830887 0.08479873 -0.07304104
v 0.05982977 0.10078994 -0.07807605
v 0.05572293 0.08885427 -0.07836780
v 0.05350959 0.08688287 -0.07836780
v 0.05020876 0.08358894 -0.07499958
f 1 2 3
f 1 3 4
f 1 4 5
f 1 5 2
f 2 6 7
f 2 7 3
f 2 5 8
f 2 8 6
f 3 7 9
f 3 9 4
f 4 9 10
f 4 10 11
f 4 11 12
f 4 12 5
f 5 12 13
f 5 13 14
f 5 14 15
f 5 15 16
f 5 16 8
f 6 8 17
f 6 17 7
f 7 18 9
f 7 17 19
f 7 19 18
f 8 20 21
f 8 21 22
f 8 22 23
f 8 23 24
f 8 24 17
f 8 16 20
f 9 25 26
f 9 26 10
f 9 18 25
f 10 26 27
f 10 27 28
f 10 28 29
f 10 29 11
f 11 29 28
f 11 28 14
f 11 14 13
f 11 13 12
f 14 28 30
f 14 30 31
f 14 31 15
f 15 32 33
f 15 33 34
f 15 34 35
f 15 35 16
f 15 31 32
f 16 35 36
f 16 36 37
f 16 37 38
f 16 38 20
f 17 24 39
f 17 39 40
f 17 40 19
f 18 19 41
f 18 41 25
f 19 40 42
f 19 42 41
f 20 43 44
f 20 44 42
f 20 42 21
f 20 38 43
f 21 42 45
f 21 45 22
f 22 45 46
f 22 46 47
f 22 47 23
f 23 47 48
f 23 48 24
f 24 48 39
f 25 41 49
f 25 49 26
f 26 49 50
f 26 50 27
f 27 50 51
f 27 51 28
f 28 51 52
f 28 52 30
f 30 52 53
f 30 53 31
f 31 53 32
f 32 53 33
f 33 53 54
f 33 54 55
f 33 55 56
f 33 56 34
f 34 56 55
f 34 55 35
f 35 55 54
f 35 54 57
f 35 57 41
f 35 41 42
f 35 42 58
f 35 58 36
f 36 59 37
f 36 58 64
f 36 64 59
f 37 59 60
f 37 60 38
f 38 60 43
f 39 48 61
f 39 61 40
f 40 61 42
f 41 57 51
f 41 51 50
f 41 50 49
f 42 61 45
f 42 44 62
f 42 62 63
f 42 63 58
f 43 60 59
f 43 59 64
f 43 64 63
f 43 63 62
f 43 62 44
f 45 61 46
f 46 61 48
f 46 48 47
f 51 57 52
f 52 57 53
f 53 57 54
f 58 63 64

