# https://github.com/mikedh/trimesh
v 0.03399078 0.09575705 -0.07440371
v 0.03399078 0.09720907 -0.07440371
v 0.03567254 0.09226295 -0.07440371
v 0.02761557 0.08668865 -0.07278078
v 0.02455814 0.09531012 -0.07074809
v 0.02455814 0.09566540 -0.07059811
v 0.02455814 0.09652837 -0.07023122
v 0.02455814 0.09678582 -0.06901535
v 0.02826998 0.09720804 -0.06459647
v 0.02795684 0.09720907 -0.05365638
v 0.05924534 0.09720907 -0.07440371
v 0.02947324 0.08668865 -0.07297896
v 0.05687399 0.09226295 -0.07440371
v 0.03615807 0.08668865 -0.07303520
v 0.02652137 0.08668865 -0.07202019
v 0.02455814 0.09371496 -0.07074809
v 0.02455462 0.09226295 -0.05003557
v 0.02455462 0.09423810 -0.04990702
v 0.02455814 0.09675390 -0.06676306
v 0.02812924 0.09720907 -0.04737085
v 0.02789703 0.09720804 -0.05413844
v 0.02785481 0.09720804 -0.05616845
v 0.02781611 0.09720804 -0.05819846
v 0.02781611 0.09720804 -0.06026060
v 0.02784426 0.09720804 -0.06256646
v 0.06049787 0.09720907 -0.04704948
v 0.05911516 0.09660972 -0.07440371
v 0.05750729 0.09328245 -0.07440371
v 0.05979420 0.09552329 -0.04704948
v 0.05724693 0.09226295 -0.06241113
v 0.05205739 0.08668865 -0.07303520
v 0.02581770 0.08668865 -0.07089807
v 0.02455814 0.09320624 -0.07071595
v 0.02455814 0.09114149 -0.06892697
v 0.02455814 0.09055348 -0.06682197
v 0.02455814 0.08840635 -0.05368584
v 0.02455814 0.08825703 -0.05149782
v 0.02455814 0.08817980 -0.04930713
v 0.02455462 0.09226295 -0.04704948
v 0.02455814 0.09515256 -0.05588189
v 0.02455814 0.09581575 -0.06026060
v 0.02455814 0.09604643 -0.06181927
v 0.02455814 0.09615456 -0.06256110
v 0.02455462 0.09396829 -0.04831890
v 0.02817146 0.09720907 -0.04704948
v 0.05202573 0.09226295 -0.04704412
v 0.04984788 0.08668865 -0.04704412
v 0.05998067 0.09596095 -0.04704948
v 0.05900609 0.09631005 -0.07440371
v 0.05858038 0.09531733 -0.07440371
v 0.05205739 0.08668865 -0.05133981
v 0.05723638 0.09226295 -0.06026060
v 0.02534976 0.08668865 -0.06894572
v 0.02515626 0.08668865 -0.05570781
v 0.02512459 0.08668865 -0.05350908
v 0.02509996 0.08668865 -0.05130500
v 0.02507885 0.08668865 -0.04910895
v 0.02456166 0.08811904 -0.04708429
v 0.02455814 0.08872559 -0.04704948
v 0.02455462 0.09373762 -0.04704948
v 0.03527145 0.08668865 -0.04704412
v 0.03527145 0.09226295 -0.04704412
v 0.02509293 0.08668865 -0.04704948
f 1 2 11
f 1 11 27
f 1 27 49
f 1 49 50
f 1 50 28
f 1 28 13
f 1 13 3
f 1 3 4
f 1 4 2
f 2 4 5
f 2 5 6
f 2 6 7
f 2 7 8
f 2 8 9
f 2 9 10
f 2 10 20
f 2 20 45
f 2 45 26
f 2 26 11
f 3 12 4
f 3 13 31
f 3 31 14
f 3 14 12
f 4 12 14
f 4 14 31
f 4 31 51
f 4 51 47
f 4 47 61
f 4 61 63
f 4 63 57
f 4 57 56
f 4 56 55
f 4 55 54
f 4 54 53
f 4 53 32
f 4 32 15
f 4 15 16
f 4 16 5
f 5 16 17
f 5 17 18
f 5 18 6
f 6 18 7
f 7 18 8
f 8 18 19
f 8 19 20
f 8 20 21
f 8 21 22
f 8 22 23
f 8 23 24
f 8 24 25
f 8 25 9
f 9 25 10
f 10 25 24
f 10 24 23
f 10 23 22
f 10 22 21
f 10 21 20
f 11 26 27
f 13 28 29
f 13 29 30
f 13 30 31
f 15 32 33
f 15 33 16
f 16 33 17
f 17 33 34
f 17 34 35
f 17 35 36
f 17 36 37
f 17 37 38
f 17 38 39
f 17 39 60
f 17 60 44
f 17 44 18
f 18 40 41
f 18 41 42
f 18 42 43
f 18 43 19
f 18 44 45
f 18 45 40
f 19 43 45
f 19 45 20
f 26 46 47
f 26 47 48
f 26 48 49
f 26 49 27
f 26 45 62
f 26 62 46
f 28 50 29
f 29 50 49
f 29 49 48
f 29 48 47
f 29 47 51
f 29 51 52
f 29 52 30
f 30 52 51
f 30 51 31
f 32 53 33
f 33 53 34
f 34 53 35
f 35 53 36
f 36 53 37
f 37 53 54
f 37 54 55
f 37 55 38
f 38 55 56
f 38 56 57
f 38 57 58
f 38 58 59
f 38 59 39
f 39 59 61
f 39 61 62
f 39 62 60
f 40 45 41
f 41 45 42
f 42 45 43
f 44 60 45
f 45 60 62
f 46 62 61
f 46 61 47
f 57 63 58
f 58 63 59
f 59 63 61

