# https://github.com/mikedh/trimesh
v 0.02754313 0.10541478 -0.06853275
v 0.02759827 0.10626596 -0.05477978
v 0.02782534 0.10845774 -0.06463548
v 0.02886659 0.10960835 -0.06853275
v 0.02935965 0.10122274 -0.06853275
v 0.02839300 0.09721004 -0.06392248
v 0.02781560 0.09721004 -0.05922178
v 0.02763720 0.10407874 -0.05258821
v 0.02784480 0.10353764 -0.04818617
v 0.02799401 0.10717794 -0.05149454
v 0.02828920 0.10985154 -0.06463548
v 0.02958023 0.11066168 -0.06463548
v 0.03280779 0.11081368 -0.06767884
v 0.03913966 0.11118302 -0.06810580
v 0.04776163 0.11167549 -0.06825092
v 0.05942303 0.10074547 -0.06853275
v 0.03525360 0.09721004 -0.06853275
v 0.02789670 0.09721004 -0.05413619
v 0.02813998 0.09721004 -0.04720817
v 0.02973917 0.10730105 -0.04755731
v 0.02887632 0.10970411 -0.05333696
v 0.02891200 0.11041241 -0.06134814
v 0.03177302 0.11145814 -0.06134814
v 0.03286942 0.11134718 -0.06463548
v 0.03603211 0.11107207 -0.06767884
v 0.04136489 0.11176062 -0.06581539
v 0.05258514 0.11256923 -0.06463548
v 0.05258514 0.11203573 -0.06765150
v 0.05583865 0.11170894 -0.06764940
v 0.05843692 0.10999746 -0.06777559
v 0.05984473 0.10517159 -0.06810580
v 0.06068162 0.09847921 -0.04704622
v 0.05829095 0.09735900 -0.06853275
v 0.03615537 0.10836198 -0.04707987
v 0.03141945 0.10949435 -0.05019475
v 0.03177302 0.11061304 -0.05368399
v 0.03177302 0.11115415 -0.05696923
v 0.03568827 0.11167397 -0.06324946
v 0.04710314 0.11238228 -0.06134814
v 0.05367829 0.11273643 -0.06134814
v 0.05729835 0.11142166 -0.06347450
v 0.05941330 0.10907029 -0.06463548
v 0.06001989 0.10626596 -0.06025236
v 0.06040590 0.10297525 -0.04845328
v 0.05934194 0.10687699 -0.04829764
v 0.05469684 0.10922228 -0.04794430
v 0.04710314 0.10884989 -0.04707987
v 0.03941862 0.10852918 -0.04707987
v 0.04380097 0.10915388 -0.04787489
v 0.03615537 0.11025738 -0.05149454
v 0.04273052 0.11058873 -0.05149454
v 0.05148874 0.11188677 -0.05491438
v 0.03779997 0.11117087 -0.05477978
v 0.04741455 0.11202661 -0.05675470
v 0.05367829 0.11252667 -0.05806290
v 0.05786277 0.11083344 -0.05845831
v 0.05946196 0.10910068 -0.06134814
v 0.06007504 0.10626596 -0.05696923
v 0.05922192 0.10849726 -0.05383333
v 0.05694478 0.11003090 -0.05131787
v 0.05470982 0.11181229 -0.05489125
v 0.05258514 0.11094896 -0.05149454
v 0.05038910 0.10920556 -0.04761199
f 1 2 3
f 1 3 4
f 1 4 16
f 1 16 33
f 1 33 17
f 1 17 5
f 1 5 6
f 1 6 7
f 1 7 8
f 1 8 2
f 2 8 9
f 2 9 10
f 2 10 3
f 3 10 11
f 3 11 4
f 4 11 12
f 4 12 13
f 4 13 14
f 4 14 15
f 4 15 16
f 5 17 6
f 6 17 19
f 6 19 18
f 6 18 7
f 7 18 8
f 8 18 19
f 8 19 9
f 9 19 20
f 9 20 10
f 10 20 21
f 10 21 11
f 11 21 22
f 11 22 12
f 12 23 24
f 12 24 13
f 12 22 23
f 13 24 25
f 13 25 14
f 14 25 26
f 14 26 15
f 15 26 27
f 15 27 28
f 15 28 29
f 15 29 30
f 15 30 16
f 16 30 31
f 16 31 32
f 16 32 33
f 17 33 19
f 19 34 20
f 19 33 32
f 19 32 34
f 20 34 35
f 20 35 21
f 21 35 36
f 21 36 37
f 21 37 22
f 22 37 23
f 23 38 24
f 23 37 39
f 23 39 38
f 24 38 26
f 24 26 25
f 26 38 27
f 27 40 29
f 27 29 28
f 27 38 39
f 27 39 40
f 29 41 30
f 29 40 41
f 30 41 42
f 30 42 31
f 31 42 43
f 31 43 32
f 32 43 44
f 32 44 45
f 32 45 46
f 32 46 47
f 32 47 48
f 32 48 34
f 34 48 49
f 34 49 35
f 35 50 36
f 35 49 51
f 35 51 50
f 36 50 51
f 36 51 52
f 36 52 53
f 36 53 37
f 37 53 54
f 37 54 55
f 37 55 39
f 39 55 40
f 40 55 41
f 41 56 57
f 41 57 42
f 41 55 56
f 42 57 58
f 42 58 43
f 43 58 44
f 44 58 45
f 45 59 60
f 45 60 46
f 45 58 59
f 46 61 62
f 46 62 63
f 46 63 47
f 46 60 61
f 47 63 49
f 47 49 48
f 49 63 62
f 49 62 51
f 51 62 52
f 52 62 61
f 52 61 55
f 52 55 54
f 52 54 53
f 55 61 56
f 56 61 60
f 56 60 59
f 56 59 57
f 57 59 58

