# https://github.com/mikedh/trimesh
v -0.01862293 -0.07588579 -0.00728838
v -0.01807747 -0.07960055 -0.00728838
v -0.01862293 -0.06678284 -0.00728838
v -0.01856170 -0.10486211 -0.01498629
v -0.01762107 -0.08236585 -0.00728838
v 0.03564997 -0.07011782 -0.00728838
v 0.03564997 -0.06678877 -0.00868252
v 0.03497650 -0.06678284 -0.01417016
v -0.01793276 -0.06678284 -0.01494937
v 0.03362955 -0.11075469 -0.01498705
v -0.01119248 -0.11539518 -0.01498705
v -0.00899395 -0.11556727 -0.00758755
v -0.01123144 -0.11161514 -0.00728838
v -0.01275649 -0.10783511 -0.00728838
v -0.01350232 -0.10469002 -0.00728838
v -0.01410343 -0.10150340 -0.00728838
v -0.01589564 -0.09178924 -0.00728838
v 0.03546630 -0.07462182 -0.00728838
v 0.03823810 -0.07668689 -0.01110907
v 0.03823810 -0.07261015 -0.01220479
v 0.03823810 -0.07045013 -0.01469164
v 0.03805999 -0.09875590 -0.01494409
v 0.03191526 -0.11391758 -0.01498705
v 0.03228261 -0.11036898 -0.00839088
v 0.03236610 -0.11214328 -0.01204955
v -0.00825926 -0.11863521 -0.01498705
v -0.00797540 -0.11806553 -0.01095534
v -0.00615536 -0.11874202 -0.00754008
v 0.03362955 -0.10334297 -0.00728838
v -0.00358392 -0.12075369 -0.00739765
v 0.00933449 -0.12739398 -0.00738408
v 0.03528819 -0.07831284 -0.00728838
v 0.03512677 -0.08125617 -0.00728838
v 0.03494310 -0.08446059 -0.00728838
v 0.03443104 -0.09312441 -0.00728838
v 0.03419727 -0.09641192 -0.00728838
v 0.03390228 -0.10011481 -0.00728838
v 0.03823810 -0.08557621 -0.01259591
v 0.03303957 -0.10737818 -0.00749788
v 0.03031786 -0.11559694 -0.01204955
v 0.02986145 -0.11669475 -0.01498705
v 0.02888186 -0.11593518 -0.00773902
v 0.03082435 -0.11340725 -0.00857400
v -0.00539283 -0.12042732 -0.01078503
v 0.00602279 -0.12600538 -0.01498705
v -0.00465813 -0.12160821 -0.01480016
v 0.01299684 -0.12723375 -0.00743307
v 0.02447925 -0.12016621 -0.00757700
v -0.00167482 -0.12301459 -0.01114374
v -0.00066740 -0.12260514 -0.00779102
v -0.00183623 -0.12331129 -0.01461402
v 0.00162018 -0.12481263 -0.01480016
v 0.00949033 -0.12649792 -0.01498705
v 0.01133820 -0.12723969 -0.01069988
v 0.02708408 -0.11794685 -0.00769305
v 0.02784104 -0.11823762 -0.01095534
v 0.02784661 -0.11874795 -0.01442788
v 0.02568148 -0.12078336 -0.01461402
v 0.02300985 -0.12263481 -0.01461402
v 0.01740501 -0.12511527 -0.01498705
v 0.01314155 -0.12623089 -0.01498705
v 0.02064992 -0.12389877 -0.01461402
v 0.02259242 -0.12247458 -0.01118142
v 0.02533083 -0.12058160 -0.01095534
f 1 2 5
f 1 5 17
f 1 17 16
f 1 16 15
f 1 15 14
f 1 14 13
f 1 13 29
f 1 29 37
f 1 37 36
f 1 36 35
f 1 35 34
f 1 34 33
f 1 33 32
f 1 32 18
f 1 18 6
f 1 6 3
f 1 3 4
f 1 4 2
f 2 4 5
f 3 6 7
f 3 7 8
f 3 8 9
f 3 9 4
f 4 10 11
f 4 11 12
f 4 12 13
f 4 13 14
f 4 14 15
f 4 15 16
f 4 16 17
f 4 17 5
f 4 9 10
f 6 18 19
f 6 19 20
f 6 20 7
f 7 21 8
f 7 20 21
f 8 21 9
f 9 21 22
f 9 22 10
f 10 23 41
f 10 41 60
f 10 60 61
f 10 61 53
f 10 53 45
f 10 45 26
f 10 26 11
f 10 22 24
f 10 24 25
f 10 25 23
f 11 26 27
f 11 27 12
f 12 27 28
f 12 28 13
f 13 28 30
f 13 30 31
f 13 31 29
f 18 32 19
f 19 32 33
f 19 33 34
f 19 34 35
f 19 35 36
f 19 36 37
f 19 37 29
f 19 29 38
f 19 38 21
f 19 21 20
f 21 38 22
f 22 29 39
f 22 39 24
f 22 38 29
f 23 40 41
f 23 25 40
f 24 39 42
f 24 42 43
f 24 43 25
f 25 43 40
f 26 44 27
f 26 45 46
f 26 46 44
f 27 44 28
f 28 44 30
f 29 31 47
f 29 47 48
f 29 48 39
f 30 44 49
f 30 49 50
f 30 50 31
f 31 50 49
f 31 49 51
f 31 51 52
f 31 52 45
f 31 45 53
f 31 53 54
f 31 54 47
f 39 48 55
f 39 55 42
f 40 43 42
f 40 42 56
f 40 56 41
f 41 56 57
f 41 57 58
f 41 58 59
f 41 59 60
f 42 55 56
f 44 46 49
f 45 52 46
f 46 52 51
f 46 51 49
f 47 54 61
f 47 61 60
f 47 60 62
f 47 62 59
f 47 59 63
f 47 63 48
f 48 63 64
f 48 64 55
f 53 61 54
f 55 64 56
f 56 64 57
f 57 64 58
f 58 64 59
f 59 64 63
f 59 62 60

