# https://github.com/mikedh/trimesh
v 0.00071191 0.02184983 -0.02447016
v 0.00071191 0.02184983 -0.02013857
v 0.00071191 0.02893512 -0.03196583
v 0.00781586 0.02184983 -0.03368888
v 0.00494045 0.02184983 -0.02013716
v 0.00071191 0.02680827 -0.02013716
v 0.00071191 0.03008861 -0.03307129
v 0.00986247 0.02184983 -0.03428391
v 0.02542068 0.02184983 -0.02013716
v 0.00071191 0.05413497 -0.02013716
v 0.00071191 0.03181095 -0.03316153
v 0.01643362 0.02184983 -0.03442914
v 0.00071191 0.04053008 -0.03245652
v 0.00986247 0.02519970 -0.03399626
v 0.02950827 0.02184983 -0.02155988
v 0.02950827 0.02300964 -0.02136106
v 0.02950827 0.02739607 -0.02063208
v 0.02950827 0.03038567 -0.02013716
v 0.00494045 0.05413497 -0.02013716
v 0.00071191 0.05413497 -0.03114238
v 0.02300477 0.02184983 -0.03452502
v 0.02950827 0.02184983 -0.03453771
v 0.02950827 0.05413181 -0.02013716
v 0.00494045 0.05413497 -0.03116071
v 0.00328850 0.05413497 -0.03116071
v 0.02519516 0.02184983 -0.03454053
v 0.02738554 0.02184983 -0.03454194
v 0.02950827 0.05413181 -0.03132991
f 1 2 6
f 1 6 10
f 1 10 20
f 1 20 13
f 1 13 11
f 1 11 7
f 1 7 3
f 1 3 4
f 1 4 8
f 1 8 12
f 1 12 21
f 1 21 26
f 1 26 27
f 1 27 22
f 1 22 15
f 1 15 9
f 1 9 5
f 1 5 2
f 2 5 6
f 3 7 4
f 4 7 8
f 5 9 18
f 5 18 23
f 5 23 19
f 5 19 10
f 5 10 6
f 7 11 8
f 8 11 13
f 8 13 14
f 8 14 12
f 9 15 16
f 9 16 17
f 9 17 18
f 10 19 24
f 10 24 25
f 10 25 20
f 12 14 13
f 12 13 21
f 13 20 21
f 15 22 28
f 15 28 23
f 15 23 18
f 15 18 17
f 15 17 16
f 19 23 28
f 19 28 24
f 20 25 21
f 21 25 26
f 22 27 28
f 24 28 25
f 25 28 26
f 26 28 27

