# https://github.com/mikedh/trimesh
v 0.02067216 -0.00581732 -0.02615854
v 0.02595393 -0.00585797 -0.02224281
v 0.02343971 -0.00611126 -0.02432827
v 0.02139392 -0.00767009 -0.02599830
v 0.02095895 -0.02179022 -0.02810869
v 0.01861681 -0.00581732 -0.02718762
v -0.01253368 -0.00581732 -0.02680068
v -0.01968916 -0.00585484 -0.02013716
v 0.02787066 -0.00675230 -0.02052648
v 0.02784198 -0.01205106 -0.02127663
v 0.02576273 -0.02179022 -0.02459533
v 0.02518915 -0.01423999 -0.02407308
v 0.02501229 -0.01205106 -0.02392708
v 0.02397506 -0.00896937 -0.02435319
v 0.02253631 -0.01862410 -0.02673184
v 0.02340147 -0.02130240 -0.02646477
v 0.01688649 -0.02179022 -0.02993659
v 0.01949631 -0.02063165 -0.02867368
v 0.01924298 -0.01643204 -0.02826418
v 0.01495064 -0.00581732 -0.02877576
v -0.00806927 -0.00581732 -0.02894193
v -0.00966097 -0.02179022 -0.02849682
v -0.01230425 -0.02179022 -0.02691819
v -0.01482803 -0.02179022 -0.02507367
v -0.01707935 -0.02179022 -0.02307485
v -0.01782501 -0.01423999 -0.02221313
v -0.01776765 -0.00986058 -0.02212530
v -0.01784413 -0.01643204 -0.02224637
v -0.01972262 -0.00805471 -0.02013716
v -0.01973696 -0.01023895 -0.02013716
v 0.02888400 -0.01174305 -0.02014903
v 0.02817657 -0.00980273 -0.02063568
v 0.02902261 -0.02179022 -0.02123628
v 0.01456347 -0.02179022 -0.03081374
v 0.01350712 -0.01862410 -0.03079594
v 0.01268498 -0.01684950 -0.03080187
v 0.01204925 -0.00581732 -0.02952591
v -0.00725191 -0.02179022 -0.02962561
v -0.00513442 -0.00581732 -0.02971226
v -0.00279706 -0.02179022 -0.03123392
v -0.00486675 -0.02179022 -0.03063570
v -0.01918250 -0.02165419 -0.02075319
v 0.02909431 -0.01440260 -0.02022856
v 0.01119365 -0.02142436 -0.03167309
v 0.00766610 -0.02179022 -0.03224757
v 0.01204925 -0.01862410 -0.03117695
v 0.00985529 -0.00581732 -0.03000781
v -0.00294524 -0.00581732 -0.02999594
v 0.00109854 -0.01862410 -0.03175855
v -0.00060310 -0.02179022 -0.03172651
v 0.00985529 -0.01862410 -0.03164461
v 0.00463088 -0.02179022 -0.03226300
v 0.00547213 -0.01862410 -0.03198763
v 0.00547213 -0.01643204 -0.03177280
v 0.00766610 -0.01862410 -0.03192472
v 0.00749402 -0.00793432 -0.03066181
v 0.00769000 -0.00581732 -0.03035202
v 0.00110332 -0.00581732 -0.03031760
v 0.00187288 -0.00855973 -0.03069861
v 0.00329251 -0.01643204 -0.03172176
v 0.00329251 -0.01862410 -0.03193897
v 0.00158609 -0.02179022 -0.03208140
v 0.00565855 -0.00581732 -0.03047071
v 0.00353150 -0.00581732 -0.03046715
f 1 2 3
f 1 3 4
f 1 4 5
f 1 5 6
f 1 6 20
f 1 20 37
f 1 37 47
f 1 47 57
f 1 57 63
f 1 63 64
f 1 64 58
f 1 58 48
f 1 48 39
f 1 39 21
f 1 21 7
f 1 7 8
f 1 8 2
f 2 9 10
f 2 10 11
f 2 11 12
f 2 12 13
f 2 13 14
f 2 14 3
f 2 8 9
f 3 14 4
f 4 14 15
f 4 15 5
f 5 15 16
f 5 16 11
f 5 11 33
f 5 33 25
f 5 25 24
f 5 24 23
f 5 23 22
f 5 22 38
f 5 38 41
f 5 41 40
f 5 40 50
f 5 50 62
f 5 62 52
f 5 52 45
f 5 45 34
f 5 34 17
f 5 17 18
f 5 18 19
f 5 19 6
f 6 19 20
f 7 21 22
f 7 22 23
f 7 23 24
f 7 24 25
f 7 25 26
f 7 26 27
f 7 27 8
f 8 27 26
f 8 26 28
f 8 28 29
f 8 29 30
f 8 30 31
f 8 31 9
f 9 31 32
f 9 32 10
f 10 32 31
f 10 31 33
f 10 33 11
f 11 16 12
f 12 16 13
f 13 16 14
f 14 16 15
f 17 34 20
f 17 20 19
f 17 19 18
f 20 34 35
f 20 35 36
f 20 36 37
f 21 38 22
f 21 39 40
f 21 40 41
f 21 41 38
f 25 33 42
f 25 42 28
f 25 28 26
f 28 42 30
f 28 30 29
f 30 42 43
f 30 43 31
f 31 43 33
f 33 43 42
f 34 44 35
f 34 45 44
f 35 44 46
f 35 46 36
f 36 46 37
f 37 46 47
f 39 48 49
f 39 49 50
f 39 50 40
f 44 51 46
f 44 45 51
f 45 52 53
f 45 53 54
f 45 54 55
f 45 55 51
f 46 51 47
f 47 51 56
f 47 56 57
f 48 58 59
f 48 59 60
f 48 60 49
f 49 61 62
f 49 62 50
f 49 60 61
f 51 55 56
f 52 62 61
f 52 61 53
f 53 61 54
f 54 63 56
f 54 56 55
f 54 61 60
f 54 60 64
f 54 64 63
f 56 63 57
f 58 64 59
f 59 64 60

