# https://github.com/mikedh/trimesh
v 0.00743891 -0.06303718 -0.00728838
v 0.03577334 -0.05367425 -0.00728838
v 0.03571404 -0.06288779 -0.00638067
v 0.03517469 -0.06303718 -0.00224611
v 0.00743891 -0.06303718 0.00389589
v 0.00743891 -0.02179022 -0.00728838
v 0.03588912 -0.05477245 -0.00547296
v 0.03583829 -0.03763736 -0.00728838
v 0.03601902 -0.04054435 -0.00547296
v 0.03581288 -0.05900373 -0.00547296
v 0.03431059 -0.06303718 0.00109795
v 0.03564062 -0.05148593 -0.00109402
v 0.03523964 -0.04972155 0.00160417
v 0.02082110 -0.06303718 0.01655393
v 0.01407211 -0.06275859 0.01682325
v 0.00743891 -0.05842637 0.01726962
v 0.00743891 -0.02179022 0.01818730
v 0.03506174 -0.02365554 0.00892818
v 0.03594560 -0.02450341 -0.00615374
v 0.03580723 -0.02958661 -0.00728838
v 0.03611785 -0.04054435 -0.00328099
v 0.03628728 -0.02450341 -0.00243064
v 0.03595972 -0.04381471 -0.00109402
v 0.03579029 -0.04819942 -0.00109402
v 0.02705050 -0.06303718 0.01253657
v 0.03424282 -0.05586661 0.00328742
v 0.03349168 -0.05900373 0.00430485
v 0.03303986 -0.06277474 0.00426994
v 0.02996752 -0.06296047 0.00925486
v 0.03568016 -0.04381471 0.00109795
v 0.03466640 -0.03484342 0.00736213
v 0.02421253 -0.06303718 0.01483078
v 0.02202405 -0.05581816 0.01818730
v 0.01991182 -0.05865247 0.01797534
v 0.02810096 -0.03526332 0.01818730
v 0.02937169 -0.03044256 0.01788806
v 0.03194421 -0.02379282 0.01576093
v 0.03386160 -0.02380493 0.01205030
v 0.03431059 -0.02849245 0.00985833
v 0.03608397 -0.02442670 0.00397319
v 0.02951006 -0.05915716 0.01082340
v 0.02869397 -0.05275370 0.01338194
v 0.02629653 -0.05479263 0.01534199
v 0.02441867 -0.05963762 0.01557141
v 0.03397738 -0.03177493 0.00985833
v 0.03339567 -0.05312919 0.00600805
v 0.03253722 -0.05655702 0.00692075
v 0.03106317 -0.05956494 0.00864639
v 0.03072149 -0.05203907 0.01102040
v 0.02357999 -0.05262854 0.01797035
v 0.02455987 -0.04930973 0.01809254
v 0.02566963 -0.04593439 0.01803768
v 0.02753902 -0.04081082 0.01746912
v 0.02845959 -0.04392776 0.01577589
v 0.03082315 -0.03257031 0.01554897
v 0.03072996 -0.02734177 0.01686814
v 0.02997317 -0.04819942 0.01291811
v 0.03050970 -0.03615964 0.01511755
v 0.03176631 -0.03177493 0.01423478
v 0.03221813 -0.04108941 0.01125730
v 0.03237909 -0.04490887 0.01007279
v 0.03320929 -0.04381471 0.00871372
v 0.03103776 -0.04819942 0.01148423
v 0.03118460 -0.03725380 0.01388566
f 1 2 3
f 1 3 4
f 1 4 11
f 1 11 25
f 1 25 32
f 1 32 14
f 1 14 5
f 1 5 16
f 1 16 17
f 1 17 6
f 1 6 20
f 1 20 8
f 1 8 2
f 2 7 3
f 2 8 9
f 2 9 7
f 3 7 10
f 3 10 4
f 4 10 12
f 4 12 13
f 4 13 11
f 5 14 15
f 5 15 16
f 6 17 18
f 6 18 19
f 6 19 20
f 7 9 21
f 7 21 10
f 8 20 19
f 8 19 9
f 9 19 22
f 9 22 21
f 10 21 23
f 10 23 24
f 10 24 12
f 11 13 26
f 11 26 27
f 11 27 28
f 11 28 29
f 11 29 25
f 12 24 30
f 12 30 13
f 13 30 18
f 13 18 31
f 13 31 26
f 14 32 33
f 14 33 34
f 14 34 15
f 15 34 16
f 16 34 33
f 16 33 17
f 17 35 36
f 17 36 37
f 17 37 18
f 17 33 35
f 18 37 38
f 18 38 39
f 18 39 31
f 18 30 40
f 18 40 22
f 18 22 19
f 21 22 40
f 21 40 23
f 23 40 24
f 24 40 30
f 25 29 41
f 25 41 42
f 25 42 43
f 25 43 44
f 25 44 32
f 26 31 39
f 26 39 45
f 26 45 46
f 26 46 27
f 27 46 47
f 27 47 28
f 28 47 48
f 28 48 29
f 29 48 49
f 29 49 41
f 32 44 50
f 32 50 33
f 33 50 51
f 33 51 35
f 35 52 53
f 35 53 54
f 35 54 36
f 35 51 52
f 36 55 56
f 36 56 37
f 36 54 57
f 36 57 58
f 36 58 55
f 37 56 55
f 37 55 59
f 37 59 60
f 37 60 61
f 37 61 38
f 38 45 39
f 38 61 62
f 38 62 45
f 41 49 57
f 41 57 42
f 42 57 54
f 42 54 43
f 43 54 53
f 43 53 52
f 43 52 51
f 43 51 44
f 44 51 50
f 45 62 46
f 46 62 47
f 47 62 61
f 47 61 48
f 48 61 63
f 48 63 49
f 49 63 55
f 49 55 58
f 49 58 57
f 55 63 64
f 55 64 59
f 59 64 60
f 60 64 61
f 61 64 63

