# https://github.com/mikedh/trimesh
v -0.01249568 -0.02178669 0.02580656
v -0.01218942 -0.02262612 0.02580656
v -0.01237116 -0.02178669 0.02705623
v -0.01099805 0.00062390 0.04157766
v -0.01099805 0.03485588 0.04157766
v -0.01099805 0.03485588 0.03157071
v 0.00440903 -0.02178669 0.02580337
v -0.00841001 -0.03021184 0.02580337
v -0.00811048 -0.03176749 0.02580337
v -0.00757538 -0.03370820 0.02580337
v -0.00750470 -0.03394694 0.02580337
v -0.01099805 -0.01940701 0.03477159
v -0.01099805 -0.01831343 0.03540921
v -0.00682488 -0.03328463 0.03112645
v 0.02005843 0.00188690 0.04212898
v 0.00444942 0.00706983 0.04212898
v -0.00275603 -0.03569512 0.03325664
v -0.00123485 -0.03631892 0.03345480
v 0.00110079 -0.03614949 0.03374565
v 0.00307631 -0.03855998 0.03327262
v 0.00547252 -0.03975366 0.03306647
v 0.00444942 0.03485588 0.04212898
v 0.02005843 0.03485588 0.03157071
v 0.02188588 -0.02178669 0.02580337
v -0.00741047 -0.03409326 0.02580337
v -0.00475512 -0.03331544 0.03308725
v -0.00666334 -0.03508672 0.02580337
v -0.00017136 -0.04199472 0.03086597
v 0.02005843 -0.01694261 0.03560257
v 0.02005843 0.03485588 0.04212898
v 0.01204863 -0.03614949 0.03364656
v 0.01423955 -0.03176749 0.03441203
v 0.01445494 -0.03417027 0.03361940
v 0.01578429 -0.03358498 0.03324226
v 0.01614103 -0.03176749 0.03363219
v -0.00059204 -0.03763582 0.03311442
v 0.00110079 -0.03808250 0.03325664
v 0.00366190 -0.03967665 0.03302013
v 0.00110079 -0.04237209 0.03110088
v 0.00580570 -0.03973827 0.03305689
v 0.02123971 -0.02519834 0.02580337
v 0.02005843 -0.01775894 0.03531812
v 0.00121521 -0.04261083 0.02580337
v -0.00017136 -0.04199472 0.03023954
v 0.00305612 -0.04345026 0.02580337
v 0.00329170 -0.04354268 0.02580337
v 0.00766680 -0.03963815 0.03300096
v 0.00908030 -0.03953033 0.03293384
v 0.01204863 -0.03769744 0.03309524
v 0.01374146 -0.03614949 0.03318153
v 0.01723481 -0.03176749 0.03252634
v 0.01532996 -0.03504821 0.03286193
v 0.01545111 -0.03953803 0.03080205
v 0.00220466 -0.03943022 0.03286512
v 0.00329170 -0.04215645 0.03105933
v 0.00547252 -0.04381992 0.02580337
v 0.02121952 -0.02529075 0.02580337
v 0.01773626 -0.03343096 0.03107371
v 0.01321645 -0.03730468 0.03290827
v 0.01409147 -0.04035436 0.02580337
v 0.01545111 -0.03953803 0.03032263
v 0.01617469 -0.03815181 0.02580337
v 0.02068777 -0.02754721 0.02580337
f 1 2 3
f 1 3 4
f 1 4 5
f 1 5 6
f 1 6 7
f 1 7 8
f 1 8 9
f 1 9 10
f 1 10 11
f 1 11 2
f 2 11 3
f 3 12 13
f 3 13 4
f 3 11 14
f 3 14 12
f 4 15 16
f 4 16 22
f 4 22 5
f 4 13 17
f 4 17 18
f 4 18 19
f 4 19 20
f 4 20 21
f 4 21 15
f 5 22 30
f 5 30 23
f 5 23 6
f 6 23 24
f 6 24 7
f 7 24 41
f 7 41 57
f 7 57 63
f 7 63 62
f 7 62 60
f 7 60 56
f 7 56 46
f 7 46 45
f 7 45 43
f 7 43 27
f 7 27 25
f 7 25 11
f 7 11 10
f 7 10 9
f 7 9 8
f 11 25 14
f 12 14 13
f 13 14 26
f 13 26 17
f 14 25 27
f 14 27 28
f 14 28 17
f 14 17 26
f 15 29 24
f 15 24 30
f 15 30 22
f 15 22 16
f 15 21 31
f 15 31 32
f 15 32 33
f 15 33 34
f 15 34 35
f 15 35 29
f 17 28 36
f 17 36 18
f 18 36 37
f 18 37 19
f 19 37 20
f 20 37 38
f 20 38 21
f 21 38 39
f 21 39 40
f 21 40 31
f 23 30 24
f 24 29 42
f 24 42 41
f 27 43 44
f 27 44 28
f 28 44 45
f 28 45 46
f 28 46 39
f 28 39 36
f 29 35 42
f 31 40 47
f 31 47 48
f 31 48 49
f 31 49 50
f 31 50 33
f 31 33 32
f 33 50 34
f 34 51 35
f 34 50 52
f 34 52 53
f 34 53 51
f 35 51 42
f 36 39 54
f 36 54 37
f 37 54 38
f 38 54 39
f 39 55 47
f 39 47 40
f 39 46 56
f 39 56 55
f 41 42 57
f 42 51 58
f 42 58 57
f 43 45 44
f 47 55 48
f 48 55 53
f 48 53 49
f 49 59 50
f 49 53 59
f 50 59 53
f 50 53 52
f 51 53 58
f 53 55 56
f 53 56 60
f 53 60 61
f 53 61 62
f 53 62 63
f 53 63 58
f 57 58 63
f 60 62 61

