# https://github.com/mikedh/trimesh
v -0.02652698 -0.02179426 -0.00109536
v -0.02278328 -0.04710546 -0.00328665
v -0.02188559 -0.05245921 -0.00253795
v -0.02612136 -0.02179426 0.00328577
v -0.02613798 -0.02179426 -0.00570730
v -0.02637071 -0.02188712 -0.00439455
v -0.02649705 -0.02200421 -0.00277597
v -0.02206181 -0.05318596 -0.00728838
v -0.02106438 -0.06005782 -0.00728838
v -0.02244083 -0.04929379 -0.00328665
v -0.02065543 -0.06264183 -0.00728838
v -0.02044264 -0.06303751 -0.00547649
v -0.02104775 -0.05805924 -0.00328665
v -0.02191219 -0.05131659 -0.00122519
v -0.02521702 -0.02739430 0.00328577
v -0.02591522 -0.02179426 0.00488559
v 0.00743891 -0.02179426 -0.00728838
v -0.02581880 -0.02215360 -0.00715133
v -0.02552955 -0.02483047 -0.00728838
v -0.02530346 -0.02701477 -0.00728838
v -0.02505743 -0.02920310 -0.00728838
v -0.02480142 -0.03139548 -0.00728838
v -0.02263699 -0.04891427 -0.00728838
v -0.02235439 -0.05110664 -0.00728838
v 0.00743891 -0.06303751 -0.00728838
v -0.02022986 -0.06303751 -0.00357516
v -0.02148995 -0.05367854 -0.00109536
v -0.02189557 -0.05031933 -0.00007257
v -0.02562264 -0.02301359 0.00547705
v -0.02552622 -0.02179426 0.00707111
v 0.00743891 -0.02179426 0.00744907
v 0.00743891 -0.06303751 0.00388877
v -0.01976771 -0.06303751 -0.00078232
v -0.02072192 -0.05805924 -0.00109536
v -0.02110760 -0.05586687 -0.00109536
v -0.02189889 -0.04814714 0.00213747
v -0.02487124 -0.02739430 0.00547705
v -0.02409657 -0.03068084 0.00657197
v -0.02423953 -0.02843194 0.00744907
v 0.00743891 -0.05840244 0.00744907
v 0.00397449 -0.06303751 0.00744907
v -0.01756339 -0.06303751 0.00536742
v -0.01863064 -0.06288812 0.00300014
v -0.01934214 -0.06275488 0.00103678
v -0.01979431 -0.06176972 0.00025490
v -0.02179583 -0.04461431 0.00503418
v -0.02265361 -0.03637777 0.00744907
v -0.02393698 -0.03000253 0.00744907
v -0.01630995 -0.06303751 0.00744907
v -0.01746364 -0.06111565 0.00646090
v -0.01789254 -0.05747381 0.00737549
v -0.01928562 -0.05170823 0.00744907
v -0.01974111 -0.05048082 0.00711727
v -0.01964802 -0.05228560 0.00640031
v -0.01927565 -0.05584265 0.00536165
v -0.01922910 -0.06006186 0.00308525
v -0.01972782 -0.05920590 0.00222114
v -0.01978766 -0.05509167 0.00455236
v -0.02113087 -0.04710546 0.00547705
v -0.02205516 -0.03933324 0.00744907
v -0.01705802 -0.06037678 0.00744907
v -0.01756006 -0.05929876 0.00712304
v -0.02174928 -0.04079482 0.00744907
v -0.02002040 -0.04874065 0.00737694
f 1 2 3
f 1 3 4
f 1 4 16
f 1 16 30
f 1 30 31
f 1 31 17
f 1 17 5
f 1 5 6
f 1 6 7
f 1 7 8
f 1 8 9
f 1 9 2
f 2 9 10
f 2 10 3
f 3 9 11
f 3 11 12
f 3 12 13
f 3 13 14
f 3 14 4
f 3 10 9
f 4 15 16
f 4 14 15
f 5 17 18
f 5 18 19
f 5 19 20
f 5 20 6
f 6 20 21
f 6 21 22
f 6 22 23
f 6 23 7
f 7 23 24
f 7 24 8
f 8 24 23
f 8 23 22
f 8 22 21
f 8 21 20
f 8 20 19
f 8 19 17
f 8 17 25
f 8 25 11
f 8 11 9
f 11 25 12
f 12 25 32
f 12 32 41
f 12 41 49
f 12 49 42
f 12 42 33
f 12 33 26
f 12 26 13
f 13 27 14
f 13 26 27
f 14 27 28
f 14 28 29
f 14 29 16
f 14 16 15
f 16 29 30
f 17 19 18
f 17 31 40
f 17 40 32
f 17 32 25
f 26 33 34
f 26 34 35
f 26 35 27
f 27 35 36
f 27 36 28
f 28 36 29
f 29 37 30
f 29 36 37
f 30 37 38
f 30 38 39
f 30 39 31
f 31 39 48
f 31 48 47
f 31 47 60
f 31 60 63
f 31 63 52
f 31 52 61
f 31 61 49
f 31 49 41
f 31 41 40
f 32 40 41
f 33 42 43
f 33 43 44
f 33 44 45
f 33 45 36
f 33 36 34
f 34 36 35
f 36 38 37
f 36 45 38
f 38 45 46
f 38 46 47
f 38 47 48
f 38 48 39
f 42 49 50
f 42 50 51
f 42 51 52
f 42 52 53
f 42 53 54
f 42 54 55
f 42 55 43
f 43 56 57
f 43 57 44
f 43 55 58
f 43 58 56
f 44 57 45
f 45 57 46
f 46 59 60
f 46 60 47
f 46 57 59
f 49 61 50
f 50 61 62
f 50 62 51
f 51 62 61
f 51 61 52
f 52 63 64
f 52 64 53
f 53 64 54
f 54 58 55
f 54 64 63
f 54 63 58
f 56 58 57
f 57 58 59
f 58 63 59
f 59 63 60

