# https://github.com/mikedh/trimesh
v 0.02054713 0.09878883 -0.02136016
v -0.00427590 0.09789005 -0.02013716
v 0.00038747 0.09809830 -0.02013716
v 0.02098160 0.07639817 -0.02124508
v 0.02098160 0.09642569 -0.02537777
v 0.00544187 0.09653530 -0.02426760
v -0.10406041 0.09125220 -0.02301076
v -0.10120735 0.09199753 -0.02179453
v -0.00769377 0.09770152 -0.02013716
v 0.00074953 0.08823141 -0.02013716
v 0.02098160 0.08562275 -0.02907159
v -0.00069872 0.07781430 -0.02013716
v -0.02161147 0.07639597 -0.02013716
v -0.00486968 0.07639597 -0.02062343
v -0.00767929 0.07639597 -0.02186109
v -0.02708586 0.07639597 -0.02399457
v -0.07115614 0.07639817 -0.02883804
v -0.02789688 0.07967325 -0.03166312
v 0.02098160 0.09110971 -0.02907159
v -0.02195905 0.08836295 -0.03166312
v -0.02633277 0.08820730 -0.03166312
v -0.02962029 0.08803193 -0.03166312
v -0.10406041 0.08923761 -0.02572075
v -0.10514660 0.09043891 -0.02420329
v -0.10946238 0.09022847 -0.02381969
v -0.10494384 0.09199753 -0.02067758
v -0.10953480 0.09130700 -0.02047676
v -0.07115614 0.07639597 -0.02013829
v -0.01784601 0.08446968 -0.03166312
v -0.07115614 0.07639597 -0.02399457
v -0.10624726 0.07639817 -0.02881661
v -0.10923067 0.07639817 -0.02881209
v -0.06010598 0.07982669 -0.03166312
v -0.01786050 0.08735017 -0.03166312
v -0.04376971 0.08697312 -0.03166312
v -0.10406041 0.08814373 -0.02665831
v -0.10734794 0.08852735 -0.02606373
v -0.11189545 0.08763954 -0.02595204
v -0.11663123 0.08721645 -0.02397764
v -0.11363335 0.08995445 -0.02147637
v -0.11868775 0.08738744 -0.02080282
v -0.12122219 0.08527200 -0.02047676
v -0.12466902 0.08128447 -0.02089195
v -0.12697175 0.07659546 -0.02168396
v -0.11613883 0.07639817 -0.02878389
v -0.05968599 0.08220957 -0.03166312
v -0.05258956 0.08563152 -0.03166312
v -0.10843413 0.08655003 -0.02714457
v -0.11282233 0.08530927 -0.02720663
v -0.11615331 0.08464505 -0.02675082
v -0.11832568 0.08501333 -0.02530895
v -0.12019394 0.08560960 -0.02273772
v -0.12290216 0.08326619 -0.02159934
v -0.12482833 0.07993411 -0.02301076
v -0.12410420 0.07732325 -0.02600507
v -0.12071530 0.07675549 -0.02819157
v -0.11912222 0.07920193 -0.02811034
v -0.11390852 0.08217011 -0.02808439
v -0.05683294 0.08450914 -0.03166312
v -0.11062099 0.08436007 -0.02782151
v -0.11719605 0.08217011 -0.02762745
v -0.11952774 0.08285406 -0.02632323
v -0.12087460 0.08373092 -0.02450904
v -0.12246769 0.08055011 -0.02554926
f 1 2 3
f 1 3 4
f 1 4 5
f 1 5 6
f 1 6 7
f 1 7 8
f 1 8 2
f 2 9 13
f 2 13 12
f 2 12 10
f 2 10 3
f 2 8 9
f 3 10 4
f 4 11 19
f 4 19 5
f 4 10 12
f 4 12 13
f 4 13 14
f 4 14 15
f 4 15 16
f 4 16 17
f 4 17 18
f 4 18 11
f 5 19 20
f 5 20 21
f 5 21 22
f 5 22 23
f 5 23 6
f 6 23 24
f 6 24 7
f 7 24 25
f 7 25 26
f 7 26 8
f 8 26 9
f 9 26 27
f 9 27 28
f 9 28 13
f 11 18 29
f 11 29 19
f 13 28 30
f 13 30 16
f 13 16 15
f 13 15 14
f 16 30 17
f 17 30 31
f 17 31 18
f 18 31 32
f 18 32 33
f 18 33 46
f 18 46 59
f 18 59 47
f 18 47 35
f 18 35 22
f 18 22 21
f 18 21 20
f 18 20 34
f 18 34 29
f 19 29 34
f 19 34 20
f 22 35 23
f 23 35 36
f 23 36 37
f 23 37 24
f 24 37 25
f 25 37 38
f 25 38 39
f 25 39 40
f 25 40 27
f 25 27 26
f 27 40 41
f 27 41 42
f 27 42 28
f 28 42 43
f 28 43 44
f 28 44 45
f 28 45 30
f 30 45 32
f 30 32 31
f 32 45 33
f 33 45 46
f 35 47 48
f 35 48 36
f 36 48 37
f 37 48 38
f 38 48 49
f 38 49 50
f 38 50 51
f 38 51 39
f 39 51 52
f 39 52 41
f 39 41 40
f 41 52 42
f 42 52 53
f 42 53 43
f 43 53 54
f 43 54 44
f 44 54 55
f 44 55 56
f 44 56 45
f 45 56 57
f 45 57 58
f 45 58 59
f 45 59 46
f 47 59 60
f 47 60 48
f 48 60 49
f 49 60 58
f 49 58 61
f 49 61 50
f 50 61 62
f 50 62 51
f 51 62 63
f 51 63 52
f 52 63 53
f 53 63 54
f 54 63 64
f 54 64 55
f 55 64 62
f 55 62 57
f 55 57 56
f 57 61 58
f 57 62 61
f 58 60 59
f 62 64 63

