# https://github.com/mikedh/trimesh
v 0.05256410 0.10890534 -0.04704411
v 0.05257886 0.10748316 -0.04471078
v 0.05623597 0.10800152 -0.04620562
v 0.05898526 0.10681193 -0.04698509
v 0.06014771 0.10407057 -0.04704411
v 0.04154480 0.10860961 -0.04704411
v 0.04598426 0.10829061 -0.04620358
v 0.04491038 0.10704121 -0.04428441
v 0.05148284 0.10603771 -0.04272444
v 0.05498126 0.10550937 -0.04217698
v 0.05883765 0.10400079 -0.04199076
v 0.05967904 0.10484480 -0.04491531
v 0.06049829 0.10078758 -0.04272444
v 0.06052412 0.10188413 -0.04597971
v 0.06081566 0.09962458 -0.04704411
v 0.02456194 0.09373646 -0.04704411
v 0.03061407 0.10743331 -0.04660960
v 0.03835267 0.10805469 -0.04630839
v 0.04054104 0.10768585 -0.04549432
v 0.04054104 0.10696479 -0.04439940
v 0.04273309 0.10646968 -0.04359448
v 0.04600271 0.10554261 -0.04222481
v 0.05148284 0.10468198 -0.04106984
v 0.04924650 0.10516712 -0.04163155
v 0.05500709 0.10245898 -0.03901024
v 0.05967166 0.09771725 -0.03749708
v 0.06116993 0.09226111 -0.03664943
v 0.06131016 0.09371653 -0.03851874
v 0.06104077 0.09750127 -0.04382039
v 0.06023628 0.09658749 -0.04704411
v 0.06133968 0.09420832 -0.04162850
v 0.06223274 0.07779004 -0.04053662
v 0.06225858 0.07528128 -0.04051729
v 0.06142826 0.07495896 -0.04317015
v 0.02456194 0.08812083 -0.04704411
v 0.02456194 0.09253359 -0.03983551
v 0.02887593 0.10522360 -0.04501708
v 0.03099786 0.10537978 -0.04298189
v 0.04054104 0.10586825 -0.04289743
v 0.03835267 0.10445270 -0.04121231
v 0.05148284 0.10248557 -0.03883929
v 0.04004284 0.10318005 -0.03965437
v 0.05474508 0.09999342 -0.03698015
v 0.06135076 0.08874220 -0.03674407
v 0.06159432 0.09093529 -0.03944170
v 0.05093667 0.09994358 -0.03684990
v 0.03099786 0.09935543 -0.03686618
v 0.05863837 0.07521482 -0.03667894
v 0.04705814 0.07495896 -0.04704208
v 0.04958970 0.08585463 -0.04704411
v 0.06083780 0.07841142 -0.03749200
v 0.06106291 0.07528128 -0.03851366
v 0.02589415 0.07495896 -0.03750726
v 0.02456194 0.08655243 -0.04158067
v 0.02517823 0.08585463 -0.04704411
v 0.02594212 0.07497225 -0.04704208
v 0.02456194 0.09207835 -0.03715009
v 0.03096465 0.10149203 -0.03873956
v 0.03093513 0.10333954 -0.04066993
v 0.03615693 0.10336281 -0.04007668
v 0.03615693 0.10057160 -0.03742585
v 0.04273309 0.10008978 -0.03695980
v 0.03397226 0.09998345 -0.03701271
v 0.02456194 0.08613043 -0.03744519
f 1 2 3
f 1 3 4
f 1 4 5
f 1 5 15
f 1 15 30
f 1 30 50
f 1 50 55
f 1 55 35
f 1 35 16
f 1 16 6
f 1 6 7
f 1 7 2
f 2 7 8
f 2 8 9
f 2 9 10
f 2 10 3
f 3 10 11
f 3 11 4
f 4 11 12
f 4 12 5
f 5 13 14
f 5 14 15
f 5 12 13
f 6 16 17
f 6 17 18
f 6 18 19
f 6 19 7
f 7 19 8
f 8 19 20
f 8 20 21
f 8 21 22
f 8 22 9
f 9 23 10
f 9 22 24
f 9 24 23
f 10 25 11
f 10 23 25
f 11 25 26
f 11 26 12
f 12 26 13
f 13 27 28
f 13 28 14
f 13 26 27
f 14 28 29
f 14 29 15
f 15 29 31
f 15 31 32
f 15 32 33
f 15 33 34
f 15 34 30
f 16 35 54
f 16 54 64
f 16 64 57
f 16 57 36
f 16 36 37
f 16 37 17
f 17 37 38
f 17 38 18
f 18 38 19
f 19 38 20
f 20 39 21
f 20 38 39
f 21 39 22
f 22 39 40
f 22 40 24
f 23 41 25
f 23 24 42
f 23 42 41
f 24 40 42
f 25 41 43
f 25 43 26
f 26 43 27
f 27 44 45
f 27 45 28
f 27 43 46
f 27 46 47
f 27 47 48
f 27 48 44
f 28 31 29
f 28 45 31
f 30 34 49
f 30 49 50
f 31 45 32
f 32 45 44
f 32 44 33
f 33 44 51
f 33 51 52
f 33 52 34
f 34 52 48
f 34 48 53
f 34 53 49
f 35 55 56
f 35 56 54
f 36 57 37
f 37 58 59
f 37 59 38
f 37 57 58
f 38 59 60
f 38 60 40
f 38 40 39
f 40 60 42
f 41 42 61
f 41 61 62
f 41 62 46
f 41 46 43
f 42 60 61
f 44 48 51
f 46 62 47
f 47 62 63
f 47 63 58
f 47 58 57
f 47 57 48
f 48 52 51
f 48 57 53
f 49 53 56
f 49 56 55
f 49 55 50
f 53 57 64
f 53 64 56
f 54 56 64
f 58 63 60
f 58 60 59
f 60 63 61
f 61 63 62

