# https://github.com/mikedh/trimesh
v 0.00217490 -0.00204151 -0.02360638
v 0.00183027 -0.01482081 -0.02380326
v -0.00198405 -0.01188896 -0.02539377
v -0.00754781 -0.00324260 -0.02646102
v -0.01348833 -0.00276515 -0.02629523
v -0.02555628 -0.00290938 -0.01674178
v -0.01331017 -0.00300884 0.02116117
v -0.00079828 -0.00289197 0.02646634
v 0.00147104 -0.01332380 0.02198492
v 0.00215738 -0.01849122 0.01756050
v -0.00895262 -0.01351528 -0.02513473
v 0.00129580 -0.02373822 -0.01571080
v -0.00047409 -0.01952073 -0.02130091
v -0.00802971 -0.01797150 -0.02261685
v -0.00973826 -0.00873330 -0.02634704
v -0.01769108 -0.00521457 -0.02455448
v -0.02152876 -0.00559007 -0.02148224
v -0.02280799 -0.01010846 -0.01761216
v -0.02736706 -0.00439644 -0.01089263
v -0.02680630 -0.00367032 0.00252572
v -0.00957471 -0.00995925 0.02101093
v -0.00650223 -0.00410301 0.02485510
v -0.02031087 -0.00347138 0.01464887
v -0.01804155 -0.01028253 0.01460742
v -0.00156348 -0.00828817 0.02486029
v -0.00392625 -0.01364956 0.02123888
v -0.00515291 -0.01987384 0.01606842
v 0.00055104 -0.02263660 0.01326559
v 0.00052768 -0.02675214 0.00385202
v -0.01435283 -0.01345560 -0.02336807
v 0.00062114 -0.02653579 -0.00843173
v -0.00356409 -0.02570274 -0.01248314
v -0.00419203 -0.02233571 -0.01885556
v -0.01176225 -0.02043336 -0.01882966
v -0.01894110 -0.01110564 -0.02173092
v -0.02170400 -0.01515403 -0.01397004
v -0.02469178 -0.01201081 -0.00941609
v -0.01798022 -0.01667094 -0.01793856
v -0.02766204 -0.00515738 -0.00346850
v -0.02439972 -0.01092410 0.00270705
v -0.02464505 -0.00496341 0.00709004
v -0.01544806 -0.01560662 0.01350390
v -0.01027858 -0.01877968 0.01470068
v -0.02206908 -0.00689312 0.01121398
v -0.02115492 -0.01155573 0.00959238
v -0.00758870 -0.02374319 0.00999648
v -0.00213300 -0.02484481 0.00997576
v -0.00602033 -0.02625230 0.00522494
v -0.00596776 -0.02724451 -0.00037554
v -0.00096767 -0.02744593 -0.00291415
v -0.00703962 -0.02693367 -0.00531287
v -0.00893510 -0.02340997 -0.01601647
v -0.01122193 -0.02513576 -0.00945236
v -0.01568170 -0.02232079 -0.01098588
v -0.01988446 -0.01931682 -0.00916741
v -0.02168940 -0.01770542 -0.00464454
v -0.02430042 -0.01314973 -0.00181581
v -0.02026122 -0.01628301 0.00614194
v -0.02170400 -0.01653665 0.00145329
v -0.01458648 -0.02095557 0.00821428
v -0.01001864 -0.02573506 0.00254645
v -0.01241938 -0.02544412 -0.00237016
v -0.01664842 -0.02298474 -0.00407465
v -0.01751000 -0.02125398 0.00206981
f 1 2 3
f 1 3 4
f 1 4 5
f 1 5 6
f 1 6 7
f 1 7 8
f 1 8 9
f 1 9 10
f 1 10 2
f 2 11 3
f 2 10 12
f 2 12 13
f 2 13 14
f 2 14 11
f 3 15 4
f 3 11 15
f 4 15 5
f 5 15 16
f 5 16 6
f 6 16 17
f 6 17 18
f 6 18 19
f 6 19 20
f 6 20 7
f 7 21 22
f 7 22 8
f 7 20 23
f 7 23 24
f 7 24 21
f 8 22 25
f 8 25 9
f 9 25 26
f 9 26 27
f 9 27 10
f 10 27 28
f 10 28 29
f 10 29 12
f 11 14 30
f 11 30 15
f 12 31 32
f 12 32 33
f 12 33 13
f 12 29 31
f 13 33 14
f 14 33 34
f 14 34 30
f 15 30 16
f 16 30 35
f 16 35 17
f 17 35 18
f 18 36 37
f 18 37 19
f 18 35 38
f 18 38 36
f 19 39 20
f 19 37 39
f 20 40 41
f 20 41 23
f 20 39 40
f 21 26 25
f 21 25 22
f 21 24 42
f 21 42 43
f 21 43 26
f 23 44 24
f 23 41 44
f 24 44 45
f 24 45 42
f 26 43 27
f 27 43 46
f 27 46 47
f 27 47 28
f 28 47 29
f 29 47 48
f 29 48 49
f 29 49 50
f 29 50 31
f 30 34 38
f 30 38 35
f 31 51 32
f 31 50 51
f 32 52 33
f 32 51 53
f 32 53 52
f 33 52 34
f 34 52 54
f 34 54 38
f 36 55 37
f 36 38 55
f 37 55 56
f 37 56 57
f 37 57 39
f 38 54 55
f 39 57 40
f 40 58 45
f 40 45 41
f 40 57 59
f 40 59 58
f 41 45 44
f 42 45 58
f 42 58 60
f 42 60 43
f 43 60 46
f 46 60 61
f 46 61 48
f 46 48 47
f 48 61 49
f 49 62 51
f 49 51 50
f 49 61 62
f 51 62 53
f 52 53 54
f 53 62 63
f 53 63 54
f 54 63 55
f 55 63 56
f 56 63 64
f 56 64 59
f 56 59 57
f 58 59 64
f 58 64 60
f 60 64 61
f 61 64 62
f 62 64 63

