# https://github.com/mikedh/trimesh
v -0.00130014 0.02548160 -0.02373372
v -0.00112267 0.02259039 -0.02647307
v -0.00313895 0.02242047 -0.02647307
v -0.00527847 0.02488430 -0.02390441
v -0.01374288 0.02153741 -0.02370833
v -0.00092548 0.02339879 -0.02323179
v 0.00600577 0.02477875 -0.02370199
v 0.00400922 0.02519325 -0.02379717
v 0.00134714 0.02540178 -0.02393455
v -0.00092548 0.02018063 -0.02647307
v 0.00185984 0.02256465 -0.02644134
v 0.00540434 0.02199052 -0.02644134
v 0.00796782 0.02119242 -0.02644134
v 0.01034890 0.02011369 -0.02644134
v 0.01295675 0.01849430 -0.02644134
v 0.01485964 0.01703712 -0.02644134
v 0.01673295 0.01508819 -0.02644134
v 0.01863092 0.01264753 -0.02644134
v 0.02016900 0.00989278 -0.02644071
v 0.02149018 0.00636566 -0.02644071
v 0.02208668 0.00344614 -0.02644071
v -0.00526368 0.02200855 -0.02647307
v -0.00795533 0.02415056 -0.02400562
v -0.01030683 0.02322373 -0.02404496
v -0.01198789 0.02197508 -0.02462177
v -0.01590705 0.01975840 -0.02420201
v -0.01767684 0.01841192 -0.02368327
v 0.02520723 -0.00017109 -0.02382668
v 0.01961194 0.01622871 -0.02364551
v 0.01087639 0.02305896 -0.02370548
v -0.02460810 0.00690116 -0.02354652
v -0.02322776 -0.00081987 -0.02323179
v 0.00900800 0.02374636 -0.02394692
v -0.00345445 -0.00081987 -0.02646640
v -0.01976706 -0.00081987 -0.02647307
v 0.01399200 0.02103537 -0.02397833
v 0.01634843 0.01934648 -0.02389394
v 0.01812315 0.01766530 -0.02398627
v 0.02098735 0.01385756 -0.02409636
v 0.02312687 0.01037679 -0.02378194
v 0.02428536 0.00721268 -0.02379082
v 0.02499525 0.00185250 -0.02423945
v 0.02224937 0.00035154 -0.02643722
v -0.00699896 0.02151166 -0.02647307
v -0.01005049 0.02021409 -0.02647307
v -0.01265340 0.01865907 -0.02647307
v -0.01492110 0.01685690 -0.02647307
v -0.01853955 0.01680541 -0.02460876
v -0.02030934 0.01500323 -0.02419694
v -0.02337565 0.00993654 -0.02386063
v 0.02500018 0.00372161 -0.02381304
v -0.02385877 0.00760659 -0.02464461
v -0.02470176 0.00516593 -0.02423342
v -0.02515530 0.00265318 -0.02389553
v -0.02511093 -0.00042339 -0.02422517
v -0.02220730 -0.00054182 -0.02647307
v -0.01684371 0.01491827 -0.02647307
v -0.01838673 0.01292558 -0.02647307
v -0.02185728 0.01247246 -0.02424961
v -0.02452429 0.00333543 -0.02489748
v -0.01953043 0.01107706 -0.02647307
v -0.02057062 0.00891445 -0.02647307
v -0.02147769 0.00612880 -0.02647307
v -0.02207419 0.00286429 -0.02647307
f 1 2 3
f 1 3 4
f 1 4 5
f 1 5 6
f 1 6 7
f 1 7 8
f 1 8 9
f 1 9 2
f 2 10 35
f 2 35 56
f 2 56 64
f 2 64 63
f 2 63 62
f 2 62 61
f 2 61 58
f 2 58 57
f 2 57 47
f 2 47 46
f 2 46 45
f 2 45 44
f 2 44 22
f 2 22 3
f 2 9 11
f 2 11 12
f 2 12 13
f 2 13 14
f 2 14 15
f 2 15 16
f 2 16 17
f 2 17 18
f 2 18 19
f 2 19 20
f 2 20 21
f 2 21 10
f 3 22 4
f 4 22 23
f 4 23 5
f 5 23 24
f 5 24 25
f 5 25 26
f 5 26 27
f 5 27 6
f 6 28 29
f 6 29 30
f 6 30 7
f 6 27 31
f 6 31 32
f 6 32 28
f 7 30 33
f 7 33 8
f 8 11 9
f 8 33 12
f 8 12 11
f 10 21 34
f 10 34 35
f 12 33 13
f 13 33 14
f 14 30 36
f 14 36 15
f 14 33 30
f 15 36 37
f 15 37 16
f 16 37 38
f 16 38 17
f 17 38 39
f 17 39 18
f 18 39 19
f 19 39 40
f 19 40 20
f 20 40 41
f 20 41 42
f 20 42 21
f 21 42 43
f 21 43 34
f 22 44 23
f 23 25 24
f 23 44 25
f 25 44 45
f 25 45 46
f 25 46 26
f 26 47 48
f 26 48 27
f 26 46 47
f 27 48 49
f 27 49 50
f 27 50 31
f 28 43 42
f 28 42 51
f 28 51 29
f 28 32 34
f 28 34 43
f 29 39 38
f 29 38 37
f 29 37 30
f 29 51 41
f 29 41 40
f 29 40 39
f 30 37 36
f 31 50 52
f 31 52 53
f 31 53 54
f 31 54 32
f 32 54 55
f 32 55 56
f 32 56 35
f 32 35 34
f 41 51 42
f 47 57 48
f 48 57 58
f 48 58 49
f 49 59 50
f 49 58 59
f 50 59 52
f 52 60 53
f 52 59 61
f 52 61 62
f 52 62 63
f 52 63 60
f 53 60 54
f 54 60 55
f 55 60 56
f 56 60 64
f 58 61 59
f 60 63 64

