# https://github.com/mikedh/trimesh
v -0.02323236 -0.01246471 0.02786580
v -0.02083716 -0.01236225 0.02792144
v -0.02201201 -0.01443493 0.02786580
v -0.02288735 -0.01305348 0.02786580
v -0.02570451 -0.01435743 0.02795617
v -0.02638460 -0.01305977 0.02795910
v -0.02654924 -0.01236225 0.02796621
v -0.02086694 -0.01236225 0.02851844
v -0.01944720 -0.01443493 0.02816451
v -0.02230903 -0.01397499 0.02786580
v -0.02681814 -0.01443493 0.02895270
v -0.02636474 -0.01438036 0.02826408
v -0.02638460 -0.01359255 0.02802896
v -0.02712426 -0.01244462 0.02811807
v -0.02764549 -0.01240242 0.02861592
v -0.02787136 -0.01236225 0.03008269
v -0.02091245 -0.01236225 0.02902047
v -0.01956303 -0.01443493 0.02926814
v -0.02685371 -0.01443493 0.02991325
v -0.02713998 -0.01399183 0.02949531
v -0.02710109 -0.01394172 0.02898491
v -0.02723843 -0.01343633 0.02869750
v -0.02665266 -0.01386138 0.02825069
v -0.02706303 -0.01299262 0.02823814
v -0.02775553 -0.01262722 0.02907402
v -0.02789866 -0.01244462 0.02958442
v -0.02763805 -0.01287109 0.03013833
v -0.02770424 -0.01241013 0.03062739
v -0.02719706 -0.01244584 0.03134487
v -0.02607599 -0.01242961 0.03200295
v -0.02170423 -0.01236225 0.03079348
v -0.02101421 -0.01236225 0.02952334
v -0.02080158 -0.01281388 0.02980992
v -0.01980627 -0.01443493 0.02996847
v -0.02667004 -0.01441546 0.03069223
v -0.02725084 -0.01344769 0.03053284
v -0.02723595 -0.01369075 0.03004503
v -0.02425250 -0.01443493 0.03212218
v -0.02766038 -0.01294677 0.02965219
v -0.02726077 -0.01307032 0.03090476
v -0.02665763 -0.01386665 0.03120723
v -0.02647064 -0.01322675 0.03164274
v -0.02591052 -0.01297598 0.03200170
v -0.02531813 -0.01305977 0.03212135
v -0.02531813 -0.01244462 0.03213975
v -0.02478531 -0.01244462 0.03211842
v -0.02400925 -0.01244462 0.03201383
v -0.02318851 -0.01244462 0.03180591
v -0.02228504 -0.01244036 0.03135115
v -0.02050539 -0.01443493 0.03091313
v -0.02015707 -0.01436798 0.03049351
v -0.02128890 -0.01236225 0.03017180
v -0.02626132 -0.01435581 0.03133232
v -0.02529662 -0.01438523 0.03196530
v -0.02317610 -0.01443493 0.03205859
v -0.02371968 -0.01428013 0.03211340
v -0.02479359 -0.01428013 0.03207742
v -0.02581869 -0.01426025 0.03171889
v -0.02569624 -0.01362846 0.03195568
v -0.02306193 -0.01380579 0.03197994
v -0.02269210 -0.01425457 0.03195233
v -0.02212205 -0.01428013 0.03180339
v -0.02158675 -0.01443493 0.03163814
v -0.02112177 -0.01441059 0.03138629
f 1 2 3
f 1 3 10
f 1 10 4
f 1 4 5
f 1 5 6
f 1 6 7
f 1 7 2
f 2 8 9
f 2 9 3
f 2 7 16
f 2 16 31
f 2 31 52
f 2 52 32
f 2 32 17
f 2 17 8
f 3 9 18
f 3 18 34
f 3 34 50
f 3 50 63
f 3 63 55
f 3 55 38
f 3 38 19
f 3 19 11
f 3 11 12
f 3 12 5
f 3 5 10
f 4 10 5
f 5 12 13
f 5 13 6
f 6 13 14
f 6 14 7
f 7 14 15
f 7 15 16
f 8 17 9
f 9 17 18
f 11 19 20
f 11 20 21
f 11 21 22
f 11 22 12
f 12 22 23
f 12 23 13
f 13 23 14
f 14 24 15
f 14 23 24
f 15 25 26
f 15 26 16
f 15 24 22
f 15 22 25
f 16 26 27
f 16 27 28
f 16 28 29
f 16 29 30
f 16 30 31
f 17 32 18
f 18 33 34
f 18 32 33
f 19 35 36
f 19 36 37
f 19 37 20
f 19 38 35
f 20 37 39
f 20 39 26
f 20 26 25
f 20 25 21
f 21 25 22
f 22 24 23
f 26 39 27
f 27 39 37
f 27 37 36
f 27 36 28
f 28 36 40
f 28 40 29
f 29 40 41
f 29 41 42
f 29 42 30
f 30 42 43
f 30 43 44
f 30 44 45
f 30 45 46
f 30 46 31
f 31 46 47
f 31 47 48
f 31 48 49
f 31 49 50
f 31 50 51
f 31 51 52
f 32 52 33
f 33 52 34
f 34 52 51
f 34 51 50
f 35 53 41
f 35 41 40
f 35 40 36
f 35 38 54
f 35 54 53
f 38 55 56
f 38 56 45
f 38 45 44
f 38 44 57
f 38 57 54
f 41 53 42
f 42 53 58
f 42 58 59
f 42 59 43
f 43 59 54
f 43 54 44
f 44 54 57
f 45 56 46
f 46 56 55
f 46 55 47
f 47 55 60
f 47 60 48
f 48 60 61
f 48 61 62
f 48 62 63
f 48 63 49
f 49 63 64
f 49 64 50
f 50 64 63
f 53 54 58
f 54 59 58
f 55 61 60
f 55 63 62
f 55 62 61

