# https://github.com/mikedh/trimesh
v 0.02191712 -0.00726511 -0.02319726
v 0.02169283 -0.00726511 -0.02025469
v 0.02134971 -0.00088485 -0.01330340
v 0.02144551 -0.00081987 -0.01438945
v 0.02173244 -0.00081987 -0.01654449
v 0.02189548 -0.00081987 -0.01759642
v 0.02208385 -0.00081987 -0.01866542
v 0.02225333 -0.00081987 -0.01947284
v 0.02309063 -0.00081987 -0.02319726
v 0.02484721 -0.00529924 -0.02319157
v 0.02457870 -0.00638186 -0.02319157
v 0.02434013 -0.00722726 -0.02319157
v 0.02239887 -0.00726511 0.00584462
v 0.02171356 -0.00726511 -0.01438945
v 0.02126451 -0.00081987 -0.00379336
v 0.02131287 -0.00104195 -0.01228274
v 0.02538514 -0.00081987 -0.02319157
v 0.02513690 -0.00394029 -0.02305226
v 0.02503097 -0.00481092 -0.02239267
v 0.02470628 -0.00612950 -0.02265139
v 0.02450363 -0.00702411 -0.02172455
v 0.02495636 -0.00715975 0.00490357
v 0.02500564 -0.00702853 0.00575080
v 0.02530961 -0.00592509 0.00581335
v 0.02591709 -0.00213277 0.00584462
v 0.02355764 -0.00081987 0.00584462
v 0.02222800 -0.00081987 0.00184159
v 0.02199127 -0.00081987 0.00106259
v 0.02177343 -0.00081987 0.00028644
v 0.02160717 -0.00081987 -0.00054089
v 0.02145288 -0.00081987 -0.00160704
v 0.02133912 -0.00081987 -0.00268172
v 0.02546298 -0.00081987 -0.02237561
v 0.02530501 -0.00266524 -0.02292148
v 0.02525066 -0.00373209 -0.02185249
v 0.02509407 -0.00468537 -0.02158808
v 0.02481221 -0.00586263 -0.02185249
v 0.02484997 -0.00586263 -0.02078634
v 0.02459943 -0.00688468 -0.01944157
v 0.02497893 -0.00704367 0.00401369
v 0.02503926 -0.00634148 -0.00346925
v 0.02532573 -0.00506328 -0.00506705
v 0.02543442 -0.00532952 0.00479553
v 0.02553206 -0.00494972 0.00575080
v 0.02574622 -0.00362989 0.00575080
v 0.02581300 -0.00293211 0.00452828
v 0.02586274 -0.00239901 0.00399663
v 0.02590327 -0.00186590 0.00346214
v 0.02596913 -0.00113406 0.00584462
v 0.02583143 -0.00081987 -0.00479127
v 0.02552285 -0.00107917 -0.02104506
v 0.02544640 -0.00186590 -0.02158808
v 0.02538699 -0.00266588 -0.02145162
v 0.02528152 -0.00373209 -0.02078634
v 0.02525619 -0.00399833 -0.01998460
v 0.02517743 -0.00453081 -0.01892129
v 0.02502590 -0.00520208 -0.01945294
v 0.02545607 -0.00453081 -0.00399806
v 0.02575175 -0.00346522 0.00452828
v 0.02578583 -0.00293211 0.00279402
v 0.02566102 -0.00293211 -0.00479980
v 0.02574530 -0.00213277 -0.00453255
v 0.02592077 -0.00107665 0.00200649
v 0.02546758 -0.00426394 -0.00573233
f 1 2 3
f 1 3 4
f 1 4 5
f 1 5 6
f 1 6 7
f 1 7 8
f 1 8 9
f 1 9 10
f 1 10 11
f 1 11 12
f 1 12 13
f 1 13 14
f 1 14 2
f 2 14 15
f 2 15 16
f 2 16 3
f 3 16 15
f 3 15 4
f 4 15 32
f 4 32 31
f 4 31 30
f 4 30 29
f 4 29 28
f 4 28 27
f 4 27 26
f 4 26 50
f 4 50 33
f 4 33 17
f 4 17 9
f 4 9 8
f 4 8 7
f 4 7 6
f 4 6 5
f 9 17 10
f 10 17 18
f 10 18 19
f 10 19 20
f 10 20 11
f 11 20 12
f 12 20 21
f 12 21 22
f 12 22 13
f 13 22 23
f 13 23 24
f 13 24 25
f 13 25 49
f 13 49 26
f 13 26 27
f 13 27 28
f 13 28 29
f 13 29 30
f 13 30 31
f 13 31 32
f 13 32 15
f 13 15 14
f 17 33 34
f 17 34 18
f 18 34 35
f 18 35 19
f 19 35 36
f 19 36 37
f 19 37 20
f 20 37 21
f 21 37 38
f 21 38 39
f 21 39 22
f 22 40 23
f 22 39 40
f 23 40 24
f 24 40 41
f 24 41 38
f 24 38 42
f 24 42 43
f 24 43 44
f 24 44 25
f 25 44 45
f 25 45 46
f 25 46 47
f 25 47 48
f 25 48 49
f 26 49 50
f 33 51 52
f 33 52 34
f 33 50 51
f 34 52 53
f 34 53 35
f 35 53 54
f 35 54 36
f 36 54 55
f 36 55 56
f 36 56 57
f 36 57 38
f 36 38 37
f 38 57 42
f 38 41 39
f 39 41 40
f 42 58 44
f 42 44 43
f 42 57 56
f 42 56 58
f 44 58 45
f 45 58 59
f 45 59 46
f 46 59 60
f 46 60 47
f 47 60 61
f 47 61 62
f 47 62 48
f 48 62 50
f 48 50 63
f 48 63 49
f 49 63 50
f 50 62 51
f 51 53 52
f 51 62 53
f 53 62 61
f 53 61 54
f 54 61 59
f 54 59 64
f 54 64 55
f 55 64 58
f 55 58 56
f 58 64 59
f 59 61 60

