# https://github.com/mikedh/trimesh
v 0.01370567 -0.01598824 -0.03168834
v 0.01370567 -0.01501595 -0.03152426
v 0.01525561 -0.01391317 -0.03204375
v 0.01617621 -0.01424575 -0.03184969
v 0.01377262 -0.01680776 -0.03142560
v 0.01370567 -0.01410731 -0.02647603
v 0.01370567 -0.01440648 -0.03091865
v 0.01996403 -0.00081987 -0.03026234
v 0.02073063 -0.00081987 -0.03157768
v 0.01776716 -0.01192562 -0.03188240
v 0.02082102 -0.00416480 -0.03199960
v 0.01680221 -0.01426962 -0.03082544
v 0.01846932 -0.01155803 -0.03144958
v 0.01403708 -0.01699554 -0.03044713
v 0.01402955 -0.01707669 -0.02647603
v 0.01601134 -0.01514325 -0.03052999
v 0.01370567 -0.01412322 -0.02878510
v 0.01988954 -0.00081987 -0.02647603
v 0.01370567 -0.01418687 -0.02990366
v 0.01990545 -0.00081987 -0.02905166
v 0.02223203 -0.00107766 -0.03038281
v 0.02183702 -0.00121133 -0.03138363
v 0.02105451 -0.00324662 -0.03193037
v 0.01998746 -0.00773093 -0.03176411
v 0.01970543 -0.00919016 -0.03142669
v 0.02136835 -0.00506389 -0.03126861
v 0.02057078 -0.00576089 -0.03184042
v 0.01687418 -0.01434441 -0.02984915
v 0.01786591 -0.01300612 -0.03057578
v 0.01754622 -0.01353285 -0.02984915
v 0.01888694 -0.01155485 -0.03026997
v 0.02033310 -0.00836109 -0.03102604
v 0.01984435 -0.00980282 -0.03047166
v 0.01465974 -0.01651655 -0.02984915
v 0.01468568 -0.01652292 -0.02647603
v 0.02212240 -0.00264510 -0.02647603
v 0.02225296 -0.00120019 -0.02658669
v 0.02225463 -0.00133386 -0.02745232
v 0.02221362 -0.00186854 -0.02745232
v 0.02202281 -0.00326094 -0.02984969
v 0.02197845 -0.00260055 -0.03087013
v 0.02169726 -0.00386405 -0.03107400
v 0.02041345 -0.00719784 -0.03161802
v 0.02134073 -0.00587069 -0.03076875
v 0.02071222 -0.00733788 -0.03109090
v 0.01620801 -0.01502549 -0.02647603
v 0.01542467 -0.01582115 -0.02647603
v 0.01777051 -0.01327505 -0.02771887
v 0.01700474 -0.01416460 -0.02647603
v 0.01842664 -0.01231549 -0.02891811
v 0.01906436 -0.01129865 -0.02831849
v 0.02043437 -0.00864275 -0.03018712
v 0.02104363 -0.00706417 -0.03024926
v 0.01972049 -0.01012585 -0.02647603
v 0.02030046 -0.00901671 -0.02647603
v 0.02190564 -0.00401681 -0.02655016
v 0.02163114 -0.00528509 -0.02647603
v 0.02168888 -0.00479815 -0.03024926
v 0.02151565 -0.00559698 -0.02984969
v 0.01865930 -0.01193676 -0.02647603
v 0.01778725 -0.01319071 -0.02647603
v 0.01921165 -0.01105199 -0.02647603
v 0.02094823 -0.00751929 -0.02647603
v 0.02132734 -0.00635922 -0.02647603
f 1 2 3
f 1 3 4
f 1 4 5
f 1 5 6
f 1 6 17
f 1 17 19
f 1 19 7
f 1 7 2
f 2 7 8
f 2 8 9
f 2 9 3
f 3 10 4
f 3 9 11
f 3 11 10
f 4 12 5
f 4 10 13
f 4 13 12
f 5 14 15
f 5 15 6
f 5 12 16
f 5 16 14
f 6 15 35
f 6 35 47
f 6 47 46
f 6 46 49
f 6 49 61
f 6 61 60
f 6 60 62
f 6 62 54
f 6 54 55
f 6 55 63
f 6 63 64
f 6 64 57
f 6 57 36
f 6 36 18
f 6 18 17
f 7 19 8
f 8 20 18
f 8 18 9
f 8 19 20
f 9 18 21
f 9 21 22
f 9 22 23
f 9 23 11
f 10 11 24
f 10 24 25
f 10 25 13
f 11 23 26
f 11 26 27
f 11 27 24
f 12 28 16
f 12 13 29
f 12 29 30
f 12 30 28
f 13 31 29
f 13 25 32
f 13 32 33
f 13 33 31
f 14 16 34
f 14 34 15
f 15 34 35
f 16 28 34
f 17 18 20
f 17 20 19
f 18 36 37
f 18 37 21
f 21 37 38
f 21 38 39
f 21 39 40
f 21 40 41
f 21 41 22
f 22 41 42
f 22 42 26
f 22 26 23
f 24 27 43
f 24 43 25
f 25 43 32
f 26 44 45
f 26 45 43
f 26 43 27
f 26 42 44
f 28 46 47
f 28 47 34
f 28 30 48
f 28 48 49
f 28 49 46
f 29 31 30
f 30 31 50
f 30 50 48
f 31 33 51
f 31 51 50
f 32 52 33
f 32 43 45
f 32 45 53
f 32 53 52
f 33 54 51
f 33 52 55
f 33 55 54
f 34 47 35
f 36 56 40
f 36 40 39
f 36 39 37
f 36 57 56
f 37 39 38
f 40 56 58
f 40 58 41
f 41 58 42
f 42 58 44
f 44 58 59
f 44 59 53
f 44 53 45
f 48 50 60
f 48 60 61
f 48 61 49
f 50 51 60
f 51 62 60
f 51 54 62
f 52 53 63
f 52 63 55
f 53 59 64
f 53 64 63
f 56 57 58
f 57 64 59
f 57 59 58

