# https://github.com/mikedh/trimesh
v -0.01706783 -0.02212039 0.03203389
v -0.01736644 -0.02125048 0.03199839
v -0.01703740 -0.02284314 0.03199505
v -0.01412832 -0.02425461 0.03202679
v -0.01625759 -0.02265395 0.03203306
v -0.01734489 -0.02370904 0.02789641
v -0.01734489 -0.02390625 0.03159070
v -0.01412832 -0.02348081 0.03199087
v -0.01736644 -0.02056877 0.03191485
v -0.01736644 -0.01680986 0.02787594
v -0.01657395 -0.02363597 0.03190022
v -0.01584200 -0.02390525 0.03196748
v -0.01503429 -0.02442279 0.03196664
v -0.01450364 -0.02474612 0.03196163
v -0.01439396 -0.02535075 0.03177951
v -0.01417904 -0.02620164 0.03135427
v -0.01412832 -0.02700548 0.02986720
v -0.01679046 -0.02425261 0.02790686
v -0.01659646 -0.02496635 0.02815164
v -0.01714264 -0.02479017 0.02833209
v -0.01720224 -0.02509148 0.02886886
v -0.01728751 -0.02510450 0.02985049
v -0.01730653 -0.01983101 0.02776650
v -0.01572535 -0.02478517 0.02786258
v -0.01597324 -0.02423059 0.03184550
v -0.01710492 -0.02498437 0.03068843
v -0.01711253 -0.02448185 0.03131751
v -0.01624269 -0.02494433 0.03143781
v -0.01545875 -0.02478517 0.03175737
v -0.01412832 -0.02237766 0.03178953
v -0.01735567 -0.01972390 0.03171476
v -0.01736644 -0.01891005 0.03143990
v -0.01736644 -0.01690095 0.02878490
v -0.01412832 -0.01968485 0.02905140
v -0.01412832 -0.01959876 0.02787594
v -0.01412832 -0.02221849 0.02776650
v -0.01482698 -0.02621365 0.03101926
v -0.01435338 -0.02670016 0.03063830
v -0.01500576 -0.02649194 0.03011616
v -0.01475977 -0.02670917 0.02958441
v -0.01412832 -0.02703651 0.02903594
v -0.01519216 -0.02531772 0.02788138
v -0.01625759 -0.02478517 0.02794529
v -0.01581601 -0.02553595 0.02819633
v -0.01509421 -0.02606750 0.02830494
v -0.01537855 -0.02631676 0.02896786
v -0.01665827 -0.02558200 0.02939434
v -0.01553420 -0.02616160 0.03027656
v -0.01633589 -0.02560502 0.03045117
v -0.01674101 -0.02030650 0.02776650
v -0.01465929 -0.02531772 0.02785172
v -0.01663164 -0.02512652 0.03102051
v -0.01412832 -0.01983601 0.02961740
v -0.01418601 -0.02125549 0.03133380
v -0.01736644 -0.01829340 0.03107064
v -0.01736644 -0.01722629 0.02983838
v -0.01550408 -0.02129353 0.02776650
v -0.01414638 -0.02654300 0.02825189
v -0.01439396 -0.02585128 0.02791354
v -0.01467799 -0.02665411 0.02882667
v -0.01613332 -0.02079901 0.02776650
v -0.01420503 -0.02013432 0.03031081
v -0.01419679 -0.02059680 0.03084465
v -0.01736644 -0.01780089 0.03067130
f 1 2 3
f 1 3 4
f 1 4 5
f 1 5 2
f 2 6 7
f 2 7 3
f 2 5 8
f 2 8 9
f 2 9 32
f 2 32 55
f 2 55 64
f 2 64 56
f 2 56 33
f 2 33 10
f 2 10 6
f 3 7 11
f 3 11 12
f 3 12 13
f 3 13 4
f 4 8 5
f 4 13 14
f 4 14 15
f 4 15 16
f 4 16 17
f 4 17 41
f 4 41 36
f 4 36 35
f 4 35 34
f 4 34 53
f 4 53 30
f 4 30 8
f 6 18 19
f 6 19 20
f 6 20 21
f 6 21 22
f 6 22 7
f 6 10 23
f 6 23 24
f 6 24 18
f 7 25 11
f 7 22 26
f 7 26 27
f 7 27 28
f 7 28 29
f 7 29 25
f 8 30 9
f 9 31 32
f 9 30 31
f 10 33 34
f 10 34 35
f 10 35 36
f 10 36 23
f 11 25 12
f 12 25 13
f 13 15 14
f 13 25 15
f 15 25 29
f 15 29 28
f 15 28 16
f 16 28 37
f 16 37 38
f 16 38 17
f 17 38 39
f 17 39 40
f 17 40 41
f 18 24 42
f 18 42 43
f 18 43 19
f 19 43 44
f 19 44 20
f 20 44 45
f 20 45 46
f 20 46 21
f 21 46 47
f 21 47 22
f 22 47 48
f 22 48 49
f 22 49 26
f 23 50 51
f 23 51 24
f 23 36 57
f 23 57 61
f 23 61 50
f 24 51 42
f 26 49 52
f 26 52 27
f 27 52 28
f 28 52 37
f 30 53 54
f 30 54 32
f 30 32 31
f 32 54 55
f 33 56 53
f 33 53 34
f 36 41 58
f 36 58 59
f 36 59 51
f 36 51 57
f 37 52 38
f 38 52 49
f 38 49 48
f 38 48 39
f 39 48 40
f 40 48 47
f 40 47 46
f 40 46 41
f 41 46 60
f 41 60 58
f 42 51 59
f 42 59 44
f 42 44 43
f 44 59 58
f 44 58 45
f 45 58 60
f 45 60 46
f 50 61 51
f 51 61 57
f 53 56 62
f 53 62 63
f 53 63 54
f 54 63 55
f 55 63 64
f 56 64 62
f 62 64 63

