# https://github.com/mikedh/trimesh
v 0.00066867 0.02266338 -0.02891792
v 0.00096973 0.02264195 -0.02656158
v 0.00133487 0.02265514 -0.02771886
v 0.00120073 0.02264690 -0.02984932
v -0.00056536 0.02264278 -0.02956618
v -0.00055046 0.02262135 -0.02644193
v 0.00543937 0.02198937 -0.02656158
v 0.00255847 0.02252989 -0.02706647
v 0.00253313 0.02253649 -0.02951667
v 0.00253313 0.02254637 -0.02825212
v 0.00325895 0.02241948 -0.03022579
v 0.00153458 0.02250105 -0.03081320
v 0.00000098 0.02260900 -0.03038257
v -0.00088133 0.02246480 -0.03073791
v -0.00093200 0.02018323 -0.02644193
v 0.00613240 0.01919529 -0.02644193
v 0.00966460 0.02047986 -0.02644296
v 0.00786273 0.02123132 -0.02644296
v 0.00577620 0.02193005 -0.02771886
v 0.00479851 0.02215416 -0.02785243
v 0.00379996 0.02235027 -0.02825212
v 0.00415914 0.02230083 -0.02942436
v 0.00533207 0.02203304 -0.02958320
v 0.00567784 0.02186248 -0.03053007
v 0.00255996 0.02236016 -0.03099164
v 0.00000098 0.02230989 -0.03131449
v -0.00086493 0.02179162 -0.03166982
v -0.00093200 0.02071634 -0.03139339
v -0.00093200 0.02020383 -0.02938310
v 0.01429372 0.01424572 -0.02644296
v 0.01386598 0.01785552 -0.02644296
v 0.01271690 0.01867949 -0.02644296
v 0.01013854 0.02027964 -0.02971317
v 0.00895220 0.02083252 -0.02866882
v 0.00855278 0.02098660 -0.02771886
v 0.01120118 0.01966331 -0.02671784
v 0.01120863 0.01970533 -0.02871215
v 0.00755273 0.02137222 -0.02778539
v 0.00614134 0.02183282 -0.02868533
v 0.00654375 0.02170510 -0.02998289
v 0.00743052 0.02133926 -0.03076369
v 0.00658995 0.02136398 -0.03126240
v 0.00346611 0.02148428 -0.03168890
v 0.01429372 0.01617463 -0.03171005
v -0.00093200 0.02030436 -0.03040114
v 0.01429372 0.01513231 -0.03138308
v 0.01429372 0.01444594 -0.03030676
v 0.01429372 0.01433306 -0.02929749
v 0.01407165 0.01779702 -0.02942126
v 0.01176604 0.01934855 -0.02771886
v 0.00932778 0.02059604 -0.03064972
v 0.00911018 0.02075919 -0.02979620
v 0.01114753 0.01972675 -0.02984932
v 0.01096123 0.01974159 -0.03064972
v 0.00765855 0.02134503 -0.02928408
v 0.01187483 0.01928758 -0.02931709
v 0.00951109 0.02034967 -0.03108344
v 0.01016537 0.01957762 -0.03157029
v 0.01101638 0.01887807 -0.03163372
v 0.01375867 0.01719305 -0.03154089
v 0.01378103 0.01785387 -0.03081320
v 0.01225786 0.01900413 -0.03033049
v 0.01220719 0.01861357 -0.03139649
f 1 2 3
f 1 3 4
f 1 4 5
f 1 5 6
f 1 6 2
f 2 6 7
f 2 7 8
f 2 8 3
f 3 9 4
f 3 8 10
f 3 10 9
f 4 9 11
f 4 11 12
f 4 12 13
f 4 13 5
f 5 14 6
f 5 13 14
f 6 14 15
f 6 15 16
f 6 16 17
f 6 17 18
f 6 18 7
f 7 19 20
f 7 20 21
f 7 21 8
f 7 18 19
f 8 21 10
f 9 10 22
f 9 22 11
f 10 21 22
f 11 22 23
f 11 23 24
f 11 24 25
f 11 25 12
f 12 26 13
f 12 25 26
f 13 26 14
f 14 27 28
f 14 28 15
f 14 26 27
f 15 28 45
f 15 45 29
f 15 29 30
f 15 30 16
f 16 30 31
f 16 31 32
f 16 32 17
f 17 33 34
f 17 34 35
f 17 35 18
f 17 32 36
f 17 36 37
f 17 37 33
f 18 35 38
f 18 38 19
f 19 23 20
f 19 38 39
f 19 39 23
f 20 22 21
f 20 23 22
f 23 39 40
f 23 40 24
f 24 40 41
f 24 41 42
f 24 42 25
f 25 42 43
f 25 43 26
f 26 43 27
f 27 43 44
f 27 44 28
f 28 44 46
f 28 46 47
f 28 47 45
f 29 45 48
f 29 48 30
f 30 48 47
f 30 47 46
f 30 46 44
f 30 44 49
f 30 49 31
f 31 49 32
f 32 49 50
f 32 50 36
f 33 51 52
f 33 52 34
f 33 37 53
f 33 53 54
f 33 54 51
f 34 52 55
f 34 55 35
f 35 55 38
f 36 50 37
f 37 50 56
f 37 56 53
f 38 55 39
f 39 55 40
f 40 55 41
f 41 55 52
f 41 52 51
f 41 51 57
f 41 57 42
f 42 57 58
f 42 58 43
f 43 58 59
f 43 59 44
f 44 60 61
f 44 61 49
f 44 59 60
f 45 47 48
f 49 61 62
f 49 62 56
f 49 56 50
f 51 54 57
f 53 56 62
f 53 62 54
f 54 62 61
f 54 61 63
f 54 63 57
f 57 63 58
f 58 63 59
f 59 63 60
f 60 63 61

