# https://github.com/mikedh/trimesh
v -0.01861812 0.00698299 -0.02647338
v -0.01870497 0.00698299 -0.02995162
v -0.02114471 0.00698299 -0.03037331
v -0.02129255 0.00688097 -0.02705165
v -0.02157046 0.00584071 -0.02647338
v -0.01977296 -0.00081754 -0.02647338
v -0.01811482 -0.00769562 -0.02648094
v -0.01814027 -0.00769562 -0.02954073
v -0.01915495 0.00698299 -0.03137272
v -0.01824934 -0.00769562 -0.03068377
v -0.02132406 0.00675597 -0.02929236
v -0.02032877 0.00690252 -0.03161569
v -0.02137940 0.00581054 -0.03096885
v -0.02175465 0.00509643 -0.03011036
v -0.02141494 0.00649015 -0.02835072
v -0.02159268 0.00586226 -0.02771955
v -0.02183988 0.00480907 -0.02709700
v -0.02199822 0.00373001 -0.02658515
v -0.02216222 0.00195410 -0.02647338
v -0.02153370 -0.00534784 -0.02648094
v -0.02090559 -0.00743411 -0.02670015
v -0.01909598 -0.00769562 -0.03170046
v -0.02061233 0.00591399 -0.03174635
v -0.02102071 0.00228601 -0.03198932
v -0.02163186 0.00572864 -0.02891819
v -0.02126913 0.00464671 -0.03158977
v -0.02192632 0.00246561 -0.03132412
v -0.02184311 0.00419842 -0.03070914
v -0.02195419 0.00399726 -0.03011576
v -0.02207416 0.00359639 -0.02811909
v -0.02216383 0.00266389 -0.02838582
v -0.02222200 0.00159777 -0.02818604
v -0.02223533 0.00066527 -0.02765259
v -0.02220907 -0.00068104 -0.02658785
v -0.02156399 -0.00532773 -0.02931666
v -0.02139071 -0.00593407 -0.02868494
v -0.02124408 -0.00639529 -0.02670015
v -0.02188431 -0.00387079 -0.02670015
v -0.02182736 -0.00421419 -0.02818551
v -0.02092982 -0.00731198 -0.02987603
v -0.02030090 -0.00683496 -0.03162163
v -0.02180757 0.00128023 -0.03155792
v -0.02086196 -0.00539526 -0.03163081
v -0.02105464 -0.00399723 -0.03167508
v -0.02144160 -0.00319692 -0.03154820
v -0.02219938 -0.00106898 -0.03038249
v -0.02215252 0.00213083 -0.03051585
v -0.02210042 0.00306333 -0.02971675
v -0.02219898 0.00213083 -0.02931720
v -0.02223291 0.00133195 -0.02984957
v -0.02224099 0.00039802 -0.02865255
v -0.02223008 -0.00073420 -0.02798573
v -0.02212142 -0.00219114 -0.02697120
v -0.02180878 -0.00427741 -0.02931666
v -0.02176960 -0.00430758 -0.03032525
v -0.02133295 -0.00605620 -0.03011090
v -0.02199580 -0.00319692 -0.02998294
v -0.02130871 -0.00529612 -0.03115567
v -0.02179343 -0.00182331 -0.03136192
v -0.02134789 -0.00427023 -0.03146937
v -0.02187018 -0.00304892 -0.03093915
v -0.02211253 -0.00213079 -0.03038249
v -0.02216626 -0.00186354 -0.02931666
v -0.02222483 -0.00099858 -0.02945056
f 1 2 9
f 1 9 3
f 1 3 4
f 1 4 5
f 1 5 19
f 1 19 6
f 1 6 7
f 1 7 8
f 1 8 2
f 2 8 10
f 2 10 9
f 3 11 4
f 3 9 12
f 3 12 13
f 3 13 14
f 3 14 11
f 4 11 15
f 4 15 16
f 4 16 5
f 5 16 17
f 5 17 18
f 5 18 19
f 6 20 7
f 6 19 20
f 7 20 21
f 7 21 22
f 7 22 10
f 7 10 8
f 9 23 12
f 9 10 22
f 9 22 24
f 9 24 23
f 11 14 25
f 11 25 15
f 12 23 13
f 13 23 26
f 13 26 27
f 13 27 28
f 13 28 14
f 14 17 25
f 14 28 29
f 14 29 30
f 14 30 17
f 15 25 16
f 16 25 17
f 17 30 18
f 18 30 19
f 19 30 31
f 19 31 32
f 19 32 33
f 19 33 34
f 19 34 20
f 20 35 36
f 20 36 37
f 20 37 21
f 20 34 38
f 20 38 39
f 20 39 35
f 21 37 36
f 21 36 40
f 21 40 22
f 22 40 41
f 22 41 24
f 23 24 26
f 24 42 26
f 24 41 43
f 24 43 44
f 24 44 45
f 24 45 42
f 26 42 27
f 27 42 46
f 27 46 47
f 27 47 28
f 28 47 29
f 29 47 48
f 29 48 30
f 30 48 31
f 31 48 49
f 31 49 32
f 32 49 50
f 32 50 33
f 33 50 51
f 33 51 52
f 33 52 34
f 34 52 53
f 34 53 38
f 35 54 55
f 35 55 56
f 35 56 36
f 35 39 54
f 36 56 40
f 38 53 57
f 38 57 39
f 39 57 54
f 40 56 58
f 40 58 41
f 41 58 43
f 42 45 59
f 42 59 46
f 43 58 60
f 43 60 45
f 43 45 44
f 45 60 59
f 46 59 61
f 46 61 62
f 46 62 63
f 46 63 64
f 46 64 50
f 46 50 47
f 47 50 49
f 47 49 48
f 50 64 51
f 51 64 52
f 52 64 63
f 52 63 53
f 53 63 57
f 54 57 55
f 55 58 56
f 55 57 62
f 55 62 61
f 55 61 58
f 57 63 62
f 58 61 60
f 59 60 61

