# https://github.com/mikedh/trimesh
v 0.00491887 0.02330040 0.00584747
v 0.00472412 0.02583882 0.00581036
v -0.00086567 0.02620729 0.00581607
v -0.00093269 0.02382809 0.00584747
v -0.00093269 0.02262899 0.00142893
v 0.00476823 0.02262899 0.00308731
v 0.00491887 0.02262899 -0.02149721
v 0.00491887 0.02268359 -0.02331257
v 0.00476479 0.02526251 -0.02319554
v 0.00373091 0.02597761 0.00578467
v 0.00472412 0.02547387 -0.02052102
v 0.00415306 0.02557215 -0.01998440
v 0.00373091 0.02596317 0.00466006
v 0.00180350 0.02616431 0.00572188
v -0.00003056 0.02622772 0.00572188
v -0.00083245 0.02619813 0.00479421
v -0.00086567 0.02616924 0.00246221
v -0.00093269 0.02612204 -0.00122276
v -0.00093269 0.02262899 -0.02104336
v 0.00310715 0.02262899 -0.02213372
v 0.00293131 0.02263533 -0.02331257
v -0.00093269 0.02333281 -0.02331257
v 0.00170441 0.02567572 -0.02327832
v 0.00399726 0.02539637 -0.02324978
v 0.00399726 0.02549642 -0.02265322
v 0.00472412 0.02537665 -0.02236778
v 0.00472412 0.02544921 -0.02132024
v 0.00285856 0.02608787 0.00572188
v 0.00293131 0.02607061 0.00506252
v 0.00410952 0.02556652 -0.02078647
v 0.00346457 0.02568030 -0.01865427
v 0.00293131 0.02605617 0.00399214
v 0.00186650 0.02615515 0.00506252
v 0.00106690 0.02619778 0.00479421
v 0.00112131 0.02620200 0.00569048
v 0.00026672 0.02622490 0.00506252
v -0.00026540 0.02617734 0.00185994
v -0.00085708 0.02590223 -0.01873705
v -0.00086567 0.02584199 -0.02132024
v -0.00088229 0.02579267 -0.02235065
v 0.00022548 0.02297878 -0.02331257
v 0.00106232 0.02277130 -0.02331257
v 0.00227833 0.02266175 -0.02331257
v 0.00161047 0.02262899 -0.02195675
v 0.00239862 0.02262899 -0.02218510
v -0.00087312 0.02568946 -0.02324978
v 0.00061898 0.02571130 -0.02327832
v 0.00106690 0.02579901 -0.02265322
v 0.00213228 0.02574441 -0.02265322
v 0.00268272 0.02560668 -0.02325834
v 0.00375612 0.02558871 -0.02183973
v 0.00313636 0.02562182 -0.02272457
v 0.00203490 0.02613437 0.00399214
v 0.00213228 0.02579514 -0.02185114
v 0.00293131 0.02569967 -0.02185114
v 0.00133324 0.02617453 0.00399214
v 0.00080055 0.02620235 0.00399214
v 0.00080055 0.02586982 -0.02105478
v -0.00026540 0.02591209 -0.01891973
v -0.00056554 0.02588426 -0.02025271
v 0.00000037 0.02587369 -0.02118608
v 0.00000037 0.02582438 -0.02238491
v -0.00026540 0.02571588 -0.02324978
v 0.00106690 0.02585044 -0.02185114
f 1 2 3
f 1 3 4
f 1 4 5
f 1 5 6
f 1 6 7
f 1 7 8
f 1 8 9
f 1 9 2
f 2 10 3
f 2 9 11
f 2 11 12
f 2 12 13
f 2 13 10
f 3 10 14
f 3 14 15
f 3 15 16
f 3 16 17
f 3 17 18
f 3 18 4
f 4 18 22
f 4 22 19
f 4 19 5
f 5 19 44
f 5 44 45
f 5 45 20
f 5 20 7
f 5 7 6
f 7 20 21
f 7 21 8
f 8 21 43
f 8 43 42
f 8 42 41
f 8 41 22
f 8 22 23
f 8 23 24
f 8 24 9
f 9 24 25
f 9 25 26
f 9 26 27
f 9 27 11
f 10 28 14
f 10 13 29
f 10 29 28
f 11 30 12
f 11 27 30
f 12 30 31
f 12 31 13
f 13 32 29
f 13 31 32
f 14 28 33
f 14 33 34
f 14 34 35
f 14 35 15
f 15 35 36
f 15 36 37
f 15 37 16
f 16 37 17
f 17 37 18
f 18 37 38
f 18 38 39
f 18 39 40
f 18 40 22
f 19 22 41
f 19 41 42
f 19 42 43
f 19 43 21
f 19 21 44
f 20 45 21
f 21 45 44
f 22 40 46
f 22 46 47
f 22 47 23
f 23 47 48
f 23 48 49
f 23 49 50
f 23 50 24
f 24 50 25
f 25 51 27
f 25 27 26
f 25 50 52
f 25 52 51
f 27 51 30
f 28 53 33
f 28 29 32
f 28 32 54
f 28 54 53
f 30 51 55
f 30 55 31
f 31 55 54
f 31 54 32
f 33 53 56
f 33 56 34
f 34 56 57
f 34 57 35
f 35 57 36
f 36 57 58
f 36 58 59
f 36 59 37
f 37 59 38
f 38 59 60
f 38 60 39
f 39 61 62
f 39 62 40
f 39 60 61
f 40 62 63
f 40 63 46
f 46 63 47
f 47 63 48
f 48 63 62
f 48 62 64
f 48 64 49
f 49 52 50
f 49 64 54
f 49 54 52
f 51 52 55
f 52 54 55
f 53 54 56
f 54 64 57
f 54 57 56
f 57 64 58
f 58 64 61
f 58 61 59
f 59 61 60
f 61 64 62

