# https://github.com/mikedh/trimesh
v 0.02308268 -0.00081987 -0.02319726
v 0.02071356 -0.01433724 -0.02375870
v 0.02397845 -0.00767925 -0.02367257
v 0.02498190 -0.00151173 -0.02412635
v 0.01987653 -0.00081987 -0.02647526
v -0.00011418 -0.00081987 -0.02383390
v -0.02502426 -0.00379819 -0.02376609
v 0.00293044 -0.00933072 -0.02321236
v -0.00011908 -0.02301631 -0.02319726
v 0.00686592 -0.02427209 -0.02332838
v 0.00900499 -0.02351625 -0.02341643
v 0.01593125 -0.01927504 -0.02383711
v 0.01895629 -0.01631805 -0.02410899
v 0.02136458 -0.01261943 -0.02433685
v 0.02251488 -0.01056754 -0.02420315
v 0.02435535 -0.00498526 -0.02430599
v 0.02212818 -0.00240499 -0.02647526
v -0.00011418 -0.00081987 -0.02641484
v -0.01976226 -0.00082461 -0.02648040
v -0.02486273 -0.00171076 -0.02447729
v -0.02463267 -0.00373422 -0.02465565
v -0.02447114 -0.00570318 -0.02414049
v -0.02190132 -0.01279240 -0.02348906
v -0.00755441 -0.02402804 -0.02363111
v 0.00194167 -0.02494973 -0.02412860
v 0.00470728 -0.02431948 -0.02448307
v 0.00776658 -0.02313715 -0.02496384
v -0.00165607 -0.02502555 -0.02384322
v 0.01061541 -0.02259219 -0.02396534
v 0.01280342 -0.02148806 -0.02393674
v 0.01236288 -0.01829649 -0.02647526
v 0.01504528 -0.01614982 -0.02647526
v 0.01698855 -0.01415716 -0.02647526
v 0.01878008 -0.01171906 -0.02647526
v 0.02005275 -0.00948947 -0.02647526
v 0.02095341 -0.00748259 -0.02647526
v 0.02162401 -0.00524826 -0.02647526
v -0.00012397 -0.01950488 -0.02648040
v -0.02214607 -0.00164442 -0.02648040
v -0.02189153 -0.00376265 -0.02648040
v -0.02112793 -0.00667700 -0.02648040
v -0.02259640 -0.01051541 -0.02447696
v -0.02373690 -0.00785459 -0.02428800
v -0.02015874 -0.01519969 -0.02397980
v -0.01819100 -0.01742692 -0.02403154
v -0.01447089 -0.02038392 -0.02421794
v -0.01157801 -0.02208514 -0.02418452
v -0.00906204 -0.02311109 -0.02442330
v -0.00566009 -0.02419627 -0.02429282
v 0.00216683 -0.02184346 -0.02647526
v -0.00060367 -0.02193350 -0.02648040
v 0.00803091 -0.02050239 -0.02647526
v 0.00988117 -0.01969680 -0.02647526
v 0.00557857 -0.02126770 -0.02647526
v -0.01945388 -0.01048935 -0.02648040
v -0.01790709 -0.01292271 -0.02648008
v -0.01660016 -0.01448177 -0.02648040
v -0.01500443 -0.01606452 -0.02648040
v -0.01334996 -0.01747668 -0.02648040
v -0.01128921 -0.01890542 -0.02648040
v -0.00902777 -0.02007590 -0.02648040
v -0.00686423 -0.02089334 -0.02648040
v -0.00338886 -0.02167050 -0.02648040
f 1 2 3
f 1 3 4
f 1 4 5
f 1 5 18
f 1 18 6
f 1 6 7
f 1 7 8
f 1 8 9
f 1 9 10
f 1 10 11
f 1 11 2
f 2 11 12
f 2 12 13
f 2 13 14
f 2 14 15
f 2 15 3
f 3 15 16
f 3 16 4
f 4 16 17
f 4 17 5
f 5 17 19
f 5 19 18
f 6 18 19
f 6 19 20
f 6 20 7
f 7 20 21
f 7 21 22
f 7 22 23
f 7 23 8
f 8 23 9
f 9 23 24
f 9 24 10
f 10 25 26
f 10 26 27
f 10 27 11
f 10 24 28
f 10 28 25
f 11 27 29
f 11 29 30
f 11 30 12
f 12 30 31
f 12 31 32
f 12 32 13
f 13 32 33
f 13 33 14
f 14 33 34
f 14 34 35
f 14 35 15
f 15 35 36
f 15 36 16
f 16 36 37
f 16 37 17
f 17 37 38
f 17 38 19
f 19 38 51
f 19 51 63
f 19 63 62
f 19 62 61
f 19 61 60
f 19 60 59
f 19 59 58
f 19 58 57
f 19 57 55
f 19 55 41
f 19 41 40
f 19 40 39
f 19 39 20
f 20 39 21
f 21 39 40
f 21 40 41
f 21 41 42
f 21 42 43
f 21 43 22
f 22 43 23
f 23 44 45
f 23 45 24
f 23 43 42
f 23 42 44
f 24 46 47
f 24 47 48
f 24 48 49
f 24 49 28
f 24 45 46
f 25 50 26
f 25 28 49
f 25 49 51
f 25 51 50
f 26 50 27
f 27 52 53
f 27 53 31
f 27 31 30
f 27 30 29
f 27 50 54
f 27 54 52
f 31 53 51
f 31 51 32
f 32 51 33
f 33 51 34
f 34 51 35
f 35 51 36
f 36 51 37
f 37 51 38
f 41 55 42
f 42 55 56
f 42 56 44
f 44 56 57
f 44 57 45
f 45 57 58
f 45 58 46
f 46 58 59
f 46 59 60
f 46 60 47
f 47 60 48
f 48 60 61
f 48 61 62
f 48 62 49
f 49 63 51
f 49 62 63
f 50 51 54
f 51 53 52
f 51 52 54
f 55 57 56

