# https://github.com/mikedh/trimesh
v -0.00977362 0.02462829 0.02808016
v -0.00977987 0.02461487 0.02664869
v -0.01116061 0.02406236 0.02808016
v -0.01759960 0.01670696 0.02808016
v -0.00977362 0.02220108 0.02762811
v -0.00977362 0.02434742 0.00639715
v -0.01000508 0.02394163 -0.01846524
v -0.01199442 0.02323149 -0.00239761
v -0.01234474 0.02345116 0.02808016
v -0.01082816 0.02354590 -0.02008255
v -0.01739405 0.01998516 0.02808016
v -0.01890169 0.01810041 0.00579442
v -0.01759960 0.01660635 0.02573455
v -0.01353155 0.01796207 -0.00054925
v -0.00984064 0.02016793 -0.00346242
v -0.00977362 0.02209544 0.02400675
v -0.00977362 0.02182548 0.00641221
v -0.00984064 0.02120253 -0.02323178
v -0.00991124 0.02391815 -0.02078573
v -0.01319285 0.02284582 0.01732153
v -0.01277103 0.02319796 0.02598067
v -0.01193365 0.02303363 -0.01838487
v -0.01293547 0.02247021 -0.01891728
v -0.01345023 0.02282822 0.02808016
v -0.01025442 0.02373035 -0.02176013
v -0.01171291 0.02303363 -0.02185054
v -0.01166644 0.02310657 -0.02078573
v -0.01536003 0.02160497 0.02808016
v -0.01609821 0.02076321 0.00798934
v -0.01658259 0.02031214 0.00544786
v -0.01749772 0.01937731 -0.00052916
v -0.01813759 0.01867304 -0.00559707
v -0.01883467 0.01807777 0.00026945
v -0.01759960 0.01606306 0.00583963
v -0.01378536 0.01796207 -0.01772690
v -0.00984064 0.02011008 -0.01875655
v -0.00977362 0.02204179 0.02104837
v -0.01489442 0.01796207 -0.02323178
v -0.01674345 0.01948714 -0.02310119
v -0.01023386 0.02365405 -0.02292038
v -0.01462184 0.02209796 0.02631217
v -0.01353334 0.02213233 -0.01761640
v -0.01266557 0.02257669 -0.02031359
v -0.01391852 0.02186069 -0.01865108
v -0.01272009 0.02246686 -0.02229756
v -0.01394801 0.02168043 -0.02286010
v -0.01478181 0.02122517 -0.02105193
v -0.01444579 0.02221701 0.02808016
v -0.01168610 0.02297158 -0.02292540
v -0.01593556 0.02074727 -0.00026296
v -0.01612144 0.02067266 0.00399127
v -0.01662548 0.01996671 -0.01025312
v -0.01687214 0.01955589 -0.01944969
v -0.01757636 0.01918028 -0.00666188
v -0.01791328 0.01861100 -0.01878167
v -0.01852992 0.01797297 -0.01958028
v -0.01840480 0.01802327 -0.02144872
v -0.01800265 0.01830498 -0.02304594
v -0.01752363 0.01885749 -0.02238295
v -0.01634308 0.01995414 -0.02170990
v -0.01556111 0.02050917 -0.02303087
v -0.01494983 0.02112959 -0.01978119
v -0.01540382 0.02074560 -0.02158434
v -0.01643692 0.01992228 -0.02024830
f 1 2 3
f 1 3 9
f 1 9 24
f 1 24 48
f 1 48 28
f 1 28 11
f 1 11 4
f 1 4 5
f 1 5 16
f 1 16 37
f 1 37 17
f 1 17 6
f 1 6 2
f 2 6 7
f 2 7 3
f 3 8 9
f 3 7 10
f 3 10 8
f 4 11 12
f 4 12 13
f 4 13 14
f 4 14 15
f 4 15 5
f 5 15 16
f 6 17 18
f 6 18 19
f 6 19 7
f 7 19 10
f 8 20 21
f 8 21 9
f 8 10 22
f 8 22 23
f 8 23 20
f 9 21 24
f 10 19 25
f 10 25 26
f 10 26 27
f 10 27 22
f 11 28 29
f 11 29 30
f 11 30 31
f 11 31 32
f 11 32 33
f 11 33 12
f 12 33 34
f 12 34 13
f 13 34 14
f 14 34 35
f 14 35 36
f 14 36 15
f 15 17 37
f 15 37 16
f 15 36 17
f 17 36 18
f 18 38 39
f 18 39 40
f 18 40 19
f 18 36 38
f 19 40 25
f 20 41 24
f 20 24 21
f 20 23 42
f 20 42 41
f 22 27 43
f 22 43 23
f 23 44 42
f 23 43 45
f 23 45 46
f 23 46 47
f 23 47 44
f 24 41 48
f 25 40 49
f 25 49 26
f 26 49 45
f 26 45 27
f 27 45 43
f 28 48 41
f 28 41 50
f 28 50 29
f 29 50 51
f 29 51 30
f 30 51 50
f 30 50 52
f 30 52 31
f 31 52 53
f 31 53 54
f 31 54 32
f 32 54 55
f 32 55 56
f 32 56 33
f 33 56 34
f 34 56 57
f 34 57 38
f 34 38 35
f 35 38 36
f 38 57 58
f 38 58 39
f 39 58 59
f 39 59 60
f 39 60 61
f 39 61 40
f 40 61 49
f 41 42 44
f 41 44 62
f 41 62 50
f 44 47 62
f 45 49 46
f 46 49 61
f 46 61 63
f 46 63 47
f 47 63 62
f 50 62 63
f 50 63 64
f 50 64 52
f 52 64 53
f 53 64 59
f 53 59 55
f 53 55 54
f 55 59 56
f 56 59 57
f 57 59 58
f 59 64 60
f 60 63 61
f 60 64 63

