# https://github.com/mikedh/trimesh
v 0.02484655 -0.00749848 0.00442878
v 0.02239725 -0.00726592 0.00584462
v 0.02484493 -0.00756066 0.00578208
v 0.02478414 -0.00773024 0.00506278
v 0.02452560 -0.00815095 -0.00213301
v 0.02433351 -0.00773024 -0.01998460
v 0.02448669 -0.00726592 -0.01945294
v 0.01739085 -0.01551544 0.00391134
v 0.01749054 -0.01551544 0.00457093
v 0.01775151 -0.01551544 0.00584462
v 0.02450696 -0.00862657 0.00584462
v 0.02171238 -0.00726592 -0.01438945
v 0.01709826 -0.01551544 0.00106259
v 0.02405632 -0.00850545 -0.02078634
v 0.02431487 -0.00773024 -0.02078634
v 0.02443725 -0.00726592 -0.02154544
v 0.02107696 -0.01513430 0.00579913
v 0.02199524 -0.01379060 0.00584462
v 0.01656658 -0.01551544 -0.02319726
v 0.02034346 -0.01533941 -0.02112466
v 0.02351167 -0.01100065 0.00584462
v 0.02411873 -0.00963031 0.00578208
v 0.02429947 -0.00879615 -0.00213301
v 0.02169212 -0.00726592 -0.02025469
v 0.02362838 -0.00956571 -0.02088585
v 0.02370619 -0.00932911 -0.02158808
v 0.02403039 -0.00848284 -0.02158808
v 0.02429217 -0.00773024 -0.02158808
v 0.02403039 -0.00944297 -0.00320200
v 0.02400769 -0.00954229 -0.00235192
v 0.02428650 -0.00761396 -0.02243532
v 0.02425651 -0.00749606 -0.02319157
v 0.02191582 -0.00726592 -0.02319726
v 0.02127066 -0.01485248 0.00506278
v 0.02249207 -0.01296694 0.00571953
v 0.02287382 -0.01231770 0.00584462
v 0.02139791 -0.01381240 -0.02171886
v 0.02172211 -0.01334566 -0.02105359
v 0.02123095 -0.01390204 -0.02319157
v 0.02074790 -0.01460215 -0.02319157
v 0.02024296 -0.01526269 -0.02319157
v 0.02036940 -0.01523685 -0.02230738
v 0.02078923 -0.01466029 -0.02238698
v 0.02070899 -0.01481129 -0.02158808
v 0.02300106 -0.01188649 0.00079534
v 0.02337875 -0.01109998 0.00106259
v 0.02368836 -0.01039502 0.00026085
v 0.02335200 -0.01014469 -0.02185249
v 0.02340955 -0.01017457 -0.01918570
v 0.02355058 -0.00958267 -0.02251777
v 0.02391854 -0.00856359 -0.02286462
v 0.02350438 -0.00954875 -0.02319157
v 0.02249856 -0.01207464 -0.01915727
v 0.02185665 -0.01306707 -0.02185249
v 0.02120582 -0.01404255 -0.02240689
v 0.02303267 -0.01064212 -0.02305510
v 0.02251153 -0.01171853 -0.02292148
v 0.02195067 -0.01276103 -0.02292148
v 0.02288516 -0.01132124 -0.01878767
v 0.02340063 -0.01054683 -0.01092660
v 0.02286652 -0.01118800 -0.02131799
v 0.02293541 -0.01095866 -0.02238698
v 0.02233403 -0.01215782 -0.02211974
v 0.02258447 -0.01167573 -0.02211974
f 1 2 3
f 1 3 4
f 1 4 5
f 1 5 6
f 1 6 7
f 1 7 2
f 2 8 9
f 2 9 10
f 2 10 18
f 2 18 36
f 2 36 21
f 2 21 11
f 2 11 3
f 2 7 16
f 2 16 33
f 2 33 24
f 2 24 12
f 2 12 13
f 2 13 8
f 3 11 4
f 4 11 5
f 5 11 14
f 5 14 6
f 6 15 7
f 6 14 15
f 7 15 16
f 8 13 19
f 8 19 10
f 8 10 9
f 10 17 18
f 10 19 20
f 10 20 17
f 11 21 22
f 11 22 23
f 11 23 14
f 12 24 19
f 12 19 13
f 14 25 26
f 14 26 27
f 14 27 28
f 14 28 15
f 14 23 29
f 14 29 30
f 14 30 25
f 15 28 16
f 16 28 31
f 16 31 32
f 16 32 33
f 17 34 18
f 17 20 34
f 18 35 36
f 18 34 37
f 18 37 38
f 18 38 35
f 19 24 33
f 19 33 39
f 19 39 40
f 19 40 41
f 19 41 20
f 20 41 42
f 20 42 43
f 20 43 44
f 20 44 34
f 21 36 45
f 21 45 46
f 21 46 47
f 21 47 22
f 22 47 30
f 22 30 23
f 23 30 29
f 25 48 26
f 25 30 49
f 25 49 48
f 26 48 50
f 26 50 27
f 27 50 51
f 27 51 31
f 27 31 28
f 30 47 49
f 31 51 32
f 32 52 33
f 32 51 52
f 33 52 39
f 34 44 37
f 35 38 36
f 36 38 53
f 36 53 45
f 37 54 38
f 37 44 43
f 37 43 55
f 37 55 54
f 38 54 53
f 39 52 56
f 39 56 57
f 39 57 58
f 39 58 54
f 39 54 55
f 39 55 43
f 39 43 40
f 40 43 42
f 40 42 41
f 45 53 59
f 45 59 46
f 46 59 60
f 46 60 47
f 47 60 49
f 48 49 59
f 48 59 61
f 48 61 62
f 48 62 56
f 48 56 50
f 49 60 59
f 50 56 52
f 50 52 51
f 53 54 63
f 53 63 64
f 53 64 61
f 53 61 59
f 54 58 63
f 56 62 57
f 57 62 64
f 57 64 63
f 57 63 58
f 61 64 62

