# https://github.com/mikedh/trimesh
v 0.02600728 0.00168511 0.00539077
v 0.02594441 0.00266459 0.00578467
v 0.02599546 0.00040784 0.00584747
v 0.02593070 -0.00053784 0.00160305
v 0.02588863 0.00000030 -0.00226745
v 0.02558422 0.00026659 -0.02045822
v 0.02557760 0.00111872 -0.02042397
v 0.02550670 0.00266459 -0.02085212
v 0.02580260 0.00364639 0.00584747
v 0.02539325 0.00360378 -0.02135734
v 0.02597608 -0.00066843 0.00584747
v 0.02583853 -0.00053784 -0.00493341
v 0.02557335 -0.00060823 -0.02027840
v 0.02554262 -0.00054061 -0.02131453
v 0.02556011 0.00053334 -0.02132024
v 0.02551284 0.00153274 -0.02225075
v 0.02554451 0.00159897 -0.02118608
v 0.02541216 0.00267385 -0.02288442
v 0.02534315 0.00368761 -0.02237349
v 0.02317208 0.00388675 0.00532512
v 0.02355779 -0.00081987 0.00584747
v 0.02523585 0.00372744 -0.02324978
v 0.02305060 -0.00081987 -0.02331257
v 0.02539940 -0.00052718 -0.02324978
v 0.02548401 -0.00053784 -0.02238491
v 0.02552182 0.00039997 -0.02238491
v 0.02545045 0.00054909 -0.02324978
v 0.02543154 0.00159897 -0.02324978
v 0.02273767 0.00391129 -0.02331257
v 0.02230847 0.00391129 -0.00161666
v 0.02223095 0.00367927 -0.00048919
v 0.02180648 0.00272387 -0.00028082
v 0.02161409 0.00146605 0.00013020
v 0.02174739 0.00110899 0.00090373
v 0.02196294 0.00106639 0.00173435
v 0.02228767 0.00055835 0.00266487
v 0.02212270 -0.00067353 0.00159734
v 0.02182160 -0.00077773 0.00050412
v 0.02132008 -0.00081987 -0.01230905
v 0.02188352 -0.00053784 -0.01761814
v 0.02206220 -0.00053784 -0.01865427
v 0.02293526 0.00029577 -0.02331257
v 0.02169067 -0.00040214 -0.01632512
v 0.02149166 -0.00040214 -0.01458968
v 0.02138247 -0.00054061 -0.01334233
v 0.02239639 0.00391129 -0.01812051
v 0.02187454 0.00313048 -0.00160239
v 0.02154319 0.00239830 -0.00253290
v 0.02152192 0.00213155 -0.00133408
v 0.02149166 0.00159897 -0.00066901
v 0.02142549 0.00079963 -0.00080317
v 0.02142501 0.00026659 -0.00080317
v 0.02159093 0.00000030 -0.00000395
v 0.02183342 0.00001466 0.00104360
v 0.02157155 -0.00067353 -0.00060622
v 0.02137585 -0.00063185 -0.00194491
v 0.02122932 -0.00054154 -0.00376884
v 0.02117827 0.00053334 -0.00426835
v 0.02122932 0.00104694 -0.00506471
v 0.02129644 0.00158554 -0.00379738
v 0.02129928 0.00155914 -0.00268133
v 0.02127186 0.00052825 -0.00201912
v 0.02127753 -0.00049847 -0.00282119
v 0.02119481 0.00053334 -0.00320082
f 1 2 3
f 1 3 4
f 1 4 5
f 1 5 6
f 1 6 7
f 1 7 8
f 1 8 2
f 2 9 3
f 2 8 10
f 2 10 9
f 3 11 4
f 3 9 21
f 3 21 11
f 4 11 12
f 4 12 5
f 5 12 6
f 6 12 13
f 6 13 14
f 6 14 15
f 6 15 7
f 7 15 16
f 7 16 17
f 7 17 8
f 8 17 16
f 8 16 18
f 8 18 19
f 8 19 10
f 9 20 21
f 9 10 19
f 9 19 22
f 9 22 20
f 11 21 23
f 11 23 13
f 11 13 12
f 13 23 24
f 13 24 25
f 13 25 14
f 14 25 26
f 14 26 15
f 15 26 16
f 16 26 27
f 16 27 28
f 16 28 18
f 18 28 22
f 18 22 19
f 20 22 29
f 20 29 30
f 20 30 31
f 20 31 32
f 20 32 33
f 20 33 34
f 20 34 35
f 20 35 36
f 20 36 21
f 21 36 37
f 21 37 38
f 21 38 39
f 21 39 23
f 22 28 29
f 23 39 40
f 23 40 41
f 23 41 42
f 23 42 29
f 23 29 28
f 23 28 27
f 23 27 24
f 24 27 25
f 25 27 26
f 29 40 43
f 29 43 44
f 29 44 45
f 29 45 46
f 29 46 30
f 29 42 41
f 29 41 40
f 30 47 31
f 30 46 47
f 31 47 32
f 32 47 48
f 32 48 49
f 32 49 50
f 32 50 33
f 33 50 51
f 33 51 34
f 34 51 52
f 34 52 53
f 34 53 54
f 34 54 35
f 35 54 36
f 36 54 37
f 37 54 38
f 38 54 53
f 38 53 55
f 38 55 56
f 38 56 39
f 39 57 58
f 39 58 59
f 39 59 45
f 39 45 44
f 39 44 43
f 39 43 40
f 39 56 57
f 45 59 46
f 46 59 60
f 46 60 48
f 46 48 47
f 48 61 49
f 48 60 61
f 49 61 50
f 50 61 62
f 50 62 51
f 51 62 52
f 52 62 56
f 52 56 55
f 52 55 53
f 56 62 63
f 56 63 57
f 57 63 64
f 57 64 58
f 58 64 61
f 58 61 59
f 59 61 60
f 61 64 62
f 62 64 63

