# https://github.com/mikedh/trimesh
v 0.00970643 -0.02573960 0.03194437
v 0.01095842 -0.02608415 0.03193496
v 0.01554419 -0.02584974 0.03080752
v 0.00614080 -0.02573960 0.02910450
v 0.00837145 -0.02573960 0.03188628
v -0.00471226 -0.02774241 0.03198446
v 0.00452761 -0.02776124 0.03198610
v 0.01140992 -0.02671912 0.03173573
v 0.01336723 -0.02627478 0.03148660
v 0.00799317 -0.02745246 0.03191287
v 0.01010912 -0.02825829 0.03102147
v 0.01406767 -0.02690975 0.03007526
v 0.01568818 -0.02604555 0.02940927
v 0.00619205 -0.02573960 0.03177623
v 0.01466316 -0.02622253 0.02828306
v 0.01322812 -0.02643764 0.02808711
v -0.00924434 -0.02725524 0.02804824
v -0.00815342 -0.02773299 0.03179505
v -0.00372873 -0.02851717 0.03188055
v -0.00226441 -0.02851717 0.03193046
v -0.00346271 -0.02805212 0.03197055
v -0.00214970 -0.02802341 0.03197955
v 0.00473017 -0.02853365 0.03180487
v 0.00647272 -0.02778195 0.03190591
v 0.00985774 -0.02782054 0.03151401
v 0.01066800 -0.02850446 0.02990181
v 0.00778817 -0.02892574 0.03098261
v 0.00622378 -0.02950940 0.03076416
v 0.00686808 -0.02971745 0.02972263
v 0.00894498 -0.02908107 0.02977540
v 0.01244959 -0.02774570 0.02920022
v 0.01099259 -0.02793492 0.02836446
v 0.00959416 -0.02827241 0.02816156
v 0.00799317 -0.02871345 0.02802779
v 0.00479607 -0.02904953 0.02780770
v -0.00746031 -0.02851717 0.02785474
v -0.00747983 -0.02911119 0.02816238
v -0.00892707 -0.02906506 0.02929718
v -0.00909547 -0.02856754 0.03107138
v -0.00336265 -0.02933242 0.03150910
v -0.00596182 -0.02831901 0.03175537
v -0.00099777 -0.02950046 0.03147801
v 0.00217005 -0.02963884 0.03141174
v 0.00326585 -0.03005117 0.03085375
v 0.00737816 -0.02931077 0.02845324
v 0.00203582 -0.03036371 0.03035262
v 0.00375396 -0.03019803 0.02923172
v 0.00526709 -0.02983700 0.02867005
v 0.00252393 -0.02982382 0.02803392
v 0.00080335 -0.02958330 0.02782120
v -0.00106366 -0.02985819 0.02796274
v -0.00339682 -0.02971321 0.02802329
v -0.00555181 -0.02944633 0.02814356
v -0.00372873 -0.03010295 0.02851869
v -0.00584467 -0.02996692 0.02920963
v -0.00786788 -0.02944350 0.02988831
v -0.00653291 -0.02958801 0.03050234
v -0.00329431 -0.03020368 0.03035834
v 0.00026887 -0.03032888 0.03056166
v -0.00123938 -0.03054775 0.02994353
v 0.00003946 -0.03053128 0.02889300
v -0.00199107 -0.03041219 0.02880055
v -0.00454875 -0.03010342 0.02992103
f 1 2 3
f 1 3 4
f 1 4 14
f 1 14 5
f 1 5 6
f 1 6 7
f 1 7 2
f 2 8 9
f 2 9 3
f 2 7 10
f 2 10 8
f 3 9 11
f 3 11 12
f 3 12 13
f 3 13 4
f 4 13 15
f 4 15 16
f 4 16 17
f 4 17 14
f 5 14 6
f 6 18 19
f 6 19 20
f 6 20 21
f 6 21 22
f 6 22 7
f 6 14 18
f 7 23 24
f 7 24 10
f 7 22 20
f 7 20 23
f 8 25 9
f 8 10 25
f 9 25 11
f 10 24 23
f 10 23 25
f 11 26 12
f 11 25 27
f 11 27 28
f 11 28 29
f 11 29 30
f 11 30 26
f 12 31 13
f 12 26 31
f 13 31 15
f 14 17 18
f 15 31 32
f 15 32 33
f 15 33 34
f 15 34 16
f 16 34 35
f 16 35 36
f 16 36 17
f 17 36 37
f 17 37 38
f 17 38 39
f 17 39 18
f 18 39 40
f 18 40 41
f 18 41 19
f 19 41 40
f 19 40 20
f 20 22 21
f 20 40 42
f 20 42 43
f 20 43 23
f 23 43 25
f 25 43 27
f 26 30 31
f 27 43 44
f 27 44 28
f 28 44 29
f 29 45 30
f 29 44 46
f 29 46 47
f 29 47 48
f 29 48 45
f 30 45 31
f 31 45 32
f 32 45 33
f 33 45 34
f 34 45 49
f 34 49 35
f 35 49 50
f 35 50 36
f 36 50 51
f 36 51 52
f 36 52 37
f 37 52 53
f 37 53 54
f 37 54 55
f 37 55 38
f 38 56 39
f 38 55 56
f 39 56 57
f 39 57 40
f 40 58 59
f 40 59 42
f 40 57 58
f 42 59 43
f 43 59 44
f 44 59 46
f 45 48 49
f 46 59 60
f 46 60 61
f 46 61 47
f 47 61 48
f 48 61 49
f 49 61 51
f 49 51 50
f 51 62 54
f 51 54 52
f 51 61 62
f 52 54 53
f 54 62 55
f 55 62 60
f 55 60 63
f 55 63 56
f 56 63 57
f 57 63 58
f 58 60 59
f 58 63 60
f 60 62 61

