# https://github.com/mikedh/trimesh
v 0.01935947 0.01805263 0.02638242
v 0.01869040 0.01872766 0.02611446
v 0.01914919 0.01827287 0.02790741
v 0.01615940 0.01792737 0.02804248
v 0.01562032 0.01792737 0.00585182
v 0.01871907 0.01828296 0.00591500
v 0.01761415 0.01948759 0.01133086
v 0.01758548 0.01972129 0.02264840
v 0.01830616 0.01911099 0.02718195
v 0.01781105 0.01957922 0.02807297
v 0.01542534 0.02152865 0.02809694
v -0.00016973 0.02426407 0.02809040
v -0.00016973 0.02411444 0.02185105
v -0.00016973 0.02387738 0.00585182
v 0.01565473 0.01792737 0.00773409
v 0.01752430 0.01943547 0.00585182
v 0.01714771 0.01994405 0.01279702
v 0.01709419 0.01989950 0.00786698
v 0.01703684 0.02024080 0.02611446
v 0.01686479 0.02039884 0.02774401
v 0.01370869 0.02266434 0.02652621
v 0.01320020 0.02298715 0.02804248
v 0.01136695 0.02394042 0.02810565
v 0.01539857 0.02128066 0.00773409
v 0.00198659 0.02645224 0.02810565
v 0.00042670 0.02651528 0.02807297
v -0.00000342 0.02650604 0.02603604
v 0.00005011 0.02626310 0.00784301
v 0.00015142 0.02622695 0.00585182
v 0.01666790 0.02021221 0.00585182
v 0.01557636 0.02110917 0.00610889
v 0.01437968 0.02200529 0.01093001
v 0.01380236 0.02235415 0.01013266
v 0.01292110 0.02283247 0.00693456
v 0.01220042 0.02351422 0.02762855
v 0.01195191 0.02339569 0.00866650
v 0.00426142 0.02619164 0.02810565
v 0.01163075 0.02357643 0.00973181
v 0.01145871 0.02367394 0.01066423
v 0.01081449 0.02399506 0.01173171
v 0.00964648 0.02468943 0.02704906
v 0.00955855 0.02472305 0.02807297
v 0.01470083 0.02171779 0.00585182
v 0.00263272 0.02611598 0.00609364
v 0.00106900 0.02631774 0.01213039
v 0.00106900 0.02648502 0.02531494
v 0.00106900 0.02626982 0.00919807
v 0.00160235 0.02617651 0.00585182
v 0.01312565 0.02268788 0.00592154
v 0.01178368 0.02342091 0.00585182
v 0.00646936 0.02571920 0.02794008
v 0.00586528 0.02586631 0.02665038
v 0.00439906 0.02588481 0.00592154
v 0.01145871 0.02363948 0.00879939
v 0.01085272 0.02385720 0.00585182
v 0.00987588 0.02435906 0.00906518
v 0.00858553 0.02479199 0.00606314
v 0.00809997 0.02524173 0.02665038
v 0.00827584 0.02518288 0.02793137
v 0.00560339 0.02564187 0.00585182
v 0.00759722 0.02512404 0.00693456
v 0.00703329 0.02526694 0.00585182
v 0.00626863 0.02548971 0.00680167
v 0.00958913 0.02441370 0.00588668
f 1 2 3
f 1 3 4
f 1 4 5
f 1 5 6
f 1 6 2
f 2 6 7
f 2 7 8
f 2 8 9
f 2 9 3
f 3 9 10
f 3 10 4
f 4 10 11
f 4 11 12
f 4 12 13
f 4 13 14
f 4 14 15
f 4 15 5
f 5 14 29
f 5 29 48
f 5 48 60
f 5 60 62
f 5 62 55
f 5 55 50
f 5 50 43
f 5 43 30
f 5 30 16
f 5 16 6
f 5 15 14
f 6 16 7
f 7 17 8
f 7 16 18
f 7 18 17
f 8 17 19
f 8 19 10
f 8 10 9
f 10 19 20
f 10 20 11
f 11 21 22
f 11 22 23
f 11 23 12
f 11 20 24
f 11 24 21
f 12 23 25
f 12 25 26
f 12 26 27
f 12 27 14
f 12 14 13
f 14 27 28
f 14 28 29
f 16 30 18
f 17 18 30
f 17 30 31
f 17 31 24
f 17 24 19
f 19 24 20
f 21 32 33
f 21 33 34
f 21 34 22
f 21 24 32
f 22 35 23
f 22 34 36
f 22 36 35
f 23 37 25
f 23 35 38
f 23 38 39
f 23 39 40
f 23 40 41
f 23 41 42
f 23 42 37
f 24 31 43
f 24 43 32
f 25 37 44
f 25 44 45
f 25 45 46
f 25 46 26
f 26 46 27
f 27 46 45
f 27 45 28
f 28 47 29
f 28 45 47
f 29 47 48
f 30 43 31
f 32 43 33
f 33 43 49
f 33 49 34
f 34 49 50
f 34 50 36
f 35 36 38
f 36 50 38
f 37 42 51
f 37 51 52
f 37 52 53
f 37 53 44
f 38 50 54
f 38 54 40
f 38 40 39
f 40 54 55
f 40 55 56
f 40 56 41
f 41 56 57
f 41 57 58
f 41 58 59
f 41 59 42
f 42 59 51
f 43 50 49
f 44 47 45
f 44 53 48
f 44 48 47
f 48 53 60
f 50 55 54
f 51 59 58
f 51 58 61
f 51 61 62
f 51 62 63
f 51 63 52
f 52 63 60
f 52 60 53
f 55 62 64
f 55 64 56
f 56 64 57
f 57 64 62
f 57 62 61
f 57 61 58
f 60 63 62

