# https://github.com/mikedh/trimesh
v 0.02532702 0.00975805 0.02946013
v 0.02532702 0.00978424 0.03160124
v 0.02532702 0.01225803 0.03216490
v 0.02582500 0.01393897 0.02823733
v 0.02656511 -0.01026324 0.02840342
v 0.02679044 -0.01003705 0.03196792
v 0.02638657 0.01092471 0.03211636
v 0.02613630 0.01212470 0.03207504
v 0.02607170 0.01374373 0.03176934
v 0.02702952 -0.00799182 0.03205939
v 0.02745273 0.00612950 0.03212358
v 0.02724010 0.00786044 0.03211476
v 0.02694203 0.01404373 0.03064883
v 0.02700154 0.01406040 0.02916326
v 0.02691965 0.01199137 0.02811777
v 0.02821318 -0.00952991 0.02818196
v 0.02853058 -0.01001562 0.03055937
v 0.02851787 -0.00864658 0.03133285
v 0.02851634 -0.00586089 0.03186642
v 0.02720501 0.00965329 0.03203973
v 0.02760838 0.01096518 0.03157637
v 0.02708801 0.01255327 0.03139022
v 0.02826913 -0.00426090 0.03202048
v 0.02849803 0.00000336 0.03206862
v 0.02883985 0.00462713 0.03195388
v 0.02831644 0.01102947 0.03053771
v 0.02762821 0.01254136 0.02903969
v 0.02883883 0.00977234 0.03023963
v 0.02810585 0.01094137 0.02875686
v 0.02835459 0.00961757 0.02845477
v 0.02929154 0.00607712 0.02819400
v 0.02971017 0.00246286 0.02813181
v 0.02921372 -0.00549422 0.02806642
v 0.02891361 -0.00783944 0.02826742
v 0.02906112 -0.00906325 0.02940677
v 0.02943601 -0.00764897 0.03006953
v 0.02976257 -0.00627041 0.03015177
v 0.02999401 -0.00473947 0.03044584
v 0.02913386 -0.00561089 0.03151619
v 0.02921575 -0.00435852 0.03159763
v 0.02913539 -0.00299900 0.03178177
v 0.02864809 0.00646045 0.03178899
v 0.02814756 0.00977710 0.03148731
v 0.02941973 0.00156763 0.03173243
v 0.03014966 0.00360333 0.03063720
v 0.02863435 0.00849854 0.03138500
v 0.02938616 0.00769378 0.03050842
v 0.02912216 0.00856520 0.02904771
v 0.02958352 0.00746045 0.02958410
v 0.02994416 0.00529141 0.02892295
v 0.02985769 0.00406999 0.02824455
v 0.03010134 0.00047716 0.02835006
v 0.02973866 -0.00311805 0.02817474
v 0.02993704 -0.00502518 0.02889246
v 0.02964812 -0.00692755 0.02905132
v 0.03025343 -0.00372757 0.02918532
v 0.03010185 -0.00332757 0.03053851
v 0.02980173 -0.00052997 0.03151780
v 0.03026665 0.00056288 0.03077801
v 0.03052353 0.00212715 0.02981919
v 0.03044163 -0.00137044 0.02889767
v 0.03019035 -0.00183949 0.03059307
f 1 2 3
f 1 3 4
f 1 4 5
f 1 5 2
f 2 5 6
f 2 6 3
f 3 7 8
f 3 8 9
f 3 9 4
f 3 6 10
f 3 10 11
f 3 11 12
f 3 12 7
f 4 9 13
f 4 13 14
f 4 14 15
f 4 15 16
f 4 16 5
f 5 16 17
f 5 17 6
f 6 17 18
f 6 18 19
f 6 19 10
f 7 12 20
f 7 20 8
f 8 20 21
f 8 21 9
f 9 21 22
f 9 22 13
f 10 19 23
f 10 23 24
f 10 24 11
f 11 25 12
f 11 24 25
f 12 25 20
f 13 22 26
f 13 26 14
f 14 27 15
f 14 26 28
f 14 28 27
f 15 27 29
f 15 29 30
f 15 30 31
f 15 31 32
f 15 32 33
f 15 33 16
f 16 33 34
f 16 34 35
f 16 35 17
f 17 35 36
f 17 36 18
f 18 36 37
f 18 37 38
f 18 38 39
f 18 39 19
f 19 39 40
f 19 40 41
f 19 41 23
f 20 25 42
f 20 42 43
f 20 43 21
f 21 43 26
f 21 26 22
f 23 41 24
f 24 41 44
f 24 44 25
f 25 45 46
f 25 46 42
f 25 44 45
f 26 43 46
f 26 46 47
f 26 47 28
f 27 28 48
f 27 48 29
f 28 47 49
f 28 49 48
f 29 48 30
f 30 48 31
f 31 48 50
f 31 50 51
f 31 51 32
f 32 52 53
f 32 53 33
f 32 51 52
f 33 53 54
f 33 54 34
f 34 54 55
f 34 55 35
f 35 55 36
f 36 55 37
f 37 55 56
f 37 56 38
f 38 56 57
f 38 57 58
f 38 58 39
f 39 58 40
f 40 58 41
f 41 58 44
f 42 46 43
f 44 58 45
f 45 49 47
f 45 47 46
f 45 58 59
f 45 59 60
f 45 60 49
f 48 49 50
f 49 60 50
f 50 60 51
f 51 60 61
f 51 61 52
f 52 61 53
f 53 61 54
f 54 61 56
f 54 56 55
f 56 61 62
f 56 62 57
f 57 62 58
f 58 62 59
f 59 62 60
f 60 62 61

