# https://github.com/mikedh/trimesh
v -0.00017259 0.02651151 0.02808016
v -0.00112644 0.02649723 0.02805612
v -0.00213327 0.02644257 0.02808016
v -0.00017259 0.02426384 0.02808016
v -0.00017259 0.02622637 0.00584789
v -0.00021991 0.02650019 0.02531555
v -0.00021991 0.02650757 0.02611608
v -0.00026722 0.02650954 0.02718346
v -0.00080092 0.02650265 0.02691662
v -0.00133367 0.02649083 0.02744790
v -0.00080092 0.02650117 0.02611608
v -0.00293287 0.02635737 0.02808016
v -0.00186642 0.02646079 0.02744790
v -0.00266603 0.02638396 0.02718346
v -0.00977065 0.02221956 0.02808016
v -0.00977065 0.02219838 0.02751041
v -0.00977065 0.02217770 0.02691662
v -0.00983973 0.02148035 0.00352081
v -0.00017259 0.02411610 0.02189945
v -0.00017259 0.02387921 0.00584789
v -0.00093340 0.02375708 0.00352081
v -0.00113401 0.02617466 0.00352081
v -0.00019625 0.02626331 0.00794899
v -0.00080092 0.02641499 0.01945217
v -0.00133367 0.02647999 0.02638293
v -0.00377979 0.02625444 0.02805612
v -0.00483678 0.02608650 0.02806574
v -0.00688546 0.02561225 0.02808016
v -0.00319972 0.02631846 0.02638293
v -0.00346563 0.02629138 0.02718346
v -0.00213327 0.02618599 0.00773263
v -0.00265940 0.02613624 0.00746579
v -0.00957098 0.02470953 0.02808016
v -0.00977065 0.02461646 0.02638293
v -0.00983973 0.02431112 0.00584789
v -0.00983973 0.02180292 0.00584789
v -0.00983973 0.02427960 0.00352081
v -0.00826134 0.02184675 0.00352081
v -0.00207934 0.02612787 0.00352081
v -0.00106777 0.02626281 0.00880001
v -0.00399838 0.02622046 0.02744790
v -0.00559664 0.02592251 0.02803208
v -0.00617670 0.02579200 0.02805612
v -0.00453113 0.02583436 0.00453290
v -0.00481217 0.02577083 0.00364101
v -0.00564868 0.02559797 0.00352081
v -0.00559664 0.02591217 0.02664977
v -0.00772859 0.02535961 0.02808016
v -0.00659117 0.02541279 0.00595848
v -0.00719489 0.02524978 0.00586472
v -0.00312970 0.02611211 0.00986499
v -0.00225250 0.02613231 0.00453290
v -0.00373248 0.02594319 0.00352081
v -0.00850453 0.02510450 0.02807295
v -0.00932590 0.02480507 0.02744790
v -0.00954827 0.02471101 0.02691662
v -0.00963533 0.02453717 0.01625484
v -0.00977065 0.02436283 0.00719894
v -0.00903066 0.02459331 0.00352081
v -0.00642368 0.02541033 0.00352081
v -0.00583226 0.02557827 0.00506418
v -0.00741727 0.02517246 0.00506418
v -0.00805411 0.02497597 0.00533343
v -0.00747877 0.02512371 0.00352081
f 1 2 3
f 1 3 12
f 1 12 28
f 1 28 48
f 1 48 33
f 1 33 15
f 1 15 4
f 1 4 19
f 1 19 20
f 1 20 5
f 1 5 6
f 1 6 7
f 1 7 8
f 1 8 9
f 1 9 2
f 2 10 3
f 2 9 11
f 2 11 10
f 3 10 13
f 3 13 14
f 3 14 12
f 4 15 16
f 4 16 17
f 4 17 18
f 4 18 19
f 5 20 21
f 5 21 22
f 5 22 23
f 5 23 6
f 6 11 7
f 6 23 24
f 6 24 11
f 7 11 8
f 8 11 9
f 10 11 25
f 10 25 13
f 11 24 25
f 12 26 27
f 12 27 28
f 12 14 29
f 12 29 30
f 12 30 26
f 13 25 31
f 13 31 32
f 13 32 14
f 14 32 29
f 15 33 34
f 15 34 35
f 15 35 36
f 15 36 18
f 15 18 16
f 16 18 17
f 18 37 59
f 18 59 64
f 18 64 60
f 18 60 46
f 18 46 53
f 18 53 39
f 18 39 22
f 18 22 21
f 18 21 38
f 18 38 19
f 18 36 35
f 18 35 37
f 19 38 20
f 20 38 21
f 22 39 40
f 22 40 23
f 23 40 24
f 24 40 25
f 25 40 31
f 26 30 41
f 26 41 27
f 27 42 43
f 27 43 28
f 27 41 44
f 27 44 45
f 27 45 46
f 27 46 47
f 27 47 42
f 28 43 49
f 28 49 50
f 28 50 48
f 29 41 30
f 29 32 51
f 29 51 41
f 31 40 39
f 31 39 52
f 31 52 32
f 32 52 53
f 32 53 51
f 33 48 54
f 33 54 55
f 33 55 56
f 33 56 34
f 34 56 57
f 34 57 58
f 34 58 35
f 35 58 37
f 37 58 59
f 39 53 52
f 41 51 53
f 41 53 44
f 42 47 43
f 43 47 49
f 44 53 45
f 45 53 46
f 46 60 49
f 46 49 61
f 46 61 47
f 47 61 49
f 48 50 62
f 48 62 63
f 48 63 54
f 49 60 50
f 50 60 64
f 50 64 62
f 54 63 55
f 55 63 59
f 55 59 57
f 55 57 56
f 57 59 58
f 59 63 64
f 62 64 63

