# https://github.com/mikedh/trimesh
v 0.01122935 0.02847834 0.02987346
v 0.01244059 0.02775887 0.02891275
v 0.01110294 0.02796181 0.02853313
v 0.00546274 0.02634950 0.02946489
v 0.00549794 0.02609300 0.03204784
v 0.01104534 0.02803369 0.03121943
v 0.01222138 0.02776873 0.03085710
v 0.01380064 0.02722965 0.03033914
v 0.01499108 0.02662222 0.02946771
v 0.01406625 0.02695130 0.02900766
v 0.01321822 0.02687097 0.02835458
v 0.00579875 0.02587807 0.02810565
v 0.01199577 0.02691677 0.02816638
v 0.00546274 0.02366326 0.02876838
v 0.00546274 0.02482951 0.03139758
v 0.00666278 0.02634950 0.03215320
v 0.01538629 0.02128003 0.03194771
v 0.01651593 0.02128003 0.03212425
v 0.01758797 0.02128003 0.03219784
v 0.00799723 0.02634950 0.03219583
v 0.00906287 0.02634950 0.03221393
v 0.01023891 0.02635796 0.03219904
v 0.01182137 0.02672369 0.03194731
v 0.01324702 0.02680755 0.03144865
v 0.01547910 0.02578646 0.03129825
v 0.01470787 0.02668493 0.03051528
v 0.01643753 0.02561664 0.03060657
v 0.01834320 0.02440318 0.02975443
v 0.01576711 0.02590626 0.02894573
v 0.01692875 0.02484008 0.02847683
v 0.01765517 0.02402899 0.02823152
v 0.00681319 0.02563566 0.02810565
v 0.01537029 0.02157247 0.02810565
v 0.02046967 0.02158939 0.02822630
v 0.01331262 0.02293110 0.02810565
v 0.01118294 0.02401490 0.02810606
v 0.00915247 0.02487743 0.02810565
v 0.00788203 0.02530728 0.02810565
v 0.01165976 0.02128003 0.02880779
v 0.00546274 0.02395218 0.03031140
v 0.01431906 0.02128003 0.03162036
v 0.02097689 0.02131244 0.03153190
v 0.01865361 0.02143435 0.03218376
v 0.01698795 0.02225601 0.03221272
v 0.01306301 0.02478864 0.03220950
v 0.01146295 0.02585130 0.03219784
v 0.01335262 0.02563425 0.03208082
v 0.01442946 0.02575264 0.03179489
v 0.01650793 0.02480273 0.03161152
v 0.01859921 0.02382675 0.03112292
v 0.02018966 0.02283456 0.03064035
v 0.01962484 0.02350964 0.02992293
v 0.02050808 0.02266896 0.02928232
v 0.01920083 0.02325666 0.02857133
v 0.02090489 0.02211085 0.02882589
v 0.02170332 0.02144140 0.02909653
v 0.01254299 0.02128003 0.03059491
v 0.02180892 0.02138503 0.03033150
v 0.02098489 0.02212424 0.03065523
v 0.01879281 0.02282328 0.03181862
v 0.02000726 0.02179304 0.03178404
v 0.01722476 0.02356249 0.03199074
v 0.01554310 0.02424251 0.03211661
v 0.01625672 0.02318901 0.03220789
f 1 2 3
f 1 3 4
f 1 4 5
f 1 5 6
f 1 6 7
f 1 7 8
f 1 8 9
f 1 9 2
f 2 9 10
f 2 10 11
f 2 11 3
f 3 12 4
f 3 11 13
f 3 13 12
f 4 12 14
f 4 14 40
f 4 40 15
f 4 15 5
f 5 16 6
f 5 15 17
f 5 17 18
f 5 18 19
f 5 19 16
f 6 16 20
f 6 20 21
f 6 21 22
f 6 22 23
f 6 23 24
f 6 24 7
f 7 24 25
f 7 25 26
f 7 26 8
f 8 26 9
f 9 26 27
f 9 27 28
f 9 28 29
f 9 29 10
f 10 29 30
f 10 30 11
f 11 30 31
f 11 31 13
f 12 13 32
f 12 32 38
f 12 38 37
f 12 37 35
f 12 35 33
f 12 33 14
f 13 31 34
f 13 34 33
f 13 33 35
f 13 35 36
f 13 36 37
f 13 37 38
f 13 38 32
f 14 39 40
f 14 33 39
f 15 40 41
f 15 41 17
f 16 19 20
f 17 41 57
f 17 57 39
f 17 39 19
f 17 19 18
f 19 42 43
f 19 43 44
f 19 44 21
f 19 21 20
f 19 39 42
f 21 44 45
f 21 45 22
f 22 45 46
f 22 46 47
f 22 47 23
f 23 47 48
f 23 48 24
f 24 48 25
f 25 48 49
f 25 49 50
f 25 50 27
f 25 27 26
f 27 50 51
f 27 51 52
f 27 52 28
f 28 52 53
f 28 53 29
f 29 53 54
f 29 54 30
f 30 54 31
f 31 54 34
f 33 34 39
f 34 54 55
f 34 55 56
f 34 56 39
f 35 37 36
f 39 57 40
f 39 56 42
f 40 57 41
f 42 56 58
f 42 58 59
f 42 59 50
f 42 50 60
f 42 60 61
f 42 61 43
f 43 61 60
f 43 60 62
f 43 62 63
f 43 63 64
f 43 64 44
f 44 64 45
f 45 64 46
f 46 64 63
f 46 63 47
f 47 63 48
f 48 63 62
f 48 62 49
f 49 62 60
f 49 60 50
f 50 59 51
f 51 59 52
f 52 59 58
f 52 58 53
f 53 58 56
f 53 56 55
f 53 55 54

