# https://github.com/mikedh/trimesh
v -0.02191775 0.00948601 0.00585615
v -0.02427023 0.00967413 0.00604075
v -0.02392059 0.01049532 0.00591913
v -0.02360330 0.01119307 0.00584964
v -0.01760096 0.01606144 0.00584964
v -0.02192394 0.00948601 0.00666620
v -0.02445537 0.00948601 0.01256892
v -0.02430464 0.00967413 0.00773251
v -0.02420966 0.00986624 0.00683777
v -0.02406582 0.01030918 0.00879882
v -0.02395707 0.01059386 0.00959802
v -0.02332731 0.01181817 0.00666620
v -0.02330459 0.01183210 0.00599080
v -0.02294739 0.01251393 0.00584964
v -0.01764776 0.01932925 0.00584964
v -0.01760096 0.01670246 0.02803369
v -0.01760096 0.01658998 0.02531687
v -0.02212491 0.00948601 0.01892118
v -0.02235548 0.00948601 0.02772313
v -0.02462537 0.00961142 0.02648308
v -0.02420484 0.01066055 0.02803369
v -0.02348079 0.01219939 0.02803369
v -0.02334245 0.01182912 0.00773251
v -0.02307540 0.01232183 0.00693115
v -0.02302516 0.01244724 0.00773251
v -0.02287994 0.01272396 0.00826458
v -0.02237819 0.01351727 0.00584964
v -0.01887287 0.01813082 0.00584964
v -0.01831675 0.01868524 0.00591913
v -0.01782946 0.01921777 0.00874019
v -0.01774619 0.01965374 0.02803369
v -0.02461230 0.00969603 0.02802934
v -0.02228115 0.00948601 0.02527778
v -0.01760096 0.01661785 0.02617687
v -0.02463225 0.00962038 0.02723233
v -0.02303824 0.01300166 0.02803369
v -0.02280836 0.01290511 0.00986514
v -0.02270443 0.01306039 0.00906377
v -0.02193151 0.01424688 0.00584964
v -0.02230317 0.01371634 0.00799746
v -0.02191086 0.01439519 0.00906377
v -0.01935603 0.01761621 0.00584964
v -0.01905939 0.01839260 0.02803369
v -0.02270168 0.01359391 0.02803369
v -0.02238783 0.01413141 0.02802066
v -0.02238921 0.01359690 0.00893130
v -0.02134029 0.01515864 0.00584964
v -0.02176770 0.01465597 0.01013008
v -0.01989770 0.01701799 0.00584964
v -0.01983093 0.01754455 0.02802717
v -0.02084543 0.01632721 0.02803369
v -0.02148001 0.01547318 0.02802717
v -0.02197418 0.01475053 0.02769924
v -0.02203131 0.01465000 0.02691525
v -0.02124807 0.01535074 0.00773251
v -0.02086677 0.01582852 0.00584964
v -0.02145042 0.01510290 0.00933089
v -0.02159908 0.01492672 0.01092927
v -0.02038017 0.01644565 0.00584964
v -0.02024458 0.01704288 0.02691525
v -0.02073600 0.01645959 0.02718237
v -0.02094730 0.01619283 0.02718237
v -0.02139811 0.01530496 0.01466028
v -0.02083717 0.01632322 0.02638318
f 1 2 3
f 1 3 4
f 1 4 5
f 1 5 6
f 1 6 18
f 1 18 33
f 1 33 19
f 1 19 7
f 1 7 2
f 2 8 9
f 2 9 3
f 2 7 8
f 3 9 10
f 3 10 11
f 3 11 4
f 4 12 13
f 4 13 14
f 4 14 27
f 4 27 39
f 4 39 47
f 4 47 56
f 4 56 59
f 4 59 49
f 4 49 42
f 4 42 28
f 4 28 15
f 4 15 5
f 4 11 12
f 5 15 16
f 5 16 34
f 5 34 17
f 5 17 18
f 5 18 6
f 7 19 20
f 7 20 8
f 8 10 9
f 8 20 10
f 10 20 21
f 10 21 11
f 11 21 22
f 11 22 23
f 11 23 12
f 12 23 24
f 12 24 13
f 13 24 14
f 14 24 25
f 14 25 26
f 14 26 27
f 15 28 29
f 15 29 30
f 15 30 31
f 15 31 16
f 16 31 43
f 16 43 51
f 16 51 44
f 16 44 36
f 16 36 22
f 16 22 21
f 16 21 32
f 16 32 19
f 16 19 33
f 16 33 34
f 17 34 18
f 18 34 33
f 19 32 35
f 19 35 20
f 20 35 32
f 20 32 21
f 22 36 37
f 22 37 25
f 22 25 23
f 23 25 24
f 25 37 26
f 26 37 38
f 26 38 27
f 27 38 40
f 27 40 41
f 27 41 39
f 28 42 43
f 28 43 29
f 29 43 30
f 30 43 31
f 36 44 37
f 37 44 45
f 37 45 46
f 37 46 38
f 38 46 40
f 39 41 48
f 39 48 47
f 40 46 45
f 40 45 41
f 41 45 48
f 42 49 50
f 42 50 43
f 43 50 51
f 44 51 52
f 44 52 45
f 45 52 53
f 45 53 54
f 45 54 48
f 47 55 56
f 47 48 57
f 47 57 55
f 48 54 58
f 48 58 57
f 49 59 60
f 49 60 50
f 50 60 61
f 50 61 51
f 51 61 62
f 51 62 52
f 52 62 63
f 52 63 53
f 53 63 54
f 54 63 58
f 55 57 63
f 55 63 56
f 56 63 62
f 56 62 64
f 56 64 59
f 57 58 63
f 59 64 60
f 60 64 61
f 61 64 62

