# https://github.com/mikedh/trimesh
v -0.02244080 -0.00775877 0.00584964
v -0.02478064 -0.00775033 0.00597993
v -0.02597631 -0.00147296 0.00584964
v -0.02560176 0.00495464 0.00584964
v -0.02192307 0.00948501 0.00632086
v -0.02212650 0.00948501 0.01891990
v -0.02264990 -0.00775877 0.01572562
v -0.02298647 -0.00775877 0.02786214
v -0.02555811 -0.00471207 0.00612325
v -0.02528003 -0.00746844 0.02786214
v -0.02498144 -0.00759673 0.01304816
v -0.02495307 -0.00744481 0.00913078
v -0.02491509 -0.00742456 0.00718946
v -0.02522983 -0.00623289 0.00629480
v -0.02573403 -0.00399640 0.00826652
v -0.02589424 -0.00299715 0.00909820
v -0.02604091 -0.00186455 0.01013184
v -0.02600686 -0.00146452 0.00733277
v -0.02605838 -0.00079948 0.00879854
v -0.02603437 0.00033480 0.00733277
v -0.02598547 0.00120408 0.00588656
v -0.02586412 0.00322790 0.00588656
v -0.02590952 0.00319583 0.00733277
v -0.02587983 0.00426259 0.01452913
v -0.02554195 0.00551165 0.00798640
v -0.02539178 0.00604166 0.00629480
v -0.02485878 0.00798277 0.00625571
v -0.02445280 0.00923689 0.00696362
v -0.02451304 0.00932635 0.01253135
v -0.02235568 0.00948501 0.02770145
v -0.02228322 0.00948501 0.02531497
v -0.02278174 -0.00775877 0.02158433
v -0.02292929 -0.00775877 0.02664827
v -0.02422187 0.00143026 0.02803369
v -0.02565283 -0.00452978 0.00879854
v -0.02625482 0.00266751 0.02803369
v -0.02627315 -0.00232029 0.02786214
v -0.02593527 -0.00469519 0.02748864
v -0.02555505 -0.00644725 0.02728669
v -0.02578249 -0.00399640 0.01066386
v -0.02604484 -0.00266463 0.01479622
v -0.02612560 -0.00218357 0.01679400
v -0.02610639 -0.00182236 0.01413826
v -0.02633688 -0.00106617 0.02624871
v -0.02607278 0.00053398 0.00906346
v -0.02638229 -0.00042138 0.02781219
v -0.02617755 0.00053398 0.01519578
v -0.02612124 0.00110618 0.01212528
v -0.02602825 0.00186237 0.00919809
v -0.02637050 0.00106061 0.02790557
v -0.02617100 0.00327347 0.02538663
v -0.02593658 0.00452760 0.02158433
v -0.02582919 0.00479597 0.01732168
v -0.02550921 0.00581548 0.00993206
v -0.02540051 0.00612774 0.00773450
v -0.02530273 0.00679278 0.01133051
v -0.02521280 0.00724683 0.01333046
v -0.02516479 0.00802328 0.02638118
v -0.02476885 0.00923520 0.02720417
v -0.02562970 0.00639443 0.02803369
v -0.02287385 -0.00775877 0.02507827
v -0.02595797 0.00482129 0.02803369
v -0.02615834 -0.00324696 0.02618140
v -0.02598242 0.00452760 0.02531497
f 1 2 3
f 1 3 4
f 1 4 5
f 1 5 6
f 1 6 7
f 1 7 32
f 1 32 61
f 1 61 33
f 1 33 8
f 1 8 2
f 2 9 3
f 2 8 10
f 2 10 11
f 2 11 12
f 2 12 13
f 2 13 14
f 2 14 9
f 3 9 15
f 3 15 16
f 3 16 17
f 3 17 18
f 3 18 19
f 3 19 20
f 3 20 21
f 3 21 4
f 4 21 22
f 4 22 23
f 4 23 24
f 4 24 25
f 4 25 26
f 4 26 27
f 4 27 5
f 5 27 28
f 5 28 29
f 5 29 30
f 5 30 31
f 5 31 6
f 6 31 32
f 6 32 7
f 8 33 30
f 8 30 34
f 8 34 10
f 9 14 35
f 9 35 15
f 10 34 36
f 10 36 37
f 10 37 38
f 10 38 39
f 10 39 11
f 11 39 12
f 12 39 14
f 12 14 13
f 14 39 35
f 15 35 40
f 15 40 16
f 16 40 41
f 16 41 17
f 17 19 18
f 17 41 42
f 17 42 43
f 17 43 44
f 17 44 19
f 19 45 20
f 19 44 46
f 19 46 47
f 19 47 45
f 20 45 21
f 21 45 48
f 21 48 49
f 21 49 23
f 21 23 22
f 23 49 50
f 23 50 36
f 23 36 51
f 23 51 24
f 24 51 52
f 24 52 53
f 24 53 25
f 25 54 55
f 25 55 26
f 25 53 54
f 26 55 56
f 26 56 27
f 27 56 57
f 27 57 58
f 27 58 29
f 27 29 28
f 29 58 59
f 29 59 30
f 30 59 60
f 30 60 34
f 30 33 61
f 30 61 31
f 31 61 32
f 34 60 62
f 34 62 36
f 35 39 38
f 35 38 40
f 36 50 37
f 36 62 51
f 37 50 46
f 37 46 44
f 37 44 42
f 37 42 63
f 37 63 38
f 38 63 40
f 40 63 41
f 41 63 42
f 42 44 43
f 45 47 48
f 46 50 47
f 47 50 48
f 48 50 49
f 51 62 64
f 51 64 52
f 52 64 62
f 52 62 53
f 53 62 60
f 53 60 54
f 54 56 55
f 54 60 56
f 56 60 57
f 57 60 58
f 58 60 59

