# https://github.com/mikedh/trimesh
v -0.01412662 -0.02425318 0.03202760
v -0.01386737 -0.02511092 0.03195001
v -0.01305926 -0.02499411 0.03201508
v -0.01188484 -0.02531784 0.03201758
v -0.01252673 -0.02478551 0.03201633
v -0.01359248 -0.02425235 0.03202009
v -0.01405110 -0.02353145 0.03199423
v -0.01412662 -0.02265537 0.03186910
v -0.01412731 -0.02210385 0.03170935
v -0.01412731 -0.02695905 0.03013938
v -0.01409461 -0.02659192 0.03102280
v -0.01404650 -0.02603039 0.03154084
v -0.01305926 -0.02585100 0.03186076
v -0.01245121 -0.02573085 0.03196378
v -0.01359248 -0.02585100 0.03176023
v -0.01177594 -0.02459694 0.03197671
v -0.01188484 -0.02611800 0.03192290
v -0.01279173 -0.02398452 0.03198213
v -0.01188484 -0.02372086 0.03182822
v -0.01188484 -0.02318436 0.03165930
v -0.01409646 -0.02128783 0.03131310
v -0.01412800 -0.01983603 0.02961676
v -0.01412800 -0.01959657 0.02785827
v -0.01412662 -0.02585100 0.02786244
v -0.01409576 -0.02655521 0.02823240
v -0.01397121 -0.02711174 0.02896149
v -0.01392770 -0.02715679 0.02950956
v -0.01305926 -0.02751390 0.03011644
v -0.01358258 -0.02718850 0.03036086
v -0.01306754 -0.02725024 0.03088474
v -0.01359248 -0.02682805 0.03109746
v -0.01351581 -0.02643173 0.03147077
v -0.01276824 -0.02657691 0.03160007
v -0.01177594 -0.02107006 0.02786994
v -0.01177594 -0.02270710 0.03138985
v -0.01188023 -0.02729613 0.03135815
v -0.01188484 -0.02802871 0.03011644
v -0.01183050 -0.02702663 0.02786285
v -0.01401841 -0.02066206 0.03079590
v -0.01390352 -0.02019815 0.03008641
v -0.01177594 -0.02153898 0.03013188
v -0.01177594 -0.02131203 0.02957880
v -0.01332264 -0.02025405 0.02932354
v -0.01412800 -0.01967166 0.02887390
v -0.01182060 -0.02354313 0.02776650
v -0.01398249 -0.02231661 0.02776650
v -0.01305926 -0.02638416 0.02784116
v -0.01359248 -0.02638416 0.02793334
v -0.01359248 -0.02676547 0.02814064
v -0.01338803 -0.02714344 0.02845555
v -0.01247884 -0.02768328 0.02859528
v -0.01263148 -0.02776588 0.02905117
v -0.01264461 -0.02777423 0.02958422
v -0.01188484 -0.02811966 0.02958422
v -0.01245743 -0.02774419 0.03030539
v -0.01202989 -0.02775587 0.03083511
v -0.01177594 -0.02115684 0.02885013
v -0.01177594 -0.02207798 0.03084762
v -0.01188484 -0.02808962 0.02899903
v -0.01193388 -0.02760568 0.02820863
v -0.01269940 -0.02700911 0.02802969
v -0.01252673 -0.02638416 0.02782406
v -0.01240839 -0.02325027 0.02776650
v -0.01303462 -0.02290568 0.02776650
f 1 2 3
f 1 3 4
f 1 4 5
f 1 5 6
f 1 6 7
f 1 7 8
f 1 8 9
f 1 9 10
f 1 10 11
f 1 11 12
f 1 12 2
f 2 13 14
f 2 14 3
f 2 12 15
f 2 15 13
f 3 14 4
f 4 16 5
f 4 14 17
f 4 17 16
f 5 16 18
f 5 18 6
f 6 18 7
f 7 18 8
f 8 18 19
f 8 19 9
f 9 19 20
f 9 20 21
f 9 21 22
f 9 22 10
f 10 22 23
f 10 23 24
f 10 24 25
f 10 25 26
f 10 26 27
f 10 27 28
f 10 28 29
f 10 29 11
f 11 29 30
f 11 30 31
f 11 31 12
f 12 31 32
f 12 32 33
f 12 33 15
f 13 15 33
f 13 33 17
f 13 17 14
f 16 34 57
f 16 57 42
f 16 42 41
f 16 41 58
f 16 58 35
f 16 35 19
f 16 19 18
f 16 17 36
f 16 36 37
f 16 37 38
f 16 38 34
f 17 33 36
f 19 35 20
f 20 35 21
f 21 35 39
f 21 39 22
f 22 39 40
f 22 40 41
f 22 41 42
f 22 42 43
f 22 43 44
f 22 44 23
f 23 44 34
f 23 34 45
f 23 45 46
f 23 46 24
f 24 47 48
f 24 48 25
f 24 46 47
f 25 49 50
f 25 50 26
f 25 48 49
f 26 50 51
f 26 51 52
f 26 52 27
f 27 52 53
f 27 53 28
f 28 53 54
f 28 54 37
f 28 37 55
f 28 55 29
f 29 55 30
f 30 55 56
f 30 56 31
f 31 56 36
f 31 36 32
f 32 36 33
f 34 44 57
f 34 38 45
f 35 58 39
f 36 56 37
f 37 56 55
f 37 54 38
f 38 54 59
f 38 59 60
f 38 60 61
f 38 61 48
f 38 48 47
f 38 47 62
f 38 62 45
f 39 58 40
f 40 58 41
f 42 57 43
f 43 57 44
f 45 63 64
f 45 64 46
f 45 62 63
f 46 64 62
f 46 62 47
f 48 61 49
f 49 61 60
f 49 60 50
f 50 60 51
f 51 59 52
f 51 60 59
f 52 59 54
f 52 54 53
f 62 64 63

