# https://github.com/mikedh/trimesh
v 0.00491887 0.01875269 -0.00264787
v 0.00476823 0.02262852 0.00308780
v 0.00487018 0.01934994 -0.00149480
v -0.00093269 0.01968569 -0.00242270
v -0.00093269 0.01904735 -0.00373660
v 0.00491887 0.01831888 -0.00381084
v 0.00491887 0.02262852 -0.02150034
v -0.00093269 0.02257949 0.00139036
v -0.00093269 0.02194581 0.00083609
v -0.00093269 0.02133595 0.00018285
v 0.00306190 0.02092689 0.00059855
v 0.00346457 0.02026613 -0.00028481
v -0.00093269 0.02262852 -0.02104258
v -0.00093269 0.02023718 -0.00142304
v -0.00093269 0.01849119 -0.00530785
v -0.00093269 0.01821054 -0.00651783
v 0.00491887 0.01799060 -0.00531527
v 0.00482149 0.01898524 -0.01614821
v 0.00472412 0.02016854 -0.01841476
v 0.00346457 0.02262852 -0.02204224
v 0.00491887 0.01789908 -0.01019727
v -0.00093269 0.02075878 -0.00060648
v 0.00161047 0.02262852 -0.02195563
v -0.00093269 0.02193320 -0.02026809
v -0.00093269 0.01801582 -0.00802969
v 0.00491887 0.01785892 -0.00688899
v 0.00482149 0.01848279 -0.01448046
v 0.00319765 0.01858038 -0.01487389
v 0.00319765 0.01885216 -0.01572261
v 0.00373091 0.01912020 -0.01649215
v 0.00472412 0.01969970 -0.01763038
v 0.00373091 0.02001724 -0.01820196
v 0.00293131 0.02059348 -0.01910760
v 0.00266496 0.02262852 -0.02218823
v 0.00333111 0.01790935 -0.01039275
v 0.00266496 0.01794624 -0.01119198
v 0.00373091 0.01794951 -0.01119198
v 0.00482149 0.01799481 -0.01161015
v -0.00093269 0.02057013 -0.01860777
v -0.00093269 0.01802282 -0.01107568
v -0.00089890 0.01796305 -0.00992509
v -0.00088229 0.01796165 -0.00909864
v 0.00000037 0.01793970 -0.00972466
v 0.00106690 0.01792056 -0.00985828
v 0.00477281 0.01818579 -0.01309480
v 0.00333111 0.01832355 -0.01385691
v 0.00213228 0.01868171 -0.01511638
v 0.00093344 0.01825491 -0.01332492
v -0.00091551 0.01845383 -0.01388908
v -0.00093269 0.01909918 -0.01591067
v 0.00178116 0.01965767 -0.01749923
v 0.00373091 0.01960631 -0.01748191
v 0.00273141 0.01995840 -0.01808072
v 0.00186650 0.02135417 -0.02020128
v 0.00159959 0.01792663 -0.01052637
v 0.00186650 0.01797613 -0.01145674
v 0.00337922 0.01806952 -0.01236980
v -0.00093269 0.01979543 -0.01733592
v -0.00063942 0.01812276 -0.01221886
v 0.00026672 0.01806812 -0.01199121
v -0.00093269 0.01827966 -0.01305768
v 0.00232301 0.01811061 -0.01269642
v -0.00091551 0.01876390 -0.01494318
v 0.00000037 0.01823296 -0.01305768
f 1 2 3
f 1 3 4
f 1 4 5
f 1 5 6
f 1 6 17
f 1 17 26
f 1 26 21
f 1 21 7
f 1 7 2
f 2 8 9
f 2 9 10
f 2 10 11
f 2 11 12
f 2 12 3
f 2 7 20
f 2 20 34
f 2 34 23
f 2 23 13
f 2 13 8
f 3 12 14
f 3 14 4
f 4 14 22
f 4 22 10
f 4 10 9
f 4 9 8
f 4 8 13
f 4 13 24
f 4 24 39
f 4 39 58
f 4 58 50
f 4 50 61
f 4 61 40
f 4 40 25
f 4 25 16
f 4 16 15
f 4 15 5
f 5 15 6
f 6 15 16
f 6 16 17
f 7 18 19
f 7 19 20
f 7 21 18
f 10 22 11
f 11 22 12
f 12 22 14
f 13 23 24
f 16 25 17
f 17 25 26
f 18 27 28
f 18 28 29
f 18 29 30
f 18 30 31
f 18 31 19
f 18 21 27
f 19 31 32
f 19 32 33
f 19 33 34
f 19 34 20
f 21 26 35
f 21 35 36
f 21 36 37
f 21 37 38
f 21 38 27
f 23 34 39
f 23 39 24
f 25 40 41
f 25 41 42
f 25 42 26
f 26 42 43
f 26 43 44
f 26 44 35
f 27 45 46
f 27 46 28
f 27 38 45
f 28 47 29
f 28 46 48
f 28 48 49
f 28 49 47
f 29 50 30
f 29 47 50
f 30 50 51
f 30 51 52
f 30 52 31
f 31 52 32
f 32 52 53
f 32 53 33
f 33 54 34
f 33 53 54
f 34 54 39
f 35 44 55
f 35 55 36
f 36 55 56
f 36 56 57
f 36 57 38
f 36 38 37
f 38 57 45
f 39 51 58
f 39 54 51
f 40 59 60
f 40 60 56
f 40 56 55
f 40 55 41
f 40 61 59
f 41 44 43
f 41 43 42
f 41 55 44
f 45 57 62
f 45 62 46
f 46 62 48
f 47 49 63
f 47 63 50
f 48 62 64
f 48 64 49
f 49 64 61
f 49 61 50
f 49 50 63
f 50 58 51
f 51 54 53
f 51 53 52
f 56 60 62
f 56 62 57
f 59 61 64
f 59 64 62
f 59 62 60

