# https://github.com/mikedh/trimesh
v -0.00930702 -0.02230825 0.02793291
v -0.00529869 -0.02353283 0.02776692
v -0.00904961 -0.02472841 0.02776692
v -0.00930702 -0.02653361 0.02843461
v -0.00930702 -0.02236979 0.02883713
v 0.01477408 -0.02307082 0.03193450
v 0.01929158 -0.02331476 0.02853835
v 0.01262706 -0.02312880 0.02777563
v -0.00016735 -0.02410542 0.02776775
v -0.00543447 -0.02576792 0.02776692
v -0.00756169 -0.02523233 0.02776692
v -0.00904961 -0.02645914 0.03200546
v -0.00930702 -0.02517168 0.03188179
v -0.00643019 -0.02554851 0.02776692
v -0.00419265 -0.02599134 0.02776775
v -0.00313470 -0.02614341 0.02776775
v -0.00181085 -0.02626827 0.02776775
v -0.00050680 -0.02632580 0.02776775
v 0.00613509 -0.02686317 0.02898569
v -0.00016735 -0.02686317 0.02944258
v -0.00016735 -0.02686317 0.03185607
v -0.00930702 -0.02262354 0.02987291
v 0.01584617 -0.02326303 0.03194114
v 0.01871735 -0.02328844 0.03118339
v 0.01959143 -0.02329781 0.02993847
v -0.00930702 -0.02320327 0.03082278
v -0.00930702 -0.02396985 0.03145022
v 0.01887010 -0.02394533 0.02897076
v 0.01736238 -0.02452060 0.02819849
v 0.01810068 -0.02348377 0.02801383
v 0.01705404 -0.02398769 0.02786527
v 0.01173318 -0.02359258 0.02777563
v 0.00162890 -0.02686317 0.03188885
v 0.00613226 -0.02686317 0.03196147
v 0.01237813 -0.02516901 0.03197018
v 0.01065260 -0.02409204 0.02777563
v 0.00907133 -0.02471637 0.02777563
v 0.00775879 -0.02516499 0.02777563
v 0.00625390 -0.02559355 0.02777563
v 0.00527515 -0.02579824 0.02777563
v 0.00421720 -0.02598108 0.02777563
v 0.00315360 -0.02613181 0.02777563
v 0.00208150 -0.02624553 0.02777563
v 0.00101506 -0.02631331 0.02777563
v 0.01645435 -0.02562343 0.02926995
v 0.01509655 -0.02557259 0.02800636
v 0.01379533 -0.02470656 0.03194653
v 0.01545580 -0.02425392 0.03186229
v 0.01696352 -0.02341064 0.03180295
v 0.01661559 -0.02425348 0.03159007
v 0.01533700 -0.02558998 0.03124730
v 0.01755190 -0.02449295 0.03087133
v 0.01884747 -0.02392927 0.02988411
v 0.01733409 -0.02506020 0.02958492
v 0.01722660 -0.02507848 0.02887697
v 0.01611773 -0.02508472 0.02805823
v 0.01621391 -0.02561228 0.03040241
v 0.01349265 -0.02558106 0.03181208
v 0.01143616 -0.02573804 0.03194777
v 0.01573868 -0.02481626 0.03159629
v 0.01432996 -0.02542052 0.03170751
v 0.01660427 -0.02505529 0.03093565
v 0.01706536 -0.02506020 0.03040324
f 1 2 3
f 1 3 4
f 1 4 13
f 1 13 27
f 1 27 26
f 1 26 22
f 1 22 5
f 1 5 6
f 1 6 7
f 1 7 8
f 1 8 2
f 2 9 10
f 2 10 14
f 2 14 11
f 2 11 3
f 2 8 9
f 3 11 4
f 4 12 13
f 4 11 14
f 4 14 10
f 4 10 15
f 4 15 16
f 4 16 17
f 4 17 18
f 4 18 19
f 4 19 20
f 4 20 21
f 4 21 12
f 5 22 6
f 6 23 24
f 6 24 25
f 6 25 7
f 6 22 26
f 6 26 27
f 6 27 13
f 6 13 12
f 6 12 23
f 7 25 28
f 7 28 29
f 7 29 30
f 7 30 8
f 8 30 31
f 8 31 32
f 8 32 18
f 8 18 9
f 9 18 10
f 10 18 17
f 10 17 16
f 10 16 15
f 12 21 33
f 12 33 34
f 12 34 35
f 12 35 23
f 18 32 36
f 18 36 37
f 18 37 38
f 18 38 39
f 18 39 40
f 18 40 41
f 18 41 42
f 18 42 43
f 18 43 44
f 18 44 19
f 19 45 34
f 19 34 33
f 19 33 21
f 19 21 20
f 19 44 43
f 19 43 46
f 19 46 45
f 23 35 47
f 23 47 48
f 23 48 49
f 23 49 24
f 24 49 50
f 24 50 51
f 24 51 52
f 24 52 25
f 25 52 53
f 25 53 28
f 28 53 54
f 28 54 55
f 28 55 29
f 29 55 56
f 29 56 31
f 29 31 30
f 31 56 46
f 31 46 39
f 31 39 38
f 31 38 37
f 31 37 36
f 31 36 32
f 34 45 57
f 34 57 51
f 34 51 58
f 34 58 59
f 34 59 35
f 35 59 47
f 39 46 40
f 40 46 41
f 41 46 42
f 42 46 43
f 45 46 55
f 45 55 54
f 45 54 57
f 46 56 55
f 47 59 58
f 47 58 48
f 48 60 50
f 48 50 49
f 48 58 61
f 48 61 60
f 50 60 51
f 51 57 62
f 51 62 52
f 51 60 61
f 51 61 58
f 52 62 57
f 52 57 63
f 52 63 53
f 53 63 54
f 54 63 57

