# https://github.com/mikedh/trimesh
v 0.02029489 0.02127853 0.02817368
v 0.02045857 0.02115901 0.03191009
v 0.02206271 0.02114209 0.02995217
v 0.02136927 0.02087598 0.02832411
v 0.02189307 0.01985099 0.02816592
v 0.01927705 0.01785176 0.02803430
v 0.01576820 0.02127853 0.02810583
v 0.01540660 0.02127853 0.03195219
v 0.01665211 0.02125034 0.03213204
v 0.01812529 0.02116577 0.03220930
v 0.01951961 0.02054785 0.03219744
v 0.02077553 0.02028174 0.03208340
v 0.02273680 0.01859485 0.03189170
v 0.02273829 0.01946874 0.03147477
v 0.02166242 0.02066287 0.03144534
v 0.02372190 0.01856891 0.03114817
v 0.02362964 0.01931200 0.02978417
v 0.02299424 0.02011598 0.02958429
v 0.02247044 0.02050838 0.02883913
v 0.02291388 0.01918346 0.02825298
v 0.02594209 0.01446333 0.02818676
v 0.02277103 0.01346315 0.02803348
v 0.02138713 0.01554582 0.02803348
v 0.01797648 0.01611864 0.02803348
v 0.01616254 0.01792731 0.02803430
v 0.01157632 0.02127853 0.02831225
v 0.01432329 0.02127853 0.03162028
v 0.02493170 0.00978605 0.03203312
v 0.02532306 0.01066219 0.03214676
v 0.02532008 0.01173003 0.03217047
v 0.02265198 0.01679069 0.03219581
v 0.02171896 0.01852606 0.03216842
v 0.02291834 0.01705680 0.03215820
v 0.02354780 0.01753265 0.03192317
v 0.02442724 0.01729360 0.03144493
v 0.02531264 0.01678054 0.03061966
v 0.02450611 0.01817425 0.02992723
v 0.02400017 0.01867829 0.02899201
v 0.02321893 0.01963337 0.02889186
v 0.02459390 0.01769728 0.02869770
v 0.02497038 0.01672867 0.02845368
v 0.02589596 0.01545900 0.02863230
v 0.02677689 0.01453211 0.02938645
v 0.02457902 0.00975899 0.02803348
v 0.02390493 0.01131620 0.02803348
v 0.02343322 0.01224872 0.02803348
v 0.02204932 0.00975899 0.02822519
v 0.02215199 0.00975899 0.02931370
v 0.01174596 0.02127853 0.02930348
v 0.01254356 0.02127853 0.03059431
v 0.02341685 0.00975899 0.03139751
v 0.02532306 0.00975899 0.03109218
v 0.02662362 0.01445882 0.03088657
v 0.02532157 0.01319816 0.03212836
v 0.02318471 0.01595514 0.03218927
v 0.02460730 0.01483995 0.03208585
v 0.02400463 0.01651668 0.03199756
v 0.02569954 0.01455466 0.03173964
v 0.02593167 0.01541953 0.03107869
v 0.02590935 0.01610286 0.02978662
v 0.02508794 0.01737817 0.02985079
v 0.02473676 0.01770292 0.02903492
v 0.02532306 0.00976124 0.02946044
v 0.02256716 0.00975899 0.03048150
f 1 2 3
f 1 3 4
f 1 4 5
f 1 5 6
f 1 6 7
f 1 7 26
f 1 26 49
f 1 49 50
f 1 50 27
f 1 27 8
f 1 8 9
f 1 9 2
f 2 9 10
f 2 10 11
f 2 11 12
f 2 12 13
f 2 13 14
f 2 14 15
f 2 15 3
f 3 15 14
f 3 14 16
f 3 16 17
f 3 17 18
f 3 18 19
f 3 19 4
f 4 19 20
f 4 20 5
f 5 20 21
f 5 21 22
f 5 22 23
f 5 23 6
f 6 24 25
f 6 25 7
f 6 23 24
f 7 25 26
f 8 27 28
f 8 28 9
f 9 28 29
f 9 29 10
f 10 29 30
f 10 30 31
f 10 31 11
f 11 31 32
f 11 32 12
f 12 32 33
f 12 33 34
f 12 34 13
f 13 34 14
f 14 34 35
f 14 35 16
f 16 35 36
f 16 36 37
f 16 37 17
f 17 37 38
f 17 38 18
f 18 38 39
f 18 39 19
f 19 39 40
f 19 40 20
f 20 40 41
f 20 41 21
f 21 41 42
f 21 42 43
f 21 43 44
f 21 44 45
f 21 45 46
f 21 46 22
f 22 46 45
f 22 45 44
f 22 44 24
f 22 24 23
f 24 47 25
f 24 44 47
f 25 47 26
f 26 47 48
f 26 48 49
f 27 50 51
f 27 51 28
f 28 51 52
f 28 52 29
f 29 52 53
f 29 53 30
f 30 53 54
f 30 54 55
f 30 55 31
f 31 33 32
f 31 55 33
f 33 55 54
f 33 54 56
f 33 56 57
f 33 57 34
f 34 57 58
f 34 58 35
f 35 58 59
f 35 59 36
f 36 59 53
f 36 53 60
f 36 60 61
f 36 61 37
f 37 62 38
f 37 61 62
f 38 62 40
f 38 40 39
f 40 62 43
f 40 43 42
f 40 42 41
f 43 62 60
f 43 60 53
f 43 53 52
f 43 52 63
f 43 63 44
f 44 63 52
f 44 52 51
f 44 51 64
f 44 64 48
f 44 48 47
f 48 64 49
f 49 64 50
f 50 64 51
f 53 59 58
f 53 58 54
f 54 58 57
f 54 57 56
f 60 62 61

