# https://github.com/mikedh/trimesh
v 0.02359154 0.00006319 0.00588873
v 0.02154437 0.00985700 0.00598862
v 0.02419148 0.00985700 0.00584964
v 0.02599466 0.00035750 0.00584964
v 0.02638984 0.00006319 0.02584839
v 0.02375229 0.00006319 0.01359592
v 0.02192759 0.00985700 0.02662801
v 0.02181516 0.00985700 0.02087748
v 0.02155107 0.00985700 0.00666618
v 0.02437663 0.00964226 0.01106378
v 0.02436994 0.00963267 0.01039708
v 0.02449289 0.00909678 0.00599080
v 0.02467565 0.00852732 0.00584964
v 0.02197687 0.00985700 0.02774859
v 0.02455126 0.00979565 0.02691684
v 0.02601045 0.00147436 0.00584964
v 0.02643194 0.00006319 0.02803307
v 0.02397237 0.00006319 0.02389825
v 0.02409197 0.00006319 0.02790495
v 0.02452255 0.00960104 0.01963963
v 0.02502777 0.00844871 0.02584839
v 0.02481965 0.00826081 0.00879874
v 0.02478808 0.00826081 0.00693112
v 0.02498949 0.00753222 0.00599080
v 0.02523397 0.00653712 0.00584964
v 0.02465508 0.00956461 0.02803307
v 0.02598126 0.00239948 0.00584964
v 0.02642141 0.00105542 0.02803307
v 0.02499189 0.00864141 0.02802004
v 0.02522296 0.00795499 0.02803307
v 0.02498519 0.00770862 0.00854900
v 0.02556216 0.00682759 0.02744890
v 0.02527655 0.00666174 0.00933080
v 0.02540189 0.00579990 0.00584964
v 0.02540524 0.00612968 0.00933080
v 0.02576789 0.00387392 0.00584964
v 0.02587792 0.00316834 0.00599080
v 0.02592672 0.00293346 0.00666618
v 0.02620277 0.00346648 0.02531634
v 0.02626114 0.00293346 0.02531634
v 0.02629654 0.00239948 0.02531634
v 0.02636544 0.00186646 0.02803307
v 0.02572483 0.00612968 0.02803307
v 0.02553346 0.00694168 0.02802656
v 0.02562340 0.00656204 0.02744890
v 0.02561958 0.00652082 0.02638262
v 0.02541529 0.00612968 0.00986502
v 0.02556551 0.00502337 0.00584964
v 0.02550667 0.00559666 0.00879874
v 0.02567842 0.00440598 0.00584964
v 0.02588510 0.00399855 0.01306170
v 0.02584874 0.00346648 0.00666618
v 0.02611809 0.00399471 0.02531634
v 0.02612144 0.00414139 0.02802004
v 0.02624248 0.00318751 0.02803307
v 0.02631807 0.00239948 0.02803307
v 0.02590328 0.00531097 0.02801353
v 0.02572052 0.00612968 0.02744890
v 0.02566837 0.00633579 0.02691684
v 0.02565881 0.00631566 0.02584839
v 0.02581190 0.00559666 0.02531634
v 0.02591668 0.00506268 0.02478211
v 0.02579276 0.00453157 0.01306170
v 0.02602384 0.00453157 0.02531634
f 1 2 3
f 1 3 4
f 1 4 5
f 1 5 17
f 1 17 19
f 1 19 18
f 1 18 6
f 1 6 7
f 1 7 8
f 1 8 9
f 1 9 2
f 2 9 8
f 2 8 7
f 2 7 14
f 2 14 3
f 3 10 11
f 3 11 12
f 3 12 13
f 3 13 25
f 3 25 34
f 3 34 48
f 3 48 50
f 3 50 36
f 3 36 27
f 3 27 16
f 3 16 4
f 3 14 15
f 3 15 10
f 4 16 5
f 5 16 17
f 6 18 7
f 7 18 19
f 7 19 14
f 10 20 11
f 10 15 20
f 11 20 21
f 11 21 12
f 12 22 23
f 12 23 13
f 12 21 22
f 13 23 24
f 13 24 25
f 14 19 26
f 14 26 15
f 15 26 20
f 16 27 28
f 16 28 17
f 17 28 42
f 17 42 56
f 17 56 55
f 17 55 43
f 17 43 30
f 17 30 26
f 17 26 19
f 20 26 29
f 20 29 21
f 21 29 30
f 21 30 22
f 22 31 23
f 22 30 32
f 22 32 31
f 23 31 24
f 24 31 32
f 24 32 33
f 24 33 25
f 25 33 35
f 25 35 34
f 26 30 29
f 27 36 37
f 27 37 38
f 27 38 39
f 27 39 40
f 27 40 41
f 27 41 28
f 28 41 40
f 28 40 42
f 30 43 44
f 30 44 32
f 32 44 43
f 32 43 45
f 32 45 46
f 32 46 33
f 33 47 35
f 33 46 47
f 34 35 49
f 34 49 48
f 35 47 49
f 36 50 51
f 36 51 52
f 36 52 37
f 37 52 38
f 38 52 39
f 39 53 54
f 39 54 55
f 39 55 40
f 39 52 51
f 39 51 53
f 40 55 56
f 40 56 42
f 43 55 54
f 43 54 57
f 43 57 58
f 43 58 45
f 45 58 59
f 45 59 46
f 46 59 60
f 46 60 47
f 47 60 61
f 47 61 62
f 47 62 49
f 48 49 62
f 48 62 63
f 48 63 50
f 50 63 53
f 50 53 51
f 53 64 54
f 53 63 64
f 54 64 57
f 57 64 62
f 57 62 61
f 57 61 58
f 58 61 59
f 59 61 60
f 62 64 63

