# https://github.com/mikedh/trimesh
v 0.01370483 -0.01411076 -0.02647548
v 0.01345310 -0.01752166 -0.02647548
v 0.01370483 -0.01501894 -0.03152423
v 0.01370483 -0.01412627 -0.02878473
v -0.00012159 -0.01950863 -0.02647548
v 0.01343280 -0.01746659 -0.03038232
v 0.01257338 -0.01817855 -0.02647548
v 0.01370483 -0.01440935 -0.03091864
v 0.01340031 -0.01695085 -0.03151503
v 0.01335295 -0.01612565 -0.03175910
v 0.01252601 -0.01679186 -0.03186680
v 0.00047933 -0.02038657 -0.03200426
v 0.01370483 -0.01418986 -0.02990391
v -0.00012159 -0.01955672 -0.02971666
v -0.00012159 -0.01971183 -0.03093325
v -0.00002414 -0.02201756 -0.03036500
v 0.00005706 -0.02195474 -0.02647548
v 0.01251925 -0.01811651 -0.03038232
v 0.01218901 -0.01815761 -0.03111617
v 0.01164630 -0.01875479 -0.02647548
v 0.01178028 -0.01858960 -0.03038232
v 0.01259233 -0.01747978 -0.03160000
v 0.01017514 -0.01848567 -0.03177859
v 0.00879467 -0.01892154 -0.03188250
v 0.00270433 -0.02084337 -0.03198316
v 0.00028037 -0.02134283 -0.03189981
v 0.00007330 -0.02200283 -0.02817969
v 0.00043737 -0.02185004 -0.03117408
v 0.00126566 -0.02195241 -0.03044835
v 0.00106670 -0.02203385 -0.02825221
v 0.00133333 -0.02200283 -0.02745233
v 0.00106670 -0.02196017 -0.02647548
v 0.01056763 -0.01925192 -0.03050788
v 0.00939152 -0.01978396 -0.03084828
v 0.01145005 -0.01842053 -0.03139110
v 0.01055139 -0.01937446 -0.02647548
v 0.00960265 -0.01981498 -0.02984925
v 0.00960806 -0.01912861 -0.03161840
v 0.00727885 -0.02014537 -0.03159296
v 0.00603101 -0.02080226 -0.03137215
v 0.00266643 -0.02158713 -0.03128015
v 0.00319968 -0.02170967 -0.03038286
v 0.00209935 -0.02188416 -0.03022754
v 0.00207364 -0.02191053 -0.02931672
v 0.00186657 -0.02194233 -0.02851901
v 0.00313877 -0.02172750 -0.02647548
v 0.00189905 -0.02188416 -0.02647548
v 0.00861060 -0.02023145 -0.03037204
v 0.00772683 -0.02054866 -0.03064913
v 0.00791224 -0.02033460 -0.03109344
v 0.00960536 -0.01983980 -0.02647548
v 0.00846714 -0.02033460 -0.02647548
v 0.00851722 -0.01971416 -0.03153235
v 0.00690937 -0.02071230 -0.03103012
v 0.00404014 -0.02142969 -0.03103066
v 0.00293305 -0.02177249 -0.02905100
v 0.00528257 -0.02130172 -0.03043319
v 0.00463158 -0.02149096 -0.02647548
v 0.00307110 -0.02175232 -0.02825221
v 0.00745344 -0.02069834 -0.03011606
v 0.00626379 -0.02105975 -0.03031630
v 0.00769570 -0.02063009 -0.02647548
v 0.00587266 -0.02122649 -0.02669737
v 0.00661839 -0.02100701 -0.02647548
f 1 2 3
f 1 3 8
f 1 8 13
f 1 13 4
f 1 4 5
f 1 5 17
f 1 17 32
f 1 32 47
f 1 47 46
f 1 46 58
f 1 58 64
f 1 64 62
f 1 62 52
f 1 52 51
f 1 51 36
f 1 36 20
f 1 20 7
f 1 7 2
f 2 6 3
f 2 7 6
f 3 6 9
f 3 9 10
f 3 10 11
f 3 11 12
f 3 12 8
f 4 13 14
f 4 14 5
f 5 14 15
f 5 15 16
f 5 16 17
f 6 7 18
f 6 18 19
f 6 19 9
f 7 20 21
f 7 21 18
f 8 12 15
f 8 15 13
f 9 19 22
f 9 22 11
f 9 11 10
f 11 22 23
f 11 23 24
f 11 24 25
f 11 25 12
f 12 25 26
f 12 26 15
f 13 15 14
f 15 26 16
f 16 27 17
f 16 26 28
f 16 28 29
f 16 29 30
f 16 30 27
f 17 27 30
f 17 30 31
f 17 31 32
f 18 21 19
f 19 21 33
f 19 33 34
f 19 34 35
f 19 35 22
f 20 36 21
f 21 36 37
f 21 37 33
f 22 35 38
f 22 38 23
f 23 38 24
f 24 38 39
f 24 39 25
f 25 39 40
f 25 40 41
f 25 41 26
f 26 41 28
f 28 41 29
f 29 41 42
f 29 42 43
f 29 43 30
f 30 43 44
f 30 44 45
f 30 45 31
f 31 45 46
f 31 46 47
f 31 47 32
f 33 37 34
f 34 37 48
f 34 48 49
f 34 49 50
f 34 50 35
f 35 50 38
f 36 51 37
f 37 51 52
f 37 52 48
f 38 50 53
f 38 53 39
f 39 53 50
f 39 50 40
f 40 50 54
f 40 54 55
f 40 55 41
f 41 55 42
f 42 56 44
f 42 44 43
f 42 55 57
f 42 57 58
f 42 58 56
f 44 59 45
f 44 56 59
f 45 59 46
f 46 59 58
f 48 52 60
f 48 60 49
f 49 60 61
f 49 61 54
f 49 54 50
f 52 62 60
f 54 61 57
f 54 57 55
f 56 58 59
f 57 61 63
f 57 63 58
f 58 63 64
f 60 62 64
f 60 64 61
f 61 64 63

