# https://github.com/mikedh/trimesh
v 0.02453717 0.00985700 0.02801570
v 0.02449790 0.00993047 0.02691684
v 0.02430766 0.01039571 0.02664973
v 0.02390623 0.01131594 0.02803307
v 0.01616136 0.01792658 0.02800701
v 0.02197591 0.00985700 0.02776162
v 0.02154132 0.00985700 0.00584964
v 0.02428846 0.00985937 0.01093131
v 0.02402928 0.01102763 0.02584839
v 0.02357462 0.01197314 0.02803307
v 0.01893468 0.01792658 0.02803307
v 0.02392805 0.01124801 0.02638262
v 0.02192616 0.00985700 0.02664973
v 0.01565784 0.01792658 0.00773246
v 0.02155005 0.00985700 0.00666618
v 0.01562206 0.01792658 0.00584964
v 0.02410956 0.01004421 0.00584964
v 0.02417763 0.01009239 0.01039708
v 0.02407902 0.01033568 0.01093131
v 0.02372298 0.01092810 0.00584964
v 0.02333289 0.01179067 0.00591913
v 0.02348212 0.01178198 0.01439509
v 0.02330148 0.01250553 0.02803307
v 0.02012063 0.01717855 0.02803307
v 0.01962757 0.01777176 0.02800701
v 0.01948969 0.01791947 0.02664973
v 0.02356851 0.01194865 0.02638262
v 0.02181010 0.00985700 0.02070157
v 0.01911183 0.01786813 0.00584964
v 0.02254750 0.01323776 0.00584964
v 0.02293496 0.01255450 0.00591913
v 0.02324563 0.01199446 0.00666618
v 0.02295852 0.01260110 0.00826452
v 0.02297859 0.01312165 0.02803307
v 0.02093046 0.01616827 0.02803307
v 0.02040686 0.01684442 0.02664973
v 0.02012586 0.01718171 0.02744890
v 0.01976109 0.01763195 0.02691684
v 0.01962670 0.01777255 0.02584839
v 0.01965724 0.01724806 0.00591913
v 0.02032134 0.01646448 0.00584964
v 0.02169753 0.01459006 0.00584964
v 0.02234504 0.01366035 0.00799740
v 0.02257543 0.01325198 0.00719823
v 0.02279184 0.01289258 0.00773246
v 0.02298121 0.01251027 0.00693112
v 0.02258328 0.01376936 0.02803307
v 0.02235377 0.01380254 0.01412798
v 0.02129436 0.01569276 0.02803307
v 0.02093307 0.01617459 0.02744890
v 0.02083010 0.01631441 0.02664973
v 0.02013110 0.01718329 0.02584839
v 0.01989112 0.01747871 0.02638262
v 0.02067651 0.01602214 0.00584964
v 0.02055085 0.01621804 0.00733071
v 0.02112157 0.01544710 0.00599080
v 0.02141566 0.01506400 0.00719823
v 0.02187817 0.01442734 0.00906368
v 0.02188602 0.01443919 0.00986502
v 0.02164342 0.01518643 0.02803307
v 0.02188166 0.01483651 0.02558345
v 0.02129610 0.01569197 0.02744890
v 0.02129523 0.01568802 0.02664973
v 0.02109626 0.01550239 0.00666618
f 1 2 3
f 1 3 4
f 1 4 5
f 1 5 6
f 1 6 13
f 1 13 28
f 1 28 15
f 1 15 7
f 1 7 8
f 1 8 2
f 2 8 3
f 3 8 9
f 3 9 4
f 4 10 23
f 4 23 34
f 4 34 47
f 4 47 60
f 4 60 49
f 4 49 35
f 4 35 24
f 4 24 11
f 4 11 5
f 4 9 12
f 4 12 10
f 5 13 6
f 5 11 16
f 5 16 14
f 5 14 13
f 7 15 16
f 7 16 29
f 7 29 41
f 7 41 54
f 7 54 42
f 7 42 30
f 7 30 20
f 7 20 17
f 7 17 8
f 8 17 18
f 8 18 9
f 9 18 19
f 9 19 20
f 9 20 21
f 9 21 22
f 9 22 12
f 10 12 23
f 11 24 25
f 11 25 26
f 11 26 16
f 12 22 27
f 12 27 23
f 13 14 28
f 14 16 28
f 15 28 16
f 16 26 29
f 17 20 18
f 18 20 19
f 20 30 21
f 21 30 31
f 21 31 32
f 21 32 22
f 22 32 33
f 22 33 34
f 22 34 23
f 22 23 27
f 24 35 36
f 24 36 37
f 24 37 38
f 24 38 25
f 25 38 26
f 26 38 39
f 26 39 29
f 29 40 41
f 29 39 40
f 30 42 43
f 30 43 44
f 30 44 31
f 31 44 45
f 31 45 46
f 31 46 32
f 32 46 33
f 33 46 45
f 33 45 34
f 34 45 44
f 34 44 43
f 34 43 48
f 34 48 47
f 35 49 50
f 35 50 36
f 36 50 51
f 36 51 52
f 36 52 53
f 36 53 37
f 37 53 38
f 38 53 39
f 39 53 40
f 40 53 52
f 40 52 41
f 41 52 55
f 41 55 54
f 42 54 56
f 42 56 57
f 42 57 58
f 42 58 43
f 43 58 59
f 43 59 48
f 47 48 61
f 47 61 60
f 48 59 61
f 49 60 62
f 49 62 51
f 49 51 50
f 51 62 63
f 51 63 64
f 51 64 54
f 51 54 55
f 51 55 52
f 54 64 56
f 56 64 57
f 57 59 58
f 57 64 61
f 57 61 59
f 60 61 62
f 61 63 62
f 61 64 63

