# https://github.com/mikedh/trimesh
v -0.00507451 0.02346030 0.02898167
v -0.00602568 0.02346030 0.02897009
v -0.00400123 0.00411655 0.02897974
v -0.00400123 0.02409495 0.02892570
v -0.00633952 0.02599892 0.02895079
v -0.00633952 0.02472961 0.02895851
v -0.00633952 0.00031523 0.02891605
v -0.00387887 0.00031523 0.02894693
v -0.00618248 -0.00190606 0.02891220
v -0.00507451 -0.00285143 0.02891799
v -0.00387887 0.02504694 0.02885816
v -0.00507451 0.02733434 0.02883887
v -0.00630026 0.02703023 0.02887746
v -0.00633952 0.02892098 0.02746682
v -0.00633952 -0.03515271 0.02789329
v -0.00626100 -0.03416768 0.02824257
v -0.00618248 -0.03075641 0.02843169
v -0.00626100 -0.00340014 0.02889290
v -0.00387887 -0.00412074 0.02887939
v -0.00387887 0.02806155 0.02850888
v -0.00400123 0.02632286 0.02875396
v -0.00387887 0.02909286 0.02825994
v -0.00610420 0.02782355 0.02866905
v -0.00387887 0.02993907 0.02785663
v -0.00434855 0.03051422 0.02685123
v -0.00633952 0.02925152 0.02648458
v -0.00633952 -0.03652119 0.02568759
v -0.00626100 -0.03586009 0.02732016
v -0.00394005 -0.03383713 0.02791259
v -0.00390946 -0.03285870 0.02823486
v -0.00507451 -0.03329503 0.02829661
v -0.00576723 -0.03279259 0.02836994
v -0.00387887 -0.03043908 0.02837959
v -0.00387887 -0.00602470 0.02884466
v -0.00387887 0.03101666 0.02458764
v -0.00429074 0.03074561 0.02584583
v -0.00633952 0.02927797 0.02553322
v -0.00587345 -0.03619725 0.02626845
v -0.00633952 -0.03608486 0.00990422
v -0.00626004 -0.03622369 0.01268691
v -0.00433916 -0.03521221 0.01268691
v -0.00400123 -0.03504694 0.01364021
v -0.00387887 -0.03517916 0.02505271
v -0.00387887 -0.03509983 0.02617196
v -0.00542280 -0.03549649 0.02723332
v -0.00387887 -0.03453789 0.02730858
v -0.00387887 -0.03178111 0.02833520
v -0.00387887 0.03079188 0.01398756
v -0.00400123 0.03075883 0.01554100
v -0.00633952 0.02925813 0.01395668
v -0.00633952 0.02927136 0.01490805
v -0.00387887 -0.03463045 0.00926741
v -0.00388778 -0.03482216 0.01014158
v -0.00488881 -0.03544360 0.01090383
v -0.00624173 -0.03618403 0.01140363
v -0.00633952 0.02788966 0.00926741
v -0.00400123 -0.03499405 0.01142679
v -0.00387887 0.03075222 0.01313654
v -0.00633952 0.02917219 0.01274866
v -0.00387887 0.02716906 0.00926741
v -0.00633952 0.02884826 0.01170853
v -0.00387887 0.03064644 0.01229903
v -0.00387887 0.03024317 0.01144416
f 1 2 3
f 1 3 4
f 1 4 5
f 1 5 2
f 2 5 6
f 2 6 7
f 2 7 3
f 3 8 4
f 3 7 9
f 3 9 10
f 3 10 8
f 4 11 12
f 4 12 5
f 4 8 11
f 5 12 13
f 5 13 14
f 5 14 26
f 5 26 37
f 5 37 51
f 5 51 50
f 5 50 59
f 5 59 61
f 5 61 56
f 5 56 39
f 5 39 27
f 5 27 15
f 5 15 7
f 5 7 6
f 7 15 16
f 7 16 17
f 7 17 18
f 7 18 9
f 8 10 19
f 8 19 34
f 8 34 33
f 8 33 47
f 8 47 46
f 8 46 44
f 8 44 43
f 8 43 52
f 8 52 60
f 8 60 63
f 8 63 62
f 8 62 58
f 8 58 48
f 8 48 35
f 8 35 24
f 8 24 22
f 8 22 20
f 8 20 11
f 9 18 10
f 10 18 17
f 10 17 19
f 11 20 21
f 11 21 12
f 12 21 20
f 12 20 22
f 12 22 23
f 12 23 13
f 13 23 14
f 14 24 25
f 14 25 26
f 14 23 24
f 15 27 28
f 15 28 29
f 15 29 16
f 16 29 30
f 16 30 31
f 16 31 32
f 16 32 17
f 17 33 34
f 17 34 19
f 17 32 33
f 22 24 23
f 24 35 25
f 25 35 36
f 25 36 26
f 26 36 37
f 27 38 28
f 27 39 40
f 27 40 41
f 27 41 42
f 27 42 43
f 27 43 44
f 27 44 38
f 28 38 45
f 28 45 29
f 29 45 46
f 29 46 30
f 30 47 31
f 30 46 47
f 31 47 32
f 32 47 33
f 35 48 49
f 35 49 50
f 35 50 51
f 35 51 36
f 36 51 37
f 38 44 45
f 39 52 53
f 39 53 54
f 39 54 55
f 39 55 40
f 39 56 52
f 40 55 41
f 41 57 42
f 41 55 57
f 42 57 43
f 43 57 53
f 43 53 52
f 44 46 45
f 48 58 50
f 48 50 49
f 50 58 59
f 52 56 60
f 53 57 54
f 54 57 55
f 56 61 62
f 56 62 63
f 56 63 60
f 58 62 59
f 59 62 61

