# https://github.com/mikedh/trimesh
v 0.01727479 -0.02346774 0.01300568
v 0.01727479 -0.02345753 0.01133906
v 0.01967560 -0.02220127 0.01300568
v 0.01730938 -0.02345242 0.02613902
v 0.01727479 0.00055438 0.02898197
v 0.01727479 -0.02331454 0.00926742
v 0.03615576 -0.01342277 0.00926742
v 0.01982616 -0.02212467 0.02594329
v 0.01809676 -0.02278854 0.02718357
v 0.01737448 -0.02091947 0.02871259
v 0.01903064 0.00380227 0.02898003
v 0.01731752 0.02283000 0.02873391
v 0.01727479 0.02847806 0.02600531
v 0.01774071 -0.00982763 0.02897615
v 0.01998283 -0.01394877 0.02901685
v 0.02259930 -0.01656342 0.02906142
v 0.01727479 0.02870275 0.00926742
v 0.03750062 -0.01200310 0.00926742
v 0.03750062 -0.01213588 0.01681177
v 0.03690042 -0.01277422 0.01807918
v 0.03444467 -0.01405601 0.02632119
v 0.03389940 -0.01392323 0.02785022
v 0.02915068 -0.01647661 0.02788703
v 0.02020866 -0.02107778 0.02803626
v 0.01906116 -0.02093990 0.02854981
v 0.02378750 -0.01760009 0.02885794
v 0.02561253 0.00665694 0.02892964
v 0.02949249 -0.01299891 0.02906142
v 0.03266441 -0.01109410 0.02905948
v 0.01735821 0.02465311 0.02851686
v 0.03377529 -0.00776450 0.02902072
v 0.01739686 0.02785503 0.02721845
v 0.02176919 0.02021535 0.02600531
v 0.03472748 -0.01117581 0.02896452
v 0.03103674 0.00309243 0.02568748
v 0.03685566 -0.00773386 0.02649754
v 0.03746807 -0.00894927 0.02166628
v 0.03680276 -0.00789728 0.01205222
v 0.03697773 -0.00833646 0.01078481
v 0.03626766 -0.00751427 0.00926742
v 0.03806013 -0.01077748 0.01342621
v 0.03767356 -0.01179883 0.01252895
v 0.03767356 -0.01065492 0.00926742
v 0.03798078 -0.01046086 0.01205222
v 0.03798689 -0.01109410 0.02346662
v 0.03757794 -0.01193160 0.02259455
v 0.03779360 -0.01129837 0.02543556
v 0.03528089 -0.01291721 0.02783471
v 0.03644467 -0.01154349 0.02829981
v 0.02704081 -0.01671152 0.02848779
v 0.01752301 0.02636897 0.02793936
v 0.02750673 0.00683568 0.02849555
v 0.03620662 -0.00976124 0.02865445
v 0.02127072 0.02008768 0.02776688
v 0.03708150 -0.00884713 0.02772037
v 0.03761456 -0.00922503 0.02623398
v 0.03788109 -0.00982763 0.02410226
v 0.03792992 -0.01014424 0.01586025
v 0.03739482 -0.00892884 0.01617807
v 0.03773053 -0.01005232 0.01082551
v 0.03700418 -0.00894416 0.00926742
v 0.03804589 -0.01086940 0.02105778
v 0.03801537 -0.01046086 0.02378444
v 0.03766542 -0.01075705 0.02716419
f 1 2 3
f 1 3 4
f 1 4 5
f 1 5 13
f 1 13 17
f 1 17 6
f 1 6 2
f 2 6 7
f 2 7 3
f 3 8 4
f 3 7 8
f 4 8 9
f 4 9 10
f 4 10 5
f 5 11 12
f 5 12 13
f 5 10 14
f 5 14 15
f 5 15 16
f 5 16 11
f 6 17 40
f 6 40 61
f 6 61 43
f 6 43 18
f 6 18 7
f 7 18 19
f 7 19 20
f 7 20 21
f 7 21 8
f 8 21 9
f 9 21 22
f 9 22 23
f 9 23 24
f 9 24 25
f 9 25 10
f 10 25 26
f 10 26 16
f 10 16 15
f 10 15 14
f 11 27 12
f 11 16 28
f 11 28 29
f 11 29 27
f 12 30 13
f 12 27 31
f 12 31 30
f 13 32 33
f 13 33 17
f 13 30 32
f 16 26 34
f 16 34 28
f 17 33 35
f 17 35 36
f 17 36 37
f 17 37 38
f 17 38 39
f 17 39 40
f 18 41 42
f 18 42 19
f 18 43 44
f 18 44 41
f 19 42 45
f 19 45 46
f 19 46 20
f 20 46 21
f 21 46 47
f 21 47 48
f 21 48 22
f 22 48 49
f 22 49 50
f 22 50 23
f 23 50 25
f 23 25 24
f 25 50 26
f 26 50 34
f 27 29 31
f 28 34 29
f 29 34 31
f 30 51 32
f 30 31 52
f 30 52 51
f 31 53 52
f 31 34 53
f 32 51 54
f 32 54 55
f 32 55 36
f 32 36 33
f 33 36 35
f 34 50 49
f 34 49 53
f 36 56 37
f 36 55 56
f 37 56 57
f 37 57 58
f 37 58 59
f 37 59 38
f 38 59 39
f 39 59 44
f 39 44 60
f 39 60 61
f 39 61 40
f 41 62 45
f 41 45 42
f 41 44 58
f 41 58 57
f 41 57 63
f 41 63 62
f 43 61 60
f 43 60 44
f 44 59 58
f 45 47 46
f 45 62 63
f 45 63 47
f 47 63 64
f 47 64 48
f 48 64 49
f 49 64 53
f 51 52 54
f 52 53 55
f 52 55 54
f 53 64 55
f 55 64 56
f 56 64 63
f 56 63 57

