# https://github.com/mikedh/trimesh
v -0.02136861 0.01894955 -0.00987923
v -0.02136861 0.02118993 -0.01176989
v -0.02288344 0.02028111 -0.01010818
v -0.02905778 0.01808729 -0.00998632
v -0.03657684 0.00904012 -0.00987923
v -0.02136861 0.00300991 -0.00987923
v -0.02136861 0.02174304 -0.01313249
v -0.02481788 0.02006508 -0.01014326
v -0.03583643 0.01503681 -0.01427354
v -0.03637756 0.01450977 -0.01056053
v -0.02674747 0.01920841 -0.01018942
v -0.02393005 0.02063123 -0.01141908
v -0.03772227 0.01236251 -0.01075994
v -0.03749059 0.01086520 -0.01072301
v -0.03764289 0.01110171 -0.01237180
v -0.03562744 0.00711820 -0.00987923
v -0.03358444 0.00300991 -0.00987923
v -0.02545136 0.00300991 -0.02869720
v -0.02162621 0.00313096 -0.02873967
v -0.02136861 0.02195721 -0.02596461
v -0.02136861 0.02203542 -0.02361051
v -0.02201829 0.02163316 -0.01471112
v -0.02322367 0.02102604 -0.01285554
v -0.03688142 0.01474442 -0.02283320
v -0.03638404 0.01475001 -0.01427354
v -0.02315400 0.02124207 -0.01776313
v -0.02285590 0.02157357 -0.02479218
v -0.03732534 0.01381512 -0.01213362
v -0.03791831 0.01251336 -0.02524453
v -0.03762183 0.01115200 -0.02406287
v -0.03551403 0.00685934 -0.02537008
v -0.03491620 0.00564883 -0.01173666
v -0.03491458 0.00565255 -0.01110336
v -0.03481737 0.00548680 -0.00987923
v -0.03371405 0.00325015 -0.01141908
v -0.03358444 0.00302667 -0.02593876
v -0.02757212 0.00300991 -0.02866397
v -0.03377562 0.01268469 -0.02846641
v -0.03234828 0.01395293 -0.02847195
v -0.02149660 0.01707978 -0.02852734
v -0.02210091 0.02047666 -0.02800113
v -0.02343753 0.02115082 -0.02631357
v -0.03576191 0.01518579 -0.02649820
v -0.03701427 0.01448556 -0.02545686
v -0.03044138 0.01775766 -0.02662929
v -0.03746143 0.01263627 -0.02712596
v -0.03749545 0.01120042 -0.02633203
v -0.03616856 0.00821697 -0.02586491
v -0.03456787 0.00507709 -0.02647789
v -0.03329282 0.00339541 -0.02734937
v -0.03123363 0.00307137 -0.02846825
v -0.03441071 0.01110171 -0.02846272
v -0.03582185 0.01328808 -0.02809529
v -0.03425194 0.01439617 -0.02821531
v -0.03092094 0.01522118 -0.02841471
v -0.02245572 0.01910599 -0.02841840
v -0.02427190 0.01938906 -0.02812668
v -0.03417579 0.01518579 -0.02787558
v -0.03637918 0.01141645 -0.02792727
v -0.03487245 0.00617773 -0.02714258
v -0.03489351 0.00777374 -0.02790881
v -0.03520296 0.01046852 -0.02830762
v -0.03139726 0.01553777 -0.02829654
f 1 2 3
f 1 3 4
f 1 4 5
f 1 5 16
f 1 16 34
f 1 34 17
f 1 17 6
f 1 6 20
f 1 20 21
f 1 21 7
f 1 7 2
f 2 7 8
f 2 8 3
f 3 8 4
f 4 9 10
f 4 10 5
f 4 8 11
f 4 11 12
f 4 12 9
f 5 13 14
f 5 14 15
f 5 15 16
f 5 10 13
f 6 17 37
f 6 37 18
f 6 18 19
f 6 19 20
f 7 21 22
f 7 22 23
f 7 23 12
f 7 12 8
f 8 12 11
f 9 24 25
f 9 25 10
f 9 12 23
f 9 23 26
f 9 26 27
f 9 27 24
f 10 25 28
f 10 28 13
f 13 29 15
f 13 15 14
f 13 28 29
f 15 29 30
f 15 30 31
f 15 31 32
f 15 32 33
f 15 33 17
f 15 17 34
f 15 34 16
f 17 33 35
f 17 35 36
f 17 36 37
f 18 37 38
f 18 38 39
f 18 39 19
f 19 40 20
f 19 39 40
f 20 40 41
f 20 41 42
f 20 42 27
f 20 27 21
f 21 27 22
f 22 27 26
f 22 26 23
f 24 43 44
f 24 44 28
f 24 28 25
f 24 27 43
f 27 42 45
f 27 45 43
f 28 44 29
f 29 46 47
f 29 47 30
f 29 44 46
f 30 47 48
f 30 48 31
f 31 36 35
f 31 35 32
f 31 48 36
f 32 35 33
f 36 48 49
f 36 49 50
f 36 50 51
f 36 51 37
f 37 51 52
f 37 52 38
f 38 52 53
f 38 53 54
f 38 54 39
f 39 54 55
f 39 55 56
f 39 56 40
f 40 56 41
f 41 56 57
f 41 57 58
f 41 58 42
f 42 58 45
f 43 45 58
f 43 58 53
f 43 53 46
f 43 46 44
f 46 53 59
f 46 59 47
f 47 59 60
f 47 60 49
f 47 49 48
f 49 60 50
f 50 60 61
f 50 61 51
f 51 61 62
f 51 62 52
f 52 62 53
f 53 62 59
f 53 58 54
f 54 58 57
f 54 57 63
f 54 63 55
f 55 63 56
f 56 63 57
f 59 62 61
f 59 61 60

