# https://github.com/mikedh/trimesh
v -0.01309732 -0.01354678 -0.02915561
v -0.01180475 -0.00729426 -0.02904239
v -0.01211190 -0.01327451 -0.02915372
v -0.01180475 -0.01354678 -0.00987923
v -0.02061595 -0.01354678 -0.02909900
v -0.02441899 -0.00856162 -0.02899145
v -0.01180475 -0.00380822 -0.02897258
v -0.01180475 -0.01173326 -0.02912542
v -0.01180475 0.00300991 -0.00987923
v -0.02734540 -0.00965557 -0.00987923
v -0.02543001 -0.01354030 -0.01015849
v -0.02551959 -0.01354678 -0.01140572
v -0.02163550 -0.01354678 -0.02908768
v -0.02172722 -0.00190394 -0.02886880
v -0.02314989 -0.01236856 -0.02904805
v -0.02663939 -0.00460072 -0.02888767
v -0.02632158 -0.00348895 -0.02886880
v -0.01180475 -0.00158629 -0.02892352
v -0.01332341 -0.00016011 -0.02888578
v -0.01180475 0.00293698 -0.02757063
v -0.01839555 0.00300991 -0.02869521
v -0.03358426 0.00300991 -0.00987923
v -0.02689748 -0.01074466 -0.01110193
v -0.02627679 -0.01188722 -0.01032076
v -0.02724301 -0.01008343 -0.01173781
v -0.02550466 -0.01354678 -0.02472521
v -0.02548760 -0.01354678 -0.02601018
v -0.02510154 -0.01343334 -0.02778762
v -0.02416731 -0.01327451 -0.02866691
v -0.02285554 -0.01327451 -0.02904239
v -0.02156938 0.00300991 -0.02874049
v -0.02537029 -0.00824397 -0.02894050
v -0.02759068 -0.00475793 -0.02877446
v -0.03063227 0.00299046 -0.02858199
v -0.02830309 0.00300991 -0.02864992
v -0.02735179 0.00300991 -0.02866879
v -0.02477520 0.00297102 -0.02870653
v -0.01194766 -0.00052962 -0.02888956
v -0.01180475 0.00197755 -0.02840274
v -0.01554381 0.00158535 -0.02881974
v -0.01354950 0.00246051 -0.02856501
v -0.01509162 0.00286243 -0.02854992
v -0.01982463 0.00300991 -0.02872917
v -0.01332128 0.00142652 -0.02879332
v -0.03359493 0.00300991 -0.01136798
v -0.02902402 -0.00644990 -0.01268880
v -0.02779758 -0.00891007 -0.01110193
v -0.02701692 -0.01046590 -0.02568752
v -0.02620000 -0.01213032 -0.02521203
v -0.02735606 -0.00967502 -0.02658567
v -0.02602297 -0.01185967 -0.02755742
v -0.02710650 -0.00873665 -0.02812348
v -0.02751390 -0.00686155 -0.02848576
v -0.02632158 -0.00792794 -0.02878578
v -0.03099487 0.00190786 -0.02849897
v -0.02695720 -0.00665896 -0.02875370
v -0.03218718 0.00277492 -0.02810650
v -0.03326005 0.00286729 -0.02709702
v -0.03356506 0.00300991 -0.02608754
v -0.01208843 0.00064050 -0.02881408
v -0.02926505 -0.00588753 -0.02473653
v -0.02925012 -0.00585836 -0.02612716
v -0.02866355 -0.00682103 -0.02711778
f 1 2 3
f 1 3 4
f 1 4 12
f 1 12 26
f 1 26 27
f 1 27 13
f 1 13 5
f 1 5 6
f 1 6 2
f 2 7 18
f 2 18 39
f 2 39 20
f 2 20 9
f 2 9 4
f 2 4 8
f 2 8 3
f 2 6 7
f 3 8 4
f 4 9 22
f 4 22 10
f 4 10 11
f 4 11 12
f 5 13 6
f 6 14 7
f 6 13 15
f 6 15 16
f 6 16 17
f 6 17 14
f 7 14 19
f 7 19 18
f 9 20 21
f 9 21 43
f 9 43 31
f 9 31 36
f 9 36 35
f 9 35 59
f 9 59 45
f 9 45 22
f 10 22 23
f 10 23 24
f 10 24 11
f 11 24 12
f 12 24 23
f 12 23 25
f 12 25 26
f 13 27 28
f 13 28 29
f 13 29 30
f 13 30 15
f 14 31 19
f 14 17 31
f 15 32 16
f 15 30 32
f 16 33 34
f 16 34 35
f 16 35 17
f 16 32 33
f 17 35 36
f 17 36 37
f 17 37 31
f 18 19 38
f 18 38 39
f 19 31 40
f 19 40 38
f 20 39 41
f 20 41 42
f 20 42 21
f 21 42 41
f 21 41 44
f 21 44 43
f 22 45 46
f 22 46 25
f 22 25 47
f 22 47 23
f 23 47 25
f 25 48 49
f 25 49 26
f 25 46 48
f 26 49 27
f 27 49 48
f 27 48 50
f 27 50 51
f 27 51 28
f 28 51 52
f 28 52 29
f 29 52 53
f 29 53 54
f 29 54 30
f 30 54 32
f 31 43 40
f 31 37 36
f 32 54 33
f 33 55 34
f 33 54 56
f 33 56 55
f 34 55 57
f 34 57 58
f 34 58 59
f 34 59 35
f 38 40 44
f 38 44 60
f 38 60 39
f 39 60 41
f 40 43 44
f 41 60 44
f 45 59 46
f 46 59 61
f 46 61 48
f 48 61 62
f 48 62 50
f 50 62 59
f 50 59 63
f 50 63 51
f 51 63 58
f 51 58 52
f 52 58 57
f 52 57 53
f 53 57 55
f 53 55 56
f 53 56 54
f 58 63 59
f 59 62 61

