# https://github.com/mikedh/trimesh
v 0.02059773 0.00300991 -0.00987923
v 0.01182074 0.00300991 -0.00987923
v 0.02059773 -0.00529502 -0.00987923
v 0.02059773 0.00300991 -0.02879408
v 0.01182074 -0.00529502 -0.00987923
v 0.01182074 0.00300991 -0.02887776
v 0.02059773 -0.00529502 -0.02882383
v 0.02059773 -0.00283671 -0.02887033
v 0.02045940 0.00300991 -0.02879780
v 0.01182074 -0.00529502 -0.02582788
v 0.01919032 0.00300991 -0.02881267
v 0.02059773 -0.00285378 -0.02887033
v 0.01182074 0.00213438 -0.02887033
v 0.01988371 -0.00529502 -0.02882011
v 0.02059773 -0.00475686 -0.02883499
v 0.01182074 -0.00170023 -0.02840726
v 0.01516313 -0.00529502 -0.02857464
v 0.02059773 -0.00348868 -0.02886103
v 0.01182074 0.00150029 -0.02886288
v 0.01924961 -0.00529502 -0.02881639
v 0.01182074 -0.00143928 -0.02856162
v 0.01182074 -0.00139050 -0.02858579
v 0.01182074 -0.00103281 -0.02868250
v 0.01182074 -0.00095152 -0.02870109
v 0.01545870 -0.00529502 -0.02864530
v 0.01997995 -0.00348868 -0.02885545
v 0.01182074 0.00095075 -0.02885359
v 0.01798053 -0.00529502 -0.02880338
v 0.01553861 -0.00529502 -0.02866204
v 0.01182074 -0.00040279 -0.02879036
v 0.01182074 0.00086620 -0.02885173
v 0.01744266 -0.00529502 -0.02879594
v 0.01617530 -0.00529502 -0.02874759
v 0.01182074 -0.00031743 -0.02879780
v 0.01182074 0.00023130 -0.02883313
v 0.01680855 -0.00529502 -0.02878292
f 1 2 5
f 1 5 3
f 1 3 7
f 1 7 15
f 1 15 18
f 1 18 12
f 1 12 8
f 1 8 4
f 1 4 9
f 1 9 11
f 1 11 6
f 1 6 2
f 2 6 13
f 2 13 19
f 2 19 27
f 2 27 31
f 2 31 35
f 2 35 34
f 2 34 30
f 2 30 24
f 2 24 23
f 2 23 22
f 2 22 21
f 2 21 16
f 2 16 10
f 2 10 5
f 3 5 10
f 3 10 17
f 3 17 25
f 3 25 29
f 3 29 33
f 3 33 36
f 3 36 32
f 3 32 28
f 3 28 20
f 3 20 14
f 3 14 7
f 4 8 9
f 6 11 8
f 6 8 12
f 6 12 13
f 7 14 15
f 8 11 9
f 10 16 17
f 12 18 19
f 12 19 13
f 14 20 18
f 14 18 15
f 16 21 17
f 17 21 22
f 17 22 23
f 17 23 24
f 17 24 25
f 18 26 19
f 18 20 26
f 19 26 27
f 20 27 26
f 20 28 27
f 24 29 25
f 24 30 29
f 27 28 32
f 27 32 31
f 29 30 33
f 30 34 33
f 31 32 36
f 31 36 35
f 33 34 35
f 33 35 36

