# https://github.com/mikedh/trimesh
v 0.01727479 -0.00951715 0.02894463
v 0.01490504 -0.02124721 0.02882521
v 0.01617322 -0.01997822 0.02883099
v 0.01704056 -0.02036017 0.02880980
v 0.01727479 -0.02162415 0.02860563
v 0.01727479 -0.00315960 0.00926741
v 0.01724048 -0.00336817 0.02890418
v 0.01692393 -0.00438337 0.02892344
v 0.00726264 -0.00315960 0.02884832
v 0.00759880 -0.02554170 0.02882521
v 0.01110148 -0.02441845 0.02877128
v 0.01451302 -0.02250616 0.02875780
v 0.01557539 -0.02283786 0.02854977
v 0.01619380 -0.02336053 0.02791801
v 0.01701899 -0.02321730 0.02747307
v 0.01726205 -0.02350126 0.02598033
v 0.01727479 -0.02346859 0.01348946
v 0.00726264 -0.00315960 0.00926741
v 0.01714444 -0.02352890 0.01136495
v 0.01697391 -0.02349623 0.00926741
v 0.00726264 -0.02730322 0.02843035
v 0.00764584 -0.02642372 0.02870001
v 0.01070162 -0.02513462 0.02864415
v 0.01454144 -0.02344346 0.02852859
v 0.01223441 -0.02545626 0.02797579
v 0.01318408 -0.02520246 0.02766761
v 0.01211583 -0.02603674 0.02732669
v 0.01386423 -0.02532308 0.02568756
v 0.01632120 -0.02401137 0.02568756
v 0.01015378 -0.02727558 0.02635207
v 0.01263525 -0.02597894 0.02568756
v 0.01577140 -0.02430788 0.02505387
v 0.01473255 -0.02486574 0.02473606
v 0.01355355 -0.02549647 0.02378456
v 0.01264211 -0.02598146 0.02314894
v 0.01141020 -0.02663480 0.02188155
v 0.01350945 -0.02547134 0.01173669
v 0.00765956 -0.02799426 0.00926741
v 0.00736457 -0.02861494 0.01146511
v 0.00726264 -0.02877576 0.01363969
v 0.01610951 -0.02406665 0.01078519
v 0.01619086 -0.02392593 0.00926741
v 0.00726264 -0.02881597 0.02599382
v 0.00739985 -0.02854206 0.02716489
v 0.00745571 -0.02796662 0.02794497
v 0.00837990 -0.02797918 0.02737869
v 0.00799964 -0.02841140 0.02632126
v 0.00910807 -0.02785857 0.02568756
v 0.01173557 -0.02646393 0.02283305
v 0.01000481 -0.02737610 0.02093005
v 0.01173557 -0.02641367 0.01173669
v 0.00857002 -0.02782087 0.00926741
v 0.00952459 -0.02741881 0.00926741
v 0.00895518 -0.02785605 0.01114345
v 0.00750668 -0.02863755 0.01268819
v 0.00895616 -0.02788118 0.01206991
v 0.00893558 -0.02793646 0.01997855
v 0.00768308 -0.02857976 0.01807940
v 0.00726264 -0.02882602 0.02471680
v 0.01103974 -0.02677301 0.01141888
v 0.00988427 -0.02738363 0.01141888
v 0.01368390 -0.02526529 0.00926741
v 0.01046739 -0.02694891 0.00926741
v 0.01230596 -0.02598899 0.00926741
f 1 2 3
f 1 3 4
f 1 4 5
f 1 5 17
f 1 17 6
f 1 6 7
f 1 7 8
f 1 8 9
f 1 9 10
f 1 10 2
f 2 4 3
f 2 10 4
f 4 10 11
f 4 11 12
f 4 12 5
f 5 12 11
f 5 11 13
f 5 13 14
f 5 14 15
f 5 15 16
f 5 16 17
f 6 18 9
f 6 9 7
f 6 17 19
f 6 19 20
f 6 20 42
f 6 42 62
f 6 62 64
f 6 64 63
f 6 63 53
f 6 53 52
f 6 52 38
f 6 38 18
f 7 9 8
f 9 18 40
f 9 40 59
f 9 59 43
f 9 43 21
f 9 21 10
f 10 21 22
f 10 22 11
f 11 23 13
f 11 22 23
f 13 24 14
f 13 23 24
f 14 24 25
f 14 25 26
f 14 26 27
f 14 27 15
f 15 27 16
f 16 28 29
f 16 29 17
f 16 27 30
f 16 30 31
f 16 31 28
f 17 29 32
f 17 32 33
f 17 33 34
f 17 34 35
f 17 35 36
f 17 36 37
f 17 37 19
f 18 38 39
f 18 39 40
f 19 37 41
f 19 41 20
f 20 41 42
f 21 43 44
f 21 44 45
f 21 45 24
f 21 24 23
f 21 23 22
f 24 45 25
f 25 45 46
f 25 46 26
f 26 46 27
f 27 46 44
f 27 44 47
f 27 47 30
f 28 33 29
f 28 31 33
f 29 33 32
f 30 47 43
f 30 43 48
f 30 48 31
f 31 48 33
f 33 48 34
f 34 48 49
f 34 49 35
f 35 49 36
f 36 50 51
f 36 51 37
f 36 49 48
f 36 48 50
f 37 51 41
f 38 52 39
f 39 52 53
f 39 53 54
f 39 54 55
f 39 55 40
f 40 55 56
f 40 56 57
f 40 57 58
f 40 58 59
f 41 51 60
f 41 60 61
f 41 61 62
f 41 62 42
f 43 59 48
f 43 47 44
f 44 46 45
f 48 59 57
f 48 57 50
f 50 57 51
f 51 57 56
f 51 56 61
f 51 61 60
f 53 63 54
f 54 56 55
f 54 63 64
f 54 64 62
f 54 62 61
f 54 61 56
f 57 59 58

