# https://github.com/mikedh/trimesh
v -0.00037510 0.02838967 -0.02922870
v 0.00061293 0.02982355 -0.02917946
v 0.01220157 0.03388869 -0.02916810
v 0.00254031 0.02251928 -0.02915863
v 0.00114831 0.02352516 -0.02917757
v -0.00074257 0.02666103 -0.02921355
v -0.00243877 0.02809158 -0.02901659
v -0.00229762 0.02990016 -0.02829693
v 0.01029852 0.03538585 -0.02884046
v 0.01204825 0.03649997 -0.02833291
v 0.01372985 0.03598371 -0.02777422
v 0.01490283 0.03076281 -0.02896735
v 0.01900825 0.02182649 -0.02876471
v 0.01648951 0.02059413 -0.02900144
v 0.00239186 0.02091554 -0.02912454
v -0.00303256 0.02056915 -0.02881394
v -0.00303256 0.03040476 -0.02399031
v -0.00232196 0.03067788 -0.02631596
v 0.00750722 0.03522597 -0.02773635
v 0.01092395 0.03696294 -0.02730644
v 0.01244979 0.03743591 -0.02652617
v 0.01429930 0.03624351 -0.02537093
v 0.01517539 0.03351399 -0.02782725
v 0.01716118 0.02775351 -0.02856585
v 0.02048056 0.02056915 -0.02838215
v -0.00303256 0.02056915 -0.00988112
v -0.00303256 0.03045805 -0.01455136
v 0.00407589 0.03414016 -0.00988112
v 0.00601788 0.03511939 -0.00988112
v 0.00889679 0.03629847 -0.02645042
v 0.01086797 0.03721774 -0.02553758
v 0.01087771 0.03730934 -0.02346761
v 0.01147393 0.03758079 -0.01903032
v 0.01253983 0.03751584 -0.02445809
v 0.01401944 0.03671814 -0.02212108
v 0.01937329 0.02553192 -0.01205337
v 0.02057547 0.02315378 -0.01490930
v 0.02063874 0.02315378 -0.02013822
v 0.02067038 0.02315378 -0.02314944
v 0.02070688 0.02309217 -0.02544857
v 0.01967018 0.02452271 -0.02752613
v 0.02077015 0.02224949 -0.02742954
v 0.02174602 0.02056915 -0.02660004
v -0.00303256 0.02820482 -0.00988112
v 0.01857995 0.02056915 -0.00988112
v -0.00303256 0.03019825 -0.01273326
v -0.00103460 0.03124743 -0.00988112
v 0.00062023 0.03235656 -0.00988112
v 0.01030825 0.03724772 -0.00988112
v 0.01208719 0.03754415 -0.00988112
v 0.01278076 0.03755082 -0.01982005
v 0.01404621 0.03628847 -0.01264804
v 0.01641164 0.03147725 -0.01083941
v 0.01247413 0.03749419 -0.01157991
v 0.02033941 0.02349019 -0.01242457
v 0.01747754 0.02925399 -0.01059321
v 0.01841690 0.02732718 -0.01076745
v 0.02181172 0.02056915 -0.01643385
v 0.02182632 0.02056915 -0.01833717
v 0.02150509 0.02056915 -0.01307984
v 0.01942683 0.02313380 -0.00988112
v 0.01522893 0.03363389 -0.01012354
v 0.01399267 0.03612860 -0.01079396
v 0.01943899 0.02500566 -0.01056670
f 1 2 3
f 1 3 4
f 1 4 5
f 1 5 6
f 1 6 7
f 1 7 2
f 2 7 8
f 2 8 9
f 2 9 3
f 3 9 10
f 3 10 11
f 3 11 12
f 3 12 13
f 3 13 14
f 3 14 4
f 4 14 15
f 4 15 5
f 5 15 16
f 5 16 6
f 6 16 7
f 7 16 17
f 7 17 8
f 8 17 18
f 8 18 19
f 8 19 9
f 9 19 20
f 9 20 10
f 10 20 21
f 10 21 11
f 11 22 23
f 11 23 12
f 11 21 22
f 12 23 24
f 12 24 13
f 13 25 14
f 13 24 25
f 14 25 16
f 14 16 15
f 16 25 43
f 16 43 59
f 16 59 58
f 16 58 60
f 16 60 45
f 16 45 26
f 16 26 44
f 16 44 46
f 16 46 27
f 16 27 17
f 17 27 28
f 17 28 29
f 17 29 30
f 17 30 18
f 18 30 19
f 19 30 20
f 20 30 31
f 20 31 21
f 21 31 32
f 21 32 33
f 21 33 34
f 21 34 35
f 21 35 22
f 22 35 36
f 22 36 37
f 22 37 38
f 22 38 39
f 22 39 40
f 22 40 41
f 22 41 23
f 23 41 24
f 24 41 42
f 24 42 25
f 25 42 43
f 26 45 61
f 26 61 50
f 26 50 49
f 26 49 29
f 26 29 28
f 26 28 48
f 26 48 47
f 26 47 44
f 27 46 47
f 27 47 48
f 27 48 28
f 29 49 30
f 30 49 32
f 30 32 31
f 32 49 33
f 33 49 50
f 33 50 51
f 33 51 34
f 34 51 35
f 35 52 53
f 35 53 36
f 35 51 54
f 35 54 52
f 36 55 37
f 36 53 56
f 36 56 57
f 36 57 55
f 37 55 58
f 37 58 38
f 38 58 39
f 39 58 59
f 39 59 40
f 40 59 43
f 40 43 41
f 41 43 42
f 44 47 46
f 45 60 61
f 50 54 51
f 50 61 62
f 50 62 63
f 50 63 54
f 52 63 53
f 52 54 63
f 53 63 62
f 53 62 56
f 55 57 64
f 55 64 60
f 55 60 58
f 56 62 64
f 56 64 57
f 60 64 61
f 61 64 62

