# https://github.com/mikedh/trimesh
v -0.00349245 -0.02111058 -0.02921297
v -0.00261064 -0.02111058 -0.02921108
v -0.01648795 -0.02111058 -0.02915052
v -0.02023842 -0.01767370 -0.02918080
v -0.01948777 -0.01713322 -0.02919026
v -0.01282398 -0.01452187 -0.02917701
v 0.00299832 -0.01354678 -0.02909374
v 0.00299832 -0.02086255 -0.02915430
v 0.00299832 -0.02111058 -0.00987923
v -0.01750928 -0.02111058 -0.02914105
v -0.01846085 -0.02111058 -0.02911645
v -0.02061235 -0.01871172 -0.02908428
v -0.02224202 -0.01354678 -0.02907671
v -0.01274027 -0.01356973 -0.02915808
v -0.02061235 -0.01354678 -0.02909942
v -0.01141476 -0.01356973 -0.02915619
v 0.00299832 -0.01354678 -0.00987923
v -0.01879293 -0.02111058 -0.00987923
v -0.01972217 -0.02111058 -0.02891395
v -0.02124580 -0.01871172 -0.02891395
v -0.02156392 -0.01760188 -0.02897641
v -0.02340009 -0.01409097 -0.02885907
v -0.02460839 -0.01368968 -0.02823455
v -0.02528370 -0.01355419 -0.02729587
v -0.02548741 -0.01354974 -0.02600519
v -0.02550415 -0.01354678 -0.02473721
v -0.02544834 -0.01362822 -0.01081791
v -0.02533951 -0.01366302 -0.00987923
v -0.02310988 -0.01770776 -0.00987923
v -0.02110907 -0.02111058 -0.01248709
v -0.02060119 -0.02111058 -0.02847300
v -0.02148300 -0.01942546 -0.02857898
v -0.02192390 -0.01834968 -0.02864522
v -0.02354799 -0.01510826 -0.02859412
v -0.02407540 -0.01421313 -0.02852031
v -0.02346427 -0.01617220 -0.02824023
v -0.02466699 -0.01444931 -0.02777088
v -0.02476466 -0.01465588 -0.02734886
v -0.02404749 -0.01638025 -0.02695522
v -0.02334428 -0.01788619 -0.02663917
v -0.02290338 -0.01885462 -0.02568725
v -0.02543718 -0.01372892 -0.01173766
v -0.02461676 -0.01535555 -0.01110368
v -0.02423446 -0.01612259 -0.01110368
v -0.02478140 -0.01483802 -0.01017446
v -0.02407540 -0.01612999 -0.00987923
v -0.02359543 -0.01701179 -0.00987923
v -0.02304569 -0.01827045 -0.01101473
v -0.02151090 -0.02111058 -0.01335385
v -0.02133510 -0.02111058 -0.02775575
v -0.02221412 -0.01904342 -0.02809261
v -0.02404749 -0.01590418 -0.02764787
v -0.02287268 -0.01854366 -0.02731290
v -0.02170903 -0.02111058 -0.02685303
v -0.02177879 -0.02111058 -0.02597112
v -0.02283361 -0.01902861 -0.01626262
v -0.02178437 -0.02111058 -0.02427923
v -0.02392471 -0.01680967 -0.01173766
v -0.02351450 -0.01753525 -0.01110368
v -0.02316569 -0.01831784 -0.01205371
v -0.02165880 -0.02111058 -0.01427361
v -0.02282803 -0.01902269 -0.01332168
v -0.02176205 -0.02111058 -0.01950257
v -0.02171182 -0.02111058 -0.01517065
f 1 2 9
f 1 9 18
f 1 18 30
f 1 30 49
f 1 49 61
f 1 61 64
f 1 64 63
f 1 63 57
f 1 57 55
f 1 55 54
f 1 54 50
f 1 50 31
f 1 31 19
f 1 19 11
f 1 11 10
f 1 10 3
f 1 3 4
f 1 4 5
f 1 5 6
f 1 6 2
f 2 7 8
f 2 8 9
f 2 6 7
f 3 10 4
f 4 10 11
f 4 11 12
f 4 12 13
f 4 13 5
f 5 14 6
f 5 13 15
f 5 15 14
f 6 14 16
f 6 16 7
f 7 16 14
f 7 14 15
f 7 15 13
f 7 13 26
f 7 26 17
f 7 17 9
f 7 9 8
f 9 17 28
f 9 28 46
f 9 46 47
f 9 47 29
f 9 29 18
f 11 19 12
f 12 20 21
f 12 21 22
f 12 22 13
f 12 19 20
f 13 22 23
f 13 23 24
f 13 24 25
f 13 25 26
f 17 26 27
f 17 27 28
f 18 29 30
f 19 31 32
f 19 32 20
f 20 32 33
f 20 33 34
f 20 34 22
f 20 22 21
f 22 34 35
f 22 35 23
f 23 35 36
f 23 36 37
f 23 37 24
f 24 37 38
f 24 38 39
f 24 39 25
f 25 39 40
f 25 40 41
f 25 41 26
f 26 41 42
f 26 42 27
f 27 42 43
f 27 43 28
f 28 43 44
f 28 44 45
f 28 45 46
f 29 47 48
f 29 48 49
f 29 49 30
f 31 50 51
f 31 51 32
f 32 51 36
f 32 36 33
f 33 36 35
f 33 35 34
f 36 51 37
f 37 52 38
f 37 51 52
f 38 52 53
f 38 53 39
f 39 53 54
f 39 54 40
f 40 54 55
f 40 55 41
f 41 56 42
f 41 55 57
f 41 57 56
f 42 56 58
f 42 58 43
f 43 58 44
f 44 58 59
f 44 59 45
f 45 59 46
f 46 59 47
f 47 59 48
f 48 59 60
f 48 60 61
f 48 61 49
f 50 54 53
f 50 53 52
f 50 52 51
f 56 62 58
f 56 57 62
f 57 63 62
f 58 62 60
f 58 60 59
f 60 62 61
f 61 62 64
f 62 63 64

