# https://github.com/mikedh/trimesh
v -0.03801456 0.01093698 0.02307162
v -0.03767516 0.01104605 0.02754166
v -0.03764921 0.01170592 0.02613595
v -0.03763624 0.01191860 0.02378526
v -0.03800375 0.01116057 0.01471775
v -0.03791728 0.01032619 0.01347673
v -0.03773136 0.00942637 0.02299124
v -0.03762543 0.00925186 0.02599283
v -0.03706552 0.00891374 0.02788671
v -0.03647534 0.01009714 0.02874151
v -0.03660937 0.01197859 0.02819452
v -0.03638887 0.01288387 0.02568699
v -0.03758652 0.01202767 0.02219918
v -0.03784162 0.01093698 0.00926548
v -0.03714551 0.01285660 0.00928116
v -0.03784162 0.01023348 0.01173773
v -0.03771407 0.00952453 0.01474912
v -0.02588021 -0.01307465 0.01110251
v -0.02796421 -0.00930085 0.02568895
v -0.02700004 -0.01093689 0.02673980
v -0.02857385 -0.00766481 0.02732600
v -0.02284284 -0.01839724 0.02727895
v -0.02852197 -0.00693405 0.02788868
v -0.03535119 0.01123692 0.02906304
v -0.03439782 0.00689050 0.02895521
v -0.02604019 0.01683764 0.02886895
v -0.01942282 0.02096046 0.02856506
v -0.01784685 0.02270557 0.02771811
v -0.01987248 0.02206751 0.02659080
v -0.03580517 0.01383823 0.00926548
v -0.03711740 0.00890284 0.00926548
v -0.02702166 -0.01083328 0.01073393
v -0.02603154 -0.01272563 0.01062218
v -0.02509547 -0.01453073 0.01086332
v -0.02408373 -0.01645035 0.01110251
v -0.02310442 -0.01829908 0.01173576
v -0.02396050 -0.01684846 0.02505373
v -0.02323413 -0.01821728 0.02577521
v -0.02598182 -0.01263292 0.02717700
v -0.02442962 -0.01466707 0.02775928
v -0.01592931 -0.03144740 0.02561445
v -0.01606766 -0.02989861 0.02749069
v -0.02086044 -0.02080222 0.02785731
v -0.03314180 0.01014623 0.02926106
v -0.02613314 0.01592691 0.02919636
v -0.02633852 0.01615595 0.02909441
v -0.01598768 -0.02729731 0.02836901
v -0.01767823 -0.02311449 0.02862780
v -0.01598551 0.02170213 0.02880033
v -0.02353462 0.01724119 0.02916107
v -0.01617792 0.02383444 0.02708289
v -0.01877427 0.02269466 0.02568895
v -0.01592931 0.02424345 0.01173576
v -0.01595525 0.02417256 0.00926548
v -0.02493981 -0.01452528 0.00926548
v -0.01597470 -0.03146921 0.00926548
v -0.02214024 -0.02016962 0.01744487
v -0.01592931 -0.02321266 0.02867485
v -0.01998274 0.01141143 0.02922381
v -0.02180732 0.01617231 0.02929242
v -0.01592931 0.01705032 0.02893953
v -0.01599200 0.00697231 0.02895913
v -0.02045834 0.01458535 0.02925909
f 1 2 3
f 1 3 4
f 1 4 5
f 1 5 6
f 1 6 7
f 1 7 8
f 1 8 2
f 2 8 9
f 2 9 10
f 2 10 11
f 2 11 3
f 3 11 12
f 3 12 4
f 4 12 13
f 4 13 5
f 5 14 6
f 5 13 15
f 5 15 14
f 6 14 16
f 6 16 17
f 6 17 7
f 7 17 18
f 7 18 19
f 7 19 8
f 8 19 20
f 8 20 9
f 9 20 21
f 9 21 22
f 9 22 23
f 9 23 10
f 10 24 11
f 10 23 25
f 10 25 24
f 11 24 26
f 11 26 27
f 11 27 28
f 11 28 29
f 11 29 12
f 12 15 13
f 12 29 30
f 12 30 15
f 14 15 30
f 14 30 54
f 14 54 56
f 14 56 55
f 14 55 31
f 14 31 16
f 16 31 17
f 17 31 32
f 17 32 18
f 18 32 33
f 18 33 34
f 18 34 35
f 18 35 36
f 18 36 37
f 18 37 19
f 19 37 38
f 19 38 20
f 20 39 21
f 20 38 22
f 20 22 39
f 21 39 22
f 22 40 23
f 22 38 41
f 22 41 42
f 22 42 43
f 22 43 40
f 23 40 43
f 23 43 25
f 24 25 44
f 24 44 45
f 24 45 46
f 24 46 26
f 25 43 47
f 25 47 48
f 25 48 44
f 26 46 27
f 27 49 28
f 27 46 50
f 27 50 49
f 28 49 51
f 28 51 29
f 29 51 52
f 29 52 30
f 30 52 53
f 30 53 54
f 31 55 33
f 31 33 32
f 33 55 56
f 33 56 34
f 34 56 35
f 35 56 36
f 36 38 37
f 36 56 57
f 36 57 38
f 38 57 56
f 38 56 41
f 41 56 53
f 41 53 61
f 41 61 58
f 41 58 47
f 41 47 42
f 42 47 43
f 44 59 60
f 44 60 45
f 44 48 58
f 44 58 59
f 45 60 50
f 45 50 46
f 47 58 48
f 49 53 51
f 49 50 60
f 49 60 61
f 49 61 53
f 51 53 52
f 53 56 54
f 58 61 62
f 58 62 59
f 59 63 60
f 59 62 63
f 60 63 61
f 61 63 62

