# https://github.com/mikedh/trimesh
v -0.00303256 0.00505630 -0.00987923
v -0.02136699 0.00505630 -0.00987923
v -0.00303256 0.00300991 -0.00987923
v -0.00303256 0.00505630 -0.02904185
v -0.02136699 0.00300991 -0.00987923
v -0.02136699 0.00505630 -0.02870757
v -0.00303256 0.00300991 -0.02906439
v -0.00303256 0.00493531 -0.02904373
v -0.00324792 0.00505630 -0.02904185
v -0.02136699 0.00300991 -0.02874325
v -0.00793023 0.00505630 -0.02899302
v -0.00856376 0.00475724 -0.02899114
v -0.02136699 0.00360644 -0.02873574
v -0.00427986 0.00300991 -0.02905500
v -0.00349020 0.00475724 -0.02904373
v -0.00303256 0.00412285 -0.02905312
v -0.00303256 0.00430112 -0.02905124
v -0.00349020 0.00505630 -0.02903997
v -0.02136699 0.00348886 -0.02873762
v -0.00856376 0.00412285 -0.02899866
v -0.00919907 0.00300991 -0.02899678
v -0.00505695 0.00505630 -0.02902495
v -0.00793023 0.00475724 -0.02899866
v -0.00793023 0.00412285 -0.02900805
v -0.00554870 0.00300991 -0.02904373
v -0.00602608 0.00348886 -0.02903622
v -0.00475904 0.00412285 -0.02903997
v -0.00475904 0.00475724 -0.02903246
v -0.00412372 0.00505630 -0.02903434
v -0.00856376 0.00348886 -0.02900429
v -0.00856376 0.00300991 -0.02900805
v -0.00539256 0.00475724 -0.02902683
v -0.00729492 0.00412285 -0.02901556
v -0.00729492 0.00348886 -0.02902307
v -0.00793023 0.00348886 -0.02901368
v -0.00618222 0.00300991 -0.02903809
v -0.00602608 0.00412285 -0.02902870
v -0.00745105 0.00300991 -0.02902307
v -0.00666140 0.00300991 -0.02903246
v -0.00729492 0.00300991 -0.02902495
f 1 2 5
f 1 5 3
f 1 3 7
f 1 7 16
f 1 16 17
f 1 17 8
f 1 8 4
f 1 4 9
f 1 9 18
f 1 18 29
f 1 29 22
f 1 22 11
f 1 11 6
f 1 6 2
f 2 6 13
f 2 13 19
f 2 19 10
f 2 10 5
f 3 5 10
f 3 10 21
f 3 21 31
f 3 31 38
f 3 38 40
f 3 40 39
f 3 39 36
f 3 36 25
f 3 25 14
f 3 14 7
f 4 8 9
f 6 11 12
f 6 12 13
f 7 14 15
f 7 15 16
f 8 17 9
f 9 17 15
f 9 15 18
f 10 19 20
f 10 20 21
f 11 22 23
f 11 23 12
f 12 23 24
f 12 24 20
f 12 20 19
f 12 19 13
f 14 25 26
f 14 26 27
f 14 27 15
f 15 17 16
f 15 27 28
f 15 28 18
f 18 28 32
f 18 32 29
f 20 24 35
f 20 35 30
f 20 30 21
f 21 30 31
f 22 29 32
f 22 32 23
f 23 33 24
f 23 32 33
f 24 33 34
f 24 34 35
f 25 36 26
f 26 36 34
f 26 34 33
f 26 33 37
f 26 37 32
f 26 32 28
f 26 28 27
f 30 35 31
f 31 35 34
f 31 34 38
f 32 37 33
f 34 36 39
f 34 39 40
f 34 40 38

