# https://github.com/mikedh/trimesh
v -0.03632039 -0.01281050 0.01169746
v -0.03621144 -0.01643926 0.02089707
v -0.03581408 0.02050964 0.02734096
v -0.03607044 0.01346177 0.01169746
v -0.03628194 -0.02443867 0.01169746
v -0.03600635 -0.01931002 0.02806514
v -0.03599994 -0.00976233 0.02806514
v -0.03614094 -0.02766424 0.02156357
v -0.03596790 -0.02937380 0.02806514
v -0.03553208 0.03652459 0.02777835
v -0.03568590 0.03002507 0.02692761
v -0.03596790 0.02139667 0.01169746
v -0.03621785 -0.02932541 0.01169746
v -0.03521163 0.04710446 0.02806514
v -0.03592303 -0.04088908 0.02045327
v -0.03576281 -0.04445333 0.02781680
v -0.03586535 -0.03877633 0.02749477
v -0.03562822 -0.04943684 0.02794017
v -0.03474377 -0.07177390 0.02806514
v -0.03536545 0.04355633 0.02267547
v -0.03573717 0.03260552 0.01190414
v -0.03532058 0.04452400 0.01169746
v -0.03607685 -0.03726031 0.01169746
v -0.03501935 0.05245890 0.02806514
v -0.03594867 -0.04216318 0.01210922
v -0.03577562 -0.04711443 0.01867808
v -0.03525649 -0.06159724 0.02790973
v -0.03480786 -0.06751615 0.01169746
v -0.03330814 -0.07783798 0.01255302
v -0.03299410 -0.07925723 0.01827113
v -0.03213529 -0.07903144 0.02789371
v -0.01461938 -0.08141836 0.02806514
v -0.03531417 -0.05956513 0.01689808
v -0.03521804 -0.06040378 0.01169746
v -0.03473095 0.05924873 0.02794017
v -0.03477581 0.05779722 0.02134247
v -0.03505140 0.05068484 0.01169746
v -0.03569231 -0.04961424 0.01169746
v -0.03441691 0.06605468 0.02806514
v -0.03557053 -0.05343655 0.01920359
v 0.00086486 -0.08170866 0.01169746
v -0.02689269 -0.08070873 0.01275969
v -0.02400222 -0.08093452 0.02045327
v -0.01866989 -0.08120870 0.02401007
v 0.01244600 -0.08266020 0.02743389
v 0.02517436 -0.08143449 0.02775592
v 0.02775720 0.07871504 0.02800265
v 0.01042074 0.08094068 0.02806514
v -0.03401314 0.07429601 0.02806514
v -0.03278260 0.07992463 0.01232551
v -0.02667479 0.08190835 0.01169746
v 0.02477700 -0.08159577 0.01316985
v 0.01822696 -0.08285373 0.02312087
v 0.00265939 -0.08209573 0.01867808
v 0.02912233 0.06565148 0.01169746
v 0.02440527 -0.08254731 0.02156357
v 0.02915437 0.07645714 0.01169746
v 0.02738548 0.07995688 0.01566762
v 0.02633439 0.08048910 0.02134247
v 0.00444111 0.08108583 0.02806514
v -0.03293001 0.07952143 0.02806514
v -0.03111625 0.08137613 0.01778728
v -0.02670683 0.08185997 0.02223167
v -0.02648251 0.08169869 0.02779918
f 1 2 3
f 1 3 4
f 1 4 12
f 1 12 22
f 1 22 37
f 1 37 51
f 1 51 57
f 1 57 55
f 1 55 41
f 1 41 28
f 1 28 34
f 1 34 38
f 1 38 23
f 1 23 13
f 1 13 5
f 1 5 2
f 2 6 7
f 2 7 3
f 2 5 8
f 2 8 9
f 2 9 6
f 3 7 10
f 3 10 11
f 3 11 12
f 3 12 4
f 5 13 8
f 6 9 19
f 6 19 32
f 6 32 48
f 6 48 60
f 6 60 61
f 6 61 49
f 6 49 39
f 6 39 24
f 6 24 14
f 6 14 7
f 7 14 10
f 8 13 15
f 8 15 16
f 8 16 17
f 8 17 9
f 9 17 16
f 9 16 18
f 9 18 19
f 10 14 20
f 10 20 21
f 10 21 11
f 11 21 12
f 12 21 22
f 13 23 15
f 14 24 20
f 15 23 25
f 15 25 26
f 15 26 16
f 16 26 18
f 18 26 27
f 18 27 19
f 19 28 29
f 19 29 30
f 19 30 31
f 19 31 32
f 19 27 33
f 19 33 34
f 19 34 28
f 20 22 21
f 20 24 22
f 22 24 35
f 22 35 36
f 22 36 37
f 23 38 25
f 24 39 35
f 25 38 40
f 25 40 26
f 26 40 27
f 27 40 33
f 28 41 29
f 29 41 42
f 29 42 30
f 30 42 31
f 31 42 43
f 31 43 32
f 32 43 44
f 32 44 45
f 32 45 46
f 32 46 47
f 32 47 48
f 33 40 38
f 33 38 34
f 35 39 36
f 36 39 49
f 36 49 37
f 37 49 50
f 37 50 51
f 41 52 53
f 41 53 54
f 41 54 42
f 41 55 52
f 42 54 53
f 42 53 45
f 42 45 43
f 43 45 44
f 45 53 56
f 45 56 46
f 46 56 52
f 46 52 55
f 46 55 47
f 47 55 57
f 47 57 58
f 47 58 59
f 47 59 48
f 48 59 51
f 48 51 60
f 49 61 50
f 50 61 62
f 50 62 51
f 51 62 63
f 51 63 60
f 51 59 58
f 51 58 57
f 52 56 53
f 60 63 64
f 60 64 61
f 61 64 62
f 62 64 63

