# https://github.com/mikedh/trimesh
v -0.03672102 -0.00854840 -0.02202590
v -0.03655169 -0.02399916 -0.01544888
v -0.03640269 -0.02000107 0.00533085
v -0.03632142 -0.01213234 0.01121555
v -0.03657878 -0.00399282 -0.01200426
v -0.03664652 -0.00040888 -0.02108245
v -0.03654492 0.00862264 -0.02249763
v -0.03638915 0.01695331 -0.02297275
v -0.03464849 -0.06490383 -0.02297275
v -0.03641624 -0.03256875 -0.02148969
v -0.03642301 -0.03199532 -0.01333799
v -0.03627400 -0.02810874 0.00832071
v -0.03605727 0.01465959 0.01166013
v -0.03607759 -0.03709248 0.01121555
v -0.03577958 -0.04736643 0.01145651
v -0.03621982 0.01510559 -0.00089323
v -0.03594890 0.02326104 0.01076419
v -0.03576603 0.03135278 0.01169746
v -0.03615209 0.02604855 -0.02210735
v -0.03583376 0.03466593 -0.02297275
v -0.02044561 -0.08041830 -0.02297275
v -0.03233891 -0.07825202 -0.02285397
v -0.03379510 -0.07825202 -0.00553244
v -0.03405924 -0.07736001 0.00355254
v -0.03558994 -0.05177866 -0.01998967
v -0.03615886 -0.03999148 -0.01689460
v -0.03598277 -0.04311349 0.00133305
v -0.03481105 -0.06743648 0.01169746
v -0.03533933 -0.05786339 0.01049609
v -0.03519710 0.04742475 0.01169746
v -0.03511583 0.05129540 -0.01836748
v -0.02971778 0.08031733 -0.02004397
v 0.01030362 0.08085891 -0.02136073
v 0.03143524 0.05984907 -0.02234152
v 0.03224122 0.04208866 -0.02278609
v 0.03247150 0.03224478 -0.02297275
v -0.00640527 -0.08072094 -0.02297275
v 0.00086889 -0.08172445 0.01169746
v -0.02992097 -0.08025901 -0.01511629
v -0.03157357 -0.07982895 0.00444509
v -0.03363932 -0.07855466 0.00355254
v -0.02868152 -0.07971745 0.01163977
v 0.02911889 0.06564708 0.01169746
v 0.02807585 0.07823068 0.01167710
v -0.02977197 0.08100226 0.01038749
v 0.02578660 0.08044477 -0.00978137
v 0.02662644 0.07975983 -0.02062769
v 0.02957945 0.07558654 -0.01124406
v 0.02886152 0.07889969 0.00266678
v 0.03240377 0.00301577 -0.02297275
v 0.03234281 0.02010717 -0.02120462
v 0.03236991 0.01101194 -0.02197160
v 0.00621952 -0.08092802 -0.02297275
v -0.00977820 -0.08132624 0.01155832
v 0.02870574 -0.08035459 -0.01333799
v 0.02749338 -0.07970152 0.00825284
v 0.03228863 -0.00799090 -0.02297275
v 0.03201771 -0.02745567 -0.02295239
v 0.02810972 -0.07994045 -0.02227025
v 0.03009420 -0.06966649 -0.02297275
v 0.02936272 -0.07780601 -0.01444773
v 0.02867865 -0.07966966 -0.00317041
v 0.03157070 -0.04368692 -0.02297275
v 0.03066312 -0.06186147 -0.02297275
f 1 2 3
f 1 3 4
f 1 4 5
f 1 5 6
f 1 6 7
f 1 7 8
f 1 8 9
f 1 9 10
f 1 10 2
f 2 10 11
f 2 11 12
f 2 12 3
f 3 12 4
f 4 13 5
f 4 12 14
f 4 14 15
f 4 15 13
f 5 13 16
f 5 16 6
f 6 16 7
f 7 16 8
f 8 16 17
f 8 17 18
f 8 18 19
f 8 19 20
f 8 20 36
f 8 36 50
f 8 50 57
f 8 57 63
f 8 63 64
f 8 64 60
f 8 60 53
f 8 53 37
f 8 37 21
f 8 21 9
f 9 21 22
f 9 22 23
f 9 23 24
f 9 24 25
f 9 25 10
f 10 25 26
f 10 26 11
f 11 26 27
f 11 27 15
f 11 15 14
f 11 14 12
f 13 18 17
f 13 17 16
f 13 15 28
f 13 28 18
f 15 27 26
f 15 26 29
f 15 29 28
f 18 30 19
f 18 28 38
f 18 38 43
f 18 43 30
f 19 30 20
f 20 30 31
f 20 31 32
f 20 32 33
f 20 33 34
f 20 34 35
f 20 35 36
f 21 37 38
f 21 38 39
f 21 39 22
f 22 39 23
f 23 39 40
f 23 40 41
f 23 41 24
f 24 28 25
f 24 41 28
f 25 28 29
f 25 29 26
f 28 41 42
f 28 42 38
f 30 43 44
f 30 44 45
f 30 45 31
f 31 45 32
f 32 45 33
f 33 45 46
f 33 46 47
f 33 47 34
f 34 43 35
f 34 47 48
f 34 48 49
f 34 49 43
f 35 43 36
f 36 43 51
f 36 51 52
f 36 52 50
f 37 53 38
f 38 42 54
f 38 54 39
f 38 53 55
f 38 55 56
f 38 56 43
f 39 54 40
f 40 42 41
f 40 54 42
f 43 57 50
f 43 50 52
f 43 52 51
f 43 49 44
f 43 56 58
f 43 58 57
f 44 49 46
f 44 46 45
f 46 49 47
f 47 49 48
f 53 59 55
f 53 60 59
f 55 59 61
f 55 61 62
f 55 62 56
f 56 62 58
f 57 58 63
f 58 62 63
f 59 60 61
f 60 64 61
f 61 64 62
f 62 64 63

