# https://github.com/mikedh/trimesh
v -0.03677053 0.00708614 -0.06616281
v -0.03660501 0.02689500 -0.06616281
v -0.03666258 0.02891006 -0.07626506
v -0.03662660 0.01067819 -0.07737221
v -0.03669137 -0.00849112 -0.06745651
v 0.03587638 -0.00668633 -0.06616281
v -0.03519453 0.05560516 -0.06616281
v -0.03609407 0.04501298 -0.07090369
v -0.03585659 0.05001557 -0.08640785
v -0.03593575 0.03507788 -0.08916558
v -0.03638193 0.02134922 -0.08382450
v -0.03614445 0.00457170 -0.08581980
v -0.03603650 -0.00549482 -0.08554403
v -0.02887616 -0.00765005 -0.10548490
v -0.01227424 -0.00866634 -0.10742749
v 0.00905567 -0.00866634 -0.10728960
v 0.03653844 -0.00765881 -0.08782727
v 0.03643049 -0.00722076 -0.07672738
v 0.03663199 0.01057306 -0.07887679
v 0.03595554 0.01921151 -0.06927744
v 0.03537263 0.03202025 -0.06719291
v 0.03430038 0.04691414 -0.06616281
v 0.00757323 0.08074078 -0.06616281
v -0.02989084 0.08083715 -0.06750924
v -0.03256068 0.07980334 -0.08004478
v -0.03529528 0.05959146 -0.07580273
v -0.03497864 0.06416476 -0.09432823
v -0.03584220 0.02260206 -0.09041063
v -0.03451088 -0.00417189 -0.09550838
v -0.01971524 -0.00232329 -0.10713550
v -0.03367611 0.01157182 -0.09925972
v -0.03231600 0.04534590 -0.10364777
v -0.03167553 0.04890291 -0.10456836
v -0.02887616 0.04268252 -0.10584585
v -0.02258657 0.01245670 -0.10692866
v -0.01711017 0.00701605 -0.10729771
v -0.01362714 0.02412649 -0.10737881
v 0.00355048 0.02557208 -0.10759376
v -0.00265995 -0.00594163 -0.10754509
v 0.03165933 -0.00441720 -0.10129152
v 0.00844398 0.04135083 -0.10739909
v 0.03024885 0.03630444 -0.10317327
v 0.03657442 0.00201345 -0.09059312
v 0.03674713 0.00090079 -0.08271329
v 0.03671115 0.01579468 -0.08737306
v 0.03643769 0.02788501 -0.08423816
v 0.03558133 0.04810565 -0.08776238
v 0.03314177 0.05737490 -0.06616281
v 0.03150101 0.06908850 -0.06616281
v 0.02825547 0.07881334 -0.06772012
v 0.02944286 0.07868192 -0.08315534
v 0.01818781 0.07965440 -0.10123069
v -0.03228722 0.08034653 -0.09693186
v -0.03148123 0.07296092 -0.10341660
v -0.03455406 0.02224285 -0.09693186
v -0.01527510 0.07961059 -0.10486847
v 0.00658733 0.07333764 -0.10653933
v 0.03614984 0.01334157 -0.09337519
v 0.03519992 0.05314328 -0.09651009
v 0.03208391 0.06917612 -0.09670475
v 0.03630816 0.02668474 -0.09337519
v 0.03653844 0.02579987 -0.09159483
v -0.00355229 0.07966316 -0.10535107
f 1 2 3
f 1 3 4
f 1 4 5
f 1 5 6
f 1 6 22
f 1 22 48
f 1 48 49
f 1 49 23
f 1 23 7
f 1 7 2
f 2 7 8
f 2 8 3
f 3 8 9
f 3 9 10
f 3 10 11
f 3 11 4
f 4 11 12
f 4 12 13
f 4 13 5
f 5 13 14
f 5 14 15
f 5 15 16
f 5 16 17
f 5 17 18
f 5 18 6
f 6 18 19
f 6 19 20
f 6 20 21
f 6 21 22
f 7 23 24
f 7 24 25
f 7 25 26
f 7 26 8
f 8 26 9
f 9 26 27
f 9 27 10
f 10 27 28
f 10 28 11
f 11 28 12
f 12 28 13
f 13 28 29
f 13 29 14
f 14 30 15
f 14 29 31
f 14 31 32
f 14 32 33
f 14 33 34
f 14 34 35
f 14 35 30
f 15 30 36
f 15 36 37
f 15 37 38
f 15 38 39
f 15 39 16
f 16 40 17
f 16 39 38
f 16 38 41
f 16 41 42
f 16 42 40
f 17 40 43
f 17 43 44
f 17 44 18
f 18 44 19
f 19 44 45
f 19 45 46
f 19 46 20
f 20 46 21
f 21 46 47
f 21 47 22
f 22 47 48
f 23 49 50
f 23 50 51
f 23 51 52
f 23 52 53
f 23 53 24
f 24 53 25
f 25 53 27
f 25 27 26
f 27 53 54
f 27 54 32
f 27 32 55
f 27 55 28
f 28 55 29
f 29 55 31
f 30 35 36
f 31 55 32
f 32 54 33
f 33 54 34
f 34 54 56
f 34 56 57
f 34 57 37
f 34 37 35
f 35 37 36
f 37 57 41
f 37 41 38
f 40 58 43
f 40 42 59
f 40 59 58
f 41 57 42
f 42 57 52
f 42 52 60
f 42 60 59
f 43 58 61
f 43 61 62
f 43 62 45
f 43 45 44
f 45 62 46
f 46 62 47
f 47 62 59
f 47 59 49
f 47 49 48
f 49 59 60
f 49 60 51
f 49 51 50
f 51 60 52
f 52 63 53
f 52 57 63
f 53 63 56
f 53 56 54
f 56 63 57
f 58 59 61
f 59 62 61

