# https://github.com/mikedh/trimesh
v -0.03532207 -0.04533394 0.05954492
v -0.03512863 -0.06317141 0.05954492
v -0.03530206 -0.05245321 0.05956588
v -0.03505525 -0.06134837 0.07292947
v -0.03520868 -0.04178217 0.06492049
v -0.03496187 0.04456059 0.07292947
v -0.03517532 0.03555542 0.05956588
v -0.03495519 0.05156985 0.05955540
v -0.03438819 0.07024025 0.05954492
v -0.03474174 -0.07580693 0.05999954
v -0.03496853 -0.07024353 0.07292947
v -0.01781847 -0.08130747 0.05954492
v -0.03504858 -0.05067732 0.07292947
v -0.03488849 0.05189988 0.07292947
v -0.03509528 0.04445058 0.05956588
v -0.03467503 0.06335672 0.07292947
v -0.03476842 0.05978922 0.06178922
v -0.03379451 0.07836533 0.07070221
v -0.03321417 0.07905683 0.05954754
v 0.03063663 0.03465962 0.05954492
v -0.03273389 -0.08019165 0.06327756
v -0.03251376 -0.07951587 0.07223247
v -0.02311491 -0.08126032 0.07292947
v 0.00619562 -0.08143320 0.05955540
v -0.01157481 -0.08141748 0.06045417
v -0.01400290 -0.08143320 0.07292947
v 0.03006964 -0.02396042 0.05954492
v 0.02829526 0.07712378 0.07292947
v 0.02872885 0.07795672 0.06692110
v 0.02803510 0.07776813 0.05978730
v 0.03122365 0.04355478 0.06225301
v 0.03044986 0.00976575 0.05954492
v 0.03064330 0.06588696 0.06140403
v 0.03099684 0.05024972 0.06134507
v 0.01777575 -0.08137034 0.05956588
v -0.00443728 -0.08149607 0.07292947
v -0.00089520 -0.08144891 0.06314392
v -0.00623834 -0.08143320 0.06134507
v 0.03033646 -0.00444136 0.05954492
v 0.03202411 0.00319653 0.06927152
v 0.03006964 -0.04068206 0.06111056
v 0.02923581 -0.05954105 0.06022227
v 0.03281124 0.04977824 0.07292947
v 0.03235764 0.05938062 0.07278929
v 0.03169058 0.06312098 0.06847625
v 0.03113693 0.02133260 0.06269846
v 0.03202411 0.05001398 0.06751853
v 0.02596723 -0.08027023 0.06041355
v 0.02667431 -0.08006592 0.07281680
v 0.01866961 -0.08096172 0.07292947
v 0.01155877 -0.08118175 0.07292947
v 0.00532845 -0.08137034 0.07292947
v 0.03252441 0.01421333 0.07292947
v 0.03210416 -0.01119917 0.07197699
v 0.03271118 0.03289945 0.07292947
v 0.03265782 0.02620450 0.07292947
v 0.03111692 -0.04000628 0.07070221
v 0.03042317 -0.05565924 0.07029606
v 0.02858209 -0.07854149 0.06758666
v 0.02933587 -0.07024353 0.07292947
v 0.03239099 0.00443808 0.07292947
v 0.03149047 -0.03444287 0.07292947
v 0.03110357 -0.04556968 0.07292947
v 0.03000960 -0.06307711 0.07291768
f 1 2 3
f 1 3 4
f 1 4 5
f 1 5 6
f 1 6 7
f 1 7 8
f 1 8 9
f 1 9 20
f 1 20 32
f 1 32 39
f 1 39 27
f 1 27 12
f 1 12 2
f 2 10 11
f 2 11 3
f 2 12 10
f 3 11 4
f 4 11 23
f 4 23 26
f 4 26 36
f 4 36 52
f 4 52 51
f 4 51 50
f 4 50 60
f 4 60 63
f 4 63 62
f 4 62 61
f 4 61 53
f 4 53 56
f 4 56 55
f 4 55 43
f 4 43 28
f 4 28 16
f 4 16 14
f 4 14 6
f 4 6 13
f 4 13 5
f 5 13 6
f 6 14 15
f 6 15 7
f 7 15 8
f 8 15 16
f 8 16 17
f 8 17 9
f 9 17 16
f 9 16 18
f 9 18 19
f 9 19 20
f 10 12 21
f 10 21 22
f 10 22 11
f 11 22 23
f 12 24 25
f 12 25 26
f 12 26 23
f 12 23 21
f 12 27 24
f 14 16 15
f 16 28 18
f 18 29 19
f 18 28 29
f 19 29 30
f 19 30 20
f 20 31 32
f 20 30 33
f 20 33 34
f 20 34 31
f 21 23 22
f 24 35 36
f 24 36 37
f 24 37 38
f 24 38 25
f 24 27 35
f 25 38 36
f 25 36 26
f 27 39 40
f 27 40 41
f 27 41 42
f 27 42 35
f 28 43 44
f 28 44 29
f 29 44 45
f 29 45 33
f 29 33 30
f 31 40 46
f 31 46 32
f 31 34 47
f 31 47 43
f 31 43 40
f 32 46 39
f 33 45 43
f 33 43 47
f 33 47 34
f 35 42 48
f 35 48 49
f 35 49 50
f 35 50 51
f 35 51 52
f 35 52 36
f 36 38 37
f 39 46 40
f 40 53 54
f 40 54 41
f 40 43 55
f 40 55 56
f 40 56 53
f 41 57 42
f 41 54 57
f 42 57 58
f 42 58 59
f 42 59 48
f 43 45 44
f 48 59 49
f 49 59 60
f 49 60 50
f 53 61 54
f 54 61 62
f 54 62 57
f 57 63 58
f 57 62 63
f 58 63 64
f 58 64 59
f 59 64 60
f 60 64 63

