# https://github.com/mikedh/trimesh
v -0.03586330 0.00630960 0.02874399
v 0.02712960 0.00630960 0.02806915
v -0.03540021 0.00630960 0.04858331
v -0.03552708 0.00673104 0.04414266
v -0.03555880 0.01067932 0.04285124
v -0.03557149 0.01690488 0.04193338
v -0.03559052 0.01957404 0.04062991
v -0.03581889 0.01779214 0.02902919
v -0.03578083 0.02236889 0.02870985
v -0.03564127 0.03187729 0.02806915
v 0.02892487 0.01157397 0.04858331
v 0.02883606 0.00643529 0.04858331
v 0.02816997 0.07891652 0.02806915
v -0.03540655 0.01302315 0.04858331
v -0.03540655 0.01690488 0.04858331
v -0.03538752 0.02891238 0.04858331
v -0.03534946 0.03379967 0.04858331
v -0.03569836 0.02757411 0.02935054
v -0.03527968 0.03929325 0.04840255
v -0.03538118 0.03824333 0.04179480
v -0.03540021 0.03913798 0.03824188
v -0.03553977 0.03618047 0.02806915
v 0.02894390 0.07804405 0.04858331
v 0.02553733 0.08053575 0.02806915
v 0.02645083 0.08041745 0.03379520
v 0.02797966 0.07958935 0.03912961
v -0.03484196 0.05779988 0.04858331
v -0.03505765 0.05023604 0.04822179
v -0.03501959 0.05246157 0.04357427
v -0.03526065 0.04534875 0.03290747
v -0.03520990 0.04713065 0.02806915
v 0.02702176 0.07998122 0.04588799
v 0.02505521 0.08022521 0.04858331
v 0.00507891 0.08108289 0.02806915
v 0.01276747 0.08090544 0.02991892
v 0.01689088 0.08080193 0.03112800
v 0.01866711 0.08065405 0.04001733
v 0.02707885 0.08021782 0.04001733
v -0.03468972 0.06224354 0.04785826
v -0.03485465 0.05779988 0.03557468
v -0.03516549 0.04846154 0.03201774
v -0.03442962 0.06927502 0.04858331
v -0.03505765 0.05157432 0.02935054
v -0.03490540 0.05537472 0.02806915
v 0.02044969 0.08047660 0.04535174
v 0.01333206 0.08055053 0.04785826
v -0.02222435 0.08120119 0.04858331
v -0.02667128 0.08166700 0.02806915
v -0.02667128 0.08183706 0.03337946
v 0.00087939 0.08120119 0.03112800
v 0.00621444 0.08094241 0.04001733
v -0.03409975 0.07736382 0.04660500
v -0.03324335 0.07998861 0.04858331
v -0.03461359 0.06185167 0.02806915
v 0.00177385 0.08089065 0.04535174
v -0.02755940 0.08162264 0.04090707
v -0.03023010 0.08128252 0.04858331
v -0.03196827 0.08105331 0.03157186
v -0.03393482 0.07583330 0.02806915
v -0.03290079 0.07997383 0.02854917
v -0.03390310 0.07780005 0.03201774
v -0.03444866 0.06540808 0.02806915
v -0.03347172 0.08021782 0.04221255
v -0.03415685 0.07138225 0.02806915
f 1 2 3
f 1 3 4
f 1 4 5
f 1 5 6
f 1 6 7
f 1 7 8
f 1 8 9
f 1 9 10
f 1 10 2
f 2 11 12
f 2 12 3
f 2 10 22
f 2 22 31
f 2 31 44
f 2 44 54
f 2 54 62
f 2 62 64
f 2 64 59
f 2 59 48
f 2 48 34
f 2 34 24
f 2 24 13
f 2 13 11
f 3 12 11
f 3 11 23
f 3 23 33
f 3 33 47
f 3 47 57
f 3 57 53
f 3 53 42
f 3 42 27
f 3 27 17
f 3 17 16
f 3 16 15
f 3 15 14
f 3 14 4
f 4 14 15
f 4 15 5
f 5 15 16
f 5 16 6
f 6 16 7
f 7 16 8
f 8 16 17
f 8 17 9
f 9 18 10
f 9 17 19
f 9 19 18
f 10 18 20
f 10 20 21
f 10 21 22
f 11 13 23
f 13 24 25
f 13 25 26
f 13 26 23
f 17 27 19
f 18 19 20
f 19 27 28
f 19 28 20
f 20 28 21
f 21 28 22
f 22 28 29
f 22 29 30
f 22 30 31
f 23 26 32
f 23 32 33
f 24 34 35
f 24 35 36
f 24 36 37
f 24 37 25
f 25 33 38
f 25 38 26
f 25 37 33
f 26 38 32
f 27 39 40
f 27 40 41
f 27 41 29
f 27 29 28
f 27 42 39
f 29 41 30
f 30 41 31
f 31 41 40
f 31 40 43
f 31 43 44
f 32 38 33
f 33 37 45
f 33 45 46
f 33 46 47
f 34 48 49
f 34 49 50
f 34 50 35
f 35 50 36
f 36 50 37
f 37 50 49
f 37 49 51
f 37 51 45
f 39 42 40
f 40 44 43
f 40 42 52
f 40 52 44
f 42 53 52
f 44 52 54
f 45 51 55
f 45 55 46
f 46 55 47
f 47 56 57
f 47 55 56
f 48 58 49
f 48 59 60
f 48 60 58
f 49 58 57
f 49 57 56
f 49 56 55
f 49 55 51
f 52 61 62
f 52 62 54
f 52 53 63
f 52 63 61
f 53 57 63
f 57 58 63
f 58 60 63
f 59 64 61
f 59 61 60
f 60 61 63
f 61 64 62

