# https://github.com/mikedh/trimesh
v 0.00005635 0.02471715 -0.02788063
v -0.00006466 0.02471272 -0.03105902
v -0.00026250 0.02452363 -0.03233346
v -0.00054485 0.02221818 -0.02788063
v 0.00836567 0.02052970 -0.02787957
v 0.00936255 0.02288842 -0.02787957
v 0.00160066 0.02468164 -0.02788063
v 0.00124916 0.02471094 -0.02939625
v 0.00111086 0.02469585 -0.03092037
v 0.00224413 0.02458932 -0.03152120
v 0.00185997 0.02410195 -0.03302619
v 0.00076512 0.02395459 -0.03319406
v -0.00051220 0.02322221 -0.03305488
v -0.00054485 0.02228476 -0.03168110
v -0.00054485 0.02222528 -0.03057294
v 0.01582215 0.01564893 -0.03100430
v 0.01581063 0.01564893 -0.02787957
v 0.00931261 0.02291239 -0.02925760
v 0.00827923 0.02331276 -0.02788010
v 0.00423790 0.02436206 -0.02788063
v 0.00271088 0.02458843 -0.02788063
v 0.01058033 0.02236465 -0.02787957
v 0.00366166 0.02443840 -0.03076897
v 0.00561510 0.02396968 -0.03174697
v 0.00504271 0.02385250 -0.03260279
v 0.00610874 0.02299406 -0.03315900
v 0.01154456 0.02057764 -0.03330668
v 0.01568962 0.01773689 -0.03323815
v 0.01673068 0.01564893 -0.03302353
v 0.01603920 0.01564893 -0.03222987
v 0.01796767 0.01564893 -0.03304000
v 0.01886659 0.01565248 -0.03217143
v 0.01907404 0.01568267 -0.03102343
v 0.01883586 0.01601113 -0.02787957
v 0.00946051 0.02284492 -0.03043588
v 0.00841368 0.02321422 -0.03161310
v 0.00709603 0.02369004 -0.02991633
v 0.00653516 0.02386848 -0.02805116
v 0.00554787 0.02409130 -0.03008951
v 0.00393634 0.02441266 -0.02939625
v 0.01196329 0.02166334 -0.02787957
v 0.01127181 0.02195186 -0.03179213
v 0.00983314 0.02266027 -0.03148348
v 0.00726121 0.02357908 -0.03163382
v 0.00734765 0.02321067 -0.03270957
v 0.00834069 0.02281119 -0.03279191
v 0.01031142 0.02190747 -0.03283016
v 0.01210927 0.02115467 -0.03271010
v 0.01512875 0.01929309 -0.03237117
v 0.01761232 0.01684738 -0.03272817
v 0.01809444 0.01679145 -0.03142504
v 0.01757775 0.01740399 -0.02787957
v 0.01385719 0.02050307 -0.02787957
v 0.01266246 0.02124167 -0.03022817
v 0.01247999 0.02131624 -0.03126195
v 0.01408192 0.02004766 -0.03233505
v 0.01496164 0.01968103 -0.03105902
v 0.01605264 0.01878619 -0.03126674
v 0.01676141 0.01802451 -0.03201525
v 0.01720127 0.01775908 -0.03096552
v 0.01664425 0.01831125 -0.02950462
v 0.01634845 0.01854561 -0.02787957
v 0.01523055 0.01949727 -0.02787957
v 0.01391097 0.02042850 -0.03105902
f 1 2 3
f 1 3 4
f 1 4 5
f 1 5 6
f 1 6 7
f 1 7 8
f 1 8 2
f 2 8 9
f 2 9 10
f 2 10 3
f 3 10 11
f 3 11 12
f 3 12 13
f 3 13 4
f 4 13 14
f 4 14 15
f 4 15 16
f 4 16 17
f 4 17 5
f 5 17 34
f 5 34 52
f 5 52 62
f 5 62 63
f 5 63 53
f 5 53 41
f 5 41 22
f 5 22 6
f 6 18 19
f 6 19 20
f 6 20 21
f 6 21 7
f 6 22 18
f 7 21 8
f 8 21 10
f 8 10 9
f 10 21 23
f 10 23 24
f 10 24 25
f 10 25 11
f 11 25 26
f 11 26 12
f 12 26 27
f 12 27 28
f 12 28 13
f 13 28 29
f 13 29 14
f 14 29 30
f 14 30 16
f 14 16 15
f 16 30 29
f 16 29 31
f 16 31 17
f 17 31 32
f 17 32 33
f 17 33 34
f 18 22 35
f 18 35 19
f 19 35 36
f 19 36 37
f 19 37 38
f 19 38 20
f 20 38 39
f 20 39 40
f 20 40 21
f 21 40 23
f 22 41 42
f 22 42 43
f 22 43 35
f 23 40 39
f 23 39 24
f 24 39 44
f 24 44 25
f 25 44 45
f 25 45 26
f 26 45 46
f 26 46 27
f 27 47 48
f 27 48 28
f 27 46 47
f 28 48 49
f 28 49 50
f 28 50 31
f 28 31 29
f 31 50 32
f 32 51 33
f 32 50 51
f 33 51 34
f 34 51 52
f 35 43 36
f 36 43 42
f 36 42 46
f 36 46 45
f 36 45 44
f 36 44 37
f 37 44 39
f 37 39 38
f 41 53 54
f 41 54 42
f 42 54 55
f 42 55 56
f 42 56 48
f 42 48 46
f 46 48 47
f 48 56 49
f 49 56 57
f 49 57 58
f 49 58 59
f 49 59 50
f 50 59 51
f 51 59 60
f 51 60 52
f 52 60 61
f 52 61 62
f 53 63 57
f 53 57 64
f 53 64 54
f 54 64 55
f 55 64 56
f 56 64 57
f 57 63 58
f 58 61 60
f 58 60 59
f 58 63 61
f 61 63 62

