# https://github.com/mikedh/trimesh
v -0.00866165 0.03148274 0.02997146
v -0.00866165 0.02756167 0.02899764
v -0.00948098 0.03045966 0.02914300
v -0.01130116 0.03036675 0.02943728
v -0.01278162 0.02995707 0.02966335
v -0.01053346 0.03099134 0.03038703
v -0.00933277 0.03132827 0.03132607
v -0.00906965 0.03020444 0.03301554
v -0.00866165 0.02651955 0.03269718
v -0.00866165 0.02520768 0.02992464
v -0.01635537 0.02094969 0.02882686
v -0.01635537 0.02378499 0.02882686
v -0.01137277 0.02967164 0.02904535
v -0.01392236 0.02879295 0.02915593
v -0.01543612 0.02838439 0.02931511
v -0.01660849 0.02815268 0.03006554
v -0.01382577 0.02968731 0.03049047
v -0.01200392 0.03047868 0.03050563
v -0.01156761 0.03063315 0.03141971
v -0.01044686 0.03017310 0.03270699
v -0.01203223 0.02931568 0.03292146
v -0.01362427 0.02810343 0.03319167
v -0.00895475 0.02817619 0.03331117
v -0.00866165 0.02568228 0.03170240
v -0.02112314 0.02004749 0.03327594
v -0.01903651 0.02004749 0.03248939
v -0.01773258 0.02004749 0.03095732
v -0.01743449 0.02004749 0.02936996
v -0.02054361 0.02029263 0.02882686
v -0.01738619 0.02307756 0.02882686
v -0.02010397 0.02454391 0.02897847
v -0.01871178 0.02608413 0.02915771
v -0.02108151 0.02465808 0.02934409
v -0.01541447 0.02885339 0.03051321
v -0.02086668 0.02534872 0.03039550
v -0.01822051 0.02721355 0.03045569
v -0.01284324 0.03010258 0.03152583
v -0.01366923 0.02943209 0.03221606
v -0.01564928 0.02770270 0.03291611
v -0.01853692 0.02520208 0.03324607
v -0.01693489 0.02559945 0.03338206
v -0.02222058 0.02062732 0.03336423
v -0.02369104 0.02025457 0.03321441
v -0.02567442 0.02031838 0.03080081
v -0.02478348 0.02043927 0.02928657
v -0.01912977 0.02162801 0.02882686
v -0.02209901 0.02344695 0.02919517
v -0.02202074 0.02438832 0.03024657
v -0.01866015 0.02690461 0.03128594
v -0.01643697 0.02807545 0.03203905
v -0.02037708 0.02555916 0.03179425
v -0.01953444 0.02633150 0.03059124
v -0.01497316 0.02883660 0.03216434
v -0.01703648 0.02714079 0.03278725
v -0.01802067 0.02636285 0.03288044
v -0.02024053 0.02469278 0.03287464
v -0.02152781 0.02242722 0.03329200
v -0.02287504 0.02267572 0.03250500
v -0.02385091 0.02164592 0.03244347
v -0.02506159 0.02073589 0.03189279
v -0.02412735 0.02220447 0.03057742
v -0.02290335 0.02352978 0.03082623
v -0.01932461 0.02599234 0.03239308
v -0.02155445 0.02400326 0.03252016
f 1 2 3
f 1 3 4
f 1 4 5
f 1 5 6
f 1 6 7
f 1 7 8
f 1 8 9
f 1 9 24
f 1 24 10
f 1 10 2
f 2 10 11
f 2 11 12
f 2 12 13
f 2 13 3
f 3 13 4
f 4 13 14
f 4 14 15
f 4 15 5
f 5 15 16
f 5 16 17
f 5 17 18
f 5 18 6
f 6 18 19
f 6 19 7
f 7 19 20
f 7 20 8
f 8 20 21
f 8 21 22
f 8 22 23
f 8 23 9
f 9 23 25
f 9 25 26
f 9 26 24
f 10 24 27
f 10 27 28
f 10 28 11
f 11 28 29
f 11 29 46
f 11 46 30
f 11 30 12
f 12 30 31
f 12 31 13
f 13 31 14
f 14 31 32
f 14 32 15
f 15 32 33
f 15 33 16
f 16 34 17
f 16 33 35
f 16 35 36
f 16 36 34
f 17 34 37
f 17 37 18
f 18 37 19
f 19 37 38
f 19 38 20
f 20 38 21
f 21 38 39
f 21 39 22
f 22 39 40
f 22 40 41
f 22 41 23
f 23 41 42
f 23 42 25
f 24 26 27
f 25 42 43
f 25 43 44
f 25 44 28
f 25 28 27
f 25 27 26
f 28 44 45
f 28 45 29
f 29 45 31
f 29 31 46
f 30 46 31
f 31 45 47
f 31 47 33
f 31 33 32
f 33 47 48
f 33 48 35
f 34 36 49
f 34 49 50
f 34 50 37
f 35 48 51
f 35 51 52
f 35 52 36
f 36 52 49
f 37 50 53
f 37 53 38
f 38 53 39
f 39 53 54
f 39 54 55
f 39 55 40
f 40 55 56
f 40 56 57
f 40 57 41
f 41 57 42
f 42 57 43
f 43 58 59
f 43 59 60
f 43 60 44
f 43 57 58
f 44 60 61
f 44 61 45
f 45 61 48
f 45 48 47
f 48 61 62
f 48 62 51
f 49 52 51
f 49 51 50
f 50 54 53
f 50 51 63
f 50 63 54
f 51 62 64
f 51 64 63
f 54 63 55
f 55 63 56
f 56 63 64
f 56 64 58
f 56 58 57
f 58 62 60
f 58 60 59
f 58 64 62
f 60 62 61

