# https://github.com/mikedh/trimesh
v -0.01405891 -0.01682109 -0.02787846
v -0.01405891 -0.01684873 -0.03027618
v -0.01405891 -0.01782892 -0.03294589
v -0.01390119 -0.02007842 -0.02819951
v -0.01298229 -0.02066937 -0.02787846
v -0.00750044 -0.02056553 -0.02787846
v -0.00004776 -0.02190432 -0.02787953
v -0.01405891 -0.01691746 -0.03162490
v -0.00004776 -0.02197679 -0.03150384
v -0.01393822 -0.01892491 -0.03305735
v -0.01388061 -0.01985803 -0.03229579
v -0.01405891 -0.01720659 -0.03237046
v -0.00004776 -0.02238695 -0.03279283
v -0.00004776 -0.02337236 -0.03321094
v -0.00295258 -0.02296594 -0.03332613
v -0.01384770 -0.02009859 -0.02978501
v -0.01216351 -0.02116544 -0.02787846
v -0.01318801 -0.02050800 -0.03036684
v -0.01274776 -0.02079713 -0.02939624
v -0.00895559 -0.02272314 -0.02787846
v -0.00016434 -0.02438019 -0.02787953
v -0.00004776 -0.02443697 -0.02912319
v -0.00501941 -0.02274929 -0.03328080
v -0.00998147 -0.02135222 -0.03305362
v -0.01320996 -0.01978183 -0.03292776
v -0.01177812 -0.02115125 -0.03231713
v -0.01293291 -0.02054610 -0.03207607
v -0.01371329 -0.02014491 -0.03126172
v -0.00010673 -0.02412543 -0.03259018
v -0.00097215 -0.02412917 -0.03260884
v -0.00506056 -0.02343736 -0.03274003
v -0.01107866 -0.02167496 -0.03163130
v -0.01095797 -0.02181243 -0.02787846
v -0.01228831 -0.02104442 -0.03045644
v -0.01207985 -0.02111315 -0.03161317
v -0.00730020 -0.02330214 -0.02787900
v -0.00326391 -0.02419940 -0.02787953
v -0.00237792 -0.02428307 -0.02787953
v -0.00996227 -0.02228459 -0.02787846
v -0.00995404 -0.02220839 -0.03160517
v -0.00902828 -0.02259987 -0.03161317
v -0.00738249 -0.02318783 -0.03161530
v -0.00016434 -0.02445266 -0.02995087
v -0.00018217 -0.02440783 -0.03157690
v -0.00665697 -0.02291514 -0.03288349
v -0.00831785 -0.02213219 -0.03302055
v -0.01079065 -0.02148371 -0.03267870
v -0.00948636 -0.02213219 -0.03261311
v -0.00111067 -0.02434359 -0.03175236
v -0.00208168 -0.02404923 -0.03249365
v -0.00663777 -0.02328420 -0.03228673
v -0.00758822 -0.02275676 -0.03274270
v -0.00360678 -0.02393194 -0.03232513
v -0.00606312 -0.02367568 -0.02789553
v -0.00499610 -0.02390205 -0.02787953
v -0.00426647 -0.02404325 -0.02822191
v -0.00332974 -0.02411049 -0.03161317
v -0.00249724 -0.02421359 -0.03161317
v -0.00166612 -0.02432939 -0.03078175
v -0.00815053 -0.02291215 -0.03165263
v -0.00582448 -0.02361069 -0.03168250
v -0.00439676 -0.02380717 -0.03220940
v -0.00498376 -0.02390280 -0.02911945
v -0.00453116 -0.02393194 -0.03129852
f 1 2 8
f 1 8 12
f 1 12 3
f 1 3 4
f 1 4 5
f 1 5 17
f 1 17 33
f 1 33 39
f 1 39 20
f 1 20 6
f 1 6 7
f 1 7 2
f 2 7 9
f 2 9 8
f 3 10 11
f 3 11 4
f 3 12 13
f 3 13 14
f 3 14 15
f 3 15 10
f 4 11 16
f 4 16 5
f 5 16 18
f 5 18 19
f 5 19 17
f 6 20 21
f 6 21 7
f 7 21 22
f 7 22 14
f 7 14 13
f 7 13 9
f 8 9 13
f 8 13 12
f 10 15 23
f 10 23 24
f 10 24 25
f 10 25 11
f 11 25 26
f 11 26 27
f 11 27 28
f 11 28 16
f 14 22 29
f 14 29 30
f 14 30 15
f 15 30 31
f 15 31 23
f 16 28 18
f 17 32 33
f 17 19 34
f 17 34 32
f 18 28 35
f 18 35 34
f 18 34 19
f 20 36 37
f 20 37 38
f 20 38 21
f 20 39 40
f 20 40 41
f 20 41 42
f 20 42 36
f 21 38 22
f 22 38 43
f 22 43 44
f 22 44 29
f 23 31 45
f 23 45 46
f 23 46 24
f 24 46 47
f 24 47 25
f 25 47 26
f 26 47 48
f 26 48 40
f 26 40 32
f 26 32 27
f 27 32 35
f 27 35 28
f 29 44 30
f 30 44 49
f 30 49 50
f 30 50 31
f 31 51 52
f 31 52 45
f 31 50 53
f 31 53 51
f 32 39 33
f 32 34 35
f 32 40 39
f 36 42 54
f 36 54 55
f 36 55 37
f 37 55 56
f 37 56 57
f 37 57 58
f 37 58 59
f 37 59 38
f 38 59 43
f 40 48 41
f 41 48 51
f 41 51 60
f 41 60 42
f 42 51 61
f 42 61 54
f 42 60 51
f 43 59 49
f 43 49 44
f 45 52 46
f 46 52 48
f 46 48 47
f 48 52 51
f 49 59 58
f 49 58 53
f 49 53 50
f 51 53 62
f 51 62 61
f 53 57 62
f 53 58 57
f 54 61 63
f 54 63 55
f 55 63 56
f 56 63 64
f 56 64 57
f 57 64 62
f 61 62 64
f 61 64 63

