# https://github.com/mikedh/trimesh
v 0.01069549 0.02686320 0.02898451
v 0.01025976 0.02704056 0.02898451
v -0.00010903 0.02657020 0.02898451
v 0.01069549 0.02422331 0.02892362
v 0.01069549 0.02649279 0.00824736
v 0.01045859 0.02659029 0.00824736
v 0.00998478 0.02714737 0.02898451
v 0.01018149 0.02670004 0.00824736
v -0.00010903 0.02887594 0.02898451
v -0.00010903 0.02654031 0.02800612
v 0.01069549 0.02412433 0.02578747
v 0.01069549 0.02389552 0.00824736
v 0.00866277 0.02758245 0.02898451
v 0.00970557 0.02687691 0.00824736
v 0.00909427 0.02708319 0.00824736
v 0.00090099 0.02886026 0.02898451
v 0.00083224 0.02868731 0.01636278
v 0.00083224 0.02856972 0.00824736
v 0.00062707 0.02856776 0.00824736
v 0.00027806 0.02856139 0.00824736
v -0.00010903 0.02854718 0.00824736
v -0.00010903 0.02653051 0.02762247
v -0.00010903 0.02648250 0.02540382
v -0.00010903 0.02627672 0.01265015
v 0.01069549 0.02387152 0.00965406
v -0.00010903 0.02652659 0.02745196
v -0.00010903 0.02651778 0.02706629
v -0.00010903 0.02649328 0.02595798
v -0.00010903 0.02620910 0.00824736
v 0.01069549 0.02387445 0.00910397
v 0.00884573 0.02716844 0.00859853
v 0.00829578 0.02769906 0.02898451
v 0.00883410 0.02716452 0.00824736
v 0.00144883 0.02884997 0.02898451
v 0.00118231 0.02856286 0.00824736
v 0.00804195 0.02744624 0.01026099
v 0.00865960 0.02721793 0.00824736
v 0.00734499 0.02762018 0.00824736
v 0.00686907 0.02776472 0.00824736
v 0.00637728 0.02789260 0.00824736
v 0.00797004 0.02778333 0.02898451
v 0.00171323 0.02884262 0.02898451
v 0.00138749 0.02855698 0.00824736
v 0.00582309 0.02801411 0.00824736
v 0.00579136 0.02832180 0.02898451
v 0.00634026 0.02819490 0.02898451
v 0.00206647 0.02882449 0.02898451
v 0.00249586 0.02850994 0.00824736
v 0.00194167 0.02853444 0.00824736
v 0.00527102 0.02813023 0.00824736
v 0.00531967 0.02841832 0.02898451
v 0.00249586 0.02878775 0.02898451
v 0.00305110 0.02846144 0.00824736
v 0.00305110 0.02846634 0.00859853
v 0.00506479 0.02816893 0.00824736
v 0.00471472 0.02853346 0.02898451
v 0.00416159 0.02860989 0.02898451
v 0.00360529 0.02839431 0.00859853
v 0.00360529 0.02838892 0.00824736
v 0.00466184 0.02824243 0.00824736
v 0.00441013 0.02828211 0.00824736
v 0.00393315 0.02834581 0.00824736
f 1 2 7
f 1 7 13
f 1 13 32
f 1 32 41
f 1 41 46
f 1 46 45
f 1 45 51
f 1 51 56
f 1 56 57
f 1 57 52
f 1 52 47
f 1 47 42
f 1 42 34
f 1 34 16
f 1 16 9
f 1 9 3
f 1 3 4
f 1 4 11
f 1 11 25
f 1 25 30
f 1 30 12
f 1 12 5
f 1 5 6
f 1 6 2
f 2 6 8
f 2 8 7
f 3 9 21
f 3 21 29
f 3 29 24
f 3 24 23
f 3 23 28
f 3 28 27
f 3 27 26
f 3 26 22
f 3 22 10
f 3 10 11
f 3 11 4
f 5 12 29
f 5 29 21
f 5 21 20
f 5 20 19
f 5 19 18
f 5 18 35
f 5 35 43
f 5 43 49
f 5 49 48
f 5 48 53
f 5 53 59
f 5 59 62
f 5 62 61
f 5 61 60
f 5 60 55
f 5 55 50
f 5 50 44
f 5 44 40
f 5 40 39
f 5 39 38
f 5 38 37
f 5 37 33
f 5 33 15
f 5 15 14
f 5 14 8
f 5 8 6
f 7 8 14
f 7 14 15
f 7 15 13
f 9 16 17
f 9 17 18
f 9 18 19
f 9 19 20
f 9 20 21
f 10 22 11
f 11 23 24
f 11 24 25
f 11 22 26
f 11 26 27
f 11 27 28
f 11 28 23
f 12 30 29
f 13 15 31
f 13 31 32
f 15 33 31
f 16 34 17
f 17 34 35
f 17 35 18
f 24 29 25
f 25 29 30
f 31 36 32
f 31 33 37
f 31 37 38
f 31 38 36
f 32 36 39
f 32 39 40
f 32 40 41
f 34 42 35
f 35 42 43
f 36 38 39
f 40 44 45
f 40 45 46
f 40 46 41
f 42 47 48
f 42 48 49
f 42 49 43
f 44 50 45
f 45 50 51
f 47 52 48
f 48 52 54
f 48 54 53
f 50 55 56
f 50 56 51
f 52 57 54
f 53 54 57
f 53 57 58
f 53 58 59
f 55 60 56
f 56 60 61
f 56 61 57
f 57 61 62
f 57 62 58
f 58 62 59

