# https://github.com/mikedh/trimesh
v 0.02431340 -0.00936021 0.00824102
v 0.02691447 -0.00936021 0.00878185
v 0.02455887 -0.00936021 0.02772645
v 0.02373565 -0.00929483 -0.02134153
v 0.02373218 -0.00929483 -0.02475450
v 0.02735733 -0.00925523 0.02888685
v 0.02460053 -0.00936021 0.02871883
v 0.02661544 -0.00929483 -0.02189811
v 0.02441258 -0.00096856 -0.00962717
v 0.02440762 -0.00100724 -0.01105537
v 0.02524721 -0.00094646 -0.02475450
v 0.02784283 -0.00360586 -0.02471249
v 0.02725418 -0.00666766 -0.02471249
v 0.02662387 -0.00891452 -0.02438695
v 0.02660701 -0.00912539 -0.02355208
v 0.02468434 -0.00094646 -0.01979257
v 0.02470963 -0.00127796 -0.02156206
v 0.02774414 -0.00793198 0.02888685
v 0.02879846 0.00004713 0.02888685
v 0.02715301 -0.00748537 -0.02259645
v 0.02630995 0.00004713 0.02866107
v 0.02672801 -0.00887953 -0.02259120
v 0.02688670 -0.00831781 -0.02328430
v 0.02628069 0.00004713 0.02755317
v 0.02610316 0.00004713 0.01247836
v 0.02605505 0.00004713 0.00824102
v 0.02806599 -0.00116746 -0.02439745
v 0.02800003 -0.00194189 -0.02471249
v 0.02792862 -0.00275500 -0.02471249
v 0.02470815 -0.00105696 -0.02066944
v 0.02843098 0.00004713 0.00824102
v 0.02812302 -0.00105696 -0.02328430
v 0.02796383 -0.00319056 -0.02363609
v 0.02785027 -0.00416112 -0.02356258
v 0.02775951 -0.00440054 -0.02440270
v 0.02756859 -0.00540610 -0.02432919
v 0.02746891 -0.00609950 -0.02370435
v 0.02717979 -0.00722753 -0.02381462
v 0.02693977 -0.00789238 -0.02441845
v 0.02810666 -0.00648533 0.02888685
v 0.02731666 -0.00693194 -0.02189811
v 0.02878110 -0.00099711 0.02888685
v 0.02837296 -0.00094646 -0.00803621
v 0.02861249 0.00004713 0.01635864
v 0.02750511 -0.00609950 -0.02273297
v 0.02804665 -0.00221907 -0.02384087
v 0.02849099 0.00004713 0.01048833
v 0.02856935 0.00004713 0.01385930
v 0.02834618 -0.00138754 -0.00886582
v 0.02829907 -0.00213987 -0.00945915
v 0.02791672 -0.00388303 -0.02273297
v 0.02772480 -0.00505711 -0.02257545
v 0.02769604 -0.00502303 -0.02356258
v 0.02844289 -0.00477256 0.02888685
v 0.02752396 -0.00609950 -0.02189811
v 0.02776001 -0.00566762 -0.01135991
v 0.02783837 -0.00526706 -0.01219478
v 0.02794697 -0.00471363 -0.01247306
v 0.02871514 -0.00232957 0.02888685
v 0.02817113 -0.00332868 -0.00970068
v 0.02808137 -0.00360586 -0.01413754
v 0.02861695 -0.00349259 0.02888685
v 0.02801342 -0.00443830 -0.01094510
v 0.02773323 -0.00527166 -0.01940401
f 1 2 7
f 1 7 3
f 1 3 4
f 1 4 5
f 1 5 2
f 2 6 7
f 2 5 8
f 2 8 6
f 3 7 9
f 3 9 4
f 4 9 10
f 4 10 5
f 5 11 12
f 5 12 13
f 5 13 14
f 5 14 15
f 5 15 8
f 5 10 16
f 5 16 17
f 5 17 11
f 6 18 40
f 6 40 54
f 6 54 62
f 6 62 59
f 6 59 42
f 6 42 19
f 6 19 7
f 6 8 20
f 6 20 18
f 7 21 9
f 7 19 21
f 8 15 22
f 8 22 23
f 8 23 20
f 9 21 24
f 9 24 25
f 9 25 26
f 9 26 16
f 9 16 10
f 11 27 28
f 11 28 29
f 11 29 12
f 11 17 30
f 11 30 16
f 11 16 26
f 11 26 31
f 11 31 32
f 11 32 27
f 12 29 33
f 12 33 34
f 12 34 35
f 12 35 13
f 13 35 36
f 13 36 37
f 13 37 38
f 13 38 39
f 13 39 14
f 14 39 23
f 14 23 15
f 15 23 22
f 16 30 17
f 18 20 41
f 18 41 40
f 19 42 43
f 19 43 44
f 19 44 48
f 19 48 47
f 19 47 31
f 19 31 26
f 19 26 25
f 19 25 24
f 19 24 21
f 20 23 38
f 20 38 45
f 20 45 41
f 23 39 38
f 27 32 46
f 27 46 28
f 28 46 29
f 29 46 33
f 31 47 32
f 32 47 48
f 32 48 43
f 32 43 49
f 32 49 50
f 32 50 46
f 33 46 50
f 33 50 51
f 33 51 34
f 34 51 52
f 34 52 53
f 34 53 35
f 35 53 36
f 36 53 37
f 37 53 45
f 37 45 38
f 40 41 55
f 40 55 56
f 40 56 57
f 40 57 58
f 40 58 54
f 41 45 55
f 42 59 49
f 42 49 43
f 43 48 44
f 45 52 55
f 45 53 52
f 49 59 50
f 50 60 61
f 50 61 51
f 50 59 62
f 50 62 60
f 51 61 63
f 51 63 58
f 51 58 52
f 52 58 64
f 52 64 55
f 54 58 63
f 54 63 62
f 55 64 57
f 55 57 56
f 57 64 58
f 60 63 61
f 60 62 63

