# https://github.com/mikedh/trimesh
v 0.02213195 -0.00094738 -0.02786118
v 0.02458302 -0.00116728 -0.02786118
v 0.02217505 -0.00094738 -0.03144929
v 0.01923409 -0.01071264 -0.02786118
v 0.02460404 -0.00116728 -0.02992229
v 0.02451153 -0.00225624 -0.02786118
v 0.02459721 -0.00122273 -0.02869553
v 0.02458459 -0.00116728 -0.03105898
v 0.02443899 -0.00116728 -0.03212877
v 0.02267389 -0.00105733 -0.03275242
v 0.01946432 -0.01071264 -0.03216617
v 0.01927299 -0.01071264 -0.03105582
v 0.02002833 -0.01071264 -0.03293573
v 0.02224969 -0.01044877 -0.02793124
v 0.02304604 -0.00859591 -0.02786118
v 0.02452414 -0.00221990 -0.02939608
v 0.02452204 -0.00221990 -0.03050538
v 0.02453991 -0.00194265 -0.03133604
v 0.02441166 -0.00329644 -0.02786118
v 0.02379140 -0.00116728 -0.03300209
v 0.02435226 -0.00239104 -0.03205924
v 0.02391020 -0.00332894 -0.03281774
v 0.02377511 -0.00221990 -0.03302053
v 0.02301713 -0.00194265 -0.03314063
v 0.02079945 -0.01048605 -0.03314642
v 0.02156110 -0.01047171 -0.03285092
v 0.02222341 -0.01045259 -0.03099946
v 0.02225968 -0.01045259 -0.02884143
v 0.02266443 -0.00954242 -0.02793545
v 0.02311437 -0.00833586 -0.03091992
v 0.02331832 -0.00782819 -0.02884143
v 0.02334671 -0.00774884 -0.02786118
v 0.02261186 -0.00962082 -0.02995073
v 0.02441061 -0.00310427 -0.03078139
v 0.02428393 -0.00374483 -0.03154410
v 0.02427394 -0.00416072 -0.02786118
v 0.02301713 -0.00332894 -0.03324228
v 0.02406999 -0.00471524 -0.03189122
v 0.02387025 -0.00554510 -0.03201026
v 0.02366893 -0.00478407 -0.03272872
v 0.02301713 -0.00554702 -0.03311323
v 0.02357116 -0.00332894 -0.03308216
v 0.02135400 -0.00970495 -0.03317065
v 0.02190855 -0.00776413 -0.03321963
v 0.02195218 -0.00896113 -0.03306267
v 0.02261028 -0.00823165 -0.03284671
v 0.02219818 -0.01018394 -0.03205345
v 0.02265707 -0.00945733 -0.03105898
v 0.02229280 -0.01035507 -0.02998760
v 0.02336826 -0.00765323 -0.02967367
v 0.02277271 -0.00891715 -0.03196022
v 0.02334250 -0.00748305 -0.03173267
v 0.02357694 -0.00693140 -0.03105898
v 0.02335880 -0.00764558 -0.03050538
v 0.02359954 -0.00693140 -0.02786118
v 0.02415620 -0.00471524 -0.02967367
v 0.02407420 -0.00499250 -0.03133604
v 0.02412676 -0.00489307 -0.02822199
v 0.02382241 -0.00614647 -0.02786118
v 0.02301713 -0.00443798 -0.03321068
v 0.02375040 -0.00626407 -0.03161363
v 0.02336879 -0.00651456 -0.03260178
v 0.02257822 -0.00700119 -0.03310955
v 0.02408576 -0.00499250 -0.03050538
f 1 2 3
f 1 3 4
f 1 4 15
f 1 15 32
f 1 32 55
f 1 55 59
f 1 59 36
f 1 36 19
f 1 19 6
f 1 6 2
f 2 5 3
f 2 6 7
f 2 7 5
f 3 5 8
f 3 8 9
f 3 9 10
f 3 10 11
f 3 11 12
f 3 12 4
f 4 12 11
f 4 11 13
f 4 13 14
f 4 14 15
f 5 7 16
f 5 16 17
f 5 17 18
f 5 18 8
f 6 16 7
f 6 19 16
f 8 18 9
f 9 20 10
f 9 18 21
f 9 21 22
f 9 22 23
f 9 23 20
f 10 20 24
f 10 24 13
f 10 13 11
f 13 25 26
f 13 26 27
f 13 27 28
f 13 28 14
f 13 24 25
f 14 29 15
f 14 28 29
f 15 30 31
f 15 31 32
f 15 29 33
f 15 33 30
f 16 19 17
f 17 19 34
f 17 34 18
f 18 34 35
f 18 35 21
f 19 36 34
f 20 23 37
f 20 37 24
f 21 35 38
f 21 38 22
f 22 38 39
f 22 39 40
f 22 40 41
f 22 41 42
f 22 42 23
f 23 42 37
f 24 37 25
f 25 43 26
f 25 37 44
f 25 44 43
f 26 43 45
f 26 45 46
f 26 46 47
f 26 47 27
f 27 47 48
f 27 48 49
f 27 49 28
f 28 49 29
f 29 49 33
f 30 50 31
f 30 33 48
f 30 48 51
f 30 51 52
f 30 52 53
f 30 53 54
f 30 54 50
f 31 50 55
f 31 55 32
f 33 49 48
f 34 36 56
f 34 56 57
f 34 57 35
f 35 57 38
f 36 58 56
f 36 59 58
f 37 42 60
f 37 60 44
f 38 57 39
f 39 57 61
f 39 61 52
f 39 52 62
f 39 62 40
f 40 62 41
f 41 60 42
f 41 62 46
f 41 46 63
f 41 63 60
f 43 44 63
f 43 63 45
f 44 60 63
f 45 63 46
f 46 62 51
f 46 51 47
f 47 51 48
f 50 54 53
f 50 53 55
f 51 62 52
f 52 61 53
f 53 61 59
f 53 59 55
f 56 58 64
f 56 64 57
f 57 64 61
f 58 59 64
f 59 61 64

