# https://github.com/mikedh/trimesh
v -0.02446304 -0.00138234 -0.02845320
v -0.02442434 -0.00123023 -0.03089516
v -0.02432758 -0.00222077 -0.03161345
v -0.02425222 -0.00333002 -0.02939615
v -0.02426343 -0.00326510 -0.02787846
v -0.02201782 -0.00094643 -0.02787846
v -0.02269201 -0.00094643 -0.03303561
v -0.02377764 -0.00164388 -0.03294809
v -0.02413612 -0.00319276 -0.03202916
v -0.02402919 -0.00443928 -0.03147470
v -0.02415344 -0.00388465 -0.03050507
v -0.02398845 -0.00490301 -0.02787846
v -0.01851549 -0.01589909 -0.02787793
v -0.01911127 -0.01072752 -0.02787793
v -0.01405993 -0.01681914 -0.02787793
v -0.01405993 -0.01683954 -0.02971420
v -0.02205448 -0.00094643 -0.03078096
v -0.02215225 -0.00094643 -0.03196512
v -0.01405993 -0.01705843 -0.03199767
v -0.01405993 -0.01822333 -0.03303775
v -0.01603769 -0.01687850 -0.03328589
v -0.01853688 -0.01355259 -0.03332965
v -0.02323279 -0.00527029 -0.03293315
v -0.02371450 -0.00406087 -0.03274104
v -0.02375320 -0.00506810 -0.03230292
v -0.02365849 -0.00604936 -0.03144001
v -0.02374811 -0.00594549 -0.02924406
v -0.02356785 -0.00664109 -0.02791155
v -0.02323483 -0.00774292 -0.02787846
v -0.02192107 -0.01087962 -0.02787846
v -0.02024883 -0.01371026 -0.02810099
v -0.01969482 -0.01448748 -0.02967418
v -0.01857151 -0.01586199 -0.02928622
v -0.01709684 -0.01738304 -0.02787793
v -0.01472190 -0.01946799 -0.02821946
v -0.01412103 -0.01989648 -0.03023131
v -0.01434101 -0.01951808 -0.03204944
v -0.01542460 -0.01866109 -0.03222127
v -0.01683002 -0.01735707 -0.03241445
v -0.01947382 -0.01407012 -0.03269034
v -0.02162268 -0.00993361 -0.03292728
v -0.02267470 -0.00710482 -0.03291981
v -0.02235492 -0.00859805 -0.03285417
v -0.02332648 -0.00632760 -0.03258468
v -0.02334074 -0.00710668 -0.03171858
v -0.02294865 -0.00830126 -0.03150939
v -0.02289570 -0.00869636 -0.02822160
v -0.02124179 -0.01211687 -0.02804976
v -0.02244657 -0.00964794 -0.03057444
v -0.02190478 -0.01086107 -0.02945859
v -0.01984147 -0.01423892 -0.03098908
v -0.02081609 -0.01281989 -0.02933425
v -0.01860409 -0.01581005 -0.03042182
v -0.01636766 -0.01802856 -0.03149711
v -0.01581262 -0.01857762 -0.02853164
v -0.01537266 -0.01894675 -0.02967418
v -0.01526879 -0.01897643 -0.03105846
v -0.01800119 -0.01634242 -0.03182050
v -0.01919376 -0.01501243 -0.03166628
v -0.02025495 -0.01330589 -0.03223835
v -0.02127336 -0.01123948 -0.03264445
v -0.02215836 -0.01004676 -0.03196192
v -0.02180803 -0.01099278 -0.03075641
v -0.02098922 -0.01245076 -0.03111235
f 1 2 3
f 1 3 4
f 1 4 5
f 1 5 6
f 1 6 2
f 2 6 7
f 2 7 8
f 2 8 3
f 3 8 9
f 3 9 10
f 3 10 11
f 3 11 4
f 4 11 12
f 4 12 5
f 5 12 13
f 5 13 14
f 5 14 6
f 6 14 15
f 6 15 16
f 6 16 17
f 6 17 18
f 6 18 7
f 7 18 19
f 7 19 20
f 7 20 21
f 7 21 22
f 7 22 8
f 8 22 23
f 8 23 24
f 8 24 9
f 9 24 25
f 9 25 10
f 10 25 26
f 10 26 27
f 10 27 12
f 10 12 11
f 12 27 28
f 12 28 29
f 12 29 13
f 13 30 31
f 13 31 32
f 13 32 33
f 13 33 34
f 13 34 15
f 13 15 14
f 13 29 30
f 15 34 35
f 15 35 36
f 15 36 20
f 15 20 19
f 15 19 16
f 16 19 17
f 17 19 18
f 20 36 37
f 20 37 21
f 21 37 38
f 21 38 39
f 21 39 40
f 21 40 22
f 22 40 41
f 22 41 42
f 22 42 23
f 23 42 43
f 23 43 44
f 23 44 24
f 24 44 25
f 25 44 45
f 25 45 26
f 26 45 27
f 27 45 28
f 28 45 29
f 29 45 46
f 29 46 47
f 29 47 30
f 30 48 31
f 30 47 49
f 30 49 50
f 30 50 48
f 31 51 32
f 31 48 52
f 31 52 51
f 32 51 53
f 32 53 33
f 33 53 34
f 34 54 55
f 34 55 35
f 34 53 54
f 35 55 56
f 35 56 36
f 36 56 57
f 36 57 37
f 37 57 38
f 38 57 54
f 38 54 39
f 39 54 58
f 39 58 40
f 40 59 60
f 40 60 61
f 40 61 41
f 40 58 59
f 41 43 42
f 41 61 43
f 43 61 62
f 43 62 44
f 44 62 45
f 45 62 46
f 46 62 49
f 46 49 47
f 48 50 63
f 48 63 64
f 48 64 52
f 49 62 63
f 49 63 50
f 51 59 53
f 51 52 64
f 51 64 60
f 51 60 59
f 53 59 58
f 53 58 54
f 54 57 56
f 54 56 55
f 60 64 62
f 60 62 61
f 62 64 63

