# https://github.com/mikedh/trimesh
v -0.02337793 0.00775753 -0.02754292
v -0.02300262 0.00835652 -0.03167620
v -0.02263335 0.00803518 -0.03278707
v -0.02162727 0.00797035 -0.03311851
v -0.02093475 0.00789847 -0.03261892
v -0.02061512 0.00765042 -0.02755203
v -0.02292997 0.00917536 -0.02721816
v -0.02234158 0.01065239 -0.02721816
v -0.02232705 0.00995757 -0.03199915
v -0.02212728 0.00909362 -0.03289816
v -0.02145292 0.01047058 -0.03295036
v -0.01888625 0.01406025 -0.03328302
v -0.01344659 0.01950184 -0.03341960
v -0.01101068 0.02003600 -0.03306327
v -0.02066234 0.00789847 -0.03156390
v -0.01101068 0.01940178 -0.03219218
v -0.01101068 0.01924534 -0.03133627
v -0.01101068 0.01919178 -0.02786708
v -0.01593457 0.01557110 -0.02721816
v -0.02180645 0.01171505 -0.02721816
v -0.02109940 0.01252967 -0.03173387
v -0.02159458 0.01149660 -0.03207320
v -0.02107761 0.01163472 -0.03281742
v -0.02054369 0.01279464 -0.03274579
v -0.01901579 0.01486219 -0.03290362
v -0.01547451 0.01816294 -0.03335283
v -0.01478683 0.01876756 -0.03334069
v -0.01426139 0.01971325 -0.03281560
v -0.01101552 0.02114517 -0.03317315
v -0.01110148 0.02204858 -0.03104186
v -0.01119107 0.02203026 -0.02953095
v -0.01155670 0.02182167 -0.02786708
v -0.01936811 0.01543862 -0.02721816
v -0.02118173 0.01286792 -0.02721816
v -0.02062360 0.01332879 -0.03179093
v -0.01989113 0.01403207 -0.03254244
v -0.01860174 0.01578251 -0.03233726
v -0.01754117 0.01705940 -0.03220675
v -0.01949039 0.01481145 -0.03221585
v -0.01656171 0.01801214 -0.03225774
v -0.01566580 0.01885353 -0.03218125
v -0.01520331 0.01936795 -0.03165192
v -0.01347565 0.02049686 -0.03219704
v -0.01138236 0.02168778 -0.03224863
v -0.01284367 0.02099578 -0.03173387
v -0.01189933 0.02161309 -0.03105824
v -0.01202403 0.02156235 -0.03009003
v -0.01292115 0.02102679 -0.02786708
v -0.01396598 0.02035451 -0.02786708
v -0.01470935 0.01981754 -0.02786708
v -0.01547330 0.01920306 -0.02786708
v -0.01669005 0.01813475 -0.02786708
v -0.01727239 0.01755268 -0.03105824
v -0.01816467 0.01657035 -0.03126646
v -0.01933784 0.01523144 -0.03133566
v -0.02012479 0.01451125 -0.02721816
v -0.01995893 0.01435340 -0.03161307
v -0.01665373 0.01817139 -0.03105824
v -0.01591762 0.01883098 -0.03105824
v -0.01548662 0.01921574 -0.03036623
v -0.01424081 0.02014311 -0.03112198
v -0.01282793 0.02108739 -0.03050463
v -0.01294658 0.02101833 -0.02953520
v -0.01496844 0.01963573 -0.02967360
f 1 2 3
f 1 3 4
f 1 4 5
f 1 5 6
f 1 6 7
f 1 7 2
f 2 7 8
f 2 8 9
f 2 9 3
f 3 9 10
f 3 10 4
f 4 10 11
f 4 11 12
f 4 12 13
f 4 13 14
f 4 14 5
f 5 15 6
f 5 14 16
f 5 16 15
f 6 15 17
f 6 17 18
f 6 18 19
f 6 19 7
f 7 19 33
f 7 33 56
f 7 56 34
f 7 34 20
f 7 20 8
f 8 20 21
f 8 21 22
f 8 22 9
f 9 22 23
f 9 23 10
f 10 23 11
f 11 23 12
f 12 23 24
f 12 24 25
f 12 25 26
f 12 26 13
f 13 26 27
f 13 27 28
f 13 28 29
f 13 29 14
f 14 29 18
f 14 18 17
f 14 17 16
f 15 16 17
f 18 29 30
f 18 30 31
f 18 31 32
f 18 32 19
f 19 32 33
f 20 34 21
f 21 34 35
f 21 35 22
f 22 35 24
f 22 24 23
f 24 35 36
f 24 36 25
f 25 37 38
f 25 38 26
f 25 36 39
f 25 39 37
f 26 40 28
f 26 28 27
f 26 38 40
f 28 40 41
f 28 41 42
f 28 42 43
f 28 43 44
f 28 44 29
f 29 44 30
f 30 44 45
f 30 45 46
f 30 46 31
f 31 46 47
f 31 47 32
f 32 47 48
f 32 48 33
f 33 48 49
f 33 49 50
f 33 50 51
f 33 51 52
f 33 52 53
f 33 53 54
f 33 54 55
f 33 55 56
f 34 56 35
f 35 56 57
f 35 57 39
f 35 39 36
f 37 39 38
f 38 39 55
f 38 55 54
f 38 54 53
f 38 53 58
f 38 58 40
f 39 57 55
f 40 58 41
f 41 58 42
f 42 58 59
f 42 59 60
f 42 60 61
f 42 61 43
f 43 61 45
f 43 45 44
f 45 61 62
f 45 62 46
f 46 62 47
f 47 62 63
f 47 63 48
f 48 63 49
f 49 61 64
f 49 64 50
f 49 63 61
f 50 64 51
f 51 64 60
f 51 60 52
f 52 60 59
f 52 59 58
f 52 58 53
f 55 57 56
f 60 64 61
f 61 63 62

