# https://github.com/mikedh/trimesh
v 0.01930698 -0.02150876 0.02889210
v 0.01974629 -0.02112109 0.02889210
v 0.01930698 -0.01791152 0.02889210
v 0.01930698 -0.01748342 0.00824736
v 0.01942068 -0.02076196 0.00824736
v 0.02021730 -0.02066207 0.02889210
v 0.02720749 -0.00968009 0.02889210
v 0.02459951 -0.00936021 0.02872640
v 0.02456239 -0.00936021 0.02800698
v 0.01930698 -0.01784730 0.02811813
v 0.02431180 -0.00936021 0.00824736
v 0.01930698 -0.01779379 0.02654189
v 0.02062876 -0.01952047 0.00824736
v 0.02026139 -0.01997949 0.01026213
v 0.02087626 -0.01998186 0.02889210
v 0.02652301 -0.01136633 0.02889210
v 0.02621596 -0.01137109 0.01137156
v 0.02638612 -0.01081694 0.00824736
v 0.02657561 -0.01030203 0.00824736
v 0.02692365 -0.00936021 0.00915269
v 0.02455156 -0.00936021 0.02745126
v 0.01930698 -0.01781639 0.02731586
v 0.02690044 -0.00936021 0.00824736
v 0.02103094 -0.01908642 0.00824736
v 0.02100774 -0.01933377 0.01414413
v 0.02122894 -0.01958825 0.02889210
v 0.02629099 -0.01192524 0.02889210
v 0.02609531 -0.01171119 0.01248099
v 0.02608990 -0.01170049 0.01192728
v 0.02608603 -0.01152925 0.00824736
v 0.02691282 -0.00936021 0.00870205
v 0.02143235 -0.01862145 0.00824736
v 0.02145478 -0.01865237 0.00970640
v 0.02243548 -0.01819573 0.02889210
v 0.02603498 -0.01247464 0.02889210
v 0.02537371 -0.01340219 0.01469985
v 0.02555469 -0.01285161 0.01081583
v 0.02581997 -0.01213216 0.00824736
v 0.02183608 -0.01814341 0.00824736
v 0.02169222 -0.01837292 0.00970640
v 0.02170073 -0.01838481 0.01026213
v 0.02231328 -0.01757380 0.00824736
v 0.02276959 -0.01778547 0.02889210
v 0.02574804 -0.01303474 0.02889210
v 0.02541470 -0.01368046 0.02889210
v 0.02526620 -0.01358889 0.01414413
v 0.02546420 -0.01293009 0.00824736
v 0.02272319 -0.01706840 0.00824736
v 0.02394133 -0.01565805 0.01248099
v 0.02346104 -0.01686030 0.02889210
v 0.02307742 -0.01662246 0.00824736
v 0.02348346 -0.01610279 0.00824736
v 0.02401016 -0.01541783 0.00824736
v 0.02511925 -0.01422510 0.02889210
v 0.02495451 -0.01414067 0.01414413
v 0.02503495 -0.01376489 0.00824736
v 0.02381217 -0.01636560 0.02889210
v 0.02437599 -0.01493265 0.00915269
v 0.02470470 -0.01433926 0.00824736
v 0.02445798 -0.01476974 0.00842317
v 0.02465133 -0.01501589 0.02889210
v 0.02429246 -0.01560453 0.02889210
f 1 2 6
f 1 6 15
f 1 15 26
f 1 26 34
f 1 34 43
f 1 43 50
f 1 50 57
f 1 57 62
f 1 62 61
f 1 61 54
f 1 54 45
f 1 45 44
f 1 44 35
f 1 35 27
f 1 27 16
f 1 16 7
f 1 7 3
f 1 3 10
f 1 10 22
f 1 22 12
f 1 12 4
f 1 4 5
f 1 5 2
f 2 5 6
f 3 7 8
f 3 8 9
f 3 9 10
f 4 11 23
f 4 23 19
f 4 19 18
f 4 18 30
f 4 30 38
f 4 38 47
f 4 47 56
f 4 56 59
f 4 59 53
f 4 53 52
f 4 52 51
f 4 51 48
f 4 48 42
f 4 42 39
f 4 39 32
f 4 32 24
f 4 24 13
f 4 13 5
f 4 12 11
f 5 13 14
f 5 14 6
f 6 14 15
f 7 16 17
f 7 17 18
f 7 18 19
f 7 19 20
f 7 20 8
f 8 20 31
f 8 31 23
f 8 23 11
f 8 11 21
f 8 21 9
f 9 21 22
f 9 22 10
f 11 12 21
f 12 22 21
f 13 24 25
f 13 25 14
f 14 25 15
f 15 25 26
f 16 27 28
f 16 28 17
f 17 28 29
f 17 29 18
f 18 29 30
f 19 23 31
f 19 31 20
f 24 32 33
f 24 33 25
f 25 34 26
f 25 33 34
f 27 35 36
f 27 36 37
f 27 37 28
f 28 37 29
f 29 37 38
f 29 38 30
f 32 39 40
f 32 40 41
f 32 41 33
f 33 41 34
f 34 41 42
f 34 42 43
f 35 44 36
f 36 44 45
f 36 45 46
f 36 46 47
f 36 47 37
f 37 47 38
f 39 42 41
f 39 41 40
f 42 48 43
f 43 49 50
f 43 48 51
f 43 51 52
f 43 52 53
f 43 53 49
f 45 54 46
f 46 54 55
f 46 55 56
f 46 56 47
f 49 57 50
f 49 53 58
f 49 58 57
f 53 59 60
f 53 60 58
f 54 61 55
f 55 61 62
f 55 62 58
f 55 58 60
f 55 60 59
f 55 59 56
f 57 58 62

