# https://github.com/mikedh/trimesh
v 0.02177014 0.00844972 -0.00541160
v 0.01999776 0.00963543 -0.00592367
v 0.02012352 0.00950066 -0.00721218
v 0.02154130 0.00854966 -0.00715374
v 0.02165021 0.00865112 -0.00864541
v 0.02207224 0.00854966 -0.00315182
v 0.02108816 0.00908573 -0.00396445
v 0.01989144 0.00988529 -0.00471864
v 0.01897738 0.01041379 -0.00616578
v 0.01848923 0.01084840 -0.00782165
v 0.01991089 0.00979292 -0.00830867
v 0.01596031 0.01356811 -0.01185696
v 0.01593114 0.01394821 -0.01311487
v 0.02204112 0.01339851 -0.02477274
v 0.02209622 0.00901305 -0.00135124
v 0.01940978 0.01031990 -0.00461010
v 0.01843023 0.01108766 -0.00494406
v 0.01547410 0.01361657 -0.00667229
v 0.01549161 0.01352117 -0.00832259
v 0.01769379 0.01160253 -0.00880961
v 0.01577231 0.01337882 -0.00998681
v 0.01561154 0.01469477 -0.01450357
v 0.01547410 0.02049460 -0.02477553
v 0.01789995 0.01789906 -0.02477553
v 0.01971706 0.01619394 -0.02477553
v 0.02030050 0.01948001 -0.02471152
v 0.02176431 0.01783243 -0.02404360
v 0.02189331 0.01782335 -0.02225415
v 0.02190044 0.01787029 -0.02106860
v 0.02209622 0.01361960 0.00365255
v 0.01575934 0.01513998 -0.01598968
v 0.01549809 0.01664521 -0.01858341
v 0.02209622 0.00973083 -0.00025753
v 0.01547410 0.01512483 -0.00264254
v 0.01547410 0.01421473 -0.00441529
v 0.01789346 0.01193265 -0.00404516
v 0.01547410 0.02370647 -0.02237104
v 0.01557588 0.02349447 -0.02427459
v 0.01774047 0.02191655 -0.02457515
v 0.01939357 0.02054003 -0.02406308
v 0.02078412 0.01912415 -0.02278848
v 0.02057084 0.01946335 -0.01940717
v 0.02152380 0.01872891 -0.00139299
v 0.02189007 0.01840182 0.00363863
v 0.02073420 0.01969504 0.00365255
v 0.01989144 0.01670124 0.00365533
v 0.01547410 0.02046886 0.00365533
v 0.01547410 0.01636506 -0.00098667
v 0.01639919 0.02303563 -0.02317253
v 0.01547410 0.02391848 0.00365533
v 0.01599856 0.02357624 -0.00451270
v 0.01676741 0.02266765 -0.02436643
v 0.01742476 0.02225576 -0.02342857
v 0.01897219 0.02117605 -0.01080778
v 0.01937153 0.02099887 0.00365255
v 0.01713433 0.02269491 -0.00970851
v 0.01675769 0.02305380 0.00350226
v 0.01624944 0.02340361 0.00249483
v 0.01624620 0.02341269 -0.00305164
v 0.01811841 0.02193926 -0.00846174
v 0.01835438 0.02181509 -0.00332993
v 0.01845746 0.02175300 -0.00027980
v 0.01783641 0.02225121 0.00138442
v 0.01747208 0.02249048 -0.00360545
f 1 2 3
f 1 3 4
f 1 4 5
f 1 5 6
f 1 6 7
f 1 7 2
f 2 7 8
f 2 8 9
f 2 9 3
f 3 10 11
f 3 11 5
f 3 5 4
f 3 9 10
f 5 11 12
f 5 12 13
f 5 13 14
f 5 14 6
f 6 15 7
f 6 14 15
f 7 15 16
f 7 16 8
f 8 16 17
f 8 17 9
f 9 17 18
f 9 18 19
f 9 19 10
f 10 19 20
f 10 20 11
f 11 20 12
f 12 21 22
f 12 22 13
f 12 20 21
f 13 22 14
f 14 23 24
f 14 24 25
f 14 25 26
f 14 26 27
f 14 27 28
f 14 28 29
f 14 29 30
f 14 30 15
f 14 22 31
f 14 31 32
f 14 32 23
f 15 30 33
f 15 33 34
f 15 34 35
f 15 35 36
f 15 36 17
f 15 17 16
f 17 36 35
f 17 35 18
f 18 35 34
f 18 34 48
f 18 48 47
f 18 47 50
f 18 50 37
f 18 37 23
f 18 23 32
f 18 32 19
f 19 32 22
f 19 22 21
f 19 21 20
f 22 32 31
f 23 37 38
f 23 38 39
f 23 39 26
f 23 26 25
f 23 25 24
f 26 39 40
f 26 40 41
f 26 41 27
f 27 41 28
f 28 41 29
f 29 41 42
f 29 42 43
f 29 43 44
f 29 44 30
f 30 44 45
f 30 45 46
f 30 46 47
f 30 47 33
f 33 48 34
f 33 47 48
f 37 49 38
f 37 50 51
f 37 51 49
f 38 52 39
f 38 49 52
f 39 52 53
f 39 53 40
f 40 53 54
f 40 54 45
f 40 45 42
f 40 42 41
f 42 45 43
f 43 45 44
f 45 55 50
f 45 50 46
f 45 54 55
f 46 50 47
f 49 51 56
f 49 56 53
f 49 53 52
f 50 55 57
f 50 57 58
f 50 58 59
f 50 59 51
f 51 59 56
f 53 56 60
f 53 60 54
f 54 60 61
f 54 61 55
f 55 61 62
f 55 62 63
f 55 63 57
f 56 59 64
f 56 64 61
f 56 61 60
f 57 63 59
f 57 59 58
f 59 63 64
f 61 64 63
f 61 63 62

