# https://github.com/mikedh/trimesh
v -0.01031361 0.02081020 -0.03331504
v -0.01091260 0.02031901 -0.03322908
v -0.01088803 0.02120448 -0.03319984
v -0.00487663 0.02332897 -0.03330012
v -0.00056288 0.02364450 -0.03327027
v -0.01100987 0.01976834 -0.03289063
v -0.00054957 0.02279867 -0.03283691
v -0.01096073 0.02175791 -0.03260949
v -0.01017948 0.02172817 -0.03311090
v -0.00735041 0.02287577 -0.03313716
v -0.00637564 0.02340000 -0.03284527
v -0.00388344 0.02398151 -0.03271753
v -0.00076562 0.02430255 -0.03282557
v -0.00062022 0.02462139 -0.03203227
v -0.00054957 0.02482018 -0.02721757
v -0.01100987 0.01940490 -0.03219165
v -0.01100987 0.01919454 -0.02786701
v -0.00054957 0.02228435 -0.03168129
v -0.01093308 0.02215990 -0.03002008
v -0.01085014 0.02218137 -0.03104498
v -0.01076209 0.02211749 -0.03190155
v -0.01005252 0.02220175 -0.03260591
v -0.00722447 0.02337687 -0.03250742
v -0.00637564 0.02362468 -0.03244534
v -0.00506094 0.02384219 -0.03257487
v -0.00394282 0.02433944 -0.03177978
v -0.00305099 0.02441654 -0.03194990
v -0.00134618 0.02446720 -0.03245608
v -0.00138713 0.02459936 -0.03189081
v -0.00069087 0.02469463 -0.03133567
v -0.00202913 0.02475630 -0.02721757
v -0.00082398 0.02204315 -0.02721757
v -0.01100987 0.01924851 -0.03133567
v -0.01085629 0.02219183 -0.02786701
v -0.00348513 0.02184491 -0.02721757
v -0.00340220 0.02463130 -0.02721757
v -0.01086243 0.02220285 -0.02911933
v -0.01004125 0.02258006 -0.03050477
v -0.01025935 0.02246717 -0.03133567
v -0.00921291 0.02276673 -0.03208719
v -0.00859651 0.02308392 -0.03189081
v -0.00770878 0.02339009 -0.03197079
v -0.00693265 0.02365111 -0.03189081
v -0.00585140 0.02384880 -0.03217852
v -0.00499336 0.02411532 -0.03189081
v -0.00305099 0.02449638 -0.03133567
v -0.00554730 0.02407512 -0.03133567
v -0.00138713 0.02464617 -0.03133567
v -0.00221958 0.02457568 -0.03133567
v -0.00277761 0.02469958 -0.02721757
v -0.01010371 0.02255528 -0.02786701
v -0.00658452 0.02383063 -0.02967327
v -0.00675961 0.02378052 -0.02786701
v -0.00748659 0.02356576 -0.02786701
v -0.00835794 0.02326068 -0.02786701
v -0.00940950 0.02285264 -0.02786701
v -0.00935523 0.02287852 -0.02856421
v -0.00940643 0.02285209 -0.02946555
v -0.00935011 0.02286696 -0.03022840
v -0.00966650 0.02272213 -0.03133567
v -0.00835282 0.02322874 -0.03133567
v -0.00720911 0.02361862 -0.03133567
v -0.00637667 0.02385320 -0.03158697
v -0.00914942 0.02293138 -0.03105871
f 1 2 3
f 1 3 4
f 1 4 5
f 1 5 2
f 2 6 3
f 2 5 7
f 2 7 6
f 3 6 8
f 3 8 9
f 3 9 10
f 3 10 4
f 4 11 12
f 4 12 13
f 4 13 5
f 4 10 11
f 5 13 14
f 5 14 15
f 5 15 7
f 6 16 33
f 6 33 17
f 6 17 8
f 6 7 16
f 7 15 18
f 7 18 16
f 8 19 20
f 8 20 21
f 8 21 22
f 8 22 9
f 8 17 19
f 9 22 10
f 10 22 23
f 10 23 11
f 11 24 25
f 11 25 12
f 11 23 24
f 12 25 26
f 12 26 27
f 12 27 28
f 12 28 13
f 13 28 14
f 14 28 29
f 14 29 30
f 14 30 15
f 15 30 31
f 15 31 50
f 15 50 36
f 15 36 35
f 15 35 32
f 15 32 18
f 16 18 33
f 17 34 19
f 17 33 32
f 17 32 35
f 17 35 36
f 17 36 34
f 18 32 33
f 19 34 37
f 19 37 38
f 19 38 39
f 19 39 20
f 20 39 21
f 21 39 40
f 21 40 22
f 22 40 23
f 23 40 41
f 23 41 42
f 23 42 43
f 23 43 24
f 24 44 25
f 24 43 44
f 25 45 26
f 25 44 45
f 26 36 46
f 26 46 27
f 26 45 47
f 26 47 36
f 27 46 29
f 27 29 28
f 29 48 30
f 29 46 49
f 29 49 48
f 30 48 31
f 31 48 50
f 34 51 37
f 34 36 51
f 36 47 52
f 36 52 53
f 36 53 54
f 36 54 55
f 36 55 56
f 36 56 51
f 36 50 46
f 37 51 38
f 38 57 58
f 38 58 59
f 38 59 60
f 38 60 39
f 38 51 57
f 39 60 41
f 39 41 40
f 41 61 42
f 41 60 61
f 42 61 62
f 42 62 43
f 43 62 63
f 43 63 44
f 44 63 45
f 45 63 47
f 46 50 49
f 47 63 52
f 48 49 50
f 51 56 57
f 52 63 62
f 52 62 54
f 52 54 53
f 54 61 55
f 54 62 61
f 55 61 59
f 55 59 58
f 55 58 57
f 55 57 56
f 59 61 64
f 59 64 60
f 60 64 61

