# https://github.com/mikedh/trimesh
v 0.02013356 -0.01704490 0.02927372
v 0.02035698 -0.01704490 0.03050163
v 0.02240045 -0.01416091 0.03036650
v 0.02223061 -0.01416091 0.02902904
v 0.02108173 -0.01975997 0.02889210
v 0.02109898 -0.02428025 0.02924230
v 0.02116982 -0.02455279 0.03202810
v 0.02111170 -0.02358801 0.03305802
v 0.02097728 -0.02137864 0.03345850
v 0.02097728 -0.01983872 0.03325197
v 0.02097728 -0.01854959 0.03284297
v 0.02085922 -0.01721899 0.03186019
v 0.02285818 -0.01416091 0.03165008
v 0.02941091 -0.01416091 0.03050568
v 0.02508693 -0.01428320 0.02889210
v 0.02385085 -0.02107398 0.02895361
v 0.02259753 -0.01800035 0.02889210
v 0.02416691 -0.02138901 0.02916058
v 0.02452475 -0.02122942 0.02929482
v 0.02260570 -0.02364086 0.03002035
v 0.02141867 -0.02474761 0.03045045
v 0.02344125 -0.02267400 0.03158094
v 0.02191637 -0.02360355 0.03251657
v 0.02376185 -0.02140455 0.03284791
v 0.02170748 -0.02247089 0.03328789
v 0.02277190 -0.02106154 0.03337454
v 0.02534940 -0.01722521 0.03347152
v 0.02614136 -0.01443035 0.03347870
v 0.02463918 -0.01452361 0.03324479
v 0.02367194 -0.01418164 0.03257943
v 0.02879696 -0.01426143 0.03254531
v 0.02912755 -0.01456714 0.03156298
v 0.02853267 -0.01580757 0.03078268
v 0.02857082 -0.01565731 0.03015414
v 0.02895045 -0.01453087 0.02961089
v 0.02800773 -0.01443035 0.02900479
v 0.02443393 -0.01537648 0.02889210
v 0.02360473 -0.01666044 0.02889210
v 0.02667448 -0.01762314 0.02906271
v 0.02653734 -0.01863456 0.02937698
v 0.02465371 -0.02152787 0.03041184
v 0.02558553 -0.02013510 0.02967734
v 0.02355296 -0.02275483 0.03050568
v 0.02526948 -0.02060143 0.03166714
v 0.02429588 -0.02166466 0.03183191
v 0.02525131 -0.01979313 0.03272759
v 0.02424502 -0.02057656 0.03297586
v 0.02457833 -0.01923871 0.03332650
v 0.02340311 -0.02028122 0.03338352
v 0.02660454 -0.01661173 0.03327173
v 0.02698327 -0.01547803 0.03335523
v 0.02765898 -0.01443346 0.03331752
v 0.02825567 -0.01525938 0.03260996
v 0.02804042 -0.01639929 0.03186693
v 0.02739014 -0.01763247 0.03145792
v 0.02763264 -0.01732573 0.03078268
v 0.02765262 -0.01729257 0.03022866
v 0.02696601 -0.01843248 0.03048368
v 0.02608596 -0.01972059 0.03105969
v 0.02637114 -0.01886772 0.03210353
v 0.02641291 -0.01791538 0.03287799
v 0.02558008 -0.01857549 0.03313255
v 0.02729297 -0.01641587 0.03291435
f 1 2 3
f 1 3 4
f 1 4 5
f 1 5 6
f 1 6 7
f 1 7 8
f 1 8 9
f 1 9 2
f 2 9 10
f 2 10 11
f 2 11 12
f 2 12 13
f 2 13 3
f 3 13 14
f 3 14 4
f 4 14 15
f 4 15 5
f 5 16 6
f 5 15 37
f 5 37 38
f 5 38 17
f 5 17 16
f 6 16 18
f 6 18 19
f 6 19 20
f 6 20 21
f 6 21 7
f 7 21 22
f 7 22 23
f 7 23 8
f 8 23 24
f 8 24 25
f 8 25 9
f 9 25 26
f 9 26 27
f 9 27 28
f 9 28 29
f 9 29 10
f 10 29 11
f 11 29 30
f 11 30 12
f 12 30 13
f 13 30 14
f 14 30 31
f 14 31 32
f 14 32 33
f 14 33 34
f 14 34 35
f 14 35 36
f 14 36 15
f 15 36 16
f 15 16 37
f 16 17 38
f 16 38 37
f 16 36 39
f 16 39 18
f 18 39 40
f 18 40 19
f 19 41 20
f 19 40 42
f 19 42 41
f 20 41 43
f 20 43 21
f 21 43 22
f 22 43 44
f 22 44 45
f 22 45 23
f 23 45 24
f 24 45 46
f 24 46 47
f 24 47 25
f 25 47 48
f 25 48 26
f 26 48 49
f 26 49 27
f 27 50 51
f 27 51 28
f 27 49 48
f 27 48 50
f 28 51 52
f 28 52 31
f 28 31 30
f 28 30 29
f 31 52 53
f 31 53 32
f 32 53 54
f 32 54 33
f 33 54 55
f 33 55 56
f 33 56 57
f 33 57 34
f 34 57 40
f 34 40 35
f 35 39 36
f 35 40 39
f 40 58 42
f 40 57 58
f 41 42 58
f 41 58 59
f 41 59 44
f 41 44 43
f 44 59 60
f 44 60 46
f 44 46 45
f 46 60 61
f 46 61 62
f 46 62 47
f 47 62 48
f 48 62 50
f 50 62 61
f 50 61 63
f 50 63 52
f 50 52 51
f 52 63 53
f 53 63 61
f 53 61 60
f 53 60 54
f 54 60 55
f 55 60 59
f 55 59 58
f 55 58 56
f 56 58 57

