# https://github.com/mikedh/trimesh
v -0.02967360 -0.00554523 0.03342480
v -0.03062343 -0.00562602 0.03323165
v -0.02939632 -0.00694120 0.03339895
v -0.02850343 0.00837078 0.03333910
v -0.03022815 -0.00027644 0.03341573
v -0.03159555 -0.00554523 0.03257874
v -0.03177834 -0.00644195 0.03197662
v -0.03133643 -0.00110852 0.03312328
v -0.03147300 -0.00359832 0.03289839
v -0.03196277 -0.00673116 0.03078235
v -0.03044972 -0.00694443 0.02891386
v -0.02938724 -0.00694443 0.02957992
v -0.02850343 0.00400355 0.03317315
v -0.02877781 0.00956155 0.02961392
v -0.02899650 0.00947107 0.03332187
v -0.03039773 0.00428630 0.03337538
v -0.02850343 0.00400355 0.02918500
v -0.03118128 0.00313430 0.03320308
v -0.03188190 -0.00225082 0.03265899
v -0.03226563 -0.00341089 0.03191949
v -0.03225779 -0.00457420 0.03154225
v -0.03219301 -0.00549838 0.03104850
v -0.03202425 -0.00006801 0.03268983
v -0.03184724 -0.00110852 0.03279547
v -0.03139213 -0.00652273 0.02914918
v -0.03228709 -0.00443525 0.02999569
v -0.03191615 -0.00530934 0.02945931
v -0.03151798 -0.00117800 0.02879326
v -0.03050460 0.00834332 0.02883996
v -0.03172098 -0.00269514 0.02887396
v -0.02995087 0.00956155 0.02896283
v -0.03130713 0.00940645 0.03099454
v -0.03043115 0.00909785 0.03284081
v -0.03052276 0.00625745 0.03325114
v -0.03136531 0.00486472 0.03295733
v -0.03243604 -0.00110852 0.03199702
v -0.03250082 -0.00221689 0.03161344
v -0.03265060 -0.00145428 0.03071343
v -0.03251526 -0.00263213 0.03024869
v -0.03222231 0.00159293 0.03236655
v -0.03225160 -0.00331234 0.02947790
v -0.03187571 0.00097088 0.02892837
v -0.03177751 0.00609911 0.02922580
v -0.03102697 0.00916732 0.02935548
v -0.03235888 -0.00069167 0.02937498
v -0.03168426 0.00821083 0.03047494
v -0.03180639 0.00739005 0.03125389
v -0.03196277 0.00609911 0.03189047
v -0.03154645 0.00652242 0.03252161
v -0.03087100 0.00814458 0.03279184
v -0.03117881 0.00693281 0.03280363
v -0.03230070 0.00344452 0.03203873
v -0.03266174 -0.00027644 0.03133596
v -0.03271827 -0.00033784 0.03053433
v -0.03249339 0.00166078 0.02956042
v -0.03206056 0.00457389 0.02930152
v -0.03246410 0.00384198 0.03008954
v -0.03239849 0.00485179 0.03057514
v -0.03149611 0.00736905 0.02931195
v -0.03215134 0.00605064 0.03077283
v -0.03222148 0.00480655 0.03178528
v -0.03261842 0.00270129 0.03064406
v -0.03270630 0.00081577 0.03056245
f 1 2 3
f 1 3 4
f 1 4 5
f 1 5 2
f 2 6 7
f 2 7 3
f 2 5 8
f 2 8 9
f 2 9 6
f 3 7 10
f 3 10 11
f 3 11 12
f 3 12 13
f 3 13 4
f 4 14 15
f 4 15 16
f 4 16 5
f 4 13 17
f 4 17 14
f 5 16 18
f 5 18 8
f 6 9 19
f 6 19 20
f 6 20 7
f 7 20 21
f 7 21 22
f 7 22 10
f 8 18 23
f 8 23 24
f 8 24 9
f 9 24 19
f 10 25 11
f 10 22 26
f 10 26 27
f 10 27 25
f 11 28 29
f 11 29 17
f 11 17 12
f 11 25 30
f 11 30 28
f 12 17 13
f 14 31 15
f 14 17 31
f 15 32 33
f 15 33 34
f 15 34 16
f 15 31 32
f 16 34 18
f 17 29 31
f 18 34 35
f 18 35 23
f 19 24 23
f 19 23 36
f 19 36 20
f 20 36 37
f 20 37 21
f 21 37 38
f 21 38 22
f 22 38 39
f 22 39 26
f 23 35 40
f 23 40 36
f 25 27 30
f 26 41 27
f 26 39 41
f 27 41 30
f 28 30 42
f 28 42 29
f 29 43 44
f 29 44 31
f 29 42 43
f 30 45 42
f 30 41 45
f 31 44 32
f 32 44 46
f 32 46 47
f 32 47 48
f 32 48 49
f 32 49 50
f 32 50 33
f 33 50 34
f 34 50 51
f 34 51 35
f 35 52 40
f 35 51 49
f 35 49 52
f 36 40 52
f 36 52 53
f 36 53 37
f 37 53 38
f 38 53 54
f 38 54 39
f 39 54 45
f 39 45 41
f 42 45 55
f 42 55 56
f 42 56 43
f 43 56 57
f 43 57 58
f 43 58 46
f 43 46 59
f 43 59 44
f 44 59 46
f 45 54 55
f 46 58 60
f 46 60 47
f 47 60 48
f 48 60 61
f 48 61 52
f 48 52 49
f 49 51 50
f 52 62 53
f 52 61 62
f 53 63 54
f 53 62 63
f 54 63 55
f 55 62 57
f 55 57 56
f 55 63 62
f 57 62 58
f 58 61 60
f 58 62 61

