# https://github.com/mikedh/trimesh
v 0.00389672 -0.03179710 0.02895115
v 0.01036732 -0.02938514 0.02906618
v 0.00845544 -0.03099006 0.02913379
v 0.00711483 -0.03165396 0.02946878
v 0.00332545 -0.03244864 0.02956888
v -0.00027734 -0.03234098 0.02920887
v -0.00164904 -0.03205349 0.02904247
v -0.00635509 -0.03051676 0.02900779
v 0.01006450 -0.03100282 0.03162404
v 0.00986971 -0.03122651 0.03057078
v 0.00984188 -0.03084572 0.02940029
v -0.00635509 -0.02945372 0.02974230
v 0.00567110 -0.02869812 0.03031877
v 0.00778432 -0.02869812 0.03341445
v 0.00957507 -0.02905858 0.03336835
v 0.00720814 -0.03194623 0.03022876
v 0.00816080 -0.03162365 0.02992450
v 0.00421755 -0.03247416 0.03018398
v 0.00235969 -0.03269984 0.03029286
v 0.00084393 -0.03274092 0.03010056
v 0.00152815 -0.03257145 0.02967381
v -0.00116944 -0.03272855 0.02999783
v -0.00277195 -0.03241395 0.02946746
v -0.00628797 -0.03179870 0.02954474
v -0.00635509 -0.02942262 0.03339689
v 0.00938683 -0.03036245 0.03289111
v 0.00872880 -0.03122691 0.03209732
v 0.00831140 -0.03164678 0.03105021
v 0.00519968 -0.02869812 0.03330425
v 0.00817881 -0.02939631 0.03343333
v 0.00803967 -0.03002591 0.03330644
v 0.00614907 -0.03215238 0.03060063
v 0.00720814 -0.03191034 0.03105943
v 0.00501635 -0.03230230 0.03134393
v 0.00271489 -0.03258102 0.03158540
v 0.00111238 -0.03267393 0.03146642
v -0.00001543 -0.03277122 0.03064410
v -0.00332685 -0.03260973 0.03022832
v -0.00485079 -0.03244585 0.03050536
v -0.00593441 -0.03219903 0.03111080
v -0.00608828 -0.03174168 0.03223562
v -0.00574126 -0.03026276 0.03334069
v -0.00443502 -0.03022847 0.03341138
v -0.00332685 -0.03022847 0.03342279
v 0.00788581 -0.03070058 0.03295829
v 0.00607869 -0.03139956 0.03272296
v 0.00735546 -0.03161528 0.03202356
v 0.00304881 -0.03022847 0.03343596
v 0.00561381 -0.02999561 0.03342762
v 0.00664177 -0.03045655 0.03326649
v 0.00405877 -0.03178793 0.03268652
v 0.00004349 -0.03258620 0.03189054
v -0.00113506 -0.03261093 0.03155994
v -0.00346599 -0.03252639 0.03119773
v -0.00468219 -0.03195779 0.03224660
v -0.00415839 -0.03123130 0.03308517
v -0.00360348 -0.03072849 0.03333806
v 0.00055748 -0.03078152 0.03337625
v 0.00331726 -0.03106303 0.03327044
v 0.00168365 -0.03175843 0.03289331
v -0.00050323 -0.03212646 0.03262330
v -0.00221704 -0.03235613 0.03203849
v -0.00054251 -0.03131025 0.03321073
v -0.00235454 -0.03112244 0.03321600
f 1 2 3
f 1 3 4
f 1 4 5
f 1 5 6
f 1 6 7
f 1 7 8
f 1 8 2
f 2 9 10
f 2 10 11
f 2 11 3
f 2 8 12
f 2 12 13
f 2 13 14
f 2 14 15
f 2 15 9
f 3 11 4
f 4 16 5
f 4 11 17
f 4 17 16
f 5 16 18
f 5 18 19
f 5 19 20
f 5 20 21
f 5 21 6
f 6 21 22
f 6 22 23
f 6 23 7
f 7 23 24
f 7 24 8
f 8 24 25
f 8 25 12
f 9 15 26
f 9 26 27
f 9 27 28
f 9 28 10
f 10 28 16
f 10 16 17
f 10 17 11
f 12 25 29
f 12 29 13
f 13 29 14
f 14 30 15
f 14 29 25
f 14 25 30
f 15 30 31
f 15 31 26
f 16 32 18
f 16 28 33
f 16 33 32
f 18 34 35
f 18 35 19
f 18 32 34
f 19 36 37
f 19 37 20
f 19 35 36
f 20 37 22
f 20 22 21
f 22 37 38
f 22 38 23
f 23 38 39
f 23 39 24
f 24 39 40
f 24 40 41
f 24 41 25
f 25 41 42
f 25 42 43
f 25 43 44
f 25 44 30
f 26 31 45
f 26 45 46
f 26 46 27
f 27 47 28
f 27 46 47
f 28 47 33
f 30 44 48
f 30 48 49
f 30 49 31
f 31 49 50
f 31 50 45
f 32 33 34
f 33 47 34
f 34 47 35
f 35 47 51
f 35 51 52
f 35 52 36
f 36 52 53
f 36 53 37
f 37 53 54
f 37 54 38
f 38 54 39
f 39 54 40
f 40 54 55
f 40 55 41
f 41 55 56
f 41 56 42
f 42 56 57
f 42 57 43
f 43 57 58
f 43 58 44
f 44 58 48
f 45 50 46
f 46 50 59
f 46 59 51
f 46 51 47
f 48 58 59
f 48 59 49
f 49 59 50
f 51 59 60
f 51 60 61
f 51 61 52
f 52 61 62
f 52 62 53
f 53 62 54
f 54 62 55
f 55 62 61
f 55 61 56
f 56 61 63
f 56 63 64
f 56 64 57
f 57 64 63
f 57 63 58
f 58 63 59
f 59 63 60
f 60 63 61

