# https://github.com/mikedh/trimesh
v 0.01931727 0.02152116 0.02902746
v 0.02023571 0.02063622 0.02902746
v 0.01963858 0.02084852 0.00824940
v 0.01931727 0.01753367 0.00828601
v 0.01931727 0.01802974 0.02883831
v 0.02631280 0.00004713 0.02879153
v 0.02880437 0.00016274 0.02902746
v 0.02066938 0.01983115 0.00824940
v 0.02163611 0.01915431 0.02902746
v 0.02605371 0.00004713 0.00824940
v 0.01931727 0.01753367 0.00915651
v 0.01931727 0.01794356 0.02674952
v 0.02628030 0.00004713 0.02755494
v 0.02843013 0.00006184 0.00824940
v 0.02856942 0.00010599 0.01386899
v 0.02861864 0.00042969 0.01650286
v 0.02861493 0.00138821 0.01719641
v 0.02878580 0.00113386 0.02902746
v 0.02118664 0.01925731 0.00824940
v 0.02232981 0.01832192 0.02902746
v 0.02170019 0.01866034 0.00824940
v 0.02609921 0.00004713 0.01225410
v 0.01931727 0.01784266 0.02344244
v 0.02841062 0.00111074 0.00824940
v 0.02848585 0.00016274 0.01037887
v 0.02857964 0.00083328 0.01470085
v 0.02857221 0.00138821 0.01525610
v 0.02857407 0.00222060 0.01775166
v 0.02869944 0.00222060 0.02634071
v 0.02871337 0.00224372 0.02902746
v 0.02335597 0.01695141 0.02902746
v 0.02299659 0.01702498 0.00824940
v 0.02229174 0.01793935 0.00824940
v 0.02835119 0.00222060 0.00824940
v 0.02853692 0.00249806 0.01691981
v 0.02848399 0.00305299 0.01719641
v 0.02854714 0.00360582 0.02634071
v 0.02863907 0.00305299 0.02902746
v 0.02381659 0.01628508 0.02902746
v 0.02368657 0.01603284 0.00824940
v 0.02825926 0.00309923 0.00824940
v 0.02842548 0.00333045 0.01594965
v 0.02803359 0.00554596 0.01109682
v 0.02836048 0.00511295 0.02902746
v 0.02853042 0.00392952 0.02902746
v 0.02437656 0.01539804 0.02902746
v 0.02489754 0.01455303 0.02902746
v 0.02450750 0.01469597 0.00824940
v 0.02808095 0.00471567 0.00824940
v 0.02798716 0.00549551 0.00824940
v 0.02779307 0.00661588 0.00833889
v 0.02787015 0.00724228 0.02902746
v 0.02538601 0.01365758 0.02902746
v 0.02499876 0.01381523 0.00824940
v 0.02751355 0.00772784 0.00824940
v 0.02721545 0.00871998 0.00824940
v 0.02716902 0.00956078 0.02902746
v 0.02579368 0.01284411 0.02902746
v 0.02563210 0.01258346 0.00824940
v 0.02653754 0.01056554 0.00824940
v 0.02681334 0.01053821 0.02902746
v 0.02615864 0.01208528 0.02902746
v 0.02606206 0.01164176 0.00824940
v 0.02652268 0.01123397 0.02902746
f 1 2 3
f 1 3 4
f 1 4 11
f 1 11 23
f 1 23 12
f 1 12 5
f 1 5 6
f 1 6 7
f 1 7 18
f 1 18 30
f 1 30 38
f 1 38 45
f 1 45 44
f 1 44 52
f 1 52 57
f 1 57 61
f 1 61 64
f 1 64 62
f 1 62 58
f 1 58 53
f 1 53 47
f 1 47 46
f 1 46 39
f 1 39 31
f 1 31 20
f 1 20 9
f 1 9 2
f 2 8 3
f 2 9 8
f 3 8 19
f 3 19 21
f 3 21 33
f 3 33 32
f 3 32 40
f 3 40 48
f 3 48 54
f 3 54 59
f 3 59 63
f 3 63 60
f 3 60 56
f 3 56 55
f 3 55 50
f 3 50 49
f 3 49 41
f 3 41 34
f 3 34 24
f 3 24 14
f 3 14 10
f 3 10 4
f 4 10 11
f 5 12 13
f 5 13 6
f 6 13 22
f 6 22 10
f 6 10 14
f 6 14 7
f 7 14 15
f 7 15 16
f 7 16 17
f 7 17 18
f 8 9 19
f 9 20 21
f 9 21 19
f 10 22 23
f 10 23 11
f 12 23 13
f 13 23 22
f 14 24 25
f 14 25 15
f 15 25 26
f 15 26 16
f 16 26 17
f 17 27 28
f 17 28 29
f 17 29 18
f 17 26 27
f 18 29 30
f 20 31 32
f 20 32 33
f 20 33 21
f 24 34 27
f 24 27 26
f 24 26 25
f 27 34 35
f 27 35 28
f 28 35 29
f 29 35 36
f 29 36 37
f 29 37 38
f 29 38 30
f 31 39 40
f 31 40 32
f 34 41 35
f 35 41 42
f 35 42 36
f 36 42 37
f 37 42 43
f 37 43 44
f 37 44 45
f 37 45 38
f 39 46 40
f 40 46 47
f 40 47 48
f 41 49 42
f 42 49 50
f 42 50 43
f 43 50 51
f 43 51 44
f 44 51 52
f 47 53 54
f 47 54 48
f 50 55 51
f 51 55 52
f 52 55 56
f 52 56 57
f 53 58 59
f 53 59 54
f 56 60 61
f 56 61 57
f 58 62 59
f 59 62 63
f 60 63 62
f 60 62 64
f 60 64 61

