# https://github.com/mikedh/trimesh
v 0.01288850 -0.02997107 0.03163476
v 0.01304131 -0.02996095 0.03014440
v 0.01419090 -0.02944724 0.03006406
v 0.01546164 -0.02884370 0.03071362
v 0.01441022 -0.02925745 0.03167904
v 0.01328279 -0.02939663 0.03248379
v 0.01319015 -0.02831861 0.03323970
v 0.01288850 -0.02619167 0.03330269
v 0.01288850 -0.02586017 0.02881883
v 0.01350922 -0.02874628 0.02900552
v 0.01473166 -0.02860457 0.02916848
v 0.01493514 -0.02888799 0.02958706
v 0.01620191 -0.02834771 0.02983903
v 0.01710528 -0.02788589 0.03014349
v 0.01675533 -0.02808454 0.03100804
v 0.01592084 -0.02831229 0.03212410
v 0.01430254 -0.02863114 0.03274808
v 0.01612511 -0.02723047 0.03304159
v 0.01700315 -0.02604364 0.03333647
v 0.01454719 -0.02721782 0.03338531
v 0.01323924 -0.02735067 0.03341452
v 0.01414419 -0.02689770 0.03344465
v 0.02097686 -0.02094455 0.03343415
v 0.02097686 -0.01984249 0.03325248
v 0.02097686 -0.01854937 0.03284257
v 0.01288850 -0.02502762 0.03287863
v 0.01288850 -0.02303733 0.02907308
v 0.01930472 -0.01790788 0.02881883
v 0.01400960 -0.02527941 0.02881883
v 0.01885659 -0.02551095 0.02893385
v 0.01556615 -0.02773152 0.02897311
v 0.01562632 -0.02821486 0.02924106
v 0.01858265 -0.02636249 0.02919724
v 0.01942823 -0.02586017 0.02927575
v 0.01942981 -0.02634604 0.03032197
v 0.01872913 -0.02680913 0.03101762
v 0.01785980 -0.02724439 0.03178312
v 0.01671416 -0.02777834 0.03223730
v 0.01740693 -0.02708623 0.03249566
v 0.01860482 -0.02582348 0.03292154
v 0.01607365 -0.02611449 0.03343415
v 0.01983439 -0.02411535 0.03327485
v 0.02054536 -0.02311704 0.03338440
v 0.01968871 -0.02301708 0.03348208
v 0.02093173 -0.02209975 0.03347204
v 0.02093173 -0.02384837 0.02902058
v 0.02097686 -0.01987919 0.02889323
v 0.02096577 -0.01733091 0.03211816
v 0.01288850 -0.02390531 0.03189586
v 0.01288850 -0.02324230 0.03031192
v 0.02048123 -0.01704496 0.03090670
v 0.02055407 -0.01704496 0.02908312
v 0.01930393 -0.02110651 0.02881883
v 0.01671970 -0.02358899 0.02881883
v 0.01751936 -0.02664085 0.02901921
v 0.01762307 -0.02291713 0.02881883
v 0.01848527 -0.02221363 0.02881883
v 0.01968871 -0.02467840 0.02893066
v 0.02048361 -0.02494664 0.02930816
v 0.02082326 -0.02524778 0.03059219
v 0.01992069 -0.02587156 0.03146359
v 0.01876792 -0.02635363 0.03229344
v 0.01963645 -0.02541100 0.03260430
v 0.02062691 -0.02478342 0.03237880
f 1 2 3
f 1 3 4
f 1 4 5
f 1 5 6
f 1 6 7
f 1 7 8
f 1 8 26
f 1 26 49
f 1 49 50
f 1 50 27
f 1 27 9
f 1 9 2
f 2 10 11
f 2 11 12
f 2 12 3
f 2 9 10
f 3 12 13
f 3 13 4
f 4 13 14
f 4 14 15
f 4 15 5
f 5 15 16
f 5 16 6
f 6 16 17
f 6 17 7
f 7 17 18
f 7 18 19
f 7 19 20
f 7 20 21
f 7 21 8
f 8 21 22
f 8 22 23
f 8 23 24
f 8 24 25
f 8 25 26
f 9 27 28
f 9 28 53
f 9 53 57
f 9 57 56
f 9 56 54
f 9 54 29
f 9 29 30
f 9 30 31
f 9 31 10
f 10 31 11
f 11 32 12
f 11 31 32
f 12 32 13
f 13 32 33
f 13 33 34
f 13 34 14
f 14 35 36
f 14 36 15
f 14 34 35
f 15 36 37
f 15 37 16
f 16 37 38
f 16 38 17
f 17 38 39
f 17 39 18
f 18 39 40
f 18 40 19
f 19 41 20
f 19 40 42
f 19 42 43
f 19 43 41
f 20 41 22
f 20 22 21
f 22 41 44
f 22 44 23
f 23 44 45
f 23 45 46
f 23 46 47
f 23 47 25
f 23 25 24
f 25 47 48
f 25 48 26
f 26 48 49
f 27 50 51
f 27 51 28
f 28 51 52
f 28 52 47
f 28 47 53
f 29 54 30
f 30 34 33
f 30 33 55
f 30 55 31
f 30 54 56
f 30 56 57
f 30 57 58
f 30 58 46
f 30 46 34
f 31 55 33
f 31 33 32
f 34 46 59
f 34 59 60
f 34 60 35
f 35 60 61
f 35 61 36
f 36 61 37
f 37 61 62
f 37 62 38
f 38 62 39
f 39 62 40
f 40 63 42
f 40 62 63
f 41 43 44
f 42 63 64
f 42 64 43
f 43 45 44
f 43 64 45
f 45 64 60
f 45 60 46
f 46 60 59
f 46 58 47
f 47 52 48
f 47 58 53
f 48 52 51
f 48 51 49
f 49 51 50
f 53 58 57
f 60 64 61
f 61 64 62
f 62 64 63

