# https://github.com/mikedh/trimesh
v -0.02006550 0.01485852 -0.00626561
v -0.02006550 0.01535429 -0.01247433
v -0.01788326 0.01593569 -0.01247433
v -0.01773176 0.01552375 -0.00617893
v -0.01874223 0.01521367 -0.00485142
v -0.02003932 0.01489819 -0.00529849
v -0.02006550 0.01541469 -0.00099967
v -0.02006223 0.02005597 -0.01054313
v -0.01998461 0.02008752 -0.01221887
v -0.01868798 0.02132423 -0.01247433
v -0.02006550 0.02013529 -0.00589153
v -0.01660253 0.01674064 -0.01247433
v -0.01528860 0.01679382 -0.00723881
v -0.01558646 0.01651349 -0.00609986
v -0.01664882 0.01597445 -0.00609986
v -0.01778039 0.01551564 -0.00500044
v -0.01804318 0.01554268 -0.00367598
v -0.01852573 0.01558595 -0.00238952
v -0.01992429 0.01524703 -0.00235911
v -0.02006550 0.01575541 0.00053921
v -0.01939311 0.02078430 -0.00734677
v -0.01918503 0.02094835 -0.00894191
v -0.01780330 0.02209132 -0.01247433
v -0.01898070 0.02118632 -0.00637661
v -0.02006550 0.01667844 0.00306041
v -0.02001407 0.02025518 -0.00166570
v -0.01591424 0.01771324 -0.01247433
v -0.01528860 0.01705432 -0.00840817
v -0.01528860 0.01719404 -0.00253246
v -0.01547283 0.01680193 -0.00361971
v -0.01569447 0.01647473 -0.00504302
v -0.01666004 0.01598437 -0.00498980
v -0.01662077 0.01613039 -0.00387366
v -0.01720572 0.01603935 -0.00277880
v -0.01819935 0.01592848 -0.00151820
v -0.02006550 0.01611958 0.00165383
v -0.01854724 0.01604296 -0.00057541
v -0.01996544 0.02031918 -0.00063016
v -0.01883948 0.02146575 0.00306041
v -0.01727539 0.02252940 -0.01157564
v -0.01668810 0.02295486 -0.01247433
v -0.01812080 0.02205346 0.00306041
v -0.01737592 0.01665681 -0.00051611
v -0.01711220 0.01722288 0.00036738
v -0.01646038 0.01785837 0.00061980
v -0.01614149 0.01863537 0.00126455
v -0.01799735 0.01854974 0.00306041
v -0.01972557 0.02059951 0.00305889
v -0.01528860 0.02031377 -0.01247433
v -0.01528860 0.01801882 -0.01027246
v -0.01528860 0.01740857 -0.00929470
v -0.01528860 0.02100243 0.00306041
v -0.01541906 0.01846230 0.00012255
v -0.01562854 0.01747347 -0.00127338
v -0.01679798 0.01656757 -0.00161856
v -0.01628317 0.01652611 -0.00276056
v -0.01711361 0.02267813 -0.01025878
v -0.01682417 0.02291249 -0.00831693
v -0.01542467 0.02388329 -0.00901186
v -0.01533349 0.02389952 -0.01229186
v -0.01680500 0.02304139 0.00305889
v -0.01625838 0.01744463 -0.00039294
v -0.01528860 0.02406628 0.00155499
v -0.01543449 0.02397704 0.00305737
f 1 2 3
f 1 3 4
f 1 4 5
f 1 5 6
f 1 6 7
f 1 7 20
f 1 20 36
f 1 36 25
f 1 25 11
f 1 11 2
f 2 8 9
f 2 9 10
f 2 10 23
f 2 23 41
f 2 41 49
f 2 49 27
f 2 27 12
f 2 12 3
f 2 11 8
f 3 12 13
f 3 13 14
f 3 14 15
f 3 15 4
f 4 15 16
f 4 16 5
f 5 16 17
f 5 17 18
f 5 18 19
f 5 19 6
f 6 19 7
f 7 19 18
f 7 18 20
f 8 11 21
f 8 21 22
f 8 22 9
f 9 22 10
f 10 22 24
f 10 24 23
f 11 25 26
f 11 26 21
f 12 27 28
f 12 28 13
f 13 28 51
f 13 51 50
f 13 50 49
f 13 49 63
f 13 63 52
f 13 52 29
f 13 29 30
f 13 30 14
f 14 31 32
f 14 32 15
f 14 30 31
f 15 32 16
f 16 32 17
f 17 33 34
f 17 34 18
f 17 32 33
f 18 34 35
f 18 35 20
f 20 35 37
f 20 37 36
f 21 24 22
f 21 26 38
f 21 38 39
f 21 39 24
f 23 40 41
f 23 24 39
f 23 39 42
f 23 42 40
f 25 36 43
f 25 43 44
f 25 44 45
f 25 45 46
f 25 46 47
f 25 47 52
f 25 52 42
f 25 42 39
f 25 39 48
f 25 48 38
f 25 38 26
f 27 49 50
f 27 50 51
f 27 51 28
f 29 52 53
f 29 53 54
f 29 54 55
f 29 55 56
f 29 56 30
f 30 56 33
f 30 33 31
f 31 33 32
f 33 56 34
f 34 56 55
f 34 55 35
f 35 55 37
f 36 37 43
f 37 55 43
f 38 48 39
f 40 57 41
f 40 42 57
f 41 57 58
f 41 58 59
f 41 59 60
f 41 60 49
f 42 52 61
f 42 61 57
f 43 55 54
f 43 54 62
f 43 62 44
f 44 62 45
f 45 62 54
f 45 54 53
f 45 53 46
f 46 53 52
f 46 52 47
f 49 60 63
f 52 63 64
f 52 64 61
f 57 61 58
f 58 61 59
f 59 61 63
f 59 63 60
f 61 64 63

