# https://github.com/mikedh/trimesh
v -0.02057704 0.00764918 -0.02721757
v -0.02066475 0.00789583 -0.03156451
v -0.02056222 0.00789583 -0.02786635
v -0.02349281 0.00764918 -0.02721757
v -0.02187712 -0.00094547 -0.02721757
v -0.02093791 0.00789583 -0.03261908
v -0.02208699 -0.00094547 -0.03158486
v -0.02222117 -0.00094547 -0.03234496
v -0.02324970 0.00789583 -0.02786635
v -0.02350483 0.00693087 -0.03133588
v -0.02366143 0.00637786 -0.03133588
v -0.02374994 0.00615025 -0.03078107
v -0.02402190 0.00572964 -0.02721757
v -0.02323528 0.00789583 -0.03078107
v -0.02464030 -0.00088835 -0.02721757
v -0.02269338 -0.00094547 -0.03303504
v -0.02134523 0.00789583 -0.03303205
v -0.02357852 0.00637786 -0.03189010
v -0.02323207 0.00773313 -0.03160341
v -0.02385168 0.00550030 -0.03157768
v -0.02404032 0.00471276 -0.03133588
v -0.02414566 0.00513422 -0.02721757
v -0.02190876 0.00789583 -0.03318047
v -0.02277228 0.00789410 -0.03265918
v -0.02465391 -0.00020465 -0.02721757
v -0.02444404 0.00027739 -0.03133588
v -0.02441160 -0.00027649 -0.03167942
v -0.02438837 -0.00090220 -0.03176082
v -0.02421014 -0.00088835 -0.03246766
v -0.02382725 -0.00088835 -0.03304282
v -0.02328254 -0.00088835 -0.03332053
v -0.02334262 0.00694039 -0.03214267
v -0.02381042 0.00451890 -0.03261489
v -0.02390895 0.00482353 -0.03209598
v -0.02405554 0.00415801 -0.03189010
v -0.02425740 0.00332806 -0.03133588
v -0.02415767 0.00415801 -0.03105877
v -0.02450452 0.00307708 -0.02721757
v -0.02282835 0.00429735 -0.03332531
v -0.02334903 0.00468073 -0.03316791
v -0.02344835 0.00526837 -0.03293150
v -0.02344675 0.00590187 -0.03261190
v -0.02461626 0.00201952 -0.02721757
v -0.02447528 0.00083300 -0.03078107
v -0.02442242 0.00083300 -0.03158127
v -0.02430426 -0.00027649 -0.03220072
v -0.02423617 0.00027739 -0.03244491
v -0.02398505 0.00138775 -0.03295304
v -0.02398305 -0.00027649 -0.03290995
v -0.02379641 0.00194249 -0.03311464
v -0.02371710 0.00249637 -0.03318107
v -0.02343994 0.00249637 -0.03332771
v -0.02320804 0.00305112 -0.03333190
v -0.02393338 0.00369154 -0.03260471
v -0.02392057 0.00305112 -0.03284411
v -0.02406715 0.00305112 -0.03244491
v -0.02416889 0.00332806 -0.03189010
v -0.02430306 0.00221943 -0.03189010
v -0.02433831 0.00249637 -0.03133588
v -0.02439838 0.00186114 -0.03126705
v -0.02440359 0.00139294 -0.03160880
v -0.02423617 0.00111081 -0.03244491
v -0.02394820 0.00249637 -0.03290397
v -0.02416849 0.00221943 -0.03244491
f 1 2 3
f 1 3 9
f 1 9 4
f 1 4 13
f 1 13 22
f 1 22 38
f 1 38 43
f 1 43 25
f 1 25 15
f 1 15 5
f 1 5 2
f 2 6 17
f 2 17 23
f 2 23 14
f 2 14 9
f 2 9 3
f 2 5 7
f 2 7 8
f 2 8 6
f 4 10 11
f 4 11 12
f 4 12 13
f 4 9 14
f 4 14 10
f 5 15 16
f 5 16 8
f 5 8 7
f 6 8 16
f 6 16 17
f 10 18 11
f 10 14 19
f 10 19 18
f 11 18 20
f 11 20 12
f 12 20 21
f 12 21 13
f 13 21 22
f 14 23 24
f 14 24 19
f 15 25 26
f 15 26 27
f 15 27 28
f 15 28 16
f 16 28 29
f 16 29 30
f 16 30 31
f 16 31 17
f 17 31 23
f 18 19 32
f 18 32 33
f 18 33 34
f 18 34 20
f 19 24 32
f 20 34 21
f 21 34 35
f 21 35 36
f 21 36 37
f 21 37 22
f 22 37 38
f 23 31 39
f 23 39 40
f 23 40 24
f 24 40 41
f 24 41 42
f 24 42 32
f 25 43 44
f 25 44 26
f 26 44 45
f 26 45 27
f 27 46 28
f 27 45 46
f 28 46 29
f 29 46 47
f 29 47 48
f 29 48 49
f 29 49 30
f 30 49 48
f 30 48 50
f 30 50 51
f 30 51 52
f 30 52 31
f 31 53 39
f 31 52 53
f 32 42 33
f 33 54 34
f 33 42 41
f 33 41 55
f 33 55 54
f 34 54 56
f 34 56 35
f 35 57 36
f 35 56 57
f 36 57 58
f 36 58 59
f 36 59 43
f 36 43 38
f 36 38 37
f 39 53 52
f 39 52 40
f 40 52 51
f 40 51 55
f 40 55 41
f 43 59 60
f 43 60 61
f 43 61 44
f 44 61 45
f 45 61 62
f 45 62 46
f 46 62 47
f 47 62 48
f 48 62 63
f 48 63 51
f 48 51 50
f 51 63 55
f 54 55 64
f 54 64 56
f 55 63 64
f 56 64 57
f 57 64 58
f 58 64 62
f 58 62 61
f 58 61 59
f 59 61 60
f 62 64 63

