# https://github.com/mikedh/trimesh
v -0.02562987 -0.00094269 -0.02492523
v -0.02798945 -0.00028895 -0.02398357
v -0.02701445 0.00751891 -0.02418814
v -0.02605169 0.01033944 -0.02432451
v -0.02046768 0.01919575 -0.02478561
v -0.02006790 0.01548506 -0.02492199
v -0.02006790 0.01418375 -0.01893104
v -0.02554175 -0.00094269 0.00136671
v -0.02815752 -0.00094269 -0.01469680
v -0.02807348 -0.00023961 -0.02198009
v -0.02794376 0.00250074 -0.02330816
v -0.02790867 0.00443935 -0.01233939
v -0.02783932 0.00600585 0.00415924
v -0.02668319 0.00891684 -0.02216518
v -0.02588688 0.01105074 -0.02121053
v -0.02527006 0.01225543 -0.02366535
v -0.02440684 0.01387333 -0.02420762
v -0.02200647 0.01748328 -0.02459078
v -0.02026289 0.01959868 -0.02244118
v -0.02006790 0.02005918 -0.01025798
v -0.02006790 0.01491150 -0.00497492
v -0.02006790 0.01531238 -0.00166610
v -0.02006790 0.01690355 0.00824736
v -0.02612349 -0.00094269 0.00824736
v -0.02811509 0.00034834 -0.02003182
v -0.02823014 -0.00094269 -0.00804994
v -0.02820729 0.00277416 -0.00443914
v -0.02794294 0.00526988 0.00193821
v -0.02797558 0.00533567 0.00824736
v -0.02707482 0.00885105 0.00812397
v -0.02606230 0.01108158 -0.00915072
v -0.02592115 0.01116175 -0.01635933
v -0.02650043 0.01025926 0.00138620
v -0.02497389 0.01306335 -0.01982400
v -0.02329722 0.01569064 -0.02423035
v -0.02420123 0.01436672 -0.02180150
v -0.02300757 0.01648212 -0.01376812
v -0.02170051 0.01794789 -0.02269121
v -0.02180004 0.01820692 -0.00680629
v -0.02029227 0.01990910 -0.00558862
v -0.02031348 0.01993172 -0.00284480
v -0.02057538 0.01974259 0.00387674
v -0.02089929 0.01942805 0.00790317
v -0.02302471 0.01683776 0.00811098
v -0.02592604 0.01181344 0.00824736
v -0.02840229 -0.00046986 0.00824736
v -0.02823177 0.00277416 -0.00194210
v -0.02833294 0.00197858 0.00824736
v -0.02634133 0.01079788 0.00498725
v -0.02556460 0.01237672 -0.00055883
v -0.02476257 0.01404807 0.00332473
v -0.02424040 0.01450856 -0.01525206
v -0.02387814 0.01501634 -0.01913237
v -0.02378431 0.01541722 -0.00915072
v -0.02384224 0.01551384 -0.00083484
v -0.02323684 0.01647389 0.00187002
v -0.02252456 0.01726331 -0.00858572
v -0.02214027 0.01768680 -0.01191402
v -0.02199504 0.01815141 0.00296754
v -0.02149245 0.01876609 0.00523079
v -0.02388466 0.01557963 0.00623739
v -0.02475604 0.01412825 0.00786745
v -0.02441092 0.01443045 -0.00638417
v -0.02384469 0.01523837 -0.01247252
f 1 2 3
f 1 3 4
f 1 4 5
f 1 5 6
f 1 6 7
f 1 7 8
f 1 8 24
f 1 24 26
f 1 26 9
f 1 9 2
f 2 10 11
f 2 11 3
f 2 9 10
f 3 11 12
f 3 12 13
f 3 13 14
f 3 14 4
f 4 14 15
f 4 15 16
f 4 16 17
f 4 17 18
f 4 18 5
f 5 18 19
f 5 19 6
f 6 19 20
f 6 20 23
f 6 23 22
f 6 22 21
f 6 21 7
f 7 21 8
f 8 21 22
f 8 22 23
f 8 23 24
f 9 25 10
f 9 26 25
f 10 25 11
f 11 25 27
f 11 27 12
f 12 27 28
f 12 28 13
f 13 28 29
f 13 29 30
f 13 30 14
f 14 31 32
f 14 32 15
f 14 30 33
f 14 33 31
f 15 32 34
f 15 34 16
f 16 34 17
f 17 35 18
f 17 34 36
f 17 36 35
f 18 35 37
f 18 37 38
f 18 38 19
f 19 38 39
f 19 39 40
f 19 40 20
f 20 40 41
f 20 41 23
f 23 41 42
f 23 42 43
f 23 43 44
f 23 44 45
f 23 45 29
f 23 29 48
f 23 48 46
f 23 46 24
f 24 46 26
f 25 26 46
f 25 46 47
f 25 47 27
f 27 47 28
f 28 47 29
f 29 45 30
f 29 47 48
f 30 45 49
f 30 49 33
f 31 34 32
f 31 33 49
f 31 49 45
f 31 45 50
f 31 50 34
f 34 50 51
f 34 51 52
f 34 52 36
f 35 36 53
f 35 53 37
f 36 52 53
f 37 54 55
f 37 55 56
f 37 56 57
f 37 57 58
f 37 58 38
f 37 53 54
f 38 58 39
f 39 59 60
f 39 60 40
f 39 58 59
f 40 60 41
f 41 60 42
f 42 60 43
f 43 60 44
f 44 60 59
f 44 59 56
f 44 56 61
f 44 61 62
f 44 62 45
f 45 62 51
f 45 51 50
f 46 48 47
f 51 62 61
f 51 61 55
f 51 55 63
f 51 63 52
f 52 64 53
f 52 63 64
f 53 64 54
f 54 64 63
f 54 63 55
f 55 61 56
f 56 59 57
f 57 59 58

