# https://github.com/mikedh/trimesh
v 0.00704613 0.02766820 0.05436903
v 0.00170260 0.02764636 0.05410421
v 0.01418356 0.02696379 0.05532632
v 0.02609962 0.02257348 0.04530718
v 0.02038205 0.02328882 0.04530718
v 0.01267973 0.02405876 0.04530718
v -0.00899972 0.02569148 0.04593687
v -0.00332031 0.02709484 0.05323618
v -0.01353408 0.02365468 0.05474763
v 0.03602331 0.02102268 0.05532632
v 0.03961111 0.01993602 0.04530718
v 0.03152712 0.02181446 0.04530718
v -0.01839669 0.01900772 0.05511054
v -0.02100738 0.01475393 0.05532632
v -0.02499976 0.01669790 0.04530718
v -0.01619821 0.02470311 0.04572698
v -0.00834323 0.02637951 0.05115781
v -0.01420584 0.02488331 0.04990726
v -0.01770966 0.02335435 0.04887739
v 0.04213020 0.01781732 0.05532632
v 0.04009966 -0.02071800 0.04530718
v 0.04529052 0.01588427 0.04593687
v 0.04942030 0.00626273 0.04614677
v 0.04773327 -0.01278924 0.04573581
v -0.02182418 0.02110458 0.04583879
v -0.02280128 0.00994862 0.05532632
v -0.02751122 0.00841966 0.04530718
v -0.02653412 0.01256424 0.04531209
v 0.04709205 0.01050014 0.05532632
v 0.04489357 -0.01713040 0.04593687
v 0.04305387 -0.01769284 0.05532632
v 0.03705385 -0.02138965 0.05532632
v 0.03548896 -0.02197393 0.04530718
v 0.04832106 0.00937526 0.04912260
v 0.04891648 0.00208539 0.05532632
v 0.04977908 -0.00028997 0.04824182
v 0.04980198 -0.00427619 0.04614677
v 0.04884778 -0.00871018 0.04777886
v 0.04651189 -0.01363017 0.05256824
v -0.02407609 0.00207446 0.05532632
v -0.02809901 0.00364711 0.04530718
v 0.04849663 -0.00617101 0.05506640
v 0.01411485 -0.02730892 0.05532632
v 0.03015307 -0.02272749 0.04530718
v -0.02818298 -0.00400316 0.04530718
v -0.02384708 -0.00574509 0.05532632
v 0.00784003 -0.02811708 0.05532632
v 0.02087060 -0.02371585 0.04530718
v -0.02690816 -0.01183363 0.04530718
v -0.02280128 -0.01055040 0.05532632
v 0.01293164 -0.02439297 0.04530718
v -0.01035850 -0.02533765 0.05532632
v -0.00572490 -0.02676832 0.05428075
v 0.00039726 -0.02769116 0.05407380
v -0.00369436 -0.02717786 0.05029370
v -0.02498449 -0.01713586 0.04530718
v -0.02121349 -0.01461853 0.05532632
v 0.00835911 -0.02468238 0.04530718
v -0.01816005 -0.01923272 0.05532632
v -0.01573256 -0.02273295 0.05367461
v -0.01874783 -0.02342645 0.04662836
v -0.00861040 -0.02638608 0.05115879
v -0.01089285 -0.02581272 0.04693928
v -0.02221349 -0.02092550 0.04574562
f 1 2 3
f 1 3 4
f 1 4 5
f 1 5 6
f 1 6 7
f 1 7 2
f 2 7 8
f 2 8 9
f 2 9 3
f 3 10 11
f 3 11 12
f 3 12 4
f 3 9 13
f 3 13 14
f 3 14 26
f 3 26 40
f 3 40 46
f 3 46 50
f 3 50 57
f 3 57 59
f 3 59 52
f 3 52 47
f 3 47 43
f 3 43 32
f 3 32 31
f 3 31 35
f 3 35 29
f 3 29 20
f 3 20 10
f 4 12 11
f 4 11 21
f 4 21 33
f 4 33 44
f 4 44 48
f 4 48 51
f 4 51 58
f 4 58 56
f 4 56 49
f 4 49 45
f 4 45 41
f 4 41 27
f 4 27 15
f 4 15 6
f 4 6 5
f 6 15 16
f 6 16 7
f 7 16 17
f 7 17 8
f 8 17 9
f 9 17 18
f 9 18 19
f 9 19 13
f 10 20 11
f 11 20 22
f 11 22 23
f 11 23 24
f 11 24 21
f 13 19 25
f 13 25 15
f 13 15 14
f 14 15 26
f 15 27 28
f 15 28 26
f 15 25 16
f 16 19 18
f 16 18 17
f 16 25 19
f 20 29 22
f 21 24 30
f 21 30 31
f 21 31 32
f 21 32 33
f 22 29 34
f 22 34 23
f 23 35 36
f 23 36 37
f 23 37 24
f 23 34 35
f 24 37 38
f 24 38 39
f 24 39 30
f 26 28 27
f 26 27 40
f 27 41 40
f 29 35 34
f 30 39 31
f 31 39 42
f 31 42 35
f 32 43 33
f 33 43 44
f 35 42 36
f 36 42 37
f 37 42 38
f 38 42 39
f 40 41 45
f 40 45 46
f 43 47 44
f 44 47 48
f 45 49 46
f 46 49 50
f 47 51 48
f 47 52 53
f 47 53 54
f 47 54 55
f 47 55 51
f 49 56 50
f 50 56 57
f 51 55 58
f 52 59 60
f 52 60 61
f 52 61 62
f 52 62 53
f 53 55 54
f 53 62 55
f 55 62 63
f 55 63 58
f 56 64 59
f 56 59 57
f 56 58 64
f 58 63 64
f 59 64 60
f 60 64 61
f 61 63 62
f 61 64 63

