# https://github.com/mikedh/trimesh
v 0.00728101 0.01843505 0.10180700
v 0.00731248 0.01738265 0.10410676
v 0.01095540 0.01782386 0.10314198
v 0.01431506 0.01804086 0.10180700
v 0.00424000 0.01796129 0.10180700
v 0.00985780 0.01615304 0.10678891
v 0.00626996 0.01593243 0.10678891
v 0.01294208 0.01582032 0.10678891
v 0.01731279 0.01712949 0.10180700
v -0.00003236 0.01637364 0.10180700
v 0.00363416 0.01665211 0.10424674
v 0.00307553 0.01521998 0.10678891
v 0.01567624 0.01489087 0.10678891
v 0.02101865 0.01532124 0.10180700
v -0.00022119 0.01475706 0.10457403
v -0.00393492 0.01382762 0.10180700
v 0.00025089 0.01361786 0.10678891
v 0.01891788 0.01300667 0.10678891
v 0.02367019 0.01323451 0.10180700
v -0.00635042 0.01145157 0.10180700
v -0.00279798 0.01116948 0.10678891
v 0.02149467 0.01058361 0.10678891
v 0.02550739 0.01130691 0.10180700
v -0.00505219 0.00810268 0.10678891
v -0.00839218 0.00843540 0.10180700
v 0.02391410 0.00671394 0.10678891
v 0.02753341 0.00810992 0.10180700
v -0.00692479 0.00382435 0.10678891
v -0.01011529 0.00417515 0.10180700
v 0.02472058 0.00405219 0.10678891
v 0.02872936 0.00528180 0.10180700
v -0.01075653 -0.00000192 0.10180700
v -0.00734573 -0.00020444 0.10678891
v 0.02535789 -0.00000192 0.10678891
v 0.02937061 0.00239583 0.10180700
v -0.01029232 -0.00431642 0.10180700
v -0.00685004 -0.00432003 0.10678891
v 0.02943355 -0.00208503 0.10180700
v 0.02403999 -0.00633081 0.10678891
v -0.00885640 -0.00821140 0.10180700
v -0.00493416 -0.00872133 0.10678891
v 0.02835956 -0.00625487 0.10180700
v 0.02140812 -0.01099249 0.10678891
v 0.02611323 -0.01039215 0.10180700
v -0.00700740 -0.01122395 0.10180700
v -0.00310877 -0.01111546 0.10678891
v 0.02371740 -0.01326728 0.10180700
v 0.01931522 -0.01302136 0.10678891
v -0.00359659 -0.01459816 0.10180700
v -0.00406868 -0.01241378 0.10427064
v -0.00023299 -0.01366148 0.10678891
v 0.02062525 -0.01561439 0.10180700
v 0.01463372 -0.01556376 0.10678891
v 0.00025089 -0.01694165 0.10180700
v -0.00185775 -0.01443903 0.10412139
v 0.00290243 -0.01677530 0.10448135
v 0.00376398 -0.01575906 0.10678891
v 0.01651025 -0.01767581 0.10180700
v 0.01043610 -0.01632685 0.10678891
v 0.01372889 -0.01788557 0.10290542
v 0.00328403 -0.01813510 0.10180700
v 0.00621095 -0.01833401 0.10258594
v 0.00620702 -0.01693442 0.10541589
v 0.01043610 -0.01851122 0.10258594
f 1 2 3
f 1 3 4
f 1 4 9
f 1 9 14
f 1 14 19
f 1 19 23
f 1 23 27
f 1 27 31
f 1 31 35
f 1 35 38
f 1 38 42
f 1 42 44
f 1 44 47
f 1 47 52
f 1 52 58
f 1 58 61
f 1 61 54
f 1 54 49
f 1 49 45
f 1 45 40
f 1 40 36
f 1 36 32
f 1 32 29
f 1 29 25
f 1 25 20
f 1 20 16
f 1 16 10
f 1 10 5
f 1 5 2
f 2 6 3
f 2 5 7
f 2 7 6
f 3 6 8
f 3 8 4
f 4 8 9
f 5 10 11
f 5 11 7
f 6 7 12
f 6 12 17
f 6 17 21
f 6 21 24
f 6 24 28
f 6 28 33
f 6 33 37
f 6 37 41
f 6 41 46
f 6 46 51
f 6 51 57
f 6 57 59
f 6 59 53
f 6 53 48
f 6 48 43
f 6 43 39
f 6 39 34
f 6 34 30
f 6 30 26
f 6 26 22
f 6 22 18
f 6 18 13
f 6 13 8
f 7 11 12
f 8 13 9
f 9 13 14
f 10 15 12
f 10 12 11
f 10 16 15
f 12 15 17
f 13 18 14
f 14 18 19
f 15 16 17
f 16 20 21
f 16 21 17
f 18 22 19
f 19 22 23
f 20 24 21
f 20 25 24
f 22 26 27
f 22 27 23
f 24 25 28
f 25 29 28
f 26 30 31
f 26 31 27
f 28 29 32
f 28 32 33
f 30 34 35
f 30 35 31
f 32 36 33
f 33 36 37
f 34 38 35
f 34 39 38
f 36 40 37
f 37 40 41
f 38 39 42
f 39 43 44
f 39 44 42
f 40 45 41
f 41 45 46
f 43 47 44
f 43 48 47
f 45 49 50
f 45 50 46
f 46 50 51
f 47 48 52
f 48 53 52
f 49 54 55
f 49 55 50
f 50 55 51
f 51 55 56
f 51 56 57
f 52 53 58
f 53 59 60
f 53 60 58
f 54 61 56
f 54 56 55
f 56 61 62
f 56 62 63
f 56 63 57
f 57 63 59
f 58 60 64
f 58 64 61
f 59 64 60
f 59 63 64
f 61 64 62
f 62 64 63

