# https://github.com/mikedh/trimesh
v 0.05182043 -0.00438132 -0.00505362
v 0.04633071 -0.01937093 -0.00959864
v 0.04826031 -0.01671013 -0.04014423
v 0.05134768 -0.00684192 -0.02683925
v 0.05100035 -0.00287009 -0.06210759
v 0.05085563 0.00478294 -0.04736802
v 0.04985224 0.01039516 0.00296999
v 0.05126085 -0.00152678 0.01741757
v 0.04612810 -0.01700721 0.02061685
v 0.04070591 -0.02387879 -0.01150298
v 0.04202769 -0.02524148 -0.05793075
v 0.04514400 -0.02229006 -0.05673736
v 0.04967857 0.00232880 -0.09359265
v 0.04396694 0.02234938 -0.06576392
v 0.04847257 0.01436698 -0.01527357
v 0.04437216 0.01875213 0.01665583
v 0.03141486 0.02243980 0.02848812
v 0.02442969 -0.02402087 0.02850081
v 0.03746417 -0.02374316 0.00601693
v 0.03862194 -0.02455690 -0.01254402
v 0.04058049 -0.02505419 -0.03623399
v 0.03027639 -0.03077620 -0.10093070
v 0.04279953 -0.02269047 -0.07552683
v 0.03017027 0.03049324 -0.10118461
v 0.04111112 0.02287250 -0.01135064
v 0.04606056 0.01898463 -0.03500251
v 0.03862194 0.02241397 0.01042230
v 0.01071985 0.02522330 0.02691387
v 0.01595872 0.02743203 -0.01569253
v -0.01896713 -0.02479586 0.02390501
v 0.00187261 -0.02633292 0.02201337
v 0.01158817 -0.02741791 -0.00152425
v 0.01230212 -0.02936185 -0.03166358
v 0.03397159 -0.02562252 -0.01329306
v 0.00660979 -0.03314638 -0.09236118
v -0.02526729 -0.03086016 -0.09601750
v -0.03992264 0.02393811 -0.09731246
v -0.01383438 0.03247592 -0.09126936
v 0.00955244 0.03281821 -0.09352917
v 0.00371538 0.02730286 0.00439189
v -0.01101715 0.02629537 0.02117546
v -0.03605378 0.00632000 0.01792539
v -0.03344881 -0.01557993 0.01150142
v -0.03467411 -0.02145049 -0.02399544
v -0.03208844 -0.02647501 -0.04127413
v -0.01962319 -0.02654605 0.00093869
v -0.04182330 -0.02001029 -0.08998710
v -0.04674379 0.00313608 -0.09105353
v -0.04290388 0.01775756 -0.07612353
v -0.03730802 0.02373791 -0.04829479
v -0.03474165 0.02794223 -0.07816751
v -0.02507433 0.02923388 -0.05626762
v -0.01705682 0.02913700 -0.03502791
v -0.01764535 0.02752244 -0.00646283
v -0.00520904 0.02821347 -0.00523136
v -0.02769859 0.02343437 0.01100629
v -0.03358388 0.02119981 -0.00869726
v -0.04245042 0.00599063 -0.02953072
v -0.03990334 -0.00070012 -0.00245103
v -0.04301965 -0.00969647 -0.04645393
v -0.03938234 -0.02079820 -0.06181560
v -0.04574040 0.00301337 -0.06496410
v -0.03437502 0.02371853 -0.03012741
v -0.03320761 0.02707682 -0.05157026
f 1 2 3
f 1 3 4
f 1 4 5
f 1 5 6
f 1 6 7
f 1 7 8
f 1 8 9
f 1 9 2
f 2 9 10
f 2 10 11
f 2 11 12
f 2 12 3
f 3 12 5
f 3 5 4
f 5 13 6
f 5 12 13
f 6 13 14
f 6 14 15
f 6 15 7
f 7 15 16
f 7 16 8
f 8 16 17
f 8 17 9
f 9 17 18
f 9 18 19
f 9 19 10
f 10 19 20
f 10 20 21
f 10 21 11
f 11 21 22
f 11 22 23
f 11 23 12
f 12 23 13
f 13 22 24
f 13 24 14
f 13 23 22
f 14 24 25
f 14 25 16
f 14 16 26
f 14 26 15
f 15 26 16
f 16 25 27
f 16 27 17
f 17 28 18
f 17 27 24
f 17 24 29
f 17 29 28
f 18 28 30
f 18 30 31
f 18 31 32
f 18 32 33
f 18 33 34
f 18 34 19
f 19 34 20
f 20 34 22
f 20 22 21
f 22 34 33
f 22 33 35
f 22 35 36
f 22 36 37
f 22 37 24
f 24 37 38
f 24 38 39
f 24 39 29
f 24 27 25
f 28 29 40
f 28 40 41
f 28 41 42
f 28 42 30
f 29 39 40
f 30 42 43
f 30 43 44
f 30 44 45
f 30 45 46
f 30 46 31
f 31 46 35
f 31 35 33
f 31 33 32
f 35 46 36
f 36 45 47
f 36 47 37
f 36 46 45
f 37 47 48
f 37 48 49
f 37 49 50
f 37 50 51
f 37 51 38
f 38 51 52
f 38 52 53
f 38 53 54
f 38 54 55
f 38 55 39
f 39 55 40
f 40 55 41
f 41 55 54
f 41 54 56
f 41 56 42
f 42 56 57
f 42 57 58
f 42 58 59
f 42 59 43
f 43 59 60
f 43 60 61
f 43 61 44
f 44 61 45
f 45 61 47
f 47 61 60
f 47 60 48
f 48 60 62
f 48 62 49
f 49 62 58
f 49 58 50
f 50 58 57
f 50 57 63
f 50 63 64
f 50 64 51
f 51 64 52
f 52 64 54
f 52 54 53
f 54 64 56
f 56 64 63
f 56 63 57
f 58 62 59
f 59 62 60

