# https://github.com/mikedh/trimesh
v 0.01261770 0.02791883 0.06091142
v 0.01760573 0.02772095 0.06161122
v 0.01020414 0.02787486 0.05717586
v 0.00444085 0.02779791 0.05703123
v 0.00792223 0.02770995 0.06248880
v 0.02926397 0.02600594 0.06213325
v 0.02421743 0.02676450 0.06007753
v 0.01678658 0.02752306 0.05746890
v 0.01582116 0.02692391 0.05581166
v 0.00240761 0.02730319 0.06302288
v -0.00410901 0.02683596 0.05607230
v 0.04508377 0.01795858 0.06294002
v 0.04122939 0.02123469 0.06233588
v 0.03537101 0.02412602 0.06192685
v 0.03602194 0.02102032 0.05532805
v -0.01103520 0.02500002 0.05548474
v -0.00255117 0.02669304 0.06142139
v -0.00894345 0.02418649 0.06302288
v 0.04834574 0.01272560 0.06302288
v 0.04709507 0.01049939 0.05532730
v 0.04212899 0.01782116 0.05532730
v -0.02101126 0.01473744 0.05532730
v -0.01480182 0.02254294 0.05548624
v -0.01419478 0.01990996 0.06302288
v 0.05069347 0.00251250 0.06302288
v 0.04978656 0.00832264 0.06299049
v 0.04891621 0.00208375 0.05532730
v -0.02278852 0.00998269 0.05532730
v -0.02037496 0.01025203 0.06302288
v -0.01712762 0.01655140 0.06302288
v -0.01799796 0.01915139 0.05563539
v 0.05070810 -0.00208285 0.06302288
v 0.04847007 -0.00617249 0.05532730
v -0.02201325 -0.01258179 0.05532730
v -0.02400993 -0.00417714 0.05533031
v -0.02396604 0.00364484 0.05533107
v -0.02197669 0.00365034 0.06302288
v 0.04980850 -0.00825029 0.06302288
v 0.04659042 -0.01267524 0.05532730
v -0.01812961 -0.01928792 0.05532730
v -0.01845142 -0.01476403 0.06302288
v -0.02050661 -0.01047650 0.06302288
v -0.02191818 -0.00441900 0.06302288
v 0.04765092 -0.01473105 0.06302288
v 0.04516422 -0.01854585 0.06302288
v 0.04305053 -0.01769384 0.05532880
v 0.03705319 -0.02138771 0.05532730
v -0.01486765 -0.02259151 0.05532730
v -0.01537962 -0.01877122 0.06302288
v 0.04093683 -0.02199236 0.06232383
v 0.01097209 -0.02807735 0.06302288
v 0.02863498 -0.02679109 0.06195547
v 0.03371809 -0.02524098 0.06152535
v 0.02320081 -0.02738475 0.05920447
v 0.01459975 -0.02750568 0.05586816
v 0.00157383 -0.02784648 0.05533257
v -0.00578388 -0.02665367 0.05533257
v -0.01104983 -0.02500462 0.05548850
v -0.01089624 -0.02296530 0.06302288
v 0.01721810 -0.02819828 0.06091142
v 0.02313498 -0.02779701 0.06195547
v -0.00607643 -0.02574669 0.06284435
v 0.00177130 -0.02754965 0.06062366
v 0.00940693 -0.02823676 0.05716231
f 1 2 3
f 1 3 4
f 1 4 5
f 1 5 2
f 2 6 7
f 2 7 8
f 2 8 3
f 2 5 6
f 3 8 9
f 3 9 4
f 4 10 5
f 4 9 11
f 4 11 10
f 5 10 6
f 6 12 13
f 6 13 14
f 6 14 7
f 6 10 12
f 7 14 15
f 7 15 8
f 8 15 9
f 9 15 16
f 9 16 11
f 10 11 17
f 10 17 18
f 10 18 24
f 10 24 30
f 10 30 29
f 10 29 37
f 10 37 43
f 10 43 42
f 10 42 41
f 10 41 49
f 10 49 59
f 10 59 51
f 10 51 45
f 10 45 44
f 10 44 38
f 10 38 32
f 10 32 25
f 10 25 19
f 10 19 12
f 11 16 17
f 12 19 20
f 12 20 21
f 12 21 13
f 13 21 15
f 13 15 14
f 15 21 22
f 15 22 16
f 16 22 23
f 16 23 18
f 16 18 17
f 18 23 24
f 19 25 26
f 19 26 20
f 20 26 27
f 20 27 33
f 20 33 39
f 20 39 47
f 20 47 48
f 20 48 40
f 20 40 34
f 20 34 28
f 20 28 22
f 20 22 21
f 22 28 29
f 22 29 30
f 22 30 31
f 22 31 23
f 23 31 24
f 24 31 30
f 25 32 27
f 25 27 26
f 27 32 33
f 28 34 35
f 28 35 36
f 28 36 37
f 28 37 29
f 32 38 33
f 33 38 39
f 34 40 41
f 34 41 42
f 34 42 35
f 35 42 43
f 35 43 37
f 35 37 36
f 38 44 39
f 39 44 45
f 39 45 46
f 39 46 47
f 40 48 49
f 40 49 41
f 45 50 46
f 45 51 52
f 45 52 50
f 46 50 47
f 47 50 53
f 47 53 54
f 47 54 55
f 47 55 56
f 47 56 48
f 48 56 57
f 48 57 58
f 48 58 59
f 48 59 49
f 50 52 53
f 51 60 61
f 51 61 52
f 51 59 62
f 51 62 63
f 51 63 56
f 51 56 64
f 51 64 60
f 52 61 54
f 52 54 53
f 54 61 60
f 54 60 64
f 54 64 55
f 55 64 56
f 56 63 57
f 57 63 62
f 57 62 58
f 58 62 59

