# https://github.com/mikedh/trimesh
v -0.00392484 0.02605500 0.02851679
v -0.01095143 0.02597868 0.02851679
v -0.01095143 0.02558181 0.04530621
v 0.00627370 0.02555637 0.02851679
v -0.01684577 0.02555128 0.02851679
v 0.00731437 0.02476263 0.04071726
v -0.01676251 0.02472701 0.04515171
v -0.02809330 0.00370810 0.04530621
v 0.03216550 -0.02243452 0.04530621
v 0.04669322 0.01401149 0.04512541
v 0.02154237 0.02314970 0.04517636
v 0.01310048 0.02411644 0.04372341
v 0.01451579 0.02473719 0.02851679
v -0.02297321 0.02393835 0.03199465
v -0.01676251 -0.02527877 0.02851679
v -0.03370458 -0.00782661 0.02995165
v -0.03313845 0.00938641 0.03019819
v -0.02904239 0.01897746 0.03158540
v -0.02164949 0.02294618 0.04226718
v -0.02827645 0.01080090 0.04282272
v -0.03257233 0.00536173 0.03524899
v -0.03185635 -0.00077960 0.03826993
v -0.02828478 -0.00239253 0.04530621
v 0.02087634 -0.02371672 0.04530621
v 0.02999259 -0.02350811 0.02851679
v 0.03680272 -0.02248032 0.03044309
v 0.03862597 -0.02173236 0.03758619
v 0.04213926 -0.01938676 0.04456494
v 0.04998173 -0.00234164 0.04455508
v 0.04981522 0.00602827 0.04147825
v 0.04798365 0.01290737 0.03888629
v 0.04412902 0.01802090 0.03766180
v 0.04144826 0.01926749 0.04429046
v 0.03353086 0.02149607 0.04505802
v 0.02870216 0.02290038 0.02851679
v 0.02191701 0.02381115 0.02851679
v -0.00541507 -0.02592495 0.02851679
v -0.01404013 -0.02513630 0.04522895
v -0.02566230 -0.02186974 0.03302684
v -0.03169817 -0.01397811 0.03170867
v -0.02984162 -0.01284856 0.03902435
v -0.03281377 -0.00535379 0.03499094
v -0.03402094 0.00001414 0.03136022
v -0.03004975 0.01503928 0.03612832
v -0.02607856 0.01875867 0.04067782
v -0.02759378 -0.00880861 0.04530621
v 0.00986192 -0.02458170 0.04530621
v 0.00803867 -0.02556370 0.02851679
v 0.01472392 -0.02502945 0.02851679
v 0.02328237 -0.02422044 0.02851679
v 0.04408739 0.01873324 0.02895727
v 0.05103072 -0.00420897 0.02939776
v 0.04320490 -0.02006856 0.02995987
v 0.04182290 -0.02036367 0.03853455
v 0.04633523 -0.01658830 0.03810886
v 0.04870795 -0.01109316 0.04185792
v 0.05052288 -0.00378666 0.03707339
v 0.05096412 0.00387092 0.03003055
v 0.04904096 0.01155394 0.03122545
v 0.03858434 0.02120096 0.03083920
v 0.00173639 -0.02587407 0.02851679
v -0.02654478 -0.01598282 0.04335689
v -0.02404718 -0.02116759 0.04139936
v 0.04907427 -0.01220746 0.03125832
f 1 2 3
f 1 3 4
f 1 4 13
f 1 13 36
f 1 36 35
f 1 35 25
f 1 25 50
f 1 50 49
f 1 49 48
f 1 48 61
f 1 61 37
f 1 37 15
f 1 15 5
f 1 5 2
f 2 5 3
f 3 6 4
f 3 5 7
f 3 7 8
f 3 8 23
f 3 23 46
f 3 46 47
f 3 47 24
f 3 24 9
f 3 9 10
f 3 10 11
f 3 11 12
f 3 12 6
f 4 6 12
f 4 12 13
f 5 14 7
f 5 15 16
f 5 16 17
f 5 17 18
f 5 18 14
f 7 14 19
f 7 19 20
f 7 20 8
f 8 20 21
f 8 21 22
f 8 22 23
f 9 24 25
f 9 25 26
f 9 26 27
f 9 27 28
f 9 28 29
f 9 29 10
f 10 29 30
f 10 30 31
f 10 31 32
f 10 32 33
f 10 33 34
f 10 34 11
f 11 34 35
f 11 35 36
f 11 36 13
f 11 13 12
f 14 18 19
f 15 37 38
f 15 38 39
f 15 39 40
f 15 40 16
f 16 40 41
f 16 41 42
f 16 42 43
f 16 43 17
f 17 43 21
f 17 21 44
f 17 44 18
f 18 44 45
f 18 45 19
f 19 45 20
f 20 45 44
f 20 44 21
f 21 43 22
f 22 43 42
f 22 42 46
f 22 46 23
f 24 47 48
f 24 48 49
f 24 49 50
f 24 50 25
f 25 35 51
f 25 51 52
f 25 52 53
f 25 53 26
f 26 53 27
f 27 53 54
f 27 54 28
f 28 54 55
f 28 55 56
f 28 56 29
f 29 57 58
f 29 58 30
f 29 56 57
f 30 58 59
f 30 59 31
f 31 51 32
f 31 59 51
f 32 51 33
f 33 60 34
f 33 51 60
f 34 60 35
f 35 60 51
f 37 61 38
f 38 46 62
f 38 62 63
f 38 63 39
f 38 61 47
f 38 47 46
f 39 63 40
f 40 63 62
f 40 62 41
f 41 62 46
f 41 46 42
f 47 61 48
f 51 59 58
f 51 58 52
f 52 58 57
f 52 57 56
f 52 56 64
f 52 64 53
f 53 64 55
f 53 55 54
f 55 64 56

