# https://github.com/mikedh/trimesh
v 0.01922237 0.02742505 0.06349057
v 0.01900720 -0.02794889 0.06306919
v -0.00656088 0.02521855 0.06302364
v 0.00427921 0.02728409 0.06506601
v 0.00199396 0.02464930 0.09294940
v 0.01143916 0.02430234 0.09450965
v 0.03215480 0.02524023 0.06390816
v 0.02897178 -0.02673450 0.06397649
v 0.01186950 -0.02492377 0.09415660
v 0.00731384 -0.02678872 0.08039523
v 0.00698738 -0.02768867 0.06521407
v -0.00860870 -0.02425151 0.06302364
v -0.01569446 0.01821413 0.06302364
v -0.01768292 0.01776958 0.08157207
v -0.00712478 0.02199283 0.09272162
v 0.00810775 0.01833340 0.10180603
v 0.01581675 0.01758525 0.10180603
v 0.02181182 0.02207415 0.09516260
v 0.03740791 -0.02413766 0.06485343
v 0.02877144 0.01954779 0.09424771
v 0.03961896 0.01875085 0.07716842
v 0.04340298 0.01871832 0.06801949
v 0.04902707 0.01004954 0.06686543
v 0.04896771 -0.01122395 0.06680848
v 0.02017208 -0.02362806 0.09413762
v 0.01273760 -0.01847233 0.10180603
v 0.00365596 -0.02498882 0.09334421
v 0.00570378 -0.02720074 0.07270025
v -0.00837870 -0.02244620 0.09138155
v -0.01436635 -0.02072220 0.08039523
v -0.01625835 -0.01936143 0.08091911
v -0.01743066 -0.01569116 0.06302364
v -0.02050981 0.00938271 0.06302364
v -0.02602260 0.00307222 0.08761948
v -0.01703000 0.01723828 0.08944167
v -0.00256912 0.01451675 0.10180603
v 0.02279863 0.01379029 0.10180603
v 0.04329168 -0.02002284 0.06724126
v 0.03326775 -0.01904157 0.08928982
v 0.03661401 0.01349211 0.09292662
v 0.03860989 0.01616485 0.08479887
v 0.04125128 0.01702143 0.07771888
v 0.04286134 0.01468481 0.07865655
v 0.04605921 0.01175185 0.07524753
v 0.04737249 0.00182531 0.07906275
v 0.04976161 -0.00373160 0.07061232
v 0.04522079 -0.00691937 0.08265020
v 0.04428592 -0.01592970 0.07386949
v 0.02748043 -0.01961624 0.09586111
v 0.00152652 -0.01708445 0.10180603
v 0.02276154 -0.01371778 0.10180603
v -0.00914292 -0.00674047 0.10180603
v -0.01966397 -0.01577248 0.08680708
v -0.02459061 -0.00734766 0.08775614
v -0.02206793 -0.00263649 0.06302364
v -0.00929131 0.00604314 0.10180603
v 0.02828917 0.00597266 0.10180603
v 0.03978219 0.00614614 0.09444132
v 0.03886958 -0.01759406 0.08219465
v 0.04016059 -0.01171187 0.08922149
v 0.03681434 -0.00955416 0.09669249
v 0.04308393 0.00962125 0.08453314
v 0.04280198 -0.00090164 0.09107026
v 0.02890500 -0.00414905 0.10180603
f 1 2 3
f 1 3 4
f 1 4 5
f 1 5 6
f 1 6 7
f 1 7 2
f 2 8 9
f 2 9 10
f 2 10 11
f 2 11 12
f 2 12 3
f 2 7 8
f 3 5 4
f 3 12 32
f 3 32 55
f 3 55 33
f 3 33 13
f 3 13 14
f 3 14 15
f 3 15 5
f 5 16 6
f 5 15 16
f 6 16 17
f 6 17 18
f 6 18 7
f 7 19 8
f 7 18 20
f 7 20 21
f 7 21 22
f 7 22 23
f 7 23 24
f 7 24 19
f 8 19 25
f 8 25 9
f 9 25 26
f 9 26 27
f 9 27 10
f 10 27 28
f 10 28 11
f 11 28 12
f 12 28 29
f 12 29 30
f 12 30 31
f 12 31 32
f 13 33 14
f 14 33 34
f 14 34 35
f 14 35 15
f 15 35 36
f 15 36 16
f 16 36 56
f 16 56 52
f 16 52 50
f 16 50 26
f 16 26 51
f 16 51 64
f 16 64 57
f 16 57 37
f 16 37 17
f 17 37 20
f 17 20 18
f 19 38 39
f 19 39 25
f 19 24 38
f 20 37 40
f 20 40 41
f 20 41 21
f 21 42 22
f 21 41 42
f 22 42 43
f 22 43 44
f 22 44 23
f 23 44 45
f 23 45 46
f 23 46 24
f 24 46 47
f 24 47 48
f 24 48 38
f 25 39 49
f 25 49 26
f 26 50 27
f 26 49 51
f 27 50 29
f 27 29 28
f 29 52 53
f 29 53 31
f 29 31 30
f 29 50 52
f 31 53 32
f 32 53 54
f 32 54 55
f 33 55 34
f 34 54 52
f 34 52 56
f 34 56 35
f 34 55 54
f 35 56 36
f 37 57 58
f 37 58 40
f 38 48 59
f 38 59 39
f 39 59 60
f 39 60 61
f 39 61 49
f 40 58 62
f 40 62 43
f 40 43 41
f 41 43 42
f 43 62 44
f 44 62 45
f 45 62 58
f 45 58 63
f 45 63 47
f 45 47 46
f 47 63 60
f 47 60 48
f 48 60 59
f 49 61 51
f 51 61 64
f 52 54 53
f 57 64 58
f 58 64 61
f 58 61 63
f 60 63 61

