# https://github.com/mikedh/trimesh
v 0.01043659 0.01614166 0.11380330
v 0.01130477 0.01599786 0.10678940
v 0.00626671 0.01593396 0.10678940
v 0.00626671 0.01596591 0.11328258
v 0.00835487 0.01572625 0.11679547
v 0.01277649 0.01538115 0.11636727
v 0.01567475 0.01489225 0.10678940
v 0.00229048 0.01476444 0.11380330
v 0.00166112 0.01441933 0.10678940
v 0.00404622 0.01512552 0.11669371
v 0.00672823 0.01199082 0.12028988
v 0.01302501 0.01154347 0.12028988
v -0.00104026 0.01109611 0.12028988
v 0.01868920 0.01242220 0.11713778
v 0.01682373 0.01418926 0.11432535
v 0.01891835 0.01300696 0.10678940
v -0.00053678 0.01309004 0.11484739
v -0.00373842 0.01003843 0.10678940
v -0.00405471 0.01005760 0.11909379
v 0.01758864 0.00926514 0.12028988
v -0.00612674 0.00684941 0.11981408
v -0.00745645 0.00214257 0.12020661
v 0.00341363 -0.01154016 0.12028988
v 0.01985431 0.00625826 0.12028988
v 0.02212322 0.00923319 0.11592452
v 0.02044171 0.01158181 0.11380330
v 0.02149709 0.01058484 0.10678940
v -0.00692392 0.00382655 0.10678940
v -0.00734994 -0.00042334 0.10678940
v -0.00758878 -0.00205939 0.12017886
v 0.00678956 -0.01555040 0.11710210
v 0.00880349 -0.01256589 0.12028988
v -0.00585886 -0.00641153 0.11992246
v 0.00156753 -0.01422431 0.11695275
v 0.02137122 0.00138207 0.12028988
v 0.02427271 0.00407580 0.11679944
v 0.02484719 0.00392242 0.11171777
v 0.02431789 0.00538272 0.10678940
v -0.00684969 -0.00432174 0.10678940
v 0.00522424 -0.01617350 0.11276053
v 0.00991697 -0.01650263 0.11276053
v 0.01211164 -0.01537785 0.11731620
v 0.01472911 -0.01149543 0.12028988
v -0.00402243 -0.00991690 0.10678940
v -0.00325430 -0.01074451 0.11539455
v 0.00211620 -0.01504872 0.11380330
v 0.02114530 -0.00312985 0.12028988
v 0.02412424 -0.00459015 0.11708227
v 0.02537973 -0.00000154 0.11380330
v 0.02535713 -0.00000154 0.10678940
v 0.00809345 -0.01644511 0.10821015
v 0.00376543 -0.01576130 0.10678940
v 0.01200513 -0.01623102 0.10821015
v 0.01461292 -0.01558555 0.11380330
v 0.01729494 -0.01412844 0.11531658
v 0.02056436 -0.01158170 0.11527824
v 0.01876021 -0.00825209 0.12028988
v -0.00023340 -0.01365872 0.10678940
v 0.02484074 -0.00428020 0.11276053
v 0.02301077 -0.00821694 0.11569984
v 0.02466323 -0.00445275 0.10891987
v 0.02036102 -0.01200989 0.10678940
v 0.01623310 -0.01494647 0.10821015
v 0.02310114 -0.00856524 0.11067368
f 1 2 3
f 1 3 4
f 1 4 5
f 1 5 6
f 1 6 7
f 1 7 2
f 2 7 16
f 2 16 27
f 2 27 38
f 2 38 50
f 2 50 62
f 2 62 52
f 2 52 58
f 2 58 44
f 2 44 39
f 2 39 29
f 2 29 28
f 2 28 18
f 2 18 9
f 2 9 3
f 3 8 4
f 3 9 8
f 4 8 10
f 4 10 5
f 5 11 12
f 5 12 6
f 5 10 13
f 5 13 11
f 6 12 14
f 6 14 15
f 6 15 7
f 7 15 16
f 8 9 17
f 8 17 10
f 9 18 17
f 10 17 19
f 10 19 13
f 11 13 23
f 11 23 32
f 11 32 43
f 11 43 57
f 11 57 47
f 11 47 35
f 11 35 24
f 11 24 20
f 11 20 12
f 12 20 14
f 13 19 21
f 13 21 22
f 13 22 23
f 14 20 24
f 14 24 25
f 14 25 26
f 14 26 15
f 15 26 16
f 16 26 27
f 17 18 19
f 18 28 21
f 18 21 19
f 21 28 22
f 22 28 29
f 22 29 30
f 22 30 23
f 23 31 32
f 23 30 33
f 23 33 34
f 23 34 31
f 24 35 36
f 24 36 25
f 25 36 37
f 25 37 38
f 25 38 27
f 25 27 26
f 29 39 30
f 30 39 33
f 31 40 41
f 31 41 42
f 31 42 32
f 31 34 40
f 32 42 43
f 33 39 44
f 33 44 45
f 33 45 34
f 34 45 46
f 34 46 40
f 35 47 48
f 35 48 36
f 36 48 49
f 36 49 37
f 37 49 50
f 37 50 38
f 40 51 41
f 40 46 52
f 40 52 51
f 41 53 54
f 41 54 42
f 41 51 53
f 42 54 55
f 42 55 43
f 43 55 56
f 43 56 57
f 44 58 45
f 45 58 46
f 46 58 52
f 47 57 48
f 48 59 49
f 48 57 60
f 48 60 59
f 49 59 50
f 50 59 61
f 50 61 62
f 51 52 53
f 52 62 53
f 53 62 63
f 53 63 54
f 54 63 55
f 55 63 62
f 55 62 56
f 56 64 60
f 56 60 57
f 56 62 64
f 59 60 64
f 59 64 61
f 61 64 62

