# https://github.com/mikedh/trimesh
v 0.03431747 -0.02056563 0.03354466
v 0.04276834 -0.02055830 0.03354466
v 0.04317829 -0.02056563 0.03474715
v 0.03613097 -0.02056563 0.03928586
v 0.03438608 -0.02052651 0.03915820
v 0.03431747 -0.01913998 0.03982966
v 0.03431747 0.00441628 0.03354466
v 0.04319045 -0.02026485 0.03354466
v 0.04319045 -0.02056563 0.03982264
v 0.03530586 -0.01998852 0.03962988
v 0.03438608 -0.01998852 0.03955967
v 0.03530586 -0.02054607 0.03923224
v 0.03615616 -0.01998852 0.03968541
v 0.03700646 -0.01998852 0.03972690
v 0.03530586 -0.01913998 0.03987498
v 0.03870793 -0.00042800 0.03971349
v 0.03785763 -0.00127655 0.03968733
v 0.03700646 -0.00212754 0.03964201
v 0.03615616 -0.00297852 0.03959031
v 0.03438608 -0.00468050 0.03947032
v 0.03431747 -0.00396890 0.03941734
v 0.03431747 0.00441628 0.03742084
v 0.04319045 0.00441628 0.03354466
v 0.04319045 -0.01551105 0.04006263
v 0.04295942 -0.01573602 0.04006518
v 0.04209522 -0.01741355 0.04003454
v 0.04119802 -0.01826943 0.04003007
v 0.04040765 -0.01828899 0.04005624
v 0.03955736 -0.01893702 0.04001922
v 0.03870793 -0.01929159 0.03996561
v 0.03615616 -0.01913998 0.03990370
v 0.03870793 -0.01886854 0.03999624
v 0.03825715 -0.01872916 0.03998348
v 0.04040765 0.00212496 0.03974349
v 0.04040765 0.00297595 0.03971988
v 0.04040765 0.00382694 0.03967265
v 0.04027216 0.00441628 0.03958456
v 0.04319045 0.00441628 0.03833612
v 0.04319045 -0.01468451 0.04005752
v 0.04125795 0.00212496 0.03976200
v 0.03792711 -0.01907640 0.03996178
v 0.04125795 0.00297595 0.03974541
v 0.04112680 0.00441628 0.03970200
v 0.04262329 0.00441628 0.03921246
v 0.04319045 0.00380493 0.03859206
v 0.04319045 -0.00468050 0.03978690
v 0.04307493 -0.00553394 0.03986221
v 0.04295942 -0.00468050 0.03985136
v 0.04210912 -0.00042800 0.03980732
v 0.04210912 -0.00127655 0.03982328
v 0.04210912 0.00042054 0.03977158
v 0.04210912 0.00441628 0.03950797
v 0.04307493 -0.00042800 0.03951691
v 0.04307493 0.00048167 0.03940521
v 0.04319045 0.00104411 0.03924182
v 0.04319045 0.00212496 0.03902481
v 0.04319045 0.00263360 0.03891375
v 0.04319045 0.00297595 0.03883013
v 0.04319045 -0.00212754 0.03959925
v 0.04295942 -0.00127655 0.03966307
v 0.04295942 -0.00212754 0.03972115
v 0.04295942 -0.00297852 0.03976519
v 0.04319045 -0.00127655 0.03952585
f 1 2 3
f 1 3 9
f 1 9 4
f 1 4 5
f 1 5 6
f 1 6 21
f 1 21 22
f 1 22 7
f 1 7 23
f 1 23 8
f 1 8 2
f 2 8 3
f 3 8 9
f 4 9 10
f 4 10 11
f 4 11 12
f 4 12 5
f 5 12 11
f 5 11 6
f 6 11 10
f 6 10 13
f 6 13 14
f 6 14 15
f 6 15 16
f 6 16 17
f 6 17 18
f 6 18 19
f 6 19 20
f 6 20 21
f 7 22 37
f 7 37 43
f 7 43 52
f 7 52 44
f 7 44 38
f 7 38 23
f 8 23 38
f 8 38 45
f 8 45 58
f 8 58 57
f 8 57 56
f 8 56 55
f 8 55 63
f 8 63 59
f 8 59 46
f 8 46 39
f 8 39 24
f 8 24 9
f 9 24 25
f 9 25 26
f 9 26 27
f 9 27 28
f 9 28 29
f 9 29 30
f 9 30 15
f 9 15 14
f 9 14 13
f 9 13 10
f 15 30 31
f 15 31 32
f 15 32 33
f 15 33 34
f 15 34 16
f 16 34 17
f 17 34 35
f 17 35 36
f 17 36 18
f 18 36 19
f 19 36 21
f 19 21 20
f 21 36 37
f 21 37 22
f 24 39 25
f 25 39 28
f 25 28 26
f 26 28 27
f 28 33 32
f 28 32 29
f 28 39 40
f 28 40 34
f 28 34 33
f 29 32 41
f 29 41 30
f 30 41 31
f 31 41 32
f 34 40 42
f 34 42 43
f 34 43 35
f 35 43 36
f 36 43 37
f 38 44 45
f 39 46 47
f 39 47 48
f 39 48 49
f 39 49 50
f 39 50 40
f 40 50 49
f 40 49 42
f 42 49 43
f 43 49 51
f 43 51 52
f 44 52 53
f 44 53 54
f 44 54 55
f 44 55 56
f 44 56 57
f 44 57 58
f 44 58 45
f 46 48 47
f 46 59 60
f 46 60 61
f 46 61 62
f 46 62 48
f 48 62 51
f 48 51 49
f 51 62 61
f 51 61 52
f 52 61 60
f 52 60 53
f 53 60 63
f 53 63 55
f 53 55 54
f 59 63 60

