# https://github.com/mikedh/trimesh
v -0.00165225 0.02875971 0.03974658
v -0.00165225 0.02867035 0.04059345
v -0.00165225 0.02850460 0.03887908
v -0.01149129 0.02819302 0.03895700
v -0.03274752 0.02742865 0.03924202
v -0.03274752 0.02738559 0.04070553
v -0.00638264 0.02827080 0.04117416
v -0.00518682 0.02806894 0.04151504
v -0.00177428 0.02799024 0.04147981
v -0.00173360 0.02654575 0.04091511
v -0.00165225 0.02564340 0.03815960
v -0.00165225 0.02804117 0.03815960
v -0.03242619 0.02678789 0.03824500
v -0.03378064 0.02725827 0.03910645
v -0.03480562 0.02720503 0.04031804
v -0.03372776 0.02732309 0.04064931
v -0.02483643 0.02723697 0.04169758
v -0.02594276 0.02747217 0.04121365
v -0.03614787 0.02663881 0.04122255
v -0.03274752 0.02672446 0.04158336
v -0.00350699 0.02729716 0.04171573
v -0.01318740 0.02717169 0.04179472
v -0.00468247 0.02713975 0.04173423
v -0.00553255 0.02648000 0.04121899
v -0.00254301 0.02637167 0.04083470
v -0.00551628 0.02521654 0.03815960
v -0.02648373 0.02696521 0.03815960
v -0.03360167 0.02662492 0.03815960
v -0.03478529 0.02652029 0.03816244
v -0.03674577 0.02628417 0.03823325
v -0.03777889 0.02634019 0.03881574
v -0.03700202 0.02674483 0.03955835
v -0.03614787 0.02694298 0.04040842
v -0.03488697 0.02637352 0.04168477
v -0.03818563 0.02563368 0.04174241
v -0.03700202 0.02677168 0.04040842
v -0.03785210 0.02626935 0.04117522
v -0.03700202 0.02636102 0.04134851
v -0.03614787 0.02619852 0.04164812
v -0.03955228 0.02467486 0.04176661
v -0.04019899 0.02403039 0.04173138
v -0.01834079 0.02403039 0.03815960
v -0.00638264 0.02513367 0.03815960
v -0.04215134 0.02403039 0.03815960
v -0.03883235 0.02576748 0.03843963
v -0.03988174 0.02557211 0.03877980
v -0.03955228 0.02595221 0.03955835
v -0.03829138 0.02637861 0.03952668
v -0.03820190 0.02643463 0.04046321
v -0.03868999 0.02593230 0.04126027
v -0.03943839 0.02556933 0.04137840
v -0.04092299 0.02482764 0.04149867
v -0.04216355 0.02403039 0.04164420
v -0.04292822 0.02403039 0.03871611
v -0.04124025 0.02475032 0.03845280
v -0.04211881 0.02467254 0.03918687
v -0.04125652 0.02521654 0.03955835
v -0.04050405 0.02556285 0.03955835
v -0.03955228 0.02596193 0.04040842
v -0.04042677 0.02550127 0.04075997
v -0.04207000 0.02477255 0.04070197
v -0.04300143 0.02410262 0.04083861
v -0.04320480 0.02418364 0.03955835
v -0.04125652 0.02526145 0.04040842
f 1 2 11
f 1 11 12
f 1 12 3
f 1 3 4
f 1 4 5
f 1 5 6
f 1 6 2
f 2 7 8
f 2 8 9
f 2 9 10
f 2 10 11
f 2 6 7
f 3 12 4
f 4 12 13
f 4 13 5
f 5 13 14
f 5 14 15
f 5 15 16
f 5 16 6
f 6 17 18
f 6 18 7
f 6 16 19
f 6 19 20
f 6 20 17
f 7 18 17
f 7 17 8
f 8 21 9
f 8 17 22
f 8 22 21
f 9 21 10
f 10 21 23
f 10 23 24
f 10 24 25
f 10 25 11
f 11 25 26
f 11 26 43
f 11 43 42
f 11 42 44
f 11 44 28
f 11 28 27
f 11 27 12
f 12 27 13
f 13 27 28
f 13 28 14
f 14 28 29
f 14 29 30
f 14 30 31
f 14 31 32
f 14 32 15
f 15 33 16
f 15 32 33
f 16 33 19
f 17 20 34
f 17 34 35
f 17 35 22
f 19 36 37
f 19 37 38
f 19 38 39
f 19 39 34
f 19 34 20
f 19 33 36
f 21 22 23
f 22 35 40
f 22 40 41
f 22 41 23
f 23 41 24
f 24 41 25
f 25 41 42
f 25 42 43
f 25 43 26
f 28 44 29
f 29 44 30
f 30 44 45
f 30 45 31
f 31 45 46
f 31 46 47
f 31 47 48
f 31 48 32
f 32 48 49
f 32 49 36
f 32 36 33
f 34 39 35
f 35 39 38
f 35 38 37
f 35 37 50
f 35 50 51
f 35 51 52
f 35 52 53
f 35 53 40
f 36 49 37
f 37 49 50
f 40 53 41
f 41 53 54
f 41 54 44
f 41 44 42
f 44 54 55
f 44 55 45
f 45 55 46
f 46 55 56
f 46 56 57
f 46 57 58
f 46 58 47
f 47 59 49
f 47 49 48
f 47 58 59
f 49 59 60
f 49 60 50
f 50 60 51
f 51 60 52
f 52 60 61
f 52 61 53
f 53 61 62
f 53 62 54
f 54 62 63
f 54 63 56
f 54 56 55
f 56 63 57
f 57 63 64
f 57 64 58
f 58 64 59
f 59 64 60
f 60 64 61
f 61 63 62
f 61 64 63

