# https://github.com/mikedh/trimesh
v 0.03127467 0.00441628 0.03354524
v 0.03747265 0.00441628 0.03354524
v 0.03127467 0.00441628 0.03730027
v 0.03127467 0.02393048 0.03354524
v 0.03747265 0.00441628 0.03754429
v 0.03747265 0.02393048 0.03354524
v 0.03530412 0.00441628 0.03747424
v 0.03747265 0.01318478 0.03939787
v 0.03127467 0.01573700 0.03946209
v 0.03127467 0.02393048 0.03814561
v 0.03615478 0.00441628 0.03750810
v 0.03747265 0.02393048 0.03832776
v 0.03747265 0.01403679 0.03945217
v 0.03700545 0.01403679 0.03949771
v 0.03190205 0.01573700 0.03948778
v 0.03127467 0.01658711 0.03942823
v 0.03158897 0.02393048 0.03815671
v 0.03615478 0.02393048 0.03830032
v 0.03190205 0.01658711 0.03942765
v 0.03360339 0.01573700 0.03950588
v 0.03445345 0.01573700 0.03947377
v 0.03615478 0.01488689 0.03950413
v 0.03275272 0.01573700 0.03950880
v 0.03582289 0.02393048 0.03829332
v 0.03557715 0.02393048 0.03828748
v 0.03511420 0.02393048 0.03827522
v 0.03360339 0.02393048 0.03822676
v 0.03275272 0.02393048 0.03819757
f 1 2 5
f 1 5 11
f 1 11 7
f 1 7 3
f 1 3 9
f 1 9 16
f 1 16 10
f 1 10 4
f 1 4 6
f 1 6 2
f 2 6 12
f 2 12 13
f 2 13 8
f 2 8 5
f 3 7 8
f 3 8 9
f 4 10 17
f 4 17 28
f 4 28 27
f 4 27 26
f 4 26 25
f 4 25 24
f 4 24 18
f 4 18 12
f 4 12 6
f 5 8 11
f 7 11 8
f 8 13 14
f 8 14 9
f 9 15 16
f 9 14 15
f 10 16 17
f 12 18 16
f 12 16 19
f 12 19 20
f 12 20 21
f 12 21 22
f 12 22 13
f 13 22 14
f 14 22 23
f 14 23 15
f 15 23 16
f 16 23 19
f 16 18 24
f 16 24 25
f 16 25 26
f 16 26 27
f 16 27 28
f 16 28 17
f 19 23 20
f 20 23 22
f 20 22 21

