# https://github.com/mikedh/trimesh
v 0.03127467 0.02393048 0.03814561
v 0.02335880 0.01491746 0.03815328
v 0.02422581 0.01572554 0.03815328
v 0.02519595 0.01645529 0.03815328
v 0.02688484 0.01728247 0.03815328
v 0.02766161 0.01748688 0.03815328
v 0.03019816 0.01797593 0.03815328
v 0.03112641 0.01813067 0.03815328
v 0.03127467 0.01813449 0.03815328
v 0.03127467 0.02393048 0.03354466
v -0.00165225 0.02393048 0.03785732
v 0.01611655 0.00674117 0.03815328
v 0.03127467 0.01435200 0.03815328
v 0.03127467 0.00441628 0.03354466
v -0.00165225 0.02393048 0.03354466
v -0.00165225 0.02386744 0.03785506
v 0.01418916 0.00442010 0.03815328
v 0.01426329 0.00451944 0.03815328
v 0.01447279 0.00479644 0.03815328
v 0.01532046 0.00582611 0.03815328
v 0.01543004 0.00595220 0.03815328
v 0.03127467 0.00441628 0.03730059
v 0.01815354 0.00441628 0.03815328
v -0.00165225 0.00441628 0.03354466
v -0.00165225 0.02339367 0.03783521
v 0.01439543 0.00441628 0.03815328
v -0.00165225 0.01706278 0.03754827
v -0.00165225 0.00441628 0.03679303
f 1 2 3
f 1 3 4
f 1 4 5
f 1 5 6
f 1 6 7
f 1 7 8
f 1 8 9
f 1 9 13
f 1 13 22
f 1 22 14
f 1 14 10
f 1 10 15
f 1 15 11
f 1 11 2
f 2 12 21
f 2 21 20
f 2 20 19
f 2 19 18
f 2 18 17
f 2 17 26
f 2 26 23
f 2 23 13
f 2 13 9
f 2 9 8
f 2 8 7
f 2 7 6
f 2 6 5
f 2 5 4
f 2 4 3
f 2 11 12
f 10 14 24
f 10 24 15
f 11 15 24
f 11 24 28
f 11 28 27
f 11 27 25
f 11 25 16
f 11 16 17
f 11 17 18
f 11 18 19
f 11 19 20
f 11 20 21
f 11 21 12
f 13 23 22
f 14 22 23
f 14 23 26
f 14 26 28
f 14 28 24
f 16 25 17
f 17 25 27
f 17 27 28
f 17 28 26

