# https://github.com/mikedh/trimesh
v -0.00165225 0.02393299 0.03354546
v -0.00165225 0.02393299 0.03785643
v -0.00165225 0.02626236 0.03354546
v 0.02429103 0.02393299 0.03354546
v -0.00165225 0.02659862 0.04097276
v 0.02429103 0.02393299 0.03791909
v -0.00165225 0.02841915 0.03867347
v -0.00127387 0.02847449 0.03870641
v -0.00127387 0.02629212 0.03354546
v 0.02429103 0.02750918 0.03354546
v -0.00165225 0.02679382 0.04118727
v 0.02429103 0.02786745 0.04108443
v 0.02254133 0.02832392 0.04155923
v 0.02254133 0.02780020 0.04113424
v 0.00638519 0.02745978 0.04155923
v 0.00127830 0.02687833 0.04120574
v 0.00042758 0.02686821 0.04121779
v -0.00165225 0.02858936 0.03908239
v 0.00297975 0.02895239 0.03908079
v 0.00383048 0.02898989 0.03901652
v -0.00121546 0.02629569 0.03354546
v 0.02259720 0.02744550 0.03354546
v 0.02426563 0.02970584 0.03841719
v 0.02429103 0.02987724 0.03884058
v -0.00165225 0.02768177 0.04164359
v 0.00042758 0.02757405 0.04164359
v -0.00042315 0.02758060 0.04163716
v 0.02429103 0.02846676 0.04150380
v 0.02429103 0.02888038 0.04169822
v 0.02254133 0.02874945 0.04175285
v 0.00638519 0.02788531 0.04174883
v -0.00165225 0.02876195 0.03955719
v 0.00383048 0.02909046 0.03955719
v 0.00559033 0.02664147 0.03354546
v -0.00015904 0.02635401 0.03354546
v 0.02429103 0.03001234 0.03955719
v 0.02424278 0.02987605 0.03884379
v 0.01323923 0.02701700 0.03354546
v 0.02254133 0.02744312 0.03354546
v -0.00165225 0.02805313 0.04146845
v 0.00468120 0.02790138 0.04174481
v -0.00104532 0.02802992 0.04168858
v -0.00104532 0.02808230 0.04168858
v 0.02429103 0.02896608 0.04169099
v 0.02254133 0.02903571 0.04175285
v 0.00638519 0.02824001 0.04174883
v -0.00165225 0.02875659 0.03993318
v 0.00468120 0.02908213 0.04040718
v 0.02429103 0.02997365 0.04038468
v -0.00165225 0.02874409 0.04040718
v -0.00165225 0.02836380 0.04130054
v 0.00468120 0.02819835 0.04174481
v 0.02168807 0.02902083 0.04174562
v 0.00638519 0.02866553 0.04145238
v 0.02429103 0.02939279 0.04135758
v 0.02254133 0.02946064 0.04135115
v 0.00553192 0.02899108 0.04098079
v 0.02109383 0.02978737 0.04085627
v 0.02429103 0.02984272 0.04092857
v 0.02168807 0.02980701 0.04089242
v 0.02254133 0.02982725 0.04092616
v -0.00165225 0.02859650 0.04077754
v 0.00638519 0.02900834 0.04102739
v 0.01148445 0.02911367 0.04118646
f 1 2 5
f 1 5 11
f 1 11 25
f 1 25 40
f 1 40 51
f 1 51 62
f 1 62 50
f 1 50 47
f 1 47 32
f 1 32 18
f 1 18 7
f 1 7 3
f 1 3 9
f 1 9 21
f 1 21 35
f 1 35 34
f 1 34 38
f 1 38 39
f 1 39 22
f 1 22 10
f 1 10 4
f 1 4 6
f 1 6 2
f 2 6 5
f 3 7 8
f 3 8 9
f 4 10 24
f 4 24 36
f 4 36 49
f 4 49 59
f 4 59 55
f 4 55 44
f 4 44 29
f 4 29 28
f 4 28 12
f 4 12 6
f 5 6 11
f 6 12 13
f 6 13 14
f 6 14 15
f 6 15 16
f 6 16 17
f 6 17 11
f 7 18 8
f 8 18 19
f 8 19 20
f 8 20 9
f 9 20 21
f 10 22 23
f 10 23 24
f 11 17 15
f 11 15 26
f 11 26 27
f 11 27 25
f 12 28 13
f 13 28 29
f 13 29 30
f 13 30 15
f 13 15 14
f 15 30 31
f 15 31 26
f 15 17 16
f 18 32 19
f 19 33 20
f 19 32 33
f 20 34 35
f 20 35 21
f 20 33 36
f 20 36 37
f 20 37 24
f 20 24 23
f 20 23 38
f 20 38 34
f 22 39 23
f 23 39 38
f 24 37 36
f 25 27 41
f 25 41 42
f 25 42 43
f 25 43 40
f 26 41 27
f 26 31 41
f 29 44 45
f 29 45 30
f 30 45 46
f 30 46 31
f 31 46 52
f 31 52 41
f 32 47 33
f 33 48 49
f 33 49 36
f 33 47 50
f 33 50 48
f 40 43 51
f 41 52 43
f 41 43 42
f 43 52 53
f 43 53 54
f 43 54 51
f 44 55 45
f 45 55 56
f 45 56 53
f 45 53 52
f 45 52 46
f 48 50 57
f 48 57 58
f 48 58 49
f 49 58 60
f 49 60 61
f 49 61 59
f 50 62 57
f 51 54 63
f 51 63 57
f 51 57 62
f 53 56 54
f 54 56 61
f 54 61 64
f 54 64 63
f 55 59 56
f 56 59 61
f 57 63 60
f 57 60 58
f 60 63 61
f 61 63 64

