# https://github.com/mikedh/trimesh
v 0.04456096 0.01973025 0.02742784
v 0.04419647 0.02020578 -0.03379955
v 0.04339545 0.02128580 0.02306609
v 0.04299282 0.02173589 0.02939766
v 0.04451858 0.01970832 0.03354466
v 0.04380232 0.01975657 -0.04097533
v 0.04418800 0.02004259 -0.03849454
v 0.04191207 0.02303876 -0.03295534
v 0.04295891 0.02152094 -0.03961274
v 0.04261562 0.02221317 0.01317996
v 0.04129329 0.02343007 0.03000490
v 0.04168321 0.02294138 0.03334471
v 0.03487239 0.02689650 0.03354466
v 0.00126332 0.01935211 0.03354466
v 0.00126755 0.01935211 -0.03980528
v 0.03895379 0.02504791 0.03334471
v 0.04165354 0.02004522 -0.04210834
v 0.04047531 0.02269747 -0.04162700
v 0.04032698 0.02408896 -0.03996820
v 0.04094576 0.02391700 -0.00892500
v 0.04181883 0.02311422 -0.01147984
v 0.04049651 0.02419161 -0.03763552
v 0.03958953 0.02494965 -0.03493997
v 0.04048803 0.02411353 0.02536175
v 0.04089066 0.02386611 0.01743062
v 0.03235065 0.02748258 0.03354466
v 0.03730089 0.02603494 0.02206637
v 0.03587261 0.02699126 -0.03200005
v 0.03498682 0.02733694 -0.03465856
v 0.03455029 0.02746591 -0.03189637
v 0.03211331 0.02808708 -0.03487332
v 0.00127179 0.02641834 0.03354466
v 0.00126332 0.02637009 -0.03461413
v 0.00126332 0.02374416 -0.04184916
v 0.03830535 0.02553836 0.02253290
v 0.01659295 0.02509529 -0.04201948
v 0.02509482 0.02594545 -0.04194542
v 0.02594246 0.02669822 -0.04181954
v 0.03563527 0.02595686 -0.04141224
v 0.01149014 0.02509529 -0.04198986
v 0.03805529 0.02490227 -0.04121230
v 0.03805106 0.02582964 -0.03902031
v 0.03872069 0.02551993 -0.02253602
v 0.03800867 0.02596036 -0.03146686
v 0.02966362 0.02831519 -0.03423646
v 0.02980772 0.02770982 0.03354466
v 0.03730937 0.02631306 -0.03614704
v 0.03563103 0.02706233 -0.03699866
v 0.03320677 0.02782212 -0.03742076
v 0.03039683 0.02819412 -0.03911659
v 0.00559478 0.02664032 0.03354466
v 0.01149014 0.02712286 -0.03445121
v 0.02764199 0.02818008 -0.03984971
v 0.00126332 0.02580683 -0.04070873
v 0.01149014 0.02576033 -0.04182694
v 0.01567750 0.02603319 -0.04183435
v 0.02594246 0.02749574 -0.04119008
v 0.02920589 0.02757382 -0.04124192
v 0.03304572 0.02717024 -0.04083462
v 0.03550812 0.02702635 -0.03913880
v 0.01324900 0.02701670 0.03354466
v 0.02594246 0.02762647 0.03354466
v 0.01063826 0.02653503 -0.04105678
f 1 2 3
f 1 3 4
f 1 4 5
f 1 5 6
f 1 6 7
f 1 7 2
f 2 8 3
f 2 7 9
f 2 9 8
f 3 8 10
f 3 10 4
f 4 10 11
f 4 11 12
f 4 12 5
f 5 13 26
f 5 26 46
f 5 46 62
f 5 62 61
f 5 61 51
f 5 51 32
f 5 32 14
f 5 14 15
f 5 15 6
f 5 12 16
f 5 16 13
f 6 17 18
f 6 18 19
f 6 19 9
f 6 9 7
f 6 15 17
f 8 20 21
f 8 21 10
f 8 9 22
f 8 22 23
f 8 23 20
f 9 19 22
f 10 21 11
f 11 24 16
f 11 16 12
f 11 21 25
f 11 25 24
f 13 16 27
f 13 27 28
f 13 28 29
f 13 29 30
f 13 30 31
f 13 31 26
f 14 32 33
f 14 33 54
f 14 54 34
f 14 34 15
f 15 34 17
f 16 24 35
f 16 35 27
f 17 36 37
f 17 37 38
f 17 38 39
f 17 39 18
f 17 34 40
f 17 40 36
f 18 39 41
f 18 41 19
f 19 42 22
f 19 41 42
f 20 23 43
f 20 43 25
f 20 25 21
f 22 42 23
f 23 42 44
f 23 44 43
f 24 25 43
f 24 43 35
f 26 45 46
f 26 31 45
f 27 35 44
f 27 44 28
f 28 44 47
f 28 47 48
f 28 48 29
f 29 48 49
f 29 49 30
f 30 49 31
f 31 49 50
f 31 50 45
f 32 51 45
f 32 45 52
f 32 52 33
f 33 52 53
f 33 53 54
f 34 54 55
f 34 55 40
f 35 43 44
f 36 40 37
f 37 40 38
f 38 40 56
f 38 56 57
f 38 57 58
f 38 58 39
f 39 58 59
f 39 59 60
f 39 60 41
f 40 55 56
f 41 60 42
f 42 60 47
f 42 47 44
f 45 51 61
f 45 61 62
f 45 62 46
f 45 50 53
f 45 53 52
f 47 60 48
f 48 60 49
f 49 60 50
f 50 60 59
f 50 59 58
f 50 58 53
f 53 58 57
f 53 57 63
f 53 63 54
f 54 63 55
f 55 63 57
f 55 57 56

