# https://github.com/mikedh/trimesh
v -0.00165225 0.02804164 0.03815931
v -0.00165225 0.02625967 0.03354515
v -0.02647549 0.02696450 0.03815931
v -0.04125874 0.02087112 0.03885710
v -0.00165225 0.02564294 0.03815931
v -0.02170795 0.02524221 0.03354515
v -0.03242277 0.02670019 0.03815931
v -0.00165225 -0.00099288 0.03675853
v -0.00165710 -0.00069730 0.03354931
v -0.04839548 -0.00099288 0.03354515
v -0.03359281 0.02662345 0.03815931
v -0.03477741 0.02651545 0.03815931
v -0.03650576 0.02626535 0.03815931
v -0.03894294 0.02554915 0.03815931
v -0.04673024 0.02053575 0.03856488
v -0.04738080 0.01977124 0.03865899
v -0.05093460 0.01194419 0.03878846
v -0.05119677 0.00553250 0.03884046
v -0.05085207 -0.00066320 0.03885710
v -0.04795853 -0.00099288 0.03885710
v -0.02254785 0.02519105 0.03354515
v -0.04869163 0.00547282 0.03354515
v -0.02763581 0.02480453 0.03354515
v -0.03103426 0.02454590 0.03354515
v -0.03268979 0.02439243 0.03354515
v -0.03356368 0.02431001 0.03354515
v -0.03538428 0.02393202 0.03354515
v -0.03443756 0.02417643 0.03354515
v -0.03700096 0.02344887 0.03354515
v -0.03798166 0.02303677 0.03354515
v -0.04118591 0.02455727 0.03815931
v -0.04491449 0.02218415 0.03815931
v -0.04594374 0.01957513 0.03656926
v -0.04246275 0.02386381 0.03815931
v -0.04408430 0.02282930 0.03815931
v -0.04856054 0.01794947 0.03860283
v -0.05020637 0.01437132 0.03867823
v -0.05057534 0.01318902 0.03870683
v -0.04805078 0.01148662 0.03354515
v -0.04825469 0.01063400 0.03354515
v -0.05107054 0.01071074 0.03861219
v -0.05125017 0.00730026 0.03879470
v -0.05115307 0.00854509 0.03848324
v -0.04871590 0.00635386 0.03354515
v -0.03961291 0.02215004 0.03354515
v -0.04510869 0.02045617 0.03654586
v -0.04427365 0.02132016 0.03653390
v -0.04444357 0.01810579 0.03354515
v -0.04504072 0.01740096 0.03354515
v -0.04595830 0.01611919 0.03354515
v -0.04040427 0.02167258 0.03354515
v -0.04112280 0.02118090 0.03354515
v -0.04941986 0.01626129 0.03859556
v -0.04661857 0.01497099 0.03354515
v -0.04851200 0.01537741 0.03654326
v -0.04759441 0.01286787 0.03354515
v -0.04849743 0.00928402 0.03354515
v -0.05108996 0.00972739 0.03839589
v -0.04870134 0.00723205 0.03354515
v -0.04343374 0.01919998 0.03354515
v -0.04246275 0.02015776 0.03354515
v -0.04710407 0.01397343 0.03354515
v -0.04865279 0.00808183 0.03354515
f 1 2 3
f 1 3 4
f 1 4 5
f 1 5 8
f 1 8 2
f 2 6 7
f 2 7 3
f 2 8 9
f 2 9 10
f 2 10 22
f 2 22 44
f 2 44 59
f 2 59 63
f 2 63 57
f 2 57 40
f 2 40 39
f 2 39 56
f 2 56 62
f 2 62 54
f 2 54 50
f 2 50 49
f 2 49 48
f 2 48 60
f 2 60 61
f 2 61 52
f 2 52 51
f 2 51 45
f 2 45 30
f 2 30 29
f 2 29 27
f 2 27 28
f 2 28 26
f 2 26 25
f 2 25 24
f 2 24 23
f 2 23 21
f 2 21 6
f 3 7 4
f 4 7 11
f 4 11 12
f 4 12 13
f 4 13 14
f 4 14 15
f 4 15 16
f 4 16 17
f 4 17 18
f 4 18 19
f 4 19 20
f 4 20 5
f 5 20 8
f 6 21 7
f 7 21 11
f 8 20 10
f 8 10 9
f 10 20 19
f 10 19 18
f 10 18 22
f 11 21 23
f 11 23 24
f 11 24 12
f 12 24 25
f 12 25 26
f 12 26 13
f 13 27 14
f 13 26 28
f 13 28 27
f 14 27 29
f 14 29 30
f 14 30 31
f 14 31 15
f 15 32 33
f 15 33 16
f 15 31 34
f 15 34 35
f 15 35 32
f 16 33 36
f 16 36 37
f 16 37 17
f 17 37 38
f 17 38 39
f 17 39 40
f 17 40 41
f 17 41 42
f 17 42 18
f 18 42 22
f 22 42 43
f 22 43 44
f 30 45 34
f 30 34 31
f 32 46 33
f 32 35 47
f 32 47 46
f 33 46 48
f 33 48 49
f 33 49 50
f 33 50 36
f 34 45 51
f 34 51 35
f 35 51 52
f 35 52 47
f 36 53 37
f 36 50 54
f 36 54 55
f 36 55 53
f 37 53 55
f 37 55 56
f 37 56 39
f 37 39 38
f 40 57 41
f 41 58 42
f 41 57 58
f 42 58 43
f 43 58 44
f 44 58 59
f 46 47 60
f 46 60 48
f 47 52 61
f 47 61 60
f 54 62 55
f 55 62 56
f 57 63 58
f 58 63 59

