# https://github.com/mikedh/trimesh
v 0.02548724 -0.02056563 0.03354466
v 0.03431747 -0.02056563 0.03354466
v 0.02548724 -0.02056563 0.03823535
v 0.02548724 0.00441628 0.03354466
v 0.03431747 -0.02056563 0.03907579
v 0.03431747 0.00441628 0.03354466
v 0.02570941 -0.02056563 0.03826304
v 0.02548724 -0.01959971 0.03916069
v 0.02548724 0.00441628 0.03710144
v 0.03431747 -0.02056319 0.03911639
v 0.03431401 -0.02056563 0.03911455
v 0.03431747 0.00441628 0.03742137
v 0.02764834 -0.02056563 0.03848945
v 0.02548724 -0.01918155 0.03938772
v 0.02849894 -0.02056563 0.03857682
v 0.03190136 -0.02036511 0.03908379
v 0.02679773 -0.01967307 0.03921976
v 0.03431747 -0.00396645 0.03941725
v 0.02548724 -0.01449622 0.03952185
v 0.02594712 -0.01403649 0.03953477
v 0.02679773 -0.01233451 0.03944371
v 0.03431747 -0.02050205 0.03918469
v 0.02963654 -0.02056563 0.03868325
v 0.02594712 -0.01913998 0.03943817
v 0.02548724 -0.01828899 0.03962952
v 0.02764834 -0.01972198 0.03925606
v 0.03431747 -0.01999097 0.03955446
v 0.03431747 -0.02048249 0.03920499
v 0.03360258 -0.02044825 0.03916869
v 0.03251425 -0.02039690 0.03911270
v 0.03431747 -0.00468050 0.03946401
v 0.02679773 -0.01318550 0.03954646
v 0.02548724 -0.01534721 0.03957845
v 0.02679773 -0.01913998 0.03949293
v 0.02764834 -0.01913998 0.03953415
v 0.03105076 -0.01913998 0.03969596
v 0.03190136 -0.01913998 0.03973595
v 0.03275197 -0.01913998 0.03977102
v 0.02594712 -0.01828899 0.03964736
v 0.02548724 -0.01743800 0.03962582
v 0.03431747 -0.01913998 0.03983009
v 0.02679773 -0.01403649 0.03957845
v 0.02679773 -0.01488504 0.03960183
v 0.03105076 -0.01828899 0.03975626
v 0.02594712 -0.01488504 0.03957968
v 0.02548724 -0.01619820 0.03960860
v 0.02679773 -0.01828899 0.03966951
v 0.02594712 -0.01743800 0.03963874
v 0.02548724 -0.01658701 0.03961598
v 0.02594712 -0.01573602 0.03960860
v 0.02594712 -0.01658701 0.03962582
f 1 2 5
f 1 5 11
f 1 11 23
f 1 23 15
f 1 15 13
f 1 13 7
f 1 7 3
f 1 3 8
f 1 8 14
f 1 14 25
f 1 25 40
f 1 40 49
f 1 49 46
f 1 46 33
f 1 33 19
f 1 19 9
f 1 9 4
f 1 4 6
f 1 6 2
f 2 6 12
f 2 12 18
f 2 18 31
f 2 31 41
f 2 41 27
f 2 27 28
f 2 28 22
f 2 22 10
f 2 10 5
f 3 7 8
f 4 9 12
f 4 12 6
f 5 10 11
f 7 13 8
f 8 13 15
f 8 15 16
f 8 16 17
f 8 17 14
f 9 18 12
f 9 19 20
f 9 20 21
f 9 21 18
f 10 22 11
f 11 22 23
f 14 24 25
f 14 17 26
f 14 26 27
f 14 27 24
f 15 23 28
f 15 28 29
f 15 29 30
f 15 30 16
f 16 30 29
f 16 29 26
f 16 26 17
f 18 21 32
f 18 32 31
f 19 33 20
f 20 33 32
f 20 32 21
f 22 28 23
f 24 27 34
f 24 34 25
f 25 34 35
f 25 35 36
f 25 36 37
f 25 37 38
f 25 38 39
f 25 39 40
f 26 29 28
f 26 28 27
f 27 41 38
f 27 38 37
f 27 37 36
f 27 36 35
f 27 35 34
f 31 32 42
f 31 42 43
f 31 43 44
f 31 44 41
f 32 33 45
f 32 45 42
f 33 46 45
f 38 41 39
f 39 41 47
f 39 47 48
f 39 48 40
f 40 48 49
f 41 44 47
f 42 45 50
f 42 50 43
f 43 50 44
f 44 50 51
f 44 51 47
f 45 46 50
f 46 49 51
f 46 51 50
f 47 51 48
f 48 51 49

