# https://github.com/mikedh/trimesh
v 0.04887109 -0.00557931 -0.00464084
v 0.04875924 -0.00403867 -0.01317834
v 0.04858682 0.00106744 0.03354466
v 0.04870799 -0.00164212 0.03354466
v 0.04876390 -0.00337351 0.03354466
v 0.04877323 -0.00513913 0.03354466
v 0.00126837 -0.00563066 0.03354466
v 0.04635931 -0.00563066 -0.04050870
v 0.04865206 -0.00512690 -0.03762091
v 0.04869400 -0.00513913 -0.03423701
v 0.04845168 0.00095250 -0.01317834
v 0.04838178 -0.00021887 -0.03879083
v 0.04827926 0.00514890 0.03354466
v 0.04834450 0.00255428 -0.01317834
v 0.04787849 0.00892958 -0.01317834
v 0.00126837 0.01935211 0.03354466
v 0.00126837 -0.00563066 -0.03896114
v 0.04663425 -0.00094272 -0.04135283
v 0.04820470 -0.00469405 -0.03931656
v 0.04849362 -0.00255183 -0.03875381
v 0.04776665 0.00003546 -0.04057534
v 0.04735190 0.00791471 -0.04073824
v 0.04776199 0.00722999 -0.03912404
v 0.04808819 0.00728868 0.03354466
v 0.04775267 0.01034794 -0.01232681
v 0.04504516 0.01890948 0.03354466
v 0.04501254 0.01901219 0.02721373
v 0.00126837 0.01935211 -0.03990893
v 0.04586534 0.00807856 -0.04199702
v 0.04613562 0.01190570 -0.04181931
v 0.04716084 0.01105712 -0.04035321
v 0.04745442 0.01020611 -0.03890931
v 0.04736122 0.01190570 -0.03338548
v 0.04778995 0.01023790 0.03354466
v 0.04772937 0.01063162 -0.00467046
v 0.04754297 0.01186412 -0.01317834
v 0.04608436 0.01700203 0.03354466
v 0.04513836 0.01879699 0.03189343
v 0.04567427 0.01783837 0.03104190
v 0.04501254 0.01885324 -0.03380754
v 0.04485876 0.01884101 -0.03958313
v 0.04340015 0.01875786 -0.04176748
v 0.04338151 0.01722456 -0.04210069
v 0.04550651 0.01190570 -0.04205626
v 0.04575815 0.01374223 -0.04180451
v 0.04669483 0.01319201 -0.04053832
v 0.04723540 0.01190570 -0.03890931
v 0.04687657 0.01385717 -0.03827251
v 0.04701172 0.01373734 -0.03252654
v 0.04717482 0.01318467 -0.02849104
v 0.04736588 0.01299882 0.03354466
v 0.04734724 0.01275916 -0.01573292
v 0.04726802 0.01318467 -0.01232681
v 0.04675075 0.01528532 0.03354466
v 0.04677871 0.01528043 0.03104190
v 0.04646649 0.01614612 0.02657693
v 0.04602378 0.01680639 -0.02892051
v 0.04603310 0.01638333 -0.03922030
v 0.04509642 0.01710718 -0.04136764
v 0.04480284 0.01509946 -0.04201924
v 0.04624280 0.01508723 -0.04044206
v 0.04655503 0.01528287 -0.03402228
v 0.04697910 0.01418731 -0.02041263
f 1 2 3
f 1 3 4
f 1 4 5
f 1 5 6
f 1 6 7
f 1 7 8
f 1 8 9
f 1 9 10
f 1 10 2
f 2 11 3
f 2 10 12
f 2 12 11
f 3 13 24
f 3 24 34
f 3 34 51
f 3 51 54
f 3 54 37
f 3 37 26
f 3 26 16
f 3 16 7
f 3 7 6
f 3 6 5
f 3 5 4
f 3 11 14
f 3 14 15
f 3 15 13
f 7 16 28
f 7 28 17
f 7 17 8
f 8 17 18
f 8 18 19
f 8 19 9
f 9 19 20
f 9 20 12
f 9 12 10
f 11 12 14
f 12 20 21
f 12 21 22
f 12 22 23
f 12 23 15
f 12 15 14
f 13 15 24
f 15 25 24
f 15 23 25
f 16 26 27
f 16 27 28
f 17 28 29
f 17 29 18
f 18 29 21
f 18 21 19
f 19 21 20
f 21 29 30
f 21 30 22
f 22 31 23
f 22 30 31
f 23 32 33
f 23 33 25
f 23 31 32
f 24 25 35
f 24 35 34
f 25 36 35
f 25 33 36
f 26 37 38
f 26 38 27
f 27 38 39
f 27 39 40
f 27 40 41
f 27 41 28
f 28 41 42
f 28 42 43
f 28 43 29
f 29 43 44
f 29 44 30
f 30 44 45
f 30 45 46
f 30 46 31
f 31 46 47
f 31 47 32
f 32 47 33
f 33 47 48
f 33 48 49
f 33 49 50
f 33 50 36
f 34 35 36
f 34 36 51
f 36 50 52
f 36 52 53
f 36 53 51
f 37 54 55
f 37 55 56
f 37 56 57
f 37 57 39
f 37 39 38
f 39 57 40
f 40 58 41
f 40 57 58
f 41 58 59
f 41 59 42
f 42 59 60
f 42 60 43
f 43 60 44
f 44 60 45
f 45 60 59
f 45 59 61
f 45 61 46
f 46 61 48
f 46 48 47
f 48 62 49
f 48 61 58
f 48 58 62
f 49 63 50
f 49 62 63
f 50 63 53
f 50 53 52
f 51 53 55
f 51 55 54
f 53 63 55
f 55 63 56
f 56 63 62
f 56 62 57
f 57 62 58
f 58 61 59

