# https://github.com/mikedh/trimesh
v 0.03747326 0.01747897 0.03354625
v 0.03747326 0.01769373 0.03797794
v 0.03747326 0.02393176 0.03354625
v 0.04583518 0.01754719 0.03354625
v 0.04783361 0.01747897 0.03631506
v 0.04903882 0.01747897 0.04124937
v 0.04298788 0.02393176 0.04122699
v 0.04237581 0.02393176 0.04093134
v 0.03747326 0.01914144 0.03807143
v 0.04829888 0.01758825 0.04170884
v 0.04760156 0.01804808 0.04170005
v 0.04067217 0.02384586 0.03354625
v 0.03747326 0.02393176 0.03832714
v 0.04380951 0.02393176 0.04141238
v 0.04577598 0.02389007 0.03943146
v 0.04558892 0.02387807 0.03846058
v 0.04542436 0.01830831 0.03354625
v 0.04683202 0.02007689 0.03654679
v 0.04767023 0.01838600 0.03654599
v 0.04930047 0.01779542 0.03878181
v 0.04956803 0.01747897 0.03953694
v 0.04933480 0.01786490 0.04041114
v 0.04859604 0.01914144 0.04099766
v 0.04872982 0.01823567 0.04129731
v 0.04829770 0.01848201 0.04160736
v 0.03747326 0.02169261 0.03821207
v 0.03747326 0.01999225 0.03812018
v 0.04675152 0.02041355 0.04170165
v 0.04395395 0.02384649 0.03655158
v 0.04134936 0.02329255 0.03354625
v 0.04465482 0.02366268 0.04135405
v 0.04538648 0.02366647 0.04106718
v 0.04572034 0.02381428 0.04033202
v 0.04625073 0.02334181 0.03955692
v 0.04612405 0.02322243 0.03844301
v 0.04523493 0.02229330 0.03643812
v 0.04442870 0.02319401 0.03639177
v 0.04500644 0.01898795 0.03354625
v 0.04600921 0.02137237 0.03649885
v 0.04772587 0.02058157 0.03818970
v 0.04855816 0.01908649 0.03837508
v 0.04842674 0.01985076 0.03882097
v 0.04930047 0.01819209 0.03955692
v 0.04879375 0.01914144 0.04040794
v 0.04841609 0.01985203 0.04051741
v 0.04778625 0.02068073 0.04103841
v 0.04724521 0.02093276 0.04135645
v 0.04636320 0.02169261 0.04148989
v 0.04204786 0.02263691 0.03354625
v 0.04636083 0.02251311 0.04112311
v 0.04614062 0.02319843 0.04069561
v 0.04678703 0.02255037 0.04040794
v 0.04683321 0.02261164 0.03955692
v 0.04673613 0.02247205 0.03859243
v 0.04427360 0.02006678 0.03354625
v 0.04254155 0.02212339 0.03354625
v 0.04769509 0.02116899 0.03878980
v 0.04847528 0.01996762 0.03955692
v 0.04888847 0.01914144 0.03955692
v 0.04799343 0.02084180 0.03955692
v 0.04771877 0.02113677 0.04048225
v 0.04695041 0.02195158 0.04102163
v 0.04755421 0.02156313 0.03955692
f 1 2 9
f 1 9 27
f 1 27 26
f 1 26 13
f 1 13 3
f 1 3 12
f 1 12 30
f 1 30 49
f 1 49 56
f 1 56 55
f 1 55 38
f 1 38 17
f 1 17 4
f 1 4 5
f 1 5 21
f 1 21 6
f 1 6 2
f 2 7 8
f 2 8 9
f 2 6 10
f 2 10 11
f 2 11 7
f 3 13 8
f 3 8 7
f 3 7 14
f 3 14 15
f 3 15 16
f 3 16 12
f 4 17 18
f 4 18 19
f 4 19 5
f 5 19 20
f 5 20 21
f 6 21 22
f 6 22 23
f 6 23 24
f 6 24 25
f 6 25 10
f 7 11 14
f 8 13 26
f 8 26 27
f 8 27 9
f 10 25 28
f 10 28 11
f 11 28 14
f 12 29 30
f 12 16 29
f 14 31 32
f 14 32 33
f 14 33 15
f 14 28 31
f 15 33 34
f 15 34 35
f 15 35 16
f 16 35 36
f 16 36 37
f 16 37 29
f 17 38 39
f 17 39 18
f 18 40 19
f 18 39 40
f 19 40 41
f 19 41 20
f 20 41 42
f 20 42 43
f 20 43 21
f 21 43 22
f 22 43 44
f 22 44 23
f 23 45 46
f 23 46 25
f 23 25 24
f 23 44 45
f 25 46 47
f 25 47 28
f 28 47 48
f 28 48 31
f 29 49 30
f 29 37 49
f 31 48 32
f 32 48 50
f 32 50 51
f 32 51 33
f 33 51 52
f 33 52 34
f 34 52 53
f 34 53 35
f 35 53 54
f 35 54 39
f 35 39 36
f 36 55 56
f 36 56 37
f 36 39 55
f 37 56 49
f 38 55 39
f 39 54 40
f 40 54 57
f 40 57 42
f 40 42 41
f 42 58 59
f 42 59 43
f 42 57 60
f 42 60 58
f 43 59 44
f 44 59 58
f 44 58 45
f 45 58 61
f 45 61 46
f 46 61 62
f 46 62 47
f 47 62 50
f 47 50 48
f 50 62 51
f 51 62 52
f 52 62 61
f 52 61 63
f 52 63 53
f 53 63 57
f 53 57 54
f 57 63 60
f 58 60 61
f 60 63 61

