# https://github.com/mikedh/trimesh
v -0.05148271 0.00893072 0.03955838
v -0.05143411 0.00893072 0.04040837
v -0.05141758 0.00978047 0.04040837
v -0.05144964 0.00978047 0.03955838
v -0.05131238 0.00900472 0.03885710
v -0.05146417 0.00807841 0.03955838
v -0.05138652 0.00467683 0.04040837
v -0.05139804 0.00552659 0.04040837
v -0.05121919 0.00467683 0.04117914
v -0.05121018 0.00893072 0.04119995
v -0.05120116 0.00978047 0.04116470
v -0.05133692 0.01063023 0.04040837
v -0.05134244 0.01063023 0.03955838
v -0.05112701 0.01109721 0.03886852
v -0.05126278 0.00978558 0.03885710
v -0.05123873 0.00642228 0.03885710
v -0.05135095 0.00722610 0.03920791
v -0.05069367 -0.00099586 0.03860633
v -0.05140906 0.00637890 0.03955838
v -0.05134995 0.00382453 0.04040837
v -0.05118012 0.00297477 0.04113281
v -0.05120917 0.00382453 0.04115463
v -0.05113353 0.00626407 0.04147488
v -0.05113102 0.00734093 0.04147455
v -0.05105087 0.01063023 0.04133456
v -0.05099977 0.01147999 0.04124090
v -0.05121168 0.01147999 0.04040837
v -0.05120016 0.01147999 0.03955502
v -0.04787468 0.01147999 0.03885710
v -0.05129284 0.00552659 0.03920791
v -0.05031944 -0.01148384 0.03860633
v -0.05104786 -0.00010528 0.03911861
v -0.04747740 -0.00099586 0.03860633
v -0.05063455 -0.01148384 0.03955838
v -0.05065459 -0.01148384 0.04040837
v -0.05035050 -0.01148384 0.04149738
v -0.05025732 -0.01063153 0.04175755
v -0.05053987 0.00382453 0.04193245
v -0.05055640 0.00467683 0.04192842
v -0.05061652 0.00637890 0.04188847
v -0.05050881 0.01063023 0.04185188
v -0.05045621 0.01147999 0.04183241
v -0.04636473 -0.01458941 0.03860633
v -0.04860460 0.01147999 0.04113113
v -0.05027636 -0.01286182 0.03868992
v -0.05058846 -0.01233360 0.03955838
v -0.05060450 -0.01233360 0.04040837
v -0.05024680 -0.01283886 0.04150946
v -0.04965515 -0.01431126 0.04189216
v -0.04973380 -0.01318335 0.04193412
v -0.04976536 -0.01148384 0.04200395
v -0.04976536 -0.01063153 0.04201503
v -0.04976536 -0.00467814 0.04203584
v -0.04976536 -0.00212632 0.04203584
v -0.04976536 0.00382453 0.04201402
v -0.04947730 0.01147999 0.04186094
v -0.04790023 -0.01458941 0.04123453
v -0.04862564 -0.01458941 0.04190223
v -0.05015311 -0.01440312 0.03888832
v -0.05050280 -0.01318335 0.03955838
v -0.05051633 -0.01318335 0.04040837
v -0.05017215 -0.01431126 0.04123990
v -0.04891570 -0.01148384 0.04200831
v -0.05034599 -0.01431126 0.04002097
f 1 2 3
f 1 3 4
f 1 4 5
f 1 5 6
f 1 6 7
f 1 7 8
f 1 8 2
f 2 8 9
f 2 9 10
f 2 10 3
f 3 10 11
f 3 11 12
f 3 12 4
f 4 12 13
f 4 13 14
f 4 14 15
f 4 15 5
f 5 16 17
f 5 17 6
f 5 15 18
f 5 18 16
f 6 17 19
f 6 19 7
f 7 9 8
f 7 19 20
f 7 20 21
f 7 21 22
f 7 22 9
f 9 23 10
f 9 22 23
f 10 23 24
f 10 24 11
f 11 25 26
f 11 26 12
f 11 24 25
f 12 26 27
f 12 27 13
f 13 27 28
f 13 28 14
f 14 28 29
f 14 29 18
f 14 18 15
f 16 30 19
f 16 19 17
f 16 18 31
f 16 31 32
f 16 32 30
f 18 33 43
f 18 43 31
f 18 29 33
f 19 30 32
f 19 32 34
f 19 34 20
f 20 34 35
f 20 35 21
f 21 35 36
f 21 36 22
f 22 36 37
f 22 37 23
f 23 37 38
f 23 38 39
f 23 39 40
f 23 40 24
f 24 40 41
f 24 41 25
f 25 41 42
f 25 42 26
f 26 42 56
f 26 56 44
f 26 44 29
f 26 29 28
f 26 28 27
f 29 43 33
f 29 44 43
f 31 43 45
f 31 45 34
f 31 34 32
f 34 45 46
f 34 46 35
f 35 46 47
f 35 47 36
f 36 47 48
f 36 48 37
f 37 48 49
f 37 49 50
f 37 50 51
f 37 51 38
f 38 51 52
f 38 52 53
f 38 53 54
f 38 54 39
f 39 41 40
f 39 54 55
f 39 55 41
f 41 56 42
f 41 55 56
f 43 57 58
f 43 58 59
f 43 59 45
f 43 44 57
f 44 56 58
f 44 58 57
f 45 60 46
f 45 59 60
f 46 60 47
f 47 60 61
f 47 61 62
f 47 62 48
f 48 62 49
f 49 62 58
f 49 58 51
f 49 51 50
f 51 63 52
f 51 58 63
f 52 63 53
f 53 63 54
f 54 63 55
f 55 63 56
f 56 63 58
f 58 62 59
f 59 62 64
f 59 64 60
f 60 64 61
f 61 64 62

