# https://github.com/mikedh/trimesh
v -0.04636305 -0.01459019 0.03860600
v -0.04833408 -0.01459019 0.04180453
v -0.04789793 -0.01459019 0.04123491
v -0.04582029 -0.01519760 0.03860600
v -0.04880987 -0.01839217 0.03860600
v -0.04950154 -0.01654330 0.03864192
v -0.04969802 -0.01579090 0.03865669
v -0.05009628 -0.01466700 0.03888494
v -0.04458763 -0.02248021 0.04167731
v -0.04385807 -0.02259699 0.04127653
v -0.04143151 -0.02186418 0.03860600
v -0.05014210 -0.01467719 0.04113992
v -0.04961520 -0.01473989 0.04187300
v -0.04891472 -0.01473989 0.04200492
v -0.04848739 -0.01938675 0.03877618
v -0.04930769 -0.01744069 0.03879632
v -0.04802569 -0.02009212 0.03860600
v -0.04982843 -0.01658954 0.03955827
v -0.05014915 -0.01532927 0.03961198
v -0.05026898 -0.01473989 0.03970093
v -0.04721331 -0.01913987 0.04198511
v -0.04551102 -0.02256956 0.04188106
v -0.04610136 -0.02256956 0.04176257
v -0.04126763 -0.02259699 0.03860600
v -0.05021875 -0.01496953 0.04044711
v -0.04980640 -0.01658954 0.04040817
v -0.04980816 -0.01573917 0.04125908
v -0.04948215 -0.01573917 0.04180453
v -0.04877639 -0.01744069 0.04188207
v -0.04891472 -0.01573917 0.04200358
v -0.04806446 -0.01744069 0.04203513
v -0.04844686 -0.01991735 0.03955827
v -0.04882309 -0.01913987 0.03955827
v -0.04926276 -0.01811158 0.03945086
v -0.04763800 -0.02083277 0.03868220
v -0.04772435 -0.02114078 0.03946395
v -0.04954031 -0.01744069 0.03955827
v -0.04705736 -0.02176386 0.03863520
v -0.04953149 -0.01744069 0.04040817
v -0.05006633 -0.01565531 0.04032560
v -0.04806446 -0.01829106 0.04200660
v -0.04721331 -0.01999102 0.04193812
v -0.04640181 -0.02172389 0.04184044
v -0.04720714 -0.02077712 0.04181795
v -0.04691902 -0.02146212 0.04176492
v -0.04671108 -0.02202877 0.04160380
v -0.04671372 -0.02242456 0.04111810
v -0.04687056 -0.02247551 0.04040817
v -0.04684765 -0.02247081 0.03950423
v -0.04671461 -0.02238851 0.03877081
v -0.04931034 -0.01744069 0.04121410
v -0.04940373 -0.01653233 0.04159743
v -0.04858431 -0.01855754 0.04176089
v -0.04808737 -0.01912027 0.04186562
v -0.04792084 -0.02084139 0.04040817
v -0.04843981 -0.01989932 0.04040817
v -0.04882397 -0.01913987 0.04040817
v -0.04926716 -0.01811158 0.04051592
v -0.04751993 -0.02151150 0.04052163
v -0.04772259 -0.02022144 0.04173908
v -0.04748557 -0.02101852 0.04142859
v -0.04719305 -0.02165727 0.04123289
v -0.04904953 -0.01820877 0.04117684
v -0.04851999 -0.01944318 0.04114797
f 1 2 3
f 1 3 4
f 1 4 11
f 1 11 24
f 1 24 17
f 1 17 5
f 1 5 6
f 1 6 7
f 1 7 8
f 1 8 2
f 2 9 10
f 2 10 11
f 2 11 3
f 2 8 12
f 2 12 13
f 2 13 14
f 2 14 9
f 3 11 4
f 5 15 16
f 5 16 6
f 5 17 15
f 6 18 8
f 6 8 7
f 6 16 18
f 8 18 19
f 8 19 20
f 8 20 12
f 9 21 22
f 9 22 10
f 9 14 21
f 10 22 23
f 10 23 24
f 10 24 11
f 12 20 25
f 12 25 26
f 12 26 27
f 12 27 28
f 12 28 13
f 13 28 29
f 13 29 30
f 13 30 14
f 14 30 31
f 14 31 21
f 15 32 33
f 15 33 34
f 15 34 16
f 15 17 35
f 15 35 36
f 15 36 32
f 16 34 37
f 16 37 18
f 17 24 38
f 17 38 35
f 18 37 39
f 18 39 26
f 18 26 40
f 18 40 19
f 19 40 25
f 19 25 20
f 21 31 41
f 21 41 22
f 22 41 42
f 22 42 43
f 22 43 23
f 23 43 44
f 23 44 45
f 23 45 46
f 23 46 47
f 23 47 48
f 23 48 49
f 23 49 24
f 24 49 50
f 24 50 38
f 25 40 26
f 26 39 51
f 26 51 27
f 27 52 28
f 27 51 52
f 28 52 53
f 28 53 29
f 29 53 54
f 29 54 41
f 29 41 30
f 30 41 31
f 32 36 55
f 32 55 56
f 32 56 57
f 32 57 33
f 33 57 58
f 33 58 34
f 34 58 37
f 35 38 36
f 36 38 50
f 36 50 49
f 36 49 59
f 36 59 55
f 37 58 39
f 39 58 51
f 41 54 44
f 41 44 42
f 42 44 43
f 44 54 60
f 44 60 45
f 45 60 46
f 46 60 61
f 46 61 62
f 46 62 47
f 47 62 59
f 47 59 48
f 48 59 49
f 51 58 63
f 51 63 53
f 51 53 52
f 53 63 64
f 53 64 60
f 53 60 54
f 55 59 64
f 55 64 56
f 56 64 57
f 57 64 58
f 58 64 63
f 59 62 64
f 60 64 61
f 61 64 62

