# https://github.com/mikedh/trimesh
v 0.04886163 -0.00600660 -0.00420704
v 0.00125905 -0.00563066 0.03354466
v 0.04874048 -0.00713641 0.03354466
v 0.04875912 -0.00765832 -0.00022538
v 0.04870320 -0.00631255 -0.03455789
v 0.04861467 -0.00581863 -0.03758483
v 0.00126371 -0.02605718 0.03313021
v 0.03153720 -0.02440146 0.03354466
v 0.00125905 -0.00563066 -0.03896139
v 0.00125905 -0.02548328 -0.03525357
v 0.04829316 -0.01105374 0.03354466
v 0.04831180 -0.01106174 0.03104317
v 0.04856342 -0.00888411 -0.01487905
v 0.04839567 -0.00945601 -0.03019139
v 0.04828850 -0.00970797 -0.03406943
v 0.04791107 -0.00949400 -0.03836932
v 0.04708166 -0.00619657 -0.04010112
v 0.00468387 -0.02532930 -0.03529797
v 0.03580074 -0.02365559 0.03354466
v 0.03337774 -0.02344162 -0.03657092
v 0.00125905 -0.02296771 -0.04204754
v 0.00423188 -0.02389955 -0.04182552
v 0.01824333 -0.02401753 -0.04051556
v 0.02835003 -0.02366359 -0.03994570
v 0.04338659 -0.01996622 0.03354466
v 0.04707700 -0.01446116 0.03313021
v 0.04765945 -0.01198158 -0.03210821
v 0.04727271 -0.01275745 -0.03475031
v 0.04701177 -0.01250549 -0.03833972
v 0.04630350 -0.01058582 -0.04016773
v 0.04203530 -0.01625285 -0.04058957
v 0.02716648 -0.02225783 -0.04167750
v 0.01425471 -0.02254178 -0.04206234
v 0.03115045 -0.02351961 -0.03912421
v 0.03870368 -0.02255178 0.03354466
v 0.03644377 -0.02272975 -0.03434327
v 0.03348026 -0.02313768 -0.03885038
v 0.03592655 -0.02255378 -0.03850994
v 0.01483716 -0.02369358 -0.04172190
v 0.03851264 -0.02058411 -0.03989390
v 0.03950513 -0.02208786 0.02083741
v 0.04162060 -0.02037615 -0.01487905
v 0.04253388 -0.01956629 -0.02223549
v 0.04419270 -0.01867244 0.00978055
v 0.04516656 -0.01758062 0.02594399
v 0.04612644 -0.01616886 0.03062132
v 0.04676947 -0.01443916 -0.00977247
v 0.04534828 -0.01609888 -0.03452828
v 0.04555797 -0.01508105 -0.03825091
v 0.04587482 -0.01565295 -0.02551406
v 0.04496620 -0.01335135 -0.04016773
v 0.04028329 -0.01863045 -0.04025654
v 0.04343319 -0.01783858 -0.03808809
v 0.03816317 -0.02186189 -0.03734801
v 0.03903917 -0.02162993 -0.03317393
v 0.04101019 -0.02013419 -0.03741461
v 0.04214247 -0.01973026 -0.02721625
v 0.04356365 -0.01831050 -0.03301111
v 0.04415077 -0.01777659 -0.03062064
v 0.04440238 -0.01763262 -0.02508481
v 0.04502211 -0.01693673 -0.02424111
v 0.04534362 -0.01652880 -0.02168783
v 0.04616838 -0.01565495 0.00126959
v 0.04292995 -0.01874842 -0.03583083
f 1 2 3
f 1 3 4
f 1 4 5
f 1 5 6
f 1 6 2
f 2 7 8
f 2 8 19
f 2 19 35
f 2 35 25
f 2 25 11
f 2 11 3
f 2 6 9
f 2 9 21
f 2 21 10
f 2 10 7
f 3 11 12
f 3 12 4
f 4 12 13
f 4 13 5
f 5 13 14
f 5 14 15
f 5 15 6
f 6 15 16
f 6 16 17
f 6 17 9
f 7 10 18
f 7 18 8
f 8 18 20
f 8 20 19
f 9 17 21
f 10 21 22
f 10 22 23
f 10 23 24
f 10 24 18
f 11 25 26
f 11 26 12
f 12 26 27
f 12 27 14
f 12 14 13
f 14 27 15
f 15 27 28
f 15 28 29
f 15 29 16
f 16 29 30
f 16 30 17
f 17 30 31
f 17 31 32
f 17 32 33
f 17 33 21
f 18 24 34
f 18 34 20
f 19 20 36
f 19 36 35
f 20 34 37
f 20 37 38
f 20 38 36
f 21 33 22
f 22 33 39
f 22 39 23
f 23 39 24
f 24 40 37
f 24 37 34
f 24 39 32
f 24 32 40
f 25 35 41
f 25 41 42
f 25 42 43
f 25 43 44
f 25 44 45
f 25 45 46
f 25 46 26
f 26 46 47
f 26 47 27
f 27 47 28
f 28 48 49
f 28 49 29
f 28 47 50
f 28 50 48
f 29 49 51
f 29 51 30
f 30 51 31
f 31 52 32
f 31 51 53
f 31 53 52
f 32 39 33
f 32 52 40
f 35 36 41
f 36 38 54
f 36 54 55
f 36 55 41
f 37 40 38
f 38 40 54
f 40 52 53
f 40 53 56
f 40 56 54
f 41 55 42
f 42 55 57
f 42 57 43
f 43 57 58
f 43 58 44
f 44 58 59
f 44 59 60
f 44 60 61
f 44 61 45
f 45 61 62
f 45 62 63
f 45 63 46
f 46 63 47
f 47 63 50
f 48 64 53
f 48 53 49
f 48 50 61
f 48 61 59
f 48 59 58
f 48 58 64
f 49 53 51
f 50 63 62
f 50 62 61
f 53 64 56
f 54 56 55
f 55 56 57
f 56 64 57
f 57 64 58
f 59 61 60

