# https://github.com/mikedh/trimesh
v -0.02782451 -0.07232149 0.00490194
v -0.05104964 -0.07233788 -0.00454749
v -0.04932151 -0.07249993 0.00157140
v -0.04390292 -0.07287685 0.00392197
v -0.03866624 -0.07879100 0.00450793
v -0.03513950 -0.08072293 0.00455171
v -0.03330904 -0.08250920 0.00400953
v -0.02782451 -0.07854154 0.00388156
v -0.02782451 -0.07232149 -0.02681731
v -0.04955799 -0.07232149 -0.01211445
v -0.04839605 -0.07490347 -0.00378979
v -0.04653604 -0.07685907 -0.00227438
v -0.04988770 -0.07363797 -0.00183659
v -0.04425082 -0.07756739 0.00184418
v -0.04223391 -0.07853426 0.00289486
v -0.04644964 -0.07321371 0.00305987
v -0.04649739 -0.07679170 -0.00075896
v -0.04450776 -0.07780956 0.00124475
v -0.04168819 -0.07800621 0.00348756
v -0.03779308 -0.08230344 0.00319458
v -0.03431182 -0.08547720 0.00193847
v -0.03119209 -0.08459408 0.00308681
v -0.02819515 -0.08296623 0.00283088
v -0.02827474 -0.09092339 -0.01129276
v -0.02820880 -0.08936655 -0.01866776
v -0.02832021 -0.08530604 -0.02495841
v -0.02853850 -0.08216323 -0.02698906
v -0.02885684 -0.07948657 -0.02752451
v -0.03468700 -0.07526764 -0.02915442
v -0.03731330 -0.07287685 -0.02950128
v -0.04525131 -0.07243802 -0.02745042
v -0.04689304 -0.07239796 -0.02422427
v -0.04374603 -0.07555716 -0.02283683
v -0.03931201 -0.08170620 -0.01173055
v -0.04193377 -0.08093233 -0.00285697
v -0.03994869 -0.08281146 -0.00094755
v -0.04048987 -0.08061733 0.00255473
v -0.03777034 -0.08408606 0.00116056
v -0.03246317 -0.08820484 -0.00122369
v -0.02888413 -0.08886400 -0.00092061
v -0.03004834 -0.08659885 0.00150742
v -0.02878408 -0.09050641 -0.00413328
v -0.02893188 -0.09084510 -0.00706981
v -0.03149678 -0.08946670 -0.00539613
v -0.03186288 -0.08888585 -0.00906342
v -0.02882273 -0.09001114 -0.01506782
v -0.03106703 -0.08782975 -0.01816263
v -0.02929570 -0.08790805 -0.02099476
v -0.03097835 -0.08629294 -0.02268192
v -0.03230173 -0.08475432 -0.02428489
v -0.03149906 -0.08222515 -0.02716417
v -0.03305892 -0.07840680 -0.02873683
v -0.03787721 -0.07593408 -0.02893552
v -0.04217934 -0.07279309 -0.02902645
v -0.04400070 -0.07465401 -0.02552753
v -0.03668344 -0.07988716 -0.02688467
v -0.04015107 -0.07800075 -0.02578010
v -0.03695403 -0.08142214 -0.02404916
v -0.03302254 -0.08579039 -0.02005858
v -0.03463925 -0.08721248 -0.00378979
v -0.03346594 -0.08794082 -0.00605954
v -0.03666298 -0.08557370 -0.00132809
v -0.03469155 -0.08369822 -0.02285704
v -0.03469155 -0.08245093 -0.02559151
f 1 2 3
f 1 3 4
f 1 4 5
f 1 5 6
f 1 6 7
f 1 7 8
f 1 8 9
f 1 9 10
f 1 10 2
f 2 11 12
f 2 12 13
f 2 13 3
f 2 10 11
f 3 14 15
f 3 15 16
f 3 16 4
f 3 13 17
f 3 17 18
f 3 18 14
f 4 16 5
f 5 16 19
f 5 19 20
f 5 20 6
f 6 20 7
f 7 20 21
f 7 21 22
f 7 22 8
f 8 22 23
f 8 23 24
f 8 24 25
f 8 25 9
f 9 25 26
f 9 26 27
f 9 27 28
f 9 28 29
f 9 29 30
f 9 30 31
f 9 31 32
f 9 32 10
f 10 32 33
f 10 33 34
f 10 34 11
f 11 34 35
f 11 35 12
f 12 35 36
f 12 36 17
f 12 17 13
f 14 37 15
f 14 18 37
f 15 37 20
f 15 20 19
f 15 19 16
f 17 36 38
f 17 38 18
f 18 38 37
f 20 37 38
f 20 38 21
f 21 38 39
f 21 39 40
f 21 40 41
f 21 41 22
f 22 41 23
f 23 41 40
f 23 40 42
f 23 42 24
f 24 43 44
f 24 44 45
f 24 45 46
f 24 46 25
f 24 42 43
f 25 46 47
f 25 47 48
f 25 48 26
f 26 48 49
f 26 49 50
f 26 50 51
f 26 51 27
f 27 51 52
f 27 52 28
f 28 52 29
f 29 52 30
f 30 52 53
f 30 53 54
f 30 54 31
f 31 55 32
f 31 54 56
f 31 56 57
f 31 57 55
f 32 58 33
f 32 55 58
f 33 58 59
f 33 59 34
f 34 59 45
f 34 45 35
f 35 60 36
f 35 45 61
f 35 61 60
f 36 62 38
f 36 60 62
f 38 62 39
f 39 62 44
f 39 44 42
f 39 42 40
f 42 44 43
f 44 62 60
f 44 60 61
f 44 61 45
f 45 59 47
f 45 47 46
f 47 59 63
f 47 63 49
f 47 49 48
f 49 63 50
f 50 64 51
f 50 63 64
f 51 53 52
f 51 64 56
f 51 56 53
f 53 56 54
f 55 57 58
f 56 64 57
f 57 64 58
f 58 63 59
f 58 64 63

