# https://github.com/mikedh/trimesh
v -0.02355411 -0.09047714 -0.01006154
v -0.02358863 -0.07287677 -0.02609087
v -0.02325655 -0.08716899 -0.02104729
v -0.02308064 -0.08977547 -0.01615801
v -0.02274527 -0.08990128 -0.01364076
v -0.02174080 -0.08913404 -0.01135042
v -0.02139392 -0.08855285 -0.00908731
v -0.02196273 -0.08837566 -0.00621304
v -0.02334039 -0.08791851 -0.00306345
v -0.02343081 -0.08540062 -0.00057041
v -0.02362973 -0.07887291 0.00320850
v -0.02000311 -0.07260035 -0.02535566
v -0.02305762 -0.07518025 -0.02588816
v -0.02362973 -0.07662258 0.00402842
v -0.02236715 -0.07353237 0.00480599
v -0.01996858 -0.07252770 0.00481204
v -0.01939155 -0.08209247 -0.02146179
v -0.01949183 -0.08429672 -0.01956175
v -0.02296556 -0.08860246 -0.01880839
v -0.02225536 -0.07890303 -0.02494419
v -0.01978610 -0.07719314 -0.02452666
v -0.02136432 -0.08789902 -0.01712618
v -0.01591288 -0.08286679 -0.01286319
v -0.01522570 -0.08204108 -0.01077859
v -0.01664281 -0.08327787 -0.00827344
v -0.01900521 -0.08545201 -0.00642483
v -0.02048973 -0.08643010 -0.00502703
v -0.01824898 -0.08318751 -0.00316330
v -0.01659185 -0.08030106 -0.00145386
v -0.02126404 -0.08472021 -0.00158396
v -0.01974172 -0.08170088 -0.00005001
v -0.01718204 -0.07739691 0.00163219
v -0.02287021 -0.08177175 0.00163219
v -0.01812075 -0.07573309 0.00303907
v -0.01676611 -0.07237708 -0.02436933
v -0.01538681 -0.07320457 0.00330834
v -0.00911338 -0.07244088 -0.00080942
v -0.01515172 -0.07586243 -0.02191562
v -0.01067680 -0.07241075 -0.01995507
v -0.00983837 -0.07334455 -0.01800359
v -0.01068996 -0.07559310 -0.01645149
v -0.01369187 -0.07940803 -0.01612473
v -0.01977295 -0.08618735 -0.01699911
v -0.01323155 -0.07279526 -0.02218792
v -0.01686146 -0.08341077 -0.01541070
v -0.00834235 -0.07416494 -0.01286319
v -0.00683646 -0.07248163 -0.01210680
v -0.00979070 -0.07594749 -0.01060008
v -0.01362446 -0.08024791 -0.01057588
v -0.01370337 -0.08023551 -0.01374665
v -0.01031184 -0.07602190 -0.00681513
v -0.01297838 -0.07879494 -0.00592562
v -0.00693017 -0.07268186 -0.00977411
v -0.01027074 -0.07545666 -0.00455202
v -0.01732013 -0.08317511 -0.00501796
v -0.01509747 -0.08029221 -0.00367764
v -0.01429192 -0.07806492 -0.00141151
v -0.01579123 -0.07807023 0.00008614
v -0.01428205 -0.07552046 0.00113903
v -0.01110424 -0.07380879 -0.00017406
v -0.00848209 -0.07303447 -0.00325104
v -0.00747597 -0.07255782 -0.00540825
v -0.00881417 -0.07371842 -0.01562249
v -0.01231092 -0.07849018 -0.01437899
f 1 2 3
f 1 3 4
f 1 4 5
f 1 5 6
f 1 6 7
f 1 7 8
f 1 8 9
f 1 9 10
f 1 10 11
f 1 11 2
f 2 12 13
f 2 13 3
f 2 11 14
f 2 14 15
f 2 15 16
f 2 16 12
f 3 17 18
f 3 18 19
f 3 19 4
f 3 13 20
f 3 20 21
f 3 21 17
f 4 19 22
f 4 22 5
f 5 23 6
f 5 22 23
f 6 23 24
f 6 24 7
f 7 25 26
f 7 26 8
f 7 24 25
f 8 26 27
f 8 27 9
f 9 27 28
f 9 28 29
f 9 29 30
f 9 30 10
f 10 31 32
f 10 32 33
f 10 33 11
f 10 30 31
f 11 33 34
f 11 34 16
f 11 16 14
f 12 16 35
f 12 35 21
f 12 21 13
f 13 21 20
f 14 16 15
f 16 34 36
f 16 36 37
f 16 37 35
f 17 21 38
f 17 38 39
f 17 39 18
f 18 39 40
f 18 40 41
f 18 41 42
f 18 42 43
f 18 43 22
f 18 22 19
f 21 35 44
f 21 44 38
f 22 43 45
f 22 45 23
f 23 46 47
f 23 47 48
f 23 48 49
f 23 49 24
f 23 45 50
f 23 50 46
f 24 49 25
f 25 51 52
f 25 52 26
f 25 49 53
f 25 53 51
f 26 52 54
f 26 54 55
f 26 55 27
f 27 55 56
f 27 56 28
f 28 56 37
f 28 37 57
f 28 57 29
f 29 57 58
f 29 58 30
f 30 58 31
f 31 58 59
f 31 59 32
f 32 36 33
f 32 59 36
f 33 36 34
f 35 39 44
f 35 37 39
f 36 59 37
f 37 59 60
f 37 60 57
f 37 56 61
f 37 61 62
f 37 62 47
f 37 47 39
f 38 44 39
f 39 47 40
f 40 47 63
f 40 63 41
f 41 63 42
f 42 63 64
f 42 64 43
f 43 64 45
f 45 64 50
f 46 50 64
f 46 64 63
f 46 63 47
f 47 62 53
f 47 53 48
f 48 53 49
f 51 53 62
f 51 62 52
f 52 62 54
f 54 61 56
f 54 56 55
f 54 62 61
f 57 60 58
f 58 60 59

