# https://github.com/mikedh/trimesh
v -0.02387437 0.05746905 0.01827488
v -0.02372632 0.07739784 0.00321810
v -0.02390618 0.06480364 0.01668996
v -0.02394606 0.05984757 0.01818472
v -0.02803417 0.05450336 0.01736853
v -0.02806004 0.05145309 0.01740649
v -0.02803417 0.04617855 0.01734006
v -0.02437069 0.04474049 0.01800914
v -0.02435415 0.04239681 0.01794271
v -0.02375347 0.03386798 0.01629135
v -0.02372632 0.07776606 0.00099257
v -0.02806004 0.07941311 -0.00330666
v -0.02401224 0.07616877 0.00615069
v -0.02372632 0.03119588 -0.02265316
v -0.02797520 0.07122265 0.01031704
v -0.02798284 0.05764818 0.01692722
v -0.02459255 0.06213154 0.01737802
v -0.02504603 0.07374547 0.00903582
v -0.02806004 0.07734808 -0.01475227
v -0.02805538 0.03766465 -0.02395337
v -0.02796799 0.02929505 0.00772612
v -0.02790521 0.03758006 0.01489149
v -0.02731980 0.04099856 0.01681333
v -0.02727059 0.04412347 0.01741124
v -0.02435415 0.03974461 0.01773866
v -0.02436009 0.03673912 0.01702213
v -0.02643490 0.03561952 0.01506707
v -0.02481484 0.03182285 0.01414649
v -0.02490689 0.02960357 0.01238599
v -0.02419889 0.02933984 -0.02070285
v -0.02372632 0.07794022 -0.00529018
v -0.02726295 0.07979129 -0.00693679
v -0.02804392 0.07996545 -0.00906742
v -0.02791199 0.07284482 0.00871314
v -0.02664955 0.07426795 0.00765969
v -0.02689813 0.03464423 -0.02269587
v -0.02376662 0.03318627 -0.02404827
v -0.02372632 0.03588823 -0.02566167
v -0.02778558 0.07890556 -0.01218982
v -0.02372632 0.07262090 -0.02092113
v -0.02447208 0.07049616 -0.02270061
v -0.02697534 0.06815745 -0.02349782
v -0.02727059 0.05146304 -0.02946738
v -0.02727059 0.04893524 -0.02938671
v -0.02749288 0.03984413 -0.02568539
v -0.02777158 0.03249959 -0.02001953
v -0.02777370 0.02975782 -0.01696357
v -0.02571798 0.02913085 -0.01889490
v -0.02729774 0.03019073 0.00984726
v -0.02774486 0.03290264 0.01178808
v -0.02781231 0.03483830 0.01319743
v -0.02372632 0.07779095 -0.00756317
v -0.02609935 0.07891551 -0.01012088
v -0.02372632 0.03888377 -0.02721338
v -0.02577992 0.04084430 -0.02726557
v -0.02372632 0.07425302 -0.01814515
v -0.02404023 0.05602601 -0.02933452
v -0.02462946 0.06819228 -0.02412894
v -0.02654265 0.05479197 -0.02900709
v -0.02435415 0.05299564 -0.03005580
v -0.02437621 0.04987570 -0.03019341
v -0.02435669 0.04739269 -0.03001309
v -0.02391679 0.04383487 -0.02919690
v -0.02372632 0.07732818 -0.01059066
f 1 2 3
f 1 3 4
f 1 4 5
f 1 5 6
f 1 6 7
f 1 7 8
f 1 8 9
f 1 9 10
f 1 10 2
f 2 11 12
f 2 12 13
f 2 13 3
f 2 10 14
f 2 14 38
f 2 38 54
f 2 54 40
f 2 40 56
f 2 56 64
f 2 64 52
f 2 52 31
f 2 31 11
f 3 15 16
f 3 16 17
f 3 17 4
f 3 13 18
f 3 18 15
f 4 17 16
f 4 16 5
f 5 16 15
f 5 15 6
f 6 15 12
f 6 12 19
f 6 19 20
f 6 20 21
f 6 21 7
f 7 21 22
f 7 22 23
f 7 23 24
f 7 24 9
f 7 9 8
f 9 24 25
f 9 25 10
f 10 25 26
f 10 26 23
f 10 23 22
f 10 22 27
f 10 27 28
f 10 28 29
f 10 29 30
f 10 30 14
f 11 31 32
f 11 32 12
f 12 32 33
f 12 33 19
f 12 15 34
f 12 34 35
f 12 35 13
f 13 35 18
f 14 30 36
f 14 36 37
f 14 37 38
f 15 18 34
f 18 35 34
f 19 33 39
f 19 39 40
f 19 40 41
f 19 41 42
f 19 42 43
f 19 43 20
f 20 44 45
f 20 45 37
f 20 37 36
f 20 36 46
f 20 46 47
f 20 47 21
f 20 43 44
f 21 47 48
f 21 48 29
f 21 29 49
f 21 49 50
f 21 50 51
f 21 51 22
f 22 51 27
f 23 26 25
f 23 25 24
f 27 51 28
f 28 51 29
f 29 51 50
f 29 50 49
f 29 48 30
f 30 48 46
f 30 46 36
f 31 52 32
f 32 52 53
f 32 53 33
f 33 53 39
f 37 45 38
f 38 45 55
f 38 55 54
f 39 53 56
f 39 56 40
f 40 57 58
f 40 58 41
f 40 54 57
f 41 58 42
f 42 58 57
f 42 57 59
f 42 59 43
f 43 59 60
f 43 60 61
f 43 61 44
f 44 61 62
f 44 62 63
f 44 63 55
f 44 55 45
f 46 48 47
f 52 64 53
f 53 64 56
f 54 55 63
f 54 63 57
f 57 60 59
f 57 63 61
f 57 61 60
f 61 63 62

