# https://github.com/mikedh/trimesh
v -0.03755367 -0.06052220 0.00452123
v -0.03755367 -0.06356390 0.00434277
v -0.03755367 -0.06055932 -0.02793059
v -0.03777132 -0.05797747 0.00400607
v -0.03996375 -0.05797208 0.00400270
v -0.05211169 -0.06408842 0.00194205
v -0.04559787 -0.06408842 -0.02987676
v -0.03755367 -0.06345912 -0.02807538
v -0.03810914 -0.05805171 -0.02782285
v -0.04087972 -0.05797208 -0.02798110
v -0.04163698 -0.05797208 0.00358518
v -0.04896701 -0.05797208 0.00148076
v -0.05358313 -0.06343517 0.00123834
v -0.05594334 -0.06377407 -0.00044183
v -0.05816752 -0.06408842 -0.00380217
v -0.05337228 -0.06344296 -0.02736829
v -0.04850223 -0.06345912 -0.02969157
v -0.04942726 -0.06089942 -0.02896765
v -0.04390877 -0.05797208 -0.02805517
v -0.05634465 -0.06403393 -0.02194731
v -0.06065243 -0.05802477 -0.01291683
v -0.05501377 -0.05801219 -0.00156307
v -0.05324758 -0.05822176 -0.00038796
v -0.05501377 -0.06146046 -0.00008829
v -0.04619416 -0.05797208 -0.02793733
v -0.05659858 -0.06282983 -0.00095699
v -0.05753949 -0.06345912 -0.00226005
v -0.05918551 -0.06198377 -0.00469781
v -0.05932155 -0.06337350 -0.00652949
v -0.05881369 -0.06398184 -0.01134777
v -0.05463060 -0.06342559 -0.02606187
v -0.05587079 -0.06010367 -0.02552987
v -0.05332693 -0.06071680 -0.02744574
v -0.05170358 -0.06306574 -0.02860738
v -0.05148139 -0.06132873 -0.02857370
v -0.05424290 -0.05848461 -0.02593729
v -0.05907215 -0.06329447 -0.01365085
v -0.05714272 -0.06368426 -0.02014256
v -0.05905175 -0.06172092 -0.01849270
v -0.05773674 -0.06204485 -0.02200455
v -0.05590707 -0.06320704 -0.02435477
v -0.06071137 -0.06056352 -0.01135787
v -0.06063656 -0.05810679 -0.01081914
v -0.06005614 -0.05806010 -0.00812885
v -0.05580731 -0.05808764 -0.02472178
v -0.05924900 -0.05813075 -0.01959710
v -0.05983622 -0.05813075 -0.01740850
v -0.06055266 -0.05891812 -0.01465760
v -0.06064336 -0.06044616 -0.01317609
v -0.05585492 -0.05958274 -0.00138124
v -0.05917191 -0.05809003 -0.00601097
v -0.05791812 -0.05813075 -0.00411867
v -0.05700895 -0.05887321 -0.00274491
v -0.05739892 -0.06131556 -0.00198395
v -0.06013549 -0.06055932 -0.00681570
v -0.05919005 -0.05982225 -0.00464057
v -0.06061162 -0.06034676 -0.00920968
v -0.05940997 -0.06342200 -0.00894032
v -0.05972059 -0.06282983 -0.01135787
v -0.05750095 -0.06051023 -0.02336485
v -0.05770046 -0.05818224 -0.02265776
v -0.05973192 -0.05980309 -0.01816272
v -0.05896786 -0.06039047 -0.02026714
v -0.05839424 -0.05980309 -0.02194731
f 1 2 8
f 1 8 3
f 1 3 4
f 1 4 5
f 1 5 6
f 1 6 2
f 2 6 7
f 2 7 8
f 3 8 7
f 3 7 9
f 3 9 4
f 4 9 10
f 4 10 5
f 5 11 6
f 5 10 19
f 5 19 25
f 5 25 12
f 5 12 11
f 6 11 12
f 6 12 13
f 6 13 14
f 6 14 15
f 6 15 7
f 7 16 17
f 7 17 18
f 7 18 19
f 7 19 10
f 7 10 9
f 7 15 20
f 7 20 16
f 12 21 22
f 12 22 23
f 12 23 24
f 12 24 13
f 12 25 21
f 13 24 26
f 13 26 14
f 14 26 27
f 14 27 15
f 15 28 29
f 15 29 30
f 15 30 20
f 15 27 28
f 16 31 32
f 16 32 33
f 16 33 34
f 16 34 17
f 16 20 31
f 17 34 35
f 17 35 18
f 18 35 36
f 18 36 25
f 18 25 19
f 20 37 38
f 20 38 39
f 20 39 40
f 20 40 41
f 20 41 31
f 20 30 37
f 21 42 43
f 21 43 44
f 21 44 22
f 21 25 45
f 21 45 46
f 21 46 47
f 21 47 48
f 21 48 49
f 21 49 42
f 22 50 23
f 22 44 51
f 22 51 52
f 22 52 53
f 22 53 50
f 23 50 24
f 24 50 54
f 24 54 26
f 25 36 45
f 26 54 27
f 27 54 28
f 28 55 29
f 28 54 56
f 28 56 55
f 29 55 57
f 29 57 42
f 29 42 58
f 29 58 30
f 30 58 59
f 30 59 37
f 31 41 60
f 31 60 32
f 32 60 61
f 32 61 45
f 32 45 36
f 32 36 33
f 33 36 35
f 33 35 34
f 37 39 38
f 37 59 39
f 39 59 49
f 39 49 62
f 39 62 63
f 39 63 40
f 40 64 60
f 40 60 41
f 40 63 64
f 42 57 43
f 42 49 59
f 42 59 58
f 43 57 55
f 43 55 44
f 44 55 56
f 44 56 51
f 45 61 46
f 46 62 47
f 46 61 64
f 46 64 62
f 47 62 48
f 48 62 49
f 50 53 54
f 51 56 52
f 52 56 53
f 53 56 54
f 60 64 61
f 62 64 63

