# https://github.com/mikedh/trimesh
v -0.02715809 -0.09133918 -0.00832977
v -0.02715809 -0.09132988 -0.00984233
v -0.02498144 -0.09120703 -0.00984233
v -0.02588681 -0.09112141 -0.00681406
v -0.02782224 -0.09115677 -0.00681406
v -0.02782224 -0.09099855 -0.01221651
v -0.02649394 -0.09114932 -0.01286745
v -0.02424017 -0.09079194 -0.00830461
v -0.02498144 -0.09111023 -0.01135174
v -0.02385702 -0.09058533 -0.01373851
v -0.02396122 -0.09075471 -0.01084231
v -0.02529814 -0.09068026 -0.00557194
v -0.02673638 -0.09075285 -0.00466314
v -0.02666172 -0.08933448 -0.00196821
v -0.02780870 -0.08657406 0.00108836
v -0.02782224 -0.08535486 0.00177389
v -0.02782224 -0.08995990 -0.01740827
v -0.02723972 -0.09081055 -0.01467246
v -0.02510451 -0.09080683 -0.01494604
v -0.02407731 -0.09039733 -0.00687381
v -0.02363140 -0.09012557 -0.01597118
v -0.02366422 -0.08968256 -0.00555307
v -0.02373847 -0.08906272 -0.00416944
v -0.02515005 -0.08943127 -0.00321977
v -0.02461060 -0.08796637 -0.00188016
v -0.02663793 -0.08743960 -0.00005314
v -0.02379713 -0.08268750 0.00155062
v -0.02363140 -0.08119095 0.00219526
v -0.02782224 -0.08393276 0.00238709
v -0.02680899 -0.08944058 -0.01943026
v -0.02649394 -0.09027820 -0.01740827
v -0.02782224 -0.08693330 -0.02330443
v -0.02498144 -0.09019258 -0.01740827
v -0.02371755 -0.08942941 -0.01808437
v -0.02363140 -0.08808736 -0.02046799
v -0.02368514 -0.08625948 -0.00105312
v -0.02502944 -0.08663176 -0.00041162
v -0.02371919 -0.08459355 0.00026447
v -0.02363140 -0.07662127 0.00402858
v -0.02364945 -0.07848265 0.00335877
v -0.02782224 -0.08221843 0.00296255
v -0.02504913 -0.08924886 -0.01961579
v -0.02715809 -0.08790122 -0.02201199
v -0.02782224 -0.08593747 -0.02445222
v -0.02649394 -0.08687560 -0.02334531
v -0.02420079 -0.08728696 -0.02176042
v -0.02456589 -0.08650333 -0.02289877
v -0.02363140 -0.07935377 -0.02532956
v -0.02363140 -0.07411214 0.00476441
v -0.02498144 -0.07797077 0.00383046
v -0.02782224 -0.07929793 0.00372355
v -0.02723931 -0.08404817 -0.02573207
v -0.02601192 -0.08539953 -0.02438618
v -0.02782224 -0.08254604 -0.02665659
v -0.02615181 -0.08260002 -0.02584213
v -0.02363140 -0.07736769 -0.02580125
v -0.02436734 -0.07232335 0.00513548
v -0.02715809 -0.07792610 0.00400656
v -0.02363140 -0.07287804 -0.02609685
v -0.02735541 -0.07232335 0.00494051
v -0.02782224 -0.07948593 -0.02696791
v -0.02782224 -0.08096945 -0.02698363
v -0.02363140 -0.07494417 -0.02601823
v -0.02710271 -0.07232335 -0.02671005
f 1 2 3
f 1 3 4
f 1 4 5
f 1 5 2
f 2 5 6
f 2 6 7
f 2 7 3
f 3 8 4
f 3 7 9
f 3 9 10
f 3 10 11
f 3 11 8
f 4 12 13
f 4 13 5
f 4 8 12
f 5 13 14
f 5 14 15
f 5 15 16
f 5 16 29
f 5 29 41
f 5 41 51
f 5 51 61
f 5 61 62
f 5 62 54
f 5 54 44
f 5 44 32
f 5 32 17
f 5 17 6
f 6 17 18
f 6 18 7
f 7 18 19
f 7 19 9
f 8 20 12
f 8 11 20
f 9 19 10
f 10 19 21
f 10 21 11
f 11 21 22
f 11 22 20
f 12 20 22
f 12 22 23
f 12 23 24
f 12 24 13
f 13 24 14
f 14 24 25
f 14 25 26
f 14 26 15
f 15 26 27
f 15 27 16
f 16 27 28
f 16 28 29
f 17 30 31
f 17 31 18
f 17 32 30
f 18 31 19
f 19 31 33
f 19 33 21
f 21 33 34
f 21 34 35
f 21 35 48
f 21 48 56
f 21 56 63
f 21 63 59
f 21 59 49
f 21 49 39
f 21 39 28
f 21 28 22
f 22 28 36
f 22 36 23
f 23 36 25
f 23 25 24
f 25 36 37
f 25 37 26
f 26 38 27
f 26 37 38
f 27 38 28
f 28 39 40
f 28 40 29
f 28 38 36
f 29 40 39
f 29 39 41
f 30 42 33
f 30 33 31
f 30 32 43
f 30 43 42
f 32 44 45
f 32 45 43
f 33 42 34
f 34 42 35
f 35 42 45
f 35 45 46
f 35 46 47
f 35 47 48
f 36 38 37
f 39 49 50
f 39 50 41
f 41 50 49
f 41 49 51
f 42 43 45
f 44 52 53
f 44 53 45
f 44 54 52
f 45 53 47
f 45 47 46
f 47 53 55
f 47 55 48
f 48 55 56
f 49 57 58
f 49 58 51
f 49 59 57
f 51 58 60
f 51 60 61
f 52 54 55
f 52 55 53
f 54 62 56
f 54 56 55
f 56 62 63
f 57 60 58
f 57 59 64
f 57 64 60
f 59 63 62
f 59 62 61
f 59 61 64
f 60 64 61

