# https://github.com/mikedh/trimesh
v -0.03626578 0.06599200 0.00418735
v -0.04040372 0.06599200 0.00140928
v -0.04006927 0.06599200 -0.01649161
v -0.03710970 0.06635190 -0.01831458
v -0.03626578 0.06964524 -0.01866128
v -0.03626578 0.07320972 0.00328369
v -0.03647385 0.07098377 0.00379815
v -0.03668191 0.06885641 0.00393459
v -0.05223030 0.08251043 -0.00231719
v -0.05457345 0.07878571 -0.00324992
v -0.05316173 0.07701086 -0.00290098
v -0.04233075 0.06599200 -0.00072460
v -0.04159766 0.06599200 -0.01489903
v -0.05160417 0.07559098 -0.01679358
v -0.05310923 0.07812260 -0.01748921
v -0.05071552 0.08023763 -0.01857181
v -0.04731650 0.08522693 -0.01815130
v -0.04409637 0.08743070 -0.01772184
v -0.03853698 0.08463778 -0.01673318
v -0.03626578 0.08219736 -0.01630149
v -0.03626578 0.08028693 0.00001353
v -0.04245714 0.08705108 -0.00154326
v -0.04691398 0.08853998 -0.00178036
v -0.05425066 0.08218996 -0.00317611
v -0.05591711 0.08022531 -0.00395674
v -0.05612907 0.07914807 -0.00609062
v -0.05454428 0.07717601 -0.00605036
v -0.04330884 0.06599200 -0.00299269
v -0.04246881 0.06599200 -0.01295528
v -0.04302105 0.06599200 -0.01060219
v -0.05475623 0.07875859 -0.01513613
v -0.05244225 0.08157370 -0.01830340
v -0.04792708 0.08759339 -0.01713580
v -0.04558199 0.08960982 -0.01664148
v -0.04162683 0.08809627 -0.01671753
v -0.03692497 0.08445043 -0.01536652
v -0.03645829 0.08433704 -0.01286581
v -0.03626578 0.08306014 -0.00378675
v -0.03695998 0.08311683 -0.00174681
v -0.03897839 0.08443071 -0.00131959
v -0.04432777 0.08895411 -0.00219640
v -0.04730872 0.09057366 -0.00325887
v -0.04927074 0.08919076 -0.00333044
v -0.05331729 0.08444057 -0.00382253
v -0.05583350 0.08195085 -0.00624496
v -0.05599490 0.08002071 -0.00901856
v -0.04340801 0.06599200 -0.00756913
v -0.04352468 0.06599200 -0.00520933
v -0.05462595 0.08170681 -0.01486772
v -0.05315200 0.08285307 -0.01677568
v -0.04751290 0.08949396 -0.01500192
v -0.04950214 0.08752191 -0.01513613
v -0.04522030 0.09089906 -0.01354131
v -0.04241047 0.08969856 -0.01497508
v -0.04236380 0.08863612 -0.00351833
v -0.04541670 0.09111104 -0.00471724
v -0.04787069 0.09090891 -0.00530104
v -0.05441011 0.08392537 -0.00681534
v -0.05425649 0.08304288 -0.01210978
v -0.05297116 0.08400918 -0.01438010
v -0.04825570 0.08942001 -0.01253029
v -0.04659508 0.09107900 -0.01006760
v -0.05117443 0.08596645 -0.01438010
v -0.04555087 0.09117514 -0.00756913
f 1 2 12
f 1 12 28
f 1 28 48
f 1 48 47
f 1 47 30
f 1 30 29
f 1 29 13
f 1 13 3
f 1 3 4
f 1 4 5
f 1 5 20
f 1 20 38
f 1 38 21
f 1 21 6
f 1 6 7
f 1 7 8
f 1 8 9
f 1 9 10
f 1 10 11
f 1 11 2
f 2 11 12
f 3 13 14
f 3 14 4
f 4 14 15
f 4 15 16
f 4 16 5
f 5 16 17
f 5 17 18
f 5 18 19
f 5 19 20
f 6 21 22
f 6 22 23
f 6 23 7
f 7 23 9
f 7 9 8
f 9 24 10
f 9 23 24
f 10 25 11
f 10 24 25
f 11 25 26
f 11 26 27
f 11 27 28
f 11 28 12
f 13 29 14
f 14 29 30
f 14 30 27
f 14 27 31
f 14 31 15
f 15 31 32
f 15 32 16
f 16 32 17
f 17 33 18
f 17 32 33
f 18 34 35
f 18 35 19
f 18 33 34
f 19 35 36
f 19 36 20
f 20 36 37
f 20 37 38
f 21 38 39
f 21 39 40
f 21 40 22
f 22 40 41
f 22 41 23
f 23 41 42
f 23 42 43
f 23 43 24
f 24 43 44
f 24 44 25
f 25 44 45
f 25 45 26
f 26 45 46
f 26 46 31
f 26 31 27
f 27 30 47
f 27 47 48
f 27 48 28
f 31 46 49
f 31 49 32
f 32 49 50
f 32 50 33
f 33 51 34
f 33 50 52
f 33 52 51
f 34 53 54
f 34 54 35
f 34 51 53
f 35 54 36
f 36 54 37
f 37 54 55
f 37 55 38
f 38 55 39
f 39 55 40
f 40 55 41
f 41 55 56
f 41 56 42
f 42 56 57
f 42 57 43
f 43 57 58
f 43 58 44
f 44 58 45
f 45 49 46
f 45 58 59
f 45 59 49
f 49 59 60
f 49 60 50
f 50 60 52
f 51 52 61
f 51 61 62
f 51 62 53
f 52 60 63
f 52 63 61
f 53 62 64
f 53 64 54
f 54 64 56
f 54 56 55
f 56 64 57
f 57 64 62
f 57 62 61
f 57 61 58
f 58 61 63
f 58 63 60
f 58 60 59

