# https://github.com/mikedh/trimesh
v 0.00032793 -0.02322391 -0.02094627
v -0.01507960 -0.02322391 -0.02094627
v 0.00032793 -0.03002149 -0.02094627
v 0.00032793 -0.02377653 -0.04864571
v -0.00690830 -0.02322391 -0.04884352
v -0.01496046 -0.03030729 -0.02132123
v -0.01365438 -0.03066051 -0.02094627
v -0.01507960 -0.02322391 -0.04806409
v -0.01507960 -0.02594332 -0.05075668
v -0.00280908 -0.03059879 -0.02094627
v 0.00032793 -0.03102702 -0.02758622
v 0.00032793 -0.03280737 -0.04757694
v 0.00013941 -0.03079914 -0.05104897
v -0.00860500 -0.02322391 -0.04893209
v -0.01475384 -0.03043738 -0.02754489
v -0.01501174 -0.02953534 -0.04837409
v -0.01496649 -0.03003858 -0.04370930
v -0.01487600 -0.03037661 -0.03057996
v -0.01166962 -0.03104317 -0.02189694
v -0.00970597 -0.03113907 -0.02168437
v -0.00623113 -0.03098240 -0.02129761
v -0.00435798 -0.03078585 -0.02094627
v -0.01034996 -0.03166320 -0.04379787
v -0.00743164 -0.03229653 -0.04347901
v -0.01168621 -0.02322391 -0.04865457
v -0.01030321 -0.02322391 -0.04886419
v -0.01060937 -0.02928277 -0.05110802
v -0.01422899 -0.02818987 -0.05100764
v -0.01442506 -0.02929701 -0.05001563
v 0.00032793 -0.03177429 -0.03268207
v 0.00032793 -0.03286339 -0.04498178
v -0.00169906 -0.03292321 -0.04498178
v -0.00392664 -0.03277698 -0.04731713
v -0.00127376 -0.03269437 -0.04880514
v 0.00013941 -0.03260322 -0.04927457
v -0.00679217 -0.03082193 -0.05101354
v -0.00004912 -0.03220252 -0.05047620
v -0.00526892 -0.03148089 -0.05083935
v -0.01472820 -0.03044877 -0.02889119
v -0.01182797 -0.03066526 -0.04920962
v -0.01285354 -0.03070039 -0.04730827
v -0.01288068 -0.03087036 -0.04399273
v -0.01331051 -0.03082288 -0.03988889
v -0.00594307 -0.03253486 -0.04370930
v -0.00424637 -0.03271716 -0.04370930
v -0.00148641 -0.03264690 -0.03904155
v -0.00764731 -0.03114382 -0.02189694
v -0.00594307 -0.03123022 -0.02334658
v -0.00413627 -0.03141822 -0.02618974
v -0.01134385 -0.03123022 -0.04752675
v -0.00841195 -0.03207624 -0.04765371
v -0.00836369 -0.03063488 -0.05095449
v -0.01138909 -0.02989805 -0.05078325
v -0.00985679 -0.03061968 -0.05055592
v -0.00865628 -0.03134796 -0.05008353
v -0.00042465 -0.03203921 -0.03437675
v 0.00013941 -0.03241332 -0.03807316
v 0.00032793 -0.03274945 -0.04264938
v -0.00469581 -0.03229178 -0.05000677
v -0.00318461 -0.03233831 -0.05000972
v -0.00169906 -0.03223860 -0.05033744
v -0.00679217 -0.03145051 -0.05062382
v -0.01012977 -0.03151033 -0.04810837
v -0.00721597 -0.03189108 -0.04965248
f 1 2 7
f 1 7 22
f 1 22 10
f 1 10 3
f 1 3 11
f 1 11 30
f 1 30 58
f 1 58 31
f 1 31 12
f 1 12 4
f 1 4 5
f 1 5 14
f 1 14 26
f 1 26 25
f 1 25 8
f 1 8 2
f 2 6 7
f 2 8 9
f 2 9 6
f 3 10 11
f 4 12 13
f 4 13 9
f 4 9 5
f 5 9 14
f 6 15 7
f 6 9 16
f 6 16 17
f 6 17 18
f 6 18 15
f 7 19 20
f 7 20 21
f 7 21 22
f 7 15 23
f 7 23 24
f 7 24 19
f 8 25 9
f 9 25 26
f 9 26 14
f 9 13 27
f 9 27 28
f 9 28 29
f 9 29 16
f 10 22 30
f 10 30 11
f 12 31 32
f 12 32 33
f 12 33 34
f 12 34 35
f 12 35 13
f 13 36 27
f 13 35 37
f 13 37 38
f 13 38 36
f 15 39 23
f 15 18 39
f 16 29 40
f 16 40 41
f 16 41 17
f 17 41 42
f 17 42 43
f 17 43 18
f 18 43 39
f 19 24 44
f 19 44 45
f 19 45 46
f 19 46 20
f 20 47 21
f 20 46 47
f 21 47 48
f 21 48 22
f 22 48 49
f 22 49 30
f 23 39 43
f 23 43 42
f 23 42 50
f 23 50 51
f 23 51 24
f 24 51 44
f 27 36 52
f 27 52 28
f 28 52 53
f 28 53 29
f 29 53 54
f 29 54 55
f 29 55 40
f 30 56 57
f 30 57 58
f 30 49 56
f 31 58 46
f 31 46 32
f 32 46 45
f 32 45 33
f 33 51 59
f 33 59 34
f 33 45 44
f 33 44 51
f 34 59 60
f 34 60 35
f 35 60 61
f 35 61 37
f 36 38 52
f 37 61 38
f 38 61 59
f 38 59 62
f 38 62 52
f 40 63 50
f 40 50 41
f 40 55 63
f 41 50 42
f 46 58 57
f 46 57 49
f 46 49 48
f 46 48 47
f 49 57 56
f 50 63 51
f 51 63 64
f 51 64 59
f 52 62 54
f 52 54 53
f 54 62 55
f 55 59 64
f 55 64 63
f 55 62 59
f 59 61 60

