# https://github.com/mikedh/trimesh
v 0.02159426 -0.00010847 -0.02094897
v 0.00032793 -0.00010847 -0.02094897
v 0.02159426 -0.01652476 -0.02094897
v 0.02159426 -0.00010847 -0.04698370
v 0.00032793 -0.01652476 -0.02094897
v 0.00032793 -0.00010847 -0.04720534
v 0.02159426 -0.01652476 -0.04761889
v 0.02159426 -0.01010449 -0.04828381
v 0.01960835 -0.00010847 -0.04756753
v 0.00032793 -0.01652476 -0.04727291
v 0.01909626 -0.00010847 -0.04759727
v 0.02159426 -0.01060911 -0.04834868
v 0.02129450 -0.01113302 -0.04837571
v 0.01824693 -0.01652476 -0.04855951
v 0.01909834 -0.01652476 -0.04844869
v 0.01956255 -0.01619692 -0.04839463
v 0.02037232 -0.01528249 -0.04838112
v 0.02126744 -0.01367702 -0.04840274
v 0.02159426 -0.01315472 -0.04832706
v 0.02159426 -0.01143033 -0.04838923
v 0.02159426 -0.01150104 -0.04839193
v 0.01909626 -0.01570194 -0.04852978
v 0.01876735 -0.01652476 -0.04849735
v 0.01907336 -0.01652476 -0.04845680
v 0.01988521 -0.01561998 -0.04842977
v 0.02048681 -0.01485340 -0.04841896
v 0.01994558 -0.01485340 -0.04849735
v 0.02135903 -0.01315472 -0.04841896
v 0.02159426 -0.01230619 -0.04839193
v 0.02159426 -0.01172282 -0.04839734
v 0.02147560 -0.01230619 -0.04840815
f 1 2 5
f 1 5 3
f 1 3 7
f 1 7 19
f 1 19 29
f 1 29 30
f 1 30 21
f 1 21 20
f 1 20 12
f 1 12 8
f 1 8 4
f 1 4 9
f 1 9 11
f 1 11 6
f 1 6 2
f 2 6 10
f 2 10 5
f 3 5 10
f 3 10 14
f 3 14 23
f 3 23 24
f 3 24 15
f 3 15 7
f 4 8 9
f 6 11 12
f 6 12 13
f 6 13 14
f 6 14 10
f 7 15 16
f 7 16 17
f 7 17 18
f 7 18 19
f 8 12 9
f 9 12 11
f 12 20 13
f 13 20 21
f 13 21 14
f 14 21 22
f 14 22 23
f 15 24 16
f 16 24 17
f 17 24 25
f 17 25 26
f 17 26 18
f 18 26 27
f 18 27 28
f 18 28 19
f 19 28 29
f 21 30 27
f 21 27 22
f 22 27 23
f 23 27 24
f 24 27 25
f 25 27 26
f 27 30 31
f 27 31 28
f 28 31 30
f 28 30 29

