# https://github.com/mikedh/trimesh
v -0.00968630 0.02995296 0.04616870
v -0.00968630 0.03056635 0.04974298
v -0.00968630 0.03279938 0.04920977
v -0.00923147 0.03241903 0.04616870
v 0.01060458 0.02966144 0.04616870
v 0.01060458 0.03016635 0.04965363
v -0.00968630 0.03102260 0.05053083
v 0.01060458 0.03055564 0.05060728
v -0.00968630 0.03219046 0.05059677
v -0.00842110 0.03311724 0.04981130
v -0.00841713 0.03316143 0.04875111
v -0.00754917 0.03286635 0.04616870
v 0.00944664 0.03233465 0.04616870
v 0.01060458 0.03189001 0.04616966
v 0.01018153 0.03153153 0.05088678
v -0.00127281 0.03267795 0.05104970
v 0.01060458 0.03240697 0.04993313
v -0.00326893 0.03331143 0.05089108
v -0.00678846 0.03328376 0.05035549
v -0.00551531 0.03375920 0.04965363
v -0.00636540 0.03360875 0.04922936
v -0.00721350 0.03345117 0.04880509
v -0.00622239 0.03316010 0.04616870
v 0.00976046 0.03275563 0.04880509
v 0.01060458 0.03248867 0.04880796
v 0.00716054 0.03293465 0.04616870
v 0.00721416 0.03238733 0.05098568
v 0.00943869 0.03218644 0.05074297
v 0.00830657 0.03229358 0.05094889
v 0.00000232 0.03355697 0.05090207
v -0.00212092 0.03352706 0.05087866
v 0.00448316 0.03312081 0.05093503
v 0.00976046 0.03273510 0.04965363
v 0.00737703 0.03326054 0.04999811
v 0.00593903 0.03337929 0.05043289
v -0.00338413 0.03402929 0.04997136
v -0.00551531 0.03375608 0.04880509
v -0.00450037 0.03393108 0.04944580
v -0.00462153 0.03348108 0.04616870
v 0.00721416 0.03339001 0.04880509
v 0.00851512 0.03308331 0.04918732
v 0.00343842 0.03368063 0.04616870
v -0.00127281 0.03382438 0.05063021
v 0.00254464 0.03404759 0.05029195
v 0.00127149 0.03407572 0.05034976
v 0.00636408 0.03357126 0.04922936
v 0.00402435 0.03397036 0.04984474
v -0.00212092 0.03412572 0.04998951
v -0.00127281 0.03422215 0.04965363
v -0.00336626 0.03403242 0.04865077
v -0.00337023 0.03368465 0.04616870
v 0.00509093 0.03375250 0.04880509
v 0.00169058 0.03386590 0.04616870
v 0.00327754 0.03400072 0.04869807
v 0.00296968 0.03410786 0.04965363
v 0.00127149 0.03421634 0.04965363
v 0.00000232 0.03417527 0.05000862
v 0.00084843 0.03421724 0.04880509
v -0.00042273 0.03421768 0.04880509
v -0.00169587 0.03416858 0.04880509
v -0.00210304 0.03384224 0.04616870
v 0.00022676 0.03392170 0.04616870
v 0.00212158 0.03416099 0.04922936
v -0.00074449 0.03390965 0.04616870
f 1 2 7
f 1 7 9
f 1 9 3
f 1 3 4
f 1 4 12
f 1 12 23
f 1 23 39
f 1 39 51
f 1 51 61
f 1 61 64
f 1 64 62
f 1 62 53
f 1 53 42
f 1 42 26
f 1 26 13
f 1 13 5
f 1 5 6
f 1 6 2
f 2 6 8
f 2 8 7
f 3 9 10
f 3 10 11
f 3 11 4
f 4 11 12
f 5 13 14
f 5 14 25
f 5 25 17
f 5 17 8
f 5 8 6
f 7 8 15
f 7 15 16
f 7 16 9
f 8 17 15
f 9 16 18
f 9 18 19
f 9 19 10
f 10 19 20
f 10 20 21
f 10 21 22
f 10 22 11
f 11 22 12
f 12 22 23
f 13 24 25
f 13 25 14
f 13 26 24
f 15 27 16
f 15 17 28
f 15 28 29
f 15 29 27
f 16 30 31
f 16 31 18
f 16 27 32
f 16 32 30
f 17 25 33
f 17 33 34
f 17 34 35
f 17 35 28
f 18 31 19
f 19 31 36
f 19 36 20
f 20 37 21
f 20 36 38
f 20 38 37
f 21 37 22
f 22 37 39
f 22 39 23
f 24 26 40
f 24 40 41
f 24 41 33
f 24 33 25
f 26 42 40
f 27 29 32
f 28 35 29
f 29 35 32
f 30 43 31
f 30 32 44
f 30 44 45
f 30 45 43
f 31 43 36
f 32 35 44
f 33 41 34
f 34 41 46
f 34 46 47
f 34 47 35
f 35 47 44
f 36 43 48
f 36 48 49
f 36 49 38
f 37 38 50
f 37 50 51
f 37 51 39
f 38 49 50
f 40 42 52
f 40 52 46
f 40 46 41
f 42 53 54
f 42 54 52
f 43 45 48
f 44 55 56
f 44 56 45
f 44 47 55
f 45 56 57
f 45 57 48
f 46 52 47
f 47 52 55
f 48 57 49
f 49 57 56
f 49 56 58
f 49 58 59
f 49 59 60
f 49 60 50
f 50 61 51
f 50 60 61
f 52 54 55
f 53 62 58
f 53 58 63
f 53 63 54
f 54 63 55
f 55 63 56
f 56 63 58
f 58 62 59
f 59 64 60
f 59 62 64
f 60 64 61

