# https://github.com/mikedh/trimesh
v -0.00859118 -0.00025900 0.04625444
v -0.00487806 -0.00021418 0.04684772
v -0.00444220 -0.00021418 0.04621226
v -0.00830905 -0.00128197 0.04616881
v -0.00760590 -0.00248310 0.04664625
v -0.00838067 -0.00031992 0.04654739
v -0.00796228 -0.00031992 0.04687078
v -0.00721372 -0.00031992 0.04713128
v -0.00636558 -0.00031992 0.04725939
v -0.00551569 -0.00031992 0.04717324
v 0.00033219 -0.00723357 0.04677736
v 0.00033219 -0.00667497 0.04618685
v 0.00033219 -0.01195647 0.04616881
v -0.00656909 -0.00635658 0.04616881
v -0.00771509 -0.00191644 0.04676006
v -0.00622669 -0.00719909 0.04623159
v -0.00598474 -0.00689565 0.04671896
v -0.00781379 -0.00127392 0.04683106
v -0.00721372 -0.00127392 0.04707576
v -0.00636558 -0.00212218 0.04719704
v -0.00636558 -0.00127392 0.04723313
v -0.00551569 -0.00297159 0.04724818
v -0.00466755 -0.00381985 0.04723164
v 0.00033219 -0.00891170 0.04704811
v 0.00033219 -0.00806344 0.04702644
v 0.00033219 -0.01153809 0.04645440
v -0.00025566 -0.01108292 0.04671117
v -0.00045132 -0.01183693 0.04616881
v -0.00613323 -0.00755081 0.04616881
v -0.00607733 -0.00636578 0.04678259
v -0.00551569 -0.00636578 0.04695416
v -0.00597863 -0.00788643 0.04616881
v -0.00581267 -0.00746116 0.04660056
v -0.00510953 -0.00851861 0.04669344
v -0.00636558 -0.00297159 0.04713416
v -0.00551569 -0.00381985 0.04721690
v -0.00466755 -0.00466926 0.04721712
v -0.00297215 -0.00636578 0.04714847
v -0.00212226 -0.00721403 0.04711259
v -0.00127412 -0.00806344 0.04706210
v 0.00033219 -0.01064500 0.04683309
v 0.00033219 -0.01112200 0.04673327
v -0.00318091 -0.01004501 0.04667284
v -0.00082079 -0.01101166 0.04668031
v -0.00127412 -0.01145763 0.04631721
v -0.00049324 -0.01140246 0.04646284
v -0.00202531 -0.01148866 0.04616881
v -0.00551569 -0.00551867 0.04706551
v -0.00466755 -0.00636578 0.04705687
v -0.00427536 -0.00939100 0.04669280
v -0.00466755 -0.00721403 0.04694391
v -0.00541000 -0.00894618 0.04616881
v -0.00503266 -0.00954042 0.04616881
v -0.00484137 -0.00908526 0.04657846
v -0.00551569 -0.00466926 0.04714782
v -0.00466755 -0.00551867 0.04714825
v -0.00382029 -0.00636578 0.04711654
v -0.00382029 -0.00990938 0.04663088
v -0.00212226 -0.01069672 0.04660013
v -0.00292760 -0.01053351 0.04653746
v -0.00289790 -0.01119326 0.04616881
v -0.00465445 -0.00975536 0.04631828
v -0.00444482 -0.01022432 0.04616881
v -0.00393122 -0.01064500 0.04617842
f 1 2 3
f 1 3 4
f 1 4 5
f 1 5 6
f 1 6 7
f 1 7 8
f 1 8 2
f 2 8 9
f 2 9 10
f 2 10 11
f 2 11 12
f 2 12 3
f 3 12 4
f 4 12 13
f 4 13 28
f 4 28 47
f 4 47 61
f 4 61 63
f 4 63 53
f 4 53 52
f 4 52 32
f 4 32 29
f 4 29 14
f 4 14 5
f 5 15 6
f 5 14 16
f 5 16 17
f 5 17 15
f 6 15 18
f 6 18 7
f 7 18 19
f 7 19 8
f 8 19 20
f 8 20 21
f 8 21 9
f 9 21 22
f 9 22 23
f 9 23 24
f 9 24 25
f 9 25 10
f 10 25 11
f 11 25 24
f 11 24 41
f 11 41 42
f 11 42 26
f 11 26 13
f 11 13 12
f 13 26 27
f 13 27 28
f 14 29 16
f 15 17 30
f 15 30 18
f 16 29 17
f 17 31 30
f 17 29 32
f 17 32 33
f 17 33 34
f 17 34 31
f 18 30 19
f 19 30 35
f 19 35 20
f 20 35 36
f 20 36 21
f 21 36 22
f 22 36 37
f 22 37 23
f 23 37 24
f 24 37 38
f 24 38 39
f 24 39 40
f 24 40 41
f 26 42 27
f 27 41 43
f 27 43 44
f 27 44 45
f 27 45 46
f 27 46 28
f 27 42 41
f 28 46 45
f 28 45 47
f 30 31 48
f 30 48 35
f 31 49 48
f 31 34 50
f 31 50 51
f 31 51 49
f 32 52 33
f 33 52 34
f 34 52 53
f 34 53 54
f 34 54 50
f 35 48 55
f 35 55 36
f 36 55 56
f 36 56 37
f 37 56 57
f 37 57 38
f 38 57 39
f 39 57 40
f 40 57 41
f 41 57 50
f 41 50 43
f 43 50 58
f 43 58 44
f 44 58 59
f 44 59 60
f 44 60 61
f 44 61 47
f 44 47 45
f 48 56 55
f 48 49 56
f 49 57 56
f 49 51 50
f 49 50 57
f 50 54 62
f 50 62 63
f 50 63 58
f 53 62 54
f 53 63 62
f 58 63 64
f 58 64 60
f 58 60 59
f 60 64 61
f 61 64 63

