# https://github.com/mikedh/trimesh
v -0.01188210 0.01530917 -0.04800640
v -0.00038669 0.01530917 -0.04732014
v -0.01370842 0.01530917 -0.04782596
v -0.01457505 0.02721725 -0.05104727
v -0.00038669 0.03064284 -0.05111530
v -0.00038669 0.01530917 -0.02094627
v -0.01457505 0.01530917 -0.02094627
v -0.01442228 0.02869648 -0.05081062
v -0.01145711 0.02928129 -0.05112713
v -0.01457505 0.03046902 -0.02461720
v -0.01450006 0.03038393 -0.03923582
v -0.00424488 0.03132180 -0.05116559
v -0.00096445 0.03255661 -0.05023085
v -0.00062418 0.03324281 -0.04772539
v -0.00040752 0.03380590 -0.02886198
v -0.00038669 0.03376969 -0.02419124
v -0.00038669 0.03372623 -0.02094627
v -0.01389591 0.03063741 -0.02094627
v -0.01308205 0.02919258 -0.05088753
v -0.01411396 0.03024633 -0.04752720
v -0.01414174 0.02984438 -0.04936119
v -0.01181960 0.03069172 -0.04977827
v -0.01027243 0.03051248 -0.05078104
v -0.00891137 0.03073156 -0.05102952
v -0.00573094 0.03133991 -0.05110051
v -0.01178071 0.03162960 -0.02189580
v -0.01291539 0.03102487 -0.04116446
v -0.01349593 0.03074966 -0.04325284
v -0.00276021 0.03243711 -0.05040241
v -0.00278660 0.03309977 -0.04822530
v -0.00093667 0.03350896 -0.04498921
v -0.00084084 0.03360311 -0.04201046
v -0.00339630 0.03353431 -0.04010253
v -0.00297271 0.03363208 -0.02249628
v -0.00254772 0.03366105 -0.02112375
v -0.00590454 0.03321565 -0.02094627
v -0.01060853 0.03197179 -0.02094627
v -0.01230569 0.03106108 -0.04710420
v -0.01300428 0.03051429 -0.04869858
v -0.01209737 0.03132180 -0.04413729
v -0.00812946 0.03164046 -0.05020422
v -0.01052104 0.03142862 -0.04883170
v -0.00564344 0.03214199 -0.05036692
v -0.00899332 0.03252764 -0.02189580
v -0.00908220 0.03251677 -0.02886198
v -0.01060853 0.03190118 -0.04116446
v -0.00424488 0.03244073 -0.05009478
v -0.00472681 0.03294769 -0.04803894
v -0.00339630 0.03342025 -0.04456029
v -0.00588649 0.03328626 -0.02928498
v -0.00382129 0.03354336 -0.02334524
v -0.00495874 0.03318306 -0.04469044
v -0.00585454 0.03308529 -0.04201046
v -0.00761420 0.03288070 -0.02112375
v -0.00509346 0.03338222 -0.02419124
v -0.01018494 0.03198628 -0.04456029
v -0.00975995 0.03190480 -0.04752720
v -0.00852944 0.03214018 -0.04842940
v -0.00662674 0.03237374 -0.04923103
v -0.00763781 0.03289699 -0.02483017
v -0.00826556 0.03253488 -0.04413433
v -0.00930303 0.03234658 -0.03861463
v -0.00679062 0.03285535 -0.04456029
v -0.00951552 0.03220717 -0.04323509
f 1 2 6
f 1 6 7
f 1 7 3
f 1 3 4
f 1 4 5
f 1 5 2
f 2 5 16
f 2 16 17
f 2 17 6
f 3 7 4
f 4 8 9
f 4 9 5
f 4 7 10
f 4 10 11
f 4 11 8
f 5 9 12
f 5 12 13
f 5 13 14
f 5 14 15
f 5 15 16
f 6 17 36
f 6 36 37
f 6 37 18
f 6 18 7
f 7 18 10
f 8 19 9
f 8 11 20
f 8 20 21
f 8 21 22
f 8 22 23
f 8 23 19
f 9 19 24
f 9 24 25
f 9 25 12
f 10 18 26
f 10 26 27
f 10 27 11
f 11 27 28
f 11 28 20
f 12 25 29
f 12 29 13
f 13 29 30
f 13 30 14
f 14 30 31
f 14 31 32
f 14 32 15
f 15 32 33
f 15 33 34
f 15 34 35
f 15 35 16
f 16 35 17
f 17 35 36
f 18 37 26
f 19 23 24
f 20 38 39
f 20 39 21
f 20 28 40
f 20 40 38
f 21 39 22
f 22 41 23
f 22 39 42
f 22 42 41
f 23 41 24
f 24 41 43
f 24 43 25
f 25 43 29
f 26 37 44
f 26 44 45
f 26 45 46
f 26 46 40
f 26 40 27
f 27 40 28
f 29 43 47
f 29 47 30
f 30 48 49
f 30 49 31
f 30 47 48
f 31 49 32
f 32 49 33
f 33 50 51
f 33 51 34
f 33 49 52
f 33 52 53
f 33 53 50
f 34 51 35
f 35 51 36
f 36 54 37
f 36 51 55
f 36 55 50
f 36 50 54
f 37 54 44
f 38 56 57
f 38 57 42
f 38 42 39
f 38 40 56
f 40 46 56
f 41 42 58
f 41 58 59
f 41 59 43
f 42 57 58
f 43 59 47
f 44 60 45
f 44 54 60
f 45 50 61
f 45 61 62
f 45 62 46
f 45 60 50
f 46 62 56
f 47 59 48
f 48 59 58
f 48 58 63
f 48 63 52
f 48 52 49
f 50 53 63
f 50 63 61
f 50 60 54
f 50 55 51
f 52 63 53
f 56 62 64
f 56 64 61
f 56 61 57
f 57 61 58
f 58 61 63
f 61 64 62

