# https://github.com/mikedh/trimesh
v -0.00971710 0.03279079 0.04920890
v -0.00972615 0.03251596 0.05039703
v -0.00968814 0.03227400 0.04616870
v -0.01092787 0.03237131 0.04868520
v -0.01230876 0.03190842 0.04922921
v -0.01107989 0.03232660 0.04979499
v -0.01333131 0.03148499 0.04998358
v -0.01422355 0.03060131 0.05096232
v -0.01229428 0.03125092 0.05096280
v -0.01019308 0.03144554 0.05085013
v -0.00987274 0.03053161 0.04995843
v -0.00968814 0.02995169 0.04616870
v -0.01229428 0.03140346 0.04616870
v -0.01358106 0.03139820 0.04880367
v -0.01521171 0.03066574 0.04971181
v -0.01766945 0.02910483 0.05035351
v -0.01708306 0.02892072 0.05096716
v -0.01315937 0.03079987 0.05107064
v -0.01134232 0.03086431 0.05101745
v -0.02619732 0.01935798 0.05036414
v -0.02570505 0.01935798 0.04950484
v -0.02418118 0.01992475 0.04616870
v -0.01315937 0.03102737 0.04616870
v -0.01519723 0.03064470 0.04875145
v -0.01688941 0.02977416 0.04930029
v -0.01983580 0.02792921 0.04977564
v -0.02070090 0.02724540 0.04995746
v -0.02132890 0.02639459 0.05071763
v -0.01400637 0.03013053 0.05110884
v -0.02535937 0.02237593 0.05082209
v -0.01230876 0.03029885 0.05108176
v -0.02744067 0.01938823 0.05087770
v -0.02500284 0.01935798 0.04616870
v -0.01695457 0.02904696 0.04616870
v -0.01982856 0.02792000 0.04868326
v -0.01876801 0.02863668 0.04922921
v -0.02178498 0.02642615 0.04922921
v -0.02276771 0.02563189 0.04974034
v -0.02443456 0.02378956 0.05043378
v -0.02350974 0.02442340 0.05071957
v -0.02733208 0.02062565 0.05032159
v -0.02807411 0.01979720 0.04984866
v -0.02817726 0.01957759 0.04853529
v -0.02741171 0.01953288 0.04616870
v -0.01873724 0.02789107 0.04616870
v -0.01968740 0.02721647 0.04616870
v -0.02107191 0.02620392 0.04616870
v -0.02065927 0.02722305 0.04851063
v -0.02270256 0.02557666 0.04875386
v -0.02463183 0.02378693 0.04869438
v -0.02402916 0.02446416 0.04977903
v -0.02551683 0.02297557 0.04989944
v -0.02727416 0.02094914 0.04965427
v -0.02647241 0.02181047 0.05001066
v -0.02761984 0.02040736 0.04880464
v -0.02676379 0.02039947 0.04616870
v -0.02180308 0.02560296 0.04616870
v -0.02257949 0.02489548 0.04616870
v -0.02489606 0.02362913 0.04965427
v -0.02549330 0.02294927 0.04868374
v -0.02629143 0.02204981 0.04888346
v -0.02543720 0.02204060 0.04616870
v -0.02451781 0.02301371 0.04616870
f 1 2 3
f 1 3 4
f 1 4 5
f 1 5 6
f 1 6 2
f 2 6 7
f 2 7 8
f 2 8 9
f 2 9 10
f 2 10 11
f 2 11 12
f 2 12 3
f 3 12 22
f 3 22 33
f 3 33 44
f 3 44 56
f 3 56 62
f 3 62 63
f 3 63 58
f 3 58 57
f 3 57 47
f 3 47 46
f 3 46 45
f 3 45 34
f 3 34 23
f 3 23 13
f 3 13 4
f 4 13 14
f 4 14 5
f 5 7 6
f 5 14 7
f 7 14 15
f 7 15 8
f 8 15 16
f 8 16 17
f 8 17 18
f 8 18 9
f 9 18 19
f 9 19 10
f 10 19 20
f 10 20 11
f 11 20 21
f 11 21 12
f 12 21 22
f 13 23 14
f 14 24 15
f 14 23 24
f 15 24 25
f 15 25 16
f 16 26 27
f 16 27 28
f 16 28 17
f 16 25 26
f 17 29 18
f 17 28 30
f 17 30 29
f 18 31 19
f 18 29 31
f 19 31 20
f 20 32 33
f 20 33 21
f 20 31 32
f 21 33 22
f 23 34 24
f 24 34 35
f 24 35 25
f 25 35 36
f 25 36 26
f 26 36 35
f 26 35 37
f 26 37 27
f 27 37 38
f 27 38 28
f 28 38 39
f 28 39 40
f 28 40 30
f 29 30 32
f 29 32 31
f 30 41 32
f 30 40 39
f 30 39 41
f 32 41 42
f 32 42 43
f 32 43 44
f 32 44 33
f 34 45 35
f 35 46 47
f 35 47 48
f 35 48 37
f 35 45 46
f 37 49 38
f 37 48 49
f 38 49 50
f 38 50 51
f 38 51 39
f 39 51 52
f 39 52 41
f 41 53 42
f 41 52 54
f 41 54 53
f 42 53 55
f 42 55 43
f 43 55 56
f 43 56 44
f 47 57 48
f 48 57 49
f 49 57 58
f 49 58 50
f 50 59 51
f 50 58 60
f 50 60 59
f 51 59 52
f 52 60 61
f 52 61 53
f 52 53 54
f 52 59 60
f 53 61 55
f 55 61 60
f 55 60 62
f 55 62 56
f 58 63 60
f 60 63 62

