# https://github.com/mikedh/trimesh
v -0.02464297 -0.00297172 0.04616871
v -0.02463231 -0.00382014 0.04616871
v -0.02418965 -0.00382014 0.04623796
v -0.02449961 -0.00212330 0.04616871
v -0.02418965 -0.00551876 0.04617303
v -0.02418965 -0.00467034 0.04622094
v -0.02418965 -0.00559331 0.04616871
v -0.02418965 -0.00297172 0.04621930
v -0.02249259 -0.00976086 0.04620569
v -0.02079553 -0.01315455 0.04621573
v -0.01824897 -0.01655000 0.04620226
v -0.01485485 -0.01909704 0.04617437
v -0.02418965 -0.00212330 0.04619902
v -0.02423033 -0.00127488 0.04616871
v -0.02249259 -0.01060751 0.04617950
v -0.02253133 -0.01060751 0.04616871
v -0.02164406 -0.01218010 0.04616871
v -0.02079553 -0.01360006 0.04616871
v -0.01909847 -0.01569981 0.04620394
v -0.01826447 -0.01673105 0.04616871
v -0.01665168 -0.01825749 0.04616871
v -0.01655191 -0.01824862 0.04618579
v -0.01570338 -0.01909704 0.04617136
v -0.01485485 -0.01930826 0.04616871
v -0.01474927 -0.01909704 0.04616871
v -0.02418965 -0.00127488 0.04617213
v -0.02418965 -0.00117549 0.04616871
v -0.02249259 -0.01069803 0.04616871
v -0.01925829 -0.01570691 0.04616871
v -0.01911203 -0.01588795 0.04616871
v -0.01571888 -0.01909704 0.04616871
v -0.01570338 -0.01910947 0.04616871
f 1 2 3
f 1 3 4
f 1 4 14
f 1 14 27
f 1 27 25
f 1 25 24
f 1 24 32
f 1 32 31
f 1 31 21
f 1 21 20
f 1 20 30
f 1 30 29
f 1 29 18
f 1 18 17
f 1 17 28
f 1 28 16
f 1 16 7
f 1 7 2
f 2 5 6
f 2 6 3
f 2 7 5
f 3 8 4
f 3 6 9
f 3 9 10
f 3 10 11
f 3 11 12
f 3 12 8
f 4 13 14
f 4 8 13
f 5 7 15
f 5 15 6
f 6 15 9
f 7 16 15
f 8 12 13
f 9 15 10
f 10 15 17
f 10 17 18
f 10 18 19
f 10 19 11
f 11 20 21
f 11 21 22
f 11 22 12
f 11 19 20
f 12 22 23
f 12 23 24
f 12 24 25
f 12 25 13
f 13 26 14
f 13 25 26
f 14 26 27
f 15 16 28
f 15 28 17
f 18 29 19
f 19 29 30
f 19 30 20
f 21 31 23
f 21 23 22
f 23 31 32
f 23 32 24
f 25 27 26

