# https://github.com/mikedh/trimesh
v -0.01451052 -0.02762039 0.04616918
v -0.01426152 -0.03013785 0.04616918
v -0.01438225 -0.03085399 0.05000890
v -0.01451052 -0.02900170 0.05046705
v -0.01451052 -0.02848943 0.04958158
v 0.00476054 -0.03175659 0.05002550
v 0.00476054 -0.03104367 0.04616918
v -0.01425775 -0.03088045 0.04880519
v -0.01328816 -0.03060302 0.04616918
v -0.01230536 -0.03190434 0.04965367
v -0.01294107 -0.03150046 0.05024034
v -0.01422002 -0.03016882 0.05081232
v -0.01336550 -0.03055399 0.05094322
v -0.01226198 -0.03068625 0.05098448
v 0.00473601 -0.03302307 0.05062119
v 0.00474733 -0.03390760 0.04949858
v 0.00471338 -0.03362114 0.04616918
v -0.01264113 -0.03159659 0.04868994
v -0.01230536 -0.03100045 0.04616918
v -0.01140368 -0.03219531 0.04999419
v -0.01098302 -0.03230886 0.04883839
v -0.01060575 -0.03254306 0.04965367
v -0.01194507 -0.03152562 0.05073216
v -0.01040768 -0.03192046 0.05083983
v -0.00042695 -0.03308242 0.05101436
v 0.00163861 -0.03344436 0.05074971
v 0.00296850 -0.03352630 0.05056807
v 0.00309677 -0.03405534 0.04989460
v 0.00385320 -0.03402179 0.04873168
v 0.00381924 -0.03377469 0.04616918
v -0.01097548 -0.03147917 0.04616918
v -0.00975689 -0.03278758 0.04965367
v -0.00749137 -0.03317662 0.05020050
v -0.00975689 -0.03268693 0.04880519
v -0.00870807 -0.03303661 0.04903854
v -0.00636144 -0.03331404 0.05034800
v -0.00127393 -0.03375792 0.05054435
v 0.00042380 -0.03365340 0.05068853
v 0.00042380 -0.03404825 0.05026406
v 0.00212152 -0.03411599 0.04994108
v 0.00296850 -0.03408760 0.04880519
v 0.00084634 -0.03418309 0.04880519
v -0.00042695 -0.03413083 0.04880519
v 0.00042380 -0.03360050 0.04616918
v -0.00975689 -0.03183079 0.04616918
v -0.00636144 -0.03356824 0.04965367
v -0.00797805 -0.03308178 0.04847794
v -0.00636144 -0.03350888 0.04880519
v -0.00226427 -0.03402244 0.04989981
v -0.00042695 -0.03387599 0.05047843
v -0.00085138 -0.03415405 0.04965367
v 0.00042380 -0.03421083 0.04965367
v 0.00127077 -0.03413341 0.04995388
v -0.00277736 -0.03397534 0.04907885
v -0.00159084 -0.03402115 0.04869563
v -0.00085138 -0.03351791 0.04616918
v -0.00870241 -0.03211918 0.04616918
v -0.00551447 -0.03368631 0.04922919
v -0.00724992 -0.03250177 0.04616918
v -0.00636144 -0.03269854 0.04616918
v -0.00551447 -0.03285726 0.04616918
v -0.00427136 -0.03305791 0.04616918
v -0.00466938 -0.03377018 0.04880519
v -0.00262834 -0.03329146 0.04616918
f 1 2 3
f 1 3 4
f 1 4 5
f 1 5 6
f 1 6 7
f 1 7 17
f 1 17 30
f 1 30 44
f 1 44 56
f 1 56 64
f 1 64 62
f 1 62 61
f 1 61 60
f 1 60 59
f 1 59 57
f 1 57 45
f 1 45 31
f 1 31 19
f 1 19 9
f 1 9 2
f 2 8 3
f 2 9 8
f 3 10 11
f 3 11 12
f 3 12 4
f 3 8 10
f 4 12 13
f 4 13 14
f 4 14 15
f 4 15 6
f 4 6 5
f 6 15 16
f 6 16 7
f 7 16 17
f 8 9 18
f 8 18 10
f 9 19 18
f 10 20 11
f 10 18 21
f 10 21 22
f 10 22 20
f 11 20 23
f 11 23 13
f 11 13 12
f 13 23 24
f 13 24 14
f 14 24 25
f 14 25 15
f 15 25 26
f 15 26 27
f 15 27 28
f 15 28 16
f 16 28 29
f 16 29 17
f 17 29 30
f 18 19 21
f 19 31 21
f 20 22 32
f 20 32 33
f 20 33 24
f 20 24 23
f 21 31 34
f 21 34 22
f 22 34 35
f 22 35 32
f 24 33 36
f 24 36 37
f 24 37 25
f 25 37 38
f 25 38 26
f 26 38 27
f 27 38 39
f 27 39 28
f 28 39 40
f 28 40 41
f 28 41 29
f 29 41 30
f 30 41 42
f 30 42 43
f 30 43 44
f 31 45 34
f 32 35 46
f 32 46 33
f 33 46 36
f 34 45 47
f 34 47 35
f 35 47 48
f 35 48 46
f 36 46 49
f 36 49 37
f 37 49 50
f 37 50 38
f 38 50 39
f 39 50 49
f 39 49 51
f 39 51 52
f 39 52 53
f 39 53 40
f 40 53 52
f 40 52 41
f 41 52 42
f 42 52 43
f 43 51 54
f 43 54 55
f 43 55 56
f 43 56 44
f 43 52 51
f 45 57 47
f 46 48 58
f 46 58 49
f 47 57 59
f 47 59 60
f 47 60 48
f 48 60 61
f 48 61 62
f 48 62 63
f 48 63 58
f 49 58 54
f 49 54 51
f 54 58 63
f 54 63 55
f 55 63 56
f 56 63 64
f 62 64 63

