# https://github.com/mikedh/trimesh
v 0.02643805 0.01762698 0.04735736
v 0.02666117 0.01762698 0.04864642
v 0.02722779 0.01762698 0.04996884
v 0.02891842 0.01744885 0.04753104
v 0.03152990 0.01168750 0.04723486
v 0.03175302 -0.00021243 0.04723486
v 0.03186650 -0.00021243 0.04891090
v 0.03201601 -0.00021243 0.04972152
v 0.02928415 0.01570071 0.05047601
v 0.02873824 0.01751347 0.05030926
v 0.03245841 -0.00021243 0.05036870
v 0.02954101 0.01720785 0.04864576
v 0.02960771 0.01635386 0.04764760
v 0.03118257 0.01279820 0.04731443
v 0.03165794 0.01237208 0.04788434
v 0.03226903 0.01060823 0.04792033
v 0.03189640 0.01053837 0.04723486
v 0.03247221 0.00839904 0.04724476
v 0.03374498 0.00206661 0.04748250
v 0.03398343 0.00009494 0.04768293
v 0.03408234 -0.00021243 0.04947421
v 0.03013292 0.01400322 0.05052191
v 0.02933552 0.01657565 0.05031752
v 0.03267770 0.00297299 0.05060808
v 0.03098016 0.01145697 0.05060313
v 0.02986763 0.01600633 0.05022770
v 0.02954791 0.01716943 0.04949666
v 0.03384389 0.00034642 0.05008407
v 0.03139879 0.01357884 0.04882737
v 0.03068343 0.01468256 0.04811184
v 0.03140953 0.01310382 0.04800189
v 0.03227056 0.01129456 0.04855067
v 0.03275974 0.00891073 0.04795731
v 0.03229893 0.00971582 0.04750858
v 0.03403404 0.00212425 0.04815411
v 0.03397807 0.00124406 0.04770274
v 0.03427096 0.00010716 0.04880590
v 0.03403634 0.00127550 0.04988101
v 0.03098016 0.01230572 0.05055823
v 0.03374268 0.00307952 0.05027129
v 0.03297979 0.00636798 0.05047271
v 0.03101389 0.01314574 0.05034360
v 0.03166714 0.01244369 0.04992723
v 0.03141873 0.01328370 0.04971756
v 0.03398037 0.00212425 0.05011808
v 0.03192553 0.01230572 0.04880590
v 0.03250442 0.01060823 0.04880590
v 0.03273597 0.00975948 0.04880590
v 0.03296139 0.00891073 0.04880590
v 0.03309250 0.00809517 0.04847373
v 0.03425332 0.00127550 0.04880590
v 0.03336162 0.00721673 0.04880590
v 0.03350653 0.00636798 0.04880590
v 0.03363764 0.00551924 0.04880590
v 0.03212718 0.00975948 0.05040270
v 0.03168095 0.01145697 0.05034558
v 0.03335855 0.00551924 0.05035153
v 0.03235337 0.01048249 0.04990775
v 0.03229970 0.01117231 0.04937251
v 0.03365681 0.00551924 0.04965416
v 0.03289775 0.00891073 0.04965416
v 0.03351266 0.00636798 0.04965416
v 0.03321134 0.00736692 0.04997808
v 0.03265699 0.00975948 0.04965416
f 1 2 3
f 1 3 4
f 1 4 5
f 1 5 6
f 1 6 7
f 1 7 2
f 2 7 8
f 2 8 3
f 3 9 10
f 3 10 4
f 3 8 11
f 3 11 9
f 4 10 12
f 4 12 13
f 4 13 14
f 4 14 5
f 5 14 15
f 5 15 16
f 5 16 17
f 5 17 6
f 6 18 19
f 6 19 20
f 6 20 21
f 6 21 11
f 6 11 8
f 6 8 7
f 6 17 18
f 9 22 23
f 9 23 10
f 9 11 24
f 9 24 25
f 9 25 22
f 10 23 26
f 10 26 27
f 10 27 12
f 11 21 28
f 11 28 24
f 12 29 30
f 12 30 13
f 12 27 29
f 13 30 31
f 13 31 14
f 14 31 15
f 15 31 32
f 15 32 16
f 16 32 33
f 16 33 34
f 16 34 17
f 17 34 18
f 18 34 33
f 18 33 19
f 19 35 36
f 19 36 20
f 19 33 35
f 20 37 21
f 20 36 37
f 21 37 38
f 21 38 28
f 22 25 39
f 22 39 23
f 23 39 26
f 24 28 40
f 24 40 41
f 24 41 25
f 25 41 39
f 26 42 43
f 26 43 44
f 26 44 27
f 26 39 42
f 27 44 29
f 28 38 45
f 28 45 40
f 29 46 31
f 29 31 30
f 29 44 46
f 31 46 32
f 32 47 48
f 32 48 49
f 32 49 33
f 32 46 47
f 33 49 50
f 33 50 35
f 35 51 36
f 35 50 52
f 35 52 53
f 35 53 54
f 35 54 51
f 36 51 37
f 37 51 45
f 37 45 38
f 39 41 55
f 39 55 56
f 39 56 42
f 40 45 57
f 40 57 41
f 41 57 55
f 42 56 43
f 43 56 58
f 43 58 59
f 43 59 44
f 44 59 46
f 45 51 60
f 45 60 57
f 46 59 47
f 47 59 61
f 47 61 48
f 48 61 49
f 49 61 62
f 49 62 52
f 49 52 50
f 51 54 60
f 52 62 53
f 53 62 60
f 53 60 54
f 55 57 63
f 55 63 56
f 56 63 58
f 57 60 63
f 58 63 64
f 58 64 59
f 59 64 61
f 60 62 63
f 61 64 63
f 61 63 62

