# https://github.com/mikedh/trimesh
v 0.02662385 0.01366918 -0.05104760
v 0.01592993 0.02684134 -0.05105353
v 0.01909896 0.02418853 -0.05127026
v 0.02334059 0.01994839 -0.05127620
v 0.02673528 0.01527987 -0.05117823
v 0.02841661 0.01427202 -0.05048054
v 0.02983048 0.01416298 -0.04515440
v 0.02990710 0.01388415 -0.02292057
v 0.01567780 0.01366918 -0.02094627
v 0.01567780 0.01366918 -0.04735730
v 0.01567780 0.01827850 -0.04877642
v 0.01865321 0.02583505 -0.05069134
v 0.02127341 0.02310123 -0.05110698
v 0.01567780 0.02930255 -0.04621429
v 0.01643976 0.02829782 -0.04922768
v 0.02249366 0.02164320 -0.05116042
v 0.02467924 0.01904958 -0.05113963
v 0.02600536 0.01865236 -0.05042117
v 0.02746521 0.01679866 -0.05013022
v 0.02930533 0.01470196 -0.04780857
v 0.02884983 0.01602291 -0.04604506
v 0.02887769 0.01615999 -0.02464251
v 0.02971348 0.01428916 -0.02111253
v 0.02887211 0.01599487 -0.02094627
v 0.01570984 0.02951129 -0.02094627
v 0.01567780 0.02958294 -0.02674150
v 0.01793722 0.02723389 -0.04942066
v 0.02189607 0.02417139 -0.04929597
v 0.02408584 0.02068519 -0.05082790
v 0.01833561 0.02756101 -0.04663883
v 0.01603580 0.02923401 -0.04476845
v 0.01770738 0.02819345 -0.04472095
v 0.02429478 0.02151546 -0.04960770
v 0.02547046 0.02017426 -0.04938206
v 0.02762818 0.01740773 -0.04838156
v 0.02643858 0.01950755 -0.04744933
v 0.02728690 0.01867261 -0.04491986
v 0.02723536 0.01879100 -0.02419421
v 0.02769226 0.01804173 -0.02094627
v 0.01575581 0.02954556 -0.02461876
v 0.01706382 0.02871062 -0.02094627
v 0.01950014 0.02737253 -0.02780138
v 0.01992222 0.02586620 -0.04901096
v 0.01952104 0.02681953 -0.04540675
v 0.02055602 0.02606092 -0.04455766
v 0.02206462 0.02472439 -0.04452797
v 0.02378356 0.02252020 -0.04837859
v 0.02547324 0.02081604 -0.04752950
v 0.02551921 0.02112603 -0.04598568
v 0.02609869 0.02042038 -0.04477142
v 0.02599561 0.02053254 -0.02094627
v 0.01963108 0.02727439 -0.02589240
v 0.02162305 0.02535682 -0.02094627
v 0.01955168 0.02715444 -0.02156083
v 0.02258281 0.02448917 -0.02843969
v 0.02351750 0.02335982 -0.04429937
v 0.02395768 0.02305450 -0.02811905
v 0.02470850 0.02218529 -0.02631695
v 0.02548021 0.02124286 -0.02843969
v 0.02448283 0.02238156 -0.02094627
v 0.02470293 0.02217438 -0.02419421
v 0.02316647 0.02379754 -0.02094627
v 0.02355093 0.02344549 -0.02366278
v 0.02433657 0.02260432 -0.02504331
f 1 2 3
f 1 3 4
f 1 4 5
f 1 5 6
f 1 6 7
f 1 7 8
f 1 8 9
f 1 9 10
f 1 10 11
f 1 11 2
f 2 12 13
f 2 13 3
f 2 11 14
f 2 14 15
f 2 15 12
f 3 16 4
f 3 13 16
f 4 16 17
f 4 17 5
f 5 17 6
f 6 17 18
f 6 18 19
f 6 19 20
f 6 20 7
f 7 20 21
f 7 21 22
f 7 22 8
f 8 22 23
f 8 23 9
f 9 23 24
f 9 24 39
f 9 39 51
f 9 51 60
f 9 60 62
f 9 62 53
f 9 53 41
f 9 41 25
f 9 25 26
f 9 26 14
f 9 14 11
f 9 11 10
f 12 15 27
f 12 27 28
f 12 28 13
f 13 29 16
f 13 28 29
f 14 30 15
f 14 26 31
f 14 31 32
f 14 32 30
f 15 30 27
f 16 29 17
f 17 29 18
f 18 29 33
f 18 33 34
f 18 34 19
f 19 34 35
f 19 35 20
f 20 35 21
f 21 35 36
f 21 36 37
f 21 37 22
f 22 37 38
f 22 38 39
f 22 39 24
f 22 24 23
f 25 40 26
f 25 41 40
f 26 42 31
f 26 40 42
f 27 30 43
f 27 43 28
f 28 43 44
f 28 44 45
f 28 45 46
f 28 46 47
f 28 47 33
f 28 33 29
f 30 32 44
f 30 44 43
f 31 42 32
f 32 42 44
f 33 47 48
f 33 48 34
f 34 48 36
f 34 36 35
f 36 49 37
f 36 48 49
f 37 50 38
f 37 49 50
f 38 51 39
f 38 50 51
f 40 41 52
f 40 52 42
f 41 53 54
f 41 54 52
f 42 55 46
f 42 46 45
f 42 45 44
f 42 52 55
f 46 55 56
f 46 56 47
f 47 49 48
f 47 56 49
f 49 56 57
f 49 57 58
f 49 58 59
f 49 59 50
f 50 59 51
f 51 59 61
f 51 61 60
f 52 54 53
f 52 53 55
f 53 62 55
f 55 57 56
f 55 62 63
f 55 63 57
f 57 63 64
f 57 64 58
f 58 64 61
f 58 61 59
f 60 61 64
f 60 64 63
f 60 63 62

