# https://github.com/mikedh/trimesh
v 0.02001626 0.01652633 0.04616908
v 0.01909553 0.01614818 0.04671091
v 0.01994353 0.01616742 0.04673016
v 0.02086425 0.01651545 0.04616908
v 0.01697555 0.01637490 0.04616870
v 0.01655000 0.01635901 0.04616870
v 0.01802471 0.01611221 0.04666400
v 0.00891495 0.01441472 0.04751796
v 0.01828313 0.01577840 0.04692977
v 0.01909553 0.01570143 0.04699313
v 0.01994353 0.01570143 0.04697650
v 0.02079307 0.01615655 0.04671614
v 0.02126040 0.01613647 0.04669558
v 0.02182521 0.01643514 0.04616908
v 0.01697555 0.01220356 0.04616870
v 0.02186545 0.01252733 0.04616908
v 0.01570046 0.01629124 0.04616870
v 0.00806696 0.01438377 0.04747180
v 0.00636942 0.01383579 0.04772169
v 0.00806696 0.01395961 0.04771944
v 0.01400292 0.01449755 0.04756786
v 0.01467760 0.01448667 0.04756039
v 0.01739800 0.01485227 0.04736395
v 0.02079307 0.01570143 0.04693837
v 0.01824754 0.01485227 0.04733666
v 0.02158226 0.01573573 0.04685146
v 0.02186545 0.01566044 0.04684324
v 0.02184533 0.01604528 0.04659354
v 0.01325861 0.00797951 0.04616870
v 0.02186545 0.01340912 0.04679034
v 0.01139549 0.00797951 0.04731853
v 0.01146203 0.01562948 0.04616870
v 0.00721741 0.01431517 0.04735816
v 0.00605838 0.01409095 0.04739217
v 0.00605838 0.01370528 0.04776972
v 0.00891495 0.01398972 0.04771944
v 0.00605838 0.01315479 0.04799737
v 0.00636942 0.01315479 0.04799830
v 0.02175403 0.01485227 0.04712341
v 0.00721741 0.01315479 0.04798204
v 0.00806696 0.01315479 0.04794541
v 0.00721741 0.01230563 0.04803101
v 0.02186545 0.01400478 0.04703463
v 0.00881592 0.00797951 0.04721256
v 0.00798185 0.00799457 0.04625206
v 0.00605838 0.00906125 0.04616870
v 0.01068522 0.00797951 0.04761123
v 0.00605838 0.01456615 0.04616870
v 0.00605838 0.01440887 0.04680343
v 0.00605838 0.01424740 0.04713873
v 0.00636942 0.01425995 0.04721013
v 0.00605838 0.01284608 0.04803232
v 0.00605838 0.01230563 0.04807811
v 0.00636942 0.01230563 0.04806951
v 0.00636942 0.01146065 0.04804148
v 0.00969331 0.00797951 0.04764225
v 0.00605838 0.00994304 0.04766580
v 0.00684293 0.00935908 0.04751329
v 0.00605838 0.00952473 0.04721051
v 0.00605838 0.00929717 0.04676717
v 0.00605838 0.01199943 0.04806858
v 0.00605838 0.01146065 0.04805064
v 0.00636942 0.01061149 0.04794148
v 0.00605838 0.01061149 0.04791831
f 1 2 3
f 1 3 4
f 1 4 5
f 1 5 6
f 1 6 2
f 2 6 7
f 2 7 8
f 2 8 3
f 3 8 9
f 3 9 10
f 3 10 11
f 3 11 12
f 3 12 4
f 4 12 13
f 4 13 14
f 4 14 5
f 5 15 29
f 5 29 46
f 5 46 48
f 5 48 32
f 5 32 17
f 5 17 6
f 5 14 16
f 5 16 15
f 6 17 7
f 7 17 18
f 7 18 8
f 8 18 19
f 8 19 20
f 8 20 21
f 8 21 10
f 8 10 9
f 10 21 22
f 10 22 23
f 10 23 11
f 11 24 12
f 11 23 25
f 11 25 24
f 12 24 13
f 13 24 26
f 13 26 27
f 13 27 28
f 13 28 14
f 14 28 27
f 14 27 16
f 15 16 29
f 16 27 43
f 16 43 30
f 16 30 31
f 16 31 29
f 17 32 33
f 17 33 18
f 18 33 34
f 18 34 19
f 19 34 35
f 19 35 20
f 20 36 21
f 20 35 37
f 20 37 36
f 21 36 37
f 21 37 38
f 21 38 22
f 22 39 25
f 22 25 23
f 22 38 40
f 22 40 41
f 22 41 42
f 22 42 39
f 24 25 39
f 24 39 26
f 26 39 27
f 27 39 43
f 29 31 47
f 29 47 56
f 29 56 44
f 29 44 45
f 29 45 46
f 30 43 47
f 30 47 31
f 32 48 49
f 32 49 50
f 32 50 51
f 32 51 33
f 33 51 34
f 34 50 49
f 34 49 48
f 34 48 46
f 34 46 60
f 34 60 59
f 34 59 57
f 34 57 64
f 34 64 62
f 34 62 61
f 34 61 53
f 34 53 52
f 34 52 37
f 34 37 35
f 34 51 50
f 37 52 38
f 38 52 40
f 39 42 47
f 39 47 43
f 40 52 53
f 40 53 54
f 40 54 41
f 41 54 42
f 42 54 55
f 42 55 47
f 44 56 57
f 44 57 58
f 44 58 59
f 44 59 60
f 44 60 45
f 45 60 46
f 47 55 56
f 53 61 54
f 54 61 55
f 55 61 62
f 55 62 56
f 56 62 63
f 56 63 64
f 56 64 57
f 57 59 58
f 62 64 63

