# https://github.com/mikedh/trimesh
v -0.00040381 0.03390814 -0.00371105
v -0.00661916 0.03317857 -0.00302238
v -0.00339058 0.03358532 0.01494963
v 0.00367439 0.03378546 0.00508613
v 0.00381818 0.03367571 -0.00806151
v -0.00013585 0.03369508 -0.02066488
v -0.00854062 0.03248129 -0.01952820
v -0.00862558 0.03273308 0.00848504
v -0.01450761 0.03031841 0.01505331
v -0.02276859 0.02441732 0.01592340
v 0.02071267 0.02602495 0.01621590
v 0.01098118 0.03175172 0.01455347
v 0.00687030 0.03312692 -0.00297055
v 0.00879176 0.03233925 -0.02053159
v 0.01818340 0.02781981 -0.02080187
v -0.01795840 0.02836860 -0.02069450
v -0.01521345 0.03009244 0.00572667
v -0.02170329 0.02561174 0.00593771
v -0.02416721 0.02304858 -0.02067598
v -0.02747422 0.01918123 -0.01193434
v -0.02775525 0.01859371 0.01450533
v -0.03289222 0.00466093 0.01599745
v -0.03332357 -0.00351925 0.01686754
v 0.03331982 0.00007693 0.01664169
v 0.02775150 0.01810948 0.01531618
v 0.02496080 0.02203493 0.00296459
v 0.01676518 0.02900132 0.00593771
v 0.01162821 0.03159031 0.00380506
v 0.02756850 0.01782540 -0.01925422
v 0.03232641 0.00629439 -0.02094627
v -0.03234323 0.00787619 -0.02083889
v -0.02952639 0.01560442 -0.02048345
v -0.03013420 0.01447456 0.00196121
v -0.03127793 0.01151111 0.01203575
v -0.03344774 -0.00091089 -0.02085741
v -0.03231709 -0.00926539 -0.01883954
v -0.03193149 -0.01149282 0.01049180
v -0.02738925 -0.02093198 0.01360562
v -0.02014129 -0.02717526 0.01541615
v -0.01029869 -0.03088120 0.01687865
v 0.02541176 -0.02246214 0.01653431
v 0.03204538 -0.01031777 0.01521251
v 0.03311068 -0.00166628 -0.02045013
v 0.03178396 0.00915454 0.01483115
v 0.02920240 0.01552695 0.00421234
v 0.03171207 -0.01078262 -0.02054640
v 0.01911799 -0.02751745 -0.02093146
v -0.02887937 -0.01819450 -0.02093146
v -0.02772911 -0.02060271 0.00134659
v -0.02486652 -0.02381151 -0.00692854
v -0.01865771 -0.02862793 -0.00636576
v -0.01610229 -0.02969969 -0.00636576
v 0.00043928 -0.03203689 0.01653061
v -0.01246851 -0.03038406 -0.02086111
v 0.02586272 -0.02281723 -0.01748812
v 0.02786261 -0.02031218 -0.00068980
v 0.03025463 -0.01554740 0.00982535
v 0.01124261 -0.03081018 0.01570865
v 0.01958202 -0.02733667 0.01133598
v 0.03135261 -0.01297778 -0.00053429
v 0.02968603 -0.01674182 -0.01046444
v 0.00784410 -0.03076499 -0.00274840
v 0.01238633 -0.02906051 -0.01773618
v -0.02530440 -0.02331437 -0.01607746
f 1 2 3
f 1 3 4
f 1 4 5
f 1 5 6
f 1 6 2
f 2 7 8
f 2 8 3
f 2 6 7
f 3 8 9
f 3 9 10
f 3 10 11
f 3 11 12
f 3 12 4
f 4 12 13
f 4 13 5
f 5 13 14
f 5 14 6
f 6 14 15
f 6 15 16
f 6 16 7
f 7 16 17
f 7 17 8
f 8 17 9
f 9 17 18
f 9 18 10
f 10 18 19
f 10 19 20
f 10 20 21
f 10 21 22
f 10 22 23
f 10 23 11
f 11 24 25
f 11 25 26
f 11 26 15
f 11 15 27
f 11 27 12
f 11 23 24
f 12 27 28
f 12 28 13
f 13 28 14
f 14 28 15
f 15 28 27
f 15 26 29
f 15 29 30
f 15 30 31
f 15 31 16
f 16 31 19
f 16 19 18
f 16 18 17
f 19 31 32
f 19 32 20
f 20 32 33
f 20 33 21
f 21 33 34
f 21 34 22
f 22 31 35
f 22 35 23
f 22 34 31
f 23 35 36
f 23 36 37
f 23 37 38
f 23 38 39
f 23 39 40
f 23 40 24
f 24 41 42
f 24 42 43
f 24 43 30
f 24 30 44
f 24 44 25
f 24 40 41
f 25 44 45
f 25 45 29
f 25 29 26
f 29 45 30
f 30 45 44
f 30 43 46
f 30 46 47
f 30 47 48
f 30 48 31
f 31 34 33
f 31 33 32
f 31 48 35
f 35 48 36
f 36 48 37
f 37 48 49
f 37 49 38
f 38 49 50
f 38 50 39
f 39 51 52
f 39 52 40
f 39 50 51
f 40 53 41
f 40 52 54
f 40 54 53
f 41 55 56
f 41 56 57
f 41 57 42
f 41 53 58
f 41 58 59
f 41 59 55
f 42 57 60
f 42 60 46
f 42 46 43
f 46 60 61
f 46 61 55
f 46 55 47
f 47 55 59
f 47 59 58
f 47 58 62
f 47 62 63
f 47 63 54
f 47 54 48
f 48 54 64
f 48 64 49
f 49 64 50
f 50 64 51
f 51 54 52
f 51 64 54
f 53 62 58
f 53 54 62
f 54 63 62
f 55 61 56
f 56 61 57
f 57 61 60

