# https://github.com/mikedh/trimesh
v 0.02903181 -0.00010687 -0.05023989
v 0.02728238 0.01353973 -0.05113214
v 0.03013074 0.00339648 -0.05078942
v 0.03013074 0.00169874 -0.05061511
v 0.03054934 0.00002663 -0.05023398
v 0.03329284 0.00008462 -0.04766950
v 0.03320759 -0.00010687 -0.02461573
v 0.02458321 -0.00010687 -0.02095218
v 0.02458321 0.00032734 -0.04833130
v 0.02857143 0.01315676 -0.05088987
v 0.02883317 0.01177052 -0.05101987
v 0.02981274 0.00924617 -0.05098442
v 0.02572392 0.01366918 -0.05037284
v 0.02914008 0.01366918 -0.04992081
v 0.03117511 0.00514680 -0.05058556
v 0.03132346 0.00339648 -0.05050875
v 0.03097988 0.00212217 -0.05051466
v 0.03151698 0.00110407 -0.05002126
v 0.03244882 0.00254694 -0.04924719
v 0.03314620 0.00127397 -0.04807130
v 0.03310017 0.00275056 -0.04740359
v 0.03310699 0.00363111 -0.04583181
v 0.03314279 0.00358392 -0.03691816
v 0.03315984 0.00326568 -0.02928675
v 0.03328091 0.00002663 -0.02886131
v 0.03309420 0.00358392 -0.02564684
v 0.03316240 0.00042443 -0.02334235
v 0.03310017 0.00023969 -0.02095218
v 0.02458321 0.01366918 -0.02095218
v 0.02458321 0.00435929 -0.04843471
v 0.02972237 0.01103830 -0.05054420
v 0.03078720 0.00764688 -0.05056193
v 0.02458321 0.01366918 -0.04843766
v 0.02997046 0.01340623 -0.04759859
v 0.03051183 0.01196471 -0.04803290
v 0.03037201 0.01124866 -0.04933878
v 0.03084091 0.00911133 -0.04989126
v 0.03004634 0.01353973 -0.02129785
v 0.03152722 0.00689308 -0.04984695
v 0.03222204 0.00408150 -0.04953672
v 0.03269180 0.00509421 -0.04753064
v 0.03259546 0.00636717 -0.04583181
v 0.03288532 0.00509421 -0.03946492
v 0.03230389 0.00696725 -0.02291986
v 0.03230645 0.00679869 -0.02121217
v 0.03255624 0.00559315 -0.02095218
v 0.03278984 0.00428243 -0.02095218
v 0.03297143 0.00304722 -0.02095218
v 0.03304305 0.00181202 -0.02095218
v 0.03129191 0.01032765 -0.02095218
v 0.03070110 0.01198628 -0.02112354
v 0.03037457 0.01294909 -0.04502820
v 0.03123650 0.01033844 -0.04745678
v 0.03127657 0.00953340 -0.04848493
v 0.03143003 0.00811615 -0.04926491
v 0.03026715 0.01305832 -0.02270713
v 0.03049734 0.01258366 -0.02843586
v 0.03204301 0.00689443 -0.04856766
v 0.03181111 0.00848563 -0.04753064
v 0.03233117 0.00754305 -0.04494547
v 0.03189893 0.00848563 -0.02249441
v 0.03187335 0.00848563 -0.02112354
v 0.03208052 0.00806086 -0.02928675
v 0.03125014 0.01076726 -0.04510797
f 1 2 3
f 1 3 4
f 1 4 5
f 1 5 6
f 1 6 7
f 1 7 8
f 1 8 9
f 1 9 2
f 2 10 11
f 2 11 12
f 2 12 3
f 2 9 13
f 2 13 14
f 2 14 10
f 3 15 16
f 3 16 17
f 3 17 4
f 3 12 15
f 4 17 5
f 5 18 6
f 5 17 18
f 6 18 19
f 6 19 20
f 6 20 21
f 6 21 22
f 6 22 23
f 6 23 24
f 6 24 25
f 6 25 7
f 7 25 26
f 7 26 27
f 7 27 28
f 7 28 8
f 8 28 49
f 8 49 48
f 8 48 47
f 8 47 46
f 8 46 50
f 8 50 29
f 8 29 33
f 8 33 30
f 8 30 9
f 9 30 13
f 10 12 11
f 10 14 31
f 10 31 12
f 12 31 32
f 12 32 15
f 13 30 33
f 13 33 29
f 13 29 14
f 14 34 35
f 14 35 36
f 14 36 37
f 14 37 31
f 14 29 38
f 14 38 34
f 15 32 39
f 15 39 40
f 15 40 16
f 16 18 17
f 16 40 19
f 16 19 18
f 19 40 20
f 20 41 21
f 20 40 41
f 21 41 22
f 22 41 42
f 22 42 43
f 22 43 23
f 23 43 26
f 23 26 24
f 24 26 25
f 26 43 44
f 26 44 45
f 26 45 46
f 26 46 47
f 26 47 48
f 26 48 49
f 26 49 27
f 27 49 28
f 29 50 51
f 29 51 38
f 31 37 32
f 32 37 39
f 34 38 52
f 34 52 53
f 34 53 35
f 35 54 36
f 35 53 54
f 36 54 55
f 36 55 37
f 37 55 39
f 38 51 56
f 38 56 57
f 38 57 52
f 39 55 58
f 39 58 40
f 40 58 41
f 41 58 59
f 41 59 42
f 42 59 60
f 42 60 43
f 43 60 44
f 44 61 62
f 44 62 45
f 44 60 63
f 44 63 61
f 45 62 46
f 46 62 50
f 50 62 61
f 50 61 63
f 50 63 60
f 50 60 64
f 50 64 51
f 51 64 57
f 51 57 56
f 52 57 64
f 52 64 53
f 53 64 60
f 53 60 59
f 53 59 54
f 54 58 55
f 54 59 58

