# https://github.com/mikedh/trimesh
v 0.02421523 -0.00010687 -0.04830299
v 0.01994686 0.01366918 -0.04868918
v 0.02028170 0.01366918 -0.04872997
v 0.02458321 0.00075076 -0.04838186
v 0.02458321 -0.00010687 -0.04828395
v 0.01854820 -0.00010687 -0.04756053
v 0.01939315 0.01366918 -0.04858039
v 0.01567587 0.01063646 -0.04774003
v 0.02079530 0.01366918 -0.04871638
v 0.02079530 0.01315541 -0.04872454
v 0.02164375 0.01145768 -0.04869190
v 0.02458321 0.00080470 -0.04838458
v 0.02458321 -0.00010687 -0.02094899
v 0.01567587 -0.00010687 -0.04701661
v 0.01917080 0.01366918 -0.04852056
v 0.01567587 0.01148600 -0.04774003
v 0.02164375 0.01230722 -0.04868374
v 0.02458321 0.01366918 -0.04844169
v 0.02249219 0.01060949 -0.04864839
v 0.02249219 0.00975994 -0.04864295
v 0.02334150 0.00806221 -0.04857495
v 0.02458321 0.00320769 -0.04842537
v 0.02458321 0.01366918 -0.02094899
v 0.01567587 -0.00010687 -0.02094899
v 0.01567587 0.01232879 -0.04765572
v 0.01567587 0.01240566 -0.04764756
v 0.01567587 0.01250814 -0.04763125
v 0.01567587 0.01286819 -0.04756869
v 0.01567587 0.01366918 -0.04735928
v 0.02458321 0.00407611 -0.04843625
v 0.02334150 0.00891175 -0.04857767
v 0.02458321 0.00381990 -0.04843353
v 0.01567587 0.01366918 -0.02094899
f 1 2 3
f 1 3 4
f 1 4 5
f 1 5 13
f 1 13 24
f 1 24 14
f 1 14 6
f 1 6 2
f 2 7 15
f 2 15 29
f 2 29 33
f 2 33 23
f 2 23 18
f 2 18 9
f 2 9 3
f 2 6 8
f 2 8 7
f 3 9 10
f 3 10 11
f 3 11 12
f 3 12 4
f 4 12 22
f 4 22 32
f 4 32 30
f 4 30 18
f 4 18 23
f 4 23 13
f 4 13 5
f 6 14 8
f 7 8 16
f 7 16 15
f 8 14 24
f 8 24 33
f 8 33 29
f 8 29 28
f 8 28 27
f 8 27 26
f 8 26 25
f 8 25 16
f 9 17 10
f 9 18 17
f 10 17 11
f 11 17 19
f 11 19 20
f 11 20 12
f 12 20 21
f 12 21 22
f 13 23 33
f 13 33 24
f 15 16 25
f 15 25 26
f 15 26 27
f 15 27 28
f 15 28 29
f 17 18 19
f 18 30 31
f 18 31 19
f 19 31 21
f 19 21 20
f 21 31 30
f 21 30 32
f 21 32 22

