# https://github.com/mikedh/trimesh
v 0.03259738 -0.00803609 -0.03946585
v 0.03254891 -0.00803609 -0.02419439
v 0.03242076 -0.00922680 -0.03861711
v 0.03256076 -0.00805022 -0.04540704
v 0.03202660 -0.00803609 -0.04875501
v 0.03254353 -0.00803609 -0.02334272
v 0.03229691 -0.00926917 -0.02301379
v 0.03145151 -0.01264105 -0.02355123
v 0.03143859 -0.01186829 -0.04495477
v 0.03225706 -0.00934479 -0.04586224
v 0.03226568 -0.00835849 -0.04780348
v 0.03140089 -0.01008098 -0.04859642
v 0.03144720 -0.00903652 -0.04929539
v 0.03144828 -0.00805022 -0.04973885
v 0.03087211 -0.00804357 -0.05035851
v 0.02159641 -0.00803609 -0.04694887
v 0.02159641 -0.00803609 -0.02094627
v 0.03250476 -0.00805022 -0.02094627
v 0.03220537 -0.00941708 -0.02094627
v 0.03190275 -0.01053466 -0.02094627
v 0.03150535 -0.01185250 -0.02094627
v 0.03108212 -0.01315622 -0.02094627
v 0.03054365 -0.01457127 -0.02094627
v 0.03009025 -0.01563152 -0.02094627
v 0.02974994 -0.01638849 -0.02094627
v 0.02972517 -0.01574287 -0.04456123
v 0.02968532 -0.01565562 -0.04540704
v 0.03063088 -0.01269339 -0.04796501
v 0.03131258 -0.01101660 -0.04792976
v 0.03054472 -0.01225550 -0.04872858
v 0.03064488 -0.01145200 -0.04919847
v 0.03059211 -0.01060280 -0.04988863
v 0.03079134 -0.00891354 -0.05029978
v 0.02981779 -0.00976191 -0.05075205
v 0.02977148 -0.00830365 -0.05084309
v 0.02159749 -0.00804025 -0.04779173
v 0.02159641 -0.01035851 -0.04831449
v 0.02159641 -0.01652476 -0.02094627
v 0.02934824 -0.01652476 -0.04457592
v 0.02927608 -0.01652476 -0.04540704
v 0.02968748 -0.01457210 -0.04813241
v 0.02984040 -0.01384920 -0.04861404
v 0.02983502 -0.01316203 -0.04921316
v 0.02991902 -0.01145948 -0.05027335
v 0.02893146 -0.01135561 -0.05085190
v 0.02887654 -0.00945696 -0.05094882
v 0.02162118 -0.00891354 -0.04805605
v 0.02446646 -0.01642588 -0.05090183
v 0.02339921 -0.01652476 -0.05031153
v 0.02159641 -0.01195138 -0.04839085
v 0.02159641 -0.01652476 -0.04761846
v 0.02876454 -0.01629044 -0.04796207
v 0.02756051 -0.01652476 -0.04962137
v 0.02880761 -0.01560161 -0.04869040
v 0.02957547 -0.01408020 -0.04885780
v 0.02896377 -0.01480642 -0.04917204
v 0.02881838 -0.01389656 -0.05001784
v 0.02955501 -0.01228126 -0.05017937
v 0.02808714 -0.01497676 -0.05013532
v 0.02608403 -0.01628795 -0.05091063
v 0.02789006 -0.01303573 -0.05088714
v 0.02701881 -0.01639431 -0.05027041
v 0.02159641 -0.01315622 -0.04832330
v 0.02812483 -0.01635941 -0.04902814
f 1 2 3
f 1 3 4
f 1 4 5
f 1 5 16
f 1 16 17
f 1 17 6
f 1 6 2
f 2 6 3
f 3 6 7
f 3 7 8
f 3 8 9
f 3 9 10
f 3 10 4
f 4 10 11
f 4 11 5
f 5 12 13
f 5 13 14
f 5 14 15
f 5 15 16
f 5 11 12
f 6 17 18
f 6 18 7
f 7 18 19
f 7 19 8
f 8 19 20
f 8 20 21
f 8 21 22
f 8 22 23
f 8 23 24
f 8 24 25
f 8 25 26
f 8 26 9
f 9 26 27
f 9 27 28
f 9 28 29
f 9 29 10
f 10 29 11
f 11 29 12
f 12 30 31
f 12 31 13
f 12 29 30
f 13 31 32
f 13 32 14
f 14 32 33
f 14 33 15
f 15 33 34
f 15 34 35
f 15 35 36
f 15 36 16
f 16 36 37
f 16 37 50
f 16 50 63
f 16 63 51
f 16 51 38
f 16 38 17
f 17 38 25
f 17 25 24
f 17 24 23
f 17 23 22
f 17 22 21
f 17 21 20
f 17 20 19
f 17 19 18
f 25 38 39
f 25 39 26
f 26 39 40
f 26 40 27
f 27 40 28
f 28 41 30
f 28 30 29
f 28 40 41
f 30 41 42
f 30 42 43
f 30 43 31
f 31 43 32
f 32 44 33
f 32 43 44
f 33 44 34
f 34 44 45
f 34 45 35
f 35 45 46
f 35 46 36
f 36 47 37
f 36 46 47
f 37 47 48
f 37 48 49
f 37 49 50
f 38 51 49
f 38 49 53
f 38 53 40
f 38 40 39
f 40 52 41
f 40 53 52
f 41 52 54
f 41 54 42
f 42 54 55
f 42 55 43
f 43 55 56
f 43 56 57
f 43 57 58
f 43 58 44
f 44 58 57
f 44 57 59
f 44 59 60
f 44 60 45
f 45 60 61
f 45 61 46
f 46 61 60
f 46 60 48
f 46 48 47
f 48 60 62
f 48 62 53
f 48 53 49
f 49 63 50
f 49 51 63
f 52 53 64
f 52 64 54
f 53 56 64
f 53 62 59
f 53 59 56
f 54 64 56
f 54 56 55
f 56 59 57
f 59 62 60

