# https://github.com/mikedh/trimesh
v -0.03350697 -0.00127503 0.04668460
v -0.03349796 -0.00042676 0.04668460
v -0.03347920 -0.00021624 0.04616870
v -0.03347920 -0.00042676 0.04616870
v -0.03346719 -0.00132044 0.04616870
v -0.03349346 -0.00170020 0.04668460
v -0.03348521 -0.00021624 0.04668460
v -0.03126221 -0.00021624 0.04616870
v -0.03344017 -0.00216871 0.04616870
v -0.03340340 -0.00301905 0.04616870
v -0.03345143 -0.00254847 0.04668460
v -0.03170275 -0.00021624 0.04668460
v -0.02625258 -0.01521270 0.04616870
v -0.02583980 -0.01776165 0.04668460
v -0.03334486 -0.00386732 0.04616870
v -0.03337188 -0.00382191 0.04668460
v -0.03342817 -0.00297364 0.04668460
v -0.02602592 -0.01589380 0.04616870
v -0.02721848 -0.01958822 0.04668460
v -0.02584355 -0.02118776 0.04666870
v -0.02583980 -0.02129715 0.04621395
v -0.02583980 -0.01645725 0.04616870
v -0.03332835 -0.00424502 0.04668460
v -0.03325630 -0.00471559 0.04616870
v -0.02797574 -0.01861818 0.04668460
v -0.02799450 -0.01864913 0.04656770
v -0.02773333 -0.01902890 0.04627465
v -0.02725450 -0.01962950 0.04621395
v -0.02689501 -0.02005260 0.04625915
v -0.02647323 -0.02055826 0.04621395
v -0.02611298 -0.02098137 0.04621395
v -0.02685523 -0.02011039 0.04616870
v -0.03314373 -0.00565261 0.04616870
v -0.03294559 -0.00721707 0.04616870
v -0.03321577 -0.00508297 0.04668460
v -0.02971992 -0.01614353 0.04668460
v -0.02802302 -0.01868628 0.04616870
v -0.02785116 -0.01890300 0.04616870
v -0.02877953 -0.01768115 0.04621395
v -0.02830146 -0.01831478 0.04622168
v -0.02819264 -0.01846751 0.04616870
v -0.03200596 -0.01150177 0.04619133
v -0.03250955 -0.00978252 0.04621395
v -0.03268667 -0.00891567 0.04621395
v -0.03282701 -0.00806534 0.04621395
v -0.03007716 -0.01576377 0.04616870
v -0.03277823 -0.00806534 0.04668460
v -0.03064679 -0.01460591 0.04668460
v -0.03046442 -0.01514459 0.04619133
v -0.03010793 -0.01569979 0.04625915
v -0.02976945 -0.01621990 0.04621395
v -0.02948501 -0.01664300 0.04621395
v -0.03173653 -0.01232321 0.04621395
v -0.03230316 -0.01035010 0.04668460
v -0.03219584 -0.01090323 0.04621395
v -0.03233618 -0.01045330 0.04621395
v -0.03132825 -0.01341296 0.04621395
v -0.03150387 -0.01297954 0.04621395
v -0.03254482 -0.00933878 0.04668460
v -0.03263038 -0.00891567 0.04668460
v -0.03270918 -0.00848844 0.04668460
v -0.03146334 -0.01287841 0.04668460
v -0.03104831 -0.01400324 0.04621395
v -0.03069557 -0.01470085 0.04621395
f 1 2 3
f 1 3 4
f 1 4 5
f 1 5 6
f 1 6 11
f 1 11 17
f 1 17 16
f 1 16 23
f 1 23 35
f 1 35 47
f 1 47 61
f 1 61 60
f 1 60 59
f 1 59 54
f 1 54 62
f 1 62 48
f 1 48 36
f 1 36 25
f 1 25 19
f 1 19 14
f 1 14 12
f 1 12 7
f 1 7 2
f 2 7 3
f 3 7 12
f 3 12 8
f 3 8 13
f 3 13 18
f 3 18 22
f 3 22 32
f 3 32 38
f 3 38 37
f 3 37 41
f 3 41 46
f 3 46 34
f 3 34 33
f 3 33 24
f 3 24 15
f 3 15 10
f 3 10 9
f 3 9 5
f 3 5 4
f 5 9 6
f 6 9 10
f 6 10 11
f 8 12 14
f 8 14 13
f 10 15 16
f 10 16 17
f 10 17 11
f 13 14 18
f 14 19 20
f 14 20 21
f 14 21 22
f 14 22 18
f 15 23 16
f 15 24 23
f 19 25 26
f 19 26 27
f 19 27 28
f 19 28 29
f 19 29 30
f 19 30 31
f 19 31 20
f 20 31 21
f 21 31 32
f 21 32 22
f 23 24 33
f 23 33 34
f 23 34 35
f 25 36 26
f 26 37 38
f 26 38 27
f 26 36 39
f 26 39 40
f 26 40 41
f 26 41 37
f 27 38 28
f 28 32 29
f 28 38 32
f 29 32 30
f 30 32 31
f 34 42 43
f 34 43 44
f 34 44 45
f 34 45 35
f 34 46 42
f 35 45 47
f 36 48 49
f 36 49 50
f 36 50 51
f 36 51 52
f 36 52 39
f 39 52 46
f 39 46 41
f 39 41 40
f 42 53 54
f 42 54 55
f 42 55 56
f 42 56 43
f 42 46 57
f 42 57 58
f 42 58 53
f 43 54 59
f 43 59 44
f 43 56 54
f 44 59 60
f 44 60 61
f 44 61 45
f 45 61 47
f 46 52 51
f 46 51 50
f 46 50 49
f 46 49 57
f 48 62 57
f 48 57 63
f 48 63 64
f 48 64 49
f 49 64 63
f 49 63 57
f 53 58 62
f 53 62 54
f 54 56 55
f 57 62 58

