# https://github.com/mikedh/trimesh
v -0.00963182 0.00466940 0.04616881
v -0.00959697 0.00382040 0.04616881
v -0.00959094 0.00382040 0.04617746
v -0.00962445 0.00466940 0.04617668
v -0.00962579 0.00489308 0.04616881
v -0.00958155 0.00367609 0.04616881
v -0.00916268 0.00382040 0.04660186
v -0.00949778 0.00297139 0.04616881
v -0.00915397 0.00297139 0.04655023
v -0.00959697 0.00551720 0.04616881
v -0.00873777 0.00382040 0.04676276
v -0.00910504 0.00466940 0.04660109
v -0.00867879 0.00212239 0.04680343
v -0.00872973 0.00297139 0.04678813
v -0.00932084 0.00212239 0.04616881
v -0.00910303 0.00212239 0.04643166
v -0.00853470 0.00066489 0.04672453
v -0.00860373 0.00127339 0.04677539
v -0.00901724 0.00551720 0.04657117
v -0.00941266 0.00636500 0.04616881
v -0.00806288 0.00212239 0.04698571
v -0.00849382 0.00680153 0.04668652
v -0.00806288 0.00127339 0.04697507
v -0.00910303 0.00132630 0.04616881
v -0.00844958 0.00009849 0.04664674
v -0.00798714 -0.00021418 0.04687036
v -0.00830549 0.01145783 0.04616881
v -0.00721440 0.00042558 0.04714539
v -0.00721440 0.00127339 0.04714051
v -0.00721440 0.00212239 0.04710494
v -0.00278504 0.00994621 0.04730064
v -0.00381983 0.00976102 0.04716522
v -0.00278504 0.01060882 0.04725454
v -0.00806288 0.01197252 0.04616881
v -0.00721440 -0.00021418 0.04713331
v -0.00879675 0.00026324 0.04616881
v -0.00856419 -0.00021418 0.04631874
v -0.00853671 -0.00021418 0.04636107
v -0.00839865 -0.00021418 0.04657228
v -0.00636592 -0.00021418 0.04726019
v -0.00636592 0.00042558 0.04726429
v -0.00636592 0.00127339 0.04724423
v -0.00636592 0.00212239 0.04721354
v -0.00278504 0.00976102 0.04729388
v -0.00278504 0.01079522 0.04721066
v -0.00278504 0.01146143 0.04694770
v -0.00278504 0.01156606 0.04688653
v -0.00278504 0.01168391 0.04681462
v -0.00278504 0.01187271 0.04663688
v -0.00278504 0.01195929 0.04644318
v -0.00278504 0.01207113 0.04616881
v -0.00865802 -0.00021418 0.04616881
v -0.00551745 -0.00021418 0.04716533
v -0.00278504 0.00909721 0.04724146
v -0.00278504 0.00690014 0.04616881
v -0.00441899 -0.00021418 0.04616881
v -0.00487875 -0.00021418 0.04684775
v -0.00278504 0.00811111 0.04696920
v -0.00278504 0.00705527 0.04632594
v -0.00446456 -0.00021418 0.04625081
v -0.00278504 0.00748699 0.04671766
f 1 2 3
f 1 3 4
f 1 4 5
f 1 5 10
f 1 10 20
f 1 20 27
f 1 27 34
f 1 34 51
f 1 51 55
f 1 55 56
f 1 56 52
f 1 52 36
f 1 36 24
f 1 24 15
f 1 15 8
f 1 8 6
f 1 6 2
f 2 6 3
f 3 7 4
f 3 6 8
f 3 8 9
f 3 9 7
f 4 7 5
f 5 7 10
f 7 11 12
f 7 12 10
f 7 9 13
f 7 13 14
f 7 14 11
f 8 15 16
f 8 16 9
f 9 16 17
f 9 17 18
f 9 18 13
f 10 19 20
f 10 12 19
f 11 14 21
f 11 21 22
f 11 22 12
f 12 22 19
f 13 18 23
f 13 23 21
f 13 21 14
f 15 24 25
f 15 25 17
f 15 17 16
f 17 25 26
f 17 26 18
f 18 26 23
f 19 22 27
f 19 27 20
f 21 23 28
f 21 28 29
f 21 29 30
f 21 30 22
f 22 31 32
f 22 32 33
f 22 33 34
f 22 34 27
f 22 30 31
f 23 26 35
f 23 35 28
f 24 36 25
f 25 36 37
f 25 37 38
f 25 38 39
f 25 39 26
f 26 39 38
f 26 38 37
f 26 37 52
f 26 52 56
f 26 56 60
f 26 60 57
f 26 57 53
f 26 53 40
f 26 40 35
f 28 35 40
f 28 40 41
f 28 41 29
f 29 42 43
f 29 43 30
f 29 41 42
f 30 43 31
f 31 44 54
f 31 54 58
f 31 58 61
f 31 61 59
f 31 59 55
f 31 55 51
f 31 51 50
f 31 50 49
f 31 49 48
f 31 48 47
f 31 47 46
f 31 46 45
f 31 45 33
f 31 33 32
f 31 43 42
f 31 42 41
f 31 41 40
f 31 40 44
f 33 45 34
f 34 45 46
f 34 46 47
f 34 47 48
f 34 48 49
f 34 49 50
f 34 50 51
f 36 52 37
f 40 53 44
f 44 53 54
f 53 57 54
f 54 57 58
f 55 59 56
f 56 59 61
f 56 61 60
f 57 60 58
f 58 60 61

