# https://github.com/mikedh/trimesh
v 0.00032793 -0.03287163 -0.04540728
v 0.00212216 -0.03283483 -0.04455677
v 0.00032793 -0.03283483 -0.04415809
v 0.00032793 -0.03031968 -0.05100056
v 0.00035279 -0.03259804 -0.04924934
v 0.00081324 -0.03279483 -0.04755422
v 0.00339649 -0.03275163 -0.04413447
v 0.00032793 -0.03245404 -0.03861797
v 0.00032793 -0.03273563 -0.04243640
v 0.00032793 -0.01825113 -0.04774027
v 0.01136999 -0.02803013 -0.05111573
v 0.00037765 -0.03127486 -0.05110097
v 0.00037765 -0.03219484 -0.05045718
v 0.00373804 -0.03226204 -0.04982225
v 0.00169846 -0.03254044 -0.04922571
v 0.00254693 -0.03261724 -0.04816553
v 0.00509452 -0.03256124 -0.04413447
v 0.00424497 -0.03254204 -0.04243640
v 0.00050519 -0.03231964 -0.03750758
v 0.00037765 -0.03177085 -0.03268212
v 0.00032793 -0.03102527 -0.02758792
v 0.00032793 -0.01652636 -0.04727072
v 0.01132244 -0.02969410 -0.05069638
v 0.01009134 -0.02970529 -0.05103600
v 0.00689523 -0.03056768 -0.05105667
v 0.00551930 -0.03083807 -0.05106257
v 0.00933473 -0.01652636 -0.04772846
v 0.01103493 -0.01652636 -0.04757489
v 0.01136999 -0.01652636 -0.02094922
v 0.01136999 -0.03069247 -0.04836634
v 0.00377479 -0.03138846 -0.05092082
v 0.00169846 -0.03175005 -0.05081451
v 0.00297171 -0.03187005 -0.05055168
v 0.00636453 -0.03135966 -0.05049852
v 0.00757401 -0.03148446 -0.04976319
v 0.00721409 -0.03180605 -0.04880341
v 0.00422983 -0.03232444 -0.04899241
v 0.00534312 -0.03225884 -0.04821278
v 0.00806256 -0.03190045 -0.04455677
v 0.00680768 -0.03216124 -0.04370921
v 0.00583059 -0.03232444 -0.04289119
v 0.00542851 -0.03233404 -0.04201114
v 0.00419416 -0.03232924 -0.04048731
v 0.00169846 -0.03164445 -0.03268212
v 0.01135702 -0.02888771 -0.02094922
v 0.00032793 -0.03002049 -0.02094922
v 0.00032793 -0.01652636 -0.02094922
v 0.00988489 -0.03048608 -0.05044832
v 0.00862677 -0.03059648 -0.05082042
v 0.01109654 -0.03042688 -0.04972184
v 0.00509452 -0.03128926 -0.05084404
v 0.01136999 -0.03023649 -0.03399627
v 0.01018429 -0.03116607 -0.04795290
v 0.00935095 -0.03115966 -0.04924048
v 0.01136999 -0.03098207 -0.04415514
v 0.01027508 -0.03130686 -0.04413447
v 0.00891212 -0.03166525 -0.04413447
v 0.00806256 -0.03185085 -0.04370921
v 0.00975951 -0.03116127 -0.04031603
v 0.00466974 -0.03189725 -0.03734220
v 0.00382127 -0.03189245 -0.03649464
v 0.01060799 -0.03084127 -0.03904027
v 0.01127380 -0.03054048 -0.03745442
v 0.01136999 -0.03070527 -0.04000595
f 1 2 3
f 1 3 9
f 1 9 8
f 1 8 21
f 1 21 46
f 1 46 47
f 1 47 22
f 1 22 10
f 1 10 4
f 1 4 5
f 1 5 6
f 1 6 2
f 2 7 8
f 2 8 9
f 2 9 3
f 2 6 7
f 4 10 11
f 4 11 12
f 4 12 13
f 4 13 5
f 5 13 14
f 5 14 15
f 5 15 6
f 6 15 16
f 6 16 7
f 7 16 17
f 7 17 18
f 7 18 8
f 8 19 20
f 8 20 21
f 8 18 19
f 10 22 11
f 11 23 24
f 11 24 25
f 11 25 26
f 11 26 12
f 11 22 27
f 11 27 28
f 11 28 29
f 11 29 52
f 11 52 64
f 11 64 55
f 11 55 30
f 11 30 23
f 12 26 31
f 12 31 32
f 12 32 13
f 13 32 33
f 13 33 14
f 14 33 34
f 14 34 35
f 14 35 36
f 14 36 37
f 14 37 16
f 14 16 15
f 16 38 17
f 16 37 38
f 17 39 40
f 17 40 41
f 17 41 42
f 17 42 18
f 17 38 39
f 18 42 43
f 18 43 19
f 19 43 20
f 20 44 21
f 20 43 44
f 21 44 45
f 21 45 46
f 22 47 29
f 22 29 28
f 22 28 27
f 23 48 49
f 23 49 24
f 23 30 50
f 23 50 48
f 24 49 25
f 25 49 51
f 25 51 26
f 26 51 31
f 29 47 46
f 29 46 45
f 29 45 52
f 30 53 54
f 30 54 50
f 30 55 53
f 31 51 33
f 31 33 32
f 33 51 34
f 34 51 49
f 34 49 35
f 35 50 54
f 35 54 36
f 35 49 48
f 35 48 50
f 36 54 53
f 36 53 39
f 36 39 38
f 36 38 37
f 39 56 57
f 39 57 58
f 39 58 40
f 39 53 56
f 40 58 59
f 40 59 52
f 40 52 41
f 41 52 42
f 42 52 45
f 42 45 60
f 42 60 43
f 43 60 61
f 43 61 44
f 44 61 45
f 45 61 60
f 52 59 62
f 52 62 63
f 52 63 64
f 53 55 56
f 55 64 56
f 56 64 62
f 56 62 59
f 56 59 57
f 57 59 58
f 62 64 63

