# https://github.com/mikedh/trimesh
v 0.01097236 0.03234647 0.04875067
v 0.01197654 0.03138288 0.04616917
v 0.01060639 0.03188700 0.04616964
v 0.01085878 0.03234359 0.04990439
v 0.01231006 0.03185531 0.04922955
v 0.01364415 0.03130654 0.04880492
v 0.01060459 0.02965879 0.04616917
v 0.01355220 0.03068431 0.04616917
v 0.01060459 0.03016435 0.04965372
v 0.01113101 0.03158597 0.05074291
v 0.01271750 0.03153844 0.05013963
v 0.01400832 0.03115099 0.04965372
v 0.01523063 0.03058205 0.04919027
v 0.01706050 0.02959974 0.04880492
v 0.02652713 0.01763337 0.04616964
v 0.02686426 0.01763193 0.04935957
v 0.02805413 0.01812597 0.04616917
v 0.01524325 0.02982443 0.04616917
v 0.01117248 0.03051291 0.05079482
v 0.01607796 0.02882628 0.05094681
v 0.01570478 0.02999727 0.05040152
v 0.01434545 0.03075777 0.05031126
v 0.01659537 0.02967608 0.05002879
v 0.01795290 0.02892422 0.04995303
v 0.01827380 0.02887092 0.04880492
v 0.01797273 0.02894438 0.04821566
v 0.02902224 0.01801362 0.04859587
v 0.02891407 0.01777308 0.04991468
v 0.02751688 0.01794160 0.05032669
v 0.02624589 0.02071858 0.04616917
v 0.02813345 0.01944388 0.04874740
v 0.01704428 0.02879315 0.04616917
v 0.02673446 0.01909820 0.05050487
v 0.02418887 0.02249453 0.05074759
v 0.01891561 0.02816516 0.05024111
v 0.02231033 0.02566328 0.05025561
v 0.02156035 0.02641370 0.04993292
v 0.01955020 0.02801248 0.04918092
v 0.02078333 0.02715260 0.04880492
v 0.02049488 0.02725486 0.04822221
v 0.01849915 0.02790013 0.04616917
v 0.02721401 0.02067249 0.04990907
v 0.02768455 0.01948709 0.05023222
v 0.02673446 0.01994800 0.05057175
v 0.02643699 0.02160007 0.04847288
v 0.02715992 0.02079924 0.04880492
v 0.02547789 0.02164328 0.04616917
v 0.02567079 0.02231880 0.04795704
v 0.02522369 0.02205090 0.05057081
v 0.02437456 0.02363672 0.05029957
v 0.02363360 0.02473570 0.04913181
v 0.02266007 0.02560567 0.04922955
v 0.02556803 0.02278403 0.04934507
v 0.02158739 0.02643675 0.04847054
v 0.02286379 0.02519373 0.04795704
v 0.02072925 0.02625526 0.04616917
v 0.01950874 0.02721021 0.04616917
v 0.02632882 0.02168361 0.05001009
v 0.02676871 0.02079924 0.05035990
v 0.02462696 0.02378075 0.04883999
v 0.02444667 0.02274082 0.04616917
v 0.02299901 0.02426615 0.04616917
v 0.02209579 0.02511307 0.04616917
f 1 2 3
f 1 3 4
f 1 4 5
f 1 5 6
f 1 6 2
f 2 7 3
f 2 6 8
f 2 8 18
f 2 18 32
f 2 32 41
f 2 41 57
f 2 57 56
f 2 56 63
f 2 63 62
f 2 62 61
f 2 61 47
f 2 47 30
f 2 30 17
f 2 17 7
f 3 7 9
f 3 9 4
f 4 9 10
f 4 10 11
f 4 11 12
f 4 12 5
f 5 12 6
f 6 12 13
f 6 13 14
f 6 14 8
f 7 15 16
f 7 16 9
f 7 17 15
f 8 14 18
f 9 19 10
f 9 16 19
f 10 19 20
f 10 20 21
f 10 21 22
f 10 22 11
f 11 22 12
f 12 22 23
f 12 23 13
f 13 23 24
f 13 24 14
f 14 24 25
f 14 25 26
f 14 26 18
f 15 17 27
f 15 27 28
f 15 28 16
f 16 28 29
f 16 29 19
f 17 30 31
f 17 31 27
f 18 26 32
f 19 29 33
f 19 33 34
f 19 34 20
f 20 35 21
f 20 34 36
f 20 36 35
f 21 35 24
f 21 24 23
f 21 23 22
f 24 35 37
f 24 37 38
f 24 38 25
f 25 38 39
f 25 39 40
f 25 40 26
f 26 40 41
f 26 41 32
f 27 31 42
f 27 42 28
f 28 42 43
f 28 43 44
f 28 44 29
f 29 44 33
f 30 45 46
f 30 46 31
f 30 47 48
f 30 48 45
f 31 46 42
f 33 44 34
f 34 44 49
f 34 49 50
f 34 50 36
f 35 36 37
f 36 51 52
f 36 52 37
f 36 50 53
f 36 53 51
f 37 52 39
f 37 39 38
f 39 52 54
f 39 54 40
f 40 54 55
f 40 55 56
f 40 56 57
f 40 57 41
f 42 46 53
f 42 53 58
f 42 58 59
f 42 59 43
f 43 59 44
f 44 59 49
f 45 48 60
f 45 60 53
f 45 53 46
f 47 61 48
f 48 61 62
f 48 62 60
f 49 59 50
f 50 59 58
f 50 58 53
f 51 55 54
f 51 54 52
f 51 53 60
f 51 60 55
f 55 60 62
f 55 62 63
f 55 63 56

