# https://github.com/mikedh/trimesh
v 0.02068644 -0.03548140 -0.00077717
v 0.02782817 -0.03552664 -0.00334577
v 0.02632285 -0.03552664 -0.00271264
v 0.02497665 -0.03552664 -0.00200016
v 0.02415026 -0.03552664 -0.00074030
v 0.02414610 -0.03552664 -0.00015445
v 0.02415110 -0.03552664 0.00073674
v 0.02492167 -0.03552664 0.00220657
v 0.02561976 -0.03552664 0.00302724
v 0.02068644 -0.03514365 0.00090424
v 0.02068644 -0.03403363 -0.00179098
v 0.02919604 -0.03552664 -0.00372325
v 0.02068644 -0.03244699 -0.00238164
v 0.02642615 -0.03552664 0.00350089
v 0.02068644 -0.03463547 0.00136507
v 0.02919604 -0.03465756 0.00435522
v 0.02919521 -0.03552664 0.00420455
v 0.02068644 -0.03093504 -0.00268619
v 0.02068644 -0.02942836 -0.00272305
v 0.02068644 -0.02672328 -0.00267417
v 0.02919604 -0.03232914 -0.00359662
v 0.02782151 -0.03552664 0.00388798
v 0.02068644 -0.03048788 0.00295111
v 0.02068644 -0.03214081 0.00253196
v 0.02068644 -0.03377375 0.00191084
v 0.02919604 -0.03395367 0.00446422
v 0.02068644 -0.02521344 -0.00261246
v 0.02919604 -0.02933998 -0.00333455
v 0.02575888 -0.02712520 -0.00302600
v 0.02091803 -0.03011121 0.00303766
v 0.02068644 -0.02975874 0.00297996
v 0.02919604 -0.02954410 0.00411078
v 0.02263328 -0.02564271 0.00301923
v 0.02068644 -0.02477784 -0.00255395
v 0.02919604 -0.02829835 -0.00314862
v 0.02692348 -0.02733458 -0.00300917
v 0.02068644 -0.02477784 0.00266580
v 0.02919604 -0.02791957 0.00390482
v 0.02199100 -0.02477784 0.00286135
v 0.02176108 -0.02477784 -0.00245618
v 0.02919604 -0.02739876 -0.00225902
v 0.02490084 -0.02514189 -0.00208271
v 0.02613792 -0.02541860 -0.00185590
v 0.02919604 -0.02677483 0.00334301
v 0.02735833 -0.02556906 0.00310017
v 0.02640866 -0.02551435 0.00312983
v 0.02326140 -0.02477784 0.00269946
v 0.02347050 -0.02477784 -0.00209393
v 0.02915605 -0.02706312 -0.00187754
v 0.02919604 -0.02657282 -0.00079881
v 0.02456679 -0.02477784 -0.00181823
v 0.02543566 -0.02477784 -0.00123559
v 0.02714424 -0.02566586 -0.00148003
v 0.02919604 -0.02627085 0.00226348
v 0.02758742 -0.02541755 0.00226348
v 0.02624954 -0.02477784 0.00210078
v 0.02490334 -0.02477784 0.00238209
v 0.02793064 -0.02590049 -0.00088777
v 0.02743581 -0.02549436 -0.00047423
v 0.02919604 -0.02621403 0.00075437
v 0.02581053 -0.02477784 -0.00086453
v 0.02654778 -0.02514504 -0.00088777
v 0.02660942 -0.02477784 0.00067663
v 0.02616124 -0.02477784 -0.00038206
f 1 2 3
f 1 3 4
f 1 4 5
f 1 5 6
f 1 6 7
f 1 7 8
f 1 8 9
f 1 9 10
f 1 10 15
f 1 15 25
f 1 25 24
f 1 24 23
f 1 23 31
f 1 31 37
f 1 37 34
f 1 34 27
f 1 27 20
f 1 20 19
f 1 19 18
f 1 18 13
f 1 13 11
f 1 11 2
f 2 12 17
f 2 17 22
f 2 22 14
f 2 14 9
f 2 9 8
f 2 8 7
f 2 7 6
f 2 6 5
f 2 5 4
f 2 4 3
f 2 11 13
f 2 13 12
f 9 14 10
f 10 14 15
f 12 16 17
f 12 13 18
f 12 18 19
f 12 19 20
f 12 20 21
f 12 21 28
f 12 28 35
f 12 35 41
f 12 41 50
f 12 50 60
f 12 60 54
f 12 54 44
f 12 44 38
f 12 38 32
f 12 32 26
f 12 26 16
f 14 22 23
f 14 23 24
f 14 24 25
f 14 25 15
f 16 22 17
f 16 26 23
f 16 23 22
f 20 27 21
f 21 27 29
f 21 29 28
f 23 26 30
f 23 30 31
f 26 32 33
f 26 33 30
f 27 34 29
f 28 29 35
f 29 34 36
f 29 36 35
f 30 33 31
f 31 33 37
f 32 38 39
f 32 39 33
f 33 39 37
f 34 37 39
f 34 39 47
f 34 47 57
f 34 57 56
f 34 56 63
f 34 63 64
f 34 64 61
f 34 61 52
f 34 52 51
f 34 51 48
f 34 48 40
f 34 40 36
f 35 36 42
f 35 42 43
f 35 43 41
f 36 40 42
f 38 44 45
f 38 45 46
f 38 46 39
f 39 46 45
f 39 45 47
f 40 48 42
f 41 43 49
f 41 49 50
f 42 48 51
f 42 51 43
f 43 51 52
f 43 52 53
f 43 53 49
f 44 54 45
f 45 55 56
f 45 56 57
f 45 57 47
f 45 54 55
f 49 53 50
f 50 53 58
f 50 58 59
f 50 59 60
f 52 61 53
f 53 61 62
f 53 62 58
f 54 60 63
f 54 63 55
f 55 63 56
f 58 62 59
f 59 62 64
f 59 64 63
f 59 63 60
f 61 64 62

