# https://github.com/mikedh/trimesh
v 0.01735622 -0.06661005 -0.00583871
v 0.01265284 -0.07283764 -0.00533674
v 0.01123374 -0.07225943 -0.00534182
v 0.01132197 -0.07017274 -0.00545874
v 0.01605722 -0.06606368 -0.00567351
v 0.02339048 -0.06606368 -0.00520838
v 0.01886111 -0.06661005 -0.00573705
v 0.01886111 -0.06866491 -0.00558074
v 0.01416263 -0.07283764 -0.00527447
v 0.00824357 -0.07283764 -0.00354488
v 0.00933425 -0.07225745 -0.00484366
v 0.00934405 -0.07017274 -0.00488687
v 0.01132197 -0.06866491 -0.00532403
v 0.00892984 -0.06617839 -0.00418918
v 0.00740534 -0.06606368 -0.00270232
v 0.02933404 -0.06606368 -0.00439506
v 0.02884630 -0.06782148 -0.00462381
v 0.02036845 -0.07283764 -0.00472293
v 0.01851307 -0.07283764 -0.00490085
v 0.00723378 -0.07283764 0.00377125
v 0.00670927 -0.07225943 0.00075305
v 0.00693966 -0.07225943 -0.00066519
v 0.00751074 -0.07228927 -0.00237572
v 0.00803034 -0.07153735 -0.00362240
v 0.00742250 -0.06817491 -0.00285355
v 0.00928033 -0.06838045 -0.00468989
v 0.00657937 -0.06606368 -0.00097654
v 0.03071393 -0.06606368 -0.00366560
v 0.03025315 -0.07130262 -0.00310517
v 0.02977767 -0.07283764 -0.00298699
v 0.02791494 -0.07283764 -0.00382192
v 0.02623113 -0.07283764 -0.00407735
v 0.00648624 -0.07017274 0.00226279
v 0.00684408 -0.07225943 0.00226279
v 0.00762593 -0.07283764 0.00516916
v 0.00635879 -0.07017274 0.00075305
v 0.00664065 -0.07017274 -0.00075288
v 0.00736368 -0.07036371 -0.00264640
v 0.00653526 -0.06866491 -0.00075288
v 0.00621173 -0.06661005 0.00075305
v 0.00666761 -0.06606368 0.00356284
v 0.03125069 -0.06606368 -0.00226262
v 0.03064285 -0.07283764 -0.00095113
v 0.00640536 -0.06866491 0.00226279
v 0.00624604 -0.06866491 0.00075305
v 0.00711123 -0.07017274 0.00436600
v 0.00926317 -0.07254854 0.00668906
v 0.00816514 -0.07168190 0.00602061
v 0.00789799 -0.07017274 0.00571434
v 0.01318470 -0.07283764 0.00697754
v 0.00633673 -0.06661005 0.00215731
v 0.00777299 -0.06606368 0.00514247
v 0.03115756 -0.06606368 0.00542459
v 0.03009384 -0.07283764 0.00573594
v 0.00865288 -0.07017274 0.00625825
v 0.01132197 -0.07225943 0.00698262
v 0.00980973 -0.07017274 0.00664840
v 0.02942473 -0.06866491 0.00714402
v 0.00912101 -0.06797598 0.00602442
v 0.01019208 -0.06606368 0.00588971
v 0.03003992 -0.06606368 0.00689621
v 0.01584889 -0.07017274 0.00700550
v 0.01714789 -0.06606368 0.00690002
v 0.01324842 -0.06606368 0.00647683
f 1 2 3
f 1 3 4
f 1 4 5
f 1 5 6
f 1 6 7
f 1 7 8
f 1 8 2
f 2 8 9
f 2 9 19
f 2 19 18
f 2 18 32
f 2 32 31
f 2 31 30
f 2 30 43
f 2 43 54
f 2 54 50
f 2 50 35
f 2 35 20
f 2 20 10
f 2 10 11
f 2 11 3
f 3 11 4
f 4 11 12
f 4 12 13
f 4 13 5
f 5 13 14
f 5 14 15
f 5 15 27
f 5 27 41
f 5 41 52
f 5 52 60
f 5 60 64
f 5 64 63
f 5 63 61
f 5 61 53
f 5 53 42
f 5 42 28
f 5 28 16
f 5 16 6
f 6 16 17
f 6 17 7
f 7 17 8
f 8 17 18
f 8 18 19
f 8 19 9
f 10 20 21
f 10 21 22
f 10 22 23
f 10 23 24
f 10 24 11
f 11 24 12
f 12 24 25
f 12 25 15
f 12 15 14
f 12 14 26
f 12 26 13
f 13 26 14
f 15 25 27
f 16 28 17
f 17 28 29
f 17 29 30
f 17 30 31
f 17 31 32
f 17 32 18
f 20 33 34
f 20 34 21
f 20 35 33
f 21 34 33
f 21 33 36
f 21 36 22
f 22 36 37
f 22 37 23
f 23 37 38
f 23 38 24
f 24 38 25
f 25 38 27
f 27 39 40
f 27 40 41
f 27 38 39
f 28 42 29
f 29 42 43
f 29 43 30
f 33 44 45
f 33 45 36
f 33 35 46
f 33 46 44
f 35 47 48
f 35 48 49
f 35 49 46
f 35 50 47
f 36 45 37
f 37 45 39
f 37 39 38
f 39 45 40
f 40 45 51
f 40 51 41
f 41 51 44
f 41 44 46
f 41 46 49
f 41 49 52
f 42 53 43
f 43 53 54
f 44 51 45
f 47 55 48
f 47 50 56
f 47 56 57
f 47 57 55
f 48 55 49
f 49 55 52
f 50 54 58
f 50 58 56
f 52 55 59
f 52 59 60
f 53 61 54
f 54 61 58
f 55 57 59
f 56 58 62
f 56 62 63
f 56 63 57
f 57 63 64
f 57 64 60
f 57 60 59
f 58 61 63
f 58 63 62

