# https://github.com/mikedh/trimesh
v -0.05206497 0.09101782 -0.00377192
v -0.05206497 0.09084387 -0.00226450
v -0.05052376 0.09066178 -0.00182490
v -0.05051544 0.09078996 -0.00431441
v -0.05401376 0.09068824 -0.00419723
v -0.05481705 0.09039527 -0.00258405
v -0.05314512 0.09062924 -0.00187406
v -0.05206497 0.09036983 -0.00057071
v -0.05049048 0.08984799 -0.00050612
v -0.05052376 0.08977476 -0.00530165
v -0.05206497 0.09027117 -0.00504269
v -0.05049048 0.08675560 -0.00495180
v -0.05357409 0.08979103 -0.00507699
v -0.05495845 0.08975441 -0.00474601
v -0.05714728 0.08890095 -0.00434071
v -0.05757150 0.08919391 -0.00300935
v -0.05352894 0.08989784 -0.00076107
v -0.05653293 0.08918679 -0.00164941
v -0.05320216 0.08911660 0.00020558
v -0.05206497 0.08912067 0.00032620
v -0.05049048 0.08703432 -0.00105833
v -0.05070557 0.08866597 -0.00001679
v -0.05052376 0.08826518 -0.00535995
v -0.05206497 0.08828145 -0.00537767
v -0.05357409 0.08828145 -0.00534109
v -0.05049048 0.08580957 -0.00416293
v -0.05836052 0.08062676 -0.00483747
v -0.05960823 0.08062676 -0.00527421
v -0.05508322 0.08828145 -0.00520561
v -0.05810029 0.08677290 -0.00513015
v -0.05662324 0.08835164 -0.00491293
v -0.05810029 0.08785727 -0.00474944
v -0.05902121 0.08769451 -0.00418008
v -0.05986252 0.08695295 -0.00377192
v -0.05858986 0.08800579 -0.00206614
v -0.06066105 0.08497849 -0.00124240
v -0.06114469 0.08369474 -0.00105147
v -0.05960823 0.08375679 -0.00055814
v -0.06115776 0.08062676 -0.00083024
v -0.05966526 0.08062676 -0.00085425
v -0.05049048 0.08602522 -0.00222734
v -0.05862195 0.08062676 -0.00131900
v -0.05960823 0.08224823 -0.00543141
v -0.05960823 0.08375679 -0.00551373
v -0.05659116 0.08677290 -0.00531708
v -0.05741583 0.08084445 -0.00245600
v -0.05756793 0.08062676 -0.00390740
v -0.06111736 0.08062676 -0.00529250
v -0.05960823 0.08526535 -0.00521190
v -0.06066105 0.08526535 -0.00481289
v -0.06044597 0.08611576 -0.00415435
v -0.06111973 0.08526535 -0.00377192
v -0.06052202 0.08590113 -0.00195581
v -0.06182320 0.08368762 -0.00226450
v -0.06111736 0.08224823 -0.00081766
v -0.06210007 0.08247304 -0.00180089
v -0.06230683 0.08062676 -0.00179518
v -0.06111736 0.08224823 -0.00535309
v -0.06159505 0.08354317 -0.00494837
v -0.06263005 0.08068271 -0.00377192
v -0.06218087 0.08068271 -0.00486491
v -0.06187667 0.08380155 -0.00377192
v -0.06234961 0.08224823 -0.00377192
v -0.06210958 0.08224823 -0.00489006
f 1 2 3
f 1 3 4
f 1 4 5
f 1 5 6
f 1 6 7
f 1 7 2
f 2 7 8
f 2 8 3
f 3 9 4
f 3 8 9
f 4 10 11
f 4 11 5
f 4 9 12
f 4 12 10
f 5 13 14
f 5 14 15
f 5 15 16
f 5 16 6
f 5 11 13
f 6 17 8
f 6 8 7
f 6 16 18
f 6 18 17
f 8 17 19
f 8 19 20
f 8 20 9
f 9 21 41
f 9 41 26
f 9 26 12
f 9 20 22
f 9 22 21
f 10 12 23
f 10 23 24
f 10 24 25
f 10 25 13
f 10 13 11
f 12 26 27
f 12 27 28
f 12 28 23
f 13 25 29
f 13 29 30
f 13 30 31
f 13 31 32
f 13 32 14
f 14 32 15
f 15 32 33
f 15 33 16
f 16 33 34
f 16 34 35
f 16 35 18
f 17 18 19
f 18 35 36
f 18 36 19
f 19 36 37
f 19 37 38
f 19 38 20
f 20 38 39
f 20 39 40
f 20 40 22
f 21 22 40
f 21 40 42
f 21 42 41
f 23 28 43
f 23 43 44
f 23 44 24
f 24 44 25
f 25 45 29
f 25 44 45
f 26 41 46
f 26 46 47
f 26 47 27
f 27 47 42
f 27 42 40
f 27 40 39
f 27 39 57
f 27 57 48
f 27 48 28
f 28 48 43
f 29 45 30
f 30 44 49
f 30 49 32
f 30 32 31
f 30 45 44
f 32 49 50
f 32 50 33
f 33 50 51
f 33 51 34
f 34 51 52
f 34 52 53
f 34 53 35
f 35 53 36
f 36 53 54
f 36 54 37
f 37 55 38
f 37 54 56
f 37 56 55
f 38 55 39
f 39 55 57
f 41 42 46
f 42 47 46
f 43 48 44
f 44 48 58
f 44 58 59
f 44 59 49
f 48 57 60
f 48 60 61
f 48 61 58
f 49 59 50
f 50 59 52
f 50 52 51
f 52 59 62
f 52 62 54
f 52 54 53
f 54 62 63
f 54 63 56
f 55 56 57
f 56 63 60
f 56 60 57
f 58 61 64
f 58 64 59
f 59 64 62
f 60 63 64
f 60 64 61
f 62 64 63

