# https://github.com/mikedh/trimesh
v 0.01761440 -0.04028554 -0.00056808
v 0.01760047 -0.04028554 -0.00079580
v 0.01734215 -0.04028554 0.00069226
v 0.01762083 -0.04513875 0.00312599
v 0.01762083 -0.04499747 0.00300675
v 0.01762083 -0.04436483 0.00221510
v 0.01762083 -0.04330214 0.00065582
v 0.01762083 -0.04329947 0.00027159
v 0.01762083 -0.04331280 -0.00063019
v 0.01762083 -0.04453988 -0.00200729
v 0.01762083 -0.04570564 -0.00281301
v 0.01762083 -0.04633473 -0.00315832
v 0.01688232 -0.04028554 -0.00167688
v 0.01724890 -0.04028554 0.00078418
v 0.01762083 -0.04588069 0.00360876
v 0.01762083 -0.04780260 -0.00352268
v 0.01433555 -0.04028554 -0.00255879
v 0.01583081 -0.04028554 -0.00214144
v 0.01613951 -0.04028554 -0.00200563
v 0.01648680 -0.04028554 0.00143256
v 0.01762083 -0.04602730 0.00368329
v 0.01579222 -0.04028554 0.00190457
v 0.01762083 -0.04931134 -0.00374129
v 0.01282636 -0.04028554 -0.00272441
v 0.01762083 -0.04753959 0.00433830
v 0.01558214 -0.04028554 0.00202878
v 0.01433555 -0.04028554 0.00255958
v 0.01762083 -0.04936199 -0.00374709
v 0.01010381 -0.04028554 -0.00276664
v 0.01762083 -0.04793233 0.00450309
v 0.01403650 -0.04028554 0.00265398
v 0.01762083 -0.04936199 0.00471260
v 0.01035677 -0.04936199 -0.00301672
v 0.00981012 -0.04028554 -0.00276001
v 0.01762083 -0.04828596 0.00456520
v 0.01281457 -0.04028554 0.00285521
v 0.01254982 -0.04028554 0.00285852
v 0.01132896 -0.04028554 0.00284362
v 0.01762083 -0.04904567 0.00467782
v 0.00830093 -0.04602730 0.00327008
v 0.00830093 -0.04936199 0.00360131
v 0.00998162 -0.04936199 -0.00296124
v 0.00979940 -0.04936199 -0.00293225
v 0.00859462 -0.04028554 -0.00253312
v 0.01762083 -0.04869825 0.00462648
v 0.00981012 -0.04028554 0.00273845
v 0.00830093 -0.04495305 0.00313262
v 0.00754205 -0.04526226 0.00302248
v 0.00730302 -0.04936199 0.00325600
v 0.00855282 -0.04936199 -0.00247598
v 0.00830093 -0.04028554 -0.00245031
v 0.00830093 -0.04028554 0.00244282
v 0.00719369 -0.04028554 0.00186317
v 0.00682925 -0.04936199 0.00226313
v 0.00830093 -0.04936199 -0.00235425
v 0.00743915 -0.04028554 -0.00192614
v 0.00667169 -0.04028554 0.00075437
v 0.00667169 -0.04936199 0.00075437
v 0.00758171 -0.04936199 -0.00184250
v 0.00725907 -0.04028554 -0.00180606
v 0.00673707 -0.04028554 -0.00075440
v 0.00699325 -0.04936199 -0.00075440
v 0.00739520 -0.04936199 -0.00170007
v 0.00682175 -0.04028554 -0.00093823
f 1 2 13
f 1 13 19
f 1 19 18
f 1 18 17
f 1 17 24
f 1 24 29
f 1 29 34
f 1 34 44
f 1 44 51
f 1 51 56
f 1 56 60
f 1 60 64
f 1 64 61
f 1 61 57
f 1 57 53
f 1 53 52
f 1 52 46
f 1 46 38
f 1 38 37
f 1 37 36
f 1 36 31
f 1 31 27
f 1 27 26
f 1 26 22
f 1 22 20
f 1 20 14
f 1 14 3
f 1 3 4
f 1 4 5
f 1 5 6
f 1 6 7
f 1 7 8
f 1 8 9
f 1 9 10
f 1 10 11
f 1 11 12
f 1 12 2
f 2 12 13
f 3 14 15
f 3 15 4
f 4 15 21
f 4 21 25
f 4 25 30
f 4 30 35
f 4 35 45
f 4 45 39
f 4 39 32
f 4 32 28
f 4 28 23
f 4 23 16
f 4 16 12
f 4 12 11
f 4 11 10
f 4 10 9
f 4 9 8
f 4 8 7
f 4 7 6
f 4 6 5
f 12 16 17
f 12 17 18
f 12 18 19
f 12 19 13
f 14 20 15
f 15 20 22
f 15 22 21
f 16 23 24
f 16 24 17
f 21 22 26
f 21 26 27
f 21 27 25
f 23 28 29
f 23 29 24
f 25 27 30
f 27 31 30
f 28 32 41
f 28 41 49
f 28 49 54
f 28 54 58
f 28 58 62
f 28 62 63
f 28 63 59
f 28 59 55
f 28 55 50
f 28 50 43
f 28 43 42
f 28 42 33
f 28 33 34
f 28 34 29
f 30 31 36
f 30 36 37
f 30 37 38
f 30 38 35
f 32 39 40
f 32 40 41
f 33 42 34
f 34 42 43
f 34 43 44
f 35 38 46
f 35 46 45
f 39 45 46
f 39 46 40
f 40 46 47
f 40 47 48
f 40 48 41
f 41 48 49
f 43 50 51
f 43 51 44
f 46 52 47
f 47 52 48
f 48 52 53
f 48 53 49
f 49 53 54
f 50 55 51
f 51 55 56
f 53 57 54
f 54 57 58
f 55 59 60
f 55 60 56
f 57 61 58
f 58 61 62
f 59 63 60
f 60 63 64
f 61 64 63
f 61 63 62

