# https://github.com/mikedh/trimesh
v 0.05170116 -0.04045600 0.00440670
v 0.05839010 -0.04946582 0.00280707
v 0.05378367 -0.04092230 0.00355998
v 0.05294857 -0.03824587 0.00312749
v 0.05099535 -0.03776999 0.00387674
v 0.05099535 -0.05486021 0.00365379
v 0.06201119 -0.06277773 0.00302028
v 0.06025132 -0.05102122 0.00125618
v 0.05654986 -0.04305259 0.00165091
v 0.05107804 -0.03276205 0.00112582
v 0.05366836 -0.03837362 0.00232463
v 0.05109668 -0.03265985 -0.00124011
v 0.05099535 -0.05590140 -0.00659574
v 0.05100932 -0.05776021 0.00254148
v 0.06089656 -0.06456947 0.00263164
v 0.06187842 -0.06440340 -0.00000110
v 0.06289289 -0.06262443 -0.00000110
v 0.06271352 -0.06111055 0.00152177
v 0.06018842 -0.04911449 -0.00020578
v 0.05913203 -0.04685326 0.00030469
v 0.06185978 -0.05506461 -0.00039705
v 0.05882687 -0.04529786 -0.00220987
v 0.05758995 -0.04337837 -0.00277395
v 0.05599080 -0.04278431 -0.00467327
v 0.05131215 -0.03832252 -0.00536405
v 0.05126207 -0.04253200 -0.00695392
v 0.05107571 -0.05815625 -0.00430900
v 0.05126207 -0.04705766 -0.00787739
v 0.05152995 -0.05217100 -0.00788714
v 0.05197487 -0.05424061 -0.00749119
v 0.05629712 -0.05867365 -0.00609259
v 0.05368001 -0.05907927 -0.00531897
v 0.05267370 -0.06051969 0.00146817
v 0.05911805 -0.06513478 0.00052642
v 0.06023734 -0.06528809 -0.00133636
v 0.06108758 -0.06344844 -0.00247912
v 0.06280087 -0.06036000 -0.00109513
v 0.05977145 -0.04753993 -0.00150935
v 0.06179573 -0.05659127 -0.00278004
v 0.06081271 -0.05243609 -0.00303953
v 0.06029208 -0.04982991 -0.00260338
v 0.05882920 -0.04681493 -0.00377295
v 0.05737680 -0.04536493 -0.00480607
v 0.05569263 -0.04478365 -0.00598660
v 0.05415987 -0.04279389 -0.00613888
v 0.05231031 -0.04089356 -0.00619858
v 0.05310231 -0.04515414 -0.00726824
v 0.05769826 -0.06350273 -0.00308217
v 0.05613406 -0.06363687 -0.00131686
v 0.05428100 -0.04832243 -0.00759109
v 0.05357402 -0.05130547 -0.00788958
v 0.05152995 -0.04990657 -0.00803943
v 0.05565536 -0.05436197 -0.00719880
v 0.05583822 -0.05659127 -0.00679067
v 0.05806632 -0.05720129 -0.00615107
v 0.05818278 -0.06481221 -0.00139118
v 0.06048659 -0.05710867 -0.00464769
v 0.06210088 -0.05891638 -0.00260460
v 0.06061820 -0.05440349 -0.00428829
v 0.05927296 -0.04883663 -0.00420788
v 0.05871390 -0.05092860 -0.00551999
v 0.05689112 -0.04845976 -0.00638985
v 0.05586967 -0.05130547 -0.00728652
v 0.05840525 -0.05396274 -0.00619614
f 1 2 3
f 1 3 4
f 1 4 5
f 1 5 6
f 1 6 7
f 1 7 2
f 2 8 9
f 2 9 3
f 2 7 8
f 3 9 4
f 4 10 5
f 4 9 11
f 4 11 10
f 5 10 12
f 5 12 13
f 5 13 6
f 6 13 14
f 6 14 15
f 6 15 7
f 7 15 16
f 7 16 17
f 7 17 18
f 7 18 8
f 8 19 20
f 8 20 9
f 8 18 21
f 8 21 19
f 9 10 11
f 9 20 10
f 10 20 22
f 10 22 12
f 12 22 23
f 12 23 24
f 12 24 25
f 12 25 26
f 12 26 13
f 13 27 14
f 13 26 28
f 13 28 29
f 13 29 30
f 13 30 31
f 13 31 32
f 13 32 27
f 14 27 33
f 14 33 15
f 15 34 35
f 15 35 16
f 15 33 34
f 16 36 17
f 16 35 36
f 17 37 18
f 17 36 37
f 18 37 21
f 19 38 20
f 19 21 38
f 20 38 22
f 21 37 39
f 21 39 40
f 21 40 41
f 21 41 38
f 22 38 41
f 22 41 42
f 22 42 23
f 23 42 43
f 23 43 24
f 24 43 44
f 24 44 45
f 24 45 25
f 25 45 46
f 25 46 26
f 26 46 47
f 26 47 28
f 27 32 48
f 27 48 49
f 27 49 33
f 28 47 50
f 28 50 51
f 28 51 52
f 28 52 29
f 29 52 51
f 29 51 30
f 30 51 53
f 30 53 54
f 30 54 31
f 31 54 55
f 31 55 36
f 31 36 48
f 31 48 32
f 33 49 34
f 34 49 56
f 34 56 35
f 35 56 48
f 35 48 36
f 36 55 57
f 36 57 58
f 36 58 37
f 37 58 39
f 39 59 40
f 39 58 59
f 40 59 60
f 40 60 41
f 41 60 42
f 42 60 43
f 43 60 61
f 43 61 62
f 43 62 44
f 44 47 45
f 44 62 50
f 44 50 47
f 45 47 46
f 48 56 49
f 50 62 63
f 50 63 51
f 51 63 53
f 53 55 54
f 53 63 55
f 55 63 64
f 55 64 57
f 57 64 59
f 57 59 58
f 59 64 61
f 59 61 60
f 61 64 62
f 62 64 63

