# https://github.com/mikedh/trimesh
v 0.02068561 -0.04936199 -0.00402965
v 0.01918472 -0.04936199 -0.00397609
v 0.02068561 -0.04496375 -0.00397966
v 0.02068561 -0.04936199 0.00505744
v 0.01767183 -0.04936199 -0.00375472
v 0.02068561 -0.04453634 -0.00391004
v 0.01762083 -0.04936199 -0.00374668
v 0.01762083 -0.04931145 -0.00374133
v 0.01762083 -0.04904542 -0.00370294
v 0.01762083 -0.04780221 -0.00352263
v 0.02068561 -0.04407169 0.00416033
v 0.02043991 -0.04936199 0.00508779
v 0.02037271 -0.04451950 -0.00381185
v 0.01960532 -0.04224234 -0.00303168
v 0.02068561 -0.04162517 -0.00312630
v 0.01762083 -0.04936199 0.00471199
v 0.01762083 -0.04633465 -0.00315843
v 0.01949762 -0.04301026 -0.00316111
v 0.02068561 -0.04307144 0.00375061
v 0.01762083 -0.04793256 0.00450222
v 0.01779693 -0.04813030 0.00457809
v 0.01886403 -0.04904542 0.00493515
v 0.01886403 -0.04936199 0.00498513
v 0.01762083 -0.04570595 -0.00281298
v 0.01762083 -0.04453989 -0.00200693
v 0.01762083 -0.04331264 -0.00063047
v 0.01934072 -0.04208982 -0.00226311
v 0.02068561 -0.04087233 -0.00226311
v 0.02068561 -0.04136092 -0.00305042
v 0.01762083 -0.04904542 0.00467807
v 0.02068561 -0.04188055 0.00302757
v 0.01762083 -0.04588064 0.00360868
v 0.01762083 -0.04602696 0.00368277
v 0.01762083 -0.04753973 0.00433797
v 0.01762083 -0.04828548 0.00456470
v 0.01909772 -0.04191779 -0.00075455
v 0.01762083 -0.04329934 0.00027110
v 0.02068561 -0.04030393 0.00043623
v 0.02068561 -0.04057438 -0.00115624
v 0.02068561 -0.04121993 0.00252055
v 0.01762083 -0.04513844 0.00312666
v 0.02068561 -0.04048837 -0.00075455
v 0.01762083 -0.04330200 0.00065582
v 0.02068561 -0.04035890 0.00076919
v 0.02068561 -0.04061074 0.00185018
v 0.01762083 -0.04499745 0.00300704
v 0.01762083 -0.04436432 0.00221527
f 1 2 3
f 1 3 6
f 1 6 15
f 1 15 29
f 1 29 28
f 1 28 39
f 1 39 42
f 1 42 38
f 1 38 44
f 1 44 45
f 1 45 40
f 1 40 31
f 1 31 19
f 1 19 11
f 1 11 4
f 1 4 12
f 1 12 23
f 1 23 16
f 1 16 7
f 1 7 5
f 1 5 2
f 2 5 3
f 3 5 7
f 3 7 8
f 3 8 9
f 3 9 10
f 3 10 6
f 4 11 12
f 6 10 13
f 6 13 14
f 6 14 15
f 7 16 30
f 7 30 35
f 7 35 20
f 7 20 34
f 7 34 33
f 7 33 32
f 7 32 41
f 7 41 46
f 7 46 47
f 7 47 43
f 7 43 37
f 7 37 26
f 7 26 25
f 7 25 24
f 7 24 17
f 7 17 10
f 7 10 9
f 7 9 8
f 10 17 14
f 10 14 18
f 10 18 13
f 11 19 20
f 11 20 21
f 11 21 22
f 11 22 12
f 12 22 23
f 13 18 14
f 14 24 25
f 14 25 26
f 14 26 27
f 14 27 28
f 14 28 29
f 14 29 15
f 14 17 24
f 16 23 30
f 19 31 32
f 19 32 33
f 19 33 34
f 19 34 20
f 20 35 21
f 21 35 23
f 21 23 22
f 23 35 30
f 26 36 27
f 26 37 38
f 26 38 36
f 27 36 39
f 27 39 28
f 31 40 41
f 31 41 32
f 36 38 42
f 36 42 39
f 37 43 38
f 38 43 44
f 40 45 46
f 40 46 41
f 43 47 45
f 43 45 44
f 45 47 46

