# https://github.com/mikedh/trimesh
v -0.03571054 0.07727679 -0.00226396
v -0.03603948 0.07727600 -0.00328011
v -0.03643610 0.07727679 -0.00371216
v -0.03589099 0.07727679 -0.00114395
v -0.03314665 0.07251612 -0.00145105
v -0.03257335 0.07168371 -0.00226396
v -0.03313349 0.07255348 -0.00310649
v -0.03736466 0.07727679 -0.00457174
v -0.03289289 0.07168371 -0.00335237
v -0.03762217 0.07725453 0.00004883
v -0.03340981 0.07084495 -0.00003096
v -0.03244741 0.07023595 -0.00071391
v -0.03288349 0.07168371 -0.00111083
v -0.03160719 0.06962695 -0.00139635
v -0.03850563 0.07727679 0.00008044
v -0.03191358 0.07042835 -0.00226396
v -0.03135531 0.06915550 -0.00273064
v -0.03163539 0.06955142 -0.00310749
v -0.03471055 0.07244138 -0.00452758
v -0.03812969 0.07727679 -0.00475389
v -0.03162598 0.06915550 -0.00333681
v -0.03245117 0.06915550 -0.00402227
v -0.03306958 0.06983923 0.00008646
v -0.03146621 0.06915550 -0.00129449
v -0.03128576 0.06915550 -0.00226396
v -0.03899058 0.07727679 0.00006388
v -0.03945487 0.07680852 0.00004180
v -0.03834585 0.07626630 0.00007141
v -0.03397371 0.06915550 0.00011206
v -0.03393048 0.07027491 0.00009951
v -0.03315605 0.06920241 -0.00446636
v -0.03415228 0.06915550 -0.00460536
v -0.03848495 0.07620906 -0.00486429
v -0.03848495 0.07727679 -0.00480809
v -0.03277071 0.06915550 -0.00425912
v -0.03303575 0.06915550 0.00009750
v -0.03231583 0.06915550 -0.00052071
v -0.03949810 0.07727679 0.00004632
v -0.05006192 0.06915550 -0.00052423
v -0.04704503 0.06915550 -0.00040128
v -0.04904313 0.06915550 -0.00499676
v -0.03999246 0.07620906 -0.00491899
v -0.03999246 0.07727679 -0.00490393
v -0.03955261 0.07727679 -0.00488787
v -0.04064658 0.07727679 -0.00013483
v -0.05048861 0.06915550 -0.00054580
v -0.05048861 0.06915550 -0.00492752
v -0.04904313 0.07017473 -0.00501433
v -0.04899238 0.07172029 -0.00477296
v -0.04102064 0.07727679 -0.00476443
v -0.04149808 0.07727679 -0.00040781
v -0.05048861 0.07019302 -0.00092617
v -0.05048861 0.07027809 -0.00477447
v -0.05006944 0.07124168 -0.00466206
v -0.04145673 0.07727679 -0.00470221
v -0.04196800 0.07727679 -0.00062960
v -0.05048861 0.07096182 -0.00150926
v -0.04283078 0.07727679 -0.00110882
v -0.05048861 0.07138398 -0.00386872
v -0.04295672 0.07727679 -0.00376736
v -0.04258266 0.07727679 -0.00405087
v -0.04206951 0.07727679 -0.00442672
v -0.05048861 0.07129494 -0.00230210
v -0.04354130 0.07727679 -0.00226396
f 1 2 3
f 1 3 8
f 1 8 20
f 1 20 34
f 1 34 44
f 1 44 43
f 1 43 50
f 1 50 55
f 1 55 62
f 1 62 61
f 1 61 60
f 1 60 64
f 1 64 58
f 1 58 56
f 1 56 51
f 1 51 45
f 1 45 38
f 1 38 26
f 1 26 15
f 1 15 4
f 1 4 5
f 1 5 6
f 1 6 7
f 1 7 2
f 2 7 3
f 3 7 9
f 3 9 8
f 4 10 11
f 4 11 12
f 4 12 13
f 4 13 14
f 4 14 5
f 4 15 10
f 5 14 6
f 6 14 16
f 6 16 7
f 7 16 17
f 7 17 18
f 7 18 9
f 8 19 20
f 8 9 19
f 9 18 21
f 9 21 22
f 9 22 19
f 10 23 11
f 10 15 23
f 11 23 12
f 12 23 24
f 12 24 14
f 12 14 13
f 14 24 25
f 14 25 16
f 15 26 27
f 15 27 28
f 15 28 29
f 15 29 30
f 15 30 23
f 16 25 17
f 17 25 24
f 17 24 37
f 17 37 36
f 17 36 29
f 17 29 40
f 17 40 39
f 17 39 46
f 17 46 47
f 17 47 41
f 17 41 32
f 17 32 35
f 17 35 22
f 17 22 21
f 17 21 18
f 19 31 32
f 19 32 33
f 19 33 34
f 19 34 20
f 19 22 35
f 19 35 31
f 23 36 37
f 23 37 24
f 23 30 36
f 26 38 27
f 27 38 39
f 27 39 40
f 27 40 29
f 27 29 28
f 29 36 30
f 31 35 32
f 32 41 42
f 32 42 33
f 33 42 43
f 33 43 44
f 33 44 34
f 38 45 46
f 38 46 39
f 41 47 48
f 41 48 42
f 42 48 43
f 43 48 49
f 43 49 50
f 45 51 46
f 46 52 57
f 46 57 63
f 46 63 59
f 46 59 53
f 46 53 47
f 46 51 52
f 47 53 48
f 48 53 49
f 49 53 54
f 49 54 55
f 49 55 50
f 51 56 52
f 52 56 58
f 52 58 57
f 53 59 54
f 54 59 60
f 54 60 61
f 54 61 62
f 54 62 55
f 57 58 64
f 57 64 63
f 59 63 64
f 59 64 60

