# https://github.com/mikedh/trimesh
v 0.04753641 -0.02496008 -0.00075406
v 0.04753641 -0.02503750 0.00075389
v 0.04932426 -0.02552949 0.00075389
v 0.04920576 -0.02559692 -0.00075406
v 0.04855043 -0.02548017 -0.00169696
v 0.04753641 -0.02536404 -0.00179980
v 0.04559267 -0.02542897 -0.00117986
v 0.04602929 -0.02518360 0.00075389
v 0.04753641 -0.02544146 0.00202438
v 0.04892661 -0.02568932 0.00220233
v 0.05013787 -0.02670389 0.00226299
v 0.05032397 -0.02647538 0.00075389
v 0.05019672 -0.02661273 -0.00075406
v 0.04998119 -0.02689307 -0.00171718
v 0.04904988 -0.02639796 -0.00196504
v 0.04753641 -0.02641044 -0.00234058
v 0.04602929 -0.02641044 -0.00215743
v 0.04493017 -0.02641044 -0.00173971
v 0.04358292 -0.02692553 -0.00004746
v 0.04504390 -0.02548391 0.00075389
v 0.04561891 -0.02557319 0.00163497
v 0.04761037 -0.02646913 0.00301870
v 0.04904511 -0.02667579 0.00323709
v 0.04990007 -0.02726018 0.00310825
v 0.05091330 -0.02791887 0.00075389
v 0.05076855 -0.02791887 -0.00075406
v 0.05016650 -0.02791887 -0.00185642
v 0.04904511 -0.02791887 -0.00241338
v 0.04753641 -0.02791887 -0.00260404
v 0.04602929 -0.02791887 -0.00250639
v 0.04441402 -0.02782522 -0.00199161
v 0.04353361 -0.02790389 -0.00141386
v 0.04285282 -0.02901273 -0.00105045
v 0.04285282 -0.02872241 0.00076544
v 0.04390184 -0.02748432 0.00131200
v 0.04495006 -0.02641044 0.00181581
v 0.04602929 -0.02641044 0.00233059
v 0.04381356 -0.03027017 0.00298634
v 0.04481962 -0.02980565 0.00320936
v 0.04740280 -0.02779525 0.00328042
v 0.04939902 -0.02825040 0.00311056
v 0.04571117 -0.03133718 0.00329833
v 0.05041464 -0.03133718 0.00131258
v 0.05026989 -0.02797943 0.00238374
v 0.05086558 -0.02942668 0.00075389
v 0.05097771 -0.02942668 -0.00075406
v 0.05026273 -0.02942668 -0.00185006
v 0.05026273 -0.03133718 -0.00179113
v 0.04904511 -0.02942668 -0.00234520
v 0.04753641 -0.02942668 -0.00255724
v 0.04602929 -0.02942668 -0.00257399
v 0.04451979 -0.03133718 -0.00252546
v 0.04451979 -0.02942668 -0.00238333
v 0.04328706 -0.02942668 -0.00187086
v 0.04288305 -0.03111741 -0.00206152
v 0.04285282 -0.03116049 0.00265818
v 0.04285282 -0.02981502 0.00183661
v 0.04374993 -0.03133718 0.00327175
v 0.04866972 -0.02897028 0.00311980
v 0.04671326 -0.03133718 0.00299270
v 0.05083615 -0.03133718 -0.00054318
v 0.04923280 -0.03133718 -0.00207481
v 0.04793724 -0.03133718 -0.00228165
v 0.04602929 -0.03133718 -0.00250524
f 1 2 3
f 1 3 4
f 1 4 5
f 1 5 6
f 1 6 7
f 1 7 8
f 1 8 2
f 2 8 9
f 2 9 10
f 2 10 3
f 3 10 11
f 3 11 12
f 3 12 4
f 4 12 13
f 4 13 14
f 4 14 5
f 5 14 15
f 5 15 16
f 5 16 6
f 6 16 17
f 6 17 7
f 7 17 18
f 7 18 19
f 7 19 20
f 7 20 8
f 8 20 21
f 8 21 9
f 9 22 23
f 9 23 10
f 9 21 22
f 10 23 11
f 11 24 25
f 11 25 12
f 11 23 24
f 12 25 26
f 12 26 13
f 13 26 14
f 14 26 27
f 14 27 28
f 14 28 15
f 15 28 16
f 16 29 30
f 16 30 17
f 16 28 29
f 17 30 31
f 17 31 18
f 18 31 32
f 18 32 19
f 19 32 33
f 19 33 34
f 19 34 35
f 19 35 20
f 20 36 21
f 20 35 36
f 21 36 37
f 21 37 22
f 22 37 38
f 22 38 39
f 22 39 40
f 22 40 23
f 23 41 24
f 23 40 42
f 23 42 41
f 24 41 43
f 24 43 44
f 24 44 25
f 25 45 46
f 25 46 26
f 25 44 45
f 26 46 27
f 27 46 47
f 27 47 28
f 28 47 48
f 28 48 49
f 28 49 50
f 28 50 29
f 29 50 51
f 29 51 30
f 30 51 52
f 30 52 53
f 30 53 31
f 31 53 54
f 31 54 32
f 32 54 33
f 33 54 55
f 33 55 56
f 33 56 57
f 33 57 34
f 34 57 35
f 35 57 36
f 36 57 56
f 36 56 38
f 36 38 37
f 38 56 58
f 38 58 39
f 39 58 40
f 40 58 42
f 41 42 59
f 41 59 60
f 41 60 43
f 42 60 59
f 42 58 52
f 42 52 64
f 42 64 63
f 42 63 62
f 42 62 48
f 42 48 61
f 42 61 43
f 42 43 60
f 43 61 45
f 43 45 44
f 45 61 46
f 46 61 48
f 46 48 47
f 48 62 49
f 49 62 63
f 49 63 50
f 50 64 52
f 50 52 51
f 50 63 64
f 52 58 55
f 52 55 53
f 53 55 54
f 55 58 56

