# https://github.com/mikedh/trimesh
v -0.06293275 0.07771856 -0.00377264
v -0.06229957 0.07771856 -0.00488894
v -0.06220832 0.07621025 -0.00482997
v -0.06278299 0.07621025 -0.00377264
v -0.06273214 0.07621025 -0.00226382
v -0.06284151 0.07771856 -0.00226382
v -0.06276906 0.07922760 -0.00226382
v -0.06282339 0.07922760 -0.00377264
v -0.06220344 0.08062473 -0.00485669
v -0.06111888 0.07771856 -0.00537176
v -0.06111888 0.07621025 -0.00535241
v -0.06211985 0.08062473 -0.00489124
v -0.06125123 0.07458710 -0.00498108
v -0.06200770 0.07501428 -0.00467149
v -0.06184332 0.07400850 -0.00448720
v -0.06228355 0.07458710 -0.00389980
v -0.06206831 0.07368591 -0.00348148
v -0.06206831 0.07368591 -0.00261488
v -0.06231768 0.07461124 -0.00217260
v -0.06215817 0.07621025 -0.00128436
v -0.06206482 0.07505452 -0.00133135
v -0.06220832 0.07771856 -0.00126178
v -0.06219090 0.07922760 -0.00123414
v -0.06212334 0.08062473 -0.00136406
v -0.06251342 0.08062473 -0.00226382
v -0.06263741 0.08062473 -0.00377264
v -0.05960940 0.07621025 -0.00543764
v -0.05960940 0.07470121 -0.00541968
v -0.06111888 0.08062473 -0.00529344
v -0.05956970 0.07315194 -0.00524415
v -0.05960940 0.07315194 -0.00522986
v -0.06074830 0.07315194 -0.00476363
v -0.06076571 0.07315194 -0.00475165
v -0.06146159 0.07315194 -0.00392744
v -0.06148249 0.07315194 -0.00389427
v -0.06179247 0.07404873 -0.00160870
v -0.06144557 0.07315194 -0.00217537
v -0.06111888 0.07621025 -0.00089091
v -0.06111888 0.07922760 -0.00073151
v -0.06072043 0.07315194 -0.00130187
v -0.05961219 0.07315194 -0.00081674
v -0.06122127 0.07461124 -0.00111390
v -0.06111888 0.08062473 -0.00081075
v -0.06119828 0.08062473 -0.00084853
v -0.06208015 0.08062473 -0.00128758
v -0.05960940 0.08062473 -0.00527455
v -0.05810132 0.07315194 -0.00529068
v -0.05960940 0.07319216 -0.00080937
v -0.05972224 0.08062473 -0.00084715
v -0.05810132 0.07315194 -0.00080937
v -0.05836184 0.08062473 -0.00483780
v -0.05805326 0.07315194 -0.00527870
v -0.05960940 0.08062473 -0.00086097
v -0.05693873 0.07315194 -0.00129219
v -0.05756983 0.08062473 -0.00390763
v -0.05594542 0.07315194 -0.00392376
v -0.05679873 0.07315194 -0.00479173
v -0.05683843 0.07315194 -0.00481292
v -0.05865579 0.08062473 -0.00130002
v -0.05610354 0.07315194 -0.00200951
v -0.05859101 0.08062473 -0.00133780
v -0.05581726 0.07315194 -0.00377218
v -0.05775582 0.08062473 -0.00221914
v -0.05587159 0.07315194 -0.00225553
f 1 2 3
f 1 3 4
f 1 4 5
f 1 5 6
f 1 6 7
f 1 7 8
f 1 8 9
f 1 9 2
f 2 10 11
f 2 11 3
f 2 9 12
f 2 12 10
f 3 11 13
f 3 13 14
f 3 14 4
f 4 14 15
f 4 15 16
f 4 16 17
f 4 17 18
f 4 18 19
f 4 19 5
f 5 20 6
f 5 19 21
f 5 21 20
f 6 22 23
f 6 23 7
f 6 20 22
f 7 23 24
f 7 24 25
f 7 25 26
f 7 26 8
f 8 26 9
f 9 26 25
f 9 25 24
f 9 24 45
f 9 45 44
f 9 44 43
f 9 43 49
f 9 49 53
f 9 53 59
f 9 59 61
f 9 61 63
f 9 63 55
f 9 55 51
f 9 51 46
f 9 46 29
f 9 29 12
f 10 27 28
f 10 28 11
f 10 12 29
f 10 29 27
f 11 28 30
f 11 30 13
f 13 30 31
f 13 31 32
f 13 32 15
f 13 15 14
f 15 17 16
f 15 32 33
f 15 33 34
f 15 34 35
f 15 35 17
f 17 35 18
f 18 36 19
f 18 35 37
f 18 37 36
f 19 36 21
f 20 21 38
f 20 38 39
f 20 39 22
f 21 36 40
f 21 40 41
f 21 41 42
f 21 42 38
f 22 39 23
f 23 39 43
f 23 43 44
f 23 44 45
f 23 45 24
f 27 29 46
f 27 46 47
f 27 47 28
f 28 47 30
f 30 47 52
f 30 52 58
f 30 58 57
f 30 57 56
f 30 56 62
f 30 62 64
f 30 64 60
f 30 60 54
f 30 54 50
f 30 50 41
f 30 41 40
f 30 40 37
f 30 37 35
f 30 35 34
f 30 34 33
f 30 33 32
f 30 32 31
f 36 37 40
f 38 42 48
f 38 48 39
f 39 49 43
f 39 48 50
f 39 50 49
f 41 50 48
f 41 48 42
f 46 51 52
f 46 52 47
f 49 50 53
f 50 54 53
f 51 55 56
f 51 56 57
f 51 57 58
f 51 58 52
f 53 54 59
f 54 60 61
f 54 61 59
f 55 62 56
f 55 63 64
f 55 64 62
f 60 64 63
f 60 63 61

