# https://github.com/mikedh/trimesh
v 0.00819810 -0.01808319 0.00784444
v 0.00833485 -0.01409610 0.00766508
v 0.00783149 -0.01409610 0.00767604
v -0.00008063 -0.01409610 0.00766408
v 0.00783231 -0.01814904 0.00784444
v 0.00819810 -0.02728655 0.00784444
v 0.00833485 -0.01653767 0.00765910
v 0.00833485 -0.01409610 -0.00187522
v -0.00008063 -0.01409610 0.00090496
v -0.00008146 -0.01653896 0.00768202
v -0.00008146 -0.01701669 0.00768800
v -0.00008146 -0.01755769 0.00769298
v 0.00318917 -0.02187660 0.00784444
v 0.00338772 -0.02136789 0.00784444
v 0.00376009 -0.02077525 0.00784444
v 0.00413411 -0.02025749 0.00784444
v 0.00456168 -0.01975782 0.00784444
v 0.00463006 -0.01968939 0.00784444
v 0.00513095 -0.01925168 0.00784444
v 0.00564750 -0.01888370 0.00784444
v 0.00673826 -0.01844729 0.00784444
v 0.00414812 -0.02728655 0.00784444
v 0.00819810 -0.02728655 -0.00143079
v 0.00833485 -0.01653767 -0.00187522
v 0.00819810 -0.01653896 -0.00233560
v 0.00499996 -0.01409610 -0.00187522
v -0.00008146 -0.02077266 -0.00233560
v -0.00008146 -0.01653896 0.00060601
v -0.00008146 -0.02654801 0.00772387
v 0.00300216 -0.02295601 0.00784444
v 0.00306889 -0.02241502 0.00784444
v -0.00008146 -0.02728655 0.00771988
v 0.00378069 -0.02702186 0.00784444
v 0.00786280 -0.02728655 -0.00150254
v 0.00819727 -0.01660352 -0.00233560
v 0.00569281 -0.01653896 -0.00233560
v -0.00008146 -0.02394116 -0.00233560
v -0.00008146 -0.02708900 0.00772287
v 0.00296262 -0.02350088 0.00784444
v 0.00324519 -0.02593083 0.00784444
v -0.00008146 -0.02728655 -0.00099533
v 0.00728776 -0.02728655 -0.00153642
v 0.00246585 -0.02363516 -0.00233560
v 0.00297250 -0.02334465 -0.00233560
v 0.00350553 -0.02300249 -0.00233560
v 0.00589383 -0.02094181 -0.00233560
v 0.00613027 -0.02071714 -0.00233560
v 0.00644333 -0.02035304 -0.00233560
v 0.00657843 -0.02012838 -0.00233560
v 0.00703484 -0.01932786 -0.00233560
v 0.00715512 -0.01911482 -0.00233560
v 0.00802591 -0.01702057 -0.00233560
v 0.00027115 -0.02399281 -0.00233560
v 0.00676133 -0.02728655 -0.00153443
v 0.00621759 -0.02728655 -0.00149756
v 0.00313645 -0.02544278 0.00784444
v 0.00308207 -0.02495343 0.00784444
v 0.00303594 -0.02447054 0.00784444
v 0.00299145 -0.02400185 0.00784444
v 0.00081158 -0.02404316 -0.00233560
v 0.00090385 -0.02403929 -0.00233560
v 0.00135119 -0.02399797 -0.00233560
v 0.00138250 -0.02399022 -0.00233560
v 0.00189163 -0.02382367 -0.00233560
f 1 2 3
f 1 3 4
f 1 4 5
f 1 5 21
f 1 21 20
f 1 20 19
f 1 19 18
f 1 18 17
f 1 17 16
f 1 16 15
f 1 15 14
f 1 14 13
f 1 13 31
f 1 31 30
f 1 30 39
f 1 39 59
f 1 59 58
f 1 58 57
f 1 57 56
f 1 56 40
f 1 40 33
f 1 33 22
f 1 22 6
f 1 6 2
f 2 6 7
f 2 7 24
f 2 24 8
f 2 8 26
f 2 26 9
f 2 9 4
f 2 4 3
f 4 9 28
f 4 28 10
f 4 10 11
f 4 11 12
f 4 12 13
f 4 13 14
f 4 14 15
f 4 15 16
f 4 16 17
f 4 17 18
f 4 18 19
f 4 19 20
f 4 20 21
f 4 21 5
f 6 22 32
f 6 32 41
f 6 41 55
f 6 55 54
f 6 54 42
f 6 42 34
f 6 34 23
f 6 23 24
f 6 24 7
f 8 24 25
f 8 25 36
f 8 36 26
f 9 26 27
f 9 27 28
f 10 28 27
f 10 27 37
f 10 37 41
f 10 41 32
f 10 32 38
f 10 38 29
f 10 29 12
f 10 12 11
f 12 29 30
f 12 30 31
f 12 31 13
f 22 33 32
f 23 34 35
f 23 35 24
f 24 35 25
f 25 35 52
f 25 52 51
f 25 51 50
f 25 50 49
f 25 49 48
f 25 48 47
f 25 47 46
f 25 46 45
f 25 45 44
f 25 44 43
f 25 43 64
f 25 64 63
f 25 63 62
f 25 62 61
f 25 61 60
f 25 60 53
f 25 53 37
f 25 37 27
f 25 27 36
f 26 36 27
f 29 38 39
f 29 39 30
f 32 33 40
f 32 40 38
f 34 42 43
f 34 43 44
f 34 44 45
f 34 45 46
f 34 46 47
f 34 47 48
f 34 48 49
f 34 49 50
f 34 50 51
f 34 51 52
f 34 52 35
f 37 53 54
f 37 54 55
f 37 55 41
f 38 40 56
f 38 56 57
f 38 57 58
f 38 58 59
f 38 59 39
f 42 60 61
f 42 61 62
f 42 62 63
f 42 63 64
f 42 64 43
f 42 54 60
f 53 60 54

