# https://github.com/mikedh/trimesh
v -0.00008146 0.02093773 -0.00173676
v 0.00462229 0.01597118 -0.00783099
v 0.00464086 0.01597118 -0.00459239
v 0.00466751 0.01597118 -0.00403143
v 0.00475553 0.01597118 -0.00347286
v 0.00510922 0.01597118 -0.00173676
v -0.00008146 0.02541965 -0.00173676
v -0.00008146 0.02108756 -0.00783099
v 0.00468285 0.01597118 -0.00837129
v -0.00008146 0.02110698 -0.00838638
v 0.00673797 0.01597118 -0.00893145
v 0.00812366 0.01627176 -0.00177728
v 0.00816807 0.02209474 -0.00177093
v 0.00405057 0.02459004 -0.00173676
v 0.00081165 0.02541780 -0.00173676
v 0.00009539 0.02310655 -0.00895846
v -0.00008146 0.02252388 -0.00977844
v 0.00487181 0.01597118 -0.00890761
v -0.00008146 0.02119762 -0.00891158
v 0.00570032 0.01597118 -0.00969740
v 0.00637943 0.01603037 -0.00968786
v 0.00657162 0.01644933 -0.00948128
v 0.00671697 0.01647708 -0.00891158
v 0.00816807 0.02078143 -0.00197274
v 0.00816807 0.02025795 -0.00204505
v 0.00816807 0.01935158 -0.00214834
v 0.00816807 0.01863758 -0.00218250
v 0.00816807 0.01809745 -0.00217297
v 0.00816807 0.01758970 -0.00212212
v 0.00816807 0.01699963 -0.00197115
v 0.00655709 0.01701721 -0.00933746
v 0.00649249 0.01759895 -0.00917855
v 0.00601363 0.01880868 -0.00927628
v 0.00546695 0.01987135 -0.00927072
v 0.00495176 0.02064362 -0.00931680
v 0.00372595 0.02166283 -0.00942645
v 0.00309610 0.02213359 -0.00928502
v 0.00351196 0.02485178 -0.00173676
v 0.00134945 0.02540763 -0.00173676
v 0.00081165 0.02303163 -0.00891158
v 0.00009539 0.02290955 -0.00945188
v 0.00189210 0.02537248 -0.00173676
v 0.00041920 0.02270053 -0.00973474
v 0.00189129 0.02187555 -0.00985313
v 0.00135187 0.02187555 -0.00985074
v -0.00008146 0.02178676 -0.00972759
v 0.00521016 0.01597118 -0.00935812
v -0.00008146 0.02139092 -0.00932316
v 0.00601767 0.01646321 -0.00978082
v 0.00642869 0.01661119 -0.00968151
v 0.00494772 0.02028385 -0.00958934
v 0.00426376 0.02087391 -0.00976414
v 0.00349097 0.02133912 -0.00978877
v 0.00247754 0.02218723 -0.00957742
v 0.00153356 0.02269406 -0.00936448
v 0.00293217 0.02512184 -0.00173676
v 0.00085041 0.02272180 -0.00958536
v 0.00243232 0.02529849 -0.00173676
v 0.00135187 0.02229729 -0.00978400
v 0.00204391 0.02218168 -0.00974030
v 0.00239841 0.02189219 -0.00979830
v 0.00479510 0.01971690 -0.00981022
v 0.00243151 0.02133635 -0.00985074
f 1 2 3
f 1 3 4
f 1 4 5
f 1 5 6
f 1 6 14
f 1 14 38
f 1 38 56
f 1 56 58
f 1 58 42
f 1 42 39
f 1 39 15
f 1 15 7
f 1 7 17
f 1 17 46
f 1 46 48
f 1 48 19
f 1 19 10
f 1 10 8
f 1 8 2
f 2 9 18
f 2 18 47
f 2 47 20
f 2 20 11
f 2 11 6
f 2 6 5
f 2 5 4
f 2 4 3
f 2 8 10
f 2 10 9
f 6 11 12
f 6 12 13
f 6 13 14
f 7 15 16
f 7 16 17
f 9 10 19
f 9 19 18
f 11 20 21
f 11 21 22
f 11 22 23
f 11 23 13
f 11 13 24
f 11 24 25
f 11 25 26
f 11 26 27
f 11 27 28
f 11 28 29
f 11 29 30
f 11 30 12
f 12 30 13
f 13 23 22
f 13 22 31
f 13 31 32
f 13 32 33
f 13 33 34
f 13 34 35
f 13 35 36
f 13 36 37
f 13 37 14
f 13 30 29
f 13 29 28
f 13 28 27
f 13 27 26
f 13 26 25
f 13 25 24
f 14 37 38
f 15 39 16
f 16 40 41
f 16 41 17
f 16 39 42
f 16 42 40
f 17 41 43
f 17 43 44
f 17 44 45
f 17 45 46
f 18 19 48
f 18 48 47
f 20 49 21
f 20 47 46
f 20 46 49
f 21 49 50
f 21 50 22
f 22 50 31
f 31 50 32
f 32 50 33
f 33 50 51
f 33 51 34
f 34 51 35
f 35 51 52
f 35 52 36
f 36 53 54
f 36 54 37
f 36 52 53
f 37 54 55
f 37 55 56
f 37 56 38
f 40 55 57
f 40 57 41
f 40 42 58
f 40 58 55
f 41 57 43
f 43 59 44
f 43 57 60
f 43 60 59
f 44 61 53
f 44 53 62
f 44 62 63
f 44 63 45
f 44 59 61
f 45 63 49
f 45 49 46
f 46 47 48
f 49 63 62
f 49 62 50
f 50 62 51
f 51 62 52
f 52 62 53
f 53 61 60
f 53 60 54
f 54 60 57
f 54 57 55
f 55 58 56
f 59 60 61

