# https://github.com/mikedh/trimesh
v -0.00833730 -0.00194735 0.00762964
v -0.00833730 0.00126756 0.00760896
v -0.00891321 0.00126756 0.00761635
v -0.00949477 0.00126756 0.00762078
v -0.01177551 -0.00129624 0.00761930
v -0.01180371 -0.00194735 0.00761930
v -0.00833730 -0.00194735 0.00084937
v -0.00833730 0.00126756 -0.00081469
v -0.01193765 0.00026967 0.00760158
v -0.01193765 -0.00043210 0.00761192
v -0.01193765 0.00126756 0.00758091
v -0.01193765 -0.00140953 -0.00566954
v -0.01176565 -0.00194735 0.00144885
v -0.01111783 -0.00194735 0.00119341
v -0.01053310 -0.00138090 -0.00620996
v -0.00999349 -0.00137775 -0.00620996
v -0.00945353 -0.00137114 -0.00620996
v -0.00891321 -0.00134785 -0.00620996
v -0.00833730 -0.00130506 -0.00620996
v -0.00833730 0.00105609 -0.00566954
v -0.00945353 0.00103186 -0.00566954
v -0.00999349 0.00101801 -0.00566954
v -0.01193765 0.00126756 0.00142522
v -0.01107307 -0.00137523 -0.00620996
v -0.01193765 -0.00037828 -0.00723467
v -0.01177516 -0.00114330 -0.00689507
v -0.01177551 -0.00134754 -0.00620996
v -0.01107307 -0.00122481 -0.00675037
v -0.00945353 -0.00115998 -0.00689064
v -0.00833730 -0.00112316 -0.00684782
v -0.00835527 0.00100668 -0.00620848
v -0.00891321 0.00099818 -0.00620996
v -0.00833730 -0.00078581 -0.00719185
v -0.00834611 0.00025173 -0.00737052
v -0.00835527 0.00062401 -0.00712836
v -0.00835527 0.00084430 -0.00675037
v -0.01053310 0.00099818 -0.00566954
v -0.01107307 0.00097081 -0.00566954
v -0.01177551 0.00092234 -0.00572418
v -0.01185658 0.00055352 -0.00679024
v -0.01193765 0.00008243 -0.00716085
v -0.01053310 -0.00027066 -0.00738380
v -0.01177551 -0.00082074 -0.00715642
v -0.00883461 -0.00098564 -0.00706930
v -0.01107307 -0.00081004 -0.00719185
v -0.00945353 -0.00081004 -0.00721991
v -0.00891321 0.00085752 -0.00675037
v -0.00999349 0.00095633 -0.00620996
v -0.00835527 -0.00027066 -0.00743696
v -0.00891321 -0.00027066 -0.00745468
v -0.00891321 0.00026967 -0.00738380
v -0.00891321 0.00064856 -0.00713279
v -0.01053310 0.00093273 -0.00620996
v -0.01107307 0.00090220 -0.00620996
v -0.01177551 0.00084430 -0.00620996
v -0.01053310 0.00073384 -0.00675037
v -0.01066986 0.00055100 -0.00703386
v -0.00999349 0.00026967 -0.00728931
v -0.00945353 0.00026967 -0.00733656
v -0.00999349 -0.00027066 -0.00742072
v -0.00945353 0.00062653 -0.00711507
v -0.00999349 0.00077884 -0.00675037
v -0.00999349 0.00059726 -0.00708554
f 1 2 3
f 1 3 4
f 1 4 5
f 1 5 6
f 1 6 13
f 1 13 14
f 1 14 7
f 1 7 19
f 1 19 30
f 1 30 33
f 1 33 20
f 1 20 8
f 1 8 2
f 2 8 23
f 2 23 11
f 2 11 4
f 2 4 3
f 4 9 10
f 4 10 5
f 4 11 9
f 5 10 6
f 6 10 12
f 6 12 13
f 7 14 12
f 7 12 15
f 7 15 16
f 7 16 17
f 7 17 18
f 7 18 19
f 8 20 21
f 8 21 22
f 8 22 23
f 9 11 23
f 9 23 41
f 9 41 25
f 9 25 12
f 9 12 10
f 12 24 15
f 12 14 13
f 12 25 26
f 12 26 27
f 12 27 24
f 15 24 28
f 15 28 16
f 16 28 17
f 17 28 29
f 17 29 18
f 18 29 30
f 18 30 19
f 20 31 32
f 20 32 21
f 20 33 34
f 20 34 35
f 20 35 36
f 20 36 31
f 21 32 22
f 22 32 37
f 22 37 23
f 23 37 38
f 23 38 39
f 23 39 40
f 23 40 41
f 24 27 28
f 25 41 42
f 25 42 43
f 25 43 26
f 26 44 29
f 26 29 28
f 26 28 27
f 26 43 45
f 26 45 46
f 26 46 44
f 29 44 30
f 30 44 33
f 31 36 47
f 31 47 32
f 32 48 37
f 32 47 48
f 33 44 46
f 33 46 49
f 33 49 34
f 34 49 50
f 34 50 51
f 34 51 35
f 35 51 52
f 35 52 36
f 36 52 47
f 37 48 53
f 37 53 38
f 38 53 54
f 38 54 39
f 39 54 55
f 39 55 40
f 40 55 56
f 40 56 57
f 40 57 41
f 41 57 58
f 41 58 42
f 42 58 59
f 42 59 51
f 42 51 60
f 42 60 43
f 43 60 45
f 45 60 50
f 45 50 46
f 46 50 49
f 47 52 61
f 47 61 62
f 47 62 54
f 47 54 53
f 47 53 48
f 50 60 51
f 51 59 61
f 51 61 52
f 54 62 55
f 55 62 56
f 56 62 61
f 56 61 63
f 56 63 57
f 57 63 58
f 58 63 61
f 58 61 59

