# https://github.com/mikedh/trimesh
v -0.00008227 -0.02622453 0.00771948
v -0.00008227 -0.01755676 0.00769092
v -0.00181722 -0.02457664 0.00807388
v -0.00195538 -0.02532699 0.00807388
v -0.00235300 -0.02622453 0.00807388
v -0.00017613 -0.02622453 -0.00129286
v -0.00008227 -0.02078813 -0.00273374
v -0.00008227 -0.01701803 0.00768669
v -0.00183198 -0.02403689 0.00807388
v -0.01085689 -0.02622453 0.00807388
v -0.00135105 -0.02622453 -0.00143462
v -0.00019723 -0.02358607 -0.00273374
v -0.00441912 -0.01578108 -0.00273374
v -0.00008227 -0.01578108 0.00072352
v -0.00008227 -0.01647622 0.00768034
v -0.00186257 -0.02357483 0.00807388
v -0.01062908 -0.02622453 0.00001472
v -0.01069869 -0.01976996 0.00807388
v -0.01085689 -0.01578108 0.00768669
v -0.01085689 -0.02403485 -0.00119553
v -0.00189105 -0.02622453 -0.00148328
v -0.00243210 -0.02622453 -0.00149281
v -0.00297104 -0.02622453 -0.00149915
v -0.00351209 -0.02622453 -0.00149492
v -0.00456572 -0.02622453 -0.00146847
v -0.00512048 -0.02622453 -0.00145261
v -0.00566891 -0.02622453 -0.00142193
v -0.00080683 -0.02346851 -0.00273374
v -0.00785527 -0.01585878 -0.00273374
v -0.01085689 -0.01578108 -0.00020004
v -0.00017719 -0.01578108 0.00767082
v -0.00197015 -0.02299418 0.00807388
v -0.00906604 -0.02622453 -0.00064965
v -0.00989502 -0.01929665 0.00807388
v -0.00946471 -0.01914433 0.00807388
v -0.00782468 -0.01865467 0.00807388
v -0.01037807 -0.01578108 0.00769515
v -0.01085689 -0.02348691 -0.00133941
v -0.00621102 -0.02622453 -0.00136903
v -0.00687125 -0.02622453 -0.00124949
v -0.00753465 -0.02622453 -0.00109820
v -0.00835097 -0.02622453 -0.00089297
v -0.00123714 -0.02332028 -0.00273374
v -0.00768125 -0.01647622 -0.00273374
v -0.01085689 -0.02295227 -0.00137009
v -0.01085689 -0.02241660 -0.00132354
v -0.01085689 -0.02187582 -0.00123891
v -0.00729207 -0.01861173 0.00807388
v -0.00675207 -0.01863320 0.00807388
v -0.00622579 -0.01874258 0.00807388
v -0.00514052 -0.01924451 0.00807388
v -0.00412908 -0.01975565 0.00807388
v -0.00356588 -0.02024429 0.00807388
v -0.00303537 -0.02088627 0.00807388
v -0.00246163 -0.02196578 0.00807388
v -0.00741019 -0.01735128 -0.00273374
v -0.00714019 -0.01809754 -0.00273374
v -0.00694719 -0.01856471 -0.00273374
v -0.00664238 -0.01910344 -0.00273374
v -0.00611610 -0.01987219 -0.00273374
v -0.00561829 -0.02044772 -0.00273374
v -0.00513524 -0.02085663 -0.00273374
v -0.00286768 -0.02246976 -0.00273374
v -0.00214944 -0.02291138 -0.00273374
f 1 2 3
f 1 3 4
f 1 4 5
f 1 5 10
f 1 10 17
f 1 17 33
f 1 33 42
f 1 42 41
f 1 41 40
f 1 40 39
f 1 39 27
f 1 27 26
f 1 26 25
f 1 25 24
f 1 24 23
f 1 23 22
f 1 22 21
f 1 21 11
f 1 11 6
f 1 6 7
f 1 7 14
f 1 14 15
f 1 15 8
f 1 8 2
f 2 8 9
f 2 9 3
f 3 9 16
f 3 16 32
f 3 32 55
f 3 55 54
f 3 54 53
f 3 53 52
f 3 52 51
f 3 51 50
f 3 50 49
f 3 49 48
f 3 48 36
f 3 36 35
f 3 35 34
f 3 34 18
f 3 18 10
f 3 10 5
f 3 5 4
f 6 11 12
f 6 12 7
f 7 12 28
f 7 28 43
f 7 43 64
f 7 64 63
f 7 63 62
f 7 62 61
f 7 61 60
f 7 60 59
f 7 59 58
f 7 58 57
f 7 57 56
f 7 56 44
f 7 44 29
f 7 29 13
f 7 13 14
f 8 15 16
f 8 16 9
f 10 18 19
f 10 19 30
f 10 30 47
f 10 47 46
f 10 46 45
f 10 45 38
f 10 38 20
f 10 20 17
f 11 21 12
f 12 21 22
f 12 22 23
f 12 23 24
f 12 24 25
f 12 25 26
f 12 26 27
f 12 27 28
f 13 29 30
f 13 30 19
f 13 19 37
f 13 37 31
f 13 31 14
f 14 31 15
f 15 31 32
f 15 32 16
f 17 20 33
f 18 34 19
f 19 34 35
f 19 35 36
f 19 36 37
f 20 38 39
f 20 39 40
f 20 40 41
f 20 41 42
f 20 42 33
f 27 39 28
f 28 39 43
f 29 44 38
f 29 38 45
f 29 45 46
f 29 46 47
f 29 47 30
f 31 37 48
f 31 48 49
f 31 49 50
f 31 50 51
f 31 51 52
f 31 52 53
f 31 53 54
f 31 54 55
f 31 55 32
f 36 48 37
f 38 44 56
f 38 56 57
f 38 57 58
f 38 58 59
f 38 59 60
f 38 60 61
f 38 61 62
f 38 62 63
f 38 63 39
f 39 63 64
f 39 64 43

