# https://github.com/mikedh/trimesh
v 0.00585320 0.00748503 0.00793567
v 0.00513051 0.00748503 0.01053298
v 0.00780790 0.00520834 0.01107175
v 0.00780790 0.00535948 0.01037502
v 0.00780790 0.00574075 0.00793567
v 0.00253164 0.00744327 0.00793567
v 0.00348058 0.00748503 0.01156804
v 0.00488927 0.00748503 0.01114552
v 0.00780790 0.00499274 0.01150200
v 0.00780790 0.00284813 0.00793567
v 0.00266595 0.00691314 0.00793567
v 0.00303220 0.00675201 0.01053298
v 0.00293663 0.00743647 0.01062954
v 0.00313293 0.00735340 0.01120229
v 0.00353017 0.00675201 0.01156302
v 0.00405553 0.00673113 0.01182140
v 0.00405191 0.00748503 0.01174841
v 0.00457830 0.00748503 0.01153521
v 0.00780790 0.00459196 0.01175613
v 0.00780790 0.00313272 0.01053298
v 0.00731044 0.00289988 0.00793567
v 0.00318097 0.00569854 0.00793567
v 0.00323108 0.00618102 0.01053298
v 0.00327137 0.00630221 0.01101034
v 0.00320370 0.00675201 0.01116367
v 0.00360508 0.00621188 0.01152556
v 0.00416762 0.00630266 0.01185539
v 0.00443417 0.00596724 0.01188088
v 0.00780790 0.00403822 0.01182642
v 0.00764415 0.00326889 0.01138459
v 0.00706249 0.00326389 0.01101382
v 0.00678612 0.00302651 0.00793567
v 0.00368824 0.00477579 0.00793567
v 0.00345320 0.00567130 0.01053298
v 0.00356427 0.00567130 0.01107330
v 0.00374713 0.00534541 0.01121929
v 0.00371097 0.00567130 0.01142630
v 0.00405191 0.00567130 0.01166769
v 0.00459224 0.00513209 0.01172407
v 0.00567136 0.00459196 0.01177312
v 0.00621170 0.00459196 0.01184573
v 0.00675151 0.00405139 0.01176192
v 0.00730373 0.00347132 0.01152710
v 0.00675151 0.00359387 0.01152788
v 0.00605053 0.00372323 0.01141703
v 0.00621170 0.00354349 0.01107330
v 0.00621170 0.00346723 0.01053298
v 0.00565483 0.00346814 0.00793567
v 0.00418519 0.00415169 0.00793567
v 0.00391192 0.00504993 0.01107330
v 0.00368153 0.00526644 0.01053298
v 0.00420998 0.00475763 0.01125057
v 0.00405553 0.00516749 0.01149428
v 0.00464597 0.00460059 0.01147149
v 0.00513206 0.00459196 0.01162250
v 0.00621170 0.00405139 0.01169009
v 0.00569409 0.00404367 0.01151745
v 0.00513206 0.00424383 0.01141742
v 0.00513206 0.00407771 0.01107330
v 0.00566258 0.00378359 0.01107330
v 0.00549831 0.00375182 0.01054727
v 0.00525346 0.00363426 0.00793567
v 0.00471519 0.00420525 0.01053298
v 0.00468006 0.00437864 0.01114089
f 1 2 3
f 1 3 4
f 1 4 5
f 1 5 10
f 1 10 21
f 1 21 32
f 1 32 48
f 1 48 62
f 1 62 49
f 1 49 33
f 1 33 22
f 1 22 11
f 1 11 6
f 1 6 7
f 1 7 17
f 1 17 18
f 1 18 8
f 1 8 2
f 2 8 3
f 3 9 19
f 3 19 29
f 3 29 20
f 3 20 10
f 3 10 5
f 3 5 4
f 3 8 9
f 6 11 12
f 6 12 13
f 6 13 7
f 7 13 14
f 7 14 15
f 7 15 16
f 7 16 17
f 8 18 9
f 9 18 19
f 10 20 21
f 11 22 23
f 11 23 12
f 12 23 24
f 12 24 25
f 12 25 13
f 13 25 14
f 14 25 15
f 15 26 27
f 15 27 16
f 15 25 26
f 16 27 28
f 16 28 17
f 17 28 29
f 17 29 19
f 17 19 18
f 20 29 30
f 20 30 31
f 20 31 21
f 21 31 32
f 22 33 34
f 22 34 23
f 23 34 24
f 24 34 35
f 24 35 36
f 24 36 37
f 24 37 25
f 25 37 26
f 26 37 38
f 26 38 27
f 27 38 28
f 28 38 39
f 28 39 40
f 28 40 41
f 28 41 29
f 29 41 42
f 29 42 43
f 29 43 30
f 30 43 44
f 30 44 45
f 30 45 31
f 31 45 46
f 31 46 47
f 31 47 32
f 32 47 48
f 33 49 50
f 33 50 51
f 33 51 34
f 34 51 36
f 34 36 35
f 36 50 52
f 36 52 53
f 36 53 37
f 36 51 50
f 37 53 38
f 38 53 39
f 39 53 54
f 39 54 55
f 39 55 56
f 39 56 40
f 40 56 41
f 41 56 42
f 42 56 44
f 42 44 43
f 44 56 45
f 45 56 57
f 45 57 58
f 45 58 59
f 45 59 60
f 45 60 46
f 46 60 61
f 46 61 47
f 47 61 48
f 48 61 62
f 49 62 61
f 49 61 63
f 49 63 52
f 49 52 50
f 52 63 64
f 52 64 58
f 52 58 54
f 52 54 53
f 54 58 57
f 54 57 56
f 54 56 55
f 58 64 59
f 59 61 60
f 59 64 63
f 59 63 61

