# https://github.com/mikedh/trimesh
v -0.00291828 0.02745860 -0.00048237
v -0.00008227 0.02700454 -0.00048237
v -0.00320617 0.02745860 -0.00062666
v -0.00888270 0.02745860 -0.00048237
v -0.00008227 0.02082339 -0.00048237
v -0.00008227 0.02415794 -0.00299354
v -0.00471901 0.02745860 -0.00111581
v -0.00453724 0.02745860 -0.00107059
v -0.00419742 0.02745860 -0.00096390
v -0.00369163 0.02745860 -0.00080020
v -0.00872803 0.02745860 -0.00066844
v -0.01161485 0.02374190 -0.00049589
v -0.01161598 0.02367204 -0.00048237
v -0.00008227 0.02101343 -0.00299354
v -0.00501480 0.01696389 -0.00048237
v -0.00518076 0.01696595 -0.00298223
v -0.00135125 0.02426992 -0.00299354
v -0.00585025 0.02745860 -0.00124118
v -0.00531172 0.02745860 -0.00119963
v -0.00484320 0.02745860 -0.00114162
v -0.00846498 0.02745860 -0.00092777
v -0.01161598 0.02345220 -0.00069155
v -0.01161598 0.01803329 -0.00048237
v -0.00526769 0.01696389 -0.00299354
v -0.01119374 0.01696389 -0.00048237
v -0.00155220 0.02427094 -0.00299354
v -0.00692730 0.02745860 -0.00127928
v -0.00811386 0.02745860 -0.00109025
v -0.01161598 0.02265298 -0.00107378
v -0.01161598 0.02293240 -0.00096292
v -0.01161598 0.01824286 -0.00056275
v -0.00857675 0.01699471 -0.00299354
v -0.00189090 0.02426684 -0.00299354
v -0.00751099 0.02745860 -0.00127903
v -0.00789145 0.02745860 -0.00117382
v -0.01161598 0.02240232 -0.00115072
v -0.01161598 0.01858802 -0.00068811
v -0.01161598 0.01917666 -0.00087345
v -0.01161598 0.01930198 -0.00090835
v -0.01161598 0.01970365 -0.00101946
v -0.01161598 0.01995636 -0.00108411
v -0.01161598 0.02022346 -0.00114212
v -0.01161598 0.02079873 -0.00122790
v -0.00867949 0.01809596 -0.00299354
v -0.00206815 0.02424732 -0.00299354
v -0.00243168 0.02420315 -0.00299354
v -0.00254232 0.02418876 -0.00299354
v -0.00299392 0.02410350 -0.00299354
v -0.00339697 0.02396687 -0.00299354
v -0.00380227 0.02375628 -0.00299354
v -0.00407549 0.02359705 -0.00299354
v -0.00413984 0.02355904 -0.00299354
v -0.00443902 0.02336899 -0.00299354
v -0.00474046 0.02316662 -0.00299354
v -0.00506899 0.02290877 -0.00299354
v -0.00780904 0.02018339 -0.00299354
v -0.00804387 0.01993890 -0.00299354
v -0.01161598 0.02187841 -0.00124339
v -0.00825273 0.01963996 -0.00299354
v -0.00829337 0.01957832 -0.00299354
v -0.00848191 0.01919412 -0.00299354
v -0.01161598 0.02133806 -0.00126035
v -0.00865352 0.01863631 -0.00299354
v -0.00860272 0.01883149 -0.00299354
f 1 2 3
f 1 3 10
f 1 10 9
f 1 9 8
f 1 8 7
f 1 7 20
f 1 20 19
f 1 19 18
f 1 18 27
f 1 27 34
f 1 34 35
f 1 35 28
f 1 28 21
f 1 21 11
f 1 11 4
f 1 4 13
f 1 13 23
f 1 23 25
f 1 25 15
f 1 15 5
f 1 5 2
f 2 5 14
f 2 14 6
f 2 6 7
f 2 7 8
f 2 8 9
f 2 9 10
f 2 10 3
f 4 11 12
f 4 12 13
f 5 15 16
f 5 16 14
f 6 14 24
f 6 24 32
f 6 32 44
f 6 44 63
f 6 63 64
f 6 64 61
f 6 61 60
f 6 60 59
f 6 59 57
f 6 57 56
f 6 56 55
f 6 55 54
f 6 54 53
f 6 53 52
f 6 52 51
f 6 51 50
f 6 50 49
f 6 49 48
f 6 48 47
f 6 47 46
f 6 46 45
f 6 45 33
f 6 33 26
f 6 26 17
f 6 17 18
f 6 18 19
f 6 19 20
f 6 20 7
f 11 21 12
f 12 21 22
f 12 22 13
f 13 22 30
f 13 30 29
f 13 29 36
f 13 36 58
f 13 58 62
f 13 62 43
f 13 43 42
f 13 42 41
f 13 41 40
f 13 40 39
f 13 39 38
f 13 38 37
f 13 37 31
f 13 31 23
f 14 16 24
f 15 24 16
f 15 25 24
f 17 26 27
f 17 27 18
f 21 28 29
f 21 29 30
f 21 30 22
f 23 31 25
f 24 25 32
f 25 31 32
f 26 33 34
f 26 34 27
f 28 35 36
f 28 36 29
f 31 37 32
f 32 37 38
f 32 38 39
f 32 39 40
f 32 40 41
f 32 41 42
f 32 42 43
f 32 43 44
f 33 45 34
f 34 45 46
f 34 46 47
f 34 47 48
f 34 48 49
f 34 49 50
f 34 50 51
f 34 51 52
f 34 52 53
f 34 53 54
f 34 54 55
f 34 55 56
f 34 56 57
f 34 57 35
f 35 57 36
f 36 57 59
f 36 59 60
f 36 60 61
f 36 61 58
f 43 62 44
f 44 62 63
f 58 61 64
f 58 64 63
f 58 63 62

