# https://github.com/mikedh/trimesh
v -0.00081105 -0.03105999 -0.01178660
v -0.00008227 -0.03051937 -0.01173799
v -0.00008227 -0.03115253 -0.01173612
v -0.01085689 -0.03168604 -0.01163890
v -0.01085689 -0.03116803 -0.01172677
v -0.00008227 -0.03010312 -0.01148559
v -0.00729207 -0.03051937 -0.01166975
v -0.00729207 -0.02998000 -0.01151738
v -0.00675207 -0.02945320 -0.01133229
v -0.00008227 -0.03159558 -0.01152579
v -0.01085689 -0.03204031 -0.01147998
v -0.01085689 -0.03055329 -0.01153888
v -0.00008227 -0.02977397 -0.01100884
v -0.00675207 -0.02896702 -0.01100604
v -0.00008227 -0.03191384 -0.01119954
v -0.00513314 -0.03194106 -0.01141361
v -0.01085689 -0.03238160 -0.01093219
v -0.01085689 -0.03020362 -0.01116122
v -0.00729207 -0.02899633 -0.01095089
v -0.00008227 -0.02963578 -0.01053303
v -0.00675207 -0.02864834 -0.01049470
v -0.00723195 -0.02865588 -0.01046572
v -0.00008227 -0.03214751 -0.00989829
v -0.00012973 -0.03210187 -0.01043861
v -0.00081105 -0.03212322 -0.01053303
v -0.00135105 -0.03214416 -0.01053303
v -0.01027682 -0.03240924 -0.01079758
v -0.01085689 -0.03245530 -0.01055172
v -0.01085689 -0.02997833 -0.01053303
v -0.00008227 -0.02960605 -0.01008619
v -0.00647575 -0.02862573 -0.01027409
v -0.00670988 -0.02857464 -0.01000954
v -0.00738488 -0.02860479 -0.00999271
v -0.00008227 -0.03216007 -0.00945146
v -0.00135105 -0.03219316 -0.00999271
v -0.00189105 -0.03221200 -0.00999271
v -0.00621102 -0.03235857 -0.00999271
v -0.00621102 -0.03230664 -0.01053303
v -0.01085689 -0.03250220 -0.00999271
v -0.01085689 -0.02996032 -0.01010021
v -0.00750722 -0.02861023 -0.00954961
v -0.00008227 -0.02936065 -0.00223663
v -0.00675207 -0.02824382 -0.00223663
v -0.00729207 -0.02852438 -0.00891207
v -0.00677844 -0.02854323 -0.00945146
v -0.00008227 -0.03216091 -0.00405202
v -0.00017719 -0.03216468 -0.00341822
v -0.00081105 -0.03218813 -0.00405202
v -0.00135105 -0.03220781 -0.00351170
v -0.00297104 -0.03226058 -0.00945146
v -0.01085689 -0.03252188 -0.00945146
v -0.01085689 -0.02994901 -0.00945146
v -0.00731000 -0.02831291 -0.00223663
v -0.00008227 -0.03215714 -0.00223663
v -0.00008227 -0.03216007 -0.00278349
v -0.00243210 -0.03223796 -0.00233385
v -0.01085689 -0.03252063 -0.00880364
v -0.01085689 -0.02987615 -0.00223663
v -0.00842269 -0.03241845 -0.00223663
v -0.01085689 -0.03248713 -0.00223663
v -0.00891101 -0.03243269 -0.00223663
f 1 2 3
f 1 3 4
f 1 4 5
f 1 5 2
f 2 6 13
f 2 13 20
f 2 20 30
f 2 30 42
f 2 42 54
f 2 54 55
f 2 55 46
f 2 46 34
f 2 34 23
f 2 23 15
f 2 15 10
f 2 10 3
f 2 5 7
f 2 7 8
f 2 8 9
f 2 9 6
f 3 10 11
f 3 11 4
f 4 11 17
f 4 17 28
f 4 28 39
f 4 39 51
f 4 51 57
f 4 57 60
f 4 60 58
f 4 58 52
f 4 52 40
f 4 40 29
f 4 29 18
f 4 18 12
f 4 12 5
f 5 12 8
f 5 8 7
f 6 9 14
f 6 14 13
f 8 12 9
f 9 12 14
f 10 15 16
f 10 16 11
f 11 16 17
f 12 18 19
f 12 19 14
f 13 14 21
f 13 21 20
f 14 19 22
f 14 22 21
f 15 23 24
f 15 24 25
f 15 25 26
f 15 26 27
f 15 27 17
f 15 17 16
f 17 27 28
f 18 29 22
f 18 22 19
f 20 21 31
f 20 31 30
f 21 22 32
f 21 32 31
f 22 29 33
f 22 33 32
f 23 34 35
f 23 35 25
f 23 25 24
f 25 35 26
f 26 35 36
f 26 36 37
f 26 37 38
f 26 38 27
f 27 38 28
f 28 38 37
f 28 37 39
f 29 40 41
f 29 41 33
f 30 31 32
f 30 32 43
f 30 43 42
f 32 33 44
f 32 44 45
f 32 45 43
f 33 41 44
f 34 46 47
f 34 47 48
f 34 48 49
f 34 49 50
f 34 50 36
f 34 36 35
f 36 50 37
f 37 50 51
f 37 51 39
f 40 52 53
f 40 53 41
f 41 53 44
f 42 43 53
f 42 53 58
f 42 58 60
f 42 60 61
f 42 61 59
f 42 59 54
f 43 45 44
f 43 44 53
f 46 55 47
f 47 55 49
f 47 49 48
f 49 55 54
f 49 54 56
f 49 56 57
f 49 57 51
f 49 51 50
f 52 58 53
f 54 59 56
f 56 59 57
f 57 59 61
f 57 61 60

