# https://github.com/mikedh/trimesh
v 0.00238213 0.00758031 0.00783749
v 0.00316240 0.00765960 0.01135211
v 0.00290850 0.00765960 0.01058123
v 0.00285273 0.00837326 0.01053307
v 0.00239435 0.00835359 0.00783749
v 0.00598443 0.00748503 0.00783749
v 0.00457793 0.00748503 0.01153503
v 0.00349596 0.00765960 0.01159251
v 0.00315071 0.00837326 0.01144610
v 0.00301580 0.00783295 0.01107289
v 0.00297968 0.00837326 0.01107289
v 0.00299561 0.00891295 0.01107289
v 0.00286920 0.00891295 0.01053307
v 0.00242781 0.00895107 0.00783749
v 0.00512927 0.00748503 0.01053307
v 0.00780842 0.01063593 0.00783749
v 0.00780842 0.01107420 0.01053307
v 0.00780842 0.01125431 0.01122279
v 0.00405208 0.00765960 0.01173969
v 0.00488919 0.00748503 0.01114512
v 0.00780842 0.01160714 0.01162435
v 0.00780842 0.01215298 0.01180455
v 0.00351137 0.00837326 0.01161853
v 0.00315974 0.00891295 0.01143911
v 0.00323463 0.00952826 0.01125308
v 0.00321126 0.00979749 0.01090434
v 0.00300252 0.00945327 0.01053307
v 0.00251067 0.00945327 0.00783749
v 0.00780842 0.01376469 0.00783749
v 0.00351137 0.00891295 0.01159056
v 0.00621123 0.01215298 0.01172882
v 0.00780842 0.01269329 0.01167600
v 0.00459174 0.01107359 0.01152920
v 0.00459174 0.01148174 0.01142474
v 0.00425764 0.01123095 0.01130473
v 0.00376207 0.01083263 0.01085502
v 0.00350234 0.01053389 0.01053307
v 0.00322985 0.01002616 0.01053307
v 0.00270826 0.00999358 0.00783749
v 0.00729160 0.01371736 0.00783749
v 0.00780842 0.01320041 0.01108143
v 0.00729160 0.01269329 0.01163833
v 0.00621123 0.01260232 0.01152144
v 0.00571832 0.01235030 0.01149231
v 0.00522912 0.01203619 0.01144182
v 0.00780842 0.01304981 0.01145309
v 0.00729160 0.01303322 0.01144066
v 0.00487059 0.01187453 0.01132881
v 0.00477339 0.01195935 0.01096881
v 0.00455668 0.01190465 0.01053307
v 0.00354164 0.01158870 0.00783749
v 0.00321657 0.01107850 0.00783749
v 0.00294462 0.01052098 0.00783749
v 0.00675195 0.01358090 0.00783749
v 0.00729160 0.01314816 0.01107289
v 0.00691130 0.01299387 0.01138901
v 0.00625957 0.01285188 0.01103599
v 0.00545221 0.01246032 0.01103094
v 0.00505331 0.01230112 0.01053307
v 0.00463423 0.01265088 0.00783749
v 0.00404571 0.01215913 0.00783749
v 0.00617671 0.01339773 0.00783749
v 0.00664519 0.01297605 0.01111366
v 0.00513086 0.01291397 0.00783749
f 1 2 3
f 1 3 4
f 1 4 5
f 1 5 14
f 1 14 28
f 1 28 39
f 1 39 53
f 1 53 52
f 1 52 51
f 1 51 61
f 1 61 60
f 1 60 64
f 1 64 62
f 1 62 54
f 1 54 40
f 1 40 29
f 1 29 16
f 1 16 6
f 1 6 7
f 1 7 2
f 2 8 9
f 2 9 10
f 2 10 3
f 2 7 8
f 3 10 11
f 3 11 4
f 4 11 12
f 4 12 13
f 4 13 5
f 5 13 14
f 6 15 20
f 6 20 7
f 6 16 17
f 6 17 18
f 6 18 15
f 7 19 8
f 7 20 21
f 7 21 22
f 7 22 19
f 8 19 23
f 8 23 9
f 9 11 10
f 9 23 24
f 9 24 11
f 11 24 12
f 12 24 25
f 12 25 26
f 12 26 27
f 12 27 13
f 13 27 28
f 13 28 14
f 15 18 20
f 16 29 41
f 16 41 46
f 16 46 32
f 16 32 22
f 16 22 21
f 16 21 18
f 16 18 17
f 18 21 20
f 19 30 23
f 19 22 31
f 19 31 30
f 22 32 31
f 23 30 24
f 24 30 33
f 24 33 34
f 24 34 35
f 24 35 25
f 25 36 26
f 25 35 36
f 26 36 37
f 26 37 38
f 26 38 27
f 27 38 39
f 27 39 28
f 29 40 41
f 30 31 33
f 31 32 42
f 31 42 43
f 31 43 44
f 31 44 45
f 31 45 34
f 31 34 33
f 32 46 47
f 32 47 42
f 34 45 48
f 34 48 35
f 35 48 49
f 35 49 50
f 35 50 36
f 36 50 51
f 36 51 52
f 36 52 37
f 37 52 38
f 38 52 53
f 38 53 39
f 40 54 55
f 40 55 41
f 41 55 47
f 41 47 46
f 42 47 43
f 43 47 56
f 43 56 57
f 43 57 58
f 43 58 44
f 44 58 48
f 44 48 45
f 47 55 56
f 48 58 49
f 49 58 59
f 49 59 50
f 50 59 60
f 50 60 61
f 50 61 51
f 54 62 63
f 54 63 55
f 55 63 56
f 56 63 57
f 57 63 62
f 57 62 64
f 57 64 58
f 58 64 60
f 58 60 59

