# https://github.com/mikedh/trimesh
v 0.00096663 0.00748503 -0.00190351
v -0.00008227 0.00748503 -0.00190351
v 0.00297638 0.00680166 -0.00190351
v 0.00211208 0.00748503 -0.00489624
v 0.00007607 0.00748503 -0.00793933
v -0.00008227 0.00588374 -0.00966307
v -0.00008227 0.00483677 -0.00190351
v 0.00376421 0.00647783 -0.00190351
v 0.00213602 0.00748503 -0.00568180
v 0.00564188 0.00555017 -0.00190351
v 0.00064841 0.00748503 -0.00776579
v 0.00091257 0.00698752 -0.00923930
v 0.00005058 0.00685766 -0.00951588
v -0.00008227 0.00525393 -0.00909443
v 0.00081061 0.00656467 -0.00977153
v 0.00081061 0.00621081 -0.00980949
v 0.00621653 -0.00080632 -0.00973202
v 0.00562025 -0.00080632 -0.00938572
v -0.00008227 0.00502181 -0.00751478
v 0.00358425 -0.00080632 -0.00190351
v 0.00204334 0.00748503 -0.00621094
v 0.00627215 0.00517439 -0.00190351
v 0.00439988 0.00574901 -0.00837162
v 0.00132116 0.00748503 -0.00725138
v 0.00189118 0.00688201 -0.00891160
v 0.00251835 0.00663041 -0.00909056
v 0.00165328 0.00663366 -0.00951820
v -0.00008227 0.00507700 -0.00837162
v 0.00530821 -0.00080632 -0.00894801
v 0.00510816 -0.00080632 -0.00837162
v 0.00438135 0.00535214 -0.00956391
v 0.00465168 0.00477265 -0.00976998
v 0.00404999 0.00459085 -0.00981724
v 0.00643744 0.00027149 -0.00978858
v 0.00642817 -0.00026985 -0.00977928
v 0.00696806 -0.00077872 -0.00927029
v 0.00780842 -0.00077223 -0.00665252
v 0.00780842 -0.00080632 -0.00190351
v 0.00181162 0.00748503 -0.00678578
v 0.00351164 0.00622299 -0.00891160
v 0.00301423 0.00649325 -0.00891160
v 0.00466481 0.00545602 -0.00891160
v 0.00681281 0.00466958 -0.00190351
v 0.00396735 0.00588942 -0.00905182
v 0.00501856 0.00503561 -0.00913239
v 0.00602962 0.00346840 -0.00941904
v 0.00573302 0.00316892 -0.00976301
v 0.00513056 0.00351061 -0.00980252
v 0.00657260 0.00102710 -0.00977153
v 0.00698969 0.00027149 -0.00945700
v 0.00697193 -0.00026985 -0.00942833
v 0.00780842 -0.00042892 -0.00714137
v 0.00780842 0.00144264 -0.00567251
v 0.00780765 0.00161551 -0.00212276
v 0.00717120 0.00402841 -0.00190351
v 0.00619722 0.00351061 -0.00891160
v 0.00589831 0.00399513 -0.00898829
v 0.00545419 0.00452511 -0.00909753
v 0.00651776 0.00278747 -0.00908746
v 0.00669232 0.00189146 -0.00939192
v 0.00694103 0.00106605 -0.00938495
v 0.00780842 0.00028854 -0.00726765
v 0.00780842 0.00139070 -0.00621094
v 0.00780842 0.00105145 -0.00687564
f 1 2 7
f 1 7 20
f 1 20 38
f 1 38 55
f 1 55 43
f 1 43 22
f 1 22 10
f 1 10 8
f 1 8 3
f 1 3 4
f 1 4 9
f 1 9 21
f 1 21 39
f 1 39 24
f 1 24 11
f 1 11 5
f 1 5 2
f 2 5 6
f 2 6 14
f 2 14 28
f 2 28 19
f 2 19 7
f 3 8 4
f 4 8 10
f 4 10 9
f 5 11 12
f 5 12 13
f 5 13 6
f 6 13 15
f 6 15 16
f 6 16 17
f 6 17 18
f 6 18 14
f 7 19 20
f 9 10 22
f 9 22 23
f 9 23 21
f 11 24 25
f 11 25 12
f 12 25 26
f 12 26 27
f 12 27 15
f 12 15 13
f 14 18 29
f 14 29 30
f 14 30 20
f 14 20 28
f 15 27 31
f 15 31 32
f 15 32 16
f 16 32 33
f 16 33 34
f 16 34 35
f 16 35 17
f 17 35 36
f 17 36 37
f 17 37 38
f 17 38 20
f 17 20 30
f 17 30 29
f 17 29 18
f 19 28 20
f 21 23 40
f 21 40 41
f 21 41 39
f 22 42 23
f 22 43 42
f 23 42 40
f 24 39 25
f 25 39 26
f 26 39 41
f 26 41 31
f 26 31 27
f 31 41 40
f 31 40 44
f 31 44 42
f 31 42 45
f 31 45 46
f 31 46 32
f 32 46 47
f 32 47 48
f 32 48 33
f 33 48 34
f 34 48 49
f 34 49 35
f 35 49 50
f 35 50 51
f 35 51 36
f 36 51 52
f 36 52 37
f 37 52 62
f 37 62 64
f 37 64 63
f 37 63 53
f 37 53 38
f 38 53 54
f 38 54 55
f 40 42 44
f 42 43 45
f 43 55 56
f 43 56 57
f 43 57 58
f 43 58 45
f 45 58 46
f 46 59 60
f 46 60 47
f 46 58 57
f 46 57 56
f 46 56 59
f 47 60 49
f 47 49 48
f 49 60 61
f 49 61 50
f 50 62 51
f 50 61 62
f 51 62 52
f 53 63 55
f 53 55 54
f 55 63 56
f 56 63 59
f 59 63 64
f 59 64 60
f 60 64 61
f 61 64 62

