# https://github.com/mikedh/trimesh
v -0.01350415 -0.03266107 -0.00945107
v -0.01437141 -0.03247270 -0.01039987
v -0.01350415 -0.03248096 -0.01079152
v -0.01093826 -0.03240660 -0.01077753
v -0.01085689 -0.03250079 -0.00998958
v -0.01085689 -0.03252062 -0.00918064
v -0.01091146 -0.03248096 0.00577881
v -0.01269480 -0.03256689 0.00566924
v -0.01377409 -0.03263133 -0.00080690
v -0.01454946 -0.03253384 -0.00904543
v -0.01505105 -0.03179852 -0.01048147
v -0.01458535 -0.03186957 -0.01125310
v -0.01350415 -0.03180843 -0.01156315
v -0.01269480 -0.03189601 -0.01152352
v -0.01096554 -0.03184148 -0.01157248
v -0.01088417 -0.03085995 -0.01163309
v -0.01085689 -0.01578172 -0.00020078
v -0.01085689 -0.03237025 0.00663670
v -0.01350415 -0.03254541 0.00652247
v -0.01431398 -0.03255532 -0.00080690
v -0.01459014 -0.03241321 0.00404904
v -0.01463561 -0.03248757 -0.00796375
v -0.01521043 -0.03185800 -0.00863980
v -0.01517406 -0.03183487 -0.00945107
v -0.01535929 -0.03105824 -0.01026000
v -0.01520708 -0.03065340 -0.01096636
v -0.01454324 -0.03078724 -0.01163775
v -0.01377409 -0.03105824 -0.01177529
v -0.01188401 -0.03182661 -0.01160045
v -0.01431398 -0.02889854 -0.01182891
v -0.01457147 -0.02241944 -0.01191284
v -0.01461982 -0.01578172 -0.01189419
v -0.01364295 -0.01578172 -0.01139997
v -0.01085689 -0.01578172 0.00768575
v -0.01085689 -0.03194393 0.00743864
v -0.01399330 -0.03219179 0.00745262
v -0.01478638 -0.03207116 0.00646419
v -0.01543347 -0.03105824 -0.00836938
v -0.01542629 -0.03105824 -0.00918064
v -0.01530903 -0.03117886 0.00652013
v -0.01549713 -0.03024856 -0.00971916
v -0.01544209 -0.02997756 -0.01053275
v -0.01511902 -0.02887210 -0.01133936
v -0.01501372 -0.02994286 -0.01137432
v -0.01431398 -0.02997756 -0.01179161
v -0.01547894 -0.01578172 -0.01133236
v -0.01431398 -0.01578172 0.00778832
v -0.01091959 -0.02094715 0.01152760
v -0.01085689 -0.02708419 0.01168146
v -0.01323516 -0.03201333 0.00765777
v -0.01483950 -0.03134741 0.00746428
v -0.01546410 -0.03024856 0.00661571
v -0.01517358 -0.03024856 0.00738269
v -0.01569624 -0.02147427 -0.01019239
v -0.01559716 -0.02565651 -0.01026000
v -0.01559381 -0.02043655 -0.01093838
v -0.01574649 -0.01578172 -0.01032994
v -0.01569624 -0.01578172 0.00649216
v -0.01525590 -0.01615847 0.00746428
v -0.01121634 -0.02182458 0.01161152
v -0.01108807 -0.02601674 0.01190293
v -0.01186583 -0.02533429 0.01159054
v -0.01573931 -0.01877258 -0.01026000
v -0.01176197 -0.02256981 0.01142502
f 1 2 3
f 1 3 4
f 1 4 5
f 1 5 6
f 1 6 7
f 1 7 8
f 1 8 9
f 1 9 10
f 1 10 2
f 2 11 12
f 2 12 3
f 2 10 11
f 3 12 13
f 3 13 14
f 3 14 15
f 3 15 4
f 4 15 5
f 5 15 16
f 5 16 17
f 5 17 34
f 5 34 49
f 5 49 35
f 5 35 18
f 5 18 6
f 6 18 7
f 7 19 8
f 7 18 19
f 8 19 9
f 9 19 20
f 9 20 10
f 10 20 21
f 10 21 22
f 10 22 23
f 10 23 24
f 10 24 11
f 11 24 25
f 11 25 26
f 11 26 12
f 12 27 28
f 12 28 13
f 12 26 27
f 13 28 29
f 13 29 14
f 14 29 15
f 15 29 28
f 15 28 16
f 16 28 30
f 16 30 31
f 16 31 32
f 16 32 33
f 16 33 17
f 17 33 32
f 17 32 46
f 17 46 57
f 17 57 58
f 17 58 47
f 17 47 34
f 18 35 36
f 18 36 19
f 19 37 21
f 19 21 20
f 19 36 37
f 21 37 23
f 21 23 22
f 23 38 39
f 23 39 24
f 23 37 40
f 23 40 38
f 24 39 25
f 25 39 41
f 25 41 42
f 25 42 26
f 26 42 43
f 26 43 44
f 26 44 27
f 27 31 45
f 27 45 28
f 27 44 31
f 28 45 30
f 30 45 31
f 31 44 43
f 31 43 46
f 31 46 32
f 34 47 48
f 34 48 49
f 35 50 36
f 35 49 50
f 36 50 49
f 36 49 51
f 36 51 37
f 37 51 40
f 38 40 52
f 38 52 41
f 38 41 39
f 40 51 53
f 40 53 52
f 41 54 55
f 41 55 42
f 41 52 54
f 42 56 43
f 42 55 56
f 43 56 46
f 46 56 57
f 47 58 59
f 47 59 48
f 48 59 60
f 48 60 61
f 48 61 49
f 49 61 51
f 51 61 62
f 51 62 53
f 52 53 58
f 52 58 54
f 53 62 59
f 53 59 58
f 54 63 56
f 54 56 55
f 54 58 63
f 56 63 57
f 57 63 58
f 59 62 64
f 59 64 60
f 60 64 62
f 60 62 61

