# https://github.com/mikedh/trimesh
v 0.00631848 -0.01653671 -0.00962097
v 0.00583482 -0.01653671 -0.00906982
v 0.00569285 -0.01653671 -0.00233560
v 0.00811278 -0.01679454 -0.00234217
v 0.00706925 -0.01668760 -0.00960564
v 0.00189090 -0.02206828 -0.00979325
v 0.00081128 -0.02200382 -0.00977646
v -0.00008146 -0.02201555 -0.00970127
v -0.00008146 -0.02150062 -0.00942679
v 0.00556531 -0.01653671 -0.00836902
v -0.00008146 -0.02109191 -0.00867927
v 0.00709491 -0.01922046 -0.00233560
v 0.00548350 -0.01653671 -0.00375325
v -0.00008146 -0.02077255 -0.00238378
v 0.00009501 -0.02396903 -0.00233560
v 0.00702353 -0.01864548 -0.00783248
v 0.00700428 -0.01859787 -0.00837194
v 0.00719117 -0.01809686 -0.00837194
v 0.00734517 -0.01755630 -0.00837194
v 0.00745746 -0.01701648 -0.00837194
v 0.00743180 -0.01677696 -0.00889681
v 0.00719357 -0.01766178 -0.00910267
v 0.00655751 -0.01917651 -0.00925743
v 0.00545783 -0.02059969 -0.00959031
v 0.00247002 -0.02229168 -0.00960126
v 0.00135109 -0.02230926 -0.00979106
v 0.00009501 -0.02268648 -0.00950344
v 0.00009501 -0.02302122 -0.00891214
v 0.00547949 -0.01653671 -0.00783248
v -0.00008146 -0.02094834 -0.00791424
v 0.00651099 -0.02023932 -0.00233560
v 0.00647650 -0.01971634 -0.00837194
v 0.00677969 -0.01917651 -0.00783248
v 0.00543858 -0.01653671 -0.00440587
v 0.00543297 -0.01653671 -0.00503221
v 0.00543377 -0.01653671 -0.00557897
v 0.00544259 -0.01653671 -0.00614399
v 0.00546666 -0.01653671 -0.00729155
v -0.00008146 -0.02090000 -0.00706817
v 0.00111207 -0.02401957 -0.00233560
v 0.00674600 -0.01917651 -0.00837194
v 0.00702353 -0.01837153 -0.00893696
v 0.00655510 -0.01940577 -0.00894718
v 0.00601369 -0.02009136 -0.00930488
v 0.00535276 -0.02112120 -0.00887929
v 0.00501588 -0.02119811 -0.00934941
v 0.00424586 -0.02175186 -0.00932240
v 0.00319511 -0.02226605 -0.00934138
v 0.00135109 -0.02268868 -0.00950198
v 0.00081128 -0.02267037 -0.00957790
v 0.00081128 -0.02303660 -0.00891214
v 0.00601288 -0.02082968 -0.00233560
v 0.00558777 -0.02095567 -0.00837194
v 0.00595754 -0.02044148 -0.00878658
v 0.00189090 -0.02382546 -0.00233560
v 0.00135109 -0.02294504 -0.00891214
v 0.00497898 -0.02146839 -0.00837194
v 0.00466055 -0.02165517 -0.00891214
v 0.00389855 -0.02209612 -0.00906179
v 0.00283257 -0.02259932 -0.00873986
v 0.00200560 -0.02270553 -0.00920706
v 0.00350553 -0.02300510 -0.00233560
v 0.00246601 -0.02363722 -0.00233560
v 0.00297133 -0.02334643 -0.00233560
f 1 2 10
f 1 10 29
f 1 29 38
f 1 38 37
f 1 37 36
f 1 36 35
f 1 35 34
f 1 34 13
f 1 13 3
f 1 3 4
f 1 4 5
f 1 5 6
f 1 6 7
f 1 7 8
f 1 8 9
f 1 9 2
f 2 9 11
f 2 11 10
f 3 12 4
f 3 13 14
f 3 14 15
f 3 15 40
f 3 40 55
f 3 55 63
f 3 63 64
f 3 64 62
f 3 62 52
f 3 52 31
f 3 31 12
f 4 12 16
f 4 16 17
f 4 17 18
f 4 18 19
f 4 19 20
f 4 20 21
f 4 21 5
f 5 21 22
f 5 22 23
f 5 23 24
f 5 24 6
f 6 25 26
f 6 26 7
f 6 24 25
f 7 26 8
f 8 15 14
f 8 14 39
f 8 39 30
f 8 30 11
f 8 11 9
f 8 26 27
f 8 27 28
f 8 28 15
f 10 11 30
f 10 30 29
f 12 31 32
f 12 32 33
f 12 33 16
f 13 34 14
f 14 35 36
f 14 36 37
f 14 37 38
f 14 38 29
f 14 29 39
f 14 34 35
f 15 28 40
f 16 33 41
f 16 41 17
f 17 42 18
f 17 41 42
f 18 42 19
f 19 21 20
f 19 42 22
f 19 22 21
f 22 42 23
f 23 42 43
f 23 43 44
f 23 44 24
f 24 44 45
f 24 45 46
f 24 46 47
f 24 47 25
f 25 47 48
f 25 48 49
f 25 49 26
f 26 49 50
f 26 50 27
f 27 50 28
f 28 50 51
f 28 51 40
f 29 30 39
f 31 52 53
f 31 53 54
f 31 54 32
f 32 54 43
f 32 43 41
f 32 41 33
f 40 51 56
f 40 56 55
f 41 43 42
f 43 54 44
f 44 54 45
f 45 57 58
f 45 58 46
f 45 54 53
f 45 53 57
f 46 58 47
f 47 58 59
f 47 59 48
f 48 60 61
f 48 61 49
f 48 59 60
f 49 61 56
f 49 56 51
f 49 51 50
f 52 62 53
f 53 62 57
f 55 60 63
f 55 56 60
f 56 61 60
f 57 62 58
f 58 62 64
f 58 64 59
f 59 64 63
f 59 63 60

