# https://github.com/mikedh/trimesh
v -0.00457420 0.00126756 -0.00081376
v -0.00472527 0.00126756 -0.00611730
v -0.00833659 0.00126756 -0.00081551
v -0.00833659 -0.00158029 -0.00081376
v -0.00351908 -0.00288618 -0.00081376
v -0.00008388 -0.00469981 -0.00245177
v -0.00474709 0.00126756 -0.00664396
v -0.00008388 -0.00492277 -0.00792588
v -0.00701325 0.00126756 -0.00865740
v -0.00833659 0.00105585 -0.00567064
v -0.00833659 -0.00156249 -0.00131580
v -0.00457177 -0.00830272 -0.00245177
v -0.00713848 -0.00288618 -0.00081376
v -0.00008388 -0.00830272 -0.00245177
v -0.00480203 0.00126756 -0.00785290
v -0.00008388 -0.00497898 -0.00837077
v -0.00483192 0.00126756 -0.00837077
v -0.00662223 0.00126756 -0.00935991
v -0.00833659 0.00043382 -0.00724975
v -0.00833659 0.00084319 -0.00675122
v -0.00833659 0.00100713 -0.00620786
v -0.00833659 -0.00130581 -0.00621049
v -0.00536190 -0.00412087 -0.00941882
v -0.00493937 -0.00466421 -0.00939684
v -0.00452815 -0.00507359 -0.00938805
v -0.00419044 -0.00546798 -0.00925264
v -0.00230965 -0.00830272 -0.00625446
v -0.00833659 -0.00112407 -0.00684794
v -0.00019941 -0.00830272 -0.00765596
v -0.00008388 -0.00612561 -0.00975732
v -0.00008388 -0.00525158 -0.00911812
v -0.00494906 0.00126756 -0.00891502
v -0.00522052 0.00126756 -0.00939068
v -0.00615041 0.00091626 -0.00969050
v -0.00653578 0.00026051 -0.00960873
v -0.00670059 0.00080947 -0.00939596
v -0.00697043 0.00080947 -0.00904427
v -0.00833659 -0.00027065 -0.00743615
v -0.00602115 -0.00315410 -0.00929485
v -0.00540068 -0.00351758 -0.00971952
v -0.00456450 -0.00456023 -0.00977139
v -0.00318138 -0.00605442 -0.00933002
v -0.00193801 -0.00830272 -0.00677848
v -0.00833659 -0.00078683 -0.00719260
v -0.00016790 -0.00696966 -0.00937310
v -0.00070920 -0.00830272 -0.00755748
v -0.00008388 -0.00567876 -0.00954719
v -0.00017760 -0.00659307 -0.00975205
v -0.00476890 -0.00412837 -0.00979425
v -0.00635643 -0.00027065 -0.00975908
v -0.00674503 -0.00027065 -0.00945223
v -0.00653093 -0.00081774 -0.00961137
v -0.00650185 -0.00135078 -0.00951817
v -0.00655194 -0.00189037 -0.00926583
v -0.00583129 -0.00273723 -0.00964830
v -0.00516154 -0.00351571 -0.00978722
v -0.00597348 -0.00203745 -0.00973710
v -0.00551136 -0.00297330 -0.00977051
v -0.00413066 -0.00476632 -0.00977931
v -0.00197033 -0.00613030 -0.00965709
v -0.00205920 -0.00653124 -0.00926671
v -0.00138783 -0.00830272 -0.00725327
v -0.00135148 -0.00663710 -0.00938277
v -0.00608336 -0.00135078 -0.00976700
f 1 2 7
f 1 7 15
f 1 15 17
f 1 17 32
f 1 32 33
f 1 33 18
f 1 18 9
f 1 9 3
f 1 3 4
f 1 4 13
f 1 13 5
f 1 5 6
f 1 6 2
f 2 6 8
f 2 8 7
f 3 9 10
f 3 10 21
f 3 21 20
f 3 20 19
f 3 19 38
f 3 38 44
f 3 44 28
f 3 28 22
f 3 22 11
f 3 11 4
f 4 11 12
f 4 12 13
f 5 13 12
f 5 12 14
f 5 14 6
f 6 14 30
f 6 30 47
f 6 47 31
f 6 31 16
f 6 16 8
f 7 8 15
f 8 16 17
f 8 17 15
f 9 18 19
f 9 19 20
f 9 20 21
f 9 21 10
f 11 22 12
f 12 23 24
f 12 24 25
f 12 25 26
f 12 26 27
f 12 27 43
f 12 43 62
f 12 62 46
f 12 46 29
f 12 29 14
f 12 22 28
f 12 28 23
f 14 29 30
f 16 31 32
f 16 32 17
f 18 33 34
f 18 34 35
f 18 35 36
f 18 36 37
f 18 37 19
f 19 37 38
f 23 39 40
f 23 40 41
f 23 41 24
f 23 28 39
f 24 41 25
f 25 41 42
f 25 42 26
f 26 42 43
f 26 43 27
f 28 44 39
f 29 45 30
f 29 46 45
f 30 45 48
f 30 48 49
f 30 49 50
f 30 50 34
f 30 34 33
f 30 33 47
f 31 47 33
f 31 33 32
f 34 50 35
f 35 50 51
f 35 51 36
f 36 51 38
f 36 38 37
f 38 51 52
f 38 52 53
f 38 53 54
f 38 54 44
f 39 44 54
f 39 54 55
f 39 55 40
f 40 56 49
f 40 49 41
f 40 55 57
f 40 57 58
f 40 58 56
f 41 59 60
f 41 60 42
f 41 49 59
f 42 60 61
f 42 61 62
f 42 62 43
f 45 46 63
f 45 63 48
f 46 62 61
f 46 61 63
f 48 63 60
f 48 60 59
f 48 59 49
f 49 56 50
f 50 56 64
f 50 64 52
f 50 52 51
f 52 64 57
f 52 57 53
f 53 57 55
f 53 55 54
f 56 58 64
f 57 64 58
f 60 63 61

