# https://github.com/mikedh/trimesh
v -0.00269258 -0.00830325 0.01065911
v -0.00286196 -0.00830325 0.01101978
v -0.00318396 -0.00963431 0.01092307
v -0.00298465 -0.00945374 0.01053308
v -0.00284759 -0.00945374 0.00999287
v -0.00248429 -0.00995572 0.00791805
v -0.00237297 -0.00945529 0.00791805
v -0.00229217 -0.00891306 0.00791805
v -0.00222214 -0.00833833 0.00791805
v -0.00580726 -0.00830325 0.00791805
v -0.00313907 -0.00830325 0.01138639
v -0.00321688 -0.00874229 0.01136459
v -0.00331982 -0.00927781 0.01127383
v -0.00379086 -0.01024206 0.01133606
v -0.00333239 -0.01033853 0.01047799
v -0.00273328 -0.01053407 0.00791805
v -0.00833600 -0.01039528 0.00791805
v -0.00833600 -0.01087147 0.01105862
v -0.00460843 -0.00830325 0.01107289
v -0.00401710 -0.00830325 0.01165075
v -0.00349818 -0.00833833 0.01159051
v -0.00415535 -0.01053407 0.01143158
v -0.00435646 -0.01107629 0.01138758
v -0.00436962 -0.01151430 0.01103445
v -0.00298884 -0.01108145 0.00791805
v -0.00381839 -0.01102006 0.01053308
v -0.00833600 -0.01354339 0.00791805
v -0.00833600 -0.01108867 0.01161666
v -0.00439356 -0.00830325 0.01147200
v -0.00833600 -0.01145394 0.01194800
v -0.00783204 -0.01215301 0.01196663
v -0.00681217 -0.01196676 0.01189014
v -0.00621186 -0.01161336 0.01183663
v -0.00567080 -0.01161336 0.01176608
v -0.00513213 -0.01161336 0.01160755
v -0.00472813 -0.01161336 0.01141612
v -0.00481073 -0.01194406 0.01121597
v -0.00429720 -0.01163967 0.01053308
v -0.00345090 -0.01166134 0.00791805
v -0.00794397 -0.01357383 0.00791805
v -0.00783204 -0.01313685 0.01107289
v -0.00833600 -0.01315543 0.01056915
v -0.00833600 -0.01232532 0.01194325
v -0.00722156 -0.01229746 0.01191154
v -0.00621186 -0.01215301 0.01179105
v -0.00567080 -0.01215301 0.01165432
v -0.00517343 -0.01211070 0.01144426
v -0.00468085 -0.01207407 0.01053308
v -0.00519318 -0.01235628 0.01114502
v -0.00496874 -0.01234441 0.01053308
v -0.00405181 -0.01214269 0.00791805
v -0.00675172 -0.01355371 0.00791805
v -0.00783204 -0.01302851 0.01147557
v -0.00831265 -0.01299240 0.01134161
v -0.00721677 -0.01302954 0.01122905
v -0.00783204 -0.01264932 0.01183188
v -0.00729158 -0.01272722 0.01168325
v -0.00621186 -0.01259256 0.01153938
v -0.00567080 -0.01250022 0.01143475
v -0.00567080 -0.01264209 0.01107289
v -0.00523867 -0.01251621 0.01053308
v -0.00469581 -0.01258895 0.00791805
v -0.00621186 -0.01344021 0.00791805
v -0.00663920 -0.01295577 0.01105188
f 1 2 3
f 1 3 4
f 1 4 5
f 1 5 6
f 1 6 7
f 1 7 8
f 1 8 9
f 1 9 10
f 1 10 19
f 1 19 29
f 1 29 20
f 1 20 11
f 1 11 2
f 2 11 12
f 2 12 3
f 3 12 13
f 3 13 14
f 3 14 15
f 3 15 4
f 4 15 6
f 4 6 5
f 6 15 16
f 6 16 25
f 6 25 39
f 6 39 51
f 6 51 62
f 6 62 63
f 6 63 52
f 6 52 40
f 6 40 27
f 6 27 17
f 6 17 10
f 6 10 9
f 6 9 8
f 6 8 7
f 10 17 18
f 10 18 19
f 11 20 21
f 11 21 12
f 12 21 14
f 12 14 13
f 14 21 22
f 14 22 23
f 14 23 24
f 14 24 15
f 15 25 16
f 15 24 26
f 15 26 25
f 17 27 42
f 17 42 43
f 17 43 30
f 17 30 28
f 17 28 18
f 18 28 29
f 18 29 19
f 20 29 30
f 20 30 31
f 20 31 32
f 20 32 33
f 20 33 21
f 21 33 34
f 21 34 35
f 21 35 22
f 22 35 23
f 23 35 36
f 23 36 24
f 24 36 37
f 24 37 38
f 24 38 26
f 25 26 38
f 25 38 39
f 27 40 41
f 27 41 42
f 28 30 29
f 30 43 31
f 31 43 44
f 31 44 32
f 32 45 34
f 32 34 33
f 32 44 45
f 34 45 46
f 34 46 35
f 35 46 47
f 35 47 36
f 36 47 37
f 37 48 38
f 37 47 49
f 37 49 48
f 38 48 39
f 39 48 50
f 39 50 51
f 40 52 41
f 41 53 54
f 41 54 42
f 41 52 55
f 41 55 53
f 42 54 43
f 43 54 56
f 43 56 44
f 44 56 57
f 44 57 45
f 45 57 58
f 45 58 46
f 46 58 59
f 46 59 47
f 47 59 49
f 48 49 50
f 49 59 60
f 49 60 61
f 49 61 50
f 50 62 51
f 50 61 62
f 52 63 64
f 52 64 55
f 53 55 58
f 53 58 57
f 53 57 56
f 53 56 54
f 55 64 59
f 55 59 58
f 59 64 60
f 60 64 63
f 60 63 61
f 61 63 62

