# https://github.com/mikedh/trimesh
v -0.00710090 -0.02138996 0.00807479
v -0.00710090 -0.02117716 0.01033161
v -0.00710090 -0.01972105 0.01185093
v -0.00696798 -0.01862431 0.00807479
v -0.00673576 -0.02622481 0.00807479
v -0.00710090 -0.02101942 0.01110838
v -0.00642337 -0.01983637 0.01187581
v -0.00692608 -0.01921137 0.01152203
v -0.00692195 -0.01894872 0.01099486
v -0.00710090 -0.02025676 0.01184705
v -0.00641716 -0.02033935 0.01195279
v -0.00559430 -0.02010721 0.01193374
v -0.00640165 -0.01896286 0.01053339
v -0.00622735 -0.01874113 0.00807479
v -0.00235302 -0.02622481 0.00807479
v -0.00520175 -0.02622481 0.01129810
v -0.00710090 -0.02073147 0.01164061
v -0.00621132 -0.01922104 0.01129071
v -0.00508331 -0.01994575 0.01173547
v -0.00564498 -0.01938994 0.01132609
v -0.00460542 -0.02622481 0.01167015
v -0.00459145 -0.02133787 0.01204649
v -0.00513141 -0.02079769 0.01200877
v -0.00430286 -0.02072998 0.01194346
v -0.00520433 -0.01945616 0.01104618
v -0.00567084 -0.01920839 0.01053339
v -0.00521881 -0.01920616 0.00807479
v -0.00478540 -0.01958860 0.01053339
v -0.00282936 -0.02622481 0.01055360
v -0.00195426 -0.02532823 0.00807479
v -0.00451646 -0.01984084 0.01120207
v -0.00383841 -0.02066748 0.01157996
v -0.00407943 -0.02622481 0.01165460
v -0.00405201 -0.02187806 0.01201266
v -0.00389427 -0.02125826 0.01197029
v -0.00412856 -0.01975602 0.00807479
v -0.00408822 -0.02004843 0.01053339
v -0.00275023 -0.02572927 0.01101663
v -0.00320640 -0.02620026 0.01124523
v -0.00181720 -0.02457748 0.00807479
v -0.00231164 -0.02457748 0.01053339
v -0.00400340 -0.02023221 0.01107300
v -0.00267316 -0.02264815 0.01117447
v -0.00311330 -0.02173594 0.01121374
v -0.00266954 -0.02220097 0.01048401
v -0.00330673 -0.02565784 0.01151426
v -0.00351206 -0.02511692 0.01164605
v -0.00365946 -0.02311021 0.01187970
v -0.00349551 -0.02241824 0.01188320
v -0.00365481 -0.02187806 0.01193841
v -0.00356481 -0.02024337 0.00807479
v -0.00258627 -0.02511692 0.01098475
v -0.00242698 -0.02403655 0.01107300
v -0.00305330 -0.02511692 0.01148277
v -0.00184668 -0.02380590 0.00807479
v -0.00221751 -0.02403655 0.01053339
v -0.00303469 -0.02088623 0.00807479
v -0.00237112 -0.02295693 0.01053339
v -0.00279729 -0.02349711 0.01151737
v -0.00242129 -0.02349711 0.01107300
v -0.00196977 -0.02299413 0.00807479
v -0.00246163 -0.02196734 0.00807479
v -0.00281177 -0.02403655 0.01147421
v -0.00226147 -0.02349711 0.01053339
f 1 2 6
f 1 6 17
f 1 17 10
f 1 10 3
f 1 3 4
f 1 4 14
f 1 14 27
f 1 27 36
f 1 36 51
f 1 51 57
f 1 57 62
f 1 62 61
f 1 61 55
f 1 55 40
f 1 40 30
f 1 30 15
f 1 15 5
f 1 5 2
f 2 5 6
f 3 7 8
f 3 8 9
f 3 9 4
f 3 10 11
f 3 11 12
f 3 12 7
f 4 9 13
f 4 13 14
f 5 15 29
f 5 29 33
f 5 33 21
f 5 21 16
f 5 16 17
f 5 17 6
f 7 12 8
f 8 18 9
f 8 12 19
f 8 19 20
f 8 20 18
f 9 18 13
f 10 17 16
f 10 16 21
f 10 21 11
f 11 21 22
f 11 22 23
f 11 23 12
f 12 23 24
f 12 24 19
f 13 18 20
f 13 20 25
f 13 25 26
f 13 26 14
f 14 26 25
f 14 25 28
f 14 28 27
f 15 30 29
f 19 31 20
f 19 24 32
f 19 32 31
f 20 31 25
f 21 33 34
f 21 34 22
f 22 35 24
f 22 24 23
f 22 34 35
f 24 35 32
f 25 31 28
f 27 28 36
f 28 31 37
f 28 37 36
f 29 30 38
f 29 38 39
f 29 39 33
f 30 40 41
f 30 41 38
f 31 32 42
f 31 42 37
f 32 35 43
f 32 43 44
f 32 44 45
f 32 45 42
f 33 39 46
f 33 46 47
f 33 47 48
f 33 48 34
f 34 48 49
f 34 49 50
f 34 50 35
f 35 50 43
f 36 37 51
f 37 42 51
f 38 41 52
f 38 52 53
f 38 53 54
f 38 54 39
f 39 54 46
f 40 55 56
f 40 56 41
f 41 56 53
f 41 53 52
f 42 45 57
f 42 57 51
f 43 58 45
f 43 45 44
f 43 50 59
f 43 59 60
f 43 60 58
f 45 58 61
f 45 61 62
f 45 62 57
f 46 54 47
f 47 54 48
f 48 54 49
f 49 54 59
f 49 59 50
f 53 56 60
f 53 60 59
f 53 59 63
f 53 63 54
f 54 63 59
f 55 61 64
f 55 64 56
f 56 64 60
f 58 60 64
f 58 64 61

