# https://github.com/mikedh/trimesh
v 0.01721435 -0.02971005 0.00593910
v 0.01717540 -0.02890001 0.00620850
v 0.01717710 -0.02971005 0.00674962
v 0.01718218 -0.03051962 0.00593910
v 0.01714154 -0.03051962 -0.01025959
v 0.01714832 -0.02971005 -0.01025959
v 0.01713477 -0.02890001 -0.00999019
v 0.01712461 -0.02890001 0.00674962
v 0.01708906 -0.02728808 0.00594375
v 0.01692652 -0.02971005 0.00746259
v 0.01710937 -0.03051962 0.00674962
v 0.01669288 -0.03142288 0.00593910
v 0.01668441 -0.03143009 -0.00992052
v 0.01655065 -0.03097077 -0.01117926
v 0.01667256 -0.02971005 -0.01140221
v 0.01709583 -0.02862951 -0.01052899
v 0.01703318 -0.02728808 -0.01025959
v 0.01684356 -0.02728808 0.00702366
v 0.01680970 -0.02862422 0.00750207
v 0.01653880 -0.03113124 0.00719320
v 0.01053680 -0.02765082 0.01192391
v 0.01653034 -0.03158527 -0.00864088
v 0.01593437 -0.03173229 0.00648022
v 0.01581755 -0.03186250 -0.00966506
v 0.01566348 -0.03180244 -0.01041984
v 0.01505566 -0.03149735 -0.01132557
v 0.01539258 -0.03078964 -0.01175753
v 0.01593437 -0.03024913 -0.01175753
v 0.01667256 -0.02890001 -0.01140453
v 0.01664885 -0.02728808 -0.01137202
v 0.00578599 -0.02728808 0.01165219
v 0.00653433 -0.02736015 0.01194713
v 0.00828499 -0.02853582 0.01155465
v 0.01431239 -0.03167031 0.00700508
v 0.00751463 -0.02777574 0.01195178
v 0.01398393 -0.03186154 0.00619689
v 0.01512338 -0.03182742 0.00566971
v 0.01563808 -0.03187979 -0.00809976
v 0.01572104 -0.03187547 -0.00891260
v 0.01539258 -0.03188508 -0.00891260
v 0.01053172 -0.03196387 -0.00999019
v 0.01377229 -0.03187979 -0.01037339
v 0.01457990 -0.03185241 -0.01052434
v 0.01377229 -0.03185721 -0.01064511
v 0.01377229 -0.03148390 -0.01148814
v 0.00405395 -0.03105918 -0.01177379
v 0.01593606 -0.02755377 -0.01174128
v 0.01521988 -0.02728808 -0.01153691
v -0.00008227 -0.02728808 0.00771806
v -0.00008227 -0.03042545 0.00778308
v -0.00008227 -0.03134120 0.00767625
v -0.00008227 -0.03201288 0.00703992
v 0.00243197 -0.03197012 0.00702134
v 0.00243197 -0.03214837 0.00593910
v -0.00008227 -0.03215365 -0.00967435
v -0.00008227 -0.03219593 0.00323816
v 0.00297207 -0.03209408 -0.00999019
v -0.00008227 -0.03209984 -0.01043609
v 0.00081169 -0.03158816 -0.01152762
v -0.00003655 -0.03144738 -0.01156478
v -0.00008227 -0.03031110 -0.01160890
v -0.00008227 -0.02976146 -0.01098418
v -0.00008227 -0.02728808 -0.00099324
v -0.00008227 -0.03218392 0.00593910
f 1 2 3
f 1 3 4
f 1 4 5
f 1 5 6
f 1 6 7
f 1 7 2
f 2 8 3
f 2 7 9
f 2 9 8
f 3 10 11
f 3 11 4
f 3 8 10
f 4 11 12
f 4 12 13
f 4 13 5
f 5 13 14
f 5 14 15
f 5 15 16
f 5 16 6
f 6 16 7
f 7 16 17
f 7 17 9
f 8 9 18
f 8 18 19
f 8 19 10
f 9 17 30
f 9 30 48
f 9 48 63
f 9 63 49
f 9 49 31
f 9 31 18
f 10 20 11
f 10 19 21
f 10 21 20
f 11 20 12
f 12 22 13
f 12 20 23
f 12 23 22
f 13 24 25
f 13 25 14
f 13 22 24
f 14 26 27
f 14 27 28
f 14 28 15
f 14 25 26
f 15 29 16
f 15 28 29
f 16 29 30
f 16 30 17
f 18 31 32
f 18 32 21
f 18 21 19
f 20 21 33
f 20 33 34
f 20 34 23
f 21 32 35
f 21 35 33
f 22 23 24
f 23 36 37
f 23 37 38
f 23 38 39
f 23 39 24
f 23 34 36
f 24 39 40
f 24 40 41
f 24 41 42
f 24 42 43
f 24 43 25
f 25 43 26
f 26 43 44
f 26 44 45
f 26 45 27
f 27 46 28
f 27 45 46
f 28 46 47
f 28 47 29
f 29 47 30
f 30 47 48
f 31 49 50
f 31 50 51
f 31 51 32
f 32 51 35
f 33 51 52
f 33 52 53
f 33 53 34
f 33 35 51
f 34 53 36
f 36 53 54
f 36 54 38
f 36 38 37
f 38 54 40
f 38 40 39
f 40 55 41
f 40 54 56
f 40 56 55
f 41 55 57
f 41 57 42
f 42 57 44
f 42 44 43
f 44 57 58
f 44 58 45
f 45 58 59
f 45 59 46
f 46 59 60
f 46 60 61
f 46 61 47
f 47 61 48
f 48 61 62
f 48 62 63
f 49 63 62
f 49 62 61
f 49 61 58
f 49 58 55
f 49 55 56
f 49 56 64
f 49 64 52
f 49 52 51
f 49 51 50
f 52 64 54
f 52 54 53
f 54 64 56
f 55 58 57
f 58 61 60
f 58 60 59

