# https://github.com/mikedh/trimesh
v -0.00515618 0.01696309 -0.00196698
v -0.00516908 0.01696309 -0.00402624
v -0.00573940 0.01696309 -0.00939714
v -0.00739692 0.01688576 -0.00921189
v -0.00949485 0.01671821 -0.00196698
v -0.00008227 0.01139058 -0.00196698
v -0.00522436 0.01696309 -0.00621104
v -0.00653913 0.01692281 -0.00967426
v -0.00541416 0.01696309 -0.00887889
v -0.00008227 0.01086217 -0.00900596
v -0.00008227 0.01054077 -0.00939102
v -0.00012926 0.00998820 -0.00972249
v -0.00738678 0.01615838 -0.00933897
v -0.00910880 0.01485427 -0.00196698
v -0.00008227 0.00873402 -0.00196698
v -0.00008227 0.01107321 -0.00814858
v -0.00527964 0.01696309 -0.00783165
v -0.00524002 0.01696309 -0.00675150
v -0.00660547 0.01602467 -0.00972402
v -0.00017624 0.00932768 -0.00976460
v -0.00531004 0.01696309 -0.00837594
v -0.00015321 0.00888545 -0.00913610
v -0.00656125 0.01463356 -0.00968881
v -0.00690399 0.01390377 -0.00928921
v -0.00891071 0.01407454 -0.00196698
v -0.00017624 0.00873402 -0.00807662
v -0.00744851 0.01151705 -0.00196698
v -0.00311445 0.00873402 -0.00200219
v -0.00513038 0.01215421 -0.00978680
v -0.00649952 0.01539396 -0.00972785
v -0.00071247 0.00911100 -0.00961226
v -0.00174347 0.00967083 -0.00974469
v -0.00243173 0.01010902 -0.00977378
v -0.00459231 0.01161452 -0.00978450
v -0.00081106 0.00886048 -0.00891180
v -0.00584351 0.01266006 -0.00972173
v -0.00642765 0.01314337 -0.00945379
v -0.00680080 0.01323359 -0.00891180
v -0.00604989 0.01215421 -0.00932059
v -0.00863154 0.01323359 -0.00196698
v -0.00102389 0.00873402 -0.00784007
v -0.00312274 0.00873402 -0.00273480
v -0.00796079 0.01198183 -0.00196698
v -0.00549892 0.01123834 -0.00910318
v -0.00451307 0.01032893 -0.00898759
v -0.00306470 0.00873402 -0.00364194
v -0.00516355 0.01145744 -0.00970335
v -0.00135097 0.00909650 -0.00934815
v -0.00349037 0.00997450 -0.00939332
v -0.00226772 0.00979729 -0.00968957
v -0.00459691 0.01091775 -0.00969646
v -0.00240040 0.00873402 -0.00620798
v -0.00135097 0.00897487 -0.00891180
v -0.00561409 0.01207285 -0.00966661
v -0.00650965 0.01263751 -0.00891180
v -0.00838461 0.01262946 -0.00196698
v -0.00589234 0.01167734 -0.00898682
v -0.00507141 0.01086700 -0.00914682
v -0.00405239 0.01015896 -0.00931447
v -0.00405239 0.01001156 -0.00891180
v -0.00187799 0.00915127 -0.00913151
v -0.00305272 0.00957416 -0.00908864
v -0.00351064 0.00972318 -0.00891180
v -0.00231840 0.00921652 -0.00883066
f 1 2 7
f 1 7 18
f 1 18 17
f 1 17 21
f 1 21 9
f 1 9 3
f 1 3 4
f 1 4 5
f 1 5 14
f 1 14 25
f 1 25 40
f 1 40 56
f 1 56 43
f 1 43 27
f 1 27 15
f 1 15 6
f 1 6 2
f 2 6 7
f 3 8 4
f 3 9 10
f 3 10 11
f 3 11 12
f 3 12 8
f 4 8 13
f 4 13 5
f 5 13 14
f 6 15 11
f 6 11 10
f 6 10 16
f 6 16 17
f 6 17 18
f 6 18 7
f 8 19 13
f 8 12 20
f 8 20 19
f 9 21 16
f 9 16 10
f 11 15 22
f 11 22 12
f 12 22 20
f 13 19 23
f 13 23 24
f 13 24 14
f 14 24 25
f 15 26 22
f 15 27 28
f 15 28 42
f 15 42 46
f 15 46 52
f 15 52 41
f 15 41 26
f 16 21 17
f 19 20 29
f 19 29 30
f 19 30 23
f 20 22 31
f 20 31 32
f 20 32 33
f 20 33 34
f 20 34 29
f 22 26 35
f 22 35 31
f 23 30 36
f 23 36 37
f 23 37 24
f 24 38 25
f 24 37 39
f 24 39 38
f 25 38 40
f 26 41 35
f 27 42 28
f 27 43 44
f 27 44 45
f 27 45 46
f 27 46 42
f 29 47 36
f 29 36 30
f 29 34 47
f 31 35 48
f 31 48 49
f 31 49 50
f 31 50 32
f 32 50 51
f 32 51 33
f 33 51 34
f 34 51 47
f 35 41 52
f 35 52 53
f 35 53 48
f 36 47 54
f 36 54 37
f 37 54 39
f 38 39 55
f 38 55 56
f 38 56 40
f 39 57 55
f 39 54 47
f 39 47 44
f 39 44 57
f 43 56 57
f 43 57 44
f 44 47 58
f 44 58 45
f 45 58 59
f 45 59 60
f 45 60 46
f 46 60 52
f 47 51 58
f 48 53 61
f 48 61 62
f 48 62 49
f 49 59 51
f 49 51 50
f 49 62 59
f 51 59 58
f 52 60 63
f 52 63 64
f 52 64 61
f 52 61 53
f 55 57 56
f 59 62 63
f 59 63 60
f 61 64 62
f 62 64 63

