# https://github.com/mikedh/trimesh
v -0.00792243 0.01030452 0.00781848
v -0.00633104 0.00680054 0.00781848
v -0.00792243 0.01061137 0.00999254
v -0.00792243 0.01107457 0.01157477
v -0.00787696 0.01340021 0.00781848
v -0.00252295 0.00680054 0.00781848
v -0.00509377 0.00680054 0.01108278
v -0.00792243 0.01080001 0.01109000
v -0.00792243 0.01069277 0.01053305
v -0.00787696 0.01152290 0.01188352
v -0.00787696 0.01229682 0.01191319
v -0.00476319 0.00680054 0.01139714
v -0.00776356 0.01292539 0.01139233
v -0.00713235 0.01335047 0.00781848
v -0.00327130 0.00691359 0.01071268
v -0.00357835 0.00680054 0.01112087
v -0.00247855 0.00729345 0.00781848
v -0.00301026 0.00783352 0.01053305
v -0.00314078 0.00783352 0.01102744
v -0.00325793 0.00731283 0.01101983
v -0.00729176 0.01168699 0.01191479
v -0.00405175 0.00729345 0.01153868
v -0.00405175 0.00783352 0.01161126
v -0.00687987 0.01201904 0.01190557
v -0.00721045 0.01234980 0.01189154
v -0.00387148 0.00683413 0.01139113
v -0.00675149 0.01271286 0.01107315
v -0.00730834 0.01267991 0.01161246
v -0.00451232 0.01224514 0.00781848
v -0.00581966 0.01234463 0.01093602
v -0.00363238 0.00729345 0.01140716
v -0.00245769 0.00780961 0.00781848
v -0.00249567 0.00832190 0.00781848
v -0.00305092 0.00837358 0.01053305
v -0.00322744 0.00837358 0.01112408
v -0.00342322 0.00783352 0.01137067
v -0.00405175 0.00837358 0.01166499
v -0.00646852 0.01137302 0.01188873
v -0.00651987 0.01178712 0.01187710
v -0.00567095 0.01161269 0.01171431
v -0.00550780 0.01196542 0.01143764
v -0.00657978 0.01249515 0.01145368
v -0.00515208 0.01161722 0.01151663
v -0.00613526 0.01243959 0.01111646
v -0.00390572 0.01176257 0.00781848
v -0.00488462 0.01186916 0.01072551
v -0.00510608 0.01189565 0.01107315
v -0.00266043 0.00897115 0.00781848
v -0.00329056 0.00898665 0.01100098
v -0.00373508 0.00961457 0.01139714
v -0.00363505 0.00891365 0.01147413
v -0.00356872 0.00837358 0.01147332
v -0.00405175 0.00891365 0.01166579
v -0.00459202 0.01053256 0.01167100
v -0.00513229 0.01107263 0.01171671
v -0.00457597 0.01108361 0.01151583
v -0.00474554 0.01143956 0.01143924
v -0.00443743 0.01139434 0.01102504
v -0.00366394 0.01138724 0.00781848
v -0.00284337 0.00946922 0.00781848
v -0.00334566 0.01074445 0.00781848
v -0.00425716 0.01091112 0.01140716
v -0.00405175 0.00945372 0.01159923
v -0.00418013 0.01053256 0.01146651
f 1 2 3
f 1 3 9
f 1 9 8
f 1 8 4
f 1 4 5
f 1 5 14
f 1 14 29
f 1 29 45
f 1 45 59
f 1 59 61
f 1 61 60
f 1 60 48
f 1 48 33
f 1 33 32
f 1 32 17
f 1 17 6
f 1 6 2
f 2 6 16
f 2 16 12
f 2 12 7
f 2 7 8
f 2 8 9
f 2 9 3
f 4 10 11
f 4 11 5
f 4 8 7
f 4 7 12
f 4 12 10
f 5 11 13
f 5 13 14
f 6 15 16
f 6 17 18
f 6 18 19
f 6 19 20
f 6 20 15
f 10 21 11
f 10 12 22
f 10 22 23
f 10 23 21
f 11 24 25
f 11 25 13
f 11 21 24
f 12 16 26
f 12 26 22
f 13 27 14
f 13 25 28
f 13 28 27
f 14 27 30
f 14 30 29
f 15 20 16
f 16 20 31
f 16 31 26
f 17 32 18
f 18 32 33
f 18 33 34
f 18 34 19
f 19 34 35
f 19 35 36
f 19 36 20
f 20 36 31
f 21 23 37
f 21 37 38
f 21 38 24
f 22 26 31
f 22 31 23
f 23 31 37
f 24 38 39
f 24 39 40
f 24 40 25
f 25 41 42
f 25 42 28
f 25 40 43
f 25 43 41
f 27 28 42
f 27 42 44
f 27 44 30
f 29 30 46
f 29 46 45
f 30 41 47
f 30 47 46
f 30 44 41
f 31 36 37
f 33 48 49
f 33 49 34
f 34 49 35
f 35 49 50
f 35 50 51
f 35 51 52
f 35 52 36
f 36 52 37
f 37 52 53
f 37 53 38
f 38 53 54
f 38 54 39
f 39 54 55
f 39 55 40
f 40 55 56
f 40 56 57
f 40 57 43
f 41 44 42
f 41 43 57
f 41 57 47
f 45 58 59
f 45 46 58
f 46 47 58
f 47 57 58
f 48 60 49
f 49 60 61
f 49 61 62
f 49 62 50
f 50 63 51
f 50 62 64
f 50 64 63
f 51 53 52
f 51 63 53
f 53 63 54
f 54 63 64
f 54 64 62
f 54 62 56
f 54 56 55
f 56 62 57
f 57 62 58
f 58 62 59
f 59 62 61

