# https://github.com/mikedh/trimesh
v -0.00008227 0.00873321 -0.00196698
v -0.00015965 0.00873321 -0.00807162
v -0.00311300 0.00873321 -0.00196698
v -0.00008227 0.00484473 -0.00196698
v -0.00008227 0.00605417 -0.00974663
v -0.00081027 0.00873321 -0.00792221
v -0.00017618 0.00657230 -0.00979413
v -0.00071411 0.00656937 -0.00976961
v -0.00312802 0.00873321 -0.00249799
v -0.00599648 0.00768016 -0.00196698
v -0.00463513 0.00126756 -0.00196698
v -0.00463362 0.00126756 -0.00234933
v -0.00463738 0.00126756 -0.00288877
v -0.00465015 0.00126756 -0.00342897
v -0.00471026 0.00126756 -0.00558900
v -0.00472603 0.00126756 -0.00611847
v -0.00008227 0.00501354 -0.00729159
v -0.00008227 0.00571217 -0.00957959
v -0.00573202 0.00126756 -0.00967843
v -0.00123701 0.00873321 -0.00775823
v -0.00297175 0.00610752 -0.00936121
v -0.00483347 0.00351179 -0.00975889
v -0.00453821 0.00399995 -0.00976655
v -0.00393717 0.00495069 -0.00974280
v -0.00354424 0.00529635 -0.00971981
v -0.00352546 0.00567563 -0.00948304
v -0.00311675 0.00873321 -0.00297152
v -0.00306416 0.00873321 -0.00364198
v -0.00240002 0.00873321 -0.00620889
v -0.00636611 0.00752012 -0.00196698
v -0.00775752 0.00126756 -0.00196698
v -0.00474707 0.00126756 -0.00664488
v -0.00008227 0.00502962 -0.00773831
v -0.00521963 0.00126756 -0.00939109
v -0.00008227 0.00532851 -0.00927769
v -0.00614824 0.00126756 -0.00964165
v -0.00337370 0.00601325 -0.00927002
v -0.00420613 0.00548343 -0.00927539
v -0.00493414 0.00493681 -0.00928075
v -0.00489658 0.00419068 -0.00974050
v -0.00451717 0.00461600 -0.00971674
v -0.00409044 0.00512974 -0.00962096
v -0.00676655 0.00727238 -0.00196698
v -0.00762228 0.00535262 -0.00196698
v -0.00706181 0.00126756 -0.00845704
v -0.00480266 0.00126756 -0.00785324
v -0.00483197 0.00126756 -0.00837199
v -0.00008227 0.00507639 -0.00837199
v -0.00494917 0.00126756 -0.00891525
v -0.00008227 0.00517870 -0.00891142
v -0.00696415 0.00129314 -0.00885089
v -0.00663207 0.00130922 -0.00934588
v -0.00456225 0.00512243 -0.00937193
v -0.00539694 0.00431418 -0.00917195
v -0.00715272 0.00683392 -0.00196698
v -0.00501152 0.00454219 -0.00945775
v -0.00652313 0.00204292 -0.00922098
v -0.00595515 0.00326405 -0.00919876
v -0.00756368 0.00575675 -0.00196698
v -0.00675904 0.00189092 -0.00891142
v -0.00549010 0.00395464 -0.00929225
v -0.00649308 0.00272108 -0.00867312
v -0.00737285 0.00635599 -0.00196698
v -0.00648632 0.00247627 -0.00895510
f 1 2 6
f 1 6 20
f 1 20 29
f 1 29 28
f 1 28 27
f 1 27 9
f 1 9 3
f 1 3 10
f 1 10 30
f 1 30 43
f 1 43 55
f 1 55 63
f 1 63 59
f 1 59 44
f 1 44 31
f 1 31 11
f 1 11 4
f 1 4 17
f 1 17 33
f 1 33 48
f 1 48 50
f 1 50 35
f 1 35 18
f 1 18 5
f 1 5 2
f 2 5 7
f 2 7 8
f 2 8 6
f 3 9 10
f 4 11 12
f 4 12 13
f 4 13 14
f 4 14 15
f 4 15 16
f 4 16 17
f 5 18 19
f 5 19 7
f 6 8 21
f 6 21 20
f 7 19 22
f 7 22 23
f 7 23 24
f 7 24 8
f 8 24 25
f 8 25 26
f 8 26 21
f 9 27 10
f 10 27 28
f 10 28 29
f 10 29 30
f 11 31 45
f 11 45 36
f 11 36 19
f 11 19 34
f 11 34 49
f 11 49 47
f 11 47 46
f 11 46 32
f 11 32 16
f 11 16 15
f 11 15 14
f 11 14 13
f 11 13 12
f 16 32 17
f 17 32 33
f 18 34 19
f 18 35 34
f 19 36 22
f 20 21 37
f 20 37 38
f 20 38 39
f 20 39 29
f 21 26 37
f 22 36 40
f 22 40 23
f 23 40 24
f 24 40 41
f 24 41 25
f 25 41 42
f 25 42 26
f 26 42 38
f 26 38 37
f 29 43 30
f 29 39 43
f 31 44 45
f 32 46 33
f 33 46 47
f 33 47 48
f 34 35 49
f 35 50 49
f 36 51 52
f 36 52 40
f 36 45 51
f 38 42 53
f 38 53 39
f 39 54 55
f 39 55 43
f 39 53 41
f 39 41 40
f 39 40 56
f 39 56 54
f 40 52 57
f 40 57 58
f 40 58 56
f 41 53 42
f 44 59 45
f 45 59 51
f 47 49 48
f 48 49 50
f 51 59 60
f 51 60 57
f 51 57 52
f 54 56 61
f 54 61 58
f 54 58 62
f 54 62 55
f 55 62 63
f 56 58 61
f 57 60 64
f 57 64 58
f 58 64 62
f 59 63 60
f 60 63 62
f 60 62 64

