# https://github.com/mikedh/trimesh
v -0.00008227 0.03034356 0.00760960
v -0.00008227 0.02745907 0.00758620
v -0.00008227 0.03123674 0.00759790
v -0.00546581 0.02745907 0.01151696
v -0.00008227 0.02745907 -0.00016301
v -0.00013075 0.03223286 0.00645611
v -0.00013075 0.03189084 0.00731011
v -0.00668798 0.02782355 0.01183517
v -0.00008227 0.03219590 -0.01062397
v -0.00716949 0.02745907 0.01193109
v -0.01497730 0.02745907 -0.01157858
v -0.00838497 0.02819271 -0.01028237
v -0.00008227 0.02991217 -0.01130483
v -0.00108207 0.03223848 0.00593903
v -0.01431356 0.03194090 0.00566996
v -0.01442056 0.03188990 0.00644909
v -0.01377353 0.03188008 0.00682111
v -0.01053170 0.03188803 0.00704806
v -0.00081289 0.03201529 0.00721886
v -0.00810409 0.02854549 0.01170180
v -0.00783491 0.02781934 0.01194045
v -0.00008227 0.03203495 -0.01130015
v -0.00675318 0.03197927 -0.01123932
v -0.01404271 0.03186791 -0.01120657
v -0.01458273 0.03195026 -0.01063333
v -0.01539194 0.03197178 -0.00810173
v -0.00865749 0.02778097 0.01190536
v -0.01035280 0.02745907 0.01173924
v -0.01579487 0.02745907 -0.01179852
v -0.00008227 0.03074874 -0.01189211
v -0.01536519 0.03186791 0.00512948
v -0.01506592 0.03185528 0.00608643
v -0.01539194 0.03156239 0.00696617
v -0.01458273 0.03154040 0.00724694
v -0.01022908 0.02810615 0.01150292
v -0.00008227 0.03144354 -0.01180554
v -0.01588181 0.03137570 -0.01178214
v -0.01545380 0.03188054 -0.01078307
v -0.01609247 0.03187587 -0.01011859
v -0.01623458 0.03188803 -0.00944942
v -0.01123223 0.02751989 0.01152866
v -0.01657565 0.02745907 0.00702935
v -0.01618108 0.03064861 -0.01196230
v -0.00135125 0.03082266 -0.01194124
v -0.01658735 0.02745907 -0.01122060
v -0.01593364 0.03173925 0.00539855
v -0.01615767 0.03155443 0.00621044
v -0.01621285 0.03135090 0.00682579
v -0.01638171 0.03078851 0.00732883
v -0.01667596 0.03132189 -0.01123230
v -0.01694013 0.03124657 -0.01053272
v -0.01631316 0.03180241 -0.00810173
v -0.01656896 0.03133734 0.00539855
v -0.01640177 0.02997954 0.00746220
v -0.01632988 0.02922953 0.00752069
v -0.01680637 0.02967402 0.00689598
v -0.01686489 0.02745907 0.00593903
v -0.01698359 0.03024951 -0.01128144
v -0.01686823 0.02745907 -0.01017006
v -0.01679634 0.03073143 0.00682345
v -0.01716249 0.03024951 -0.01053272
v -0.01701703 0.03011429 0.00539855
v -0.01684817 0.03080348 0.00621044
v -0.01696353 0.02971004 0.00621044
f 1 2 5
f 1 5 13
f 1 13 30
f 1 30 36
f 1 36 22
f 1 22 9
f 1 9 3
f 1 3 4
f 1 4 2
f 2 4 10
f 2 10 28
f 2 28 42
f 2 42 57
f 2 57 59
f 2 59 45
f 2 45 29
f 2 29 11
f 2 11 5
f 3 6 7
f 3 7 8
f 3 8 4
f 3 9 6
f 4 8 10
f 5 11 12
f 5 12 13
f 6 14 15
f 6 15 16
f 6 16 17
f 6 17 18
f 6 18 19
f 6 19 7
f 6 9 14
f 7 20 8
f 7 19 20
f 8 21 10
f 8 20 21
f 9 22 23
f 9 23 24
f 9 24 25
f 9 25 26
f 9 26 14
f 10 21 27
f 10 27 28
f 11 29 13
f 11 13 12
f 13 29 30
f 14 26 15
f 15 26 31
f 15 31 32
f 15 32 16
f 16 32 33
f 16 33 17
f 17 33 34
f 17 34 18
f 18 34 20
f 18 20 19
f 20 35 28
f 20 28 27
f 20 27 21
f 20 34 35
f 22 36 37
f 22 37 23
f 23 37 24
f 24 38 25
f 24 37 38
f 25 38 39
f 25 39 40
f 25 40 26
f 26 40 31
f 28 35 41
f 28 41 42
f 29 43 44
f 29 44 30
f 29 45 43
f 30 44 36
f 31 40 46
f 31 46 32
f 32 47 33
f 32 46 47
f 33 48 49
f 33 49 34
f 33 47 48
f 34 49 35
f 35 49 41
f 36 44 43
f 36 43 37
f 37 43 50
f 37 50 38
f 38 50 39
f 39 50 40
f 40 50 51
f 40 51 52
f 40 52 53
f 40 53 46
f 41 49 54
f 41 54 55
f 41 55 42
f 42 55 56
f 42 56 57
f 43 45 58
f 43 58 50
f 45 59 58
f 46 53 47
f 47 53 48
f 48 53 60
f 48 60 49
f 49 60 54
f 50 58 51
f 51 61 62
f 51 62 63
f 51 63 53
f 51 53 52
f 51 58 61
f 53 63 60
f 54 60 56
f 54 56 55
f 56 60 64
f 56 64 57
f 57 62 61
f 57 61 59
f 57 64 62
f 58 59 61
f 60 63 62
f 60 62 64

