# https://github.com/mikedh/trimesh
v -0.00381113 0.02297858 0.01121501
v -0.00368894 0.02254238 0.01071797
v -0.00346833 0.02296766 0.01053304
v -0.01161598 0.02297858 0.00818750
v -0.00459268 0.02297858 0.01151023
v -0.00506096 0.02113555 0.01145913
v -0.00551283 0.02009374 0.01137604
v -0.00432533 0.02107311 0.01079113
v -0.00405962 0.02133684 0.00999372
v -0.00359381 0.02166868 0.00818750
v -0.00333876 0.02241707 0.00818750
v -0.00323789 0.02287248 0.00818750
v -0.01161598 0.01962655 0.00818750
v -0.01161598 0.02296766 0.01143376
v -0.00806578 0.01995315 0.01189037
v -0.00675363 0.02025661 0.01174331
v -0.00567275 0.02079628 0.01160104
v -0.01161598 0.02187564 0.01182493
v -0.01161598 0.02140364 0.01192088
v -0.01107225 0.02100631 0.01194331
v -0.00484773 0.02037144 0.01070032
v -0.00621319 0.02025661 0.01164111
v -0.00675363 0.01971649 0.01162089
v -0.00622877 0.01948944 0.01125803
v -0.00567275 0.01971955 0.01107347
v -0.00418181 0.02037843 0.00818750
v -0.01161024 0.01978854 0.01077311
v -0.01161598 0.02027407 0.01164810
v -0.01094350 0.01923794 0.00818750
v -0.01110588 0.01942875 0.01053304
v -0.00832493 0.01942089 0.01185691
v -0.01160942 0.02081419 0.01190728
v -0.00525204 0.01985840 0.01053304
v -0.00783124 0.01917638 0.01167052
v -0.00761309 0.01883886 0.01115509
v -0.00675363 0.01907464 0.01053304
v -0.00583923 0.01951084 0.01062164
v -0.00472964 0.01986320 0.00818750
v -0.01105913 0.01945582 0.01107347
v -0.01147574 0.01987193 0.01145178
v -0.01105339 0.01970165 0.01152420
v -0.01115344 0.02031381 0.01185765
v -0.00976256 0.01875197 0.00818750
v -0.01053181 0.01915367 0.01053304
v -0.00890474 0.01921480 0.01173228
v -0.00837168 0.01874367 0.01127862
v -0.00721617 0.01887597 0.01053304
v -0.00783124 0.01868735 0.01053304
v -0.00681924 0.01876813 0.00818750
v -0.00573507 0.01929078 0.00818750
v -0.01061464 0.01929645 0.01124332
v -0.00999219 0.01924799 0.01153266
v -0.01053181 0.01971649 0.01169736
v -0.00902612 0.01858954 0.00818750
v -0.00945175 0.01880437 0.01053304
v -0.00990444 0.01893405 0.01053304
v -0.00969859 0.01891964 0.01103340
v -0.00909992 0.01883624 0.01131795
v -0.00946241 0.01913359 0.01155435
v -0.00891130 0.01868822 0.01053304
v -0.00837168 0.01864107 0.01053304
v -0.00729326 0.01860090 0.00818750
v -0.00783124 0.01851794 0.00818750
v -0.00849716 0.01854501 0.00818750
f 1 2 3
f 1 3 4
f 1 4 5
f 1 5 6
f 1 6 7
f 1 7 8
f 1 8 2
f 2 8 3
f 3 8 9
f 3 9 10
f 3 10 11
f 3 11 12
f 3 12 4
f 4 13 28
f 4 28 19
f 4 19 18
f 4 18 14
f 4 14 5
f 4 12 11
f 4 11 10
f 4 10 26
f 4 26 38
f 4 38 50
f 4 50 49
f 4 49 62
f 4 62 63
f 4 63 64
f 4 64 54
f 4 54 43
f 4 43 29
f 4 29 13
f 5 15 16
f 5 16 17
f 5 17 6
f 5 14 18
f 5 18 19
f 5 19 20
f 5 20 15
f 6 17 7
f 7 21 8
f 7 17 22
f 7 22 23
f 7 23 24
f 7 24 25
f 7 25 21
f 8 21 26
f 8 26 9
f 9 26 10
f 13 27 28
f 13 29 30
f 13 30 27
f 15 20 31
f 15 31 16
f 16 22 17
f 16 31 22
f 19 28 32
f 19 32 20
f 20 32 31
f 21 25 33
f 21 33 26
f 22 31 23
f 23 34 24
f 23 31 34
f 24 34 35
f 24 35 36
f 24 36 37
f 24 37 25
f 25 37 33
f 26 33 38
f 27 30 39
f 27 39 40
f 27 40 28
f 28 40 41
f 28 41 42
f 28 42 32
f 29 43 44
f 29 44 30
f 30 44 39
f 31 32 42
f 31 42 45
f 31 45 34
f 33 37 38
f 34 45 46
f 34 46 35
f 35 47 36
f 35 46 48
f 35 48 47
f 36 47 49
f 36 49 37
f 37 50 38
f 37 49 50
f 39 51 40
f 39 44 51
f 40 51 41
f 41 51 52
f 41 52 53
f 41 53 42
f 42 53 45
f 43 54 55
f 43 55 56
f 43 56 44
f 44 56 57
f 44 57 51
f 45 58 46
f 45 53 52
f 45 52 59
f 45 59 58
f 46 58 60
f 46 60 61
f 46 61 48
f 47 48 62
f 47 62 49
f 48 63 62
f 48 61 63
f 51 57 58
f 51 58 52
f 52 58 59
f 54 64 61
f 54 61 60
f 54 60 55
f 55 57 56
f 55 60 57
f 57 60 58
f 61 64 63

