# https://github.com/mikedh/trimesh
v -0.00008227 -0.00557796 0.00757407
v -0.00008227 -0.00830272 0.00756705
v -0.00008227 -0.00503661 0.00757126
v -0.00306342 -0.00729160 0.01148268
v -0.00008227 -0.00830272 -0.00245033
v -0.00294708 -0.00783189 0.01128739
v -0.00331226 -0.00830272 0.01148689
v -0.00008227 -0.00430969 0.00756424
v -0.00008227 -0.00385689 0.00755581
v -0.00008227 -0.00341787 0.00753895
v -0.00008227 -0.00292901 0.00749118
v -0.00318703 -0.00660127 0.01140541
v -0.00351181 -0.00675132 0.01168640
v -0.00351181 -0.00729160 0.01172433
v -0.00351181 -0.00783189 0.01167656
v -0.00457177 -0.00830272 -0.00245033
v -0.00008227 -0.00470099 -0.00245033
v -0.00420579 -0.00830272 0.01155995
v -0.00405229 -0.00783189 0.01172293
v -0.00008227 -0.00288607 -0.00022065
v -0.00729117 -0.00288607 0.00829201
v -0.00729117 -0.00293007 0.00999201
v -0.00729117 -0.00294863 0.01053152
v -0.00729117 -0.00297143 0.01107102
v -0.00729117 -0.00311353 0.01152342
v -0.00659718 -0.00320207 0.01139557
v -0.00567052 -0.00366018 0.01147987
v -0.00520436 -0.00387597 0.01148408
v -0.00471235 -0.00417395 0.01147987
v -0.00455562 -0.00457426 0.01155854
v -0.00351342 -0.00624708 0.01151078
v -0.00405229 -0.00621156 0.01180020
v -0.00405229 -0.00675132 0.01184235
v -0.00405229 -0.00729160 0.01179598
v -0.00639440 -0.00406155 -0.00245033
v -0.00833579 -0.00830272 -0.00132917
v -0.00371459 -0.00288607 -0.00245033
v -0.00833579 -0.00457373 0.01171450
v -0.00833579 -0.00496609 0.01148689
v -0.00833579 -0.00830272 0.00751366
v -0.00833579 -0.00403504 0.01180160
v -0.00781307 -0.00288607 0.00834680
v -0.00783165 -0.00294704 0.01053152
v -0.00783165 -0.00298628 0.01107102
v -0.00783165 -0.00313050 0.01150656
v -0.00761675 -0.00361087 0.01181846
v -0.00675149 -0.00351172 0.01167094
v -0.00567052 -0.00405200 0.01173698
v -0.00525768 -0.00471901 0.01186061
v -0.00500966 -0.00513205 0.01185921
v -0.00549278 -0.00519885 0.01190276
v -0.00779853 -0.00401542 0.01185359
v -0.00659072 -0.00355520 -0.00245033
v -0.00833579 -0.00567127 -0.00074189
v -0.00671029 -0.00293007 -0.00244471
v -0.00833579 -0.00291470 0.00063778
v -0.00833579 -0.00288607 0.00820350
v -0.00832044 -0.00329804 0.01140681
v -0.00833579 -0.00302975 0.01053152
v -0.00567052 -0.00456260 0.01188169
v -0.00833579 -0.00516757 -0.00060421
v -0.00833579 -0.00461615 -0.00040611
v -0.00833579 -0.00403027 -0.00013073
v -0.00833579 -0.00350217 0.00020786
f 1 2 5
f 1 5 17
f 1 17 20
f 1 20 11
f 1 11 10
f 1 10 9
f 1 9 8
f 1 8 3
f 1 3 4
f 1 4 2
f 2 4 6
f 2 6 7
f 2 7 18
f 2 18 40
f 2 40 36
f 2 36 16
f 2 16 5
f 3 8 4
f 4 7 6
f 4 8 9
f 4 9 10
f 4 10 11
f 4 11 12
f 4 12 13
f 4 13 14
f 4 14 15
f 4 15 7
f 5 16 35
f 5 35 53
f 5 53 37
f 5 37 17
f 7 15 19
f 7 19 18
f 11 20 21
f 11 21 22
f 11 22 23
f 11 23 24
f 11 24 25
f 11 25 26
f 11 26 27
f 11 27 28
f 11 28 29
f 11 29 30
f 11 30 31
f 11 31 12
f 12 31 13
f 13 32 33
f 13 33 14
f 13 31 30
f 13 30 32
f 14 34 15
f 14 33 34
f 15 34 19
f 16 36 35
f 17 37 20
f 18 19 38
f 18 38 39
f 18 39 40
f 19 34 41
f 19 41 38
f 20 37 57
f 20 57 42
f 20 42 21
f 21 42 22
f 22 42 43
f 22 43 23
f 23 43 24
f 24 43 44
f 24 44 25
f 25 45 46
f 25 46 47
f 25 47 27
f 25 27 26
f 25 44 45
f 27 47 48
f 27 48 28
f 28 48 29
f 29 48 49
f 29 49 30
f 30 49 32
f 32 49 50
f 32 50 33
f 33 50 51
f 33 51 34
f 34 51 52
f 34 52 41
f 35 36 53
f 36 54 55
f 36 55 53
f 36 40 39
f 36 39 38
f 36 38 41
f 36 41 59
f 36 59 57
f 36 57 56
f 36 56 64
f 36 64 63
f 36 63 62
f 36 62 61
f 36 61 54
f 37 53 55
f 37 55 56
f 37 56 57
f 41 52 46
f 41 46 45
f 41 45 58
f 41 58 59
f 42 57 43
f 43 57 59
f 43 59 44
f 44 59 58
f 44 58 45
f 46 52 60
f 46 60 48
f 46 48 47
f 48 60 49
f 49 60 51
f 49 51 50
f 51 60 52
f 54 61 55
f 55 61 62
f 55 62 63
f 55 63 64
f 55 64 56

