# https://github.com/mikedh/trimesh
v -0.00785637 -0.01585804 -0.00273479
v -0.00652771 -0.01609427 -0.00905114
v -0.00645542 -0.01695048 -0.00880376
v -0.00630322 -0.01755672 -0.00891233
v -0.00768211 -0.01647651 -0.00273479
v -0.00441753 -0.01578006 -0.00273479
v -0.00495554 -0.01578006 -0.00924972
v -0.00573249 -0.01579994 -0.00972180
v -0.00628953 -0.01585804 -0.00945725
v -0.00608406 -0.01755672 -0.00937204
v -0.00609548 -0.01818436 -0.00908824
v -0.00741044 -0.01735031 -0.00273479
v -0.00008227 -0.02078589 -0.00273479
v -0.00008227 -0.02089980 -0.00706869
v -0.00453168 -0.01578006 -0.00675122
v -0.00460930 -0.01578006 -0.00844987
v -0.00008227 -0.02120330 -0.00897692
v -0.00008227 -0.02150068 -0.00942701
v -0.00504077 -0.01863693 -0.00975410
v -0.00608254 -0.01640006 -0.00959330
v -0.00008227 -0.02225063 -0.00966820
v -0.00058984 -0.02216272 -0.00973005
v -0.00567162 -0.01809644 -0.00955894
v -0.00550268 -0.01863464 -0.00954589
v -0.00559400 -0.01925922 -0.00909305
v -0.00596002 -0.01867974 -0.00891233
v -0.00704365 -0.01832961 -0.00273479
v -0.00017663 -0.02358924 -0.00273479
v -0.00008227 -0.02098159 -0.00816127
v -0.00456744 -0.01578006 -0.00783212
v -0.00454842 -0.01578006 -0.00729202
v -0.00420218 -0.02032491 -0.00975478
v -0.00505218 -0.01925005 -0.00966408
v -0.00017663 -0.02290350 -0.00911023
v -0.00189110 -0.02229268 -0.00934593
v -0.00198013 -0.02180418 -0.00968194
v -0.00497761 -0.02014296 -0.00931088
v -0.00541212 -0.01973320 -0.00891233
v -0.00553312 -0.01966134 -0.00837223
v -0.00664110 -0.01910403 -0.00273479
v -0.00102283 -0.02339583 -0.00273479
v -0.00081052 -0.02290121 -0.00837223
v -0.00027099 -0.02301894 -0.00837223
v -0.00405074 -0.02080041 -0.00966683
v -0.00088585 -0.02277507 -0.00906694
v -0.00270001 -0.02214361 -0.00891508
v -0.00316040 -0.02172926 -0.00931981
v -0.00238117 -0.02204958 -0.00937066
v -0.00145887 -0.02267416 -0.00887385
v -0.00442286 -0.02074613 -0.00940159
v -0.00491140 -0.02047857 -0.00887797
v -0.00536190 -0.01992967 -0.00837223
v -0.00611678 -0.01987004 -0.00273479
v -0.00214907 -0.02291191 -0.00273479
v -0.00192382 -0.02259465 -0.00837223
v -0.00412303 -0.02118189 -0.00915146
v -0.00243139 -0.02235690 -0.00837223
v -0.00289711 -0.02210691 -0.00837223
v -0.00357513 -0.02164593 -0.00891233
v -0.00421435 -0.02123617 -0.00837223
v -0.00561911 -0.02044569 -0.00273479
v -0.00286819 -0.02247004 -0.00273479
v -0.00362003 -0.02167574 -0.00837223
v -0.00513437 -0.02085469 -0.00273479
f 1 2 3
f 1 3 4
f 1 4 5
f 1 5 12
f 1 12 27
f 1 27 40
f 1 40 53
f 1 53 61
f 1 61 64
f 1 64 62
f 1 62 54
f 1 54 41
f 1 41 28
f 1 28 13
f 1 13 6
f 1 6 7
f 1 7 8
f 1 8 9
f 1 9 2
f 2 10 11
f 2 11 4
f 2 4 3
f 2 9 10
f 4 11 5
f 5 11 12
f 6 13 14
f 6 14 15
f 6 15 31
f 6 31 30
f 6 30 16
f 6 16 7
f 7 16 17
f 7 17 18
f 7 18 8
f 8 19 20
f 8 20 9
f 8 18 21
f 8 21 22
f 8 22 19
f 9 20 10
f 10 20 23
f 10 23 24
f 10 24 11
f 11 24 25
f 11 25 26
f 11 26 12
f 12 26 27
f 13 28 21
f 13 21 18
f 13 18 17
f 13 17 29
f 13 29 14
f 14 29 30
f 14 30 31
f 14 31 15
f 16 30 29
f 16 29 17
f 19 32 33
f 19 33 23
f 19 23 20
f 19 22 32
f 21 28 34
f 21 34 22
f 22 34 35
f 22 35 36
f 22 36 32
f 23 33 24
f 24 33 37
f 24 37 25
f 25 37 38
f 25 38 26
f 26 38 39
f 26 39 27
f 27 39 40
f 28 41 42
f 28 42 43
f 28 43 34
f 32 36 44
f 32 44 33
f 33 44 37
f 34 43 45
f 34 45 35
f 35 46 47
f 35 47 48
f 35 48 36
f 35 45 49
f 35 49 46
f 36 48 44
f 37 44 50
f 37 50 51
f 37 51 38
f 38 51 52
f 38 52 39
f 39 52 40
f 40 52 53
f 41 54 55
f 41 55 49
f 41 49 42
f 42 49 45
f 42 45 43
f 44 48 47
f 44 47 56
f 44 56 50
f 46 49 55
f 46 55 57
f 46 57 58
f 46 58 59
f 46 59 47
f 47 59 56
f 50 56 51
f 51 56 60
f 51 60 61
f 51 61 53
f 51 53 52
f 54 62 63
f 54 63 58
f 54 58 57
f 54 57 55
f 56 59 60
f 58 63 59
f 59 63 60
f 60 63 64
f 60 64 61
f 62 64 63

