# https://github.com/mikedh/trimesh
v -0.00837324 -0.02025723 0.01196396
v -0.00783320 -0.02025723 0.01195559
v -0.00783320 -0.01984604 0.01191333
v -0.00837324 -0.01987285 0.01191523
v -0.00891328 -0.01993915 0.01190229
v -0.00922465 -0.01997342 0.01189011
v -0.01085652 -0.02567878 0.01191714
v -0.01053375 -0.02621140 0.01190952
v -0.01003930 -0.02622555 0.01190305
v -0.00739389 -0.02025723 0.01191371
v -0.00741852 -0.01990041 0.01189886
v -0.00710090 -0.01972089 0.01185090
v -0.00783320 -0.01957563 0.01184557
v -0.00837324 -0.01960319 0.01180026
v -0.00837324 -0.01932459 0.01152959
v -0.00877872 -0.01938865 0.01144127
v -0.00942390 -0.01983114 0.01164342
v -0.00989335 -0.01990265 0.01148429
v -0.01053302 -0.02037195 0.01148809
v -0.01053302 -0.02079730 0.01171537
v -0.01053302 -0.02133811 0.01180064
v -0.01085652 -0.02166141 0.01175191
v -0.01085652 -0.02620917 0.01190990
v -0.01085652 -0.02622555 0.00807479
v -0.00950221 -0.02622555 0.01159888
v -0.00710090 -0.02025723 0.01184709
v -0.00748175 -0.02056638 0.01190838
v -0.00710090 -0.02139026 0.00807479
v -0.00719685 -0.01861542 0.00807479
v -0.00714906 -0.01917561 0.01147972
v -0.00783320 -0.01926425 0.01157565
v -0.00783320 -0.01903034 0.01107352
v -0.00837324 -0.01915847 0.01107352
v -0.00894048 -0.01934768 0.01107238
v -0.00913789 -0.01946687 0.01125130
v -0.01025326 -0.01999353 0.01132744
v -0.01085505 -0.02045911 0.01117897
v -0.01085652 -0.02079730 0.01152616
v -0.01085652 -0.02109899 0.01162933
v -0.00832986 -0.02622555 0.00807479
v -0.01085652 -0.01986987 0.00807479
v -0.00918642 -0.02622555 0.01107352
v -0.00710090 -0.02073100 0.01163999
v -0.00710090 -0.02121073 0.01010047
v -0.00782658 -0.01865341 0.00807479
v -0.00748617 -0.01890967 0.01077201
v -0.00720236 -0.01893797 0.01100005
v -0.00781335 -0.01895213 0.01056834
v -0.00891328 -0.01924861 0.01053331
v -0.00837324 -0.01908472 0.01053331
v -0.00932722 -0.01939536 0.01053331
v -0.00959742 -0.01949443 0.01053331
v -0.00942831 -0.01954658 0.01107238
v -0.01004114 -0.01982592 0.01111768
v -0.01033266 -0.01993319 0.01096769
v -0.01052089 -0.02014028 0.01111768
v -0.01065213 -0.02012166 0.01053331
v -0.00710090 -0.02114295 0.01056263
v -0.00710090 -0.02101929 0.01110854
v -0.01038192 -0.01989371 0.01053331
v -0.01054110 -0.01966949 0.00807479
v -0.00946655 -0.01914432 0.00807479
v -0.00989556 -0.01929628 0.00807479
v -0.00999261 -0.01967098 0.01053331
f 1 2 3
f 1 3 4
f 1 4 5
f 1 5 6
f 1 6 7
f 1 7 8
f 1 8 9
f 1 9 2
f 2 9 10
f 2 10 11
f 2 11 3
f 3 12 13
f 3 13 4
f 3 11 12
f 4 13 5
f 5 13 6
f 6 13 14
f 6 14 15
f 6 15 16
f 6 16 17
f 6 17 18
f 6 18 19
f 6 19 20
f 6 20 21
f 6 21 7
f 7 21 22
f 7 22 39
f 7 39 38
f 7 38 41
f 7 41 24
f 7 24 23
f 7 23 8
f 8 23 9
f 9 23 24
f 9 24 40
f 9 40 42
f 9 42 25
f 9 25 26
f 9 26 27
f 9 27 10
f 10 27 26
f 10 26 12
f 10 12 11
f 12 26 43
f 12 43 59
f 12 59 58
f 12 58 44
f 12 44 28
f 12 28 29
f 12 29 30
f 12 30 13
f 13 30 31
f 13 31 14
f 14 31 15
f 15 31 32
f 15 32 33
f 15 33 16
f 16 33 34
f 16 34 35
f 16 35 36
f 16 36 18
f 16 18 17
f 18 36 19
f 19 37 38
f 19 38 20
f 19 36 37
f 20 38 39
f 20 39 22
f 20 22 21
f 24 41 61
f 24 61 63
f 24 63 62
f 24 62 45
f 24 45 29
f 24 29 28
f 24 28 40
f 25 42 43
f 25 43 26
f 28 44 40
f 29 45 46
f 29 46 47
f 29 47 30
f 30 47 31
f 31 47 32
f 32 47 46
f 32 46 48
f 32 48 33
f 33 49 34
f 33 48 50
f 33 50 49
f 34 49 51
f 34 51 52
f 34 52 35
f 35 52 53
f 35 53 54
f 35 54 36
f 36 54 55
f 36 55 56
f 36 56 37
f 37 56 55
f 37 55 57
f 37 57 41
f 37 41 38
f 40 44 58
f 40 58 59
f 40 59 43
f 40 43 42
f 41 60 61
f 41 57 60
f 45 62 50
f 45 50 48
f 45 48 46
f 49 50 62
f 49 62 63
f 49 63 51
f 51 63 52
f 52 64 54
f 52 54 53
f 52 63 64
f 54 64 55
f 55 64 60
f 55 60 57
f 60 64 63
f 60 63 61

