# https://github.com/mikedh/trimesh
v 0.00268922 -0.00738066 0.00784933
v 0.00270303 -0.00791562 0.00784933
v 0.00314076 -0.00783145 0.01053330
v 0.00273896 -0.00675197 0.00784933
v 0.00277378 -0.00863421 0.00784933
v 0.00326732 -0.00783145 0.01103416
v 0.00327119 -0.00734687 0.01096969
v 0.00331540 -0.00858384 0.01092841
v 0.00326953 -0.00691711 0.01063827
v 0.00283678 -0.00619278 0.00784933
v 0.00620869 -0.00874962 0.00784933
v 0.00459210 -0.00874962 0.01168835
v 0.00359230 -0.00783145 0.01146544
v 0.00361109 -0.00729203 0.01144657
v 0.00361385 -0.00856088 0.01148156
v 0.00345357 -0.00675197 0.01107348
v 0.00345468 -0.00621191 0.01053330
v 0.00379292 -0.00542000 0.01051325
v 0.00311202 -0.00567122 0.00784933
v 0.00565601 -0.00874962 0.01053684
v 0.00833485 -0.00516240 0.00784933
v 0.00833485 -0.00484487 0.01008591
v 0.00833485 -0.00475560 0.01052976
v 0.00833485 -0.00462106 0.01105421
v 0.00405157 -0.00856088 0.01166280
v 0.00513372 -0.00874962 0.01149532
v 0.00833485 -0.00403956 0.01178271
v 0.00833485 -0.00349886 0.01186566
v 0.00405157 -0.00729203 0.01159439
v 0.00388522 -0.00667291 0.01145443
v 0.00434229 -0.00516431 0.01132430
v 0.00366193 -0.00623869 0.01106326
v 0.00374152 -0.00583444 0.01087612
v 0.00424004 -0.00475560 0.01093195
v 0.00428978 -0.00453817 0.01053330
v 0.00374373 -0.00459173 0.00784933
v 0.00543438 -0.00874962 0.01115682
v 0.00833485 -0.00443934 0.01149178
v 0.00833485 -0.00223575 0.00784933
v 0.00621145 -0.00405167 0.01168521
v 0.00567148 -0.00459173 0.01165454
v 0.00833485 -0.00298686 0.01159989
v 0.00783191 -0.00301874 0.01157552
v 0.00783191 -0.00351161 0.01180708
v 0.00567148 -0.00405167 0.01161287
v 0.00497179 -0.00452223 0.01145443
v 0.00516523 -0.00410141 0.01143124
v 0.00490160 -0.00409376 0.01107348
v 0.00480820 -0.00398983 0.01053330
v 0.00408418 -0.00408037 0.00784933
v 0.00783191 -0.00225615 0.00784933
v 0.00833485 -0.00269929 0.01113206
v 0.00620814 -0.00328144 0.01125511
v 0.00675197 -0.00351161 0.01161955
v 0.00729194 -0.00286762 0.01107348
v 0.00558692 -0.00357219 0.01120557
v 0.00462471 -0.00354668 0.00784933
v 0.00729194 -0.00232501 0.00784933
v 0.00771972 -0.00270695 0.01088438
v 0.00675197 -0.00292628 0.01053330
v 0.00619321 -0.00266167 0.00784933
v 0.00566264 -0.00289313 0.00784933
v 0.00513207 -0.00319663 0.00784933
v 0.00679343 -0.00244552 0.00784933
f 1 2 3
f 1 3 4
f 1 4 10
f 1 10 19
f 1 19 36
f 1 36 50
f 1 50 57
f 1 57 63
f 1 63 62
f 1 62 61
f 1 61 64
f 1 64 58
f 1 58 51
f 1 51 39
f 1 39 21
f 1 21 11
f 1 11 5
f 1 5 2
f 2 5 3
f 3 6 7
f 3 7 4
f 3 5 8
f 3 8 6
f 4 9 10
f 4 7 9
f 5 11 12
f 5 12 8
f 6 13 14
f 6 14 7
f 6 8 15
f 6 15 13
f 7 14 16
f 7 16 9
f 8 12 15
f 9 16 17
f 9 17 10
f 10 17 18
f 10 18 19
f 11 20 37
f 11 37 26
f 11 26 12
f 11 21 22
f 11 22 23
f 11 23 24
f 11 24 20
f 12 25 15
f 12 26 27
f 12 27 28
f 12 28 25
f 13 15 25
f 13 25 14
f 14 25 29
f 14 29 30
f 14 30 31
f 14 31 16
f 16 31 32
f 16 32 33
f 16 33 17
f 17 33 18
f 18 33 34
f 18 34 19
f 19 34 35
f 19 35 36
f 20 24 38
f 20 38 37
f 21 39 52
f 21 52 42
f 21 42 28
f 21 28 27
f 21 27 38
f 21 38 24
f 21 24 23
f 21 23 22
f 25 28 40
f 25 40 41
f 25 41 29
f 26 37 38
f 26 38 27
f 28 42 43
f 28 43 44
f 28 44 40
f 29 41 45
f 29 45 30
f 30 45 46
f 30 46 31
f 31 34 32
f 31 46 47
f 31 47 34
f 32 34 33
f 34 47 48
f 34 48 35
f 35 48 49
f 35 49 50
f 35 50 36
f 39 51 52
f 40 45 41
f 40 44 45
f 42 52 43
f 43 53 54
f 43 54 44
f 43 52 55
f 43 55 53
f 44 54 45
f 45 47 46
f 45 54 53
f 45 53 47
f 47 53 56
f 47 56 48
f 48 56 49
f 49 56 57
f 49 57 50
f 51 58 59
f 51 59 52
f 52 59 55
f 53 55 60
f 53 60 61
f 53 61 62
f 53 62 56
f 55 59 60
f 56 62 63
f 56 63 57
f 58 64 59
f 59 64 60
f 60 64 61

