# https://github.com/mikedh/trimesh
v -0.00008227 -0.03051915 0.00778600
v -0.00008227 -0.03105915 0.00777202
v -0.00008227 -0.02622678 0.00771890
v -0.00337393 -0.02622678 0.01139997
v -0.00503083 -0.02784186 0.01188369
v -0.00012973 -0.03163469 0.00757769
v -0.00008227 -0.03215691 -0.00223663
v -0.00008227 -0.02936009 -0.00223663
v -0.00017613 -0.02622678 -0.00129294
v -0.00408056 -0.02622678 0.01165441
v -0.00485786 -0.02720380 0.01188369
v -0.00557716 -0.02800184 0.01195919
v -0.00614458 -0.02855899 0.01189068
v -0.00017719 -0.03195954 0.00723377
v -0.00017719 -0.03210297 0.00678919
v -0.00017719 -0.03217468 0.00621040
v -0.00243210 -0.03223659 -0.00223663
v -0.00017719 -0.03220227 0.00567075
v -0.00017719 -0.03220165 0.00351216
v -0.00017719 -0.03219981 0.00297111
v -0.00675207 -0.02824456 -0.00223663
v -0.00189105 -0.02622678 -0.00148308
v -0.00135105 -0.02622678 -0.00143554
v -0.01003951 -0.02622678 0.01190327
v -0.00886249 -0.02722893 0.01199414
v -0.00837101 -0.02781979 0.01204587
v -0.00675207 -0.02852344 0.01195359
v -0.00797128 -0.02865093 0.01189627
v -0.00837101 -0.03198897 0.00743369
v -0.01080099 -0.03236776 0.00666337
v -0.00837101 -0.03236837 0.00655152
v -0.00297104 -0.03225927 0.00621040
v -0.00891101 -0.03244008 -0.00135026
v -0.00891101 -0.03243457 -0.00206327
v -0.00842269 -0.03241802 -0.00223663
v -0.00297104 -0.03228256 0.00567075
v -0.00891101 -0.03244192 -0.00080922
v -0.00731000 -0.02831321 -0.00223663
v -0.00511942 -0.02622678 -0.00145232
v -0.00456572 -0.02622678 -0.00146910
v -0.00351209 -0.02622678 -0.00149566
v -0.00297104 -0.02622678 -0.00149985
v -0.00243210 -0.02622678 -0.00149426
v -0.01077357 -0.02640331 0.01190047
v -0.00945206 -0.02727980 0.01201091
v -0.00947631 -0.02673981 0.01195080
v -0.01062803 -0.02622678 0.00001284
v -0.00898905 -0.02798406 0.01196338
v -0.00729207 -0.02853264 0.01196198
v -0.00847015 -0.02854122 0.01181938
v -0.01085689 -0.03194483 0.00744068
v -0.01085689 -0.03247993 0.00577980
v -0.00797339 -0.03241802 0.00584830
v -0.01085689 -0.03248728 -0.00223663
v -0.01085689 -0.02987496 -0.00223663
v -0.00757156 -0.02622678 -0.00108883
v -0.00673836 -0.02622678 -0.00127896
v -0.00619731 -0.02622678 -0.00137123
v -0.00566997 -0.02622678 -0.00142296
v -0.01072295 -0.02720257 0.01168097
v -0.00942358 -0.02779773 0.01193961
v -0.00907975 -0.02622678 -0.00064425
v -0.01062170 -0.02761078 0.01140696
v -0.00835097 -0.02622678 -0.00089310
f 1 2 7
f 1 7 8
f 1 8 3
f 1 3 4
f 1 4 2
f 2 4 5
f 2 5 6
f 2 6 7
f 3 8 9
f 3 9 23
f 3 23 22
f 3 22 43
f 3 43 42
f 3 42 41
f 3 41 40
f 3 40 39
f 3 39 59
f 3 59 58
f 3 58 57
f 3 57 56
f 3 56 64
f 3 64 62
f 3 62 47
f 3 47 24
f 3 24 10
f 3 10 4
f 4 10 11
f 4 11 5
f 5 11 12
f 5 12 13
f 5 13 6
f 6 14 15
f 6 15 16
f 6 16 7
f 6 13 14
f 7 17 35
f 7 35 54
f 7 54 55
f 7 55 38
f 7 38 21
f 7 21 8
f 7 16 18
f 7 18 19
f 7 19 20
f 7 20 17
f 8 21 22
f 8 22 23
f 8 23 9
f 10 24 11
f 11 24 25
f 11 25 26
f 11 26 12
f 12 26 27
f 12 27 13
f 13 27 28
f 13 28 14
f 14 29 30
f 14 30 31
f 14 31 15
f 14 28 29
f 15 31 32
f 15 32 16
f 16 32 18
f 17 20 33
f 17 33 34
f 17 34 35
f 18 36 19
f 18 32 36
f 19 36 37
f 19 37 33
f 19 33 20
f 21 38 39
f 21 39 40
f 21 40 41
f 21 41 42
f 21 42 43
f 21 43 22
f 24 44 45
f 24 45 46
f 24 46 25
f 24 47 44
f 25 46 45
f 25 45 26
f 26 45 48
f 26 48 28
f 26 28 49
f 26 49 27
f 27 49 28
f 28 50 51
f 28 51 29
f 28 48 50
f 29 51 30
f 30 51 52
f 30 52 31
f 31 52 53
f 31 53 32
f 32 53 36
f 33 37 54
f 33 54 34
f 34 54 35
f 36 53 37
f 37 53 54
f 38 55 56
f 38 56 57
f 38 57 58
f 38 58 59
f 38 59 39
f 44 51 60
f 44 60 61
f 44 61 45
f 44 47 55
f 44 55 51
f 45 61 48
f 47 62 55
f 48 61 50
f 50 61 51
f 51 55 54
f 51 54 52
f 51 61 63
f 51 63 60
f 52 54 53
f 55 62 64
f 55 64 56
f 60 63 61

