# https://github.com/mikedh/trimesh
v -0.00008119 0.01597249 0.00020198
v 0.00511263 0.01597249 -0.00173476
v -0.00008119 0.01597249 0.00760498
v -0.00008119 0.02094127 -0.00173476
v 0.00816895 0.01809780 -0.00217171
v 0.00816895 0.01758948 -0.00212037
v 0.00801797 0.01597249 -0.00173476
v 0.01093626 0.01597249 0.00756526
v 0.00784111 0.01829417 0.00771640
v 0.00748522 0.01829754 0.00771640
v 0.00695462 0.01831101 0.00771640
v 0.00384976 0.01951617 0.00771640
v 0.00327711 0.02002337 0.00771640
v -0.00008119 0.01647857 0.00761177
v -0.00008119 0.02541856 -0.00173476
v 0.00816895 0.01863867 -0.00218140
v 0.01093626 0.02403610 -0.00199441
v 0.01093626 0.02025902 -0.00168147
v 0.00816895 0.01700036 -0.00196826
v 0.01093626 0.01965195 -0.00160300
v 0.01093626 0.01917841 -0.00151968
v 0.01093626 0.01863867 -0.00139373
v 0.01093626 0.01806863 -0.00122611
v 0.01093626 0.01774096 -0.00111566
v 0.01093626 0.01748961 -0.00101490
v 0.01093626 0.01639553 -0.00056826
v 0.01049841 0.01597249 -0.00059345
v 0.01093626 0.01597249 -0.00038418
v 0.01093626 0.01963624 0.00771640
v 0.01053507 0.01931194 0.00771640
v 0.00999154 0.01905273 0.00771640
v 0.00946417 0.01882157 0.00771640
v 0.00837170 0.01841536 0.00771640
v 0.00260847 0.02096708 0.00771640
v -0.00008119 0.01720571 0.00761758
v 0.00213934 0.02206564 0.00771640
v -0.00008119 0.02743614 -0.00018169
v 0.00299024 0.02743614 -0.00100037
v 0.00347015 0.02743614 -0.00112148
v 0.00405251 0.02743614 -0.00122418
v 0.00459282 0.02743614 -0.00126390
v 0.00513312 0.02743614 -0.00127262
v 0.01093626 0.02457359 -0.00197794
v 0.01093626 0.02743614 0.00771640
v -0.00008119 0.01774545 0.00761952
v 0.00170688 0.02385094 0.00771640
v -0.00008119 0.02743614 0.00758464
v 0.00567019 0.02743614 -0.00124549
v 0.01093626 0.02513017 -0.00179386
v 0.01093626 0.02743614 0.00015063
v 0.00278857 0.02743614 0.00771640
v -0.00008119 0.01809780 0.00761855
v 0.00169286 0.02403610 0.00771640
v 0.00167022 0.02435478 0.00771640
v 0.00166698 0.02457584 0.00771640
v 0.00178237 0.02511558 0.00771640
v 0.00207895 0.02618497 0.00771640
v 0.00266347 0.02726670 0.00771640
v 0.00620941 0.02743614 -0.00119317
v 0.01093626 0.02566542 -0.00138113
v 0.00660844 0.02743614 -0.00114376
v 0.01093626 0.02634094 -0.00082501
v 0.01093626 0.02604807 -0.00108563
f 1 2 7
f 1 7 27
f 1 27 28
f 1 28 8
f 1 8 3
f 1 3 14
f 1 14 35
f 1 35 45
f 1 45 52
f 1 52 47
f 1 47 37
f 1 37 15
f 1 15 4
f 1 4 2
f 2 5 6
f 2 6 7
f 2 4 5
f 3 8 9
f 3 9 10
f 3 10 11
f 3 11 12
f 3 12 13
f 3 13 14
f 4 15 16
f 4 16 5
f 5 16 17
f 5 17 18
f 5 18 6
f 6 19 7
f 6 18 20
f 6 20 21
f 6 21 22
f 6 22 19
f 7 19 22
f 7 22 23
f 7 23 24
f 7 24 25
f 7 25 26
f 7 26 27
f 8 28 26
f 8 26 25
f 8 25 24
f 8 24 23
f 8 23 22
f 8 22 21
f 8 21 20
f 8 20 18
f 8 18 17
f 8 17 43
f 8 43 49
f 8 49 60
f 8 60 63
f 8 63 62
f 8 62 50
f 8 50 44
f 8 44 29
f 8 29 30
f 8 30 31
f 8 31 32
f 8 32 33
f 8 33 9
f 9 33 32
f 9 32 31
f 9 31 30
f 9 30 29
f 9 29 44
f 9 44 51
f 9 51 58
f 9 58 57
f 9 57 56
f 9 56 55
f 9 55 54
f 9 54 53
f 9 53 46
f 9 46 36
f 9 36 34
f 9 34 13
f 9 13 12
f 9 12 11
f 9 11 10
f 13 34 14
f 14 34 36
f 14 36 35
f 15 37 38
f 15 38 39
f 15 39 40
f 15 40 41
f 15 41 42
f 15 42 43
f 15 43 16
f 16 43 17
f 26 28 27
f 35 36 46
f 35 46 45
f 37 47 51
f 37 51 44
f 37 44 50
f 37 50 61
f 37 61 59
f 37 59 48
f 37 48 42
f 37 42 41
f 37 41 40
f 37 40 39
f 37 39 38
f 42 48 49
f 42 49 43
f 45 46 53
f 45 53 54
f 45 54 55
f 45 55 52
f 47 55 56
f 47 56 57
f 47 57 58
f 47 58 51
f 47 52 55
f 48 59 49
f 49 59 61
f 49 61 60
f 50 62 61
f 60 61 63
f 61 62 63

