# https://github.com/mikedh/trimesh
v -0.00008227 0.02745860 0.00758665
v -0.00008227 0.01809596 0.00762060
v -0.00008227 0.02745860 -0.00016667
v -0.00454627 0.02745860 0.00818665
v -0.00433289 0.02724287 0.00818665
v -0.00414322 0.02697167 0.00818665
v -0.00376727 0.02620326 0.00818665
v -0.00368824 0.02603376 0.00818665
v -0.00362276 0.02584577 0.00818665
v -0.00318585 0.02456988 0.00818665
v -0.00314294 0.02403775 0.00818665
v -0.00008227 0.01755663 0.00762060
v -0.00008227 0.02726342 -0.00030500
v -0.00291828 0.02745860 -0.00048152
v -0.01161598 0.02745860 0.00818665
v -0.00314407 0.02349740 0.00818665
v -0.00008227 0.01720428 0.00761890
v -0.00008227 0.02700557 -0.00048152
v -0.00888270 0.02745860 -0.00048152
v -0.01161598 0.02745860 0.00121240
v -0.01161598 0.01962660 0.00818665
v -0.00320278 0.02304951 0.00818665
v -0.00008227 0.01696389 0.00761636
v -0.00008227 0.01701628 0.00761720
v -0.00008227 0.02082339 -0.00048152
v -0.01161485 0.02376141 -0.00048152
v -0.01161598 0.02367204 -0.00048152
v -0.01161598 0.01696389 0.00758496
v -0.01120277 0.01936773 0.00818665
v -0.00325133 0.02276598 0.00818665
v -0.00024258 0.01696389 0.00761890
v -0.00008227 0.01696389 0.00043248
v -0.00333826 0.02241670 0.00818665
v -0.00351890 0.02187738 0.00818665
v -0.00366792 0.02146133 0.00818665
v -0.00418161 0.02037858 0.00818665
v -0.00472917 0.01986288 0.00818665
v -0.00573396 0.01929069 0.00818665
v -0.00681779 0.01876780 0.00818665
v -0.00729196 0.01860138 0.00818665
v -0.00783162 0.01851817 0.00818665
v -0.00501480 0.01696389 -0.00048152
v -0.01161598 0.01803329 -0.00048152
v -0.00945284 0.01696389 0.00760872
v -0.00837240 0.01853871 0.00818665
v -0.00862304 0.01855104 0.00818665
v -0.00891206 0.01857570 0.00818665
v -0.00914124 0.01860241 0.00818665
v -0.00945284 0.01865685 0.00818665
v -0.00966283 0.01871541 0.00818665
v -0.00988637 0.01878526 0.00818665
v -0.01005120 0.01885101 0.00818665
v -0.01076585 0.01915406 0.00818665
v -0.01104245 0.01927528 0.00818665
v -0.01161598 0.01696389 -0.00015903
v -0.00032274 0.01696389 0.00761890
v -0.00891206 0.01696389 0.00761126
v -0.01119374 0.01696389 -0.00048152
v -0.01120615 0.01696389 -0.00047218
v -0.01157759 0.01696389 -0.00018873
f 1 2 12
f 1 12 17
f 1 17 24
f 1 24 23
f 1 23 32
f 1 32 25
f 1 25 18
f 1 18 13
f 1 13 3
f 1 3 14
f 1 14 19
f 1 19 20
f 1 20 15
f 1 15 4
f 1 4 5
f 1 5 6
f 1 6 7
f 1 7 8
f 1 8 9
f 1 9 10
f 1 10 11
f 1 11 2
f 2 11 12
f 3 13 14
f 4 15 21
f 4 21 29
f 4 29 54
f 4 54 53
f 4 53 52
f 4 52 51
f 4 51 50
f 4 50 49
f 4 49 48
f 4 48 47
f 4 47 46
f 4 46 45
f 4 45 41
f 4 41 40
f 4 40 39
f 4 39 38
f 4 38 37
f 4 37 36
f 4 36 35
f 4 35 34
f 4 34 33
f 4 33 30
f 4 30 22
f 4 22 16
f 4 16 11
f 4 11 10
f 4 10 9
f 4 9 8
f 4 8 7
f 4 7 6
f 4 6 5
f 11 16 12
f 12 16 17
f 13 18 14
f 14 18 25
f 14 25 42
f 14 42 58
f 14 58 43
f 14 43 27
f 14 27 26
f 14 26 19
f 15 20 27
f 15 27 43
f 15 43 55
f 15 55 28
f 15 28 21
f 16 22 23
f 16 23 24
f 16 24 17
f 19 26 20
f 20 26 27
f 21 28 29
f 22 30 23
f 23 31 56
f 23 56 57
f 23 57 44
f 23 44 28
f 23 28 55
f 23 55 60
f 23 60 59
f 23 59 58
f 23 58 42
f 23 42 32
f 23 30 33
f 23 33 34
f 23 34 35
f 23 35 36
f 23 36 37
f 23 37 38
f 23 38 39
f 23 39 40
f 23 40 41
f 23 41 31
f 25 32 42
f 28 44 41
f 28 41 45
f 28 45 46
f 28 46 47
f 28 47 48
f 28 48 49
f 28 49 50
f 28 50 51
f 28 51 52
f 28 52 53
f 28 53 54
f 28 54 29
f 31 41 56
f 41 44 57
f 41 57 56
f 43 58 59
f 43 59 60
f 43 60 55

