# https://github.com/mikedh/trimesh
v 0.00833485 -0.01100747 0.01168871
v 0.00833485 -0.01077095 0.01142835
v 0.00833485 -0.01027894 0.00837273
v 0.00834462 -0.01270359 0.01105437
v 0.00834462 -0.01144509 0.01193268
v 0.01177965 -0.00765933 0.01151967
v 0.01138066 -0.00765933 0.01112966
v 0.01113194 -0.00765933 0.01060476
v 0.00833485 -0.01065603 0.01107319
v 0.00833485 -0.01056214 0.01055213
v 0.01071980 -0.00765933 0.00837273
v 0.00837242 -0.01290060 0.00837273
v 0.00835402 -0.01277799 0.01053296
v 0.00891343 -0.01270667 0.01053296
v 0.00891343 -0.01261946 0.01107319
v 0.00891343 -0.01248914 0.01148098
v 0.00835402 -0.01253429 0.01157125
v 0.00835402 -0.01219824 0.01187831
v 0.01216174 -0.00765933 0.01165002
v 0.00873084 -0.01199918 0.01189923
v 0.01099744 -0.00765933 0.01008021
v 0.01217301 -0.00765933 0.00837273
v 0.00889202 -0.01288162 0.00837273
v 0.00945369 -0.01261946 0.00999377
v 0.00945369 -0.01257533 0.01053296
v 0.00988161 -0.01238345 0.01096062
v 0.00943265 -0.01248350 0.01105646
v 0.00923841 -0.01243938 0.01136631
v 0.01042713 -0.01198020 0.01148098
v 0.01194158 -0.01035077 0.01138200
v 0.01209073 -0.00986235 0.01137468
v 0.01217301 -0.00935854 0.01139803
v 0.00999357 -0.01161337 0.01179188
v 0.01053308 -0.01107314 0.01171938
v 0.01217301 -0.01057959 0.01054865
v 0.01207909 -0.01132350 0.00842292
v 0.01160946 -0.01175549 0.00837273
v 0.00945369 -0.01274156 0.00837273
v 0.00999282 -0.01242347 0.01053296
v 0.01053308 -0.01219722 0.01053296
v 0.01057741 -0.01205870 0.01110805
v 0.01078705 -0.01186938 0.01131159
v 0.01097039 -0.01150922 0.01145728
v 0.01057741 -0.01165903 0.01158624
v 0.01181835 -0.01071041 0.01123178
v 0.01213469 -0.01031485 0.01105193
v 0.01111955 -0.01111572 0.01151583
v 0.01145805 -0.01096488 0.01141615
v 0.01133031 -0.01132504 0.01132344
v 0.01191227 -0.01084688 0.01087139
v 0.01185930 -0.01104492 0.01053296
v 0.01209299 -0.01086022 0.01003908
v 0.01189837 -0.01136095 0.00926045
v 0.01193369 -0.01139789 0.00891331
v 0.01106469 -0.01186836 0.01053296
v 0.01111955 -0.01205664 0.00837273
v 0.01014836 -0.01250966 0.00837273
v 0.01005481 -0.01244348 0.00999377
v 0.01053308 -0.01223570 0.00999377
v 0.01087309 -0.01193197 0.01095121
v 0.01142537 -0.01143278 0.01096306
v 0.01162186 -0.01108545 0.01109759
v 0.01149149 -0.01149742 0.01053296
v 0.01185705 -0.01131375 0.00962049
f 1 2 9
f 1 9 10
f 1 10 3
f 1 3 4
f 1 4 5
f 1 5 6
f 1 6 7
f 1 7 2
f 2 7 8
f 2 8 9
f 3 10 11
f 3 11 22
f 3 22 37
f 3 37 56
f 3 56 57
f 3 57 38
f 3 38 23
f 3 23 12
f 3 12 4
f 4 12 13
f 4 13 14
f 4 14 15
f 4 15 16
f 4 16 17
f 4 17 18
f 4 18 5
f 5 19 6
f 5 18 20
f 5 20 19
f 6 19 22
f 6 22 11
f 6 11 21
f 6 21 8
f 6 8 7
f 8 21 9
f 9 21 10
f 10 21 11
f 12 23 13
f 13 23 14
f 14 23 24
f 14 24 25
f 14 25 15
f 15 25 26
f 15 26 27
f 15 27 28
f 15 28 16
f 16 28 29
f 16 29 18
f 16 18 17
f 18 29 20
f 19 30 31
f 19 31 32
f 19 32 22
f 19 20 33
f 19 33 34
f 19 34 30
f 20 29 33
f 22 32 35
f 22 35 36
f 22 36 37
f 23 38 24
f 24 38 39
f 24 39 25
f 25 39 26
f 26 40 41
f 26 41 29
f 26 29 28
f 26 28 27
f 26 39 40
f 29 41 42
f 29 42 43
f 29 43 44
f 29 44 33
f 30 45 46
f 30 46 31
f 30 34 47
f 30 47 48
f 30 48 49
f 30 49 45
f 31 46 32
f 32 46 35
f 33 44 47
f 33 47 34
f 35 46 50
f 35 50 51
f 35 51 52
f 35 52 36
f 36 52 53
f 36 53 54
f 36 54 37
f 37 55 40
f 37 40 56
f 37 54 55
f 38 57 58
f 38 58 39
f 39 58 40
f 40 58 59
f 40 59 56
f 40 55 60
f 40 60 41
f 41 60 42
f 42 60 61
f 42 61 49
f 42 49 43
f 43 49 48
f 43 48 44
f 44 48 47
f 45 49 62
f 45 62 50
f 45 50 46
f 49 61 62
f 50 62 61
f 50 61 51
f 51 61 63
f 51 63 64
f 51 64 53
f 51 53 52
f 53 64 63
f 53 63 54
f 54 63 55
f 55 63 60
f 56 59 57
f 57 59 58
f 60 63 61

