# https://github.com/mikedh/trimesh
v 0.00369517 -0.00740273 -0.00718188
v 0.00343729 -0.00740273 -0.00714000
v 0.00369517 -0.00052445 -0.00541314
v 0.00369517 -0.00740273 0.01772574
v 0.00269806 -0.00740273 -0.00701437
v 0.00236978 -0.00740273 -0.00695771
v 0.00199008 -0.00740273 -0.00688627
v -0.00034548 -0.00052445 -0.00441792
v 0.00369517 -0.00052445 0.01753605
v 0.00369517 -0.00705330 0.01786615
v -0.00034548 -0.00740273 0.01755083
v 0.00162857 -0.00740273 -0.00679266
v 0.00138176 -0.00740273 -0.00671383
v 0.00128486 -0.00740273 -0.00667934
v -0.00034548 -0.00740273 -0.00600436
v -0.00034548 -0.00052445 0.01711235
v 0.00345588 -0.00052445 0.01751881
v -0.00034548 -0.00343776 0.01749664
v 0.00369517 -0.00596998 0.01795976
v 0.00369517 -0.00671733 0.01794005
v 0.00369517 -0.00669376 0.01794498
v 0.00369517 -0.00633221 0.01798440
v -0.00034548 -0.00488465 0.01754344
v -0.00034548 -0.00307620 0.01745230
v -0.00034548 -0.00379998 0.01752127
v -0.00034548 -0.00452309 0.01753852
v -0.00034548 -0.00468737 0.01754098
f 1 2 3
f 1 3 9
f 1 9 19
f 1 19 22
f 1 22 21
f 1 21 20
f 1 20 10
f 1 10 4
f 1 4 11
f 1 11 15
f 1 15 14
f 1 14 13
f 1 13 12
f 1 12 7
f 1 7 6
f 1 6 5
f 1 5 2
f 2 5 3
f 3 5 6
f 3 6 7
f 3 7 8
f 3 8 16
f 3 16 17
f 3 17 9
f 4 10 11
f 7 12 8
f 8 12 13
f 8 13 14
f 8 14 15
f 8 15 11
f 8 11 23
f 8 23 27
f 8 27 26
f 8 26 25
f 8 25 18
f 8 18 24
f 8 24 16
f 9 17 18
f 9 18 19
f 10 20 11
f 11 20 21
f 11 21 22
f 11 22 23
f 16 24 17
f 17 24 18
f 18 25 22
f 18 22 19
f 22 25 26
f 22 26 27
f 22 27 23

