# https://github.com/mikedh/trimesh
v -0.01335367 0.00113660 0.01744367
v -0.01335367 0.00120725 -0.00994488
v -0.01055969 0.00118836 -0.00822121
v -0.01055969 0.00113660 0.01753873
v -0.01061713 0.00202006 0.02116350
v -0.01087396 0.00216556 0.02135361
v -0.01139857 0.00245165 0.02143916
v -0.01160590 0.00251321 0.02137262
v -0.01199757 0.00285036 0.02139163
v -0.01262557 0.00329035 0.02125855
v -0.01300111 0.00364919 0.02128390
v -0.01335367 0.00401153 0.02126806
v -0.01335367 0.00160736 -0.01016033
v -0.01055969 0.00228097 -0.00841766
v -0.01335367 0.00235162 -0.01046768
v -0.01335367 0.00266989 -0.01053105
v -0.01055969 0.00344773 0.02163244
v -0.01061713 0.00212778 0.02139163
v -0.01101154 0.00233553 0.02146767
v -0.01141197 0.00271816 0.02163244
v -0.01173992 0.00272375 0.02145817
v -0.01238433 0.00318892 0.02140114
v -0.01275987 0.00353237 0.02141381
v -0.01312091 0.00389051 0.02139797
v -0.01329076 0.00421228 0.02145500
v -0.01328037 0.00452356 0.02157223
v -0.01335367 0.00524614 0.02162927
v -0.01055969 0.00262512 -0.00845251
v -0.01335367 0.00307630 -0.01058491
v -0.01055969 0.00374012 0.02148035
v -0.01214801 0.00828265 0.02136311
v -0.01241168 0.00828265 0.02150253
v -0.01084497 0.00360302 0.02171165
v -0.01061713 0.00307630 0.02166095
v -0.01061713 0.00271396 0.02164511
v -0.01061713 0.00235232 0.02153738
v -0.01101182 0.00271816 0.02167996
v -0.01120793 0.00290422 0.02172749
v -0.01286654 0.00378279 0.02147401
v -0.01328037 0.00488240 0.02162927
v -0.01334054 0.00827776 0.02172116
v -0.01335367 0.00828125 -0.00791070
v -0.01055969 0.00299516 -0.00847786
v -0.01335367 0.00349180 -0.01062294
v -0.01055969 0.00828265 0.01727258
v -0.01185917 0.00828265 0.02080229
v -0.01199867 0.00828265 0.02113815
v -0.01270434 0.00828265 0.02158174
v -0.01282442 0.00828265 -0.00799308
v -0.01335367 0.00583861 -0.01019202
v -0.01335367 0.00386183 -0.01064195
v -0.01055969 0.00336589 -0.00849370
v -0.01055969 0.00828265 -0.00795822
v -0.01248361 0.00828265 -0.00803427
v -0.01335367 0.00560778 -0.01034728
v -0.01212175 0.00828265 -0.00803744
v -0.01335367 0.00427734 -0.01063561
v -0.01055969 0.00372683 -0.00849053
v -0.01055969 0.00523285 -0.00838280
v -0.01335367 0.00462848 -0.01062294
v -0.01335367 0.00491598 -0.01058174
v -0.01335367 0.00516150 -0.01051837
v -0.01335367 0.00543780 -0.01042649
v -0.01055969 0.00488380 -0.00842399
f 1 2 3
f 1 3 4
f 1 4 5
f 1 5 6
f 1 6 7
f 1 7 8
f 1 8 9
f 1 9 10
f 1 10 11
f 1 11 12
f 1 12 27
f 1 27 42
f 1 42 50
f 1 50 55
f 1 55 63
f 1 63 62
f 1 62 61
f 1 61 60
f 1 60 57
f 1 57 51
f 1 51 44
f 1 44 29
f 1 29 16
f 1 16 15
f 1 15 13
f 1 13 2
f 2 13 3
f 3 14 28
f 3 28 43
f 3 43 52
f 3 52 58
f 3 58 64
f 3 64 59
f 3 59 53
f 3 53 45
f 3 45 30
f 3 30 17
f 3 17 4
f 3 13 15
f 3 15 16
f 3 16 14
f 4 17 18
f 4 18 5
f 5 18 6
f 6 18 19
f 6 19 7
f 7 19 20
f 7 20 21
f 7 21 8
f 8 21 9
f 9 21 22
f 9 22 10
f 10 22 23
f 10 23 11
f 11 23 24
f 11 24 12
f 12 24 25
f 12 25 26
f 12 26 27
f 14 16 29
f 14 29 28
f 17 30 31
f 17 31 32
f 17 32 33
f 17 33 34
f 17 34 35
f 17 35 36
f 17 36 18
f 18 36 19
f 19 36 20
f 20 37 38
f 20 38 26
f 20 26 39
f 20 39 23
f 20 23 21
f 20 36 37
f 21 23 22
f 23 39 24
f 24 39 25
f 25 39 26
f 26 38 40
f 26 40 27
f 27 40 41
f 27 41 42
f 28 29 44
f 28 44 43
f 30 45 46
f 30 46 47
f 30 47 31
f 31 47 46
f 31 46 45
f 31 45 53
f 31 53 56
f 31 56 54
f 31 54 49
f 31 49 48
f 31 48 32
f 32 48 33
f 33 41 38
f 33 38 34
f 33 48 41
f 34 38 35
f 35 38 37
f 35 37 36
f 38 41 40
f 41 48 42
f 42 49 50
f 42 48 49
f 43 44 51
f 43 51 52
f 49 54 50
f 50 54 56
f 50 56 53
f 50 53 55
f 51 57 58
f 51 58 52
f 53 59 60
f 53 60 61
f 53 61 62
f 53 62 63
f 53 63 55
f 57 60 58
f 58 60 64
f 59 64 60

