# https://github.com/mikedh/trimesh
v -0.01257300 -0.01655363 -0.02178923
v 0.01103257 -0.01357128 -0.02168567
v -0.00089870 -0.01558256 -0.02171588
v -0.01190936 -0.01748603 -0.02170509
v -0.01284410 -0.01708824 -0.02169430
v -0.01304177 -0.01559074 -0.02176550
v -0.01330440 -0.01454383 -0.02174716
v 0.01275237 -0.01311846 -0.02166518
v 0.01211698 -0.01357128 -0.02166949
v 0.01464443 -0.01338539 -0.02161016
v -0.01193760 -0.01815671 -0.02131889
v -0.01282998 -0.01788532 -0.02131997
v -0.01134457 -0.01800726 -0.02144187
v -0.01332982 -0.01712690 -0.02134694
v -0.01342583 -0.01628298 -0.02150660
v -0.01380425 -0.01465611 -0.02142245
v -0.01401040 -0.01414232 -0.02111824
v 0.00994817 -0.01159122 -0.02089170
v 0.01021927 -0.01221059 -0.02135989
v 0.01464443 -0.01266416 -0.02161016
v 0.01463313 -0.01413265 -0.02034800
v 0.01406834 -0.01414232 -0.02098879
v 0.01215934 -0.01448063 -0.02097800
v 0.01464443 -0.01411258 -0.01107492
v -0.01248828 -0.01845115 -0.02043970
v -0.01300506 -0.01822363 -0.02066408
v -0.01341454 -0.01771951 -0.02062093
v -0.01369976 -0.01707709 -0.02047530
v -0.01374777 -0.01560636 -0.02121641
v -0.01417419 -0.01412001 -0.02025846
v 0.00994817 -0.01109602 -0.01953785
v 0.00991146 -0.01124622 -0.02033290
v 0.01464443 -0.01195705 -0.02124769
v -0.01199691 -0.01845785 -0.01076855
v -0.00721028 -0.01750611 -0.01076855
v 0.01464443 -0.01108710 -0.01107492
v -0.01266619 -0.01847420 -0.01953785
v -0.01318297 -0.01823850 -0.01908477
v -0.01328181 -0.01808310 -0.01990031
v -0.01360374 -0.01754849 -0.01990031
v -0.01378166 -0.01700794 -0.01962846
v -0.01380707 -0.01707262 -0.01330042
v -0.01420525 -0.01412001 -0.01330365
v 0.01014302 -0.01087816 -0.01107492
v 0.00994817 -0.01106033 -0.01881400
v 0.01464443 -0.01152579 -0.01989168
v 0.01464443 -0.01163658 -0.02059935
v -0.01273114 -0.01841026 -0.01076855
v -0.01265771 -0.01844595 -0.01185271
v -0.00721028 -0.01413637 -0.01076855
v -0.01319709 -0.01823330 -0.01827137
v -0.01338912 -0.01809351 -0.01700490
v -0.01338065 -0.01808384 -0.01809014
v -0.01354444 -0.01771430 -0.01926600
v -0.01373082 -0.01729941 -0.01790891
v -0.01379013 -0.01711426 -0.01176101
v -0.01380707 -0.01695291 -0.01076855
v -0.01419960 -0.01412001 -0.01076855
v -0.01371106 -0.01735963 -0.01257656
v -0.01126832 -0.01412001 -0.01076855
v -0.01326487 -0.01807864 -0.01093684
v -0.01338912 -0.01809351 -0.01636088
v -0.01360657 -0.01749496 -0.01090339
v -0.01347667 -0.01777602 -0.01167148
f 1 2 3
f 1 3 4
f 1 4 5
f 1 5 6
f 1 6 7
f 1 7 2
f 2 8 9
f 2 9 3
f 2 7 8
f 3 9 10
f 3 10 4
f 4 11 12
f 4 12 5
f 4 10 13
f 4 13 11
f 5 12 14
f 5 14 15
f 5 15 6
f 6 15 7
f 7 15 16
f 7 16 17
f 7 17 18
f 7 18 19
f 7 19 20
f 7 20 8
f 8 20 10
f 8 10 9
f 10 21 22
f 10 22 23
f 10 23 13
f 10 20 33
f 10 33 47
f 10 47 46
f 10 46 36
f 10 36 24
f 10 24 21
f 11 13 23
f 11 23 25
f 11 25 26
f 11 26 12
f 12 26 27
f 12 27 14
f 14 27 28
f 14 28 29
f 14 29 15
f 15 29 16
f 16 29 17
f 17 29 28
f 17 28 30
f 17 30 31
f 17 31 32
f 17 32 18
f 18 32 33
f 18 33 19
f 19 33 20
f 21 24 34
f 21 34 25
f 21 25 23
f 21 23 22
f 24 35 34
f 24 36 50
f 24 50 35
f 25 34 37
f 25 37 26
f 26 38 39
f 26 39 27
f 26 37 38
f 27 39 40
f 27 40 28
f 28 40 41
f 28 41 30
f 30 41 42
f 30 42 43
f 30 43 44
f 30 44 45
f 30 45 31
f 31 45 36
f 31 36 46
f 31 46 47
f 31 47 32
f 32 47 33
f 34 48 49
f 34 49 37
f 34 35 50
f 34 50 60
f 34 60 58
f 34 58 57
f 34 57 48
f 36 45 44
f 36 44 50
f 37 49 48
f 37 48 51
f 37 51 38
f 38 51 52
f 38 52 53
f 38 53 39
f 39 53 54
f 39 54 40
f 40 54 55
f 40 55 41
f 41 55 42
f 42 56 57
f 42 57 58
f 42 58 43
f 42 55 59
f 42 59 56
f 43 58 44
f 44 58 60
f 44 60 50
f 48 57 61
f 48 61 62
f 48 62 51
f 51 62 52
f 52 62 59
f 52 59 55
f 52 55 54
f 52 54 53
f 56 59 63
f 56 63 57
f 57 63 61
f 59 62 64
f 59 64 63
f 61 63 64
f 61 64 62

