# https://github.com/mikedh/trimesh
v -0.00560884 0.00741681 0.02179144
v -0.00488554 0.00669355 0.02165423
v -0.00488554 0.00723581 0.02165784
v -0.00504962 0.00816572 0.02169154
v -0.00524026 0.00864242 0.02168111
v -0.00576302 0.00878850 0.02170920
v -0.00625685 0.00878423 0.02168352
v -0.00770623 0.00264116 0.02169556
v -0.00633730 0.00474681 0.02175333
v -0.00497987 0.00503825 0.02161371
v -0.00455619 0.00651255 0.02148091
v -0.00455302 0.00741681 0.02148051
v -0.00492042 0.00780017 0.02166105
v -0.00461842 0.00795978 0.02145323
v -0.00477100 0.00865026 0.02135974
v -0.00467033 0.00878850 0.02080607
v -0.00665674 0.00878850 0.02147650
v -0.00775180 0.00326466 0.02163016
v -0.00775180 0.00199415 0.02082573
v -0.00752352 0.00225994 0.02136817
v -0.00671976 0.00271812 0.02145323
v -0.00669360 0.00307654 0.02160167
v -0.00501158 0.00450524 0.02130638
v -0.00467390 0.00505179 0.02122133
v -0.00454985 0.00560759 0.02130839
v -0.00458829 0.00597029 0.02146646
v -0.00611377 0.00321122 0.02138823
v -0.00433425 0.00669355 0.02120167
v -0.00442976 0.00705482 0.02135774
v -0.00434415 0.00739258 0.02114830
v -0.00431839 0.00760065 0.02081570
v -0.00775180 0.00878850 0.01769268
v -0.00387966 0.00811940 0.01769268
v -0.00433662 0.00875216 0.01769268
v -0.00694408 0.00878850 0.02099745
v -0.00775180 0.00382189 0.02144921
v -0.00758455 0.00150960 0.01769268
v -0.00728334 0.00215946 0.02075231
v -0.00697737 0.00246587 0.02130919
v -0.00632739 0.00289982 0.02122855
v -0.00547171 0.00385324 0.02121290
v -0.00501435 0.00418316 0.02062513
v -0.00476545 0.00458078 0.02059544
v -0.00450824 0.00524560 0.02080607
v -0.00439290 0.00563752 0.02077638
v -0.00437745 0.00612207 0.02109575
v -0.00574122 0.00356964 0.02126867
v -0.00422843 0.00633156 0.02062513
v -0.00419196 0.00687454 0.02062513
v -0.00420385 0.00741681 0.02044418
v -0.00373618 0.00758497 0.01769268
v -0.00775180 0.00878850 0.01830814
v -0.00714502 0.00878850 0.02044418
v -0.00560567 0.00271456 0.01769268
v -0.00701740 0.00225851 0.02044418
v -0.00677961 0.00247015 0.02080607
v -0.00523629 0.00306728 0.01769268
v -0.00573963 0.00338295 0.02075070
v -0.00540315 0.00377130 0.02080607
v -0.00489188 0.00343425 0.01769268
v -0.00456015 0.00403139 0.01769268
v -0.00441074 0.00538883 0.02044418
v -0.00379127 0.00616910 0.01769268
v -0.00370289 0.00687454 0.01769268
f 1 2 3
f 1 3 4
f 1 4 5
f 1 5 6
f 1 6 7
f 1 7 8
f 1 8 9
f 1 9 10
f 1 10 2
f 2 11 3
f 2 10 11
f 3 12 13
f 3 13 4
f 3 11 12
f 4 13 14
f 4 14 15
f 4 15 5
f 5 15 6
f 6 15 16
f 6 16 32
f 6 32 52
f 6 52 53
f 6 53 35
f 6 35 17
f 6 17 7
f 7 17 18
f 7 18 8
f 8 19 20
f 8 20 21
f 8 21 22
f 8 22 10
f 8 10 9
f 8 18 19
f 10 23 24
f 10 24 25
f 10 25 26
f 10 26 11
f 10 22 27
f 10 27 23
f 11 28 29
f 11 29 12
f 11 26 28
f 12 29 30
f 12 30 14
f 12 14 13
f 14 30 15
f 15 30 31
f 15 31 16
f 16 31 33
f 16 33 34
f 16 34 32
f 17 35 36
f 17 36 18
f 18 36 52
f 18 52 32
f 18 32 19
f 19 37 38
f 19 38 20
f 19 32 37
f 20 39 21
f 20 38 39
f 21 40 27
f 21 27 22
f 21 39 40
f 23 41 42
f 23 42 43
f 23 43 24
f 23 27 41
f 24 43 44
f 24 44 45
f 24 45 25
f 25 45 46
f 25 46 28
f 25 28 26
f 27 40 47
f 27 47 41
f 28 46 48
f 28 48 49
f 28 49 30
f 28 30 29
f 30 49 50
f 30 50 31
f 31 50 51
f 31 51 33
f 32 34 33
f 32 33 51
f 32 51 64
f 32 64 63
f 32 63 61
f 32 61 60
f 32 60 57
f 32 57 54
f 32 54 37
f 35 53 36
f 36 53 52
f 37 54 55
f 37 55 38
f 38 55 56
f 38 56 39
f 39 56 40
f 40 57 58
f 40 58 59
f 40 59 47
f 40 56 54
f 40 54 57
f 41 47 59
f 41 59 42
f 42 59 60
f 42 60 43
f 43 60 61
f 43 61 44
f 44 62 45
f 44 61 62
f 45 62 63
f 45 63 48
f 45 48 46
f 48 63 64
f 48 64 49
f 49 51 50
f 49 64 51
f 54 56 55
f 57 60 58
f 58 60 59
f 61 63 62

