# https://github.com/mikedh/trimesh
v 0.01471934 -0.01411776 -0.02041425
v 0.01646463 -0.01385353 -0.02044340
v 0.01743076 -0.01372929 -0.01991035
v 0.01464657 -0.01411185 -0.01107341
v 0.01465105 -0.01391334 -0.02129607
v 0.01629335 -0.01379765 -0.02089524
v 0.01702960 -0.01375624 -0.02046839
v 0.01767705 -0.01353868 -0.02050483
v 0.01801887 -0.01340327 -0.01991556
v 0.01806700 -0.01340064 -0.01917741
v 0.01739643 -0.01367934 -0.01107341
v 0.01464657 -0.01108496 -0.01107341
v 0.01464657 -0.01266183 -0.02161049
v 0.01474247 -0.01338750 -0.02160840
v 0.01515780 -0.01373127 -0.02142413
v 0.01718783 -0.01342956 -0.02111492
v 0.01760540 -0.01306673 -0.02125026
v 0.01804611 -0.01314824 -0.02061414
v 0.01831143 -0.01284522 -0.02026329
v 0.01844465 -0.01267826 -0.01867247
v 0.01837934 -0.01284522 -0.01682554
v 0.01818493 -0.01306279 -0.01107341
v 0.01465329 -0.00740273 -0.01107341
v 0.01464657 -0.01152404 -0.01989057
v 0.01464657 -0.01195523 -0.02124818
v 0.01510594 -0.00740273 -0.02044548
v 0.01527535 -0.00740273 -0.02099415
v 0.01563061 -0.00740273 -0.02142100
v 0.01627992 -0.00740273 -0.02156884
v 0.01663853 -0.01225299 -0.02170939
v 0.01628365 -0.01275780 -0.02169377
v 0.01628365 -0.01334280 -0.02151158
v 0.01780915 -0.01259807 -0.02126275
v 0.01700647 -0.01291752 -0.02156259
v 0.01718745 -0.01230229 -0.02163027
v 0.01812447 -0.01205251 -0.02092752
v 0.01833979 -0.01230229 -0.02026329
v 0.01840248 -0.01266380 -0.01962925
v 0.01845883 -0.01208866 -0.01863499
v 0.01845771 -0.01238576 -0.01700670
v 0.01834875 -0.01228454 -0.01107341
v 0.01759010 -0.00740273 -0.01107341
v 0.01503877 -0.00740273 -0.01953868
v 0.01464657 -0.01163512 -0.02060061
v 0.01718745 -0.01049404 -0.02155739
v 0.01733187 -0.00740273 -0.02106182
v 0.01693631 -0.00741128 -0.02142829
v 0.01765764 -0.01203082 -0.02142933
v 0.01765316 -0.01139783 -0.02141684
v 0.01816216 -0.01140046 -0.02061102
v 0.01773153 -0.01085753 -0.02129503
v 0.01783788 -0.01013252 -0.02101289
v 0.01821254 -0.01103566 -0.02008214
v 0.01830135 -0.01157859 -0.01990098
v 0.01838569 -0.01212153 -0.01971983
v 0.01845435 -0.01230294 -0.01624044
v 0.01841517 -0.01198086 -0.01916179
v 0.01768488 -0.00747701 -0.01954076
v 0.01822523 -0.01120787 -0.01107341
v 0.01766585 -0.00830127 -0.02068494
v 0.01745651 -0.00814220 -0.02110451
v 0.01729157 -0.00814220 -0.02128566
v 0.01766249 -0.00773533 -0.02017167
v 0.01807708 -0.01039413 -0.02036636
f 1 2 3
f 1 3 4
f 1 4 5
f 1 5 6
f 1 6 2
f 2 6 7
f 2 7 3
f 3 7 8
f 3 8 9
f 3 9 10
f 3 10 11
f 3 11 4
f 4 11 22
f 4 22 41
f 4 41 59
f 4 59 42
f 4 42 23
f 4 23 12
f 4 12 24
f 4 24 44
f 4 44 25
f 4 25 13
f 4 13 5
f 5 13 14
f 5 14 15
f 5 15 6
f 6 15 16
f 6 16 7
f 7 16 8
f 8 16 17
f 8 17 18
f 8 18 9
f 9 19 10
f 9 18 19
f 10 20 21
f 10 21 22
f 10 22 11
f 10 19 20
f 12 23 24
f 13 25 26
f 13 26 27
f 13 27 28
f 13 28 29
f 13 29 30
f 13 30 31
f 13 31 14
f 14 31 32
f 14 32 15
f 15 32 16
f 16 32 17
f 17 33 18
f 17 32 34
f 17 34 35
f 17 35 33
f 18 33 36
f 18 36 19
f 19 37 38
f 19 38 20
f 19 36 37
f 20 39 40
f 20 40 21
f 20 38 39
f 21 40 41
f 21 41 22
f 23 42 46
f 23 46 29
f 23 29 28
f 23 28 27
f 23 27 26
f 23 26 43
f 23 43 44
f 23 44 24
f 25 44 43
f 25 43 26
f 29 45 35
f 29 35 30
f 29 46 47
f 29 47 45
f 30 35 31
f 31 35 34
f 31 34 32
f 33 35 48
f 33 48 36
f 35 45 49
f 35 49 48
f 36 50 37
f 36 48 49
f 36 49 51
f 36 51 52
f 36 52 50
f 37 53 54
f 37 54 55
f 37 55 38
f 37 50 53
f 38 55 39
f 39 56 40
f 39 55 57
f 39 57 58
f 39 58 42
f 39 42 59
f 39 59 56
f 40 56 41
f 41 56 59
f 42 58 46
f 45 47 49
f 46 60 61
f 46 61 62
f 46 62 47
f 46 58 63
f 46 63 60
f 47 62 49
f 49 62 51
f 50 52 60
f 50 60 64
f 50 64 53
f 51 62 61
f 51 61 52
f 52 61 60
f 53 58 57
f 53 57 54
f 53 64 63
f 53 63 58
f 54 57 55
f 60 63 64

