# https://github.com/mikedh/trimesh
v -0.00775292 0.01238054 -0.01075406
v -0.00775794 0.01524409 -0.01090997
v -0.01507370 0.01418472 -0.01075406
v -0.00948886 0.01106081 -0.01075406
v -0.00935555 0.01116623 -0.01718649
v -0.00947811 0.01111246 -0.01972005
v -0.00775292 0.01266907 -0.02018021
v -0.00775292 0.01526500 -0.01973305
v -0.00776654 0.01527226 -0.01918411
v -0.00995188 0.01091313 -0.01075406
v -0.01507370 0.01420606 -0.01682486
v -0.01507370 0.01136983 -0.01075947
v -0.00995188 0.01091270 -0.01646324
v -0.00958992 0.01103349 -0.01827246
v -0.00995188 0.01093575 -0.01990087
v -0.00949029 0.01113721 -0.02013365
v -0.00775292 0.01274121 -0.02098142
v -0.00775292 0.01517110 -0.02079844
v -0.00781169 0.01523128 -0.02023435
v -0.00922797 0.01505629 -0.01972005
v -0.00835068 0.01518604 -0.01953924
v -0.01504503 0.01421460 -0.01899680
v -0.01507370 0.01420649 -0.01953924
v -0.01507370 0.01144111 -0.01790867
v -0.01031383 0.01098142 -0.02008168
v -0.00995188 0.01103392 -0.02044331
v -0.01507370 0.01146202 -0.01971356
v -0.00959279 0.01123325 -0.02061005
v -0.00949675 0.01154440 -0.02101174
v -0.00775292 0.01307840 -0.02152820
v -0.01051452 0.01482580 -0.02046172
v -0.00775292 0.01476306 -0.02150329
v -0.00776654 0.01505031 -0.02116548
v -0.00922797 0.01488769 -0.02110052
v -0.00969027 0.01484885 -0.02101715
v -0.01074961 0.01482025 -0.02008168
v -0.01507370 0.01417831 -0.02024734
v -0.01507370 0.01148806 -0.02011308
v -0.01507370 0.01159391 -0.02080494
v -0.01010096 0.01119227 -0.02077029
v -0.01507370 0.01178128 -0.02127376
v -0.00995188 0.01144836 -0.02108212
v -0.00775292 0.01354235 -0.02171334
v -0.00988450 0.01189781 -0.02133222
v -0.01501994 0.01406435 -0.02103123
v -0.00775937 0.01430892 -0.02171009
v -0.00850478 0.01434307 -0.02167328
v -0.00922797 0.01429270 -0.02165487
v -0.00922797 0.01461538 -0.02147839
v -0.00814282 0.01487318 -0.02139177
v -0.00872195 0.01487873 -0.02125860
v -0.01124344 0.01447666 -0.02135171
v -0.01507370 0.01382704 -0.02143292
v -0.01507370 0.01232804 -0.02171442
v -0.00977986 0.01306004 -0.02172958
v -0.00795432 0.01392777 -0.02174907
v -0.00814282 0.01418088 -0.02173175
v -0.01356854 0.01346638 -0.02174691
v -0.01504144 0.01342839 -0.02168411
v -0.01248268 0.01419710 -0.02143725
v -0.01507370 0.01287437 -0.02179563
v -0.01447307 0.01284578 -0.02181403
v -0.01402081 0.01332979 -0.02176748
v -0.01465369 0.01320729 -0.02177397
f 1 2 3
f 1 3 10
f 1 10 4
f 1 4 5
f 1 5 6
f 1 6 7
f 1 7 17
f 1 17 30
f 1 30 43
f 1 43 32
f 1 32 18
f 1 18 8
f 1 8 2
f 2 8 9
f 2 9 3
f 3 9 11
f 3 11 23
f 3 23 37
f 3 37 53
f 3 53 61
f 3 61 54
f 3 54 41
f 3 41 39
f 3 39 38
f 3 38 27
f 3 27 24
f 3 24 12
f 3 12 10
f 4 10 13
f 4 13 14
f 4 14 5
f 5 14 6
f 6 15 16
f 6 16 7
f 6 14 15
f 7 16 17
f 8 18 19
f 8 19 20
f 8 20 21
f 8 21 9
f 9 21 22
f 9 22 11
f 10 12 13
f 11 22 23
f 12 24 15
f 12 15 13
f 13 15 14
f 15 25 26
f 15 26 16
f 15 24 27
f 15 27 25
f 16 26 28
f 16 28 17
f 17 29 30
f 17 28 29
f 18 31 19
f 18 32 33
f 18 33 34
f 18 34 35
f 18 35 31
f 19 31 36
f 19 36 20
f 20 36 23
f 20 23 21
f 21 23 22
f 23 36 37
f 25 27 38
f 25 38 39
f 25 39 26
f 26 40 28
f 26 39 41
f 26 41 40
f 28 40 42
f 28 42 29
f 29 42 30
f 30 42 44
f 30 44 43
f 31 35 45
f 31 45 37
f 31 37 36
f 32 43 46
f 32 46 47
f 32 47 48
f 32 48 49
f 32 49 50
f 32 50 33
f 33 50 51
f 33 51 34
f 34 51 52
f 34 52 45
f 34 45 35
f 37 45 53
f 40 41 42
f 41 54 42
f 42 54 44
f 43 44 55
f 43 55 56
f 43 56 46
f 44 54 55
f 45 52 53
f 46 56 57
f 46 57 58
f 46 58 47
f 47 58 48
f 48 58 59
f 48 59 49
f 49 53 60
f 49 60 52
f 49 52 50
f 49 59 53
f 50 52 51
f 52 60 53
f 53 59 61
f 54 61 62
f 54 62 55
f 55 62 56
f 56 62 57
f 57 62 63
f 57 63 58
f 58 63 59
f 59 63 64
f 59 64 61
f 61 64 62
f 62 64 63

