# https://github.com/mikedh/trimesh
v 0.01549566 -0.00740273 -0.02128672
v 0.01759125 -0.00740273 -0.02026175
v 0.01514876 -0.00740273 -0.02064877
v 0.01400218 -0.00638203 -0.02052969
v 0.01421817 -0.00613561 -0.02093372
v 0.01487417 -0.00601913 -0.02137178
v 0.01537798 -0.00596931 -0.02158018
v 0.01574000 -0.00633154 -0.02162271
v 0.01632605 -0.00714217 -0.02156742
v 0.01698441 -0.00722903 -0.02139730
v 0.01733934 -0.00714083 -0.02101453
v 0.01702458 -0.00453050 -0.02095073
v 0.01701513 -0.00403833 -0.02074234
v 0.01713942 -0.00452309 -0.02044037
v 0.01767254 -0.00740273 -0.01953874
v 0.01303426 -0.00740273 0.02168128
v 0.01284474 -0.00740206 -0.00956547
v 0.01376304 -0.00623391 -0.01990450
v 0.01369593 -0.00568922 -0.02024899
v 0.01408347 -0.00554312 -0.02094648
v 0.01442660 -0.00052714 -0.02129523
v 0.01519318 -0.00052445 -0.02163121
v 0.01592101 -0.00578887 -0.02163972
v 0.01610156 -0.00633154 -0.02162271
v 0.01661009 -0.00560843 -0.02146960
v 0.01701087 -0.00665135 -0.02135052
v 0.01693714 -0.00560843 -0.02126971
v 0.01627170 -0.00168385 -0.02133350
v 0.01629816 -0.00117686 -0.02120166
v 0.01632274 -0.00053387 -0.02096349
v 0.01652171 -0.00053387 -0.02026175
v 0.01663372 -0.00106914 -0.02008738
v 0.01658930 -0.00060524 -0.01953874
v 0.01648485 -0.00071970 0.01627997
v 0.01752697 -0.00740273 0.01501258
v 0.01746600 -0.00740273 0.01610135
v 0.01739653 -0.00735089 0.01659470
v 0.01374886 -0.00722162 0.02143460
v 0.01366237 -0.00676715 0.02156645
v 0.01331405 -0.00576396 0.02174082
v 0.01284521 -0.00578954 0.02180887
v 0.01284474 -0.00651400 0.02176208
v 0.01284427 -0.00652073 -0.00968030
v 0.01359715 -0.00578887 -0.01971737
v 0.01413404 -0.00052445 -0.02067429
v 0.01574000 -0.00199019 -0.02159719
v 0.01584918 -0.00052445 0.01742403
v 0.01586288 -0.00052714 -0.02146109
v 0.01610156 -0.00289509 -0.02152063
v 0.01675188 -0.00488397 -0.02134201
v 0.01623531 -0.00052916 0.01706678
v 0.01750996 -0.00740273 0.01555271
v 0.01641679 -0.00090485 0.01682436
v 0.01707940 -0.00651265 0.01710506
v 0.01713423 -0.00722903 0.01716035
v 0.01370018 -0.00615042 0.02155369
v 0.01345300 -0.00475268 0.02143886
v 0.01286837 -0.00428071 0.02167702
v 0.01284427 -0.00365388 0.02133253
v 0.01284427 -0.00052445 -0.00875740
v 0.01521161 -0.00052445 0.01756863
v 0.01467377 -0.00052445 0.01759415
v 0.01393176 -0.00052445 0.01759415
v 0.01302670 -0.00052512 0.01750058
f 1 2 15
f 1 15 35
f 1 35 52
f 1 52 36
f 1 36 16
f 1 16 3
f 1 3 4
f 1 4 5
f 1 5 6
f 1 6 7
f 1 7 8
f 1 8 9
f 1 9 10
f 1 10 2
f 2 10 11
f 2 11 12
f 2 12 13
f 2 13 14
f 2 14 15
f 3 16 17
f 3 17 4
f 4 17 18
f 4 18 19
f 4 19 20
f 4 20 5
f 5 20 6
f 6 21 22
f 6 22 7
f 6 20 21
f 7 22 8
f 8 22 23
f 8 23 24
f 8 24 9
f 9 24 10
f 10 24 25
f 10 25 26
f 10 26 11
f 11 27 12
f 11 26 27
f 12 27 28
f 12 28 29
f 12 29 30
f 12 30 13
f 13 31 14
f 13 30 31
f 14 31 32
f 14 32 15
f 15 32 33
f 15 33 34
f 15 34 35
f 16 36 37
f 16 37 38
f 16 38 39
f 16 39 40
f 16 40 41
f 16 41 42
f 16 42 17
f 17 42 43
f 17 43 44
f 17 44 18
f 18 44 19
f 19 45 21
f 19 21 20
f 19 44 45
f 21 45 22
f 22 46 23
f 22 45 60
f 22 60 63
f 22 63 62
f 22 62 61
f 22 61 47
f 22 47 48
f 22 48 46
f 23 46 24
f 24 46 25
f 25 46 49
f 25 49 26
f 26 49 48
f 26 48 28
f 26 28 50
f 26 50 27
f 27 50 28
f 28 48 29
f 29 48 30
f 30 48 31
f 31 48 47
f 31 47 51
f 31 51 34
f 31 34 33
f 31 33 32
f 34 36 52
f 34 52 35
f 34 51 53
f 34 53 37
f 34 37 36
f 37 53 54
f 37 54 55
f 37 55 38
f 38 55 56
f 38 56 39
f 39 56 40
f 40 56 57
f 40 57 58
f 40 58 41
f 41 58 59
f 41 59 42
f 42 59 43
f 43 59 60
f 43 60 44
f 44 60 45
f 46 48 49
f 47 61 59
f 47 59 58
f 47 58 57
f 47 57 51
f 51 57 56
f 51 56 54
f 51 54 53
f 54 56 55
f 59 61 62
f 59 62 63
f 59 63 64
f 59 64 60
f 60 64 63

