# https://github.com/mikedh/trimesh
v 0.01838190 -0.01230160 -0.00777714
v 0.01824759 -0.01299359 -0.00804585
v 0.01834832 -0.01229320 -0.01107237
v 0.01825734 -0.01146069 -0.01107237
v 0.01832125 -0.01166920 0.01243829
v 0.01827251 -0.01266364 0.01266457
v 0.01817719 -0.01315093 -0.00886330
v 0.01811870 -0.01318300 -0.01097054
v 0.01817611 -0.01295845 0.00795791
v 0.01739625 -0.01367946 -0.01107237
v 0.01465159 -0.00740273 -0.01107237
v 0.01758905 -0.00740273 -0.01105257
v 0.01773310 -0.00844606 0.01561755
v 0.01813820 -0.01094284 0.01625962
v 0.01827900 -0.01194034 0.01627942
v 0.01812845 -0.01299511 0.01194047
v 0.01815228 -0.01265829 0.01636993
v 0.01800605 -0.01330063 -0.00162794
v 0.01777535 -0.01350914 -0.00949689
v 0.01015008 -0.01480068 -0.01106106
v 0.00731768 -0.01517952 -0.01107237
v 0.01742550 -0.01368633 -0.00615075
v 0.01067648 -0.01472889 -0.00705587
v 0.00731768 -0.01253685 -0.01107237
v 0.00731768 -0.00740273 -0.00757066
v 0.01758363 -0.00741037 -0.00705587
v 0.01742874 -0.00740273 0.01636428
v 0.01751864 -0.00740885 0.01528378
v 0.01778618 -0.01031273 0.01710818
v 0.01794540 -0.01225349 0.01720152
v 0.01775585 -0.01336249 0.01412126
v 0.01765728 -0.01318530 0.01682815
v 0.01773419 -0.01342283 0.01094483
v 0.01754897 -0.01357864 0.00633151
v 0.00731768 -0.01520167 -0.00343537
v 0.01719804 -0.01370848 0.00850099
v 0.01481622 -0.01410794 0.00415921
v 0.01176178 -0.01456010 0.00415921
v 0.00731768 -0.01520549 0.00596664
v 0.00731768 -0.00740503 0.01740517
v 0.01134694 -0.00740273 0.01782379
v 0.01420750 -0.00740273 0.01782379
v 0.01674420 -0.00741801 0.01741649
v 0.01764104 -0.01093444 0.01741366
v 0.01709622 -0.01252845 0.01763428
v 0.01679403 -0.01375049 0.01611819
v 0.01714063 -0.01370696 0.01194047
v 0.01669438 -0.01356337 0.01714778
v 0.01501660 -0.01404225 0.01627942
v 0.01193184 -0.01452420 0.01139739
v 0.00731768 -0.01519327 0.01550724
v 0.00731768 -0.00840328 0.01782379
v 0.01392805 -0.00868741 0.01782379
v 0.01682436 -0.00814207 0.01749286
v 0.00775852 -0.01418050 0.01753246
v 0.01341465 -0.00978572 0.01782379
v 0.01270953 -0.01053957 0.01782379
v 0.01040245 -0.01179217 0.01782379
v 0.00938972 -0.01209004 0.01782379
v 0.00799248 -0.01492747 0.01693564
v 0.00733068 -0.01516042 0.01621437
v 0.00756247 -0.01172953 0.01782379
v 0.00866727 -0.01208087 0.01782379
f 1 2 3
f 1 3 4
f 1 4 5
f 1 5 6
f 1 6 2
f 2 7 8
f 2 8 3
f 2 6 9
f 2 9 7
f 3 10 21
f 3 21 24
f 3 24 11
f 3 11 4
f 3 8 10
f 4 11 12
f 4 12 5
f 5 12 13
f 5 13 14
f 5 14 15
f 5 15 6
f 6 16 9
f 6 15 17
f 6 17 16
f 7 9 16
f 7 16 18
f 7 18 19
f 7 19 8
f 8 19 10
f 10 20 21
f 10 19 22
f 10 22 23
f 10 23 20
f 11 24 25
f 11 25 41
f 11 41 42
f 11 42 27
f 11 27 12
f 12 26 13
f 12 27 28
f 12 28 26
f 13 28 27
f 13 27 14
f 13 26 28
f 14 27 29
f 14 29 15
f 15 29 30
f 15 30 17
f 16 17 31
f 16 31 18
f 17 30 32
f 17 32 31
f 18 31 33
f 18 33 19
f 19 33 34
f 19 34 22
f 20 23 35
f 20 35 21
f 21 35 39
f 21 39 51
f 21 51 52
f 21 52 40
f 21 40 25
f 21 25 24
f 22 34 36
f 22 36 37
f 22 37 23
f 23 37 38
f 23 38 39
f 23 39 35
f 25 40 41
f 27 42 43
f 27 43 29
f 29 43 44
f 29 44 30
f 30 44 45
f 30 45 32
f 31 32 46
f 31 46 47
f 31 47 33
f 32 45 48
f 32 48 46
f 33 47 34
f 34 47 36
f 36 47 49
f 36 49 37
f 37 50 38
f 37 49 50
f 38 50 51
f 38 51 39
f 40 52 41
f 41 52 62
f 41 62 63
f 41 63 59
f 41 59 58
f 41 58 57
f 41 57 56
f 41 56 53
f 41 53 42
f 42 53 45
f 42 45 54
f 42 54 43
f 43 54 44
f 44 54 45
f 45 55 48
f 45 53 56
f 45 56 57
f 45 57 58
f 45 58 59
f 45 59 55
f 46 48 49
f 46 49 47
f 48 60 49
f 48 55 60
f 49 61 51
f 49 51 50
f 49 60 61
f 51 61 52
f 52 61 62
f 55 59 63
f 55 63 62
f 55 62 61
f 55 61 60

