# https://github.com/mikedh/trimesh
v -0.01098907 -0.01825721 -0.00994992
v -0.01098907 -0.01825341 -0.01031190
v -0.00721378 -0.01750545 -0.01076855
v -0.00721378 -0.01750545 -0.00901992
v -0.00721378 -0.01747508 -0.00235117
v -0.00721378 -0.01738016 0.01610134
v -0.01098907 -0.01821924 -0.00446735
v -0.01136896 -0.00619873 0.01755482
v -0.01136896 -0.00619873 -0.00894474
v -0.01098907 -0.01824392 -0.01072121
v -0.01098907 -0.01475281 -0.01076855
v -0.00721378 -0.01413394 -0.01076855
v -0.00721378 -0.01737446 0.01632966
v -0.01098907 -0.01802751 0.01615981
v -0.01098907 -0.01743142 0.01741838
v -0.01098907 -0.01716185 0.01747407
v -0.01098907 -0.01248045 0.01767733
v -0.01112004 -0.00619873 0.01767733
v -0.01136896 -0.00018277 0.01747128
v -0.01098907 -0.01801232 0.01647445
v -0.01098907 -0.01792879 0.01683643
v -0.01098907 -0.01780160 0.01709538
v -0.01098907 -0.01761556 0.01728473
v -0.01136896 0.00113660 -0.00865237
v -0.01091871 0.00113660 -0.00841569
v -0.01014958 0.00113660 -0.00799246
v -0.00944105 0.00113660 -0.00757757
v -0.00891677 0.00113660 -0.00723787
v -0.00721378 0.00113660 -0.00604335
v -0.00721378 -0.01729473 0.01681972
v -0.00723412 -0.01734219 0.01659418
v -0.00721378 -0.01672142 0.01739332
v -0.00829040 -0.01701377 0.01737383
v -0.00721378 -0.01646324 0.01744622
v -0.00721378 -0.01443578 0.01767733
v -0.00776694 -0.01435795 0.01767733
v -0.00811673 -0.01425733 0.01767733
v -0.00884966 -0.01389664 0.01767733
v -0.00952321 -0.01355493 0.01767733
v -0.01027200 -0.01315627 0.01767733
v -0.01065759 -0.01282975 0.01767733
v -0.01101510 -0.00596523 0.01767733
v -0.00962326 0.00113660 0.01763278
v -0.01005521 0.00113660 0.01761051
v -0.01044202 0.00113660 0.01756874
v -0.01136896 0.00113660 0.01745179
v -0.00995028 -0.01771238 0.01695059
v -0.01015934 -0.01772377 0.01699793
v -0.00721378 -0.01712578 0.01713715
v -0.00721378 -0.01695113 0.01727637
v -0.00721378 0.00113660 0.01754925
v -0.00721378 -0.01720741 0.01699236
v -0.00721378 -0.00345368 0.01767733
v -0.01063806 -0.00527612 0.01767733
v -0.00922751 0.00113660 0.01763557
v -0.01031064 -0.00486986 0.01767733
v -0.00997265 -0.00450727 0.01767733
v -0.00741877 0.00113660 0.01757988
v -0.00743708 -0.00349164 0.01767733
v -0.00813259 0.00113660 0.01762164
v -0.00850394 0.00113660 0.01763000
v -0.00957974 -0.00418455 0.01767733
v -0.00922955 -0.00406875 0.01767733
f 1 2 3
f 1 3 4
f 1 4 5
f 1 5 6
f 1 6 7
f 1 7 8
f 1 8 9
f 1 9 2
f 2 9 10
f 2 10 3
f 3 11 12
f 3 12 29
f 3 29 51
f 3 51 53
f 3 53 35
f 3 35 34
f 3 34 32
f 3 32 50
f 3 50 49
f 3 49 52
f 3 52 30
f 3 30 13
f 3 13 6
f 3 6 5
f 3 5 4
f 3 10 11
f 6 13 14
f 6 14 7
f 7 14 8
f 8 15 16
f 8 16 17
f 8 17 18
f 8 18 19
f 8 19 46
f 8 46 24
f 8 24 9
f 8 14 20
f 8 20 21
f 8 21 22
f 8 22 23
f 8 23 15
f 9 24 11
f 9 11 10
f 11 24 12
f 12 24 25
f 12 25 26
f 12 26 27
f 12 27 28
f 12 28 29
f 13 30 31
f 13 31 20
f 13 20 14
f 15 32 16
f 15 23 33
f 15 33 32
f 16 32 34
f 16 34 35
f 16 35 36
f 16 36 37
f 16 37 38
f 16 38 39
f 16 39 40
f 16 40 41
f 16 41 17
f 17 41 40
f 17 40 39
f 17 39 38
f 17 38 37
f 17 37 36
f 17 36 35
f 17 35 53
f 17 53 59
f 17 59 63
f 17 63 62
f 17 62 57
f 17 57 56
f 17 56 54
f 17 54 42
f 17 42 18
f 18 42 43
f 18 43 44
f 18 44 45
f 18 45 46
f 18 46 19
f 20 31 30
f 20 30 21
f 21 30 47
f 21 47 48
f 21 48 22
f 22 48 49
f 22 49 23
f 23 49 50
f 23 50 33
f 24 46 45
f 24 45 44
f 24 44 43
f 24 43 55
f 24 55 61
f 24 61 60
f 24 60 58
f 24 58 51
f 24 51 29
f 24 29 28
f 24 28 27
f 24 27 26
f 24 26 25
f 30 52 47
f 32 33 50
f 42 54 43
f 43 54 56
f 43 56 57
f 43 57 55
f 47 52 48
f 48 52 49
f 51 58 53
f 53 55 59
f 53 58 60
f 53 60 61
f 53 61 55
f 55 57 62
f 55 62 63
f 55 63 59

