# https://github.com/mikedh/trimesh
v -0.01201256 -0.00959258 0.01767733
v -0.01174763 -0.00977232 0.02044419
v -0.01147754 -0.00959258 0.02133283
v -0.00919843 -0.00959258 0.01767733
v -0.01175609 -0.01083183 0.01767733
v -0.01169455 -0.00977232 0.02080598
v -0.01162973 -0.01033907 0.02043706
v -0.01157477 -0.01029544 0.02094610
v -0.01157947 -0.00995160 0.02117410
v -0.01135964 -0.01013229 0.02148918
v -0.01103600 -0.00995160 0.02165187
v -0.01085609 -0.00959258 0.02159289
v -0.00721384 -0.01154608 0.01767733
v -0.00986027 -0.00959258 0.02099795
v -0.00721384 -0.01200043 0.02080281
v -0.00721384 -0.01189988 0.02017384
v -0.01138641 -0.01174480 0.01767733
v -0.01148599 -0.01067533 0.02080598
v -0.01136668 -0.01067533 0.02130908
v -0.01100922 -0.01068671 0.02164553
v -0.01081147 -0.01033528 0.02169303
v -0.01067384 -0.00995160 0.02164593
v -0.01019754 -0.00959258 0.02146899
v -0.00721384 -0.01443721 0.01767733
v -0.00721384 -0.01219867 0.02127781
v -0.01109941 -0.01176045 0.02008240
v -0.01121966 -0.01140807 0.02044419
v -0.01133709 -0.01103719 0.02080598
v -0.01100593 -0.01245904 0.01767733
v -0.01119476 -0.01104430 0.02132016
v -0.01079362 -0.01145455 0.02146306
v -0.01067384 -0.01103719 0.02167047
v -0.00878179 -0.01301346 0.02172114
v -0.00721384 -0.01302626 0.02165701
v -0.00721384 -0.01248323 0.02153351
v -0.00731624 -0.01399899 0.02112858
v -0.00736744 -0.01408483 0.02064725
v -0.00768310 -0.01409004 0.02037096
v -0.00794145 -0.01430915 0.01767733
v -0.01103553 -0.01176045 0.02044419
v -0.01085468 -0.01213275 0.02008240
v -0.01114169 -0.01135210 0.02099479
v -0.01065787 -0.01283229 0.01767733
v -0.01094252 -0.01176756 0.02077827
v -0.00959065 -0.01301820 0.02122437
v -0.00918622 -0.01326387 0.02135816
v -0.00886587 -0.01344836 0.02141912
v -0.00778033 -0.01356883 0.02157785
v -0.00731624 -0.01371016 0.02154024
v -0.00778033 -0.01380738 0.02141674
v -0.00778033 -0.01391077 0.02116777
v -0.00778033 -0.01399804 0.02080598
v -0.00814202 -0.01391314 0.02062508
v -0.00886587 -0.01361151 0.02080598
v -0.00884943 -0.01389891 0.01767733
v -0.01080020 -0.01206967 0.02049288
v -0.01059352 -0.01239881 0.02008240
v -0.01027222 -0.01315716 0.01767733
v -0.00972969 -0.01305330 0.02084675
v -0.00925292 -0.01340283 0.02080598
v -0.00886587 -0.01355175 0.02116777
v -0.00823549 -0.01366747 0.02140012
v -0.00847599 -0.01374383 0.02096352
v -0.00952442 -0.01355507 0.01767733
f 1 2 3
f 1 3 12
f 1 12 23
f 1 23 14
f 1 14 4
f 1 4 13
f 1 13 24
f 1 24 39
f 1 39 55
f 1 55 64
f 1 64 58
f 1 58 43
f 1 43 29
f 1 29 17
f 1 17 5
f 1 5 2
f 2 6 3
f 2 5 7
f 2 7 8
f 2 8 6
f 3 6 9
f 3 9 10
f 3 10 11
f 3 11 12
f 4 14 15
f 4 15 16
f 4 16 13
f 5 17 18
f 5 18 7
f 6 8 9
f 7 18 8
f 8 18 19
f 8 19 9
f 9 19 10
f 10 19 20
f 10 20 11
f 11 20 21
f 11 21 22
f 11 22 12
f 12 22 23
f 13 16 15
f 13 15 25
f 13 25 35
f 13 35 34
f 13 34 24
f 14 23 25
f 14 25 15
f 17 26 27
f 17 27 28
f 17 28 18
f 17 29 26
f 18 28 19
f 19 28 30
f 19 30 20
f 20 30 31
f 20 31 32
f 20 32 21
f 21 32 33
f 21 33 34
f 21 34 22
f 22 34 35
f 22 35 23
f 23 35 25
f 24 34 36
f 24 36 37
f 24 37 38
f 24 38 39
f 26 40 27
f 26 29 41
f 26 41 40
f 27 42 28
f 27 40 42
f 28 42 30
f 29 43 41
f 30 42 44
f 30 44 31
f 31 44 45
f 31 45 46
f 31 46 33
f 31 33 32
f 33 46 47
f 33 47 48
f 33 48 49
f 33 49 34
f 34 49 36
f 36 49 50
f 36 50 51
f 36 51 52
f 36 52 37
f 37 52 38
f 38 52 53
f 38 53 39
f 39 53 54
f 39 54 55
f 40 41 56
f 40 56 44
f 40 44 42
f 41 57 56
f 41 43 57
f 43 58 59
f 43 59 57
f 44 56 45
f 45 56 59
f 45 59 46
f 46 59 60
f 46 60 61
f 46 61 47
f 47 61 62
f 47 62 50
f 47 50 48
f 48 50 49
f 50 62 51
f 51 62 61
f 51 61 63
f 51 63 52
f 52 63 53
f 53 63 54
f 54 64 55
f 54 63 61
f 54 61 60
f 54 60 58
f 54 58 64
f 56 57 59
f 58 60 59

