# https://github.com/mikedh/trimesh
v -0.01265516 -0.01846472 0.00361311
v -0.01266520 -0.01845129 0.00476030
v -0.01284644 -0.01834767 0.01284075
v -0.01284644 -0.01840715 0.00523922
v -0.01270312 -0.01842442 -0.01003902
v -0.01199992 -0.01845321 -0.01075184
v -0.01193467 -0.01845704 -0.00985803
v -0.01176068 -0.01820183 0.01610134
v -0.01266576 -0.01832080 0.01501262
v -0.01336450 -0.01810397 0.01456989
v -0.01288771 -0.01838605 0.00343769
v -0.01281298 -0.01836878 -0.01074906
v -0.01339573 -0.01790825 -0.01076855
v -0.01099111 -0.01475553 -0.01076855
v -0.01123927 -0.01830929 -0.01042328
v -0.01139932 -0.01831505 -0.00452304
v -0.01107476 -0.01804257 0.01629068
v -0.01169097 -0.01811357 0.01663873
v -0.01253025 -0.01827859 0.01596211
v -0.01101453 -0.01822870 -0.00452304
v -0.01325074 -0.01806943 0.01555559
v -0.01291392 -0.01808670 0.01666379
v -0.01341469 -0.01771636 0.01662760
v -0.01376992 -0.01735945 0.01592313
v -0.01380115 -0.01736137 0.01528550
v -0.01367958 -0.01754750 0.00451527
v -0.01333272 -0.01812124 0.00469625
v -0.01371527 -0.01720402 -0.01076855
v -0.01128054 -0.00940763 -0.01076855
v -0.01137088 0.00113468 -0.00865237
v -0.01099111 -0.00645448 -0.00871084
v -0.01100673 -0.01245672 0.01767733
v -0.01120414 -0.01726542 0.01745179
v -0.01128277 -0.01783917 0.01708425
v -0.01218896 -0.01781614 0.01727637
v -0.01275164 -0.01739591 0.01740167
v -0.01360151 -0.01715029 0.01689490
v -0.01395785 -0.01664371 0.01600667
v -0.01392941 -0.01682408 0.00994772
v -0.01384632 -0.01718483 0.01103086
v -0.01381565 -0.01695648 -0.00958794
v -0.01655152 0.00113468 -0.01076855
v -0.01381621 0.00113468 -0.01076855
v -0.01137088 0.00113468 0.01745179
v -0.01119745 -0.00629521 0.01767733
v -0.01138705 -0.01174290 0.01767733
v -0.01172220 -0.01098878 0.01767733
v -0.01216833 -0.00901809 0.01767733
v -0.01561744 0.00113468 0.01744065
v -0.01337120 -0.01664371 0.01730700
v -0.01384576 -0.01619085 0.01691996
v -0.01447648 -0.01340656 0.01594262
v -0.01640988 -0.00072663 0.01591756
v -0.01660729 0.00113468 -0.00028233
v -0.01465437 0.00113468 0.01746850
v -0.01188727 -0.00731797 0.01767733
v -0.01220513 -0.00832538 0.01767733
v -0.01641490 0.00113468 0.01699793
v -0.01601505 -0.00025459 0.01724296
v -0.01592193 -0.00273953 0.01700071
v -0.01628106 -0.00143853 0.01626005
v -0.01629054 -0.00150186 0.01602059
v -0.01668759 0.00113468 0.01547484
v -0.01665971 0.00112508 0.01627676
f 1 2 3
f 1 3 4
f 1 4 5
f 1 5 6
f 1 6 7
f 1 7 8
f 1 8 2
f 2 8 9
f 2 9 3
f 3 9 10
f 3 10 4
f 4 11 5
f 4 10 11
f 5 12 6
f 5 11 12
f 6 12 13
f 6 13 14
f 6 14 15
f 6 15 7
f 7 15 16
f 7 16 8
f 8 17 18
f 8 18 19
f 8 19 9
f 8 16 20
f 8 20 17
f 9 21 10
f 9 19 22
f 9 22 21
f 10 21 23
f 10 23 24
f 10 24 25
f 10 25 26
f 10 26 27
f 10 27 11
f 11 27 12
f 12 27 13
f 13 28 42
f 13 42 43
f 13 43 29
f 13 29 14
f 13 27 26
f 13 26 28
f 14 29 30
f 14 30 31
f 14 31 32
f 14 32 20
f 14 20 15
f 15 20 16
f 17 32 33
f 17 33 34
f 17 34 18
f 17 20 32
f 18 22 19
f 18 34 35
f 18 35 22
f 21 22 23
f 22 35 36
f 22 36 23
f 23 36 37
f 23 37 24
f 24 37 38
f 24 38 25
f 25 39 40
f 25 40 26
f 25 38 39
f 26 40 41
f 26 41 28
f 28 41 42
f 29 43 30
f 30 43 42
f 30 42 54
f 30 54 63
f 30 63 58
f 30 58 49
f 30 49 55
f 30 55 44
f 30 44 31
f 31 44 32
f 32 44 45
f 32 45 56
f 32 56 57
f 32 57 48
f 32 48 47
f 32 47 46
f 32 46 36
f 32 36 33
f 33 36 35
f 33 35 34
f 36 46 47
f 36 47 48
f 36 48 49
f 36 49 50
f 36 50 37
f 37 51 38
f 37 50 51
f 38 52 39
f 38 51 52
f 39 52 53
f 39 53 41
f 39 41 40
f 41 53 54
f 41 54 42
f 44 55 45
f 45 55 56
f 48 57 49
f 49 58 59
f 49 59 50
f 49 57 56
f 49 56 55
f 50 59 60
f 50 60 51
f 51 60 61
f 51 61 52
f 52 61 62
f 52 62 53
f 53 63 54
f 53 62 64
f 53 64 63
f 58 63 64
f 58 64 60
f 58 60 59
f 60 64 61
f 61 64 62

