# https://github.com/mikedh/trimesh
v -0.00775289 0.01524396 -0.01067438
v -0.00775289 0.01524396 -0.01075189
v -0.00777417 0.01524134 -0.01075189
v -0.00775289 0.01524003 -0.00834492
v -0.00775289 0.01237958 -0.01075189
v -0.01476732 0.01422680 -0.01075189
v -0.01476732 0.01422811 -0.01056199
v -0.01476732 0.01422942 -0.01020010
v -0.01476732 0.01423008 -0.00958893
v -0.00775289 0.00856216 -0.00834492
v -0.01476732 0.01422419 -0.00834492
v -0.00932401 0.01115050 -0.01075189
v -0.01476732 0.01151680 -0.01075189
v -0.00778035 0.00856413 -0.00834492
v -0.00995095 0.01091306 -0.01075189
v -0.00966666 0.01097520 -0.01075189
v -0.00958907 0.01099678 -0.01075189
v -0.00937345 0.01111976 -0.01075189
v -0.01476732 0.01100267 -0.00834492
v -0.01349971 0.01044405 -0.00834492
v -0.00814223 0.00861515 -0.00834492
v -0.00844781 0.00867925 -0.00834492
v -0.00864145 0.00872308 -0.00834492
f 1 2 3
f 1 3 4
f 1 4 10
f 1 10 5
f 1 5 2
f 2 5 12
f 2 12 18
f 2 18 17
f 2 17 16
f 2 16 15
f 2 15 13
f 2 13 6
f 2 6 3
f 3 6 7
f 3 7 8
f 3 8 9
f 3 9 4
f 4 9 11
f 4 11 19
f 4 19 20
f 4 20 23
f 4 23 22
f 4 22 21
f 4 21 14
f 4 14 10
f 5 10 12
f 6 13 19
f 6 19 11
f 6 11 9
f 6 9 8
f 6 8 7
f 10 14 15
f 10 15 16
f 10 16 17
f 10 17 18
f 10 18 12
f 13 20 19
f 13 15 14
f 13 14 21
f 13 21 22
f 13 22 23
f 13 23 20

