# https://github.com/mikedh/trimesh
v 0.01021221 0.01305649 0.01796516
v 0.01021221 0.01713833 0.01748780
v 0.00953013 0.01306497 0.02157943
v 0.00368082 0.01305899 0.02170303
v -0.00034342 0.01305649 0.01749633
v 0.01021221 0.01305649 -0.00825963
v 0.01021221 0.01785484 0.01707864
v 0.00764616 0.01372617 0.02173287
v 0.00422648 0.01306845 0.02177123
v 0.00468637 0.01342073 0.02172434
v -0.00034342 0.01588966 0.01735568
v -0.00034342 0.01529722 0.01751764
v -0.00034342 0.01305649 -0.00580892
v 0.00578906 0.01305649 -0.01004972
v 0.00578802 0.01338834 -0.01848871
v 0.00578389 0.01354331 -0.02007848
v 0.00605672 0.01373763 -0.02060272
v 0.01021221 0.01565248 -0.02100336
v 0.00792622 0.01773625 0.01655440
v 0.00226190 0.01674818 0.01694651
v 0.00678323 0.01403460 0.02154960
v 0.01021221 0.01810547 0.01626884
v 0.00524650 0.01383230 0.02145583
v -0.00030311 0.01638594 0.01674193
v -0.00034342 0.01647214 0.01491349
v 0.00050091 0.01305649 -0.00770982
v -0.00034342 0.01393644 -0.02122499
v 0.00181649 0.01305649 -0.00870289
v 0.00116852 0.01305649 -0.00840454
v 0.00602571 0.01417561 -0.02110991
v 0.01021221 0.01598035 -0.02146366
v 0.00289644 0.01698586 0.01591508
v 0.00199114 0.01681694 0.01646063
v 0.01021221 0.01813038 0.01555707
v 0.00904545 0.01794752 0.01573607
v -0.00026177 0.01647812 0.01613671
v -0.00026177 0.01648609 0.01437220
v -0.00030311 0.01647961 0.01374567
v -0.00034342 0.01641035 -0.01945194
v -0.00034342 0.01443969 -0.02167251
v 0.00557307 0.01476756 -0.02145940
v 0.00868271 0.01573968 -0.02155317
v 0.00940715 0.01610143 -0.02161710
v 0.00977299 0.01679901 -0.02162988
v 0.00981846 0.01773077 -0.02120794
v 0.01021221 0.01802625 -0.02063255
v 0.01021221 0.01814683 -0.01881263
v 0.00105794 0.01664952 -0.01913229
v 0.01019980 0.01810946 -0.01986111
v -0.00030311 0.01638245 -0.02024470
v -0.00034342 0.01520304 -0.02172791
v 0.00040790 0.01480144 -0.02174496
v 0.00182269 0.01483432 -0.02170660
v 0.00617040 0.01566494 -0.02170660
v 0.00868271 0.01610143 -0.02166398
v 0.00686901 0.01614777 -0.02171939
v 0.00117678 0.01549055 -0.02177054
v 0.00038620 0.01570979 -0.02165120
v 0.00882635 0.01773625 -0.02098631
v 0.00108274 0.01628379 -0.02134432
v 0.00408697 0.01701874 -0.02077320
v 0.00797479 0.01772778 -0.02022765
v -0.00024524 0.01626237 -0.02095647
v -0.00026177 0.01586276 -0.02148924
f 1 2 3
f 1 3 4
f 1 4 5
f 1 5 13
f 1 13 26
f 1 26 29
f 1 29 28
f 1 28 14
f 1 14 6
f 1 6 18
f 1 18 31
f 1 31 46
f 1 46 47
f 1 47 34
f 1 34 22
f 1 22 7
f 1 7 2
f 2 7 3
f 3 7 8
f 3 8 9
f 3 9 4
f 4 9 10
f 4 10 11
f 4 11 12
f 4 12 5
f 5 12 11
f 5 11 25
f 5 25 39
f 5 39 51
f 5 51 40
f 5 40 27
f 5 27 13
f 6 14 15
f 6 15 16
f 6 16 17
f 6 17 18
f 7 19 20
f 7 20 21
f 7 21 8
f 7 22 19
f 8 21 10
f 8 10 9
f 10 21 23
f 10 23 11
f 11 23 24
f 11 24 25
f 13 27 26
f 14 28 15
f 15 28 29
f 15 29 27
f 15 27 16
f 16 27 17
f 17 27 30
f 17 30 31
f 17 31 18
f 19 22 32
f 19 32 33
f 19 33 20
f 20 33 24
f 20 24 23
f 20 23 21
f 22 34 35
f 22 35 32
f 24 33 36
f 24 36 25
f 25 36 32
f 25 32 37
f 25 37 38
f 25 38 39
f 26 27 29
f 27 40 30
f 30 40 41
f 30 41 42
f 30 42 31
f 31 42 43
f 31 43 44
f 31 44 45
f 31 45 46
f 32 36 33
f 32 35 34
f 32 34 47
f 32 47 38
f 32 38 37
f 38 47 48
f 38 48 39
f 39 48 49
f 39 49 50
f 39 50 51
f 40 51 52
f 40 52 53
f 40 53 41
f 41 53 54
f 41 54 42
f 42 54 43
f 43 54 55
f 43 55 44
f 44 55 56
f 44 56 57
f 44 57 58
f 44 58 45
f 45 59 46
f 45 58 60
f 45 60 59
f 46 59 61
f 46 61 62
f 46 62 49
f 46 49 47
f 47 49 48
f 49 62 50
f 50 62 61
f 50 61 63
f 50 63 64
f 50 64 51
f 51 57 52
f 51 64 58
f 51 58 57
f 52 57 54
f 52 54 53
f 54 57 56
f 54 56 55
f 58 64 60
f 59 63 61
f 59 60 63
f 60 64 63

