# https://github.com/mikedh/trimesh
v -0.00002560 0.04553649 0.03762853
v -0.00841216 0.04553649 0.03788300
v -0.01385318 0.04438168 0.03792215
v -0.01385318 0.04361845 0.03779911
v -0.01385318 0.04326603 0.03769564
v -0.00002560 0.04505835 0.03746355
v -0.00002560 0.04553649 0.03448540
v -0.00841216 0.04553649 0.03460564
v -0.01385318 0.04456304 0.03433439
v -0.01587999 0.04209474 0.03115211
v -0.01587844 0.03886870 0.03114931
v -0.01385318 0.04262577 0.03743278
v -0.00002560 0.04431505 0.03709442
v -0.00002560 0.04504186 0.03115211
v -0.00002871 0.04461044 0.00935990
v -0.00043065 0.04553649 0.03448540
v -0.00060136 0.04460839 0.00935990
v -0.00128886 0.04460151 0.00935990
v -0.00214707 0.04456511 0.00935990
v -0.00300528 0.04449915 0.00935990
v -0.00420492 0.04439611 0.00935990
v -0.00489242 0.04433153 0.00935990
v -0.00557991 0.04425734 0.00935990
v -0.00643812 0.04413162 0.00935990
v -0.00746394 0.04395438 0.00935990
v -0.00845407 0.04377989 0.00935990
v -0.00918036 0.04362875 0.00935990
v -0.01003857 0.04343709 0.00935990
v -0.01089678 0.04323031 0.00935990
v -0.01163394 0.04303384 0.00935990
v -0.01202813 0.04291773 0.00935990
v -0.01240990 0.04280507 0.00935990
v -0.01347297 0.04247395 0.00935990
v -0.01425979 0.04221015 0.00935990
v -0.01507765 0.04192712 0.00935990
v -0.01587999 0.04162759 0.00935990
v -0.01587999 0.03882336 0.02960291
v -0.00002560 0.04215244 0.03218398
v -0.00002560 0.04219916 0.03304246
v -0.00002560 0.04232968 0.03390095
v -0.01385318 0.03992114 0.03401281
v -0.01385318 0.04023578 0.03496917
v -0.01385318 0.04062667 0.03570742
v -0.01385318 0.04101138 0.03623873
v -0.01385318 0.04152180 0.03674208
v -0.01385318 0.04187422 0.03703570
v -0.01587844 0.03883778 0.03046420
v -0.00002560 0.04388637 0.03680360
v -0.00002871 0.04172515 0.00939066
v -0.01587999 0.03851834 0.00935990
v -0.01587999 0.03863650 0.01759804
v -0.00002871 0.04175606 0.01159141
v -0.00002716 0.04211191 0.03123880
v -0.00002871 0.04205901 0.02962808
v -0.00002871 0.04194085 0.02274618
v -0.00002871 0.04174919 0.01113560
v -0.00002871 0.04173133 0.00987443
v -0.00002560 0.04243273 0.03430363
v -0.00002560 0.04255089 0.03475665
v -0.00002560 0.04285934 0.03548650
v -0.00002560 0.04308192 0.03581368
v -0.00002560 0.04351059 0.03637016
v -0.00002871 0.04207001 0.03006152
v -0.00002871 0.04208237 0.03046700
f 1 2 3
f 1 3 4
f 1 4 5
f 1 5 6
f 1 6 13
f 1 13 48
f 1 48 62
f 1 62 61
f 1 61 60
f 1 60 59
f 1 59 58
f 1 58 40
f 1 40 39
f 1 39 38
f 1 38 14
f 1 14 7
f 1 7 16
f 1 16 8
f 1 8 2
f 2 8 9
f 2 9 3
f 3 9 10
f 3 10 11
f 3 11 4
f 4 11 5
f 5 11 12
f 5 12 6
f 6 12 13
f 7 14 15
f 7 15 16
f 8 16 15
f 8 15 17
f 8 17 18
f 8 18 19
f 8 19 20
f 8 20 21
f 8 21 22
f 8 22 23
f 8 23 24
f 8 24 25
f 8 25 9
f 9 25 26
f 9 26 27
f 9 27 28
f 9 28 29
f 9 29 30
f 9 30 31
f 9 31 32
f 9 32 33
f 9 33 34
f 9 34 35
f 9 35 36
f 9 36 10
f 10 36 50
f 10 50 51
f 10 51 37
f 10 37 11
f 11 38 39
f 11 39 40
f 11 40 41
f 11 41 42
f 11 42 43
f 11 43 44
f 11 44 45
f 11 45 46
f 11 46 12
f 11 37 47
f 11 47 38
f 12 46 13
f 13 46 48
f 14 38 49
f 14 49 15
f 15 49 50
f 15 50 36
f 15 36 35
f 15 35 34
f 15 34 33
f 15 33 32
f 15 32 31
f 15 31 30
f 15 30 29
f 15 29 28
f 15 28 27
f 15 27 26
f 15 26 25
f 15 25 24
f 15 24 23
f 15 23 22
f 15 22 21
f 15 21 20
f 15 20 19
f 15 19 18
f 15 18 17
f 37 51 52
f 37 52 47
f 38 47 53
f 38 53 54
f 38 54 55
f 38 55 52
f 38 52 56
f 38 56 57
f 38 57 49
f 40 58 41
f 41 58 59
f 41 59 42
f 42 59 60
f 42 60 43
f 43 60 61
f 43 61 44
f 44 61 62
f 44 62 48
f 44 48 45
f 45 48 46
f 47 52 55
f 47 55 54
f 47 54 63
f 47 63 64
f 47 64 53
f 49 57 50
f 50 57 56
f 50 56 51
f 51 56 52
f 53 64 63
f 53 63 54

