# https://github.com/mikedh/trimesh
v 0.03405998 -0.02443208 0.03123992
v 0.03759946 -0.02443208 0.03115126
v 0.03408499 -0.02443208 0.03218768
v 0.04071200 -0.00990864 0.03218701
v 0.04068604 -0.00990864 0.03115059
v 0.03877255 -0.01591790 0.03115059
v 0.03781196 -0.02410084 0.03115126
v 0.04021296 -0.02443066 0.03354449
v 0.03773023 -0.02443208 0.03354248
v 0.04191587 -0.01591505 0.03115059
v 0.03417633 -0.02443208 0.03304476
v 0.04073892 -0.00990864 0.03302528
v 0.04388320 -0.00990864 0.03391124
v 0.04370627 -0.00995555 0.03115059
v 0.03812735 -0.02360184 0.03115126
v 0.03851101 -0.02297490 0.03115126
v 0.03872928 -0.02258964 0.03115126
v 0.03968314 -0.02086235 0.03115126
v 0.04004180 -0.02016717 0.03115126
v 0.04029373 -0.01964401 0.03115126
v 0.04056488 -0.01906398 0.03115126
v 0.04084854 -0.01845125 0.03115126
v 0.04112162 -0.01786127 0.03115126
v 0.04129566 -0.01747601 0.03115126
v 0.04160144 -0.01673818 0.03115126
v 0.04388320 -0.01591790 0.03400595
v 0.04211587 -0.02028090 0.03396967
v 0.04211587 -0.02028090 0.03798101
v 0.04021296 -0.02429276 0.03801191
v 0.03992257 -0.02443066 0.03800922
v 0.03908025 -0.02443066 0.03792325
v 0.04208413 -0.01546582 0.03115059
v 0.03831004 -0.02443066 0.03780705
v 0.03791389 -0.02443066 0.03772980
v 0.03752542 -0.02443066 0.03756524
v 0.03656194 -0.02443066 0.03706819
v 0.03617444 -0.02443066 0.03679615
v 0.03573885 -0.02443066 0.03641262
v 0.03526673 -0.02443066 0.03593571
v 0.03502731 -0.02443066 0.03560994
v 0.03459653 -0.02443066 0.03483750
v 0.03435807 -0.02443066 0.03402945
v 0.03425806 -0.02443066 0.03354248
v 0.04083412 -0.00990864 0.03391796
v 0.04388320 -0.00991006 0.03769084
v 0.04350916 -0.01073034 0.03115059
v 0.04229664 -0.01484314 0.03115059
v 0.04252453 -0.01416360 0.03115059
v 0.04293223 -0.01293530 0.03115059
v 0.04306588 -0.01244626 0.03115059
v 0.04328992 -0.01158759 0.03115059
v 0.04388320 -0.01591790 0.03799042
v 0.03990814 -0.02360184 0.03797094
v 0.04388320 -0.01533929 0.03798504
v 0.04388320 -0.01448204 0.03795751
v 0.04388320 -0.01362764 0.03791586
v 0.04388320 -0.01050857 0.03774525
v 0.04332550 -0.00991006 0.03741612
v 0.04270722 -0.00991006 0.03703326
v 0.04228702 -0.00991006 0.03667726
v 0.04188221 -0.00991006 0.03623529
v 0.04142355 -0.00991006 0.03554949
v 0.04120143 -0.00991006 0.03516394
v 0.04106393 -0.00991006 0.03478645
f 1 2 9
f 1 9 11
f 1 11 3
f 1 3 4
f 1 4 5
f 1 5 6
f 1 6 2
f 2 7 8
f 2 8 9
f 2 6 10
f 2 10 7
f 3 11 12
f 3 12 4
f 4 12 44
f 4 44 13
f 4 13 5
f 5 13 14
f 5 14 46
f 5 46 51
f 5 51 50
f 5 50 49
f 5 49 48
f 5 48 47
f 5 47 32
f 5 32 10
f 5 10 6
f 7 15 8
f 7 10 15
f 8 15 16
f 8 16 17
f 8 17 18
f 8 18 19
f 8 19 20
f 8 20 21
f 8 21 22
f 8 22 23
f 8 23 24
f 8 24 25
f 8 25 26
f 8 26 27
f 8 27 28
f 8 28 29
f 8 29 30
f 8 30 9
f 9 30 31
f 9 31 11
f 10 32 26
f 10 26 25
f 10 25 24
f 10 24 23
f 10 23 22
f 10 22 21
f 10 21 20
f 10 20 19
f 10 19 18
f 10 18 17
f 10 17 16
f 10 16 15
f 11 31 33
f 11 33 34
f 11 34 35
f 11 35 36
f 11 36 37
f 11 37 38
f 11 38 39
f 11 39 40
f 11 40 41
f 11 41 42
f 11 42 43
f 11 43 44
f 11 44 12
f 13 26 14
f 13 44 45
f 13 45 57
f 13 57 56
f 13 56 55
f 13 55 54
f 13 54 52
f 13 52 26
f 14 26 46
f 26 32 47
f 26 47 48
f 26 48 49
f 26 49 50
f 26 50 51
f 26 51 46
f 26 52 28
f 26 28 27
f 28 52 29
f 29 52 30
f 30 53 31
f 30 52 54
f 30 54 55
f 30 55 53
f 31 53 55
f 31 55 56
f 31 56 57
f 31 57 33
f 33 57 34
f 34 57 45
f 34 45 35
f 35 45 58
f 35 58 36
f 36 58 59
f 36 59 37
f 37 59 60
f 37 60 38
f 38 60 39
f 39 60 61
f 39 61 40
f 40 61 62
f 40 62 63
f 40 63 41
f 41 63 64
f 41 64 42
f 42 64 44
f 42 44 43
f 44 64 63
f 44 63 62
f 44 62 61
f 44 61 60
f 44 60 59
f 44 59 58
f 44 58 45

