# https://github.com/mikedh/trimesh
v -0.04346552 0.00045115 -0.02967590
v -0.04332517 0.00457763 -0.02955748
v -0.04027153 -0.00122974 -0.03295727
v -0.04346127 -0.00319199 -0.02945308
v -0.04330816 -0.00640227 -0.02911040
v -0.04259791 0.00971410 -0.02919112
v -0.03800894 0.01338609 -0.03309357
v -0.04010141 -0.00402882 -0.03295727
v -0.04261492 -0.00892001 -0.02973583
v -0.04099029 -0.00015484 -0.02815581
v -0.04183238 -0.01210144 -0.02975323
v -0.04089247 -0.01505923 -0.02953235
v -0.03948473 -0.01883222 -0.02898086
v -0.03636304 -0.02468288 -0.02838008
v -0.04121994 0.01415800 -0.02943907
v -0.04002911 0.01747650 -0.02933031
v -0.03553371 0.01121464 -0.03309357
v -0.02744028 -0.02961013 -0.03295679
v -0.02993678 -0.02708519 -0.03295679
v -0.03180809 -0.02481274 -0.03295727
v -0.03410045 -0.02160245 -0.03295727
v -0.03575061 -0.01875287 -0.03295727
v -0.03732846 -0.01534780 -0.03295727
v -0.03861287 -0.01170466 -0.03295727
v -0.03960381 -0.00765032 -0.03295727
v -0.03875747 0.01964074 -0.02978562
v -0.03648212 0.01713744 -0.03309357
v -0.02751258 0.03018059 -0.02860966
v -0.03507013 0.02598918 -0.02923075
v -0.03152739 -0.02664513 -0.02815581
v -0.00023394 -0.04134752 -0.02815629
v -0.03736249 -0.02225172 -0.02986053
v -0.03478518 -0.02599586 -0.03002197
v -0.03226741 -0.02936486 -0.02958068
v -0.02835892 -0.03313785 -0.02968170
v -0.02403364 -0.03636256 -0.02955555
v -0.02015917 -0.03880815 -0.02924766
v -0.02184335 0.03018059 -0.03309357
v -0.00002554 0.01045715 -0.03307472
v -0.01300990 -0.03826709 -0.03295679
v -0.01558721 -0.03729318 -0.03295679
v -0.01878545 -0.03578543 -0.03295679
v -0.02215807 -0.03377991 -0.03295679
v -0.02434410 -0.03220722 -0.03295679
v -0.03713283 0.02238211 -0.02997750
v -0.03422804 0.02124949 -0.03309357
v -0.00002554 0.02191319 -0.02924815
v -0.00003405 0.03018059 -0.03038060
v -0.03091497 0.03011566 -0.03059327
v -0.03323284 0.02802356 -0.02988760
v -0.00858254 -0.04308613 -0.02862416
v -0.00100372 -0.04351898 -0.02986634
v -0.00023394 -0.04094354 -0.03160828
v -0.00002554 -0.00014762 -0.03276249
v -0.00002554 -0.00014762 -0.02958697
v -0.01590618 -0.04052512 -0.02964932
v -0.02740625 0.02956017 -0.03309357
v -0.00002554 0.02191319 -0.03216557
v -0.00002554 0.01749814 -0.03272769
v -0.00002554 0.01362416 -0.03300174
v -0.00418070 -0.04331698 -0.03003550
v -0.00953521 -0.04201123 -0.03068994
v -0.01261863 -0.04166495 -0.02986440
v -0.03044714 0.02634267 -0.03309357
f 1 2 3
f 1 3 4
f 1 4 2
f 2 4 5
f 2 5 6
f 2 6 7
f 2 7 3
f 3 8 4
f 3 7 8
f 4 8 9
f 4 9 5
f 5 10 6
f 5 9 11
f 5 11 12
f 5 12 13
f 5 13 14
f 5 14 10
f 6 15 7
f 6 10 16
f 6 16 15
f 7 17 18
f 7 18 19
f 7 19 20
f 7 20 21
f 7 21 22
f 7 22 23
f 7 23 24
f 7 24 25
f 7 25 8
f 7 15 26
f 7 26 27
f 7 27 46
f 7 46 64
f 7 64 57
f 7 57 38
f 7 38 17
f 8 25 9
f 9 25 11
f 10 28 29
f 10 29 16
f 10 14 30
f 10 30 31
f 10 31 28
f 11 25 24
f 11 24 23
f 11 23 12
f 12 23 32
f 12 32 13
f 13 32 14
f 14 32 33
f 14 33 34
f 14 34 35
f 14 35 36
f 14 36 37
f 14 37 30
f 15 16 26
f 16 29 26
f 17 38 39
f 17 39 40
f 17 40 41
f 17 41 42
f 17 42 43
f 17 43 44
f 17 44 18
f 18 44 35
f 18 35 34
f 18 34 19
f 19 34 33
f 19 33 20
f 20 33 21
f 21 33 32
f 21 32 22
f 22 32 23
f 26 29 45
f 26 45 27
f 27 45 46
f 28 47 48
f 28 48 38
f 28 38 49
f 28 49 50
f 28 50 29
f 28 31 47
f 29 50 45
f 30 37 51
f 30 51 31
f 31 51 52
f 31 52 53
f 31 53 54
f 31 54 55
f 31 55 47
f 35 44 43
f 35 43 36
f 36 43 42
f 36 42 37
f 37 42 56
f 37 56 51
f 38 57 49
f 38 48 58
f 38 58 59
f 38 59 60
f 38 60 39
f 39 60 59
f 39 59 58
f 39 58 47
f 39 47 55
f 39 55 54
f 39 54 53
f 39 53 40
f 40 53 61
f 40 61 62
f 40 62 41
f 41 62 63
f 41 63 56
f 41 56 42
f 45 50 49
f 45 49 46
f 46 49 64
f 47 58 48
f 49 57 64
f 51 62 61
f 51 61 52
f 51 56 63
f 51 63 62
f 52 61 53

