# https://github.com/mikedh/trimesh
v -0.02876037 -0.03084632 0.03107185
v -0.02953729 -0.03084632 0.03107185
v -0.02879026 -0.03084632 0.03167105
v -0.01045796 -0.04088472 0.03120085
v -0.01752306 -0.03841207 0.03107185
v -0.02953729 -0.03398400 0.03107185
v -0.02953729 -0.03125273 0.03571632
v -0.02946632 -0.03084632 0.03492780
v -0.02882761 -0.03084632 0.03233613
v -0.01045796 -0.04095451 0.03305531
v -0.01045796 -0.04482564 0.03472182
v -0.01071942 -0.04373505 0.03107255
v -0.01755855 -0.04149228 0.03107185
v -0.02953729 -0.03705737 0.03374813
v -0.02830842 -0.03505408 0.03107185
v -0.02409699 -0.04190143 0.03199354
v -0.02953729 -0.03212301 0.03654993
v -0.01045796 -0.04275940 0.03702013
v -0.01045796 -0.04213679 0.03636961
v -0.01045796 -0.04164828 0.03564003
v -0.02916377 -0.03084632 0.03416146
v -0.01045796 -0.04122134 0.03469061
v -0.01045796 -0.04101882 0.03378419
v -0.02891912 -0.03084632 0.03314338
v -0.01045796 -0.04404156 0.03778161
v -0.01060363 -0.04482564 0.03797857
v -0.01390367 -0.04482564 0.03424746
v -0.01752306 -0.04395810 0.03355672
v -0.01171858 -0.04348464 0.03107255
v -0.01813377 -0.04124734 0.03107185
v -0.01257207 -0.04324243 0.03107255
v -0.01391861 -0.04284834 0.03107255
v -0.01513815 -0.04244056 0.03107255
v -0.01580861 -0.04219426 0.03107255
v -0.01673867 -0.04182753 0.03107255
v -0.02953729 -0.03705737 0.03810271
v -0.02780417 -0.03546732 0.03107185
v -0.01752306 -0.04395810 0.03809993
v -0.02384860 -0.04176322 0.03809993
v -0.02733914 -0.03583268 0.03107185
v -0.02662758 -0.03636772 0.03107185
v -0.02574981 -0.03700812 0.03107185
v -0.02453588 -0.03781272 0.03107255
v -0.02365064 -0.03838196 0.03107255
v -0.02301752 -0.03876921 0.03107255
v -0.02177744 -0.03947119 0.03107185
v -0.02102480 -0.03986665 0.03107185
v -0.02034313 -0.04021148 0.03107185
v -0.01970068 -0.04052621 0.03107185
v -0.01879489 -0.04094630 0.03107185
v -0.02953729 -0.03300972 0.03713387
v -0.01045796 -0.04339022 0.03744872
v -0.02953729 -0.03397990 0.03760823
v -0.02942710 -0.03458198 0.03778577
v -0.01158972 -0.04482564 0.03802295
v -0.02953729 -0.03561511 0.03799452
v -0.02874730 -0.03647719 0.03804237
v -0.02874730 -0.03705737 0.03809855
v -0.01390367 -0.04482564 0.03808260
v -0.02274485 -0.04176322 0.03815403
v -0.02384860 -0.04076568 0.03815680
v -0.02953729 -0.03647719 0.03807289
v -0.01245068 -0.04482564 0.03805000
v -0.01330604 -0.04482564 0.03807566
f 1 2 8
f 1 8 21
f 1 21 24
f 1 24 9
f 1 9 3
f 1 3 4
f 1 4 5
f 1 5 13
f 1 13 30
f 1 30 50
f 1 50 49
f 1 49 48
f 1 48 47
f 1 47 46
f 1 46 42
f 1 42 41
f 1 41 40
f 1 40 37
f 1 37 15
f 1 15 6
f 1 6 2
f 2 6 14
f 2 14 36
f 2 36 62
f 2 62 56
f 2 56 53
f 2 53 51
f 2 51 17
f 2 17 7
f 2 7 8
f 3 9 4
f 4 10 23
f 4 23 22
f 4 22 20
f 4 20 19
f 4 19 18
f 4 18 52
f 4 52 25
f 4 25 11
f 4 11 12
f 4 12 5
f 4 9 10
f 5 12 13
f 6 15 16
f 6 16 14
f 7 17 18
f 7 18 19
f 7 19 20
f 7 20 8
f 8 20 22
f 8 22 23
f 8 23 21
f 9 24 10
f 10 24 23
f 11 25 26
f 11 26 55
f 11 55 63
f 11 63 64
f 11 64 59
f 11 59 27
f 11 27 12
f 12 27 28
f 12 28 16
f 12 16 29
f 12 29 13
f 13 29 31
f 13 31 32
f 13 32 33
f 13 33 34
f 13 34 35
f 13 35 16
f 13 16 30
f 14 16 36
f 15 37 16
f 16 38 39
f 16 39 36
f 16 37 40
f 16 40 41
f 16 41 42
f 16 42 43
f 16 43 44
f 16 44 45
f 16 45 46
f 16 46 47
f 16 47 48
f 16 48 49
f 16 49 50
f 16 50 30
f 16 35 34
f 16 34 33
f 16 33 32
f 16 32 31
f 16 31 29
f 16 28 38
f 17 51 52
f 17 52 18
f 21 23 24
f 25 52 51
f 25 51 53
f 25 53 54
f 25 54 26
f 26 54 56
f 26 56 57
f 26 57 58
f 26 58 55
f 27 59 38
f 27 38 28
f 36 39 60
f 36 60 61
f 36 61 58
f 36 58 62
f 38 59 60
f 38 60 39
f 42 46 44
f 42 44 43
f 44 46 45
f 53 56 54
f 55 58 63
f 56 62 58
f 56 58 57
f 58 61 64
f 58 64 63
f 59 64 61
f 59 61 60

