# https://github.com/mikedh/trimesh
v 0.03865861 -0.01552293 0.00935857
v 0.04172323 -0.01552293 0.00935857
v 0.03881456 -0.01552293 0.02531756
v 0.04187798 0.00015327 0.02861346
v 0.04184413 0.00015327 0.02504023
v 0.04173895 0.00015327 0.01244755
v 0.04173653 0.00015327 0.01158997
v 0.04175466 0.00015327 0.00935857
v 0.04198618 -0.01484162 0.00935857
v 0.04207987 -0.01465288 0.01073240
v 0.04219048 -0.01515466 0.03114991
v 0.03892699 -0.01552293 0.03114991
v 0.03889617 -0.01552293 0.02960756
v 0.04191968 0.00015327 0.03114991
v 0.04189369 0.00015327 0.02960756
v 0.04469779 0.00015327 0.01845483
v 0.04457690 0.00011951 0.00935857
v 0.04245282 -0.01347287 0.00935857
v 0.04222977 -0.01416032 0.00961456
v 0.04252596 -0.01416032 0.03114991
v 0.04483319 -0.00013828 0.03114991
v 0.04479269 -0.00128760 0.02703271
v 0.04480538 -0.00013828 0.02703271
v 0.04456178 -0.00060169 0.00935857
v 0.04459201 -0.00128760 0.01244755
v 0.04277318 -0.01244477 0.00935857
v 0.04286325 -0.01314910 0.03114991
v 0.04481203 -0.00128760 0.03114991
v 0.04463613 -0.00178324 0.01642822
v 0.04479148 -0.00205791 0.03114991
v 0.04478302 -0.00214691 0.03046727
v 0.04477335 -0.00214691 0.02960756
v 0.04476367 -0.00214691 0.02874999
v 0.04475340 -0.00214691 0.02789241
v 0.04454546 -0.00128760 0.00935857
v 0.04451826 -0.00214691 0.00935857
v 0.04296480 -0.01177114 0.00935857
v 0.04309113 -0.01235577 0.03114991
v 0.04471109 -0.00300468 0.02874999
v 0.04445842 -0.00300468 0.00935857
v 0.04455876 -0.00214691 0.01244755
v 0.04474493 -0.00291568 0.03114991
v 0.04319691 -0.01089495 0.00935857
v 0.04331417 -0.01149647 0.03114991
v 0.04458536 -0.00442100 0.02789241
v 0.04428675 -0.00472176 0.00935857
v 0.04461256 -0.00437957 0.03114991
v 0.04459140 -0.00445323 0.02874999
v 0.04340122 -0.01004025 0.00935857
v 0.04375060 -0.00978553 0.03114991
v 0.04355112 -0.01057118 0.03114991
v 0.04443122 -0.00557953 0.02789241
v 0.04406431 -0.00660916 0.00935857
v 0.04419548 -0.00557953 0.00935857
v 0.04448139 -0.00549053 0.03114991
v 0.04362668 -0.00900908 0.00935857
v 0.04378082 -0.00862086 0.01416483
v 0.04392468 -0.00900908 0.03114991
v 0.04437138 -0.00626084 0.03114991
v 0.04396578 -0.00729814 0.00935857
v 0.04379170 -0.00824338 0.00935857
v 0.04408184 -0.00815285 0.03114991
v 0.04422873 -0.00720914 0.03114991
f 1 2 12
f 1 12 13
f 1 13 3
f 1 3 4
f 1 4 5
f 1 5 6
f 1 6 7
f 1 7 8
f 1 8 17
f 1 17 24
f 1 24 35
f 1 35 36
f 1 36 40
f 1 40 46
f 1 46 54
f 1 54 53
f 1 53 60
f 1 60 61
f 1 61 56
f 1 56 49
f 1 49 43
f 1 43 37
f 1 37 26
f 1 26 18
f 1 18 9
f 1 9 2
f 2 9 10
f 2 10 11
f 2 11 12
f 3 13 14
f 3 14 15
f 3 15 4
f 4 15 14
f 4 14 16
f 4 16 8
f 4 8 7
f 4 7 6
f 4 6 5
f 8 16 17
f 9 18 19
f 9 19 10
f 10 19 20
f 10 20 11
f 11 20 27
f 11 27 38
f 11 38 44
f 11 44 51
f 11 51 50
f 11 50 58
f 11 58 62
f 11 62 63
f 11 63 59
f 11 59 55
f 11 55 47
f 11 47 42
f 11 42 30
f 11 30 28
f 11 28 21
f 11 21 14
f 11 14 12
f 12 14 13
f 14 21 16
f 16 22 17
f 16 21 23
f 16 23 22
f 17 22 25
f 17 25 24
f 18 26 27
f 18 27 19
f 19 27 20
f 21 28 22
f 21 22 23
f 22 29 25
f 22 28 30
f 22 30 31
f 22 31 32
f 22 32 33
f 22 33 34
f 22 34 29
f 24 25 35
f 25 29 36
f 25 36 35
f 26 37 38
f 26 38 27
f 29 34 39
f 29 39 40
f 29 40 41
f 29 41 36
f 30 42 31
f 31 42 32
f 32 42 33
f 33 42 39
f 33 39 34
f 36 41 40
f 37 43 38
f 38 43 44
f 39 45 40
f 39 42 45
f 40 45 46
f 42 47 48
f 42 48 45
f 43 49 50
f 43 50 51
f 43 51 44
f 45 48 52
f 45 52 53
f 45 53 54
f 45 54 46
f 47 55 48
f 48 55 52
f 49 56 57
f 49 57 58
f 49 58 50
f 52 55 59
f 52 59 60
f 52 60 53
f 56 61 57
f 57 61 58
f 58 61 60
f 58 60 62
f 59 63 60
f 60 63 62

