# https://github.com/mikedh/trimesh
v 0.03463786 0.02816493 0.00935196
v 0.03360293 0.02947004 0.00935196
v 0.03180283 0.03224205 0.03389871
v 0.03078554 0.02919500 0.03396034
v 0.03078554 0.02893613 0.03268462
v 0.03078554 0.02877973 0.03065703
v 0.03078554 0.02812179 0.01201432
v 0.03078554 0.02810426 0.00935196
v 0.03430992 0.02816493 -0.00558070
v 0.03345483 0.02877704 -0.02188151
v 0.03058984 0.03359435 0.03416987
v 0.03252217 0.02973565 -0.02573947
v 0.02762788 0.03218542 0.03416987
v 0.02049448 0.03704992 0.03369533
v 0.01681847 0.03868266 0.03112541
v 0.01681847 0.03852491 0.02710721
v 0.02922169 0.02816493 -0.01458466
v 0.02916880 0.02816493 -0.01694505
v 0.02941211 0.02816493 -0.02879010
v 0.03345483 0.02862334 -0.02654681
v 0.03148372 0.03084526 -0.02531424
v 0.03091601 0.03134816 -0.02638658
v 0.02948087 0.03269371 -0.02573947
v 0.02948439 0.03461093 0.03416987
v 0.03257329 0.02957655 -0.02745892
v 0.02818853 0.03558707 0.03416987
v 0.02075189 0.04027090 0.03369533
v 0.01681847 0.04187802 0.03112541
v 0.01662630 0.03826335 0.00935196
v 0.01664393 0.03708902 -0.02879010
v 0.02936098 0.03259664 -0.02877161
v 0.03050698 0.03157466 -0.02876545
v 0.03319390 0.02879861 -0.02838951
v 0.03139733 0.03076167 -0.02789032
v 0.02999745 0.03215037 -0.02745892
v 0.02827669 0.03369007 -0.02661460
v 0.02870688 0.03343391 -0.02402620
v 0.02737928 0.03446802 -0.02573947
v 0.02630381 0.03528776 -0.02617088
v 0.02383374 0.03851682 0.03369533
v 0.02232808 0.03940667 0.03369533
v 0.02520541 0.03611154 -0.02573947
v 0.02139894 0.03850064 -0.02531424
v 0.02017184 0.03919230 -0.02445760
v 0.01979630 0.03933926 -0.02573947
v 0.01807554 0.04011989 -0.02638658
v 0.01662630 0.04079807 -0.02524644
v 0.01662630 0.04123355 -0.00246844
v 0.01662630 0.04143444 0.00935196
v 0.01664040 0.04073200 -0.02656530
v 0.01706178 0.04042730 -0.02827242
v 0.01884072 0.03960486 -0.02876545
v 0.02402944 0.03669668 -0.02876545
v 0.02565500 0.03555471 -0.02875928
v 0.02718887 0.03444779 -0.02827242
v 0.02841950 0.03344604 -0.02830323
v 0.02563737 0.03569627 -0.02745892
v 0.02382140 0.03704048 -0.02562854
v 0.02272301 0.03774697 -0.02488283
v 0.02382669 0.03693532 -0.02744043
v 0.02276532 0.03764720 -0.02660228
v 0.02252202 0.03768495 -0.02830323
v 0.02070429 0.03869075 -0.02832788
v 0.01974518 0.03926376 -0.02745892
f 1 2 3
f 1 3 4
f 1 4 5
f 1 5 6
f 1 6 7
f 1 7 8
f 1 8 9
f 1 9 2
f 2 9 10
f 2 10 3
f 3 11 4
f 3 10 12
f 3 12 11
f 4 11 13
f 4 13 14
f 4 14 15
f 4 15 5
f 5 15 6
f 6 15 16
f 6 16 17
f 6 17 7
f 7 17 8
f 8 17 18
f 8 18 19
f 8 19 9
f 9 19 20
f 9 20 10
f 10 20 12
f 11 21 22
f 11 22 23
f 11 23 24
f 11 24 26
f 11 26 13
f 11 12 21
f 12 20 25
f 12 25 21
f 13 26 27
f 13 27 14
f 14 27 28
f 14 28 15
f 15 28 49
f 15 49 29
f 15 29 16
f 16 29 30
f 16 30 17
f 17 30 18
f 18 30 19
f 19 30 31
f 19 31 32
f 19 32 33
f 19 33 20
f 20 33 25
f 21 25 34
f 21 34 22
f 22 34 32
f 22 32 35
f 22 35 23
f 23 35 36
f 23 36 37
f 23 37 24
f 24 37 38
f 24 38 39
f 24 39 26
f 25 33 34
f 26 40 41
f 26 41 27
f 26 39 42
f 26 42 40
f 27 41 43
f 27 43 44
f 27 44 45
f 27 45 46
f 27 46 47
f 27 47 28
f 28 47 48
f 28 48 49
f 29 49 48
f 29 48 47
f 29 47 30
f 30 47 50
f 30 50 51
f 30 51 52
f 30 52 53
f 30 53 31
f 31 53 54
f 31 54 55
f 31 55 56
f 31 56 35
f 31 35 32
f 32 34 33
f 35 56 36
f 36 38 37
f 36 56 55
f 36 55 38
f 38 55 39
f 39 55 57
f 39 57 42
f 40 42 58
f 40 58 59
f 40 59 41
f 41 59 43
f 42 57 60
f 42 60 58
f 43 59 61
f 43 61 62
f 43 62 63
f 43 63 64
f 43 64 45
f 43 45 44
f 45 64 46
f 46 50 47
f 46 64 52
f 46 52 51
f 46 51 50
f 52 64 63
f 52 63 62
f 52 62 53
f 53 62 60
f 53 60 57
f 53 57 54
f 54 57 55
f 58 60 61
f 58 61 59
f 60 62 61

