# https://github.com/mikedh/trimesh
v 0.03289380 0.01557701 -0.03163841
v 0.03746238 0.01610997 -0.03162229
v 0.03374291 0.01610997 -0.03315641
v 0.03485389 0.01427403 -0.03676911
v 0.03764349 -0.00014302 -0.03666122
v 0.03691355 -0.00014143 -0.03162229
v 0.03807079 0.01490722 -0.03162229
v 0.03816252 0.01330197 -0.03647643
v 0.03761918 0.01415789 -0.03706366
v 0.03706800 0.01610997 -0.03315641
v 0.03671441 0.01421676 -0.03784375
v 0.03564733 0.01427403 -0.03766888
v 0.03822603 -0.00014302 -0.03760377
v 0.03749609 -0.00014302 -0.03561821
v 0.03745846 -0.00014302 -0.03315641
v 0.04043858 -0.00014302 -0.03315641
v 0.04090194 0.00019266 -0.03162229
v 0.03896537 0.01237445 -0.03162229
v 0.03860315 0.01198149 -0.03642868
v 0.03861177 0.01102216 -0.03714304
v 0.03807235 0.01244286 -0.03727512
v 0.03773757 0.01330197 -0.03735573
v 0.03711191 0.01330197 -0.03787041
v 0.03693315 0.01244286 -0.03790142
v 0.03905162 0.00128882 -0.03795660
v 0.03951420 0.00007334 -0.03777554
v 0.04050444 -0.00014302 -0.03533234
v 0.04040486 0.00028812 -0.03665688
v 0.04090272 0.00129041 -0.03162229
v 0.03920294 0.01159012 -0.03162229
v 0.03996031 0.00899849 -0.03162229
v 0.03894656 0.01072625 -0.03647643
v 0.03952596 0.00815370 -0.03681810
v 0.03885953 0.00986873 -0.03722985
v 0.03861256 0.00900804 -0.03776065
v 0.03780500 0.01171899 -0.03779042
v 0.03793123 0.01072625 -0.03784933
v 0.03824955 0.00900804 -0.03787971
v 0.03845105 0.00815211 -0.03788281
v 0.03905162 0.00214633 -0.03794172
v 0.03958241 0.00128882 -0.03784561
v 0.04021513 0.00122200 -0.03703266
v 0.04036801 0.00214633 -0.03660355
v 0.04088234 0.00214792 -0.03162229
v 0.04072946 0.00386613 -0.03162229
v 0.03992111 0.00643867 -0.03647643
v 0.03976979 0.00729619 -0.03647643
v 0.03944834 0.00883144 -0.03636047
v 0.03917393 0.00986873 -0.03647643
v 0.03967885 0.00643867 -0.03718148
v 0.03940051 0.00729619 -0.03729992
v 0.03953772 0.00557957 -0.03746735
v 0.03941384 0.00472206 -0.03773027
v 0.03898497 0.00472206 -0.03788901
v 0.03905162 0.00300544 -0.03792498
v 0.03912453 0.00387568 -0.03788157
v 0.03954870 0.00395363 -0.03767446
v 0.03971805 0.00300544 -0.03756532
v 0.03976274 0.00214633 -0.03757896
v 0.03980272 0.00472206 -0.03730116
v 0.04016103 0.00472206 -0.03647643
v 0.04032097 0.00332203 -0.03634372
v 0.04083295 0.00300225 -0.03162229
v 0.04004734 0.00557957 -0.03647643
f 1 2 3
f 1 3 4
f 1 4 5
f 1 5 6
f 1 6 2
f 2 7 8
f 2 8 9
f 2 9 10
f 2 10 3
f 2 6 17
f 2 17 29
f 2 29 44
f 2 44 63
f 2 63 45
f 2 45 31
f 2 31 30
f 2 30 18
f 2 18 7
f 3 10 11
f 3 11 12
f 3 12 4
f 4 12 13
f 4 13 5
f 5 13 27
f 5 27 16
f 5 16 15
f 5 15 14
f 5 14 6
f 6 14 15
f 6 15 16
f 6 16 17
f 7 18 8
f 8 18 19
f 8 19 20
f 8 20 9
f 9 20 21
f 9 21 22
f 9 22 11
f 9 11 10
f 11 22 23
f 11 23 24
f 11 24 12
f 12 24 25
f 12 25 13
f 13 25 26
f 13 26 27
f 16 27 17
f 17 27 28
f 17 28 29
f 18 30 19
f 19 30 31
f 19 31 32
f 19 32 20
f 20 32 33
f 20 33 34
f 20 34 35
f 20 35 36
f 20 36 21
f 21 36 22
f 22 36 23
f 23 36 37
f 23 37 38
f 23 38 24
f 24 38 39
f 24 39 25
f 25 40 41
f 25 41 26
f 25 39 40
f 26 41 42
f 26 42 28
f 26 28 27
f 28 42 43
f 28 43 29
f 29 43 44
f 31 45 46
f 31 46 47
f 31 47 48
f 31 48 49
f 31 49 32
f 32 49 33
f 33 49 48
f 33 48 47
f 33 47 46
f 33 46 50
f 33 50 34
f 34 50 51
f 34 51 35
f 35 37 36
f 35 51 50
f 35 50 52
f 35 52 53
f 35 53 39
f 35 39 37
f 37 39 38
f 39 53 54
f 39 54 55
f 39 55 40
f 40 55 41
f 41 55 56
f 41 56 53
f 41 53 57
f 41 57 58
f 41 58 59
f 41 59 42
f 42 59 60
f 42 60 43
f 43 60 61
f 43 61 62
f 43 62 63
f 43 63 44
f 45 63 61
f 45 61 64
f 45 64 46
f 46 64 50
f 50 64 61
f 50 61 60
f 50 60 52
f 52 60 53
f 53 60 57
f 53 56 54
f 54 56 55
f 57 60 58
f 58 60 59
f 61 63 62

