# https://github.com/mikedh/trimesh
v -0.03212500 0.03136925 0.03115423
v -0.03135232 0.03214129 0.03115423
v -0.03122959 0.03112314 0.03115423
v -0.03904971 0.03122608 0.03124024
v -0.03647584 0.03390175 0.03118222
v -0.02853300 0.03469554 0.03115492
v -0.02340601 0.03482602 0.03124228
v -0.02814407 0.03112314 0.03147026
v -0.03282162 0.03112314 0.03774972
v -0.03787427 0.03114888 0.03783299
v -0.04099264 0.03120180 0.03264902
v -0.03993820 0.03170526 0.03168799
v -0.03733322 0.03390175 0.03133443
v -0.03604543 0.03479268 0.03124638
v -0.02348899 0.03482602 0.03218762
v -0.03813702 0.03482602 0.03310701
v -0.02827717 0.03112314 0.03273093
v -0.03448452 0.03114888 0.03806437
v -0.03106537 0.03112314 0.03702007
v -0.02679577 0.03482602 0.03697775
v -0.02784156 0.03482602 0.03741186
v -0.02890637 0.03482602 0.03775654
v -0.03657783 0.03117461 0.03806096
v -0.03603678 0.03260125 0.03796950
v -0.03760980 0.03203400 0.03771354
v -0.03943864 0.03144573 0.03699209
v -0.04027873 0.03119781 0.03642762
v -0.04106178 0.03128190 0.03390832
v -0.04048271 0.03193614 0.03274526
v -0.03964261 0.03281909 0.03236713
v -0.03944555 0.03257588 0.03179447
v -0.04094251 0.03121195 0.03516763
v -0.03770660 0.03470859 0.03197671
v -0.02368604 0.03482602 0.03338617
v -0.02762376 0.03171721 0.03358138
v -0.03877659 0.03409023 0.03304490
v -0.03835482 0.03455563 0.03392744
v -0.03802120 0.03482566 0.03469735
v -0.03082510 0.03482602 0.03805891
v -0.02847250 0.03112314 0.03390423
v -0.03567032 0.03122608 0.03812648
v -0.02991241 0.03112314 0.03618531
v -0.02573269 0.03482602 0.03632251
v -0.03475936 0.03261539 0.03811488
v -0.03475936 0.03390139 0.03799066
v -0.03642226 0.03356213 0.03765416
v -0.03728655 0.03383180 0.03705829
v -0.03882326 0.03265562 0.03666515
v -0.03959940 0.03243271 0.03603925
v -0.04035652 0.03178282 0.03567476
v -0.04032713 0.03217609 0.03433560
v -0.03956137 0.03314385 0.03390355
v -0.03938506 0.03335843 0.03304490
v -0.03951816 0.03309057 0.03476015
v -0.02413375 0.03482602 0.03462637
v -0.03872819 0.03359475 0.03586588
v -0.03781896 0.03462957 0.03582902
v -0.03695985 0.03471475 0.03672384
v -0.03386914 0.03479268 0.03797223
v -0.03246034 0.03481769 0.03809236
v -0.02901873 0.03112314 0.03514306
v -0.02493754 0.03482602 0.03566726
v -0.03527621 0.03470823 0.03766372
f 1 2 3
f 1 3 4
f 1 4 5
f 1 5 2
f 2 6 3
f 2 5 6
f 3 6 7
f 3 7 8
f 3 8 17
f 3 17 40
f 3 40 61
f 3 61 42
f 3 42 19
f 3 19 9
f 3 9 10
f 3 10 11
f 3 11 4
f 4 11 12
f 4 12 13
f 4 13 5
f 5 13 14
f 5 14 6
f 6 14 7
f 7 15 8
f 7 14 16
f 7 16 39
f 7 39 22
f 7 22 21
f 7 21 20
f 7 20 43
f 7 43 62
f 7 62 55
f 7 55 34
f 7 34 15
f 8 15 17
f 9 18 10
f 9 19 20
f 9 20 21
f 9 21 22
f 9 22 18
f 10 23 24
f 10 24 25
f 10 25 26
f 10 26 27
f 10 27 11
f 10 18 23
f 11 28 29
f 11 29 30
f 11 30 31
f 11 31 12
f 11 27 32
f 11 32 28
f 12 31 13
f 13 33 14
f 13 31 33
f 14 33 16
f 15 34 35
f 15 35 17
f 16 33 30
f 16 30 36
f 16 36 37
f 16 37 38
f 16 38 39
f 17 35 40
f 18 22 39
f 18 39 41
f 18 41 23
f 19 42 43
f 19 43 20
f 23 41 44
f 23 44 45
f 23 45 24
f 24 45 25
f 25 45 46
f 25 46 26
f 26 46 47
f 26 47 48
f 26 48 27
f 27 48 49
f 27 49 50
f 27 50 32
f 28 32 51
f 28 51 52
f 28 52 53
f 28 53 29
f 29 53 30
f 30 53 36
f 30 33 31
f 32 50 54
f 32 54 51
f 34 55 40
f 34 40 35
f 36 53 52
f 36 52 37
f 37 52 54
f 37 54 38
f 38 54 56
f 38 56 57
f 38 57 58
f 38 58 59
f 38 59 60
f 38 60 39
f 39 60 41
f 40 55 61
f 41 60 44
f 42 61 62
f 42 62 43
f 44 60 45
f 45 63 46
f 45 60 59
f 45 59 63
f 46 63 47
f 47 58 48
f 47 63 58
f 48 58 49
f 49 58 56
f 49 56 50
f 50 56 54
f 51 54 52
f 55 62 61
f 56 58 57
f 58 63 59

