# https://github.com/mikedh/trimesh
v -0.01722818 0.04875303 0.03411734
v -0.01674201 0.04807278 0.03643463
v -0.01701096 0.04832907 0.03199878
v -0.01870116 0.04804688 0.03253146
v -0.01887701 0.04812868 0.03435731
v -0.01674201 0.04292800 0.03786435
v -0.01674615 0.04239907 0.03458985
v -0.01695717 0.04614110 0.03155533
v -0.01877564 0.04749614 0.03618992
v -0.02049894 0.04628560 0.03677736
v -0.01727576 0.04527546 0.03789004
v -0.01861841 0.04706809 0.03146137
v -0.02062307 0.04677909 0.03201027
v -0.02430758 0.04551811 0.03278158
v -0.02234223 0.04658687 0.03351503
v -0.02058583 0.04729030 0.03495421
v -0.02789280 0.03819490 0.03811109
v -0.03024088 0.03643362 0.03808067
v -0.02921062 0.03482775 0.03783055
v -0.02902236 0.03482775 0.03445601
v -0.03416538 0.03575338 0.03128426
v -0.02660808 0.04205554 0.03120585
v -0.02214363 0.04653507 0.03518067
v -0.02401588 0.04515686 0.03603039
v -0.02219328 0.04544586 0.03681183
v -0.02315527 0.04418216 0.03736547
v -0.01936731 0.04444253 0.03792722
v -0.02532129 0.04334105 0.03128291
v -0.02313665 0.04484605 0.03143974
v -0.02496132 0.04438528 0.03163307
v -0.02656464 0.04379500 0.03204745
v -0.02730733 0.04380046 0.03347920
v -0.02530060 0.04499736 0.03406326
v -0.02832104 0.03862432 0.03806174
v -0.02231741 0.04291300 0.03796102
v -0.03424606 0.03514674 0.03777783
v -0.03787679 0.03489318 0.03488459
v -0.03671413 0.03544529 0.03199878
v -0.03520598 0.03658085 0.03156885
v -0.03291790 0.03851526 0.03154384
v -0.03001124 0.04090634 0.03157764
v -0.02665153 0.04386317 0.03562615
v -0.02530681 0.04365732 0.03695244
v -0.02267531 0.04334514 0.03784407
v -0.02553852 0.04204736 0.03773456
v -0.03153387 0.04054782 0.03218468
v -0.03030087 0.04177335 0.03345892
v -0.02872445 0.04289119 0.03390372
v -0.02875135 0.03905509 0.03795426
v -0.02676531 0.04036378 0.03796170
v -0.03356336 0.03694074 0.03734722
v -0.03521633 0.03663538 0.03658335
v -0.03674309 0.03566341 0.03588100
v -0.03139526 0.03870065 0.03738305
v -0.03511289 0.03778185 0.03504885
v -0.03556181 0.03754192 0.03336023
v -0.03290548 0.03937545 0.03584382
v -0.03077049 0.04084773 0.03589925
v -0.02803555 0.04245496 0.03631431
v -0.02885686 0.04084773 0.03728368
v -0.03216486 0.04032425 0.03411734
v -0.03400401 0.03798224 0.03632985
v -0.03360267 0.03916551 0.03411734
f 1 2 3
f 1 3 4
f 1 4 5
f 1 5 2
f 2 6 7
f 2 7 8
f 2 8 3
f 2 5 9
f 2 9 10
f 2 10 11
f 2 11 6
f 3 12 13
f 3 13 4
f 3 8 12
f 4 13 14
f 4 14 15
f 4 15 5
f 5 16 9
f 5 15 16
f 6 11 17
f 6 17 18
f 6 18 19
f 6 19 7
f 7 19 20
f 7 20 8
f 8 20 21
f 8 21 22
f 8 22 12
f 9 16 23
f 9 23 24
f 9 24 10
f 10 24 25
f 10 25 26
f 10 26 11
f 11 26 27
f 11 27 17
f 12 22 28
f 12 28 29
f 12 29 30
f 12 30 13
f 13 30 14
f 14 30 31
f 14 31 32
f 14 32 33
f 14 33 15
f 15 33 23
f 15 23 16
f 17 34 18
f 17 27 35
f 17 35 34
f 18 34 36
f 18 36 19
f 19 36 37
f 19 37 20
f 20 37 38
f 20 38 21
f 21 38 39
f 21 39 40
f 21 40 22
f 22 40 41
f 22 41 28
f 23 33 42
f 23 42 24
f 24 42 43
f 24 43 25
f 25 43 26
f 26 44 27
f 26 43 45
f 26 45 44
f 27 44 35
f 28 41 30
f 28 30 29
f 30 41 31
f 31 41 46
f 31 46 32
f 32 46 47
f 32 47 48
f 32 48 33
f 33 48 42
f 34 49 36
f 34 35 50
f 34 50 49
f 35 44 50
f 36 51 52
f 36 52 53
f 36 53 37
f 36 49 54
f 36 54 51
f 37 53 55
f 37 55 56
f 37 56 38
f 38 56 39
f 39 56 46
f 39 46 40
f 40 46 41
f 42 48 57
f 42 57 58
f 42 58 59
f 42 59 43
f 43 59 60
f 43 60 45
f 44 45 50
f 45 60 54
f 45 54 49
f 45 49 50
f 46 56 47
f 47 56 61
f 47 61 48
f 48 61 57
f 51 54 52
f 52 54 62
f 52 62 53
f 53 62 57
f 53 57 55
f 54 60 62
f 55 57 61
f 55 61 63
f 55 63 56
f 56 63 61
f 57 62 60
f 57 60 59
f 57 59 58

