# https://github.com/mikedh/trimesh
v -0.04630144 -0.00011300 0.03454305
v -0.04487093 -0.00011300 0.03117231
v -0.04610926 -0.00011300 0.03801005
v -0.04630144 0.00433739 0.03809276
v -0.04630144 0.00465956 0.03440271
v -0.04199718 -0.00011300 0.03125028
v -0.04487289 0.00035166 0.03117231
v -0.04250408 0.01433684 0.03117163
v -0.03939011 0.01433684 0.03117163
v -0.03773017 0.01820693 0.03117163
v -0.04532195 -0.00011300 0.03783447
v -0.04079022 0.02098455 0.03797141
v -0.04150694 0.02098455 0.03806768
v -0.04630144 0.00519443 0.03809683
v -0.04283351 0.01820693 0.03809208
v -0.04630144 0.00622494 0.03440610
v -0.04202855 -0.00011300 0.03207737
v -0.03628496 0.02098455 0.03124824
v -0.04487093 0.00128924 0.03117231
v -0.04232955 0.01486139 0.03117163
v -0.04483661 0.00214834 0.03117231
v -0.04477877 0.00292896 0.03117231
v -0.04470033 0.00379013 0.03117231
v -0.04459542 0.00480618 0.03117231
v -0.04451110 0.00557855 0.03117231
v -0.04440423 0.00643765 0.03117231
v -0.04426892 0.00729675 0.03117231
v -0.04411597 0.00815585 0.03117231
v -0.04395615 0.00901289 0.03117231
v -0.04380418 0.00971710 0.03117231
v -0.04333552 0.01158813 0.03117231
v -0.04313158 0.01236462 0.03117231
v -0.04295313 0.01299243 0.03117231
v -0.04106573 0.01812432 0.03117163
v -0.03972445 0.02091434 0.03117231
v -0.04473465 -0.00011300 0.03753142
v -0.03993917 0.02098455 0.03775243
v -0.04150694 0.02098455 0.03461220
v -0.04630144 0.00613820 0.03809208
v -0.04283351 0.01820693 0.03451525
v -0.04413558 0.01433684 0.03470440
v -0.04413460 0.01433684 0.03808598
v -0.04208346 -0.00011300 0.03280006
v -0.03634085 0.02098455 0.03212279
v -0.04280998 0.01342198 0.03117231
v -0.04201090 0.01579277 0.03117163
v -0.04139026 0.01736022 0.03117163
v -0.04053628 0.01928700 0.03117231
v -0.04023821 0.01989828 0.03117231
v -0.04396498 -0.00011300 0.03703381
v -0.03853710 0.02098455 0.03697144
v -0.03894105 0.02098455 0.03722906
v -0.04165205 0.01673448 0.03117163
v -0.04223641 -0.00011300 0.03390375
v -0.03642223 0.02098455 0.03304547
v -0.04348651 -0.00011300 0.03655925
v -0.03765663 0.02098455 0.03617689
v -0.03818315 0.02098455 0.03666637
v -0.04243741 -0.00011300 0.03475931
v -0.03654773 0.02098455 0.03392544
v -0.04294137 -0.00011300 0.03584131
v -0.03723209 0.02098455 0.03562979
v -0.04268546 -0.00011300 0.03535726
v -0.03684089 0.02098455 0.03491727
f 1 2 6
f 1 6 17
f 1 17 43
f 1 43 54
f 1 54 59
f 1 59 63
f 1 63 61
f 1 61 56
f 1 56 50
f 1 50 36
f 1 36 11
f 1 11 3
f 1 3 4
f 1 4 14
f 1 14 39
f 1 39 16
f 1 16 5
f 1 5 2
f 2 5 7
f 2 7 8
f 2 8 9
f 2 9 10
f 2 10 6
f 3 11 12
f 3 12 13
f 3 13 4
f 4 13 15
f 4 15 14
f 5 16 7
f 6 10 18
f 6 18 17
f 7 19 8
f 7 16 19
f 8 20 46
f 8 46 53
f 8 53 47
f 8 47 34
f 8 34 10
f 8 10 9
f 8 19 21
f 8 21 22
f 8 22 23
f 8 23 24
f 8 24 25
f 8 25 26
f 8 26 27
f 8 27 28
f 8 28 29
f 8 29 30
f 8 30 31
f 8 31 32
f 8 32 33
f 8 33 20
f 10 34 35
f 10 35 18
f 11 36 37
f 11 37 12
f 12 37 52
f 12 52 51
f 12 51 58
f 12 58 57
f 12 57 62
f 12 62 64
f 12 64 60
f 12 60 55
f 12 55 44
f 12 44 18
f 12 18 38
f 12 38 13
f 13 38 40
f 13 40 15
f 14 15 39
f 15 40 41
f 15 41 42
f 15 42 39
f 16 39 42
f 16 42 41
f 16 41 32
f 16 32 31
f 16 31 30
f 16 30 29
f 16 29 28
f 16 28 27
f 16 27 26
f 16 26 25
f 16 25 24
f 16 24 23
f 16 23 22
f 16 22 21
f 16 21 19
f 17 18 44
f 17 44 43
f 18 35 38
f 20 33 45
f 20 45 40
f 20 40 46
f 32 41 33
f 33 41 40
f 33 40 45
f 34 47 40
f 34 40 48
f 34 48 49
f 34 49 35
f 35 49 38
f 36 50 51
f 36 51 52
f 36 52 37
f 38 49 40
f 40 49 48
f 40 47 53
f 40 53 46
f 43 44 55
f 43 55 54
f 50 56 57
f 50 57 58
f 50 58 51
f 54 55 60
f 54 60 59
f 56 61 62
f 56 62 57
f 59 60 64
f 59 64 63
f 61 63 64
f 61 64 62

