# https://github.com/mikedh/trimesh
v 0.00393721 0.04365392 -0.02912968
v 0.00941023 0.04279939 -0.02884704
v 0.00625985 0.04290571 -0.03008266
v 0.00220759 0.04339743 -0.02994823
v 0.00004557 0.04345723 -0.02991084
v -0.00266623 0.04333895 -0.02991663
v -0.00547069 0.04317283 -0.02973369
v -0.01008508 0.04267048 -0.02869036
v 0.01726148 0.04001654 -0.02973992
v 0.01461763 0.04098269 -0.02978799
v 0.01191201 0.04189171 -0.02971945
v 0.00953378 0.04202859 -0.03068533
v -0.00002238 0.04084581 -0.02860890
v 0.02366108 0.03692935 -0.02879095
v 0.01118927 0.03873674 -0.03315613
v -0.00514330 0.04231432 -0.03101738
v -0.00749682 0.04301070 -0.02960238
v -0.01193206 0.04211364 -0.02912478
v -0.01390260 0.04157010 -0.02875890
v -0.02053693 0.03873275 -0.02866320
v 0.01564305 0.03718052 -0.03315613
v 0.01372193 0.03793006 -0.03315613
v 0.01928761 0.03896134 -0.02990773
v 0.02756508 0.03007986 -0.02879095
v -0.02751101 0.03018618 -0.02860890
v 0.02190675 0.03742505 -0.03020907
v 0.03141967 0.03033901 -0.02955565
v 0.02677440 0.03456379 -0.02928101
v 0.02431587 0.03560038 -0.03068533
v 0.00998471 0.03600838 -0.03315613
v -0.02711567 0.03028585 -0.03162496
v -0.02570109 0.03165469 -0.03162496
v -0.02267425 0.03383286 -0.03162496
v -0.01923354 0.03597117 -0.03162496
v -0.01574341 0.03766294 -0.03162496
v -0.01190736 0.03907696 -0.03162496
v -0.00856548 0.03997002 -0.03162496
v -0.00707677 0.04190633 -0.03106990
v -0.00965267 0.04192626 -0.03058696
v -0.01307485 0.04101326 -0.03057005
v -0.01643526 0.04053351 -0.02913903
v -0.02247658 0.03739449 -0.02960951
v -0.02421238 0.03653731 -0.02889422
v -0.03038960 0.03161349 -0.02864540
v -0.01882584 0.03950356 -0.02910698
v 0.01840427 0.03588744 -0.03315613
v 0.02050452 0.03007720 -0.03168772
v 0.02746625 0.03007720 -0.03168772
v -0.00001621 0.03007986 -0.02924986
v -0.03168681 0.03018618 -0.02912167
v 0.02867081 0.03269261 -0.03002435
v 0.02577369 0.03103672 -0.03315613
v 0.02671880 0.03355378 -0.03094483
v 0.02316072 0.03305409 -0.03315613
v 0.02063424 0.03466346 -0.03315613
v 0.02210442 0.03007720 -0.03315613
v -0.02976570 0.03106595 -0.03064216
v -0.02655972 0.03356840 -0.03087584
v -0.00001621 0.03007986 -0.03151279
v -0.02408883 0.03558975 -0.03069780
v -0.02059871 0.03760314 -0.03067331
v -0.01555192 0.03989294 -0.03082287
v -0.02658443 0.03472460 -0.02933621
v -0.02879588 0.03303016 -0.02902730
f 1 2 3
f 1 3 4
f 1 4 5
f 1 5 6
f 1 6 7
f 1 7 8
f 1 8 2
f 2 9 10
f 2 10 11
f 2 11 12
f 2 12 3
f 2 8 13
f 2 13 14
f 2 14 9
f 3 12 4
f 4 12 15
f 4 15 16
f 4 16 5
f 5 16 6
f 6 16 7
f 7 16 17
f 7 17 8
f 8 17 18
f 8 18 19
f 8 19 20
f 8 20 13
f 9 21 22
f 9 22 10
f 9 14 23
f 9 23 21
f 10 22 12
f 10 12 11
f 12 22 15
f 13 24 14
f 13 20 25
f 13 25 24
f 14 26 23
f 14 24 27
f 14 27 28
f 14 28 29
f 14 29 26
f 15 22 21
f 15 21 46
f 15 46 55
f 15 55 54
f 15 54 52
f 15 52 56
f 15 56 30
f 15 30 31
f 15 31 32
f 15 32 33
f 15 33 34
f 15 34 35
f 15 35 36
f 15 36 37
f 15 37 38
f 15 38 16
f 16 38 39
f 16 39 17
f 17 39 18
f 18 40 41
f 18 41 19
f 18 39 40
f 19 41 20
f 20 42 43
f 20 43 44
f 20 44 25
f 20 41 45
f 20 45 42
f 21 23 26
f 21 26 46
f 24 47 48
f 24 48 27
f 24 25 49
f 24 49 47
f 25 44 50
f 25 50 49
f 26 29 46
f 27 51 28
f 27 48 52
f 27 52 53
f 27 53 51
f 28 51 29
f 29 51 53
f 29 53 54
f 29 54 55
f 29 55 46
f 30 56 31
f 31 50 57
f 31 57 58
f 31 58 32
f 31 56 59
f 31 59 50
f 32 58 33
f 33 58 34
f 34 58 60
f 34 60 61
f 34 61 62
f 34 62 35
f 35 62 36
f 36 62 38
f 36 38 37
f 38 62 40
f 38 40 39
f 40 62 41
f 41 62 45
f 42 45 61
f 42 61 60
f 42 60 63
f 42 63 43
f 43 63 64
f 43 64 44
f 44 64 50
f 45 62 61
f 47 56 48
f 47 49 59
f 47 59 56
f 48 56 52
f 49 50 59
f 50 64 57
f 52 54 53
f 57 64 63
f 57 63 58
f 58 63 60

