# https://github.com/mikedh/trimesh
v -0.03811797 -0.01698347 0.00935431
v -0.04144258 -0.01632299 0.00935431
v -0.04443237 -0.00027317 0.00935431
v -0.04160756 -0.00011465 0.00966700
v -0.04176557 -0.00011465 0.02071277
v -0.03837970 -0.01698347 0.02445667
v -0.04163123 -0.01698347 0.03099512
v -0.04120869 -0.01693724 0.00953178
v -0.04161521 -0.01587551 0.00935431
v -0.04433630 -0.01618098 0.03369106
v -0.04441427 -0.00129032 0.00935431
v -0.04522941 -0.00986838 0.03474183
v -0.04522941 -0.00214730 0.03442350
v -0.04522941 -0.00011795 0.03440378
v -0.04486534 -0.00011465 0.03099512
v -0.04178646 -0.00011465 0.02188750
v -0.03844792 -0.01698347 0.02789070
v -0.03851196 -0.01698347 0.03099512
v -0.04334156 -0.01618098 0.03802936
v -0.04430289 -0.01602742 0.03813360
v -0.04191872 -0.01507136 0.00935431
v -0.04522941 -0.00986673 0.03805472
v -0.04522941 -0.00987169 0.03547991
v -0.04400496 -0.00644046 0.00935431
v -0.04387618 -0.00729744 0.00935431
v -0.04374531 -0.00815277 0.00935431
v -0.04359704 -0.00900975 0.00935431
v -0.04341118 -0.00986838 0.00935431
v -0.04320165 -0.01072536 0.00935431
v -0.04308401 -0.01119596 0.00935431
v -0.04293921 -0.01177389 0.00935431
v -0.04275196 -0.01244263 0.00935431
v -0.04254939 -0.01312953 0.00935431
v -0.04228696 -0.01398817 0.00935431
v -0.04209205 -0.01458921 0.00935431
v -0.04438433 -0.00197722 0.00935431
v -0.04433491 -0.00283585 0.00935431
v -0.04426252 -0.00386456 0.00935431
v -0.04419082 -0.00472154 0.00935431
v -0.04411077 -0.00558183 0.00935431
v -0.04506095 -0.00011795 0.03770822
v -0.04197650 -0.00011465 0.03046551
v -0.04199529 -0.00011630 0.03116132
v -0.04202870 -0.00011795 0.03207124
v -0.04208300 -0.00011795 0.03279523
v -0.03895051 -0.01618098 0.03304313
v -0.03906746 -0.01618098 0.03389671
v -0.03928464 -0.01618098 0.03471084
v -0.03948304 -0.01618098 0.03520947
v -0.03971484 -0.01618098 0.03565175
v -0.04016801 -0.01618098 0.03629686
v -0.04053625 -0.01618098 0.03669970
v -0.04093721 -0.01618098 0.03706311
v -0.04164376 -0.01618098 0.03751102
v -0.04208231 -0.01618098 0.03775329
v -0.04250345 -0.01618098 0.03786597
v -0.04420056 -0.01501687 0.03810261
v -0.04396040 -0.00011795 0.03702930
v -0.04348775 -0.00011795 0.03655885
v -0.04294061 -0.00011795 0.03584049
v -0.04268513 -0.00011795 0.03535596
v -0.04243662 -0.00011795 0.03475874
v -0.04223684 -0.00011795 0.03390234
f 1 2 9
f 1 9 21
f 1 21 35
f 1 35 34
f 1 34 33
f 1 33 32
f 1 32 31
f 1 31 30
f 1 30 29
f 1 29 28
f 1 28 27
f 1 27 26
f 1 26 25
f 1 25 24
f 1 24 40
f 1 40 39
f 1 39 38
f 1 38 37
f 1 37 36
f 1 36 11
f 1 11 3
f 1 3 4
f 1 4 5
f 1 5 6
f 1 6 17
f 1 17 18
f 1 18 7
f 1 7 8
f 1 8 2
f 2 8 10
f 2 10 9
f 3 11 12
f 3 12 13
f 3 13 14
f 3 14 15
f 3 15 4
f 4 15 42
f 4 42 16
f 4 16 5
f 5 16 6
f 6 16 17
f 7 18 19
f 7 19 20
f 7 20 10
f 7 10 8
f 9 10 21
f 10 20 22
f 10 22 23
f 10 23 12
f 10 12 24
f 10 24 25
f 10 25 26
f 10 26 27
f 10 27 28
f 10 28 29
f 10 29 30
f 10 30 31
f 10 31 32
f 10 32 33
f 10 33 34
f 10 34 35
f 10 35 21
f 11 36 12
f 12 23 22
f 12 22 14
f 12 14 13
f 12 36 37
f 12 37 38
f 12 38 39
f 12 39 40
f 12 40 24
f 14 22 41
f 14 41 15
f 15 41 42
f 16 42 18
f 16 18 17
f 18 43 44
f 18 44 45
f 18 45 46
f 18 46 47
f 18 47 48
f 18 48 49
f 18 49 50
f 18 50 51
f 18 51 52
f 18 52 53
f 18 53 54
f 18 54 55
f 18 55 56
f 18 56 19
f 18 42 43
f 19 56 41
f 19 41 57
f 19 57 20
f 20 57 22
f 22 57 41
f 41 56 55
f 41 55 54
f 41 54 58
f 41 58 42
f 42 58 59
f 42 59 60
f 42 60 61
f 42 61 62
f 42 62 63
f 42 63 45
f 42 45 44
f 42 44 43
f 45 63 47
f 45 47 46
f 47 63 62
f 47 62 48
f 48 62 49
f 49 62 61
f 49 61 50
f 50 60 51
f 50 61 60
f 51 60 59
f 51 59 52
f 52 59 58
f 52 58 53
f 53 58 54

