# https://github.com/mikedh/trimesh
v -0.03884388 -0.01618345 0.03100354
v -0.03884805 -0.01618345 0.03132957
v -0.03368583 -0.02535175 0.03107997
v -0.03747904 -0.01925541 0.03100354
v -0.04195623 -0.01618345 0.03100354
v -0.03886161 -0.01618345 0.03172150
v -0.03371815 -0.02535175 0.03218706
v -0.03722776 -0.02533470 0.03100424
v -0.04107831 -0.02535175 0.03200546
v -0.04068522 -0.01925541 0.03100354
v -0.04104286 -0.01844501 0.03100354
v -0.04433767 -0.01912797 0.03189468
v -0.04433767 -0.01852489 0.03216532
v -0.04433767 -0.01778898 0.03256356
v -0.04433767 -0.01737616 0.03284262
v -0.04433767 -0.01618345 0.03369449
v -0.03888246 -0.01618345 0.03218706
v -0.03375361 -0.02535175 0.03304524
v -0.03764795 -0.02469931 0.03100424
v -0.04076759 -0.02535175 0.03812356
v -0.04107831 -0.02533470 0.03809131
v -0.04426885 -0.01925541 0.03813338
v -0.03930474 -0.02199441 0.03100495
v -0.03914104 -0.02226992 0.03100495
v -0.03880843 -0.02282275 0.03100424
v -0.03953725 -0.02156543 0.03100495
v -0.03981043 -0.02102876 0.03100495
v -0.04039641 -0.01985849 0.03100495
v -0.04088646 -0.01880399 0.03100354
v -0.04428032 -0.01618345 0.03813548
v -0.03890853 -0.01618345 0.03254253
v -0.03380261 -0.02535175 0.03342245
v -0.03895023 -0.01618345 0.03304524
v -0.03991052 -0.02533470 0.03812847
v -0.04076759 -0.02445969 0.03814600
v -0.04426885 -0.01845399 0.03815651
v -0.03819430 -0.02535175 0.03793425
v -0.04426885 -0.01759693 0.03816563
v -0.04426885 -0.01673807 0.03815161
v -0.03991052 -0.02445969 0.03811024
v -0.04334193 -0.01618345 0.03802821
v -0.03385370 -0.02535175 0.03380037
v -0.03906597 -0.01618345 0.03389923
v -0.04076759 -0.02360173 0.03813688
v -0.03891165 -0.02532662 0.03804503
v -0.03757496 -0.02535175 0.03780805
v -0.04250363 -0.01618345 0.03786624
v -0.03399133 -0.02535175 0.03429607
v -0.03928284 -0.01618345 0.03471254
v -0.03714747 -0.02535175 0.03765731
v -0.04208135 -0.01618345 0.03775336
v -0.03412375 -0.02535175 0.03472656
v -0.03948095 -0.01618345 0.03521245
v -0.03633419 -0.02535175 0.03719806
v -0.04164030 -0.01618345 0.03751077
v -0.03462423 -0.02535175 0.03565417
v -0.03971346 -0.01618345 0.03565136
v -0.03560850 -0.02535175 0.03667572
v -0.03608813 -0.02494790 0.03687764
v -0.04093338 -0.01618345 0.03706555
v -0.03483067 -0.02535175 0.03590237
v -0.04016598 -0.01618345 0.03629711
v -0.03529257 -0.02535175 0.03640368
v -0.04053404 -0.01618345 0.03670026
f 1 2 3
f 1 3 4
f 1 4 10
f 1 10 29
f 1 29 11
f 1 11 5
f 1 5 16
f 1 16 30
f 1 30 41
f 1 41 47
f 1 47 51
f 1 51 55
f 1 55 60
f 1 60 64
f 1 64 62
f 1 62 57
f 1 57 53
f 1 53 49
f 1 49 43
f 1 43 33
f 1 33 31
f 1 31 17
f 1 17 6
f 1 6 2
f 2 6 7
f 2 7 3
f 3 8 4
f 3 7 18
f 3 18 32
f 3 32 42
f 3 42 48
f 3 48 52
f 3 52 56
f 3 56 61
f 3 61 63
f 3 63 58
f 3 58 54
f 3 54 50
f 3 50 46
f 3 46 37
f 3 37 20
f 3 20 9
f 3 9 8
f 4 8 10
f 5 11 12
f 5 12 13
f 5 13 14
f 5 14 15
f 5 15 16
f 6 17 18
f 6 18 7
f 8 19 10
f 8 9 19
f 9 20 21
f 9 21 22
f 9 22 12
f 9 12 23
f 9 23 24
f 9 24 25
f 9 25 19
f 10 26 27
f 10 27 28
f 10 28 12
f 10 12 29
f 10 19 25
f 10 25 26
f 11 29 12
f 12 22 16
f 12 16 15
f 12 15 14
f 12 14 13
f 12 28 27
f 12 27 26
f 12 26 23
f 16 22 30
f 17 31 18
f 18 31 33
f 18 33 32
f 20 34 35
f 20 35 36
f 20 36 22
f 20 22 21
f 20 37 34
f 22 36 30
f 23 25 24
f 23 26 25
f 30 36 38
f 30 38 39
f 30 39 40
f 30 40 41
f 32 33 42
f 33 43 42
f 34 40 44
f 34 44 35
f 34 37 45
f 34 45 40
f 35 44 38
f 35 38 36
f 37 46 47
f 37 47 41
f 37 41 45
f 38 44 39
f 39 44 40
f 40 45 41
f 42 43 49
f 42 49 48
f 46 50 51
f 46 51 47
f 48 49 52
f 49 53 52
f 50 54 55
f 50 55 51
f 52 53 57
f 52 57 56
f 54 58 59
f 54 59 60
f 54 60 55
f 56 57 62
f 56 62 61
f 58 63 60
f 58 60 59
f 60 63 64
f 61 62 64
f 61 64 63

