# https://github.com/mikedh/trimesh
v 0.03525661 -0.02080418 -0.02857260
v 0.04025045 -0.00841545 -0.02857260
v 0.04177723 -0.01367120 -0.02825332
v 0.03889258 -0.02047918 -0.02825703
v 0.03891088 -0.02080418 -0.02464106
v 0.03529405 -0.02080418 -0.02441088
v 0.03950994 -0.00841545 -0.02059443
v 0.04322912 -0.00871498 -0.02402850
v 0.04302360 -0.00907272 -0.02823105
v 0.04372917 -0.00841545 0.00685951
v 0.04252106 -0.01120704 -0.02823105
v 0.04187957 -0.01368090 -0.02659383
v 0.04121644 -0.01542352 -0.02748855
v 0.04052419 -0.01707640 -0.02806027
v 0.03947999 -0.01931016 -0.02823105
v 0.03906065 -0.02035185 -0.02663467
v 0.03921208 -0.02016752 -0.02531673
v 0.03942591 -0.01983161 -0.02408789
v 0.03918961 -0.02040884 -0.02195321
v 0.03941593 -0.02018086 -0.01458761
v 0.03961312 -0.02029121 0.00926521
v 0.03607117 -0.02080418 0.00935431
v 0.03554116 -0.02080418 -0.01106073
v 0.04082871 -0.00841545 0.00935431
v 0.04295787 -0.01006833 -0.02360156
v 0.04304524 -0.00935649 -0.02630055
v 0.04270161 -0.01073046 -0.02703562
v 0.04375496 -0.00841545 0.00935431
v 0.04341799 -0.00987188 0.00685951
v 0.04353530 -0.00922795 0.00503667
v 0.04252855 -0.01158782 -0.02574367
v 0.04217161 -0.01284415 -0.02529075
v 0.04203765 -0.01336682 -0.02402850
v 0.04200187 -0.01355600 -0.02274026
v 0.04167904 -0.01459162 -0.02145573
v 0.04130047 -0.01540291 -0.02552835
v 0.04066979 -0.01690299 -0.02660497
v 0.03996673 -0.01845158 -0.02703562
v 0.03990932 -0.01870624 -0.02574367
v 0.03971213 -0.01930894 -0.02274026
v 0.04023797 -0.01809263 -0.02445915
v 0.03958233 -0.01969215 -0.01973684
v 0.04042102 -0.01862257 0.00917982
v 0.04007988 -0.01930894 0.00815146
v 0.04105918 -0.01719888 0.00926521
v 0.04286469 -0.01037393 -0.02488608
v 0.04274987 -0.01122765 -0.01845232
v 0.04231139 -0.01389797 0.00926521
v 0.04286802 -0.01210927 0.00926521
v 0.04334727 -0.01023568 0.00842990
v 0.04295787 -0.01130890 -0.00129314
v 0.04244535 -0.01201711 -0.02402850
v 0.04228060 -0.01284173 -0.01845232
v 0.04192366 -0.01400226 -0.01887926
v 0.04154426 -0.01501970 -0.02059443
v 0.04103422 -0.01618387 -0.02402850
v 0.04102257 -0.01630514 -0.02231332
v 0.04025711 -0.01810718 -0.02317091
v 0.04045347 -0.01797015 -0.01330308
v 0.04217910 -0.01409685 0.00385610
v 0.04093188 -0.01673564 -0.01673343
v 0.04124556 -0.01599712 -0.01544519
v 0.04158919 -0.01501970 -0.01759473
v 0.04088279 -0.01673564 -0.02016749
f 1 2 3
f 1 3 4
f 1 4 5
f 1 5 22
f 1 22 23
f 1 23 6
f 1 6 7
f 1 7 2
f 2 8 9
f 2 9 3
f 2 7 24
f 2 24 28
f 2 28 10
f 2 10 8
f 3 9 11
f 3 11 12
f 3 12 13
f 3 13 14
f 3 14 15
f 3 15 4
f 4 15 16
f 4 16 5
f 5 16 17
f 5 17 18
f 5 18 19
f 5 19 20
f 5 20 21
f 5 21 22
f 6 23 7
f 7 23 22
f 7 22 24
f 8 25 26
f 8 26 9
f 8 10 25
f 9 26 27
f 9 27 11
f 10 28 29
f 10 29 30
f 10 30 25
f 11 27 31
f 11 31 12
f 12 31 32
f 12 32 33
f 12 33 34
f 12 34 35
f 12 35 36
f 12 36 13
f 13 36 37
f 13 37 14
f 14 37 38
f 14 38 15
f 15 38 16
f 16 38 39
f 16 39 17
f 17 39 18
f 18 40 19
f 18 39 41
f 18 41 40
f 19 42 20
f 19 40 42
f 20 42 43
f 20 43 44
f 20 44 21
f 21 44 43
f 21 43 45
f 21 45 28
f 21 28 22
f 22 28 24
f 25 46 26
f 25 30 29
f 25 29 47
f 25 47 46
f 26 46 27
f 27 46 31
f 28 45 48
f 28 48 49
f 28 49 50
f 28 50 29
f 29 50 51
f 29 51 47
f 31 46 52
f 31 52 32
f 32 52 33
f 33 52 34
f 34 53 54
f 34 54 35
f 34 52 53
f 35 54 55
f 35 55 36
f 36 56 37
f 36 55 57
f 36 57 56
f 37 56 41
f 37 41 38
f 38 41 39
f 40 41 58
f 40 58 42
f 41 56 57
f 41 57 58
f 42 59 43
f 42 58 59
f 43 59 45
f 45 60 48
f 45 59 61
f 45 61 62
f 45 62 60
f 46 47 52
f 47 51 49
f 47 49 52
f 48 60 54
f 48 54 49
f 49 51 50
f 49 54 53
f 49 53 52
f 54 60 63
f 54 63 55
f 55 63 62
f 55 62 57
f 57 62 64
f 57 64 58
f 58 64 61
f 58 61 59
f 60 62 63
f 61 64 62

