# https://github.com/mikedh/trimesh
v -0.02447318 -0.02831041 -0.03295821
v -0.02447318 -0.02840566 -0.03575165
v -0.02447318 -0.03210061 -0.03602875
v -0.02446843 -0.03176414 -0.03295881
v -0.01215609 -0.03484925 -0.03160919
v -0.00987111 -0.03518324 -0.03160919
v -0.00023289 -0.03690763 -0.03160919
v -0.02447318 -0.02874337 -0.03685335
v -0.00023289 -0.03768942 -0.03673971
v -0.02442335 -0.03167384 -0.03720762
v -0.02349085 -0.03269314 -0.03675005
v -0.02372101 -0.03270674 -0.03561796
v -0.02373287 -0.03268077 -0.03295821
v -0.02447318 -0.02965875 -0.03769314
v -0.01187611 -0.03910703 -0.03160919
v -0.00080947 -0.04094771 -0.03160919
v -0.00028509 -0.04041208 -0.03670994
v -0.00023289 -0.03830421 -0.03765304
v -0.02440200 -0.03072629 -0.03781103
v -0.02350746 -0.03169240 -0.03772292
v -0.02045607 -0.03451278 -0.03709581
v -0.02236853 -0.03332772 -0.03697549
v -0.02109434 -0.03437795 -0.03647659
v -0.02269597 -0.03344029 -0.03561796
v -0.02266987 -0.03344524 -0.03295821
v -0.00861591 -0.03996799 -0.03160919
v -0.02152856 -0.03420353 -0.03295821
v -0.01955916 -0.03537621 -0.03295821
v -0.01838226 -0.03602441 -0.03295821
v -0.01720774 -0.03657364 -0.03561796
v -0.01430583 -0.03781683 -0.03561796
v -0.01194966 -0.03858254 -0.03637269
v -0.00987111 -0.03915528 -0.03647659
v -0.00343377 -0.04084874 -0.03160919
v -0.00129115 -0.04044672 -0.03647659
v -0.00129115 -0.04015107 -0.03714989
v -0.00033492 -0.03963524 -0.03760260
v -0.00158300 -0.03939031 -0.03780617
v -0.00644245 -0.03874583 -0.03781711
v -0.01529765 -0.03613079 -0.03779888
v -0.02095435 -0.03363079 -0.03754001
v -0.01845107 -0.03548754 -0.03720579
v -0.01707486 -0.03625573 -0.03713774
v -0.01949747 -0.03513376 -0.03685335
v -0.01825176 -0.03600832 -0.03611564
v -0.01966830 -0.03531065 -0.03561796
v -0.02152382 -0.03419116 -0.03561796
v -0.00867048 -0.03945587 -0.03659327
v -0.00686955 -0.03978244 -0.03647659
v -0.01502003 -0.03745439 -0.03647659
v -0.01086768 -0.03881386 -0.03674640
v -0.01380043 -0.03786879 -0.03660907
v -0.00515403 -0.04002737 -0.03647659
v -0.00283108 -0.04014860 -0.03686793
v -0.00644245 -0.03939526 -0.03733158
v -0.00536758 -0.03945587 -0.03741544
v -0.00870845 -0.03875696 -0.03750963
v -0.01084157 -0.03778467 -0.03777579
v -0.01502003 -0.03713524 -0.03716326
v -0.01268048 -0.03746552 -0.03758255
v -0.01606406 -0.03682722 -0.03685943
v -0.00755528 -0.03915157 -0.03735407
v -0.00987111 -0.03858378 -0.03740754
v -0.01079649 -0.03814959 -0.03754973
f 1 2 8
f 1 8 14
f 1 14 3
f 1 3 4
f 1 4 5
f 1 5 6
f 1 6 7
f 1 7 2
f 2 7 9
f 2 9 8
f 3 10 11
f 3 11 12
f 3 12 13
f 3 13 4
f 3 14 10
f 4 13 15
f 4 15 5
f 5 15 26
f 5 26 34
f 5 34 16
f 5 16 7
f 5 7 6
f 7 16 17
f 7 17 18
f 7 18 9
f 8 9 18
f 8 18 14
f 10 14 19
f 10 19 20
f 10 20 21
f 10 21 22
f 10 22 11
f 11 22 23
f 11 23 24
f 11 24 12
f 12 24 25
f 12 25 13
f 13 25 15
f 14 18 19
f 15 25 27
f 15 27 28
f 15 28 29
f 15 29 30
f 15 30 31
f 15 31 32
f 15 32 33
f 15 33 26
f 16 34 35
f 16 35 17
f 17 35 36
f 17 36 37
f 17 37 18
f 18 37 38
f 18 38 19
f 19 38 39
f 19 39 40
f 19 40 20
f 20 40 41
f 20 41 21
f 21 23 22
f 21 41 42
f 21 42 43
f 21 43 44
f 21 44 23
f 23 44 45
f 23 45 46
f 23 46 47
f 23 47 24
f 24 27 25
f 24 47 27
f 26 33 48
f 26 48 49
f 26 49 34
f 27 47 46
f 27 46 28
f 28 46 29
f 29 46 30
f 30 50 31
f 30 46 45
f 30 45 50
f 31 50 32
f 32 51 33
f 32 50 52
f 32 52 51
f 33 51 48
f 34 49 53
f 34 53 35
f 35 53 54
f 35 54 36
f 36 54 55
f 36 55 56
f 36 56 38
f 36 38 37
f 38 56 39
f 39 56 55
f 39 55 57
f 39 57 58
f 39 58 40
f 40 59 43
f 40 43 42
f 40 42 41
f 40 58 60
f 40 60 59
f 43 45 44
f 43 59 61
f 43 61 50
f 43 50 45
f 48 62 55
f 48 55 49
f 48 51 63
f 48 63 62
f 49 55 53
f 50 61 59
f 50 59 52
f 51 52 59
f 51 59 63
f 53 55 54
f 55 62 57
f 57 62 63
f 57 63 64
f 57 64 58
f 58 64 60
f 59 60 64
f 59 64 63

