# https://github.com/mikedh/trimesh
v -0.03256403 -0.03113907 0.03107185
v -0.02953847 -0.03084674 0.03107185
v -0.03188110 -0.03185696 0.03107185
v -0.03520051 -0.03518077 0.03108142
v -0.03733525 -0.03304367 0.03109439
v -0.03819356 -0.03218662 0.03110669
v -0.03939217 -0.03108816 0.03116406
v -0.03219469 -0.03084674 0.03733046
v -0.03035264 -0.03087135 0.03614894
v -0.02959886 -0.03094815 0.03530891
v -0.02956170 -0.03494911 0.03788502
v -0.02953847 -0.03518119 0.03466283
v -0.02953847 -0.03398175 0.03107185
v -0.04078939 -0.03092057 0.03171657
v -0.04140379 -0.03088960 0.03254636
v -0.04073945 -0.03084674 0.03646106
v -0.03118191 -0.03253411 0.03107185
v -0.03626672 -0.03507554 0.03122142
v -0.03023417 -0.03337842 0.03107185
v -0.03381607 -0.03518077 0.03145841
v -0.03790668 -0.03518077 0.03282227
v -0.03918543 -0.03245010 0.03144543
v -0.03352687 -0.03084674 0.03779828
v -0.02988109 -0.03380482 0.03766374
v -0.03045369 -0.03216965 0.03716177
v -0.03130503 -0.03089172 0.03690293
v -0.02966390 -0.03181877 0.03640505
v -0.03519122 -0.03084674 0.03800590
v -0.03047111 -0.03497032 0.03799702
v -0.02970456 -0.03269236 0.03704840
v -0.03772085 -0.03515743 0.03563400
v -0.03762213 -0.03477303 0.03168720
v -0.03930157 -0.03325623 0.03218712
v -0.04112388 -0.03137837 0.03339185
v -0.04119938 -0.03122478 0.03476254
v -0.04121331 -0.03088153 0.03561078
v -0.03861981 -0.03432923 0.03263924
v -0.03954780 -0.03291978 0.03589830
v -0.03930971 -0.03241488 0.03674994
v -0.04008555 -0.03085692 0.03709689
v -0.03832480 -0.03338988 0.03142221
v -0.03809367 -0.03498645 0.03475981
v -0.03904257 -0.03390156 0.03390339
v -0.03043743 -0.03172415 0.03690566
v -0.03690552 -0.03108816 0.03800932
v -0.03175799 -0.03497032 0.03804824
v -0.03793804 -0.03451677 0.03627939
v -0.03876731 -0.03409631 0.03528023
v -0.03304603 -0.03497032 0.03802024
v -0.03393570 -0.03497032 0.03795195
v -0.03677427 -0.03493596 0.03698352
v -0.04040030 -0.03226299 0.03347449
v -0.03961981 -0.03321550 0.03433228
v -0.04056290 -0.03203473 0.03475981
v -0.03864071 -0.03348662 0.03652320
v -0.03760122 -0.03396054 0.03705796
v -0.03821330 -0.03304663 0.03715016
v -0.03789158 -0.03231730 0.03763574
v -0.03842120 -0.03117174 0.03777847
v -0.03561863 -0.03304367 0.03799156
v -0.03476265 -0.03390156 0.03799156
v -0.03595313 -0.03392150 0.03782150
v -0.03540725 -0.03489947 0.03767740
v -0.03707509 -0.03320277 0.03766511
f 1 2 13
f 1 13 19
f 1 19 17
f 1 17 3
f 1 3 4
f 1 4 5
f 1 5 6
f 1 6 7
f 1 7 2
f 2 8 9
f 2 9 10
f 2 10 11
f 2 11 12
f 2 12 13
f 2 7 14
f 2 14 15
f 2 15 16
f 2 16 28
f 2 28 23
f 2 23 8
f 3 17 4
f 4 18 5
f 4 17 19
f 4 19 13
f 4 13 20
f 4 20 12
f 4 12 21
f 4 21 18
f 5 18 6
f 6 18 7
f 7 18 22
f 7 22 14
f 8 23 24
f 8 24 25
f 8 25 26
f 8 26 9
f 9 26 27
f 9 27 10
f 10 27 11
f 11 24 23
f 11 23 28
f 11 28 29
f 11 29 12
f 11 27 30
f 11 30 24
f 12 20 13
f 12 29 31
f 12 31 21
f 14 22 32
f 14 32 33
f 14 33 15
f 15 34 35
f 15 35 36
f 15 36 16
f 15 33 37
f 15 37 34
f 16 36 38
f 16 38 39
f 16 39 40
f 16 40 28
f 18 21 32
f 18 32 41
f 18 41 22
f 21 31 42
f 21 42 43
f 21 43 37
f 21 37 32
f 22 41 32
f 24 30 25
f 25 44 26
f 25 30 44
f 26 44 27
f 27 44 30
f 28 45 46
f 28 46 29
f 28 40 45
f 29 46 31
f 31 47 38
f 31 38 48
f 31 48 42
f 31 46 49
f 31 49 50
f 31 50 51
f 31 51 47
f 32 37 33
f 34 37 52
f 34 52 53
f 34 53 54
f 34 54 35
f 35 54 38
f 35 38 36
f 37 43 52
f 38 54 48
f 38 47 55
f 38 55 39
f 39 55 56
f 39 56 40
f 40 56 57
f 40 57 58
f 40 58 59
f 40 59 45
f 42 48 54
f 42 54 53
f 42 53 43
f 43 53 52
f 45 59 60
f 45 60 49
f 45 49 46
f 47 51 55
f 49 60 61
f 49 61 50
f 50 61 62
f 50 62 63
f 50 63 51
f 51 63 56
f 51 56 55
f 56 64 57
f 56 63 64
f 57 64 58
f 58 64 59
f 59 64 62
f 59 62 60
f 60 62 61
f 62 64 63

