# https://github.com/mikedh/trimesh
v 0.01451500 0.03439337 -0.03325145
v 0.01476771 0.03754094 -0.03317057
v 0.01451500 0.03444803 -0.03604791
v 0.03454759 0.01427580 -0.03315613
v 0.01627943 0.03691462 -0.03315613
v 0.01611096 0.03696472 -0.03618077
v 0.01476771 0.03751361 -0.03606861
v 0.01464022 0.03516091 -0.03762017
v 0.03524653 0.01427580 -0.03721916
v 0.03461134 0.01427580 -0.03553811
v 0.03777138 0.01438968 -0.03315613
v 0.01783669 0.03618808 -0.03315613
v 0.01795052 0.03613342 -0.03561850
v 0.01524354 0.03696928 -0.03730100
v 0.01984245 0.03511080 -0.03604791
v 0.02092615 0.03439337 -0.03676953
v 0.01921636 0.03474411 -0.03764087
v 0.02188919 0.03218187 -0.03803754
v 0.03261240 0.02146146 -0.03804476
v 0.03404216 0.01958477 -0.03795426
v 0.03711114 0.01451039 -0.03752100
v 0.03765754 0.01471309 -0.03606043
v 0.03699958 0.01626866 -0.03315613
v 0.01899097 0.03557997 -0.03315613
v 0.01746559 0.03585556 -0.03735395
v 0.02017485 0.03493770 -0.03315613
v 0.02121302 0.03433643 -0.03519005
v 0.02225346 0.03363267 -0.03659767
v 0.02120163 0.03340947 -0.03783102
v 0.02485117 0.03071514 -0.03781176
v 0.02794064 0.02826449 -0.03783583
v 0.02960945 0.02532191 -0.03807365
v 0.03322483 0.02179399 -0.03772174
v 0.03527841 0.01804059 -0.03781369
v 0.03702007 0.01616389 -0.03621688
v 0.03616631 0.01801553 -0.03611627
v 0.03619136 0.01799504 -0.03315613
v 0.02150216 0.03413829 -0.03315613
v 0.02302071 0.03316350 -0.03497583
v 0.02349654 0.03284009 -0.03647684
v 0.02342824 0.03189263 -0.03774677
v 0.02881716 0.02817111 -0.03682056
v 0.03051557 0.02599834 -0.03727115
v 0.03234830 0.02324251 -0.03760043
v 0.02891961 0.02666793 -0.03793885
v 0.03372343 0.02222900 -0.03660537
v 0.03531028 0.01958704 -0.03624673
v 0.03531028 0.01965537 -0.03315613
v 0.02547270 0.03130046 -0.03315613
v 0.02322789 0.03301318 -0.03334291
v 0.02567988 0.03114559 -0.03613938
v 0.03052240 0.02654723 -0.03519005
v 0.03187703 0.02480035 -0.03653027
v 0.02739423 0.02966746 -0.03594007
v 0.02869194 0.02847858 -0.03519005
v 0.03315653 0.02311496 -0.03583320
v 0.03421747 0.02154573 -0.03561850
v 0.03378490 0.02216067 -0.03315613
v 0.02694117 0.03004781 -0.03315613
v 0.03190663 0.02481629 -0.03561850
v 0.03005340 0.02702323 -0.03353018
v 0.03111662 0.02577286 -0.03315613
v 0.02878984 0.02835104 -0.03353018
v 0.03240978 0.02409203 -0.03315613
f 1 2 3
f 1 3 4
f 1 4 2
f 2 5 6
f 2 6 7
f 2 7 3
f 2 4 5
f 3 7 8
f 3 8 9
f 3 9 10
f 3 10 4
f 4 10 9
f 4 9 11
f 4 11 23
f 4 23 37
f 4 37 48
f 4 48 58
f 4 58 64
f 4 64 62
f 4 62 59
f 4 59 49
f 4 49 38
f 4 38 26
f 4 26 24
f 4 24 12
f 4 12 5
f 5 12 13
f 5 13 6
f 6 14 7
f 6 13 15
f 6 15 16
f 6 16 14
f 7 14 8
f 8 14 17
f 8 17 18
f 8 18 19
f 8 19 20
f 8 20 9
f 9 20 21
f 9 21 11
f 11 21 22
f 11 22 23
f 12 24 13
f 13 24 15
f 14 16 25
f 14 25 17
f 15 24 26
f 15 26 27
f 15 27 28
f 15 28 16
f 16 17 25
f 16 28 29
f 16 29 17
f 17 29 18
f 18 29 30
f 18 30 31
f 18 31 32
f 18 32 19
f 19 32 33
f 19 33 20
f 20 33 34
f 20 34 21
f 21 35 22
f 21 34 35
f 22 35 23
f 23 35 36
f 23 36 37
f 26 38 27
f 27 38 39
f 27 39 40
f 27 40 28
f 28 40 41
f 28 41 29
f 29 41 30
f 30 41 31
f 31 42 43
f 31 43 44
f 31 44 33
f 31 33 45
f 31 45 32
f 31 41 40
f 31 40 42
f 32 45 33
f 33 44 46
f 33 46 34
f 34 47 36
f 34 36 35
f 34 46 47
f 36 47 48
f 36 48 37
f 38 49 50
f 38 50 39
f 39 50 40
f 40 50 49
f 40 49 51
f 40 51 42
f 42 52 53
f 42 53 43
f 42 51 54
f 42 54 55
f 42 55 52
f 43 53 44
f 44 53 46
f 46 53 56
f 46 56 57
f 46 57 47
f 47 57 48
f 48 57 58
f 49 59 51
f 51 59 54
f 52 60 53
f 52 55 61
f 52 61 62
f 52 62 60
f 53 60 56
f 54 59 55
f 55 59 63
f 55 63 61
f 56 58 57
f 56 60 64
f 56 64 58
f 59 62 63
f 60 62 64
f 61 63 62

