# https://github.com/mikedh/trimesh
v -0.02953890 -0.03518162 0.03466218
v -0.02959874 -0.03540123 0.03796680
v -0.02616942 -0.03705687 0.03778557
v -0.02616942 -0.03705687 0.03428261
v -0.03389504 -0.03518162 0.03142458
v -0.03650791 -0.03530103 0.03688897
v -0.03261452 -0.03529193 0.03802151
v -0.03089787 -0.03529193 0.03804066
v -0.02746589 -0.03776628 0.03809400
v -0.02419081 -0.03876109 0.03790456
v -0.02410039 -0.03848076 0.03447410
v -0.02410039 -0.04241140 0.03164001
v -0.03529788 -0.03551153 0.03112640
v -0.03668875 -0.03548320 0.03160513
v -0.03767806 -0.03546195 0.03293737
v -0.03768338 -0.03532836 0.03518947
v -0.02575056 -0.04291335 0.03118043
v -0.03386179 -0.03874894 0.03595681
v -0.03526863 -0.03655289 0.03691769
v -0.03351607 -0.03662170 0.03769871
v -0.03175553 -0.03647901 0.03803929
v -0.02917324 -0.03776628 0.03811315
v -0.02475860 -0.04120104 0.03805912
v -0.02431979 -0.04468740 0.03668038
v -0.02422007 -0.04548891 0.03562443
v -0.02419081 -0.04395167 0.03127002
v -0.02789539 -0.04162608 0.03116743
v -0.02984075 -0.04117573 0.03149023
v -0.03173558 -0.03988442 0.03162018
v -0.03313045 -0.03955248 0.03230476
v -0.03446947 -0.03830771 0.03233144
v -0.03637627 -0.03686054 0.03338807
v -0.03670072 -0.03649318 0.03490360
v -0.03546941 -0.03756489 0.03527290
v -0.02787012 -0.04283846 0.03178294
v -0.03434847 -0.03767014 0.03668585
v -0.03357058 -0.03941585 0.03488787
v -0.03252942 -0.03992692 0.03581455
v -0.03058805 -0.04112412 0.03618455
v -0.03259591 -0.03888961 0.03689718
v -0.03221561 -0.03790088 0.03766383
v -0.03086197 -0.03783409 0.03796201
v -0.02875305 -0.03905457 0.03803929
v -0.02545404 -0.04364706 0.03703737
v -0.02817595 -0.04034285 0.03784438
v -0.02672125 -0.04228085 0.03740053
v -0.02905223 -0.04210273 0.03637604
v -0.02753104 -0.04327464 0.03609701
v -0.02564950 -0.04463579 0.03572975
v -0.02727175 -0.04395268 0.03487487
v -0.02465089 -0.04552028 0.03433185
v -0.02435038 -0.04535634 0.03236153
v -0.02563222 -0.04460442 0.03211259
v -0.03034604 -0.04195802 0.03341200
v -0.03363441 -0.03943913 0.03356862
v -0.03483514 -0.03837855 0.03439340
v -0.03130077 -0.04117776 0.03475998
v -0.02981682 -0.04213714 0.03523460
v -0.02801373 -0.04188616 0.03718168
v -0.03045641 -0.03980649 0.03738206
v -0.02882086 -0.04295585 0.03475998
v -0.02741669 -0.04393852 0.03344278
v -0.02619469 -0.04463680 0.03411779
v -0.02921845 -0.04276358 0.03348928
f 1 2 3
f 1 3 4
f 1 4 5
f 1 5 6
f 1 6 7
f 1 7 8
f 1 8 2
f 2 9 10
f 2 10 3
f 2 8 9
f 3 10 11
f 3 11 4
f 4 11 12
f 4 12 5
f 5 13 14
f 5 14 15
f 5 15 16
f 5 16 6
f 5 12 17
f 5 17 13
f 6 16 18
f 6 18 19
f 6 19 20
f 6 20 7
f 7 20 21
f 7 21 22
f 7 22 8
f 8 22 9
f 9 22 23
f 9 23 10
f 10 24 25
f 10 25 11
f 10 23 24
f 11 25 12
f 12 25 26
f 12 26 17
f 13 17 27
f 13 27 28
f 13 28 29
f 13 29 14
f 14 29 30
f 14 30 31
f 14 31 15
f 15 31 32
f 15 32 33
f 15 33 16
f 16 33 34
f 16 34 18
f 17 26 35
f 17 35 28
f 17 28 27
f 18 36 19
f 18 34 37
f 18 37 38
f 18 38 39
f 18 39 40
f 18 40 36
f 19 36 40
f 19 40 41
f 19 41 20
f 20 41 42
f 20 42 21
f 21 42 43
f 21 43 22
f 22 43 23
f 23 44 24
f 23 43 45
f 23 45 46
f 23 46 44
f 24 44 47
f 24 47 48
f 24 48 49
f 24 49 25
f 25 49 50
f 25 50 51
f 25 51 52
f 25 52 26
f 26 52 53
f 26 53 35
f 28 30 29
f 28 35 30
f 30 35 53
f 30 53 54
f 30 54 55
f 30 55 32
f 30 32 31
f 32 56 33
f 32 55 56
f 33 56 34
f 34 56 37
f 37 56 55
f 37 55 57
f 37 57 38
f 38 57 58
f 38 58 39
f 39 58 47
f 39 47 40
f 40 47 59
f 40 59 60
f 40 60 41
f 41 60 45
f 41 45 42
f 42 45 43
f 44 46 59
f 44 59 47
f 45 59 46
f 45 60 59
f 47 58 48
f 48 50 49
f 48 58 50
f 50 58 61
f 50 61 62
f 50 62 63
f 50 63 51
f 51 63 62
f 51 62 52
f 52 62 53
f 53 62 64
f 53 64 54
f 54 64 57
f 54 57 55
f 57 64 61
f 57 61 58
f 61 64 62

