# https://github.com/mikedh/trimesh
v 0.03595043 -0.02988303 0.03215356
v 0.03136578 -0.02988303 0.03467846
v 0.03270600 -0.02988303 0.03799097
v 0.03880188 -0.03017796 0.03521315
v 0.03883948 -0.03040862 0.03337211
v 0.03748471 -0.03046830 0.03208357
v 0.03002192 -0.03040748 0.03181101
v 0.02649732 -0.02994156 0.03261888
v 0.02984120 -0.02988533 0.03725861
v 0.03104073 -0.02988418 0.03770551
v 0.03248647 -0.03193949 0.03804867
v 0.03435186 -0.03028124 0.03800079
v 0.03581944 -0.03026632 0.03770920
v 0.02644881 -0.03528353 0.03797194
v 0.02822566 -0.03477056 0.03808244
v 0.03728458 -0.03041321 0.03696640
v 0.03648530 -0.03283575 0.03555999
v 0.03760599 -0.03198424 0.03421682
v 0.03620634 -0.03336822 0.03313331
v 0.03754293 -0.03161587 0.03265878
v 0.03614691 -0.03226311 0.03210015
v 0.03430941 -0.03375381 0.03195650
v 0.02694608 -0.03319149 0.03181101
v 0.02649368 -0.04160552 0.03445377
v 0.02644881 -0.03211048 0.03675277
v 0.02667197 -0.03101799 0.03588228
v 0.02679447 -0.03012632 0.03452253
v 0.02821353 -0.02996451 0.03621869
v 0.02644881 -0.03371938 0.03762509
v 0.03267568 -0.03331428 0.03782645
v 0.02822566 -0.03558878 0.03807016
v 0.03037850 -0.03446645 0.03800448
v 0.03469874 -0.03168473 0.03769815
v 0.02646094 -0.03932300 0.03752135
v 0.02683329 -0.03726883 0.03798176
v 0.03590555 -0.03229868 0.03684546
v 0.03479092 -0.03459154 0.03563182
v 0.03585461 -0.03381233 0.03488349
v 0.03403288 -0.03567141 0.03442185
v 0.03463689 -0.03493122 0.03290188
v 0.03122509 -0.03694522 0.03210751
v 0.02724809 -0.03959841 0.03195097
v 0.02714984 -0.04079763 0.03271342
v 0.02768108 -0.04085501 0.03436108
v 0.02806314 -0.04026286 0.03558455
v 0.02662831 -0.04110747 0.03577424
v 0.03122387 -0.03531221 0.03767543
v 0.02802432 -0.03792066 0.03767359
v 0.03461384 -0.03359544 0.03689826
v 0.02733056 -0.04005859 0.03656615
v 0.02855435 -0.03926447 0.03650230
v 0.03004860 -0.03694751 0.03735315
v 0.03325543 -0.03575633 0.03615607
v 0.03238702 -0.03695669 0.03537767
v 0.03123358 -0.03815935 0.03436046
v 0.03276058 -0.03684423 0.03370791
v 0.03356350 -0.03601224 0.03305412
v 0.03074721 -0.03832575 0.03283497
v 0.02834209 -0.04006433 0.03284049
v 0.02989578 -0.03929201 0.03395100
v 0.02878479 -0.04007466 0.03435187
v 0.02968596 -0.03921512 0.03518675
v 0.03114989 -0.03784492 0.03578406
v 0.03162412 -0.03598699 0.03713951
f 1 2 3
f 1 3 4
f 1 4 5
f 1 5 6
f 1 6 7
f 1 7 8
f 1 8 2
f 2 8 9
f 2 9 10
f 2 10 3
f 3 11 12
f 3 12 13
f 3 13 4
f 3 10 14
f 3 14 15
f 3 15 11
f 4 16 17
f 4 17 18
f 4 18 5
f 4 13 16
f 5 18 19
f 5 19 20
f 5 20 6
f 6 20 21
f 6 21 22
f 6 22 7
f 7 23 8
f 7 22 23
f 8 23 24
f 8 24 25
f 8 25 26
f 8 26 27
f 8 27 28
f 8 28 9
f 9 28 25
f 9 25 29
f 9 29 10
f 10 29 14
f 11 30 12
f 11 15 31
f 11 31 32
f 11 32 30
f 12 30 33
f 12 33 13
f 13 33 16
f 14 29 25
f 14 25 34
f 14 34 35
f 14 35 15
f 15 35 31
f 16 33 36
f 16 36 17
f 17 36 37
f 17 37 38
f 17 38 18
f 18 38 39
f 18 39 19
f 19 40 20
f 19 39 40
f 20 40 21
f 21 40 41
f 21 41 22
f 22 41 42
f 22 42 23
f 23 42 24
f 24 42 43
f 24 43 44
f 24 44 45
f 24 45 46
f 24 46 34
f 24 34 25
f 25 28 26
f 26 28 27
f 30 32 47
f 30 47 33
f 31 35 32
f 32 35 48
f 32 48 47
f 33 47 49
f 33 49 36
f 34 46 50
f 34 50 51
f 34 51 52
f 34 52 48
f 34 48 35
f 36 49 53
f 36 53 37
f 37 53 54
f 37 54 38
f 38 54 39
f 39 54 55
f 39 55 56
f 39 56 57
f 39 57 40
f 40 57 58
f 40 58 41
f 41 58 43
f 41 43 42
f 43 58 59
f 43 59 44
f 44 60 61
f 44 61 45
f 44 59 60
f 45 61 62
f 45 62 63
f 45 63 51
f 45 51 50
f 45 50 46
f 47 64 49
f 47 48 52
f 47 52 64
f 49 64 53
f 51 63 53
f 51 53 64
f 51 64 52
f 53 63 54
f 54 63 62
f 54 62 55
f 55 62 60
f 55 60 56
f 56 60 58
f 56 58 57
f 58 60 59
f 60 62 61

