# https://github.com/mikedh/trimesh
v 0.03530098 0.01532644 -0.02873653
v 0.02195259 0.03169384 -0.02873653
v 0.03422419 0.02376482 -0.02842327
v 0.03799379 0.01714913 -0.02797575
v 0.03883412 0.01579081 -0.02333645
v 0.03929682 0.01561897 -0.00041223
v 0.03642369 0.01532644 0.00936236
v 0.02191857 0.03293147 0.00897451
v 0.02239317 0.03549469 -0.02526825
v 0.02302257 0.03486053 -0.02786387
v 0.03157901 0.02724041 -0.02834868
v 0.02201383 0.03605520 -0.01040312
v 0.03315251 0.02538704 -0.02780047
v 0.03489782 0.02313067 -0.02624161
v 0.03586063 0.02152277 -0.02691661
v 0.03665504 0.01992920 -0.02770724
v 0.03823874 0.01699980 -0.02579782
v 0.03790193 0.01795922 -0.02290385
v 0.03861979 0.01746212 0.00597985
v 0.03916413 0.01624904 0.00865379
v 0.03837313 0.01810037 0.00936236
v 0.02222647 0.03622295 0.00936236
v 0.02280994 0.03528808 -0.02310896
v 0.02419462 0.03429388 -0.02525333
v 0.02557079 0.03302557 -0.02783776
v 0.02931998 0.02973818 -0.02791608
v 0.03122519 0.02794617 -0.02617448
v 0.03298581 0.02588005 -0.02559270
v 0.02452463 0.03467438 0.00916843
v 0.03349273 0.02530112 -0.02290385
v 0.03452869 0.02388552 -0.02152027
v 0.03552042 0.02227558 -0.02437694
v 0.03669246 0.02024627 -0.02474241
v 0.03766038 0.01928890 0.00040823
v 0.03721640 0.02035060 0.00887009
v 0.03460183 0.02461173 0.00856428
v 0.03120817 0.02888923 0.00916843
v 0.02734502 0.03244255 0.00936236
v 0.03760935 0.01944846 0.00245190
v 0.02622911 0.03275963 -0.02331408
v 0.02703202 0.03192091 -0.02704341
v 0.02934889 0.02995707 -0.02555914
v 0.03097513 0.02833690 -0.02417928
v 0.03152628 0.02783980 -0.02086018
v 0.03238192 0.02727315 -0.00449958
v 0.03331411 0.02643442 0.00810558
v 0.02673774 0.03266962 -0.00654698
v 0.03464606 0.02447876 0.00531603
v 0.03566671 0.02270108 -0.00286613
v 0.03580790 0.02189713 -0.02208340
v 0.03674179 0.02093976 -0.00163918
v 0.03697314 0.02073723 0.00613276
v 0.03585383 0.02266835 0.00807574
v 0.03575857 0.02277268 0.00527128
v 0.03131364 0.02872966 0.00602834
v 0.03011438 0.02990592 0.00347374
v 0.02863444 0.03108014 -0.00472334
v 0.02760018 0.03186158 -0.01145106
v 0.02799143 0.03126425 -0.02433592
v 0.03001742 0.02959498 -0.01431146
v 0.03036954 0.02954384 -0.00204568
v 0.03159602 0.02792162 -0.01472169
v 0.03138169 0.02851078 -0.00041223
v 0.03661761 0.02129775 0.00377955
f 1 2 3
f 1 3 4
f 1 4 5
f 1 5 6
f 1 6 7
f 1 7 8
f 1 8 2
f 2 9 10
f 2 10 11
f 2 11 3
f 2 8 12
f 2 12 9
f 3 11 13
f 3 13 14
f 3 14 15
f 3 15 16
f 3 16 4
f 4 16 17
f 4 17 5
f 5 17 18
f 5 18 19
f 5 19 6
f 6 19 20
f 6 20 7
f 7 20 21
f 7 21 38
f 7 38 22
f 7 22 8
f 8 22 12
f 9 12 23
f 9 23 24
f 9 24 10
f 10 25 11
f 10 24 25
f 11 25 26
f 11 26 27
f 11 27 28
f 11 28 13
f 12 22 29
f 12 29 23
f 13 28 14
f 14 28 30
f 14 30 31
f 14 31 32
f 14 32 15
f 15 32 33
f 15 33 16
f 16 33 17
f 17 33 18
f 18 33 34
f 18 34 19
f 19 21 20
f 19 34 21
f 21 35 36
f 21 36 37
f 21 37 38
f 21 34 39
f 21 39 35
f 22 38 29
f 23 29 24
f 24 29 40
f 24 40 41
f 24 41 25
f 25 41 26
f 26 41 42
f 26 42 27
f 27 42 43
f 27 43 44
f 27 44 28
f 28 44 45
f 28 45 46
f 28 46 30
f 29 38 47
f 29 47 40
f 30 46 31
f 31 46 48
f 31 48 49
f 31 49 32
f 32 49 50
f 32 50 33
f 33 50 51
f 33 51 34
f 34 51 39
f 35 39 52
f 35 52 53
f 35 53 36
f 36 53 54
f 36 54 48
f 36 48 46
f 36 46 37
f 37 46 55
f 37 55 56
f 37 56 38
f 38 56 57
f 38 57 58
f 38 58 47
f 39 51 52
f 40 59 41
f 40 47 58
f 40 58 59
f 41 59 42
f 42 59 60
f 42 60 43
f 43 60 61
f 43 61 44
f 44 61 62
f 44 62 45
f 45 63 55
f 45 55 46
f 45 62 63
f 48 54 49
f 49 54 64
f 49 64 51
f 49 51 50
f 51 64 52
f 52 64 53
f 53 64 54
f 55 63 61
f 55 61 56
f 56 61 59
f 56 59 57
f 57 59 58
f 59 61 60
f 61 63 62

