# https://github.com/mikedh/trimesh
v -0.01472766 -0.03198663 -0.03240770
v -0.01472766 -0.03204252 -0.03476829
v -0.01472766 -0.03288885 -0.03733838
v -0.01452910 -0.03547203 -0.03235903
v -0.00004279 -0.03514284 -0.03235903
v 0.01344524 -0.03246568 -0.03243416
v -0.01472766 -0.03218255 -0.03613005
v 0.01344524 -0.03283418 -0.03651202
v -0.01373764 -0.03463247 -0.03743996
v -0.01452083 -0.03540263 -0.03558513
v 0.01325220 -0.03461527 -0.03743414
v 0.01188712 -0.03510476 -0.03758915
v -0.00122585 -0.03640250 -0.03776267
v -0.01307854 -0.03599960 -0.03235903
v 0.01344524 -0.03576376 -0.03243416
v -0.00122585 -0.03824500 -0.03235903
v 0.01344524 -0.03561452 -0.03599408
v -0.01332674 -0.03580860 -0.03599408
v -0.00408837 -0.03694296 -0.03770236
v -0.00567406 -0.03680907 -0.03759391
v -0.01055798 -0.03614516 -0.03723469
v 0.01123630 -0.03608313 -0.03688922
v 0.00992087 -0.03599653 -0.03747858
v 0.00569328 -0.03693498 -0.03758544
v -0.01145976 -0.03653332 -0.03235903
v 0.01217117 -0.03622623 -0.03243416
v 0.01220702 -0.03608866 -0.03575602
v 0.00008959 -0.03826097 -0.03239659
v 0.00320857 -0.03811664 -0.03243416
v 0.00484666 -0.03791335 -0.03243416
v 0.00644338 -0.03767137 -0.03243416
v 0.00776984 -0.03742263 -0.03243416
v 0.00896394 -0.03714871 -0.03243416
v 0.01062409 -0.03670590 -0.03243416
v -0.00328035 -0.03810558 -0.03235903
v -0.00122585 -0.03816393 -0.03558513
v 0.00040397 -0.03821183 -0.03476882
v -0.01208576 -0.03620596 -0.03605334
v -0.00326932 -0.03756757 -0.03721247
v -0.00736178 -0.03704983 -0.03711089
v 0.00006752 -0.03739683 -0.03754312
v -0.00877649 -0.03700622 -0.03662364
v 0.00889224 -0.03697920 -0.03621046
v 0.00735894 -0.03703079 -0.03710560
v 0.00173595 -0.03787465 -0.03673051
v -0.01061314 -0.03667764 -0.03596657
v -0.00979134 -0.03701052 -0.03235903
v 0.01066270 -0.03659842 -0.03558513
v 0.00204205 -0.03817498 -0.03336686
v 0.00142984 -0.03815717 -0.03507461
v 0.00326924 -0.03792993 -0.03614380
v 0.00513622 -0.03773462 -0.03604963
v 0.00735894 -0.03736490 -0.03599408
v -0.00455166 -0.03783289 -0.03593853
v -0.00245304 -0.03804048 -0.03599408
v -0.00492947 -0.03793239 -0.03235903
v 0.00008959 -0.03813813 -0.03599408
v -0.00613184 -0.03765601 -0.03586500
v -0.00153196 -0.03774445 -0.03702413
v -0.00736178 -0.03743614 -0.03599408
v -0.00899435 -0.03713458 -0.03558513
v -0.00858621 -0.03730839 -0.03235903
v -0.00614838 -0.03777086 -0.03235903
v -0.00736454 -0.03755037 -0.03235903
f 1 2 7
f 1 7 3
f 1 3 4
f 1 4 5
f 1 5 6
f 1 6 2
f 2 6 8
f 2 8 7
f 3 9 10
f 3 10 4
f 3 7 8
f 3 8 11
f 3 11 12
f 3 12 13
f 3 13 9
f 4 10 14
f 4 14 25
f 4 25 47
f 4 47 62
f 4 62 64
f 4 64 63
f 4 63 56
f 4 56 35
f 4 35 16
f 4 16 5
f 5 15 6
f 5 16 15
f 6 15 17
f 6 17 8
f 8 17 11
f 9 18 10
f 9 13 19
f 9 19 20
f 9 20 21
f 9 21 18
f 10 18 14
f 11 17 22
f 11 22 12
f 12 22 23
f 12 23 24
f 12 24 13
f 13 24 19
f 14 18 25
f 15 26 27
f 15 27 17
f 15 16 26
f 16 28 29
f 16 29 30
f 16 30 31
f 16 31 32
f 16 32 33
f 16 33 34
f 16 34 26
f 16 35 36
f 16 36 37
f 16 37 28
f 17 27 22
f 18 21 38
f 18 38 25
f 19 39 40
f 19 40 20
f 19 24 41
f 19 41 39
f 20 40 21
f 21 42 38
f 21 40 42
f 22 43 44
f 22 44 23
f 22 27 43
f 23 44 24
f 24 45 41
f 24 44 45
f 25 46 47
f 25 38 46
f 26 34 48
f 26 48 27
f 27 48 43
f 28 37 49
f 28 49 29
f 29 49 50
f 29 50 51
f 29 51 52
f 29 52 30
f 30 52 31
f 31 52 53
f 31 53 32
f 32 53 33
f 33 53 48
f 33 48 34
f 35 54 55
f 35 55 36
f 35 56 54
f 36 55 57
f 36 57 37
f 37 57 50
f 37 50 49
f 38 42 46
f 39 54 58
f 39 58 40
f 39 41 59
f 39 59 55
f 39 55 54
f 40 58 60
f 40 60 42
f 41 45 59
f 42 61 46
f 42 60 61
f 43 48 53
f 43 53 44
f 44 53 52
f 44 52 51
f 44 51 45
f 45 51 57
f 45 57 59
f 46 61 47
f 47 61 62
f 50 57 51
f 54 56 58
f 55 59 57
f 56 63 58
f 58 63 60
f 60 63 64
f 60 64 61
f 61 64 62

