# https://github.com/mikedh/trimesh
v -0.01680645 -0.03625097 0.03174271
v -0.01680645 -0.03944329 0.03174271
v -0.01680645 -0.03629806 0.03236391
v 0.00674022 -0.03939962 0.03311939
v 0.00674022 -0.03935390 0.03231497
v 0.00674022 -0.03933001 0.03180107
v -0.00281582 -0.03986502 0.03174271
v -0.01680645 -0.04227871 0.03403801
v -0.01540739 -0.04002812 0.03174271
v -0.01680414 -0.04227871 0.03328441
v -0.01680645 -0.03636971 0.03313382
v 0.00674022 -0.03943783 0.03337163
v 0.00674022 -0.04224254 0.03180107
v -0.00284348 -0.04277278 0.03174271
v -0.01680645 -0.04131105 0.03812034
v -0.00999322 -0.04322249 0.03473011
v -0.00999322 -0.04322249 0.03806136
v -0.01679723 -0.04220433 0.03814607
v -0.01500173 -0.04019667 0.03174271
v -0.01431257 -0.04043757 0.03174271
v -0.01185787 -0.04121483 0.03174271
v -0.01094053 -0.04148029 0.03174271
v -0.01023754 -0.04165362 0.03174271
v -0.00918421 -0.04188496 0.03174271
v -0.00776671 -0.04217976 0.03174271
v -0.00682401 -0.04234286 0.03174271
v -0.00612332 -0.04243498 0.03174271
v -0.00368476 -0.04270726 0.03174271
v -0.01680645 -0.03654441 0.03407691
v 0.00674022 -0.03955794 0.03405809
v 0.00674022 -0.04319109 0.03507961
v 0.00561774 -0.04241519 0.03180107
v 0.00496776 -0.04250937 0.03180107
v 0.00468887 -0.04254690 0.03180107
v 0.00443534 -0.04257761 0.03180107
v 0.00367703 -0.04265540 0.03180107
v 0.00286110 -0.04272706 0.03180107
v 0.00204056 -0.04279666 0.03180107
v 0.00122464 -0.04284102 0.03180107
v 0.00040640 -0.04285535 0.03180107
v -0.00041183 -0.04286490 0.03180107
v -0.00122776 -0.04284921 0.03180107
v -0.01680645 -0.04049284 0.03798292
v -0.01595134 -0.04220433 0.03815297
v 0.00674022 -0.04307713 0.03792268
v -0.00283887 -0.04322249 0.03460461
v -0.00281582 -0.04322249 0.03781978
v -0.01680645 -0.03676824 0.03476839
v 0.00674022 -0.03975993 0.03484180
v 0.00456671 -0.04319109 0.03473450
v 0.00375770 -0.04319109 0.03466862
v -0.01680645 -0.03973673 0.03776707
v 0.00674022 -0.04244112 0.03773068
v -0.01680645 -0.03714016 0.03552323
v 0.00674022 -0.03999741 0.03543288
v -0.01680645 -0.03894036 0.03735608
v 0.00674022 -0.04201735 0.03751734
v -0.01680645 -0.03753527 0.03612435
v 0.00674022 -0.04027310 0.03586144
v -0.01680645 -0.03829957 0.03691747
v 0.00674022 -0.04137452 0.03707874
v -0.01680645 -0.03789422 0.03653033
v 0.00674022 -0.04101966 0.03679386
v 0.00674022 -0.04062932 0.03634020
f 1 2 8
f 1 8 15
f 1 15 43
f 1 43 52
f 1 52 56
f 1 56 60
f 1 60 62
f 1 62 58
f 1 58 54
f 1 54 48
f 1 48 29
f 1 29 11
f 1 11 3
f 1 3 4
f 1 4 5
f 1 5 6
f 1 6 7
f 1 7 14
f 1 14 28
f 1 28 27
f 1 27 26
f 1 26 25
f 1 25 24
f 1 24 23
f 1 23 22
f 1 22 21
f 1 21 20
f 1 20 19
f 1 19 9
f 1 9 2
f 2 9 10
f 2 10 8
f 3 11 4
f 4 12 30
f 4 30 49
f 4 49 55
f 4 55 59
f 4 59 64
f 4 64 63
f 4 63 61
f 4 61 57
f 4 57 53
f 4 53 45
f 4 45 31
f 4 31 13
f 4 13 6
f 4 6 5
f 4 11 12
f 6 13 7
f 7 13 14
f 8 10 16
f 8 16 17
f 8 17 18
f 8 18 15
f 9 19 10
f 10 19 20
f 10 20 21
f 10 21 22
f 10 22 23
f 10 23 24
f 10 24 25
f 10 25 26
f 10 26 27
f 10 27 28
f 10 28 14
f 10 14 16
f 11 29 30
f 11 30 12
f 13 31 32
f 13 32 14
f 14 32 33
f 14 33 34
f 14 34 35
f 14 35 36
f 14 36 37
f 14 37 38
f 14 38 39
f 14 39 40
f 14 40 41
f 14 41 42
f 14 42 16
f 15 18 44
f 15 44 45
f 15 45 43
f 16 42 41
f 16 41 46
f 16 46 47
f 16 47 17
f 17 47 45
f 17 45 44
f 17 44 18
f 29 48 49
f 29 49 30
f 31 45 47
f 31 47 46
f 31 46 50
f 31 50 39
f 31 39 38
f 31 38 37
f 31 37 36
f 31 36 35
f 31 35 34
f 31 34 33
f 31 33 32
f 39 50 40
f 40 50 41
f 41 50 51
f 41 51 46
f 43 45 52
f 45 53 52
f 46 51 50
f 48 54 55
f 48 55 49
f 52 53 57
f 52 57 56
f 54 58 59
f 54 59 55
f 56 57 61
f 56 61 60
f 58 62 63
f 58 63 64
f 58 64 59
f 60 61 63
f 60 63 62

