# https://github.com/mikedh/trimesh
v -0.04354722 0.02320262 0.03437341
v -0.04284349 0.02363757 0.03268161
v -0.04142759 0.02302665 0.03188655
v -0.04007222 0.02261329 0.03266691
v -0.03841001 0.02261329 0.03804735
v -0.04071261 0.02299345 0.03780234
v -0.04270134 0.02365417 0.03618036
v -0.04110529 0.02655935 0.03590901
v -0.04018340 0.02846515 0.03524932
v -0.04202154 0.02583721 0.03397098
v -0.04149656 0.02534250 0.03230490
v -0.04038467 0.02776957 0.03300686
v -0.04017074 0.02635184 0.03187858
v -0.03804548 0.02902461 0.03184734
v -0.03109407 0.03553886 0.03185531
v -0.03647054 0.02344832 0.03469498
v -0.03802015 0.02261329 0.03486527
v -0.02916867 0.03193809 0.03449040
v -0.03647054 0.02344832 0.03777232
v -0.02916867 0.03272332 0.03789054
v -0.03313347 0.03067807 0.03810431
v -0.03804126 0.02413560 0.03810125
v -0.03885758 0.02413560 0.03808287
v -0.03926574 0.02454399 0.03800692
v -0.03996806 0.02571602 0.03745503
v -0.04146137 0.02499720 0.03676349
v -0.03873091 0.02958904 0.03633656
v -0.03682662 0.03273992 0.03521380
v -0.03786673 0.03157121 0.03476910
v -0.03894203 0.03030289 0.03437402
v -0.03885336 0.02927528 0.03233553
v -0.03714330 0.03202110 0.03279860
v -0.03751206 0.03059673 0.03216708
v -0.03281679 0.03557538 0.03217382
v -0.02957402 0.03726869 0.03194045
v -0.02916867 0.03873289 0.03224120
v -0.02920386 0.03859013 0.03675185
v -0.02934178 0.03512715 0.03803448
v -0.03517991 0.02965545 0.03802530
v -0.03648180 0.02733130 0.03809880
v -0.03822000 0.02673035 0.03788748
v -0.03868306 0.02747407 0.03753650
v -0.03671262 0.03071791 0.03718307
v -0.03475767 0.03354009 0.03692275
v -0.03439173 0.03489806 0.03600457
v -0.03569644 0.03380405 0.03541470
v -0.03423550 0.03556210 0.03436055
v -0.03357118 0.03602029 0.03304545
v -0.03056064 0.03839921 0.03282249
v -0.02930238 0.03957291 0.03354405
v -0.02927704 0.03954303 0.03518623
v -0.03076754 0.03797755 0.03613136
v -0.03208351 0.03616471 0.03691050
v -0.03109547 0.03599041 0.03745013
v -0.02955431 0.03669761 0.03767860
v -0.03096036 0.03545253 0.03772516
v -0.03201454 0.03389867 0.03785134
v -0.03454796 0.03173556 0.03775027
v -0.03738820 0.02892832 0.03763879
v -0.03338118 0.03424065 0.03725780
v -0.03286464 0.03658472 0.03540674
v -0.03133193 0.03813194 0.03442180
v -0.03204691 0.03729857 0.03314162
f 1 2 3
f 1 3 4
f 1 4 5
f 1 5 6
f 1 6 7
f 1 7 8
f 1 8 9
f 1 9 10
f 1 10 2
f 2 11 3
f 2 10 12
f 2 12 11
f 3 11 13
f 3 13 14
f 3 14 15
f 3 15 4
f 4 16 17
f 4 17 5
f 4 15 18
f 4 18 16
f 5 17 19
f 5 19 20
f 5 20 21
f 5 21 22
f 5 22 23
f 5 23 6
f 6 23 24
f 6 24 25
f 6 25 26
f 6 26 7
f 7 26 8
f 8 27 9
f 8 26 27
f 9 27 28
f 9 28 29
f 9 29 30
f 9 30 10
f 10 30 12
f 11 12 31
f 11 31 13
f 12 30 32
f 12 32 31
f 13 31 33
f 13 33 14
f 14 33 34
f 14 34 15
f 15 34 35
f 15 35 18
f 16 19 17
f 16 18 19
f 18 35 36
f 18 36 20
f 18 20 19
f 20 36 37
f 20 37 38
f 20 38 21
f 21 39 40
f 21 40 22
f 21 38 39
f 22 40 23
f 23 40 24
f 24 40 39
f 24 39 41
f 24 41 42
f 24 42 25
f 25 42 26
f 26 42 27
f 27 42 43
f 27 43 44
f 27 44 45
f 27 45 28
f 28 45 46
f 28 46 47
f 28 47 29
f 29 47 30
f 30 47 32
f 31 32 33
f 32 47 48
f 32 48 34
f 32 34 33
f 34 48 49
f 34 49 36
f 34 36 35
f 36 49 50
f 36 50 51
f 36 51 37
f 37 51 52
f 37 52 53
f 37 53 54
f 37 54 55
f 37 55 38
f 38 55 56
f 38 56 57
f 38 57 39
f 39 57 58
f 39 58 59
f 39 59 41
f 41 59 42
f 42 59 43
f 43 59 44
f 44 60 53
f 44 53 45
f 44 59 60
f 45 53 52
f 45 52 61
f 45 61 46
f 46 61 47
f 47 61 62
f 47 62 48
f 48 62 63
f 48 63 49
f 49 63 50
f 50 63 62
f 50 62 51
f 51 62 61
f 51 61 52
f 53 60 54
f 54 60 56
f 54 56 55
f 56 60 58
f 56 58 57
f 58 60 59

