# https://github.com/mikedh/trimesh
v -0.03836463 0.00006641 -0.03235384
v -0.03545306 0.00006641 -0.03599409
v -0.03522789 0.00006641 -0.03235384
v -0.03834335 0.00162774 -0.03235384
v -0.03831758 0.00019671 -0.03607956
v -0.03620364 0.00015403 -0.03748712
v -0.02743867 0.02301682 -0.03670631
v -0.02703874 0.02301682 -0.03558522
v -0.02691999 0.02301682 -0.03235384
v -0.03828285 0.00163897 -0.03599409
v -0.03822796 0.00324748 -0.03235384
v -0.03816859 0.00327444 -0.03599409
v -0.03733847 0.00098299 -0.03750927
v -0.03776305 0.00490990 -0.03699489
v -0.03764766 0.00368555 -0.03731565
v -0.03759613 0.00245671 -0.03741167
v -0.03705392 0.00368555 -0.03773033
v -0.02872362 0.02289326 -0.03760898
v -0.03105041 0.02268658 -0.03235384
v -0.03799831 0.00450104 -0.03640295
v -0.03793781 0.00571865 -0.03235384
v -0.03776977 0.00641507 -0.03597087
v -0.03729366 0.00858969 -0.03640295
v -0.03698895 0.00959613 -0.03661557
v -0.03685451 0.00818083 -0.03732093
v -0.03678730 0.00684865 -0.03761848
v -0.03623949 0.00818083 -0.03773033
v -0.03558525 0.00940967 -0.03774299
v -0.03201384 0.01904723 -0.03766702
v -0.03177971 0.01981554 -0.03757944
v -0.03027967 0.02263491 -0.03732515
v -0.03106386 0.02260346 -0.03599145
v -0.03149404 0.02207104 -0.03476854
v -0.03207658 0.02121961 -0.03235384
v -0.03750427 0.00822351 -0.03235384
v -0.03720180 0.00940967 -0.03558522
v -0.03689709 0.01057337 -0.03575668
v -0.03643441 0.01186062 -0.03640348
v -0.03612634 0.01217738 -0.03699753
v -0.03606137 0.01075983 -0.03742644
v -0.03437424 0.01478559 -0.03763958
v -0.03124534 0.02192951 -0.03697273
v -0.03282267 0.01838226 -0.03741959
v -0.03267816 0.02016824 -0.03599462
v -0.03207098 0.02121512 -0.03558522
v -0.03276890 0.02011432 -0.03235384
v -0.03714690 0.00982079 -0.03235384
v -0.03667639 0.01147871 -0.03235384
v -0.03651059 0.01186062 -0.03558522
v -0.03605016 0.01307824 -0.03601044
v -0.03541945 0.01445984 -0.03660871
v -0.03448627 0.01624133 -0.03698012
v -0.03532087 0.01328267 -0.03739426
v -0.03371329 0.01789252 -0.03685719
v -0.03421517 0.01740278 -0.03597879
v -0.03345002 0.01889447 -0.03558522
v -0.03358782 0.01872148 -0.03235384
v -0.03614091 0.01308497 -0.03235384
v -0.03565359 0.01431607 -0.03558522
v -0.03524917 0.01530228 -0.03558522
v -0.03444482 0.01710175 -0.03235384
v -0.03568048 0.01430034 -0.03235384
v -0.03515283 0.01555839 -0.03235384
f 1 2 3
f 1 3 9
f 1 9 19
f 1 19 34
f 1 34 46
f 1 46 57
f 1 57 61
f 1 61 63
f 1 63 62
f 1 62 58
f 1 58 48
f 1 48 47
f 1 47 35
f 1 35 21
f 1 21 11
f 1 11 4
f 1 4 5
f 1 5 2
f 2 5 6
f 2 6 7
f 2 7 8
f 2 8 3
f 3 8 9
f 4 10 5
f 4 11 12
f 4 12 10
f 5 13 6
f 5 10 14
f 5 14 15
f 5 15 16
f 5 16 13
f 6 13 17
f 6 17 18
f 6 18 7
f 7 18 19
f 7 19 9
f 7 9 8
f 10 12 20
f 10 20 14
f 11 21 12
f 12 21 22
f 12 22 20
f 13 16 17
f 14 20 23
f 14 23 24
f 14 24 25
f 14 25 26
f 14 26 15
f 15 26 17
f 15 17 16
f 17 26 27
f 17 27 28
f 17 28 18
f 18 29 30
f 18 30 31
f 18 31 32
f 18 32 19
f 18 28 29
f 19 32 33
f 19 33 34
f 20 22 23
f 21 35 22
f 22 35 36
f 22 36 23
f 23 36 37
f 23 37 24
f 24 37 38
f 24 38 39
f 24 39 25
f 25 39 40
f 25 40 26
f 26 40 27
f 27 40 41
f 27 41 28
f 28 41 29
f 29 41 30
f 30 42 31
f 30 41 43
f 30 43 42
f 31 42 32
f 32 42 44
f 32 44 45
f 32 45 33
f 33 45 34
f 34 45 46
f 35 47 36
f 36 47 37
f 37 47 48
f 37 48 49
f 37 49 38
f 38 49 50
f 38 50 51
f 38 51 39
f 39 51 52
f 39 52 53
f 39 53 40
f 40 53 41
f 41 53 52
f 41 52 43
f 42 43 54
f 42 54 44
f 43 52 54
f 44 54 55
f 44 55 56
f 44 56 45
f 45 56 46
f 46 56 57
f 48 58 49
f 49 58 59
f 49 59 50
f 50 59 51
f 51 59 60
f 51 60 55
f 51 55 52
f 52 55 54
f 55 61 56
f 55 60 61
f 56 61 57
f 58 62 59
f 59 62 60
f 60 62 63
f 60 63 61

