# https://github.com/mikedh/trimesh
v -0.04939452 0.00083414 0.03433738
v -0.04869897 0.00106158 0.03241962
v -0.04687353 0.00005468 0.03186551
v -0.04909671 0.00018937 0.03580182
v -0.04908286 0.00347947 0.03549755
v -0.04925403 0.00307097 0.03425760
v -0.04893742 0.00322112 0.03279068
v -0.04816074 0.00552419 0.03212711
v -0.04767296 0.00491033 0.03183088
v -0.04321275 0.00005468 0.03442829
v -0.04379056 0.00005468 0.03790015
v -0.04703777 0.00777206 0.03182346
v -0.04188695 0.02257088 0.03192303
v -0.03989034 0.02261283 0.03290015
v -0.04772144 0.00023353 0.03741159
v -0.04885134 0.00163790 0.03619947
v -0.04908880 0.00481980 0.03437139
v -0.04865346 0.00327632 0.03640293
v -0.04848229 0.00619325 0.03603930
v -0.04832795 0.00990510 0.03495890
v -0.04892456 0.00644277 0.03425760
v -0.04852880 0.00885624 0.03384634
v -0.04794406 0.00824018 0.03230769
v -0.04676173 0.01078835 0.03185500
v -0.03928681 0.01972240 0.03492365
v -0.03928681 0.01954796 0.03792304
v -0.04589996 0.00018937 0.03810485
v -0.04008921 0.02202106 0.03806342
v -0.04602363 0.01349771 0.03183954
v -0.04407946 0.02056811 0.03240355
v -0.04392116 0.02234565 0.03373502
v -0.04318999 0.02235006 0.03642087
v -0.04580102 0.01588911 0.03213886
v -0.04622052 0.00654655 0.03793973
v -0.04781841 0.00249023 0.03728914
v -0.04758392 0.00464536 0.03727739
v -0.04758293 0.00940386 0.03669669
v -0.04741671 0.01302517 0.03554641
v -0.04794208 0.01186149 0.03425822
v -0.04744540 0.01365007 0.03386057
v -0.04752357 0.01154353 0.03261134
v -0.04659847 0.01308700 0.03207145
v -0.04540130 0.00491033 0.03814072
v -0.04157430 0.02162359 0.03779626
v -0.04219465 0.01975552 0.03789211
v -0.04213232 0.01840416 0.03806527
v -0.04545967 0.01752091 0.03241344
v -0.04571890 0.01866692 0.03426688
v -0.04490363 0.02052395 0.03436026
v -0.04428328 0.02116431 0.03569112
v -0.04601671 0.01694017 0.03585933
v -0.04430999 0.01909309 0.03681295
v -0.04307522 0.02003816 0.03747900
v -0.04670731 0.01473868 0.03261752
v -0.04540130 0.00736576 0.03809496
v -0.04537162 0.00915655 0.03799539
v -0.04446731 0.01262771 0.03799601
v -0.04666377 0.00821368 0.03761444
v -0.04667169 0.01155677 0.03703311
v -0.04652328 0.01402324 0.03647343
v -0.04679438 0.01567713 0.03434356
v -0.04335918 0.01513172 0.03807517
v -0.04346207 0.01699979 0.03786119
v -0.04523805 0.01637048 0.03704301
f 1 2 3
f 1 3 4
f 1 4 5
f 1 5 6
f 1 6 7
f 1 7 2
f 2 7 8
f 2 8 9
f 2 9 3
f 3 10 11
f 3 11 4
f 3 9 12
f 3 12 13
f 3 13 14
f 3 14 10
f 4 11 15
f 4 15 16
f 4 16 5
f 5 17 6
f 5 16 18
f 5 18 19
f 5 19 20
f 5 20 21
f 5 21 17
f 6 17 21
f 6 21 7
f 7 21 22
f 7 22 23
f 7 23 8
f 8 23 24
f 8 24 9
f 9 24 12
f 10 14 25
f 10 25 26
f 10 26 11
f 11 27 15
f 11 26 28
f 11 28 27
f 12 24 29
f 12 29 13
f 13 30 31
f 13 31 32
f 13 32 14
f 13 29 33
f 13 33 30
f 14 32 28
f 14 28 26
f 14 26 25
f 15 27 34
f 15 34 35
f 15 35 18
f 15 18 16
f 18 36 37
f 18 37 19
f 18 35 36
f 19 37 20
f 20 22 21
f 20 37 38
f 20 38 39
f 20 39 22
f 22 39 40
f 22 40 41
f 22 41 23
f 23 41 42
f 23 42 24
f 24 42 29
f 27 28 43
f 27 43 34
f 28 32 44
f 28 44 45
f 28 45 46
f 28 46 43
f 29 42 33
f 30 33 47
f 30 47 31
f 31 47 48
f 31 48 49
f 31 49 50
f 31 50 32
f 32 50 51
f 32 51 52
f 32 52 53
f 32 53 44
f 33 54 47
f 33 42 54
f 34 43 55
f 34 55 56
f 34 56 57
f 34 57 58
f 34 58 35
f 35 58 36
f 36 58 37
f 37 58 59
f 37 59 60
f 37 60 38
f 38 60 51
f 38 51 61
f 38 61 39
f 39 61 40
f 40 61 48
f 40 48 54
f 40 54 41
f 41 54 42
f 43 46 62
f 43 62 55
f 44 53 45
f 45 53 63
f 45 63 46
f 46 63 62
f 47 54 48
f 48 50 49
f 48 61 51
f 48 51 50
f 51 60 64
f 51 64 52
f 52 64 53
f 53 64 63
f 55 62 57
f 55 57 56
f 57 62 63
f 57 63 58
f 58 63 64
f 58 64 59
f 59 64 60

