# https://github.com/mikedh/trimesh
v 0.00024663 0.03847232 -0.03597192
v 0.00077960 0.03843957 -0.03243785
v 0.00260413 0.03842778 -0.03516801
v 0.00157766 0.03841992 -0.03623498
v -0.00003537 0.03763918 -0.03747538
v -0.00003537 0.03542532 -0.03243785
v 0.00248851 0.03834919 -0.03243785
v 0.00470783 0.03813566 -0.03243785
v 0.00368418 0.03828499 -0.03599407
v 0.00511673 0.03794571 -0.03664616
v 0.00298201 0.03752259 -0.03759663
v -0.00003537 0.03614712 -0.03724607
v 0.00450198 0.03640125 -0.03782331
v 0.01363025 0.03262722 -0.03243785
v -0.00003537 0.03555239 -0.03580903
v 0.02499195 0.02509095 -0.03600777
v 0.02481710 0.02509095 -0.03243890
v 0.00741783 0.03772695 -0.03243785
v 0.00710200 0.03770206 -0.03616117
v 0.00984020 0.03686891 -0.03690711
v 0.00811155 0.03660037 -0.03764038
v 0.02637373 0.02525993 -0.03771472
v 0.01002349 0.03586679 -0.03775109
v 0.02278954 0.02972170 -0.03771682
v 0.02591408 0.02688954 -0.03772684
v 0.01227384 0.03641959 -0.03243785
v 0.02871432 0.02544202 -0.03243890
v 0.02877354 0.02526779 -0.03602675
v 0.00903086 0.03737456 -0.03243785
v 0.00899984 0.03737063 -0.03558446
v 0.01061851 0.03692655 -0.03576633
v 0.01240638 0.03630694 -0.03606892
v 0.01502050 0.03519084 -0.03661611
v 0.01346105 0.03519215 -0.03743848
v 0.02793600 0.02566995 -0.03720284
v 0.01758668 0.03294162 -0.03769890
v 0.02170103 0.03072121 -0.03761983
v 0.02475224 0.02841173 -0.03757291
v 0.01053109 0.03696454 -0.03243785
v 0.02733817 0.02691967 -0.03243890
v 0.02610583 0.02810257 -0.03243890
v 0.02517524 0.02893703 -0.03243890
v 0.02057304 0.03240191 -0.03243890
v 0.01889515 0.03342500 -0.03243890
v 0.01396019 0.03579998 -0.03243837
v 0.01367537 0.03590215 -0.03558446
v 0.02750454 0.02669042 -0.03555073
v 0.02667547 0.02739912 -0.03627715
v 0.01646151 0.03408915 -0.03719968
v 0.01717214 0.03434460 -0.03558446
v 0.01809427 0.03371319 -0.03655127
v 0.02379063 0.02951211 -0.03731513
v 0.02527958 0.02871695 -0.03634146
v 0.01884157 0.03288136 -0.03723869
v 0.02064354 0.03203119 -0.03698460
v 0.02386677 0.02998239 -0.03558446
v 0.02377935 0.03012386 -0.03278525
v 0.02247088 0.03107097 -0.03558446
v 0.02135135 0.03184910 -0.03575210
v 0.01935198 0.03311584 -0.03580376
v 0.01724264 0.03430792 -0.03243890
v 0.01560987 0.03510700 -0.03243890
v 0.02282056 0.03059283 -0.03676583
v 0.02427285 0.02957760 -0.03640314
f 1 2 3
f 1 3 4
f 1 4 5
f 1 5 6
f 1 6 2
f 2 6 14
f 2 14 26
f 2 26 39
f 2 39 29
f 2 29 18
f 2 18 8
f 2 8 7
f 2 7 3
f 3 8 9
f 3 9 4
f 3 7 8
f 4 9 10
f 4 10 11
f 4 11 5
f 5 12 15
f 5 15 6
f 5 11 13
f 5 13 12
f 6 15 16
f 6 16 17
f 6 17 14
f 8 18 9
f 9 18 19
f 9 19 10
f 10 19 20
f 10 20 21
f 10 21 11
f 11 21 13
f 12 13 22
f 12 22 16
f 12 16 15
f 13 21 23
f 13 23 24
f 13 24 25
f 13 25 22
f 14 17 27
f 14 27 26
f 16 22 28
f 16 28 17
f 17 28 27
f 18 29 30
f 18 30 19
f 19 30 20
f 20 30 31
f 20 31 32
f 20 32 33
f 20 33 34
f 20 34 21
f 21 34 23
f 22 25 35
f 22 35 28
f 23 34 36
f 23 36 24
f 24 36 37
f 24 37 38
f 24 38 25
f 25 38 35
f 26 31 39
f 26 27 40
f 26 40 41
f 26 41 42
f 26 42 43
f 26 43 44
f 26 44 45
f 26 45 46
f 26 46 31
f 27 28 47
f 27 47 40
f 28 35 48
f 28 48 47
f 29 39 30
f 30 39 31
f 31 46 32
f 32 46 33
f 33 49 34
f 33 46 50
f 33 50 51
f 33 51 49
f 34 49 36
f 35 38 52
f 35 52 53
f 35 53 48
f 36 54 37
f 36 49 54
f 37 55 52
f 37 52 38
f 37 54 55
f 40 47 41
f 41 47 53
f 41 53 42
f 42 53 56
f 42 56 57
f 42 57 43
f 43 57 58
f 43 58 59
f 43 59 60
f 43 60 44
f 44 60 50
f 44 50 61
f 44 61 45
f 45 62 46
f 45 61 62
f 46 62 50
f 47 48 53
f 49 51 54
f 50 60 51
f 50 62 61
f 51 60 55
f 51 55 54
f 52 55 63
f 52 63 64
f 52 64 53
f 53 64 56
f 55 59 63
f 55 60 59
f 56 64 58
f 56 58 57
f 58 64 63
f 58 63 59

