# https://github.com/mikedh/trimesh
v 0.03862132 -0.00000726 -0.02873653
v 0.03530506 0.01532439 -0.02873653
v 0.04013600 0.01080864 -0.02873653
v 0.04155929 0.00238343 -0.02847741
v 0.04167091 0.00094271 -0.02818744
v 0.04177578 0.00020284 -0.02740389
v 0.04214659 -0.00000726 -0.01144305
v 0.03934121 -0.00000726 0.00326535
v 0.03979292 0.00005727 0.02780815
v 0.03870297 0.01529888 -0.02853293
v 0.03642646 0.01532439 0.00936095
v 0.03954347 0.01532439 0.00763962
v 0.03970976 0.01231539 -0.02860697
v 0.03977793 0.01267707 -0.02740389
v 0.04002588 0.01166707 -0.02773705
v 0.04056524 0.00981514 -0.02740389
v 0.04049033 0.00951949 -0.02853910
v 0.04081094 0.00821984 -0.02844039
v 0.04099822 0.00721284 -0.02847741
v 0.04141771 0.00409278 -0.02847741
v 0.04169713 0.00258003 -0.02702138
v 0.04181923 0.00143496 -0.02616997
v 0.04185818 0.00020284 -0.02621932
v 0.04191736 0.00020284 -0.02463373
v 0.04295711 0.00073111 0.03184308
v 0.04234959 -0.00000726 0.00285198
v 0.03952773 -0.00000726 0.00936095
v 0.03991277 0.00005727 0.03166417
v 0.03923933 0.01386566 -0.02839720
v 0.03898763 0.01527487 -0.02534940
v 0.03890673 0.01525086 -0.02706456
v 0.03937641 0.01387317 -0.02740389
v 0.03774038 0.01316331 0.03202817
v 0.03793964 0.01316331 0.03359526
v 0.04121246 0.01316331 0.03429243
v 0.03955470 0.01532439 0.00884887
v 0.03905206 0.01522684 -0.02373913
v 0.03944833 0.01394220 -0.02616997
v 0.03999068 0.01230188 -0.02616997
v 0.04045137 0.01063305 -0.02637356
v 0.04086263 0.00906927 -0.02621315
v 0.04096376 0.00815381 -0.02740389
v 0.04122744 0.00654651 -0.02740389
v 0.04122744 0.00579313 -0.02834785
v 0.04155630 0.00429689 -0.02699053
v 0.04174132 0.00324486 -0.02536791
v 0.04181399 0.00286517 -0.02372062
v 0.04185669 0.00163906 -0.02453501
v 0.04289569 0.00236842 0.03184308
v 0.04243200 -0.00000726 0.00936095
v 0.04224247 0.00912330 0.03429243
v 0.03932473 0.00883966 0.03429243
v 0.03923933 0.01464605 -0.02494221
v 0.04205445 0.01025786 0.03429243
v 0.04039669 0.01104276 -0.02534940
v 0.04073453 0.00983465 -0.02494221
v 0.04117650 0.00736442 -0.02616997
v 0.04122819 0.00736442 -0.02453501
v 0.04138775 0.00572860 -0.02678693
v 0.04155330 0.00491069 -0.02534940
v 0.04169114 0.00415281 -0.02372062
v 0.04277508 0.00409278 0.03184308
v 0.04148738 0.00572860 -0.02372062
v 0.04138550 0.00613831 -0.02534940
f 1 2 3
f 1 3 4
f 1 4 5
f 1 5 6
f 1 6 7
f 1 7 26
f 1 26 50
f 1 50 27
f 1 27 8
f 1 8 9
f 1 9 2
f 2 10 3
f 2 9 11
f 2 11 36
f 2 36 12
f 2 12 10
f 3 10 13
f 3 13 14
f 3 14 15
f 3 15 16
f 3 16 17
f 3 17 18
f 3 18 19
f 3 19 20
f 3 20 4
f 4 20 21
f 4 21 5
f 5 21 6
f 6 21 22
f 6 22 23
f 6 23 7
f 7 24 25
f 7 25 26
f 7 23 24
f 8 27 9
f 9 28 11
f 9 27 28
f 10 29 13
f 10 12 30
f 10 30 31
f 10 31 32
f 10 32 29
f 11 28 33
f 11 33 34
f 11 34 35
f 11 35 36
f 12 36 35
f 12 35 37
f 12 37 30
f 13 29 14
f 14 32 38
f 14 38 39
f 14 39 40
f 14 40 15
f 14 29 32
f 15 40 16
f 16 40 41
f 16 41 42
f 16 42 17
f 17 42 18
f 18 42 19
f 19 42 43
f 19 43 44
f 19 44 20
f 20 44 45
f 20 45 21
f 21 45 46
f 21 46 22
f 22 46 47
f 22 47 48
f 22 48 24
f 22 24 23
f 24 48 49
f 24 49 25
f 25 28 50
f 25 50 26
f 25 49 51
f 25 51 52
f 25 52 28
f 27 50 28
f 28 52 34
f 28 34 33
f 30 37 53
f 30 53 38
f 30 38 31
f 31 38 32
f 34 52 35
f 35 52 51
f 35 51 54
f 35 54 55
f 35 55 39
f 35 39 38
f 35 38 53
f 35 53 37
f 39 55 40
f 40 55 56
f 40 56 41
f 41 57 42
f 41 56 54
f 41 54 58
f 41 58 57
f 42 57 43
f 43 57 59
f 43 59 45
f 43 45 44
f 45 59 60
f 45 60 46
f 46 60 61
f 46 61 47
f 47 61 62
f 47 62 49
f 47 49 48
f 49 62 51
f 51 62 61
f 51 61 63
f 51 63 58
f 51 58 54
f 54 56 55
f 57 58 64
f 57 64 59
f 58 63 64
f 59 64 60
f 60 64 63
f 60 63 61

