# https://github.com/mikedh/trimesh
v 0.03031212 -0.02587756 0.03180820
v 0.02337524 -0.03229124 0.03180820
v 0.03031212 -0.03011622 0.03180820
v 0.03031212 -0.02581877 0.03067239
v 0.01186193 -0.03807687 0.03164123
v 0.01196849 -0.04106405 0.03179282
v 0.02401999 -0.03538516 0.03180820
v 0.02943259 -0.03099335 0.03180820
v 0.03026155 -0.03016572 0.03067239
v 0.03025975 -0.03016263 0.02985514
v 0.03031212 -0.02949434 0.00937115
v 0.03031212 -0.02577855 0.02985514
v 0.03031212 -0.02575535 0.02903570
v 0.03031212 -0.02526032 0.00936675
v 0.01186374 -0.03787731 0.02331055
v 0.01186193 -0.03779687 0.01840924
v 0.01186193 -0.03764991 0.00936456
v 0.01186374 -0.04058294 0.00938872
v 0.01279203 -0.04081035 0.03179282
v 0.02462500 -0.03495511 0.03180820
v 0.01350179 -0.04058140 0.03179282
v 0.01431811 -0.04029366 0.03179282
v 0.01609522 -0.03963775 0.03179282
v 0.01691334 -0.03930361 0.03179282
v 0.01775314 -0.03891996 0.03179282
v 0.01864530 -0.03848836 0.03179282
v 0.02061746 -0.03747820 0.03179282
v 0.02311698 -0.03597610 0.03180160
v 0.02330661 -0.03523665 0.00937115
v 0.02437216 -0.03448019 0.00936675
v 0.02833093 -0.03200196 0.03180820
v 0.02938022 -0.03102429 0.03067239
v 0.02925380 -0.03049213 0.00937994
v 0.02860725 -0.03106760 0.00936675
v 0.02231150 -0.03587710 0.00936456
v 0.02337163 -0.03179777 0.00936456
v 0.01263671 -0.04033698 0.00936456
v 0.01268186 -0.04040504 0.01268409
v 0.02540158 -0.03438892 0.03180820
v 0.01335550 -0.04017919 0.01268409
v 0.01379436 -0.04004460 0.01350354
v 0.01431811 -0.03987598 0.01432079
v 0.01513623 -0.03945985 0.00936456
v 0.01580445 -0.03920460 0.00936456
v 0.01677428 -0.03879466 0.00936456
v 0.01777481 -0.03834604 0.00936456
v 0.01840872 -0.03805831 0.00936456
v 0.01840872 -0.03810007 0.01104739
v 0.01840872 -0.03814030 0.01268409
v 0.01912390 -0.03779223 0.01268409
v 0.02150602 -0.03695533 0.03179282
v 0.01951580 -0.03756328 0.01186684
v 0.02004315 -0.03721212 0.00936456
v 0.02082516 -0.03678206 0.00936456
v 0.02167579 -0.03627157 0.00936456
v 0.02588920 -0.03331997 0.00936675
v 0.02651047 -0.03353809 0.03180820
v 0.02751100 -0.03270738 0.03160828
v 0.02763562 -0.03257125 0.03067239
v 0.02662244 -0.03274141 0.00937994
v 0.01344580 -0.04006471 0.00936456
v 0.01297805 -0.04024725 0.01023014
v 0.01431811 -0.03975687 0.00936456
v 0.01925393 -0.03763753 0.00936456
f 1 2 7
f 1 7 20
f 1 20 39
f 1 39 57
f 1 57 31
f 1 31 8
f 1 8 3
f 1 3 11
f 1 11 14
f 1 14 13
f 1 13 12
f 1 12 4
f 1 4 5
f 1 5 6
f 1 6 2
f 2 6 7
f 3 8 9
f 3 9 10
f 3 10 11
f 4 12 5
f 5 12 13
f 5 13 14
f 5 14 15
f 5 15 16
f 5 16 17
f 5 17 18
f 5 18 6
f 6 19 7
f 6 18 19
f 7 19 21
f 7 21 22
f 7 22 23
f 7 23 24
f 7 24 25
f 7 25 26
f 7 26 27
f 7 27 28
f 7 28 29
f 7 29 30
f 7 30 20
f 8 31 32
f 8 32 10
f 8 10 9
f 10 32 11
f 11 33 34
f 11 34 14
f 11 32 33
f 14 34 35
f 14 35 36
f 14 36 17
f 14 17 16
f 14 16 15
f 17 36 35
f 17 35 55
f 17 55 54
f 17 54 53
f 17 53 64
f 17 64 47
f 17 47 46
f 17 46 45
f 17 45 44
f 17 44 43
f 17 43 63
f 17 63 61
f 17 61 37
f 17 37 18
f 18 38 19
f 18 37 38
f 19 38 21
f 20 30 39
f 21 38 40
f 21 40 41
f 21 41 22
f 22 41 42
f 22 42 43
f 22 43 23
f 23 43 44
f 23 44 24
f 24 44 45
f 24 45 46
f 24 46 47
f 24 47 25
f 25 47 48
f 25 48 49
f 25 49 26
f 26 49 50
f 26 50 27
f 27 51 28
f 27 50 52
f 27 52 53
f 27 53 54
f 27 54 51
f 28 51 55
f 28 55 35
f 28 35 29
f 29 35 30
f 30 35 56
f 30 56 39
f 31 57 58
f 31 58 59
f 31 59 34
f 31 34 33
f 31 33 32
f 34 60 56
f 34 56 35
f 34 59 58
f 34 58 60
f 37 61 62
f 37 62 38
f 38 62 40
f 39 56 57
f 40 62 61
f 40 61 63
f 40 63 41
f 41 63 42
f 42 63 43
f 47 64 50
f 47 50 48
f 48 50 49
f 50 64 52
f 51 54 55
f 52 64 53
f 56 60 57
f 57 60 58

