# https://github.com/mikedh/trimesh
v -0.04333514 -0.00885234 0.03804278
v -0.04333514 -0.00875145 0.03483129
v -0.04231097 -0.01716712 0.03306344
v -0.04221978 -0.01645671 0.03816334
v -0.04269819 0.00982859 0.03791410
v -0.04333514 0.00005095 0.03777230
v -0.04333514 -0.00205087 0.03462827
v -0.04285602 0.00071512 0.03178285
v -0.04274519 -0.00245862 0.03178472
v -0.04262102 -0.00395091 0.03178472
v -0.03995609 -0.02676400 0.03196775
v -0.04004167 -0.02892887 0.03404232
v -0.03984946 -0.02836979 0.03606192
v -0.03950433 -0.02688171 0.03740061
v -0.03933317 -0.02563743 0.03784975
v -0.03976950 -0.02310685 0.03808214
v -0.03885827 -0.02454029 0.03811399
v -0.03679871 -0.02699100 0.03813898
v -0.04151338 0.00982859 0.03749494
v -0.04320887 0.00982859 0.03468637
v -0.03634345 -0.02535579 0.03807027
v -0.04333514 -0.00018445 0.03457954
v -0.03995188 0.00005095 0.03178285
v -0.03659809 -0.02214842 0.03178409
v -0.03748476 -0.02063091 0.03178409
v -0.03857908 -0.01852909 0.03178409
v -0.03912904 -0.01737310 0.03178409
v -0.04201775 -0.00814192 0.03178472
v -0.04227519 -0.00654455 0.03178472
v -0.04277816 0.00266140 0.03178285
v -0.03854190 -0.02902976 0.03204209
v -0.03966006 -0.02876914 0.03263866
v -0.04148322 -0.01056742 0.03178534
v -0.04108337 -0.01195882 0.03178534
v -0.04046396 -0.01389249 0.03178534
v -0.03758157 -0.03165283 0.03280170
v -0.03844299 -0.03106852 0.03406543
v -0.03930511 -0.02970234 0.03527981
v -0.03815678 -0.03025722 0.03652980
v -0.03813714 -0.02870188 0.03745246
v -0.03713963 -0.02959305 0.03762237
v -0.03816801 -0.02704565 0.03791597
v -0.03679871 -0.02842444 0.03800280
v -0.04032788 0.00982859 0.03650481
v -0.04190902 0.00924008 0.03178285
v -0.04224363 0.00749558 0.03178285
v -0.04249897 0.00570063 0.03178285
v -0.04267364 0.00415369 0.03178285
v -0.03875796 0.00982859 0.03204896
v -0.03634345 -0.02370797 0.03783726
v -0.03647392 -0.03200593 0.03675906
v -0.03616948 -0.01716712 0.03250185
v -0.03664719 -0.03263227 0.03267364
v -0.03754790 -0.03042957 0.03208956
v -0.03665982 -0.03311569 0.03386241
v -0.03750932 -0.03216567 0.03395236
v -0.03655951 -0.03307786 0.03531917
v -0.03765663 -0.03176632 0.03541662
v -0.03935141 0.00982859 0.03494186
v -0.03634345 -0.02217364 0.03748806
v -0.03888142 0.00982859 0.03333018
v -0.03634345 -0.01836515 0.03559341
v -0.03634345 -0.01960102 0.03637738
v -0.03634345 -0.02090415 0.03702393
f 1 2 3
f 1 3 4
f 1 4 5
f 1 5 6
f 1 6 22
f 1 22 7
f 1 7 2
f 2 7 8
f 2 8 9
f 2 9 3
f 3 9 10
f 3 10 11
f 3 11 12
f 3 12 4
f 4 12 13
f 4 13 14
f 4 14 15
f 4 15 16
f 4 16 17
f 4 17 18
f 4 18 5
f 5 19 44
f 5 44 59
f 5 59 61
f 5 61 49
f 5 49 20
f 5 20 6
f 5 18 21
f 5 21 19
f 6 20 22
f 7 22 8
f 8 23 24
f 8 24 25
f 8 25 26
f 8 26 27
f 8 27 28
f 8 28 29
f 8 29 10
f 8 10 9
f 8 22 20
f 8 20 30
f 8 30 48
f 8 48 47
f 8 47 46
f 8 46 45
f 8 45 23
f 10 29 11
f 11 25 24
f 11 24 31
f 11 31 32
f 11 32 12
f 11 29 28
f 11 28 33
f 11 33 34
f 11 34 35
f 11 35 27
f 11 27 26
f 11 26 25
f 12 32 36
f 12 36 37
f 12 37 38
f 12 38 13
f 13 38 39
f 13 39 14
f 14 39 40
f 14 40 41
f 14 41 15
f 15 41 42
f 15 42 17
f 15 17 16
f 17 42 43
f 17 43 18
f 18 43 21
f 19 21 44
f 20 45 46
f 20 46 47
f 20 47 48
f 20 48 30
f 20 49 45
f 21 50 44
f 21 43 51
f 21 51 52
f 21 52 50
f 23 45 49
f 23 49 24
f 24 53 54
f 24 54 31
f 24 49 52
f 24 52 53
f 27 35 34
f 27 34 28
f 28 34 33
f 31 54 32
f 32 54 53
f 32 53 36
f 36 53 55
f 36 55 56
f 36 56 37
f 37 56 57
f 37 57 58
f 37 58 38
f 38 58 39
f 39 58 51
f 39 51 40
f 40 51 41
f 41 51 43
f 41 43 42
f 44 50 60
f 44 60 59
f 49 61 62
f 49 62 52
f 50 52 60
f 51 58 57
f 51 57 52
f 52 57 53
f 52 62 63
f 52 63 64
f 52 64 60
f 53 57 55
f 55 57 56
f 59 60 64
f 59 64 61
f 61 64 63
f 61 63 62

