# https://github.com/mikedh/trimesh
v 0.03511261 0.01917633 0.03238214
v 0.03611260 0.01720754 0.03184963
v 0.04013890 0.00006165 0.03329195
v 0.03576586 0.01917633 0.03495872
v 0.03924016 0.02361457 0.03786186
v 0.03890452 0.02476585 0.03298450
v 0.04097245 0.02476827 0.03199589
v 0.03839689 0.01917633 0.03185083
v 0.03972420 0.01626668 0.03184963
v 0.04216384 0.00810370 0.03184904
v 0.03895999 0.00884381 0.03184904
v 0.04295578 0.00069776 0.03184904
v 0.04853824 0.00010519 0.03237856
v 0.04318047 0.00006165 0.03759322
v 0.04129006 0.00006165 0.03610852
v 0.03747735 0.01917633 0.03690370
v 0.04119991 0.02416844 0.03718130
v 0.04481707 0.00010519 0.03794484
v 0.04294746 0.01431240 0.03794723
v 0.04254109 0.01707209 0.03789649
v 0.04159935 0.02023570 0.03783559
v 0.04199602 0.02211500 0.03739920
v 0.04270613 0.02476101 0.03502320
v 0.04273942 0.02424100 0.03299703
v 0.04383650 0.02230365 0.03289256
v 0.04301681 0.02123461 0.03189142
v 0.04066316 0.01381899 0.03184963
v 0.04263679 0.00523517 0.03184904
v 0.04285454 0.00302935 0.03184904
v 0.04796959 0.00573099 0.03199410
v 0.04727196 0.00061069 0.03741472
v 0.04851744 0.00634291 0.03244005
v 0.04924420 0.00204979 0.03336358
v 0.04928026 0.00097349 0.03485963
v 0.04370058 0.02045580 0.03680281
v 0.04300156 0.02338721 0.03594733
v 0.04499182 0.00644450 0.03794663
v 0.04458267 0.00940977 0.03794007
v 0.04442734 0.01263869 0.03780515
v 0.04454384 0.01647468 0.03733054
v 0.04396548 0.01819435 0.03727204
v 0.04416243 0.02190941 0.03522975
v 0.04527476 0.01943512 0.03493604
v 0.04519709 0.01907232 0.03266571
v 0.04625533 0.01427370 0.03206634
v 0.04866584 0.00389039 0.03607270
v 0.04717487 0.00397504 0.03744755
v 0.04770885 0.01190825 0.03274749
v 0.04821508 0.00871804 0.03267944
v 0.04833575 0.01022244 0.03402265
v 0.04873241 0.00818351 0.03436055
v 0.04884753 0.00640096 0.03490082
v 0.04608612 0.01435352 0.03676520
v 0.04549806 0.01767192 0.03605360
v 0.04588363 0.00974597 0.03758605
v 0.04668667 0.00797793 0.03742308
v 0.04731218 0.01435835 0.03408295
v 0.04663813 0.01591597 0.03500589
v 0.04640928 0.01615058 0.03274511
v 0.04795850 0.00720396 0.03650730
v 0.04739679 0.00940977 0.03676341
v 0.04772688 0.01268222 0.03464113
v 0.04706947 0.01158657 0.03651566
f 1 2 3
f 1 3 4
f 1 4 5
f 1 5 6
f 1 6 7
f 1 7 2
f 2 7 8
f 2 8 9
f 2 9 10
f 2 10 11
f 2 11 3
f 3 12 13
f 3 13 14
f 3 14 15
f 3 15 4
f 3 11 12
f 4 16 5
f 4 15 16
f 5 17 6
f 5 16 14
f 5 14 18
f 5 18 19
f 5 19 20
f 5 20 21
f 5 21 22
f 5 22 17
f 6 17 23
f 6 23 7
f 7 23 24
f 7 24 25
f 7 25 26
f 7 26 8
f 8 26 9
f 9 27 10
f 9 26 27
f 10 28 29
f 10 29 12
f 10 12 11
f 10 27 26
f 10 26 28
f 12 29 30
f 12 30 13
f 13 31 18
f 13 18 14
f 13 30 32
f 13 32 33
f 13 33 34
f 13 34 31
f 14 16 15
f 17 22 35
f 17 35 36
f 17 36 23
f 18 31 37
f 18 37 19
f 19 37 38
f 19 38 20
f 20 38 39
f 20 39 21
f 21 39 40
f 21 40 22
f 22 40 41
f 22 41 35
f 23 36 42
f 23 42 25
f 23 25 24
f 25 42 43
f 25 43 44
f 25 44 26
f 26 44 45
f 26 45 30
f 26 30 29
f 26 29 28
f 30 45 32
f 31 34 46
f 31 46 47
f 31 47 37
f 32 45 48
f 32 48 49
f 32 49 50
f 32 50 51
f 32 51 33
f 33 51 34
f 34 51 52
f 34 52 46
f 35 41 53
f 35 53 54
f 35 54 36
f 36 54 42
f 37 55 38
f 37 47 55
f 38 55 39
f 39 55 40
f 40 53 41
f 40 55 56
f 40 56 53
f 42 54 43
f 43 57 44
f 43 54 58
f 43 58 57
f 44 57 59
f 44 59 45
f 45 59 48
f 46 52 60
f 46 60 47
f 47 60 61
f 47 61 56
f 47 56 55
f 48 50 49
f 48 59 57
f 48 57 50
f 50 57 62
f 50 62 51
f 51 62 52
f 52 62 60
f 53 56 61
f 53 61 63
f 53 63 54
f 54 63 58
f 57 58 62
f 58 63 62
f 60 62 61
f 61 62 63

