# https://github.com/mikedh/trimesh
v -0.00004550 0.01655897 -0.02886074
v -0.00004550 0.01655897 -0.03168112
v -0.00909778 0.01655897 -0.02882243
v -0.00326802 -0.00612913 -0.02884176
v 0.01021811 -0.00899569 -0.02893460
v 0.01738226 -0.00827839 -0.02902537
v 0.00326162 0.01507708 -0.02891389
v 0.00489980 0.01507708 -0.02896428
v 0.00910292 0.01507708 -0.02923797
v 0.01038731 0.01507708 -0.03025540
v -0.00321033 0.01655897 -0.03169803
v 0.00986433 0.01507708 -0.03176084
v 0.00818385 0.01488265 -0.03220709
v -0.01185499 0.01430724 -0.02883934
v -0.00510616 -0.00653901 -0.02883934
v -0.01400077 0.01655897 -0.02886764
v -0.01676183 0.01349272 -0.02886972
v 0.00487288 -0.01028314 -0.02890457
v 0.00673025 -0.00982596 -0.02891113
v 0.01103335 -0.01025161 -0.02894978
v 0.01758607 -0.01026738 -0.02910958
v 0.01758991 -0.00296304 -0.02969595
v 0.01267538 0.00776749 -0.02909957
v 0.00939902 0.01267821 -0.02908507
v 0.01103335 0.01104131 -0.02914444
v 0.01247926 0.01108597 -0.03009699
v 0.01242158 0.01137237 -0.03164040
v -0.02169559 0.01655897 -0.03132219
v 0.01111411 0.01285425 -0.03202763
v 0.01144482 0.01001397 -0.03231684
v 0.00899140 0.01328778 -0.03227577
v -0.02168790 0.00736024 -0.03223264
v -0.00470238 0.01389998 -0.03207560
v -0.01812698 0.01313276 -0.02888973
v -0.01513135 -0.00367771 -0.02898878
v -0.00670973 -0.01009134 -0.02894806
v -0.00326802 -0.01009134 -0.02889767
v 0.00221180 -0.01028314 -0.02890285
v -0.02168790 0.01655897 -0.02903710
v 0.01021427 -0.01028314 -0.03181848
v 0.01758607 -0.01025161 -0.03135498
v 0.01758991 -0.00814702 -0.03178604
v 0.01758991 -0.00268453 -0.03183367
v 0.01354061 0.00893146 -0.03025816
v 0.01301763 0.00937287 -0.03192271
v -0.02169559 0.00599396 -0.03181365
v -0.02169559 0.01144593 -0.02897602
v 0.01001430 0.01165088 -0.03230994
v 0.01758607 -0.00469979 -0.03228716
v -0.01513135 -0.00204081 -0.03234446
v -0.01594659 0.00082312 -0.03234722
v -0.01594659 0.00327191 -0.03234791
v -0.01492369 -0.00408497 -0.03230684
v -0.01330474 -0.01009134 -0.03153099
v -0.02169559 0.00718157 -0.02911924
v -0.01185884 -0.01009134 -0.02909750
v 0.00017754 -0.01028314 -0.02890423
v 0.00577273 -0.01028314 -0.03189200
v -0.02169559 0.00568655 -0.03032235
v 0.00530742 -0.00776867 -0.03213634
v -0.01389694 -0.00592419 -0.03227923
v -0.00004550 -0.01028314 -0.03183229
v -0.01322014 -0.01009134 -0.02957964
v 0.00203876 -0.01028314 -0.03186749
f 1 2 11
f 1 11 28
f 1 28 39
f 1 39 16
f 1 16 3
f 1 3 4
f 1 4 5
f 1 5 6
f 1 6 7
f 1 7 8
f 1 8 9
f 1 9 10
f 1 10 2
f 2 10 12
f 2 12 13
f 2 13 11
f 3 14 15
f 3 15 4
f 3 16 17
f 3 17 14
f 4 15 18
f 4 18 19
f 4 19 5
f 5 19 20
f 5 20 6
f 6 21 22
f 6 22 23
f 6 23 7
f 6 20 21
f 7 23 8
f 8 24 9
f 8 23 24
f 9 24 25
f 9 25 23
f 9 23 26
f 9 26 10
f 10 26 27
f 10 27 12
f 11 13 28
f 12 27 29
f 12 29 13
f 13 29 30
f 13 30 31
f 13 31 32
f 13 32 33
f 13 33 28
f 14 17 15
f 15 17 34
f 15 34 35
f 15 35 36
f 15 36 37
f 15 37 38
f 15 38 18
f 16 39 34
f 16 34 17
f 18 38 57
f 18 57 62
f 18 62 64
f 18 64 58
f 18 58 40
f 18 40 21
f 18 21 20
f 18 20 19
f 21 41 42
f 21 42 22
f 21 40 41
f 22 42 43
f 22 43 44
f 22 44 23
f 23 44 26
f 23 25 24
f 26 44 27
f 27 44 43
f 27 43 45
f 27 45 29
f 28 32 46
f 28 46 59
f 28 59 55
f 28 55 47
f 28 47 39
f 28 33 32
f 29 45 30
f 30 48 31
f 30 45 49
f 30 49 50
f 30 50 51
f 30 51 52
f 30 52 48
f 31 48 52
f 31 52 32
f 32 52 51
f 32 51 50
f 32 50 53
f 32 53 54
f 32 54 46
f 34 39 47
f 34 47 35
f 35 47 55
f 35 55 56
f 35 56 36
f 36 56 57
f 36 57 37
f 37 57 38
f 40 58 49
f 40 49 42
f 40 42 41
f 42 49 43
f 43 49 45
f 46 54 59
f 49 58 60
f 49 60 61
f 49 61 50
f 50 61 53
f 53 61 54
f 54 62 63
f 54 63 59
f 54 61 62
f 55 59 63
f 55 63 56
f 56 63 57
f 57 63 62
f 58 64 61
f 58 61 60
f 61 64 62

