# https://github.com/mikedh/trimesh
v 0.03031212 -0.03011109 0.03067454
v 0.03046150 -0.02995269 0.02990661
v 0.03122891 -0.02918123 0.03180747
v 0.03034291 -0.03008229 0.03180747
v 0.03031212 -0.02587323 0.03180747
v 0.03031212 -0.02948776 0.00936456
v 0.03114567 -0.02869573 0.00938826
v 0.03121636 -0.02917095 0.02985684
v 0.03206131 -0.02831515 0.03180747
v 0.03703975 -0.02173412 0.03357797
v 0.03361778 -0.02175881 0.03357797
v 0.03883454 -0.00909460 0.03165104
v 0.03879349 -0.00909460 0.03082860
v 0.03876841 -0.00909460 0.03001327
v 0.03031212 -0.02581357 0.03067454
v 0.03031212 -0.02525813 0.00936456
v 0.03174203 -0.02805388 0.00936456
v 0.03239313 -0.02787696 0.02740374
v 0.03268390 -0.02760335 0.03180747
v 0.03776041 -0.02053065 0.03357797
v 0.03320158 -0.02696150 0.03180747
v 0.03368734 -0.02635462 0.03180747
v 0.03425634 -0.02563871 0.03180747
v 0.03476604 -0.02494749 0.03180747
v 0.03523127 -0.02429535 0.03180747
v 0.03601350 -0.02318651 0.03180747
v 0.03526320 -0.02344572 0.00936456
v 0.03592684 -0.02240889 0.00936456
v 0.03637269 -0.02167858 0.00936456
v 0.03684020 -0.02090918 0.00937641
v 0.03642400 -0.01670835 0.03357797
v 0.04196004 -0.00925301 0.03180747
v 0.04131464 -0.00924272 0.00936456
v 0.03831800 -0.00909460 0.00936456
v 0.03858596 -0.00909460 0.02167747
v 0.03031212 -0.02577243 0.02985684
v 0.03031212 -0.02574980 0.02903914
v 0.03356875 -0.02580329 0.00936456
v 0.03299291 -0.02652949 0.00938826
v 0.03358015 -0.02622296 0.02249517
v 0.03810819 -0.01989909 0.03357797
v 0.03732710 -0.02004104 0.00938826
v 0.03472043 -0.02494749 0.02985684
v 0.03509786 -0.02442084 0.02985684
v 0.03480709 -0.02410197 0.00936456
v 0.03815038 -0.01838086 0.00936456
v 0.03966124 -0.01670835 0.03357797
v 0.04173883 -0.01022813 0.03180747
v 0.04102159 -0.01050174 0.00936456
v 0.03428256 -0.02484051 0.00936456
v 0.03856886 -0.01904534 0.03357797
v 0.03768401 -0.01933953 0.00938826
v 0.03848676 -0.01767524 0.00936456
v 0.03889042 -0.01840967 0.03357797
v 0.03929864 -0.01753946 0.03357797
v 0.03888358 -0.01677212 0.00936456
v 0.03956432 -0.01511401 0.00936456
v 0.03986421 -0.01431787 0.00936456
v 0.04047198 -0.01431787 0.03180747
v 0.04089844 -0.01310617 0.03180747
v 0.04123482 -0.01202202 0.03180747
v 0.04152103 -0.01104690 0.03180747
v 0.04039444 -0.01263713 0.00936456
v 0.04010823 -0.01357933 0.00936456
f 1 2 3
f 1 3 4
f 1 4 5
f 1 5 15
f 1 15 36
f 1 36 37
f 1 37 16
f 1 16 6
f 1 6 2
f 2 6 7
f 2 7 8
f 2 8 3
f 3 8 9
f 3 9 10
f 3 10 4
f 4 10 11
f 4 11 5
f 5 12 13
f 5 13 14
f 5 14 15
f 5 11 12
f 6 16 34
f 6 34 33
f 6 33 49
f 6 49 63
f 6 63 64
f 6 64 58
f 6 58 57
f 6 57 56
f 6 56 53
f 6 53 46
f 6 46 29
f 6 29 28
f 6 28 27
f 6 27 45
f 6 45 50
f 6 50 38
f 6 38 17
f 6 17 7
f 7 18 8
f 7 17 18
f 8 18 9
f 9 19 10
f 9 18 19
f 10 20 41
f 10 41 51
f 10 51 54
f 10 54 55
f 10 55 47
f 10 47 31
f 10 31 11
f 10 19 21
f 10 21 22
f 10 22 23
f 10 23 24
f 10 24 25
f 10 25 26
f 10 26 27
f 10 27 28
f 10 28 29
f 10 29 30
f 10 30 20
f 11 31 12
f 12 31 32
f 12 32 33
f 12 33 34
f 12 34 35
f 12 35 14
f 12 14 13
f 14 35 36
f 14 36 15
f 16 37 34
f 17 38 39
f 17 39 18
f 18 39 40
f 18 40 23
f 18 23 22
f 18 22 21
f 18 21 19
f 20 30 42
f 20 42 41
f 23 40 38
f 23 38 43
f 23 43 24
f 24 43 44
f 24 44 25
f 25 44 26
f 26 44 45
f 26 45 27
f 29 46 30
f 30 46 42
f 31 47 32
f 32 47 48
f 32 48 33
f 33 48 49
f 34 37 36
f 34 36 35
f 38 50 43
f 38 40 39
f 41 42 51
f 42 46 52
f 42 52 51
f 43 50 44
f 44 50 45
f 46 53 54
f 46 54 52
f 47 55 56
f 47 56 57
f 47 57 58
f 47 58 59
f 47 59 60
f 47 60 61
f 47 61 62
f 47 62 48
f 48 62 49
f 49 62 61
f 49 61 63
f 51 52 54
f 53 56 55
f 53 55 54
f 58 64 60
f 58 60 59
f 60 64 61
f 61 64 63

