# https://github.com/mikedh/trimesh
v -0.01753230 -0.03852759 0.00936455
v -0.01644410 -0.03898748 0.00936455
v -0.01523177 -0.04010039 0.03173997
v -0.01732159 -0.03921341 0.03173997
v -0.01762756 -0.03586594 0.03161701
v -0.01762756 -0.03542500 0.01111243
v -0.01762467 -0.03541626 0.00982787
v 0.01186081 -0.03765373 0.00936675
v -0.00281987 -0.03940072 0.00936455
v -0.01392419 -0.03995098 0.00936455
v -0.01431387 -0.04043783 0.03173997
v -0.00267555 -0.04278536 0.03179706
v -0.00281987 -0.03986716 0.03179706
v -0.01762756 -0.03582366 0.03067720
v 0.01186081 -0.03808010 0.03164336
v -0.01762756 -0.03559190 0.02129006
v 0.01186081 -0.03779950 0.01840694
v 0.01186081 -0.04058360 0.00936675
v -0.00284296 -0.04204343 0.00936455
v -0.01186035 -0.04061348 0.00936455
v -0.01268589 -0.04037807 0.00938651
v -0.01186035 -0.04121475 0.03173997
v -0.01058741 -0.04156750 0.03173997
v -0.00888727 -0.04194722 0.03173997
v -0.00777020 -0.04217899 0.03173997
v -0.00647705 -0.04238962 0.03173997
v -0.00368004 -0.04270811 0.03173997
v -0.00043275 -0.04232038 0.00936675
v 0.00040722 -0.04237358 0.00936675
v -0.00122653 -0.04285023 0.03179706
v 0.01186081 -0.04109742 0.03179706
v -0.01762756 -0.03573037 0.02744055
v 0.01186081 -0.03788113 0.02331241
v 0.01070621 -0.04142976 0.03179706
v 0.01056478 -0.04095457 0.00938431
v 0.00940441 -0.04124537 0.00936675
v -0.00408704 -0.04202302 0.00936455
v 0.00858753 -0.04141883 0.00936675
v 0.00773890 -0.04159520 0.00936675
v 0.00648039 -0.04185174 0.00936675
v 0.00531714 -0.04205290 0.00936675
v 0.00407595 -0.04219575 0.00936675
v 0.00286362 -0.04230434 0.00936675
v 0.00163398 -0.04235828 0.00936675
v -0.01058452 -0.04095384 0.00936455
v -0.00900850 -0.04130221 0.00937114
v -0.00777020 -0.04153106 0.00938651
v -0.00655210 -0.04171691 0.00936455
v -0.00531668 -0.04188600 0.00938651
v 0.00040722 -0.04278099 0.02781165
v -0.00000266 -0.04286116 0.03179706
v 0.00858753 -0.04191588 0.03179706
v 0.00747912 -0.04174534 0.01350148
v 0.00777065 -0.04200771 0.02822007
v 0.00695089 -0.04216732 0.02822007
v 0.00572413 -0.04234880 0.02740103
v 0.00403265 -0.04256235 0.02740103
v 0.00204386 -0.04275330 0.02903911
v 0.00286362 -0.04268916 0.02862849
v 0.00163398 -0.04275402 0.02822007
v 0.00163398 -0.04281889 0.03179706
v 0.00736077 -0.04214473 0.03179706
v 0.00511220 -0.04248728 0.03179706
v 0.00368050 -0.04265636 0.03179706
f 1 2 3
f 1 3 4
f 1 4 5
f 1 5 6
f 1 6 7
f 1 7 8
f 1 8 9
f 1 9 19
f 1 19 37
f 1 37 48
f 1 48 45
f 1 45 20
f 1 20 10
f 1 10 2
f 2 10 3
f 3 10 11
f 3 11 12
f 3 12 4
f 4 12 13
f 4 13 5
f 5 14 32
f 5 32 16
f 5 16 6
f 5 13 15
f 5 15 14
f 6 16 17
f 6 17 8
f 6 8 7
f 8 17 33
f 8 33 15
f 8 15 31
f 8 31 18
f 8 18 9
f 9 18 19
f 10 20 21
f 10 21 11
f 11 21 22
f 11 22 12
f 12 22 23
f 12 23 24
f 12 24 25
f 12 25 26
f 12 26 27
f 12 27 28
f 12 28 29
f 12 29 30
f 12 30 51
f 12 51 61
f 12 61 64
f 12 64 63
f 12 63 62
f 12 62 52
f 12 52 34
f 12 34 31
f 12 31 13
f 13 31 15
f 14 15 32
f 15 33 32
f 16 32 33
f 16 33 17
f 18 31 34
f 18 34 35
f 18 35 36
f 18 36 19
f 19 36 38
f 19 38 39
f 19 39 40
f 19 40 41
f 19 41 42
f 19 42 43
f 19 43 44
f 19 44 29
f 19 29 37
f 20 23 22
f 20 22 21
f 20 45 23
f 23 45 24
f 24 45 46
f 24 46 25
f 25 46 47
f 25 47 26
f 26 47 48
f 26 48 49
f 26 49 27
f 27 37 28
f 27 49 37
f 28 37 29
f 29 44 50
f 29 50 30
f 30 50 51
f 34 52 36
f 34 36 35
f 36 52 38
f 37 49 48
f 38 52 53
f 38 53 39
f 39 53 40
f 40 53 54
f 40 54 55
f 40 55 41
f 41 55 56
f 41 56 57
f 41 57 42
f 42 57 43
f 43 58 44
f 43 57 59
f 43 59 58
f 44 58 60
f 44 60 50
f 45 48 46
f 46 48 47
f 50 60 61
f 50 61 51
f 52 62 55
f 52 55 54
f 52 54 53
f 55 62 56
f 56 63 57
f 56 62 63
f 57 63 64
f 57 64 59
f 58 59 61
f 58 61 60
f 59 64 61

