# https://github.com/mikedh/trimesh
v 0.03990727 -0.01940187 0.03799699
v 0.03990727 -0.01760184 0.03785395
v 0.03990727 -0.01670502 0.03455376
v 0.04055071 -0.02175920 0.03290997
v 0.04079613 -0.02111648 0.03789962
v 0.04110957 -0.01963034 0.03800721
v 0.04540219 -0.00163859 0.03798557
v 0.04417691 0.00005467 0.03782991
v 0.04325313 0.00005467 0.03448284
v 0.04251042 -0.02175920 0.03195556
v 0.04428905 -0.02173785 0.03441793
v 0.04749427 -0.00012042 0.03191469
v 0.04316396 -0.02135563 0.03689232
v 0.04281192 -0.01941681 0.03763578
v 0.04288545 -0.01665164 0.03793088
v 0.04376787 -0.01390569 0.03795071
v 0.04499407 -0.00777321 0.03796634
v 0.04540219 -0.00409201 0.03797776
v 0.04649603 -0.00015031 0.03778002
v 0.04806969 -0.00017807 0.03698968
v 0.04898244 -0.00017807 0.03257641
v 0.04335516 -0.02046736 0.03190567
v 0.04447749 -0.02042252 0.03268760
v 0.04601437 -0.01794988 0.03379707
v 0.04517515 -0.01976272 0.03453272
v 0.04418795 -0.02099264 0.03589643
v 0.04848332 -0.00199732 0.03221459
v 0.04753012 -0.00491195 0.03186721
v 0.04480196 -0.01885097 0.03635260
v 0.04484333 -0.01686944 0.03707202
v 0.04417967 -0.01554557 0.03769768
v 0.04437822 -0.01228716 0.03792246
v 0.04540219 -0.00981879 0.03781789
v 0.04622027 -0.00572762 0.03778303
v 0.04683521 -0.00429700 0.03759671
v 0.04929772 -0.00062220 0.03494983
v 0.04826731 -0.00354111 0.03666693
v 0.04911205 -0.00327420 0.03278677
v 0.04447106 -0.01856484 0.03199462
v 0.04745475 -0.00750417 0.03190207
v 0.04566324 -0.01718759 0.03243637
v 0.04656957 -0.01634203 0.03353443
v 0.04753012 -0.01326725 0.03397618
v 0.04612192 -0.01700823 0.03520887
v 0.04812851 -0.00777321 0.03234862
v 0.04575240 -0.01577832 0.03660563
v 0.04653372 -0.01276973 0.03686527
v 0.04559706 -0.01410641 0.03720785
v 0.04615501 -0.01139035 0.03734488
v 0.04653464 -0.00753833 0.03753240
v 0.04920121 -0.00475608 0.03431335
v 0.04918742 -0.00327420 0.03499190
v 0.04800166 -0.00644294 0.03657678
v 0.04834820 -0.00827500 0.03577022
v 0.04896774 -0.00523651 0.03292620
v 0.04658979 -0.01466585 0.03250429
v 0.04709167 -0.01023731 0.03201325
v 0.04787666 -0.01156117 0.03338538
v 0.04757149 -0.01165939 0.03583092
v 0.04691151 -0.01453773 0.03526055
v 0.04833257 -0.00970776 0.03451108
v 0.04829948 -0.00916327 0.03282222
v 0.04729021 -0.00994477 0.03673966
v 0.04878849 -0.00715825 0.03466615
f 1 2 3
f 1 3 4
f 1 4 5
f 1 5 6
f 1 6 7
f 1 7 8
f 1 8 2
f 2 8 9
f 2 9 3
f 3 9 4
f 4 10 11
f 4 11 5
f 4 9 12
f 4 12 10
f 5 11 13
f 5 13 14
f 5 14 6
f 6 14 15
f 6 15 16
f 6 16 17
f 6 17 18
f 6 18 7
f 7 18 19
f 7 19 8
f 8 19 20
f 8 20 21
f 8 21 12
f 8 12 9
f 10 22 23
f 10 23 11
f 10 12 22
f 11 23 24
f 11 24 25
f 11 25 26
f 11 26 13
f 12 21 27
f 12 27 28
f 12 28 22
f 13 26 29
f 13 29 30
f 13 30 14
f 14 30 31
f 14 31 15
f 15 31 16
f 16 31 32
f 16 32 17
f 17 33 34
f 17 34 18
f 17 32 33
f 18 34 19
f 19 34 35
f 19 35 20
f 20 36 21
f 20 35 37
f 20 37 36
f 21 36 38
f 21 38 27
f 22 39 23
f 22 28 40
f 22 40 39
f 23 39 41
f 23 41 42
f 23 42 24
f 24 42 43
f 24 43 44
f 24 44 25
f 25 44 26
f 26 44 29
f 27 38 45
f 27 45 40
f 27 40 28
f 29 44 46
f 29 46 30
f 30 46 47
f 30 47 48
f 30 48 31
f 31 48 49
f 31 49 33
f 31 33 32
f 33 49 50
f 33 50 34
f 34 50 35
f 35 50 37
f 36 51 38
f 36 37 52
f 36 52 51
f 37 50 53
f 37 53 54
f 37 54 52
f 38 51 55
f 38 55 45
f 39 56 41
f 39 40 57
f 39 57 56
f 40 45 57
f 41 56 42
f 42 56 58
f 42 58 43
f 43 59 60
f 43 60 44
f 43 58 61
f 43 61 59
f 44 60 59
f 44 59 46
f 45 55 62
f 45 62 56
f 45 56 57
f 46 59 47
f 47 59 63
f 47 63 49
f 47 49 48
f 49 63 50
f 50 63 53
f 51 64 61
f 51 61 62
f 51 62 55
f 51 52 54
f 51 54 64
f 53 63 54
f 54 63 59
f 54 59 61
f 54 61 64
f 56 62 58
f 58 62 61

