# https://github.com/mikedh/trimesh
v 0.01444740 0.04300030 0.03386096
v 0.00741465 0.04273284 0.03437718
v 0.01002502 0.04300030 0.03792252
v 0.01247990 0.04298715 0.03797463
v 0.01438161 0.04297290 0.03798241
v 0.02745739 0.04109301 0.03432269
v 0.02676069 0.04098998 0.03263446
v 0.02465565 0.04119715 0.03202480
v 0.00741465 0.04261665 0.03769016
v 0.01918374 0.03789666 0.03186431
v 0.00741465 0.03954526 0.03424184
v 0.03009168 0.03180320 0.03776861
v 0.03169438 0.03259681 0.03793510
v 0.02055919 0.04102067 0.03790036
v 0.02258350 0.04095490 0.03768537
v 0.02452408 0.04119167 0.03709548
v 0.02678162 0.04110178 0.03584203
v 0.02944581 0.03477046 0.03793690
v 0.02576797 0.03803806 0.03789857
v 0.02931126 0.03965268 0.03497486
v 0.03116812 0.03838663 0.03419573
v 0.03215485 0.03756672 0.03348366
v 0.02876705 0.03957814 0.03250151
v 0.02740057 0.03967351 0.03204696
v 0.02576797 0.04049123 0.03199846
v 0.00741465 0.04047917 0.03613069
v 0.02702681 0.03180320 0.03672957
v 0.02090604 0.03762920 0.03186431
v 0.02842618 0.03220110 0.03186550
v 0.01983857 0.03472881 0.03186550
v 0.02420414 0.03180320 0.03209008
v 0.02444634 0.03180320 0.03358248
v 0.02551680 0.03180320 0.03542282
v 0.03796166 0.03180320 0.03374897
v 0.03769853 0.03187116 0.03516051
v 0.03636494 0.03208710 0.03665890
v 0.03422401 0.03227235 0.03760332
v 0.03067475 0.03395054 0.03793091
v 0.02589954 0.03939289 0.03756140
v 0.02862054 0.03874617 0.03692600
v 0.02581581 0.04087926 0.03676610
v 0.02793580 0.04018212 0.03609116
v 0.02725406 0.03771470 0.03774586
v 0.03112626 0.03509053 0.03766621
v 0.03079435 0.03813671 0.03595941
v 0.03233426 0.03715786 0.03530604
v 0.03392500 0.03597731 0.03436042
v 0.03200535 0.03685861 0.03233742
v 0.03596725 0.03393301 0.03374717
v 0.03422401 0.03507300 0.03253445
v 0.03683737 0.03198406 0.03229849
v 0.02586366 0.03432872 0.03186550
v 0.03596426 0.03310651 0.03235658
v 0.03494762 0.03493159 0.03471495
v 0.03646959 0.03300238 0.03557494
v 0.03368879 0.03563312 0.03594624
v 0.03385025 0.03450300 0.03680323
v 0.03498948 0.03315584 0.03693917
v 0.03231333 0.03380147 0.03769375
v 0.02985546 0.03722253 0.03726077
v 0.03007673 0.03773881 0.03688527
v 0.03244789 0.03572739 0.03688228
v 0.03135948 0.03671502 0.03684694
f 1 2 3
f 1 3 4
f 1 4 5
f 1 5 6
f 1 6 7
f 1 7 8
f 1 8 2
f 2 9 3
f 2 8 10
f 2 10 11
f 2 11 26
f 2 26 9
f 3 9 12
f 3 12 13
f 3 13 4
f 4 13 5
f 5 14 15
f 5 15 16
f 5 16 17
f 5 17 6
f 5 13 18
f 5 18 19
f 5 19 14
f 6 17 20
f 6 20 21
f 6 21 22
f 6 22 23
f 6 23 7
f 7 23 24
f 7 24 8
f 8 24 25
f 8 25 10
f 9 26 27
f 9 27 12
f 10 28 29
f 10 29 30
f 10 30 11
f 10 25 28
f 11 31 32
f 11 32 33
f 11 33 26
f 11 30 31
f 12 34 35
f 12 35 36
f 12 36 37
f 12 37 13
f 12 27 33
f 12 33 32
f 12 32 31
f 12 31 34
f 13 38 18
f 13 37 38
f 14 19 15
f 15 19 39
f 15 39 16
f 16 39 40
f 16 40 41
f 16 41 17
f 17 42 20
f 17 41 42
f 18 38 19
f 19 43 39
f 19 38 44
f 19 44 43
f 20 45 46
f 20 46 21
f 20 42 45
f 21 46 47
f 21 47 22
f 22 48 23
f 22 47 49
f 22 49 50
f 22 50 48
f 23 48 24
f 24 29 25
f 24 48 51
f 24 51 29
f 25 52 28
f 25 29 52
f 26 33 27
f 28 52 29
f 29 31 30
f 29 51 31
f 31 51 34
f 34 51 53
f 34 53 50
f 34 50 49
f 34 49 54
f 34 54 35
f 35 54 55
f 35 55 36
f 36 55 56
f 36 56 57
f 36 57 58
f 36 58 37
f 37 58 44
f 37 44 59
f 37 59 38
f 38 59 44
f 39 43 44
f 39 44 60
f 39 60 40
f 40 60 61
f 40 61 42
f 40 42 41
f 42 61 45
f 44 58 62
f 44 62 60
f 45 61 63
f 45 63 56
f 45 56 46
f 46 56 54
f 46 54 47
f 47 54 49
f 48 50 53
f 48 53 51
f 54 56 55
f 56 63 62
f 56 62 57
f 57 62 58
f 60 62 61
f 61 62 63

