# https://github.com/mikedh/trimesh
v -0.02822372 -0.03558354 0.03816379
v -0.02904179 -0.03558354 0.03810696
v -0.02822372 -0.03640143 0.03809135
v -0.02729654 -0.03599334 0.03815380
v -0.03149448 -0.03272178 0.03815629
v -0.03149448 -0.03394776 0.03806012
v -0.03067692 -0.03476565 0.03804326
v -0.02985885 -0.03558354 0.03802391
v -0.02822372 -0.03721932 0.03794272
v -0.02729654 -0.03762741 0.03798394
v -0.02724174 -0.03435584 0.03795708
v -0.03231959 -0.03026639 0.03805450
v -0.03231808 -0.03190560 0.03815130
v -0.03231808 -0.03353967 0.03798456
v -0.03059094 -0.03592304 0.03777786
v -0.02939526 -0.03654889 0.03787340
v -0.02810456 -0.03836128 0.03757802
v -0.02729654 -0.03884481 0.03761112
v -0.02719095 -0.03274064 0.03743252
v -0.03218484 -0.02867519 0.03773290
v -0.03232361 -0.02754181 0.03741941
v -0.03232160 -0.03512058 0.03188148
v -0.03226278 -0.03762569 0.03459611
v -0.03210137 -0.03719188 0.03589504
v -0.03197316 -0.03648716 0.03685362
v -0.03183287 -0.03492511 0.03772540
v -0.02906442 -0.03774915 0.03751432
v -0.02834389 -0.03935407 0.03686736
v -0.02772091 -0.04007765 0.03651328
v -0.02728498 -0.04073779 0.03594625
v -0.02718693 -0.03120088 0.03647456
v -0.03225775 -0.02611693 0.03663318
v -0.02719447 -0.03966270 0.03194330
v -0.02718693 -0.03874022 0.03189897
v -0.03232361 -0.02486180 0.03564649
v -0.03232361 -0.02800476 0.03178406
v -0.02849775 -0.03861333 0.03186587
v -0.03026763 -0.03717474 0.03188086
v -0.03198321 -0.03657804 0.03221683
v -0.03220998 -0.03746966 0.03336650
v -0.03143465 -0.03838528 0.03381925
v -0.03121744 -0.03841786 0.03494770
v -0.03044311 -0.03858590 0.03580324
v -0.03109525 -0.03763427 0.03643896
v -0.02966477 -0.03825497 0.03692232
v -0.02960845 -0.03925804 0.03577014
v -0.02753286 -0.04102586 0.03483529
v -0.02732118 -0.04082352 0.03286192
v -0.02894123 -0.03998163 0.03518562
v -0.02718693 -0.03029726 0.03554158
v -0.02827350 -0.04011537 0.03270892
v -0.02952851 -0.03909687 0.03257091
v -0.03065429 -0.02983259 0.03178406
v -0.03038680 -0.02600719 0.03178406
v -0.02718693 -0.02974685 0.03444686
v -0.03232361 -0.02416222 0.03473287
v -0.03232361 -0.02351065 0.03211816
v -0.03166896 -0.02874549 0.03178406
v -0.03155985 -0.03767885 0.03270518
v -0.03041496 -0.03906772 0.03364690
v -0.02766963 -0.04102071 0.03389919
v -0.03004238 -0.03934378 0.03485153
v -0.03069150 -0.03832699 0.03268332
v -0.03232361 -0.02376270 0.03364315
f 1 2 3
f 1 3 4
f 1 4 5
f 1 5 2
f 2 5 6
f 2 6 3
f 3 6 7
f 3 7 8
f 3 8 9
f 3 9 10
f 3 10 4
f 4 11 12
f 4 12 13
f 4 13 5
f 4 10 11
f 5 13 6
f 6 13 14
f 6 14 7
f 7 14 8
f 8 15 16
f 8 16 9
f 8 14 15
f 9 17 18
f 9 18 10
f 9 16 17
f 10 18 11
f 11 18 19
f 11 19 20
f 11 20 12
f 12 20 21
f 12 21 14
f 12 14 13
f 14 22 23
f 14 23 24
f 14 24 25
f 14 25 26
f 14 26 15
f 14 21 22
f 15 26 25
f 15 25 27
f 15 27 17
f 15 17 16
f 17 27 28
f 17 28 18
f 18 28 29
f 18 29 30
f 18 30 19
f 19 31 32
f 19 32 21
f 19 21 20
f 19 30 33
f 19 33 34
f 19 34 31
f 21 32 35
f 21 35 56
f 21 56 64
f 21 64 57
f 21 57 36
f 21 36 22
f 22 36 37
f 22 37 38
f 22 38 39
f 22 39 40
f 22 40 23
f 23 40 41
f 23 41 42
f 23 42 24
f 24 42 43
f 24 43 44
f 24 44 25
f 25 44 45
f 25 45 27
f 27 45 28
f 28 45 44
f 28 44 46
f 28 46 29
f 29 46 30
f 30 47 48
f 30 48 33
f 30 46 49
f 30 49 47
f 31 50 35
f 31 35 32
f 31 34 55
f 31 55 50
f 33 48 51
f 33 51 52
f 33 52 37
f 33 37 34
f 34 37 53
f 34 53 54
f 34 54 55
f 35 50 56
f 36 57 54
f 36 54 53
f 36 53 58
f 36 58 37
f 37 58 53
f 37 52 39
f 37 39 38
f 39 52 59
f 39 59 40
f 40 59 41
f 41 59 60
f 41 60 61
f 41 61 62
f 41 62 42
f 42 62 46
f 42 46 43
f 43 46 44
f 46 62 49
f 47 61 48
f 47 49 62
f 47 62 61
f 48 61 60
f 48 60 51
f 50 55 56
f 51 60 63
f 51 63 52
f 52 63 59
f 54 57 55
f 55 57 64
f 55 64 56
f 59 63 60

