# https://github.com/mikedh/trimesh
v -0.01435131 0.03568437 -0.03556734
v -0.01435131 0.03567817 -0.03235280
v -0.01435131 0.03476688 -0.03734583
v -0.01473560 0.03535829 -0.03653275
v -0.01564186 0.03512396 -0.03558572
v -0.01555860 0.03519215 -0.03235280
v -0.01435291 0.03238015 -0.03237118
v -0.01435131 0.03250910 -0.03598543
v -0.02691733 0.02301800 -0.03235280
v -0.01435131 0.03319350 -0.03711315
v -0.01474360 0.03394857 -0.03751339
v -0.01783066 0.03278931 -0.03765889
v -0.01652090 0.03372912 -0.03744038
v -0.01625031 0.03449783 -0.03697396
v -0.01714216 0.03439740 -0.03598806
v -0.01710693 0.03444700 -0.03235280
v -0.02703421 0.02301800 -0.03555263
v -0.02743451 0.02301800 -0.03670713
v -0.03070891 0.02316182 -0.03235280
v -0.03018693 0.02304031 -0.03718301
v -0.02821748 0.02310975 -0.03754543
v -0.01669063 0.03272484 -0.03764313
v -0.02334511 0.02909081 -0.03771824
v -0.02061991 0.03118617 -0.03766676
v -0.02000346 0.03199084 -0.03740256
v -0.01787230 0.03370432 -0.03698079
v -0.01976488 0.03278311 -0.03667456
v -0.01908278 0.03336956 -0.03593711
v -0.01840869 0.03377871 -0.03558572
v -0.01872572 0.03360637 -0.03235280
v -0.03011808 0.02395657 -0.03235280
v -0.03056480 0.02330440 -0.03596390
v -0.02930468 0.02332672 -0.03762474
v -0.02955606 0.02435952 -0.03681060
v -0.02880191 0.02512203 -0.03699602
v -0.02834077 0.02449591 -0.03769040
v -0.02449315 0.02834938 -0.03770090
v -0.02388631 0.02930407 -0.03751129
v -0.02218106 0.03114526 -0.03687836
v -0.02050943 0.03255373 -0.03558572
v -0.02094975 0.03201936 -0.03668507
v -0.01992820 0.03291825 -0.03235280
v -0.02953525 0.02463849 -0.03235280
v -0.02783320 0.02661854 -0.03558572
v -0.02854893 0.02568245 -0.03640353
v -0.02781719 0.02639041 -0.03664410
v -0.02711587 0.02712068 -0.03664883
v -0.02436346 0.02955948 -0.03681270
v -0.02310493 0.03041126 -0.03695452
v -0.02378383 0.03017569 -0.03644713
v -0.02159823 0.03183710 -0.03235280
v -0.02086329 0.03232932 -0.03235280
v -0.02396156 0.03013725 -0.03558572
v -0.02781399 0.02659746 -0.03235280
v -0.02723917 0.02724095 -0.03517655
v -0.02662111 0.02784848 -0.03558572
v -0.02651703 0.02774929 -0.03652329
v -0.02578530 0.02864446 -0.03558572
v -0.02489985 0.02940698 -0.03558572
v -0.02237480 0.03127048 -0.03235280
v -0.02393274 0.03011989 -0.03235280
v -0.02700059 0.02742569 -0.03235280
v -0.02553071 0.02879449 -0.03235280
v -0.02487263 0.02938342 -0.03235280
f 1 2 8
f 1 8 10
f 1 10 3
f 1 3 4
f 1 4 5
f 1 5 6
f 1 6 2
f 2 7 8
f 2 6 16
f 2 16 30
f 2 30 42
f 2 42 52
f 2 52 51
f 2 51 60
f 2 60 61
f 2 61 64
f 2 64 63
f 2 63 62
f 2 62 54
f 2 54 43
f 2 43 31
f 2 31 19
f 2 19 9
f 2 9 7
f 3 10 11
f 3 11 12
f 3 12 13
f 3 13 14
f 3 14 4
f 4 14 15
f 4 15 5
f 5 15 16
f 5 16 6
f 7 9 17
f 7 17 8
f 8 17 18
f 8 18 10
f 9 19 20
f 9 20 18
f 9 18 17
f 10 18 21
f 10 21 11
f 11 21 22
f 11 22 12
f 12 22 23
f 12 23 24
f 12 24 25
f 12 25 26
f 12 26 13
f 13 26 14
f 14 26 15
f 15 26 27
f 15 27 28
f 15 28 29
f 15 29 16
f 16 29 30
f 18 20 21
f 19 31 32
f 19 32 20
f 20 33 21
f 20 32 34
f 20 34 35
f 20 35 36
f 20 36 33
f 21 33 36
f 21 36 22
f 22 36 23
f 23 36 37
f 23 37 24
f 24 37 38
f 24 38 25
f 25 39 26
f 25 38 39
f 26 39 27
f 27 40 28
f 27 39 41
f 27 41 40
f 28 40 29
f 29 40 42
f 29 42 30
f 31 43 44
f 31 44 32
f 32 44 45
f 32 45 34
f 34 45 35
f 35 45 46
f 35 46 47
f 35 47 38
f 35 38 36
f 36 38 37
f 38 47 48
f 38 48 49
f 38 49 39
f 39 49 48
f 39 48 50
f 39 50 41
f 40 51 52
f 40 52 42
f 40 41 50
f 40 50 53
f 40 53 51
f 43 54 44
f 44 54 55
f 44 55 56
f 44 56 47
f 44 47 46
f 44 46 45
f 47 56 57
f 47 57 48
f 48 57 50
f 50 57 58
f 50 58 59
f 50 59 53
f 51 53 60
f 53 61 60
f 53 59 61
f 54 62 55
f 55 62 56
f 56 58 57
f 56 62 58
f 58 62 63
f 58 63 64
f 58 64 59
f 59 64 61

