# https://github.com/mikedh/trimesh
v 0.03290407 -0.01513261 -0.03748513
v 0.03192170 -0.01513261 -0.03603135
v 0.03176603 -0.01513261 -0.03243380
v 0.03493823 -0.01554460 -0.03243380
v 0.03486671 -0.01555666 -0.03578767
v 0.03407366 -0.01601688 -0.03722067
v 0.03266847 -0.01819942 -0.03758749
v 0.03182914 -0.01908972 -0.03770803
v 0.01738808 -0.03264517 -0.03764828
v 0.01344808 -0.03341891 -0.03730847
v 0.01344808 -0.03258890 -0.03596797
v 0.01344808 -0.03246430 -0.03243380
v 0.03418725 -0.01713628 -0.03243380
v 0.03406735 -0.01725888 -0.03558504
v 0.03366346 -0.01767488 -0.03676240
v 0.03283255 -0.01900129 -0.03697439
v 0.03080260 -0.02101501 -0.03765711
v 0.02691939 -0.02579610 -0.03770491
v 0.02554996 -0.02621211 -0.03774128
v 0.01876593 -0.03239396 -0.03731731
v 0.01705782 -0.03369022 -0.03701387
v 0.01542124 -0.03450415 -0.03699309
v 0.01376572 -0.03504677 -0.03703154
v 0.02407956 -0.02840268 -0.03764672
v 0.02083795 -0.03098717 -0.03744149
v 0.01344808 -0.03566174 -0.03558504
v 0.01382462 -0.03562355 -0.03243380
v 0.03350780 -0.01841043 -0.03243380
v 0.03350780 -0.01835818 -0.03558504
v 0.03280310 -0.01948764 -0.03594199
v 0.03195957 -0.02056283 -0.03668966
v 0.02983075 -0.02359145 -0.03658990
v 0.02851811 -0.02462243 -0.03719365
v 0.02754205 -0.02611564 -0.03675616
v 0.02653865 -0.02714059 -0.03672083
v 0.02021950 -0.03204628 -0.03672343
v 0.01632367 -0.03440165 -0.03597784
v 0.01795605 -0.03358170 -0.03597991
v 0.01470813 -0.03510103 -0.03623243
v 0.02294573 -0.02956028 -0.03744253
v 0.01503628 -0.03514725 -0.03243380
v 0.03291880 -0.01942534 -0.03243380
v 0.03134532 -0.02191737 -0.03243380
v 0.03131797 -0.02171037 -0.03598459
v 0.03022832 -0.02326789 -0.03558504
v 0.02912815 -0.02465258 -0.03558504
v 0.02699302 -0.02699388 -0.03559075
v 0.02538168 -0.02833235 -0.03613787
v 0.02399963 -0.02949396 -0.03613735
v 0.01971254 -0.03260699 -0.03558504
v 0.02198440 -0.03107358 -0.03599394
v 0.02085057 -0.03189354 -0.03558504
v 0.01627108 -0.03459659 -0.03243380
v 0.01784246 -0.03378468 -0.03243380
v 0.02938058 -0.02445764 -0.03243380
v 0.02860856 -0.02533789 -0.03435987
v 0.02789756 -0.02606339 -0.03517665
v 0.02673428 -0.02732146 -0.03243380
v 0.02368409 -0.02996021 -0.03243380
v 0.02324655 -0.03020941 -0.03558504
v 0.01955897 -0.03281399 -0.03243380
v 0.02093471 -0.03194981 -0.03243380
v 0.02201385 -0.03121024 -0.03243380
v 0.02821940 -0.02577600 -0.03243380
f 1 2 3
f 1 3 4
f 1 4 5
f 1 5 6
f 1 6 7
f 1 7 8
f 1 8 9
f 1 9 10
f 1 10 2
f 2 10 11
f 2 11 3
f 3 11 12
f 3 12 27
f 3 27 41
f 3 41 53
f 3 53 54
f 3 54 61
f 3 61 62
f 3 62 63
f 3 63 59
f 3 59 58
f 3 58 64
f 3 64 55
f 3 55 43
f 3 43 42
f 3 42 28
f 3 28 13
f 3 13 4
f 4 13 5
f 5 13 14
f 5 14 15
f 5 15 6
f 6 15 16
f 6 16 7
f 7 16 17
f 7 17 8
f 8 17 18
f 8 18 19
f 8 19 9
f 9 20 21
f 9 21 22
f 9 22 23
f 9 23 10
f 9 19 24
f 9 24 25
f 9 25 20
f 10 23 26
f 10 26 12
f 10 12 11
f 12 26 27
f 13 28 29
f 13 29 14
f 14 29 15
f 15 29 30
f 15 30 16
f 16 30 31
f 16 31 17
f 17 32 33
f 17 33 18
f 17 31 32
f 18 33 34
f 18 34 35
f 18 35 24
f 18 24 19
f 20 25 36
f 20 36 21
f 21 37 22
f 21 36 38
f 21 38 37
f 22 37 39
f 22 39 23
f 23 39 26
f 24 35 40
f 24 40 25
f 25 40 36
f 26 39 41
f 26 41 27
f 28 42 29
f 29 42 30
f 30 42 43
f 30 43 44
f 30 44 31
f 31 44 32
f 32 45 46
f 32 46 34
f 32 34 33
f 32 44 45
f 34 47 35
f 34 46 47
f 35 48 49
f 35 49 40
f 35 47 48
f 36 50 38
f 36 40 49
f 36 49 51
f 36 51 52
f 36 52 50
f 37 38 53
f 37 53 41
f 37 41 39
f 38 54 53
f 38 50 54
f 43 55 45
f 43 45 44
f 45 55 46
f 46 55 56
f 46 56 57
f 46 57 47
f 47 57 58
f 47 58 59
f 47 59 60
f 47 60 48
f 48 60 49
f 49 60 51
f 50 52 61
f 50 61 54
f 51 60 52
f 52 62 61
f 52 60 63
f 52 63 62
f 55 64 56
f 56 64 58
f 56 58 57
f 59 63 60

