# https://github.com/mikedh/trimesh
v -0.04246212 0.00005610 0.00936226
v -0.04211034 0.00006892 -0.01962367
v -0.03877546 0.00006892 -0.02853969
v -0.03966732 0.00005610 0.00979921
v -0.03994178 0.00005610 0.03163460
v -0.04286349 0.00033663 0.03178222
v -0.04208436 0.00023980 -0.02126516
v -0.04205721 0.00023980 -0.02257600
v -0.04197281 0.00023980 -0.02576451
v -0.04189372 0.00015436 -0.02715801
v -0.04174734 0.00089201 -0.02839208
v -0.04152777 0.00368169 -0.02853969
v -0.03691206 0.01235977 -0.02853969
v -0.03683356 0.01460405 0.00937998
v -0.03685540 0.01460405 0.01105099
v -0.03703070 0.01460405 0.02373418
v -0.03710566 0.01460405 0.02903656
v -0.03990578 0.00005610 0.03067215
v -0.03969211 0.00005610 0.01431626
v -0.03713045 0.01460405 0.03026473
v -0.03719183 0.01460405 0.03164641
v -0.04043404 0.01445737 0.03178222
v -0.04282807 0.00178203 0.03178222
v -0.04203951 0.00122808 -0.02290075
v -0.04194271 0.00163820 -0.02617193
v -0.04185476 0.00163820 -0.02740010
v -0.04165408 0.00260797 -0.02833894
v -0.04151655 0.00531934 -0.02740010
v -0.04135896 0.00560842 -0.02837436
v -0.04068431 0.00940632 -0.02837436
v -0.04009819 0.01169902 -0.02809684
v -0.04009347 0.01233556 -0.02669744
v -0.03979894 0.01460405 0.00936226
v -0.04086197 0.01318571 0.03178222
v -0.04018083 0.01235977 -0.02453634
v -0.04272832 0.00348945 0.03178222
v -0.04195097 0.00245702 -0.02473710
v -0.04185181 0.00327442 -0.02596527
v -0.04168418 0.00482092 -0.02634316
v -0.04140912 0.00613673 -0.02740010
v -0.04097589 0.00816598 -0.02825036
v -0.04090092 0.00899335 -0.02739419
v -0.04047182 0.01063384 -0.02760085
v -0.04048952 0.01104254 -0.02617193
v -0.04021919 0.01210914 -0.02576451
v -0.04134243 0.01152244 0.03178222
v -0.04048067 0.01144981 -0.02290075
v -0.04259729 0.00490209 0.03178222
v -0.04155905 0.00613673 -0.02494376
v -0.04145812 0.00654685 -0.02617193
v -0.04119015 0.00736140 -0.02760085
v -0.04116772 0.00817738 -0.02617193
v -0.04079055 0.00985916 -0.02617193
v -0.04055150 0.01104254 -0.02453634
v -0.04169362 0.01022656 0.03178222
v -0.04082360 0.01028068 -0.02167258
v -0.04242966 0.00627344 0.03178222
v -0.04121671 0.00817738 -0.02473710
v -0.04224491 0.00750523 0.03178222
v -0.04088735 0.00974809 -0.02412892
v -0.04077461 0.01022514 -0.02412892
v -0.04193208 0.00914002 0.03178222
v -0.04090801 0.00981217 -0.02282990
v -0.04116359 0.00858750 -0.02330817
f 1 2 3
f 1 3 4
f 1 4 19
f 1 19 18
f 1 18 5
f 1 5 6
f 1 6 2
f 2 6 7
f 2 7 8
f 2 8 9
f 2 9 10
f 2 10 3
f 3 10 11
f 3 11 12
f 3 12 13
f 3 13 14
f 3 14 15
f 3 15 16
f 3 16 17
f 3 17 18
f 3 18 19
f 3 19 4
f 5 18 20
f 5 20 21
f 5 21 6
f 6 21 22
f 6 22 34
f 6 34 46
f 6 46 55
f 6 55 62
f 6 62 59
f 6 59 57
f 6 57 48
f 6 48 36
f 6 36 23
f 6 23 24
f 6 24 7
f 7 24 8
f 8 24 9
f 9 25 10
f 9 24 25
f 10 26 11
f 10 25 26
f 11 26 27
f 11 27 12
f 12 27 28
f 12 28 29
f 12 29 30
f 12 30 13
f 13 30 31
f 13 31 32
f 13 32 33
f 13 33 14
f 14 33 21
f 14 21 20
f 14 20 17
f 14 17 16
f 14 16 15
f 17 20 18
f 21 33 22
f 22 33 35
f 22 35 34
f 23 36 37
f 23 37 24
f 24 37 25
f 25 37 38
f 25 38 26
f 26 38 39
f 26 39 28
f 26 28 27
f 28 40 29
f 28 39 40
f 29 41 30
f 29 40 41
f 30 41 42
f 30 42 43
f 30 43 31
f 31 43 32
f 32 44 45
f 32 45 35
f 32 35 33
f 32 43 44
f 34 35 47
f 34 47 46
f 35 45 47
f 36 48 37
f 37 48 38
f 38 48 39
f 39 49 50
f 39 50 40
f 39 48 49
f 40 51 41
f 40 50 51
f 41 51 42
f 42 51 52
f 42 52 53
f 42 53 43
f 43 53 44
f 44 53 54
f 44 54 45
f 45 54 47
f 46 47 56
f 46 56 55
f 47 54 56
f 48 57 49
f 49 58 50
f 49 57 59
f 49 59 58
f 50 52 51
f 50 58 52
f 52 58 60
f 52 60 53
f 53 60 61
f 53 61 54
f 54 61 56
f 55 56 63
f 55 63 62
f 56 61 63
f 58 59 64
f 58 64 63
f 58 63 60
f 59 62 64
f 60 63 61
f 62 63 64

