# https://github.com/mikedh/trimesh
v 0.00553801 -0.00030368 -0.01927468
v -0.00001074 0.00547091 -0.01944040
v 0.00595541 0.00126405 -0.01960411
v 0.00671501 -0.00024192 -0.01922547
v 0.00749673 -0.00024192 -0.01081412
v 0.00730278 -0.00025505 -0.01007895
v 0.00539420 -0.00030368 -0.00969228
v 0.00515526 -0.00030368 -0.01833362
v -0.00001074 0.00499774 -0.01871828
v 0.00009767 0.00620190 -0.01955690
v -0.00001074 0.00520538 -0.00949040
v 0.00004900 0.00758129 -0.01040335
v 0.00135432 0.00601279 -0.01959908
v 0.00498490 0.00384606 -0.01955188
v 0.00622017 0.00126405 -0.01953280
v 0.00671427 0.00048829 -0.01923049
v 0.00703212 0.00005989 -0.01844510
v 0.00752328 0.00036170 -0.01119075
v 0.00744585 0.00036170 -0.01046963
v 0.00703581 0.00067741 -0.00956171
v 0.00703360 0.00001049 -0.00951451
v 0.00515452 -0.00030368 -0.01046963
v 0.00511027 -0.00030368 -0.01474210
v -0.00001074 0.00492749 -0.01800520
v 0.00040372 0.00677234 -0.01879059
v 0.00072010 0.00654308 -0.01937411
v -0.00001074 0.00496377 -0.01042645
v 0.00031744 0.00753883 -0.00934377
v 0.00072305 0.00744543 -0.01046963
v 0.00158073 0.00660252 -0.01851239
v 0.00216923 0.00590935 -0.01950267
v 0.00394949 0.00497226 -0.01946651
v 0.00587060 0.00220114 -0.01949262
v 0.00465304 0.00451144 -0.01943839
v 0.00572090 0.00332734 -0.01918530
v 0.00648271 0.00145703 -0.01926464
v 0.00687209 0.00098771 -0.01880264
v 0.00743626 0.00108343 -0.01119075
v 0.00732711 0.00115908 -0.01035916
v 0.00618551 0.00436555 -0.00949342
v 0.00575261 0.00506258 -0.00942512
v 0.00426734 0.00608766 -0.00935080
v 0.00510363 -0.00030368 -0.01341838
v 0.00289638 0.00576809 -0.01942232
v 0.00268546 0.00621271 -0.01876749
v 0.00145020 0.00723857 -0.01021855
v 0.00357117 0.00648442 -0.00982686
v 0.00218398 0.00645586 -0.01822715
v 0.00433666 0.00524783 -0.01881972
v 0.00507192 0.00467045 -0.01875343
v 0.00544066 0.00405370 -0.01891613
v 0.00629760 0.00262028 -0.01879260
v 0.00677253 0.00162530 -0.01858872
v 0.00727770 0.00159751 -0.01157441
v 0.00724378 0.00174263 -0.01085530
v 0.00642297 0.00399813 -0.01033907
v 0.00608005 0.00467663 -0.01037924
v 0.00510585 0.00563224 -0.00943416
v 0.00570467 0.00516215 -0.01013720
v 0.00513313 0.00566466 -0.01012314
v 0.00436837 0.00614941 -0.01011410
v 0.00347529 0.00580129 -0.01883980
v 0.00330641 0.00662104 -0.01043549
v 0.00596205 0.00350488 -0.01838082
f 1 2 3
f 1 3 4
f 1 4 5
f 1 5 6
f 1 6 7
f 1 7 22
f 1 22 43
f 1 43 23
f 1 23 8
f 1 8 9
f 1 9 2
f 2 10 3
f 2 9 24
f 2 24 27
f 2 27 11
f 2 11 12
f 2 12 10
f 3 13 14
f 3 14 15
f 3 15 4
f 3 10 13
f 4 15 16
f 4 16 17
f 4 17 5
f 5 18 19
f 5 19 6
f 5 17 18
f 6 19 20
f 6 20 21
f 6 21 7
f 7 21 11
f 7 11 22
f 8 23 24
f 8 24 9
f 10 25 26
f 10 26 13
f 10 12 25
f 11 27 22
f 11 21 28
f 11 28 12
f 12 28 29
f 12 29 30
f 12 30 25
f 13 26 31
f 13 31 32
f 13 32 14
f 14 33 15
f 14 32 34
f 14 34 35
f 14 35 33
f 15 33 36
f 15 36 16
f 16 36 37
f 16 37 17
f 17 37 38
f 17 38 18
f 18 38 19
f 19 38 39
f 19 39 20
f 20 40 21
f 20 39 40
f 21 40 41
f 21 41 42
f 21 42 28
f 22 27 43
f 23 43 24
f 24 43 27
f 25 30 26
f 26 44 31
f 26 30 45
f 26 45 44
f 28 46 29
f 28 42 47
f 28 47 46
f 29 46 48
f 29 48 30
f 30 48 45
f 31 44 32
f 32 44 34
f 33 35 36
f 34 44 49
f 34 49 50
f 34 50 51
f 34 51 35
f 35 51 52
f 35 52 36
f 36 52 53
f 36 53 37
f 37 53 38
f 38 53 54
f 38 54 55
f 38 55 39
f 39 55 40
f 40 55 56
f 40 56 57
f 40 57 41
f 41 58 42
f 41 57 59
f 41 59 60
f 41 60 58
f 42 58 61
f 42 61 47
f 44 45 62
f 44 62 49
f 45 48 63
f 45 63 61
f 45 61 62
f 46 47 63
f 46 63 48
f 47 61 63
f 49 62 60
f 49 60 50
f 50 64 51
f 50 60 59
f 50 59 57
f 50 57 64
f 51 64 52
f 52 64 53
f 53 64 56
f 53 56 54
f 54 56 55
f 56 64 57
f 58 60 61
f 60 62 61

