# https://github.com/mikedh/trimesh
v -0.00001074 -0.00867446 0.01738041
v -0.00001074 -0.01370557 0.01735167
v -0.00001074 -0.00848433 0.01737721
v -0.00205754 -0.00956630 0.02108787
v -0.00001074 -0.01370557 -0.00872832
v -0.00222039 -0.00992713 0.02123796
v -0.00248203 -0.01064929 0.02132418
v -0.00251923 -0.01084401 0.02130183
v -0.00289310 -0.01154164 0.02128586
v -0.00327428 -0.01222854 0.02126989
v -0.00359631 -0.01264661 0.02130183
v -0.00398908 -0.01297830 0.02126989
v -0.00422999 -0.01305445 0.02134334
v -0.00470449 -0.01335037 0.02128586
v -0.00575899 -0.01370557 0.02135611
v -0.00213988 -0.00848433 0.02096972
v -0.00205632 -0.00920547 0.02106871
v -0.00001074 -0.00848433 -0.00785654
v -0.00221124 -0.00956630 0.02126989
v -0.00507530 -0.01370557 -0.01080718
v -0.00001074 -0.00993990 -0.00820780
v -0.00242958 -0.01028795 0.02134653
v -0.00270769 -0.01064929 0.02144553
v -0.00309680 -0.01100756 0.02158923
v -0.00271074 -0.01098251 0.02138166
v -0.00283211 -0.01130092 0.02134973
v -0.00303581 -0.01140058 0.02144233
v -0.00352861 -0.01245290 0.02133376
v -0.00378964 -0.01245290 0.02141679
v -0.00378964 -0.01272122 0.02133695
v -0.00412631 -0.01284031 0.02139443
v -0.00451176 -0.01312600 0.02139443
v -0.00595538 -0.01370557 0.02141679
v -0.00230272 -0.00848433 0.02115174
v -0.00223319 -0.00920547 0.02124754
v -0.00001074 -0.00866321 -0.00792998
v -0.00559493 -0.01370557 -0.01096365
v -0.00624142 -0.00848433 -0.00836108
v -0.00248264 -0.00848433 0.02132099
v -0.00270769 -0.00848433 0.02144872
v -0.00239238 -0.00956630 0.02134015
v -0.00240152 -0.00992713 0.02134334
v -0.00528816 -0.01370557 -0.01089021
v -0.00001074 -0.00937515 -0.00809604
v -0.00325294 -0.01084861 0.02165948
v -0.00342859 -0.01136992 0.02159881
v -0.00451176 -0.01281373 0.02149343
v -0.00624142 -0.01349807 0.02158284
v -0.00595538 -0.01353538 0.02151578
v -0.00619141 -0.01370557 0.02148065
v -0.00001074 -0.00881194 -0.00797150
v -0.00581572 -0.01370557 -0.01091256
v -0.00624142 -0.00848433 0.01712494
v -0.00595294 -0.01370557 -0.01082315
v -0.00613408 -0.01370557 -0.01066667
v -0.00624142 -0.01370557 -0.01056449
v -0.00306936 -0.00848433 0.02153175
v -0.00270769 -0.00884465 0.02145191
v -0.00001074 -0.00904448 -0.00802578
v -0.00001074 -0.00920547 -0.00806091
v -0.00624142 -0.01313674 0.02157645
v -0.00624142 -0.01259550 0.02132737
v -0.00335906 -0.00848433 0.02140401
v -0.00624142 -0.01278818 0.02144233
f 1 2 5
f 1 5 21
f 1 21 44
f 1 44 60
f 1 60 59
f 1 59 51
f 1 51 36
f 1 36 18
f 1 18 3
f 1 3 4
f 1 4 2
f 2 4 6
f 2 6 7
f 2 7 8
f 2 8 9
f 2 9 10
f 2 10 11
f 2 11 12
f 2 12 13
f 2 13 14
f 2 14 15
f 2 15 33
f 2 33 50
f 2 50 56
f 2 56 55
f 2 55 54
f 2 54 52
f 2 52 37
f 2 37 43
f 2 43 20
f 2 20 5
f 3 16 17
f 3 17 4
f 3 18 38
f 3 38 53
f 3 53 63
f 3 63 57
f 3 57 40
f 3 40 39
f 3 39 34
f 3 34 16
f 4 17 19
f 4 19 6
f 5 20 21
f 6 19 22
f 6 22 7
f 7 22 23
f 7 23 24
f 7 24 25
f 7 25 8
f 8 25 26
f 8 26 9
f 9 26 10
f 10 26 27
f 10 27 11
f 11 27 28
f 11 28 29
f 11 29 30
f 11 30 13
f 11 13 12
f 13 30 31
f 13 31 32
f 13 32 14
f 14 32 15
f 15 32 33
f 16 34 17
f 17 34 35
f 17 35 19
f 18 36 37
f 18 37 38
f 19 35 39
f 19 39 40
f 19 40 41
f 19 41 42
f 19 42 22
f 20 43 21
f 21 43 44
f 22 42 45
f 22 45 23
f 23 45 24
f 24 27 25
f 24 45 46
f 24 46 28
f 24 28 27
f 25 27 26
f 28 46 29
f 29 46 47
f 29 47 31
f 29 31 30
f 31 47 32
f 32 47 48
f 32 48 49
f 32 49 50
f 32 50 33
f 34 39 35
f 36 51 43
f 36 43 37
f 37 52 38
f 38 52 54
f 38 54 55
f 38 55 56
f 38 56 48
f 38 48 61
f 38 61 64
f 38 64 62
f 38 62 53
f 40 57 45
f 40 45 58
f 40 58 41
f 41 58 45
f 41 45 42
f 43 51 59
f 43 59 60
f 43 60 44
f 45 57 61
f 45 61 48
f 45 48 46
f 46 48 47
f 48 50 49
f 48 56 50
f 53 62 63
f 57 63 61
f 61 63 64
f 62 64 63

