# https://github.com/mikedh/trimesh
v 0.01084376 0.00681133 0.01791646
v 0.00700595 0.00762596 0.01710338
v 0.00701405 0.00762662 -0.00821286
v 0.01084331 0.00762596 -0.00857036
v 0.01129717 0.00773598 0.01791646
v 0.01104843 0.00776217 0.02002984
v 0.01092563 0.00763906 0.02045378
v 0.01059906 0.00767442 0.02127636
v 0.01005614 0.00767704 0.02155477
v 0.00949567 0.00762596 0.02151680
v 0.00915741 0.00762596 0.02123523
v 0.00700595 0.01249084 -0.00947203
v 0.00700595 0.01280059 0.02139341
v 0.01084331 0.01018446 -0.01058250
v 0.01150454 0.00847203 0.01791646
v 0.01141862 0.00812234 0.01791646
v 0.01160080 0.00902800 0.01791646
v 0.01133046 0.00848382 0.02002984
v 0.01119641 0.00810335 0.02002984
v 0.01120136 0.00832731 0.02054870
v 0.01086670 0.00777134 0.02093467
v 0.01115908 0.00869664 0.02107071
v 0.01076100 0.00829064 0.02137443
v 0.01028689 0.00812234 0.02157058
v 0.00990770 0.01064940 0.02169080
v 0.00812194 0.01281303 0.02171928
v 0.00770586 0.01292894 0.02168131
v 0.00701405 0.01333429 0.02155160
v 0.00700595 0.01335197 -0.00965553
v 0.01084331 0.01082687 -0.01060149
v 0.01140963 0.00884398 0.02002984
v 0.01159450 0.00972148 0.01791646
v 0.01142042 0.00920481 0.02002984
v 0.01155402 0.00899853 0.01846379
v 0.01084331 0.01127086 -0.01053505
v 0.01084331 0.01163954 -0.01045912
v 0.01136644 0.00884398 0.02039051
v 0.01128683 0.00884398 0.02075118
v 0.01120856 0.00928077 0.02090303
v 0.01090538 0.01033704 0.02121308
v 0.01088784 0.00878767 0.02137443
v 0.01027295 0.01081181 0.02164335
v 0.00881735 0.01278422 0.02159273
v 0.00827578 0.01313914 0.02163386
v 0.00812599 0.01350128 0.02144087
v 0.01084331 0.01350128 -0.00922210
v 0.01084331 0.01213264 -0.01020918
v 0.01134170 0.00992645 0.02002984
v 0.01140018 0.00956563 0.02002984
v 0.01084331 0.01350128 0.01736597
v 0.01136554 0.00920481 0.02039051
v 0.01128458 0.00956563 0.02055186
v 0.01120901 0.00999390 0.02059932
v 0.01099130 0.01064679 0.02075118
v 0.01080913 0.01080722 0.02111501
v 0.01067013 0.01062518 0.02141240
v 0.01064809 0.01028727 0.02147567
v 0.01052349 0.01111566 0.02134912
v 0.00997292 0.01192374 0.02140291
v 0.00920464 0.01245221 0.02157058
v 0.00966750 0.01237428 0.02136494
v 0.00892306 0.01317582 0.02128268
v 0.00860054 0.01341877 0.02129217
v 0.00929640 0.01281630 0.02129217
f 1 2 3
f 1 3 4
f 1 4 5
f 1 5 6
f 1 6 7
f 1 7 8
f 1 8 9
f 1 9 10
f 1 10 11
f 1 11 2
f 2 12 3
f 2 11 13
f 2 13 29
f 2 29 12
f 3 12 14
f 3 14 4
f 4 15 16
f 4 16 5
f 4 14 17
f 4 17 15
f 5 16 18
f 5 18 19
f 5 19 6
f 6 19 7
f 7 19 20
f 7 20 21
f 7 21 8
f 8 21 22
f 8 22 23
f 8 23 24
f 8 24 9
f 9 24 25
f 9 25 26
f 9 26 10
f 10 26 27
f 10 27 28
f 10 28 13
f 10 13 11
f 12 29 14
f 13 28 29
f 14 29 30
f 14 30 17
f 15 17 31
f 15 31 18
f 15 18 16
f 17 32 33
f 17 33 34
f 17 34 31
f 17 30 35
f 17 35 36
f 17 36 32
f 18 31 37
f 18 37 20
f 18 20 19
f 20 37 38
f 20 38 22
f 20 22 21
f 22 38 39
f 22 39 40
f 22 40 41
f 22 41 23
f 23 41 24
f 24 42 25
f 24 41 42
f 25 42 26
f 26 42 43
f 26 43 44
f 26 44 27
f 27 44 28
f 28 44 45
f 28 45 29
f 29 46 47
f 29 47 36
f 29 36 35
f 29 35 30
f 29 45 46
f 31 33 37
f 31 34 33
f 32 48 49
f 32 49 33
f 32 36 47
f 32 47 46
f 32 46 50
f 32 50 48
f 33 49 51
f 33 51 37
f 37 51 38
f 38 51 39
f 39 51 52
f 39 52 53
f 39 53 40
f 40 53 54
f 40 54 55
f 40 55 56
f 40 56 57
f 40 57 41
f 41 57 42
f 42 57 56
f 42 56 58
f 42 58 59
f 42 59 60
f 42 60 43
f 43 60 61
f 43 61 62
f 43 62 63
f 43 63 44
f 44 63 45
f 45 63 50
f 45 50 46
f 48 53 49
f 48 50 54
f 48 54 53
f 49 53 52
f 49 52 51
f 50 63 62
f 50 62 64
f 50 64 61
f 50 61 59
f 50 59 58
f 50 58 55
f 50 55 54
f 55 58 56
f 59 61 60
f 61 64 62

