# https://github.com/mikedh/trimesh
v 0.01084385 0.00401259 0.01737976
v 0.01081091 0.00401259 0.01738232
v 0.01084385 0.00398513 0.01737976
v 0.01084385 0.00401259 -0.00846691
v 0.00739920 0.00401259 0.01756861
v 0.01084385 0.00054155 0.01735935
v 0.01084385 0.00212368 -0.00846691
v 0.00911727 0.00401259 -0.00846691
v 0.00703794 0.00401259 0.01758647
v 0.01084385 0.00018067 0.01735424
v 0.01073228 0.00218664 -0.00846691
v 0.01084385 -0.00030445 -0.00765793
v 0.01064835 -0.00030445 -0.00766559
v 0.01028497 -0.00030445 -0.00763496
v 0.00956459 -0.00030445 -0.00756095
v 0.00715907 0.00401259 -0.00795396
v 0.00920440 0.00386765 -0.00846691
v 0.00667775 0.00401259 0.01759668
v 0.00992584 -0.00030445 0.01738487
v 0.01016278 -0.00030445 0.01737721
v 0.01084385 0.00001502 0.01734914
v 0.01064728 0.00223481 -0.00846691
v 0.01084385 -0.00030445 0.01733638
v 0.00922565 -0.00030445 -0.00749971
v 0.00707088 0.00401259 -0.00792589
v 0.00925221 0.00378990 -0.00846691
v 0.00935421 0.00363988 -0.00846691
v 0.00949765 0.00342902 -0.00846691
v 0.00976753 0.00306813 -0.00846691
v 0.00902165 0.00324604 -0.00830103
v 0.00884314 0.00270683 -0.00812495
v 0.00884314 -0.00030445 -0.00739252
v 0.00856370 -0.00030445 -0.00730831
v 0.00631650 0.00401259 0.01760434
v 0.00920440 -0.00030445 0.01740273
v 0.00956459 -0.00030445 0.01739508
v 0.01052403 -0.00030445 0.01735679
v 0.01047941 0.00234595 -0.00846691
v 0.01007672 0.00270683 -0.00846691
v 0.01028709 0.00249935 -0.00846691
v 0.00697844 0.00401259 -0.00789016
v 0.00846808 -0.00030445 -0.00727768
v -0.00001074 -0.00030445 -0.00439137
v 0.00375160 -0.00030445 0.01732107
v 0.00413942 -0.00030445 0.01733638
v 0.00438911 -0.00030445 0.01734404
v 0.00474930 -0.00030445 0.01735169
v 0.00487361 -0.00030445 0.01735424
v 0.00583093 -0.00030445 0.01737211
v 0.00003814 0.00401259 0.01730831
v -0.00001074 0.00396273 0.01730575
v -0.00001074 0.00378990 0.01730065
v -0.00001074 0.00401259 -0.00517483
v -0.00001074 -0.00030445 0.01690509
v 0.00343923 -0.00030445 0.01729810
v -0.00001074 0.00401259 0.01730575
f 1 2 3
f 1 3 6
f 1 6 10
f 1 10 21
f 1 21 23
f 1 23 12
f 1 12 7
f 1 7 4
f 1 4 8
f 1 8 16
f 1 16 25
f 1 25 41
f 1 41 53
f 1 53 56
f 1 56 50
f 1 50 34
f 1 34 18
f 1 18 9
f 1 9 5
f 1 5 2
f 2 5 6
f 2 6 3
f 4 7 11
f 4 11 22
f 4 22 38
f 4 38 40
f 4 40 39
f 4 39 29
f 4 29 28
f 4 28 27
f 4 27 26
f 4 26 17
f 4 17 8
f 5 9 6
f 6 9 10
f 7 12 13
f 7 13 14
f 7 14 15
f 7 15 11
f 8 17 16
f 9 18 19
f 9 19 20
f 9 20 10
f 10 20 21
f 11 15 22
f 12 23 37
f 12 37 20
f 12 20 19
f 12 19 36
f 12 36 35
f 12 35 49
f 12 49 48
f 12 48 47
f 12 47 46
f 12 46 45
f 12 45 44
f 12 44 55
f 12 55 54
f 12 54 43
f 12 43 42
f 12 42 33
f 12 33 32
f 12 32 24
f 12 24 15
f 12 15 14
f 12 14 13
f 15 24 22
f 16 17 26
f 16 26 27
f 16 27 28
f 16 28 29
f 16 29 30
f 16 30 31
f 16 31 32
f 16 32 33
f 16 33 25
f 18 34 35
f 18 35 36
f 18 36 19
f 20 37 21
f 21 37 23
f 22 24 38
f 24 32 31
f 24 31 39
f 24 39 40
f 24 40 38
f 25 33 42
f 25 42 43
f 25 43 41
f 29 39 31
f 29 31 30
f 34 44 45
f 34 45 46
f 34 46 47
f 34 47 48
f 34 48 49
f 34 49 35
f 34 50 51
f 34 51 52
f 34 52 44
f 41 43 53
f 43 54 52
f 43 52 51
f 43 51 56
f 43 56 53
f 44 52 55
f 50 56 51
f 52 54 55

