# https://github.com/mikedh/trimesh
v -0.00667853 -0.00378281 0.01755697
v -0.00703851 -0.00379269 0.01755697
v -0.00667853 -0.00418993 0.02075492
v -0.00625987 -0.00379217 0.01755697
v -0.00703963 -0.00420137 0.02075492
v -0.00740072 -0.00385768 0.01755697
v -0.00703963 -0.00432563 0.02114670
v -0.00667853 -0.00432927 0.02114438
v -0.00627943 -0.00423464 0.02075261
v -0.00624198 -0.00669866 0.01755697
v -0.00624198 -0.00474107 0.02140402
v -0.00744432 -0.00433135 0.02095893
v -0.00776125 -0.00397467 0.01755697
v -0.00812234 -0.00447122 0.02039444
v -0.00862653 -0.00506031 0.02129352
v -0.00745941 -0.00475459 0.02139668
v -0.00703963 -0.00471611 0.02143531
v -0.00667853 -0.00457105 0.02137736
v -0.00627943 -0.00436203 0.02108758
v -0.00624198 -0.00591614 0.02093729
v -0.00884565 -0.00909457 0.01755697
v -0.00624198 -0.00523450 0.02150409
v -0.00833140 -0.00468023 0.02095352
v -0.00919612 -0.00453361 0.01755697
v -0.00920394 -0.00484974 0.02003358
v -0.00894402 -0.00501508 0.02099447
v -0.00985737 -0.00548511 0.02078815
v -0.01062539 -0.00703974 0.02136268
v -0.00893508 -0.00537124 0.02130665
v -0.01078023 -0.00733975 0.02140170
v -0.01064831 -0.00775987 0.02146120
v -0.00624198 -0.00564005 0.02133756
v -0.01007873 -0.00909457 0.02112313
v -0.00992669 -0.00909457 0.02075492
v -0.01048957 -0.00909457 0.02140518
v -0.01157172 -0.00903165 0.02063863
v -0.01195126 -0.00894170 0.01755697
v -0.01064831 -0.00812175 0.02146313
v -0.01064831 -0.00848259 0.02146236
v -0.00961981 -0.00502964 0.02003358
v -0.00951976 -0.00514403 0.02062279
v -0.00957286 -0.00470675 0.01755697
v -0.00987135 -0.00528701 0.02039444
v -0.01013183 -0.00564733 0.02052001
v -0.01093003 -0.00699243 0.02088552
v -0.01108598 -0.00739955 0.02111579
v -0.01122125 -0.00855902 0.02132095
v -0.01112343 -0.00896874 0.02139436
v -0.01142136 -0.00896874 0.02111579
v -0.01152645 -0.00857098 0.02073020
v -0.01194232 -0.00855434 0.01755697
v -0.00989874 -0.00490537 0.01755697
v -0.01029001 -0.00523242 0.01755697
v -0.01063993 -0.00559638 0.01755697
v -0.01084730 -0.00595618 0.01755697
v -0.01120616 -0.00725708 0.02000306
v -0.01116647 -0.00729140 0.02039444
v -0.01115306 -0.00741046 0.02075377
v -0.01144708 -0.00775987 0.01967194
v -0.01153427 -0.00783682 0.01926471
v -0.01185344 -0.00812435 0.01755697
v -0.01172935 -0.00774167 0.01755697
v -0.01136379 -0.00739955 0.01931223
v -0.01131404 -0.00739955 0.01967194
f 1 2 3
f 1 3 4
f 1 4 10
f 1 10 21
f 1 21 37
f 1 37 51
f 1 51 61
f 1 61 62
f 1 62 55
f 1 55 54
f 1 54 53
f 1 53 52
f 1 52 42
f 1 42 24
f 1 24 13
f 1 13 6
f 1 6 2
f 2 5 3
f 2 6 5
f 3 5 7
f 3 7 8
f 3 8 9
f 3 9 4
f 4 9 11
f 4 11 10
f 5 6 12
f 5 12 7
f 6 13 14
f 6 14 12
f 7 12 15
f 7 15 16
f 7 16 17
f 7 17 18
f 7 18 8
f 8 18 19
f 8 19 9
f 9 19 11
f 10 11 22
f 10 22 32
f 10 32 20
f 10 20 21
f 11 19 18
f 11 18 17
f 11 17 22
f 12 14 23
f 12 23 15
f 13 24 14
f 14 24 25
f 14 25 23
f 15 23 26
f 15 26 27
f 15 27 28
f 15 28 29
f 15 29 16
f 16 29 30
f 16 30 17
f 17 30 31
f 17 31 22
f 20 32 33
f 20 33 34
f 20 34 21
f 21 34 33
f 21 33 35
f 21 35 36
f 21 36 37
f 22 31 38
f 22 38 39
f 22 39 35
f 22 35 32
f 23 25 40
f 23 40 41
f 23 41 26
f 24 42 40
f 24 40 25
f 26 41 27
f 27 41 43
f 27 43 44
f 27 44 45
f 27 45 46
f 27 46 28
f 28 46 30
f 28 30 29
f 30 46 47
f 30 47 48
f 30 48 31
f 31 48 38
f 32 35 33
f 35 39 48
f 35 48 49
f 35 49 36
f 36 49 50
f 36 50 51
f 36 51 37
f 38 48 39
f 40 42 52
f 40 52 43
f 40 43 41
f 43 52 53
f 43 53 54
f 43 54 44
f 44 54 45
f 45 54 55
f 45 55 56
f 45 56 57
f 45 57 46
f 46 57 58
f 46 58 50
f 46 50 49
f 46 49 47
f 47 49 48
f 50 58 59
f 50 59 60
f 50 60 61
f 50 61 51
f 55 62 63
f 55 63 56
f 56 63 64
f 56 64 57
f 57 64 59
f 57 59 58
f 59 64 60
f 60 64 63
f 60 63 62
f 60 62 61

