# https://github.com/mikedh/trimesh
v 0.01859459 -0.01173285 -0.01642162
v 0.01840701 -0.01118858 -0.01260596
v 0.01849624 -0.01160524 -0.00535737
v 0.01837240 -0.01207556 0.01513583
v 0.01858730 -0.01209326 -0.01687006
v 0.01859459 -0.01191306 -0.01948728
v 0.01841429 -0.01111045 -0.01987774
v 0.01840701 -0.01108337 -0.01904270
v 0.01827406 -0.01090577 -0.01050290
v 0.01832869 -0.01188076 0.01592061
v 0.01821760 -0.01261722 0.01587809
v 0.01825585 -0.01227347 0.01641931
v 0.01845800 -0.01255785 -0.01750407
v 0.01849078 -0.01245368 -0.01822313
v 0.01847075 -0.01215993 -0.02036871
v 0.01837240 -0.01188806 -0.02091381
v 0.01825949 -0.01100212 -0.02073211
v 0.01114772 -0.01090577 -0.01050290
v 0.00902785 -0.01160524 0.01778398
v 0.01704839 -0.01163076 0.01737806
v 0.01803184 -0.01183441 0.01691028
v 0.01718498 -0.01091879 -0.02153622
v 0.01624160 -0.01090577 -0.02109164
v 0.01810287 -0.01305212 -0.01461623
v 0.01821760 -0.01293024 -0.01795252
v 0.01792803 -0.01290576 0.01665127
v 0.01832141 -0.01273649 -0.01943703
v 0.01795353 -0.01265576 -0.02106071
v 0.01742356 -0.01230576 -0.02159034
v 0.01796081 -0.01139587 -0.02134292
v 0.01029358 -0.01093493 -0.01050290
v -0.00001074 -0.01166879 0.01734327
v 0.01687174 -0.01222868 0.01745538
v -0.00001074 -0.01544013 0.01735486
v 0.00200715 -0.01519222 0.01737419
v 0.01762571 -0.01217660 0.01730461
v 0.01730336 -0.01165264 -0.02165993
v 0.00089986 -0.01472764 -0.02171018
v -0.00000709 -0.01467659 -0.02159421
v 0.00992388 -0.01145524 -0.02057747
v 0.01010418 -0.01124170 -0.01984681
v 0.01028630 -0.01100108 -0.01281085
v 0.01735800 -0.01335160 0.01631107
v 0.01786611 -0.01323233 -0.01533529
v 0.01786611 -0.01323597 -0.01750407
v 0.01789343 -0.01318285 -0.01981589
v 0.01730518 -0.01288597 0.01726595
v 0.01714310 -0.01299430 -0.02128880
v 0.01702108 -0.01333024 -0.02085195
v 0.01529641 -0.01326097 -0.02148983
v -0.00001074 -0.01160524 -0.00824134
v -0.00001074 -0.01600993 0.01693735
v 0.00013496 -0.01565941 -0.02155941
v 0.00018777 -0.01414639 -0.02090221
v -0.00000527 -0.01622607 -0.02065866
v -0.00001074 -0.01619795 -0.01049904
v -0.00001074 -0.01386462 -0.01049904
v 0.00169754 -0.01593597 0.01662034
v -0.00001074 -0.01622138 0.01614870
v 0.01768035 -0.01335576 -0.01642162
v 0.01721777 -0.01341826 -0.02024114
v 0.01075617 -0.01445732 -0.02096793
v 0.01508879 -0.01373857 -0.02075144
v 0.00083976 -0.01588441 -0.02129267
f 1 2 3
f 1 3 4
f 1 4 5
f 1 5 6
f 1 6 7
f 1 7 8
f 1 8 2
f 2 9 3
f 2 8 9
f 3 9 10
f 3 10 4
f 4 11 5
f 4 10 12
f 4 12 11
f 5 11 13
f 5 13 14
f 5 14 6
f 6 14 15
f 6 15 16
f 6 16 7
f 7 17 8
f 7 16 17
f 8 17 9
f 9 18 19
f 9 19 20
f 9 20 21
f 9 21 10
f 9 17 22
f 9 22 23
f 9 23 18
f 10 21 12
f 11 24 25
f 11 25 13
f 11 12 26
f 11 26 24
f 12 21 26
f 13 25 27
f 13 27 14
f 14 27 15
f 15 27 28
f 15 28 16
f 16 28 29
f 16 29 30
f 16 30 17
f 17 30 22
f 18 31 32
f 18 32 19
f 18 23 31
f 19 33 20
f 19 32 34
f 19 34 35
f 19 35 33
f 20 33 36
f 20 36 21
f 21 36 26
f 22 30 37
f 22 37 38
f 22 38 39
f 22 39 40
f 22 40 41
f 22 41 23
f 23 41 42
f 23 42 31
f 24 26 43
f 24 43 44
f 24 44 45
f 24 45 25
f 25 45 46
f 25 46 27
f 26 36 47
f 26 47 43
f 27 46 28
f 28 48 29
f 28 46 49
f 28 49 48
f 29 38 37
f 29 37 30
f 29 48 50
f 29 50 38
f 31 42 51
f 31 51 32
f 32 51 57
f 32 57 56
f 32 56 59
f 32 59 52
f 32 52 34
f 33 35 47
f 33 47 36
f 34 52 35
f 35 52 47
f 38 50 53
f 38 53 39
f 39 54 40
f 39 53 55
f 39 55 56
f 39 56 57
f 39 57 51
f 39 51 54
f 40 54 41
f 41 54 51
f 41 51 42
f 43 47 58
f 43 58 59
f 43 59 60
f 43 60 44
f 44 60 45
f 45 60 46
f 46 60 61
f 46 61 49
f 47 52 58
f 48 49 50
f 49 62 50
f 49 61 63
f 49 63 62
f 50 62 64
f 50 64 53
f 52 59 58
f 53 64 55
f 55 64 62
f 55 62 61
f 55 61 60
f 55 60 59
f 55 59 56
f 61 62 63

