# https://github.com/mikedh/trimesh
v -0.00001074 -0.00320391 0.01723157
v -0.00001074 0.00186918 0.01700884
v -0.00722315 0.00186918 0.01761841
v -0.00198540 -0.00320391 0.01729253
v -0.00001074 -0.00320391 -0.00460275
v -0.00001074 0.00186918 -0.00457461
v -0.00722315 -0.00320391 0.01735114
v -0.00559443 -0.00320391 0.01738865
v -0.00722315 0.00186918 -0.00619466
v -0.00722315 -0.00320391 -0.00631658
v -0.00722315 0.00018030 -0.00633299
v -0.00722315 0.00038192 -0.00633064
v -0.00722315 0.00052990 -0.00632595
v -0.00722315 0.00072754 -0.00631189
v -0.00722315 0.00126335 -0.00626734
f 1 2 3
f 1 3 4
f 1 4 8
f 1 8 7
f 1 7 10
f 1 10 5
f 1 5 6
f 1 6 2
f 2 6 9
f 2 9 3
f 3 7 8
f 3 8 4
f 3 9 15
f 3 15 14
f 3 14 13
f 3 13 12
f 3 12 11
f 3 11 10
f 3 10 7
f 5 10 11
f 5 11 6
f 6 11 12
f 6 12 13
f 6 13 14
f 6 14 15
f 6 15 9

