# https://github.com/mikedh/trimesh
v 0.01691990 -0.01090473 -0.02153222
v 0.01588278 -0.00595530 -0.02155748
v 0.01588232 -0.00289641 -0.02166272
v 0.01760722 -0.01090473 -0.02146486
v 0.01641837 -0.01090473 -0.02128806
v 0.01515048 -0.00559629 -0.02136383
v 0.01563065 -0.00105776 -0.02162904
v 0.01606222 -0.00216697 -0.02154906
v 0.01462715 -0.00030445 -0.02135120
v 0.01730331 -0.00762067 -0.02135541
v 0.01802924 -0.01090473 -0.02114072
v 0.01606858 -0.01090473 -0.02088814
v 0.01446997 -0.00567307 -0.02096813
v 0.01545485 -0.00033454 -0.02159115
v 0.01607993 -0.00143026 -0.02146486
v 0.01659463 -0.00356567 -0.02137646
v 0.01436231 -0.00030445 -0.02090498
v 0.01613263 -0.00030445 -0.02120387
v 0.01660554 -0.00305413 -0.02129227
v 0.01760949 -0.00785517 -0.02101443
v 0.01826229 -0.01090473 -0.02063557
v 0.01587733 -0.01090473 -0.02037457
v 0.01402296 -0.00564713 -0.02020197
v 0.01624075 -0.00109615 -0.02128806
v 0.01635614 -0.00234751 -0.02139330
v 0.01426328 -0.00030445 -0.02023986
v 0.01637113 -0.00030445 -0.02050928
v 0.01692989 -0.00410108 -0.02106074
v 0.01661417 -0.00152157 -0.02036194
v 0.01832362 -0.01090473 -0.02006305
v 0.01369088 -0.01090473 -0.00964840
v 0.01391939 -0.00559629 -0.01948633
v 0.01369088 -0.00030445 -0.00718155
v 0.01640202 -0.00030445 -0.01981889
v 0.01833179 -0.01090473 -0.01951580
v 0.01369088 -0.01090473 0.01739856
v 0.01369088 -0.00580277 -0.01057031
v 0.01370451 -0.00576749 -0.01262882
v 0.01371587 -0.00541989 -0.01336551
v 0.01369088 -0.00030445 0.01734804
v 0.01635114 -0.00030445 0.00038739
v 0.01831499 -0.01090473 -0.00486624
v 0.01642382 -0.01090473 0.01740698
v 0.01369088 -0.00765492 0.02101464
v 0.01369088 -0.00577372 0.02111988
v 0.01514412 -0.00030445 0.01733120
v 0.01632252 -0.00030445 0.00667239
v 0.01628436 -0.00030445 0.01497801
v 0.01814827 -0.01090473 0.01521796
v 0.01699304 -0.01090473 0.01735225
v 0.01370497 -0.00721600 0.02131353
v 0.01372496 -0.00654882 0.02134299
v 0.01583054 -0.00030445 0.01701548
v 0.01625619 -0.00030445 0.01551264
v 0.01668640 -0.00270860 0.01551685
v 0.01808103 -0.01090473 0.01619881
v 0.01772442 -0.01068787 0.01693971
v 0.01734510 -0.00854726 0.01698601
v 0.01596500 -0.00090419 0.01705758
v 0.01612627 -0.00090419 0.01677974
v 0.01616988 -0.00030445 0.01629984
v 0.01661871 -0.00318176 0.01662819
v 0.01729740 -0.00726892 0.01674185
v 0.01622530 -0.00181107 0.01691866
f 1 2 3
f 1 3 4
f 1 4 11
f 1 11 21
f 1 21 30
f 1 30 35
f 1 35 42
f 1 42 49
f 1 49 56
f 1 56 50
f 1 50 43
f 1 43 36
f 1 36 31
f 1 31 22
f 1 22 12
f 1 12 5
f 1 5 6
f 1 6 2
f 2 6 3
f 3 7 8
f 3 8 4
f 3 6 9
f 3 9 7
f 4 8 10
f 4 10 11
f 5 12 13
f 5 13 6
f 6 13 9
f 7 9 14
f 7 14 15
f 7 15 8
f 8 15 16
f 8 16 10
f 9 13 17
f 9 17 26
f 9 26 33
f 9 33 40
f 9 40 46
f 9 46 53
f 9 53 61
f 9 61 54
f 9 54 48
f 9 48 47
f 9 47 41
f 9 41 34
f 9 34 27
f 9 27 18
f 9 18 14
f 10 16 19
f 10 19 11
f 11 20 21
f 11 19 20
f 12 22 23
f 12 23 13
f 13 23 17
f 14 18 15
f 15 18 24
f 15 24 25
f 15 25 16
f 16 25 19
f 17 23 26
f 18 27 28
f 18 28 24
f 19 25 24
f 19 24 28
f 19 28 20
f 20 28 21
f 21 28 27
f 21 27 29
f 21 29 30
f 22 31 23
f 23 31 32
f 23 32 26
f 26 32 33
f 27 34 29
f 29 34 30
f 30 34 35
f 31 36 44
f 31 44 45
f 31 45 40
f 31 40 33
f 31 33 37
f 31 37 38
f 31 38 39
f 31 39 32
f 32 39 33
f 33 39 38
f 33 38 37
f 34 41 42
f 34 42 35
f 36 43 44
f 40 45 46
f 41 47 42
f 42 47 48
f 42 48 49
f 43 50 44
f 44 51 45
f 44 50 51
f 45 51 52
f 45 52 53
f 45 53 46
f 48 54 55
f 48 55 49
f 49 55 56
f 50 57 51
f 50 56 57
f 51 57 52
f 52 57 58
f 52 58 59
f 52 59 53
f 53 59 60
f 53 60 61
f 54 61 56
f 54 56 55
f 56 61 62
f 56 62 63
f 56 63 57
f 57 63 58
f 58 63 64
f 58 64 59
f 59 64 60
f 60 64 62
f 60 62 61
f 62 64 63

