# https://github.com/mikedh/trimesh
v 0.01369088 -0.00733774 -0.00961753
v 0.01281354 -0.00733774 -0.00945051
v 0.01369088 -0.00617011 -0.01049999
v 0.01369088 -0.00733774 0.01783608
v 0.01256796 -0.00733774 -0.00940318
v 0.01369088 -0.00595531 -0.01060299
v 0.00763076 -0.00733774 -0.00822286
v 0.01369088 -0.00030445 0.01735170
v 0.01368732 -0.00453158 0.01783608
v 0.01157316 -0.00733774 0.01783608
v 0.01369088 -0.00571229 -0.01056402
v 0.00763076 -0.00727371 -0.00820894
v 0.00784135 -0.00054197 -0.00695624
v 0.00830345 -0.00030445 -0.00722070
v 0.00763076 -0.00733774 0.01728489
v 0.00920511 -0.00030445 0.01740181
v 0.00888894 -0.00129514 0.01783608
v 0.00922528 -0.00131304 0.01783608
v 0.00954027 -0.00138602 0.01783608
v 0.00991814 -0.00147758 0.01783608
v 0.01030787 -0.00160563 0.01783608
v 0.01144622 -0.00208205 0.01783608
v 0.01171316 -0.00219977 0.01783608
v 0.01204416 -0.00242008 0.01783608
v 0.01220373 -0.00254676 0.01783608
v 0.01243627 -0.00274503 0.01783608
v 0.01259287 -0.00288617 0.01783608
v 0.01264033 -0.00293298 0.01783608
v 0.01276015 -0.00308926 0.01783608
v 0.01295769 -0.00334881 0.01783608
v 0.01307158 -0.00350784 0.01783608
v 0.01369088 -0.00030445 -0.00718173
v 0.00763076 -0.00491092 0.01783608
v 0.01369088 -0.00558905 -0.01052226
v 0.00846955 -0.00030445 -0.00727638
v 0.00884445 -0.00030445 -0.00739329
v 0.00763076 -0.00090272 -0.00681427
v 0.00788169 -0.00030445 -0.00692562
v 0.00908173 -0.00030445 0.01739903
v 0.00884445 -0.00129583 0.01783608
v 0.01245288 -0.00030445 -0.00743227
v 0.00763076 -0.00153610 0.01783608
v 0.00922647 -0.00030445 -0.00749629
v 0.00937180 -0.00030445 -0.00752692
v 0.00956637 -0.00030445 -0.00756032
v 0.01028592 -0.00030445 -0.00763548
v 0.01064896 -0.00030445 -0.00766332
v 0.01100073 -0.00030445 -0.00765497
v 0.01139698 -0.00030445 -0.00761600
v 0.01173095 -0.00030445 -0.00756589
v 0.01181578 -0.00030445 -0.00755197
v 0.00763076 -0.00076847 -0.00675303
v 0.00764263 -0.00053508 -0.00665559
v 0.00774940 -0.00030445 -0.00669457
v 0.00884445 -0.00030445 0.01739346
v 0.00850454 -0.00132474 0.01783608
v 0.00775711 -0.00148997 0.01783608
v 0.00763136 -0.00030514 0.01734335
v 0.00763076 -0.00030445 0.01720973
v 0.00763907 -0.00030445 -0.00649135
v 0.00810651 -0.00137982 0.01783608
f 1 2 3
f 1 3 6
f 1 6 11
f 1 11 34
f 1 34 32
f 1 32 8
f 1 8 4
f 1 4 10
f 1 10 15
f 1 15 7
f 1 7 5
f 1 5 2
f 2 5 3
f 3 5 7
f 3 7 6
f 4 8 9
f 4 9 31
f 4 31 30
f 4 30 29
f 4 29 28
f 4 28 27
f 4 27 26
f 4 26 25
f 4 25 24
f 4 24 23
f 4 23 22
f 4 22 21
f 4 21 20
f 4 20 19
f 4 19 18
f 4 18 17
f 4 17 40
f 4 40 56
f 4 56 61
f 4 61 57
f 4 57 42
f 4 42 33
f 4 33 10
f 6 7 11
f 7 12 13
f 7 13 14
f 7 14 11
f 7 15 33
f 7 33 42
f 7 42 59
f 7 59 52
f 7 52 37
f 7 37 12
f 8 16 17
f 8 17 18
f 8 18 19
f 8 19 20
f 8 20 21
f 8 21 22
f 8 22 23
f 8 23 24
f 8 24 25
f 8 25 26
f 8 26 27
f 8 27 28
f 8 28 29
f 8 29 30
f 8 30 31
f 8 31 9
f 8 32 41
f 8 41 51
f 8 51 50
f 8 50 49
f 8 49 48
f 8 48 47
f 8 47 46
f 8 46 45
f 8 45 44
f 8 44 43
f 8 43 36
f 8 36 35
f 8 35 14
f 8 14 38
f 8 38 54
f 8 54 60
f 8 60 59
f 8 59 55
f 8 55 39
f 8 39 16
f 10 33 15
f 11 14 35
f 11 35 36
f 11 36 34
f 12 37 13
f 13 37 38
f 13 38 14
f 16 39 40
f 16 40 17
f 32 34 41
f 34 36 43
f 34 43 44
f 34 44 45
f 34 45 46
f 34 46 47
f 34 47 48
f 34 48 49
f 34 49 50
f 34 50 51
f 34 51 41
f 37 52 38
f 38 52 53
f 38 53 54
f 39 55 40
f 40 55 56
f 42 57 58
f 42 58 59
f 52 59 60
f 52 60 53
f 53 60 54
f 55 59 58
f 55 58 56
f 56 58 61
f 57 61 58

