# https://github.com/mikedh/trimesh
v -0.01282956 0.00249297 0.01745132
v -0.01257821 0.00222528 0.01745132
v -0.01282956 0.00310579 0.02006098
v -0.01282956 0.00716680 0.01745132
v -0.01116179 0.00153444 0.01745132
v -0.01120789 0.00215385 0.02042891
v -0.01177150 0.00250438 0.02075502
v -0.01247285 0.00288011 0.02039399
v -0.01279389 0.00316101 0.02039399
v -0.01282956 0.00381403 0.02131301
v -0.01282956 0.00523353 0.02142916
v -0.01267370 0.00716680 0.02102711
v -0.01128253 0.00716680 0.01745132
v -0.00958349 0.00106628 0.01745132
v -0.01020746 0.00183274 0.02068638
v -0.01064813 0.00193298 0.02039399
v -0.01136978 0.00230751 0.02075502
v -0.01064813 0.00202061 0.02075502
v -0.01222260 0.00279968 0.02073512
v -0.01161400 0.00249477 0.02098894
v -0.01244541 0.00298635 0.02078507
v -0.01276206 0.00324443 0.02071969
v -0.01274889 0.00353854 0.02120945
v -0.01238230 0.00332726 0.02133656
v -0.01209144 0.00342930 0.02145758
v -0.01282132 0.00415075 0.02138083
v -0.01282956 0.00451088 0.02141169
v -0.01173089 0.00342930 0.02155180
v -0.01136978 0.00342930 0.02160013
v -0.00722316 0.00351813 0.02145758
v -0.00722316 0.00395268 0.02133250
v -0.00722316 0.00414835 0.02110224
v -0.00722316 0.00433141 0.02074527
v -0.00722316 0.00524553 0.01745132
v -0.00920537 0.00103506 0.01745132
v -0.00956647 0.00181174 0.02111239
v -0.00993306 0.00180213 0.02085005
v -0.01074417 0.00214065 0.02097310
v -0.01211229 0.00287291 0.02106853
v -0.01022941 0.00208843 0.02122895
v -0.01132314 0.00249717 0.02116803
v -0.01205741 0.00308298 0.02135200
v -0.01257766 0.00323423 0.02106244
v -0.01136978 0.00306917 0.02154530
v -0.00956647 0.00234712 0.02154368
v -0.00722316 0.00312079 0.02143281
v -0.00722316 0.00268864 0.02124357
v -0.00731316 0.00139519 0.01745132
v -0.00884427 0.00105547 0.01745132
v -0.00920537 0.00182554 0.02109655
v -0.00956647 0.00202481 0.02140804
v -0.00992703 0.00207223 0.02137758
v -0.01136978 0.00274926 0.02138936
v -0.01177699 0.00296534 0.02138773
v -0.00992703 0.00234712 0.02151688
v -0.00920537 0.00204822 0.02138448
v -0.00920537 0.00234712 0.02150144
v -0.00884427 0.00222648 0.02140154
v -0.00853640 0.00210404 0.02122488
v -0.00726761 0.00240114 0.02085736
v -0.00776151 0.00120913 0.01745132
v -0.00812262 0.00113890 0.01745132
v -0.00873396 0.00182074 0.02075502
v -0.00892220 0.00185495 0.02102021
f 1 2 3
f 1 3 10
f 1 10 27
f 1 27 11
f 1 11 4
f 1 4 13
f 1 13 34
f 1 34 48
f 1 48 61
f 1 61 62
f 1 62 49
f 1 49 35
f 1 35 14
f 1 14 5
f 1 5 2
f 2 5 6
f 2 6 7
f 2 7 8
f 2 8 3
f 3 8 9
f 3 9 10
f 4 11 12
f 4 12 13
f 5 14 15
f 5 15 16
f 5 16 6
f 6 17 7
f 6 16 15
f 6 15 18
f 6 18 17
f 7 19 8
f 7 17 20
f 7 20 19
f 8 19 21
f 8 21 9
f 9 22 10
f 9 21 22
f 10 23 24
f 10 24 25
f 10 25 26
f 10 26 27
f 10 22 23
f 11 27 28
f 11 28 29
f 11 29 30
f 11 30 12
f 12 30 31
f 12 31 32
f 12 32 33
f 12 33 34
f 12 34 13
f 14 35 36
f 14 36 37
f 14 37 15
f 15 37 38
f 15 38 18
f 17 18 38
f 17 38 20
f 19 20 39
f 19 39 21
f 20 38 40
f 20 40 41
f 20 41 42
f 20 42 39
f 21 39 43
f 21 43 22
f 22 43 23
f 23 43 24
f 24 43 42
f 24 42 25
f 25 28 26
f 25 42 44
f 25 44 28
f 26 28 27
f 28 44 29
f 29 44 45
f 29 45 30
f 30 45 46
f 30 46 47
f 30 47 34
f 30 34 33
f 30 33 32
f 30 32 31
f 34 47 48
f 35 49 50
f 35 50 36
f 36 50 51
f 36 51 52
f 36 52 40
f 36 40 37
f 37 40 38
f 39 42 43
f 40 52 41
f 41 52 53
f 41 53 54
f 41 54 42
f 42 54 44
f 44 54 53
f 44 53 55
f 44 55 45
f 45 55 51
f 45 51 56
f 45 56 57
f 45 57 46
f 46 57 58
f 46 58 47
f 47 58 56
f 47 56 59
f 47 59 60
f 47 60 48
f 48 60 61
f 49 62 50
f 50 62 63
f 50 63 64
f 50 64 59
f 50 59 56
f 50 56 51
f 51 55 52
f 52 55 53
f 56 58 57
f 59 64 60
f 60 64 63
f 60 63 61
f 61 63 62

