# https://github.com/mikedh/trimesh
v -0.00001074 0.00903137 0.01732467
v -0.00001074 0.00851453 0.01732467
v -0.00001074 0.00942064 0.01732144
v -0.00504799 0.00795815 0.02129737
v -0.00001074 0.00820668 0.01732144
v -0.00001074 0.00973602 0.01731822
v -0.00533321 0.00848346 0.02134892
v -0.00522449 0.00809607 0.02135537
v -0.00515389 0.00767808 0.02134248
v -0.00001074 0.00771432 0.01730211
v -0.00001074 0.01028722 0.01731178
v -0.00001074 0.01245860 0.01727956
v -0.00667742 0.00992713 0.02154546
v -0.00559443 0.00848346 0.02143269
v -0.00538193 0.00871175 0.02131992
v -0.00559443 0.00812243 0.02144558
v -0.00559443 0.00764983 0.02144558
v -0.00331125 0.00764983 -0.00846086
v -0.00001074 0.00770208 -0.00849308
v -0.00089746 0.01245860 0.01730211
v -0.00722315 0.01071462 0.02112338
v -0.00722315 0.01055223 0.02136503
v -0.00703818 0.01051598 0.02133926
v -0.00684474 0.01047597 0.02130059
v -0.00670566 0.01027733 0.02138759
v -0.00645221 0.01015071 0.02134570
v -0.00632584 0.00990547 0.02139081
v -0.00001074 0.01245107 -0.00774558
v -0.00526614 0.01245860 -0.01095789
v -0.00713067 0.00992713 0.02158413
v -0.00713067 0.01028722 0.02149713
v -0.00594390 0.00764983 0.02136181
v -0.00722315 0.00764983 -0.00841897
v -0.00722315 0.00781035 -0.00854463
v -0.00722315 0.00800428 -0.00867673
v -0.00722315 0.00861479 -0.00905048
v -0.00661883 0.01245860 -0.01133164
v -0.00631666 0.01245860 -0.01132198
v -0.00595590 0.01245860 -0.01128009
v -0.00577163 0.01245860 -0.01122209
v -0.00559443 0.01245860 -0.01115765
v -0.00001074 0.00795015 -0.00850274
v -0.00125823 0.01245860 0.01730856
v -0.00234687 0.01245860 0.01730856
v -0.00487291 0.01245860 0.01730533
v -0.00523367 0.01245860 0.01729889
v -0.00722315 0.01245860 0.01723767
v -0.00722315 0.00956091 0.02144558
v -0.00001074 0.01214840 -0.00789379
v -0.00610486 0.00764983 0.02125871
v -0.00722315 0.00764983 0.01752443
v -0.00722315 0.01245860 -0.01129620
v -0.00695841 0.01245860 -0.01131231
v -0.00001074 0.01172382 -0.00802911
v -0.00001074 0.01136985 -0.00812577
v -0.00001074 0.01100599 -0.00821276
v -0.00001074 0.01078240 -0.00826432
v -0.00001074 0.01050986 -0.00831264
v -0.00722315 0.00935568 0.02131348
v -0.00622276 0.00764983 0.02109761
v -0.00638514 0.00764983 0.02073674
v -0.00722315 0.00893393 0.02070130
v -0.00722315 0.00919658 0.02112016
v -0.00722315 0.00904172 0.02090107
f 1 2 5
f 1 5 10
f 1 10 19
f 1 19 42
f 1 42 58
f 1 58 57
f 1 57 56
f 1 56 55
f 1 55 54
f 1 54 49
f 1 49 28
f 1 28 12
f 1 12 11
f 1 11 6
f 1 6 3
f 1 3 4
f 1 4 2
f 2 4 5
f 3 6 4
f 4 7 8
f 4 8 9
f 4 9 10
f 4 10 5
f 4 6 11
f 4 11 12
f 4 12 7
f 7 13 14
f 7 14 8
f 7 12 15
f 7 15 13
f 8 14 16
f 8 16 9
f 9 16 17
f 9 17 10
f 10 18 19
f 10 17 18
f 12 20 21
f 12 21 22
f 12 22 23
f 12 23 24
f 12 24 25
f 12 25 26
f 12 26 27
f 12 27 15
f 12 28 29
f 12 29 41
f 12 41 40
f 12 40 39
f 12 39 38
f 12 38 37
f 12 37 53
f 12 53 52
f 12 52 47
f 12 47 46
f 12 46 45
f 12 45 44
f 12 44 43
f 12 43 20
f 13 30 17
f 13 17 16
f 13 16 14
f 13 15 27
f 13 27 26
f 13 26 25
f 13 25 31
f 13 31 30
f 17 30 32
f 17 32 50
f 17 50 60
f 17 60 61
f 17 61 51
f 17 51 33
f 17 33 18
f 18 33 34
f 18 34 35
f 18 35 36
f 18 36 19
f 19 36 37
f 19 37 38
f 19 38 39
f 19 39 40
f 19 40 41
f 19 41 42
f 20 43 21
f 21 43 44
f 21 44 45
f 21 45 46
f 21 46 47
f 21 47 52
f 21 52 36
f 21 36 35
f 21 35 34
f 21 34 33
f 21 33 51
f 21 51 62
f 21 62 64
f 21 64 63
f 21 63 59
f 21 59 48
f 21 48 22
f 22 48 30
f 22 30 31
f 22 31 23
f 23 31 25
f 23 25 24
f 28 49 29
f 29 49 41
f 30 48 32
f 32 48 50
f 36 52 53
f 36 53 37
f 41 49 54
f 41 54 55
f 41 55 56
f 41 56 57
f 41 57 58
f 41 58 42
f 48 59 50
f 50 59 60
f 51 61 62
f 59 63 60
f 60 63 64
f 60 64 61
f 61 64 62

