# https://github.com/mikedh/trimesh
v -0.01136292 0.01011249 0.02151886
v -0.01156303 0.01058837 0.02140826
v -0.01261785 0.00936770 0.02166774
v -0.01353700 0.00728368 0.02158266
v -0.01317612 0.00716714 0.02145931
v -0.01283084 0.00716714 0.02120409
v -0.01136292 0.00943267 0.02115729
v -0.01136292 0.01058837 -0.00825709
v -0.01208264 0.01058837 0.02122535
v -0.01254798 0.01030171 0.02134020
v -0.01209349 0.01028697 0.02144229
v -0.01245437 0.00992629 0.02151886
v -0.01377645 0.00823678 0.02134446
v -0.01401455 0.00770765 0.02138274
v -0.01398877 0.00728368 0.02145505
v -0.01749036 0.00722742 0.01665262
v -0.01763620 0.00716714 0.01594225
v -0.01256019 0.00716714 0.02083827
v -0.01136292 0.00716714 0.01753739
v -0.01136292 0.00917112 -0.00899298
v -0.01583589 0.01058837 -0.02075448
v -0.01795502 0.01058837 0.01694187
v -0.01767894 0.00775018 0.01650799
v -0.01825078 0.01058837 0.01624001
v -0.01829283 0.01058837 0.01551688
v -0.01765723 0.00716714 0.01542330
v -0.01136292 0.00724751 -0.00959276
v -0.01532306 0.00716714 -0.02086083
v -0.01136292 0.00867783 -0.00923119
v -0.01583521 0.00884393 -0.02135426
v -0.01606856 0.01058837 -0.02123941
v -0.01766198 0.00716714 0.01497666
v -0.01818362 0.01058837 -0.01966979
v -0.01785463 0.00866342 -0.01984844
v -0.01759482 0.00716714 -0.01942307
v -0.01136292 0.00774750 -0.00952044
v -0.01559711 0.00716714 -0.02133724
v -0.01136292 0.00820864 -0.00940985
v -0.01598648 0.00812224 -0.02158821
v -0.01623136 0.00930273 -0.02166478
v -0.01661123 0.01058837 -0.02169881
v -0.01815377 0.01058837 -0.02022702
v -0.01779358 0.00848325 -0.02039292
v -0.01770607 0.00783591 -0.02003135
v -0.01757040 0.00716714 -0.02021001
v -0.01604550 0.00716714 -0.02167754
v -0.01627681 0.00857334 -0.02171157
v -0.01678421 0.00884393 -0.02178813
v -0.01729296 0.01043767 -0.02172008
v -0.01779018 0.01058837 -0.02143933
v -0.01802692 0.01058837 -0.02099695
v -0.01766740 0.00817616 -0.02088210
v -0.01769318 0.00792198 -0.02041844
v -0.01761314 0.00776123 -0.02075448
v -0.01744287 0.00716714 -0.02088210
v -0.01649930 0.00716714 -0.02176687
v -0.01678421 0.00776123 -0.02174985
v -0.01700942 0.00776123 -0.02168179
v -0.01732077 0.00812224 -0.02149038
v -0.01736554 0.00762594 -0.02133724
v -0.01763620 0.00848325 -0.02115859
v -0.01751071 0.00776123 -0.02111605
v -0.01720546 0.00716714 -0.02137978
v -0.01688460 0.00729507 -0.02168605
f 1 2 3
f 1 3 4
f 1 4 5
f 1 5 6
f 1 6 7
f 1 7 19
f 1 19 27
f 1 27 36
f 1 36 38
f 1 38 29
f 1 29 20
f 1 20 8
f 1 8 2
f 2 9 10
f 2 10 11
f 2 11 12
f 2 12 3
f 2 8 21
f 2 21 31
f 2 31 41
f 2 41 50
f 2 50 51
f 2 51 42
f 2 42 33
f 2 33 25
f 2 25 24
f 2 24 22
f 2 22 9
f 3 12 10
f 3 10 13
f 3 13 14
f 3 14 15
f 3 15 4
f 4 15 5
f 5 15 16
f 5 16 17
f 5 17 26
f 5 26 32
f 5 32 35
f 5 35 45
f 5 45 55
f 5 55 63
f 5 63 56
f 5 56 46
f 5 46 37
f 5 37 28
f 5 28 19
f 5 19 18
f 5 18 6
f 6 18 7
f 7 18 19
f 8 20 21
f 9 22 10
f 10 12 11
f 10 22 13
f 13 22 14
f 14 22 15
f 15 22 16
f 16 22 23
f 16 23 17
f 17 23 24
f 17 24 25
f 17 25 26
f 19 28 27
f 20 29 21
f 21 28 30
f 21 30 31
f 21 29 28
f 22 24 23
f 25 32 26
f 25 33 34
f 25 34 35
f 25 35 32
f 27 28 36
f 28 37 30
f 28 29 38
f 28 38 36
f 30 39 40
f 30 40 31
f 30 37 39
f 31 40 41
f 33 42 34
f 34 42 43
f 34 43 44
f 34 44 35
f 35 44 45
f 37 46 39
f 39 46 40
f 40 46 47
f 40 47 41
f 41 47 48
f 41 48 49
f 41 49 50
f 42 51 52
f 42 52 43
f 43 53 44
f 43 52 53
f 44 53 45
f 45 53 54
f 45 54 55
f 46 56 47
f 47 56 48
f 48 56 57
f 48 57 49
f 49 58 50
f 49 57 58
f 50 58 59
f 50 59 60
f 50 60 61
f 50 61 51
f 51 61 52
f 52 61 62
f 52 62 54
f 52 54 53
f 54 62 55
f 55 62 60
f 55 60 63
f 56 63 64
f 56 64 57
f 57 64 58
f 58 64 63
f 58 63 59
f 59 63 60
f 60 62 61

