# https://github.com/mikedh/trimesh
v -0.01209183 -0.01852774 -0.00902183
v -0.01173630 -0.01846031 -0.01118835
v -0.01167563 -0.01846093 -0.00432772
v -0.01209183 -0.01852341 -0.00450681
v -0.01256780 -0.01846897 -0.00450681
v -0.01223770 -0.01850423 -0.01189607
v -0.01174210 -0.01845908 -0.01183830
v -0.00978245 -0.01795556 -0.01137033
v -0.00978245 -0.01794566 -0.00414573
v -0.00978245 -0.01794009 -0.00136970
v -0.00978245 -0.01791164 0.00393393
v -0.00978245 -0.01783926 0.01533846
v -0.01137096 -0.01823763 0.01642172
v -0.01191206 -0.01833969 0.01623973
v -0.01227249 -0.01840897 0.01310551
v -0.01245271 -0.01837000 0.01479539
v -0.01297954 -0.01817206 0.01488494
v -0.01277746 -0.01837371 -0.00486790
v -0.01273776 -0.01836753 -0.01195385
v -0.00978245 -0.01795246 -0.01183830
v -0.00978245 -0.01781081 0.01595086
v -0.00978245 -0.01767163 0.01674525
v -0.01156768 -0.01814979 0.01691280
v -0.01209183 -0.01817391 0.01690702
v -0.01245271 -0.01830196 0.01623973
v -0.01245271 -0.01835577 0.01551756
v -0.01281404 -0.01822525 0.01587865
v -0.01316778 -0.01802979 0.01606063
v -0.01296392 -0.01822525 -0.01127790
v -0.01317671 -0.01803040 -0.01195385
v -0.00978245 -0.01581282 -0.01195385
v -0.00978245 -0.01729306 0.01721033
v -0.01173050 -0.01768833 0.01731432
v -0.01214090 -0.01772297 0.01728544
v -0.01268557 -0.01792958 0.01698212
v -0.01281404 -0.01814298 0.01656326
v -0.01315039 -0.01793453 0.01662104
v -0.01345818 -0.01763266 0.01648238
v -0.01348361 -0.01764565 0.01606063
v -0.01343008 -0.01761287 -0.01195385
v -0.01132680 -0.01220839 -0.01195385
v -0.00978245 -0.01220839 -0.01036218
v -0.00978245 -0.01688233 0.01735476
v -0.01191206 -0.01714523 0.01740098
v -0.01253479 -0.01739822 0.01731143
v -0.01325834 -0.01751637 0.01696768
v -0.01353625 -0.01714523 0.01660082
v -0.01361922 -0.01714523 0.01587865
v -0.01425088 -0.01220839 -0.01189896
v -0.00978245 -0.01220839 0.01755697
v -0.00987970 -0.01325997 0.01755697
v -0.01288274 -0.01480021 0.01737787
v -0.01281404 -0.01606210 0.01735765
v -0.01295991 -0.01672769 0.01731432
v -0.01027984 -0.01298903 0.01755697
v -0.01081068 -0.01239149 0.01755697
v -0.01317492 -0.01714523 0.01713522
v -0.01399973 -0.01220839 0.01695901
v -0.01425846 -0.01220839 0.01636395
v -0.01432760 -0.01227025 0.01584976
v -0.01427140 -0.01281521 0.01551756
v -0.01433965 -0.01233149 0.01533846
v -0.01346889 -0.01233149 0.01729410
v -0.01338637 -0.01272799 0.01734321
f 1 2 3
f 1 3 4
f 1 4 5
f 1 5 6
f 1 6 7
f 1 7 2
f 2 7 8
f 2 8 3
f 3 8 9
f 3 9 10
f 3 10 11
f 3 11 12
f 3 12 13
f 3 13 14
f 3 14 4
f 4 14 15
f 4 15 5
f 5 15 16
f 5 16 17
f 5 17 18
f 5 18 19
f 5 19 6
f 6 19 20
f 6 20 7
f 7 20 8
f 8 20 31
f 8 31 42
f 8 42 50
f 8 50 43
f 8 43 32
f 8 32 22
f 8 22 21
f 8 21 12
f 8 12 11
f 8 11 10
f 8 10 9
f 12 21 13
f 13 21 22
f 13 22 23
f 13 23 14
f 14 23 24
f 14 24 25
f 14 25 26
f 14 26 15
f 15 26 16
f 16 26 27
f 16 27 17
f 17 27 28
f 17 28 18
f 18 29 19
f 18 28 29
f 19 30 40
f 19 40 41
f 19 41 31
f 19 31 20
f 19 29 30
f 22 32 23
f 23 32 33
f 23 33 24
f 24 33 34
f 24 34 35
f 24 35 36
f 24 36 25
f 25 36 27
f 25 27 26
f 27 36 28
f 28 36 37
f 28 37 38
f 28 38 39
f 28 39 30
f 28 30 29
f 30 39 40
f 31 41 42
f 32 43 33
f 33 43 44
f 33 44 34
f 34 44 45
f 34 45 35
f 35 46 37
f 35 37 36
f 35 45 46
f 37 46 38
f 38 46 47
f 38 47 48
f 38 48 39
f 39 48 40
f 40 49 41
f 40 48 49
f 41 49 59
f 41 59 58
f 41 58 50
f 41 50 42
f 43 50 51
f 43 51 44
f 44 52 53
f 44 53 54
f 44 54 45
f 44 51 55
f 44 55 56
f 44 56 52
f 45 54 57
f 45 57 46
f 46 57 58
f 46 58 47
f 47 58 59
f 47 59 60
f 47 60 48
f 48 60 61
f 48 61 49
f 49 61 62
f 49 62 60
f 49 60 59
f 50 58 63
f 50 63 56
f 50 56 55
f 50 55 51
f 52 56 64
f 52 64 53
f 53 64 54
f 54 64 57
f 56 63 64
f 57 64 58
f 58 64 63
f 60 62 61

