# https://github.com/mikedh/trimesh
v 0.01272811 -0.01478420 0.01211862
v 0.01272811 -0.00951673 0.00857776
v 0.01112026 -0.00951673 0.01308431
v 0.01082160 -0.01506034 0.01438461
v 0.01174213 -0.01435734 -0.02287494
v 0.00787591 -0.00951673 0.01438461
v 0.01150484 -0.01123712 -0.02393804
v 0.00968423 -0.01009431 -0.02541199
v -0.00468419 -0.00988173 -0.02888509
v -0.02335659 -0.00993122 -0.01833026
v -0.02312749 -0.01480670 0.01343162
v -0.02591771 -0.01523581 -0.00789403
v -0.00937684 -0.01526168 -0.02592448
v 0.00433290 -0.01500860 -0.02630568
v 0.00966787 -0.01434271 -0.02426418
v -0.02856065 -0.01028047 0.00445240
v -0.02557814 -0.01042445 0.01289372
v 0.00785954 -0.01351485 -0.02552635
v 0.00729086 -0.01048350 -0.02666569
v 0.00471747 -0.01013537 -0.02776692
v -0.00759306 -0.01008644 -0.02836836
v -0.01080877 -0.01017867 -0.02740267
v -0.00152985 -0.01063029 -0.02879191
v -0.00343227 -0.01195531 -0.02841495
v -0.00574791 -0.01178603 -0.02821588
v -0.02522220 -0.01066684 -0.01488682
v -0.02688733 -0.01064828 -0.01138831
v -0.02783650 -0.01032546 -0.00889784
v -0.02906387 -0.01036933 -0.00135021
v -0.01781297 -0.01026585 -0.02382369
v -0.02097550 -0.01035527 -0.02088426
v -0.02212922 -0.01227869 -0.01842345
v -0.02294338 -0.01422517 -0.01575933
v -0.02460442 -0.01291871 0.01256758
v -0.02486217 -0.01476845 0.00995006
v -0.02715735 -0.01431965 -0.00379409
v -0.02721054 -0.01330789 -0.00646668
v -0.02647412 -0.01285009 -0.00996095
v -0.02541449 -0.01491637 -0.01007531
v -0.02090185 -0.01481232 -0.01805496
v -0.02624910 -0.01475720 0.00580352
v -0.02700598 -0.01450356 0.00244478
v -0.01667969 -0.01469871 -0.02237091
v -0.01480182 -0.01428704 -0.02393381
v -0.01191750 -0.01409244 -0.02548823
v -0.00786717 -0.01333657 -0.02720360
v -0.00491739 -0.01482638 -0.02715277
v 0.00081443 -0.01506203 -0.02705536
v 0.00292551 -0.01204136 -0.02781351
v 0.00560527 -0.01299294 -0.02669534
v -0.02895750 -0.01038283 0.00128002
v -0.02820471 -0.01186026 0.00283868
v -0.02731282 -0.01250928 0.00606188
v -0.02779968 -0.01035133 0.00751465
v -0.02645775 -0.01203180 0.00937403
v 0.00086762 -0.01110945 -0.02844883
v -0.01464226 -0.01065728 -0.02564494
v -0.00173441 -0.01442257 -0.02753820
v -0.02465761 -0.01421505 -0.01268436
v -0.02840109 -0.01046381 -0.00662762
v -0.02879794 -0.01065109 -0.00374750
v -0.02773831 -0.01343274 -0.00033793
v -0.01654059 -0.01209703 -0.02395075
v -0.01887669 -0.01322240 -0.02132051
f 1 2 3
f 1 3 4
f 1 4 5
f 1 5 2
f 2 6 3
f 2 5 7
f 2 7 8
f 2 8 9
f 2 9 10
f 2 10 6
f 3 6 4
f 4 6 11
f 4 11 12
f 4 12 13
f 4 13 14
f 4 14 5
f 5 14 15
f 5 15 7
f 6 16 17
f 6 17 11
f 6 10 16
f 7 15 8
f 8 15 18
f 8 18 19
f 8 19 20
f 8 20 9
f 9 21 22
f 9 22 10
f 9 20 23
f 9 23 24
f 9 24 25
f 9 25 21
f 10 26 27
f 10 27 28
f 10 28 29
f 10 29 16
f 10 22 30
f 10 30 31
f 10 31 32
f 10 32 33
f 10 33 26
f 11 17 34
f 11 34 35
f 11 35 12
f 12 36 37
f 12 37 38
f 12 38 39
f 12 39 40
f 12 40 13
f 12 35 41
f 12 41 42
f 12 42 36
f 13 43 44
f 13 44 45
f 13 45 22
f 13 22 46
f 13 46 47
f 13 47 48
f 13 48 14
f 13 40 43
f 14 48 49
f 14 49 50
f 14 50 18
f 14 18 15
f 16 29 51
f 16 51 52
f 16 52 53
f 16 53 54
f 16 54 17
f 17 54 55
f 17 55 34
f 18 50 19
f 19 50 20
f 20 50 49
f 20 49 56
f 20 56 23
f 21 25 46
f 21 46 22
f 22 57 30
f 22 45 57
f 23 56 58
f 23 58 24
f 24 58 47
f 24 47 25
f 25 47 46
f 26 33 59
f 26 59 27
f 27 38 28
f 27 59 38
f 28 38 60
f 28 60 29
f 29 61 36
f 29 36 62
f 29 62 51
f 29 60 61
f 30 57 63
f 30 63 64
f 30 64 31
f 31 64 32
f 32 64 40
f 32 40 33
f 33 40 39
f 33 39 59
f 34 55 35
f 35 55 41
f 36 42 62
f 36 61 37
f 37 61 60
f 37 60 38
f 38 59 39
f 40 64 43
f 41 55 53
f 41 53 42
f 42 53 52
f 42 52 62
f 43 64 63
f 43 63 44
f 44 63 57
f 44 57 45
f 47 58 48
f 48 58 56
f 48 56 49
f 51 62 52
f 53 55 54

