# https://github.com/mikedh/trimesh
v -0.00605379 -0.01907651 -0.02418295
v -0.00481678 -0.02485885 -0.01880061
v -0.00965852 -0.02261066 -0.01957682
v -0.01353868 -0.01801467 -0.02200306
v 0.00893532 -0.01641746 -0.02353224
v 0.00063864 -0.02020417 -0.02371351
v 0.00139244 -0.02675310 -0.01638367
v -0.00318354 -0.02814399 -0.01394348
v -0.00979865 -0.02611457 -0.01436645
v -0.01619633 -0.02314958 -0.01339037
v -0.01839976 -0.01850201 -0.01729002
v -0.02253602 -0.01728899 -0.01298135
v 0.01595150 -0.01425108 -0.01874483
v 0.01385438 -0.01913521 -0.01802904
v 0.00761616 -0.02160929 -0.02043204
v 0.00926390 -0.02546359 -0.01454307
v 0.00835064 -0.02833074 -0.00943495
v 0.00224289 -0.02992262 -0.00885396
v -0.00575903 -0.02945128 -0.00930016
v -0.01125794 -0.02793055 -0.00869593
v -0.01771360 -0.02499759 -0.00633476
v -0.02399531 -0.01839174 -0.00728759
v -0.02659497 -0.01570244 -0.00188666
v 0.02276957 -0.01321769 -0.00329964
v 0.02011676 -0.01536272 -0.01101991
v 0.01609163 -0.02124467 -0.01303248
v 0.01271401 -0.02728846 -0.00581419
v 0.00779495 -0.03008092 -0.00268611
v 0.00106386 -0.03138644 -0.00168215
v -0.00396633 -0.03090976 -0.00365288
v -0.00867278 -0.02982302 -0.00489389
v -0.01304098 -0.02851216 -0.00253272
v -0.01932268 -0.02448178 0.00132044
v -0.02264232 -0.02116107 -0.00185412
v -0.02450751 -0.01806447 0.00406739
v -0.02314969 -0.01813561 0.00891522
v -0.02025044 -0.01679275 0.01554787
v 0.01272851 -0.01321769 0.01093708
v 0.02079808 -0.01321769 0.00448106
v 0.01880726 -0.01915299 0.00513177
v 0.02045500 -0.01990891 -0.00293710
v 0.01790850 -0.02230295 -0.00759901
v 0.01474832 -0.02645606 0.00057677
v 0.00584762 -0.03060739 0.00249173
v -0.00218813 -0.03125837 0.00361189
v -0.00878875 -0.03024278 0.00028859
v -0.01376096 -0.02820090 0.00304948
v -0.01753965 -0.02424878 0.00863634
v -0.01738985 -0.02170533 0.01348882
v -0.01332607 -0.01755400 0.02109289
v 0.00473141 -0.01649749 0.02175290
v 0.01559876 -0.02146877 0.00825985
v 0.01248207 -0.02640093 0.00627982
v 0.00303052 -0.02950820 0.00887339
v -0.00262785 -0.02861533 0.01204330
v -0.00760006 -0.02944061 0.00817619
v -0.01281870 -0.02706080 0.00968213
v -0.00970201 -0.02581931 0.01451137
v -0.00697189 -0.02070040 0.02131135
v -0.00252637 -0.01810538 0.02329138
v 0.00347024 -0.02136384 0.01919652
v 0.00964564 -0.02370807 0.01281486
v 0.00331078 -0.02608966 0.01468335
v -0.00309173 -0.02451202 0.01795551
f 1 2 3
f 1 3 4
f 1 4 5
f 1 5 6
f 1 6 2
f 2 6 7
f 2 7 8
f 2 8 9
f 2 9 3
f 3 9 10
f 3 10 4
f 4 10 11
f 4 11 12
f 4 12 13
f 4 13 5
f 5 13 14
f 5 14 15
f 5 15 6
f 6 15 7
f 7 15 16
f 7 16 17
f 7 17 18
f 7 18 8
f 8 19 9
f 8 18 19
f 9 20 10
f 9 19 20
f 10 21 12
f 10 12 11
f 10 20 21
f 12 22 23
f 12 23 13
f 12 21 22
f 13 24 25
f 13 25 26
f 13 26 14
f 13 23 24
f 14 16 15
f 14 26 16
f 16 26 27
f 16 27 17
f 17 28 18
f 17 27 28
f 18 28 29
f 18 29 30
f 18 30 19
f 19 30 31
f 19 31 20
f 20 31 32
f 20 32 21
f 21 33 34
f 21 34 22
f 21 32 33
f 22 34 23
f 23 34 35
f 23 35 36
f 23 36 37
f 23 37 38
f 23 38 24
f 24 39 40
f 24 40 41
f 24 41 25
f 24 38 39
f 25 41 42
f 25 42 26
f 26 42 27
f 27 42 43
f 27 43 28
f 28 44 29
f 28 43 44
f 29 45 30
f 29 44 45
f 30 46 31
f 30 45 46
f 31 46 32
f 32 46 47
f 32 47 33
f 33 36 35
f 33 35 34
f 33 47 48
f 33 48 36
f 36 48 49
f 36 49 37
f 37 49 50
f 37 50 38
f 38 51 39
f 38 50 51
f 39 51 52
f 39 52 40
f 40 52 53
f 40 53 43
f 40 43 41
f 41 43 42
f 43 53 44
f 44 54 45
f 44 53 54
f 45 54 55
f 45 55 56
f 45 56 46
f 46 56 47
f 47 56 57
f 47 57 48
f 48 57 49
f 49 57 58
f 49 58 50
f 50 58 59
f 50 59 60
f 50 60 51
f 51 60 61
f 51 61 62
f 51 62 52
f 52 62 53
f 53 62 63
f 53 63 54
f 54 63 55
f 55 63 64
f 55 64 58
f 55 58 56
f 56 58 57
f 58 64 59
f 59 64 60
f 60 64 61
f 61 63 62
f 61 64 63

