# https://github.com/mikedh/trimesh
v 0.01191350 0.00145354 0.00258579
v 0.01124967 -0.00566892 0.00347265
v 0.01024329 -0.00310700 -0.00277043
v 0.00995744 0.00121786 -0.00320748
v 0.01000469 0.00536123 0.00051221
v 0.00923455 0.00779588 0.00555899
v 0.01080081 0.00317170 0.01107472
v 0.01189223 -0.00250600 0.00882249
v 0.00714620 -0.00837461 -0.00223130
v 0.00845024 -0.00758977 0.01086098
v 0.00744859 -0.01047929 0.00560046
v 0.00693831 -0.00508913 -0.00708667
v 0.00412943 0.00063335 -0.01407305
v 0.00661466 0.00485451 -0.00587123
v 0.00674932 0.00856658 -0.00047992
v 0.00577129 0.01064062 0.00644904
v 0.00705170 0.00821069 0.01158833
v 0.00802265 0.00274511 0.01460619
v 0.00717219 -0.00399318 0.01461895
v 0.00137725 -0.00630999 -0.00992908
v 0.00432551 -0.01068434 0.00003688
v 0.00363805 -0.01105908 0.00962959
v 0.00281358 -0.00787024 0.01462852
v 0.00008739 -0.01196176 0.00280910
v 0.00057876 -0.00264741 -0.01504604
v 0.00066145 0.00340267 -0.01462813
v 0.00239071 0.01116385 0.00055368
v 0.00196785 0.01166586 0.00887353
v -0.00103002 0.00740228 0.01557599
v 0.00344198 0.00474845 0.01680100
v 0.00409400 0.00029632 0.01710087
v -0.00219468 -0.01034495 -0.00168898
v -0.00280181 -0.00697463 -0.00793525
v -0.00558470 -0.01130655 0.00815257
v -0.00228209 -0.01009512 0.01276868
v -0.00018665 -0.00134406 0.01754430
v -0.00365700 -0.00584804 0.01589500
v -0.00706828 -0.00978401 0.00195415
v -0.00555163 -0.00194035 -0.01146353
v -0.00287741 0.00055322 -0.01454838
v -0.00733051 0.00525282 -0.00605307
v -0.00241911 0.00983221 -0.00374023
v -0.00114814 0.01211602 0.00327805
v -0.00417672 0.01149145 0.00666278
v -0.00396883 0.01030830 0.01093436
v -0.00544296 0.00355351 0.01597795
v -0.00057172 0.00315520 0.01747412
v -0.00760455 0.00777938 0.01072700
v -0.00775338 -0.00729987 -0.00238123
v -0.00694544 -0.00515276 -0.00596056
v -0.00663124 -0.00877999 0.01257089
v -0.00964329 -0.00814835 0.00836949
v -0.00643989 -0.00090097 0.01630334
v -0.01039216 -0.00665409 0.00124913
v -0.01057170 -0.00156089 -0.00201756
v -0.01184267 0.00224309 0.00238801
v -0.00913301 0.00634640 -0.00120089
v -0.00582567 0.00976387 -0.00074151
v -0.00863455 0.00846994 0.00582377
v -0.00951808 0.00105759 0.01328548
v -0.01058824 0.00534945 0.00821318
v -0.01043469 -0.00462718 0.01125018
v -0.01214505 -0.00387063 0.00549838
v -0.01222065 0.00122021 0.00771871
f 1 2 3
f 1 3 4
f 1 4 5
f 1 5 6
f 1 6 7
f 1 7 8
f 1 8 2
f 2 9 3
f 2 8 10
f 2 10 11
f 2 11 9
f 3 9 12
f 3 12 13
f 3 13 4
f 4 13 5
f 5 13 14
f 5 14 15
f 5 15 6
f 6 16 17
f 6 17 7
f 6 15 16
f 7 17 18
f 7 18 8
f 8 18 19
f 8 19 10
f 9 20 12
f 9 11 21
f 9 21 20
f 10 22 11
f 10 19 23
f 10 23 22
f 11 22 24
f 11 24 21
f 12 20 25
f 12 25 13
f 13 25 26
f 13 26 14
f 14 26 15
f 15 26 27
f 15 27 16
f 16 28 17
f 16 27 28
f 17 29 30
f 17 30 18
f 17 28 29
f 18 30 31
f 18 31 19
f 19 31 23
f 20 21 32
f 20 32 33
f 20 33 25
f 21 24 32
f 22 34 24
f 22 23 35
f 22 35 34
f 23 31 36
f 23 36 37
f 23 37 35
f 24 38 32
f 24 34 38
f 25 33 39
f 25 39 40
f 25 40 26
f 26 40 41
f 26 41 42
f 26 42 27
f 27 43 28
f 27 42 43
f 28 43 44
f 28 44 45
f 28 45 29
f 29 46 47
f 29 47 30
f 29 45 48
f 29 48 46
f 30 47 31
f 31 47 36
f 32 38 33
f 33 49 50
f 33 50 39
f 33 38 49
f 34 35 51
f 34 51 52
f 34 52 38
f 35 37 51
f 36 47 53
f 36 53 37
f 37 53 51
f 38 54 49
f 38 52 54
f 39 41 40
f 39 50 54
f 39 54 55
f 39 55 41
f 41 55 56
f 41 56 57
f 41 57 58
f 41 58 42
f 42 58 43
f 43 58 44
f 44 59 48
f 44 48 45
f 44 58 59
f 46 53 47
f 46 48 60
f 46 60 53
f 48 59 61
f 48 61 60
f 49 54 50
f 51 62 52
f 51 53 62
f 52 62 63
f 52 63 54
f 53 60 62
f 54 63 55
f 55 63 56
f 56 63 64
f 56 64 61
f 56 61 59
f 56 59 57
f 57 59 58
f 60 61 64
f 60 64 62
f 62 64 63

