# https://github.com/mikedh/trimesh
v 0.02391307 -0.00134972 0.00370657
v 0.03704581 -0.00554085 0.00958168
v 0.03704581 -0.00614782 0.01154510
v 0.02747778 -0.00274320 0.00702559
v 0.02747778 -0.00274320 0.00801801
v 0.02391307 -0.00105051 0.00664350
v 0.02391307 -0.00042643 0.00166497
v 0.03704581 -0.00474579 0.00831688
v 0.03704581 -0.00576098 0.01336476
v 0.02462010 -0.00061237 0.00796505
v 0.03555463 -0.00515401 0.01279478
v 0.02391307 0.00127481 0.00760314
v 0.02391307 0.00009078 0.00097897
v 0.03704581 -0.00345276 0.00666619
v 0.03698025 -0.00381823 0.01386034
v 0.03704581 0.00885132 0.01219957
v 0.02543383 0.01274965 0.00764601
v 0.02391307 0.01380331 0.00664350
v 0.02506617 0.00017627 0.00097897
v 0.02391307 0.01472659 0.00100545
v 0.02640696 0.01326900 0.00097897
v 0.03436939 -0.00244612 0.00518449
v 0.03088952 -0.00011653 0.00245185
v 0.03436939 -0.00117447 0.00426772
v 0.03704581 -0.00143307 0.00530050
v 0.03704581 0.01115527 0.01151357
v 0.02405191 0.01558149 0.00550479
v 0.02391307 0.01558149 0.00315046
v 0.02727982 0.00098201 0.00097897
v 0.02928007 -0.00031102 0.00223495
v 0.02391307 0.01538059 0.00233079
v 0.03106820 0.01298902 0.00454137
v 0.03023134 0.01252951 0.00284529
v 0.03310316 0.01018710 0.00254264
v 0.03182408 0.01067439 0.00217064
v 0.02850233 0.01160623 0.00097897
v 0.02771303 0.00130259 0.00097897
v 0.02928007 0.00127481 0.00151617
v 0.03252726 0.00127481 0.00273684
v 0.03637478 -0.00074488 0.00470404
v 0.03704581 0.00127481 0.00472422
v 0.03704581 0.01132411 0.01101043
v 0.03356852 0.01291422 0.00820212
v 0.02566136 0.01534853 0.00523745
v 0.02407504 0.01568622 0.00388816
v 0.02566136 0.01534853 0.00478979
v 0.02511759 0.01511985 0.00309245
v 0.03356852 0.01291422 0.00718448
v 0.03698025 0.01200161 0.00890956
v 0.03704581 0.01085819 0.00641651
v 0.03600712 0.01039227 0.00486167
v 0.02891755 0.01114031 0.00097897
v 0.03704581 0.00999047 0.00525259
v 0.03704581 0.00881285 0.00449345
v 0.03333841 0.00890903 0.00243924
v 0.03182408 0.00890903 0.00173559
v 0.03007579 0.00901589 0.00097897
v 0.02835707 0.00243106 0.00097897
v 0.03436939 0.00127481 0.00346445
v 0.03341297 0.00713085 0.00240771
v 0.03670001 0.00127481 0.00454641
v 0.03704581 0.00636144 0.00416684
v 0.02989839 0.00828068 0.00097897
v 0.02874529 0.00382026 0.00097897
f 1 2 3
f 1 3 4
f 1 4 5
f 1 5 6
f 1 6 12
f 1 12 18
f 1 18 28
f 1 28 31
f 1 31 20
f 1 20 13
f 1 13 7
f 1 7 2
f 2 8 14
f 2 14 25
f 2 25 41
f 2 41 62
f 2 62 54
f 2 54 53
f 2 53 50
f 2 50 42
f 2 42 26
f 2 26 16
f 2 16 9
f 2 9 3
f 2 7 8
f 3 9 5
f 3 5 4
f 5 10 6
f 5 9 11
f 5 11 10
f 6 10 12
f 7 13 8
f 8 13 14
f 9 15 11
f 9 16 15
f 10 11 15
f 10 15 12
f 12 15 17
f 12 17 18
f 13 19 14
f 13 20 21
f 13 21 36
f 13 36 52
f 13 52 57
f 13 57 63
f 13 63 64
f 13 64 58
f 13 58 37
f 13 37 29
f 13 29 19
f 14 19 22
f 14 22 23
f 14 23 24
f 14 24 25
f 15 16 17
f 16 26 17
f 17 26 18
f 18 26 27
f 18 27 28
f 19 29 23
f 19 23 30
f 19 30 22
f 20 31 32
f 20 32 33
f 20 33 21
f 21 33 34
f 21 34 35
f 21 35 36
f 22 30 23
f 23 29 37
f 23 37 38
f 23 38 39
f 23 39 40
f 23 40 25
f 23 25 24
f 25 40 41
f 26 42 43
f 26 43 27
f 27 43 44
f 27 44 45
f 27 45 28
f 28 45 46
f 28 46 31
f 31 46 47
f 31 47 48
f 31 48 32
f 32 48 49
f 32 49 50
f 32 50 33
f 33 50 51
f 33 51 34
f 34 52 36
f 34 36 35
f 34 51 53
f 34 53 54
f 34 54 55
f 34 55 56
f 34 56 57
f 34 57 52
f 37 58 38
f 38 58 39
f 39 59 40
f 39 58 60
f 39 60 59
f 40 59 61
f 40 61 41
f 41 61 62
f 42 50 49
f 42 49 43
f 43 49 44
f 44 46 45
f 44 49 46
f 46 49 48
f 46 48 47
f 50 53 51
f 54 62 55
f 55 62 60
f 55 60 56
f 56 60 57
f 57 60 63
f 58 64 60
f 59 62 61
f 59 60 62
f 60 64 63

