# https://github.com/mikedh/trimesh
v -0.00401325 0.01119300 -0.00950157
v -0.00100438 0.01119300 -0.00875065
v 0.00359662 0.00890869 -0.00758026
v 0.00278706 0.00754915 -0.00768656
v -0.00430671 0.00932771 -0.00917811
v -0.00447537 0.01119300 -0.00280271
v 0.00856866 0.01155231 0.00119077
v 0.01408716 0.01155231 0.00147536
v 0.00891947 0.01119300 -0.00614928
v 0.00637273 0.00890869 -0.00684877
v 0.00127925 0.00742187 -0.00778256
v 0.01166860 0.00636307 -0.00517777
v 0.00891947 0.00636307 -0.00591041
v 0.01059256 0.00498099 -0.00517091
v 0.00891947 0.00478500 -0.00532636
v -0.00126749 0.00727656 -0.00794258
v -0.00414143 0.00737794 -0.00810831
v -0.00447537 0.00637658 -0.00657332
v -0.00447537 0.00981205 -0.00084255
v 0.01127057 0.01155231 0.00205256
v 0.01654283 0.01119300 -0.00396167
v 0.01145272 0.01119300 -0.00543265
v 0.02887512 0.01116709 0.00096789
v 0.02446640 0.01119300 -0.00121172
v 0.02221649 0.01119300 -0.00209180
v 0.02001044 0.01119300 -0.00289872
v 0.00891947 0.00890869 -0.00615157
v 0.01399946 0.00636307 -0.00447943
v 0.01847903 0.00382082 -0.00279814
v 0.01725119 0.00244888 -0.00263927
v 0.01399946 0.00234413 -0.00279014
v 0.00637273 0.00474896 -0.00540751
v 0.01146284 0.00244213 -0.00270099
v 0.00054053 0.00502492 -0.00520292
v -0.00447537 0.00541916 -0.00410454
v 0.00823135 0.00259869 -0.00236153
v -0.00189827 0.00519275 -0.00474916
v -0.00447537 0.00853924 0.00062844
v 0.00879129 0.00907314 0.00217485
v 0.02998490 0.00864850 0.00097589
v 0.02729311 0.01093280 -0.00010763
v 0.02591011 0.00219883 -0.00018306
v 0.02163631 0.00382082 -0.00175920
v 0.01654283 0.00636307 -0.00366221
v 0.02418643 0.00178995 -0.00045509
v 0.02462156 0.00034593 0.00071873
v 0.02216252 0.00004631 0.00084102
v 0.01944038 0.00016345 0.00090617
v 0.01399946 0.00158833 -0.00127458
v 0.00992805 0.00252435 -0.00258441
v -0.00447537 0.00634617 0.00063072
v 0.00715531 0.00237680 -0.00066310
v -0.00330151 0.00495396 -0.00305531
v -0.00399638 0.00511503 -0.00114886
v 0.01610095 0.00050925 0.00097589
v 0.01370262 0.00086519 0.00097589
v -0.00281240 0.00626507 0.00097589
v 0.00101615 0.00443357 0.00097589
v 0.00717555 0.00238581 0.00097589
v 0.00864962 0.00195440 0.00097589
v 0.01119299 0.00135855 0.00097589
v 0.02748875 0.00114228 0.00097589
v 0.02854456 0.00312584 0.00097589
v -0.00308225 0.00494044 0.00022383
f 1 2 3
f 1 3 4
f 1 4 5
f 1 5 6
f 1 6 7
f 1 7 8
f 1 8 2
f 2 9 3
f 2 8 9
f 3 9 10
f 3 10 4
f 4 11 5
f 4 10 12
f 4 12 13
f 4 13 14
f 4 14 15
f 4 15 11
f 5 16 17
f 5 17 18
f 5 18 6
f 5 11 16
f 6 18 35
f 6 35 51
f 6 51 38
f 6 38 19
f 6 19 7
f 7 19 20
f 7 20 8
f 8 21 22
f 8 22 9
f 8 20 23
f 8 23 24
f 8 24 25
f 8 25 26
f 8 26 21
f 9 27 10
f 9 22 27
f 10 27 12
f 11 15 16
f 12 28 29
f 12 29 14
f 12 14 13
f 12 27 28
f 14 29 30
f 14 30 15
f 15 30 31
f 15 31 32
f 15 32 16
f 16 32 17
f 17 32 31
f 17 31 33
f 17 33 34
f 17 34 18
f 18 34 36
f 18 36 37
f 18 37 35
f 19 38 20
f 20 39 40
f 20 40 23
f 20 38 39
f 21 26 28
f 21 28 27
f 21 27 22
f 23 40 41
f 23 41 24
f 24 41 25
f 25 41 40
f 25 40 42
f 25 42 26
f 26 42 43
f 26 43 44
f 26 44 28
f 28 44 29
f 29 43 42
f 29 42 30
f 29 44 43
f 30 42 45
f 30 45 46
f 30 46 47
f 30 47 31
f 31 47 48
f 31 48 33
f 33 48 49
f 33 49 50
f 33 50 34
f 34 50 36
f 35 37 36
f 35 36 52
f 35 52 53
f 35 53 54
f 35 54 51
f 36 50 49
f 36 49 48
f 36 48 55
f 36 55 56
f 36 56 52
f 38 51 57
f 38 57 39
f 39 57 58
f 39 58 59
f 39 59 60
f 39 60 61
f 39 61 56
f 39 56 55
f 39 55 48
f 39 48 62
f 39 62 63
f 39 63 40
f 40 63 42
f 42 63 62
f 42 62 45
f 45 62 46
f 46 62 47
f 47 62 48
f 51 54 64
f 51 64 58
f 51 58 57
f 52 56 61
f 52 61 60
f 52 60 53
f 53 60 54
f 54 60 64
f 58 64 59
f 59 64 60

