# https://github.com/mikedh/trimesh
v -0.03300686 0.02620190 -0.00823037
v -0.03300686 0.02702764 -0.00823099
v -0.03300014 0.02620384 -0.00823099
v -0.02614055 0.02493661 -0.00823099
v -0.02614055 0.02778546 -0.00239496
v -0.02617751 0.02779128 -0.00239741
v -0.03300686 0.02741480 -0.00604186
v -0.03300686 0.03484937 -0.00823099
v -0.02614055 0.03161142 -0.00823099
v -0.02614055 0.02857821 -0.00239496
v -0.03300686 0.03111753 -0.00196890
v -0.03300686 0.02992986 -0.00198913
v -0.03300686 0.03474555 -0.00634163
v -0.02614055 0.03181228 -0.00636493
v -0.02614055 0.02954174 -0.00289090
v -0.02998100 0.03065372 -0.00248140
v -0.03300686 0.03190252 -0.00264140
v -0.03300686 0.03412940 -0.00504140
v -0.02614055 0.03108260 -0.00411818
v -0.02673335 0.03116993 -0.00398944
v -0.03300686 0.03378008 -0.00438791
f 1 2 3
f 1 3 4
f 1 4 5
f 1 5 6
f 1 6 7
f 1 7 12
f 1 12 11
f 1 11 17
f 1 17 21
f 1 21 18
f 1 18 13
f 1 13 8
f 1 8 2
f 2 8 9
f 2 9 4
f 2 4 3
f 4 9 14
f 4 14 19
f 4 19 15
f 4 15 10
f 4 10 5
f 5 10 11
f 5 11 12
f 5 12 6
f 6 12 7
f 8 13 14
f 8 14 9
f 10 15 16
f 10 16 11
f 11 16 17
f 13 18 19
f 13 19 14
f 15 19 16
f 16 19 20
f 16 20 17
f 17 20 21
f 18 21 19
f 19 21 20

