# https://github.com/mikedh/trimesh
v 0.05465345 0.01145681 0.01751525
v 0.05465345 0.01416378 0.01651398
v 0.05219308 0.01145681 0.01728532
v 0.04710157 -0.01145373 0.01726797
v 0.04964770 -0.01400276 0.01720203
v 0.05219308 -0.01909205 0.01666409
v 0.05465345 -0.01909205 0.01604198
v 0.05465345 0.01429979 0.01412535
v 0.04817428 0.01278178 0.01536001
v 0.05219308 0.01347498 0.01618948
v 0.04723612 0.01155772 0.01589535
v 0.04964770 0.01145681 0.01663893
v 0.04710083 0.00890778 0.01648101
v 0.04710083 -0.01146251 0.01726624
v 0.04964770 -0.01654740 0.01696082
v 0.05219308 -0.02164108 0.01630401
v 0.05465345 -0.02598890 0.01543376
v 0.05465345 -0.02427785 0.01567150
v 0.05465345 -0.02418571 0.01568278
v 0.05465345 -0.02164108 0.01589015
v 0.05465345 0.01429979 0.01401082
v 0.04817428 0.01278178 0.01515178
v 0.04710083 0.01214123 0.01417394
v 0.04710083 0.01151385 0.01588147
v 0.04710083 -0.01483635 0.01635868
v 0.05070341 -0.02336529 0.01550578
v 0.05300261 -0.02606348 0.01547541
v 0.05465345 -0.02723928 0.01502770
v 0.05465345 0.01413746 0.01382514
v 0.04710083 0.00996513 0.01039793
v 0.04710083 0.01094788 0.01167077
v 0.04710083 -0.01534089 0.01391277
v 0.04809444 -0.01829356 0.01564200
v 0.04760355 -0.01654740 0.01605587
v 0.05318226 -0.02861690 0.01336963
v 0.05465345 -0.02971811 0.01387373
v 0.05465345 0.01392248 0.01361691
v 0.04710083 0.00868842 0.00942790
v 0.05465345 0.01186044 0.01180439
v 0.04710083 -0.01345435 0.01251586
v 0.05318226 -0.02861690 0.01234927
v 0.04809444 -0.01829356 0.01482294
v 0.05465345 -0.03052099 0.01147121
v 0.04710157 0.00868842 0.00942790
v 0.04710083 0.00636314 0.00865222
v 0.05465345 0.01167179 0.01168118
v 0.04710083 -0.00992695 0.01039099
v 0.05465345 -0.02999452 0.01112155
v 0.05465345 0.00876739 0.01039273
v 0.04710157 0.00636314 0.00865222
v 0.05465345 -0.02107511 0.00990945
v 0.04710083 -0.00381981 0.00924656
v 0.04710083 -0.00873360 0.00986086
v 0.05465345 -0.02748059 0.01052808
v 0.05465345 0.00874545 0.01038839
v 0.05377147 0.00781534 0.01014371
v 0.05465345 -0.01645088 0.00984611
v 0.05465345 -0.01906572 0.00984090
v 0.05465345 -0.02303624 0.01005521
v 0.04710083 -0.00636884 0.00940534
v 0.05465345 -0.02522990 0.01028861
v 0.05465345 0.00632804 0.01031117
f 1 2 3
f 1 3 4
f 1 4 5
f 1 5 6
f 1 6 7
f 1 7 20
f 1 20 19
f 1 19 18
f 1 18 17
f 1 17 28
f 1 28 36
f 1 36 43
f 1 43 48
f 1 48 54
f 1 54 61
f 1 61 59
f 1 59 51
f 1 51 58
f 1 58 57
f 1 57 62
f 1 62 55
f 1 55 49
f 1 49 46
f 1 46 39
f 1 39 37
f 1 37 29
f 1 29 21
f 1 21 8
f 1 8 2
f 2 8 9
f 2 9 10
f 2 10 11
f 2 11 12
f 2 12 3
f 3 12 13
f 3 13 4
f 4 14 15
f 4 15 5
f 4 13 14
f 5 15 6
f 6 15 16
f 6 16 17
f 6 17 18
f 6 18 19
f 6 19 20
f 6 20 7
f 8 21 22
f 8 22 9
f 9 22 23
f 9 23 24
f 9 24 11
f 9 11 10
f 11 24 12
f 12 24 13
f 13 24 23
f 13 23 31
f 13 31 30
f 13 30 38
f 13 38 45
f 13 45 52
f 13 52 60
f 13 60 53
f 13 53 47
f 13 47 40
f 13 40 32
f 13 32 25
f 13 25 14
f 14 25 15
f 15 25 26
f 15 26 27
f 15 27 16
f 16 27 17
f 17 27 28
f 21 23 22
f 21 29 30
f 21 30 31
f 21 31 23
f 25 32 33
f 25 33 34
f 25 34 26
f 26 34 33
f 26 33 35
f 26 35 27
f 27 35 36
f 27 36 28
f 29 37 30
f 30 37 39
f 30 39 38
f 32 40 41
f 32 41 42
f 32 42 33
f 33 42 41
f 33 41 35
f 35 41 43
f 35 43 36
f 38 39 44
f 38 44 50
f 38 50 45
f 39 46 44
f 40 47 41
f 41 48 43
f 41 47 48
f 44 46 49
f 44 49 50
f 45 50 51
f 45 51 52
f 47 53 48
f 48 53 54
f 49 55 50
f 50 55 56
f 50 56 57
f 50 57 58
f 50 58 51
f 51 59 60
f 51 60 52
f 53 60 54
f 54 60 61
f 55 62 56
f 56 62 57
f 59 61 60

