# https://github.com/mikedh/trimesh
v 0.06245390 -0.04115462 0.00847014
v 0.06245390 -0.03568070 0.00663995
v 0.06800471 -0.04277839 0.00505869
v 0.06493483 -0.04369350 0.00798188
v 0.06368915 -0.03945832 0.01159118
v 0.06272492 -0.03094891 0.01283737
v 0.06245390 -0.01648569 0.01409153
v 0.06612317 -0.03804101 0.00525974
v 0.06245390 -0.03059737 0.00663676
v 0.08551192 -0.04722002 -0.00106373
v 0.08208763 -0.04709727 0.00022872
v 0.08588720 -0.05045081 -0.00055632
v 0.07834017 -0.04869871 0.00225996
v 0.07085569 -0.04610404 0.00485764
v 0.06923475 -0.04606497 0.00781433
v 0.06660267 -0.04271143 0.01035936
v 0.06368915 -0.03636145 0.01206987
v 0.07399855 -0.04347030 0.00841269
v 0.06747308 -0.03436383 0.01117951
v 0.06840604 0.00313897 0.01393356
v 0.06381424 0.00313897 0.01523719
v 0.06245390 0.00313897 0.00953442
v 0.06606584 -0.03285167 0.00530760
v 0.08141527 -0.04161776 -0.00002019
v 0.08470928 -0.04421801 -0.00106373
v 0.06245390 -0.02672489 0.00691919
v 0.08880594 -0.05205226 -0.00106373
v 0.07586967 -0.04855363 0.00457840
v 0.08428710 -0.05131570 0.00280407
v 0.07765740 -0.04882147 0.00562354
v 0.08020608 -0.04895539 0.00553897
v 0.08303621 -0.04831369 0.00517357
v 0.08599144 -0.04200836 0.00491827
v 0.08274955 -0.03436383 0.00657613
v 0.08148824 -0.02291937 0.00794039
v 0.08274955 -0.00382480 0.00914030
v 0.07676614 -0.01146374 0.01029553
v 0.07765740 0.00313897 0.01122259
v 0.09724421 0.00313897 -0.00106373
v 0.06245390 -0.00134172 0.00912115
v 0.08495945 -0.04059105 -0.00106373
v 0.06245390 -0.02019078 0.00747447
v 0.10096039 -0.05282787 -0.00106373
v 0.09217291 -0.05386574 -0.00005370
v 0.08874860 -0.05134360 0.00283917
v 0.09292344 -0.04964172 0.00197274
v 0.09462256 -0.03691387 0.00268758
v 0.08397959 -0.01761284 0.00762605
v 0.08855054 0.00293251 0.00789571
v 0.10310775 0.00313897 0.00322691
v 0.10881493 0.00313897 0.00132332
v 0.11569481 0.00203414 -0.00106373
v 0.10268557 -0.04426265 -0.00061217
v 0.09649368 -0.05380436 -0.00025635
v 0.10933092 -0.02607204 -0.00106373
v 0.10964885 -0.02017961 -0.00065685
v 0.09681683 -0.02157460 0.00328275
v 0.09097414 -0.02419159 0.00489274
v 0.09513334 -0.00731784 0.00499007
v 0.09621744 -0.00382480 0.00493423
v 0.11117076 -0.00891371 -0.00026273
v 0.11389144 -0.00752988 -0.00104778
v 0.09970429 -0.01783046 0.00268439
f 1 2 3
f 1 3 4
f 1 4 5
f 1 5 6
f 1 6 7
f 1 7 22
f 1 22 40
f 1 40 42
f 1 42 26
f 1 26 9
f 1 9 2
f 2 8 3
f 2 9 8
f 3 8 10
f 3 10 11
f 3 11 12
f 3 12 13
f 3 13 14
f 3 14 4
f 4 15 16
f 4 16 5
f 4 14 15
f 5 17 6
f 5 16 18
f 5 18 17
f 6 19 7
f 6 17 19
f 7 19 20
f 7 20 21
f 7 21 22
f 8 9 23
f 8 23 24
f 8 24 25
f 8 25 10
f 9 26 23
f 10 27 12
f 10 12 11
f 10 25 41
f 10 41 39
f 10 39 52
f 10 52 55
f 10 55 43
f 10 43 27
f 12 27 13
f 13 27 28
f 13 28 14
f 14 28 15
f 15 28 29
f 15 29 30
f 15 30 31
f 15 31 16
f 16 31 32
f 16 32 18
f 17 18 19
f 18 33 34
f 18 34 19
f 18 32 33
f 19 34 35
f 19 35 36
f 19 36 37
f 19 37 38
f 19 38 20
f 20 38 50
f 20 50 51
f 20 51 39
f 20 39 22
f 20 22 21
f 22 39 40
f 23 26 41
f 23 41 24
f 24 41 25
f 26 42 39
f 26 39 41
f 27 43 44
f 27 44 28
f 28 44 29
f 29 44 31
f 29 31 30
f 31 44 45
f 31 45 32
f 32 45 43
f 32 43 46
f 32 46 33
f 33 46 47
f 33 47 34
f 34 48 35
f 34 47 48
f 35 48 36
f 36 49 38
f 36 38 37
f 36 48 49
f 38 49 50
f 39 42 40
f 39 51 52
f 43 53 46
f 43 45 54
f 43 54 44
f 43 55 53
f 44 54 45
f 46 53 47
f 47 53 55
f 47 55 56
f 47 56 57
f 47 57 58
f 47 58 48
f 48 58 57
f 48 57 59
f 48 59 49
f 49 59 60
f 49 60 50
f 50 60 61
f 50 61 62
f 50 62 51
f 51 62 52
f 52 62 55
f 55 62 56
f 56 63 57
f 56 62 61
f 56 61 60
f 56 60 63
f 57 63 59
f 59 63 60

