# https://github.com/mikedh/trimesh
v -0.00447537 0.01587920 -0.00970023
v -0.00447537 0.01145712 -0.00965425
v -0.00447537 0.01587920 -0.00407763
v 0.00447465 0.01587920 -0.00776681
v 0.00509809 0.01530552 -0.00763826
v 0.00509809 0.01527204 -0.00763826
v -0.00381603 0.01145712 -0.00949121
v -0.00355491 0.01119436 -0.00940029
v -0.00447537 0.01119436 -0.00960304
v -0.00447537 0.01119436 -0.00280157
v 0.00622092 0.01587920 0.00097645
v 0.00506871 0.01587920 -0.00762886
v 0.01145972 0.01400270 -0.00579681
v -0.00100895 0.01119436 -0.00875233
v 0.00891376 0.01119436 -0.00615109
v 0.00809775 0.01119436 0.00097645
v 0.02152604 0.01587920 0.00097645
v 0.01251400 0.01587920 -0.00530666
v 0.01307542 0.01560818 -0.00524395
v 0.01317661 0.01400270 -0.00526172
v 0.01909433 0.01145712 -0.00324364
v 0.01654837 0.01145712 -0.00400238
v 0.01298076 0.01244353 -0.00516453
v 0.01144666 0.01119436 -0.00543416
v 0.02887015 0.01119436 0.00097645
v 0.02161091 0.01584435 0.00097645
v 0.02045870 0.01587920 -0.00007701
v 0.01289590 0.01587920 -0.00513944
v 0.01819671 0.01548437 -0.00275767
v 0.02067739 0.01303830 -0.00267198
v 0.02072308 0.01145712 -0.00267616
v 0.02068718 0.01119436 -0.00266257
v 0.01933913 0.01119436 -0.00313182
v 0.01654837 0.01119436 -0.00396267
v 0.02770162 0.01119436 0.00025220
v 0.02569423 0.01288239 -0.00012613
v 0.02849805 0.01160708 0.00097645
v 0.02196016 0.01568706 0.00097645
v 0.02262603 0.01510191 0.00031908
v 0.02092872 0.01553527 -0.00043966
v 0.01936198 0.01587920 -0.00114823
v 0.01659080 0.01587920 -0.00312764
v 0.01779850 0.01587920 -0.00239921
v 0.01894092 0.01587920 -0.00149207
v 0.02670282 0.01119436 -0.00032156
v 0.02199606 0.01145712 -0.00219019
v 0.02222128 0.01119436 -0.00208986
v 0.02640253 0.01326989 0.00097645
v 0.02381087 0.01477632 0.00097645
v 0.02446695 0.01119436 -0.00121094
f 1 2 9
f 1 9 10
f 1 10 3
f 1 3 11
f 1 11 17
f 1 17 27
f 1 27 41
f 1 41 44
f 1 44 43
f 1 43 42
f 1 42 28
f 1 28 18
f 1 18 12
f 1 12 4
f 1 4 5
f 1 5 6
f 1 6 2
f 2 7 8
f 2 8 9
f 2 6 7
f 3 10 11
f 4 12 5
f 5 12 13
f 5 13 6
f 6 14 8
f 6 8 7
f 6 13 15
f 6 15 14
f 8 14 15
f 8 15 24
f 8 24 34
f 8 34 33
f 8 33 32
f 8 32 47
f 8 47 50
f 8 50 45
f 8 45 35
f 8 35 25
f 8 25 16
f 8 16 10
f 8 10 9
f 10 16 11
f 11 16 25
f 11 25 37
f 11 37 48
f 11 48 49
f 11 49 38
f 11 38 26
f 11 26 17
f 12 18 19
f 12 19 13
f 13 19 20
f 13 20 21
f 13 21 22
f 13 22 23
f 13 23 15
f 15 23 24
f 17 26 27
f 18 28 19
f 19 28 29
f 19 29 30
f 19 30 20
f 20 30 21
f 21 30 31
f 21 31 32
f 21 32 33
f 21 33 22
f 22 34 24
f 22 24 23
f 22 33 34
f 25 35 36
f 25 36 37
f 26 38 39
f 26 39 40
f 26 40 27
f 27 40 41
f 28 42 29
f 29 42 43
f 29 43 44
f 29 44 41
f 29 41 40
f 29 40 39
f 29 39 36
f 29 36 30
f 30 36 45
f 30 45 46
f 30 46 31
f 31 46 47
f 31 47 32
f 35 45 36
f 36 39 48
f 36 48 37
f 38 49 39
f 39 49 48
f 45 50 46
f 46 50 47

