# https://github.com/mikedh/trimesh
v 0.00419627 0.02110629 -0.00416731
v 0.00424704 0.02108634 -0.00416731
v 0.00418358 0.02110629 -0.00418226
v -0.01113824 0.02110629 -0.00416731
v 0.00557013 0.02055780 -0.00416731
v 0.00511641 0.02037974 -0.00511070
v 0.00315240 0.02110629 -0.00510875
v -0.01644646 0.02110629 -0.00672311
v -0.01817885 0.01587971 -0.00732419
v -0.00476076 0.01587971 -0.00416731
v 0.00650295 0.02015563 -0.00416731
v 0.01095767 0.01813356 -0.00416731
v 0.01025964 0.01785011 -0.00512013
v 0.00071880 0.02078241 -0.00748836
v 0.00003981 0.02110629 -0.00747243
v 0.00033488 0.02110629 -0.00726958
v 0.00119156 0.02110629 -0.00668053
v 0.00171508 0.02110629 -0.00631968
v -0.01671933 0.02110629 -0.00688988
v -0.01763946 0.02110629 -0.00748836
v -0.01838509 0.01587971 -0.00748836
v 0.01402902 0.01587971 -0.00416731
v 0.01158907 0.01779382 -0.00416731
v 0.01195713 0.01730621 -0.00458926
v 0.01289630 0.01587971 -0.00514061
v 0.00182614 0.02016536 -0.00748836
v 0.00005567 0.02108736 -0.00748836
v 0.00000808 0.02110629 -0.00748836
v 0.00549398 0.01587971 -0.00748836
v 0.01331512 0.01587971 -0.00486461
v 0.01375298 0.01637551 -0.00416731
v 0.01310254 0.01689740 -0.00416731
v 0.01251556 0.01587971 -0.00530705
v 0.00244167 0.01966086 -0.00748836
v 0.00545908 0.01624350 -0.00748836
v 0.00540831 0.01675311 -0.00748836
v 0.00482133 0.01741724 -0.00748836
v 0.00360929 0.01867848 -0.00748836
f 1 2 3
f 1 3 7
f 1 7 18
f 1 18 17
f 1 17 16
f 1 16 15
f 1 15 28
f 1 28 20
f 1 20 19
f 1 19 8
f 1 8 4
f 1 4 10
f 1 10 22
f 1 22 31
f 1 31 32
f 1 32 23
f 1 23 12
f 1 12 11
f 1 11 5
f 1 5 2
f 2 5 3
f 3 5 6
f 3 6 7
f 4 8 9
f 4 9 10
f 5 11 6
f 6 11 12
f 6 12 13
f 6 13 14
f 6 14 15
f 6 15 16
f 6 16 17
f 6 17 18
f 6 18 7
f 8 19 9
f 9 19 20
f 9 20 21
f 9 21 29
f 9 29 33
f 9 33 25
f 9 25 30
f 9 30 22
f 9 22 10
f 12 23 24
f 12 24 13
f 13 24 25
f 13 25 26
f 13 26 14
f 14 26 34
f 14 34 38
f 14 38 37
f 14 37 36
f 14 36 35
f 14 35 29
f 14 29 21
f 14 21 20
f 14 20 28
f 14 28 27
f 14 27 15
f 15 27 28
f 22 30 31
f 23 32 24
f 24 32 31
f 24 31 30
f 24 30 25
f 25 33 26
f 26 33 34
f 29 35 33
f 33 35 36
f 33 36 37
f 33 37 38
f 33 38 34

