# https://github.com/mikedh/trimesh
v 0.11201321 0.02597350 -0.00150179
v 0.12585671 0.02289739 -0.00766339
v 0.10574683 0.02449713 -0.00106373
v 0.11703469 0.02503175 -0.00147621
v 0.12947170 0.02302487 -0.00771136
v 0.13085425 0.02042580 -0.01025977
v 0.11699878 0.02300431 -0.00513736
v 0.13620491 0.02100977 -0.01100799
v 0.14129822 0.01904402 -0.01352763
v 0.10267050 0.02053684 -0.00125079
v 0.10024056 0.01561835 -0.00106373
v 0.11905765 0.02036412 -0.00106373
v 0.12301379 0.02239567 -0.00250741
v 0.12773602 0.02312768 -0.00486238
v 0.13957452 0.02066021 -0.01088329
v 0.13789869 0.01880961 -0.01285135
v 0.13874857 0.01654365 -0.01381220
v 0.10589646 0.01982127 -0.00247703
v 0.14485335 0.01852585 -0.01331180
v 0.14688229 0.01499326 -0.01594175
v 0.14407530 0.01627223 -0.01525748
v 0.14129822 0.01654365 -0.01455243
v 0.09217864 -0.01603106 -0.00106373
v 0.13111759 0.01399805 -0.01189850
v 0.13503184 0.01145244 -0.01351004
v 0.11702871 0.00890683 -0.00106373
v 0.15026985 -0.01144979 -0.01269787
v 0.15101201 -0.00126737 -0.01299684
v 0.14278850 0.01809816 -0.01007911
v 0.13536102 0.02067255 -0.00742038
v 0.13874857 0.01399805 -0.01433020
v 0.13466076 0.01456145 -0.01297765
v 0.14830675 0.01607483 -0.01323505
v 0.15000053 0.01379654 -0.01478105
v 0.14639152 0.01018169 -0.01665639
v 0.15186189 0.01025572 -0.01605046
v 0.14893519 0.01018169 -0.01708166
v 0.14384187 0.01145244 -0.01598172
v 0.14250721 0.01408852 -0.01529585
v 0.11186358 -0.01603106 -0.00106373
v 0.14129822 0.00509048 -0.01582664
v 0.12246317 -0.01603106 -0.01074899
v 0.14014908 0.01094250 -0.01514397
v 0.11394639 -0.00752240 -0.00106373
v 0.15022198 -0.01497005 -0.01294248
v 0.15287336 -0.00716873 -0.01524949
v 0.15331028 0.00127824 -0.01532942
v 0.15138906 0.00267647 -0.01323825
v 0.15148482 0.00636123 -0.01336935
v 0.15332225 0.00509048 -0.01540936
v 0.14639152 0.00509048 -0.01694576
v 0.14384187 0.00763609 -0.01633344
v 0.15148482 0.00127824 -0.01724633
v 0.15021001 0.00509048 -0.01739661
v 0.14511670 -0.01603106 -0.01661962
v 0.14384187 0.00254899 -0.01650611
v 0.13747973 -0.01603106 -0.01526387
v 0.13366125 -0.01603106 -0.01416553
v 0.13022581 -0.01603106 -0.01315991
v 0.14993469 -0.01501528 -0.01635902
v 0.15232274 -0.00254223 -0.01612560
v 0.14893519 -0.00508783 -0.01723034
v 0.14129822 -0.01603106 -0.01613520
v 0.14893519 -0.01017904 -0.01704329
f 1 2 3
f 1 3 4
f 1 4 5
f 1 5 2
f 2 6 7
f 2 7 3
f 2 5 8
f 2 8 9
f 2 9 6
f 3 10 11
f 3 11 23
f 3 23 40
f 3 40 44
f 3 44 26
f 3 26 12
f 3 12 4
f 3 7 10
f 4 12 13
f 4 13 14
f 4 14 5
f 5 15 8
f 5 14 15
f 6 16 17
f 6 17 18
f 6 18 7
f 6 9 16
f 7 18 10
f 8 15 9
f 9 19 20
f 9 20 21
f 9 21 22
f 9 22 16
f 9 15 19
f 10 18 11
f 11 18 24
f 11 24 25
f 11 25 23
f 12 26 27
f 12 27 13
f 13 27 28
f 13 28 29
f 13 29 30
f 13 30 14
f 14 30 15
f 15 30 29
f 15 29 19
f 16 22 17
f 17 31 32
f 17 32 18
f 17 22 31
f 18 32 24
f 19 33 34
f 19 34 20
f 19 29 33
f 20 35 21
f 20 34 36
f 20 36 37
f 20 37 35
f 21 35 38
f 21 38 39
f 21 39 22
f 22 39 31
f 23 25 41
f 23 41 42
f 23 42 59
f 23 59 58
f 23 58 57
f 23 57 63
f 23 63 55
f 23 55 40
f 24 32 25
f 25 32 31
f 25 31 43
f 25 43 41
f 26 44 27
f 27 45 46
f 27 46 28
f 27 44 45
f 28 46 47
f 28 47 48
f 28 48 29
f 29 48 49
f 29 49 33
f 31 39 43
f 33 49 50
f 33 50 34
f 34 50 36
f 35 51 52
f 35 52 38
f 35 37 51
f 36 50 53
f 36 53 54
f 36 54 37
f 37 54 51
f 38 52 43
f 38 43 39
f 40 55 45
f 40 45 44
f 41 52 56
f 41 56 57
f 41 57 58
f 41 58 59
f 41 59 42
f 41 43 52
f 45 55 60
f 45 60 46
f 46 53 61
f 46 61 47
f 46 60 53
f 47 50 49
f 47 49 48
f 47 61 53
f 47 53 50
f 51 56 52
f 51 54 62
f 51 62 63
f 51 63 56
f 53 60 64
f 53 64 62
f 53 62 54
f 55 62 64
f 55 64 60
f 55 63 62
f 56 63 57

