# https://github.com/mikedh/trimesh
v -0.03300686 0.03484864 -0.00823228
v -0.02614055 0.03161098 -0.00823228
v -0.03300686 0.03489807 -0.00891059
v -0.03300686 0.02702552 -0.00823228
v -0.02614055 0.03154342 -0.00889564
v -0.02614055 0.02493793 -0.00823228
v -0.03300686 0.03448616 -0.00984241
v -0.02614055 0.03131605 -0.00945772
v -0.03300014 0.02620334 -0.00823228
v -0.03300686 0.01806716 -0.00889971
v -0.02614055 0.01806716 -0.00883582
v -0.03300686 0.03392101 -0.01103320
v -0.02614055 0.03080856 -0.01050917
v -0.03300686 0.01806716 -0.01459466
v -0.02614055 0.01806716 -0.01418482
v -0.03300686 0.03335585 -0.01163946
v -0.03300686 0.03266054 -0.01235719
v -0.02614055 0.02951020 -0.01177811
v -0.03300686 0.01917604 -0.01488148
v -0.03079695 0.01806716 -0.01453485
v -0.02825166 0.01806716 -0.01439212
v -0.02927932 0.01909530 -0.01464156
v -0.02614055 0.01850379 -0.01424667
v -0.03300686 0.03221732 -0.01268139
v -0.02614055 0.02898295 -0.01226340
v -0.02614055 0.02823491 -0.01287238
v -0.03300686 0.02085996 -0.01509082
v -0.03182461 0.01909530 -0.01480536
v -0.02673335 0.01909530 -0.01438192
v -0.03300686 0.02164260 -0.01516762
v -0.03182461 0.02164260 -0.01505684
v -0.02927932 0.02164260 -0.01480740
v -0.02614055 0.01909530 -0.01429968
v -0.03300686 0.03129627 -0.01333116
v -0.02614055 0.02673718 -0.01350447
v -0.03300686 0.03059437 -0.01374100
v -0.02673335 0.02164260 -0.01448252
v -0.02614055 0.02104944 -0.01437717
v -0.03300686 0.02371042 -0.01517510
v -0.03300686 0.02418824 -0.01515879
v -0.02614055 0.02614072 -0.01368187
v -0.03300686 0.02816076 -0.01458243
v -0.03300686 0.02935203 -0.01417395
v -0.02614055 0.02164260 -0.01438872
v -0.02927932 0.02418824 -0.01465515
v -0.02673335 0.02418824 -0.01429289
v -0.03300686 0.02593477 -0.01497867
v -0.02614055 0.02418824 -0.01418890
v -0.02614055 0.02359508 -0.01424327
f 1 2 3
f 1 3 7
f 1 7 12
f 1 12 16
f 1 16 17
f 1 17 24
f 1 24 34
f 1 34 36
f 1 36 43
f 1 43 42
f 1 42 47
f 1 47 40
f 1 40 39
f 1 39 30
f 1 30 27
f 1 27 19
f 1 19 14
f 1 14 10
f 1 10 4
f 1 4 9
f 1 9 6
f 1 6 2
f 2 5 3
f 2 6 11
f 2 11 15
f 2 15 23
f 2 23 33
f 2 33 38
f 2 38 44
f 2 44 49
f 2 49 48
f 2 48 41
f 2 41 35
f 2 35 26
f 2 26 25
f 2 25 18
f 2 18 13
f 2 13 8
f 2 8 5
f 3 5 8
f 3 8 7
f 4 10 9
f 6 10 11
f 6 9 10
f 7 8 12
f 8 13 12
f 10 14 20
f 10 20 21
f 10 21 15
f 10 15 11
f 12 13 16
f 13 17 16
f 13 18 17
f 14 19 20
f 15 21 22
f 15 22 23
f 17 18 25
f 17 25 26
f 17 26 24
f 19 27 28
f 19 28 20
f 20 28 21
f 21 28 22
f 22 29 23
f 22 28 27
f 22 27 30
f 22 30 31
f 22 31 32
f 22 32 29
f 23 29 33
f 24 26 34
f 26 35 36
f 26 36 34
f 29 32 37
f 29 37 38
f 29 38 33
f 30 39 31
f 31 39 32
f 32 39 40
f 32 40 37
f 35 41 42
f 35 42 43
f 35 43 36
f 37 44 38
f 37 40 45
f 37 45 46
f 37 46 44
f 40 47 45
f 41 48 42
f 42 48 46
f 42 46 47
f 44 46 49
f 45 47 46
f 46 48 49

