# https://github.com/mikedh/trimesh
v -0.02614055 0.03181313 -0.00636446
v -0.02614055 0.03168737 -0.00748836
v -0.02614055 0.03108264 -0.00411751
v -0.02418575 0.03079338 -0.00454298
v -0.02283967 0.03057328 -0.00503608
v -0.00015708 0.02288371 -0.00018347
v 0.00117017 0.02262904 -0.00112843
v 0.00381841 0.02183985 -0.00127356
v -0.02418575 0.03119688 -0.00636446
v -0.02300910 0.03083006 -0.00748836
v -0.02614055 0.02818477 -0.00748836
v -0.02614055 0.02954095 -0.00289054
v -0.02418575 0.02998532 -0.00327067
v -0.00185459 0.02302310 0.00011420
v 0.00381841 0.02110621 0.00093547
v 0.00591441 0.02110726 -0.00145166
v -0.01909323 0.02954514 -0.00636446
v -0.02129277 0.03026201 -0.00636446
v -0.02216506 0.03055651 -0.00748836
v -0.02614055 0.02631714 -0.00631252
v -0.02613113 0.02576691 -0.00748836
v -0.02614055 0.02857674 -0.00239497
v -0.02418575 0.02871299 -0.00225974
v -0.02164106 0.02850338 -0.00217069
v -0.00382194 0.02310904 0.00016780
v 0.00127058 0.02143425 0.00089424
v 0.00000922 0.02110726 -0.00748836
v 0.00003746 0.02110726 -0.00747187
v 0.00033554 0.02110726 -0.00726902
v 0.00119214 0.02110726 -0.00668028
v 0.00171614 0.02110726 -0.00631911
v 0.00315007 0.02110726 -0.00510782
v 0.00418239 0.02110726 -0.00418182
v 0.00453067 0.02110726 -0.00381901
v 0.00125175 0.02110726 0.00089754
v -0.00382194 0.02110726 0.00040610
v -0.00583322 0.02110726 0.00013811
v -0.00778802 0.02110726 -0.00103278
v -0.01763732 0.02110726 -0.00748836
v 0.00381841 0.02139128 -0.00381901
v 0.00117017 0.02244353 -0.00379097
v -0.00748994 0.02551747 -0.00525871
v 0.00025396 0.02299585 -0.00292517
v -0.01541582 0.02810826 -0.00748836
v -0.02614055 0.02716606 -0.00367801
v -0.02438342 0.02475030 -0.00748836
v -0.02614055 0.02778441 -0.00239497
v -0.01019151 0.02292249 0.00000206
v -0.00891132 0.02308913 0.00010018
v -0.00636663 0.02319603 0.00018099
v -0.00342659 0.02284913 -0.00748836
v -0.00290886 0.02271917 -0.00728716
v -0.00197068 0.02314258 -0.00558937
v -0.01502674 0.02796468 -0.00748836
v -0.01019151 0.02290991 0.00000206
v -0.00891132 0.02266257 0.00010018
v -0.02075622 0.02533197 -0.00240487
v -0.01520559 0.02803070 -0.00748836
v -0.00436163 0.02326206 -0.00748836
f 1 2 11
f 1 11 20
f 1 20 45
f 1 45 47
f 1 47 22
f 1 22 12
f 1 12 3
f 1 3 4
f 1 4 5
f 1 5 6
f 1 6 7
f 1 7 8
f 1 8 9
f 1 9 10
f 1 10 2
f 2 10 19
f 2 19 44
f 2 44 58
f 2 58 54
f 2 54 59
f 2 59 51
f 2 51 27
f 2 27 39
f 2 39 46
f 2 46 21
f 2 21 11
f 3 12 13
f 3 13 14
f 3 14 6
f 3 6 4
f 4 6 5
f 6 14 15
f 6 15 8
f 6 8 7
f 8 15 16
f 8 16 17
f 8 17 18
f 8 18 9
f 9 18 10
f 10 18 19
f 11 21 20
f 12 22 23
f 12 23 13
f 13 23 24
f 13 24 14
f 14 25 26
f 14 26 15
f 14 24 25
f 15 27 28
f 15 28 29
f 15 29 30
f 15 30 31
f 15 31 32
f 15 32 33
f 15 33 34
f 15 34 16
f 15 26 35
f 15 35 36
f 15 36 37
f 15 37 38
f 15 38 39
f 15 39 27
f 16 34 40
f 16 40 41
f 16 41 42
f 16 42 43
f 16 43 19
f 16 19 17
f 17 19 18
f 19 43 42
f 19 42 44
f 20 21 45
f 21 46 45
f 22 47 55
f 22 55 48
f 22 48 49
f 22 49 23
f 23 49 50
f 23 50 24
f 24 50 25
f 25 50 26
f 26 50 49
f 26 49 35
f 27 51 28
f 28 51 29
f 29 51 30
f 30 51 31
f 31 51 32
f 32 51 52
f 32 52 33
f 33 52 53
f 33 53 54
f 33 54 34
f 34 54 40
f 35 49 48
f 35 48 55
f 35 55 56
f 35 56 36
f 36 56 55
f 36 55 37
f 37 55 57
f 37 57 38
f 38 57 39
f 39 57 47
f 39 47 45
f 39 45 46
f 40 54 42
f 40 42 41
f 42 54 58
f 42 58 44
f 47 57 55
f 51 53 52
f 51 59 53
f 53 59 54

