# https://github.com/mikedh/trimesh
v -0.13800455 0.05773726 -0.00780233
v -0.14112631 0.05993846 -0.00579110
v -0.13853935 0.06092996 -0.00557101
v -0.13799980 0.06243793 -0.00356123
v -0.13724033 0.05431948 -0.00731436
v -0.14243799 0.04912168 -0.00703201
v -0.14315790 0.05407643 -0.00759961
v -0.14264052 0.05699709 -0.00716667
v -0.14385092 0.05919552 -0.00558114
v -0.14185572 0.06085953 -0.00482241
v -0.14112631 0.06169638 -0.00391163
v -0.14130510 0.06277212 -0.00127199
v -0.13799980 0.06322782 -0.00101570
v -0.13724033 0.05660767 0.00682795
v -0.13724033 0.05316227 -0.00384792
v -0.14016430 0.04912168 -0.00424756
v -0.14275918 0.04912168 0.00633129
v -0.15164662 0.04916035 0.00362794
v -0.15297412 0.04923077 0.00125182
v -0.15278425 0.04928463 -0.00136321
v -0.14939035 0.04929844 -0.00528576
v -0.14629865 0.04938544 -0.00701029
v -0.14639516 0.05219423 -0.00707689
v -0.14639516 0.05474066 -0.00671345
v -0.14858024 0.05696257 -0.00486874
v -0.14425914 0.06091753 -0.00368286
v -0.14629390 0.05907262 -0.00456467
v -0.14385092 0.06217832 -0.00127199
v -0.14385092 0.06215622 0.00127209
v -0.13799980 0.06242136 0.00254920
v -0.14130510 0.06221008 0.00234359
v -0.14385092 0.05474066 0.00697564
v -0.14639516 0.05219423 0.00699012
v -0.14639516 0.04938544 0.00680478
v -0.13724033 0.05407229 0.00482106
v -0.13799980 0.06015388 0.00535392
v -0.14130510 0.05728432 0.00667591
v -0.13724033 0.05309184 -0.00030764
v -0.13985894 0.04912168 -0.00127199
v -0.14024183 0.04912168 0.00236097
v -0.14989508 0.04972238 0.00542197
v -0.15127479 0.05219423 0.00485871
v -0.15340449 0.05173301 0.00212495
v -0.15317822 0.05182415 -0.00197136
v -0.15131435 0.04951524 -0.00366838
v -0.14960711 0.05184624 -0.00551598
v -0.14935554 0.05925076 -0.00203217
v -0.15111024 0.05333212 -0.00424032
v -0.15289501 0.05452662 -0.00222475
v -0.14665940 0.06120338 -0.00127199
v -0.14385092 0.06092444 0.00371626
v -0.14609138 0.06122410 0.00200766
v -0.14130510 0.06003927 0.00516713
v -0.14639516 0.05474066 0.00669618
v -0.14894099 0.05219423 0.00613292
v -0.14385092 0.05819711 0.00594324
v -0.15031912 0.05503065 0.00509907
v -0.15309595 0.05509280 0.00224947
v -0.14933655 0.05955870 0.00195843
v -0.15217034 0.05712137 0.00018467
v -0.14642048 0.05911681 0.00459952
v -0.14848214 0.05672919 0.00541907
v -0.15134124 0.05705647 0.00319644
v -0.14917358 0.05745970 0.00465020
f 1 2 3
f 1 3 4
f 1 4 5
f 1 5 6
f 1 6 7
f 1 7 8
f 1 8 2
f 2 8 9
f 2 9 10
f 2 10 3
f 3 10 11
f 3 11 4
f 4 11 12
f 4 12 13
f 4 13 5
f 5 13 14
f 5 14 35
f 5 35 38
f 5 38 15
f 5 15 16
f 5 16 6
f 6 16 39
f 6 39 40
f 6 40 17
f 6 17 18
f 6 18 19
f 6 19 20
f 6 20 21
f 6 21 22
f 6 22 7
f 7 22 23
f 7 23 24
f 7 24 8
f 8 24 25
f 8 25 9
f 9 26 10
f 9 25 27
f 9 27 26
f 10 26 11
f 11 26 28
f 11 28 12
f 12 28 29
f 12 29 13
f 13 30 14
f 13 29 31
f 13 31 30
f 14 32 33
f 14 33 34
f 14 34 17
f 14 17 35
f 14 30 36
f 14 36 37
f 14 37 32
f 15 38 39
f 15 39 16
f 17 40 35
f 17 34 18
f 18 34 41
f 18 41 42
f 18 42 43
f 18 43 19
f 19 43 44
f 19 44 20
f 20 44 45
f 20 45 21
f 21 45 46
f 21 46 22
f 22 46 23
f 23 46 24
f 24 46 25
f 25 47 27
f 25 46 48
f 25 48 49
f 25 49 47
f 26 27 47
f 26 47 50
f 26 50 28
f 28 50 29
f 29 51 31
f 29 50 52
f 29 52 51
f 30 31 51
f 30 51 53
f 30 53 36
f 32 37 54
f 32 54 33
f 33 54 55
f 33 55 34
f 34 55 41
f 35 40 38
f 36 53 37
f 37 53 56
f 37 56 54
f 38 40 39
f 41 55 42
f 42 55 57
f 42 57 58
f 42 58 43
f 43 58 44
f 44 58 49
f 44 49 48
f 44 48 45
f 45 48 46
f 47 59 50
f 47 49 60
f 47 60 59
f 49 58 60
f 50 59 52
f 51 52 61
f 51 61 53
f 52 59 61
f 53 61 56
f 54 62 57
f 54 57 55
f 54 56 62
f 56 61 62
f 57 63 58
f 57 62 64
f 57 64 63
f 58 63 60
f 59 64 61
f 59 60 63
f 59 63 64
f 61 64 62

