# https://github.com/mikedh/trimesh
v -0.06974422 0.11325438 0.01601920
v -0.06974422 0.11602968 0.01594365
v -0.06974422 0.11060573 0.00174071
v -0.06935812 0.11060573 0.01596678
v -0.06342382 0.12009563 0.01568922
v -0.06342382 0.12286823 0.01569385
v -0.06974422 0.11879959 0.01577712
v -0.06342382 0.12511542 0.01560750
v -0.06515876 0.12338827 0.01565993
v -0.06342382 0.12789071 0.01545022
v -0.06974422 0.11138442 0.00026660
v -0.06342382 0.11142484 0.00026660
v -0.06517237 0.11060573 0.00362498
v -0.06793008 0.11060573 0.01577403
v -0.06793008 0.11229515 0.01588351
v -0.06342382 0.11680568 0.01553503
v -0.06793008 0.12338827 0.01556124
v -0.06974422 0.12157219 0.01554274
v -0.06342382 0.12892809 0.01535616
v -0.06974422 0.13199169 0.00302516
v -0.06942309 0.13241202 0.00026660
v -0.06342382 0.13806501 0.00026660
v -0.06342382 0.11060573 0.00447922
v -0.06684543 0.11060573 0.01553195
v -0.06342382 0.11403039 0.01520042
v -0.06342382 0.11506776 0.01532841
v -0.06342382 0.13066332 0.01519272
v -0.06515876 0.12892809 0.01522818
v -0.06793008 0.12615279 0.01526056
v -0.06974422 0.12434479 0.01522201
v -0.06974422 0.13194588 0.00970182
v -0.06908031 0.13279733 0.00970182
v -0.06830380 0.13380506 0.00026660
v -0.06434017 0.13746414 0.00026660
v -0.06342382 0.13813237 0.00970182
v -0.06383899 0.11082667 0.01433230
v -0.06342382 0.13170069 0.01504160
v -0.06515876 0.13170069 0.01482727
v -0.06793008 0.12892809 0.01476714
v -0.06974422 0.12734104 0.01462219
v -0.06871712 0.13234735 0.01247425
v -0.06974422 0.13098665 0.01254518
v -0.06733052 0.13398020 0.01247425
v -0.06769434 0.13438707 0.00970182
v -0.06654287 0.13585554 0.00548766
v -0.06656824 0.13588249 0.00363885
v -0.06659175 0.13590405 0.00138760
v -0.06776055 0.13447329 0.00138760
v -0.06658804 0.13590405 0.00026660
v -0.06526085 0.13683903 0.00026660
v -0.06515876 0.13692255 0.00138760
v -0.06506347 0.13687945 0.00970182
v -0.06457962 0.13649952 0.01247425
v -0.06342382 0.13733212 0.01262228
v -0.06342382 0.13343322 0.01473321
v -0.06342382 0.13444635 0.01449267
v -0.06502759 0.13440593 0.01420586
v -0.06682811 0.13343322 0.01402391
v -0.06782304 0.13150938 0.01419661
v -0.06966378 0.12986306 0.01397149
v -0.06596559 0.13536247 0.01247425
v -0.06644944 0.13577202 0.00970182
v -0.06651688 0.13583400 0.00693401
v -0.06357232 0.13640522 0.01375716
f 1 2 7
f 1 7 18
f 1 18 30
f 1 30 40
f 1 40 42
f 1 42 31
f 1 31 20
f 1 20 11
f 1 11 3
f 1 3 4
f 1 4 5
f 1 5 6
f 1 6 2
f 2 6 8
f 2 8 9
f 2 9 10
f 2 10 7
f 3 11 12
f 3 12 13
f 3 13 23
f 3 23 24
f 3 24 14
f 3 14 4
f 4 14 15
f 4 15 5
f 5 15 16
f 5 16 26
f 5 26 25
f 5 25 23
f 5 23 12
f 5 12 22
f 5 22 35
f 5 35 54
f 5 54 56
f 5 56 55
f 5 55 37
f 5 37 27
f 5 27 19
f 5 19 10
f 5 10 8
f 5 8 6
f 7 10 17
f 7 17 18
f 8 10 9
f 10 19 17
f 11 20 21
f 11 21 33
f 11 33 49
f 11 49 50
f 11 50 34
f 11 34 22
f 11 22 12
f 12 23 13
f 14 24 25
f 14 25 26
f 14 26 16
f 14 16 15
f 17 19 27
f 17 27 28
f 17 28 29
f 17 29 18
f 18 29 30
f 20 31 32
f 20 32 21
f 21 32 33
f 22 34 35
f 23 36 24
f 23 25 36
f 24 36 25
f 27 37 38
f 27 38 28
f 28 38 29
f 29 38 30
f 30 38 39
f 30 39 40
f 31 41 32
f 31 42 41
f 32 41 43
f 32 43 44
f 32 44 45
f 32 45 46
f 32 46 47
f 32 47 48
f 32 48 33
f 33 48 47
f 33 47 49
f 34 50 51
f 34 51 35
f 35 51 47
f 35 47 46
f 35 46 45
f 35 45 52
f 35 52 53
f 35 53 54
f 37 55 38
f 38 55 56
f 38 56 57
f 38 57 58
f 38 58 39
f 39 58 59
f 39 59 40
f 40 59 60
f 40 60 42
f 41 58 43
f 41 42 58
f 42 60 58
f 43 58 61
f 43 61 62
f 43 62 44
f 44 62 63
f 44 63 45
f 45 63 52
f 47 51 49
f 49 51 50
f 52 63 62
f 52 62 53
f 53 62 61
f 53 61 64
f 53 64 54
f 54 64 56
f 56 64 57
f 57 64 58
f 58 64 61
f 58 60 59

