# https://github.com/mikedh/trimesh
v -0.07647639 0.10097878 0.01641706
v -0.07647639 0.10375040 0.01636806
v -0.07670601 0.09506188 0.01601552
v -0.07647639 0.09820716 0.01636964
v -0.07347510 0.10398034 0.01623526
v -0.07022511 0.11000400 0.01604872
v -0.07022511 0.11276742 0.01604555
v -0.07022511 0.11554314 0.01596809
v -0.07647639 0.10652203 0.01623210
v -0.07670601 0.09141154 0.01445043
v -0.06974545 0.10249393 0.01427020
v -0.06974545 0.10485905 0.01526301
v -0.07022511 0.10723238 0.01593015
v -0.07647639 0.10929775 0.01600287
v -0.07647639 0.11206116 0.01571673
v -0.07654453 0.11772349 0.01458006
v -0.07670601 0.11989562 0.01281736
v -0.06974545 0.12156681 0.01554283
v -0.07022511 0.11831476 0.01578945
v -0.07347510 0.11506273 0.01584162
v -0.07670601 0.09005242 0.01250434
v -0.06974545 0.10173019 0.01280155
v -0.07347510 0.11783845 0.01554599
v -0.07647639 0.11495186 0.01528040
v -0.07347510 0.12061008 0.01504959
v -0.07549118 0.12061008 0.01427969
v -0.07515459 0.12252764 0.01323155
v -0.07444464 0.12416597 0.01247588
v -0.07513756 0.12388265 0.00970299
v -0.07670601 0.12095089 0.00970299
v -0.06975567 0.13104780 0.01240000
v -0.06980745 0.12967637 0.01393031
v -0.07022511 0.12385801 0.01521242
v -0.06974545 0.11137545 0.00026660
v -0.07670601 0.08976088 0.00996225
v -0.06974545 0.10148794 0.00970299
v -0.07032527 0.12683494 0.01457532
v -0.07254234 0.12552099 0.01411686
v -0.07346965 0.12327084 0.01435399
v -0.07196184 0.12736873 0.01368369
v -0.07235906 0.12795181 0.01183404
v -0.07379465 0.12615333 0.00970299
v -0.07437310 0.12545940 0.00054800
v -0.07569967 0.12316408 0.00082782
v -0.07670601 0.12131223 0.00026660
v -0.06996961 0.13170479 0.00359281
v -0.06995802 0.13167605 0.00970299
v -0.07131048 0.12889621 0.01264662
v -0.07116672 0.13015678 0.00026660
v -0.07002684 0.13163909 0.00110764
v -0.06974545 0.10225577 0.00540610
v -0.07080084 0.10963856 0.00026660
v -0.07670601 0.09025362 0.00677516
v -0.06974545 0.10169324 0.00693325
v -0.07155508 0.12955729 0.00970299
v -0.07251509 0.12817354 0.00970299
v -0.07383961 0.12615333 0.00693325
v -0.07254439 0.12820227 0.00693325
v -0.07255393 0.12822281 0.00416036
v -0.07288097 0.12775881 0.00026660
v -0.07647776 0.10108554 0.00026660
v -0.07670601 0.09195766 0.00502353
v -0.07157961 0.12961068 0.00416036
v -0.07483028 0.09421601 0.00551202
f 1 2 3
f 1 3 4
f 1 4 5
f 1 5 6
f 1 6 7
f 1 7 2
f 2 7 8
f 2 8 9
f 2 9 3
f 3 10 11
f 3 11 12
f 3 12 13
f 3 13 4
f 3 9 14
f 3 14 15
f 3 15 16
f 3 16 17
f 3 17 30
f 3 30 45
f 3 45 62
f 3 62 53
f 3 53 35
f 3 35 21
f 3 21 10
f 4 13 5
f 5 13 6
f 6 13 12
f 6 12 18
f 6 18 7
f 7 18 8
f 8 19 20
f 8 20 9
f 8 18 19
f 9 20 14
f 10 21 11
f 11 21 22
f 11 22 36
f 11 36 54
f 11 54 51
f 11 51 34
f 11 34 18
f 11 18 12
f 14 20 15
f 15 20 23
f 15 23 24
f 15 24 16
f 16 24 25
f 16 25 26
f 16 26 17
f 17 26 27
f 17 27 28
f 17 28 29
f 17 29 30
f 18 31 32
f 18 32 33
f 18 33 23
f 18 23 20
f 18 20 19
f 18 34 31
f 21 35 22
f 22 35 36
f 23 33 25
f 23 25 24
f 25 33 37
f 25 37 38
f 25 38 39
f 25 39 26
f 26 39 38
f 26 38 40
f 26 40 27
f 27 40 41
f 27 41 28
f 28 41 29
f 29 41 42
f 29 42 43
f 29 43 44
f 29 44 45
f 29 45 30
f 31 46 47
f 31 47 41
f 31 41 48
f 31 48 40
f 31 40 32
f 31 34 46
f 32 40 38
f 32 38 37
f 32 37 33
f 34 49 50
f 34 50 46
f 34 51 52
f 34 52 61
f 34 61 45
f 34 45 60
f 34 60 49
f 35 53 54
f 35 54 36
f 40 48 41
f 41 47 55
f 41 55 56
f 41 56 42
f 42 57 43
f 42 56 58
f 42 58 57
f 43 45 44
f 43 57 58
f 43 58 59
f 43 59 60
f 43 60 45
f 45 61 62
f 46 50 63
f 46 63 47
f 47 63 55
f 49 60 63
f 49 63 50
f 51 54 53
f 51 53 64
f 51 64 62
f 51 62 52
f 52 62 61
f 53 62 64
f 55 63 58
f 55 58 56
f 58 63 59
f 59 63 60

