# https://github.com/mikedh/trimesh
v -0.08626426 0.07348116 0.01747387
v -0.08963447 0.07348116 0.01724088
v -0.08685633 0.06907101 0.01589164
v -0.08312471 0.07744046 0.01669144
v -0.08039651 0.08591356 0.01664276
v -0.07670896 0.09935649 0.01640629
v -0.08308063 0.09417935 0.01662885
v -0.09116973 0.07294221 0.01403469
v -0.09068345 0.06995201 0.01583947
v -0.08602626 0.08911104 0.01667927
v -0.08889549 0.08388726 0.01444850
v -0.08532695 0.06984836 0.01108757
v -0.09044691 0.06779616 0.01105279
v -0.09017512 0.06700327 0.00652171
v -0.08614967 0.06902956 0.00647476
v -0.07691758 0.09034962 0.01386256
v -0.07670896 0.09504998 0.01601508
v -0.07670896 0.11044665 0.01584121
v -0.07844402 0.10559082 0.01608637
v -0.09058795 0.07625371 0.01386082
v -0.08995916 0.08040993 0.01247506
v -0.09075837 0.07764257 0.00831954
v -0.09171626 0.07199384 0.00809003
v -0.07902286 0.10951384 0.01539089
v -0.07751111 0.11494491 0.01482059
v -0.08053755 0.11132765 0.01334268
v -0.08372999 0.10260580 0.01294625
v -0.08654487 0.09334500 0.01344005
v -0.08772165 0.09011642 0.01108757
v -0.08865602 0.08639551 0.01103019
v -0.07670896 0.08975883 0.00996088
v -0.08958746 0.07348116 0.00223578
v -0.08903947 0.06896219 0.00387712
v -0.08438670 0.08426558 -0.00028884
v -0.07901111 0.09566668 -0.00028884
v -0.07695284 0.09074348 0.00563148
v -0.07670896 0.10091119 -0.00028884
v -0.07742444 0.11993549 -0.00028884
v -0.07736567 0.11963490 0.00970181
v -0.07739505 0.11840669 0.01302623
v -0.08954927 0.08318765 0.00762579
v -0.08979902 0.08179879 0.00416053
v -0.07919916 0.11505892 0.01247506
v -0.08167172 0.10951384 0.00831954
v -0.08562665 0.09713846 0.01247506
v -0.08338180 0.10467354 0.00857165
v -0.08815799 0.08889857 0.00693378
v -0.08708992 0.09288896 0.00831954
v -0.08768345 0.08583582 -0.00028884
v -0.07953559 0.11538023 -0.00028884
v -0.08000278 0.11381516 0.00831954
v -0.08899687 0.08539014 0.00378323
v -0.08685780 0.09288896 -0.00028884
v -0.08337446 0.10519696 -0.00028884
v -0.08116193 0.11133283 -0.00028884
v -0.08454536 0.10119621 0.00831954
v -0.08612323 0.09622118 0.00831954
v -0.08370942 0.10397394 0.00416053
v -0.08713693 0.09288896 0.00416053
v -0.08603214 0.09675496 0.00361805
v -0.08586906 0.09693635 -0.00028884
v -0.08446897 0.10174554 -0.00028884
v -0.08461295 0.10119621 0.00416053
f 1 2 3
f 1 3 4
f 1 4 5
f 1 5 6
f 1 6 7
f 1 7 2
f 2 8 9
f 2 9 3
f 2 7 10
f 2 10 11
f 2 11 8
f 3 12 4
f 3 9 13
f 3 13 14
f 3 14 15
f 3 15 12
f 4 12 16
f 4 16 17
f 4 17 5
f 5 17 6
f 6 17 31
f 6 31 37
f 6 37 18
f 6 18 19
f 6 19 7
f 7 19 18
f 7 18 10
f 8 11 20
f 8 20 21
f 8 21 22
f 8 22 23
f 8 23 9
f 9 23 13
f 10 18 24
f 10 24 25
f 10 25 26
f 10 26 27
f 10 27 28
f 10 28 11
f 11 28 29
f 11 29 30
f 11 30 21
f 11 21 20
f 12 15 31
f 12 31 16
f 13 23 14
f 14 23 32
f 14 32 33
f 14 33 15
f 15 33 34
f 15 34 35
f 15 35 36
f 15 36 31
f 16 31 17
f 18 37 38
f 18 38 39
f 18 39 40
f 18 40 25
f 18 25 24
f 21 30 41
f 21 41 22
f 22 41 42
f 22 42 23
f 23 42 32
f 25 40 26
f 26 40 43
f 26 43 44
f 26 44 27
f 27 45 28
f 27 44 46
f 27 46 45
f 28 45 29
f 29 47 30
f 29 45 48
f 29 48 47
f 30 47 41
f 31 36 37
f 32 34 33
f 32 42 49
f 32 49 34
f 34 49 53
f 34 53 61
f 34 61 62
f 34 62 54
f 34 54 55
f 34 55 50
f 34 50 38
f 34 38 37
f 34 37 35
f 35 37 36
f 38 50 39
f 39 50 51
f 39 51 43
f 39 43 40
f 41 52 42
f 41 47 52
f 42 52 53
f 42 53 49
f 43 51 44
f 44 54 46
f 44 51 55
f 44 55 54
f 45 46 56
f 45 56 57
f 45 57 48
f 46 54 58
f 46 58 56
f 47 48 59
f 47 59 52
f 48 57 60
f 48 60 59
f 50 55 51
f 52 59 61
f 52 61 53
f 54 62 60
f 54 60 63
f 54 63 58
f 56 63 60
f 56 60 57
f 56 58 63
f 59 60 61
f 60 62 61

