# https://github.com/mikedh/trimesh
v -0.06974483 0.10148500 0.00970415
v -0.06974483 0.10169125 0.00693178
v -0.06342382 0.10959141 0.00693178
v -0.06342382 0.10940926 0.00970415
v -0.06974483 0.10156178 0.01077593
v -0.06974483 0.10225465 0.00540586
v -0.06930858 0.10257788 0.00553721
v -0.06342382 0.11033250 0.00472674
v -0.06342382 0.10993517 0.01247652
v -0.06974483 0.10176447 0.01312909
v -0.06974483 0.10168590 0.01247652
v -0.06974483 0.11060573 0.00174197
v -0.06517192 0.11060573 0.00362422
v -0.06342382 0.11060573 0.00447940
v -0.06342382 0.11060573 0.01372157
v -0.06929435 0.10255824 0.01389345
v -0.06974483 0.10222519 0.01410026
v -0.06974483 0.11060573 0.01601465
v -0.06354944 0.11060573 0.01398288
v -0.06360946 0.11060573 0.01405415
v -0.06610321 0.10751191 0.01428890
v -0.06974483 0.10275913 0.01444262
v -0.06974483 0.11047893 0.01601605
v -0.06961860 0.11060573 0.01600627
v -0.06375611 0.11060573 0.01416035
v -0.06423506 0.11060573 0.01450550
v -0.06974483 0.10485560 0.01526287
v -0.06974483 0.10770566 0.01588330
v -0.06903507 0.11060573 0.01592662
v -0.06684576 0.11060573 0.01553256
v -0.06793052 0.10952088 0.01570443
v -0.06793052 0.11060573 0.01577430
f 1 2 3
f 1 3 4
f 1 4 5
f 1 5 11
f 1 11 10
f 1 10 17
f 1 17 22
f 1 22 27
f 1 27 28
f 1 28 23
f 1 23 18
f 1 18 12
f 1 12 6
f 1 6 2
f 2 6 7
f 2 7 3
f 3 7 8
f 3 8 14
f 3 14 15
f 3 15 9
f 3 9 4
f 4 9 10
f 4 10 11
f 4 11 5
f 6 12 13
f 6 13 14
f 6 14 7
f 7 14 8
f 9 15 16
f 9 16 10
f 10 16 17
f 12 18 24
f 12 24 29
f 12 29 32
f 12 32 30
f 12 30 26
f 12 26 25
f 12 25 20
f 12 20 19
f 12 19 15
f 12 15 14
f 12 14 13
f 15 19 16
f 16 19 20
f 16 20 17
f 17 20 21
f 17 21 22
f 18 23 24
f 20 25 21
f 21 26 22
f 21 25 26
f 22 26 27
f 23 28 24
f 24 28 29
f 26 30 31
f 26 31 27
f 27 31 28
f 28 32 29
f 28 31 32
f 30 32 31

