# https://github.com/mikedh/trimesh
v 0.00126777 0.06621801 0.00138531
v 0.00119644 0.06621801 -0.00177320
v 0.00025386 0.06621801 0.00476743
v 0.01951310 0.02215520 0.00210506
v 0.01959462 0.02216815 -0.00212958
v 0.00032519 0.06621801 -0.00471509
v 0.01888641 0.02214658 -0.00472441
v -0.00131541 0.06621801 0.00693832
v 0.01671083 0.02514047 0.00564790
v 0.01873865 0.02214658 0.00431089
v -0.00223252 0.06621801 -0.00796211
v 0.01687896 0.02551147 -0.00590302
v 0.01696558 0.02214658 -0.00766862
v -0.00340947 0.06621801 0.00874119
v 0.01692991 0.02214658 0.00682652
v -0.00466795 0.06621801 -0.00941559
v 0.01464224 0.02214658 -0.00946916
v 0.01247176 0.02214658 0.00979868
v 0.01459639 0.02214658 0.00876448
v -0.00692505 0.06621801 0.01038566
v 0.01213548 0.02285838 -0.01050569
v -0.00745493 0.06621801 -0.01039621
v 0.00901732 0.02214658 -0.01133724
v 0.00905299 0.02214658 0.01091674
v -0.00941143 0.06621801 0.01115200
v -0.01001774 0.06621801 -0.01093894
v 0.00625072 0.02214658 -0.01160977
v -0.01266716 0.06621801 -0.01121845
v 0.00691307 0.02214658 0.01135232
v -0.01247354 0.06621801 0.01176926
v 0.00347902 0.02214658 -0.01166567
v -0.01598912 0.06621801 -0.01126737
v 0.00415666 0.02214658 0.01171103
v -0.01524524 0.06621801 0.01206275
v 0.00076846 0.02214658 -0.01149564
v -0.01835831 0.06621801 -0.01109500
v 0.00138496 0.02214658 0.01184146
v -0.01801694 0.06621801 0.01213030
v -0.00206948 0.02214658 -0.01106705
v -0.02132362 0.06621801 -0.01057091
v -0.00139184 0.02214658 0.01172500
v -0.02078864 0.06621801 0.01198355
v -0.00484118 0.02214658 -0.01037758
v -0.02409023 0.06621801 -0.00982088
v -0.00524369 0.02214658 0.01111473
v -0.02361129 0.06621801 0.01159223
v -0.00841280 0.02214658 -0.00896137
v -0.02711159 0.06621801 -0.00859801
v -0.02592954 0.06621801 0.01094236
v -0.00972732 0.02285838 0.00944230
v -0.01172457 0.02214658 0.00764642
v -0.01127112 0.02214658 -0.00686269
v -0.02994443 0.06621801 -0.00628736
v -0.02830382 0.06621801 0.00956808
v -0.03079530 0.06621801 0.00703848
v -0.01377278 0.02230188 0.00412222
v -0.01419057 0.02214658 0.00138531
v -0.01286586 0.02214658 -0.00469413
v -0.03148313 0.06621801 -0.00406522
v -0.03216077 0.06621801 0.00415716
v -0.03052016 0.06371591 0.00558501
v -0.01391544 0.02215952 -0.00190597
v -0.03245628 0.06621801 -0.00031041
v -0.03065773 0.06342256 -0.00310555
f 1 2 6
f 1 6 11
f 1 11 16
f 1 16 22
f 1 22 26
f 1 26 28
f 1 28 32
f 1 32 36
f 1 36 40
f 1 40 44
f 1 44 48
f 1 48 53
f 1 53 59
f 1 59 63
f 1 63 60
f 1 60 55
f 1 55 54
f 1 54 49
f 1 49 46
f 1 46 42
f 1 42 38
f 1 38 34
f 1 34 30
f 1 30 25
f 1 25 20
f 1 20 14
f 1 14 8
f 1 8 3
f 1 3 4
f 1 4 5
f 1 5 2
f 2 5 7
f 2 7 6
f 3 8 9
f 3 9 10
f 3 10 4
f 4 10 7
f 4 7 5
f 6 7 12
f 6 12 13
f 6 13 11
f 7 10 15
f 7 15 19
f 7 19 18
f 7 18 24
f 7 24 29
f 7 29 33
f 7 33 37
f 7 37 41
f 7 41 45
f 7 45 51
f 7 51 57
f 7 57 58
f 7 58 52
f 7 52 47
f 7 47 43
f 7 43 39
f 7 39 35
f 7 35 31
f 7 31 27
f 7 27 23
f 7 23 17
f 7 17 13
f 7 13 12
f 8 14 15
f 8 15 9
f 9 15 10
f 11 13 17
f 11 17 16
f 14 18 19
f 14 19 15
f 14 20 18
f 16 17 21
f 16 21 22
f 17 23 21
f 18 20 24
f 20 25 24
f 21 23 22
f 22 23 26
f 23 27 28
f 23 28 26
f 24 25 29
f 25 30 29
f 27 31 28
f 28 31 32
f 29 30 33
f 30 34 33
f 31 35 32
f 32 35 36
f 33 34 37
f 34 38 37
f 35 39 36
f 36 39 40
f 37 38 41
f 38 42 41
f 39 43 40
f 40 43 44
f 41 42 46
f 41 46 45
f 43 47 44
f 44 47 48
f 45 46 49
f 45 49 50
f 45 50 51
f 47 52 48
f 48 52 53
f 49 54 50
f 50 54 51
f 51 54 55
f 51 55 56
f 51 56 57
f 52 58 53
f 53 58 59
f 55 60 61
f 55 61 56
f 56 61 60
f 56 60 57
f 57 62 58
f 57 60 63
f 57 63 62
f 58 62 59
f 59 62 64
f 59 64 63
f 62 63 64

