# https://github.com/mikedh/trimesh
v -0.04990198 0.12064208 -0.01335477
v -0.04851412 0.11783701 -0.01308611
v -0.05452819 0.12064208 -0.01333238
v -0.04303910 0.12067422 -0.01331279
v -0.03327579 0.10600019 -0.01164488
v -0.03831232 0.10574890 -0.01165328
v -0.04384366 0.10574890 -0.01158611
v -0.05452819 0.11783701 -0.01285663
v -0.05452819 0.11686400 0.01452671
v -0.05441153 0.12040247 0.01523473
v -0.04988589 0.12064938 0.01514798
v -0.03736295 0.12067422 0.01433082
v -0.02500494 0.12067422 -0.01283705
v -0.03607163 0.12065815 -0.01317287
v -0.04020303 0.12064208 -0.01326522
v -0.02772836 0.10649984 -0.01159171
v -0.02294929 0.10600019 -0.01137903
v -0.01483130 0.10574890 -0.00875963
v -0.04994221 0.10574890 -0.00712530
v -0.04962441 0.10731945 -0.01062903
v -0.05452819 0.11489899 -0.01078015
v -0.05452819 0.11439934 0.01103138
v -0.04951579 0.10670292 0.01104537
v -0.04574644 0.10625001 0.01297914
v -0.04158687 0.10625001 0.01304630
v -0.04435858 0.11097919 0.01377112
v -0.04713028 0.11783701 0.01471141
v -0.04432640 0.12065815 0.01482335
v -0.04009040 0.11366593 0.01386906
v -0.03362577 0.12026806 0.01402298
v -0.02495666 0.12064208 0.01337653
v -0.02080112 0.12064208 0.01292037
v -0.01780012 0.12067422 0.01079911
v -0.01968681 0.12067422 -0.01215981
v -0.02218496 0.11506408 -0.01221578
v -0.02218496 0.10952260 -0.01173443
v -0.01918798 0.10631284 -0.01101522
v -0.01701970 0.11007631 -0.01112996
v -0.01383365 0.10824279 -0.00762623
v -0.01361240 0.10574890 -0.00530628
v -0.04961636 0.10574890 0.00692878
v -0.05452819 0.11404870 0.00108830
v -0.05452819 0.11399464 -0.00174938
v -0.05452819 0.11402971 -0.00573724
v -0.03653827 0.10600019 0.01268250
v -0.02772836 0.10952260 0.01238306
v -0.02495666 0.11783701 0.01307989
v -0.02080112 0.11645055 0.01252578
v -0.01654099 0.10874682 0.01114332
v -0.01647662 0.11229553 0.01120209
v -0.01664156 0.11515320 0.01103138
v -0.01367676 0.10847070 0.00773755
v -0.01675419 0.12067422 0.00673568
v -0.01697947 0.12067422 -0.00838463
v -0.01638812 0.12067422 -0.00279602
v -0.01367676 0.10892214 -0.00277083
v -0.01343942 0.10625001 0.00138215
v -0.01446523 0.10574890 0.00852672
v -0.02734218 0.10574890 0.01187373
v -0.02382626 0.10625001 0.01163866
v -0.02218496 0.11090906 0.01205284
v -0.01961037 0.10635374 0.01122168
v -0.01350780 0.10762188 0.00415546
v -0.01637203 0.12067422 0.00268065
f 1 2 3
f 1 3 4
f 1 4 2
f 2 4 5
f 2 5 6
f 2 6 7
f 2 7 3
f 3 8 21
f 3 21 44
f 3 44 43
f 3 43 42
f 3 42 22
f 3 22 9
f 3 9 10
f 3 10 11
f 3 11 4
f 3 7 8
f 4 12 33
f 4 33 53
f 4 53 64
f 4 64 55
f 4 55 54
f 4 54 34
f 4 34 13
f 4 13 14
f 4 14 15
f 4 15 5
f 4 11 12
f 5 15 16
f 5 16 17
f 5 17 6
f 6 17 18
f 6 18 40
f 6 40 58
f 6 58 59
f 6 59 41
f 6 41 19
f 6 19 7
f 7 19 20
f 7 20 8
f 8 20 21
f 9 22 23
f 9 23 24
f 9 24 10
f 10 24 25
f 10 25 26
f 10 26 11
f 11 26 27
f 11 27 28
f 11 28 12
f 12 28 29
f 12 29 30
f 12 30 31
f 12 31 32
f 12 32 33
f 13 34 35
f 13 35 36
f 13 36 14
f 14 16 15
f 14 36 16
f 16 36 17
f 17 36 37
f 17 37 18
f 18 37 38
f 18 38 39
f 18 39 40
f 19 41 22
f 19 22 42
f 19 42 43
f 19 43 44
f 19 44 21
f 19 21 20
f 22 41 23
f 23 41 24
f 24 45 25
f 24 41 45
f 25 45 29
f 25 29 26
f 26 29 27
f 27 29 28
f 29 45 46
f 29 46 47
f 29 47 31
f 29 31 30
f 31 47 48
f 31 48 32
f 32 48 49
f 32 49 50
f 32 50 51
f 32 51 33
f 33 51 52
f 33 52 53
f 34 54 39
f 34 39 38
f 34 38 35
f 35 38 36
f 36 38 37
f 39 54 55
f 39 55 56
f 39 56 40
f 40 57 58
f 40 56 57
f 41 59 45
f 45 59 46
f 46 59 60
f 46 60 61
f 46 61 47
f 47 61 48
f 48 61 49
f 49 58 52
f 49 52 50
f 49 61 62
f 49 62 58
f 50 52 51
f 52 58 57
f 52 57 63
f 52 63 56
f 52 56 64
f 52 64 53
f 55 64 56
f 56 63 57
f 58 62 59
f 59 62 60
f 60 62 61

