# https://github.com/mikedh/trimesh
v -0.07743886 0.11991193 -0.00028884
v -0.07705115 0.12096902 -0.00810900
v -0.07756202 0.11997962 -0.00400046
v -0.07875708 0.11783419 -0.00693282
v -0.07953554 0.11538153 -0.00028884
v -0.07670754 0.10091031 -0.00028884
v -0.07670754 0.11503785 -0.01303083
v -0.07746927 0.11805290 -0.01128437
v -0.08079749 0.11328818 -0.01009037
v -0.08062265 0.11344440 -0.00553306
v -0.08116088 0.11133021 -0.00028884
v -0.07901099 0.09566651 -0.00028884
v -0.08834491 0.06988492 -0.00245976
v -0.07670754 0.09136003 -0.00607903
v -0.07670754 0.10699249 -0.01453427
v -0.07736740 0.11045538 -0.01396076
v -0.07977577 0.10746115 -0.01403204
v -0.08252775 0.10200906 -0.01425561
v -0.08606427 0.09605185 -0.01394456
v -0.08227688 0.10951285 -0.00831799
v -0.08333054 0.10645093 -0.01066388
v -0.08209442 0.10951285 -0.00416085
v -0.08318761 0.10676337 -0.00554602
v -0.08337462 0.10519595 -0.00028884
v -0.08438875 0.08426241 -0.00028884
v -0.09133560 0.07141588 -0.00281131
v -0.09098438 0.06807797 -0.00554602
v -0.08706015 0.06867161 -0.00551038
v -0.08768353 0.08583503 -0.00028884
v -0.08605819 0.06917672 -0.01130057
v -0.07670754 0.09114653 -0.00970317
v -0.08179490 0.09842640 -0.01497493
v -0.07670754 0.09706729 -0.01466387
v -0.08666332 0.07674820 -0.01670680
v -0.08931799 0.07462360 -0.01683965
v -0.08608707 0.09820249 -0.01082265
v -0.08890292 0.08673070 -0.01410656
v -0.08472933 0.10258187 -0.00831799
v -0.08450735 0.10258187 -0.00416085
v -0.08447085 0.10174869 -0.00028884
v -0.09157584 0.07455591 -0.00577283
v -0.09223874 0.07070768 -0.00693282
v -0.08648847 0.09450527 -0.00028884
v -0.09005084 0.08179934 -0.00416085
v -0.08872350 0.06777073 -0.00970317
v -0.09191489 0.06949437 -0.01108834
v -0.08952934 0.06976515 -0.01595184
v -0.08609164 0.07191058 -0.01591620
v -0.07688543 0.09238588 -0.01363026
v -0.09149677 0.07388937 -0.01400936
v -0.08597153 0.09848889 -0.00693282
v -0.08849544 0.08937082 -0.01108834
v -0.08722588 0.09427614 -0.00831799
v -0.09082170 0.07902382 -0.01247514
v -0.08995810 0.08318449 -0.01108834
v -0.08629082 0.09669756 -0.00372990
v -0.08550475 0.09823894 -0.00028884
v -0.09173852 0.07439969 -0.00970317
v -0.09082322 0.07902382 -0.00831799
v -0.08774283 0.09150583 -0.00416085
v -0.08912946 0.08576734 -0.00374286
v -0.08988207 0.08318449 -0.00693282
v -0.08846047 0.08929271 -0.00693282
f 1 2 3
f 1 3 4
f 1 4 5
f 1 5 11
f 1 11 24
f 1 24 40
f 1 40 57
f 1 57 43
f 1 43 29
f 1 29 25
f 1 25 12
f 1 12 6
f 1 6 2
f 2 6 7
f 2 7 8
f 2 8 9
f 2 9 4
f 2 4 3
f 4 10 5
f 4 9 10
f 5 10 11
f 6 12 13
f 6 13 14
f 6 14 31
f 6 31 33
f 6 33 15
f 6 15 7
f 7 15 16
f 7 16 17
f 7 17 8
f 8 17 18
f 8 18 19
f 8 19 9
f 9 20 10
f 9 19 21
f 9 21 20
f 10 20 22
f 10 22 11
f 11 22 23
f 11 23 24
f 12 25 13
f 13 26 27
f 13 27 28
f 13 28 14
f 13 25 29
f 13 29 26
f 14 28 30
f 14 30 31
f 15 32 17
f 15 17 16
f 15 33 34
f 15 34 35
f 15 35 32
f 17 32 18
f 18 32 35
f 18 35 19
f 19 36 21
f 19 35 37
f 19 37 36
f 20 23 22
f 20 21 38
f 20 38 23
f 21 36 38
f 23 38 39
f 23 39 24
f 24 39 40
f 26 41 42
f 26 42 27
f 26 29 43
f 26 43 44
f 26 44 41
f 27 45 28
f 27 42 46
f 27 46 45
f 28 45 30
f 30 45 47
f 30 47 48
f 30 48 49
f 30 49 31
f 31 49 33
f 33 49 48
f 33 48 34
f 34 48 35
f 35 48 47
f 35 47 50
f 35 50 37
f 36 51 38
f 36 37 52
f 36 52 53
f 36 53 51
f 37 50 54
f 37 54 55
f 37 55 52
f 38 51 39
f 39 51 56
f 39 56 40
f 40 56 57
f 41 58 42
f 41 44 59
f 41 59 58
f 42 58 50
f 42 50 46
f 43 60 61
f 43 61 44
f 43 57 60
f 44 61 62
f 44 62 59
f 45 46 47
f 46 50 47
f 50 58 54
f 51 53 56
f 52 63 53
f 52 55 63
f 53 63 60
f 53 60 56
f 54 58 59
f 54 59 55
f 55 59 62
f 55 62 63
f 56 60 57
f 60 63 61
f 61 63 62

