# https://github.com/mikedh/trimesh
v 0.00221847 -0.00774696 0.00797224
v 0.00225614 -0.00812061 0.00800227
v 0.00301142 -0.00812232 0.01095327
v 0.00300547 -0.00774696 0.01095327
v 0.00318389 -0.00686243 0.01125958
v 0.00230173 -0.00721284 0.00797224
v 0.00333801 -0.00812232 0.00797224
v 0.00321560 -0.00812232 0.01149782
v 0.00321659 -0.00774696 0.01150062
v 0.00371417 -0.00599945 0.01178251
v 0.00368096 -0.00575677 0.01148781
v 0.00322898 -0.00648651 0.01095327
v 0.00324930 -0.00721284 0.01145097
v 0.00247618 -0.00673769 0.00797224
v 0.00558206 -0.00812232 0.00797224
v 0.00363141 -0.00812232 0.01190223
v 0.00357094 -0.00774696 0.01187461
v 0.00361257 -0.00721284 0.01185579
v 0.00402887 -0.00565017 0.01184017
v 0.00422066 -0.00527198 0.01179532
v 0.00384996 -0.00548971 0.01148781
v 0.00400806 -0.00667872 0.01199232
v 0.00400806 -0.00614404 0.01193787
v 0.00337419 -0.00614404 0.01095327
v 0.00369881 -0.00548177 0.01103495
v 0.00298020 -0.00563770 0.00797224
v 0.00492490 -0.00812232 0.01095327
v 0.00728144 -0.00569270 0.00797224
v 0.00728144 -0.00511832 0.01098730
v 0.00407298 -0.00812232 0.01198432
v 0.00400806 -0.00721284 0.01202035
v 0.00454230 -0.00560992 0.01197150
v 0.00504929 -0.00451900 0.01185138
v 0.00474005 -0.00468116 0.01179252
v 0.00508101 -0.00420771 0.01170363
v 0.00475888 -0.00422642 0.01134927
v 0.00424644 -0.00477585 0.01127039
v 0.00390943 -0.00511435 0.01094806
v 0.00454230 -0.00614404 0.01203116
v 0.00349512 -0.00454565 0.00797224
v 0.00477275 -0.00812232 0.01142415
v 0.00728144 -0.00490400 0.01165999
v 0.00724675 -0.00233036 0.00797224
v 0.00728144 -0.00450823 0.01197991
v 0.00444665 -0.00812232 0.01187300
v 0.00724675 -0.00399168 0.01206240
v 0.00667831 -0.00400813 0.01204918
v 0.00561030 -0.00454225 0.01196790
v 0.00614455 -0.00400813 0.01195669
v 0.00614455 -0.00365715 0.01183296
v 0.00579467 -0.00370421 0.01163036
v 0.00547947 -0.00383179 0.01148781
v 0.00538233 -0.00375808 0.01114026
v 0.00510480 -0.00388452 0.01095887
v 0.00451356 -0.00347117 0.00797224
v 0.00398526 -0.00397184 0.00797224
v 0.00671994 -0.00247098 0.00797224
v 0.00679527 -0.00324891 0.01136729
v 0.00724675 -0.00320638 0.01148461
v 0.00724675 -0.00351710 0.01189102
v 0.00667831 -0.00357210 0.01188982
v 0.00614455 -0.00350463 0.01148781
v 0.00516526 -0.00303401 0.00797224
v 0.00652864 -0.00323927 0.01095327
f 1 2 3
f 1 3 4
f 1 4 5
f 1 5 6
f 1 6 14
f 1 14 26
f 1 26 40
f 1 40 56
f 1 56 55
f 1 55 63
f 1 63 57
f 1 57 43
f 1 43 28
f 1 28 15
f 1 15 7
f 1 7 2
f 2 7 3
f 3 8 4
f 3 7 15
f 3 15 27
f 3 27 41
f 3 41 45
f 3 45 30
f 3 30 16
f 3 16 8
f 4 8 9
f 4 9 5
f 5 10 11
f 5 11 12
f 5 12 6
f 5 9 13
f 5 13 10
f 6 12 14
f 8 16 17
f 8 17 9
f 9 17 18
f 9 18 10
f 9 10 13
f 10 19 20
f 10 20 21
f 10 21 11
f 10 18 22
f 10 22 23
f 10 23 19
f 11 24 12
f 11 21 25
f 11 25 24
f 12 24 14
f 14 24 26
f 15 28 29
f 15 29 27
f 16 30 31
f 16 31 17
f 17 31 22
f 17 22 18
f 19 23 32
f 19 32 33
f 19 33 20
f 20 33 34
f 20 34 35
f 20 35 36
f 20 36 37
f 20 37 21
f 21 37 38
f 21 38 25
f 22 31 39
f 22 39 23
f 23 39 32
f 24 25 26
f 25 38 40
f 25 40 26
f 27 29 42
f 27 42 41
f 28 43 44
f 28 44 42
f 28 42 29
f 30 45 44
f 30 44 46
f 30 46 31
f 31 46 39
f 32 39 47
f 32 47 48
f 32 48 33
f 33 48 49
f 33 49 50
f 33 50 35
f 33 35 34
f 35 50 51
f 35 51 52
f 35 52 36
f 36 52 53
f 36 53 54
f 36 54 55
f 36 55 56
f 36 56 37
f 37 56 40
f 37 40 38
f 39 46 47
f 41 42 45
f 42 44 45
f 43 57 58
f 43 58 59
f 43 59 44
f 44 59 60
f 44 60 46
f 46 60 47
f 47 60 61
f 47 61 50
f 47 50 49
f 47 49 48
f 50 61 59
f 50 59 58
f 50 58 62
f 50 62 51
f 51 53 52
f 51 62 53
f 53 62 63
f 53 63 54
f 54 63 55
f 57 63 64
f 57 64 58
f 58 64 62
f 59 61 60
f 62 64 63

