# https://github.com/mikedh/trimesh
v -0.01450009 -0.00813124 -0.00143513
v -0.01450009 -0.00466553 -0.00143513
v -0.01349163 -0.00813124 -0.00143513
v -0.01450009 -0.00813124 0.00786191
v -0.01125021 -0.00006983 -0.00143513
v -0.01450009 -0.00006983 0.00064377
v -0.01332658 -0.00807285 -0.00143513
v -0.00735553 -0.00813124 -0.00034044
v -0.01380704 -0.00813124 0.00796871
v -0.01450009 -0.00808784 0.00786283
v -0.00735553 -0.00006983 -0.00143513
v -0.01450009 -0.00006983 0.00783521
v -0.01300138 -0.00791424 -0.00143513
v -0.01264961 -0.00769803 -0.00143513
v -0.01259296 -0.00765778 -0.00143513
v -0.01234679 -0.00743447 -0.00143513
v -0.01208733 -0.00718590 -0.00143513
v -0.01204957 -0.00714960 -0.00143513
v -0.01182438 -0.00690262 -0.00143513
v -0.01151666 -0.00654595 -0.00143513
v -0.00735553 -0.00121796 -0.00143513
v -0.00735553 -0.00813124 0.00763358
v -0.01044666 -0.00813124 0.00796871
v -0.01380773 -0.00811861 0.00796871
v -0.01450009 -0.00774695 0.00786467
v -0.00735553 -0.00006983 0.00784258
v -0.01450009 -0.00721273 0.00786375
v -0.01381752 -0.00774695 0.00796871
v -0.01378675 -0.00721273 0.00796871
v -0.01361821 -0.00665800 0.00796871
v -0.01252792 -0.00451244 0.00796871
v -0.01192928 -0.00356237 0.00796871
v -0.01134043 -0.00308655 0.00796871
v -0.01095299 -0.00290032 0.00796871
v -0.01415951 -0.00006983 0.00783889
v -0.00735553 -0.00579946 0.00796871
v -0.00755065 -0.00006983 0.00784350
v -0.00774786 -0.00221538 0.00796871
v -0.00735553 -0.00224852 0.00796871
v -0.00881647 -0.00228877 0.00796871
v -0.00828217 -0.00006983 0.00784534
v -0.00828217 -0.00223274 0.00796871
v -0.00776255 -0.00221538 0.00796871
f 1 2 5
f 1 5 11
f 1 11 21
f 1 21 20
f 1 20 19
f 1 19 18
f 1 18 17
f 1 17 16
f 1 16 15
f 1 15 14
f 1 14 13
f 1 13 7
f 1 7 3
f 1 3 8
f 1 8 22
f 1 22 23
f 1 23 9
f 1 9 4
f 1 4 10
f 1 10 25
f 1 25 27
f 1 27 12
f 1 12 6
f 1 6 2
f 2 6 5
f 3 7 8
f 4 9 10
f 5 6 12
f 5 12 35
f 5 35 41
f 5 41 37
f 5 37 26
f 5 26 11
f 7 13 8
f 8 13 14
f 8 14 15
f 8 15 16
f 8 16 17
f 8 17 18
f 8 18 19
f 8 19 20
f 8 20 21
f 8 21 11
f 8 11 26
f 8 26 39
f 8 39 36
f 8 36 22
f 9 23 36
f 9 36 39
f 9 39 38
f 9 38 43
f 9 43 42
f 9 42 40
f 9 40 34
f 9 34 33
f 9 33 32
f 9 32 31
f 9 31 30
f 9 30 29
f 9 29 28
f 9 28 24
f 9 24 10
f 10 24 25
f 12 27 28
f 12 28 29
f 12 29 30
f 12 30 31
f 12 31 32
f 12 32 33
f 12 33 34
f 12 34 35
f 22 36 23
f 24 28 25
f 25 28 27
f 26 37 38
f 26 38 39
f 34 40 35
f 35 40 42
f 35 42 43
f 35 43 41
f 37 41 38
f 38 41 43

