# https://github.com/mikedh/trimesh
v -0.00004087 -0.00812288 -0.00099792
v -0.00004087 -0.00465524 -0.00099792
v 0.00134532 -0.00812288 -0.00099792
v -0.00004087 -0.00812288 0.00787310
v 0.00470043 -0.00006983 -0.00099792
v -0.00004087 -0.00006983 -0.00011117
v 0.00355076 -0.00748516 -0.00099792
v 0.00728144 -0.00812288 -0.00041407
v 0.00221474 -0.00812288 0.00796880
v 0.00221761 -0.00811894 0.00797144
v -0.00004087 -0.00805509 0.00787310
v 0.00728144 -0.00006983 -0.00099792
v -0.00004087 -0.00006983 0.00737793
v 0.00399801 -0.00735510 -0.00099792
v 0.00439868 -0.00716907 -0.00099792
v 0.00452769 -0.00707132 -0.00099792
v 0.00503228 -0.00655500 -0.00099792
v 0.00557199 -0.00549240 -0.00099792
v 0.00728144 -0.00139493 -0.00099792
v 0.00728144 -0.00812288 0.00766327
v 0.00333789 -0.00812288 0.00797144
v 0.00221832 -0.00774766 0.00797144
v -0.00004087 -0.00752064 0.00786959
v 0.00728144 -0.00006983 0.00786608
v -0.00004087 -0.00347362 0.00776511
v 0.00347335 -0.00006983 0.00778179
v 0.00728144 -0.00569262 0.00797144
v 0.00558275 -0.00812288 0.00797144
v 0.00230147 -0.00721321 0.00797144
v -0.00004087 -0.00507540 0.00784764
v 0.00454131 -0.00006983 0.00784237
v 0.00721335 -0.00233298 0.00797144
v 0.00726854 -0.00232903 0.00797144
v 0.00728144 -0.00232825 0.00797144
v -0.00004087 -0.00378183 0.00779848
v 0.00366974 -0.00006983 0.00780023
v 0.00247564 -0.00673788 0.00797144
v -0.00004087 -0.00454173 0.00784150
v 0.00420444 -0.00006983 0.00783360
v 0.00451264 -0.00347125 0.00797144
v 0.00516560 -0.00303376 0.00797144
v 0.00672023 -0.00247092 0.00797144
v -0.00004087 -0.00400807 0.00781867
v 0.00400733 -0.00006983 0.00782833
v 0.00298023 -0.00563744 0.00797144
v -0.00004087 -0.00431471 0.00783272
v 0.00349557 -0.00454489 0.00797144
v 0.00398439 -0.00397102 0.00797144
f 1 2 5
f 1 5 12
f 1 12 19
f 1 19 18
f 1 18 17
f 1 17 16
f 1 16 15
f 1 15 14
f 1 14 7
f 1 7 3
f 1 3 8
f 1 8 20
f 1 20 28
f 1 28 21
f 1 21 9
f 1 9 4
f 1 4 11
f 1 11 23
f 1 23 30
f 1 30 38
f 1 38 46
f 1 46 43
f 1 43 35
f 1 35 25
f 1 25 13
f 1 13 6
f 1 6 2
f 2 6 5
f 3 7 8
f 4 9 10
f 4 10 11
f 5 6 13
f 5 13 26
f 5 26 36
f 5 36 44
f 5 44 39
f 5 39 31
f 5 31 24
f 5 24 12
f 7 14 8
f 8 14 15
f 8 15 16
f 8 16 17
f 8 17 18
f 8 18 19
f 8 19 12
f 8 12 24
f 8 24 34
f 8 34 27
f 8 27 20
f 9 21 10
f 10 21 28
f 10 28 27
f 10 27 34
f 10 34 33
f 10 33 32
f 10 32 42
f 10 42 41
f 10 41 40
f 10 40 48
f 10 48 47
f 10 47 45
f 10 45 37
f 10 37 29
f 10 29 22
f 10 22 11
f 11 22 23
f 13 25 26
f 20 27 28
f 22 29 23
f 23 29 30
f 24 31 32
f 24 32 33
f 24 33 34
f 25 35 26
f 26 35 36
f 29 37 38
f 29 38 30
f 31 39 40
f 31 40 41
f 31 41 42
f 31 42 32
f 35 43 36
f 36 43 44
f 37 45 38
f 38 44 46
f 38 45 47
f 38 47 48
f 38 48 44
f 39 44 40
f 40 44 48
f 43 46 44

