# https://github.com/mikedh/trimesh
v 0.00229743 0.00774727 0.00797350
v 0.00232673 0.00724869 0.00797350
v 0.00324702 0.00726996 0.01136494
v 0.00324519 0.00774727 0.01142604
v 0.00323420 0.00812162 0.01139893
v 0.00231986 0.00812162 0.00797350
v 0.00321406 0.00699465 0.01115047
v 0.00246546 0.00667346 0.00797350
v 0.00343246 0.00667850 0.01148755
v 0.00364307 0.00667850 0.01185336
v 0.00359545 0.00721288 0.01188573
v 0.00353227 0.00812162 0.01183555
v 0.00559903 0.00812162 0.00797350
v 0.00293935 0.00559742 0.00797350
v 0.00379325 0.00544969 0.01095299
v 0.00379600 0.00571549 0.01139691
v 0.00370900 0.00605123 0.01157495
v 0.00369939 0.00631758 0.01179913
v 0.00400798 0.00667850 0.01203748
v 0.00400798 0.00721288 0.01208685
v 0.00400798 0.00812162 0.01205124
v 0.00500199 0.00812162 0.01104121
v 0.00697489 0.00524210 0.01107965
v 0.00697489 0.00581117 0.00806536
v 0.00682975 0.00240566 0.00797350
v 0.00321314 0.00501379 0.00797350
v 0.00346496 0.00452417 0.00797350
v 0.00426164 0.00479277 0.01125973
v 0.00425385 0.00499085 0.01153692
v 0.00423325 0.00525832 0.01179711
v 0.00414626 0.00560973 0.01184850
v 0.00452673 0.00507926 0.01188452
v 0.00454230 0.00560973 0.01199094
v 0.00507570 0.00507646 0.01203141
v 0.00614434 0.00454208 0.01210748
v 0.00445668 0.00812162 0.01193712
v 0.00682655 0.00454208 0.01206297
v 0.00481244 0.00812162 0.01164091
v 0.00697489 0.00511340 0.01149888
v 0.00697489 0.00489684 0.01185417
v 0.00682655 0.00341232 0.01147865
v 0.00679541 0.00322710 0.01097080
v 0.00646164 0.00322151 0.01059528
v 0.00614434 0.00344086 0.01095299
v 0.00568420 0.00364958 0.01095299
v 0.00538064 0.00375925 0.01081743
v 0.00454734 0.00350297 0.00797350
v 0.00371312 0.00425167 0.00797350
v 0.00476436 0.00423768 0.01128036
v 0.00469385 0.00471890 0.01183353
v 0.00561002 0.00454208 0.01199418
v 0.00611779 0.00398084 0.01190111
v 0.00682655 0.00400826 0.01202129
v 0.00682655 0.00364118 0.01184486
v 0.00627758 0.00367867 0.01181492
v 0.00611779 0.00361152 0.01150293
v 0.00579637 0.00370273 0.01133499
v 0.00507570 0.00396125 0.01095299
v 0.00426942 0.00372120 0.00797350
v 0.00398189 0.00398196 0.00797350
v 0.00494934 0.00436246 0.01163646
v 0.00592182 0.00378443 0.01169109
v 0.00530555 0.00424943 0.01177526
v 0.00510684 0.00454152 0.01187602
f 1 2 3
f 1 3 4
f 1 4 5
f 1 5 6
f 1 6 13
f 1 13 25
f 1 25 47
f 1 47 59
f 1 59 60
f 1 60 48
f 1 48 27
f 1 27 26
f 1 26 14
f 1 14 8
f 1 8 2
f 2 7 3
f 2 8 7
f 3 7 9
f 3 9 10
f 3 10 11
f 3 11 4
f 4 11 12
f 4 12 5
f 5 12 21
f 5 21 36
f 5 36 38
f 5 38 22
f 5 22 13
f 5 13 6
f 7 8 9
f 8 14 15
f 8 15 16
f 8 16 17
f 8 17 9
f 9 17 18
f 9 18 10
f 10 18 19
f 10 19 11
f 11 19 20
f 11 20 12
f 12 20 21
f 13 22 23
f 13 23 24
f 13 24 25
f 14 26 15
f 15 26 27
f 15 27 28
f 15 28 16
f 16 28 29
f 16 29 30
f 16 30 17
f 17 30 18
f 18 30 31
f 18 31 19
f 19 31 32
f 19 32 33
f 19 33 34
f 19 34 20
f 20 34 35
f 20 35 21
f 21 35 37
f 21 37 36
f 22 38 39
f 22 39 23
f 23 39 40
f 23 40 24
f 24 40 25
f 25 40 41
f 25 41 42
f 25 42 43
f 25 43 44
f 25 44 45
f 25 45 46
f 25 46 47
f 27 48 49
f 27 49 28
f 28 49 29
f 29 49 50
f 29 50 30
f 30 32 31
f 30 50 32
f 32 34 33
f 32 50 34
f 34 50 51
f 34 51 35
f 35 51 52
f 35 52 53
f 35 53 37
f 36 37 40
f 36 40 38
f 37 53 40
f 38 40 39
f 40 53 54
f 40 54 41
f 41 54 55
f 41 55 42
f 42 55 56
f 42 56 43
f 43 56 44
f 44 56 57
f 44 57 45
f 45 57 46
f 46 57 58
f 46 58 47
f 47 58 49
f 47 49 59
f 48 60 49
f 49 61 50
f 49 60 59
f 49 58 57
f 49 57 62
f 49 62 61
f 50 61 63
f 50 63 55
f 50 55 64
f 50 64 51
f 51 64 52
f 52 55 53
f 52 64 55
f 53 55 54
f 55 63 62
f 55 62 56
f 56 62 57
f 61 62 63

