# https://github.com/mikedh/trimesh
v -0.01450009 -0.00488246 -0.00967167
v -0.01432932 -0.00560780 -0.01005687
v -0.01426962 -0.00632806 -0.00977664
v -0.01426546 -0.00813124 -0.00159745
v -0.01450009 -0.00466215 -0.00143731
v -0.01450009 -0.00455030 -0.00891193
v -0.01099868 -0.00006777 -0.00934962
v -0.01063354 -0.00006777 -0.00980956
v -0.00998241 -0.00006777 -0.01005243
v -0.00239926 0.00542482 -0.01017074
v -0.01282297 -0.00507566 -0.01005687
v -0.01362404 -0.00560780 -0.01004442
v -0.01365459 -0.00616537 -0.00979088
v -0.01360322 -0.00642127 -0.00934962
v -0.01321726 -0.00800583 -0.00144443
v -0.00733483 -0.00006607 -0.00108235
v -0.00733483 0.00123717 -0.00108235
v -0.00582015 0.00589256 -0.00108235
v -0.00542586 0.00650096 -0.00108235
v -0.01124858 -0.00006777 -0.00143731
v -0.01450009 -0.00459775 -0.00240522
v -0.01450009 -0.00449946 -0.00784349
v -0.01114723 -0.00006777 -0.00849825
v -0.00500935 0.00689075 -0.00108235
v -0.00101369 0.00918201 -0.00622793
v -0.00079572 0.00918201 -0.00692006
v -0.00469420 0.00511299 -0.00954534
v -0.00408749 0.00525534 -0.00984336
v -0.00440126 0.00438256 -0.01011559
v -0.00614641 -0.00006607 -0.01008089
v -0.00256308 0.00576715 -0.01013249
v -0.00133856 0.00591628 -0.01016096
v -0.01308814 -0.00560780 -0.00996168
v -0.01300762 -0.00608063 -0.00952577
v -0.01257168 -0.00561119 -0.00978643
v -0.01242035 -0.00587218 -0.00915657
v -0.01248282 -0.00755504 -0.00143731
v -0.00446512 -0.00006607 -0.00108235
v -0.01450009 -0.00449098 -0.00721275
v -0.01450009 -0.00451132 -0.00473693
v -0.01450009 -0.00452149 -0.00410618
v -0.01450009 -0.00453844 -0.00347455
v -0.01450009 -0.00456386 -0.00293989
v -0.00031674 0.00918201 -0.00108235
v -0.00124554 0.00918201 -0.00121046
v -0.00031674 0.00918201 -0.00732306
v -0.00358352 0.00583663 -0.00966722
v -0.00294210 0.00606542 -0.00980867
v -0.00032229 0.00612812 -0.01012804
v -0.00031674 0.00560615 -0.01000261
v -0.00561051 -0.00006607 -0.00994033
v -0.00211326 0.00641792 -0.00977664
v -0.00133856 0.00659417 -0.00981134
v -0.00195638 0.00600271 -0.01009246
v -0.00133856 0.00618405 -0.01007911
v -0.01207604 -0.00527056 -0.00978198
v -0.01134577 -0.00486891 -0.00967078
v -0.01179698 -0.00539935 -0.00931849
v -0.00494410 -0.00006607 -0.00869575
v -0.00031674 0.00487912 -0.00858899
v -0.00031674 0.00464016 -0.00108235
v -0.00055970 0.00665349 -0.00986382
v -0.00031674 0.00514010 -0.00954178
v -0.00518290 -0.00006607 -0.00952488
f 1 2 3
f 1 3 4
f 1 4 5
f 1 5 21
f 1 21 43
f 1 43 42
f 1 42 41
f 1 41 40
f 1 40 39
f 1 39 22
f 1 22 6
f 1 6 7
f 1 7 8
f 1 8 2
f 2 8 9
f 2 9 10
f 2 10 11
f 2 11 12
f 2 12 3
f 3 13 14
f 3 14 4
f 3 12 13
f 4 14 15
f 4 15 5
f 5 16 17
f 5 17 18
f 5 18 19
f 5 19 20
f 5 20 21
f 5 15 16
f 6 22 23
f 6 23 7
f 7 23 19
f 7 19 24
f 7 24 25
f 7 25 26
f 7 26 27
f 7 27 8
f 8 27 28
f 8 28 9
f 9 28 29
f 9 29 10
f 10 30 11
f 10 29 31
f 10 31 32
f 10 32 30
f 11 33 12
f 11 30 33
f 12 33 13
f 13 34 14
f 13 33 35
f 13 35 34
f 14 34 36
f 14 36 15
f 15 36 37
f 15 37 38
f 15 38 16
f 16 38 61
f 16 61 44
f 16 44 24
f 16 24 19
f 16 19 18
f 16 18 17
f 19 23 20
f 20 23 22
f 20 22 39
f 20 39 40
f 20 40 41
f 20 41 42
f 20 42 43
f 20 43 21
f 24 44 45
f 24 45 25
f 25 45 44
f 25 44 46
f 25 46 26
f 26 46 47
f 26 47 27
f 27 47 28
f 28 47 48
f 28 48 31
f 28 31 29
f 30 32 49
f 30 49 50
f 30 50 51
f 30 51 33
f 31 48 52
f 31 52 53
f 31 53 54
f 31 54 55
f 31 55 32
f 32 55 49
f 33 51 56
f 33 56 35
f 34 35 57
f 34 57 58
f 34 58 36
f 35 56 57
f 36 58 37
f 37 58 59
f 37 59 38
f 38 59 60
f 38 60 61
f 44 61 60
f 44 60 63
f 44 63 50
f 44 50 46
f 46 50 49
f 46 49 62
f 46 62 53
f 46 53 52
f 46 52 48
f 46 48 47
f 49 55 62
f 50 63 64
f 50 64 51
f 51 64 57
f 51 57 56
f 53 62 55
f 53 55 54
f 57 64 58
f 58 64 59
f 59 64 63
f 59 63 60

