# https://github.com/mikedh/trimesh
v -0.00828416 -0.01188506 0.01193289
v -0.00828416 -0.01149006 0.01192478
v -0.00988560 -0.01148785 0.01207200
v -0.00867965 -0.01188506 0.01195990
v -0.00828416 -0.01188506 -0.00105616
v -0.01161360 -0.00813161 0.01185590
v -0.01191113 -0.00813161 0.01191938
v -0.01202187 -0.00813161 0.01194234
v -0.00828416 -0.01117332 0.01180322
v -0.01202187 -0.00881653 0.01199501
v -0.01202187 -0.00935079 0.01201797
v -0.01041982 -0.01148785 0.01197476
v -0.00990812 -0.01188506 0.01196395
v -0.00935077 -0.01188506 0.01199907
v -0.00998539 -0.01188506 -0.00068879
v -0.01449948 -0.00813161 -0.00172473
v -0.00828416 -0.00813161 -0.00037274
v -0.01134710 -0.00813161 0.01156416
v -0.01241554 -0.00813161 0.01184104
v -0.00828416 -0.00813197 0.00763382
v -0.01242588 -0.00881653 0.01186535
v -0.01241250 -0.00935079 0.01187481
v -0.01236565 -0.00978401 0.01183429
v -0.01206811 -0.00993135 0.01190452
v -0.01190809 -0.01041932 0.01183024
v -0.01179309 -0.01073422 0.01178297
v -0.01042956 -0.01188506 0.01183699
v -0.01041982 -0.01188506 0.01183969
v -0.01041435 -0.01188506 0.01184104
v -0.01045937 -0.01188506 -0.00057669
v -0.01449948 -0.00813161 0.00786207
v -0.01107330 -0.01188506 -0.00043082
v -0.01449948 -0.01188506 0.00054299
v -0.00828416 -0.00813161 -0.00032817
v -0.00866566 -0.00813161 0.00763652
v -0.01268265 -0.00813161 0.01154525
v -0.01268143 -0.00828226 0.01154255
v -0.01271064 -0.00881689 0.01145476
v -0.01449948 -0.01188506 0.00785667
v -0.01227681 -0.01013970 0.01172894
v -0.01070336 -0.01176932 0.01176676
v -0.01285180 -0.00813161 0.01127783
v -0.01280434 -0.00813161 0.01135346
v -0.01285058 -0.00828226 0.01127513
v -0.01283780 -0.00863905 0.01125487
f 1 2 3
f 1 3 4
f 1 4 14
f 1 14 13
f 1 13 29
f 1 29 28
f 1 28 27
f 1 27 39
f 1 39 33
f 1 33 32
f 1 32 30
f 1 30 15
f 1 15 5
f 1 5 17
f 1 17 34
f 1 34 20
f 1 20 9
f 1 9 2
f 2 6 7
f 2 7 8
f 2 8 3
f 2 9 6
f 3 10 11
f 3 11 12
f 3 12 13
f 3 13 14
f 3 14 4
f 3 8 10
f 5 15 16
f 5 16 17
f 6 9 18
f 6 18 35
f 6 35 34
f 6 34 17
f 6 17 16
f 6 16 31
f 6 31 42
f 6 42 43
f 6 43 36
f 6 36 19
f 6 19 8
f 6 8 7
f 8 19 10
f 9 20 18
f 10 19 11
f 11 19 21
f 11 21 22
f 11 22 23
f 11 23 24
f 11 24 12
f 12 24 25
f 12 25 26
f 12 26 27
f 12 27 28
f 12 28 29
f 12 29 13
f 15 30 16
f 16 30 32
f 16 32 33
f 16 33 39
f 16 39 31
f 18 20 35
f 19 36 21
f 20 34 35
f 21 36 22
f 22 36 37
f 22 37 38
f 22 38 39
f 22 39 23
f 23 40 26
f 23 26 25
f 23 25 24
f 23 39 40
f 26 41 27
f 26 40 39
f 26 39 41
f 27 41 39
f 31 39 42
f 36 43 37
f 37 43 44
f 37 44 38
f 38 44 45
f 38 45 39
f 39 45 44
f 39 44 42
f 42 44 43

