# https://github.com/mikedh/trimesh
v -0.01603302 -0.01469338 -0.01206594
v -0.00004860 -0.01432070 -0.01178204
v -0.00004860 -0.01561534 -0.01183131
v -0.00401238 -0.01594820 -0.01166238
v -0.02925194 -0.01570191 -0.01150753
v -0.03103359 -0.01415924 -0.01194628
v -0.03122595 -0.01215732 -0.01178908
v -0.00791625 -0.01301263 -0.01115325
v -0.00042700 -0.01188506 -0.00718575
v -0.00004860 -0.01188506 0.00786304
v -0.00004860 -0.01630703 -0.01011855
v -0.00274157 -0.01625682 -0.01066288
v -0.03026733 -0.01606031 -0.01034379
v -0.03097053 -0.01538680 -0.01152630
v -0.03209943 -0.01375323 -0.01112040
v -0.03226025 -0.01215732 -0.01029452
v -0.03210889 -0.01210019 -0.00875070
v -0.01450364 -0.01188506 0.00054042
v -0.00004860 -0.01442631 0.00789824
v -0.01450364 -0.01188506 0.00785366
v -0.01042318 -0.01188636 0.01183523
v -0.00675266 -0.01211620 0.01190327
v -0.00025041 -0.01587895 0.00726006
v -0.00215820 -0.01603001 0.00747591
v -0.01456355 -0.01599235 0.00736799
v -0.02858343 -0.01592613 -0.00266689
v -0.03107144 -0.01575039 -0.00740630
v -0.03141200 -0.01572745 -0.00918006
v -0.03197961 -0.01525954 -0.01034145
v -0.03223187 -0.01442631 -0.00921290
v -0.03181563 -0.01210019 -0.00712475
v -0.02940015 -0.01210019 -0.00120518
v -0.02775725 -0.01210019 0.00103548
v -0.02671663 -0.01210019 0.00213821
v -0.02207488 -0.01265337 0.00569277
v -0.02239021 -0.01474662 0.00542765
v -0.02066532 -0.01518336 0.00610806
v -0.01760971 -0.01561967 0.00723425
v -0.00920598 -0.01226813 0.01186339
v -0.02528500 -0.01210019 0.00346619
v -0.02397951 -0.01221446 0.00448680
v -0.01624745 -0.01595253 0.00710286
v -0.02186991 -0.01586856 0.00494432
v -0.02561926 -0.01583436 0.00217575
v -0.02736623 -0.01584648 -0.00009072
v -0.03093269 -0.01563872 -0.00619095
v -0.03190708 -0.01494529 -0.00792013
v -0.03169265 -0.01453669 -0.00664612
v -0.03134578 -0.01402593 -0.00541199
v -0.03134578 -0.01246248 -0.00545892
v -0.03090115 -0.01221446 -0.00422245
v -0.03020110 -0.01221446 -0.00270912
v -0.03023264 -0.01412245 -0.00282643
v -0.02876632 -0.01305375 -0.00025495
v -0.02821764 -0.01442631 0.00041607
v -0.02688061 -0.01470420 0.00192471
v -0.02602289 -0.01472281 0.00279751
v -0.02498228 -0.01389261 0.00374070
v -0.02391960 -0.01545043 0.00397767
v -0.02806943 -0.01526300 0.00028938
v -0.03023895 -0.01523227 -0.00369689
v -0.03068357 -0.01535780 -0.00498732
v -0.03090746 -0.01349223 -0.00424122
v -0.02894291 -0.01518682 -0.00122630
f 1 2 3
f 1 3 4
f 1 4 5
f 1 5 6
f 1 6 7
f 1 7 2
f 2 8 9
f 2 9 10
f 2 10 19
f 2 19 11
f 2 11 3
f 2 7 8
f 3 11 4
f 4 11 12
f 4 12 13
f 4 13 5
f 5 13 14
f 5 14 6
f 6 14 15
f 6 15 7
f 7 15 16
f 7 16 17
f 7 17 9
f 7 9 8
f 9 18 20
f 9 20 10
f 9 17 18
f 10 20 21
f 10 21 22
f 10 22 19
f 11 19 23
f 11 23 24
f 11 24 25
f 11 25 13
f 11 13 12
f 13 26 27
f 13 27 28
f 13 28 29
f 13 29 14
f 13 25 26
f 14 29 15
f 15 29 30
f 15 30 16
f 16 30 17
f 17 30 31
f 17 31 20
f 17 20 18
f 19 22 23
f 20 31 32
f 20 32 33
f 20 33 34
f 20 34 21
f 21 35 36
f 21 36 37
f 21 37 38
f 21 38 39
f 21 39 22
f 21 34 40
f 21 40 41
f 21 41 35
f 22 39 24
f 22 24 23
f 24 39 25
f 25 39 38
f 25 38 42
f 25 42 43
f 25 43 26
f 26 43 44
f 26 44 45
f 26 45 46
f 26 46 27
f 27 46 47
f 27 47 28
f 28 47 29
f 29 47 30
f 30 47 48
f 30 48 31
f 31 48 49
f 31 49 50
f 31 50 51
f 31 51 32
f 32 51 52
f 32 52 53
f 32 53 54
f 32 54 33
f 33 54 55
f 33 55 56
f 33 56 34
f 34 56 57
f 34 57 40
f 35 41 36
f 36 43 37
f 36 41 58
f 36 58 57
f 36 57 59
f 36 59 43
f 37 43 38
f 38 43 42
f 40 57 58
f 40 58 41
f 43 59 44
f 44 59 57
f 44 57 60
f 44 60 45
f 45 60 61
f 45 61 46
f 46 61 62
f 46 62 47
f 47 62 48
f 48 62 61
f 48 61 49
f 49 61 53
f 49 53 63
f 49 63 51
f 49 51 50
f 51 63 52
f 52 63 53
f 53 61 64
f 53 64 60
f 53 60 55
f 53 55 54
f 55 60 56
f 56 60 57
f 60 64 61

