# https://github.com/mikedh/trimesh
v 0.00824474 -0.00228776 0.00797810
v 0.00774838 -0.00229918 0.00797810
v 0.00774838 -0.00301479 0.01095303
v 0.00828292 -0.00319070 0.01155958
v 0.00873484 -0.00233688 0.00797810
v 0.00728207 -0.00233802 0.00797810
v 0.00728207 -0.00320441 0.01148599
v 0.00774838 -0.00318670 0.01156646
v 0.00828292 -0.00350424 0.01191502
v 0.00881746 -0.00354536 0.01191381
v 0.00935137 -0.00361104 0.01187458
v 0.00877615 -0.00321868 0.01142695
v 0.00905531 -0.00321354 0.01118109
v 0.00932634 -0.00250250 0.00797810
v 0.00728207 -0.00568934 0.00797810
v 0.00728207 -0.00350653 0.01188469
v 0.00774838 -0.00350253 0.01190127
v 0.00828292 -0.00400797 0.01206464
v 0.00881746 -0.00400797 0.01205857
v 0.00728207 -0.00397599 0.01205655
v 0.00935137 -0.00400797 0.01200681
v 0.00975572 -0.00367615 0.01181635
v 0.00935137 -0.00339859 0.01148760
v 0.01001297 -0.00370356 0.01157171
v 0.01147075 -0.00351281 0.00797810
v 0.01030716 -0.00812174 0.00797810
v 0.01092244 -0.00812174 0.01103067
v 0.00728207 -0.00511880 0.01098740
v 0.01148702 -0.00614396 0.01210871
v 0.00728207 -0.00450827 0.01198012
v 0.01202156 -0.00812174 0.01191421
v 0.00991470 -0.00397941 0.01187701
v 0.01148702 -0.00560996 0.01201409
v 0.01031780 -0.00413876 0.01181393
v 0.01067332 -0.00429696 0.01174114
v 0.01086861 -0.00431923 0.01145889
v 0.01115216 -0.00433351 0.01095303
v 0.01203346 -0.00398056 0.00797810
v 0.01367588 -0.00812174 0.00797810
v 0.01109207 -0.00812174 0.01151995
v 0.00728207 -0.00491319 0.01165501
v 0.01202156 -0.00667852 0.01195990
v 0.01205223 -0.00616509 0.01190936
v 0.01134118 -0.00812174 0.01179897
v 0.01241214 -0.00812174 0.01176662
v 0.01182127 -0.00546775 0.01181029
v 0.01144196 -0.00511994 0.01181878
v 0.01126858 -0.00475728 0.01162590
v 0.01141254 -0.00460022 0.01095303
v 0.01231700 -0.00425355 0.00797810
v 0.01367525 -0.00774709 0.00797810
v 0.01278957 -0.00812174 0.01107717
v 0.01233453 -0.00667852 0.01180099
v 0.01230135 -0.00635698 0.01177026
v 0.01264123 -0.00812174 0.01142250
v 0.01202908 -0.00560996 0.01148760
v 0.01255047 -0.00453169 0.00797810
v 0.01358450 -0.00716911 0.00797810
v 0.01276641 -0.00725021 0.01091785
v 0.01279082 -0.00774709 0.01105008
v 0.01256236 -0.00721252 0.01148760
v 0.01247974 -0.00667852 0.01148760
v 0.01263309 -0.00667852 0.01095303
v 0.01229509 -0.00613482 0.01148760
f 1 2 3
f 1 3 4
f 1 4 5
f 1 5 14
f 1 14 25
f 1 25 38
f 1 38 50
f 1 50 57
f 1 57 58
f 1 58 51
f 1 51 39
f 1 39 26
f 1 26 15
f 1 15 6
f 1 6 2
f 2 6 3
f 3 6 7
f 3 7 8
f 3 8 4
f 4 8 9
f 4 9 10
f 4 10 11
f 4 11 12
f 4 12 5
f 5 12 13
f 5 13 14
f 6 15 28
f 6 28 41
f 6 41 30
f 6 30 20
f 6 20 16
f 6 16 7
f 7 16 8
f 8 17 9
f 8 16 17
f 9 18 19
f 9 19 10
f 9 17 20
f 9 20 18
f 10 19 21
f 10 21 11
f 11 21 22
f 11 22 12
f 12 22 23
f 12 23 13
f 13 23 14
f 14 23 24
f 14 24 25
f 15 26 27
f 15 27 28
f 16 20 17
f 18 20 29
f 18 29 19
f 19 29 21
f 20 30 31
f 20 31 29
f 21 32 22
f 21 29 33
f 21 33 32
f 22 32 33
f 22 33 34
f 22 34 35
f 22 35 24
f 22 24 23
f 24 35 36
f 24 36 37
f 24 37 25
f 25 37 38
f 26 39 52
f 26 52 55
f 26 55 45
f 26 45 31
f 26 31 44
f 26 44 40
f 26 40 27
f 27 40 28
f 28 40 41
f 29 31 42
f 29 42 43
f 29 43 33
f 30 41 44
f 30 44 31
f 31 45 42
f 33 43 46
f 33 46 47
f 33 47 34
f 34 47 35
f 35 47 46
f 35 46 48
f 35 48 36
f 36 48 37
f 37 48 49
f 37 49 50
f 37 50 38
f 39 51 52
f 40 44 41
f 42 45 53
f 42 53 43
f 43 53 54
f 43 54 46
f 45 55 53
f 46 49 48
f 46 54 56
f 46 56 57
f 46 57 50
f 46 50 49
f 51 58 59
f 51 59 60
f 51 60 52
f 52 60 55
f 53 55 61
f 53 61 54
f 54 61 62
f 54 62 63
f 54 63 64
f 54 64 56
f 55 60 61
f 56 64 57
f 57 64 58
f 58 63 59
f 58 64 63
f 59 63 62
f 59 62 61
f 59 61 60

