# https://github.com/mikedh/trimesh
v 0.02176246 -0.00675884 0.00017373
v 0.02168619 -0.01240354 -0.00093880
v 0.02005594 -0.00696052 -0.00121895
v 0.01448087 -0.00675884 -0.00121895
v 0.01999963 -0.00675884 0.00667318
v 0.02078517 -0.00687266 0.00632256
v 0.02157998 -0.00698649 0.00592465
v 0.02164199 -0.00828273 0.00589253
v 0.02164199 -0.00884300 0.00589164
v 0.02163772 -0.01043762 0.00588539
v 0.02163201 -0.01240354 0.00587647
v 0.02082366 -0.01240354 -0.00087814
v 0.01458779 -0.00871371 -0.00121895
v 0.01522934 -0.00878499 -0.00121895
v 0.01607405 -0.00876454 -0.00121895
v 0.01683179 -0.00864685 -0.00121895
v 0.01767222 -0.00844905 -0.00121895
v 0.01896459 -0.00785231 -0.00121895
v 0.01951775 -0.00745780 -0.00121895
v 0.01448087 -0.01240354 0.00092137
v 0.01458352 -0.00698649 0.00788474
v 0.01839432 -0.00675884 0.00724506
v 0.02003598 -0.00774843 0.00665801
v 0.02044871 -0.00881703 0.00647868
v 0.01892824 -0.00675884 0.00707555
v 0.01947427 -0.00698649 0.00688462
v 0.02091205 -0.00774843 0.00626367
v 0.02151582 -0.00988453 0.00595231
v 0.02116154 -0.01240354 0.00611646
v 0.01462557 -0.01240354 0.00789545
v 0.01469472 -0.00774843 0.00789010
v 0.01522934 -0.00774843 0.00787582
v 0.01548596 -0.00698649 0.00785262
v 0.01750827 -0.00687266 0.00749665
v 0.01761591 -0.00774843 0.00747524
v 0.01790033 -0.00881703 0.00740208
v 0.01843353 -0.00828273 0.00724327
v 0.02003598 -0.00828273 0.00665712
v 0.02044372 -0.00988453 0.00647690
v 0.02070604 -0.01095313 0.00634932
v 0.01896744 -0.00828273 0.00706395
v 0.01918771 -0.00774843 0.00698722
v 0.01933099 -0.01240354 0.00692298
v 0.02091134 -0.00828273 0.00626189
v 0.02061480 -0.01240354 0.00638501
v 0.01553444 -0.01240354 0.00785173
v 0.01576325 -0.00774843 0.00783924
v 0.01627792 -0.00698649 0.00776787
v 0.01734860 -0.00774843 0.00754750
v 0.01681183 -0.00698649 0.00766795
v 0.01769361 -0.00828273 0.00745650
v 0.01773709 -0.01234939 0.00744847
v 0.01843353 -0.00881703 0.00724327
v 0.02003598 -0.01041883 0.00664820
v 0.02003598 -0.01240354 0.00663928
v 0.01851052 -0.01240354 0.00720402
v 0.01576325 -0.01148743 0.00783657
v 0.01629788 -0.01240354 0.00776341
v 0.01629788 -0.00828273 0.00777055
v 0.01629788 -0.00774843 0.00777055
v 0.01691448 -0.01240354 0.00765456
v 0.01683179 -0.00774843 0.00766795
v 0.01683179 -0.00828273 0.00766884
v 0.01629788 -0.01148743 0.00776787
f 1 2 3
f 1 3 4
f 1 4 22
f 1 22 25
f 1 25 5
f 1 5 6
f 1 6 7
f 1 7 8
f 1 8 9
f 1 9 10
f 1 10 11
f 1 11 2
f 2 11 29
f 2 29 45
f 2 45 55
f 2 55 43
f 2 43 56
f 2 56 61
f 2 61 58
f 2 58 46
f 2 46 30
f 2 30 20
f 2 20 12
f 2 12 13
f 2 13 14
f 2 14 15
f 2 15 16
f 2 16 17
f 2 17 18
f 2 18 19
f 2 19 3
f 3 19 18
f 3 18 17
f 3 17 16
f 3 16 15
f 3 15 14
f 3 14 13
f 3 13 4
f 4 13 20
f 4 20 21
f 4 21 22
f 5 23 24
f 5 24 6
f 5 25 26
f 5 26 23
f 6 27 7
f 6 24 27
f 7 27 8
f 8 27 9
f 9 27 28
f 9 28 10
f 10 28 11
f 11 28 29
f 12 20 13
f 20 30 21
f 21 30 31
f 21 31 32
f 21 32 33
f 21 33 22
f 22 34 35
f 22 35 36
f 22 36 37
f 22 37 25
f 22 33 34
f 23 26 38
f 23 38 24
f 24 38 39
f 24 39 40
f 24 40 27
f 25 37 41
f 25 41 42
f 25 42 26
f 26 42 43
f 26 43 38
f 27 44 28
f 27 40 44
f 28 44 29
f 29 44 40
f 29 40 45
f 30 46 32
f 30 32 31
f 32 46 47
f 32 47 33
f 33 47 48
f 33 48 34
f 34 49 35
f 34 48 50
f 34 50 49
f 35 49 51
f 35 51 36
f 36 51 52
f 36 52 53
f 36 53 37
f 37 53 41
f 38 54 39
f 38 43 54
f 39 45 40
f 39 54 55
f 39 55 45
f 41 43 42
f 41 53 56
f 41 56 43
f 43 55 54
f 46 57 47
f 46 58 57
f 47 57 59
f 47 59 60
f 47 60 48
f 48 60 50
f 49 61 52
f 49 52 51
f 49 50 62
f 49 62 63
f 49 63 61
f 50 60 62
f 52 61 56
f 52 56 53
f 57 58 64
f 57 64 59
f 58 61 64
f 59 64 61
f 59 61 60
f 60 61 63
f 60 63 62

