# https://github.com/mikedh/trimesh
v -0.00211221 0.00918233 0.00789032
v -0.00211221 0.00918233 0.00122933
v -0.00211221 0.01244403 0.00785926
v -0.00336473 0.00926662 0.01148625
v -0.00360331 0.00926662 0.01188156
v -0.00400864 0.00926662 0.01205239
v -0.01246104 0.00918233 0.01181661
v -0.00290340 0.00918233 0.00065895
v -0.00211221 0.01095319 0.00134933
v -0.00211221 0.01244403 0.00189006
v -0.00590143 0.01244403 0.01148766
v -0.00583935 0.01231695 0.01177708
v -0.00493982 0.01163140 0.01160625
v -0.00423383 0.01074245 0.01178555
v -0.00375424 0.01013801 0.01173331
v -0.00366904 0.00978166 0.01182650
v -0.00396239 0.00993014 0.01193097
v -0.00988418 0.01202191 0.01206792
v -0.01148605 0.00988544 0.01205803
v -0.01205327 0.00926662 0.01201144
v -0.00454300 0.01041964 0.01194650
v -0.00614609 0.01202191 0.01192532
v -0.00668045 0.01202191 0.01198885
v -0.01241844 0.00935124 0.01188014
v -0.01454736 0.01244403 0.00783385
v -0.01454736 0.00918233 0.00784091
v -0.00315293 0.00918233 0.00050082
v -0.00774917 0.01244403 -0.00235530
v -0.00211221 0.01152922 0.00146087
v -0.00211221 0.01221030 0.00175453
v -0.00614609 0.01241019 0.01175732
v -0.00660985 0.01244403 0.01185473
v -0.00564094 0.01199285 0.01181661
v -0.00476089 0.01127537 0.01177990
v -0.00529525 0.01179520 0.01177708
v -0.00412063 0.01041964 0.01184344
v -0.01041732 0.01148771 0.01204956
v -0.00723063 0.01244403 0.01188579
v -0.00941920 0.01244403 0.01192956
v -0.00988783 0.01244403 0.01189144
v -0.01044532 0.01205097 0.01191826
v -0.01099794 0.01153082 0.01189426
v -0.01148605 0.01041964 0.01199733
v -0.01206423 0.00992663 0.01193521
v -0.01236732 0.00977623 0.01183497
v -0.01454736 0.01244212 0.00074931
v -0.01227115 0.01013226 0.01170931
v -0.01120609 0.01173773 0.01172484
v -0.01023231 0.01240635 0.01178696
v -0.01454736 0.00918233 -0.00117784
v -0.00338786 0.00918233 0.00036247
v -0.00395752 0.00918233 0.00008292
v -0.00422044 0.00918233 -0.00002296
v -0.00446388 0.00918233 -0.00009920
v -0.00499338 0.00918233 -0.00022485
v -0.00544375 0.00918233 -0.00029968
v -0.00597811 0.00918233 -0.00037733
v -0.00651125 0.00918233 -0.00045357
v -0.00696284 0.00918233 -0.00051004
v -0.01418341 0.00918233 -0.00116372
v -0.01084944 0.01189227 0.01183214
v -0.01131685 0.01138138 0.01181379
v -0.01189747 0.01041964 0.01186038
f 1 2 9
f 1 9 29
f 1 29 30
f 1 30 10
f 1 10 3
f 1 3 4
f 1 4 5
f 1 5 6
f 1 6 7
f 1 7 26
f 1 26 50
f 1 50 60
f 1 60 59
f 1 59 58
f 1 58 57
f 1 57 56
f 1 56 55
f 1 55 54
f 1 54 53
f 1 53 52
f 1 52 51
f 1 51 27
f 1 27 8
f 1 8 2
f 2 8 9
f 3 10 28
f 3 28 25
f 3 25 40
f 3 40 39
f 3 39 38
f 3 38 32
f 3 32 11
f 3 11 12
f 3 12 13
f 3 13 14
f 3 14 15
f 3 15 16
f 3 16 4
f 4 16 5
f 5 16 17
f 5 17 6
f 6 18 19
f 6 19 20
f 6 20 7
f 6 17 21
f 6 21 22
f 6 22 23
f 6 23 18
f 7 20 24
f 7 24 25
f 7 25 26
f 8 27 28
f 8 28 9
f 9 28 29
f 10 30 28
f 11 31 12
f 11 32 31
f 12 31 32
f 12 32 22
f 12 22 33
f 12 33 34
f 12 34 35
f 12 35 13
f 13 35 34
f 13 34 14
f 14 34 36
f 14 36 16
f 14 16 15
f 16 36 17
f 17 36 33
f 17 33 21
f 18 37 19
f 18 23 38
f 18 38 39
f 18 39 40
f 18 40 41
f 18 41 42
f 18 42 37
f 19 37 43
f 19 43 44
f 19 44 20
f 20 44 24
f 21 33 22
f 22 32 23
f 23 32 38
f 24 44 45
f 24 45 25
f 25 28 46
f 25 46 50
f 25 50 26
f 25 45 47
f 25 47 48
f 25 48 49
f 25 49 40
f 27 51 28
f 28 51 52
f 28 52 53
f 28 53 54
f 28 54 55
f 28 55 56
f 28 56 57
f 28 57 58
f 28 58 59
f 28 59 60
f 28 60 50
f 28 50 46
f 28 30 29
f 33 36 34
f 37 42 43
f 40 49 41
f 41 49 61
f 41 61 42
f 42 44 43
f 42 61 62
f 42 62 44
f 44 62 63
f 44 63 45
f 45 63 48
f 45 48 47
f 48 63 62
f 48 62 61
f 48 61 49

