# https://github.com/mikedh/trimesh
v -0.00127168 -0.00813124 -0.00186244
v -0.00400966 -0.00655384 -0.00186244
v -0.00004087 -0.00813124 -0.00186244
v -0.00735553 -0.00813124 -0.00033994
v -0.00448723 -0.00615140 -0.00186244
v -0.00004087 -0.00479573 -0.00186244
v -0.00004087 -0.00813124 0.00787311
v -0.00735553 -0.00121007 -0.00186244
v -0.00644334 -0.00326883 -0.00186244
v -0.00644191 -0.00327198 -0.00186244
v -0.00630444 -0.00353554 -0.00186244
v -0.00616554 -0.00377937 -0.00186244
v -0.00600014 -0.00406818 -0.00186244
v -0.00525980 -0.00523289 -0.00186244
v -0.00517602 -0.00534021 -0.00186244
v -0.00497053 -0.00560219 -0.00186244
v -0.00451945 -0.00612141 -0.00186244
v -0.00735553 -0.00813124 0.00763349
v -0.00475072 -0.00007299 -0.00186244
v -0.00004087 -0.00006983 -0.00011117
v -0.00004087 -0.00805549 0.00787311
v -0.00263709 -0.00774695 0.00821133
v -0.00264926 -0.00790950 0.00821133
v -0.00265499 -0.00798210 0.00821133
v -0.00267360 -0.00813124 0.00821133
v -0.00735553 -0.00006983 -0.00186244
v -0.00568438 -0.00813124 0.00821133
v -0.00735553 -0.00570714 0.00821133
v -0.00479296 -0.00006983 -0.00186244
v -0.00004087 -0.00006983 0.00737711
v -0.00004087 -0.00774695 0.00787114
v -0.00270940 -0.00721273 0.00821133
v -0.00004087 -0.00752127 0.00786916
v -0.00004087 -0.00507586 0.00784747
v -0.00004087 -0.00454164 0.00784155
v -0.00735553 -0.00006983 0.00784254
v -0.00735553 -0.00250261 0.00821133
v -0.00347338 -0.00006983 0.00776464
v -0.00004087 -0.00347320 0.00776563
v -0.00283542 -0.00667772 0.00821133
v -0.00344617 -0.00506481 0.00821133
v -0.00004087 -0.00431517 0.00783268
v -0.00667891 -0.00006983 0.00783958
v -0.00722164 -0.00252392 0.00821133
v -0.00454165 -0.00006983 0.00782676
v -0.00004087 -0.00378174 0.00779915
v -0.00400680 -0.00006983 0.00780704
v -0.00448866 -0.00377700 0.00821133
v -0.00429248 -0.00395376 0.00821133
v -0.00350703 -0.00490857 0.00821133
v -0.00004087 -0.00400821 0.00781887
v -0.00721304 -0.00252550 0.00821133
v -0.00378126 -0.00448325 0.00821133
v -0.00667676 -0.00272435 0.00821133
v -0.00597007 -0.00298712 0.00821133
v -0.00506791 -0.00335642 0.00821133
v -0.00364164 -0.00469867 0.00821133
f 1 2 5
f 1 5 17
f 1 17 16
f 1 16 15
f 1 15 14
f 1 14 13
f 1 13 12
f 1 12 11
f 1 11 10
f 1 10 9
f 1 9 8
f 1 8 26
f 1 26 29
f 1 29 19
f 1 19 6
f 1 6 3
f 1 3 7
f 1 7 25
f 1 25 27
f 1 27 18
f 1 18 4
f 1 4 2
f 2 4 5
f 3 6 20
f 3 20 30
f 3 30 39
f 3 39 46
f 3 46 51
f 3 51 42
f 3 42 35
f 3 35 34
f 3 34 33
f 3 33 31
f 3 31 21
f 3 21 7
f 4 8 9
f 4 9 10
f 4 10 11
f 4 11 12
f 4 12 13
f 4 13 14
f 4 14 15
f 4 15 16
f 4 16 17
f 4 17 5
f 4 18 28
f 4 28 37
f 4 37 36
f 4 36 26
f 4 26 8
f 6 19 20
f 7 21 22
f 7 22 23
f 7 23 24
f 7 24 25
f 18 27 28
f 19 29 20
f 20 29 26
f 20 26 36
f 20 36 43
f 20 43 45
f 20 45 47
f 20 47 38
f 20 38 30
f 21 31 22
f 22 32 40
f 22 40 41
f 22 41 50
f 22 50 57
f 22 57 53
f 22 53 49
f 22 49 48
f 22 48 56
f 22 56 55
f 22 55 54
f 22 54 52
f 22 52 44
f 22 44 37
f 22 37 28
f 22 28 27
f 22 27 25
f 22 25 24
f 22 24 23
f 22 31 33
f 22 33 34
f 22 34 35
f 22 35 32
f 30 38 39
f 32 35 40
f 35 41 40
f 35 42 41
f 36 37 43
f 37 44 45
f 37 45 43
f 38 46 39
f 38 47 48
f 38 48 49
f 38 49 46
f 41 42 50
f 42 51 50
f 44 52 45
f 45 52 47
f 46 49 53
f 46 53 51
f 47 52 54
f 47 54 55
f 47 55 56
f 47 56 48
f 50 51 57
f 51 53 57

