# https://github.com/mikedh/trimesh
v -0.01450064 -0.00774765 0.00786520
v -0.01522892 -0.00774765 0.00784758
v -0.01461158 -0.01209998 0.00785727
v -0.01450064 -0.01209998 0.00064212
v -0.01450064 -0.00721303 0.00786344
v -0.01522892 -0.00721303 0.00784758
v -0.01580177 -0.01209998 0.00780527
v -0.01526792 -0.01209998 0.00783700
v -0.01576332 -0.00667723 0.00780968
v -0.02011104 -0.01209998 0.00018379
v -0.01456820 -0.00867205 -0.00113920
v -0.01450064 -0.00465179 -0.00113920
v -0.01450064 -0.00006983 0.00064476
v -0.01459785 -0.00006983 0.00783436
v -0.01522892 -0.00006983 0.00782113
v -0.01571389 -0.00016875 0.00779822
v -0.01629773 -0.01041722 0.00775327
v -0.01629773 -0.01209998 0.00775239
v -0.01629773 -0.00080228 0.00774005
v -0.01629773 -0.00881571 0.00775239
v -0.01859681 -0.00783950 -0.00113920
v -0.01789929 -0.00820573 -0.00113920
v -0.01737477 -0.00840238 -0.00113920
v -0.01698811 -0.00849070 -0.00113920
v -0.01629773 -0.00863555 -0.00113920
v -0.01570675 -0.00871680 -0.00113920
v -0.01517674 -0.00871680 -0.00113920
v -0.02007369 -0.01209998 0.00666738
v -0.02011104 -0.00006983 0.00056720
v -0.02011104 -0.00279239 -0.00113920
v -0.02008962 -0.00669725 -0.00113920
v -0.01951622 -0.00719890 -0.00113920
v -0.01891207 -0.00765815 -0.00113920
v -0.01683158 -0.00006983 0.00764397
v -0.01629773 -0.00016875 0.00773740
v -0.01687057 -0.01207997 0.00766336
v -0.01683158 -0.00881571 0.00766777
v -0.01766861 -0.01209998 0.00747915
v -0.01960904 -0.01209998 0.00685600
v -0.02007369 -0.00774765 0.00665857
v -0.01994737 -0.00012282 0.00666297
v -0.01934102 -0.00006983 0.00690271
v -0.02007369 -0.00352132 0.00663917
v -0.01741541 -0.00006983 0.00750647
v -0.01762302 -0.00507690 0.00747827
v -0.01762797 -0.00561270 0.00747915
v -0.01737587 -0.01206112 0.00755760
v -0.01765543 -0.01041722 0.00748708
v -0.01843369 -0.01209998 0.00725087
v -0.01896809 -0.01209998 0.00708693
v -0.01931795 -0.01206112 0.00696970
v -0.01955247 -0.00881571 0.00686570
v -0.01886483 -0.00006983 0.00707018
v -0.01952336 -0.00347421 0.00685159
v -0.01925589 -0.00347421 0.00695295
v -0.01896809 -0.00347421 0.00705696
v -0.01783942 -0.00006983 0.00738748
v -0.01843369 -0.00721303 0.00724646
v -0.01833483 -0.00006983 0.00724117
v -0.01843369 -0.00347421 0.00722883
v -0.01843369 -0.00774765 0.00724822
v -0.01843369 -0.00827992 0.00724910
f 1 2 3
f 1 3 4
f 1 4 12
f 1 12 13
f 1 13 5
f 1 5 6
f 1 6 2
f 2 7 8
f 2 8 3
f 2 6 9
f 2 9 7
f 3 8 7
f 3 7 18
f 3 18 38
f 3 38 49
f 3 49 50
f 3 50 39
f 3 39 28
f 3 28 10
f 3 10 4
f 4 10 11
f 4 11 12
f 5 13 14
f 5 14 15
f 5 15 6
f 6 15 16
f 6 16 9
f 7 17 18
f 7 9 17
f 9 16 19
f 9 19 20
f 9 20 17
f 10 21 22
f 10 22 23
f 10 23 24
f 10 24 25
f 10 25 26
f 10 26 27
f 10 27 11
f 10 28 29
f 10 29 30
f 10 30 31
f 10 31 32
f 10 32 33
f 10 33 21
f 11 27 26
f 11 26 25
f 11 25 24
f 11 24 23
f 11 23 22
f 11 22 21
f 11 21 33
f 11 33 32
f 11 32 31
f 11 31 30
f 11 30 12
f 12 30 13
f 13 30 29
f 13 29 42
f 13 42 53
f 13 53 59
f 13 59 57
f 13 57 44
f 13 44 34
f 13 34 15
f 13 15 14
f 15 34 35
f 15 35 16
f 16 35 19
f 17 36 18
f 17 20 37
f 17 37 36
f 18 36 38
f 19 35 34
f 19 34 37
f 19 37 20
f 28 39 40
f 28 40 29
f 29 41 42
f 29 40 43
f 29 43 41
f 34 44 45
f 34 45 46
f 34 46 47
f 34 47 37
f 36 47 38
f 36 37 47
f 38 47 48
f 38 48 49
f 39 50 51
f 39 51 40
f 40 51 52
f 40 52 43
f 41 43 42
f 42 43 54
f 42 54 55
f 42 55 56
f 42 56 53
f 43 52 54
f 44 57 45
f 45 58 46
f 45 57 59
f 45 59 60
f 45 60 58
f 46 58 48
f 46 48 47
f 48 61 62
f 48 62 49
f 48 58 61
f 49 62 50
f 50 62 61
f 50 61 58
f 50 58 56
f 50 56 51
f 51 56 55
f 51 55 52
f 52 55 54
f 53 56 59
f 56 58 60
f 56 60 59

