# https://github.com/mikedh/trimesh
v -0.01454666 0.00472516 -0.00824555
v -0.01454666 0.00473321 -0.00454327
v -0.01454666 0.00478475 -0.00904273
v -0.01114740 -0.00006761 -0.00849909
v -0.01121555 -0.00006761 -0.00199490
v -0.01454666 0.00483306 -0.00199490
v -0.01454666 0.00508913 -0.00972939
v -0.01099689 -0.00006761 -0.00934990
v -0.00476207 -0.00530969 -0.00881519
v -0.00401236 -0.00655137 -0.00186244
v -0.00450507 -0.00613426 -0.00186244
v -0.00511563 -0.00541598 -0.00186244
v -0.01433509 0.00832135 -0.00199490
v -0.00600165 -0.00406641 -0.00186244
v -0.00634101 -0.00346409 -0.00186244
v -0.00735340 -0.00120782 -0.00186244
v -0.00735340 -0.00006922 -0.00186244
v -0.01063339 -0.00006761 -0.00980902
v -0.01435071 0.00670282 -0.00957255
v -0.01435071 0.00583800 -0.01003168
v -0.00491400 -0.00491674 -0.00971476
v -0.00452352 -0.00530325 -0.00954736
v -0.00354379 -0.00590879 -0.00962618
v -0.00103197 -0.00813124 -0.00654068
v -0.00110296 -0.00813124 -0.00599460
v -0.00127193 -0.00813124 -0.00186244
v -0.01369897 0.00815225 -0.00199490
v -0.01362372 0.00660780 -0.00934990
v -0.00477343 -0.00006922 -0.00186488
v -0.00004087 -0.00479434 -0.00186244
v -0.00998307 -0.00006761 -0.01005281
v -0.00400810 -0.00529198 -0.00989028
v -0.01362372 0.00631309 -0.00981227
v -0.01362372 0.00560931 -0.01006337
v -0.00294033 -0.00606178 -0.00979358
v -0.00245472 -0.00629852 -0.00978708
v -0.00075225 -0.00813124 -0.00704531
v -0.00004087 -0.00813124 -0.00186244
v -0.01308983 0.00789618 -0.00199490
v -0.01222511 0.00583639 -0.00942303
v -0.01290524 0.00611500 -0.00964162
v -0.00004087 -0.00489902 -0.00828130
v -0.01205756 0.00717469 -0.00199490
v -0.01254601 0.00758053 -0.00199490
v -0.00215938 -0.00568010 -0.01016414
v -0.01252471 0.00564635 -0.00983096
v -0.01255453 0.00507302 -0.01004631
v -0.00614506 -0.00006922 -0.01008125
v -0.00187255 -0.00653687 -0.00979683
v -0.00080336 -0.00690084 -0.00948398
v -0.00017150 -0.00813124 -0.00725984
v -0.00004087 -0.00642414 -0.00999755
v -0.01190137 0.00577197 -0.00881519
v -0.01140866 0.00539995 -0.00881519
v -0.01151231 0.00518898 -0.00959449
v -0.01202064 0.00527433 -0.00985534
v -0.00004087 -0.00495539 -0.00892815
v -0.00494240 -0.00006922 -0.00864698
v -0.00012607 -0.00581699 -0.01007150
v -0.00561259 -0.00006922 -0.00994148
v -0.00107031 -0.00660934 -0.00982690
v -0.00025102 -0.00688151 -0.00964731
v -0.00004087 -0.00518247 -0.00957418
v -0.00518236 -0.00006922 -0.00952542
f 1 2 6
f 1 6 7
f 1 7 3
f 1 3 4
f 1 4 5
f 1 5 2
f 2 5 6
f 3 7 8
f 3 8 4
f 4 8 9
f 4 9 10
f 4 10 11
f 4 11 5
f 5 11 12
f 5 12 6
f 6 13 7
f 6 12 14
f 6 14 15
f 6 15 16
f 6 16 17
f 6 17 13
f 7 18 8
f 7 13 19
f 7 19 20
f 7 20 18
f 8 18 21
f 8 21 22
f 8 22 9
f 9 22 23
f 9 23 24
f 9 24 10
f 10 24 25
f 10 25 26
f 10 26 38
f 10 38 30
f 10 30 17
f 10 17 16
f 10 16 15
f 10 15 14
f 10 14 12
f 10 12 11
f 13 27 28
f 13 28 19
f 13 17 29
f 13 29 27
f 17 30 29
f 18 20 31
f 18 31 32
f 18 32 21
f 19 28 33
f 19 33 20
f 20 33 34
f 20 34 31
f 21 32 23
f 21 23 22
f 23 35 36
f 23 36 37
f 23 37 24
f 23 32 35
f 24 37 51
f 24 51 38
f 24 38 26
f 24 26 25
f 27 29 39
f 27 39 28
f 28 39 40
f 28 40 41
f 28 41 33
f 29 30 42
f 29 42 43
f 29 43 44
f 29 44 39
f 30 38 52
f 30 52 63
f 30 63 57
f 30 57 42
f 31 34 45
f 31 45 32
f 32 45 35
f 33 41 46
f 33 46 47
f 33 47 34
f 34 47 48
f 34 48 45
f 35 45 36
f 36 45 49
f 36 49 37
f 37 49 50
f 37 50 51
f 38 51 52
f 39 44 40
f 40 44 53
f 40 53 54
f 40 54 55
f 40 55 41
f 41 55 56
f 41 56 46
f 42 57 58
f 42 58 43
f 43 58 54
f 43 54 44
f 44 54 53
f 45 48 59
f 45 59 52
f 45 52 49
f 46 56 47
f 47 56 48
f 48 56 60
f 48 60 59
f 49 52 61
f 49 61 62
f 49 62 50
f 50 62 51
f 51 62 52
f 52 62 61
f 52 59 63
f 54 58 64
f 54 64 55
f 55 64 60
f 55 60 56
f 57 63 64
f 57 64 58
f 59 60 63
f 60 64 63

