# https://github.com/mikedh/trimesh
v 0.02332930 -0.00014916 -0.00163869
v 0.02093598 -0.00006983 -0.00122070
v 0.02326866 -0.00106955 -0.00127841
v 0.02331631 -0.00080171 -0.00187043
v 0.02307983 -0.00016963 -0.00885660
v 0.02144617 -0.00006983 -0.00988410
v 0.01448102 -0.00483556 -0.00122070
v 0.02280525 -0.00305620 -0.00122070
v 0.02090913 -0.00006983 -0.00828119
v 0.01448102 -0.00465643 -0.00689515
v 0.01448102 -0.00466326 -0.00523103
v 0.01448102 -0.00469908 -0.00370070
v 0.02320543 -0.00160353 -0.00213802
v 0.02305644 -0.00216225 -0.00127142
v 0.02298455 -0.00089810 -0.00903499
v 0.02281131 -0.00016963 -0.00964275
v 0.02205511 -0.00016963 -0.01012109
v 0.01454079 -0.00577813 -0.01007649
v 0.01448102 -0.00490210 -0.00952032
v 0.02099141 -0.00006983 -0.00903324
v 0.01459969 -0.00871417 -0.00122070
v 0.02243624 -0.00395697 -0.00122070
v 0.02297069 -0.00267576 -0.00183108
v 0.01448102 -0.00468202 -0.00850506
v 0.02300187 -0.00258107 -0.00247994
v 0.02251940 -0.00200188 -0.00955705
v 0.02270996 -0.00213836 -0.00881550
v 0.02235395 -0.00107467 -0.00994357
v 0.02138207 -0.00215287 -0.01015344
v 0.01688474 -0.00601015 -0.01014732
v 0.02159169 -0.00236015 -0.01009398
v 0.01522856 -0.00614407 -0.01009835
v 0.01489160 -0.00680600 -0.00963925
v 0.01522856 -0.00878412 -0.00122070
v 0.02182903 -0.00496949 -0.00122070
v 0.02194857 -0.00371898 -0.00907347
v 0.02257917 -0.00358421 -0.00216076
v 0.02241112 -0.00287024 -0.00904199
v 0.02175194 -0.00326433 -0.00985525
v 0.02110489 -0.00347417 -0.01008698
v 0.01757164 -0.00602209 -0.01011759
v 0.01712554 -0.00676591 -0.00977917
v 0.01603066 -0.00686230 -0.00972845
v 0.01607397 -0.00876280 -0.00122070
v 0.02109016 -0.00589926 -0.00122070
v 0.02140113 -0.00458990 -0.00908309
v 0.02119670 -0.00431182 -0.00982726
v 0.02057044 -0.00454042 -0.01002052
v 0.01976920 -0.00507526 -0.01004238
v 0.01896796 -0.00560924 -0.01004326
v 0.01790080 -0.00657740 -0.00977917
v 0.01773882 -0.00686742 -0.00928072
v 0.01683277 -0.00864508 -0.00122070
v 0.02056178 -0.00646310 -0.00122070
v 0.02087188 -0.00524415 -0.00881550
v 0.02076447 -0.00513326 -0.00953781
v 0.01962628 -0.00596324 -0.00953344
v 0.01863880 -0.00623279 -0.00976343
v 0.01922436 -0.00640509 -0.00881550
v 0.01767298 -0.00844804 -0.00122070
v 0.02002300 -0.00699196 -0.00122070
v 0.01951713 -0.00745685 -0.00122070
v 0.02021963 -0.00581823 -0.00881550
v 0.01896536 -0.00785093 -0.00122070
f 1 2 3
f 1 3 4
f 1 4 5
f 1 5 6
f 1 6 2
f 2 7 21
f 2 21 34
f 2 34 44
f 2 44 53
f 2 53 60
f 2 60 64
f 2 64 62
f 2 62 61
f 2 61 54
f 2 54 45
f 2 45 35
f 2 35 22
f 2 22 8
f 2 8 3
f 2 6 20
f 2 20 9
f 2 9 10
f 2 10 11
f 2 11 12
f 2 12 7
f 3 13 4
f 3 8 14
f 3 14 13
f 4 13 15
f 4 15 5
f 5 15 16
f 5 16 6
f 6 17 18
f 6 18 19
f 6 19 20
f 6 16 17
f 7 12 11
f 7 11 10
f 7 10 24
f 7 24 19
f 7 19 21
f 8 22 23
f 8 23 14
f 9 24 10
f 9 20 24
f 13 14 23
f 13 23 25
f 13 25 15
f 15 26 16
f 15 25 27
f 15 27 26
f 16 26 28
f 16 28 17
f 17 29 30
f 17 30 18
f 17 28 31
f 17 31 29
f 18 30 32
f 18 32 33
f 18 33 21
f 18 21 19
f 19 24 20
f 21 33 34
f 22 35 36
f 22 36 37
f 22 37 25
f 22 25 23
f 25 37 38
f 25 38 27
f 26 27 38
f 26 38 39
f 26 39 28
f 28 39 31
f 29 31 40
f 29 40 41
f 29 41 30
f 30 41 42
f 30 42 32
f 31 39 40
f 32 42 43
f 32 43 33
f 33 43 34
f 34 43 44
f 35 45 46
f 35 46 36
f 36 38 37
f 36 46 47
f 36 47 39
f 36 39 38
f 39 47 40
f 40 47 48
f 40 48 49
f 40 49 41
f 41 49 50
f 41 50 51
f 41 51 42
f 42 51 52
f 42 52 43
f 43 52 44
f 44 52 53
f 45 54 55
f 45 55 46
f 46 56 47
f 46 55 56
f 47 56 48
f 48 56 57
f 48 57 49
f 49 57 50
f 50 57 58
f 50 58 51
f 51 58 57
f 51 57 52
f 52 57 59
f 52 59 60
f 52 60 53
f 54 61 55
f 55 61 62
f 55 62 63
f 55 63 56
f 56 63 57
f 57 63 59
f 59 63 64
f 59 64 60
f 62 64 63

