# https://github.com/mikedh/trimesh
v 0.01494934 0.00877565 -0.00135480
v 0.01590122 0.00876872 -0.00135480
v 0.01603021 0.00691166 -0.00934955
v 0.01426167 0.00871937 -0.00135480
v 0.01660312 0.00871418 -0.00135480
v 0.01709952 0.00674284 -0.00946953
v 0.01608448 0.00655324 -0.00998312
v 0.01522957 0.00675842 -0.00959900
v 0.01423499 0.00490829 -0.00980789
v 0.01423499 0.00449619 -0.00135480
v 0.01446539 0.00663376 -0.00955930
v 0.01435864 0.00584072 -0.01008238
v 0.01736640 0.00860682 -0.00135480
v 0.01833252 0.00633074 -0.00962835
v 0.01736640 0.00637576 -0.00991234
v 0.01736107 0.00576020 -0.01017302
v 0.01423499 0.00448840 -0.00906470
v 0.02193810 0.00001588 -0.01009360
v 0.02114635 -0.00006896 -0.00946348
v 0.01423499 0.00440789 -0.00397713
v 0.02093729 -0.00006896 -0.00135480
v 0.01817239 0.00827870 -0.00135480
v 0.02012419 0.00536368 -0.00960936
v 0.01926838 0.00580955 -0.00968101
v 0.01950146 0.00507539 -0.01004872
v 0.01809766 0.00558965 -0.01014971
v 0.02203417 0.00071801 -0.01012209
v 0.01423499 0.00440875 -0.00773713
v 0.02091861 -0.00006896 -0.00849932
v 0.02280635 0.00009986 -0.00964303
v 0.02307501 0.00009986 -0.00885753
v 0.02332321 0.00010246 -0.00163533
v 0.01423499 0.00439490 -0.00481010
v 0.02270583 0.00293956 -0.00135480
v 0.01903798 0.00779474 -0.00135480
v 0.02084210 0.00509357 -0.00881610
v 0.02138476 0.00409621 -0.00961195
v 0.02071489 0.00463385 -0.00980789
v 0.02003612 0.00454121 -0.01005821
v 0.02056988 0.00400877 -0.01006512
v 0.02110453 0.00347460 -0.01005821
v 0.02163919 0.00267204 -0.00999175
v 0.02250656 0.00106951 -0.00984501
v 0.01423499 0.00439750 -0.00693092
v 0.02297182 0.00079593 -0.00903966
v 0.02321646 0.00106951 -0.00240528
v 0.02321646 0.00107211 -0.00161289
v 0.02270227 0.00293956 -0.00187098
v 0.02237756 0.00378107 -0.00135480
v 0.02296470 0.00213873 -0.00163792
v 0.02289531 0.00236469 -0.00240269
v 0.01951747 0.00740948 -0.00135480
v 0.02113834 0.00568834 -0.00135480
v 0.02134829 0.00450918 -0.00881610
v 0.02002010 0.00692552 -0.00135480
v 0.02070421 0.00617663 -0.00135480
v 0.02183223 0.00379320 -0.00881610
v 0.02182601 0.00335512 -0.00961195
v 0.02225569 0.00206774 -0.00973970
v 0.02279212 0.00147036 -0.00908282
v 0.02303676 0.00190844 -0.00240269
v 0.02250389 0.00253525 -0.00853988
v 0.02200748 0.00457151 -0.00135480
v 0.02165520 0.00508837 -0.00135480
f 1 2 3
f 1 3 4
f 1 4 10
f 1 10 21
f 1 21 34
f 1 34 49
f 1 49 63
f 1 63 64
f 1 64 53
f 1 53 56
f 1 56 55
f 1 55 52
f 1 52 35
f 1 35 22
f 1 22 13
f 1 13 5
f 1 5 2
f 2 5 3
f 3 5 6
f 3 6 7
f 3 7 8
f 3 8 4
f 4 9 10
f 4 8 11
f 4 11 12
f 4 12 9
f 5 13 6
f 6 13 14
f 6 14 15
f 6 15 7
f 7 12 11
f 7 11 8
f 7 15 16
f 7 16 12
f 9 17 28
f 9 28 44
f 9 44 33
f 9 33 20
f 9 20 10
f 9 12 18
f 9 18 19
f 9 19 17
f 10 20 21
f 12 16 18
f 13 22 14
f 14 22 23
f 14 23 24
f 14 24 15
f 15 24 25
f 15 25 26
f 15 26 16
f 16 26 27
f 16 27 18
f 17 19 29
f 17 29 28
f 18 27 30
f 18 30 31
f 18 31 19
f 19 31 32
f 19 32 21
f 19 21 29
f 20 33 21
f 21 32 34
f 21 33 29
f 22 35 23
f 23 25 24
f 23 35 36
f 23 36 37
f 23 37 38
f 23 38 25
f 25 38 39
f 25 39 26
f 26 39 40
f 26 40 41
f 26 41 27
f 27 41 42
f 27 42 43
f 27 43 30
f 28 29 44
f 29 33 44
f 30 43 45
f 30 45 31
f 31 45 46
f 31 46 32
f 32 46 47
f 32 47 34
f 34 48 49
f 34 47 50
f 34 50 51
f 34 51 48
f 35 52 36
f 36 53 54
f 36 54 37
f 36 52 55
f 36 55 56
f 36 56 53
f 37 57 58
f 37 58 41
f 37 41 38
f 37 54 57
f 38 41 40
f 38 40 39
f 41 58 42
f 42 58 59
f 42 59 43
f 43 59 60
f 43 60 45
f 45 61 46
f 45 60 61
f 46 61 47
f 47 61 50
f 48 62 49
f 48 51 62
f 49 62 63
f 50 61 51
f 51 61 62
f 53 64 54
f 54 64 63
f 54 63 57
f 57 63 62
f 57 62 58
f 58 62 60
f 58 60 59
f 60 62 61

