# https://github.com/mikedh/trimesh
v 0.01423498 0.00889187 0.00789669
v 0.01275741 0.00828237 0.01159147
v 0.01423498 0.00881674 0.00789669
v 0.01423498 0.01201874 0.00787455
v 0.01233996 0.00988509 0.01181426
v 0.01243322 0.00881674 0.01188345
v 0.01249032 0.00828237 0.01190006
v 0.01275297 0.00812256 0.01159424
v 0.01423498 0.00812256 0.00788839
v 0.01423498 0.00828237 0.00789116
v 0.01423498 0.01201874 0.00092368
v 0.01041449 0.01201874 0.01159977
v 0.01133504 0.01128489 0.01180181
v 0.01169095 0.01117008 0.01159977
v 0.01184131 0.01081384 0.01184055
v 0.01229936 0.01017267 0.01176860
v 0.01202021 0.01037788 0.01189452
v 0.01202212 0.00988509 0.01201215
v 0.01202212 0.00935072 0.01204674
v 0.01202212 0.00881674 0.01207580
v 0.01202212 0.00828237 0.01205643
v 0.01248588 0.00812256 0.01188760
v 0.01423498 0.00812256 -0.00202799
v 0.00988855 0.01201874 -0.00070092
v 0.00998943 0.01201874 0.01190144
v 0.01031552 0.01189935 0.01186131
v 0.01150316 0.01097670 0.01189729
v 0.01148793 0.01041907 0.01208549
v 0.01148793 0.00988509 0.01210901
v 0.00775435 0.01201874 0.01196510
v 0.01202212 0.00812256 0.01203152
v 0.01416393 0.00812256 -0.00201139
v 0.00775435 0.01201874 -0.00115066
v 0.00828219 0.01201874 -0.00123784
v 0.00846935 0.01201874 -0.00120462
v 0.00880179 0.01201874 -0.00110499
v 0.00988855 0.01201874 0.01192220
v 0.00988538 0.01148780 0.01205781
v 0.00775435 0.01148437 0.01184747
v 0.00934739 0.01201874 0.01197894
v 0.01188191 0.00812256 0.01200108
v 0.00775435 0.00812256 -0.00048781
v 0.00935120 0.01201874 0.01197894
v 0.01154567 0.00812256 0.01189867
v 0.00775435 0.01127116 0.01170771
v 0.00775435 0.00812256 -0.00035635
v 0.01146573 0.00812256 0.01183640
v 0.01127794 0.00812256 0.01166619
v 0.00775435 0.00812408 0.00764899
v 0.00812232 0.00812256 0.00765314
f 1 2 3
f 1 3 10
f 1 10 9
f 1 9 23
f 1 23 11
f 1 11 4
f 1 4 2
f 2 5 6
f 2 6 7
f 2 7 8
f 2 8 9
f 2 9 10
f 2 10 3
f 2 4 5
f 4 11 24
f 4 24 36
f 4 36 35
f 4 35 34
f 4 34 33
f 4 33 30
f 4 30 40
f 4 40 43
f 4 43 37
f 4 37 25
f 4 25 12
f 4 12 13
f 4 13 14
f 4 14 15
f 4 15 16
f 4 16 5
f 5 16 17
f 5 17 18
f 5 18 6
f 6 18 7
f 7 18 19
f 7 19 20
f 7 20 21
f 7 21 22
f 7 22 8
f 8 22 31
f 8 31 41
f 8 41 44
f 8 44 47
f 8 47 48
f 8 48 50
f 8 50 46
f 8 46 42
f 8 42 32
f 8 32 23
f 8 23 9
f 11 23 24
f 12 25 26
f 12 26 13
f 13 26 27
f 13 27 15
f 13 15 14
f 15 27 28
f 15 28 17
f 15 17 16
f 17 28 18
f 18 28 19
f 19 28 20
f 20 28 29
f 20 29 21
f 21 29 30
f 21 30 31
f 21 31 22
f 23 32 33
f 23 33 34
f 23 34 35
f 23 35 36
f 23 36 24
f 25 37 28
f 25 28 27
f 25 27 26
f 28 38 29
f 28 37 38
f 29 38 30
f 30 39 31
f 30 38 40
f 30 33 42
f 30 42 46
f 30 46 49
f 30 49 45
f 30 45 39
f 31 39 41
f 32 42 33
f 37 43 38
f 38 43 40
f 39 44 41
f 39 45 44
f 44 45 47
f 45 48 47
f 45 49 48
f 46 50 49
f 48 49 50

