# https://github.com/mikedh/trimesh
v 0.02087923 -0.08489266 -0.01618748
v 0.02087923 -0.08488606 -0.01476188
v 0.02087923 -0.08487945 -0.01771543
v 0.02209838 -0.08508830 -0.01639430
v 0.02209838 -0.08510019 -0.01496765
v 0.02209838 -0.08510813 -0.01211856
v 0.02087923 -0.08480807 -0.00927370
v 0.02209838 -0.08508962 -0.01069296
v 0.02087923 -0.08452255 -0.01899330
v 0.02209838 -0.08505129 -0.01781884
v 0.02352462 -0.08528261 -0.01069296
v 0.02352462 -0.08531830 -0.00927370
v 0.02209345 -0.08504468 -0.00927370
v 0.02087923 -0.07181431 -0.00927370
v 0.02209838 -0.08457013 -0.01913997
v 0.02087923 -0.08342013 -0.01988601
v 0.02352462 -0.08444985 -0.01896586
v 0.02352462 -0.08483054 -0.01781884
v 0.02494963 -0.08493629 -0.00927370
v 0.03139544 -0.07263782 -0.00927370
v 0.03069773 -0.07184339 -0.00927475
v 0.03316808 -0.07181431 -0.01124906
v 0.02087923 -0.07181431 -0.01895003
v 0.02209838 -0.08334214 -0.01993138
v 0.02352462 -0.08352720 -0.01967919
v 0.02087923 -0.08193437 -0.02005379
v 0.02527260 -0.08247369 -0.01990500
v 0.02440354 -0.08422117 -0.01871366
v 0.02453420 -0.08430709 -0.01781884
v 0.02599989 -0.08434278 -0.00927370
v 0.03138928 -0.07380634 -0.00927370
v 0.03347255 -0.07181431 -0.01211856
v 0.03106015 -0.07627290 -0.00927370
v 0.03075074 -0.07769653 -0.00927370
v 0.02922342 -0.07181431 -0.01911359
v 0.02087923 -0.07362789 -0.01921173
v 0.02392278 -0.08275920 -0.01997465
v 0.02087923 -0.07923384 -0.01987124
v 0.02494963 -0.08014855 -0.02003374
v 0.02485841 -0.08198857 -0.02001052
v 0.02599126 -0.08295484 -0.01895425
v 0.02578047 -0.08152328 -0.01999364
v 0.02636107 -0.08201368 -0.01936262
v 0.02524671 -0.08382990 -0.01781884
v 0.02620329 -0.08311743 -0.01781884
v 0.02671239 -0.08381668 -0.00927370
v 0.03006166 -0.07948631 -0.00927370
v 0.03286113 -0.07285064 -0.01317061
v 0.03330984 -0.07181431 -0.01361275
v 0.03200317 -0.07181431 -0.01785788
v 0.03103673 -0.07214213 -0.01859654
v 0.02578910 -0.08015120 -0.02001158
v 0.02087923 -0.07790274 -0.01974461
v 0.02087923 -0.07505151 -0.01939850
v 0.02725232 -0.08155633 -0.01882235
v 0.02713521 -0.08211811 -0.01781884
v 0.02751242 -0.08310288 -0.00927370
v 0.02956364 -0.08039177 -0.00927370
v 0.03002344 -0.07855705 -0.01320755
v 0.03144845 -0.07430864 -0.01678684
v 0.03264910 -0.07201920 -0.01639430
v 0.03002221 -0.07714532 -0.01678684
v 0.02822492 -0.08232961 -0.00927370
v 0.02877225 -0.08161713 -0.00927370
f 1 2 7
f 1 7 14
f 1 14 23
f 1 23 36
f 1 36 54
f 1 54 53
f 1 53 38
f 1 38 26
f 1 26 16
f 1 16 9
f 1 9 3
f 1 3 4
f 1 4 5
f 1 5 6
f 1 6 2
f 2 6 8
f 2 8 7
f 3 9 10
f 3 10 4
f 4 10 11
f 4 11 12
f 4 12 5
f 5 12 6
f 6 12 8
f 7 8 13
f 7 13 12
f 7 12 19
f 7 19 30
f 7 30 46
f 7 46 57
f 7 57 63
f 7 63 64
f 7 64 58
f 7 58 47
f 7 47 34
f 7 34 33
f 7 33 31
f 7 31 20
f 7 20 14
f 8 12 13
f 9 15 10
f 9 16 15
f 10 15 17
f 10 17 18
f 10 18 11
f 11 18 19
f 11 19 12
f 14 20 21
f 14 21 22
f 14 22 32
f 14 32 49
f 14 49 50
f 14 50 35
f 14 35 23
f 15 16 24
f 15 24 25
f 15 25 17
f 16 26 24
f 17 25 27
f 17 27 28
f 17 28 18
f 18 28 29
f 18 29 19
f 19 29 30
f 20 31 22
f 20 22 21
f 22 31 33
f 22 33 34
f 22 34 32
f 23 35 36
f 24 26 37
f 24 37 25
f 25 37 27
f 26 38 39
f 26 39 40
f 26 40 37
f 27 41 28
f 27 37 40
f 27 40 42
f 27 42 43
f 27 43 41
f 28 44 29
f 28 41 45
f 28 45 44
f 29 44 30
f 30 44 46
f 32 47 48
f 32 48 49
f 32 34 47
f 35 50 51
f 35 51 52
f 35 52 39
f 35 39 53
f 35 53 54
f 35 54 36
f 38 53 39
f 39 52 42
f 39 42 40
f 41 43 55
f 41 55 56
f 41 56 45
f 42 55 43
f 42 52 51
f 42 51 55
f 44 45 46
f 45 56 57
f 45 57 46
f 47 58 59
f 47 59 48
f 48 59 49
f 49 59 60
f 49 60 61
f 49 61 50
f 50 61 55
f 50 55 51
f 55 61 60
f 55 60 62
f 55 62 59
f 55 59 56
f 56 63 57
f 56 59 58
f 56 58 64
f 56 64 63
f 59 62 60

