# https://github.com/mikedh/trimesh
v 0.02149114 -0.07057508 0.00914393
v 0.02352440 -0.07484603 0.00885731
v 0.02352440 -0.07342554 0.00893843
v 0.02352440 -0.07199558 0.00899972
v 0.02352440 -0.07057508 0.00899972
v 0.02153914 -0.06884627 0.00885010
v 0.02088082 -0.06742955 0.00702580
v 0.02088082 -0.08196555 0.00812903
v 0.02352440 -0.08196555 0.00823359
v 0.02495077 -0.08339551 0.00812723
v 0.02428902 -0.07812396 0.00857609
v 0.02637885 -0.08339551 0.00793795
v 0.03612342 -0.06675997 0.00630293
v 0.03409530 -0.06675997 0.00674639
v 0.03159059 -0.06675997 0.00716280
v 0.02979905 -0.06675997 0.00742419
v 0.02771607 -0.06675997 0.00735929
v 0.02088082 -0.06711179 -0.00927212
v 0.02636514 -0.06675997 0.00639306
v 0.02602226 -0.06675997 0.00467873
v 0.02088082 -0.08397997 0.00771081
v 0.02520279 -0.08546856 0.00699155
v 0.02716747 -0.08555557 0.00657333
v 0.02805724 -0.08385892 0.00732684
v 0.03744007 -0.06686400 0.00551697
v 0.03839155 -0.06675997 0.00357549
v 0.02603255 -0.06675997 0.00071286
v 0.02613370 -0.06675997 -0.00071486
v 0.02712118 -0.06675997 -0.00237331
v 0.03635144 -0.06675997 -0.00298622
v 0.02845497 -0.06799321 -0.00927212
v 0.02088082 -0.08480466 -0.00927212
v 0.02098883 -0.08539858 0.00582522
v 0.02495077 -0.08608329 0.00498338
v 0.02671659 -0.08580713 0.00406402
v 0.02957104 -0.08409157 0.00498338
v 0.02987106 -0.08331985 0.00626327
v 0.03722234 -0.06876116 0.00453271
v 0.03839498 -0.06677889 0.00213696
v 0.03827669 -0.06675997 0.00071286
v 0.03290038 -0.07792536 0.00356107
v 0.03783438 -0.06700019 -0.00132596
v 0.03138829 -0.07322504 -0.00927212
v 0.03038023 -0.07072450 -0.00927212
v 0.02495248 -0.08493328 -0.00927212
v 0.02352611 -0.08531535 -0.00926671
v 0.02387585 -0.08567852 -0.00213356
v 0.02494391 -0.08602088 0.00283640
v 0.02495077 -0.08591117 0.00071286
v 0.02495077 -0.08580146 -0.00070765
v 0.02546337 -0.08555935 -0.00225794
v 0.02635657 -0.08407644 -0.00927212
v 0.02751206 -0.08310233 -0.00927212
v 0.03001507 -0.08281672 0.00168449
v 0.03015050 -0.08307963 0.00355927
v 0.03705948 -0.06878007 -0.00111505
v 0.03299810 -0.07737683 0.00213696
v 0.02997735 -0.07963904 -0.00919821
v 0.03074711 -0.07769270 -0.00927212
v 0.03105570 -0.07627031 -0.00927212
v 0.02849955 -0.08196933 -0.00926851
v 0.03008021 -0.08091578 -0.00466270
v 0.03569483 -0.07139409 -0.00109522
v 0.03246321 -0.07758489 -0.00067339
f 1 2 3
f 1 3 4
f 1 4 5
f 1 5 6
f 1 6 7
f 1 7 8
f 1 8 2
f 2 8 9
f 2 9 10
f 2 10 11
f 2 11 3
f 3 11 12
f 3 12 4
f 4 12 13
f 4 13 14
f 4 14 5
f 5 14 15
f 5 15 16
f 5 16 6
f 6 16 17
f 6 17 7
f 7 18 32
f 7 32 21
f 7 21 8
f 7 17 19
f 7 19 20
f 7 20 18
f 8 21 10
f 8 10 9
f 10 12 11
f 10 21 22
f 10 22 12
f 12 22 23
f 12 23 24
f 12 24 13
f 13 25 26
f 13 26 40
f 13 40 30
f 13 30 29
f 13 29 28
f 13 28 27
f 13 27 20
f 13 20 19
f 13 19 17
f 13 17 16
f 13 16 15
f 13 15 14
f 13 24 25
f 18 20 27
f 18 27 28
f 18 28 29
f 18 29 30
f 18 30 31
f 18 31 44
f 18 44 43
f 18 43 60
f 18 60 59
f 18 59 53
f 18 53 52
f 18 52 45
f 18 45 32
f 21 32 33
f 21 33 22
f 22 33 34
f 22 34 23
f 23 34 35
f 23 35 36
f 23 36 37
f 23 37 24
f 24 37 25
f 25 38 26
f 25 37 38
f 26 39 40
f 26 38 37
f 26 37 41
f 26 41 39
f 30 40 42
f 30 42 43
f 30 43 44
f 30 44 31
f 32 45 46
f 32 46 47
f 32 47 33
f 33 47 48
f 33 48 34
f 34 48 35
f 35 49 50
f 35 50 51
f 35 51 45
f 35 45 52
f 35 52 36
f 35 48 49
f 36 52 53
f 36 53 54
f 36 54 55
f 36 55 41
f 36 41 37
f 39 41 40
f 40 56 42
f 40 41 56
f 41 55 57
f 41 57 56
f 42 56 58
f 42 58 59
f 42 59 60
f 42 60 43
f 45 51 46
f 46 51 50
f 46 50 49
f 46 49 48
f 46 48 47
f 53 59 61
f 53 61 54
f 54 61 62
f 54 62 57
f 54 57 55
f 56 57 63
f 56 63 58
f 57 62 64
f 57 64 63
f 58 62 61
f 58 61 59
f 58 63 62
f 62 63 64

