# https://github.com/mikedh/trimesh
v -0.00559957 -0.06099708 -0.00847562
v -0.00559957 -0.05305117 -0.00847562
v 0.00073007 -0.06099708 -0.00847562
v -0.00559957 -0.06099708 0.00499683
v 0.00073007 -0.05247988 -0.00847562
v -0.00559957 -0.05259392 -0.00771865
v -0.00473278 -0.04990148 -0.00372940
v 0.00073007 -0.06099708 0.00499683
v -0.00559957 -0.05285350 0.00499683
v -0.00134615 -0.04990148 -0.00336938
v -0.00088270 -0.04990148 -0.00323751
v -0.00027303 -0.04990148 -0.00226558
v 0.00073007 -0.05096368 -0.00367006
v -0.00559957 -0.05216817 -0.00666628
v -0.00473278 -0.04990148 0.00049062
v 0.00073007 -0.05352253 0.00499683
v -0.00532510 -0.05250269 0.00499683
v -0.00559957 -0.05227460 0.00498891
v -0.00020860 -0.04990148 -0.00213766
v 0.00073007 -0.05048797 -0.00215481
v -0.00559957 -0.05216817 0.00464208
v -0.00257911 -0.04990148 0.00001851
v 0.00073007 -0.05350407 0.00498891
v 0.00070467 -0.05350842 0.00499683
v -0.00201777 -0.04990148 -0.00014238
v 0.00073007 -0.05048688 -0.00213766
v -0.00076994 -0.04990148 -0.00081890
v 0.00073007 -0.05090503 -0.00107342
v 0.00073007 -0.05089960 -0.00108661
f 1 2 5
f 1 5 3
f 1 3 8
f 1 8 4
f 1 4 9
f 1 9 18
f 1 18 21
f 1 21 14
f 1 14 6
f 1 6 2
f 2 6 7
f 2 7 5
f 3 5 13
f 3 13 20
f 3 20 26
f 3 26 29
f 3 29 28
f 3 28 23
f 3 23 16
f 3 16 8
f 4 8 16
f 4 16 24
f 4 24 17
f 4 17 9
f 5 7 10
f 5 10 11
f 5 11 12
f 5 12 13
f 6 14 7
f 7 14 21
f 7 21 15
f 7 15 22
f 7 22 25
f 7 25 27
f 7 27 19
f 7 19 12
f 7 12 11
f 7 11 10
f 9 17 18
f 12 19 20
f 12 20 13
f 15 21 18
f 15 18 22
f 16 23 24
f 17 24 18
f 18 23 25
f 18 25 22
f 18 24 23
f 19 26 20
f 19 27 26
f 23 28 27
f 23 27 25
f 26 27 29
f 27 28 29

