# https://github.com/mikedh/trimesh
v 0.05384605 -0.03025435 -0.00362269
v 0.05371996 -0.03025435 -0.00213835
v 0.05380296 -0.03065462 -0.00362269
v 0.05316293 -0.03487073 -0.00365189
v 0.03896418 -0.03025435 -0.00362550
v 0.05367527 -0.03065462 -0.00213835
v 0.05352684 -0.03025435 -0.00071409
v 0.05359387 -0.03207816 -0.00362269
v 0.05289160 -0.03621796 -0.00362269
v 0.05271762 -0.03695620 -0.00362269
v 0.05213345 -0.03914447 -0.00365189
v 0.05149024 -0.04101968 -0.00368166
v 0.05337681 -0.03350482 -0.00362269
v 0.05332254 -0.03384591 -0.00359405
v 0.05285488 -0.03620082 -0.00213835
v 0.05271603 -0.03691415 -0.00213835
v 0.03754207 -0.04616406 -0.00368166
v 0.03819647 -0.04616406 0.00205578
v 0.03911581 -0.03025435 -0.00316385
v 0.05347417 -0.03065462 -0.00071409
v 0.05250694 -0.03635346 0.00071240
v 0.05267932 -0.03641576 -0.00068377
v 0.05279423 -0.03598122 -0.00113587
v 0.05335606 -0.03025435 0.00031310
v 0.05249577 -0.03777856 -0.00213835
v 0.05251173 -0.03776143 -0.00362269
v 0.05230264 -0.03853238 -0.00360977
v 0.05242075 -0.03777856 -0.00071409
v 0.05157962 -0.04075024 -0.00350700
v 0.05010643 -0.04465174 -0.00213835
v 0.05057887 -0.04342444 -0.00362269
v 0.05011760 -0.04462059 -0.00362269
v 0.04976168 -0.04535572 -0.00362269
v 0.04933871 -0.04616406 -0.00361988
v 0.04897002 -0.04616406 0.00191931
v 0.04960686 -0.04475297 0.00205578
v 0.04147801 -0.03025435 0.00205578
v 0.04091459 -0.03025435 0.00117349
v 0.04028414 -0.03025435 -0.00025469
v 0.03965050 -0.03025435 -0.00173623
v 0.05218772 -0.03635346 0.00205578
v 0.05222922 -0.03777856 0.00071240
v 0.05323635 -0.03065462 0.00071240
v 0.05328742 -0.03025435 0.00071240
v 0.05138170 -0.04006027 0.00171264
v 0.04998194 -0.04438074 0.00071240
v 0.05005855 -0.04455517 -0.00071409
v 0.04976647 -0.04536507 -0.00213835
v 0.04933712 -0.04616406 -0.00213835
v 0.04913442 -0.04616406 0.00060064
v 0.04992129 -0.04424991 0.00159189
v 0.05010962 -0.04360355 0.00205578
v 0.05236169 -0.03492836 0.00205578
v 0.05291714 -0.03025435 0.00198165
v 0.05190841 -0.03777856 0.00205578
v 0.05172167 -0.03853238 0.00205578
v 0.05157483 -0.03912267 0.00205578
v 0.05306238 -0.03025435 0.00155202
v 0.05148545 -0.03943884 0.00205578
v 0.05117581 -0.04044653 0.00205578
v 0.05066826 -0.04198065 0.00205578
v 0.04971859 -0.04526850 -0.00071409
v 0.04926530 -0.04616406 -0.00083540
v 0.05289000 -0.03065462 0.00196761
f 1 2 3
f 1 3 4
f 1 4 5
f 1 5 19
f 1 19 40
f 1 40 39
f 1 39 38
f 1 38 37
f 1 37 54
f 1 54 58
f 1 58 44
f 1 44 24
f 1 24 7
f 1 7 2
f 2 6 3
f 2 7 6
f 3 6 8
f 3 8 4
f 4 9 10
f 4 10 11
f 4 11 12
f 4 12 5
f 4 8 13
f 4 13 14
f 4 14 15
f 4 15 16
f 4 16 9
f 5 12 17
f 5 17 18
f 5 18 19
f 6 7 20
f 6 20 21
f 6 21 22
f 6 22 23
f 6 23 15
f 6 15 8
f 7 24 21
f 7 21 20
f 8 15 13
f 9 16 10
f 10 16 25
f 10 25 26
f 10 26 11
f 11 26 27
f 11 27 25
f 11 25 28
f 11 28 29
f 11 29 12
f 12 29 30
f 12 30 31
f 12 31 32
f 12 32 33
f 12 33 34
f 12 34 17
f 13 15 14
f 15 23 22
f 15 22 28
f 15 28 16
f 16 28 25
f 17 34 49
f 17 49 63
f 17 63 50
f 17 50 35
f 17 35 18
f 18 35 36
f 18 36 52
f 18 52 61
f 18 61 60
f 18 60 59
f 18 59 57
f 18 57 56
f 18 56 55
f 18 55 41
f 18 41 53
f 18 53 37
f 18 37 38
f 18 38 39
f 18 39 40
f 18 40 19
f 21 41 42
f 21 42 28
f 21 28 22
f 21 24 43
f 21 43 41
f 24 44 43
f 25 27 26
f 28 42 45
f 28 45 46
f 28 46 47
f 28 47 29
f 29 47 30
f 30 32 31
f 30 47 62
f 30 62 48
f 30 48 32
f 32 48 33
f 33 48 34
f 34 48 49
f 35 50 46
f 35 46 51
f 35 51 36
f 36 51 52
f 37 53 54
f 41 55 42
f 41 43 44
f 41 44 53
f 42 55 56
f 42 56 57
f 42 57 45
f 44 58 53
f 45 57 59
f 45 59 60
f 45 60 61
f 45 61 52
f 45 52 46
f 46 52 51
f 46 50 62
f 46 62 47
f 48 62 63
f 48 63 49
f 50 63 62
f 53 58 64
f 53 64 54
f 54 64 58

