# https://github.com/mikedh/trimesh
v -0.02501745 -0.03063745 -0.00627879
v -0.02472014 -0.02870510 -0.00614010
v -0.02425623 -0.02303196 -0.00673461
v -0.02418190 -0.03136082 -0.00789606
v -0.02497644 -0.03270041 -0.00620985
v -0.02370005 -0.03967629 -0.00627879
v -0.01352473 -0.04014849 -0.00614010
v -0.01660808 -0.02870510 -0.00614010
v -0.01317616 -0.01503130 -0.00649940
v -0.02260562 -0.01503130 -0.00662836
v -0.02383332 -0.02425433 -0.00758461
v -0.02326945 -0.03137422 -0.00906156
v -0.02322332 -0.03350751 -0.00906561
v -0.02270302 -0.03777073 -0.00926027
v -0.02294138 -0.03967294 -0.00838837
v -0.02133435 -0.03991072 -0.01050039
v -0.01624157 -0.04014849 -0.01270324
v -0.01401684 -0.04015184 -0.00769491
v -0.00051213 -0.04014849 -0.01160262
v -0.01229960 -0.03487053 -0.00614010
v -0.01238418 -0.03306210 -0.00614010
v -0.00352371 -0.00593888 -0.00876876
v -0.01831508 -0.00594223 -0.00891313
v -0.02148044 -0.01503130 -0.00800150
v -0.02241083 -0.02463947 -0.00916051
v -0.02263894 -0.02922084 -0.00949872
v -0.02228524 -0.03320610 -0.01002429
v -0.02258768 -0.03492412 -0.00971771
v -0.02219041 -0.03064750 -0.01003565
v -0.02132410 -0.03777073 -0.01071288
v -0.02002207 -0.03943516 -0.01154423
v -0.01793318 -0.03967294 -0.01239017
v -0.01479601 -0.04014849 -0.01290600
v -0.01234573 -0.04015184 -0.00906561
v -0.01781528 -0.03777073 -0.01240720
v -0.00623286 -0.00593888 -0.01371626
v -0.00023788 -0.04014849 -0.01382413
v 0.00116154 -0.02303196 -0.01192867
v 0.00015426 -0.02303196 -0.01064232
v -0.00311619 -0.00593888 -0.01371626
v -0.01687977 -0.00593888 -0.01021408
v -0.01965043 -0.01901991 -0.01033655
v -0.02088069 -0.02427108 -0.01027734
v -0.02165986 -0.02779753 -0.01019056
v -0.02079867 -0.03288795 -0.01107786
v -0.02135742 -0.03563410 -0.01073478
v -0.01970681 -0.03777073 -0.01175997
v -0.01924034 -0.03492412 -0.01190028
v -0.00832174 -0.04014849 -0.01377384
v -0.00300341 -0.04014849 -0.01442594
v -0.01781528 -0.03634742 -0.01236340
v -0.01781784 -0.03135747 -0.01214685
v -0.01781784 -0.02636753 -0.01187514
v -0.01781784 -0.02494087 -0.01177943
v -0.01412449 -0.00612977 -0.01146069
v -0.00004822 -0.02303196 -0.01357189
v -0.01760767 -0.01871516 -0.01132118
v -0.01924034 -0.02067430 -0.01077939
v -0.01943000 -0.02494087 -0.01117195
v -0.01978883 -0.03035614 -0.01148664
v -0.01970169 -0.03634742 -0.01173726
v -0.01924034 -0.03207080 -0.01179160
v -0.01886870 -0.02636753 -0.01155639
v -0.01871747 -0.02494087 -0.01148826
f 1 2 3
f 1 3 4
f 1 4 5
f 1 5 2
f 2 5 6
f 2 6 7
f 2 7 20
f 2 20 21
f 2 21 8
f 2 8 9
f 2 9 10
f 2 10 3
f 3 10 11
f 3 11 4
f 4 12 13
f 4 13 14
f 4 14 5
f 4 11 12
f 5 14 15
f 5 15 6
f 6 15 16
f 6 16 7
f 7 16 17
f 7 17 18
f 7 18 19
f 7 19 20
f 8 21 9
f 9 22 23
f 9 23 10
f 9 21 22
f 10 23 24
f 10 24 11
f 11 24 25
f 11 25 26
f 11 26 12
f 12 27 28
f 12 28 13
f 12 26 29
f 12 29 27
f 13 28 14
f 14 16 15
f 14 28 16
f 16 28 30
f 16 30 31
f 16 31 32
f 16 32 17
f 17 33 34
f 17 34 18
f 17 32 35
f 17 35 36
f 17 36 33
f 18 34 19
f 19 34 37
f 19 37 38
f 19 38 39
f 19 39 20
f 20 39 22
f 20 22 21
f 22 39 38
f 22 38 40
f 22 40 36
f 22 36 41
f 22 41 23
f 23 41 24
f 24 41 25
f 25 41 42
f 25 42 43
f 25 43 44
f 25 44 26
f 26 44 29
f 27 29 45
f 27 45 46
f 27 46 30
f 27 30 28
f 29 44 45
f 30 46 31
f 31 46 47
f 31 47 32
f 32 47 48
f 32 48 35
f 33 49 34
f 33 36 49
f 34 49 50
f 34 50 37
f 35 48 51
f 35 51 36
f 36 52 53
f 36 53 54
f 36 54 55
f 36 55 41
f 36 40 50
f 36 50 49
f 36 51 52
f 37 50 56
f 37 56 38
f 38 56 40
f 40 56 50
f 41 55 57
f 41 57 58
f 41 58 42
f 42 58 43
f 43 59 44
f 43 58 59
f 44 60 45
f 44 59 60
f 45 61 47
f 45 47 46
f 45 60 61
f 47 61 48
f 48 61 60
f 48 60 62
f 48 62 51
f 51 62 52
f 52 62 53
f 53 62 63
f 53 63 54
f 54 63 55
f 55 63 64
f 55 64 57
f 57 64 59
f 57 59 58
f 59 64 63
f 59 63 60
f 60 63 62

