# https://github.com/mikedh/trimesh
v 0.03395613 -0.00292067 -0.00069330
v 0.03395613 -0.00291912 -0.00758811
v 0.02837779 -0.00292067 -0.00069330
v 0.03395613 -0.01197030 -0.00069330
v 0.03054470 -0.00291912 -0.00758811
v 0.03395613 -0.00291912 -0.01092535
v 0.03048247 -0.00291912 -0.00900734
v 0.02633075 -0.00307129 -0.01092535
v 0.02614956 -0.00308526 -0.01092535
v 0.02538638 -0.00328402 -0.01092535
v 0.02492610 -0.00487873 -0.01032340
v 0.02460857 -0.00641754 -0.01032340
v 0.02686516 -0.00641754 -0.00369801
v 0.02715066 -0.00641754 -0.00298590
v 0.02846014 -0.00482749 -0.00069330
v 0.02848211 -0.00858678 -0.00281964
v 0.03395613 -0.01208365 -0.00080948
v 0.02976413 -0.00772654 -0.00069330
v 0.03145521 -0.00291912 -0.01092535
v 0.03395613 -0.01878237 -0.01092535
v 0.03080916 -0.00291912 -0.01017617
v 0.03092537 -0.00291912 -0.01040553
v 0.02538638 -0.01200757 -0.01092535
v 0.02475772 -0.00908367 -0.01032340
v 0.02692555 -0.00746567 -0.00387128
v 0.02852603 -0.00708524 -0.00143847
v 0.02856995 -0.00561009 -0.00069330
v 0.02742610 -0.00790045 -0.00346364
v 0.02819569 -0.00892529 -0.00356480
v 0.02852877 -0.00996565 -0.00429795
v 0.03395613 -0.01461780 -0.00353075
v 0.03395613 -0.01344544 -0.00224774
v 0.02962687 -0.00758523 -0.00069330
v 0.02816000 -0.00784300 -0.00248110
v 0.03395613 -0.01798113 -0.00924171
v 0.02576614 -0.01234763 -0.01092535
v 0.03395613 -0.01542680 -0.00452631
v 0.02513199 -0.01074670 -0.01032340
v 0.02505513 -0.01056192 -0.01032340
v 0.02478701 -0.00925914 -0.01032340
v 0.02890853 -0.00652779 -0.00069330
v 0.02887559 -0.00647810 -0.00069330
v 0.03395613 -0.01517991 -0.00421282
v 0.03395613 -0.01464730 -0.00356480
v 0.03395613 -0.01730101 -0.00783550
v 0.03395613 -0.01653704 -0.00639124
v 0.03395613 -0.01641437 -0.00617490
v 0.03395613 -0.01585071 -0.00523342
f 1 2 5
f 1 5 3
f 1 3 15
f 1 15 27
f 1 27 42
f 1 42 41
f 1 41 33
f 1 33 18
f 1 18 4
f 1 4 17
f 1 17 32
f 1 32 31
f 1 31 44
f 1 44 43
f 1 43 37
f 1 37 48
f 1 48 47
f 1 47 46
f 1 46 45
f 1 45 35
f 1 35 20
f 1 20 6
f 1 6 2
f 2 6 19
f 2 19 22
f 2 22 21
f 2 21 7
f 2 7 5
f 3 5 7
f 3 7 8
f 3 8 9
f 3 9 10
f 3 10 11
f 3 11 12
f 3 12 13
f 3 13 14
f 3 14 15
f 4 16 17
f 4 18 16
f 6 20 36
f 6 36 23
f 6 23 10
f 6 10 9
f 6 9 8
f 6 8 19
f 7 21 8
f 8 21 22
f 8 22 19
f 10 12 11
f 10 23 12
f 12 23 24
f 12 24 13
f 13 24 25
f 13 25 14
f 14 25 26
f 14 26 27
f 14 27 15
f 16 28 29
f 16 29 30
f 16 30 31
f 16 31 32
f 16 32 17
f 16 18 33
f 16 33 34
f 16 34 28
f 20 35 36
f 23 36 37
f 23 37 30
f 23 30 29
f 23 29 28
f 23 28 25
f 23 25 38
f 23 38 39
f 23 39 40
f 23 40 24
f 24 40 25
f 25 40 39
f 25 39 38
f 25 28 26
f 26 41 42
f 26 42 27
f 26 28 34
f 26 34 33
f 26 33 41
f 30 37 43
f 30 43 44
f 30 44 31
f 35 45 36
f 36 45 46
f 36 46 47
f 36 47 48
f 36 48 37

