# https://github.com/mikedh/trimesh
v -0.02429906 -0.02303333 0.00783175
v -0.01424204 -0.02302998 0.00783175
v -0.01330509 -0.04014619 0.00840705
v -0.02220917 -0.04014619 0.00840705
v -0.02379560 -0.03282358 0.00884020
v -0.02422605 -0.02496526 0.00851640
v -0.02285712 -0.01630671 0.00836817
v -0.02047520 -0.00612136 0.00848360
v -0.00876026 -0.00594056 0.00783175
v -0.00876026 -0.00969393 0.00783175
v -0.00901427 -0.01378549 0.00783358
v -0.00928501 -0.04014619 0.00860631
v -0.02142888 -0.04007588 0.00978972
v -0.02247079 -0.03367739 0.01037352
v -0.02293166 -0.03207023 0.01011291
v -0.02256965 -0.02429896 0.01023198
v -0.02125549 -0.01497411 0.00984561
v -0.01920971 -0.00618163 0.01009893
v -0.01766130 -0.00594056 0.01148099
v -0.00901427 -0.00594056 0.01400514
v -0.00876026 -0.01186694 0.01371415
v -0.00876026 -0.01658462 0.00951817
v -0.00928501 -0.03967744 0.01256720
v -0.01290201 -0.03990846 0.01297908
v -0.00876026 -0.01658462 0.01349788
v -0.01497365 -0.03967074 0.01315039
v -0.01706962 -0.03955355 0.01288249
v -0.01965689 -0.03966404 0.01169179
v -0.02047976 -0.03491958 0.01180053
v -0.02096953 -0.03349323 0.01160431
v -0.02154600 -0.03207023 0.01128112
v -0.02104254 -0.03064723 0.01168146
v -0.02093303 -0.02494852 0.01157455
v -0.02084633 -0.02352217 0.01151987
v -0.01983941 -0.01639711 0.01131332
v -0.01580413 -0.00594056 0.01267472
v -0.01045468 -0.00594056 0.01403734
v -0.01497365 -0.02865168 0.01355802
v -0.01348305 -0.02702108 0.01356471
v -0.01212021 -0.02637487 0.01347358
v -0.01568549 -0.03349323 0.01338306
v -0.01568549 -0.03705911 0.01324881
v -0.01765826 -0.03634594 0.01297483
v -0.01880663 -0.03634594 0.01258360
v -0.01973294 -0.03776894 0.01192203
v -0.01933443 -0.03349323 0.01256112
v -0.01904696 -0.03064723 0.01275005
v -0.01889029 -0.02502218 0.01272697
v -0.01924165 -0.02352217 0.01243355
v -0.01410210 -0.00594056 0.01335573
v -0.01212021 -0.00594056 0.01382775
v -0.01497213 -0.02067617 0.01358111
v -0.01639885 -0.02865168 0.01345232
v -0.01568549 -0.03136040 0.01345110
v -0.01781949 -0.03349323 0.01306899
v -0.01852981 -0.03496311 0.01280230
v -0.01862259 -0.03349323 0.01286487
v -0.01781949 -0.03064723 0.01314675
v -0.01781797 -0.02779787 0.01315343
v -0.01842638 -0.02637487 0.01293655
v -0.01639733 -0.02281234 0.01336727
v -0.01639885 -0.02494852 0.01341222
v -0.01639885 -0.02637487 0.01343652
f 1 2 3
f 1 3 4
f 1 4 5
f 1 5 6
f 1 6 7
f 1 7 8
f 1 8 9
f 1 9 10
f 1 10 2
f 2 10 11
f 2 11 12
f 2 12 3
f 3 12 4
f 4 12 13
f 4 13 5
f 5 13 14
f 5 14 15
f 5 15 6
f 6 16 7
f 6 15 16
f 7 17 18
f 7 18 8
f 7 16 17
f 8 19 9
f 8 18 19
f 9 19 36
f 9 36 50
f 9 50 51
f 9 51 37
f 9 37 20
f 9 20 21
f 9 21 25
f 9 25 22
f 9 22 10
f 10 22 12
f 10 12 11
f 12 23 24
f 12 24 13
f 12 22 25
f 12 25 23
f 13 24 26
f 13 26 27
f 13 27 28
f 13 28 14
f 14 28 29
f 14 29 30
f 14 30 31
f 14 31 15
f 15 31 32
f 15 32 16
f 16 32 33
f 16 33 34
f 16 34 35
f 16 35 17
f 17 35 19
f 17 19 18
f 19 35 34
f 19 34 36
f 20 37 38
f 20 38 39
f 20 39 40
f 20 40 24
f 20 24 23
f 20 23 21
f 21 23 25
f 24 40 39
f 24 39 26
f 26 39 38
f 26 38 41
f 26 41 42
f 26 42 27
f 27 42 43
f 27 43 44
f 27 44 28
f 28 44 45
f 28 45 29
f 29 45 44
f 29 44 46
f 29 46 30
f 30 46 32
f 30 32 31
f 32 46 47
f 32 47 48
f 32 48 33
f 33 48 49
f 33 49 34
f 34 49 36
f 36 49 48
f 36 48 50
f 37 51 52
f 37 52 53
f 37 53 38
f 38 53 54
f 38 54 41
f 41 54 53
f 41 53 55
f 41 55 42
f 42 55 43
f 43 56 44
f 43 55 57
f 43 57 56
f 44 56 46
f 46 56 57
f 46 57 47
f 47 58 59
f 47 59 60
f 47 60 48
f 47 57 58
f 48 60 50
f 50 60 61
f 50 61 51
f 51 61 62
f 51 62 63
f 51 63 52
f 52 63 53
f 53 58 55
f 53 63 59
f 53 59 58
f 55 58 57
f 59 63 62
f 59 62 61
f 59 61 60

