# https://github.com/mikedh/trimesh
v 0.01957874 0.00983942 0.00861400
v 0.02112363 0.01676396 0.00998413
v 0.02283847 0.01995675 0.00856628
v 0.02815291 0.02535311 0.00508205
v 0.02269942 0.00924589 0.00708612
v 0.01963667 0.00924589 0.01121987
v 0.02278826 0.02006590 0.01143313
v 0.02840395 0.03446757 0.00997049
v 0.03276056 0.04425061 0.00852344
v 0.02989091 0.03718281 0.00849422
v 0.04788122 0.07894150 0.00718739
v 0.03940361 0.05024732 0.00368758
v 0.04646378 0.03113834 0.00239730
v 0.03566110 0.00924589 0.00508108
v 0.04235822 0.05022003 0.00213632
v 0.04340103 0.04564234 0.00213632
v 0.02206988 0.00924589 0.01178272
v 0.02220892 0.01409648 0.01189666
v 0.02406280 0.02286301 0.01148961
v 0.02706762 0.03001950 0.01143021
v 0.02570811 0.02705184 0.01133575
v 0.02323242 0.01730973 0.01197748
v 0.03133153 0.04141257 0.00993154
v 0.04835242 0.07757024 0.01012630
v 0.05444703 0.07810919 0.00768208
v 0.05462083 0.07367476 0.00339739
v 0.04829449 0.03583883 0.00239730
v 0.03819087 0.00924589 0.00617270
v 0.04646765 0.04564234 0.00213632
v 0.04568361 0.05176867 0.00213632
v 0.02703286 0.00924589 0.01123156
v 0.02780531 0.01713236 0.01163373
v 0.02495497 0.01997722 0.01208460
v 0.02843871 0.03299398 0.01146527
v 0.02683974 0.02581702 0.01193366
v 0.04811296 0.07357925 0.01110789
v 0.04989345 0.07589197 0.01071642
v 0.04425458 0.06601343 0.01141366
v 0.05274765 0.07514836 0.00976113
v 0.05562501 0.07533938 0.00780673
v 0.05903151 0.07246723 0.00435268
v 0.05881909 0.06614988 0.00391545
v 0.05492981 0.05347422 0.00239730
v 0.05003249 0.04038242 0.00239730
v 0.03549889 0.00924589 0.00872793
v 0.05252750 0.04691809 0.00239730
v 0.05732054 0.06702994 0.00626521
v 0.02994112 0.00924589 0.01085373
v 0.02853141 0.01485374 0.01141171
v 0.03009947 0.01953377 0.01143119
v 0.04775763 0.07054337 0.01112931
v 0.05060024 0.07268554 0.01067357
v 0.05269358 0.07093224 0.01001042
v 0.05595331 0.07267872 0.00808231
v 0.05718922 0.06986798 0.00702477
v 0.05902765 0.06846260 0.00431373
v 0.03274897 0.00924589 0.01018668
v 0.05275151 0.06125153 0.00856044
v 0.05415350 0.06664108 0.00874644
v 0.04918280 0.06342782 0.01046518
v 0.04775763 0.06342782 0.01075245
v 0.04918280 0.06663425 0.01066091
v 0.05089377 0.06876960 0.01041941
v 0.05510362 0.06982704 0.00869677
f 1 2 3
f 1 3 4
f 1 4 5
f 1 5 6
f 1 6 2
f 2 6 7
f 2 7 8
f 2 8 9
f 2 9 3
f 3 9 10
f 3 10 11
f 3 11 12
f 3 12 4
f 4 13 14
f 4 14 5
f 4 12 15
f 4 15 16
f 4 16 13
f 5 14 28
f 5 28 45
f 5 45 57
f 5 57 48
f 5 48 31
f 5 31 17
f 5 17 6
f 6 17 18
f 6 18 7
f 7 19 20
f 7 20 21
f 7 21 8
f 7 18 22
f 7 22 19
f 8 21 23
f 8 23 9
f 9 23 11
f 9 11 10
f 11 24 25
f 11 25 26
f 11 26 15
f 11 15 12
f 11 23 24
f 13 27 28
f 13 28 14
f 13 16 29
f 13 29 27
f 15 30 29
f 15 29 16
f 15 26 30
f 17 31 32
f 17 32 33
f 17 33 18
f 18 33 22
f 19 34 20
f 19 22 34
f 20 34 23
f 20 23 21
f 22 33 35
f 22 35 34
f 23 34 24
f 24 36 37
f 24 37 25
f 24 34 38
f 24 38 36
f 25 37 39
f 25 39 40
f 25 40 41
f 25 41 26
f 26 41 42
f 26 42 43
f 26 43 30
f 27 29 44
f 27 44 28
f 28 44 46
f 28 46 43
f 28 43 42
f 28 42 47
f 28 47 45
f 29 30 43
f 29 43 46
f 29 46 44
f 31 48 49
f 31 49 32
f 32 49 50
f 32 50 38
f 32 38 33
f 33 38 35
f 34 35 38
f 36 38 51
f 36 51 52
f 36 52 37
f 37 52 39
f 38 50 51
f 39 52 53
f 39 53 54
f 39 54 40
f 40 54 41
f 41 54 55
f 41 55 56
f 41 56 42
f 42 56 47
f 45 47 58
f 45 58 57
f 47 56 55
f 47 55 59
f 47 59 58
f 48 57 60
f 48 60 61
f 48 61 50
f 48 50 49
f 50 61 51
f 51 61 62
f 51 62 52
f 52 62 63
f 52 63 53
f 53 63 60
f 53 60 57
f 53 57 59
f 53 59 64
f 53 64 54
f 54 64 55
f 55 64 59
f 57 58 59
f 60 63 62
f 60 62 61

