# https://github.com/mikedh/trimesh
v -0.06054962 0.05777212 0.00578430
v -0.05997294 0.05710478 0.00302646
v -0.06048290 0.05563564 0.00580454
v -0.06002536 0.05307584 0.00625924
v -0.05636508 0.05779703 0.00674647
v -0.05566448 0.05779703 0.00232598
v -0.05382958 0.04490341 0.00051369
v -0.05929616 0.05276209 0.00280237
v -0.05919132 0.05060070 0.00578430
v -0.05697513 0.04643231 0.00657948
v -0.04660911 0.04490341 0.00674719
v -0.04250082 0.04131770 0.00674719
v -0.05050292 0.05204495 0.00674647
v -0.03781586 0.04083960 0.00453948
v -0.04449301 0.03040618 0.00674719
v -0.02698277 0.03005757 0.00276188
v -0.02061541 0.02359333 0.00149031
v -0.03685789 0.03824494 -0.00063788
v -0.04250082 0.03941030 -0.00063788
v -0.05804747 0.04938057 0.00282188
v -0.04203852 0.02911632 -0.00063644
v -0.05127501 0.04110355 0.00045585
v -0.05282396 0.04264740 0.00128935
v -0.05815709 0.04839947 0.00578430
v -0.05566448 0.04479882 0.00498839
v -0.05566925 0.04469424 0.00646671
v -0.05417750 0.04275198 0.00658020
v -0.04267717 0.02819499 0.00674719
v -0.02486190 0.01867791 0.00674647
v -0.01876620 0.01731335 0.00674430
v -0.02279346 0.02569495 0.00288188
v -0.04423088 0.02989322 0.00592743
v -0.03851169 0.02278654 0.00607129
v -0.04857269 0.03550586 0.00658020
v -0.01850884 0.02141700 0.00141297
v -0.01345213 0.01546572 -0.00027644
v -0.01186029 0.01012699 -0.00063644
v -0.03362655 0.02999780 -0.00063788
v -0.05691794 0.04696519 0.00379851
v -0.04567497 0.03292115 0.00085561
v -0.01440532 0.00691977 -0.00063644
v -0.02589136 0.00691977 0.00003875
v -0.03265906 0.01586413 -0.00015065
v -0.05303366 0.04236353 0.00214020
v -0.05524031 0.04468428 0.00356502
v -0.05400592 0.04298605 0.00356502
v -0.05001679 0.03760250 0.00356502
v -0.04758613 0.03435046 0.00400454
v -0.05416796 0.04276194 0.00567803
v -0.02555297 0.00696957 0.00566068
v -0.01697419 0.00692973 0.00652599
v -0.01225586 0.01318979 -0.00017668
v -0.01549197 0.01735319 0.00163272
v -0.02143992 0.02418098 0.00269971
v -0.04113299 0.02592404 0.00498767
v -0.02599621 0.00691977 0.00294984
v -0.02708762 0.00856322 0.00498044
v -0.01604959 0.00691977 0.00414695
v -0.04141895 0.02696987 0.00121995
v -0.05140846 0.03978381 0.00264261
v -0.03886438 0.02314013 0.00310453
v -0.04001774 0.02480350 0.00214164
v -0.05270481 0.04139240 0.00303731
v -0.04583225 0.03250282 0.00214020
f 1 2 3
f 1 3 4
f 1 4 5
f 1 5 6
f 1 6 2
f 2 6 7
f 2 7 8
f 2 8 3
f 3 8 4
f 4 8 9
f 4 9 10
f 4 10 5
f 5 11 12
f 5 12 13
f 5 13 14
f 5 14 6
f 5 10 15
f 5 15 11
f 6 14 16
f 6 16 17
f 6 17 18
f 6 18 19
f 6 19 7
f 7 20 8
f 7 19 21
f 7 21 22
f 7 22 23
f 7 23 20
f 8 20 9
f 9 20 24
f 9 24 10
f 10 24 25
f 10 25 26
f 10 26 27
f 10 27 15
f 11 15 28
f 11 28 12
f 12 28 29
f 12 29 30
f 12 30 13
f 13 30 14
f 14 30 31
f 14 31 16
f 15 32 33
f 15 33 28
f 15 27 34
f 15 34 32
f 16 31 35
f 16 35 17
f 17 35 36
f 17 36 18
f 18 36 37
f 18 37 38
f 18 38 19
f 19 38 21
f 20 23 39
f 20 39 24
f 21 40 22
f 21 38 41
f 21 41 42
f 21 42 43
f 21 43 40
f 22 40 23
f 23 44 39
f 23 40 44
f 24 39 25
f 25 39 45
f 25 45 46
f 25 46 47
f 25 47 48
f 25 48 49
f 25 49 26
f 26 49 27
f 27 49 32
f 27 32 34
f 28 33 50
f 28 50 51
f 28 51 29
f 29 51 30
f 30 51 52
f 30 52 53
f 30 53 54
f 30 54 31
f 31 54 35
f 32 55 33
f 32 49 55
f 33 56 57
f 33 57 50
f 33 55 56
f 35 53 36
f 35 54 53
f 36 53 52
f 36 52 37
f 37 52 51
f 37 51 58
f 37 58 41
f 37 41 38
f 39 44 45
f 40 43 59
f 40 59 60
f 40 60 44
f 41 58 56
f 41 56 42
f 42 56 61
f 42 61 62
f 42 62 43
f 43 62 59
f 44 60 63
f 44 63 45
f 45 63 46
f 46 63 47
f 47 63 60
f 47 60 64
f 47 64 62
f 47 62 48
f 48 62 61
f 48 61 55
f 48 55 49
f 50 57 56
f 50 56 51
f 51 56 58
f 55 61 56
f 59 62 64
f 59 64 60

