# https://github.com/mikedh/trimesh
v 0.02937444 0.00923812 -0.00339771
v 0.02511459 0.01354519 -0.00053220
v 0.02599594 0.01496684 -0.00121754
v 0.02677236 0.01622388 -0.00161048
v 0.02987234 0.01583785 -0.00339771
v 0.02958810 0.00923225 -0.00339771
v 0.02381927 0.00923225 0.00111344
v 0.02381164 0.00926752 0.00110729
v 0.02375632 0.01069406 0.00095134
v 0.02524431 0.01496684 -0.00050450
v 0.02248199 0.00924988 0.00240102
v 0.02605889 0.01622388 -0.00101030
v 0.03160261 0.01924157 0.00507980
v 0.02994674 0.01622388 -0.00339771
v 0.04086821 0.00923225 -0.00339771
v 0.02310962 0.00923225 0.00169003
v 0.02310008 0.00926752 0.00169003
v 0.02266512 0.01045206 0.00256210
v 0.02436868 0.01368628 0.00065381
v 0.02545224 0.01622388 -0.00029725
v 0.02202033 0.00923225 0.00356241
v 0.03095209 0.01924157 0.00708351
v 0.03565643 0.01924157 0.00507980
v 0.04134323 0.01622388 -0.00339771
v 0.04150729 0.01622388 -0.00206498
v 0.04092926 0.00923225 -0.00213783
v 0.02202987 0.00926752 0.00356344
v 0.02466247 0.01496684 0.00071332
v 0.02520806 0.01622388 0.00076154
v 0.02222254 0.00923225 0.00504082
v 0.03565643 0.01924157 0.00708351
v 0.02538548 0.01622388 0.00162642
v 0.02546178 0.01622388 0.00199064
v 0.02554572 0.01622388 0.00213632
v 0.02268993 0.00923323 0.00708351
v 0.04150729 0.01622388 -0.00201369
v 0.04093880 0.00923225 -0.00071174
v 0.02257356 0.01052456 0.00356344
v 0.02393373 0.01349522 0.00213632
v 0.02427330 0.01420752 0.00213632
v 0.02223971 0.00923225 0.00507980
v 0.02264223 0.01023553 0.00461094
v 0.02293411 0.01123685 0.00356344
v 0.03565643 0.00923323 0.00708351
v 0.03964348 0.01622388 0.00507980
v 0.03984188 0.01622388 0.00473406
v 0.03996779 0.01622388 0.00451142
v 0.04041800 0.01622388 0.00356857
v 0.04095787 0.01622388 0.00203475
v 0.04125166 0.01622388 0.00083541
v 0.04127646 0.01622388 0.00071332
v 0.04136802 0.01622388 0.00024753
v 0.04148440 0.01622388 -0.00062659
v 0.04149012 0.01622388 -0.00067583
v 0.02399859 0.01324146 0.00325975
v 0.04071178 0.00923225 0.00071332
v 0.03892238 0.00923225 0.00507980
v 0.03896435 0.00923225 0.00500491
v 0.03963204 0.00923225 0.00372349
v 0.03965302 0.00926752 0.00368860
v 0.03996397 0.00923225 0.00297351
v 0.04024249 0.00923225 0.00216915
v 0.03965111 0.00923225 0.00368245
f 1 2 3
f 1 3 4
f 1 4 5
f 1 5 14
f 1 14 24
f 1 24 15
f 1 15 6
f 1 6 7
f 1 7 8
f 1 8 9
f 1 9 2
f 2 10 3
f 2 9 11
f 2 11 10
f 3 12 4
f 3 10 12
f 4 12 13
f 4 13 14
f 4 14 5
f 6 15 26
f 6 26 37
f 6 37 56
f 6 56 62
f 6 62 61
f 6 61 63
f 6 63 59
f 6 59 58
f 6 58 57
f 6 57 41
f 6 41 30
f 6 30 21
f 6 21 16
f 6 16 7
f 7 16 8
f 8 16 17
f 8 17 9
f 9 17 11
f 10 11 18
f 10 18 19
f 10 19 20
f 10 20 12
f 11 21 18
f 11 17 16
f 11 16 21
f 12 20 13
f 13 20 22
f 13 22 31
f 13 31 23
f 13 23 24
f 13 24 14
f 15 24 25
f 15 25 26
f 18 21 27
f 18 27 28
f 18 28 19
f 19 28 20
f 20 28 29
f 20 29 22
f 21 30 27
f 22 29 32
f 22 32 33
f 22 33 34
f 22 34 35
f 22 35 44
f 22 44 31
f 23 31 36
f 23 36 25
f 23 25 24
f 25 36 37
f 25 37 26
f 27 30 38
f 27 38 39
f 27 39 28
f 28 39 29
f 29 39 40
f 29 40 32
f 30 41 35
f 30 35 42
f 30 42 43
f 30 43 38
f 31 44 45
f 31 45 46
f 31 46 47
f 31 47 48
f 31 48 49
f 31 49 50
f 31 50 51
f 31 51 52
f 31 52 53
f 31 53 54
f 31 54 36
f 32 40 33
f 33 40 55
f 33 55 35
f 33 35 34
f 35 55 43
f 35 43 42
f 35 41 57
f 35 57 44
f 36 54 37
f 37 54 53
f 37 53 52
f 37 52 56
f 38 43 40
f 38 40 39
f 40 43 55
f 44 57 45
f 45 57 46
f 46 57 47
f 47 57 58
f 47 58 59
f 47 59 60
f 47 60 48
f 48 60 61
f 48 61 49
f 49 61 62
f 49 62 56
f 49 56 50
f 50 56 51
f 51 56 52
f 59 63 60
f 60 63 61

