# https://github.com/mikedh/trimesh
v 0.02718216 -0.02299503 0.00705265
v 0.02992845 -0.02852787 0.00569485
v 0.02975539 -0.02884856 0.00745579
v 0.02718216 -0.02242320 0.00871988
v 0.02718216 -0.02179341 0.00581101
v 0.03189725 -0.03024336 0.00502522
v 0.03063571 -0.03024336 0.00611849
v 0.03098433 -0.03021632 0.00822010
v 0.02977796 -0.02739580 0.00869353
v 0.02718216 -0.02066521 0.00949884
v 0.02718216 -0.00980816 0.00641035
v 0.02718718 0.00922838 0.00418770
v 0.02718718 -0.00483942 0.00418770
v 0.03826011 -0.02636419 0.00205192
v 0.03923573 -0.02828446 0.00205192
v 0.04110421 -0.02994972 0.00205192
v 0.04775299 -0.03024336 0.00639864
v 0.03274998 -0.03024336 0.00855394
v 0.02718718 -0.00582853 0.01202410
v 0.02718216 -0.01924336 0.00975654
v 0.02718216 -0.00980816 0.01105284
v 0.04973684 -0.01344778 0.00227155
v 0.03701613 -0.01316959 0.00205192
v 0.02749566 0.00922838 0.01117876
v 0.03907271 0.00922838 0.00478509
v 0.05280415 -0.02972949 0.00233109
v 0.04632843 -0.03024336 0.00667586
v 0.05204422 -0.02972949 0.00350343
v 0.05103098 -0.02971790 0.00461524
v 0.04933806 -0.02947448 0.00583834
v 0.04775299 -0.02779377 0.00645916
v 0.03493447 -0.03024336 0.00829527
v 0.03206278 0.00922838 0.01042519
v 0.03065577 0.00922838 0.01074536
v 0.02922871 0.00922838 0.01096304
v 0.04082582 -0.03024336 0.00747531
v 0.04490387 -0.03024336 0.00690232
v 0.04590206 -0.02251593 0.00702141
v 0.04868096 -0.01413166 0.00394464
v 0.05174075 -0.02042952 0.00254194
v 0.03765317 0.00922838 0.00691697
v 0.05260351 -0.02779377 0.00253901
v 0.05163040 -0.02759285 0.00393097
v 0.05127927 -0.02603191 0.00421308
v 0.05066230 -0.02712534 0.00482999
v 0.04932302 -0.02636419 0.00577489
v 0.04775299 -0.02494234 0.00645233
v 0.04775299 -0.02636419 0.00648259
v 0.04542053 -0.01924336 0.00706631
v 0.03344470 0.00922838 0.00994786
v 0.04632843 -0.02066521 0.00680764
v 0.04765016 -0.01609829 0.00548010
v 0.05026352 -0.02016679 0.00421112
v 0.05063220 -0.02286753 0.00436438
v 0.05190628 -0.02200978 0.00261905
v 0.03549376 0.00922838 0.00873160
v 0.05049677 -0.02494234 0.00481535
v 0.04926282 -0.02494234 0.00573584
v 0.04775299 -0.02209092 0.00628053
v 0.04532020 -0.01781765 0.00702629
v 0.04632843 -0.01924336 0.00670222
v 0.04819691 -0.02002769 0.00583541
v 0.04816932 -0.01781765 0.00548205
v 0.04936314 -0.02209092 0.00532099
f 1 2 3
f 1 3 4
f 1 4 10
f 1 10 20
f 1 20 21
f 1 21 11
f 1 11 5
f 1 5 2
f 2 6 7
f 2 7 3
f 2 5 6
f 3 7 8
f 3 8 9
f 3 9 4
f 4 9 10
f 5 11 12
f 5 12 13
f 5 13 14
f 5 14 6
f 6 14 15
f 6 15 16
f 6 16 17
f 6 17 27
f 6 27 37
f 6 37 36
f 6 36 32
f 6 32 18
f 6 18 7
f 7 18 8
f 8 18 9
f 9 18 19
f 9 19 20
f 9 20 10
f 11 21 12
f 12 22 23
f 12 23 13
f 12 21 19
f 12 19 24
f 12 24 35
f 12 35 34
f 12 34 33
f 12 33 50
f 12 50 56
f 12 56 41
f 12 41 25
f 12 25 22
f 13 23 14
f 14 23 16
f 14 16 15
f 16 26 17
f 16 23 22
f 16 22 26
f 17 26 28
f 17 28 29
f 17 29 30
f 17 30 31
f 17 31 19
f 17 19 27
f 18 32 19
f 19 33 34
f 19 34 35
f 19 35 24
f 19 21 20
f 19 32 36
f 19 36 37
f 19 37 27
f 19 31 38
f 19 38 33
f 22 39 40
f 22 40 26
f 22 25 41
f 22 41 39
f 26 42 28
f 26 40 42
f 28 42 43
f 28 43 29
f 29 43 44
f 29 44 45
f 29 45 30
f 30 45 46
f 30 46 47
f 30 47 48
f 30 48 31
f 31 48 38
f 33 38 49
f 33 49 50
f 38 48 47
f 38 47 51
f 38 51 49
f 39 41 52
f 39 52 53
f 39 53 40
f 40 53 54
f 40 54 44
f 40 44 55
f 40 55 42
f 41 56 52
f 42 44 43
f 42 55 44
f 44 54 57
f 44 57 45
f 45 57 58
f 45 58 46
f 46 58 47
f 47 58 59
f 47 59 51
f 49 51 60
f 49 60 50
f 50 60 61
f 50 61 62
f 50 62 56
f 51 59 61
f 51 61 60
f 52 63 53
f 52 56 63
f 53 63 64
f 53 64 54
f 54 64 57
f 56 62 63
f 57 64 58
f 58 64 62
f 58 62 59
f 59 62 61
f 62 64 63

