# https://github.com/mikedh/trimesh
v -0.01400206 -0.03076523 -0.00398684
v -0.01433186 -0.02925599 -0.00318829
v -0.00659237 -0.04000877 -0.00128555
v -0.01344980 -0.03207832 -0.00398684
v -0.01242528 -0.04015069 -0.00398684
v -0.02550396 -0.02989869 -0.00394987
v -0.01564909 -0.02836406 0.00656570
v -0.01362153 -0.02925599 -0.00071251
v -0.00839162 -0.03683105 -0.00111426
v -0.02614209 -0.02925599 -0.00215435
v -0.02516050 -0.02836406 0.00619969
v -0.00656505 -0.04015184 0.00036209
v -0.00806767 -0.04015184 -0.00223938
v -0.01287021 -0.03380449 -0.00398684
v -0.00714073 -0.03851221 -0.00071251
v -0.00928343 -0.03171370 0.00860276
v -0.01069629 -0.04015184 -0.00228128
v -0.02346273 -0.04015069 0.00550219
v -0.02425503 -0.03999953 -0.00362207
v -0.02582400 -0.03274409 -0.00376009
v -0.01747175 -0.02836406 0.00840435
v -0.01352200 -0.02925599 0.00072933
v -0.02623771 -0.03065215 -0.00213587
v -0.02646408 -0.02925599 -0.00072607
v -0.02650115 -0.02925599 0.00069975
v -0.02637236 -0.02925599 0.00213666
v -0.02610891 -0.02925599 0.00354646
v -0.02566788 -0.02925599 0.00506224
v -0.02559373 -0.03065215 0.00542701
v -0.02436040 -0.03216140 0.00806915
v -0.02377887 -0.02836406 0.00821334
v -0.00930100 -0.03760528 0.00860276
v -0.01328587 -0.04015069 0.00850294
v -0.01328197 -0.03119331 0.00860276
v -0.02254750 -0.04014953 0.00785842
v -0.02515465 -0.03355064 0.00560694
v -0.02502976 -0.03492488 0.00498584
v -0.02427649 -0.03904068 0.00406528
v -0.02442285 -0.03965338 0.00236957
v -0.02450286 -0.03967645 0.00071454
v -0.02451652 -0.03967645 -0.00067184
v -0.02448334 -0.03967645 -0.00210752
v -0.02583571 -0.03396141 -0.00234906
v -0.02614989 -0.03207832 -0.00213587
v -0.02638797 -0.03065215 -0.00071251
v -0.02638212 -0.03065215 0.00071454
v -0.02624551 -0.03065215 0.00213666
v -0.02600353 -0.03065215 0.00356125
v -0.02569130 -0.03226063 0.00438445
v -0.02520344 -0.03227447 0.00613315
v -0.02422575 -0.03350333 0.00793360
v -0.02538102 -0.03492488 0.00356125
v -0.02497511 -0.03777721 0.00213666
v -0.02508635 -0.03777721 0.00071454
v -0.02507464 -0.03777721 -0.00071251
v -0.02589425 -0.03412872 -0.00071251
v -0.02621234 -0.03207832 -0.00071251
v -0.02618307 -0.03207832 0.00071454
v -0.02606988 -0.03207832 0.00213666
v -0.02567178 -0.03344910 0.00350826
v -0.02530101 -0.03635220 0.00213666
v -0.02568349 -0.03430988 0.00231165
v -0.02555079 -0.03570373 0.00071454
v -0.02596255 -0.03350333 0.00071454
f 1 2 3
f 1 3 4
f 1 4 14
f 1 14 5
f 1 5 6
f 1 6 2
f 2 7 8
f 2 8 9
f 2 9 3
f 2 6 10
f 2 10 11
f 2 11 7
f 3 12 13
f 3 13 14
f 3 14 4
f 3 9 15
f 3 15 16
f 3 16 12
f 5 14 13
f 5 13 17
f 5 17 18
f 5 18 19
f 5 19 6
f 6 20 10
f 6 19 20
f 7 21 16
f 7 16 22
f 7 22 8
f 7 11 31
f 7 31 21
f 8 22 16
f 8 16 9
f 9 16 15
f 10 23 24
f 10 24 11
f 10 20 23
f 11 24 25
f 11 25 26
f 11 26 27
f 11 27 28
f 11 28 29
f 11 29 30
f 11 30 31
f 12 16 32
f 12 32 33
f 12 33 18
f 12 18 17
f 12 17 13
f 16 21 34
f 16 34 32
f 18 33 35
f 18 35 36
f 18 36 37
f 18 37 38
f 18 38 39
f 18 39 40
f 18 40 19
f 19 40 41
f 19 41 42
f 19 42 43
f 19 43 20
f 20 43 44
f 20 44 23
f 21 31 34
f 23 45 24
f 23 44 45
f 24 45 25
f 25 45 46
f 25 46 26
f 26 46 47
f 26 47 48
f 26 48 27
f 27 48 29
f 27 29 28
f 29 48 49
f 29 49 50
f 29 50 30
f 30 50 51
f 30 51 35
f 30 35 33
f 30 33 31
f 31 33 34
f 32 34 33
f 35 51 36
f 36 50 49
f 36 49 52
f 36 52 37
f 36 51 50
f 37 52 38
f 38 52 53
f 38 53 39
f 39 53 54
f 39 54 40
f 40 54 41
f 41 54 55
f 41 55 42
f 42 55 43
f 43 55 56
f 43 56 44
f 44 56 57
f 44 57 45
f 45 57 46
f 46 57 58
f 46 58 59
f 46 59 47
f 47 59 49
f 47 49 48
f 49 60 52
f 49 59 60
f 52 61 53
f 52 60 62
f 52 62 61
f 53 61 54
f 54 61 63
f 54 63 56
f 54 56 55
f 56 64 57
f 56 63 64
f 57 64 58
f 58 64 59
f 59 64 62
f 59 62 60
f 61 62 63
f 62 64 63

