# https://github.com/mikedh/trimesh
v 0.02537818 0.01649145 0.00029423
v 0.02700688 0.02013495 -0.00017794
v 0.02698520 0.01823888 -0.00151647
v 0.02642166 0.01631469 -0.00130320
v 0.02603152 0.01622632 0.00270739
v 0.02811847 0.02545760 0.00505583
v 0.03277543 0.03141093 -0.00145423
v 0.02850243 0.02286255 -0.00079036
v 0.02837857 0.02172572 -0.00161937
v 0.02855816 0.02067324 -0.00217204
v 0.02988651 0.02115931 -0.00305581
v 0.02921150 0.01924717 -0.00285333
v 0.03004752 0.01674854 -0.00339688
v 0.04134001 0.01622632 -0.00339771
v 0.03030142 0.01622632 0.00507989
v 0.03063583 0.02225999 0.00507989
v 0.04421344 0.04564348 0.00507989
v 0.04212649 0.05103844 0.00213315
v 0.04313900 0.05157271 -0.00213553
v 0.03844799 0.04283553 -0.00151066
v 0.03559623 0.03716742 -0.00148991
v 0.03418738 0.03431528 -0.00147332
v 0.04304611 0.05035955 -0.00315622
v 0.03115602 0.02755050 -0.00174882
v 0.03157403 0.02628512 -0.00292304
v 0.03253701 0.02760674 -0.00326078
v 0.03076898 0.02210734 -0.00339771
v 0.03020543 0.01869281 -0.00339771
v 0.04562849 0.02707247 -0.00320601
v 0.04149482 0.01622632 -0.00210897
v 0.05571339 0.05380220 -0.00339771
v 0.05458321 0.05059254 -0.00339688
v 0.03977943 0.01622632 0.00485169
v 0.04181375 0.02205110 0.00507989
v 0.04646761 0.04564348 0.00507989
v 0.05038762 0.05726493 0.00356212
v 0.04404934 0.05287023 -0.00116462
v 0.04413913 0.05241228 -0.00291640
v 0.05089542 0.05726493 -0.00339771
v 0.04565636 0.02698007 -0.00162352
v 0.05274396 0.04559528 -0.00287740
v 0.04149173 0.01622632 -0.00067585
v 0.05693956 0.05726493 -0.00339771
v 0.05510031 0.05202263 -0.00339688
v 0.05538517 0.05246049 -0.00213636
v 0.04042348 0.01622632 0.00356876
v 0.04273338 0.02295896 0.00421603
v 0.04493490 0.03052315 0.00507906
v 0.04646761 0.03472904 0.00507989
v 0.05472255 0.05433647 0.00356212
v 0.05576603 0.05691946 0.00330487
v 0.05630789 0.05726493 0.00232733
v 0.05285853 0.04590058 -0.00039204
v 0.04130904 0.01622632 0.00054318
v 0.05295142 0.04653126 0.00071164
v 0.05700768 0.05726493 -0.00203595
v 0.05568243 0.05334827 -0.00070987
v 0.04096535 0.01622632 0.00203523
v 0.04281079 0.02126375 0.00249744
v 0.05268204 0.04688075 0.00202444
v 0.05558334 0.05562596 0.00281029
v 0.05564217 0.05404724 0.00087097
v 0.05675687 0.05726493 0.00071247
v 0.05695813 0.05726493 -0.00071153
f 1 2 3
f 1 3 4
f 1 4 5
f 1 5 6
f 1 6 2
f 2 6 7
f 2 7 8
f 2 8 9
f 2 9 3
f 3 9 10
f 3 10 11
f 3 11 12
f 3 12 4
f 4 12 13
f 4 13 14
f 4 14 5
f 5 14 30
f 5 30 42
f 5 42 54
f 5 54 58
f 5 58 46
f 5 46 33
f 5 33 15
f 5 15 6
f 6 15 16
f 6 16 17
f 6 17 18
f 6 18 19
f 6 19 20
f 6 20 21
f 6 21 22
f 6 22 7
f 7 22 23
f 7 23 24
f 7 24 9
f 7 9 8
f 9 24 25
f 9 25 10
f 10 25 11
f 11 25 26
f 11 26 27
f 11 27 28
f 11 28 12
f 12 28 13
f 13 28 14
f 14 29 30
f 14 28 27
f 14 27 39
f 14 39 43
f 14 43 31
f 14 31 32
f 14 32 29
f 15 33 34
f 15 34 49
f 15 49 35
f 15 35 17
f 15 17 16
f 17 35 36
f 17 36 18
f 18 36 37
f 18 37 19
f 19 23 21
f 19 21 20
f 19 37 38
f 19 38 23
f 21 23 22
f 23 38 39
f 23 39 27
f 23 27 26
f 23 26 25
f 23 25 24
f 29 40 30
f 29 32 41
f 29 41 40
f 30 40 42
f 31 43 44
f 31 44 32
f 32 44 45
f 32 45 41
f 33 46 47
f 33 47 34
f 34 47 48
f 34 48 49
f 35 49 50
f 35 50 51
f 35 51 36
f 36 51 52
f 36 52 63
f 36 63 64
f 36 64 56
f 36 56 43
f 36 43 39
f 36 39 37
f 37 39 38
f 40 41 45
f 40 45 53
f 40 53 42
f 42 53 55
f 42 55 54
f 43 56 45
f 43 45 44
f 45 56 57
f 45 57 53
f 46 58 59
f 46 59 47
f 47 59 60
f 47 60 61
f 47 61 50
f 47 50 48
f 48 50 49
f 50 61 51
f 51 61 52
f 52 61 62
f 52 62 63
f 53 57 55
f 54 59 58
f 54 55 59
f 55 57 62
f 55 62 60
f 55 60 59
f 56 64 57
f 57 64 63
f 57 63 62
f 60 62 61

