# https://github.com/mikedh/trimesh
v 0.02160675 -0.06367610 -0.01731361
v 0.02525076 -0.06675997 -0.01845403
v 0.02360081 -0.06675997 -0.01716620
v 0.02328317 -0.06675997 -0.01448411
v 0.02200086 -0.06390480 -0.01459125
v 0.02205085 -0.05861969 -0.01473650
v 0.02738600 -0.03025379 -0.01471205
v 0.02271260 -0.05958809 -0.01770693
v 0.02423903 -0.06165353 -0.01818007
v 0.03136824 -0.06652412 -0.01918316
v 0.03563282 -0.06675997 -0.01499536
v 0.02587133 -0.06401915 -0.01850580
v 0.03118589 -0.06675997 -0.01217522
v 0.03118589 -0.06112110 -0.01217522
v 0.02923300 -0.03025379 -0.01346305
v 0.02943888 -0.03025379 -0.01723882
v 0.02637720 -0.05060806 -0.01793919
v 0.02566252 -0.05667574 -0.01814843
v 0.02695072 -0.06157492 -0.01855110
v 0.03471814 -0.06611675 -0.01786369
v 0.03207704 -0.06414779 -0.01924571
v 0.03350347 -0.06414779 -0.01921192
v 0.03854156 -0.06279703 -0.01233485
v 0.03606516 -0.06675997 -0.01285976
v 0.03708572 -0.06277202 -0.01714607
v 0.04711779 -0.04607337 -0.01406202
v 0.03207704 -0.06201088 -0.01919754
v 0.03740336 -0.06473026 -0.01217522
v 0.03251232 -0.05635771 -0.01217522
v 0.03820922 -0.03025736 -0.01327537
v 0.05164708 -0.03025379 -0.01384990
v 0.03433580 -0.03025379 -0.01793343
v 0.02780658 -0.04633066 -0.01792049
v 0.03275937 -0.04556594 -0.01853600
v 0.03279761 -0.05416720 -0.01893724
v 0.04347672 -0.04490843 -0.01935357
v 0.04544725 -0.04475835 -0.01817144
v 0.03564165 -0.05597535 -0.01934423
v 0.04062386 -0.04633066 -0.01948948
v 0.04276498 -0.04276795 -0.01952040
v 0.03976800 -0.06061009 -0.01217522
v 0.04702368 -0.04400435 -0.01655140
v 0.04814424 -0.04378638 -0.01414328
v 0.05112062 -0.03630718 -0.01332859
v 0.04180912 -0.05635771 -0.01217522
v 0.04327672 -0.03035384 -0.01908177
v 0.03848568 -0.03025379 -0.01847920
v 0.04987948 -0.03493141 -0.01639681
v 0.04844129 -0.03422030 -0.01812470
v 0.04759131 -0.03180108 -0.01857483
v 0.04546196 -0.03040387 -0.01908177
v 0.04276498 -0.04006643 -0.01946862
v 0.04490021 -0.03849412 -0.01948660
v 0.04517667 -0.04134929 -0.01925363
v 0.04653252 -0.03957687 -0.01891279
v 0.04696192 -0.04149938 -0.01812830
v 0.04847658 -0.03924454 -0.01709142
v 0.05029712 -0.03804030 -0.01409582
v 0.04958243 -0.03708976 -0.01619907
v 0.04490021 -0.03279450 -0.01929245
v 0.04347672 -0.03707190 -0.01941469
v 0.04777366 -0.03707190 -0.01834474
v 0.04561196 -0.03564610 -0.01932481
f 1 2 3
f 1 3 4
f 1 4 5
f 1 5 6
f 1 6 7
f 1 7 8
f 1 8 9
f 1 9 2
f 2 10 11
f 2 11 24
f 2 24 13
f 2 13 4
f 2 4 3
f 2 9 12
f 2 12 10
f 4 13 5
f 5 13 14
f 5 14 15
f 5 15 6
f 6 15 7
f 7 15 31
f 7 31 47
f 7 47 32
f 7 32 16
f 7 16 8
f 8 17 9
f 8 16 17
f 9 17 18
f 9 18 19
f 9 19 12
f 10 20 11
f 10 12 21
f 10 21 22
f 10 22 20
f 11 23 24
f 11 20 25
f 11 25 26
f 11 26 23
f 12 19 27
f 12 27 21
f 13 24 28
f 13 28 41
f 13 41 45
f 13 45 29
f 13 29 14
f 14 29 15
f 15 30 31
f 15 29 30
f 16 32 33
f 16 33 17
f 17 33 18
f 18 33 34
f 18 34 19
f 19 35 27
f 19 34 35
f 20 22 36
f 20 36 37
f 20 37 25
f 21 27 38
f 21 38 39
f 21 39 22
f 22 39 40
f 22 40 36
f 23 28 24
f 23 26 41
f 23 41 28
f 25 37 42
f 25 42 26
f 26 42 43
f 26 43 44
f 26 44 45
f 26 45 41
f 27 35 38
f 29 45 30
f 30 45 44
f 30 44 31
f 31 46 47
f 31 44 48
f 31 48 49
f 31 49 50
f 31 50 51
f 31 51 46
f 32 47 34
f 32 34 33
f 34 47 46
f 34 46 35
f 35 46 52
f 35 52 38
f 36 40 53
f 36 53 54
f 36 54 55
f 36 55 56
f 36 56 37
f 37 56 42
f 38 52 39
f 39 52 40
f 40 52 53
f 42 56 57
f 42 57 58
f 42 58 43
f 43 58 44
f 44 58 59
f 44 59 48
f 46 51 60
f 46 60 61
f 46 61 52
f 48 59 57
f 48 57 62
f 48 62 49
f 49 62 55
f 49 55 50
f 50 63 51
f 50 55 63
f 51 63 60
f 52 61 53
f 53 55 54
f 53 61 60
f 53 60 63
f 53 63 55
f 55 62 56
f 56 62 57
f 57 59 58

