# https://github.com/mikedh/trimesh
v 0.03395981 -0.01878127 -0.01092435
v 0.03587983 -0.02572531 -0.01092435
v 0.03395981 -0.01760699 -0.00846249
v 0.03395981 -0.00292179 -0.01092435
v 0.05297188 -0.02702531 -0.01089530
v 0.05293270 -0.02967345 -0.01084322
v 0.03774890 -0.03024588 -0.01081618
v 0.03786841 -0.03024588 -0.00855263
v 0.03836801 -0.03024588 -0.00571818
v 0.03395981 -0.01496419 -0.00395141
v 0.03395981 -0.01647818 -0.00628207
v 0.03395981 -0.00292179 -0.00069430
v 0.04638701 -0.00292179 -0.00319522
v 0.04448463 -0.00306891 -0.01047664
v 0.05009577 -0.01276809 -0.01086626
v 0.05218820 -0.01924670 -0.01080816
v 0.05282886 -0.02139464 -0.00996184
v 0.05345188 -0.02423271 -0.00855263
v 0.05341662 -0.02708415 -0.00926474
v 0.05346168 -0.02973498 -0.00860271
v 0.03904785 -0.03024588 -0.00336849
v 0.03395981 -0.01345019 -0.00224874
v 0.04729216 -0.00488517 -0.00124717
v 0.04638505 -0.00335512 -0.00130726
v 0.03395981 -0.01212344 -0.00085055
v 0.03885781 -0.02712695 -0.00069430
v 0.05305808 -0.02013477 -0.00070432
v 0.04893201 -0.00734072 -0.00327735
v 0.04845788 -0.00642858 -0.00499004
v 0.04656138 -0.00340060 -0.00563505
v 0.04570913 -0.00309299 -0.00825516
v 0.04565231 -0.00445183 -0.01024628
v 0.04863029 -0.00826356 -0.00882105
v 0.05000369 -0.01127015 -0.00943902
v 0.05123994 -0.01421521 -0.00938093
v 0.05249384 -0.01816336 -0.00874593
v 0.05207848 -0.01639526 -0.00855263
v 0.05339899 -0.02138127 -0.00712739
v 0.05382217 -0.02423271 -0.00570316
v 0.05377711 -0.02708415 -0.00712739
v 0.05376339 -0.02973498 -0.00651443
v 0.05389270 -0.02973498 -0.00427792
v 0.05368503 -0.02973498 -0.00142144
v 0.03974729 -0.02994094 -0.00121612
v 0.05102639 -0.01263702 -0.00101781
v 0.05343033 -0.02173971 -0.00142144
v 0.05340682 -0.01995555 -0.00427792
v 0.05284649 -0.01735822 -0.00383222
v 0.05176305 -0.01354649 -0.00356580
v 0.05091080 -0.01127015 -0.00356580
v 0.04916320 -0.00784361 -0.00570316
v 0.04832662 -0.00674690 -0.00705027
v 0.04695518 -0.00513928 -0.00842342
v 0.04989202 -0.00997015 -0.00784952
v 0.05108321 -0.01281357 -0.00783951
v 0.05195701 -0.01496954 -0.00712739
v 0.05267604 -0.01665740 -0.00553590
v 0.05314037 -0.01924402 -0.00641427
v 0.05380650 -0.02280699 -0.00356580
v 0.05397499 -0.02708415 -0.00463448
v 0.05381825 -0.02779567 -0.00213957
v 0.05223130 -0.01496954 -0.00427792
v 0.05144370 -0.01277612 -0.00529752
v 0.05020940 -0.00999155 -0.00570316
f 1 2 3
f 1 3 11
f 1 11 10
f 1 10 22
f 1 22 25
f 1 25 12
f 1 12 4
f 1 4 2
f 2 4 5
f 2 5 6
f 2 6 7
f 2 7 8
f 2 8 9
f 2 9 10
f 2 10 11
f 2 11 3
f 4 12 13
f 4 13 14
f 4 14 15
f 4 15 5
f 5 16 17
f 5 17 18
f 5 18 19
f 5 19 6
f 5 15 16
f 6 19 20
f 6 20 7
f 7 20 21
f 7 21 9
f 7 9 8
f 9 21 22
f 9 22 10
f 12 23 24
f 12 24 13
f 12 25 26
f 12 26 27
f 12 27 23
f 13 24 23
f 13 23 28
f 13 28 29
f 13 29 30
f 13 30 31
f 13 31 14
f 14 31 32
f 14 32 15
f 15 32 33
f 15 33 34
f 15 34 35
f 15 35 16
f 16 36 17
f 16 35 37
f 16 37 36
f 17 36 38
f 17 38 18
f 18 38 39
f 18 39 40
f 18 40 19
f 19 40 20
f 20 41 21
f 20 40 41
f 21 41 42
f 21 42 43
f 21 43 44
f 21 44 26
f 21 26 22
f 22 26 25
f 23 27 45
f 23 45 28
f 26 44 43
f 26 43 27
f 27 43 46
f 27 46 47
f 27 47 48
f 27 48 49
f 27 49 45
f 28 50 29
f 28 45 50
f 29 50 51
f 29 51 52
f 29 52 30
f 30 52 31
f 31 52 53
f 31 53 32
f 32 53 33
f 33 53 52
f 33 52 54
f 33 54 34
f 34 55 35
f 34 54 55
f 35 56 37
f 35 55 56
f 36 57 58
f 36 58 38
f 36 37 57
f 37 56 57
f 38 59 39
f 38 58 47
f 38 47 59
f 39 59 60
f 39 60 40
f 40 60 41
f 41 60 42
f 42 60 61
f 42 61 43
f 43 61 46
f 45 49 50
f 46 59 47
f 46 61 59
f 47 58 57
f 47 57 48
f 48 57 62
f 48 62 49
f 49 62 63
f 49 63 50
f 50 63 64
f 50 64 51
f 51 54 52
f 51 64 54
f 54 64 63
f 54 63 55
f 55 63 56
f 56 63 57
f 57 63 62
f 59 61 60

