# https://github.com/mikedh/trimesh
v 0.01525778 0.00924327 -0.01279909
v 0.01580570 0.00924327 -0.01081202
v 0.01758078 0.01638503 -0.01211869
v 0.01849868 0.01863646 -0.01288303
v 0.01738025 0.00437967 -0.01886081
v 0.01749040 -0.01217531 -0.01990792
v 0.01738025 -0.01437329 -0.01862002
v 0.01738025 -0.01588983 -0.01698420
v 0.01738025 -0.01671157 -0.01517275
v 0.01738025 -0.01689195 -0.01358442
v 0.01738025 -0.01590319 -0.01164595
v 0.01738025 -0.01353151 -0.01079766
v 0.01699614 0.00973765 -0.00996594
v 0.01805385 0.01638503 -0.01083853
v 0.01844361 0.01817548 -0.01127814
v 0.01738025 -0.00214078 -0.00950314
v 0.01949143 0.02092128 -0.01161502
v 0.02403575 0.03172411 -0.01164484
v 0.02686006 0.03826459 -0.01236832
v 0.02409223 0.03169071 -0.01303657
v 0.01982611 0.02163613 -0.01301447
v 0.01760196 0.00235539 -0.01951360
v 0.02965754 0.04368271 -0.01325526
v 0.01764574 -0.00973015 -0.02008575
v 0.01863283 -0.01104626 -0.01999076
v 0.02538294 -0.02257729 -0.01611492
v 0.02538294 -0.02404706 -0.01554277
v 0.02538294 -0.02356605 -0.01389258
v 0.02460908 -0.02170211 -0.01264114
v 0.02538294 -0.01112643 -0.01032602
v 0.02650278 0.02692730 -0.00889343
v 0.02707188 0.03565909 -0.00997478
v 0.01959310 0.01760761 -0.01015923
v 0.02680922 0.03749630 -0.01109257
v 0.02945137 0.02359360 -0.00889343
v 0.02726817 0.02382074 -0.00889343
v 0.02613421 0.02491639 -0.00889343
v 0.02857301 0.04191230 -0.01170559
v 0.02843603 0.04152482 -0.01296919
v 0.01932338 -0.00158627 -0.01997640
v 0.01817247 -0.00782612 -0.02013545
v 0.02968014 0.04203256 -0.01370702
v 0.02968014 0.04062291 -0.01402071
v 0.02968014 0.04420381 -0.01169234
v 0.01961428 -0.00841403 -0.02009901
v 0.01924853 -0.00640980 -0.02017743
v 0.02538294 -0.02109416 -0.01625851
v 0.02968437 0.00924327 -0.01517938
v 0.02020457 -0.00640980 -0.02006145
v 0.02968437 0.00924327 -0.01129581
v 0.02778502 0.02761543 -0.00889343
v 0.02968014 0.04107720 -0.01041880
v 0.02968014 0.04251357 -0.01071703
v 0.02968437 0.02213050 -0.01071040
v 0.02945137 0.02773568 -0.00889343
v 0.02012831 -0.00356378 -0.02001506
v 0.02968014 0.03872557 -0.01420959
v 0.02057737 -0.00498679 -0.01987810
v 0.02968155 0.02281195 -0.01492091
v 0.02968014 0.03495760 -0.01442387
v 0.02968014 0.03349452 -0.01450450
v 0.02968014 0.03207151 -0.01457740
v 0.02968014 0.03064850 -0.01464478
v 0.02968014 0.02637280 -0.01480715
f 1 2 3
f 1 3 4
f 1 4 5
f 1 5 6
f 1 6 7
f 1 7 8
f 1 8 9
f 1 9 10
f 1 10 11
f 1 11 12
f 1 12 2
f 2 13 14
f 2 14 15
f 2 15 3
f 2 12 16
f 2 16 13
f 3 15 17
f 3 17 4
f 4 17 18
f 4 18 19
f 4 19 20
f 4 20 21
f 4 21 5
f 5 22 6
f 5 21 20
f 5 20 23
f 5 23 22
f 6 24 25
f 6 25 26
f 6 26 27
f 6 27 7
f 6 22 24
f 7 27 8
f 8 27 9
f 9 27 10
f 10 27 28
f 10 28 11
f 11 28 29
f 11 29 12
f 12 29 30
f 12 30 16
f 13 16 31
f 13 31 32
f 13 32 33
f 13 33 14
f 14 33 32
f 14 32 34
f 14 34 15
f 15 34 18
f 15 18 17
f 16 30 35
f 16 35 36
f 16 36 37
f 16 37 31
f 18 34 38
f 18 38 19
f 19 38 39
f 19 39 20
f 20 39 23
f 22 40 41
f 22 41 24
f 22 23 42
f 22 42 43
f 22 43 40
f 23 44 42
f 23 39 44
f 24 45 25
f 24 41 46
f 24 46 45
f 25 45 26
f 26 47 48
f 26 48 27
f 26 45 49
f 26 49 47
f 27 48 50
f 27 50 28
f 28 50 30
f 28 30 29
f 30 50 35
f 31 37 36
f 31 36 35
f 31 35 55
f 31 55 51
f 31 51 52
f 31 52 32
f 32 52 53
f 32 53 34
f 34 53 44
f 34 44 38
f 35 54 52
f 35 52 55
f 35 50 54
f 38 44 39
f 40 56 46
f 40 46 41
f 40 43 57
f 40 57 56
f 42 44 54
f 42 54 48
f 42 48 43
f 43 48 57
f 44 53 54
f 45 46 49
f 46 56 49
f 47 49 48
f 48 49 58
f 48 58 59
f 48 59 57
f 48 54 50
f 49 56 58
f 51 55 52
f 52 54 53
f 56 57 60
f 56 60 61
f 56 61 62
f 56 62 63
f 56 63 58
f 57 59 60
f 58 63 64
f 58 64 59
f 59 64 63
f 59 63 62
f 59 62 61
f 59 61 60

