# https://github.com/mikedh/trimesh
v 0.01276067 0.00213602 0.01734571
v 0.01788574 0.00360591 0.01723609
v 0.01786407 0.00449070 0.01718894
v 0.01276067 0.00258792 0.01731624
v 0.01276067 -0.01289829 0.01653943
v 0.01790841 0.00527322 0.01666792
v 0.01790841 -0.01487956 0.01616930
v 0.01781973 0.00521138 0.01672921
v 0.01674644 0.00447881 0.01718422
v 0.01276067 0.00311119 0.01725613
v 0.01276067 -0.01354048 0.01650171
v 0.01790841 0.00633877 0.01488443
v 0.01786407 0.00593443 0.01601488
v 0.01786407 -0.01496994 0.01616458
v 0.01786407 -0.01614253 0.01589818
v 0.01790841 -0.01685845 0.01504239
v 0.01276067 0.00343228 0.01701684
v 0.01276067 -0.01503892 0.01605260
v 0.01790841 0.00661943 0.01363257
v 0.01781973 0.00630310 0.01496695
v 0.01698680 0.00574891 0.01582274
v 0.01276067 0.00437891 0.01587342
v 0.01276067 0.00416009 0.01618226
v 0.01276067 -0.01569537 0.01570014
v 0.01778093 -0.01689175 0.01501292
v 0.01790841 -0.01696548 0.01488561
v 0.01790841 0.00695480 0.01211667
v 0.01276067 0.00445502 0.01561291
v 0.01276067 -0.01581192 0.01496695
v 0.01276067 -0.01610923 0.01276028
v 0.01276067 -0.01626145 0.01133396
v 0.01790841 -0.01710819 0.01354063
v 0.01790841 0.00719026 0.01069624
v 0.01276067 0.00456919 0.01496812
v 0.01276067 -0.01612826 0.00988760
v 0.01790841 -0.01692504 0.00900352
v 0.01790841 0.00700712 0.00926875
v 0.01276067 0.00474520 0.01211549
v 0.01276067 0.00478563 0.01359367
v 0.01276067 -0.01574057 0.00846364
v 0.01790841 -0.01650406 0.00791905
v 0.01790841 0.00630310 0.00840353
v 0.01276067 0.00310405 0.00530335
v 0.01276067 0.00416961 0.00887268
v 0.01276067 0.00434799 0.00962002
v 0.01790841 -0.01629951 0.00766090
v 0.01790841 -0.01643984 0.00781060
v 0.01276067 -0.01491761 0.00771748
v 0.01790841 0.00137253 0.00530335
v 0.01308568 0.00301367 0.00530335
v 0.01276067 -0.00551314 0.00530335
v 0.01790841 -0.01522444 0.00720943
v 0.01276067 -0.01159965 0.00530571
v 0.01790841 -0.00495896 0.00530335
v 0.01540156 -0.00551314 0.00530335
v 0.01359310 -0.01124764 0.00530571
v 0.01401637 -0.01101217 0.00530571
v 0.01517078 -0.01036760 0.00530571
v 0.01629899 -0.00940670 0.00530571
v 0.01653582 -0.00916885 0.00530571
v 0.01750429 -0.00802957 0.00530571
v 0.01790841 -0.00734932 0.00530571
f 1 2 3
f 1 3 4
f 1 4 10
f 1 10 17
f 1 17 23
f 1 23 22
f 1 22 28
f 1 28 34
f 1 34 39
f 1 39 38
f 1 38 45
f 1 45 44
f 1 44 43
f 1 43 51
f 1 51 53
f 1 53 48
f 1 48 40
f 1 40 35
f 1 35 31
f 1 31 30
f 1 30 29
f 1 29 24
f 1 24 18
f 1 18 11
f 1 11 5
f 1 5 2
f 2 6 3
f 2 5 7
f 2 7 6
f 3 6 8
f 3 8 9
f 3 9 4
f 4 9 10
f 5 11 7
f 6 12 13
f 6 13 8
f 6 7 16
f 6 16 26
f 6 26 32
f 6 32 36
f 6 36 41
f 6 41 47
f 6 47 46
f 6 46 52
f 6 52 62
f 6 62 54
f 6 54 49
f 6 49 42
f 6 42 37
f 6 37 33
f 6 33 27
f 6 27 19
f 6 19 12
f 7 11 14
f 7 14 15
f 7 15 16
f 8 13 9
f 9 13 17
f 9 17 10
f 11 18 15
f 11 15 14
f 12 19 20
f 12 20 13
f 13 20 21
f 13 21 22
f 13 22 23
f 13 23 17
f 15 24 25
f 15 25 16
f 15 18 24
f 16 25 26
f 19 27 20
f 20 27 28
f 20 28 22
f 20 22 21
f 24 29 26
f 24 26 25
f 26 29 30
f 26 30 31
f 26 31 32
f 27 33 34
f 27 34 28
f 31 35 36
f 31 36 32
f 33 37 38
f 33 38 39
f 33 39 34
f 35 40 36
f 36 40 41
f 37 42 43
f 37 43 44
f 37 44 45
f 37 45 38
f 40 46 47
f 40 47 41
f 40 48 46
f 42 49 50
f 42 50 43
f 43 50 49
f 43 49 54
f 43 54 55
f 43 55 51
f 46 48 53
f 46 53 52
f 51 55 53
f 52 53 56
f 52 56 57
f 52 57 58
f 52 58 59
f 52 59 60
f 52 60 61
f 52 61 62
f 53 55 54
f 53 54 56
f 54 62 61
f 54 61 60
f 54 60 59
f 54 59 58
f 54 58 57
f 54 57 56

