# https://github.com/mikedh/trimesh
v 0.04956451 -0.01023185 -0.00069330
v 0.03235415 -0.01023185 -0.00069330
v 0.04909305 -0.01023185 0.00028438
v 0.04997964 -0.01129400 0.00019602
v 0.05016114 -0.01101965 -0.00069330
v 0.03908184 -0.02777298 -0.00069330
v 0.03825991 -0.02637964 0.00205012
v 0.03623639 -0.01023185 0.00418601
v 0.04860282 -0.01023185 0.00113883
v 0.05016114 -0.01215626 0.00068796
v 0.05072647 -0.01211903 -0.00069330
v 0.04871755 -0.01110783 0.00213800
v 0.04974183 -0.01170553 0.00114647
v 0.03884193 -0.02785529 0.00205012
v 0.03964091 -0.02916631 -0.00069330
v 0.03642205 -0.01062967 0.00418601
v 0.04649377 -0.01023185 0.00418601
v 0.04801662 -0.01023185 0.00213895
v 0.04996713 -0.01265598 0.00154385
v 0.05131892 -0.01425116 0.00000593
v 0.05116246 -0.01317530 -0.00069330
v 0.04847765 -0.01139395 0.00286254
v 0.03996426 -0.02989140 -0.00069330
v 0.04012489 -0.03025002 -0.00069330
v 0.03962422 -0.02871951 0.00205012
v 0.03766746 -0.01317530 0.00418601
v 0.04719052 -0.01123717 0.00418601
v 0.04676287 -0.01023185 0.00386553
v 0.04752430 -0.01023185 0.00287973
v 0.04978355 -0.01317530 0.00207018
v 0.05004640 -0.01317530 0.00167423
v 0.05208244 -0.02067305 0.00205012
v 0.04863620 -0.01211903 0.00304881
v 0.05258727 -0.02067305 0.00108820
v 0.05280840 -0.01983234 0.00015494
v 0.05141489 -0.01391214 -0.00069330
v 0.04800828 -0.01211903 0.00376284
v 0.04028552 -0.03025002 -0.00025389
v 0.05352185 -0.03025002 -0.00069330
v 0.04091552 -0.03025002 0.00117417
v 0.04074864 -0.02966799 0.00205012
v 0.04147668 -0.03025002 0.00205012
v 0.05291688 -0.03025002 0.00197895
v 0.04816682 -0.01317530 0.00408571
v 0.04761400 -0.01211903 0.00418601
v 0.05000885 -0.01354568 0.00190827
v 0.04956034 -0.01317530 0.00236821
v 0.05222012 -0.02163525 0.00205012
v 0.05269575 -0.02185082 0.00129740
v 0.04876553 -0.01317530 0.00340272
v 0.05288559 -0.02067305 0.00037560
v 0.05319225 -0.02068089 -0.00069330
v 0.05291688 -0.01960306 -0.00069330
v 0.05366162 -0.02922315 -0.00069330
v 0.05335496 -0.03025002 0.00031447
v 0.05306082 -0.03025002 0.00155244
v 0.05297320 -0.02930153 0.00203340
v 0.05283343 -0.02779454 0.00205012
v 0.05231608 -0.02222903 0.00202337
v 0.05274373 -0.02280126 0.00142683
v 0.05289393 -0.02223296 0.00077775
v 0.05329655 -0.02209578 -0.00069330
v 0.05341754 -0.02922315 0.00071280
v 0.05328821 -0.03025002 0.00071280
f 1 2 8
f 1 8 17
f 1 17 28
f 1 28 29
f 1 29 18
f 1 18 9
f 1 9 3
f 1 3 4
f 1 4 5
f 1 5 11
f 1 11 21
f 1 21 36
f 1 36 53
f 1 53 52
f 1 52 62
f 1 62 54
f 1 54 39
f 1 39 24
f 1 24 23
f 1 23 15
f 1 15 6
f 1 6 2
f 2 6 7
f 2 7 8
f 3 9 4
f 4 10 11
f 4 11 5
f 4 9 12
f 4 12 13
f 4 13 10
f 6 14 7
f 6 15 14
f 7 14 8
f 8 14 16
f 8 16 26
f 8 26 45
f 8 45 27
f 8 27 17
f 9 18 12
f 10 13 19
f 10 19 20
f 10 20 11
f 11 20 21
f 12 18 22
f 12 22 13
f 13 22 19
f 14 15 23
f 14 23 24
f 14 24 25
f 14 25 26
f 14 26 16
f 17 27 22
f 17 22 28
f 18 29 22
f 19 30 31
f 19 31 32
f 19 32 20
f 19 22 33
f 19 33 30
f 20 32 34
f 20 34 35
f 20 35 36
f 20 36 21
f 22 29 28
f 22 27 37
f 22 37 33
f 24 38 25
f 24 39 55
f 24 55 64
f 24 64 56
f 24 56 43
f 24 43 42
f 24 42 40
f 24 40 38
f 25 38 40
f 25 40 41
f 25 41 26
f 26 41 42
f 26 42 43
f 26 43 44
f 26 44 45
f 27 45 37
f 30 32 46
f 30 46 31
f 30 33 47
f 30 47 32
f 31 46 32
f 32 48 49
f 32 49 34
f 32 47 50
f 32 50 44
f 32 44 48
f 33 50 47
f 33 37 44
f 33 44 50
f 34 49 51
f 34 51 35
f 35 51 52
f 35 52 53
f 35 53 36
f 37 45 44
f 39 54 55
f 40 42 41
f 43 56 57
f 43 57 44
f 44 57 58
f 44 58 48
f 48 58 59
f 48 59 49
f 49 59 60
f 49 60 51
f 51 60 61
f 51 61 52
f 52 61 62
f 54 62 63
f 54 63 64
f 54 64 55
f 56 64 63
f 56 63 57
f 57 63 60
f 57 60 58
f 58 60 59
f 60 63 61
f 61 63 62

