# https://github.com/mikedh/trimesh
v -0.01069687 -0.02301959 0.00952880
v -0.00927963 -0.03376882 0.00697048
v -0.00927963 -0.03493451 0.00702191
v -0.00927963 -0.04015017 0.00860746
v -0.01069687 -0.02301959 0.01342647
v -0.01069687 -0.01658295 0.00973233
v 0.00047080 -0.04015017 0.00767845
v -0.00071543 -0.04015017 0.00760514
v -0.00875834 -0.00593969 0.00783164
v 0.00244339 -0.00497672 0.00783930
v 0.00244339 -0.00629907 0.00781304
v -0.00119377 -0.04015017 0.00763140
v -0.00261842 -0.04015017 0.00778021
v -0.00852287 -0.04015017 0.00850679
v -0.00927963 -0.04015017 0.01254671
v 0.00071071 -0.00641886 0.01806057
v 0.00071071 -0.00499515 0.01814920
v -0.01069687 -0.01782236 0.01366611
v -0.01069687 -0.01659216 0.01370113
v -0.00875834 -0.00593969 0.01397797
v 0.00170885 -0.04015017 0.00812709
v 0.00350077 -0.02301959 0.00830764
v 0.00404427 -0.02301959 0.00848053
v -0.00311305 0.00691977 0.01002668
v -0.00195940 0.00691977 0.00992382
v -0.00114934 0.00691977 0.00990413
v 0.00244339 0.00340427 0.00924868
v 0.00441006 -0.02301959 0.00926947
v -0.00783720 -0.04015017 0.01238476
v 0.00244339 -0.01348673 0.01727272
v 0.00071071 -0.00926628 0.01775856
v 0.00071071 -0.00784718 0.01791832
v 0.00228938 -0.01068999 0.01763272
v 0.00213684 -0.00214313 0.01805400
v 0.00228938 -0.00056737 0.01805947
v 0.00071071 -0.00356684 0.01812841
v 0.00071071 -0.00214313 0.01800257
v 0.00061593 -0.00069638 0.01762615
v -0.00311305 0.00691516 0.01386745
v -0.00311305 0.00691977 0.01314854
v 0.00231011 -0.04015017 0.00904187
v -0.00035408 0.00691977 0.01024881
v 0.00244339 0.00445477 0.00971373
v 0.00443228 -0.02301959 0.01068541
v 0.00244339 0.00493855 0.01064493
v -0.00214008 -0.04015017 0.01171509
v -0.00057770 -0.04015017 0.01151375
v -0.00000458 -0.04015017 0.01139667
v 0.00062037 -0.04015017 0.01123034
v 0.00198578 -0.04015017 0.01042280
v 0.00424124 -0.02301959 0.01131022
v 0.00236638 0.00086094 0.01787126
v -0.00213860 0.00691516 0.01371864
v 0.00022052 0.00691977 0.01291437
v 0.00221385 0.00204967 0.01740840
v 0.00244339 0.00259335 0.01718627
v 0.00017757 0.00691977 0.01089003
v 0.00244339 0.00497542 0.01185953
v 0.00244339 0.00468515 0.01347681
v 0.00244339 0.00433958 0.01434016
v 0.00244339 0.00303106 0.01670700
v 0.00039527 0.00691977 0.01158050
v 0.00041748 0.00691977 0.01211886
v -0.00056733 0.00691516 0.01322404
f 1 2 3
f 1 3 4
f 1 4 15
f 1 15 5
f 1 5 18
f 1 18 19
f 1 19 6
f 1 6 2
f 2 7 8
f 2 8 3
f 2 6 9
f 2 9 10
f 2 10 11
f 2 11 7
f 3 8 12
f 3 12 13
f 3 13 14
f 3 14 4
f 4 14 13
f 4 13 12
f 4 12 8
f 4 8 7
f 4 7 21
f 4 21 41
f 4 41 50
f 4 50 49
f 4 49 48
f 4 48 47
f 4 47 46
f 4 46 29
f 4 29 15
f 5 16 17
f 5 17 18
f 5 15 16
f 6 19 20
f 6 20 9
f 7 11 22
f 7 22 23
f 7 23 21
f 9 20 40
f 9 40 24
f 9 24 25
f 9 25 26
f 9 26 27
f 9 27 10
f 10 27 28
f 10 28 23
f 10 23 11
f 11 23 22
f 15 29 30
f 15 30 31
f 15 31 32
f 15 32 16
f 16 32 33
f 16 33 17
f 17 34 35
f 17 35 36
f 17 36 19
f 17 19 18
f 17 33 34
f 19 36 20
f 20 36 37
f 20 37 38
f 20 38 39
f 20 39 40
f 21 23 41
f 23 28 41
f 24 40 54
f 24 54 63
f 24 63 62
f 24 62 57
f 24 57 42
f 24 42 26
f 24 26 25
f 26 42 43
f 26 43 27
f 27 43 28
f 28 44 41
f 28 43 45
f 28 45 44
f 29 46 30
f 30 33 31
f 30 46 47
f 30 47 48
f 30 48 49
f 30 49 50
f 30 50 51
f 30 51 52
f 30 52 35
f 30 35 33
f 31 33 32
f 33 35 34
f 35 52 37
f 35 37 36
f 37 52 38
f 38 52 39
f 39 53 54
f 39 54 40
f 39 52 55
f 39 55 56
f 39 56 53
f 41 44 50
f 42 57 43
f 43 57 45
f 44 51 50
f 44 45 58
f 44 58 59
f 44 59 60
f 44 60 61
f 44 61 56
f 44 56 52
f 44 52 51
f 45 57 62
f 45 62 63
f 45 63 58
f 52 56 55
f 53 64 54
f 53 56 61
f 53 61 64
f 54 64 61
f 54 61 60
f 54 60 59
f 54 59 63
f 58 63 59

