# https://github.com/mikedh/trimesh
v -0.01859767 -0.04992936 -0.00847562
v -0.01563664 -0.05403467 -0.00833188
v -0.01708276 -0.05308973 -0.00404723
v -0.01994060 -0.04927247 -0.00357511
v -0.00699132 -0.04903476 -0.00380194
v -0.00611199 -0.05035558 -0.00847562
v -0.00883972 -0.06099707 -0.00847562
v -0.01544970 -0.05464005 -0.00641308
v -0.01427875 -0.05560139 -0.00796394
v -0.01698256 -0.05332625 -0.00213766
v -0.01865300 -0.05119163 -0.00246340
v -0.01555438 -0.05475714 -0.00498882
v -0.01561271 -0.05482154 -0.00356324
v -0.02001089 -0.04935443 -0.00209678
v -0.01958019 -0.04904881 0.00358180
v -0.00699132 -0.04903476 0.00111704
v -0.00473316 -0.04990360 -0.00372940
v -0.00473316 -0.05216820 -0.00547676
v -0.00560203 -0.05305108 -0.00847562
v -0.00560203 -0.06099707 -0.00847562
v -0.00908199 -0.06099707 -0.00674145
v -0.01451503 -0.05586251 -0.00498882
v -0.01441633 -0.05576064 -0.00641308
v -0.01828661 -0.05173963 -0.00071340
v -0.01562467 -0.05483911 -0.00213766
v -0.01697359 -0.05331571 -0.00071340
v -0.01913305 -0.05060967 -0.00071340
v -0.01456737 -0.05592340 -0.00356324
v -0.01995107 -0.04940712 -0.00071340
v -0.01990022 -0.04929706 0.00071218
v -0.01942765 -0.04962375 0.00224326
v -0.01838830 -0.05112723 0.00213776
v -0.01848551 -0.05057806 0.00356202
v -0.01873375 -0.04953710 0.00491770
v -0.00877243 -0.04913663 0.00499419
v -0.00473316 -0.04990360 0.00048931
v -0.00473615 -0.05216820 0.00102209
v -0.00560203 -0.06099707 0.00499683
v -0.00923154 -0.06099707 -0.00521565
v -0.01350559 -0.05697724 -0.00356324
v -0.01691078 -0.05323609 0.00071218
v -0.01863505 -0.05117290 0.00054206
v -0.01457336 -0.05592691 -0.00213766
v -0.01559925 -0.05482037 -0.00071340
v -0.01554691 -0.05476182 0.00071218
v -0.01690330 -0.05297731 0.00205072
v -0.01527324 -0.05445153 0.00367411
v -0.01470346 -0.05467634 0.00499287
v -0.00589813 -0.05217756 0.00499419
v -0.00520872 -0.05216820 0.00356202
v -0.00751773 -0.06091862 0.00499551
v -0.00837314 -0.06099707 0.00351058
v -0.00924051 -0.06099707 -0.00377292
v -0.01239147 -0.05803343 -0.00356324
v -0.01350260 -0.05697607 -0.00213766
v -0.01543176 -0.05461546 0.00233029
v -0.01448812 -0.05581684 0.00071218
v -0.01437745 -0.05571146 0.00262965
v -0.01371047 -0.05574893 0.00476340
v -0.00872158 -0.06099707 0.00188323
v -0.00914779 -0.06099707 -0.00237900
v -0.01195628 -0.05829455 -0.00071340
v -0.01308237 -0.05725827 -0.00071340
v -0.01152858 -0.05855567 0.00071218
f 1 2 3
f 1 3 4
f 1 4 5
f 1 5 6
f 1 6 19
f 1 19 20
f 1 20 7
f 1 7 2
f 2 8 3
f 2 7 9
f 2 9 8
f 3 10 11
f 3 11 4
f 3 8 12
f 3 12 13
f 3 13 10
f 4 14 15
f 4 15 5
f 4 11 14
f 5 16 36
f 5 36 17
f 5 17 6
f 5 15 16
f 6 17 18
f 6 18 19
f 7 20 38
f 7 38 52
f 7 52 60
f 7 60 61
f 7 61 53
f 7 53 39
f 7 39 21
f 7 21 22
f 7 22 23
f 7 23 9
f 8 9 23
f 8 23 12
f 10 24 11
f 10 13 25
f 10 25 26
f 10 26 24
f 11 24 27
f 11 27 14
f 12 23 22
f 12 22 13
f 13 22 28
f 13 28 25
f 14 29 30
f 14 30 15
f 14 27 29
f 15 30 31
f 15 31 32
f 15 32 33
f 15 33 34
f 15 34 35
f 15 35 16
f 16 35 36
f 17 36 18
f 18 37 38
f 18 38 20
f 18 20 19
f 18 36 37
f 21 39 22
f 22 39 40
f 22 40 28
f 24 26 41
f 24 41 42
f 24 42 27
f 25 28 43
f 25 43 44
f 25 44 26
f 26 44 45
f 26 45 41
f 27 30 29
f 27 42 30
f 28 40 43
f 30 42 31
f 31 42 32
f 32 42 46
f 32 46 33
f 33 46 47
f 33 47 48
f 33 48 34
f 34 48 35
f 35 38 49
f 35 49 36
f 35 48 38
f 36 50 37
f 36 49 50
f 37 50 38
f 38 51 52
f 38 50 49
f 38 48 51
f 39 53 54
f 39 54 40
f 40 54 55
f 40 55 43
f 41 46 42
f 41 45 56
f 41 56 46
f 43 55 57
f 43 57 44
f 44 57 45
f 45 57 58
f 45 58 56
f 46 56 47
f 47 56 58
f 47 58 48
f 48 58 59
f 48 59 51
f 51 59 52
f 52 59 58
f 52 58 60
f 53 61 55
f 53 55 54
f 55 61 62
f 55 62 63
f 55 63 57
f 57 63 64
f 57 64 58
f 58 64 60
f 60 64 61
f 61 64 62
f 62 64 63

