# https://github.com/mikedh/trimesh
v 0.00823040 0.00413144 -0.00784003
v 0.00841061 0.00577381 -0.00991767
v 0.00648101 0.00374300 -0.00784003
v 0.00405531 -0.01009205 -0.00784003
v 0.00817504 -0.01107226 -0.00784122
v 0.00850993 -0.01455514 -0.01084385
v 0.00850993 0.00589373 -0.01208471
v 0.00641425 0.00582074 -0.01278322
v 0.00550129 0.00575556 -0.01281302
v 0.00296486 0.00510383 -0.01320995
v 0.00296486 0.00474407 -0.01203345
v 0.00539816 0.00447295 -0.00969477
v 0.00653258 0.00464761 -0.00923823
v 0.00296486 0.00372475 -0.01037659
v 0.00296486 0.00325811 -0.00970907
v 0.00533411 0.00311473 -0.00784003
v 0.00319826 -0.00970623 -0.00784003
v 0.00296486 -0.01859851 -0.01015726
v 0.00296486 -0.01953962 -0.01058399
v 0.00299960 -0.02037384 -0.01124436
v 0.00597514 -0.01738107 -0.01110489
v 0.00850993 -0.01526423 -0.01199293
v 0.00850993 0.00356052 -0.01832718
v 0.00834222 0.00456680 -0.01783369
v 0.00817504 0.00540362 -0.01654634
v 0.00817504 0.00587288 -0.01324094
v 0.00641425 0.00541666 -0.01639376
v 0.00296486 0.00520028 -0.01609457
v 0.00296486 0.00523678 -0.01496695
v 0.00296486 0.00144107 -0.00784003
v 0.00296486 -0.02073882 -0.01211928
v 0.00621016 -0.01758181 -0.01211928
v 0.00850993 -0.01586122 -0.01350318
v 0.00850993 -0.01354365 -0.01934037
v 0.00846868 -0.00279000 -0.01998166
v 0.00499053 0.00356052 -0.01815076
v 0.00499053 0.00478057 -0.01762032
v 0.00641425 0.00483531 -0.01763820
v 0.00296486 0.00470496 -0.01753688
v 0.00296486 -0.02036342 -0.01320757
v 0.00572654 -0.01714123 -0.01859061
v 0.00672581 -0.01688836 -0.01781939
v 0.00792536 -0.01609063 -0.01775859
v 0.00850993 -0.01574912 -0.01730564
v 0.00850993 -0.01583515 -0.01653919
v 0.00850993 -0.01592379 -0.01515648
v 0.00850993 -0.01490187 -0.01895655
v 0.00641425 -0.01496704 -0.01946791
v 0.00816364 -0.00546473 -0.02001742
v 0.00836610 -0.00356687 -0.02001146
v 0.00728704 -0.00469829 -0.01993637
v 0.00751013 -0.00356687 -0.01989345
v 0.00296486 0.00356052 -0.01803156
v 0.00296486 -0.01586904 -0.01848571
v 0.00635997 -0.01645039 -0.01894940
v 0.00750741 -0.01601503 -0.01876821
v 0.00507303 -0.01641129 -0.01892317
v 0.00848388 -0.01559010 -0.01817818
v 0.00499053 -0.01496704 -0.01946553
v 0.00712041 -0.00568110 -0.01995901
v 0.00641425 -0.00356687 -0.01964075
v 0.00296486 -0.00468264 -0.01871815
v 0.00296486 -0.01324385 -0.01910912
v 0.00326448 -0.01480802 -0.01901376
f 1 2 3
f 1 3 16
f 1 16 30
f 1 30 17
f 1 17 4
f 1 4 5
f 1 5 6
f 1 6 2
f 2 7 8
f 2 8 9
f 2 9 10
f 2 10 11
f 2 11 12
f 2 12 13
f 2 13 3
f 2 6 7
f 3 13 12
f 3 12 14
f 3 14 15
f 3 15 16
f 4 17 18
f 4 18 5
f 5 18 19
f 5 19 20
f 5 20 21
f 5 21 6
f 6 21 22
f 6 22 33
f 6 33 46
f 6 46 45
f 6 45 44
f 6 44 47
f 6 47 34
f 6 34 23
f 6 23 7
f 7 23 24
f 7 24 25
f 7 25 26
f 7 26 8
f 8 26 27
f 8 27 9
f 9 27 28
f 9 28 29
f 9 29 10
f 10 29 28
f 10 28 39
f 10 39 53
f 10 53 62
f 10 62 63
f 10 63 54
f 10 54 40
f 10 40 31
f 10 31 19
f 10 19 18
f 10 18 30
f 10 30 15
f 10 15 14
f 10 14 11
f 11 14 12
f 15 30 16
f 17 30 18
f 19 31 20
f 20 31 32
f 20 32 22
f 20 22 21
f 22 32 33
f 23 34 35
f 23 35 36
f 23 36 37
f 23 37 24
f 24 37 38
f 24 38 25
f 25 27 26
f 25 38 27
f 27 38 37
f 27 37 39
f 27 39 28
f 31 40 41
f 31 41 42
f 31 42 43
f 31 43 44
f 31 44 45
f 31 45 46
f 31 46 33
f 31 33 32
f 34 47 48
f 34 48 49
f 34 49 50
f 34 50 35
f 35 50 51
f 35 51 52
f 35 52 53
f 35 53 36
f 36 53 39
f 36 39 37
f 40 54 41
f 41 55 56
f 41 56 42
f 41 54 57
f 41 57 55
f 42 56 58
f 42 58 43
f 43 58 44
f 44 58 47
f 47 58 56
f 47 56 55
f 47 55 48
f 48 59 49
f 48 55 59
f 49 59 60
f 49 60 50
f 50 60 51
f 51 61 52
f 51 60 61
f 52 61 53
f 53 61 62
f 54 63 64
f 54 64 57
f 55 57 59
f 57 64 59
f 59 64 63
f 59 63 60
f 60 63 62
f 60 62 61

