# https://github.com/mikedh/trimesh
v 0.03064814 -0.06771780 -0.01918979
v 0.02922340 -0.07181431 -0.01911394
v 0.02780002 -0.07181431 -0.01903810
v 0.02922340 -0.06914267 -0.01910636
v 0.03064814 -0.06675997 -0.01916920
v 0.03207563 -0.06675997 -0.01918003
v 0.03207563 -0.06771780 -0.01910311
v 0.03064814 -0.07056755 -0.01902185
v 0.03084777 -0.07181431 -0.01878132
v 0.02217760 -0.07181431 -0.01848011
v 0.02568341 -0.06675997 -0.01857979
v 0.03344294 -0.06675997 -0.01882032
v 0.03315991 -0.06771780 -0.01875098
v 0.03170235 -0.07056755 -0.01872931
v 0.03147674 -0.07151549 -0.01861880
v 0.03200179 -0.07181431 -0.01785820
v 0.02217760 -0.07181431 -0.00927384
v 0.02217760 -0.07048641 -0.01823416
v 0.02481379 -0.06675997 -0.01832843
v 0.03470224 -0.06675997 -0.01762850
v 0.03411977 -0.06677382 -0.01840535
v 0.03292063 -0.06868998 -0.01862963
v 0.03265127 -0.06963792 -0.01841510
v 0.03281671 -0.07134035 -0.01714961
v 0.03274698 -0.07181431 -0.01639226
v 0.02217760 -0.06733635 -0.00931285
v 0.03043211 -0.07181431 -0.00927384
v 0.02388675 -0.06799041 -0.00812428
v 0.02217760 -0.06910557 -0.01763067
v 0.02410416 -0.06675997 -0.01784845
v 0.03525054 -0.06675997 -0.01639226
v 0.03421684 -0.06843915 -0.01711494
v 0.03439733 -0.06771780 -0.01738580
v 0.03553631 -0.06675997 -0.01534454
v 0.03570586 -0.06690196 -0.01443551
v 0.03598752 -0.06675997 -0.01354597
v 0.03537633 -0.06793054 -0.01354597
v 0.03432350 -0.07006588 -0.01323393
v 0.03331031 -0.07181431 -0.01361207
v 0.02727634 -0.06677036 -0.00812102
v 0.02504214 -0.06675997 -0.00925867
v 0.02376096 -0.06675997 -0.01061951
v 0.02217760 -0.06713697 -0.01091855
v 0.03093528 -0.07181431 -0.00927492
v 0.02850145 -0.06676393 -0.00812102
v 0.02785471 -0.06687475 -0.00812102
v 0.02217760 -0.06840946 -0.01716044
v 0.02378830 -0.06675997 -0.01761442
v 0.03614613 -0.06675997 -0.01211796
v 0.03436315 -0.07014998 -0.01211796
v 0.03398303 -0.07086390 -0.01211796
v 0.03347166 -0.07181431 -0.01211796
v 0.03483077 -0.06675997 -0.01045158
v 0.02334256 -0.06675997 -0.01211796
v 0.02217760 -0.06720821 -0.01211796
v 0.02316071 -0.06675997 -0.01501625
v 0.02312789 -0.06675997 -0.01637059
v 0.03316811 -0.07181431 -0.01125010
v 0.03430435 -0.07003767 -0.01130969
v 0.03584259 -0.06675997 -0.01097273
v 0.02217760 -0.06794291 -0.01643993
v 0.02336444 -0.06675997 -0.01682890
v 0.03606409 -0.06675997 -0.01169757
v 0.02217760 -0.06744520 -0.01503575
f 1 2 3
f 1 3 4
f 1 4 5
f 1 5 6
f 1 6 2
f 2 6 7
f 2 7 8
f 2 8 9
f 2 9 16
f 2 16 25
f 2 25 39
f 2 39 52
f 2 52 58
f 2 58 44
f 2 44 27
f 2 27 17
f 2 17 10
f 2 10 3
f 3 10 4
f 4 10 5
f 5 10 11
f 5 11 19
f 5 19 30
f 5 30 48
f 5 48 62
f 5 62 57
f 5 57 56
f 5 56 54
f 5 54 42
f 5 42 41
f 5 41 53
f 5 53 60
f 5 60 63
f 5 63 49
f 5 49 36
f 5 36 34
f 5 34 31
f 5 31 20
f 5 20 12
f 5 12 6
f 6 12 7
f 7 12 13
f 7 13 14
f 7 14 9
f 7 9 8
f 9 14 15
f 9 15 16
f 10 17 26
f 10 26 43
f 10 43 55
f 10 55 64
f 10 64 61
f 10 61 47
f 10 47 29
f 10 29 18
f 10 18 19
f 10 19 11
f 12 20 21
f 12 21 13
f 13 21 22
f 13 22 15
f 13 15 14
f 15 22 23
f 15 23 16
f 16 23 21
f 16 21 24
f 16 24 25
f 17 27 28
f 17 28 26
f 18 29 19
f 19 29 30
f 20 31 32
f 20 32 33
f 20 33 24
f 20 24 21
f 21 23 22
f 24 33 32
f 24 32 31
f 24 31 34
f 24 34 35
f 24 35 36
f 24 36 25
f 25 36 37
f 25 37 38
f 25 38 39
f 26 28 40
f 26 40 41
f 26 41 42
f 26 42 43
f 27 44 28
f 28 44 45
f 28 45 46
f 28 46 40
f 29 47 48
f 29 48 30
f 34 36 35
f 36 49 38
f 36 38 37
f 38 49 50
f 38 50 51
f 38 51 52
f 38 52 39
f 40 46 45
f 40 45 41
f 41 45 53
f 42 54 43
f 43 54 56
f 43 56 57
f 43 57 55
f 44 58 59
f 44 59 60
f 44 60 53
f 44 53 45
f 47 61 62
f 47 62 48
f 49 63 59
f 49 59 50
f 50 59 51
f 51 59 52
f 52 59 58
f 55 57 64
f 57 62 61
f 57 61 64
f 59 63 60

