# https://github.com/mikedh/trimesh
v 0.01076664 0.00332481 0.00705721
v 0.01213017 0.00343379 0.00494550
v 0.01069042 0.00357564 0.00498633
v 0.01000866 0.00332308 0.00705721
v 0.01276067 0.00251695 0.00705721
v 0.01276067 0.00296326 0.00589635
v 0.01276067 0.00320717 0.00494550
v 0.01276067 0.00322447 0.00412735
v 0.01211493 0.00344590 0.00071039
v 0.01069042 0.00382129 -0.00641374
v 0.00926453 0.00412748 -0.00641374
v 0.00794811 0.00413786 -0.00783857
v 0.00915783 0.00329540 0.00705721
v 0.01276067 -0.01335830 0.00705721
v 0.01276067 0.00321236 0.00356150
v 0.01237822 0.00322101 -0.00363701
v 0.01068904 0.00366560 -0.00783857
v 0.00920079 0.00411191 -0.00783857
v 0.01192232 0.00319334 -0.00641374
v 0.00652360 0.00376420 -0.00783857
v 0.00641413 0.00358948 -0.00498891
v 0.00558409 0.00291655 -0.00124966
v -0.00139571 0.00107594 -0.00783857
v 0.00730099 0.00237856 0.00705721
v 0.01210662 -0.01353475 0.00705721
v 0.00926453 -0.01116653 -0.00783857
v 0.01069042 -0.01077038 -0.00783857
v 0.01185165 -0.01026006 -0.00783857
v 0.01266229 -0.00971860 -0.00783857
v 0.01276067 0.00227303 -0.00783857
v 0.01276067 0.00302554 -0.00342262
v 0.01173940 0.00310684 -0.00783857
v 0.01269831 0.00260171 -0.00655520
v -0.00139571 0.00062963 -0.00736605
v 0.00353741 -0.00218145 0.00705721
v 0.00410139 -0.00117292 0.00705721
v 0.00434527 -0.00078196 0.00705721
v 0.00486907 0.00003628 0.00705721
v 0.00526400 0.00056735 0.00705721
v 0.00618549 0.00157934 0.00705721
v 0.00659705 0.00191321 0.00705721
v -0.00133612 -0.00644218 -0.00783857
v -0.00139571 -0.00568968 -0.00714147
v 0.01132231 -0.01350361 0.00705721
v 0.00783725 -0.01107830 -0.00783857
v 0.01245027 0.00254636 -0.00783857
v -0.00139571 -0.00070758 -0.00648520
v 0.00307458 -0.00356710 0.00705721
v 0.00323394 -0.00300661 0.00705721
v -0.00037999 -0.00745763 -0.00783857
v 0.00536377 -0.01031369 0.00705721
v 0.00369122 -0.00797833 0.00705721
v 0.00304132 -0.00656500 0.00705721
v 0.00281268 -0.00577444 0.00705721
v -0.00139571 -0.00495101 -0.00654499
v 0.00793564 -0.01185675 0.00705721
v 0.00343348 -0.00982759 -0.00783857
v 0.00405705 -0.01009053 -0.00783857
v -0.00139571 -0.00214166 -0.00596019
v 0.00273508 -0.00504789 0.00705721
v 0.00055121 -0.00815478 -0.00783857
v 0.00219604 -0.00918061 -0.00783857
v -0.00139571 -0.00356537 -0.00591352
f 1 2 3
f 1 3 4
f 1 4 13
f 1 13 24
f 1 24 41
f 1 41 40
f 1 40 39
f 1 39 38
f 1 38 37
f 1 37 36
f 1 36 35
f 1 35 49
f 1 49 48
f 1 48 60
f 1 60 54
f 1 54 53
f 1 53 52
f 1 52 51
f 1 51 56
f 1 56 44
f 1 44 25
f 1 25 14
f 1 14 5
f 1 5 6
f 1 6 2
f 2 6 7
f 2 7 8
f 2 8 9
f 2 9 10
f 2 10 11
f 2 11 3
f 3 11 12
f 3 12 13
f 3 13 4
f 5 14 30
f 5 30 31
f 5 31 15
f 5 15 8
f 5 8 7
f 5 7 6
f 8 15 9
f 9 15 16
f 9 16 10
f 10 17 18
f 10 18 11
f 10 16 19
f 10 19 17
f 11 18 12
f 12 18 17
f 12 17 32
f 12 32 46
f 12 46 30
f 12 30 29
f 12 29 28
f 12 28 27
f 12 27 26
f 12 26 45
f 12 45 58
f 12 58 57
f 12 57 62
f 12 62 61
f 12 61 50
f 12 50 42
f 12 42 23
f 12 23 20
f 12 20 21
f 12 21 13
f 13 21 22
f 13 22 23
f 13 23 24
f 14 25 26
f 14 26 27
f 14 27 28
f 14 28 29
f 14 29 30
f 15 31 16
f 16 31 19
f 17 19 32
f 19 31 33
f 19 33 32
f 20 23 21
f 21 23 22
f 23 34 35
f 23 35 36
f 23 36 37
f 23 37 38
f 23 38 39
f 23 39 40
f 23 40 41
f 23 41 24
f 23 42 43
f 23 43 55
f 23 55 63
f 23 63 59
f 23 59 47
f 23 47 34
f 25 44 26
f 26 44 45
f 30 46 33
f 30 33 31
f 32 33 46
f 34 47 48
f 34 48 49
f 34 49 35
f 42 50 51
f 42 51 52
f 42 52 53
f 42 53 43
f 43 53 54
f 43 54 55
f 44 56 57
f 44 57 58
f 44 58 45
f 47 59 60
f 47 60 48
f 50 61 51
f 51 61 62
f 51 62 56
f 54 60 63
f 54 63 55
f 56 62 57
f 59 63 60

