# https://github.com/mikedh/trimesh
v 0.01304274 0.00215360 -0.00808654
v 0.01447752 0.00077471 -0.00808654
v 0.01711020 0.00923225 -0.00997162
v 0.01276067 0.00533605 -0.00942918
v 0.01276067 -0.01037409 -0.00939637
v 0.01313451 -0.00941986 -0.00808654
v 0.01583183 -0.00070906 -0.00808654
v 0.01688599 0.00923225 -0.01409560
v 0.01580109 0.00923225 -0.01081165
v 0.01276067 0.00658191 -0.01026686
v 0.01643304 -0.00198307 -0.00808654
v 0.01737871 -0.00214424 -0.00950182
v 0.01737871 0.00439718 -0.01884169
v 0.01276067 -0.01353863 -0.01040042
v 0.01315259 -0.01475379 -0.01094872
v 0.01721779 -0.01540102 -0.01118890
v 0.01450690 -0.00814074 -0.00808654
v 0.01645158 0.00546141 -0.01851599
v 0.01476230 0.00690937 -0.01761035
v 0.01528984 0.00923225 -0.01347349
v 0.01522113 0.00923225 -0.01212734
v 0.01276067 0.00682495 -0.01185787
v 0.01650221 -0.00340289 -0.00808654
v 0.01737871 -0.01353863 -0.01079525
v 0.01737871 0.00257571 -0.01946614
v 0.01639372 0.00356064 -0.01924354
v 0.01454442 0.00589886 -0.01862377
v 0.01276067 -0.01530637 -0.01216483
v 0.01737871 -0.01640130 -0.01210391
v 0.01570210 -0.00639091 -0.00808654
v 0.01398389 0.00734938 -0.01639308
v 0.01365481 0.00635167 -0.01776735
v 0.01301607 0.00644889 -0.01639308
v 0.01276067 0.00670215 -0.01301423
v 0.01624816 -0.00474852 -0.00808654
v 0.01276067 -0.00388640 -0.01957158
v 0.01276067 -0.00214424 -0.01939116
v 0.01737871 -0.00960917 -0.02004725
v 0.01496934 0.00498302 -0.01888738
v 0.01276067 0.00372692 -0.01855348
v 0.01276067 0.00499325 -0.01806258
v 0.01276067 -0.01532172 -0.01353207
v 0.01737871 -0.01690271 -0.01358362
v 0.01276067 0.00592956 -0.01735612
v 0.01276067 -0.00530878 -0.01961610
v 0.01736877 -0.01588965 -0.01700113
v 0.01735701 -0.01442122 -0.01860737
v 0.01723496 -0.01227230 -0.01994063
v 0.01709664 -0.01068875 -0.02005428
v 0.01390704 -0.01455681 -0.01886278
v 0.01517095 -0.01565429 -0.01772868
v 0.01526362 -0.01594081 -0.01639308
v 0.01688599 -0.01662386 -0.01507036
v 0.01276067 -0.01400934 -0.01781889
v 0.01508823 -0.01341583 -0.01974615
v 0.01276067 -0.00705605 -0.01957510
v 0.01639372 -0.01628873 -0.01639308
v 0.01639372 -0.01565173 -0.01789270
v 0.01639372 -0.01471286 -0.01891433
v 0.01619798 -0.01298605 -0.01983168
v 0.01496934 -0.01481774 -0.01905492
v 0.01276067 -0.01312931 -0.01909475
v 0.01276067 -0.01211369 -0.01937710
v 0.01276067 -0.01101109 -0.01945677
f 1 2 3
f 1 3 4
f 1 4 5
f 1 5 6
f 1 6 17
f 1 17 30
f 1 30 35
f 1 35 23
f 1 23 11
f 1 11 7
f 1 7 2
f 2 7 3
f 3 8 20
f 3 20 21
f 3 21 9
f 3 9 10
f 3 10 4
f 3 7 11
f 3 11 12
f 3 12 13
f 3 13 8
f 4 10 22
f 4 22 34
f 4 34 44
f 4 44 41
f 4 41 40
f 4 40 37
f 4 37 36
f 4 36 45
f 4 45 56
f 4 56 64
f 4 64 63
f 4 63 62
f 4 62 54
f 4 54 42
f 4 42 28
f 4 28 14
f 4 14 5
f 5 14 6
f 6 14 15
f 6 15 16
f 6 16 17
f 8 13 18
f 8 18 19
f 8 19 20
f 9 21 10
f 10 21 22
f 11 23 12
f 12 23 24
f 12 24 29
f 12 29 43
f 12 43 38
f 12 38 25
f 12 25 13
f 13 25 26
f 13 26 27
f 13 27 18
f 14 28 15
f 15 28 29
f 15 29 16
f 16 29 24
f 16 24 30
f 16 30 17
f 18 27 19
f 19 31 20
f 19 27 32
f 19 32 31
f 20 31 33
f 20 33 34
f 20 34 22
f 20 22 21
f 23 35 24
f 24 35 30
f 25 36 37
f 25 37 26
f 25 38 36
f 26 39 27
f 26 37 39
f 27 39 40
f 27 40 41
f 27 41 32
f 28 42 43
f 28 43 29
f 31 32 44
f 31 44 33
f 32 41 44
f 33 44 34
f 36 38 45
f 37 40 39
f 38 43 46
f 38 46 47
f 38 47 48
f 38 48 49
f 38 49 45
f 42 50 51
f 42 51 52
f 42 52 53
f 42 53 43
f 42 54 50
f 43 53 46
f 45 49 55
f 45 55 56
f 46 53 57
f 46 57 58
f 46 58 47
f 47 58 59
f 47 59 48
f 48 60 55
f 48 55 49
f 48 59 60
f 50 61 51
f 50 54 62
f 50 62 55
f 50 55 61
f 51 58 57
f 51 57 52
f 51 61 58
f 52 57 53
f 55 62 63
f 55 63 64
f 55 64 56
f 55 60 61
f 58 61 59
f 59 61 60

