# https://github.com/mikedh/trimesh
v 0.00851177 -0.01593753 -0.01496565
v 0.00851177 -0.01583280 -0.01653921
v 0.01276165 -0.01532251 -0.01352860
v 0.01276165 -0.01530469 -0.01216103
v 0.00851177 -0.01585954 -0.01350129
v 0.00851177 -0.01574589 -0.01730614
v 0.01790841 -0.00734960 0.00530204
v 0.01750274 -0.00803147 0.00530204
v 0.00851177 -0.01557654 -0.01815993
v 0.01276165 -0.01401004 -0.01781742
v 0.01641636 -0.00928823 0.00530204
v 0.01516991 -0.01036674 0.00530204
v 0.01380388 -0.01113105 0.00530204
v 0.01289227 -0.01154552 0.00530204
v 0.00851177 -0.01526458 -0.01198978
v 0.01292355 0.00308560 0.00522261
v 0.01276165 -0.01345519 -0.01896905
v 0.01712191 -0.00582543 -0.00150102
v 0.01650191 -0.00340548 -0.00808317
v 0.01790841 -0.00497644 0.00305586
v 0.01790841 0.00121605 0.00506377
v 0.00851177 -0.01489691 -0.01895664
v 0.00851177 0.00412400 -0.00783994
v 0.00851177 -0.01112214 -0.00783994
v 0.00851177 -0.01455374 -0.01084063
v 0.01276165 0.00677124 -0.01068179
v 0.00851177 0.00579078 -0.00994961
v 0.01276165 -0.01280674 -0.01921973
v 0.01648351 -0.00214203 -0.00808317
v 0.01790841 -0.00356815 0.00212761
v 0.01276165 -0.01211374 -0.01937609
v 0.01276165 -0.01101072 -0.01945552
v 0.01276165 -0.00705769 -0.01957465
v 0.01276165 -0.00530846 -0.01961684
v 0.01276165 -0.00389125 -0.01957217
v 0.01790841 -0.00214425 0.00227901
v 0.01276165 0.00593116 -0.01735578
v 0.01276165 0.00621193 -0.01639278
v 0.01276165 0.00670661 -0.01301235
v 0.01276165 0.00682694 -0.01185575
v 0.00851177 -0.01353986 -0.01934135
v 0.00926792 -0.01353986 -0.01934383
v 0.01211865 0.00664868 -0.01069171
v 0.00851177 0.00589328 -0.01208409
v 0.01276165 -0.00214203 -0.01939098
v 0.01276165 0.00338197 -0.01862406
v 0.01276165 0.00407275 -0.01848259
v 0.01276165 0.00499527 -0.01806065
v 0.00868471 -0.00586331 -0.02001396
v 0.00930747 -0.00501433 -0.02004622
v 0.01014825 -0.00455752 -0.02000651
v 0.01014641 -0.00356815 -0.02000403
v 0.01003419 -0.00282166 -0.01997176
v 0.00851177 0.00485488 -0.01767843
v 0.00851177 0.00518022 -0.01700334
v 0.00851177 0.00544093 -0.01639278
v 0.00851177 0.00587100 -0.01323821
v 0.00851177 -0.00505666 -0.02003133
v 0.00926792 -0.00276595 -0.01998417
v 0.00851177 -0.00281052 -0.01998169
v 0.00851177 0.00356023 -0.01832622
v 0.00851177 0.00425992 -0.01799612
v 0.00926792 -0.00356815 -0.02005367
v 0.00851177 -0.00356815 -0.02001892
f 1 2 3
f 1 3 4
f 1 4 5
f 1 5 15
f 1 15 25
f 1 25 24
f 1 24 23
f 1 23 27
f 1 27 44
f 1 44 57
f 1 57 56
f 1 56 55
f 1 55 54
f 1 54 62
f 1 62 61
f 1 61 60
f 1 60 64
f 1 64 58
f 1 58 41
f 1 41 22
f 1 22 9
f 1 9 6
f 1 6 2
f 2 6 3
f 3 7 8
f 3 8 4
f 3 6 9
f 3 9 10
f 3 10 7
f 4 8 11
f 4 11 12
f 4 12 13
f 4 13 14
f 4 14 5
f 5 14 15
f 7 16 14
f 7 14 13
f 7 13 12
f 7 12 11
f 7 11 8
f 7 10 17
f 7 17 18
f 7 18 19
f 7 19 20
f 7 20 30
f 7 30 36
f 7 36 21
f 7 21 16
f 9 22 17
f 9 17 10
f 14 16 23
f 14 23 24
f 14 24 25
f 14 25 15
f 16 21 26
f 16 26 27
f 16 27 23
f 17 22 28
f 17 28 19
f 17 19 18
f 19 29 30
f 19 30 20
f 19 28 31
f 19 31 32
f 19 32 33
f 19 33 34
f 19 34 35
f 19 35 29
f 21 36 29
f 21 29 37
f 21 37 38
f 21 38 39
f 21 39 40
f 21 40 26
f 22 41 42
f 22 42 28
f 26 40 43
f 26 43 27
f 27 43 44
f 28 42 31
f 29 36 30
f 29 35 45
f 29 45 46
f 29 46 47
f 29 47 48
f 29 48 37
f 31 49 32
f 31 42 49
f 32 49 50
f 32 50 51
f 32 51 33
f 33 51 34
f 34 51 52
f 34 52 35
f 35 52 53
f 35 53 45
f 37 48 54
f 37 54 55
f 37 55 56
f 37 56 38
f 38 56 39
f 39 56 57
f 39 57 40
f 40 57 44
f 40 44 43
f 41 58 49
f 41 49 42
f 45 53 46
f 46 53 59
f 46 59 47
f 47 59 60
f 47 60 61
f 47 61 48
f 48 61 62
f 48 62 54
f 49 58 50
f 50 58 63
f 50 63 51
f 51 63 52
f 52 63 53
f 53 63 59
f 58 64 63
f 59 63 60
f 60 63 64

