# https://github.com/mikedh/trimesh
v 0.00064701 0.01958503 0.01412585
v -0.00091865 0.01946048 0.01425384
v -0.00022814 0.01951565 0.01441928
v 0.00129607 0.01956832 0.01437992
v 0.00195549 0.01928662 0.01420570
v -0.00765326 0.01492988 0.01412585
v -0.00570419 0.01735066 0.01412585
v -0.00254743 0.01911693 0.01446589
v -0.00194547 0.01928662 0.01447926
v 0.00043128 0.01945630 0.01482083
v 0.00194325 0.01927240 0.01508904
v 0.00195738 0.01861037 0.01626046
v 0.00197057 0.01463731 0.01802904
v -0.00765326 0.01104627 0.01802904
v -0.00765326 0.01481536 0.01568009
v -0.00745072 0.01580006 0.01432949
v -0.00521433 0.01768419 0.01437992
v -0.00445882 0.01820412 0.01437037
v -0.00642391 0.01677472 0.01430274
v -0.00281026 0.01864297 0.01520633
v -0.00182772 0.01907346 0.01503440
v -0.00356577 0.01863712 0.01461298
v 0.00080433 0.01900157 0.01564304
v 0.00165122 0.01900659 0.01565068
v 0.00129607 0.01863294 0.01629331
v 0.00168701 0.01824173 0.01678236
v 0.00173788 0.01744762 0.01731305
v 0.00186883 0.01630745 0.01790067
v 0.00093810 0.01596222 0.01802904
v -0.00686855 0.01278746 0.01802904
v -0.00758072 0.01221152 0.01802255
v -0.00765326 0.01364426 0.01690806
v -0.00611680 0.01632166 0.01568162
v -0.00672441 0.01612522 0.01524339
v -0.00740645 0.01538461 0.01529153
v -0.00560905 0.01720103 0.01493163
v -0.00401418 0.01816065 0.01505198
v -0.00269156 0.01812972 0.01595862
v -0.00250221 0.01854935 0.01551657
v -0.00386628 0.01770843 0.01576033
v -0.00197939 0.01839220 0.01590093
v 0.00021556 0.01826681 0.01653936
v 0.00091360 0.01734230 0.01731840
v 0.00129607 0.01655321 0.01779140
v 0.00029657 0.01645206 0.01773561
v -0.00217156 0.01572315 0.01781852
v -0.00300715 0.01498254 0.01802904
v -0.00608100 0.01349296 0.01795148
v -0.00540651 0.01513301 0.01728554
v -0.00672347 0.01407057 0.01730732
v -0.00493832 0.01400453 0.01802904
v -0.00754116 0.01302820 0.01753006
v -0.00597644 0.01578919 0.01633228
v -0.00438157 0.01654736 0.01676899
v -0.00411404 0.01709571 0.01638959
v -0.00194547 0.01798511 0.01630134
v -0.00337925 0.01733645 0.01646142
v -0.00084989 0.01814728 0.01641825
v -0.00256250 0.01641361 0.01734514
v -0.00323983 0.01613609 0.01737189
v -0.00386440 0.01610683 0.01724198
v -0.00419882 0.01464985 0.01790334
v -0.00484600 0.01553173 0.01726682
v -0.00597927 0.01493991 0.01708801
f 1 2 3
f 1 3 4
f 1 4 5
f 1 5 6
f 1 6 7
f 1 7 2
f 2 8 9
f 2 9 3
f 2 7 8
f 3 9 10
f 3 10 4
f 4 10 11
f 4 11 5
f 5 11 12
f 5 12 13
f 5 13 6
f 6 14 32
f 6 32 15
f 6 15 16
f 6 16 7
f 6 13 14
f 7 17 18
f 7 18 8
f 7 16 19
f 7 19 17
f 8 20 21
f 8 21 9
f 8 18 22
f 8 22 20
f 9 21 10
f 10 23 24
f 10 24 11
f 10 21 23
f 11 24 12
f 12 24 25
f 12 25 26
f 12 26 27
f 12 27 28
f 12 28 13
f 13 28 29
f 13 29 47
f 13 47 51
f 13 51 30
f 13 30 14
f 14 30 31
f 14 31 32
f 15 32 33
f 15 33 34
f 15 34 35
f 15 35 16
f 16 35 34
f 16 34 19
f 17 19 36
f 17 36 18
f 18 36 37
f 18 37 22
f 19 34 36
f 20 38 39
f 20 39 21
f 20 22 37
f 20 37 40
f 20 40 38
f 21 39 41
f 21 41 25
f 21 25 23
f 23 25 24
f 25 41 42
f 25 42 26
f 26 42 43
f 26 43 27
f 27 43 44
f 27 44 28
f 28 44 29
f 29 44 45
f 29 45 46
f 29 46 47
f 30 48 49
f 30 49 50
f 30 50 31
f 30 51 48
f 31 52 32
f 31 50 52
f 32 52 50
f 32 50 53
f 32 53 33
f 33 53 54
f 33 54 55
f 33 55 37
f 33 37 36
f 33 36 34
f 37 55 40
f 38 56 41
f 38 41 39
f 38 40 55
f 38 55 57
f 38 57 56
f 41 56 58
f 41 58 42
f 42 58 59
f 42 59 43
f 43 59 46
f 43 46 45
f 43 45 44
f 46 59 60
f 46 60 47
f 47 60 61
f 47 61 62
f 47 62 51
f 48 51 63
f 48 63 49
f 49 63 54
f 49 54 64
f 49 64 50
f 50 64 53
f 51 62 63
f 53 64 54
f 54 63 61
f 54 61 57
f 54 57 55
f 56 57 59
f 56 59 58
f 57 61 59
f 59 61 60
f 61 63 62

