# https://github.com/mikedh/trimesh
v -0.01596695 -0.01448193 -0.01327609
v -0.01596695 -0.01163070 0.01419720
v -0.01615735 -0.01430386 -0.01279795
v -0.01649053 -0.01404832 -0.01350450
v -0.01646039 -0.01407663 -0.01425978
v -0.01603782 -0.01441487 -0.01469224
v -0.01596695 -0.01443052 -0.01534093
v -0.01596695 -0.01098998 0.01419720
v -0.01643659 -0.01124403 0.01419720
v -0.01667511 -0.01385834 -0.01274618
v -0.01727008 -0.01337854 -0.01469224
v -0.01720133 -0.01341207 -0.01296241
v -0.01710455 -0.01341728 -0.01534093
v -0.01596695 -0.01431355 -0.01597744
v -0.01596695 -0.01070165 0.01255264
v -0.01901111 -0.00687071 0.01339014
v -0.01929247 -0.00696607 0.01419720
v -0.01824320 -0.00943510 0.01419720
v -0.01803641 -0.01248003 -0.01479883
v -0.01801578 -0.01207548 -0.01683322
v -0.01787352 -0.01270503 -0.01317864
v -0.01884663 -0.01161207 -0.01285582
v -0.01755461 -0.01302092 -0.01274618
v -0.01683271 -0.01337407 -0.01651953
v -0.01696017 -0.01306265 -0.01691545
v -0.01597066 -0.01389261 -0.01673576
v -0.01596695 -0.01167466 -0.00110635
v -0.01596695 -0.01139751 0.00215841
v -0.01880485 -0.00687071 0.00302332
v -0.01878846 -0.00687071 0.00366897
v -0.01878370 -0.00687071 0.00436334
v -0.01887731 -0.00687071 0.01089285
v -0.01896192 -0.00687071 0.01274755
v -0.02136985 -0.00693627 -0.01430242
v -0.01923323 -0.00770365 0.01419720
v -0.02135822 -0.00700184 -0.01339487
v -0.01864143 -0.00882418 0.01419720
v -0.01997418 -0.01007359 -0.01296241
v -0.01942204 -0.01087450 -0.01292282
v -0.01902433 -0.01124627 -0.01477447
v -0.01844099 -0.01194510 -0.01512470
v -0.01864408 -0.01131332 -0.01690022
v -0.01954897 -0.01008179 -0.01691545
v -0.01640750 -0.01338450 -0.01691545
v -0.02049088 -0.00693627 -0.01662613
v -0.01596695 -0.01156812 -0.00000388
v -0.01596695 -0.01144593 0.00150972
v -0.01596695 -0.01150703 0.00071789
v -0.02122865 -0.00719852 -0.01478665
v -0.02036078 -0.00947608 -0.01447602
v -0.02121490 -0.00743917 -0.01296241
v -0.02080238 -0.00834065 -0.01252995
v -0.02039251 -0.00925033 -0.01252995
v -0.02031053 -0.00951109 -0.01315732
v -0.02032957 -0.00953717 -0.01382733
v -0.02027034 -0.00958560 -0.01499679
v -0.01990278 -0.01007732 -0.01512470
v -0.01989538 -0.00996035 -0.01590434
v -0.01944319 -0.01037011 -0.01683626
v -0.01904496 -0.01084097 -0.01687890
v -0.01999586 -0.00946788 -0.01684540
v -0.02034121 -0.00857236 -0.01688499
v -0.02047448 -0.00767236 -0.01678753
v -0.02025871 -0.00926449 -0.01636726
f 1 2 3
f 1 3 4
f 1 4 5
f 1 5 6
f 1 6 7
f 1 7 14
f 1 14 27
f 1 27 46
f 1 46 48
f 1 48 47
f 1 47 28
f 1 28 15
f 1 15 8
f 1 8 2
f 2 8 17
f 2 17 35
f 2 35 37
f 2 37 18
f 2 18 9
f 2 9 3
f 3 10 4
f 3 9 10
f 4 11 5
f 4 10 12
f 4 12 11
f 5 11 6
f 6 11 7
f 7 11 13
f 7 13 14
f 8 15 16
f 8 16 17
f 9 18 12
f 9 12 10
f 11 19 20
f 11 20 13
f 11 12 21
f 11 21 22
f 11 22 19
f 12 18 23
f 12 23 21
f 13 20 24
f 13 24 14
f 14 24 25
f 14 25 26
f 14 26 27
f 15 28 29
f 15 29 30
f 15 30 31
f 15 31 32
f 15 32 33
f 15 33 16
f 16 33 32
f 16 32 31
f 16 31 30
f 16 30 29
f 16 29 34
f 16 34 17
f 17 34 36
f 17 36 35
f 18 37 38
f 18 38 39
f 18 39 22
f 18 22 23
f 19 40 41
f 19 41 20
f 19 22 40
f 20 42 25
f 20 25 24
f 20 41 42
f 21 23 22
f 22 39 40
f 25 42 43
f 25 43 44
f 25 44 26
f 26 44 45
f 26 45 27
f 27 29 46
f 27 45 29
f 28 47 29
f 29 45 34
f 29 47 48
f 29 48 46
f 34 45 49
f 34 49 50
f 34 50 51
f 34 51 36
f 35 36 51
f 35 51 52
f 35 52 53
f 35 53 54
f 35 54 37
f 37 54 38
f 38 54 55
f 38 55 50
f 38 50 39
f 39 50 56
f 39 56 57
f 39 57 40
f 40 57 41
f 41 57 58
f 41 58 59
f 41 59 60
f 41 60 42
f 42 60 43
f 43 60 59
f 43 59 61
f 43 61 62
f 43 62 44
f 44 62 63
f 44 63 45
f 45 63 49
f 49 56 50
f 49 63 62
f 49 62 64
f 49 64 56
f 50 55 51
f 51 55 52
f 52 55 54
f 52 54 53
f 56 64 58
f 56 58 57
f 58 64 59
f 59 64 61
f 61 64 62

