# https://github.com/mikedh/trimesh
v -0.02411001 0.00057989 -0.01202996
v -0.02379188 0.00096326 -0.01204052
v -0.02421363 0.00217668 -0.01295574
v -0.02480558 0.00086263 -0.01269103
v -0.02456491 0.00035234 -0.01239188
v -0.02398773 0.00021145 -0.01231800
v -0.02353386 0.00048640 -0.01209523
v -0.02325823 0.00098858 -0.01245521
v -0.02344112 0.00264867 -0.01372846
v -0.02409576 0.00250682 -0.01321961
v -0.02471076 0.00249221 -0.01420788
v -0.02462968 0.00215201 -0.01362347
v -0.02468149 0.00179883 -0.01332044
v -0.02469056 0.00138137 -0.01290602
v -0.02512396 0.00083829 -0.01311961
v -0.02499417 0.00032117 -0.01299962
v -0.02441932 0.00019003 -0.01275047
v -0.02398773 -0.00014985 -0.01404650
v -0.02375769 -0.00002487 -0.01328544
v -0.02355536 0.00013452 -0.01275047
v -0.02309580 0.00037116 -0.01261242
v -0.02285668 0.00094444 -0.01289463
v -0.02287948 0.00204846 -0.01416427
v -0.02289684 0.00233412 -0.01463008
v -0.02319527 0.00270483 -0.01464646
v -0.02361987 0.00299407 -0.01441453
v -0.02376391 0.00308333 -0.01480618
v -0.02470273 0.00261556 -0.01473951
v -0.02510220 0.00201242 -0.01464424
v -0.02509805 0.00181960 -0.01415511
v -0.02497371 0.00195594 -0.01402511
v -0.02527551 0.00064871 -0.01361431
v -0.02512448 0.00123399 -0.01356542
v -0.02526825 0.00108078 -0.01404650
v -0.02532887 0.00042408 -0.01464146
v -0.02449030 -0.00006155 -0.01461730
v -0.02398773 -0.00023295 -0.01447870
v -0.02355536 -0.00015439 -0.01404650
v -0.02337091 -0.00002552 -0.01361236
v -0.02312326 0.00014198 -0.01318267
v -0.02273674 0.00048153 -0.01318267
v -0.02271343 0.00108078 -0.01361431
v -0.02283959 0.00121971 -0.01325794
v -0.02280021 0.00194458 -0.01447870
v -0.02283337 0.00150343 -0.01363264
v -0.02275669 0.00151252 -0.01404650
v -0.02284399 0.00194458 -0.01483562
v -0.02282793 0.00151252 -0.01485423
v -0.02505945 0.00151252 -0.01486645
v -0.02524520 0.00151252 -0.01447870
v -0.02514883 0.00153751 -0.01402511
v -0.02398773 -0.00013524 -0.01486117
v -0.02348879 -0.00013329 -0.01463896
v -0.02315460 0.00002350 -0.01404650
v -0.02279503 0.00031078 -0.01404650
v -0.02273130 0.00047764 -0.01361431
v -0.02268260 0.00064871 -0.01404650
v -0.02269866 0.00108078 -0.01404650
v -0.02274270 0.00151252 -0.01447870
v -0.02271032 0.00108078 -0.01447870
v -0.02281161 0.00108078 -0.01486701
v -0.02313569 0.00021340 -0.01484201
v -0.02315201 0.00002155 -0.01447870
v -0.02278363 0.00049192 -0.01465896
f 1 2 3
f 1 3 4
f 1 4 5
f 1 5 6
f 1 6 7
f 1 7 2
f 2 7 8
f 2 8 9
f 2 9 10
f 2 10 3
f 3 10 11
f 3 11 12
f 3 12 13
f 3 13 14
f 3 14 4
f 4 15 5
f 4 14 15
f 5 15 16
f 5 16 17
f 5 17 6
f 6 17 18
f 6 18 19
f 6 19 20
f 6 20 7
f 7 21 22
f 7 22 8
f 7 20 21
f 8 22 9
f 9 23 24
f 9 24 25
f 9 25 26
f 9 26 10
f 9 22 23
f 10 26 27
f 10 27 11
f 11 27 28
f 11 28 29
f 11 29 30
f 11 30 31
f 11 31 12
f 12 31 13
f 13 31 15
f 13 15 14
f 15 32 16
f 15 31 30
f 15 30 33
f 15 33 34
f 15 34 32
f 16 32 35
f 16 35 36
f 16 36 37
f 16 37 17
f 17 37 18
f 18 37 19
f 19 37 38
f 19 38 39
f 19 39 20
f 20 40 21
f 20 39 40
f 21 41 22
f 21 40 41
f 22 41 42
f 22 42 43
f 22 43 23
f 23 44 24
f 23 43 45
f 23 45 42
f 23 42 46
f 23 46 44
f 24 44 47
f 24 47 25
f 25 47 27
f 25 27 26
f 27 47 48
f 27 48 49
f 27 49 28
f 28 49 29
f 29 49 35
f 29 35 50
f 29 50 30
f 30 50 51
f 30 51 33
f 32 34 35
f 33 51 34
f 34 51 50
f 34 50 35
f 35 52 36
f 35 49 52
f 36 52 37
f 37 52 53
f 37 53 38
f 38 53 54
f 38 54 39
f 39 54 40
f 40 54 55
f 40 55 41
f 41 55 56
f 41 56 57
f 41 57 42
f 42 58 46
f 42 45 43
f 42 57 58
f 44 46 58
f 44 58 59
f 44 59 47
f 47 59 60
f 47 60 48
f 48 60 61
f 48 61 49
f 49 61 52
f 52 61 62
f 52 62 53
f 53 62 63
f 53 63 54
f 54 63 55
f 55 63 64
f 55 64 57
f 55 57 56
f 57 64 60
f 57 60 58
f 58 60 59
f 60 64 61
f 61 64 62
f 62 64 63

