# https://github.com/mikedh/trimesh
v -0.01667529 -0.00319560 0.01825456
v -0.01633596 -0.00640894 0.01816768
v -0.01541491 -0.00450841 0.01880757
v -0.01420301 0.00091459 0.01876853
v -0.01639935 -0.00139047 0.01808690
v 0.00167100 -0.02247185 0.01655452
v -0.01446777 -0.00822933 0.01830264
v -0.01403894 -0.00346274 0.01887493
v -0.01420301 -0.00599678 0.01879025
v -0.01209618 0.00431875 0.01876511
v -0.01402776 0.00278077 0.01846078
v -0.01231245 0.00042991 0.01886664
v -0.01567967 0.00055585 0.01802930
v 0.00347952 -0.02304048 0.01638173
v 0.00318494 -0.02128497 0.01764224
v -0.00056263 -0.01927377 0.01805200
v -0.00431765 -0.01709083 0.01802613
v -0.00021211 -0.01749536 0.01837292
v 0.00563111 -0.01902571 0.01829800
v 0.00939732 0.00847473 0.01874339
v 0.00393818 0.01079887 0.01882246
v -0.00431765 0.01058515 0.01884272
v -0.00631635 0.01036762 0.01883222
v -0.00794962 0.01027985 0.01869727
v -0.01229381 0.00607807 0.01806615
v 0.02135969 -0.00493584 0.01639954
v 0.00553416 -0.02242224 0.01655500
v 0.00665283 -0.02101783 0.01724005
v 0.00394564 -0.01950657 0.01824211
v 0.00846136 -0.01871277 0.01781210
v 0.00951292 -0.01643061 0.01815352
v 0.01403982 -0.00982837 0.01833046
v 0.01299573 0.00639101 0.01863040
v 0.00945325 0.01033709 0.01864553
v 0.00334528 0.01231395 0.01879952
v -0.00256133 0.01222999 0.01882490
v -0.00494784 0.01208497 0.01875559
v -0.00559294 0.01308485 0.01831996
v -0.00760283 0.01188270 0.01818257
v 0.00122726 0.01594709 0.01803150
v 0.02141190 -0.00210031 0.01694353
v 0.01950642 -0.00563423 0.01756512
v 0.01936472 -0.00782480 0.01679734
v 0.01123941 -0.01772434 0.01686446
v 0.00849119 -0.02055987 0.01679612
v 0.00331545 0.01552729 0.01805956
v 0.00598909 0.01428317 0.01805688
v 0.01005361 0.01199338 0.01801515
v 0.00994920 -0.01902571 0.01698014
v 0.01101940 -0.01577038 0.01792387
v 0.01246249 -0.01327451 0.01813717
v 0.01732127 -0.00818735 0.01785212
v 0.01768298 -0.00242088 0.01833778
v 0.01839893 0.00011697 0.01820624
v 0.01719449 0.00447903 0.01802296
v 0.01576631 0.00650932 0.01803345
v 0.01352150 0.00861211 0.01809251
v 0.01145195 0.01069583 0.01804517
v 0.00512398 0.01243989 0.01869019
v 0.00171201 0.01403129 0.01867750
v -0.00145757 0.01462282 0.01840001
v -0.00346745 0.01452360 0.01815255
v 0.01960337 -0.00227586 0.01793095
v 0.01469611 -0.01211053 0.01772571
f 1 2 3
f 1 3 4
f 1 4 5
f 1 5 2
f 2 6 7
f 2 7 3
f 2 5 6
f 3 8 4
f 3 7 9
f 3 9 8
f 4 10 11
f 4 11 5
f 4 8 12
f 4 12 10
f 5 11 13
f 5 13 14
f 5 14 6
f 6 14 15
f 6 15 16
f 6 16 17
f 6 17 7
f 7 17 9
f 8 9 18
f 8 18 19
f 8 19 20
f 8 20 21
f 8 21 22
f 8 22 12
f 9 17 18
f 10 12 23
f 10 23 24
f 10 24 11
f 11 24 25
f 11 25 13
f 12 22 23
f 13 25 14
f 14 26 27
f 14 27 15
f 14 25 26
f 15 27 28
f 15 28 19
f 15 19 29
f 15 29 16
f 16 29 18
f 16 18 17
f 18 29 19
f 19 30 31
f 19 31 32
f 19 32 20
f 19 28 30
f 20 33 34
f 20 34 35
f 20 35 21
f 20 32 33
f 21 35 36
f 21 36 22
f 22 36 23
f 23 36 37
f 23 37 24
f 24 37 38
f 24 38 39
f 24 39 25
f 25 39 40
f 25 40 26
f 26 41 42
f 26 42 43
f 26 43 44
f 26 44 45
f 26 45 27
f 26 40 46
f 26 46 47
f 26 47 48
f 26 48 41
f 27 45 28
f 28 45 30
f 30 45 49
f 30 49 50
f 30 50 31
f 31 50 51
f 31 51 32
f 32 51 52
f 32 52 53
f 32 53 33
f 33 54 55
f 33 55 56
f 33 56 34
f 33 53 54
f 34 56 57
f 34 57 58
f 34 58 48
f 34 48 47
f 34 47 59
f 34 59 35
f 35 59 60
f 35 60 36
f 36 60 37
f 37 60 61
f 37 61 62
f 37 62 38
f 38 62 39
f 39 62 40
f 40 62 61
f 40 61 60
f 40 60 46
f 41 63 42
f 41 48 56
f 41 56 55
f 41 55 54
f 41 54 63
f 42 63 52
f 42 52 43
f 43 52 64
f 43 64 44
f 44 49 45
f 44 64 49
f 46 60 59
f 46 59 47
f 48 58 56
f 49 64 50
f 50 64 51
f 51 64 52
f 52 63 53
f 53 63 54
f 56 58 57

