# https://github.com/mikedh/trimesh
v 0.02353608 0.00638537 -0.01411843
v 0.02293024 0.00638537 -0.01666206
v 0.02330177 0.00641180 -0.01574879
v 0.02343687 0.00653516 -0.01471333
v 0.02330388 0.00676571 -0.01382579
v 0.02348120 0.00643824 -0.01304116
v 0.02088895 0.00647201 0.01408664
v 0.02033799 0.00638537 0.01408664
v 0.02251860 0.00638537 -0.01690645
v 0.02117393 0.00961018 -0.01852074
v 0.02087206 0.01005954 -0.01858184
v 0.02247005 0.00788764 -0.01425992
v 0.02314767 0.00695074 -0.01317944
v 0.01945772 0.00822539 0.01408664
v 0.02248483 0.00779953 -0.01345920
v 0.00379865 0.01907755 0.01408664
v 0.00203601 0.01925964 0.01408342
v 0.00197057 0.01878826 0.01126002
v 0.01965404 0.00638537 0.01036927
v 0.00197057 0.02050345 -0.01101526
v 0.00197057 0.02105120 -0.01491914
v 0.00197057 0.02126707 -0.01559122
v 0.00355589 0.02133022 -0.01851109
v 0.01285254 0.01534317 -0.01872655
v 0.02025777 0.00638537 -0.00280874
v 0.01662271 0.01413020 -0.01866545
v 0.02115282 0.00948830 -0.01447858
v 0.02165311 0.00892439 -0.01447858
v 0.02213441 0.00833112 -0.01447858
v 0.01705967 0.01360154 -0.01876514
v 0.01902497 0.00865419 0.01408664
v 0.02207952 0.00826210 -0.01317944
v 0.00780314 0.01730214 0.01408664
v 0.00624314 0.01825666 0.01406413
v 0.00571540 0.01854008 0.01404483
v 0.00540720 0.01875448 0.01274890
v 0.00395275 0.02085736 -0.00876104
v 0.00324558 0.02096015 -0.00820472
v 0.00209300 0.02138749 -0.01257488
v 0.00197057 0.01876329 0.01058794
v 0.00197057 0.01876770 0.00995122
v 0.00197057 0.01877504 0.00929200
v 0.01987146 0.00638537 0.00259045
v 0.00197057 0.01986613 -0.00485716
v 0.00366144 0.02138749 -0.01792905
v 0.00572385 0.02078981 -0.01680998
v 0.00660622 0.02036688 -0.01690324
v 0.02017333 0.00638537 -0.00214631
v 0.00197057 0.01966935 -0.00277980
v 0.00964600 0.01823610 -0.01144938
v 0.00895994 0.01648566 0.01408664
v 0.00957634 0.01604364 0.01408664
v 0.01423311 0.01250898 0.01408664
v 0.01465318 0.01217710 0.01408664
v 0.01772673 0.00973353 0.01408664
v 0.00716141 0.01772360 0.01405448
v 0.00652390 0.01817443 0.01317980
v 0.00572385 0.01863700 0.01296435
v 0.00354534 0.02138749 -0.01721838
v 0.00197057 0.01879413 0.00863921
v 0.02008467 0.00638537 -0.00129093
v 0.00197057 0.01898797 0.00523698
v 0.00197057 0.01882937 0.00779026
v 0.00197057 0.01886608 0.00713104
f 1 2 3
f 1 3 4
f 1 4 5
f 1 5 6
f 1 6 7
f 1 7 8
f 1 8 19
f 1 19 43
f 1 43 61
f 1 61 48
f 1 48 25
f 1 25 9
f 1 9 2
f 2 9 10
f 2 10 3
f 3 10 4
f 4 10 11
f 4 11 5
f 5 11 12
f 5 12 13
f 5 13 6
f 6 13 7
f 7 14 31
f 7 31 55
f 7 55 54
f 7 54 53
f 7 53 52
f 7 52 51
f 7 51 33
f 7 33 16
f 7 16 8
f 7 13 15
f 7 15 14
f 8 16 17
f 8 17 18
f 8 18 19
f 9 20 21
f 9 21 22
f 9 22 23
f 9 23 24
f 9 24 10
f 9 25 20
f 10 24 11
f 11 26 27
f 11 27 28
f 11 28 29
f 11 29 12
f 11 24 30
f 11 30 26
f 12 29 13
f 13 29 15
f 14 15 32
f 14 32 28
f 14 28 27
f 14 27 31
f 15 29 28
f 15 28 32
f 16 33 34
f 16 34 35
f 16 35 36
f 16 36 37
f 16 37 38
f 16 38 17
f 17 38 39
f 17 39 22
f 17 22 18
f 18 40 19
f 18 22 21
f 18 21 20
f 18 20 44
f 18 44 49
f 18 49 62
f 18 62 64
f 18 64 63
f 18 63 60
f 18 60 42
f 18 42 41
f 18 41 40
f 19 40 41
f 19 41 42
f 19 42 43
f 20 25 44
f 22 39 45
f 22 45 23
f 23 45 46
f 23 46 47
f 23 47 26
f 23 26 30
f 23 30 24
f 25 48 49
f 25 49 44
f 26 47 50
f 26 50 33
f 26 33 51
f 26 51 52
f 26 52 53
f 26 53 54
f 26 54 55
f 26 55 31
f 26 31 27
f 33 56 34
f 33 50 56
f 34 56 57
f 34 57 58
f 34 58 35
f 35 58 36
f 36 58 37
f 37 46 59
f 37 59 38
f 37 58 46
f 38 59 39
f 39 59 45
f 42 60 43
f 43 60 61
f 45 59 46
f 46 58 47
f 47 58 57
f 47 57 50
f 48 61 62
f 48 62 49
f 50 57 56
f 60 63 61
f 61 63 64
f 61 64 62

