# https://github.com/mikedh/trimesh
v -0.02035829 -0.00133072 -0.01672568
v -0.02080504 -0.00133072 -0.01578639
v -0.02074711 0.00042985 -0.01685756
v -0.01990509 0.00419590 -0.01857529
v -0.01987162 0.00255405 -0.01816676
v -0.01766488 0.00525707 -0.01871039
v -0.01587014 0.00679874 -0.01870717
v -0.01546458 0.00722729 -0.01870717
v -0.01375481 0.00915854 -0.01870396
v -0.01150301 0.01195432 -0.01836298
v -0.00834611 0.01445512 -0.00254961
v -0.00834611 0.01432340 -0.00128544
v -0.01859444 -0.00133072 0.01253679
v -0.02091963 -0.00133072 -0.01533927
v -0.02135737 -0.00021390 -0.01231556
v -0.02131875 0.00021836 -0.01253108
v -0.02121832 0.00073040 -0.01285918
v -0.00990267 0.01616561 -0.01318085
v -0.00995288 0.01622498 -0.01447719
v -0.00974818 0.01642534 -0.01490823
v -0.00958338 0.01649398 -0.01533927
v -0.00909156 0.01686317 -0.01587968
v -0.00834611 0.01724905 -0.01677071
v -0.01262440 0.01135509 -0.01871039
v -0.02079861 0.00187691 -0.01274982
v -0.02040464 0.00275441 -0.01274982
v -0.01208109 0.01026610 0.01412585
v -0.01176050 0.01068166 0.01412585
v -0.01276345 0.01101745 -0.01872326
v -0.01317673 0.01016035 -0.01873612
v -0.01168068 0.01214912 -0.01871361
v -0.00857657 0.01631403 -0.01690903
v -0.00905680 0.01552186 -0.01687364
v -0.00834611 0.01667579 -0.01676106
v -0.00862421 0.01336241 0.01058424
v -0.00898470 0.01281884 0.01058424
v -0.00834611 0.01380952 0.01083836
v -0.00949068 0.01206934 0.01079976
v -0.00869888 0.01325667 0.01101528
v -0.00944304 0.01221219 0.01177121
v -0.00989109 0.01159070 0.01231162
v -0.01874250 -0.00133072 0.01412585
v -0.02143204 -0.00133072 -0.01101601
v -0.02141659 -0.00120457 -0.01145026
v -0.02139342 -0.00064616 -0.01189095
v -0.02149899 -0.00133072 -0.00906668
v -0.02134836 -0.00064616 -0.00928541
v -0.01918926 -0.00117674 0.01412585
v -0.00868214 0.01452377 0.01410333
v -0.00836027 0.01487811 0.01408081
v -0.00959497 0.01649398 -0.01318085
v -0.00963745 0.01652923 -0.01425845
v -0.00939412 0.01675371 -0.01490823
v -0.00914692 0.01691140 -0.01533927
v -0.00836542 0.01743642 -0.01623030
v -0.00834611 0.01762194 -0.01404293
v -0.01859058 0.00048180 0.01412585
v -0.01646366 0.00438884 0.01412585
v -0.00834611 0.01416757 0.01412585
v -0.00900144 0.01284482 0.01144954
v -0.00850061 0.01741602 -0.01299750
v -0.00840276 0.01760339 -0.01447719
v -0.00837444 0.01759968 -0.01509802
v -0.00867957 0.01731398 -0.01533927
f 1 2 3
f 1 3 4
f 1 4 5
f 1 5 6
f 1 6 7
f 1 7 8
f 1 8 9
f 1 9 10
f 1 10 11
f 1 11 12
f 1 12 13
f 1 13 42
f 1 42 46
f 1 46 43
f 1 43 14
f 1 14 2
f 2 14 3
f 3 14 15
f 3 15 16
f 3 16 17
f 3 17 4
f 4 18 19
f 4 19 20
f 4 20 21
f 4 21 22
f 4 22 23
f 4 23 24
f 4 24 6
f 4 6 5
f 4 17 25
f 4 25 26
f 4 26 27
f 4 27 28
f 4 28 18
f 6 24 29
f 6 29 30
f 6 30 7
f 7 30 8
f 8 30 9
f 9 30 31
f 9 31 10
f 10 31 32
f 10 32 33
f 10 33 11
f 11 33 32
f 11 32 34
f 11 34 23
f 11 23 56
f 11 56 59
f 11 59 37
f 11 37 12
f 12 35 36
f 12 36 13
f 12 37 35
f 13 36 38
f 13 38 39
f 13 39 40
f 13 40 41
f 13 41 42
f 14 43 44
f 14 44 45
f 14 45 15
f 15 45 46
f 15 46 16
f 16 46 17
f 17 46 47
f 17 47 48
f 17 48 25
f 18 28 49
f 18 49 50
f 18 50 51
f 18 51 19
f 19 51 52
f 19 52 20
f 20 52 53
f 20 53 54
f 20 54 22
f 20 22 21
f 22 54 55
f 22 55 23
f 23 34 32
f 23 32 31
f 23 31 24
f 23 55 56
f 24 31 29
f 25 48 57
f 25 57 26
f 26 57 58
f 26 58 27
f 27 58 57
f 27 57 48
f 27 48 42
f 27 42 59
f 27 59 28
f 28 59 49
f 29 31 30
f 35 37 39
f 35 39 36
f 36 39 38
f 37 59 39
f 39 60 41
f 39 41 40
f 39 59 60
f 41 60 59
f 41 59 42
f 42 48 46
f 43 46 44
f 44 46 45
f 46 48 47
f 49 59 50
f 50 56 61
f 50 61 51
f 50 59 56
f 51 61 56
f 51 56 62
f 51 62 52
f 52 62 53
f 53 63 64
f 53 64 54
f 53 62 63
f 54 64 55
f 55 64 63
f 55 63 56
f 56 63 62

