# https://github.com/mikedh/trimesh
v 0.09927124 -0.04935876 -0.01304751
v 0.10060234 -0.04935876 -0.01281896
v 0.11248103 -0.05639339 -0.01105696
v 0.09889706 -0.05042745 -0.01304014
v 0.09682374 -0.05045499 -0.01303276
v 0.09720405 -0.04935876 -0.01302908
v 0.11249023 -0.04935876 -0.00879917
v 0.11427832 -0.05632866 -0.01064964
v 0.09697402 -0.05639339 -0.01200984
v 0.09697402 -0.05559600 -0.01225498
v 0.09697402 -0.05335878 -0.01273418
v 0.09834806 -0.05186385 -0.01296273
v 0.12293353 -0.05639339 -0.00259347
v 0.09697402 -0.05206698 -0.01297010
v 0.09563066 -0.05203875 -0.01294982
v 0.09563066 -0.05133707 -0.01294982
v 0.09576253 -0.04942279 -0.01272312
v 0.09320768 -0.04935876 -0.01054090
v 0.12293353 -0.04935876 -0.00469644
v 0.09518593 -0.05639339 -0.01191953
v 0.09438849 -0.05559600 -0.01212596
v 0.12293353 -0.05639339 0.00354036
v 0.09461546 -0.05294493 -0.01235635
v 0.09259120 -0.05301104 -0.01095006
v 0.09461546 -0.05045499 -0.01208726
v 0.09289484 -0.05042745 -0.01061278
v 0.09259120 -0.05042745 -0.00904799
v 0.09297152 -0.04935876 -0.00904799
v 0.12293353 -0.04935876 0.00441030
v 0.09432102 -0.05639339 -0.01186424
v 0.09259427 -0.05639339 -0.01088556
v 0.09251146 -0.05559600 -0.01097955
v 0.12293353 -0.05123860 0.00527655
v 0.12287832 -0.05354538 0.00496507
v 0.09661211 -0.05639339 0.00476602
v 0.09160055 -0.05559600 -0.00904799
v 0.09188271 -0.05301104 -0.00904799
v 0.09299299 -0.04935876 -0.00780021
v 0.12293353 -0.04990963 0.00480288
v 0.11970393 -0.04935876 0.00529130
v 0.12123439 -0.04938286 0.00502036
v 0.09202380 -0.05639339 -0.00967096
v 0.11765514 -0.04935876 0.00550141
v 0.11753552 -0.05042813 0.00562121
v 0.12287832 -0.05226185 0.00527840
v 0.09437316 -0.05639339 0.00399929
v 0.12024066 -0.05221503 0.00533922
v 0.11506654 -0.05042813 0.00571152
v 0.10989856 -0.04935876 0.00577787
v 0.10731305 -0.04935876 0.00565439
v 0.10473365 -0.04935876 0.00536686
v 0.10231375 -0.04935876 0.00492452
v 0.10093665 -0.04935876 0.00446375
v 0.09177843 -0.05639339 -0.00911803
v 0.09179071 -0.05639339 -0.00646397
v 0.09213114 -0.05639339 0.00128994
v 0.09271083 -0.05637755 0.00295241
v 0.09503564 -0.05360667 0.00314778
v 0.09593736 -0.05188519 0.00205298
v 0.09948593 -0.04935876 0.00373572
v 0.11504815 -0.04935876 0.00564333
v 0.09353279 -0.05639339 0.00354957
v 0.09425968 -0.05551957 0.00365647
v 0.11254237 -0.04935876 0.00572258
f 1 2 3
f 1 3 4
f 1 4 5
f 1 5 6
f 1 6 18
f 1 18 28
f 1 28 38
f 1 38 60
f 1 60 53
f 1 53 52
f 1 52 51
f 1 51 50
f 1 50 49
f 1 49 64
f 1 64 61
f 1 61 43
f 1 43 40
f 1 40 29
f 1 29 19
f 1 19 7
f 1 7 2
f 2 7 8
f 2 8 3
f 3 9 10
f 3 10 11
f 3 11 12
f 3 12 4
f 3 8 13
f 3 13 22
f 3 22 35
f 3 35 46
f 3 46 62
f 3 62 56
f 3 56 55
f 3 55 54
f 3 54 42
f 3 42 31
f 3 31 30
f 3 30 20
f 3 20 9
f 4 12 14
f 4 14 5
f 5 14 15
f 5 15 16
f 5 16 6
f 6 16 17
f 6 17 18
f 7 19 8
f 8 19 13
f 9 20 21
f 9 21 10
f 10 21 11
f 11 21 15
f 11 15 14
f 11 14 12
f 13 19 29
f 13 29 39
f 13 39 33
f 13 33 22
f 15 21 23
f 15 23 16
f 16 23 24
f 16 24 25
f 16 25 17
f 17 25 18
f 18 25 26
f 18 26 27
f 18 27 28
f 20 30 21
f 21 30 31
f 21 31 32
f 21 32 23
f 22 33 34
f 22 34 35
f 23 32 24
f 24 32 36
f 24 36 37
f 24 37 26
f 24 26 25
f 26 37 27
f 27 38 28
f 27 37 38
f 29 40 41
f 29 41 39
f 31 42 36
f 31 36 32
f 33 39 41
f 33 41 40
f 33 40 43
f 33 43 44
f 33 44 45
f 33 45 34
f 34 45 35
f 35 45 47
f 35 47 48
f 35 48 49
f 35 49 50
f 35 50 51
f 35 51 52
f 35 52 53
f 35 53 46
f 36 54 55
f 36 55 56
f 36 56 37
f 36 42 54
f 37 56 38
f 38 56 57
f 38 57 58
f 38 58 59
f 38 59 60
f 43 61 44
f 44 61 48
f 44 48 45
f 45 48 47
f 46 53 63
f 46 63 62
f 48 61 64
f 48 64 49
f 53 60 63
f 56 62 57
f 57 62 63
f 57 63 58
f 58 63 60
f 58 60 59

