# https://github.com/mikedh/trimesh
v -0.00007975 0.08838306 -0.00432222
v 0.00569528 0.08838306 -0.00266644
v -0.00007975 0.10459051 -0.00432222
v -0.00007975 0.08880720 -0.00920629
v 0.01833574 0.06082224 -0.00593057
v 0.01898167 0.06082224 -0.00387639
v 0.02198749 0.06082224 -0.00243246
v 0.00979791 0.10459051 -0.00447820
v 0.02398605 0.06082224 -0.00228701
v 0.00388219 0.10459051 -0.00734182
v 0.00069090 0.10457338 -0.00658613
v 0.00061096 0.10313385 -0.00895017
v 0.00061096 0.10122735 -0.01060595
v 0.00061096 0.09921373 -0.01073875
v 0.00912320 0.09455243 -0.01302691
v 0.01261827 0.08724772 -0.01303639
v 0.01524037 0.08216227 -0.01302902
v 0.02300436 0.06775422 -0.01300899
v 0.02571600 0.06269876 -0.01296578
v 0.02680961 0.06082224 -0.01289938
v 0.02454884 0.06082224 -0.01171789
v 0.01956365 0.06082224 -0.00841687
v 0.03128957 0.06392407 -0.00904925
v 0.01569764 0.09244885 -0.01056379
v 0.01332496 0.09630042 -0.01085258
v 0.01101943 0.09896525 -0.01094533
v 0.00837174 0.10118023 -0.01071030
v 0.00838453 0.10459051 -0.00569553
v 0.02732124 0.06082224 -0.00340210
v 0.03025991 0.06119926 -0.00500308
v 0.03169887 0.06082224 -0.00631526
v 0.03140788 0.06287013 -0.00713314
v 0.00639877 0.10459051 -0.00668837
v 0.00388219 0.10309958 -0.00975540
v 0.00388219 0.10181001 -0.01104440
v 0.00388219 0.09955648 -0.01187914
v 0.00836854 0.09625330 -0.01290254
v 0.01069966 0.09512653 -0.01300794
v 0.01293164 0.08920993 -0.01305431
v 0.02551135 0.06594197 -0.01303534
v 0.02860031 0.06247598 -0.01298581
v 0.02931979 0.06082224 -0.01277501
v 0.03258783 0.06082224 -0.00907138
v 0.03140468 0.06287870 -0.01083045
v 0.02879857 0.06791274 -0.01081464
v 0.01837411 0.08734626 -0.01068078
v 0.01420113 0.09413686 -0.01113926
v 0.01217059 0.09438106 -0.01262008
v 0.01163019 0.09694735 -0.01176110
v 0.00915837 0.09971928 -0.01141540
v 0.00646912 0.10158723 -0.01104229
v 0.00646912 0.09955648 -0.01219428
v 0.01512846 0.08811315 -0.01294681
v 0.01812469 0.08280063 -0.01293838
v 0.02074999 0.07768091 -0.01295419
v 0.02336570 0.07262545 -0.01296472
v 0.02454565 0.06845256 -0.01303745
v 0.03178521 0.06082224 -0.01123201
v 0.02806949 0.06419398 -0.01284563
v 0.02979945 0.06353848 -0.01183909
v 0.02933578 0.06594625 -0.01128154
v 0.02662734 0.07111738 -0.01120039
v 0.01706625 0.08871723 -0.01121198
v 0.02762502 0.06591626 -0.01257898
f 1 2 3
f 1 3 4
f 1 4 5
f 1 5 6
f 1 6 7
f 1 7 2
f 2 8 3
f 2 7 9
f 2 9 8
f 3 8 28
f 3 28 33
f 3 33 10
f 3 10 11
f 3 11 12
f 3 12 13
f 3 13 4
f 4 13 14
f 4 14 15
f 4 15 16
f 4 16 17
f 4 17 18
f 4 18 19
f 4 19 20
f 4 20 21
f 4 21 22
f 4 22 5
f 5 22 21
f 5 21 20
f 5 20 42
f 5 42 58
f 5 58 43
f 5 43 31
f 5 31 29
f 5 29 9
f 5 9 7
f 5 7 6
f 8 23 24
f 8 24 25
f 8 25 26
f 8 26 27
f 8 27 28
f 8 9 29
f 8 29 30
f 8 30 31
f 8 31 32
f 8 32 23
f 10 33 34
f 10 34 12
f 10 12 11
f 12 34 35
f 12 35 13
f 13 35 36
f 13 36 14
f 14 36 15
f 15 37 38
f 15 38 39
f 15 39 16
f 15 36 37
f 16 40 17
f 16 39 40
f 17 40 18
f 18 40 19
f 19 40 41
f 19 41 20
f 20 41 42
f 23 32 43
f 23 43 44
f 23 44 45
f 23 45 24
f 24 46 25
f 24 45 46
f 25 46 47
f 25 47 48
f 25 48 49
f 25 49 26
f 26 49 50
f 26 50 27
f 27 50 51
f 27 51 33
f 27 33 28
f 29 31 30
f 31 43 32
f 33 51 34
f 34 51 35
f 35 51 52
f 35 52 36
f 36 52 37
f 37 52 38
f 38 49 48
f 38 48 53
f 38 53 54
f 38 54 55
f 38 55 56
f 38 56 41
f 38 41 57
f 38 57 39
f 38 52 50
f 38 50 49
f 39 57 40
f 40 57 41
f 41 58 42
f 41 56 59
f 41 59 60
f 41 60 58
f 43 58 44
f 44 60 61
f 44 61 45
f 44 58 60
f 45 61 62
f 45 62 63
f 45 63 47
f 45 47 46
f 47 63 54
f 47 54 48
f 48 54 53
f 50 52 51
f 54 61 64
f 54 64 59
f 54 59 56
f 54 56 55
f 54 63 61
f 59 64 60
f 60 64 61
f 61 63 62

