# https://github.com/mikedh/trimesh
v 0.00882524 -0.05211341 -0.01026477
v 0.00644735 -0.05211341 -0.00966665
v 0.00829634 -0.04488064 -0.01062408
v 0.00882524 -0.04257857 -0.01047509
v 0.01195664 -0.03412421 -0.00136524
v 0.00882524 -0.05211341 -0.00478089
v 0.00351593 -0.05211341 -0.00849669
v -0.00284684 -0.04266323 -0.00447416
v -0.00284684 -0.04008298 -0.00423754
v 0.00882524 -0.04014547 -0.00905319
v -0.00267730 -0.03703102 -0.00267542
v 0.00864556 -0.03151976 0.00169547
v 0.00943674 -0.03151976 0.00382286
v 0.00954832 -0.03151976 0.00651988
v 0.00835140 -0.04868652 0.00230455
v 0.00871077 -0.04994842 0.00053428
v 0.00882379 -0.03495069 -0.00381031
v 0.00143075 -0.05211341 -0.00665632
v 0.00851080 -0.05210938 -0.00219999
v 0.00406077 -0.05210938 -0.00180562
v -0.00284684 -0.04524953 -0.00394177
v -0.00284684 -0.03605335 -0.00026978
v -0.00044577 -0.03609770 -0.00269294
v 0.00188575 -0.03151976 0.00456120
v 0.00447230 -0.03151976 0.00219938
v 0.00642417 -0.03151976 0.00139313
v 0.00874120 -0.03151976 0.00874586
v 0.00626767 -0.04971257 0.00371112
v 0.00747038 -0.03235230 0.01043068
v 0.00491426 -0.03996606 0.01051393
v 0.00498816 -0.04528380 0.00811049
v 0.00161912 -0.05211140 -0.00453113
v -0.00284684 -0.04723311 -0.00005726
v -0.00284684 -0.04701741 -0.00268856
v 0.00648938 -0.05145626 0.00056277
v 0.00389703 -0.05139175 0.00129015
v -0.00284684 -0.03670849 0.00165165
v -0.00019653 -0.03298123 0.00836902
v 0.00069753 -0.03151976 0.00936808
v 0.00062073 -0.03151976 0.00676307
v 0.00408396 -0.03192494 0.01175180
v 0.00330437 -0.04687832 0.00802943
v 0.00423176 -0.04983553 0.00460940
v 0.00604017 -0.03491441 0.01096307
v 0.00475631 -0.03749869 0.01109014
v 0.00363040 -0.04243141 0.01024883
v 0.00216976 -0.04934166 0.00544633
v 0.00095256 -0.04921264 0.00387544
v -0.00284684 -0.04507214 0.00306918
v -0.00034144 -0.04707990 0.00595243
v -0.00284684 -0.03841791 0.00364101
v -0.00069790 -0.03749869 0.00983036
v 0.00014544 -0.03479951 0.01013490
v 0.00188285 -0.03192494 0.01105509
v 0.00131917 -0.03747249 0.01136620
v 0.00388254 -0.03457978 0.01175838
v 0.00081345 -0.04638243 0.00799218
v 0.00130613 -0.04271564 0.01032113
v 0.00055697 -0.04045792 0.01081847
v -0.00044142 -0.04474759 0.00827481
v -0.00074427 -0.04255639 0.00910079
v -0.00284684 -0.04266323 0.00426542
v -0.00284684 -0.04060709 0.00432020
v -0.00127897 -0.04008298 0.00904821
f 1 2 3
f 1 3 4
f 1 4 5
f 1 5 6
f 1 6 18
f 1 18 7
f 1 7 2
f 2 7 3
f 3 7 8
f 3 8 9
f 3 9 4
f 4 10 5
f 4 9 11
f 4 11 10
f 5 12 13
f 5 13 14
f 5 14 15
f 5 15 16
f 5 16 6
f 5 10 17
f 5 17 12
f 6 16 19
f 6 19 20
f 6 20 18
f 7 18 8
f 8 21 34
f 8 34 33
f 8 33 49
f 8 49 62
f 8 62 63
f 8 63 51
f 8 51 37
f 8 37 22
f 8 22 9
f 8 18 21
f 9 22 11
f 10 11 23
f 10 23 17
f 11 22 24
f 11 24 25
f 11 25 23
f 12 17 26
f 12 26 25
f 12 25 24
f 12 24 40
f 12 40 39
f 12 39 27
f 12 27 14
f 12 14 13
f 14 27 15
f 15 28 16
f 15 27 29
f 15 29 30
f 15 30 31
f 15 31 28
f 16 28 19
f 17 23 26
f 18 20 32
f 18 32 33
f 18 33 34
f 18 34 21
f 19 28 35
f 19 35 36
f 19 36 20
f 20 36 32
f 22 37 38
f 22 38 39
f 22 39 40
f 22 40 24
f 23 25 26
f 27 39 41
f 27 41 29
f 28 31 42
f 28 42 43
f 28 43 35
f 29 41 44
f 29 44 30
f 30 44 45
f 30 45 46
f 30 46 31
f 31 46 42
f 32 36 47
f 32 47 48
f 32 48 33
f 33 48 50
f 33 50 49
f 35 43 36
f 36 43 47
f 37 51 38
f 38 52 53
f 38 53 39
f 38 51 52
f 39 53 54
f 39 54 41
f 41 54 55
f 41 55 56
f 41 56 44
f 42 57 47
f 42 47 43
f 42 46 58
f 42 58 57
f 44 56 45
f 45 56 46
f 46 56 55
f 46 55 59
f 46 59 58
f 47 50 48
f 47 57 50
f 49 50 60
f 49 60 61
f 49 61 62
f 50 57 60
f 51 63 64
f 51 64 52
f 52 64 59
f 52 59 55
f 52 55 53
f 53 55 54
f 57 58 60
f 58 61 60
f 58 59 61
f 59 64 61
f 61 64 62
f 62 64 63

