# https://github.com/mikedh/trimesh
v 0.03101956 0.12972337 0.00652869
v 0.03413040 0.13088396 0.00788625
v 0.03413040 0.13119885 0.00856503
v 0.03101956 0.13023169 0.00762343
v 0.03101956 0.13004275 0.00520999
v 0.03413040 0.13093345 0.00387528
v 0.03232406 0.12998202 0.00646242
v 0.03413040 0.13035765 0.00646242
v 0.03232406 0.13102341 0.00871816
v 0.03413040 0.13256863 0.00948150
v 0.03101956 0.13089746 0.00880958
v 0.03101956 0.13036214 0.00395527
v 0.03413040 0.13399914 -0.00387698
v 0.03413040 0.13328613 0.00994088
v 0.03101956 0.13189836 0.00944951
v 0.03101956 0.13161271 0.00237831
v 0.03413040 0.13431852 -0.00447577
v 0.03232406 0.13304322 0.01001173
v 0.03413040 0.13436126 0.01032712
v 0.03101956 0.13292851 0.01010086
v 0.03101956 0.14410714 -0.01118587
v 0.03323150 0.13630459 -0.00568021
v 0.03413040 0.13580301 -0.00624700
v 0.03232406 0.13444448 0.01036597
v 0.03101956 0.13422181 0.01037283
v 0.03101956 0.13357179 0.01027684
v 0.03413040 0.13517997 0.01018542
v 0.03101956 0.14592226 -0.01247943
v 0.03232406 0.14596500 -0.01237202
v 0.03413040 0.14619667 -0.01231488
v 0.03101956 0.13456144 0.01037283
v 0.03413040 0.13564107 0.01000487
v 0.03101956 0.14721557 -0.01297538
v 0.03232406 0.14725605 -0.01297538
v 0.03413040 0.14732577 -0.01295938
v 0.03101956 0.13520022 0.01012143
v 0.03413040 0.13734373 0.00907012
v 0.03232406 0.13584575 0.00985860
v 0.03101956 0.14776438 -0.01297538
v 0.03232406 0.14788583 -0.01297538
v 0.03413040 0.14842115 -0.01295709
v 0.03101956 0.13585474 0.00975804
v 0.03413040 0.14794432 0.00299081
v 0.03101956 0.14905543 -0.01270569
v 0.03413040 0.14959749 -0.01286339
v 0.03101956 0.13679717 0.00911583
v 0.03413040 0.14945129 0.00139099
v 0.03357132 0.14751246 0.00263656
v 0.03101956 0.13763613 0.00846447
v 0.03101956 0.15001809 -0.01205205
v 0.03101956 0.15095827 -0.01141213
v 0.03232406 0.15107748 -0.01150126
v 0.03413040 0.15120568 -0.01161782
v 0.03413040 0.15269692 -0.00749029
v 0.03330397 0.15262719 -0.00762970
v 0.03101956 0.15129791 -0.00643669
v 0.03101956 0.15015754 -0.00501514
v 0.03101956 0.15208513 -0.00906496
v 0.03405031 0.15253723 -0.00989001
v 0.03413040 0.15230780 -0.01024883
v 0.03413040 0.15270142 -0.00839990
v 0.03330397 0.15262719 -0.00824449
v 0.03239501 0.15234379 -0.00908325
v 0.03413040 0.15270142 -0.00869015
f 1 2 3
f 1 3 4
f 1 4 11
f 1 11 15
f 1 15 20
f 1 20 26
f 1 26 25
f 1 25 31
f 1 31 36
f 1 36 42
f 1 42 46
f 1 46 49
f 1 49 57
f 1 57 56
f 1 56 58
f 1 58 51
f 1 51 50
f 1 50 44
f 1 44 39
f 1 39 33
f 1 33 28
f 1 28 21
f 1 21 16
f 1 16 12
f 1 12 5
f 1 5 6
f 1 6 7
f 1 7 8
f 1 8 2
f 2 8 6
f 2 6 13
f 2 13 17
f 2 17 23
f 2 23 30
f 2 30 35
f 2 35 41
f 2 41 45
f 2 45 53
f 2 53 60
f 2 60 64
f 2 64 61
f 2 61 54
f 2 54 47
f 2 47 43
f 2 43 37
f 2 37 32
f 2 32 27
f 2 27 19
f 2 19 14
f 2 14 10
f 2 10 3
f 3 9 4
f 3 10 9
f 4 9 11
f 5 12 6
f 6 8 7
f 6 12 13
f 9 10 11
f 10 14 11
f 11 14 15
f 12 16 17
f 12 17 13
f 14 18 15
f 14 19 20
f 14 20 18
f 15 18 20
f 16 21 22
f 16 22 23
f 16 23 17
f 19 24 25
f 19 25 26
f 19 26 20
f 19 27 24
f 21 28 23
f 21 23 22
f 23 28 29
f 23 29 30
f 24 27 31
f 24 31 25
f 27 32 31
f 28 33 34
f 28 34 35
f 28 35 29
f 29 35 30
f 31 32 36
f 32 37 38
f 32 38 36
f 33 39 40
f 33 40 34
f 34 40 35
f 35 40 41
f 36 38 42
f 37 43 38
f 38 43 42
f 39 44 45
f 39 45 41
f 39 41 40
f 42 43 46
f 43 47 48
f 43 48 49
f 43 49 46
f 44 50 45
f 45 50 51
f 45 51 52
f 45 52 53
f 47 54 55
f 47 55 56
f 47 56 57
f 47 57 48
f 48 57 49
f 51 58 59
f 51 59 60
f 51 60 52
f 52 60 53
f 54 61 55
f 55 61 64
f 55 64 62
f 55 62 58
f 55 58 56
f 58 62 63
f 58 63 59
f 59 63 62
f 59 62 64
f 59 64 60

