# https://github.com/mikedh/trimesh
v 0.00065902 -0.03151377 0.00806583
v 0.01159573 -0.03423831 -0.01014895
v 0.00994969 -0.03423831 -0.00450373
v 0.01616095 -0.03423831 -0.00366804
v 0.00308584 -0.03061928 0.01129898
v 0.00237499 -0.02618791 0.00895026
v 0.01135975 0.00516484 -0.00247175
v 0.01478002 -0.03281899 -0.01292405
v 0.01793518 -0.03412422 -0.01235636
v 0.01934524 -0.03423831 -0.00769790
v 0.00710918 -0.03017204 0.01110650
v 0.00647115 -0.02585019 0.01177652
v 0.00856585 -0.01581001 0.01156699
v 0.00423370 -0.02455410 0.01103585
v 0.01031386 -0.00252503 0.00962028
v 0.01256005 0.00899379 -0.00247175
v 0.01782447 -0.02363679 -0.01304344
v 0.01811872 -0.02714173 -0.01311409
v 0.01838383 -0.03067861 -0.01305318
v 0.02099419 -0.02633851 -0.01212734
v 0.02231686 -0.02714173 -0.00904525
v 0.02099128 -0.03073337 -0.00872851
v 0.00859207 -0.02714173 0.01094813
v 0.03017124 0.00285559 -0.00247418
v 0.02386676 0.00036380 0.00543448
v 0.01163943 -0.01421271 0.01147197
v 0.01163943 -0.01034724 0.01177165
v 0.01422649 -0.00258892 0.01172292
v 0.01062267 -0.00711613 0.01129411
v 0.01219588 0.00009454 0.01053881
v 0.01389145 0.00457612 0.00984199
v 0.01408956 0.01215645 -0.00247175
v 0.02456596 0.00128567 -0.01160838
v 0.02302480 -0.00814753 -0.01302638
v 0.02040570 -0.01590129 -0.01304100
v 0.02086018 -0.02068406 -0.01309217
v 0.02600224 -0.00730781 -0.01299227
v 0.02363369 -0.01811469 -0.01214196
v 0.02661987 -0.01162965 -0.01130139
v 0.02582744 -0.01614317 -0.00985902
v 0.02866213 -0.00751774 -0.00882353
v 0.01327382 -0.01421271 0.01064358
v 0.01626000 -0.00388045 0.01090184
v 0.02968180 -0.00258892 -0.01016601
v 0.03042179 0.00257721 -0.00711072
v 0.02983912 0.00767944 -0.00247418
v 0.02386676 0.00751515 0.00641393
v 0.01723306 -0.00013821 0.01091159
v 0.01422649 -0.00646352 0.01142811
v 0.01761471 0.00468108 0.01065820
v 0.01642606 0.00748777 0.00891371
v 0.02386676 0.01238464 0.00128767
v 0.02560020 0.01161793 -0.00217694
v 0.02594397 0.01036747 -0.00522735
v 0.02456596 0.00812669 -0.00813402
v 0.02539918 0.00447571 -0.01058264
v 0.01865186 0.01035835 0.00593639
v 0.02817560 0.00128567 -0.01158645
v 0.02494470 -0.00368421 -0.01274376
v 0.02896220 0.00501880 -0.00929620
v 0.02777647 0.00807192 -0.00712534
v 0.02386676 0.01089230 0.00485218
v 0.02081648 0.00743757 0.00830460
f 1 2 3
f 1 3 4
f 1 4 5
f 1 5 6
f 1 6 7
f 1 7 2
f 2 8 9
f 2 9 10
f 2 10 4
f 2 4 3
f 2 7 8
f 4 10 11
f 4 11 5
f 5 11 12
f 5 12 13
f 5 13 14
f 5 14 6
f 6 14 15
f 6 15 16
f 6 16 7
f 7 16 17
f 7 17 8
f 8 17 18
f 8 18 19
f 8 19 9
f 9 19 20
f 9 20 21
f 9 21 22
f 9 22 10
f 10 23 11
f 10 22 24
f 10 24 25
f 10 25 23
f 11 23 26
f 11 26 12
f 12 26 27
f 12 27 13
f 13 27 28
f 13 28 29
f 13 29 14
f 14 29 30
f 14 30 15
f 15 30 31
f 15 31 32
f 15 32 16
f 16 32 33
f 16 33 34
f 16 34 35
f 16 35 17
f 17 35 18
f 18 35 34
f 18 34 36
f 18 36 19
f 19 36 37
f 19 37 38
f 19 38 20
f 20 38 39
f 20 39 40
f 20 40 21
f 21 40 41
f 21 41 24
f 21 24 22
f 23 25 42
f 23 42 43
f 23 43 26
f 24 41 44
f 24 44 45
f 24 45 46
f 24 46 47
f 24 47 25
f 25 47 48
f 25 48 43
f 25 43 42
f 26 43 49
f 26 49 27
f 27 49 28
f 28 49 48
f 28 48 50
f 28 50 31
f 28 31 30
f 28 30 29
f 31 50 51
f 31 51 32
f 32 52 53
f 32 53 54
f 32 54 55
f 32 55 56
f 32 56 33
f 32 51 57
f 32 57 52
f 33 56 58
f 33 58 59
f 33 59 34
f 34 37 36
f 34 59 37
f 37 39 38
f 37 59 58
f 37 58 44
f 37 44 39
f 39 44 40
f 40 44 41
f 43 48 49
f 44 58 60
f 44 60 45
f 45 60 46
f 46 60 61
f 46 61 54
f 46 54 53
f 46 53 52
f 46 52 62
f 46 62 47
f 47 63 50
f 47 50 48
f 47 62 63
f 50 63 51
f 51 63 62
f 51 62 57
f 52 57 62
f 54 61 55
f 55 61 60
f 55 60 56
f 56 60 58

