# https://github.com/mikedh/trimesh
v 0.02856506 -0.11637733 -0.00264373
v 0.02856506 -0.11100938 -0.00778037
v 0.03020208 -0.11195375 -0.00854213
v 0.03206776 -0.11271708 -0.00923064
v 0.03298991 -0.11398654 -0.00819787
v 0.02979251 -0.11637733 -0.00323598
v 0.03257909 -0.11637733 -0.00316064
v 0.03447617 -0.11627446 -0.00251085
v 0.02896081 -0.09858838 -0.00252759
v 0.02856506 -0.09956157 -0.01139663
v 0.03113052 -0.10989833 -0.01027387
v 0.03286931 -0.11176035 -0.01076567
v 0.02856506 -0.10201408 -0.01099169
v 0.03450381 -0.11326643 -0.00990450
v 0.03749517 -0.11362237 -0.00964814
v 0.03987595 -0.11337136 -0.00888743
v 0.04139990 -0.11291872 -0.00897637
v 0.03735949 -0.11500500 -0.00251085
v 0.03019078 -0.09773246 -0.00251085
v 0.02906760 -0.09698354 -0.00366290
v 0.02915303 -0.09559268 -0.00506399
v 0.02915303 -0.09535814 -0.00646717
v 0.02915303 -0.09545278 -0.00824496
v 0.02915303 -0.09630664 -0.00946189
v 0.02915303 -0.09762136 -0.01076985
v 0.04139990 -0.10744787 -0.01320057
v 0.04007948 -0.10779970 -0.01318593
v 0.03803038 -0.10825236 -0.01307082
v 0.03766478 -0.10972962 -0.01294840
v 0.03491213 -0.10989628 -0.01220652
v 0.03242205 -0.10989833 -0.01102412
v 0.03450381 -0.11211630 -0.01112353
v 0.03749517 -0.11233233 -0.01152324
v 0.04007948 -0.11216156 -0.01155463
v 0.04139990 -0.11199696 -0.01141651
v 0.04139990 -0.11228707 -0.00653833
v 0.04040613 -0.11251339 -0.00251085
v 0.03487695 -0.09705967 -0.00251085
v 0.03232531 -0.09664201 -0.00297334
v 0.03232531 -0.09546924 -0.00472706
v 0.03246728 -0.09539311 -0.00650589
v 0.03169965 -0.09548570 -0.00807545
v 0.03162552 -0.09796291 -0.01055012
v 0.04139990 -0.10612286 -0.01274959
v 0.04139990 -0.10954033 -0.01319430
v 0.04007948 -0.10968848 -0.01318593
v 0.04007948 -0.11098263 -0.01284795
v 0.04139990 -0.11083449 -0.01271192
v 0.04124537 -0.11132417 -0.00251085
v 0.04139990 -0.10083515 -0.00327888
v 0.03480910 -0.09622845 -0.00399251
v 0.03749517 -0.09777773 -0.00251085
v 0.03398620 -0.09567293 -0.00529419
v 0.03428395 -0.09601241 -0.00684178
v 0.03650392 -0.09794644 -0.00800953
v 0.03450381 -0.09733331 -0.00862898
v 0.03252381 -0.09685598 -0.00916053
v 0.04139990 -0.10499125 -0.01150441
v 0.03885831 -0.09820980 -0.00251085
v 0.04139990 -0.10137215 -0.00496145
v 0.03884449 -0.09820775 -0.00526385
v 0.03888218 -0.09818099 -0.00387950
v 0.03749517 -0.09737240 -0.00387950
v 0.03741728 -0.09764605 -0.00626104
f 1 2 3
f 1 3 4
f 1 4 5
f 1 5 6
f 1 6 7
f 1 7 8
f 1 8 9
f 1 9 10
f 1 10 13
f 1 13 2
f 2 11 12
f 2 12 3
f 2 13 11
f 3 12 4
f 4 14 5
f 4 12 14
f 5 14 6
f 6 14 15
f 6 15 7
f 7 15 8
f 8 15 16
f 8 16 17
f 8 17 18
f 8 18 37
f 8 37 49
f 8 49 59
f 8 59 52
f 8 52 38
f 8 38 19
f 8 19 9
f 9 19 20
f 9 20 10
f 10 20 21
f 10 21 22
f 10 22 23
f 10 23 24
f 10 24 25
f 10 25 26
f 10 26 27
f 10 27 28
f 10 28 29
f 10 29 30
f 10 30 13
f 11 13 12
f 12 13 31
f 12 31 30
f 12 30 32
f 12 32 14
f 13 30 31
f 14 32 33
f 14 33 15
f 15 33 34
f 15 34 35
f 15 35 16
f 16 35 17
f 17 36 37
f 17 37 18
f 17 35 48
f 17 48 45
f 17 45 26
f 17 26 44
f 17 44 58
f 17 58 60
f 17 60 50
f 17 50 36
f 19 38 39
f 19 39 21
f 19 21 20
f 21 40 22
f 21 39 40
f 22 40 41
f 22 41 23
f 23 41 42
f 23 42 24
f 24 42 25
f 25 43 44
f 25 44 26
f 25 42 43
f 26 45 46
f 26 46 27
f 27 46 28
f 28 46 29
f 29 46 47
f 29 47 32
f 29 32 30
f 32 47 33
f 33 47 34
f 34 47 48
f 34 48 35
f 36 49 37
f 36 50 49
f 38 51 40
f 38 40 39
f 38 52 51
f 40 51 53
f 40 53 41
f 41 53 54
f 41 54 42
f 42 54 55
f 42 55 56
f 42 56 57
f 42 57 43
f 43 57 56
f 43 56 44
f 44 56 55
f 44 55 58
f 45 48 47
f 45 47 46
f 49 50 59
f 50 60 61
f 50 61 62
f 50 62 59
f 51 52 59
f 51 59 63
f 51 63 53
f 53 63 61
f 53 61 54
f 54 61 64
f 54 64 55
f 55 64 61
f 55 61 58
f 58 61 60
f 59 62 63
f 61 63 62

