# https://github.com/mikedh/trimesh
v 0.08047535 0.00564230 -0.00140082
v 0.08047535 0.00636483 0.00091973
v 0.08097295 0.00636483 -0.00340692
v 0.09002613 -0.03228071 -0.00766283
v 0.09002613 -0.03228071 0.00100620
v 0.08237921 0.00636483 0.00295099
v 0.08667667 0.00636483 -0.00323713
v 0.09438457 -0.02283874 -0.01057294
v 0.09180019 -0.02289926 -0.01050376
v 0.09014021 -0.02330781 -0.01032453
v 0.10056819 -0.02833143 -0.01068299
v 0.10056819 -0.03009423 -0.00943782
v 0.10056819 -0.03172842 -0.00724620
v 0.09689028 -0.03228071 -0.00604662
v 0.09062011 -0.02497982 -0.01008399
v 0.09696895 -0.02676154 -0.01070815
v 0.09845978 -0.03228071 0.00097004
v 0.09438457 -0.03222776 0.00288338
v 0.09258298 -0.03201970 0.00243374
v 0.08467643 0.00636483 0.00451059
v 0.08909780 0.00636483 -0.00232998
v 0.10056819 -0.02502522 -0.01087323
v 0.09696895 -0.02456371 -0.01085593
v 0.09196737 -0.02444266 -0.01049118
v 0.09996045 -0.03228071 -0.00421817
v 0.10056819 -0.03169059 -0.00192278
v 0.09402268 -0.02530515 -0.01059338
v 0.10056819 -0.02973864 -0.00093702
v 0.09875087 -0.02715118 0.00302960
v 0.09766519 -0.03006018 0.00303117
v 0.09656772 -0.03211805 0.00263183
v 0.09696895 -0.02715118 0.00387700
v 0.09438457 -0.02973108 0.00342107
v 0.09438457 -0.02715118 0.00380311
v 0.08624791 0.00618703 0.00513161
v 0.08866315 0.00636483 0.00475114
v 0.09085416 0.00636483 -0.00050467
v 0.10056819 -0.02309975 -0.00977584
v 0.10056819 -0.02715118 -0.00055498
v 0.09974411 -0.02715118 0.00129076
v 0.09875087 -0.02456371 0.00306104
v 0.09696895 -0.02456371 0.00399492
v 0.09438457 -0.02197624 0.00434866
v 0.09438457 -0.02456371 0.00410969
v 0.08788822 0.00314184 0.00518820
v 0.09115115 0.00387572 0.00335975
v 0.09080106 0.00636483 0.00299972
v 0.09438457 -0.01680131 0.00440369
v 0.09696895 -0.02197624 0.00381097
v 0.09654019 -0.01680131 0.00336919
v 0.09620976 -0.01422141 0.00315223
v 0.09352901 -0.00388290 0.00311292
v 0.09113934 0.00636483 0.00129233
v 0.10056819 -0.02197246 -0.00689717
v 0.10056819 -0.02466963 -0.00172940
v 0.09961626 -0.02456371 0.00129076
v 0.09840078 -0.02121968 0.00273874
v 0.09438457 -0.01939256 0.00445557
v 0.09327726 -0.00191582 0.00283622
v 0.09302945 -0.00019463 0.00187561
v 0.09580657 -0.01092277 0.00274031
v 0.10056819 -0.02251719 -0.00463008
v 0.09809396 -0.01873813 0.00195422
v 0.09905965 -0.02197624 0.00129076
f 1 2 3
f 1 3 4
f 1 4 5
f 1 5 2
f 2 6 20
f 2 20 36
f 2 36 47
f 2 47 53
f 2 53 37
f 2 37 21
f 2 21 7
f 2 7 3
f 2 5 6
f 3 7 8
f 3 8 9
f 3 9 10
f 3 10 4
f 4 11 12
f 4 12 13
f 4 13 14
f 4 14 25
f 4 25 17
f 4 17 5
f 4 10 15
f 4 15 16
f 4 16 11
f 5 17 18
f 5 18 19
f 5 19 20
f 5 20 6
f 7 21 22
f 7 22 8
f 8 22 23
f 8 23 9
f 9 23 24
f 9 24 10
f 10 24 15
f 11 16 23
f 11 23 22
f 11 22 38
f 11 38 54
f 11 54 62
f 11 62 55
f 11 55 39
f 11 39 28
f 11 28 26
f 11 26 13
f 11 13 12
f 13 25 14
f 13 26 25
f 15 24 16
f 16 24 27
f 16 27 23
f 17 25 26
f 17 26 28
f 17 28 29
f 17 29 30
f 17 30 31
f 17 31 18
f 18 31 30
f 18 30 32
f 18 32 33
f 18 33 19
f 19 33 34
f 19 34 35
f 19 35 20
f 20 35 36
f 21 37 38
f 21 38 22
f 23 27 24
f 28 39 40
f 28 40 29
f 29 32 30
f 29 40 41
f 29 41 42
f 29 42 32
f 32 42 43
f 32 43 44
f 32 44 34
f 32 34 33
f 34 44 35
f 35 45 36
f 35 44 43
f 35 43 45
f 36 46 47
f 36 45 48
f 36 48 49
f 36 49 50
f 36 50 51
f 36 51 52
f 36 52 46
f 37 53 38
f 38 53 54
f 39 55 56
f 39 56 40
f 40 56 41
f 41 56 57
f 41 57 50
f 41 50 49
f 41 49 42
f 42 49 48
f 42 48 58
f 42 58 43
f 43 58 45
f 45 58 48
f 46 59 47
f 46 52 59
f 47 59 60
f 47 60 53
f 50 57 51
f 51 57 61
f 51 61 52
f 52 61 59
f 53 60 62
f 53 62 54
f 55 62 60
f 55 60 61
f 55 61 63
f 55 63 64
f 55 64 56
f 56 64 57
f 57 64 63
f 57 63 61
f 59 61 60

