# https://github.com/mikedh/trimesh
v 0.11105702 -0.07091013 -0.01226463
v 0.11105702 -0.06595375 -0.01310166
v 0.11113724 -0.06991118 -0.01294515
v 0.11210917 -0.07091013 -0.01157356
v 0.11106284 -0.07091013 -0.00522204
v 0.11105702 -0.07014848 -0.00478946
v 0.11253002 -0.06569797 -0.01309287
v 0.11132210 -0.06852573 -0.01307176
v 0.11105702 -0.06398143 -0.01304363
v 0.11378912 -0.06467202 -0.01293109
v 0.11341825 -0.06639567 -0.01276052
v 0.11287880 -0.06852573 -0.01225057
v 0.11428322 -0.06852573 -0.01095811
v 0.11387514 -0.06996660 -0.01046750
v 0.11341359 -0.07091013 -0.00879521
v 0.11238005 -0.07091013 -0.00651978
v 0.12293407 -0.06653635 0.00133874
v 0.12288175 -0.06550898 0.00357197
v 0.11248933 -0.06760209 0.00057206
v 0.11105934 -0.06763477 0.00055271
v 0.11105934 -0.06678644 0.00124027
v 0.11105934 -0.06589407 0.00182583
v 0.11105934 -0.06418036 0.00221269
v 0.11105934 -0.06335619 0.00233226
v 0.11105702 -0.05639339 -0.00478946
v 0.11248933 -0.06357502 -0.01301549
v 0.11378912 -0.06395301 -0.01293109
v 0.11248933 -0.06077001 -0.01252664
v 0.11248933 -0.06228193 -0.01290823
v 0.11105702 -0.05645875 -0.01088601
v 0.11653981 -0.06283611 -0.01059411
v 0.11463548 -0.06569797 -0.01179337
v 0.12293407 -0.06495480 -0.00280417
v 0.12293407 -0.06599070 -0.00124442
v 0.12293407 -0.06327662 0.00486267
v 0.12024499 -0.06554024 0.00336272
v 0.11765706 -0.06544788 0.00315346
v 0.11507377 -0.06520773 0.00291079
v 0.11304157 -0.06491927 0.00271736
v 0.11160227 -0.06335619 0.00246942
v 0.11334035 -0.06182864 0.00270681
v 0.11105934 -0.06225067 0.00195596
v 0.11705833 -0.05639339 -0.00478946
v 0.11248933 -0.05639339 -0.01105658
v 0.11105934 -0.06071743 0.00131764
v 0.11105934 -0.05639481 -0.00074854
v 0.12286779 -0.05639481 0.00352801
v 0.11477034 -0.05818382 -0.01107241
v 0.11532955 -0.06052702 -0.01140475
v 0.11653981 -0.06122330 -0.01059411
v 0.11248933 -0.05818382 -0.01173710
v 0.12293407 -0.06077001 -0.00356734
v 0.12293407 -0.06340167 -0.00339149
v 0.12293407 -0.06091211 0.00475717
v 0.12024499 -0.06335619 0.00434217
v 0.11765706 -0.06335619 0.00383222
v 0.11507377 -0.06335619 0.00326424
v 0.11289508 -0.06335619 0.00277539
v 0.12293407 -0.05639481 -0.00259491
v 0.11638519 -0.05639339 -0.00808304
v 0.11432391 -0.05639339 -0.01064510
v 0.11636193 -0.05950107 -0.01032858
v 0.11606314 -0.05818382 -0.00993645
v 0.11544581 -0.05639339 -0.00938781
f 1 2 3
f 1 3 4
f 1 4 15
f 1 15 16
f 1 16 5
f 1 5 6
f 1 6 25
f 1 25 30
f 1 30 9
f 1 9 2
f 2 7 8
f 2 8 3
f 2 9 7
f 3 8 10
f 3 10 11
f 3 11 12
f 3 12 4
f 4 12 13
f 4 13 14
f 4 14 15
f 5 16 17
f 5 17 18
f 5 18 19
f 5 19 20
f 5 20 6
f 6 20 21
f 6 21 22
f 6 22 23
f 6 23 24
f 6 24 25
f 7 9 26
f 7 26 27
f 7 27 10
f 7 10 8
f 9 28 29
f 9 29 26
f 9 30 28
f 10 27 50
f 10 50 31
f 10 31 32
f 10 32 11
f 11 32 13
f 11 13 12
f 13 32 33
f 13 33 14
f 14 33 34
f 14 34 15
f 15 34 17
f 15 17 16
f 17 34 33
f 17 33 53
f 17 53 52
f 17 52 59
f 17 59 54
f 17 54 35
f 17 35 18
f 18 35 36
f 18 36 20
f 18 20 19
f 20 36 37
f 20 37 21
f 21 37 38
f 21 38 22
f 22 38 39
f 22 39 23
f 23 39 24
f 24 39 40
f 24 40 41
f 24 41 42
f 24 42 25
f 25 43 60
f 25 60 64
f 25 64 61
f 25 61 44
f 25 44 30
f 25 42 45
f 25 45 46
f 25 46 47
f 25 47 43
f 26 29 27
f 27 29 28
f 27 28 48
f 27 48 49
f 27 49 50
f 28 30 51
f 28 51 48
f 30 44 51
f 31 50 52
f 31 52 53
f 31 53 32
f 32 53 33
f 35 54 55
f 35 55 39
f 35 39 38
f 35 38 37
f 35 37 36
f 39 55 56
f 39 56 57
f 39 57 58
f 39 58 40
f 40 58 41
f 41 58 57
f 41 57 54
f 41 54 47
f 41 47 46
f 41 46 45
f 41 45 42
f 43 47 59
f 43 59 60
f 44 61 51
f 47 54 59
f 48 61 62
f 48 62 49
f 48 51 61
f 49 62 50
f 50 62 59
f 50 59 52
f 54 57 56
f 54 56 55
f 59 62 63
f 59 63 61
f 59 61 64
f 59 64 60
f 61 63 62

