# https://github.com/mikedh/trimesh
v 0.05962163 0.10356033 -0.01295961
v 0.05989825 0.10146849 -0.01295812
v 0.05796534 0.10299669 -0.01295664
v 0.05571776 0.10711791 -0.01242626
v 0.07892660 0.10711791 -0.01266330
v 0.06335952 0.09955822 -0.01243811
v 0.06335952 0.09717876 -0.01125586
v 0.06077308 0.09753902 -0.01106771
v 0.05768179 0.10167621 -0.01261145
v 0.08145080 0.10472681 -0.01250330
v 0.08145080 0.10214252 -0.01231366
v 0.08145080 0.09956113 -0.01202329
v 0.08145080 0.09711774 -0.01168254
v 0.05291002 0.10711791 -0.01133290
v 0.08134360 0.10711791 -0.01258034
v 0.06594251 0.09593528 -0.00979657
v 0.06604279 0.09227746 -0.00522905
v 0.05906838 0.09799806 -0.01068548
v 0.05837682 0.09969768 -0.01164846
v 0.05639895 0.10031797 -0.01088844
v 0.05577308 0.10236623 -0.01163661
v 0.05358429 0.10472681 -0.01105734
v 0.08396463 0.09711774 -0.01158328
v 0.05146811 0.10690581 -0.00944248
v 0.05192800 0.10696828 -0.00609870
v 0.07359119 0.10711791 0.00217557
v 0.08362231 0.10711791 -0.01115364
v 0.08378137 0.10472681 -0.01131364
v 0.08571083 0.09711774 -0.01075659
v 0.08403725 0.09956113 -0.01152253
v 0.06447986 0.09290936 -0.00522905
v 0.08673434 0.09711774 -0.00909136
v 0.08679312 0.09711774 -0.00652982
v 0.08578344 0.09711774 -0.00476533
v 0.08404761 0.09711774 -0.00388976
v 0.08145080 0.09711774 -0.00342012
v 0.07146464 0.09760439 -0.00193860
v 0.05740517 0.09865466 -0.00904988
v 0.05610504 0.09994318 -0.00904988
v 0.05481181 0.10149173 -0.00904988
v 0.05405801 0.10305915 -0.01066325
v 0.05247433 0.10493890 -0.00892395
v 0.05167558 0.10594415 -0.00780985
v 0.05394044 0.10294439 -0.00719947
v 0.05465621 0.10390170 -0.00535350
v 0.05617419 0.10198854 -0.00522905
v 0.05820739 0.09932144 -0.00522905
v 0.06214584 0.09453635 -0.00522905
v 0.07369493 0.10472681 0.00136963
v 0.07629174 0.10711791 0.00205261
v 0.08451443 0.10711791 -0.00895506
v 0.08523019 0.10300686 -0.00997287
v 0.08542037 0.10128690 -0.01044843
v 0.08557942 0.09956113 -0.01060399
v 0.08625370 0.09956113 -0.00904840
v 0.08544112 0.10384941 -0.00788541
v 0.08520253 0.10055330 -0.00533424
v 0.08551028 0.09882899 -0.00500238
v 0.07810710 0.10711791 0.00072813
v 0.07562439 0.10281510 0.00036368
v 0.07369493 0.10185489 0.00011330
v 0.05634017 0.10017270 -0.00705872
v 0.05384708 0.10278459 -0.00904988
v 0.08320737 0.10687822 -0.00554165
f 1 2 3
f 1 3 4
f 1 4 5
f 1 5 2
f 2 6 7
f 2 7 8
f 2 8 9
f 2 9 3
f 2 5 10
f 2 10 11
f 2 11 12
f 2 12 13
f 2 13 6
f 3 9 14
f 3 14 4
f 4 14 26
f 4 26 50
f 4 50 59
f 4 59 51
f 4 51 27
f 4 27 15
f 4 15 5
f 5 15 10
f 6 13 7
f 7 16 17
f 7 17 8
f 7 13 16
f 8 17 18
f 8 18 19
f 8 19 9
f 9 19 20
f 9 20 21
f 9 21 22
f 9 22 14
f 10 15 23
f 10 23 11
f 11 23 12
f 12 23 13
f 13 23 17
f 13 17 16
f 14 22 24
f 14 24 25
f 14 25 26
f 15 27 28
f 15 28 29
f 15 29 30
f 15 30 23
f 17 31 18
f 17 23 29
f 17 29 32
f 17 32 33
f 17 33 34
f 17 34 35
f 17 35 36
f 17 36 37
f 17 37 31
f 18 38 20
f 18 20 19
f 18 31 38
f 20 38 39
f 20 39 40
f 20 40 41
f 20 41 21
f 21 41 22
f 22 41 24
f 23 30 29
f 24 42 43
f 24 43 25
f 24 41 42
f 25 43 44
f 25 44 45
f 25 45 26
f 26 45 46
f 26 46 47
f 26 47 48
f 26 48 49
f 26 49 50
f 27 51 52
f 27 52 53
f 27 53 54
f 27 54 28
f 28 54 29
f 29 54 32
f 31 37 49
f 31 49 48
f 31 48 38
f 32 55 56
f 32 56 33
f 32 54 53
f 32 53 55
f 33 56 57
f 33 57 58
f 33 58 34
f 34 58 59
f 34 59 50
f 34 50 35
f 35 50 60
f 35 60 36
f 36 60 61
f 36 61 37
f 37 61 49
f 38 48 39
f 39 62 44
f 39 44 40
f 39 48 62
f 40 44 63
f 40 63 41
f 41 63 42
f 42 63 43
f 43 63 44
f 44 62 48
f 44 48 47
f 44 47 46
f 44 46 45
f 49 61 60
f 49 60 50
f 51 56 55
f 51 55 52
f 51 59 64
f 51 64 56
f 52 55 53
f 56 64 57
f 57 64 59
f 57 59 58

