# https://github.com/mikedh/trimesh
v 0.02856163 -0.11291787 -0.00477321
v 0.02795025 -0.11291787 -0.00279471
v 0.04054263 -0.11457828 0.00212326
v 0.03948075 -0.11432907 -0.00140496
v 0.03794693 -0.11457537 -0.00250780
v 0.00444946 -0.14148376 -0.00309975
v 0.00981606 -0.13058537 -0.00349972
v 0.00401684 -0.12805275 -0.00243741
v 0.02621620 -0.11432907 0.00127960
v 0.02752478 -0.11432907 0.00338289
v 0.03704951 -0.11631112 0.00554696
v 0.03899450 -0.11598947 0.00423614
v 0.03784682 -0.11813380 0.00128920
v 0.03910534 -0.11670811 0.00054793
v 0.03460398 -0.11568811 0.00610158
v 0.03643455 -0.11915090 0.00059273
v 0.00464968 -0.14242552 -0.00037252
v 0.00428142 -0.14251825 0.00190141
v 0.00403472 -0.14121137 0.00369326
v 0.02600883 -0.12683570 -0.00014641
v 0.01570467 -0.13459584 -0.00019760
v 0.00401684 -0.13589982 0.00466811
v 0.00401684 -0.13089543 0.00129560
v 0.02872252 -0.11604163 0.00503928
v 0.03083913 -0.11569680 0.00559603
v 0.00425639 -0.13256163 0.00292319
v 0.01550087 -0.12669950 0.00517686
v 0.03757509 -0.11772811 0.00405269
v 0.03493648 -0.11773970 0.00571548
v 0.03409270 -0.11929000 0.00537845
v 0.03389606 -0.12134739 0.00179049
v 0.03231932 -0.11766146 0.00612291
v 0.02671317 -0.12068381 0.00593413
v 0.00627647 -0.14146058 0.00134253
v 0.00830011 -0.14002041 0.00129133
v 0.00726326 -0.14011603 0.00306185
v 0.01246540 -0.13413221 0.00503928
v 0.01074208 -0.13469147 0.00524939
v 0.00688070 -0.13742983 0.00489742
v 0.00464968 -0.13765006 0.00508514
v 0.00578307 -0.13513482 0.00502434
v 0.01008779 -0.13167203 0.00524939
v 0.00836447 -0.13254424 0.00493795
v 0.00657322 -0.13331214 0.00451132
v 0.02639497 -0.11849312 0.00537098
v 0.02468953 -0.12032738 0.00551070
v 0.02198656 -0.12279046 0.00556403
v 0.01107101 -0.12995077 0.00483343
v 0.01279076 -0.12917708 0.00522166
v 0.02005230 -0.12362211 0.00538164
v 0.03601624 -0.11898863 0.00408256
v 0.02973435 -0.12024625 0.00596933
v 0.03215486 -0.12019119 0.00556830
v 0.03275194 -0.12109529 0.00448359
v 0.03045657 -0.12188926 0.00535178
v 0.02906933 -0.12457837 0.00327409
v 0.01564389 -0.13455527 0.00271414
v 0.02456081 -0.12283682 0.00588933
v 0.02198298 -0.12542161 0.00580081
v 0.01181469 -0.13072157 0.00534112
v 0.00750639 -0.13426840 0.00522273
v 0.02271593 -0.12706462 0.00533258
v 0.01562601 -0.13193862 0.00520246
v 0.03215128 -0.12206893 0.00369539
f 1 2 3
f 1 3 4
f 1 4 5
f 1 5 6
f 1 6 7
f 1 7 8
f 1 8 2
f 2 8 9
f 2 9 10
f 2 10 3
f 3 11 12
f 3 12 13
f 3 13 14
f 3 14 4
f 3 10 15
f 3 15 11
f 4 14 5
f 5 14 16
f 5 16 6
f 6 17 18
f 6 18 19
f 6 19 8
f 6 8 7
f 6 16 20
f 6 20 21
f 6 21 17
f 8 19 22
f 8 22 23
f 8 23 10
f 8 10 9
f 10 24 25
f 10 25 15
f 10 23 26
f 10 26 27
f 10 27 24
f 11 28 12
f 11 15 29
f 11 29 30
f 11 30 28
f 12 28 13
f 13 28 31
f 13 31 16
f 13 16 14
f 15 32 29
f 15 25 33
f 15 33 32
f 16 31 21
f 16 21 20
f 17 34 18
f 17 21 35
f 17 35 34
f 18 34 36
f 18 36 19
f 19 36 37
f 19 37 38
f 19 38 39
f 19 39 40
f 19 40 22
f 21 31 35
f 22 26 23
f 22 40 41
f 22 41 42
f 22 42 43
f 22 43 44
f 22 44 26
f 24 27 45
f 24 45 25
f 25 45 46
f 25 46 47
f 25 47 33
f 26 44 48
f 26 48 27
f 27 48 49
f 27 49 50
f 27 50 45
f 28 30 51
f 28 51 31
f 29 32 52
f 29 52 53
f 29 53 30
f 30 54 51
f 30 53 55
f 30 55 54
f 31 51 56
f 31 56 57
f 31 57 35
f 32 33 58
f 32 58 59
f 32 59 52
f 33 47 42
f 33 42 60
f 33 60 61
f 33 61 58
f 34 35 57
f 34 57 36
f 36 57 54
f 36 54 55
f 36 55 62
f 36 62 63
f 36 63 37
f 37 63 38
f 38 59 40
f 38 40 39
f 38 63 52
f 38 52 59
f 40 59 61
f 40 61 41
f 41 61 42
f 42 47 49
f 42 49 43
f 42 61 60
f 43 49 48
f 43 48 44
f 45 50 46
f 46 50 47
f 47 50 49
f 51 54 64
f 51 64 56
f 52 63 62
f 52 62 53
f 53 62 55
f 54 57 56
f 54 56 64
f 58 61 59

