# https://github.com/mikedh/trimesh
v -0.07628064 -0.03748066 -0.00904776
v -0.07024991 -0.03834200 -0.00832881
v -0.07369422 -0.03782094 -0.01018000
v -0.07628064 -0.03885597 -0.01188185
v -0.07926741 -0.03817363 -0.00989173
v -0.08796082 -0.03853518 -0.00134084
v -0.08403353 -0.03781917 -0.00129569
v -0.07964870 -0.03852278 0.00042699
v -0.02854952 -0.04767497 -0.00639427
v -0.03750347 -0.04526994 -0.00904949
v -0.06777153 -0.03866633 -0.01047001
v -0.07110781 -0.03891446 -0.01174466
v -0.07741816 -0.04181395 -0.01273971
v -0.08190466 -0.04116883 -0.01119764
v -0.07369422 -0.04005050 -0.01288385
v -0.08916824 -0.04162963 -0.00373731
v -0.08794175 -0.03934513 0.00260639
v -0.08544430 -0.04267174 -0.00924052
v -0.08278163 -0.03922993 0.00247615
v -0.02483830 -0.05057623 -0.00639427
v -0.02940107 -0.04919560 -0.01080691
v -0.03451035 -0.04608343 -0.00990562
v -0.07947077 -0.04095261 0.00287904
v -0.04435398 -0.04375285 -0.01049780
v -0.04784914 -0.04399566 -0.01186622
v -0.06350108 -0.04145063 -0.01289948
v -0.06950004 -0.04139391 -0.01315302
v -0.07349087 -0.04367664 -0.01298631
v -0.08355056 -0.04594165 -0.01041618
v -0.08916824 -0.04684375 -0.00538879
v -0.08916824 -0.04643081 0.00372301
v -0.08707750 -0.04525400 -0.00809785
v -0.08789091 -0.04254059 0.00445932
v -0.08274350 -0.04267174 0.00401996
v -0.02424730 -0.05558477 -0.00643248
v -0.02602665 -0.05558477 -0.00963993
v -0.02687820 -0.05300783 -0.01033629
v -0.02975058 -0.05300783 -0.01204508
v -0.03373506 -0.05041140 -0.01297936
v -0.03374142 -0.04774409 -0.01192352
v -0.03750347 -0.04649284 -0.01195999
v -0.04049660 -0.04669488 -0.01287169
v -0.04472256 -0.04623408 -0.01307313
v -0.06076215 -0.04315027 -0.01318428
v -0.06593498 -0.04267352 -0.01326416
v -0.06853411 -0.04437316 -0.01311308
v -0.05916073 -0.04676046 -0.01304014
v -0.07628700 -0.05299366 -0.00938812
v -0.08404624 -0.05299366 -0.00698818
v -0.08667079 -0.04899533 -0.00787730
v -0.08858359 -0.05231840 -0.00445278
v -0.08913011 -0.05295821 0.00036621
v -0.08546972 -0.05299366 0.00242926
v -0.04402353 -0.05542880 -0.00593582
v -0.04127189 -0.05558477 -0.00882200
v -0.03097707 -0.05558477 -0.01117159
v -0.03648670 -0.05114337 -0.01303840
v -0.03750347 -0.04842997 -0.01314433
v -0.04913917 -0.04574138 -0.01318775
v -0.05688570 -0.04525754 -0.01328152
v -0.06463859 -0.04478611 -0.01319817
v -0.05430564 -0.04721239 -0.01318080
v -0.04008989 -0.04984781 -0.01314781
v -0.04407437 -0.04889963 -0.01317559
f 1 2 3
f 1 3 4
f 1 4 5
f 1 5 6
f 1 6 7
f 1 7 8
f 1 8 2
f 2 8 9
f 2 9 10
f 2 10 11
f 2 11 3
f 3 11 12
f 3 12 4
f 4 13 14
f 4 14 5
f 4 12 15
f 4 15 13
f 5 14 6
f 6 16 17
f 6 17 7
f 6 14 18
f 6 18 16
f 7 17 19
f 7 19 8
f 8 19 9
f 9 20 21
f 9 21 22
f 9 22 10
f 9 19 23
f 9 23 20
f 10 22 24
f 10 24 11
f 11 24 25
f 11 25 12
f 12 25 26
f 12 26 15
f 13 15 27
f 13 27 28
f 13 28 29
f 13 29 14
f 14 29 18
f 15 26 27
f 16 30 31
f 16 31 17
f 16 18 32
f 16 32 30
f 17 33 19
f 17 31 33
f 18 29 32
f 19 33 34
f 19 34 23
f 20 35 36
f 20 36 37
f 20 37 21
f 20 23 34
f 20 34 35
f 21 37 38
f 21 38 39
f 21 39 40
f 21 40 22
f 22 40 41
f 22 41 24
f 24 41 25
f 25 41 42
f 25 42 26
f 26 42 43
f 26 43 44
f 26 44 27
f 27 44 45
f 27 45 28
f 28 45 46
f 28 46 47
f 28 47 48
f 28 48 29
f 29 49 50
f 29 50 32
f 29 48 49
f 30 51 52
f 30 52 31
f 30 32 50
f 30 50 51
f 31 52 53
f 31 53 33
f 33 53 34
f 34 53 35
f 35 53 54
f 35 54 55
f 35 55 56
f 35 56 36
f 36 56 38
f 36 38 37
f 38 56 57
f 38 57 39
f 39 57 58
f 39 58 40
f 40 58 42
f 40 42 41
f 42 58 43
f 43 59 44
f 43 58 59
f 44 59 45
f 45 59 60
f 45 60 61
f 45 61 46
f 46 61 62
f 46 62 47
f 47 62 57
f 47 57 48
f 48 57 56
f 48 56 55
f 48 55 49
f 49 52 51
f 49 51 50
f 49 55 52
f 52 55 54
f 52 54 53
f 57 63 58
f 57 62 63
f 58 63 60
f 58 60 59
f 60 62 61
f 60 63 64
f 60 64 62
f 62 64 63

