# https://github.com/mikedh/trimesh
v 0.00882941 -0.03452576 0.00538052
v 0.00882941 -0.03742414 0.00494996
v 0.01680673 -0.04266598 0.00127752
v 0.01482056 -0.04008299 0.00228337
v 0.01845410 -0.04266598 0.00032594
v 0.01828159 -0.04102117 0.00019569
v 0.01609339 -0.03802099 0.00058283
v 0.01436365 -0.03171920 -0.00308961
v 0.00509019 -0.03419241 -0.00137098
v 0.00882941 -0.03991731 0.00428421
v 0.01330373 -0.04155613 0.00267775
v 0.01811530 -0.04657440 0.00000754
v 0.01833132 -0.04524897 0.00018483
v 0.02074798 -0.04683390 -0.00249080
v 0.02074332 -0.04524897 -0.00249080
v 0.02070136 -0.04390158 -0.00255593
v 0.01919231 -0.03424431 -0.00702798
v 0.01833132 -0.03424431 -0.00567117
v 0.01781846 -0.03929651 -0.00054785
v 0.01992741 -0.03424431 -0.00904873
v 0.01876026 -0.03424431 -0.01175512
v 0.01768947 -0.03424431 -0.01277002
v 0.01217855 -0.03424431 -0.01125400
v 0.01015197 -0.03831043 -0.01061359
v 0.00983182 -0.04008299 -0.01095369
v 0.00908740 -0.04262206 -0.01085239
v 0.00882941 -0.04521304 -0.01093922
v 0.00905476 -0.05211167 -0.01036574
v 0.00882941 -0.05211167 -0.00244015
v 0.00882941 -0.04987001 0.00043448
v 0.00882941 -0.04807349 0.00186909
v 0.01741905 -0.05209969 -0.00233341
v 0.01875094 -0.05042294 -0.00207290
v 0.01931974 -0.04756448 -0.00139450
v 0.02052264 -0.04855856 -0.00291956
v 0.02086454 -0.04966641 -0.00463818
v 0.02094691 -0.04775212 -0.00382048
v 0.02095468 -0.04524897 -0.00387837
v 0.02089718 -0.04524897 -0.00564223
v 0.02096712 -0.04783795 -0.00607460
v 0.02046358 -0.04783795 -0.00736628
v 0.01917521 -0.05042294 -0.00880993
v 0.01561472 -0.03915878 -0.01297082
v 0.01586804 -0.03749800 -0.01305766
v 0.01635137 -0.03457766 -0.01310108
v 0.01485786 -0.03457766 -0.01309565
v 0.01737709 -0.05211167 -0.00997498
v 0.01623015 -0.05211167 -0.01068233
v 0.01356638 -0.03457766 -0.01260177
v 0.01311879 -0.03660573 -0.01287675
v 0.01139216 -0.04008299 -0.01224900
v 0.01268519 -0.04008299 -0.01302690
v 0.01175427 -0.04263005 -0.01252398
v 0.01163771 -0.05211167 -0.01080897
v 0.01306906 -0.04174776 -0.01301605
v 0.01508631 -0.05211167 -0.00216336
v 0.01922494 -0.05211167 -0.00387475
v 0.02009681 -0.05048482 -0.00382048
v 0.01985126 -0.05211167 -0.00652687
v 0.02065007 -0.05007561 -0.00626998
v 0.01890946 -0.05211167 -0.00868511
v 0.01516713 -0.04088144 -0.01284238
v 0.01284061 -0.03833238 -0.01297082
v 0.01422222 -0.05211167 -0.01100616
f 1 2 3
f 1 3 4
f 1 4 5
f 1 5 6
f 1 6 7
f 1 7 8
f 1 8 9
f 1 9 2
f 2 9 10
f 2 10 11
f 2 11 3
f 3 11 12
f 3 12 13
f 3 13 5
f 3 5 4
f 5 13 14
f 5 14 15
f 5 15 16
f 5 16 6
f 6 17 18
f 6 18 19
f 6 19 7
f 6 16 17
f 7 18 8
f 7 19 18
f 8 18 17
f 8 17 20
f 8 20 21
f 8 21 22
f 8 22 23
f 8 23 9
f 9 23 24
f 9 24 25
f 9 25 26
f 9 26 27
f 9 27 28
f 9 28 29
f 9 29 30
f 9 30 31
f 9 31 10
f 10 31 12
f 10 12 11
f 12 31 32
f 12 32 33
f 12 33 34
f 12 34 14
f 12 14 13
f 14 34 35
f 14 35 36
f 14 36 37
f 14 37 38
f 14 38 15
f 15 38 16
f 16 38 20
f 16 20 17
f 20 38 39
f 20 39 40
f 20 40 41
f 20 41 21
f 21 41 42
f 21 42 22
f 22 43 44
f 22 44 45
f 22 45 46
f 22 46 23
f 22 42 47
f 22 47 48
f 22 48 43
f 23 46 49
f 23 49 50
f 23 50 25
f 23 25 24
f 25 51 26
f 25 50 51
f 26 51 27
f 27 51 52
f 27 52 53
f 27 53 28
f 28 54 64
f 28 64 48
f 28 48 47
f 28 47 61
f 28 61 59
f 28 59 57
f 28 57 56
f 28 56 29
f 28 53 55
f 28 55 54
f 29 56 30
f 30 56 32
f 30 32 31
f 32 56 57
f 32 57 33
f 33 57 35
f 33 35 34
f 35 57 58
f 35 58 36
f 36 40 37
f 36 58 57
f 36 57 59
f 36 59 60
f 36 60 40
f 37 40 38
f 38 40 39
f 40 60 41
f 41 60 42
f 42 60 61
f 42 61 47
f 43 62 55
f 43 55 44
f 43 48 62
f 44 55 45
f 45 55 46
f 46 50 49
f 46 55 52
f 46 52 63
f 46 63 50
f 48 64 62
f 50 63 51
f 51 63 52
f 52 55 53
f 54 55 64
f 55 62 64
f 59 61 60

