# https://github.com/mikedh/trimesh
v -0.14898272 -0.01530916 -0.01314842
v -0.14917526 -0.02032665 -0.01311180
v -0.15157128 -0.02352852 -0.01284010
v -0.15310731 -0.01905399 -0.01237377
v -0.15255109 -0.01634693 -0.01174556
v -0.15110920 -0.01435996 -0.01160489
v -0.14877735 -0.01292172 -0.01206159
v -0.14535017 -0.01355516 -0.01302509
v -0.14530310 -0.01626414 -0.01308290
v -0.12655845 -0.01300451 -0.01036969
v -0.11229781 -0.01642972 -0.00719207
v -0.15435240 -0.02445462 -0.01153745
v -0.15402722 -0.02197861 -0.01209820
v -0.14873456 -0.02449120 -0.01178603
v -0.15528514 -0.01951800 -0.00983013
v -0.15412563 -0.01661648 -0.00904777
v -0.15243129 -0.01430605 -0.00904777
v -0.14956034 -0.01186470 -0.00947749
v -0.14401952 -0.01000673 -0.00978966
v -0.14092607 -0.00992971 -0.01083988
v -0.13834179 -0.00986617 -0.01082831
v -0.13575749 -0.00986425 -0.01076858
v -0.13318176 -0.00990661 -0.01067801
v -0.13059319 -0.00999132 -0.01057395
v -0.12707617 -0.01056315 -0.01038510
v -0.12280610 -0.01163943 -0.00980893
v -0.12024749 -0.01163943 -0.00937729
v -0.11229781 -0.01117349 -0.00804958
v -0.11229781 -0.00604434 -0.00617462
v -0.11262726 -0.00556877 0.00604832
v -0.11281980 -0.01642972 0.00246218
v -0.14648400 -0.02449120 -0.00650606
v -0.14667226 -0.02449120 -0.00983206
v -0.15600822 -0.02449120 -0.00904777
v -0.15568731 -0.02197861 -0.00992648
v -0.15499419 -0.01955073 -0.00676813
v -0.15284204 -0.01580976 -0.00668334
v -0.15036899 -0.01430028 -0.00576031
v -0.11813385 -0.00482173 0.00495186
v -0.11913077 -0.00482173 0.00264910
v -0.13135051 -0.00770785 -0.00785689
v -0.12800891 -0.00757307 -0.00806115
v -0.12542034 -0.00748836 -0.00814979
v -0.12280610 -0.00742097 -0.00817099
v -0.12024749 -0.00737091 -0.00816135
v -0.11765892 -0.00738439 -0.00808620
v -0.11507892 -0.00743830 -0.00799370
v -0.11239621 -0.00833166 -0.00803032
v -0.11240905 -0.00482173 -0.00385259
v -0.11533135 -0.00564386 0.00653393
v -0.11469383 -0.01010877 0.00592499
v -0.11276845 -0.00856078 0.00537773
v -0.11506180 -0.01642972 0.00408471
v -0.14865755 -0.02449120 -0.00464651
v -0.15386036 -0.02449120 -0.00429772
v -0.15457060 -0.02228089 -0.00524002
v -0.15291478 -0.01861115 -0.00497603
v -0.11773166 -0.00482173 -0.00015853
v -0.11482219 -0.00482173 -0.00268097
v -0.11765892 -0.00905175 0.00629305
v -0.11581055 -0.01373614 0.00544710
v -0.11765892 -0.01583671 0.00475723
v -0.15124183 -0.02449120 -0.00377743
v -0.11804400 -0.01268105 0.00574771
f 1 2 3
f 1 3 4
f 1 4 5
f 1 5 6
f 1 6 7
f 1 7 8
f 1 8 9
f 1 9 2
f 2 9 10
f 2 10 11
f 2 11 3
f 3 12 13
f 3 13 4
f 3 11 14
f 3 14 12
f 4 13 15
f 4 15 5
f 5 15 16
f 5 16 17
f 5 17 6
f 6 18 7
f 6 17 18
f 7 18 19
f 7 19 20
f 7 20 8
f 8 20 21
f 8 21 22
f 8 22 23
f 8 23 24
f 8 24 25
f 8 25 9
f 9 25 10
f 10 25 26
f 10 26 27
f 10 27 28
f 10 28 11
f 11 28 29
f 11 29 30
f 11 30 31
f 11 31 32
f 11 32 33
f 11 33 14
f 12 34 35
f 12 35 13
f 12 14 34
f 13 35 15
f 14 33 32
f 14 32 54
f 14 54 63
f 14 63 55
f 14 55 34
f 15 36 16
f 15 35 34
f 15 34 36
f 16 36 37
f 16 37 17
f 17 37 38
f 17 38 18
f 18 38 39
f 18 39 19
f 19 39 40
f 19 40 41
f 19 41 20
f 20 41 42
f 20 42 43
f 20 43 44
f 20 44 21
f 21 44 45
f 21 45 22
f 22 45 46
f 22 46 23
f 23 46 47
f 23 47 24
f 24 47 48
f 24 48 25
f 25 48 26
f 26 48 28
f 26 28 27
f 28 48 29
f 29 48 47
f 29 47 46
f 29 46 45
f 29 45 44
f 29 44 43
f 29 43 49
f 29 49 30
f 30 50 51
f 30 51 52
f 30 52 31
f 30 49 39
f 30 39 50
f 31 52 53
f 31 53 54
f 31 54 32
f 34 55 56
f 34 56 36
f 36 56 57
f 36 57 37
f 37 57 38
f 38 57 39
f 39 49 59
f 39 59 58
f 39 58 40
f 39 57 50
f 40 58 41
f 41 58 59
f 41 59 49
f 41 49 42
f 42 49 43
f 50 60 51
f 50 57 60
f 51 60 61
f 51 61 52
f 52 61 53
f 53 61 62
f 53 62 63
f 53 63 54
f 55 63 64
f 55 64 60
f 55 60 57
f 55 57 56
f 60 64 61
f 61 64 62
f 62 64 63

