# https://github.com/mikedh/trimesh
v 0.08611481 -0.03228227 -0.00989870
v 0.08326425 -0.03228071 -0.01166786
v 0.08417047 -0.03228071 -0.01124037
v 0.08419137 -0.03228071 -0.01122886
v 0.09002305 -0.03228227 -0.00766258
v 0.08611481 -0.03228227 0.00236706
v 0.07720274 -0.03228071 0.00151043
v 0.07722886 -0.03228071 -0.00129459
v 0.07804759 -0.03228071 -0.00360962
v 0.08326425 -0.03143046 -0.01156263
v 0.09002305 -0.02288599 -0.01024398
v 0.09002305 -0.02373625 -0.01027851
v 0.07725497 -0.03227761 -0.00360962
v 0.07724192 -0.03226054 -0.00360962
v 0.07668303 -0.02973615 -0.00360962
v 0.07671829 -0.02735140 -0.00360962
v 0.09002305 -0.02473546 -0.01001379
v 0.09002305 -0.03228227 0.00100401
v 0.07724844 -0.03228071 0.00185900
v 0.08417178 -0.03228071 0.00437956
v 0.08145703 -0.03228071 0.00512932
v 0.08091251 -0.03228071 0.00501915
v 0.07889244 -0.03228071 0.00402770
v 0.07746652 -0.03228071 0.00274851
v 0.07719360 -0.03210073 0.00152851
v 0.08326425 -0.02456479 -0.00958466
v 0.08326425 -0.02206987 -0.00867870
v 0.08931792 -0.02215366 -0.00978690
v 0.09002305 -0.02236467 -0.00999078
v 0.07772114 -0.02460668 -0.00360962
v 0.07729676 -0.02973615 0.00079684
v 0.07748479 -0.02822958 0.00023781
v 0.09002305 -0.01643149 0.00322862
v 0.08444469 -0.03228071 0.00423980
v 0.07925285 -0.02973615 0.00324177
v 0.08981805 -0.01643149 0.00313325
v 0.07759710 -0.03109066 0.00254792
v 0.07910006 -0.02220796 -0.00360962
v 0.08326425 -0.02038022 -0.00700819
v 0.08921346 -0.02011180 -0.00844029
v 0.09002305 -0.02199695 -0.00980334
v 0.07796011 -0.02973615 0.00208919
v 0.07886894 -0.02731106 0.00121776
v 0.07966940 -0.02534833 0.00047622
v 0.09002305 -0.01643149 -0.00386941
v 0.07979213 -0.02811787 0.00280112
v 0.08852531 -0.01643149 0.00185406
v 0.08705890 -0.01643149 -0.00129459
v 0.08735009 -0.01643149 -0.00277272
v 0.08326425 -0.02002491 -0.00622226
v 0.08767132 -0.01643149 0.00075245
v 0.08752768 -0.01643149 0.00056336
v 0.08745324 -0.01643149 -0.00303415
v 0.08891966 -0.01643149 -0.00368855
v 0.08921346 -0.01643149 -0.00379213
v 0.09002305 -0.02009473 -0.00847646
v 0.09002305 -0.02058037 -0.00887929
f 1 2 3
f 1 3 4
f 1 4 5
f 1 5 18
f 1 18 6
f 1 6 7
f 1 7 8
f 1 8 9
f 1 9 2
f 2 10 11
f 2 11 12
f 2 12 3
f 2 9 13
f 2 13 14
f 2 14 15
f 2 15 16
f 2 16 10
f 3 12 4
f 4 12 17
f 4 17 5
f 5 17 12
f 5 12 11
f 5 11 29
f 5 29 41
f 5 41 57
f 5 57 56
f 5 56 45
f 5 45 33
f 5 33 18
f 6 19 7
f 6 18 20
f 6 20 21
f 6 21 22
f 6 22 23
f 6 23 24
f 6 24 19
f 7 19 25
f 7 25 15
f 7 15 14
f 7 14 8
f 8 14 13
f 8 13 9
f 10 16 26
f 10 26 11
f 11 26 27
f 11 27 28
f 11 28 29
f 15 25 16
f 16 30 27
f 16 27 26
f 16 25 31
f 16 31 32
f 16 32 30
f 18 33 34
f 18 34 20
f 19 31 25
f 19 24 31
f 20 34 33
f 20 33 21
f 21 33 22
f 22 35 23
f 22 33 36
f 22 36 35
f 23 35 37
f 23 37 24
f 24 37 31
f 27 30 38
f 27 38 39
f 27 39 40
f 27 40 28
f 28 40 41
f 28 41 29
f 30 32 38
f 31 37 32
f 32 37 42
f 32 42 43
f 32 43 44
f 32 44 38
f 33 45 55
f 33 55 54
f 33 54 53
f 33 53 49
f 33 49 48
f 33 48 52
f 33 52 51
f 33 51 47
f 33 47 36
f 35 36 46
f 35 46 37
f 36 47 44
f 36 44 46
f 37 46 42
f 38 48 49
f 38 49 50
f 38 50 39
f 38 44 47
f 38 47 51
f 38 51 52
f 38 52 48
f 39 50 53
f 39 53 54
f 39 54 55
f 39 55 40
f 40 56 57
f 40 57 41
f 40 55 45
f 40 45 56
f 42 46 43
f 43 46 44
f 49 53 50

