# https://github.com/mikedh/trimesh
v -0.11229781 -0.01642912 -0.00719072
v -0.11083340 -0.02400961 -0.00853705
v -0.11044089 -0.02812584 -0.00527478
v -0.11229781 -0.01642912 0.00187883
v -0.11229781 -0.01117436 -0.00804800
v -0.10988900 -0.02185418 -0.01028806
v -0.10738455 -0.02303894 -0.01052971
v -0.10405525 -0.02332843 -0.01041272
v -0.10732877 -0.02676836 -0.00515779
v -0.10458125 -0.02440858 -0.00515779
v -0.10221029 -0.02209746 -0.00515779
v -0.10566511 -0.01268511 0.00060921
v -0.11229781 -0.00807016 0.00519097
v -0.11229781 -0.00835479 -0.00801923
v -0.11003046 -0.01938736 -0.01031491
v -0.10731283 -0.01939223 -0.01166700
v -0.10418277 -0.01886918 -0.01277552
v -0.10472470 -0.02197582 -0.01139274
v -0.10214255 -0.01967443 -0.01231331
v -0.09986524 -0.01903948 -0.01136589
v -0.10054664 -0.02096136 -0.00980667
v -0.10203098 -0.02235776 -0.00905104
v -0.10049683 -0.02101731 -0.00691838
v -0.10033744 -0.02001501 -0.00515779
v -0.09468899 -0.01204042 -0.00616466
v -0.11025161 -0.00327275 0.00547865
v -0.11229781 -0.00628451 0.00577208
v -0.09568718 -0.01455590 -0.00616466
v -0.10106666 -0.01093108 -0.01301525
v -0.10366076 -0.01603258 -0.01301909
v -0.11229781 -0.00604610 -0.00617233
v -0.09774533 -0.00642318 -0.01311881
v -0.10180583 -0.01753846 -0.01309005
v -0.10039123 -0.01680864 -0.01307854
v -0.09903839 -0.01662131 -0.01232099
v -0.09780311 -0.01652644 -0.01120096
v -0.09819760 -0.01819288 -0.01006750
v -0.09898261 -0.01919274 -0.00891487
v -0.09194346 -0.00637696 -0.00905104
v -0.09396774 -0.00933276 -0.00616466
v -0.09315484 -0.00637696 -0.00672276
v -0.10859991 -0.00327275 0.00377176
v -0.11215635 -0.00327275 -0.00235963
v -0.11208064 -0.00337979 0.00631292
v -0.09545208 -0.01338574 -0.01066971
v -0.09284402 -0.00825991 -0.01068697
v -0.09950661 -0.00923545 -0.01312649
v -0.10214255 -0.01432965 -0.01316484
v -0.09441205 -0.00640128 -0.01280812
v -0.09548794 -0.00825261 -0.01302484
v -0.09687465 -0.00909192 -0.01316484
v -0.09956040 -0.01163902 -0.01327991
v -0.10941680 -0.00327275 -0.00306157
v -0.09948070 -0.01424451 -0.01318786
v -0.09805415 -0.01340034 -0.01303635
v -0.09856819 -0.01512516 -0.01279470
v -0.09698224 -0.01425424 -0.01173220
v -0.09241964 -0.00640128 -0.01123548
v -0.10703589 -0.00327275 -0.00134700
v -0.10708570 -0.00327275 0.00144732
v -0.09500976 -0.01163902 -0.01115876
v -0.09594420 -0.00997987 -0.01282922
v -0.09765966 -0.01163902 -0.01313608
v -0.09636459 -0.01163902 -0.01245140
f 1 2 3
f 1 3 4
f 1 4 13
f 1 13 27
f 1 27 31
f 1 31 14
f 1 14 5
f 1 5 2
f 2 6 7
f 2 7 3
f 2 5 6
f 3 7 8
f 3 8 9
f 3 9 4
f 4 9 10
f 4 10 11
f 4 11 12
f 4 12 13
f 5 14 15
f 5 15 6
f 6 15 16
f 6 16 17
f 6 17 7
f 7 18 8
f 7 17 18
f 8 18 19
f 8 19 20
f 8 20 21
f 8 21 22
f 8 22 9
f 9 22 23
f 9 23 10
f 10 23 11
f 11 23 24
f 11 24 12
f 12 25 26
f 12 26 27
f 12 27 13
f 12 24 28
f 12 28 25
f 14 29 30
f 14 30 16
f 14 16 15
f 14 31 32
f 14 32 29
f 16 30 17
f 17 30 33
f 17 33 19
f 17 19 18
f 19 33 34
f 19 34 20
f 20 34 35
f 20 35 36
f 20 36 37
f 20 37 21
f 21 23 22
f 21 37 38
f 21 38 23
f 23 38 28
f 23 28 24
f 25 39 40
f 25 40 26
f 25 28 39
f 26 41 42
f 26 42 60
f 26 60 59
f 26 59 53
f 26 53 43
f 26 43 44
f 26 44 27
f 26 40 41
f 27 44 43
f 27 43 31
f 28 38 37
f 28 37 45
f 28 45 46
f 28 46 39
f 29 32 47
f 29 47 48
f 29 48 30
f 30 48 33
f 31 43 32
f 32 49 50
f 32 50 51
f 32 51 52
f 32 52 47
f 32 43 53
f 32 53 49
f 33 48 52
f 33 52 54
f 33 54 34
f 34 54 55
f 34 55 56
f 34 56 35
f 35 56 36
f 36 56 57
f 36 57 45
f 36 45 37
f 39 46 58
f 39 58 59
f 39 59 60
f 39 60 41
f 39 41 40
f 41 60 42
f 45 61 46
f 45 57 61
f 46 61 58
f 47 52 48
f 49 58 62
f 49 62 50
f 49 53 59
f 49 59 58
f 50 62 55
f 50 55 63
f 50 63 51
f 51 63 54
f 51 54 52
f 54 63 55
f 55 62 56
f 56 62 64
f 56 64 57
f 57 64 61
f 58 61 64
f 58 64 62

