# https://github.com/mikedh/trimesh
v 0.03101956 0.15208669 -0.00906635
v 0.03101956 0.15129833 -0.00644074
v 0.03101956 0.14905724 -0.01270717
v 0.03037605 0.15066630 -0.01153130
v 0.02714964 0.15060161 -0.01110548
v 0.02456453 0.15035500 -0.01083740
v 0.02132707 0.15004504 -0.01043190
v 0.01878398 0.14985502 -0.00904990
v 0.01987641 0.15011512 -0.00750918
v 0.03101956 0.15015959 -0.00501810
v 0.02197722 0.15029435 -0.00720530
v 0.02456453 0.14954103 -0.00559877
v 0.02714964 0.14978225 -0.00534811
v 0.03101956 0.14749129 -0.01297621
v 0.02456453 0.14755732 -0.01299556
v 0.02245488 0.14747512 -0.01296556
v 0.02073000 0.14735383 -0.01292588
v 0.01422633 0.14809233 -0.01118096
v 0.01163901 0.14785246 -0.01093515
v 0.00874210 0.14758562 -0.01060900
v 0.01422633 0.14899659 -0.00904990
v 0.01681143 0.14948578 -0.00904990
v 0.00874210 0.14793062 -0.00892602
v 0.00874210 0.14774464 -0.00714626
v 0.01163901 0.14803843 -0.00678044
v 0.03101956 0.14879041 -0.00404741
v 0.01368454 0.14724603 -0.00529198
v 0.01540720 0.14741313 -0.00515939
v 0.01163901 0.14705332 -0.00548747
v 0.03101956 0.14592401 -0.01248167
v 0.02126073 0.14472327 -0.01296943
v 0.01939654 0.14462490 -0.01300331
v 0.02714964 0.14730128 -0.01299266
v 0.01681143 0.14488903 -0.01300815
v 0.01163901 0.14464781 -0.01297621
v 0.00950945 0.14467610 -0.01295492
v 0.00862047 0.14591592 -0.01207617
v 0.00843029 0.14524885 -0.00466098
v 0.00874210 0.14671371 -0.00578555
v 0.03101956 0.14673258 -0.00331286
v 0.00843029 0.14320854 -0.00374449
v 0.03101956 0.14381363 -0.01068546
v 0.02973475 0.14400364 -0.01129420
v 0.01939654 0.14333118 -0.01227553
v 0.01681143 0.14325166 -0.01251554
v 0.00843029 0.14098226 -0.01195810
v 0.01422633 0.14316407 -0.01270329
v 0.01163901 0.14306166 -0.01282040
v 0.00862047 0.14357240 -0.01289395
v 0.03101956 0.14351985 -0.00312124
v 0.00843029 0.14061571 -0.00349383
v 0.03101956 0.14284603 -0.00897248
v 0.02374854 0.14213449 -0.01048029
v 0.02197722 0.14197277 -0.01069997
v 0.01939654 0.14173694 -0.01098257
v 0.01681143 0.14149840 -0.01122258
v 0.01422633 0.14125988 -0.01141033
v 0.00874210 0.13945136 -0.01061481
v 0.00843029 0.13879912 -0.00904990
v 0.03101956 0.14129626 -0.00432419
v 0.00843029 0.13883415 -0.00430484
v 0.03101956 0.14151593 -0.00641268
v 0.01052005 0.13961039 -0.01039125
v 0.00843029 0.13831936 -0.00646591
f 1 2 10
f 1 10 26
f 1 26 40
f 1 40 50
f 1 50 60
f 1 60 62
f 1 62 52
f 1 52 42
f 1 42 30
f 1 30 14
f 1 14 3
f 1 3 4
f 1 4 5
f 1 5 6
f 1 6 7
f 1 7 8
f 1 8 9
f 1 9 2
f 2 9 11
f 2 11 12
f 2 12 13
f 2 13 10
f 3 14 15
f 3 15 16
f 3 16 17
f 3 17 4
f 4 17 5
f 5 17 18
f 5 18 19
f 5 19 6
f 6 19 20
f 6 20 7
f 7 20 21
f 7 21 22
f 7 22 8
f 8 22 9
f 9 22 21
f 9 21 23
f 9 23 24
f 9 24 25
f 9 25 11
f 10 13 27
f 10 27 28
f 10 28 26
f 11 25 29
f 11 29 12
f 12 29 13
f 13 29 27
f 14 30 31
f 14 31 32
f 14 32 33
f 14 33 15
f 15 33 34
f 15 34 35
f 15 35 36
f 15 36 16
f 16 36 17
f 17 36 37
f 17 37 18
f 18 37 19
f 19 37 20
f 20 37 23
f 20 23 21
f 23 37 38
f 23 38 24
f 24 38 39
f 24 39 25
f 25 39 29
f 26 28 38
f 26 38 41
f 26 41 40
f 27 29 38
f 27 38 28
f 29 39 38
f 30 42 43
f 30 43 44
f 30 44 31
f 31 44 45
f 31 45 46
f 31 46 47
f 31 47 48
f 31 48 32
f 32 48 49
f 32 49 35
f 32 35 34
f 32 34 33
f 35 49 36
f 36 49 37
f 37 49 46
f 37 46 38
f 38 46 59
f 38 59 64
f 38 64 61
f 38 61 51
f 38 51 41
f 40 41 51
f 40 51 50
f 42 52 53
f 42 53 43
f 43 53 54
f 43 54 55
f 43 55 56
f 43 56 44
f 44 56 57
f 44 57 46
f 44 46 45
f 46 58 59
f 46 49 48
f 46 48 47
f 46 57 58
f 50 51 61
f 50 61 60
f 52 62 53
f 53 62 63
f 53 63 54
f 54 63 58
f 54 58 55
f 55 58 56
f 56 58 57
f 58 63 59
f 59 63 62
f 59 62 64
f 60 61 64
f 60 64 62

