# https://github.com/mikedh/trimesh
v -0.12477342 -0.03482079 -0.00571552
v -0.12472407 -0.02490046 -0.00527179
v -0.12477342 -0.03273329 -0.00703962
v -0.11964864 -0.08433415 -0.01189534
v -0.11957371 -0.08743700 -0.01032404
v -0.11949330 -0.08785955 -0.00562130
v -0.11964864 -0.08529275 -0.00314329
v -0.11083747 -0.02490046 -0.00527179
v -0.12439692 -0.02490046 -0.00955106
v -0.11964864 -0.07099562 -0.00314329
v -0.12024081 -0.03746957 -0.00392844
v -0.11765832 -0.08403142 -0.01249913
v -0.11498262 -0.08617568 -0.01281826
v -0.11765832 -0.08661714 -0.01190344
v -0.12275750 -0.02490046 -0.01125000
v -0.11940739 -0.02975026 -0.01316372
v -0.11765832 -0.08824425 -0.01077689
v -0.11765832 -0.08886861 -0.00904857
v -0.11765832 -0.08833886 -0.00576313
v -0.11520742 -0.08832624 -0.00563548
v -0.11316591 -0.08769558 -0.00528192
v -0.11765832 -0.08510355 -0.00314329
v -0.11083747 -0.02490046 -0.00737191
v -0.11765832 -0.03746957 -0.00401860
v -0.10610199 -0.05244151 -0.00365490
v -0.11105861 -0.07099562 -0.00314329
v -0.11248967 -0.08403142 -0.01333189
v -0.10990353 -0.08403142 -0.01349297
v -0.11248967 -0.08662345 -0.01286182
v -0.11507583 -0.08852175 -0.01115376
v -0.11554736 -0.02490046 -0.01122467
v -0.11850087 -0.02507074 -0.01267237
v -0.12006353 -0.02716454 -0.01278483
v -0.11668417 -0.02728436 -0.01300770
v -0.11680114 -0.02975026 -0.01325084
v -0.11507583 -0.08932269 -0.00904857
v -0.11248967 -0.08867310 -0.00667086
v -0.10990353 -0.08689464 -0.00592219
v -0.10855837 -0.08534951 -0.00516035
v -0.11512700 -0.08389898 -0.00314329
v -0.10610199 -0.05500200 -0.00545617
v -0.10610199 -0.07948434 -0.01306241
v -0.11402126 -0.02975026 -0.01158938
v -0.11503744 -0.02705733 -0.01173729
v -0.11017219 -0.07397235 -0.00314329
v -0.10973173 -0.07651392 -0.00314329
v -0.10610199 -0.06481512 -0.00365490
v -0.10821111 -0.08559547 -0.01305431
v -0.10610199 -0.08131327 -0.01319006
v -0.11248967 -0.08853436 -0.01121454
v -0.10990353 -0.08651624 -0.01271594
v -0.11374345 -0.03852278 -0.01295401
v -0.11574841 -0.03233598 -0.01319715
v -0.11248967 -0.08929115 -0.00904857
v -0.10952155 -0.08835146 -0.00795545
v -0.10764088 -0.08642164 -0.00655739
v -0.10628658 -0.08394313 -0.00532751
v -0.11223198 -0.08156553 -0.00314329
v -0.11023069 -0.07918794 -0.00314329
v -0.10610199 -0.07954741 -0.00460214
v -0.10645839 -0.08435307 -0.01276963
v -0.10675994 -0.08634595 -0.01143540
v -0.10912677 -0.08817488 -0.01077588
v -0.10632679 -0.08662345 -0.00827558
f 1 2 3
f 1 3 4
f 1 4 5
f 1 5 6
f 1 6 7
f 1 7 2
f 2 8 23
f 2 23 31
f 2 31 15
f 2 15 9
f 2 9 3
f 2 7 10
f 2 10 11
f 2 11 8
f 3 9 4
f 4 12 13
f 4 13 14
f 4 14 5
f 4 9 15
f 4 15 16
f 4 16 12
f 5 14 17
f 5 17 18
f 5 18 6
f 6 18 19
f 6 19 7
f 7 19 20
f 7 20 21
f 7 21 22
f 7 22 40
f 7 40 58
f 7 58 59
f 7 59 46
f 7 46 45
f 7 45 26
f 7 26 10
f 8 11 24
f 8 24 25
f 8 25 23
f 10 26 11
f 11 26 25
f 11 25 24
f 12 27 13
f 12 16 27
f 13 27 28
f 13 28 29
f 13 29 30
f 13 30 17
f 13 17 14
f 15 31 32
f 15 32 33
f 15 33 16
f 16 33 32
f 16 32 34
f 16 34 35
f 16 35 28
f 16 28 27
f 17 30 36
f 17 36 18
f 18 36 19
f 19 36 37
f 19 37 20
f 20 37 21
f 21 37 38
f 21 38 39
f 21 39 22
f 22 39 40
f 23 25 41
f 23 41 42
f 23 42 43
f 23 43 44
f 23 44 31
f 25 26 45
f 25 45 46
f 25 46 47
f 25 47 60
f 25 60 49
f 25 49 42
f 25 42 41
f 28 48 29
f 28 35 49
f 28 49 48
f 29 50 30
f 29 48 51
f 29 51 50
f 30 50 36
f 31 44 34
f 31 34 32
f 34 43 52
f 34 52 53
f 34 53 35
f 34 44 43
f 35 53 49
f 36 54 37
f 36 50 54
f 37 54 55
f 37 55 56
f 37 56 38
f 38 56 39
f 39 56 57
f 39 57 58
f 39 58 40
f 42 49 52
f 42 52 43
f 46 59 60
f 46 60 47
f 48 49 61
f 48 61 62
f 48 62 63
f 48 63 51
f 49 64 61
f 49 53 52
f 49 60 64
f 50 51 63
f 50 63 54
f 54 63 55
f 55 63 64
f 55 64 56
f 56 64 57
f 57 64 60
f 57 60 59
f 57 59 58
f 61 64 62
f 62 64 63

