# https://github.com/mikedh/trimesh
v -0.00722147 0.13553115 -0.00937390
v 0.00361616 0.12338765 -0.00554596
v 0.00106141 0.12338765 -0.00562547
v -0.00138259 0.12338765 -0.00500493
v -0.00799286 0.13385809 -0.00817161
v -0.00799286 0.13556571 0.00224566
v 0.03101574 0.13943497 0.00403552
v 0.03101956 0.13668266 0.00022891
v 0.00589978 0.12338765 -0.00476641
v -0.00306284 0.12338765 -0.00236183
v -0.00799286 0.12652800 0.00000203
v -0.00799286 0.12828904 -0.00264301
v -0.00799286 0.13071303 -0.00519497
v -0.00799286 0.13266887 0.00624618
v 0.02623848 0.13722150 0.00799920
v 0.03101956 0.13854424 0.00687254
v 0.03101956 0.13239081 0.00193927
v 0.03101956 0.13020404 0.00458431
v 0.02896125 0.12920020 0.00499541
v 0.00776715 0.12338765 -0.00215628
v -0.00216925 0.12338765 -0.00010269
v -0.00572452 0.12449361 0.00570321
v -0.00799286 0.12551316 0.00231741
v -0.00799286 0.12552101 0.00530568
v -0.00683959 0.12695216 0.00830947
v -0.00708018 0.13071931 0.00805156
v -0.00545339 0.13194466 0.00782468
v 0.01680997 0.13508971 0.00854799
v 0.03037801 0.13736446 0.00857708
v 0.03101956 0.13139639 0.00913168
v 0.03069878 0.13485564 0.01013424
v 0.03101956 0.12997625 0.00707809
v 0.00710269 0.12338765 0.00061093
v 0.00113397 0.12338765 0.00401225
v -0.00387624 0.12419984 0.00628885
v -0.00387624 0.12566869 0.00869925
v -0.00440323 0.12780833 0.00954085
v -0.00387624 0.13059049 0.00906187
v 0.00129436 0.13086384 0.00973089
v 0.01939527 0.13531593 0.00875742
v 0.02645996 0.13449275 0.01035337
v 0.02495537 0.13114818 0.00993644
v 0.02197674 0.12875718 0.00848594
v 0.02456586 0.12899126 0.00820863
v 0.02741083 0.12925203 0.00775099
v 0.02197674 0.13205148 0.01042318
v 0.00475797 0.12338765 0.00340723
v -0.00129094 0.12420455 0.00707615
v -0.00129094 0.12549588 0.00891256
v -0.00156589 0.12761196 0.00997716
v -0.00095107 0.12979715 0.01001983
v 0.01240694 0.13196351 0.01038051
v 0.01422467 0.13203577 0.01040572
v 0.01939527 0.13190224 0.01043675
v 0.01306758 0.12928188 0.01035143
v 0.01939527 0.12852312 0.00870894
v 0.00905407 0.12624680 0.00839673
v 0.01253296 0.12653428 0.00801472
v 0.00646877 0.12901325 0.01042124
v 0.00905407 0.12914207 0.01039603
v 0.00646877 0.12603471 0.00861004
v 0.00129436 0.12556186 0.00889898
v 0.00129436 0.12822149 0.01028937
v 0.00376891 0.12654685 0.00935663
f 1 2 3
f 1 3 4
f 1 4 5
f 1 5 6
f 1 6 7
f 1 7 8
f 1 8 2
f 2 8 9
f 2 9 20
f 2 20 33
f 2 33 47
f 2 47 34
f 2 34 21
f 2 21 10
f 2 10 4
f 2 4 3
f 4 10 11
f 4 11 12
f 4 12 13
f 4 13 5
f 5 13 12
f 5 12 11
f 5 11 23
f 5 23 24
f 5 24 14
f 5 14 6
f 6 14 15
f 6 15 16
f 6 16 7
f 7 16 8
f 8 16 30
f 8 30 32
f 8 32 18
f 8 18 17
f 8 17 9
f 9 17 18
f 9 18 19
f 9 19 20
f 10 21 22
f 10 22 23
f 10 23 11
f 14 24 25
f 14 25 26
f 14 26 27
f 14 27 15
f 15 28 29
f 15 29 16
f 15 27 28
f 16 29 31
f 16 31 30
f 18 32 19
f 19 32 33
f 19 33 20
f 21 34 35
f 21 35 22
f 22 35 36
f 22 36 25
f 22 25 24
f 22 24 23
f 25 36 37
f 25 37 26
f 26 37 38
f 26 38 27
f 27 38 39
f 27 39 40
f 27 40 28
f 28 40 29
f 29 40 41
f 29 41 31
f 30 31 42
f 30 42 43
f 30 43 44
f 30 44 45
f 30 45 32
f 31 41 46
f 31 46 42
f 32 45 33
f 33 45 47
f 34 47 48
f 34 48 35
f 35 48 36
f 36 48 49
f 36 49 50
f 36 50 37
f 37 50 51
f 37 51 38
f 38 51 39
f 39 51 52
f 39 52 41
f 39 41 40
f 41 52 53
f 41 53 54
f 41 54 46
f 42 46 55
f 42 55 43
f 43 55 56
f 43 56 57
f 43 57 58
f 43 58 44
f 44 58 45
f 45 58 47
f 46 54 59
f 46 59 60
f 46 60 55
f 47 58 48
f 48 58 57
f 48 57 61
f 48 61 62
f 48 62 49
f 49 62 63
f 49 63 50
f 50 63 51
f 51 63 52
f 52 59 53
f 52 63 59
f 53 59 54
f 55 60 59
f 55 59 63
f 55 63 64
f 55 64 62
f 55 62 61
f 55 61 57
f 55 57 56
f 62 64 63

