# https://github.com/mikedh/trimesh
v 0.06456446 0.00380188 -0.00943501
v 0.06483534 0.00191813 -0.00838768
v 0.06474931 0.00399025 -0.00650491
v 0.06571019 0.00402935 -0.01109289
v 0.06665641 -0.00129490 -0.01092933
v 0.06711031 -0.00458256 -0.01048698
v 0.06582732 -0.00129490 -0.00904842
v 0.06984834 -0.01543720 -0.00969986
v 0.06981722 -0.01553671 -0.00774646
v 0.06706822 -0.00571992 -0.00743235
v 0.06678819 -0.00388238 -0.00694726
v 0.06722195 -0.00143351 -0.00516299
v 0.06681931 0.00128903 -0.00485818
v 0.06637822 0.00402935 -0.00463142
v 0.07524935 0.00402935 -0.00558582
v 0.07183597 0.00400802 -0.01109289
v 0.06845553 0.00399025 -0.01223036
v 0.06853240 0.00128903 -0.01223501
v 0.06853240 -0.00129490 -0.01204543
v 0.06632697 0.00128903 -0.01114307
v 0.07529144 -0.02519712 -0.01285114
v 0.07170053 -0.01939306 -0.01116723
v 0.06934319 -0.01163772 -0.01090331
v 0.06960858 -0.01372050 -0.01061987
v 0.07235392 -0.02411308 -0.00978164
v 0.07320498 -0.02714840 -0.00904842
v 0.07228255 -0.02370434 -0.00754387
v 0.07668059 -0.02973588 -0.00361105
v 0.06860744 0.00402935 -0.00386289
v 0.08325844 -0.02019987 -0.00662014
v 0.07450261 0.00376989 -0.00834586
v 0.07377784 0.00402935 -0.00417978
v 0.08325844 -0.02042379 -0.00389727
v 0.07309700 0.00128903 -0.01091911
v 0.07748772 -0.02180994 -0.01294128
v 0.07111669 0.00128903 -0.01200918
v 0.07111669 -0.00129490 -0.01231121
v 0.07498397 -0.01605563 -0.01294128
v 0.07478081 -0.01939306 -0.01299053
v 0.07491442 -0.02272693 -0.01296172
v 0.07720587 -0.02973588 -0.01308067
v 0.07561540 -0.02714840 -0.01266899
v 0.07409264 -0.02714840 -0.01137726
v 0.07205011 -0.02197699 -0.01080945
v 0.07489062 -0.03177246 -0.01000096
v 0.07400113 -0.02973588 -0.00904842
v 0.07526399 -0.03191107 -0.00703461
v 0.07764695 -0.03227716 -0.00372628
v 0.08325844 -0.03228071 -0.00361105
v 0.07671353 -0.02735099 -0.00361105
v 0.07118623 0.00402935 -0.00365658
v 0.08325844 -0.02206584 -0.00868134
v 0.08143736 -0.02119150 -0.00361105
v 0.08325844 -0.02456447 -0.00958741
v 0.08325844 -0.03190752 -0.01162074
v 0.07985054 -0.02932714 -0.01297380
v 0.07796175 -0.02456447 -0.01305744
v 0.07765245 -0.02714840 -0.01310484
v 0.07806424 -0.03162673 -0.01298496
v 0.07633833 -0.03224162 -0.01162166
v 0.07521091 -0.02973588 -0.01163096
v 0.07771650 -0.02460357 -0.00361105
v 0.07909649 -0.02220090 -0.00361105
v 0.08075835 -0.03197149 -0.01283441
f 1 2 3
f 1 3 4
f 1 4 5
f 1 5 6
f 1 6 7
f 1 7 2
f 2 7 8
f 2 8 9
f 2 9 10
f 2 10 3
f 3 10 11
f 3 11 12
f 3 12 13
f 3 13 14
f 3 14 4
f 4 14 29
f 4 29 51
f 4 51 32
f 4 32 15
f 4 15 16
f 4 16 17
f 4 17 18
f 4 18 19
f 4 19 20
f 4 20 5
f 5 20 21
f 5 21 22
f 5 22 23
f 5 23 24
f 5 24 6
f 6 24 7
f 7 24 8
f 8 24 25
f 8 25 26
f 8 26 9
f 9 26 27
f 9 27 10
f 10 27 11
f 11 27 12
f 12 27 28
f 12 28 13
f 13 28 14
f 14 28 29
f 15 30 31
f 15 31 16
f 15 32 33
f 15 33 30
f 16 31 34
f 16 34 35
f 16 35 36
f 16 36 17
f 17 36 37
f 17 37 38
f 17 38 39
f 17 39 18
f 18 39 40
f 18 40 19
f 19 40 20
f 20 40 21
f 21 40 41
f 21 41 42
f 21 42 22
f 22 24 23
f 22 42 43
f 22 43 44
f 22 44 24
f 24 44 25
f 25 44 45
f 25 45 46
f 25 46 26
f 26 46 27
f 27 46 47
f 27 47 28
f 28 47 48
f 28 48 49
f 28 49 53
f 28 53 63
f 28 63 62
f 28 62 50
f 28 50 51
f 28 51 29
f 30 33 49
f 30 49 55
f 30 55 54
f 30 54 52
f 30 52 31
f 31 52 34
f 32 51 33
f 33 53 49
f 33 51 53
f 34 52 54
f 34 54 55
f 34 55 35
f 35 55 56
f 35 56 57
f 35 57 38
f 35 38 37
f 35 37 36
f 38 57 58
f 38 58 39
f 39 58 41
f 39 41 40
f 41 56 59
f 41 59 60
f 41 60 61
f 41 61 42
f 41 58 56
f 42 61 43
f 43 61 45
f 43 45 44
f 45 61 60
f 45 60 47
f 45 47 46
f 47 60 48
f 48 60 49
f 49 60 55
f 50 62 51
f 51 62 63
f 51 63 53
f 55 60 64
f 55 64 56
f 56 64 59
f 56 58 57
f 59 64 60

