# https://github.com/mikedh/trimesh
v -0.04758849 0.10911670 -0.00400835
v -0.04997882 0.10866536 -0.00319440
v -0.04548458 0.10841013 -0.00328278
v -0.04360721 0.10876486 -0.00485224
v -0.04525544 0.10896962 -0.00723707
v -0.05021838 0.10846492 -0.00611236
v -0.05300970 0.10762424 -0.00388148
v -0.05489749 0.10640721 -0.00199700
v -0.05260090 0.10547424 0.00000295
v -0.05042408 0.10472730 0.00005427
v -0.04295364 0.10556077 -0.00244887
v -0.03999828 0.10650959 -0.00518295
v -0.03850367 0.10627311 -0.00767326
v -0.04321142 0.10861633 -0.00718717
v -0.04784627 0.10862210 -0.00718290
v -0.04013628 0.10556654 -0.01054988
v -0.04307863 0.10546992 -0.01078794
v -0.05085892 0.10588521 -0.00830190
v -0.05292377 0.10675617 -0.00637893
v -0.05472824 0.10635386 -0.00467262
v -0.05678268 0.10465376 -0.00388148
v -0.05686600 0.10393853 -0.00052447
v -0.05300970 0.10214326 0.00091669
v -0.05653792 0.10214326 0.00074420
v -0.04758849 0.10472730 -0.00073972
v -0.03598314 0.09697374 -0.00502900
v -0.03826411 0.10417646 -0.00476956
v -0.03598835 0.10369195 -0.00797261
v -0.03794905 0.10408417 -0.01082500
v -0.04008681 0.10214182 -0.01204236
v -0.04540647 0.10472730 -0.01039593
v -0.04758849 0.10472730 -0.00972596
v -0.05559532 0.10214326 -0.00664692
v -0.05713419 0.10284551 -0.00541530
v -0.05884753 0.10174239 -0.00283946
v -0.05924071 0.09951020 -0.00028072
v -0.05098912 0.10214326 0.00030658
v -0.05559532 0.09955922 0.00149401
v -0.05559532 0.09696941 0.00157954
v -0.05818094 0.09696941 0.00126308
v -0.03676690 0.09438826 -0.00491781
v -0.03474111 0.09438826 -0.00639033
v -0.03405109 0.09642579 -0.00719858
v -0.03556653 0.09991395 -0.00578165
v -0.03612115 0.10232639 -0.00607245
v -0.03413702 0.09955922 -0.00904885
v -0.03650131 0.10234514 -0.01087632
v -0.03749858 0.09955922 -0.01256551
v -0.03818079 0.09664209 -0.01294469
v -0.05775391 0.09955922 -0.00582156
v -0.03956604 0.09438826 -0.01260685
v -0.05942558 0.09955922 -0.00384299
v -0.06009477 0.09696941 -0.00048171
v -0.04008681 0.09438826 -0.00464982
v -0.04251620 0.09438826 -0.00549655
v -0.03349647 0.09438826 -0.00836605
v -0.03354334 0.09681512 -0.00979438
v -0.03517335 0.09955922 -0.01135528
v -0.03647527 0.09520587 -0.01298318
v -0.05901938 0.09712515 -0.00510455
v -0.03413702 0.09438826 -0.01125550
v -0.04198762 0.09438826 -0.01093191
v -0.04371397 0.09438826 -0.00854566
v -0.03488953 0.09711650 -0.01170738
f 1 2 3
f 1 3 4
f 1 4 5
f 1 5 6
f 1 6 2
f 2 6 7
f 2 7 8
f 2 8 9
f 2 9 3
f 3 9 10
f 3 10 11
f 3 11 12
f 3 12 4
f 4 12 13
f 4 13 14
f 4 14 5
f 5 15 6
f 5 14 16
f 5 16 17
f 5 17 15
f 6 18 19
f 6 19 20
f 6 20 7
f 6 15 18
f 7 20 8
f 8 20 21
f 8 21 22
f 8 22 9
f 9 23 10
f 9 22 24
f 9 24 23
f 10 23 25
f 10 25 11
f 11 26 27
f 11 27 12
f 11 25 26
f 12 27 28
f 12 28 13
f 13 29 16
f 13 16 14
f 13 28 29
f 15 17 18
f 16 29 30
f 16 30 17
f 17 30 31
f 17 31 18
f 18 31 32
f 18 32 33
f 18 33 34
f 18 34 19
f 19 34 20
f 20 34 21
f 21 34 35
f 21 35 22
f 22 35 36
f 22 36 24
f 23 37 25
f 23 24 38
f 23 38 39
f 23 39 37
f 24 36 40
f 24 40 38
f 25 37 26
f 26 41 42
f 26 42 43
f 26 43 44
f 26 44 27
f 26 37 39
f 26 39 41
f 27 44 45
f 27 45 28
f 28 45 46
f 28 46 47
f 28 47 29
f 29 47 48
f 29 48 30
f 30 48 49
f 30 49 31
f 31 49 32
f 32 50 33
f 32 49 51
f 32 51 50
f 33 50 34
f 34 50 52
f 34 52 35
f 35 52 53
f 35 53 36
f 36 53 40
f 38 40 39
f 39 40 54
f 39 54 41
f 40 53 55
f 40 55 54
f 41 54 55
f 41 55 63
f 41 63 62
f 41 62 51
f 41 51 61
f 41 61 56
f 41 56 42
f 42 56 43
f 43 46 44
f 43 56 57
f 43 57 46
f 44 46 45
f 46 57 58
f 46 58 47
f 47 58 48
f 48 58 59
f 48 59 49
f 49 59 51
f 50 60 52
f 50 51 60
f 51 59 61
f 51 62 60
f 52 60 53
f 53 63 55
f 53 60 63
f 56 61 57
f 57 61 64
f 57 64 58
f 58 64 59
f 59 64 61
f 60 62 63

