# https://github.com/mikedh/trimesh
v 0.03413269 0.13415139 -0.00418118
v 0.03596843 0.13145536 -0.00572572
v 0.03870947 0.12657919 -0.00516915
v 0.03532375 0.13332597 -0.00052944
v 0.03413269 0.13527286 -0.00052823
v 0.03413269 0.13579770 -0.00625070
v 0.03854029 0.12880868 -0.00796416
v 0.03899523 0.12708161 -0.00718642
v 0.04391035 0.11886344 -0.00786208
v 0.04900151 0.11099967 -0.00944795
v 0.05133562 0.10734814 -0.00967519
v 0.04675655 0.11408596 -0.00646701
v 0.04382120 0.11874232 -0.00495163
v 0.04912953 0.11120153 -0.00517158
v 0.05149336 0.10830365 -0.00499538
v 0.05748524 0.10737506 -0.00088185
v 0.03985023 0.13036080 -0.00052944
v 0.04281302 0.12953989 -0.00052944
v 0.04605015 0.13560482 -0.00052823
v 0.03413269 0.14095200 -0.00052823
v 0.03644394 0.13252748 -0.00744769
v 0.03413269 0.14619602 -0.01231708
v 0.04117846 0.12377999 -0.00799697
v 0.04658281 0.11653975 -0.01030954
v 0.05290160 0.10712385 -0.01133397
v 0.05141106 0.10712385 -0.00662499
v 0.05297247 0.10712385 -0.00488722
v 0.05571122 0.10712385 -0.01242645
v 0.05748524 0.10757244 -0.01211292
v 0.05748524 0.11563360 -0.00412285
v 0.05317593 0.14095200 -0.00067891
v 0.05320565 0.13857448 -0.00052823
v 0.03479337 0.15002249 -0.00173859
v 0.03452361 0.15272300 -0.00742703
v 0.03414183 0.14873504 -0.01291375
v 0.04267128 0.15181236 -0.00173859
v 0.04008570 0.15194694 -0.00173859
v 0.03772415 0.15178994 -0.00173859
v 0.03621761 0.14977127 -0.01294170
v 0.05748524 0.11098172 -0.01081142
v 0.04008570 0.14868569 -0.01228184
v 0.04267357 0.14868569 -0.01143726
v 0.04343713 0.15042173 -0.01066681
v 0.04574381 0.14868569 -0.00962172
v 0.04688686 0.14941689 -0.00814887
v 0.05748524 0.11550800 -0.00758501
v 0.05748524 0.11319776 -0.00946496
v 0.04935585 0.14774365 -0.00557990
v 0.05109101 0.14642928 -0.00173859
v 0.04983136 0.14848383 -0.00173859
v 0.04753611 0.15056528 -0.00173859
v 0.04553120 0.15156115 -0.00173859
v 0.03750012 0.15295178 -0.00695796
v 0.03786361 0.15281720 -0.00973352
v 0.03500826 0.15260637 -0.00995591
v 0.03454190 0.15122919 -0.01164628
v 0.04095442 0.15274094 -0.00606963
v 0.03992339 0.15143554 -0.01112616
v 0.04030059 0.15263328 -0.00954881
v 0.04228951 0.15235964 -0.00868722
v 0.04514028 0.15064154 -0.00891932
v 0.04700802 0.15040828 -0.00646701
v 0.04525458 0.15149386 -0.00646701
v 0.04307364 0.15235515 -0.00646701
f 1 2 3
f 1 3 4
f 1 4 5
f 1 5 20
f 1 20 22
f 1 22 6
f 1 6 2
f 2 6 7
f 2 7 8
f 2 8 9
f 2 9 3
f 3 9 10
f 3 10 11
f 3 11 12
f 3 12 13
f 3 13 4
f 4 13 14
f 4 14 15
f 4 15 16
f 4 16 17
f 4 17 5
f 5 17 18
f 5 18 19
f 5 19 32
f 5 32 20
f 6 21 7
f 6 22 21
f 7 23 8
f 7 21 22
f 7 22 24
f 7 24 23
f 8 23 9
f 9 23 10
f 10 24 25
f 10 25 11
f 10 23 24
f 11 25 26
f 11 26 12
f 12 26 13
f 13 26 14
f 14 26 15
f 15 26 27
f 15 27 16
f 16 27 28
f 16 28 29
f 16 29 40
f 16 40 47
f 16 47 46
f 16 46 30
f 16 30 31
f 16 31 32
f 16 32 18
f 16 18 17
f 18 32 19
f 20 33 34
f 20 34 35
f 20 35 22
f 20 32 31
f 20 31 36
f 20 36 37
f 20 37 38
f 20 38 33
f 22 35 25
f 22 25 24
f 25 28 27
f 25 27 26
f 25 35 28
f 28 35 39
f 28 39 29
f 29 39 41
f 29 41 42
f 29 42 43
f 29 43 44
f 29 44 45
f 29 45 40
f 30 46 31
f 31 46 47
f 31 47 48
f 31 48 49
f 31 49 50
f 31 50 51
f 31 51 52
f 31 52 36
f 33 38 34
f 34 53 54
f 34 54 55
f 34 55 56
f 34 56 35
f 34 38 53
f 35 56 39
f 36 52 57
f 36 57 37
f 37 57 53
f 37 53 38
f 39 56 58
f 39 58 43
f 39 43 41
f 40 45 48
f 40 48 47
f 41 43 42
f 43 45 44
f 43 58 59
f 43 59 60
f 43 60 61
f 43 61 45
f 45 61 62
f 45 62 48
f 48 62 50
f 48 50 49
f 50 62 51
f 51 62 63
f 51 63 52
f 52 63 64
f 52 64 57
f 53 57 54
f 54 57 59
f 54 59 58
f 54 58 56
f 54 56 55
f 57 64 60
f 57 60 59
f 60 64 63
f 60 63 61
f 61 63 62

