# https://github.com/mikedh/trimesh
v -0.11854911 -0.00469577 0.00382691
v -0.11772112 -0.00482173 -0.00015565
v -0.11424774 -0.00458240 0.00639435
v -0.11557043 -0.00045704 0.00550869
v -0.11363846 0.00491537 0.00481379
v -0.10873301 0.01579245 0.00269404
v -0.11360721 -0.00482173 -0.00326422
v -0.09707345 0.03490765 -0.00904730
v -0.09640169 0.03366690 -0.01106583
v -0.10708224 -0.00325976 0.00144827
v -0.10931104 -0.00275590 0.00471257
v -0.10803000 0.00130647 0.00558655
v -0.11118574 0.00065775 0.00653061
v -0.10989427 0.00388875 0.00670385
v -0.10989427 0.00647734 0.00658511
v -0.11265945 0.00398323 0.00596223
v -0.10675416 0.01680647 0.00573643
v -0.10316621 0.02600822 0.00393981
v -0.10797792 -0.00325976 -0.00217613
v -0.09233464 0.03418335 -0.01276708
v -0.08496606 0.03905820 -0.01311161
v -0.06990602 0.04921098 -0.01291307
v -0.09597988 0.03660818 -0.00719812
v -0.09386564 0.03875588 -0.00869109
v -0.09147020 0.03982029 -0.01149017
v -0.09049640 0.03710574 -0.01297730
v -0.06534947 0.04919209 -0.01028528
v -0.06534947 0.04789465 -0.00553191
v -0.06534947 0.05121382 -0.00394550
v -0.10541584 0.00647734 0.00560407
v -0.10111967 0.01551533 0.00576368
v -0.10730616 0.00647734 0.00647027
v -0.10730616 0.00905962 0.00672526
v -0.10472846 0.01552163 0.00666686
v -0.10261422 0.02285909 0.00612379
v -0.10487947 0.01948953 0.00596417
v -0.11006612 0.00914779 0.00596807
v -0.09826596 0.03020286 0.00553205
v -0.09649543 0.03406368 0.00321765
v -0.08669494 0.04016039 -0.01316027
v -0.07373352 0.04781277 -0.01308436
v -0.07163490 0.04866933 -0.01303765
v -0.06759910 0.05257425 -0.01298314
v -0.09112130 0.04133187 -0.00846140
v -0.08921536 0.04199318 -0.01101522
v -0.08015434 0.04652793 -0.01292280
v -0.06678153 0.05725385 -0.01153105
v -0.06534947 0.05952122 -0.00786577
v -0.06534947 0.05510615 -0.00402531
v -0.09390730 0.03049257 0.00552232
v -0.09606320 0.02703483 0.00603425
v -0.10280689 0.01164820 0.00562354
v -0.10214554 0.01810391 0.00661626
v -0.10003651 0.02585706 0.00633790
v -0.07274409 0.05452671 -0.00742975
v -0.08031577 0.04922988 -0.00801371
v -0.08308616 0.04352366 -0.01308825
v -0.07265036 0.05110046 -0.01301818
v -0.07091106 0.05020611 -0.01306879
v -0.08774164 0.04382598 -0.00904730
v -0.08012309 0.04909132 -0.01013735
v -0.08600755 0.04442431 -0.01089065
v -0.07252538 0.05437555 -0.01046436
f 1 2 3
f 1 3 4
f 1 4 5
f 1 5 6
f 1 6 2
f 2 7 3
f 2 6 8
f 2 8 9
f 2 9 7
f 3 7 10
f 3 10 11
f 3 11 12
f 3 12 13
f 3 13 14
f 3 14 15
f 3 15 4
f 4 15 16
f 4 16 17
f 4 17 5
f 5 17 18
f 5 18 6
f 6 18 8
f 7 19 10
f 7 9 20
f 7 20 21
f 7 21 22
f 7 22 19
f 8 23 24
f 8 24 25
f 8 25 9
f 8 18 23
f 9 25 26
f 9 26 20
f 10 19 27
f 10 27 28
f 10 28 11
f 11 28 29
f 11 29 12
f 12 30 31
f 12 31 32
f 12 32 13
f 12 29 30
f 13 32 14
f 14 32 33
f 14 33 15
f 15 33 34
f 15 34 35
f 15 35 36
f 15 36 37
f 15 37 16
f 16 37 17
f 17 37 36
f 17 36 18
f 18 36 35
f 18 35 38
f 18 38 39
f 18 39 23
f 19 22 27
f 20 26 21
f 21 26 40
f 21 40 41
f 21 41 42
f 21 42 22
f 22 42 43
f 22 43 27
f 23 39 44
f 23 44 24
f 24 44 25
f 25 40 26
f 25 44 45
f 25 45 46
f 25 46 40
f 27 43 47
f 27 47 48
f 27 48 49
f 27 49 29
f 27 29 28
f 29 49 50
f 29 50 51
f 29 51 31
f 29 31 52
f 29 52 30
f 30 52 31
f 31 51 32
f 32 51 53
f 32 53 33
f 33 53 34
f 34 53 54
f 34 54 35
f 35 54 38
f 38 50 49
f 38 49 39
f 38 54 50
f 39 49 48
f 39 48 55
f 39 55 56
f 39 56 44
f 40 46 57
f 40 57 58
f 40 58 59
f 40 59 41
f 41 59 42
f 42 59 43
f 43 58 47
f 43 59 58
f 44 60 45
f 44 56 60
f 45 60 61
f 45 61 62
f 45 62 46
f 46 62 63
f 46 63 47
f 46 47 58
f 46 58 57
f 47 63 48
f 48 63 55
f 50 54 51
f 51 54 53
f 55 63 56
f 56 63 61
f 56 61 60
f 61 63 62

