# https://github.com/mikedh/trimesh
v 0.12293408 -0.05072547 -0.00397361
v 0.12294048 -0.06601372 0.00246289
v 0.12294048 -0.05084302 0.00505158
v 0.12293408 -0.03371676 -0.00425771
v 0.12293408 -0.04524706 -0.00769415
v 0.12542421 -0.06622032 0.00129013
v 0.13365633 -0.06493442 0.00458339
v 0.12966189 -0.06473495 0.00526976
v 0.12621477 -0.06437874 0.00507431
v 0.12335657 -0.06283995 0.00505385
v 0.12311012 -0.06505909 -0.00214630
v 0.13712586 -0.06115154 0.00810619
v 0.14480427 -0.05817369 0.00976986
v 0.15126642 -0.05041914 0.00973350
v 0.15126642 -0.04784735 0.00908803
v 0.14532278 -0.03859675 0.00530613
v 0.13546151 -0.03873567 0.00266744
v 0.12293408 -0.03012980 -0.00621684
v 0.12293408 -0.02983415 -0.01010329
v 0.12323175 -0.03333206 -0.01259653
v 0.13091336 -0.06472426 -0.00010081
v 0.13670658 -0.06467439 0.00334245
v 0.14691992 -0.06255855 0.00561295
v 0.14250618 -0.06231277 0.00799482
v 0.13810526 -0.04876279 -0.00834189
v 0.13735310 -0.06217385 -0.00007580
v 0.12735101 -0.03643103 -0.01299426
v 0.13125583 -0.03817287 -0.01302154
v 0.13679619 -0.04317753 -0.01123286
v 0.14994775 -0.05528131 0.01019714
v 0.14726239 -0.06143651 0.00817664
v 0.15348129 -0.05559121 0.00866302
v 0.15478716 -0.05041914 0.00820619
v 0.15471355 -0.04776899 0.00803119
v 0.15372774 -0.04490867 0.00754481
v 0.15093995 -0.04458809 0.00802664
v 0.15058468 -0.03929491 0.00481066
v 0.14868348 -0.03770980 0.00387201
v 0.14262141 -0.03609976 0.00272880
v 0.12596192 -0.03044682 -0.00967146
v 0.14548282 -0.03609620 0.00081058
v 0.12953707 -0.03370964 -0.01241016
v 0.12608994 -0.03361703 -0.01292835
v 0.14460583 -0.06270815 0.00342882
v 0.14993175 -0.05970892 0.00357427
v 0.15141045 -0.05907131 0.00779482
v 0.15401901 -0.05049038 0.00177423
v 0.15314842 -0.05656364 0.00384928
v 0.13167192 -0.03550491 -0.01285108
v 0.13507743 -0.03877129 -0.01246016
v 0.13798364 -0.04008924 -0.01112831
v 0.15305240 -0.04629787 0.00006738
v 0.15494720 -0.05499991 0.00599933
v 0.15470395 -0.05312272 0.00817210
v 0.15563214 -0.04876279 0.00304926
v 0.15513924 -0.04405735 0.00454475
v 0.15307800 -0.04073753 0.00472202
v 0.14956687 -0.03781310 0.00090831
v 0.13059329 -0.03185026 -0.00904645
v 0.13466775 -0.03428313 -0.01068739
v 0.15514564 -0.05259910 0.00374473
v 0.13730510 -0.03680861 -0.01060557
v 0.15263311 -0.04132170 0.00065830
v 0.15420144 -0.04526132 0.00104467
f 1 2 3
f 1 3 4
f 1 4 18
f 1 18 19
f 1 19 5
f 1 5 2
f 2 6 7
f 2 7 8
f 2 8 9
f 2 9 10
f 2 10 3
f 2 5 11
f 2 11 6
f 3 10 12
f 3 12 13
f 3 13 14
f 3 14 15
f 3 15 16
f 3 16 17
f 3 17 4
f 4 17 18
f 5 19 20
f 5 20 11
f 6 11 21
f 6 21 22
f 6 22 7
f 7 22 23
f 7 23 24
f 7 24 8
f 8 24 12
f 8 12 9
f 9 12 10
f 11 25 26
f 11 26 21
f 11 20 27
f 11 27 28
f 11 28 29
f 11 29 25
f 12 24 13
f 13 30 14
f 13 24 31
f 13 31 30
f 14 30 32
f 14 32 33
f 14 33 34
f 14 34 15
f 15 34 35
f 15 35 36
f 15 36 16
f 16 36 37
f 16 37 38
f 16 38 39
f 16 39 18
f 16 18 17
f 18 40 19
f 18 39 41
f 18 41 40
f 19 40 42
f 19 42 43
f 19 43 20
f 20 43 27
f 21 26 44
f 21 44 22
f 22 44 23
f 23 44 45
f 23 45 46
f 23 46 31
f 23 31 24
f 25 47 48
f 25 48 45
f 25 45 26
f 25 29 47
f 26 45 44
f 27 43 28
f 28 43 49
f 28 49 50
f 28 50 29
f 29 50 51
f 29 51 52
f 29 52 47
f 30 31 46
f 30 46 32
f 32 46 53
f 32 53 54
f 32 54 33
f 33 54 55
f 33 55 34
f 34 56 35
f 34 55 56
f 35 56 57
f 35 57 37
f 35 37 36
f 37 57 38
f 38 58 41
f 38 41 39
f 38 57 58
f 40 59 60
f 40 60 42
f 40 41 59
f 41 58 59
f 42 60 49
f 42 49 43
f 45 48 46
f 46 48 53
f 47 52 55
f 47 55 61
f 47 61 48
f 48 61 53
f 49 60 62
f 49 62 50
f 50 62 51
f 51 62 63
f 51 63 64
f 51 64 52
f 52 64 55
f 53 61 55
f 53 55 54
f 55 64 56
f 56 64 63
f 56 63 57
f 57 63 58
f 58 63 62
f 58 62 60
f 58 60 59

