# https://github.com/mikedh/trimesh
v 0.05270769 0.10711242 -0.00514576
v 0.05863395 0.10213105 0.00095230
v 0.05852633 0.10471740 0.00094293
v 0.06340840 0.12294936 0.00384016
v 0.06085974 0.12294936 0.00118467
v 0.05749129 0.11633823 -0.00646882
v 0.05749129 0.11588474 -0.00731588
v 0.05749129 0.11487854 -0.00827538
v 0.05749129 0.11339760 -0.00931921
v 0.05749129 0.11297953 -0.00960968
v 0.05749129 0.11139938 -0.01062165
v 0.05749129 0.11053490 -0.01100208
v 0.05749129 0.10800524 -0.01201967
v 0.05749129 0.10711951 -0.01220707
v 0.06708598 0.06431370 -0.00019648
v 0.07037428 0.05056001 0.00693792
v 0.06174364 0.09179983 0.00283194
v 0.06031245 0.09954470 0.00210857
v 0.06039031 0.10055798 0.00216479
v 0.06051167 0.10213105 0.00224724
v 0.06593645 0.12294936 0.00518383
v 0.06163372 0.09437200 0.00285630
v 0.06100629 0.12294936 -0.00130402
v 0.06203675 0.12294936 -0.00257648
v 0.06629596 0.11749323 -0.00871202
v 0.06629596 0.11526118 -0.00995263
v 0.05827215 0.10711951 -0.01208339
v 0.07609903 0.05792224 -0.00330735
v 0.07500446 0.05691604 -0.00257648
v 0.07426024 0.05864500 -0.00284447
v 0.07253366 0.06014721 -0.00252776
v 0.06930489 0.06077785 -0.00052068
v 0.06975600 0.05941028 -0.00008029
v 0.07072463 0.05056001 0.00647878
v 0.07609445 0.05056001 0.00693792
v 0.07023002 0.06335002 0.00693792
v 0.06629825 0.12294936 0.00519695
v 0.07055747 0.06594346 0.00693792
v 0.07148717 0.06818259 0.00693792
v 0.06300538 0.12294936 -0.00284259
v 0.06629596 0.11777667 -0.00843842
v 0.07145969 0.10711242 -0.00522635
v 0.07609903 0.06853689 -0.00374212
v 0.07609903 0.06587260 -0.00388642
v 0.07609903 0.06356969 -0.00384145
v 0.07609903 0.06079202 -0.00359782
v 0.07609903 0.05666095 -0.00283697
v 0.07351831 0.05794350 -0.00206488
v 0.07369464 0.05056001 0.00385141
v 0.07207567 0.05056001 0.00489149
v 0.07609445 0.05056001 0.00337166
v 0.07609903 0.05459896 0.00693792
v 0.07145969 0.10711242 0.00092419
v 0.06629825 0.12294936 -0.00321927
v 0.07260006 0.06891244 0.00693792
v 0.07439076 0.07006035 0.00693792
v 0.07595248 0.07041465 0.00693792
v 0.07609903 0.07059888 0.00664744
v 0.06587691 0.12294936 -0.00324363
v 0.07609903 0.07362455 0.00116781
v 0.07609903 0.07350409 -0.00071746
v 0.07609903 0.05591694 -0.00160574
v 0.07609903 0.05502412 0.00114907
v 0.07609903 0.05459896 0.00289378
f 1 2 3
f 1 3 4
f 1 4 5
f 1 5 6
f 1 6 7
f 1 7 8
f 1 8 9
f 1 9 10
f 1 10 11
f 1 11 12
f 1 12 13
f 1 13 14
f 1 14 15
f 1 15 16
f 1 16 2
f 2 16 17
f 2 17 18
f 2 18 3
f 3 18 19
f 3 19 20
f 3 20 4
f 4 21 37
f 4 37 54
f 4 54 59
f 4 59 40
f 4 40 24
f 4 24 23
f 4 23 5
f 4 20 22
f 4 22 21
f 5 23 6
f 6 23 7
f 7 23 24
f 7 24 8
f 8 24 25
f 8 25 9
f 9 25 10
f 10 25 11
f 11 25 26
f 11 26 12
f 12 26 13
f 13 26 14
f 14 26 27
f 14 27 28
f 14 28 29
f 14 29 30
f 14 30 31
f 14 31 32
f 14 32 15
f 15 32 33
f 15 33 16
f 16 33 34
f 16 34 50
f 16 50 49
f 16 49 51
f 16 51 35
f 16 35 52
f 16 52 57
f 16 57 56
f 16 56 55
f 16 55 39
f 16 39 38
f 16 38 36
f 16 36 21
f 16 21 22
f 16 22 17
f 17 22 18
f 18 22 19
f 19 22 20
f 21 36 38
f 21 38 39
f 21 39 37
f 24 40 25
f 25 40 41
f 25 41 42
f 25 42 26
f 26 42 43
f 26 43 44
f 26 44 45
f 26 45 27
f 27 45 46
f 27 46 28
f 28 46 45
f 28 45 44
f 28 44 43
f 28 43 61
f 28 61 60
f 28 60 58
f 28 58 52
f 28 52 64
f 28 64 63
f 28 63 62
f 28 62 47
f 28 47 29
f 29 33 48
f 29 48 31
f 29 31 30
f 29 47 49
f 29 49 50
f 29 50 33
f 31 48 32
f 32 48 33
f 33 50 34
f 35 51 64
f 35 64 52
f 37 53 42
f 37 42 54
f 37 39 55
f 37 55 56
f 37 56 57
f 37 57 58
f 37 58 53
f 40 59 41
f 41 59 54
f 41 54 42
f 42 60 61
f 42 61 43
f 42 53 60
f 47 62 51
f 47 51 49
f 51 62 63
f 51 63 64
f 52 58 57
f 53 58 60

