# https://github.com/mikedh/trimesh
v -0.01337970 0.00537387 -0.00413271
v -0.01446944 0.00537387 -0.00212336
v -0.01436780 0.00563347 -0.00394104
v -0.01361727 0.00662546 -0.00413271
v -0.00968615 0.00928289 -0.00413271
v -0.00239480 0.01076899 0.00606512
v -0.00968852 0.00537387 0.00706662
v -0.01439143 0.00568740 -0.00291034
v -0.01382056 0.00537387 0.00038485
v -0.01426615 0.00549050 -0.00100380
v -0.01338324 0.00750207 -0.00107616
v -0.01393403 0.00638467 -0.00374176
v -0.01320595 0.00776669 -0.00207893
v -0.01237742 0.00862449 -0.00303220
v -0.01254525 0.00791843 -0.00408702
v -0.00854913 0.01058966 -0.00413271
v -0.00239480 0.01076899 0.00761751
v -0.00935048 0.00537387 0.00878276
v -0.00947459 0.00537387 0.00789931
v -0.00239480 0.01700059 -0.00113835
v -0.01346361 0.00537387 0.00128607
v -0.01012583 0.00663926 0.00883481
v -0.00974407 0.00798490 0.00883481
v -0.01389502 0.00615894 -0.00049480
v -0.01267999 0.00858436 -0.00124752
v -0.01338324 0.00681357 0.00018937
v -0.01171081 0.00924777 0.00148536
v -0.01185973 0.00944717 0.00041658
v -0.01329815 0.00748577 -0.00290527
v -0.01247552 0.00873986 -0.00207893
v -0.01056669 0.01076648 -0.00282657
v -0.01170963 0.00922395 -0.00343077
v -0.01082436 0.01076397 -0.00207005
v -0.00999700 0.01076648 -0.00385473
v -0.01090236 0.01008175 -0.00346124
v -0.00239480 0.01818571 -0.00113835
v -0.00330489 0.01116779 0.00883481
v -0.00239480 0.01258367 0.00600165
v -0.01024403 0.00539018 0.00883481
v -0.00936349 0.00902705 0.00883481
v -0.01175690 0.00980083 -0.00065981
v -0.01072744 0.01112766 -0.00078675
v -0.01020502 0.01145749 0.00109187
v -0.01066834 0.01105743 0.00052574
v -0.00890017 0.00978453 0.00883481
v -0.00837066 0.01051190 0.00883481
v -0.00920038 0.01292980 -0.00077659
v -0.00716391 0.01503417 -0.00077659
v -0.00990481 0.01212341 -0.00077659
v -0.00523617 0.01657420 -0.00104188
v -0.00717809 0.01169451 0.00883481
v -0.00239480 0.01771542 0.00000024
v -0.00419252 0.01210335 0.00883481
v -0.00239480 0.01349163 0.00508012
v -0.00239480 0.01666073 0.00148028
v -0.00916610 0.01270657 0.00073645
v -0.00990836 0.01198170 0.00041658
v -0.00781279 0.01114522 0.00883481
v -0.00838130 0.01379387 -0.00041483
v -0.00776433 0.01442468 -0.00041483
v -0.00623963 0.01578286 -0.00077659
v -0.00501515 0.01253977 0.00883481
v -0.00239480 0.01724765 0.00075295
v -0.00839075 0.01337500 0.00096113
f 1 2 3
f 1 3 4
f 1 4 16
f 1 16 5
f 1 5 6
f 1 6 7
f 1 7 19
f 1 19 18
f 1 18 21
f 1 21 9
f 1 9 2
f 2 8 3
f 2 9 10
f 2 10 11
f 2 11 8
f 3 12 4
f 3 8 13
f 3 13 12
f 4 12 14
f 4 14 15
f 4 15 16
f 5 16 6
f 6 17 18
f 6 18 19
f 6 19 7
f 6 16 20
f 6 20 36
f 6 36 52
f 6 52 63
f 6 63 55
f 6 55 54
f 6 54 38
f 6 38 17
f 8 11 13
f 9 21 22
f 9 22 23
f 9 23 24
f 9 24 10
f 10 24 11
f 11 25 13
f 11 24 26
f 11 26 27
f 11 27 28
f 11 28 25
f 12 13 29
f 12 29 14
f 13 25 30
f 13 30 29
f 14 31 32
f 14 32 15
f 14 29 30
f 14 30 33
f 14 33 31
f 15 34 16
f 15 32 35
f 15 35 34
f 16 34 36
f 16 36 20
f 17 37 18
f 17 38 37
f 18 37 39
f 18 39 21
f 21 39 22
f 22 39 37
f 22 37 53
f 22 53 62
f 22 62 51
f 22 51 58
f 22 58 46
f 22 46 45
f 22 45 40
f 22 40 23
f 23 40 24
f 24 40 26
f 25 28 41
f 25 41 42
f 25 42 30
f 26 40 27
f 27 43 44
f 27 44 28
f 27 40 45
f 27 45 46
f 27 46 43
f 28 44 41
f 30 42 33
f 31 34 35
f 31 35 32
f 31 33 47
f 31 47 48
f 31 48 34
f 33 42 49
f 33 49 47
f 34 48 50
f 34 50 36
f 36 50 51
f 36 51 52
f 37 38 54
f 37 54 55
f 37 55 53
f 41 44 42
f 42 44 49
f 43 56 57
f 43 57 44
f 43 46 58
f 43 58 56
f 44 57 49
f 47 49 57
f 47 57 59
f 47 59 48
f 48 59 60
f 48 60 61
f 48 61 50
f 50 61 51
f 51 62 52
f 51 61 60
f 51 60 58
f 52 62 63
f 53 55 63
f 53 63 62
f 56 60 59
f 56 59 57
f 56 58 64
f 56 64 60
f 58 60 64

