# https://github.com/mikedh/trimesh
v 0.02432696 0.02660857 -0.02492594
v 0.02335816 0.02683124 -0.02403446
v 0.01051827 0.02013204 -0.00622055
v 0.01102679 0.02013204 -0.00680516
v 0.01299288 0.01827957 -0.00951320
v 0.02373078 0.02455855 -0.02492594
v 0.02282335 0.02683124 -0.02492594
v 0.02267211 0.02683124 -0.02347896
v 0.00869027 0.02013204 -0.00459438
v 0.00947057 0.02013204 -0.00527083
v 0.00193716 0.02035889 -0.00951320
v 0.01592339 0.02005251 -0.01721621
v 0.02096685 0.02167646 -0.02492594
v 0.02243101 0.02173590 -0.02492594
v 0.02279266 0.02230511 -0.02492594
v 0.02305349 0.02278811 -0.02492594
v 0.02328802 0.02328869 -0.02492594
v 0.02349844 0.02382777 -0.02492594
v 0.00787271 0.02013204 -0.00395153
v 0.00636033 0.02013957 -0.00301077
v 0.00548797 0.02013204 -0.00259191
v 0.00461780 0.02013539 -0.00229401
v 0.00193716 0.02017724 -0.00204986
v 0.00193716 0.02013204 -0.00423152
v 0.01623025 0.02683124 -0.02387095
v 0.02195976 0.02683124 -0.02319674
v 0.00498822 0.02162624 -0.00498860
v 0.00674390 0.02165051 -0.00577257
v 0.00535646 0.02095322 -0.00373426
v 0.00623977 0.02087872 -0.00402097
v 0.00670445 0.02081259 -0.00413296
v 0.00725679 0.02069038 -0.00431887
v 0.00710994 0.02025509 -0.00359763
v 0.00193716 0.02139604 -0.00951320
v 0.00687541 0.02278476 -0.01721621
v 0.00687541 0.02176771 -0.01703030
v 0.01087774 0.02324767 -0.02015496
v 0.00504083 0.02080840 -0.00330868
v 0.00457835 0.02055895 -0.00281590
v 0.00374763 0.02065187 -0.00270391
v 0.00374763 0.02018477 -0.00212825
v 0.00291473 0.02020821 -0.00204538
v 0.00291473 0.02079752 -0.00287638
v 0.00197223 0.02063094 -0.00274647
v 0.00193716 0.02172167 -0.00777952
v 0.01087774 0.02423627 -0.02015496
v 0.00241060 0.02168232 -0.00951320
v 0.00210155 0.02165051 -0.00873595
v 0.01623025 0.02683124 -0.02248893
v 0.02086383 0.02683124 -0.02287867
v 0.02023477 0.02683124 -0.02274204
v 0.01928789 0.02683124 -0.02262556
v 0.00457835 0.02198367 -0.00623847
v 0.00291473 0.02110055 -0.00374546
v 0.00374763 0.02089881 -0.00311829
v 0.00457835 0.02085110 -0.00323028
v 0.00200949 0.02088625 -0.00345203
v 0.00198977 0.02170241 -0.00710083
v 0.00291473 0.02189578 -0.00707171
v 0.00374763 0.02203557 -0.00707171
v 0.00374763 0.02187318 -0.00623847
v 0.00289939 0.02172585 -0.00619815
v 0.00211470 0.02163712 -0.00655877
f 1 2 3
f 1 3 4
f 1 4 5
f 1 5 6
f 1 6 18
f 1 18 17
f 1 17 16
f 1 16 15
f 1 15 14
f 1 14 13
f 1 13 7
f 1 7 2
f 2 7 25
f 2 25 49
f 2 49 52
f 2 52 51
f 2 51 50
f 2 50 26
f 2 26 8
f 2 8 9
f 2 9 10
f 2 10 3
f 3 10 5
f 3 5 4
f 5 11 12
f 5 12 13
f 5 13 14
f 5 14 15
f 5 15 16
f 5 16 17
f 5 17 18
f 5 18 6
f 5 10 9
f 5 9 19
f 5 19 20
f 5 20 21
f 5 21 22
f 5 22 23
f 5 23 24
f 5 24 11
f 7 13 25
f 8 26 27
f 8 27 28
f 8 28 29
f 8 29 30
f 8 30 31
f 8 31 32
f 8 32 33
f 8 33 19
f 8 19 9
f 11 34 35
f 11 35 36
f 11 36 12
f 11 24 23
f 11 23 45
f 11 45 34
f 12 36 13
f 13 36 37
f 13 37 25
f 19 33 20
f 20 33 31
f 20 31 38
f 20 38 21
f 21 38 39
f 21 39 22
f 22 39 40
f 22 40 41
f 22 41 23
f 23 41 42
f 23 42 43
f 23 43 44
f 23 44 45
f 25 46 35
f 25 35 47
f 25 47 48
f 25 48 45
f 25 45 49
f 25 37 46
f 26 50 27
f 27 50 51
f 27 51 52
f 27 52 49
f 27 49 53
f 27 53 54
f 27 54 43
f 27 43 55
f 27 55 56
f 27 56 38
f 27 38 29
f 27 29 28
f 29 38 30
f 30 38 31
f 31 33 32
f 34 45 48
f 34 48 47
f 34 47 35
f 35 46 37
f 35 37 36
f 38 56 39
f 39 56 40
f 40 42 41
f 40 56 55
f 40 55 43
f 40 43 42
f 43 54 57
f 43 57 44
f 44 57 58
f 44 58 45
f 45 58 49
f 49 58 59
f 49 59 60
f 49 60 61
f 49 61 53
f 53 61 54
f 54 61 57
f 57 61 62
f 57 62 63
f 57 63 58
f 58 63 59
f 59 63 62
f 59 62 60
f 60 62 61

