# https://github.com/mikedh/trimesh
v -0.01034003 -0.01125576 -0.00951667
v -0.01304948 -0.00629998 -0.00270014
v -0.01313641 -0.00647025 -0.00159031
v -0.01034003 -0.01219417 -0.00951667
v -0.01034003 -0.01213400 -0.01541247
v -0.01376588 -0.00629998 -0.00183344
v -0.01034003 -0.01228891 -0.01621389
v -0.01034003 -0.01242205 -0.01680369
v -0.01998168 -0.00420424 -0.02001386
v -0.01979010 -0.00420424 -0.01908187
v -0.01962750 -0.00420424 -0.01806209
v -0.01953091 -0.00420424 -0.01732371
v -0.01860522 -0.00457807 -0.00951217
v -0.01423114 -0.00672374 -0.00244125
v -0.01372564 -0.00689913 -0.00228817
v -0.01304948 -0.00705788 -0.00202704
v -0.02466808 -0.01728310 -0.02283231
v -0.02376171 -0.01728310 -0.02270625
v -0.02054353 -0.01728310 -0.02277153
v -0.01871792 -0.01728310 -0.02283907
v -0.01034003 -0.01253856 -0.01052744
v -0.01304948 -0.00782858 -0.00283971
v -0.01307202 -0.00819601 -0.00335072
v -0.01304948 -0.00851222 -0.00380546
v -0.01304948 -0.00921123 -0.00489277
v -0.01304948 -0.00954153 -0.00547808
v -0.01939729 -0.00457807 -0.00951217
v -0.01519064 -0.00629998 -0.00284646
v -0.01466259 -0.00639472 -0.00248402
v -0.01034003 -0.01261153 -0.01723367
v -0.01060244 -0.01365108 -0.02015118
v -0.02443143 -0.01186003 -0.02458823
v -0.02097177 -0.00420424 -0.02015343
v -0.02038898 -0.00420424 -0.01723367
v -0.01511336 -0.00678903 -0.00319539
v -0.01449999 -0.00703483 -0.00295677
v -0.01372564 -0.00731521 -0.00267988
v -0.01327808 -0.00746755 -0.00251779
v -0.02513012 -0.01728310 -0.02308895
v -0.01871792 -0.01728310 -0.02398041
v -0.01060244 -0.01463814 -0.02015118
v -0.01034003 -0.01271651 -0.01119379
v -0.01898677 -0.00629998 -0.00817047
v -0.01849736 -0.00629998 -0.00707640
v -0.01762319 -0.00629998 -0.00539253
v -0.01707421 -0.00629998 -0.00457761
v -0.01627893 -0.00629998 -0.00378295
v -0.02535712 -0.01186003 -0.02458823
v -0.02520579 -0.01186003 -0.02371702
v -0.02636008 -0.01457669 -0.02458823
v -0.02654039 -0.01538451 -0.02458823
v -0.02678509 -0.01674284 -0.02458823
v -0.01657676 -0.00658803 -0.00421067
v -0.01034003 -0.01336431 -0.01723141
v -0.02519452 -0.01728310 -0.02458823
v -0.01602295 -0.00684664 -0.00399456
v -0.01568326 -0.00739970 -0.00426019
v -0.01477046 -0.00734337 -0.00348354
v -0.01421665 -0.00753156 -0.00327418
v -0.02677704 -0.01728310 -0.02458823
v -0.01512946 -0.00758533 -0.00403958
v -0.01629341 -0.00713981 -0.00451233
v -0.01034003 -0.01286117 -0.01200196
v -0.02607513 -0.01378422 -0.02458823
f 1 2 3
f 1 3 4
f 1 4 21
f 1 21 42
f 1 42 63
f 1 63 54
f 1 54 30
f 1 30 8
f 1 8 7
f 1 7 5
f 1 5 2
f 2 6 3
f 2 5 7
f 2 7 8
f 2 8 9
f 2 9 10
f 2 10 11
f 2 11 12
f 2 12 13
f 2 13 6
f 3 6 14
f 3 14 15
f 3 15 16
f 3 16 4
f 4 17 18
f 4 18 19
f 4 19 20
f 4 20 21
f 4 16 22
f 4 22 23
f 4 23 24
f 4 24 25
f 4 25 26
f 4 26 17
f 6 13 27
f 6 27 28
f 6 28 29
f 6 29 14
f 8 30 9
f 9 30 31
f 9 31 32
f 9 32 33
f 9 33 34
f 9 34 12
f 9 12 11
f 9 11 10
f 12 34 13
f 13 34 27
f 14 29 35
f 14 35 36
f 14 36 37
f 14 37 38
f 14 38 15
f 15 38 16
f 16 38 22
f 17 39 60
f 17 60 55
f 17 55 40
f 17 40 20
f 17 20 19
f 17 19 18
f 17 26 25
f 17 25 24
f 17 24 23
f 17 23 39
f 20 40 41
f 20 41 42
f 20 42 21
f 22 38 39
f 22 39 23
f 27 43 44
f 27 44 45
f 27 45 46
f 27 46 47
f 27 47 28
f 27 34 33
f 27 33 48
f 27 48 49
f 27 49 50
f 27 50 51
f 27 51 52
f 27 52 43
f 28 47 53
f 28 53 29
f 29 53 35
f 30 41 31
f 30 54 41
f 31 41 40
f 31 40 32
f 32 55 60
f 32 60 52
f 32 52 51
f 32 51 50
f 32 50 64
f 32 64 48
f 32 48 33
f 32 40 55
f 35 53 56
f 35 56 57
f 35 57 36
f 36 57 58
f 36 58 37
f 37 58 59
f 37 59 38
f 38 59 39
f 39 59 61
f 39 61 57
f 39 57 62
f 39 62 60
f 41 54 63
f 41 63 42
f 43 52 44
f 44 52 60
f 44 60 45
f 45 60 46
f 46 53 47
f 46 60 53
f 48 64 49
f 49 64 50
f 53 62 56
f 53 60 62
f 56 62 57
f 57 61 58
f 58 61 59

