# https://github.com/mikedh/trimesh
v -0.00137491 0.01446827 -0.01722197
v -0.00187572 0.02099628 -0.02684314
v -0.00187572 0.02099628 -0.02649811
v -0.00187572 0.02094400 -0.02632028
v -0.00187572 0.01809987 -0.02015875
v -0.00237561 0.01444450 -0.01722197
v -0.00123300 0.00874358 -0.01722197
v -0.00123300 0.00839024 -0.01749535
v -0.00291213 0.02096301 -0.02671840
v -0.00123300 0.00792916 -0.01779526
v -0.00123300 0.00729537 -0.01820134
v -0.00123300 0.00560791 -0.01913161
v -0.00187572 0.02079822 -0.02684845
v -0.00665126 0.01581190 -0.03077256
v -0.00647822 0.01674357 -0.03017804
v -0.00675288 0.01674357 -0.03017804
v -0.00291213 0.02096301 -0.02628180
v -0.00340103 0.02088537 -0.02643972
v -0.00270246 0.01693845 -0.02015875
v -0.00257337 0.01372198 -0.01722197
v -0.01058631 0.00560791 -0.02015742
v -0.00843567 0.00560791 -0.01897767
v -0.00123300 0.00693728 -0.01722197
v -0.00340103 0.02088537 -0.02666532
v -0.00123300 0.00560791 -0.01792929
v -0.00950047 0.00480934 -0.02015875
v -0.00950047 0.01178100 -0.03035454
v -0.00950047 0.01210265 -0.03075398
v -0.00856843 0.01272852 -0.03056421
v -0.00830658 0.01327833 -0.03077521
v -0.00187572 0.02036408 -0.02681395
v -0.00914065 0.01247817 -0.03077787
v -0.00950047 0.01241004 -0.03035454
v -0.00666682 0.01748985 -0.02827637
v -0.00595086 0.01848331 -0.02842367
v -0.00595086 0.01848331 -0.02807996
v -0.00258619 0.01365068 -0.01722197
v -0.00791655 0.00560791 -0.01873482
v -0.00717587 0.00560791 -0.01840836
v -0.00673183 0.00560791 -0.01822921
v -0.00950047 0.01210741 -0.02786630
v -0.00950047 0.01239420 -0.02844623
v -0.00950047 0.01247659 -0.02869173
v -0.00950047 0.01252729 -0.02899032
v -0.00950047 0.01261602 -0.02952247
v -0.00146463 0.00685013 -0.01722197
v -0.00247174 0.00560791 -0.01746615
v -0.00198467 0.00560791 -0.01758028
v -0.00186015 0.00560791 -0.01762673
v -0.00123300 0.00611019 -0.01762274
v -0.00277571 0.00560791 -0.01744492
v -0.00291213 0.00560791 -0.01743828
v -0.00374803 0.00560791 -0.01745023
v -0.00433398 0.00560791 -0.01754975
v -0.00268782 0.01289964 -0.01722197
v -0.00416552 0.00576636 -0.01746482
v -0.00416552 0.00582974 -0.01746482
v -0.00271162 0.01268574 -0.01722197
v -0.00265302 0.00733181 -0.01722197
v -0.00284895 0.00799095 -0.01722197
v -0.00297347 0.00878636 -0.01722197
v -0.00293410 0.00947402 -0.01722197
v -0.00288741 0.01019495 -0.01722197
f 1 2 3
f 1 3 4
f 1 4 5
f 1 5 6
f 1 6 20
f 1 20 37
f 1 37 55
f 1 55 58
f 1 58 63
f 1 63 62
f 1 62 61
f 1 61 60
f 1 60 59
f 1 59 46
f 1 46 23
f 1 23 7
f 1 7 8
f 1 8 2
f 2 9 17
f 2 17 3
f 2 8 10
f 2 10 11
f 2 11 12
f 2 12 13
f 2 13 14
f 2 14 15
f 2 15 16
f 2 16 9
f 3 17 4
f 4 17 5
f 5 17 18
f 5 18 19
f 5 19 6
f 6 19 21
f 6 21 22
f 6 22 20
f 7 23 50
f 7 50 25
f 7 25 12
f 7 12 11
f 7 11 10
f 7 10 8
f 9 16 24
f 9 24 18
f 9 18 17
f 12 25 26
f 12 26 27
f 12 27 28
f 12 28 29
f 12 29 30
f 12 30 14
f 12 14 31
f 12 31 13
f 13 31 14
f 14 30 32
f 14 32 28
f 14 28 16
f 14 16 15
f 16 33 34
f 16 34 35
f 16 35 24
f 16 28 33
f 18 24 35
f 18 35 36
f 18 36 21
f 18 21 19
f 20 22 38
f 20 38 39
f 20 39 40
f 20 40 37
f 21 41 42
f 21 42 43
f 21 43 44
f 21 44 45
f 21 45 33
f 21 33 28
f 21 28 27
f 21 27 26
f 21 26 22
f 21 36 34
f 21 34 41
f 22 26 38
f 23 46 47
f 23 47 48
f 23 48 49
f 23 49 50
f 25 49 26
f 25 50 49
f 26 49 48
f 26 48 47
f 26 47 51
f 26 51 52
f 26 52 53
f 26 53 54
f 26 54 40
f 26 40 39
f 26 39 38
f 28 32 29
f 29 32 30
f 33 45 34
f 34 36 35
f 34 45 44
f 34 44 43
f 34 43 42
f 34 42 41
f 37 40 55
f 40 54 56
f 40 56 57
f 40 57 58
f 40 58 55
f 46 59 53
f 46 53 52
f 46 52 51
f 46 51 47
f 53 59 56
f 53 56 54
f 56 59 60
f 56 60 61
f 56 61 57
f 57 61 62
f 57 62 63
f 57 63 58

