# https://github.com/mikedh/trimesh
v -0.03040971 -0.04050886 -0.04167450
v -0.03040971 -0.03916658 -0.04167450
v -0.03040602 -0.04615821 -0.04604741
v -0.03040602 -0.04715892 -0.04560405
v -0.03040971 -0.03900379 -0.04001158
v -0.03040602 -0.04109595 -0.04378322
v -0.03040602 -0.04204595 -0.04453754
v -0.03040602 -0.04288922 -0.04507444
v -0.03040602 -0.04370046 -0.04553603
v -0.03040602 -0.04450103 -0.04580690
v -0.03040971 -0.03594829 -0.03890863
v -0.03038758 -0.04708953 -0.04595024
v -0.02869118 -0.04366310 -0.04618832
v -0.02869118 -0.04449302 -0.04620775
v -0.02820438 -0.04586199 -0.04580569
v -0.02820438 -0.04586199 -0.04554453
v -0.02422153 -0.03022156 -0.03379840
v -0.02459584 -0.03041903 -0.03379840
v -0.02536291 -0.03071524 -0.03379840
v -0.02613551 -0.03096342 -0.03379840
v -0.02704640 -0.03119825 -0.03379840
v -0.02831686 -0.03147045 -0.03379840
v -0.02868933 -0.03153716 -0.03379840
v -0.02924804 -0.03163590 -0.03379840
v -0.02952463 -0.03167859 -0.03379840
v -0.03039495 -0.03182003 -0.03383970
v -0.03040971 -0.03863820 -0.03968847
v -0.03040971 -0.03045372 -0.03379840
v -0.03038020 -0.03026159 -0.03380083
v -0.02413118 -0.03407763 -0.04577775
v -0.03011284 -0.04395131 -0.04579961
v -0.02428791 -0.03534786 -0.04601826
v -0.02813247 -0.04532561 -0.04589679
v -0.02386565 -0.03534786 -0.04601826
v -0.02288469 -0.03366133 -0.04598060
v -0.02236471 -0.03338113 -0.04589072
v -0.02077710 -0.03245781 -0.04409904
v -0.01242048 -0.02258947 -0.03832436
v -0.01267494 -0.02302178 -0.03784334
v -0.01410581 -0.02499919 -0.03816888
v -0.01157412 -0.01995827 -0.03379840
v -0.01241679 -0.02099101 -0.03379840
v -0.01900878 -0.02674176 -0.03379840
v -0.01947898 -0.02710468 -0.03379840
v -0.01968919 -0.02725946 -0.03379840
v -0.02021101 -0.02760637 -0.03379840
v -0.02379927 -0.02997872 -0.03379840
v -0.01271919 -0.01989690 -0.03379840
v -0.01258827 -0.01989690 -0.03430493
v -0.01263622 -0.02059339 -0.03618042
v -0.01247764 -0.02073749 -0.03662257
v -0.02333276 -0.03322102 -0.04582755
v -0.02364438 -0.03375207 -0.04591258
v -0.02419387 -0.03451261 -0.04589072
v -0.02286994 -0.03308226 -0.04591865
v -0.02236471 -0.03306625 -0.04589072
v -0.01242048 -0.02238933 -0.03832436
v -0.01158334 -0.01989690 -0.03417253
v -0.01240388 -0.02260549 -0.03784334
v -0.01243523 -0.02252276 -0.03732710
v -0.01309166 -0.02356617 -0.03784334
v -0.01207751 -0.01989690 -0.03440818
v -0.01265097 -0.02238933 -0.03832436
f 1 2 3
f 1 3 4
f 1 4 5
f 1 5 27
f 1 27 28
f 1 28 11
f 1 11 2
f 2 6 7
f 2 7 8
f 2 8 9
f 2 9 10
f 2 10 3
f 2 11 6
f 3 12 4
f 3 10 13
f 3 13 14
f 3 14 12
f 4 12 15
f 4 15 16
f 4 16 17
f 4 17 18
f 4 18 19
f 4 19 20
f 4 20 21
f 4 21 22
f 4 22 23
f 4 23 24
f 4 24 25
f 4 25 26
f 4 26 27
f 4 27 5
f 6 11 28
f 6 28 29
f 6 29 30
f 6 30 7
f 7 30 8
f 8 30 9
f 9 30 31
f 9 31 10
f 10 31 13
f 12 14 15
f 13 31 32
f 13 32 14
f 14 33 15
f 14 32 34
f 14 34 35
f 14 35 36
f 14 36 33
f 15 33 36
f 15 36 37
f 15 37 38
f 15 38 39
f 15 39 16
f 16 39 40
f 16 40 41
f 16 41 42
f 16 42 43
f 16 43 44
f 16 44 45
f 16 45 46
f 16 46 47
f 16 47 17
f 17 47 46
f 17 46 45
f 17 45 44
f 17 44 43
f 17 43 42
f 17 42 41
f 17 41 48
f 17 48 28
f 17 28 25
f 17 25 24
f 17 24 23
f 17 23 22
f 17 22 21
f 17 21 20
f 17 20 19
f 17 19 18
f 25 28 26
f 26 28 27
f 28 48 29
f 29 48 49
f 29 49 50
f 29 50 51
f 29 51 52
f 29 52 30
f 30 52 53
f 30 53 54
f 30 54 31
f 31 54 32
f 32 54 53
f 32 53 35
f 32 35 34
f 35 55 56
f 35 56 36
f 35 53 55
f 36 56 57
f 36 57 38
f 36 38 37
f 38 57 58
f 38 58 41
f 38 41 59
f 38 59 39
f 39 59 60
f 39 60 61
f 39 61 40
f 40 61 60
f 40 60 41
f 41 58 48
f 41 60 59
f 48 58 62
f 48 62 49
f 49 62 51
f 49 51 50
f 51 62 58
f 51 58 57
f 51 57 63
f 51 63 55
f 51 55 52
f 52 55 53
f 55 63 57
f 55 57 56

