# https://github.com/mikedh/trimesh
v 0.00001437 -0.00787115 -0.00291452
v -0.00058784 -0.00854478 -0.00291452
v -0.00276397 -0.01081741 -0.02015530
v 0.00000798 -0.00758305 -0.00418754
v 0.00001181 -0.00780050 -0.00185911
v -0.00073232 -0.00848716 -0.00185911
v -0.00270899 -0.01017259 -0.00438591
v -0.00359632 -0.01156169 -0.02015530
v -0.00390957 -0.01052450 -0.02015530
v -0.00333677 -0.00952641 -0.01722983
v -0.00244177 -0.00758305 -0.00942988
v -0.00058528 -0.00758305 -0.00569361
v -0.00150841 -0.00758305 -0.00163763
v -0.00591949 -0.00841719 -0.00048016
v -0.00418063 -0.01017053 -0.00259674
v -0.00313348 -0.01006009 -0.00313214
v -0.00396966 -0.00939607 -0.00163763
v -0.00444018 -0.01090384 -0.00420873
v -0.00393898 -0.01092716 -0.00540857
v -0.00486467 -0.01242738 -0.02015530
v -0.00441589 -0.00952641 -0.01722983
v -0.01059651 -0.01365322 -0.02015530
v -0.01304753 -0.00832801 -0.00532576
v -0.00360271 -0.00758305 -0.00951077
v -0.01181499 -0.00832801 -0.00270652
v -0.00986772 -0.00832801 -0.00173778
v -0.00725304 -0.00834585 -0.00070357
v -0.00719295 -0.00904142 -0.00135645
v -0.00581720 -0.00917999 -0.00120238
v -0.00508842 -0.00980765 -0.00188608
v -0.00539655 -0.01070216 -0.00323614
v -0.00596424 -0.01172975 -0.00597864
v -0.00623913 -0.01198425 -0.00707256
v -0.00853801 -0.01416152 -0.02013989
v -0.00738985 -0.01367105 -0.02015530
v -0.01304753 -0.01021787 -0.00951270
v -0.01032162 -0.01459094 -0.02015530
v -0.01304753 -0.01107808 -0.00914870
v -0.01304753 -0.00906955 -0.00467287
v -0.01282123 -0.00838563 -0.00345570
v -0.01011832 -0.00903662 -0.00264104
v -0.01066172 -0.00839935 -0.00216919
v -0.01089442 -0.00919097 -0.00327274
v -0.00900980 -0.00926025 -0.00237526
v -0.00778876 -0.01006215 -0.00279703
v -0.00662910 -0.00991535 -0.00219808
v -0.00665339 -0.01087366 -0.00378888
v -0.00703185 -0.01175170 -0.00594205
v -0.00706893 -0.01208646 -0.00707256
v -0.00745506 -0.01248158 -0.00911788
v -0.00889601 -0.01261397 -0.00987669
v -0.01033312 -0.01262975 -0.01085313
v -0.01133680 -0.01177571 -0.00911018
v -0.01268314 -0.01089424 -0.00809522
v -0.01304753 -0.01037427 -0.00715538
v -0.01182905 -0.00923967 -0.00402769
v -0.01304753 -0.00975141 -0.00586116
v -0.00985238 -0.01094500 -0.00535080
v -0.00866075 -0.01024531 -0.00346533
v -0.00865052 -0.01085308 -0.00436280
v -0.00827718 -0.01181070 -0.00674131
v -0.00967849 -0.01179766 -0.00763493
v -0.01062464 -0.01170848 -0.00806056
v -0.01148384 -0.01088257 -0.00666234
f 1 2 3
f 1 3 4
f 1 4 5
f 1 5 2
f 2 5 6
f 2 6 7
f 2 7 8
f 2 8 3
f 3 8 20
f 3 20 35
f 3 35 37
f 3 37 22
f 3 22 9
f 3 9 10
f 3 10 11
f 3 11 12
f 3 12 4
f 4 13 5
f 4 12 11
f 4 11 24
f 4 24 13
f 5 13 14
f 5 14 6
f 6 15 16
f 6 16 7
f 6 14 17
f 6 17 15
f 7 16 18
f 7 18 19
f 7 19 20
f 7 20 8
f 9 21 10
f 9 22 23
f 9 23 21
f 10 21 24
f 10 24 11
f 13 24 23
f 13 23 25
f 13 25 26
f 13 26 27
f 13 27 14
f 14 27 28
f 14 28 29
f 14 29 17
f 15 17 30
f 15 30 31
f 15 31 18
f 15 18 16
f 17 29 30
f 18 31 32
f 18 32 19
f 19 32 33
f 19 33 34
f 19 34 35
f 19 35 20
f 21 23 24
f 22 36 23
f 22 37 38
f 22 38 36
f 23 39 40
f 23 40 25
f 23 36 38
f 23 38 55
f 23 55 57
f 23 57 39
f 25 41 42
f 25 42 26
f 25 40 43
f 25 43 41
f 26 28 27
f 26 42 44
f 26 44 28
f 28 44 45
f 28 45 46
f 28 46 29
f 29 46 30
f 30 46 31
f 31 47 48
f 31 48 32
f 31 46 47
f 32 48 49
f 32 49 33
f 33 49 50
f 33 50 37
f 33 37 34
f 34 37 35
f 37 50 51
f 37 51 52
f 37 52 38
f 38 52 53
f 38 53 54
f 38 54 55
f 39 56 40
f 39 57 58
f 39 58 56
f 40 56 43
f 41 44 42
f 41 43 59
f 41 59 44
f 43 56 58
f 43 58 60
f 43 60 59
f 44 59 45
f 45 59 60
f 45 60 46
f 46 60 47
f 47 60 48
f 48 61 49
f 48 60 61
f 49 61 51
f 49 51 50
f 51 61 52
f 52 61 62
f 52 62 63
f 52 63 53
f 53 63 54
f 54 63 64
f 54 64 55
f 55 64 57
f 57 64 58
f 58 64 63
f 58 63 62
f 58 62 61
f 58 61 60

