# https://github.com/mikedh/trimesh
v -0.04598326 -0.03284401 -0.04366288
v -0.04592999 -0.03341461 -0.04338660
v -0.04597527 -0.03368751 -0.04284163
v -0.04589004 -0.03367687 -0.04223835
v -0.04589803 -0.03229114 -0.04366035
v -0.04591934 -0.03241164 -0.04417997
v -0.04370336 -0.03752929 -0.04135626
v -0.04421474 -0.03752929 -0.04093042
v -0.04594064 -0.03424747 -0.04237523
v -0.04587672 -0.03292907 -0.04289992
v -0.04420675 -0.03392142 -0.03631971
v -0.02024124 -0.00206009 -0.02015559
v -0.01980976 -0.00132293 -0.02015559
v -0.01998821 -0.00132293 -0.02370677
v -0.03824867 -0.02411848 -0.04407351
v -0.04532273 -0.03259947 -0.04421800
v -0.04221984 -0.02995204 -0.04589093
v -0.04116512 -0.03020367 -0.04605062
v -0.04282976 -0.03752929 -0.04147286
v -0.03922348 -0.03752929 -0.03969093
v -0.04408423 -0.03750448 -0.04003565
v -0.04420143 -0.03450973 -0.03635519
v -0.04420409 -0.03507324 -0.03700662
v -0.02250515 -0.01185949 -0.02015559
v -0.02416447 -0.01185949 -0.02160800
v -0.02210564 -0.00922623 -0.02015559
v -0.02195915 -0.00840755 -0.02015559
v -0.02175140 -0.00744356 -0.02015559
v -0.02101097 -0.00435312 -0.02015559
v -0.02088046 -0.00381796 -0.02015559
v -0.02055552 -0.00282562 -0.02015559
v -0.01877369 -0.00132293 -0.02015559
v -0.01954608 -0.00132293 -0.02434300
v -0.02004947 -0.00151785 -0.02433032
v -0.02001485 -0.00311269 -0.02666990
v -0.02497681 -0.01327712 -0.03660867
v -0.03577168 -0.02421062 -0.04409886
v -0.03906101 -0.02817645 -0.04590868
v -0.04116512 -0.02971104 -0.04605062
v -0.04029418 -0.02951257 -0.04603541
v -0.04033147 -0.03018595 -0.04603541
v -0.04199611 -0.03752929 -0.04142723
v -0.04406826 -0.03495274 -0.03654530
v -0.03975883 -0.03752929 -0.04097351
v -0.03922348 -0.03752575 -0.04081382
v -0.02745113 -0.02516044 -0.02969893
v -0.02745113 -0.02514272 -0.02856843
v -0.02101363 -0.01185949 -0.02015559
v -0.02745113 -0.02083311 -0.02601086
v -0.02776275 -0.02320056 -0.02741005
v -0.02745113 -0.02441618 -0.02810711
v -0.01882163 -0.00132293 -0.02204144
v -0.01894149 -0.00132293 -0.02372452
v -0.01995891 -0.00499460 -0.02829214
v -0.02250781 -0.00900296 -0.03253279
v -0.03889588 -0.02865490 -0.04597204
v -0.02410853 -0.01249388 -0.03580768
v -0.03897845 -0.02924322 -0.04588333
v -0.03945520 -0.02867617 -0.04598218
v -0.03948450 -0.02951966 -0.04599739
v -0.03975350 -0.03009026 -0.04592388
v -0.04064309 -0.03752929 -0.04125994
v -0.04133292 -0.03752929 -0.04138161
v -0.01885626 -0.00132293 -0.02281708
f 1 2 3
f 1 3 4
f 1 4 5
f 1 5 6
f 1 6 2
f 2 6 7
f 2 7 8
f 2 8 9
f 2 9 3
f 3 9 4
f 4 10 5
f 4 9 11
f 4 11 10
f 5 10 11
f 5 11 12
f 5 12 13
f 5 13 14
f 5 14 15
f 5 15 6
f 6 16 7
f 6 15 17
f 6 17 18
f 6 18 16
f 7 19 42
f 7 42 63
f 7 63 62
f 7 62 44
f 7 44 20
f 7 20 8
f 7 16 19
f 8 20 21
f 8 21 9
f 9 22 11
f 9 21 23
f 9 23 22
f 11 22 24
f 11 24 25
f 11 25 26
f 11 26 27
f 11 27 28
f 11 28 29
f 11 29 30
f 11 30 31
f 11 31 12
f 12 31 30
f 12 30 29
f 12 29 28
f 12 28 27
f 12 27 26
f 12 26 24
f 12 24 48
f 12 48 32
f 12 32 13
f 13 32 52
f 13 52 64
f 13 64 53
f 13 53 33
f 13 33 14
f 14 33 34
f 14 34 15
f 15 34 35
f 15 35 36
f 15 36 37
f 15 37 38
f 15 38 17
f 16 18 19
f 17 39 18
f 17 38 39
f 18 39 40
f 18 40 41
f 18 41 19
f 19 41 42
f 20 43 21
f 20 44 45
f 20 45 46
f 20 46 47
f 20 47 43
f 21 43 23
f 22 23 43
f 22 43 24
f 24 26 25
f 24 43 49
f 24 49 50
f 24 50 51
f 24 51 48
f 32 48 52
f 33 53 35
f 33 35 34
f 35 53 54
f 35 54 55
f 35 55 36
f 36 56 37
f 36 55 57
f 36 57 45
f 36 45 58
f 36 58 56
f 37 56 38
f 38 56 59
f 38 59 39
f 39 59 40
f 40 59 56
f 40 56 41
f 41 56 60
f 41 60 61
f 41 61 62
f 41 62 63
f 41 63 42
f 43 47 51
f 43 51 50
f 43 50 49
f 44 62 45
f 45 62 61
f 45 61 58
f 45 57 46
f 46 57 54
f 46 54 48
f 46 48 47
f 47 48 51
f 48 54 64
f 48 64 52
f 53 64 54
f 54 57 55
f 56 58 60
f 58 61 60

