# https://github.com/mikedh/trimesh
v 0.01622992 0.02495654 -0.02015300
v 0.01622992 0.02355811 -0.02015300
v 0.01622992 0.02760119 -0.02330965
v 0.00186713 0.01951503 -0.00113930
v 0.00193245 0.01831357 -0.00113930
v -0.00159239 0.01407173 -0.01230139
v -0.00142475 0.01407173 -0.01289826
v -0.00123315 0.01407173 -0.01389817
v -0.00117437 0.01407173 -0.01455965
v -0.00117219 0.01407173 -0.01573493
v -0.00122880 0.01407173 -0.01639334
v -0.00142910 0.01407173 -0.01714096
v -0.00283773 0.01447461 -0.02015300
v 0.00946545 0.02645703 -0.03257036
v 0.01124638 0.02738632 -0.03257036
v 0.01257663 0.02819745 -0.03257036
v 0.01607098 0.03102474 -0.03257036
v 0.01622992 0.03236408 -0.03257036
v 0.01622992 0.02809360 -0.02397420
v 0.00193245 0.02024916 -0.00213922
v 0.00116826 0.01955263 -0.00113930
v -0.00409178 0.01609686 -0.00113930
v -0.00270710 0.01407173 -0.00957548
v -0.00235657 0.01407173 -0.01034464
v -0.00247414 0.01407173 -0.01721788
v -0.00390236 0.01447461 -0.02015300
v -0.00187106 0.01811302 -0.02512795
v -0.00187106 0.01769045 -0.02452800
v 0.00805682 0.02583391 -0.03246268
v 0.00870127 0.02620814 -0.03257036
v 0.00819834 0.02668443 -0.03257036
v 0.00684632 0.02575513 -0.03249960
v -0.00093924 0.02170488 -0.02837997
v 0.00053035 0.02264135 -0.02702316
v 0.00052382 0.02102089 -0.00624039
v 0.00082645 0.02079707 -0.00414519
v 0.00109424 0.02071829 -0.00359140
v 0.00179093 0.02080065 -0.00326527
v 0.01622992 0.03217070 -0.03199195
v 0.01622992 0.03148670 -0.03056439
v 0.00193245 0.02062697 -0.00275455
v 0.00124882 0.02020081 -0.00213614
v 0.00032570 0.01947385 -0.00113930
v -0.00071717 0.01922496 -0.00113930
v -0.00527180 0.01657314 -0.00119468
v -0.00597067 0.01609686 -0.00130852
v -0.00373254 0.01407173 -0.00951395
v -0.00590971 0.01609686 -0.00374523
v -0.00187106 0.02094569 -0.02666627
v -0.00187106 0.02036555 -0.02681087
v -0.00187106 0.01987852 -0.02652782
v -0.00187106 0.01872360 -0.02566944
v -0.00601204 0.01609686 -0.00214845
v -0.00595543 0.01609686 -0.00307759
v -0.00088045 0.02099224 -0.02833074
v -0.00332324 0.01830103 -0.00499127
v -0.00087174 0.01998774 -0.00483129
v -0.00028826 0.02012203 -0.00374523
v -0.00014022 0.02004325 -0.00308682
v 0.00034747 0.02021693 -0.00284992
v 0.00132284 0.02060727 -0.00299145
v 0.01622992 0.03181796 -0.03123510
v 0.00057607 0.02010233 -0.00224382
v -0.00128541 0.01897607 -0.00119468
f 1 2 18
f 1 18 39
f 1 39 62
f 1 62 40
f 1 40 19
f 1 19 3
f 1 3 4
f 1 4 5
f 1 5 2
f 2 5 6
f 2 6 7
f 2 7 8
f 2 8 9
f 2 9 10
f 2 10 11
f 2 11 12
f 2 12 13
f 2 13 14
f 2 14 15
f 2 15 16
f 2 16 17
f 2 17 18
f 3 19 20
f 3 20 4
f 4 21 43
f 4 43 44
f 4 44 22
f 4 22 5
f 4 20 21
f 5 22 23
f 5 23 24
f 5 24 6
f 6 24 23
f 6 23 47
f 6 47 25
f 6 25 12
f 6 12 11
f 6 11 10
f 6 10 9
f 6 9 8
f 6 8 7
f 12 25 13
f 13 25 26
f 13 26 27
f 13 27 28
f 13 28 29
f 13 29 14
f 14 29 30
f 14 30 31
f 14 31 18
f 14 18 17
f 14 17 16
f 14 16 15
f 18 31 32
f 18 32 33
f 18 33 34
f 18 34 35
f 18 35 36
f 18 36 37
f 18 37 38
f 18 38 39
f 19 40 41
f 19 41 20
f 20 41 42
f 20 42 21
f 21 42 43
f 22 44 45
f 22 45 46
f 22 46 47
f 22 47 23
f 25 47 26
f 26 48 49
f 26 49 50
f 26 50 51
f 26 51 52
f 26 52 27
f 26 47 53
f 26 53 54
f 26 54 48
f 27 52 55
f 27 55 29
f 27 29 28
f 29 55 32
f 29 32 30
f 30 32 31
f 32 55 33
f 33 55 50
f 33 50 49
f 33 49 34
f 34 49 56
f 34 56 57
f 34 57 35
f 35 57 58
f 35 58 36
f 36 58 59
f 36 59 60
f 36 60 37
f 37 60 61
f 37 61 38
f 38 61 41
f 38 41 39
f 39 41 62
f 40 62 41
f 41 61 42
f 42 61 63
f 42 63 43
f 43 63 44
f 44 63 60
f 44 60 64
f 44 64 45
f 45 64 58
f 45 58 57
f 45 57 56
f 45 56 46
f 46 56 49
f 46 49 53
f 46 53 47
f 48 54 49
f 49 54 53
f 50 55 51
f 51 55 52
f 58 64 59
f 59 64 60
f 60 63 61

