# https://github.com/mikedh/trimesh
v 0.01253295 0.00741670 -0.02015362
v 0.01217357 0.00841623 -0.02015362
v 0.01372785 0.00789332 -0.02015362
v 0.01338819 0.00855167 -0.00951169
v 0.01150334 0.01076846 -0.00146724
v 0.01299090 0.02319829 -0.01721497
v 0.01612144 0.02493160 -0.02015362
v 0.01150334 0.01620672 -0.00433222
v 0.01495308 0.00864596 -0.02015362
v 0.01498568 0.00996610 -0.00951169
v 0.01534430 0.01076846 -0.00740075
v 0.01464905 0.01076846 -0.00485754
v 0.01269900 0.01094162 -0.00143816
v 0.01162996 0.01108735 -0.00035264
v 0.01155110 0.01281553 -0.00081786
v 0.01299090 0.02145811 -0.01321020
v 0.01160948 0.01605242 -0.00260509
v 0.01709192 0.02483045 -0.02015362
v 0.01299090 0.02101921 -0.01221966
v 0.01587200 0.00959063 -0.02015362
v 0.01654375 0.01048215 -0.02015362
v 0.01509259 0.01088505 -0.00607099
v 0.01562180 0.01102735 -0.00855217
v 0.01592735 0.01139424 -0.00953882
v 0.01619802 0.01206117 -0.00953882
v 0.01596677 0.01194801 -0.00839903
v 0.01510093 0.01206288 -0.00549334
v 0.01431620 0.01099992 -0.00397943
v 0.01322897 0.01111478 -0.00211854
v 0.01337378 0.01235434 -0.00241319
v 0.01268990 0.01290639 -0.00187237
v 0.01170198 0.01402593 -0.00147111
v 0.01173610 0.01507347 -0.00204489
v 0.01250869 0.01372590 -0.00204682
v 0.01271340 0.01461571 -0.00267875
v 0.01347538 0.01517291 -0.00394842
v 0.01374453 0.01620672 -0.00535959
v 0.01795777 0.02423553 -0.02015362
v 0.01692284 0.01121251 -0.02015362
v 0.01684096 0.01131538 -0.01870950
v 0.01591825 0.01275895 -0.00764886
v 0.01694635 0.01172685 -0.01787792
v 0.01661047 0.01252407 -0.01122719
v 0.01666961 0.01306070 -0.01059526
v 0.01622835 0.01289268 -0.00873438
v 0.01512746 0.01289268 -0.00547395
v 0.01432000 0.01206288 -0.00386119
v 0.01429346 0.01289268 -0.00391546
v 0.01417897 0.01394878 -0.00409961
v 0.01335407 0.01359389 -0.00284545
v 0.01331768 0.01458828 -0.00331843
v 0.01420096 0.01485402 -0.00464819
v 0.01449438 0.01620672 -0.00631523
v 0.01879404 0.02337830 -0.02015362
v 0.01912613 0.02120437 -0.02015362
v 0.01753773 0.01320128 -0.01984735
v 0.01716091 0.01206117 -0.01870950
v 0.01666885 0.01392821 -0.01015718
v 0.01580907 0.01384592 -0.00745308
v 0.01749603 0.01313784 -0.01888202
v 0.01924896 0.02242507 -0.02015362
v 0.01521920 0.01372590 -0.00591591
v 0.01504785 0.01457113 -0.00586358
v 0.01502511 0.01560324 -0.00654784
f 1 2 7
f 1 7 18
f 1 18 38
f 1 38 54
f 1 54 61
f 1 61 55
f 1 55 39
f 1 39 21
f 1 21 20
f 1 20 9
f 1 9 3
f 1 3 4
f 1 4 5
f 1 5 2
f 2 6 7
f 2 5 8
f 2 8 6
f 3 9 4
f 4 9 10
f 4 10 11
f 4 11 12
f 4 12 13
f 4 13 14
f 4 14 5
f 5 14 15
f 5 15 8
f 6 16 7
f 6 8 17
f 6 17 16
f 7 16 19
f 7 19 17
f 7 17 18
f 8 15 17
f 9 20 10
f 10 20 21
f 10 21 11
f 11 22 12
f 11 21 23
f 11 23 24
f 11 24 25
f 11 25 26
f 11 26 22
f 12 22 27
f 12 27 28
f 12 28 13
f 13 28 29
f 13 29 30
f 13 30 14
f 14 30 31
f 14 31 15
f 15 32 33
f 15 33 17
f 15 31 34
f 15 34 32
f 16 17 19
f 17 33 35
f 17 35 36
f 17 36 37
f 17 37 38
f 17 38 18
f 21 39 40
f 21 40 24
f 21 24 23
f 22 26 41
f 22 41 27
f 24 40 42
f 24 42 43
f 24 43 25
f 25 43 44
f 25 44 26
f 26 44 45
f 26 45 41
f 27 46 47
f 27 47 28
f 27 41 46
f 28 47 29
f 29 47 30
f 30 47 48
f 30 48 49
f 30 49 50
f 30 50 31
f 31 50 34
f 32 34 35
f 32 35 33
f 34 50 35
f 35 50 51
f 35 51 36
f 36 52 53
f 36 53 37
f 36 51 52
f 37 53 54
f 37 54 38
f 39 55 56
f 39 56 57
f 39 57 42
f 39 42 40
f 41 45 58
f 41 58 59
f 41 59 46
f 42 57 43
f 43 57 60
f 43 60 44
f 44 58 45
f 44 60 55
f 44 55 61
f 44 61 58
f 46 59 62
f 46 62 63
f 46 63 48
f 46 48 47
f 48 63 49
f 49 63 52
f 49 52 51
f 49 51 50
f 52 63 64
f 52 64 53
f 53 64 54
f 54 64 61
f 55 60 56
f 56 60 57
f 58 61 59
f 59 63 62
f 59 61 63
f 61 64 63

