# https://github.com/mikedh/trimesh
v 0.01696567 0.00205058 -0.02227764
v 0.01715025 0.00130199 -0.02227764
v 0.01775204 -0.00129818 -0.01618035
v 0.01778986 -0.00051181 -0.01617975
v 0.01793277 0.00046676 -0.01617975
v 0.01715986 0.00279004 -0.02227764
v 0.01762258 0.00000093 -0.02227764
v 0.01790714 -0.00131447 -0.01788286
v 0.02348738 -0.00131447 -0.01717428
v 0.02346046 -0.00103888 -0.01629616
v 0.02350789 0.00128245 -0.01617975
v 0.01983430 0.00534135 -0.01617975
v 0.01963114 0.00534135 -0.01720353
v 0.01943118 0.00534135 -0.01839863
v 0.01934786 0.00534135 -0.01946837
v 0.01759631 0.00331711 -0.02227764
v 0.01840447 -0.00124215 -0.02227764
v 0.02327589 -0.00131447 -0.02227764
v 0.02337330 -0.00130600 -0.02152547
v 0.02342778 -0.00129753 -0.02048080
v 0.02348161 -0.00128906 -0.01844698
v 0.02351238 -0.00076850 -0.01717428
v 0.02350597 -0.00051181 -0.01871143
v 0.02348866 0.00102640 -0.01947971
v 0.02348610 0.00153914 -0.01755872
v 0.02345598 0.00205058 -0.01642092
v 0.02334254 0.00307540 -0.01642092
v 0.02310477 0.00461557 -0.01617975
v 0.02296634 0.00534135 -0.01617975
v 0.01939080 0.00534135 -0.02056915
v 0.01960294 0.00534135 -0.02227764
v 0.02338356 0.00051106 -0.02203169
v 0.02337074 -0.00051702 -0.02203169
v 0.02324192 0.00256266 -0.02215466
v 0.02341560 -0.00051181 -0.02127356
v 0.02347456 -0.00103302 -0.01947971
v 0.02349379 0.00000093 -0.01947971
v 0.02346367 0.00076971 -0.02045752
v 0.02343611 0.00152741 -0.02046349
v 0.02344188 0.00179584 -0.01947971
v 0.02345534 0.00179584 -0.01871143
v 0.02339509 0.00256266 -0.01717428
v 0.02330665 0.00333209 -0.01717428
v 0.02323487 0.00384418 -0.01642092
v 0.02321949 0.00384418 -0.01794316
v 0.02309900 0.00449829 -0.01871143
v 0.02294647 0.00534135 -0.01793122
v 0.02284649 0.00534135 -0.02127356
v 0.02283559 0.00510224 -0.02202930
v 0.02335279 0.00153653 -0.02203169
v 0.02339830 0.00153914 -0.02127356
v 0.02301184 0.00422140 -0.02202930
v 0.02314002 0.00346565 -0.02201915
v 0.02330344 0.00256266 -0.02140190
v 0.02345213 -0.00001080 -0.02057393
v 0.02330473 0.00277180 -0.02069034
v 0.02332459 0.00307540 -0.01794316
v 0.02319642 0.00384418 -0.01947971
v 0.02306375 0.00461687 -0.01953046
v 0.02291827 0.00534135 -0.01948091
v 0.02288751 0.00534135 -0.02050468
v 0.02299582 0.00465661 -0.02127356
v 0.02318680 0.00358814 -0.02114581
v 0.02311695 0.00415039 -0.02055065
f 1 2 3
f 1 3 4
f 1 4 5
f 1 5 6
f 1 6 16
f 1 16 31
f 1 31 18
f 1 18 17
f 1 17 7
f 1 7 2
f 2 7 3
f 3 8 9
f 3 9 10
f 3 10 11
f 3 11 4
f 3 7 8
f 4 11 28
f 4 28 29
f 4 29 12
f 4 12 5
f 5 12 6
f 6 12 13
f 6 13 14
f 6 14 15
f 6 15 16
f 7 17 8
f 8 17 18
f 8 18 9
f 9 19 20
f 9 20 21
f 9 21 22
f 9 22 10
f 9 18 19
f 10 22 11
f 11 22 23
f 11 23 24
f 11 24 25
f 11 25 26
f 11 26 27
f 11 27 28
f 12 29 47
f 12 47 60
f 12 60 61
f 12 61 48
f 12 48 31
f 12 31 30
f 12 30 15
f 12 15 14
f 12 14 13
f 15 30 16
f 16 30 31
f 18 32 33
f 18 33 19
f 18 31 34
f 18 34 32
f 19 33 35
f 19 35 20
f 20 35 36
f 20 36 21
f 21 36 23
f 21 23 22
f 23 36 37
f 23 37 24
f 24 37 38
f 24 38 39
f 24 39 40
f 24 40 41
f 24 41 25
f 25 41 26
f 26 41 42
f 26 42 27
f 27 42 43
f 27 43 44
f 27 44 28
f 28 44 45
f 28 45 46
f 28 46 29
f 29 46 47
f 31 48 49
f 31 49 34
f 32 50 51
f 32 51 38
f 32 38 35
f 32 35 33
f 32 34 50
f 34 49 52
f 34 52 53
f 34 53 54
f 34 54 50
f 35 55 36
f 35 38 55
f 36 55 37
f 37 55 38
f 38 51 39
f 39 51 54
f 39 54 40
f 40 54 56
f 40 56 57
f 40 57 41
f 41 57 42
f 42 57 43
f 43 57 58
f 43 58 45
f 43 45 44
f 45 58 46
f 46 59 47
f 46 58 59
f 47 59 60
f 48 61 62
f 48 62 49
f 49 62 52
f 50 54 51
f 52 63 53
f 52 62 63
f 53 63 54
f 54 63 56
f 56 63 58
f 56 58 57
f 58 63 64
f 58 64 59
f 59 64 62
f 59 62 61
f 59 61 60
f 62 64 63

