# https://github.com/mikedh/trimesh
v 0.00244410 0.02140197 0.00657460
v 0.00202526 0.02389858 0.00657460
v -0.00381153 0.02120056 0.00657460
v -0.00195860 0.01894742 0.00020427
v 0.00244410 0.02111198 0.00396804
v 0.00244410 0.02111198 -0.02227626
v 0.00238347 0.02360166 -0.02204652
v 0.00237490 0.02362640 -0.02127221
v 0.00128066 0.02395302 0.00657460
v 0.00179379 0.02367738 -0.02152748
v -0.00379194 0.01894742 -0.00391121
v -0.00361865 0.01894742 -0.00324184
v -0.00303999 0.01894742 -0.00131032
v -0.00278954 0.01894742 -0.00077142
v -0.00251032 0.01894742 -0.00028925
v -0.00357150 0.02372142 0.00657460
v -0.00381153 0.02369074 0.00589389
v -0.00381153 0.01894742 -0.02240106
v -0.00187777 0.01896226 -0.02237553
v -0.00180307 0.02353733 -0.02240106
v 0.00192667 0.02362739 -0.02227626
v 0.00076813 0.02398667 0.00657460
v 0.00128066 0.02368678 -0.02177991
v 0.00076813 0.02372835 -0.02024263
v 0.00128066 0.02370509 -0.02075884
v 0.00128066 0.02371202 -0.02024263
v 0.00128066 0.02372390 -0.01921873
v -0.00209393 0.02389364 0.00657460
v -0.00333146 0.02374963 0.00486998
v -0.00381153 0.02369123 0.00536350
v -0.00381153 0.02337402 -0.02235000
v -0.00077373 0.02368678 -0.02202950
v 0.00076813 0.02367144 -0.02227626
v 0.00128066 0.02365659 -0.02227626
v 0.00025622 0.02399855 0.00589389
v 0.00021458 0.02400251 0.00648951
v -0.00053370 0.02398816 0.00653206
v -0.00128136 0.02395500 0.00657460
v 0.00025622 0.02369717 -0.02202950
v 0.00076813 0.02370905 -0.02127221
v 0.00025622 0.02374171 -0.02024263
v 0.00025622 0.02375458 -0.01947399
v 0.00076813 0.02374666 -0.01870536
v -0.00179388 0.02391491 0.00486715
v -0.00230641 0.02386394 0.00486998
v -0.00281894 0.02380654 0.00435661
v -0.00333146 0.02374567 0.00435661
v -0.00291752 0.02360216 -0.01943996
v -0.00381153 0.02347943 -0.01973493
v -0.00357150 0.02343984 -0.02178558
v -0.00128136 0.02366204 -0.02177991
v -0.00381153 0.02343440 -0.02127221
v -0.00230641 0.02364917 -0.01973493
v -0.00230641 0.02366649 -0.01896346
v -0.00076883 0.02374567 -0.01870536
v -0.00025631 0.02375903 -0.01921873
v -0.00026182 0.02370509 -0.02202950
v -0.00025631 0.02398717 0.00486715
v -0.00076883 0.02397232 0.00435378
v -0.00128136 0.02395203 0.00435378
v -0.00205474 0.02388572 0.00435661
v -0.00271606 0.02359820 -0.02024830
v -0.00381153 0.02346854 -0.02026249
v -0.00259176 0.02358385 -0.02082975
f 1 2 9
f 1 9 22
f 1 22 38
f 1 38 28
f 1 28 16
f 1 16 3
f 1 3 4
f 1 4 5
f 1 5 6
f 1 6 7
f 1 7 8
f 1 8 2
f 2 8 10
f 2 10 9
f 3 11 12
f 3 12 13
f 3 13 14
f 3 14 15
f 3 15 4
f 3 16 17
f 3 17 30
f 3 30 49
f 3 49 63
f 3 63 52
f 3 52 31
f 3 31 18
f 3 18 11
f 4 15 14
f 4 14 13
f 4 13 12
f 4 12 11
f 4 11 18
f 4 18 19
f 4 19 5
f 5 19 6
f 6 19 20
f 6 20 21
f 6 21 7
f 7 10 8
f 7 21 10
f 9 10 22
f 10 21 23
f 10 23 24
f 10 24 25
f 10 25 26
f 10 26 27
f 10 27 22
f 16 28 29
f 16 29 30
f 16 30 17
f 18 31 20
f 18 20 19
f 20 31 32
f 20 32 33
f 20 33 34
f 20 34 21
f 21 34 23
f 22 35 36
f 22 36 37
f 22 37 38
f 22 27 35
f 23 34 33
f 23 33 39
f 23 39 40
f 23 40 41
f 23 41 24
f 24 41 42
f 24 42 26
f 24 26 25
f 26 42 27
f 27 42 43
f 27 43 35
f 28 38 44
f 28 44 45
f 28 45 46
f 28 46 29
f 29 46 47
f 29 47 30
f 30 47 48
f 30 48 49
f 31 50 51
f 31 51 32
f 31 52 50
f 32 51 53
f 32 53 54
f 32 54 55
f 32 55 56
f 32 56 57
f 32 57 33
f 33 57 39
f 35 58 36
f 35 43 42
f 35 42 56
f 35 56 58
f 36 58 37
f 37 58 59
f 37 59 60
f 37 60 38
f 38 60 44
f 39 57 40
f 40 57 41
f 41 56 42
f 41 57 56
f 44 60 54
f 44 54 61
f 44 61 45
f 45 61 48
f 45 48 46
f 46 48 47
f 48 53 62
f 48 62 52
f 48 52 63
f 48 63 49
f 48 61 54
f 48 54 53
f 50 52 62
f 50 62 64
f 50 64 51
f 51 64 62
f 51 62 53
f 54 60 55
f 55 60 59
f 55 59 56
f 56 59 58

