# https://github.com/mikedh/trimesh
v 0.02133242 -0.00131447 0.00657460
v 0.02385708 -0.00117375 0.00622937
v 0.02387299 0.00000085 0.00657460
v 0.02076919 0.00534095 0.00657460
v 0.01876193 -0.00129753 -0.00043688
v 0.01816179 -0.00130600 -0.00256394
v 0.01770866 -0.00130600 -0.00514758
v 0.01771503 -0.00130991 -0.01589645
v 0.02341796 -0.00102847 -0.01617263
v 0.02380362 0.00000085 0.00153426
v 0.02353824 0.00076959 -0.01460908
v 0.02382272 0.00134744 0.00657460
v 0.02051080 0.00534095 0.00523600
v 0.01840490 0.00357547 -0.00381122
v 0.01805805 0.00175331 -0.00369540
v 0.01810642 0.00076959 -0.00282007
v 0.01832280 -0.00025583 -0.00179553
v 0.01837563 -0.00103303 -0.00157502
v 0.02347842 0.00418003 0.00657460
v 0.02329449 0.00521261 0.00619151
v 0.02322576 0.00534095 0.00281495
v 0.01818470 -0.00076854 -0.00230780
v 0.01787031 -0.00127994 -0.00400276
v 0.01763484 -0.00054378 -0.00557300
v 0.01756419 -0.00129753 -0.00653518
v 0.01778376 -0.00051186 -0.00423217
v 0.01754001 -0.00103303 -0.01435294
v 0.01778885 -0.00051186 -0.01617931
v 0.01743627 -0.00125584 -0.01316357
v 0.02349624 0.00153832 -0.01617931
v 0.02370753 0.00256243 0.00657460
v 0.02343069 0.00232204 -0.01616150
v 0.02367380 0.00256243 0.00358559
v 0.01940726 0.00534095 -0.00384685
v 0.01915587 0.00512988 -0.00461304
v 0.01848318 0.00418394 -0.00459967
v 0.01828080 0.00333312 -0.00435913
v 0.01787731 0.00145493 -0.00512308
v 0.01777167 0.00051356 -0.00461526
v 0.01790022 0.00046991 -0.00359071
v 0.02359806 0.00338394 0.00657460
v 0.02336513 0.00461261 0.00230490
v 0.02305074 0.00502629 -0.01486299
v 0.01983493 0.00534095 -0.01617709
v 0.01765647 0.00038522 -0.00582913
v 0.01749037 -0.00076854 -0.00717441
v 0.01738218 -0.00103694 -0.00922128
v 0.01764502 -0.00051186 -0.01499217
v 0.01755019 -0.00025583 -0.01358453
v 0.01793204 0.00046600 -0.01617931
v 0.01737200 -0.00093271 -0.01012333
v 0.01754256 0.00000085 -0.01281166
v 0.01989602 0.00333508 -0.01617931
v 0.02328940 0.00346863 -0.01617709
v 0.02356179 0.00333508 0.00281940
v 0.01788240 0.00121975 -0.01281166
v 0.01761129 0.00051356 -0.01204325
v 0.01757310 0.00064190 -0.00839051
v 0.01779076 0.00128164 -0.00614763
v 0.02305647 0.00488558 -0.01603677
v 0.01837690 0.00150054 -0.01617931
v 0.01794859 0.00100672 -0.01478503
v 0.01742355 -0.00039199 -0.00825464
v 0.01745855 0.00002691 -0.00922351
f 1 2 3
f 1 3 12
f 1 12 31
f 1 31 41
f 1 41 19
f 1 19 4
f 1 4 5
f 1 5 6
f 1 6 7
f 1 7 8
f 1 8 9
f 1 9 2
f 2 10 3
f 2 9 11
f 2 11 10
f 3 10 12
f 4 13 14
f 4 14 15
f 4 15 16
f 4 16 17
f 4 17 18
f 4 18 5
f 4 19 20
f 4 20 21
f 4 21 44
f 4 44 34
f 4 34 13
f 5 18 6
f 6 18 22
f 6 22 23
f 6 23 7
f 7 24 25
f 7 25 8
f 7 23 26
f 7 26 24
f 8 27 28
f 8 28 9
f 8 25 29
f 8 29 27
f 9 28 30
f 9 30 11
f 10 11 30
f 10 30 12
f 12 30 32
f 12 32 33
f 12 33 31
f 13 34 35
f 13 35 36
f 13 36 14
f 14 36 37
f 14 37 15
f 15 37 38
f 15 38 39
f 15 39 40
f 15 40 16
f 16 40 17
f 17 40 22
f 17 22 18
f 19 41 42
f 19 42 20
f 20 42 21
f 21 42 43
f 21 43 44
f 22 40 26
f 22 26 23
f 24 26 39
f 24 39 45
f 24 45 46
f 24 46 25
f 25 46 47
f 25 47 29
f 26 40 39
f 27 48 28
f 27 29 49
f 27 49 48
f 28 50 61
f 28 61 53
f 28 53 30
f 28 48 50
f 29 47 51
f 29 51 52
f 29 52 49
f 30 53 44
f 30 44 54
f 30 54 32
f 31 33 41
f 32 54 33
f 33 55 41
f 33 54 55
f 34 44 35
f 35 44 36
f 36 44 56
f 36 56 57
f 36 57 58
f 36 58 37
f 37 58 59
f 37 59 38
f 38 59 45
f 38 45 39
f 41 55 42
f 42 55 54
f 42 54 43
f 43 54 60
f 43 60 44
f 44 60 54
f 44 53 61
f 44 61 50
f 44 50 62
f 44 62 56
f 45 59 58
f 45 58 63
f 45 63 46
f 46 63 47
f 47 63 51
f 48 49 50
f 49 52 50
f 50 52 62
f 51 63 64
f 51 64 52
f 52 64 57
f 52 57 62
f 56 62 57
f 57 64 58
f 58 64 63

