# https://github.com/mikedh/trimesh
v 0.01212474 0.02063621 0.00391762
v 0.01347098 0.01976213 0.00391762
v 0.01390179 0.01948043 0.00153708
v 0.01202772 0.02067349 0.00112899
v 0.01178793 0.01632103 0.00375846
v 0.01692253 0.01304426 0.00391762
v 0.01617049 0.01768394 0.00391762
v 0.01496702 0.01870025 0.00389857
v 0.01460960 0.01896537 0.00204992
v 0.01446834 0.01881624 -0.00997927
v 0.01299040 0.01989883 -0.00997927
v 0.01200560 0.02051055 -0.00997927
v 0.01178793 0.01156675 -0.00060404
v 0.01178793 0.01478829 0.00261580
v 0.01690594 0.00885475 0.00201727
v 0.01692253 0.00975921 0.00264165
v 0.01692303 0.01585845 0.00391762
v 0.01691448 0.01693137 0.00388089
v 0.01640726 0.01743124 -0.00043400
v 0.01587590 0.01792697 0.00102425
v 0.01500774 0.01867263 0.00294636
v 0.01594528 0.01761766 -0.00997927
v 0.01198298 0.00922482 -0.00974665
v 0.01500472 0.00791853 -0.00997927
v 0.01179045 0.01242564 0.00050461
v 0.01178793 0.01325415 0.00131535
v 0.01192668 0.00955760 -0.00550930
v 0.01193020 0.00985311 -0.00398440
v 0.01203828 0.01038474 -0.00221464
v 0.01509018 0.00843221 -0.00056187
v 0.01495596 0.00909364 0.00020806
v 0.01178793 0.01404262 0.00202271
v 0.01659376 0.00844739 0.00124054
v 0.01671089 0.00763683 0.00011556
v 0.01683807 0.00706240 -0.00099581
v 0.01692253 0.00748770 -0.00823127
v 0.01691197 0.01687062 -0.00157122
v 0.01687326 0.01676843 -0.00743277
v 0.01669883 0.01687752 -0.00997927
v 0.01273703 0.00875809 -0.00972897
v 0.01320103 0.00844049 -0.00896992
v 0.01340864 0.00825131 -0.00743277
v 0.01287276 0.00865314 -0.00614048
v 0.01644999 0.00806904 -0.00996702
v 0.01673150 0.00659152 -0.00559092
v 0.01585228 0.00693398 -0.00629828
v 0.01376958 0.00820989 -0.00971401
v 0.01272296 0.00899974 -0.00463326
v 0.01313668 0.00898179 -0.00336818
v 0.01411243 0.00842806 -0.00248806
v 0.01501980 0.00806075 -0.00147736
v 0.01440299 0.00876361 -0.00112368
v 0.01597795 0.00740485 -0.00136853
v 0.01678479 0.00675999 -0.00203508
v 0.01432959 0.00767550 -0.00707909
v 0.01386409 0.00796133 -0.00602214
v 0.01445175 0.00761060 -0.00505632
v 0.01383644 0.00819884 -0.00408370
v 0.01666716 0.00656667 -0.00308388
v 0.01641329 0.00657772 -0.00438025
v 0.01538376 0.00705135 -0.00474073
v 0.01529729 0.00747251 -0.00254520
v 0.01575777 0.00709968 -0.00282134
v 0.01493183 0.00747389 -0.00362664
f 1 2 3
f 1 3 4
f 1 4 5
f 1 5 6
f 1 6 17
f 1 17 7
f 1 7 2
f 2 7 8
f 2 8 3
f 3 8 9
f 3 9 10
f 3 10 11
f 3 11 4
f 4 11 12
f 4 12 5
f 5 13 26
f 5 26 32
f 5 32 14
f 5 14 15
f 5 15 16
f 5 16 6
f 5 12 13
f 6 16 17
f 7 18 19
f 7 19 20
f 7 20 21
f 7 21 8
f 7 17 18
f 8 21 9
f 9 21 10
f 10 21 20
f 10 20 22
f 10 22 39
f 10 39 24
f 10 24 12
f 10 12 11
f 12 23 13
f 12 24 23
f 13 25 26
f 13 23 27
f 13 27 28
f 13 28 29
f 13 29 30
f 13 30 31
f 13 31 25
f 14 32 15
f 15 33 34
f 15 34 35
f 15 35 36
f 15 36 16
f 15 32 26
f 15 26 25
f 15 25 33
f 16 36 17
f 17 36 37
f 17 37 18
f 18 37 19
f 19 22 20
f 19 37 38
f 19 38 39
f 19 39 22
f 23 24 40
f 23 40 41
f 23 41 42
f 23 42 43
f 23 43 27
f 24 44 36
f 24 36 45
f 24 45 46
f 24 46 47
f 24 47 40
f 24 39 44
f 25 31 33
f 27 43 48
f 27 48 28
f 28 48 49
f 28 49 29
f 29 49 50
f 29 50 51
f 29 51 52
f 29 52 30
f 30 52 51
f 30 51 53
f 30 53 34
f 30 34 33
f 30 33 31
f 34 53 35
f 35 54 36
f 35 53 54
f 36 54 45
f 36 44 39
f 36 39 38
f 36 38 37
f 40 47 41
f 41 47 55
f 41 55 42
f 42 55 56
f 42 56 43
f 43 56 57
f 43 57 58
f 43 58 48
f 45 54 59
f 45 59 60
f 45 60 46
f 46 60 61
f 46 61 55
f 46 55 47
f 48 58 49
f 49 58 50
f 50 58 62
f 50 62 51
f 51 62 53
f 53 62 63
f 53 63 54
f 54 63 59
f 55 61 57
f 55 57 56
f 57 61 64
f 57 64 58
f 58 64 62
f 59 63 61
f 59 61 60
f 61 63 64
f 62 64 63

