# https://github.com/mikedh/trimesh
v 0.01717235 -0.00773342 -0.03056160
v 0.01618436 -0.00773342 -0.03018157
v 0.01552530 -0.00773342 -0.02531200
v 0.01834999 -0.00785727 -0.02532793
v 0.01796135 -0.00778014 -0.03015631
v 0.01534035 -0.01168366 -0.03073624
v 0.01540005 -0.01134252 -0.03076480
v 0.01409716 -0.01230400 -0.03092076
v 0.00639219 -0.01768506 -0.03046440
v 0.00643433 -0.01688110 -0.03016455
v 0.01567631 -0.00773342 -0.02920843
v 0.00639219 -0.01646066 -0.02951706
v 0.01489434 -0.01318835 -0.02531146
v 0.01787706 -0.00880789 -0.02531200
v 0.01560022 -0.00773342 -0.02845880
v 0.00639219 -0.01622273 -0.02531146
v 0.01165760 -0.01310144 -0.02531146
v 0.01800115 -0.00851565 -0.02935341
v 0.01832658 -0.00781382 -0.02925620
v 0.01649457 -0.01109916 -0.02987073
v 0.01495405 -0.01274727 -0.03036005
v 0.01421188 -0.01308731 -0.03074997
v 0.01224057 -0.01461591 -0.03077633
v 0.00948612 -0.01665839 -0.03052261
v 0.00772669 -0.01792733 -0.03028262
v 0.00662280 -0.01848032 -0.03014422
v 0.00666963 -0.01883232 -0.02922160
v 0.00669187 -0.01882472 -0.02531146
v 0.00639219 -0.01632160 -0.02873778
v 0.01426338 -0.01386193 -0.02531146
v 0.01485337 -0.01344909 -0.02870702
v 0.01544336 -0.01276573 -0.02845056
v 0.01538249 -0.01261255 -0.02531200
v 0.01585776 -0.01201067 -0.02531200
v 0.01635293 -0.01134143 -0.02531200
v 0.01704476 -0.01028108 -0.02531200
v 0.01677669 -0.01085472 -0.02896294
v 0.01592448 -0.01209432 -0.02947533
v 0.01498799 -0.01322312 -0.02950663
v 0.01436289 -0.01372287 -0.02992126
v 0.01271701 -0.01495162 -0.03024363
v 0.01153469 -0.01589029 -0.03022770
v 0.01078316 -0.01641503 -0.03025406
v 0.01020488 -0.01691152 -0.03006295
v 0.00856485 -0.01800012 -0.02967193
v 0.00753003 -0.01843034 -0.02966150
v 0.00867723 -0.01800555 -0.02896349
v 0.00772903 -0.01840318 -0.02531146
v 0.01262102 -0.01541661 -0.02531146
v 0.01544453 -0.01272228 -0.02926060
v 0.01276851 -0.01533838 -0.02845056
v 0.01263272 -0.01544051 -0.02921941
v 0.01593970 -0.01211714 -0.02896294
v 0.01593034 -0.01210519 -0.02819464
v 0.01632951 -0.01155763 -0.02870648
v 0.01213872 -0.01545028 -0.03019310
v 0.01173369 -0.01613039 -0.02927872
v 0.00969332 -0.01747320 -0.02920403
v 0.00877205 -0.01790343 -0.02531146
v 0.01204625 -0.01590006 -0.02531146
v 0.01138251 -0.01638244 -0.02531146
v 0.01055138 -0.01694194 -0.02896349
v 0.01062044 -0.01689631 -0.02561625
v 0.00979048 -0.01736565 -0.02531146
f 1 2 11
f 1 11 15
f 1 15 3
f 1 3 4
f 1 4 5
f 1 5 6
f 1 6 7
f 1 7 8
f 1 8 9
f 1 9 10
f 1 10 2
f 2 10 12
f 2 12 11
f 3 13 14
f 3 14 4
f 3 15 16
f 3 16 17
f 3 17 13
f 4 14 18
f 4 18 19
f 4 19 5
f 5 19 18
f 5 18 20
f 5 20 6
f 6 21 22
f 6 22 8
f 6 8 7
f 6 20 21
f 8 22 23
f 8 23 9
f 9 12 10
f 9 23 24
f 9 24 25
f 9 25 26
f 9 26 27
f 9 27 28
f 9 28 16
f 9 16 29
f 9 29 12
f 11 12 29
f 11 29 15
f 13 30 31
f 13 31 32
f 13 32 33
f 13 33 34
f 13 34 35
f 13 35 36
f 13 36 14
f 13 17 16
f 13 16 28
f 13 28 48
f 13 48 59
f 13 59 64
f 13 64 61
f 13 61 60
f 13 60 49
f 13 49 30
f 14 36 37
f 14 37 18
f 15 29 16
f 18 37 20
f 20 37 38
f 20 38 21
f 21 39 40
f 21 40 22
f 21 38 39
f 22 40 41
f 22 41 23
f 23 41 42
f 23 42 43
f 23 43 24
f 24 43 25
f 25 43 44
f 25 44 45
f 25 45 26
f 26 45 46
f 26 46 27
f 27 46 45
f 27 45 47
f 27 47 48
f 27 48 28
f 30 49 31
f 31 39 50
f 31 50 32
f 31 49 51
f 31 51 52
f 31 52 39
f 32 53 54
f 32 54 34
f 32 34 33
f 32 50 53
f 34 54 35
f 35 54 55
f 35 55 36
f 36 55 37
f 37 55 38
f 38 55 53
f 38 53 50
f 38 50 39
f 39 52 40
f 40 52 41
f 41 52 56
f 41 56 42
f 42 44 43
f 42 56 57
f 42 57 44
f 44 57 58
f 44 58 45
f 45 58 47
f 47 58 59
f 47 59 48
f 49 60 51
f 51 60 57
f 51 57 52
f 52 57 56
f 53 55 54
f 57 60 61
f 57 61 62
f 57 62 58
f 58 62 63
f 58 63 64
f 58 64 59
f 61 64 63
f 61 63 62

