# https://github.com/mikedh/trimesh
v -0.02022705 -0.00155466 -0.02615289
v -0.02019101 -0.00155466 -0.02922671
v -0.02013896 -0.00230697 -0.02896333
v -0.02015978 -0.00230697 -0.02614452
v -0.02012855 -0.00230697 -0.02531728
v -0.02019101 -0.00154107 -0.02531728
v -0.02004447 -0.00239308 -0.02966046
v -0.01852935 -0.00131447 -0.03040566
v -0.01998120 -0.00155466 -0.02998864
v -0.02000923 -0.00302302 -0.02918229
v -0.02003966 -0.00298903 -0.02640111
v -0.02003486 -0.00298337 -0.02588846
v -0.01982745 -0.00409483 -0.02560313
v -0.01941584 -0.00566177 -0.02533191
v -0.01917560 -0.00640841 -0.02531728
v -0.01771815 -0.00131447 -0.02531728
v -0.01935578 -0.00466133 -0.03014855
v -0.01952635 -0.00512813 -0.02925807
v -0.01979942 -0.00410163 -0.02909136
v -0.01922285 -0.00230697 -0.03054362
v -0.01942545 -0.00155466 -0.03047202
v -0.01794077 -0.00131447 -0.02966202
v -0.01231755 -0.01288913 -0.02977751
v -0.01297101 -0.01288913 -0.03039416
v -0.01397921 -0.01288913 -0.03055982
v -0.01768531 -0.00717658 -0.03065545
v -0.01960723 -0.00230697 -0.03037639
v -0.01966088 -0.00485734 -0.02561045
v -0.01932215 -0.00589743 -0.02870727
v -0.01893856 -0.00707234 -0.02561410
v -0.01850773 -0.00814076 -0.02533923
v -0.01747070 -0.01006231 -0.02531728
v -0.01204608 -0.01288913 -0.02531728
v -0.01773336 -0.00131447 -0.02716983
v -0.01942385 -0.00320543 -0.03038423
v -0.01894657 -0.00563117 -0.03029173
v -0.01900263 -0.00650471 -0.02970383
v -0.01926529 -0.00589743 -0.02947598
v -0.01777500 -0.00131447 -0.02870727
v -0.01209413 -0.01288913 -0.02875743
v -0.01545669 -0.01288913 -0.02691377
v -0.01554478 -0.01273165 -0.02947285
v -0.01500424 -0.01272598 -0.03038528
v -0.01522285 -0.01183318 -0.03057184
v -0.01702545 -0.00927602 -0.03049815
v -0.01813216 -0.00743150 -0.03040304
v -0.01857420 -0.00661348 -0.03033511
v -0.01906509 -0.00662368 -0.02870727
v -0.01861985 -0.00766263 -0.02925911
v -0.01827070 -0.00845686 -0.02947598
v -0.01788231 -0.00933493 -0.02918909
v -0.01800964 -0.00916838 -0.02561045
v -0.01763726 -0.00984591 -0.02614452
v -0.01625989 -0.01189210 -0.02531728
v -0.01561124 -0.01266253 -0.02531728
v -0.01769652 -0.00912419 -0.03005344
v -0.01564087 -0.01267840 -0.02754870
v -0.01564407 -0.01267840 -0.02831585
v -0.01597801 -0.01225692 -0.02896333
v -0.01687570 -0.01095851 -0.02914571
v -0.01753316 -0.00988783 -0.02930301
v -0.01690533 -0.01023793 -0.03023320
v -0.01784948 -0.00818494 -0.03035967
v -0.01656820 -0.01145136 -0.02870727
f 1 2 3
f 1 3 4
f 1 4 5
f 1 5 6
f 1 6 2
f 2 7 3
f 2 6 8
f 2 8 9
f 2 9 7
f 3 7 10
f 3 10 11
f 3 11 4
f 4 11 12
f 4 12 5
f 5 12 13
f 5 13 14
f 5 14 15
f 5 15 32
f 5 32 54
f 5 54 55
f 5 55 33
f 5 33 16
f 5 16 6
f 6 16 8
f 7 9 17
f 7 17 18
f 7 18 19
f 7 19 10
f 8 20 21
f 8 21 9
f 8 16 34
f 8 34 39
f 8 39 22
f 8 22 23
f 8 23 24
f 8 24 25
f 8 25 26
f 8 26 20
f 9 21 27
f 9 27 17
f 10 19 11
f 11 19 13
f 11 13 12
f 13 19 28
f 13 28 14
f 14 28 29
f 14 29 15
f 15 29 30
f 15 30 31
f 15 31 32
f 16 33 34
f 17 35 36
f 17 36 37
f 17 37 38
f 17 38 18
f 17 27 35
f 18 38 29
f 18 29 28
f 18 28 19
f 20 35 27
f 20 27 21
f 20 26 35
f 22 39 40
f 22 40 23
f 23 40 33
f 23 33 41
f 23 41 25
f 23 25 24
f 25 41 42
f 25 42 43
f 25 43 44
f 25 44 26
f 26 44 45
f 26 45 46
f 26 46 47
f 26 47 35
f 29 38 48
f 29 48 30
f 30 48 31
f 31 48 49
f 31 49 50
f 31 50 51
f 31 51 52
f 31 52 32
f 32 52 53
f 32 53 54
f 33 55 41
f 33 40 34
f 34 40 39
f 35 47 36
f 36 47 37
f 37 47 56
f 37 56 50
f 37 50 49
f 37 49 38
f 38 49 48
f 41 55 54
f 41 54 57
f 41 57 58
f 41 58 42
f 42 58 59
f 42 59 60
f 42 60 61
f 42 61 62
f 42 62 43
f 43 62 45
f 43 45 44
f 45 62 63
f 45 63 46
f 46 63 47
f 47 63 56
f 50 56 51
f 51 56 61
f 51 61 60
f 51 60 53
f 51 53 52
f 53 60 64
f 53 64 54
f 54 64 59
f 54 59 58
f 54 58 57
f 56 63 62
f 56 62 61
f 59 64 60

