# https://github.com/mikedh/trimesh
v 0.01960210 0.00534135 -0.02227760
v 0.01939041 0.00534135 -0.02056733
v 0.01692303 0.00761878 -0.01695375
v 0.01692303 0.00786772 -0.01853123
v 0.01692303 0.01053759 -0.02227883
v 0.01867172 0.00900915 -0.02227883
v 0.01867172 0.01416082 -0.02227883
v 0.02267431 0.00574683 -0.02215341
v 0.02285991 0.00535222 -0.02101610
v 0.02014882 0.00534135 -0.00971800
v 0.01936669 0.00534135 -0.01909313
v 0.01692303 0.00848192 -0.01050735
v 0.01718216 0.01613170 -0.02197882
v 0.01697521 0.01644695 -0.02011855
v 0.01877312 0.01426627 -0.02037675
v 0.01931866 0.01339008 -0.02167513
v 0.02060008 0.01125397 -0.02203169
v 0.02130987 0.00976794 -0.02203661
v 0.02196155 0.00821667 -0.02183743
v 0.02240332 0.00694588 -0.02184603
v 0.02246025 0.00704045 -0.02047266
v 0.02282789 0.00576422 -0.01960707
v 0.02285932 0.00575879 -0.01800500
v 0.02298088 0.00536309 -0.01461151
v 0.02296072 0.00561964 -0.00971800
v 0.01867172 0.00880043 -0.00971800
v 0.01719105 0.01634694 -0.01050858
v 0.01777869 0.01551533 -0.02043946
v 0.01738318 0.01601647 -0.01895419
v 0.01718453 0.01633716 -0.01263812
v 0.01750533 0.01597625 -0.01409880
v 0.01939634 0.01341183 -0.02037675
v 0.01827857 0.01496092 -0.01896649
v 0.01916448 0.01380535 -0.01933288
v 0.02018262 0.01209755 -0.02139603
v 0.02110352 0.01040714 -0.02082430
v 0.02164194 0.00919287 -0.02108004
v 0.02202678 0.00826885 -0.02045421
v 0.02248634 0.00720134 -0.01794106
v 0.02254801 0.00690239 -0.01922223
v 0.02261324 0.00701980 -0.01013235
v 0.02224796 0.00804818 -0.00971800
v 0.02048445 0.01194970 -0.00971800
v 0.01969283 0.01322920 -0.00975365
v 0.01874821 0.01453261 -0.01024792
v 0.01788543 0.01556968 -0.01050858
v 0.01817362 0.01511093 -0.01793983
v 0.01793761 0.01550011 -0.01179221
v 0.02019804 0.01223017 -0.01896526
v 0.02026742 0.01205298 -0.02005585
v 0.02107921 0.01073652 -0.01486725
v 0.02182280 0.00897219 -0.01819803
v 0.02183940 0.00883631 -0.01951117
v 0.02207125 0.00830907 -0.01832590
v 0.02232208 0.00769053 -0.01691564
v 0.02175105 0.00932549 -0.00971800
v 0.02190700 0.00883196 -0.01576480
v 0.02114087 0.01071696 -0.00971800
v 0.02088471 0.01121919 -0.01127950
v 0.02061075 0.01167902 -0.01320124
v 0.02093452 0.01110396 -0.01230492
v 0.02129327 0.01029952 -0.01396970
v 0.02161170 0.00956248 -0.01482176
v 0.02192598 0.00874499 -0.01704351
f 1 2 3
f 1 3 4
f 1 4 5
f 1 5 6
f 1 6 7
f 1 7 8
f 1 8 9
f 1 9 10
f 1 10 11
f 1 11 2
f 2 11 3
f 3 10 12
f 3 12 5
f 3 5 4
f 3 11 10
f 5 13 7
f 5 7 6
f 5 12 14
f 5 14 13
f 7 13 15
f 7 15 16
f 7 16 17
f 7 17 18
f 7 18 8
f 8 18 19
f 8 19 20
f 8 20 9
f 9 20 21
f 9 21 22
f 9 22 23
f 9 23 24
f 9 24 10
f 10 24 25
f 10 25 42
f 10 42 56
f 10 56 58
f 10 58 43
f 10 43 26
f 10 26 12
f 12 26 27
f 12 27 14
f 13 14 28
f 13 28 15
f 14 29 28
f 14 27 30
f 14 30 31
f 14 31 29
f 15 32 16
f 15 28 33
f 15 33 34
f 15 34 32
f 16 35 17
f 16 32 35
f 17 35 36
f 17 36 18
f 18 36 37
f 18 37 19
f 19 37 38
f 19 38 21
f 19 21 20
f 21 38 39
f 21 39 40
f 21 40 22
f 22 40 23
f 23 39 41
f 23 41 25
f 23 25 24
f 23 40 39
f 25 41 42
f 26 43 44
f 26 44 27
f 27 44 45
f 27 45 46
f 27 46 31
f 27 31 30
f 28 29 47
f 28 47 33
f 29 31 47
f 31 46 48
f 31 48 47
f 32 34 49
f 32 49 50
f 32 50 35
f 33 47 45
f 33 45 34
f 34 45 44
f 34 44 49
f 35 50 36
f 36 50 51
f 36 51 52
f 36 52 37
f 37 52 53
f 37 53 38
f 38 53 54
f 38 54 39
f 39 54 55
f 39 55 41
f 41 55 42
f 42 55 57
f 42 57 56
f 43 58 59
f 43 59 60
f 43 60 44
f 44 60 49
f 45 48 46
f 45 47 48
f 49 60 51
f 49 51 50
f 51 60 61
f 51 61 62
f 51 62 52
f 52 62 63
f 52 63 57
f 52 57 64
f 52 64 54
f 52 54 53
f 54 64 55
f 55 64 57
f 56 57 63
f 56 63 58
f 58 63 62
f 58 62 61
f 58 61 59
f 59 61 60

