# https://github.com/mikedh/trimesh
v 0.01080538 -0.02331570 0.03074776
v 0.01232434 -0.02339934 0.03075950
v 0.01266129 -0.02360869 0.02697189
v 0.00822897 -0.02331570 0.02834461
v 0.00822897 -0.02331570 0.03057825
v 0.00948805 -0.02341537 0.03070366
v 0.00403234 -0.02480221 0.03067090
v 0.00507993 -0.02511324 0.03075828
v 0.01234048 -0.02432641 0.03059686
v 0.01262276 -0.02581442 0.02822687
v 0.00589631 -0.02507567 0.03076192
v 0.01118893 -0.02406146 0.03076435
v 0.01222308 -0.02547635 0.02700790
v 0.01227326 -0.02462190 0.02667332
v 0.00350630 -0.02642495 0.02702206
v 0.00350630 -0.02445713 0.02833611
v 0.00350630 -0.02548837 0.03073117
v 0.00379307 -0.02658322 0.03069800
v 0.01239066 -0.02567719 0.02949157
v 0.01102046 -0.02486331 0.03061668
v 0.01227685 -0.02508368 0.03019512
v 0.01174992 -0.02619456 0.02868202
v 0.01102046 -0.02650709 0.02870710
v 0.01035552 -0.02669591 0.02759453
v 0.01155456 -0.02615900 0.02755650
v 0.01020586 -0.02460738 0.03074534
v 0.01153395 -0.02581242 0.02697189
v 0.01069964 -0.02588905 0.02680804
v 0.00811785 -0.02671344 0.02663124
v 0.00359144 -0.02755837 0.02666442
v 0.00361026 -0.02833769 0.02733843
v 0.00372586 -0.02835972 0.02932407
v 0.00395706 -0.02763199 0.03029262
v 0.00474298 -0.02665685 0.03065512
v 0.00666521 -0.02614448 0.03066442
v 0.01131798 -0.02603179 0.02964935
v 0.00872723 -0.02717722 0.02949197
v 0.00897008 -0.02588804 0.03050623
v 0.00897008 -0.02627470 0.03032458
v 0.00929359 -0.02667988 0.02989654
v 0.00919143 -0.02721178 0.02868445
v 0.01022737 -0.02681211 0.02868202
v 0.00845839 -0.02745820 0.02793922
v 0.00935005 -0.02700393 0.02748084
v 0.00770115 -0.02736554 0.02716973
v 0.00906418 -0.02648806 0.02672389
v 0.00671449 -0.02745720 0.02694681
v 0.00468473 -0.02777223 0.02676192
v 0.00401800 -0.02843235 0.02808892
v 0.00640891 -0.02798459 0.02793922
v 0.00542405 -0.02819094 0.02803956
v 0.00461483 -0.02835371 0.02857966
v 0.00497956 -0.02817191 0.02929899
v 0.00616516 -0.02776722 0.02969871
v 0.00512653 -0.02769410 0.03008669
v 0.00655139 -0.02704500 0.03033024
v 0.00790099 -0.02635283 0.03045121
v 0.00770921 -0.02715669 0.02993093
v 0.00615261 -0.02803868 0.02883535
v 0.00704427 -0.02782382 0.02875646
v 0.00813936 -0.02753683 0.02870872
v 0.00743410 -0.02679758 0.03032539
v 0.00692150 -0.02787190 0.02793922
f 1 2 3
f 1 3 4
f 1 4 5
f 1 5 6
f 1 6 7
f 1 7 8
f 1 8 2
f 2 9 10
f 2 10 3
f 2 8 11
f 2 11 12
f 2 12 9
f 3 10 13
f 3 13 14
f 3 14 15
f 3 15 16
f 3 16 4
f 4 16 5
f 5 16 7
f 5 7 6
f 7 16 17
f 7 17 8
f 8 17 18
f 8 18 11
f 9 19 10
f 9 12 20
f 9 20 21
f 9 21 19
f 10 19 22
f 10 22 23
f 10 23 24
f 10 24 25
f 10 25 13
f 11 18 26
f 11 26 12
f 12 26 20
f 13 25 27
f 13 27 14
f 14 27 28
f 14 28 29
f 14 29 30
f 14 30 15
f 15 30 31
f 15 31 17
f 15 17 16
f 17 31 32
f 17 32 18
f 18 32 33
f 18 33 34
f 18 34 35
f 18 35 26
f 19 21 36
f 19 36 37
f 19 37 23
f 19 23 22
f 20 26 35
f 20 35 38
f 20 38 39
f 20 39 21
f 21 39 40
f 21 40 36
f 23 37 41
f 23 41 42
f 23 42 43
f 23 43 24
f 24 43 44
f 24 44 27
f 24 27 25
f 27 44 45
f 27 45 46
f 27 46 28
f 28 46 29
f 29 45 47
f 29 47 48
f 29 48 30
f 29 46 45
f 30 48 31
f 31 49 32
f 31 48 47
f 31 47 45
f 31 45 50
f 31 50 51
f 31 51 49
f 32 49 52
f 32 52 53
f 32 53 54
f 32 54 55
f 32 55 33
f 33 55 56
f 33 56 34
f 34 56 35
f 35 56 57
f 35 57 38
f 36 40 37
f 37 40 58
f 37 58 54
f 37 54 59
f 37 59 60
f 37 60 61
f 37 61 41
f 38 57 62
f 38 62 39
f 39 62 40
f 40 62 58
f 41 61 43
f 41 43 42
f 43 61 63
f 43 63 45
f 43 45 44
f 45 63 50
f 49 51 52
f 50 63 59
f 50 59 51
f 51 59 52
f 52 59 53
f 53 59 54
f 54 58 55
f 55 58 56
f 56 58 62
f 56 62 57
f 59 63 60
f 60 63 61

