# https://github.com/mikedh/trimesh
v 0.00878684 -0.01981298 0.00657460
v 0.00878684 -0.01964114 0.00362235
v -0.01250006 -0.02043685 0.00638441
v -0.01138737 -0.02107050 0.00657176
v -0.00031677 -0.02175490 0.00657460
v 0.00307338 -0.02375053 0.00657460
v 0.00448403 -0.02354062 0.00656325
v 0.00713656 -0.02282985 0.00636170
v 0.00857014 -0.02232411 0.00605796
v 0.00862431 -0.02187646 -0.01794048
v 0.00878684 -0.01905290 -0.02242563
v 0.00878684 -0.01944636 -0.00233326
v 0.00878684 -0.01898358 -0.01896525
v -0.01218334 -0.02021181 -0.01614357
v -0.01130611 -0.02103583 0.00179138
v -0.00988087 -0.02179982 0.00635886
v -0.00831811 -0.02244322 0.00657176
v -0.00001672 -0.02397070 0.00657460
v 0.00166065 -0.02386867 0.00657460
v 0.00127933 -0.02389991 0.00512402
v 0.00204821 -0.02377152 -0.00038591
v 0.00313798 -0.02370953 0.00380970
v 0.00401937 -0.02362068 0.00525176
v 0.00521749 -0.02290991 -0.02024551
v 0.00589469 -0.02283620 -0.01563261
v 0.00574883 -0.02309981 -0.00128294
v 0.00685526 -0.02288452 0.00473796
v 0.00658855 -0.02254134 -0.02011776
v 0.00825341 -0.02197263 -0.01992473
v 0.00862014 -0.02169437 -0.02195157
v -0.00027718 -0.02105829 -0.02242563
v -0.01025802 -0.02102363 -0.02230925
v -0.01169576 -0.02035435 -0.02117376
v -0.01197914 -0.02029529 -0.01793480
v -0.01062058 -0.02101192 -0.01742667
v -0.00999547 -0.02132873 -0.01639906
v -0.00957457 -0.02144687 -0.01992473
v -0.00775135 -0.02221525 -0.01952164
v -0.00661782 -0.02299339 0.00637305
v -0.00457790 -0.02350157 0.00657176
v -0.00671576 -0.02256233 -0.01899648
v -0.00135027 -0.02394531 0.00657176
v -0.00026468 -0.02396142 0.00518931
v 0.00011455 -0.02357772 -0.02059467
v 0.00153562 -0.02351133 -0.02063157
v 0.00307338 -0.02334633 -0.01883751
v 0.00358805 -0.02323893 -0.02024551
v 0.00383393 -0.02309444 -0.02180963
v 0.00568840 -0.02268584 -0.02177557
v 0.00729284 -0.02222843 -0.02158822
v -0.00000005 -0.02347033 -0.02197428
v -0.00914741 -0.02155232 -0.02215596
v -0.00512799 -0.02287232 -0.02197996
v -0.01165200 -0.02043441 -0.01947905
v -0.00797847 -0.02206196 -0.02143209
v -0.00641154 -0.02257844 -0.02149738
v -0.00589270 -0.02282399 -0.01717119
v -0.00320267 -0.02334975 -0.01864164
v -0.00288386 -0.02379642 0.00654905
v -0.00563641 -0.02281374 -0.02050383
v -0.00166699 -0.02348399 -0.02040447
v -0.00153989 -0.02341956 -0.02191467
v 0.00229617 -0.02335658 -0.02164783
v -0.00390904 -0.02314765 -0.02135828
f 1 2 3
f 1 3 4
f 1 4 5
f 1 5 18
f 1 18 19
f 1 19 6
f 1 6 7
f 1 7 8
f 1 8 9
f 1 9 10
f 1 10 11
f 1 11 13
f 1 13 12
f 1 12 2
f 2 12 3
f 3 12 13
f 3 13 14
f 3 14 15
f 3 15 4
f 4 15 16
f 4 16 17
f 4 17 18
f 4 18 5
f 6 19 20
f 6 20 21
f 6 21 22
f 6 22 23
f 6 23 7
f 7 23 24
f 7 24 25
f 7 25 26
f 7 26 27
f 7 27 8
f 8 27 25
f 8 25 28
f 8 28 29
f 8 29 9
f 9 29 10
f 10 29 30
f 10 30 11
f 11 30 31
f 11 31 32
f 11 32 33
f 11 33 14
f 11 14 13
f 14 34 15
f 14 33 34
f 15 34 35
f 15 35 16
f 16 35 36
f 16 36 37
f 16 37 38
f 16 38 17
f 17 39 40
f 17 40 18
f 17 38 41
f 17 41 39
f 18 40 42
f 18 42 43
f 18 43 20
f 18 20 19
f 20 43 44
f 20 44 45
f 20 45 21
f 21 45 22
f 22 45 46
f 22 46 23
f 23 46 47
f 23 47 24
f 24 47 48
f 24 48 49
f 24 49 28
f 24 28 25
f 25 27 26
f 28 49 50
f 28 50 29
f 29 50 30
f 30 51 31
f 30 50 49
f 30 49 48
f 30 48 51
f 31 51 32
f 32 52 37
f 32 37 33
f 32 51 53
f 32 53 52
f 33 37 54
f 33 54 34
f 34 54 35
f 35 54 37
f 35 37 36
f 37 52 55
f 37 55 38
f 38 55 56
f 38 56 41
f 39 41 57
f 39 57 40
f 40 57 58
f 40 58 59
f 40 59 42
f 41 56 60
f 41 60 57
f 42 59 61
f 42 61 44
f 42 44 43
f 44 61 62
f 44 62 51
f 44 51 45
f 45 47 46
f 45 51 63
f 45 63 47
f 47 63 48
f 48 63 51
f 51 62 53
f 52 53 56
f 52 56 55
f 53 62 64
f 53 64 60
f 53 60 56
f 57 60 58
f 58 60 64
f 58 64 61
f 58 61 59
f 61 64 62

