# https://github.com/mikedh/trimesh
v 0.00350630 -0.02172871 0.02645445
v 0.00350630 -0.02165229 0.02383724
v -0.00783914 -0.02056421 0.02383724
v -0.00783914 -0.02063460 0.02558400
v -0.00783914 -0.02068810 0.02651300
v 0.00333083 -0.02409474 0.02651300
v 0.00341857 -0.02372306 0.00674830
v 0.00350630 -0.02135342 0.00657460
v 0.00350630 -0.02164062 0.02332395
v -0.00783914 -0.02034900 0.01538060
v -0.00783914 -0.02054972 0.02332395
v -0.00761703 -0.02320295 0.02651300
v -0.00783914 -0.02262291 0.00657460
v 0.00281776 -0.02415025 0.02651300
v 0.00281776 -0.02383207 0.00794663
v 0.00333195 -0.02375403 0.00743334
v 0.00281776 -0.02381960 0.00743334
v 0.00281776 -0.02378460 0.00674830
v 0.00215365 -0.02383770 0.00666243
v 0.00119079 -0.02390407 0.00657460
v -0.00783914 -0.02022752 0.00657460
v -0.00783914 -0.02025809 0.00948456
v -0.00783914 -0.02027258 0.01076682
v 0.00350630 -0.02149099 0.01512297
v -0.00691960 -0.02341615 0.02651300
v -0.00734938 -0.02278180 0.00657460
v -0.00669415 -0.02298212 0.00657460
v 0.00105197 -0.02431477 0.02651300
v 0.00204925 -0.02390126 0.00794663
v 0.00204925 -0.02388436 0.00743334
v 0.00033900 -0.02395596 0.00657460
v -0.00614110 -0.02362974 0.02651300
v -0.00605225 -0.02316031 0.00657460
v 0.00008357 -0.02433689 0.02651300
v -0.00025848 -0.02406940 0.01025352
v -0.00025848 -0.02405250 0.00948456
v -0.00025848 -0.02398050 0.00657460
v -0.00532595 -0.02382724 0.02651300
v -0.00529818 -0.02334897 0.00657460
v -0.00071381 -0.02433327 0.02651300
v -0.00025848 -0.02424558 0.02076139
v -0.00051613 -0.02409353 0.01170362
v -0.00076934 -0.02406336 0.00999785
v -0.00171220 -0.02392258 0.00657460
v -0.00100589 -0.02397165 0.00674830
v -0.00458410 -0.02396682 0.02651300
v -0.00466517 -0.02351268 0.00743334
v -0.00384336 -0.02364583 0.00657460
v -0.00460076 -0.02350826 0.00674830
v -0.00128352 -0.02432321 0.02651300
v -0.00076934 -0.02423271 0.02024810
v -0.00128352 -0.02414944 0.01640523
v -0.00128352 -0.02402796 0.00999785
v -0.00153895 -0.02400021 0.00948456
v -0.00230524 -0.02394832 0.00974218
v -0.00230524 -0.02393062 0.00897127
v -0.00252068 -0.02384937 0.00666243
v -0.00324810 -0.02374679 0.00657460
v -0.00372453 -0.02408750 0.02651300
v -0.00281942 -0.02386626 0.00897127
v -0.00202316 -0.02427374 0.02651300
v -0.00179438 -0.02399216 0.00999785
v -0.00299822 -0.02417358 0.02651300
v -0.00281942 -0.02391694 0.01153578
f 1 2 3
f 1 3 4
f 1 4 5
f 1 5 6
f 1 6 7
f 1 7 8
f 1 8 24
f 1 24 9
f 1 9 2
f 2 9 10
f 2 10 11
f 2 11 3
f 3 11 10
f 3 10 23
f 3 23 22
f 3 22 21
f 3 21 13
f 3 13 5
f 3 5 4
f 5 12 25
f 5 25 32
f 5 32 38
f 5 38 46
f 5 46 59
f 5 59 63
f 5 63 61
f 5 61 50
f 5 50 40
f 5 40 34
f 5 34 28
f 5 28 14
f 5 14 6
f 5 13 12
f 6 14 15
f 6 15 16
f 6 16 7
f 7 16 17
f 7 17 18
f 7 18 19
f 7 19 20
f 7 20 8
f 8 20 31
f 8 31 37
f 8 37 44
f 8 44 58
f 8 58 48
f 8 48 39
f 8 39 33
f 8 33 27
f 8 27 26
f 8 26 13
f 8 13 21
f 8 21 22
f 8 22 23
f 8 23 24
f 9 24 10
f 10 24 23
f 12 13 26
f 12 26 27
f 12 27 25
f 14 28 15
f 15 29 17
f 15 17 16
f 15 28 29
f 17 30 19
f 17 19 18
f 17 29 30
f 19 30 20
f 20 30 31
f 25 27 33
f 25 33 32
f 28 34 35
f 28 35 29
f 29 35 36
f 29 36 31
f 29 31 30
f 31 36 37
f 32 33 39
f 32 39 38
f 34 40 41
f 34 41 35
f 35 41 42
f 35 42 43
f 35 43 36
f 36 43 37
f 37 43 45
f 37 45 44
f 38 39 47
f 38 47 46
f 39 48 49
f 39 49 47
f 40 50 51
f 40 51 41
f 41 51 43
f 41 43 42
f 43 51 50
f 43 50 52
f 43 52 53
f 43 53 54
f 43 54 44
f 43 44 45
f 44 54 55
f 44 55 56
f 44 56 57
f 44 57 58
f 46 47 48
f 46 48 58
f 46 58 60
f 46 60 59
f 47 49 48
f 50 61 52
f 52 61 55
f 52 55 62
f 52 62 53
f 53 62 54
f 54 62 55
f 55 60 56
f 55 61 63
f 55 63 59
f 55 59 64
f 55 64 60
f 56 60 57
f 57 60 58
f 59 60 64

