# https://github.com/mikedh/trimesh
v -0.01134189 0.02117511 0.00657346
v -0.01154732 0.02101975 0.00025737
v -0.01232080 0.02062143 0.00563720
v -0.01256191 0.02048476 0.00648928
v -0.01327849 0.02003386 0.00657346
v -0.00881892 0.01965773 0.00657346
v -0.00917962 0.02214815 0.00654616
v -0.01026269 0.02169142 0.00618098
v -0.01038421 0.02162951 0.00307413
v -0.01218096 0.02055368 -0.00500301
v -0.01061471 0.02145429 -0.00358667
v -0.01125317 0.02110386 -0.00504852
v -0.01309717 0.01994742 -0.00504852
v -0.01390634 0.01939491 -0.00504852
v -0.01483991 0.01882487 0.00000140
v -0.01398638 0.01952223 0.00621170
v -0.01496915 0.01880267 0.00657346
v -0.00881892 0.01936453 0.00511048
v -0.00881796 0.01952573 0.00589316
v -0.00881892 0.02223810 -0.00230570
v -0.01867066 0.01114334 0.00657346
v -0.00911597 0.02211661 -0.00349680
v -0.01018360 0.02166923 -0.00307474
v -0.01022315 0.02160148 -0.00504852
v -0.01456215 0.01893116 -0.00504852
v -0.01536553 0.01844289 0.00076702
v -0.01551309 0.01838215 0.00657346
v -0.00881892 0.01925006 0.00409913
v -0.00881892 0.01919516 -0.00504852
v -0.00881892 0.02221941 -0.00425218
v -0.01759628 0.01643023 0.00655185
v -0.01842762 0.01550625 0.00622194
v -0.01862726 0.01527029 0.00520149
v -0.01867066 0.01519553 0.00333123
v -0.01867066 0.01051723 -0.00078015
v -0.00914490 0.02206989 -0.00502463
v -0.01544654 0.01825599 -0.00504852
v -0.01586993 0.01792308 -0.00384377
v -0.01588729 0.01793826 -0.00211913
v -0.01610140 0.01778524 0.00051333
v -0.01617084 0.01773384 0.00128123
v -0.01592587 0.01797214 0.00281816
v -0.01599145 0.01795345 0.00621170
v -0.01670610 0.01730047 0.00655185
v -0.01167752 0.01607629 -0.00504852
v -0.01727319 0.01676548 0.00589316
v -0.01759628 0.01643957 0.00461220
v -0.01795987 0.01604241 0.00512413
v -0.01837747 0.01555064 0.00256220
v -0.01867066 0.01514530 -0.00047071
v -0.01855493 0.01523174 -0.00500301
v -0.01867066 0.01036070 -0.00319419
v -0.01640037 0.01742546 -0.00504852
v -0.01615444 0.01771983 -0.00076763
v -0.01692213 0.01705984 0.00140864
v -0.01726740 0.01676548 0.00486816
v -0.01867066 0.01030580 -0.00461736
v -0.01750948 0.01648747 0.00102413
v -0.01783546 0.01617207 0.00345865
v -0.01794154 0.01602256 0.00051333
v -0.01784799 0.01605409 -0.00281877
v -0.01752587 0.01636949 -0.00358667
v -0.01692985 0.01692901 -0.00495865
f 1 2 3
f 1 3 4
f 1 4 5
f 1 5 17
f 1 17 27
f 1 27 21
f 1 21 6
f 1 6 7
f 1 7 8
f 1 8 9
f 1 9 2
f 2 10 3
f 2 9 11
f 2 11 12
f 2 12 10
f 3 10 4
f 4 10 5
f 5 13 14
f 5 14 15
f 5 15 16
f 5 16 17
f 5 10 13
f 6 18 19
f 6 19 20
f 6 20 7
f 6 21 18
f 7 20 22
f 7 22 9
f 7 9 8
f 9 23 11
f 9 22 23
f 10 12 13
f 11 24 12
f 11 23 24
f 12 24 29
f 12 29 45
f 12 45 53
f 12 53 37
f 12 37 25
f 12 25 14
f 12 14 13
f 14 25 15
f 15 17 16
f 15 25 26
f 15 26 17
f 17 26 27
f 18 28 19
f 18 21 28
f 19 28 29
f 19 29 30
f 19 30 20
f 20 30 22
f 21 31 32
f 21 32 33
f 21 33 34
f 21 34 50
f 21 50 57
f 21 57 52
f 21 52 35
f 21 35 28
f 21 27 31
f 22 30 36
f 22 36 23
f 23 36 24
f 24 36 29
f 25 37 26
f 26 37 38
f 26 38 39
f 26 39 40
f 26 40 41
f 26 41 42
f 26 42 27
f 27 42 43
f 27 43 44
f 27 44 31
f 28 35 45
f 28 45 29
f 29 36 30
f 31 44 46
f 31 46 47
f 31 47 48
f 31 48 32
f 32 48 49
f 32 49 33
f 33 49 34
f 34 49 51
f 34 51 50
f 35 52 45
f 37 53 38
f 38 53 39
f 39 53 54
f 39 54 40
f 40 54 41
f 41 43 42
f 41 54 55
f 41 55 43
f 43 55 44
f 44 55 56
f 44 56 46
f 45 52 57
f 45 57 51
f 45 51 53
f 46 56 47
f 47 56 58
f 47 58 59
f 47 59 48
f 48 59 49
f 49 59 60
f 49 60 51
f 50 51 57
f 51 60 61
f 51 61 62
f 51 62 63
f 51 63 53
f 53 63 55
f 53 55 54
f 55 63 58
f 55 58 56
f 58 63 62
f 58 62 61
f 58 61 60
f 58 60 59

