# https://github.com/mikedh/trimesh
v -0.00193057 0.02017562 -0.02572971
v -0.00180323 0.01768196 -0.02531921
v -0.00180323 0.01779499 -0.02933331
v -0.00205651 0.01901376 -0.03049752
v -0.00217826 0.02001360 -0.02969911
v -0.00243854 0.02012741 -0.02870702
v -0.00291292 0.02008710 -0.02546152
v -0.00180323 0.01767880 -0.02781511
v -0.00524706 0.01960655 -0.02531921
v -0.01313526 0.01210186 -0.02531921
v -0.01312547 0.01210186 -0.02833300
v -0.01326820 0.01210186 -0.02947563
v -0.01381675 0.01210186 -0.03018771
v -0.00640993 0.01819809 -0.03056739
v -0.00538420 0.01888177 -0.03040658
v -0.00336911 0.01952119 -0.03028225
v -0.01486488 0.01210186 -0.03049752
v -0.00528064 0.01951012 -0.02953882
v -0.00384210 0.01988239 -0.02927166
v -0.00360421 0.01998119 -0.02819479
v -0.00461455 0.01977727 -0.02845065
v -0.00546116 0.01956071 -0.02716982
v -0.00576062 0.01947772 -0.02614484
v -0.00679195 0.01914417 -0.02546152
v -0.00821091 0.01857826 -0.02531921
v -0.01521472 0.01341548 -0.02531921
v -0.01609911 0.01236031 -0.02546152
v -0.00999509 0.01687024 -0.03049238
v -0.00751263 0.01808743 -0.03040761
v -0.00658065 0.01886438 -0.03006235
v -0.01608372 0.01234372 -0.02919819
v -0.01560934 0.01248203 -0.03011270
v -0.01316185 0.01489191 -0.03032386
v -0.01075775 0.01637704 -0.03045796
v -0.00805838 0.01848183 -0.02974022
v -0.00659744 0.01917895 -0.02912215
v -0.00570045 0.01948799 -0.02806635
v -0.00825009 0.01855139 -0.02883495
v -0.00876645 0.01834352 -0.02614484
v -0.00918207 0.01809850 -0.02531921
v -0.01510976 0.01357750 -0.02640121
v -0.01536305 0.01331272 -0.02691344
v -0.01564432 0.01295626 -0.02614484
v -0.01349490 0.01517329 -0.02531921
v -0.00903653 0.01770331 -0.03023755
v -0.01193741 0.01620079 -0.03006338
v -0.01517693 0.01347238 -0.02929067
v -0.01430093 0.01443033 -0.02922953
v -0.01346272 0.01523968 -0.02924854
v -0.00917507 0.01806293 -0.02918843
v -0.01018681 0.01757684 -0.02875326
v -0.01014483 0.01762348 -0.02755463
v -0.00975580 0.01782819 -0.02627277
v -0.01055904 0.01738557 -0.02614484
v -0.01080533 0.01719509 -0.02531921
v -0.01435971 0.01436314 -0.02691344
v -0.01386293 0.01489033 -0.02781100
v -0.01236142 0.01609408 -0.02531921
v -0.01227326 0.01623082 -0.02665707
v -0.01292676 0.01573446 -0.02845065
v -0.01247756 0.01605694 -0.02915554
v -0.01120274 0.01695955 -0.02911239
v -0.01107820 0.01707337 -0.02678552
v -0.01168832 0.01668292 -0.02784286
f 1 2 3
f 1 3 4
f 1 4 5
f 1 5 6
f 1 6 7
f 1 7 2
f 2 8 3
f 2 7 9
f 2 9 25
f 2 25 40
f 2 40 55
f 2 55 58
f 2 58 44
f 2 44 26
f 2 26 10
f 2 10 11
f 2 11 8
f 3 8 12
f 3 12 13
f 3 13 4
f 4 14 15
f 4 15 16
f 4 16 5
f 4 13 17
f 4 17 14
f 5 16 18
f 5 18 19
f 5 19 6
f 6 19 20
f 6 20 7
f 7 20 9
f 8 11 12
f 9 20 21
f 9 21 22
f 9 22 23
f 9 23 24
f 9 24 25
f 10 26 27
f 10 27 17
f 10 17 13
f 10 13 12
f 10 12 11
f 14 28 29
f 14 29 15
f 14 17 28
f 15 29 30
f 15 30 16
f 16 30 18
f 17 27 31
f 17 31 32
f 17 32 33
f 17 33 34
f 17 34 28
f 18 21 19
f 18 30 35
f 18 35 36
f 18 36 21
f 19 21 20
f 21 36 37
f 21 37 22
f 22 37 23
f 23 37 24
f 24 37 36
f 24 36 38
f 24 38 25
f 25 38 39
f 25 39 40
f 26 41 42
f 26 42 43
f 26 43 27
f 26 44 41
f 27 43 31
f 28 45 29
f 28 34 33
f 28 33 46
f 28 46 45
f 29 45 30
f 30 45 35
f 31 43 42
f 31 42 47
f 31 47 32
f 32 47 48
f 32 48 33
f 33 48 49
f 33 49 46
f 35 45 46
f 35 46 50
f 35 50 38
f 35 38 36
f 38 50 51
f 38 51 52
f 38 52 39
f 39 52 53
f 39 53 40
f 40 53 54
f 40 54 55
f 41 44 56
f 41 56 57
f 41 57 42
f 42 57 48
f 42 48 47
f 44 57 56
f 44 58 59
f 44 59 60
f 44 60 57
f 46 49 61
f 46 61 62
f 46 62 50
f 48 57 49
f 49 57 60
f 49 60 61
f 50 62 51
f 51 62 52
f 52 62 63
f 52 63 54
f 52 54 53
f 54 63 55
f 55 63 59
f 55 59 58
f 59 63 64
f 59 64 60
f 60 64 61
f 61 64 62
f 62 64 63

