# https://github.com/mikedh/trimesh
v -0.02029441 0.00045035 -0.02870634
v -0.02021924 0.00051338 -0.02959453
v -0.02019817 -0.00083781 -0.02939286
v -0.02023470 -0.00129740 -0.02614522
v -0.02025156 -0.00051084 -0.02640123
v -0.02026561 0.00032167 -0.02704230
v -0.02023400 0.00153892 -0.02717082
v -0.02025437 0.00153892 -0.02883435
v -0.02013916 0.00161114 -0.02976224
v -0.01983991 0.00101368 -0.03033382
v -0.01970644 -0.00130528 -0.03023821
v -0.02019957 -0.00126851 -0.02532025
v -0.02021784 -0.00045569 -0.02532025
v -0.01852979 -0.00131447 -0.03040539
v -0.01771914 -0.00131447 -0.02532025
v -0.02021714 0.00052783 -0.02532025
v -0.02017288 0.00155337 -0.02532025
v -0.02017709 0.00230709 -0.02717082
v -0.02017007 0.00256315 -0.02845033
v -0.02009772 0.00246204 -0.02953131
v -0.01939524 0.00348889 -0.03047540
v -0.01946338 0.00192366 -0.03051616
v -0.01942264 0.00584199 -0.02531973
v -0.01794112 -0.00131447 -0.02966193
v -0.01871033 0.00410080 -0.03065722
v -0.01499564 0.01180220 -0.03050989
v -0.01381900 0.01210028 -0.03018753
v -0.01773389 -0.00131447 -0.02717082
v -0.01311863 0.01210028 -0.02793884
v -0.01313830 0.01210028 -0.02531973
v -0.01675604 0.00584199 -0.02531973
v -0.01989962 0.00400363 -0.02532025
v -0.02002466 0.00353354 -0.02882128
v -0.01978792 0.00448555 -0.02915514
v -0.01888595 0.00640663 -0.03014782
v -0.01862954 0.00640663 -0.03035890
v -0.01834012 0.00873346 -0.02531973
v -0.01881851 0.00770267 -0.02533384
v -0.01916553 0.00682157 -0.02575181
v -0.01953363 0.00556230 -0.02882128
v -0.01777533 -0.00131447 -0.02870634
v -0.01327036 0.01210028 -0.02947593
v -0.01313549 0.01210028 -0.02870530
v -0.01582878 0.01185341 -0.03027321
v -0.01643220 0.01186392 -0.02923560
v -0.01642728 0.01193220 -0.02613634
v -0.01653125 0.01177988 -0.02531973
v -0.01927301 0.00640663 -0.02896339
v -0.01900396 0.00706450 -0.02930300
v -0.01840967 0.00777883 -0.03007624
v -0.01667034 0.01095525 -0.03011961
v -0.01796008 0.00948981 -0.02531973
v -0.01782240 0.00975375 -0.02896339
v -0.01831203 0.00874003 -0.02921940
v -0.01868293 0.00794559 -0.02921940
v -0.01928355 0.00640663 -0.02845033
v -0.01695555 0.01107736 -0.02947593
v -0.01683051 0.01136625 -0.02870687
v -0.01690708 0.01126251 -0.02768284
v -0.01697170 0.01113383 -0.02531973
v -0.01751191 0.01004001 -0.02970947
v -0.01782451 0.00917860 -0.02991167
v -0.01750769 0.01028687 -0.02560395
v -0.01741005 0.01047596 -0.02896339
f 1 2 3
f 1 3 4
f 1 4 5
f 1 5 6
f 1 6 7
f 1 7 8
f 1 8 2
f 2 8 9
f 2 9 10
f 2 10 11
f 2 11 3
f 3 11 4
f 4 12 13
f 4 13 5
f 4 11 14
f 4 14 15
f 4 15 12
f 5 13 16
f 5 16 6
f 6 16 7
f 7 16 17
f 7 17 18
f 7 18 8
f 8 18 19
f 8 19 20
f 8 20 9
f 9 20 21
f 9 21 10
f 10 21 22
f 10 22 11
f 11 22 14
f 12 15 23
f 12 23 13
f 13 23 16
f 14 24 41
f 14 41 28
f 14 28 15
f 14 22 25
f 14 25 26
f 14 26 27
f 14 27 24
f 15 28 29
f 15 29 30
f 15 30 31
f 15 31 23
f 16 23 17
f 17 23 32
f 17 32 18
f 18 32 19
f 19 32 33
f 19 33 20
f 20 33 34
f 20 34 35
f 20 35 21
f 21 25 22
f 21 35 36
f 21 36 25
f 23 31 30
f 23 30 47
f 23 47 60
f 23 60 52
f 23 52 37
f 23 37 38
f 23 38 39
f 23 39 40
f 23 40 32
f 24 27 42
f 24 42 43
f 24 43 41
f 25 36 26
f 26 44 27
f 26 36 44
f 27 44 45
f 27 45 46
f 27 46 30
f 27 30 29
f 27 29 43
f 27 43 42
f 28 41 43
f 28 43 29
f 30 46 47
f 32 40 33
f 33 40 34
f 34 40 48
f 34 48 49
f 34 49 35
f 35 49 50
f 35 50 36
f 36 50 51
f 36 51 44
f 37 52 53
f 37 53 54
f 37 54 55
f 37 55 38
f 38 55 39
f 39 55 56
f 39 56 40
f 40 56 48
f 44 51 57
f 44 57 45
f 45 57 58
f 45 58 46
f 46 58 59
f 46 59 47
f 47 59 60
f 48 56 55
f 48 55 49
f 49 55 50
f 50 55 61
f 50 61 62
f 50 62 51
f 51 62 61
f 51 61 57
f 52 63 53
f 52 60 63
f 53 63 64
f 53 64 61
f 53 61 54
f 54 61 55
f 57 61 64
f 57 64 58
f 58 64 59
f 59 64 63
f 59 63 60

