# https://github.com/mikedh/trimesh
v 0.00896490 0.02727843 0.02793858
v 0.00884787 0.02658613 0.02698028
v 0.00885234 0.02724827 0.02931472
v 0.00976325 0.02709942 0.02845189
v 0.01031411 0.02681518 0.02781714
v 0.00970809 0.02651234 0.02708454
v 0.00872338 0.02574369 0.02706097
v 0.00872338 0.02669777 0.03015439
v 0.01060036 0.02605936 0.02700584
v 0.01153511 0.02537477 0.02689160
v 0.00974088 0.02588677 0.02689080
v 0.01036331 0.02640198 0.02978568
v 0.01134578 0.02622298 0.02941898
v 0.01075764 0.02669328 0.02872352
v 0.01176172 0.02625634 0.02816028
v 0.01380567 0.02511684 0.02763579
v 0.01229022 0.02562499 0.02717721
v 0.01194882 0.02569686 0.02711050
v 0.01266294 0.02115617 0.02840955
v 0.00872338 0.02330493 0.02857053
v 0.01633861 0.02163674 0.02705178
v 0.01633861 0.02092391 0.02742887
v 0.00872338 0.02370465 0.03091096
v 0.00880538 0.02562435 0.03078713
v 0.00957838 0.02605359 0.03043600
v 0.01051016 0.02580015 0.03036730
v 0.01293129 0.02509759 0.02702062
v 0.01102226 0.02537477 0.02687442
v 0.01401364 0.02411079 0.02691556
v 0.01499387 0.02306946 0.02689799
v 0.01128763 0.02544983 0.03037209
v 0.01275537 0.02524131 0.02986797
v 0.01268306 0.02566734 0.02922324
v 0.01384592 0.02519191 0.02871952
v 0.01284482 0.02573856 0.02815908
v 0.01481273 0.02465616 0.02828651
v 0.01564462 0.02414031 0.02810995
v 0.01529129 0.02403380 0.02725471
v 0.01425739 0.02072437 0.02853378
v 0.01267039 0.02115617 0.03078234
v 0.01629015 0.02248495 0.02695791
v 0.01633861 0.02366680 0.02867319
v 0.01624245 0.02113051 0.03084545
v 0.01537776 0.02074298 0.03092654
v 0.01076584 0.02332610 0.03095490
v 0.00999731 0.02383875 0.03095291
v 0.00999731 0.02434947 0.03092215
v 0.00950533 0.02504241 0.03085704
v 0.01443331 0.02074298 0.03090417
v 0.01149933 0.02467028 0.03073680
v 0.01482242 0.02391895 0.02698347
v 0.01232750 0.02439695 0.03067328
v 0.01504307 0.02350062 0.03028741
v 0.01416943 0.02423013 0.03009846
v 0.01530694 0.02411849 0.02940260
v 0.01599049 0.02351987 0.02728986
v 0.01581979 0.02352051 0.02976731
v 0.01597261 0.02260557 0.03043121
v 0.01518395 0.02238358 0.03078673
v 0.01486565 0.02204480 0.03087541
v 0.01460923 0.02153216 0.03092095
v 0.01320038 0.02354361 0.03080151
v 0.01221195 0.02417239 0.03078194
f 1 2 3
f 1 3 4
f 1 4 5
f 1 5 6
f 1 6 2
f 2 7 8
f 2 8 3
f 2 6 9
f 2 9 10
f 2 10 11
f 2 11 7
f 3 8 12
f 3 12 13
f 3 13 14
f 3 14 4
f 4 14 15
f 4 15 5
f 5 15 16
f 5 16 17
f 5 17 6
f 6 17 18
f 6 18 9
f 7 19 20
f 7 20 23
f 7 23 8
f 7 11 21
f 7 21 22
f 7 22 19
f 8 23 24
f 8 24 25
f 8 25 26
f 8 26 12
f 9 18 27
f 9 27 10
f 10 28 11
f 10 27 29
f 10 29 30
f 10 30 28
f 11 28 30
f 11 30 21
f 12 26 31
f 12 31 32
f 12 32 13
f 13 32 33
f 13 33 14
f 14 33 34
f 14 34 35
f 14 35 15
f 15 35 16
f 16 35 36
f 16 36 37
f 16 37 38
f 16 38 17
f 17 38 27
f 17 27 18
f 19 39 40
f 19 40 20
f 19 22 39
f 20 40 23
f 21 41 42
f 21 42 22
f 21 30 41
f 22 42 43
f 22 43 44
f 22 44 39
f 23 45 46
f 23 46 47
f 23 47 48
f 23 48 24
f 23 40 49
f 23 49 45
f 24 48 50
f 24 50 25
f 25 50 26
f 26 50 31
f 27 38 51
f 27 51 29
f 29 51 41
f 29 41 30
f 31 50 52
f 31 52 53
f 31 53 54
f 31 54 32
f 32 54 55
f 32 55 33
f 33 55 34
f 34 36 35
f 34 55 42
f 34 42 36
f 36 42 37
f 37 42 56
f 37 56 38
f 38 56 51
f 39 44 49
f 39 49 40
f 41 56 42
f 41 51 56
f 42 55 57
f 42 57 58
f 42 58 43
f 43 58 59
f 43 59 60
f 43 60 44
f 44 60 61
f 44 61 45
f 44 45 49
f 45 61 46
f 46 61 47
f 47 61 60
f 47 60 62
f 47 62 48
f 48 62 63
f 48 63 50
f 50 63 52
f 52 63 62
f 52 62 59
f 52 59 53
f 53 59 58
f 53 58 57
f 53 57 54
f 54 57 55
f 59 62 60

