# https://github.com/mikedh/trimesh
v 0.01644496 0.00807072 -0.00998047
v 0.01500271 0.00791861 -0.00998047
v 0.01692253 0.00760425 -0.01691575
v 0.01663247 0.01694510 -0.00998769
v 0.01453319 0.01876789 -0.00998529
v 0.01197846 0.00923563 -0.01002381
v 0.01390933 0.00819748 -0.01027180
v 0.01692253 0.00764862 -0.01793660
v 0.01692253 0.01650905 -0.01986394
v 0.01633185 0.01710228 -0.02063199
v 0.01580402 0.01774494 -0.01024772
v 0.01490669 0.01848522 -0.01102299
v 0.01438640 0.01887943 -0.01127941
v 0.01358358 0.01947647 -0.01102299
v 0.01306580 0.01984534 -0.01011891
v 0.01181408 0.00977689 -0.01394590
v 0.01196991 0.00946887 -0.01279503
v 0.01204029 0.00929648 -0.01169353
v 0.01281797 0.00874128 -0.01025856
v 0.01192065 0.02055392 -0.01113495
v 0.01301252 0.00868677 -0.01102299
v 0.01324326 0.00874001 -0.01280707
v 0.01390481 0.00859170 -0.01432751
v 0.01692253 0.00803523 -0.01887680
v 0.01443818 0.00869057 -0.01628374
v 0.01456285 0.00897831 -0.01735997
v 0.01659125 0.01676764 -0.02200195
v 0.01657064 0.01071491 -0.02227762
v 0.01584675 0.01744833 -0.02208020
v 0.01584071 0.01758269 -0.01986394
v 0.01566728 0.01785776 -0.01127941
v 0.01482274 0.01854479 -0.01191984
v 0.01547022 0.01801874 -0.01230507
v 0.01354236 0.01944731 -0.01640292
v 0.01279283 0.01997717 -0.01755619
v 0.01214988 0.02041195 -0.01204866
v 0.01179095 0.01031308 -0.01568543
v 0.01272095 0.00925085 -0.01423361
v 0.01279887 0.00907212 -0.01345714
v 0.01299291 0.00878184 -0.01191984
v 0.01202923 0.02043096 -0.01844101
v 0.01181860 0.02053871 -0.01946066
v 0.01385454 0.00975154 -0.01792095
v 0.01532293 0.01072505 -0.02107500
v 0.01208453 0.01051970 -0.01675564
v 0.01178693 0.01585117 -0.02227762
v 0.01215340 0.02019266 -0.02205491
v 0.01493887 0.01820888 -0.02203204
v 0.01544358 0.01786790 -0.02099073
v 0.01512235 0.01816578 -0.02024796
v 0.01541141 0.01796804 -0.01883827
v 0.01441958 0.01871211 -0.02012036
v 0.01401742 0.01910126 -0.01563608
v 0.01331062 0.01957914 -0.01845305
v 0.01336390 0.01950435 -0.01947871
v 0.01247010 0.02006209 -0.02088840
v 0.01186284 0.02048420 -0.02052364
v 0.01178693 0.01123082 -0.01756823
v 0.01178693 0.01173151 -0.01828210
v 0.01178693 0.01251615 -0.01910914
v 0.01268124 0.01989604 -0.02127242
v 0.01452514 0.01857902 -0.02127242
v 0.01478152 0.01838888 -0.02127242
v 0.01326889 0.01953351 -0.02028167
f 1 2 3
f 1 3 4
f 1 4 5
f 1 5 2
f 2 6 7
f 2 7 3
f 2 5 6
f 3 7 8
f 3 8 24
f 3 24 9
f 3 9 4
f 4 9 10
f 4 10 11
f 4 11 5
f 5 11 12
f 5 12 13
f 5 13 14
f 5 14 15
f 5 15 6
f 6 16 17
f 6 17 18
f 6 18 19
f 6 19 7
f 6 15 20
f 6 20 16
f 7 21 22
f 7 22 23
f 7 23 8
f 7 19 21
f 8 23 25
f 8 25 26
f 8 26 24
f 9 27 10
f 9 24 28
f 9 28 27
f 10 27 29
f 10 29 30
f 10 30 11
f 11 30 31
f 11 31 12
f 12 32 13
f 12 31 33
f 12 33 32
f 13 32 34
f 13 34 14
f 14 34 35
f 14 35 15
f 15 35 36
f 15 36 20
f 16 37 25
f 16 25 38
f 16 38 17
f 16 20 37
f 17 38 39
f 17 39 18
f 18 39 22
f 18 22 40
f 18 40 21
f 18 21 19
f 20 36 41
f 20 41 42
f 20 42 37
f 21 40 22
f 22 39 23
f 23 39 38
f 23 38 25
f 24 26 43
f 24 43 44
f 24 44 28
f 25 37 26
f 26 37 45
f 26 45 43
f 27 28 29
f 28 44 46
f 28 46 29
f 29 47 48
f 29 48 49
f 29 49 30
f 29 46 47
f 30 49 50
f 30 50 51
f 30 51 33
f 30 33 31
f 32 52 53
f 32 53 34
f 32 33 51
f 32 51 52
f 34 53 52
f 34 52 54
f 34 54 35
f 35 54 55
f 35 55 56
f 35 56 57
f 35 57 42
f 35 42 41
f 35 41 36
f 37 58 45
f 37 42 58
f 42 57 46
f 42 46 58
f 43 45 58
f 43 58 44
f 44 58 59
f 44 59 60
f 44 60 46
f 46 60 59
f 46 59 58
f 46 57 47
f 47 57 56
f 47 56 61
f 47 61 48
f 48 62 63
f 48 63 49
f 48 61 62
f 49 63 50
f 50 63 52
f 50 52 51
f 52 63 62
f 52 62 64
f 52 64 55
f 52 55 54
f 55 64 56
f 56 64 61
f 61 64 62

