# https://github.com/mikedh/trimesh
v 0.00244410 0.01477941 -0.01119392
v 0.00244410 0.01480544 -0.01022779
v -0.00180323 0.01542836 -0.01358615
v -0.00180073 0.01544448 -0.01435700
v 0.00244410 0.01495234 -0.01409234
v 0.00244410 0.01487610 -0.00920512
v -0.00180323 0.01550584 -0.01204187
v -0.00180323 0.01545626 -0.01281786
v -0.00180323 0.01553559 -0.01538224
v 0.00244410 0.01503292 -0.01482722
v 0.00244410 0.01499201 -0.00816189
v -0.00180323 0.01564902 -0.01076995
v -0.00180073 0.01565398 -0.01615053
v -0.00180323 0.01636553 -0.01832691
v 0.00244410 0.01529758 -0.01639977
v 0.00244410 0.01511721 -0.00743729
v -0.00179907 0.01580770 -0.00975756
v -0.00179865 0.01869854 -0.00026062
v -0.00179865 0.02111151 0.00295384
v -0.00180323 0.02111151 -0.02227883
v -0.00167143 0.01591121 -0.01722458
v -0.00180323 0.01692028 -0.01947291
v 0.00244410 0.01760270 -0.02227883
v -0.00050026 0.01591244 -0.01760744
v 0.00107336 0.01552568 -0.00717263
v 0.00079439 0.01545068 -0.00796404
v 0.00244410 0.01568435 -0.00508618
v 0.00234224 0.01533849 -0.00649171
v 0.00012836 0.01567753 -0.00769167
v -0.00080251 0.01592732 -0.00773021
v -0.00169846 0.01597753 -0.00877858
v -0.00177412 0.01683102 -0.00557696
v -0.00175708 0.01757543 -0.00333634
v -0.00081415 0.01695189 -0.00394788
v -0.00000053 0.01676098 -0.00372690
v 0.00066883 0.01685086 -0.00301258
v 0.00138518 0.01688247 -0.00248840
v 0.00232353 0.01688929 -0.00201560
v -0.00169846 0.01909771 0.00057447
v -0.00147561 0.01983902 0.00165881
v 0.00244410 0.02111151 0.00397137
v 0.00244410 0.02111151 -0.02227883
v -0.00180323 0.01970389 -0.02227883
v -0.00180156 0.01890866 -0.02224028
v 0.00057654 0.01595645 -0.00584676
v -0.00002630 0.01592360 -0.00671525
v 0.00244410 0.01589447 -0.00437956
v 0.00154399 0.01589385 -0.00513500
v -0.00076884 0.01615603 -0.00666643
v -0.00154213 0.01620066 -0.00756576
v -0.00156833 0.01641202 -0.00674352
v -0.00128146 0.01667916 -0.00538424
v -0.00166520 0.01704052 -0.00475471
v -0.00062249 0.01632710 -0.00579023
v 0.00008013 0.01626512 -0.00520181
v 0.00133820 0.01645293 -0.00358815
v 0.00065096 0.01629983 -0.00459540
v 0.00240959 0.01618455 -0.00358558
v 0.00244410 0.01652049 -0.00276333
v 0.00244410 0.01737832 -0.00104176
v 0.00244410 0.01784815 -0.00023750
v 0.00244410 0.01849276 0.00076975
v 0.00244410 0.01895019 0.00141727
v 0.00244410 0.01946216 0.00207250
f 1 2 3
f 1 3 4
f 1 4 5
f 1 5 10
f 1 10 15
f 1 15 23
f 1 23 42
f 1 42 41
f 1 41 64
f 1 64 63
f 1 63 62
f 1 62 61
f 1 61 60
f 1 60 59
f 1 59 47
f 1 47 27
f 1 27 16
f 1 16 11
f 1 11 6
f 1 6 2
f 2 6 7
f 2 7 8
f 2 8 3
f 3 9 4
f 3 8 7
f 3 7 12
f 3 12 20
f 3 20 43
f 3 43 22
f 3 22 14
f 3 14 9
f 4 9 5
f 5 9 10
f 6 11 7
f 7 11 12
f 9 13 10
f 9 14 13
f 10 13 15
f 11 16 17
f 11 17 12
f 12 17 18
f 12 18 19
f 12 19 20
f 13 21 15
f 13 14 21
f 14 22 23
f 14 23 24
f 14 24 21
f 15 21 24
f 15 24 23
f 16 25 26
f 16 26 17
f 16 27 28
f 16 28 25
f 17 26 29
f 17 29 30
f 17 30 31
f 17 31 32
f 17 32 18
f 18 33 34
f 18 34 35
f 18 35 36
f 18 36 37
f 18 37 38
f 18 38 39
f 18 39 19
f 18 32 33
f 19 39 40
f 19 40 41
f 19 41 42
f 19 42 20
f 20 42 23
f 20 23 43
f 22 43 44
f 22 44 23
f 23 44 43
f 25 29 26
f 25 28 45
f 25 45 46
f 25 46 29
f 27 47 48
f 27 48 28
f 28 48 45
f 29 46 30
f 30 46 49
f 30 49 31
f 31 49 50
f 31 50 51
f 31 51 32
f 32 52 53
f 32 53 33
f 32 51 52
f 33 53 34
f 34 53 52
f 34 52 54
f 34 54 55
f 34 55 35
f 35 56 36
f 35 55 57
f 35 57 47
f 35 47 56
f 36 58 37
f 36 56 58
f 37 58 59
f 37 59 38
f 38 59 60
f 38 60 39
f 39 61 62
f 39 62 63
f 39 63 40
f 39 60 61
f 40 64 41
f 40 63 64
f 45 48 55
f 45 55 54
f 45 54 49
f 45 49 46
f 47 57 48
f 47 59 58
f 47 58 56
f 48 57 55
f 49 54 51
f 49 51 50
f 51 54 52

