# https://github.com/mikedh/trimesh
v -0.02478470 -0.01462502 0.02892362
v -0.02473307 -0.01466548 0.02759971
v -0.02385067 -0.01628614 0.02790179
v -0.02327992 -0.01730947 0.02854643
v -0.02360003 -0.01618381 0.02962458
v -0.02414824 -0.01487966 0.02994586
v -0.02463075 -0.00539601 0.03077534
v -0.02463075 0.00003001 0.02814463
v -0.02440546 -0.00073391 0.02658414
v -0.02411257 -0.01452031 0.02678609
v -0.02281432 -0.01745941 0.02731140
v -0.02201828 -0.01878259 0.02811500
v -0.02226516 -0.01835660 0.02927660
v -0.02161275 -0.01774261 0.03032555
v -0.02244633 -0.01461788 0.03077367
v -0.02404498 -0.01064117 0.03084209
v -0.02265004 -0.01625045 0.03034182
v -0.02404498 -0.00935130 0.03084585
v -0.01530545 -0.02095300 0.03077283
v -0.02418016 0.00003001 0.03044822
v -0.02211684 0.00003001 0.02674895
v -0.01519655 -0.01616001 0.02658414
v -0.02424493 -0.00295192 0.02658414
v -0.02392671 -0.00501286 0.02658414
v -0.02353526 -0.00670492 0.02658581
v -0.02278615 -0.00896339 0.02658414
v -0.02159491 -0.01807816 0.02672559
v -0.02103355 -0.01950606 0.02720542
v -0.01968930 -0.02080783 0.02716119
v -0.01855719 -0.02203821 0.02818051
v -0.02128325 -0.01947037 0.02916687
v -0.01997185 -0.02056985 0.02942139
v -0.01997373 -0.01932996 0.03043570
v -0.01936450 -0.01886827 0.03074780
v -0.01706931 -0.02061031 0.03075531
v -0.01531202 -0.02248800 0.03061094
v -0.01519562 -0.01945133 0.03055086
v -0.02309593 0.00003001 0.02964628
v -0.02233650 0.00003001 0.02821639
v -0.01519655 -0.01631470 0.02768316
v -0.01519562 -0.01962982 0.02833405
v -0.01555890 -0.02310438 0.02666008
v -0.01536083 -0.01906579 0.02658414
v -0.02232618 -0.01008905 0.02658414
v -0.01768605 -0.02126952 0.02660208
v -0.01765789 -0.02176453 0.02662003
v -0.01717914 -0.02281166 0.02717037
v -0.01840043 -0.02216434 0.02907257
v -0.01592595 -0.02379929 0.02734227
v -0.01687124 -0.02342565 0.02867578
v -0.01599823 -0.02338520 0.02991540
v -0.01826150 -0.02111007 0.03034891
v -0.01912231 -0.02010816 0.03044405
v -0.01557017 -0.02428240 0.02863948
v -0.01676704 -0.02222146 0.03031303
v -0.01519655 -0.01688348 0.02886729
v -0.01519655 -0.01835422 0.03013821
v -0.01643098 -0.01814480 0.02658414
v -0.02139121 -0.01192866 0.02658414
v -0.02080356 -0.01294724 0.02658414
v -0.02000377 -0.01412763 0.02658414
v -0.01904345 -0.01546510 0.02658456
v -0.01778744 -0.01682637 0.02658414
f 1 2 3
f 1 3 4
f 1 4 5
f 1 5 6
f 1 6 7
f 1 7 8
f 1 8 2
f 2 8 9
f 2 9 10
f 2 10 11
f 2 11 3
f 3 11 4
f 4 11 12
f 4 12 13
f 4 13 5
f 5 13 14
f 5 14 6
f 6 15 16
f 6 16 7
f 6 14 17
f 6 17 15
f 7 16 18
f 7 18 19
f 7 19 20
f 7 20 8
f 8 20 38
f 8 38 39
f 8 39 21
f 8 21 9
f 9 21 22
f 9 22 43
f 9 43 58
f 9 58 63
f 9 63 61
f 9 61 60
f 9 60 59
f 9 59 44
f 9 44 26
f 9 26 24
f 9 24 23
f 9 23 10
f 10 23 24
f 10 24 25
f 10 25 26
f 10 26 27
f 10 27 11
f 11 27 28
f 11 28 12
f 12 28 29
f 12 29 30
f 12 30 31
f 12 31 13
f 13 31 32
f 13 32 33
f 13 33 14
f 14 33 34
f 14 34 15
f 14 15 17
f 15 34 16
f 16 34 35
f 16 35 19
f 16 19 18
f 19 35 36
f 19 36 37
f 19 37 20
f 20 37 38
f 21 39 40
f 21 40 22
f 22 37 41
f 22 41 42
f 22 42 43
f 22 40 37
f 24 26 25
f 26 44 27
f 27 45 46
f 27 46 29
f 27 29 28
f 27 44 45
f 29 46 47
f 29 47 30
f 30 48 31
f 30 47 49
f 30 49 50
f 30 50 48
f 31 48 32
f 32 48 51
f 32 51 52
f 32 52 33
f 33 52 53
f 33 53 34
f 34 53 52
f 34 52 36
f 34 36 35
f 36 54 42
f 36 42 41
f 36 41 37
f 36 52 55
f 36 55 51
f 36 51 54
f 37 40 56
f 37 56 57
f 37 57 38
f 38 57 39
f 39 57 56
f 39 56 40
f 42 54 49
f 42 49 47
f 42 47 46
f 42 46 45
f 42 45 43
f 43 45 58
f 44 59 45
f 45 59 60
f 45 60 61
f 45 61 62
f 45 62 63
f 45 63 58
f 48 50 51
f 49 54 50
f 50 54 51
f 51 55 52
f 61 63 62

