# https://github.com/mikedh/trimesh
v -0.00003522 0.02466979 0.02846815
v -0.00230807 0.02466979 0.03089029
v -0.00003522 0.02446172 0.03075718
v -0.00003522 0.02191434 0.02698145
v -0.00014662 0.02427444 0.02682704
v -0.00522936 0.02466979 0.02868235
v -0.00322087 0.02466979 0.03091076
v -0.01665681 0.01973671 0.03099800
v -0.01683970 0.01926213 0.03097097
v -0.01702093 0.01878755 0.03093001
v -0.00003522 0.02374944 0.03044960
v -0.01702093 0.01827936 0.03084237
v -0.01702093 0.01781918 0.03074612
v -0.01702093 0.01732700 0.03062366
v -0.01702093 0.01681480 0.03046598
v -0.00003522 0.02199597 0.02768630
v -0.01465996 0.01649388 0.02800739
v -0.01455853 0.01649388 0.02748398
v -0.01449868 0.01649468 0.02687046
v -0.01508560 0.01649388 0.02682704
v -0.00072688 0.02425604 0.02682704
v -0.01040023 0.02399594 0.02785832
v -0.00514623 0.02466979 0.03092919
v -0.00128387 0.02423523 0.02682704
v -0.00179597 0.02421042 0.02682704
v -0.00403724 0.02466979 0.03092141
v -0.00880906 0.02399594 0.03098940
v -0.01634755 0.02030493 0.03101110
v -0.01702093 0.01988957 0.03100087
v -0.00003522 0.02311080 0.02994789
v -0.01678816 0.01649388 0.03024031
v -0.01702093 0.01649388 0.02682704
v -0.00003522 0.02219365 0.02845177
v -0.01524355 0.01649388 0.02913532
v -0.01480959 0.01649388 0.02846446
v -0.00230807 0.02417360 0.02682704
v -0.00304463 0.02410638 0.02682704
v -0.00384603 0.02399514 0.02682704
v -0.00482866 0.02381667 0.02682704
v -0.00532413 0.02371903 0.02682745
v -0.00590773 0.02358378 0.02682786
v -0.00641151 0.02345733 0.02682786
v -0.00692028 0.02332208 0.02682786
v -0.00755542 0.02313961 0.02682786
v -0.00948244 0.02240173 0.02682786
v -0.01702093 0.02047139 0.02739469
v -0.01040023 0.02390310 0.03098653
v -0.00455100 0.02466979 0.03092592
v -0.01700264 0.02035215 0.03099472
v -0.00003522 0.02262582 0.02939007
v -0.01621454 0.01649388 0.02991062
v -0.01702093 0.01750706 0.02682704
v -0.00003522 0.02238412 0.02896290
v -0.01577227 0.01649388 0.02960509
v -0.01251845 0.02092277 0.02682704
v -0.00995463 0.02220646 0.02682786
v -0.01649553 0.01798885 0.02682704
v -0.01040023 0.02201198 0.02682786
v -0.01296903 0.02064986 0.02682704
v -0.01358422 0.02027052 0.02682704
v -0.01406140 0.01994879 0.02682704
v -0.01451697 0.01960546 0.02682704
v -0.01546302 0.01887959 0.02682704
v -0.01605493 0.01838420 0.02682704
f 1 2 3
f 1 3 11
f 1 11 30
f 1 30 50
f 1 50 53
f 1 53 33
f 1 33 16
f 1 16 4
f 1 4 5
f 1 5 6
f 1 6 23
f 1 23 48
f 1 48 26
f 1 26 7
f 1 7 2
f 2 7 8
f 2 8 9
f 2 9 10
f 2 10 3
f 3 10 12
f 3 12 13
f 3 13 14
f 3 14 15
f 3 15 11
f 4 16 17
f 4 17 18
f 4 18 19
f 4 19 20
f 4 20 5
f 5 21 6
f 5 20 32
f 5 32 52
f 5 52 57
f 5 57 64
f 5 64 63
f 5 63 62
f 5 62 61
f 5 61 60
f 5 60 59
f 5 59 55
f 5 55 39
f 5 39 38
f 5 38 37
f 5 37 36
f 5 36 25
f 5 25 24
f 5 24 21
f 6 22 23
f 6 21 24
f 6 24 25
f 6 25 22
f 7 26 27
f 7 27 28
f 7 28 8
f 8 28 29
f 8 29 9
f 9 29 10
f 10 29 46
f 10 46 52
f 10 52 32
f 10 32 15
f 10 15 14
f 10 14 13
f 10 13 12
f 11 15 31
f 11 31 30
f 15 32 31
f 16 33 34
f 16 34 35
f 16 35 17
f 17 35 34
f 17 34 54
f 17 54 51
f 17 51 31
f 17 31 32
f 17 32 20
f 17 20 18
f 18 20 19
f 22 25 36
f 22 36 37
f 22 37 38
f 22 38 39
f 22 39 40
f 22 40 41
f 22 41 42
f 22 42 43
f 22 43 44
f 22 44 45
f 22 45 46
f 22 46 47
f 22 47 23
f 23 47 27
f 23 27 48
f 26 48 27
f 27 47 28
f 28 49 29
f 28 47 49
f 29 49 46
f 30 31 50
f 31 51 50
f 33 53 34
f 34 53 54
f 39 44 43
f 39 43 40
f 39 55 44
f 40 43 42
f 40 42 41
f 44 55 45
f 45 56 46
f 45 55 56
f 46 57 52
f 46 49 47
f 46 56 58
f 46 58 55
f 46 55 59
f 46 59 60
f 46 60 61
f 46 61 62
f 46 62 63
f 46 63 64
f 46 64 57
f 50 51 54
f 50 54 53
f 55 58 56

