# https://github.com/mikedh/trimesh
v -0.01086509 -0.02231189 0.02834970
v -0.01515120 -0.02254863 0.02679534
v -0.01145313 -0.02231189 0.03067813
v 0.00350535 -0.02466781 0.02833182
v -0.01463804 -0.02402523 0.02686314
v -0.01474213 -0.02435832 0.02974185
v -0.01482066 -0.02305721 0.03051134
v -0.01309854 -0.02253459 0.03077629
v 0.00350535 -0.02680804 0.02682945
v -0.00179613 -0.02742510 0.02652706
v -0.00908088 -0.02646282 0.02661898
v 0.00350535 -0.02503408 0.03067938
v -0.01438237 -0.02498304 0.02799075
v -0.01322090 -0.02486945 0.02683236
v -0.01316611 -0.02559818 0.02776489
v -0.01370850 -0.02534867 0.02891871
v -0.01170149 -0.02608123 0.02951059
v -0.01324464 -0.02491540 0.03000930
v -0.01332682 -0.02387335 0.03055543
v -0.01135451 -0.02412094 0.03076382
v -0.00980406 -0.02467993 0.03076922
v 0.00332821 -0.02631031 0.03072971
v 0.00314011 -0.02855712 0.02886796
v 0.00303054 -0.02852457 0.02776656
v 0.00283878 -0.02797515 0.02673919
v 0.00179054 -0.02786093 0.02659985
v -0.00119531 -0.02823487 0.02671673
v -0.01095640 -0.02609144 0.02691388
v -0.00661915 -0.02773905 0.02709065
v -0.01210874 -0.02616099 0.02802402
v -0.00998120 -0.02697013 0.02762763
v -0.01094544 -0.02667276 0.02857972
v -0.00957944 -0.02714688 0.02888668
v -0.00819335 -0.02723111 0.02975308
v -0.01033001 -0.02626245 0.02996895
v -0.01172523 -0.02502579 0.03040611
v -0.00945343 -0.02568815 0.03050718
v -0.00674334 -0.02644559 0.03056957
v -0.00518375 -0.02639327 0.03071973
v -0.00275672 -0.02653174 0.03074385
v 0.00312367 -0.02784817 0.03011952
v -0.00089947 -0.02672509 0.03072638
v 0.00153487 -0.02670084 0.03071723
v 0.00066925 -0.02772374 0.03038323
v -0.00038630 -0.02883023 0.02901853
v 0.00151113 -0.02876195 0.02859095
v 0.00022183 -0.02882449 0.02785099
v 0.00115137 -0.02832739 0.02687187
v -0.00200067 -0.02875621 0.02778319
v -0.00535542 -0.02807406 0.02732400
v -0.00708666 -0.02788901 0.02872738
v -0.00858598 -0.02750040 0.02857972
v -0.00810021 -0.02647686 0.03038157
v -0.00634705 -0.02768609 0.02971814
v -0.00512714 -0.02740787 0.03023183
v -0.00410264 -0.02691269 0.03061158
v -0.00307631 -0.02750550 0.03039904
v -0.00162082 -0.02776585 0.03032209
v -0.00416290 -0.02779457 0.03005173
v -0.00530063 -0.02826295 0.02885715
v -0.00316214 -0.02864709 0.02865168
v -0.00436013 -0.02847225 0.02838755
f 1 2 3
f 1 3 4
f 1 4 2
f 2 5 6
f 2 6 7
f 2 7 8
f 2 8 3
f 2 4 9
f 2 9 10
f 2 10 11
f 2 11 5
f 3 8 12
f 3 12 4
f 4 12 9
f 5 13 6
f 5 11 14
f 5 14 15
f 5 15 13
f 6 13 16
f 6 16 17
f 6 17 18
f 6 18 7
f 7 18 19
f 7 19 20
f 7 20 8
f 8 20 21
f 8 21 22
f 8 22 12
f 9 12 23
f 9 23 24
f 9 24 25
f 9 25 26
f 9 26 10
f 10 26 27
f 10 27 11
f 11 28 14
f 11 27 29
f 11 29 28
f 12 22 23
f 13 15 30
f 13 30 16
f 14 28 15
f 15 28 31
f 15 31 30
f 16 30 32
f 16 32 17
f 17 32 33
f 17 33 34
f 17 34 35
f 17 35 18
f 18 35 36
f 18 36 19
f 19 36 20
f 20 36 37
f 20 37 21
f 21 37 38
f 21 38 39
f 21 39 40
f 21 40 22
f 22 41 23
f 22 40 42
f 22 42 43
f 22 43 44
f 22 44 41
f 23 41 45
f 23 45 46
f 23 46 24
f 24 46 47
f 24 47 48
f 24 48 25
f 25 48 26
f 26 48 27
f 27 49 50
f 27 50 29
f 27 48 47
f 27 47 49
f 28 29 31
f 29 50 51
f 29 51 52
f 29 52 31
f 30 31 32
f 31 52 32
f 32 52 33
f 33 52 51
f 33 51 34
f 34 53 35
f 34 51 54
f 34 54 55
f 34 55 53
f 35 53 36
f 36 53 37
f 37 53 38
f 38 53 55
f 38 55 56
f 38 56 39
f 39 56 40
f 40 56 42
f 41 44 45
f 42 44 43
f 42 56 44
f 44 56 57
f 44 57 58
f 44 58 45
f 45 47 46
f 45 58 59
f 45 59 54
f 45 54 60
f 45 60 61
f 45 61 49
f 45 49 47
f 49 61 62
f 49 62 50
f 50 62 51
f 51 62 60
f 51 60 54
f 54 59 55
f 55 59 57
f 55 57 56
f 57 59 58
f 60 62 61

