# https://github.com/mikedh/trimesh
v 0.01975564 -0.01408941 0.02626434
v 0.01669696 -0.01408941 0.02626434
v 0.01943116 -0.01454964 0.02626434
v 0.01931187 -0.01409817 0.00657653
v 0.01630090 -0.01408941 0.00657653
v 0.01662220 -0.01408941 0.02384190
v 0.00350630 -0.02148999 0.01512538
v 0.00350630 -0.02164470 0.02357788
v 0.00350630 -0.02172059 0.02626434
v 0.01899057 -0.01511397 0.02626434
v 0.01843546 -0.01535917 0.00871760
v 0.01895240 -0.01459439 0.00657653
v 0.01632476 -0.01408941 0.00897391
v 0.00350630 -0.02135183 0.00657653
v 0.01657608 -0.01408941 0.02182803
v 0.00367649 -0.02369090 0.00674997
v 0.00367649 -0.02402950 0.02626434
v 0.01850544 -0.01569874 0.02626434
v 0.01793920 -0.01589042 0.00732426
v 0.01792966 -0.01588263 0.00674997
v 0.01825413 -0.01549441 0.00657653
v 0.01797578 -0.01630686 0.02626434
v 0.01646314 -0.01408941 0.01615063
v 0.00436044 -0.02357998 0.00657653
v 0.00435885 -0.02390982 0.02626434
v 0.01693713 -0.01685757 0.00657653
v 0.01749702 -0.01630589 0.00657653
v 0.01741908 -0.01689941 0.02626434
v 0.01689419 -0.01742677 0.02626434
v 0.00487102 -0.02345641 0.00657653
v 0.00469605 -0.02351965 0.00743604
v 0.00557882 -0.02366463 0.02626434
v 0.00487102 -0.02381447 0.02626434
v 0.01645837 -0.01731780 0.00657653
v 0.01649018 -0.01781500 0.02626434
v 0.00670972 -0.02296407 0.00657653
v 0.00667314 -0.02306916 0.01120748
v 0.00692127 -0.02329197 0.02626434
v 0.00641070 -0.02341068 0.02485944
v 0.01568853 -0.01803100 0.00657653
v 0.01572034 -0.01849901 0.02626434
v 0.00743344 -0.02274029 0.00657653
v 0.00760045 -0.02308764 0.02626434
v 0.01516523 -0.01849026 0.00657653
v 0.01516841 -0.01895243 0.02626434
v 0.00845936 -0.02237347 0.00657653
v 0.00845936 -0.02278018 0.02626434
v 0.01461648 -0.01893199 0.00657653
v 0.01455445 -0.01943503 0.02626434
v 0.00918943 -0.02209616 0.00657653
v 0.00924670 -0.02246979 0.02626434
v 0.01328994 -0.01989331 0.00657653
v 0.01371781 -0.01961601 0.00683862
v 0.01392935 -0.01988163 0.02626434
v 0.01017241 -0.02165734 0.00657653
v 0.01023921 -0.02204654 0.02626434
v 0.01271733 -0.02068338 0.02626434
v 0.01270461 -0.02026791 0.00657653
v 0.01079433 -0.02134404 0.00657653
v 0.01094225 -0.02169335 0.02626434
v 0.01211292 -0.02105312 0.02626434
v 0.01217972 -0.02059192 0.00657653
v 0.01148146 -0.02098793 0.00657653
f 1 2 9
f 1 9 17
f 1 17 25
f 1 25 33
f 1 33 32
f 1 32 38
f 1 38 43
f 1 43 47
f 1 47 51
f 1 51 56
f 1 56 60
f 1 60 61
f 1 61 57
f 1 57 54
f 1 54 49
f 1 49 45
f 1 45 41
f 1 41 35
f 1 35 29
f 1 29 28
f 1 28 22
f 1 22 18
f 1 18 10
f 1 10 3
f 1 3 4
f 1 4 5
f 1 5 13
f 1 13 23
f 1 23 15
f 1 15 6
f 1 6 2
f 2 6 7
f 2 7 8
f 2 8 9
f 3 10 11
f 3 11 12
f 3 12 4
f 4 12 21
f 4 21 27
f 4 27 26
f 4 26 34
f 4 34 40
f 4 40 44
f 4 44 48
f 4 48 52
f 4 52 58
f 4 58 62
f 4 62 63
f 4 63 59
f 4 59 55
f 4 55 50
f 4 50 46
f 4 46 42
f 4 42 36
f 4 36 30
f 4 30 24
f 4 24 14
f 4 14 5
f 5 14 13
f 6 15 14
f 6 14 7
f 7 14 9
f 7 9 8
f 9 14 16
f 9 16 17
f 10 18 11
f 11 19 20
f 11 20 21
f 11 21 12
f 11 18 22
f 11 22 19
f 13 14 23
f 14 15 23
f 14 24 16
f 16 24 17
f 17 24 25
f 19 26 27
f 19 27 20
f 19 22 28
f 19 28 29
f 19 29 26
f 20 27 21
f 24 30 31
f 24 31 32
f 24 32 33
f 24 33 25
f 26 29 34
f 29 35 34
f 30 36 37
f 30 37 32
f 30 32 31
f 32 37 39
f 32 39 38
f 34 35 40
f 35 41 40
f 36 42 43
f 36 43 37
f 37 43 38
f 37 38 39
f 40 41 44
f 41 45 44
f 42 46 43
f 43 46 47
f 44 45 48
f 45 49 48
f 46 50 47
f 47 50 51
f 48 49 53
f 48 53 52
f 49 54 53
f 50 55 56
f 50 56 51
f 52 53 57
f 52 57 58
f 53 54 57
f 55 59 60
f 55 60 56
f 57 61 62
f 57 62 58
f 59 63 60
f 60 63 61
f 61 63 62

