# https://github.com/mikedh/trimesh
v 0.00872059 0.02452870 0.02785073
v 0.00389472 0.02397895 0.02681832
v 0.00332574 0.02406195 0.02681832
v 0.00230960 0.02416643 0.02681832
v 0.00179672 0.02420744 0.02681832
v 0.00077096 0.02426408 0.02681832
v 0.00011384 0.02427775 0.02681832
v -0.00003522 0.02452870 0.02831704
v 0.00858916 0.02452870 0.03095122
v 0.01260885 0.02330226 0.03088484
v 0.01266174 0.02330226 0.02746668
v 0.00435791 0.02388130 0.02681832
v -0.00003522 0.02191372 0.02697715
v 0.01626151 0.01807621 0.02681832
v 0.01633844 0.01455410 0.02686637
v -0.00003522 0.02442617 0.03074963
v 0.00589494 0.02452870 0.03096588
v 0.00640782 0.02452870 0.03097484
v 0.00743358 0.02443789 0.03097892
v 0.00794486 0.02443789 0.03097118
v 0.01102053 0.02330226 0.03095122
v 0.01153181 0.02330226 0.03093086
v 0.01266174 0.02281109 0.03091701
v 0.01624228 0.02072243 0.03089950
v 0.01633844 0.02072243 0.02755424
v 0.01519889 0.01900288 0.02681832
v 0.01467319 0.01940811 0.02681832
v 0.01386541 0.02000864 0.02681832
v 0.01215207 0.02106224 0.02681832
v 0.01129620 0.02151923 0.02681832
v 0.01020473 0.02205140 0.02681832
v 0.00948029 0.02236973 0.02681832
v 0.00898184 0.02257870 0.02681832
v 0.00845453 0.02278961 0.02681832
v 0.00779901 0.02302006 0.02681832
v 0.00745121 0.02312942 0.02681832
v 0.00696398 0.02327492 0.02681832
v 0.00640782 0.02342822 0.02681832
v 0.00594303 0.02353954 0.02681832
v -0.00003522 0.02199477 0.02768660
v 0.01633844 0.01467518 0.02747930
v -0.00003522 0.02392915 0.03054844
v 0.01633844 0.01702944 0.03032526
v 0.01633844 0.01769930 0.03056351
v 0.01633844 0.01816702 0.03070198
v 0.01633844 0.01859765 0.03078791
v 0.01633844 0.01922454 0.03088117
v 0.01624228 0.01973523 0.03092597
v 0.00640782 0.02434805 0.03096833
v 0.00691910 0.02443789 0.03097810
v 0.01563324 0.02024689 0.03093452
v 0.01624228 0.02024689 0.03092882
v -0.00003522 0.02219299 0.02845185
v 0.01633844 0.01482458 0.02793870
v -0.00003522 0.02356981 0.03035132
v 0.01633844 0.01643575 0.03000963
v -0.00003522 0.02238340 0.02896256
v 0.01633844 0.01499156 0.02836755
v -0.00003522 0.02324269 0.03007601
v 0.01633844 0.01597583 0.02968138
v -0.00003522 0.02262557 0.02939018
v 0.01633844 0.01534308 0.02901957
v -0.00003522 0.02297905 0.02981984
v 0.01633844 0.01568192 0.02942113
f 1 2 3
f 1 3 4
f 1 4 5
f 1 5 6
f 1 6 7
f 1 7 8
f 1 8 17
f 1 17 18
f 1 18 9
f 1 9 10
f 1 10 11
f 1 11 2
f 2 11 12
f 2 12 39
f 2 39 38
f 2 38 37
f 2 37 36
f 2 36 35
f 2 35 34
f 2 34 33
f 2 33 32
f 2 32 31
f 2 31 30
f 2 30 29
f 2 29 28
f 2 28 27
f 2 27 26
f 2 26 14
f 2 14 7
f 2 7 6
f 2 6 5
f 2 5 4
f 2 4 3
f 7 13 8
f 7 14 15
f 7 15 13
f 8 13 40
f 8 40 53
f 8 53 57
f 8 57 61
f 8 61 63
f 8 63 59
f 8 59 55
f 8 55 42
f 8 42 16
f 8 16 17
f 9 18 19
f 9 19 20
f 9 20 21
f 9 21 22
f 9 22 10
f 10 22 23
f 10 23 24
f 10 24 25
f 10 25 11
f 11 25 26
f 11 26 27
f 11 27 28
f 11 28 29
f 11 29 30
f 11 30 31
f 11 31 32
f 11 32 33
f 11 33 34
f 11 34 35
f 11 35 36
f 11 36 37
f 11 37 38
f 11 38 39
f 11 39 12
f 13 15 40
f 14 26 25
f 14 25 15
f 15 25 47
f 15 47 46
f 15 46 45
f 15 45 44
f 15 44 43
f 15 43 56
f 15 56 60
f 15 60 64
f 15 64 62
f 15 62 58
f 15 58 54
f 15 54 41
f 15 41 40
f 16 42 43
f 16 43 44
f 16 44 45
f 16 45 46
f 16 46 47
f 16 47 48
f 16 48 17
f 17 49 18
f 17 48 49
f 18 49 50
f 18 50 19
f 19 50 51
f 19 51 52
f 19 52 21
f 19 21 20
f 21 52 23
f 21 23 22
f 23 52 24
f 24 47 25
f 24 52 47
f 40 41 53
f 41 54 53
f 42 55 56
f 42 56 43
f 47 52 48
f 48 52 51
f 48 51 50
f 48 50 49
f 53 54 57
f 54 58 57
f 55 59 60
f 55 60 56
f 57 58 62
f 57 62 61
f 59 63 64
f 59 64 60
f 61 62 63
f 62 64 63

