# https://github.com/mikedh/trimesh
v 0.01633964 0.01475857 0.02764989
v 0.02105645 0.00598475 0.02709944
v 0.02123311 0.00598475 0.02822014
v 0.01633964 0.01558367 0.02928513
v 0.01633964 0.02250228 0.02696451
v 0.01655920 0.01779763 0.02670951
v 0.02343476 0.00621878 0.02670951
v 0.02388919 0.00598475 0.02836786
v 0.02177638 0.00598475 0.02930328
v 0.01633964 0.01721339 0.03036539
v 0.01633964 0.01886702 0.03082547
v 0.01634373 0.02343672 0.02749226
v 0.01760080 0.02175917 0.02694099
v 0.02304876 0.01577330 0.02689230
v 0.01754157 0.01682732 0.02670951
v 0.02303957 0.00755638 0.02670951
v 0.02521671 0.01214487 0.02690922
v 0.02573342 0.01099860 0.02696369
v 0.02677094 0.01020766 0.02852589
v 0.02346846 0.00627345 0.03056881
v 0.01650099 0.01999108 0.03092491
v 0.01662455 0.02275340 0.02996555
v 0.02384936 0.00974129 0.03087251
v 0.01666846 0.02339060 0.02879286
v 0.01850454 0.02215721 0.02833691
v 0.01940725 0.02135772 0.02816650
v 0.02021500 0.02052749 0.02784712
v 0.02160686 0.01869449 0.02753807
v 0.01841978 0.01584846 0.02670951
v 0.02428336 0.01459115 0.02715391
v 0.02124026 0.01177075 0.02670951
v 0.02052340 0.01299048 0.02670951
v 0.01964314 0.01429049 0.02670951
v 0.02247282 0.00912631 0.02670951
v 0.02467447 0.01357130 0.02705488
v 0.02599587 0.01225762 0.02827626
v 0.02189687 0.01042120 0.02670951
v 0.02612760 0.01156576 0.02925542
v 0.02583248 0.01045024 0.03023046
v 0.02471634 0.01036653 0.03076687
v 0.01807156 0.01896611 0.03091583
v 0.01661638 0.02108440 0.03080029
v 0.01732304 0.02183434 0.03031092
v 0.01848922 0.02155247 0.02975759
v 0.02383608 0.01204750 0.03081845
v 0.02229820 0.01410087 0.03085889
v 0.01954613 0.01736543 0.03090263
v 0.01985453 0.02031908 0.02976543
v 0.02120860 0.01943930 0.02876728
v 0.02387795 0.01598000 0.02822014
v 0.02498082 0.01424095 0.02826883
v 0.02420473 0.01525056 0.02916547
v 0.02487768 0.01362767 0.02969693
v 0.02540257 0.01201333 0.02996307
v 0.02446717 0.01257536 0.03052631
v 0.01953081 0.01895244 0.03071364
v 0.01785303 0.02003038 0.03080731
v 0.01878025 0.02042499 0.03042027
v 0.02325401 0.01312202 0.03079699
v 0.02105338 0.01780275 0.03050527
v 0.02234313 0.01761313 0.02960203
v 0.02330507 0.01609445 0.02973242
v 0.02374418 0.01442032 0.03037611
v 0.02183662 0.01655911 0.03055396
f 1 2 3
f 1 3 4
f 1 4 10
f 1 10 11
f 1 11 5
f 1 5 6
f 1 6 2
f 2 7 8
f 2 8 9
f 2 9 3
f 2 6 7
f 3 9 4
f 4 9 10
f 5 11 12
f 5 12 13
f 5 13 6
f 6 13 14
f 6 14 15
f 6 15 29
f 6 29 33
f 6 33 32
f 6 32 31
f 6 31 37
f 6 37 34
f 6 34 16
f 6 16 7
f 7 16 17
f 7 17 18
f 7 18 19
f 7 19 8
f 8 20 9
f 8 19 20
f 9 20 10
f 10 20 11
f 11 21 22
f 11 22 12
f 11 20 23
f 11 23 21
f 12 22 24
f 12 24 25
f 12 25 26
f 12 26 27
f 12 27 13
f 13 27 28
f 13 28 14
f 14 29 15
f 14 28 30
f 14 30 17
f 14 17 31
f 14 31 32
f 14 32 33
f 14 33 29
f 16 34 17
f 17 30 35
f 17 35 36
f 17 36 18
f 17 34 37
f 17 37 31
f 18 36 19
f 19 36 38
f 19 38 39
f 19 39 20
f 20 39 40
f 20 40 23
f 21 41 42
f 21 42 22
f 21 23 41
f 22 43 44
f 22 44 24
f 22 42 43
f 23 40 45
f 23 45 46
f 23 46 47
f 23 47 41
f 24 44 25
f 25 44 48
f 25 48 49
f 25 49 26
f 26 49 27
f 27 49 50
f 27 50 28
f 28 50 30
f 30 51 36
f 30 36 35
f 30 50 51
f 36 51 38
f 38 51 52
f 38 52 53
f 38 53 54
f 38 54 39
f 39 54 55
f 39 55 40
f 40 55 45
f 41 47 56
f 41 56 57
f 41 57 42
f 42 57 56
f 42 56 58
f 42 58 43
f 43 58 44
f 44 58 48
f 45 55 59
f 45 59 46
f 46 59 56
f 46 56 47
f 48 58 60
f 48 60 61
f 48 61 49
f 49 61 52
f 49 52 50
f 50 52 51
f 52 61 62
f 52 62 53
f 53 62 63
f 53 63 54
f 54 63 55
f 55 63 64
f 55 64 59
f 56 59 64
f 56 64 60
f 56 60 58
f 60 64 63
f 60 63 61
f 61 63 62

