# https://github.com/mikedh/trimesh
v 0.00000233 -0.00611743 0.00631519
v 0.00009165 -0.00461362 0.00758368
v 0.00005105 -0.00108096 0.00897368
v 0.00008759 -0.00713768 0.00535174
v 0.00015187 -0.00621792 0.00621662
v 0.00030546 -0.00521078 0.00705359
v 0.00133664 -0.00509572 0.00693518
v 0.00091645 -0.00413663 0.00777525
v 0.00016472 -0.00355186 0.00826132
v 0.00053889 -0.00232260 0.00863145
v 0.00113568 -0.00113630 0.00877777
v 0.00031426 -0.00030976 0.00897430
v 0.00673272 -0.00705175 0.00264055
v 0.00595663 -0.00736052 0.00295179
v 0.00082375 -0.00736708 0.00509941
v 0.00677399 -0.00030757 0.00612982
v 0.00187252 -0.00570670 0.00631643
v 0.00163841 -0.00671749 0.00549744
v 0.00335839 -0.00582686 0.00584463
v 0.00224061 -0.00427354 0.00732577
v 0.00122499 -0.00407109 0.00773310
v 0.00082375 -0.00320376 0.00826008
v 0.00152677 -0.00152737 0.00861099
v 0.00100103 -0.00303554 0.00827186
v 0.00248757 -0.00097682 0.00847274
v 0.00181975 -0.00009639 0.00868849
v 0.00363445 0.00006674 0.00808711
v 0.00577462 -0.00000609 0.00676406
v 0.00691473 -0.00626744 0.00320474
v 0.00274740 -0.00737290 0.00468960
v 0.00597828 -0.00700005 0.00324008
v 0.00530369 -0.00703063 0.00367283
v 0.00501409 -0.00722799 0.00369639
v 0.00396397 -0.00719886 0.00440193
v 0.00197808 -0.00726585 0.00494875
v 0.00234075 -0.00685586 0.00523828
v 0.00674693 -0.00357298 0.00530834
v 0.00618465 -0.00050930 0.00656195
v 0.00321427 -0.00674152 0.00513537
v 0.00351401 -0.00514960 0.00630589
v 0.00318179 -0.00430194 0.00704243
v 0.00315473 -0.00517145 0.00639641
v 0.00425018 -0.00669565 0.00466604
v 0.00212829 -0.00404269 0.00749874
v 0.00301399 -0.00359847 0.00742930
v 0.00189823 -0.00281052 0.00805921
v 0.00315946 -0.00285421 0.00763204
v 0.00351266 -0.00101469 0.00809083
v 0.00296460 -0.00013790 0.00838656
v 0.00492207 -0.00010804 0.00731585
v 0.00679362 -0.00477529 0.00450732
v 0.00664205 -0.00552683 0.00400452
v 0.00613052 -0.00496463 0.00481669
v 0.00363716 -0.00207937 0.00769590
v 0.00508987 -0.00392180 0.00620732
v 0.00591603 -0.00388830 0.00570761
v 0.00439498 -0.00601839 0.00512111
v 0.00427116 -0.00419707 0.00657063
v 0.00354920 -0.00362395 0.00723029
v 0.00514806 -0.00534841 0.00516265
v 0.00580371 -0.00449055 0.00540320
v 0.00510950 -0.00409366 0.00611866
v 0.00514536 -0.00513504 0.00532818
v 0.00481855 -0.00523699 0.00545466
f 1 2 3
f 1 3 4
f 1 4 5
f 1 5 2
f 2 5 6
f 2 6 7
f 2 7 8
f 2 8 9
f 2 9 3
f 3 10 11
f 3 11 12
f 3 12 4
f 3 9 10
f 4 13 14
f 4 14 15
f 4 15 5
f 4 12 16
f 4 16 13
f 5 15 6
f 6 17 7
f 6 15 18
f 6 18 17
f 7 17 19
f 7 19 20
f 7 20 8
f 8 20 21
f 8 21 9
f 9 21 22
f 9 22 10
f 10 23 11
f 10 22 24
f 10 24 23
f 11 25 26
f 11 26 12
f 11 23 25
f 12 26 27
f 12 27 28
f 12 28 16
f 13 16 29
f 13 29 14
f 14 30 15
f 14 29 31
f 14 31 32
f 14 32 33
f 14 33 34
f 14 34 30
f 15 30 35
f 15 35 36
f 15 36 18
f 16 37 29
f 16 28 38
f 16 38 37
f 17 18 36
f 17 36 39
f 17 39 19
f 19 40 41
f 19 41 42
f 19 42 20
f 19 39 34
f 19 34 43
f 19 43 40
f 20 41 44
f 20 44 21
f 20 42 41
f 21 44 22
f 22 44 45
f 22 45 24
f 23 24 46
f 23 46 47
f 23 47 25
f 24 45 46
f 25 48 49
f 25 49 26
f 25 47 48
f 26 49 27
f 27 49 48
f 27 48 38
f 27 38 50
f 27 50 28
f 28 50 38
f 29 51 52
f 29 52 31
f 29 37 51
f 30 34 39
f 30 39 36
f 30 36 35
f 31 52 53
f 31 53 43
f 31 43 32
f 32 43 33
f 33 43 34
f 37 38 48
f 37 48 54
f 37 54 55
f 37 55 56
f 37 56 51
f 40 43 57
f 40 57 58
f 40 58 41
f 41 58 59
f 41 59 45
f 41 45 44
f 43 53 60
f 43 60 57
f 45 59 47
f 45 47 46
f 47 59 48
f 48 59 54
f 51 61 53
f 51 53 52
f 51 56 61
f 53 61 60
f 54 59 55
f 55 58 62
f 55 62 56
f 55 59 58
f 56 62 61
f 57 60 63
f 57 63 64
f 57 64 58
f 58 64 61
f 58 61 62
f 60 61 63
f 61 64 63

