# https://github.com/mikedh/trimesh
v -0.00052347 0.00846217 0.00519922
v -0.00061623 0.01009081 0.00324623
v -0.00181328 0.00998512 0.00327334
v -0.00249955 0.00831283 0.00514569
v -0.00173055 0.00818483 0.00533549
v -0.00071275 0.00758748 0.00595080
v -0.00059993 0.00686940 0.00654525
v -0.00055794 0.01162395 -0.00044562
v -0.00229022 0.01016839 0.00291598
v -0.00071713 0.01097617 0.00167702
v -0.00091643 0.01061689 0.00230067
v -0.00305296 0.01021882 0.00273312
v -0.00326479 0.00993760 0.00315237
v -0.00351047 0.00887721 0.00434822
v -0.00347976 0.00849611 0.00479249
v -0.00307865 0.00800009 0.00536261
v -0.00226516 0.00793949 0.00549610
v -0.00169922 0.00769318 0.00576447
v -0.00107124 0.00712880 0.00631303
v -0.00140967 0.00667109 0.00665719
v -0.00692615 0.00679861 0.00423002
v -0.00671494 0.01007191 -0.00032743
v -0.00577171 0.01050537 -0.00038722
v -0.00438852 0.01101205 -0.00022801
v -0.00360260 0.01126079 -0.00009799
v -0.00180639 0.01099654 0.00145036
v -0.00183209 0.01050489 0.00238480
v -0.00274774 0.01082586 0.00170205
v -0.00173055 0.01077641 0.00191897
v -0.00347286 0.01045689 0.00223809
v -0.00366276 0.00956377 0.00345898
v -0.00396735 0.00992402 0.00282559
v -0.00386896 0.00875260 0.00427522
v -0.00369849 0.00917734 0.00388935
v -0.00423246 0.00761172 0.00527361
v -0.00365775 0.00773390 0.00545230
v -0.00315511 0.00743572 0.00582287
v -0.00223946 0.00728541 0.00605301
v -0.00317078 0.00667109 0.00645417
v -0.00518822 0.00667109 0.00557744
v -0.00669300 0.00669727 0.00469516
v -0.00689293 0.00751475 0.00364531
v -0.00692301 0.00874823 0.00224366
v -0.00689105 0.00924425 0.00167910
v -0.00652441 0.00997833 0.00042832
v -0.00631947 0.01017906 0.00001951
v -0.00591648 0.01018051 0.00063482
v -0.00529602 0.01038028 0.00082323
v -0.00496762 0.01079726 -0.00026972
v -0.00511176 0.01038707 0.00105128
v -0.00455147 0.01050925 0.00135859
v -0.00357690 0.01100332 0.00085243
v -0.00373672 0.01070271 0.00162348
v -0.00472570 0.00999869 0.00223462
v -0.00453956 0.01040161 0.00167076
v -0.00444743 0.00914194 0.00344021
v -0.00529351 0.00982026 0.00208931
v -0.00551851 0.00697510 0.00515612
v -0.00433587 0.00675352 0.00593203
v -0.00370914 0.00692370 0.00610098
v -0.00514999 0.01008694 0.00181398
v -0.00557429 0.01009324 0.00143924
v -0.00628814 0.00978244 0.00131131
v -0.00467556 0.01037349 0.00162418
f 1 2 3
f 1 3 4
f 1 4 5
f 1 5 6
f 1 6 7
f 1 7 8
f 1 8 2
f 2 9 3
f 2 8 10
f 2 10 11
f 2 11 9
f 3 9 12
f 3 12 13
f 3 13 4
f 4 13 14
f 4 14 15
f 4 15 16
f 4 16 5
f 5 16 17
f 5 17 18
f 5 18 6
f 6 18 19
f 6 19 7
f 7 19 20
f 7 20 21
f 7 21 8
f 8 22 23
f 8 23 24
f 8 24 25
f 8 25 26
f 8 26 10
f 8 21 22
f 9 11 27
f 9 27 12
f 10 28 29
f 10 29 11
f 10 26 28
f 11 29 27
f 12 27 28
f 12 28 30
f 12 30 13
f 13 31 14
f 13 30 32
f 13 32 31
f 14 33 15
f 14 31 34
f 14 34 33
f 15 33 35
f 15 35 36
f 15 36 16
f 16 36 37
f 16 37 38
f 16 38 19
f 16 19 17
f 17 19 18
f 19 38 20
f 20 38 39
f 20 39 40
f 20 40 41
f 20 41 21
f 21 41 42
f 21 42 43
f 21 43 22
f 22 44 45
f 22 45 46
f 22 46 23
f 22 43 44
f 23 46 47
f 23 47 48
f 23 48 49
f 23 49 24
f 24 49 48
f 24 48 50
f 24 50 51
f 24 51 25
f 25 51 52
f 25 52 26
f 26 52 28
f 27 29 28
f 28 52 53
f 28 53 30
f 30 54 32
f 30 53 55
f 30 55 54
f 31 56 34
f 31 32 57
f 31 57 56
f 32 54 57
f 33 41 58
f 33 58 35
f 33 34 56
f 33 56 43
f 33 43 41
f 35 40 59
f 35 59 60
f 35 60 36
f 35 58 40
f 36 60 39
f 36 39 37
f 37 39 38
f 39 60 59
f 39 59 40
f 40 58 41
f 41 43 42
f 43 56 57
f 43 57 44
f 44 57 61
f 44 61 62
f 44 62 63
f 44 63 45
f 45 63 62
f 45 62 47
f 45 47 46
f 47 62 48
f 48 62 50
f 50 62 51
f 51 62 64
f 51 64 53
f 51 53 52
f 53 64 55
f 54 55 61
f 54 61 57
f 55 64 61
f 61 64 62

