# https://github.com/mikedh/trimesh
v 0.01183915 -0.00181496 -0.00128840
v 0.01204600 -0.00153902 -0.00171488
v 0.01204410 -0.00096204 -0.00138113
v 0.01205108 -0.00039582 -0.00129049
v 0.01007007 -0.00640999 -0.00128840
v 0.01161325 -0.00290584 -0.00128840
v 0.01222621 -0.00092191 -0.00194629
v 0.01180679 -0.00287001 -0.00181973
v 0.01223129 -0.00020158 -0.00192499
v 0.01199461 0.00006863 -0.00146426
v 0.00934258 -0.00722707 -0.00134020
v 0.00977755 -0.00688877 -0.00138030
v 0.01067161 -0.00572837 -0.00163009
v 0.01090861 -0.00513204 -0.00141413
v 0.01143559 -0.00377525 -0.00129717
v 0.01160501 -0.00348999 -0.00161087
v 0.01201491 -0.00199057 -0.00198054
v 0.01180266 -0.00305349 -0.00203526
v 0.01224144 -0.00058432 -0.00231513
v 0.01154155 -0.00409277 -0.00202148
v 0.01207932 0.00009013 -0.00284937
v 0.01148159 0.00003566 -0.00553440
v 0.00900057 -0.00723209 -0.00553398
v 0.00940984 -0.00722492 -0.00452522
v 0.00987622 -0.00707942 -0.00204821
v 0.01119764 -0.00489480 -0.00203568
v 0.01041050 -0.00631251 -0.00206784
v 0.01130931 -0.00429489 -0.00140494
v 0.01141591 -0.00408560 -0.00304528
v 0.01120462 -0.00396877 -0.00449848
v 0.01120906 -0.00336671 -0.00522404
v 0.01201555 -0.00065815 -0.00372029
v 0.01204188 -0.00045029 -0.00351729
v 0.01142892 -0.00428987 -0.00248639
v 0.01180932 -0.00055350 -0.00492580
v 0.01166687 -0.00070975 -0.00547341
v 0.01138387 -0.00212890 -0.00555570
v 0.01050282 -0.00515856 -0.00551852
v 0.01018175 -0.00570758 -0.00550307
v 0.00950248 -0.00681351 -0.00539405
v 0.00934576 -0.00717977 -0.00503440
v 0.01007610 -0.00661641 -0.00306742
v 0.00965097 -0.00706294 -0.00376123
v 0.00992762 -0.00685508 -0.00295129
v 0.01013353 -0.00665511 -0.00254403
v 0.01051647 -0.00606165 -0.00261462
v 0.01071349 -0.00560007 -0.00297803
v 0.01101553 -0.00493780 -0.00315472
v 0.01121699 -0.00452711 -0.00315472
v 0.01121128 -0.00435653 -0.00366599
v 0.01101077 -0.00408918 -0.00535186
v 0.01119541 -0.00318036 -0.00550056
v 0.01139434 -0.00223784 -0.00549221
v 0.01099427 -0.00469124 -0.00410626
v 0.01080867 -0.00457872 -0.00543206
v 0.01063671 -0.00525604 -0.00459999
v 0.01038670 -0.00550618 -0.00512880
v 0.00997362 -0.00610681 -0.00530006
v 0.00979818 -0.00635480 -0.00539238
v 0.01049204 -0.00586885 -0.00338529
v 0.01021697 -0.00637343 -0.00315472
v 0.01101648 -0.00454145 -0.00437484
f 1 2 3
f 1 3 4
f 1 4 5
f 1 5 6
f 1 6 2
f 2 7 3
f 2 6 8
f 2 8 7
f 3 7 4
f 4 7 9
f 4 9 10
f 4 10 11
f 4 11 5
f 5 11 12
f 5 12 13
f 5 13 14
f 5 14 15
f 5 15 6
f 6 15 16
f 6 16 8
f 7 8 17
f 7 17 18
f 7 18 19
f 7 19 9
f 8 16 20
f 8 20 18
f 8 18 17
f 9 21 10
f 9 19 21
f 10 21 22
f 10 22 11
f 11 23 24
f 11 24 25
f 11 25 12
f 11 22 23
f 12 25 13
f 13 26 14
f 13 25 27
f 13 27 26
f 14 26 28
f 14 28 15
f 15 28 20
f 15 20 16
f 18 20 29
f 18 29 30
f 18 30 31
f 18 31 32
f 18 32 19
f 19 32 33
f 19 33 21
f 20 28 26
f 20 26 34
f 20 34 29
f 21 33 35
f 21 35 22
f 22 35 36
f 22 36 37
f 22 37 23
f 23 37 38
f 23 38 39
f 23 39 40
f 23 40 41
f 23 41 24
f 24 41 42
f 24 42 43
f 24 43 25
f 25 43 44
f 25 44 45
f 25 45 27
f 26 27 46
f 26 46 47
f 26 47 48
f 26 48 49
f 26 49 34
f 27 45 46
f 29 34 50
f 29 50 30
f 30 50 51
f 30 51 31
f 31 52 53
f 31 53 32
f 31 51 52
f 32 35 33
f 32 53 35
f 34 49 54
f 34 54 50
f 35 53 36
f 36 53 37
f 37 53 52
f 37 52 38
f 38 55 56
f 38 56 57
f 38 57 39
f 38 52 55
f 39 57 58
f 39 58 59
f 39 59 40
f 40 59 41
f 41 59 58
f 41 58 57
f 41 57 60
f 41 60 61
f 41 61 42
f 42 61 46
f 42 46 45
f 42 45 44
f 42 44 43
f 46 60 56
f 46 56 47
f 46 61 60
f 47 56 54
f 47 54 48
f 48 54 49
f 50 54 62
f 50 62 51
f 51 62 55
f 51 55 52
f 54 56 55
f 54 55 62
f 56 60 57

