# https://github.com/mikedh/trimesh
v -0.00234114 -0.00815387 -0.00901054
v -0.00054114 -0.00861034 -0.00899171
v -0.00152647 -0.00841874 -0.00900897
v -0.00198994 -0.00841921 -0.00892190
v -0.00350341 -0.00869769 -0.00825357
v -0.00469622 -0.00746589 -0.00878305
v -0.00052946 -0.01179057 -0.00112391
v -0.00011809 -0.00936031 -0.00843241
v -0.00899860 -0.00756779 -0.00132551
v -0.00193425 -0.00920816 -0.00818689
v -0.00223335 -0.00932228 -0.00799863
v -0.00335880 -0.00951623 -0.00747855
v -0.00360580 -0.01025024 -0.00662431
v -0.00639741 -0.00763354 -0.00773035
v -0.00566448 -0.00739592 -0.00830220
v -0.00924741 -0.00730340 -0.00356191
v -0.00800609 -0.00841545 -0.00099684
v -0.00377107 -0.01124770 -0.00112627
v -0.00270850 -0.01152195 -0.00117726
v -0.00162527 -0.01172107 -0.00125413
v -0.00044324 -0.01210052 -0.00202914
v -0.00009204 -0.01202115 -0.00407963
v -0.00031479 -0.01035966 -0.00743698
v -0.00101809 -0.00967308 -0.00794215
v -0.00926806 -0.00750862 -0.00263864
v -0.00886298 -0.00805009 -0.00203385
v -0.00857286 -0.00816608 -0.00157810
v -0.00165311 -0.01093352 -0.00650665
v -0.00312527 -0.01104764 -0.00595677
v -0.00550550 -0.01018167 -0.00550415
v -0.00711508 -0.00838962 -0.00645409
v -0.00781477 -0.00769036 -0.00642271
v -0.00876058 -0.00744523 -0.00537786
v -0.00893932 -0.00747199 -0.00453460
v -0.00829801 -0.00850468 -0.00173028
v -0.00710969 -0.00941385 -0.00134983
v -0.00363814 -0.01152806 -0.00209425
v -0.00477885 -0.01079452 -0.00127688
v -0.00550999 -0.01066631 -0.00190442
v -0.00219742 -0.01181405 -0.00215700
v -0.00028156 -0.01207469 -0.00317990
v -0.00173755 -0.01181687 -0.00335561
v -0.00082946 -0.01184646 -0.00463187
v -0.00173844 -0.01161494 -0.00539276
v -0.00067946 -0.01147922 -0.00600697
v -0.00689502 -0.00943921 -0.00492446
v -0.00712316 -0.00956648 -0.00306615
v -0.00825669 -0.00861504 -0.00192481
v -0.00182198 -0.01150927 -0.00564299
v -0.00307856 -0.01140737 -0.00517155
v -0.00380520 -0.01122797 -0.00510096
v -0.00447436 -0.01083772 -0.00520607
v -0.00688154 -0.00964490 -0.00372272
v -0.00723274 -0.00882589 -0.00580929
v -0.00790819 -0.00823371 -0.00569712
v -0.00676208 -0.00989943 -0.00236566
v -0.00573095 -0.01039769 -0.00159065
v -0.00344054 -0.01144634 -0.00411650
v -0.00263395 -0.01164593 -0.00355485
v -0.00464862 -0.01112701 -0.00232330
v -0.00378185 -0.01143226 -0.00313989
v -0.00174204 -0.01163372 -0.00520607
v -0.00402526 -0.01122797 -0.00424672
v -0.00450490 -0.01100397 -0.00396903
f 1 2 3
f 1 3 4
f 1 4 5
f 1 5 6
f 1 6 2
f 2 7 8
f 2 8 3
f 2 6 9
f 2 9 7
f 3 8 4
f 4 10 5
f 4 8 10
f 5 10 11
f 5 11 12
f 5 12 13
f 5 13 14
f 5 14 6
f 6 14 15
f 6 15 16
f 6 16 9
f 7 17 18
f 7 18 19
f 7 19 20
f 7 20 21
f 7 21 22
f 7 22 8
f 7 9 17
f 8 22 23
f 8 23 24
f 8 24 10
f 9 16 25
f 9 25 26
f 9 26 27
f 9 27 17
f 10 24 23
f 10 23 11
f 11 23 28
f 11 28 12
f 12 29 13
f 12 28 29
f 13 29 30
f 13 30 31
f 13 31 14
f 14 31 32
f 14 32 15
f 15 32 33
f 15 33 16
f 16 33 34
f 16 34 25
f 17 27 35
f 17 35 36
f 17 36 18
f 18 37 19
f 18 36 38
f 18 38 39
f 18 39 37
f 19 37 40
f 19 40 21
f 19 21 20
f 21 41 22
f 21 40 41
f 22 41 42
f 22 42 43
f 22 43 44
f 22 44 45
f 22 45 23
f 23 45 28
f 25 34 26
f 26 35 27
f 26 34 46
f 26 46 47
f 26 47 48
f 26 48 35
f 28 45 29
f 29 45 49
f 29 49 50
f 29 50 51
f 29 51 30
f 30 51 52
f 30 52 53
f 30 53 46
f 30 46 54
f 30 54 31
f 31 54 55
f 31 55 32
f 32 55 33
f 33 55 34
f 34 55 46
f 35 48 36
f 36 48 56
f 36 56 39
f 36 39 57
f 36 57 38
f 37 58 59
f 37 59 40
f 37 39 60
f 37 60 61
f 37 61 58
f 38 57 39
f 39 56 60
f 40 59 42
f 40 42 41
f 42 59 43
f 43 59 62
f 43 62 44
f 44 62 50
f 44 50 49
f 44 49 45
f 46 53 47
f 46 55 54
f 47 53 56
f 47 56 48
f 50 58 51
f 50 62 59
f 50 59 58
f 51 61 63
f 51 63 64
f 51 64 52
f 51 58 61
f 52 64 53
f 53 64 56
f 56 64 60
f 60 64 63
f 60 63 61

