# https://github.com/mikedh/trimesh
v -0.00461580 -0.00712262 -0.00893584
v -0.00556438 -0.00724605 -0.00844149
v -0.00538974 -0.00640554 -0.00899400
v -0.00558602 -0.00599171 -0.00900893
v -0.00833998 -0.00045561 -0.00887061
v -0.01200296 -0.00022158 -0.00098072
v -0.00909974 -0.00724605 -0.00116384
v -0.00700032 -0.00699918 -0.00775067
v -0.00696076 -0.00595389 -0.00837155
v -0.00892062 -0.00721395 -0.00531588
v -0.00756006 -0.00334816 -0.00899478
v -0.00665103 -0.00515690 -0.00892877
v -0.00781008 -0.00234141 -0.00900893
v -0.00787501 -0.00223937 -0.00898693
v -0.00895644 -0.00045703 -0.00834640
v -0.01042522 0.00004313 -0.00687122
v -0.01223955 -0.00037213 -0.00192855
v -0.01162009 -0.00326254 -0.00197806
v -0.01115662 -0.00424790 -0.00120392
v -0.01069838 -0.00512194 -0.00111354
v -0.01011848 -0.00643194 -0.00193405
v -0.00963113 -0.00711191 -0.00209516
v -0.00964157 -0.00422435 -0.00658829
v -0.00909675 -0.00420437 -0.00716358
v -0.00816683 -0.00412517 -0.00816642
v -0.00927587 -0.00654111 -0.00551707
v -0.00988264 -0.00551651 -0.00551236
v -0.00764365 -0.00410662 -0.00869771
v -0.00939976 -0.00703272 -0.00373617
v -0.00937066 -0.00673304 -0.00472486
v -0.00936095 -0.00651257 -0.00529230
v -0.00956620 -0.00163575 -0.00753061
v -0.00810861 -0.00234141 -0.00874329
v -0.00984607 -0.00050912 -0.00750703
v -0.00947067 -0.00033146 -0.00784183
v -0.01009236 -0.00030577 -0.00724689
v -0.01038865 -0.00104211 -0.00686022
v -0.01088347 -0.00029364 -0.00629121
v -0.01130738 -0.00036428 -0.00558859
v -0.01176637 -0.00040994 -0.00407412
v -0.01119692 -0.00165359 -0.00550371
v -0.01098870 -0.00264893 -0.00549428
v -0.01098944 -0.00407309 -0.00407647
v -0.01119842 -0.00408736 -0.00308385
v -0.01126260 -0.00427287 -0.00231129
v -0.01062598 -0.00561640 -0.00202128
v -0.01016774 -0.00634989 -0.00220283
v -0.00978935 -0.00674589 -0.00274826
v -0.01044612 -0.00368280 -0.00594776
v -0.00819593 -0.00396749 -0.00819629
v -0.01019908 -0.00514763 -0.00514769
v -0.01068270 -0.00443412 -0.00477673
v -0.01079689 -0.00380481 -0.00522785
v -0.00982219 -0.00659034 -0.00315537
v -0.01041626 -0.00535526 -0.00376525
v -0.01015430 -0.00617793 -0.00284336
v -0.00964531 -0.00178344 -0.00740565
v -0.01035805 -0.00201248 -0.00659300
v -0.01065957 -0.00220941 -0.00616939
v -0.01096332 -0.00178130 -0.00583930
v -0.01080212 -0.00290294 -0.00572377
v -0.01100064 -0.00410591 -0.00396880
v -0.01090586 -0.00441343 -0.00379747
v -0.00984308 -0.00343165 -0.00666452
f 1 2 3
f 1 3 4
f 1 4 5
f 1 5 6
f 1 6 7
f 1 7 2
f 2 8 9
f 2 9 3
f 2 7 10
f 2 10 8
f 3 11 4
f 3 9 12
f 3 12 11
f 4 13 5
f 4 11 13
f 5 13 14
f 5 14 15
f 5 15 16
f 5 16 6
f 6 17 18
f 6 18 19
f 6 19 20
f 6 20 7
f 6 16 17
f 7 20 21
f 7 21 22
f 7 22 10
f 8 23 24
f 8 24 25
f 8 25 9
f 8 10 26
f 8 26 27
f 8 27 23
f 9 28 12
f 9 25 28
f 10 22 29
f 10 29 30
f 10 30 31
f 10 31 26
f 11 14 13
f 11 12 28
f 11 28 32
f 11 32 33
f 11 33 14
f 14 33 32
f 14 32 34
f 14 34 15
f 15 34 35
f 15 35 16
f 16 35 36
f 16 36 37
f 16 37 38
f 16 38 39
f 16 39 40
f 16 40 17
f 17 40 41
f 17 41 18
f 18 41 42
f 18 42 43
f 18 43 44
f 18 44 45
f 18 45 19
f 19 45 46
f 19 46 20
f 20 46 21
f 21 46 47
f 21 47 22
f 22 47 48
f 22 48 29
f 23 49 50
f 23 50 25
f 23 25 24
f 23 27 49
f 25 50 28
f 26 31 27
f 27 31 51
f 27 51 52
f 27 52 53
f 27 53 49
f 28 50 32
f 29 48 54
f 29 54 30
f 30 55 51
f 30 51 31
f 30 54 56
f 30 56 55
f 32 57 37
f 32 37 34
f 32 50 57
f 34 37 36
f 34 36 35
f 37 57 58
f 37 58 59
f 37 59 60
f 37 60 38
f 38 60 41
f 38 41 39
f 39 41 40
f 41 60 61
f 41 61 42
f 42 53 43
f 42 61 53
f 43 53 52
f 43 52 62
f 43 62 44
f 44 62 63
f 44 63 45
f 45 63 46
f 46 56 47
f 46 63 55
f 46 55 56
f 47 56 54
f 47 54 48
f 49 61 59
f 49 59 58
f 49 58 64
f 49 64 50
f 49 53 61
f 50 64 58
f 50 58 57
f 51 55 52
f 52 55 63
f 52 63 62
f 59 61 60

