# https://github.com/mikedh/trimesh
v 0.00499658 -0.00706690 -0.00897988
v 0.00553658 -0.00665699 -0.00899026
v 0.00561001 -0.00715362 -0.00867137
v 0.00895920 -0.00723101 -0.00560258
v 0.01143503 0.00002205 -0.00574245
v 0.00859075 -0.00000805 -0.00893939
v 0.00857776 -0.00050969 -0.00899126
v 0.00565615 -0.00667060 -0.00892467
v 0.00802021 -0.00295198 -0.00900966
v 0.00637161 -0.00586511 -0.00899829
v 0.00691876 -0.00635744 -0.00844416
v 0.00674201 -0.00704469 -0.00814099
v 0.00710461 -0.00718802 -0.00784586
v 0.00934909 -0.00690064 -0.00559154
v 0.01163517 -0.00049393 -0.00560726
v 0.01122838 0.00009013 -0.00616206
v 0.00924382 0.00009013 -0.00837790
v 0.00915935 -0.00060572 -0.00854889
v 0.00872592 -0.00107082 -0.00883432
v 0.00820216 -0.00234070 -0.00900264
v 0.00620265 -0.00630369 -0.00884938
v 0.00808194 -0.00340060 -0.00886645
v 0.00790389 -0.00397391 -0.00887548
v 0.00724887 -0.00499654 -0.00897085
v 0.00689342 -0.00582068 -0.00876238
v 0.00711890 -0.00650721 -0.00823870
v 0.00971365 -0.00425984 -0.00699325
v 0.01041220 -0.00413730 -0.00635714
v 0.01060780 -0.00479589 -0.00567619
v 0.01100939 -0.00370517 -0.00565110
v 0.01135835 -0.00215580 -0.00559154
v 0.01156044 -0.00112027 -0.00560525
v 0.01119849 -0.00064657 -0.00631900
v 0.01130116 -0.00043158 -0.00614265
v 0.01091582 0.00004140 -0.00665797
v 0.01013993 -0.00009691 -0.00759289
v 0.00967661 -0.00034272 -0.00804998
v 0.01052267 -0.00096404 -0.00721812
v 0.01017112 -0.00106867 -0.00752630
v 0.01054867 -0.00021086 -0.00721477
v 0.00916779 -0.00227763 -0.00814936
v 0.00891566 -0.00396746 -0.00789907
v 0.00878245 -0.00413300 -0.00796766
v 0.00764006 -0.00459236 -0.00882964
v 0.00949920 -0.00213717 -0.00787263
v 0.00915740 -0.00427418 -0.00752965
v 0.01084954 -0.00423405 -0.00567452
v 0.01033488 -0.00359982 -0.00662116
v 0.01059026 -0.00308743 -0.00652244
v 0.01075531 -0.00365214 -0.00610417
v 0.01099899 -0.00301362 -0.00591980
v 0.01119459 -0.00266031 -0.00570330
v 0.01140578 -0.00158823 -0.00571467
v 0.01145062 -0.00112027 -0.00578494
v 0.01085408 -0.00080925 -0.00680821
v 0.01076181 -0.00138470 -0.00678144
v 0.01060910 -0.00223893 -0.00674965
v 0.01051228 -0.00241308 -0.00680018
v 0.01031408 -0.00142555 -0.00728738
v 0.00977668 -0.00166061 -0.00774179
v 0.00969675 -0.00356184 -0.00725693
v 0.01009704 -0.00295198 -0.00704713
v 0.01072997 -0.00274774 -0.00642641
v 0.01119524 -0.00205261 -0.00590675
f 1 2 3
f 1 3 4
f 1 4 5
f 1 5 6
f 1 6 7
f 1 7 2
f 2 8 3
f 2 7 9
f 2 9 10
f 2 10 8
f 3 8 11
f 3 11 12
f 3 12 13
f 3 13 4
f 4 13 14
f 4 14 15
f 4 15 5
f 5 15 16
f 5 16 17
f 5 17 6
f 6 17 18
f 6 18 7
f 7 18 19
f 7 19 20
f 7 20 9
f 8 10 21
f 8 21 11
f 9 22 23
f 9 23 24
f 9 24 10
f 9 20 22
f 10 24 25
f 10 25 21
f 11 26 13
f 11 13 12
f 11 21 25
f 11 25 26
f 13 26 27
f 13 27 28
f 13 28 14
f 14 28 29
f 14 29 30
f 14 30 31
f 14 31 15
f 15 32 33
f 15 33 34
f 15 34 16
f 15 31 32
f 16 35 17
f 16 34 35
f 17 35 36
f 17 36 37
f 17 37 18
f 18 38 39
f 18 39 19
f 18 37 40
f 18 40 38
f 19 41 22
f 19 22 20
f 19 39 41
f 22 41 23
f 23 42 43
f 23 43 44
f 23 44 24
f 23 41 45
f 23 45 42
f 24 44 26
f 24 26 25
f 26 44 46
f 26 46 27
f 27 46 43
f 27 43 28
f 28 47 29
f 28 43 42
f 28 42 48
f 28 48 49
f 28 49 50
f 28 50 47
f 29 47 30
f 30 47 50
f 30 50 51
f 30 51 52
f 30 52 31
f 31 52 53
f 31 53 32
f 32 53 54
f 32 54 33
f 33 55 40
f 33 40 35
f 33 35 34
f 33 54 55
f 35 40 36
f 36 40 37
f 38 40 55
f 38 55 56
f 38 56 57
f 38 57 49
f 38 49 58
f 38 58 59
f 38 59 60
f 38 60 39
f 39 60 41
f 41 60 45
f 42 61 48
f 42 45 61
f 43 46 44
f 45 60 59
f 45 59 62
f 45 62 61
f 48 61 62
f 48 62 58
f 48 58 49
f 49 57 63
f 49 63 50
f 50 63 51
f 51 63 64
f 51 64 53
f 51 53 52
f 53 64 54
f 54 64 56
f 54 56 55
f 56 64 63
f 56 63 57
f 58 62 59

