# https://github.com/mikedh/trimesh
v 0.00096197 -0.06744333 0.02230983
v 0.00096197 -0.05975170 0.01740556
v 0.00050489 -0.06415078 0.02199851
v -0.01064117 -0.06704290 0.02126500
v -0.01065367 -0.06712637 -0.01906516
v 0.00004440 -0.06693461 -0.02124010
v 0.00091649 -0.06493811 -0.02125715
v 0.00096197 -0.05641178 -0.00465940
v 0.00096197 -0.05770217 0.01200233
v -0.00234444 -0.05963890 0.01656117
v -0.00256161 -0.06058978 0.01840773
v 0.00004440 -0.06150344 0.02012636
v -0.00276513 -0.06236069 0.02045047
v -0.01065367 -0.06534868 0.01991739
v -0.01065367 -0.06564985 -0.01783696
v -0.00254797 -0.06354957 -0.02005028
v -0.00078334 -0.06484787 -0.02108657
v -0.00078334 -0.06330819 -0.02020807
v 0.00091649 -0.06343001 -0.02013130
v -0.00635239 -0.05775970 -0.00589612
v -0.00546893 -0.05730062 -0.00390030
v 0.00096197 -0.05599781 -0.00154199
v -0.00035014 -0.06089208 -0.01614392
v -0.00179186 -0.05936029 -0.01294975
v -0.00504028 -0.05954866 -0.01273652
v -0.00546893 -0.05827293 -0.00859134
v -0.00390669 -0.05863614 0.01327744
v -0.00448315 -0.05925990 0.01500886
v 0.00096197 -0.05710999 0.01015150
v -0.01065367 -0.06379660 0.01831391
v -0.01065367 -0.06220616 0.01575943
v -0.01065367 -0.06366350 -0.01548291
v -0.00443198 -0.06211028 -0.01777299
v -0.00257980 -0.06204148 -0.01842547
v -0.00053888 -0.06200538 -0.01849370
v -0.00603857 -0.05893505 -0.01042938
v -0.01065367 -0.06093155 -0.00890266
v -0.01065367 -0.06032809 -0.00612215
v -0.01065367 -0.05994233 -0.00390030
v -0.00660253 -0.05760178 -0.00390030
v -0.00611361 -0.05722956 -0.00155904
v -0.00546893 -0.05689004 0.00077795
v 0.00096197 -0.05591998 0.00075662
v -0.00312557 -0.06091576 -0.01648935
v -0.00312557 -0.06014874 -0.01484322
v -0.00592942 -0.06077815 -0.01497542
v -0.00546893 -0.05844212 0.01171234
v -0.00614772 -0.05921817 0.01328170
v 0.00096197 -0.05664752 0.00770363
v -0.00540867 -0.05784655 0.00929858
v -0.01065367 -0.06108383 0.01281687
v -0.01065367 -0.06244980 -0.01340605
v -0.01065367 -0.06179220 -0.01171728
v -0.01065367 -0.05956671 -0.00131596
v -0.01065367 -0.05947083 0.00159675
v -0.00609315 -0.05717993 0.00312347
v -0.00546893 -0.05717315 0.00546472
v 0.00096197 -0.05598991 0.00296568
v -0.00591464 -0.05757810 0.00726438
v -0.01065367 -0.06051421 0.01037326
v -0.01065367 -0.05956784 0.00420667
v -0.00660707 -0.05756231 0.00546472
v -0.01065367 -0.06017920 0.00858640
v -0.01065367 -0.05987352 0.00662043
f 1 2 3
f 1 3 4
f 1 4 5
f 1 5 6
f 1 6 7
f 1 7 8
f 1 8 22
f 1 22 43
f 1 43 58
f 1 58 49
f 1 49 29
f 1 29 9
f 1 9 2
f 2 9 10
f 2 10 11
f 2 11 12
f 2 12 3
f 3 12 13
f 3 13 4
f 4 13 14
f 4 14 5
f 5 15 16
f 5 16 17
f 5 17 6
f 5 14 30
f 5 30 31
f 5 31 51
f 5 51 60
f 5 60 63
f 5 63 64
f 5 64 61
f 5 61 55
f 5 55 54
f 5 54 39
f 5 39 38
f 5 38 37
f 5 37 53
f 5 53 52
f 5 52 32
f 5 32 15
f 6 17 7
f 7 17 18
f 7 18 19
f 7 19 8
f 8 20 21
f 8 21 22
f 8 19 23
f 8 23 24
f 8 24 25
f 8 25 26
f 8 26 20
f 9 27 28
f 9 28 10
f 9 29 27
f 10 28 11
f 11 30 13
f 11 13 12
f 11 28 31
f 11 31 30
f 13 30 14
f 15 32 33
f 15 33 16
f 16 18 17
f 16 33 34
f 16 34 18
f 18 34 35
f 18 35 19
f 19 35 23
f 20 26 36
f 20 36 37
f 20 37 38
f 20 38 39
f 20 39 40
f 20 40 21
f 21 41 42
f 21 42 22
f 21 40 41
f 22 42 43
f 23 35 44
f 23 44 45
f 23 45 24
f 24 45 25
f 25 36 26
f 25 45 44
f 25 44 46
f 25 46 36
f 27 29 47
f 27 47 28
f 28 47 48
f 28 48 31
f 29 49 50
f 29 50 47
f 31 48 51
f 32 52 46
f 32 46 33
f 33 44 34
f 33 46 44
f 34 44 35
f 36 46 52
f 36 52 53
f 36 53 37
f 39 54 40
f 40 54 41
f 41 54 55
f 41 55 56
f 41 56 42
f 42 56 57
f 42 57 58
f 42 58 43
f 47 50 59
f 47 59 51
f 47 51 48
f 49 58 57
f 49 57 50
f 50 57 59
f 51 59 60
f 55 61 56
f 56 61 62
f 56 62 57
f 57 62 59
f 59 62 60
f 60 62 63
f 61 64 62
f 62 64 63

