# https://github.com/mikedh/trimesh
v 0.09199603 0.07761879 -0.00413527
v 0.09064777 0.08122690 -0.00426744
v 0.09108468 0.07912546 -0.00059131
v 0.09101261 0.07781006 0.00241982
v 0.09059372 0.07700798 0.00536072
v 0.09063125 0.07723132 -0.01401952
v 0.09176782 0.07795196 -0.00773292
v 0.08941511 0.08278293 -0.00117371
v 0.09038652 0.08148233 -0.00815836
v 0.08841217 0.08473506 -0.00468875
v 0.08919741 0.08153416 0.00296091
v 0.08894367 0.07959560 0.00652139
v 0.08952021 0.07705980 0.00799597
v 0.07665914 0.07691790 -0.02641511
v 0.08861486 0.07688335 -0.01869110
v 0.08852928 0.08052601 -0.01543214
v 0.08914185 0.08190435 -0.01220210
v 0.09095556 0.07828389 -0.01130166
v 0.08737320 0.08542485 -0.00156610
v 0.08763744 0.08407983 0.00203568
v 0.08832959 0.08464252 -0.00781140
v 0.08437188 0.08765339 -0.00785270
v 0.08434035 0.08782615 -0.00468875
v 0.08737470 0.08277923 0.00526159
v 0.08607598 0.08064077 0.00985469
v 0.08688373 0.07780142 0.01130862
v 0.07829868 0.07747441 0.01577368
v 0.07684532 0.08370594 0.01074274
v 0.07684532 0.08587895 0.00779358
v 0.07684532 0.08948953 -0.00319765
v 0.07684532 0.08947349 -0.00631616
v 0.07684532 0.08807294 -0.01286711
v 0.07684532 0.08616276 -0.01712151
v 0.07684532 0.08448210 -0.01974850
v 0.07946678 0.08162053 -0.02236723
v 0.08119039 0.07964126 -0.02339572
v 0.08153121 0.07721034 -0.02470509
v 0.08274285 0.08301121 -0.01964524
v 0.08441542 0.08389103 -0.01707195
v 0.08673209 0.08361215 -0.01448213
v 0.08586578 0.08601592 0.00111871
v 0.08549794 0.08597150 -0.01148340
v 0.08090513 0.08884664 -0.00760900
v 0.08333290 0.08749297 -0.01051687
v 0.08012289 0.08916376 -0.00468875
v 0.08311970 0.08808528 -0.00178089
v 0.08467817 0.08405762 0.00696748
v 0.08227891 0.08103194 0.01203972
v 0.08317225 0.07850354 0.01351017
v 0.08371876 0.08249912 0.00984230
v 0.07947728 0.08163905 0.01248168
v 0.08023250 0.08387252 0.00986295
v 0.08046371 0.08613808 0.00646769
v 0.07725220 0.08797299 0.00341939
v 0.07803593 0.08906505 -0.00074827
v 0.07694441 0.08910823 -0.00920750
v 0.07965896 0.08843326 -0.01089687
v 0.08041416 0.08732886 -0.01381299
v 0.07968148 0.08603690 -0.01681173
v 0.07985865 0.08444632 -0.01910828
v 0.08279390 0.08594805 -0.01519671
v 0.08198013 0.08761144 0.00201916
v 0.08385840 0.08586661 0.00455941
v 0.07930462 0.08844560 0.00155654
f 1 2 3
f 1 3 4
f 1 4 5
f 1 5 6
f 1 6 7
f 1 7 2
f 2 8 3
f 2 7 9
f 2 9 10
f 2 10 8
f 3 8 11
f 3 11 4
f 4 11 5
f 5 11 12
f 5 12 13
f 5 13 14
f 5 14 15
f 5 15 6
f 6 15 16
f 6 16 17
f 6 17 18
f 6 18 7
f 7 18 9
f 8 10 19
f 8 19 20
f 8 20 11
f 9 18 17
f 9 17 21
f 9 21 10
f 10 21 22
f 10 22 23
f 10 23 19
f 11 20 24
f 11 24 12
f 12 24 25
f 12 25 26
f 12 26 13
f 13 26 27
f 13 27 14
f 14 28 29
f 14 29 30
f 14 30 31
f 14 31 32
f 14 32 33
f 14 33 34
f 14 34 35
f 14 35 36
f 14 36 37
f 14 37 15
f 14 27 28
f 15 37 36
f 15 36 38
f 15 38 39
f 15 39 16
f 16 39 40
f 16 40 17
f 17 40 21
f 19 41 20
f 19 23 41
f 20 41 24
f 21 40 42
f 21 42 22
f 22 43 23
f 22 42 44
f 22 44 43
f 23 45 46
f 23 46 41
f 23 43 45
f 24 47 25
f 24 41 47
f 25 48 49
f 25 49 26
f 25 47 50
f 25 50 48
f 26 49 27
f 27 49 48
f 27 48 51
f 27 51 28
f 28 51 52
f 28 52 29
f 29 52 53
f 29 53 54
f 29 54 30
f 30 54 55
f 30 55 45
f 30 45 31
f 31 45 43
f 31 43 56
f 31 56 32
f 32 56 57
f 32 57 58
f 32 58 33
f 33 58 59
f 33 59 34
f 34 60 35
f 34 59 60
f 35 60 38
f 35 38 36
f 38 60 61
f 38 61 39
f 39 61 42
f 39 42 40
f 41 62 63
f 41 63 47
f 41 46 62
f 42 61 44
f 43 44 57
f 43 57 56
f 44 61 58
f 44 58 57
f 45 55 46
f 46 55 64
f 46 64 62
f 47 63 53
f 47 53 50
f 48 50 52
f 48 52 51
f 50 53 52
f 53 63 62
f 53 62 64
f 53 64 54
f 54 64 55
f 58 61 59
f 59 61 60

