# https://github.com/mikedh/trimesh
v 0.03563817 0.00255017 -0.02020990
v 0.03014455 0.00302612 -0.01973538
v 0.02965220 0.02127357 -0.01914223
v 0.03710875 0.01386808 -0.01978423
v 0.04318541 0.00263404 -0.01965164
v 0.05349242 0.00210987 -0.01486459
v 0.02556437 0.00209310 -0.01852117
v 0.02534411 0.01015904 -0.01867469
v 0.02634825 0.01796709 -0.01879332
v 0.03661639 0.02155662 -0.01931320
v 0.02538298 0.02328429 -0.01847930
v 0.04139092 0.00756964 -0.01960628
v 0.04124839 0.02151259 -0.01860491
v 0.04844581 0.00478105 -0.01787569
v 0.04654766 0.02349395 -0.01628117
v 0.05084279 0.02349395 -0.01279206
v 0.05718507 0.00207423 -0.00864701
v 0.02064085 0.00207423 -0.01640329
v 0.00627193 0.00834960 -0.01314446
v 0.01016540 0.01094110 -0.01464129
v 0.01374792 0.02349395 -0.01579269
v 0.02045298 0.02349395 -0.01745350
v 0.05360255 0.02349395 -0.00778171
v 0.05837708 0.00207423 -0.00192351
v 0.01462249 0.00207423 -0.01219543
v 0.00257929 0.00368658 -0.00630931
v -0.00501978 0.00877313 -0.00809922
v -0.00535666 0.02349395 -0.00887380
v 0.00760647 0.02349395 -0.01411444
v 0.05445122 0.02349395 -0.00264924
v 0.05712028 0.00207423 0.00439875
v 0.01069663 0.00207423 -0.00633722
v 0.01118250 0.00207423 0.00279027
v 0.00246268 0.00393399 0.00320896
v -0.00651628 0.00675822 -0.00108612
v -0.00778603 0.02349395 -0.00465547
v 0.05312316 0.02349395 0.00316710
v 0.05336933 0.00217696 0.01020113
v 0.02495541 0.00207423 0.01382282
v 0.01451884 0.00207423 0.00750754
v -0.00474122 0.00876894 0.00560249
v 0.02013554 0.00207423 0.01172936
v -0.00780546 0.02349395 0.00003039
v 0.04912603 0.02349395 0.00871128
v 0.04842637 0.00563649 0.01270630
v 0.04363889 0.00384802 0.01453110
v 0.03593617 0.00260049 0.01543478
v 0.00918718 0.01102917 0.01058493
v 0.00519653 0.00696160 0.00877757
v 0.02934771 0.00302612 0.01493584
v -0.00489669 0.02349395 0.00542455
v 0.04354172 0.02349395 0.01198057
v 0.04345102 0.01145060 0.01379839
v 0.03861172 0.01439434 0.01436712
v 0.03905872 0.00908554 0.01477534
v 0.03574182 0.02265528 0.01382631
v 0.03280714 0.01015904 0.01488699
v 0.01863257 0.01172107 0.01252138
v 0.00938153 0.02349395 0.01009297
v 0.02878410 0.01746179 0.01407403
v 0.02321922 0.02338912 0.01285982
v 0.02403549 0.01094110 0.01364836
v 0.03076647 0.02328429 0.01381933
v 0.04074309 0.01992959 0.01334830
f 1 2 3
f 1 3 4
f 1 4 5
f 1 5 6
f 1 6 7
f 1 7 2
f 2 7 8
f 2 8 9
f 2 9 3
f 3 10 4
f 3 9 11
f 3 11 10
f 4 10 12
f 4 12 5
f 5 12 13
f 5 13 14
f 5 14 6
f 6 14 15
f 6 15 16
f 6 16 17
f 6 17 7
f 7 18 19
f 7 19 20
f 7 20 8
f 7 17 18
f 8 20 21
f 8 21 22
f 8 22 9
f 9 22 11
f 10 13 12
f 10 11 15
f 10 15 13
f 11 22 15
f 13 15 14
f 15 22 21
f 15 21 29
f 15 29 28
f 15 28 36
f 15 36 43
f 15 43 51
f 15 51 59
f 15 59 52
f 15 52 44
f 15 44 37
f 15 37 30
f 15 30 23
f 15 23 16
f 16 23 17
f 17 23 24
f 17 24 31
f 17 31 39
f 17 39 42
f 17 42 40
f 17 40 33
f 17 33 32
f 17 32 25
f 17 25 18
f 18 25 26
f 18 26 27
f 18 27 19
f 19 27 28
f 19 28 29
f 19 29 20
f 20 29 21
f 23 30 24
f 24 30 31
f 25 32 26
f 26 32 33
f 26 33 34
f 26 34 35
f 26 35 27
f 27 35 36
f 27 36 28
f 30 37 31
f 31 37 38
f 31 38 39
f 33 40 34
f 34 41 35
f 34 40 42
f 34 42 41
f 35 43 36
f 35 41 43
f 37 44 38
f 38 44 45
f 38 45 46
f 38 46 47
f 38 47 39
f 39 48 49
f 39 49 42
f 39 47 50
f 39 50 48
f 41 42 49
f 41 49 48
f 41 48 51
f 41 51 43
f 44 52 45
f 45 52 53
f 45 53 46
f 46 53 54
f 46 54 55
f 46 55 47
f 47 55 54
f 47 54 56
f 47 56 57
f 47 57 50
f 48 58 59
f 48 59 51
f 48 50 58
f 50 57 60
f 50 60 61
f 50 61 62
f 50 62 58
f 52 63 56
f 52 56 64
f 52 64 53
f 52 59 61
f 52 61 63
f 53 64 54
f 54 64 56
f 56 63 57
f 57 63 60
f 58 62 59
f 59 62 61
f 60 63 61

