# https://github.com/mikedh/trimesh
v 0.06279688 -0.08971322 -0.00743623
v 0.06278425 -0.08426538 -0.00055095
v 0.06266013 -0.09016720 -0.00103375
v 0.06244450 -0.09013006 -0.00560695
v 0.06191751 -0.09023489 -0.00859495
v 0.06279161 -0.08936241 -0.01081852
v 0.05205201 -0.08426538 -0.00054290
v 0.05859675 -0.09162987 -0.00054290
v 0.06264856 -0.08557616 -0.02327211
v 0.05880187 -0.08471523 -0.02665976
v 0.05664974 -0.08426538 -0.02701382
v 0.06081515 -0.09110325 -0.00144413
v 0.06230145 -0.09036861 -0.00335119
v 0.06113702 -0.09075161 -0.00859495
v 0.06075520 -0.09049985 -0.01406401
v 0.06222150 -0.08950109 -0.01328617
v 0.06262016 -0.08884239 -0.01564385
v 0.06261280 -0.08753573 -0.02148038
v 0.05216350 -0.09219281 -0.00176063
v 0.05631524 -0.09193033 -0.00054290
v 0.05205201 -0.08426538 -0.02306289
v 0.05205201 -0.08753738 -0.02782921
v 0.05212564 -0.09269715 -0.02202219
v 0.05859675 -0.09183540 -0.00234536
v 0.06081515 -0.08808217 -0.02401240
v 0.06060688 -0.08596659 -0.02523282
v 0.05852312 -0.08747465 -0.02652028
v 0.05703683 -0.08672681 -0.02726862
v 0.06015983 -0.09139132 -0.00469231
v 0.06015983 -0.09129144 -0.00781442
v 0.05997471 -0.09100337 -0.01406401
v 0.05978852 -0.09090266 -0.01640292
v 0.06044489 -0.09027534 -0.01796934
v 0.05978326 -0.09044950 -0.02028947
v 0.06220151 -0.08863190 -0.01904491
v 0.06080673 -0.08923034 -0.02223676
v 0.05444607 -0.09215402 -0.00144681
v 0.05391172 -0.09256921 -0.01562239
v 0.05547480 -0.09239917 -0.01016137
v 0.05666762 -0.09215402 -0.00335119
v 0.05285354 -0.08949860 -0.02794455
v 0.05220032 -0.09095301 -0.02698967
v 0.05231393 -0.09210119 -0.02510943
v 0.05423780 -0.09225142 -0.02359397
v 0.05391172 -0.09260966 -0.02031093
v 0.05653613 -0.09223821 -0.00547284
v 0.05859675 -0.09187007 -0.00469231
v 0.05909955 -0.08909250 -0.02517380
v 0.05718935 -0.08951346 -0.02635130
v 0.05859675 -0.09186017 -0.00781442
v 0.05859675 -0.09166701 -0.01406401
v 0.05859675 -0.09152174 -0.01640292
v 0.05913111 -0.09107436 -0.01835826
v 0.05668971 -0.09183210 -0.02187466
v 0.05855257 -0.09061542 -0.02337671
v 0.05607332 -0.09232241 -0.00820603
v 0.05547480 -0.09243384 -0.01640292
v 0.05510138 -0.09048665 -0.02651224
v 0.05706838 -0.09083498 -0.02494850
v 0.05639518 -0.09212431 -0.01907442
v 0.05694742 -0.09217878 -0.01377165
v 0.05784256 -0.09200214 -0.01094190
v 0.05719882 -0.09203186 -0.01640292
f 1 2 3
f 1 3 4
f 1 4 5
f 1 5 6
f 1 6 2
f 2 7 8
f 2 8 3
f 2 6 9
f 2 9 10
f 2 10 11
f 2 11 21
f 2 21 7
f 3 12 13
f 3 13 4
f 3 8 12
f 4 13 14
f 4 14 5
f 5 14 15
f 5 15 6
f 6 15 16
f 6 16 17
f 6 17 18
f 6 18 9
f 7 19 20
f 7 20 8
f 7 21 22
f 7 22 23
f 7 23 19
f 8 20 24
f 8 24 12
f 9 18 25
f 9 25 26
f 9 26 10
f 10 27 28
f 10 28 11
f 10 26 27
f 11 28 22
f 11 22 21
f 12 24 29
f 12 29 13
f 13 29 30
f 13 30 14
f 14 30 31
f 14 31 15
f 15 31 32
f 15 32 33
f 15 33 16
f 16 33 17
f 17 33 34
f 17 34 35
f 17 35 18
f 18 36 25
f 18 35 36
f 19 37 20
f 19 23 38
f 19 38 39
f 19 39 37
f 20 37 40
f 20 40 24
f 22 28 41
f 22 41 42
f 22 42 23
f 23 42 43
f 23 43 44
f 23 44 45
f 23 45 38
f 24 40 46
f 24 46 47
f 24 47 29
f 25 48 27
f 25 27 26
f 25 36 48
f 27 41 28
f 27 48 49
f 27 49 41
f 29 47 50
f 29 50 51
f 29 51 30
f 30 51 31
f 31 51 52
f 31 52 32
f 32 52 53
f 32 53 34
f 32 34 33
f 34 54 55
f 34 55 36
f 34 36 35
f 34 53 54
f 36 55 48
f 37 39 46
f 37 46 40
f 38 45 39
f 39 56 46
f 39 45 57
f 39 57 56
f 41 49 58
f 41 58 42
f 42 58 43
f 43 58 59
f 43 59 44
f 44 59 54
f 44 54 45
f 45 54 60
f 45 60 57
f 46 56 61
f 46 61 47
f 47 61 50
f 48 55 59
f 48 59 49
f 49 59 58
f 50 61 62
f 50 62 51
f 51 62 63
f 51 63 52
f 52 63 54
f 52 54 53
f 54 63 60
f 54 59 55
f 56 57 61
f 57 60 63
f 57 63 61
f 61 63 62

