# https://github.com/mikedh/trimesh
v 0.00096197 -0.06744333 -0.01015052
v 0.00096197 -0.06012581 -0.01015052
v 0.00815659 -0.06744333 -0.01015052
v 0.00165354 -0.06744333 0.02237325
v 0.00096197 -0.05677646 0.00849520
v 0.00765023 -0.05797997 -0.01010579
v 0.00096197 -0.05724351 -0.00690070
v 0.00815659 -0.05710939 -0.00659074
v 0.00815659 -0.06184578 0.02109505
v 0.00759389 -0.06744333 0.02249468
v 0.00468816 -0.06484690 0.02231253
v 0.00165354 -0.06484690 0.02224223
v 0.00255639 -0.05627294 0.00850799
v 0.00163312 -0.05628941 0.00693900
v 0.00096901 -0.05598824 0.00297338
v 0.00096197 -0.05628941 -0.00390333
v 0.00165354 -0.06325870 0.02185238
v 0.00165354 -0.06193637 0.02083302
v 0.00165354 -0.06089403 0.01959956
v 0.00165354 -0.05980346 0.01767267
v 0.00165354 -0.05742468 0.01186006
v 0.00165354 -0.05687528 0.01015367
v 0.00315500 -0.05619411 -0.00633829
v 0.00458745 -0.05618470 -0.00544356
v 0.00163805 -0.05629647 -0.00542119
v 0.00815659 -0.05684469 -0.00502814
v 0.00815659 -0.05880701 0.01656064
v 0.00741572 -0.06071168 0.02001178
v 0.00390785 -0.06185872 0.02092249
v 0.00468816 -0.06316811 0.02191949
v 0.00759389 -0.06412103 0.02217832
v 0.00390785 -0.05634353 0.00947622
v 0.00390785 -0.05572824 0.00547226
v 0.00234511 -0.05586941 0.00547226
v 0.00390785 -0.05692469 0.01171946
v 0.00234511 -0.05565530 0.00390967
v 0.00234511 -0.05553059 0.00234707
v 0.00165354 -0.05571412 0.00077488
v 0.00165565 -0.05579883 -0.00154505
v 0.00234511 -0.05589412 -0.00390333
v 0.00546917 -0.06072697 0.01983603
v 0.00390785 -0.06079639 0.01975294
v 0.00731219 -0.05937171 0.01786440
v 0.00546917 -0.05947994 0.01775895
v 0.00370150 -0.05945406 0.01734354
v 0.00390785 -0.05556589 -0.00234073
v 0.00390785 -0.05580942 -0.00390333
v 0.00546917 -0.05588236 -0.00234073
v 0.00815659 -0.05647411 -0.00234073
v 0.00815659 -0.05813290 0.01411289
v 0.00815659 -0.05727057 0.01015367
v 0.00443251 -0.05604470 0.00730328
v 0.00815659 -0.05758468 0.01171946
v 0.00390785 -0.05556589 0.00390967
v 0.00815659 -0.05655881 0.00491625
v 0.00390785 -0.05544354 0.00234707
v 0.00390785 -0.05542472 0.00078447
v 0.00390785 -0.05545060 -0.00077813
v 0.00546917 -0.05578941 -0.00077813
v 0.00815659 -0.05639411 -0.00077813
v 0.00815659 -0.05704704 0.00859107
v 0.00815659 -0.05633411 0.00258034
v 0.00546917 -0.05576000 0.00078447
v 0.00815659 -0.05634470 0.00078447
f 1 2 3
f 1 3 10
f 1 10 4
f 1 4 5
f 1 5 16
f 1 16 7
f 1 7 2
f 2 6 3
f 2 7 6
f 3 6 8
f 3 8 26
f 3 26 49
f 3 49 60
f 3 60 64
f 3 64 62
f 3 62 55
f 3 55 61
f 3 61 51
f 3 51 53
f 3 53 50
f 3 50 27
f 3 27 9
f 3 9 10
f 4 10 11
f 4 11 12
f 4 12 5
f 5 13 14
f 5 14 15
f 5 15 16
f 5 12 17
f 5 17 18
f 5 18 19
f 5 19 20
f 5 20 21
f 5 21 22
f 5 22 13
f 6 7 23
f 6 23 24
f 6 24 8
f 7 16 25
f 7 25 23
f 8 24 26
f 9 27 28
f 9 28 29
f 9 29 30
f 9 30 31
f 9 31 10
f 10 31 11
f 11 31 30
f 11 30 12
f 12 30 17
f 13 32 33
f 13 33 34
f 13 34 14
f 13 22 35
f 13 35 32
f 14 34 36
f 14 36 15
f 15 36 37
f 15 37 38
f 15 38 39
f 15 39 16
f 16 39 40
f 16 40 25
f 17 30 29
f 17 29 18
f 18 29 28
f 18 28 41
f 18 41 42
f 18 42 19
f 19 42 43
f 19 43 44
f 19 44 20
f 20 45 35
f 20 35 21
f 20 44 45
f 21 35 22
f 23 25 40
f 23 40 46
f 23 46 47
f 23 47 24
f 24 47 46
f 24 46 48
f 24 48 26
f 26 48 49
f 27 50 35
f 27 35 43
f 27 43 28
f 28 43 41
f 32 51 52
f 32 52 33
f 32 35 50
f 32 50 53
f 32 53 51
f 33 54 36
f 33 36 34
f 33 52 55
f 33 55 54
f 35 45 44
f 35 44 43
f 36 54 37
f 37 54 56
f 37 56 57
f 37 57 58
f 37 58 39
f 37 39 38
f 39 58 46
f 39 46 40
f 41 43 42
f 46 58 48
f 48 58 59
f 48 59 49
f 49 59 60
f 51 61 52
f 52 61 55
f 54 55 62
f 54 62 56
f 56 62 57
f 57 63 58
f 57 62 63
f 58 63 59
f 59 63 64
f 59 64 60
f 62 64 63

