# https://github.com/mikedh/trimesh
v 0.03620788 -0.00269325 -0.02021887
v 0.04607451 -0.00147805 -0.01919416
v 0.03936662 -0.00458042 -0.02020126
v 0.04082177 -0.00966758 -0.02010971
v 0.03986744 -0.01362583 -0.01998998
v 0.03281647 -0.00781294 -0.01988082
v 0.02969322 -0.00118945 -0.01943009
v 0.05197793 -0.00118945 -0.01639471
v 0.05198187 -0.00735600 -0.01747575
v 0.04708799 -0.00634876 -0.01923290
v 0.04765585 -0.01249975 -0.01923642
v 0.03222495 -0.01475191 -0.01941248
v 0.04867721 -0.01564032 -0.01883147
v 0.03164525 -0.01093654 -0.01955334
v 0.02969322 -0.00498219 -0.01946883
v 0.02510299 -0.00118945 -0.01803917
v 0.05319646 -0.00118945 0.01078288
v 0.05392207 -0.01244882 -0.01556368
v 0.05116556 -0.01132699 -0.01803565
v 0.01874607 -0.01512679 -0.01252125
v 0.02520946 -0.01404033 -0.01742998
v 0.02856933 -0.01352680 -0.01870470
v 0.05204891 -0.01564032 -0.01600032
v 0.01552029 -0.01564032 -0.00604201
v 0.01676249 -0.01544085 -0.00927107
v 0.02840764 -0.00937474 -0.01895823
v 0.02493342 -0.00479545 -0.01795818
v 0.02079275 -0.00269325 -0.01579608
v 0.01755119 -0.00118945 -0.01300015
v 0.05356716 -0.00787519 0.01208929
v 0.03512736 -0.00118945 0.01557540
v 0.04806597 -0.00215709 0.01383587
v 0.05133908 -0.00547025 0.01294849
v 0.05392207 -0.01564032 -0.01045775
v 0.01515749 -0.00118945 -0.00932037
v 0.02072965 -0.01325943 -0.01467630
v 0.02631759 -0.00976519 -0.01822228
v 0.01497609 -0.01564032 -0.00137274
v 0.01374966 -0.00118945 -0.00462292
v 0.05355138 -0.01446048 0.01265622
v 0.05267987 -0.01093654 0.01295202
v 0.03332124 -0.00698395 0.01570217
v 0.03850299 -0.00270174 0.01564231
v 0.04179581 -0.00303277 0.01534652
v 0.01790611 -0.00118945 0.00902574
v 0.02155779 -0.00162234 0.01200830
v 0.02956703 -0.00162234 0.01502608
v 0.04814484 -0.00937333 0.01454013
v 0.04870088 -0.01494996 0.01455070
v 0.03400741 -0.01539134 0.01574795
v 0.01622223 -0.01470098 0.00494100
v 0.01363530 -0.00118945 -0.00049593
v 0.02871918 -0.00586070 0.01501199
v 0.03373925 -0.01191408 0.01575499
v 0.04118457 -0.01401628 0.01571273
v 0.04077839 -0.00786104 0.01565639
v 0.01515749 -0.00118945 0.00487410
v 0.01867115 -0.00859243 0.00946238
v 0.02177862 -0.00630066 0.01208929
v 0.02495708 -0.00322799 0.01379713
v 0.02819864 -0.01406579 0.01471268
v 0.01969646 -0.01376164 0.01003988
v 0.02644772 -0.00956997 0.01434294
v 0.02327321 -0.01306703 0.01274426
f 1 2 3
f 1 3 4
f 1 4 5
f 1 5 6
f 1 6 7
f 1 7 2
f 2 8 9
f 2 9 10
f 2 10 3
f 2 7 8
f 3 10 4
f 4 10 11
f 4 11 5
f 5 12 6
f 5 11 13
f 5 13 12
f 6 12 14
f 6 14 15
f 6 15 7
f 7 15 16
f 7 16 29
f 7 29 35
f 7 35 39
f 7 39 52
f 7 52 57
f 7 57 45
f 7 45 31
f 7 31 17
f 7 17 8
f 8 17 18
f 8 18 9
f 9 18 19
f 9 19 10
f 10 19 11
f 11 19 13
f 12 13 20
f 12 20 21
f 12 21 22
f 12 22 14
f 13 19 18
f 13 18 23
f 13 23 34
f 13 34 38
f 13 38 24
f 13 24 25
f 13 25 20
f 14 22 26
f 14 26 15
f 15 26 27
f 15 27 16
f 16 27 28
f 16 28 29
f 17 30 18
f 17 31 32
f 17 32 33
f 17 33 30
f 18 30 34
f 18 34 23
f 20 25 35
f 20 35 29
f 20 29 36
f 20 36 21
f 21 27 37
f 21 37 22
f 21 36 28
f 21 28 27
f 22 37 26
f 24 38 39
f 24 39 35
f 24 35 25
f 26 37 27
f 28 36 29
f 30 40 34
f 30 33 41
f 30 41 40
f 31 42 43
f 31 43 44
f 31 44 32
f 31 45 46
f 31 46 47
f 31 47 42
f 32 48 33
f 32 44 48
f 33 48 41
f 34 40 49
f 34 49 50
f 34 50 38
f 38 51 52
f 38 52 39
f 38 50 51
f 40 41 49
f 41 48 49
f 42 53 54
f 42 54 43
f 42 47 53
f 43 54 55
f 43 55 56
f 43 56 44
f 44 56 48
f 45 57 58
f 45 58 59
f 45 59 46
f 46 59 60
f 46 60 47
f 47 60 53
f 48 56 55
f 48 55 49
f 49 55 50
f 50 55 54
f 50 54 53
f 50 53 61
f 50 61 62
f 50 62 51
f 51 62 58
f 51 58 57
f 51 57 52
f 53 63 61
f 53 60 63
f 58 62 59
f 59 64 60
f 59 62 64
f 60 64 63
f 61 63 64
f 61 64 62

