# https://github.com/mikedh/trimesh
v 0.06562984 0.04499389 -0.01904325
v 0.07027576 0.04499389 -0.01883473
v 0.06228118 0.04499389 -0.01897072
v 0.07148429 0.05331015 -0.02514478
v 0.07047606 0.04499389 0.00996396
v 0.05861929 0.04499389 -0.01885739
v 0.06328806 0.05327498 -0.02487733
v 0.05861929 0.05482219 -0.02553010
v 0.07172492 0.05942427 -0.02669510
v 0.07235271 0.06172750 0.01696304
v 0.07023946 0.05512987 0.01608815
v 0.06562984 0.04499389 0.01042180
v 0.06100409 0.04499389 0.01058045
v 0.05939093 0.05614523 0.01694037
v 0.05861929 0.06181541 0.01815977
v 0.05861929 0.06047039 -0.02669056
v 0.07172492 0.06567464 -0.02763344
v 0.07203814 0.07788530 -0.02589727
v 0.07235271 0.07265907 0.01672732
v 0.07235271 0.06711636 0.01748887
v 0.05861929 0.06704164 0.01866748
v 0.05861929 0.06563508 -0.02730253
v 0.06562984 0.06563508 -0.02750199
v 0.05861929 0.07109427 -0.02686735
v 0.05900511 0.07702378 -0.02593807
v 0.06328806 0.07855781 -0.02540770
v 0.06246535 0.08126543 -0.02344487
v 0.07000556 0.08385437 -0.02085195
v 0.07172492 0.08596860 -0.01802331
v 0.07172492 0.08964761 -0.00193992
v 0.07203814 0.08374887 0.01132841
v 0.07023946 0.07893582 0.01560765
v 0.05861929 0.07267225 0.01809631
v 0.05861929 0.08884764 -0.01094263
v 0.05917315 0.08362140 -0.02079302
v 0.06250568 0.08449172 -0.02007679
v 0.06055778 0.08611804 -0.01756547
v 0.06524000 0.08660594 -0.01687644
v 0.07038599 0.08807843 -0.01356275
v 0.07117779 0.08969596 -0.00661807
v 0.06367791 0.08989377 -0.00468697
v 0.06177706 0.08949817 -0.00009949
v 0.06524000 0.08905862 0.00191773
v 0.07159990 0.08893995 0.00181800
v 0.06719192 0.08987179 -0.00546666
v 0.06314288 0.08379723 0.01176812
v 0.06562984 0.07950724 0.01549885
v 0.07090355 0.08706747 0.00653694
v 0.06172463 0.08570047 0.00953785
v 0.05861929 0.07738422 0.01686331
v 0.05861929 0.08956850 -0.00742496
v 0.06207819 0.08937510 -0.00939231
v 0.06377605 0.08794657 -0.01405686
v 0.05939093 0.08780151 -0.01405233
v 0.06875400 0.08950256 -0.00858996
v 0.05900511 0.08963003 -0.00195806
v 0.05861929 0.08864545 0.00279715
v 0.06209566 0.08803887 0.00500929
v 0.06719192 0.08744987 0.00612897
v 0.05861929 0.08282143 0.01252515
v 0.05900511 0.07998634 0.01515434
v 0.06250568 0.07958195 0.01555325
v 0.05861929 0.08727405 0.00635109
v 0.05861929 0.08544993 0.00948798
f 1 2 5
f 1 5 12
f 1 12 13
f 1 13 6
f 1 6 3
f 1 3 4
f 1 4 2
f 2 4 5
f 3 6 7
f 3 7 4
f 4 7 8
f 4 8 9
f 4 9 10
f 4 10 5
f 5 10 11
f 5 11 12
f 6 8 7
f 6 13 14
f 6 14 15
f 6 15 21
f 6 21 33
f 6 33 50
f 6 50 60
f 6 60 64
f 6 64 63
f 6 63 57
f 6 57 51
f 6 51 34
f 6 34 24
f 6 24 22
f 6 22 16
f 6 16 8
f 8 16 9
f 9 16 17
f 9 17 18
f 9 18 10
f 10 19 20
f 10 20 15
f 10 15 11
f 10 18 19
f 11 15 14
f 11 14 13
f 11 13 12
f 15 20 21
f 16 22 23
f 16 23 17
f 17 23 24
f 17 24 18
f 18 24 25
f 18 25 26
f 18 26 27
f 18 27 28
f 18 28 29
f 18 29 30
f 18 30 31
f 18 31 19
f 19 31 32
f 19 32 33
f 19 33 20
f 20 33 21
f 22 24 23
f 24 34 25
f 25 34 35
f 25 35 27
f 25 27 26
f 27 35 36
f 27 36 28
f 28 36 29
f 29 36 37
f 29 37 38
f 29 38 39
f 29 39 40
f 29 40 30
f 30 41 42
f 30 42 43
f 30 43 44
f 30 44 31
f 30 40 45
f 30 45 41
f 31 46 47
f 31 47 32
f 31 44 48
f 31 48 49
f 31 49 46
f 32 47 50
f 32 50 33
f 34 51 52
f 34 52 53
f 34 53 54
f 34 54 35
f 35 54 37
f 35 37 36
f 37 54 53
f 37 53 38
f 38 53 39
f 39 52 55
f 39 55 40
f 39 53 52
f 40 55 45
f 41 45 51
f 41 51 56
f 41 56 42
f 42 56 57
f 42 57 43
f 43 57 58
f 43 58 44
f 44 58 59
f 44 59 48
f 45 55 52
f 45 52 51
f 46 49 60
f 46 60 61
f 46 61 62
f 46 62 47
f 47 62 50
f 48 59 49
f 49 59 58
f 49 58 63
f 49 63 64
f 49 64 60
f 50 62 61
f 50 61 60
f 51 57 56
f 57 63 58

