# https://github.com/mikedh/trimesh
v 0.05796288 -0.01564032 -0.01180310
v 0.05392686 -0.01315474 -0.01488999
v 0.05392686 -0.01174290 -0.01623482
v 0.06035321 -0.01564032 -0.01071645
v 0.05392686 -0.01564032 -0.01045826
v 0.05392686 -0.00938889 -0.01663771
v 0.05522937 -0.01068897 -0.01572129
v 0.05665022 -0.00937474 -0.01447008
v 0.05775579 -0.00937474 -0.01322171
v 0.05952319 -0.01171744 -0.01118459
v 0.06110378 -0.01397525 -0.00870486
v 0.06197776 -0.01553988 -0.00663370
v 0.06252632 -0.01561344 -0.00402346
v 0.06241644 -0.01564032 0.00025789
v 0.06165319 -0.01564032 0.00390371
v 0.05454811 -0.01544085 0.01211744
v 0.05408999 -0.01171744 0.01234726
v 0.05394292 -0.00620729 0.01156986
v 0.05449486 -0.00118945 -0.01459775
v 0.05438076 -0.00653408 -0.01602487
v 0.05541533 -0.00859243 -0.01553971
v 0.05429708 -0.00118945 0.00991576
v 0.05603320 -0.00703346 -0.01460910
v 0.05667558 -0.00118945 -0.01207547
v 0.05863315 -0.00859243 -0.01171798
v 0.05927469 -0.01001134 -0.01108245
v 0.05940316 -0.00859243 -0.01019724
v 0.06023318 -0.00937474 -0.00859137
v 0.06103194 -0.01172875 -0.00771751
v 0.06149682 -0.01328065 -0.00702807
v 0.06104715 -0.00992080 -0.00633863
v 0.06155936 -0.01015564 -0.00390430
v 0.06256182 -0.01558656 -0.00214523
v 0.06209609 -0.01328065 -0.00078336
v 0.06192282 -0.01328065 0.00077994
v 0.06166840 -0.01328065 0.00234041
v 0.06207412 -0.01564032 0.00227515
v 0.06076822 -0.01192964 0.00452790
v 0.06052057 -0.01524138 0.00636074
v 0.05868133 -0.01524138 0.00903339
v 0.05670600 -0.01524138 0.01076977
v 0.05479661 -0.01328065 0.01203233
v 0.05677362 -0.01328065 0.01069316
v 0.05448810 -0.00879473 0.01164363
v 0.05524121 -0.00679721 0.01072721
v 0.05642877 -0.00654398 0.00956395
v 0.05655302 -0.00118945 0.00753534
v 0.05879036 -0.00118945 0.00231771
v 0.05927299 -0.00146814 -0.00490867
v 0.05841931 -0.00176664 -0.00861975
v 0.05772114 -0.00176664 -0.01030789
v 0.05902957 -0.00196611 -0.00668760
v 0.05951304 -0.00178220 -0.00261337
v 0.06169376 -0.01093654 -0.00156360
v 0.06151710 -0.01171744 0.00156017
v 0.06023826 -0.00859243 0.00390371
v 0.05950797 -0.00805344 0.00535353
v 0.05943951 -0.01171744 0.00713246
v 0.05920537 -0.01321840 0.00794390
v 0.05805839 -0.01262848 0.00931995
v 0.05838465 -0.00831091 0.00753251
v 0.05811924 -0.00118945 0.00448250
v 0.06104292 -0.00951196 0.00150059
v 0.05946571 -0.00187840 -0.00040602
f 1 2 3
f 1 3 4
f 1 4 14
f 1 14 37
f 1 37 15
f 1 15 5
f 1 5 2
f 2 5 6
f 2 6 3
f 3 6 7
f 3 7 4
f 4 7 8
f 4 8 9
f 4 9 10
f 4 10 11
f 4 11 12
f 4 12 13
f 4 13 14
f 5 15 16
f 5 16 17
f 5 17 18
f 5 18 6
f 6 19 20
f 6 20 21
f 6 21 7
f 6 18 22
f 6 22 19
f 7 21 8
f 8 21 23
f 8 23 9
f 9 23 24
f 9 24 25
f 9 25 10
f 10 25 26
f 10 26 11
f 11 27 28
f 11 28 29
f 11 29 30
f 11 30 12
f 11 26 27
f 12 30 31
f 12 31 13
f 13 31 32
f 13 32 33
f 13 33 14
f 14 34 35
f 14 35 36
f 14 36 37
f 14 33 34
f 15 37 36
f 15 36 38
f 15 38 39
f 15 39 40
f 15 40 16
f 16 40 41
f 16 41 42
f 16 42 17
f 17 42 43
f 17 43 44
f 17 44 18
f 18 44 45
f 18 45 22
f 19 24 23
f 19 23 20
f 19 22 47
f 19 47 62
f 19 62 48
f 19 48 24
f 20 23 21
f 22 45 46
f 22 46 47
f 24 48 49
f 24 49 50
f 24 50 51
f 24 51 25
f 25 51 27
f 25 27 26
f 27 51 50
f 27 50 28
f 28 50 31
f 28 31 29
f 29 31 30
f 31 49 32
f 31 50 52
f 31 52 49
f 32 49 53
f 32 53 54
f 32 54 33
f 33 54 34
f 34 54 55
f 34 55 35
f 35 55 36
f 36 56 38
f 36 55 56
f 38 57 58
f 38 58 39
f 38 56 57
f 39 58 59
f 39 59 40
f 40 59 60
f 40 60 43
f 40 43 41
f 41 43 42
f 43 60 46
f 43 46 45
f 43 45 44
f 46 60 61
f 46 61 47
f 47 61 57
f 47 57 62
f 48 62 56
f 48 56 63
f 48 63 64
f 48 64 53
f 48 53 49
f 49 52 50
f 53 64 54
f 54 64 63
f 54 63 55
f 55 63 56
f 56 62 57
f 57 61 58
f 58 61 59
f 59 61 60

