# https://github.com/mikedh/trimesh
v 0.09078779 0.05182611 -0.00546498
v 0.08922641 0.04897253 -0.00624797
v 0.09035078 0.05145928 -0.00825715
v 0.09028713 0.05262345 -0.01111212
v 0.09028996 0.05263406 0.00152285
v 0.09064212 0.05180034 -0.00271343
v 0.08907508 0.04918551 -0.00156479
v 0.08763817 0.04719596 -0.00245489
v 0.08727044 0.04666238 -0.00583801
v 0.08745572 0.04730965 -0.00858955
v 0.08906094 0.04920900 -0.00858955
v 0.08898033 0.04982519 -0.01055442
v 0.08918257 0.05181322 -0.01378241
v 0.08096412 0.05257342 -0.02327064
v 0.07857538 0.05272804 0.01367029
v 0.08918398 0.05070059 0.00197713
v 0.09025602 0.05156842 -0.00065254
v 0.08753209 0.05264012 0.00854022
v 0.08861261 0.05236499 0.00636114
v 0.08928723 0.05195344 0.00401956
v 0.08783333 0.04870953 0.00178877
v 0.08793517 0.04793569 -0.00078550
v 0.08681221 0.04683595 -0.00078550
v 0.08490151 0.04535193 -0.00155741
v 0.08532438 0.04522157 -0.00469676
v 0.08526357 0.04523066 -0.00707528
v 0.08501182 0.04546865 -0.00896628
v 0.08645299 0.04708682 -0.01090898
v 0.08783475 0.04839499 -0.01086097
v 0.08736379 0.04894297 -0.01342785
v 0.08719549 0.05037621 -0.01536316
v 0.07841556 0.05181247 -0.02356611
v 0.07641009 0.05227935 -0.02406102
v 0.08154822 0.04975622 -0.02059295
v 0.07991471 0.04999118 -0.02152368
v 0.07659254 0.05188675 0.01329357
v 0.08005048 0.05176699 0.01270633
v 0.08306293 0.05243700 0.01216340
v 0.08783899 0.05025797 0.00491335
v 0.08692536 0.05039061 0.00667139
v 0.08578968 0.05190039 0.00984028
v 0.08668917 0.04849200 0.00386074
v 0.08557330 0.04661615 0.00138989
v 0.08353672 0.04550503 0.00163365
v 0.08148882 0.04498585 0.00292263
v 0.07828121 0.04498585 -0.01572142
v 0.08163025 0.04521323 -0.01342046
v 0.08332174 0.04560963 -0.01259315
v 0.08515608 0.04689658 -0.01328011
v 0.08520982 0.04804104 -0.01533362
v 0.08276168 0.04824114 -0.01810363
v 0.07708471 0.05009425 -0.02220695
v 0.07670568 0.04852763 -0.02067790
v 0.07634080 0.04498585 -0.01694392
v 0.08047760 0.04873833 -0.01993554
v 0.07712431 0.04498585 0.00725124
v 0.08203898 0.05066952 0.01103324
v 0.08376159 0.05109548 0.01062697
v 0.08483220 0.04873000 0.00680435
v 0.08363147 0.04959858 0.00899451
v 0.08438670 0.04686323 0.00394200
v 0.07929242 0.04498585 0.00541195
v 0.08203898 0.04708303 -0.01684789
v 0.08351267 0.04684049 -0.01533731
f 1 2 3
f 1 3 4
f 1 4 5
f 1 5 6
f 1 6 2
f 2 6 7
f 2 7 8
f 2 8 9
f 2 9 10
f 2 10 11
f 2 11 3
f 3 11 12
f 3 12 4
f 4 12 13
f 4 13 14
f 4 14 15
f 4 15 5
f 5 16 17
f 5 17 6
f 5 15 18
f 5 18 19
f 5 19 20
f 5 20 16
f 6 17 7
f 7 17 16
f 7 16 21
f 7 21 22
f 7 22 8
f 8 22 23
f 8 23 24
f 8 24 25
f 8 25 9
f 9 26 10
f 9 25 26
f 10 27 28
f 10 28 29
f 10 29 11
f 10 26 27
f 11 29 12
f 12 29 30
f 12 30 13
f 13 31 14
f 13 30 31
f 14 32 33
f 14 33 15
f 14 31 34
f 14 34 35
f 14 35 32
f 15 36 37
f 15 37 38
f 15 38 18
f 15 33 36
f 16 20 39
f 16 39 21
f 18 40 19
f 18 38 41
f 18 41 40
f 19 40 39
f 19 39 20
f 21 39 42
f 21 42 23
f 21 23 22
f 23 42 43
f 23 43 24
f 24 43 44
f 24 44 45
f 24 45 25
f 25 45 26
f 26 46 47
f 26 47 27
f 26 45 46
f 27 47 48
f 27 48 49
f 27 49 28
f 28 49 30
f 28 30 29
f 30 49 50
f 30 50 31
f 31 50 51
f 31 51 34
f 32 35 52
f 32 52 33
f 33 52 53
f 33 53 54
f 33 54 36
f 34 55 35
f 34 51 55
f 35 53 52
f 35 55 54
f 35 54 53
f 36 56 37
f 36 54 56
f 37 56 57
f 37 57 38
f 38 57 58
f 38 58 41
f 39 40 42
f 40 41 59
f 40 59 42
f 41 58 60
f 41 60 59
f 42 61 43
f 42 59 61
f 43 61 44
f 44 61 45
f 45 61 62
f 45 62 56
f 45 56 54
f 45 54 46
f 46 54 63
f 46 63 64
f 46 64 47
f 47 64 48
f 48 64 49
f 49 64 50
f 50 64 51
f 51 64 63
f 51 63 54
f 51 54 55
f 56 62 59
f 56 59 60
f 56 60 58
f 56 58 57
f 59 62 61

