# https://github.com/mikedh/trimesh
v 0.00348221 -0.06744333 -0.02142256
v 0.00234371 -0.06744333 -0.02138122
v 0.00348221 -0.06716245 -0.02146167
v 0.00348221 -0.06744333 -0.01015164
v 0.00096221 -0.06744333 -0.02129853
v 0.00234371 -0.06641156 -0.02151753
v 0.00348221 -0.06641156 -0.02156558
v 0.00348221 -0.06226658 -0.01015164
v 0.00096221 -0.06744333 -0.01015164
v 0.00096221 -0.06641156 -0.02143038
v 0.00096221 -0.06502943 -0.02127506
v 0.00348221 -0.06484886 -0.02135999
v 0.00096221 -0.06012352 -0.01015164
v 0.00348221 -0.06304829 -0.01788161
v 0.00096221 -0.06484886 -0.02124378
v 0.00096221 -0.06385794 -0.02067280
v 0.00348221 -0.06381423 -0.02062252
v 0.00096221 -0.06254458 -0.01796988
v 0.00348221 -0.06336498 -0.01953197
v 0.00096221 -0.06374832 -0.02059012
v 0.00096221 -0.06309773 -0.01965376
v 0.00096221 -0.06304614 -0.01951521
f 1 2 3
f 1 3 7
f 1 7 12
f 1 12 17
f 1 17 19
f 1 19 14
f 1 14 8
f 1 8 4
f 1 4 9
f 1 9 5
f 1 5 2
f 2 5 6
f 2 6 7
f 2 7 3
f 4 8 13
f 4 13 9
f 5 10 6
f 5 9 13
f 5 13 18
f 5 18 22
f 5 22 21
f 5 21 20
f 5 20 16
f 5 16 15
f 5 15 11
f 5 11 10
f 6 10 11
f 6 11 12
f 6 12 7
f 8 14 13
f 11 15 12
f 12 15 16
f 12 16 17
f 13 14 19
f 13 19 18
f 16 20 17
f 17 20 21
f 17 21 19
f 18 19 22
f 19 21 22

