# https://github.com/mikedh/trimesh
v 0.06759367 -0.06700955 -0.00162769
v 0.06727739 -0.06743244 -0.00709620
v 0.06675664 -0.06620619 -0.00489757
v 0.06462253 -0.06380833 -0.00614190
v 0.06495798 -0.06380833 0.00430393
v 0.06728058 -0.06659846 0.00152524
v 0.06755853 -0.06724830 0.00390163
v 0.06539567 -0.06752137 -0.01429554
v 0.06665440 -0.06735605 -0.00959889
v 0.06390690 -0.06380833 -0.00950065
v 0.06725822 -0.06740144 0.00724167
v 0.06631256 -0.06757820 0.01171378
v 0.06458419 -0.06380833 0.00651192
v 0.06576626 -0.06579622 0.00878072
v 0.06679497 -0.06613682 0.00390163
v 0.03947332 -0.06757820 -0.02405839
v 0.05779851 -0.06714866 -0.02280002
v 0.06162584 -0.06684312 -0.01964709
v 0.06300278 -0.06633425 -0.01705084
v 0.06286860 -0.06380833 -0.01243840
v 0.06587488 -0.06722542 -0.01209691
v 0.06601865 -0.06674385 0.01093257
v 0.06505063 -0.06673426 0.01371126
v 0.06353311 -0.06668260 0.01655076
v 0.06002207 -0.06750070 0.02044281
v 0.05339931 -0.06757820 0.02258062
v 0.06003804 -0.06380833 0.01627009
v 0.06282068 -0.06381866 0.01233594
v 0.06374717 -0.06383970 0.00974905
v 0.03495591 -0.06757820 -0.02305263
v 0.03616993 -0.06404339 -0.02283744
v 0.04170327 -0.06699441 -0.02424550
v 0.04781805 -0.06728630 -0.02449343
v 0.05063903 -0.06672355 -0.02416130
v 0.05389450 -0.06641026 -0.02352510
v 0.05614681 -0.06562758 -0.02213108
v 0.05832884 -0.06536336 -0.02063414
v 0.05858442 -0.06381386 -0.01840744
v 0.06122010 -0.06380833 -0.01553987
v 0.06235744 -0.06458068 0.01483396
v 0.06121691 -0.06622243 0.01857631
v 0.05831287 -0.06576818 0.02016213
v 0.05683049 -0.06709995 0.02160761
v 0.05327152 -0.06485043 0.02117256
v 0.05078599 -0.06419838 0.02131290
v 0.05076043 -0.06673389 0.02257594
v 0.04846020 -0.06699441 0.02289872
v 0.04297478 -0.06757820 0.02329635
v 0.05800616 -0.06409468 0.01838919
v 0.03495591 -0.06380833 0.02155148
v 0.03879922 -0.06388509 0.02188361
v 0.04572548 -0.06407734 0.02180876
v 0.03495591 -0.06757820 0.02261804
v 0.05340889 -0.06398989 -0.02154166
v 0.04258183 -0.06407366 -0.02320700
v 0.03998448 -0.06408251 -0.02310409
v 0.04453702 -0.06699441 -0.02437649
v 0.04495873 -0.06422864 -0.02330992
v 0.04816308 -0.06424340 -0.02309473
v 0.05112144 -0.06423565 -0.02252402
v 0.05595193 -0.06406480 -0.02040960
v 0.04845062 -0.06456371 0.02185554
v 0.04529738 -0.06699441 0.02306713
v 0.04262655 -0.06433824 0.02204266
f 1 2 3
f 1 3 4
f 1 4 5
f 1 5 6
f 1 6 7
f 1 7 2
f 2 8 9
f 2 9 10
f 2 10 4
f 2 4 3
f 2 7 11
f 2 11 12
f 2 12 8
f 4 10 20
f 4 20 39
f 4 39 50
f 4 50 27
f 4 27 13
f 4 13 5
f 5 13 14
f 5 14 11
f 5 11 15
f 5 15 6
f 6 15 7
f 7 15 11
f 8 16 17
f 8 17 18
f 8 18 19
f 8 19 20
f 8 20 10
f 8 10 21
f 8 21 9
f 8 12 16
f 9 21 10
f 11 14 22
f 11 22 12
f 12 22 23
f 12 23 24
f 12 24 25
f 12 25 26
f 12 26 48
f 12 48 53
f 12 53 30
f 12 30 16
f 13 27 28
f 13 28 29
f 13 29 14
f 14 29 22
f 16 30 31
f 16 31 32
f 16 32 33
f 16 33 17
f 17 33 34
f 17 34 35
f 17 35 36
f 17 36 37
f 17 37 18
f 18 37 38
f 18 38 39
f 18 39 19
f 19 39 20
f 22 29 23
f 23 40 24
f 23 29 28
f 23 28 40
f 24 41 25
f 24 40 41
f 25 42 43
f 25 43 26
f 25 41 42
f 26 43 44
f 26 44 45
f 26 45 46
f 26 46 47
f 26 47 48
f 27 49 41
f 27 41 40
f 27 40 28
f 27 50 51
f 27 51 52
f 27 52 45
f 27 45 49
f 30 50 31
f 30 53 50
f 31 38 54
f 31 54 55
f 31 55 56
f 31 56 32
f 31 50 38
f 32 57 33
f 32 56 57
f 33 57 58
f 33 58 34
f 34 58 59
f 34 59 35
f 35 59 60
f 35 60 36
f 36 60 54
f 36 54 61
f 36 61 37
f 37 61 38
f 38 61 54
f 38 50 39
f 41 49 42
f 42 44 43
f 42 49 44
f 44 49 45
f 45 52 62
f 45 62 46
f 46 62 47
f 47 63 48
f 47 62 52
f 47 52 63
f 48 63 51
f 48 51 50
f 48 50 53
f 51 63 64
f 51 64 52
f 52 64 63
f 54 60 59
f 54 59 55
f 55 58 57
f 55 57 56
f 55 59 58

