# https://github.com/mikedh/trimesh
v 0.05778517 0.04612167 -0.01900540
v 0.03173788 0.04612167 -0.01830101
v 0.04111848 0.05470152 -0.02656025
v 0.05861403 0.05462304 -0.02538957
v 0.05861403 0.04612167 0.01069314
v 0.03173788 0.05466228 -0.02599475
v 0.03173788 0.04612167 0.01157115
v 0.03173788 0.05945357 -0.02784502
v 0.04356033 0.05936638 -0.02831130
v 0.05546962 0.05814131 -0.02699677
v 0.05572486 0.06294131 -0.02811784
v 0.05861403 0.06048245 -0.02668922
v 0.05861403 0.07987430 0.01521712
v 0.05805093 0.07200944 0.01852578
v 0.05782464 0.05737400 0.01750887
v 0.04051854 0.05629716 0.01907143
v 0.03173788 0.05631460 0.01928969
v 0.03173788 0.06457183 -0.02879247
v 0.04414712 0.06446284 -0.02925876
v 0.05621165 0.06879200 -0.02824185
v 0.05861403 0.06563123 -0.02729936
v 0.05767992 0.07605523 0.01755848
v 0.05861403 0.08864598 0.00279602
v 0.05759308 0.08530210 0.00985977
v 0.05777464 0.08261219 0.01291544
v 0.04282357 0.07832226 0.01832735
v 0.04570485 0.07463833 0.01976590
v 0.04570485 0.07011735 0.02082745
v 0.05758782 0.06735331 0.01914088
v 0.05739048 0.06184267 0.01870931
v 0.04453655 0.05860343 0.01986511
v 0.03985019 0.05956692 0.02026691
v 0.03173788 0.06105793 0.02081753
v 0.03222993 0.06897511 -0.02876767
v 0.04375505 0.06875276 -0.02927364
v 0.03173788 0.07315604 -0.02806824
v 0.05546962 0.07343942 -0.02750274
v 0.05861403 0.07687485 -0.02601955
v 0.05861403 0.07109391 -0.02686780
v 0.05704314 0.08978822 -0.00391058
v 0.05563013 0.08951356 -0.00008108
v 0.03173788 0.08988413 0.00312341
v 0.05626691 0.08775661 0.00566815
v 0.05861403 0.08359747 -0.02072173
v 0.05743257 0.08961383 -0.00780954
v 0.03173788 0.08571628 0.01167036
v 0.03173788 0.08813590 0.00762755
v 0.03173788 0.07943398 0.01809421
v 0.03175630 0.07307321 0.02070344
v 0.04227099 0.07346994 0.02031652
v 0.03345086 0.06678655 0.02140287
v 0.04547856 0.06392224 0.02081753
v 0.04375505 0.07333478 -0.02842043
v 0.03173788 0.08423399 -0.02018104
v 0.03393502 0.07746776 -0.02666442
v 0.05468812 0.08293044 -0.02160966
v 0.04023963 0.07731517 -0.02689756
v 0.03173788 0.09065143 -0.00616265
v 0.03173788 0.09062091 -0.00048288
v 0.05546962 0.08521491 -0.01882186
v 0.05704314 0.08669285 -0.01638625
v 0.05704314 0.08844544 -0.01233352
v 0.03173788 0.08949612 -0.01109836
v 0.03173788 0.08759966 -0.01542391
f 1 2 3
f 1 3 4
f 1 4 5
f 1 5 7
f 1 7 2
f 2 6 3
f 2 7 17
f 2 17 33
f 2 33 48
f 2 48 46
f 2 46 47
f 2 47 42
f 2 42 59
f 2 59 58
f 2 58 63
f 2 63 64
f 2 64 54
f 2 54 36
f 2 36 18
f 2 18 8
f 2 8 6
f 3 6 8
f 3 8 9
f 3 9 4
f 4 9 10
f 4 10 11
f 4 11 12
f 4 12 21
f 4 21 39
f 4 39 38
f 4 38 44
f 4 44 23
f 4 23 13
f 4 13 5
f 5 13 14
f 5 14 15
f 5 15 16
f 5 16 7
f 7 16 17
f 8 18 9
f 9 18 19
f 9 19 11
f 9 11 10
f 11 19 20
f 11 20 21
f 11 21 12
f 13 22 14
f 13 23 24
f 13 24 25
f 13 25 26
f 13 26 22
f 14 27 28
f 14 28 29
f 14 29 15
f 14 22 27
f 15 29 30
f 15 30 31
f 15 31 16
f 16 31 17
f 17 31 32
f 17 32 33
f 18 34 35
f 18 35 19
f 18 36 34
f 19 35 20
f 20 35 37
f 20 37 38
f 20 38 39
f 20 39 21
f 22 26 27
f 23 40 41
f 23 41 42
f 23 42 43
f 23 43 24
f 23 44 45
f 23 45 40
f 24 46 25
f 24 43 47
f 24 47 46
f 25 46 48
f 25 48 26
f 26 48 49
f 26 49 50
f 26 50 27
f 27 50 28
f 28 50 49
f 28 49 51
f 28 51 52
f 28 52 29
f 29 52 30
f 30 52 31
f 31 52 32
f 32 52 33
f 33 52 51
f 33 51 49
f 33 49 48
f 34 36 35
f 35 36 53
f 35 53 37
f 36 54 55
f 36 55 53
f 37 53 38
f 38 56 44
f 38 53 57
f 38 57 56
f 40 58 59
f 40 59 41
f 40 45 58
f 41 59 42
f 42 47 43
f 44 56 60
f 44 60 61
f 44 61 62
f 44 62 45
f 45 62 63
f 45 63 58
f 53 55 57
f 54 64 60
f 54 60 56
f 54 56 57
f 54 57 55
f 60 64 61
f 61 64 63
f 61 63 62

