# https://github.com/mikedh/trimesh
v 0.00390626 0.04004183 -0.01464439
v 0.00390877 0.04014163 0.00938358
v 0.00391128 0.03828012 -0.01461341
v -0.01054874 0.04024030 -0.01345991
v 0.00390626 0.03828411 0.00970294
v 0.00391128 0.03672201 0.00968149
v -0.00859699 0.04024030 0.00952658
v 0.00390877 0.03478464 -0.01418442
v -0.00978108 0.03441394 -0.01330738
v -0.01171527 0.03441394 -0.01308336
v -0.01191346 0.04024030 -0.01325734
v -0.00859699 0.03478693 0.00963144
v 0.00390877 0.03478750 0.00957663
v -0.00995920 0.04024030 0.00946462
v -0.01000435 0.03478693 0.00958854
v -0.01132141 0.03441394 0.00948368
v -0.01293950 0.03441394 -0.01281882
v -0.01346131 0.04024030 -0.01290223
v -0.01080713 0.04024030 0.00940265
v -0.01171527 0.03515991 0.00949798
v -0.01256571 0.03478693 0.00940265
v -0.01497906 0.03478693 0.00856613
v -0.01606030 0.03478693 0.00807279
v -0.01696342 0.03478693 0.00749128
v -0.01784397 0.03478693 0.00680490
v -0.02102246 0.03441394 0.00159511
v -0.01457516 0.03441394 -0.01235885
v -0.01438952 0.04024030 -0.01263054
v -0.01171276 0.04024030 0.00931924
v -0.01256822 0.03602280 0.00939550
v -0.01338856 0.03515991 0.00916671
v -0.01484108 0.04004297 0.00852085
v -0.01630866 0.04024030 0.00780110
v -0.01784397 0.04024030 0.00674770
v -0.01850375 0.04024030 0.00614236
v -0.01870444 0.03478693 0.00601366
v -0.01926137 0.03478693 0.00532728
v -0.02012937 0.03478693 0.00399505
v -0.02081173 0.03478693 0.00237443
v -0.02128838 0.04024030 0.00125192
v -0.02124072 0.03478693 0.00078003
v -0.02140629 0.03441394 -0.00037584
v -0.01546323 0.04024030 -0.01215865
v -0.01647423 0.03441394 -0.01143653
v -0.01318786 0.04004297 0.00905708
v -0.01930402 0.04024030 0.00534873
v -0.01988854 0.04024030 0.00451221
v -0.02072142 0.04024030 0.00312039
v -0.02159946 0.04024030 -0.00051169
v -0.02171736 0.04024030 -0.00202267
v -0.02145395 0.03441394 -0.00271620
v -0.01720425 0.03458675 -0.01103138
v -0.01656956 0.04024030 -0.01149373
v -0.01868939 0.03441394 -0.00962764
v -0.02157437 0.04024030 -0.00390306
v -0.02121563 0.03441394 -0.00427723
v -0.01811490 0.04024030 -0.01035453
v -0.01725945 0.03958443 -0.01099563
v -0.01900799 0.04024030 -0.00963479
v -0.01995627 0.03441394 -0.00771627
v -0.02065619 0.04024030 -0.00723247
v -0.02122566 0.04024030 -0.00546648
v -0.02081424 0.03441394 -0.00574770
v -0.02040533 0.03441394 -0.00684400
f 1 2 3
f 1 3 4
f 1 4 2
f 2 5 6
f 2 6 3
f 2 4 7
f 2 7 5
f 3 6 8
f 3 8 9
f 3 9 4
f 4 9 10
f 4 10 11
f 4 11 18
f 4 18 28
f 4 28 43
f 4 43 53
f 4 53 57
f 4 57 59
f 4 59 61
f 4 61 62
f 4 62 55
f 4 55 50
f 4 50 49
f 4 49 40
f 4 40 48
f 4 48 47
f 4 47 46
f 4 46 35
f 4 35 34
f 4 34 33
f 4 33 29
f 4 29 19
f 4 19 14
f 4 14 7
f 5 12 6
f 5 7 12
f 6 12 13
f 6 13 8
f 7 14 15
f 7 15 12
f 8 13 9
f 9 16 26
f 9 26 42
f 9 42 51
f 9 51 56
f 9 56 63
f 9 63 64
f 9 64 60
f 9 60 54
f 9 54 44
f 9 44 27
f 9 27 17
f 9 17 10
f 9 13 16
f 10 17 11
f 11 17 18
f 12 15 16
f 12 16 13
f 14 19 20
f 14 20 15
f 15 20 16
f 16 20 21
f 16 21 22
f 16 22 23
f 16 23 24
f 16 24 25
f 16 25 26
f 17 27 18
f 18 27 28
f 19 29 30
f 19 30 20
f 20 30 21
f 21 30 31
f 21 31 22
f 22 31 32
f 22 32 23
f 23 32 33
f 23 33 24
f 24 34 25
f 24 33 34
f 25 34 35
f 25 35 36
f 25 36 26
f 26 36 37
f 26 37 38
f 26 38 39
f 26 39 40
f 26 40 41
f 26 41 42
f 27 43 28
f 27 44 43
f 29 33 32
f 29 32 45
f 29 45 30
f 30 45 31
f 31 45 32
f 35 46 36
f 36 46 37
f 37 46 47
f 37 47 38
f 38 48 39
f 38 47 48
f 39 48 40
f 40 49 41
f 41 49 42
f 42 49 50
f 42 50 51
f 43 44 52
f 43 52 53
f 44 54 52
f 50 55 51
f 51 55 56
f 52 57 58
f 52 58 53
f 52 54 59
f 52 59 57
f 53 58 57
f 54 60 61
f 54 61 59
f 55 62 56
f 56 62 63
f 60 64 61
f 61 64 63
f 61 63 62

