# https://github.com/mikedh/trimesh
v 0.06395842 0.04094457 -0.01871730
v 0.06715103 0.04193481 -0.01866521
v 0.06677026 0.03898837 -0.01869278
v 0.03594546 0.03441337 -0.01841090
v 0.03282315 0.03441337 -0.01838026
v 0.02630905 0.04193481 -0.01798195
v 0.07065998 0.04193481 -0.01834043
v 0.07031435 0.03906494 -0.01837413
v 0.03828866 0.03441337 -0.01833430
v 0.06878542 0.03586376 -0.01761121
v 0.03128835 0.03441337 0.01258408
v 0.02538348 0.03460038 -0.01803710
v 0.02057406 0.03878223 -0.01768781
v 0.02194484 0.04193481 -0.01757138
v 0.07500075 0.04193481 -0.01656334
v 0.07338981 0.03901414 -0.01746414
v 0.07214205 0.03560534 -0.01660623
v 0.04298092 0.03441337 -0.01811676
v 0.06658281 0.03445165 -0.01688811
v 0.02057406 0.03828305 0.01213061
v 0.02500857 0.03460038 0.01227768
v 0.03404161 0.03441337 0.01249829
v 0.03165154 0.04193481 0.01168940
v 0.02813089 0.04193481 0.01177213
v 0.02057406 0.04107635 0.01190388
v 0.02141762 0.03473216 -0.01768474
v 0.02070880 0.03478664 0.01188549
v 0.07729709 0.04193481 -0.01412443
v 0.07607277 0.03945589 -0.01553691
v 0.07604934 0.03675756 -0.01426231
v 0.07364170 0.03460553 -0.01489348
v 0.06775441 0.03441337 0.00782575
v 0.07684603 0.03460332 -0.00934772
v 0.07371199 0.03450761 0.00575145
v 0.03759742 0.03441337 0.01218270
v 0.06718618 0.04082456 0.01038722
v 0.05489609 0.04066921 0.01094792
v 0.07261655 0.04193481 0.00949867
v 0.07884360 0.04193481 -0.01138831
v 0.07797662 0.03984609 -0.01268130
v 0.07589117 0.03507525 -0.01253730
v 0.07821680 0.03795911 -0.01108192
v 0.07021477 0.03490518 0.00788703
v 0.04301021 0.03441337 0.01146267
v 0.07637153 0.03476971 0.00243319
v 0.07906621 0.03828305 -0.00859092
v 0.07816994 0.03561050 -0.00643083
v 0.07603177 0.03678996 0.00603640
v 0.07409276 0.03670308 0.00781043
v 0.06914275 0.03744006 0.00977136
v 0.07037879 0.04079216 0.01007776
v 0.07293874 0.03888235 0.00931484
v 0.07508277 0.04193481 0.00814134
v 0.08019094 0.04193481 -0.00738985
v 0.07818165 0.03590647 -0.00092491
v 0.07794147 0.03848037 0.00410917
v 0.07959929 0.03861510 -0.00496626
v 0.07959343 0.03865118 -0.00177056
v 0.07600247 0.03984609 0.00761128
v 0.07734396 0.04193481 0.00590465
v 0.08041941 0.04193481 -0.00485596
v 0.07913065 0.03945589 0.00155996
v 0.07883775 0.04193481 0.00300921
v 0.08026124 0.04193481 -0.00186860
f 1 2 3
f 1 3 4
f 1 4 5
f 1 5 6
f 1 6 2
f 2 7 8
f 2 8 3
f 2 6 14
f 2 14 24
f 2 24 23
f 2 23 38
f 2 38 53
f 2 53 60
f 2 60 63
f 2 63 64
f 2 64 61
f 2 61 54
f 2 54 39
f 2 39 28
f 2 28 15
f 2 15 7
f 3 9 4
f 3 8 10
f 3 10 9
f 4 9 18
f 4 18 32
f 4 32 44
f 4 44 35
f 4 35 22
f 4 22 11
f 4 11 5
f 5 11 12
f 5 12 6
f 6 12 13
f 6 13 14
f 7 15 16
f 7 16 8
f 8 16 17
f 8 17 10
f 9 10 18
f 10 19 18
f 10 17 19
f 11 20 21
f 11 21 12
f 11 22 23
f 11 23 24
f 11 24 25
f 11 25 20
f 12 21 26
f 12 26 13
f 13 25 14
f 13 26 27
f 13 27 20
f 13 20 25
f 14 25 24
f 15 28 29
f 15 29 16
f 16 29 30
f 16 30 17
f 17 30 31
f 17 31 19
f 18 19 32
f 19 31 33
f 19 33 34
f 19 34 32
f 20 27 21
f 21 27 26
f 22 35 36
f 22 36 37
f 22 37 23
f 23 37 36
f 23 36 38
f 28 39 40
f 28 40 29
f 29 40 30
f 30 41 31
f 30 40 42
f 30 42 41
f 31 41 33
f 32 43 44
f 32 34 43
f 33 45 34
f 33 41 42
f 33 42 46
f 33 46 47
f 33 47 45
f 34 45 48
f 34 48 49
f 34 49 43
f 35 44 50
f 35 50 36
f 36 50 51
f 36 51 38
f 38 51 52
f 38 52 53
f 39 54 42
f 39 42 40
f 42 54 46
f 43 50 44
f 43 49 50
f 45 47 55
f 45 55 56
f 45 56 48
f 46 54 57
f 46 57 47
f 47 57 58
f 47 58 55
f 48 56 59
f 48 59 49
f 49 52 50
f 49 59 52
f 50 52 51
f 52 59 53
f 53 59 60
f 54 61 57
f 55 58 62
f 55 62 56
f 56 60 59
f 56 62 63
f 56 63 60
f 57 61 58
f 58 61 64
f 58 64 62
f 62 64 63

