# https://github.com/mikedh/trimesh
v 0.03173525 0.04478359 0.01151479
v 0.03159566 0.05547478 0.01885184
v 0.02915283 0.04987643 0.02077098
v 0.02776689 0.04686321 0.01922583
v 0.02577939 0.04620385 0.01796608
v 0.02723180 0.04478359 0.01233166
v 0.03173525 0.04478359 -0.01808435
v 0.03165880 0.05474424 -0.02602666
v 0.02656376 0.05547478 0.01932916
v 0.02698585 0.05160125 0.02128276
v 0.02269843 0.05547478 -0.02628747
v 0.02761733 0.04860792 0.02103179
v 0.02577939 0.04730593 0.02025921
v 0.01953106 0.04720964 0.02043636
v 0.00274365 0.04679518 0.02013127
v 0.01953106 0.04612116 0.01796608
v 0.02484879 0.04478359 0.01252358
v 0.02577939 0.04478359 -0.02065797
v 0.02510470 0.04516769 -0.02481612
v 0.02551350 0.04676169 -0.02691242
v 0.02757412 0.04840907 -0.02691734
v 0.02460949 0.05000411 -0.02772929
v 0.01796565 0.05547478 0.01978188
v 0.01796565 0.05256309 0.02157309
v 0.01982686 0.05135530 0.02198644
v 0.02108982 0.04969013 0.02195692
v 0.01679575 0.05000411 -0.02773421
v 0.00937419 0.05547478 -0.02587411
v 0.01875002 0.04926625 0.02199136
v 0.00291980 0.04884446 0.02196184
v -0.00221846 0.04988061 0.01836959
v -0.00221846 0.04769109 0.01639139
v -0.00221846 0.04623629 0.01416223
v -0.00221846 0.04478359 0.01004837
v 0.00234814 0.04623838 0.01796608
v 0.02345288 0.04478359 -0.02105164
v 0.01796565 0.04491441 -0.02265093
v 0.01484481 0.04528910 -0.02504740
v 0.01484481 0.04713010 -0.02710433
v 0.01796565 0.04766178 -0.02748816
v 0.01484481 0.04922334 -0.02779326
v 0.01172397 0.05547478 0.01996396
v 0.00938084 0.05285406 0.02173548
v 0.00390690 0.05078384 0.02247853
v 0.00234814 0.04922334 -0.02727656
v 0.00011802 0.05126005 -0.02673527
v 0.00327875 0.05547478 -0.02543123
v 0.00181305 0.05144949 0.02213899
v -0.00221846 0.05263740 0.02024937
v -0.00221846 0.04478359 -0.01602741
v 0.00144745 0.04536969 -0.02383194
v 0.00234814 0.04678053 -0.02621857
v 0.00673859 0.04722430 -0.02684352
v 0.00547231 0.05547478 0.02009190
v 0.00054344 0.04826673 -0.02674511
v -0.00221846 0.05044788 -0.02521963
v -0.00221846 0.05271799 -0.02533773
v -0.00221846 0.05547478 -0.02312826
v -0.00221846 0.05486670 0.01977696
v -0.00221846 0.04645294 -0.02155357
v -0.00149724 0.04504210 -0.01922107
v 0.00032741 0.04655655 -0.02540170
v -0.00221846 0.04815684 -0.02330541
f 1 2 3
f 1 3 4
f 1 4 5
f 1 5 6
f 1 6 17
f 1 17 34
f 1 34 50
f 1 50 36
f 1 36 18
f 1 18 7
f 1 7 8
f 1 8 2
f 2 9 10
f 2 10 3
f 2 8 11
f 2 11 28
f 2 28 47
f 2 47 58
f 2 58 54
f 2 54 42
f 2 42 23
f 2 23 9
f 3 10 12
f 3 12 4
f 4 12 13
f 4 13 14
f 4 14 5
f 5 14 15
f 5 15 16
f 5 16 17
f 5 17 6
f 7 18 19
f 7 19 20
f 7 20 21
f 7 21 8
f 8 21 22
f 8 22 11
f 9 23 24
f 9 24 10
f 10 24 25
f 10 25 26
f 10 26 12
f 11 22 27
f 11 27 28
f 12 26 29
f 12 29 13
f 13 29 14
f 14 29 30
f 14 30 15
f 15 30 31
f 15 31 32
f 15 32 33
f 15 33 34
f 15 34 35
f 15 35 16
f 16 35 17
f 17 35 34
f 18 36 19
f 19 36 37
f 19 37 38
f 19 38 20
f 20 39 40
f 20 40 22
f 20 22 21
f 20 38 39
f 22 40 41
f 22 41 27
f 23 42 43
f 23 43 24
f 24 43 25
f 25 44 26
f 25 43 44
f 26 44 29
f 27 41 45
f 27 45 46
f 27 46 28
f 28 46 47
f 29 44 30
f 30 44 48
f 30 48 49
f 30 49 31
f 31 49 59
f 31 59 58
f 31 58 57
f 31 57 56
f 31 56 63
f 31 63 60
f 31 60 50
f 31 50 34
f 31 34 33
f 31 33 32
f 36 50 37
f 37 50 51
f 37 51 38
f 38 51 52
f 38 52 39
f 39 52 53
f 39 53 40
f 40 53 45
f 40 45 41
f 42 54 43
f 43 48 44
f 43 54 48
f 45 53 55
f 45 55 46
f 46 55 56
f 46 56 57
f 46 57 47
f 47 57 58
f 48 54 59
f 48 59 49
f 50 60 61
f 50 61 51
f 51 62 52
f 51 61 62
f 52 55 53
f 52 62 55
f 54 58 59
f 55 62 56
f 56 62 63
f 60 63 62
f 60 62 61

