# https://github.com/mikedh/trimesh
v 0.03919518 -0.07476600 -0.00054290
v 0.03861667 -0.07498717 -0.02668135
v 0.01949696 -0.07476600 -0.00054290
v 0.01949696 -0.09242013 -0.00066369
v 0.03919518 -0.09202530 -0.00166934
v 0.03919518 -0.07735069 -0.02727968
v 0.03598252 -0.07527781 -0.02703810
v 0.01950853 -0.07526868 -0.02587514
v 0.03671916 -0.07735069 -0.02767014
v 0.01949696 -0.07732875 -0.02656618
v 0.01949696 -0.09344011 -0.02032160
v 0.02266140 -0.09335420 -0.01952944
v 0.03437620 -0.09310926 -0.01952944
v 0.03873815 -0.09301969 -0.02031318
v 0.03919518 -0.09214594 -0.02571503
v 0.03919518 -0.07937786 -0.02781060
v 0.03203131 -0.07735069 -0.02740328
v 0.03919518 -0.08148729 -0.02829938
v 0.03623321 -0.07970140 -0.02821791
v 0.03203131 -0.07891539 -0.02779094
v 0.02187848 -0.07891539 -0.02710552
v 0.01949696 -0.08508099 -0.02830500
v 0.01949696 -0.09333409 -0.02265595
v 0.02109750 -0.09330485 -0.02265595
v 0.03593817 -0.09303066 -0.02265595
v 0.03873815 -0.09297582 -0.02265595
v 0.03873815 -0.09270529 -0.02421779
v 0.03593817 -0.09275647 -0.02421779
v 0.03164178 -0.09260475 -0.02480770
v 0.02969028 -0.09240368 -0.02541165
v 0.03203131 -0.09195949 -0.02618414
v 0.03281230 -0.09117531 -0.02713923
v 0.03919518 -0.09057575 -0.02766453
v 0.03919518 -0.08327683 -0.02863647
v 0.03593817 -0.08360220 -0.02902693
v 0.03593817 -0.08203932 -0.02873198
v 0.02109750 -0.08515960 -0.02842579
v 0.01951624 -0.08671517 -0.02847916
v 0.01951624 -0.08844438 -0.02816454
v 0.01950660 -0.09046242 -0.02732182
v 0.01949696 -0.09291915 -0.02421779
v 0.02578534 -0.09240916 -0.02540603
v 0.02969028 -0.09194852 -0.02619257
v 0.02656633 -0.09194121 -0.02618695
v 0.02656633 -0.09115886 -0.02707181
v 0.03515718 -0.09032532 -0.02792858
v 0.03593817 -0.08955211 -0.02836961
v 0.03919518 -0.08717946 -0.02894266
v 0.03919518 -0.08483606 -0.02886400
v 0.03437620 -0.08515960 -0.02924042
v 0.02187848 -0.08672430 -0.02861399
v 0.02125369 -0.08838406 -0.02826567
v 0.02246471 -0.08948813 -0.02796229
v 0.02969028 -0.08672430 -0.02904097
v 0.02734732 -0.09008952 -0.02786397
v 0.02109750 -0.09111316 -0.02698473
v 0.01950660 -0.09214228 -0.02576278
v 0.02324569 -0.09133983 -0.02680776
v 0.03281230 -0.09027048 -0.02792015
v 0.03125032 -0.08944426 -0.02828252
v 0.03359328 -0.08889771 -0.02854939
v 0.03281230 -0.08672430 -0.02918705
v 0.02734732 -0.08930900 -0.02821511
v 0.02500436 -0.08960512 -0.02800442
f 1 2 3
f 1 3 4
f 1 4 5
f 1 5 15
f 1 15 33
f 1 33 48
f 1 48 49
f 1 49 34
f 1 34 18
f 1 18 16
f 1 16 6
f 1 6 2
f 2 7 8
f 2 8 3
f 2 6 9
f 2 9 7
f 3 8 10
f 3 10 22
f 3 22 41
f 3 41 23
f 3 23 11
f 3 11 4
f 4 11 12
f 4 12 13
f 4 13 5
f 5 13 14
f 5 14 15
f 6 16 9
f 7 10 8
f 7 9 17
f 7 17 10
f 9 16 18
f 9 18 19
f 9 19 20
f 9 20 17
f 10 17 20
f 10 20 21
f 10 21 22
f 11 14 13
f 11 13 12
f 11 23 24
f 11 24 25
f 11 25 26
f 11 26 14
f 14 26 15
f 15 26 27
f 15 27 28
f 15 28 29
f 15 29 30
f 15 30 31
f 15 31 32
f 15 32 33
f 18 34 35
f 18 35 36
f 18 36 19
f 19 36 20
f 20 36 22
f 20 22 21
f 22 36 37
f 22 37 38
f 22 38 39
f 22 39 40
f 22 40 41
f 23 41 28
f 23 28 24
f 24 28 27
f 24 27 25
f 25 27 26
f 28 41 29
f 29 41 30
f 30 42 31
f 30 41 42
f 31 42 43
f 31 43 32
f 32 43 44
f 32 44 45
f 32 45 46
f 32 46 33
f 33 46 47
f 33 47 48
f 34 49 35
f 35 50 36
f 35 49 50
f 36 50 37
f 37 50 38
f 38 50 51
f 38 51 39
f 39 52 53
f 39 53 40
f 39 51 54
f 39 54 52
f 40 53 55
f 40 55 56
f 40 56 57
f 40 57 41
f 41 57 42
f 42 57 44
f 42 44 43
f 44 57 58
f 44 58 45
f 45 58 56
f 45 56 59
f 45 59 46
f 46 59 47
f 47 60 61
f 47 61 62
f 47 62 48
f 47 59 55
f 47 55 60
f 48 62 50
f 48 50 49
f 50 62 54
f 50 54 51
f 52 63 53
f 52 54 62
f 52 62 63
f 53 63 64
f 53 64 55
f 55 64 63
f 55 63 60
f 55 59 56
f 56 58 57
f 60 63 61
f 61 63 62

