# https://github.com/mikedh/trimesh
v -0.05414724 -0.03550550 0.00056575
v -0.05950224 -0.03550550 0.00475464
v -0.05784369 -0.03538841 0.00156352
v -0.05804836 -0.03410369 0.00056575
v -0.06210653 -0.01865739 0.00056575
v -0.06947473 -0.01865739 0.02253374
v -0.06247881 -0.03550550 0.02235526
v -0.06064735 -0.03523339 0.00677812
v -0.06184010 -0.03319004 0.00683188
v -0.06068087 -0.03302842 0.00429876
v -0.05928346 -0.03466937 0.00338271
v -0.06240824 -0.03550550 0.01167232
v -0.05918289 -0.03218734 0.00056575
v -0.06364686 -0.02230540 0.00056575
v -0.06438086 -0.02063312 0.00090336
v -0.06505310 -0.01908618 0.00132913
v -0.06793263 -0.01865739 0.00720819
v -0.07217252 -0.01911421 0.02253374
v -0.06542363 -0.03550550 0.02253374
v -0.06215416 -0.03461164 0.00954132
v -0.06320752 -0.03052166 0.00680607
v -0.06217357 -0.03093065 0.00506214
v -0.06317753 -0.03222692 0.00882740
v -0.06018508 -0.03033365 0.00056575
v -0.06314929 -0.03495962 0.01296683
v -0.06333632 -0.03320654 0.01068746
v -0.06303990 -0.02384739 0.00056575
v -0.06299755 -0.02568293 0.00185811
v -0.06498429 -0.02405353 0.00453960
v -0.06602706 -0.02159624 0.00495677
v -0.06596001 -0.01949682 0.00346228
v -0.06694808 -0.01907133 0.00531803
v -0.06705042 -0.02077330 0.00665125
v -0.06761327 -0.02144947 0.00849840
v -0.06857840 -0.01912411 0.00920371
v -0.06952943 -0.01909607 0.01217120
v -0.07037458 -0.02481216 0.02253374
v -0.06917301 -0.02085906 0.01278190
v -0.06652639 -0.03350834 0.02253374
v -0.06439674 -0.03327745 0.01412587
v -0.06450436 -0.02876857 0.00793931
v -0.06466316 -0.02618099 0.00561908
v -0.06326222 -0.02845687 0.00483850
v -0.06202536 -0.02851954 0.00244516
v -0.06464905 -0.03105929 0.01128310
v -0.06192479 -0.02679944 0.00072488
v -0.06455730 -0.03226650 0.01281846
v -0.06588591 -0.02415743 0.00659104
v -0.06615586 -0.02548668 0.00850055
v -0.06765385 -0.02274078 0.00989398
v -0.06856252 -0.02101573 0.01089819
v -0.06922418 -0.02761084 0.02253374
v -0.06850959 -0.02290405 0.01277115
v -0.06779500 -0.02489462 0.01278190
v -0.06693044 -0.02708145 0.01278190
v -0.06803143 -0.03031880 0.02253374
v -0.06548362 -0.03106754 0.01412587
v -0.06536011 -0.02758115 0.00874569
v -0.06615057 -0.02806436 0.01160351
v -0.06577651 -0.02965583 0.01278190
v -0.06610293 -0.02693797 0.01001655
v -0.06709453 -0.02578024 0.01153039
v -0.06715099 -0.02459612 0.01038426
v -0.06780206 -0.02363959 0.01130246
f 1 2 3
f 1 3 4
f 1 4 13
f 1 13 24
f 1 24 27
f 1 27 14
f 1 14 5
f 1 5 6
f 1 6 7
f 1 7 19
f 1 19 12
f 1 12 2
f 2 8 9
f 2 9 10
f 2 10 11
f 2 11 3
f 2 12 8
f 3 11 4
f 4 11 13
f 5 14 15
f 5 15 16
f 5 16 17
f 5 17 6
f 6 18 37
f 6 37 52
f 6 52 56
f 6 56 39
f 6 39 19
f 6 19 7
f 6 17 18
f 8 12 20
f 8 20 9
f 9 21 22
f 9 22 10
f 9 20 23
f 9 23 21
f 10 24 13
f 10 13 11
f 10 22 24
f 12 19 25
f 12 25 26
f 12 26 20
f 14 27 28
f 14 28 29
f 14 29 30
f 14 30 15
f 15 31 16
f 15 30 31
f 16 31 32
f 16 32 17
f 17 32 33
f 17 33 34
f 17 34 35
f 17 35 36
f 17 36 18
f 18 36 38
f 18 38 37
f 19 39 40
f 19 40 25
f 20 26 23
f 21 23 41
f 21 41 42
f 21 42 43
f 21 43 22
f 22 43 44
f 22 44 24
f 23 26 45
f 23 45 41
f 24 44 46
f 24 46 27
f 25 40 47
f 25 47 26
f 26 47 45
f 27 46 28
f 28 46 44
f 28 44 43
f 28 43 42
f 28 42 29
f 29 42 48
f 29 48 30
f 30 48 33
f 30 33 32
f 30 32 31
f 33 48 34
f 34 48 49
f 34 49 50
f 34 50 51
f 34 51 35
f 35 51 36
f 36 51 38
f 37 38 53
f 37 53 54
f 37 54 55
f 37 55 52
f 38 51 53
f 39 56 57
f 39 57 47
f 39 47 40
f 41 45 58
f 41 58 42
f 42 58 49
f 42 49 48
f 45 59 58
f 45 47 60
f 45 60 59
f 47 57 60
f 49 58 61
f 49 61 62
f 49 62 63
f 49 63 50
f 50 63 64
f 50 64 51
f 51 64 53
f 52 55 56
f 53 64 54
f 54 64 62
f 54 62 55
f 55 62 59
f 55 59 60
f 55 60 56
f 56 60 57
f 58 59 61
f 59 62 61
f 62 64 63

