# https://github.com/mikedh/trimesh
v 0.04480628 -0.05561292 0.02242485
v 0.04480628 -0.05621414 0.02413384
v 0.04480628 -0.05894105 0.02242485
v 0.02554733 -0.06662246 0.02242485
v 0.01847472 -0.06908646 0.02313390
v 0.04480628 -0.05733507 0.02551503
v 0.01847472 -0.06991595 0.02474482
v 0.04480628 -0.06526308 0.02318568
v 0.04323917 -0.06023318 0.02242485
v 0.02602674 -0.06938402 0.02242485
v 0.01847472 -0.07210074 0.02310360
v 0.04480628 -0.05971347 0.02685159
v 0.01847730 -0.07138538 0.02639101
v 0.01847730 -0.07319517 0.02749233
v 0.04480628 -0.06135207 0.02745266
v 0.04443770 -0.06703007 0.02640699
v 0.04423665 -0.06775969 0.02489413
v 0.04398149 -0.06723387 0.02368097
v 0.03391126 -0.07158103 0.02311406
v 0.03816668 -0.06362653 0.02242485
v 0.02589271 -0.07523933 0.02363249
v 0.02767633 -0.06877056 0.02242485
v 0.01847730 -0.07448933 0.02419114
v 0.02199041 -0.07448933 0.02359172
v 0.01908816 -0.07445876 0.02790332
v 0.04453564 -0.06337585 0.02773143
v 0.04426501 -0.06555044 0.02744991
v 0.04280615 -0.06683442 0.02736066
v 0.03986267 -0.06917614 0.02714800
v 0.04166690 -0.06865847 0.02649128
v 0.03766150 -0.07130386 0.02553101
v 0.03510206 -0.07265101 0.02475750
v 0.03773882 -0.07084530 0.02381320
v 0.03308389 -0.06636363 0.02242540
v 0.03638822 -0.06463333 0.02242485
v 0.03554281 -0.07201718 0.02385286
v 0.03058373 -0.07368837 0.02359999
v 0.02893157 -0.07454436 0.02374488
v 0.03103221 -0.06734393 0.02242540
v 0.02780005 -0.07542275 0.02415643
v 0.02554733 -0.07643159 0.02509963
v 0.02171719 -0.07448933 0.02798321
v 0.02624067 -0.07332764 0.02805318
v 0.02825884 -0.07198457 0.02802288
v 0.02554733 -0.07616257 0.02646318
v 0.03968998 -0.06660412 0.02787137
v 0.04103284 -0.06660412 0.02778487
v 0.03990648 -0.06772912 0.02772592
v 0.03853011 -0.06968769 0.02726149
v 0.03638822 -0.07084326 0.02724606
v 0.03376692 -0.07279979 0.02657447
v 0.03212249 -0.07404299 0.02516078
v 0.03044455 -0.07466052 0.02490405
v 0.02848051 -0.07542683 0.02546985
v 0.02566074 -0.07504164 0.02749729
v 0.02373794 -0.07448933 0.02791710
v 0.02758612 -0.07332764 0.02798817
v 0.03834195 -0.06794923 0.02786256
v 0.02752426 -0.07508036 0.02701467
v 0.03700166 -0.06929231 0.02775347
v 0.03296017 -0.07198253 0.02754136
v 0.03108118 -0.07350291 0.02715736
v 0.02893157 -0.07437112 0.02719097
v 0.02893157 -0.07332764 0.02780856
f 1 2 6
f 1 6 12
f 1 12 15
f 1 15 8
f 1 8 3
f 1 3 9
f 1 9 20
f 1 20 35
f 1 35 22
f 1 22 10
f 1 10 4
f 1 4 5
f 1 5 2
f 2 5 7
f 2 7 6
f 3 8 9
f 4 10 11
f 4 11 5
f 5 11 7
f 6 7 13
f 6 13 14
f 6 14 12
f 7 11 14
f 7 14 13
f 8 15 16
f 8 16 17
f 8 17 18
f 8 18 19
f 8 19 20
f 8 20 9
f 10 21 11
f 10 22 19
f 10 19 21
f 11 23 14
f 11 21 24
f 11 24 23
f 12 14 15
f 14 23 25
f 14 25 15
f 15 26 16
f 15 25 26
f 16 26 27
f 16 27 28
f 16 28 29
f 16 29 30
f 16 30 17
f 17 30 31
f 17 31 32
f 17 32 33
f 17 33 18
f 18 33 19
f 19 34 35
f 19 35 20
f 19 33 36
f 19 36 37
f 19 37 38
f 19 38 21
f 19 22 39
f 19 39 34
f 21 38 40
f 21 40 41
f 21 41 23
f 21 23 24
f 22 35 39
f 23 41 25
f 25 42 43
f 25 43 44
f 25 44 26
f 25 41 45
f 25 45 42
f 26 44 46
f 26 46 47
f 26 47 27
f 27 47 48
f 27 48 28
f 28 48 29
f 29 48 49
f 29 49 50
f 29 50 51
f 29 51 30
f 30 51 31
f 31 51 52
f 31 52 32
f 32 36 33
f 32 52 53
f 32 53 40
f 32 40 36
f 34 39 35
f 36 40 38
f 36 38 37
f 40 53 41
f 41 53 54
f 41 54 45
f 42 45 55
f 42 55 56
f 42 56 43
f 43 57 58
f 43 58 46
f 43 46 44
f 43 56 57
f 45 54 51
f 45 51 59
f 45 59 55
f 46 58 47
f 47 58 48
f 48 58 60
f 48 60 49
f 49 60 61
f 49 61 50
f 50 61 62
f 50 62 51
f 51 62 59
f 51 54 52
f 52 54 53
f 55 59 63
f 55 63 64
f 55 64 57
f 55 57 56
f 57 64 60
f 57 60 58
f 59 62 63
f 60 64 61
f 61 64 62
f 62 64 63

