# https://github.com/mikedh/trimesh
v 0.01642540 0.07065486 0.01277994
v 0.01592537 0.07039837 0.01122601
v 0.01344872 0.07344474 0.02140642
v 0.01594731 0.07280134 0.02140642
v 0.01632508 0.07059618 0.02139044
v 0.01642540 0.06349812 0.00100167
v 0.01594261 0.06629344 0.00100167
v 0.01594731 0.06806605 0.00477663
v 0.01583289 0.06988213 0.00942642
v 0.01412588 0.07083093 0.01143374
v 0.01412588 0.07046793 0.01009153
v 0.00957072 0.07396533 0.02140642
v 0.01196743 0.07125914 0.01148167
v 0.01008799 0.07186233 0.01277994
v 0.00045883 0.07460004 0.02140642
v 0.00041181 0.07191123 0.02107486
v 0.00041181 0.06544028 0.00100167
v 0.01385783 0.06676403 0.00100167
v 0.01591440 0.06745199 0.00340646
v 0.01441743 0.06859099 0.00518408
v 0.01570905 0.06893442 0.00672403
v 0.01381551 0.06987235 0.00810418
v 0.01277939 0.07072225 0.01009153
v 0.00605638 0.07438702 0.02140642
v 0.01033409 0.07137000 0.01092442
v 0.00874151 0.07154715 0.01093840
v 0.00740129 0.07180690 0.01143374
v 0.00201849 0.07460112 0.02140642
v 0.00051056 0.07197536 0.01064080
v 0.00051056 0.07070594 0.00679393
v 0.00054348 0.06814647 0.00100167
v 0.00784490 0.06772587 0.00100167
v 0.01181538 0.06729332 0.00129128
v 0.01412588 0.06781825 0.00336451
v 0.01277939 0.06864533 0.00465479
v 0.01277939 0.06923112 0.00605492
v 0.01076045 0.07059400 0.00874533
v 0.01143291 0.07094505 0.01009153
v 0.01118995 0.07000168 0.00730924
v 0.00403744 0.07453917 0.02140642
v 0.00552343 0.07189928 0.01115811
v 0.00874151 0.07087658 0.00874533
v 0.00662538 0.07137108 0.00955824
v 0.00336498 0.07210360 0.01143374
v 0.00201849 0.07193405 0.01062482
v 0.00054348 0.07146455 0.00897103
v 0.00201849 0.07088527 0.00740112
v 0.00201849 0.07022014 0.00563148
v 0.00054348 0.06994517 0.00486051
v 0.00470989 0.06895833 0.00290113
v 0.00336498 0.06804757 0.00100167
v 0.00518015 0.06796497 0.00100167
v 0.00679467 0.06886269 0.00314081
v 0.01008799 0.06790193 0.00202031
v 0.01008799 0.06856707 0.00349234
v 0.01145329 0.06869749 0.00428329
v 0.01143291 0.06944414 0.00605492
v 0.00874151 0.07022666 0.00696570
v 0.00672884 0.07065595 0.00740112
v 0.00403744 0.07080484 0.00740112
v 0.00201849 0.07144172 0.00902895
v 0.00580558 0.06985605 0.00521604
v 0.00740129 0.06974736 0.00533188
v 0.00874151 0.06881378 0.00361418
f 1 2 3
f 1 3 4
f 1 4 5
f 1 5 6
f 1 6 7
f 1 7 8
f 1 8 9
f 1 9 2
f 2 10 3
f 2 9 11
f 2 11 10
f 3 12 24
f 3 24 40
f 3 40 28
f 3 28 15
f 3 15 4
f 3 10 13
f 3 13 14
f 3 14 12
f 4 15 5
f 5 15 16
f 5 16 6
f 6 17 31
f 6 31 51
f 6 51 52
f 6 52 32
f 6 32 18
f 6 18 7
f 6 16 17
f 7 18 19
f 7 19 8
f 8 19 20
f 8 20 21
f 8 21 9
f 9 22 11
f 9 21 22
f 10 11 13
f 11 22 23
f 11 23 13
f 12 14 24
f 13 23 25
f 13 25 14
f 14 25 26
f 14 26 27
f 14 27 24
f 15 28 29
f 15 29 30
f 15 30 17
f 15 17 16
f 17 30 31
f 18 32 33
f 18 33 34
f 18 34 19
f 19 34 20
f 20 34 33
f 20 33 35
f 20 35 36
f 20 36 22
f 20 22 21
f 22 37 38
f 22 38 23
f 22 36 39
f 22 39 37
f 23 38 25
f 24 27 41
f 24 41 40
f 25 38 42
f 25 42 43
f 25 43 26
f 26 43 27
f 27 43 41
f 28 40 44
f 28 44 29
f 29 44 45
f 29 45 46
f 29 46 30
f 30 47 48
f 30 48 49
f 30 49 31
f 30 46 47
f 31 49 50
f 31 50 51
f 32 52 50
f 32 50 53
f 32 53 54
f 32 54 33
f 33 54 55
f 33 55 56
f 33 56 35
f 35 56 57
f 35 57 36
f 36 57 39
f 37 42 38
f 37 39 58
f 37 58 42
f 39 57 58
f 40 41 44
f 41 43 44
f 42 58 59
f 42 59 43
f 43 59 60
f 43 60 61
f 43 61 45
f 43 45 44
f 45 61 46
f 46 61 47
f 47 60 48
f 47 61 60
f 48 62 50
f 48 50 49
f 48 60 62
f 50 52 51
f 50 62 53
f 53 62 63
f 53 63 64
f 53 64 54
f 54 64 55
f 55 64 63
f 55 63 56
f 56 63 57
f 57 63 58
f 58 63 59
f 59 63 62
f 59 62 60

