# https://github.com/mikedh/trimesh
v -0.04851072 -0.00030108 -0.02411920
v -0.04534678 0.00000000 -0.02411920
v -0.04794507 -0.00672871 -0.02411920
v -0.05331876 -0.00319104 -0.01943257
v -0.05359101 0.00000000 -0.01927554
v -0.04024270 -0.02023566 -0.02411920
v -0.06480359 0.00000000 0.00056053
v -0.04744550 -0.00929581 -0.02411920
v -0.05252050 -0.00975733 -0.01931661
v -0.05511087 -0.00558778 -0.01743712
v -0.05625539 -0.00111518 -0.01653120
v -0.05964401 -0.00117856 -0.01251615
v -0.06273659 -0.00040012 -0.00822570
v -0.06160264 -0.02023566 0.00056053
v -0.05516373 -0.02023566 -0.01345348
v -0.05066231 -0.02005343 -0.01832130
v -0.04399608 -0.01987120 -0.02411920
v -0.06724594 -0.00125780 -0.00008932
v -0.06704505 -0.00800632 0.00056053
v -0.04677148 -0.01210653 -0.02411920
v -0.05103236 -0.01458845 -0.01966448
v -0.05407208 -0.01212238 -0.01739364
v -0.05589326 -0.00847378 -0.01614709
v -0.05714087 -0.00672871 -0.01506964
v -0.05854971 -0.00437555 -0.01364674
v -0.06106607 -0.00395958 -0.01044099
v -0.06322823 -0.00269188 -0.00739709
v -0.06455777 -0.00137466 -0.00534366
v -0.06548290 -0.01619487 0.00056053
v -0.06451813 -0.01914425 0.00029963
v -0.06249341 -0.02005145 -0.00303175
v -0.05717787 -0.01965331 -0.01128651
v -0.05798142 -0.01618100 -0.01171894
v -0.05311523 -0.01772403 -0.01677761
v -0.05310730 -0.02005343 -0.01586444
v -0.05913387 -0.01987120 -0.00860740
v -0.04846579 -0.01621467 -0.02154880
v -0.04502694 -0.01743087 -0.02411920
v -0.06599040 -0.00159453 -0.00261382
v -0.06700012 -0.00504703 -0.00011106
v -0.06563357 -0.00538376 -0.00284090
v -0.06528995 -0.00806574 -0.00295203
v -0.06636574 -0.01075366 -0.00008690
v -0.04598380 -0.01476672 -0.02411920
v -0.05277690 -0.01547188 -0.01778258
v -0.05556551 -0.01325539 -0.01547550
v -0.05705364 -0.01043475 -0.01447778
v -0.05917351 -0.00995739 -0.01206923
v -0.06137004 -0.00669108 -0.00970900
v -0.06422473 -0.00531245 -0.00538473
v -0.06527145 -0.01365551 -0.00115227
v -0.06439654 -0.01625231 -0.00160643
v -0.06269165 -0.01746257 -0.00410436
v -0.06054006 -0.01918783 -0.00677623
v -0.05906778 -0.01743682 -0.00981046
v -0.05940876 -0.01462411 -0.01040717
v -0.05877438 -0.01243138 -0.01189529
v -0.05709329 -0.01450724 -0.01334960
v -0.06274716 -0.00908980 -0.00711202
v -0.06246962 -0.01295629 -0.00640420
v -0.06123523 -0.01160738 -0.00879583
v -0.06087839 -0.00942060 -0.00986120
v -0.06343705 -0.01482813 -0.00404880
v -0.06076209 -0.01494103 -0.00836099
f 1 2 6
f 1 6 17
f 1 17 38
f 1 38 44
f 1 44 20
f 1 20 8
f 1 8 3
f 1 3 4
f 1 4 5
f 1 5 2
f 2 5 7
f 2 7 6
f 3 8 9
f 3 9 10
f 3 10 4
f 4 10 11
f 4 11 5
f 5 11 12
f 5 12 13
f 5 13 7
f 6 14 15
f 6 15 16
f 6 16 17
f 6 7 14
f 7 13 18
f 7 18 19
f 7 19 29
f 7 29 14
f 8 20 21
f 8 21 22
f 8 22 9
f 9 22 10
f 10 22 23
f 10 23 24
f 10 24 11
f 11 24 25
f 11 25 12
f 12 26 13
f 12 25 26
f 13 26 27
f 13 27 28
f 13 28 18
f 14 29 30
f 14 30 31
f 14 31 15
f 15 32 33
f 15 33 34
f 15 34 35
f 15 35 16
f 15 31 36
f 15 36 32
f 16 35 34
f 16 34 37
f 16 37 38
f 16 38 17
f 18 39 40
f 18 40 19
f 18 28 39
f 19 40 41
f 19 41 42
f 19 42 43
f 19 43 29
f 20 44 37
f 20 37 21
f 21 37 45
f 21 45 22
f 22 46 47
f 22 47 23
f 22 45 34
f 22 34 46
f 23 47 24
f 24 47 48
f 24 48 25
f 25 48 49
f 25 49 26
f 26 49 27
f 27 50 28
f 27 49 50
f 28 50 41
f 28 41 39
f 29 43 51
f 29 51 52
f 29 52 30
f 30 52 31
f 31 52 53
f 31 53 54
f 31 54 36
f 32 55 33
f 32 36 55
f 33 55 56
f 33 56 57
f 33 57 58
f 33 58 34
f 34 45 37
f 34 58 46
f 36 54 55
f 37 44 38
f 39 41 40
f 41 50 42
f 42 51 43
f 42 50 59
f 42 59 60
f 42 60 51
f 46 58 47
f 47 58 57
f 47 57 48
f 48 56 61
f 48 61 62
f 48 62 49
f 48 57 56
f 49 62 59
f 49 59 50
f 51 63 52
f 51 60 63
f 52 63 53
f 53 64 54
f 53 63 64
f 54 64 55
f 55 64 56
f 56 64 61
f 59 62 61
f 59 61 60
f 60 61 64
f 60 64 63

