# https://github.com/mikedh/trimesh
v 0.05040994 0.05162941 0.02205020
v 0.05225371 0.05152026 0.02406724
v 0.05508206 0.05162941 0.02566100
v 0.06068006 0.05162941 0.02215969
v 0.05363320 0.05159207 0.02179522
v 0.05950602 0.04058292 0.02179319
v 0.06887694 0.02228701 0.02288104
v 0.06984818 0.02228701 0.02435821
v 0.07123300 0.02228701 0.02561740
v 0.05718464 0.05162941 0.02632963
v 0.07408804 0.02228701 0.02691867
v 0.06240375 0.05162941 0.02324298
v 0.06459972 0.04845850 0.02286178
v 0.06391398 0.04776343 0.02221951
v 0.06256918 0.04911049 0.02209835
v 0.05547963 0.05008991 0.02179319
v 0.06242776 0.04082419 0.02179369
v 0.07145981 0.02228701 0.02237311
v 0.06120570 0.04287494 0.02179319
v 0.05920451 0.05104061 0.02651567
v 0.06203820 0.05156909 0.02544809
v 0.07766350 0.02228701 0.02541312
v 0.07627867 0.02291890 0.02661148
v 0.07420544 0.02453594 0.02697190
v 0.06525879 0.04751067 0.02550842
v 0.06593118 0.04708559 0.02361456
v 0.06728399 0.04420477 0.02281109
v 0.06801509 0.04238667 0.02250997
v 0.06794838 0.04103386 0.02233255
v 0.05848942 0.04641349 0.02179319
v 0.05733407 0.04784672 0.02179319
v 0.07439222 0.02893616 0.02274620
v 0.07545685 0.02670158 0.02281159
v 0.07710850 0.02246509 0.02319331
v 0.06122171 0.04911049 0.02658461
v 0.06122171 0.05045181 0.02639249
v 0.06281199 0.04983716 0.02595958
v 0.07695641 0.02536601 0.02435263
v 0.07540349 0.03008791 0.02443425
v 0.07448294 0.03221046 0.02489149
v 0.07487784 0.02935262 0.02604829
v 0.07063532 0.03565423 0.02665153
v 0.06928785 0.03767052 0.02667282
v 0.06526412 0.04658295 0.02596160
v 0.06655823 0.04496590 0.02584197
v 0.06839398 0.04219136 0.02584298
v 0.06787634 0.04409275 0.02481343
v 0.07149450 0.03848335 0.02441499
v 0.06988821 0.04024113 0.02297229
v 0.07040051 0.03833974 0.02265191
v 0.07152918 0.03640388 0.02275127
v 0.07396530 0.03129423 0.02291196
v 0.07528608 0.02849383 0.02316036
v 0.06256918 0.04776343 0.02655927
v 0.06391665 0.04641636 0.02652226
v 0.06391398 0.04776343 0.02622875
v 0.07260182 0.03518606 0.02322169
v 0.07247908 0.03638951 0.02491177
v 0.07376785 0.03185144 0.02604575
v 0.07221492 0.03507692 0.02601534
v 0.07084344 0.03741202 0.02608732
v 0.06794838 0.04103386 0.02643608
v 0.06964006 0.04015497 0.02586985
f 1 2 3
f 1 3 10
f 1 10 12
f 1 12 4
f 1 4 5
f 1 5 6
f 1 6 7
f 1 7 8
f 1 8 2
f 2 8 9
f 2 9 3
f 3 9 11
f 3 11 10
f 4 12 13
f 4 13 14
f 4 14 15
f 4 15 16
f 4 16 5
f 5 16 6
f 6 17 18
f 6 18 7
f 6 16 31
f 6 31 30
f 6 30 19
f 6 19 17
f 7 18 22
f 7 22 11
f 7 11 9
f 7 9 8
f 10 20 21
f 10 21 12
f 10 11 20
f 11 22 23
f 11 23 24
f 11 24 20
f 12 21 25
f 12 25 26
f 12 26 13
f 13 26 27
f 13 27 28
f 13 28 14
f 14 28 29
f 14 29 15
f 15 19 30
f 15 30 31
f 15 31 16
f 15 29 17
f 15 17 19
f 17 29 32
f 17 32 33
f 17 33 18
f 18 33 34
f 18 34 22
f 20 35 36
f 20 36 21
f 20 24 35
f 21 36 37
f 21 37 25
f 22 34 38
f 22 38 39
f 22 39 40
f 22 40 41
f 22 41 23
f 23 41 42
f 23 42 24
f 24 42 43
f 24 43 35
f 25 44 45
f 25 45 46
f 25 46 47
f 25 47 26
f 25 37 44
f 26 47 48
f 26 48 49
f 26 49 27
f 27 49 28
f 28 49 50
f 28 50 29
f 29 50 32
f 32 50 51
f 32 51 33
f 33 51 52
f 33 52 53
f 33 53 34
f 34 53 38
f 35 54 36
f 35 43 54
f 36 54 55
f 36 55 56
f 36 56 37
f 37 56 44
f 38 53 39
f 39 53 57
f 39 57 48
f 39 48 40
f 40 48 58
f 40 58 59
f 40 59 41
f 41 59 42
f 42 59 60
f 42 60 61
f 42 61 62
f 42 62 43
f 43 62 55
f 43 55 54
f 44 56 62
f 44 62 46
f 44 46 45
f 46 62 63
f 46 63 47
f 47 63 58
f 47 58 48
f 48 57 49
f 49 57 51
f 49 51 50
f 51 57 52
f 52 57 53
f 55 62 56
f 58 60 59
f 58 63 60
f 60 63 61
f 61 63 62

