# https://github.com/mikedh/trimesh
v 0.04480939 -0.06711752 0.02571464
v 0.04529995 -0.06583557 0.02703386
v 0.04487871 -0.06332977 0.02772272
v 0.04480939 -0.06134018 0.02745219
v 0.04480939 -0.05560729 0.02242389
v 0.04487871 -0.06685771 0.02379273
v 0.04964570 -0.06372291 0.02380108
v 0.05326361 -0.06130942 0.02468997
v 0.04959238 -0.06308022 0.02675288
v 0.04869923 -0.06341182 0.02700931
v 0.04689695 -0.06437243 0.02719315
v 0.04776876 -0.06255376 0.02761618
v 0.04941108 -0.06056759 0.02772481
v 0.05180525 -0.05852330 0.02775823
v 0.06697273 -0.03617630 0.02714615
v 0.04480939 -0.05969928 0.02685002
v 0.04480939 -0.05620895 0.02413481
v 0.06400802 -0.03219712 0.02242389
v 0.04767545 -0.05334080 0.02242285
v 0.04789407 -0.05663627 0.02242285
v 0.04567054 -0.05811308 0.02242389
v 0.04494536 -0.06524757 0.02317751
v 0.04799005 -0.06437927 0.02353682
v 0.05305299 -0.05968561 0.02291481
v 0.05106141 -0.06183245 0.02686674
v 0.05462866 -0.05816094 0.02288400
v 0.06158986 -0.05258530 0.02424814
v 0.06016883 -0.05359377 0.02603896
v 0.05572443 -0.05770627 0.02675132
v 0.04994964 -0.06198970 0.02721456
v 0.05368486 -0.05871474 0.02727775
v 0.06067006 -0.05043845 0.02738534
v 0.06256299 -0.04776857 0.02744174
v 0.06979614 -0.03738647 0.02723754
v 0.07204633 -0.03618656 0.02572717
v 0.06400802 -0.03388930 0.02432543
v 0.06434395 -0.03588231 0.02588385
v 0.04480939 -0.05732682 0.02551513
v 0.07108387 -0.03759500 0.02348460
v 0.06884434 -0.04016916 0.02278947
v 0.06476253 -0.03658311 0.02242389
v 0.05024824 -0.05094782 0.02242285
v 0.05024824 -0.05450994 0.02242285
v 0.04642505 -0.06390409 0.02306157
v 0.05268773 -0.05230498 0.02242389
v 0.05428740 -0.05058545 0.02242389
v 0.05618833 -0.04853091 0.02242493
v 0.06718602 -0.04375521 0.02321772
v 0.06465322 -0.04806257 0.02363553
v 0.06830578 -0.04333814 0.02489312
v 0.06729533 -0.04478761 0.02529892
v 0.06270429 -0.05095465 0.02561436
v 0.06595428 -0.04515681 0.02691426
v 0.06435728 -0.04659943 0.02716756
v 0.07004942 -0.03939315 0.02615438
v 0.06972415 -0.04057938 0.02372797
v 0.06880435 -0.04202201 0.02582797
v 0.05862248 -0.04557387 0.02242441
v 0.06057141 -0.04306466 0.02242389
v 0.06217374 -0.04074005 0.02242389
v 0.06325085 -0.03908206 0.02242389
v 0.06888699 -0.04215191 0.02385018
v 0.06615424 -0.04602170 0.02592406
f 1 2 3
f 1 3 4
f 1 4 16
f 1 16 38
f 1 38 17
f 1 17 5
f 1 5 6
f 1 6 7
f 1 7 8
f 1 8 9
f 1 9 2
f 2 9 10
f 2 10 11
f 2 11 12
f 2 12 3
f 3 12 13
f 3 13 14
f 3 14 15
f 3 15 4
f 4 15 16
f 5 17 18
f 5 18 19
f 5 19 20
f 5 20 21
f 5 21 22
f 5 22 6
f 6 22 23
f 6 23 7
f 7 23 24
f 7 24 8
f 8 25 9
f 8 24 26
f 8 26 27
f 8 27 28
f 8 28 29
f 8 29 25
f 9 25 10
f 10 25 30
f 10 30 11
f 11 30 12
f 12 30 31
f 12 31 14
f 12 14 13
f 14 31 32
f 14 32 33
f 14 33 34
f 14 34 15
f 15 34 35
f 15 35 18
f 15 18 36
f 15 36 37
f 15 37 16
f 16 37 38
f 17 38 18
f 18 35 39
f 18 39 40
f 18 40 41
f 18 41 42
f 18 42 19
f 18 38 36
f 19 42 43
f 19 43 20
f 20 43 26
f 20 26 24
f 20 24 21
f 21 24 44
f 21 44 22
f 22 44 24
f 22 24 23
f 25 29 31
f 25 31 30
f 26 43 45
f 26 45 46
f 26 46 47
f 26 47 40
f 26 40 48
f 26 48 49
f 26 49 27
f 27 49 50
f 27 50 51
f 27 51 52
f 27 52 28
f 28 52 53
f 28 53 29
f 29 53 54
f 29 54 32
f 29 32 31
f 32 54 33
f 33 54 34
f 34 55 35
f 34 54 53
f 34 53 55
f 35 50 56
f 35 56 39
f 35 55 57
f 35 57 50
f 36 38 37
f 39 56 40
f 40 47 58
f 40 58 59
f 40 59 60
f 40 60 61
f 40 61 41
f 40 56 48
f 41 61 43
f 41 43 42
f 43 61 60
f 43 60 59
f 43 59 46
f 43 46 45
f 46 59 58
f 46 58 47
f 48 56 62
f 48 62 49
f 49 62 50
f 50 62 56
f 50 57 51
f 51 63 52
f 51 57 63
f 52 63 53
f 53 63 57
f 53 57 55

