# https://github.com/mikedh/trimesh
v -0.06160139 -0.02023566 0.00056254
v -0.06295027 -0.02023566 -0.00210834
v -0.06422313 -0.02058396 0.00056042
v -0.06303690 -0.02384575 0.00056254
v -0.05414806 -0.03550715 0.00056254
v -0.04616437 -0.03550715 -0.01026082
v -0.05506028 -0.02024014 -0.01012944
v -0.06189132 -0.02071999 -0.00374095
v -0.06182414 -0.02240769 -0.00286584
v -0.06340638 -0.02087397 -0.00089103
v -0.05850055 -0.02046288 -0.00918229
v -0.06032853 -0.02054659 -0.00637475
v -0.06340992 -0.02222681 0.00001057
v -0.06210169 -0.02617623 0.00056254
v -0.05698726 -0.03544586 0.00011863
v -0.05282040 -0.03550715 -0.00644467
v -0.05804444 -0.03410647 0.00056254
v -0.05004484 -0.03500338 -0.01026082
v -0.05749286 -0.02099804 -0.01026082
v -0.06032499 -0.02202052 -0.00555579
v -0.06068387 -0.02318950 -0.00426008
v -0.05918295 -0.02622108 -0.00468280
v -0.05944989 -0.02749022 -0.00331399
v -0.06028079 -0.02702233 -0.00218144
v -0.05930846 -0.02083510 -0.00784527
v -0.05791715 -0.02194877 -0.00922255
v -0.06144582 -0.02765316 0.00056254
v -0.05652054 -0.03365502 -0.00270798
v -0.05545452 -0.03543988 -0.00253106
v -0.05259411 -0.03383739 -0.00821290
v -0.05177028 -0.03527993 -0.00803703
v -0.05378565 -0.03527545 -0.00531212
v -0.05907511 -0.03229470 0.00047991
v -0.05250395 -0.03233057 -0.00944822
v -0.05155106 -0.03269532 -0.01026082
v -0.05701201 -0.02222681 -0.01026082
v -0.05911577 -0.02238826 -0.00726787
v -0.05907864 -0.02451843 -0.00598169
v -0.05814875 -0.02489364 -0.00716616
v -0.05769440 -0.02617175 -0.00697440
v -0.05823360 -0.02766362 -0.00510447
v -0.05900969 -0.02787141 -0.00372930
v -0.05915289 -0.02952771 -0.00211257
v -0.06022599 -0.02893126 -0.00066218
v -0.05648695 -0.02403410 -0.00995675
v -0.05818587 -0.02371719 -0.00786328
v -0.06034443 -0.02980277 0.00037820
v -0.05804444 -0.03199124 -0.00172905
v -0.05789594 -0.03071314 -0.00314660
v -0.05649579 -0.03189557 -0.00429504
v -0.05529187 -0.03249650 -0.00556321
v -0.05376974 -0.03219454 -0.00799253
v -0.05405790 -0.03044107 -0.00894921
v -0.05933852 -0.03084917 -0.00059226
v -0.05238373 -0.03135443 -0.01026082
v -0.05379449 -0.02933039 -0.01006058
v -0.05517696 -0.02671588 -0.01005846
v -0.05631016 -0.02579504 -0.00915051
v -0.05620409 -0.02733624 -0.00830931
v -0.05636673 -0.02904487 -0.00684620
v -0.05798256 -0.02929451 -0.00423148
v -0.05683345 -0.03025122 -0.00517757
v -0.05524061 -0.03141273 -0.00653261
v -0.05512039 -0.02888642 -0.00867800
f 1 2 3
f 1 3 4
f 1 4 14
f 1 14 27
f 1 27 17
f 1 17 5
f 1 5 6
f 1 6 7
f 1 7 2
f 2 8 9
f 2 9 10
f 2 10 3
f 2 7 11
f 2 11 12
f 2 12 8
f 3 10 13
f 3 13 4
f 4 13 14
f 5 15 16
f 5 16 6
f 5 17 15
f 6 16 18
f 6 18 35
f 6 35 55
f 6 55 36
f 6 36 19
f 6 19 7
f 7 19 11
f 8 12 20
f 8 20 9
f 9 20 21
f 9 21 22
f 9 22 23
f 9 23 24
f 9 24 14
f 9 14 13
f 9 13 10
f 11 25 12
f 11 19 26
f 11 26 25
f 12 25 20
f 14 24 27
f 15 28 29
f 15 29 16
f 15 17 28
f 16 30 31
f 16 31 18
f 16 29 32
f 16 32 30
f 17 27 33
f 17 33 28
f 18 31 30
f 18 30 34
f 18 34 35
f 19 36 26
f 20 25 37
f 20 37 21
f 21 37 38
f 21 38 22
f 22 38 39
f 22 39 40
f 22 40 41
f 22 41 42
f 22 42 23
f 23 42 43
f 23 43 44
f 23 44 24
f 24 44 27
f 25 26 37
f 26 36 45
f 26 45 46
f 26 46 37
f 27 44 47
f 27 47 33
f 28 33 48
f 28 48 49
f 28 49 50
f 28 50 51
f 28 51 32
f 28 32 29
f 30 32 52
f 30 52 53
f 30 53 34
f 32 51 52
f 33 54 48
f 33 47 54
f 34 55 35
f 34 53 56
f 34 56 55
f 36 55 57
f 36 57 45
f 37 46 38
f 38 46 39
f 39 46 58
f 39 58 59
f 39 59 40
f 40 59 60
f 40 60 41
f 41 61 42
f 41 60 61
f 42 61 43
f 43 54 44
f 43 61 49
f 43 49 48
f 43 48 54
f 44 54 47
f 45 58 46
f 45 57 58
f 49 61 50
f 50 61 62
f 50 62 51
f 51 62 63
f 51 63 52
f 52 63 60
f 52 60 53
f 53 60 64
f 53 64 56
f 55 56 57
f 56 64 57
f 57 64 59
f 57 59 58
f 59 64 60
f 60 63 62
f 60 62 61

