# https://github.com/mikedh/trimesh
v -0.06124835 -0.04481879 0.02716815
v -0.06124835 -0.04325136 0.02668506
v -0.06124835 -0.04249911 0.02271741
v -0.06124469 -0.04999160 0.02734931
v -0.06123005 -0.04694665 0.02754482
v -0.04255796 -0.06390663 0.02759036
v -0.04255979 -0.06242612 0.02714538
v -0.06124835 -0.04118044 0.02581145
v -0.05984497 -0.04438722 0.02271741
v -0.06123371 -0.05044714 0.02301241
v -0.06124835 -0.03777885 0.02324009
v -0.04387351 -0.05614143 0.02271642
v -0.04804706 -0.05329428 0.02271642
v -0.04783665 -0.05667189 0.02271642
v -0.05987241 -0.05045913 0.02757848
v -0.06115686 -0.05232925 0.02378951
v -0.06092449 -0.05346811 0.02521699
v -0.06042864 -0.05241317 0.02687662
v -0.05845257 -0.05441815 0.02710084
v -0.05852759 -0.05314144 0.02743147
v -0.05852759 -0.05180478 0.02761263
v -0.04575079 -0.06256398 0.02776360
v -0.04314529 -0.06525228 0.02773489
v -0.04255796 -0.06839313 0.02635245
v -0.04255796 -0.05732823 0.02310100
v -0.04255979 -0.06098457 0.02652024
v -0.06124835 -0.03965796 0.02484873
v -0.05707480 -0.04774385 0.02271741
v -0.05585439 -0.04913146 0.02271741
v -0.05322512 -0.05186771 0.02271741
v -0.05190773 -0.05324932 0.02271790
v -0.05046593 -0.05459198 0.02271790
v -0.04614417 -0.05820336 0.02271642
v -0.05449127 -0.05852404 0.02317426
v -0.04264396 -0.05905450 0.02531202
v -0.04319470 -0.06033422 0.02271691
v -0.05444735 -0.05989066 0.02379049
v -0.05581414 -0.05882374 0.02419092
v -0.05673631 -0.05812843 0.02583966
v -0.05589465 -0.05765790 0.02691275
v -0.05690647 -0.05623733 0.02707856
v -0.05314644 -0.05852404 0.02753789
v -0.05381976 -0.05718138 0.02761956
v -0.04911195 -0.06121833 0.02772747
v -0.04508112 -0.06390663 0.02777251
v -0.04642412 -0.06390663 0.02760669
v -0.04323495 -0.06684968 0.02729981
v -0.04724565 -0.06467386 0.02699689
v -0.04971026 -0.06317836 0.02682811
v -0.04414614 -0.06753899 0.02597776
v -0.04265311 -0.06826725 0.02426467
v -0.04314529 -0.06655298 0.02334354
v -0.04508112 -0.06525228 0.02329206
v -0.05432111 -0.06043312 0.02450820
v -0.04548548 -0.06633419 0.02397759
v -0.04408942 -0.06742510 0.02409193
v -0.04842215 -0.06455998 0.02430576
v -0.04850997 -0.06463191 0.02543329
v -0.05286467 -0.06025030 0.02708005
v -0.05475657 -0.05893462 0.02675634
v -0.05116670 -0.06139815 0.02718597
v -0.04920343 -0.06266588 0.02730773
v -0.04776529 -0.06256398 0.02767500
v -0.04686325 -0.06577076 0.02489328
f 1 2 8
f 1 8 27
f 1 27 11
f 1 11 3
f 1 3 4
f 1 4 5
f 1 5 6
f 1 6 7
f 1 7 2
f 2 7 8
f 3 9 10
f 3 10 4
f 3 11 12
f 3 12 13
f 3 13 14
f 3 14 9
f 4 15 5
f 4 10 16
f 4 16 17
f 4 17 18
f 4 18 19
f 4 19 20
f 4 20 15
f 5 15 21
f 5 21 22
f 5 22 6
f 6 23 24
f 6 24 25
f 6 25 26
f 6 26 7
f 6 22 23
f 7 26 8
f 8 26 27
f 9 14 28
f 9 28 10
f 10 28 29
f 10 29 30
f 10 30 31
f 10 31 32
f 10 32 33
f 10 33 34
f 10 34 16
f 11 25 12
f 11 27 35
f 11 35 25
f 12 25 36
f 12 36 33
f 12 33 14
f 12 14 13
f 14 33 32
f 14 32 31
f 14 31 30
f 14 30 29
f 14 29 28
f 15 20 21
f 16 34 37
f 16 37 38
f 16 38 17
f 17 39 18
f 17 38 39
f 18 39 19
f 19 39 40
f 19 40 41
f 19 41 20
f 20 41 42
f 20 42 43
f 20 43 21
f 21 43 44
f 21 44 22
f 22 44 45
f 22 45 23
f 23 45 46
f 23 46 47
f 23 47 24
f 24 47 48
f 24 48 49
f 24 49 50
f 24 50 51
f 24 51 25
f 25 51 52
f 25 52 36
f 25 35 26
f 26 35 27
f 33 36 34
f 34 36 53
f 34 53 37
f 36 52 53
f 37 54 38
f 37 53 55
f 37 55 56
f 37 56 57
f 37 57 54
f 38 54 39
f 39 54 58
f 39 58 49
f 39 49 59
f 39 59 60
f 39 60 40
f 40 60 59
f 40 59 41
f 41 59 42
f 42 59 61
f 42 61 62
f 42 62 63
f 42 63 44
f 42 44 43
f 44 63 45
f 45 63 46
f 46 63 62
f 46 62 47
f 47 62 48
f 48 62 49
f 49 58 50
f 49 62 61
f 49 61 59
f 50 58 64
f 50 64 56
f 50 56 51
f 51 56 52
f 52 56 53
f 53 56 55
f 54 57 64
f 54 64 58
f 56 64 57

