# https://github.com/mikedh/trimesh
v 0.06863832 -0.00058203 0.00230948
v 0.06786764 -0.00033681 0.00066862
v 0.06599389 -0.00000443 0.00258427
v 0.06840687 -0.00660764 0.00258427
v 0.06704772 -0.00533723 -0.00044361
v 0.06575259 -0.00269299 -0.00335110
v 0.06569842 -0.00033681 -0.00357616
v 0.06070995 0.00000000 -0.01143242
v 0.06423832 -0.01427742 0.00258427
v 0.04555987 0.00000000 -0.02415107
v 0.04348422 -0.01290359 -0.02415107
v 0.06698617 -0.01494069 0.00258427
v 0.06783564 -0.01077638 0.00246912
v 0.06635337 -0.00773772 -0.00138311
v 0.06609484 -0.00547313 -0.00233832
v 0.06484157 -0.00278458 -0.00508618
v 0.06479232 -0.00042101 -0.00524581
v 0.06334207 -0.00033681 -0.00767440
v 0.06128119 -0.00336513 -0.01050076
v 0.05897162 -0.00163677 -0.01373015
v 0.05736132 -0.00025261 -0.01569814
v 0.05545556 0.00000000 -0.01777604
v 0.06209618 -0.00042101 -0.00949321
v 0.04989585 -0.01509137 -0.01754313
v 0.05291947 0.00000000 -0.02028051
v 0.04889373 -0.00033681 -0.02415107
v 0.04710861 -0.01223293 -0.02415107
v 0.05385265 -0.01491262 -0.01712702
v 0.06430480 -0.01466297 -0.00297949
v 0.06567626 -0.01463786 -0.00034678
v 0.06728163 -0.01284746 0.00215246
v 0.05794241 -0.01509137 -0.01240594
v 0.05926216 -0.01505148 -0.01075723
v 0.06591756 -0.01278246 -0.00065558
v 0.06482925 -0.00947494 -0.00381431
v 0.06317218 -0.00807010 -0.00696257
v 0.06167761 -0.00525303 -0.00973660
v 0.06050312 -0.00538302 -0.01138008
v 0.05794487 -0.00255117 -0.01489733
v 0.05450760 -0.00269299 -0.01866321
v 0.05517733 -0.01509137 -0.01560392
v 0.04808119 -0.00798885 -0.02415107
v 0.05301796 -0.00336513 -0.02005807
v 0.04767739 -0.01009095 -0.02415107
v 0.05257722 -0.01290359 -0.01893014
v 0.05389205 -0.01318131 -0.01757976
v 0.05494834 -0.01169670 -0.01683392
v 0.06487850 -0.01278246 -0.00265759
v 0.06326082 -0.01464229 -0.00488205
v 0.06372864 -0.01215168 -0.00498935
v 0.05789070 -0.01163613 -0.01349723
v 0.05985802 -0.01125057 -0.01112623
v 0.06055483 -0.01397754 -0.00932834
v 0.06192383 -0.01460831 -0.00713006
v 0.06328790 -0.01076161 -0.00614868
v 0.06196076 -0.00807305 -0.00885728
v 0.06060900 -0.00965369 -0.01052432
v 0.05877464 -0.00673025 -0.01333498
v 0.05733178 -0.00908052 -0.01463040
v 0.05570424 -0.01009095 -0.01632360
v 0.05530290 -0.00482906 -0.01754313
v 0.05292931 -0.00941733 -0.01928344
v 0.06078136 -0.01143375 -0.00977847
v 0.06221930 -0.01278246 -0.00722427
f 1 2 3
f 1 3 4
f 1 4 5
f 1 5 2
f 2 5 6
f 2 6 7
f 2 7 8
f 2 8 3
f 3 9 12
f 3 12 4
f 3 8 10
f 3 10 11
f 3 11 9
f 4 12 13
f 4 13 14
f 4 14 5
f 5 14 15
f 5 15 6
f 6 15 16
f 6 16 7
f 7 16 17
f 7 17 18
f 7 18 8
f 8 19 20
f 8 20 21
f 8 21 22
f 8 22 25
f 8 25 10
f 8 18 23
f 8 23 19
f 9 11 24
f 9 24 12
f 10 25 26
f 10 26 42
f 10 42 44
f 10 44 27
f 10 27 11
f 11 27 28
f 11 28 24
f 12 29 30
f 12 30 31
f 12 31 13
f 12 24 32
f 12 32 33
f 12 33 29
f 13 31 34
f 13 34 14
f 14 34 35
f 14 35 15
f 15 35 16
f 16 36 37
f 16 37 18
f 16 18 17
f 16 35 36
f 18 37 19
f 18 19 23
f 19 38 20
f 19 37 38
f 20 39 21
f 20 38 39
f 21 39 40
f 21 40 22
f 22 40 25
f 24 28 41
f 24 41 32
f 25 40 26
f 26 40 43
f 26 43 42
f 27 44 45
f 27 45 28
f 28 45 46
f 28 46 47
f 28 47 41
f 29 48 34
f 29 34 30
f 29 33 49
f 29 49 50
f 29 50 48
f 30 34 31
f 32 41 51
f 32 51 33
f 33 51 52
f 33 52 53
f 33 53 54
f 33 54 49
f 34 48 35
f 35 50 55
f 35 55 36
f 35 48 50
f 36 55 56
f 36 56 37
f 37 56 57
f 37 57 38
f 38 57 58
f 38 58 39
f 39 58 59
f 39 59 60
f 39 60 61
f 39 61 40
f 40 61 62
f 40 62 43
f 41 47 51
f 42 43 62
f 42 62 44
f 44 62 45
f 45 62 46
f 46 62 47
f 47 60 51
f 47 62 60
f 49 54 50
f 50 54 55
f 51 60 59
f 51 59 58
f 51 58 57
f 51 57 52
f 52 57 63
f 52 63 53
f 53 63 54
f 54 63 64
f 54 64 55
f 55 64 63
f 55 63 57
f 55 57 56
f 60 62 61

