# https://github.com/mikedh/trimesh
v -0.00320524 0.06958180 0.00430255
v -0.00269627 0.06691569 -0.00144429
v -0.00659340 0.06876300 0.00291971
v -0.00740355 0.06946874 0.00464213
v 0.00040879 0.06732236 0.00464213
v -0.00040738 0.06953257 0.00398207
v -0.00040738 0.06766337 -0.00004235
v -0.00510562 0.06671510 -0.00157521
v -0.00013632 0.06636132 -0.00261847
v -0.00202466 0.06555346 -0.00403541
v -0.00942138 0.06502826 -0.00391131
v -0.00940934 0.06902195 0.00415663
v -0.01861911 0.06714364 0.00440484
v -0.02417268 0.06546228 0.00464213
v 0.00040879 0.05960851 -0.00928994
v 0.00011064 0.06314995 -0.00823439
v -0.03035870 0.05974163 0.00464213
v -0.03035870 0.05095186 -0.00928994
v -0.00684638 0.06473101 -0.00502549
v -0.00013632 0.06476019 -0.00553417
v -0.00226860 0.06276334 -0.00884399
v -0.01006890 0.06359126 -0.00614649
v -0.01214095 0.06440641 -0.00415951
v -0.01359560 0.06491338 -0.00266348
v -0.01187291 0.06718741 0.00118093
v -0.01399013 0.06788585 0.00358659
v -0.01636034 0.06754849 0.00400935
v -0.02003762 0.06613337 0.00301381
v -0.02152540 0.06629385 0.00435847
v -0.02694043 0.06401616 0.00389616
v -0.03035870 0.06249163 0.00402299
v -0.02377814 0.06465989 0.00261423
v -0.00538571 0.06225821 -0.00928994
v -0.03035870 0.05802380 -0.00427816
v -0.02958470 0.05569870 -0.00828076
v -0.02447084 0.05772473 -0.00888490
v -0.00823478 0.06190807 -0.00928994
v -0.01234273 0.06169836 -0.00848942
v -0.01211083 0.06326302 -0.00609331
v -0.01507133 0.06322472 -0.00504731
v -0.01807098 0.06298036 -0.00412678
v -0.01734215 0.06472737 -0.00124927
v -0.01441478 0.06605495 -0.00007372
v -0.01738732 0.06611878 0.00151505
v -0.02051045 0.06457966 0.00019767
v -0.02222712 0.06459607 0.00132958
v -0.02372393 0.06330313 -0.00012145
v -0.02693139 0.06131905 -0.00131746
v -0.02948230 0.06036531 -0.00088242
v -0.03017499 0.05912343 -0.00252165
v -0.02824148 0.05920185 -0.00402586
v -0.02631700 0.05925291 -0.00543462
v -0.02410642 0.05922008 -0.00694292
v -0.01899256 0.05980364 -0.00882353
v -0.01467680 0.06083215 -0.00901719
v -0.01490267 0.06208132 -0.00700293
v -0.01966718 0.06201020 -0.00499413
v -0.02029662 0.06322472 -0.00247255
v -0.02216086 0.06321377 -0.00132291
v -0.02361852 0.06193178 -0.00273439
v -0.02519665 0.06074644 -0.00369584
v -0.02399800 0.06075738 -0.00448408
v -0.02147420 0.06048931 -0.00647107
v -0.02186572 0.06191172 -0.00387312
f 1 2 3
f 1 3 4
f 1 4 5
f 1 5 6
f 1 6 7
f 1 7 2
f 2 8 3
f 2 7 9
f 2 9 10
f 2 10 8
f 3 8 11
f 3 11 12
f 3 12 4
f 4 12 13
f 4 13 14
f 4 14 17
f 4 17 5
f 5 15 16
f 5 16 9
f 5 9 6
f 5 17 18
f 5 18 15
f 6 9 7
f 8 10 19
f 8 19 11
f 9 16 20
f 9 20 10
f 10 20 21
f 10 21 19
f 11 22 23
f 11 23 24
f 11 24 25
f 11 25 12
f 11 19 22
f 12 25 26
f 12 26 27
f 12 27 13
f 13 28 29
f 13 29 14
f 13 27 28
f 14 30 31
f 14 31 17
f 14 29 32
f 14 32 30
f 15 33 21
f 15 21 16
f 15 18 37
f 15 37 33
f 16 21 20
f 17 31 34
f 17 34 18
f 18 34 35
f 18 35 36
f 18 36 37
f 19 21 33
f 19 33 37
f 19 37 22
f 22 37 38
f 22 38 39
f 22 39 23
f 23 39 40
f 23 40 24
f 24 40 41
f 24 41 42
f 24 42 43
f 24 43 25
f 25 43 26
f 26 43 27
f 27 43 44
f 27 44 28
f 28 44 45
f 28 45 46
f 28 46 29
f 29 46 32
f 30 32 47
f 30 47 48
f 30 48 49
f 30 49 31
f 31 49 50
f 31 50 34
f 32 46 47
f 34 50 51
f 34 51 52
f 34 52 35
f 35 52 36
f 36 52 53
f 36 53 54
f 36 54 55
f 36 55 37
f 37 55 38
f 38 55 56
f 38 56 39
f 39 56 40
f 40 56 41
f 41 57 58
f 41 58 42
f 41 56 57
f 42 58 45
f 42 45 44
f 42 44 43
f 45 58 59
f 45 59 46
f 46 59 47
f 47 59 60
f 47 60 48
f 48 61 51
f 48 51 49
f 48 60 61
f 49 51 50
f 51 61 52
f 52 61 62
f 52 62 53
f 53 62 63
f 53 63 54
f 54 63 57
f 54 57 56
f 54 56 55
f 57 63 64
f 57 64 58
f 58 64 59
f 59 64 60
f 60 64 62
f 60 62 61
f 62 64 63

