# https://github.com/mikedh/trimesh
v 0.02398821 0.04058923 -0.02592934
v 0.03097152 0.04273342 -0.02059340
v 0.03040553 0.04064787 -0.02239159
v 0.03097152 0.04058923 -0.01893482
v 0.01680671 0.04058923 -0.02559427
v 0.02197282 0.04060198 -0.02688428
v 0.02539562 0.04796261 -0.01918053
v 0.03079517 0.04437535 -0.01946534
v 0.03084724 0.04821247 -0.01601136
v 0.03095137 0.05741645 -0.00470564
v 0.03097320 0.05187112 -0.00817358
v 0.03097320 0.05786008 0.00100167
v 0.01381554 0.06407086 0.00100167
v 0.01381554 0.05187367 -0.01968872
v 0.01760111 0.04161926 -0.02752370
v 0.01381554 0.05187367 -0.01642740
v 0.01976597 0.04133371 -0.02719701
v 0.02226841 0.04992834 -0.01880637
v 0.02560555 0.05115214 -0.01616772
v 0.02668715 0.04929859 -0.01732649
v 0.02916439 0.04927055 -0.01596389
v 0.02799043 0.05428047 -0.01139022
v 0.02943647 0.05458642 -0.01003879
v 0.03034171 0.05257226 -0.01160243
v 0.03066921 0.05580767 -0.00743923
v 0.02894774 0.05786263 -0.00569129
v 0.03088083 0.05915017 -0.00195809
v 0.03075655 0.06046066 0.00027848
v 0.02872605 0.06186547 0.00100167
v 0.01880362 0.06553687 0.00100167
v 0.01405235 0.06663319 0.00080342
v 0.01395326 0.06565415 -0.00127958
v 0.01387768 0.05982071 -0.01085691
v 0.01381554 0.05676376 -0.01448959
v 0.01385585 0.05357169 -0.01802455
v 0.01680335 0.05246517 -0.01834566
v 0.01887920 0.04980341 -0.02019411
v 0.02132622 0.05157027 -0.01758059
v 0.02226841 0.05383940 -0.01482745
v 0.02354650 0.05453288 -0.01348719
v 0.02512690 0.05511674 -0.01206036
v 0.02518400 0.05670257 -0.00999132
v 0.02732031 0.05709266 -0.00802280
v 0.02557532 0.05922156 -0.00609617
v 0.02696426 0.06150089 -0.00123770
v 0.02406546 0.06370627 0.00064426
v 0.02072160 0.06473885 0.00055491
v 0.01970551 0.06391279 -0.00167328
v 0.01742308 0.06444310 -0.00192458
v 0.01648257 0.06600854 0.00069452
v 0.01469895 0.06460882 -0.00293816
v 0.01460322 0.06315556 -0.00548746
v 0.01835016 0.05873459 -0.01070613
v 0.01623904 0.05760768 -0.01283380
v 0.01389448 0.05815583 -0.01287010
v 0.01468048 0.06080230 -0.00927930
v 0.01961482 0.05321220 -0.01660610
v 0.02136652 0.05804365 -0.01031801
v 0.02355994 0.05786263 -0.00941612
v 0.02390087 0.06043771 -0.00519707
v 0.02123888 0.05932099 -0.00858683
v 0.02125568 0.06200315 -0.00422258
v 0.01743316 0.06193941 -0.00633071
v 0.02029165 0.06053714 -0.00719630
f 1 2 3
f 1 3 4
f 1 4 5
f 1 5 6
f 1 6 7
f 1 7 8
f 1 8 2
f 2 8 9
f 2 9 10
f 2 10 11
f 2 11 4
f 2 4 3
f 4 11 12
f 4 12 13
f 4 13 5
f 5 14 15
f 5 15 6
f 5 13 16
f 5 16 14
f 6 15 17
f 6 17 7
f 7 17 18
f 7 18 19
f 7 19 20
f 7 20 8
f 8 20 9
f 9 20 21
f 9 21 22
f 9 22 23
f 9 23 24
f 9 24 25
f 9 25 10
f 10 25 26
f 10 26 27
f 10 27 12
f 10 12 11
f 12 27 28
f 12 28 29
f 12 29 30
f 12 30 13
f 13 30 31
f 13 31 32
f 13 32 33
f 13 33 34
f 13 34 14
f 13 14 16
f 14 34 35
f 14 35 36
f 14 36 37
f 14 37 15
f 15 37 17
f 17 37 18
f 18 38 19
f 18 37 38
f 19 39 40
f 19 40 41
f 19 41 22
f 19 22 21
f 19 21 20
f 19 38 39
f 22 41 42
f 22 42 23
f 23 42 43
f 23 43 25
f 23 25 24
f 25 43 26
f 26 43 44
f 26 44 45
f 26 45 27
f 27 45 28
f 28 45 29
f 29 45 46
f 29 46 30
f 30 46 47
f 30 47 48
f 30 48 49
f 30 49 50
f 30 50 31
f 31 50 32
f 32 50 49
f 32 49 51
f 32 51 52
f 32 52 33
f 33 53 54
f 33 54 55
f 33 55 34
f 33 52 56
f 33 56 53
f 34 55 54
f 34 54 35
f 35 54 36
f 36 54 57
f 36 57 37
f 37 57 38
f 38 57 39
f 39 57 58
f 39 58 40
f 40 58 41
f 41 58 59
f 41 59 42
f 42 59 43
f 43 59 44
f 44 60 45
f 44 59 61
f 44 61 60
f 45 60 46
f 46 60 62
f 46 62 48
f 46 48 47
f 48 62 63
f 48 63 49
f 49 63 51
f 51 63 52
f 52 63 56
f 53 57 54
f 53 56 61
f 53 61 58
f 53 58 57
f 56 63 64
f 56 64 61
f 58 61 59
f 60 61 64
f 60 64 62
f 62 64 63

