# https://github.com/mikedh/trimesh
v -0.03187293 -0.05984933 0.00175744
v -0.03077825 -0.06062975 0.00217080
v -0.03180172 -0.06066447 0.00328813
v -0.03187293 -0.05865680 0.00606265
v -0.03187293 -0.05796544 -0.00166468
v -0.03156156 -0.05912324 0.00006642
v -0.02998936 -0.06037615 0.00096830
v -0.03001728 -0.06174680 0.00362883
v -0.03154760 -0.06178000 0.00531359
v -0.03187293 -0.05158468 -0.00673398
v -0.03014853 -0.06281101 0.00606265
v -0.01761001 -0.06463451 0.00606265
v -0.03187293 -0.05662045 -0.00394192
v -0.03096256 -0.05786883 -0.00270560
v -0.03036356 -0.05922589 -0.00081541
v -0.02869920 -0.06058748 0.00021924
v -0.02891702 -0.06169094 0.00252654
v -0.02745792 -0.06314159 0.00415242
v -0.02884302 -0.06314462 0.00546641
v -0.01761001 -0.05791109 -0.00673147
v -0.02033134 -0.05996706 -0.00673398
v -0.02798152 -0.05685291 -0.00673398
v -0.03187293 -0.05486034 -0.00657365
v -0.02758218 -0.06397486 0.00606265
v -0.01937489 -0.06696069 0.00606265
v -0.01782782 -0.06700598 0.00519334
v -0.01761001 -0.06148112 -0.00560914
v -0.02935405 -0.05674876 -0.00580455
v -0.02945598 -0.05766051 -0.00428513
v -0.02773577 -0.05775863 -0.00552647
v -0.02588292 -0.05936024 -0.00428639
v -0.02500746 -0.06062824 -0.00277199
v -0.02550174 -0.06183586 -0.00013775
v -0.02732387 -0.06195058 0.00162216
v -0.02598066 -0.06312650 0.00280462
v -0.02623618 -0.06393711 0.00470858
v -0.01818108 -0.06063277 -0.00672646
v -0.02167176 -0.06064635 -0.00488263
v -0.02229450 -0.05929231 -0.00672396
v -0.01941539 -0.06199889 -0.00391562
v -0.02620965 -0.05770127 -0.00670266
v -0.02634788 -0.06451375 0.00606265
v -0.02348412 -0.06562778 0.00606265
v -0.02085355 -0.06650331 0.00605764
v -0.01935535 -0.06614857 0.00423510
v -0.01811406 -0.06441413 -0.00017032
v -0.01781945 -0.06237929 -0.00403837
v -0.02349809 -0.06051049 -0.00400330
v -0.02413060 -0.05935873 -0.00547636
v -0.02363073 -0.06194303 -0.00139788
v -0.02396863 -0.06315518 0.00121882
v -0.02355254 -0.06473263 0.00407101
v -0.02508844 -0.06468131 0.00526474
v -0.02085773 -0.06186907 -0.00332814
v -0.01802749 -0.06333330 -0.00223211
v -0.01962483 -0.06330010 -0.00141040
v -0.02208925 -0.06584968 0.00547267
v -0.02215906 -0.06484736 0.00334575
v -0.01941958 -0.06454394 0.00086183
v -0.02216185 -0.06194002 -0.00237616
v -0.02227216 -0.06311895 -0.00008890
v -0.02257934 -0.06448658 0.00288479
v -0.02085773 -0.06258307 -0.00201666
v -0.02085773 -0.06326538 -0.00072147
f 1 2 3
f 1 3 4
f 1 4 10
f 1 10 23
f 1 23 13
f 1 13 5
f 1 5 6
f 1 6 2
f 2 6 7
f 2 7 8
f 2 8 3
f 3 8 9
f 3 9 4
f 4 9 11
f 4 11 24
f 4 24 42
f 4 42 43
f 4 43 25
f 4 25 12
f 4 12 10
f 5 13 14
f 5 14 6
f 6 14 15
f 6 15 7
f 7 16 17
f 7 17 8
f 7 15 16
f 8 17 18
f 8 18 19
f 8 19 11
f 8 11 9
f 10 20 21
f 10 21 22
f 10 22 23
f 10 12 20
f 11 19 24
f 12 25 26
f 12 26 27
f 12 27 20
f 13 23 28
f 13 28 29
f 13 29 14
f 14 29 30
f 14 30 31
f 14 31 15
f 15 31 32
f 15 32 16
f 16 32 33
f 16 33 34
f 16 34 17
f 17 34 18
f 18 34 35
f 18 35 36
f 18 36 19
f 19 36 24
f 20 27 37
f 20 37 21
f 21 38 39
f 21 39 22
f 21 37 40
f 21 40 38
f 22 39 41
f 22 41 30
f 22 30 28
f 22 28 23
f 24 36 42
f 25 43 44
f 25 44 45
f 25 45 26
f 26 45 46
f 26 46 47
f 26 47 27
f 27 47 40
f 27 40 37
f 28 30 29
f 30 41 31
f 31 48 32
f 31 41 49
f 31 49 48
f 32 48 50
f 32 50 33
f 33 50 51
f 33 51 35
f 33 35 34
f 35 51 52
f 35 52 53
f 35 53 36
f 36 53 42
f 38 48 39
f 38 40 54
f 38 54 48
f 39 49 41
f 39 48 49
f 40 47 55
f 40 55 56
f 40 56 54
f 42 53 43
f 43 52 57
f 43 57 44
f 43 53 52
f 44 57 45
f 45 57 58
f 45 58 59
f 45 59 46
f 46 59 56
f 46 56 55
f 46 55 47
f 48 54 60
f 48 60 50
f 50 60 61
f 50 61 51
f 51 61 52
f 52 62 58
f 52 58 57
f 52 61 62
f 54 56 63
f 54 63 60
f 56 64 63
f 56 59 64
f 58 62 59
f 59 62 61
f 59 61 64
f 60 63 61
f 61 63 64

