# https://github.com/mikedh/trimesh
v 0.04084252 0.05727921 0.01385015
v 0.04084252 0.05767301 0.01547239
v 0.04084252 0.06028976 0.01384095
v 0.04243006 0.05309371 0.00612837
v 0.04084252 0.05855100 0.01893309
v 0.04084252 0.05934291 0.02132199
v 0.04094028 0.06257080 0.02179272
v 0.04348205 0.06094825 0.02179272
v 0.04248107 0.05886088 0.01276303
v 0.04278072 0.05819808 0.01138457
v 0.04248320 0.05765795 0.00928393
v 0.04286999 0.05664224 0.00745009
v 0.04388797 0.05528867 0.00628477
v 0.04919254 0.05053291 0.00612837
v 0.05643744 0.04229747 0.00612837
v 0.05529407 0.04059099 0.00632770
v 0.05518144 0.04058884 0.00813701
v 0.05939576 0.04059314 0.02153052
v 0.06255173 0.04078251 0.02179272
v 0.04497184 0.05976254 0.02179272
v 0.04504409 0.05648299 0.01143671
v 0.04379021 0.05789466 0.01278449
v 0.04396235 0.05659705 0.00938206
v 0.04508660 0.05516817 0.00807568
v 0.04551377 0.05410296 0.00656843
v 0.04692280 0.05268054 0.00622957
v 0.04977698 0.05112038 0.00809868
v 0.05074821 0.04905884 0.00619124
v 0.05178744 0.04791616 0.00612837
v 0.05649058 0.04337344 0.00809715
v 0.05750431 0.04236849 0.00863994
v 0.05786985 0.04087720 0.00699776
v 0.05528345 0.04388345 0.00629550
v 0.05975918 0.04058884 0.01151337
v 0.05744055 0.04058884 0.01384095
v 0.06049450 0.04059099 0.01393601
v 0.06120008 0.04287849 0.02179272
v 0.04862085 0.05669173 0.02179272
v 0.04848909 0.05386195 0.01200403
v 0.04659551 0.05529943 0.01163910
v 0.04647225 0.05455702 0.00937133
v 0.04827657 0.05231901 0.00779815
v 0.05119238 0.05118710 0.01196570
v 0.05248027 0.04979695 0.01171117
v 0.05270554 0.04869301 0.00961360
v 0.05385104 0.04732868 0.00950013
v 0.05374691 0.04586752 0.00651016
v 0.05506455 0.04484751 0.00749762
v 0.05507730 0.04591702 0.00961666
v 0.05649483 0.04438915 0.01012726
v 0.05799737 0.04190797 0.00901714
v 0.05910673 0.04074808 0.00988346
v 0.05881557 0.04226089 0.01217270
v 0.05787622 0.04376294 0.01278449
v 0.05848404 0.04642057 0.02179272
v 0.05154517 0.05421701 0.02179272
v 0.05386592 0.04821528 0.01157931
v 0.05285856 0.05286345 0.02179272
v 0.05416983 0.05148621 0.02179272
v 0.05547259 0.05009391 0.02179272
v 0.05514743 0.04688539 0.01202243
v 0.05654158 0.04518967 0.01208070
v 0.05773809 0.04319052 0.01101965
v 0.05733217 0.04785591 0.02179272
f 1 2 5
f 1 5 6
f 1 6 3
f 1 3 4
f 1 4 2
f 2 4 5
f 3 6 7
f 3 7 8
f 3 8 9
f 3 9 10
f 3 10 11
f 3 11 12
f 3 12 4
f 4 12 13
f 4 13 14
f 4 14 29
f 4 29 15
f 4 15 16
f 4 16 17
f 4 17 5
f 5 17 18
f 5 18 6
f 6 18 7
f 7 18 19
f 7 19 37
f 7 37 55
f 7 55 64
f 7 64 60
f 7 60 59
f 7 59 58
f 7 58 56
f 7 56 38
f 7 38 20
f 7 20 8
f 8 20 21
f 8 21 22
f 8 22 9
f 9 22 10
f 10 22 21
f 10 21 23
f 10 23 11
f 11 23 12
f 12 23 24
f 12 24 13
f 13 24 25
f 13 25 26
f 13 26 14
f 14 26 27
f 14 27 28
f 14 28 29
f 15 30 31
f 15 31 32
f 15 32 16
f 15 29 33
f 15 33 30
f 16 32 34
f 16 34 17
f 17 34 35
f 17 35 18
f 18 35 34
f 18 34 36
f 18 36 19
f 19 36 37
f 20 38 39
f 20 39 40
f 20 40 21
f 21 40 41
f 21 41 23
f 23 41 24
f 24 41 42
f 24 42 25
f 25 42 26
f 26 42 27
f 27 42 41
f 27 41 39
f 27 39 43
f 27 43 44
f 27 44 45
f 27 45 29
f 27 29 28
f 29 45 46
f 29 46 47
f 29 47 33
f 30 33 48
f 30 48 49
f 30 49 50
f 30 50 31
f 31 51 32
f 31 50 51
f 32 51 52
f 32 52 34
f 33 47 48
f 34 52 53
f 34 53 36
f 36 53 37
f 37 53 54
f 37 54 55
f 38 56 39
f 39 41 40
f 39 56 43
f 43 56 44
f 44 57 45
f 44 56 58
f 44 58 59
f 44 59 60
f 44 60 57
f 45 57 46
f 46 61 49
f 46 49 48
f 46 48 47
f 46 57 61
f 49 62 50
f 49 61 62
f 50 62 63
f 50 63 51
f 51 53 52
f 51 63 53
f 53 63 54
f 54 62 55
f 54 63 62
f 55 62 64
f 57 60 61
f 60 64 61
f 61 64 62

