# https://github.com/mikedh/trimesh
v -0.06865191 0.02190832 0.02229061
v -0.06155853 0.02190832 0.00135060
v -0.06760592 0.02190832 0.00826023
v -0.06857314 0.02181397 0.01097816
v -0.07166593 0.02149229 0.02229061
v -0.07470834 0.00000000 0.02229061
v -0.07199393 0.00000000 0.02224551
v -0.06540804 0.01877519 0.00135060
v -0.06481531 0.02136147 0.00168470
v -0.06511491 0.00000000 0.00135060
v -0.06576833 0.02133574 0.00351921
v -0.06707647 0.02141080 0.00643392
v -0.06830971 0.01891459 0.00766786
v -0.06876426 0.01950862 0.00943267
v -0.06963334 0.01902610 0.01192514
v -0.07222766 0.01946573 0.02229061
v -0.07475096 0.00280717 0.02229061
v -0.07215922 0.00033669 0.01212806
v -0.07070904 0.00016942 0.00773140
v -0.06890631 0.00000000 0.00339213
v -0.06616994 0.01598518 0.00135060
v -0.06814054 0.00113230 0.00175644
v -0.06790423 0.00419681 0.00151868
v -0.06740318 0.00888685 0.00135060
v -0.06749616 0.01938638 0.00604652
v -0.06921623 0.01681725 0.00874601
v -0.06788356 0.01479713 0.00447028
v -0.06928726 0.01412589 0.00740139
v -0.06961656 0.01780373 0.01073220
v -0.07362748 0.01348683 0.02229061
v -0.07196810 0.00202013 0.01151929
v -0.07417244 0.00942084 0.02229061
v -0.07189191 0.00807408 0.01277987
v -0.07189450 0.00609684 0.01214856
v -0.07184026 0.00403811 0.01143730
v -0.07136762 0.00058974 0.00955360
v -0.07138829 0.00254553 0.00963149
v -0.06976247 0.00033669 0.00536806
v -0.07056699 0.00269351 0.00740139
v -0.06974440 0.00202013 0.00532912
v -0.06890760 0.00067338 0.00338188
v -0.06713845 0.01181197 0.00171545
v -0.06746000 0.01361550 0.00302113
v -0.06873456 0.00269351 0.00311336
v -0.06866483 0.00538487 0.00326504
v -0.06781641 0.00672948 0.00168470
v -0.06909743 0.00672948 0.00448873
v -0.06912197 0.01009207 0.00545825
v -0.06798429 0.01143453 0.00336548
v -0.06984254 0.01484430 0.00931379
v -0.06988645 0.01609026 0.01033250
v -0.06888048 0.01173047 0.00546645
v -0.06985545 0.01211220 0.00793637
v -0.07061348 0.01311583 0.01076704
v -0.07125786 0.01061962 0.01164432
v -0.07134567 0.00799688 0.01085313
v -0.07146318 0.00470935 0.01032020
v -0.07044302 0.00470935 0.00740139
v -0.06989549 0.00605610 0.00623510
v -0.06967983 0.00403811 0.00538446
v -0.06984900 0.00814271 0.00662045
v -0.06994585 0.01009207 0.00744854
v -0.07059023 0.01042876 0.00942037
v -0.07064834 0.00807408 0.00874601
f 1 2 3
f 1 3 4
f 1 4 5
f 1 5 16
f 1 16 30
f 1 30 32
f 1 32 17
f 1 17 6
f 1 6 7
f 1 7 2
f 2 8 9
f 2 9 3
f 2 7 10
f 2 10 24
f 2 24 21
f 2 21 8
f 3 9 11
f 3 11 12
f 3 12 13
f 3 13 14
f 3 14 4
f 4 14 15
f 4 15 5
f 5 15 16
f 6 17 18
f 6 18 19
f 6 19 20
f 6 20 10
f 6 10 7
f 8 11 9
f 8 21 11
f 10 20 22
f 10 22 23
f 10 23 24
f 11 21 25
f 11 25 12
f 12 25 13
f 13 26 14
f 13 25 27
f 13 27 28
f 13 28 26
f 14 26 29
f 14 29 15
f 15 29 16
f 16 29 30
f 17 31 18
f 17 32 33
f 17 33 34
f 17 34 35
f 17 35 31
f 18 36 19
f 18 31 37
f 18 37 36
f 19 38 20
f 19 36 37
f 19 37 39
f 19 39 40
f 19 40 38
f 20 38 41
f 20 41 22
f 21 42 43
f 21 43 27
f 21 27 25
f 21 24 42
f 22 41 44
f 22 44 23
f 23 45 46
f 23 46 24
f 23 44 45
f 24 46 47
f 24 47 48
f 24 48 49
f 24 49 42
f 26 28 50
f 26 50 51
f 26 51 29
f 27 43 52
f 27 52 28
f 28 52 53
f 28 53 50
f 29 51 30
f 30 51 54
f 30 54 55
f 30 55 32
f 31 35 37
f 32 55 33
f 33 55 56
f 33 56 34
f 34 56 57
f 34 57 35
f 35 57 37
f 37 57 58
f 37 58 39
f 38 40 41
f 39 58 59
f 39 59 60
f 39 60 40
f 40 60 44
f 40 44 41
f 42 49 43
f 43 49 52
f 44 60 45
f 45 60 47
f 45 47 46
f 47 61 48
f 47 60 59
f 47 59 61
f 48 62 53
f 48 53 52
f 48 52 49
f 48 61 62
f 50 53 54
f 50 54 51
f 53 62 63
f 53 63 54
f 54 63 55
f 55 63 56
f 56 64 57
f 56 63 64
f 57 64 58
f 58 64 59
f 59 64 61
f 61 64 62
f 62 64 63

