# https://github.com/mikedh/trimesh
v -0.03238367 0.06438692 0.02221367
v -0.03373055 0.06438692 0.02331995
v -0.05406891 0.05046332 0.02489113
v -0.05246649 0.05046196 0.02334929
v -0.05165776 0.05046196 0.02209334
v -0.04412671 0.05659434 0.02189695
v -0.04263253 0.05788652 0.02189695
v -0.03802370 0.06427788 0.02189744
v -0.04817033 0.06428469 0.02555142
v -0.04393130 0.06438692 0.02657915
v -0.03588313 0.06438692 0.02454855
v -0.05547290 0.05046196 0.02568368
v -0.06297389 0.05046196 0.02345122
v -0.06167212 0.05066506 0.02259055
v -0.05444471 0.05103036 0.02189695
v -0.05017260 0.05533352 0.02189695
v -0.03937658 0.06357863 0.02189744
v -0.04643563 0.06414839 0.02226339
v -0.04863633 0.06412385 0.02288937
v -0.05175097 0.06182711 0.02538138
v -0.05276713 0.06082118 0.02577119
v -0.04951419 0.06277307 0.02611128
v -0.04618610 0.06414839 0.02646430
v -0.04776146 0.06256452 0.02667362
v -0.04642060 0.06256452 0.02669301
v -0.05361494 0.05633945 0.02694012
v -0.04124056 0.06438692 0.02622713
v -0.03861296 0.06438692 0.02552109
v -0.05782391 0.05062825 0.02673477
v -0.06309716 0.05046196 0.02500897
v -0.06059883 0.05403180 0.02424277
v -0.05867172 0.05506772 0.02281579
v -0.05718054 0.05584194 0.02248962
v -0.05179606 0.05987385 0.02226687
v -0.05045220 0.06121782 0.02225643
v -0.05280922 0.05281459 0.02189695
v -0.05144431 0.05414766 0.02189695
v -0.04507674 0.05964486 0.02189744
v -0.04344125 0.06091659 0.02189744
v -0.04975471 0.06255089 0.02245083
v -0.05230114 0.06102018 0.02265817
v -0.05338946 0.06072713 0.02354768
v -0.05336240 0.06073803 0.02489113
v -0.05045220 0.06121782 0.02656473
v -0.05505201 0.05910781 0.02528392
v -0.05415910 0.05951809 0.02580947
v -0.05478744 0.05717364 0.02684665
v -0.04910833 0.06121782 0.02676212
v -0.05286033 0.05771205 0.02693067
v -0.05849134 0.05243294 0.02697592
v -0.06009976 0.05137384 0.02688792
v -0.06154886 0.05123481 0.02615255
v -0.06023505 0.05317989 0.02593626
v -0.05955561 0.05453477 0.02540922
v -0.05802534 0.05667613 0.02454905
v -0.05664841 0.05797920 0.02418559
v -0.05643796 0.05781155 0.02293611
v -0.05521735 0.05925366 0.02425371
v -0.05778182 0.05611182 0.02574881
v -0.05591184 0.05757165 0.02599841
v -0.05638084 0.05572335 0.02685162
v -0.05813357 0.05420218 0.02669600
f 1 2 3
f 1 3 4
f 1 4 5
f 1 5 6
f 1 6 7
f 1 7 8
f 1 8 9
f 1 9 10
f 1 10 27
f 1 27 28
f 1 28 11
f 1 11 2
f 2 11 3
f 3 12 4
f 3 11 12
f 4 12 30
f 4 30 13
f 4 13 5
f 5 13 14
f 5 14 15
f 5 15 6
f 6 15 36
f 6 36 37
f 6 37 16
f 6 16 7
f 7 16 8
f 8 16 17
f 8 17 18
f 8 18 9
f 9 19 20
f 9 20 21
f 9 21 22
f 9 22 23
f 9 23 10
f 9 18 19
f 10 23 24
f 10 24 25
f 10 25 26
f 10 26 27
f 11 28 29
f 11 29 12
f 12 29 30
f 13 30 31
f 13 31 32
f 13 32 14
f 14 32 33
f 14 33 15
f 15 33 34
f 15 34 35
f 15 35 36
f 16 37 35
f 16 35 38
f 16 38 39
f 16 39 17
f 17 39 18
f 18 39 35
f 18 35 40
f 18 40 19
f 19 40 41
f 19 41 42
f 19 42 43
f 19 43 20
f 20 43 21
f 21 44 22
f 21 43 45
f 21 45 46
f 21 46 47
f 21 47 44
f 22 44 23
f 23 44 24
f 24 44 47
f 24 47 48
f 24 48 25
f 25 48 49
f 25 49 26
f 26 49 50
f 26 50 29
f 26 29 27
f 27 29 28
f 29 50 51
f 29 51 30
f 30 51 52
f 30 52 53
f 30 53 54
f 30 54 31
f 31 54 55
f 31 55 56
f 31 56 57
f 31 57 32
f 32 57 33
f 33 57 41
f 33 41 35
f 33 35 34
f 35 37 36
f 35 41 40
f 35 39 38
f 41 57 42
f 42 57 56
f 42 56 58
f 42 58 43
f 43 58 55
f 43 55 45
f 45 55 59
f 45 59 46
f 46 59 60
f 46 60 61
f 46 61 47
f 47 61 50
f 47 50 49
f 47 49 48
f 50 61 51
f 51 61 62
f 51 62 52
f 52 62 53
f 53 62 59
f 53 59 54
f 54 59 55
f 55 58 56
f 59 62 61
f 59 61 60

