# https://github.com/mikedh/trimesh
v 0.04480886 -0.02956102 -0.01754382
v 0.04480886 -0.02632319 -0.01754382
v 0.04989685 -0.01509137 -0.01754382
v 0.04831493 -0.02741947 -0.01747880
v 0.04745186 -0.02932449 -0.01712612
v 0.04977418 -0.02956102 -0.01478547
v 0.04480886 -0.02956102 -0.01581000
v 0.06414928 -0.01509137 0.00258427
v 0.05385060 -0.01518768 -0.01704928
v 0.05291005 -0.01735190 -0.01741969
v 0.05137978 -0.02142822 -0.01738817
v 0.05065230 -0.02425388 -0.01679512
v 0.05122697 -0.02909645 -0.01354224
v 0.05268836 -0.02896190 -0.01197786
v 0.05393669 -0.02898314 -0.01049032
v 0.05647639 -0.02955252 -0.00664833
v 0.06053129 -0.02956102 0.00004856
v 0.05883960 -0.02956102 0.00258427
v 0.06679659 -0.01575706 0.00258427
v 0.06356601 -0.01528400 -0.00404563
v 0.05515919 -0.01528400 -0.01557160
v 0.05447261 -0.01713519 -0.01578044
v 0.05917535 -0.01547946 -0.01073069
v 0.05255277 -0.01941414 -0.01705322
v 0.05260443 -0.02123984 -0.01627498
v 0.05279168 -0.02450882 -0.01443673
v 0.05312743 -0.02688691 -0.01275808
v 0.05519793 -0.02490824 -0.01147544
v 0.05514412 -0.02876927 -0.00909932
v 0.05621381 -0.02848883 -0.00782457
v 0.05790120 -0.02880893 -0.00504454
v 0.05903545 -0.02904405 -0.00301321
v 0.06057218 -0.02630195 -0.00271768
v 0.06189799 -0.02870695 0.00187498
v 0.06296767 -0.02707529 0.00248970
v 0.06447858 -0.02350745 0.00258427
v 0.06603898 -0.01877110 0.00251531
v 0.06499512 -0.01556161 -0.00124196
v 0.06518883 -0.02154011 0.00258427
v 0.06310973 -0.01686608 -0.00412444
v 0.06191736 -0.01555452 -0.00676457
v 0.05795716 -0.01595677 -0.01214139
v 0.05646993 -0.01736889 -0.01340826
v 0.06062169 -0.01590578 -0.00850430
v 0.05914952 -0.01742413 -0.00996820
v 0.05810136 -0.01816773 -0.01108336
v 0.05590818 -0.02223555 -0.01201135
v 0.05386352 -0.02459805 -0.01323094
v 0.05667440 -0.02415756 -0.01002731
v 0.05789689 -0.02395786 -0.00846490
v 0.05923777 -0.02363067 -0.00677245
v 0.05918396 -0.02754411 -0.00400425
v 0.06168707 -0.02511928 -0.00158872
v 0.06199700 -0.02258822 -0.00288318
v 0.06352296 -0.02495640 0.00177450
v 0.06487029 -0.01946371 0.00064554
v 0.06475192 -0.01816773 -0.00031200
v 0.06169352 -0.02110953 -0.00429782
v 0.06172150 -0.01951328 -0.00509183
v 0.06214120 -0.01741422 -0.00548391
v 0.06065827 -0.02124834 -0.00589766
v 0.05919472 -0.02015065 -0.00864419
v 0.05784308 -0.02031353 -0.01044303
v 0.05930879 -0.02201743 -0.00756252
f 1 2 3
f 1 3 4
f 1 4 5
f 1 5 6
f 1 6 17
f 1 17 18
f 1 18 7
f 1 7 2
f 2 7 8
f 2 8 3
f 3 9 10
f 3 10 4
f 3 8 9
f 4 6 5
f 4 10 11
f 4 11 12
f 4 12 13
f 4 13 6
f 6 13 14
f 6 14 15
f 6 15 16
f 6 16 17
f 7 18 8
f 8 18 36
f 8 36 39
f 8 39 19
f 8 19 20
f 8 20 9
f 9 21 22
f 9 22 10
f 9 20 23
f 9 23 21
f 10 24 11
f 10 22 24
f 11 24 25
f 11 25 12
f 12 25 26
f 12 26 13
f 13 26 27
f 13 27 14
f 14 27 15
f 15 28 29
f 15 29 16
f 15 27 28
f 16 29 30
f 16 30 31
f 16 31 32
f 16 32 17
f 17 32 33
f 17 33 34
f 17 34 18
f 18 34 35
f 18 35 36
f 19 37 38
f 19 38 20
f 19 39 37
f 20 40 41
f 20 41 23
f 20 38 40
f 21 42 22
f 21 23 42
f 22 42 43
f 22 43 25
f 22 25 24
f 23 41 44
f 23 44 45
f 23 45 46
f 23 46 42
f 25 43 47
f 25 47 48
f 25 48 26
f 26 48 27
f 27 48 28
f 28 47 49
f 28 49 29
f 28 48 47
f 29 49 30
f 30 49 50
f 30 50 51
f 30 51 31
f 31 51 52
f 31 52 32
f 32 52 33
f 33 53 35
f 33 35 34
f 33 52 51
f 33 51 54
f 33 54 53
f 35 53 55
f 35 55 36
f 36 55 54
f 36 54 39
f 37 39 56
f 37 56 57
f 37 57 38
f 38 57 40
f 39 54 56
f 40 54 58
f 40 58 59
f 40 59 60
f 40 60 41
f 40 57 56
f 40 56 54
f 41 60 61
f 41 61 62
f 41 62 45
f 41 45 44
f 42 46 43
f 43 46 47
f 45 62 46
f 46 62 63
f 46 63 47
f 47 63 49
f 49 63 64
f 49 64 50
f 50 64 51
f 51 64 61
f 51 61 58
f 51 58 54
f 53 54 55
f 58 61 59
f 59 61 60
f 61 64 62
f 62 64 63

