# https://github.com/mikedh/trimesh
v 0.00336859 0.08099624 0.02354723
v 0.00042225 0.08049787 0.02272101
v 0.00202554 0.08093433 0.02465128
v 0.00471762 0.08073158 0.02496589
v 0.01144186 0.08024714 0.02297899
v 0.00489411 0.08083373 0.02320358
v 0.00042225 0.08067741 0.02492039
v 0.00404161 0.08005677 0.02229266
v 0.00042225 0.07884181 0.02191803
v 0.00041328 0.07459796 0.02140739
v 0.00041328 0.07557767 0.02244270
v 0.00336859 0.08036322 0.02548863
v 0.01134913 0.07969770 0.02533520
v 0.01009582 0.08018524 0.02489087
v 0.01009582 0.07995308 0.02235025
v 0.01545307 0.07965282 0.02455060
v 0.01664955 0.07948102 0.02337879
v 0.00041328 0.07417388 0.02472436
v 0.00042225 0.07797354 0.02629258
v 0.00055087 0.07980759 0.02597991
v 0.01009582 0.07871026 0.02170651
v 0.01182174 0.07831249 0.02161358
v 0.00041328 0.07215256 0.02173942
v 0.00269557 0.07458093 0.02140739
v 0.03097146 0.06788548 0.02140739
v 0.00202554 0.07989890 0.02593683
v 0.01009582 0.07913433 0.02591021
v 0.01816310 0.07778162 0.02591892
v 0.01963777 0.07818712 0.02532310
v 0.01847419 0.07730802 0.02167602
v 0.02139959 0.07825677 0.02456125
v 0.02157009 0.07817474 0.02350464
v 0.02507878 0.07699692 0.02317212
v 0.02615860 0.07608996 0.02243931
v 0.00041926 0.07575565 0.02570112
v 0.00041328 0.07284284 0.02323020
v 0.03097146 0.06613037 0.02343784
v 0.03097146 0.06749236 0.02471420
v 0.00471762 0.07929220 0.02608591
v 0.03097146 0.07064043 0.02615851
v 0.03061849 0.07198540 0.02626209
v 0.01816310 0.07602341 0.02635164
v 0.01345494 0.07344335 0.02140739
v 0.00957535 0.07396494 0.02140739
v 0.00538766 0.07444783 0.02140739
v 0.02418740 0.07063579 0.02140739
v 0.01950316 0.07199933 0.02140739
v 0.03097146 0.06518625 0.02178589
v 0.02814476 0.06916235 0.02140739
v 0.02868617 0.07433175 0.02173652
v 0.03086676 0.07292023 0.02183816
v 0.01681407 0.07736528 0.02619046
v 0.02623338 0.07467689 0.02615077
v 0.02869814 0.07515049 0.02549492
v 0.02488734 0.07683287 0.02515224
v 0.02461813 0.07564576 0.02175007
v 0.02644875 0.07667190 0.02433279
v 0.02989462 0.07546777 0.02401818
v 0.02927245 0.07542754 0.02279168
v 0.02757344 0.07573244 0.02252305
v 0.03097146 0.06906949 0.02564642
v 0.03078899 0.07424353 0.02539667
v 0.02824946 0.07333037 0.02623837
v 0.03070823 0.07462891 0.02288703
f 1 2 3
f 1 3 4
f 1 4 5
f 1 5 6
f 1 6 2
f 2 7 3
f 2 6 8
f 2 8 9
f 2 9 10
f 2 10 11
f 2 11 7
f 3 12 4
f 3 7 12
f 4 13 14
f 4 14 5
f 4 12 13
f 5 15 6
f 5 14 16
f 5 16 17
f 5 17 15
f 6 15 8
f 7 11 18
f 7 18 19
f 7 19 20
f 7 20 12
f 8 15 21
f 8 21 9
f 9 21 22
f 9 22 10
f 10 23 36
f 10 36 18
f 10 18 11
f 10 22 24
f 10 24 45
f 10 45 44
f 10 44 43
f 10 43 47
f 10 47 46
f 10 46 49
f 10 49 25
f 10 25 23
f 12 20 26
f 12 26 27
f 12 27 13
f 13 16 14
f 13 27 28
f 13 28 29
f 13 29 16
f 15 17 30
f 15 30 22
f 15 22 21
f 16 29 31
f 16 31 17
f 17 31 32
f 17 32 33
f 17 33 34
f 17 34 30
f 18 35 19
f 18 36 37
f 18 37 38
f 18 38 35
f 19 39 20
f 19 35 40
f 19 40 41
f 19 41 42
f 19 42 39
f 20 39 26
f 22 43 44
f 22 44 45
f 22 45 24
f 22 30 46
f 22 46 47
f 22 47 43
f 23 48 36
f 23 25 48
f 25 49 50
f 25 50 51
f 25 51 40
f 25 40 61
f 25 61 38
f 25 38 37
f 25 37 48
f 26 39 27
f 27 39 52
f 27 52 28
f 28 52 53
f 28 53 54
f 28 54 55
f 28 55 29
f 29 55 31
f 30 34 56
f 30 56 50
f 30 50 49
f 30 49 46
f 31 55 57
f 31 57 32
f 32 57 33
f 33 57 58
f 33 58 59
f 33 59 60
f 33 60 34
f 34 60 50
f 34 50 56
f 35 38 61
f 35 61 40
f 36 48 37
f 39 42 52
f 40 51 62
f 40 62 41
f 41 54 53
f 41 53 63
f 41 63 42
f 41 62 54
f 42 63 53
f 42 53 52
f 50 59 64
f 50 64 51
f 50 60 59
f 51 64 62
f 54 62 58
f 54 58 57
f 54 57 55
f 58 64 59
f 58 62 64

