# https://github.com/mikedh/trimesh
v 0.01846774 -0.06908555 0.02312356
v 0.01846774 -0.06992167 0.02474459
v 0.02531607 -0.07524037 0.02731815
v 0.02553778 -0.07524153 0.02363621
v 0.00001255 -0.07093200 0.02145874
v -0.01640621 -0.06928877 0.02183099
v -0.01640621 -0.06995883 0.02397691
v 0.01846774 -0.07139303 0.02639332
v 0.02362862 -0.07458656 0.02790873
v -0.01640211 -0.07182618 0.02623167
v 0.02252008 -0.07633895 0.02731364
v 0.02499993 -0.07663740 0.02549232
v 0.02258166 -0.07730978 0.02448633
v 0.02353830 -0.07602192 0.02345588
v -0.00033644 -0.07374579 0.02145874
v -0.01588068 -0.07204799 0.02145874
v 0.01917803 -0.07696836 0.02309072
v -0.01640211 -0.07819120 0.02377597
v -0.01640621 -0.07482463 0.02447152
v -0.01640211 -0.07538553 0.02789520
v 0.01846774 -0.07319883 0.02749139
v 0.02161271 -0.07458656 0.02798730
v 0.01748237 -0.07602192 0.02796605
v 0.02017571 -0.07602192 0.02781663
v 0.01613980 -0.07757572 0.02755644
v 0.01756037 -0.07837120 0.02648348
v 0.01748237 -0.07874978 0.02489208
v 0.01990474 -0.07809714 0.02472592
v 0.01815570 -0.07831198 0.02394213
v -0.00282450 -0.07372837 0.02145874
v 0.01042464 -0.07931184 0.02363557
v 0.00269768 -0.07998655 0.02378691
v -0.01412343 -0.07242773 0.02145874
v -0.01143008 -0.07871146 0.02354862
v -0.01371697 -0.07944307 0.02416625
v -0.01581088 -0.07926655 0.02508851
v -0.01593405 -0.07788811 0.02749397
v -0.01412343 -0.07736669 0.02788748
v -0.01210342 -0.07736669 0.02796862
v 0.00672539 -0.07736669 0.02803818
v 0.01076131 -0.07736669 0.02796669
v 0.00605616 -0.07871146 0.02779152
v 0.01029326 -0.07908307 0.02725053
v 0.01378722 -0.07941520 0.02564753
v 0.01323295 -0.07946630 0.02428475
v -0.00734900 -0.07348683 0.02145874
v 0.00051344 -0.08079017 0.02468083
v -0.00676599 -0.08064384 0.02478130
v -0.01114679 -0.07299096 0.02145874
v -0.00910625 -0.08077042 0.02548459
v -0.01412343 -0.07945236 0.02638688
v -0.01412343 -0.07859185 0.02731042
v -0.00874084 -0.07871146 0.02767688
v -0.00336235 -0.07871146 0.02784883
v -0.00134234 -0.07871146 0.02788426
v 0.00135101 -0.07871146 0.02790937
v 0.00404025 -0.07925262 0.02758092
v 0.00067767 -0.07981817 0.02731042
v 0.00067767 -0.08049171 0.02652728
v 0.00509132 -0.08057997 0.02534226
v -0.00134234 -0.08094926 0.02550520
v -0.00403158 -0.08055326 0.02625163
v -0.01143419 -0.07917597 0.02718741
v -0.00201568 -0.07981468 0.02732395
f 1 2 3
f 1 3 4
f 1 4 5
f 1 5 6
f 1 6 7
f 1 7 2
f 2 8 9
f 2 9 3
f 2 7 10
f 2 10 8
f 3 9 11
f 3 11 12
f 3 12 4
f 4 12 13
f 4 13 14
f 4 14 5
f 5 15 30
f 5 30 46
f 5 46 49
f 5 49 33
f 5 33 16
f 5 16 6
f 5 14 17
f 5 17 15
f 6 16 18
f 6 18 19
f 6 19 7
f 7 19 20
f 7 20 10
f 8 21 9
f 8 10 21
f 9 22 23
f 9 23 24
f 9 24 11
f 9 21 22
f 10 20 21
f 11 24 25
f 11 25 26
f 11 26 12
f 12 26 27
f 12 27 28
f 12 28 13
f 13 28 29
f 13 29 14
f 14 29 17
f 15 17 31
f 15 31 32
f 15 32 30
f 16 33 34
f 16 34 18
f 17 29 31
f 18 35 36
f 18 36 37
f 18 37 20
f 18 20 19
f 18 34 35
f 20 37 38
f 20 38 39
f 20 39 40
f 20 40 22
f 20 22 21
f 22 40 23
f 23 40 41
f 23 41 24
f 24 41 25
f 25 41 42
f 25 42 43
f 25 43 26
f 26 43 44
f 26 44 27
f 27 44 45
f 27 45 29
f 27 29 28
f 29 45 31
f 30 32 34
f 30 34 46
f 31 45 47
f 31 47 32
f 32 47 48
f 32 48 35
f 32 35 34
f 33 49 34
f 34 49 46
f 35 48 50
f 35 50 36
f 36 50 51
f 36 51 37
f 37 51 52
f 37 52 38
f 38 52 53
f 38 53 39
f 39 53 54
f 39 54 55
f 39 55 56
f 39 56 40
f 40 56 41
f 41 56 42
f 42 56 57
f 42 57 43
f 43 57 58
f 43 58 59
f 43 59 60
f 43 60 44
f 44 60 45
f 45 60 47
f 47 61 50
f 47 50 48
f 47 60 61
f 50 61 62
f 50 62 63
f 50 63 51
f 51 63 52
f 52 63 53
f 53 64 54
f 53 63 64
f 54 64 55
f 55 64 56
f 56 58 57
f 56 64 58
f 58 64 59
f 59 64 62
f 59 62 61
f 59 61 60
f 62 64 63

