# https://github.com/mikedh/trimesh
v 0.00518225 0.06796158 0.00100167
v 0.00054466 0.06806958 0.00083468
v 0.00041312 0.06543533 0.00100167
v 0.01381417 0.06407079 0.00100167
v 0.01370188 0.06677616 0.00096570
v 0.01198705 0.06710545 0.00096570
v 0.00796866 0.06737414 0.00026692
v 0.00538598 0.06706857 -0.00089428
v 0.00269422 0.06689471 -0.00154168
v 0.00054466 0.06732936 -0.00076583
v 0.00047889 0.06641000 -0.00253847
v 0.00041312 0.06344910 -0.00774592
v 0.00041312 0.05187156 -0.01820705
v 0.00041472 0.04422959 -0.02524365
v 0.01678987 0.04115805 -0.02524365
v 0.01680110 0.04408207 -0.02257442
v 0.01680110 0.05187156 -0.01559177
v 0.01371793 0.06590423 -0.00087373
v 0.01680110 0.05012241 -0.02047808
v 0.00874346 0.06621507 -0.00187309
v 0.00641744 0.06460554 -0.00542093
v 0.00471224 0.06467930 -0.00555709
v 0.00269422 0.06452651 -0.00597071
v 0.00047889 0.06456866 -0.00588850
v 0.00231724 0.06326997 -0.00801823
v 0.00041312 0.06250077 -0.00924367
v 0.00041312 0.05187156 -0.02139523
v 0.00052541 0.04781481 -0.02524365
v 0.01668720 0.04473010 -0.02524365
v 0.01381417 0.06106510 -0.00913834
v 0.01355430 0.06402864 -0.00439075
v 0.01077752 0.06440534 -0.00462196
v 0.01488895 0.04533071 -0.02524365
v 0.01604715 0.05179517 -0.01920898
v 0.00820767 0.06458446 -0.00505870
v 0.00740079 0.06174737 -0.00990648
v 0.00471224 0.06295123 -0.00837276
v 0.00269422 0.06188963 -0.01010173
v 0.00269422 0.06073319 -0.01168939
v 0.00054466 0.05978222 -0.01292767
v 0.00054466 0.05599153 -0.01762902
v 0.00047889 0.05411331 -0.01944790
v 0.00287228 0.04775422 -0.02524365
v 0.00946051 0.06132063 -0.01008888
v 0.01329603 0.06317778 -0.00592447
v 0.01381417 0.05818323 -0.01285574
v 0.01303616 0.05960309 -0.01138368
v 0.01079677 0.06348335 -0.00621220
v 0.01219880 0.04608937 -0.02524365
v 0.01400507 0.05230094 -0.01926293
v 0.01381417 0.05371817 -0.01788849
v 0.01381417 0.05676600 -0.01448965
v 0.00812586 0.05786976 -0.01481849
v 0.00269422 0.05958992 -0.01316916
v 0.00538598 0.06206349 -0.00966756
v 0.00504911 0.05595729 -0.01727706
v 0.00672865 0.05437674 -0.01871572
v 0.00471224 0.05361807 -0.01963287
v 0.00471063 0.04760144 -0.02524365
v 0.00937549 0.04673740 -0.02524365
v 0.00900654 0.05471392 -0.01805291
v 0.01210736 0.05595992 -0.01589234
v 0.00787401 0.05613905 -0.01676839
v 0.00658588 0.04726952 -0.02524365
f 1 2 3
f 1 3 4
f 1 4 5
f 1 5 6
f 1 6 7
f 1 7 8
f 1 8 9
f 1 9 2
f 2 9 10
f 2 10 11
f 2 11 3
f 3 11 12
f 3 12 26
f 3 26 27
f 3 27 13
f 3 13 14
f 3 14 15
f 3 15 4
f 4 15 16
f 4 16 17
f 4 17 5
f 5 18 6
f 5 17 19
f 5 19 18
f 6 18 20
f 6 20 7
f 7 20 8
f 8 20 21
f 8 21 22
f 8 22 9
f 9 22 23
f 9 23 11
f 9 11 10
f 11 24 12
f 11 23 24
f 12 23 25
f 12 25 26
f 12 24 23
f 13 27 14
f 14 27 28
f 14 28 43
f 14 43 59
f 14 59 64
f 14 64 60
f 14 60 49
f 14 49 33
f 14 33 29
f 14 29 15
f 15 29 19
f 15 19 16
f 16 19 17
f 18 30 31
f 18 31 32
f 18 32 20
f 18 19 30
f 19 29 33
f 19 33 34
f 19 34 30
f 20 32 35
f 20 35 21
f 21 35 36
f 21 36 37
f 21 37 22
f 22 37 23
f 23 37 25
f 25 37 38
f 25 38 26
f 26 38 39
f 26 39 40
f 26 40 41
f 26 41 42
f 26 42 27
f 27 42 28
f 28 42 43
f 30 44 45
f 30 45 31
f 30 34 46
f 30 46 47
f 30 47 44
f 31 45 48
f 31 48 32
f 32 48 35
f 33 49 34
f 34 49 50
f 34 50 51
f 34 51 52
f 34 52 46
f 35 48 44
f 35 44 36
f 36 44 53
f 36 53 54
f 36 54 39
f 36 39 55
f 36 55 37
f 37 55 38
f 38 55 39
f 39 54 40
f 40 54 41
f 41 54 53
f 41 53 56
f 41 56 57
f 41 57 58
f 41 58 42
f 42 58 43
f 43 58 59
f 44 48 45
f 44 47 53
f 46 52 53
f 46 53 47
f 49 60 50
f 50 61 51
f 50 60 61
f 51 61 62
f 51 62 52
f 52 62 53
f 53 62 61
f 53 61 63
f 53 63 56
f 56 63 57
f 57 63 61
f 57 61 59
f 57 59 58
f 59 61 64
f 60 64 61

