# https://github.com/mikedh/trimesh
v -0.03036309 0.05974298 0.00464550
v -0.03036309 0.06508074 0.02133697
v -0.03036309 0.06495767 0.01002229
v -0.02998657 0.06332372 0.00543912
v -0.02488704 0.06520973 0.00467920
v -0.02270325 0.06602374 0.00465561
v 0.00040879 0.06732260 0.00464550
v 0.00040879 0.07190862 0.02102525
v -0.03036309 0.06821074 0.02185763
v -0.00013640 0.07488739 0.02185763
v -0.02986307 0.06574647 0.01185555
v -0.02826966 0.06594219 0.01006273
v -0.02927872 0.06486130 0.00829012
v -0.02688709 0.06490726 0.00573231
v -0.02439908 0.06600150 0.00604909
v -0.02200745 0.06717433 0.00686294
v -0.01983571 0.06721881 0.00532286
v -0.01609766 0.06791123 0.00467077
v -0.00805227 0.06942805 0.00467920
v -0.00013640 0.07020943 0.00550989
v -0.00013640 0.07116282 0.00810477
v -0.00013640 0.07201390 0.01079907
v -0.02862509 0.06903661 0.02185763
v -0.00195573 0.07488146 0.02185763
v -0.02657082 0.06700381 0.01128266
v -0.02678167 0.06578206 0.00776778
v -0.02273036 0.06751535 0.00855466
v -0.01891701 0.06843018 0.00767342
v -0.01748323 0.06827450 0.00626477
v -0.01469401 0.06905885 0.00664557
v -0.01336867 0.06860662 0.00490667
v -0.01009449 0.06914633 0.00467920
v -0.00900711 0.07012195 0.00684946
v -0.00706730 0.07023612 0.00653268
v -0.00398289 0.06999592 0.00534982
v -0.00202199 0.07015457 0.00549136
v -0.00269370 0.07085886 0.00740382
v -0.00202199 0.07161060 0.00955892
v -0.00269370 0.07210879 0.01144105
v -0.00397686 0.07482363 0.02185763
v -0.02462498 0.07057418 0.02185763
v -0.02437799 0.06831008 0.01296090
v -0.02411895 0.06746642 0.00985210
v -0.02077549 0.06854435 0.00977459
v -0.01778144 0.06968752 0.01064405
v -0.01681755 0.06935687 0.00874844
v -0.01473919 0.07004634 0.00945108
v -0.01271203 0.06988324 0.00784865
v -0.01211261 0.06932722 0.00605751
v -0.00874807 0.07098786 0.00929774
v -0.00681428 0.07119099 0.00923034
v -0.01177526 0.07056973 0.00942075
v -0.00471483 0.07074469 0.00740382
v -0.00404012 0.07146974 0.00947130
v -0.00471483 0.07199165 0.01144105
v -0.00580522 0.07470650 0.02185763
v -0.02132370 0.07178556 0.02185763
v -0.02310085 0.06835160 0.01162134
v -0.01950738 0.06942805 0.01144105
v -0.01527233 0.07339430 0.02185763
v -0.01476027 0.07062311 0.01139724
v -0.01179634 0.07130516 0.01179995
v -0.00940170 0.07141043 0.01088331
v -0.00941977 0.07192938 0.01278566
f 1 2 9
f 1 9 3
f 1 3 4
f 1 4 5
f 1 5 6
f 1 6 7
f 1 7 8
f 1 8 2
f 2 8 10
f 2 10 9
f 3 9 11
f 3 11 12
f 3 12 13
f 3 13 4
f 4 13 14
f 4 14 5
f 5 14 15
f 5 15 6
f 6 16 17
f 6 17 18
f 6 18 19
f 6 19 7
f 6 15 16
f 7 19 20
f 7 20 21
f 7 21 22
f 7 22 8
f 8 22 10
f 9 23 11
f 9 10 24
f 9 24 40
f 9 40 56
f 9 56 60
f 9 60 57
f 9 57 41
f 9 41 23
f 10 22 24
f 11 23 12
f 12 25 26
f 12 26 13
f 12 23 25
f 13 26 14
f 14 26 15
f 15 26 16
f 16 27 28
f 16 28 17
f 16 26 27
f 17 28 29
f 17 29 18
f 18 29 30
f 18 30 31
f 18 31 32
f 18 32 19
f 19 32 33
f 19 33 34
f 19 34 35
f 19 35 36
f 19 36 20
f 20 36 37
f 20 37 21
f 21 37 38
f 21 38 22
f 22 38 39
f 22 39 40
f 22 40 24
f 23 41 42
f 23 42 25
f 25 42 43
f 25 43 26
f 26 43 27
f 27 43 44
f 27 44 28
f 28 45 46
f 28 46 29
f 28 44 45
f 29 46 30
f 30 47 48
f 30 48 49
f 30 49 31
f 30 46 47
f 31 49 32
f 32 49 33
f 33 50 51
f 33 51 34
f 33 49 48
f 33 48 52
f 33 52 50
f 34 51 53
f 34 53 35
f 35 53 37
f 35 37 36
f 37 53 54
f 37 54 38
f 38 54 39
f 39 54 55
f 39 55 40
f 40 55 56
f 41 57 42
f 42 57 58
f 42 58 43
f 43 58 44
f 44 58 59
f 44 59 45
f 45 59 57
f 45 57 60
f 45 60 61
f 45 61 46
f 46 61 47
f 47 62 52
f 47 52 48
f 47 61 62
f 50 52 63
f 50 63 51
f 51 63 55
f 51 55 54
f 51 54 53
f 52 62 63
f 55 63 64
f 55 64 56
f 56 64 60
f 57 59 58
f 60 64 62
f 60 62 61
f 62 64 63

