# https://github.com/mikedh/trimesh
v 0.07474703 -0.00045143 0.02249976
v 0.07468163 -0.00296320 0.02249976
v 0.07255139 -0.00117486 0.01315456
v 0.07188491 -0.00025465 0.01076466
v 0.07185221 0.00000000 0.02234966
v 0.06991972 -0.01623393 0.02249976
v 0.07436241 -0.00682636 0.02249976
v 0.07238165 -0.00652830 0.01384269
v 0.07209046 -0.00353616 0.01177247
v 0.06876740 -0.00037619 0.00258713
v 0.06600026 -0.00000289 0.00259103
v 0.07150339 -0.00269408 0.00967497
v 0.07049745 -0.00075816 0.00653652
v 0.05884183 -0.02956254 0.00258518
v 0.06526215 -0.02956254 0.02238084
v 0.07265260 -0.01623393 0.02249976
v 0.06877518 -0.02866548 0.02249781
v 0.07391549 -0.01021494 0.02249976
v 0.07180705 -0.00942205 0.01276470
v 0.07116237 -0.01009340 0.01070618
v 0.07105181 -0.00544025 0.00873928
v 0.06990104 -0.00510457 0.00549556
v 0.06882657 -0.00760188 0.00364563
v 0.06799347 -0.01187016 0.00322457
v 0.06668854 -0.01623393 0.00258518
v 0.06391362 -0.01623393 0.00258518
v 0.07074971 -0.00269408 0.00740398
v 0.06201695 -0.02917768 0.00258518
v 0.06454117 -0.02899248 0.00769443
v 0.07330507 -0.01376557 0.02249976
v 0.06972663 -0.02614503 0.02249781
v 0.07078086 -0.02306318 0.02249781
v 0.07179148 -0.01994083 0.02249781
v 0.06614041 -0.02843109 0.01168085
v 0.06774744 -0.02569939 0.01349375
v 0.07087273 -0.01216532 0.01089137
v 0.07045228 -0.01076764 0.00874903
v 0.07019223 -0.00740221 0.00676264
v 0.06997267 -0.00951465 0.00691274
v 0.06949928 -0.01212481 0.00681138
v 0.06855095 -0.01388421 0.00532597
v 0.06805420 -0.01599086 0.00532207
v 0.06612483 -0.01877754 0.00269240
v 0.06472492 -0.02283747 0.00258518
v 0.06306494 -0.02709418 0.00269240
v 0.06433873 -0.02714337 0.00533962
v 0.06607656 -0.02598877 0.00839230
v 0.07258253 -0.01684741 0.02249781
v 0.07051613 -0.01682137 0.01345087
v 0.07095837 -0.01452952 0.01309803
v 0.06897762 -0.02240920 0.01357757
v 0.06954600 -0.02031701 0.01314482
v 0.06718217 -0.02570228 0.01141185
v 0.06985899 -0.01647990 0.01067694
v 0.06929996 -0.01413307 0.00740398
v 0.06877207 -0.01827113 0.00868470
v 0.06753566 -0.01847948 0.00557354
v 0.06590527 -0.02095364 0.00357935
v 0.06423596 -0.02501357 0.00322457
v 0.06614508 -0.02316446 0.00575288
v 0.06694392 -0.02399208 0.00871979
v 0.06930463 -0.01881516 0.01078025
v 0.06873781 -0.02085236 0.01079780
v 0.06720709 -0.02099415 0.00659890
f 1 2 3
f 1 3 4
f 1 4 5
f 1 5 6
f 1 6 16
f 1 16 30
f 1 30 18
f 1 18 7
f 1 7 2
f 2 7 8
f 2 8 9
f 2 9 3
f 3 9 4
f 4 10 11
f 4 11 5
f 4 9 12
f 4 12 13
f 4 13 10
f 5 11 14
f 5 14 15
f 5 15 6
f 6 15 17
f 6 17 16
f 7 18 19
f 7 19 8
f 8 19 9
f 9 19 20
f 9 20 21
f 9 21 12
f 10 13 22
f 10 22 23
f 10 23 24
f 10 24 25
f 10 25 26
f 10 26 11
f 11 26 14
f 12 21 27
f 12 27 13
f 13 27 22
f 14 28 15
f 14 26 25
f 14 25 44
f 14 44 28
f 15 28 29
f 15 29 17
f 16 17 31
f 16 31 32
f 16 32 33
f 16 33 30
f 17 29 34
f 17 34 35
f 17 35 31
f 18 30 19
f 19 30 36
f 19 36 20
f 20 36 37
f 20 37 38
f 20 38 21
f 21 38 22
f 21 22 27
f 22 38 23
f 23 39 24
f 23 38 39
f 24 39 40
f 24 40 41
f 24 41 25
f 25 41 42
f 25 42 43
f 25 43 44
f 28 44 45
f 28 45 46
f 28 46 29
f 29 46 47
f 29 47 34
f 30 33 48
f 30 48 49
f 30 49 50
f 30 50 36
f 31 35 51
f 31 51 32
f 32 51 33
f 33 51 52
f 33 52 49
f 33 49 48
f 34 47 53
f 34 53 35
f 35 53 51
f 36 50 54
f 36 54 55
f 36 55 37
f 37 40 39
f 37 39 38
f 37 55 40
f 40 55 41
f 41 55 42
f 42 55 56
f 42 56 57
f 42 57 43
f 43 57 58
f 43 58 44
f 44 58 59
f 44 59 45
f 45 59 46
f 46 59 60
f 46 60 47
f 47 60 61
f 47 61 53
f 49 54 50
f 49 52 62
f 49 62 54
f 51 63 52
f 51 53 63
f 52 63 62
f 53 61 63
f 54 62 56
f 54 56 55
f 56 62 63
f 56 63 64
f 56 64 57
f 57 64 58
f 58 64 60
f 58 60 59
f 60 64 61
f 61 64 63

