# https://github.com/mikedh/trimesh
v -0.05115215 0.04094668 0.00134959
v -0.06155615 0.02191205 0.00134959
v -0.05639601 0.03823624 0.00134959
v -0.05509252 0.04037440 0.00167348
v -0.05627244 0.04069130 0.00414160
v -0.06267229 0.04095228 0.02229165
v -0.05625848 0.04095228 0.01158078
v -0.05896113 0.04095228 0.02147783
v -0.06845030 0.02190832 0.02159673
v -0.06588517 0.02210406 0.00428304
v -0.06442024 0.02282920 0.00187848
v -0.06331606 0.02505311 0.00134959
v -0.06605857 0.02190832 0.01158078
v -0.07151370 0.02190832 0.02229165
v -0.05918834 0.03372505 0.00134959
v -0.05785695 0.03630686 0.00167758
v -0.05787688 0.03769564 0.00333597
v -0.05666109 0.03923355 0.00299159
v -0.05782506 0.03896325 0.00477707
v -0.05768355 0.04029610 0.00630427
v -0.05938765 0.04025509 0.01017043
v -0.06001349 0.04051234 0.01251965
v -0.06390801 0.03899680 0.02229165
v -0.06188103 0.03731909 0.01190057
v -0.06688970 0.02235385 0.00677165
v -0.06591307 0.02426831 0.00601728
v -0.06464745 0.02499159 0.00396120
v -0.06470326 0.02641579 0.00524036
v -0.06303703 0.02670846 0.00215317
v -0.06220789 0.02829670 0.00189283
v -0.06075492 0.03082632 0.00134959
v -0.07046532 0.02510531 0.02229165
v -0.06830081 0.02281056 0.01116055
v -0.06060544 0.03238660 0.00259390
v -0.06031843 0.03396925 0.00370086
v -0.05924814 0.03572898 0.00354302
v -0.05911858 0.03784104 0.00587583
v -0.05899103 0.03979652 0.00842389
v -0.06052771 0.03885886 0.01071161
v -0.06502016 0.03708234 0.02229165
v -0.06312472 0.03529278 0.01221011
v -0.06176742 0.03642990 0.01000644
v -0.06710894 0.02426272 0.00905117
v -0.06588517 0.02633377 0.00781507
v -0.06330211 0.02859496 0.00427484
v -0.06443618 0.02860428 0.00665891
v -0.06193684 0.03005830 0.00290754
v -0.06206041 0.03132964 0.00432814
v -0.06927743 0.02827060 0.02229165
v -0.06803772 0.02489280 0.01278204
v -0.06706708 0.02567946 0.01040412
v -0.06197271 0.03343610 0.00637397
v -0.06063933 0.03714759 0.00822300
v -0.06762117 0.03227662 0.02229165
v -0.06420698 0.03378097 0.01299933
v -0.06337984 0.03357032 0.01011508
v -0.06191292 0.03529651 0.00867808
v -0.06458368 0.03059703 0.00928281
v -0.06317056 0.03086733 0.00613208
v -0.06721457 0.02677557 0.01234541
v -0.06572373 0.02981224 0.01165253
v -0.06352334 0.03210511 0.00842594
v -0.06521150 0.03161858 0.01278204
v -0.06441625 0.03247981 0.01151313
f 1 2 12
f 1 12 31
f 1 31 15
f 1 15 3
f 1 3 4
f 1 4 5
f 1 5 6
f 1 6 7
f 1 7 8
f 1 8 9
f 1 9 2
f 2 10 11
f 2 11 12
f 2 9 13
f 2 13 14
f 2 14 10
f 3 15 16
f 3 16 17
f 3 17 18
f 3 18 4
f 4 18 5
f 5 19 20
f 5 20 21
f 5 21 22
f 5 22 6
f 5 18 19
f 6 23 40
f 6 40 54
f 6 54 49
f 6 49 32
f 6 32 14
f 6 14 8
f 6 8 7
f 6 22 24
f 6 24 23
f 8 14 9
f 9 14 13
f 10 25 26
f 10 26 27
f 10 27 11
f 10 14 25
f 11 27 12
f 12 27 28
f 12 28 29
f 12 29 30
f 12 30 31
f 14 32 33
f 14 33 25
f 15 31 34
f 15 34 35
f 15 35 36
f 15 36 16
f 16 36 17
f 17 36 19
f 17 19 18
f 19 37 20
f 19 36 37
f 20 37 38
f 20 38 21
f 21 38 39
f 21 39 22
f 22 39 24
f 23 24 40
f 24 41 40
f 24 39 42
f 24 42 41
f 25 33 43
f 25 43 26
f 26 43 44
f 26 44 28
f 26 28 27
f 28 45 29
f 28 44 46
f 28 46 45
f 29 45 30
f 30 45 47
f 30 47 31
f 31 47 48
f 31 48 34
f 32 49 50
f 32 50 33
f 33 50 51
f 33 51 43
f 34 48 52
f 34 52 35
f 35 52 36
f 36 52 37
f 37 52 53
f 37 53 38
f 38 53 39
f 39 53 42
f 40 41 55
f 40 55 54
f 41 42 56
f 41 56 55
f 42 53 57
f 42 57 56
f 43 51 44
f 44 51 58
f 44 58 46
f 45 46 59
f 45 59 48
f 45 48 47
f 46 58 59
f 48 59 52
f 49 54 60
f 49 60 50
f 50 60 51
f 51 60 61
f 51 61 58
f 52 59 62
f 52 62 57
f 52 57 53
f 54 55 63
f 54 63 61
f 54 61 60
f 55 56 64
f 55 64 63
f 56 57 62
f 56 62 58
f 56 58 64
f 58 61 64
f 58 62 59
f 61 63 64

