# https://github.com/mikedh/trimesh
v -0.02626901 0.04479956 -0.02109482
v -0.02626901 0.04095099 -0.02109482
v -0.02626901 0.03628021 -0.02469805
v -0.02697294 0.03995385 -0.02469805
v -0.02968124 0.04272221 -0.02112435
v -0.03491409 0.04095099 -0.01948325
v -0.03969461 0.04076949 -0.01625883
v -0.04091023 0.04095099 -0.01506460
v -0.04362419 0.04088320 -0.01192878
v -0.04057099 0.04095099 -0.01157950
v -0.02626901 0.03925630 -0.02230702
v -0.05255197 0.02356241 -0.01157950
v -0.04151804 0.02246032 -0.02225181
v -0.03880126 0.02246032 -0.02469805
v -0.02866916 0.03879928 -0.02469805
v -0.03284469 0.04095099 -0.02068133
v -0.03679124 0.03846472 -0.02007009
v -0.03739340 0.03957556 -0.01890411
v -0.03022403 0.03760753 -0.02469805
v -0.03370977 0.03907262 -0.02156866
v -0.03890021 0.03989044 -0.01754038
v -0.04038723 0.03836413 -0.01750442
v -0.04435074 0.03761628 -0.01476283
v -0.04443272 0.03905731 -0.01349284
v -0.04578687 0.03969145 -0.01163215
v -0.05422558 0.02696053 -0.01165141
v -0.05515002 0.02385761 -0.01218304
v -0.05371671 0.02356241 -0.01401419
v -0.04667739 0.02246032 -0.02109482
v -0.04292025 0.02246032 -0.02109482
v -0.04212586 0.02289547 -0.02469805
v -0.03174215 0.03631301 -0.02469805
v -0.03452113 0.03357746 -0.02469805
v -0.03870232 0.03801426 -0.01902995
v -0.04223046 0.03647701 -0.01736831
v -0.04376837 0.03635675 -0.01618050
v -0.04858281 0.03402792 -0.01327582
v -0.04867610 0.03563295 -0.01200840
v -0.05006983 0.03391859 -0.01181450
v -0.05139289 0.03205552 -0.01169251
v -0.05371388 0.02624330 -0.01267871
v -0.05244171 0.02621268 -0.01410408
v -0.05220142 0.02377671 -0.01553459
v -0.05034971 0.02356241 -0.01738885
v -0.04861108 0.02356241 -0.01898758
v -0.04941396 0.02579503 -0.01745948
v -0.04704490 0.02413970 -0.02014970
v -0.04109116 0.02481757 -0.02469805
v -0.04794390 0.02581252 -0.01870636
v -0.03590355 0.03202491 -0.02469805
v -0.04166223 0.03493540 -0.01880652
v -0.04290894 0.03311826 -0.01899657
v -0.04448926 0.03310514 -0.01769062
v -0.04663216 0.03169472 -0.01669800
v -0.04850648 0.03173845 -0.01487583
v -0.04984932 0.03173189 -0.01352751
v -0.04993978 0.02930685 -0.01496187
v -0.05110735 0.02755531 -0.01478209
v -0.05047693 0.02624111 -0.01617022
v -0.04815875 0.03024932 -0.01614583
v -0.04688376 0.03027774 -0.01731180
v -0.03985858 0.02686213 -0.02469805
v -0.04421786 0.03141045 -0.01891952
v -0.04230396 0.03202491 -0.02011760
f 1 2 11
f 1 11 3
f 1 3 4
f 1 4 5
f 1 5 6
f 1 6 7
f 1 7 8
f 1 8 9
f 1 9 10
f 1 10 2
f 2 10 12
f 2 12 11
f 3 11 13
f 3 13 14
f 3 14 31
f 3 31 48
f 3 48 62
f 3 62 50
f 3 50 33
f 3 33 32
f 3 32 19
f 3 19 15
f 3 15 4
f 4 15 5
f 5 15 16
f 5 16 6
f 6 17 18
f 6 18 7
f 6 16 19
f 6 19 20
f 6 20 17
f 7 18 21
f 7 21 22
f 7 22 23
f 7 23 8
f 8 23 24
f 8 24 25
f 8 25 9
f 9 25 10
f 10 25 12
f 11 12 13
f 12 25 26
f 12 26 27
f 12 27 28
f 12 28 29
f 12 29 30
f 12 30 13
f 13 30 29
f 13 29 14
f 14 29 31
f 15 19 16
f 17 20 32
f 17 32 33
f 17 33 34
f 17 34 18
f 18 34 21
f 19 32 20
f 21 34 22
f 22 34 35
f 22 35 36
f 22 36 23
f 23 25 24
f 23 36 37
f 23 37 38
f 23 38 25
f 25 38 39
f 25 39 40
f 25 40 26
f 26 41 27
f 26 40 41
f 27 41 28
f 28 41 42
f 28 42 43
f 28 43 29
f 29 43 44
f 29 44 45
f 29 45 46
f 29 46 47
f 29 47 31
f 31 47 49
f 31 49 48
f 33 50 34
f 34 51 35
f 34 50 51
f 35 51 52
f 35 52 36
f 36 53 54
f 36 54 37
f 36 52 53
f 37 54 55
f 37 55 56
f 37 56 39
f 37 39 38
f 39 56 40
f 40 56 57
f 40 57 58
f 40 58 41
f 41 58 42
f 42 58 59
f 42 59 43
f 43 59 46
f 43 46 44
f 44 46 45
f 46 59 57
f 46 57 60
f 46 60 61
f 46 61 49
f 46 49 47
f 48 49 62
f 49 61 63
f 49 63 62
f 50 62 64
f 50 64 51
f 51 64 52
f 52 64 63
f 52 63 53
f 53 63 54
f 54 63 61
f 54 61 60
f 54 60 55
f 55 60 57
f 55 57 56
f 57 59 58
f 62 63 64

