# https://github.com/mikedh/trimesh
v -0.03869760 0.00973091 -0.00082275
v -0.03869760 0.00958640 -0.00109549
v -0.03869760 0.00943673 0.00041244
v -0.03590887 0.00843139 0.00016074
v -0.03593947 0.00839423 -0.00082275
v -0.03275752 0.00667152 -0.00171309
v -0.03615590 0.00824766 -0.00165800
v -0.03869760 0.00886594 -0.00176907
v -0.03869760 0.00916424 0.00048723
v -0.02961524 0.00494984 0.00001161
v -0.03273259 0.00669423 0.00009133
v -0.02712113 0.00375664 -0.00070899
v -0.03265440 0.00673242 -0.00082275
v -0.02712113 0.00382683 -0.00215467
v -0.02712113 0.00379174 -0.00217214
v -0.03869760 0.00879678 -0.00177758
v -0.02712113 0.00246951 -0.00269792
v -0.03869760 0.00739818 0.00072594
v -0.03868741 0.00740747 0.00072415
v -0.03704091 0.00740747 0.00058486
v -0.02712113 0.00251390 0.00016836
v -0.02712113 0.00254280 0.00016074
v -0.02712113 0.00262434 0.00013880
v -0.02776137 0.00334996 0.00003131
v -0.02712113 0.00367200 -0.00061584
v -0.03869760 0.00728567 -0.00179504
v -0.02712113 0.00242719 -0.00270151
v -0.03210368 0.00411584 -0.00237188
v -0.03869760 0.00097905 0.00156298
v -0.03704091 -0.00081385 0.00162344
v -0.02712113 0.00086757 0.00036989
v -0.03869760 0.00254693 -0.00171891
v -0.02881975 -0.00081385 -0.00267643
v -0.02712113 0.00082319 -0.00279466
v -0.03045718 0.00246951 -0.00251833
v -0.03869760 -0.00081385 0.00178064
v -0.02712113 -0.00081385 0.00055575
v -0.03854236 -0.00081385 -0.00159844
v -0.03866814 -0.00081385 -0.00158231
v -0.03869760 -0.00081385 -0.00157828
v -0.03046625 -0.00081385 -0.00250445
v -0.02712113 -0.00081385 -0.00277361
f 1 2 8
f 1 8 16
f 1 16 26
f 1 26 32
f 1 32 40
f 1 40 36
f 1 36 29
f 1 29 18
f 1 18 9
f 1 9 3
f 1 3 4
f 1 4 5
f 1 5 6
f 1 6 7
f 1 7 2
f 2 7 8
f 3 9 10
f 3 10 11
f 3 11 4
f 4 11 12
f 4 12 13
f 4 13 5
f 5 13 14
f 5 14 6
f 6 14 7
f 7 14 15
f 7 15 8
f 8 15 17
f 8 17 16
f 9 18 19
f 9 19 20
f 9 20 21
f 9 21 10
f 10 21 22
f 10 22 23
f 10 23 24
f 10 24 25
f 10 25 12
f 10 12 11
f 12 25 23
f 12 23 22
f 12 22 21
f 12 21 31
f 12 31 37
f 12 37 42
f 12 42 34
f 12 34 27
f 12 27 17
f 12 17 15
f 12 15 14
f 12 14 13
f 16 17 27
f 16 27 28
f 16 28 26
f 18 29 19
f 19 29 20
f 20 29 30
f 20 30 21
f 21 30 31
f 23 25 24
f 26 28 33
f 26 33 32
f 27 34 28
f 28 34 35
f 28 35 33
f 29 36 30
f 30 37 31
f 30 36 40
f 30 40 39
f 30 39 38
f 30 38 41
f 30 41 33
f 30 33 42
f 30 42 37
f 32 38 39
f 32 39 40
f 32 33 41
f 32 41 38
f 33 35 34
f 33 34 42

