# https://github.com/mikedh/trimesh
v -0.06255669 0.01420519 -0.00249465
v -0.06337959 0.01369393 -0.00411623
v -0.06831985 0.01354532 -0.00411623
v -0.07026620 0.01359986 -0.00249465
v -0.05350488 0.01395024 -0.00249465
v -0.06337959 0.01320858 -0.00498399
v -0.05186202 0.01314450 -0.00414130
v -0.07008820 0.01285002 -0.00514806
v -0.07026036 0.01084181 -0.00654267
v -0.07040918 0.00862091 -0.00661331
v -0.07056092 0.00222408 -0.00249465
v -0.05184159 0.01382890 -0.00249465
v -0.06337959 0.01234694 -0.00565349
v -0.06831985 0.01234694 -0.00566899
v -0.05350488 0.01270687 -0.00488919
v -0.05515358 0.01220924 -0.00552998
v -0.04919491 0.01331492 -0.00286746
v -0.04946046 0.01203065 -0.00465676
v -0.05186202 0.01203474 -0.00536956
v -0.06831985 0.01116083 -0.00647431
v -0.05761642 0.00905309 -0.00698293
v -0.06073291 0.00282941 -0.00495391
v -0.05515358 0.00740753 -0.00711145
v -0.05515358 0.00576334 -0.00697837
v -0.05590936 0.00435500 -0.00650712
v -0.05844223 0.00411777 -0.00609466
v -0.06173088 0.00144970 -0.00352056
v -0.06012595 0.00093572 -0.00309853
v -0.05515358 0.00027995 -0.00256256
v -0.05261196 0.00028813 -0.00253020
v -0.04708516 0.00068896 -0.00249465
v -0.04684004 0.01285274 -0.00249465
v -0.05679353 0.01067820 -0.00656090
v -0.04629145 0.01184796 -0.00360761
v -0.05021331 0.01070002 -0.00584810
v -0.05269367 0.00981384 -0.00662608
v -0.05515358 0.00983429 -0.00675460
v -0.05350488 0.00740753 -0.00715065
v -0.05679353 0.00267535 -0.00544840
v -0.05844223 0.00236724 -0.00498034
v -0.05350488 0.00497941 -0.00678194
v -0.05350488 0.00194324 -0.00502090
v -0.05515358 0.00200050 -0.00497670
v -0.05186202 0.00202640 -0.00494890
v -0.04510964 0.00148651 -0.00293673
v -0.04271975 0.00265218 -0.00249465
v -0.04075006 0.00905309 -0.00249465
v -0.04389281 0.01136806 -0.00283328
v -0.04245129 0.01027056 -0.00290346
v -0.04673499 0.00964070 -0.00511661
v -0.05028335 0.00890585 -0.00658323
v -0.04856753 0.00905309 -0.00606550
v -0.05186202 0.00740753 -0.00703853
v -0.05110332 0.00508030 -0.00659554
v -0.05021331 0.00279124 -0.00537092
v -0.04409415 0.00292621 -0.00349731
v -0.04833409 0.00363242 -0.00537958
v -0.04254175 0.00434273 -0.00292899
v -0.04529931 0.00658543 -0.00492656
v -0.04692175 0.00658543 -0.00569497
v -0.04938459 0.00743753 -0.00657594
v -0.04871052 0.00589013 -0.00630067
v -0.04620974 0.00417776 -0.00488190
f 1 2 3
f 1 3 4
f 1 4 11
f 1 11 31
f 1 31 46
f 1 46 47
f 1 47 32
f 1 32 12
f 1 12 5
f 1 5 2
f 2 6 3
f 2 5 7
f 2 7 6
f 3 8 4
f 3 6 8
f 4 9 10
f 4 10 11
f 4 8 9
f 5 12 7
f 6 13 14
f 6 14 8
f 6 7 15
f 6 15 16
f 6 16 13
f 7 12 17
f 7 17 18
f 7 18 19
f 7 19 15
f 8 14 9
f 9 14 20
f 9 20 21
f 9 21 10
f 10 22 11
f 10 21 23
f 10 23 24
f 10 24 25
f 10 25 26
f 10 26 22
f 11 22 27
f 11 27 28
f 11 28 29
f 11 29 30
f 11 30 31
f 12 32 17
f 13 20 14
f 13 16 33
f 13 33 20
f 15 19 16
f 16 19 33
f 17 32 34
f 17 34 18
f 18 35 19
f 18 34 35
f 19 35 36
f 19 36 33
f 20 33 21
f 21 33 37
f 21 37 38
f 21 38 23
f 22 26 39
f 22 39 40
f 22 40 27
f 23 38 24
f 24 38 41
f 24 41 25
f 25 39 26
f 25 41 42
f 25 42 39
f 27 40 43
f 27 43 28
f 28 43 29
f 29 43 42
f 29 42 30
f 30 42 31
f 31 42 44
f 31 44 45
f 31 45 46
f 32 47 48
f 32 48 34
f 33 36 37
f 34 48 49
f 34 49 50
f 34 50 35
f 35 51 36
f 35 50 52
f 35 52 51
f 36 51 53
f 36 53 38
f 36 38 37
f 38 53 41
f 39 42 43
f 39 43 40
f 41 53 54
f 41 54 55
f 41 55 42
f 42 55 44
f 44 55 45
f 45 56 46
f 45 55 57
f 45 57 56
f 46 56 58
f 46 58 47
f 47 49 48
f 47 58 59
f 47 59 60
f 47 60 52
f 47 52 50
f 47 50 49
f 51 52 61
f 51 61 53
f 52 60 61
f 53 61 62
f 53 62 54
f 54 62 57
f 54 57 55
f 56 57 63
f 56 63 59
f 56 59 58
f 57 62 63
f 59 63 60
f 60 63 62
f 60 62 61

