# https://github.com/mikedh/trimesh
v 0.08972062 0.01107028 0.00143960
v 0.09384697 0.00901045 0.00430785
v 0.09532217 0.00899877 -0.00026646
v 0.08889639 0.01038108 -0.00333543
v 0.08601686 0.01100409 -0.00164393
v 0.08519789 0.01097878 0.00183131
v 0.08314259 0.00970939 0.00471575
v 0.09390997 0.00634317 0.00664681
v 0.09684199 0.00562282 0.00477241
v 0.09023509 0.00829204 0.00593460
v 0.09863744 0.00389590 -0.00069540
v 0.09618840 0.00653981 -0.00396832
v 0.09188879 0.00913116 -0.00438270
v 0.08786743 0.00768849 -0.00614055
v 0.08149414 0.00708300 -0.00638335
v 0.08252311 0.01029152 -0.00297123
v 0.07210221 0.01030904 -0.00160347
v 0.07350654 0.00989435 0.00355842
v 0.08314259 0.00888585 0.00555583
v 0.08683846 0.00858018 0.00586823
v 0.07717354 0.00825115 0.00566428
v 0.09357398 0.00321448 0.00786080
v 0.09716486 0.00164527 0.00622110
v 0.08231836 0.00766902 0.00647523
v 0.07958583 0.00298085 0.00847427
v 0.09891830 0.00059978 0.00225864
v 0.09886581 -0.00057811 -0.00122308
v 0.09615952 0.00112739 -0.00583625
v 0.09250302 0.00505432 -0.00691265
v 0.07984832 0.00411396 -0.00759087
v 0.07810013 0.00673450 -0.00648047
v 0.07253794 0.00621468 -0.00629432
v 0.07210221 0.00105341 -0.00715869
v 0.07210221 0.00182633 0.00748850
v 0.07230170 0.00718035 0.00605762
v 0.09279701 -0.00062678 0.00824765
v 0.09591278 -0.00175794 0.00677954
v 0.07984832 -0.00118944 0.00825413
v 0.09625664 -0.00484574 0.00357784
v 0.09631701 -0.00537141 -0.00088964
v 0.09507018 -0.00300980 -0.00552223
v 0.09219065 0.00041287 -0.00740310
v 0.07985357 0.00032721 -0.00806189
v 0.07210221 -0.00333299 -0.00678639
v 0.07210221 -0.00871037 0.00011716
v 0.07253794 -0.00478344 0.00663386
v 0.08992798 -0.00460043 0.00734283
v 0.08396418 -0.00411370 0.00765684
v 0.08766268 -0.00672257 0.00579701
v 0.09055271 -0.00836576 0.00197052
v 0.09050546 -0.00843391 -0.00141085
v 0.09229040 -0.00613655 -0.00493951
v 0.08972062 -0.00403972 -0.00671194
v 0.07737828 -0.00455176 -0.00659054
v 0.07655405 -0.00575884 -0.00583463
v 0.07268494 -0.00700876 -0.00441992
v 0.07532035 -0.00865780 -0.00138819
v 0.08314259 -0.00881939 0.00000062
v 0.07350654 -0.00810682 0.00342892
v 0.08231836 -0.00583672 0.00661929
v 0.08273048 -0.00769018 0.00431271
v 0.08197450 -0.00798027 -0.00362031
v 0.08702220 -0.00718204 -0.00447334
v 0.08211362 -0.00543371 -0.00611304
f 1 2 3
f 1 3 4
f 1 4 5
f 1 5 6
f 1 6 7
f 1 7 2
f 2 8 9
f 2 9 3
f 2 7 10
f 2 10 8
f 3 9 11
f 3 11 12
f 3 12 13
f 3 13 4
f 4 14 15
f 4 15 16
f 4 16 5
f 4 13 14
f 5 16 17
f 5 17 6
f 6 17 18
f 6 18 7
f 7 19 20
f 7 20 10
f 7 18 21
f 7 21 19
f 8 22 23
f 8 23 9
f 8 10 24
f 8 24 25
f 8 25 22
f 9 23 26
f 9 26 11
f 10 20 24
f 11 26 27
f 11 27 28
f 11 28 12
f 12 28 29
f 12 29 13
f 13 29 14
f 14 29 30
f 14 30 15
f 15 30 31
f 15 31 16
f 16 31 17
f 17 31 32
f 17 32 33
f 17 33 44
f 17 44 45
f 17 45 34
f 17 34 35
f 17 35 18
f 18 35 21
f 19 21 24
f 19 24 20
f 21 35 24
f 22 36 23
f 22 25 36
f 23 36 37
f 23 37 26
f 24 35 25
f 25 35 34
f 25 34 38
f 25 38 36
f 26 37 39
f 26 39 27
f 27 39 40
f 27 40 41
f 27 41 28
f 28 41 42
f 28 42 29
f 29 42 43
f 29 43 30
f 30 43 33
f 30 33 32
f 30 32 31
f 33 43 44
f 34 45 46
f 34 46 38
f 36 47 37
f 36 38 48
f 36 48 47
f 37 47 39
f 38 46 48
f 39 47 49
f 39 49 50
f 39 50 40
f 40 50 51
f 40 51 52
f 40 52 41
f 41 52 53
f 41 53 42
f 42 53 43
f 43 54 44
f 43 53 54
f 44 54 55
f 44 55 56
f 44 56 45
f 45 56 57
f 45 57 58
f 45 58 59
f 45 59 46
f 46 59 60
f 46 60 48
f 47 48 60
f 47 60 49
f 49 60 59
f 49 59 61
f 49 61 50
f 50 61 59
f 50 59 58
f 50 58 51
f 51 58 57
f 51 57 62
f 51 62 63
f 51 63 52
f 52 63 53
f 53 63 64
f 53 64 54
f 54 64 55
f 55 64 63
f 55 63 62
f 55 62 56
f 56 62 57

