# https://github.com/mikedh/trimesh
v -0.07056092 -0.00246962 -0.00208589
v -0.07056092 -0.00413350 -0.00198710
v -0.07056092 -0.00123903 -0.00182153
v -0.05497001 -0.00081439 -0.00119021
v -0.07056092 -0.00503532 -0.00174445
v -0.05497001 -0.00634715 -0.00009368
v -0.07056092 -0.00081439 -0.00123852
v -0.06005354 -0.00081439 -0.00135306
v -0.05497001 -0.00081439 0.00219058
v -0.07056092 -0.00510465 -0.00172382
v -0.05497001 -0.00634715 0.00345973
v -0.06990011 -0.00634715 -0.00129281
v -0.07056092 -0.00081439 0.00052624
v -0.05497001 -0.00082360 0.00269162
v -0.05515162 -0.00081439 0.00267262
v -0.07028622 -0.00634715 -0.00130964
v -0.07056092 -0.00634715 -0.00132158
v -0.06338202 -0.00411563 0.00278173
v -0.06334997 -0.00634715 0.00278064
v -0.05497001 -0.00247991 0.00304826
v -0.07056092 -0.00247395 0.00130955
v -0.06864258 -0.00193178 0.00156143
v -0.06490509 -0.00081439 0.00183339
v -0.05497001 -0.00228871 0.00301189
v -0.06009016 -0.00081439 0.00228449
v -0.06338202 -0.00246962 0.00246851
v -0.06009016 -0.00246962 0.00272256
v -0.07056092 -0.00634715 0.00145721
v -0.06502871 -0.00411563 0.00254125
v -0.06502871 -0.00246962 0.00229263
v -0.06841366 -0.00634715 0.00187248
v -0.07056092 -0.00411563 0.00148163
v -0.06937207 -0.00302912 0.00170148
v -0.06993979 -0.00247612 0.00143875
v -0.06754377 -0.00163334 0.00165208
v -0.07025569 -0.00411563 0.00154732
f 1 2 5
f 1 5 10
f 1 10 17
f 1 17 28
f 1 28 32
f 1 32 21
f 1 21 13
f 1 13 7
f 1 7 3
f 1 3 4
f 1 4 2
f 2 4 6
f 2 6 5
f 3 7 8
f 3 8 4
f 4 8 7
f 4 7 13
f 4 13 23
f 4 23 25
f 4 25 15
f 4 15 9
f 4 9 14
f 4 14 24
f 4 24 20
f 4 20 11
f 4 11 6
f 5 6 10
f 6 11 19
f 6 19 31
f 6 31 28
f 6 28 17
f 6 17 16
f 6 16 12
f 6 12 10
f 9 15 14
f 10 12 16
f 10 16 17
f 11 18 19
f 11 20 18
f 13 21 22
f 13 22 23
f 14 15 25
f 14 25 26
f 14 26 27
f 14 27 24
f 18 29 19
f 18 20 27
f 18 27 26
f 18 26 30
f 18 30 29
f 19 29 31
f 20 24 27
f 21 32 33
f 21 33 34
f 21 34 22
f 22 34 33
f 22 33 30
f 22 30 35
f 22 35 23
f 23 35 30
f 23 30 26
f 23 26 25
f 28 36 32
f 28 31 36
f 29 30 33
f 29 33 36
f 29 36 31
f 32 36 33

