# https://github.com/mikedh/trimesh
v -0.05497001 -0.00634715 -0.00009369
v -0.06334845 -0.00634715 0.00278016
v -0.05497001 -0.00636922 0.00346353
v -0.05497001 -0.00892899 -0.00005829
v -0.07056092 -0.00905534 -0.00189480
v -0.07056092 -0.00794634 -0.00180960
v -0.07022975 -0.00634715 -0.00130683
v -0.06267237 -0.00819980 0.00330394
v -0.06841366 -0.00634715 0.00187241
v -0.07056092 -0.00769363 0.00191201
v -0.06832057 -0.00905534 0.00273277
v -0.06376660 -0.00854461 0.00324214
v -0.06009016 -0.00781009 0.00340593
v -0.05844500 -0.00905534 0.00378391
v -0.05497001 -0.00887495 0.00393150
v -0.05497001 -0.01063398 0.00004130
v -0.07056092 -0.01039345 -0.00181920
v -0.07056092 -0.00634715 0.00145663
v -0.06328282 -0.00907741 0.00337773
v -0.05844500 -0.01069944 0.00405570
v -0.07026332 -0.00920377 0.00234339
v -0.07056092 -0.01099705 0.00242558
v -0.06832057 -0.01069944 0.00293136
v -0.06659146 -0.01079230 0.00317734
v -0.06440453 -0.00964143 0.00332614
v -0.05679831 -0.01069944 0.00415229
v -0.05501579 -0.01060962 0.00423449
v -0.05497001 -0.01347081 0.00364652
v -0.05497001 -0.01234582 0.00024769
v -0.07056092 -0.01201852 -0.00172141
v -0.06338049 -0.01069944 0.00357452
v -0.06009016 -0.01234582 0.00388651
v -0.05844500 -0.01234582 0.00403410
v -0.06996726 -0.01069944 0.00257197
v -0.07056092 -0.01252926 0.00226539
v -0.06599017 -0.01150398 0.00330934
v -0.06498293 -0.01079230 0.00338913
v -0.05679831 -0.01234582 0.00410070
v -0.05506158 -0.01230091 0.00416489
v -0.05679831 -0.01354235 0.00361532
v -0.05497001 -0.01403406 0.00253238
v -0.05497001 -0.01371514 0.00111465
v -0.07056092 -0.01312448 -0.00148322
v -0.06502719 -0.01195611 0.00338793
v -0.06348885 -0.01247978 0.00347613
v -0.06410998 -0.01311611 0.00327634
v -0.06301270 -0.01325235 0.00335253
v -0.06173686 -0.01335283 0.00343173
v -0.06009016 -0.01347233 0.00353673
v -0.05844500 -0.01354464 0.00360452
v -0.07056092 -0.01385671 0.00010730
v -0.07026332 -0.01349973 0.00181061
v -0.05679831 -0.01410409 0.00246938
v -0.05844500 -0.01412312 0.00246938
v -0.06338049 -0.01403254 0.00082366
v -0.07056092 -0.01367403 -0.00081965
v -0.06832057 -0.01358117 0.00202660
v -0.06009016 -0.01405842 0.00246938
v -0.06502719 -0.01372046 0.00235359
v -0.06173686 -0.01393892 0.00246938
v -0.06832057 -0.01407440 0.00082366
v -0.07026332 -0.01397165 0.00082366
v -0.06502719 -0.01405385 0.00082366
v -0.06667235 -0.01406755 0.00082366
f 1 2 3
f 1 3 15
f 1 15 28
f 1 28 41
f 1 41 42
f 1 42 29
f 1 29 16
f 1 16 4
f 1 4 5
f 1 5 6
f 1 6 7
f 1 7 18
f 1 18 9
f 1 9 2
f 2 8 3
f 2 9 10
f 2 10 11
f 2 11 12
f 2 12 8
f 3 8 13
f 3 13 14
f 3 14 15
f 4 16 17
f 4 17 5
f 5 17 30
f 5 30 43
f 5 43 56
f 5 56 51
f 5 51 35
f 5 35 22
f 5 22 10
f 5 10 18
f 5 18 6
f 6 18 7
f 8 12 19
f 8 19 20
f 8 20 14
f 8 14 13
f 9 18 10
f 10 21 11
f 10 22 21
f 11 21 23
f 11 23 24
f 11 24 25
f 11 25 12
f 12 25 19
f 14 26 27
f 14 27 15
f 14 20 26
f 15 27 28
f 16 29 30
f 16 30 17
f 19 31 20
f 19 25 31
f 20 31 32
f 20 32 33
f 20 33 26
f 21 22 34
f 21 34 23
f 22 35 23
f 22 23 34
f 23 36 24
f 23 35 36
f 24 36 37
f 24 37 25
f 25 37 31
f 26 33 27
f 27 33 38
f 27 38 39
f 27 39 28
f 28 39 40
f 28 40 41
f 29 42 43
f 29 43 30
f 31 37 36
f 31 36 32
f 32 36 44
f 32 44 45
f 32 45 46
f 32 46 47
f 32 47 33
f 33 47 48
f 33 48 49
f 33 49 50
f 33 50 38
f 35 51 52
f 35 52 46
f 35 46 44
f 35 44 36
f 38 50 39
f 39 50 40
f 40 53 41
f 40 50 54
f 40 54 53
f 41 53 42
f 42 53 55
f 42 55 56
f 42 56 43
f 44 46 45
f 46 52 47
f 47 52 48
f 48 52 57
f 48 57 49
f 49 58 50
f 49 57 59
f 49 59 60
f 49 60 58
f 50 58 54
f 51 56 61
f 51 61 62
f 51 62 52
f 52 62 57
f 53 54 63
f 53 63 55
f 54 58 61
f 54 61 64
f 54 64 63
f 55 63 56
f 56 63 64
f 56 64 61
f 57 62 59
f 58 60 62
f 58 62 61
f 59 62 60

