# https://github.com/mikedh/trimesh
v -0.00741168 0.00547333 -0.00082363
v -0.00576226 0.00526914 -0.00070122
v -0.00576226 0.00529133 -0.00201576
v -0.00741168 0.00529133 -0.00201202
v -0.01564207 0.00507493 -0.00181078
v -0.00905692 0.00542117 -0.00082363
v -0.00905692 0.00511488 0.00015439
v -0.00741168 0.00511932 0.00015563
v -0.00626817 0.00502943 0.00007348
v -0.00576226 0.00421154 0.00020875
v -0.00576226 0.00411388 -0.00250622
v -0.02551561 0.00246812 -0.00286265
v -0.02711695 0.00380759 -0.00216348
v -0.01687548 0.00502277 -0.00174604
v -0.01070425 0.00533572 -0.00082363
v -0.01193348 0.00503054 0.00008053
v -0.01070425 0.00507049 0.00011456
v -0.01687548 0.00502277 -0.00126720
v -0.00741168 0.00411388 0.00031954
v -0.02711695 0.00257466 0.00015149
v -0.01070425 0.00411388 0.00026020
v -0.00576226 0.00246812 0.00051373
v -0.00576226 0.00246812 -0.00261037
v -0.02386827 0.00082236 -0.00306307
v -0.02386827 0.00246812 -0.00288257
v -0.02551561 0.00082236 -0.00300705
v -0.02711695 0.00244703 -0.00269958
v -0.02711695 0.00371215 -0.00066305
v -0.01564207 0.00507493 -0.00103027
v -0.02665912 0.00313952 -0.00007134
v -0.02711695 0.00086564 0.00036974
v -0.00576226 -0.00246917 0.00115606
v -0.00576226 -0.00082119 -0.00255435
v -0.02386827 -0.00082119 -0.00300830
v -0.00576226 -0.00246917 -0.00251867
v -0.02551561 -0.00082119 -0.00292655
v -0.02711695 -0.00082119 -0.00277386
v -0.02711695 0.00082236 -0.00279460
v -0.02711695 -0.00082119 0.00055730
v -0.00741168 -0.00411494 0.00117183
v -0.00576226 -0.00411494 0.00117598
v -0.01893046 -0.00246917 0.00088759
v -0.02386827 -0.00246917 -0.00276182
v -0.02551561 -0.00246917 -0.00270788
v -0.02711695 -0.00246917 -0.00263485
v -0.00576226 -0.00411494 -0.00240705
v -0.02222303 -0.00246917 -0.00277220
v -0.02711695 -0.00244698 0.00068469
v -0.01070425 -0.00411494 0.00107722
v -0.00741168 -0.00545330 0.00055024
v -0.00576226 -0.00546662 0.00052037
v -0.02711695 -0.00382418 -0.00211244
v -0.00576226 -0.00533345 -0.00198049
v -0.02711695 -0.00367325 0.00031539
v -0.01234950 -0.00411494 0.00099921
v -0.01070425 -0.00528906 0.00046809
v -0.01234950 -0.00524467 0.00039921
v -0.00576226 -0.00586391 -0.00082363
v -0.02711695 -0.00420594 -0.00082363
v -0.01728313 -0.00501606 -0.00173028
v -0.01853117 -0.00498831 -0.00169833
v -0.01826776 -0.00495280 0.00001580
v -0.00741168 -0.00575737 -0.00082363
v -0.01854580 -0.00498720 -0.00082363
f 1 2 3
f 1 3 4
f 1 4 5
f 1 5 6
f 1 6 7
f 1 7 8
f 1 8 2
f 2 8 9
f 2 9 10
f 2 10 22
f 2 22 32
f 2 32 41
f 2 41 51
f 2 51 58
f 2 58 53
f 2 53 46
f 2 46 35
f 2 35 33
f 2 33 23
f 2 23 11
f 2 11 3
f 3 11 4
f 4 11 12
f 4 12 13
f 4 13 5
f 5 13 14
f 5 14 6
f 6 15 16
f 6 16 17
f 6 17 7
f 6 14 18
f 6 18 15
f 7 19 8
f 7 17 20
f 7 20 21
f 7 21 19
f 8 19 22
f 8 22 10
f 8 10 9
f 11 23 24
f 11 24 25
f 11 25 12
f 12 25 24
f 12 24 26
f 12 26 27
f 12 27 13
f 13 27 38
f 13 38 37
f 13 37 45
f 13 45 52
f 13 52 59
f 13 59 54
f 13 54 48
f 13 48 39
f 13 39 31
f 13 31 20
f 13 20 28
f 13 28 18
f 13 18 14
f 15 18 29
f 15 29 16
f 16 29 28
f 16 28 30
f 16 30 20
f 16 20 17
f 18 28 29
f 19 21 31
f 19 31 32
f 19 32 22
f 20 30 28
f 20 31 21
f 23 33 24
f 24 34 26
f 24 33 35
f 24 35 34
f 26 34 36
f 26 36 37
f 26 37 38
f 26 38 27
f 31 39 32
f 32 40 41
f 32 39 42
f 32 42 40
f 34 43 44
f 34 44 45
f 34 45 36
f 34 35 46
f 34 46 47
f 34 47 43
f 36 45 37
f 39 48 42
f 40 49 50
f 40 50 41
f 40 42 48
f 40 48 49
f 41 50 51
f 43 52 44
f 43 47 46
f 43 46 53
f 43 53 52
f 44 52 45
f 48 54 55
f 48 55 49
f 49 55 50
f 50 55 56
f 50 56 57
f 50 57 58
f 50 58 51
f 52 53 60
f 52 60 61
f 52 61 59
f 53 58 61
f 53 61 60
f 54 59 62
f 54 62 57
f 54 57 55
f 55 57 56
f 57 62 58
f 58 62 63
f 58 63 61
f 59 64 62
f 59 61 64
f 61 63 64
f 62 64 63

