# https://github.com/mikedh/trimesh
v -0.00069714 0.00144885 -0.02114359
v 0.00526753 0.00632939 -0.01946127
v 0.01039706 -0.00215095 -0.01843319
v -0.00045151 -0.00785164 -0.01942876
v -0.00700160 -0.00245800 -0.01993671
v -0.00927366 0.00435374 -0.01855103
v -0.00157322 0.01173111 -0.01747418
v 0.00260246 0.01760554 -0.01196397
v 0.00927536 0.01456328 -0.01204930
v 0.01357795 0.00595770 -0.01521483
v 0.01819985 -0.00004197 -0.01071239
v 0.01593598 -0.00661131 -0.01254912
v 0.00756415 -0.00890209 -0.01769361
v 0.00114916 -0.01630774 -0.01340247
v -0.01272064 -0.01189586 -0.01230124
v -0.01457923 -0.00377106 -0.01476784
v -0.00535998 0.01652681 -0.01220778
v -0.01593018 0.00605466 -0.01250036
v 0.00752321 0.01964179 -0.00321508
v -0.00300605 0.02049427 -0.00404812
v 0.01583363 0.01389261 -0.00248364
v 0.01729921 0.00854745 -0.00916416
v 0.02090585 0.00188923 0.00006829
v 0.01957127 -0.00784760 0.00154337
v 0.01709862 -0.01080097 -0.00691294
v 0.01200183 -0.01405736 -0.01037511
v 0.00795306 -0.01947120 -0.00316632
v -0.00755017 -0.01810966 -0.00767283
v -0.01447279 -0.01478055 -0.00462514
v -0.01912744 -0.00382358 -0.00859120
v -0.01349028 0.01397746 -0.00805887
v -0.02091643 0.00053577 -0.00349141
v -0.01956548 0.00800203 -0.00073224
v 0.00934086 0.01793279 0.00550536
v -0.00296920 0.01973471 0.00639935
v -0.01355578 0.01596118 0.00292499
v 0.01559619 0.00826060 0.01137723
v 0.01916599 -0.00093889 0.00917883
v 0.01413470 -0.00926975 0.01242157
v 0.01260362 -0.01580676 0.00637090
v 0.01440490 -0.01564515 -0.00143930
v 0.00591435 -0.01882477 0.00746807
v -0.00285458 -0.02078022 0.00169372
v -0.01047314 -0.01853388 0.00097853
v -0.01550852 -0.01427957 0.00323382
v -0.01994211 -0.00676079 0.00088101
v -0.01979473 0.00131553 0.00771594
v -0.01799755 0.00858785 0.00747213
v 0.00410898 0.01708839 0.01198677
v 0.00961105 0.01267248 0.01427862
v -0.01196738 0.01298761 0.01166168
v -0.00317799 0.01331487 0.01595282
v 0.01180943 0.00174379 0.01734663
v 0.00877182 -0.00455081 0.01857383
v 0.00455930 -0.01093026 0.01741977
v -0.00296511 -0.01781877 0.01121062
v -0.00996961 -0.01619866 0.00926417
v -0.01658519 -0.00661939 0.01105621
v -0.01324874 0.00440627 0.01571307
v 0.00395342 0.00822424 0.01900457
v -0.00449210 0.00427294 0.02023583
v -0.00162644 -0.00453061 0.02036993
v -0.00441432 -0.01282915 0.01613568
v -0.01102581 -0.00398519 0.01763920
f 1 2 3
f 1 3 4
f 1 4 5
f 1 5 6
f 1 6 7
f 1 7 2
f 2 7 8
f 2 8 9
f 2 9 10
f 2 10 3
f 3 10 11
f 3 11 12
f 3 12 13
f 3 13 4
f 4 13 14
f 4 14 15
f 4 15 5
f 5 15 16
f 5 16 6
f 6 17 7
f 6 16 18
f 6 18 17
f 7 17 8
f 8 19 9
f 8 17 20
f 8 20 19
f 9 19 21
f 9 21 22
f 9 22 10
f 10 22 11
f 11 23 24
f 11 24 25
f 11 25 12
f 11 22 23
f 12 25 26
f 12 26 13
f 13 26 14
f 14 26 27
f 14 27 28
f 14 28 15
f 15 29 30
f 15 30 16
f 15 28 29
f 16 30 18
f 17 18 31
f 17 31 20
f 18 30 32
f 18 32 33
f 18 33 31
f 19 34 21
f 19 20 35
f 19 35 34
f 20 31 36
f 20 36 35
f 21 37 23
f 21 23 22
f 21 34 37
f 23 37 38
f 23 38 24
f 24 38 39
f 24 39 40
f 24 40 41
f 24 41 25
f 25 41 26
f 26 41 27
f 27 42 43
f 27 43 28
f 27 41 40
f 27 40 42
f 28 43 44
f 28 44 29
f 29 44 45
f 29 45 46
f 29 46 30
f 30 46 32
f 31 33 36
f 32 46 47
f 32 47 33
f 33 47 48
f 33 48 36
f 34 35 49
f 34 49 50
f 34 50 37
f 35 36 51
f 35 51 52
f 35 52 49
f 36 48 51
f 37 53 38
f 37 50 53
f 38 53 39
f 39 53 54
f 39 54 55
f 39 55 40
f 40 55 42
f 42 55 56
f 42 56 43
f 43 56 57
f 43 57 44
f 44 57 45
f 45 58 46
f 45 57 58
f 46 58 47
f 47 58 59
f 47 59 48
f 48 59 51
f 49 60 50
f 49 52 60
f 50 60 53
f 51 59 52
f 52 59 61
f 52 61 60
f 53 60 54
f 54 60 62
f 54 62 55
f 55 62 63
f 55 63 56
f 56 63 57
f 57 64 58
f 57 63 64
f 58 64 59
f 59 64 61
f 60 61 62
f 61 64 62
f 62 64 63

