# https://github.com/mikedh/trimesh
v -0.00339238 0.01749540 -0.00807449
v -0.00401579 0.01738296 -0.00961647
v -0.00376574 0.01740681 0.01033507
v -0.00284776 0.01733526 -0.00465467
v -0.00271075 0.01720237 -0.01105921
v -0.00410827 0.01731140 0.00453612
v -0.00407402 0.01700815 -0.01190908
v -0.00697868 0.01250709 -0.01280475
v -0.01575088 -0.00069967 -0.01227803
v -0.01742928 -0.00298257 -0.00931367
v -0.01740873 -0.00290079 -0.00389131
v -0.00330675 0.01700134 0.01241140
v 0.00001237 0.01553278 0.01195339
v -0.01282910 0.00338570 0.01282107
v -0.00637240 0.01305907 0.01279562
v 0.01472405 0.00589690 0.01119512
v 0.01282985 0.00700087 -0.01226531
v 0.00986354 0.00860912 -0.01272587
v -0.00199486 0.01569974 -0.01288872
v -0.00452616 0.01445948 -0.01304139
v -0.00888657 0.00883741 -0.01297778
v -0.01411359 0.00101762 -0.01290398
v -0.01447667 0.00108236 -0.01265971
v -0.01655240 -0.00380714 -0.01246378
v -0.01724089 -0.00320064 -0.01095234
v -0.01752861 -0.00343574 -0.00909485
v -0.01747038 -0.00380033 0.00247252
v -0.01649417 -0.00243058 0.01269893
v -0.00523862 0.01396883 0.01285923
v 0.01214822 0.00718486 0.01243684
v 0.00903804 0.00961428 0.01196611
v 0.01307990 0.00697020 0.01178545
v -0.01266126 0.00305179 0.01295338
v 0.01640587 0.00416939 0.01213914
v 0.01746429 0.00379117 0.00989487
v 0.01670730 0.00401606 -0.01230348
v 0.01292919 0.00594801 -0.01288108
v 0.00296155 0.01206754 -0.01301340
v -0.01429513 -0.00112558 -0.01298286
v -0.01518913 -0.00445794 -0.01288363
v -0.00945175 -0.00866938 -0.01287600
v -0.00261142 -0.01367813 -0.01250195
v -0.01715868 -0.00435572 -0.00538240
v -0.01669969 -0.00406950 0.01212896
v -0.00008697 -0.01440730 0.01280580
v 0.00043368 -0.01411427 0.01286178
v 0.01428561 0.00022371 0.01282615
v 0.01559407 0.00108236 0.01263023
v 0.00072140 -0.01411427 0.01286432
v 0.00462968 -0.01682990 0.00421806
v 0.01609417 0.00240780 -0.01259610
v 0.00269438 -0.01650280 -0.01261645
v 0.00096460 -0.01588607 -0.01258083
v 0.00310199 -0.01731374 -0.01058593
v -0.00150162 -0.01446522 0.01190504
v -0.00296080 -0.01310570 0.01246992
v 0.00383843 -0.01709227 0.01206280
v 0.00646564 -0.01282290 0.01278035
v 0.00423577 -0.01714678 -0.00425518
v 0.00396859 -0.01726944 -0.00759358
f 1 2 3
f 1 3 4
f 1 4 5
f 1 5 2
f 2 6 3
f 2 5 7
f 2 7 8
f 2 8 9
f 2 9 10
f 2 10 11
f 2 11 6
f 3 12 13
f 3 13 4
f 3 6 14
f 3 14 15
f 3 15 12
f 4 13 16
f 4 16 17
f 4 17 5
f 5 17 18
f 5 18 19
f 5 19 7
f 6 11 14
f 7 20 8
f 7 19 20
f 8 20 21
f 8 21 22
f 8 22 23
f 8 23 9
f 9 23 22
f 9 22 24
f 9 24 25
f 9 25 10
f 10 25 26
f 10 26 11
f 11 26 27
f 11 27 28
f 11 28 14
f 12 15 29
f 12 29 30
f 12 30 13
f 13 30 31
f 13 31 32
f 13 32 16
f 14 33 15
f 14 28 33
f 15 33 29
f 16 32 34
f 16 34 35
f 16 35 17
f 17 35 36
f 17 36 18
f 18 36 37
f 18 37 38
f 18 38 19
f 19 38 20
f 20 39 21
f 20 38 39
f 21 39 22
f 22 39 24
f 24 39 40
f 24 40 41
f 24 41 42
f 24 42 43
f 24 43 26
f 24 26 25
f 26 43 27
f 27 43 44
f 27 44 28
f 28 44 45
f 28 45 46
f 28 46 33
f 29 33 47
f 29 47 30
f 30 47 48
f 30 48 34
f 30 34 32
f 30 32 31
f 33 46 49
f 33 49 47
f 34 48 35
f 35 48 50
f 35 50 51
f 35 51 36
f 36 51 37
f 37 51 52
f 37 52 41
f 37 41 38
f 38 41 39
f 39 41 40
f 41 52 53
f 41 53 42
f 42 53 54
f 42 54 55
f 42 55 43
f 43 55 44
f 44 55 56
f 44 56 45
f 45 56 55
f 45 55 57
f 45 57 49
f 45 49 46
f 47 49 58
f 47 58 48
f 48 58 57
f 48 57 50
f 49 57 58
f 50 59 51
f 50 57 59
f 51 59 60
f 51 60 54
f 51 54 52
f 52 54 53
f 54 60 57
f 54 57 55
f 57 60 59

