# https://github.com/mikedh/trimesh
v 0.00542991 -0.00337543 0.00365051
v 0.00510684 -0.00363931 0.00361653
v 0.00542195 -0.00365367 0.00360906
v 0.00583374 -0.00306984 0.00357168
v 0.00582395 -0.00278681 0.00354789
v 0.00590717 0.00161378 0.00296074
v 0.00480518 0.00205473 0.00264881
v 0.00491287 -0.00380338 0.00356760
v 0.00392103 0.00197133 0.00240417
v 0.00564529 -0.00341781 0.00351256
v 0.00522799 -0.00388269 0.00352479
v 0.00584048 -0.00271435 0.00324684
v 0.00591268 -0.00244431 0.00318296
v 0.00593226 -0.00220093 0.00313471
v 0.00594327 -0.00014796 0.00300219
v 0.00591390 0.00132050 0.00296686
v 0.00592002 0.00244714 0.00230427
v 0.00590411 0.00196312 0.00281667
v 0.00542991 0.00227555 0.00254552
v 0.00425572 0.00212378 0.00242251
v 0.00379682 -0.00375826 0.00294579
v -0.00022442 -0.00385944 0.00063387
v 0.00454881 -0.00391003 0.00330664
v 0.00393020 0.00231998 0.00208273
v 0.00351902 0.00205678 0.00205690
v 0.00478010 -0.00388337 0.00317820
v 0.00004786 -0.00022931 -0.00179902
v 0.00005459 0.00017335 -0.00197299
v 0.00581233 -0.00209702 0.00296957
v 0.00572667 0.00307404 0.00104093
v 0.00591941 0.00307404 0.00135354
v 0.00594755 -0.00043987 0.00293492
v 0.00592614 0.00073325 0.00297841
v 0.00592002 0.00102653 0.00297297
v 0.00589860 0.00266727 0.00208952
v 0.00572300 0.00241091 0.00243339
v 0.00564406 0.00307404 0.00153091
v 0.00512336 0.00233502 0.00239057
v 0.00425572 0.00232750 0.00217651
v -0.00030335 -0.00243747 0.00008953
v -0.00026970 -0.00387312 0.00038038
v 0.00160263 -0.00390456 0.00142490
v 0.00217718 -0.00389431 0.00162265
v 0.00424654 0.00263993 0.00176265
v 0.00396202 0.00265702 0.00164236
v 0.00377540 0.00267274 0.00151528
v 0.00373930 0.00241022 0.00184216
v 0.00323144 0.00204242 0.00175653
v -0.00030335 -0.00219136 -0.00002125
v -0.00030335 0.00297969 -0.00285916
v 0.00198506 -0.00385192 0.00144324
v -0.00022442 -0.00039886 -0.00183028
v -0.00025746 -0.00008985 -0.00202056
v -0.00021830 0.00307404 -0.00329205
v 0.00008641 0.00307404 -0.00308342
v 0.00588759 0.00296602 0.00168721
v 0.00367261 0.00307404 0.00078813
v 0.00422513 0.00303097 0.00117753
v 0.00454881 0.00248747 0.00204399
v 0.00014760 -0.00387312 0.00054484
v 0.00389655 0.00300977 0.00108647
v -0.00030335 0.00235553 -0.00248811
v -0.00030335 0.00204653 -0.00231006
v 0.00147659 -0.00382389 0.00116937
f 1 2 3
f 1 3 4
f 1 4 5
f 1 5 6
f 1 6 7
f 1 7 2
f 2 8 3
f 2 7 9
f 2 9 8
f 3 10 4
f 3 8 11
f 3 11 10
f 4 10 12
f 4 12 13
f 4 13 14
f 4 14 15
f 4 15 16
f 4 16 6
f 4 6 5
f 6 16 17
f 6 17 18
f 6 18 7
f 7 18 19
f 7 19 20
f 7 20 9
f 8 21 22
f 8 22 23
f 8 23 11
f 8 9 21
f 9 20 24
f 9 24 25
f 9 25 22
f 9 22 21
f 10 11 26
f 10 26 12
f 11 23 26
f 12 27 28
f 12 28 13
f 12 26 27
f 13 28 29
f 13 29 30
f 13 30 31
f 13 31 14
f 14 32 15
f 14 31 32
f 15 32 17
f 15 17 33
f 15 33 34
f 15 34 16
f 16 34 17
f 17 31 35
f 17 35 18
f 17 34 33
f 17 32 31
f 18 36 19
f 18 35 36
f 19 36 37
f 19 37 38
f 19 38 39
f 19 39 20
f 20 39 24
f 22 40 41
f 22 41 42
f 22 42 23
f 22 25 40
f 23 42 43
f 23 43 26
f 24 39 44
f 24 44 45
f 24 45 46
f 24 46 47
f 24 47 25
f 25 48 49
f 25 49 40
f 25 47 50
f 25 50 48
f 26 43 51
f 26 51 27
f 27 52 53
f 27 53 28
f 27 51 52
f 28 53 54
f 28 54 55
f 28 55 29
f 29 55 30
f 30 55 54
f 30 54 57
f 30 57 37
f 30 37 31
f 31 37 56
f 31 56 35
f 35 56 36
f 36 56 37
f 37 57 58
f 37 58 44
f 37 44 59
f 37 59 38
f 38 59 39
f 39 59 44
f 40 49 63
f 40 63 62
f 40 62 50
f 40 50 53
f 40 53 41
f 41 52 60
f 41 60 42
f 41 53 52
f 42 60 43
f 43 60 51
f 44 58 45
f 45 58 61
f 45 61 46
f 46 61 57
f 46 57 50
f 46 50 47
f 48 50 62
f 48 62 63
f 48 63 49
f 50 57 54
f 50 54 53
f 51 60 64
f 51 64 52
f 52 64 60
f 57 61 58

