# https://github.com/mikedh/trimesh
v 0.01276577 0.01767962 0.00292899
v 0.01178856 0.01766961 0.00264147
v 0.01239006 0.01763530 0.00295453
v 0.01341282 0.01764388 0.00325340
v 0.01373160 0.01764674 0.00321651
v 0.01305988 0.01766533 0.00288548
v 0.01226483 0.01763673 0.00262066
v 0.00001075 0.00591481 -0.00355636
v 0.00778103 0.01566235 0.00167486
v 0.00756851 0.01562089 0.00174390
v 0.01722490 0.01364793 0.00533511
v 0.01755128 0.01372942 0.00533227
v 0.01564618 0.01551652 0.00403085
v 0.01364811 0.01746374 0.00307937
v 0.01331605 0.01754952 0.00292994
v -0.00088108 0.00389610 -0.00418532
v -0.00126058 0.00362303 -0.00418910
v -0.00154520 0.00331851 -0.00419099
v -0.00001771 0.00706284 -0.00236087
v 0.00414731 0.01381520 0.00085012
v 0.00380955 0.01345635 0.00088039
v 0.01714711 0.01336628 0.00534740
v 0.01746399 0.01335485 0.00544482
v 0.01767082 0.01335485 0.00530200
v 0.01545453 0.01540929 0.00386912
v 0.01767461 0.01012807 0.00471466
v -0.00080328 0.00367164 -0.00417019
v -0.00105375 0.00370024 -0.00420613
v -0.00134407 0.00340143 -0.00421464
v -0.00165905 0.00308119 -0.00421748
v -0.00004807 0.00771477 -0.00155883
v -0.00000633 0.00734591 -0.00206105
v -0.00000443 0.00792493 -0.00118335
v 0.00380576 0.01306033 0.00089079
v 0.00762543 0.00383891 0.00265187
v 0.01746399 0.01306033 0.00542874
v 0.01768031 0.01217965 0.00534267
v 0.01768790 0.01247417 0.00535591
v 0.01620405 0.01024387 0.00499746
v 0.01768979 0.01276725 0.00528498
v 0.01768031 0.01100589 0.00499083
v 0.01766513 0.01071280 0.00503529
v 0.01755887 0.00974920 0.00473263
v 0.00593855 0.00378173 0.00037533
v -0.00134217 0.00308833 -0.00417491
v -0.00169511 0.00307404 -0.00397724
v 0.00591768 0.00307404 0.00134761
v 0.00390633 0.00307404 0.00098348
v 0.00429911 0.00307404 0.00113292
v 0.00564634 0.00307404 0.00153015
v 0.00785503 0.00381461 0.00264525
v 0.01746399 0.01276725 0.00541172
v 0.01766892 0.01188657 0.00532849
v 0.01667083 0.01030535 0.00500313
v 0.01730460 0.01143336 0.00528592
v 0.01756835 0.01155488 0.00529917
v 0.01754938 0.01048549 0.00501164
v 0.00583039 0.00318269 0.00098159
v 0.00586455 0.00353010 0.00059381
v 0.01746399 0.01247417 0.00538996
v 0.01746399 0.01217965 0.00536348
v 0.01746399 0.01188657 0.00533605
v 0.01746399 0.01071280 0.00508636
v 0.01716988 0.01071280 0.00509771
f 1 2 3
f 1 3 4
f 1 4 5
f 1 5 6
f 1 6 2
f 2 7 8
f 2 8 9
f 2 9 10
f 2 10 3
f 2 6 7
f 3 10 11
f 3 11 4
f 4 11 12
f 4 12 5
f 5 13 14
f 5 14 15
f 5 15 6
f 5 12 13
f 6 15 7
f 7 15 8
f 8 16 17
f 8 17 18
f 8 18 19
f 8 19 20
f 8 20 9
f 8 15 16
f 9 20 10
f 10 20 21
f 10 21 11
f 11 21 22
f 11 22 23
f 11 23 12
f 12 23 24
f 12 24 13
f 13 25 14
f 13 24 26
f 13 26 25
f 14 25 26
f 14 26 27
f 14 27 15
f 15 27 16
f 16 27 28
f 16 28 17
f 17 28 29
f 17 29 30
f 17 30 18
f 18 30 31
f 18 31 32
f 18 32 19
f 19 32 20
f 20 32 31
f 20 31 21
f 21 31 33
f 21 33 34
f 21 34 35
f 21 35 22
f 22 35 23
f 23 36 37
f 23 37 38
f 23 38 24
f 23 35 39
f 23 39 36
f 24 38 40
f 24 40 26
f 26 40 41
f 26 41 42
f 26 42 43
f 26 43 27
f 27 44 45
f 27 45 29
f 27 29 28
f 27 43 44
f 29 45 30
f 30 46 31
f 30 45 47
f 30 47 46
f 31 46 33
f 33 46 48
f 33 48 34
f 34 48 35
f 35 48 49
f 35 49 50
f 35 50 51
f 35 51 39
f 36 39 52
f 36 52 53
f 36 53 37
f 37 41 38
f 37 53 42
f 37 42 41
f 38 41 40
f 39 43 54
f 39 54 55
f 39 55 52
f 39 51 43
f 42 53 56
f 42 56 57
f 42 57 43
f 43 57 54
f 43 51 58
f 43 58 59
f 43 59 44
f 44 59 45
f 45 59 58
f 45 58 47
f 46 47 50
f 46 50 49
f 46 49 48
f 47 58 51
f 47 51 50
f 52 55 60
f 52 60 53
f 53 60 61
f 53 61 62
f 53 62 56
f 54 63 64
f 54 64 55
f 54 57 63
f 55 64 63
f 55 63 56
f 55 56 62
f 55 62 61
f 55 61 60
f 56 63 57

