# https://github.com/mikedh/trimesh

o nontextured.ply
v -0.01565552 -0.01565552 -0.00281686
v -0.01565552 -0.01369858 -0.00286464
v -0.01761246 -0.01565552 -0.00376776
v -0.01761246 -0.01565552 -0.00376776
v -0.01565552 -0.01369858 -0.00286464
v -0.01761246 -0.01369858 -0.00420751
v -0.01761246 -0.01174164 -0.00440201
v -0.01761246 -0.01354187 -0.00422907
v -0.01734742 -0.01174164 -0.00422907
v -0.01761246 -0.01354187 -0.00422907
v -0.01565552 -0.01174164 -0.00300215
v -0.01734742 -0.01174164 -0.00422907
v -0.01761246 -0.01354187 -0.00422907
v -0.01761246 -0.01369858 -0.00420751
v -0.01565552 -0.01174164 -0.00300215
v -0.01761246 -0.01369858 -0.00420751
v -0.01565552 -0.01369858 -0.00286464
v -0.01565552 -0.01174164 -0.00300215
v -0.01369858 -0.01385022 -0.00227213
v -0.01389844 -0.01369858 -0.00227213
v -0.01565552 -0.01369858 -0.00286464
v -0.01369858 -0.01385022 -0.00227213
v -0.01565552 -0.01369858 -0.00286464
v -0.01369858 -0.01565552 -0.00289394
v -0.01369858 -0.01565552 -0.00289394
v -0.01565552 -0.01369858 -0.00286464
v -0.01565552 -0.01565552 -0.00281686
v -0.01389844 -0.01369858 -0.00227213
v -0.01369858 -0.01299643 -0.00227213
v -0.01369858 -0.01174164 -0.00241838
v -0.01389844 -0.01369858 -0.00227213
v -0.01369858 -0.01174164 -0.00241838
v -0.01565552 -0.01369858 -0.00286464
v -0.01565552 -0.01369858 -0.00286464
v -0.01369858 -0.01174164 -0.00241838
v -0.01565552 -0.01174164 -0.00300215
v -0.01369858 -0.01565552 -0.00289394
v -0.01216614 -0.01565552 -0.00227213
v -0.01369858 -0.01385022 -0.00227213
v -0.01369858 -0.01174164 -0.00241838
v -0.01369858 -0.01299643 -0.00227213
v -0.01308580 -0.01174164 -0.00227213
v -0.01369858 -0.01385022 -0.00227213
v -0.01369858 -0.01369858 -0.00220989
v -0.01389844 -0.01369858 -0.00227213
v -0.01389844 -0.01369858 -0.00227213
v -0.01369858 -0.01369858 -0.00220989
v -0.01369858 -0.01299643 -0.00227213
v -0.01216614 -0.01565552 -0.00227213
v -0.01369858 -0.01369858 -0.00220989
v -0.01369858 -0.01385022 -0.00227213
v -0.01216614 -0.01565552 -0.00227213
v -0.01174164 -0.01565552 -0.00195535
v -0.01369858 -0.01369858 -0.00220989
v -0.01174164 -0.01565552 -0.00195535
v -0.01174164 -0.01369858 -0.00214591
v -0.01369858 -0.01369858 -0.00220989
v -0.01369858 -0.01299643 -0.00227213
v -0.01174164 -0.01174164 -0.00197225
v -0.01308580 -0.01174164 -0.00227213
v -0.01369858 -0.01299643 -0.00227213
v -0.01369858 -0.01369858 -0.00220989
v -0.01174164 -0.01174164 -0.00197225
v -0.01369858 -0.01369858 -0.00220989
v -0.01174164 -0.01369858 -0.00214591
v -0.01174164 -0.01174164 -0.00197225
v -0.01761246 -0.00978470 -0.00479289
v -0.01761246 -0.01174164 -0.00440201
v -0.01734742 -0.01174164 -0.00422907
v -0.01692383 -0.00978470 -0.00422907
v -0.01761246 -0.00978470 -0.00479289
v -0.01734742 -0.01174164 -0.00422907
v -0.01734742 -0.01174164 -0.00422907
v -0.01565552 -0.00978470 -0.00342881
v -0.01692383 -0.00978470 -0.00422907
v -0.01565552 -0.01174164 -0.00300215
v -0.01565552 -0.00978470 -0.00342881
v -0.01734742 -0.01174164 -0.00422907
v -0.01692383 -0.00978470 -0.00422907
v -0.01565552 -0.00782776 -0.00381417
v -0.01618881 -0.00782776 -0.00422907
v -0.01565552 -0.00978470 -0.00342881
v -0.01565552 -0.00782776 -0.00381417
v -0.01692383 -0.00978470 -0.00422907
v -0.01369858 -0.01174164 -0.00241838
v -0.01369858 -0.00978470 -0.00285625
v -0.01565552 -0.01174164 -0.00300215
v -0.01565552 -0.01174164 -0.00300215
v -0.01369858 -0.00978470 -0.00285625
v -0.01565552 -0.00978470 -0.00342881
v -0.01369858 -0.00978470 -0.00285625
v -0.01369858 -0.00782776 -0.00323177
v -0.01565552 -0.00978470 -0.00342881
v -0.01565552 -0.00978470 -0.00342881
v -0.01369858 -0.00782776 -0.00323177
v -0.01565552 -0.00782776 -0.00381417
v -0.01308580 -0.01174164 -0.00227213
v -0.01174164 -0.00994199 -0.00227213
v -0.01174164 -0.00978470 -0.00230057
v -0.01308580 -0.01174164 -0.00227213
v -0.01174164 -0.00978470 -0.00230057
v -0.01369858 -0.01174164 -0.00241838
v -0.01369858 -0.01174164 -0.00241838
v -0.01174164 -0.00978470 -0.00230057
v -0.01369858 -0.00978470 -0.00285625
v -0.01174164 -0.00978470 -0.00230057
v -0.01174164 -0.00782776 -0.00287812
v -0.01369858 -0.00978470 -0.00285625
v -0.01369858 -0.00978470 -0.00285625
v -0.01174164 -0.00782776 -0.00287812
v -0.01369858 -0.00782776 -0.00323177
v -0.01308580 -0.01174164 -0.00227213
v -0.01174164 -0.01174164 -0.00197225
v -0.01174164 -0.00994199 -0.00227213
v -0.01565552 -0.00587082 -0.00538362
v -0.01565552 -0.00731552 -0.00422907
v -0.01449437 -0.00587082 -0.00422907
v -0.01565552 -0.00731552 -0.00422907
v -0.01369858 -0.00587082 -0.00346060
v -0.01449437 -0.00587082 -0.00422907
v -0.01565552 -0.00731552 -0.00422907
v -0.01565552 -0.00782776 -0.00381417
v -0.01369858 -0.00587082 -0.00346060
v -0.01565552 -0.00782776 -0.00381417
v -0.01369858 -0.00782776 -0.00323177
v -0.01369858 -0.00587082 -0.00346060
v -0.01174164 -0.00782776 -0.00287812
v -0.01174164 -0.00587082 -0.00310062
v -0.01369858 -0.00782776 -0.00323177
v -0.01369858 -0.00782776 -0.00323177
v -0.01174164 -0.00587082 -0.00310062
v -0.01369858 -0.00587082 -0.00346060
v -0.00978470 -0.01761246 -0.00057067
v -0.00978470 -0.01565552 -0.00159926
v -0.01174164 -0.01761246 -0.00137475
v -0.01174164 -0.01761246 -0.00137475
v -0.00978470 -0.01565552 -0.00159926
v -0.01174164 -0.01565552 -0.00195535
v -0.00978470 -0.01565552 -0.00159926
v -0.00978470 -0.01369858 -0.00125949
v -0.01174164 -0.01565552 -0.00195535
v -0.01174164 -0.01565552 -0.00195535
v -0.00978470 -0.01369858 -0.00125949
v -0.01174164 -0.01369858 -0.00214591
v -0.00978470 -0.01369858 -0.00125949
v -0.00978470 -0.01174164 -0.00129078
v -0.01174164 -0.01369858 -0.00214591
v -0.01174164 -0.01369858 -0.00214591
v -0.00978470 -0.01174164 -0.00129078
v -0.01174164 -0.01174164 -0.00197225
v -0.00782776 -0.01565552 -0.00102980
v -0.00782776 -0.01369858 -0.00137542
v -0.00978470 -0.01565552 -0.00159926
v -0.00978470 -0.01565552 -0.00159926
v -0.00782776 -0.01369858 -0.00137542
v -0.00978470 -0.01369858 -0.00125949
v -0.00782776 -0.01369858 -0.00137542
v -0.00782776 -0.01174164 -0.00073470
v -0.00978470 -0.01369858 -0.00125949
v -0.00978470 -0.01369858 -0.00125949
v -0.00782776 -0.01174164 -0.00073470
v -0.00978470 -0.01174164 -0.00129078
v -0.01174164 -0.00978470 -0.00230057
v -0.01174164 -0.00994199 -0.00227213
v -0.01159902 -0.00978470 -0.00227213
v -0.01159902 -0.00978470 -0.00227213
v -0.00978470 -0.00801935 -0.00227213
v -0.00978470 -0.00782776 -0.00231150
v -0.01159902 -0.00978470 -0.00227213
v -0.00978470 -0.00782776 -0.00231150
v -0.01174164 -0.00978470 -0.00230057
v -0.01174164 -0.00978470 -0.00230057
v -0.00978470 -0.00782776 -0.00231150
v -0.01174164 -0.00782776 -0.00287812
v -0.00978470 -0.00782776 -0.00231150
v -0.00978470 -0.00801935 -0.00227213
v -0.00965117 -0.00782776 -0.00227213
v -0.01174164 -0.00994199 -0.00227213
v -0.00978470 -0.00978470 -0.00191352
v -0.01159902 -0.00978470 -0.00227213
v -0.01174164 -0.00994199 -0.00227213
v -0.01174164 -0.01174164 -0.00197225
v -0.00978470 -0.00978470 -0.00191352
v -0.01174164 -0.01174164 -0.00197225
v -0.00978470 -0.01174164 -0.00129078
v -0.00978470 -0.00978470 -0.00191352
v -0.01159902 -0.00978470 -0.00227213
v -0.00978470 -0.00978470 -0.00191352
v -0.00978470 -0.00801935 -0.00227213
v -0.00782776 -0.01174164 -0.00073470
v -0.00782776 -0.00978470 -0.00141449
v -0.00978470 -0.01174164 -0.00129078
v -0.00978470 -0.01174164 -0.00129078
v -0.00782776 -0.00978470 -0.00141449
v -0.00978470 -0.00978470 -0.00191352
v -0.00978470 -0.00801935 -0.00227213
v -0.00782776 -0.00782776 -0.00174304
v -0.00965117 -0.00782776 -0.00227213
v -0.00978470 -0.00801935 -0.00227213
v -0.00978470 -0.00978470 -0.00191352
v -0.00782776 -0.00782776 -0.00174304
v -0.00978470 -0.00978470 -0.00191352
v -0.00782776 -0.00978470 -0.00141449
v -0.00782776 -0.00782776 -0.00174304
v -0.00978470 -0.00782776 -0.00231150
v -0.00978470 -0.00587082 -0.00268733
v -0.01174164 -0.00782776 -0.00287812
v -0.01174164 -0.00782776 -0.00287812
v -0.00978470 -0.00587082 -0.00268733
v -0.01174164 -0.00587082 -0.00310062
v -0.00978470 -0.00587082 -0.00268733
v -0.00978470 -0.00391388 -0.00320253
v -0.01174164 -0.00587082 -0.00310062
v -0.01174164 -0.00587082 -0.00310062
v -0.00978470 -0.00391388 -0.00320253
v -0.01174164 -0.00391388 -0.00364744
v -0.00978470 -0.00587082 -0.00268733
v -0.00978470 -0.00782776 -0.00231150
v -0.00965117 -0.00782776 -0.00227213
v -0.00822967 -0.00587082 -0.00227213
v -0.00978470 -0.00587082 -0.00268733
v -0.00965117 -0.00782776 -0.00227213
v -0.00822967 -0.00587082 -0.00227213
v -0.00782776 -0.00558757 -0.00227213
v -0.00782776 -0.00391388 -0.00287301
v -0.00822967 -0.00587082 -0.00227213
v -0.00782776 -0.00391388 -0.00287301
v -0.00978470 -0.00587082 -0.00268733
v -0.00978470 -0.00587082 -0.00268733
v -0.00782776 -0.00391388 -0.00287301
v -0.00978470 -0.00391388 -0.00320253
v -0.00965117 -0.00782776 -0.00227213
v -0.00782776 -0.00587082 -0.00216439
v -0.00822967 -0.00587082 -0.00227213
v -0.00782776 -0.00782776 -0.00174304
v -0.00782776 -0.00587082 -0.00216439
v -0.00965117 -0.00782776 -0.00227213
v -0.00822967 -0.00587082 -0.00227213
v -0.00782776 -0.00587082 -0.00216439
v -0.00782776 -0.00558757 -0.00227213
v -0.00713131 -0.01174164 -0.00031519
v -0.00587082 -0.01058502 -0.00031519
v -0.00587082 -0.00978470 -0.00083972
v -0.00713131 -0.01174164 -0.00031519
v -0.00587082 -0.00978470 -0.00083972
v -0.00782776 -0.01174164 -0.00073470
v -0.00782776 -0.01174164 -0.00073470
v -0.00587082 -0.00978470 -0.00083972
v -0.00782776 -0.00978470 -0.00141449
v -0.00713131 -0.01174164 -0.00031519
v -0.00587082 -0.01174164 0.00044528
v -0.00587082 -0.01058502 -0.00031519
v -0.00587082 -0.00978470 -0.00083972
v -0.00587082 -0.00782776 -0.00107547
v -0.00782776 -0.00978470 -0.00141449
v -0.00782776 -0.00978470 -0.00141449
v -0.00587082 -0.00782776 -0.00107547
v -0.00782776 -0.00782776 -0.00174304
v -0.00496708 -0.00978470 -0.00031519
v -0.00391388 -0.00782776 -0.00009731
v -0.00428731 -0.00782776 -0.00031519
v -0.00391388 -0.00978470 0.00031386
v -0.00391388 -0.00782776 -0.00009731
v -0.00496708 -0.00978470 -0.00031519
v -0.00782776 -0.00558757 -0.00227213
v -0.00587082 -0.00400938 -0.00227213
v -0.00587082 -0.00391388 -0.00230757
v -0.00782776 -0.00391388 -0.00287301
v -0.00782776 -0.00558757 -0.00227213
v -0.00587082 -0.00391388 -0.00230757
v -0.00587082 -0.00391388 -0.00230757
v -0.00587082 -0.00400938 -0.00227213
v -0.00575227 -0.00391388 -0.00227213
v -0.00587082 -0.00782776 -0.00107547
v -0.00587082 -0.00587082 -0.00158016
v -0.00782776 -0.00782776 -0.00174304
v -0.00782776 -0.00782776 -0.00174304
v -0.00587082 -0.00587082 -0.00158016
v -0.00782776 -0.00587082 -0.00216439
v -0.00587082 -0.00587082 -0.00158016
v -0.00782776 -0.00558757 -0.00227213
v -0.00782776 -0.00587082 -0.00216439
v -0.00587082 -0.00400938 -0.00227213
v -0.00782776 -0.00558757 -0.00227213
v -0.00587082 -0.00587082 -0.00158016
v -0.00428731 -0.00782776 -0.00031519
v -0.00391388 -0.00721534 -0.00031519
v -0.00391388 -0.00587082 -0.00076792
v -0.00428731 -0.00782776 -0.00031519
v -0.00391388 -0.00587082 -0.00076792
v -0.00587082 -0.00782776 -0.00107547
v -0.00587082 -0.00782776 -0.00107547
v -0.00391388 -0.00587082 -0.00076792
v -0.00587082 -0.00587082 -0.00158016
v -0.00428731 -0.00782776 -0.00031519
v -0.00391388 -0.00782776 -0.00009731
v -0.00391388 -0.00721534 -0.00031519
v -0.00587082 -0.00400938 -0.00227213
v -0.00391388 -0.00391388 -0.00169618
v -0.00575227 -0.00391388 -0.00227213
v -0.00587082 -0.00400938 -0.00227213
v -0.00587082 -0.00587082 -0.00158016
v -0.00391388 -0.00391388 -0.00169618
v -0.00587082 -0.00587082 -0.00158016
v -0.00391388 -0.00587082 -0.00076792
v -0.00391388 -0.00391388 -0.00169618
v -0.00195694 -0.00978470 0.00087436
v -0.00195694 -0.00782776 0.00082552
v -0.00391388 -0.00978470 0.00031386
v -0.00391388 -0.00978470 0.00031386
v -0.00195694 -0.00782776 0.00082552
v -0.00391388 -0.00782776 -0.00009731
v -0.00391388 -0.00587082 -0.00076792
v -0.00391388 -0.00721534 -0.00031519
v -0.00315197 -0.00587082 -0.00031519
v -0.00391388 -0.00721534 -0.00031519
v -0.00195694 -0.00587082 0.00033614
v -0.00315197 -0.00587082 -0.00031519
v -0.00391388 -0.00721534 -0.00031519
v -0.00391388 -0.00782776 -0.00009731
v -0.00195694 -0.00587082 0.00033614
v -0.00391388 -0.00782776 -0.00009731
v -0.00195694 -0.00782776 0.00082552
v -0.00195694 -0.00587082 0.00033614
v -0.00391388 -0.00391388 -0.00169618
v -0.00391388 -0.00587082 -0.00076792
v -0.00315197 -0.00587082 -0.00031519
v -0.00206166 -0.00391388 -0.00031519
v -0.00391388 -0.00391388 -0.00169618
v -0.00315197 -0.00587082 -0.00031519
v -0.00315197 -0.00587082 -0.00031519
v -0.00195694 -0.00391388 -0.00023237
v -0.00206166 -0.00391388 -0.00031519
v -0.00195694 -0.00587082 0.00033614
v -0.00195694 -0.00391388 -0.00023237
v -0.00315197 -0.00587082 -0.00031519
v -0.00782776 -0.00391388 -0.00287301
v -0.00782776 -0.00195694 -0.00305110
v -0.00978470 -0.00391388 -0.00320253
v -0.00978470 -0.00391388 -0.00320253
v -0.00782776 -0.00195694 -0.00305110
v -0.00978470 -0.00195694 -0.00321270
v -0.00587082 -0.00391388 -0.00230757
v -0.00587082 -0.00195694 -0.00278963
v -0.00782776 -0.00391388 -0.00287301
v -0.00782776 -0.00391388 -0.00287301
v -0.00587082 -0.00195694 -0.00278963
v -0.00782776 -0.00195694 -0.00305110
v -0.00587082 -0.00195694 -0.00278963
v -0.00587082 -0.00391388 -0.00230757
v -0.00575227 -0.00391388 -0.00227213
v -0.00406381 -0.00195694 -0.00227213
v -0.00587082 -0.00195694 -0.00278963
v -0.00575227 -0.00391388 -0.00227213
v -0.00575227 -0.00391388 -0.00227213
v -0.00391388 -0.00195694 -0.00222979
v -0.00406381 -0.00195694 -0.00227213
v -0.00391388 -0.00391388 -0.00169618
v -0.00391388 -0.00195694 -0.00222979
v -0.00575227 -0.00391388 -0.00227213
v -0.00406381 -0.00195694 -0.00227213
v -0.00391388 -0.00195694 -0.00222979
v -0.00391388 -0.00185815 -0.00227213
v -0.00391388 -0.00185815 -0.00227213
v -0.00195694 -0.00029917 -0.00227213
v -0.00195694 0.00000000 -0.00243526
v -0.00391388 0.00000000 -0.00306941
v -0.00391388 -0.00185815 -0.00227213
v -0.00195694 0.00000000 -0.00243526
v -0.00195694 0.00000000 -0.00243526
v -0.00195694 -0.00029917 -0.00227213
v -0.00147189 0.00000000 -0.00227213
v -0.00206166 -0.00391388 -0.00031519
v -0.00195694 -0.00378595 -0.00031519
v -0.00195694 -0.00195694 -0.00137254
v -0.00206166 -0.00391388 -0.00031519
v -0.00195694 -0.00195694 -0.00137254
v -0.00391388 -0.00391388 -0.00169618
v -0.00391388 -0.00391388 -0.00169618
v -0.00195694 -0.00195694 -0.00137254
v -0.00391388 -0.00195694 -0.00222979
v -0.00206166 -0.00391388 -0.00031519
v -0.00195694 -0.00391388 -0.00023237
v -0.00195694 -0.00378595 -0.00031519
v -0.00195694 -0.00195694 -0.00137254
v -0.00391388 -0.00185815 -0.00227213
v -0.00391388 -0.00195694 -0.00222979
v -0.00195694 -0.00029917 -0.00227213
v -0.00391388 -0.00185815 -0.00227213
v -0.00195694 -0.00195694 -0.00137254
v -0.00195694 -0.00195694 -0.00137254
v -0.00195694 -0.00378595 -0.00031519
v -0.00021337 -0.00195694 -0.00031519
v -0.00195694 -0.00378595 -0.00031519
v -0.00000000 -0.00195694 -0.00016888
v -0.00021337 -0.00195694 -0.00031519
v -0.00195694 -0.00378595 -0.00031519
v -0.00195694 -0.00391388 -0.00023237
v -0.00000000 -0.00195694 -0.00016888
v -0.00195694 -0.00391388 -0.00023237
v -0.00000000 -0.00391388 0.00065569
v -0.00000000 -0.00195694 -0.00016888
v -0.00021337 -0.00195694 -0.00031519
v -0.00000000 -0.00181236 -0.00031519
v -0.00000000 0.00000000 -0.00181623
v -0.00195694 -0.00195694 -0.00137254
v -0.00021337 -0.00195694 -0.00031519
v -0.00000000 0.00000000 -0.00181623
v -0.00195694 -0.00195694 -0.00137254
v -0.00000000 0.00000000 -0.00181623
v -0.00147189 0.00000000 -0.00227213
v -0.00195694 -0.00195694 -0.00137254
v -0.00147189 0.00000000 -0.00227213
v -0.00195694 -0.00029917 -0.00227213
v -0.00021337 -0.00195694 -0.00031519
v -0.00000000 -0.00195694 -0.00016888
v -0.00000000 -0.00181236 -0.00031519
v -0.00195694 0.00000000 -0.00243526
v -0.00195694 0.00195694 -0.00352155
v -0.00391388 0.00000000 -0.00306941
v -0.00391388 0.00000000 -0.00306941
v -0.00195694 0.00195694 -0.00352155
v -0.00391388 0.00195694 -0.00392591
v -0.00147189 0.00000000 -0.00227213
v -0.00000000 0.00193836 -0.00227213
v -0.00000000 0.00195694 -0.00227835
v -0.00147189 0.00000000 -0.00227213
v -0.00000000 0.00195694 -0.00227835
v -0.00195694 0.00000000 -0.00243526
v -0.00195694 0.00000000 -0.00243526
v -0.00000000 0.00195694 -0.00227835
v -0.00195694 0.00195694 -0.00352155
v -0.00195694 0.00278477 -0.00422907
v -0.00000000 0.00391388 -0.00343497
v -0.00093739 0.00391388 -0.00422907
v -0.00195694 0.00278477 -0.00422907
v -0.00195694 0.00195694 -0.00352155
v -0.00000000 0.00391388 -0.00343497
v -0.00195694 0.00195694 -0.00352155
v -0.00000000 0.00195694 -0.00227835
v -0.00000000 0.00391388 -0.00343497
v -0.00147189 0.00000000 -0.00227213
v -0.00000000 0.00000000 -0.00181623
v -0.00000000 0.00193836 -0.00227213
v 0.00195694 -0.00391388 0.00162075
v 0.00195694 -0.00195694 0.00101406
v -0.00000000 -0.00391388 0.00065569
v -0.00000000 -0.00391388 0.00065569
v 0.00195694 -0.00195694 0.00101406
v -0.00000000 -0.00195694 -0.00016888
v -0.00000000 0.00000000 -0.00181623
v -0.00000000 -0.00181236 -0.00031519
v 0.00127008 0.00000000 -0.00031519
v -0.00000000 -0.00181236 -0.00031519
v 0.00195694 0.00000000 0.00060742
v 0.00127008 0.00000000 -0.00031519
v -0.00000000 -0.00181236 -0.00031519
v -0.00000000 -0.00195694 -0.00016888
v 0.00195694 0.00000000 0.00060742
v -0.00000000 -0.00195694 -0.00016888
v 0.00195694 -0.00195694 0.00101406
v 0.00195694 0.00000000 0.00060742
v 0.00195694 -0.00195694 0.00101406
v 0.00195694 -0.00391388 0.00162075
v 0.00199367 -0.00391388 0.00164175
v 0.00275562 -0.00195694 0.00164175
v 0.00195694 -0.00195694 0.00101406
v 0.00199367 -0.00391388 0.00164175
v 0.00195694 0.00000000 0.00060742
v 0.00195694 -0.00195694 0.00101406
v 0.00275562 -0.00195694 0.00164175
v 0.00314101 0.00000000 0.00164175
v 0.00195694 0.00000000 0.00060742
v 0.00275562 -0.00195694 0.00164175
v -0.00000000 0.00195694 -0.00227835
v -0.00000000 0.00193836 -0.00227213
v 0.00000668 0.00195694 -0.00227213
v -0.00000000 0.00391388 -0.00343497
v -0.00000000 0.00195694 -0.00227835
v 0.00000668 0.00195694 -0.00227213
v 0.00138929 0.00391388 -0.00227213
v -0.00000000 0.00391388 -0.00343497
v 0.00000668 0.00195694 -0.00227213
v 0.00127008 0.00000000 -0.00031519
v 0.00195694 0.00182124 -0.00031519
v 0.00195694 0.00195694 -0.00040377
v -0.00000000 0.00000000 -0.00181623
v 0.00127008 0.00000000 -0.00031519
v 0.00195694 0.00195694 -0.00040377
v -0.00000000 0.00000000 -0.00181623
v 0.00195694 0.00195694 -0.00040377
v 0.00000668 0.00195694 -0.00227213
v -0.00000000 0.00000000 -0.00181623
v 0.00000668 0.00195694 -0.00227213
v -0.00000000 0.00193836 -0.00227213
v 0.00127008 0.00000000 -0.00031519
v 0.00195694 0.00000000 0.00060742
v 0.00195694 0.00182124 -0.00031519
v 0.00000668 0.00195694 -0.00227213
v 0.00195694 0.00391388 -0.00171848
v 0.00138929 0.00391388 -0.00227213
v 0.00195694 0.00195694 -0.00040377
v 0.00195694 0.00391388 -0.00171848
v 0.00000668 0.00195694 -0.00227213
v 0.00195694 0.00195694 -0.00040377
v 0.00195694 0.00182124 -0.00031519
v 0.00204729 0.00195694 -0.00031519
v 0.00195694 0.00182124 -0.00031519
v 0.00195694 0.00000000 0.00060742
v 0.00314101 0.00000000 0.00164175
v 0.00195694 0.00182124 -0.00031519
v 0.00314101 0.00000000 0.00164175
v 0.00204729 0.00195694 -0.00031519
v 0.00204729 0.00195694 -0.00031519
v 0.00314101 0.00000000 0.00164175
v 0.00330174 0.00195694 0.00164175
v 0.00204729 0.00195694 -0.00031519
v 0.00391388 0.00377977 -0.00031519
v 0.00391388 0.00391388 -0.00040828
v 0.00204729 0.00195694 -0.00031519
v 0.00391388 0.00391388 -0.00040828
v 0.00195694 0.00195694 -0.00040377
v 0.00195694 0.00195694 -0.00040377
v 0.00391388 0.00391388 -0.00040828
v 0.00195694 0.00391388 -0.00171848
v 0.00391388 0.00377977 -0.00031519
v 0.00330174 0.00195694 0.00164175
v 0.00391388 0.00247043 0.00164175
v 0.00204729 0.00195694 -0.00031519
v 0.00330174 0.00195694 0.00164175
v 0.00391388 0.00377977 -0.00031519
v -0.00000000 0.00587082 -0.00346315
v -0.00000000 0.00391388 -0.00343497
v 0.00138929 0.00391388 -0.00227213
v 0.00150176 0.00587082 -0.00227213
v -0.00000000 0.00587082 -0.00346315
v 0.00138929 0.00391388 -0.00227213
v 0.00138929 0.00391388 -0.00227213
v 0.00195694 0.00587082 -0.00185572
v 0.00150176 0.00587082 -0.00227213
v 0.00195694 0.00391388 -0.00171848
v 0.00195694 0.00587082 -0.00185572
v 0.00138929 0.00391388 -0.00227213
v 0.00150176 0.00587082 -0.00227213
v -0.00000000 0.00782776 -0.00129008
v -0.00000000 0.00694437 -0.00227213
v 0.00150176 0.00587082 -0.00227213
v 0.00195694 0.00587082 -0.00185572
v -0.00000000 0.00782776 -0.00129008
v 0.00195694 0.00587082 -0.00185572
v 0.00195694 0.00782776 -0.00110732
v -0.00000000 0.00782776 -0.00129008
v 0.00391388 0.00391388 -0.00040828
v 0.00391388 0.00587082 -0.00036157
v 0.00195694 0.00391388 -0.00171848
v 0.00195694 0.00391388 -0.00171848
v 0.00391388 0.00587082 -0.00036157
v 0.00195694 0.00587082 -0.00185572
v 0.00391388 0.00587082 -0.00036157
v 0.00391388 0.00782776 -0.00054801
v 0.00195694 0.00587082 -0.00185572
v 0.00195694 0.00587082 -0.00185572
v 0.00391388 0.00782776 -0.00054801
v 0.00195694 0.00782776 -0.00110732
v 0.00391388 0.00947496 -0.00031519
v 0.00304384 0.00978470 -0.00031519
v 0.00195694 0.00978470 -0.00037798
v 0.00391388 0.00947496 -0.00031519
v 0.00195694 0.00978470 -0.00037798
v 0.00391388 0.00782776 -0.00054801
v 0.00391388 0.00782776 -0.00054801
v 0.00195694 0.00978470 -0.00037798
v 0.00195694 0.00782776 -0.00110732
v 0.00391388 0.00947496 -0.00031519
v 0.00391388 0.00978470 -0.00026100
v 0.00304384 0.00978470 -0.00031519
v 0.00199367 -0.00391388 0.00164175
v 0.00391388 -0.00195694 0.00259250
v 0.00275562 -0.00195694 0.00164175
v 0.00391388 -0.00391388 0.00285846
v 0.00391388 -0.00195694 0.00259250
v 0.00199367 -0.00391388 0.00164175
v 0.00275562 -0.00195694 0.00164175
v 0.00391388 0.00000000 0.00229488
v 0.00314101 0.00000000 0.00164175
v 0.00391388 -0.00195694 0.00259250
v 0.00391388 0.00000000 0.00229488
v 0.00275562 -0.00195694 0.00164175
v 0.00314101 0.00000000 0.00164175
v 0.00391388 0.00195694 0.00229414
v 0.00330174 0.00195694 0.00164175
v 0.00391388 0.00000000 0.00229488
v 0.00391388 0.00195694 0.00229414
v 0.00314101 0.00000000 0.00164175
v 0.00330174 0.00195694 0.00164175
v 0.00391388 0.00195694 0.00229414
v 0.00391388 0.00247043 0.00164175
v 0.00391388 0.00391388 -0.00040828
v 0.00391388 0.00377977 -0.00031519
v 0.00411457 0.00391388 -0.00031519
v 0.00587082 0.00391388 0.00041251
v 0.00411457 0.00391388 -0.00031519
v 0.00391388 0.00377977 -0.00031519
v 0.00587082 0.00391388 0.00041251
v 0.00391388 0.00377977 -0.00031519
v 0.00587082 0.00282485 0.00164175
v 0.00587082 0.00282485 0.00164175
v 0.00391388 0.00377977 -0.00031519
v 0.00391388 0.00247043 0.00164175
v 0.00391388 0.00587082 -0.00036157
v 0.00391388 0.00391388 -0.00040828
v 0.00411457 0.00391388 -0.00031519
v 0.00404590 0.00587082 -0.00031519
v 0.00391388 0.00587082 -0.00036157
v 0.00411457 0.00391388 -0.00031519
v 0.00411457 0.00391388 -0.00031519
v 0.00587082 0.00587082 0.00031826
v 0.00404590 0.00587082 -0.00031519
v 0.00587082 0.00391388 0.00041251
v 0.00587082 0.00587082 0.00031826
v 0.00411457 0.00391388 -0.00031519
v 0.00391388 0.00782776 -0.00054801
v 0.00391388 0.00587082 -0.00036157
v 0.00404590 0.00587082 -0.00031519
v 0.00457890 0.00782776 -0.00031519
v 0.00391388 0.00782776 -0.00054801
v 0.00404590 0.00587082 -0.00031519
v 0.00404590 0.00587082 -0.00031519
v 0.00587082 0.00782776 0.00021045
v 0.00457890 0.00782776 -0.00031519
v 0.00587082 0.00587082 0.00031826
v 0.00587082 0.00782776 0.00021045
v 0.00404590 0.00587082 -0.00031519
v 0.00701001 0.00391388 0.00164175
v 0.00782776 0.00529894 0.00164175
v 0.00782776 0.00587082 0.00121529
v 0.00701001 0.00391388 0.00164175
v 0.00782776 0.00587082 0.00121529
v 0.00587082 0.00391388 0.00041251
v 0.00587082 0.00391388 0.00041251
v 0.00782776 0.00587082 0.00121529
v 0.00587082 0.00587082 0.00031826
v 0.00782776 0.00587082 0.00121529
v 0.00782776 0.00782776 0.00088289
v 0.00587082 0.00587082 0.00031826
v 0.00587082 0.00587082 0.00031826
v 0.00782776 0.00782776 0.00088289
v 0.00587082 0.00782776 0.00021045
v 0.00391388 0.00782776 -0.00054801
v 0.00457890 0.00782776 -0.00031519
v 0.00391388 0.00947496 -0.00031519
v 0.00457890 0.00782776 -0.00031519
v 0.00391388 0.00978470 -0.00026100
v 0.00391388 0.00947496 -0.00031519
v 0.00457890 0.00782776 -0.00031519
v 0.00587082 0.00782776 0.00021045
v 0.00391388 0.00978470 -0.00026100
v 0.00587082 0.00782776 0.00021045
v 0.00587082 0.00978470 0.00036618
v 0.00391388 0.00978470 -0.00026100
v 0.00587082 0.00978470 0.00036618
v 0.00587082 0.01174164 0.00128616
v 0.00391388 0.00978470 -0.00026100
v 0.00391388 0.00978470 -0.00026100
v 0.00587082 0.01174164 0.00128616
v 0.00391388 0.01174164 0.00078522
v 0.00782776 0.00782776 0.00088289
v 0.00782776 0.00978470 0.00131684
v 0.00587082 0.00782776 0.00021045
v 0.00587082 0.00782776 0.00021045
v 0.00782776 0.00978470 0.00131684
v 0.00587082 0.00978470 0.00036618
v 0.00782776 0.00978470 0.00131684
v 0.00782776 0.01174164 0.00139058
v 0.00587082 0.00978470 0.00036618
v 0.00587082 0.00978470 0.00036618
v 0.00782776 0.01174164 0.00139058
v 0.00587082 0.01174164 0.00128616
v 0.00782776 0.00782776 0.00088289
v 0.00782776 0.00587082 0.00121529
v 0.00863157 0.00587082 0.00164175
v 0.00914670 0.00782776 0.00164175
v 0.00782776 0.00782776 0.00088289
v 0.00863157 0.00587082 0.00164175
v 0.00782776 0.00978470 0.00131684
v 0.00782776 0.00782776 0.00088289
v 0.00914670 0.00782776 0.00164175
v 0.00874336 0.00978470 0.00164175
v 0.00782776 0.00978470 0.00131684
v 0.00914670 0.00782776 0.00164175
v 0.00782776 0.01174164 0.00139058
v 0.00782776 0.00978470 0.00131684
v 0.00874336 0.00978470 0.00164175
v 0.00832170 0.01174164 0.00164175
v 0.00782776 0.01174164 0.00139058
v 0.00874336 0.00978470 0.00164175
v 0.00587082 0.01174164 0.00128616
v 0.00587082 0.01369858 0.00110475
v 0.00391388 0.01174164 0.00078522
v 0.00391388 0.01174164 0.00078522
v 0.00587082 0.01369858 0.00110475
v 0.00391388 0.01369858 0.00077363
v 0.00782776 0.01312720 0.00164175
v 0.00745362 0.01369858 0.00164175
v 0.00587082 0.01369858 0.00110475
v 0.00782776 0.01312720 0.00164175
v 0.00587082 0.01369858 0.00110475
v 0.00782776 0.01174164 0.00139058
v 0.00782776 0.01174164 0.00139058
v 0.00587082 0.01369858 0.00110475
v 0.00587082 0.01174164 0.00128616
v 0.00782776 0.01174164 0.00139058
v 0.00832170 0.01174164 0.00164175
v 0.00782776 0.01312720 0.00164175
v 0.00515113 -0.00391388 0.00359869
v 0.00587082 -0.00299237 0.00359869
v 0.00587082 -0.00195694 0.00311180
v 0.00515113 -0.00391388 0.00359869
v 0.00587082 -0.00195694 0.00311180
v 0.00391388 -0.00391388 0.00285846
v 0.00391388 -0.00391388 0.00285846
v 0.00587082 -0.00195694 0.00311180
v 0.00391388 -0.00195694 0.00259250
v 0.00587082 -0.00195694 0.00311180
v 0.00587082 0.00000000 0.00289130
v 0.00391388 -0.00195694 0.00259250
v 0.00391388 -0.00195694 0.00259250
v 0.00587082 0.00000000 0.00289130
v 0.00391388 0.00000000 0.00229488
v 0.00587082 0.00000000 0.00289130
v 0.00587082 0.00195694 0.00281150
v 0.00391388 0.00000000 0.00229488
v 0.00391388 0.00000000 0.00229488
v 0.00587082 0.00195694 0.00281150
v 0.00391388 0.00195694 0.00229414
v 0.00587082 0.00195694 0.00281150
v 0.00391388 0.00247043 0.00164175
v 0.00391388 0.00195694 0.00229414
v 0.00587082 0.00282485 0.00164175
v 0.00391388 0.00247043 0.00164175
v 0.00587082 0.00195694 0.00281150
v 0.00701001 0.00391388 0.00164175
v 0.00782776 0.00391388 0.00272460
v 0.00782776 0.00529894 0.00164175
v 0.00863157 0.00587082 0.00164175
v 0.00978470 0.00782776 0.00197086
v 0.00914670 0.00782776 0.00164175
v 0.00978470 0.00587082 0.00220127
v 0.00978470 0.00782776 0.00197086
v 0.00863157 0.00587082 0.00164175
v 0.00914670 0.00782776 0.00164175
v 0.00978470 0.00978470 0.00200013
v 0.00874336 0.00978470 0.00164175
v 0.00978470 0.00782776 0.00197086
v 0.00978470 0.00978470 0.00200013
v 0.00914670 0.00782776 0.00164175
v 0.00874336 0.00978470 0.00164175
v 0.00978470 0.01174164 0.00260418
v 0.00832170 0.01174164 0.00164175
v 0.00978470 0.00978470 0.00200013
v 0.00978470 0.01174164 0.00260418
v 0.00874336 0.00978470 0.00164175
v 0.01174164 0.00782776 0.00250172
v 0.01174164 0.00978470 0.00304760
v 0.00978470 0.00782776 0.00197086
v 0.00978470 0.00782776 0.00197086
v 0.01174164 0.00978470 0.00304760
v 0.00978470 0.00978470 0.00200013
v 0.01174164 0.00978470 0.00304760
v 0.01174164 0.01174164 0.00293786
v 0.00978470 0.00978470 0.00200013
v 0.00978470 0.00978470 0.00200013
v 0.01174164 0.01174164 0.00293786
v 0.00978470 0.01174164 0.00260418
v 0.01352487 0.00782776 0.00359869
v 0.01369858 0.00883581 0.00359869
v 0.01369858 0.00978470 0.00350897
v 0.01352487 0.00782776 0.00359869
v 0.01369858 0.00978470 0.00350897
v 0.01174164 0.00782776 0.00250172
v 0.01174164 0.00782776 0.00250172
v 0.01369858 0.00978470 0.00350897
v 0.01174164 0.00978470 0.00304760
v 0.01352487 0.00782776 0.00359869
v 0.01369858 0.00782776 0.00376812
v 0.01369858 0.00883581 0.00359869
v 0.01369858 0.00978470 0.00350897
v 0.01369858 0.01174164 0.00357218
v 0.01174164 0.00978470 0.00304760
v 0.01174164 0.00978470 0.00304760
v 0.01369858 0.01174164 0.00357218
v 0.01174164 0.01174164 0.00293786
v 0.01369858 0.01174164 0.00357218
v 0.01369858 0.00978470 0.00350897
v 0.01385617 0.00978470 0.00359869
v 0.01374577 0.01174164 0.00359869
v 0.01369858 0.01174164 0.00357218
v 0.01385617 0.00978470 0.00359869
v 0.01385617 0.00978470 0.00359869
v 0.01565552 0.01174164 0.00462421
v 0.01374577 0.01174164 0.00359869
v 0.01565552 0.00978470 0.00473162
v 0.01565552 0.01174164 0.00462421
v 0.01385617 0.00978470 0.00359869
v 0.01761246 0.00978470 0.00465484
v 0.01761246 0.01174164 0.00520101
v 0.01565552 0.00978470 0.00473162
v 0.01565552 0.00978470 0.00473162
v 0.01761246 0.01174164 0.00520101
v 0.01565552 0.01174164 0.00462421
v 0.00782776 0.01312720 0.00164175
v 0.00782776 0.01369858 0.00176092
v 0.00745362 0.01369858 0.00164175
v 0.00745362 0.01369858 0.00164175
v 0.00782776 0.01565552 0.00176527
v 0.00751658 0.01565552 0.00164175
v 0.00782776 0.01369858 0.00176092
v 0.00782776 0.01565552 0.00176527
v 0.00745362 0.01369858 0.00164175
v 0.00832170 0.01174164 0.00164175
v 0.00782776 0.01369858 0.00176092
v 0.00782776 0.01312720 0.00164175
v 0.00832170 0.01174164 0.00164175
v 0.00978470 0.01174164 0.00260418
v 0.00782776 0.01369858 0.00176092
v 0.00978470 0.01174164 0.00260418
v 0.00978470 0.01369858 0.00237850
v 0.00782776 0.01369858 0.00176092
v 0.00978470 0.01369858 0.00237850
v 0.00978470 0.01565552 0.00226384
v 0.00782776 0.01369858 0.00176092
v 0.00782776 0.01369858 0.00176092
v 0.00978470 0.01565552 0.00226384
v 0.00782776 0.01565552 0.00176527
v 0.01174164 0.01174164 0.00293786
v 0.01174164 0.01369858 0.00285673
v 0.00978470 0.01174164 0.00260418
v 0.00978470 0.01174164 0.00260418
v 0.01174164 0.01369858 0.00285673
v 0.00978470 0.01369858 0.00237850
v 0.01174164 0.01369858 0.00285673
v 0.01174164 0.01565552 0.00266745
v 0.00978470 0.01369858 0.00237850
v 0.00978470 0.01369858 0.00237850
v 0.01174164 0.01565552 0.00266745
v 0.00978470 0.01565552 0.00226384
v 0.01369858 0.01174164 0.00357218
v 0.01369858 0.01369858 0.00351206
v 0.01174164 0.01174164 0.00293786
v 0.01174164 0.01174164 0.00293786
v 0.01369858 0.01369858 0.00351206
v 0.01174164 0.01369858 0.00285673
v 0.01369858 0.01369858 0.00351206
v 0.01369858 0.01565552 0.00347383
v 0.01174164 0.01369858 0.00285673
v 0.01174164 0.01369858 0.00285673
v 0.01369858 0.01565552 0.00347383
v 0.01174164 0.01565552 0.00266745
v 0.01369858 0.01369858 0.00351206
v 0.01369858 0.01174164 0.00357218
v 0.01374577 0.01174164 0.00359869
v 0.01393348 0.01369858 0.00359869
v 0.01369858 0.01369858 0.00351206
v 0.01374577 0.01174164 0.00359869
v 0.01374577 0.01174164 0.00359869
v 0.01565552 0.01369858 0.00421965
v 0.01393348 0.01369858 0.00359869
v 0.01565552 0.01174164 0.00462421
v 0.01565552 0.01369858 0.00421965
v 0.01374577 0.01174164 0.00359869
v 0.01369858 0.01565552 0.00347383
v 0.01369858 0.01369858 0.00351206
v 0.01393348 0.01369858 0.00359869
v 0.01411477 0.01565552 0.00359869
v 0.01369858 0.01565552 0.00347383
v 0.01393348 0.01369858 0.00359869
v 0.01393348 0.01369858 0.00359869
v 0.01565552 0.01565552 0.00406912
v 0.01411477 0.01565552 0.00359869
v 0.01565552 0.01369858 0.00421965
v 0.01565552 0.01565552 0.00406912
v 0.01393348 0.01369858 0.00359869
v 0.01369858 0.01565552 0.00347383
v 0.01369858 0.01761246 0.00319595
v 0.01174164 0.01565552 0.00266745
v 0.01174164 0.01565552 0.00266745
v 0.01369858 0.01761246 0.00319595
v 0.01174164 0.01761246 0.00261283
v 0.01761246 0.01174164 0.00520101
v 0.01761246 0.01369858 0.00538362
v 0.01565552 0.01174164 0.00462421
v 0.01565552 0.01174164 0.00462421
v 0.01761246 0.01369858 0.00538362
v 0.01565552 0.01369858 0.00421965
f 1 2 3
f 4 5 6
f 7 8 9
f 10 11 12
f 13 14 15
f 16 17 18
f 19 20 21
f 22 23 24
f 25 26 27
f 28 29 30
f 31 32 33
f 34 35 36
f 37 38 39
f 40 41 42
f 43 44 45
f 46 47 48
f 49 50 51
f 52 53 54
f 55 56 57
f 58 59 60
f 61 62 63
f 64 65 66
f 67 68 69
f 70 71 72
f 73 74 75
f 76 77 78
f 79 80 81
f 82 83 84
f 85 86 87
f 88 89 90
f 91 92 93
f 94 95 96
f 97 98 99
f 100 101 102
f 103 104 105
f 106 107 108
f 109 110 111
f 112 113 114
f 115 116 117
f 118 119 120
f 121 122 123
f 124 125 126
f 127 128 129
f 130 131 132
f 133 134 135
f 136 137 138
f 139 140 141
f 142 143 144
f 145 146 147
f 148 149 150
f 151 152 153
f 154 155 156
f 157 158 159
f 160 161 162
f 163 164 165
f 166 167 168
f 169 170 171
f 172 173 174
f 175 176 177
f 178 179 180
f 181 182 183
f 184 185 186
f 187 188 189
f 190 191 192
f 193 194 195
f 196 197 198
f 199 200 201
f 202 203 204
f 205 206 207
f 208 209 210
f 211 212 213
f 214 215 216
f 217 218 219
f 220 221 222
f 223 224 225
f 226 227 228
f 229 230 231
f 232 233 234
f 235 236 237
f 238 239 240
f 241 242 243
f 244 245 246
f 247 248 249
f 250 251 252
f 253 254 255
f 256 257 258
f 259 260 261
f 262 263 264
f 265 266 267
f 268 269 270
f 271 272 273
f 274 275 276
f 277 278 279
f 280 281 282
f 283 284 285
f 286 287 288
f 289 290 291
f 292 293 294
f 295 296 297
f 298 299 300
f 301 302 303
f 304 305 306
f 307 308 309
f 310 311 312
f 313 314 315
f 316 317 318
f 319 320 321
f 322 323 324
f 325 326 327
f 328 329 330
f 331 332 333
f 334 335 336
f 337 338 339
f 340 341 342
f 343 344 345
f 346 347 348
f 349 350 351
f 352 353 354
f 355 356 357
f 358 359 360
f 361 362 363
f 364 365 366
f 367 368 369
f 370 371 372
f 373 374 375
f 376 377 378
f 379 380 381
f 382 383 384
f 385 386 387
f 388 389 390
f 391 392 393
f 394 395 396
f 397 398 399
f 400 401 402
f 403 404 405
f 406 407 408
f 409 410 411
f 412 413 414
f 415 416 417
f 418 419 420
f 421 422 423
f 424 425 426
f 427 428 429
f 430 431 432
f 433 434 435
f 436 437 438
f 439 440 441
f 442 443 444
f 445 446 447
f 448 449 450
f 451 452 453
f 454 455 456
f 457 458 459
f 460 461 462
f 463 464 465
f 466 467 468
f 469 470 471
f 472 473 474
f 475 476 477
f 478 479 480
f 481 482 483
f 484 485 486
f 487 488 489
f 490 491 492
f 493 494 495
f 496 497 498
f 499 500 501
f 502 503 504
f 505 506 507
f 508 509 510
f 511 512 513
f 514 515 516
f 517 518 519
f 520 521 522
f 523 524 525
f 526 527 528
f 529 530 531
f 532 533 534
f 535 536 537
f 538 539 540
f 541 542 543
f 544 545 546
f 547 548 549
f 550 551 552
f 553 554 555
f 556 557 558
f 559 560 561
f 562 563 564
f 565 566 567
f 568 569 570
f 571 572 573
f 574 575 576
f 577 578 579
f 580 581 582
f 583 584 585
f 586 587 588
f 589 590 591
f 592 593 594
f 595 596 597
f 598 599 600
f 601 602 603
f 604 605 606
f 607 608 609
f 610 611 612
f 613 614 615
f 616 617 618
f 619 620 621
f 622 623 624
f 625 626 627
f 628 629 630
f 631 632 633
f 634 635 636
f 637 638 639
f 640 641 642
f 643 644 645
f 646 647 648
f 649 650 651
f 652 653 654
f 655 656 657
f 658 659 660
f 661 662 663
f 664 665 666
f 667 668 669
f 670 671 672
f 673 674 675
f 676 677 678
f 679 680 681
f 682 683 684
f 685 686 687
f 688 689 690
f 691 692 693
f 694 695 696
f 697 698 699
f 700 701 702
f 703 704 705
f 706 707 708
f 709 710 711
f 712 713 714
f 715 716 717
f 718 719 720
f 721 722 723
f 724 725 726
f 727 728 729
f 730 731 732
f 733 734 735
f 736 737 738
f 739 740 741
f 742 743 744
f 745 746 747
f 748 749 750
f 751 752 753
f 754 755 756
f 757 758 759
f 760 761 762
f 763 764 765
f 766 767 768
f 769 770 771
f 772 773 774
f 775 776 777
f 778 779 780
f 781 782 783
f 784 785 786
f 787 788 789
f 790 791 792
f 793 794 795
f 796 797 798
f 799 800 801
f 802 803 804
f 805 806 807
f 808 809 810
f 811 812 813
f 814 815 816
f 817 818 819
f 820 821 822
f 823 824 825
f 826 827 828
f 829 830 831
f 832 833 834
f 835 836 837
f 838 839 840
f 841 842 843
f 844 845 846
f 847 848 849
f 850 851 852
f 853 854 855
f 856 857 858
f 859 860 861
f 862 863 864
f 865 866 867
f 868 869 870
f 871 872 873
f 874 875 876
f 877 878 879
f 880 881 882
f 883 884 885
f 886 887 888
f 889 890 891
f 892 893 894

