# https://github.com/mikedh/trimesh
v 0.02827996 0.06452422 0.01288676
v 0.02602476 0.05870068 0.01826619
v 0.04030770 0.03922885 0.01845063
v 0.05543964 0.01478072 0.01125756
v 0.03105695 0.06324362 0.00497515
v 0.02793505 0.06197764 -0.01515545
v 0.00381768 0.05096356 -0.01604690
v -0.01962756 0.04027572 0.01501164
v 0.00978733 0.05470796 0.01729790
v 0.01934760 0.04191663 0.01897705
v 0.02944736 0.05201043 0.01876571
v 0.00451635 0.04817839 0.01766293
v 0.00892947 0.03934084 0.01855054
v 0.04194382 0.03276258 0.01896552
v 0.04770121 0.02242045 0.01907311
v 0.05601450 0.01478072 0.00263126
v 0.05062855 0.01528224 0.01849674
v 0.00136791 0.01478072 0.01881567
v 0.05489132 0.01704002 -0.00445422
v 0.03784908 0.04927883 -0.00516892
v 0.02007280 0.05671893 -0.01748014
v 0.04150162 0.03934571 -0.01505939
v 0.04399561 0.01487810 -0.01774527
v -0.00465480 0.04600187 -0.01726112
v -0.02511963 0.03586425 -0.01746477
v -0.03096546 0.03369260 0.01424699
v -0.01380825 0.04253989 0.01609905
v -0.00114376 0.04482840 0.01745928
v 0.02585673 0.04249120 0.01912690
v 0.01676518 0.03549419 0.01909617
v 0.03187059 0.03976446 0.01914996
v 0.04093561 0.02579479 0.01932287
v -0.00013555 0.03306447 0.01824698
v 0.00805392 0.02859944 0.01891173
v 0.03772527 0.01589576 0.01964180
v -0.01734582 0.01478072 -0.01912471
v 0.05350282 0.01525790 -0.01319580
v 0.02537031 0.01580325 0.01958800
v 0.01180374 0.01603696 0.01923449
v 0.00460479 0.02127133 0.01888868
v -0.00583988 0.01544293 0.01843526
v -0.01892004 0.01478072 0.01754382
v 0.02687378 0.03473947 -0.01870588
v 0.01849859 0.04681503 -0.01839464
v -0.03325604 0.02981673 -0.01786439
v 0.03643406 0.01497061 -0.01879810
v -0.03433500 0.01478072 0.01623738
v -0.02297940 0.03104377 0.01641413
v -0.01675328 0.03402370 0.01678685
v -0.00736988 0.03506084 0.01756303
v 0.02526419 0.03175953 0.01939972
v 0.03188828 0.03118497 0.01941893
v 0.01723391 0.02371565 0.01935745
v -0.01142040 0.02401754 0.01781279
v -0.00481399 0.02431943 0.01828541
v 0.02736904 0.02448012 0.01953036
v -0.03433500 0.01666996 -0.01833316
v -0.00871416 0.01580325 -0.01937063
v 0.00567490 0.01600288 -0.01958964
v 0.02628124 0.01663587 -0.01948974
v 0.02240760 0.02804922 -0.01925919
v 0.01911766 0.03748568 -0.01892490
v 0.01313917 0.02931521 -0.01926688
v 0.01631414 0.01851537 -0.01961270
f 1 2 3
f 1 3 4
f 1 4 5
f 1 5 6
f 1 6 7
f 1 7 8
f 1 8 9
f 1 9 2
f 2 10 11
f 2 11 3
f 2 9 12
f 2 12 13
f 2 13 10
f 3 14 15
f 3 15 4
f 3 11 14
f 4 16 5
f 4 15 17
f 4 17 18
f 4 18 42
f 4 42 47
f 4 47 36
f 4 36 16
f 5 16 19
f 5 19 20
f 5 20 6
f 6 21 7
f 6 20 22
f 6 22 23
f 6 23 21
f 7 24 25
f 7 25 8
f 7 21 24
f 8 25 26
f 8 26 27
f 8 27 9
f 9 27 28
f 9 28 12
f 10 29 11
f 10 13 30
f 10 30 29
f 11 29 31
f 11 31 32
f 11 32 14
f 12 28 13
f 13 28 33
f 13 33 34
f 13 34 30
f 14 32 15
f 15 32 35
f 15 35 17
f 16 36 23
f 16 23 37
f 16 37 19
f 17 35 18
f 18 35 38
f 18 38 39
f 18 39 40
f 18 40 41
f 18 41 42
f 19 37 22
f 19 22 20
f 21 23 43
f 21 43 44
f 21 44 45
f 21 45 25
f 21 25 24
f 22 37 23
f 23 46 43
f 23 36 46
f 25 45 26
f 26 45 47
f 26 47 48
f 26 48 27
f 27 48 28
f 28 48 49
f 28 49 50
f 28 50 33
f 29 30 51
f 29 51 52
f 29 52 31
f 30 34 53
f 30 53 51
f 31 52 32
f 32 52 35
f 33 50 54
f 33 54 55
f 33 55 34
f 34 55 40
f 34 40 53
f 35 52 56
f 35 56 38
f 36 47 57
f 36 57 45
f 36 45 58
f 36 58 59
f 36 59 46
f 38 56 53
f 38 53 39
f 39 53 40
f 40 55 41
f 41 55 42
f 42 55 54
f 42 54 47
f 43 60 61
f 43 61 62
f 43 62 44
f 43 46 60
f 44 62 63
f 44 63 45
f 45 63 58
f 45 57 47
f 46 59 60
f 47 54 48
f 48 54 50
f 48 50 49
f 51 56 52
f 51 53 56
f 58 63 59
f 59 63 64
f 59 64 60
f 60 64 61
f 61 64 63
f 61 63 62

