# https://github.com/mikedh/trimesh
v 0.01227367 -0.03389069 0.01296191
v 0.01253618 -0.03109768 -0.01520330
v 0.01252993 -0.04251617 0.00531806
v 0.01370499 -0.04020691 0.01165877
v 0.03835308 -0.03352559 0.01240989
v 0.03709364 -0.02576723 0.01364666
v 0.03285593 -0.01879383 0.01410215
v 0.02864635 -0.00925561 0.01456066
v 0.01227367 -0.02764749 0.01321831
v 0.01227367 0.03178157 -0.01507058
v 0.01288620 -0.02026335 -0.01540239
v 0.02701815 -0.01760726 -0.01543256
v 0.04153449 -0.02632401 -0.01485641
v 0.01532382 -0.03892906 -0.01415959
v 0.01330810 -0.04231536 -0.00674198
v 0.02106785 -0.04085496 0.00336939
v 0.04395023 -0.03555189 0.00795449
v 0.04420025 -0.02985634 0.01198757
v 0.03984066 -0.02071060 0.01373414
v 0.03013705 0.00967480 0.01538417
v 0.01227367 0.00211724 0.01417756
v 0.01227367 0.02698051 0.01414740
v 0.01244555 0.04884084 0.00289579
v 0.01297058 0.04293535 -0.01474479
v 0.02738692 0.03600759 -0.01481417
v 0.01319872 0.02540145 -0.01517012
v 0.02990579 -0.00630743 -0.01531190
v 0.03285593 -0.01600082 -0.01533000
v 0.03859372 -0.01421183 -0.01510376
v 0.04026567 -0.01921369 -0.01488959
v 0.04334083 -0.02433421 -0.01261815
v 0.04348458 -0.03033097 -0.01214757
v 0.03802494 -0.03456612 -0.01269055
v 0.03290281 -0.03538760 -0.01349294
v 0.02696502 -0.03679323 -0.01363472
v 0.04245328 -0.03622733 -0.00596372
v 0.02806820 0.04193133 -0.00273604
v 0.02724628 0.04505293 0.00284150
v 0.02658688 0.04657722 0.00940242
v 0.03118710 0.02112066 0.01349281
v 0.03309970 0.00483723 0.01475975
v 0.01227992 0.01384606 0.01433141
v 0.01227367 0.00725601 0.01428012
v 0.02324921 0.04972620 0.01178547
v 0.01268307 0.04035228 0.01347773
v 0.01343310 0.03482102 0.01383971
v 0.01269244 0.04724353 0.01058188
v 0.01812083 0.04885909 0.01176133
v 0.02138037 0.05073023 0.00503450
v 0.01727704 0.05001828 -0.00041936
v 0.01357374 0.04898688 -0.00760772
v 0.01568321 0.04742608 -0.01361963
v 0.02218041 0.04801936 -0.01447632
v 0.02804945 0.03579766 -0.01452459
v 0.02906512 0.02906157 -0.01484434
v 0.03159337 0.01642001 -0.01504645
v 0.03022456 0.02142187 -0.01501326
v 0.03917500 -0.01305264 -0.01479306
v 0.03823745 -0.00799601 -0.01462715
v 0.02615560 0.04889560 -0.00992138
v 0.02139600 0.05066633 -0.00752024
v 0.02567121 0.04378421 -0.01352914
f 1 2 3
f 1 3 4
f 1 4 5
f 1 5 6
f 1 6 7
f 1 7 8
f 1 8 9
f 1 9 21
f 1 21 43
f 1 43 22
f 1 22 10
f 1 10 2
f 2 11 12
f 2 12 13
f 2 13 14
f 2 14 15
f 2 15 3
f 2 10 11
f 3 15 16
f 3 16 17
f 3 17 4
f 4 17 5
f 5 17 18
f 5 18 6
f 6 19 20
f 6 20 7
f 6 18 19
f 7 20 8
f 8 20 9
f 9 20 21
f 10 22 23
f 10 23 24
f 10 24 25
f 10 25 26
f 10 26 11
f 11 26 12
f 12 26 27
f 12 27 28
f 12 28 13
f 13 28 29
f 13 29 30
f 13 30 31
f 13 31 32
f 13 32 33
f 13 33 34
f 13 34 14
f 14 35 15
f 14 34 35
f 15 35 36
f 15 36 16
f 16 36 17
f 17 36 32
f 17 32 18
f 18 32 31
f 18 31 37
f 18 37 38
f 18 38 39
f 18 39 40
f 18 40 41
f 18 41 19
f 19 41 20
f 20 42 43
f 20 43 21
f 20 41 40
f 20 40 44
f 20 44 45
f 20 45 46
f 20 46 22
f 20 22 42
f 22 46 45
f 22 45 47
f 22 47 23
f 22 43 42
f 23 48 49
f 23 49 50
f 23 50 51
f 23 51 24
f 23 47 48
f 24 51 52
f 24 52 53
f 24 53 25
f 25 54 55
f 25 55 56
f 25 56 57
f 25 57 26
f 25 53 54
f 26 57 27
f 27 57 56
f 27 56 28
f 28 56 29
f 29 58 30
f 29 56 58
f 30 58 31
f 31 58 59
f 31 59 54
f 31 54 60
f 31 60 37
f 32 36 33
f 33 36 35
f 33 35 34
f 37 60 38
f 38 60 39
f 39 60 44
f 39 44 40
f 44 49 48
f 44 48 45
f 44 60 49
f 45 48 47
f 49 61 50
f 49 60 61
f 50 61 51
f 51 61 52
f 52 61 53
f 53 62 54
f 53 61 60
f 53 60 62
f 54 62 60
f 54 59 58
f 54 58 55
f 55 58 56

