# https://github.com/mikedh/trimesh
v -0.04468344 0.02965083 0.00098722
v -0.04287165 0.02949504 0.01101693
v -0.04168980 0.03603830 0.00435178
v -0.04406464 0.03168586 -0.01067679
v -0.04216366 0.02292256 -0.01352373
v -0.03035079 -0.02958909 -0.01354990
v -0.03804950 0.00264039 0.01082791
v -0.02147581 0.01610666 0.01415176
v -0.01930724 0.04041996 0.01176138
v -0.02485410 -0.04127349 0.01311651
v -0.02244024 -0.03084516 0.01376499
v -0.00651880 0.04410055 0.00919942
v -0.02126955 0.04104312 0.00360442
v -0.04134975 0.03626225 -0.00574190
v -0.03709622 0.03538593 -0.01348592
v -0.04128285 0.02252335 -0.01391631
v -0.03204551 -0.02036815 -0.01435251
v -0.03036752 -0.02797275 -0.01436705
v -0.02383950 -0.04851782 -0.01323002
v -0.02501020 -0.04788491 0.00921396
v 0.01226248 0.03023506 0.01402089
v -0.01745643 -0.00372761 0.01430879
v -0.01747873 0.00841443 0.01427971
v 0.01226248 0.01170554 0.01431751
v 0.00378889 0.04556109 0.01188351
v 0.00473659 0.04666138 0.00910055
v 0.01008276 -0.04161429 0.01041788
v 0.01149874 -0.03394153 0.01297983
v -0.00343040 -0.03607393 0.01333170
v -0.01837626 -0.03853739 0.01345093
v -0.01223848 -0.03242256 0.01372428
v -0.01825362 -0.02187738 0.01407033
v -0.01667597 -0.01178011 0.01426808
v 0.01213984 0.04874510 0.00375564
v 0.01106949 0.04836535 -0.00766700
v -0.02629796 0.03796623 -0.01353245
v -0.00317396 0.04230894 -0.01436123
v -0.02348272 0.03636936 -0.01430307
v -0.03389632 0.03227982 -0.01413441
v -0.03946548 0.01568797 -0.01412568
v -0.01098974 -0.04329879 -0.01530924
v 0.00854413 -0.04084506 -0.01418384
v 0.00903471 -0.04328905 -0.00680042
v -0.02017690 -0.05026074 -0.00532606
v -0.02165420 -0.05072812 0.00254300
v 0.01226248 -0.02611298 0.01327645
v 0.01195030 0.04402265 0.01221793
v 0.01226248 0.00254302 0.01418665
v 0.01209524 -0.04279246 0.00333107
v 0.00378889 -0.03073805 0.01339277
v -0.00485195 -0.02568455 0.01382024
v 0.01182765 0.03102375 -0.01508532
v 0.00698878 0.04357475 -0.01437286
v -0.00848668 0.03543461 -0.01489630
v -0.02443042 0.02064411 -0.01476253
v -0.00318511 -0.04183824 -0.01517838
v -0.01525441 0.02256230 -0.01499227
v -0.00885461 0.01388663 -0.01517838
v -0.00210918 0.02084858 -0.01521618
v 0.01171616 -0.02054341 -0.01538485
v 0.00994897 -0.03220834 -0.01521909
v -0.01334228 -0.04889756 0.00081855
v 0.01181650 0.02210466 -0.01520455
v -0.00421643 0.02947556 -0.01507951
f 1 2 3
f 1 3 4
f 1 4 5
f 1 5 6
f 1 6 7
f 1 7 2
f 2 8 9
f 2 9 3
f 2 7 10
f 2 10 11
f 2 11 8
f 3 9 12
f 3 12 13
f 3 13 14
f 3 14 4
f 4 14 15
f 4 15 5
f 5 15 16
f 5 16 17
f 5 17 18
f 5 18 6
f 6 18 19
f 6 19 20
f 6 20 7
f 7 20 10
f 8 21 9
f 8 11 22
f 8 22 23
f 8 23 24
f 8 24 21
f 9 25 26
f 9 26 12
f 9 21 25
f 10 20 27
f 10 27 28
f 10 28 29
f 10 29 30
f 10 30 11
f 11 30 31
f 11 31 32
f 11 32 33
f 11 33 22
f 12 26 34
f 12 34 13
f 13 34 35
f 13 35 14
f 14 35 36
f 14 36 15
f 15 36 37
f 15 37 38
f 15 38 39
f 15 39 16
f 16 40 17
f 16 39 40
f 17 41 18
f 17 40 41
f 18 41 19
f 19 41 42
f 19 42 43
f 19 43 44
f 19 44 45
f 19 45 20
f 20 45 27
f 21 46 34
f 21 34 47
f 21 47 25
f 21 24 48
f 21 48 46
f 22 33 24
f 22 24 23
f 24 33 48
f 25 47 34
f 25 34 26
f 27 45 49
f 27 49 28
f 28 49 46
f 28 46 50
f 28 50 29
f 29 50 31
f 29 31 30
f 31 50 51
f 31 51 32
f 32 51 33
f 33 51 48
f 34 52 35
f 34 46 49
f 34 49 52
f 35 53 37
f 35 37 36
f 35 52 53
f 37 53 54
f 37 54 38
f 38 54 39
f 39 55 40
f 39 54 55
f 40 55 41
f 41 56 42
f 41 55 57
f 41 57 58
f 41 58 59
f 41 59 60
f 41 60 61
f 41 61 56
f 42 49 43
f 42 56 61
f 42 61 49
f 43 49 62
f 43 62 44
f 44 62 45
f 45 62 49
f 46 48 50
f 48 51 50
f 49 61 60
f 49 60 63
f 49 63 52
f 52 63 59
f 52 59 64
f 52 64 54
f 52 54 53
f 54 64 57
f 54 57 55
f 57 64 59
f 57 59 58
f 59 63 60

