# https://github.com/mikedh/trimesh
v -0.09856398 0.08118717 -0.02980995
v -0.10056421 0.08098123 -0.02881677
v -0.09694977 0.08639996 -0.02980877
v -0.09764283 0.08302674 -0.02980995
v -0.08868567 0.08302674 -0.02980995
v -0.08869225 0.08098123 -0.02965071
v -0.10609993 0.08098123 -0.02533004
v -0.09540354 0.08835340 -0.02980877
v -0.10543538 0.08301288 -0.02462349
v -0.09382880 0.08980189 -0.02980877
v -0.09293396 0.09059198 -0.02980877
v -0.09206763 0.09109594 -0.02980877
v -0.08730613 0.08859498 -0.02980877
v -0.08405137 0.09105435 -0.02757471
v -0.08743114 0.08098123 -0.02823997
v -0.10644427 0.08098123 -0.02458457
v -0.09896535 0.09002565 -0.02485232
v -0.10645742 0.08167428 -0.02355247
v -0.10562619 0.08327724 -0.02355129
v -0.10469407 0.08439900 -0.02355129
v -0.10048307 0.08918606 -0.02355129
v -0.09936452 0.09044149 -0.02355129
v -0.09731823 0.09109594 -0.02505403
v -0.08405137 0.09109594 -0.02244841
v -0.08706926 0.09103059 -0.02976748
v -0.08405137 0.08987318 -0.02579124
v -0.08559541 0.08098123 -0.02449492
v -0.08604940 0.08098123 -0.02581011
v -0.08644857 0.08098123 -0.02674549
v -0.08695741 0.08098123 -0.02756292
v -0.10640040 0.08098123 -0.02177371
v -0.10645742 0.08136538 -0.02241774
v -0.09870873 0.09109594 -0.02355129
v -0.10568541 0.08336238 -0.02208983
v -0.09862978 0.09109594 -0.02113676
v -0.08434307 0.09109594 -0.02201198
v -0.08546162 0.08098123 -0.02269140
v -0.08405137 0.09036723 -0.02328589
v -0.08405137 0.08996724 -0.02496084
v -0.10581700 0.08098123 -0.02127477
v -0.10318293 0.08524552 -0.02018133
v -0.10355139 0.08563166 -0.02131015
v -0.09739060 0.09109594 -0.01946652
v -0.08557567 0.09109594 -0.02083362
v -0.08583008 0.08098123 -0.02214291
v -0.10518316 0.08098123 -0.02087726
v -0.10331233 0.08411188 -0.02012353
v -0.09486839 0.09109594 -0.01806759
v -0.08687625 0.09096624 -0.01984870
v -0.08633452 0.08098123 -0.02172299
v -0.09041613 0.09109594 -0.01806051
v -0.10248548 0.08098123 -0.02051160
v -0.10334962 0.08261685 -0.02010820
v -0.09364237 0.09109594 -0.01780101
v -0.08861110 0.09096624 -0.01886850
v -0.08860233 0.08098123 -0.02071212
v -0.09132632 0.09109594 -0.01785291
v -0.10205122 0.08130993 -0.02038893
v -0.10205122 0.08243071 -0.02000794
v -0.09308530 0.08982962 -0.01796850
v -0.09300195 0.09105930 -0.01776091
v -0.09230231 0.09109594 -0.01777978
v -0.09308530 0.08859498 -0.01833298
v -0.09532239 0.08635343 -0.01895814
f 1 2 3
f 1 3 4
f 1 4 5
f 1 5 6
f 1 6 2
f 2 7 3
f 2 6 15
f 2 15 30
f 2 30 29
f 2 29 28
f 2 28 27
f 2 27 37
f 2 37 45
f 2 45 50
f 2 50 56
f 2 56 52
f 2 52 46
f 2 46 40
f 2 40 31
f 2 31 16
f 2 16 7
f 3 8 4
f 3 7 9
f 3 9 8
f 4 8 10
f 4 10 11
f 4 11 12
f 4 12 5
f 5 12 13
f 5 13 6
f 6 13 14
f 6 14 15
f 7 16 9
f 8 9 17
f 8 17 10
f 9 16 18
f 9 18 19
f 9 19 20
f 9 20 21
f 9 21 22
f 9 22 17
f 10 17 11
f 11 17 23
f 11 23 12
f 12 24 14
f 12 14 25
f 12 25 13
f 12 23 33
f 12 33 35
f 12 35 43
f 12 43 48
f 12 48 54
f 12 54 62
f 12 62 57
f 12 57 51
f 12 51 44
f 12 44 36
f 12 36 24
f 13 25 14
f 14 24 38
f 14 38 39
f 14 39 26
f 14 26 27
f 14 27 28
f 14 28 29
f 14 29 30
f 14 30 15
f 16 31 32
f 16 32 18
f 17 22 33
f 17 33 23
f 18 32 34
f 18 34 19
f 19 34 20
f 20 34 21
f 21 34 22
f 22 34 35
f 22 35 33
f 24 36 37
f 24 37 38
f 26 39 37
f 26 37 27
f 31 40 41
f 31 41 34
f 31 34 32
f 34 41 42
f 34 42 35
f 35 42 41
f 35 41 43
f 36 44 45
f 36 45 37
f 37 39 38
f 40 46 41
f 41 46 47
f 41 47 48
f 41 48 43
f 44 49 50
f 44 50 45
f 44 51 49
f 46 52 53
f 46 53 47
f 47 53 48
f 48 53 54
f 49 55 50
f 49 51 55
f 50 55 56
f 51 57 56
f 51 56 55
f 52 58 59
f 52 59 53
f 52 56 58
f 53 59 54
f 54 59 60
f 54 60 61
f 54 61 62
f 56 57 60
f 56 60 63
f 56 63 64
f 56 64 59
f 56 59 58
f 57 62 60
f 59 64 60
f 60 64 63
f 60 62 61

