# https://github.com/mikedh/trimesh
v -0.01432555 -0.12144412 -0.02580334
v -0.01432555 -0.12153517 -0.02807078
v -0.01432555 -0.12216719 -0.02371692
v 0.00979481 -0.12227030 -0.02353286
v 0.00979481 -0.12184716 -0.02548881
v 0.00979481 -0.12178959 -0.02579221
v -0.01432555 -0.12237474 -0.03004595
v 0.00979481 -0.12256220 -0.02828620
v -0.01432555 -0.12316610 -0.02226058
v 0.00979481 -0.12312459 -0.02206438
v 0.00979481 -0.12237340 -0.02332452
v -0.01432555 -0.12255417 -0.03017035
v 0.00979481 -0.12423464 -0.02992257
v -0.01432555 -0.12447700 -0.02153645
v 0.00979481 -0.12459349 -0.02097414
v -0.01432555 -0.12759424 -0.03019158
v 0.00979481 -0.12672790 -0.03039284
v -0.01432555 -0.12672790 -0.02091245
v 0.00979481 -0.12593787 -0.02025102
v -0.01432555 -0.12793971 -0.03019158
v 0.00979481 -0.12833071 -0.02965658
v -0.01432555 -0.12896674 -0.02111573
v 0.00979481 -0.12831731 -0.02007910
v 0.00979481 -0.12700508 -0.02006089
v -0.01233284 -0.13310431 -0.02733048
v -0.01432555 -0.13302932 -0.02722934
v 0.00112036 -0.13294363 -0.02727384
v 0.00979481 -0.13283249 -0.02719091
v 0.00784695 -0.13286061 -0.02721822
v -0.01432555 -0.13120960 -0.02171748
v 0.00979481 -0.12935237 -0.02041992
v -0.00336325 -0.13416481 -0.02664579
v -0.00566054 -0.13418222 -0.02665085
v -0.00784686 -0.13425319 -0.02659320
v -0.01432555 -0.13413402 -0.02561927
v -0.01233284 -0.13422507 -0.02605314
v 0.00979481 -0.13404029 -0.02574872
v 0.00784695 -0.13398271 -0.02608045
v -0.00112263 -0.13411795 -0.02656893
v -0.01432555 -0.13260753 -0.02224237
v -0.00336325 -0.13322616 -0.02209977
v 0.00979481 -0.12966035 -0.02055038
v -0.00112263 -0.13509276 -0.02544633
v -0.00336325 -0.13512088 -0.02552623
v -0.00566054 -0.13505526 -0.02553027
v -0.01432555 -0.13393986 -0.02386559
v -0.01363141 -0.13461205 -0.02484761
v -0.01363141 -0.13461205 -0.02458972
v -0.00784686 -0.13490798 -0.02547060
v 0.00979481 -0.13433620 -0.02521473
v 0.00943121 -0.13462811 -0.02487492
v -0.00560624 -0.13421570 -0.02264792
v -0.00336325 -0.13434692 -0.02257713
v 0.00979481 -0.13120960 -0.02135744
v -0.00112263 -0.13509276 -0.02379480
v -0.00336325 -0.13512088 -0.02369872
v -0.00560624 -0.13505794 -0.02377052
v 0.00979481 -0.13424247 -0.02413562
v 0.00943121 -0.13462811 -0.02456848
v 0.00979481 -0.13399476 -0.02382615
v 0.00979481 -0.13385282 -0.02365321
v 0.00979481 -0.13275215 -0.02238093
v 0.00979481 -0.13260485 -0.02224237
v 0.00979481 -0.13139840 -0.02146869
f 1 2 7
f 1 7 12
f 1 12 16
f 1 16 20
f 1 20 26
f 1 26 35
f 1 35 46
f 1 46 40
f 1 40 30
f 1 30 22
f 1 22 18
f 1 18 14
f 1 14 9
f 1 9 3
f 1 3 4
f 1 4 5
f 1 5 6
f 1 6 2
f 2 6 8
f 2 8 7
f 3 9 10
f 3 10 11
f 3 11 4
f 4 11 10
f 4 10 15
f 4 15 19
f 4 19 24
f 4 24 23
f 4 23 31
f 4 31 42
f 4 42 54
f 4 54 64
f 4 64 63
f 4 63 62
f 4 62 61
f 4 61 60
f 4 60 58
f 4 58 50
f 4 50 37
f 4 37 28
f 4 28 21
f 4 21 17
f 4 17 13
f 4 13 8
f 4 8 6
f 4 6 5
f 7 8 13
f 7 13 12
f 9 14 15
f 9 15 10
f 12 13 17
f 12 17 16
f 14 18 19
f 14 19 15
f 16 17 20
f 17 21 20
f 18 22 23
f 18 23 24
f 18 24 19
f 20 25 26
f 20 21 27
f 20 27 25
f 21 28 29
f 21 29 27
f 22 30 23
f 23 30 31
f 25 32 33
f 25 33 34
f 25 34 26
f 25 27 32
f 26 34 36
f 26 36 35
f 27 29 32
f 28 37 38
f 28 38 39
f 28 39 32
f 28 32 29
f 30 40 41
f 30 41 31
f 31 41 42
f 32 43 44
f 32 44 34
f 32 34 33
f 32 39 43
f 34 44 45
f 34 45 36
f 35 36 47
f 35 47 48
f 35 48 46
f 36 45 49
f 36 49 47
f 37 50 51
f 37 51 38
f 38 51 43
f 38 43 39
f 40 46 52
f 40 52 53
f 40 53 41
f 41 53 42
f 42 53 54
f 43 51 59
f 43 59 55
f 43 55 56
f 43 56 44
f 44 56 57
f 44 57 45
f 45 57 48
f 45 48 47
f 45 47 49
f 46 48 52
f 48 57 52
f 50 58 59
f 50 59 51
f 52 57 53
f 53 57 56
f 53 56 55
f 53 55 59
f 53 59 60
f 53 60 61
f 53 61 62
f 53 62 63
f 53 63 64
f 53 64 54
f 58 60 59

