# https://github.com/mikedh/trimesh
v -0.12922519 -0.01479284 -0.02841458
v -0.12784602 -0.01906553 -0.03494449
v -0.12919978 -0.01702680 -0.02841458
v -0.12918623 -0.01249880 -0.02841458
v -0.12797817 -0.01082801 -0.03413917
v -0.12773250 -0.01234111 -0.03499196
v -0.12663628 -0.01682406 -0.03647037
v -0.12655833 -0.01906553 -0.03654327
v -0.12630588 -0.02130701 -0.03640340
v -0.12598227 -0.02355599 -0.03617113
v -0.12773419 -0.02113054 -0.03438924
v -0.12781552 -0.02230197 -0.03332452
v -0.12905746 -0.01919694 -0.02841458
v -0.11724465 -0.01197316 -0.02841458
v -0.12133135 -0.00777555 -0.02844341
v -0.12865591 -0.00777555 -0.02910038
v -0.12809170 -0.00946886 -0.03253700
v -0.12575692 -0.01106455 -0.03600074
v -0.12447941 -0.01906553 -0.03707479
v -0.12447941 -0.02130701 -0.03692220
v -0.12092641 -0.04268551 -0.03593970
v -0.12575015 -0.02983363 -0.03417647
v -0.12871690 -0.02129575 -0.02841458
v -0.12581453 -0.03089242 -0.03315498
v -0.12579928 -0.03196998 -0.03209958
v -0.12634824 -0.03218774 -0.02890371
v -0.12679045 -0.03027291 -0.02890371
v -0.11537750 -0.01682406 -0.02841458
v -0.11619417 -0.01382791 -0.02861125
v -0.11800879 -0.01266400 -0.03004812
v -0.11851031 -0.01084303 -0.02890880
v -0.12190234 -0.00804588 -0.02978533
v -0.12090777 -0.00946886 -0.03017358
v -0.11942694 -0.01191684 -0.03089837
v -0.11868143 -0.01406445 -0.03157993
v -0.12050621 -0.01682406 -0.03419003
v -0.12288166 -0.01721453 -0.03619317
v -0.12192436 -0.01906553 -0.03605923
v -0.11568587 -0.04613220 -0.03533698
v -0.11774447 -0.04613220 -0.03567352
v -0.11994540 -0.04613220 -0.03454353
v -0.12140929 -0.04355657 -0.03457659
v -0.12321374 -0.03985081 -0.03315159
v -0.12819505 -0.02379629 -0.02841458
v -0.12423033 -0.03700485 -0.03252428
v -0.12317647 -0.04096216 -0.03205634
v -0.12421170 -0.03938900 -0.02890371
v -0.11545544 -0.01906553 -0.02841458
v -0.11191770 -0.04613220 -0.02890371
v -0.11210408 -0.04613220 -0.03051012
v -0.11270386 -0.04613220 -0.03245731
v -0.11659233 -0.01671893 -0.03039907
v -0.11698372 -0.01458258 -0.03011509
v -0.11814433 -0.01682406 -0.03212077
v -0.11938288 -0.01682406 -0.03324229
v -0.12015210 -0.01906553 -0.03457828
v -0.11376281 -0.04613220 -0.03414680
v -0.12107381 -0.04613220 -0.03270569
v -0.12116192 -0.04498706 -0.03370429
v -0.12207008 -0.04373679 -0.03252428
v -0.12151773 -0.04590693 -0.02890371
v -0.11645509 -0.02357852 -0.02841458
v -0.11589258 -0.02130701 -0.02841458
v -0.11903046 -0.01906553 -0.03349745
f 1 2 3
f 1 3 13
f 1 13 23
f 1 23 44
f 1 44 62
f 1 62 63
f 1 63 48
f 1 48 28
f 1 28 14
f 1 14 4
f 1 4 5
f 1 5 2
f 2 5 6
f 2 6 7
f 2 7 8
f 2 8 9
f 2 9 10
f 2 10 11
f 2 11 12
f 2 12 13
f 2 13 3
f 4 14 15
f 4 15 16
f 4 16 5
f 5 16 17
f 5 17 18
f 5 18 6
f 6 18 7
f 7 19 8
f 7 18 19
f 8 19 20
f 8 20 21
f 8 21 9
f 9 21 10
f 10 22 11
f 10 21 22
f 11 22 12
f 12 23 13
f 12 22 24
f 12 24 25
f 12 25 26
f 12 26 27
f 12 27 23
f 14 28 29
f 14 29 30
f 14 30 31
f 14 31 15
f 15 31 32
f 15 32 16
f 16 32 18
f 16 18 17
f 18 32 33
f 18 33 34
f 18 34 35
f 18 35 36
f 18 36 37
f 18 37 19
f 19 38 39
f 19 39 40
f 19 40 21
f 19 21 20
f 19 37 38
f 21 40 41
f 21 41 42
f 21 42 22
f 22 42 43
f 22 43 24
f 23 27 44
f 24 43 45
f 24 45 25
f 25 45 46
f 25 46 26
f 26 44 27
f 26 46 47
f 26 47 44
f 28 48 49
f 28 49 50
f 28 50 51
f 28 51 52
f 28 52 29
f 29 52 53
f 29 53 30
f 30 53 35
f 30 35 34
f 30 34 31
f 31 33 32
f 31 34 33
f 35 53 54
f 35 54 55
f 35 55 36
f 36 55 56
f 36 56 38
f 36 38 37
f 38 56 57
f 38 57 39
f 39 57 51
f 39 51 50
f 39 50 49
f 39 49 58
f 39 58 41
f 39 41 40
f 41 58 59
f 41 59 42
f 42 59 58
f 42 58 60
f 42 60 43
f 43 60 46
f 43 46 45
f 44 47 61
f 44 61 49
f 44 49 62
f 46 60 47
f 47 60 58
f 47 58 61
f 48 63 49
f 49 61 58
f 49 63 62
f 51 57 52
f 52 54 53
f 52 57 54
f 54 57 64
f 54 64 56
f 54 56 55
f 56 64 57

