# https://github.com/mikedh/trimesh
v 0.07978846 -0.09972615 -0.01988402
v 0.07978846 -0.10212231 -0.01988836
v 0.08626863 -0.09499976 -0.02016145
v 0.08626863 -0.09415839 -0.02017337
v 0.08535948 -0.09432899 -0.02019288
v 0.07978846 -0.09827993 -0.02010726
v 0.07978846 -0.10363445 -0.02012677
v 0.08626863 -0.09620172 -0.02021455
v 0.08626863 -0.09126788 -0.02134378
v 0.08623691 -0.09318131 -0.02043888
v 0.07978846 -0.09717878 -0.02053858
v 0.07978846 -0.10454948 -0.02043888
v 0.08626863 -0.09738816 -0.02065887
v 0.08532078 -0.10325254 -0.02238413
v 0.08626863 -0.09074445 -0.02159628
v 0.07978846 -0.09518005 -0.02174908
v 0.07978846 -0.10618182 -0.02137629
v 0.08626863 -0.10150388 -0.02236788
v 0.07978846 -0.10633303 -0.02146623
v 0.08137075 -0.10587164 -0.02206661
v 0.08286613 -0.10530749 -0.02256620
v 0.08622550 -0.10355303 -0.02379512
v 0.08626863 -0.10246545 -0.02283929
v 0.08626863 -0.08960647 -0.02247733
v 0.08448396 -0.09141715 -0.02198316
v 0.08048825 -0.09403431 -0.02225734
v 0.07978846 -0.09426308 -0.02260629
v 0.08298985 -0.09196385 -0.02243182
v 0.07978846 -0.10759702 -0.02266265
v 0.08418196 -0.10485773 -0.02340932
v 0.08626863 -0.10365383 -0.02524512
v 0.08348217 -0.10570491 -0.02406171
v 0.08626863 -0.08892988 -0.02353070
v 0.07978846 -0.09367760 -0.02365641
v 0.07978846 -0.10805066 -0.02354912
v 0.08038865 -0.10736826 -0.02302352
v 0.08559930 -0.10120921 -0.02952685
v 0.08626863 -0.10002858 -0.03011422
v 0.08082514 -0.10771528 -0.02451796
v 0.08082514 -0.10771528 -0.02487558
v 0.07978846 -0.10844227 -0.02568511
v 0.07978846 -0.10711042 -0.02815271
v 0.07978846 -0.10813596 -0.02373227
v 0.08626863 -0.08883489 -0.02371818
v 0.08506446 -0.08958902 -0.02434890
v 0.07978846 -0.09327825 -0.02579240
v 0.08316368 -0.10329906 -0.02935238
v 0.07978846 -0.10450102 -0.03070159
v 0.08626863 -0.09988319 -0.03019767
v 0.07978846 -0.10660444 -0.02866314
v 0.08626863 -0.08863715 -0.02589210
v 0.07978846 -0.09377842 -0.02748406
v 0.07978846 -0.10485579 -0.03036456
v 0.07978846 -0.10430909 -0.03071677
v 0.08626863 -0.09758396 -0.03095518
v 0.08626863 -0.09075802 -0.02806168
v 0.08527003 -0.08976350 -0.02676665
v 0.07978846 -0.09457907 -0.02861654
v 0.07978846 -0.10188774 -0.03089124
v 0.07978846 -0.09757039 -0.03036348
v 0.08626863 -0.09546503 -0.03030712
v 0.08626863 -0.09087434 -0.02815055
v 0.07978846 -0.09570154 -0.02965257
v 0.08626863 -0.09128920 -0.02835537
f 1 2 3
f 1 3 4
f 1 4 5
f 1 5 6
f 1 6 11
f 1 11 16
f 1 16 27
f 1 27 34
f 1 34 46
f 1 46 52
f 1 52 58
f 1 58 63
f 1 63 60
f 1 60 59
f 1 59 54
f 1 54 48
f 1 48 53
f 1 53 50
f 1 50 42
f 1 42 41
f 1 41 43
f 1 43 35
f 1 35 29
f 1 29 19
f 1 19 17
f 1 17 12
f 1 12 7
f 1 7 2
f 2 7 8
f 2 8 3
f 3 8 13
f 3 13 18
f 3 18 23
f 3 23 31
f 3 31 38
f 3 38 49
f 3 49 55
f 3 55 61
f 3 61 64
f 3 64 62
f 3 62 56
f 3 56 51
f 3 51 44
f 3 44 33
f 3 33 24
f 3 24 15
f 3 15 9
f 3 9 4
f 4 9 10
f 4 10 5
f 5 11 6
f 5 10 11
f 7 12 8
f 8 12 14
f 8 14 13
f 9 15 11
f 9 11 10
f 11 15 16
f 12 17 14
f 13 14 18
f 14 17 19
f 14 19 20
f 14 20 21
f 14 21 22
f 14 22 23
f 14 23 18
f 15 24 25
f 15 25 16
f 16 26 27
f 16 25 28
f 16 28 26
f 19 29 20
f 20 29 21
f 21 29 30
f 21 30 22
f 22 31 23
f 22 30 32
f 22 32 31
f 24 33 28
f 24 28 25
f 26 28 27
f 27 28 34
f 28 33 34
f 29 35 36
f 29 36 30
f 30 36 32
f 31 37 38
f 31 32 39
f 31 39 40
f 31 40 41
f 31 41 42
f 31 42 37
f 32 36 35
f 32 35 43
f 32 43 39
f 33 44 34
f 34 44 45
f 34 45 46
f 37 42 47
f 37 47 48
f 37 48 38
f 38 48 49
f 39 43 41
f 39 41 40
f 42 50 47
f 44 51 45
f 45 51 46
f 46 51 52
f 47 50 53
f 47 53 48
f 48 54 55
f 48 55 49
f 51 56 57
f 51 57 52
f 52 57 58
f 54 59 55
f 55 60 61
f 55 59 60
f 56 62 63
f 56 63 57
f 57 63 58
f 60 63 61
f 61 63 64
f 62 64 63

