# https://github.com/mikedh/trimesh
v 0.05447028 -0.10672162 -0.02767569
v 0.05447028 -0.10680342 -0.02996881
v 0.04193031 -0.11141899 -0.03085332
v 0.04193031 -0.11149261 -0.02803785
v 0.05447028 -0.10703246 -0.02555494
v 0.07305977 -0.11109588 -0.02117067
v 0.07539473 -0.11109383 -0.02822764
v 0.05447028 -0.10736784 -0.03253355
v 0.04397465 -0.11109383 -0.03252137
v 0.04218753 -0.12365014 -0.03142791
v 0.04193031 -0.12641703 -0.02266286
v 0.04193031 -0.11204271 -0.02579522
v 0.05447028 -0.10793840 -0.02356304
v 0.07029724 -0.11109383 -0.02019562
v 0.07469324 -0.11139445 -0.02303895
v 0.07605614 -0.11143126 -0.02579522
v 0.05605031 -0.12110207 -0.02244173
v 0.07229815 -0.11252943 -0.02200818
v 0.07435920 -0.11231266 -0.02726477
v 0.07273241 -0.11237605 -0.02890670
v 0.07291613 -0.11109588 -0.03002105
v 0.05447028 -0.10814085 -0.03443317
v 0.04591878 -0.11109383 -0.03386729
v 0.04213742 -0.12761131 -0.02537908
v 0.04732845 -0.11109383 -0.03482842
v 0.05264307 -0.11109383 -0.03703971
v 0.05447028 -0.11100386 -0.03750286
v 0.04596555 -0.12332090 -0.03137219
v 0.04374416 -0.12413072 -0.03085332
v 0.04598559 -0.12619004 -0.02380506
v 0.04566825 -0.12481375 -0.02228502
v 0.04355710 -0.12521661 -0.02207956
v 0.04193031 -0.12451723 -0.02150846
v 0.04193031 -0.11309998 -0.02369015
v 0.06383017 -0.11109383 -0.01971506
v 0.06720400 -0.11109383 -0.01987698
v 0.05447028 -0.10941693 -0.02177138
v 0.04417842 -0.12138428 -0.02026875
v 0.05271656 -0.11999572 -0.02115152
v 0.07361095 -0.11254987 -0.02393565
v 0.06734764 -0.11667056 -0.02461123
v 0.06731423 -0.11665215 -0.02636285
v 0.06115448 -0.11913478 -0.02298672
v 0.05271656 -0.12173397 -0.02208131
v 0.04768587 -0.12583420 -0.02423165
v 0.05335458 -0.12357448 -0.02438836
v 0.06994649 -0.11440060 -0.02304243
v 0.06607494 -0.11693845 -0.02782020
v 0.06526989 -0.11676258 -0.02927757
v 0.07029724 -0.11109383 -0.03133040
v 0.05388237 -0.10951305 -0.03624921
v 0.04936611 -0.12336589 -0.02917484
v 0.04768587 -0.12583420 -0.02512661
v 0.05231905 -0.12139042 -0.03084114
v 0.06389697 -0.11460306 -0.03142791
v 0.04193031 -0.12188122 -0.02025656
v 0.04193031 -0.11467054 -0.02188107
v 0.06161546 -0.11109383 -0.01976033
v 0.04193031 -0.11979941 -0.01992574
v 0.05527867 -0.11132083 -0.02027223
v 0.05776395 -0.11116336 -0.01999538
v 0.06301844 -0.11899981 -0.02469829
v 0.05859571 -0.12126158 -0.02468262
v 0.04193031 -0.11751514 -0.02022348
f 1 2 3
f 1 3 4
f 1 4 5
f 1 5 6
f 1 6 7
f 1 7 2
f 2 8 3
f 2 7 8
f 3 9 10
f 3 10 11
f 3 11 33
f 3 33 56
f 3 56 59
f 3 59 64
f 3 64 57
f 3 57 34
f 3 34 12
f 3 12 4
f 3 8 9
f 4 12 5
f 5 12 13
f 5 13 14
f 5 14 6
f 6 15 16
f 6 16 7
f 6 14 17
f 6 17 18
f 6 18 15
f 7 16 19
f 7 19 20
f 7 20 21
f 7 21 8
f 8 22 9
f 8 21 22
f 9 23 10
f 9 22 23
f 10 24 11
f 10 23 25
f 10 25 26
f 10 26 27
f 10 27 28
f 10 28 29
f 10 29 24
f 11 24 30
f 11 30 31
f 11 31 32
f 11 32 33
f 12 34 13
f 13 35 36
f 13 36 14
f 13 34 37
f 13 37 35
f 14 36 38
f 14 38 39
f 14 39 17
f 15 18 40
f 15 40 16
f 16 40 41
f 16 41 42
f 16 42 19
f 17 43 18
f 17 39 44
f 17 44 31
f 17 31 30
f 17 30 45
f 17 45 46
f 17 46 43
f 18 47 41
f 18 41 40
f 18 43 47
f 19 42 48
f 19 48 49
f 19 49 20
f 20 49 21
f 21 49 50
f 21 50 22
f 22 50 51
f 22 51 25
f 22 25 23
f 24 45 30
f 24 29 28
f 24 28 52
f 24 52 53
f 24 53 45
f 25 51 26
f 26 51 27
f 27 54 28
f 27 51 50
f 27 50 55
f 27 55 54
f 28 54 52
f 31 44 39
f 31 39 32
f 32 38 33
f 32 39 38
f 33 38 56
f 34 57 37
f 35 37 58
f 35 58 59
f 35 59 36
f 36 59 38
f 37 57 60
f 37 60 61
f 37 61 58
f 38 59 56
f 41 47 43
f 41 43 62
f 41 62 42
f 42 62 63
f 42 63 48
f 43 46 63
f 43 63 62
f 45 53 46
f 46 53 63
f 48 63 53
f 48 53 49
f 49 55 50
f 49 53 52
f 49 52 54
f 49 54 55
f 57 64 60
f 58 61 59
f 59 61 64
f 60 64 61

