# https://github.com/mikedh/trimesh
v -0.13456768 -0.00780108 -0.02332348
v -0.13441222 -0.01144613 -0.02339779
v -0.13345064 -0.01009847 -0.02106954
v -0.13341067 -0.00780108 -0.02098447
v -0.12695054 -0.00777856 -0.02058550
v -0.12885149 -0.00777856 -0.02841220
v -0.13257123 -0.00781985 -0.02615923
v -0.13316861 -0.01234331 -0.02545323
v -0.13277776 -0.02018897 -0.02511783
v -0.13365051 -0.01794789 -0.02355327
v -0.13286659 -0.02018897 -0.02187040
v -0.13008623 -0.02803463 -0.02080259
v -0.12807423 -0.03252055 -0.02003889
v -0.12755680 -0.03027946 -0.01957148
v -0.12987969 -0.00778982 -0.02032540
v -0.12448107 -0.03363921 -0.01891436
v -0.12481196 -0.00777856 -0.02158291
v -0.12448107 -0.03027946 -0.01898770
v -0.12224257 -0.03252055 -0.01907571
v -0.11680398 -0.01682547 -0.02120839
v -0.11705049 -0.01426155 -0.02176088
v -0.12121437 -0.00777856 -0.02822445
v -0.11662188 -0.02379272 -0.02890210
v -0.12758345 -0.02479501 -0.02890210
v -0.12918682 -0.01249722 -0.02841220
v -0.13252237 -0.01009847 -0.02613772
v -0.12921125 -0.01590952 -0.02841220
v -0.12904914 -0.01932932 -0.02841220
v -0.13313308 -0.02130763 -0.02355327
v -0.12722369 -0.02803463 -0.02890210
v -0.12656858 -0.03123295 -0.02890210
v -0.12831629 -0.03924379 -0.02520681
v -0.13045709 -0.03294098 -0.02444507
v -0.13248462 -0.02447968 -0.02356892
v -0.13006846 -0.03338770 -0.02179608
v -0.13012397 -0.03027946 -0.02113310
v -0.12729920 -0.03613555 -0.02019828
v -0.12672180 -0.03252055 -0.01941013
v -0.12224257 -0.03588029 -0.01897988
v -0.12448107 -0.03700271 -0.01915980
v -0.12224257 -0.03924379 -0.01919794
v -0.12239358 -0.00777856 -0.02336748
v -0.11856725 -0.01098064 -0.02297536
v -0.11999962 -0.03700271 -0.01945218
v -0.11457215 -0.01724215 -0.02444702
v -0.11677956 -0.04612845 -0.02008289
v -0.11323525 -0.04612845 -0.02276415
v -0.11509845 -0.01458439 -0.02467193
v -0.11667518 -0.01225321 -0.02355327
v -0.12080353 -0.00777856 -0.02579156
v -0.11711266 -0.01113455 -0.02579156
v -0.11829188 -0.01064279 -0.02822445
v -0.11624880 -0.01351077 -0.02824792
v -0.11527833 -0.01682547 -0.02822445
v -0.11188282 -0.04612845 -0.02846891
v -0.12155192 -0.04588820 -0.02890210
v -0.12421014 -0.03939019 -0.02890210
v -0.12631097 -0.04608715 -0.02441084
v -0.12805203 -0.04199164 -0.02326970
v -0.12528943 -0.04604961 -0.02148904
v -0.12549596 -0.03922502 -0.01999097
v -0.11999962 -0.04373345 -0.01958517
v -0.12119216 -0.04598580 -0.02003693
v -0.11197610 -0.04612845 -0.02579156
f 1 2 3
f 1 3 4
f 1 4 5
f 1 5 6
f 1 6 7
f 1 7 8
f 1 8 2
f 2 8 9
f 2 9 10
f 2 10 11
f 2 11 3
f 3 11 12
f 3 12 13
f 3 13 14
f 3 14 4
f 4 15 5
f 4 14 16
f 4 16 15
f 5 17 42
f 5 42 50
f 5 50 22
f 5 22 6
f 5 15 18
f 5 18 19
f 5 19 20
f 5 20 21
f 5 21 17
f 6 22 23
f 6 23 24
f 6 24 25
f 6 25 7
f 7 26 8
f 7 25 27
f 7 27 26
f 8 28 9
f 8 26 28
f 9 29 10
f 9 28 30
f 9 30 31
f 9 31 32
f 9 32 33
f 9 33 29
f 10 29 11
f 11 29 34
f 11 34 35
f 11 35 36
f 11 36 12
f 12 36 13
f 13 37 38
f 13 38 14
f 13 36 37
f 14 38 16
f 15 16 18
f 16 39 18
f 16 38 40
f 16 40 41
f 16 41 39
f 17 21 43
f 17 43 42
f 18 39 19
f 19 39 44
f 19 44 20
f 20 45 21
f 20 44 46
f 20 46 47
f 20 47 45
f 21 45 48
f 21 48 49
f 21 49 43
f 22 50 51
f 22 51 52
f 22 52 23
f 23 52 53
f 23 53 54
f 23 54 55
f 23 55 56
f 23 56 57
f 23 57 31
f 23 31 30
f 23 30 24
f 24 30 28
f 24 28 27
f 24 27 25
f 26 27 28
f 29 33 34
f 31 57 32
f 32 57 56
f 32 56 58
f 32 58 59
f 32 59 33
f 33 59 35
f 33 35 34
f 35 59 60
f 35 60 37
f 35 37 36
f 37 60 61
f 37 61 40
f 37 40 38
f 39 41 62
f 39 62 46
f 39 46 44
f 40 61 63
f 40 63 41
f 41 63 62
f 42 43 50
f 43 49 50
f 45 55 54
f 45 54 48
f 45 47 64
f 45 64 55
f 46 62 63
f 46 63 60
f 46 60 58
f 46 58 55
f 46 55 64
f 46 64 47
f 48 54 53
f 48 53 51
f 48 51 49
f 49 51 50
f 51 53 52
f 55 58 56
f 58 60 59
f 60 63 61

