# https://github.com/mikedh/trimesh
v 0.03693107 -0.11270907 -0.02832660
v 0.03689654 -0.12869806 -0.02300916
v 0.03693107 -0.12409771 -0.03142972
v 0.03667612 -0.11274263 -0.03085384
v 0.03371229 -0.11344747 -0.02933916
v 0.03055990 -0.11446068 -0.02731404
v 0.03572535 -0.11402854 -0.02477847
v 0.03584486 -0.11609902 -0.02189428
v 0.03585814 -0.11900229 -0.02017495
v 0.03371229 -0.12993782 -0.02563754
v 0.03672126 -0.12849878 -0.02644902
v 0.03574660 -0.12292717 -0.01997862
v 0.01906843 -0.13208381 -0.02094954
v 0.02018915 -0.13323128 -0.02312696
v 0.02970740 -0.13001334 -0.02684762
v 0.03076970 -0.12572346 -0.03142972
v 0.01768477 -0.12093012 -0.03142972
v 0.02022634 -0.11890160 -0.03140236
v 0.03058646 -0.11432013 -0.03085384
v 0.02823611 -0.11496833 -0.02832660
v 0.02803161 -0.11549277 -0.02579222
v 0.03175765 -0.11597944 -0.02311387
v 0.02803161 -0.11663394 -0.02350890
v 0.02578750 -0.11841493 -0.02196686
v 0.03195683 -0.11849044 -0.02076987
v 0.02747125 -0.12129512 -0.01983584
v 0.03139646 -0.12224121 -0.01957764
v 0.02332561 -0.13226212 -0.02542456
v 0.02803161 -0.12447949 -0.01944438
v 0.02454195 -0.12709118 -0.01968830
v 0.01962879 -0.12769114 -0.01956931
v 0.01682431 -0.12776037 -0.01955622
v 0.01345946 -0.12893510 -0.01997862
v 0.00991136 -0.12891623 -0.02027489
v 0.00980248 -0.13199151 -0.02186215
v 0.00984497 -0.13413540 -0.02470232
v 0.02578750 -0.13047485 -0.02719148
v 0.02718177 -0.12644089 -0.03142972
v 0.01545925 -0.12320198 -0.03142972
v 0.00996979 -0.12356068 -0.02943673
v 0.00980248 -0.12181956 -0.02563992
v 0.02803161 -0.11507322 -0.03027795
v 0.02472254 -0.11627103 -0.02922850
v 0.02511028 -0.11649339 -0.02567680
v 0.01295486 -0.12097207 -0.02429301
v 0.02046536 -0.11875057 -0.02374568
v 0.01479000 -0.12119024 -0.02258439
v 0.02225268 -0.11935052 -0.02200850
v 0.01906843 -0.12181117 -0.02067230
v 0.02260590 -0.12200626 -0.01995006
v 0.02131254 -0.12447949 -0.01932658
v 0.02466942 -0.12447949 -0.01927661
v 0.01490950 -0.13291453 -0.02639428
v 0.01458285 -0.12576332 -0.01969068
v 0.00980248 -0.12272579 -0.02274621
v 0.01098163 -0.12562067 -0.02031416
v 0.00987418 -0.12752542 -0.03004117
v 0.00994854 -0.13282851 -0.02718791
v 0.02354869 -0.12702616 -0.03142972
v 0.01268132 -0.12581785 -0.03111203
v 0.01682431 -0.12653109 -0.03142972
v 0.01906843 -0.12052735 -0.02179314
v 0.01635424 -0.12372012 -0.02006905
v 0.02021837 -0.12709748 -0.03142972
f 1 2 3
f 1 3 4
f 1 4 5
f 1 5 6
f 1 6 7
f 1 7 8
f 1 8 9
f 1 9 2
f 2 10 11
f 2 11 3
f 2 9 12
f 2 12 13
f 2 13 14
f 2 14 10
f 3 11 15
f 3 15 16
f 3 16 38
f 3 38 59
f 3 59 64
f 3 64 61
f 3 61 39
f 3 39 17
f 3 17 18
f 3 18 4
f 4 19 5
f 4 18 19
f 5 19 20
f 5 20 6
f 6 20 21
f 6 21 7
f 7 22 8
f 7 21 23
f 7 23 22
f 8 22 24
f 8 24 25
f 8 25 9
f 9 25 26
f 9 26 27
f 9 27 12
f 10 15 11
f 10 14 28
f 10 28 15
f 12 27 29
f 12 29 30
f 12 30 13
f 13 31 32
f 13 32 33
f 13 33 34
f 13 34 35
f 13 35 36
f 13 36 14
f 13 30 31
f 14 36 28
f 15 37 38
f 15 38 16
f 15 28 37
f 17 39 40
f 17 40 18
f 18 40 41
f 18 41 42
f 18 42 19
f 19 42 20
f 20 42 43
f 20 43 41
f 20 41 44
f 20 44 21
f 21 44 45
f 21 45 46
f 21 46 23
f 22 23 24
f 23 46 47
f 23 47 48
f 23 48 24
f 24 48 49
f 24 49 25
f 25 49 50
f 25 50 26
f 26 50 51
f 26 51 27
f 27 51 52
f 27 52 29
f 28 36 53
f 28 53 37
f 29 52 30
f 30 52 31
f 31 52 32
f 32 52 51
f 32 51 54
f 32 54 34
f 32 34 33
f 34 55 35
f 34 54 56
f 34 56 55
f 35 55 41
f 35 41 57
f 35 57 36
f 36 57 58
f 36 58 53
f 37 59 38
f 37 53 59
f 39 60 40
f 39 61 60
f 40 57 41
f 40 60 57
f 41 55 45
f 41 45 44
f 41 43 42
f 45 55 46
f 46 55 47
f 47 55 62
f 47 62 48
f 48 62 49
f 49 62 55
f 49 55 63
f 49 63 50
f 50 63 51
f 51 63 54
f 53 58 59
f 54 63 56
f 55 56 63
f 57 60 61
f 57 61 58
f 58 61 64
f 58 64 59

