# https://github.com/mikedh/trimesh
v 0.05275035 -0.02872539 -0.00338962
v 0.04876478 -0.02716543 -0.00255129
v 0.05272873 -0.02822499 -0.00560334
v 0.05273954 -0.02753415 -0.00747648
v 0.05273954 -0.02356942 -0.00986486
v 0.05275344 -0.01860794 -0.00529769
v 0.05275344 -0.01860794 0.00008378
v 0.05275035 -0.02791705 -0.00121738
v 0.04211548 -0.02523068 0.01227452
v 0.03923092 -0.02491666 0.01227452
v 0.04214945 -0.02518813 0.00293280
v 0.04355158 -0.02549202 0.00096360
v 0.05135131 -0.02713910 -0.00704859
v 0.05272873 -0.02581212 -0.00893920
v 0.05138374 -0.02414073 -0.00911822
v 0.05104864 -0.02130242 -0.00935400
v 0.05272873 -0.02130242 -0.01002859
v 0.05272873 -0.01906580 -0.00963999
v 0.05272873 -0.01756662 -0.00919463
v 0.05275344 -0.01494508 -0.00529769
v 0.05275344 -0.01458041 0.00019076
v 0.05275035 -0.02359374 0.00112078
v 0.05275035 -0.02578781 0.00017111
v 0.04491510 -0.02240654 0.01227452
v 0.04396234 -0.02400905 0.01227452
v 0.03748135 -0.02359171 0.01227452
v 0.04234247 -0.02503822 0.00160108
v 0.04459237 -0.02487006 -0.00168239
v 0.05097453 -0.02560750 -0.00781487
v 0.04910296 -0.02315208 -0.00709662
v 0.04992910 -0.02130242 -0.00835411
v 0.05143006 -0.01847221 -0.00907019
v 0.05272873 -0.01643616 -0.00827334
v 0.05275344 -0.01301843 -0.00267354
v 0.05272873 -0.01539281 -0.00715993
v 0.05275344 -0.01270238 -0.00110385
v 0.04840962 -0.01233974 0.01227452
v 0.05275035 -0.02135509 0.00092212
v 0.04782591 -0.01466145 0.01227452
v 0.04635738 -0.01870721 0.01227452
v 0.04546638 -0.02114034 0.01227452
v 0.03697794 -0.02150298 0.01227452
v 0.04256793 -0.02354714 0.00095486
v 0.04901957 -0.02130242 -0.00723415
v 0.04915392 -0.01947706 -0.00703330
v 0.05004955 -0.01886118 -0.00780614
v 0.04697043 -0.01318050 -0.00018256
v 0.04743214 -0.01168740 0.00040907
v 0.04944732 -0.01097225 -0.00033757
v 0.05019780 -0.01074534 0.00112078
v 0.05002175 -0.01067241 0.00293280
v 0.04973145 -0.01075750 0.00560717
v 0.04778422 -0.00998360 0.01227452
v 0.03716942 -0.01888955 0.01227452
v 0.03744892 -0.01728096 0.01227452
v 0.04317634 -0.02128216 0.00114698
v 0.03847272 -0.01458446 0.01227452
v 0.03955520 -0.01228099 0.01227452
v 0.04034120 -0.01105531 0.01227452
v 0.04691947 -0.01102492 0.00189799
v 0.04388049 -0.00802858 0.01227452
v 0.04590184 -0.00845403 0.01227452
v 0.04136500 -0.00969389 0.01227452
v 0.04260035 -0.00869714 0.01227452
f 1 2 3
f 1 3 4
f 1 4 5
f 1 5 6
f 1 6 7
f 1 7 8
f 1 8 9
f 1 9 10
f 1 10 11
f 1 11 12
f 1 12 2
f 2 13 3
f 2 12 13
f 3 13 4
f 4 14 5
f 4 13 14
f 5 14 15
f 5 15 16
f 5 16 17
f 5 17 18
f 5 18 19
f 5 19 20
f 5 20 6
f 6 20 34
f 6 34 36
f 6 36 21
f 6 21 7
f 7 21 22
f 7 22 23
f 7 23 8
f 8 23 24
f 8 24 25
f 8 25 9
f 9 25 24
f 9 24 41
f 9 41 40
f 9 40 39
f 9 39 37
f 9 37 53
f 9 53 62
f 9 62 61
f 9 61 64
f 9 64 63
f 9 63 59
f 9 59 58
f 9 58 57
f 9 57 55
f 9 55 54
f 9 54 42
f 9 42 26
f 9 26 10
f 10 26 11
f 11 26 27
f 11 27 12
f 12 27 13
f 13 27 28
f 13 28 29
f 13 29 15
f 13 15 14
f 15 29 28
f 15 28 30
f 15 30 31
f 15 31 16
f 16 31 32
f 16 32 17
f 17 32 18
f 18 32 19
f 19 32 33
f 19 33 20
f 20 33 35
f 20 35 34
f 21 36 37
f 21 37 38
f 21 38 22
f 22 38 37
f 22 37 39
f 22 39 23
f 23 39 40
f 23 40 41
f 23 41 24
f 26 42 27
f 27 43 28
f 27 42 43
f 28 44 31
f 28 31 30
f 28 43 44
f 31 44 45
f 31 45 46
f 31 46 32
f 32 46 47
f 32 47 48
f 32 48 33
f 33 48 49
f 33 49 35
f 34 35 49
f 34 49 50
f 34 50 36
f 36 50 51
f 36 51 52
f 36 52 53
f 36 53 37
f 42 54 43
f 43 54 55
f 43 55 56
f 43 56 45
f 43 45 44
f 45 47 46
f 45 56 47
f 47 56 55
f 47 55 57
f 47 57 58
f 47 58 48
f 48 58 59
f 48 59 60
f 48 60 49
f 49 60 61
f 49 61 50
f 50 61 62
f 50 62 51
f 51 62 52
f 52 62 53
f 59 63 60
f 60 63 64
f 60 64 61

