# https://github.com/mikedh/trimesh
v -0.06471369 -0.10724501 -0.03547146
v -0.06619892 -0.10924528 -0.03560397
v -0.06490857 -0.10752930 -0.03287897
v -0.06086369 -0.10733772 -0.03348059
v -0.06197498 -0.10737068 -0.03545253
v -0.06391315 -0.10878796 -0.03704836
v -0.06557218 -0.11102719 -0.03382050
v -0.06376041 -0.11181823 -0.03644838
v -0.06379728 -0.11205719 -0.03292176
v -0.05273708 -0.11730815 -0.03019511
v -0.05271601 -0.11109929 -0.03019511
v -0.02582392 -0.11699298 -0.03019429
v -0.02355395 -0.11753887 -0.03023709
v -0.02341701 -0.11787672 -0.03252095
v -0.02159471 -0.11896440 -0.03448220
v -0.02356975 -0.11888200 -0.03582042
v -0.02131558 -0.12037138 -0.03677348
v -0.02308521 -0.12132311 -0.03823103
v -0.06166951 -0.11102925 -0.03726646
v -0.02579759 -0.12223775 -0.03860139
v -0.05919413 -0.11492679 -0.03382050
v -0.05718749 -0.11327054 -0.03746234
v -0.05934686 -0.11413162 -0.03656855
v -0.05064617 -0.11851944 -0.03019511
v -0.03582550 -0.12399288 -0.03019429
v -0.03515136 -0.11658303 -0.03019429
v -0.03036914 -0.11631935 -0.03019429
v -0.02802543 -0.11660775 -0.03019429
v -0.01674403 -0.12054854 -0.03019429
v -0.02037809 -0.11863480 -0.03022063
v -0.02025169 -0.11893762 -0.03246417
v -0.01727597 -0.12059799 -0.03251766
v -0.01731810 -0.12204617 -0.03570849
v -0.01921414 -0.12144877 -0.03674302
v -0.02095744 -0.12220067 -0.03809277
v -0.02008315 -0.12478392 -0.03820881
v -0.02455463 -0.12535866 -0.03807631
v -0.03174376 -0.12344903 -0.03817918
v -0.03617838 -0.12115419 -0.03814133
v -0.05046184 -0.11551389 -0.03770842
v -0.04821819 -0.11988728 -0.03476367
v -0.04830246 -0.11957828 -0.03019511
v -0.05020377 -0.11898706 -0.03545089
v -0.05270548 -0.11732670 -0.03670022
v -0.04821819 -0.11775311 -0.03739732
v -0.04357818 -0.12143641 -0.03019511
v -0.03868009 -0.12344697 -0.03436533
v -0.03028487 -0.12564295 -0.03019429
v -0.01471106 -0.12219243 -0.03019429
v -0.01254642 -0.12439252 -0.03019429
v -0.01591714 -0.12476126 -0.03610519
v -0.01750771 -0.12725181 -0.03620889
v -0.02978980 -0.12563059 -0.03594634
v -0.02004102 -0.12782449 -0.03464104
v -0.04149254 -0.12186077 -0.03667224
v -0.05051977 -0.11790761 -0.03688787
v -0.04149254 -0.12254881 -0.03476450
v -0.04508447 -0.12119127 -0.03374725
v -0.03181750 -0.12534012 -0.03476532
v -0.02808863 -0.12627948 -0.03019429
v -0.01239368 -0.12735069 -0.03019429
v -0.01516926 -0.12822002 -0.03019429
v -0.02579759 -0.12673063 -0.03476532
v -0.01983035 -0.12828799 -0.03019429
f 1 2 3
f 1 3 4
f 1 4 5
f 1 5 6
f 1 6 2
f 2 7 3
f 2 6 8
f 2 8 7
f 3 7 9
f 3 9 10
f 3 10 11
f 3 11 4
f 4 11 12
f 4 12 13
f 4 13 14
f 4 14 5
f 5 14 15
f 5 15 16
f 5 16 17
f 5 17 18
f 5 18 6
f 6 19 8
f 6 18 20
f 6 20 19
f 7 8 21
f 7 21 9
f 8 19 22
f 8 22 23
f 8 23 21
f 9 21 24
f 9 24 10
f 10 24 25
f 10 25 11
f 11 25 26
f 11 26 27
f 11 27 28
f 11 28 12
f 12 28 27
f 12 27 26
f 12 26 25
f 12 25 48
f 12 48 60
f 12 60 64
f 12 64 62
f 12 62 61
f 12 61 50
f 12 50 49
f 12 49 29
f 12 29 30
f 12 30 13
f 13 30 31
f 13 31 14
f 14 31 15
f 15 17 16
f 15 31 32
f 15 32 33
f 15 33 34
f 15 34 17
f 17 34 35
f 17 35 18
f 18 35 20
f 19 20 22
f 20 35 36
f 20 36 37
f 20 37 38
f 20 38 39
f 20 39 40
f 20 40 22
f 21 41 42
f 21 42 24
f 21 23 43
f 21 43 41
f 22 44 23
f 22 40 39
f 22 39 38
f 22 38 45
f 22 45 44
f 23 44 43
f 24 42 25
f 25 42 46
f 25 46 47
f 25 47 48
f 29 49 32
f 29 32 31
f 29 31 30
f 32 49 50
f 32 50 33
f 33 50 51
f 33 51 34
f 34 51 35
f 35 51 36
f 36 51 52
f 36 52 37
f 37 53 38
f 37 52 54
f 37 54 53
f 38 53 55
f 38 55 44
f 38 44 56
f 38 56 45
f 41 43 57
f 41 57 58
f 41 58 42
f 42 58 46
f 43 55 57
f 43 44 55
f 44 45 56
f 46 57 47
f 46 58 57
f 47 59 60
f 47 60 48
f 47 57 59
f 50 61 51
f 51 61 52
f 52 61 62
f 52 62 54
f 53 54 63
f 53 63 59
f 53 59 57
f 53 57 55
f 54 62 64
f 54 64 63
f 59 63 64
f 59 64 60

