# https://github.com/mikedh/trimesh
v 0.09252681 -0.08136790 -0.02575301
v 0.09363575 -0.08074365 -0.02792171
v 0.09464653 -0.08113581 -0.02941544
v 0.09664422 -0.08136990 -0.03065137
v 0.09374452 -0.08136790 -0.02281218
v 0.09868169 -0.07267045 -0.02344180
v 0.09902260 -0.07114184 -0.02550298
v 0.09785662 -0.07289253 -0.02579317
v 0.09863129 -0.07168005 -0.02710424
v 0.10607816 -0.06125191 -0.03265035
v 0.10285614 -0.06663405 -0.03265035
v 0.10173923 -0.06854481 -0.03265035
v 0.10064754 -0.07085572 -0.03265035
v 0.09998827 -0.07289253 -0.03265035
v 0.09966594 -0.07513543 -0.03265035
v 0.10002807 -0.08136990 -0.03166576
v 0.10371701 -0.08136990 -0.03161782
v 0.10438822 -0.08136790 -0.02127699
v 0.09787121 -0.08136790 -0.02057482
v 0.09539998 -0.08136790 -0.02160994
v 0.10029602 -0.07703818 -0.03265035
v 0.09986226 -0.07499536 -0.02073158
v 0.09839385 -0.07448317 -0.02213851
v 0.10105477 -0.06971127 -0.02264765
v 0.09985696 -0.07072967 -0.02363743
v 0.10067274 -0.06918106 -0.02414268
v 0.10607816 -0.06093178 -0.02579317
v 0.10607816 -0.07925306 -0.03010854
v 0.10591102 -0.07653398 -0.03217619
v 0.10431393 -0.07737832 -0.03265035
v 0.10202973 -0.08136990 -0.03181604
v 0.10188249 -0.07791053 -0.03265035
v 0.10516421 -0.08078367 -0.03037672
v 0.10607816 -0.08103576 -0.02767038
v 0.10592959 -0.08133389 -0.02201414
v 0.10449965 -0.07979928 -0.02043102
v 0.10220615 -0.08046154 -0.02007216
v 0.10050561 -0.08129587 -0.02016285
v 0.09948687 -0.07961920 -0.02012009
v 0.09975083 -0.07737631 -0.02019653
v 0.10122191 -0.07352478 -0.02035977
v 0.09979594 -0.07300657 -0.02170840
v 0.10053479 -0.07119986 -0.02206078
v 0.10286144 -0.06778850 -0.02214758
v 0.10607816 -0.06230033 -0.02310497
v 0.10528757 -0.06259244 -0.02437199
v 0.10607816 -0.07982129 -0.02123554
v 0.10572929 -0.07821865 -0.02028722
v 0.10388681 -0.07917303 -0.01998277
v 0.10449965 -0.07758039 -0.01976901
v 0.10205096 -0.07737631 -0.01959023
v 0.10126038 -0.07532350 -0.01993095
v 0.10278185 -0.07221426 -0.02003070
v 0.10361355 -0.07004741 -0.02039863
v 0.10203239 -0.07062763 -0.02123035
v 0.10560991 -0.06443917 -0.02192993
v 0.10600255 -0.06716026 -0.02040381
v 0.10607816 -0.07111783 -0.01955784
v 0.10606224 -0.07630389 -0.01988561
v 0.10607816 -0.07335472 -0.01946327
v 0.10429404 -0.07513543 -0.01941533
v 0.10429404 -0.07289253 -0.01952675
v 0.10433384 -0.07073968 -0.01990504
v 0.10559266 -0.06894897 -0.02000220
f 1 2 3
f 1 3 4
f 1 4 5
f 1 5 6
f 1 6 7
f 1 7 8
f 1 8 9
f 1 9 10
f 1 10 11
f 1 11 12
f 1 12 2
f 2 12 13
f 2 13 3
f 3 13 14
f 3 14 15
f 3 15 4
f 4 16 31
f 4 31 17
f 4 17 18
f 4 18 19
f 4 19 20
f 4 20 5
f 4 15 21
f 4 21 16
f 5 20 22
f 5 22 23
f 5 23 6
f 6 23 24
f 6 24 25
f 6 25 26
f 6 26 7
f 7 9 8
f 7 26 27
f 7 27 9
f 9 27 10
f 10 28 29
f 10 29 30
f 10 30 32
f 10 32 21
f 10 21 15
f 10 15 14
f 10 14 13
f 10 13 12
f 10 12 11
f 10 27 45
f 10 45 58
f 10 58 60
f 10 60 47
f 10 47 34
f 10 34 28
f 16 21 32
f 16 32 31
f 17 31 30
f 17 30 29
f 17 29 33
f 17 33 34
f 17 34 35
f 17 35 18
f 18 35 36
f 18 36 37
f 18 37 38
f 18 38 19
f 19 38 39
f 19 39 40
f 19 40 20
f 20 40 22
f 22 41 42
f 22 42 23
f 22 40 41
f 23 42 43
f 23 43 24
f 24 44 45
f 24 45 26
f 24 26 25
f 24 43 44
f 26 45 46
f 26 46 27
f 27 46 45
f 28 34 33
f 28 33 29
f 30 31 32
f 34 47 35
f 35 47 36
f 36 47 48
f 36 48 49
f 36 49 37
f 37 49 50
f 37 50 51
f 37 51 38
f 38 51 39
f 39 51 52
f 39 52 40
f 40 52 41
f 41 53 54
f 41 54 55
f 41 55 43
f 41 43 42
f 41 52 53
f 43 55 44
f 44 56 45
f 44 55 56
f 45 56 57
f 45 57 58
f 47 59 48
f 47 60 59
f 48 59 49
f 49 59 50
f 50 59 60
f 50 60 61
f 50 61 51
f 51 61 62
f 51 62 52
f 52 62 53
f 53 62 63
f 53 63 54
f 54 63 57
f 54 57 56
f 54 56 55
f 57 63 64
f 57 64 58
f 58 62 61
f 58 61 60
f 58 64 62
f 62 64 63

