# https://github.com/mikedh/trimesh
v -0.00112309 0.13515449 -0.02266922
v 0.00112068 0.13441914 -0.02119211
v 0.00788374 0.13423493 -0.02135411
v 0.00411833 0.13482701 -0.02451058
v 0.00112068 0.13504484 -0.02423891
v -0.00336090 0.13489280 -0.02418759
v -0.00560666 0.13488988 -0.02177672
v 0.00560624 0.13255663 -0.02010037
v -0.00560666 0.13401564 -0.02065580
v 0.00788374 0.13185051 -0.02009433
v 0.00788374 0.13420570 -0.02477723
v 0.00787183 0.13198209 -0.02825771
v -0.00112309 0.13433142 -0.02549768
v -0.01238360 0.13285633 -0.02508815
v -0.01237963 0.13398056 -0.02210273
v -0.00784845 0.13443229 -0.02134505
v -0.00784845 0.13208004 -0.01955299
v -0.00560666 0.13121019 -0.01924107
v -0.00112309 0.13121019 -0.01936886
v -0.00112309 0.12896904 -0.01881142
v -0.01238360 0.13187390 -0.01983976
v 0.00112068 0.12896904 -0.01908309
v 0.00782620 0.12792084 -0.02012352
v 0.00788374 0.12480399 -0.02159962
v 0.00788374 0.12579226 -0.02780391
v 0.00786191 0.12899828 -0.02885137
v -0.00684857 0.12950119 -0.02889564
v 0.00550308 0.13202449 -0.02826777
v -0.00112309 0.13275984 -0.02734910
v -0.01238360 0.12852461 -0.02889564
v -0.01009222 0.13121019 -0.01940408
v -0.01009222 0.12896904 -0.01875608
v -0.00784845 0.12784774 -0.01861722
v -0.00448378 0.12784774 -0.01866753
v 0.00112068 0.12672790 -0.01925314
v -0.01238360 0.12894419 -0.01897744
v 0.00385051 0.12618259 -0.01982467
v 0.00620537 0.12347948 -0.02295197
v 0.00765956 0.12361982 -0.02490804
v 0.00112068 0.12511831 -0.01986291
v 0.00336247 0.12424407 -0.02106030
v 0.00112068 0.12299704 -0.02190752
v 0.00275143 0.12285962 -0.02889564
v 0.00539198 0.12489901 -0.02889564
v -0.01238360 0.12044888 -0.02847706
v -0.01009222 0.12672790 -0.01865445
v -0.01238360 0.12670451 -0.01876111
v -0.00112309 0.12580395 -0.01934773
v 0.00369775 0.12299265 -0.02291172
v 0.00112068 0.12230847 -0.02355267
v 0.00112068 0.12198684 -0.02579350
v -0.00021645 0.12184503 -0.02868031
v 0.00112068 0.12399554 -0.02078560
v -0.00784845 0.12448529 -0.01945942
v -0.00112309 0.12375871 -0.02055115
v -0.00112309 0.12284499 -0.02167307
v -0.01238360 0.12105120 -0.02271752
v -0.00112309 0.12197807 -0.02355267
v -0.01238360 0.12021936 -0.02581664
v -0.00336090 0.12134651 -0.02846599
v -0.01238360 0.12377917 -0.01964858
v -0.00112309 0.12158042 -0.02579350
v -0.00363666 0.12342539 -0.02070208
v -0.00649345 0.12109798 -0.02458404
f 1 2 3
f 1 3 4
f 1 4 5
f 1 5 6
f 1 6 7
f 1 7 2
f 2 8 3
f 2 7 9
f 2 9 8
f 3 10 24
f 3 24 25
f 3 25 11
f 3 11 4
f 3 8 10
f 4 11 12
f 4 12 13
f 4 13 5
f 5 13 6
f 6 14 15
f 6 15 7
f 6 13 14
f 7 15 16
f 7 16 9
f 8 9 17
f 8 17 18
f 8 18 19
f 8 19 20
f 8 20 10
f 9 16 21
f 9 21 17
f 10 22 23
f 10 23 24
f 10 20 22
f 11 25 12
f 12 25 26
f 12 26 27
f 12 27 28
f 12 28 13
f 13 28 29
f 13 29 14
f 14 30 45
f 14 45 59
f 14 59 57
f 14 57 61
f 14 61 47
f 14 47 36
f 14 36 21
f 14 21 15
f 14 29 30
f 15 21 16
f 17 21 31
f 17 31 32
f 17 32 18
f 18 32 20
f 18 20 19
f 20 32 33
f 20 33 34
f 20 34 35
f 20 35 22
f 21 36 31
f 22 35 23
f 23 35 37
f 23 37 24
f 24 38 39
f 24 39 25
f 24 37 40
f 24 40 41
f 24 41 42
f 24 42 38
f 25 39 43
f 25 43 44
f 25 44 26
f 26 44 27
f 27 30 29
f 27 29 28
f 27 44 43
f 27 43 30
f 30 43 45
f 31 36 32
f 32 46 33
f 32 36 47
f 32 47 46
f 33 46 34
f 34 48 35
f 34 46 48
f 35 40 37
f 35 48 40
f 38 49 50
f 38 50 51
f 38 51 39
f 38 42 49
f 39 51 52
f 39 52 43
f 40 53 41
f 40 48 54
f 40 54 55
f 40 55 53
f 41 53 42
f 42 50 49
f 42 53 55
f 42 55 56
f 42 56 57
f 42 57 58
f 42 58 50
f 43 52 45
f 45 52 60
f 45 60 59
f 46 54 48
f 46 47 61
f 46 61 54
f 50 58 62
f 50 62 51
f 51 62 52
f 52 62 60
f 54 61 55
f 55 61 63
f 55 63 57
f 55 57 56
f 57 59 64
f 57 64 58
f 57 63 61
f 58 64 62
f 59 62 64
f 59 60 62

