# https://github.com/mikedh/trimesh
v 0.12005616 -0.02373763 -0.03198162
v 0.12092053 -0.02373763 -0.02579473
v 0.12310667 -0.01764133 -0.02415863
v 0.12292707 -0.01764133 -0.02579473
v 0.12041664 -0.02299998 -0.03198162
v 0.12795440 -0.02373763 -0.03198162
v 0.12110142 -0.02373763 -0.02483819
v 0.12384442 -0.01764133 -0.02303676
v 0.12148128 -0.02373763 -0.02369270
v 0.12165828 -0.02373763 -0.02339318
v 0.12318418 -0.01764133 -0.02722792
v 0.12131073 -0.02140653 -0.03198162
v 0.12091278 -0.02204033 -0.03198162
v 0.12802804 -0.02354904 -0.03198162
v 0.13082402 -0.02354904 -0.02979479
v 0.13084210 -0.02373763 -0.02972072
v 0.12271259 -0.02373763 -0.02205983
v 0.12455633 -0.01764133 -0.02235505
v 0.12283275 -0.01965433 -0.03198162
v 0.12216865 -0.02040988 -0.03198162
v 0.12430568 -0.01764133 -0.02907336
v 0.12442842 -0.01862247 -0.03198162
v 0.12811848 -0.02197051 -0.03198162
v 0.13084856 -0.02130687 -0.02996334
v 0.13194551 -0.02354904 -0.02869547
v 0.13195326 -0.02373763 -0.02862139
v 0.12429017 -0.02373763 -0.02131800
v 0.12496591 -0.01764133 -0.02202118
v 0.12502922 -0.01764133 -0.02983988
v 0.12672696 -0.01764133 -0.03028111
v 0.12896606 -0.01764133 -0.03048294
v 0.12655382 -0.01904261 -0.03198162
v 0.13084598 -0.01764133 -0.03000199
v 0.13197135 -0.02130687 -0.02861066
v 0.13215869 -0.02354963 -0.02837877
v 0.13212381 -0.02373763 -0.02837877
v 0.12448527 -0.02373763 -0.02123426
v 0.12606543 -0.01764133 -0.02163470
v 0.13128269 -0.01764133 -0.02923332
v 0.13268843 -0.02130687 -0.02748880
v 0.13212123 -0.02130687 -0.02837877
v 0.13213285 -0.02180698 -0.02837877
v 0.13268584 -0.02364333 -0.02755965
v 0.13297914 -0.02373763 -0.02573675
v 0.12663393 -0.02373763 -0.02101526
v 0.12672437 -0.01764133 -0.02143609
v 0.13199719 -0.01764133 -0.02791822
v 0.13293262 -0.01764133 -0.02594824
v 0.13325563 -0.02130687 -0.02579473
v 0.13301919 -0.02354963 -0.02579473
v 0.13264192 -0.02373763 -0.02408026
v 0.12878001 -0.02373763 -0.02152519
v 0.13245328 -0.01764133 -0.02234432
v 0.13039118 -0.01764133 -0.02186766
v 0.12896735 -0.01764133 -0.02156706
v 0.12814949 -0.01764133 -0.02147581
v 0.13310317 -0.01764133 -0.02348551
v 0.13289515 -0.02130687 -0.02375819
v 0.13239255 -0.01830736 -0.02238511
v 0.13170648 -0.02354963 -0.02292833
v 0.13163671 -0.02373763 -0.02291974
v 0.12896735 -0.02373763 -0.02159498
v 0.13290420 -0.01905932 -0.02336956
v 0.13050489 -0.02373763 -0.02221227
f 1 2 3
f 1 3 4
f 1 4 5
f 1 5 13
f 1 13 12
f 1 12 20
f 1 20 19
f 1 19 22
f 1 22 32
f 1 32 23
f 1 23 14
f 1 14 6
f 1 6 16
f 1 16 26
f 1 26 36
f 1 36 44
f 1 44 51
f 1 51 61
f 1 61 64
f 1 64 62
f 1 62 52
f 1 52 45
f 1 45 37
f 1 37 27
f 1 27 17
f 1 17 10
f 1 10 9
f 1 9 7
f 1 7 2
f 2 7 3
f 3 8 18
f 3 18 28
f 3 28 38
f 3 38 46
f 3 46 56
f 3 56 55
f 3 55 54
f 3 54 53
f 3 53 57
f 3 57 48
f 3 48 47
f 3 47 39
f 3 39 33
f 3 33 31
f 3 31 30
f 3 30 29
f 3 29 21
f 3 21 11
f 3 11 4
f 3 7 9
f 3 9 10
f 3 10 8
f 4 11 12
f 4 12 13
f 4 13 5
f 6 14 15
f 6 15 16
f 8 10 17
f 8 17 18
f 11 19 20
f 11 20 12
f 11 21 22
f 11 22 19
f 14 23 24
f 14 24 15
f 15 24 25
f 15 25 16
f 16 25 26
f 17 27 28
f 17 28 18
f 21 29 22
f 22 29 30
f 22 30 31
f 22 31 32
f 23 32 33
f 23 33 24
f 24 33 25
f 25 34 35
f 25 35 36
f 25 36 26
f 25 33 34
f 27 37 28
f 28 37 38
f 31 33 32
f 33 39 40
f 33 40 41
f 33 41 34
f 34 41 42
f 34 42 35
f 35 42 43
f 35 43 36
f 36 43 44
f 37 45 46
f 37 46 38
f 39 47 40
f 40 48 49
f 40 49 43
f 40 43 42
f 40 42 41
f 40 47 48
f 43 49 50
f 43 50 44
f 44 50 51
f 45 52 53
f 45 53 54
f 45 54 55
f 45 55 56
f 45 56 46
f 48 57 49
f 49 57 58
f 49 58 50
f 50 58 51
f 51 58 59
f 51 59 60
f 51 60 61
f 52 62 53
f 53 62 59
f 53 59 58
f 53 58 63
f 53 63 57
f 57 63 58
f 59 62 64
f 59 64 60
f 60 64 61

