# https://github.com/mikedh/trimesh
v -0.06976294 0.01840608 -0.00442845
v -0.06752709 0.01763162 -0.00215457
v -0.06862269 0.01906697 -0.00281762
v -0.06965725 0.02191720 -0.00447524
v -0.06452611 0.02160630 -0.00937993
v -0.06450973 0.01878400 -0.00936790
v -0.06381159 0.01703774 -0.00929304
v -0.06112320 0.01322502 -0.00635611
v -0.06690933 0.01580159 -0.00344457
v -0.06151470 0.01917123 0.00223546
v -0.06198509 0.02130657 0.00234641
v -0.06554578 0.01539016 -0.00199549
v -0.06849318 0.02338420 -0.00368386
v -0.06768339 0.02613577 -0.00464902
v -0.06384582 0.02337303 -0.00931710
v -0.06168291 0.02130657 -0.01044536
v -0.06168291 0.01906697 -0.01049615
v -0.06201040 0.01610132 -0.00961922
v -0.05943961 0.01344656 -0.00798566
v -0.05455557 0.01021655 -0.00072554
v -0.05668127 0.01098356 -0.00181369
v -0.06151768 0.01302396 -0.00336704
v -0.06392174 0.01412049 -0.00336704
v -0.05943961 0.01917681 0.00260174
v -0.05943961 0.02130657 0.00286643
v -0.05455557 0.01050697 0.00123287
v -0.05455557 0.01225509 0.00190126
v -0.06142836 0.02332649 0.00211114
v -0.06336799 0.02354803 0.00064869
v -0.06695696 0.02354803 -0.00240856
v -0.06123484 0.01308912 -0.00181770
v -0.06597896 0.02796580 -0.00390042
v -0.06597896 0.02796580 -0.00505674
v -0.06202380 0.02427781 -0.00958713
v -0.05943961 0.02354803 -0.01023682
v -0.05943961 0.02130657 -0.01073143
v -0.05943961 0.01906697 -0.01079025
v -0.05943961 0.01682365 -0.01039857
v -0.05943961 0.01489309 -0.00954035
v -0.05719632 0.01500851 -0.00942538
v -0.05650562 0.01342981 -0.00746431
v -0.05475504 0.01086628 -0.00250481
v -0.05486966 0.01585185 -0.00901231
v -0.05465530 0.01881565 -0.00993871
v -0.05455557 0.02591050 -0.00612083
v -0.05717548 0.02174593 0.00220338
v -0.05943961 0.02371931 0.00221674
v -0.05455557 0.02130657 0.00067275
v -0.06168291 0.02501690 0.00063131
v -0.06451419 0.02920567 -0.00446989
v -0.05943961 0.02595332 -0.00891606
v -0.05746575 0.02365787 -0.01008308
v -0.05719632 0.02130657 -0.01058572
v -0.05746575 0.01906697 -0.01064988
v -0.05746575 0.01682365 -0.01024216
v -0.05465530 0.02102732 -0.00994406
v -0.05499768 0.02418659 -0.00899494
v -0.05654432 0.02706661 -0.00706193
v -0.05482203 0.02629029 -0.00212248
v -0.05455557 0.02368394 -0.00023226
v -0.05746575 0.02718017 -0.00195806
v -0.05943961 0.02732166 -0.00187785
v -0.06255671 0.02923546 -0.00445251
v -0.05746575 0.02586024 -0.00886527
f 1 2 3
f 1 3 4
f 1 4 5
f 1 5 6
f 1 6 7
f 1 7 8
f 1 8 9
f 1 9 2
f 2 10 11
f 2 11 3
f 2 9 12
f 2 12 10
f 3 11 13
f 3 13 4
f 4 13 14
f 4 14 15
f 4 15 5
f 5 16 17
f 5 17 6
f 5 15 16
f 6 17 7
f 7 18 8
f 7 17 18
f 8 19 20
f 8 20 21
f 8 21 22
f 8 22 23
f 8 23 9
f 8 18 19
f 9 23 12
f 10 24 25
f 10 25 11
f 10 12 26
f 10 26 27
f 10 27 24
f 11 25 28
f 11 28 29
f 11 29 30
f 11 30 13
f 12 23 31
f 12 31 26
f 13 30 32
f 13 32 14
f 14 32 33
f 14 33 15
f 15 33 34
f 15 34 16
f 16 34 35
f 16 35 36
f 16 36 37
f 16 37 17
f 17 37 38
f 17 38 18
f 18 38 39
f 18 39 19
f 19 39 40
f 19 40 41
f 19 41 42
f 19 42 20
f 20 26 21
f 20 42 43
f 20 43 44
f 20 44 45
f 20 45 60
f 20 60 48
f 20 48 27
f 20 27 26
f 21 26 31
f 21 31 23
f 21 23 22
f 24 27 25
f 25 46 47
f 25 47 28
f 25 27 46
f 27 48 46
f 28 47 49
f 28 49 32
f 28 32 29
f 29 32 30
f 32 50 33
f 32 49 50
f 33 50 34
f 34 50 51
f 34 51 35
f 35 52 53
f 35 53 36
f 35 51 52
f 36 53 37
f 37 54 38
f 37 53 54
f 38 55 40
f 38 40 39
f 38 54 55
f 40 43 41
f 40 55 43
f 41 43 42
f 43 55 44
f 44 55 54
f 44 54 56
f 44 56 45
f 45 56 57
f 45 57 58
f 45 58 59
f 45 59 60
f 46 48 60
f 46 60 47
f 47 59 61
f 47 61 62
f 47 62 49
f 47 60 59
f 49 62 50
f 50 62 63
f 50 63 51
f 51 64 52
f 51 63 58
f 51 58 64
f 52 64 57
f 52 57 56
f 52 56 53
f 53 56 54
f 57 64 58
f 58 63 59
f 59 63 61
f 61 63 62

