# https://github.com/mikedh/trimesh
v -0.02209367 -0.00190904 0.03816429
v -0.02124606 -0.00518689 0.03718022
v -0.02122627 0.00688065 0.03803619
v -0.02579526 0.00112402 0.03771521
v -0.02579526 -0.00111842 0.03774082
v -0.02878885 -0.00259556 0.03626548
v -0.02492346 -0.00455383 0.03549993
v -0.02124716 -0.00605911 0.03480822
v -0.02122627 -0.00116063 0.02581151
v -0.02803578 -0.00111842 0.03722845
v -0.02122627 0.01809567 0.02721602
v -0.02124716 0.01908324 0.03137229
v -0.02126804 0.01681829 0.03732942
v -0.02126804 0.01457585 0.03776945
v -0.02803578 0.00112402 0.03741381
v -0.03027960 0.00112402 0.03705816
v -0.03245745 0.00032214 0.03640714
v -0.03150100 -0.00184714 0.03476452
v -0.03190557 -0.00200471 0.03254774
v -0.02124716 -0.00612663 0.03140093
v -0.03245745 0.00557514 0.02356007
v -0.03245745 0.00782039 0.02310797
v -0.02122627 0.00108463 0.02537147
v -0.02130432 -0.00450318 0.02733357
v -0.03245745 0.00185556 0.02480786
v -0.02122627 0.01453646 0.02541366
v -0.03245745 0.02004831 0.02397449
v -0.02571610 0.02019462 0.02705628
v -0.02472667 0.02016648 0.03321233
v -0.02355254 0.01957844 0.03476452
v -0.02126804 0.01864151 0.03558433
v -0.02484650 0.02033811 0.02960761
v -0.02803578 0.02138195 0.03028123
v -0.02803578 0.02130317 0.03252213
v -0.02355254 0.01865839 0.03650509
v -0.02818529 0.02018336 0.03586914
v -0.02355254 0.01682111 0.03726763
v -0.02579526 0.01682111 0.03699788
v -0.02355254 0.01457585 0.03745148
v -0.03027960 0.00560890 0.03685773
v -0.03136798 0.00338334 0.03679293
v -0.02579526 0.01233341 0.03722091
v -0.03245745 0.00567361 0.03649605
v -0.03245745 -0.00114937 0.02720698
v -0.03107554 -0.00233671 0.03029630
v -0.02803578 -0.00351842 0.03028123
v -0.02426383 -0.00473671 0.02873205
v -0.03245745 0.01005721 0.02287590
v -0.02122627 0.00442719 0.02506856
v -0.02899883 -0.00219603 0.02697641
v -0.02122627 0.01119109 0.02497212
v -0.03245745 0.01678734 0.02303112
v -0.03245745 0.02158735 0.03448724
v -0.03217931 0.02261713 0.02714519
v -0.03196054 0.02259462 0.03150491
v -0.03157026 0.01926050 0.03582846
v -0.02803578 0.01682111 0.03662415
v -0.02803578 0.01457585 0.03674923
v -0.03027960 0.00785134 0.03674320
v -0.03027960 0.01009097 0.03661963
v -0.03027960 0.01682111 0.03622931
v -0.03245745 0.00791887 0.03636344
v -0.03245745 0.01342227 0.02276890
v -0.02122627 0.00781195 0.02489827
f 1 2 3
f 1 3 4
f 1 4 5
f 1 5 2
f 2 6 7
f 2 7 8
f 2 8 9
f 2 9 3
f 2 5 10
f 2 10 6
f 3 9 23
f 3 23 49
f 3 49 64
f 3 64 51
f 3 51 26
f 3 26 11
f 3 11 12
f 3 12 13
f 3 13 14
f 3 14 4
f 4 15 5
f 4 14 15
f 5 15 16
f 5 16 10
f 6 10 17
f 6 17 18
f 6 18 7
f 7 18 19
f 7 19 8
f 8 20 9
f 8 19 20
f 9 21 22
f 9 22 23
f 9 20 24
f 9 24 25
f 9 25 21
f 10 16 17
f 11 26 27
f 11 27 28
f 11 28 12
f 12 29 30
f 12 30 31
f 12 31 13
f 12 28 32
f 12 32 33
f 12 33 34
f 12 34 29
f 13 31 35
f 13 35 36
f 13 36 37
f 13 37 14
f 14 37 38
f 14 38 39
f 14 39 15
f 15 40 41
f 15 41 16
f 15 39 42
f 15 42 40
f 16 41 17
f 17 41 43
f 17 43 62
f 17 62 53
f 17 53 27
f 17 27 52
f 17 52 63
f 17 63 48
f 17 48 22
f 17 22 21
f 17 21 25
f 17 25 44
f 17 44 19
f 17 19 18
f 19 45 46
f 19 46 20
f 19 44 45
f 20 46 47
f 20 47 24
f 22 48 23
f 23 48 49
f 24 47 50
f 24 50 25
f 25 50 44
f 26 51 52
f 26 52 27
f 27 53 54
f 27 54 28
f 28 54 32
f 29 34 30
f 30 34 55
f 30 55 36
f 30 36 31
f 31 36 35
f 32 54 33
f 33 54 55
f 33 55 34
f 36 55 53
f 36 53 56
f 36 56 37
f 37 56 38
f 38 42 39
f 38 56 57
f 38 57 58
f 38 58 59
f 38 59 40
f 38 40 42
f 40 59 41
f 41 59 43
f 43 59 60
f 43 60 57
f 43 57 61
f 43 61 62
f 44 50 47
f 44 47 45
f 45 47 46
f 48 63 64
f 48 64 49
f 51 63 52
f 51 64 63
f 53 55 54
f 53 62 56
f 56 62 61
f 56 61 57
f 57 60 58
f 58 60 59

