# https://github.com/mikedh/trimesh
v 0.10630998 -0.07312053 -0.01946708
v 0.10630998 -0.07087918 -0.01956259
v 0.10607866 -0.06875400 -0.01994460
v 0.10607866 -0.07676733 -0.01998461
v 0.10635894 -0.07550356 -0.01979748
v 0.10897055 -0.07288817 -0.02014207
v 0.11281456 -0.06199310 -0.02023241
v 0.11259731 -0.06015978 -0.02018724
v 0.11292854 -0.05756990 -0.02044278
v 0.11292854 -0.05529738 -0.02086351
v 0.10607866 -0.06687817 -0.02048150
v 0.10607866 -0.07797160 -0.02037438
v 0.10745051 -0.07597960 -0.02027500
v 0.10837447 -0.07483766 -0.02032791
v 0.10982276 -0.07117386 -0.02022467
v 0.11061530 -0.07513519 -0.02177339
v 0.11292854 -0.06400493 -0.02060410
v 0.11292854 -0.05242414 -0.03265058
v 0.11245315 -0.05258849 -0.02184566
v 0.10607866 -0.06422879 -0.02168176
v 0.10607866 -0.08103468 -0.02767015
v 0.10609543 -0.08129254 -0.02208055
v 0.10641526 -0.07982475 -0.02140815
v 0.10892294 -0.07752956 -0.02164046
v 0.11026865 -0.07687784 -0.02207926
v 0.11292854 -0.07063549 -0.02213734
v 0.11292854 -0.06895801 -0.02173596
v 0.11092775 -0.05242130 -0.03265058
v 0.11109404 -0.05242130 -0.02342407
v 0.11292854 -0.06685834 -0.03187622
v 0.11290306 -0.06555773 -0.03261573
v 0.11114768 -0.06860098 -0.03265058
v 0.10607866 -0.06273833 -0.02263551
v 0.10607866 -0.07926654 -0.03009777
v 0.10804928 -0.07678717 -0.02979190
v 0.11036856 -0.07688634 -0.02526576
v 0.10699658 -0.08136904 -0.02532383
v 0.10737743 -0.08104035 -0.02292461
v 0.10973292 -0.07832012 -0.02355184
v 0.11052679 -0.07719520 -0.02355184
v 0.11292854 -0.07278333 -0.02357765
v 0.11269118 -0.07198427 -0.02243031
v 0.10772811 -0.05750756 -0.03265058
v 0.11027133 -0.05242130 -0.02577296
v 0.10981472 -0.05367091 -0.02450430
v 0.11292854 -0.06902319 -0.03040106
v 0.11210382 -0.06943972 -0.03134965
v 0.11015802 -0.07001777 -0.03265058
v 0.10607866 -0.06186275 -0.02357636
v 0.10607866 -0.07709036 -0.03170328
v 0.10753433 -0.07590309 -0.03128770
v 0.11006750 -0.07424262 -0.02946279
v 0.10775291 -0.08086184 -0.02441009
v 0.11208303 -0.07168107 -0.02897882
v 0.11292854 -0.07266149 -0.02576909
v 0.11234923 -0.07432762 -0.02459722
v 0.10701067 -0.05901502 -0.03265058
v 0.10607866 -0.06093334 -0.02579490
v 0.10751153 -0.05801477 -0.02579490
v 0.10756383 -0.05812528 -0.02446558
v 0.11292854 -0.07081400 -0.02820058
v 0.11255172 -0.07018495 -0.02985385
v 0.10624696 -0.07532504 -0.03265058
v 0.10607866 -0.06125354 -0.03265058
f 1 2 3
f 1 3 4
f 1 4 5
f 1 5 6
f 1 6 7
f 1 7 8
f 1 8 2
f 2 8 9
f 2 9 3
f 3 9 10
f 3 10 11
f 3 11 20
f 3 20 33
f 3 33 49
f 3 49 58
f 3 58 64
f 3 64 50
f 3 50 34
f 3 34 21
f 3 21 12
f 3 12 4
f 4 12 13
f 4 13 14
f 4 14 5
f 5 14 6
f 6 15 7
f 6 14 16
f 6 16 15
f 7 17 9
f 7 9 8
f 7 15 17
f 9 17 27
f 9 27 26
f 9 26 41
f 9 41 55
f 9 55 61
f 9 61 46
f 9 46 30
f 9 30 18
f 9 18 10
f 10 18 19
f 10 19 11
f 11 19 20
f 12 21 22
f 12 22 23
f 12 23 24
f 12 24 13
f 13 24 25
f 13 25 14
f 14 25 16
f 15 16 26
f 15 26 27
f 15 27 17
f 16 25 26
f 18 28 29
f 18 29 19
f 18 30 31
f 18 31 32
f 18 32 48
f 18 48 63
f 18 63 64
f 18 64 57
f 18 57 43
f 18 43 28
f 19 29 20
f 20 29 33
f 21 34 35
f 21 35 36
f 21 36 37
f 21 37 22
f 22 37 38
f 22 38 25
f 22 25 23
f 23 25 24
f 25 38 39
f 25 39 40
f 25 40 41
f 25 41 42
f 25 42 26
f 26 42 41
f 28 43 44
f 28 44 29
f 29 44 45
f 29 45 33
f 30 46 47
f 30 47 31
f 31 47 32
f 32 47 48
f 33 45 49
f 34 50 51
f 34 51 47
f 34 47 35
f 35 52 36
f 35 47 52
f 36 53 37
f 36 52 54
f 36 54 55
f 36 55 56
f 36 56 53
f 37 53 38
f 38 53 39
f 39 53 56
f 39 56 40
f 40 56 41
f 41 56 55
f 43 57 58
f 43 58 59
f 43 59 44
f 44 59 60
f 44 60 45
f 45 60 49
f 46 61 62
f 46 62 47
f 47 62 52
f 47 51 48
f 48 51 63
f 49 60 58
f 50 63 51
f 50 64 63
f 52 62 54
f 54 62 61
f 54 61 55
f 57 64 58
f 58 60 59

