# https://github.com/mikedh/trimesh
v 0.09759522 0.07901232 -0.02949791
v 0.09875341 0.08126166 -0.02949791
v 0.09875017 0.07606628 -0.03483643
v 0.09804365 0.07512408 -0.03252512
v 0.09789848 0.07591368 -0.02949791
v 0.10104074 0.08017348 -0.02949791
v 0.10228602 0.07765210 -0.03571098
v 0.10106977 0.07400273 -0.03687485
v 0.10071812 0.06998842 -0.03607838
v 0.09866307 0.07241691 -0.03381475
v 0.09854370 0.07216477 -0.02979216
v 0.09992449 0.06840260 -0.02949791
v 0.10453142 0.07648430 -0.03252512
v 0.10396039 0.07706820 -0.02949791
v 0.10525730 0.07489185 -0.03539288
v 0.10429913 0.07394965 -0.03683950
v 0.10430237 0.06952395 -0.03760473
v 0.10206020 0.07063867 -0.03700060
v 0.12142348 0.01842613 -0.03605290
v 0.11898452 0.01995887 -0.03275609
v 0.11893613 0.01919581 -0.03025163
v 0.11102563 0.04604855 -0.02949791
v 0.10605738 0.07472597 -0.02949791
v 0.10740268 0.07214487 -0.03467615
v 0.11025782 0.06683006 -0.03623044
v 0.10757044 0.07000169 -0.03666771
v 0.10878347 0.06615990 -0.03741815
v 0.10654775 0.06728126 -0.03776747
v 0.12447864 0.02019110 -0.03789406
v 0.12447864 0.01682704 -0.03733513
v 0.12386245 0.01482984 -0.03512164
v 0.12101054 0.01654836 -0.03383201
v 0.12056856 0.01616352 -0.03025163
v 0.12275588 0.01368858 -0.03022204
v 0.12088472 0.04604855 -0.02949791
v 0.11042880 0.06795141 -0.02949791
v 0.10951258 0.06891352 -0.03476327
v 0.11204832 0.06488594 -0.03476327
v 0.11400981 0.06010858 -0.03630031
v 0.11548416 0.05716254 -0.03656251
v 0.11645845 0.05326103 -0.03711156
v 0.11327103 0.05606773 -0.03786529
v 0.11999430 0.03926072 -0.03772555
v 0.12223647 0.03589003 -0.03725376
v 0.12403988 0.03364733 -0.03656908
v 0.12742088 0.01851902 -0.03648278
v 0.12672081 0.01587157 -0.03619674
v 0.13055023 0.01347625 -0.03050725
v 0.12546261 0.01350280 -0.03167441
v 0.13005341 0.01907638 -0.03022204
v 0.11993301 0.04923346 -0.02949791
v 0.12863391 0.02454380 -0.03022204
v 0.11278711 0.06357880 -0.02949791
v 0.11649072 0.05634641 -0.03545206
v 0.11906518 0.05002968 -0.03615236
v 0.12065889 0.04406462 -0.03667511
v 0.12086536 0.04149679 -0.03711567
v 0.12359790 0.03777443 -0.03580550
v 0.12568845 0.02946714 -0.03601920
v 0.12356242 0.03927399 -0.03137276
v 0.11987494 0.04932635 -0.03252430
v 0.11847802 0.05241173 -0.03364461
v 0.11728435 0.05477386 -0.02949791
f 1 2 3
f 1 3 4
f 1 4 5
f 1 5 12
f 1 12 22
f 1 22 35
f 1 35 51
f 1 51 63
f 1 63 53
f 1 53 36
f 1 36 23
f 1 23 14
f 1 14 6
f 1 6 2
f 2 6 7
f 2 7 3
f 3 7 8
f 3 8 9
f 3 9 10
f 3 10 4
f 4 10 11
f 4 11 5
f 5 11 12
f 6 13 7
f 6 14 13
f 7 13 15
f 7 15 16
f 7 16 8
f 8 16 17
f 8 17 18
f 8 18 9
f 9 18 19
f 9 19 20
f 9 20 10
f 10 20 21
f 10 21 12
f 10 12 11
f 12 21 22
f 13 23 24
f 13 24 15
f 13 14 23
f 15 24 25
f 15 25 26
f 15 26 16
f 16 26 27
f 16 27 28
f 16 28 17
f 17 28 29
f 17 29 18
f 18 29 30
f 18 30 19
f 19 30 31
f 19 31 32
f 19 32 20
f 20 32 21
f 21 32 33
f 21 33 22
f 22 33 34
f 22 34 35
f 23 36 37
f 23 37 24
f 24 37 25
f 25 38 39
f 25 39 40
f 25 40 27
f 25 27 26
f 25 37 38
f 27 40 41
f 27 41 42
f 27 42 28
f 28 42 29
f 29 42 43
f 29 43 44
f 29 44 45
f 29 45 46
f 29 46 30
f 30 47 31
f 30 46 47
f 31 34 32
f 31 47 48
f 31 48 49
f 31 49 34
f 32 34 33
f 34 49 48
f 34 48 50
f 34 50 35
f 35 50 52
f 35 52 51
f 36 53 38
f 36 38 37
f 38 53 54
f 38 54 39
f 39 54 40
f 40 54 55
f 40 55 41
f 41 55 56
f 41 56 57
f 41 57 43
f 41 43 42
f 43 57 44
f 44 57 45
f 45 57 56
f 45 56 58
f 45 58 59
f 45 59 46
f 46 59 50
f 46 50 48
f 46 48 47
f 50 59 58
f 50 58 52
f 51 52 60
f 51 60 61
f 51 61 62
f 51 62 63
f 52 58 60
f 53 63 54
f 54 62 55
f 54 63 62
f 55 62 61
f 55 61 58
f 55 58 56
f 58 61 60

