# https://github.com/mikedh/trimesh
v 0.11807988 -0.02847115 -0.03198155
v 0.11827241 -0.02847115 -0.02791743
v 0.11821990 -0.02799251 -0.03198155
v 0.12698581 -0.02847115 -0.03198155
v 0.11839493 -0.02847115 -0.02596199
v 0.11887334 -0.02690829 -0.02689189
v 0.11872311 -0.02647553 -0.03198155
v 0.12795575 -0.02373763 -0.03198155
v 0.13084222 -0.02373763 -0.02972076
v 0.13157734 -0.02579441 -0.02837028
v 0.13006336 -0.02847115 -0.02883350
v 0.11874353 -0.02847115 -0.02447554
v 0.11901336 -0.02722151 -0.02539853
v 0.11857288 -0.02799668 -0.02600578
v 0.11953552 -0.02601404 -0.02600578
v 0.12071986 -0.02404622 -0.02579491
v 0.12005768 -0.02373763 -0.03198155
v 0.11901627 -0.02570962 -0.03198155
v 0.13195656 -0.02373763 -0.02862147
v 0.13237079 -0.02700466 -0.02698292
v 0.13081743 -0.02847115 -0.02778030
v 0.11894772 -0.02847115 -0.02403883
v 0.12087448 -0.02427325 -0.02421052
v 0.12110201 -0.02373763 -0.02483967
v 0.12092114 -0.02373763 -0.02579491
v 0.13267854 -0.02373763 -0.02754639
v 0.13249185 -0.02579441 -0.02724910
v 0.13297901 -0.02373763 -0.02573730
v 0.13262020 -0.02579441 -0.02579491
v 0.13238246 -0.02704776 -0.02579491
v 0.13171007 -0.02847115 -0.02581450
v 0.11934882 -0.02847115 -0.02333593
v 0.11944363 -0.02799668 -0.02354795
v 0.12050254 -0.02579580 -0.02349840
v 0.12131933 -0.02504936 -0.02271485
v 0.12165918 -0.02373763 -0.02339355
v 0.12148269 -0.02373763 -0.02369314
v 0.13264062 -0.02373763 -0.02408031
v 0.13236204 -0.02700327 -0.02460921
v 0.13169548 -0.02847115 -0.02547458
v 0.12020791 -0.02847115 -0.02216405
v 0.12095032 -0.02654364 -0.02225624
v 0.12271079 -0.02373763 -0.02206035
v 0.13163714 -0.02373763 -0.02291880
v 0.13110768 -0.02847115 -0.02354680
v 0.12047483 -0.02847115 -0.02188520
v 0.12060464 -0.02803607 -0.02193590
v 0.12213612 -0.02579580 -0.02170890
v 0.12230094 -0.02847115 -0.02071448
v 0.12240158 -0.02816024 -0.02076402
v 0.12438667 -0.02373763 -0.02127564
v 0.13050530 -0.02373763 -0.02221245
v 0.13002106 -0.02847115 -0.02232998
v 0.12272100 -0.02847115 -0.02053587
v 0.12377408 -0.02847115 -0.02022936
v 0.12448440 -0.02579441 -0.02071793
v 0.12663138 -0.02373763 -0.02101522
v 0.12887318 -0.02373763 -0.02156025
v 0.12652929 -0.02847115 -0.02053587
v 0.12858730 -0.02847115 -0.02149227
v 0.12896799 -0.02847115 -0.02170429
v 0.12448440 -0.02847115 -0.02021092
v 0.12448440 -0.02775389 -0.02033192
v 0.12618652 -0.02847115 -0.02040566
f 1 2 3
f 1 3 7
f 1 7 18
f 1 18 17
f 1 17 8
f 1 8 4
f 1 4 11
f 1 11 21
f 1 21 31
f 1 31 40
f 1 40 45
f 1 45 53
f 1 53 61
f 1 61 60
f 1 60 59
f 1 59 64
f 1 64 62
f 1 62 55
f 1 55 54
f 1 54 49
f 1 49 46
f 1 46 41
f 1 41 32
f 1 32 22
f 1 22 12
f 1 12 5
f 1 5 2
f 2 5 6
f 2 6 7
f 2 7 3
f 4 8 9
f 4 9 10
f 4 10 11
f 5 12 13
f 5 13 14
f 5 14 6
f 6 14 13
f 6 13 15
f 6 15 16
f 6 16 17
f 6 17 18
f 6 18 7
f 8 17 25
f 8 25 24
f 8 24 37
f 8 37 36
f 8 36 43
f 8 43 51
f 8 51 57
f 8 57 58
f 8 58 52
f 8 52 44
f 8 44 38
f 8 38 28
f 8 28 26
f 8 26 19
f 8 19 9
f 9 19 10
f 10 19 20
f 10 20 11
f 11 20 21
f 12 22 23
f 12 23 13
f 13 23 15
f 15 23 16
f 16 23 24
f 16 24 25
f 16 25 17
f 19 26 27
f 19 27 20
f 20 27 28
f 20 28 29
f 20 29 30
f 20 30 31
f 20 31 21
f 22 32 33
f 22 33 34
f 22 34 23
f 23 34 35
f 23 35 36
f 23 36 37
f 23 37 24
f 26 28 27
f 28 38 39
f 28 39 29
f 29 39 30
f 30 39 31
f 31 39 40
f 32 41 42
f 32 42 35
f 32 35 33
f 33 35 34
f 35 43 36
f 35 42 43
f 38 44 39
f 39 44 45
f 39 45 40
f 41 46 47
f 41 47 42
f 42 47 43
f 43 47 48
f 43 48 49
f 43 49 50
f 43 50 51
f 44 52 53
f 44 53 45
f 46 49 47
f 47 49 48
f 49 54 50
f 50 54 51
f 51 55 56
f 51 56 57
f 51 54 55
f 52 58 59
f 52 59 60
f 52 60 61
f 52 61 53
f 55 62 63
f 55 63 56
f 56 63 57
f 57 63 62
f 57 62 64
f 57 64 58
f 58 64 59

