# https://github.com/mikedh/trimesh
v 0.12678385 0.04603862 -0.02357391
v 0.12778139 0.04247841 -0.02257022
v 0.12753201 0.04388956 -0.02341206
v 0.12798561 0.04324425 -0.02406523
v 0.12798561 0.04324425 -0.02487738
v 0.12642647 0.04603862 -0.02543573
v 0.12596108 0.04603862 -0.02221299
v 0.12801703 0.04098347 -0.02229631
v 0.13007297 0.03586070 -0.02245625
v 0.13020847 0.03627670 -0.02395222
v 0.13020847 0.03627670 -0.02484386
v 0.13041662 0.03476706 -0.02509861
v 0.12365575 0.03893289 -0.03021860
v 0.12271123 0.04149207 -0.03021860
v 0.12094000 0.04599159 -0.03021860
v 0.11095284 0.04603862 -0.03021860
v 0.12448441 0.04603862 -0.02182607
v 0.12635970 0.04373522 -0.02208274
v 0.12691149 0.04163613 -0.02201666
v 0.12823106 0.03925040 -0.02218617
v 0.13022025 0.03436576 -0.02231834
v 0.13084076 0.03252539 -0.02355189
v 0.13042840 0.03497432 -0.02334310
v 0.13101357 0.03102163 -0.02355189
v 0.13093109 0.03102163 -0.02411790
v 0.13059924 0.03252539 -0.02526334
v 0.12598464 0.03102163 -0.03021860
v 0.11585806 0.03102163 -0.03021860
v 0.11597980 0.03102163 -0.02790186
v 0.11117474 0.04603862 -0.02800626
v 0.12448245 0.03701020 -0.02091432
v 0.12002887 0.04603862 -0.02099573
v 0.12223995 0.03925040 -0.02061072
v 0.12672494 0.03925040 -0.02174658
v 0.12448245 0.03476706 -0.02072948
v 0.12448245 0.03102163 -0.02043546
v 0.12746524 0.03102163 -0.02129549
v 0.12941711 0.03102163 -0.02186055
v 0.13033022 0.03252539 -0.02223502
v 0.13042840 0.03102163 -0.02217085
v 0.13066993 0.03102163 -0.02531793
v 0.11638628 0.03102163 -0.02624596
v 0.11159496 0.04603862 -0.02661756
v 0.11534161 0.04603862 -0.02174754
v 0.11775495 0.04600775 -0.02091815
v 0.12223995 0.03701020 -0.02046898
v 0.12223995 0.03476706 -0.02047760
v 0.12223995 0.03252539 -0.02050058
v 0.12223995 0.03102163 -0.02052740
v 0.11678491 0.03102163 -0.02523078
v 0.11182667 0.04603862 -0.02585904
v 0.11498031 0.04603862 -0.02193525
v 0.11987374 0.03102163 -0.02154546
v 0.11999941 0.03252539 -0.02126580
v 0.11999941 0.03476706 -0.02101967
v 0.11999941 0.03701020 -0.02079556
v 0.11999941 0.03925040 -0.02069691
v 0.11782171 0.03102163 -0.02347048
v 0.11672599 0.03172720 -0.02488887
v 0.11235293 0.04538303 -0.02516278
v 0.11330727 0.04603862 -0.02342930
v 0.11445404 0.04500084 -0.02248498
v 0.11870929 0.03102163 -0.02227524
f 1 2 3
f 1 3 4
f 1 4 5
f 1 5 6
f 1 6 16
f 1 16 30
f 1 30 43
f 1 43 51
f 1 51 61
f 1 61 52
f 1 52 44
f 1 44 32
f 1 32 17
f 1 17 7
f 1 7 2
f 2 4 3
f 2 7 8
f 2 8 9
f 2 9 4
f 4 9 10
f 4 10 11
f 4 11 5
f 5 11 12
f 5 12 13
f 5 13 6
f 6 13 14
f 6 14 15
f 6 15 16
f 7 17 18
f 7 18 19
f 7 19 8
f 8 20 21
f 8 21 9
f 8 19 20
f 9 21 22
f 9 22 23
f 9 23 10
f 10 23 11
f 11 23 22
f 11 22 12
f 12 22 24
f 12 24 25
f 12 25 26
f 12 26 27
f 12 27 13
f 13 27 28
f 13 28 16
f 13 16 15
f 13 15 14
f 16 28 29
f 16 29 30
f 17 31 18
f 17 32 33
f 17 33 31
f 18 31 19
f 19 31 34
f 19 34 21
f 19 21 20
f 21 34 31
f 21 31 35
f 21 35 36
f 21 36 37
f 21 37 38
f 21 38 39
f 21 39 40
f 21 40 24
f 21 24 22
f 24 40 38
f 24 38 37
f 24 37 36
f 24 36 49
f 24 49 53
f 24 53 63
f 24 63 58
f 24 58 50
f 24 50 42
f 24 42 29
f 24 29 28
f 24 28 27
f 24 27 41
f 24 41 25
f 25 41 26
f 26 41 27
f 29 42 30
f 30 42 43
f 31 33 35
f 32 44 45
f 32 45 33
f 33 45 46
f 33 46 36
f 33 36 35
f 36 46 47
f 36 47 48
f 36 48 49
f 38 40 39
f 42 50 51
f 42 51 43
f 44 52 53
f 44 53 54
f 44 54 55
f 44 55 56
f 44 56 45
f 45 56 49
f 45 49 57
f 45 57 46
f 46 57 47
f 47 57 48
f 48 57 49
f 49 56 55
f 49 55 54
f 49 54 53
f 50 58 59
f 50 59 60
f 50 60 51
f 51 60 61
f 52 61 62
f 52 62 63
f 52 63 53
f 58 63 61
f 58 61 60
f 58 60 59
f 61 63 62

