# https://github.com/mikedh/trimesh
v -0.00574994 -0.02826008 0.00735212
v -0.00603645 -0.02038095 0.00735323
v 0.00568110 -0.02043417 0.00735212
v 0.01129080 -0.02826008 0.00735212
v -0.00827968 -0.02826008 0.00851724
v -0.02012094 -0.02825854 0.00890598
v -0.01924514 -0.02623766 0.00874805
v 0.01129080 -0.02038018 0.00842226
v -0.01577773 -0.02086457 0.00873701
v -0.01503542 -0.02038018 0.00883309
v 0.00787549 -0.02197143 0.00735212
v 0.01129080 -0.02493102 0.00735212
v 0.01129080 -0.02826008 0.01294136
v -0.00827968 -0.02826008 0.01338090
v -0.02197022 -0.02825854 0.01154874
v -0.02151441 -0.02825854 0.00987893
v -0.01664702 -0.02038018 0.00963376
v 0.01129080 -0.02038018 0.01271607
v 0.00628342 -0.02038018 0.01725173
v 0.00557691 -0.02038018 0.01773545
v 0.00419646 -0.02175546 0.01771115
v 0.00262067 -0.02187039 0.01813744
v 0.00262067 -0.02298650 0.01767139
v 0.00087231 -0.02341613 0.01791435
v -0.00118859 -0.02466954 0.01765593
v -0.00263090 -0.02482844 0.01776526
v -0.00437600 -0.02574940 0.01678237
v -0.00479274 -0.02826008 0.01350901
v 0.01129080 -0.02187039 0.01287289
v -0.00697085 -0.02826008 0.01344827
v -0.01836282 -0.02825854 0.01316223
v -0.01981490 -0.02825854 0.01304517
v -0.02133860 -0.02825854 0.01259900
v -0.01593727 -0.02038018 0.01660567
v -0.01694005 -0.02038018 0.01466529
v -0.01738609 -0.02038018 0.01300320
v -0.01745446 -0.02038018 0.01169894
v -0.01753260 -0.02082678 0.01039246
v 0.00422576 -0.02038018 0.01818272
v 0.00087231 -0.02187039 0.01839697
v -0.00263090 -0.02362131 0.01829536
v -0.00071651 -0.02378945 0.01799829
v -0.00437600 -0.02487549 0.01778735
v -0.00611784 -0.02482767 0.01777741
v -0.00611784 -0.02826008 0.01347808
v -0.00786945 -0.02470657 0.01769017
v -0.00894711 -0.02456927 0.01757089
v -0.00956896 -0.02368764 0.01790994
v -0.01136615 -0.02311608 0.01776085
v -0.01136615 -0.02187039 0.01832187
v -0.01302009 -0.02183336 0.01785361
v -0.01310474 -0.02038018 0.01835610
v -0.01491495 -0.02038018 0.01767139
v 0.00236020 -0.02038018 0.01842568
v -0.00087930 -0.02187039 0.01848973
v -0.00263090 -0.02187039 0.01853391
v -0.00437600 -0.02362131 0.01833622
v -0.00611784 -0.02362131 0.01835500
v -0.00786945 -0.02362131 0.01824567
v -0.00962106 -0.02187039 0.01854053
v -0.01136615 -0.02038018 0.01858802
v -0.00962106 -0.02038018 0.01863441
v -0.00611784 -0.02187039 0.01859133
v -0.00786945 -0.02187039 0.01859133
f 1 2 3
f 1 3 11
f 1 11 12
f 1 12 4
f 1 4 13
f 1 13 28
f 1 28 45
f 1 45 30
f 1 30 14
f 1 14 5
f 1 5 6
f 1 6 7
f 1 7 2
f 2 8 3
f 2 7 9
f 2 9 10
f 2 10 8
f 3 8 11
f 4 12 8
f 4 8 18
f 4 18 29
f 4 29 13
f 5 14 15
f 5 15 16
f 5 16 6
f 6 16 7
f 7 16 17
f 7 17 9
f 8 12 11
f 8 10 17
f 8 17 37
f 8 37 36
f 8 36 35
f 8 35 34
f 8 34 53
f 8 53 52
f 8 52 61
f 8 61 62
f 8 62 54
f 8 54 39
f 8 39 20
f 8 20 19
f 8 19 18
f 9 17 10
f 13 19 20
f 13 20 21
f 13 21 22
f 13 22 23
f 13 23 24
f 13 24 25
f 13 25 26
f 13 26 27
f 13 27 28
f 13 29 19
f 14 30 31
f 14 31 32
f 14 32 33
f 14 33 15
f 15 33 34
f 15 34 35
f 15 35 36
f 15 36 37
f 15 37 38
f 15 38 16
f 16 38 17
f 17 38 37
f 18 19 29
f 20 39 21
f 21 39 22
f 22 40 24
f 22 24 23
f 22 39 40
f 24 41 42
f 24 42 25
f 24 40 41
f 25 42 26
f 26 42 41
f 26 41 43
f 26 43 27
f 27 43 44
f 27 44 31
f 27 31 45
f 27 45 28
f 30 45 31
f 31 44 32
f 32 44 46
f 32 46 47
f 32 47 48
f 32 48 49
f 32 49 50
f 32 50 33
f 33 50 51
f 33 51 52
f 33 52 53
f 33 53 34
f 39 54 40
f 40 54 55
f 40 55 41
f 41 56 57
f 41 57 43
f 41 55 56
f 43 58 44
f 43 57 58
f 44 58 59
f 44 59 46
f 46 59 47
f 47 59 48
f 48 50 49
f 48 59 50
f 50 59 60
f 50 60 61
f 50 61 52
f 50 52 51
f 54 56 55
f 54 62 56
f 56 63 57
f 56 62 63
f 57 63 58
f 58 63 64
f 58 64 60
f 58 60 59
f 60 64 61
f 61 64 62
f 62 64 63

