# https://github.com/mikedh/trimesh
v -0.00287596 0.00105710 -0.00704908
v -0.00423318 0.00058267 -0.00704908
v -0.00605661 -0.00205901 0.00613215
v -0.00483439 -0.00163409 0.00613215
v -0.00263295 -0.00144432 0.00613215
v -0.00088692 -0.00150620 0.00613215
v 0.00077811 -0.00176885 0.00613215
v -0.00090492 0.00065693 -0.00704908
v -0.00757944 -0.00134668 -0.00704908
v -0.00859285 -0.00201363 -0.00704908
v -0.00752724 -0.00304363 0.00613215
v 0.00262314 -0.00249906 0.00613215
v 0.00180592 -0.00171935 0.00364583
v 0.00191213 -0.00164234 0.00262395
v 0.00205613 -0.00156533 0.00087437
v 0.00289314 -0.00216353 -0.00087263
v 0.00293994 -0.00217865 -0.00437309
v 0.00102831 -0.00094513 -0.00704908
v -0.00912746 -0.00293224 -0.00704908
v -0.01007248 -0.00622025 0.00613215
v -0.00918326 -0.00472682 0.00613215
v -0.00840385 -0.00385222 0.00613215
v 0.00376256 -0.00324578 0.00613215
v 0.00278694 -0.00224328 0.00262395
v 0.00293094 -0.00221303 0.00087437
v 0.00391556 -0.00303950 -0.00087263
v 0.00393176 -0.00305325 -0.00437309
v 0.00370856 -0.00329528 -0.00658588
v 0.00265014 -0.00246193 -0.00704908
v -0.00971427 -0.00434178 -0.00704908
v -0.01057829 -0.00679369 0.00375551
v -0.01059089 -0.00752665 0.00613215
v 0.00463917 -0.00421389 0.00613215
v 0.00383816 -0.00317564 0.00437354
v 0.00389396 -0.00311789 0.00262395
v 0.00477058 -0.00413688 0.00262395
v 0.00541859 -0.00493172 -0.00521692
v 0.00458877 -0.00432390 -0.00664007
v 0.00510358 -0.00530302 -0.00700779
v 0.00592620 -0.00753215 -0.00704908
v -0.01116330 -0.00783881 -0.00704908
v -0.01092389 -0.00962102 0.00613215
v 0.00535378 -0.00508437 0.00613215
v 0.00542039 -0.00501011 0.00262395
v 0.00594960 -0.00612261 0.00262395
v 0.00668221 -0.00811659 0.00613215
v 0.00627720 -0.00787182 -0.00612267
v 0.00560399 -0.00615699 -0.00664007
v 0.00639960 -0.00962102 -0.00658588
v 0.00610080 -0.01137160 -0.00704908
v -0.01137390 -0.00927310 -0.00704908
v -0.01069709 -0.01125471 0.00613215
v 0.00589739 -0.00619962 0.00612957
v 0.00662461 -0.01113782 0.00613215
v 0.00697741 -0.00938037 0.00592700
v 0.00701521 -0.01049287 0.00524704
v 0.00561659 -0.01299154 -0.00704908
v -0.01111830 -0.01097143 -0.00704908
v -0.01063589 -0.01254874 -0.00004300
v -0.01043969 -0.01278801 0.00397356
v -0.01017328 -0.01299154 0.00613215
v 0.00600360 -0.01260924 0.00613215
v 0.00599100 -0.01299154 0.00437999
v -0.01036048 -0.01299154 -0.00704908
f 1 2 3
f 1 3 4
f 1 4 5
f 1 5 6
f 1 6 7
f 1 7 8
f 1 8 18
f 1 18 29
f 1 29 40
f 1 40 50
f 1 50 57
f 1 57 64
f 1 64 58
f 1 58 51
f 1 51 41
f 1 41 30
f 1 30 19
f 1 19 10
f 1 10 9
f 1 9 2
f 2 9 3
f 3 9 10
f 3 10 11
f 3 11 22
f 3 22 21
f 3 21 20
f 3 20 32
f 3 32 42
f 3 42 52
f 3 52 61
f 3 61 62
f 3 62 54
f 3 54 46
f 3 46 43
f 3 43 33
f 3 33 23
f 3 23 12
f 3 12 7
f 3 7 6
f 3 6 5
f 3 5 4
f 7 12 13
f 7 13 8
f 8 13 14
f 8 14 15
f 8 15 16
f 8 16 17
f 8 17 18
f 10 19 20
f 10 20 21
f 10 21 22
f 10 22 11
f 12 14 13
f 12 23 14
f 14 23 15
f 15 23 24
f 15 24 25
f 15 25 16
f 16 25 26
f 16 26 17
f 17 26 27
f 17 27 18
f 18 27 28
f 18 28 29
f 19 30 31
f 19 31 20
f 20 31 32
f 23 33 34
f 23 34 25
f 23 25 24
f 25 34 35
f 25 35 26
f 26 35 36
f 26 36 37
f 26 37 27
f 27 37 28
f 28 37 38
f 28 38 29
f 29 38 39
f 29 39 40
f 30 41 31
f 31 41 42
f 31 42 32
f 33 43 36
f 33 36 35
f 33 35 34
f 36 43 44
f 36 44 37
f 37 44 45
f 37 45 46
f 37 46 47
f 37 47 48
f 37 48 39
f 37 39 38
f 39 48 40
f 40 48 47
f 40 47 49
f 40 49 50
f 41 51 42
f 42 51 52
f 43 46 53
f 43 53 44
f 44 53 45
f 45 53 46
f 46 54 55
f 46 55 47
f 47 55 49
f 49 55 56
f 49 56 50
f 50 56 57
f 51 58 52
f 52 58 59
f 52 59 60
f 52 60 61
f 54 62 56
f 54 56 55
f 56 62 63
f 56 63 57
f 57 63 61
f 57 61 64
f 58 64 59
f 59 64 60
f 60 64 61
f 61 63 62

