# https://github.com/mikedh/trimesh
v 0.00482624 -0.04749593 -0.00177367
v 0.00482624 -0.04742828 -0.00240192
v 0.02090633 -0.05040109 -0.00266581
v 0.01129228 -0.04687740 -0.00177367
v 0.00482624 -0.03186454 -0.00177367
v 0.00482624 -0.04726785 -0.00304322
v 0.02090633 -0.04997778 -0.00450799
v 0.02090633 -0.05029091 -0.00314594
v 0.02090633 -0.03702733 -0.00266581
v 0.01129228 -0.03065648 -0.00177367
v 0.00493013 -0.03183748 -0.00177367
v 0.01323933 -0.03103919 -0.00757148
v 0.01290564 -0.03119383 -0.00757148
v 0.01130330 -0.03196699 -0.00757148
v 0.00620193 -0.03428840 -0.00722302
v 0.00482624 -0.03538049 -0.00722302
v 0.00482624 -0.04709389 -0.00355796
v 0.00482624 -0.04680975 -0.00435760
v 0.02090633 -0.04954094 -0.00570092
v 0.02090633 -0.04186538 -0.00757148
v 0.01715389 -0.03259518 -0.00757148
v 0.01705158 -0.03237096 -0.00757148
v 0.01780396 -0.03286965 -0.00266581
v 0.01656521 -0.03203077 -0.00266581
v 0.01612764 -0.03115130 -0.00757148
v 0.01487158 -0.03084397 -0.00757148
v 0.01073036 -0.03066228 -0.00177367
v 0.00967734 -0.03067581 -0.00177367
v 0.01129228 -0.03238256 -0.00757148
v 0.00482624 -0.04537940 -0.00722302
v 0.00482624 -0.04595154 -0.00619410
v 0.02090633 -0.04900166 -0.00701474
v 0.02090633 -0.04903259 -0.00694720
v 0.02090633 -0.04938438 -0.00612316
v 0.02090633 -0.04863828 -0.00757148
v 0.01129228 -0.04490004 -0.00757148
v 0.02090633 -0.04867500 -0.00751813
v 0.02090633 -0.04896494 -0.00708511
v 0.00482624 -0.04572153 -0.00661861
f 1 2 3
f 1 3 4
f 1 4 10
f 1 10 27
f 1 27 28
f 1 28 11
f 1 11 5
f 1 5 16
f 1 16 30
f 1 30 39
f 1 39 31
f 1 31 18
f 1 18 17
f 1 17 6
f 1 6 2
f 2 6 7
f 2 7 8
f 2 8 3
f 3 8 7
f 3 7 19
f 3 19 34
f 3 34 33
f 3 33 32
f 3 32 38
f 3 38 37
f 3 37 35
f 3 35 20
f 3 20 9
f 3 9 10
f 3 10 4
f 5 11 12
f 5 12 13
f 5 13 14
f 5 14 15
f 5 15 16
f 6 17 7
f 7 17 18
f 7 18 19
f 9 20 21
f 9 21 22
f 9 22 23
f 9 23 10
f 10 23 24
f 10 24 25
f 10 25 26
f 10 26 27
f 11 28 12
f 12 28 26
f 12 26 25
f 12 25 22
f 12 22 21
f 12 21 20
f 12 20 35
f 12 35 36
f 12 36 29
f 12 29 14
f 12 14 13
f 14 29 16
f 14 16 15
f 16 29 36
f 16 36 30
f 18 31 32
f 18 32 33
f 18 33 34
f 18 34 19
f 22 25 23
f 23 25 24
f 26 28 27
f 30 35 37
f 30 37 38
f 30 38 39
f 30 36 35
f 31 39 38
f 31 38 32

