# https://github.com/mikedh/trimesh
v 0.00437101 -0.01838529 -0.01878362
v 0.00612081 -0.01838529 -0.01852240
v 0.00437101 -0.02012217 -0.01862562
v 0.00262122 -0.02012217 -0.01876360
v -0.00261494 -0.01838529 -0.01876150
v 0.00726528 -0.01838529 -0.01780825
v 0.01129080 -0.02825761 -0.01363293
v 0.00278991 -0.02204367 -0.01824011
v 0.00087142 -0.02187259 -0.01868671
v -0.00262486 -0.02361915 -0.01864563
v -0.00437465 -0.02361915 -0.01867513
v -0.00611783 -0.01838529 -0.01872990
v 0.00825099 -0.01838529 -0.01630518
v 0.01129080 -0.01872744 -0.01264598
v 0.01129080 -0.02006611 -0.01331272
v 0.01129080 -0.02179527 -0.01351075
v 0.01129080 -0.02825761 -0.00913424
v -0.00043514 -0.02825761 -0.01365610
v -0.00437465 -0.02493172 -0.01801786
v -0.00262486 -0.02484860 -0.01793781
v -0.00087837 -0.02361915 -0.01839811
v -0.00612114 -0.02361915 -0.01859507
v -0.00962073 -0.02187259 -0.01865090
v -0.01311701 -0.02012217 -0.01860877
v -0.01485689 -0.01838529 -0.01851818
v 0.00940870 -0.01838529 -0.01444609
v 0.01129080 -0.01838625 -0.01136199
v 0.01129080 -0.02191125 -0.00897730
v 0.01056972 -0.01927934 -0.00873398
v -0.00252894 -0.01838625 -0.00802300
v 0.00642181 -0.02825761 -0.00899731
v -0.00612114 -0.02825761 -0.01360976
v -0.00786432 -0.02825761 -0.01359080
v -0.00962073 -0.02825761 -0.01355604
v -0.01836971 -0.02825761 -0.01327270
v -0.00612114 -0.02487276 -0.01793044
v -0.00786432 -0.02361915 -0.01846130
v -0.01156899 -0.02167348 -0.01858454
v -0.01489658 -0.02014150 -0.01808317
v -0.01599144 -0.01957124 -0.01776612
v -0.01620314 -0.01838529 -0.01795256
v -0.00088168 -0.01838625 -0.00815572
v 0.00786399 -0.01838625 -0.00901943
v -0.01740054 -0.01838529 -0.01443977
v 0.01129080 -0.02035801 -0.00897625
v 0.00939547 -0.01838819 -0.00938388
v 0.01127757 -0.01870908 -0.00993160
v -0.00461612 -0.01838625 -0.00810621
v -0.02114490 -0.02825761 -0.00869185
v -0.01974903 -0.02825761 -0.00866447
v -0.02016581 -0.02825761 -0.01305888
v -0.00786432 -0.02471811 -0.01777349
v -0.00958765 -0.02371194 -0.01807895
v -0.01137053 -0.02320643 -0.01793992
v -0.02169729 -0.02825761 -0.01264598
v -0.01309386 -0.02188322 -0.01804209
v -0.02250107 -0.02825761 -0.01137358
v -0.01698045 -0.01838529 -0.01661906
v -0.01746338 -0.01838625 -0.01312313
v -0.01735092 -0.01838625 -0.01136937
v -0.01637183 -0.01838625 -0.00948710
v -0.01487012 -0.01838625 -0.00884880
v -0.01581613 -0.01907733 -0.00872661
v -0.02194206 -0.02825761 -0.00946182
f 1 2 3
f 1 3 4
f 1 4 5
f 1 5 12
f 1 12 25
f 1 25 41
f 1 41 58
f 1 58 44
f 1 44 26
f 1 26 13
f 1 13 6
f 1 6 2
f 2 6 7
f 2 7 3
f 3 7 8
f 3 8 9
f 3 9 4
f 4 9 10
f 4 10 11
f 4 11 5
f 5 11 12
f 6 13 14
f 6 14 15
f 6 15 16
f 6 16 7
f 7 16 15
f 7 15 14
f 7 14 27
f 7 27 45
f 7 45 28
f 7 28 17
f 7 17 31
f 7 31 50
f 7 50 49
f 7 49 64
f 7 64 57
f 7 57 55
f 7 55 51
f 7 51 35
f 7 35 34
f 7 34 33
f 7 33 32
f 7 32 18
f 7 18 19
f 7 19 20
f 7 20 21
f 7 21 8
f 8 21 9
f 9 21 10
f 10 20 19
f 10 19 11
f 10 21 20
f 11 19 22
f 11 22 23
f 11 23 12
f 12 23 24
f 12 24 25
f 13 26 14
f 14 26 27
f 17 28 29
f 17 29 30
f 17 30 31
f 18 32 19
f 19 32 33
f 19 33 34
f 19 34 35
f 19 35 36
f 19 36 22
f 22 36 37
f 22 37 38
f 22 38 23
f 23 38 24
f 24 38 39
f 24 39 25
f 25 39 40
f 25 40 41
f 26 30 42
f 26 42 43
f 26 43 27
f 26 44 30
f 27 43 46
f 27 46 47
f 27 47 45
f 28 45 29
f 29 45 47
f 29 47 46
f 29 46 43
f 29 43 42
f 29 42 30
f 30 48 49
f 30 49 50
f 30 50 31
f 30 44 48
f 35 51 36
f 36 51 52
f 36 52 37
f 37 52 53
f 37 53 38
f 38 53 54
f 38 54 55
f 38 55 56
f 38 56 39
f 39 55 40
f 39 56 55
f 40 55 41
f 41 55 57
f 41 57 58
f 44 58 57
f 44 57 59
f 44 59 60
f 44 60 61
f 44 61 62
f 44 62 48
f 48 62 63
f 48 63 49
f 49 63 61
f 49 61 64
f 51 55 54
f 51 54 53
f 51 53 52
f 57 64 60
f 57 60 59
f 60 64 61
f 61 63 62

