# https://github.com/mikedh/trimesh
v -0.03495325 -0.06196915 -0.00177367
v -0.03495325 -0.06187703 -0.00262508
v -0.03411576 -0.06195103 -0.00262508
v -0.03411576 -0.06204164 -0.00177367
v -0.03495325 -0.04921849 -0.00177367
v -0.03495325 -0.06151156 -0.00439352
v -0.03411576 -0.06159915 -0.00437485
v -0.03236696 -0.06201144 -0.00262508
v -0.03326549 -0.06208695 -0.00177367
v -0.02045186 -0.04670400 -0.00177367
v -0.03233006 -0.04834861 -0.00722356
v -0.03495325 -0.04937102 -0.00722356
v -0.03495325 -0.06131070 -0.00516545
v -0.03495325 -0.06126540 -0.00533829
v -0.03411576 -0.06131221 -0.00545352
v -0.03302418 -0.06131675 -0.00545352
v -0.02712057 -0.06148589 -0.00420307
v -0.02886937 -0.06192536 -0.00262508
v -0.03151670 -0.06213074 -0.00177367
v -0.03236696 -0.06211715 -0.00177367
v -0.02045186 -0.04691694 -0.00215243
v -0.03063946 -0.04815380 -0.00722356
v -0.02045186 -0.06050576 -0.00177367
v -0.03495325 -0.06054352 -0.00722356
v -0.03411576 -0.06100111 -0.00632840
v -0.03495325 -0.06060997 -0.00706565
v -0.03411576 -0.06062960 -0.00722356
v -0.02712057 -0.06117026 -0.00507743
v -0.02626037 -0.06126389 -0.00446661
v -0.02626037 -0.06142397 -0.00402116
v -0.02712057 -0.06186042 -0.00262508
v -0.02886937 -0.06206278 -0.00177367
v -0.02045186 -0.04757690 -0.00301024
v -0.02909791 -0.04843318 -0.00722356
v -0.02271025 -0.06124577 -0.00180568
v -0.02045186 -0.06048009 -0.00189743
v -0.02271025 -0.06124577 -0.00177367
v -0.03459980 -0.06058127 -0.00722356
v -0.02716032 -0.06018862 -0.00722356
v -0.02712057 -0.06071115 -0.00612302
v -0.02626037 -0.06109777 -0.00489551
v -0.02537036 -0.06135903 -0.00383231
v -0.02537036 -0.06102074 -0.00470613
v -0.02537036 -0.06162331 -0.00262508
v -0.02712057 -0.06194952 -0.00177367
v -0.02045186 -0.04846339 -0.00405050
v -0.02885376 -0.04851021 -0.00722356
v -0.02370815 -0.06133789 -0.00248371
v -0.02434975 -0.06126691 -0.00358799
v -0.02318436 -0.06110984 -0.00297237
v -0.02202465 -0.06086217 -0.00248371
v -0.02045186 -0.06033360 -0.00260054
v -0.02537036 -0.06170185 -0.00177367
v -0.02645909 -0.06006026 -0.00722356
v -0.02626037 -0.06055560 -0.00612302
v -0.02537036 -0.06039250 -0.00612302
v -0.02045186 -0.05128143 -0.00722356
v -0.02435117 -0.05958001 -0.00716808
v -0.02045186 -0.05975972 -0.00397155
v -0.02537036 -0.05984731 -0.00722356
v -0.02454564 -0.05961021 -0.00722356
v -0.02045186 -0.05798674 -0.00722356
v -0.02439943 -0.05956340 -0.00722356
f 1 2 3
f 1 3 4
f 1 4 9
f 1 9 20
f 1 20 19
f 1 19 32
f 1 32 45
f 1 45 53
f 1 53 37
f 1 37 23
f 1 23 10
f 1 10 5
f 1 5 12
f 1 12 24
f 1 24 26
f 1 26 14
f 1 14 13
f 1 13 6
f 1 6 2
f 2 6 7
f 2 7 3
f 3 8 9
f 3 9 4
f 3 7 8
f 5 10 11
f 5 11 12
f 6 13 7
f 7 13 14
f 7 14 15
f 7 15 16
f 7 16 8
f 8 16 17
f 8 17 18
f 8 18 19
f 8 19 20
f 8 20 9
f 10 21 22
f 10 22 11
f 10 23 36
f 10 36 52
f 10 52 59
f 10 59 62
f 10 62 57
f 10 57 46
f 10 46 33
f 10 33 21
f 11 22 34
f 11 34 47
f 11 47 57
f 11 57 62
f 11 62 63
f 11 63 61
f 11 61 60
f 11 60 54
f 11 54 39
f 11 39 27
f 11 27 38
f 11 38 24
f 11 24 12
f 14 25 15
f 14 26 25
f 15 25 16
f 16 25 27
f 16 27 28
f 16 28 17
f 17 28 29
f 17 29 30
f 17 30 31
f 17 31 18
f 18 31 32
f 18 32 19
f 21 33 34
f 21 34 22
f 23 35 36
f 23 37 35
f 24 38 26
f 25 26 38
f 25 38 27
f 27 39 40
f 27 40 28
f 28 40 41
f 28 41 29
f 29 42 30
f 29 41 43
f 29 43 42
f 30 42 31
f 31 44 45
f 31 45 32
f 31 42 44
f 33 46 47
f 33 47 34
f 35 48 49
f 35 49 50
f 35 50 51
f 35 51 52
f 35 52 36
f 35 37 53
f 35 53 44
f 35 44 48
f 39 54 55
f 39 55 40
f 40 43 41
f 40 55 43
f 42 43 49
f 42 49 44
f 43 55 56
f 43 56 49
f 44 53 45
f 44 49 48
f 46 57 47
f 49 56 58
f 49 58 59
f 49 59 52
f 49 52 50
f 50 52 51
f 54 60 56
f 54 56 55
f 56 60 61
f 56 61 58
f 58 61 63
f 58 63 62
f 58 62 59

