# https://github.com/mikedh/trimesh
v -0.01150159 -0.01299096 -0.01890048
v -0.01319452 -0.01299096 -0.01877287
v -0.01311822 -0.01137131 -0.01888075
v -0.01486839 -0.00787436 -0.01888655
v -0.01486839 -0.00706250 -0.01889236
v -0.01393131 -0.00706250 -0.01889236
v -0.01311822 -0.00706250 -0.01889004
v 0.00262133 -0.00706250 -0.01882739
v 0.00262133 -0.01299096 -0.01879143
v -0.01467286 -0.01299096 -0.01799213
v -0.01628950 -0.00962399 -0.01806406
v -0.01486839 -0.00962399 -0.01875663
v -0.01567909 -0.00706250 -0.01877751
v 0.00356079 -0.00706250 -0.01873574
v 0.00437149 -0.00962399 -0.01867658
v 0.00437149 -0.01137131 -0.01867078
v 0.00437149 -0.01299096 -0.01843296
v -0.01530235 -0.01299096 -0.01661975
v -0.01597476 -0.01098308 -0.01780072
v -0.01674016 -0.00793181 -0.01818819
v -0.01668054 -0.00706250 -0.01841208
v -0.01777499 -0.00714375 -0.01760002
v -0.01729573 -0.00706250 -0.01807334
v 0.00437149 -0.00706250 -0.01859653
v 0.00437149 -0.00787436 -0.01864758
v 0.00573776 -0.00962399 -0.01802461
v 0.00568769 -0.01137131 -0.01801881
v 0.00547786 -0.01299096 -0.01780304
v -0.01602006 -0.01299096 -0.01324160
v -0.01788706 -0.00733293 -0.01661975
v -0.01803013 -0.00706250 -0.01598055
v 0.00532764 -0.00706250 -0.01808958
v 0.00566623 -0.00787436 -0.01798981
v 0.00623134 -0.00962399 -0.01661975
v 0.00612404 -0.01137131 -0.01661975
v 0.00575684 -0.01299096 -0.01661975
v -0.01624181 -0.01299096 -0.01131702
v -0.01802297 -0.00706250 -0.01487035
v 0.00589037 -0.00706250 -0.01690978
v 0.00610020 -0.00787436 -0.01661975
v 0.00631479 -0.00962399 -0.00704908
v 0.00632910 -0.01299096 -0.01143999
v 0.00613835 -0.01299096 -0.01325088
v -0.01592707 -0.01299096 -0.01009081
v -0.01773207 -0.00706250 -0.01296434
v -0.01795621 -0.00706250 -0.01424275
v 0.00594044 -0.00706250 -0.01487035
v 0.00602866 -0.00787436 -0.00704908
v 0.00610020 -0.01137131 -0.00704908
v 0.00605966 -0.01299096 -0.00962562
v -0.01661616 -0.00706250 -0.01142375
v -0.01749125 -0.00706250 -0.01228105
v -0.01488031 -0.01299096 -0.00930892
v -0.01132991 -0.00892704 -0.00704908
v -0.01116300 -0.00784244 -0.00704908
v 0.00577830 -0.00706250 -0.00704908
v 0.00561616 -0.01299096 -0.00704908
v -0.01467763 -0.00706250 -0.00996900
v -0.01124407 -0.01051999 -0.00704908
v -0.01141575 -0.00962399 -0.00704908
v -0.01036183 -0.01299096 -0.00704908
v -0.01099371 -0.01142354 -0.00704908
v -0.00869989 -0.00706250 -0.00704908
v -0.01043575 -0.00708282 -0.00705488
f 1 2 3
f 1 3 4
f 1 4 5
f 1 5 6
f 1 6 7
f 1 7 8
f 1 8 9
f 1 9 17
f 1 17 28
f 1 28 36
f 1 36 43
f 1 43 42
f 1 42 50
f 1 50 57
f 1 57 61
f 1 61 53
f 1 53 44
f 1 44 37
f 1 37 29
f 1 29 18
f 1 18 10
f 1 10 2
f 2 10 11
f 2 11 12
f 2 12 4
f 2 4 3
f 4 12 13
f 4 13 5
f 5 13 21
f 5 21 23
f 5 23 31
f 5 31 38
f 5 38 46
f 5 46 45
f 5 45 52
f 5 52 51
f 5 51 58
f 5 58 63
f 5 63 56
f 5 56 47
f 5 47 39
f 5 39 32
f 5 32 24
f 5 24 14
f 5 14 8
f 5 8 7
f 5 7 6
f 8 14 15
f 8 15 16
f 8 16 9
f 9 16 17
f 10 18 19
f 10 19 11
f 11 20 21
f 11 21 12
f 11 19 22
f 11 22 23
f 11 23 20
f 12 21 13
f 14 24 25
f 14 25 15
f 15 25 26
f 15 26 16
f 16 26 27
f 16 27 17
f 17 27 28
f 18 29 19
f 19 29 22
f 20 23 21
f 22 29 30
f 22 30 31
f 22 31 23
f 24 32 33
f 24 33 25
f 25 33 26
f 26 33 34
f 26 34 27
f 27 34 35
f 27 35 28
f 28 35 36
f 29 37 30
f 30 37 31
f 31 37 38
f 32 39 33
f 33 39 40
f 33 40 34
f 34 41 42
f 34 42 35
f 34 40 41
f 35 42 43
f 35 43 36
f 37 44 45
f 37 45 46
f 37 46 38
f 39 47 40
f 40 47 48
f 40 48 41
f 41 49 42
f 41 48 56
f 41 56 63
f 41 63 55
f 41 55 54
f 41 54 60
f 41 60 59
f 41 59 62
f 41 62 61
f 41 61 57
f 41 57 49
f 42 49 50
f 44 51 52
f 44 52 45
f 44 53 54
f 44 54 55
f 44 55 51
f 47 56 48
f 49 57 50
f 51 55 58
f 53 59 60
f 53 60 54
f 53 61 62
f 53 62 59
f 55 63 64
f 55 64 58
f 58 64 63

