# https://github.com/mikedh/trimesh
v 0.10228872 -0.07048646 -0.00758760
v 0.10049647 -0.07077336 -0.00758760
v 0.10210628 -0.07147590 0.00344300
v 0.10419415 -0.07174685 0.00087322
v 0.10369077 -0.07136555 -0.00685446
v 0.10421949 -0.07276081 -0.00758760
v 0.08854360 -0.08156272 -0.00758760
v 0.08831893 -0.07659594 -0.00721617
v 0.08950476 -0.07731686 0.00344300
v 0.10333434 -0.07704099 0.00303270
v 0.10486646 -0.07519822 0.00281567
v 0.10475835 -0.07252173 0.00282755
v 0.09961807 -0.07994922 0.00323785
v 0.10500160 -0.07240771 -0.00087487
v 0.10498133 -0.07242855 -0.00263268
v 0.10490869 -0.07256587 -0.00437430
v 0.10483436 -0.07392434 -0.00590321
v 0.10317894 -0.07537723 -0.00756709
v 0.09680723 -0.08037221 -0.00757249
v 0.09360955 -0.08133099 -0.00758760
v 0.09185783 -0.08190111 -0.00684474
v 0.09020240 -0.08194403 -0.00687174
v 0.08833751 -0.08239399 -0.00515927
v 0.08831386 -0.07842645 -0.00266400
v 0.08973111 -0.08249821 0.00288586
v 0.09185614 -0.08245774 0.00303270
v 0.10358097 -0.07733403 0.00087322
v 0.10481916 -0.07596206 0.00087322
v 0.10152858 -0.07879059 0.00303270
v 0.10557086 -0.07436082 -0.00087487
v 0.10543403 -0.07362886 0.00087322
v 0.09764169 -0.08099873 0.00303162
v 0.09999139 -0.08025696 0.00073502
v 0.10502017 -0.07476910 -0.00420478
v 0.10337826 -0.07632375 -0.00589565
v 0.10181236 -0.07740391 -0.00684042
v 0.09951165 -0.07883718 -0.00753578
v 0.09795082 -0.08044332 -0.00611160
v 0.09533423 -0.08120471 -0.00685446
v 0.09370076 -0.08227629 -0.00489042
v 0.09185783 -0.08263921 -0.00437538
v 0.09010950 -0.08273729 -0.00437538
v 0.08907232 -0.08293591 -0.00264348
v 0.08980713 -0.08295553 0.00072206
v 0.09185614 -0.08292978 0.00087322
v 0.09360786 -0.08270173 0.00087322
v 0.09435787 -0.08212180 0.00285023
v 0.10220426 -0.07858461 0.00087322
v 0.10367050 -0.07742230 -0.00087487
v 0.10487491 -0.07601233 -0.00087487
v 0.09606059 -0.08206295 0.00065296
v 0.10229041 -0.07866062 -0.00087487
v 0.09681398 -0.08177851 -0.00195029
v 0.09993734 -0.08029497 -0.00178725
v 0.10403030 -0.07683992 -0.00263268
v 0.10292049 -0.07755717 -0.00433219
v 0.10076167 -0.07883473 -0.00588270
v 0.09894577 -0.08051443 -0.00437430
v 0.09710284 -0.08134938 -0.00437430
v 0.09521261 -0.08218433 -0.00338418
v 0.08980713 -0.08301070 -0.00102603
v 0.09550991 -0.08227629 -0.00087487
v 0.10223974 -0.07860791 -0.00264348
v 0.10120931 -0.07913143 -0.00425013
f 1 2 3
f 1 3 4
f 1 4 5
f 1 5 6
f 1 6 20
f 1 20 7
f 1 7 2
f 2 7 8
f 2 8 9
f 2 9 3
f 3 10 11
f 3 11 12
f 3 12 4
f 3 9 13
f 3 13 10
f 4 12 14
f 4 14 5
f 5 14 15
f 5 15 16
f 5 16 6
f 6 16 17
f 6 17 18
f 6 18 19
f 6 19 20
f 7 20 21
f 7 21 22
f 7 22 23
f 7 23 8
f 8 23 24
f 8 24 9
f 9 24 25
f 9 25 26
f 9 26 13
f 10 27 28
f 10 28 11
f 10 13 29
f 10 29 27
f 11 28 30
f 11 30 31
f 11 31 12
f 12 31 14
f 13 26 32
f 13 32 33
f 13 33 29
f 14 31 15
f 15 31 30
f 15 30 16
f 16 30 17
f 17 30 34
f 17 34 35
f 17 35 18
f 18 35 36
f 18 36 37
f 18 37 19
f 19 37 38
f 19 38 39
f 19 39 20
f 20 39 40
f 20 40 21
f 21 41 42
f 21 42 22
f 21 40 41
f 22 42 23
f 23 42 43
f 23 43 25
f 23 25 24
f 25 43 44
f 25 44 45
f 25 45 26
f 26 45 46
f 26 46 47
f 26 47 32
f 27 29 48
f 27 48 49
f 27 49 28
f 28 49 50
f 28 50 30
f 29 33 48
f 30 50 34
f 32 47 51
f 32 51 33
f 33 52 48
f 33 51 53
f 33 53 54
f 33 54 52
f 34 50 55
f 34 55 35
f 35 56 36
f 35 55 56
f 36 56 57
f 36 57 37
f 37 57 38
f 38 57 58
f 38 58 59
f 38 59 39
f 39 59 40
f 40 59 60
f 40 60 41
f 41 60 46
f 41 46 45
f 41 45 61
f 41 61 43
f 41 43 42
f 43 61 44
f 44 61 45
f 46 62 51
f 46 51 47
f 46 60 62
f 48 52 49
f 49 55 50
f 49 52 63
f 49 63 55
f 51 62 53
f 52 54 63
f 53 59 58
f 53 58 54
f 53 62 60
f 53 60 59
f 54 58 64
f 54 64 63
f 55 63 56
f 56 63 64
f 56 64 57
f 57 64 58

