# https://github.com/mikedh/trimesh
v -0.08564964 -0.02035285 0.00773388
v -0.10308927 -0.02687510 0.00658321
v -0.10543039 -0.02088168 0.00816785
v -0.10234652 -0.02035285 0.01362555
v -0.08632702 -0.02038286 0.01259090
v -0.07806771 -0.02232940 0.01207787
v -0.06988564 -0.02443348 0.01166280
v -0.04699725 -0.03133078 0.01103376
v -0.04472742 -0.03458253 0.00921109
v -0.07743786 -0.02662006 0.00658321
v -0.09731963 -0.03219716 0.00755685
v -0.10253072 -0.02807528 0.01137063
v -0.10393896 -0.02582869 0.01157343
v -0.06604120 -0.04164111 0.00658321
v -0.06577381 -0.04962233 0.00723030
v -0.08632108 -0.03868566 0.00722944
v -0.10487185 -0.02160554 0.01238379
v -0.10302985 -0.02290699 0.01474613
v -0.10059365 -0.02362335 0.01535971
v -0.09534690 -0.02187558 0.01498160
v -0.09274432 -0.02112172 0.01474957
v -0.08923263 -0.02111422 0.01486730
v -0.04472742 -0.03350236 0.01236059
v -0.04472742 -0.04993363 0.00761615
v -0.07531658 -0.02861162 0.00658321
v -0.09736123 -0.03214466 0.01185787
v -0.10165131 -0.02651880 0.01465762
v -0.04472742 -0.05866497 0.00774763
v -0.05155473 -0.05611458 0.00851932
v -0.05538728 -0.05431430 0.00866884
v -0.06970738 -0.04710195 0.00996130
v -0.07336762 -0.04574049 0.00756630
v -0.08027811 -0.04202367 0.00827698
v -0.09797325 -0.02362335 0.01536229
v -0.08953567 -0.03511886 0.01406467
v -0.08586949 -0.03680662 0.01402944
v -0.08054550 -0.03851313 0.01399936
v -0.04899968 -0.05159889 0.01322939
v -0.04555335 -0.05072875 0.01331189
v -0.09534690 -0.02362335 0.01535025
v -0.09272650 -0.02362335 0.01530041
v -0.09010016 -0.02362335 0.01523596
v -0.04472742 -0.03677662 0.01323283
v -0.09488343 -0.03346111 0.01271894
v -0.04525031 -0.05659840 0.01130618
v -0.04891650 -0.05596081 0.01079057
v -0.04825100 -0.05732976 0.00849612
v -0.04472742 -0.04722947 0.01335056
v -0.05252920 -0.05460685 0.01076651
v -0.05781160 -0.05251027 0.01054308
v -0.06204227 -0.05077376 0.00992091
v -0.07207228 -0.04565798 0.01086447
v -0.07905407 -0.04215119 0.01102087
v -0.08917321 -0.03671661 0.01199537
v -0.08219737 -0.04023090 0.01221021
v -0.07809148 -0.04208368 0.01233395
v -0.07449659 -0.04378269 0.01225575
v -0.06657003 -0.04726697 0.01227724
v -0.04967706 -0.05396550 0.01242247
v -0.05162603 -0.05159889 0.01309619
v -0.04683682 -0.05353418 0.01291057
v -0.04472742 -0.04378269 0.01334282
v -0.08569123 -0.03847938 0.01215435
v -0.07142461 -0.04532793 0.01202717
f 1 2 3
f 1 3 4
f 1 4 5
f 1 5 6
f 1 6 7
f 1 7 8
f 1 8 9
f 1 9 10
f 1 10 2
f 2 11 12
f 2 12 13
f 2 13 3
f 2 10 25
f 2 25 14
f 2 14 15
f 2 15 16
f 2 16 11
f 3 13 17
f 3 17 4
f 4 17 18
f 4 18 19
f 4 19 20
f 4 20 21
f 4 21 22
f 4 22 5
f 5 22 6
f 6 22 7
f 7 22 8
f 8 22 23
f 8 23 9
f 9 23 43
f 9 43 62
f 9 62 48
f 9 48 28
f 9 28 24
f 9 24 25
f 9 25 10
f 11 16 26
f 11 26 12
f 12 27 13
f 12 26 27
f 13 27 18
f 13 18 17
f 14 25 24
f 14 24 28
f 14 28 15
f 15 28 29
f 15 29 30
f 15 30 31
f 15 31 32
f 15 32 16
f 16 33 26
f 16 32 33
f 18 27 19
f 19 34 22
f 19 22 20
f 19 27 35
f 19 35 36
f 19 36 37
f 19 37 38
f 19 38 39
f 19 39 34
f 20 22 21
f 22 34 40
f 22 40 41
f 22 41 42
f 22 42 43
f 22 43 23
f 26 33 44
f 26 44 27
f 27 44 35
f 28 45 46
f 28 46 47
f 28 47 29
f 28 48 45
f 29 47 46
f 29 46 49
f 29 49 50
f 29 50 30
f 30 50 51
f 30 51 31
f 31 52 53
f 31 53 32
f 31 51 52
f 32 53 33
f 33 53 54
f 33 54 44
f 34 39 40
f 35 55 56
f 35 56 36
f 35 44 55
f 36 56 57
f 36 57 58
f 36 58 59
f 36 59 60
f 36 60 37
f 37 60 38
f 38 60 61
f 38 61 39
f 39 61 45
f 39 45 48
f 39 48 42
f 39 42 41
f 39 41 40
f 42 48 62
f 42 62 43
f 44 54 63
f 44 63 55
f 45 61 59
f 45 59 46
f 46 59 49
f 49 58 50
f 49 59 58
f 50 58 64
f 50 64 57
f 50 57 56
f 50 56 55
f 50 55 52
f 50 52 51
f 52 55 53
f 53 55 63
f 53 63 54
f 57 64 58
f 59 61 60

