# https://github.com/mikedh/trimesh
v -0.02889655 0.03191349 -0.00706040
v -0.02696742 0.03135961 -0.00734413
v -0.02890556 0.03104127 -0.00853142
v -0.02891681 0.02570493 -0.00669744
v -0.01835950 0.02938516 -0.00669744
v -0.02509232 0.02956366 -0.00941008
v -0.00592484 0.02559452 -0.00732431
v -0.02887404 0.02942933 -0.01054689
v -0.02890556 0.02759657 -0.01183133
v -0.02892131 0.02364400 -0.01261796
v -0.02711599 0.02981023 -0.00973789
v -0.02892131 0.01314797 -0.01298987
v -0.02889205 0.01311485 -0.00836336
v -0.02508782 0.02028762 -0.00669744
v -0.00592484 0.01763233 -0.00669744
v -0.02316094 0.02806580 -0.01057309
v -0.00592484 0.02427884 -0.00941711
v -0.00592484 0.02304596 -0.01094053
v -0.02711599 0.02861783 -0.01101082
v -0.02536695 0.02711814 -0.01166262
v -0.01905057 0.02454750 -0.01227544
v -0.02829103 0.02611528 -0.01233104
v -0.02536695 0.01837206 -0.01288571
v -0.02711599 0.01837206 -0.01286207
v -0.02892131 0.01842542 -0.01283267
v -0.02711599 0.02361824 -0.01262627
v -0.00962553 0.01837206 -0.01304035
v -0.01137457 0.01837206 -0.01303396
v -0.01312587 0.01662395 -0.01309403
v -0.02536695 0.02838230 -0.01085490
v -0.02892131 0.01492552 -0.01294322
v -0.02536695 0.01487400 -0.01300457
v -0.02536695 0.01312037 -0.01304802
v -0.01836851 0.01311485 -0.00841384
v -0.01594416 0.01508929 -0.00669744
v -0.01945125 0.01519970 -0.00669744
v -0.02155596 0.01648042 -0.00669744
v -0.02394880 0.01890570 -0.00669744
v -0.01137457 0.01311485 -0.01320266
v -0.00592484 0.01311485 -0.00868096
v -0.00592484 0.02162171 -0.01208182
v -0.00592484 0.02002265 -0.01272915
v -0.02536695 0.02361824 -0.01262627
v -0.00962553 0.02012385 -0.01284928
v -0.01137457 0.02012385 -0.01288827
v -0.02536695 0.01662395 -0.01295089
v -0.02711599 0.01662395 -0.01292533
v -0.02892131 0.01662395 -0.01289785
v -0.00787648 0.01837206 -0.01303396
v -0.00592484 0.01744832 -0.01308253
v -0.00592484 0.01487400 -0.01318605
v -0.01137457 0.01662395 -0.01310681
v -0.01312587 0.01487400 -0.01315218
v -0.01487492 0.01487400 -0.01313237
v -0.01836851 0.01312037 -0.01313876
v -0.02361790 0.01312037 -0.01307294
v -0.01662396 0.01311485 -0.00844963
v -0.01662396 0.01312037 -0.01315857
v -0.01487492 0.01312037 -0.01317646
v -0.01312587 0.01312037 -0.01319116
v -0.01137457 0.01487400 -0.01316241
v -0.00592484 0.01311485 -0.01322567
f 1 2 3
f 1 3 4
f 1 4 5
f 1 5 2
f 2 6 3
f 2 5 7
f 2 7 6
f 3 8 9
f 3 9 10
f 3 10 4
f 3 6 11
f 3 11 8
f 4 10 12
f 4 12 13
f 4 13 14
f 4 14 38
f 4 38 37
f 4 37 36
f 4 36 35
f 4 35 15
f 4 15 5
f 5 15 7
f 6 16 11
f 6 7 17
f 6 17 18
f 6 18 16
f 7 15 40
f 7 40 62
f 7 62 51
f 7 51 50
f 7 50 42
f 7 42 41
f 7 41 18
f 7 18 17
f 8 19 9
f 8 11 19
f 9 19 20
f 9 20 21
f 9 21 22
f 9 22 10
f 10 23 24
f 10 24 25
f 10 25 48
f 10 48 31
f 10 31 12
f 10 22 26
f 10 26 27
f 10 27 28
f 10 28 29
f 10 29 23
f 11 16 30
f 11 30 19
f 12 31 32
f 12 32 33
f 12 33 13
f 13 34 35
f 13 35 36
f 13 36 37
f 13 37 38
f 13 38 14
f 13 33 39
f 13 39 62
f 13 62 40
f 13 40 57
f 13 57 34
f 15 35 40
f 16 18 30
f 18 41 30
f 19 30 41
f 19 41 20
f 20 41 21
f 21 41 42
f 21 42 22
f 22 43 26
f 22 42 44
f 22 44 45
f 22 45 43
f 23 46 24
f 23 29 46
f 24 47 25
f 24 46 47
f 25 47 48
f 26 43 27
f 27 49 50
f 27 50 51
f 27 51 52
f 27 52 28
f 27 43 49
f 28 52 29
f 29 52 53
f 29 53 54
f 29 54 46
f 31 48 32
f 32 46 54
f 32 54 55
f 32 55 56
f 32 56 33
f 32 48 47
f 32 47 46
f 33 56 39
f 34 57 35
f 35 57 40
f 39 55 58
f 39 58 59
f 39 59 60
f 39 60 53
f 39 53 61
f 39 61 51
f 39 51 62
f 39 56 55
f 42 50 49
f 42 49 44
f 43 45 49
f 44 49 45
f 51 61 52
f 52 61 53
f 53 60 59
f 53 59 58
f 53 58 54
f 54 58 55

