# https://github.com/mikedh/trimesh
v 0.00261709 -0.00087478 -0.01891571
v 0.00261709 -0.00332355 -0.01885531
v -0.01276217 -0.00314864 -0.01890061
v -0.01136161 -0.00087478 -0.01888435
v -0.00437898 0.00087497 -0.01888435
v 0.00086723 0.00087497 -0.01886576
v 0.00261709 0.00087497 -0.01867875
v 0.00405795 -0.00056348 -0.01857305
v 0.00436695 -0.00332355 -0.01846270
v -0.01766916 -0.00332355 -0.01770071
v -0.01486469 -0.00297373 -0.01883672
v -0.01311483 -0.00087478 -0.01880188
v -0.00961848 0.00087497 -0.01886112
v -0.00612548 0.00287478 -0.01862880
v -0.00291125 0.00300043 -0.01856956
v -0.00118154 0.00300043 -0.01844063
v -0.00466782 0.00300043 -0.01859279
v 0.00078662 0.00294929 -0.01808867
v 0.00261709 0.00231152 -0.01795741
v 0.00436023 0.00088191 -0.01803640
v 0.00546523 0.00030351 -0.01772742
v 0.00555927 -0.00087478 -0.01784358
v 0.00543500 -0.00332355 -0.01777969
v -0.01883461 -0.00332355 -0.01583057
v -0.02650241 0.00312609 -0.01163381
v -0.02527315 0.00312609 -0.01251893
v -0.01667836 -0.00296868 -0.01819902
v -0.01486469 -0.00087478 -0.01838603
v -0.01105262 0.00087497 -0.01877981
v -0.00787534 0.00287478 -0.01852658
v 0.00192521 0.00312609 -0.01758106
v -0.00961848 0.00287478 -0.01830124
v -0.01113323 0.00289940 -0.01790863
v 0.00376911 0.00195980 -0.01769257
v 0.00780956 0.00284383 -0.01341334
v 0.00617726 -0.00087478 -0.01661928
v 0.00780956 0.00082508 -0.01317638
v 0.00567346 -0.00332355 -0.01661928
v -0.01947947 -0.00332355 -0.01418462
v -0.02545787 0.00312609 -0.01002735
v -0.01973473 -0.00332355 -0.01233307
v -0.01969107 -0.00332355 -0.01137594
v -0.01943581 -0.00332355 -0.01020623
v -0.01280919 0.00212145 -0.01781338
v -0.01328276 0.00104104 -0.01816417
v 0.00662060 0.00312609 -0.00892966
v 0.00780956 0.00284573 -0.00913991
v 0.00780956 0.00039570 -0.01121448
v 0.00562644 -0.00332355 -0.01460744
v -0.02364420 0.00312609 -0.00931298
v -0.01837448 -0.00297373 -0.00938268
v -0.00919529 -0.00312654 -0.00704908
v 0.00351049 -0.00332355 -0.00704908
v -0.00037883 0.00312609 -0.00794117
v -0.00090949 0.00065775 -0.00704908
v 0.00102509 -0.00094424 -0.00704908
v 0.00264732 -0.00245846 -0.00704908
v 0.00780956 0.00098105 -0.00992165
v 0.00543164 -0.00332355 -0.01321006
v -0.02186076 0.00287478 -0.00891921
v -0.00859745 -0.00201203 -0.00704908
v -0.00288102 0.00105746 -0.00704908
v -0.00758313 -0.00134521 -0.00704908
v -0.00423792 0.00058450 -0.00704908
f 1 2 3
f 1 3 4
f 1 4 5
f 1 5 6
f 1 6 7
f 1 7 8
f 1 8 9
f 1 9 2
f 2 9 23
f 2 23 38
f 2 38 49
f 2 49 59
f 2 59 53
f 2 53 43
f 2 43 42
f 2 42 41
f 2 41 39
f 2 39 24
f 2 24 10
f 2 10 3
f 3 10 11
f 3 11 4
f 4 11 12
f 4 12 13
f 4 13 5
f 5 13 14
f 5 14 6
f 6 15 16
f 6 16 7
f 6 14 17
f 6 17 15
f 7 16 18
f 7 18 19
f 7 19 20
f 7 20 8
f 8 20 21
f 8 21 22
f 8 22 9
f 9 22 23
f 10 24 25
f 10 25 26
f 10 26 27
f 10 27 11
f 11 27 28
f 11 28 12
f 12 29 13
f 12 28 29
f 13 29 14
f 14 29 30
f 14 30 17
f 15 31 16
f 15 17 31
f 16 31 18
f 17 30 32
f 17 32 33
f 17 33 26
f 17 26 31
f 18 31 19
f 19 34 20
f 19 31 34
f 20 34 21
f 21 34 35
f 21 35 22
f 22 35 36
f 22 36 23
f 23 36 37
f 23 37 38
f 24 39 25
f 25 40 50
f 25 50 54
f 25 54 46
f 25 46 31
f 25 31 26
f 25 39 41
f 25 41 42
f 25 42 43
f 25 43 40
f 26 33 44
f 26 44 45
f 26 45 28
f 26 28 27
f 28 45 29
f 29 32 30
f 29 45 32
f 31 46 35
f 31 35 34
f 32 45 33
f 33 45 44
f 35 46 47
f 35 47 58
f 35 58 48
f 35 48 37
f 35 37 36
f 37 48 38
f 38 48 49
f 40 43 51
f 40 51 50
f 43 52 51
f 43 53 52
f 46 54 55
f 46 55 56
f 46 56 57
f 46 57 53
f 46 53 47
f 47 53 58
f 48 58 53
f 48 53 59
f 48 59 49
f 50 51 52
f 50 52 60
f 50 60 54
f 52 61 60
f 52 53 57
f 52 57 56
f 52 56 55
f 52 55 62
f 52 62 64
f 52 64 63
f 52 63 61
f 54 62 55
f 54 60 62
f 60 61 63
f 60 63 64
f 60 64 62

