# https://github.com/mikedh/trimesh
v 0.00781545 -0.00025803 0.01176439
v 0.04811511 0.04984755 0.01424839
v 0.02537234 0.03063867 0.01381510
v 0.00781545 0.01922434 0.01331896
v 0.00781545 0.02854725 0.00855272
v 0.00815249 0.00192187 0.00847499
v 0.01441844 0.00532445 0.00920266
v 0.01730628 0.00689301 0.01037769
v 0.01497762 0.00521988 0.01163209
v 0.03513128 0.02438854 0.01234570
v 0.07913075 0.06836466 0.01385479
v 0.07697061 0.07176723 0.01448158
v 0.07348528 0.07043195 0.01458825
v 0.06209475 0.06209844 0.01450060
v 0.03937496 0.04286543 0.01408632
v 0.03577473 0.04111185 0.01400942
v 0.00781545 0.02271541 0.01254416
v 0.06472215 0.06647433 0.01445181
v 0.05060463 0.05606550 0.01402182
v 0.00781545 0.02599733 0.01087879
v 0.01197487 0.03223941 0.00855107
v 0.01356051 0.03447562 0.00745130
v 0.00859678 0.01516216 0.00745047
v 0.07261969 0.07685099 0.00614232
v 0.08607078 0.07380234 0.00733139
v 0.06824579 0.05595288 0.01222746
v 0.08319825 0.07140526 0.01230188
v 0.07999635 0.07216943 0.01405407
v 0.07687869 0.07523416 0.01363897
v 0.06997697 0.07321514 0.01407640
v 0.06999228 0.07001366 0.01457502
v 0.06257733 0.06686045 0.01409211
v 0.05947500 0.06647433 0.01335534
v 0.05584413 0.06527579 0.01252762
v 0.06734956 0.06909665 0.01445016
v 0.06210241 0.07260380 0.01139312
v 0.04548004 0.05950026 0.01051660
v 0.03610411 0.05276749 0.00905217
v 0.02479018 0.04346068 0.00842290
v 0.05864005 0.07257163 0.00870487
v 0.02407779 0.04357329 0.00745047
v 0.05510876 0.07101915 0.00614232
v 0.06330504 0.07101915 0.00614232
v 0.06908840 0.08133950 0.00614232
v 0.08582567 0.07760712 0.00713873
v 0.08561118 0.07480784 0.00990718
v 0.08208755 0.07481588 0.01257641
v 0.07260437 0.07549157 0.01354222
v 0.07697061 0.07784844 0.01221671
v 0.07000761 0.07751864 0.01199758
v 0.06718104 0.07569267 0.01218776
v 0.06403275 0.07191203 0.01273269
v 0.06135938 0.07336797 0.01038513
v 0.06613161 0.07796105 0.00957890
v 0.06336632 0.07788866 0.00652186
v 0.06613161 0.07959397 0.00713955
v 0.06954800 0.07998812 0.00912163
v 0.07176942 0.08168539 0.00706431
v 0.07523944 0.08191866 0.00733636
v 0.07952908 0.08094535 0.00766546
v 0.08315230 0.07823455 0.00940525
v 0.08013423 0.07793692 0.01127404
v 0.07346996 0.07893437 0.01135756
v 0.07693997 0.07986747 0.01033882
f 1 2 3
f 1 3 4
f 1 4 17
f 1 17 20
f 1 20 5
f 1 5 6
f 1 6 7
f 1 7 8
f 1 8 9
f 1 9 10
f 1 10 11
f 1 11 12
f 1 12 2
f 2 13 14
f 2 14 15
f 2 15 3
f 2 12 13
f 3 15 16
f 3 16 4
f 4 16 18
f 4 18 19
f 4 19 17
f 5 20 21
f 5 21 22
f 5 22 23
f 5 23 6
f 6 23 24
f 6 24 25
f 6 25 7
f 7 25 8
f 8 25 26
f 8 26 10
f 8 10 9
f 10 26 11
f 11 26 27
f 11 27 28
f 11 28 12
f 12 28 29
f 12 29 30
f 12 30 31
f 12 31 13
f 13 31 14
f 14 31 18
f 14 18 16
f 14 16 15
f 17 19 32
f 17 32 33
f 17 33 34
f 17 34 20
f 18 31 35
f 18 35 19
f 19 35 32
f 20 34 36
f 20 36 37
f 20 37 21
f 21 37 38
f 21 38 39
f 21 39 22
f 22 39 40
f 22 40 41
f 22 41 42
f 22 42 23
f 23 42 43
f 23 43 24
f 24 44 45
f 24 45 25
f 24 43 42
f 24 42 44
f 25 45 46
f 25 46 27
f 25 27 26
f 27 46 47
f 27 47 28
f 28 47 29
f 29 48 30
f 29 47 49
f 29 49 48
f 30 48 50
f 30 50 51
f 30 51 52
f 30 52 33
f 30 33 32
f 30 32 35
f 30 35 31
f 33 52 34
f 34 52 51
f 34 51 36
f 36 51 53
f 36 53 37
f 37 53 38
f 38 53 40
f 38 40 39
f 40 53 54
f 40 54 55
f 40 55 42
f 40 42 41
f 42 55 44
f 44 56 57
f 44 57 58
f 44 58 59
f 44 59 45
f 44 55 56
f 45 59 60
f 45 60 61
f 45 61 46
f 46 61 47
f 47 61 62
f 47 62 49
f 48 49 63
f 48 63 50
f 49 62 64
f 49 64 63
f 50 63 57
f 50 57 54
f 50 54 51
f 51 54 53
f 54 57 56
f 54 56 55
f 57 63 58
f 58 63 59
f 59 63 64
f 59 64 60
f 60 64 61
f 61 64 62

