# https://github.com/mikedh/trimesh
v -0.00840806 -0.01609339 -0.00719051
v -0.00823237 -0.01633491 -0.00719051
v -0.00943403 -0.01655118 0.00727793
v -0.00998928 -0.01312692 -0.00612407
v -0.01003403 -0.01299268 -0.00612407
v 0.00310966 -0.01609339 -0.00719051
v -0.00793734 -0.01659880 -0.00719051
v -0.00793237 -0.01843398 0.00727793
v -0.00903127 -0.01706921 0.00727793
v -0.01093901 -0.01299211 0.00727793
v -0.01024951 -0.01299211 -0.00027495
v -0.00151632 -0.01299268 -0.00612407
v 0.00553287 -0.01300244 -0.00612407
v 0.00312624 -0.01609741 -0.00719051
v -0.00744839 -0.01885219 0.00727793
v -0.00742684 -0.01684261 -0.00719051
v 0.00572183 -0.01299211 0.00727793
v 0.00572017 -0.01299211 -0.00027495
v 0.00558591 -0.01299268 -0.00448263
v 0.00574171 -0.01299268 -0.00275481
v 0.00575166 -0.01299268 -0.00262451
v 0.00571022 -0.01312348 -0.00262451
v 0.00530912 -0.01409414 -0.00370511
v 0.00547652 -0.01315274 -0.00612407
v 0.00432955 -0.01486573 -0.00612407
v 0.00360027 -0.01885219 0.00727793
v 0.00275496 -0.01648578 -0.00719051
v 0.00538702 -0.01330304 -0.00612407
v -0.00612076 -0.01724877 -0.00719051
v -0.00599811 -0.01727172 -0.00719051
v -0.00544286 -0.01885219 0.00504025
v 0.00546160 -0.01435459 0.00570589
v 0.00583453 -0.01299211 0.00620158
v 0.00579641 -0.01299211 0.00087364
v 0.00599365 -0.01299211 0.00438028
v 0.00594393 -0.01312348 0.00437320
v 0.00546326 -0.01439818 0.00437320
v 0.00251960 -0.01885219 0.00599481
v 0.00087208 -0.01701242 -0.00719051
v -0.00449976 -0.01746791 -0.00719051
v -0.00437213 -0.01748168 -0.00719051
v -0.00445832 -0.01885219 0.00445392
v 0.00094004 -0.01885219 0.00451482
v -0.00087654 -0.01726082 -0.00719051
v -0.00439037 -0.01885219 0.00441852
v -0.00261356 -0.01748684 -0.00719051
v -0.00262019 -0.01885219 0.00373730
v -0.00087654 -0.01885219 0.00394549
v -0.00089312 -0.01885219 0.00394266
f 1 2 3
f 1 3 4
f 1 4 5
f 1 5 12
f 1 12 6
f 1 6 14
f 1 14 27
f 1 27 39
f 1 39 44
f 1 44 46
f 1 46 41
f 1 41 40
f 1 40 30
f 1 30 29
f 1 29 16
f 1 16 7
f 1 7 2
f 2 7 8
f 2 8 9
f 2 9 3
f 3 10 4
f 3 9 8
f 3 8 15
f 3 15 26
f 3 26 17
f 3 17 10
f 4 10 5
f 5 10 11
f 5 11 18
f 5 18 12
f 6 13 14
f 6 12 13
f 7 15 8
f 7 16 15
f 10 17 33
f 10 33 35
f 10 35 34
f 10 34 18
f 10 18 11
f 12 18 19
f 12 19 13
f 13 19 20
f 13 20 21
f 13 21 22
f 13 22 23
f 13 23 24
f 13 24 14
f 14 25 26
f 14 26 27
f 14 24 28
f 14 28 25
f 15 16 29
f 15 29 30
f 15 30 31
f 15 31 42
f 15 42 45
f 15 45 47
f 15 47 49
f 15 49 48
f 15 48 43
f 15 43 38
f 15 38 26
f 17 26 32
f 17 32 33
f 18 34 21
f 18 21 20
f 18 20 19
f 21 34 35
f 21 35 22
f 22 35 23
f 23 28 24
f 23 35 36
f 23 36 37
f 23 37 26
f 23 26 25
f 23 25 28
f 26 38 39
f 26 39 27
f 26 37 32
f 30 40 31
f 31 40 41
f 31 41 42
f 32 37 35
f 32 35 33
f 35 37 36
f 38 43 39
f 39 43 44
f 41 45 42
f 41 46 47
f 41 47 45
f 43 48 46
f 43 46 44
f 46 48 49
f 46 49 47

