# https://github.com/mikedh/trimesh
v 0.01164074 -0.01887099 -0.01088136
v 0.01129080 -0.02093646 -0.01340982
v 0.01130875 -0.03218317 -0.00757341
v 0.01398262 -0.03099415 -0.00757341
v 0.01717690 -0.02160452 -0.00967734
v 0.01728457 -0.02163516 -0.01266422
v 0.01925857 -0.03150285 -0.01376479
v 0.01129978 -0.03130673 -0.01368541
v 0.01129080 -0.03886378 -0.01292375
v 0.01129080 -0.04482117 -0.00772503
v 0.01942008 -0.02381709 -0.01310213
v 0.03238565 -0.03062641 -0.01328407
v 0.05075279 -0.04202022 -0.01399400
v 0.03736551 -0.05471337 -0.00539456
v 0.03736551 -0.04813696 -0.00539456
v 0.04448087 -0.04601019 -0.00539456
v 0.10194212 -0.07014006 -0.00840642
v 0.02988227 -0.02792965 -0.01041402
v 0.03342649 -0.03011157 -0.01253668
v 0.02800697 -0.03850217 -0.01390660
v 0.06860850 -0.05860529 -0.01434807
v 0.01221499 -0.03412606 -0.01370592
v 0.01129080 -0.04300698 -0.01020978
v 0.08037172 -0.06990103 -0.01412243
v 0.08395184 -0.07434456 -0.01325910
v 0.08495678 -0.07755615 -0.01161538
v 0.06089196 -0.06877942 -0.00761443
v 0.08257901 -0.07899034 -0.00903073
v 0.06657169 -0.05069275 -0.01402076
v 0.09448580 -0.06711847 -0.01420091
v 0.09138124 -0.06930652 -0.01450415
v 0.07432411 -0.05860529 -0.01434451
v 0.06184307 -0.06607654 -0.00546056
v 0.04814174 -0.05471337 -0.00539456
v 0.06771123 -0.05995367 -0.00546056
v 0.08831257 -0.08147871 -0.00773484
v 0.10295604 -0.07405036 -0.00877833
v 0.10146657 -0.07143941 -0.01150835
v 0.09696227 -0.06738201 -0.01274984
v 0.09297838 -0.06453816 -0.01223434
v 0.04552170 -0.03673702 -0.01223523
v 0.06844699 -0.06604590 -0.00546056
v 0.04073925 -0.04638406 -0.01405376
v 0.06481304 -0.05860529 -0.01430972
v 0.06210328 -0.05685852 -0.01428386
v 0.08742427 -0.06996232 -0.01450593
v 0.08303662 -0.06817878 -0.01447561
v 0.08483116 -0.07083877 -0.01435521
v 0.08734352 -0.07331489 -0.01410548
v 0.08829463 -0.07694938 -0.01273646
v 0.08667057 -0.07990356 -0.00975850
v 0.09710583 -0.07177037 -0.01382811
v 0.09441402 -0.06991942 -0.01440694
v 0.09095055 -0.07346811 -0.01416881
v 0.09095055 -0.08099452 -0.00868290
v 0.09396538 -0.08071259 -0.00847866
v 0.09692638 -0.07954808 -0.00868736
v 0.10014758 -0.07730486 -0.00889070
v 0.09925031 -0.07354166 -0.01240736
v 0.09226057 -0.07609132 -0.01317705
v 0.09095055 -0.07857357 -0.01165997
v 0.09447683 -0.07362746 -0.01386825
v 0.09430634 -0.07823034 -0.01137189
v 0.09783262 -0.07665519 -0.01126755
f 1 2 3
f 1 3 4
f 1 4 5
f 1 5 6
f 1 6 2
f 2 7 8
f 2 8 9
f 2 9 23
f 2 23 10
f 2 10 3
f 2 6 11
f 2 11 12
f 2 12 13
f 2 13 7
f 3 10 14
f 3 14 15
f 3 15 4
f 4 15 16
f 4 16 5
f 5 16 17
f 5 17 18
f 5 18 6
f 6 18 19
f 6 19 12
f 6 12 11
f 7 20 8
f 7 13 21
f 7 21 20
f 8 22 9
f 8 20 22
f 9 22 24
f 9 24 25
f 9 25 26
f 9 26 23
f 10 27 14
f 10 23 28
f 10 28 27
f 12 19 29
f 12 29 13
f 13 29 30
f 13 30 31
f 13 31 32
f 13 32 21
f 14 27 33
f 14 33 34
f 14 34 16
f 14 16 15
f 16 34 35
f 16 35 17
f 17 36 37
f 17 37 38
f 17 38 39
f 17 39 40
f 17 40 41
f 17 41 18
f 17 35 42
f 17 42 36
f 18 41 19
f 19 41 29
f 20 21 43
f 20 43 22
f 21 44 45
f 21 45 43
f 21 32 31
f 21 31 46
f 21 46 47
f 21 47 44
f 22 43 44
f 22 44 47
f 22 47 48
f 22 48 24
f 23 26 28
f 24 48 49
f 24 49 25
f 25 49 50
f 25 50 26
f 26 50 51
f 26 51 28
f 27 28 36
f 27 36 33
f 28 51 36
f 29 41 30
f 30 40 39
f 30 39 38
f 30 38 52
f 30 52 53
f 30 53 31
f 30 41 40
f 31 54 46
f 31 53 54
f 33 36 42
f 33 42 34
f 34 42 35
f 36 51 55
f 36 55 56
f 36 56 57
f 36 57 37
f 37 57 58
f 37 58 59
f 37 59 38
f 38 59 52
f 43 45 44
f 46 54 48
f 46 48 47
f 48 54 49
f 49 54 50
f 50 54 60
f 50 60 61
f 50 61 51
f 51 61 55
f 52 59 62
f 52 62 53
f 53 62 54
f 54 62 60
f 55 61 56
f 56 63 57
f 56 61 63
f 57 63 64
f 57 64 58
f 58 64 59
f 59 64 62
f 60 62 64
f 60 64 63
f 60 63 61

