# https://github.com/mikedh/trimesh
v 0.04903918 0.05278695 0.00922180
v 0.04903918 0.05865854 0.00922180
v 0.04903918 0.05471059 0.00744914
v 0.04991904 0.05494147 0.00407488
v 0.05342380 0.04789796 0.00922180
v 0.05484918 0.05865854 0.00922180
v 0.04903918 0.05865854 0.00744914
v 0.04991904 0.05497101 0.00406732
v 0.05120580 0.05469089 0.00406732
v 0.05239716 0.05237880 0.00512748
v 0.05520471 0.04748107 0.00922180
v 0.05736725 0.05161503 0.00922180
v 0.05468609 0.05702706 0.00406732
v 0.05377932 0.05865854 0.00744914
v 0.04991904 0.05702706 0.00406732
v 0.05337160 0.05451144 0.00406732
v 0.05287826 0.05237880 0.00512748
v 0.05665456 0.04831705 0.00922180
v 0.05404352 0.05262938 0.00529601
v 0.05736970 0.04974720 0.00922180
v 0.05476192 0.05573806 0.00406732
v 0.05452789 0.05520518 0.00406732
f 1 2 7
f 1 7 3
f 1 3 4
f 1 4 5
f 1 5 11
f 1 11 18
f 1 18 20
f 1 20 12
f 1 12 6
f 1 6 2
f 2 6 14
f 2 14 7
f 3 7 15
f 3 15 8
f 3 8 4
f 4 8 9
f 4 9 10
f 4 10 5
f 5 10 11
f 6 12 13
f 6 13 14
f 7 14 13
f 7 13 15
f 8 15 13
f 8 13 21
f 8 21 22
f 8 22 16
f 8 16 9
f 9 16 10
f 10 16 17
f 10 17 11
f 11 17 19
f 11 19 18
f 12 20 21
f 12 21 13
f 16 19 17
f 16 22 19
f 18 19 22
f 18 22 20
f 20 22 21

