# https://github.com/mikedh/trimesh
v -0.02045135 -0.06050681 -0.00177367
v -0.02045135 -0.06033018 -0.00260107
v -0.02011979 -0.06022084 -0.00262561
v -0.01926615 -0.06011711 -0.00177367
v -0.02045135 -0.04670172 -0.00177367
v -0.02045135 -0.05975824 -0.00397262
v -0.01903109 -0.05956479 -0.00374216
v -0.01841746 -0.05967974 -0.00247304
v -0.01839519 -0.05982273 -0.00177367
v -0.01400329 -0.03877585 -0.00177367
v -0.01407752 -0.03839175 -0.00313614
v -0.01407752 -0.03839175 -0.00373096
v -0.01452289 -0.03953283 -0.00722356
v -0.02045135 -0.04691480 -0.00215243
v -0.02045135 -0.05798354 -0.00722356
v -0.01891975 -0.05783495 -0.00721716
v -0.01841746 -0.05910780 -0.00434391
v -0.01697741 -0.05847979 -0.00447674
v -0.01697741 -0.05911061 -0.00256000
v -0.01786322 -0.05934331 -0.00295530
v -0.01835313 -0.05821344 -0.00618864
v -0.01746485 -0.05949190 -0.00177367
v -0.01379297 -0.03856558 -0.00177367
v -0.01306552 -0.03805251 -0.00177367
v -0.01117267 -0.03685536 -0.00177367
v -0.01072482 -0.03658621 -0.00177367
v -0.01314470 -0.03769925 -0.00722356
v -0.02045135 -0.05128006 -0.00722356
v -0.02045135 -0.04846241 -0.00405157
v -0.02045135 -0.04757646 -0.00301024
v -0.01799930 -0.05747048 -0.00722356
v -0.01775930 -0.05763029 -0.00681653
v -0.01697741 -0.05794990 -0.00567597
v -0.01578974 -0.05770598 -0.00520119
v -0.01647265 -0.05825830 -0.00451995
v -0.01697741 -0.05918069 -0.00227566
v -0.01537406 -0.05794990 -0.00403503
v -0.01677699 -0.05905173 -0.00247304
v -0.01697741 -0.05928443 -0.00177367
v -0.00961880 -0.03615726 -0.00177367
v -0.01075451 -0.03657780 -0.00262561
v -0.00961880 -0.03616286 -0.00262561
v 0.00191645 -0.03256861 -0.00177367
v 0.00323526 -0.03219853 -0.00177367
v -0.01137062 -0.03730955 -0.00722356
v -0.01659884 -0.05681723 -0.00722356
v -0.01647265 -0.05742002 -0.00618810
v 0.00482624 -0.04537841 -0.00722356
v 0.00482624 -0.04572606 -0.00661861
v 0.00482624 -0.04595315 -0.00619450
v 0.00482624 -0.04680826 -0.00435725
v -0.01661121 -0.05912462 -0.00177367
v -0.01481981 -0.05813494 -0.00257920
v 0.00482624 -0.04709143 -0.00355758
v 0.00482624 -0.04726525 -0.00304332
v 0.00482624 -0.03186489 -0.00177367
v 0.00482624 -0.03538065 -0.00722356
v -0.01484208 -0.05830316 -0.00177367
v -0.01386967 -0.05780411 -0.00196625
v 0.00482624 -0.04742506 -0.00240209
v 0.00482624 -0.04749235 -0.00177367
v -0.01384246 -0.05781813 -0.00177367
f 1 2 3
f 1 3 4
f 1 4 9
f 1 9 22
f 1 22 39
f 1 39 52
f 1 52 58
f 1 58 62
f 1 62 61
f 1 61 56
f 1 56 44
f 1 44 43
f 1 43 40
f 1 40 26
f 1 26 25
f 1 25 24
f 1 24 23
f 1 23 10
f 1 10 5
f 1 5 14
f 1 14 30
f 1 30 29
f 1 29 28
f 1 28 15
f 1 15 6
f 1 6 2
f 2 6 7
f 2 7 3
f 3 8 4
f 3 7 8
f 4 8 9
f 5 10 11
f 5 11 12
f 5 12 13
f 5 13 14
f 6 15 16
f 6 16 7
f 7 17 18
f 7 18 19
f 7 19 20
f 7 20 8
f 7 16 21
f 7 21 17
f 8 20 19
f 8 19 22
f 8 22 9
f 10 23 11
f 11 23 24
f 11 24 25
f 11 25 26
f 11 26 27
f 11 27 12
f 12 27 13
f 13 28 29
f 13 29 30
f 13 30 14
f 13 27 45
f 13 45 57
f 13 57 48
f 13 48 46
f 13 46 31
f 13 31 15
f 13 15 28
f 15 31 16
f 16 31 32
f 16 32 21
f 17 21 33
f 17 33 34
f 17 34 18
f 18 34 35
f 18 35 19
f 19 36 22
f 19 35 37
f 19 37 38
f 19 38 36
f 21 32 33
f 22 36 39
f 26 40 41
f 26 41 27
f 27 41 42
f 27 42 43
f 27 43 44
f 27 44 45
f 31 46 32
f 32 46 47
f 32 47 34
f 32 34 33
f 34 37 35
f 34 47 46
f 34 46 48
f 34 48 49
f 34 49 50
f 34 50 51
f 34 51 37
f 36 38 52
f 36 52 39
f 37 53 38
f 37 51 54
f 37 54 55
f 37 55 53
f 38 53 52
f 40 42 41
f 40 43 42
f 44 56 45
f 45 56 57
f 48 57 56
f 48 56 61
f 48 61 60
f 48 60 55
f 48 55 54
f 48 54 51
f 48 51 50
f 48 50 49
f 52 53 58
f 53 55 59
f 53 59 58
f 55 60 59
f 58 59 62
f 59 60 62
f 60 61 62

