# https://github.com/mikedh/trimesh
v 0.00360019 -0.01885349 0.00727717
v 0.00559706 -0.02038128 0.00734952
v 0.00576536 -0.02048887 0.00734952
v 0.00787569 -0.02197055 0.00734952
v 0.01085020 -0.02427453 0.00481753
v 0.01128891 -0.02469107 0.00440402
v 0.01128891 -0.02474486 0.00428970
v 0.00251665 -0.01885349 0.00599466
v -0.00745070 -0.01885349 0.00727717
v 0.00984231 -0.02384263 0.00735041
v -0.00598898 -0.02038128 0.00734952
v 0.01128891 -0.02493391 0.00735041
v 0.01085020 -0.02427453 0.00559901
v 0.01128891 -0.02481556 0.00603753
v 0.01128891 -0.02555794 0.00290001
v 0.00094147 -0.01885349 0.00451566
v -0.00544248 -0.01885349 0.00504081
v -0.00442892 -0.03455409 -0.00088144
v -0.00577341 -0.03455409 0.00087621
v -0.00633503 -0.03455409 0.00200421
v -0.00797451 -0.03455409 0.00707354
v -0.00802556 -0.03455409 0.00732540
v -0.00608731 -0.02038281 0.00734952
v -0.00340779 -0.02384263 0.00735041
v 0.01128891 -0.02826001 0.00735041
v 0.01128891 -0.02561635 0.00284642
v 0.01128891 -0.03065468 -0.00177367
v -0.00087387 -0.01885349 0.00394585
v -0.00445728 -0.01885349 0.00445403
v -0.00436273 -0.03455409 -0.00094843
v 0.01128891 -0.03455409 0.00732540
v -0.00575450 -0.02826001 0.00735041
v -0.00555216 -0.02769285 0.00735041
v 0.01128891 -0.03455409 -0.00177367
v 0.01072729 -0.03066083 -0.00177367
v -0.00261925 -0.01885349 0.00373775
v -0.00088711 -0.01885349 0.00394317
v -0.00439110 -0.01885349 0.00441920
v -0.00286508 -0.03455409 -0.00177367
v 0.00967401 -0.03067312 -0.00177367
v 0.00323712 -0.03219631 -0.00177367
v 0.00191532 -0.03256212 -0.00177367
v 0.00087717 -0.03290026 -0.00177367
v -0.00001726 -0.03323687 -0.00177367
v -0.00265518 -0.03445572 -0.00177367
f 1 2 3
f 1 3 4
f 1 4 5
f 1 5 6
f 1 6 7
f 1 7 8
f 1 8 16
f 1 16 28
f 1 28 37
f 1 37 36
f 1 36 38
f 1 38 29
f 1 29 17
f 1 17 9
f 1 9 11
f 1 11 2
f 2 10 3
f 2 11 24
f 2 24 10
f 3 10 4
f 4 10 12
f 4 12 13
f 4 13 5
f 5 13 6
f 6 13 14
f 6 14 12
f 6 12 25
f 6 25 31
f 6 31 34
f 6 34 27
f 6 27 26
f 6 26 15
f 6 15 7
f 7 15 8
f 8 15 16
f 9 17 18
f 9 18 19
f 9 19 20
f 9 20 21
f 9 21 22
f 9 22 23
f 9 23 11
f 10 24 33
f 10 33 32
f 10 32 25
f 10 25 12
f 11 23 24
f 12 14 13
f 15 26 16
f 16 26 27
f 16 27 28
f 17 29 30
f 17 30 18
f 18 30 39
f 18 39 34
f 18 34 31
f 18 31 22
f 18 22 21
f 18 21 20
f 18 20 19
f 22 31 25
f 22 25 32
f 22 32 23
f 23 32 33
f 23 33 24
f 27 34 39
f 27 39 45
f 27 45 44
f 27 44 43
f 27 43 42
f 27 42 41
f 27 41 40
f 27 40 35
f 27 35 36
f 27 36 37
f 27 37 28
f 29 38 39
f 29 39 30
f 35 40 36
f 36 40 41
f 36 41 42
f 36 42 43
f 36 43 44
f 36 44 45
f 36 45 39
f 36 39 38

