# https://github.com/mikedh/trimesh
v -0.01173108 -0.02826161 0.00868985
v -0.01837063 -0.02826161 0.00866746
v -0.01213131 -0.02826161 0.01326654
v 0.01129080 -0.02826792 0.00732611
v -0.02081592 -0.02826161 0.00939200
v 0.00268295 -0.02826792 0.00732611
v -0.00572203 -0.02827108 0.00732611
v -0.04472051 -0.03344732 0.00959720
v -0.00478997 -0.02827108 0.01350987
v -0.01908887 -0.02826161 0.01310371
v 0.01129080 -0.02857074 0.01294573
v 0.01129080 -0.04405531 0.00813176
v -0.01776205 -0.05719621 0.00732611
v -0.02165477 -0.02826161 0.01207107
v -0.03494485 -0.04982141 0.00732611
v -0.04472051 -0.04993496 0.00761544
v -0.04444089 -0.03594554 0.00876128
v -0.04472051 -0.03350094 0.01236161
v 0.01129080 -0.03501817 0.01287975
v 0.01129080 -0.03151688 0.01295844
v -0.04472051 -0.03677197 0.01323386
v -0.04472051 -0.04287243 0.01333615
v -0.04472051 -0.04551260 0.01335249
v -0.04472051 -0.04898236 0.01334765
v -0.04111289 -0.05161306 0.01324354
v -0.02711555 -0.05335740 0.01299960
v 0.01129080 -0.04197345 0.01040588
v -0.01776205 -0.05455289 0.01080902
v -0.01786622 -0.05615844 0.00897071
v -0.02309672 -0.05792170 0.00932542
v -0.02514177 -0.05949887 0.00786967
v -0.03270242 -0.06048617 0.00760091
v -0.03519705 -0.06047986 0.00760455
v -0.04466020 -0.05868821 0.00774558
v -0.04469858 -0.05688709 0.01127207
v 0.01129080 -0.03843746 0.01240399
v -0.02470864 -0.05257198 0.01295178
v -0.04466020 -0.05248366 0.01317272
v -0.03848667 -0.05335740 0.01311643
v -0.03586594 -0.05335740 0.01310069
v -0.03148526 -0.05511121 0.01283314
v -0.02856846 -0.05573261 0.01246270
v -0.02162188 -0.05456235 0.01206744
v -0.03519705 -0.05510805 0.01290941
v -0.02016348 -0.05575784 0.01062198
v -0.02626024 -0.05769460 0.01074425
v -0.02886453 -0.05855257 0.01033870
v -0.02731841 -0.05970390 0.00811482
v -0.03148526 -0.05942001 0.00954757
v -0.03509288 -0.05948941 0.00965410
v -0.03761493 -0.05916451 0.00985445
v -0.04157892 -0.05945471 0.00811724
v -0.04392552 -0.05808888 0.00993920
v -0.04286188 -0.05705111 0.01159591
v -0.04323470 -0.05551181 0.01256984
v -0.04111289 -0.05510489 0.01283375
v -0.03761493 -0.05510489 0.01293605
v -0.04198464 -0.05335740 0.01310311
v -0.04023566 -0.05606066 0.01257831
v -0.03514223 -0.05765359 0.01174905
v -0.03148526 -0.05756527 0.01165160
v -0.02405071 -0.05601649 0.01160257
v -0.03761493 -0.05763151 0.01171334
v -0.04023566 -0.05770406 0.01143006
f 1 2 5
f 1 5 14
f 1 14 10
f 1 10 3
f 1 3 4
f 1 4 2
f 2 4 6
f 2 6 7
f 2 7 8
f 2 8 5
f 3 9 4
f 3 10 9
f 4 11 20
f 4 20 19
f 4 19 36
f 4 36 27
f 4 27 12
f 4 12 13
f 4 13 15
f 4 15 7
f 4 7 6
f 4 9 11
f 5 8 14
f 7 15 16
f 7 16 17
f 7 17 8
f 8 17 16
f 8 16 24
f 8 24 23
f 8 23 22
f 8 22 21
f 8 21 18
f 8 18 14
f 9 19 20
f 9 20 11
f 9 10 21
f 9 21 22
f 9 22 23
f 9 23 24
f 9 24 25
f 9 25 26
f 9 26 19
f 10 14 18
f 10 18 21
f 12 27 28
f 12 28 29
f 12 29 13
f 13 29 30
f 13 30 31
f 13 31 32
f 13 32 33
f 13 33 15
f 15 33 34
f 15 34 16
f 16 34 35
f 16 35 24
f 19 26 37
f 19 37 36
f 24 35 38
f 24 38 25
f 25 39 40
f 25 40 26
f 25 38 39
f 26 41 42
f 26 42 43
f 26 43 37
f 26 40 44
f 26 44 41
f 27 36 43
f 27 43 28
f 28 43 45
f 28 45 29
f 29 45 30
f 30 45 46
f 30 46 31
f 31 46 47
f 31 47 48
f 31 48 32
f 32 48 49
f 32 49 50
f 32 50 33
f 33 50 51
f 33 51 52
f 33 52 34
f 34 52 53
f 34 53 35
f 35 53 54
f 35 54 55
f 35 55 38
f 36 37 43
f 38 55 56
f 38 56 57
f 38 57 58
f 38 58 39
f 39 57 40
f 39 58 57
f 40 57 44
f 41 44 59
f 41 59 60
f 41 60 42
f 42 60 61
f 42 61 62
f 42 62 43
f 43 62 45
f 44 57 59
f 45 62 46
f 46 61 47
f 46 62 61
f 47 61 49
f 47 49 48
f 49 60 50
f 49 61 60
f 50 60 63
f 50 63 64
f 50 64 51
f 51 64 53
f 51 53 52
f 53 64 54
f 54 64 59
f 54 59 55
f 55 59 56
f 56 59 57
f 59 64 63
f 59 63 60

