# https://github.com/mikedh/trimesh
v -0.03410794 0.03464126 0.00025710
v -0.03410794 0.03447883 0.00261920
v -0.03409385 0.03200664 0.00802804
v -0.03409385 0.02105454 0.00115131
v -0.03409989 0.02156636 -0.00035356
v -0.03586899 0.03456383 -0.00035603
v -0.03586899 0.03463181 0.00087516
v -0.03586899 0.03447506 0.00262496
v -0.03586899 0.03401424 0.00437393
v -0.03434342 0.03353075 0.00502651
v -0.03586899 0.03327012 0.00618701
v -0.03586899 0.03237869 0.00795653
v -0.03774676 0.03246746 0.00799845
v -0.05465482 0.02280151 0.00804037
v -0.03409385 0.02031420 0.00804037
v -0.03409385 0.02082035 0.00262496
v -0.05465281 0.01534714 0.00786284
v -0.05465482 0.01623668 0.00262496
v -0.05465482 0.01652186 0.00125405
v -0.05465482 0.01698646 -0.00017357
v -0.04855053 0.03173656 -0.00035192
v -0.04662244 0.03244857 -0.00035603
v -0.03761997 0.03443540 -0.00035603
v -0.03761997 0.03448261 0.00087516
v -0.03761997 0.03436552 0.00262496
v -0.03761997 0.03398024 0.00437393
v -0.03761997 0.03330789 0.00630290
v -0.03984593 0.03321913 0.00568073
v -0.04509888 0.03144949 0.00732615
v -0.04627425 0.03085458 0.00787106
v -0.05277100 0.02815952 0.00795653
v -0.05419393 0.02726621 0.00785955
v -0.05456828 0.02807453 0.00482268
v -0.05465482 0.02829739 0.00298248
v -0.05465482 0.02847681 0.00025957
v -0.04949848 0.03130407 0.00111433
v -0.04811379 0.03196697 0.00087516
v -0.05248521 0.02973463 0.00079297
v -0.04636482 0.03258644 0.00087516
v -0.04525184 0.03288295 -0.00035603
v -0.03962857 0.03416344 -0.00035603
v -0.03936894 0.03426164 0.00087516
v -0.03936894 0.03414644 0.00262496
v -0.03936894 0.03374983 0.00437393
v -0.04099313 0.03346087 0.00431640
v -0.04461585 0.03200852 0.00612291
v -0.04643124 0.03146271 0.00620181
v -0.05203036 0.02957410 0.00437393
v -0.05375316 0.02815952 0.00639906
v -0.04724836 0.03149671 0.00527390
v -0.05336272 0.02889231 0.00437393
v -0.05336272 0.02911894 0.00262496
v -0.04970175 0.03107177 0.00249921
v -0.05194985 0.02992349 0.00262496
v -0.04848009 0.03156847 0.00274906
v -0.04636482 0.03238247 0.00262496
v -0.04370212 0.03321346 0.00252633
v -0.04338614 0.03341743 0.00025957
v -0.04111791 0.03388770 -0.00035603
v -0.04145804 0.03389336 0.00087516
v -0.04186459 0.03352886 0.00336465
v -0.04461585 0.03257511 0.00437393
v -0.04776963 0.03162702 0.00382738
v -0.04636482 0.03202741 0.00437393
f 1 2 3
f 1 3 4
f 1 4 5
f 1 5 6
f 1 6 7
f 1 7 2
f 2 7 8
f 2 8 9
f 2 9 10
f 2 10 3
f 3 10 11
f 3 11 12
f 3 12 13
f 3 13 14
f 3 14 15
f 3 15 16
f 3 16 4
f 4 16 17
f 4 17 18
f 4 18 19
f 4 19 20
f 4 20 5
f 5 20 21
f 5 21 22
f 5 22 6
f 6 23 7
f 6 22 40
f 6 40 59
f 6 59 41
f 6 41 23
f 7 23 24
f 7 24 25
f 7 25 8
f 8 25 26
f 8 26 9
f 9 11 10
f 9 26 27
f 9 27 11
f 11 27 13
f 11 13 12
f 13 27 28
f 13 28 29
f 13 29 30
f 13 30 31
f 13 31 14
f 14 31 32
f 14 32 33
f 14 33 34
f 14 34 35
f 14 35 20
f 14 20 19
f 14 19 18
f 14 18 17
f 14 17 15
f 15 17 16
f 20 35 21
f 21 36 37
f 21 37 22
f 21 35 38
f 21 38 36
f 22 37 39
f 22 39 40
f 23 41 42
f 23 42 24
f 24 42 43
f 24 43 25
f 25 43 26
f 26 43 44
f 26 44 27
f 27 44 28
f 28 44 45
f 28 45 46
f 28 46 29
f 29 46 47
f 29 47 30
f 30 47 31
f 31 48 49
f 31 49 32
f 31 47 50
f 31 50 48
f 32 49 33
f 33 49 51
f 33 51 34
f 34 51 52
f 34 52 35
f 35 52 38
f 36 53 37
f 36 38 54
f 36 54 53
f 37 53 55
f 37 55 56
f 37 56 39
f 38 52 54
f 39 56 57
f 39 57 58
f 39 58 40
f 40 58 59
f 41 59 60
f 41 60 42
f 42 60 43
f 43 60 61
f 43 61 44
f 44 61 45
f 45 61 62
f 45 62 46
f 46 62 47
f 47 62 50
f 48 54 51
f 48 51 49
f 48 50 63
f 48 63 55
f 48 55 53
f 48 53 54
f 50 62 64
f 50 64 63
f 51 54 52
f 55 63 56
f 56 63 64
f 56 64 62
f 56 62 57
f 57 62 61
f 57 61 60
f 57 60 58
f 58 60 59

