# https://github.com/mikedh/trimesh
v 0.01128628 -0.04389178 -0.00177367
v -0.01699611 -0.04389178 -0.00147705
v -0.01533031 -0.04389178 0.00732611
v 0.01128628 -0.04422867 0.00732611
v 0.01129081 -0.04598520 0.00454255
v 0.01129081 -0.04642478 -0.00154831
v -0.02270419 -0.06124448 -0.00177367
v -0.03325577 -0.06208762 -0.00177367
v -0.01781543 -0.04389178 0.00034985
v -0.03495326 -0.04919379 -0.00129534
v -0.01700516 -0.04392240 0.00732344
v -0.01817303 -0.04425209 0.00732611
v -0.01787428 -0.04389178 0.00419873
v -0.02484981 -0.05974918 0.00731631
v -0.01768868 -0.05725941 0.00719428
v 0.01128628 -0.04537807 0.00591340
v -0.02718556 -0.06010229 0.00732611
v 0.01129081 -0.04661395 0.00262569
v -0.01708664 -0.05794401 0.00563460
v -0.01655250 -0.05823226 0.00442765
v -0.01899235 -0.05957983 0.00368655
v -0.01810966 -0.05952219 0.00273257
v 0.01129081 -0.04693282 0.00083441
v -0.01693274 -0.05935644 -0.00132385
v -0.01837673 -0.05991673 -0.00132385
v -0.01990221 -0.06042117 -0.00132385
v -0.02182602 -0.06103911 -0.00087402
v -0.02184413 -0.06104271 0.00087539
v -0.02360952 -0.06145527 -0.00087402
v -0.02536585 -0.06174352 -0.00132385
v -0.02711313 -0.06199574 -0.00132385
v -0.02886494 -0.06213446 -0.00132385
v -0.03214674 -0.06217589 -0.00132385
v -0.03453228 -0.06204979 -0.00131583
v -0.01815493 -0.04389178 0.00262569
v -0.03474050 -0.06171650 0.00396357
v -0.03495326 -0.04982614 0.00732611
v -0.03495326 -0.04917758 0.00087539
v -0.01975735 -0.04470969 0.00732611
v -0.02536585 -0.06043738 0.00612361
v -0.03303849 -0.06062474 0.00732611
v -0.02711313 -0.06066798 0.00612361
v -0.01735824 -0.05954560 0.00134391
v -0.02515763 -0.06128772 0.00362687
v -0.02339224 -0.06136159 0.00142141
v -0.02011043 -0.06059592 0.00087539
v -0.01836315 -0.06001942 0.00087539
v -0.02536585 -0.06179036 0.00087539
v -0.02711313 -0.06206780 0.00087539
v -0.02886494 -0.06224796 0.00087539
v -0.03061221 -0.06225336 -0.00087402
v -0.03235950 -0.06226417 0.00087539
v -0.03453228 -0.06213986 0.00087539
v -0.03453228 -0.06203717 0.00241725
v -0.03235950 -0.06208221 0.00262569
v -0.03286195 -0.06132195 0.00549653
v -0.03453228 -0.06117062 0.00598198
v -0.03453228 -0.06064276 0.00732611
v -0.03495326 -0.04933071 0.00261411
v -0.02503541 -0.04643919 0.00732611
v -0.02711313 -0.06130214 0.00458620
v -0.02711313 -0.06184440 0.00262569
v -0.02886494 -0.06193809 0.00262569
v -0.03061221 -0.06229660 0.00087539
f 1 2 9
f 1 9 35
f 1 35 13
f 1 13 3
f 1 3 4
f 1 4 5
f 1 5 6
f 1 6 7
f 1 7 8
f 1 8 2
f 2 8 10
f 2 10 9
f 3 11 12
f 3 12 39
f 3 39 60
f 3 60 37
f 3 37 58
f 3 58 41
f 3 41 17
f 3 17 4
f 3 13 11
f 4 14 15
f 4 15 16
f 4 16 5
f 4 17 14
f 5 18 23
f 5 23 6
f 5 16 19
f 5 19 20
f 5 20 21
f 5 21 22
f 5 22 18
f 6 23 24
f 6 24 7
f 7 24 25
f 7 25 26
f 7 26 27
f 7 27 28
f 7 28 29
f 7 29 30
f 7 30 31
f 7 31 8
f 8 31 32
f 8 32 33
f 8 33 34
f 8 34 10
f 9 10 35
f 10 34 36
f 10 36 37
f 10 37 59
f 10 59 38
f 10 38 35
f 11 13 12
f 12 13 39
f 13 35 38
f 13 38 39
f 14 21 19
f 14 19 15
f 14 17 40
f 14 40 21
f 15 19 16
f 17 41 42
f 17 42 40
f 18 43 23
f 18 22 43
f 19 21 20
f 21 40 44
f 21 44 45
f 21 45 46
f 21 46 22
f 22 46 47
f 22 47 43
f 23 43 47
f 23 47 24
f 24 47 25
f 25 47 26
f 26 46 27
f 26 47 46
f 27 46 28
f 28 46 45
f 28 45 29
f 29 45 48
f 29 48 30
f 30 48 49
f 30 49 31
f 31 49 50
f 31 50 32
f 32 50 51
f 32 51 33
f 33 52 34
f 33 51 52
f 34 53 36
f 34 52 53
f 36 53 54
f 36 54 55
f 36 55 56
f 36 56 57
f 36 57 58
f 36 58 37
f 37 60 59
f 38 59 60
f 38 60 39
f 40 42 61
f 40 61 44
f 41 58 57
f 41 57 56
f 41 56 61
f 41 61 42
f 44 61 62
f 44 62 45
f 45 62 48
f 48 62 49
f 49 62 50
f 50 62 63
f 50 63 55
f 50 55 64
f 50 64 51
f 51 64 52
f 52 64 55
f 52 55 54
f 52 54 53
f 55 63 56
f 56 63 61
f 61 63 62

