# https://github.com/mikedh/trimesh
v -0.06592909 -0.03820913 -0.00442329
v -0.06575576 -0.04306766 -0.00629494
v -0.06592909 -0.04627114 -0.00629494
v -0.06592909 -0.03862456 0.00036606
v -0.04133834 -0.04949017 0.00036606
v -0.04133834 -0.04957015 -0.00087497
v -0.04133834 -0.05064316 -0.00629624
v -0.04596521 -0.05053652 -0.00629624
v -0.06576539 -0.04948351 -0.00620886
v -0.06592909 -0.04977675 -0.00262468
v -0.04596521 -0.05834972 -0.00629624
v -0.05180776 -0.05640809 -0.00629494
v -0.06592909 -0.04990338 0.00036606
v -0.04149481 -0.06089785 0.00036606
v -0.04133834 -0.06090451 -0.00094671
v -0.04133834 -0.05985149 -0.00629624
v -0.06576539 -0.04966789 -0.00475001
v -0.05656703 -0.05412655 -0.00620886
v -0.05687757 -0.05424208 -0.00437242
v -0.06010578 -0.05280695 -0.00262468
v -0.06108797 -0.05241596 -0.00087497
v -0.06592909 -0.04987672 -0.00087497
v -0.04436915 -0.05907173 -0.00629624
v -0.05012023 -0.05747888 -0.00437242
v -0.05161999 -0.05680797 -0.00437242
v -0.04981450 -0.05728782 -0.00616777
v -0.04918138 -0.05780766 -0.00481914
v -0.06109038 -0.05241596 0.00036606
v -0.04286939 -0.06049797 0.00036606
v -0.04286939 -0.06049574 -0.00087497
v -0.04286939 -0.06034690 -0.00262468
v -0.04133834 -0.06071568 -0.00273489
v -0.04133834 -0.06033357 -0.00448459
v -0.04287662 -0.05960268 -0.00624081
v -0.05750829 -0.05412211 -0.00262468
v -0.05860603 -0.05356894 -0.00262468
v -0.05717126 -0.05438647 -0.00087497
v -0.05860603 -0.05367558 0.00036606
v -0.06021652 -0.05286249 0.00036606
v -0.05161999 -0.05697236 -0.00262468
v -0.04577743 -0.05946050 -0.00186362
v -0.04987228 -0.05773435 -0.00262468
v -0.05305957 -0.05627924 -0.00262468
v -0.05663203 -0.05454865 -0.00262468
v -0.04384436 -0.05952937 -0.00546346
v -0.04420064 -0.05963823 -0.00437372
v -0.04508413 -0.05960490 -0.00296249
v -0.04461711 -0.05994702 0.00036606
v -0.04461711 -0.05993591 -0.00087497
v -0.04286939 -0.06004255 -0.00437372
v -0.05761421 -0.05417320 0.00036606
v -0.05161999 -0.05705678 -0.00087497
v -0.05320882 -0.05633033 0.00036606
v -0.05558725 -0.05518623 0.00036606
v -0.05001672 -0.05779433 -0.00087497
v -0.04624205 -0.05935386 -0.00074976
v -0.04812216 -0.05858965 -0.00087497
v -0.04610724 -0.05943384 0.00036606
v -0.05161999 -0.05708344 0.00036606
v -0.04854585 -0.05844081 0.00036606
v -0.04996617 -0.05782766 0.00036606
v -0.04706535 -0.05905395 0.00036606
f 1 2 3
f 1 3 10
f 1 10 22
f 1 22 13
f 1 13 4
f 1 4 5
f 1 5 6
f 1 6 7
f 1 7 2
f 2 7 8
f 2 8 3
f 3 9 10
f 3 8 11
f 3 11 12
f 3 12 9
f 4 13 28
f 4 28 39
f 4 39 38
f 4 38 51
f 4 51 54
f 4 54 53
f 4 53 59
f 4 59 61
f 4 61 60
f 4 60 62
f 4 62 58
f 4 58 48
f 4 48 29
f 4 29 14
f 4 14 5
f 5 14 15
f 5 15 32
f 5 32 33
f 5 33 16
f 5 16 7
f 5 7 6
f 7 16 23
f 7 23 11
f 7 11 8
f 9 17 10
f 9 12 18
f 9 18 19
f 9 19 17
f 10 17 20
f 10 20 21
f 10 21 22
f 11 23 12
f 12 24 25
f 12 25 18
f 12 23 26
f 12 26 27
f 12 27 24
f 13 22 21
f 13 21 28
f 14 29 30
f 14 30 15
f 15 30 31
f 15 31 32
f 16 33 34
f 16 34 23
f 17 19 20
f 18 25 19
f 19 35 36
f 19 36 20
f 19 25 35
f 20 36 21
f 21 36 35
f 21 35 37
f 21 37 38
f 21 38 39
f 21 39 28
f 23 34 26
f 24 40 25
f 24 27 41
f 24 41 42
f 24 42 40
f 25 40 43
f 25 43 44
f 25 44 35
f 26 34 45
f 26 45 27
f 27 45 46
f 27 46 47
f 27 47 41
f 29 48 30
f 30 48 49
f 30 49 31
f 31 50 32
f 31 49 47
f 31 47 46
f 31 46 50
f 32 50 33
f 33 50 34
f 34 50 45
f 35 44 37
f 37 51 38
f 37 44 43
f 37 43 40
f 37 40 52
f 37 52 53
f 37 53 54
f 37 54 51
f 40 42 55
f 40 55 52
f 41 47 49
f 41 49 56
f 41 56 57
f 41 57 42
f 42 57 55
f 45 50 46
f 48 58 49
f 49 58 56
f 52 59 53
f 52 55 59
f 55 57 60
f 55 60 61
f 55 61 59
f 56 58 62
f 56 62 57
f 57 62 60

