# https://github.com/mikedh/trimesh
v 0.02671780 -0.00391953 -0.01319275
v 0.02697822 -0.00391953 -0.01319275
v 0.02674461 -0.00390349 -0.01271276
v 0.02647874 -0.00374048 -0.01319275
v 0.02678734 -0.00388278 -0.01367205
v 0.02737362 -0.00385138 -0.01488693
v 0.02695641 -0.00390349 -0.01271276
v 0.02854483 -0.00386675 -0.01444919
v 0.02882116 -0.00386274 -0.01439239
v 0.02686096 -0.00385940 -0.01244748
v 0.02426494 -0.00181638 -0.01216073
v 0.02426494 -0.00193329 -0.01249943
v 0.02650555 -0.00371910 -0.01271276
v 0.02683687 -0.00385472 -0.01397681
v 0.02426494 -0.00197471 -0.01271276
v 0.02745180 -0.00359817 -0.01489317
v 0.02854483 -0.00359817 -0.01455585
v 0.02670189 -0.00351400 -0.01463204
v 0.02678143 -0.00343716 -0.01491810
v 0.02713320 -0.00359751 -0.01491671
v 0.02885570 -0.00359817 -0.01436261
v 0.02885752 -0.00301426 -0.01384383
v 0.02696322 -0.00013546 -0.00944491
v 0.02884343 -0.00325611 -0.01444365
v 0.02426494 0.00023266 -0.00837133
v 0.02426494 0.00002889 -0.00867055
v 0.02426494 -0.00010072 -0.00888111
v 0.02426494 -0.00169612 -0.01320176
v 0.02428766 0.00290569 -0.01540225
v 0.02692095 0.00102234 -0.01491879
v 0.02426494 0.00232445 -0.01531221
v 0.02635376 -0.00294211 -0.01490217
v 0.02888252 -0.00263813 -0.01403568
v 0.02888252 -0.00263813 -0.01376348
v 0.02885752 -0.00205555 -0.01333543
v 0.02701958 0.00020393 -0.00931331
v 0.02690868 0.00034022 -0.00908128
v 0.02883343 0.00052929 -0.01298842
v 0.02426494 0.00071836 -0.00832700
v 0.02426494 0.00213405 -0.01521732
v 0.02586018 -0.00200879 -0.01491117
v 0.02436174 0.00290569 -0.01510788
v 0.02686824 0.00287964 -0.01099156
v 0.02426494 0.00290569 -0.01072559
v 0.02890797 0.00023867 -0.01271276
v 0.02887025 0.00023867 -0.01233458
v 0.02884071 -0.00024102 -0.01239415
v 0.02690323 0.00071836 -0.00908682
v 0.02885752 0.00055067 -0.01271276
v 0.02687278 0.00098226 -0.00911176
v 0.02690550 0.00243001 -0.00955435
v 0.02426494 0.00093282 -0.00839627
v 0.02441674 0.00290569 -0.01468122
v 0.02701685 0.00258501 -0.01031555
v 0.02700413 0.00268522 -0.01079001
v 0.02437265 0.00290569 -0.01136281
v 0.02432629 0.00290569 -0.01103104
v 0.02696004 0.00249081 -0.00983556
v 0.02426494 0.00263044 -0.00993461
v 0.02883252 0.00052528 -0.01238237
v 0.02695459 0.00215810 -0.00949548
v 0.02698867 0.00167908 -0.00943383
v 0.02426494 0.00209463 -0.00890882
v 0.02426494 0.00119872 -0.00850501
f 1 2 7
f 1 7 3
f 1 3 4
f 1 4 5
f 1 5 6
f 1 6 2
f 2 6 8
f 2 8 9
f 2 9 7
f 3 7 10
f 3 10 11
f 3 11 12
f 3 12 13
f 3 13 4
f 4 14 5
f 4 13 15
f 4 15 14
f 5 14 6
f 6 16 17
f 6 17 9
f 6 9 8
f 6 14 18
f 6 18 19
f 6 19 20
f 6 20 16
f 7 9 10
f 9 21 22
f 9 22 23
f 9 23 10
f 9 17 24
f 9 24 21
f 10 23 25
f 10 25 26
f 10 26 27
f 10 27 11
f 11 27 26
f 11 26 25
f 11 25 39
f 11 39 52
f 11 52 64
f 11 64 63
f 11 63 59
f 11 59 44
f 11 44 31
f 11 31 40
f 11 40 28
f 11 28 15
f 11 15 12
f 12 15 13
f 14 15 18
f 15 28 19
f 15 19 18
f 16 20 29
f 16 29 30
f 16 30 17
f 17 30 24
f 19 31 29
f 19 29 20
f 19 28 32
f 19 32 31
f 21 33 34
f 21 34 22
f 21 24 33
f 22 34 35
f 22 35 36
f 22 36 23
f 23 36 37
f 23 37 25
f 24 30 38
f 24 38 33
f 25 37 39
f 28 40 41
f 28 41 32
f 29 42 43
f 29 43 38
f 29 38 30
f 29 31 44
f 29 44 57
f 29 57 56
f 29 56 53
f 29 53 42
f 31 32 41
f 31 41 40
f 33 38 45
f 33 45 34
f 34 45 46
f 34 46 35
f 35 46 47
f 35 47 36
f 36 47 37
f 37 47 46
f 37 46 48
f 37 48 39
f 38 43 49
f 38 49 45
f 39 48 50
f 39 50 51
f 39 51 52
f 42 53 43
f 43 54 55
f 43 55 49
f 43 53 56
f 43 56 57
f 43 57 44
f 43 44 51
f 43 51 58
f 43 58 54
f 44 59 51
f 45 49 60
f 45 60 46
f 46 60 61
f 46 61 62
f 46 62 48
f 48 62 61
f 48 61 50
f 49 55 54
f 49 54 60
f 50 61 51
f 51 61 60
f 51 60 58
f 51 59 63
f 51 63 64
f 51 64 52
f 54 58 60

