# https://github.com/mikedh/trimesh
v 0.00931927 -0.01843688 -0.00261332
v 0.00931927 -0.01777443 -0.00261639
v 0.00059739 -0.02019137 -0.00261332
v 0.00889918 -0.01871643 -0.00261332
v 0.00775676 -0.02355218 -0.01425881
v 0.00795655 -0.02351358 -0.01463126
v 0.00920742 -0.02315372 -0.01750968
v 0.00923474 -0.02320851 -0.01798788
v 0.00929878 -0.02278763 -0.01750968
v 0.00931927 -0.02171488 -0.01561525
v 0.00931927 -0.01795125 -0.00407399
v 0.00059739 -0.02091359 -0.00983543
v 0.00066569 -0.02076541 -0.00261945
v 0.00121471 -0.02089803 -0.00261332
v 0.00059739 -0.02319917 -0.01564284
v 0.00785410 -0.01928673 -0.00261332
v 0.00765088 -0.02349366 -0.01394001
v 0.00746902 -0.02362503 -0.01412087
v 0.00719579 -0.02401602 -0.01521675
v 0.00733326 -0.02410692 -0.01607047
v 0.00912630 -0.02306344 -0.01826990
v 0.00922108 -0.02281191 -0.01794803
v 0.00732643 -0.02413494 -0.01655020
v 0.00727093 -0.02408575 -0.01684602
v 0.00931927 -0.02139736 -0.01607813
v 0.00931927 -0.02172609 -0.01604901
v 0.00931927 -0.01829991 -0.00647880
v 0.00059739 -0.02097959 -0.01031516
v 0.00134022 -0.02407143 -0.01655020
v 0.00138974 -0.02402163 -0.01624520
v 0.00169456 -0.02091857 -0.00261332
v 0.00059739 -0.02310889 -0.01600609
v 0.00685084 -0.01971135 -0.00261332
v 0.00733155 -0.02355779 -0.01376068
v 0.00701051 -0.02410692 -0.01607047
v 0.00718981 -0.02405587 -0.01559073
v 0.00217356 -0.02087250 -0.00261332
v 0.00135815 -0.02398551 -0.01685061
v 0.00503645 -0.02295386 -0.01735181
v 0.00911776 -0.02253859 -0.01776104
v 0.00168004 -0.02406894 -0.01686134
v 0.00931927 -0.02100013 -0.01559226
v 0.00931927 -0.01837213 -0.00694474
v 0.00059739 -0.02109352 -0.01102787
v 0.00059739 -0.02281191 -0.01602142
v 0.00647601 -0.01982155 -0.00261332
v 0.00511074 -0.02019822 -0.00261332
v 0.00265341 -0.02078160 -0.00261332
v 0.00471968 -0.02300118 -0.01729510
v 0.00059739 -0.02254419 -0.01580684
v 0.00908105 -0.02155985 -0.01636168
v 0.00931927 -0.02072308 -0.01511099
v 0.00931927 -0.01844497 -0.00734325
v 0.00059739 -0.02140420 -0.01271231
v 0.00059739 -0.02211148 -0.01503589
v 0.00059739 -0.02194462 -0.01463279
v 0.00931927 -0.02053630 -0.01462053
v 0.00931927 -0.01871207 -0.00876100
v 0.00059739 -0.02153806 -0.01332693
v 0.00931927 -0.01986389 -0.01271691
v 0.00931927 -0.02000771 -0.01316599
v 0.00931927 -0.02018328 -0.01367178
v 0.00931927 -0.02036134 -0.01415459
v 0.00931927 -0.01885963 -0.00937255
f 1 2 3
f 1 3 14
f 1 14 31
f 1 31 37
f 1 37 48
f 1 48 47
f 1 47 46
f 1 46 33
f 1 33 16
f 1 16 4
f 1 4 5
f 1 5 6
f 1 6 7
f 1 7 8
f 1 8 9
f 1 9 10
f 1 10 26
f 1 26 25
f 1 25 42
f 1 42 52
f 1 52 57
f 1 57 63
f 1 63 62
f 1 62 61
f 1 61 60
f 1 60 64
f 1 64 58
f 1 58 53
f 1 53 43
f 1 43 27
f 1 27 11
f 1 11 2
f 2 11 12
f 2 12 3
f 3 13 14
f 3 12 28
f 3 28 44
f 3 44 54
f 3 54 59
f 3 59 56
f 3 56 55
f 3 55 50
f 3 50 45
f 3 45 32
f 3 32 15
f 3 15 13
f 4 16 5
f 5 16 17
f 5 17 18
f 5 18 19
f 5 19 20
f 5 20 6
f 6 20 8
f 6 8 7
f 8 21 22
f 8 22 9
f 8 20 23
f 8 23 24
f 8 24 21
f 9 22 25
f 9 25 26
f 9 26 10
f 11 27 28
f 11 28 12
f 13 15 29
f 13 29 30
f 13 30 14
f 14 30 31
f 15 32 29
f 16 33 17
f 17 34 18
f 17 33 34
f 18 34 19
f 19 30 29
f 19 29 35
f 19 35 36
f 19 36 20
f 19 34 37
f 19 37 31
f 19 31 30
f 20 36 35
f 20 35 23
f 21 38 39
f 21 39 40
f 21 40 22
f 21 24 41
f 21 41 38
f 22 40 25
f 23 29 41
f 23 41 24
f 23 35 29
f 25 40 42
f 27 43 28
f 28 43 44
f 29 32 38
f 29 38 41
f 32 45 38
f 33 46 34
f 34 46 47
f 34 47 48
f 34 48 37
f 38 45 49
f 38 49 39
f 39 49 45
f 39 45 50
f 39 50 40
f 40 50 51
f 40 51 42
f 42 50 52
f 42 51 50
f 43 53 44
f 44 53 54
f 50 55 52
f 52 55 56
f 52 56 57
f 53 58 54
f 54 58 59
f 56 59 60
f 56 60 61
f 56 61 62
f 56 62 63
f 56 63 57
f 58 64 59
f 59 64 60

