# https://github.com/mikedh/trimesh
v 0.01142444 -0.01525720 0.01490981
v 0.00062594 -0.01956097 0.01490981
v 0.00584972 -0.01984689 0.01490981
v 0.00813077 -0.01872090 0.01490124
v 0.01132402 -0.01626208 0.01484121
v 0.01142444 -0.01632900 0.01420325
v 0.01142444 -0.01531140 0.00884570
v 0.00062594 -0.01941552 0.00983181
v 0.00067350 -0.02027328 0.01475890
v 0.00141976 -0.02037615 0.01477090
v 0.00496183 -0.02010516 0.01487380
v 0.00062594 -0.02013502 -0.00233415
v 0.00067350 -0.02038113 0.01412779
v 0.00520177 -0.02019918 0.01433702
v 0.00643425 -0.01969370 0.01479834
v 0.00739403 -0.01922693 0.01478977
v 0.00928926 -0.01804011 0.01475375
v 0.01080820 -0.01680240 0.01470059
v 0.01086211 -0.01684775 0.01415180
v 0.00980932 -0.01804951 -0.00261026
v 0.01022578 -0.01766514 -0.00261026
v 0.01059151 -0.01731064 -0.00261026
v 0.01137476 -0.01650376 -0.00261026
v 0.01142444 -0.01565429 -0.00238388
v 0.01142444 -0.01539325 0.00287934
v 0.01142444 -0.01550276 -0.00095875
v 0.00062594 -0.01949239 0.00791276
v 0.00335939 -0.02034352 0.01477090
v 0.00119990 -0.02043643 0.01415180
v 0.00383822 -0.02041210 0.01415180
v 0.00443120 -0.02022904 0.01475890
v 0.00062594 -0.02002054 -0.00170818
v 0.00068090 -0.02076826 -0.00261026
v 0.00145464 -0.02090707 -0.00261026
v 0.00667631 -0.01972301 0.01424612
v 0.00455805 -0.02033080 0.01415180
v 0.00521657 -0.02021798 0.01343151
v 0.00647548 -0.01986182 0.01319313
v 0.00665940 -0.01978163 0.01366989
v 0.00756738 -0.01929219 0.01421697
v 0.00929032 -0.01818113 0.01415180
v 0.00983786 -0.01775253 0.01415180
v 0.01022895 -0.01741075 0.01415180
v 0.00938439 -0.01839073 -0.00261026
v 0.00945416 -0.01812527 0.01127238
v 0.00062594 -0.01994976 -0.00119884
v 0.01142444 -0.01556082 -0.00167903
v 0.00062594 -0.01962789 0.00455315
v 0.00217447 -0.02087168 -0.00261026
v 0.00700822 -0.01967268 0.01319313
v 0.00455805 -0.02034020 0.01343151
v 0.00264696 -0.02078374 -0.00238388
v 0.00336467 -0.02063110 -0.00134976
v 0.00455805 -0.02035237 0.00024001
v 0.00517746 -0.02020194 0.00072020
v 0.00666257 -0.01976559 -0.00261026
v 0.00760755 -0.01936077 0.01319313
v 0.00774602 -0.01924242 0.01366989
v 0.00779358 -0.01927726 0.01271123
v 0.00890345 -0.01871205 -0.00261026
v 0.00934634 -0.01821210 0.01079390
v 0.00509818 -0.02020028 -0.00261026
v 0.00785383 -0.01928611 -0.00261026
v 0.00728410 -0.01954548 0.01271123
f 1 2 3
f 1 3 4
f 1 4 5
f 1 5 6
f 1 6 24
f 1 24 47
f 1 47 26
f 1 26 25
f 1 25 7
f 1 7 8
f 1 8 2
f 2 9 10
f 2 10 11
f 2 11 3
f 2 8 27
f 2 27 48
f 2 48 46
f 2 46 32
f 2 32 12
f 2 12 13
f 2 13 9
f 3 11 14
f 3 14 15
f 3 15 16
f 3 16 4
f 4 16 17
f 4 17 5
f 5 17 18
f 5 18 6
f 6 18 19
f 6 19 20
f 6 20 21
f 6 21 22
f 6 22 23
f 6 23 24
f 7 25 8
f 8 25 26
f 8 26 27
f 9 13 10
f 10 28 11
f 10 13 29
f 10 29 30
f 10 30 28
f 11 28 31
f 11 31 14
f 12 32 24
f 12 24 33
f 12 33 13
f 13 33 34
f 13 34 29
f 14 35 15
f 14 31 36
f 14 36 37
f 14 37 38
f 14 38 39
f 14 39 35
f 15 35 16
f 16 35 40
f 16 40 17
f 17 40 41
f 17 41 42
f 17 42 18
f 18 42 43
f 18 43 19
f 19 43 20
f 20 44 60
f 20 60 63
f 20 63 56
f 20 56 62
f 20 62 49
f 20 49 34
f 20 34 33
f 20 33 23
f 20 23 22
f 20 22 21
f 20 43 42
f 20 42 45
f 20 45 44
f 23 33 24
f 24 32 46
f 24 46 47
f 26 47 46
f 26 46 48
f 26 48 27
f 28 30 31
f 29 34 30
f 30 36 31
f 30 34 49
f 30 49 36
f 35 39 50
f 35 50 40
f 36 49 51
f 36 51 37
f 37 51 52
f 37 52 53
f 37 53 54
f 37 54 55
f 37 55 38
f 38 55 56
f 38 56 50
f 38 50 39
f 40 50 57
f 40 57 58
f 40 58 41
f 41 58 59
f 41 59 45
f 41 45 42
f 44 45 61
f 44 61 59
f 44 59 60
f 45 59 61
f 49 62 52
f 49 52 51
f 50 56 63
f 50 63 64
f 50 64 57
f 52 62 53
f 53 62 54
f 54 62 55
f 55 62 56
f 57 64 59
f 57 59 58
f 59 64 63
f 59 63 60

