# https://github.com/mikedh/trimesh
v 0.01132646 0.01976939 -0.01463092
v 0.01128339 0.01976939 -0.01409749
v 0.01041901 0.01976939 -0.01693195
v 0.01097356 0.01977189 -0.01690954
v 0.00921118 0.02170405 -0.01729354
v 0.01119937 0.01976939 -0.01340121
v 0.00724189 0.02157199 -0.01787627
v 0.00791512 0.02151617 -0.01783593
v 0.00929415 0.01976939 -0.01672276
v 0.00868393 0.02003226 -0.01687816
v 0.00852744 0.02165989 -0.01776719
v 0.00528416 0.02359497 -0.01763421
v 0.00544275 0.02358330 -0.01271090
v 0.00634390 0.02308922 -0.01271090
v 0.00735532 0.02249349 -0.01263171
v 0.00781430 0.02217688 -0.01271090
v 0.00960609 0.02088294 -0.01271090
v 0.01109329 0.01976939 -0.01271090
v 0.00791512 0.02179278 -0.01783593
v 0.00119854 0.02311672 -0.01670035
v 0.00120064 0.02370203 -0.01690954
v 0.00059778 0.02314796 -0.01559167
v 0.00678817 0.01976939 -0.00311977
v 0.00059778 0.02179528 -0.00311977
v 0.00065870 0.02317879 -0.01607130
v 0.00397760 0.02399406 -0.01727710
v 0.00537763 0.02349457 -0.01160521
v 0.00552782 0.02350123 -0.01223276
v 0.00059778 0.02399489 -0.01106282
v 0.00144011 0.02377535 -0.00887684
v 0.00168062 0.02371453 -0.00839721
v 0.00753072 0.02213064 -0.01133327
v 0.00776914 0.02214147 -0.01223276
v 0.00593533 0.02314171 -0.01127200
v 0.00689110 0.02250807 -0.01111213
v 0.01066162 0.01976939 -0.01097765
v 0.01090634 0.01976939 -0.01192197
v 0.00072801 0.02352456 -0.01669437
v 0.00059778 0.02378118 -0.01596671
v 0.00672200 0.01976939 -0.00262669
v 0.00059778 0.02200691 -0.00262072
v 0.00059778 0.02402531 -0.01247183
v 0.00231290 0.02357747 -0.00823285
v 0.00311952 0.02321003 -0.00695831
v 0.00343040 0.02306173 -0.00658327
v 0.00372658 0.02216105 -0.00261175
v 0.00569062 0.02317962 -0.01079387
v 0.00059778 0.02355372 -0.00777115
v 0.00065870 0.02370036 -0.00839721
v 0.00065870 0.02376369 -0.00887684
v 0.00120064 0.02373702 -0.00839721
v 0.00155774 0.02304798 -0.00519070
v 0.00187703 0.02357789 -0.00784436
v 0.00744355 0.02206857 -0.01079387
v 0.00688689 0.02026555 -0.00261175
v 0.00762315 0.01976939 -0.00261175
v 0.00311952 0.02232936 -0.00261175
v 0.00059778 0.02282760 -0.00473797
v 0.00540809 0.02117914 -0.00261175
v 0.00626723 0.02064924 -0.00261175
v 0.00059778 0.02304590 -0.00560907
v 0.00107671 0.02303590 -0.00524300
v 0.00072066 0.02359996 -0.00791758
v 0.00120064 0.02359247 -0.00770839
f 1 2 6
f 1 6 18
f 1 18 37
f 1 37 36
f 1 36 56
f 1 56 40
f 1 40 23
f 1 23 9
f 1 9 3
f 1 3 4
f 1 4 5
f 1 5 2
f 2 5 6
f 3 7 8
f 3 8 4
f 3 9 10
f 3 10 7
f 4 8 11
f 4 11 5
f 5 11 12
f 5 12 13
f 5 13 14
f 5 14 15
f 5 15 16
f 5 16 17
f 5 17 6
f 6 17 18
f 7 12 19
f 7 19 8
f 7 10 20
f 7 20 21
f 7 21 12
f 8 19 11
f 9 22 10
f 9 23 24
f 9 24 22
f 10 22 25
f 10 25 20
f 11 19 12
f 12 26 13
f 12 21 26
f 13 27 28
f 13 28 14
f 13 26 29
f 13 29 30
f 13 30 31
f 13 31 27
f 14 28 15
f 15 32 33
f 15 33 16
f 15 28 34
f 15 34 35
f 15 35 32
f 16 33 17
f 17 33 36
f 17 36 37
f 17 37 18
f 20 25 38
f 20 38 21
f 21 38 39
f 21 39 26
f 22 39 25
f 22 24 41
f 22 41 58
f 22 58 61
f 22 61 48
f 22 48 29
f 22 29 42
f 22 42 39
f 23 40 24
f 24 40 41
f 25 39 38
f 26 39 42
f 26 42 29
f 27 31 43
f 27 43 44
f 27 44 45
f 27 45 46
f 27 46 47
f 27 47 34
f 27 34 28
f 29 48 49
f 29 49 50
f 29 50 51
f 29 51 30
f 30 51 31
f 31 51 52
f 31 52 53
f 31 53 44
f 31 44 43
f 32 35 54
f 32 54 36
f 32 36 33
f 34 47 35
f 35 47 55
f 35 55 54
f 36 54 56
f 40 56 41
f 41 57 58
f 41 56 57
f 44 53 57
f 44 57 45
f 45 57 46
f 46 57 56
f 46 56 55
f 46 55 60
f 46 60 59
f 46 59 47
f 47 59 60
f 47 60 55
f 48 61 62
f 48 62 63
f 48 63 49
f 49 63 64
f 49 64 51
f 49 51 50
f 51 64 52
f 52 62 57
f 52 57 53
f 52 64 62
f 54 55 56
f 57 62 58
f 58 62 61
f 62 64 63

