# https://github.com/mikedh/trimesh
v 0.03140590 -0.02638551 -0.01641874
v 0.03589856 -0.02638551 -0.01626204
v 0.02729740 -0.02638551 -0.01608725
v 0.01214400 -0.01412939 -0.01399580
v 0.03920670 -0.02638551 -0.01578589
v 0.02178029 -0.01412939 -0.01359499
v 0.02434676 -0.02638551 -0.01552069
v 0.00394302 -0.01417979 -0.01254324
v -0.00234244 -0.01412939 -0.00637136
v 0.04322982 -0.02477296 -0.01301336
v 0.04687411 -0.02576881 -0.01139807
v 0.05120137 -0.02638551 -0.00543413
v 0.02559532 -0.01412939 -0.01231119
v 0.02155085 -0.02638551 -0.01471605
v 0.00061355 -0.01437056 -0.01019865
v 0.01898438 -0.02638551 -0.01375773
v 0.01616712 -0.02638551 -0.01236845
v 0.01133831 -0.02622594 -0.00836939
v 0.01026583 -0.02638551 -0.00542810
v -0.00242781 -0.01412939 -0.00025373
v 0.04631386 -0.02355035 -0.00920717
v 0.02800172 -0.01412939 -0.01107260
v 0.04959532 -0.02585759 -0.00810720
v 0.04859754 -0.02358874 -0.00585604
v 0.04981942 -0.02382031 -0.00217039
v 0.05207642 -0.02638551 -0.00177862
v 0.01385143 -0.02638551 -0.01078028
v 0.01028718 -0.02638551 -0.00006990
v -0.00155809 -0.01412939 0.00282919
v 0.01092746 -0.02638431 0.00371519
v 0.03038678 -0.01412939 -0.00929758
v 0.04370470 -0.02108833 -0.00795351
v 0.04537477 -0.02085316 -0.00471689
v 0.04648994 -0.02109912 -0.00116987
v 0.04939256 -0.02352155 0.00130129
v 0.05169225 -0.02638551 0.00238318
v 0.01337121 -0.02638551 0.00687647
v 0.00040545 -0.01413059 0.00527624
v 0.00547971 -0.01412939 0.00853998
v 0.03286255 -0.01412939 -0.00645876
v 0.03431919 -0.01412939 -0.00294187
v 0.03434587 -0.01412939 0.00014105
v 0.04574294 -0.02097794 0.00263632
v 0.04984076 -0.02538846 0.00531843
v 0.04627117 -0.02582400 0.01038130
v 0.03672026 -0.02638551 0.01436831
v 0.00298260 -0.01430816 0.00723509
v 0.01613511 -0.02638551 0.00901312
v 0.01214400 -0.01412939 0.00939585
v 0.01908042 -0.02638551 0.01069472
v 0.02316223 -0.02638551 0.01240343
v 0.02579274 -0.02638551 0.01325930
v 0.03267046 -0.02638551 0.01428393
v 0.03332675 -0.01412939 0.00265742
v 0.04769047 -0.02465778 0.00773234
v 0.04443569 -0.02150946 0.00610197
v 0.04059932 -0.02525169 0.01282534
v 0.04476650 -0.02335958 0.00886244
v 0.04302173 -0.02476456 0.01142100
v 0.02556864 -0.01412939 0.00883833
v 0.02207909 -0.01507485 0.01015829
v 0.03108042 -0.01412939 0.00546911
v 0.04189590 -0.02187060 0.00889258
v 0.02814578 -0.01412939 0.00762686
f 1 2 5
f 1 5 12
f 1 12 26
f 1 26 36
f 1 36 46
f 1 46 53
f 1 53 52
f 1 52 51
f 1 51 50
f 1 50 48
f 1 48 37
f 1 37 28
f 1 28 19
f 1 19 27
f 1 27 17
f 1 17 16
f 1 16 14
f 1 14 7
f 1 7 3
f 1 3 4
f 1 4 2
f 2 4 6
f 2 6 5
f 3 7 8
f 3 8 4
f 4 8 9
f 4 9 20
f 4 20 29
f 4 29 39
f 4 39 49
f 4 49 60
f 4 60 64
f 4 64 62
f 4 62 54
f 4 54 42
f 4 42 41
f 4 41 40
f 4 40 31
f 4 31 22
f 4 22 13
f 4 13 6
f 5 10 11
f 5 11 12
f 5 6 13
f 5 13 10
f 7 14 8
f 8 15 9
f 8 14 16
f 8 16 17
f 8 17 15
f 9 15 18
f 9 18 19
f 9 19 20
f 10 21 11
f 10 13 22
f 10 22 21
f 11 21 23
f 11 23 12
f 12 23 24
f 12 24 25
f 12 25 26
f 15 17 27
f 15 27 18
f 18 27 19
f 19 28 20
f 20 28 30
f 20 30 29
f 21 24 23
f 21 22 31
f 21 31 32
f 21 32 24
f 24 32 33
f 24 33 25
f 25 33 34
f 25 34 35
f 25 35 26
f 26 35 36
f 28 37 30
f 29 38 39
f 29 30 37
f 29 37 38
f 31 40 32
f 32 40 33
f 33 40 41
f 33 41 34
f 34 41 42
f 34 42 43
f 34 43 35
f 35 44 36
f 35 43 44
f 36 44 45
f 36 45 46
f 37 47 38
f 37 48 47
f 38 47 39
f 39 47 50
f 39 50 51
f 39 51 52
f 39 52 53
f 39 53 49
f 42 54 43
f 43 55 44
f 43 54 56
f 43 56 55
f 44 55 45
f 45 57 46
f 45 55 58
f 45 58 59
f 45 59 57
f 46 57 60
f 46 60 61
f 46 61 53
f 47 48 50
f 49 61 60
f 49 53 61
f 54 62 56
f 55 56 58
f 56 62 63
f 56 63 58
f 57 59 60
f 58 63 59
f 59 63 64
f 59 64 60
f 62 64 63

