# https://github.com/mikedh/trimesh
v 0.06675592 -0.07865111 0.00048989
v 0.07154614 -0.07702018 0.00110423
v 0.06842990 -0.07792625 0.00402233
v 0.06524398 -0.07865111 0.00385539
v 0.06531528 -0.07832277 -0.00400412
v 0.06828730 -0.07805902 -0.00217112
v 0.07475637 -0.07495147 0.00324773
v 0.07373869 -0.07557944 -0.00141990
v 0.07026270 -0.07576245 0.00868995
v 0.06815442 -0.07723728 0.00708733
v 0.06551785 -0.07711527 0.00868995
v 0.06487127 -0.06313308 0.01646264
v 0.06514837 -0.07669543 -0.00821433
v 0.06819007 -0.07713860 -0.00588051
v 0.07194478 -0.07583780 -0.00471862
v 0.07775268 -0.07068307 0.00547470
v 0.07284255 -0.07345511 0.00990527
v 0.07646438 -0.07363094 0.00008256
v 0.07845436 -0.07133077 0.00034632
v 0.07358798 -0.07423917 -0.00606749
v 0.07026594 -0.07311601 0.01229584
v 0.06619684 -0.07463031 0.01222239
v 0.06590515 -0.07160888 0.01508706
v 0.06773794 -0.06404992 0.01777479
v 0.06872969 -0.06085086 0.01770467
v 0.06641075 -0.06032336 0.01613210
v 0.06487127 -0.06032336 0.00369513
v 0.06487127 -0.06032336 -0.00983698
v 0.06514837 -0.07484202 -0.01080188
v 0.06805394 -0.07504477 -0.00975685
v 0.07039072 -0.07555073 -0.00748313
v 0.07975563 -0.06873098 0.00230953
v 0.07764249 -0.06823220 0.00937106
v 0.07415677 -0.07106523 0.01129420
v 0.07567519 -0.07199463 -0.00660169
v 0.07764249 -0.07125363 -0.00310932
v 0.07923383 -0.06745172 -0.00499240
v 0.08015428 -0.06770111 -0.00043829
v 0.07225430 -0.07347126 -0.00899226
v 0.07251844 -0.06998154 0.01360798
v 0.07010713 -0.06821067 0.01573145
v 0.07297381 -0.06585847 0.01518389
v 0.07505616 -0.06152189 0.01435921
v 0.08063881 -0.06098363 0.00644295
v 0.06586464 -0.06032336 -0.01476502
v 0.06546113 -0.06600559 -0.01580339
v 0.06623411 -0.07265490 -0.01275508
v 0.07060786 -0.07155326 -0.01213406
v 0.08070687 -0.06559831 0.00300066
v 0.08004894 -0.06413604 0.00705728
v 0.07826476 -0.06542607 0.01017237
v 0.07622454 -0.06611504 0.01234592
v 0.07342593 -0.07086967 -0.01084529
v 0.07620186 -0.06879737 -0.00953649
v 0.07824856 -0.06641288 -0.00826441
v 0.08021748 -0.06293751 -0.00565014
v 0.08081058 -0.06486269 -0.00175711
v 0.07857914 -0.06194891 0.01053964
v 0.08142637 -0.06195788 0.00094063
v 0.07858563 -0.06194891 -0.00915586
v 0.07545480 -0.06172284 -0.01275841
v 0.06859195 -0.06105719 -0.01633425
v 0.06826137 -0.06477836 -0.01625412
v 0.07437554 -0.06657256 -0.01262486
f 1 2 3
f 1 3 4
f 1 4 5
f 1 5 6
f 1 6 2
f 2 7 3
f 2 6 8
f 2 8 7
f 3 9 10
f 3 10 4
f 3 7 9
f 4 10 11
f 4 11 12
f 4 12 13
f 4 13 5
f 5 13 14
f 5 14 6
f 6 14 15
f 6 15 8
f 7 16 17
f 7 17 9
f 7 8 18
f 7 18 19
f 7 19 16
f 8 15 20
f 8 20 18
f 9 11 10
f 9 17 21
f 9 21 22
f 9 22 11
f 11 22 23
f 11 23 12
f 12 23 24
f 12 24 25
f 12 25 26
f 12 26 27
f 12 27 28
f 12 28 13
f 13 28 29
f 13 29 30
f 13 30 14
f 14 30 31
f 14 31 15
f 15 31 20
f 16 19 32
f 16 32 33
f 16 33 34
f 16 34 17
f 17 34 21
f 18 20 35
f 18 35 36
f 18 36 19
f 19 36 37
f 19 37 38
f 19 38 32
f 20 31 39
f 20 39 35
f 21 40 23
f 21 23 22
f 21 34 40
f 23 41 24
f 23 40 41
f 24 41 42
f 24 42 25
f 25 42 43
f 25 43 44
f 25 44 26
f 26 44 45
f 26 45 28
f 26 28 27
f 28 45 46
f 28 46 29
f 29 46 47
f 29 47 30
f 30 47 48
f 30 48 39
f 30 39 31
f 32 49 50
f 32 50 33
f 32 38 49
f 33 50 51
f 33 51 52
f 33 52 34
f 34 52 40
f 35 37 36
f 35 39 53
f 35 53 54
f 35 54 37
f 37 54 55
f 37 55 56
f 37 56 57
f 37 57 38
f 38 57 49
f 39 48 53
f 40 52 42
f 40 42 41
f 42 52 43
f 43 52 58
f 43 58 44
f 44 58 50
f 44 50 49
f 44 49 59
f 44 59 60
f 44 60 61
f 44 61 45
f 45 61 62
f 45 62 46
f 46 62 63
f 46 63 47
f 47 63 48
f 48 63 64
f 48 64 53
f 49 57 59
f 50 58 51
f 51 58 52
f 53 64 54
f 54 64 55
f 55 64 60
f 55 60 56
f 56 60 59
f 56 59 57
f 60 64 61
f 61 64 63
f 61 63 62

