# https://github.com/mikedh/trimesh
v 0.01798246 -0.01807034 -0.02773017
v 0.01998199 -0.01807034 -0.02735149
v 0.01798246 -0.01807034 -0.01392835
v 0.01348687 -0.01617880 -0.03370680
v 0.01555315 -0.01617880 -0.03337297
v 0.01620737 -0.01617880 -0.03319609
v 0.01655514 -0.01617880 -0.03282986
v 0.01998199 -0.01673367 -0.02828075
v 0.01998199 -0.01807034 -0.01484515
v 0.01998199 -0.00682600 -0.00886353
v 0.01348687 -0.01617880 -0.01202001
v 0.01348687 -0.01555047 -0.03395593
v 0.01610819 -0.01608173 -0.03334556
v 0.01669310 -0.01608041 -0.03273021
v 0.01998199 -0.01393439 -0.02977304
v 0.01998199 -0.00495150 -0.00886353
v 0.01798246 -0.00656233 -0.00886353
v 0.01348687 -0.00771668 -0.00886603
v 0.01348687 -0.01482769 -0.03393102
v 0.01435407 -0.01210580 -0.03416022
v 0.01482963 -0.01265936 -0.03431468
v 0.01537068 -0.01265936 -0.03416769
v 0.01616223 -0.01555047 -0.03339290
v 0.01652335 -0.01555047 -0.03309892
v 0.01998199 -0.01343067 -0.03001469
v 0.01998199 -0.01361301 -0.02994244
v 0.01798119 -0.00467078 -0.00886603
v 0.01798246 -0.00495150 -0.00886353
v 0.01998199 -0.00495150 -0.02937443
v 0.01348687 -0.00467078 -0.00886603
v 0.01348687 -0.00914649 -0.03368189
v 0.01481946 -0.01189199 -0.03423994
v 0.01535479 -0.01193527 -0.03417766
v 0.01998199 -0.00976563 -0.03072222
v 0.01998199 -0.01048841 -0.03066741
v 0.01998199 -0.01116527 -0.03055281
v 0.01998199 -0.01220025 -0.03035102
v 0.01998199 -0.01261083 -0.03026133
v 0.01998199 -0.01269871 -0.03023891
v 0.01998199 -0.01274725 -0.03022645
v 0.01798119 -0.00467078 -0.02917263
v 0.01998199 -0.00836337 -0.03059517
v 0.01574007 -0.00976563 -0.03321352
v 0.01525688 -0.00937604 -0.03328577
v 0.01348687 -0.00833845 -0.03352494
v 0.01460393 -0.00642853 -0.03192801
v 0.01458232 -0.00467078 -0.02968833
v 0.01348687 -0.00467078 -0.02980293
v 0.01348687 -0.00903892 -0.03366694
v 0.01348687 -0.00837911 -0.03353989
v 0.01998199 -0.00904286 -0.03070727
v 0.01348687 -0.00797509 -0.03323097
v 0.01410675 -0.00644034 -0.03191556
v 0.01370876 -0.00649937 -0.03184082
f 1 2 9
f 1 9 3
f 1 3 11
f 1 11 4
f 1 4 5
f 1 5 2
f 2 5 6
f 2 6 7
f 2 7 8
f 2 8 15
f 2 15 26
f 2 26 25
f 2 25 40
f 2 40 39
f 2 39 38
f 2 38 37
f 2 37 36
f 2 36 35
f 2 35 34
f 2 34 51
f 2 51 42
f 2 42 29
f 2 29 16
f 2 16 10
f 2 10 9
f 3 9 10
f 3 10 11
f 4 12 13
f 4 13 5
f 4 11 18
f 4 18 30
f 4 30 48
f 4 48 52
f 4 52 45
f 4 45 50
f 4 50 49
f 4 49 31
f 4 31 19
f 4 19 12
f 5 13 6
f 6 13 7
f 7 13 14
f 7 14 8
f 8 14 15
f 10 16 28
f 10 28 17
f 10 17 18
f 10 18 11
f 12 19 20
f 12 20 21
f 12 21 13
f 13 21 22
f 13 22 23
f 13 23 24
f 13 24 14
f 14 24 25
f 14 25 26
f 14 26 15
f 16 27 30
f 16 30 28
f 16 29 41
f 16 41 27
f 17 28 30
f 17 30 18
f 19 31 20
f 20 32 21
f 20 31 32
f 21 32 33
f 21 33 22
f 22 33 34
f 22 34 23
f 23 34 35
f 23 35 24
f 24 35 36
f 24 36 37
f 24 37 38
f 24 38 39
f 24 39 40
f 24 40 25
f 27 41 47
f 27 47 48
f 27 48 30
f 29 42 43
f 29 43 44
f 29 44 45
f 29 45 46
f 29 46 47
f 29 47 41
f 31 49 32
f 32 49 50
f 32 50 33
f 33 50 44
f 33 44 43
f 33 43 42
f 33 42 51
f 33 51 34
f 44 50 45
f 45 52 46
f 46 52 53
f 46 53 48
f 46 48 47
f 48 53 54
f 48 54 52
f 52 54 53

