# https://github.com/mikedh/trimesh
v 0.03119911 -0.00036086 -0.00886137
v 0.03119911 -0.00036086 -0.02275063
v 0.02574518 -0.00036086 -0.00886137
v 0.03119911 -0.00787959 -0.00886137
v 0.02574518 -0.00036086 -0.02275063
v 0.03119911 -0.01752072 -0.02275063
v 0.02574518 -0.00826989 -0.00886137
v 0.02712641 -0.00825242 -0.00886137
v 0.03119911 -0.00832038 -0.00899734
v 0.02574518 -0.02019266 -0.02275063
v 0.03119911 -0.01295938 -0.01246727
v 0.03098127 -0.01770519 -0.02275063
v 0.03119911 -0.01233412 -0.01154268
v 0.03119911 -0.01159040 -0.01089411
v 0.03119911 -0.01151467 -0.01083700
v 0.03119911 -0.01120981 -0.01062489
v 0.03119911 -0.01085639 -0.01038286
v 0.03119911 -0.01063309 -0.01023602
v 0.02640296 -0.00830096 -0.00886137
v 0.02574518 -0.01814987 -0.01802842
v 0.03119911 -0.00897089 -0.00929511
v 0.02860589 -0.01910330 -0.02275063
v 0.02574518 -0.02019654 -0.02260922
v 0.03119911 -0.01265646 -0.01195059
v 0.02574518 -0.01946836 -0.01989120
v 0.02574518 -0.01959264 -0.02010603
v 0.02574518 -0.01983731 -0.02062407
v 0.02946816 -0.01872270 -0.02264049
v 0.02985685 -0.01821783 -0.02206126
v 0.03037101 -0.01807608 -0.02243926
v 0.03070897 -0.01793432 -0.02275063
v 0.02574518 -0.01845085 -0.01837106
v 0.03119911 -0.01029327 -0.01003070
v 0.03119911 -0.00929323 -0.00946643
v 0.02920227 -0.01887417 -0.02275063
v 0.02574518 -0.02017518 -0.02206126
v 0.02574518 -0.01846638 -0.01839145
v 0.02574518 -0.01879649 -0.01882656
v 0.02574518 -0.01898873 -0.01911481
v 0.02574518 -0.01904699 -0.01920455
v 0.02574518 -0.01985090 -0.02065806
v 0.02935123 -0.01881203 -0.02275063
v 0.02990383 -0.01850716 -0.02275063
v 0.03001435 -0.01843920 -0.02275063
v 0.03005173 -0.01841590 -0.02275063
v 0.02574518 -0.02004508 -0.02133791
f 1 2 5
f 1 5 3
f 1 3 7
f 1 7 19
f 1 19 8
f 1 8 4
f 1 4 9
f 1 9 21
f 1 21 34
f 1 34 33
f 1 33 18
f 1 18 17
f 1 17 16
f 1 16 15
f 1 15 14
f 1 14 13
f 1 13 24
f 1 24 11
f 1 11 6
f 1 6 2
f 2 6 12
f 2 12 31
f 2 31 45
f 2 45 44
f 2 44 43
f 2 43 42
f 2 42 35
f 2 35 22
f 2 22 10
f 2 10 5
f 3 5 10
f 3 10 23
f 3 23 36
f 3 36 46
f 3 46 41
f 3 41 27
f 3 27 26
f 3 26 25
f 3 25 40
f 3 40 39
f 3 39 38
f 3 38 37
f 3 37 32
f 3 32 20
f 3 20 7
f 4 8 9
f 6 11 12
f 7 13 14
f 7 14 15
f 7 15 16
f 7 16 17
f 7 17 18
f 7 18 19
f 7 20 13
f 8 19 9
f 9 19 21
f 10 22 23
f 11 24 25
f 11 25 26
f 11 26 27
f 11 27 28
f 11 28 29
f 11 29 30
f 11 30 31
f 11 31 12
f 13 20 32
f 13 32 24
f 18 33 19
f 19 33 34
f 19 34 21
f 22 35 36
f 22 36 23
f 24 32 37
f 24 37 38
f 24 38 39
f 24 39 40
f 24 40 25
f 27 41 28
f 28 41 42
f 28 42 43
f 28 43 29
f 29 43 44
f 29 44 30
f 30 44 45
f 30 45 31
f 35 42 46
f 35 46 36
f 41 46 42

