# https://github.com/mikedh/trimesh
v -0.01965654 0.00658509 -0.02190222
v -0.01965654 0.00783177 -0.02366183
v -0.02531933 0.00806608 -0.02428261
v -0.02235111 -0.00093652 -0.01274017
v -0.02128734 -0.00093652 -0.01274463
v -0.01977488 -0.00093652 -0.01299697
v -0.01965654 -0.00079316 -0.03405426
v -0.01965654 0.00833993 -0.02492571
v -0.02524291 0.00868892 -0.02539018
v -0.02676646 0.00766864 -0.02416649
v -0.02640159 0.00832609 -0.02495251
v -0.02383399 -0.00093652 -0.01322027
v -0.02318808 -0.00093652 -0.03485591
v -0.02186791 0.00147182 -0.03477106
v -0.02088056 0.00304871 -0.03407436
v -0.01965654 0.00268785 -0.03348931
v -0.01965654 0.00851987 -0.02595960
v -0.02513813 0.00897069 -0.02676125
v -0.02604043 0.00902902 -0.02748474
v -0.02682686 0.00854656 -0.02588144
v -0.02750111 0.00796425 -0.02492571
v -0.02811744 0.00728999 -0.02442329
v -0.02495693 -0.00093652 -0.01409114
v -0.02877444 0.00655840 -0.02400794
v -0.02973467 0.00594148 -0.02408163
v -0.03171307 -0.00093652 -0.02236445
v -0.03131493 -0.00089104 -0.03327494
v -0.02784872 -0.00019306 -0.03505019
v -0.02740374 0.00082426 -0.03555038
v -0.02841327 0.00646052 -0.03279484
v -0.02133911 0.00565972 -0.03279708
v -0.02014714 0.00557173 -0.03229688
v -0.01965654 0.00746993 -0.02921533
v -0.01965654 0.00846154 -0.02702474
v -0.02604043 0.00916347 -0.02893173
v -0.02744688 0.00871067 -0.02751154
v -0.02784872 0.00838936 -0.02639950
v -0.02860064 0.00795436 -0.02599979
v -0.02942281 0.00689157 -0.02489892
v -0.03068258 -0.00093652 -0.01962678
v -0.03014145 0.00674525 -0.02571396
v -0.03054575 0.00566565 -0.02488775
v -0.03141231 -0.00093652 -0.02090852
v -0.03183264 0.00341154 -0.02563358
v -0.03224927 0.00217079 -0.02802736
v -0.03217532 -0.00050448 -0.03254251
v -0.03050385 0.00291030 -0.03407659
v -0.02979507 0.00363399 -0.03401184
v -0.02594921 0.00799094 -0.03113125
v -0.03040154 0.00652676 -0.03020009
v -0.02778462 0.00816099 -0.03028940
v -0.02706353 0.00869090 -0.02994775
v -0.02599359 0.00876208 -0.03014872
v -0.02118256 0.00639626 -0.03196416
v -0.01965654 0.00806707 -0.02821494
v -0.02742592 0.00875022 -0.02888931
v -0.02868939 0.00814418 -0.02751601
v -0.03041263 0.00673833 -0.02676125
v -0.03083296 0.00477587 -0.02453717
v -0.03108689 0.00358851 -0.02390076
v -0.03115592 0.00577539 -0.02673222
v -0.03126932 0.00505566 -0.02562688
v -0.03178826 0.00434482 -0.02683047
v -0.03122864 0.00562017 -0.02794251
f 1 2 3
f 1 3 4
f 1 4 5
f 1 5 6
f 1 6 7
f 1 7 16
f 1 16 33
f 1 33 55
f 1 55 34
f 1 34 17
f 1 17 8
f 1 8 2
f 2 8 9
f 2 9 3
f 3 10 4
f 3 9 11
f 3 11 10
f 4 10 12
f 4 12 23
f 4 23 40
f 4 40 43
f 4 43 26
f 4 26 13
f 4 13 6
f 4 6 5
f 6 13 7
f 7 13 14
f 7 14 15
f 7 15 16
f 8 17 18
f 8 18 9
f 9 18 19
f 9 19 20
f 9 20 11
f 10 11 21
f 10 21 22
f 10 22 12
f 11 20 21
f 12 22 24
f 12 24 25
f 12 25 23
f 13 26 27
f 13 27 28
f 13 28 29
f 13 29 14
f 14 29 15
f 15 29 30
f 15 30 31
f 15 31 32
f 15 32 16
f 16 32 33
f 17 34 35
f 17 35 18
f 18 35 19
f 19 35 36
f 19 36 20
f 20 37 21
f 20 36 37
f 21 37 38
f 21 38 39
f 21 39 22
f 22 39 24
f 23 25 40
f 24 39 25
f 25 39 41
f 25 41 42
f 25 42 40
f 26 43 44
f 26 44 45
f 26 45 46
f 26 46 27
f 27 46 47
f 27 47 29
f 27 29 28
f 29 47 48
f 29 48 30
f 30 49 31
f 30 48 47
f 30 47 50
f 30 50 51
f 30 51 52
f 30 52 53
f 30 53 49
f 31 49 54
f 31 54 32
f 32 54 33
f 33 54 55
f 34 55 53
f 34 53 35
f 35 53 52
f 35 52 56
f 35 56 36
f 36 56 57
f 36 57 37
f 37 57 38
f 38 41 39
f 38 57 58
f 38 58 41
f 40 42 59
f 40 59 60
f 40 60 43
f 41 58 61
f 41 61 62
f 41 62 42
f 42 62 59
f 43 60 44
f 44 60 62
f 44 62 63
f 44 63 45
f 45 63 64
f 45 64 46
f 46 64 50
f 46 50 47
f 49 53 54
f 50 64 58
f 50 58 57
f 50 57 56
f 50 56 51
f 51 56 52
f 53 55 54
f 58 64 61
f 59 62 60
f 61 64 63
f 61 63 62

