# https://github.com/mikedh/trimesh
v -0.02206816 -0.01873076 -0.00886137
v -0.02255610 -0.01910600 -0.00886137
v -0.02206816 -0.01907860 -0.00886300
v -0.02206816 -0.01776033 -0.00886300
v -0.02461899 -0.01776033 -0.00886137
v -0.02278602 -0.01911590 -0.00886137
v -0.02475949 -0.02553526 -0.01916603
v -0.02206816 -0.02430756 -0.01915787
v -0.02206816 -0.01776033 -0.02555009
v -0.02475949 -0.01776033 -0.00886137
v -0.02351154 -0.01908164 -0.00886137
v -0.02423707 -0.01894769 -0.00886137
v -0.02475949 -0.01879013 -0.00886137
v -0.03352325 -0.02094108 -0.01645101
v -0.03378382 -0.02094108 -0.01661601
v -0.03392050 -0.02094108 -0.01670749
v -0.03429092 -0.02094108 -0.01706034
v -0.03453234 -0.02094108 -0.01733805
v -0.03462942 -0.02094108 -0.01746384
v -0.03485167 -0.02094108 -0.01786407
v -0.03489382 -0.02094108 -0.01799475
v -0.03503816 -0.02094108 -0.01844562
v -0.03508031 -0.02094108 -0.01875110
v -0.03511736 -0.02094108 -0.01916603
v -0.03506882 -0.02094108 -0.01946825
v -0.03498579 -0.02094108 -0.01990278
v -0.02475949 -0.02551927 -0.01935226
v -0.02206816 -0.02451306 -0.02088620
v -0.02206816 -0.02456786 -0.02017723
v -0.02206816 -0.02452448 -0.01988971
v -0.02206816 -0.02335843 -0.02268152
v -0.02931573 -0.02094108 -0.02388710
v -0.02981516 -0.02094108 -0.02386096
v -0.03146547 -0.02094108 -0.02376458
v -0.03218844 -0.02094108 -0.02364697
v -0.03263551 -0.02094108 -0.02350321
v -0.03291013 -0.02082691 -0.02331861
v -0.03072334 -0.01776033 -0.02193170
v -0.03125982 -0.01776033 -0.01649185
v -0.03165452 -0.01776033 -0.01697540
v -0.03219610 -0.01776033 -0.01771378
v -0.03481846 -0.02085660 -0.01790491
v -0.03491426 -0.02072873 -0.01844562
v -0.03494108 -0.02067621 -0.01916603
v -0.03487083 -0.02076907 -0.01989135
v -0.03479419 -0.02091597 -0.02043697
v -0.03475204 -0.02094108 -0.02058562
v -0.02475949 -0.02544544 -0.01988971
v -0.02206816 -0.02408607 -0.02185982
v -0.02206816 -0.02380978 -0.02236623
v -0.02475949 -0.02493853 -0.02049904
v -0.03333420 -0.02093728 -0.02320263
v -0.03114103 -0.01776033 -0.02171116
v -0.03249500 -0.01776033 -0.01844562
v -0.03257164 -0.01776033 -0.01873477
v -0.03264572 -0.01776033 -0.01916603
v -0.03269426 -0.01776033 -0.01952379
v -0.03467285 -0.02031467 -0.01916603
v -0.03263551 -0.01776033 -0.02021807
v -0.03239792 -0.01776033 -0.02078655
v -0.03402907 -0.02094108 -0.02229762
v -0.03393455 -0.02094108 -0.02248549
v -0.03201345 -0.01776033 -0.02111327
f 1 2 3
f 1 3 8
f 1 8 30
f 1 30 29
f 1 29 28
f 1 28 49
f 1 49 50
f 1 50 31
f 1 31 9
f 1 9 4
f 1 4 5
f 1 5 10
f 1 10 13
f 1 13 12
f 1 12 11
f 1 11 6
f 1 6 2
f 2 6 7
f 2 7 3
f 3 7 8
f 4 9 38
f 4 38 53
f 4 53 63
f 4 63 60
f 4 60 59
f 4 59 57
f 4 57 56
f 4 56 55
f 4 55 54
f 4 54 41
f 4 41 40
f 4 40 39
f 4 39 10
f 4 10 5
f 6 11 7
f 7 11 12
f 7 12 13
f 7 13 14
f 7 14 15
f 7 15 16
f 7 16 17
f 7 17 18
f 7 18 19
f 7 19 20
f 7 20 21
f 7 21 22
f 7 22 23
f 7 23 24
f 7 24 25
f 7 25 26
f 7 26 27
f 7 27 28
f 7 28 29
f 7 29 30
f 7 30 8
f 9 31 32
f 9 32 33
f 9 33 34
f 9 34 35
f 9 35 36
f 9 36 37
f 9 37 38
f 10 39 18
f 10 18 17
f 10 17 16
f 10 16 13
f 13 16 15
f 13 15 14
f 18 39 40
f 18 40 19
f 19 40 41
f 19 41 42
f 19 42 20
f 20 42 21
f 21 42 22
f 22 42 43
f 22 43 23
f 23 43 24
f 24 43 44
f 24 44 25
f 25 44 45
f 25 45 26
f 26 45 46
f 26 46 47
f 26 47 48
f 26 48 27
f 27 48 28
f 28 48 49
f 31 50 34
f 31 34 33
f 31 33 32
f 34 50 35
f 35 50 51
f 35 51 48
f 35 48 36
f 36 52 37
f 36 48 52
f 37 52 38
f 38 52 53
f 41 54 42
f 42 54 43
f 43 55 56
f 43 56 57
f 43 57 58
f 43 58 44
f 43 54 55
f 44 59 45
f 44 58 59
f 45 59 46
f 46 59 47
f 47 59 60
f 47 60 61
f 47 61 48
f 48 61 62
f 48 62 52
f 48 51 50
f 48 50 49
f 52 62 60
f 52 60 63
f 52 63 53
f 57 59 58
f 60 62 61

