# https://github.com/mikedh/trimesh
v -0.01940962 -0.00570535 -0.00886137
v -0.01765797 -0.00338138 -0.00886644
v -0.01846306 -0.00292851 -0.00886644
v -0.01946106 -0.00249649 -0.00886644
v -0.01965603 -0.01864508 -0.00911745
v -0.01915806 -0.01831139 -0.00886137
v -0.01452919 -0.01560307 -0.00886137
v -0.01452971 -0.00579473 -0.00905153
v -0.01718778 0.00541394 -0.01845055
v -0.01718778 0.00965667 -0.02323246
v -0.01965654 0.00768726 -0.02330853
v -0.01965654 -0.01940186 -0.01052464
v -0.01462231 -0.01944953 -0.01277615
v -0.01844505 -0.01804026 -0.00886137
v -0.01497572 -0.01613937 -0.00886137
v -0.01440110 -0.01121137 -0.03155136
v -0.01440110 -0.00570535 -0.02981710
v -0.01718778 0.01098848 -0.02700779
v -0.01718778 0.01083355 -0.02599106
v -0.01718778 0.01050283 -0.02489320
v -0.01718778 0.01023170 -0.02419341
v -0.01965654 0.00801500 -0.02406410
v -0.01965654 -0.01709875 -0.03321210
v -0.01954851 -0.01944953 -0.02743882
v -0.01464597 -0.01944953 -0.03121922
v -0.01556475 -0.01660118 -0.00886137
v -0.01621242 -0.01696765 -0.00886137
v -0.01765386 -0.01771252 -0.00886137
v -0.01440110 -0.01004640 -0.03144234
v -0.01544180 -0.01453345 -0.03341241
v -0.01718778 0.00830400 -0.03188098
v -0.01718778 0.00908462 -0.03150066
v -0.01719447 0.01069650 -0.02936071
v -0.01721402 0.01086037 -0.02846315
v -0.01722431 0.01093783 -0.02768730
v -0.01965654 0.00851554 -0.02595557
v -0.01965654 0.00833976 -0.02492616
v -0.01867963 -0.01739967 -0.03335409
v -0.01673611 -0.01944953 -0.03048393
v -0.01842293 -0.01944953 -0.02878009
v -0.01906186 -0.01944953 -0.02810818
v -0.01965654 -0.01435468 -0.03461929
v -0.01948884 -0.01643731 -0.03395754
v -0.01896772 -0.01680379 -0.03382569
v -0.01555291 -0.01944953 -0.03115329
v -0.01602156 -0.01546304 -0.03346312
v -0.01718778 0.00615284 -0.03232722
v -0.01627569 -0.01482544 -0.03379273
v -0.01679064 -0.01243592 -0.03407670
v -0.01727986 -0.00916747 -0.03411980
v -0.01826706 -0.00201680 -0.03405642
v -0.01965654 0.00268477 -0.03348594
v -0.01725569 0.00956431 -0.03089975
v -0.01727626 0.01023170 -0.03004783
v -0.01965654 0.00548545 -0.03188858
v -0.01965654 0.00821760 -0.02792563
v -0.01965654 0.00845893 -0.02702300
v -0.01620830 -0.01944953 -0.03089975
v -0.01961282 -0.01369324 -0.03476128
v -0.01941270 -0.00180526 -0.03426940
v -0.01772228 -0.01338040 -0.03433279
v -0.01772228 -0.01265640 -0.03439110
v -0.01965654 0.00746678 -0.02921366
v -0.01965654 0.00791370 -0.02850119
f 1 2 3
f 1 3 4
f 1 4 5
f 1 5 6
f 1 6 14
f 1 14 28
f 1 28 27
f 1 27 26
f 1 26 15
f 1 15 7
f 1 7 2
f 2 7 8
f 2 8 9
f 2 9 3
f 3 9 4
f 4 9 10
f 4 10 11
f 4 11 5
f 5 12 13
f 5 13 6
f 5 11 12
f 6 13 14
f 7 15 13
f 7 13 16
f 7 16 17
f 7 17 8
f 8 17 18
f 8 18 19
f 8 19 20
f 8 20 21
f 8 21 10
f 8 10 9
f 10 21 11
f 11 21 22
f 11 22 37
f 11 37 36
f 11 36 57
f 11 57 56
f 11 56 64
f 11 64 63
f 11 63 55
f 11 55 52
f 11 52 42
f 11 42 23
f 11 23 12
f 12 23 24
f 12 24 13
f 13 24 41
f 13 41 40
f 13 40 39
f 13 39 58
f 13 58 45
f 13 45 25
f 13 25 16
f 13 15 26
f 13 26 27
f 13 27 28
f 13 28 14
f 16 29 17
f 16 25 30
f 16 30 29
f 17 31 32
f 17 32 33
f 17 33 18
f 17 29 31
f 18 33 34
f 18 34 35
f 18 35 36
f 18 36 19
f 19 36 37
f 19 37 20
f 20 37 22
f 20 22 21
f 23 38 39
f 23 39 40
f 23 40 41
f 23 41 24
f 23 42 43
f 23 43 44
f 23 44 38
f 25 45 38
f 25 38 44
f 25 44 46
f 25 46 30
f 29 30 47
f 29 47 31
f 30 46 48
f 30 48 49
f 30 49 50
f 30 50 51
f 30 51 47
f 31 47 52
f 31 52 32
f 32 53 54
f 32 54 33
f 32 52 55
f 32 55 53
f 33 54 56
f 33 56 57
f 33 57 34
f 34 57 35
f 35 57 36
f 38 45 58
f 38 58 39
f 42 59 48
f 42 48 44
f 42 44 43
f 42 52 59
f 44 48 46
f 47 51 60
f 47 60 52
f 48 59 61
f 48 61 62
f 48 62 49
f 49 62 50
f 50 62 51
f 51 62 60
f 52 60 59
f 53 55 54
f 54 55 63
f 54 63 64
f 54 64 56
f 59 60 62
f 59 62 61

