# https://github.com/mikedh/trimesh
v -0.00716758 0.03840160 -0.02312635
v -0.00638925 0.03766195 -0.02236409
v -0.00664371 0.03826586 -0.02316125
v -0.01160236 0.03765780 -0.02314962
v -0.01115760 0.03773121 -0.02298675
v -0.01085824 0.03761625 -0.02241872
v -0.00885254 0.03768550 -0.02162104
v -0.00812553 0.03764533 -0.02166151
v -0.00614763 0.03633779 -0.02076267
v -0.00614763 0.03669930 -0.02123005
v -0.00576060 0.03690568 -0.02167567
v -0.00590814 0.03756361 -0.02255124
v -0.01447620 0.03545270 -0.02316125
v -0.00416331 0.03697078 -0.02309752
v -0.00377628 0.03673947 -0.02316125
v -0.01773279 0.03431830 -0.01844705
v -0.01773279 0.03442772 -0.01799384
v -0.00759310 0.03484879 -0.01867011
v -0.00707777 0.03480724 -0.01870957
v -0.00703715 0.03548456 -0.01947841
v -0.00655604 0.03542916 -0.01954416
v -0.00566865 0.03624776 -0.02087142
v -0.00277129 0.03408560 -0.02004745
v -0.00548262 0.03704004 -0.02210359
v -0.01472424 0.03509119 -0.02316125
v -0.01773279 0.03219769 -0.02209297
v -0.01773279 0.03264647 -0.02176773
v -0.01773279 0.03305646 -0.02133071
v -0.01773279 0.03335426 -0.02090531
v -0.01773279 0.03386675 -0.01975913
v -0.01773279 0.03402604 -0.01936308
v -0.00154820 0.03462995 -0.02316125
v -0.01773279 0.02425270 -0.01799384
v -0.00759310 0.03406067 -0.01799384
v -0.00709488 0.03392631 -0.01799384
v -0.00325668 0.03396509 -0.01955731
v -0.00251684 0.03368253 -0.01982540
v -0.00204855 0.03340828 -0.02008640
v -0.01773279 0.03019759 -0.02316125
v -0.01773279 0.03075579 -0.02292908
v -0.01773279 0.03143034 -0.02259069
v -0.01773279 0.03178077 -0.02239090
v -0.00128519 0.03415762 -0.02278493
v -0.00092596 0.03376841 -0.02278493
v -0.00095803 0.03396371 -0.02316125
v 0.00387446 0.02425270 -0.01799384
v -0.01773279 0.02425270 -0.02173232
v -0.00040636 0.02914906 -0.01799384
v -0.00274563 0.03347338 -0.01946273
v 0.00025437 0.02853684 -0.01799384
v 0.00056228 0.02820303 -0.01799384
v 0.00118452 0.02750494 -0.01799384
v -0.00071427 0.03329054 -0.02239595
v -0.01773279 0.02467377 -0.02316125
v -0.00062660 0.03344152 -0.02297309
v 0.00005765 0.03231681 -0.02316125
v 0.00401773 0.02425270 -0.01917036
v -0.01773065 0.02425270 -0.02316125
v -0.00007065 0.02886788 -0.01799384
v 0.00406477 0.02425270 -0.01993516
v 0.00410754 0.02425270 -0.02140101
v 0.00048316 0.03144142 -0.02316125
v 0.00387233 0.02425270 -0.02297511
v 0.00404553 0.02425270 -0.02216884
f 1 2 3
f 1 3 4
f 1 4 5
f 1 5 6
f 1 6 7
f 1 7 8
f 1 8 2
f 2 8 9
f 2 9 10
f 2 10 11
f 2 11 12
f 2 12 3
f 3 13 4
f 3 12 14
f 3 14 15
f 3 15 32
f 3 32 45
f 3 45 56
f 3 56 62
f 3 62 58
f 3 58 54
f 3 54 39
f 3 39 25
f 3 25 13
f 4 13 16
f 4 16 17
f 4 17 5
f 5 17 6
f 6 17 7
f 7 18 8
f 7 17 18
f 8 18 19
f 8 19 20
f 8 20 21
f 8 21 9
f 9 22 11
f 9 11 10
f 9 21 22
f 11 22 23
f 11 23 14
f 11 14 24
f 11 24 12
f 12 24 14
f 13 25 26
f 13 26 27
f 13 27 28
f 13 28 29
f 13 29 30
f 13 30 31
f 13 31 16
f 14 23 15
f 15 23 32
f 16 31 30
f 16 30 29
f 16 29 28
f 16 28 27
f 16 27 26
f 16 26 42
f 16 42 41
f 16 41 40
f 16 40 39
f 16 39 54
f 16 54 47
f 16 47 33
f 16 33 17
f 17 33 46
f 17 46 52
f 17 52 51
f 17 51 50
f 17 50 59
f 17 59 48
f 17 48 35
f 17 35 34
f 17 34 18
f 18 34 19
f 19 34 35
f 19 35 36
f 19 36 21
f 19 21 20
f 21 36 22
f 22 36 23
f 23 36 37
f 23 37 38
f 23 38 32
f 25 39 40
f 25 40 41
f 25 41 42
f 25 42 26
f 32 38 43
f 32 43 44
f 32 44 45
f 33 47 58
f 33 58 63
f 33 63 64
f 33 64 61
f 33 61 60
f 33 60 57
f 33 57 46
f 35 48 49
f 35 49 36
f 36 49 37
f 37 49 50
f 37 50 51
f 37 51 52
f 37 52 38
f 38 52 46
f 38 46 53
f 38 53 44
f 38 44 43
f 44 53 55
f 44 55 45
f 45 55 56
f 46 57 56
f 46 56 55
f 46 55 53
f 47 54 58
f 48 59 49
f 49 59 50
f 56 57 60
f 56 60 61
f 56 61 62
f 58 62 63
f 61 64 62
f 62 64 63

