# https://github.com/mikedh/trimesh
v -0.03228854 -0.01192537 -0.00886137
v -0.02676133 -0.01832916 -0.00886137
v -0.02976942 -0.01673577 -0.00868041
v -0.03198602 -0.01288914 -0.00853759
v -0.03173487 -0.01223350 -0.00697552
v -0.03136385 -0.01191412 -0.00603035
v -0.01367676 -0.01192537 -0.00750344
v -0.01285100 -0.01226375 -0.00886137
v -0.02386929 -0.01901294 -0.00886137
v -0.02752809 -0.01810827 -0.00794835
v -0.03042774 -0.01525424 -0.00712806
v -0.03030026 -0.01598797 -0.00847777
v -0.02743486 -0.01775301 -0.00687831
v -0.02852889 -0.01552790 -0.00452811
v -0.03131058 -0.01358207 -0.00670259
v -0.03119071 -0.01301295 -0.00564077
v -0.03056854 -0.01191412 -0.00461485
v -0.01892809 -0.01191412 -0.00278060
v -0.01435791 -0.01192537 -0.00658220
v -0.01445114 -0.01333796 -0.00662856
v -0.01359685 -0.01265981 -0.00772851
v -0.01385941 -0.01367915 -0.00776889
v -0.01350552 -0.01401330 -0.00880080
v -0.01484118 -0.01598797 -0.00886137
v -0.02380840 -0.01804003 -0.00553309
v -0.02242517 -0.01910018 -0.00886137
v -0.03045628 -0.01373332 -0.00450642
v -0.02619243 -0.01730419 -0.00514875
v -0.02703150 -0.01740338 -0.00587632
v -0.02748243 -0.01663447 -0.00506649
v -0.02829106 -0.01494542 -0.00355826
v -0.02998252 -0.01191412 -0.00377212
v -0.02070897 -0.01191412 -0.00169934
v -0.01971769 -0.01192537 -0.00227436
v -0.01607411 -0.01499607 -0.00540373
v -0.01536441 -0.01376638 -0.00572826
v -0.01576968 -0.01192819 -0.00515398
v -0.01529211 -0.01247620 -0.00561086
v -0.01441499 -0.01430032 -0.00715498
v -0.01522552 -0.01495527 -0.00640274
v -0.01522362 -0.01578185 -0.00757971
v -0.01605127 -0.01656483 -0.00783395
v -0.01588955 -0.01678713 -0.00886137
v -0.02268964 -0.01799430 -0.00554506
v -0.02406336 -0.01741815 -0.00441370
v -0.02093729 -0.01888561 -0.00886137
v -0.02766318 -0.01191412 -0.00197077
v -0.02592606 -0.01418988 -0.00213229
v -0.02151951 -0.01204215 -0.00140323
v -0.02255075 -0.01473507 -0.00211060
v -0.01703875 -0.01588105 -0.00519810
v -0.02591084 -0.01203652 -0.00133593
v -0.01605508 -0.01594155 -0.00634516
v -0.01670198 -0.01661337 -0.00694187
v -0.01765711 -0.01771573 -0.00886137
v -0.01986229 -0.01857679 -0.00886137
v -0.01702733 -0.01648534 -0.00616345
v -0.02094681 -0.01665699 -0.00431275
v -0.02206557 -0.01590989 -0.00320457
v -0.02278287 -0.01567282 -0.00279480
v -0.02350588 -0.01517616 -0.00238129
v -0.02314818 -0.01391693 -0.00159465
v -0.02302641 -0.01250223 -0.00122227
v -0.01885769 -0.01820042 -0.00886137
f 1 2 3
f 1 3 4
f 1 4 5
f 1 5 6
f 1 6 7
f 1 7 8
f 1 8 24
f 1 24 43
f 1 43 55
f 1 55 64
f 1 64 56
f 1 56 46
f 1 46 26
f 1 26 9
f 1 9 2
f 2 9 10
f 2 10 3
f 3 11 12
f 3 12 4
f 3 10 13
f 3 13 14
f 3 14 11
f 4 15 16
f 4 16 5
f 4 12 15
f 5 16 6
f 6 16 17
f 6 17 32
f 6 32 47
f 6 47 33
f 6 33 18
f 6 18 7
f 7 18 19
f 7 19 20
f 7 20 21
f 7 21 8
f 8 21 22
f 8 22 23
f 8 23 24
f 9 25 10
f 9 26 25
f 10 25 13
f 11 14 27
f 11 27 15
f 11 15 12
f 13 25 28
f 13 28 29
f 13 29 30
f 13 30 14
f 14 31 27
f 14 30 31
f 15 27 16
f 16 27 17
f 17 27 32
f 18 33 34
f 18 34 35
f 18 35 36
f 18 36 37
f 18 37 19
f 19 38 20
f 19 37 38
f 20 39 22
f 20 22 21
f 20 38 36
f 20 36 35
f 20 35 40
f 20 40 39
f 22 39 23
f 23 39 41
f 23 41 24
f 24 41 42
f 24 42 43
f 25 26 44
f 25 44 45
f 25 45 28
f 26 46 44
f 27 31 47
f 27 47 32
f 28 30 29
f 28 45 31
f 28 31 30
f 31 45 48
f 31 48 47
f 33 49 50
f 33 50 51
f 33 51 35
f 33 35 34
f 33 47 52
f 33 52 49
f 35 51 53
f 35 53 40
f 36 38 37
f 39 40 41
f 40 53 41
f 41 53 42
f 42 53 54
f 42 54 55
f 42 55 43
f 44 46 56
f 44 56 57
f 44 57 58
f 44 58 45
f 45 58 59
f 45 59 60
f 45 60 61
f 45 61 48
f 47 48 52
f 48 61 62
f 48 62 52
f 49 63 62
f 49 62 50
f 49 52 63
f 50 62 61
f 50 61 60
f 50 60 59
f 50 59 51
f 51 59 58
f 51 58 57
f 51 57 53
f 52 62 63
f 53 57 54
f 54 57 55
f 55 57 64
f 56 64 57

