# https://github.com/mikedh/trimesh
v 0.03704451 -0.00036086 -0.00886409
v 0.04065053 -0.00171984 -0.01157724
v 0.03925901 -0.00036086 -0.01247301
v 0.03119964 -0.00036086 -0.00886409
v 0.04047157 -0.00938267 -0.00886409
v 0.04091349 -0.00520159 -0.00888176
v 0.04297825 -0.00484449 -0.01272720
v 0.04064444 -0.00130156 -0.01302217
v 0.03976302 -0.00036086 -0.01501081
v 0.03119964 -0.00036086 -0.02274927
v 0.03119964 -0.01094831 -0.01045990
v 0.03137738 -0.00864202 -0.00913731
v 0.03715529 -0.01040769 -0.00887904
v 0.03854072 -0.01141453 -0.00947169
v 0.03999311 -0.01293552 -0.01125644
v 0.04077470 -0.01115496 -0.01031853
v 0.04182778 -0.01103262 -0.01130946
v 0.04143333 -0.00779555 -0.00902177
v 0.04326313 -0.00651262 -0.01249748
v 0.04150881 -0.00264731 -0.01501489
v 0.04348835 -0.00654404 -0.01462749
v 0.03960841 -0.00036086 -0.01667051
v 0.03655875 -0.00036086 -0.02092238
v 0.03304282 -0.00036252 -0.02271121
v 0.03496514 -0.00959594 -0.02274927
v 0.03151252 -0.01725051 -0.02274927
v 0.03119964 -0.01255197 -0.01184774
v 0.03376598 -0.01378695 -0.01161802
v 0.03329240 -0.01156166 -0.01013503
v 0.03564690 -0.01080943 -0.00926100
v 0.03548011 -0.01220313 -0.00998958
v 0.03765931 -0.01306282 -0.01049932
v 0.03884386 -0.01409445 -0.01235203
v 0.03954632 -0.01420853 -0.01380648
v 0.04147472 -0.01240317 -0.01311596
v 0.04278467 -0.01039777 -0.01244311
v 0.04328747 -0.00878585 -0.01243631
v 0.04363687 -0.00795922 -0.01392610
v 0.04282485 -0.00642831 -0.01708917
v 0.04122272 -0.00291018 -0.01661342
v 0.03922370 -0.00036086 -0.01810864
v 0.04341652 -0.00847338 -0.01598950
v 0.03815358 -0.00036086 -0.01978057
v 0.04078079 -0.00666142 -0.02156532
v 0.03963032 -0.00690445 -0.02243391
v 0.03779566 -0.00651262 -0.02265955
v 0.03409590 -0.01371586 -0.02274927
v 0.03296491 -0.01569480 -0.02274927
v 0.03955728 -0.01036636 -0.02129075
v 0.03900578 -0.01297354 -0.01948832
v 0.04130794 -0.01203284 -0.01799990
v 0.03981781 -0.01376711 -0.01647477
v 0.03624100 -0.01478882 -0.01269594
v 0.03553611 -0.01385308 -0.01119935
v 0.04148325 -0.01251394 -0.01519160
v 0.04200552 -0.01192207 -0.01648564
v 0.04352122 -0.00925868 -0.01452282
v 0.04173404 -0.00512554 -0.01860206
v 0.04291738 -0.00884867 -0.01761386
v 0.04168169 -0.00704828 -0.02030934
v 0.04051783 -0.00323587 -0.01904519
v 0.04090740 -0.00513216 -0.02048197
v 0.04260815 -0.01071850 -0.01731074
v 0.04202378 -0.00900573 -0.01959435
f 1 2 3
f 1 3 9
f 1 9 22
f 1 22 41
f 1 41 43
f 1 43 23
f 1 23 10
f 1 10 4
f 1 4 5
f 1 5 6
f 1 6 2
f 2 7 8
f 2 8 3
f 2 6 7
f 3 8 9
f 4 10 27
f 4 27 11
f 4 11 12
f 4 12 13
f 4 13 5
f 5 13 14
f 5 14 15
f 5 15 16
f 5 16 17
f 5 17 18
f 5 18 6
f 6 18 19
f 6 19 7
f 7 20 8
f 7 19 21
f 7 21 20
f 8 20 9
f 9 20 22
f 10 23 24
f 10 24 25
f 10 25 47
f 10 47 48
f 10 48 26
f 10 26 27
f 11 27 28
f 11 28 29
f 11 29 12
f 12 29 30
f 12 30 13
f 13 30 31
f 13 31 14
f 14 31 32
f 14 32 15
f 15 32 33
f 15 33 34
f 15 34 35
f 15 35 17
f 15 17 16
f 17 36 18
f 17 35 36
f 18 37 19
f 18 36 37
f 19 37 38
f 19 38 21
f 20 21 39
f 20 39 40
f 20 40 41
f 20 41 22
f 21 38 42
f 21 42 39
f 23 43 44
f 23 44 45
f 23 45 24
f 24 45 46
f 24 46 25
f 25 46 47
f 26 48 49
f 26 49 50
f 26 50 51
f 26 51 52
f 26 52 34
f 26 34 53
f 26 53 28
f 26 28 27
f 28 53 54
f 28 54 31
f 28 31 29
f 29 31 30
f 31 54 32
f 32 54 53
f 32 53 33
f 33 53 34
f 34 52 55
f 34 55 35
f 35 55 56
f 35 56 36
f 36 56 57
f 36 57 37
f 37 57 38
f 38 57 42
f 39 58 40
f 39 42 59
f 39 59 60
f 39 60 58
f 40 61 41
f 40 58 61
f 41 61 62
f 41 62 43
f 42 57 63
f 42 63 59
f 43 62 44
f 44 62 60
f 44 60 64
f 44 64 49
f 44 49 45
f 45 49 48
f 45 48 47
f 45 47 46
f 49 64 51
f 49 51 50
f 51 64 63
f 51 63 56
f 51 56 52
f 52 56 55
f 56 63 57
f 58 60 62
f 58 62 61
f 59 63 64
f 59 64 60

