# https://github.com/mikedh/trimesh
v 0.01632071 0.02033692 0.00125407
v 0.01631009 0.02033692 0.00226047
v 0.01787056 0.01867780 0.00204449
v 0.01658609 0.01995272 0.00040227
v 0.01603409 0.02033692 -0.00050712
v -0.01328919 0.02033692 0.00226047
v 0.01894625 0.01472424 0.00226047
v 0.01956902 0.01365107 -0.00548149
v 0.01749902 0.01898258 0.00108432
v 0.01558117 0.02033692 -0.00140742
v -0.01243996 0.02033692 -0.00548149
v -0.01532735 0.01870570 0.00188307
v -0.01657996 0.00893342 0.00215285
v -0.01497350 0.00363196 0.00226047
v 0.01923640 0.01329049 0.00226047
v 0.01956902 0.00927898 -0.00056244
v 0.01956902 -0.00159009 -0.00548149
v 0.01824209 0.01497322 -0.00548149
v 0.01948056 0.01156483 0.00226047
v 0.01404901 0.01910278 -0.00548149
v 0.01307239 0.02001712 -0.00548149
v -0.01440027 0.01380132 -0.00548149
v -0.01564581 0.01772053 0.00180729
v -0.01609519 0.01121068 -0.00108610
v -0.01587227 0.01012464 -0.00270103
v -0.01621904 0.00831956 -0.00036237
v -0.01635350 0.00795898 0.00072284
v -0.01560335 0.00506571 0.00072284
v -0.01444273 0.00245576 0.00226047
v 0.01956902 0.00764561 0.00013628
v 0.01956902 -0.00133252 -0.00352478
v 0.01456917 -0.00159009 0.00226047
v -0.01031334 -0.00159009 -0.00506696
v -0.01387657 0.00437245 -0.00548149
v 0.01902056 0.00645225 0.00226047
v 0.01956902 0.00517303 -0.00041921
v 0.01956902 0.00666474 0.00005367
v -0.01482135 0.00684932 -0.00548149
v -0.01487442 0.01193400 -0.00545270
v -0.01524242 0.01236327 -0.00414393
v -0.01546535 0.01265732 -0.00325424
v -0.01592889 0.01134590 -0.00221223
v -0.01555735 0.01048737 -0.00397721
v -0.01556089 0.00931332 -0.00379684
v -0.01581566 0.00861576 -0.00241987
v -0.01611642 0.00759625 -0.00036237
v -0.01591827 0.00810708 -0.00166659
v -0.01586519 0.00650805 -0.00036086
v -0.01558212 0.00542630 -0.00036237
v -0.01518227 0.00436601 -0.00031918
v -0.01264873 -0.00054911 0.00200735
v -0.01170042 -0.00159009 0.00204676
v 0.01956902 0.00007977 -0.00268814
v 0.01627825 0.00020640 0.00225289
v -0.01148103 -0.00138618 -0.00036237
v -0.01232673 -0.00075731 0.00088501
v -0.01342365 0.00244289 -0.00367029
v -0.01449227 0.00575683 -0.00548149
v 0.01956902 0.00150708 -0.00189621
v -0.01511150 0.00779371 -0.00496238
v -0.01525304 0.00936054 -0.00497981
v -0.01511504 0.01099390 -0.00520868
v -0.01558919 0.01139098 -0.00361572
v -0.01550781 0.00831956 -0.00361572
f 1 2 3
f 1 3 4
f 1 4 5
f 1 5 10
f 1 10 11
f 1 11 6
f 1 6 2
f 2 6 14
f 2 14 29
f 2 29 32
f 2 32 35
f 2 35 19
f 2 19 15
f 2 15 7
f 2 7 3
f 3 7 8
f 3 8 9
f 3 9 4
f 4 9 8
f 4 8 5
f 5 8 10
f 6 11 12
f 6 12 13
f 6 13 14
f 7 15 8
f 8 16 30
f 8 30 37
f 8 37 36
f 8 36 59
f 8 59 53
f 8 53 31
f 8 31 17
f 8 17 34
f 8 34 58
f 8 58 38
f 8 38 22
f 8 22 11
f 8 11 21
f 8 21 20
f 8 20 18
f 8 18 10
f 8 15 19
f 8 19 16
f 10 18 20
f 10 20 21
f 10 21 11
f 11 22 23
f 11 23 12
f 12 23 13
f 13 24 25
f 13 25 26
f 13 26 27
f 13 27 28
f 13 28 14
f 13 23 24
f 14 28 29
f 16 19 30
f 17 31 32
f 17 32 52
f 17 52 33
f 17 33 34
f 19 35 36
f 19 36 37
f 19 37 30
f 22 38 39
f 22 39 40
f 22 40 41
f 22 41 23
f 23 42 24
f 23 41 42
f 24 42 25
f 25 42 43
f 25 43 44
f 25 44 45
f 25 45 26
f 26 46 27
f 26 45 47
f 26 47 46
f 27 46 48
f 27 48 28
f 28 48 49
f 28 49 50
f 28 50 29
f 29 51 52
f 29 52 32
f 29 50 51
f 31 53 35
f 31 35 54
f 31 54 32
f 32 54 35
f 33 52 55
f 33 55 56
f 33 56 57
f 33 57 34
f 34 57 50
f 34 50 58
f 35 53 59
f 35 59 36
f 38 60 61
f 38 61 62
f 38 62 39
f 38 58 49
f 38 49 48
f 38 48 46
f 38 46 47
f 38 47 60
f 39 62 63
f 39 63 40
f 40 63 41
f 41 63 42
f 42 63 43
f 43 63 62
f 43 62 61
f 43 61 44
f 44 61 60
f 44 60 64
f 44 64 45
f 45 64 47
f 47 64 60
f 49 58 50
f 50 57 56
f 50 56 51
f 51 56 52
f 52 56 55

