# https://github.com/mikedh/trimesh
v -0.01282576 0.00597251 0.01384163
v -0.01043510 -0.00032871 0.01368273
v -0.01268463 0.00572477 0.01513260
v -0.01269592 0.01011900 0.01368273
v -0.00325182 -0.00833155 0.01368273
v -0.00545056 -0.00790778 0.01413358
v -0.00907183 -0.00112736 0.01574805
v -0.01235158 0.01002120 0.01482887
v -0.01175885 0.00524232 0.01588566
v -0.01206086 0.01301697 0.01368273
v 0.00252866 -0.00806099 0.01368273
v 0.00494755 -0.00897374 0.01756628
v 0.00357864 -0.00892484 0.01756628
v -0.00501871 -0.00767307 0.01522383
v -0.00362722 -0.00504566 0.01756628
v -0.00419736 -0.00398296 0.01756628
v -0.00872184 0.00435239 0.01738419
v -0.01099678 0.01265513 0.01537817
v -0.01105605 0.01554007 0.01407618
v -0.00810371 0.01014834 0.01755525
v -0.00927505 0.01494678 0.01619168
v -0.00989318 0.01920736 0.01371771
v -0.00397156 0.02315174 0.01368273
v 0.00646606 -0.00874881 0.01756628
v 0.00376774 -0.00787192 0.01368273
v 0.00161700 -0.00846520 0.01756628
v -0.00002852 -0.00782954 0.01756628
v -0.00138050 -0.00712542 0.01756628
v -0.00271555 -0.00619311 0.01756628
v -0.00567918 -0.00068403 0.01756628
v -0.00679125 0.00405248 0.01756628
v -0.00698318 0.01365916 0.01756628
v -0.00725414 0.01739490 0.01665051
v -0.00727672 0.02199776 0.01372873
v -0.00302320 0.02180217 0.01598146
v -0.00043497 0.02404492 0.01394655
v 0.00292381 0.02432853 0.01368273
v 0.00535117 -0.00722321 0.01373139
v 0.00783779 -0.00803817 0.01756628
v 0.00648017 -0.00631047 0.01369794
v 0.01126714 0.00013093 0.01368273
v -0.00570458 0.01607142 0.01756628
v -0.00361028 0.01819030 0.01756628
v -0.00526145 0.02037763 0.01603544
v -0.00014143 0.02327235 0.01503528
v -0.00186598 0.01937687 0.01756628
v 0.00166780 0.02033526 0.01745604
v 0.00401895 0.02400255 0.01402068
v 0.00776441 0.02277686 0.01409215
v 0.01144496 0.02061886 0.01370896
v 0.01416303 0.01655713 0.01368273
v 0.00877204 -0.00696895 0.01756628
v 0.01302273 0.00254319 0.01368273
v 0.01002524 0.01438283 0.01756628
v 0.00526932 0.01933449 0.01753016
v 0.00896680 0.01817400 0.01685389
v 0.01232275 0.01667122 0.01594193
v 0.01460052 0.01450019 0.01504023
v 0.01600894 0.01275945 0.01374660
v 0.01496462 0.00542812 0.01368273
v 0.00922929 -0.00574652 0.01756628
v 0.01200099 0.01184670 0.01744083
v 0.00837972 0.01706566 0.01742144
v 0.01362393 0.00867816 0.01580355
f 1 2 3
f 1 3 4
f 1 4 2
f 2 5 6
f 2 6 7
f 2 7 3
f 2 4 10
f 2 10 23
f 2 23 37
f 2 37 51
f 2 51 60
f 2 60 53
f 2 53 41
f 2 41 25
f 2 25 11
f 2 11 5
f 3 8 4
f 3 7 9
f 3 9 8
f 4 8 10
f 5 11 12
f 5 12 13
f 5 13 6
f 6 13 14
f 6 14 7
f 7 14 15
f 7 15 16
f 7 16 17
f 7 17 9
f 8 9 18
f 8 18 19
f 8 19 10
f 9 17 20
f 9 20 21
f 9 21 18
f 10 19 22
f 10 22 23
f 11 24 12
f 11 25 24
f 12 24 39
f 12 39 52
f 12 52 61
f 12 61 54
f 12 54 46
f 12 46 43
f 12 43 42
f 12 42 32
f 12 32 31
f 12 31 30
f 12 30 16
f 12 16 15
f 12 15 29
f 12 29 28
f 12 28 27
f 12 27 26
f 12 26 13
f 13 26 14
f 14 27 28
f 14 28 29
f 14 29 15
f 14 26 27
f 16 30 17
f 17 30 31
f 17 31 20
f 18 21 22
f 18 22 19
f 20 32 21
f 20 31 32
f 21 32 33
f 21 33 22
f 22 34 23
f 22 33 34
f 23 34 35
f 23 35 36
f 23 36 37
f 24 25 38
f 24 38 39
f 25 40 38
f 25 41 40
f 32 42 33
f 33 42 43
f 33 43 44
f 33 44 34
f 34 44 35
f 35 45 36
f 35 44 46
f 35 46 47
f 35 47 45
f 36 45 37
f 37 45 48
f 37 48 49
f 37 49 50
f 37 50 51
f 38 40 39
f 39 40 52
f 40 41 52
f 41 53 52
f 43 46 44
f 45 47 48
f 46 54 55
f 46 55 47
f 47 55 48
f 48 55 49
f 49 55 56
f 49 56 50
f 50 56 57
f 50 57 58
f 50 58 51
f 51 58 59
f 51 59 60
f 52 53 60
f 52 60 61
f 54 62 57
f 54 57 56
f 54 56 63
f 54 63 55
f 54 61 62
f 55 63 56
f 57 62 58
f 58 62 59
f 59 62 64
f 59 64 60
f 60 64 61
f 61 64 62

