# https://github.com/mikedh/trimesh
v -0.01111522 0.01484584 -0.00886137
v -0.01112770 0.01004599 -0.03484385
v -0.01116872 0.01484584 -0.02932661
v -0.01340192 0.01484584 -0.00886137
v -0.01111522 0.00040601 -0.00886137
v -0.01111522 0.00480613 -0.03538192
v -0.01225233 0.01089813 -0.03463387
v -0.01159015 0.01150237 -0.03408792
v -0.01115207 0.00719521 -0.03567589
v -0.01285922 0.01160772 -0.03407742
v -0.01194561 0.01484584 -0.02857330
v -0.01429829 0.01484584 -0.02132372
v -0.01718771 0.01095700 -0.02671235
v -0.01718771 0.01075869 -0.02567557
v -0.01718771 0.01036825 -0.02454167
v -0.01718771 0.00968964 -0.02328966
v -0.01718771 0.00541657 -0.01844961
v -0.01718771 -0.00365016 -0.00886137
v -0.01481839 -0.00570459 -0.00886137
v -0.01364384 -0.01441187 -0.00886662
v -0.01332286 -0.01362790 -0.00886662
v -0.01285030 -0.01225209 -0.00886662
v -0.01111522 -0.00745844 -0.01003989
v -0.01111522 -0.00993118 -0.03290678
v -0.01319090 0.00448696 -0.03548166
v -0.01207282 0.00770029 -0.03547904
v -0.01347741 0.01004599 -0.03475986
v -0.01380730 0.00505092 -0.03549741
v -0.01521011 0.01159533 -0.03154715
v -0.01463532 0.00956570 -0.03419553
v -0.01259768 0.01484584 -0.02781737
v -0.01415979 0.01484584 -0.02384874
v -0.01718771 0.01097250 -0.02768351
v -0.01718771 -0.00570459 -0.00886137
v -0.01425133 -0.01525161 -0.00886662
v -0.01111522 -0.01681025 -0.01412664
v -0.01229750 -0.01157348 -0.00940732
v -0.01111522 -0.00995287 -0.01059109
v -0.01111522 -0.01120474 -0.03251831
v -0.01440053 -0.01229238 -0.03137917
v -0.01506567 0.00774058 -0.03440814
v -0.01588239 0.00663125 -0.03396193
v -0.01718771 -0.00570459 -0.03103532
v -0.01595194 0.01159843 -0.03011403
v -0.01542707 0.01176886 -0.03073873
v -0.01508053 0.01223676 -0.03017440
v -0.01696362 0.00915977 -0.03171776
v -0.01718236 0.00979190 -0.03074660
v -0.01718771 0.01032797 -0.03006154
v -0.01658855 0.00848736 -0.03251306
v -0.01322597 0.01484584 -0.02676747
v -0.01382038 0.01484584 -0.02531860
v -0.01668187 0.01117701 -0.02943685
v -0.01718771 0.01087334 -0.02857068
v -0.01440053 -0.01681025 -0.01076957
v -0.01111522 -0.01681025 -0.02716906
v -0.01111522 -0.01197321 -0.03223746
v -0.01440053 -0.01336142 -0.03088309
v -0.01718712 0.00578531 -0.03231358
v -0.01718771 0.00830144 -0.03188312
v -0.01440053 -0.01681025 -0.02842106
v -0.01111522 -0.01536626 -0.02910875
v -0.01111522 -0.01278197 -0.03176238
v -0.01111522 -0.01345748 -0.03119018
f 1 2 3
f 1 3 11
f 1 11 31
f 1 31 51
f 1 51 52
f 1 52 32
f 1 32 12
f 1 12 4
f 1 4 18
f 1 18 34
f 1 34 19
f 1 19 5
f 1 5 23
f 1 23 38
f 1 38 36
f 1 36 56
f 1 56 62
f 1 62 64
f 1 64 63
f 1 63 57
f 1 57 39
f 1 39 24
f 1 24 6
f 1 6 2
f 2 7 8
f 2 8 3
f 2 6 9
f 2 9 7
f 3 8 10
f 3 10 11
f 4 12 13
f 4 13 14
f 4 14 15
f 4 15 16
f 4 16 17
f 4 17 18
f 5 19 20
f 5 20 21
f 5 21 22
f 5 22 23
f 6 24 25
f 6 25 9
f 7 10 8
f 7 9 26
f 7 26 27
f 7 27 10
f 9 25 28
f 9 28 26
f 10 29 11
f 10 27 30
f 10 30 29
f 11 29 31
f 12 32 33
f 12 33 13
f 13 33 54
f 13 54 49
f 13 49 60
f 13 60 43
f 13 43 34
f 13 34 18
f 13 18 17
f 13 17 16
f 13 16 15
f 13 15 14
f 19 34 35
f 19 35 20
f 20 35 36
f 20 36 21
f 21 36 22
f 22 36 37
f 22 37 23
f 23 37 38
f 24 28 25
f 24 39 40
f 24 40 28
f 26 28 27
f 27 41 30
f 27 28 41
f 28 42 41
f 28 40 43
f 28 43 42
f 29 44 45
f 29 45 46
f 29 46 31
f 29 30 47
f 29 47 48
f 29 48 49
f 29 49 44
f 30 41 42
f 30 42 50
f 30 50 47
f 31 46 51
f 32 52 53
f 32 53 54
f 32 54 33
f 34 43 61
f 34 61 55
f 34 55 35
f 35 55 36
f 36 55 61
f 36 61 56
f 36 38 37
f 39 57 40
f 40 57 58
f 40 58 43
f 42 43 59
f 42 59 60
f 42 60 50
f 43 58 61
f 43 60 59
f 44 49 53
f 44 53 52
f 44 52 51
f 44 51 46
f 44 46 45
f 47 50 60
f 47 60 48
f 48 60 49
f 49 54 53
f 56 61 62
f 57 63 58
f 58 63 61
f 61 63 64
f 61 64 62

