# https://github.com/mikedh/trimesh
v 0.01840270 -0.03835329 -0.02164681
v 0.02131905 -0.03684350 -0.02423124
v 0.02290580 -0.03579709 -0.02205924
v 0.02099611 -0.03662444 -0.01812991
v 0.01798370 -0.03798090 -0.01953533
v 0.01798370 -0.03766074 -0.02526905
v 0.01972852 -0.03723780 -0.02608943
v 0.02075787 -0.03698673 -0.02546630
v 0.02243235 -0.03545166 -0.02534302
v 0.02314783 -0.03553928 -0.02090712
v 0.02462189 -0.03329650 -0.02467281
v 0.02357666 -0.03442716 -0.01856700
v 0.02115115 -0.03066447 -0.00886137
v 0.01828925 -0.03660591 -0.01510615
v 0.01798370 -0.03175637 -0.00886137
v 0.01798370 -0.03720747 -0.02639876
v 0.01798370 -0.03643066 -0.02766968
v 0.01799883 -0.03378516 -0.03057465
v 0.02154973 -0.03430752 -0.02838471
v 0.02196041 -0.03517194 -0.02682015
v 0.02463777 -0.03296792 -0.02532957
v 0.02418020 -0.03388457 -0.01953308
v 0.02531619 -0.03213551 -0.02513232
v 0.02449104 -0.03276740 -0.01876650
v 0.02239605 -0.02928443 -0.00886137
v 0.01798370 -0.02114065 -0.00886137
v 0.01798370 -0.03255508 -0.03126278
v 0.01991987 -0.03327290 -0.03007704
v 0.02244899 -0.03314484 -0.02862903
v 0.02520425 -0.03218774 -0.02205924
v 0.02535324 -0.02896090 -0.02761364
v 0.02570947 -0.02893731 -0.02404968
v 0.02528442 -0.03140757 -0.02107747
v 0.02281278 -0.02825318 -0.00886137
v 0.02498265 -0.03182546 -0.01971464
v 0.01963096 -0.02114065 -0.02719673
v 0.01814480 -0.02141362 -0.02784900
v 0.01798370 -0.02348453 -0.03038412
v 0.02164654 -0.02140520 -0.00886137
v 0.02453567 -0.02114065 -0.01992086
v 0.01798370 -0.02857334 -0.03176039
v 0.02184318 -0.02892214 -0.03114847
v 0.02382624 -0.02114065 -0.02450246
v 0.02451373 -0.02114065 -0.02322481
v 0.02479962 -0.02114065 -0.02175215
v 0.02252840 -0.02587728 -0.02903026
v 0.02323480 -0.02515609 -0.02794986
v 0.02563006 -0.02839304 -0.02242012
v 0.02525039 -0.03074030 -0.02018760
v 0.02312816 -0.02673834 -0.00886137
v 0.02155503 -0.02114065 -0.02626427
v 0.01968617 -0.02245666 -0.02889353
v 0.01844657 -0.02234039 -0.02901905
v 0.02067997 -0.02361765 -0.02944269
v 0.01943356 -0.02435232 -0.03051637
v 0.01804874 -0.02546108 -0.03120450
v 0.02228336 -0.02246003 -0.00886137
v 0.02543417 -0.02815882 -0.02115816
v 0.02285362 -0.02399004 -0.00886137
v 0.02307371 -0.02522854 -0.00886137
v 0.02165410 -0.02398667 -0.02885991
v 0.02266984 -0.02114065 -0.02549320
v 0.02525417 -0.02965850 -0.01989621
v 0.02523299 -0.02857334 -0.01989621
f 1 2 3
f 1 3 4
f 1 4 5
f 1 5 6
f 1 6 7
f 1 7 8
f 1 8 2
f 2 8 9
f 2 9 3
f 3 10 4
f 3 9 11
f 3 11 10
f 4 12 13
f 4 13 14
f 4 14 5
f 4 10 12
f 5 14 15
f 5 15 26
f 5 26 38
f 5 38 41
f 5 41 27
f 5 27 17
f 5 17 16
f 5 16 6
f 6 16 7
f 7 16 17
f 7 17 18
f 7 18 19
f 7 19 20
f 7 20 8
f 8 20 9
f 9 20 21
f 9 21 11
f 10 22 12
f 10 11 22
f 11 21 23
f 11 23 22
f 12 22 24
f 12 24 25
f 12 25 13
f 13 15 14
f 13 25 34
f 13 34 50
f 13 50 60
f 13 60 59
f 13 59 57
f 13 57 39
f 13 39 26
f 13 26 15
f 17 27 18
f 18 27 28
f 18 28 19
f 19 28 29
f 19 29 20
f 20 29 21
f 21 29 23
f 22 23 30
f 22 30 24
f 23 29 31
f 23 31 32
f 23 32 33
f 23 33 30
f 24 34 25
f 24 30 35
f 24 35 34
f 26 36 37
f 26 37 38
f 26 39 40
f 26 40 45
f 26 45 44
f 26 44 43
f 26 43 62
f 26 62 51
f 26 51 36
f 27 41 42
f 27 42 28
f 28 42 29
f 29 42 31
f 30 33 35
f 31 43 44
f 31 44 45
f 31 45 32
f 31 42 46
f 31 46 47
f 31 47 43
f 32 45 48
f 32 48 33
f 33 49 35
f 33 48 49
f 34 35 50
f 35 49 50
f 36 51 52
f 36 52 53
f 36 53 37
f 37 53 38
f 38 53 52
f 38 52 54
f 38 54 55
f 38 55 56
f 38 56 41
f 39 57 40
f 40 58 45
f 40 57 59
f 40 59 60
f 40 60 58
f 41 56 42
f 42 56 55
f 42 55 54
f 42 54 61
f 42 61 46
f 43 47 61
f 43 61 54
f 43 54 62
f 45 58 48
f 46 61 47
f 48 58 63
f 48 63 49
f 49 63 50
f 50 63 64
f 50 64 60
f 51 62 54
f 51 54 52
f 58 60 64
f 58 64 63

