# https://github.com/mikedh/trimesh
v -0.02814265 -0.01775849 -0.02262238
v -0.02994442 -0.01775849 -0.02224687
v -0.03263539 -0.01524021 -0.02537332
v -0.03292617 -0.01122536 -0.02898708
v -0.02814265 -0.01183982 -0.02774241
v -0.02814265 -0.01775849 -0.01390124
v -0.03093288 -0.01775849 -0.02182073
v -0.03220648 -0.01775849 -0.02094945
v -0.03292617 -0.01748940 -0.02088195
v -0.03292617 -0.01048714 -0.02904615
v -0.02818806 -0.00305750 -0.03041318
v -0.02814265 -0.00978346 -0.02904826
v -0.02814265 -0.01068716 -0.02861368
v -0.02814265 -0.01750954 -0.00886559
v -0.03079990 -0.01775849 -0.01606781
v -0.03263586 -0.01775849 -0.02021953
v -0.03286202 -0.01759445 -0.01956555
v -0.03292617 -0.01727498 -0.01844745
v -0.03292617 -0.00985829 -0.02890059
v -0.02880099 -0.00305750 -0.03011151
v -0.02814265 -0.00305750 -0.00886348
v -0.02915076 -0.01703611 -0.00886348
v -0.03219806 -0.01775849 -0.01771753
v -0.03145730 -0.01775849 -0.01673234
v -0.03253425 -0.01775849 -0.01859513
v -0.03292617 -0.01704474 -0.01775761
v -0.02934508 -0.00305750 -0.02971701
v -0.03292617 -0.00693709 -0.02807573
v -0.03292617 -0.00305750 -0.02507797
v -0.03292617 -0.00309059 -0.01637581
v -0.02879912 -0.00312801 -0.00886348
v -0.02977914 -0.01673679 -0.00886348
v -0.03292617 -0.01675550 -0.01700026
v -0.03020711 -0.00305750 -0.02900185
v -0.03292617 -0.00622621 -0.02780781
v -0.03114171 -0.00305750 -0.02790907
v -0.03292617 -0.00354964 -0.02576148
v -0.03292617 -0.00353669 -0.01582520
v -0.03102840 -0.00572400 -0.00886348
v -0.03038972 -0.00476417 -0.00886348
v -0.03026329 -0.01612665 -0.00886348
v -0.03292617 -0.01638711 -0.01633784
v -0.03292617 -0.00550383 -0.02744285
v -0.03292617 -0.00469222 -0.02694498
v -0.03292617 -0.00415978 -0.02644922
v -0.03292617 -0.00425764 -0.01508895
v -0.03159075 -0.00679175 -0.00886348
v -0.03198782 -0.00831998 -0.00886348
v -0.03204354 -0.01290613 -0.00890989
v -0.03292617 -0.01583741 -0.01563745
v -0.03292617 -0.00484907 -0.01455100
v -0.03185109 -0.00757025 -0.00886348
v -0.03229638 -0.01044253 -0.00895419
v -0.03235398 -0.01116492 -0.00895419
v -0.03292617 -0.00538295 -0.01422612
v -0.03231886 -0.01188874 -0.00895419
v -0.03292617 -0.01506178 -0.01489908
v -0.03292617 -0.00611541 -0.01390757
v -0.03292617 -0.00677304 -0.01367762
v -0.03292617 -0.00758608 -0.01358479
v -0.03292617 -0.01193335 -0.01354049
v -0.03292617 -0.01266294 -0.01353838
v -0.03292617 -0.01334071 -0.01376622
v -0.03292617 -0.01413793 -0.01425143
f 1 2 3
f 1 3 4
f 1 4 5
f 1 5 13
f 1 13 12
f 1 12 21
f 1 21 14
f 1 14 6
f 1 6 15
f 1 15 24
f 1 24 23
f 1 23 25
f 1 25 16
f 1 16 8
f 1 8 7
f 1 7 2
f 2 7 3
f 3 7 8
f 3 8 9
f 3 9 4
f 4 10 11
f 4 11 12
f 4 12 13
f 4 13 5
f 4 9 18
f 4 18 26
f 4 26 33
f 4 33 42
f 4 42 50
f 4 50 57
f 4 57 64
f 4 64 63
f 4 63 62
f 4 62 61
f 4 61 60
f 4 60 59
f 4 59 58
f 4 58 55
f 4 55 51
f 4 51 46
f 4 46 38
f 4 38 30
f 4 30 29
f 4 29 37
f 4 37 45
f 4 45 44
f 4 44 43
f 4 43 35
f 4 35 28
f 4 28 19
f 4 19 10
f 6 14 15
f 8 16 9
f 9 16 17
f 9 17 18
f 10 19 20
f 10 20 11
f 11 20 27
f 11 27 34
f 11 34 36
f 11 36 29
f 11 29 21
f 11 21 12
f 14 21 22
f 14 22 23
f 14 23 24
f 14 24 15
f 16 25 17
f 17 25 18
f 18 25 26
f 19 27 20
f 19 28 27
f 21 29 30
f 21 30 31
f 21 31 40
f 21 40 39
f 21 39 47
f 21 47 52
f 21 52 48
f 21 48 41
f 21 41 32
f 21 32 22
f 22 32 23
f 23 32 33
f 23 33 25
f 25 33 26
f 27 28 34
f 28 35 34
f 29 36 37
f 30 38 39
f 30 39 40
f 30 40 31
f 32 41 33
f 33 41 42
f 34 35 43
f 34 43 44
f 34 44 36
f 36 44 45
f 36 45 37
f 38 46 47
f 38 47 39
f 41 48 49
f 41 49 42
f 42 49 50
f 46 51 52
f 46 52 47
f 48 53 54
f 48 54 49
f 48 52 51
f 48 51 55
f 48 55 53
f 49 54 56
f 49 56 50
f 50 56 57
f 53 55 58
f 53 58 54
f 54 58 59
f 54 59 60
f 54 60 61
f 54 61 62
f 54 62 63
f 54 63 56
f 56 63 64
f 56 64 57

