# https://github.com/mikedh/trimesh
v -0.02475898 -0.02094113 -0.01523538
v -0.03465879 -0.02094709 -0.01757948
v -0.03186239 -0.02095135 -0.01586649
v -0.03255507 -0.02244964 -0.01506258
v -0.03251653 -0.02365661 -0.01457960
v -0.03129926 -0.02520345 -0.01470088
v -0.02626960 -0.02922387 -0.01759773
v -0.02536601 -0.02784824 -0.01751294
v -0.02475898 -0.02478437 -0.01830503
v -0.02475898 -0.02115748 -0.02213136
v -0.02709396 -0.02094113 -0.02349016
v -0.02914736 -0.02094198 -0.02387870
v -0.03533327 -0.02142153 -0.01885886
v -0.03551634 -0.02256718 -0.01722207
v -0.03454103 -0.02205696 -0.01628937
v -0.03333447 -0.02126651 -0.01613589
v -0.03496070 -0.02110126 -0.02029172
v -0.03366635 -0.02313447 -0.01507439
v -0.03389867 -0.02462679 -0.01531910
v -0.03274028 -0.02517534 -0.01485221
v -0.03189987 -0.02844278 -0.01637416
v -0.02971049 -0.02962847 -0.01848105
v -0.02883475 -0.02964295 -0.01952645
v -0.02805321 -0.02910888 -0.02178898
v -0.02641091 -0.02843682 -0.02143371
v -0.02578247 -0.02848367 -0.01989352
v -0.02528786 -0.02814125 -0.01870752
v -0.02481037 -0.02539340 -0.02007276
v -0.02475898 -0.02394622 -0.02121798
v -0.02475898 -0.02245304 -0.02187162
v -0.02632527 -0.02387126 -0.02463001
v -0.02747402 -0.02234316 -0.02487580
v -0.03199301 -0.02120348 -0.02381430
v -0.03364494 -0.02119155 -0.02295029
v -0.03552062 -0.02245389 -0.02004164
v -0.03569620 -0.02341385 -0.01893077
v -0.03551634 -0.02394281 -0.01687969
v -0.03477442 -0.02371794 -0.01592123
v -0.03472196 -0.02242493 -0.02170204
v -0.03478191 -0.02529459 -0.01696984
v -0.03266748 -0.02833631 -0.01799914
v -0.03119006 -0.02915998 -0.01845530
v -0.02942036 -0.02918980 -0.02088096
v -0.03053699 -0.02828605 -0.02177610
v -0.03094489 -0.02593428 -0.02499064
v -0.02987644 -0.02517704 -0.02554232
v -0.02724598 -0.02450243 -0.02525575
v -0.02634240 -0.02510720 -0.02426509
v -0.02603942 -0.02587210 -0.02333453
v -0.02518508 -0.02667278 -0.02040656
v -0.02530392 -0.02537807 -0.02173853
v -0.02947817 -0.02384230 -0.02552837
v -0.03323704 -0.02242493 -0.02360715
v -0.03463524 -0.02476904 -0.02114285
v -0.03556666 -0.02452714 -0.01812257
v -0.03392329 -0.02323924 -0.02280969
v -0.03402286 -0.02527670 -0.02218717
v -0.03484294 -0.02564638 -0.01880841
v -0.03332911 -0.02754926 -0.01873006
v -0.03190201 -0.02786868 -0.02130814
v -0.03071686 -0.02885249 -0.02022625
v -0.03298866 -0.02645046 -0.02267231
v -0.03400252 -0.02616512 -0.02094536
v -0.03370168 -0.02684910 -0.01986884
f 1 2 3
f 1 3 4
f 1 4 5
f 1 5 6
f 1 6 7
f 1 7 8
f 1 8 9
f 1 9 29
f 1 29 30
f 1 30 10
f 1 10 11
f 1 11 12
f 1 12 2
f 2 13 14
f 2 14 15
f 2 15 16
f 2 16 3
f 2 12 17
f 2 17 13
f 3 16 4
f 4 16 18
f 4 18 5
f 5 18 19
f 5 19 20
f 5 20 6
f 6 20 21
f 6 21 7
f 7 22 23
f 7 23 24
f 7 24 25
f 7 25 26
f 7 26 27
f 7 27 8
f 7 21 22
f 8 27 9
f 9 27 28
f 9 28 29
f 10 30 31
f 10 31 32
f 10 32 11
f 11 32 12
f 12 32 33
f 12 33 34
f 12 34 17
f 13 35 36
f 13 36 14
f 13 17 35
f 14 37 38
f 14 38 15
f 14 36 37
f 15 38 18
f 15 18 16
f 17 34 39
f 17 39 35
f 18 38 19
f 19 38 37
f 19 37 40
f 19 40 21
f 19 21 20
f 21 40 41
f 21 41 42
f 21 42 22
f 22 42 43
f 22 43 23
f 23 43 24
f 24 43 44
f 24 44 45
f 24 45 46
f 24 46 47
f 24 47 48
f 24 48 25
f 25 48 49
f 25 49 26
f 26 49 50
f 26 50 27
f 27 50 28
f 28 50 29
f 29 50 51
f 29 51 49
f 29 49 30
f 30 49 48
f 30 48 31
f 31 48 47
f 31 47 32
f 32 47 52
f 32 52 33
f 33 53 34
f 33 52 53
f 34 53 39
f 35 39 54
f 35 54 36
f 36 55 37
f 36 54 55
f 37 55 40
f 39 53 56
f 39 56 57
f 39 57 54
f 40 55 41
f 41 55 58
f 41 58 59
f 41 59 60
f 41 60 42
f 42 60 61
f 42 61 43
f 43 61 60
f 43 60 44
f 44 60 62
f 44 62 45
f 45 62 57
f 45 57 56
f 45 56 53
f 45 53 46
f 46 53 52
f 46 52 47
f 49 51 50
f 54 57 63
f 54 63 58
f 54 58 55
f 57 62 63
f 58 64 59
f 58 63 64
f 59 64 60
f 60 64 62
f 62 64 63

