# https://github.com/mikedh/trimesh
v -0.01440260 -0.03527851 -0.02683544
v -0.01450916 -0.03511045 -0.02538615
v -0.01604072 -0.03505042 -0.02699676
v -0.01440260 -0.03517904 -0.02820667
v -0.01440260 -0.02675517 -0.01513963
v -0.01475679 -0.03468342 -0.02388742
v -0.01748224 -0.03402831 -0.02898205
v -0.01441836 -0.03488064 -0.03019977
v -0.01767209 -0.03391683 -0.02525605
v -0.01963363 -0.03264262 -0.02543298
v -0.01440260 -0.03282784 -0.03267423
v -0.01440260 -0.02464405 -0.01431741
v -0.01970642 -0.01815122 -0.00886631
v -0.02097984 -0.01889894 -0.00886631
v -0.02206792 -0.01909102 -0.00886631
v -0.01488736 -0.03184516 -0.02000530
v -0.01519727 -0.03409176 -0.02287005
v -0.02063541 -0.03181772 -0.02788403
v -0.01813733 -0.03331317 -0.02974182
v -0.01671608 -0.03331488 -0.03117030
v -0.01574881 -0.03330631 -0.03186502
v -0.01858682 -0.03331831 -0.02528727
v -0.01823113 -0.03281069 -0.02345809
v -0.01991728 -0.03165995 -0.02404093
v -0.02121997 -0.03026226 -0.02483193
v -0.01513049 -0.03099798 -0.03425362
v -0.01469676 -0.02951625 -0.03484687
v -0.01440260 -0.02793334 -0.03523976
v -0.01440260 -0.01960379 -0.01291496
v -0.02206792 -0.01775849 -0.00886631
v -0.01972143 -0.01775849 -0.02783979
v -0.02206792 -0.02429935 -0.01912583
v -0.02182779 -0.02896403 -0.02549803
v -0.02188858 -0.02888343 -0.02675998
v -0.02177002 -0.02899490 -0.03023099
v -0.01879844 -0.03254144 -0.03036369
v -0.01782967 -0.03212299 -0.03202895
v -0.01591240 -0.02892802 -0.03471937
v -0.01853054 -0.02872051 -0.03367859
v -0.01473878 -0.02622868 -0.03544532
v -0.01466449 -0.02258439 -0.03416515
v -0.01456243 -0.02125015 -0.03316340
v -0.01462397 -0.01989705 -0.03176875
v -0.02202065 -0.01775849 -0.02560211
v -0.02206792 -0.02383974 -0.02219354
v -0.01566177 -0.01962608 -0.03134983
v -0.01567152 -0.02034465 -0.03211481
v -0.01727212 -0.02239060 -0.03342360
v -0.01910460 -0.02340071 -0.03246347
v -0.02051235 -0.01775849 -0.02709823
v -0.02206792 -0.02453430 -0.02046584
v -0.02205291 -0.02658196 -0.02603924
v -0.02118996 -0.02482412 -0.03032206
v -0.02089505 -0.02598515 -0.03113127
v -0.01994204 -0.02640360 -0.03242184
v -0.01918714 -0.02676374 -0.03327789
v -0.01873615 -0.02766581 -0.03370200
v -0.02199438 -0.02658196 -0.02748332
v -0.01802477 -0.02515168 -0.03396220
v -0.01695921 -0.02335612 -0.03392577
v -0.01520102 -0.02349160 -0.03447739
v -0.02025946 -0.02314175 -0.03110785
v -0.01933197 -0.02491330 -0.03270285
v -0.02035551 -0.02524600 -0.03165426
f 1 2 3
f 1 3 4
f 1 4 11
f 1 11 28
f 1 28 29
f 1 29 12
f 1 12 5
f 1 5 2
f 2 5 6
f 2 6 3
f 3 7 8
f 3 8 4
f 3 6 9
f 3 9 10
f 3 10 7
f 4 8 11
f 5 12 13
f 5 13 14
f 5 14 15
f 5 15 16
f 5 16 6
f 6 16 17
f 6 17 9
f 7 10 18
f 7 18 19
f 7 19 20
f 7 20 8
f 8 20 21
f 8 21 11
f 9 22 10
f 9 17 23
f 9 23 22
f 10 22 23
f 10 23 24
f 10 24 25
f 10 25 18
f 11 26 27
f 11 27 28
f 11 21 26
f 12 29 13
f 13 30 15
f 13 15 14
f 13 29 31
f 13 31 30
f 15 30 45
f 15 45 51
f 15 51 32
f 15 32 33
f 15 33 25
f 15 25 24
f 15 24 23
f 15 23 17
f 15 17 16
f 18 25 33
f 18 33 34
f 18 34 35
f 18 35 36
f 18 36 19
f 19 36 20
f 20 36 37
f 20 37 21
f 21 37 26
f 26 38 27
f 26 37 39
f 26 39 38
f 27 38 28
f 28 38 40
f 28 40 41
f 28 41 42
f 28 42 29
f 29 42 43
f 29 43 31
f 30 44 45
f 30 31 50
f 30 50 44
f 31 46 47
f 31 47 48
f 31 48 49
f 31 49 50
f 31 43 46
f 32 51 52
f 32 52 34
f 32 34 33
f 34 52 35
f 35 53 54
f 35 54 55
f 35 55 56
f 35 56 57
f 35 57 39
f 35 39 37
f 35 37 36
f 35 52 58
f 35 58 44
f 35 44 53
f 38 39 57
f 38 57 40
f 40 57 59
f 40 59 60
f 40 60 61
f 40 61 41
f 41 61 48
f 41 48 42
f 42 48 47
f 42 47 43
f 43 47 46
f 44 50 49
f 44 49 62
f 44 62 53
f 44 58 52
f 44 52 45
f 45 52 51
f 48 61 60
f 48 60 59
f 48 59 49
f 49 59 63
f 49 63 62
f 53 62 54
f 54 62 64
f 54 64 55
f 55 64 63
f 55 63 56
f 56 63 59
f 56 59 57
f 62 63 64

