# https://github.com/mikedh/trimesh
v -0.01405349 -0.03526157 -0.02732134
v -0.01432696 -0.02959844 -0.03487003
v -0.01381662 -0.03492026 -0.03024996
v -0.01186097 -0.03505209 -0.02685740
v -0.01363559 -0.03516044 -0.02538584
v -0.01415556 -0.03438935 -0.02317247
v -0.01440110 -0.02793164 -0.03524214
v -0.01204392 -0.02821335 -0.03545237
v -0.01243582 -0.02974832 -0.03479029
v -0.01299623 -0.03174920 -0.03366910
v -0.01378003 -0.03296815 -0.03260832
v -0.01012486 -0.03412750 -0.02936558
v -0.01080659 -0.03239930 -0.03284029
v -0.01046187 -0.03419973 -0.02367265
v -0.00904256 -0.03400290 -0.02739383
v -0.01131115 -0.03352615 -0.02191596
v -0.01406890 -0.03185213 -0.01960834
v -0.01440110 -0.02464320 -0.01431653
v -0.01440110 -0.01915884 -0.03083713
v -0.01437703 -0.02628832 -0.03545237
v -0.01180031 -0.02391725 -0.03511166
v -0.00456411 -0.02462333 -0.03253583
v -0.00925151 -0.02967609 -0.03367635
v -0.01038869 -0.03112438 -0.03347579
v -0.00814225 -0.03225122 -0.03061241
v -0.00750866 -0.03252391 -0.02881223
v -0.00813936 -0.03057540 -0.03263973
v -0.00890294 -0.03339252 -0.02292600
v -0.00719764 -0.03217357 -0.02294291
v -0.00836371 -0.03220969 -0.02135778
v -0.01194089 -0.02832893 -0.01604181
v -0.01349405 -0.02813570 -0.01584367
v -0.01359900 -0.02671631 -0.01497861
v -0.01439917 -0.01681486 -0.01076933
v -0.01440110 -0.01876336 -0.01256468
v -0.01439917 -0.01681486 -0.02842078
v -0.01432696 -0.02027125 -0.03222654
v -0.01428940 -0.02311003 -0.03444958
v -0.01238671 -0.02222517 -0.03400014
v -0.00456411 -0.02203917 -0.03219996
v -0.00456411 -0.02686439 -0.03150405
v -0.00501282 -0.02973027 -0.02949123
v -0.00456411 -0.02930408 -0.02816465
v -0.00716876 -0.03115869 -0.02089143
v -0.00456411 -0.02884360 -0.02097600
v -0.00456411 -0.02825489 -0.01951894
v -0.00787649 -0.03055012 -0.01973158
v -0.01002953 -0.02824766 -0.01660240
v -0.01039255 -0.02733210 -0.01570835
v -0.01174446 -0.02677229 -0.01503902
v -0.01159232 -0.02531136 -0.01447360
v -0.00456411 -0.02146672 -0.01434311
v -0.00456411 -0.01876336 -0.01429962
v -0.01111376 -0.01681486 -0.01412322
v -0.00456411 -0.01876336 -0.02895479
v -0.01247626 -0.02085453 -0.03280646
v -0.01111376 -0.01681486 -0.02716911
v -0.01425281 -0.02139809 -0.03333564
v -0.00456411 -0.02820252 -0.03005423
v -0.00468736 -0.02730321 -0.01812712
v -0.00456411 -0.02588201 -0.01689961
v -0.00600942 -0.02710818 -0.01725240
v -0.00827128 -0.02750366 -0.01662415
v -0.00456411 -0.02381070 -0.01543772
f 1 2 3
f 1 3 4
f 1 4 5
f 1 5 6
f 1 6 2
f 2 7 8
f 2 8 9
f 2 9 10
f 2 10 11
f 2 11 3
f 2 6 7
f 3 12 4
f 3 11 13
f 3 13 12
f 4 14 5
f 4 12 15
f 4 15 14
f 5 14 6
f 6 14 16
f 6 16 17
f 6 17 18
f 6 18 7
f 7 19 20
f 7 20 8
f 7 18 35
f 7 35 19
f 8 20 21
f 8 21 22
f 8 22 23
f 8 23 24
f 8 24 9
f 9 24 13
f 9 13 10
f 10 13 11
f 12 13 25
f 12 25 26
f 12 26 15
f 13 27 25
f 13 24 27
f 14 15 28
f 14 28 16
f 15 26 29
f 15 29 28
f 16 28 30
f 16 30 31
f 16 31 17
f 17 31 32
f 17 32 18
f 18 32 33
f 18 33 34
f 18 34 35
f 19 36 37
f 19 37 38
f 19 38 20
f 19 35 36
f 20 38 21
f 21 38 39
f 21 39 40
f 21 40 22
f 22 40 55
f 22 55 53
f 22 53 52
f 22 52 64
f 22 64 61
f 22 61 46
f 22 46 45
f 22 45 43
f 22 43 59
f 22 59 41
f 22 41 27
f 22 27 23
f 23 27 24
f 25 42 26
f 25 27 42
f 26 42 43
f 26 43 29
f 27 41 42
f 28 29 44
f 28 44 30
f 29 45 46
f 29 46 44
f 29 43 45
f 30 44 47
f 30 47 31
f 31 48 49
f 31 49 50
f 31 50 32
f 31 47 48
f 32 50 33
f 33 50 34
f 34 36 35
f 34 50 51
f 34 51 52
f 34 52 53
f 34 53 54
f 34 54 57
f 34 57 36
f 36 55 56
f 36 56 37
f 36 57 55
f 37 56 58
f 37 58 38
f 38 58 39
f 39 58 56
f 39 56 40
f 40 56 55
f 41 59 42
f 42 59 43
f 44 46 60
f 44 60 47
f 46 61 60
f 47 60 62
f 47 62 63
f 47 63 48
f 48 63 49
f 49 64 50
f 49 63 64
f 50 64 52
f 50 52 51
f 53 55 57
f 53 57 54
f 60 61 62
f 61 64 63
f 61 63 62

