# https://github.com/mikedh/trimesh
v 0.02155427 -0.02113896 -0.02279420
v 0.02155427 -0.01508844 -0.02279420
v 0.02467232 -0.02113896 -0.02279420
v 0.02155427 -0.02113896 -0.01378236
v 0.02574518 -0.01508844 -0.02279420
v 0.02155427 -0.01508844 -0.01531301
v 0.02574518 -0.02019016 -0.02279420
v 0.02467560 -0.02113896 -0.02278538
v 0.02574518 -0.01698485 -0.01696540
v 0.02574518 -0.01663542 -0.01664868
v 0.02574518 -0.01508844 -0.01540652
v 0.02561061 -0.01508844 -0.01537564
v 0.02495582 -0.01508844 -0.01527948
v 0.02494761 -0.01508844 -0.01527860
v 0.02430349 -0.01508844 -0.01521155
v 0.02423210 -0.01508844 -0.01520714
v 0.02357444 -0.01508844 -0.01521243
v 0.02350920 -0.01508844 -0.01521420
v 0.02270015 -0.02113896 -0.01580528
v 0.02574518 -0.01814983 -0.01802935
v 0.02574518 -0.02019134 -0.02278538
v 0.02481632 -0.02113896 -0.02218194
v 0.02298734 -0.02113896 -0.01631961
v 0.02574518 -0.01845070 -0.01837165
v 0.02341074 -0.02113896 -0.01709596
v 0.02574518 -0.02019845 -0.02260893
v 0.02483191 -0.02113896 -0.02206196
v 0.02574518 -0.01846728 -0.01839194
v 0.02378491 -0.02113896 -0.01782909
v 0.02574518 -0.02017535 -0.02206196
v 0.02478309 -0.02113896 -0.02143382
v 0.02574518 -0.01879776 -0.01882687
v 0.02402696 -0.02113896 -0.01841752
v 0.02574518 -0.01908145 -0.01925916
v 0.02574518 -0.01904769 -0.01920446
v 0.02574518 -0.01898847 -0.01911447
v 0.02574518 -0.02004505 -0.02133854
v 0.02477119 -0.02113896 -0.02133854
v 0.02410615 -0.02113896 -0.01861161
v 0.02574518 -0.01946879 -0.01989171
v 0.02574518 -0.02004387 -0.02133325
v 0.02453652 -0.02113896 -0.01991729
v 0.02430554 -0.02113896 -0.01916653
v 0.02574518 -0.01959316 -0.02010609
v 0.02574518 -0.01985139 -0.02065747
v 0.02437939 -0.02113896 -0.01939766
v 0.02574518 -0.01983776 -0.02062395
f 1 2 5
f 1 5 7
f 1 7 3
f 1 3 8
f 1 8 22
f 1 22 27
f 1 27 31
f 1 31 38
f 1 38 42
f 1 42 46
f 1 46 43
f 1 43 39
f 1 39 33
f 1 33 29
f 1 29 25
f 1 25 23
f 1 23 19
f 1 19 4
f 1 4 6
f 1 6 2
f 2 6 18
f 2 18 17
f 2 17 16
f 2 16 15
f 2 15 14
f 2 14 13
f 2 13 12
f 2 12 11
f 2 11 5
f 3 7 8
f 4 9 10
f 4 10 11
f 4 11 12
f 4 12 13
f 4 13 14
f 4 14 15
f 4 15 16
f 4 16 17
f 4 17 18
f 4 18 6
f 4 19 20
f 4 20 9
f 5 11 10
f 5 10 9
f 5 9 20
f 5 20 24
f 5 24 28
f 5 28 32
f 5 32 36
f 5 36 35
f 5 35 34
f 5 34 40
f 5 40 44
f 5 44 47
f 5 47 45
f 5 45 41
f 5 41 37
f 5 37 30
f 5 30 26
f 5 26 21
f 5 21 7
f 7 21 22
f 7 22 8
f 19 23 20
f 20 23 25
f 20 25 24
f 21 26 27
f 21 27 22
f 24 25 28
f 25 29 28
f 26 30 27
f 27 30 31
f 28 29 32
f 29 33 34
f 29 34 35
f 29 35 36
f 29 36 32
f 30 37 38
f 30 38 31
f 33 39 40
f 33 40 34
f 37 41 42
f 37 42 38
f 39 43 44
f 39 44 40
f 41 45 42
f 42 45 46
f 43 46 47
f 43 47 44
f 45 47 46

