# https://github.com/mikedh/trimesh
v 0.02202769 -0.08840064 -0.02388465
v 0.02202769 -0.08831066 -0.02231601
v 0.02202769 -0.08829866 -0.02851808
v 0.02788542 -0.08483433 -0.03998959
v 0.02202769 -0.08748882 -0.01551747
v 0.02202769 -0.08754581 -0.03770912
v 0.02203120 -0.08803771 -0.03625583
v 0.02696098 -0.08488532 -0.04021038
v 0.02927559 -0.08008926 -0.04160107
v 0.03704899 -0.06639091 -0.04000277
v 0.03395580 -0.07083905 -0.00793790
v 0.03268689 -0.07292664 -0.00793790
v 0.03062711 -0.07608203 -0.00793790
v 0.02963237 -0.07750375 -0.00793790
v 0.02764288 -0.08027222 -0.00793790
v 0.02613319 -0.08200288 -0.00793790
v 0.02299431 -0.08614808 -0.01310190
v 0.02212787 -0.08700291 -0.01316451
v 0.02202769 -0.08731485 -0.01454861
v 0.02202769 -0.08657999 -0.03871754
v 0.02598029 -0.08482234 -0.04014777
v 0.03734953 -0.05931229 -0.04046084
v 0.03748134 -0.06085399 -0.04041470
v 0.03728450 -0.06544609 -0.04037186
v 0.02202769 -0.08569817 -0.03868458
v 0.03691015 -0.05776458 -0.04045095
v 0.03777484 -0.06393139 -0.03927447
v 0.03998049 -0.05775859 -0.02823137
v 0.03896994 -0.06085399 -0.03003069
v 0.03861668 -0.06185879 -0.03003069
v 0.03860438 -0.06181980 -0.02849171
v 0.03433015 -0.07009519 -0.00848166
v 0.03461662 -0.06912038 -0.00793790
v 0.02454442 -0.08340961 -0.00793790
v 0.02203296 -0.08669097 -0.01157610
v 0.02281153 -0.08598011 -0.01155962
v 0.02202944 -0.08611509 -0.01021837
v 0.02202944 -0.08551820 -0.00886063
v 0.02202769 -0.08472035 -0.01440360
v 0.03805604 -0.05775859 -0.03918549
v 0.03740752 -0.06393139 -0.04035209
v 0.03851123 -0.05855343 -0.03850663
v 0.03806307 -0.06085399 -0.03927447
v 0.03621594 -0.05775859 -0.03927447
v 0.02202769 -0.08526325 -0.03764651
v 0.03900509 -0.05775859 -0.02080999
v 0.03946555 -0.05776458 -0.02388465
v 0.03870104 -0.05944726 -0.02070124
v 0.03552525 -0.06667285 -0.00821143
v 0.03894709 -0.06085399 -0.02849171
v 0.03845675 -0.05775859 -0.03795958
v 0.03489958 -0.06855349 -0.00848166
v 0.03397162 -0.06550308 -0.00793790
v 0.03570451 -0.06573104 -0.00807631
v 0.02208920 -0.08506229 -0.00793790
v 0.02289238 -0.08458838 -0.00795768
v 0.02203120 -0.08278573 -0.00794450
v 0.03488728 -0.05861642 -0.01008325
v 0.03689609 -0.05775859 -0.01876350
v 0.03925816 -0.05776458 -0.02234567
v 0.03868522 -0.05776158 -0.01901396
v 0.03857801 -0.05885338 -0.01891180
v 0.03639872 -0.05896435 -0.01008325
v 0.03634248 -0.06238969 -0.01008325
f 1 2 5
f 1 5 19
f 1 19 39
f 1 39 45
f 1 45 25
f 1 25 20
f 1 20 6
f 1 6 3
f 1 3 4
f 1 4 2
f 2 4 5
f 3 6 7
f 3 7 4
f 4 7 6
f 4 6 8
f 4 8 9
f 4 9 10
f 4 10 11
f 4 11 12
f 4 12 13
f 4 13 14
f 4 14 15
f 4 15 16
f 4 16 17
f 4 17 5
f 5 17 18
f 5 18 19
f 6 20 8
f 8 21 9
f 8 20 21
f 9 22 23
f 9 23 24
f 9 24 10
f 9 21 20
f 9 20 25
f 9 25 26
f 9 26 22
f 10 27 28
f 10 28 29
f 10 29 30
f 10 30 31
f 10 31 32
f 10 32 11
f 10 24 27
f 11 32 33
f 11 33 53
f 11 53 55
f 11 55 34
f 11 34 16
f 11 16 15
f 11 15 14
f 11 14 13
f 11 13 12
f 16 34 35
f 16 35 36
f 16 36 18
f 16 18 17
f 18 36 35
f 18 35 19
f 19 35 37
f 19 37 38
f 19 38 39
f 22 26 40
f 22 40 23
f 23 41 24
f 23 40 42
f 23 42 43
f 23 43 41
f 24 41 43
f 24 43 27
f 25 44 26
f 25 45 44
f 26 44 40
f 27 43 42
f 27 42 28
f 28 46 47
f 28 47 48
f 28 48 49
f 28 49 50
f 28 50 29
f 28 42 51
f 28 51 40
f 28 40 44
f 28 44 59
f 28 59 46
f 29 50 30
f 30 50 31
f 31 50 52
f 31 52 32
f 32 52 33
f 33 52 49
f 33 49 54
f 33 54 53
f 34 55 56
f 34 56 35
f 35 56 37
f 37 56 38
f 38 56 55
f 38 55 57
f 38 57 39
f 39 57 45
f 40 51 42
f 44 45 57
f 44 57 58
f 44 58 59
f 46 60 47
f 46 59 61
f 46 61 62
f 46 62 60
f 47 60 48
f 48 62 54
f 48 54 49
f 48 60 62
f 49 52 50
f 53 58 57
f 53 57 55
f 53 54 63
f 53 63 58
f 54 62 61
f 54 61 64
f 54 64 63
f 58 63 61
f 58 61 59
f 61 63 64

