# https://github.com/mikedh/trimesh
v -0.06686476 -0.02007233 0.00074996
v -0.06183648 -0.02049070 0.00074996
v -0.06346131 -0.02087770 0.00205594
v -0.05005480 0.00541717 0.00387246
v -0.05032226 0.00785421 0.00348764
v -0.04903176 0.01298976 0.00250403
v -0.05091067 0.01097110 0.00165903
v -0.05341813 0.00690241 0.00074996
v 0.00144493 -0.02087770 0.00330953
v 0.00143156 0.08419720 0.00074996
v -0.05832604 -0.02087770 0.00319147
v -0.04475237 0.01346044 0.00455104
v -0.04292026 0.01749776 0.00458489
v -0.04544777 0.01691203 0.00370443
v -0.04565505 0.01915034 0.00260154
v -0.04772119 0.01694341 0.00141766
v -0.04940620 0.01409846 0.00077132
v -0.04657111 0.01918171 0.00074996
v -0.00154395 0.01002976 0.00450268
v -0.01156039 -0.00228093 0.00448737
v -0.03850714 -0.02087770 0.00428469
v 0.00144493 0.06658361 0.00260799
v 0.00144493 0.02751784 0.00462236
v -0.00112270 0.08567197 0.00074996
v 0.00089663 0.08597529 0.00166628
v 0.00144493 0.08059917 0.00347595
v -0.05551101 -0.02087770 0.00356138
v -0.04119513 0.01446454 0.00477025
v -0.04004505 0.01811486 0.00482344
v -0.05240177 -0.02087770 0.00385514
v -0.03928278 0.02081338 0.00478677
v -0.04192397 0.01949550 0.00454620
v -0.04388312 0.01925493 0.00387931
v -0.03700936 0.03113678 0.00343123
v -0.04177686 0.02652420 0.00177226
v -0.04485936 0.02190115 0.00122827
v -0.04316766 0.02472518 0.00115896
v -0.04169662 0.02717268 0.00076044
v -0.01252325 0.07157273 0.00074996
v -0.02312142 0.00426664 0.00472753
v -0.01884872 0.00053265 0.00462438
v -0.03041643 -0.00667387 0.00462115
v 0.00144493 0.04652253 0.00467998
v -0.03006204 0.02542596 0.00486091
v -0.02543496 0.00618071 0.00475977
v -0.00494072 0.08178108 0.00092404
v -0.00251350 0.08339183 0.00154983
v 0.00088995 0.08305713 0.00297871
v 0.00144493 0.07844455 0.00365930
v -0.03529092 0.02721452 0.00473519
v -0.03388675 0.02427543 0.00486615
v -0.03311779 0.02696349 0.00483754
v -0.03645438 0.02477748 0.00478596
v -0.03620697 0.03003855 0.00408160
v -0.03773819 0.02851148 0.00394943
v -0.03464901 0.03310315 0.00381444
v -0.03870774 0.03112632 0.00182424
v -0.04006511 0.02931685 0.00158005
v 0.00144493 0.04884451 0.00466548
v -0.02928641 0.02735049 0.00485527
v 0.00144493 0.07613303 0.00380194
v 0.00144493 0.05254712 0.00462438
v 0.00144493 0.07381104 0.00391477
f 1 2 3
f 1 3 4
f 1 4 5
f 1 5 6
f 1 6 7
f 1 7 8
f 1 8 18
f 1 18 39
f 1 39 24
f 1 24 10
f 1 10 2
f 2 9 3
f 2 10 9
f 3 11 4
f 3 9 21
f 3 21 30
f 3 30 27
f 3 27 11
f 4 11 12
f 4 12 5
f 5 12 13
f 5 13 14
f 5 14 6
f 6 14 15
f 6 15 7
f 7 15 16
f 7 16 8
f 8 16 17
f 8 17 18
f 9 19 20
f 9 20 21
f 9 10 22
f 9 22 26
f 9 26 49
f 9 49 61
f 9 61 63
f 9 63 62
f 9 62 59
f 9 59 43
f 9 43 23
f 9 23 19
f 10 24 25
f 10 25 26
f 10 26 22
f 11 27 12
f 12 28 29
f 12 29 13
f 12 27 30
f 12 30 28
f 13 29 31
f 13 31 32
f 13 32 33
f 13 33 14
f 14 33 15
f 15 33 34
f 15 34 35
f 15 35 16
f 16 35 36
f 16 36 18
f 16 18 17
f 18 36 37
f 18 37 38
f 18 38 39
f 19 40 41
f 19 41 20
f 19 23 40
f 20 41 42
f 20 42 21
f 21 42 28
f 21 28 30
f 23 43 44
f 23 44 45
f 23 45 40
f 24 39 46
f 24 46 47
f 24 47 25
f 25 47 48
f 25 48 26
f 26 48 50
f 26 50 49
f 28 42 29
f 29 42 45
f 29 45 51
f 29 51 52
f 29 52 53
f 29 53 31
f 31 53 50
f 31 50 32
f 32 50 54
f 32 54 55
f 32 55 33
f 33 55 34
f 34 55 56
f 34 56 47
f 34 47 46
f 34 46 39
f 34 39 57
f 34 57 35
f 35 57 58
f 35 58 37
f 35 37 36
f 37 58 38
f 38 58 39
f 39 58 57
f 40 45 42
f 40 42 41
f 43 59 60
f 43 60 44
f 44 51 45
f 44 60 51
f 47 56 48
f 48 56 54
f 48 54 50
f 49 50 61
f 50 53 52
f 50 52 61
f 51 60 52
f 52 60 62
f 52 62 63
f 52 63 61
f 54 56 55
f 59 62 60

