# https://github.com/mikedh/trimesh
v -0.05181364 0.01009130 -0.00228641
v -0.05181077 0.00998656 -0.00072558
v -0.05181077 0.00731562 -0.00232765
v -0.05827603 0.00579475 -0.00735432
v -0.06238950 0.00641064 -0.00735432
v -0.06376735 0.00650910 -0.00735432
v -0.06527696 0.00630590 -0.00735432
v -0.05181077 0.00963672 0.00055131
v -0.06659751 0.00585969 -0.00735432
v -0.06867716 0.00495681 -0.00683643
v -0.06927872 0.00458812 -0.00626064
v -0.05181077 0.00532132 0.00074800
v -0.05370710 -0.00317751 0.00074800
v -0.05405944 -0.00454126 0.00074800
v -0.05541436 -0.00778619 0.00074800
v -0.05827603 0.00387796 -0.00735432
v -0.05343497 0.00687360 0.00074800
v -0.07053338 0.00313219 -0.00480768
v -0.07085994 0.00286405 -0.00467285
v -0.07246694 0.00171188 -0.00465381
v -0.07308282 0.00065817 -0.00425885
v -0.07313151 -0.00077471 -0.00346892
v -0.07362708 -0.00181376 -0.00320323
v -0.07411978 -0.00284024 -0.00300178
v -0.06808707 0.00527313 -0.00735432
v -0.06941048 0.00469495 -0.00733688
v -0.07000058 0.00425294 -0.00683643
v -0.07053338 0.00375436 -0.00629474
v -0.07053338 0.00344223 -0.00548736
v -0.05693829 -0.01086354 0.00074800
v -0.05729922 -0.01130974 0.00074800
v -0.05969970 -0.01130974 -0.00015138
v -0.06098302 -0.01130974 -0.00062327
v -0.06410536 -0.01130974 -0.00173996
v -0.06547461 -0.01130974 -0.00214523
v -0.06990032 -0.01130974 -0.00314613
v -0.07834210 -0.01130974 -0.00467285
v -0.07053338 0.00179986 -0.00735432
v -0.05417975 0.00538626 0.00074800
v -0.07747415 -0.00719545 -0.00293120
v -0.07790956 -0.00841046 -0.00284316
v -0.07624813 -0.00846912 -0.00242599
v -0.07053338 0.00392195 -0.00707515
v -0.07396796 0.00014702 -0.00464271
v -0.07433748 -0.00076843 -0.00427471
v -0.07514815 -0.00347289 -0.00325875
v -0.07850539 -0.00785742 -0.00311282
v -0.07008651 0.00425713 -0.00735432
v -0.06207441 -0.01130974 0.00074800
v -0.08107487 -0.01130974 -0.00467285
v -0.07778352 -0.01000884 -0.00263775
v -0.07879184 -0.01000884 -0.00296371
v -0.07896657 -0.01130974 -0.00288044
v -0.07858273 -0.00599928 -0.00464271
v -0.07549762 -0.00173625 -0.00467285
v -0.07584996 -0.00260981 -0.00428423
v -0.07884913 -0.00692940 -0.00420650
v -0.08026134 -0.00912900 -0.00462923
v -0.08041317 -0.01000884 -0.00426519
v -0.08072254 -0.01130974 -0.00402647
v -0.07975719 -0.01130974 -0.00321830
v -0.07723353 -0.00429198 -0.00439209
v -0.08075691 -0.01044038 -0.00467285
v -0.07778352 -0.01130974 -0.00255447
f 1 2 3
f 1 3 4
f 1 4 5
f 1 5 6
f 1 6 7
f 1 7 2
f 2 8 12
f 2 12 3
f 2 7 9
f 2 9 10
f 2 10 11
f 2 11 8
f 3 12 13
f 3 13 14
f 3 14 15
f 3 15 16
f 3 16 4
f 4 16 38
f 4 38 48
f 4 48 25
f 4 25 9
f 4 9 7
f 4 7 6
f 4 6 5
f 8 17 12
f 8 11 18
f 8 18 19
f 8 19 20
f 8 20 21
f 8 21 22
f 8 22 23
f 8 23 24
f 8 24 17
f 9 25 10
f 10 26 11
f 10 25 26
f 11 26 27
f 11 27 28
f 11 28 29
f 11 29 18
f 12 17 39
f 12 39 49
f 12 49 31
f 12 31 30
f 12 30 15
f 12 15 14
f 12 14 13
f 15 30 16
f 16 30 31
f 16 31 32
f 16 32 33
f 16 33 34
f 16 34 35
f 16 35 36
f 16 36 37
f 16 37 38
f 17 24 40
f 17 40 41
f 17 41 42
f 17 42 39
f 18 29 19
f 19 29 20
f 20 29 28
f 20 28 43
f 20 43 44
f 20 44 21
f 21 44 45
f 21 45 46
f 21 46 22
f 22 46 23
f 23 46 24
f 24 46 47
f 24 47 40
f 25 48 26
f 26 48 27
f 27 48 43
f 27 43 28
f 31 49 64
f 31 64 53
f 31 53 61
f 31 61 60
f 31 60 50
f 31 50 37
f 31 37 36
f 31 36 35
f 31 35 34
f 31 34 33
f 31 33 32
f 37 50 38
f 38 50 48
f 39 42 49
f 40 47 41
f 41 51 42
f 41 47 52
f 41 52 53
f 41 53 51
f 42 51 49
f 43 48 54
f 43 54 55
f 43 55 44
f 44 55 56
f 44 56 45
f 45 56 46
f 46 56 47
f 47 57 58
f 47 58 59
f 47 59 60
f 47 60 61
f 47 61 52
f 47 56 62
f 47 62 57
f 48 50 63
f 48 63 58
f 48 58 54
f 49 51 64
f 50 60 59
f 50 59 58
f 50 58 63
f 51 53 64
f 52 61 53
f 54 58 57
f 54 57 62
f 54 62 55
f 55 62 56

