# https://github.com/mikedh/trimesh
v 0.02202593 -0.08413284 -0.00634351
v 0.02247055 -0.08475238 -0.00774850
v 0.02380861 -0.08313861 -0.00631053
v 0.02202593 -0.08294685 -0.00518557
v 0.02202593 -0.07491931 -0.00395328
v 0.02203015 -0.08278459 -0.00793439
v 0.03386733 -0.06541962 -0.01007817
v 0.03557262 -0.06541666 -0.01007577
v 0.02453463 -0.08340413 -0.00784744
v 0.02582767 -0.08116787 -0.00570307
v 0.02382972 -0.08101151 -0.00439582
v 0.02221306 -0.08141569 -0.00422852
v 0.02507492 -0.07922368 -0.00401085
v 0.02683087 -0.07745945 -0.00401264
v 0.02805778 -0.06541962 -0.00395208
v 0.02788613 -0.05622969 -0.00395208
v 0.02792693 -0.05465133 -0.00395208
v 0.03354793 -0.05461593 -0.01007817
v 0.03612417 -0.06390025 -0.01007817
v 0.03462008 -0.06911919 -0.00793439
v 0.03370270 -0.07116959 -0.00745167
v 0.03267981 -0.07290726 -0.00743308
v 0.02763990 -0.08027100 -0.00785464
v 0.02622163 -0.08188182 -0.00763757
v 0.02757236 -0.07957475 -0.00606587
v 0.02774683 -0.07782527 -0.00462729
v 0.02651992 -0.07894341 -0.00441441
v 0.02808733 -0.07620561 -0.00410919
v 0.02903143 -0.07468330 -0.00405102
v 0.03286976 -0.06263166 -0.00407441
v 0.03093371 -0.05461593 -0.00414697
v 0.03241951 -0.05461593 -0.00536067
v 0.03390813 -0.05507321 -0.00651381
v 0.03598206 -0.05556000 -0.01006617
v 0.03639994 -0.05930972 -0.01007817
v 0.03634366 -0.06238975 -0.01007817
v 0.03599472 -0.06467616 -0.00848488
v 0.03466932 -0.06855275 -0.00693237
v 0.03531654 -0.06678262 -0.00734014
v 0.03355216 -0.07003965 -0.00588597
v 0.03244343 -0.07214316 -0.00564311
v 0.03071984 -0.07572767 -0.00684242
v 0.02957173 -0.07742110 -0.00719442
v 0.02957173 -0.07591353 -0.00497869
v 0.03062839 -0.07326719 -0.00449717
v 0.03115742 -0.07109288 -0.00417215
v 0.03258413 -0.06701273 -0.00409959
v 0.03428661 -0.06217438 -0.00496070
v 0.03294433 -0.06099724 -0.00422972
v 0.03239700 -0.05930972 -0.00414397
v 0.03338472 -0.06483548 -0.00436164
v 0.03409386 -0.05930972 -0.00521376
v 0.03485786 -0.05776971 -0.00636929
v 0.03536579 -0.05555114 -0.00840393
v 0.03639291 -0.05773725 -0.01006138
v 0.03614950 -0.05776971 -0.00847169
v 0.03632396 -0.06238975 -0.00847169
v 0.03554167 -0.06480007 -0.00659896
v 0.03382371 -0.06855275 -0.00543563
v 0.03236323 -0.06914574 -0.00432207
v 0.03403898 -0.06701273 -0.00519756
v 0.03573021 -0.06238975 -0.00650541
v 0.03548961 -0.05976110 -0.00641007
v 0.03624799 -0.05930972 -0.00847169
f 1 2 3
f 1 3 4
f 1 4 5
f 1 5 6
f 1 6 2
f 2 6 7
f 2 7 8
f 2 8 9
f 2 9 3
f 3 9 10
f 3 10 11
f 3 11 4
f 4 11 12
f 4 12 5
f 5 12 13
f 5 13 14
f 5 14 15
f 5 15 16
f 5 16 17
f 5 17 6
f 6 17 18
f 6 18 7
f 7 18 35
f 7 35 36
f 7 36 19
f 7 19 8
f 8 19 20
f 8 20 21
f 8 21 22
f 8 22 23
f 8 23 9
f 9 23 24
f 9 24 10
f 10 25 26
f 10 26 27
f 10 27 11
f 10 24 25
f 11 27 13
f 11 13 12
f 13 27 14
f 14 27 28
f 14 28 29
f 14 29 15
f 15 30 17
f 15 17 16
f 15 29 30
f 17 31 18
f 17 30 31
f 18 31 32
f 18 32 33
f 18 33 34
f 18 34 35
f 19 36 37
f 19 37 20
f 20 38 21
f 20 37 39
f 20 39 38
f 21 38 40
f 21 40 41
f 21 41 22
f 22 41 42
f 22 42 43
f 22 43 23
f 23 43 25
f 23 25 24
f 25 43 42
f 25 42 44
f 25 44 26
f 26 44 28
f 26 28 27
f 28 44 29
f 29 44 45
f 29 45 46
f 29 46 47
f 29 47 30
f 30 48 49
f 30 49 50
f 30 50 31
f 30 47 51
f 30 51 48
f 31 50 52
f 31 52 32
f 32 52 53
f 32 53 33
f 33 54 34
f 33 53 54
f 34 55 35
f 34 54 56
f 34 56 55
f 35 55 57
f 35 57 36
f 36 57 37
f 37 57 58
f 37 58 39
f 38 59 40
f 38 39 58
f 38 58 59
f 40 59 41
f 41 59 60
f 41 60 45
f 41 45 44
f 41 44 42
f 45 60 46
f 46 60 47
f 47 61 51
f 47 60 61
f 48 62 63
f 48 63 52
f 48 52 49
f 48 51 61
f 48 61 62
f 49 52 50
f 52 63 53
f 53 63 56
f 53 56 54
f 55 56 64
f 55 64 57
f 56 63 62
f 56 62 64
f 57 62 58
f 57 64 62
f 58 61 59
f 58 62 61
f 59 61 60

