# https://github.com/mikedh/trimesh
v -0.03310813 -0.08109618 -0.02586156
v -0.03702416 -0.07852470 -0.02314753
v -0.03536572 -0.07854782 -0.02308067
v -0.03311499 -0.07972053 -0.02368521
v -0.03311499 -0.07931044 -0.02233958
v -0.03310813 -0.07953129 -0.01884462
v -0.03310813 -0.08216885 -0.02569229
v -0.05002036 -0.07941898 -0.01885885
v -0.03852464 -0.07849732 -0.02038371
v -0.03620181 -0.07852281 -0.02304654
v -0.03311843 -0.07866768 -0.01132983
v -0.03311328 -0.08032034 -0.01132983
v -0.03310813 -0.08100651 -0.01884462
v -0.03310813 -0.08203246 -0.02382746
v -0.03684389 -0.08323916 -0.01992142
v -0.03697608 -0.08323916 -0.02031686
v -0.04345530 -0.08327597 -0.01865259
v -0.04698162 -0.08192675 -0.01884462
v -0.04792414 -0.08173280 -0.01862699
v -0.04954995 -0.08038358 -0.01876070
v -0.05064699 -0.07941898 -0.01785744
v -0.03852464 -0.07849732 -0.01995840
v -0.05014740 -0.07941898 -0.01279068
v -0.03349612 -0.07870072 -0.01132983
v -0.04483733 -0.08056385 -0.01132983
v -0.03925428 -0.08191779 -0.01139953
v -0.03812978 -0.08178187 -0.01192441
v -0.03928347 -0.08235856 -0.01309651
v -0.03311328 -0.08062379 -0.01309651
v -0.03311328 -0.08086305 -0.01462422
v -0.03850404 -0.08318725 -0.01846910
v -0.04082344 -0.08327691 -0.01802956
v -0.04228273 -0.08330900 -0.01759571
v -0.04235827 -0.08331797 -0.01873225
v -0.04355659 -0.08327691 -0.01771520
v -0.04698162 -0.08248409 -0.01617611
v -0.04698162 -0.08234204 -0.01771520
v -0.04821257 -0.08188051 -0.01771520
v -0.04898513 -0.08142746 -0.01771520
v -0.04972679 -0.08065871 -0.01771520
v -0.05059377 -0.07944116 -0.01628421
v -0.05053540 -0.07941898 -0.01570101
v -0.04921861 -0.08158650 -0.01617611
v -0.04978001 -0.08081774 -0.01617611
v -0.05040664 -0.07941898 -0.01466547
v -0.04965296 -0.08054545 -0.01294288
v -0.04483733 -0.08222784 -0.01144220
v -0.03444723 -0.07882672 -0.01132983
v -0.04389824 -0.08232033 -0.01144220
v -0.04235827 -0.08232222 -0.01144220
v -0.04082688 -0.08221179 -0.01144220
v -0.04082344 -0.08250957 -0.01309651
v -0.04274626 -0.08321415 -0.01677069
v -0.04337289 -0.08321415 -0.01677069
v -0.04544164 -0.08269079 -0.01463702
v -0.04698162 -0.08243312 -0.01463702
v -0.04844605 -0.08199707 -0.01617611
v -0.04973537 -0.08078235 -0.01463702
v -0.04916711 -0.08155111 -0.01463702
v -0.04883233 -0.08136895 -0.01294288
v -0.04682882 -0.08217498 -0.01286749
v -0.04544164 -0.08247229 -0.01294288
v -0.04806664 -0.08178801 -0.01294288
v -0.04839627 -0.08195979 -0.01463702
f 1 2 3
f 1 3 4
f 1 4 5
f 1 5 6
f 1 6 13
f 1 13 14
f 1 14 7
f 1 7 8
f 1 8 2
f 2 9 10
f 2 10 3
f 2 8 9
f 3 10 11
f 3 11 5
f 3 5 4
f 5 11 6
f 6 12 13
f 6 11 12
f 7 14 15
f 7 15 16
f 7 16 17
f 7 17 18
f 7 18 19
f 7 19 20
f 7 20 8
f 8 20 21
f 8 21 9
f 9 22 10
f 9 21 22
f 10 22 11
f 11 22 23
f 11 23 24
f 11 24 48
f 11 48 25
f 11 25 12
f 12 25 26
f 12 26 27
f 12 27 28
f 12 28 15
f 12 15 29
f 12 29 14
f 12 14 13
f 14 29 30
f 14 30 15
f 15 30 29
f 15 28 31
f 15 31 32
f 15 32 33
f 15 33 34
f 15 34 16
f 16 34 17
f 17 35 36
f 17 36 37
f 17 37 19
f 17 19 18
f 17 34 35
f 19 37 38
f 19 38 39
f 19 39 20
f 20 39 40
f 20 40 21
f 21 41 42
f 21 42 22
f 21 40 43
f 21 43 44
f 21 44 41
f 22 42 45
f 22 45 23
f 23 45 46
f 23 46 47
f 23 47 25
f 23 25 48
f 23 48 24
f 25 47 49
f 25 49 26
f 26 50 51
f 26 51 28
f 26 28 27
f 26 49 50
f 28 51 52
f 28 52 31
f 31 52 53
f 31 53 32
f 32 53 33
f 33 53 54
f 33 54 35
f 33 35 34
f 35 55 56
f 35 56 36
f 35 54 55
f 36 56 57
f 36 57 37
f 37 57 38
f 38 57 43
f 38 43 39
f 39 43 40
f 41 44 58
f 41 58 46
f 41 46 42
f 42 46 45
f 43 57 59
f 43 59 58
f 43 58 44
f 46 59 60
f 46 60 47
f 46 58 59
f 47 61 62
f 47 62 49
f 47 60 63
f 47 63 61
f 49 62 54
f 49 54 50
f 50 54 53
f 50 53 52
f 50 52 51
f 54 62 55
f 55 62 56
f 56 63 64
f 56 64 57
f 56 62 61
f 56 61 63
f 57 64 59
f 59 64 63
f 59 63 60

