# https://github.com/mikedh/trimesh
v -0.05031069 0.01319220 -0.02383177
v -0.05037843 0.01155266 -0.02529883
v -0.05049473 0.01319220 -0.02552915
v -0.05038354 0.01319220 -0.02072539
v -0.05037715 0.01012483 -0.02551947
v -0.05050368 0.00968597 -0.02655300
v -0.05159259 0.01319220 -0.02566463
v -0.05821806 0.00646021 -0.04038172
v -0.05930697 0.00662941 -0.04049785
v -0.05944500 0.00734565 -0.03914110
v -0.06005080 0.00770879 -0.03853531
v -0.05096250 0.01245819 -0.02072539
v -0.05070561 0.00916598 -0.02458078
v -0.05048834 0.00889633 -0.02541883
v -0.05266999 0.01319220 -0.02072539
v -0.05050368 0.00885770 -0.02655300
v -0.05668822 0.01236548 -0.02788458
v -0.05715727 0.01236548 -0.02788458
v -0.06336609 0.01316747 -0.02546528
v -0.05189805 0.01319220 -0.02554657
v -0.05821806 0.00587068 -0.04038172
v -0.05930697 0.00580501 -0.04049785
v -0.06034220 0.00648725 -0.04031398
v -0.06336737 0.00652511 -0.03917207
v -0.06012876 0.00770879 -0.03853531
v -0.05173317 0.01170255 -0.02072539
v -0.05257542 0.01093378 -0.02072539
v -0.05260098 0.01091601 -0.02072539
v -0.05333714 0.01045706 -0.02072539
v -0.05468678 0.01004061 -0.02072539
v -0.05533859 0.01000352 -0.02072539
v -0.06336737 0.00530048 -0.03774372
v -0.05930697 0.00561108 -0.03928045
v -0.05810687 0.00580424 -0.03928045
v -0.05268022 0.01319220 -0.02079893
v -0.06336609 0.01296195 -0.02425756
v -0.05533859 0.01171491 -0.02072539
v -0.05287193 0.01319220 -0.02234922
v -0.05305725 0.01319220 -0.02387822
v -0.06319228 0.00771033 -0.03699083
v -0.06336737 0.00757435 -0.03716695
v -0.06336737 0.00774665 -0.03674503
v -0.06336737 0.00938541 -0.03265544
v -0.06336737 0.00974623 -0.03164708
v -0.06336737 0.00994017 -0.03095225
v -0.06336737 0.00547973 -0.03918562
v -0.06034220 0.00597808 -0.04031398
v -0.06336737 0.00728925 -0.03772049
v -0.06238710 0.00740128 -0.03799726
v -0.06336609 0.00978332 -0.02396338
v -0.06336737 0.00547741 -0.03726179
v -0.06336609 0.01230521 -0.02396338
v -0.06336737 0.00815537 -0.03095225
f 1 2 3
f 1 3 7
f 1 7 20
f 1 20 39
f 1 39 38
f 1 38 35
f 1 35 15
f 1 15 4
f 1 4 5
f 1 5 2
f 2 5 6
f 2 6 3
f 3 6 8
f 3 8 9
f 3 9 10
f 3 10 11
f 3 11 7
f 4 12 13
f 4 13 14
f 4 14 5
f 4 15 37
f 4 37 31
f 4 31 30
f 4 30 29
f 4 29 28
f 4 28 27
f 4 27 26
f 4 26 12
f 5 16 6
f 5 14 16
f 6 16 21
f 6 21 8
f 7 17 18
f 7 18 19
f 7 19 20
f 7 11 17
f 8 21 22
f 8 22 9
f 9 22 47
f 9 47 23
f 9 23 24
f 9 24 25
f 9 25 11
f 9 11 10
f 11 25 18
f 11 18 17
f 12 26 13
f 13 26 27
f 13 27 28
f 13 28 29
f 13 29 30
f 13 30 14
f 14 30 31
f 14 31 32
f 14 32 33
f 14 33 34
f 14 34 16
f 15 35 19
f 15 19 36
f 15 36 37
f 16 34 21
f 18 25 19
f 19 35 38
f 19 38 39
f 19 39 20
f 19 25 40
f 19 40 41
f 19 41 42
f 19 42 43
f 19 43 44
f 19 44 45
f 19 45 36
f 21 34 33
f 21 33 22
f 22 33 46
f 22 46 47
f 23 46 24
f 23 47 46
f 24 48 49
f 24 49 25
f 24 46 32
f 24 32 51
f 24 51 53
f 24 53 45
f 24 45 44
f 24 44 43
f 24 43 42
f 24 42 41
f 24 41 48
f 25 49 40
f 31 50 32
f 31 37 52
f 31 52 50
f 32 46 33
f 32 50 51
f 36 52 37
f 36 45 52
f 40 49 41
f 41 49 48
f 45 53 50
f 45 50 52
f 50 53 51

