# https://github.com/mikedh/trimesh
v -0.03311710 -0.03585281 0.00583993
v -0.03157744 -0.04383955 0.01077481
v -0.03295087 -0.03585750 0.00583993
v -0.03465948 -0.03596775 0.00583993
v -0.03004051 -0.04383955 0.01073858
v -0.03219330 -0.04383955 0.01071635
v -0.03144664 -0.03593726 0.00583993
v -0.03610375 -0.03621954 0.00583993
v -0.03311710 -0.04383955 0.01062795
v -0.02852811 -0.04383955 0.01025403
v -0.02357668 -0.03879447 0.00583993
v -0.02452500 -0.03830575 0.00583993
v -0.02667507 -0.03720869 0.00583993
v -0.02770787 -0.03675751 0.00583993
v -0.02866708 -0.03637358 0.00583993
v -0.02995331 -0.03607723 0.00583993
v -0.03465948 -0.04383955 0.01034485
v -0.03773879 -0.03695456 0.00583993
v -0.01669593 -0.04383955 0.00583993
v -0.01692483 -0.04335631 0.00583993
v -0.01882147 -0.04168139 0.00583993
v -0.02049193 -0.04060388 0.00583993
v -0.02160102 -0.03995174 0.00583993
v -0.03479028 -0.04383955 0.01029992
v -0.03912311 -0.03790540 0.00583993
v -0.04453234 -0.04383955 0.00583993
v -0.03595388 -0.04383955 0.00980233
v -0.04076087 -0.03935121 0.00583993
v -0.04229780 -0.04087287 0.00583993
v -0.04369848 -0.04256264 0.00583993
f 1 2 3
f 1 3 7
f 1 7 16
f 1 16 15
f 1 15 14
f 1 14 13
f 1 13 12
f 1 12 11
f 1 11 23
f 1 23 22
f 1 22 21
f 1 21 20
f 1 20 19
f 1 19 26
f 1 26 30
f 1 30 29
f 1 29 28
f 1 28 25
f 1 25 18
f 1 18 8
f 1 8 4
f 1 4 2
f 2 5 3
f 2 4 6
f 2 6 9
f 2 9 17
f 2 17 24
f 2 24 27
f 2 27 26
f 2 26 19
f 2 19 10
f 2 10 5
f 3 5 7
f 4 8 9
f 4 9 6
f 5 10 11
f 5 11 12
f 5 12 13
f 5 13 14
f 5 14 15
f 5 15 16
f 5 16 7
f 8 17 9
f 8 18 17
f 10 19 20
f 10 20 21
f 10 21 22
f 10 22 23
f 10 23 11
f 17 18 24
f 18 25 24
f 24 25 28
f 24 28 29
f 24 29 27
f 26 27 30
f 27 29 30

