# https://github.com/mikedh/trimesh
v 0.05458681 -0.00551396 0.00180685
v 0.05131654 -0.00551396 0.00180685
v 0.05420667 -0.00697322 0.00180685
v 0.05514862 -0.00551396 0.00122321
v 0.05657133 -0.00551396 -0.00697417
v 0.05513465 -0.01210127 -0.02652881
v 0.05080224 -0.01537993 -0.02009411
v 0.03567235 -0.03882943 -0.01925404
v 0.03519159 -0.03959845 -0.01925404
v 0.03391423 -0.04005236 -0.01382449
v 0.03381640 -0.03990981 -0.01280460
v 0.03230984 -0.04151162 -0.00944135
v 0.02949238 -0.04382994 -0.00072223
v 0.03675126 -0.03130428 0.00180685
v 0.05390201 -0.00805735 0.00173610
v 0.04949134 -0.01580758 0.00180685
v 0.05565733 -0.00551396 0.00042440
v 0.05785708 -0.00551396 -0.00836840
v 0.05804714 -0.01143354 -0.02830624
v 0.05668593 -0.01201499 -0.02792010
v 0.03668977 -0.04262201 -0.02655239
v 0.03674846 -0.04120026 -0.02513458
v 0.03555216 -0.04021742 -0.02133507
v 0.03532855 -0.03985354 -0.02030929
v 0.03227351 -0.04294838 -0.01261006
v 0.03213934 -0.04269704 -0.01156070
v 0.03207785 -0.04249447 -0.01082084
v 0.03201077 -0.04226939 -0.00998076
v 0.03136510 -0.04383744 -0.01001614
v 0.03172287 -0.04383744 -0.00078413
v 0.04019203 -0.03101168 0.00176558
v 0.05254359 -0.01061950 0.00171842
v 0.05378461 -0.00900268 0.00112299
v 0.05624151 -0.00551396 -0.00065443
v 0.04789533 -0.01860231 0.00177148
v 0.05804714 -0.00551396 -0.00455416
v 0.05804714 -0.01247265 -0.02794663
v 0.03737736 -0.04383744 -0.02697980
v 0.03651367 -0.04383744 -0.02697980
v 0.03535091 -0.04289961 -0.02332768
v 0.03528104 -0.04124528 -0.02185680
v 0.03509935 -0.04076511 -0.02081039
v 0.03214493 -0.04383744 -0.01307873
v 0.03175641 -0.04383744 -0.01156070
v 0.03223996 -0.04383744 -0.00215183
v 0.04046595 -0.03130428 0.00077223
v 0.04157561 -0.02923730 0.00147966
v 0.05804714 -0.00693196 -0.00691522
v 0.05804714 -0.01289280 -0.02695033
v 0.04344273 -0.03731014 -0.02455979
v 0.03767085 -0.04383744 -0.02541461
v 0.03587360 -0.04383744 -0.02529375
v 0.03530060 -0.04383744 -0.02375508
v 0.03513849 -0.04237442 -0.02235201
v 0.03466052 -0.04235192 -0.02079271
v 0.03387789 -0.04304591 -0.01855840
v 0.03484220 -0.04383744 -0.02233432
v 0.05804714 -0.01108467 -0.01615902
v 0.05804714 -0.00777225 -0.00861601
v 0.05804714 -0.01342924 -0.02511100
v 0.05804714 -0.01348176 -0.02378161
v 0.05804714 -0.01323417 -0.02205135
v 0.05804714 -0.01295657 -0.02079271
v 0.05804714 -0.01250642 -0.01955175
f 1 2 14
f 1 14 16
f 1 16 3
f 1 3 4
f 1 4 17
f 1 17 34
f 1 34 36
f 1 36 18
f 1 18 5
f 1 5 2
f 2 5 6
f 2 6 7
f 2 7 8
f 2 8 9
f 2 9 10
f 2 10 11
f 2 11 12
f 2 12 13
f 2 13 14
f 3 15 4
f 3 16 15
f 4 15 17
f 5 18 19
f 5 19 6
f 6 19 20
f 6 20 21
f 6 21 22
f 6 22 23
f 6 23 24
f 6 24 7
f 7 24 8
f 8 24 9
f 9 24 25
f 9 25 26
f 9 26 27
f 9 27 28
f 9 28 10
f 10 28 12
f 10 12 11
f 12 28 13
f 13 28 27
f 13 27 26
f 13 26 29
f 13 29 30
f 13 30 14
f 14 31 16
f 14 30 31
f 15 16 32
f 15 32 33
f 15 33 34
f 15 34 17
f 16 31 35
f 16 35 32
f 18 36 19
f 19 36 48
f 19 48 59
f 19 59 58
f 19 58 64
f 19 64 63
f 19 63 62
f 19 62 61
f 19 61 60
f 19 60 49
f 19 49 37
f 19 37 38
f 19 38 39
f 19 39 20
f 20 39 21
f 21 39 40
f 21 40 41
f 21 41 22
f 22 41 23
f 23 41 42
f 23 42 24
f 24 42 25
f 25 43 44
f 25 44 29
f 25 29 26
f 25 42 43
f 29 44 43
f 29 43 57
f 29 57 53
f 29 53 52
f 29 52 39
f 29 39 38
f 29 38 51
f 29 51 45
f 29 45 30
f 30 45 46
f 30 46 31
f 31 47 35
f 31 46 47
f 32 35 33
f 33 36 34
f 33 35 36
f 35 47 48
f 35 48 36
f 37 49 50
f 37 50 38
f 38 50 51
f 39 52 40
f 40 52 53
f 40 53 54
f 40 54 41
f 41 54 55
f 41 55 42
f 42 55 43
f 43 55 56
f 43 56 57
f 45 51 50
f 45 50 46
f 46 58 59
f 46 59 47
f 46 50 58
f 47 59 48
f 49 60 50
f 50 60 61
f 50 61 62
f 50 62 63
f 50 63 64
f 50 64 58
f 53 57 54
f 54 57 55
f 55 57 56

