# https://github.com/mikedh/trimesh
v -0.03298034 0.04458782 -0.02077138
v -0.03228444 0.04458782 -0.01873031
v -0.03420810 0.04458782 -0.01925620
v -0.03384461 0.04458941 -0.02826751
v -0.02922627 0.04468361 -0.00865428
v -0.03109985 0.04458782 -0.00865428
v -0.03458282 0.04458941 -0.02078215
v -0.03482371 0.04458941 -0.02233613
v -0.03506978 0.04458941 -0.02465523
v -0.03506201 0.04458941 -0.02539881
v -0.03472701 0.04458941 -0.02687088
v -0.03394390 0.04458782 -0.01829278
v -0.03555847 0.05363728 -0.01054448
v -0.03644863 0.04997470 -0.03067068
v -0.03359509 0.04626264 -0.03067068
v -0.03308223 0.04731319 -0.03067068
v -0.02910367 0.04548350 -0.00865428
v -0.03537888 0.05687835 -0.00865428
v -0.03535816 0.05614711 -0.00886334
v -0.03544104 0.05541428 -0.00922759
v -0.03525023 0.05438767 -0.00951855
v -0.03249252 0.04458782 -0.01333775
v -0.03705129 0.04915565 -0.02439013
v -0.03757192 0.05006730 -0.02541605
v -0.03712382 0.04905986 -0.02541605
v -0.03757624 0.05006730 -0.02695494
v -0.03735262 0.04999546 -0.02844425
v -0.03723519 0.05046166 -0.02976329
v -0.03725505 0.05004176 -0.02387501
v -0.03566380 0.05481396 -0.01002505
v -0.03592628 0.05622215 -0.01001643
v -0.03597549 0.05468304 -0.01155747
v -0.03698222 0.05082409 -0.03067068
v -0.03513972 0.06089856 -0.03067068
v -0.02910021 0.04677834 -0.00865428
v -0.03560595 0.05949835 -0.00865428
v -0.03557401 0.05824183 -0.00870385
v -0.03760905 0.05160642 -0.02387501
v -0.03785167 0.05160642 -0.02541605
v -0.03789397 0.05160642 -0.02695494
v -0.03789743 0.05160642 -0.02849382
v -0.03750544 0.05153457 -0.03042497
v -0.03617235 0.05622215 -0.01155747
v -0.03595736 0.05776445 -0.01001643
v -0.03789052 0.05468304 -0.03067068
v -0.03489278 0.06089856 -0.02849167
v -0.02941794 0.04852660 -0.00865428
v -0.03700294 0.06068142 -0.03067068
v -0.03616112 0.06089856 -0.02077353
v -0.03381094 0.05977137 -0.00865428
v -0.03579849 0.05953826 -0.00990004
v -0.03781022 0.05314233 -0.02541605
v -0.03787239 0.05622375 -0.03035169
v -0.03792074 0.05314233 -0.03035169
v -0.03768762 0.05468304 -0.02541605
v -0.03780245 0.05776286 -0.03035169
v -0.03751321 0.05930197 -0.03067068
v -0.03476414 0.06089856 -0.02695494
v -0.02988418 0.05014394 -0.00865428
v -0.02962257 0.04928338 -0.00865428
v -0.03457160 0.06089856 -0.02077353
v -0.03463290 0.06089856 -0.02394182
v -0.03779382 0.05622375 -0.02849382
v -0.03467952 0.06089856 -0.02544622
f 1 2 6
f 1 6 22
f 1 22 12
f 1 12 3
f 1 3 4
f 1 4 2
f 2 5 6
f 2 4 5
f 3 7 8
f 3 8 9
f 3 9 10
f 3 10 11
f 3 11 4
f 3 12 13
f 3 13 7
f 4 11 14
f 4 14 15
f 4 15 16
f 4 16 5
f 5 17 35
f 5 35 47
f 5 47 60
f 5 60 59
f 5 59 50
f 5 50 36
f 5 36 18
f 5 18 6
f 5 16 17
f 6 18 19
f 6 19 20
f 6 20 21
f 6 21 13
f 6 13 22
f 7 13 23
f 7 23 8
f 8 23 24
f 8 24 9
f 9 24 25
f 9 25 26
f 9 26 10
f 10 26 27
f 10 27 11
f 11 27 28
f 11 28 14
f 12 22 13
f 13 29 23
f 13 21 20
f 13 20 30
f 13 30 31
f 13 31 32
f 13 32 24
f 13 24 29
f 14 33 45
f 14 45 57
f 14 57 48
f 14 48 34
f 14 34 16
f 14 16 15
f 14 28 33
f 16 34 35
f 16 35 17
f 18 36 37
f 18 37 31
f 18 31 20
f 18 20 19
f 20 31 30
f 23 29 24
f 24 32 38
f 24 38 39
f 24 39 40
f 24 40 26
f 24 26 25
f 26 40 41
f 26 41 27
f 27 41 42
f 27 42 28
f 28 42 33
f 31 43 38
f 31 38 32
f 31 37 36
f 31 36 44
f 31 44 43
f 33 42 45
f 34 46 47
f 34 47 35
f 34 48 49
f 34 49 61
f 34 61 62
f 34 62 64
f 34 64 58
f 34 58 46
f 36 50 49
f 36 49 51
f 36 51 44
f 38 43 39
f 39 52 53
f 39 53 40
f 39 43 52
f 40 53 54
f 40 54 41
f 41 54 42
f 42 54 45
f 43 44 52
f 44 51 55
f 44 55 52
f 45 54 53
f 45 53 56
f 45 56 57
f 46 58 59
f 46 59 60
f 46 60 47
f 48 57 49
f 49 57 51
f 49 50 61
f 50 59 62
f 50 62 61
f 51 57 56
f 51 56 55
f 52 55 63
f 52 63 56
f 52 56 53
f 55 56 63
f 58 64 59
f 59 64 62

