# https://github.com/mikedh/trimesh
v 0.00145212 -0.04384033 0.00324215
v 0.00841850 -0.04384033 0.00227104
v 0.00892946 -0.04384033 0.00391074
v 0.00145212 0.02747255 0.00462204
v 0.00145212 0.08146090 0.00181320
v 0.02979260 -0.04336551 0.00073036
v 0.02251677 -0.04384033 0.00181320
v 0.01465801 -0.04384033 0.00371680
v 0.02466138 -0.03964394 0.00368818
v 0.02697151 -0.03617904 0.00384534
v 0.03159177 -0.03309912 0.00388031
v 0.04080350 -0.01769955 0.00404610
v 0.02093350 0.01592287 0.00463975
v 0.00522318 0.02363549 0.00464202
v 0.00166802 0.04683752 0.00467745
v 0.00145212 0.07459526 0.00388031
v 0.00210702 0.07898413 0.00368228
v 0.00241648 0.08626044 0.00191540
v 0.00753331 0.08726141 0.00188996
v 0.01310353 0.08622194 0.00184318
v 0.03896115 -0.03325312 0.00013535
v 0.02536665 -0.04323718 0.00305274
v 0.03476550 -0.03877130 0.00108783
v 0.02833887 -0.04092724 0.00310634
v 0.02161719 -0.04345534 0.00345790
v 0.02851159 -0.03925895 0.00338477
v 0.03925622 -0.02693929 0.00375404
v 0.04800017 -0.01272035 0.00379129
v 0.06622932 0.04176849 0.00374178
v 0.04773389 0.03386337 0.00437449
v 0.04045806 0.03983071 0.00462658
v 0.03852216 0.04332128 0.00467200
v 0.02311409 0.05235570 0.00477556
v 0.00886469 0.06122329 0.00471515
v 0.00229414 0.05383149 0.00463521
v 0.00543188 0.06069714 0.00463657
v 0.01190888 0.06816594 0.00462794
v 0.02089032 0.07494175 0.00462703
v 0.00595004 0.08275704 0.00362459
v 0.01052712 0.08380935 0.00359416
v 0.02248798 0.08106308 0.00260125
v 0.06204087 0.05707824 0.00181320
v 0.01851542 0.08310353 0.00261942
v 0.07405930 0.03662246 0.00203304
v 0.05321056 -0.00912711 0.00183182
v 0.04866946 -0.01698090 0.00199080
v 0.07495888 0.04155033 0.00191676
v 0.04166710 -0.02629765 0.00314585
v 0.03515412 -0.03476741 0.00311224
v 0.04078191 -0.02684946 0.00333571
v 0.04080350 -0.02538650 0.00366138
v 0.04936034 -0.01396515 0.00313768
v 0.07100072 0.04003604 0.00321762
v 0.06642364 0.04582371 0.00369681
v 0.06333627 0.04909612 0.00386805
v 0.03894676 0.04664503 0.00465065
v 0.02543142 0.05467847 0.00474695
v 0.01464362 0.06391822 0.00472378
v 0.05991785 0.05463997 0.00366774
v 0.06763267 0.05099541 0.00250860
v 0.06982766 0.04779999 0.00272843
v 0.07261277 0.04411693 0.00255175
f 1 2 7
f 1 7 8
f 1 8 3
f 1 3 4
f 1 4 16
f 1 16 5
f 1 5 2
f 2 6 7
f 2 5 6
f 3 8 9
f 3 9 10
f 3 10 11
f 3 11 12
f 3 12 13
f 3 13 14
f 3 14 4
f 4 14 15
f 4 15 16
f 5 16 17
f 5 17 18
f 5 18 19
f 5 19 20
f 5 20 21
f 5 21 6
f 6 22 7
f 6 21 23
f 6 23 24
f 6 24 22
f 7 25 8
f 7 22 25
f 8 25 9
f 9 26 11
f 9 11 10
f 9 25 26
f 11 26 27
f 11 27 12
f 12 27 28
f 12 28 29
f 12 29 30
f 12 30 31
f 12 31 13
f 13 31 32
f 13 32 33
f 13 33 14
f 14 33 15
f 15 33 34
f 15 34 35
f 15 35 16
f 16 36 37
f 16 37 17
f 16 35 36
f 17 37 38
f 17 38 39
f 17 39 18
f 18 40 19
f 18 39 40
f 19 40 20
f 20 41 42
f 20 42 21
f 20 40 43
f 20 43 41
f 21 44 45
f 21 45 46
f 21 46 23
f 21 42 47
f 21 47 44
f 22 24 26
f 22 26 25
f 23 46 48
f 23 48 49
f 23 49 24
f 24 49 26
f 26 49 27
f 27 50 51
f 27 51 28
f 27 49 50
f 28 51 52
f 28 52 44
f 28 44 53
f 28 53 29
f 29 53 54
f 29 54 55
f 29 55 30
f 30 55 31
f 31 55 56
f 31 56 32
f 32 56 57
f 32 57 33
f 33 57 38
f 33 38 58
f 33 58 34
f 34 58 38
f 34 38 37
f 34 37 36
f 34 36 35
f 38 41 43
f 38 43 40
f 38 40 39
f 38 57 56
f 38 56 55
f 38 55 59
f 38 59 41
f 41 59 42
f 42 59 60
f 42 60 47
f 44 52 45
f 44 47 53
f 45 52 46
f 46 52 48
f 47 60 61
f 47 61 62
f 47 62 53
f 48 52 51
f 48 51 50
f 48 50 49
f 53 62 54
f 54 62 61
f 54 61 55
f 55 61 59
f 59 61 60

