# https://github.com/mikedh/trimesh
v -0.01783522 -0.04384458 0.00444534
v -0.01781147 -0.04386254 0.00615327
v -0.01781147 -0.05795256 0.00556472
v -0.01798217 -0.04384458 0.00447137
v -0.02852273 -0.04384458 0.01025390
v -0.02266835 -0.05038687 0.01600700
v -0.02197069 -0.05159810 0.01600700
v -0.02160702 -0.05303997 0.01600700
v -0.01781147 -0.04466220 0.00635587
v -0.02849601 -0.04441498 0.01113446
v -0.02404288 -0.04983167 0.01600700
v -0.01781147 -0.05795256 0.00765408
v -0.01864866 -0.05795256 0.00603782
v -0.03297437 -0.04385149 0.00825622
v -0.02541444 -0.04384458 0.00592351
v -0.02394194 -0.04384458 0.00560773
v -0.03003530 -0.04384458 0.01073719
v -0.02157733 -0.05327476 0.01600700
v -0.01781147 -0.04553920 0.00656979
v -0.03070475 -0.04617451 0.01392556
v -0.03056968 -0.04767162 0.01545467
v -0.03157608 -0.04762743 0.01550220
v -0.03157608 -0.04852514 0.01590514
v -0.03294023 -0.04852514 0.01598889
v -0.02492014 -0.05017694 0.01600700
v -0.01781147 -0.05776196 0.00770614
v -0.02159069 -0.05624966 0.01600700
v -0.02161741 -0.05636843 0.01600700
v -0.02039873 -0.05795256 0.01093979
v -0.01941905 -0.05795256 0.00675088
v -0.03297437 -0.04396060 0.00835582
v -0.03297437 -0.04384458 0.00862746
v -0.02634366 -0.04384458 0.00621439
v -0.02020131 -0.05795256 0.00752166
v -0.03157608 -0.04384458 0.01077341
v -0.02143483 -0.05468210 0.01600700
v -0.01781147 -0.05092412 0.00775142
v -0.03131483 -0.04617451 0.01392556
v -0.03294023 -0.04753904 0.01537883
v -0.03294023 -0.04765367 0.01550334
v -0.03294023 -0.04842295 0.01594362
v -0.03294023 -0.04954993 0.01588703
v -0.02336749 -0.05636843 0.01600700
v -0.02512202 -0.05164506 0.01600700
v -0.03297437 -0.04413047 0.01093979
v -0.03297437 -0.04652393 0.01093979
v -0.01781147 -0.05622203 0.00806267
v -0.02233436 -0.05795256 0.01093979
v -0.03297437 -0.04480445 0.00912659
v -0.03297437 -0.04384458 0.01064099
v -0.02098209 -0.05795256 0.00858445
v -0.03297437 -0.04631538 0.01067947
v -0.03297437 -0.04558616 0.00992454
v -0.01781147 -0.05468210 0.00818717
v -0.01781147 -0.05457162 0.00817925
v -0.01781147 -0.05286457 0.00802306
v -0.01781147 -0.05160086 0.00785894
v -0.03234202 -0.04621732 0.01386218
v -0.03294023 -0.04954993 0.01503476
v -0.03294023 -0.04705979 0.01159399
v -0.03294023 -0.04830002 0.01323062
v -0.02189053 -0.05795256 0.01001395
v -0.02104592 -0.05795256 0.00868405
v -0.02185342 -0.05795256 0.00995170
f 1 2 3
f 1 3 4
f 1 4 16
f 1 16 15
f 1 15 33
f 1 33 32
f 1 32 50
f 1 50 35
f 1 35 17
f 1 17 5
f 1 5 2
f 2 6 7
f 2 7 8
f 2 8 9
f 2 9 19
f 2 19 37
f 2 37 57
f 2 57 56
f 2 56 55
f 2 55 54
f 2 54 47
f 2 47 26
f 2 26 12
f 2 12 3
f 2 5 10
f 2 10 11
f 2 11 6
f 3 12 29
f 3 29 48
f 3 48 62
f 3 62 64
f 3 64 63
f 3 63 51
f 3 51 34
f 3 34 30
f 3 30 13
f 3 13 14
f 3 14 15
f 3 15 16
f 3 16 4
f 5 17 10
f 6 11 25
f 6 25 44
f 6 44 43
f 6 43 28
f 6 28 27
f 6 27 36
f 6 36 18
f 6 18 8
f 6 8 7
f 8 18 9
f 9 18 19
f 10 17 20
f 10 20 11
f 11 20 21
f 11 21 22
f 11 22 23
f 11 23 24
f 11 24 25
f 12 26 27
f 12 27 28
f 12 28 29
f 13 30 14
f 14 31 49
f 14 49 53
f 14 53 52
f 14 52 46
f 14 46 45
f 14 45 50
f 14 50 32
f 14 32 33
f 14 33 15
f 14 30 34
f 14 34 31
f 17 35 20
f 18 36 37
f 18 37 19
f 20 35 38
f 20 38 22
f 20 22 21
f 22 38 39
f 22 39 40
f 22 40 41
f 22 41 23
f 23 41 24
f 24 42 43
f 24 43 44
f 24 44 25
f 24 41 45
f 24 45 46
f 24 46 42
f 26 47 27
f 27 47 36
f 28 43 48
f 28 48 29
f 31 34 49
f 34 51 52
f 34 52 53
f 34 53 49
f 35 50 38
f 36 47 54
f 36 54 55
f 36 55 56
f 36 56 57
f 36 57 37
f 38 50 58
f 38 58 39
f 39 50 40
f 39 58 50
f 40 50 45
f 40 45 41
f 42 48 43
f 42 46 59
f 42 59 48
f 46 52 51
f 46 51 60
f 46 60 61
f 46 61 59
f 48 59 62
f 51 63 59
f 51 59 61
f 51 61 60
f 59 63 64
f 59 64 62

