# https://github.com/mikedh/trimesh
v -0.05826372 -0.00172941 -0.00233056
v -0.05826372 0.00235068 -0.00233056
v -0.05826372 0.00388752 -0.00735581
v -0.05533477 0.01000766 -0.02072144
v -0.05530337 0.01000766 -0.02072144
v -0.05158646 0.01319467 -0.02565579
v -0.05049084 0.01319467 -0.02552227
v -0.05180621 0.00532462 0.00074595
v -0.05826372 0.00307603 -0.00308903
v -0.05180621 0.00956792 0.00074595
v -0.05104650 0.01112742 0.00074595
v -0.04941721 0.01406963 0.00074595
v -0.04657929 0.01915615 0.00074595
v -0.04492175 0.02199408 0.00074595
v -0.05826372 0.00580063 -0.00735581
v -0.05533477 0.01171677 -0.02072144
v -0.05189411 0.01319467 -0.02553932
v -0.05084559 0.01377949 -0.02618984
v -0.05081419 0.01377949 -0.02618984
v -0.03355439 0.04458421 -0.02827210
v -0.03358578 0.04439834 -0.02818403
v -0.03523705 0.03981050 -0.02645971
v -0.02619904 0.04394046 0.00074879
v -0.04433470 0.02290983 0.00074879
v -0.04208384 0.02290983 0.00074879
v -0.05826372 0.00380592 -0.00389296
v -0.04320770 0.02475494 0.00074879
v -0.05826372 0.00563289 -0.00699220
v -0.04145598 0.02753848 0.00074879
v -0.03653985 0.03477838 0.00074879
v -0.03458722 0.04458421 -0.02079246
v -0.03482580 0.04458421 -0.02233213
v -0.04630304 0.02780595 -0.02449677
v -0.05305250 0.01319467 -0.02387181
v -0.04630304 0.02780595 -0.02475527
v -0.05084559 0.01387922 -0.02618984
v -0.04654476 0.02695819 -0.02490867
v -0.03414144 0.04458421 -0.02827210
v -0.02619904 0.04458421 0.00043915
v -0.02619904 0.04458421 0.00074879
v -0.05826372 0.00490301 -0.00557751
v -0.04194571 0.02677232 0.00074879
v -0.03393110 0.03856833 0.00074879
v -0.03334406 0.03933902 0.00074879
v -0.03421050 0.04458421 -0.01924994
v -0.03507380 0.04458421 -0.02465301
v -0.03506439 0.04458421 -0.02540012
v -0.03472848 0.04458421 -0.02687162
v -0.02802297 0.04458421 0.00074879
v -0.03256552 0.04028651 0.00074879
v -0.02938228 0.04458421 -0.00072839
v -0.02880779 0.04458421 0.00074595
v -0.02896789 0.04437567 0.00074879
v -0.02963656 0.04362312 0.00074879
v -0.02921590 0.04458421 -0.00016024
f 1 2 9
f 1 9 26
f 1 26 41
f 1 41 28
f 1 28 15
f 1 15 3
f 1 3 4
f 1 4 5
f 1 5 6
f 1 6 7
f 1 7 8
f 1 8 10
f 1 10 2
f 2 10 11
f 2 11 12
f 2 12 13
f 2 13 14
f 2 14 9
f 3 15 16
f 3 16 4
f 4 16 17
f 4 17 6
f 4 6 5
f 6 17 18
f 6 18 19
f 6 19 7
f 7 19 20
f 7 20 21
f 7 21 22
f 7 22 23
f 7 23 8
f 8 24 10
f 8 23 25
f 8 25 24
f 9 14 26
f 10 24 11
f 11 24 12
f 12 24 13
f 13 24 14
f 14 24 27
f 14 27 26
f 15 28 29
f 15 29 30
f 15 30 31
f 15 31 32
f 15 32 33
f 15 33 16
f 16 34 17
f 16 33 35
f 16 35 34
f 17 36 18
f 17 34 35
f 17 35 37
f 17 37 36
f 18 36 38
f 18 38 20
f 18 20 19
f 20 38 48
f 20 48 47
f 20 47 46
f 20 46 32
f 20 32 31
f 20 31 45
f 20 45 51
f 20 51 55
f 20 55 52
f 20 52 49
f 20 49 40
f 20 40 39
f 20 39 23
f 20 23 21
f 21 23 22
f 23 39 40
f 23 40 49
f 23 49 53
f 23 53 54
f 23 54 50
f 23 50 44
f 23 44 43
f 23 43 30
f 23 30 29
f 23 29 42
f 23 42 27
f 23 27 24
f 23 24 25
f 26 27 42
f 26 42 41
f 28 41 29
f 29 41 42
f 30 43 31
f 31 43 44
f 31 44 45
f 32 46 33
f 33 46 35
f 35 46 47
f 35 47 48
f 35 48 38
f 35 38 37
f 36 37 38
f 44 50 45
f 45 50 51
f 49 52 53
f 50 54 52
f 50 52 55
f 50 55 51
f 52 54 53

