# https://github.com/mikedh/trimesh
v -0.02619590 0.04785543 0.00074879
v -0.02692553 0.04697118 0.00074879
v -0.02851209 0.04472007 0.00074786
v -0.02619590 0.04459183 0.00059449
v -0.02619590 0.07084914 -0.00233359
v -0.02929707 0.04459183 -0.00044451
v -0.02695966 0.07008640 -0.00241588
v -0.02849364 0.06994802 -0.00289470
v -0.02892533 0.06874653 -0.00286290
v -0.03040304 0.06700504 -0.00330992
v -0.03277088 0.06392031 -0.00433489
v -0.03393589 0.06238470 -0.00527007
v -0.03429010 0.06084908 -0.00570868
v -0.03109762 0.04459183 -0.00864891
v -0.02916977 0.04501707 -0.00863301
v -0.02619590 0.04703531 -0.00175751
v -0.02619590 0.07907058 -0.00693003
v -0.02620881 0.07864196 -0.00573954
v -0.02626139 0.07760247 -0.00453876
v -0.02637946 0.07450424 -0.00317151
v -0.02642282 0.07283025 -0.00270953
v -0.03542929 0.06007959 -0.00769689
v -0.03528631 0.05647849 -0.00864891
v -0.02752972 0.07150726 -0.00284607
v -0.02900374 0.07036989 -0.00322295
v -0.03018904 0.06854741 -0.00346329
v -0.03248678 0.06591492 -0.00450790
v -0.03383535 0.06392031 -0.00540848
v -0.03391468 0.05977584 -0.00880415
v -0.03561931 0.05950247 -0.00872653
v -0.03527801 0.06201008 -0.00880415
v -0.02619590 0.05161178 -0.00372327
v -0.02619590 0.04997492 -0.00332769
v -0.02619590 0.04853042 -0.00258889
v -0.02619590 0.07558086 -0.00880508
v -0.02623188 0.07866558 -0.00845719
v -0.02778522 0.07708947 -0.00782127
v -0.02778984 0.07709285 -0.00649237
v -0.02748267 0.07664735 -0.00502786
v -0.02779353 0.07561798 -0.00454998
v -0.02658147 0.07623223 -0.00399822
v -0.02808778 0.07202026 -0.00326410
v -0.03555658 0.05831448 -0.00864891
v -0.03453362 0.06392031 -0.00692910
v -0.03551876 0.06089634 -0.00873401
v -0.02970201 0.07162538 -0.00421986
v -0.03123414 0.06854741 -0.00423202
v -0.03368961 0.06527031 -0.00572364
v -0.03222112 0.06741679 -0.00481838
v -0.03187153 0.06634355 -0.00880508
v -0.03476791 0.06376169 -0.00863768
v -0.03402998 0.06596218 -0.00849086
v -0.03270908 0.06840228 -0.00863768
v -0.03102567 0.07121702 -0.00880508
v -0.03410009 0.06550993 -0.00691881
v -0.02691907 0.07764297 -0.00880508
v -0.02774833 0.07648198 -0.00880508
v -0.03110131 0.07134189 -0.00693003
v -0.03097402 0.07113264 -0.00581809
v -0.02943174 0.07264800 -0.00445927
v -0.03098878 0.07003915 -0.00475385
v -0.03253936 0.06814579 -0.00584521
v -0.03364718 0.06655617 -0.00670278
v -0.03271093 0.06843604 -0.00693003
f 1 2 3
f 1 3 4
f 1 4 16
f 1 16 34
f 1 34 33
f 1 33 32
f 1 32 35
f 1 35 17
f 1 17 5
f 1 5 2
f 2 5 3
f 3 6 4
f 3 5 7
f 3 7 8
f 3 8 9
f 3 9 10
f 3 10 11
f 3 11 12
f 3 12 13
f 3 13 6
f 4 6 14
f 4 14 15
f 4 15 16
f 5 17 18
f 5 18 19
f 5 19 20
f 5 20 21
f 5 21 7
f 6 13 22
f 6 22 23
f 6 23 14
f 7 21 8
f 8 21 24
f 8 24 25
f 8 25 9
f 9 25 26
f 9 26 10
f 10 27 11
f 10 26 27
f 11 27 28
f 11 28 12
f 12 28 22
f 12 22 13
f 14 29 15
f 14 23 30
f 14 30 31
f 14 31 29
f 15 32 33
f 15 33 34
f 15 34 16
f 15 29 35
f 15 35 32
f 17 35 36
f 17 36 37
f 17 37 38
f 17 38 18
f 18 38 39
f 18 39 19
f 19 39 40
f 19 40 41
f 19 41 20
f 20 41 42
f 20 42 24
f 20 24 21
f 22 30 43
f 22 43 23
f 22 28 44
f 22 44 45
f 22 45 30
f 23 43 30
f 24 42 25
f 25 42 46
f 25 46 47
f 25 47 26
f 26 47 27
f 27 48 28
f 27 47 49
f 27 49 48
f 28 48 44
f 29 50 35
f 29 31 50
f 30 45 31
f 31 51 52
f 31 52 53
f 31 53 54
f 31 54 50
f 31 45 44
f 31 44 55
f 31 55 51
f 35 56 36
f 35 50 54
f 35 54 57
f 35 57 56
f 36 56 37
f 37 56 57
f 37 57 54
f 37 54 53
f 37 53 58
f 37 58 38
f 38 58 59
f 38 59 39
f 39 59 60
f 39 60 40
f 40 60 46
f 40 46 42
f 40 42 41
f 44 48 55
f 46 60 47
f 47 60 61
f 47 61 49
f 48 49 62
f 48 62 63
f 48 63 55
f 49 61 62
f 51 55 52
f 52 55 63
f 52 63 64
f 52 64 53
f 53 64 58
f 58 64 59
f 59 64 63
f 59 63 62
f 59 62 61
f 59 61 60

