# https://github.com/mikedh/trimesh
v 0.05135814 0.07607115 -0.03003634
v 0.05088088 0.07607115 -0.03112273
v 0.05096533 0.07779094 -0.03093683
v 0.05086713 0.07862335 -0.03076544
v 0.05098301 0.07776117 -0.03012058
v 0.05090838 0.07722645 -0.02909519
v 0.05102229 0.07616275 -0.02874952
v 0.04629884 0.07035418 -0.01504764
v 0.04629884 0.07035418 -0.01896039
v 0.03928340 0.07834512 -0.03426572
v 0.04037342 0.07844015 -0.03415533
v 0.04195249 0.07970767 -0.03426572
v 0.04937056 0.08164729 -0.03240084
v 0.04940788 0.08181217 -0.03157588
v 0.04936663 0.08173774 -0.03074221
v 0.05068055 0.07825351 -0.02966163
v 0.04339996 0.07035418 -0.00471530
v 0.04511454 0.07035418 -0.01757480
v 0.03650432 0.07667800 -0.03013220
v 0.03651610 0.07693906 -0.03098040
v 0.03823461 0.07839435 -0.03412338
v 0.03773182 0.07937333 -0.03429186
v 0.03939141 0.07943630 -0.03439062
v 0.03650432 0.07727111 -0.03161945
v 0.04195249 0.08033970 -0.03426572
v 0.04544057 0.08203773 -0.03303118
v 0.04668772 0.08198735 -0.03276103
v 0.04844354 0.08193125 -0.03170079
v 0.04852014 0.08190377 -0.03057373
v 0.03433998 0.07607115 -0.00471530
v 0.04229226 0.07107438 -0.00471530
v 0.03994134 0.07049845 -0.00471530
v 0.04115903 0.07035418 -0.01001654
v 0.04393614 0.07035418 -0.01615727
v 0.04325070 0.07035418 -0.01524516
v 0.04277934 0.07035418 -0.01457125
v 0.03650432 0.07627725 -0.02849390
v 0.03382148 0.07607115 -0.01991606
v 0.03278252 0.07607115 -0.01674694
v 0.03650432 0.07805200 -0.03288013
v 0.03689123 0.08013246 -0.03383290
v 0.03774557 0.08029734 -0.03421343
v 0.04112760 0.08033970 -0.03426572
v 0.04436233 0.08182362 -0.03284527
v 0.04436233 0.08182362 -0.03211617
v 0.04552699 0.08200682 -0.03159041
v 0.04711391 0.08205147 -0.03170079
v 0.04698036 0.08189232 -0.03056211
v 0.03129772 0.07597612 -0.00471530
v 0.03548107 0.07329911 -0.00471530
v 0.03338743 0.07517118 -0.01155608
v 0.03543982 0.07395290 -0.01219804
v 0.03629221 0.07355559 -0.01309852
v 0.04146541 0.07035418 -0.01134984
v 0.04210764 0.07035418 -0.01320310
v 0.04182875 0.07035418 -0.01246819
v 0.03389415 0.07548377 -0.01694446
v 0.03374292 0.07539675 -0.01591907
v 0.03360544 0.07531545 -0.01463516
v 0.03254094 0.07599787 -0.01489949
v 0.03133504 0.07598528 -0.00539503
v 0.03650432 0.07942256 -0.03319094
v 0.03223456 0.07540934 -0.00539503
v 0.03230133 0.07544942 -0.00648142
f 1 2 3
f 1 3 4
f 1 4 5
f 1 5 6
f 1 6 7
f 1 7 8
f 1 8 9
f 1 9 2
f 2 10 11
f 2 11 12
f 2 12 13
f 2 13 3
f 2 9 10
f 3 13 4
f 4 13 14
f 4 14 15
f 4 15 16
f 4 16 6
f 4 6 5
f 6 16 17
f 6 17 7
f 7 17 8
f 8 17 33
f 8 33 54
f 8 54 56
f 8 56 55
f 8 55 36
f 8 36 35
f 8 35 34
f 8 34 18
f 8 18 9
f 9 18 19
f 9 19 20
f 9 20 10
f 10 21 22
f 10 22 23
f 10 23 12
f 10 12 11
f 10 20 24
f 10 24 21
f 12 25 13
f 12 23 25
f 13 25 26
f 13 26 27
f 13 27 14
f 14 28 29
f 14 29 15
f 14 27 28
f 15 29 30
f 15 30 31
f 15 31 17
f 15 17 16
f 17 31 30
f 17 30 49
f 17 49 50
f 17 50 32
f 17 32 33
f 18 34 19
f 19 34 35
f 19 35 36
f 19 36 37
f 19 37 38
f 19 38 39
f 19 39 20
f 20 39 24
f 21 40 22
f 21 24 40
f 22 41 42
f 22 42 23
f 22 40 41
f 23 42 43
f 23 43 25
f 24 39 40
f 25 43 26
f 26 44 45
f 26 45 46
f 26 46 47
f 26 47 27
f 26 43 42
f 26 42 44
f 27 47 28
f 28 47 29
f 29 47 48
f 29 48 30
f 30 48 49
f 32 50 51
f 32 51 52
f 32 52 33
f 33 52 53
f 33 53 54
f 36 55 37
f 37 55 56
f 37 56 38
f 38 57 39
f 38 56 57
f 39 57 58
f 39 58 59
f 39 59 60
f 39 60 61
f 39 61 41
f 39 41 62
f 39 62 40
f 40 62 41
f 41 45 44
f 41 44 42
f 41 61 49
f 41 49 45
f 45 49 46
f 46 48 47
f 46 49 48
f 49 61 63
f 49 63 50
f 50 63 64
f 50 64 51
f 51 64 60
f 51 60 52
f 52 60 59
f 52 59 53
f 53 59 58
f 53 58 54
f 54 58 57
f 54 57 56
f 60 64 61
f 61 64 63

