# https://github.com/mikedh/trimesh
v -0.01463124 0.08583964 -0.04052970
v -0.01647660 0.08580717 -0.03917260
v -0.01567320 0.08627582 -0.04036436
v -0.01463124 0.08672066 -0.04052970
v -0.00998278 0.08554958 -0.04042329
v -0.00733579 0.08357972 -0.04034799
v -0.00686568 0.08241188 -0.04031689
v -0.00805323 0.08241621 -0.04028415
v -0.00730246 0.08159255 -0.03992072
v -0.01647660 0.08566105 -0.03762723
v -0.01647660 0.08695986 -0.03900235
v -0.01551708 0.08786036 -0.03863074
v -0.01463124 0.08748804 -0.03938050
v -0.01047920 0.08642843 -0.04028415
v -0.00884610 0.08507118 -0.04034308
v -0.00782169 0.08460578 -0.03988307
v 0.00144366 0.08869376 -0.02706833
v -0.00630612 0.08292166 -0.03985197
v -0.00604124 0.08172135 -0.04018920
v -0.00581671 0.08149731 -0.03927900
v -0.00424150 0.08162610 -0.03382930
v -0.01647660 0.08813203 -0.02380571
v -0.01647660 0.08752268 -0.03773855
v -0.01632399 0.08984320 -0.03158001
v -0.01309287 0.09152515 -0.02850074
v -0.01309287 0.09112685 -0.02978581
v -0.01166149 0.09121452 -0.03018853
v -0.01209652 0.08939187 -0.03553019
v -0.01080021 0.08933775 -0.03542378
v -0.00772521 0.09097208 -0.03100868
v -0.00694111 0.09039736 -0.03154399
v -0.00607983 0.08941676 -0.03240671
v 0.00144366 0.08942217 -0.02630547
v -0.00945128 0.08609615 -0.03982741
v 0.00144366 0.08774347 -0.02785247
v 0.00144366 0.08683972 -0.02751524
v -0.00305044 0.08161095 -0.03386204
v -0.00155065 0.08317168 -0.02923904
v -0.01155975 0.09084761 -0.02380571
v -0.01475754 0.09125132 -0.02380571
v -0.01628189 0.09032376 -0.02381226
v -0.01642748 0.09032051 -0.02527741
v 0.00127351 0.08586670 -0.02620725
v 0.00114019 0.08809415 -0.02380735
v -0.01632399 0.09014950 -0.03004119
v -0.01434883 0.09111711 -0.02850074
v -0.01309287 0.09174811 -0.02696192
v -0.01110017 0.09249709 -0.02514154
v -0.01071777 0.09239427 -0.02616796
v -0.01155624 0.09173080 -0.02855804
v -0.01001085 0.09177409 -0.02849910
v -0.00942848 0.09244946 -0.02628746
v -0.00895837 0.09253172 -0.02541819
v 0.00144366 0.08996442 -0.02540674
v 0.00144366 0.09017764 -0.02419533
v -0.00973019 0.09245704 -0.02387774
v -0.01551533 0.09095368 -0.02427554
v -0.01309287 0.09183145 -0.02384336
v -0.01463124 0.09138012 -0.02542147
v -0.01551182 0.09095151 -0.02542147
v -0.01473123 0.09119721 -0.02689480
v -0.01133522 0.09232933 -0.02404472
v -0.00893381 0.09254146 -0.02426408
v -0.01012662 0.09255445 -0.02556062
f 1 2 3
f 1 3 4
f 1 4 5
f 1 5 6
f 1 6 7
f 1 7 8
f 1 8 9
f 1 9 2
f 2 10 22
f 2 22 23
f 2 23 11
f 2 11 3
f 2 9 10
f 3 12 4
f 3 11 12
f 4 12 13
f 4 13 14
f 4 14 5
f 5 14 15
f 5 15 6
f 6 15 16
f 6 16 17
f 6 17 18
f 6 18 19
f 6 19 7
f 7 19 8
f 8 19 9
f 9 19 20
f 9 20 21
f 9 21 22
f 9 22 10
f 11 23 12
f 12 23 24
f 12 24 25
f 12 25 26
f 12 26 27
f 12 27 28
f 12 28 13
f 13 28 29
f 13 29 14
f 14 30 31
f 14 31 32
f 14 32 33
f 14 33 34
f 14 34 15
f 14 29 30
f 15 34 17
f 15 17 16
f 17 33 54
f 17 54 55
f 17 55 36
f 17 36 35
f 17 35 18
f 17 34 33
f 18 35 19
f 19 35 36
f 19 36 37
f 19 37 20
f 20 37 21
f 21 37 38
f 21 38 22
f 22 39 40
f 22 40 41
f 22 41 42
f 22 42 23
f 22 38 43
f 22 43 44
f 22 44 39
f 23 42 45
f 23 45 24
f 24 45 46
f 24 46 25
f 25 46 47
f 25 47 48
f 25 48 49
f 25 49 50
f 25 50 27
f 25 27 26
f 27 50 51
f 27 51 30
f 27 30 28
f 28 30 29
f 30 51 52
f 30 52 53
f 30 53 54
f 30 54 31
f 31 54 33
f 31 33 32
f 36 43 37
f 36 55 43
f 37 43 38
f 39 44 56
f 39 56 40
f 40 57 41
f 40 56 58
f 40 58 59
f 40 59 57
f 41 57 42
f 42 57 60
f 42 60 45
f 43 55 44
f 44 55 56
f 45 60 59
f 45 59 61
f 45 61 46
f 46 61 47
f 47 61 59
f 47 59 48
f 48 62 56
f 48 56 63
f 48 63 64
f 48 64 49
f 48 59 58
f 48 58 62
f 49 64 52
f 49 52 50
f 50 52 51
f 52 64 53
f 53 64 63
f 53 63 55
f 53 55 54
f 55 63 56
f 56 62 58
f 57 59 60

