# https://github.com/mikedh/trimesh
v -0.07971733 -0.03634081 -0.03322792
v -0.08095196 -0.03583957 -0.03322792
v -0.07971733 -0.03578834 -0.03450087
v -0.07971733 -0.03419679 -0.03322792
v -0.08416184 -0.03528100 -0.02398300
v -0.08416184 -0.03553101 -0.02542150
v -0.08240146 -0.03498220 -0.03322792
v -0.08148342 -0.03533588 -0.03378082
v -0.08416184 -0.03527124 -0.02696125
v -0.08781691 -0.03235644 -0.03123011
v -0.07971733 -0.03495659 -0.03619491
v -0.08555681 -0.02388158 -0.02398300
v -0.08416184 -0.03224424 -0.02398300
v -0.07971733 -0.03055878 -0.03772984
v -0.07978732 -0.02877332 -0.03962801
v -0.08439135 -0.03503099 -0.02398300
v -0.08450936 -0.03517124 -0.02542150
v -0.08781691 -0.03235644 -0.03078490
v -0.08802445 -0.03113564 -0.03427746
v -0.08803096 -0.03142590 -0.03311702
v -0.07971733 -0.03421875 -0.03730070
v -0.08714466 -0.02388158 -0.02398300
v -0.08152574 -0.02609268 -0.03992695
v -0.08406662 -0.02388402 -0.03773788
v -0.08416184 -0.02388158 -0.03745179
v -0.07971733 -0.03008071 -0.03918119
v -0.07978732 -0.02877332 -0.04036413
v -0.08498222 -0.03425899 -0.02398300
v -0.08788446 -0.03157835 -0.03065793
v -0.08631126 -0.03242230 -0.02450215
v -0.08653507 -0.03165397 -0.02398300
v -0.08655949 -0.03159786 -0.02398300
v -0.08706409 -0.03014169 -0.02398300
v -0.08782993 -0.02788302 -0.02455519
v -0.08802445 -0.03058683 -0.03427746
v -0.08570656 -0.02388158 -0.04037377
v -0.08511569 -0.02541947 -0.04034323
v -0.08479259 -0.02625366 -0.04015036
v -0.08161445 -0.02923676 -0.04002018
v -0.08803096 -0.03057220 -0.03311702
v -0.08058735 -0.02960019 -0.04036413
v -0.07971733 -0.03307722 -0.03813165
v -0.08726837 -0.02388158 -0.03158049
v -0.08782993 -0.02755983 -0.02455519
v -0.08747590 -0.02701834 -0.02398300
v -0.08152574 -0.02609268 -0.04021305
v -0.08396326 -0.02388402 -0.03927762
v -0.08416184 -0.02388158 -0.03977105
v -0.07971733 -0.03128078 -0.03891117
v -0.07978732 -0.02960019 -0.04036413
v -0.08118555 -0.02695858 -0.04038984
v -0.08579771 -0.03296745 -0.02398300
v -0.08621197 -0.03227229 -0.02398300
v -0.08709013 -0.03003924 -0.02398300
v -0.08747346 -0.02843183 -0.02398300
v -0.08684272 -0.02388158 -0.03619813
v -0.08601501 -0.02388158 -0.03944639
v -0.08782993 -0.02755983 -0.02484288
v -0.08720163 -0.02388158 -0.03311702
v -0.08563250 -0.02388158 -0.04039627
v -0.08561134 -0.02394377 -0.04040270
v -0.08201487 -0.02695858 -0.04038984
v -0.07971733 -0.03246255 -0.03849168
v -0.08440926 -0.02388158 -0.04038663
f 1 2 3
f 1 3 11
f 1 11 21
f 1 21 42
f 1 42 63
f 1 63 49
f 1 49 26
f 1 26 14
f 1 14 4
f 1 4 13
f 1 13 5
f 1 5 6
f 1 6 2
f 2 7 8
f 2 8 3
f 2 6 9
f 2 9 10
f 2 10 7
f 3 8 11
f 4 12 13
f 4 14 15
f 4 15 12
f 5 13 12
f 5 12 22
f 5 22 45
f 5 45 55
f 5 55 54
f 5 54 33
f 5 33 32
f 5 32 31
f 5 31 53
f 5 53 52
f 5 52 28
f 5 28 16
f 5 16 17
f 5 17 6
f 6 17 18
f 6 18 10
f 6 10 9
f 7 10 19
f 7 19 8
f 8 19 11
f 10 18 20
f 10 20 19
f 11 19 21
f 12 15 23
f 12 23 24
f 12 24 25
f 12 25 48
f 12 48 64
f 12 64 60
f 12 60 36
f 12 36 57
f 12 57 56
f 12 56 59
f 12 59 43
f 12 43 22
f 14 26 15
f 15 26 27
f 15 27 46
f 15 46 23
f 16 28 18
f 16 18 17
f 18 29 20
f 18 28 30
f 18 30 31
f 18 31 32
f 18 32 33
f 18 33 34
f 18 34 29
f 19 20 40
f 19 40 35
f 19 35 36
f 19 36 37
f 19 37 38
f 19 38 39
f 19 39 21
f 20 29 34
f 20 34 44
f 20 44 40
f 21 39 41
f 21 41 42
f 22 43 44
f 22 44 45
f 23 46 47
f 23 47 24
f 24 47 25
f 25 47 48
f 26 49 50
f 26 50 27
f 27 50 51
f 27 51 46
f 28 52 30
f 30 52 53
f 30 53 31
f 33 54 34
f 34 54 55
f 34 55 45
f 34 45 44
f 35 56 57
f 35 57 36
f 35 40 58
f 35 58 43
f 35 43 59
f 35 59 56
f 36 60 61
f 36 61 37
f 37 61 41
f 37 41 38
f 38 41 39
f 40 44 58
f 41 61 62
f 41 62 51
f 41 51 50
f 41 50 42
f 42 50 63
f 43 58 44
f 46 48 47
f 46 51 64
f 46 64 48
f 49 63 50
f 51 62 61
f 51 61 64
f 60 64 61

