# https://github.com/mikedh/trimesh
v -0.08440737 -0.02388157 -0.04038718
v -0.08175262 -0.01082545 -0.04205964
v -0.07860321 -0.00693427 -0.04222505
v -0.07837546 -0.00801440 -0.04202288
v -0.07192363 0.00154748 -0.03976965
v -0.08396432 -0.02388157 -0.03927710
v -0.08684149 -0.02388157 -0.03619683
v -0.08600876 -0.02371145 -0.03986522
v -0.07877225 -0.00592435 -0.04199715
v -0.08803008 -0.01808936 -0.03871839
v -0.08018859 -0.00151470 -0.03831406
v -0.07317628 0.00159879 -0.04044599
v -0.07087739 0.00370505 -0.00713276
v -0.07067454 0.00355383 -0.00596387
v -0.07053931 0.00180131 -0.00735698
v -0.07053931 -0.00109615 -0.00467369
v -0.08180955 -0.02388157 -0.00729817
v -0.08719913 -0.02388157 -0.03311656
v -0.08800338 -0.02180772 -0.03818541
v -0.07576341 0.00039444 -0.04032469
v -0.07442358 0.00159879 -0.04035777
v -0.08851761 -0.01925050 -0.03773697
v -0.08826850 -0.01762760 -0.03779578
v -0.08801228 -0.01658527 -0.03732528
v -0.07587195 0.00159879 -0.03495076
v -0.07591999 0.00159879 -0.03645414
v -0.07575985 0.00159879 -0.03749805
v -0.07519402 0.00159879 -0.03912272
v -0.08807989 -0.01649076 -0.03619683
v -0.08030069 -0.00897302 -0.00503391
v -0.07843418 -0.00554360 -0.00521402
v -0.07715840 -0.00363716 -0.00539414
v -0.07399298 0.00083999 -0.00693427
v -0.07242362 0.00245209 -0.00714746
v -0.07259087 0.00176351 -0.00503391
v -0.07060693 0.00310288 -0.00481337
v -0.07835055 -0.01130881 -0.00467369
v -0.08124551 -0.01130881 -0.00501186
v -0.08427748 -0.02388157 -0.00765839
v -0.08726675 -0.02388157 -0.03157275
v -0.08806922 -0.02194813 -0.03619683
v -0.08851761 -0.02079239 -0.03619683
v -0.08835747 -0.02079239 -0.03773697
v -0.08871689 -0.01925050 -0.03619683
v -0.08854608 -0.01771401 -0.03619683
v -0.08311558 -0.01486786 -0.00729817
v -0.08249815 -0.01326386 -0.00729817
v -0.07408017 0.00020542 -0.00503391
v -0.07538797 -0.00139318 -0.00512581
v -0.07347520 0.00102902 -0.00539414
v -0.08360489 -0.01653936 -0.00729817
v -0.08398389 -0.01811366 -0.00729817
v -0.08439135 -0.01995529 -0.00729817
v -0.08453192 -0.02112453 -0.00740844
v -0.08450523 -0.02245580 -0.00754444
v -0.08483975 -0.02388157 -0.00883830
v -0.08713152 -0.02388157 -0.02233929
v -0.08710305 -0.02388157 -0.02080283
v -0.08697849 -0.02387617 -0.01925902
v -0.08654256 -0.02233158 -0.01771889
v -0.08481661 -0.02028473 -0.00864349
v -0.08488423 -0.02233158 -0.00855527
v -0.08628278 -0.02341711 -0.01528188
v -0.08672761 -0.02387617 -0.01771889
f 1 2 3
f 1 3 4
f 1 4 5
f 1 5 6
f 1 6 17
f 1 17 39
f 1 39 56
f 1 56 58
f 1 58 57
f 1 57 40
f 1 40 18
f 1 18 7
f 1 7 8
f 1 8 2
f 2 9 3
f 2 8 10
f 2 10 11
f 2 11 9
f 3 9 12
f 3 12 4
f 4 12 5
f 5 12 13
f 5 13 14
f 5 14 15
f 5 15 16
f 5 16 6
f 6 16 17
f 7 18 19
f 7 19 8
f 8 19 10
f 9 11 20
f 9 20 21
f 9 21 12
f 10 19 22
f 10 22 23
f 10 23 24
f 10 24 11
f 11 25 26
f 11 26 27
f 11 27 28
f 11 28 21
f 11 21 20
f 11 24 29
f 11 29 30
f 11 30 31
f 11 31 32
f 11 32 33
f 11 33 34
f 11 34 13
f 11 13 25
f 12 21 13
f 13 21 28
f 13 28 27
f 13 27 26
f 13 26 25
f 13 34 35
f 13 35 14
f 14 35 36
f 14 36 15
f 15 36 16
f 16 36 37
f 16 37 17
f 17 37 38
f 17 38 39
f 18 40 41
f 18 41 19
f 19 41 42
f 19 42 43
f 19 43 22
f 22 43 44
f 22 44 45
f 22 45 23
f 23 45 24
f 24 45 29
f 29 45 46
f 29 46 47
f 29 47 30
f 30 38 37
f 30 37 36
f 30 36 48
f 30 48 31
f 30 47 38
f 31 48 49
f 31 49 32
f 32 49 33
f 33 49 48
f 33 48 50
f 33 50 34
f 34 50 35
f 35 48 36
f 35 50 48
f 38 47 46
f 38 46 51
f 38 51 52
f 38 52 53
f 38 53 54
f 38 54 55
f 38 55 39
f 39 55 56
f 40 57 42
f 40 42 41
f 42 57 58
f 42 58 44
f 42 44 43
f 44 58 59
f 44 59 45
f 45 59 60
f 45 60 61
f 45 61 51
f 45 51 46
f 51 61 52
f 52 61 53
f 53 61 54
f 54 61 62
f 54 62 55
f 55 62 56
f 56 62 63
f 56 63 64
f 56 64 58
f 58 64 59
f 59 64 63
f 59 63 60
f 60 63 61
f 61 63 62

