# https://github.com/mikedh/trimesh
v -0.04518142 -0.08245005 -0.01271050
v -0.04484066 -0.08084032 -0.01278743
v -0.04514406 -0.08222274 -0.01154957
v -0.04683424 -0.08215471 -0.01278743
v -0.05000065 -0.07941615 -0.01885783
v -0.04865235 -0.07941615 -0.01877158
v -0.04806367 -0.07646420 -0.02065984
v -0.04760631 -0.07507559 -0.02051064
v -0.04484066 -0.07140304 0.00057957
v -0.04514406 -0.07992644 -0.00553978
v -0.04514406 -0.08072898 -0.00682193
v -0.04553689 -0.08167689 -0.00952611
v -0.04699273 -0.08183462 -0.01158920
v -0.04751122 -0.08152535 -0.01110665
v -0.04839990 -0.08136608 -0.01210440
v -0.05092895 -0.07897854 -0.01826804
v -0.05640478 -0.06665424 -0.02235227
v -0.05548893 -0.06665424 -0.02318451
v -0.05077272 -0.07074740 -0.02322181
v -0.05073763 -0.06949332 -0.02224504
v -0.04917424 -0.07124686 -0.02017961
v -0.04967235 -0.06665734 0.00057957
v -0.04518821 -0.07368234 0.00057957
v -0.05240404 -0.06782328 -0.02223805
v -0.04662934 -0.08007179 -0.00651888
v -0.04529462 -0.07841412 -0.00389164
v -0.04644821 -0.07869092 -0.00449075
v -0.04698594 -0.08086352 -0.00847241
v -0.04673801 -0.08154545 -0.01020215
v -0.04789839 -0.08020942 -0.00808544
v -0.04952178 -0.08039962 -0.01154957
v -0.04967348 -0.08046766 -0.01278743
v -0.05062329 -0.07941615 -0.01639144
v -0.05134215 -0.07778940 -0.01617464
v -0.05101499 -0.07741674 -0.01098076
v -0.05585459 -0.06665424 -0.01771555
v -0.05385535 -0.06775214 -0.02323579
v -0.05402969 -0.06665424 -0.02239657
v -0.05202140 -0.06890416 -0.02321015
v -0.05171347 -0.06665734 0.00057957
v -0.05371951 -0.06665424 -0.02101884
v -0.05362441 -0.06665424 -0.01984858
v -0.05312404 -0.06665424 -0.01278743
v -0.04717953 -0.07248857 0.00057957
v -0.04684783 -0.07923832 -0.00551880
v -0.04795952 -0.07875741 -0.00590345
v -0.04747499 -0.07831052 -0.00487773
v -0.04936443 -0.07978108 -0.00990842
v -0.04933273 -0.07874504 -0.00804347
v -0.04950707 -0.07770126 -0.00706904
v -0.05208706 -0.06665734 -0.00071424
v -0.05284781 -0.06665734 -0.00358392
v -0.05447233 -0.06665734 -0.00985014
v -0.05484478 -0.06665734 -0.01154957
v -0.05516290 -0.06665424 -0.01319306
v -0.05542780 -0.06665424 -0.01463140
v -0.05562365 -0.06665424 -0.01592287
v -0.05103763 -0.06787431 0.00057957
v -0.04936216 -0.07712912 -0.00606197
v -0.04838745 -0.07145098 0.00057957
v -0.04903725 -0.07822392 -0.00681028
v -0.04795273 -0.07728375 -0.00441382
v -0.04846895 -0.07771982 -0.00546752
v -0.04934858 -0.07039019 0.00057957
f 1 2 3
f 1 3 4
f 1 4 5
f 1 5 6
f 1 6 7
f 1 7 8
f 1 8 2
f 2 8 9
f 2 9 10
f 2 10 11
f 2 11 3
f 3 11 12
f 3 12 4
f 4 12 13
f 4 13 14
f 4 14 15
f 4 15 16
f 4 16 5
f 5 7 6
f 5 16 17
f 5 17 18
f 5 18 19
f 5 19 7
f 7 19 8
f 8 19 20
f 8 20 21
f 8 21 9
f 9 22 40
f 9 40 58
f 9 58 64
f 9 64 60
f 9 60 44
f 9 44 23
f 9 23 10
f 9 21 20
f 9 20 24
f 9 24 22
f 10 25 11
f 10 23 26
f 10 26 27
f 10 27 25
f 11 25 28
f 11 28 12
f 12 28 29
f 12 29 13
f 13 29 14
f 14 29 28
f 14 28 30
f 14 30 15
f 15 31 32
f 15 32 33
f 15 33 16
f 15 30 31
f 16 33 34
f 16 34 17
f 17 34 35
f 17 35 36
f 17 36 57
f 17 57 56
f 17 56 55
f 17 55 43
f 17 43 42
f 17 42 41
f 17 41 38
f 17 38 18
f 18 37 19
f 18 38 37
f 19 37 39
f 19 39 20
f 20 39 24
f 22 24 41
f 22 41 42
f 22 42 43
f 22 43 40
f 23 44 27
f 23 27 26
f 24 39 38
f 24 38 41
f 25 27 45
f 25 45 46
f 25 46 30
f 25 30 28
f 27 47 45
f 27 44 47
f 30 48 31
f 30 46 49
f 30 49 48
f 31 48 35
f 31 35 32
f 32 35 33
f 33 35 34
f 35 48 49
f 35 49 50
f 35 50 40
f 35 40 51
f 35 51 52
f 35 52 53
f 35 53 54
f 35 54 55
f 35 55 56
f 35 56 57
f 35 57 36
f 37 38 39
f 40 43 55
f 40 55 51
f 40 50 59
f 40 59 58
f 44 60 47
f 45 47 46
f 46 61 49
f 46 47 62
f 46 62 63
f 46 63 61
f 47 60 64
f 47 64 62
f 49 61 59
f 49 59 50
f 51 55 52
f 52 55 53
f 53 55 54
f 58 59 64
f 59 61 63
f 59 63 64
f 62 64 63

