# https://github.com/mikedh/trimesh
v 0.01463468 -0.09271905 -0.03004077
v 0.01309243 -0.09279305 -0.03004077
v 0.01463288 -0.09257613 -0.03107230
v 0.01463468 -0.09102314 -0.03584718
v 0.01463468 -0.08883661 -0.03773676
v 0.01463288 -0.09109410 -0.02126798
v 0.01463288 -0.09295322 -0.02233912
v 0.01463288 -0.09312858 -0.02387983
v 0.01463288 -0.09308297 -0.02542054
v 0.01309243 -0.09260552 -0.03115339
v -0.00377142 -0.09265823 -0.02393640
v -0.00330658 -0.09256903 -0.02481896
v 0.01338071 -0.09105254 -0.03582832
v 0.01463288 -0.09036830 -0.03773676
v 0.01463288 -0.08978340 -0.03889087
v 0.01463468 -0.08874740 -0.03921712
v 0.01405634 -0.08757050 -0.04006007
v 0.00693064 -0.08288927 -0.03661659
v -0.00076980 -0.08597495 -0.02581090
v 0.00389839 -0.08920052 -0.02126610
v 0.01442208 -0.09269777 -0.02126610
v 0.01256094 -0.08604490 -0.03981115
v 0.01100067 -0.08446455 -0.04007705
v 0.00790356 -0.08296023 -0.03773487
v -0.00377142 -0.09260755 -0.02278606
v 0.01309243 -0.09309311 -0.02387983
v -0.00377142 -0.09162426 -0.02419665
v -0.00335343 -0.08857406 -0.02640493
v 0.00774501 -0.08607430 -0.03846091
v 0.00877197 -0.08674536 -0.03899082
v 0.01029621 -0.08662473 -0.04034295
v 0.00978633 -0.08719848 -0.03943210
v 0.01199701 -0.08822535 -0.04003367
v 0.01207628 -0.08947017 -0.03872492
v 0.01309243 -0.08965466 -0.03894179
v 0.01309243 -0.09017468 -0.03773676
v 0.01309243 -0.08901704 -0.03971120
v 0.01309063 -0.08827198 -0.04036369
v 0.01405634 -0.08813716 -0.04029580
v 0.01308162 -0.08704845 -0.04046930
v 0.01256094 -0.08604490 -0.04029957
v 0.00591268 -0.08279905 -0.03651286
v 0.00796481 -0.08289434 -0.03870418
v 0.00680452 -0.08277270 -0.03786688
v -0.00177334 -0.08604591 -0.02586181
v -0.00030676 -0.08927250 -0.02177526
v -0.00377142 -0.09026186 -0.02177526
v 0.00389659 -0.09093293 -0.02126610
v 0.01309243 -0.09263188 -0.02126610
v 0.01152676 -0.08551879 -0.04053153
v 0.01026918 -0.08446455 -0.04030334
v -0.00377142 -0.09204292 -0.02177526
v -0.00377142 -0.09069674 -0.02350078
v -0.00337505 -0.08761004 -0.02620880
v 0.00591268 -0.08279905 -0.03744257
v 0.00591268 -0.08360392 -0.03744257
v 0.00730179 -0.08395669 -0.03869852
v 0.00926203 -0.08549649 -0.04001859
v 0.01003496 -0.08549649 -0.04045986
v 0.01153217 -0.08709813 -0.04049947
v 0.00723513 -0.08289434 -0.03870418
v -0.00177334 -0.08604591 -0.02640870
v -0.00377142 -0.09035208 -0.02238438
v 0.01229969 -0.09251124 -0.02126610
f 1 2 3
f 1 3 4
f 1 4 16
f 1 16 5
f 1 5 6
f 1 6 7
f 1 7 8
f 1 8 9
f 1 9 2
f 2 10 3
f 2 9 11
f 2 11 12
f 2 12 10
f 3 10 4
f 4 10 13
f 4 13 14
f 4 14 15
f 4 15 16
f 5 16 17
f 5 17 6
f 6 18 19
f 6 19 20
f 6 20 21
f 6 21 7
f 6 17 22
f 6 22 23
f 6 23 24
f 6 24 18
f 7 25 8
f 7 21 25
f 8 25 26
f 8 26 9
f 9 26 11
f 10 12 13
f 11 26 25
f 11 25 52
f 11 52 47
f 11 47 63
f 11 63 53
f 11 53 27
f 11 27 28
f 11 28 12
f 12 28 29
f 12 29 30
f 12 30 31
f 12 31 32
f 12 32 33
f 12 33 34
f 12 34 35
f 12 35 36
f 12 36 13
f 13 36 35
f 13 35 14
f 14 35 15
f 15 35 37
f 15 37 38
f 15 38 39
f 15 39 16
f 16 39 17
f 17 39 40
f 17 40 41
f 17 41 22
f 18 42 19
f 18 24 43
f 18 43 44
f 18 44 42
f 19 42 45
f 19 45 20
f 20 46 47
f 20 47 48
f 20 48 64
f 20 64 49
f 20 49 21
f 20 45 46
f 21 49 25
f 22 41 23
f 23 41 50
f 23 50 51
f 23 51 43
f 23 43 24
f 25 49 52
f 27 53 54
f 27 54 28
f 28 54 55
f 28 55 56
f 28 56 29
f 29 56 57
f 29 57 58
f 29 58 31
f 29 31 30
f 31 59 60
f 31 60 33
f 31 33 32
f 31 58 59
f 33 37 34
f 33 60 38
f 33 38 37
f 34 37 35
f 38 60 40
f 38 40 39
f 40 60 50
f 40 50 41
f 42 44 55
f 42 55 62
f 42 62 45
f 43 61 44
f 43 51 61
f 44 61 55
f 45 62 54
f 45 54 47
f 45 47 46
f 47 54 63
f 47 52 48
f 48 52 64
f 49 64 52
f 50 60 59
f 50 59 51
f 51 59 61
f 53 63 54
f 54 62 55
f 55 61 56
f 56 61 57
f 57 61 58
f 58 61 59

