# https://github.com/mikedh/trimesh
v -0.02492897 -0.07265928 0.00686100
v -0.02492897 -0.07265928 0.00509248
v -0.02736347 -0.07265928 0.00783017
v -0.00388358 -0.07753375 0.00341133
v -0.00388358 -0.07753052 0.00210739
v -0.03308326 -0.07496739 0.00058219
v -0.03324710 -0.07265928 0.00521659
v -0.02846719 -0.07265928 0.00826699
v -0.00388358 -0.07933665 0.00344235
v -0.03049642 -0.07265928 0.00892345
v -0.00388358 -0.08594784 0.00075692
v -0.02850168 -0.07669121 0.00058219
v -0.03003654 -0.07604719 0.00058219
v -0.03189332 -0.07537575 0.00058219
v -0.03324710 -0.07679935 0.00058219
v -0.03324710 -0.07368421 0.00692877
v -0.03321261 -0.07273192 0.00836824
v -0.03166912 -0.07265928 0.00884425
v -0.00388358 -0.08089260 0.00338520
v -0.03120349 -0.07265928 0.00891365
v -0.01001439 -0.08640623 0.00316066
v -0.00847378 -0.08640784 0.00315576
v -0.00847378 -0.08549105 0.00343174
v -0.00699641 -0.08554432 0.00324639
v -0.00539544 -0.08500361 0.00315087
v -0.00457628 -0.08475343 0.00308881
v -0.00388358 -0.08380114 0.00313943
v -0.00388358 -0.08242757 0.00328559
v -0.00388358 -0.08803320 0.00169751
v -0.00390945 -0.08875307 0.00075692
v -0.01781515 -0.08546039 0.00058382
v -0.01781515 -0.08347025 0.00058382
v -0.02553831 -0.07831818 0.00058219
v -0.02688634 -0.07756441 0.00058219
v -0.01892462 -0.08495680 0.00067772
v -0.02161781 -0.08322008 0.00160117
v -0.03324710 -0.07565659 0.00338683
v -0.02492897 -0.08089260 0.00058219
v -0.03324710 -0.07456226 0.00546153
v -0.01867456 -0.08481961 0.00166077
v -0.01997660 -0.08315713 0.00305615
v -0.01561346 -0.08480670 0.00315087
v -0.01088817 -0.08630131 0.00310596
v -0.01001439 -0.08717613 0.00258504
v -0.00847378 -0.08826563 0.00194246
v -0.00847378 -0.08717775 0.00271241
v -0.00693605 -0.08832050 0.00193185
v -0.00539544 -0.08819299 0.00182733
v -0.00755114 -0.08630293 0.00309943
v -0.00388358 -0.08682911 0.00228130
v -0.00388358 -0.08536355 0.00275568
v -0.00539544 -0.08899518 0.00081407
v -0.00467688 -0.08890802 0.00075692
v -0.00832720 -0.08902746 0.00075692
v -0.00984481 -0.08867398 0.00076100
v -0.01250063 -0.08789600 0.00075692
v -0.02492897 -0.07873783 0.00058219
v -0.03324710 -0.07528536 0.00412820
v -0.01214135 -0.08772976 0.00142154
v -0.01776629 -0.08501814 0.00190490
v -0.01111236 -0.08790569 0.00166322
v -0.01001439 -0.08806064 0.00181509
v -0.00706539 -0.08914690 0.00080672
v -0.01171596 -0.08816878 0.00078141
f 1 2 7
f 1 7 18
f 1 18 20
f 1 20 10
f 1 10 8
f 1 8 3
f 1 3 4
f 1 4 5
f 1 5 2
f 2 6 7
f 2 5 6
f 3 8 4
f 4 9 19
f 4 19 28
f 4 28 27
f 4 27 51
f 4 51 50
f 4 50 29
f 4 29 11
f 4 11 5
f 4 8 10
f 4 10 9
f 5 11 12
f 5 12 13
f 5 13 14
f 5 14 6
f 6 14 13
f 6 13 12
f 6 12 34
f 6 34 33
f 6 33 57
f 6 57 38
f 6 38 15
f 6 15 7
f 7 15 37
f 7 37 58
f 7 58 39
f 7 39 16
f 7 16 17
f 7 17 18
f 9 10 19
f 10 20 21
f 10 21 22
f 10 22 23
f 10 23 24
f 10 24 25
f 10 25 26
f 10 26 27
f 10 27 28
f 10 28 19
f 11 29 30
f 11 30 31
f 11 31 32
f 11 32 33
f 11 33 34
f 11 34 12
f 15 35 36
f 15 36 37
f 15 38 31
f 15 31 35
f 16 39 40
f 16 40 17
f 17 40 41
f 17 41 42
f 17 42 18
f 18 42 43
f 18 43 20
f 20 43 21
f 21 43 44
f 21 44 45
f 21 45 46
f 21 46 22
f 22 46 47
f 22 47 48
f 22 48 49
f 22 49 23
f 23 49 24
f 24 49 25
f 25 49 50
f 25 50 26
f 26 50 51
f 26 51 27
f 29 50 49
f 29 49 48
f 29 48 52
f 29 52 53
f 29 53 30
f 30 53 31
f 31 38 57
f 31 57 32
f 31 53 54
f 31 54 55
f 31 55 56
f 31 56 35
f 32 57 33
f 35 56 40
f 35 40 36
f 36 40 39
f 36 39 58
f 36 58 37
f 40 56 59
f 40 59 60
f 40 60 41
f 41 60 59
f 41 59 42
f 42 59 61
f 42 61 44
f 42 44 43
f 44 61 62
f 44 62 45
f 45 62 54
f 45 54 63
f 45 63 47
f 45 47 46
f 47 63 52
f 47 52 48
f 52 63 53
f 53 63 54
f 54 62 61
f 54 61 55
f 55 61 64
f 55 64 56
f 56 64 59
f 59 64 61

