# https://github.com/mikedh/trimesh
v 0.00144149 -0.02089050 0.00400452
v 0.00144149 -0.02089050 0.00261564
v 0.00084045 -0.02089050 0.00400844
v -0.03003247 -0.02425794 0.00464213
v -0.03144406 -0.03593504 0.00583960
v -0.02995004 -0.03607432 0.00583960
v -0.02866209 -0.03637085 0.00583960
v -0.02770043 -0.03675500 0.00583960
v -0.02667351 -0.03720653 0.00583960
v -0.02452006 -0.03830281 0.00583960
v -0.02357557 -0.03879029 0.00583960
v -0.02159385 -0.03994946 0.00583960
v -0.02048450 -0.04060093 0.00583960
v -0.01881875 -0.04167923 0.00583960
v -0.01691946 -0.04335285 0.00583960
v -0.01669278 -0.04383808 0.00583960
v 0.00144149 -0.04383808 0.00397382
v 0.00144149 -0.02233947 0.00260355
v -0.00077034 -0.03311798 0.00251960
v -0.02849380 -0.02089050 0.00279725
v 0.00067560 -0.02089050 0.00400942
v -0.03364215 -0.02410967 0.00464507
v -0.03157800 -0.02420403 0.00464507
v -0.03295181 -0.03585416 0.00583960
v -0.02502150 -0.04383808 0.00583960
v 0.00144149 -0.04383808 0.00251209
v 0.00144149 -0.03311798 0.00251895
v 0.00076489 -0.03311798 0.00251830
v 0.00076489 -0.03465680 0.00250654
v -0.00077034 -0.03465680 0.00251568
v -0.03364215 -0.02089050 0.00283416
v -0.03311667 -0.02089050 0.00283024
v -0.03364215 -0.02089050 0.00420965
v -0.03311667 -0.03584967 0.00583960
v -0.03364215 -0.03589011 0.00583960
v -0.03364215 -0.04088399 0.00583960
v -0.03364215 -0.04078964 0.00577950
v -0.02393619 -0.04383808 0.00560605
v 0.00144149 -0.04303385 0.00250948
v 0.00070651 -0.04383808 0.00253561
v -0.03364215 -0.02233947 0.00287597
v 0.00144149 -0.03379192 0.00251372
v 0.00076489 -0.03619787 0.00250425
v 0.00144149 -0.03465680 0.00250719
v 0.00144149 -0.03533299 0.00250458
v 0.00144149 -0.03619787 0.00250327
v -0.03364215 -0.03927777 0.00525132
v -0.01470076 -0.04383808 0.00387746
v -0.01623256 -0.04383808 0.00415216
v -0.01797386 -0.04383808 0.00446803
v 0.00144149 -0.03687181 0.00250262
v -0.00080468 -0.04383808 0.00258885
v -0.03364215 -0.02388054 0.00293869
v -0.03364215 -0.03725371 0.00455491
v -0.00838124 -0.04383808 0.00302133
v -0.00234335 -0.04383808 0.00265287
v -0.03364215 -0.02541936 0.00301610
v -0.03364215 -0.03619787 0.00430438
v -0.00696965 -0.04383808 0.00291125
v -0.03364215 -0.03465680 0.00396108
v -0.03364215 -0.03311798 0.00376966
v -0.00385797 -0.04383808 0.00272571
v -0.03364215 -0.02638309 0.00307032
v -0.00539664 -0.04383808 0.00281097
f 1 2 20
f 1 20 32
f 1 32 31
f 1 31 33
f 1 33 21
f 1 21 3
f 1 3 4
f 1 4 5
f 1 5 6
f 1 6 7
f 1 7 8
f 1 8 9
f 1 9 10
f 1 10 11
f 1 11 12
f 1 12 13
f 1 13 14
f 1 14 15
f 1 15 16
f 1 16 17
f 1 17 26
f 1 26 39
f 1 39 51
f 1 51 46
f 1 46 45
f 1 45 44
f 1 44 42
f 1 42 27
f 1 27 18
f 1 18 2
f 2 18 19
f 2 19 20
f 3 21 22
f 3 22 23
f 3 23 4
f 4 23 24
f 4 24 5
f 5 24 34
f 5 34 35
f 5 35 36
f 5 36 25
f 5 25 16
f 5 16 15
f 5 15 14
f 5 14 13
f 5 13 12
f 5 12 11
f 5 11 10
f 5 10 9
f 5 9 8
f 5 8 7
f 5 7 6
f 16 25 38
f 16 38 50
f 16 50 49
f 16 49 48
f 16 48 55
f 16 55 59
f 16 59 64
f 16 64 62
f 16 62 56
f 16 56 52
f 16 52 40
f 16 40 26
f 16 26 17
f 18 27 28
f 18 28 19
f 19 28 29
f 19 29 30
f 19 30 31
f 19 31 32
f 19 32 20
f 21 33 22
f 22 34 24
f 22 24 23
f 22 33 31
f 22 31 41
f 22 41 53
f 22 53 57
f 22 57 63
f 22 63 61
f 22 61 60
f 22 60 58
f 22 58 54
f 22 54 47
f 22 47 37
f 22 37 36
f 22 36 35
f 22 35 34
f 25 36 37
f 25 37 38
f 26 40 41
f 26 41 31
f 26 31 39
f 27 42 28
f 28 42 29
f 29 43 30
f 29 42 44
f 29 44 45
f 29 45 46
f 29 46 43
f 30 43 39
f 30 39 31
f 37 47 48
f 37 48 49
f 37 49 50
f 37 50 38
f 39 43 51
f 40 52 41
f 41 52 53
f 43 46 51
f 47 54 48
f 48 54 55
f 52 56 57
f 52 57 53
f 54 58 55
f 55 58 60
f 55 60 61
f 55 61 59
f 56 62 63
f 56 63 57
f 59 61 63
f 59 63 64
f 62 64 63

