# https://github.com/mikedh/trimesh
v -0.07623941 -0.04384392 -0.02585974
v -0.07587207 -0.05270755 -0.02455525
v -0.07737158 -0.04384392 -0.02500820
v -0.07515110 -0.04384392 -0.02553880
v -0.05514211 -0.06636246 -0.02321452
v -0.06921611 -0.05711704 -0.02474678
v -0.07049083 -0.05707909 -0.02468725
v -0.07240977 -0.05546265 -0.02308769
v -0.07095960 -0.05247536 -0.00275152
v -0.07243992 -0.05088571 -0.00290423
v -0.07287305 -0.05016456 -0.00235810
v -0.07372835 -0.04898795 -0.00231152
v -0.07420808 -0.04821769 -0.00231152
v -0.07476183 -0.04698750 -0.00231152
v -0.07561164 -0.04508751 -0.00260399
v -0.07569662 -0.04534426 -0.00385155
v -0.07608589 -0.04387518 -0.00383602
v -0.07763200 -0.04384392 -0.02233450
v -0.07769506 -0.04384392 -0.02387453
v -0.07244814 -0.04384392 0.00058219
v -0.05365083 -0.06134122 0.00057960
v -0.05288325 -0.06215168 0.00057960
v -0.05218147 -0.06292864 0.00057960
v -0.05374403 -0.06665047 -0.02122412
v -0.05403461 -0.06665047 -0.02239662
v -0.05624413 -0.06660805 -0.02276415
v -0.05708023 -0.06627315 -0.02297122
v -0.06203108 -0.06331935 -0.02302816
v -0.06812781 -0.05888084 -0.02265286
v -0.06919967 -0.05381048 -0.00204492
v -0.07079238 -0.05230791 -0.00172397
v -0.07136806 -0.05139029 -0.00077149
v -0.07230285 -0.05074059 -0.00187668
v -0.06897488 -0.05362517 -0.00077149
v -0.07274969 -0.04977162 -0.00077149
v -0.07404360 -0.04793861 -0.00126067
v -0.07489616 -0.04544697 -0.00077149
v -0.07557326 -0.04425250 -0.00177574
v -0.07532929 -0.04388857 -0.00083360
v -0.07475635 -0.04398681 0.00058219
v -0.06914484 -0.04974929 0.00058219
v -0.04969235 -0.06661251 0.00057960
v -0.05049007 -0.06531981 0.00057960
v -0.05139745 -0.06397129 0.00057960
v -0.05172093 -0.06665047 0.00057960
v -0.05586308 -0.06665047 -0.01771441
v -0.05563007 -0.06665047 -0.01592073
v -0.05543544 -0.06665047 -0.01463176
v -0.05524903 -0.06665047 -0.01360162
v -0.05484879 -0.06665047 -0.01155429
v -0.05447871 -0.06665047 -0.00985378
v -0.05285310 -0.06665047 -0.00358236
v -0.05209101 -0.06665047 -0.00071454
v -0.06820456 -0.05423022 -0.00077149
v -0.06984662 -0.05285267 -0.00077149
v -0.07061967 -0.05216055 -0.00077149
v -0.07109667 -0.05109781 0.00058219
v -0.07213838 -0.05053965 -0.00077149
v -0.06940527 -0.05264504 0.00055631
v -0.06809765 -0.05376583 0.00049419
v -0.07251120 -0.04928490 0.00054595
v -0.07405182 -0.04730007 -0.00049454
v -0.07427661 -0.04565014 0.00058219
v -0.07391476 -0.04663474 0.00050972
f 1 2 3
f 1 3 19
f 1 19 18
f 1 18 20
f 1 20 4
f 1 4 5
f 1 5 6
f 1 6 7
f 1 7 2
f 2 8 9
f 2 9 10
f 2 10 11
f 2 11 12
f 2 12 13
f 2 13 14
f 2 14 15
f 2 15 16
f 2 16 17
f 2 17 18
f 2 18 19
f 2 19 3
f 2 7 8
f 4 20 21
f 4 21 22
f 4 22 23
f 4 23 24
f 4 24 25
f 4 25 5
f 5 25 26
f 5 26 27
f 5 27 7
f 5 7 6
f 7 27 28
f 7 28 29
f 7 29 8
f 8 29 30
f 8 30 9
f 9 31 32
f 9 32 33
f 9 33 10
f 9 30 34
f 9 34 31
f 10 33 11
f 11 35 12
f 11 33 35
f 12 35 13
f 13 35 36
f 13 36 14
f 14 36 37
f 14 37 15
f 15 17 16
f 15 37 38
f 15 38 17
f 17 38 39
f 17 39 20
f 17 20 18
f 20 39 40
f 20 40 63
f 20 63 57
f 20 57 41
f 20 41 42
f 20 42 43
f 20 43 44
f 20 44 23
f 20 23 22
f 20 22 21
f 23 44 24
f 24 44 43
f 24 43 42
f 24 42 45
f 24 45 53
f 24 53 52
f 24 52 51
f 24 51 50
f 24 50 49
f 24 49 48
f 24 48 47
f 24 47 46
f 24 46 25
f 25 46 26
f 26 46 27
f 27 46 28
f 28 46 47
f 28 47 48
f 28 48 49
f 28 49 50
f 28 50 51
f 28 51 29
f 29 51 52
f 29 52 53
f 29 53 30
f 30 53 45
f 30 45 54
f 30 54 34
f 31 34 55
f 31 55 56
f 31 56 32
f 32 57 58
f 32 58 33
f 32 56 57
f 33 58 35
f 34 59 55
f 34 54 45
f 34 45 60
f 34 60 59
f 35 58 57
f 35 57 61
f 35 61 36
f 36 61 62
f 36 62 37
f 37 63 40
f 37 40 39
f 37 39 38
f 37 62 63
f 41 57 42
f 42 57 45
f 45 59 60
f 45 57 59
f 55 59 56
f 56 59 57
f 57 63 61
f 61 64 62
f 61 63 64
f 62 64 63

