# https://github.com/mikedh/trimesh
v 0.08237063 0.03739594 -0.02693920
v 0.08399096 0.03609557 -0.02693920
v 0.08488839 0.03404588 -0.03111351
v 0.08391545 0.03463338 -0.03152286
v 0.08237063 0.03628508 -0.03001529
v 0.08237063 0.02690113 -0.03919454
v 0.08242200 0.03540602 -0.02694052
v 0.08639484 0.02250289 -0.02694052
v 0.08550050 0.03333155 -0.02693920
v 0.08537425 0.03490599 -0.02693920
v 0.08611261 0.03372953 -0.02887997
v 0.08441801 0.03360125 -0.03263036
v 0.08588856 0.03345692 -0.03004178
v 0.08637504 0.03218279 -0.03140628
v 0.08491005 0.03253267 -0.03353517
v 0.08285524 0.03421645 -0.03348350
v 0.08285091 0.03545121 -0.03132945
v 0.08249008 0.02874963 -0.04009405
v 0.08239043 0.02699442 -0.04047293
v 0.08292147 0.02576111 -0.04034178
v 0.08446938 0.02250435 -0.03973902
v 0.08563666 0.02250289 -0.03603367
v 0.08801456 0.02250289 -0.03165136
v 0.08808697 0.02253934 -0.02694052
v 0.08866565 0.02541998 -0.02694052
v 0.08833020 0.03003543 -0.02695112
v 0.08777132 0.03156905 -0.02695112
v 0.08663127 0.03354293 -0.02717633
v 0.08663251 0.03317702 -0.02842028
v 0.08650439 0.03268574 -0.03004178
v 0.08712393 0.03157634 -0.03004178
v 0.08767663 0.02974532 -0.03131620
v 0.08615841 0.03108214 -0.03341992
v 0.08656814 0.02760962 -0.03641255
v 0.08349954 0.02743614 -0.04031131
v 0.08471076 0.02387907 -0.04046498
v 0.08608291 0.02257578 -0.03945817
v 0.08685532 0.02250289 -0.03774923
v 0.08727370 0.02250289 -0.03619926
v 0.08793162 0.02257724 -0.03312052
v 0.08835496 0.02388053 -0.03158115
v 0.08843047 0.02388053 -0.02849976
v 0.08842675 0.02374933 -0.02694317
v 0.08857591 0.02541998 -0.03004178
v 0.08869351 0.02695944 -0.02695112
v 0.08862109 0.02850035 -0.02695112
v 0.08853383 0.02850035 -0.02849976
v 0.08834073 0.02850035 -0.03004178
v 0.08809130 0.03016663 -0.02857395
v 0.08762525 0.03113316 -0.02885480
v 0.08782826 0.03016517 -0.03004178
v 0.08776575 0.02729182 -0.03414059
v 0.08691040 0.02860677 -0.03476322
v 0.08661703 0.02541998 -0.03743261
v 0.08482712 0.02563282 -0.04017751
v 0.08718706 0.02541998 -0.03619926
v 0.08789634 0.02339216 -0.03429691
v 0.08794276 0.02541998 -0.03437242
v 0.08819404 0.02388053 -0.03312052
v 0.08846698 0.02541998 -0.03158115
v 0.08853506 0.02695944 -0.03004178
v 0.08862604 0.02695944 -0.02849976
v 0.08832463 0.02695944 -0.03158115
v 0.08821880 0.02541998 -0.03312052
f 1 2 3
f 1 3 4
f 1 4 5
f 1 5 6
f 1 6 7
f 1 7 8
f 1 8 9
f 1 9 10
f 1 10 2
f 2 10 11
f 2 11 3
f 3 12 4
f 3 11 13
f 3 13 14
f 3 14 15
f 3 15 12
f 4 16 17
f 4 17 5
f 4 12 16
f 5 17 16
f 5 16 18
f 5 18 19
f 5 19 6
f 6 19 20
f 6 20 21
f 6 21 8
f 6 8 7
f 8 21 22
f 8 22 38
f 8 38 39
f 8 39 23
f 8 23 24
f 8 24 9
f 9 24 25
f 9 25 10
f 10 26 27
f 10 27 28
f 10 28 11
f 10 25 26
f 11 28 29
f 11 29 30
f 11 30 13
f 12 15 16
f 13 30 14
f 14 31 32
f 14 32 33
f 14 33 15
f 14 30 31
f 15 33 34
f 15 34 35
f 15 35 18
f 15 18 16
f 18 35 19
f 19 35 36
f 19 36 20
f 20 36 21
f 21 36 37
f 21 37 38
f 21 38 22
f 23 39 40
f 23 40 41
f 23 41 42
f 23 42 43
f 23 43 24
f 24 43 25
f 25 43 42
f 25 42 41
f 25 41 44
f 25 44 45
f 25 45 46
f 25 46 26
f 26 46 47
f 26 47 48
f 26 48 49
f 26 49 27
f 27 49 50
f 27 50 29
f 27 29 28
f 29 50 31
f 29 31 30
f 31 50 51
f 31 51 32
f 32 48 52
f 32 52 53
f 32 53 33
f 32 51 48
f 33 53 34
f 34 53 52
f 34 52 54
f 34 54 55
f 34 55 35
f 35 55 36
f 36 55 37
f 37 55 54
f 37 54 56
f 37 56 38
f 38 57 39
f 38 56 58
f 38 58 57
f 39 57 40
f 40 57 59
f 40 59 41
f 41 59 60
f 41 60 44
f 44 60 61
f 44 61 62
f 44 62 45
f 45 62 46
f 46 62 47
f 47 62 61
f 47 61 48
f 48 51 49
f 48 61 63
f 48 63 52
f 49 51 50
f 52 63 64
f 52 64 58
f 52 58 56
f 52 56 54
f 57 58 59
f 58 64 59
f 59 64 60
f 60 64 63
f 60 63 61

