# https://github.com/mikedh/trimesh
v 0.02202026 -0.07492138 -0.00395065
v 0.02548244 -0.07766490 -0.00359237
v 0.02647800 -0.07767083 -0.00395065
v 0.02202026 -0.08222409 -0.00704581
v 0.00693525 -0.08530999 -0.00704581
v 0.00538692 -0.08564793 -0.00704581
v 0.00398719 -0.08615335 -0.00704581
v -0.00388221 -0.07753150 0.00210518
v -0.00387330 -0.07753299 0.00340997
v -0.00017040 -0.07753150 0.00312663
v 0.00552660 -0.07759672 0.00222118
v 0.00715219 -0.07753150 0.00180131
v 0.02506044 -0.07906704 -0.00395065
v 0.00539287 -0.07933383 0.00209697
v 0.00544933 -0.08086048 0.00181773
v 0.00385346 -0.08241529 0.00200560
v 0.00425169 -0.08336685 0.00161242
v 0.02202026 -0.08386190 -0.00598843
v 0.02132485 -0.08484755 -0.00680148
v 0.01920296 -0.08574130 -0.00704581
v 0.00385049 -0.08802831 -0.00704581
v -0.00388221 -0.08870567 -0.00394963
v -0.00388221 -0.07933383 0.00344179
v -0.00230417 -0.07933383 0.00330731
v -0.00088661 -0.07933383 0.00315948
v -0.00113327 -0.08087530 0.00313484
v 0.00385346 -0.08087530 0.00227867
v 0.02385685 -0.07997266 -0.00395065
v 0.02202026 -0.08204030 -0.00447729
v 0.02202026 -0.08294739 -0.00518256
v 0.00196932 -0.08504320 0.00168222
v 0.00029618 -0.08642904 0.00165143
v 0.00231405 -0.08241529 0.00232795
v 0.00077464 -0.08395083 0.00232692
v -0.00076476 -0.08549230 0.00228996
v 0.00241212 -0.08405903 0.00190089
v 0.00079545 -0.08553232 0.00187112
v 0.02028471 -0.08484014 -0.00604900
v -0.00076476 -0.08811576 0.00039694
v -0.00230417 -0.08928668 -0.00085960
v -0.00147206 -0.08935931 -0.00149917
v 0.00007032 -0.08936227 -0.00300722
v -0.00081528 -0.08964389 -0.00392602
v 0.01771110 -0.08603922 -0.00704581
v 0.01617170 -0.08629712 -0.00704581
v -0.00230714 -0.08990327 -0.00390035
v -0.00386438 -0.09006186 -0.00390138
v -0.00387330 -0.08979359 -0.00196010
v -0.00388221 -0.08886426 0.00059507
v -0.00388221 -0.08243159 0.00328370
v -0.00386438 -0.08087530 0.00338328
v -0.00230417 -0.08087530 0.00325701
v -0.00138588 -0.08187429 0.00310302
v -0.00076476 -0.08669138 0.00181671
v -0.00238738 -0.08753326 0.00165245
v -0.00288665 -0.08329867 0.00309686
v -0.00388221 -0.08379965 0.00313690
v -0.00388221 -0.08536483 0.00275398
v -0.00387330 -0.08682626 0.00227970
v -0.00387330 -0.08817801 0.00150360
v -0.00377820 -0.08939192 -0.00043049
v -0.00230714 -0.08966909 -0.00231017
v -0.00088067 -0.08943342 -0.00242104
v -0.00234578 -0.08239898 0.00314511
f 1 2 3
f 1 3 4
f 1 4 5
f 1 5 6
f 1 6 7
f 1 7 8
f 1 8 9
f 1 9 10
f 1 10 11
f 1 11 12
f 1 12 2
f 2 13 3
f 2 12 14
f 2 14 15
f 2 15 16
f 2 16 17
f 2 17 13
f 3 13 18
f 3 18 19
f 3 19 4
f 4 19 20
f 4 20 44
f 4 44 45
f 4 45 21
f 4 21 7
f 4 7 6
f 4 6 5
f 7 21 22
f 7 22 8
f 8 22 49
f 8 49 58
f 8 58 57
f 8 57 50
f 8 50 23
f 8 23 9
f 9 23 10
f 10 23 24
f 10 24 25
f 10 25 26
f 10 26 11
f 11 27 14
f 11 14 12
f 11 26 27
f 13 28 29
f 13 29 30
f 13 30 18
f 13 17 31
f 13 31 32
f 13 32 28
f 14 27 15
f 15 27 16
f 16 27 33
f 16 33 34
f 16 34 35
f 16 35 36
f 16 36 17
f 17 36 37
f 17 37 31
f 18 38 19
f 18 30 38
f 19 38 20
f 20 38 39
f 20 39 40
f 20 40 41
f 20 41 42
f 20 42 43
f 20 43 44
f 21 45 46
f 21 46 47
f 21 47 22
f 22 47 48
f 22 48 49
f 23 50 51
f 23 51 52
f 23 52 24
f 24 52 25
f 25 52 26
f 26 52 53
f 26 53 27
f 27 53 33
f 28 32 29
f 29 32 30
f 30 32 38
f 31 37 32
f 32 37 35
f 32 35 54
f 32 54 55
f 32 55 39
f 32 39 38
f 33 53 34
f 34 53 56
f 34 56 35
f 35 56 57
f 35 57 58
f 35 58 59
f 35 59 54
f 35 37 36
f 39 55 60
f 39 60 49
f 39 49 40
f 40 49 61
f 40 61 41
f 41 61 48
f 41 48 62
f 41 62 63
f 41 63 42
f 42 63 62
f 42 62 46
f 42 46 43
f 43 46 44
f 44 46 45
f 46 62 48
f 46 48 47
f 48 61 49
f 49 60 58
f 50 57 64
f 50 64 53
f 50 53 52
f 50 52 51
f 53 64 56
f 54 59 55
f 55 59 60
f 56 64 57
f 58 60 59

