# https://github.com/mikedh/trimesh
v 0.00666778 0.00622200 0.02024168
v -0.00033511 0.00994102 0.03146875
v -0.00033511 0.00869722 0.02079522
v -0.00033511 0.00865065 0.02026746
v -0.00033511 0.00872124 0.01971240
v 0.00666778 0.00631225 0.01964113
v 0.00666778 0.00801674 0.03208144
v -0.00022406 0.01001890 0.03215424
v -0.00030632 0.01043010 0.03294285
v -0.00030632 0.01092063 0.03329620
v -0.00033374 0.01292934 0.03309905
v -0.00033511 0.01324957 0.03249546
v -0.00033511 0.00889082 0.01913459
v 0.00666778 0.00651312 0.01918009
v 0.00666778 0.00814628 0.03250304
v 0.00371267 0.00893740 0.03241357
v 0.00042783 0.01000652 0.03267290
v 0.00286335 0.00938572 0.03288370
v 0.00027840 0.01033694 0.03301261
v 0.00027840 0.01070230 0.03329014
v 0.00027840 0.01098031 0.03341298
v -0.00030632 0.01139661 0.03347819
v -0.00030632 0.01195337 0.03355250
v -0.00025696 0.01261348 0.03336445
v 0.00099953 0.01226851 0.03338568
v 0.00583698 0.01097595 0.03327497
v 0.00653069 0.01125687 0.03270778
v 0.00027840 0.01288204 0.03293071
v 0.00087203 0.01279761 0.03280332
v 0.00553468 0.01166881 0.03213755
v -0.00033511 0.01334710 0.03196922
v -0.00033511 0.00916010 0.01863413
v 0.00666778 0.00714848 0.01807301
v 0.00666778 0.00846870 0.03291707
v 0.00361327 0.00928455 0.03297773
v 0.00361327 0.00966810 0.03325677
v 0.00301759 0.00991992 0.03329772
v 0.00361327 0.01028527 0.03345847
v 0.00027840 0.01139734 0.03352369
v 0.00593432 0.00940318 0.03338113
v 0.00027840 0.01235803 0.03343876
v 0.00083433 0.01139734 0.03355250
v 0.00139094 0.01139734 0.03356464
v 0.00027840 0.01195337 0.03354947
v 0.00270707 0.01173940 0.03339933
v 0.00520496 0.01109166 0.03334473
v 0.00655674 0.01083039 0.03318550
v 0.00666710 0.01042719 0.03339175
v 0.00653069 0.01139734 0.03196922
v -0.00033511 0.01338567 0.03141264
v -0.00033511 0.00952909 0.01807301
v 0.00647791 0.01167026 0.01807301
v 0.00659855 0.00919358 0.03334625
v 0.00416989 0.01028527 0.03347819
v 0.00653069 0.00973142 0.03346151
v 0.00083433 0.01195337 0.03352369
v 0.00528174 0.01028527 0.03348881
v 0.00583698 0.01028527 0.03347364
v 0.00194618 0.01139734 0.03353885
v 0.00583698 0.01069793 0.03341298
v 0.00583698 0.01186021 0.01807301
v 0.00557444 0.01167972 0.03176752
v -0.00033511 0.01339950 0.03087426
v -0.00033511 0.01365714 0.01807301
f 1 2 3
f 1 3 4
f 1 4 5
f 1 5 6
f 1 6 14
f 1 14 33
f 1 33 34
f 1 34 15
f 1 15 7
f 1 7 2
f 2 7 8
f 2 8 9
f 2 9 10
f 2 10 11
f 2 11 12
f 2 12 31
f 2 31 50
f 2 50 63
f 2 63 64
f 2 64 51
f 2 51 32
f 2 32 13
f 2 13 5
f 2 5 4
f 2 4 3
f 5 13 6
f 6 13 14
f 7 15 16
f 7 16 8
f 8 16 17
f 8 17 9
f 9 17 18
f 9 18 19
f 9 19 20
f 9 20 10
f 10 20 21
f 10 21 22
f 10 22 11
f 11 22 23
f 11 23 24
f 11 24 25
f 11 25 26
f 11 26 27
f 11 27 28
f 11 28 12
f 12 28 29
f 12 29 27
f 12 27 30
f 12 30 31
f 13 32 14
f 14 32 33
f 15 34 18
f 15 18 16
f 16 18 17
f 18 34 35
f 18 35 20
f 18 20 19
f 20 35 36
f 20 36 37
f 20 37 21
f 21 38 39
f 21 39 22
f 21 37 40
f 21 40 38
f 22 39 23
f 23 41 24
f 23 39 42
f 23 42 43
f 23 43 44
f 23 44 41
f 24 41 25
f 25 45 46
f 25 46 26
f 25 41 45
f 26 47 27
f 26 46 48
f 26 48 47
f 27 49 30
f 27 29 28
f 27 47 48
f 27 48 49
f 30 49 50
f 30 50 31
f 32 51 33
f 33 51 64
f 33 64 61
f 33 61 52
f 33 52 48
f 33 48 34
f 34 48 53
f 34 53 36
f 34 36 35
f 36 53 40
f 36 40 37
f 38 54 42
f 38 42 39
f 38 40 54
f 40 53 55
f 40 55 54
f 41 44 56
f 41 56 45
f 42 54 55
f 42 55 43
f 43 55 57
f 43 57 58
f 43 58 59
f 43 59 56
f 43 56 44
f 45 56 60
f 45 60 46
f 46 60 48
f 48 52 49
f 48 60 58
f 48 58 55
f 48 55 53
f 49 52 61
f 49 61 62
f 49 62 50
f 50 62 63
f 55 58 57
f 56 59 58
f 56 58 60
f 61 64 62
f 62 64 63

