# https://github.com/mikedh/trimesh
v 0.00038028 0.00294900 -0.01215374
v -0.00819779 0.00299912 -0.01215374
v 0.00032853 0.00860649 -0.01215374
v 0.00032853 0.00863433 -0.00861705
v 0.00032853 0.00860537 0.00434051
v 0.00033702 0.00294900 0.00186907
v -0.00531129 0.00294900 0.00451180
v -0.00828516 0.00309268 0.00434051
v -0.00791279 0.00368577 -0.01215374
v -0.00017870 0.00859758 -0.01215374
v -0.00027879 0.00862375 -0.00972961
v 0.00027764 0.00863823 -0.00917333
v -0.00027879 0.00862319 0.00434051
v -0.00204140 0.00836090 0.00451180
v 0.00025983 0.00500895 0.00451180
v -0.00017955 0.00478898 0.00451180
v -0.00025674 0.00294900 0.00217412
v -0.00707559 0.00533307 0.00451180
v -0.00806462 0.00361449 0.00434051
v -0.00761930 0.00419589 -0.01215374
v -0.00784578 0.00400933 -0.00083403
v -0.00769988 0.00429279 -0.00027938
v -0.00073514 0.00853799 -0.01215374
v -0.00142050 0.00844443 -0.01215374
v -0.00250283 0.00824116 0.00451180
v -0.00232470 0.00828237 -0.00527937
v -0.00671340 0.00584819 0.00451180
v -0.00680077 0.00574517 0.00361295
v -0.00717059 0.00519830 0.00361295
v -0.00734618 0.00492542 0.00425405
v -0.00780167 0.00415412 0.00425405
v -0.00778640 0.00418141 0.00361295
v -0.00635206 0.00599187 -0.01215374
v -0.00747511 0.00472661 0.00361295
v -0.00660313 0.00599466 -0.00139031
v -0.00659974 0.00598630 -0.00194659
v -0.00627742 0.00635107 -0.00639356
v -0.00250283 0.00822891 -0.01215374
v -0.00305926 0.00808189 0.00451180
v -0.00304484 0.00807966 -0.01215374
v -0.00613916 0.00649308 0.00451180
v -0.00660822 0.00602807 0.00305667
v -0.00661077 0.00602584 0.00250202
v -0.00661246 0.00601860 0.00138946
v -0.00661162 0.00601637 0.00083318
v -0.00661077 0.00601359 0.00027690
v -0.00590590 0.00648138 -0.01215374
v -0.00660822 0.00600746 -0.00027938
v -0.00628251 0.00644240 -0.00191396
v -0.00620193 0.00656046 -0.00152244
v -0.00592116 0.00670804 -0.00639356
v -0.00396516 0.00774943 0.00451180
v -0.00387865 0.00777894 -0.00194659
v -0.00343248 0.00792095 -0.01215374
v -0.00574049 0.00678377 0.00451180
v -0.00594152 0.00674089 0.00083318
v -0.00541478 0.00687065 -0.01215374
v -0.00464205 0.00732062 -0.01215374
v -0.00520526 0.00718585 0.00083318
v -0.00489651 0.00729779 0.00451180
v -0.00416959 0.00766199 0.00361295
v -0.00385320 0.00776836 -0.00639356
v -0.00505937 0.00725546 0.00027690
v -0.00384981 0.00776669 -0.00694821
f 1 2 9
f 1 9 20
f 1 20 33
f 1 33 47
f 1 47 57
f 1 57 58
f 1 58 54
f 1 54 40
f 1 40 38
f 1 38 24
f 1 24 23
f 1 23 10
f 1 10 3
f 1 3 4
f 1 4 5
f 1 5 6
f 1 6 17
f 1 17 7
f 1 7 2
f 2 8 9
f 2 7 8
f 3 10 11
f 3 11 12
f 3 12 4
f 4 12 5
f 5 13 14
f 5 14 15
f 5 15 6
f 5 12 13
f 6 15 16
f 6 16 17
f 7 17 16
f 7 16 15
f 7 15 14
f 7 14 25
f 7 25 39
f 7 39 52
f 7 52 60
f 7 60 55
f 7 55 41
f 7 41 27
f 7 27 18
f 7 18 8
f 8 18 19
f 8 19 9
f 9 19 21
f 9 21 22
f 9 22 20
f 10 23 11
f 11 23 24
f 11 24 14
f 11 14 13
f 11 13 12
f 14 24 26
f 14 26 25
f 18 27 28
f 18 28 29
f 18 29 30
f 18 30 31
f 18 31 19
f 19 31 32
f 19 32 21
f 20 22 34
f 20 34 35
f 20 35 36
f 20 36 37
f 20 37 33
f 21 32 22
f 22 32 34
f 24 38 26
f 25 26 38
f 25 38 40
f 25 40 39
f 27 41 42
f 27 42 28
f 28 42 43
f 28 43 29
f 29 34 30
f 29 43 44
f 29 44 45
f 29 45 46
f 29 46 34
f 30 34 31
f 31 34 32
f 33 37 47
f 34 46 48
f 34 48 35
f 35 48 49
f 35 49 37
f 35 37 36
f 37 49 50
f 37 50 51
f 37 51 47
f 39 40 53
f 39 53 52
f 40 54 53
f 41 55 56
f 41 56 50
f 41 50 42
f 42 50 43
f 43 50 44
f 44 50 45
f 45 50 46
f 46 50 49
f 46 49 48
f 47 51 57
f 50 56 51
f 51 58 57
f 51 56 59
f 51 59 58
f 52 53 61
f 52 61 60
f 53 54 62
f 53 62 63
f 53 63 61
f 54 58 63
f 54 63 64
f 54 64 62
f 55 60 56
f 56 60 59
f 58 59 63
f 59 60 61
f 59 61 63
f 62 64 63

