# https://github.com/mikedh/trimesh
v 0.00038027 -0.00849040 -0.00361425
v 0.00244468 -0.00786061 -0.00194676
v 0.00038027 -0.00848201 -0.00305943
v 0.00038027 -0.00847109 -0.01215374
v 0.00055120 -0.00845094 -0.01215374
v 0.00076290 -0.00841651 -0.01215374
v 0.00196331 -0.00813604 -0.01215374
v 0.00250206 -0.00798825 -0.01215374
v 0.00291911 -0.00786061 -0.01215374
v 0.00272251 -0.00776236 -0.00194676
v 0.00232056 -0.00782030 0.00305722
v 0.00231513 -0.00781778 0.00324719
v 0.00194579 -0.00792275 0.00305722
v 0.00194579 -0.00791855 0.00324719
v 0.00056841 -0.00834429 0.00066303
v 0.00038027 -0.00839887 0.00041276
v 0.00038027 0.00008822 -0.01215374
v 0.00346541 -0.00760953 -0.01215374
v 0.00305802 -0.00761121 -0.00139043
v 0.00275603 -0.00764564 0.00324719
v 0.00259296 -0.00771114 0.00324719
v 0.00206901 -0.00788496 0.00324719
v 0.00038027 -0.00831154 0.00324719
v 0.00346541 0.00008822 -0.01215374
v 0.00038027 0.00008822 0.00103241
v 0.00346541 -0.00732906 0.00324719
v 0.00305802 -0.00751884 0.00324719
v 0.00038027 -0.00516090 0.00324719
v 0.00346541 0.00008822 -0.00090646
v 0.00346541 -0.00367207 0.00324719
v 0.00064814 0.00008822 0.00089371
v 0.00343189 0.00008822 -0.00088083
v 0.00306074 0.00008822 -0.00061699
v 0.00287774 0.00008822 -0.00049487
v 0.00118659 0.00008822 0.00060423
v 0.00084353 0.00008822 0.00079118
v 0.00068559 0.00008822 0.00087411
f 1 2 3
f 1 3 16
f 1 16 23
f 1 23 28
f 1 28 25
f 1 25 17
f 1 17 4
f 1 4 5
f 1 5 6
f 1 6 7
f 1 7 8
f 1 8 2
f 2 8 9
f 2 9 10
f 2 10 11
f 2 11 3
f 3 11 12
f 3 12 13
f 3 13 14
f 3 14 15
f 3 15 16
f 4 17 24
f 4 24 18
f 4 18 9
f 4 9 8
f 4 8 7
f 4 7 6
f 4 6 5
f 9 18 19
f 9 19 10
f 10 19 20
f 10 20 21
f 10 21 11
f 11 21 12
f 12 21 20
f 12 20 27
f 12 27 26
f 12 26 30
f 12 30 28
f 12 28 23
f 12 23 14
f 12 14 22
f 12 22 13
f 13 22 14
f 14 23 15
f 15 23 16
f 17 25 31
f 17 31 37
f 17 37 36
f 17 36 35
f 17 35 34
f 17 34 33
f 17 33 32
f 17 32 29
f 17 29 24
f 18 24 29
f 18 29 30
f 18 30 26
f 18 26 19
f 19 26 27
f 19 27 20
f 25 28 30
f 25 30 31
f 29 32 30
f 30 33 34
f 30 34 35
f 30 35 36
f 30 36 37
f 30 37 31
f 30 32 33

