# https://github.com/mikedh/trimesh
v -0.01551224 0.00059882 -0.02355341
v -0.01200147 -0.00022928 -0.02355341
v -0.01454561 0.00010104 -0.01403397
v -0.01546851 0.00084157 -0.01591309
v -0.01528918 0.00272669 -0.02276673
v -0.01489698 0.00432759 -0.02343067
v -0.01421466 0.00615279 -0.02355341
v -0.00061768 -0.00022928 -0.02213738
v -0.00061768 -0.00022928 -0.01215374
v -0.00740013 0.00217975 -0.02355341
v -0.00881582 0.00019476 -0.01215374
v -0.01346672 0.00172037 -0.01338008
v -0.01472786 0.00187555 -0.01434084
v -0.01481096 0.00381291 -0.01518443
v -0.01520170 0.00322448 -0.01679462
v -0.01436629 0.00590083 -0.01952960
v -0.01331509 0.00789503 -0.02355341
v -0.00529921 0.00436446 -0.02355341
v -0.00380625 0.00653689 -0.02355341
v -0.00061768 0.01194336 -0.02355341
v -0.00072703 0.01360878 -0.01339235
v -0.00107694 0.00849115 -0.01215374
v -0.00802560 0.00332895 -0.01215374
v -0.01108003 0.00805021 -0.01350059
v -0.01238637 0.00636788 -0.01364677
v -0.01374228 0.00368846 -0.01382865
v -0.01422195 0.00518027 -0.01485637
v -0.01412426 0.00623576 -0.01606150
v -0.01315326 0.00823457 -0.01946042
v -0.01202334 0.00989078 -0.02182270
v -0.01178131 0.01013967 -0.02343290
v -0.01055808 0.01141793 -0.02355341
v -0.00385145 0.01492852 -0.02355341
v -0.00107548 0.01546625 -0.02304904
v -0.00128106 0.01543860 -0.01744629
v -0.00124169 0.01502839 -0.01494117
v -0.00236432 0.01436314 -0.01411766
v -0.00273902 0.01312329 -0.01332652
v -0.00287169 0.00811320 -0.01215374
v -0.00600778 0.00633562 -0.01215374
v -0.00731849 0.01095241 -0.01329192
v -0.00926195 0.01043772 -0.01365793
v -0.01102755 0.00960655 -0.01409646
v -0.01269692 0.00814393 -0.01474813
v -0.01290832 0.00857872 -0.01653797
v -0.01142703 0.01054527 -0.01606931
v -0.01105525 0.01102922 -0.02060641
v -0.00971101 0.01221376 -0.02119670
v -0.00845132 0.01300038 -0.02355341
v -0.00444921 0.01479332 -0.02140537
v -0.00341843 0.01507602 -0.01800087
v -0.00608359 0.01421104 -0.02313496
v -0.00264279 0.01521736 -0.01668080
v -0.00420282 0.01477796 -0.01589635
v -0.00654431 0.01384231 -0.01535069
v -0.00482683 0.01341674 -0.01394917
v -0.00464312 0.00732197 -0.01215374
v -0.00753426 0.01285443 -0.01459972
v -0.00997927 0.01183121 -0.01581155
v -0.00904472 0.01274381 -0.01786139
v -0.00698024 0.01384078 -0.02157945
v -0.00575701 0.01438004 -0.02015449
v -0.00576284 0.01437697 -0.01826087
v -0.00722372 0.01374399 -0.01713384
f 1 2 3
f 1 3 4
f 1 4 5
f 1 5 6
f 1 6 7
f 1 7 17
f 1 17 32
f 1 32 49
f 1 49 33
f 1 33 20
f 1 20 19
f 1 19 18
f 1 18 10
f 1 10 2
f 2 8 9
f 2 9 3
f 2 10 8
f 3 9 11
f 3 11 12
f 3 12 13
f 3 13 4
f 4 13 14
f 4 14 15
f 4 15 5
f 5 15 6
f 6 15 16
f 6 16 7
f 7 16 17
f 8 10 18
f 8 18 19
f 8 19 20
f 8 20 9
f 9 20 21
f 9 21 22
f 9 22 39
f 9 39 57
f 9 57 40
f 9 40 23
f 9 23 11
f 11 23 12
f 12 23 24
f 12 24 25
f 12 25 26
f 12 26 13
f 13 26 27
f 13 27 14
f 14 27 28
f 14 28 15
f 15 28 16
f 16 28 29
f 16 29 17
f 17 29 30
f 17 30 31
f 17 31 32
f 20 33 34
f 20 34 21
f 21 34 35
f 21 35 36
f 21 36 37
f 21 37 38
f 21 38 22
f 22 38 39
f 23 40 24
f 24 40 41
f 24 41 42
f 24 42 43
f 24 43 25
f 25 43 44
f 25 44 27
f 25 27 26
f 27 44 28
f 28 44 45
f 28 45 29
f 29 45 30
f 30 46 47
f 30 47 31
f 30 45 46
f 31 47 32
f 32 47 48
f 32 48 49
f 33 50 51
f 33 51 34
f 33 49 52
f 33 52 50
f 34 51 53
f 34 53 35
f 35 53 36
f 36 53 54
f 36 54 37
f 37 55 56
f 37 56 38
f 37 54 55
f 38 56 41
f 38 41 39
f 39 41 57
f 40 57 41
f 41 56 42
f 42 56 58
f 42 58 43
f 43 58 59
f 43 59 46
f 43 46 44
f 44 46 45
f 46 59 60
f 46 60 47
f 47 60 48
f 48 60 49
f 49 60 61
f 49 61 52
f 50 52 62
f 50 62 63
f 50 63 51
f 51 63 54
f 51 54 53
f 52 61 62
f 54 63 64
f 54 64 55
f 55 64 59
f 55 59 58
f 55 58 56
f 59 64 60
f 60 64 61
f 61 64 62
f 62 64 63

