# https://github.com/mikedh/trimesh
v 0.01156684 -0.00676184 0.03118531
v 0.01125231 -0.00676184 0.01770173
v 0.01150277 -0.00676184 0.03224697
v 0.01056967 -0.00779129 0.03167389
v 0.00482198 -0.01316754 0.01862819
v 0.00496643 -0.01298570 0.01788764
v 0.00441542 -0.01349928 0.01770173
v 0.00556519 -0.00676184 0.01770173
v 0.01031106 -0.00676184 0.03333936
v 0.01110553 -0.00676336 0.03298753
v 0.00469034 -0.01342776 0.03216708
v 0.00943504 -0.00888236 0.03196888
v 0.00482897 -0.01343917 0.03141270
v 0.00455405 -0.01343537 0.01918437
v 0.00376889 -0.01401438 0.01770173
v -0.00033394 -0.00916008 0.01770173
v -0.00033394 -0.00872867 0.01921203
v -0.00033394 -0.00861302 0.02003247
v 0.00508758 -0.00676184 0.02112947
v 0.00936165 -0.00676184 0.03339621
v 0.00725199 -0.00890291 0.03336087
v 0.00472762 -0.01139701 0.03331324
v 0.00444920 -0.01195397 0.03325332
v 0.00361512 -0.01306559 0.03316421
v 0.00534153 -0.01227809 0.03282774
v 0.00422903 -0.01325580 0.03282928
v 0.00409973 -0.01376101 0.03231458
v 0.00424884 -0.01393830 0.03141270
v 0.00403100 -0.01398775 0.02585241
v 0.00361512 -0.01412927 0.01862819
v 0.00305946 -0.01437427 0.01862819
v 0.00280434 -0.01438797 0.01788764
v 0.00169185 -0.01429742 0.01788764
v -0.00033394 -0.01364536 0.01770173
v -0.00033394 -0.01030670 0.03141270
v 0.00657867 -0.00676184 0.03196274
v 0.00774825 -0.00774716 0.03336856
v 0.00758399 -0.00676184 0.03296601
v 0.00847865 -0.00697945 0.03334705
v -0.00031880 -0.01223168 0.03319187
v 0.00278104 -0.01306559 0.03320723
v 0.00250263 -0.01380971 0.03300750
v 0.00330176 -0.01368721 0.03290917
v 0.00361512 -0.01415818 0.03196888
v 0.00250263 -0.01422590 0.03252506
v 0.00361512 -0.01427536 0.03113614
v 0.00361512 -0.01425558 0.02640860
v 0.00324701 -0.01444199 0.02640860
v 0.00309557 -0.01449449 0.02835523
v 0.00227547 -0.01451807 0.02752096
v 0.00175592 -0.01446557 0.03166621
v -0.00033394 -0.01387210 0.03141270
v -0.00033394 -0.01060191 0.03227156
v 0.00705745 -0.00676184 0.03264951
v -0.00033394 -0.01120908 0.03290456
v -0.00030482 -0.01324439 0.03295219
v 0.00055722 -0.01306559 0.03314270
v 0.00027997 -0.01350536 0.03291531
v 0.00182698 -0.01396188 0.03279855
v 0.00274959 -0.01446025 0.03164777
v -0.00004854 -0.01381047 0.03233455
v 0.00309091 -0.01446253 0.03085805
v 0.00250263 -0.01453481 0.03085805
f 1 2 8
f 1 8 19
f 1 19 36
f 1 36 54
f 1 54 38
f 1 38 20
f 1 20 9
f 1 9 3
f 1 3 4
f 1 4 2
f 2 5 6
f 2 6 7
f 2 7 15
f 2 15 34
f 2 34 16
f 2 16 8
f 2 4 5
f 3 9 10
f 3 10 11
f 3 11 12
f 3 12 4
f 4 12 13
f 4 13 5
f 5 13 14
f 5 14 7
f 5 7 6
f 7 14 15
f 8 16 17
f 8 17 18
f 8 18 19
f 9 20 21
f 9 21 22
f 9 22 23
f 9 23 24
f 9 24 25
f 9 25 10
f 10 25 11
f 11 25 26
f 11 26 27
f 11 27 28
f 11 28 13
f 11 13 12
f 13 28 14
f 14 28 29
f 14 29 15
f 15 29 30
f 15 30 31
f 15 31 32
f 15 32 33
f 15 33 34
f 16 34 52
f 16 52 55
f 16 55 53
f 16 53 35
f 16 35 18
f 16 18 17
f 18 35 36
f 18 36 19
f 20 37 21
f 20 38 39
f 20 39 40
f 20 40 37
f 21 37 22
f 22 37 40
f 22 40 41
f 22 41 24
f 22 24 23
f 24 41 42
f 24 42 43
f 24 43 26
f 24 26 25
f 26 43 27
f 27 44 28
f 27 43 45
f 27 45 44
f 28 46 47
f 28 47 29
f 28 44 46
f 29 47 30
f 30 47 48
f 30 48 31
f 31 48 49
f 31 49 32
f 32 49 50
f 32 50 33
f 33 50 51
f 33 51 52
f 33 52 34
f 35 53 36
f 36 53 54
f 38 54 53
f 38 53 55
f 38 55 39
f 39 55 40
f 40 56 57
f 40 57 41
f 40 55 52
f 40 52 56
f 41 57 42
f 42 57 58
f 42 58 59
f 42 59 45
f 42 45 43
f 44 45 60
f 44 60 46
f 45 59 61
f 45 61 51
f 45 51 60
f 46 60 62
f 46 62 49
f 46 49 48
f 46 48 47
f 49 62 63
f 49 63 50
f 50 63 51
f 51 63 60
f 51 61 52
f 52 61 56
f 56 61 58
f 56 58 57
f 58 61 59
f 60 63 62

