# https://github.com/mikedh/trimesh
v -0.00033511 0.00559363 0.00841257
v -0.00033511 0.00569575 0.01416559
v -0.00033511 0.00858425 0.00841257
v 0.00516188 -0.00013231 0.00841257
v 0.00491715 -0.00013231 0.01416559
v -0.00033511 0.00886068 0.01416559
v -0.00027733 0.00858689 0.00841257
v 0.00806460 -0.00013231 0.00841257
v 0.00834501 -0.00013231 0.01416559
v -0.00027733 0.00886156 0.01416559
v -0.00007169 0.00857984 0.00841257
v 0.00806545 0.00027883 0.00841257
v 0.00832887 0.00028763 0.01416559
v 0.00027841 0.00881578 0.01416559
v 0.00027841 0.00856136 0.00841257
v 0.00801191 0.00083434 0.00841257
v 0.00797962 0.00104035 0.00841257
v 0.00792184 0.00139073 0.00841257
v 0.00782752 0.00189343 0.00841257
v 0.00791249 0.00250264 0.01416559
v 0.00083414 0.00874711 0.01416559
v 0.00048404 0.00851646 0.00841257
v 0.00779438 0.00206862 0.00841257
v 0.00777399 0.00217162 0.00841257
v 0.00769156 0.00250264 0.00841257
v 0.00776039 0.00305816 0.01416559
v 0.00138562 0.00860890 0.01416559
v 0.00086558 0.00842138 0.00841257
v 0.00752416 0.00305816 0.00841257
v 0.00745193 0.00324568 0.00841257
v 0.00752671 0.00365945 0.01416559
v 0.00250218 0.00826643 0.01416559
v 0.00250218 0.00796711 0.00841257
v 0.00732872 0.00355909 0.00841257
v 0.00730153 0.00417095 0.01416559
v 0.00307746 0.00806747 0.01416559
v 0.00289221 0.00782889 0.00841257
v 0.00720211 0.00383729 0.00841257
v 0.00697863 0.00477048 0.01416559
v 0.00361450 0.00782272 0.01416559
v 0.00317008 0.00771180 0.00841257
v 0.00713413 0.00395878 0.00841257
v 0.00701092 0.00417095 0.00841257
v 0.00615693 0.00562004 0.00841257
v 0.00662853 0.00531367 0.01416559
v 0.00417533 0.00750843 0.01416559
v 0.00361450 0.00748114 0.00841257
v 0.00587906 0.00589735 0.00841257
v 0.00577794 0.00634106 0.01416559
v 0.00622915 0.00584893 0.01416559
v 0.00641950 0.00559627 0.01416559
v 0.00439456 0.00698901 0.00841257
v 0.00424585 0.00709202 0.00841257
v 0.00396884 0.00727601 0.00841257
v 0.00495539 0.00695908 0.01416559
v 0.00560119 0.00614386 0.00841257
v 0.00577624 0.00598979 0.00841257
v 0.00526470 0.00673018 0.01416559
f 1 2 6
f 1 6 3
f 1 3 7
f 1 7 11
f 1 11 15
f 1 15 22
f 1 22 28
f 1 28 33
f 1 33 37
f 1 37 41
f 1 41 47
f 1 47 54
f 1 54 53
f 1 53 52
f 1 52 56
f 1 56 57
f 1 57 48
f 1 48 44
f 1 44 43
f 1 43 42
f 1 42 38
f 1 38 34
f 1 34 30
f 1 30 29
f 1 29 25
f 1 25 24
f 1 24 23
f 1 23 19
f 1 19 18
f 1 18 17
f 1 17 16
f 1 16 12
f 1 12 8
f 1 8 4
f 1 4 5
f 1 5 2
f 2 5 9
f 2 9 13
f 2 13 20
f 2 20 26
f 2 26 31
f 2 31 35
f 2 35 39
f 2 39 45
f 2 45 51
f 2 51 50
f 2 50 49
f 2 49 58
f 2 58 55
f 2 55 46
f 2 46 40
f 2 40 36
f 2 36 32
f 2 32 27
f 2 27 21
f 2 21 14
f 2 14 10
f 2 10 6
f 3 6 7
f 4 8 9
f 4 9 5
f 6 10 7
f 7 10 11
f 8 12 9
f 9 12 13
f 10 14 15
f 10 15 11
f 12 16 13
f 13 16 17
f 13 17 18
f 13 18 19
f 13 19 20
f 14 21 15
f 15 21 22
f 19 23 20
f 20 23 24
f 20 24 25
f 20 25 26
f 21 27 28
f 21 28 22
f 25 29 26
f 26 29 30
f 26 30 31
f 27 32 33
f 27 33 28
f 30 34 31
f 31 34 35
f 32 36 33
f 33 36 37
f 34 38 35
f 35 38 39
f 36 40 41
f 36 41 37
f 38 42 39
f 39 42 43
f 39 43 44
f 39 44 45
f 40 46 47
f 40 47 41
f 44 48 49
f 44 49 50
f 44 50 51
f 44 51 45
f 46 52 53
f 46 53 54
f 46 54 47
f 46 55 56
f 46 56 52
f 48 57 49
f 49 57 56
f 49 56 58
f 55 58 56

