# https://github.com/mikedh/trimesh
v -0.00764439 0.00410810 0.02077479
v -0.01464992 0.00413918 0.02077479
v -0.00513662 0.00708719 0.02077479
v -0.00513662 0.00886541 0.03196870
v -0.00699599 0.00714370 0.03220125
v -0.00935542 0.00491244 0.03216124
v -0.01022494 0.00418251 0.03231753
v -0.01078284 0.00410810 0.03281640
v -0.01309376 0.00410810 0.03343280
v -0.01441109 0.00468828 0.02077479
v -0.01442415 0.00411658 0.03238255
v -0.01466672 0.00413918 0.03030080
v -0.00513662 0.01373009 0.02077479
v -0.00513662 0.01154404 0.03354407
v -0.00525137 0.01012373 0.03338028
v -0.00533441 0.00903494 0.03277889
v -0.00774235 0.00663510 0.03266637
v -0.00835437 0.00612649 0.03278890
v -0.01010085 0.00466568 0.03280640
v -0.01145923 0.00410810 0.03311772
v -0.01236419 0.00410810 0.03335153
v -0.00695121 0.00917245 0.03351282
v -0.00639517 0.01028573 0.03354532
v -0.00513662 0.01210068 0.03352907
v -0.01338391 0.00448390 0.03337529
v -0.01392315 0.00433603 0.03305896
v -0.01406869 0.00515450 0.02077479
v -0.01437937 0.00464119 0.03085719
v -0.01430753 0.00479000 0.02641238
v -0.01399592 0.00486441 0.03220125
v -0.01450065 0.00433132 0.03158486
v -0.01465739 0.00413918 0.03085719
v -0.01365820 0.00559152 0.02077479
v -0.00539598 0.01348144 0.03081217
v -0.00518980 0.01361989 0.03141357
v -0.00583913 0.01084048 0.03354782
v -0.00583913 0.01028573 0.03353032
v -0.00520939 0.01091489 0.03351157
v -0.00583260 0.00972061 0.03343780
v -0.00564321 0.00952942 0.03332777
v -0.00634293 0.00898785 0.03336778
v -0.01034062 0.00533910 0.03323525
v -0.01177177 0.00453476 0.03334278
v -0.00697267 0.00862429 0.03342405
v -0.00517021 0.01288054 0.03327276
v -0.01274111 0.00525528 0.03334403
v -0.01299860 0.00577141 0.03264136
v -0.01403418 0.00516203 0.02529962
v -0.01383452 0.00522231 0.03141357
v -0.01385132 0.00523832 0.03085719
v -0.01386251 0.00524963 0.03030080
v -0.01402951 0.00514414 0.02696751
v -0.01337738 0.00559623 0.03212999
v -0.01390170 0.00529484 0.02641238
v -0.01364047 0.00557457 0.02585600
v -0.01350426 0.00572338 0.02418810
v -0.01161597 0.00745168 0.03085719
v -0.01175031 0.00730381 0.03141357
v -0.01349586 0.00570643 0.02641238
v -0.00532787 0.01341834 0.03193619
v -0.00528776 0.01331379 0.03263136
v -0.00563015 0.01286358 0.03290267
v -0.01345201 0.00566404 0.03030080
v -0.01184640 0.00712580 0.03196870
f 1 2 10
f 1 10 27
f 1 27 33
f 1 33 13
f 1 13 3
f 1 3 4
f 1 4 5
f 1 5 6
f 1 6 7
f 1 7 8
f 1 8 20
f 1 20 21
f 1 21 9
f 1 9 2
f 2 9 11
f 2 11 12
f 2 12 10
f 3 13 24
f 3 24 14
f 3 14 4
f 4 14 15
f 4 15 16
f 4 16 5
f 5 16 17
f 5 17 6
f 6 17 18
f 6 18 7
f 7 18 19
f 7 19 8
f 8 19 20
f 9 21 22
f 9 22 23
f 9 23 24
f 9 24 25
f 9 25 26
f 9 26 11
f 10 12 28
f 10 28 29
f 10 29 27
f 11 26 30
f 11 30 31
f 11 31 32
f 11 32 12
f 12 32 28
f 13 33 34
f 13 34 35
f 13 35 24
f 14 24 36
f 14 36 37
f 14 37 38
f 14 38 15
f 15 38 39
f 15 39 40
f 15 40 16
f 16 40 18
f 16 18 17
f 18 40 41
f 18 41 20
f 18 20 19
f 20 42 43
f 20 43 21
f 20 41 42
f 21 43 44
f 21 44 22
f 22 39 37
f 22 37 23
f 22 44 39
f 23 37 36
f 23 36 24
f 24 45 46
f 24 46 25
f 24 35 45
f 25 46 26
f 26 47 30
f 26 46 47
f 27 29 48
f 27 48 33
f 28 32 31
f 28 31 30
f 28 30 49
f 28 49 50
f 28 50 51
f 28 51 52
f 28 52 48
f 28 48 29
f 30 53 49
f 30 47 53
f 33 48 54
f 33 54 55
f 33 55 56
f 33 56 34
f 34 57 58
f 34 58 35
f 34 56 55
f 34 55 59
f 34 59 57
f 35 58 60
f 35 60 61
f 35 61 45
f 37 39 38
f 39 44 41
f 39 41 40
f 41 44 42
f 42 44 43
f 45 61 62
f 45 62 46
f 46 62 47
f 47 62 61
f 47 61 53
f 48 52 54
f 49 58 50
f 49 53 58
f 50 58 63
f 50 63 51
f 51 55 54
f 51 54 52
f 51 63 55
f 53 64 58
f 53 61 64
f 55 63 59
f 57 59 63
f 57 63 58
f 58 64 60
f 60 64 61

