# https://github.com/mikedh/trimesh
v -0.00033233 -0.01360682 0.01609551
v -0.00031850 -0.01365143 0.01732174
v -0.00033233 -0.00915807 0.01769983
v -0.00033233 -0.00486965 0.01395703
v -0.00030467 -0.01195335 0.01416805
v 0.00005080 -0.01306449 0.01461465
v 0.00127764 -0.01396790 0.01540344
v 0.00074236 -0.01398603 0.01670038
v 0.00171609 -0.01429553 0.01763022
v 0.00282813 -0.01437500 0.01767638
v 0.00460684 -0.01332102 0.01769983
v 0.00897892 -0.00013510 0.01769983
v -0.00033233 -0.00509132 0.01704440
v -0.00033233 -0.00462149 0.01506419
v 0.00494985 -0.00013510 0.01395703
v 0.00013240 -0.00831600 0.01395703
v 0.00159714 -0.00805669 0.01395703
v 0.00349203 -0.00741259 0.01395703
v 0.00417115 -0.01111964 0.01421971
v 0.00111304 -0.01223079 0.01422630
v 0.00111304 -0.01322064 0.01452709
v 0.00222647 -0.01423000 0.01584601
v 0.00166906 -0.01423698 0.01668023
v 0.00291941 -0.01333077 0.01480626
v 0.00278110 -0.01433875 0.01668023
v 0.00392495 -0.01388565 0.01724443
v 0.00457641 -0.01294738 0.01539098
v 0.00998861 -0.00776391 0.01508031
v 0.01295404 -0.00518752 0.01706235
v 0.01379637 -0.00395787 0.01762033
v 0.01306193 -0.00013510 0.01728254
v 0.00525553 -0.00013510 0.01681798
v -0.00033233 -0.00455457 0.01614094
v 0.00468706 -0.00013510 0.01564158
v 0.01304948 -0.00017135 0.01607646
v 0.01236759 -0.00037629 0.01469232
v 0.00814489 -0.00043484 0.01395703
v 0.00546715 -0.00604632 0.01395703
v 0.00778251 -0.00820029 0.01425122
v 0.00555705 -0.01056477 0.01427979
v 0.00376036 -0.01239669 0.01446041
v 0.00334542 -0.01394281 0.01572438
v 0.00690284 -0.01028594 0.01464030
v 0.01017118 -0.00739307 0.01485352
v 0.01202320 -0.00554860 0.01515395
v 0.01298171 -0.00482364 0.01582183
v 0.01362901 -0.00417118 0.01668023
v 0.01348793 -0.00350477 0.01568298
v 0.01376041 -0.00270174 0.01721549
v 0.01347549 -0.00183597 0.01572914
v 0.01291808 -0.00111380 0.01488723
v 0.01186275 -0.00222494 0.01441205
v 0.00796647 -0.00160593 0.01395703
v 0.00629288 -0.00513872 0.01395703
v 0.00993190 -0.00715188 0.01448313
v 0.00754046 -0.00948430 0.01441279
v 0.01065528 -0.00534227 0.01434427
v 0.01066911 -0.00654124 0.01465019
v 0.01176593 -0.00447371 0.01453698
v 0.01282541 -0.00340021 0.01492607
v 0.01284754 -0.00222494 0.01482275
v 0.01186828 -0.00347689 0.01446334
v 0.00746854 -0.00303076 0.01395703
v 0.00694295 -0.00405965 0.01395703
f 1 2 3
f 1 3 13
f 1 13 33
f 1 33 14
f 1 14 4
f 1 4 5
f 1 5 6
f 1 6 7
f 1 7 8
f 1 8 2
f 2 8 9
f 2 9 3
f 3 9 10
f 3 10 11
f 3 11 12
f 3 12 13
f 4 14 15
f 4 15 37
f 4 37 53
f 4 53 63
f 4 63 64
f 4 64 54
f 4 54 38
f 4 38 18
f 4 18 17
f 4 17 16
f 4 16 5
f 5 16 17
f 5 17 18
f 5 18 19
f 5 19 20
f 5 20 21
f 5 21 6
f 6 21 7
f 7 22 23
f 7 23 8
f 7 21 24
f 7 24 22
f 8 23 9
f 9 23 25
f 9 25 10
f 10 25 26
f 10 26 11
f 11 26 27
f 11 27 28
f 11 28 29
f 11 29 30
f 11 30 12
f 12 31 15
f 12 15 34
f 12 34 32
f 12 32 13
f 12 30 31
f 13 32 33
f 14 33 34
f 14 34 15
f 15 31 35
f 15 35 36
f 15 36 37
f 18 38 19
f 19 38 39
f 19 39 40
f 19 40 41
f 19 41 20
f 20 41 21
f 21 41 24
f 22 24 42
f 22 42 25
f 22 25 23
f 24 41 27
f 24 27 42
f 25 42 26
f 26 42 27
f 27 41 43
f 27 43 28
f 28 43 44
f 28 44 45
f 28 45 46
f 28 46 29
f 29 46 47
f 29 47 30
f 30 47 48
f 30 48 49
f 30 49 31
f 31 49 35
f 32 34 33
f 35 49 50
f 35 50 51
f 35 51 36
f 36 51 52
f 36 52 37
f 37 52 53
f 38 54 39
f 39 55 56
f 39 56 40
f 39 54 57
f 39 57 55
f 40 56 41
f 41 56 43
f 43 56 44
f 44 55 58
f 44 58 45
f 44 56 55
f 45 59 60
f 45 60 48
f 45 48 46
f 45 58 59
f 46 48 47
f 48 60 61
f 48 61 51
f 48 51 50
f 48 50 49
f 51 61 52
f 52 61 62
f 52 62 57
f 52 57 53
f 53 57 63
f 54 64 57
f 55 57 59
f 55 59 58
f 57 64 63
f 57 62 59
f 59 62 60
f 60 62 61

