# https://github.com/mikedh/trimesh
v 0.00815935 -0.00020564 0.01395598
v 0.00813274 -0.00067223 0.01395598
v 0.00806456 -0.00020564 0.00841394
v 0.00516101 -0.00013231 0.00841394
v 0.00494732 -0.00013231 0.01395598
v 0.00807703 -0.00118153 0.01395598
v 0.00782841 -0.00195354 0.00325130
v 0.00469372 -0.00195354 0.00325130
v 0.00038163 -0.00516004 0.00325130
v -0.00033511 -0.00521081 0.00841394
v -0.00033511 -0.00486590 0.01395598
v 0.00801716 -0.00142974 0.01395598
v 0.00777769 -0.00211552 0.00325130
v 0.00788745 -0.00190680 0.01395598
v 0.00038163 -0.00831094 0.00325130
v -0.00033511 -0.00833108 0.00841394
v -0.00033511 -0.00833592 0.00860468
v -0.00025196 -0.00836493 0.01395598
v 0.00772198 -0.00228555 0.00325130
v 0.00750497 -0.00294152 0.01395598
v 0.00764632 -0.00250313 0.00325130
v 0.00200885 -0.00790076 0.00325130
v 0.00179349 -0.00801116 0.01395598
v 0.00131705 -0.00813042 0.01395598
v 0.00075164 -0.00823035 0.01395598
v 0.00028019 -0.00830691 0.01395598
v 0.00004155 -0.00835042 0.00917377
v 0.00003241 -0.00834801 0.00874827
v -0.00016465 -0.00834801 0.00874827
v -0.00026194 -0.00834559 0.00917377
v 0.00743263 -0.00311881 0.01395598
v 0.00740186 -0.00312042 0.00325130
v 0.00757232 -0.00269412 0.00325130
v 0.00231650 -0.00781695 0.00325130
v 0.00196561 -0.00795878 0.01395598
v 0.00699527 -0.00397382 0.01395598
v 0.00705014 -0.00386342 0.00325130
v 0.00713329 -0.00370064 0.00325130
v 0.00726799 -0.00342262 0.00325130
v 0.00259421 -0.00771057 0.00325130
v 0.00341073 -0.00745431 0.01395598
v 0.00689383 -0.00414547 0.01395598
v 0.00670757 -0.00450891 0.00325130
v 0.00686057 -0.00422847 0.00325130
v 0.00275719 -0.00764449 0.00325130
v 0.00357287 -0.00737211 0.01395598
v 0.00313468 -0.00748252 0.00325130
v 0.00350137 -0.00731248 0.00325130
v 0.00634421 -0.00505447 0.01395598
v 0.00655874 -0.00473858 0.00325130
v 0.00507869 -0.00637849 0.01395598
v 0.00373169 -0.00718919 0.00325130
v 0.00416822 -0.00691439 0.00325130
v 0.00623612 -0.00521564 0.01395598
v 0.00624859 -0.00517616 0.00325130
v 0.00524083 -0.00625923 0.01395598
v 0.00449166 -0.00670084 0.00325130
v 0.00472282 -0.00654692 0.00325130
v 0.00517265 -0.00623666 0.00325130
v 0.00540380 -0.00606905 0.00325130
v 0.00577049 -0.00577007 0.01395598
v 0.00603324 -0.00545498 0.00325130
v 0.00555846 -0.00593769 0.00325130
v 0.00575469 -0.00575557 0.00325130
f 1 2 3
f 1 3 4
f 1 4 5
f 1 5 11
f 1 11 18
f 1 18 26
f 1 26 25
f 1 25 24
f 1 24 23
f 1 23 35
f 1 35 41
f 1 41 46
f 1 46 51
f 1 51 56
f 1 56 61
f 1 61 54
f 1 54 49
f 1 49 42
f 1 42 36
f 1 36 31
f 1 31 20
f 1 20 14
f 1 14 12
f 1 12 6
f 1 6 2
f 2 6 7
f 2 7 3
f 3 7 4
f 4 7 8
f 4 8 9
f 4 9 10
f 4 10 11
f 4 11 5
f 6 12 7
f 7 13 19
f 7 19 21
f 7 21 33
f 7 33 32
f 7 32 39
f 7 39 38
f 7 38 37
f 7 37 44
f 7 44 43
f 7 43 50
f 7 50 55
f 7 55 62
f 7 62 64
f 7 64 63
f 7 63 60
f 7 60 59
f 7 59 58
f 7 58 57
f 7 57 53
f 7 53 52
f 7 52 48
f 7 48 47
f 7 47 45
f 7 45 40
f 7 40 34
f 7 34 22
f 7 22 15
f 7 15 9
f 7 9 8
f 7 12 14
f 7 14 13
f 9 15 16
f 9 16 10
f 10 16 17
f 10 17 11
f 11 17 18
f 13 14 19
f 14 20 21
f 14 21 19
f 15 22 23
f 15 23 24
f 15 24 25
f 15 25 26
f 15 26 27
f 15 27 28
f 15 28 29
f 15 29 17
f 15 17 16
f 17 29 30
f 17 30 18
f 18 30 29
f 18 29 27
f 18 27 26
f 20 31 32
f 20 32 33
f 20 33 21
f 22 34 23
f 23 34 35
f 27 29 28
f 31 36 37
f 31 37 38
f 31 38 39
f 31 39 32
f 34 40 41
f 34 41 35
f 36 42 43
f 36 43 44
f 36 44 37
f 40 45 41
f 41 45 47
f 41 47 48
f 41 48 46
f 42 49 43
f 43 49 50
f 46 48 52
f 46 52 53
f 46 53 51
f 49 54 50
f 50 54 55
f 51 53 57
f 51 57 58
f 51 58 59
f 51 59 60
f 51 60 56
f 54 61 62
f 54 62 55
f 56 60 63
f 56 63 61
f 61 63 64
f 61 64 62

