# https://github.com/mikedh/trimesh
v 0.00038027 -0.00518588 0.00391265
v -0.00308121 -0.00422804 0.00391265
v 0.00027946 -0.00832840 0.00391265
v 0.00032829 -0.00841346 0.00034426
v 0.00032829 -0.00849977 -0.00305899
v 0.00032829 -0.00850731 -0.00361415
v 0.00032829 -0.00847672 -0.01215374
v 0.00038027 -0.00422804 -0.01215374
v 0.00038027 -0.00422804 -0.00013855
v -0.00765400 -0.00422888 0.00391108
v -0.00752956 -0.00443293 0.00391265
v -0.00006866 -0.00836904 0.00391265
v -0.00027894 -0.00847337 -0.00027851
v -0.00027894 -0.00848091 -0.00083524
v -0.00027894 -0.00850857 -0.00305899
v 0.00007784 -0.00848008 -0.01215374
v -0.00750199 -0.00429131 -0.01215374
v -0.00766187 -0.00423307 0.00193581
v -0.00766581 -0.00423433 0.00250197
v -0.00737991 -0.00466590 0.00391265
v -0.00040260 -0.00835647 0.00391265
v -0.00194707 -0.00813314 0.00391265
v -0.00260314 -0.00805772 -0.01215374
v -0.00096888 -0.00839209 -0.01215374
v -0.00027894 -0.00847421 -0.01215374
v -0.00731376 -0.00462148 -0.01215374
v -0.00709480 -0.00497722 -0.01215374
v -0.00738385 -0.00466799 0.00250197
v -0.00689554 -0.00536060 0.00391265
v -0.00695382 -0.00528267 0.00361384
v -0.00220462 -0.00807574 0.00391265
v -0.00318202 -0.00790646 -0.01215374
v -0.00250312 -0.00800870 0.00361384
v -0.00679473 -0.00543016 -0.01215374
v -0.00671439 -0.00561662 0.00391265
v -0.00671597 -0.00561829 0.00361384
v -0.00250312 -0.00800702 0.00391265
v -0.00360181 -0.00773677 -0.01215374
v -0.00272286 -0.00793454 0.00391265
v -0.00297804 -0.00785241 0.00361384
v -0.00326551 -0.00775897 0.00305712
v -0.00639936 -0.00589022 -0.01215374
v -0.00639306 -0.00588897 0.00391265
v -0.00618119 -0.00616257 -0.00194712
v -0.00382313 -0.00762908 -0.01215374
v -0.00361520 -0.00760436 0.00361384
v -0.00414683 -0.00735380 0.00305712
v -0.00443115 -0.00722014 0.00250197
v -0.00307885 -0.00781302 0.00391265
v -0.00325685 -0.00775562 0.00361384
v -0.00593704 -0.00630545 -0.01215374
v -0.00610558 -0.00611104 0.00391265
v -0.00550701 -0.00663772 -0.00861524
v -0.00442485 -0.00721637 0.00305712
v -0.00424449 -0.00741749 -0.01215374
v -0.00413423 -0.00735464 0.00361384
v -0.00351597 -0.00764165 0.00391265
v -0.00385463 -0.00748411 0.00391265
v -0.00451385 -0.00727084 -0.01215374
v -0.00557789 -0.00655895 -0.01215374
v -0.00472493 -0.00700351 0.00391265
v -0.00538887 -0.00668591 -0.01215374
v -0.00412793 -0.00735212 0.00391265
v -0.00440595 -0.00720505 0.00391265
f 1 2 11
f 1 11 20
f 1 20 29
f 1 29 35
f 1 35 43
f 1 43 52
f 1 52 61
f 1 61 64
f 1 64 63
f 1 63 58
f 1 58 57
f 1 57 49
f 1 49 39
f 1 39 37
f 1 37 31
f 1 31 22
f 1 22 21
f 1 21 12
f 1 12 3
f 1 3 4
f 1 4 5
f 1 5 6
f 1 6 7
f 1 7 8
f 1 8 9
f 1 9 2
f 2 10 11
f 2 9 8
f 2 8 10
f 3 12 4
f 4 12 5
f 5 12 13
f 5 13 6
f 6 13 14
f 6 14 15
f 6 15 16
f 6 16 7
f 7 16 25
f 7 25 24
f 7 24 23
f 7 23 32
f 7 32 38
f 7 38 45
f 7 45 55
f 7 55 59
f 7 59 62
f 7 62 60
f 7 60 51
f 7 51 42
f 7 42 34
f 7 34 27
f 7 27 26
f 7 26 17
f 7 17 8
f 8 17 18
f 8 18 10
f 10 18 19
f 10 19 11
f 11 19 20
f 12 21 13
f 13 21 22
f 13 22 14
f 14 22 15
f 15 22 23
f 15 23 24
f 15 24 25
f 15 25 16
f 17 26 18
f 18 26 19
f 19 26 27
f 19 27 28
f 19 28 20
f 20 28 30
f 20 30 29
f 22 31 23
f 23 31 33
f 23 33 32
f 27 34 28
f 28 34 30
f 29 30 35
f 30 36 35
f 30 34 36
f 31 37 33
f 32 33 37
f 32 37 39
f 32 39 40
f 32 40 41
f 32 41 38
f 34 42 36
f 35 36 44
f 35 44 43
f 36 42 44
f 38 41 46
f 38 46 47
f 38 47 48
f 38 48 45
f 39 49 40
f 40 49 50
f 40 50 41
f 41 50 46
f 42 51 44
f 43 44 52
f 44 51 53
f 44 53 48
f 44 48 54
f 44 54 52
f 45 48 55
f 46 56 47
f 46 50 57
f 46 57 58
f 46 58 56
f 47 56 48
f 48 53 59
f 48 59 55
f 48 56 54
f 49 57 50
f 51 60 53
f 52 54 61
f 53 60 62
f 53 62 59
f 54 56 63
f 54 63 64
f 54 64 61
f 56 58 63

