# https://github.com/mikedh/trimesh
v -0.00518817 0.00712620 0.01362262
v -0.00513475 0.00716337 0.01005695
v -0.00605371 0.00663728 0.00973113
v -0.00585370 0.00667784 0.01362262
v -0.00513475 0.00353593 0.01362262
v -0.00513475 0.00715549 0.00939358
v -0.00513475 0.00713634 0.00841357
v -0.00617379 0.00649308 0.00851656
v -0.00621317 0.00649872 0.00917534
v -0.00638394 0.00635903 0.00973113
v -0.00661319 0.00615625 0.01081261
v -0.00637458 0.00633875 0.01139796
v -0.00630440 0.00629031 0.01362262
v -0.00513475 0.00350101 0.01167585
v -0.00606774 0.00034446 0.01362262
v -0.00599523 0.00034446 0.00917534
v -0.00833686 0.00305265 0.00841357
v -0.00780467 0.00421185 0.00846507
v -0.00663697 0.00606387 0.00851656
v -0.00513475 0.00351227 0.00851656
v -0.00599523 0.00034446 0.00841357
v -0.00666543 0.00610330 0.00995293
v -0.00720230 0.00524263 0.01362262
v -0.00670520 0.00587800 0.01362262
v -0.00892948 0.00054160 0.01362262
v -0.00757815 -0.00422590 0.01340541
v -0.00758829 -0.00434531 0.01170747
v -0.00758478 -0.00433968 0.00841357
v -0.00848229 0.00250177 0.00841357
v -0.00894703 0.00101362 0.01212405
v -0.00835908 0.00311686 0.01250953
v -0.00825888 0.00336808 0.01195375
v -0.00813100 0.00357423 0.00851656
v -0.00782689 0.00425466 0.01112007
v -0.00770096 0.00447433 0.01362262
v -0.00911780 0.00027912 0.01195375
v -0.00883630 -0.00093641 0.01340541
v -0.00866943 -0.00172048 0.01340541
v -0.00833530 -0.00278168 0.01340541
v -0.00792554 -0.00366488 0.01340541
v -0.00880394 0.00134031 0.01362262
v -0.00790448 -0.00378317 0.01195375
v -0.00788343 -0.00381584 0.00841357
v -0.00894118 0.00041655 0.00841357
v -0.00895755 0.00072522 0.00973113
v -0.00911507 0.00027912 0.01139745
v -0.00852206 0.00250177 0.01362262
v -0.00834973 0.00308870 0.01362262
v -0.00812554 0.00362267 0.01362262
v -0.00907686 -0.00027627 0.01139745
v -0.00906711 -0.00027627 0.01195375
v -0.00877977 -0.00138928 0.01250953
v -0.00864175 -0.00194466 0.01250953
v -0.00838677 -0.00273098 0.01223164
v -0.00798402 -0.00361306 0.01250953
v -0.00816102 -0.00315907 0.00841357
v -0.00892480 -0.00047341 0.00841357
v -0.00904645 0.00027912 0.00973113
v -0.00908193 0.00027912 0.01028691
v -0.00905230 -0.00027627 0.01028691
v -0.00857313 -0.00194466 0.00841357
v -0.00864799 -0.00194466 0.01195375
v -0.00836571 -0.00261157 0.00841357
v -0.00876807 -0.00118538 0.00841357
f 1 2 3
f 1 3 4
f 1 4 13
f 1 13 24
f 1 24 23
f 1 23 35
f 1 35 49
f 1 49 48
f 1 48 47
f 1 47 41
f 1 41 25
f 1 25 15
f 1 15 5
f 1 5 2
f 2 6 3
f 2 5 14
f 2 14 20
f 2 20 7
f 2 7 6
f 3 6 7
f 3 7 8
f 3 8 9
f 3 9 10
f 3 10 11
f 3 11 12
f 3 12 4
f 4 12 13
f 5 15 16
f 5 16 14
f 7 17 18
f 7 18 19
f 7 19 8
f 7 20 21
f 7 21 28
f 7 28 43
f 7 43 56
f 7 56 63
f 7 63 61
f 7 61 64
f 7 64 57
f 7 57 44
f 7 44 29
f 7 29 17
f 8 19 9
f 9 19 22
f 9 22 10
f 10 22 11
f 11 13 12
f 11 22 23
f 11 23 24
f 11 24 13
f 14 16 21
f 14 21 20
f 15 25 26
f 15 26 27
f 15 27 16
f 16 27 28
f 16 28 21
f 17 29 30
f 17 30 31
f 17 31 32
f 17 32 33
f 17 33 18
f 18 33 34
f 18 34 22
f 18 22 19
f 22 34 35
f 22 35 23
f 25 36 37
f 25 37 38
f 25 38 39
f 25 39 40
f 25 40 26
f 25 41 36
f 26 40 27
f 27 40 42
f 27 42 43
f 27 43 28
f 29 44 45
f 29 45 46
f 29 46 30
f 30 41 47
f 30 47 31
f 30 46 36
f 30 36 41
f 31 47 48
f 31 48 49
f 31 49 32
f 32 49 34
f 32 34 33
f 34 49 35
f 36 46 50
f 36 50 51
f 36 51 37
f 37 51 38
f 38 52 53
f 38 53 39
f 38 51 52
f 39 53 54
f 39 54 55
f 39 55 40
f 40 55 42
f 42 55 43
f 43 55 54
f 43 54 56
f 44 57 58
f 44 58 59
f 44 59 45
f 45 59 46
f 46 59 60
f 46 60 50
f 50 60 61
f 50 61 62
f 50 62 53
f 50 53 51
f 51 53 52
f 53 62 54
f 54 63 56
f 54 62 63
f 57 64 60
f 57 60 59
f 57 59 58
f 60 64 61
f 61 63 62

