# https://github.com/mikedh/trimesh
v -0.00513428 0.00349861 0.01139770
v -0.00513428 0.00350468 0.01195357
v -0.00513428 0.00351126 0.00861888
v -0.00033558 0.00559475 0.00841257
v -0.00513428 0.00353656 0.01369512
v -0.00513428 0.00351632 0.00841257
v -0.00033558 0.00858388 0.00841257
v -0.00033558 0.00576677 0.01369512
v -0.00513428 0.00716723 0.01369512
v -0.00513428 0.00713738 0.00841257
v -0.00062916 0.00856921 0.00841257
v -0.00033558 0.00865725 0.01028700
v -0.00033558 0.00866736 0.01087131
v -0.00038255 0.00855707 0.01369512
v -0.00484212 0.00737619 0.01369512
v -0.00513428 0.00716268 0.01005690
v -0.00499853 0.00722491 0.00841257
v -0.00513428 0.00715205 0.00917475
v -0.00083442 0.00855454 0.00841257
v -0.00083442 0.00856314 0.00861888
v -0.00083442 0.00858490 0.00917475
v -0.00083442 0.00859906 0.00973114
v -0.00083442 0.00861171 0.01028700
v -0.00083442 0.00861120 0.01084287
v -0.00087576 0.00854847 0.01369512
v -0.00413142 0.00773946 0.01369512
v -0.00472562 0.00740199 0.00973114
v -0.00501826 0.00723756 0.00973114
v -0.00513428 0.00716167 0.00973114
v -0.00477823 0.00735190 0.00841257
v -0.00513428 0.00715812 0.00949224
v -0.00139058 0.00851356 0.00841257
v -0.00139058 0.00851862 0.00861888
v -0.00139058 0.00852671 0.00917475
v -0.00139058 0.00852772 0.00973114
v -0.00139058 0.00852469 0.01084287
v -0.00146949 0.00847915 0.01369512
v -0.00374249 0.00790490 0.01369512
v -0.00392521 0.00779865 0.01084287
v -0.00391206 0.00779258 0.00973114
v -0.00419014 0.00767014 0.00973114
v -0.00416947 0.00764990 0.00841257
v -0.00194626 0.00841793 0.00841257
v -0.00194626 0.00841894 0.00861888
v -0.00194626 0.00841237 0.01084287
v -0.00245075 0.00826969 0.01369512
v -0.00314594 0.00809261 0.01369512
v -0.00305763 0.00811841 0.01195357
v -0.00305763 0.00811133 0.00917475
v -0.00305763 0.00810526 0.00841257
v -0.00359969 0.00789681 0.00841257
v -0.00390455 0.00778955 0.00928592
v -0.00387777 0.00777740 0.00841257
v -0.00213509 0.00837189 0.00841257
v -0.00224595 0.00834508 0.00861888
v -0.00224454 0.00834457 0.01084287
v -0.00223702 0.00834305 0.01139770
v -0.00252215 0.00827070 0.01084287
v -0.00252262 0.00827576 0.00917475
v -0.00252402 0.00827121 0.00861888
v -0.00252215 0.00827020 0.00841257
v -0.00370256 0.00785279 0.00841257
v -0.00224407 0.00834457 0.00841257
f 1 2 5
f 1 5 9
f 1 9 16
f 1 16 29
f 1 29 31
f 1 31 18
f 1 18 10
f 1 10 6
f 1 6 3
f 1 3 4
f 1 4 2
f 2 4 5
f 3 6 4
f 4 6 10
f 4 10 17
f 4 17 30
f 4 30 42
f 4 42 53
f 4 53 62
f 4 62 51
f 4 51 50
f 4 50 61
f 4 61 63
f 4 63 54
f 4 54 43
f 4 43 32
f 4 32 19
f 4 19 11
f 4 11 7
f 4 7 12
f 4 12 13
f 4 13 8
f 4 8 5
f 5 8 14
f 5 14 25
f 5 25 37
f 5 37 46
f 5 46 47
f 5 47 38
f 5 38 26
f 5 26 15
f 5 15 9
f 7 11 12
f 8 13 14
f 9 15 16
f 10 18 17
f 11 19 20
f 11 20 21
f 11 21 12
f 12 21 22
f 12 22 23
f 12 23 13
f 13 23 24
f 13 24 25
f 13 25 14
f 15 26 27
f 15 27 28
f 15 28 29
f 15 29 16
f 17 18 28
f 17 28 30
f 18 31 28
f 19 32 20
f 20 32 21
f 21 32 22
f 22 32 33
f 22 33 23
f 23 33 34
f 23 34 35
f 23 35 24
f 24 35 36
f 24 36 37
f 24 37 25
f 26 38 39
f 26 39 40
f 26 40 41
f 26 41 27
f 27 41 30
f 27 30 28
f 28 31 29
f 30 41 42
f 32 43 33
f 33 43 34
f 34 43 44
f 34 44 35
f 35 44 36
f 36 45 37
f 36 44 45
f 37 45 46
f 38 47 48
f 38 48 49
f 38 49 50
f 38 50 40
f 38 40 39
f 40 50 51
f 40 51 52
f 40 52 41
f 41 52 42
f 42 52 53
f 43 54 44
f 44 54 55
f 44 55 56
f 44 56 45
f 45 56 57
f 45 57 46
f 46 57 47
f 47 57 56
f 47 56 58
f 47 58 59
f 47 59 48
f 48 59 49
f 49 59 60
f 49 60 61
f 49 61 50
f 51 62 52
f 52 62 53
f 54 63 55
f 55 59 56
f 55 63 59
f 56 59 58
f 59 63 61
f 59 61 60

