# https://github.com/mikedh/trimesh
v -0.00737725 -0.00314918 -0.03203358
v -0.00749020 -0.00314918 -0.03249653
v -0.00917168 -0.00022928 -0.03199662
v -0.00739247 -0.00314918 -0.03141404
v -0.00933431 -0.00022928 -0.03251501
v -0.00769448 -0.00314918 -0.03285542
v -0.00921174 -0.00022928 -0.03138098
v -0.00748379 -0.00314918 -0.03108045
v -0.00970841 -0.00022928 -0.03297602
v -0.00795323 -0.00314918 -0.03307133
v -0.01200113 -0.00022928 -0.02367518
v -0.00756310 -0.00314918 -0.03086064
v -0.01018426 -0.00022928 -0.03328238
v -0.00837060 -0.00314918 -0.03332809
v -0.01551070 -0.00025472 -0.02367518
v -0.01180246 -0.00314918 -0.02367518
v -0.00783066 -0.00314918 -0.03030238
v -0.01556117 -0.00022928 -0.03194508
v -0.01045823 -0.00022928 -0.03339326
v -0.00861653 -0.00314918 -0.03341271
v -0.01547945 -0.00139055 -0.02367518
v -0.01555315 -0.00025386 -0.02974509
v -0.01521830 -0.00311459 -0.02367518
v -0.01473364 -0.00314918 -0.03301687
v -0.01553473 -0.00023528 -0.03247416
v -0.01553153 -0.00083406 -0.03197037
v -0.01553072 -0.00083406 -0.02918974
v -0.01250982 -0.00022928 -0.03350705
v -0.01084275 -0.00022928 -0.03348273
v -0.00908437 -0.00314918 -0.03349246
v -0.01543219 -0.00194589 -0.02367518
v -0.01549468 -0.00139055 -0.02918974
v -0.01533125 -0.00252410 -0.02367518
v -0.01521990 -0.00310345 -0.02863537
v -0.01521510 -0.00310345 -0.03141404
v -0.01504366 -0.00314003 -0.03269105
v -0.01503325 -0.00290337 -0.03283208
v -0.01517584 -0.00139055 -0.03296921
v -0.01473364 -0.00250180 -0.03309857
v -0.01417769 -0.00314918 -0.03324348
v -0.01548186 -0.00083406 -0.03252571
v -0.01475687 -0.00024157 -0.03328141
v -0.01525675 -0.00025386 -0.03302368
v -0.01548106 -0.00139055 -0.03197037
v -0.01195306 -0.00022928 -0.03355568
v -0.01195306 -0.00194589 -0.03356346
v -0.01142354 -0.00022928 -0.03354887
v -0.00964032 -0.00314918 -0.03355373
v -0.01541296 -0.00194589 -0.03141404
v -0.01532324 -0.00250180 -0.03141404
v -0.01530562 -0.00250180 -0.03197037
v -0.01519507 -0.00310345 -0.03199273
v -0.01541056 -0.00139055 -0.03252571
v -0.01521910 -0.00083406 -0.03300422
v -0.01473364 -0.00139055 -0.03321430
v -0.01473364 -0.00083406 -0.03325710
v -0.01193063 -0.00310345 -0.03353915
v -0.01137628 -0.00310345 -0.03359167
v -0.01019628 -0.00314918 -0.03359556
v -0.01195306 -0.00250180 -0.03355665
v -0.01539774 -0.00194589 -0.03197037
v -0.01082032 -0.00310345 -0.03361112
v -0.01139871 -0.00194589 -0.03358972
v -0.01139871 -0.00250180 -0.03360042
f 1 2 3
f 1 3 4
f 1 4 8
f 1 8 12
f 1 12 17
f 1 17 16
f 1 16 24
f 1 24 40
f 1 40 59
f 1 59 48
f 1 48 30
f 1 30 20
f 1 20 14
f 1 14 10
f 1 10 6
f 1 6 2
f 2 5 3
f 2 6 5
f 3 5 9
f 3 9 13
f 3 13 19
f 3 19 29
f 3 29 47
f 3 47 45
f 3 45 28
f 3 28 18
f 3 18 11
f 3 11 7
f 3 7 4
f 4 7 8
f 5 6 9
f 6 10 9
f 7 11 12
f 7 12 8
f 9 10 13
f 10 14 13
f 11 15 21
f 11 21 31
f 11 31 33
f 11 33 23
f 11 23 16
f 11 16 17
f 11 17 12
f 11 18 15
f 13 14 19
f 14 20 19
f 15 18 22
f 15 22 21
f 16 23 24
f 18 25 26
f 18 26 27
f 18 27 22
f 18 28 25
f 19 20 29
f 20 30 29
f 21 22 27
f 21 27 32
f 21 32 31
f 23 33 34
f 23 34 35
f 23 35 36
f 23 36 24
f 24 36 37
f 24 37 38
f 24 38 39
f 24 39 40
f 25 41 26
f 25 28 42
f 25 42 43
f 25 43 41
f 26 41 44
f 26 44 32
f 26 32 27
f 28 45 46
f 28 46 42
f 29 30 47
f 30 48 47
f 31 32 49
f 31 49 50
f 31 50 33
f 32 44 49
f 33 50 34
f 34 50 35
f 35 50 51
f 35 51 52
f 35 52 36
f 36 52 53
f 36 53 37
f 37 53 38
f 38 54 39
f 38 53 41
f 38 41 54
f 39 55 40
f 39 54 55
f 40 55 56
f 40 56 42
f 40 42 57
f 40 57 58
f 40 58 59
f 41 53 44
f 41 43 54
f 42 46 60
f 42 60 57
f 42 56 43
f 43 56 54
f 44 53 61
f 44 61 49
f 45 62 63
f 45 63 64
f 45 64 46
f 45 47 62
f 46 64 60
f 47 48 59
f 47 59 62
f 49 61 50
f 50 61 51
f 51 61 53
f 51 53 52
f 54 56 55
f 57 60 58
f 58 60 64
f 58 64 62
f 58 62 59
f 62 64 63

