# https://github.com/mikedh/trimesh
v 0.00346641 -0.00760998 -0.01215374
v 0.00346641 0.00008822 -0.01215374
v 0.00362872 -0.00755572 -0.01215374
v 0.00348344 -0.00732137 0.00324719
v 0.00346641 -0.00367196 0.00324719
v 0.00346641 0.00008822 -0.00090756
v 0.00855854 0.00008822 -0.01215374
v 0.00387067 -0.00743365 -0.01215374
v 0.00405653 -0.00733720 -0.01215374
v 0.00373141 -0.00718950 0.00324719
v 0.00515210 0.00008822 0.00324719
v 0.00834363 0.00001362 -0.00258997
v 0.00857307 -0.00008962 -0.01215374
v 0.00818033 0.00008822 0.00324719
v 0.00573220 -0.00627093 -0.01215374
v 0.00417074 -0.00691446 0.00324719
v 0.00858359 -0.00027876 -0.01215374
v 0.00818333 -0.00027876 0.00324719
v 0.00628775 -0.00574571 -0.01215374
v 0.00614297 -0.00559124 -0.00250404
v 0.00549725 -0.00606446 0.00194318
v 0.00521923 -0.00625360 0.00194318
v 0.00449385 -0.00670120 0.00324719
v 0.00427945 -0.00684287 0.00324719
v 0.00815528 -0.00046865 0.00324719
v 0.00810017 -0.00083412 0.00324719
v 0.00849642 -0.00082583 -0.01215374
v 0.00674812 -0.00511575 -0.01215374
v 0.00667899 -0.00501402 -0.00660151
v 0.00655926 -0.00473898 0.00324719
v 0.00624867 -0.00517679 0.00324719
v 0.00603326 -0.00545560 0.00324719
v 0.00575624 -0.00575551 0.00324719
v 0.00555987 -0.00593862 0.00324719
v 0.00545267 -0.00603357 0.00324719
v 0.00535749 -0.00610515 0.00324719
v 0.00517514 -0.00623778 0.00324719
v 0.00472429 -0.00654748 0.00324719
v 0.00797894 -0.00139023 0.00324719
v 0.00778959 -0.00224174 0.00194318
v 0.00803655 -0.00250472 -0.01215374
v 0.00696803 -0.00474124 -0.01215374
v 0.00735126 -0.00408264 -0.01215374
v 0.00670854 -0.00450915 0.00324719
v 0.00785020 -0.00188380 0.00324719
v 0.00778508 -0.00222893 0.00225373
v 0.00757318 -0.00269311 0.00324719
v 0.00768088 -0.00251904 0.00194318
v 0.00787926 -0.00295157 -0.01215374
v 0.00795239 -0.00276168 -0.01215374
v 0.00756666 -0.00362901 -0.01215374
v 0.00729615 -0.00347529 0.00138841
v 0.00713335 -0.00370060 0.00324719
v 0.00705019 -0.00386261 0.00324719
v 0.00689189 -0.00416930 0.00324719
v 0.00777857 -0.00211439 0.00324719
v 0.00772196 -0.00228469 0.00324719
v 0.00764632 -0.00250322 0.00324719
v 0.00742941 -0.00305858 0.00324719
v 0.00746397 -0.00305858 0.00194318
v 0.00728864 -0.00346022 0.00194318
v 0.00726860 -0.00342329 0.00324719
v 0.00737530 -0.00318141 0.00324719
f 1 2 7
f 1 7 13
f 1 13 17
f 1 17 27
f 1 27 41
f 1 41 50
f 1 50 49
f 1 49 51
f 1 51 43
f 1 43 42
f 1 42 28
f 1 28 19
f 1 19 15
f 1 15 9
f 1 9 8
f 1 8 3
f 1 3 4
f 1 4 5
f 1 5 6
f 1 6 2
f 2 6 11
f 2 11 14
f 2 14 7
f 3 8 4
f 4 8 9
f 4 9 10
f 4 10 16
f 4 16 24
f 4 24 23
f 4 23 38
f 4 38 37
f 4 37 36
f 4 36 35
f 4 35 34
f 4 34 33
f 4 33 32
f 4 32 31
f 4 31 30
f 4 30 44
f 4 44 55
f 4 55 54
f 4 54 53
f 4 53 62
f 4 62 63
f 4 63 59
f 4 59 47
f 4 47 58
f 4 58 57
f 4 57 56
f 4 56 45
f 4 45 39
f 4 39 26
f 4 26 25
f 4 25 18
f 4 18 14
f 4 14 11
f 4 11 5
f 5 11 6
f 7 12 13
f 7 14 12
f 9 15 16
f 9 16 10
f 12 17 13
f 12 14 18
f 12 18 17
f 15 19 20
f 15 20 21
f 15 21 22
f 15 22 23
f 15 23 24
f 15 24 16
f 17 18 25
f 17 25 26
f 17 26 27
f 19 28 29
f 19 29 20
f 20 29 30
f 20 30 31
f 20 31 32
f 20 32 33
f 20 33 21
f 21 33 34
f 21 34 35
f 21 35 36
f 21 36 37
f 21 37 38
f 21 38 22
f 22 38 23
f 26 39 27
f 27 40 41
f 27 39 40
f 28 42 29
f 29 42 43
f 29 43 44
f 29 44 30
f 39 45 40
f 40 46 47
f 40 47 48
f 40 48 49
f 40 49 50
f 40 50 41
f 40 45 46
f 43 51 52
f 43 52 53
f 43 53 54
f 43 54 55
f 43 55 44
f 45 56 46
f 46 56 57
f 46 57 58
f 46 58 47
f 47 59 48
f 48 60 49
f 48 59 60
f 49 60 61
f 49 61 52
f 49 52 51
f 52 61 53
f 53 61 62
f 59 63 61
f 59 61 60
f 61 63 62

