# https://github.com/mikedh/trimesh
v 0.01389678 -0.00345875 0.01784257
v 0.01373681 -0.00416999 0.01788745
v 0.01338226 -0.00473975 0.01770174
v 0.01305885 -0.00013231 0.01770174
v 0.01374459 -0.00250222 0.01788745
v 0.01374978 -0.00305836 0.03141337
v 0.01379907 -0.00361320 0.03196895
v 0.01374891 -0.00416999 0.03196895
v 0.01357770 -0.00472613 0.03196895
v 0.01328541 -0.00522451 0.03196895
v 0.01284699 -0.00531860 0.01770174
v 0.01303205 -0.00550745 0.03141337
v 0.00898162 -0.00013231 0.01770174
v 0.01297843 -0.00013231 0.03141337
v 0.01361228 -0.00250222 0.03141337
v 0.01372470 -0.00305836 0.03196895
v 0.01370395 -0.00361320 0.03252454
v 0.01370049 -0.00416999 0.03252454
v 0.01343501 -0.00480270 0.03275203
v 0.01286948 -0.00563983 0.03217942
v 0.01226502 -0.00587344 0.01770174
v 0.01256422 -0.00593639 0.03196895
v 0.01256768 -0.00593834 0.03141337
v 0.00556504 -0.00676184 0.01770174
v 0.00506350 -0.00676184 0.02085263
v 0.00890552 -0.00013231 0.02021038
v 0.01296460 -0.00013231 0.03196895
v 0.01277781 -0.00020564 0.03275048
v 0.01349382 -0.00296037 0.03269787
v 0.01347825 -0.00361320 0.03297953
v 0.01349122 -0.00416999 0.03300274
v 0.01306491 -0.00513301 0.03293620
v 0.01226416 -0.00613951 0.03231097
v 0.01125242 -0.00676184 0.01770174
v 0.01155680 -0.00676184 0.03196895
v 0.01156718 -0.00676184 0.03118587
v 0.00511019 -0.00676184 0.02140821
v 0.00948057 -0.00013231 0.03143813
v 0.00944339 -0.00013231 0.03085624
v 0.00892455 -0.00013231 0.02070561
v 0.01206181 -0.00013231 0.03339428
v 0.01305193 -0.00361320 0.03333547
v 0.01307182 -0.00416999 0.03334940
v 0.01267664 -0.00477934 0.03336797
v 0.01058830 -0.00673913 0.03329833
v 0.01110714 -0.00676184 0.03298881
v 0.01144958 -0.00676184 0.03252454
v 0.00658111 -0.00676184 0.03196276
v 0.00957742 -0.00013231 0.03203395
v 0.01139769 -0.00013231 0.03351035
v 0.01195372 -0.00139060 0.03348404
v 0.01250974 -0.00361320 0.03348559
v 0.01281673 -0.00290781 0.03337416
v 0.01250974 -0.00416999 0.03349333
v 0.01017150 -0.00657559 0.03340357
v 0.00936383 -0.00676184 0.03339583
v 0.00707660 -0.00676184 0.03266382
v 0.00985587 -0.00013231 0.03270560
v 0.01075346 -0.00013231 0.03337880
v 0.00871874 -0.00676184 0.03334321
v 0.00972962 -0.00639389 0.03341130
v 0.00758680 -0.00676184 0.03296560
v 0.01026575 -0.00013231 0.03309560
v 0.00820336 -0.00676184 0.03319619
f 1 2 3
f 1 3 4
f 1 4 5
f 1 5 6
f 1 6 7
f 1 7 8
f 1 8 2
f 2 8 9
f 2 9 10
f 2 10 3
f 3 11 21
f 3 21 34
f 3 34 24
f 3 24 13
f 3 13 4
f 3 10 12
f 3 12 11
f 4 13 26
f 4 26 40
f 4 40 39
f 4 39 38
f 4 38 49
f 4 49 58
f 4 58 63
f 4 63 59
f 4 59 50
f 4 50 41
f 4 41 27
f 4 27 14
f 4 14 5
f 5 14 15
f 5 15 6
f 6 15 16
f 6 16 7
f 7 16 17
f 7 17 18
f 7 18 8
f 8 18 9
f 9 18 19
f 9 19 10
f 10 19 20
f 10 20 12
f 11 12 21
f 12 20 22
f 12 22 23
f 12 23 21
f 13 24 25
f 13 25 26
f 14 27 15
f 15 27 16
f 16 27 28
f 16 28 29
f 16 29 17
f 17 29 30
f 17 30 31
f 17 31 18
f 18 31 19
f 19 31 32
f 19 32 20
f 20 32 33
f 20 33 22
f 21 23 34
f 22 35 36
f 22 36 23
f 22 33 35
f 23 36 34
f 24 34 36
f 24 36 35
f 24 35 47
f 24 47 46
f 24 46 56
f 24 56 60
f 24 60 64
f 24 64 62
f 24 62 57
f 24 57 48
f 24 48 37
f 24 37 25
f 25 37 38
f 25 38 39
f 25 39 40
f 25 40 26
f 27 41 28
f 28 41 30
f 28 30 29
f 30 41 42
f 30 42 31
f 31 42 43
f 31 43 32
f 32 43 44
f 32 44 45
f 32 45 46
f 32 46 47
f 32 47 33
f 33 47 35
f 37 48 38
f 38 48 49
f 41 50 51
f 41 51 52
f 41 52 53
f 41 53 42
f 42 53 52
f 42 52 43
f 43 52 54
f 43 54 44
f 44 54 55
f 44 55 45
f 45 55 56
f 45 56 46
f 48 57 58
f 48 58 49
f 50 54 52
f 50 52 51
f 50 59 60
f 50 60 56
f 50 56 61
f 50 61 54
f 54 61 55
f 55 61 56
f 57 62 63
f 57 63 58
f 59 64 60
f 59 63 62
f 59 62 64

