# https://github.com/mikedh/trimesh
v -0.01114412 -0.00445504 -0.01310454
v -0.01114412 -0.00023035 -0.01312523
v -0.01222077 -0.00023035 -0.01315007
v -0.01251057 -0.00194729 -0.01318628
v -0.01206441 -0.00444875 -0.01319559
v -0.01158294 -0.00579755 -0.01324009
v -0.01105654 -0.00723655 -0.01331355
v -0.01088963 -0.00023035 -0.01990468
v -0.01200251 -0.00023035 -0.02367517
v -0.01551125 -0.00023245 -0.02367517
v -0.01557361 -0.00030272 -0.01671569
v -0.01501969 -0.00055024 -0.01448485
v -0.01444331 -0.00054500 -0.01386919
v -0.01328458 -0.00059849 -0.01329700
v -0.01317132 -0.00472669 -0.01364983
v -0.01354595 -0.00292060 -0.01356395
v -0.01270728 -0.00645621 -0.01382884
v -0.01114183 -0.00833992 -0.01360741
v -0.01100198 -0.00952719 -0.01407096
v -0.01088963 -0.00434806 -0.02367517
v -0.01096942 -0.01054875 -0.01491529
v -0.01504125 -0.00384882 -0.02367517
v -0.01547227 -0.00153300 -0.02336373
v -0.01551858 -0.00139141 -0.01695988
v -0.01546631 -0.00064883 -0.01570788
v -0.01514029 -0.00286816 -0.01547300
v -0.01456895 -0.00390441 -0.01465764
v -0.01464644 -0.00148370 -0.01410407
v -0.01412967 -0.00339258 -0.01399750
v -0.01337767 -0.00566854 -0.01403785
v -0.01325661 -0.00699112 -0.01452106
v -0.01267977 -0.00790150 -0.01444553
v -0.01199884 -0.00787109 -0.01388989
v -0.01196537 -0.00913073 -0.01467730
v -0.01114779 -0.01094521 -0.02367517
v -0.01278248 -0.00844690 -0.01516983
v -0.01215749 -0.00964466 -0.01576479
v -0.01137477 -0.01056344 -0.01612487
v -0.01463911 -0.00512000 -0.02367517
v -0.01507289 -0.00378065 -0.02168438
v -0.01525951 -0.00292585 -0.02336579
v -0.01541175 -0.00222523 -0.01668154
v -0.01516368 -0.00343663 -0.01666085
v -0.01489406 -0.00390441 -0.01543678
v -0.01446303 -0.00500988 -0.01515224
v -0.01407969 -0.00590872 -0.01504773
v -0.01397239 -0.00499205 -0.01435137
v -0.01338317 -0.00757637 -0.01536849
v -0.01149903 -0.01058651 -0.02230935
v -0.01196032 -0.01001805 -0.02367517
v -0.01270040 -0.00894929 -0.01612487
v -0.01231156 -0.00955656 -0.01751552
v -0.01200205 -0.00991736 -0.01682020
v -0.01483123 -0.00460398 -0.01723719
v -0.01400678 -0.00667227 -0.02367517
v -0.01405447 -0.00658732 -0.02224003
v -0.01454556 -0.00545458 -0.01751552
v -0.01451072 -0.00552275 -0.01668154
v -0.01442680 -0.00560666 -0.01580411
v -0.01393571 -0.00668696 -0.01573168
v -0.01344415 -0.00773684 -0.01627490
v -0.01269719 -0.00895873 -0.02367517
v -0.01342031 -0.00775467 -0.02367517
v -0.01402833 -0.00662193 -0.01668154
f 1 2 3
f 1 3 4
f 1 4 5
f 1 5 6
f 1 6 7
f 1 7 2
f 2 8 9
f 2 9 3
f 2 7 8
f 3 9 10
f 3 10 11
f 3 11 12
f 3 12 13
f 3 13 14
f 3 14 4
f 4 14 5
f 5 15 6
f 5 14 16
f 5 16 15
f 6 15 7
f 7 15 17
f 7 17 18
f 7 18 19
f 7 19 8
f 8 20 9
f 8 19 21
f 8 21 20
f 9 20 35
f 9 35 50
f 9 50 62
f 9 62 63
f 9 63 55
f 9 55 39
f 9 39 22
f 9 22 10
f 10 22 23
f 10 23 11
f 11 23 24
f 11 24 25
f 11 25 12
f 12 25 26
f 12 26 27
f 12 27 28
f 12 28 13
f 13 28 16
f 13 16 14
f 15 16 29
f 15 29 30
f 15 30 17
f 16 28 29
f 17 30 31
f 17 31 32
f 17 32 33
f 17 33 18
f 18 33 19
f 19 33 32
f 19 32 34
f 19 34 21
f 20 21 35
f 21 34 36
f 21 36 37
f 21 37 38
f 21 38 35
f 22 39 40
f 22 40 41
f 22 41 23
f 23 42 24
f 23 41 42
f 24 42 25
f 25 42 26
f 26 42 43
f 26 43 44
f 26 44 27
f 27 29 28
f 27 44 45
f 27 45 46
f 27 46 47
f 27 47 29
f 29 47 30
f 30 47 31
f 31 47 46
f 31 46 48
f 31 48 36
f 31 36 32
f 32 36 34
f 35 38 49
f 35 49 50
f 36 51 37
f 36 48 51
f 37 52 53
f 37 53 38
f 37 51 52
f 38 53 49
f 39 54 40
f 39 55 56
f 39 56 57
f 39 57 54
f 40 43 41
f 40 54 43
f 41 43 42
f 43 54 58
f 43 58 59
f 43 59 44
f 44 59 45
f 45 59 46
f 46 59 60
f 46 60 48
f 48 60 61
f 48 61 51
f 49 53 52
f 49 52 50
f 50 52 62
f 51 61 62
f 51 62 52
f 54 57 58
f 55 63 61
f 55 61 56
f 56 61 64
f 56 64 57
f 57 64 58
f 58 64 59
f 59 64 60
f 60 64 61
f 61 63 62

