# https://github.com/mikedh/trimesh
v -0.03778644 0.01346815 0.03727323
v -0.03702638 0.01379361 0.03727148
v -0.03785167 0.01379361 0.03226975
v -0.03849431 0.00699878 0.03722430
v -0.03852494 -0.00693847 0.03724585
v -0.03838995 -0.00882481 0.03725284
v -0.03652724 0.01379361 0.03720565
v -0.03568096 0.01379361 0.03132253
v -0.03593961 0.01310283 0.03132253
v -0.03626065 0.01218845 0.03132253
v -0.03654709 0.01129398 0.03132253
v -0.03675809 0.01058992 0.03132253
v -0.03691861 0.00999657 0.03132253
v -0.03709444 0.00926594 0.03132253
v -0.03745065 0.00766963 0.03132253
v -0.03757544 0.00708956 0.03132253
v -0.03770930 0.00634122 0.03132253
v -0.03782671 0.00547554 0.03132253
v -0.03791576 0.00472056 0.03132253
v -0.03799631 0.00399879 0.03132253
v -0.03806040 0.00340986 0.03132253
v -0.03813187 0.00269030 0.03132253
v -0.03818689 0.00182683 0.03132253
v -0.03849431 0.00633679 0.03342086
v -0.03849431 0.00699878 0.03357640
v -0.03852494 -0.00005065 0.03710954
v -0.03852494 -0.00882481 0.03342960
v -0.03778247 -0.00882481 0.03715206
v -0.03602412 0.01379361 0.03709322
v -0.03273034 0.01379361 0.03132253
v -0.03820277 0.00109621 0.03132253
v -0.03849431 0.00556410 0.03335096
v -0.03852494 -0.00005065 0.03382923
v -0.03717158 -0.00882481 0.03140525
v -0.03852494 -0.00621891 0.03350125
v -0.03822092 -0.00005065 0.03132253
v -0.03821922 -0.00109346 0.03140525
v -0.03819313 -0.00164696 0.03140525
v -0.03813981 -0.00255471 0.03140525
v -0.03808536 -0.00328534 0.03140525
v -0.03802126 -0.00392740 0.03140525
v -0.03795660 -0.00447205 0.03140525
v -0.03769625 -0.00620784 0.03140525
v -0.03758224 -0.00693847 0.03140525
v -0.03744044 -0.00766909 0.03140525
v -0.03730885 -0.00824253 0.03140525
v -0.03689365 -0.00882481 0.03685962
v -0.03530490 0.01379361 0.03685205
v -0.03275530 0.01379361 0.03178100
v -0.03438262 -0.00882481 0.03251209
v -0.03433781 -0.00882481 0.03159342
v -0.03547110 -0.00005065 0.03132253
v -0.03619372 -0.00882481 0.03649845
v -0.03460156 0.01379361 0.03645942
v -0.03284095 0.01379361 0.03323969
v -0.03442403 -0.00882481 0.03324319
v -0.03554540 -0.00882481 0.03601901
v -0.03398274 0.01379361 0.03593454
v -0.03291412 0.01379361 0.03386185
v -0.03449947 -0.00882481 0.03379893
v -0.03503378 -0.00882481 0.03542656
v -0.03353975 0.01379361 0.03536714
v -0.03312455 0.01379361 0.03456090
v -0.03466793 -0.00882481 0.03454809
f 1 2 3
f 1 3 4
f 1 4 5
f 1 5 6
f 1 6 2
f 2 7 29
f 2 29 48
f 2 48 54
f 2 54 58
f 2 58 62
f 2 62 63
f 2 63 59
f 2 59 55
f 2 55 49
f 2 49 30
f 2 30 8
f 2 8 3
f 2 6 7
f 3 8 9
f 3 9 10
f 3 10 11
f 3 11 12
f 3 12 13
f 3 13 14
f 3 14 15
f 3 15 16
f 3 16 17
f 3 17 18
f 3 18 19
f 3 19 20
f 3 20 21
f 3 21 22
f 3 22 23
f 3 23 24
f 3 24 25
f 3 25 4
f 4 25 33
f 4 33 26
f 4 26 5
f 5 26 33
f 5 33 35
f 5 35 27
f 5 27 6
f 6 27 34
f 6 34 51
f 6 51 50
f 6 50 56
f 6 56 60
f 6 60 64
f 6 64 61
f 6 61 57
f 6 57 53
f 6 53 47
f 6 47 28
f 6 28 7
f 7 28 29
f 8 30 52
f 8 52 36
f 8 36 31
f 8 31 23
f 8 23 22
f 8 22 21
f 8 21 20
f 8 20 19
f 8 19 18
f 8 18 17
f 8 17 16
f 8 16 15
f 8 15 14
f 8 14 13
f 8 13 12
f 8 12 11
f 8 11 10
f 8 10 9
f 23 31 24
f 24 32 33
f 24 33 25
f 24 31 32
f 27 35 32
f 27 32 36
f 27 36 37
f 27 37 38
f 27 38 39
f 27 39 40
f 27 40 41
f 27 41 42
f 27 42 43
f 27 43 44
f 27 44 45
f 27 45 46
f 27 46 34
f 28 47 29
f 29 47 48
f 30 49 50
f 30 50 51
f 30 51 52
f 31 36 32
f 32 35 33
f 34 52 51
f 34 46 36
f 34 36 52
f 36 46 45
f 36 45 44
f 36 44 43
f 36 43 42
f 36 42 41
f 36 41 40
f 36 40 39
f 36 39 38
f 36 38 37
f 47 53 48
f 48 53 54
f 49 55 56
f 49 56 50
f 53 57 54
f 54 57 58
f 55 59 56
f 56 59 60
f 57 61 58
f 58 61 62
f 59 63 64
f 59 64 60
f 61 64 63
f 61 63 62

