# https://github.com/mikedh/trimesh
v -0.03094866 -0.01551960 -0.00436112
v -0.03428878 -0.01567233 -0.00472489
v -0.03444458 -0.01554056 0.00112412
v -0.03155436 -0.01551960 0.00916397
v -0.01694921 -0.03081615 0.00620881
v -0.01674264 -0.03081615 0.00109688
v -0.01656058 -0.03081615 -0.00475351
v -0.03316840 -0.01788535 -0.00472489
v -0.03394216 -0.01644045 -0.00437066
v -0.03430278 -0.01581457 0.00000691
v -0.02549033 -0.02378477 -0.00475351
v -0.02856961 -0.02456337 -0.00475351
v -0.03436230 -0.01576965 0.00328498
v -0.03435530 -0.01590291 0.00915580
v -0.03210054 -0.02004298 0.00916397
v -0.02591047 -0.02378477 0.00916533
v -0.01708226 -0.03081615 0.00916533
v -0.02234627 -0.03070085 0.00877976
v -0.02209944 -0.03060502 -0.00475351
v -0.03281478 -0.01853219 -0.00437066
v -0.03359730 -0.01716065 -0.00328614
v -0.03358679 -0.01714119 -0.00437066
v -0.03224584 -0.01951742 -0.00472489
v -0.03396842 -0.01644045 -0.00255587
v -0.02847333 -0.02481941 0.00000146
v -0.02926284 -0.02372787 -0.00473852
v -0.03060554 -0.02200147 -0.00472489
v -0.03170841 -0.02035292 -0.00472489
v -0.02633936 -0.02707286 -0.00475351
v -0.02789038 -0.02535844 -0.00475214
v -0.03355178 -0.01754696 0.00877840
v -0.03271850 -0.01903230 0.00915988
v -0.03178719 -0.02045324 0.00383405
v -0.03147383 -0.02091741 0.00237350
v -0.03129177 -0.02125880 0.00915988
v -0.03062655 -0.02220660 0.00916397
v -0.02512796 -0.02843991 0.00916533
v -0.03220733 -0.01982437 0.00620881
v -0.02414938 -0.02928739 0.00916533
v -0.02344914 -0.02988182 0.00911356
v -0.02262637 -0.03030856 -0.00109531
v -0.02321806 -0.02982942 -0.00328751
v -0.02301675 -0.02995070 -0.00475214
v -0.02383602 -0.02929338 -0.00475351
v -0.03280428 -0.01887657 0.00840100
v -0.03142657 -0.02084255 -0.00310357
v -0.03134779 -0.02108511 0.00109824
v -0.02849258 -0.02484187 0.00171952
v -0.02989655 -0.02294477 -0.00472489
v -0.03082962 -0.02174692 -0.00292100
v -0.03153510 -0.02064340 -0.00401642
v -0.02615905 -0.02726751 -0.00383521
v -0.02636387 -0.02709532 -0.00255587
v -0.02689430 -0.02651736 -0.00292100
v -0.02577917 -0.02761040 -0.00475214
v -0.02998583 -0.02307504 0.00916397
v -0.02500717 -0.02829168 -0.00475078
v -0.02932236 -0.02390904 0.00916397
v -0.02599275 -0.02764334 0.00915988
v -0.02833853 -0.02503652 0.00291984
v -0.02834378 -0.02504401 0.00401798
v -0.02657219 -0.02692763 0.00109688
v -0.02781161 -0.02562347 0.00328498
v -0.02680852 -0.02677789 0.00914762
f 1 2 3
f 1 3 4
f 1 4 5
f 1 5 6
f 1 6 7
f 1 7 2
f 2 8 9
f 2 9 10
f 2 10 3
f 2 7 11
f 2 11 12
f 2 12 8
f 3 13 14
f 3 14 4
f 3 10 13
f 4 14 15
f 4 15 16
f 4 16 17
f 4 17 5
f 5 17 7
f 5 7 6
f 7 17 18
f 7 18 19
f 7 19 44
f 7 44 29
f 7 29 12
f 7 12 11
f 8 20 21
f 8 21 22
f 8 22 9
f 8 12 23
f 8 23 20
f 9 21 24
f 9 24 10
f 9 22 21
f 10 24 13
f 12 25 26
f 12 26 27
f 12 27 28
f 12 28 23
f 12 29 30
f 12 30 25
f 13 24 31
f 13 31 14
f 14 31 32
f 14 32 15
f 15 33 34
f 15 34 35
f 15 35 36
f 15 36 37
f 15 37 16
f 15 32 38
f 15 38 33
f 16 37 39
f 16 39 17
f 17 39 40
f 17 40 18
f 18 41 19
f 18 40 42
f 18 42 41
f 19 41 43
f 19 43 44
f 20 23 45
f 20 45 21
f 21 45 31
f 21 31 24
f 23 38 45
f 23 28 46
f 23 46 47
f 23 47 34
f 23 34 33
f 23 33 38
f 25 48 26
f 25 30 48
f 26 48 49
f 26 49 27
f 27 49 50
f 27 50 28
f 28 50 51
f 28 51 46
f 29 52 53
f 29 53 54
f 29 54 30
f 29 44 55
f 29 55 52
f 30 54 48
f 31 45 32
f 32 45 38
f 34 47 35
f 35 47 36
f 36 47 50
f 36 50 56
f 36 56 37
f 37 55 57
f 37 57 39
f 37 56 58
f 37 58 59
f 37 59 55
f 39 57 44
f 39 44 40
f 40 44 42
f 41 42 43
f 42 44 43
f 44 57 55
f 46 51 50
f 46 50 47
f 48 60 61
f 48 61 58
f 48 58 56
f 48 56 49
f 48 54 60
f 49 56 50
f 52 59 53
f 52 55 59
f 53 62 54
f 53 59 62
f 54 62 63
f 54 63 60
f 58 61 64
f 58 64 59
f 59 64 62
f 60 63 61
f 61 63 64
f 62 64 63

