# https://github.com/mikedh/trimesh
v 0.00470405 -0.03490105 0.00916533
v 0.00074210 -0.03795340 0.00916533
v 0.00383479 -0.03774224 0.00916165
v 0.00470405 -0.03751424 -0.00110090
v 0.00470405 -0.03480072 0.00695675
v -0.01707634 -0.03081744 0.00916533
v 0.00209628 -0.03787202 0.00675430
v -0.00675103 -0.03742655 0.00916533
v -0.00420259 -0.03778854 0.00915797
v -0.00174185 -0.03798357 0.00901810
v -0.00109700 -0.03796462 0.00693834
v 0.00109290 -0.03753459 -0.02118062
v 0.00255542 -0.03780748 0.00401197
v 0.00364908 -0.03769874 0.00255430
v 0.00462925 -0.03717189 -0.02485423
v 0.00470405 -0.03395819 -0.02843950
v 0.00470405 -0.03436858 -0.01056837
v -0.02164702 -0.03118574 0.00915797
v -0.01949839 -0.03253478 0.00916165
v -0.01351420 -0.03547981 0.00916533
v -0.01491739 -0.03081744 -0.02373890
v -0.01560350 -0.03081744 -0.02843950
v -0.02095317 -0.03108683 -0.02558306
v 0.00218914 -0.03774785 -0.00219783
v -0.00955225 -0.03679026 0.00916533
v -0.00710699 -0.03728625 0.00255430
v -0.00581213 -0.03711157 -0.02200516
v -0.00359643 -0.03737183 -0.02373890
v -0.00055017 -0.03746934 -0.02574503
v 0.00036035 -0.03762368 -0.01570701
v 0.00100004 -0.03749390 -0.02355485
v 0.00191315 -0.03751915 -0.01930700
v 0.00226652 -0.03736482 -0.02546527
v 0.00365682 -0.03710595 -0.02765913
v 0.00048674 -0.03731711 -0.02772907
v -0.00808458 -0.03640302 -0.02792785
v -0.02115178 -0.03111489 -0.01698431
v -0.01981307 -0.03220647 -0.00182974
v -0.01775988 -0.03353937 0.00914693
v -0.01542295 -0.03466744 0.00916165
v -0.01844084 -0.03278383 -0.01931436
v -0.01184275 -0.03608523 0.00916165
v -0.01351420 -0.03538019 0.00182547
v -0.01774698 -0.03285749 -0.02777693
v -0.02045792 -0.03123766 -0.02769226
v -0.01843568 -0.03267930 -0.02440147
v -0.01023837 -0.03653280 0.00401197
v -0.00957547 -0.03655244 -0.00767144
v -0.00900026 -0.03644301 -0.02374994
v -0.00767445 -0.03685971 -0.01643584
v -0.00672008 -0.03688216 -0.02533276
v -0.00566511 -0.03698809 -0.02693398
v -0.00353195 -0.03728133 -0.02673889
v -0.00121566 -0.03737043 -0.02743091
v -0.00939233 -0.03625640 -0.02629717
v -0.01059175 -0.03579830 -0.02777693
v -0.01708150 -0.03356533 -0.01387389
v -0.01616581 -0.03384314 -0.02529227
v -0.01424417 -0.03468497 -0.02520393
v -0.01279455 -0.03526795 -0.02428736
v -0.01149969 -0.03576322 -0.02136467
v -0.01532235 -0.03409569 -0.02740515
v -0.01096834 -0.03585162 -0.02574135
v -0.01251597 -0.03523427 -0.02695239
f 1 2 3
f 1 3 4
f 1 4 16
f 1 16 17
f 1 17 5
f 1 5 6
f 1 6 20
f 1 20 25
f 1 25 8
f 1 8 2
f 2 7 3
f 2 8 9
f 2 9 10
f 2 10 11
f 2 11 12
f 2 12 7
f 3 7 13
f 3 13 14
f 3 14 4
f 4 14 15
f 4 15 16
f 5 17 6
f 6 18 19
f 6 19 20
f 6 17 16
f 6 16 21
f 6 21 22
f 6 22 23
f 6 23 18
f 7 24 13
f 7 12 24
f 8 25 26
f 8 26 9
f 9 26 27
f 9 27 28
f 9 28 10
f 10 28 29
f 10 29 11
f 11 29 30
f 11 30 12
f 12 29 31
f 12 31 32
f 12 32 24
f 12 30 29
f 13 24 14
f 14 24 32
f 14 32 15
f 15 33 34
f 15 34 16
f 15 32 33
f 16 34 35
f 16 35 36
f 16 36 22
f 16 22 21
f 18 23 37
f 18 37 38
f 18 38 19
f 19 39 40
f 19 40 20
f 19 38 41
f 19 41 39
f 20 42 25
f 20 40 43
f 20 43 42
f 22 36 44
f 22 44 45
f 22 45 23
f 23 45 46
f 23 46 41
f 23 41 37
f 25 42 47
f 25 47 48
f 25 48 26
f 26 48 49
f 26 49 50
f 26 50 27
f 27 51 52
f 27 52 28
f 27 50 51
f 28 52 53
f 28 53 29
f 29 53 54
f 29 54 35
f 29 35 33
f 29 33 31
f 31 33 32
f 33 35 34
f 35 54 36
f 36 54 52
f 36 52 55
f 36 55 56
f 36 56 44
f 37 41 38
f 39 57 40
f 39 41 57
f 40 57 58
f 40 58 59
f 40 59 43
f 41 46 58
f 41 58 57
f 42 43 60
f 42 60 61
f 42 61 47
f 43 59 60
f 44 56 62
f 44 62 58
f 44 58 46
f 44 46 45
f 47 61 48
f 48 61 63
f 48 63 49
f 49 63 55
f 49 55 51
f 49 51 50
f 51 55 52
f 52 54 53
f 55 63 56
f 56 63 64
f 56 64 62
f 58 62 59
f 59 62 64
f 59 64 60
f 60 64 63
f 60 63 61

