# https://github.com/mikedh/trimesh
v 0.03868302 0.01671090 0.03124742
v 0.03936577 0.01570687 0.03124859
v 0.03456153 0.01653930 0.03112819
v 0.03149568 0.01671090 0.03139749
v 0.03470395 0.01671090 0.03682057
v 0.03857648 0.01664226 0.03667691
v 0.04039751 0.01660794 0.03348203
v 0.03997133 0.01647869 0.03189478
v 0.04006157 0.01543816 0.03151556
v 0.03710553 0.00952501 0.03112819
v 0.03685221 0.01055605 0.03112819
v 0.03657172 0.01148048 0.03112819
v 0.03568241 0.01401792 0.03112819
v 0.03515621 0.01527606 0.03112819
v 0.04020290 0.01411796 0.03136317
v 0.04100632 0.01183901 0.03137073
v 0.04161297 0.00965060 0.03137422
v 0.03439084 0.00925119 0.03142889
v 0.03443216 0.00925119 0.03259738
v 0.03156309 0.01671090 0.03291902
v 0.03355589 0.01671090 0.03635643
v 0.03762411 0.00955787 0.03692410
v 0.03616512 0.01570687 0.03702763
v 0.03579982 0.01657362 0.03700844
v 0.03725991 0.01657362 0.03703636
v 0.03835470 0.01570687 0.03691363
v 0.03965605 0.01424648 0.03664318
v 0.03927227 0.01561852 0.03656233
v 0.03942992 0.01657362 0.03613600
v 0.04018768 0.01655683 0.03510768
v 0.04074649 0.01543597 0.03470171
v 0.04089761 0.01532425 0.03367746
v 0.04094218 0.01488686 0.03230657
v 0.04180975 0.01218074 0.03228214
v 0.04245010 0.00975867 0.03241126
v 0.04260122 0.00955787 0.03360825
v 0.04243488 0.00929719 0.03500881
v 0.03497792 0.00925119 0.03502393
v 0.03454196 0.00925119 0.03364198
v 0.03191751 0.01671090 0.03451849
v 0.03263614 0.01671090 0.03567012
v 0.03608901 0.00928112 0.03619881
v 0.03871999 0.00955787 0.03705148
v 0.03689679 0.01570687 0.03707009
v 0.03908419 0.01095985 0.03705380
v 0.03908419 0.01242025 0.03699273
v 0.03908419 0.01388138 0.03689502
v 0.03992241 0.01247866 0.03676183
v 0.04084325 0.00968565 0.03668505
v 0.04160862 0.00963308 0.03613716
v 0.04051057 0.01369080 0.03610052
v 0.04017137 0.01552506 0.03577772
v 0.04104981 0.01435674 0.03498787
v 0.04157818 0.01320886 0.03429689
v 0.04129117 0.01424648 0.03360883
v 0.04163580 0.01306136 0.03280967
v 0.04228267 0.01097372 0.03324240
v 0.04235660 0.01036547 0.03430445
v 0.04205110 0.01132422 0.03470171
v 0.04168255 0.01217709 0.03508733
v 0.04129117 0.01166668 0.03591672
v 0.03981586 0.00955787 0.03700844
v 0.03981586 0.01095985 0.03693864
v 0.04205328 0.01168932 0.03397409
f 1 2 3
f 1 3 4
f 1 4 20
f 1 20 40
f 1 40 41
f 1 41 21
f 1 21 5
f 1 5 6
f 1 6 7
f 1 7 8
f 1 8 9
f 1 9 2
f 2 10 11
f 2 11 12
f 2 12 13
f 2 13 14
f 2 14 3
f 2 9 15
f 2 15 16
f 2 16 17
f 2 17 10
f 3 14 13
f 3 13 12
f 3 12 11
f 3 11 10
f 3 10 4
f 4 10 18
f 4 18 19
f 4 19 20
f 5 21 22
f 5 22 23
f 5 23 24
f 5 24 25
f 5 25 6
f 6 25 26
f 6 26 27
f 6 27 28
f 6 28 29
f 6 29 30
f 6 30 7
f 7 31 32
f 7 32 33
f 7 33 8
f 7 30 31
f 8 33 9
f 9 33 34
f 9 34 16
f 9 16 15
f 10 17 18
f 16 34 17
f 17 34 35
f 17 35 36
f 17 36 37
f 17 37 18
f 18 38 39
f 18 39 19
f 18 37 38
f 19 39 20
f 20 39 40
f 21 41 42
f 21 42 22
f 22 43 23
f 22 42 43
f 23 43 44
f 23 44 24
f 24 44 25
f 25 44 45
f 25 45 46
f 25 46 26
f 26 46 47
f 26 47 27
f 27 48 49
f 27 49 50
f 27 50 51
f 27 51 28
f 27 47 48
f 28 51 29
f 29 51 52
f 29 52 30
f 30 52 53
f 30 53 31
f 31 53 54
f 31 54 55
f 31 55 32
f 32 55 33
f 33 55 56
f 33 56 34
f 34 56 57
f 34 57 35
f 35 57 36
f 36 57 58
f 36 58 37
f 37 58 59
f 37 59 60
f 37 60 61
f 37 61 50
f 37 50 49
f 37 49 62
f 37 62 42
f 37 42 38
f 38 42 41
f 38 41 40
f 38 40 39
f 42 62 43
f 43 45 44
f 43 62 45
f 45 62 46
f 46 62 63
f 46 63 47
f 47 63 48
f 48 63 49
f 49 63 62
f 50 61 51
f 51 61 52
f 52 61 60
f 52 60 53
f 53 60 59
f 53 59 54
f 54 59 64
f 54 64 55
f 55 64 57
f 55 57 56
f 57 64 58
f 58 64 59

