# https://github.com/mikedh/trimesh
v -0.01492221 -0.03081581 -0.02374218
v -0.02103250 -0.02378713 -0.02112921
v -0.02098401 -0.02378713 -0.02006965
v -0.02106713 -0.02378713 -0.01897994
v -0.01656095 -0.03081581 -0.00475351
v -0.02174589 -0.03073118 -0.01601687
v -0.02145776 -0.03065274 -0.02700898
v -0.01568132 -0.03070297 -0.02843950
v -0.02124167 -0.02378713 -0.02216095
v -0.02214761 -0.02378713 -0.01388384
v -0.02464520 -0.02378713 -0.00649472
v -0.02531704 -0.02378713 -0.00507810
v -0.02885910 -0.02421718 -0.00475351
v -0.02301339 -0.02994953 -0.00475351
v -0.02198277 -0.03068439 -0.00511752
v -0.02269617 -0.02999150 -0.01899385
v -0.02179576 -0.03059632 -0.02154886
v -0.02177498 -0.03057980 -0.02300953
v -0.02188719 -0.03043187 -0.02556686
v -0.02235401 -0.03000664 -0.02702984
v -0.02228614 -0.02992544 -0.02820301
v -0.02129154 -0.03062866 -0.02816591
v -0.02502337 -0.02770021 -0.02843950
v -0.02008915 -0.02699838 -0.02843950
v -0.02166832 -0.02378713 -0.02331789
v -0.02907242 -0.02378713 -0.01803399
v -0.02840751 -0.02474218 -0.00621186
v -0.02789358 -0.02535938 -0.00475351
v -0.02865685 -0.02431351 -0.01716686
v -0.02413682 -0.02903576 -0.00475351
v -0.02365337 -0.02929723 -0.01534682
v -0.02331676 -0.02936535 -0.02538601
v -0.02321563 -0.02935847 -0.02696261
v -0.02362705 -0.02893531 -0.02816360
v -0.02696963 -0.02581213 -0.02843950
v -0.02492917 -0.02784264 -0.02812650
v -0.02609277 -0.02673415 -0.02824243
v -0.02457317 -0.02378713 -0.02843950
v -0.02888126 -0.02390479 -0.02483884
v -0.02800579 -0.02509516 -0.01607716
v -0.02605814 -0.02734379 -0.00475583
v -0.02699872 -0.02626626 -0.01498050
v -0.02702088 -0.02629241 -0.00986352
v -0.02858897 -0.02427841 -0.02392998
v -0.02552067 -0.02772016 -0.01351751
v -0.02483913 -0.02828645 -0.01516366
v -0.02472693 -0.02819218 -0.02575002
v -0.02438893 -0.02841856 -0.02702984
v -0.02724806 -0.02560296 -0.02812650
v -0.02805427 -0.02471947 -0.02820301
v -0.02864577 -0.02395915 -0.02828648
v -0.02534613 -0.02759081 -0.02684668
v -0.02626593 -0.02672865 -0.02702984
v -0.02702227 -0.02592842 -0.02739617
v -0.02877321 -0.02396947 -0.02667743
v -0.02804319 -0.02483507 -0.02684668
v -0.02793376 -0.02503598 -0.02374218
v -0.02628117 -0.02701351 -0.01644116
v -0.02693223 -0.02619126 -0.02228151
v -0.02791990 -0.02501947 -0.02520517
v -0.02679370 -0.02625112 -0.02538601
v -0.02687405 -0.02613553 -0.02629951
v -0.02680894 -0.02626489 -0.02428935
f 1 2 3
f 1 3 4
f 1 4 5
f 1 5 6
f 1 6 7
f 1 7 8
f 1 8 2
f 2 9 25
f 2 25 38
f 2 38 26
f 2 26 12
f 2 12 11
f 2 11 10
f 2 10 4
f 2 4 3
f 2 8 9
f 4 10 5
f 5 10 11
f 5 11 12
f 5 12 13
f 5 13 28
f 5 28 30
f 5 30 14
f 5 14 15
f 5 15 6
f 6 16 17
f 6 17 18
f 6 18 7
f 6 15 14
f 6 14 16
f 7 19 20
f 7 20 21
f 7 21 22
f 7 22 8
f 7 18 19
f 8 22 23
f 8 23 35
f 8 35 38
f 8 38 24
f 8 24 25
f 8 25 9
f 12 26 13
f 13 27 28
f 13 26 29
f 13 29 27
f 14 30 31
f 14 31 16
f 16 18 17
f 16 31 32
f 16 32 19
f 16 19 18
f 19 32 20
f 20 32 33
f 20 33 34
f 20 34 21
f 21 34 23
f 21 23 22
f 23 34 36
f 23 36 37
f 23 37 35
f 24 38 25
f 26 38 39
f 26 39 29
f 27 29 40
f 27 40 28
f 28 41 30
f 28 40 42
f 28 42 43
f 28 43 41
f 29 39 44
f 29 44 40
f 30 41 45
f 30 45 46
f 30 46 31
f 31 46 47
f 31 47 32
f 32 47 48
f 32 48 33
f 33 48 34
f 34 48 36
f 35 37 49
f 35 49 50
f 35 50 51
f 35 51 38
f 36 48 52
f 36 52 53
f 36 53 37
f 37 53 54
f 37 54 49
f 38 51 39
f 39 55 56
f 39 56 44
f 39 51 55
f 40 44 57
f 40 57 42
f 41 43 58
f 41 58 45
f 42 57 59
f 42 59 58
f 42 58 43
f 44 56 60
f 44 60 57
f 45 58 46
f 46 58 47
f 47 52 48
f 47 58 52
f 49 54 50
f 50 54 56
f 50 56 55
f 50 55 51
f 52 58 53
f 53 61 62
f 53 62 54
f 53 58 61
f 54 62 56
f 56 62 61
f 56 61 60
f 57 60 59
f 58 59 63
f 58 63 61
f 59 60 61
f 59 61 63

