# https://github.com/mikedh/trimesh
v 0.00171228 0.04390880 0.03299741
v -0.00182514 0.04332884 0.03210503
v -0.00358204 0.04340765 0.03241008
v -0.00528772 0.04369517 0.03353580
v -0.00368052 0.04366931 0.03489144
v 0.00325055 0.04387987 0.03340604
v 0.00365235 0.04335285 0.03208625
v -0.00497849 0.04291326 0.03188819
v 0.00098944 0.04306348 0.03168559
v -0.00620753 0.04324757 0.03261496
v -0.00777731 0.04287570 0.03265252
v -0.00789746 0.04309734 0.03436102
v -0.00515379 0.04304501 0.03578952
v -0.00177984 0.04330544 0.03575992
v 0.00155471 0.04363852 0.03517657
v -0.00664872 0.04308749 0.03529609
v 0.00547818 0.04357203 0.03397402
v 0.00949423 0.04276303 0.03342596
v 0.00950210 0.04242872 0.03231048
v 0.00804656 0.04266822 0.03227861
v 0.01032934 0.04165359 0.03154900
v 0.00657132 0.04226434 0.03147160
v -0.00797427 0.04174286 0.03150574
v -0.00620753 0.04267315 0.03184209
v 0.00292163 0.04234807 0.03136062
v -0.00791518 0.03947964 0.03711272
v -0.00782064 0.04266145 0.03571838
v -0.00374157 0.04263251 0.03635921
v -0.00657191 0.04261096 0.03605814
v -0.00068670 0.04230005 0.03669783
v 0.00298071 0.04329806 0.03565293
v 0.00679192 0.04301485 0.03533877
v 0.00931302 0.04267315 0.03488063
v 0.01160762 0.04221755 0.03410606
v 0.01074099 0.04237146 0.03289952
v 0.01192670 0.04114997 0.03160932
v 0.01059130 0.04117090 0.03132647
v 0.00803474 0.04179581 0.03134468
v -0.00797427 0.04025047 0.03177038
v -0.00797427 0.03863863 0.03332181
v 0.01214729 0.03923953 0.03162867
v -0.00036369 0.03981765 0.03714004
v -0.00310342 0.04036560 0.03712638
v -0.00657191 0.04054907 0.03710134
v -0.00716673 0.04180012 0.03659881
v 0.00823958 0.03762031 0.03676328
v 0.01171004 0.03762031 0.03702508
v -0.00524439 0.04175271 0.03680312
v 0.00063884 0.04127741 0.03705126
v 0.00228347 0.04220339 0.03670637
v 0.00511381 0.04214490 0.03659938
v 0.00657132 0.04258634 0.03604619
v 0.01184200 0.04162465 0.03580033
v -0.00650494 0.03859738 0.03316245
v 0.00808398 0.03761908 0.03282041
v 0.01214532 0.03790105 0.03282440
v 0.00912985 0.04018336 0.03702280
v 0.00766839 0.04054907 0.03702451
v 0.01172580 0.03980041 0.03689247
v 0.00401673 0.04127741 0.03699833
v 0.00593316 0.04100405 0.03697784
v 0.01044161 0.04091232 0.03666141
v 0.01031752 0.04153353 0.03629148
v 0.00833609 0.04184506 0.03635693
f 1 2 3
f 1 3 4
f 1 4 5
f 1 5 6
f 1 6 7
f 1 7 2
f 2 8 3
f 2 7 9
f 2 9 8
f 3 8 10
f 3 10 4
f 4 10 11
f 4 11 12
f 4 12 5
f 5 13 14
f 5 14 15
f 5 15 6
f 5 12 16
f 5 16 13
f 6 17 18
f 6 18 19
f 6 19 20
f 6 20 7
f 6 15 17
f 7 20 19
f 7 19 21
f 7 21 22
f 7 22 9
f 8 9 23
f 8 23 24
f 8 24 10
f 9 25 23
f 9 22 25
f 10 24 11
f 11 23 12
f 11 24 23
f 12 23 26
f 12 26 27
f 12 27 16
f 13 28 14
f 13 16 27
f 13 27 29
f 13 29 28
f 14 28 30
f 14 30 31
f 14 31 15
f 15 31 32
f 15 32 17
f 17 32 33
f 17 33 18
f 18 33 34
f 18 34 35
f 18 35 19
f 19 35 36
f 19 36 21
f 21 37 38
f 21 38 22
f 21 36 37
f 22 38 25
f 23 39 40
f 23 40 26
f 23 25 37
f 23 37 41
f 23 41 39
f 25 38 37
f 26 42 43
f 26 43 44
f 26 44 45
f 26 45 27
f 26 40 46
f 26 46 47
f 26 47 42
f 27 45 29
f 28 29 45
f 28 45 48
f 28 48 30
f 30 49 50
f 30 50 31
f 30 48 49
f 31 51 52
f 31 52 32
f 31 50 51
f 32 52 53
f 32 53 33
f 33 53 34
f 34 53 36
f 34 36 35
f 36 53 41
f 36 41 37
f 39 54 40
f 39 41 55
f 39 55 54
f 40 54 55
f 40 55 46
f 41 53 56
f 41 56 55
f 42 49 43
f 42 47 57
f 42 57 58
f 42 58 49
f 43 49 44
f 44 48 45
f 44 49 48
f 46 55 47
f 47 55 56
f 47 56 53
f 47 53 59
f 47 59 57
f 49 58 60
f 49 60 50
f 50 60 51
f 51 60 61
f 51 61 58
f 51 58 62
f 51 62 63
f 51 63 64
f 51 64 52
f 52 64 63
f 52 63 53
f 53 63 62
f 53 62 59
f 57 59 62
f 57 62 58
f 58 61 60

