# https://github.com/mikedh/trimesh
v 0.03569839 -0.01378597 0.03116705
v 0.03255797 -0.01408124 0.03120317
v 0.03676174 -0.01058844 0.03116705
v 0.03605157 -0.01283099 0.03116705
v 0.04054647 -0.01058844 0.03123404
v 0.04054647 -0.01205550 0.03127947
v 0.04003484 -0.01408124 0.03133422
v 0.03258088 -0.01408124 0.03224342
v 0.03387809 -0.01058227 0.03147692
v 0.03654220 -0.01136461 0.03116705
v 0.03629879 -0.01211339 0.03116705
v 0.04224364 -0.01058501 0.03254222
v 0.04160410 -0.01058844 0.03163127
v 0.04081756 -0.01132488 0.03127889
v 0.04095406 -0.01225760 0.03139072
v 0.04107815 -0.01393943 0.03219333
v 0.04134828 -0.01408124 0.03317418
v 0.03264770 -0.01408124 0.03324291
v 0.03390673 -0.01058227 0.03251252
v 0.04219495 -0.01058227 0.03469554
v 0.04230854 -0.01059905 0.03361335
v 0.04168428 -0.01297383 0.03298838
v 0.04189905 -0.01163898 0.03239079
v 0.04161269 -0.01132488 0.03177106
v 0.04193437 -0.01205550 0.03360869
v 0.04166901 -0.01287484 0.03397389
v 0.04139028 -0.01379796 0.03397389
v 0.04127001 -0.01379796 0.03482426
v 0.03983439 -0.01408124 0.03650521
v 0.03291210 -0.01405657 0.03450566
v 0.03411577 -0.01058227 0.03397330
v 0.03398214 -0.01058227 0.03324291
v 0.03381414 -0.01408124 0.03581792
v 0.03982198 -0.01058535 0.03700146
v 0.04102565 -0.01096077 0.03635203
v 0.04175300 -0.01104024 0.03560940
v 0.04201168 -0.01132488 0.03470253
v 0.03909176 -0.01058227 0.03711154
v 0.04212623 -0.01132488 0.03360869
v 0.04169000 -0.01244804 0.03481436
v 0.04082233 -0.01355271 0.03579812
v 0.04091397 -0.01205550 0.03618836
v 0.04033457 -0.01205550 0.03661705
v 0.03991552 -0.01313824 0.03665723
v 0.03912326 -0.01379796 0.03688788
v 0.03839686 -0.01379796 0.03704748
v 0.03551703 -0.01408124 0.03685177
v 0.03449186 -0.01061721 0.03514636
v 0.03519248 -0.01058227 0.03595130
v 0.03477631 -0.01408124 0.03652909
v 0.03908603 -0.01241996 0.03703408
v 0.03981625 -0.01132488 0.03692982
v 0.04044434 -0.01132488 0.03667354
v 0.03690206 -0.01058227 0.03688905
v 0.03799405 -0.01058535 0.03708592
v 0.03762464 -0.01241996 0.03711679
v 0.03835581 -0.01278475 0.03710164
v 0.03981625 -0.01205550 0.03685410
v 0.03730487 -0.01379625 0.03710456
v 0.03620620 -0.01379796 0.03701544
v 0.03606302 -0.01058535 0.03656812
v 0.03525071 -0.01332767 0.03664034
v 0.03689633 -0.01132488 0.03696011
v 0.03762464 -0.01132488 0.03708999
f 1 2 3
f 1 3 10
f 1 10 11
f 1 11 4
f 1 4 5
f 1 5 6
f 1 6 7
f 1 7 2
f 2 8 9
f 2 9 3
f 2 7 17
f 2 17 29
f 2 29 47
f 2 47 50
f 2 50 33
f 2 33 18
f 2 18 8
f 3 9 5
f 3 5 10
f 4 11 5
f 5 12 13
f 5 13 14
f 5 14 6
f 5 11 10
f 5 9 12
f 6 14 7
f 7 14 15
f 7 15 16
f 7 16 17
f 8 18 19
f 8 19 9
f 9 19 32
f 9 32 31
f 9 31 49
f 9 49 54
f 9 54 38
f 9 38 20
f 9 20 12
f 12 20 21
f 12 21 22
f 12 22 23
f 12 23 24
f 12 24 13
f 13 24 15
f 13 15 14
f 15 24 16
f 16 24 23
f 16 23 22
f 16 22 17
f 17 22 25
f 17 25 26
f 17 26 27
f 17 27 28
f 17 28 29
f 18 30 31
f 18 31 32
f 18 32 19
f 18 33 30
f 20 34 35
f 20 35 36
f 20 36 37
f 20 37 21
f 20 38 34
f 21 37 39
f 21 39 22
f 22 39 25
f 25 39 37
f 25 37 26
f 26 40 27
f 26 37 40
f 27 40 28
f 28 40 36
f 28 36 41
f 28 41 29
f 29 41 42
f 29 42 43
f 29 43 44
f 29 44 45
f 29 45 46
f 29 46 47
f 30 33 48
f 30 48 31
f 31 48 49
f 33 50 49
f 33 49 48
f 34 38 51
f 34 51 45
f 34 45 52
f 34 52 53
f 34 53 35
f 35 53 43
f 35 43 42
f 35 42 36
f 36 42 41
f 36 40 37
f 38 54 55
f 38 55 56
f 38 56 57
f 38 57 51
f 43 53 44
f 44 53 58
f 44 58 45
f 45 51 46
f 45 58 52
f 46 51 57
f 46 57 59
f 46 59 47
f 47 59 60
f 47 60 54
f 47 54 61
f 47 61 62
f 47 62 50
f 49 50 61
f 49 61 54
f 50 62 61
f 52 58 53
f 54 60 63
f 54 63 55
f 55 64 56
f 55 63 64
f 56 59 57
f 56 64 60
f 56 60 59
f 60 64 63

