# https://github.com/mikedh/trimesh
v -0.03367470 -0.00840614 -0.02843950
v -0.03666096 -0.00801794 -0.02556466
v -0.03658891 -0.00796051 -0.02710699
v -0.03650065 -0.00782707 -0.02836956
v -0.03391135 -0.00014386 -0.02843950
v -0.03367470 -0.00171366 -0.02843950
v -0.03303059 -0.00840614 -0.01131929
v -0.03670819 -0.00840614 -0.01498186
v -0.03668815 -0.00802926 -0.02428736
v -0.03690095 -0.00693824 -0.02447141
v -0.03692767 -0.00657430 -0.02556466
v -0.03686373 -0.00657430 -0.02702601
v -0.03678787 -0.00657430 -0.02812662
v -0.03695677 -0.00547924 -0.02828122
v -0.03708464 -0.00449902 -0.02828122
v -0.03729600 -0.00200077 -0.02830331
v -0.03735039 -0.00025466 -0.02828122
v -0.03745535 -0.00022716 -0.02694134
v -0.03516711 -0.00014386 0.00916533
v -0.03367470 -0.00014386 -0.00519047
v -0.03367565 -0.00014466 -0.02623092
v -0.03414704 -0.00840614 0.00916533
v -0.03688329 -0.00840614 0.00916533
v -0.03690476 -0.00840452 0.00437639
v -0.03707462 -0.00767098 0.00364755
v -0.03696393 -0.00730461 -0.01424198
v -0.03692051 -0.00693824 -0.02337080
v -0.03700687 -0.00620955 -0.02447141
v -0.03707271 -0.00547924 -0.02629349
v -0.03707796 -0.00511287 -0.02739410
v -0.03725878 -0.00345411 -0.02773275
v -0.03736136 -0.00255800 -0.02739410
v -0.03743341 -0.00146213 -0.02702601
v -0.03750450 -0.00109738 -0.02447141
v -0.03749114 -0.00025466 -0.02550945
v -0.03750784 -0.00025466 -0.02447141
v -0.03783323 -0.00025466 -0.00036839
v -0.03790480 -0.00025466 0.00916165
v -0.03731985 -0.00641740 0.00916533
v -0.03707462 -0.00767098 0.00474448
v -0.03725783 -0.00656379 0.00182547
v -0.03733608 -0.00574047 -0.00676592
v -0.03720630 -0.00695765 0.00474448
v -0.03740001 -0.00474731 -0.01132297
v -0.03715572 -0.00474731 -0.02666159
v -0.03728741 -0.00361667 -0.02666159
v -0.03739285 -0.00255800 -0.02629349
v -0.03746967 -0.00146213 -0.02556466
v -0.03766719 -0.00182688 -0.01059046
v -0.03764906 -0.00091460 -0.01387389
v -0.03778361 -0.00146213 -0.00128495
v -0.03787951 -0.00108121 0.00915429
v -0.03775403 -0.00291547 0.00915797
v -0.03753408 -0.00511287 0.00915429
v -0.03747587 -0.00474731 -0.00621746
v -0.03745201 -0.00328912 -0.01789719
v -0.03762043 -0.00255800 -0.00985794
v -0.03765908 -0.00219244 -0.00895242
v -0.03770775 -0.00255800 -0.00182974
v -0.03769343 -0.00365387 0.00839969
v -0.03766576 -0.00401053 0.00914693
v -0.03753312 -0.00401862 -0.00694997
v -0.03748541 -0.00401862 -0.01059046
v -0.03758561 -0.00328912 -0.00804322
f 1 2 3
f 1 3 4
f 1 4 5
f 1 5 6
f 1 6 7
f 1 7 22
f 1 22 23
f 1 23 8
f 1 8 2
f 2 9 10
f 2 10 11
f 2 11 12
f 2 12 3
f 2 8 9
f 3 12 13
f 3 13 4
f 4 13 14
f 4 14 15
f 4 15 16
f 4 16 5
f 5 16 17
f 5 17 18
f 5 18 19
f 5 19 20
f 5 20 21
f 5 21 6
f 6 21 7
f 7 20 22
f 7 21 20
f 8 23 24
f 8 24 25
f 8 25 26
f 8 26 9
f 9 27 10
f 9 26 27
f 10 27 28
f 10 28 29
f 10 29 11
f 11 29 12
f 12 30 14
f 12 14 13
f 12 29 30
f 14 30 15
f 15 30 31
f 15 31 16
f 16 31 32
f 16 32 33
f 16 33 17
f 17 33 18
f 18 33 34
f 18 34 35
f 18 35 36
f 18 36 37
f 18 37 38
f 18 38 19
f 19 38 39
f 19 39 23
f 19 23 22
f 19 22 20
f 23 39 40
f 23 40 24
f 24 40 25
f 25 41 42
f 25 42 26
f 25 40 39
f 25 39 43
f 25 43 41
f 26 42 27
f 27 42 28
f 28 42 44
f 28 44 29
f 29 45 30
f 29 44 45
f 30 45 31
f 31 45 46
f 31 46 32
f 32 46 47
f 32 47 33
f 33 47 48
f 33 48 34
f 34 36 35
f 34 48 49
f 34 49 50
f 34 50 36
f 36 50 37
f 37 50 49
f 37 49 51
f 37 51 52
f 37 52 38
f 38 52 53
f 38 53 39
f 39 53 54
f 39 54 41
f 39 41 43
f 41 54 42
f 42 55 44
f 42 54 55
f 44 55 56
f 44 56 46
f 44 46 45
f 46 56 47
f 47 56 57
f 47 57 49
f 47 49 48
f 49 57 58
f 49 58 59
f 49 59 51
f 51 59 52
f 52 59 53
f 53 60 61
f 53 61 54
f 53 59 60
f 54 61 55
f 55 61 60
f 55 60 59
f 55 59 62
f 55 62 63
f 55 63 56
f 56 63 64
f 56 64 57
f 57 64 58
f 58 64 59
f 59 64 62
f 62 64 63

