# https://github.com/mikedh/trimesh
v 0.03437155 -0.00014386 -0.02826570
v 0.02711552 0.02131453 -0.02826570
v 0.03423752 0.01455603 -0.02795789
v 0.03689803 0.00505139 -0.02770506
v 0.03724694 0.00075763 -0.02771605
v 0.03747672 -0.00014386 -0.02154533
v 0.03454176 -0.00014386 -0.01268134
v 0.02711552 0.02148389 -0.00718120
v 0.02711552 0.02141354 -0.01168098
v 0.02742402 0.02525656 -0.02752550
v 0.03035047 0.02160113 -0.02766841
v 0.02711552 0.02647330 0.00916533
v 0.03315672 0.01686705 -0.02771239
v 0.03334714 0.01686444 -0.02513270
v 0.03469494 0.01389685 -0.02551379
v 0.03538533 0.01174215 -0.02723236
v 0.03654379 0.00726862 -0.02771605
v 0.03711929 0.00292535 -0.02770139
v 0.03688952 0.00621081 -0.02460504
v 0.03708206 0.00456678 -0.02574464
v 0.03737992 0.00057264 -0.02586557
v 0.03747140 0.00146370 -0.02027015
v 0.03798308 0.00023133 0.00858271
v 0.03536193 -0.00014386 0.00916533
v 0.03481728 -0.00014386 -0.00526110
v 0.02711552 0.02271626 0.00916533
v 0.02711552 0.02160634 -0.00452457
v 0.02908989 0.02339367 -0.02708945
v 0.02757507 0.02527219 -0.02551379
v 0.03016112 0.02208053 -0.02574831
v 0.03178551 0.01949333 -0.02693188
v 0.03184721 0.02061367 0.00916533
v 0.02880693 0.02478497 0.00915800
v 0.03231208 0.01884979 -0.02391981
v 0.03305779 0.01763305 -0.01999899
v 0.03362904 0.01648144 -0.02172855
v 0.03383860 0.01598641 -0.02337017
v 0.03447899 0.01577798 0.00841048
v 0.03532895 0.01365194 0.00501732
v 0.03511301 0.01305529 -0.02205834
v 0.03535661 0.01223458 -0.02428625
v 0.03616296 0.00914974 -0.02703082
v 0.03639805 0.00864950 -0.02450977
v 0.03731609 0.00231307 -0.02511438
v 0.03721716 0.00750571 0.00750173
v 0.03717355 0.00548129 -0.01716281
v 0.03779054 0.00329011 0.00437973
v 0.03791074 0.00265178 0.00841415
v 0.03671718 0.00960048 0.00916533
v 0.02848673 0.02428473 -0.02410303
v 0.02837610 0.02470421 -0.01423868
v 0.03016963 0.02215088 -0.02339582
v 0.03153233 0.02014469 -0.02319061
v 0.03030792 0.02290124 0.00897112
v 0.03532257 0.01380305 0.00916533
v 0.03278972 0.01906343 0.00915800
v 0.03232591 0.01891232 -0.02181649
v 0.03301949 0.01851629 0.00401696
v 0.03336203 0.01789620 0.00474250
v 0.03366839 0.01745327 0.00915434
v 0.03596084 0.01210691 0.00896746
v 0.03614381 0.01132528 0.00474250
v 0.03645869 0.00966301 -0.00675980
v 0.03769160 0.00447819 0.00629617
f 1 2 3
f 1 3 4
f 1 4 5
f 1 5 6
f 1 6 24
f 1 24 25
f 1 25 7
f 1 7 8
f 1 8 9
f 1 9 2
f 2 10 11
f 2 11 3
f 2 9 8
f 2 8 27
f 2 27 26
f 2 26 12
f 2 12 10
f 3 11 13
f 3 13 14
f 3 14 15
f 3 15 16
f 3 16 17
f 3 17 4
f 4 18 5
f 4 17 19
f 4 19 20
f 4 20 18
f 5 18 21
f 5 21 6
f 6 22 23
f 6 23 24
f 6 21 22
f 7 25 26
f 7 26 27
f 7 27 8
f 10 28 11
f 10 12 29
f 10 29 28
f 11 28 30
f 11 30 31
f 11 31 13
f 12 26 24
f 12 24 49
f 12 49 55
f 12 55 32
f 12 32 33
f 12 33 29
f 13 31 14
f 14 34 35
f 14 35 36
f 14 36 37
f 14 37 15
f 14 31 34
f 15 37 38
f 15 38 39
f 15 39 40
f 15 40 41
f 15 41 16
f 16 42 17
f 16 41 42
f 17 42 43
f 17 43 19
f 18 20 44
f 18 44 21
f 19 43 45
f 19 45 46
f 19 46 20
f 20 46 44
f 21 44 22
f 22 47 48
f 22 48 23
f 22 44 47
f 23 48 49
f 23 49 24
f 24 26 25
f 28 29 50
f 28 50 30
f 29 33 51
f 29 51 50
f 30 50 52
f 30 52 53
f 30 53 31
f 31 53 34
f 32 54 33
f 32 55 56
f 32 56 57
f 32 57 53
f 32 53 54
f 33 54 51
f 34 53 57
f 34 57 35
f 35 58 59
f 35 59 36
f 35 57 58
f 36 59 60
f 36 60 38
f 36 38 37
f 38 60 55
f 38 55 39
f 39 55 61
f 39 61 40
f 40 61 41
f 41 43 42
f 41 61 62
f 41 62 63
f 41 63 43
f 43 63 45
f 44 46 47
f 45 49 48
f 45 48 64
f 45 64 46
f 45 63 49
f 46 64 47
f 47 64 48
f 49 63 62
f 49 62 61
f 49 61 55
f 50 51 54
f 50 54 52
f 52 54 53
f 55 60 56
f 56 60 58
f 56 58 57
f 58 60 59

