# https://github.com/mikedh/trimesh
v 0.00759924 0.03483246 0.03147081
v 0.01985638 0.02967288 0.03116019
v 0.01985638 0.02974086 0.03251182
v 0.00759924 0.03491502 0.03285786
v 0.00759924 0.03731149 0.03660154
v 0.00763884 0.03761135 0.03116019
v 0.01985638 0.03281355 0.03116019
v 0.01985638 0.02986834 0.03357431
v 0.00759924 0.03512990 0.03423968
v 0.00759924 0.03601613 0.03574864
v 0.01985638 0.03102772 0.03577883
v 0.01985278 0.03207421 0.03642562
v 0.01985638 0.03360994 0.03691506
v 0.01171455 0.03761985 0.03702537
v 0.01233724 0.03935833 0.03698473
v 0.01233844 0.04114051 0.03607900
v 0.01214888 0.04200853 0.03470996
v 0.01214888 0.04207530 0.03356734
v 0.01862778 0.03762349 0.03118342
v 0.00960291 0.03715731 0.03116019
v 0.01239004 0.04114901 0.03169783
v 0.01351785 0.03981359 0.03125193
v 0.01857499 0.03359902 0.03116019
v 0.01973040 0.03748388 0.03126993
v 0.01985038 0.03882295 0.03490155
v 0.01985638 0.03506920 0.03703176
v 0.01985638 0.03032238 0.03499213
v 0.01320950 0.03799013 0.03709040
v 0.01461206 0.03878652 0.03692609
v 0.01340986 0.04017779 0.03657251
v 0.01680169 0.03762471 0.03697951
v 0.01383099 0.04098147 0.03579916
v 0.01307872 0.04155328 0.03520811
v 0.01519756 0.04095841 0.03447656
v 0.01321430 0.04174995 0.03397376
v 0.01364262 0.04153871 0.03300939
v 0.01388738 0.04104096 0.03202935
v 0.01759956 0.03411862 0.03116019
v 0.01523596 0.03523430 0.03116019
v 0.01388138 0.03580004 0.03116019
v 0.01238284 0.03634877 0.03116019
v 0.01087829 0.03680767 0.03116019
v 0.01570628 0.03908517 0.03123161
v 0.01716643 0.03865298 0.03125367
v 0.01832184 0.03851216 0.03134540
v 0.01698406 0.03944331 0.03158055
v 0.01424612 0.03981359 0.03126528
v 0.01947964 0.03887515 0.03229816
v 0.01941485 0.03920051 0.03357199
v 0.01828824 0.03951615 0.03509315
v 0.01924568 0.03861171 0.03584502
v 0.01956003 0.03762228 0.03651967
v 0.01960682 0.03653452 0.03688893
v 0.01827384 0.03670934 0.03699344
v 0.01643695 0.03689387 0.03706776
v 0.01607221 0.03850002 0.03684829
v 0.01744118 0.03908517 0.03619628
v 0.01537153 0.04005275 0.03613358
v 0.01658573 0.04026884 0.03513902
v 0.01424612 0.04138088 0.03397376
v 0.01508718 0.04103125 0.03290547
v 0.01645255 0.04018750 0.03215882
v 0.01818866 0.03954529 0.03240441
v 0.01723002 0.04013530 0.03301926
f 1 2 3
f 1 3 4
f 1 4 9
f 1 9 10
f 1 10 5
f 1 5 6
f 1 6 2
f 2 7 26
f 2 26 13
f 2 13 11
f 2 11 27
f 2 27 8
f 2 8 3
f 2 6 20
f 2 20 42
f 2 42 41
f 2 41 40
f 2 40 39
f 2 39 38
f 2 38 23
f 2 23 7
f 3 8 4
f 4 8 9
f 5 10 11
f 5 11 12
f 5 12 13
f 5 13 14
f 5 14 15
f 5 15 16
f 5 16 17
f 5 17 18
f 5 18 6
f 6 19 20
f 6 18 21
f 6 21 22
f 6 22 19
f 7 23 19
f 7 19 24
f 7 24 25
f 7 25 26
f 8 27 9
f 9 27 10
f 10 27 11
f 11 13 12
f 13 26 14
f 14 28 15
f 14 26 28
f 15 29 30
f 15 30 16
f 15 28 31
f 15 31 29
f 16 30 32
f 16 32 33
f 16 33 17
f 17 33 34
f 17 34 35
f 17 35 18
f 18 35 36
f 18 36 37
f 18 37 21
f 19 23 38
f 19 38 39
f 19 39 40
f 19 40 41
f 19 41 42
f 19 42 20
f 19 22 43
f 19 43 44
f 19 44 45
f 19 45 24
f 21 37 46
f 21 46 47
f 21 47 22
f 22 47 43
f 24 45 48
f 24 48 25
f 25 48 49
f 25 49 50
f 25 50 51
f 25 51 52
f 25 52 26
f 26 52 53
f 26 53 54
f 26 54 55
f 26 55 28
f 28 55 31
f 29 31 56
f 29 56 30
f 30 56 52
f 30 52 57
f 30 57 58
f 30 58 32
f 31 55 54
f 31 54 53
f 31 53 56
f 32 58 51
f 32 51 59
f 32 59 33
f 33 59 34
f 34 60 35
f 34 59 49
f 34 49 60
f 35 60 61
f 35 61 36
f 36 61 37
f 37 61 62
f 37 62 46
f 43 47 44
f 44 47 45
f 45 47 46
f 45 46 48
f 46 62 48
f 48 62 63
f 48 63 49
f 49 63 64
f 49 64 60
f 49 59 50
f 50 59 51
f 51 58 57
f 51 57 52
f 52 56 53
f 60 64 61
f 61 64 63
f 61 63 62

