# https://github.com/mikedh/trimesh
v 0.00080643 0.03677516 -0.02932813
v 0.00603058 0.03658362 -0.02874065
v 0.00857129 0.03553561 -0.02965262
v 0.00597349 0.03306374 -0.03171367
v 0.00096344 0.03354799 -0.03171947
v -0.00326157 0.03340344 -0.03172482
v -0.00508859 0.03632342 -0.02950062
v -0.00857850 0.03590422 -0.02897868
v 0.02594947 0.02640704 -0.02877364
v 0.02325888 0.02868738 -0.02898803
v 0.01182569 0.03483814 -0.02921001
v -0.01996174 0.03138331 -0.02820667
v -0.02245250 0.02633477 -0.02717213
v 0.01483029 0.03341067 -0.02945382
v 0.01248941 0.03119900 -0.03171367
v 0.00889245 0.03242770 -0.03171367
v 0.01546547 0.02983296 -0.03171367
v 0.01799904 0.02835852 -0.03171412
v 0.02111070 0.02610709 -0.03171412
v 0.00032826 0.03073643 -0.03172482
v -0.02280934 0.02478443 -0.03172571
v -0.00662301 0.03298062 -0.03172482
v -0.01086942 0.03182781 -0.03172482
v -0.01286060 0.03448398 -0.02914315
v 0.02503596 0.02648655 -0.02983403
v 0.03509175 0.00042352 -0.02901611
v 0.03088102 0.02016955 -0.02901389
v 0.02809052 0.02369666 -0.02926528
v 0.02043270 0.03048707 -0.02930317
v -0.02260950 0.02887891 -0.02930985
v -0.02513594 0.02735026 -0.02816121
v -0.01665025 0.03279993 -0.02929915
v -0.01920524 0.03106529 -0.02970922
v -0.02554988 0.02322686 -0.02717213
v 0.01783490 0.03192899 -0.02958264
v 0.02391548 0.02357379 -0.03171412
v 0.02616358 0.02109108 -0.03171412
v 0.02832603 0.01818194 -0.03171412
v 0.03034576 0.01453919 -0.03171412
v -0.03088109 -0.00014386 -0.03172571
v -0.02080389 0.02262696 -0.03172571
v -0.02476483 0.02278236 -0.03172571
v -0.02714853 0.02485309 -0.02936066
v -0.02056124 0.02663472 -0.03172526
v -0.01713556 0.02896564 -0.03172482
v 0.00573084 -0.00014386 -0.03159154
v 0.03588394 0.00725368 -0.02939766
v -0.03702590 0.00107401 -0.02899962
v 0.03468495 0.01174569 -0.02939231
v 0.03344314 0.01484275 -0.02945739
v -0.03193734 0.01818194 -0.02940256
v -0.03481348 0.01215405 -0.02927419
v -0.03659055 0.00520463 -0.02901701
v 0.00291893 0.00219791 -0.03169852
v -0.03370727 0.00109208 -0.03172571
v -0.00401093 -0.00014386 -0.03163567
v -0.02677741 0.02041529 -0.03172571
v -0.02876859 0.01760372 -0.03172571
v -0.03333616 0.01503428 -0.02964370
v -0.03165900 0.01167341 -0.03172571
v -0.03258679 0.00880040 -0.03172571
v -0.03553430 0.00941476 -0.02932679
v -0.03321483 0.00596354 -0.03172571
v -0.03050997 0.01445245 -0.03172571
f 1 2 3
f 1 3 4
f 1 4 5
f 1 5 6
f 1 6 7
f 1 7 8
f 1 8 2
f 2 9 10
f 2 10 11
f 2 11 3
f 2 8 12
f 2 12 13
f 2 13 9
f 3 11 14
f 3 14 15
f 3 15 16
f 3 16 4
f 4 16 5
f 5 16 15
f 5 15 6
f 6 15 17
f 6 17 18
f 6 18 19
f 6 19 20
f 6 20 21
f 6 21 22
f 6 22 7
f 7 22 23
f 7 23 24
f 7 24 8
f 8 24 12
f 9 25 10
f 9 13 26
f 9 26 27
f 9 27 28
f 9 28 25
f 10 25 29
f 10 29 11
f 11 29 14
f 12 30 31
f 12 31 13
f 12 24 32
f 12 32 33
f 12 33 30
f 13 31 34
f 13 34 26
f 14 35 15
f 14 29 35
f 15 35 17
f 17 35 18
f 18 25 19
f 18 35 25
f 19 25 36
f 19 36 20
f 20 36 37
f 20 37 38
f 20 38 39
f 20 39 40
f 20 40 41
f 20 41 21
f 21 42 43
f 21 43 30
f 21 30 33
f 21 33 44
f 21 44 23
f 21 23 22
f 21 41 40
f 21 40 55
f 21 55 63
f 21 63 61
f 21 61 60
f 21 60 64
f 21 64 58
f 21 58 57
f 21 57 42
f 23 44 45
f 23 45 33
f 23 33 32
f 23 32 24
f 25 35 29
f 25 28 37
f 25 37 36
f 26 46 39
f 26 39 47
f 26 47 27
f 26 34 48
f 26 48 40
f 26 40 46
f 27 38 28
f 27 47 49
f 27 49 50
f 27 50 38
f 28 38 37
f 30 43 31
f 31 43 51
f 31 51 52
f 31 52 34
f 33 45 44
f 34 52 53
f 34 53 48
f 38 50 39
f 39 50 49
f 39 49 47
f 39 46 54
f 39 54 40
f 40 48 55
f 40 54 56
f 40 56 46
f 42 57 43
f 43 57 51
f 46 56 54
f 48 53 55
f 51 57 58
f 51 58 59
f 51 59 52
f 52 59 60
f 52 60 61
f 52 61 62
f 52 62 53
f 53 62 63
f 53 63 55
f 58 64 59
f 59 64 60
f 61 63 62

