# https://github.com/mikedh/trimesh
v -0.03559717 0.01402047 0.03132312
v -0.03515168 0.01519489 0.03132312
v -0.03309211 0.01926733 0.03132312
v -0.03274400 0.01379384 0.03155275
v -0.03979577 0.01413406 0.03141054
v -0.03892829 0.01652791 0.03137615
v -0.03370327 0.01818560 0.03132312
v -0.03793097 0.01876959 0.03137441
v -0.02988188 0.01926733 0.03167690
v -0.03864622 0.01892818 0.03188671
v -0.03911410 0.01926733 0.03470180
v -0.02994120 0.01926733 0.03295446
v -0.03292645 0.01381366 0.03385261
v -0.03331710 0.01379384 0.03497514
v -0.03626989 0.01379384 0.03714678
v -0.04106845 0.01381313 0.03559295
v -0.04072817 0.01402262 0.03210586
v -0.04002635 0.01507649 0.03171420
v -0.03952266 0.01652791 0.03168739
v -0.03953049 0.01738890 0.03203242
v -0.03941632 0.01822203 0.03254998
v -0.03927528 0.01899516 0.03359733
v -0.03860705 0.01909535 0.03595022
v -0.03365513 0.01926733 0.03710132
v -0.03962228 0.01819363 0.03481720
v -0.03935588 0.01806880 0.03565123
v -0.03008224 0.01926733 0.03399191
v -0.03382079 0.01384902 0.03578062
v -0.03460097 0.01379384 0.03645904
v -0.03046505 0.01926733 0.03498738
v -0.03530614 0.01379384 0.03685187
v -0.03475432 0.01894586 0.03723654
v -0.03732205 0.01402047 0.03727675
v -0.03937603 0.01402047 0.03689849
v -0.04048192 0.01400761 0.03620376
v -0.04019090 0.01497844 0.03617695
v -0.04036775 0.01580889 0.03564074
v -0.04085578 0.01464144 0.03549095
v -0.04125202 0.01402047 0.03477465
v -0.04131582 0.01402047 0.03369350
v -0.04093301 0.01485468 0.03302907
v -0.04020321 0.01576925 0.03212101
v -0.04014500 0.01680597 0.03291483
v -0.03979018 0.01789896 0.03360782
v -0.03860369 0.01794182 0.03653947
v -0.03780225 0.01877549 0.03672656
v -0.03691686 0.01894801 0.03703837
v -0.03218993 0.01926733 0.03661116
v -0.04028380 0.01682473 0.03397326
v -0.04015508 0.01693135 0.03485392
v -0.03108068 0.01926733 0.03580801
v -0.03577962 0.01761928 0.03726859
v -0.03609975 0.01877334 0.03723712
v -0.03818842 0.01413513 0.03722080
v -0.03758622 0.01510971 0.03725460
v -0.03935252 0.01497844 0.03677668
v -0.03835520 0.01497844 0.03713687
v -0.03835408 0.01684776 0.03688742
v -0.03963347 0.01578157 0.03642465
v -0.04081660 0.01537920 0.03433752
v -0.03884770 0.01716869 0.03660999
v -0.03762204 0.01753409 0.03704245
v -0.03665717 0.01772805 0.03723478
f 1 2 7
f 1 7 3
f 1 3 4
f 1 4 5
f 1 5 6
f 1 6 2
f 2 6 8
f 2 8 7
f 3 9 4
f 3 7 8
f 3 8 10
f 3 10 11
f 3 11 24
f 3 24 48
f 3 48 51
f 3 51 30
f 3 30 27
f 3 27 12
f 3 12 9
f 4 9 12
f 4 12 13
f 4 13 14
f 4 14 29
f 4 29 31
f 4 31 15
f 4 15 16
f 4 16 17
f 4 17 5
f 5 17 18
f 5 18 19
f 5 19 6
f 6 19 8
f 8 19 10
f 10 19 20
f 10 20 21
f 10 21 22
f 10 22 11
f 11 23 24
f 11 22 25
f 11 25 26
f 11 26 23
f 12 27 13
f 13 27 14
f 14 28 29
f 14 27 30
f 14 30 28
f 15 31 24
f 15 24 32
f 15 32 33
f 15 33 34
f 15 34 16
f 16 34 35
f 16 35 36
f 16 36 37
f 16 37 38
f 16 38 39
f 16 39 40
f 16 40 17
f 17 40 41
f 17 41 42
f 17 42 18
f 18 42 19
f 19 42 20
f 20 42 43
f 20 43 21
f 21 43 44
f 21 44 22
f 22 44 25
f 23 26 45
f 23 45 46
f 23 46 47
f 23 47 24
f 24 47 32
f 24 31 48
f 25 44 49
f 25 49 50
f 25 50 37
f 25 37 26
f 26 37 45
f 28 30 51
f 28 51 29
f 29 51 48
f 29 48 31
f 32 52 33
f 32 47 53
f 32 53 52
f 33 54 34
f 33 52 55
f 33 55 54
f 34 56 35
f 34 54 57
f 34 57 58
f 34 58 56
f 35 56 59
f 35 59 36
f 36 59 37
f 37 59 45
f 37 50 38
f 38 50 39
f 39 50 60
f 39 60 40
f 40 60 49
f 40 49 41
f 41 49 43
f 41 43 42
f 43 49 44
f 45 59 61
f 45 61 46
f 46 58 62
f 46 62 47
f 46 61 58
f 47 62 63
f 47 63 53
f 49 60 50
f 52 53 55
f 53 63 55
f 54 55 63
f 54 63 57
f 56 61 59
f 56 58 61
f 57 63 62
f 57 62 58

