# https://github.com/mikedh/trimesh
v 0.02142614 0.03130154 0.00916533
v 0.01955119 0.03248387 0.00896013
v 0.01407501 0.03520208 0.00887952
v 0.00809086 0.03706041 0.00897112
v 0.00089666 0.03792772 0.00916533
v 0.01687092 0.03102167 0.00916533
v 0.01468416 0.03102167 -0.02826570
v 0.02011078 0.03155639 -0.02182382
v 0.01837212 0.03312472 0.00593340
v 0.01770514 0.03351815 0.00809535
v 0.01610896 0.03433341 0.00872195
v 0.01863849 0.03243181 -0.02282418
v 0.01131833 0.03618769 0.00869630
v 0.01497531 0.03480324 0.00693376
v 0.01482044 0.03443143 -0.01935407
v 0.01356497 0.03503037 -0.01401149
v 0.01314786 0.03546977 0.00273445
v 0.01237144 0.03578344 0.00474250
v 0.00728554 0.03719629 0.00657099
v 0.00556545 0.03752888 0.00896013
v 0.00946816 0.03657639 -0.00237728
v 0.00913571 0.03668590 -0.00036556
v 0.00767168 0.03706447 0.00328410
v 0.00034945 0.03540082 0.00916167
v 0.00354596 0.03776751 0.00896746
v 0.00034945 0.03769991 -0.01021159
v 0.00033087 0.03490734 -0.00584739
v 0.01511779 0.03102167 -0.00638971
v 0.00033087 0.03441453 -0.02826570
v 0.01631958 0.03338092 -0.02796889
v 0.01941490 0.03170241 -0.02764276
v 0.01491956 0.03102167 -0.01278028
v 0.01954706 0.03182679 -0.02478459
v 0.01739334 0.03354046 -0.00036556
v 0.01657563 0.03390415 -0.00328969
v 0.01696384 0.03331873 -0.02350941
v 0.01682755 0.03346272 -0.02001731
v 0.01693699 0.03323694 -0.02592053
v 0.01182837 0.03569083 -0.01186420
v 0.01476676 0.03436248 -0.02321260
v 0.01259033 0.03522236 -0.02282418
v 0.01278236 0.03550628 -0.00328969
v 0.00657727 0.03681367 -0.02391981
v 0.00621177 0.03703405 -0.01497154
v 0.00475394 0.03731662 -0.01187886
v 0.01060800 0.03586997 -0.02229652
v 0.00832006 0.03653380 -0.02008694
v 0.00870207 0.03666562 -0.00730945
v 0.00800826 0.03656017 -0.02228919
v 0.00398579 0.03728349 -0.01931010
v 0.00219343 0.03757350 -0.01131455
v 0.00127660 0.03744370 -0.02145373
v 0.00104740 0.03724158 -0.02737160
v 0.00033087 0.03477552 -0.01135120
v 0.00033087 0.03469778 -0.01497154
v 0.00503683 0.03689208 -0.02758413
v 0.00833452 0.03625191 -0.02779666
v 0.01131833 0.03546707 -0.02711876
v 0.01367854 0.03467006 -0.02663141
v 0.01254696 0.03517774 -0.02487987
v 0.00740324 0.03659194 -0.02556509
v 0.00538993 0.03694616 -0.02565670
v 0.00470231 0.03711449 -0.02348742
v 0.00324035 0.03717601 -0.02622467
f 1 2 3
f 1 3 4
f 1 4 5
f 1 5 6
f 1 6 7
f 1 7 8
f 1 8 2
f 2 9 10
f 2 10 11
f 2 11 3
f 2 8 12
f 2 12 9
f 3 13 4
f 3 11 14
f 3 14 15
f 3 15 16
f 3 16 17
f 3 17 18
f 3 18 13
f 4 19 20
f 4 20 5
f 4 13 21
f 4 21 22
f 4 22 23
f 4 23 19
f 5 24 6
f 5 20 25
f 5 25 26
f 5 26 24
f 6 24 27
f 6 27 28
f 6 28 32
f 6 32 7
f 7 29 30
f 7 30 31
f 7 31 8
f 7 32 29
f 8 31 33
f 8 33 12
f 9 12 34
f 9 34 10
f 10 34 11
f 11 34 35
f 11 35 15
f 11 15 14
f 12 36 37
f 12 37 34
f 12 33 38
f 12 38 36
f 13 18 39
f 13 39 21
f 15 35 37
f 15 37 36
f 15 36 40
f 15 40 41
f 15 41 16
f 16 41 42
f 16 42 17
f 17 42 18
f 18 42 39
f 19 23 43
f 19 43 44
f 19 44 20
f 20 44 45
f 20 45 25
f 21 39 46
f 21 46 47
f 21 47 48
f 21 48 22
f 22 48 23
f 23 48 47
f 23 47 49
f 23 49 43
f 24 26 27
f 25 45 50
f 25 50 51
f 25 51 26
f 26 51 52
f 26 52 53
f 26 53 29
f 26 29 27
f 27 29 55
f 27 55 54
f 27 54 28
f 28 54 55
f 28 55 29
f 28 29 32
f 29 53 56
f 29 56 57
f 29 57 30
f 30 57 58
f 30 58 59
f 30 59 38
f 30 38 31
f 31 38 33
f 34 37 35
f 36 38 40
f 38 59 40
f 39 42 41
f 39 41 46
f 40 59 60
f 40 60 41
f 41 60 46
f 43 61 62
f 43 62 63
f 43 63 44
f 43 49 61
f 44 63 45
f 45 63 50
f 46 60 58
f 46 58 57
f 46 57 61
f 46 61 49
f 46 49 47
f 50 63 64
f 50 64 52
f 50 52 51
f 52 64 53
f 53 64 56
f 56 64 62
f 56 62 61
f 56 61 57
f 58 60 59
f 62 64 63

