# https://github.com/mikedh/trimesh
v 0.03536044 -0.00002758 0.00916533
v 0.03179598 0.01536093 0.00916533
v 0.03785075 0.00328782 0.00916533
v 0.03799160 0.00063369 0.00916748
v 0.03805885 0.00026766 0.01165056
v 0.03808677 0.00016975 0.01278568
v 0.03813753 -0.00002758 0.01537195
v 0.03538392 -0.00002758 0.01498067
v 0.03476087 0.01516360 0.00924488
v 0.03732794 0.00715152 0.00916533
v 0.03550447 -0.00002758 0.02829469
v 0.03551652 -0.00002758 0.02930727
v 0.03212019 0.01536093 0.02991998
v 0.03517581 0.01516812 0.03112604
v 0.03754113 0.00584554 0.00916533
v 0.03782791 0.00401838 0.01132593
v 0.03799667 0.00225298 0.01032840
v 0.03796368 0.00222436 0.00929863
v 0.03801634 0.00182669 0.01059498
v 0.03803601 0.00109613 0.01096046
v 0.03806710 0.00146217 0.01260509
v 0.03810898 0.00021946 0.01384770
v 0.03809248 0.00146217 0.01388210
v 0.03818829 0.00007184 0.01899874
v 0.03825173 0.00016975 0.02457115
v 0.03827775 0.00016975 0.03112819
v 0.03554571 -0.00002758 0.03112819
v 0.03568022 0.01401579 0.03112819
v 0.03512505 0.01438183 0.01087016
v 0.03545117 0.01351419 0.00951576
v 0.03593845 0.01221424 0.00951576
v 0.03754176 0.00621007 0.01169141
v 0.03622396 0.01132250 0.00951576
v 0.03657102 0.01015511 0.00951576
v 0.03685272 0.00912328 0.00951576
v 0.03731018 0.00786701 0.01790017
v 0.03752526 0.00694214 0.02009302
v 0.03214621 0.01535942 0.03086591
v 0.03766738 0.00547951 0.01242235
v 0.03781077 0.00438442 0.01242235
v 0.03790785 0.00328782 0.01132593
v 0.03797003 0.00298204 0.01278568
v 0.03800683 0.00234939 0.01132593
v 0.03800302 0.00285400 0.01391435
v 0.03815593 0.00292329 0.03112819
v 0.03820478 0.00109613 0.02374346
v 0.03821366 0.00174987 0.03112819
v 0.03656975 0.01147916 0.03112819
v 0.03572463 0.01317979 0.01607495
v 0.03630898 0.01115982 0.01096046
v 0.03767563 0.00621007 0.02154846
v 0.03659766 0.01018674 0.01132593
v 0.03700753 0.00986288 0.02958890
v 0.03724546 0.00889131 0.02929222
v 0.03745674 0.00803572 0.03112819
v 0.03764328 0.00694214 0.02885795
v 0.03775875 0.00621007 0.02812485
v 0.03778413 0.00474894 0.01351663
v 0.03787042 0.00401838 0.01351663
v 0.03789072 0.00401838 0.01498067
v 0.03807154 0.00401838 0.03112819
v 0.03693774 0.01020783 0.03112819
v 0.03767944 0.00690297 0.03112819
v 0.03794592 0.00512703 0.03112819
f 1 2 10
f 1 10 15
f 1 15 3
f 1 3 4
f 1 4 5
f 1 5 6
f 1 6 7
f 1 7 27
f 1 27 12
f 1 12 11
f 1 11 8
f 1 8 2
f 2 9 10
f 2 8 11
f 2 11 12
f 2 12 13
f 2 13 14
f 2 14 9
f 3 15 16
f 3 16 17
f 3 17 18
f 3 18 4
f 4 18 19
f 4 19 20
f 4 20 5
f 5 20 6
f 6 20 21
f 6 21 22
f 6 22 7
f 7 23 24
f 7 24 25
f 7 25 26
f 7 26 27
f 7 22 23
f 9 14 28
f 9 28 29
f 9 29 30
f 9 30 31
f 9 31 10
f 10 32 15
f 10 31 33
f 10 33 34
f 10 34 35
f 10 35 36
f 10 36 37
f 10 37 32
f 12 27 13
f 13 27 38
f 13 38 14
f 14 38 27
f 14 27 28
f 15 32 39
f 15 39 40
f 15 40 16
f 16 40 41
f 16 41 17
f 17 19 18
f 17 41 42
f 17 42 43
f 17 43 23
f 17 23 19
f 19 23 21
f 19 21 20
f 21 23 22
f 23 44 45
f 23 45 46
f 23 46 25
f 23 25 24
f 23 43 44
f 25 46 47
f 25 47 26
f 26 47 45
f 26 45 61
f 26 61 64
f 26 64 63
f 26 63 55
f 26 55 62
f 26 62 48
f 26 48 28
f 26 28 27
f 28 48 49
f 28 49 29
f 29 49 30
f 30 49 31
f 31 50 33
f 31 49 48
f 31 48 50
f 32 37 51
f 32 51 39
f 33 50 34
f 34 50 52
f 34 52 35
f 35 52 53
f 35 53 36
f 36 53 54
f 36 54 55
f 36 55 37
f 37 55 56
f 37 56 51
f 39 51 57
f 39 57 58
f 39 58 40
f 40 58 59
f 40 59 42
f 40 42 41
f 42 59 44
f 42 44 43
f 44 60 61
f 44 61 45
f 44 59 60
f 45 47 46
f 48 62 52
f 48 52 50
f 51 56 63
f 51 63 57
f 52 62 53
f 53 62 54
f 54 62 55
f 55 63 56
f 57 63 64
f 57 64 58
f 58 64 60
f 58 60 59
f 60 64 61

