# https://github.com/mikedh/trimesh
v -0.03367444 -0.00840614 -0.02843813
v -0.03367444 -0.00356642 -0.02843813
v -0.03296313 -0.00771022 -0.02843950
v -0.03312176 -0.00840614 -0.02843813
v -0.03367444 -0.00840614 -0.01448084
v -0.03358529 -0.00356642 -0.02843813
v -0.03296313 -0.00540548 -0.02843950
v -0.03367444 -0.00356642 -0.01483336
v -0.03256405 -0.00760599 -0.02843950
v -0.03070607 -0.00840614 -0.02406717
v -0.03340929 -0.00840614 -0.01448084
v -0.03367444 -0.00513213 -0.01448084
v -0.03323716 -0.00453238 -0.02843813
v -0.03294885 -0.00542822 -0.02843950
v -0.03158450 -0.00356642 -0.02374198
v -0.03356831 -0.00544859 -0.01448084
v -0.03333133 -0.00619757 -0.01448084
v -0.03348687 -0.00356642 -0.01499732
v -0.03254707 -0.00697734 -0.02843950
v -0.03055246 -0.00840614 -0.02375838
v -0.03057678 -0.00840614 -0.02380756
v -0.03324526 -0.00840425 -0.01448084
v -0.03056597 -0.00840614 -0.01781201
v -0.03271265 -0.00627953 -0.02843950
v -0.03147026 -0.00356642 -0.02346461
v -0.03321786 -0.00671442 -0.01448084
v -0.03201407 -0.00356642 -0.01665197
v -0.03255479 -0.00690533 -0.02843950
v -0.03023290 -0.00840614 -0.02301235
v -0.03320204 -0.00817211 -0.01448084
v -0.03051425 -0.00840614 -0.01788716
v -0.03148802 -0.00620941 -0.01690475
v -0.03318042 -0.00693944 -0.01448084
v -0.03316884 -0.00739755 -0.01448084
v -0.03142472 -0.00356642 -0.02334847
v -0.03166671 -0.00356642 -0.01719305
v -0.02997585 -0.00840614 -0.02225675
v -0.03009974 -0.00840614 -0.01866051
v -0.03137223 -0.00356642 -0.02318724
v -0.03145289 -0.00356642 -0.01762892
v -0.02990715 -0.00840614 -0.02203950
v -0.02987743 -0.00840614 -0.01938741
v -0.02999245 -0.00817069 -0.01916606
v -0.03110129 -0.00356642 -0.01863045
v -0.03131511 -0.00356642 -0.01796777
v -0.03130623 -0.00356642 -0.02297682
v -0.03110052 -0.00356642 -0.02228135
v -0.03104456 -0.00356642 -0.02200398
v -0.03095656 -0.00356642 -0.02155308
v -0.02982185 -0.00840614 -0.02159271
v -0.03093958 -0.00356642 -0.01936145
v -0.02987589 -0.00840614 -0.01939561
v -0.03092954 -0.00356642 -0.02127571
v -0.02973270 -0.00840093 -0.02082345
v -0.02973193 -0.00840614 -0.02082345
v -0.02981877 -0.00840614 -0.01970167
v -0.02974582 -0.00840614 -0.02009382
v -0.03087551 -0.00356642 -0.02009382
v -0.03089751 -0.00356642 -0.02082345
f 1 2 7
f 1 7 3
f 1 3 4
f 1 4 10
f 1 10 21
f 1 21 20
f 1 20 29
f 1 29 37
f 1 37 41
f 1 41 50
f 1 50 55
f 1 55 57
f 1 57 56
f 1 56 52
f 1 52 42
f 1 42 38
f 1 38 31
f 1 31 23
f 1 23 11
f 1 11 5
f 1 5 12
f 1 12 8
f 1 8 2
f 2 6 7
f 2 8 18
f 2 18 27
f 2 27 36
f 2 36 40
f 2 40 45
f 2 45 44
f 2 44 51
f 2 51 58
f 2 58 59
f 2 59 53
f 2 53 49
f 2 49 48
f 2 48 47
f 2 47 46
f 2 46 39
f 2 39 35
f 2 35 25
f 2 25 15
f 2 15 6
f 3 9 4
f 3 7 14
f 3 14 24
f 3 24 28
f 3 28 19
f 3 19 9
f 4 9 10
f 5 11 22
f 5 22 30
f 5 30 34
f 5 34 33
f 5 33 26
f 5 26 17
f 5 17 16
f 5 16 12
f 6 13 14
f 6 14 7
f 6 15 13
f 8 12 16
f 8 16 17
f 8 17 18
f 9 19 20
f 9 20 21
f 9 21 10
f 11 23 22
f 13 15 14
f 14 15 25
f 14 25 24
f 17 26 27
f 17 27 18
f 19 28 29
f 19 29 20
f 22 23 30
f 23 31 27
f 23 27 32
f 23 32 33
f 23 33 34
f 23 34 30
f 24 25 35
f 24 35 28
f 26 33 27
f 27 31 36
f 27 33 32
f 28 35 29
f 29 35 37
f 31 38 36
f 35 39 37
f 36 38 40
f 37 39 41
f 38 42 43
f 38 43 44
f 38 44 45
f 38 45 40
f 39 46 41
f 41 46 47
f 41 47 48
f 41 48 49
f 41 49 50
f 42 51 44
f 42 44 43
f 42 52 51
f 49 53 54
f 49 54 50
f 50 54 55
f 51 52 56
f 51 56 57
f 51 57 58
f 53 59 54
f 54 59 58
f 54 58 57
f 54 57 55

