# https://github.com/mikedh/trimesh
v -0.00001672 -0.03833635 0.03137563
v -0.00001672 -0.03555698 0.03095386
v -0.02197899 -0.02789594 0.03137563
v -0.00188919 -0.03831198 0.03137563
v -0.00073260 -0.03826112 0.02593393
v -0.00061006 -0.03798986 0.00927186
v -0.00001672 -0.03522214 0.00916533
v -0.00001672 -0.03551989 0.02950593
v -0.02197899 -0.02781859 0.02921025
v -0.02161998 -0.03159825 0.03129301
v -0.01953468 -0.03293654 0.03137563
v -0.02197899 -0.03103877 0.01278733
v -0.00466672 -0.03805449 0.03137563
v -0.00401963 -0.03811171 0.02629700
v -0.00365631 -0.03812549 0.02483603
v -0.00292539 -0.03807039 0.01753550
v -0.00206547 -0.03798456 0.00924143
v -0.00109806 -0.03801847 0.01059370
v -0.01129453 -0.03626692 0.00916533
v -0.02197899 -0.03096989 0.00916533
v -0.02197899 -0.02751130 0.00958493
v -0.02197899 -0.02765859 0.02009221
v -0.00001672 -0.03546373 0.02593393
v -0.02042469 -0.03217468 0.01819859
v -0.02109758 -0.03157917 0.00968929
v -0.01819966 -0.03370476 0.03137563
v -0.01928315 -0.03283376 0.01717026
v -0.00722712 -0.03765184 0.03137563
v -0.00518052 -0.03800045 0.02922330
v -0.00505368 -0.03800787 0.02702966
v -0.00363052 -0.03798774 0.01543318
v -0.00420451 -0.03779065 0.00925447
v -0.00401963 -0.03786906 0.01169160
v -0.01240812 -0.03589711 0.00918055
v -0.01544362 -0.03465842 0.00916533
v -0.00671762 -0.03743885 0.00934143
v -0.00875777 -0.03700759 0.00934143
v -0.01020673 -0.03661977 0.00951536
v -0.01237372 -0.03627858 0.03137563
v -0.01878655 -0.03295986 0.00916533
v -0.02004203 -0.03221812 0.00951536
v -0.02033655 -0.03207613 0.01096112
v -0.01653572 -0.03457153 0.03137563
v -0.01836519 -0.03337098 0.01790074
v -0.01746658 -0.03368675 0.00916533
v -0.00836866 -0.03740389 0.03137563
v -0.00803759 -0.03746111 0.02885806
v -0.00721637 -0.03762429 0.02707532
v -0.00555243 -0.03794323 0.02812757
v -0.00709598 -0.03741342 0.01096112
v -0.00401963 -0.03790297 0.01352217
v -0.01351311 -0.03548810 0.00951536
v -0.01373454 -0.03580069 0.03137563
v -0.01337553 -0.03557711 0.01096112
v -0.01470625 -0.03501445 0.01074588
v -0.01506526 -0.03525816 0.03137563
v -0.00817948 -0.03718773 0.01132636
v -0.00963274 -0.03680733 0.01059370
v -0.01093551 -0.03673527 0.03137563
v -0.00954890 -0.03711779 0.03121040
v -0.00885666 -0.03728097 0.03031903
v -0.00694120 -0.03766032 0.02520344
v -0.00733246 -0.03739859 0.01278951
v -0.01424619 -0.03523697 0.01205685
f 1 2 3
f 1 3 11
f 1 11 26
f 1 26 43
f 1 43 56
f 1 56 53
f 1 53 39
f 1 39 59
f 1 59 46
f 1 46 28
f 1 28 13
f 1 13 4
f 1 4 5
f 1 5 6
f 1 6 7
f 1 7 23
f 1 23 8
f 1 8 2
f 2 8 9
f 2 9 3
f 3 10 11
f 3 9 22
f 3 22 21
f 3 21 20
f 3 20 12
f 3 12 10
f 4 13 14
f 4 14 15
f 4 15 16
f 4 16 17
f 4 17 5
f 5 17 18
f 5 18 6
f 6 18 17
f 6 17 7
f 7 17 19
f 7 19 35
f 7 35 45
f 7 45 40
f 7 40 20
f 7 20 21
f 7 21 22
f 7 22 23
f 8 23 22
f 8 22 9
f 10 24 11
f 10 12 25
f 10 25 24
f 11 24 27
f 11 27 26
f 12 20 25
f 13 28 29
f 13 29 14
f 14 29 30
f 14 30 31
f 14 31 15
f 15 31 16
f 16 31 17
f 17 32 19
f 17 31 33
f 17 33 32
f 19 34 35
f 19 32 36
f 19 36 37
f 19 37 38
f 19 38 39
f 19 39 34
f 20 40 41
f 20 41 25
f 24 25 42
f 24 42 27
f 25 41 42
f 26 27 44
f 26 44 45
f 26 45 43
f 27 42 40
f 27 40 44
f 28 46 47
f 28 47 48
f 28 48 49
f 28 49 29
f 29 49 30
f 30 49 50
f 30 50 36
f 30 36 33
f 30 33 51
f 30 51 31
f 31 51 33
f 32 33 36
f 34 52 35
f 34 39 53
f 34 53 54
f 34 54 52
f 35 52 55
f 35 55 56
f 35 56 43
f 35 43 45
f 36 50 37
f 37 50 57
f 37 57 58
f 37 58 38
f 38 58 59
f 38 59 39
f 40 45 44
f 40 42 41
f 46 59 60
f 46 60 61
f 46 61 47
f 47 61 57
f 47 57 48
f 48 57 62
f 48 62 49
f 49 62 50
f 50 63 57
f 50 62 63
f 52 54 64
f 52 64 55
f 53 56 54
f 54 56 64
f 55 64 56
f 57 63 62
f 57 61 60
f 57 60 58
f 58 60 59

