# https://github.com/mikedh/trimesh
v 0.00032876 0.03370769 -0.03543036
v 0.00032876 0.03357449 -0.03172656
v 0.00032876 0.03338403 -0.03646943
v -0.00146402 0.03354061 -0.03596480
v -0.00292593 0.03349854 -0.03525044
v -0.00210847 0.03355930 -0.03438437
v -0.00227931 0.03349971 -0.03172656
v -0.00078281 0.03356865 -0.03172656
v 0.00032876 0.03074803 -0.03172656
v 0.00032876 0.03250887 -0.03710553
v -0.00310759 0.03284071 -0.03682980
v -0.00438784 0.03286758 -0.03673771
v -0.00402236 0.03333963 -0.03579818
v -0.00621090 0.03304519 -0.03543302
v -0.00480954 0.03326252 -0.03172656
v -0.00373041 0.03338637 -0.03172656
v 0.00032876 0.03077725 -0.03506786
v -0.01150923 0.02847425 -0.03172656
v -0.02176422 0.02177209 -0.03172709
v 0.00032876 0.03128318 -0.03652532
v -0.02176422 0.02247081 -0.03639756
v -0.02165609 0.02411247 -0.03706029
v -0.00224255 0.03237450 -0.03716409
v -0.01205204 0.03091045 -0.03669406
v -0.00849891 0.03230089 -0.03636349
v -0.00876924 0.03247849 -0.03543302
v -0.00663476 0.03298793 -0.03172656
v -0.02176422 0.02190061 -0.03509607
v -0.01175793 0.03156477 -0.03172656
v -0.02176422 0.02568285 -0.03172709
v -0.02176422 0.02559288 -0.03543302
v -0.02147443 0.02544683 -0.03649444
v -0.01885986 0.02726141 -0.03666851
v -0.01862847 0.02666785 -0.03700493
v -0.01497586 0.02885750 -0.03699694
v -0.00951749 0.03209174 -0.03621232
v -0.01393133 0.02969527 -0.03685854
v -0.01605283 0.02906198 -0.03660303
v -0.01325877 0.03075972 -0.03623415
v -0.01033495 0.03201696 -0.03543302
v -0.00955425 0.03228921 -0.03172656
v -0.01278300 0.03113829 -0.03543302
v -0.01316577 0.03099925 -0.03172709
v -0.01529592 0.03002828 -0.03172709
v -0.01690272 0.02915078 -0.03172709
v -0.01792995 0.02853969 -0.03172709
v -0.01885338 0.02791574 -0.03172709
v -0.02055966 0.02665032 -0.03172709
v -0.02176422 0.02566766 -0.03433806
v -0.02089486 0.02636055 -0.03506732
v -0.02006010 0.02701020 -0.03543302
v -0.01982870 0.02711068 -0.03593073
v -0.02009686 0.02647622 -0.03649817
v -0.01756231 0.02850814 -0.03621019
v -0.01708871 0.02838896 -0.03669087
v -0.01643777 0.02812606 -0.03697458
v -0.01176658 0.03147714 -0.03574655
v -0.01543217 0.02988806 -0.03569705
v -0.01687028 0.02912391 -0.03543302
v -0.01808782 0.02838311 -0.03543302
f 1 2 9
f 1 9 17
f 1 17 20
f 1 20 10
f 1 10 3
f 1 3 4
f 1 4 5
f 1 5 6
f 1 6 7
f 1 7 8
f 1 8 2
f 2 8 7
f 2 7 16
f 2 16 15
f 2 15 27
f 2 27 41
f 2 41 29
f 2 29 18
f 2 18 9
f 3 10 11
f 3 11 12
f 3 12 4
f 4 13 5
f 4 12 13
f 5 13 14
f 5 14 15
f 5 15 16
f 5 16 6
f 6 16 7
f 9 18 19
f 9 19 17
f 10 20 21
f 10 21 22
f 10 22 23
f 10 23 11
f 11 23 12
f 12 24 25
f 12 25 13
f 12 23 24
f 13 25 14
f 14 25 26
f 14 26 27
f 14 27 15
f 17 19 28
f 17 28 20
f 18 29 19
f 19 29 30
f 19 30 49
f 19 49 31
f 19 31 21
f 19 21 28
f 20 28 21
f 21 31 22
f 22 32 33
f 22 33 34
f 22 34 35
f 22 35 23
f 22 31 32
f 23 35 24
f 24 36 25
f 24 35 37
f 24 37 38
f 24 38 39
f 24 39 36
f 25 36 26
f 26 36 40
f 26 40 41
f 26 41 27
f 29 42 43
f 29 43 44
f 29 44 45
f 29 45 46
f 29 46 47
f 29 47 48
f 29 48 30
f 29 41 40
f 29 40 42
f 30 48 49
f 31 49 50
f 31 50 51
f 31 51 52
f 31 52 32
f 32 52 53
f 32 53 33
f 33 53 52
f 33 52 54
f 33 54 55
f 33 55 34
f 34 55 56
f 34 56 35
f 35 56 55
f 35 55 37
f 36 39 57
f 36 57 40
f 37 55 38
f 38 55 54
f 38 54 39
f 39 54 58
f 39 58 42
f 39 42 57
f 40 57 42
f 42 58 44
f 42 44 43
f 44 58 59
f 44 59 45
f 45 59 46
f 46 59 60
f 46 60 47
f 47 51 48
f 47 60 51
f 48 51 50
f 48 50 49
f 51 60 52
f 52 60 54
f 54 60 59
f 54 59 58

