# https://github.com/mikedh/trimesh
v 0.02904199 0.02069861 0.03112877
v 0.03227320 0.02068651 0.03112877
v 0.03431621 0.01704809 0.03112877
v 0.03149382 0.01671126 0.03133899
v 0.03151022 0.01671126 0.03238949
v 0.02912288 0.02069861 0.03296613
v 0.03628708 0.02069861 0.03120833
v 0.03377294 0.01811284 0.03112877
v 0.03835413 0.01789973 0.03124549
v 0.03867878 0.01694076 0.03124898
v 0.04016322 0.01686074 0.03239820
v 0.03941663 0.01678229 0.03607002
v 0.03616465 0.01671126 0.03705432
v 0.03161297 0.01671126 0.03332559
v 0.02925296 0.02069861 0.03385636
v 0.03704350 0.02039456 0.03124956
v 0.03836506 0.02069861 0.03247195
v 0.03878919 0.01842470 0.03149926
v 0.03959371 0.01694661 0.03164618
v 0.04010856 0.01685138 0.03497480
v 0.03955873 0.01792784 0.03215721
v 0.03873562 0.01980794 0.03229948
v 0.03951501 0.01858589 0.03295103
v 0.03987026 0.01789973 0.03324429
v 0.04020913 0.01710546 0.03320713
v 0.04019710 0.01708439 0.03397366
v 0.03951172 0.01762340 0.03553345
v 0.03878809 0.01819910 0.03605609
v 0.03789284 0.01870689 0.03655956
v 0.03855198 0.01698759 0.03662228
v 0.03762503 0.01694076 0.03697302
v 0.03689375 0.01694076 0.03705432
v 0.03467475 0.02039456 0.03706071
v 0.03397407 0.02039456 0.03704794
v 0.03543446 0.01671126 0.03697360
v 0.03179333 0.01671126 0.03414207
v 0.02963008 0.02069861 0.03478724
v 0.03203709 0.01671360 0.03489350
v 0.03803604 0.02019785 0.03164096
v 0.03833227 0.02069861 0.03475123
v 0.03860773 0.02042735 0.03401141
v 0.03873890 0.02028840 0.03324429
v 0.03960464 0.01817412 0.03480350
v 0.03918707 0.01935987 0.03324429
v 0.03970302 0.01819910 0.03397366
v 0.03804150 0.02063616 0.03550906
v 0.03810709 0.01996250 0.03590394
v 0.03846235 0.01926580 0.03587607
v 0.03749605 0.02069861 0.03610777
v 0.03789721 0.01789973 0.03673435
v 0.03693747 0.02034695 0.03661531
v 0.03616465 0.02039456 0.03690508
v 0.03543446 0.02069861 0.03701425
v 0.03324279 0.02039456 0.03695212
v 0.03250385 0.02069861 0.03683365
v 0.03464742 0.01671165 0.03679591
v 0.03323076 0.01671126 0.03615887
v 0.03263502 0.01671126 0.03567049
v 0.03033732 0.02061548 0.03566004
v 0.03156597 0.02069861 0.03647710
v 0.03887882 0.01963152 0.03480350
v 0.03914444 0.01935987 0.03397366
v 0.03352918 0.01737673 0.03656711
v 0.03387023 0.01675614 0.03656188
f 1 2 8
f 1 8 3
f 1 3 4
f 1 4 5
f 1 5 6
f 1 6 15
f 1 15 37
f 1 37 60
f 1 60 55
f 1 55 53
f 1 53 49
f 1 49 40
f 1 40 17
f 1 17 7
f 1 7 2
f 2 7 8
f 3 8 7
f 3 7 9
f 3 9 10
f 3 10 4
f 4 10 11
f 4 11 12
f 4 12 13
f 4 13 35
f 4 35 57
f 4 57 58
f 4 58 36
f 4 36 14
f 4 14 5
f 5 14 6
f 6 14 15
f 7 16 9
f 7 17 16
f 9 18 10
f 9 16 18
f 10 18 19
f 10 19 11
f 11 20 12
f 11 19 21
f 11 21 22
f 11 22 23
f 11 23 24
f 11 24 25
f 11 25 26
f 11 26 20
f 12 20 27
f 12 27 28
f 12 28 29
f 12 29 30
f 12 30 31
f 12 31 13
f 13 32 33
f 13 33 34
f 13 34 35
f 13 31 32
f 14 36 15
f 15 36 38
f 15 38 37
f 16 17 39
f 16 39 18
f 17 40 41
f 17 41 42
f 17 42 23
f 17 23 22
f 17 22 39
f 18 21 19
f 18 39 21
f 20 26 43
f 20 43 27
f 21 39 22
f 23 44 24
f 23 42 44
f 24 45 26
f 24 26 25
f 24 44 45
f 26 45 43
f 27 43 46
f 27 46 47
f 27 47 48
f 27 48 28
f 28 48 47
f 28 47 49
f 28 49 29
f 29 50 30
f 29 49 51
f 29 51 50
f 30 50 31
f 31 50 52
f 31 52 53
f 31 53 32
f 32 53 33
f 33 53 34
f 34 54 35
f 34 53 55
f 34 55 54
f 35 54 55
f 35 55 56
f 35 56 57
f 36 58 38
f 37 59 60
f 37 38 59
f 38 58 59
f 40 49 46
f 40 46 61
f 40 61 41
f 41 61 43
f 41 43 62
f 41 62 42
f 42 62 44
f 43 45 62
f 43 61 46
f 44 62 45
f 46 49 47
f 49 53 51
f 50 51 52
f 51 53 52
f 55 60 63
f 55 63 56
f 56 63 64
f 56 64 57
f 57 60 59
f 57 59 58
f 57 64 63
f 57 63 60

