# https://github.com/mikedh/trimesh
v -0.02791272 -0.02378644 -0.02843718
v -0.02877178 -0.02378644 -0.02829098
v -0.03391356 -0.01556585 -0.02825849
v -0.03013672 -0.01551810 -0.02843718
v -0.02794540 -0.01958671 -0.02843718
v -0.02791272 -0.01551810 -0.02361951
v -0.02791272 -0.02378644 -0.00472940
v -0.03010216 -0.02210865 -0.02812389
v -0.03081228 -0.02112044 -0.02816334
v -0.03205405 -0.01919661 -0.02820279
v -0.02930406 -0.02368203 -0.00472940
v -0.02919283 -0.02363590 -0.01833074
v -0.02913941 -0.02361486 -0.02375410
v -0.02912181 -0.02360757 -0.02484017
v -0.02909793 -0.02359786 -0.02594248
v -0.02919597 -0.02343033 -0.02685450
v -0.03298600 -0.01746702 -0.02820279
v -0.03356164 -0.01633312 -0.02820279
v -0.03338443 -0.01689724 -0.02739289
v -0.03403673 -0.01559014 -0.02696589
v -0.03433272 -0.01551810 -0.00767430
v -0.02838844 -0.01868591 -0.02843718
v -0.02791272 -0.01551810 -0.01512592
v -0.02791272 -0.01744193 -0.01075149
v -0.02792655 -0.02097718 -0.00473172
v -0.03094173 -0.01551810 -0.00472940
v -0.03000601 -0.02235389 -0.02702855
v -0.03146270 -0.02016540 -0.02812389
v -0.03063318 -0.02147898 -0.02702855
v -0.03132507 -0.02053851 -0.02629986
v -0.03160410 -0.02002134 -0.02739289
v -0.03210746 -0.01929939 -0.02629986
v -0.03225577 -0.01893923 -0.02739289
v -0.03286283 -0.01787817 -0.02739289
v -0.03060490 -0.02200425 -0.00472940
v -0.02989855 -0.02294310 -0.00473636
v -0.02995573 -0.02264768 -0.02028009
v -0.02928646 -0.02345461 -0.02264715
v -0.02960193 -0.02301270 -0.02410684
v -0.02974395 -0.02279822 -0.02520219
v -0.02955668 -0.02301270 -0.02593320
v -0.03313557 -0.01745245 -0.02666420
v -0.03362825 -0.01648528 -0.02666420
v -0.03407695 -0.01561361 -0.02556885
v -0.03420829 -0.01578033 -0.00840531
v -0.03427867 -0.01565974 -0.00694330
v -0.03428559 -0.01566460 -0.00584795
v -0.03429061 -0.01566864 -0.00473636
v -0.02791272 -0.01700650 -0.01161245
v -0.03393807 -0.01643914 -0.00472940
v -0.03002926 -0.02238626 -0.02593320
v -0.03065706 -0.02151216 -0.02593320
v -0.03066900 -0.02189256 -0.00840531
v -0.03170778 -0.02035641 -0.00473636
v -0.03224697 -0.01951630 -0.00473636
v -0.03239026 -0.01888662 -0.02520219
v -0.03252285 -0.01863087 -0.02593320
v -0.03263157 -0.01836621 -0.02666420
v -0.03299103 -0.01820515 -0.00472940
v -0.03079154 -0.02171450 -0.00767430
v -0.02963649 -0.02301270 -0.02228049
v -0.03290745 -0.01796073 -0.02556885
v -0.03348811 -0.01685110 -0.02556885
v -0.03358301 -0.01713276 -0.00472940
f 1 2 3
f 1 3 4
f 1 4 22
f 1 22 5
f 1 5 6
f 1 6 23
f 1 23 49
f 1 49 24
f 1 24 7
f 1 7 2
f 2 8 9
f 2 9 10
f 2 10 3
f 2 7 11
f 2 11 12
f 2 12 13
f 2 13 14
f 2 14 15
f 2 15 16
f 2 16 8
f 3 10 17
f 3 17 18
f 3 18 19
f 3 19 20
f 3 20 21
f 3 21 4
f 4 21 26
f 4 26 23
f 4 23 6
f 4 6 22
f 5 22 6
f 7 24 25
f 7 25 26
f 7 26 50
f 7 50 64
f 7 64 59
f 7 59 35
f 7 35 11
f 8 16 27
f 8 27 9
f 9 28 10
f 9 27 29
f 9 29 30
f 9 30 28
f 10 28 31
f 10 31 32
f 10 32 33
f 10 33 34
f 10 34 17
f 11 35 36
f 11 36 12
f 12 36 37
f 12 37 38
f 12 38 13
f 13 38 39
f 13 39 14
f 14 39 40
f 14 40 41
f 14 41 15
f 15 41 16
f 16 41 27
f 17 34 19
f 17 19 18
f 19 34 42
f 19 42 43
f 19 43 20
f 20 43 44
f 20 44 21
f 21 44 45
f 21 45 46
f 21 46 47
f 21 47 48
f 21 48 26
f 23 26 49
f 24 49 26
f 24 26 25
f 26 48 50
f 27 41 51
f 27 51 52
f 27 52 29
f 28 30 31
f 29 52 30
f 30 32 31
f 30 52 53
f 30 53 54
f 30 54 55
f 30 55 56
f 30 56 32
f 32 56 57
f 32 57 33
f 33 57 58
f 33 58 34
f 34 58 42
f 35 59 55
f 35 55 54
f 35 54 60
f 35 60 53
f 35 53 36
f 36 53 37
f 37 40 39
f 37 39 61
f 37 61 38
f 37 53 52
f 37 52 51
f 37 51 40
f 38 61 39
f 40 51 41
f 42 58 57
f 42 57 62
f 42 62 63
f 42 63 43
f 43 63 44
f 44 63 45
f 45 63 50
f 45 50 46
f 46 50 47
f 47 50 48
f 50 63 64
f 53 60 54
f 55 59 56
f 56 59 62
f 56 62 57
f 59 64 62
f 62 64 63

