# https://github.com/mikedh/trimesh
v -0.02086012 -0.02284487 -0.03164601
v -0.02086012 -0.02289078 -0.03473998
v -0.02086012 -0.02656602 -0.03545336
v -0.02084824 -0.02659663 -0.03164601
v -0.00872819 -0.02953912 -0.03164601
v -0.02086012 -0.02295009 -0.03542045
v -0.00872819 -0.02968165 -0.03470283
v -0.02086012 -0.02445577 -0.03695868
v -0.02084943 -0.02518757 -0.03700167
v -0.02077343 -0.02611738 -0.03656430
v -0.01920825 -0.02778185 -0.03567311
v -0.01915719 -0.02790526 -0.03164601
v -0.01999796 -0.02725955 -0.03164601
v -0.00893126 -0.03261649 -0.03164601
v -0.00872819 -0.03025179 -0.03645125
v -0.02086012 -0.02353744 -0.03647460
v -0.00872819 -0.02978018 -0.03565134
v -0.00883032 -0.03130404 -0.03691197
v -0.00986467 -0.03104959 -0.03700857
v -0.01789839 -0.02666742 -0.03704679
v -0.01862873 -0.02666742 -0.03705157
v -0.01789839 -0.02739826 -0.03701176
v -0.01861329 -0.02741357 -0.03677184
v -0.01945288 -0.02709311 -0.03658447
v -0.01862873 -0.02821424 -0.03543319
v -0.01860379 -0.02774551 -0.03649902
v -0.01651253 -0.02924066 -0.03624264
v -0.01696379 -0.02921101 -0.03565028
v -0.01804921 -0.02858539 -0.03543319
v -0.01788889 -0.02873941 -0.03164601
v -0.01807296 -0.02859592 -0.03470283
v -0.00893126 -0.03258109 -0.03543319
v -0.01011643 -0.03229507 -0.03164601
v -0.00894433 -0.03233334 -0.03627768
v -0.00986467 -0.03166755 -0.03674796
v -0.01059501 -0.03104959 -0.03694488
v -0.01205569 -0.03031875 -0.03702344
v -0.01132535 -0.03031875 -0.03702131
v -0.01716805 -0.02739826 -0.03706855
v -0.01643653 -0.02812623 -0.03702556
v -0.01610758 -0.02897760 -0.03673628
v -0.01789839 -0.02797509 -0.03670709
v -0.01730700 -0.02843904 -0.03661632
v -0.01556843 -0.02987393 -0.03604254
v -0.01489154 -0.03000211 -0.03642842
v -0.01669422 -0.02944442 -0.03164601
v -0.01497585 -0.03031875 -0.03543319
v -0.01132535 -0.03188182 -0.03543319
v -0.01041331 -0.03214489 -0.03563967
v -0.01132535 -0.03189330 -0.03164601
v -0.00974473 -0.03215158 -0.03619010
v -0.01059501 -0.03154414 -0.03666409
v -0.01205569 -0.03092427 -0.03674318
v -0.01318860 -0.03043832 -0.03673681
v -0.01424789 -0.03011021 -0.03665082
v -0.01386550 -0.03066695 -0.03616462
v -0.01425501 -0.03068608 -0.03543319
v -0.01525730 -0.03020013 -0.03164601
v -0.01228250 -0.03155562 -0.03164601
v -0.01231694 -0.03151449 -0.03553563
v -0.01205569 -0.03140639 -0.03615878
v -0.01127191 -0.03148101 -0.03646133
v -0.01379543 -0.03090992 -0.03164601
v -0.01351755 -0.03101037 -0.03543319
f 1 2 6
f 1 6 16
f 1 16 8
f 1 8 3
f 1 3 4
f 1 4 13
f 1 13 12
f 1 12 30
f 1 30 46
f 1 46 58
f 1 58 63
f 1 63 59
f 1 59 50
f 1 50 33
f 1 33 14
f 1 14 5
f 1 5 2
f 2 5 7
f 2 7 6
f 3 8 9
f 3 9 10
f 3 10 11
f 3 11 12
f 3 12 13
f 3 13 4
f 5 14 15
f 5 15 17
f 5 17 7
f 6 7 17
f 6 17 16
f 8 16 15
f 8 15 18
f 8 18 19
f 8 19 20
f 8 20 9
f 9 20 21
f 9 21 22
f 9 22 23
f 9 23 10
f 10 23 24
f 10 24 11
f 11 25 12
f 11 24 26
f 11 26 27
f 11 27 28
f 11 28 29
f 11 29 25
f 12 25 31
f 12 31 30
f 14 32 15
f 14 33 32
f 15 32 18
f 15 16 17
f 18 32 34
f 18 34 35
f 18 35 19
f 19 35 36
f 19 36 37
f 19 37 38
f 19 38 20
f 20 39 21
f 20 38 39
f 21 39 22
f 22 39 40
f 22 40 41
f 22 41 42
f 22 42 23
f 23 42 24
f 24 42 26
f 25 29 31
f 26 42 43
f 26 43 27
f 27 44 28
f 27 43 45
f 27 45 44
f 28 46 31
f 28 31 29
f 28 44 47
f 28 47 46
f 30 31 46
f 32 33 48
f 32 48 49
f 32 49 34
f 33 50 48
f 34 49 51
f 34 51 52
f 34 52 35
f 35 52 53
f 35 53 36
f 36 53 37
f 37 53 54
f 37 54 40
f 37 40 39
f 37 39 38
f 40 54 41
f 41 43 42
f 41 54 55
f 41 55 45
f 41 45 43
f 44 45 56
f 44 56 57
f 44 57 47
f 45 55 56
f 46 47 58
f 47 57 58
f 48 50 59
f 48 59 60
f 48 60 49
f 49 60 61
f 49 61 51
f 51 61 62
f 51 62 52
f 52 62 53
f 53 55 54
f 53 62 55
f 55 62 56
f 56 62 61
f 56 61 60
f 56 60 57
f 57 63 58
f 57 60 64
f 57 64 63
f 59 63 64
f 59 64 60

