# https://github.com/mikedh/trimesh
v 0.02192369 -0.02790693 0.03121615
v -0.00001557 -0.03550943 0.02904676
v -0.00001557 -0.03553046 0.02996935
v -0.00001557 -0.03555779 0.03095939
v 0.00056427 -0.03834040 0.03139458
v 0.02183994 -0.03146955 0.03139458
v 0.02192369 -0.03099650 0.00916533
v 0.02192369 -0.02762835 0.01264681
v -0.00001557 -0.03546318 0.02593519
v -0.00001557 -0.03522245 0.00916533
v 0.00018415 -0.03797667 0.00916533
v 0.00219640 -0.03830676 0.03130754
v 0.00495384 -0.03802818 0.03139458
v 0.02066094 -0.03226428 0.03139458
v 0.02172182 -0.03152527 0.02959727
v 0.02103891 -0.03160516 0.00916533
v 0.02192369 -0.02760102 0.00951566
v 0.00149630 -0.03792621 0.00916533
v 0.00182917 -0.03794408 0.01059492
v 0.00256148 -0.03790729 0.01059492
v 0.00292441 -0.03790204 0.01150881
v 0.00422153 -0.03802608 0.02422926
v 0.00621015 -0.03785368 0.03139458
v 0.00584721 -0.03790204 0.02904023
v 0.01927792 -0.03315993 0.03139458
v 0.02098522 -0.03201724 0.02958856
v 0.02030874 -0.03205929 0.00916533
v 0.02039894 -0.03211185 0.01424829
v 0.00438474 -0.03770335 0.00916533
v 0.00328950 -0.03783055 0.00951566
v 0.00881511 -0.03733858 0.03139458
v 0.00694031 -0.03770966 0.02885745
v 0.00730754 -0.03765184 0.03013472
v 0.00747934 -0.03762556 0.03135106
v 0.00585580 -0.03748575 0.00916533
v 0.00720016 -0.03727130 0.00937205
v 0.01827288 -0.03373285 0.03139458
v 0.01879902 -0.03297491 0.00916533
v 0.00986526 -0.03706315 0.03122051
v 0.01076723 -0.03681822 0.03122051
v 0.01178946 -0.03652597 0.03139458
v 0.00730754 -0.03753936 0.02373968
v 0.00913295 -0.03692649 0.01351718
v 0.00913295 -0.03709049 0.02227963
v 0.00913295 -0.03684029 0.00916533
v 0.01720340 -0.03428580 0.03139458
v 0.01681040 -0.03434046 0.02397250
v 0.01777250 -0.03354153 0.00916533
v 0.01006928 -0.03659956 0.00916533
v 0.01313381 -0.03606028 0.03139458
v 0.01187965 -0.03606869 0.01115195
v 0.01273867 -0.03578275 0.01077769
v 0.01643458 -0.03465478 0.03139458
v 0.01676960 -0.03446241 0.02958856
v 0.01570657 -0.03460117 0.01059492
v 0.01593206 -0.03446451 0.00916533
v 0.01351608 -0.03546949 0.00916533
v 0.01269357 -0.03576698 0.00951566
v 0.01445885 -0.03553782 0.03139458
v 0.01341944 -0.03590364 0.02885745
v 0.01372224 -0.03580693 0.02995194
v 0.01562496 -0.03503007 0.03139458
v 0.01494634 -0.03493546 0.01098223
v 0.01473803 -0.03498907 0.00951566
f 1 2 3
f 1 3 4
f 1 4 5
f 1 5 6
f 1 6 7
f 1 7 17
f 1 17 8
f 1 8 2
f 2 8 9
f 2 9 10
f 2 10 4
f 2 4 3
f 4 10 11
f 4 11 5
f 5 12 13
f 5 13 23
f 5 23 31
f 5 31 41
f 5 41 50
f 5 50 59
f 5 59 62
f 5 62 53
f 5 53 46
f 5 46 37
f 5 37 25
f 5 25 14
f 5 14 6
f 5 11 12
f 6 14 15
f 6 15 7
f 7 16 27
f 7 27 38
f 7 38 48
f 7 48 56
f 7 56 57
f 7 57 49
f 7 49 45
f 7 45 35
f 7 35 29
f 7 29 18
f 7 18 11
f 7 11 10
f 7 10 17
f 7 15 16
f 8 17 10
f 8 10 9
f 11 18 19
f 11 19 12
f 12 19 20
f 12 20 21
f 12 21 22
f 12 22 13
f 13 22 24
f 13 24 23
f 14 25 16
f 14 16 26
f 14 26 15
f 15 26 16
f 16 25 28
f 16 28 27
f 18 29 30
f 18 30 20
f 18 20 19
f 20 30 21
f 21 30 22
f 22 30 29
f 22 29 24
f 23 24 32
f 23 32 33
f 23 33 34
f 23 34 31
f 24 29 35
f 24 35 36
f 24 36 32
f 25 37 38
f 25 38 27
f 25 27 28
f 31 39 40
f 31 40 41
f 31 34 33
f 31 33 42
f 31 42 43
f 31 43 44
f 31 44 39
f 32 36 42
f 32 42 33
f 35 45 36
f 36 45 42
f 37 46 47
f 37 47 48
f 37 48 38
f 39 44 49
f 39 49 40
f 40 49 41
f 41 49 51
f 41 51 52
f 41 52 50
f 42 45 43
f 43 45 49
f 43 49 44
f 46 53 54
f 46 54 47
f 47 55 56
f 47 56 48
f 47 54 53
f 47 53 55
f 49 57 58
f 49 58 51
f 50 52 57
f 50 57 60
f 50 60 61
f 50 61 59
f 51 58 52
f 52 58 57
f 53 62 55
f 55 62 59
f 55 59 63
f 55 63 64
f 55 64 56
f 56 64 57
f 57 64 61
f 57 61 60
f 59 61 63
f 61 64 63

