# https://github.com/mikedh/trimesh
v -0.00889165 0.04266422 0.03290071
v -0.01023221 0.04107590 0.03135044
v -0.01063701 0.04189442 0.03215407
v -0.01250593 0.04186681 0.03368966
v -0.01101290 0.04210879 0.03522290
v -0.00878650 0.04204383 0.03613403
v -0.00838170 0.04083554 0.03153431
v -0.01261107 0.03619402 0.03124528
v -0.01446684 0.03550056 0.03124528
v -0.01752387 0.03408277 0.03124528
v -0.02037324 0.03244248 0.03124528
v -0.02205552 0.03130565 0.03124528
v -0.01676421 0.03923586 0.03159188
v -0.01306844 0.04073810 0.03164475
v -0.01542364 0.04044090 0.03217580
v -0.01674844 0.04040355 0.03360918
v -0.01486901 0.04114411 0.03406445
v -0.01533164 0.04048637 0.03570930
v -0.00884696 0.04005113 0.03707512
v -0.00797427 0.03813801 0.03697819
v -0.01176993 0.04084691 0.03654583
v -0.00797427 0.03779046 0.03359919
v -0.01243233 0.03346238 0.03192849
v -0.01952946 0.02981640 0.03124352
v -0.02429243 0.02956954 0.03124352
v -0.01929815 0.03881523 0.03220694
v -0.02884249 0.03152814 0.03174168
v -0.02375358 0.03566459 0.03187209
v -0.02042581 0.03866420 0.03324378
v -0.01847804 0.03962401 0.03407267
v -0.02022604 0.03819322 0.03574808
v -0.01764478 0.03808441 0.03683956
v -0.01497941 0.03908482 0.03689889
v -0.01561552 0.03802757 0.03709803
v -0.01881712 0.03634506 0.03713152
v -0.03039597 0.02624025 0.03724490
v -0.01243233 0.03366864 0.03394813
v -0.02761231 0.02607460 0.03673969
v -0.02541220 0.02607460 0.03540266
v -0.02448432 0.02607460 0.03337185
v -0.02424775 0.02607460 0.03132635
v -0.02205289 0.02799422 0.03124352
v -0.02608249 0.02799422 0.03124352
v -0.02201346 0.03720580 0.03230152
v -0.02765437 0.02648873 0.03124528
v -0.03342671 0.02684277 0.03184918
v -0.03153940 0.02939415 0.03200603
v -0.02718123 0.03382292 0.03276854
v -0.02535438 0.03485094 0.03229975
v -0.02457106 0.03617941 0.03439636
v -0.02251552 0.03739582 0.03472944
v -0.02259700 0.03635643 0.03631732
v -0.02270215 0.03449690 0.03705926
v -0.03048008 0.02875915 0.03694647
v -0.03277220 0.02608921 0.03689066
v -0.02602729 0.03264711 0.03695998
v -0.03482774 0.02620290 0.03439577
v -0.03305083 0.02867632 0.03367262
v -0.03118191 0.03064629 0.03448741
v -0.02867426 0.03292157 0.03439224
v -0.02587220 0.03484444 0.03536330
v -0.03281951 0.02842784 0.03557654
v -0.02823266 0.03095161 0.03681841
f 1 2 3
f 1 3 4
f 1 4 5
f 1 5 6
f 1 6 7
f 1 7 2
f 2 7 8
f 2 8 9
f 2 9 10
f 2 10 11
f 2 11 12
f 2 12 13
f 2 13 14
f 2 14 3
f 3 14 15
f 3 15 4
f 4 15 16
f 4 16 17
f 4 17 5
f 5 17 18
f 5 18 6
f 6 19 20
f 6 20 7
f 6 18 21
f 6 21 19
f 7 20 22
f 7 22 23
f 7 23 8
f 8 23 24
f 8 24 25
f 8 25 9
f 9 25 10
f 10 25 11
f 11 25 12
f 12 25 13
f 13 26 15
f 13 15 14
f 13 25 27
f 13 27 28
f 13 28 26
f 15 26 16
f 16 26 29
f 16 29 30
f 16 30 17
f 17 30 18
f 18 30 31
f 18 31 32
f 18 32 21
f 19 21 33
f 19 33 34
f 19 34 35
f 19 35 36
f 19 36 20
f 20 37 22
f 20 36 38
f 20 38 39
f 20 39 37
f 21 32 33
f 22 37 23
f 23 37 40
f 23 40 41
f 23 41 24
f 24 41 42
f 24 42 43
f 24 43 25
f 25 43 27
f 26 28 44
f 26 44 29
f 27 43 45
f 27 45 46
f 27 46 47
f 27 47 48
f 27 48 49
f 27 49 28
f 28 49 44
f 29 44 48
f 29 48 50
f 29 50 51
f 29 51 30
f 30 51 31
f 31 51 52
f 31 52 32
f 32 52 53
f 32 53 35
f 32 35 34
f 32 34 33
f 35 53 36
f 36 54 55
f 36 55 38
f 36 53 56
f 36 56 54
f 37 39 40
f 38 55 41
f 38 41 40
f 38 40 39
f 41 55 57
f 41 57 46
f 41 46 45
f 41 45 42
f 42 45 43
f 44 49 48
f 46 57 58
f 46 58 47
f 47 58 48
f 48 58 59
f 48 59 60
f 48 60 50
f 50 61 51
f 50 60 61
f 51 61 52
f 52 61 56
f 52 56 53
f 54 62 55
f 54 56 63
f 54 63 62
f 55 62 57
f 56 61 63
f 57 62 58
f 58 62 59
f 59 62 61
f 59 61 60
f 61 62 63

