# https://github.com/mikedh/trimesh
v 0.00334781 0.05593043 -0.00242502
v 0.00842926 0.05393103 -0.00224585
v 0.00828080 0.05458996 -0.00231463
v 0.00757045 0.05509166 -0.00238307
v 0.00301706 0.05593043 -0.00301652
v -0.00589992 0.05593043 -0.00241058
v 0.00820939 0.05091055 -0.00236278
v 0.00807409 0.05292420 -0.00359563
v 0.00809476 0.05393103 -0.00369742
v 0.00812671 0.05453788 -0.00329610
v -0.00963960 0.05505824 -0.00238307
v -0.01040257 0.05477521 -0.00238307
v -0.01076902 0.05393103 -0.00238307
v -0.01072768 0.05299300 -0.00238307
v -0.01048902 0.05097935 -0.00238307
v 0.00764374 0.05480912 -0.00359082
v 0.00655003 0.05512949 -0.00352857
v 0.00553900 0.05495260 -0.00565142
v 0.00250967 0.05593043 -0.00353373
v -0.00532675 0.05593043 -0.00342919
v 0.00805154 0.05091055 -0.00298247
v -0.01021653 0.05091055 -0.00338757
v 0.00783918 0.05091055 -0.00353132
v 0.00738065 0.05091055 -0.00453789
v 0.00764186 0.05292420 -0.00453583
v 0.00760992 0.05393103 -0.00453583
v 0.00706118 0.05444206 -0.00504720
v 0.00729233 0.05461355 -0.00453583
v -0.00745029 0.05511475 -0.00570506
v -0.00856656 0.05500714 -0.00453583
v -0.00941785 0.05465532 -0.00453583
v -0.01006995 0.05442290 -0.00401587
v -0.01042512 0.05292420 -0.00352857
v -0.01034620 0.05402488 -0.00362005
v -0.01019022 0.05292420 -0.00425418
v 0.00453361 0.05507839 -0.00575906
v 0.00076573 0.05593043 -0.00494437
v 0.00161327 0.05593043 -0.00436595
v 0.00201543 0.05593043 -0.00403134
v 0.00634707 0.05456589 -0.00575906
v -0.00495090 0.05593043 -0.00393505
v -0.01002860 0.05091055 -0.00389482
v 0.00708561 0.05091055 -0.00509122
v 0.00718709 0.05292420 -0.00522705
v 0.00680560 0.05294730 -0.00575218
v 0.00670037 0.05398754 -0.00573429
v -0.00655014 0.05516929 -0.00575906
v -0.00844816 0.05471477 -0.00575906
v -0.00445291 0.05593043 -0.00431196
v -0.00352644 0.05593043 -0.00475179
v -0.00283300 0.05593043 -0.00497704
v -0.00232185 0.05593043 -0.00514211
v -0.00920738 0.05453149 -0.00521914
v -0.00917919 0.05400965 -0.00570678
v -0.01006619 0.05388828 -0.00443885
v -0.00994216 0.05292420 -0.00475798
v -0.00972229 0.05091055 -0.00453583
v -0.00049899 0.05593043 -0.00525250
v 0.00025458 0.05593043 -0.00512045
v -0.00150250 0.05593043 -0.00527554
v -0.00894428 0.05091055 -0.00575906
v 0.00667030 0.05091055 -0.00567755
v -0.00930698 0.05304901 -0.00575906
v -0.00927127 0.05091055 -0.00531681
f 1 2 3
f 1 3 4
f 1 4 5
f 1 5 19
f 1 19 39
f 1 39 38
f 1 38 37
f 1 37 59
f 1 59 58
f 1 58 60
f 1 60 52
f 1 52 51
f 1 51 50
f 1 50 49
f 1 49 41
f 1 41 20
f 1 20 6
f 1 6 2
f 2 7 8
f 2 8 9
f 2 9 10
f 2 10 3
f 2 6 11
f 2 11 12
f 2 12 13
f 2 13 14
f 2 14 15
f 2 15 7
f 3 10 4
f 4 10 16
f 4 16 17
f 4 17 5
f 5 17 18
f 5 18 19
f 6 20 11
f 7 21 8
f 7 15 22
f 7 22 42
f 7 42 57
f 7 57 64
f 7 64 61
f 7 61 62
f 7 62 43
f 7 43 24
f 7 24 23
f 7 23 21
f 8 21 23
f 8 23 24
f 8 24 25
f 8 25 9
f 9 25 26
f 9 26 10
f 10 26 27
f 10 27 28
f 10 28 16
f 11 20 29
f 11 29 30
f 11 30 12
f 12 30 31
f 12 31 32
f 12 32 13
f 13 33 14
f 13 32 34
f 13 34 35
f 13 35 33
f 14 33 15
f 15 33 22
f 16 28 18
f 16 18 17
f 18 36 37
f 18 37 38
f 18 38 39
f 18 39 19
f 18 28 40
f 18 40 36
f 20 41 29
f 22 33 35
f 22 35 42
f 24 43 25
f 25 43 44
f 25 44 26
f 26 44 45
f 26 45 46
f 26 46 27
f 27 46 40
f 27 40 28
f 29 47 48
f 29 48 30
f 29 41 49
f 29 49 50
f 29 50 51
f 29 51 52
f 29 52 47
f 30 48 31
f 31 48 53
f 31 53 32
f 32 53 54
f 32 54 55
f 32 55 34
f 34 55 35
f 35 55 56
f 35 56 57
f 35 57 42
f 36 58 59
f 36 59 37
f 36 40 61
f 36 61 63
f 36 63 48
f 36 48 47
f 36 47 60
f 36 60 58
f 40 46 45
f 40 45 61
f 43 62 44
f 44 62 45
f 45 62 61
f 47 52 60
f 48 54 53
f 48 63 54
f 54 63 55
f 55 63 56
f 56 63 64
f 56 64 57
f 61 64 63

