# https://github.com/mikedh/trimesh
v -0.00084467 -0.05510778 0.00950026
v -0.00084467 -0.03982232 0.00928042
v -0.00126418 -0.03879434 0.00918689
v -0.00117886 -0.05393048 0.00941445
v -0.00117886 -0.05678717 0.00943759
v -0.00117886 -0.05796231 0.00943277
v -0.00117886 -0.05951618 0.00918689
v -0.00084467 -0.06051602 0.00641088
v -0.00084467 -0.03879434 -0.00034931
v -0.00252113 -0.03879434 0.00889473
v -0.00219326 -0.05393048 0.00913868
v -0.00221064 -0.05594532 0.00914832
v -0.00242632 -0.05953782 0.00878191
v -0.00246029 -0.05745806 0.00904418
v -0.00245713 -0.06060908 0.00791122
v -0.00117886 -0.06071946 0.00789868
v -0.00655188 -0.06089908 0.00007784
v -0.00553432 -0.06063289 -0.00034931
v -0.00421812 -0.05997065 -0.00034931
v -0.00084467 -0.05496278 -0.00034931
v -0.00880664 -0.03879434 0.00008267
v -0.00381204 -0.03879434 0.00828919
v -0.00390369 -0.04183715 0.00842804
v -0.00346127 -0.06013296 0.00796329
v -0.00352921 -0.05846656 0.00851000
v -0.00438719 -0.05911365 0.00795750
v -0.00352921 -0.05594532 0.00855918
v -0.00511402 -0.06031692 0.00666929
v -0.00352921 -0.06081684 0.00655166
v -0.00453729 -0.06082766 0.00554404
v -0.00655188 -0.06086445 0.00151261
v -0.00693189 -0.06072378 0.00252119
v -0.00790679 -0.06041647 0.00128506
v -0.00810114 -0.06029528 -0.00013621
v -0.00891566 -0.04032440 0.00007784
v -0.00858227 -0.03879434 0.00202076
v -0.00886589 -0.04082865 0.00151261
v -0.00707567 -0.03879434 0.00559225
v -0.00615449 -0.03879867 0.00669726
v -0.00446619 -0.05594532 0.00800282
v -0.00386734 -0.05695381 0.00836537
v -0.00444565 -0.05796231 0.00799221
v -0.00623508 -0.05933223 0.00626625
v -0.00557461 -0.05846656 0.00707138
v -0.00620426 -0.06021953 0.00557393
v -0.00554380 -0.06081900 0.00453739
v -0.00698640 -0.06016543 0.00435612
v -0.00781593 -0.06017625 0.00252119
v -0.00860834 -0.05846656 0.00151261
v -0.00874343 -0.05844709 0.00007784
v -0.00853961 -0.04082865 0.00252119
v -0.00789652 -0.03879650 0.00408710
v -0.00841557 -0.05745806 0.00252119
v -0.00758366 -0.05745806 0.00453739
v -0.00700457 -0.05745806 0.00547847
v -0.00632909 -0.05644956 0.00636556
v -0.00584875 -0.05695381 0.00686503
v -0.00560384 -0.05594532 0.00709741
v -0.00534471 -0.05695381 0.00731629
v -0.00632514 -0.05796231 0.00635206
v -0.00722262 -0.05903790 0.00496454
v -0.00813195 -0.05912447 0.00304862
v -0.00807586 -0.05644956 0.00357027
v -0.00806400 -0.05796231 0.00353749
f 1 2 3
f 1 3 4
f 1 4 5
f 1 5 6
f 1 6 7
f 1 7 8
f 1 8 20
f 1 20 9
f 1 9 2
f 2 9 3
f 3 9 21
f 3 21 36
f 3 36 38
f 3 38 22
f 3 22 10
f 3 10 4
f 4 10 11
f 4 11 5
f 5 11 12
f 5 12 6
f 6 13 7
f 6 12 14
f 6 14 13
f 7 13 15
f 7 15 16
f 7 16 8
f 8 16 17
f 8 17 18
f 8 18 19
f 8 19 20
f 9 20 19
f 9 19 18
f 9 18 21
f 10 22 23
f 10 23 11
f 11 23 12
f 12 23 14
f 13 24 15
f 13 14 25
f 13 25 26
f 13 26 24
f 14 23 27
f 14 27 25
f 15 28 29
f 15 29 16
f 15 24 28
f 16 29 17
f 17 29 30
f 17 30 31
f 17 31 32
f 17 32 33
f 17 33 34
f 17 34 18
f 18 34 35
f 18 35 21
f 21 35 37
f 21 37 36
f 22 38 39
f 22 39 23
f 23 39 40
f 23 40 41
f 23 41 27
f 24 26 28
f 25 42 26
f 25 27 41
f 25 41 42
f 26 43 28
f 26 42 44
f 26 44 43
f 28 45 46
f 28 46 30
f 28 30 29
f 28 43 45
f 30 46 31
f 31 46 32
f 32 46 45
f 32 45 47
f 32 47 48
f 32 48 33
f 33 48 49
f 33 49 34
f 34 49 50
f 34 50 35
f 35 50 37
f 36 37 51
f 36 51 52
f 36 52 38
f 37 50 49
f 37 49 53
f 37 53 51
f 38 52 54
f 38 54 55
f 38 55 56
f 38 56 39
f 39 56 57
f 39 57 58
f 39 58 59
f 39 59 40
f 40 59 42
f 40 42 41
f 42 59 44
f 43 44 60
f 43 60 61
f 43 61 45
f 44 59 57
f 44 57 60
f 45 61 47
f 47 61 62
f 47 62 48
f 48 62 49
f 49 62 53
f 51 53 63
f 51 63 52
f 52 63 54
f 53 62 64
f 53 64 63
f 54 63 64
f 54 64 61
f 54 61 55
f 55 61 60
f 55 60 56
f 56 60 57
f 57 59 58
f 61 64 62

