# https://github.com/mikedh/trimesh
v -0.00084352 -0.05511204 0.00151179
v -0.00084352 -0.05502332 0.00316857
v -0.00084352 -0.05508946 0.00050429
v 0.00420364 -0.05527013 -0.00035027
v 0.00373181 -0.05527013 0.00058524
v 0.00330727 -0.05527013 0.00316857
v -0.00084352 -0.03879218 0.00316857
v -0.00084352 -0.05496363 -0.00035027
v 0.01094089 -0.05527013 -0.00035027
v 0.01039868 -0.05527013 0.00316857
v 0.00954268 -0.03879218 0.00316857
v -0.00084352 -0.03879218 -0.00035027
v 0.01093281 -0.05527013 0.00050429
v 0.01041252 -0.04098117 -0.00035027
v 0.01050481 -0.05527013 0.00285168
v 0.01035253 -0.05393124 0.00316857
v 0.01008489 -0.04130056 0.00203363
v 0.00991184 -0.03879218 0.00151076
v 0.00991300 -0.04284431 0.00316857
v 0.01007566 -0.03879218 -0.00035027
v 0.01082091 -0.05527013 0.00151179
v 0.01043559 -0.04183612 0.00050429
v 0.01039868 -0.04082792 -0.00035027
v 0.01054404 -0.05527013 0.00273319
v 0.01060287 -0.05493944 0.00251998
v 0.00996145 -0.04385251 0.00316857
v 0.01025793 -0.04183612 0.00151179
v 0.01016334 -0.04091019 0.00147735
v 0.01004451 -0.03879218 0.00067479
v 0.01034446 -0.04082792 0.00050429
v 0.01005143 -0.04385251 0.00288234
v 0.01010219 -0.03879218 0.00016192
v 0.01014603 -0.03879701 -0.00035027
v 0.01077015 -0.05393124 0.00151179
v 0.01061325 -0.05527013 0.00251998
v 0.01056134 -0.05393124 0.00251998
v 0.01010219 -0.03879218 0.00017983
f 1 2 7
f 1 7 12
f 1 12 8
f 1 8 3
f 1 3 4
f 1 4 5
f 1 5 6
f 1 6 2
f 2 6 10
f 2 10 16
f 2 16 26
f 2 26 19
f 2 19 11
f 2 11 7
f 3 8 4
f 4 8 12
f 4 12 20
f 4 20 33
f 4 33 23
f 4 23 14
f 4 14 9
f 4 9 13
f 4 13 21
f 4 21 35
f 4 35 24
f 4 24 15
f 4 15 10
f 4 10 6
f 4 6 5
f 7 11 18
f 7 18 29
f 7 29 37
f 7 37 32
f 7 32 20
f 7 20 12
f 9 14 13
f 10 15 16
f 11 17 18
f 11 19 17
f 13 14 22
f 13 22 21
f 14 23 22
f 15 24 16
f 16 24 25
f 16 25 26
f 17 27 28
f 17 28 18
f 17 19 27
f 18 28 30
f 18 30 29
f 19 26 31
f 19 31 27
f 20 32 33
f 21 34 25
f 21 25 35
f 21 22 34
f 22 23 30
f 22 30 27
f 22 27 34
f 23 33 30
f 24 35 25
f 25 34 36
f 25 36 31
f 25 31 26
f 27 30 28
f 27 31 36
f 27 36 34
f 29 30 37
f 30 33 37
f 32 37 33

