# https://github.com/mikedh/trimesh
v -0.01066801 0.05090622 0.00075529
v 0.00481259 0.05090809 -0.00756599
v -0.00952021 0.05065496 -0.00474687
v -0.01051670 0.04989933 -0.00176224
v -0.01026942 0.04433234 0.00010614
v -0.00947223 0.04381483 0.00347326
v -0.00968814 0.05042996 0.00405437
v -0.00693672 0.05055559 0.00750977
v -0.00291203 0.05052184 0.00925126
v 0.00818404 0.05074872 -0.00194246
v 0.00675943 0.04952619 -0.00546958
v 0.00583860 0.03944225 -0.00603965
v 0.00454871 0.04804491 -0.00770759
v 0.00118095 0.05031183 -0.00934794
v -0.00291756 0.05052746 -0.00942885
v -0.00688136 0.05040183 -0.00770759
v -0.00799595 0.04662176 -0.00644422
v -0.00759736 0.03618531 -0.00558175
v -0.00981731 0.04638551 -0.00320215
v -0.00897952 0.03494403 -0.00196269
v -0.00857355 0.03175460 0.00038566
v -0.00912715 0.03624343 0.00161408
v -0.00759182 0.04557737 0.00658478
v -0.00764349 0.03433652 0.00452147
v -0.00723383 0.03895474 0.00603677
v -0.00388821 0.03755221 0.00801916
v -0.00100947 0.04788179 0.00935792
v 0.00151680 0.04989933 0.00897174
v 0.00565961 0.05033996 0.00647996
v -0.00211668 0.03409652 0.00810743
v 0.00793492 0.03730096 -0.00000052
v 0.00751233 0.03808285 -0.00285091
v 0.00811576 0.04977182 0.00215473
v 0.00621505 0.04245356 -0.00568657
v 0.00568544 0.03175460 -0.00492893
v 0.00239888 0.03295087 -0.00761380
v 0.00355776 0.03967475 -0.00779034
v 0.00327911 0.04422734 -0.00826847
v 0.00139132 0.04687489 -0.00918243
v 0.00050186 0.04687489 -0.00936265
v -0.00229753 0.04624300 -0.00938104
v -0.00519103 0.04595800 -0.00848730
v -0.00554533 0.03627906 -0.00735083
v -0.00467064 0.03211085 -0.00710441
v -0.00758629 0.03253836 -0.00428345
v -0.00321282 0.03175460 0.00733507
v -0.00676880 0.03208085 0.00487271
v -0.00126044 0.03175460 -0.00814342
v -0.00050569 0.04183292 0.00896439
v 0.00050186 0.04183292 0.00887979
v 0.00321268 0.04032539 0.00786285
v 0.00327911 0.04788179 0.00823248
v 0.00492516 0.03766096 0.00646525
v 0.00706945 0.04687489 0.00457848
v 0.00056276 0.03316838 0.00794009
v 0.00728905 0.03175460 -0.00100275
v 0.00740715 0.03754096 0.00292342
v 0.00665978 0.03175460 0.00301904
v 0.00050186 0.03578967 -0.00850753
v 0.00120863 0.04262043 -0.00896359
v -0.00195614 0.04333670 -0.00920634
v -0.00309472 0.03407589 -0.00815997
v 0.00397111 0.03175460 0.00634387
v 0.00075099 0.03788409 0.00847890
f 1 2 3
f 1 3 4
f 1 4 5
f 1 5 6
f 1 6 7
f 1 7 8
f 1 8 9
f 1 9 10
f 1 10 2
f 2 10 11
f 2 11 12
f 2 12 13
f 2 13 14
f 2 14 15
f 2 15 3
f 3 15 16
f 3 16 17
f 3 17 18
f 3 18 19
f 3 19 4
f 4 19 20
f 4 20 5
f 5 20 21
f 5 21 22
f 5 22 6
f 6 23 7
f 6 22 24
f 6 24 25
f 6 25 23
f 7 23 8
f 8 23 26
f 8 26 9
f 9 27 28
f 9 28 29
f 9 29 10
f 9 26 30
f 9 30 27
f 10 31 32
f 10 32 11
f 10 29 33
f 10 33 31
f 11 32 34
f 11 34 12
f 12 32 35
f 12 35 36
f 12 36 37
f 12 37 13
f 12 34 32
f 13 38 14
f 13 37 38
f 14 38 39
f 14 39 40
f 14 40 15
f 15 40 41
f 15 41 42
f 15 42 16
f 16 42 43
f 16 43 17
f 17 43 18
f 18 43 44
f 18 44 45
f 18 45 20
f 18 20 19
f 20 45 21
f 21 46 47
f 21 47 24
f 21 24 22
f 21 45 44
f 21 44 48
f 21 48 35
f 21 35 56
f 21 56 58
f 21 58 63
f 21 63 46
f 23 25 26
f 24 47 25
f 25 47 46
f 25 46 26
f 26 46 30
f 27 30 49
f 27 49 50
f 27 50 28
f 28 50 51
f 28 51 52
f 28 52 29
f 29 52 53
f 29 53 54
f 29 54 33
f 30 46 55
f 30 55 49
f 31 56 32
f 31 33 57
f 31 57 58
f 31 58 56
f 32 56 35
f 33 54 57
f 35 48 36
f 36 48 59
f 36 59 60
f 36 60 37
f 37 60 38
f 38 60 39
f 39 60 40
f 40 60 59
f 40 59 61
f 40 61 41
f 41 61 62
f 41 62 42
f 42 62 43
f 43 62 44
f 44 62 48
f 46 63 55
f 48 62 61
f 48 61 59
f 49 55 64
f 49 64 50
f 50 64 51
f 51 64 55
f 51 55 63
f 51 63 53
f 51 53 52
f 53 57 54
f 53 63 58
f 53 58 57

