# https://github.com/mikedh/trimesh
v 0.00144864 -0.06057479 -0.00713223
v 0.00252072 -0.06074455 -0.00756000
v 0.00745982 -0.06049959 -0.00409946
v 0.00519407 -0.05980122 -0.00409946
v 0.00144864 -0.05934352 -0.00562531
v 0.00144864 -0.03879218 -0.00409946
v 0.00146491 -0.05591400 -0.00995456
v 0.00147262 -0.05844961 -0.00993564
v 0.00148118 -0.06028685 -0.00918333
v 0.00352858 -0.06074241 -0.00756000
v 0.00352858 -0.06060273 -0.00838571
v 0.00861239 -0.06046306 -0.00431793
v 0.00980349 -0.05947030 -0.00432194
v 0.01019653 -0.05702924 -0.00409946
v 0.00144864 -0.05481810 -0.00409946
v 0.00963737 -0.04082926 -0.00409946
v 0.00931626 -0.03879218 -0.00426288
v 0.00620877 -0.03879218 -0.00798948
v 0.00148118 -0.03880292 -0.00970628
v 0.00252072 -0.05594623 -0.00984848
v 0.00252072 -0.05695403 -0.00985708
v 0.00148118 -0.05692180 -0.00995628
v 0.00252072 -0.05796183 -0.00985766
v 0.00252072 -0.05896963 -0.00981064
v 0.00250787 -0.06027611 -0.00914261
v 0.00719522 -0.06051463 -0.00619413
v 0.00352858 -0.06009776 -0.00909903
v 0.00544839 -0.06023099 -0.00805772
v 0.00654359 -0.06025892 -0.00728992
v 0.00821507 -0.06026107 -0.00556510
v 0.00920751 -0.05937790 -0.00554503
v 0.01005610 -0.05796183 -0.00444236
v 0.00927944 -0.04169094 -0.00584779
v 0.00968704 -0.04183706 -0.00431793
v 0.00883845 -0.03879218 -0.00523309
v 0.00554600 -0.04082926 -0.00857551
v 0.00397128 -0.03879862 -0.00916899
v 0.00746838 -0.03879218 -0.00697168
v 0.00824761 -0.04208203 -0.00698716
v 0.00251644 -0.03880292 -0.00954802
v 0.00252072 -0.05493843 -0.00983185
v 0.00352858 -0.05594623 -0.00965180
v 0.00352858 -0.05695403 -0.00966442
v 0.00352858 -0.05493843 -0.00963575
v 0.00352858 -0.05796183 -0.00966614
v 0.00352858 -0.05896963 -0.00960364
v 0.00754288 -0.06021594 -0.00653932
v 0.00478048 -0.05945311 -0.00903137
v 0.00651533 -0.05932203 -0.00819247
v 0.00771756 -0.05927261 -0.00730655
v 0.00927259 -0.05811225 -0.00581166
v 0.00822021 -0.03879218 -0.00624688
v 0.00840003 -0.05796183 -0.00686273
v 0.00554600 -0.04183706 -0.00861393
v 0.00454243 -0.04082926 -0.00907036
v 0.00352858 -0.04082926 -0.00936395
v 0.00678078 -0.05695403 -0.00820910
v 0.00650420 -0.05594623 -0.00836335
v 0.00554600 -0.04284700 -0.00864489
v 0.00717553 -0.05796183 -0.00792354
v 0.00457925 -0.04183706 -0.00908355
v 0.00496972 -0.05594623 -0.00917358
v 0.00497742 -0.05695403 -0.00918447
v 0.00498085 -0.05796183 -0.00918906
f 1 2 3
f 1 3 4
f 1 4 5
f 1 5 15
f 1 15 6
f 1 6 7
f 1 7 8
f 1 8 9
f 1 9 2
f 2 10 3
f 2 9 11
f 2 11 10
f 3 10 12
f 3 12 13
f 3 13 14
f 3 14 16
f 3 16 6
f 3 6 15
f 3 15 4
f 4 15 5
f 6 16 17
f 6 17 35
f 6 35 52
f 6 52 38
f 6 38 18
f 6 18 19
f 6 19 7
f 7 19 20
f 7 20 21
f 7 21 22
f 7 22 8
f 8 23 24
f 8 24 9
f 8 22 23
f 9 25 11
f 9 24 25
f 10 11 26
f 10 26 12
f 11 25 27
f 11 27 28
f 11 28 29
f 11 29 26
f 12 26 30
f 12 30 13
f 13 30 31
f 13 31 32
f 13 32 14
f 14 32 33
f 14 33 34
f 14 34 16
f 16 34 33
f 16 33 17
f 17 33 35
f 18 36 37
f 18 37 19
f 18 38 39
f 18 39 36
f 19 37 40
f 19 40 41
f 19 41 20
f 20 42 43
f 20 43 21
f 20 41 44
f 20 44 42
f 21 43 45
f 21 45 23
f 21 23 22
f 23 45 24
f 24 45 46
f 24 46 27
f 24 27 25
f 26 29 47
f 26 47 30
f 27 46 48
f 27 48 28
f 28 48 49
f 28 49 29
f 29 49 50
f 29 50 47
f 30 47 31
f 31 50 51
f 31 51 32
f 31 47 50
f 32 51 33
f 33 39 52
f 33 52 35
f 33 51 53
f 33 53 39
f 36 54 55
f 36 55 37
f 36 39 54
f 37 55 56
f 37 56 40
f 38 52 39
f 39 57 58
f 39 58 59
f 39 59 54
f 39 53 60
f 39 60 57
f 40 56 44
f 40 44 41
f 42 44 61
f 42 61 62
f 42 62 63
f 42 63 43
f 43 63 64
f 43 64 45
f 44 56 61
f 45 64 46
f 46 64 48
f 48 64 49
f 49 64 60
f 49 60 50
f 50 60 53
f 50 53 51
f 54 59 61
f 54 61 55
f 55 61 56
f 57 60 64
f 57 64 58
f 58 64 63
f 58 63 62
f 58 62 59
f 59 62 61

