# https://github.com/mikedh/trimesh
v 0.00050287 -0.05665297 -0.00995944
v 0.00144764 -0.05662128 -0.00995568
v 0.00144764 -0.05796513 -0.00995568
v 0.00050287 -0.05796513 -0.00995568
v -0.00050589 -0.05796513 -0.00984939
v -0.00050589 -0.05665297 -0.00985221
v -0.00191655 -0.05634903 -0.00950325
v 0.00144764 -0.05634903 -0.00539283
v 0.00144764 -0.05894033 -0.00991429
v 0.00050287 -0.05897202 -0.00990865
v -0.00050589 -0.05897202 -0.00979954
v -0.00151264 -0.05897202 -0.00959919
v -0.00151264 -0.05796513 -0.00964434
v -0.00292530 -0.05796513 -0.00914394
v -0.00327122 -0.05634903 -0.00898780
v 0.00144764 -0.05796513 -0.00535426
v -0.00301428 -0.05634903 -0.00035215
v 0.00144764 -0.06028954 -0.00918345
v 0.00050287 -0.05998024 -0.00953711
v -0.00245242 -0.05985260 -0.00901508
v -0.00302428 -0.05897782 -0.00906399
v -0.00468688 -0.05796513 -0.00816384
v -0.00456691 -0.05634903 -0.00825131
v 0.00144764 -0.05935228 -0.00563080
v -0.00367712 -0.05938263 -0.00035215
v -0.00876389 -0.05634903 -0.00066725
v -0.00875389 -0.05843019 -0.00040953
v -0.00844197 -0.05990303 -0.00038978
v -0.00553367 -0.06063587 -0.00035215
v 0.00144764 -0.06074344 -0.00759195
v 0.00050287 -0.06062249 -0.00885424
v -0.00129370 -0.06043727 -0.00881285
v -0.00358314 -0.06026677 -0.00816007
v -0.00446393 -0.05935273 -0.00818359
v -0.00587359 -0.05884482 -0.00717339
v -0.00589459 -0.05634903 -0.00716210
v 0.00144764 -0.06040960 -0.00667205
v -0.00462289 -0.06023018 -0.00035215
v -0.00866792 -0.05634903 -0.00171320
v -0.00869491 -0.05796513 -0.00151285
v -0.00866492 -0.05897202 -0.00151285
v -0.00809805 -0.06008468 -0.00252118
v -0.00812805 -0.06029445 -0.00157211
v -0.00777913 -0.06065775 -0.00040953
v -0.00655143 -0.06090857 -0.00042834
v -0.00151264 -0.06085814 -0.00755997
v -0.00252140 -0.06070997 -0.00792587
v -0.00487783 -0.06042432 -0.00701631
v -0.00596657 -0.06028865 -0.00612838
v -0.00714628 -0.05933264 -0.00544644
v -0.00712429 -0.05796513 -0.00566090
v -0.00707930 -0.05634903 -0.00573333
v -0.00844997 -0.05634903 -0.00270459
v -0.00850696 -0.05796513 -0.00252118
v -0.00848396 -0.05897202 -0.00252118
v -0.00805206 -0.05939423 -0.00355019
v -0.00686135 -0.06051136 -0.00449926
v -0.00691434 -0.06071398 -0.00352950
v -0.00699132 -0.06078182 -0.00252118
v -0.00655143 -0.06090590 -0.00151285
v -0.00453591 -0.06083136 -0.00554427
v -0.00773014 -0.05897202 -0.00453688
v -0.00794309 -0.05634903 -0.00412020
v -0.00794409 -0.05796513 -0.00412396
f 1 2 3
f 1 3 4
f 1 4 5
f 1 5 6
f 1 6 7
f 1 7 2
f 2 8 16
f 2 16 24
f 2 24 37
f 2 37 30
f 2 30 18
f 2 18 9
f 2 9 3
f 2 7 8
f 3 9 4
f 4 9 10
f 4 10 5
f 5 10 11
f 5 11 12
f 5 12 13
f 5 13 6
f 6 13 7
f 7 13 14
f 7 14 15
f 7 15 23
f 7 23 36
f 7 36 52
f 7 52 63
f 7 63 53
f 7 53 39
f 7 39 26
f 7 26 17
f 7 17 8
f 8 17 16
f 9 18 19
f 9 19 10
f 10 19 11
f 11 19 20
f 11 20 12
f 12 20 21
f 12 21 13
f 13 21 14
f 14 21 22
f 14 22 15
f 15 22 23
f 16 17 24
f 17 25 24
f 17 26 27
f 17 27 28
f 17 28 29
f 17 29 38
f 17 38 25
f 18 30 31
f 18 31 19
f 19 31 32
f 19 32 20
f 20 32 33
f 20 33 34
f 20 34 21
f 21 34 22
f 22 35 36
f 22 36 23
f 22 34 35
f 24 25 37
f 25 38 37
f 26 39 40
f 26 40 27
f 27 40 41
f 27 41 28
f 28 41 42
f 28 42 43
f 28 43 44
f 28 44 29
f 29 44 45
f 29 45 30
f 29 30 37
f 29 37 38
f 30 46 31
f 30 45 46
f 31 46 47
f 31 47 32
f 32 47 33
f 33 47 48
f 33 48 34
f 34 48 49
f 34 49 35
f 35 49 50
f 35 50 51
f 35 51 52
f 35 52 36
f 39 53 54
f 39 54 40
f 40 54 55
f 40 55 41
f 41 55 42
f 42 55 56
f 42 56 57
f 42 57 58
f 42 58 43
f 43 58 44
f 44 58 59
f 44 59 60
f 44 60 45
f 45 60 46
f 46 61 47
f 46 60 61
f 47 61 48
f 48 58 57
f 48 57 49
f 48 61 58
f 49 57 50
f 50 57 56
f 50 56 62
f 50 62 51
f 51 62 52
f 52 62 63
f 53 63 64
f 53 64 54
f 54 64 55
f 55 64 62
f 55 62 56
f 58 61 59
f 59 61 60
f 62 64 63

