# https://github.com/mikedh/trimesh
v 0.02031759 0.02845068 0.03547420
v 0.02083532 0.03158746 0.03619787
v 0.02055709 0.03478049 0.03426775
v 0.02043734 0.03347763 0.03123753
v 0.02031935 0.02652451 0.03162187
v 0.02031935 0.02671128 0.03353369
v 0.03177277 0.01179245 0.03451508
v 0.03360772 0.01196347 0.03595550
v 0.02190600 0.03036785 0.03624586
v 0.02750063 0.02644800 0.03612665
v 0.02262096 0.03166397 0.03585409
v 0.02116991 0.03344162 0.03542820
v 0.02102727 0.03463423 0.03265915
v 0.02468307 0.03185073 0.03439042
v 0.02315277 0.03333587 0.03332841
v 0.02226172 0.03275306 0.03140967
v 0.02864175 0.02661902 0.03126177
v 0.02615172 0.02446108 0.03119252
v 0.02404735 0.02656051 0.03119400
v 0.02139179 0.02875446 0.03119400
v 0.02231278 0.02463209 0.03119252
v 0.03109832 0.01179245 0.03233367
v 0.03383488 0.01179245 0.03119252
v 0.03813344 0.01209848 0.03489200
v 0.03661019 0.01234150 0.03598369
v 0.03475059 0.01407641 0.03615138
v 0.03175516 0.02055698 0.03616523
v 0.02938312 0.02527340 0.03590554
v 0.02497186 0.02995832 0.03574478
v 0.03032349 0.02358575 0.03606877
v 0.02795321 0.02816716 0.03535252
v 0.02651096 0.03056137 0.03238512
v 0.02704806 0.02966804 0.03459175
v 0.02925633 0.02771037 0.03440428
v 0.02449288 0.03118917 0.03149376
v 0.02749007 0.02855194 0.03147199
v 0.03268320 0.02190485 0.03133300
v 0.03672641 0.01314482 0.03130975
v 0.03189076 0.01628160 0.03119252
v 0.03056650 0.01865556 0.03119252
v 0.02947998 0.02030946 0.03119252
v 0.02809937 0.02222213 0.03119252
v 0.03295263 0.01403365 0.03119252
v 0.03830777 0.01227400 0.03243903
v 0.03794325 0.01410341 0.03303063
v 0.03737798 0.01482347 0.03452794
v 0.03617875 0.01692966 0.03504287
v 0.03537574 0.01584056 0.03593719
v 0.03369400 0.01803676 0.03609993
v 0.03129731 0.02434182 0.03536736
v 0.03166888 0.02218838 0.03594264
v 0.03081832 0.02617573 0.03398531
v 0.03192422 0.02489987 0.03243854
v 0.02990261 0.02696555 0.03200226
v 0.03375916 0.02203086 0.03216896
v 0.03533172 0.01839679 0.03170547
v 0.03667182 0.01495848 0.03154768
v 0.03719659 0.01602283 0.03299898
v 0.03585297 0.01896384 0.03342586
v 0.03449349 0.02040622 0.03460115
v 0.03318508 0.02216137 0.03503743
v 0.03234685 0.02434407 0.03387797
v 0.03301250 0.02343724 0.03243656
f 1 2 3
f 1 3 4
f 1 4 5
f 1 5 6
f 1 6 7
f 1 7 8
f 1 8 2
f 2 9 10
f 2 10 11
f 2 11 12
f 2 12 3
f 2 8 9
f 3 13 4
f 3 12 14
f 3 14 15
f 3 15 13
f 4 13 16
f 4 16 17
f 4 17 18
f 4 18 19
f 4 19 20
f 4 20 5
f 5 21 22
f 5 22 6
f 5 20 21
f 6 22 7
f 7 22 23
f 7 23 24
f 7 24 8
f 8 24 25
f 8 25 26
f 8 26 9
f 9 26 27
f 9 27 10
f 10 28 29
f 10 29 11
f 10 27 30
f 10 30 28
f 11 29 12
f 12 29 31
f 12 31 14
f 13 15 32
f 13 32 16
f 14 33 34
f 14 34 32
f 14 32 15
f 14 31 33
f 16 32 35
f 16 35 36
f 16 36 17
f 17 36 37
f 17 37 38
f 17 38 39
f 17 39 40
f 17 40 41
f 17 41 42
f 17 42 18
f 18 21 20
f 18 20 19
f 18 42 41
f 18 41 40
f 18 40 39
f 18 39 43
f 18 43 23
f 18 23 21
f 21 23 22
f 23 43 38
f 23 38 44
f 23 44 24
f 24 44 45
f 24 45 46
f 24 46 47
f 24 47 25
f 25 47 48
f 25 48 49
f 25 49 26
f 26 49 27
f 27 49 30
f 28 50 31
f 28 31 29
f 28 30 50
f 30 49 51
f 30 51 50
f 31 50 34
f 31 34 33
f 32 52 53
f 32 53 54
f 32 54 36
f 32 36 35
f 32 34 52
f 34 50 52
f 36 54 37
f 37 55 56
f 37 56 57
f 37 57 38
f 37 54 55
f 38 43 39
f 38 57 44
f 44 57 58
f 44 58 45
f 45 58 46
f 46 58 59
f 46 59 47
f 47 59 60
f 47 60 61
f 47 61 48
f 48 61 51
f 48 51 49
f 50 62 52
f 50 51 61
f 50 61 62
f 52 62 53
f 53 62 63
f 53 63 54
f 54 63 55
f 55 63 59
f 55 59 58
f 55 58 56
f 56 58 57
f 59 63 62
f 59 62 60
f 60 62 61

