# https://github.com/mikedh/trimesh
v -0.03002597 0.00451645 -0.02720893
v -0.03460800 0.00478622 -0.02691115
v -0.03371818 0.00919926 -0.02720893
v -0.03002597 0.01255131 -0.02720893
v -0.03002597 0.00451645 0.00034256
v -0.03230251 0.00451645 0.00321325
v -0.03447310 0.00574496 -0.02691115
v -0.03463498 0.00478622 -0.02591057
v -0.03436617 0.00639933 -0.02691115
v -0.03422391 0.00709852 -0.02691115
v -0.03407283 0.00777255 -0.02691115
v -0.03392027 0.00842535 -0.02691115
v -0.03395756 0.00842535 -0.02594631
v -0.03365539 0.00949813 -0.02661931
v -0.03354404 0.00981351 -0.02720893
v -0.03264490 0.01250884 -0.02720893
v -0.03267924 0.01255131 -0.02526437
v -0.03002597 0.01255131 0.00321325
v -0.03002597 0.01158942 0.00321325
v -0.03503672 0.00484600 0.00321325
v -0.03449812 0.00572845 -0.02594631
v -0.03440933 0.00628371 -0.02594631
v -0.03460849 0.00505520 -0.02527033
v -0.03451234 0.00572845 -0.02527033
v -0.03432987 0.00678550 -0.02527033
v -0.03425874 0.00707650 -0.02594631
v -0.03411747 0.00775053 -0.02594631
v -0.03367354 0.00949577 -0.02592844
v -0.03397423 0.00842535 -0.02527033
v -0.03340620 0.01044586 -0.02594631
v -0.03304468 0.01136606 -0.02718213
v -0.03336205 0.01044586 -0.02691115
v -0.03297208 0.01165313 -0.02661931
v -0.03266403 0.01250884 -0.02657464
v -0.03268022 0.01250884 -0.02590164
v -0.03311336 0.01131651 -0.02594631
v -0.03298827 0.01170032 -0.02527033
v -0.03270720 0.01250884 -0.02459434
v -0.03271799 0.01250884 -0.02392432
v -0.03308540 0.01245300 0.00321325
v -0.03487533 0.00581889 0.00321325
v -0.03433772 0.00680202 -0.02459434
v -0.03413415 0.00775053 -0.02527033
v -0.03372308 0.00935499 -0.02531201
v -0.03361173 0.00980250 -0.02459434
v -0.03341994 0.01044586 -0.02527033
v -0.03399189 0.00842535 -0.02392432
v -0.03382560 0.00909701 -0.02324834
v -0.03376331 0.00929128 -0.02392432
v -0.03315799 0.01111989 -0.02661931
v -0.03319822 0.01111989 -0.02527033
v -0.03305596 0.01154853 -0.02459434
v -0.03293971 0.01190166 -0.02392432
v -0.03300593 0.01174830 -0.02324834
v -0.03307215 0.01159257 -0.02257235
v -0.03329632 0.01187335 0.00321325
v -0.03468795 0.00683033 0.00321325
v -0.03443239 0.00804783 0.00321325
v -0.03400072 0.00842535 -0.02324834
v -0.03414101 0.00909701 0.00168261
v -0.03394529 0.00985992 0.00316560
v -0.03364754 0.01084146 0.00321325
v -0.03415720 0.00909701 0.00321325
v -0.03414935 0.00909701 0.00235859
f 1 2 3
f 1 3 15
f 1 15 16
f 1 16 4
f 1 4 18
f 1 18 19
f 1 19 5
f 1 5 6
f 1 6 2
f 2 7 3
f 2 6 8
f 2 8 7
f 3 7 9
f 3 9 10
f 3 10 11
f 3 11 12
f 3 12 13
f 3 13 14
f 3 14 15
f 4 16 17
f 4 17 18
f 5 19 6
f 6 19 18
f 6 18 40
f 6 40 56
f 6 56 62
f 6 62 63
f 6 63 58
f 6 58 57
f 6 57 41
f 6 41 20
f 6 20 8
f 7 8 21
f 7 21 22
f 7 22 9
f 8 23 24
f 8 24 21
f 8 20 23
f 9 22 25
f 9 25 26
f 9 26 10
f 10 26 27
f 10 27 11
f 11 27 12
f 12 27 13
f 13 28 14
f 13 27 43
f 13 43 29
f 13 29 28
f 14 28 30
f 14 30 15
f 15 31 16
f 15 30 32
f 15 32 31
f 16 31 33
f 16 33 34
f 16 34 17
f 17 34 35
f 17 35 36
f 17 36 37
f 17 37 38
f 17 38 39
f 17 39 40
f 17 40 18
f 20 41 24
f 20 24 23
f 21 24 22
f 22 24 41
f 22 41 42
f 22 42 25
f 25 43 26
f 25 42 43
f 26 43 27
f 28 29 44
f 28 44 45
f 28 45 46
f 28 46 30
f 29 47 48
f 29 48 49
f 29 49 44
f 29 43 47
f 30 36 50
f 30 50 32
f 30 46 51
f 30 51 36
f 31 32 50
f 31 50 33
f 33 50 36
f 33 36 34
f 34 36 35
f 36 51 37
f 37 51 52
f 37 52 38
f 38 53 39
f 38 52 53
f 39 53 54
f 39 54 55
f 39 55 40
f 40 55 56
f 41 57 42
f 42 57 43
f 43 57 58
f 43 58 59
f 43 59 47
f 44 49 45
f 45 49 60
f 45 60 61
f 45 61 46
f 46 61 62
f 46 62 51
f 47 59 48
f 48 59 60
f 48 60 49
f 51 62 55
f 51 55 52
f 52 55 54
f 52 54 53
f 55 62 56
f 58 63 64
f 58 64 60
f 58 60 59
f 60 64 61
f 61 64 63
f 61 63 62

