# https://github.com/mikedh/trimesh
v -0.00013234 -0.03572573 0.03136705
v -0.00013234 -0.03309903 0.03095002
v -0.01361404 -0.03021107 0.03134949
v -0.01868344 -0.03037085 0.03136705
v -0.00143134 -0.03571547 0.03136705
v -0.00101302 -0.03551089 0.01752386
v -0.00101302 -0.03549307 0.01651201
v -0.00013234 -0.03552816 0.02075913
v -0.00013234 -0.03307528 0.02998866
v -0.00013234 -0.03306125 0.02931263
v -0.01349479 -0.03021107 0.02979770
v -0.01271318 -0.03021107 0.00894402
v -0.01887426 -0.03022834 0.02821079
v -0.01774956 -0.03093657 0.03136705
v -0.00231385 -0.03567337 0.03136705
v -0.00168637 -0.03552222 0.01920954
v -0.00168637 -0.03547796 0.01651201
v -0.00134878 -0.03547256 0.01584038
v -0.00101302 -0.03546447 0.01516435
v -0.00023509 -0.03529658 0.00895719
v -0.00018371 -0.03546986 0.01762702
v -0.00013234 -0.03275464 0.00894402
v -0.00013234 -0.03281941 0.01381888
v -0.01281960 -0.03021107 0.01247121
v -0.01279575 -0.03021107 0.01179738
v -0.01701749 -0.03096680 0.00894402
v -0.01802110 -0.03038381 0.00895719
v -0.01718262 -0.03121781 0.02863880
v -0.01716060 -0.03127017 0.03136705
v -0.01718262 -0.03124858 0.03066029
v -0.00369541 -0.03555785 0.03136705
v -0.00140749 -0.03531818 0.00898353
v -0.00346791 -0.03519132 0.00898353
v -0.00251384 -0.03525664 0.00894402
v -0.01569281 -0.03165775 0.00894402
v -0.01603591 -0.03161025 0.01584038
v -0.01645239 -0.03164426 0.03032447
v -0.01646157 -0.03164912 0.03136705
v -0.00469719 -0.03543369 0.03136705
v -0.00458160 -0.03507850 0.00898353
v -0.00707868 -0.03459268 0.00894402
v -0.01289849 -0.03288041 0.00894402
v -0.01408557 -0.03239567 0.00898353
v -0.01474608 -0.03231685 0.02122884
v -0.01511487 -0.03232819 0.03136705
v -0.01582491 -0.03198379 0.03136705
v -0.00571547 -0.03527175 0.03136705
v -0.00640350 -0.03478485 0.01179738
v -0.00640350 -0.03514166 0.03066029
v -0.00672641 -0.03509524 0.03136705
v -0.00821439 -0.03435354 0.00894402
v -0.01082890 -0.03362534 0.00894402
v -0.01182333 -0.03371064 0.03136705
v -0.01246733 -0.03346178 0.03136705
v -0.01314985 -0.03317083 0.03136705
v -0.00773736 -0.03488093 0.03136705
v -0.00910057 -0.03412197 0.00894402
v -0.00977025 -0.03394221 0.00894402
v -0.01108943 -0.03394437 0.03136705
v -0.00841071 -0.03470064 0.03136705
v -0.00929505 -0.03444153 0.02998866
v -0.00910057 -0.03418512 0.01247121
v -0.01042526 -0.03413438 0.03136705
v -0.00931524 -0.03444855 0.03136705
f 1 2 3
f 1 3 4
f 1 4 14
f 1 14 29
f 1 29 38
f 1 38 46
f 1 46 45
f 1 45 55
f 1 55 54
f 1 54 53
f 1 53 59
f 1 59 63
f 1 63 64
f 1 64 60
f 1 60 56
f 1 56 50
f 1 50 47
f 1 47 39
f 1 39 31
f 1 31 15
f 1 15 5
f 1 5 6
f 1 6 7
f 1 7 8
f 1 8 22
f 1 22 23
f 1 23 10
f 1 10 9
f 1 9 2
f 2 9 3
f 3 9 10
f 3 10 11
f 3 11 24
f 3 24 25
f 3 25 12
f 3 12 13
f 3 13 4
f 4 13 14
f 5 15 16
f 5 16 6
f 6 16 17
f 6 17 7
f 7 17 18
f 7 18 19
f 7 19 20
f 7 20 21
f 7 21 8
f 8 21 20
f 8 20 22
f 10 23 11
f 11 23 22
f 11 22 24
f 12 25 22
f 12 22 34
f 12 34 41
f 12 41 51
f 12 51 57
f 12 57 58
f 12 58 52
f 12 52 42
f 12 42 35
f 12 35 26
f 12 26 27
f 12 27 13
f 13 28 14
f 13 27 26
f 13 26 28
f 14 28 30
f 14 30 29
f 15 31 17
f 15 17 16
f 17 32 18
f 17 31 33
f 17 33 34
f 17 34 32
f 18 32 19
f 19 32 20
f 20 34 22
f 20 32 34
f 22 25 24
f 26 35 36
f 26 36 37
f 26 37 28
f 28 37 30
f 29 30 37
f 29 37 38
f 31 39 40
f 31 40 33
f 33 40 34
f 34 40 41
f 35 42 43
f 35 43 44
f 35 44 45
f 35 45 46
f 35 46 36
f 36 46 37
f 37 46 38
f 39 47 40
f 40 48 41
f 40 47 49
f 40 49 50
f 40 50 48
f 41 48 50
f 41 50 51
f 42 52 53
f 42 53 54
f 42 54 43
f 43 54 55
f 43 55 45
f 43 45 44
f 47 50 49
f 50 56 51
f 51 56 57
f 52 58 59
f 52 59 53
f 56 60 61
f 56 61 62
f 56 62 57
f 57 62 58
f 58 62 61
f 58 61 59
f 59 61 63
f 60 64 61
f 61 64 63

