# https://github.com/mikedh/trimesh
v -0.01982555 0.00384134 -0.02615932
v -0.01987019 0.00316624 -0.02615932
v -0.01989673 0.00447007 -0.02615932
v -0.02273687 0.00451645 -0.00910051
v -0.02228805 -0.00277415 -0.01141091
v -0.02218550 -0.00277415 -0.01211755
v -0.02204071 -0.00277415 -0.01314163
v -0.02004272 0.00243689 -0.02615932
v -0.02196350 -0.00277415 -0.01381515
v -0.02183440 -0.00277415 -0.01528916
v -0.02179458 -0.00277415 -0.01596544
v -0.03215013 0.00451645 -0.02615932
v -0.02289975 0.00451645 -0.00840767
v -0.02296732 -0.00277415 -0.00810404
v -0.02245334 -0.00277415 -0.01044755
v -0.02019474 0.00199514 -0.02615932
v -0.02177045 -0.00277415 -0.01676870
v -0.02175598 -0.00277415 -0.01744222
v -0.02176080 -0.00277415 -0.01798600
v -0.03215013 0.00451645 0.00167027
v -0.03215013 -0.00277415 -0.02615932
v -0.02307711 0.00451645 -0.00779212
v -0.02318208 -0.00277415 -0.00733667
v -0.02178011 -0.00277415 -0.01865952
v -0.02180665 -0.00277415 -0.01933580
v -0.02186939 -0.00277415 -0.02013905
v -0.02201055 -0.00277415 -0.02148609
v -0.02061340 0.00113734 -0.02615932
v -0.03215013 -0.00277415 0.00204016
v -0.02979380 -0.00277415 0.00103264
v -0.02910729 -0.00277415 0.00072900
v -0.02902525 0.00451645 -0.00005493
v -0.02302523 -0.00277415 -0.02615932
v -0.02330273 0.00451645 -0.00707720
v -0.02363814 -0.00277415 -0.00583505
v -0.02211310 -0.00277415 -0.02221206
v -0.02090176 0.00058640 -0.02615932
v -0.02861865 -0.00277415 0.00044193
v -0.02864881 0.00451645 -0.00027300
v -0.02129026 -0.00010084 -0.02615932
v -0.02253659 -0.00277415 -0.02418293
v -0.02356093 0.00451645 -0.00636779
v -0.02389996 -0.00277415 -0.00520018
v -0.02219635 -0.00277415 -0.02266751
v -0.02804314 -0.00277415 0.00004720
v -0.02799609 0.00451645 -0.00069257
v -0.02235803 -0.00277415 -0.02344592
v -0.02384325 0.00451645 -0.00573016
v -0.02425347 -0.00277415 -0.00442452
v -0.02762086 -0.00277415 -0.00025367
v -0.02713584 0.00451645 -0.00131916
v -0.02438257 0.00451645 -0.00461223
v -0.02457802 -0.00277415 -0.00381449
v -0.02712739 -0.00277415 -0.00062632
v -0.02639142 0.00451645 -0.00192367
v -0.02478916 0.00451645 -0.00394975
v -0.02481932 -0.00277415 -0.00340872
v -0.02665685 -0.00277415 -0.00105141
v -0.02600051 0.00451645 -0.00231012
v -0.02562407 0.00451645 -0.00271588
v -0.02555530 -0.00277415 -0.00226871
v -0.02508958 -0.00277415 -0.00297811
v -0.02632506 -0.00277415 -0.00139369
v -0.02600292 -0.00277415 -0.00173873
f 1 2 8
f 1 8 16
f 1 16 28
f 1 28 37
f 1 37 40
f 1 40 33
f 1 33 21
f 1 21 12
f 1 12 3
f 1 3 4
f 1 4 5
f 1 5 6
f 1 6 7
f 1 7 2
f 2 7 9
f 2 9 10
f 2 10 11
f 2 11 8
f 3 12 4
f 4 13 14
f 4 14 15
f 4 15 5
f 4 12 20
f 4 20 32
f 4 32 39
f 4 39 46
f 4 46 51
f 4 51 55
f 4 55 59
f 4 59 60
f 4 60 56
f 4 56 52
f 4 52 48
f 4 48 42
f 4 42 34
f 4 34 22
f 4 22 13
f 5 15 14
f 5 14 23
f 5 23 35
f 5 35 43
f 5 43 49
f 5 49 53
f 5 53 57
f 5 57 62
f 5 62 61
f 5 61 64
f 5 64 63
f 5 63 58
f 5 58 54
f 5 54 50
f 5 50 45
f 5 45 38
f 5 38 31
f 5 31 30
f 5 30 29
f 5 29 21
f 5 21 33
f 5 33 41
f 5 41 47
f 5 47 44
f 5 44 36
f 5 36 27
f 5 27 26
f 5 26 25
f 5 25 24
f 5 24 19
f 5 19 18
f 5 18 17
f 5 17 11
f 5 11 10
f 5 10 9
f 5 9 7
f 5 7 6
f 8 11 17
f 8 17 18
f 8 18 19
f 8 19 16
f 12 21 29
f 12 29 20
f 13 22 23
f 13 23 14
f 16 19 24
f 16 24 25
f 16 25 26
f 16 26 27
f 16 27 28
f 20 29 30
f 20 30 31
f 20 31 32
f 22 34 35
f 22 35 23
f 27 36 37
f 27 37 28
f 31 38 39
f 31 39 32
f 33 40 41
f 34 42 35
f 35 42 43
f 36 44 40
f 36 40 37
f 38 45 46
f 38 46 39
f 40 44 47
f 40 47 41
f 42 48 43
f 43 48 49
f 45 50 46
f 46 50 51
f 48 52 49
f 49 52 53
f 50 54 51
f 51 54 55
f 52 56 57
f 52 57 53
f 54 58 55
f 55 58 59
f 56 60 61
f 56 61 62
f 56 62 57
f 58 63 59
f 59 63 64
f 59 64 60
f 60 64 61

