# https://github.com/mikedh/trimesh
v -0.03262729 0.00300277 0.00894701
v -0.03532181 0.00332511 0.00894701
v -0.03506935 0.00467328 0.00358520
v -0.03230130 0.00451834 0.00321381
v -0.02731831 0.01773817 0.00664713
v -0.03265752 0.00300277 0.01112309
v -0.03305132 0.00300277 0.03131859
v -0.03548849 0.00301879 0.01584391
v -0.03540842 0.00301879 0.01179710
v -0.03512573 0.00451834 0.00505702
v -0.03532345 0.00370801 0.01044909
v -0.03506854 0.00486562 0.00472139
v -0.03487491 0.00582020 0.00321381
v -0.03002590 0.01159219 0.00321381
v -0.03002590 0.01254855 0.00321381
v -0.03085191 0.01746391 0.00686446
v -0.02894417 0.02062684 0.00897177
v -0.02894417 0.02085124 0.01585491
v -0.02903405 0.02119674 0.03131859
v -0.02894417 0.01639892 0.03131859
v -0.03294674 0.00300277 0.02897469
v -0.03288547 0.00300277 0.02526352
v -0.03566496 0.00336073 0.03131859
v -0.03531119 0.00438299 0.01449314
v -0.03534224 0.00370801 0.01146147
v -0.03518210 0.00451834 0.00788785
v -0.03512900 0.00476410 0.00697725
v -0.03506854 0.00526276 0.00785484
v -0.03468454 0.00685492 0.00333761
v -0.03443780 0.00803745 0.00333761
v -0.03415675 0.00910067 0.00321381
v -0.03506364 0.00549250 0.00977783
v -0.03364693 0.01084420 0.00321381
v -0.03318286 0.01218880 0.00333761
v -0.03148673 0.01625110 0.00664713
v -0.03086825 0.01747460 0.00775305
v -0.03012803 0.01876755 0.00894701
v -0.02976364 0.02015846 0.03131859
v -0.02895479 0.02088152 0.01721668
v -0.03546479 0.00505618 0.03131859
v -0.03513553 0.00505618 0.00977783
v -0.03528913 0.00438299 0.01314512
v -0.03532181 0.00605884 0.03131859
v -0.03510204 0.00515235 0.00868566
v -0.03468536 0.00707753 0.00573103
v -0.03453748 0.00775250 0.00505702
v -0.03442391 0.00829391 0.00573103
v -0.03435528 0.00870174 0.00741467
v -0.03394514 0.00986291 0.00321381
v -0.03505547 0.00744975 0.03131859
v -0.03369513 0.01078543 0.00404463
v -0.03379236 0.01211044 0.03131859
v -0.03341081 0.01313803 0.03131859
v -0.03294266 0.01300803 0.00666088
v -0.03246552 0.01416919 0.00675717
v -0.03201289 0.01516117 0.00664713
v -0.03246715 0.01535529 0.03131859
v -0.03188299 0.01651111 0.03131859
v -0.03152023 0.01721814 0.03131859
v -0.03108803 0.01800888 0.03131859
v -0.03478176 0.00876407 0.03131859
v -0.03443453 0.01007662 0.03131859
v -0.03412406 0.01112380 0.03131859
v -0.03298024 0.01422796 0.03131859
f 1 2 3
f 1 3 4
f 1 4 5
f 1 5 6
f 1 6 22
f 1 22 21
f 1 21 7
f 1 7 8
f 1 8 9
f 1 9 2
f 2 10 3
f 2 9 11
f 2 11 10
f 3 10 12
f 3 12 13
f 3 13 4
f 4 13 31
f 4 31 49
f 4 49 33
f 4 33 15
f 4 15 14
f 4 14 5
f 5 14 15
f 5 15 16
f 5 16 17
f 5 17 18
f 5 18 19
f 5 19 20
f 5 20 7
f 5 7 21
f 5 21 22
f 5 22 6
f 7 20 19
f 7 19 38
f 7 38 60
f 7 60 59
f 7 59 58
f 7 58 57
f 7 57 64
f 7 64 53
f 7 53 52
f 7 52 63
f 7 63 62
f 7 62 61
f 7 61 50
f 7 50 43
f 7 43 40
f 7 40 23
f 7 23 8
f 8 23 24
f 8 24 25
f 8 25 11
f 8 11 9
f 10 11 26
f 10 26 27
f 10 27 12
f 11 25 26
f 12 27 28
f 12 28 13
f 13 29 30
f 13 30 31
f 13 28 32
f 13 32 29
f 15 33 34
f 15 34 16
f 16 34 35
f 16 35 36
f 16 36 37
f 16 37 17
f 17 37 38
f 17 38 39
f 17 39 18
f 18 39 19
f 19 39 38
f 23 40 24
f 24 41 42
f 24 42 25
f 24 40 43
f 24 43 41
f 25 42 26
f 26 44 27
f 26 42 41
f 26 41 44
f 27 44 28
f 28 44 32
f 29 45 46
f 29 46 30
f 29 32 45
f 30 46 47
f 30 47 48
f 30 48 31
f 31 48 49
f 32 43 50
f 32 50 45
f 32 44 43
f 33 49 51
f 33 51 34
f 34 51 52
f 34 52 53
f 34 53 54
f 34 54 55
f 34 55 56
f 34 56 35
f 35 56 57
f 35 57 58
f 35 58 59
f 35 59 36
f 36 59 60
f 36 60 37
f 37 60 38
f 41 43 44
f 45 50 46
f 46 50 61
f 46 61 47
f 47 61 48
f 48 61 62
f 48 62 49
f 49 62 51
f 51 62 63
f 51 63 52
f 53 64 54
f 54 64 55
f 55 64 56
f 56 64 57

