# https://github.com/mikedh/trimesh
v 0.00025914 -0.03500176 -0.01329613
v 0.00124067 -0.03496298 -0.01330035
v 0.00150527 -0.03208497 -0.01329613
v -0.00390412 -0.03470867 -0.01329613
v -0.00071305 -0.03498610 -0.01342689
v -0.00000051 -0.03478921 -0.02594481
v 0.00113418 -0.03478175 -0.02487200
v 0.00150527 -0.03477131 -0.02410150
v 0.00150527 -0.02950528 -0.01683090
v -0.00056099 -0.03043603 -0.01329613
v -0.00396560 -0.03055834 -0.01329613
v -0.00410284 -0.02759009 -0.02027990
v -0.00410284 -0.03151369 -0.02765876
v -0.00390412 -0.03467734 -0.01651313
v -0.00370595 -0.03469226 -0.01718662
v -0.00303183 -0.03476460 -0.01684918
v -0.00235826 -0.03483172 -0.01583965
v -0.00235826 -0.03475640 -0.02021803
v -0.00101168 -0.03472284 -0.02661830
v -0.00000051 -0.03476460 -0.02661830
v 0.00125769 -0.03474819 -0.02594481
v 0.00125769 -0.03472060 -0.02661830
v 0.00125769 -0.03464527 -0.02749847
v 0.00123299 -0.02848578 -0.02765876
v 0.00125769 -0.02810021 -0.02118257
v 0.00125769 -0.02815167 -0.02049221
v 0.00125769 -0.02862226 -0.01848299
v 0.00122914 -0.02892654 -0.01767452
v 0.00125769 -0.02808231 -0.02190106
v -0.00160730 -0.02997737 -0.01329613
v -0.00319926 -0.03016307 -0.01329613
v -0.00410284 -0.02738276 -0.02163391
v -0.00228086 -0.02995648 -0.01329613
v -0.00101168 -0.02850592 -0.01786152
v -0.00101168 -0.02830157 -0.01851814
v -0.00033757 -0.02816435 -0.01920850
v 0.00033600 -0.02808231 -0.01988199
v -0.00410284 -0.02866701 -0.02495777
v 0.00040022 -0.02869535 -0.02765876
v -0.00168415 -0.03461022 -0.02747598
v -0.00387996 -0.03441408 -0.02735928
v -0.00390412 -0.03451402 -0.02520242
v -0.00390412 -0.03454235 -0.02422523
v -0.00303183 -0.03474819 -0.01786152
v -0.00235826 -0.03473104 -0.02156501
v -0.00168415 -0.03467212 -0.02661830
v -0.00235826 -0.03457368 -0.02729179
v -0.00093483 -0.03466765 -0.02747598
v 0.00003737 -0.03468704 -0.02747598
v -0.00410284 -0.02756697 -0.02344488
v -0.00410284 -0.02738425 -0.02268140
v 0.00033600 -0.02801519 -0.02055407
v 0.00112649 -0.02827472 -0.01950096
v 0.00035960 -0.02828069 -0.01905946
v 0.00033600 -0.02875427 -0.01756766
v -0.00033757 -0.02846117 -0.01815679
v -0.00410284 -0.02805994 -0.02424773
v -0.00303183 -0.03450954 -0.02729179
v -0.00303183 -0.03455056 -0.02661830
v -0.00380531 -0.03448567 -0.02625273
v -0.00303183 -0.03457666 -0.02594481
v -0.00303183 -0.03459903 -0.02527132
v -0.00303183 -0.03464229 -0.02324944
v -0.00235826 -0.03462439 -0.02628226
f 1 2 3
f 1 3 10
f 1 10 30
f 1 30 33
f 1 33 31
f 1 31 11
f 1 11 4
f 1 4 5
f 1 5 6
f 1 6 7
f 1 7 2
f 2 7 8
f 2 8 3
f 3 8 9
f 3 9 10
f 4 11 12
f 4 12 13
f 4 13 14
f 4 14 15
f 4 15 16
f 4 16 17
f 4 17 5
f 5 17 18
f 5 18 19
f 5 19 6
f 6 19 20
f 6 20 21
f 6 21 7
f 7 21 8
f 8 21 22
f 8 22 23
f 8 23 24
f 8 24 9
f 9 25 26
f 9 26 27
f 9 27 28
f 9 28 10
f 9 24 29
f 9 29 25
f 10 28 30
f 11 31 12
f 12 32 51
f 12 51 50
f 12 50 57
f 12 57 38
f 12 38 13
f 12 31 33
f 12 33 30
f 12 30 34
f 12 34 35
f 12 35 36
f 12 36 37
f 12 37 32
f 13 38 39
f 13 39 24
f 13 24 23
f 13 23 40
f 13 40 41
f 13 41 42
f 13 42 43
f 13 43 14
f 14 43 15
f 15 44 16
f 15 43 44
f 16 44 17
f 17 44 18
f 18 44 45
f 18 45 19
f 19 46 47
f 19 47 48
f 19 48 20
f 19 45 46
f 20 48 49
f 20 49 23
f 20 23 22
f 20 22 21
f 23 49 48
f 23 48 40
f 24 39 50
f 24 50 51
f 24 51 29
f 25 52 26
f 25 29 32
f 25 32 52
f 26 52 37
f 26 37 53
f 26 53 27
f 27 53 54
f 27 54 55
f 27 55 28
f 28 55 30
f 29 51 32
f 30 55 56
f 30 56 34
f 32 37 52
f 34 56 35
f 35 56 36
f 36 56 54
f 36 54 37
f 37 54 53
f 38 57 39
f 39 57 50
f 40 48 47
f 40 47 58
f 40 58 41
f 41 58 59
f 41 59 60
f 41 60 42
f 42 60 61
f 42 61 62
f 42 62 43
f 43 62 63
f 43 63 44
f 44 63 45
f 45 63 62
f 45 62 46
f 46 62 64
f 46 64 59
f 46 59 47
f 47 59 58
f 54 56 55
f 59 64 61
f 59 61 60
f 61 64 62

