# https://github.com/mikedh/trimesh
v -0.00641340 -0.01770653 -0.02774311
v -0.00641340 -0.01770653 -0.02985298
v -0.00644641 -0.01770653 -0.02774185
v -0.00641340 -0.01959966 -0.02631579
v -0.00641340 -0.01919683 -0.02990342
v -0.01845638 -0.02097057 -0.02989838
v -0.01845638 -0.01770653 -0.02970420
v -0.00707709 -0.01770653 -0.02773723
v -0.00775138 -0.01770653 -0.02774017
v -0.01845638 -0.01770653 -0.02779439
v -0.00641340 -0.01960453 -0.02631285
v -0.00641340 -0.01987092 -0.02990426
v -0.01143877 -0.02538706 -0.02990258
v -0.01845638 -0.02585486 -0.02989838
v -0.01845638 -0.02599942 -0.02748967
v -0.00657019 -0.02190211 -0.02562273
v -0.00641340 -0.02175836 -0.02561516
v -0.00641340 -0.02135066 -0.02566308
v -0.00641340 -0.02126945 -0.02567316
v -0.00641340 -0.02056693 -0.02587869
v -0.00641340 -0.02055637 -0.02588247
v -0.00641340 -0.01993670 -0.02615062
v -0.00641340 -0.02324947 -0.02985761
v -0.01143877 -0.02600105 -0.02989838
v -0.01198811 -0.02600186 -0.02989838
v -0.01823476 -0.02600186 -0.02989838
v -0.01828663 -0.02596937 -0.02989838
v -0.01845638 -0.02597831 -0.02981096
v -0.01845638 -0.02600186 -0.02872197
v -0.01798838 -0.02600186 -0.02771075
v -0.01143877 -0.02600186 -0.02735182
v -0.00909879 -0.02538706 -0.02685251
v -0.00641340 -0.02324947 -0.02581060
v -0.00641340 -0.02261681 -0.02563324
v -0.00641340 -0.02261193 -0.02563282
v -0.00641340 -0.02190211 -0.02561054
v -0.00641340 -0.02392437 -0.02984752
v -0.01143877 -0.02600186 -0.02945118
v -0.00641340 -0.02538462 -0.02976052
v -0.01845638 -0.02600186 -0.02979372
v -0.00842449 -0.02538706 -0.02700423
v -0.00883355 -0.02538706 -0.02689958
v -0.00641340 -0.02538706 -0.02770276
v -0.00665035 -0.02423624 -0.02630276
v -0.00641340 -0.02398041 -0.02614684
v -0.00641694 -0.02397716 -0.02614515
v -0.00641340 -0.02538706 -0.02774521
v -0.00641340 -0.02443765 -0.02656125
f 1 2 7
f 1 7 10
f 1 10 9
f 1 9 8
f 1 8 3
f 1 3 4
f 1 4 11
f 1 11 22
f 1 22 21
f 1 21 20
f 1 20 19
f 1 19 18
f 1 18 17
f 1 17 36
f 1 36 35
f 1 35 34
f 1 34 33
f 1 33 45
f 1 45 48
f 1 48 43
f 1 43 47
f 1 47 39
f 1 39 37
f 1 37 23
f 1 23 12
f 1 12 5
f 1 5 2
f 2 5 6
f 2 6 7
f 3 8 4
f 4 8 9
f 4 9 10
f 4 10 11
f 5 12 6
f 6 13 14
f 6 14 28
f 6 28 40
f 6 40 29
f 6 29 15
f 6 15 10
f 6 10 7
f 6 12 13
f 10 15 16
f 10 16 17
f 10 17 18
f 10 18 19
f 10 19 20
f 10 20 21
f 10 21 22
f 10 22 11
f 12 23 24
f 12 24 13
f 13 24 25
f 13 25 26
f 13 26 27
f 13 27 14
f 14 27 28
f 15 29 30
f 15 30 31
f 15 31 32
f 15 32 33
f 15 33 34
f 15 34 35
f 15 35 16
f 16 35 36
f 16 36 17
f 23 37 24
f 24 38 25
f 24 37 39
f 24 39 38
f 25 38 31
f 25 31 30
f 25 30 29
f 25 29 40
f 25 40 26
f 26 40 27
f 27 40 28
f 31 41 42
f 31 42 32
f 31 38 47
f 31 47 43
f 31 43 41
f 32 42 44
f 32 44 45
f 32 45 46
f 32 46 33
f 33 46 45
f 38 39 47
f 41 43 48
f 41 48 42
f 42 48 44
f 44 48 45

