# https://github.com/mikedh/trimesh
v -0.01845546 -0.02338802 -0.02782852
v -0.01845546 -0.02338802 -0.03066943
v -0.02192120 -0.02338802 -0.02674365
v -0.00876316 -0.02600494 -0.02536653
v -0.00686188 -0.02569570 -0.02755912
v -0.01884197 -0.02496744 -0.03066943
v -0.02055368 -0.02356631 -0.03066943
v -0.02477036 -0.02359250 -0.02888536
v -0.02566118 -0.02347263 -0.02761414
v -0.00686188 -0.02572189 -0.02974755
v -0.00844842 -0.02716231 -0.03066268
v -0.00877420 -0.03001695 -0.03066268
v -0.02554523 -0.02369323 -0.02676077
v -0.01063867 -0.03309722 -0.02597593
v -0.00844842 -0.03367842 -0.02597593
v -0.01767139 -0.02895124 -0.02914802
v -0.01918983 -0.02799433 -0.02915632
v -0.02124204 -0.02682285 -0.02895180
v -0.01015645 -0.02957878 -0.03066268
v -0.01112089 -0.02921012 -0.03066268
v -0.01284548 -0.02850099 -0.03066268
v -0.01399950 -0.02796209 -0.03066268
v -0.02411697 -0.02466425 -0.02852772
v -0.02491392 -0.02424119 -0.02788458
v -0.02294086 -0.02563627 -0.02868240
v -0.00847235 -0.03363410 -0.02699592
v -0.00877420 -0.03343365 -0.02795725
v -0.00906133 -0.03288871 -0.02880023
v -0.01044909 -0.03200935 -0.02924820
v -0.02470410 -0.02457460 -0.02674365
v -0.01080432 -0.03298440 -0.02696892
v -0.00943864 -0.03336415 -0.02729543
v -0.00944416 -0.03342056 -0.02629880
v -0.01400318 -0.03183006 -0.02629880
v -0.01295407 -0.03226118 -0.02629880
v -0.01671062 -0.02973289 -0.02904109
v -0.01953770 -0.02831464 -0.02867046
v -0.02030336 -0.02756422 -0.02888017
v -0.02225802 -0.02616812 -0.02872341
v -0.01314365 -0.03122871 -0.02914334
v -0.01516641 -0.02998774 -0.02931101
v -0.02426421 -0.02494226 -0.02765359
v -0.02188991 -0.02695179 -0.02769356
v -0.02315805 -0.02594047 -0.02760480
v -0.01018406 -0.03299448 -0.02804497
v -0.01126446 -0.03245760 -0.02846128
v -0.01215528 -0.03175552 -0.02904680
v -0.02374886 -0.02553655 -0.02679711
v -0.01211663 -0.03248278 -0.02744648
v -0.01439338 -0.03155306 -0.02765359
v -0.01348047 -0.03199223 -0.02729543
v -0.01826220 -0.02955461 -0.02731567
v -0.01698302 -0.03022243 -0.02770342
v -0.01601306 -0.03023654 -0.02885941
v -0.01629650 -0.03038562 -0.02841092
v -0.01834871 -0.02902679 -0.02871666
v -0.01536519 -0.03040072 -0.02903537
v -0.01766402 -0.02968052 -0.02826454
v -0.01902051 -0.02904593 -0.02766449
v -0.02012299 -0.02831061 -0.02767124
v -0.02107823 -0.02758940 -0.02771121
v -0.01328905 -0.03175854 -0.02836940
v -0.01425718 -0.03095775 -0.02893779
v -0.01524739 -0.03109474 -0.02782333
f 1 2 3
f 1 3 4
f 1 4 5
f 1 5 2
f 2 6 7
f 2 7 8
f 2 8 9
f 2 9 3
f 2 5 10
f 2 10 11
f 2 11 12
f 2 12 6
f 3 9 13
f 3 13 4
f 4 14 15
f 4 15 5
f 4 13 14
f 5 15 10
f 6 16 17
f 6 17 18
f 6 18 7
f 6 12 19
f 6 19 20
f 6 20 21
f 6 21 22
f 6 22 16
f 7 18 8
f 8 23 24
f 8 24 9
f 8 18 25
f 8 25 23
f 9 24 13
f 10 15 26
f 10 26 27
f 10 27 12
f 10 12 11
f 12 27 28
f 12 28 29
f 12 29 19
f 13 24 30
f 13 30 14
f 14 31 32
f 14 32 33
f 14 33 15
f 14 30 34
f 14 34 35
f 14 35 31
f 15 33 26
f 16 36 17
f 16 22 36
f 17 37 38
f 17 38 18
f 17 36 37
f 18 39 25
f 18 38 37
f 18 37 39
f 19 29 40
f 19 40 20
f 20 40 21
f 21 40 41
f 21 41 22
f 22 41 36
f 23 42 24
f 23 25 42
f 24 42 30
f 25 39 43
f 25 43 44
f 25 44 42
f 26 33 32
f 26 32 27
f 27 32 45
f 27 45 28
f 28 45 46
f 28 46 47
f 28 47 29
f 29 47 40
f 30 42 48
f 30 48 34
f 31 35 49
f 31 49 32
f 32 49 45
f 34 50 51
f 34 51 35
f 34 48 52
f 34 52 53
f 34 53 50
f 35 51 49
f 36 54 55
f 36 55 56
f 36 56 37
f 36 41 57
f 36 57 54
f 37 56 58
f 37 58 59
f 37 59 60
f 37 60 61
f 37 61 39
f 39 61 43
f 40 47 57
f 40 57 41
f 42 44 48
f 43 61 48
f 43 48 44
f 45 49 62
f 45 62 46
f 46 62 47
f 47 62 63
f 47 63 57
f 48 61 60
f 48 60 52
f 49 51 50
f 49 50 62
f 50 53 64
f 50 64 55
f 50 55 62
f 52 60 59
f 52 59 53
f 53 59 58
f 53 58 55
f 53 55 64
f 54 57 63
f 54 63 62
f 54 62 55
f 55 58 56

