# https://github.com/mikedh/trimesh
v 0.01286253 -0.02809255 -0.01876200
v 0.01306942 -0.02742200 -0.02064024
v 0.01331566 -0.02785413 -0.02298689
v 0.01511651 -0.02809553 -0.02704229
v 0.01509028 -0.02809255 -0.01580034
v 0.01523307 -0.02491716 -0.01580034
v 0.01563811 -0.02355522 -0.01580034
v 0.01344533 -0.02707928 -0.02167671
v 0.01650940 -0.02213815 -0.01598129
v 0.01411846 -0.02588572 -0.02055664
v 0.01429330 -0.02608241 -0.02173168
v 0.02184492 -0.02690792 -0.02734464
v 0.02066476 -0.02781837 -0.02720835
v 0.02048992 -0.02809255 -0.02185537
v 0.01655602 -0.02329147 -0.02077309
v 0.02769040 -0.01592745 -0.02749925
v 0.02085271 -0.02792417 -0.01580034
v 0.02081483 -0.01791672 -0.01580034
v 0.01798388 -0.02037388 -0.01580607
v 0.01618303 -0.02291448 -0.01839093
v 0.01483676 -0.02527777 -0.02123005
v 0.02194837 -0.02692133 -0.02535416
v 0.02079443 -0.02779006 -0.02610889
v 0.02771809 -0.02076875 -0.02742251
v 0.02434514 -0.02466534 -0.02720033
v 0.02295807 -0.02598556 -0.02700335
v 0.01550553 -0.02442841 -0.02087273
v 0.01813978 -0.02121280 -0.01955109
v 0.01752055 -0.02223053 -0.02057152
v 0.02543643 -0.01534334 -0.02156676
v 0.02650878 -0.01379364 -0.01982137
v 0.02737278 -0.01287426 -0.01825007
v 0.02774577 -0.01302178 -0.01674633
v 0.02200082 -0.02703458 -0.01580034
v 0.02567537 -0.01449100 -0.01580034
v 0.01918882 -0.01923992 -0.01606948
v 0.01789646 -0.02067637 -0.01688147
v 0.01688093 -0.02209195 -0.01822372
v 0.02424606 -0.02492014 -0.02324916
v 0.02299304 -0.02618672 -0.01580034
v 0.02211593 -0.02685577 -0.02123005
v 0.02755344 -0.02116661 -0.02459714
v 0.02724311 -0.02147953 -0.02627152
v 0.02613724 -0.02275653 -0.02698273
v 0.02733927 -0.02163897 -0.01581065
v 0.02737278 -0.02157936 -0.01701890
v 0.02533444 -0.02367890 -0.02691860
v 0.02456951 -0.02457146 -0.02442879
v 0.01798971 -0.02088796 -0.01809087
v 0.01943068 -0.01985384 -0.01908611
v 0.02012275 -0.01945747 -0.01974121
v 0.01948896 -0.01949473 -0.01806568
v 0.01891199 -0.01976294 -0.01718726
v 0.02704350 -0.01385176 -0.01582553
v 0.02610956 -0.02307839 -0.01580034
v 0.02426063 -0.02493653 -0.02141673
v 0.02498330 -0.02431219 -0.01685055
v 0.02411639 -0.02514664 -0.01581065
v 0.02684389 -0.02210834 -0.02257574
v 0.02681038 -0.02210089 -0.02426043
v 0.02662242 -0.02228566 -0.02535531
v 0.02624797 -0.02287276 -0.01954536
v 0.02561564 -0.02359247 -0.01853524
v 0.02523682 -0.02405142 -0.01581523
f 1 2 3
f 1 3 4
f 1 4 5
f 1 5 6
f 1 6 7
f 1 7 2
f 2 8 3
f 2 7 9
f 2 9 10
f 2 10 8
f 3 8 11
f 3 11 4
f 4 12 13
f 4 13 14
f 4 14 5
f 4 11 15
f 4 15 16
f 4 16 12
f 5 14 17
f 5 17 34
f 5 34 40
f 5 40 55
f 5 55 35
f 5 35 18
f 5 18 7
f 5 7 6
f 7 18 19
f 7 19 9
f 8 10 11
f 9 19 20
f 9 20 10
f 10 21 11
f 10 20 21
f 11 21 15
f 12 22 23
f 12 23 13
f 12 16 24
f 12 24 25
f 12 25 26
f 12 26 22
f 13 23 14
f 14 23 17
f 15 21 27
f 15 27 28
f 15 28 29
f 15 29 16
f 16 29 30
f 16 30 31
f 16 31 32
f 16 32 33
f 16 33 24
f 17 23 22
f 17 22 34
f 18 35 32
f 18 32 36
f 18 36 19
f 19 36 37
f 19 37 20
f 20 37 38
f 20 38 27
f 20 27 21
f 22 26 39
f 22 39 40
f 22 40 41
f 22 41 34
f 24 42 43
f 24 43 44
f 24 44 25
f 24 33 45
f 24 45 46
f 24 46 42
f 25 47 48
f 25 48 26
f 25 44 47
f 26 48 39
f 27 38 28
f 28 38 49
f 28 49 50
f 28 50 51
f 28 51 29
f 29 51 30
f 30 51 31
f 31 51 50
f 31 50 52
f 31 52 53
f 31 53 36
f 31 36 32
f 32 35 33
f 33 35 54
f 33 54 45
f 34 41 40
f 35 55 45
f 35 45 54
f 36 53 37
f 37 53 49
f 37 49 38
f 39 56 40
f 39 48 57
f 39 57 56
f 40 56 58
f 40 58 55
f 42 46 59
f 42 59 60
f 42 60 43
f 43 60 61
f 43 61 44
f 44 61 47
f 45 55 62
f 45 62 46
f 46 62 59
f 47 63 48
f 47 61 62
f 47 62 63
f 48 63 57
f 49 53 50
f 50 53 52
f 55 64 63
f 55 63 62
f 55 58 64
f 56 57 58
f 57 63 64
f 57 64 58
f 59 62 60
f 60 62 61

