# https://github.com/mikedh/trimesh
v 0.02218608 -0.01921513 -0.03594418
v 0.02120423 -0.01921513 -0.03502372
v 0.02097163 -0.01921513 -0.03079163
v 0.02435330 -0.01936343 -0.03436989
v 0.02353249 -0.01933073 -0.03580821
v 0.02257971 -0.02054402 -0.03586770
v 0.01752062 -0.02392466 -0.03621772
v 0.00153148 -0.03025268 -0.03615611
v 0.00150912 -0.02907443 -0.03578962
v 0.02098281 -0.01921513 -0.03369642
v 0.00150912 -0.02850223 -0.03432528
v 0.02430410 -0.01950123 -0.03079163
v 0.00150912 -0.02842633 -0.03297885
v 0.00150912 -0.02846136 -0.03079163
v 0.02353025 -0.02045995 -0.03079163
v 0.02358393 -0.02027895 -0.03440123
v 0.02273851 -0.02104732 -0.03511614
v 0.02009266 -0.02334779 -0.03543483
v 0.01873060 -0.02413719 -0.03581352
v 0.02099400 -0.02182972 -0.03596065
v 0.01680045 -0.02498848 -0.03605307
v 0.00977319 -0.02864002 -0.03601376
v 0.00707814 -0.02931498 -0.03611680
v 0.00269896 -0.03054345 -0.03594525
v 0.00195643 -0.03100471 -0.03500726
v 0.00161200 -0.03114484 -0.03079163
v 0.02254393 -0.02155062 -0.03079163
v 0.02226883 -0.02172695 -0.03423977
v 0.02079271 -0.02316328 -0.03422383
v 0.01950892 -0.02422944 -0.03436989
v 0.01836381 -0.02493709 -0.03505188
v 0.01623013 -0.02621344 -0.03544810
v 0.01500226 -0.02631971 -0.03593728
v 0.01144390 -0.02829437 -0.03580556
v 0.01037035 -0.02895999 -0.03558514
v 0.00674042 -0.02980193 -0.03587514
v 0.00436072 -0.03029472 -0.03582149
v 0.00606722 -0.03044536 -0.03488244
v 0.00193406 -0.03110981 -0.03371872
v 0.00344821 -0.03089962 -0.03460731
v 0.00368528 -0.03095450 -0.03079163
v 0.02126462 -0.02279895 -0.03079163
v 0.02047064 -0.02351594 -0.03079163
v 0.01954694 -0.02427031 -0.03079163
v 0.01823185 -0.02527691 -0.03079163
v 0.01718514 -0.02592267 -0.03439592
v 0.01548759 -0.02694679 -0.03466468
v 0.01256889 -0.02839129 -0.03497486
v 0.01323091 -0.02757971 -0.03572748
v 0.01113973 -0.02908610 -0.03437521
v 0.00941311 -0.02968282 -0.03436671
v 0.00472081 -0.03077700 -0.03436989
v 0.00775582 -0.03014642 -0.03420152
v 0.00472081 -0.03083422 -0.03079163
v 0.01533327 -0.02713947 -0.03079163
v 0.01407409 -0.02777355 -0.03439327
v 0.01277465 -0.02841115 -0.03403315
v 0.01136786 -0.02904173 -0.03079163
v 0.00873096 -0.02993039 -0.03079163
v 0.00747401 -0.03029823 -0.03079163
v 0.00606722 -0.03059133 -0.03079163
v 0.01425972 -0.02768714 -0.03079163
v 0.01268743 -0.02846253 -0.03079163
f 1 2 10
f 1 10 3
f 1 3 4
f 1 4 5
f 1 5 6
f 1 6 7
f 1 7 8
f 1 8 9
f 1 9 2
f 2 9 11
f 2 11 10
f 3 12 4
f 3 10 13
f 3 13 14
f 3 14 26
f 3 26 41
f 3 41 54
f 3 54 61
f 3 61 60
f 3 60 59
f 3 59 58
f 3 58 63
f 3 63 62
f 3 62 55
f 3 55 45
f 3 45 44
f 3 44 43
f 3 43 42
f 3 42 27
f 3 27 15
f 3 15 12
f 4 12 15
f 4 15 16
f 4 16 17
f 4 17 5
f 5 17 6
f 6 17 18
f 6 18 19
f 6 19 20
f 6 20 7
f 7 20 19
f 7 19 21
f 7 21 22
f 7 22 23
f 7 23 8
f 8 24 25
f 8 25 26
f 8 26 14
f 8 14 9
f 8 23 24
f 9 14 13
f 9 13 11
f 10 11 13
f 15 27 16
f 16 27 28
f 16 28 17
f 17 28 29
f 17 29 18
f 18 30 31
f 18 31 19
f 18 29 30
f 19 31 32
f 19 32 33
f 19 33 21
f 21 33 22
f 22 34 35
f 22 35 36
f 22 36 23
f 22 33 34
f 23 36 24
f 24 37 38
f 24 38 25
f 24 36 37
f 25 39 26
f 25 38 40
f 25 40 39
f 26 39 41
f 27 42 28
f 28 42 29
f 29 42 43
f 29 43 30
f 30 44 45
f 30 45 46
f 30 46 31
f 30 43 44
f 31 46 32
f 32 46 47
f 32 47 48
f 32 48 49
f 32 49 33
f 33 49 34
f 34 49 35
f 35 49 48
f 35 48 50
f 35 50 51
f 35 51 38
f 35 38 36
f 36 38 37
f 38 52 40
f 38 51 53
f 38 53 52
f 39 40 52
f 39 52 41
f 41 52 54
f 45 55 46
f 46 55 47
f 47 55 56
f 47 56 48
f 48 56 57
f 48 57 50
f 50 58 51
f 50 57 58
f 51 58 59
f 51 59 60
f 51 60 53
f 52 53 60
f 52 60 61
f 52 61 54
f 55 62 56
f 56 62 63
f 56 63 57
f 57 63 58

