# https://github.com/mikedh/trimesh
v 0.02043560 0.02003231 -0.03069715
v 0.02057604 0.02358130 -0.03069715
v 0.02043560 0.02196016 -0.03616904
v 0.02043560 0.02006955 -0.03310311
v 0.02844723 0.00122925 -0.03069715
v 0.02152457 0.02270719 -0.03069715
v 0.02059910 0.02360978 -0.03436974
v 0.02069238 0.02308400 -0.03556293
v 0.02153400 0.02195139 -0.03585401
v 0.02291539 0.01954159 -0.03625555
v 0.02998898 0.00404653 -0.03605369
v 0.02891678 0.00122925 -0.03553626
v 0.02043560 0.02098309 -0.03579035
v 0.02043560 0.02019661 -0.03446387
v 0.02849230 0.00122925 -0.03411946
v 0.03114188 0.00122925 -0.03069715
v 0.02155286 0.02272472 -0.03403241
v 0.02293950 0.02125912 -0.03069715
v 0.02229911 0.02196235 -0.03470653
v 0.02361237 0.02024262 -0.03543289
v 0.02265441 0.02098528 -0.03576750
v 0.02356730 0.01969494 -0.03595848
v 0.02428630 0.01827096 -0.03609831
v 0.02817368 0.01124747 -0.03605641
v 0.02961376 0.00606858 -0.03609341
v 0.03042499 0.00387785 -0.03582463
v 0.03052246 0.00182294 -0.03575934
v 0.03102450 0.00314395 -0.03440892
v 0.03098886 0.00352952 -0.03069715
v 0.02396034 0.02007832 -0.03069715
v 0.02328222 0.02092394 -0.03436974
v 0.02426114 0.01963360 -0.03482732
v 0.02494031 0.01871349 -0.03501938
v 0.02632065 0.01569247 -0.03583606
v 0.02815062 0.01238884 -0.03575499
v 0.02970180 0.00749037 -0.03578655
v 0.03037258 0.00545737 -0.03556673
v 0.03062203 0.00438391 -0.03538066
v 0.03084947 0.00438391 -0.03470653
v 0.03089873 0.00438391 -0.03403295
v 0.03059897 0.00607515 -0.03069715
v 0.02493507 0.01887560 -0.03069715
v 0.02563100 0.01788539 -0.03403241
v 0.02564253 0.01773861 -0.03493614
v 0.02768632 0.01369890 -0.03554769
v 0.02906247 0.01131538 -0.03452045
v 0.02940624 0.00941602 -0.03545520
v 0.03037887 0.00666665 -0.03487030
v 0.03071950 0.00539383 -0.03436974
v 0.03032647 0.00740712 -0.03069715
v 0.02564043 0.01788320 -0.03069715
v 0.02636572 0.01679003 -0.03069715
v 0.02637515 0.01675716 -0.03419128
v 0.02702287 0.01562456 -0.03441653
v 0.02842732 0.01287738 -0.03447747
v 0.02764754 0.01452262 -0.03436974
v 0.02910334 0.01133510 -0.03069715
v 0.02947856 0.01029012 -0.03436974
v 0.03001099 0.00859449 -0.03436974
v 0.02987369 0.00912246 -0.03069715
v 0.02694741 0.01580201 -0.03069715
v 0.02847449 0.01284014 -0.03069715
v 0.02787707 0.01408666 -0.03069715
v 0.02955088 0.01012582 -0.03069715
f 1 2 3
f 1 3 13
f 1 13 14
f 1 14 4
f 1 4 5
f 1 5 16
f 1 16 29
f 1 29 41
f 1 41 50
f 1 50 60
f 1 60 64
f 1 64 57
f 1 57 62
f 1 62 63
f 1 63 61
f 1 61 52
f 1 52 51
f 1 51 42
f 1 42 30
f 1 30 18
f 1 18 6
f 1 6 2
f 2 6 7
f 2 7 3
f 3 7 8
f 3 8 9
f 3 9 10
f 3 10 11
f 3 11 12
f 3 12 13
f 4 14 15
f 4 15 5
f 5 15 12
f 5 12 16
f 6 17 7
f 6 18 17
f 7 17 19
f 7 19 8
f 8 19 20
f 8 20 21
f 8 21 9
f 9 21 22
f 9 22 10
f 10 22 23
f 10 23 24
f 10 24 25
f 10 25 11
f 11 25 26
f 11 26 27
f 11 27 12
f 12 27 16
f 12 15 13
f 13 15 14
f 16 27 28
f 16 28 29
f 17 18 19
f 18 30 31
f 18 31 19
f 19 31 20
f 20 31 32
f 20 32 33
f 20 33 34
f 20 34 22
f 20 22 21
f 22 34 23
f 23 34 24
f 24 35 36
f 24 36 25
f 24 34 35
f 25 36 26
f 26 36 37
f 26 37 38
f 26 38 27
f 27 38 28
f 28 38 39
f 28 39 40
f 28 40 29
f 29 40 41
f 30 42 31
f 31 42 43
f 31 43 32
f 32 43 33
f 33 43 44
f 33 44 34
f 34 44 45
f 34 45 35
f 35 46 47
f 35 47 36
f 35 45 46
f 36 47 37
f 37 39 38
f 37 47 48
f 37 48 39
f 39 48 49
f 39 49 40
f 40 49 41
f 41 49 50
f 42 51 43
f 43 51 52
f 43 52 53
f 43 53 44
f 44 53 54
f 44 54 45
f 45 55 46
f 45 54 56
f 45 56 55
f 46 55 57
f 46 57 58
f 46 58 47
f 47 58 59
f 47 59 48
f 48 59 49
f 49 59 50
f 50 59 60
f 52 61 53
f 53 61 54
f 54 61 56
f 55 62 57
f 55 56 62
f 56 63 62
f 56 61 63
f 57 64 58
f 58 64 60
f 58 60 59

