# https://github.com/mikedh/trimesh
v -0.03103709 0.00496532 -0.03077487
v -0.03081380 0.00606824 -0.03436975
v -0.03099687 0.00479860 -0.03450121
v -0.03024518 0.00451646 -0.03603875
v -0.02829661 0.00451646 -0.03077487
v -0.03082213 0.00635038 -0.03077487
v -0.03059468 0.00707925 -0.03403234
v -0.03009401 0.00910127 -0.03470662
v -0.03032978 0.00802400 -0.03496954
v -0.03041299 0.00679497 -0.03545978
v -0.02998861 0.00573266 -0.03606175
v -0.02007101 0.02256931 -0.03637014
v -0.02907049 0.00465325 -0.03601848
v -0.02830216 0.00454852 -0.03482931
v -0.01687008 0.02323406 -0.03077487
v -0.03057665 0.00741697 -0.03077487
v -0.03022854 0.00873150 -0.03077487
v -0.02990678 0.00977457 -0.03077487
v -0.02954481 0.01079199 -0.03077487
v -0.02971817 0.01014649 -0.03481891
v -0.02977642 0.00885974 -0.03558904
v -0.02888881 0.01093734 -0.03580869
v -0.02717462 0.01448977 -0.03584211
v -0.02325252 0.01988041 -0.03605901
v -0.02156745 0.02156472 -0.03618445
v -0.02077277 0.02312505 -0.03573201
v -0.01833324 0.02501669 -0.03578897
v -0.01701848 0.02586739 -0.03566135
v -0.01694913 0.02432202 -0.03594070
v -0.01687008 0.02339864 -0.03452531
v -0.01718074 0.02635259 -0.03077487
v -0.02906078 0.01201034 -0.03077487
v -0.02866136 0.01293158 -0.03403234
v -0.02840340 0.01328639 -0.03499090
v -0.02864749 0.01206591 -0.03543294
v -0.02667673 0.01579148 -0.03566244
v -0.02529401 0.01776434 -0.03575282
v -0.02405552 0.01962819 -0.03575446
v -0.02117358 0.02325757 -0.03429252
v -0.01992677 0.02391377 -0.03561808
v -0.02168395 0.02240046 -0.03548278
v -0.01875208 0.02504661 -0.03523794
v -0.01751914 0.02610465 -0.03420105
v -0.01803090 0.02578189 -0.03077487
v -0.02848661 0.01336761 -0.03077487
v -0.02758237 0.01503910 -0.03442343
v -0.02697769 0.01611851 -0.03440974
v -0.02620797 0.01690295 -0.03544444
v -0.02595416 0.01769167 -0.03474934
v -0.02305697 0.02138303 -0.03470662
v -0.02180877 0.02262703 -0.03077487
v -0.02103212 0.02335162 -0.03077487
v -0.01949129 0.02467042 -0.03077487
v -0.01994480 0.02430919 -0.03436975
v -0.01887551 0.02514921 -0.03403234
v -0.02778624 0.01471421 -0.03077487
v -0.02707338 0.01601591 -0.03302338
v -0.02655053 0.01686661 -0.03077487
v -0.02564073 0.01816832 -0.03125689
v -0.02490568 0.01916864 -0.03369602
v -0.02400005 0.02030790 -0.03436975
v -0.02393209 0.02038698 -0.03077487
v -0.02503328 0.01899764 -0.03268597
f 1 2 3
f 1 3 4
f 1 4 5
f 1 5 15
f 1 15 31
f 1 31 44
f 1 44 53
f 1 53 52
f 1 52 51
f 1 51 62
f 1 62 58
f 1 58 56
f 1 56 45
f 1 45 32
f 1 32 19
f 1 19 18
f 1 18 17
f 1 17 16
f 1 16 6
f 1 6 2
f 2 6 7
f 2 7 8
f 2 8 9
f 2 9 3
f 3 9 10
f 3 10 4
f 4 11 12
f 4 12 13
f 4 13 14
f 4 14 5
f 4 10 11
f 5 14 15
f 6 16 7
f 7 16 8
f 8 16 17
f 8 17 18
f 8 18 19
f 8 19 20
f 8 20 9
f 9 20 21
f 9 21 10
f 10 21 11
f 11 21 22
f 11 22 23
f 11 23 12
f 12 24 25
f 12 25 26
f 12 26 27
f 12 27 28
f 12 28 29
f 12 29 13
f 12 23 24
f 13 29 14
f 14 29 30
f 14 30 15
f 15 30 28
f 15 28 31
f 19 32 33
f 19 33 20
f 20 33 34
f 20 34 35
f 20 35 22
f 20 22 21
f 22 35 23
f 23 35 34
f 23 34 36
f 23 36 37
f 23 37 24
f 24 37 38
f 24 38 25
f 25 38 26
f 26 39 40
f 26 40 27
f 26 38 41
f 26 41 39
f 27 40 42
f 27 42 28
f 28 30 29
f 28 42 43
f 28 43 31
f 31 43 44
f 32 45 33
f 33 45 46
f 33 46 34
f 34 46 47
f 34 47 48
f 34 48 36
f 36 48 37
f 37 48 38
f 38 48 49
f 38 49 50
f 38 50 41
f 39 41 50
f 39 50 51
f 39 51 52
f 39 52 53
f 39 53 54
f 39 54 40
f 40 54 42
f 42 55 43
f 42 54 55
f 43 55 44
f 44 55 53
f 45 56 46
f 46 56 57
f 46 57 47
f 47 57 49
f 47 49 48
f 49 57 58
f 49 58 59
f 49 59 60
f 49 60 61
f 49 61 50
f 50 61 62
f 50 62 51
f 53 55 54
f 56 58 57
f 58 62 59
f 59 62 63
f 59 63 60
f 60 63 62
f 60 62 61

