# https://github.com/mikedh/trimesh
v 0.03198023 0.00122976 -0.02756610
v 0.03118711 0.00639530 -0.02756253
v 0.03195004 0.00284137 -0.02756610
v 0.03439532 0.00412428 -0.02756610
v 0.03459310 0.00123684 -0.02741243
v 0.03465097 0.00122976 -0.02672625
v 0.03144930 0.00122976 -0.02189803
v 0.03099688 0.00268814 -0.02158710
v 0.03075935 0.00370709 -0.02189803
v 0.03084842 0.00370709 -0.02257348
v 0.03073721 0.00438016 -0.02257348
v 0.03194853 0.00639580 -0.02756610
v 0.03072714 0.00639580 -0.02324893
v 0.03091586 0.00639580 -0.02392795
v 0.03406771 0.00639580 -0.02742672
v 0.03417943 0.00572729 -0.02742672
v 0.03430021 0.00505372 -0.02729092
v 0.03438476 0.00484033 -0.02649038
v 0.03451006 0.00370709 -0.02661904
v 0.03448238 0.00330002 -0.02746246
v 0.03469627 0.00122976 -0.02594359
v 0.03087862 0.00122976 -0.00859985
v 0.03025862 0.00255869 -0.00640910
v 0.03066927 0.00438016 -0.02189803
v 0.03070299 0.00639580 -0.02257348
v 0.03416886 0.00639580 -0.02661546
v 0.03426448 0.00572729 -0.02661904
v 0.03447383 0.00438016 -0.02594359
v 0.03453925 0.00370709 -0.02594359
v 0.03473250 0.00168538 -0.02459626
v 0.03472696 0.00122976 -0.02527171
v 0.03092441 0.00122976 -0.00757774
v 0.03033209 0.00235591 -0.00573007
v 0.03017759 0.00333238 -0.00573007
v 0.03076388 0.00639580 -0.02055784
v 0.03025006 0.00355387 -0.00506177
v 0.03419604 0.00639580 -0.02594359
v 0.03432437 0.00550277 -0.02594359
v 0.03449446 0.00438016 -0.02527171
v 0.03472042 0.00235945 -0.02324893
v 0.03476370 0.00145782 -0.02392438
v 0.03475112 0.00122976 -0.02459626
v 0.03277084 0.00122976 0.00894402
v 0.03035172 0.00256273 -0.00501888
v 0.03132148 0.00639580 -0.00506177
v 0.03135369 0.00639580 -0.00438989
v 0.03218858 0.00639580 0.00894402
v 0.03436010 0.00565903 -0.02324893
v 0.03435104 0.00559329 -0.02414953
v 0.03424838 0.00639580 -0.02323821
v 0.03434299 0.00586686 -0.02257348
v 0.03441042 0.00500518 -0.02527171
v 0.03440891 0.00511188 -0.02459983
v 0.03519952 0.00370709 0.00894402
v 0.03528557 0.00303352 0.00894402
v 0.03478182 0.00145782 -0.02313457
v 0.03485278 0.00122976 -0.01920694
v 0.03531275 0.00122976 0.00894402
v 0.03476421 0.00639580 0.00894402
v 0.03503193 0.00491264 0.00894402
v 0.03427404 0.00639580 -0.02189088
v 0.03531828 0.00235945 0.00868313
v 0.03488146 0.00580416 0.00894402
f 1 2 3
f 1 3 12
f 1 12 4
f 1 4 5
f 1 5 6
f 1 6 21
f 1 21 31
f 1 31 42
f 1 42 57
f 1 57 58
f 1 58 43
f 1 43 32
f 1 32 22
f 1 22 7
f 1 7 8
f 1 8 9
f 1 9 10
f 1 10 11
f 1 11 2
f 2 12 3
f 2 11 13
f 2 13 14
f 2 14 12
f 4 12 15
f 4 15 16
f 4 16 17
f 4 17 18
f 4 18 19
f 4 19 20
f 4 20 5
f 5 20 6
f 6 20 19
f 6 19 21
f 7 22 23
f 7 23 8
f 8 23 9
f 9 24 11
f 9 11 10
f 9 23 24
f 11 24 13
f 12 14 13
f 12 13 25
f 12 25 35
f 12 35 45
f 12 45 46
f 12 46 47
f 12 47 59
f 12 59 61
f 12 61 50
f 12 50 37
f 12 37 26
f 12 26 15
f 13 24 25
f 15 26 16
f 16 26 17
f 17 26 27
f 17 27 18
f 18 27 28
f 18 28 19
f 19 28 29
f 19 29 30
f 19 30 21
f 21 30 31
f 22 32 33
f 22 33 23
f 23 33 34
f 23 34 24
f 24 34 25
f 25 34 36
f 25 36 35
f 26 37 38
f 26 38 27
f 27 38 28
f 28 38 39
f 28 39 29
f 29 39 40
f 29 40 30
f 30 40 41
f 30 41 42
f 30 42 31
f 32 43 33
f 33 43 44
f 33 44 34
f 34 44 36
f 35 36 45
f 36 46 45
f 36 44 47
f 36 47 46
f 37 48 49
f 37 49 38
f 37 50 51
f 37 51 48
f 38 49 52
f 38 52 39
f 39 52 53
f 39 53 54
f 39 54 55
f 39 55 40
f 40 55 56
f 40 56 41
f 41 56 42
f 42 56 57
f 43 58 55
f 43 55 54
f 43 54 60
f 43 60 63
f 43 63 59
f 43 59 47
f 43 47 44
f 48 53 52
f 48 52 49
f 48 51 60
f 48 60 54
f 48 54 53
f 50 61 51
f 51 61 60
f 55 58 62
f 55 62 56
f 56 62 57
f 57 62 58
f 59 63 61
f 60 61 63

