# https://github.com/mikedh/trimesh
v 0.03118385 0.00639580 -0.02756610
v 0.02307848 0.02242083 -0.02756610
v 0.03392611 0.00706404 -0.02746246
v 0.03410137 0.00682404 -0.02615087
v 0.03420446 0.00674090 -0.02206600
v 0.03218729 0.00639580 0.00894402
v 0.03071306 0.00639580 -0.02290942
v 0.02681960 0.02237063 -0.02524669
v 0.02726404 0.02168828 -0.02722659
v 0.03112887 0.01546086 -0.02732308
v 0.03259164 0.01199735 -0.02739098
v 0.02299601 0.02242083 -0.01146605
v 0.02404297 0.02242083 0.00894402
v 0.03371420 0.00812756 -0.02735167
v 0.03359049 0.00898246 -0.02627953
v 0.03382875 0.00824678 -0.02494292
v 0.03411855 0.00707815 -0.02324893
v 0.03469816 0.00673776 0.00894402
v 0.03133620 0.00639580 -0.00471868
v 0.03076232 0.00639580 -0.02055784
v 0.02765808 0.02127260 -0.02638317
v 0.02767756 0.02207887 0.00894402
v 0.02695705 0.02223730 -0.02418527
v 0.02843013 0.02016201 -0.02696927
v 0.02908076 0.01919104 -0.02695498
v 0.02975201 0.01812595 -0.02699786
v 0.03062142 0.01659184 -0.02679416
v 0.03133391 0.01516439 -0.02661904
v 0.03179210 0.01407420 -0.02696927
v 0.03223883 0.01295264 -0.02719085
v 0.03276575 0.01179813 -0.02627953
v 0.03305670 0.01077853 -0.02697285
v 0.03339576 0.00947030 -0.02722301
v 0.02303496 0.02241769 -0.01044037
v 0.03329038 0.01018873 -0.02562909
v 0.03355956 0.00939344 -0.02409235
v 0.03381386 0.00842560 -0.02392438
v 0.03398339 0.00775109 -0.02257348
v 0.03444158 0.00783894 0.00728934
v 0.03404066 0.00947187 0.00894402
v 0.03442783 0.00799266 0.00881179
v 0.02831559 0.02123966 0.00894402
v 0.02894102 0.02036593 0.00894402
v 0.02895934 0.01951574 -0.02324893
v 0.02905900 0.01932751 -0.02459626
v 0.02949657 0.01862320 -0.02594359
v 0.03034422 0.01721615 -0.02560765
v 0.03084708 0.01629850 -0.02560765
v 0.03144273 0.01503890 -0.02560765
v 0.03205556 0.01367577 -0.02560765
v 0.03245189 0.01270166 -0.02566840
v 0.03331672 0.01179813 0.00894402
v 0.03364776 0.01081774 0.00881179
v 0.03322394 0.01058716 -0.02290942
v 0.02968099 0.01925221 0.00894402
v 0.03025945 0.01831418 0.00894402
v 0.03035797 0.01724124 -0.02426032
v 0.03134307 0.01636125 0.00887612
v 0.03180584 0.01440204 -0.02349909
v 0.03215178 0.01353930 -0.02442829
v 0.03255155 0.01314401 -0.00842473
v 0.03287572 0.01295734 0.00894402
v 0.03239233 0.01415734 0.00821496
v 0.03237056 0.01353459 -0.01044037
f 1 2 3
f 1 3 4
f 1 4 5
f 1 5 6
f 1 6 19
f 1 19 20
f 1 20 7
f 1 7 2
f 2 8 9
f 2 9 10
f 2 10 11
f 2 11 3
f 2 7 12
f 2 12 13
f 2 13 8
f 3 11 14
f 3 14 4
f 4 15 16
f 4 16 17
f 4 17 5
f 4 14 15
f 5 17 18
f 5 18 6
f 6 18 40
f 6 40 52
f 6 52 62
f 6 62 56
f 6 56 55
f 6 55 43
f 6 43 42
f 6 42 22
f 6 22 13
f 6 13 19
f 7 20 12
f 8 21 9
f 8 13 22
f 8 22 23
f 8 23 21
f 9 21 24
f 9 24 25
f 9 25 26
f 9 26 10
f 10 26 27
f 10 27 28
f 10 28 29
f 10 29 30
f 10 30 11
f 11 30 31
f 11 31 32
f 11 32 33
f 11 33 14
f 12 20 19
f 12 19 34
f 12 34 13
f 13 34 19
f 14 33 15
f 15 35 36
f 15 36 16
f 15 33 32
f 15 32 35
f 16 36 37
f 16 37 17
f 17 37 38
f 17 38 39
f 17 39 18
f 18 39 41
f 18 41 40
f 21 23 22
f 21 22 42
f 21 42 43
f 21 43 44
f 21 44 24
f 24 44 45
f 24 45 46
f 24 46 25
f 25 46 26
f 26 46 47
f 26 47 27
f 27 47 48
f 27 48 28
f 28 48 49
f 28 49 50
f 28 50 29
f 29 50 30
f 30 50 51
f 30 51 31
f 31 35 32
f 31 51 52
f 31 52 53
f 31 53 54
f 31 54 35
f 35 54 36
f 36 54 53
f 36 53 40
f 36 40 41
f 36 41 37
f 37 41 39
f 37 39 38
f 40 53 52
f 43 55 44
f 44 55 46
f 44 46 45
f 46 55 56
f 46 56 57
f 46 57 47
f 47 57 48
f 48 57 58
f 48 58 59
f 48 59 49
f 49 59 50
f 50 59 60
f 50 60 51
f 51 60 61
f 51 61 52
f 52 61 62
f 56 62 58
f 56 58 57
f 58 63 59
f 58 62 63
f 59 63 64
f 59 64 60
f 60 64 61
f 61 64 62
f 62 64 63

