# https://github.com/mikedh/trimesh
v -0.01906565 0.00451645 -0.02720585
v -0.03002499 0.00451645 -0.02720585
v -0.01928021 0.00506543 -0.02720585
v -0.02159844 0.01255131 -0.01775265
v -0.02156304 0.01255131 -0.01717861
v -0.02150189 0.01255131 -0.01583300
v -0.02149331 0.01255131 -0.01515711
v -0.02150833 0.01255131 -0.01385162
v -0.02152120 0.01255131 -0.01316339
v -0.02154481 0.01255131 -0.01252453
v -0.02160810 0.01255131 -0.01115424
v -0.02164564 0.01255131 -0.01049686
v -0.02169821 0.01255131 -0.00983023
v -0.02177438 0.01255131 -0.00910188
v -0.02185912 0.01255131 -0.00842599
v -0.02196533 0.01255131 -0.00775318
v -0.02208118 0.01255131 -0.00712050
v -0.02223352 0.01255131 -0.00636128
v -0.02273664 0.00451645 -0.00910188
v -0.03002499 0.01255131 -0.02720585
v -0.03000675 0.00451645 0.00033589
v -0.03002499 0.01255131 0.00432025
v -0.01999681 0.00636079 -0.02720585
v -0.02207260 0.01255131 -0.02123086
v -0.02193422 0.01255131 -0.02054880
v -0.02184732 0.01255131 -0.01987599
v -0.02168641 0.01255131 -0.01852421
v -0.02238263 0.01255131 -0.00572551
v -0.02290078 0.00451645 -0.00841056
v -0.02369676 0.01255131 -0.02720585
v -0.02919360 0.00451645 0.00001801
v -0.02864756 0.00451645 -0.00027827
v -0.02816374 0.00451645 -0.00058073
v -0.02782797 0.00451645 -0.00080911
v -0.02734737 0.00451645 -0.00115168
v -0.02688930 0.01255131 0.00207654
v -0.02196962 0.00978913 -0.02720585
v -0.02220777 0.01255131 -0.02174935
v -0.02254569 0.01255131 -0.00505888
v -0.02307671 0.00451645 -0.00779330
v -0.02261113 0.01255131 -0.02324927
v -0.02699336 0.00451645 -0.00142945
v -0.02652778 0.01255131 0.00177100
v -0.02639154 0.00451645 -0.00192325
v -0.02242876 0.01255131 -0.02257338
v -0.02275059 0.01255131 -0.00435213
v -0.02330306 0.00451645 -0.00708038
v -0.02617484 0.01255131 0.00145003
v -0.02594527 0.00451645 -0.00236767
v -0.02583478 0.01255131 0.00111980
v -0.02293832 0.01255131 -0.00380278
v -0.02356803 0.00451645 -0.00635202
v -0.02552475 0.00451645 -0.00286147
v -0.02550651 0.01255131 0.00078340
v -0.02322260 0.01255131 -0.00303739
v -0.02355730 0.01255131 -0.00222261
v -0.02384373 0.00451645 -0.00573169
v -0.02478669 0.00451645 -0.00395092
v -0.02484998 0.01255131 -0.00008384
v -0.02520400 0.01255131 0.00040070
v -0.02379760 0.01255131 -0.00177819
v -0.02438333 0.00451645 -0.00461446
v -0.02411836 0.01255131 -0.00125044
v -0.02436939 0.01255131 -0.00084614
f 1 2 20
f 1 20 30
f 1 30 37
f 1 37 23
f 1 23 3
f 1 3 4
f 1 4 5
f 1 5 6
f 1 6 7
f 1 7 8
f 1 8 9
f 1 9 10
f 1 10 11
f 1 11 12
f 1 12 13
f 1 13 14
f 1 14 15
f 1 15 16
f 1 16 17
f 1 17 18
f 1 18 19
f 1 19 29
f 1 29 40
f 1 40 47
f 1 47 52
f 1 52 57
f 1 57 62
f 1 62 58
f 1 58 53
f 1 53 49
f 1 49 44
f 1 44 42
f 1 42 35
f 1 35 34
f 1 34 33
f 1 33 32
f 1 32 31
f 1 31 21
f 1 21 2
f 2 21 22
f 2 22 20
f 3 23 24
f 3 24 25
f 3 25 26
f 3 26 27
f 3 27 4
f 4 27 26
f 4 26 25
f 4 25 24
f 4 24 38
f 4 38 45
f 4 45 41
f 4 41 30
f 4 30 20
f 4 20 22
f 4 22 36
f 4 36 43
f 4 43 48
f 4 48 50
f 4 50 54
f 4 54 60
f 4 60 59
f 4 59 64
f 4 64 63
f 4 63 61
f 4 61 56
f 4 56 55
f 4 55 51
f 4 51 46
f 4 46 39
f 4 39 28
f 4 28 18
f 4 18 17
f 4 17 16
f 4 16 15
f 4 15 14
f 4 14 13
f 4 13 12
f 4 12 11
f 4 11 10
f 4 10 9
f 4 9 8
f 4 8 7
f 4 7 6
f 4 6 5
f 18 28 19
f 19 28 29
f 21 31 22
f 22 31 32
f 22 32 33
f 22 33 34
f 22 34 35
f 22 35 36
f 23 37 24
f 24 37 38
f 28 39 29
f 29 39 40
f 30 41 37
f 35 42 36
f 36 42 44
f 36 44 43
f 37 41 45
f 37 45 38
f 39 46 40
f 40 46 47
f 43 44 48
f 44 49 50
f 44 50 48
f 46 51 47
f 47 51 52
f 49 53 54
f 49 54 50
f 51 55 52
f 52 55 56
f 52 56 57
f 53 58 59
f 53 59 60
f 53 60 54
f 56 61 62
f 56 62 57
f 58 62 63
f 58 63 64
f 58 64 59
f 61 63 62

