# https://github.com/mikedh/trimesh
v 0.02097567 -0.01921396 -0.03336038
v 0.02102773 -0.01921396 -0.03432593
v 0.02097667 -0.01921396 -0.03079163
v 0.02844854 0.00122925 -0.03079163
v 0.02847457 0.00122925 -0.03383770
v 0.02134711 -0.01921396 -0.03534077
v 0.02891709 0.00122925 -0.03553637
v 0.02219011 -0.01921195 -0.03594417
v 0.02475916 -0.01890979 -0.03079163
v 0.03116376 0.00072698 -0.03079163
v 0.03106765 0.00111919 -0.03507720
v 0.03020562 0.00114520 -0.03602666
v 0.02392517 -0.01785721 -0.03608633
v 0.02380903 -0.01880773 -0.03585389
v 0.02485527 -0.01866566 -0.03457393
v 0.02556111 -0.01781719 -0.03079163
v 0.03120281 0.00033476 -0.03436951
v 0.03118078 -0.00064378 -0.03079163
v 0.03120181 -0.00067579 -0.03436951
v 0.03098555 -0.00067579 -0.03537968
v 0.03079332 0.00033476 -0.03565933
v 0.03042088 -0.00337127 -0.03581913
v 0.02967500 -0.00682516 -0.03591979
v 0.02877092 -0.00876223 -0.03609204
v 0.02550204 -0.01668657 -0.03582276
v 0.02796697 -0.01111952 -0.03604846
v 0.02594657 -0.01516173 -0.03602407
v 0.02635105 -0.01628035 -0.03516903
v 0.02610276 -0.01690269 -0.03445927
v 0.02617885 -0.01687667 -0.03079163
v 0.03113273 -0.00196050 -0.03079163
v 0.03116276 -0.00202453 -0.03369606
v 0.03100958 -0.00316716 -0.03443696
v 0.03103461 -0.00202653 -0.03500560
v 0.03018360 -0.00675312 -0.03521313
v 0.02971905 -0.00774567 -0.03566504
v 0.02884000 -0.01015499 -0.03579630
v 0.02687567 -0.01434729 -0.03583470
v 0.02762556 -0.01292451 -0.03583418
v 0.02667744 -0.01538786 -0.03538227
v 0.02833941 -0.01200600 -0.03558981
v 0.02774070 -0.01390705 -0.03499315
v 0.02710094 -0.01535984 -0.03403330
v 0.02704788 -0.01545389 -0.03079163
v 0.03091847 -0.00403363 -0.03079163
v 0.03079432 -0.00472001 -0.03403279
v 0.03080534 -0.00438383 -0.03470675
v 0.03055504 -0.00573056 -0.03470675
v 0.02982317 -0.00853810 -0.03494645
v 0.02916339 -0.01072730 -0.03464553
v 0.02839748 -0.01276042 -0.03439130
v 0.02775171 -0.01411916 -0.03403330
v 0.02781178 -0.01400510 -0.03079163
v 0.03054403 -0.00634090 -0.03079163
v 0.03056004 -0.00606675 -0.03403279
v 0.03014055 -0.00774367 -0.03427560
v 0.02962393 -0.00952865 -0.03434357
v 0.02880396 -0.01179389 -0.03437003
v 0.02847557 -0.01264636 -0.03079163
v 0.03031676 -0.00736146 -0.03079163
v 0.03006446 -0.00829997 -0.03079163
v 0.02973106 -0.00941458 -0.03079163
v 0.02938365 -0.01038712 -0.03079163
v 0.02895614 -0.01148372 -0.03079163
f 1 2 6
f 1 6 3
f 1 3 4
f 1 4 5
f 1 5 2
f 2 5 7
f 2 7 6
f 3 6 8
f 3 8 9
f 3 9 16
f 3 16 30
f 3 30 44
f 3 44 53
f 3 53 59
f 3 59 64
f 3 64 63
f 3 63 62
f 3 62 61
f 3 61 60
f 3 60 54
f 3 54 45
f 3 45 31
f 3 31 18
f 3 18 10
f 3 10 4
f 4 10 11
f 4 11 7
f 4 7 5
f 6 7 8
f 7 11 12
f 7 12 8
f 8 13 14
f 8 14 15
f 8 15 9
f 8 12 13
f 9 15 16
f 10 17 11
f 10 18 17
f 11 17 19
f 11 19 20
f 11 20 21
f 11 21 12
f 12 21 22
f 12 22 23
f 12 23 24
f 12 24 13
f 13 25 14
f 13 24 26
f 13 26 27
f 13 27 25
f 14 25 28
f 14 28 15
f 15 28 29
f 15 29 16
f 16 29 30
f 17 18 19
f 18 31 32
f 18 32 19
f 19 32 33
f 19 33 34
f 19 34 20
f 20 34 22
f 20 22 21
f 22 34 35
f 22 35 36
f 22 36 23
f 23 36 37
f 23 37 24
f 24 37 26
f 25 27 38
f 25 38 28
f 26 37 39
f 26 39 27
f 27 39 38
f 28 38 40
f 28 40 41
f 28 41 42
f 28 42 43
f 28 43 29
f 29 43 30
f 30 43 44
f 31 45 32
f 32 45 33
f 33 45 46
f 33 46 47
f 33 47 34
f 34 47 35
f 35 47 48
f 35 48 49
f 35 49 36
f 36 49 41
f 36 41 37
f 37 41 39
f 38 39 41
f 38 41 40
f 41 49 50
f 41 50 42
f 42 50 51
f 42 51 52
f 42 52 43
f 43 52 53
f 43 53 44
f 45 54 46
f 46 54 55
f 46 55 47
f 47 55 48
f 48 55 56
f 48 56 49
f 49 56 57
f 49 57 50
f 50 58 51
f 50 57 58
f 51 58 59
f 51 59 52
f 52 59 53
f 54 60 55
f 55 60 56
f 56 60 61
f 56 61 57
f 57 61 62
f 57 62 63
f 57 63 58
f 58 63 64
f 58 64 59

