# https://github.com/mikedh/trimesh
v 0.03064838 -0.01168995 0.00893335
v 0.03330559 -0.01168995 0.00893335
v 0.03067235 -0.01168995 0.01111773
v 0.02996536 -0.01022680 -0.02279771
v 0.03013133 -0.01022680 -0.02749414
v 0.03382265 -0.01168995 0.03123131
v 0.03328522 -0.01005608 -0.02517754
v 0.03075983 -0.01168995 0.01650396
v 0.02972750 -0.00572734 -0.02122266
v 0.03099469 -0.01168995 0.02969649
v 0.03004145 -0.00471818 -0.02749414
v 0.03204858 0.00122925 -0.02749414
v 0.03463089 0.00010122 -0.02744240
v 0.03461352 -0.00129996 -0.02741366
v 0.03369623 -0.00801627 -0.02729295
v 0.03331697 -0.00953380 -0.02718947
v 0.02972810 -0.00471818 -0.02156181
v 0.03441760 -0.00996629 0.03123131
v 0.03106898 -0.01168995 0.03123131
v 0.03361235 -0.00876112 -0.02627548
v 0.03092579 0.00122799 -0.00756451
v 0.03087906 0.00122799 -0.00858772
v 0.02983475 -0.00337138 -0.02156181
v 0.03013133 -0.00188294 -0.02157331
v 0.03463868 0.00111923 -0.02700553
v 0.03144405 0.00122925 -0.02150433
v 0.03485138 0.00122925 -0.01930845
v 0.03472616 -0.00000247 -0.02627548
v 0.03470758 -0.00134928 -0.02627548
v 0.03422168 -0.00539348 -0.02731594
v 0.03468062 -0.00269735 -0.02560292
v 0.03447631 -0.00357625 -0.02720672
v 0.03394068 -0.00707414 -0.02694804
v 0.03474892 -0.00870928 0.03123131
v 0.03318875 -0.00006065 0.03123131
v 0.03393349 -0.00741179 -0.02593633
v 0.03388975 -0.00774944 -0.02493036
v 0.03277175 0.00122799 0.00893335
v 0.03174961 0.00122925 -0.01649174
v 0.03479086 0.00117361 -0.02301615
v 0.03471957 0.00111923 -0.02560292
v 0.03487894 0.00122925 -0.01752070
v 0.03531212 0.00122799 0.00893335
v 0.03584775 -0.00019975 0.03123131
v 0.03476450 0.00111923 -0.02425780
v 0.03487414 -0.00017067 -0.01987179
v 0.03474773 -0.00168566 -0.02526377
v 0.03447811 -0.00415796 -0.02613177
v 0.03418333 -0.00606372 -0.02644219
v 0.03505149 -0.00218139 -0.01021451
v 0.03493885 -0.00303500 -0.01111126
v 0.03516533 -0.00679466 0.03123131
v 0.03436727 -0.00672258 -0.01178382
v 0.03409945 -0.00673776 -0.02493036
v 0.03481183 0.00122925 -0.01649749
v 0.03581300 -0.00132778 0.03123131
v 0.03475372 -0.00505710 -0.00673099
v 0.03430556 -0.00640137 -0.01785411
v 0.03573332 -0.00266573 0.03123131
v 0.03559911 -0.00404668 0.03123131
v 0.03547389 -0.00472071 0.02796048
v 0.03491129 -0.00505710 0.00101208
v 0.03544932 -0.00505710 0.03123131
v 0.03463569 -0.00572734 -0.00707015
f 1 2 6
f 1 6 19
f 1 19 10
f 1 10 8
f 1 8 3
f 1 3 4
f 1 4 5
f 1 5 2
f 2 5 7
f 2 7 6
f 3 8 4
f 4 9 5
f 4 8 10
f 4 10 9
f 5 11 12
f 5 12 13
f 5 13 14
f 5 14 15
f 5 15 16
f 5 16 7
f 5 9 17
f 5 17 11
f 6 18 34
f 6 34 52
f 6 52 63
f 6 63 60
f 6 60 59
f 6 59 56
f 6 56 44
f 6 44 35
f 6 35 19
f 6 7 18
f 7 16 20
f 7 20 18
f 9 10 17
f 10 19 21
f 10 21 22
f 10 22 23
f 10 23 17
f 11 17 23
f 11 23 24
f 11 24 12
f 12 25 13
f 12 24 26
f 12 26 39
f 12 39 55
f 12 55 42
f 12 42 27
f 12 27 25
f 13 25 28
f 13 28 29
f 13 29 14
f 14 30 15
f 14 29 31
f 14 31 32
f 14 32 30
f 15 30 33
f 15 33 20
f 15 20 16
f 18 20 34
f 19 35 21
f 20 33 36
f 20 36 37
f 20 37 34
f 21 38 39
f 21 39 26
f 21 26 22
f 21 35 38
f 22 26 24
f 22 24 23
f 25 27 40
f 25 40 41
f 25 41 28
f 27 42 43
f 27 43 44
f 27 44 40
f 28 41 45
f 28 45 46
f 28 46 47
f 28 47 29
f 29 47 31
f 30 32 48
f 30 48 49
f 30 49 33
f 31 48 32
f 31 47 50
f 31 50 51
f 31 51 48
f 33 49 36
f 34 37 53
f 34 53 52
f 35 44 43
f 35 43 38
f 36 54 37
f 36 49 54
f 37 54 53
f 38 43 39
f 39 43 55
f 40 46 45
f 40 45 41
f 40 44 46
f 42 55 43
f 44 56 50
f 44 50 46
f 46 50 47
f 48 51 57
f 48 57 49
f 49 57 58
f 49 58 54
f 50 56 59
f 50 59 60
f 50 60 61
f 50 61 51
f 51 61 62
f 51 62 57
f 52 53 62
f 52 62 61
f 52 61 63
f 53 58 64
f 53 64 62
f 53 54 58
f 57 62 58
f 58 62 64
f 60 63 61

