# https://github.com/mikedh/trimesh
v -0.03826050 0.05128069 -0.00844824
v -0.03965825 0.05138670 -0.00741857
v -0.03922561 0.05294228 -0.00752454
v -0.03783262 0.05320677 -0.00792163
v -0.03692931 0.05129664 -0.00844289
v 0.00886836 0.05091997 -0.00231197
v -0.03781835 0.05091997 -0.00375265
v -0.03969629 0.05138670 -0.00567392
v -0.03933972 0.05321038 -0.00597361
v -0.03821296 0.05414795 -0.00694869
v -0.03690079 0.05419889 -0.00725481
v -0.03344445 0.05335189 -0.00753310
v 0.00887312 0.05278687 -0.00237512
v 0.00887312 0.05185291 -0.00245112
v 0.00887312 0.05091997 0.00248637
v -0.03690079 0.05091997 -0.00312436
v -0.03647290 0.05230934 -0.00276687
v -0.03885478 0.05138670 -0.00460786
v -0.03818919 0.05320317 -0.00430923
v -0.03762343 0.05435069 -0.00446978
v -0.03818443 0.05434091 -0.00562361
v -0.03678668 0.05507625 -0.00553905
v -0.03549828 0.05516527 -0.00618126
v -0.00327399 0.05541022 -0.00208934
v 0.00887312 0.05380729 -0.00191274
v 0.00419969 0.05091997 0.00236221
v 0.00887312 0.05185034 0.00237184
v 0.00560219 0.05278687 0.00233331
v 0.00513628 0.05185291 0.00236970
v -0.03594518 0.05091997 -0.00251855
v -0.03498007 0.05091997 -0.00209041
v -0.03321624 0.05091997 -0.00131655
v -0.03209899 0.05091997 -0.00091518
v -0.03596420 0.05316149 -0.00282467
v -0.03725260 0.05363336 -0.00365846
v -0.03671537 0.05445103 -0.00393889
v -0.03610207 0.05535516 -0.00483477
v -0.03503237 0.05567471 -0.00513767
v -0.03409578 0.05567986 -0.00513767
v -0.00233740 0.05576425 -0.00140325
v 0.00887312 0.05485961 -0.00092695
v -0.01355267 0.05091997 0.00174248
v 0.00887312 0.05278430 0.00221664
v 0.00887312 0.05435841 0.00173499
v 0.00525038 0.05401210 0.00196190
v -0.00701083 0.05372033 0.00167505
v -0.03085339 0.05091997 -0.00061013
v -0.02942711 0.05465481 -0.00119989
v -0.02849052 0.05558878 -0.00133368
v -0.02894218 0.05617694 -0.00200585
v -0.02904677 0.05617180 -0.00345296
v -0.00339284 0.05596391 -0.00101579
v 0.00887312 0.05527591 0.00075349
v -0.00794741 0.05372033 0.00163224
v -0.01687114 0.05091997 0.00158942
v 0.00607762 0.05493423 0.00140854
v -0.00701083 0.05493011 0.00117306
v -0.02230049 0.05091997 0.00086694
v -0.02861413 0.05426013 -0.00090340
v -0.02125456 0.05421947 0.00002030
v -0.00607899 0.05547042 0.00074385
v -0.00420582 0.05598192 -0.00051915
v 0.00700470 0.05535670 0.00080165
v -0.02000419 0.05091997 0.00124477
f 1 2 3
f 1 3 4
f 1 4 5
f 1 5 6
f 1 6 7
f 1 7 2
f 2 8 9
f 2 9 3
f 2 7 8
f 3 9 10
f 3 10 4
f 4 11 12
f 4 12 5
f 4 10 11
f 5 12 13
f 5 13 14
f 5 14 6
f 6 14 15
f 6 15 26
f 6 26 42
f 6 42 55
f 6 55 64
f 6 64 58
f 6 58 47
f 6 47 33
f 6 33 32
f 6 32 31
f 6 31 30
f 6 30 16
f 6 16 7
f 7 16 17
f 7 17 18
f 7 18 8
f 8 18 19
f 8 19 9
f 9 19 20
f 9 20 21
f 9 21 10
f 10 21 22
f 10 22 23
f 10 23 11
f 11 23 24
f 11 24 12
f 12 24 25
f 12 25 13
f 13 25 41
f 13 41 53
f 13 53 44
f 13 44 43
f 13 43 27
f 13 27 15
f 13 15 14
f 15 27 28
f 15 28 29
f 15 29 26
f 16 30 17
f 17 30 31
f 17 31 32
f 17 32 33
f 17 33 34
f 17 34 35
f 17 35 19
f 17 19 18
f 19 35 20
f 20 35 36
f 20 36 37
f 20 37 21
f 21 37 22
f 22 37 38
f 22 38 23
f 23 38 39
f 23 39 40
f 23 40 24
f 24 40 41
f 24 41 25
f 26 29 42
f 27 43 28
f 28 43 44
f 28 44 45
f 28 45 46
f 28 46 42
f 28 42 29
f 33 47 48
f 33 48 34
f 34 36 35
f 34 48 49
f 34 49 36
f 36 49 50
f 36 50 37
f 37 50 38
f 38 50 51
f 38 51 39
f 39 51 40
f 40 52 41
f 40 51 52
f 41 52 53
f 42 46 54
f 42 54 55
f 44 53 56
f 44 56 45
f 45 56 57
f 45 57 46
f 46 57 54
f 47 58 59
f 47 59 48
f 48 59 49
f 49 59 60
f 49 60 54
f 49 54 57
f 49 57 61
f 49 61 50
f 50 61 62
f 50 62 51
f 51 62 52
f 52 62 53
f 53 62 63
f 53 63 56
f 54 60 55
f 55 60 64
f 56 63 61
f 56 61 57
f 58 64 59
f 59 64 60
f 61 63 62

