# https://github.com/mikedh/trimesh
v 0.00934400 0.04747780 -0.00515373
v 0.00887312 0.04747780 0.00463073
v 0.00887312 0.05380697 -0.00191073
v 0.01120020 0.05419690 -0.00187590
v 0.01348778 0.04747780 -0.00491122
v 0.00887312 0.05449421 0.00170378
v 0.03705023 0.04747780 0.00800402
v 0.03783403 0.04951773 0.00802466
v 0.03783403 0.05278583 0.00722746
v 0.03690137 0.05314930 0.00695527
v 0.00887312 0.05527563 0.00075565
v 0.00887616 0.05485923 -0.00092519
v 0.01121539 0.05515577 -0.00054465
v 0.02008928 0.05469891 0.00007841
v 0.02102497 0.05437280 -0.00013573
v 0.02196067 0.05345440 -0.00069300
v 0.02289332 0.05301154 -0.00083489
v 0.00981185 0.05517134 -0.00057690
v 0.02292370 0.04747780 -0.00351675
v 0.01215108 0.05500244 0.00174764
v 0.01074754 0.05525072 0.00119811
v 0.03860871 0.04747780 0.00479714
v 0.03929528 0.04781636 0.00640187
v 0.03831099 0.04781014 0.00779505
v 0.03901579 0.04939632 0.00761058
v 0.03904617 0.05091868 0.00738999
v 0.03857833 0.05180750 0.00741450
v 0.03889731 0.05298041 0.00635930
v 0.03780061 0.05414320 0.00549502
v 0.03690137 0.05411440 0.00596973
v 0.03503302 0.05424048 0.00568464
v 0.01121539 0.05542740 0.00046798
v 0.02155965 0.05512620 0.00092592
v 0.02102497 0.05483900 0.00042412
v 0.03139962 0.05399065 0.00159413
v 0.02989279 0.05372447 0.00095817
v 0.02568825 0.05309638 -0.00026859
v 0.02942494 0.05278583 0.00029642
v 0.03127810 0.05320845 0.00094140
v 0.02662394 0.04747780 -0.00256991
v 0.02849229 0.05478374 0.00424890
v 0.02942494 0.05500089 0.00409668
v 0.03036367 0.05524138 0.00358843
v 0.03921022 0.04998627 0.00386062
v 0.03960820 0.04890599 0.00482423
v 0.02984114 0.04747780 -0.00151858
v 0.03978440 0.04904998 0.00607164
v 0.03952010 0.04998472 0.00697978
v 0.03949275 0.05200208 0.00641477
v 0.03873022 0.05365442 0.00513769
v 0.03728112 0.05416810 0.00406830
v 0.03690137 0.05438758 0.00513769
v 0.03596568 0.05425605 0.00572721
v 0.03157582 0.05516744 0.00342074
v 0.03695302 0.05340770 0.00309179
v 0.03332265 0.05309093 0.00155672
v 0.03945326 0.05086342 0.00419730
v 0.03767605 0.05217331 0.00274479
v 0.03860871 0.05185109 0.00343880
v 0.03977832 0.05091868 0.00513769
v 0.03990895 0.04998472 0.00560467
v 0.03964465 0.05091868 0.00649604
v 0.03919807 0.05282164 0.00477779
v 0.03814997 0.05335088 0.00375097
f 1 2 3
f 1 3 4
f 1 4 5
f 1 5 19
f 1 19 40
f 1 40 46
f 1 46 22
f 1 22 7
f 1 7 2
f 2 6 11
f 2 11 3
f 2 7 8
f 2 8 9
f 2 9 10
f 2 10 6
f 3 11 12
f 3 12 4
f 4 13 14
f 4 14 15
f 4 15 16
f 4 16 17
f 4 17 5
f 4 12 18
f 4 18 13
f 5 17 19
f 6 20 21
f 6 21 11
f 6 10 20
f 7 22 23
f 7 23 24
f 7 24 8
f 8 24 25
f 8 25 26
f 8 26 27
f 8 27 9
f 9 27 28
f 9 28 29
f 9 29 30
f 9 30 10
f 10 30 31
f 10 31 20
f 11 21 32
f 11 32 18
f 11 18 12
f 13 18 32
f 13 32 33
f 13 33 14
f 14 34 15
f 14 33 34
f 15 34 35
f 15 35 36
f 15 36 16
f 16 36 37
f 16 37 17
f 17 37 19
f 19 37 38
f 19 38 39
f 19 39 40
f 20 31 41
f 20 41 42
f 20 42 21
f 21 42 43
f 21 43 32
f 22 44 45
f 22 45 23
f 22 46 44
f 23 25 24
f 23 45 47
f 23 47 48
f 23 48 25
f 25 48 26
f 26 48 49
f 26 49 27
f 27 49 28
f 28 49 50
f 28 50 29
f 29 51 52
f 29 52 30
f 29 50 51
f 30 52 53
f 30 53 31
f 31 53 42
f 31 42 41
f 32 43 33
f 33 43 54
f 33 54 35
f 33 35 34
f 35 39 36
f 35 54 51
f 35 51 55
f 35 55 56
f 35 56 39
f 36 39 38
f 36 38 37
f 39 56 40
f 40 56 46
f 42 53 43
f 43 53 52
f 43 52 54
f 44 57 45
f 44 46 58
f 44 58 59
f 44 59 57
f 45 57 60
f 45 60 61
f 45 61 47
f 46 56 58
f 47 61 48
f 48 61 62
f 48 62 49
f 49 62 61
f 49 61 60
f 49 60 63
f 49 63 50
f 50 63 64
f 50 64 51
f 51 64 55
f 51 54 52
f 55 64 58
f 55 58 56
f 57 59 63
f 57 63 60
f 58 64 59
f 59 64 63

