# https://github.com/mikedh/trimesh
v -0.01564966 -0.02014721 -0.00932046
v -0.00136385 -0.02115859 -0.00941287
v -0.02101404 -0.02133248 -0.00939154
v -0.02935222 -0.02057306 -0.00911786
v -0.03762561 -0.02014721 -0.00142995
v -0.02760250 -0.02014721 0.00800133
v 0.03320580 -0.02045950 0.00564840
v 0.01326039 -0.02043466 -0.00935422
v 0.01914320 -0.02382723 -0.00951594
v 0.02195140 -0.02943066 -0.00968122
v -0.03155558 -0.03460470 -0.00936844
v -0.03095074 -0.02660233 -0.00922094
v -0.03565267 -0.02154895 -0.00707237
v -0.03679755 -0.04145373 -0.00640772
v -0.03600549 -0.05270673 0.00176179
v -0.03501182 -0.04430691 0.00601804
v -0.03529265 -0.02045950 0.00551866
v -0.03659593 -0.03014750 -0.00685912
v -0.02561516 -0.04829922 0.00738288
v -0.02323179 -0.04530764 0.00784316
v -0.01773780 -0.04414011 0.00805287
v -0.00980284 -0.02048434 0.00846694
v 0.02328350 -0.02047724 0.00800311
v 0.03112485 -0.04570510 0.00625973
v 0.03458109 -0.04257158 0.00389791
v 0.03552436 -0.02816732 0.00286539
v 0.03593479 -0.02105213 -0.00306848
v 0.02553006 -0.02152766 -0.00933112
v 0.02720777 -0.03200349 -0.00968655
v 0.02797823 -0.04159923 -0.00962079
v -0.03030269 -0.04615934 -0.00884063
v 0.01915040 -0.04617353 -0.00944130
v -0.03264286 -0.05253994 -0.00528279
v -0.00606578 -0.05310773 0.00541381
v -0.01469919 -0.05167405 0.00601804
v 0.00161716 -0.05570895 -0.00319643
v 0.01873278 -0.05612769 -0.00003845
v -0.00512971 -0.05211054 0.00641967
v -0.00489930 -0.04815372 0.00791070
v 0.00793201 -0.04437788 0.00813461
v 0.00089711 -0.03372462 0.00843495
v -0.00647621 -0.03231223 0.00842962
v 0.00020587 -0.02297554 0.00846872
v 0.01184909 -0.02114440 0.00840829
v 0.01496691 -0.02896223 0.00840829
v 0.03357302 -0.05022262 0.00375752
v 0.01074021 -0.05028650 0.00741310
v 0.01934482 -0.05140080 0.00643034
v 0.02715737 -0.05317871 0.00482736
v 0.03380344 -0.05559894 -0.00134465
v 0.03463870 -0.04063398 -0.00666363
v 0.03462430 -0.02817087 -0.00753976
v 0.03157848 -0.02310329 -0.00880331
v 0.03342901 -0.03473245 -0.00857406
v 0.03336421 -0.04702522 -0.00716301
v 0.02571727 -0.04827792 -0.00926359
v -0.02420386 -0.05297643 -0.00618380
v 0.00956653 -0.05303321 -0.00753976
v 0.00559905 -0.05385652 0.00483802
v 0.02755340 -0.05640095 -0.00139974
v 0.00746398 -0.05560604 -0.00420229
v 0.02517723 -0.05607802 0.00100651
v 0.03106724 -0.05356197 -0.00665297
v 0.02019448 -0.05268898 -0.00778145
f 1 2 3
f 1 3 4
f 1 4 5
f 1 5 6
f 1 6 7
f 1 7 8
f 1 8 2
f 2 8 9
f 2 9 10
f 2 10 3
f 3 10 11
f 3 11 12
f 3 12 4
f 4 12 13
f 4 13 5
f 5 14 15
f 5 15 16
f 5 16 17
f 5 17 6
f 5 13 18
f 5 18 14
f 6 17 16
f 6 16 19
f 6 19 20
f 6 20 21
f 6 21 22
f 6 22 23
f 6 23 7
f 7 24 25
f 7 25 26
f 7 26 27
f 7 27 8
f 7 23 24
f 8 27 28
f 8 28 9
f 9 28 10
f 10 28 29
f 10 29 30
f 10 30 11
f 11 31 14
f 11 14 18
f 11 18 13
f 11 13 12
f 11 30 32
f 11 32 31
f 14 31 33
f 14 33 15
f 15 34 35
f 15 35 19
f 15 19 16
f 15 33 36
f 15 36 37
f 15 37 34
f 19 35 38
f 19 38 39
f 19 39 20
f 20 39 21
f 21 39 40
f 21 40 41
f 21 41 42
f 21 42 22
f 22 42 41
f 22 41 43
f 22 43 44
f 22 44 23
f 23 44 45
f 23 45 24
f 24 46 25
f 24 45 40
f 24 40 47
f 24 47 48
f 24 48 49
f 24 49 46
f 25 46 50
f 25 50 26
f 26 50 27
f 27 50 51
f 27 51 52
f 27 52 53
f 27 53 28
f 28 53 29
f 29 53 54
f 29 54 30
f 30 54 55
f 30 55 56
f 30 56 32
f 31 57 33
f 31 32 56
f 31 56 58
f 31 58 57
f 33 57 36
f 34 59 38
f 34 38 35
f 34 37 59
f 36 60 37
f 36 57 61
f 36 61 60
f 37 60 62
f 37 62 59
f 38 59 48
f 38 48 47
f 38 47 39
f 39 47 40
f 40 45 41
f 41 45 43
f 43 45 44
f 46 49 50
f 48 59 49
f 49 62 50
f 49 59 62
f 50 62 60
f 50 60 63
f 50 63 55
f 50 55 51
f 51 55 54
f 51 54 52
f 52 54 53
f 55 63 56
f 56 64 58
f 56 63 64
f 57 58 61
f 58 64 63
f 58 63 61
f 60 61 63

