# https://github.com/mikedh/trimesh
v 0.03839527 0.04747702 0.00685925
v 0.03214833 0.04116383 0.00948251
v 0.03372698 0.03318212 0.00935012
v 0.03508763 0.01920764 0.00755715
v 0.03701208 0.01798656 0.00139902
v 0.03670386 0.01952228 -0.00320633
v 0.03680911 0.02569403 -0.00326874
v 0.03601227 0.03400771 -0.00441866
v 0.03250917 0.04089825 -0.00482151
v 0.03131391 0.04658215 -0.00191456
v 0.02158642 0.04693433 -0.00427871
v 0.01118989 0.04702381 -0.00544943
v -0.03840224 0.04747702 -0.00598089
v -0.02936635 0.04643781 0.00417926
v -0.02475820 0.04536974 0.00543320
v -0.01927052 0.04368968 0.00662473
v 0.02624720 0.04008998 0.00951466
v 0.02661555 0.03643542 0.00976053
v 0.02778826 0.02989995 0.00975675
v 0.02849489 0.02382923 0.00965462
v 0.02784840 0.01798656 0.00949575
v 0.02311245 0.01798656 -0.00788923
v 0.03520039 0.02948138 -0.00558939
v 0.02849489 0.01915279 -0.00761121
v 0.03288504 0.02030746 -0.00703436
v 0.03146426 0.03467454 -0.00685090
v 0.02478131 0.04038730 -0.00696059
v 0.02699142 0.04570171 -0.00416523
v 0.01521920 0.04241376 -0.00746368
v -0.02259320 0.04495117 -0.00877247
v -0.03689124 0.01799522 0.00240331
v -0.03666572 0.02289106 0.00420195
v -0.03547046 0.03948377 0.00418115
v -0.03466610 0.04643204 0.00160707
v -0.02872738 0.04478374 -0.00894269
v -0.03404216 0.04058360 -0.00889730
v -0.03625979 0.01798656 -0.00446973
v -0.03039623 0.04064999 0.00647343
v -0.02408915 0.04001203 0.00718645
v -0.03043382 0.03585520 0.00738126
v -0.02803577 0.02574600 0.00831178
v -0.02533704 0.01798656 0.00854442
v -0.01306868 0.01810492 0.00881677
v 0.02287941 0.02382923 0.00959221
v 0.02101510 0.01915279 0.00946170
v 0.01395629 0.01933465 -0.00845095
v 0.00046260 0.01798656 -0.00887082
v 0.03098314 0.02630890 -0.00749773
v 0.02634492 0.03470340 -0.00752610
v 0.00867909 0.03888334 -0.00844717
v -0.01290330 0.04118114 -0.00937202
v -0.03292207 0.01915279 0.00766874
v -0.03535770 0.02864135 0.00588712
v -0.02755466 0.03876787 -0.00956115
v -0.03125321 0.03439742 -0.00927935
v -0.03106528 0.01914124 -0.00836773
v -0.02586325 0.01863030 -0.00880463
v -0.01534645 0.01810492 -0.00912804
v 0.01391118 0.01953672 0.00934823
v 0.01494106 0.03456773 -0.00840745
v -0.00930248 0.03550879 -0.00934933
v -0.01491796 0.02797741 -0.00937202
v -0.01867664 0.03876787 -0.00953657
v -0.02569035 0.03328893 -0.00944957
f 1 2 3
f 1 3 4
f 1 4 5
f 1 5 6
f 1 6 7
f 1 7 8
f 1 8 9
f 1 9 10
f 1 10 11
f 1 11 12
f 1 12 13
f 1 13 14
f 1 14 15
f 1 15 16
f 1 16 2
f 2 16 17
f 2 17 18
f 2 18 19
f 2 19 3
f 3 19 20
f 3 20 21
f 3 21 4
f 4 21 5
f 5 21 42
f 5 42 37
f 5 37 47
f 5 47 22
f 5 22 6
f 6 23 7
f 6 22 24
f 6 24 25
f 6 25 23
f 7 23 8
f 8 23 26
f 8 26 9
f 9 26 27
f 9 27 28
f 9 28 10
f 10 28 11
f 11 28 29
f 11 29 12
f 12 29 30
f 12 30 13
f 13 31 32
f 13 32 33
f 13 33 34
f 13 34 14
f 13 30 35
f 13 35 36
f 13 36 37
f 13 37 31
f 14 34 38
f 14 38 15
f 15 38 16
f 16 38 39
f 16 39 17
f 17 39 40
f 17 40 41
f 17 41 18
f 18 41 42
f 18 42 43
f 18 43 19
f 19 44 20
f 19 43 44
f 20 44 45
f 20 45 21
f 21 45 43
f 21 43 42
f 22 46 24
f 22 47 46
f 23 25 48
f 23 48 26
f 24 48 25
f 24 46 48
f 26 48 49
f 26 49 27
f 27 49 50
f 27 50 29
f 27 29 28
f 29 50 51
f 29 51 30
f 30 51 35
f 31 52 32
f 31 37 42
f 31 42 52
f 32 52 53
f 32 53 33
f 33 53 40
f 33 40 38
f 33 38 34
f 35 51 54
f 35 54 36
f 36 54 55
f 36 55 56
f 36 56 37
f 37 56 57
f 37 57 58
f 37 58 47
f 38 40 39
f 40 52 41
f 40 53 52
f 41 52 42
f 43 45 59
f 43 59 44
f 44 59 45
f 46 60 48
f 46 47 61
f 46 61 60
f 47 58 62
f 47 62 61
f 48 60 49
f 49 60 50
f 50 60 51
f 51 60 61
f 51 61 63
f 51 63 54
f 54 63 62
f 54 62 64
f 54 64 55
f 55 64 57
f 55 57 56
f 57 64 58
f 58 64 62
f 61 62 63

