# https://github.com/mikedh/trimesh
v 0.01167089 0.02765066 -0.00037330
v 0.01696750 0.02146968 0.01304830
v 0.02471004 0.01897098 0.00110458
v 0.00956034 0.02438482 -0.01449866
v 0.00067290 0.02764518 -0.00753149
v 0.00053412 0.02659858 0.00870011
v 0.01854608 0.00723369 0.02019141
v 0.02494711 0.01255985 0.01214348
v 0.00999401 0.01615995 0.02066896
v 0.02184779 0.00866386 -0.01739914
v 0.01719879 0.01662024 -0.01715785
v 0.02928386 0.00291029 0.00513107
v 0.02828930 0.00402264 -0.00833076
v 0.00671543 0.01654900 -0.02180766
v -0.00453120 0.02037924 -0.01726341
v -0.01088597 0.02324507 -0.00757673
v -0.00720263 0.02650543 0.00067228
v -0.01148734 0.02117378 0.01025842
v -0.00362337 0.01189134 0.02315221
v 0.00684843 0.00140888 0.02567065
v 0.01759199 -0.00253643 0.02134758
v 0.02468113 -0.00421867 0.01374703
v 0.02597637 -0.00608173 -0.01126642
v 0.01914166 -0.00568172 -0.01925403
v 0.01316851 0.00687751 -0.02339613
v 0.02595902 -0.00984073 0.00120512
v -0.00173833 0.00954608 -0.02472824
v -0.01186897 0.00965567 -0.02163172
v -0.01813701 0.01306398 -0.01364410
v -0.02101661 0.01528869 -0.00015715
v -0.02442240 0.00751863 0.01113811
v -0.01451149 0.00850495 0.02093036
v -0.01211183 -0.00482690 0.02427822
v 0.00249433 -0.00822973 0.02523331
v 0.02152976 -0.01271752 0.01173631
v 0.01352123 -0.01538608 0.01738142
v 0.02016513 -0.01752313 -0.00310286
v 0.01820492 -0.01630666 -0.01253820
v 0.01103483 -0.00998868 -0.02286832
v 0.00749026 -0.00025144 -0.02568333
v -0.00883903 -0.00159394 -0.02544707
v -0.01944382 0.00186916 -0.01975169
v -0.02592003 0.00557337 -0.00802412
v -0.02903092 0.00244452 0.00169775
v -0.02344519 -0.00054734 0.01694912
v -0.02049042 -0.01159420 0.01881909
v -0.01169550 -0.02067937 0.01856273
v 0.00256372 -0.02092596 0.01764785
v 0.01514607 -0.02138624 0.00593536
v 0.00591747 -0.02690420 0.00590017
v 0.01255558 -0.02361644 -0.00310286
v 0.00621815 -0.02495346 -0.01147754
v 0.00812632 -0.01916153 -0.01833915
v -0.00187132 -0.02086020 -0.01971147
v 0.00224569 -0.00936401 -0.02520579
v -0.00827236 -0.01279424 -0.02386865
v -0.02005675 -0.00996676 -0.01969639
v -0.02714010 -0.00946264 -0.01001977
v -0.02978840 -0.00806534 0.00081805
v -0.02683363 -0.02387398 0.00236129
v -0.00482609 -0.02632336 0.01209824
v -0.00214309 -0.02832889 -0.00735555
v -0.01194414 -0.02111226 -0.01829391
v -0.02011457 -0.02024101 -0.01321682
f 1 2 3
f 1 3 4
f 1 4 5
f 1 5 6
f 1 6 2
f 2 7 8
f 2 8 3
f 2 6 9
f 2 9 7
f 3 10 11
f 3 11 4
f 3 8 12
f 3 12 13
f 3 13 10
f 4 11 14
f 4 14 15
f 4 15 5
f 5 15 16
f 5 16 17
f 5 17 6
f 6 17 18
f 6 18 19
f 6 19 9
f 7 9 20
f 7 20 21
f 7 21 22
f 7 22 8
f 8 22 12
f 9 19 20
f 10 13 23
f 10 23 24
f 10 24 25
f 10 25 11
f 11 25 14
f 12 22 26
f 12 26 23
f 12 23 13
f 14 25 27
f 14 27 15
f 15 27 28
f 15 28 29
f 15 29 16
f 16 29 30
f 16 30 17
f 17 30 18
f 18 30 31
f 18 31 32
f 18 32 19
f 19 32 33
f 19 33 20
f 20 33 34
f 20 34 21
f 21 35 22
f 21 34 36
f 21 36 35
f 22 35 26
f 23 26 37
f 23 37 38
f 23 38 24
f 24 38 39
f 24 39 40
f 24 40 25
f 25 40 27
f 26 35 37
f 27 41 28
f 27 40 41
f 28 41 42
f 28 42 29
f 29 42 43
f 29 43 30
f 30 43 44
f 30 44 31
f 31 45 32
f 31 44 45
f 32 45 33
f 33 45 46
f 33 46 47
f 33 47 34
f 34 48 36
f 34 47 48
f 35 36 49
f 35 49 37
f 36 48 50
f 36 50 49
f 37 49 51
f 37 51 38
f 38 51 52
f 38 52 53
f 38 53 39
f 39 53 54
f 39 54 55
f 39 55 40
f 40 55 41
f 41 56 57
f 41 57 42
f 41 55 56
f 42 57 58
f 42 58 43
f 43 58 44
f 44 58 59
f 44 59 45
f 45 59 60
f 45 60 46
f 46 60 47
f 47 61 48
f 47 60 61
f 48 61 50
f 49 50 51
f 50 61 62
f 50 62 51
f 51 62 52
f 52 62 54
f 52 54 53
f 54 62 63
f 54 63 56
f 54 56 55
f 56 63 57
f 57 63 64
f 57 64 58
f 58 60 59
f 58 64 60
f 60 62 61
f 60 64 63
f 60 63 62

