# https://github.com/mikedh/trimesh
v 0.01368353 -0.04250506 0.00719201
v 0.01356215 -0.04280225 0.00697808
v 0.01356215 -0.04280225 0.00658360
v 0.01364208 -0.04250506 0.00638608
v 0.01329867 -0.04250506 0.00847110
v 0.01329275 -0.04250506 0.00848978
v 0.01138918 -0.04511350 0.00708391
v 0.01335492 -0.04250506 0.00575502
v 0.01138918 -0.04511350 0.00638042
v 0.01103985 -0.04475843 0.00488173
v 0.01283684 -0.04250506 0.00970378
v 0.01225067 -0.04313465 0.00970378
v 0.01197535 -0.04342766 0.00970378
v 0.01166746 -0.04373379 0.00970378
v 0.01083262 -0.04455553 0.00970378
v 0.01001257 -0.04534683 0.00970378
v 0.00970172 -0.04563925 0.00970378
v 0.00904746 -0.04726781 0.00685640
v 0.01304407 -0.04250506 0.00518736
v 0.00904746 -0.04726781 0.00660624
v 0.01004514 -0.04603788 0.00574370
v 0.00852939 -0.04696286 0.00510699
v 0.00954186 -0.04546440 0.00399713
v 0.01168819 -0.04325996 0.00400901
v -0.01283027 -0.04250506 0.00970378
v 0.00940272 -0.04588452 0.00970378
v 0.00866853 -0.04695570 0.00835564
v 0.00717054 -0.04753217 0.00958323
v 0.00789881 -0.04773030 0.00771101
v 0.01177996 -0.04301947 0.00392299
v 0.01207008 -0.04250506 0.00392299
v 0.00561926 -0.04860157 0.00786891
v 0.00781592 -0.04761811 0.00576238
v 0.00702844 -0.04734539 0.00434010
v 0.00930502 -0.04553422 0.00392299
v 0.00948265 -0.04542322 0.00392299
v 0.00960995 -0.04531282 0.00392299
v 0.00734224 -0.04673729 0.00392299
v 0.01164082 -0.04320745 0.00392299
v 0.01151944 -0.04333874 0.00392299
v -0.01293684 -0.04250506 0.00970265
v -0.01293388 -0.04250566 0.00970378
v 0.00730376 -0.04738597 0.00970378
v 0.00690410 -0.04758588 0.00970378
v -0.01656044 -0.04250506 0.00392299
v 0.00561926 -0.04818980 0.00562089
v 0.00568143 -0.04800361 0.00970378
v 0.00337228 -0.04807463 0.00970378
v 0.00337228 -0.04842672 0.00786891
v 0.00561926 -0.04743192 0.00425464
v 0.00654292 -0.04697003 0.00392299
v 0.00372161 -0.04687037 0.00392299
v 0.00406206 -0.04737344 0.00433048
v 0.00333675 -0.04778639 0.00551845
v 0.00561926 -0.04708520 0.00392299
f 1 2 3
f 1 3 4
f 1 4 8
f 1 8 19
f 1 19 31
f 1 31 45
f 1 45 41
f 1 41 25
f 1 25 11
f 1 11 6
f 1 6 5
f 1 5 2
f 2 5 6
f 2 6 7
f 2 7 9
f 2 9 3
f 3 8 4
f 3 9 10
f 3 10 8
f 6 11 12
f 6 12 7
f 7 12 13
f 7 13 14
f 7 14 15
f 7 15 16
f 7 16 17
f 7 17 18
f 7 18 20
f 7 20 9
f 8 10 19
f 9 20 21
f 9 21 10
f 10 21 22
f 10 22 23
f 10 23 24
f 10 24 19
f 11 25 42
f 11 42 48
f 11 48 47
f 11 47 44
f 11 44 43
f 11 43 26
f 11 26 17
f 11 17 16
f 11 16 15
f 11 15 14
f 11 14 13
f 11 13 12
f 17 26 18
f 18 26 27
f 18 27 28
f 18 28 29
f 18 29 20
f 19 24 30
f 19 30 31
f 20 29 32
f 20 32 33
f 20 33 22
f 20 22 21
f 22 33 34
f 22 34 23
f 23 35 36
f 23 36 37
f 23 37 24
f 23 34 38
f 23 38 35
f 24 39 30
f 24 37 40
f 24 40 39
f 25 41 42
f 26 43 28
f 26 28 27
f 28 43 44
f 28 44 32
f 28 32 29
f 30 39 40
f 30 40 37
f 30 37 36
f 30 36 35
f 30 35 38
f 30 38 51
f 30 51 55
f 30 55 52
f 30 52 45
f 30 45 31
f 32 46 33
f 32 44 47
f 32 47 48
f 32 48 49
f 32 49 46
f 33 46 34
f 34 46 50
f 34 50 51
f 34 51 38
f 41 45 48
f 41 48 42
f 45 49 48
f 45 52 53
f 45 53 54
f 45 54 49
f 46 49 54
f 46 54 53
f 46 53 50
f 50 55 51
f 50 53 55
f 52 55 53

