# https://github.com/mikedh/trimesh
v -0.03216756 0.02457282 -0.12028559
v -0.03207641 0.02457282 -0.11803787
v -0.03178875 0.02540610 -0.12028559
v -0.03163656 0.02509212 -0.12158241
v -0.03174527 0.02467594 -0.12158241
v -0.03177203 0.02457282 -0.12158241
v -0.03181718 0.02457282 -0.11705977
v -0.03156548 0.02491349 -0.11671536
v -0.03174109 0.02528364 -0.11803787
v -0.03125358 0.02653033 -0.12028559
v -0.02932527 0.02934322 -0.12158241
v -0.02455384 0.02457282 -0.12158241
v -0.03165663 0.02457282 -0.11650464
v -0.03083547 0.02457282 -0.11386643
v -0.03115156 0.02640787 -0.11803787
v -0.03027270 0.02810481 -0.12028559
v -0.02937126 0.02939202 -0.12028559
v -0.02709175 0.03156959 -0.12158241
v -0.02362481 0.02600182 -0.12158241
v -0.02362481 0.02457282 -0.11804089
v -0.02362481 0.02457282 -0.11386643
v -0.02994909 0.02602208 -0.11386643
v -0.02858104 0.02798235 -0.11386643
v -0.02992400 0.02817479 -0.11812321
v -0.02932276 0.02933309 -0.11892986
v -0.02823987 0.03051625 -0.12028559
v -0.02711683 0.03158708 -0.12028559
v -0.02362481 0.03395525 -0.11674406
v -0.02362481 0.03382450 -0.11803787
v -0.02362481 0.03337426 -0.12040417
v -0.02580063 0.03208060 -0.12158241
v -0.02362481 0.03159629 -0.12158241
v -0.02362481 0.03397550 -0.11386643
v -0.02748728 0.02946199 -0.11386643
v -0.02543605 0.03193605 -0.11386643
v -0.02430883 0.03324259 -0.11386643
v -0.02705077 0.03153092 -0.11904919
v -0.02362481 0.03397827 -0.11442459
v -0.02362481 0.03396538 -0.11579014
v -0.02362481 0.03291204 -0.12157033
v -0.02456053 0.03245627 -0.12158241
f 1 2 3
f 1 3 4
f 1 4 5
f 1 5 6
f 1 6 12
f 1 12 20
f 1 20 21
f 1 21 14
f 1 14 13
f 1 13 7
f 1 7 2
f 2 7 8
f 2 8 9
f 2 9 3
f 3 9 10
f 3 10 4
f 4 10 11
f 4 11 18
f 4 18 31
f 4 31 41
f 4 41 32
f 4 32 19
f 4 19 12
f 4 12 6
f 4 6 5
f 7 13 8
f 8 13 14
f 8 14 15
f 8 15 9
f 9 15 10
f 10 15 16
f 10 16 11
f 11 16 17
f 11 17 18
f 12 19 20
f 14 21 33
f 14 33 36
f 14 36 35
f 14 35 34
f 14 34 23
f 14 23 22
f 14 22 15
f 15 23 24
f 15 24 25
f 15 25 16
f 15 22 23
f 16 25 17
f 17 25 26
f 17 26 18
f 18 26 27
f 18 27 28
f 18 28 29
f 18 29 30
f 18 30 31
f 19 32 40
f 19 40 30
f 19 30 29
f 19 29 28
f 19 28 39
f 19 39 38
f 19 38 33
f 19 33 21
f 19 21 20
f 23 34 24
f 24 34 25
f 25 34 35
f 25 35 36
f 25 36 33
f 25 33 37
f 25 37 26
f 26 37 27
f 27 37 33
f 27 33 38
f 27 38 39
f 27 39 28
f 30 40 31
f 31 40 41
f 32 41 40

