# https://github.com/mikedh/trimesh
v 0.01344053 -0.00933005 0.00970434
v 0.01344053 0.00557715 0.00970434
v 0.02401338 0.00363203 0.00970434
v 0.02543587 -0.00641310 0.00992317
v 0.02251848 -0.00933005 0.01007947
v 0.01345393 -0.00933005 0.04141282
v 0.01344053 -0.00472481 0.04381640
v 0.02292740 0.00545749 0.00970434
v 0.01344053 0.00397932 0.04300363
v 0.01398083 0.00557569 0.04197898
v 0.01728032 0.00557715 0.04125305
v 0.02079701 0.00554942 0.03709194
v 0.02500684 0.00399537 0.01287207
v 0.02513957 0.00202399 0.01029135
v 0.02689725 -0.00154229 0.01015588
v 0.02713589 -0.00412800 0.01067342
v 0.02534604 -0.00733824 0.01237190
v 0.02350927 -0.00889520 0.01237190
v 0.02200767 -0.00933005 0.02288929
v 0.01533629 -0.00933005 0.03936353
v 0.02040954 -0.00423598 0.04189910
v 0.02038809 -0.00188666 0.04453539
v 0.01708056 -0.00181224 0.04518838
v 0.01344053 -0.00198005 0.04449023
v 0.02488618 0.00539329 0.01823844
v 0.02461401 0.00539329 0.01523396
v 0.01344053 0.00112367 0.04422973
v 0.01726558 0.00038239 0.04516754
v 0.01944155 0.00097045 0.04475768
v 0.01967618 0.00546479 0.03945384
v 0.02054496 0.00170005 0.04330234
v 0.02228386 0.00291411 0.03673071
v 0.02224632 0.00389907 0.03484466
v 0.02465155 0.00539621 0.02084694
v 0.02582066 0.00337230 0.01461918
v 0.02655671 0.00112367 0.01461918
v 0.02710372 -0.00194503 0.01304226
v 0.02709970 -0.00395289 0.01300753
v 0.02642532 -0.00562076 0.01461918
v 0.02517309 -0.00714416 0.01686645
v 0.02467435 -0.00792629 0.01461918
v 0.02333900 -0.00766802 0.02361175
v 0.02137486 -0.00933005 0.02535192
v 0.02469446 -0.00667430 0.02136448
v 0.01684593 -0.00933005 0.03700510
v 0.01799358 -0.00933005 0.03500791
v 0.02086673 -0.00504000 0.03934269
v 0.02182802 -0.00337213 0.03934269
v 0.02189774 -0.00112496 0.04158996
v 0.02596545 0.00337230 0.01686645
v 0.02144189 0.00112367 0.04158996
v 0.02540235 0.00337230 0.02136448
v 0.02575228 0.00337230 0.01911373
v 0.02647224 0.00112367 0.01686645
v 0.02649906 -0.00112496 0.01686645
v 0.02611695 -0.00112496 0.01911373
v 0.02601104 -0.00337213 0.01911373
v 0.02475881 -0.00399667 0.02543180
v 0.02470384 -0.00565140 0.02361175
v 0.01972846 -0.00933005 0.03050294
v 0.02249837 -0.00443005 0.03494886
v 0.01895889 -0.00933005 0.03259739
v 0.02564770 0.00112367 0.02136448
v 0.02606467 0.00112367 0.01911373
f 1 2 8
f 1 8 3
f 1 3 4
f 1 4 5
f 1 5 19
f 1 19 43
f 1 43 60
f 1 60 62
f 1 62 46
f 1 46 45
f 1 45 20
f 1 20 6
f 1 6 7
f 1 7 24
f 1 24 27
f 1 27 9
f 1 9 2
f 2 9 10
f 2 10 11
f 2 11 12
f 2 12 8
f 3 8 13
f 3 13 14
f 3 14 15
f 3 15 4
f 4 15 16
f 4 16 17
f 4 17 5
f 5 17 18
f 5 18 19
f 6 20 21
f 6 21 22
f 6 22 23
f 6 23 7
f 7 23 24
f 8 25 26
f 8 26 13
f 8 12 25
f 9 27 28
f 9 28 29
f 9 29 10
f 10 29 11
f 11 30 12
f 11 29 31
f 11 31 30
f 12 30 31
f 12 31 32
f 12 32 33
f 12 33 34
f 12 34 25
f 13 15 14
f 13 26 35
f 13 35 15
f 15 35 36
f 15 36 37
f 15 37 16
f 16 37 38
f 16 38 39
f 16 39 17
f 17 39 40
f 17 40 41
f 17 41 18
f 18 41 19
f 19 42 43
f 19 41 40
f 19 40 44
f 19 44 42
f 20 45 21
f 21 45 46
f 21 46 47
f 21 47 48
f 21 48 22
f 22 31 29
f 22 29 23
f 22 48 49
f 22 49 31
f 23 28 24
f 23 29 28
f 24 28 27
f 25 50 35
f 25 35 26
f 25 34 50
f 31 49 51
f 31 51 32
f 32 51 49
f 32 49 52
f 32 52 34
f 32 34 33
f 34 52 53
f 34 53 50
f 35 50 36
f 36 50 54
f 36 54 37
f 37 54 55
f 37 55 38
f 38 55 56
f 38 56 57
f 38 57 58
f 38 58 39
f 39 44 40
f 39 58 59
f 39 59 44
f 42 47 43
f 42 44 47
f 43 47 60
f 44 59 61
f 44 61 47
f 46 62 47
f 47 62 60
f 47 61 48
f 48 61 59
f 48 59 58
f 48 58 49
f 49 58 57
f 49 57 56
f 49 56 63
f 49 63 52
f 50 53 54
f 52 63 64
f 52 64 54
f 52 54 53
f 54 64 56
f 54 56 55
f 56 64 63

