# https://github.com/mikedh/trimesh
v -0.03966322 0.00562145 -0.11578988
v -0.03932273 0.00562145 -0.11350401
v -0.03942116 0.00786934 -0.11578988
v -0.03940383 0.00786934 -0.11803768
v -0.03952826 0.00562145 -0.11803768
v -0.03906334 -0.00073724 -0.11350401
v -0.03928125 0.00337356 -0.11350401
v -0.03899586 0.00786934 -0.11350401
v -0.03898843 0.00789368 -0.11350401
v -0.03845849 0.00957738 -0.11350401
v -0.03865722 0.01025440 -0.11572674
v -0.03833096 0.01146685 -0.11643377
v -0.03883366 0.01011944 -0.11803768
v -0.03882375 0.01011944 -0.11807843
v -0.03938897 0.00786934 -0.11807843
v -0.03951093 0.00562145 -0.11807843
v -0.03950226 0.00557720 -0.11807843
v -0.03908315 0.00411696 -0.11807843
v -0.03883118 0.00325188 -0.11807843
v -0.03881323 0.00321205 -0.11807843
v -0.03905281 -0.00073724 -0.11352640
v -0.03333871 -0.00073724 -0.11350401
v -0.03796942 0.01073230 -0.11350401
v -0.03815948 0.01109072 -0.11493509
v -0.03718381 0.01239388 -0.11350401
v -0.03353681 0.01981015 -0.11350401
v -0.03333871 0.02186333 -0.11803768
v -0.03690461 0.01461301 -0.11803768
v -0.03786046 0.01263947 -0.11803768
v -0.03834211 0.01151552 -0.11803768
v -0.03833963 0.01151110 -0.11807843
v -0.03723581 0.00176951 -0.11807843
v -0.03840959 0.00206598 -0.11739469
v -0.03815886 -0.00073724 -0.11461403
v -0.03333871 -0.00073724 -0.11653766
v -0.03333871 0.01996281 -0.11350401
v -0.03352753 0.01982785 -0.11350401
v -0.03351329 0.01985440 -0.11350401
v -0.03333871 0.02017078 -0.11351207
v -0.03333871 0.02186555 -0.11807843
v -0.03689779 0.01461522 -0.11807843
v -0.03785427 0.01263283 -0.11807843
v -0.03719743 0.00174738 -0.11807843
v -0.03708104 -0.00073724 -0.11541689
v -0.03482141 -0.00073724 -0.11622421
v -0.03523681 0.00178057 -0.11807843
v -0.03411751 0.00288018 -0.11807843
v -0.03357767 0.00399748 -0.11807843
v -0.03333871 0.00511700 -0.11807843
v -0.03541510 -0.00073724 -0.11608317
f 1 2 3
f 1 3 4
f 1 4 5
f 1 5 6
f 1 6 7
f 1 7 2
f 2 8 3
f 2 7 6
f 2 6 22
f 2 22 36
f 2 36 38
f 2 38 37
f 2 37 26
f 2 26 25
f 2 25 23
f 2 23 10
f 2 10 9
f 2 9 8
f 3 8 9
f 3 9 10
f 3 10 11
f 3 11 12
f 3 12 13
f 3 13 4
f 4 13 14
f 4 14 15
f 4 15 5
f 5 15 16
f 5 16 17
f 5 17 18
f 5 18 6
f 6 19 20
f 6 20 21
f 6 21 34
f 6 34 44
f 6 44 50
f 6 50 45
f 6 45 35
f 6 35 22
f 6 18 19
f 10 23 24
f 10 24 12
f 10 12 11
f 12 24 25
f 12 25 26
f 12 26 27
f 12 27 28
f 12 28 29
f 12 29 30
f 12 30 13
f 13 30 31
f 13 31 14
f 14 31 42
f 14 42 41
f 14 41 40
f 14 40 49
f 14 49 48
f 14 48 47
f 14 47 46
f 14 46 43
f 14 43 32
f 14 32 20
f 14 20 19
f 14 19 18
f 14 18 17
f 14 17 16
f 14 16 15
f 20 32 33
f 20 33 21
f 21 33 34
f 22 35 49
f 22 49 40
f 22 40 27
f 22 27 39
f 22 39 36
f 23 25 24
f 26 37 27
f 27 37 38
f 27 38 39
f 27 40 28
f 28 40 41
f 28 41 29
f 29 41 42
f 29 42 31
f 29 31 30
f 32 43 44
f 32 44 34
f 32 34 33
f 35 45 43
f 35 43 46
f 35 46 47
f 35 47 48
f 35 48 49
f 36 39 38
f 43 45 50
f 43 50 44

