# https://github.com/mikedh/trimesh
v 0.01049795 -0.00073724 -0.11350401
v 0.01049795 -0.03291545 -0.11350401
v 0.01049795 -0.00073724 -0.11807843
v -0.03761860 -0.00073724 -0.11501568
v -0.03905433 -0.00081944 -0.11351923
v -0.03709960 -0.01446402 -0.11350401
v 0.00994015 -0.03138002 -0.11807843
v 0.00552623 -0.03367823 -0.11350401
v 0.00338718 -0.03406948 -0.11807843
v 0.00554078 -0.03347109 -0.11807843
v 0.00784475 -0.03253734 -0.11807843
v -0.02685058 -0.00093451 -0.11807843
v -0.03511091 -0.00073724 -0.11615347
v -0.03758464 -0.00562628 -0.11457150
v -0.03855959 -0.00337410 -0.11401716
v -0.03484413 -0.00562628 -0.11620496
v -0.03484413 -0.00787188 -0.11602272
v -0.03785142 -0.01012077 -0.11381342
v -0.03656605 -0.01239925 -0.11431627
v -0.03505756 -0.01461526 -0.11477075
v -0.03564931 -0.01686415 -0.11384208
v -0.03483928 -0.01941224 -0.11359983
v -0.03381584 -0.02132248 -0.11350401
v 0.00346479 -0.03390180 -0.11350401
v 0.00111717 -0.03432593 -0.11807843
v -0.02518687 -0.01685100 -0.11807843
v -0.02965900 -0.00632988 -0.11797454
v -0.02946498 -0.00337410 -0.11784962
v -0.03289910 -0.00562628 -0.11701453
v -0.03736637 -0.00787188 -0.11448373
v -0.03272934 -0.00787188 -0.11696080
v -0.03559595 -0.01012077 -0.11532867
v -0.03245286 -0.01012077 -0.11684886
v -0.03259837 -0.01461526 -0.11595108
v -0.03322893 -0.01715020 -0.11508151
v -0.03286030 -0.01919853 -0.11467986
v -0.03230735 -0.02330506 -0.11350401
v -0.03156523 -0.02147372 -0.11448284
v 0.00115597 -0.03402016 -0.11350401
v -0.00112860 -0.03402016 -0.11350401
v -0.00345682 -0.03390180 -0.11350401
v -0.00112860 -0.03420428 -0.11807843
v -0.02749084 -0.01367494 -0.11794052
v -0.02219899 -0.02136851 -0.11807843
v -0.03013434 -0.01492103 -0.11683721
v -0.02953773 -0.00993665 -0.11783037
v -0.03165253 -0.01254721 -0.11678438
v -0.02946013 -0.01702197 -0.11659004
v -0.03034776 -0.01910976 -0.11569719
v -0.02020060 -0.02368316 -0.11807843
v -0.01793544 -0.02591561 -0.11807843
v -0.02983361 -0.02543230 -0.11350401
v -0.00652231 -0.03347109 -0.11350401
v -0.00345682 -0.03377029 -0.11807843
v -0.01531134 -0.02814148 -0.11807843
v -0.02800014 -0.02655345 -0.11350401
v -0.01259023 -0.02993337 -0.11807843
v -0.01012620 -0.03263269 -0.11350401
v -0.00562497 -0.03315217 -0.11807843
v -0.01253203 -0.03195211 -0.11350401
v -0.00995158 -0.03138988 -0.11807843
v -0.02523053 -0.02778968 -0.11350401
v -0.01836713 -0.03009118 -0.11350401
v -0.00787073 -0.03230391 -0.11807843
f 1 2 3
f 1 3 13
f 1 13 4
f 1 4 5
f 1 5 6
f 1 6 23
f 1 23 37
f 1 37 52
f 1 52 56
f 1 56 62
f 1 62 63
f 1 63 60
f 1 60 58
f 1 58 53
f 1 53 41
f 1 41 40
f 1 40 39
f 1 39 24
f 1 24 8
f 1 8 2
f 2 7 3
f 2 8 9
f 2 9 10
f 2 10 11
f 2 11 7
f 3 7 11
f 3 11 10
f 3 10 9
f 3 9 25
f 3 25 42
f 3 42 54
f 3 54 59
f 3 59 64
f 3 64 61
f 3 61 57
f 3 57 55
f 3 55 51
f 3 51 50
f 3 50 44
f 3 44 26
f 3 26 12
f 3 12 13
f 4 14 15
f 4 15 5
f 4 13 16
f 4 16 17
f 4 17 14
f 5 15 18
f 5 18 6
f 6 18 19
f 6 19 20
f 6 20 21
f 6 21 22
f 6 22 23
f 8 24 25
f 8 25 9
f 12 26 27
f 12 27 28
f 12 28 13
f 13 28 27
f 13 27 29
f 13 29 16
f 14 30 18
f 14 18 15
f 14 17 30
f 16 29 31
f 16 31 17
f 17 32 30
f 17 31 33
f 17 33 32
f 18 30 32
f 18 32 19
f 19 32 20
f 20 22 21
f 20 32 33
f 20 33 34
f 20 34 35
f 20 35 22
f 22 35 36
f 22 36 23
f 23 36 38
f 23 38 37
f 24 39 25
f 25 40 41
f 25 41 42
f 25 39 40
f 26 43 27
f 26 44 45
f 26 45 43
f 27 43 46
f 27 46 31
f 27 31 29
f 31 46 33
f 33 46 47
f 33 47 34
f 34 47 45
f 34 45 48
f 34 48 35
f 35 48 49
f 35 49 36
f 36 49 38
f 37 38 50
f 37 50 51
f 37 51 52
f 38 49 44
f 38 44 50
f 41 53 42
f 42 53 54
f 43 45 47
f 43 47 46
f 44 49 48
f 44 48 45
f 51 55 52
f 52 55 57
f 52 57 56
f 53 58 54
f 54 58 60
f 54 60 59
f 56 57 61
f 56 61 62
f 59 60 63
f 59 63 62
f 59 62 64
f 61 64 62

