# https://github.com/mikedh/trimesh
v 0.00967639 -0.02048767 -0.12547453
v 0.01205725 -0.02086334 -0.12307769
v 0.01236200 -0.02153055 -0.12927811
v 0.01011447 -0.02111340 -0.12927811
v 0.00475910 -0.02048767 -0.12932905
v -0.01467194 -0.02048767 -0.13150077
v -0.01793214 -0.02085642 -0.12307769
v 0.01308579 -0.02360938 -0.12307769
v 0.01380322 -0.02300440 -0.12898576
v 0.01370799 -0.02296407 -0.13078875
v 0.01236200 -0.02195346 -0.13110656
v 0.00178461 -0.02048767 -0.13076430
v -0.01279899 -0.02048767 -0.13206917
v -0.01169427 -0.02520653 -0.13238291
v -0.01385292 -0.02585761 -0.13087940
v -0.01626553 -0.02074465 -0.12998810
v -0.01711630 -0.02092441 -0.12703304
v -0.01701789 -0.02370157 -0.12307769
v 0.01324451 -0.02588872 -0.12307769
v 0.01416829 -0.02585761 -0.12703304
v 0.01449843 -0.02585761 -0.12927811
v 0.01397147 -0.02585761 -0.13120434
v 0.01186678 -0.02390323 -0.13243282
v -0.00873565 -0.02048767 -0.13198157
v -0.00649128 -0.02048767 -0.13173913
v -0.01098636 -0.02048767 -0.13215575
v -0.00705317 -0.02446673 -0.13275063
v -0.00129465 -0.03225889 -0.13348405
v -0.00356123 -0.03225889 -0.13286676
v -0.01236409 -0.02743978 -0.13100062
v -0.01364976 -0.02715976 -0.12988114
v -0.01462115 -0.02585761 -0.12927811
v -0.01574174 -0.02477901 -0.12721334
v -0.01611633 -0.02530563 -0.12307769
v 0.01268580 -0.02812427 -0.12307769
v 0.01347307 -0.02925933 -0.12688024
v 0.01436193 -0.02810238 -0.12927811
v 0.01383814 -0.02888482 -0.13105970
v 0.01224772 -0.02810238 -0.13255404
v 0.01217153 -0.02585761 -0.13253570
v 0.00336868 -0.03225889 -0.13337506
v -0.00486277 -0.03225889 -0.13171876
v -0.01400212 -0.02755962 -0.12703304
v -0.01142126 -0.02933884 -0.12843468
v -0.01221806 -0.02909339 -0.12703304
v -0.01524017 -0.02625401 -0.12478390
v -0.01470369 -0.02716667 -0.12307769
v 0.01007002 -0.03206530 -0.12309398
v 0.01130490 -0.03070207 -0.12329466
v -0.00799917 -0.03225889 -0.12307769
v 0.01105729 -0.03196850 -0.12520459
v 0.01340958 -0.03034830 -0.12927811
v 0.01147950 -0.03131051 -0.13210788
v 0.00552733 -0.03225889 -0.13306335
v -0.00647224 -0.03225889 -0.12922820
v -0.01411641 -0.02767255 -0.12478390
v -0.01241805 -0.02923168 -0.12478390
v -0.00744363 -0.03225889 -0.12703304
v -0.00797060 -0.03225889 -0.12482363
v -0.01248789 -0.02929390 -0.12307769
v 0.00995257 -0.03225889 -0.13143761
v 0.01148267 -0.03207221 -0.12703304
v -0.01033876 -0.03078619 -0.12307769
v 0.01166044 -0.03211024 -0.12929034
f 1 2 3
f 1 3 4
f 1 4 5
f 1 5 12
f 1 12 25
f 1 25 24
f 1 24 26
f 1 26 13
f 1 13 6
f 1 6 7
f 1 7 2
f 2 8 9
f 2 9 10
f 2 10 3
f 2 7 18
f 2 18 34
f 2 34 47
f 2 47 60
f 2 60 63
f 2 63 50
f 2 50 35
f 2 35 19
f 2 19 8
f 3 10 11
f 3 11 4
f 4 12 5
f 4 11 12
f 6 13 14
f 6 14 15
f 6 15 16
f 6 16 7
f 7 16 17
f 7 17 18
f 8 19 20
f 8 20 21
f 8 21 9
f 9 21 10
f 10 21 22
f 10 22 23
f 10 23 11
f 11 23 24
f 11 24 25
f 11 25 12
f 13 26 27
f 13 27 14
f 14 27 28
f 14 28 29
f 14 29 30
f 14 30 15
f 15 31 32
f 15 32 16
f 15 30 31
f 16 33 17
f 16 32 33
f 17 33 18
f 18 33 34
f 19 35 36
f 19 36 37
f 19 37 20
f 20 37 21
f 21 37 38
f 21 38 22
f 22 38 39
f 22 39 40
f 22 40 23
f 23 40 41
f 23 41 28
f 23 28 27
f 23 27 26
f 23 26 24
f 28 41 54
f 28 54 61
f 28 61 50
f 28 50 59
f 28 59 58
f 28 58 55
f 28 55 42
f 28 42 29
f 29 42 30
f 30 42 31
f 31 43 32
f 31 42 44
f 31 44 45
f 31 45 43
f 32 43 33
f 33 46 34
f 33 43 46
f 34 46 47
f 35 48 49
f 35 49 36
f 35 50 48
f 36 49 51
f 36 51 52
f 36 52 37
f 37 52 38
f 38 52 53
f 38 53 39
f 39 53 54
f 39 54 41
f 39 41 40
f 42 55 44
f 43 56 47
f 43 47 46
f 43 45 57
f 43 57 56
f 44 55 58
f 44 58 45
f 45 58 59
f 45 59 57
f 47 56 60
f 48 61 62
f 48 62 51
f 48 51 49
f 48 50 61
f 50 63 59
f 51 62 52
f 52 62 64
f 52 64 53
f 53 64 61
f 53 61 54
f 56 57 60
f 57 59 63
f 57 63 60
f 61 64 62

