# https://github.com/mikedh/trimesh
v 0.01049418 0.02457034 -0.11350401
v 0.01049418 -0.00073477 -0.11350401
v 0.01049418 0.02457034 -0.11573973
v -0.02807301 0.02457034 -0.11350401
v 0.01049418 -0.00073477 -0.11807843
v -0.02807301 -0.00073477 -0.11350401
v 0.01049418 0.02340096 -0.11607824
v 0.00931232 0.02457034 -0.11676198
v -0.02807301 0.02457034 -0.11807843
v 0.01049418 0.01434821 -0.11807843
v -0.02667214 -0.00073477 -0.11807843
v -0.02807301 -0.00073477 -0.11766066
v 0.01049418 0.02030905 -0.11692095
v 0.00864020 0.02457034 -0.11732618
v -0.02807301 0.01481645 -0.11807843
v 0.00764336 0.02457034 -0.11807843
v 0.01049418 0.01648628 -0.11774171
v 0.01049418 0.01885972 -0.11726618
v 0.01049418 0.01861693 -0.11731587
v 0.01049418 0.01686038 -0.11766782
f 1 2 5
f 1 5 10
f 1 10 17
f 1 17 20
f 1 20 19
f 1 19 18
f 1 18 13
f 1 13 7
f 1 7 3
f 1 3 8
f 1 8 14
f 1 14 16
f 1 16 9
f 1 9 4
f 1 4 6
f 1 6 2
f 2 6 12
f 2 12 11
f 2 11 5
f 3 7 8
f 4 9 15
f 4 15 12
f 4 12 6
f 5 11 15
f 5 15 9
f 5 9 16
f 5 16 10
f 7 13 8
f 8 13 14
f 10 16 17
f 11 12 15
f 13 18 14
f 14 18 16
f 16 18 19
f 16 19 20
f 16 20 17

