# https://github.com/mikedh/trimesh
v 0.01824534 -0.01853756 0.00943613
v 0.01924450 -0.03035474 0.00970378
v 0.01931931 -0.03259759 0.00786870
v 0.01810107 -0.01853756 0.00781438
v -0.03317166 -0.01853756 0.00970378
v 0.01935137 -0.03259759 0.00970378
v 0.01888117 -0.03484747 0.00786870
v 0.01841098 -0.03474425 0.00565734
v 0.01853387 -0.03253894 0.00544061
v 0.01742784 -0.01853756 0.00392299
v 0.01778583 -0.01853756 0.00573486
v -0.03523411 -0.01882612 0.00392299
v -0.03355636 -0.02212940 0.00935182
v -0.03328387 -0.02333997 0.00970378
v 0.01861402 -0.03496947 0.00970378
v 0.01818122 -0.03618239 0.00786870
v 0.01814382 -0.03612374 0.00643086
v 0.01762553 -0.03542461 0.00493247
v 0.01776446 -0.03329437 0.00417083
v 0.01692024 -0.03470906 0.00392299
v -0.03507916 -0.02360977 0.00392299
v -0.03387695 -0.02510892 0.00711894
v -0.03172901 -0.03037586 0.00970378
v -0.03380749 -0.03079580 0.00402710
v 0.01795681 -0.03615658 0.00964210
v 0.01296098 -0.04236430 0.00970378
v 0.01365558 -0.04250272 0.00678905
v 0.01323348 -0.04244172 0.00544571
v 0.01338308 -0.04092381 0.00410293
v 0.01206867 -0.04250272 0.00392299
v -0.03483337 -0.02530833 0.00392299
v -0.03446470 -0.02756056 0.00392299
v -0.03345485 -0.03229260 0.00392299
v -0.03152597 -0.03161458 0.00909775
v -0.02948490 -0.03599236 0.00962343
v -0.02836818 -0.03735777 0.00970378
v 0.01329759 -0.04250272 0.00847078
v -0.01502103 -0.04216489 0.00970378
v -0.01287843 -0.04250272 0.00970321
v -0.01655451 -0.04250272 0.00392299
v -0.03128019 -0.03783168 0.00394675
v -0.03156338 -0.03389028 0.00694919
v -0.03051612 -0.03926983 0.00392299
v -0.03122141 -0.03311372 0.00844758
v -0.02984289 -0.03714194 0.00794679
v -0.02954901 -0.03861996 0.00724966
v -0.02891318 -0.03792318 0.00874805
v -0.02682936 -0.03860120 0.00960702
v -0.02393338 -0.03993846 0.00970378
v -0.01727049 -0.04177309 0.00970378
v -0.02557372 -0.04201942 0.00392299
v -0.02298764 -0.04228688 0.00392299
v -0.02085573 -0.04239245 0.00392299
v -0.01862764 -0.04247926 0.00392299
v -0.02939406 -0.04061413 0.00427778
v -0.02982686 -0.03935898 0.00547739
v -0.02779646 -0.04144464 0.00392299
v -0.02852313 -0.04011911 0.00613096
v -0.02796745 -0.03930736 0.00776459
v -0.02702171 -0.04048744 0.00678169
v -0.02209000 -0.04060474 0.00970378
v -0.01951995 -0.04129449 0.00970378
v -0.02584622 -0.04130622 0.00562112
v -0.02790333 -0.04075020 0.00547739
f 1 2 3
f 1 3 4
f 1 4 11
f 1 11 10
f 1 10 5
f 1 5 2
f 2 6 3
f 2 5 14
f 2 14 23
f 2 23 36
f 2 36 49
f 2 49 61
f 2 61 62
f 2 62 50
f 2 50 38
f 2 38 26
f 2 26 15
f 2 15 6
f 3 6 7
f 3 7 8
f 3 8 9
f 3 9 10
f 3 10 11
f 3 11 4
f 5 12 13
f 5 13 14
f 5 10 12
f 6 15 7
f 7 15 16
f 7 16 17
f 7 17 8
f 8 17 18
f 8 18 19
f 8 19 9
f 9 19 10
f 10 19 20
f 10 20 30
f 10 30 40
f 10 40 54
f 10 54 53
f 10 53 52
f 10 52 51
f 10 51 57
f 10 57 43
f 10 43 33
f 10 33 32
f 10 32 31
f 10 31 21
f 10 21 12
f 12 21 13
f 13 21 22
f 13 22 14
f 14 22 24
f 14 24 23
f 15 25 16
f 15 26 25
f 16 25 27
f 16 27 17
f 17 27 28
f 17 28 29
f 17 29 18
f 18 29 20
f 18 20 19
f 20 29 30
f 21 31 22
f 22 31 32
f 22 32 24
f 23 24 33
f 23 33 34
f 23 34 35
f 23 35 36
f 24 32 33
f 25 26 37
f 25 37 27
f 26 38 39
f 26 39 37
f 27 37 39
f 27 39 40
f 27 40 30
f 27 30 28
f 28 30 29
f 33 41 42
f 33 42 34
f 33 43 41
f 34 44 45
f 34 45 35
f 34 42 44
f 35 45 46
f 35 46 47
f 35 47 36
f 36 47 48
f 36 48 49
f 38 50 51
f 38 51 39
f 39 51 52
f 39 52 53
f 39 53 54
f 39 54 40
f 41 43 46
f 41 46 45
f 41 45 42
f 42 45 44
f 43 55 56
f 43 56 46
f 43 57 55
f 46 56 55
f 46 55 58
f 46 58 59
f 46 59 47
f 47 59 48
f 48 59 60
f 48 60 49
f 49 60 61
f 50 62 51
f 51 62 63
f 51 63 57
f 55 57 64
f 55 64 58
f 57 63 60
f 57 60 64
f 58 64 60
f 58 60 59
f 60 63 61
f 61 63 62

