# https://github.com/mikedh/trimesh
v -0.01742238 -0.04458317 -0.06640480
v -0.01405474 -0.04382500 -0.05789927
v -0.01995588 -0.04359484 -0.04498883
v -0.02219407 -0.04443425 -0.05832672
v -0.01861401 -0.04443425 -0.07504075
v 0.01049795 -0.04079909 -0.08458955
v 0.01049795 -0.03953322 -0.07057064
v -0.01349001 -0.04142864 -0.03948993
v -0.02694503 -0.04295852 -0.04090269
v -0.02810039 -0.04335115 -0.05284231
v -0.02886718 -0.04332407 -0.07170808
v -0.01981081 -0.04391978 -0.08303913
v 0.01049795 -0.03983784 -0.09450059
v 0.01049795 -0.03505189 -0.05747182
v -0.00636616 -0.03769871 -0.03948993
v -0.03585115 -0.03842981 -0.03948993
v -0.02962360 -0.04287729 -0.05284231
v -0.03300160 -0.04124587 -0.06366623
v -0.03547293 -0.03999353 -0.09165334
v -0.03257158 -0.04145572 -0.08419108
v -0.02337015 -0.04301268 -0.08995079
v 0.01049795 -0.03752271 -0.10335389
v 0.01049795 -0.03028624 -0.04963282
v 0.00254514 -0.02973792 -0.03948993
v -0.04151396 -0.00959225 -0.03948993
v -0.04056066 -0.02759880 -0.03975800
v -0.03867996 -0.03606052 -0.06520939
v -0.03790800 -0.03775964 -0.07533054
v -0.02937491 -0.04055539 -0.09776805
v -0.03860743 -0.03666300 -0.07756198
v -0.03815668 -0.03411771 -0.10157888
v 0.00223946 -0.03390109 -0.11350401
v 0.01049795 -0.03389432 -0.11161309
v 0.01049795 -0.02125589 -0.03948993
v -0.04175747 -0.01770873 -0.04279362
v -0.04012545 -0.00039266 -0.03948993
v -0.04109948 -0.00147576 -0.09920254
v -0.04243100 -0.01292278 -0.09610896
v -0.04207351 -0.01348464 -0.06408643
v -0.04124973 -0.02514828 -0.05200191
v -0.04033788 -0.03029301 -0.05396528
v -0.04050885 -0.03052994 -0.07083145
v -0.03108982 -0.02869544 -0.11127983
v -0.00815878 -0.03298722 -0.11350401
v -0.04106840 -0.02809973 -0.08937119
v -0.03987677 -0.02651570 -0.10632430
v 0.01049795 0.02457281 -0.11350401
v 0.01049795 0.02457281 -0.03948993
v -0.04197507 -0.01685579 -0.05508824
v -0.04189736 -0.02247438 -0.08206107
v -0.03665420 0.01110852 -0.03948993
v -0.03859707 0.00758844 -0.11350401
v -0.04231702 -0.01615178 -0.10417256
v -0.04236364 -0.01517022 -0.08711803
v -0.04138962 -0.02528367 -0.06492684
v -0.03783028 -0.01894076 -0.11159860
v -0.01836532 -0.03008993 -0.11350401
v -0.04051403 -0.00752082 -0.11025829
v -0.03234880 0.02182445 -0.11053360
v -0.03040075 0.02457281 -0.07709831
v -0.03232289 0.02045703 -0.03975800
v -0.03533823 0.01602986 -0.10229613
v -0.03185660 0.02243369 -0.09048691
v -0.03151466 0.02254200 -0.06407918
f 1 2 3
f 1 3 4
f 1 4 5
f 1 5 6
f 1 6 2
f 2 6 7
f 2 7 8
f 2 8 3
f 3 8 9
f 3 9 4
f 4 10 11
f 4 11 5
f 4 9 10
f 5 12 6
f 5 11 12
f 6 12 13
f 6 13 22
f 6 22 33
f 6 33 47
f 6 47 48
f 6 48 34
f 6 34 23
f 6 23 14
f 6 14 7
f 7 14 8
f 8 15 24
f 8 24 34
f 8 34 48
f 8 48 51
f 8 51 36
f 8 36 25
f 8 25 16
f 8 16 9
f 8 14 15
f 9 16 17
f 9 17 10
f 10 17 11
f 11 17 18
f 11 18 19
f 11 19 20
f 11 20 21
f 11 21 12
f 12 21 13
f 13 21 22
f 14 23 15
f 15 23 24
f 16 25 26
f 16 26 27
f 16 27 28
f 16 28 18
f 16 18 17
f 18 28 19
f 19 29 21
f 19 21 20
f 19 28 30
f 19 30 31
f 19 31 29
f 21 29 22
f 22 32 33
f 22 29 32
f 23 34 24
f 25 35 26
f 25 36 37
f 25 37 38
f 25 38 39
f 25 39 35
f 26 35 40
f 26 40 41
f 26 41 27
f 27 41 42
f 27 42 30
f 27 30 28
f 29 31 43
f 29 43 44
f 29 44 32
f 30 45 31
f 30 42 45
f 31 46 43
f 31 45 46
f 32 44 57
f 32 57 52
f 32 52 47
f 32 47 33
f 35 39 49
f 35 49 50
f 35 50 40
f 36 51 52
f 36 52 37
f 37 52 53
f 37 53 38
f 38 54 39
f 38 53 54
f 39 54 49
f 40 55 41
f 40 50 55
f 41 55 42
f 42 55 45
f 43 56 57
f 43 57 44
f 43 46 56
f 45 55 50
f 45 50 53
f 45 53 46
f 46 53 58
f 46 58 56
f 47 52 59
f 47 59 60
f 47 60 48
f 48 60 61
f 48 61 51
f 49 54 50
f 50 54 53
f 51 61 62
f 51 62 52
f 52 57 56
f 52 56 58
f 52 58 53
f 52 62 59
f 59 62 63
f 59 63 60
f 60 63 64
f 60 64 61
f 61 64 62
f 62 64 63

