# https://github.com/mikedh/trimesh
v -0.00368704 0.00557715 0.02357902
v -0.00368704 0.00561022 0.04828460
v -0.00368704 0.01713777 0.03741076
v -0.00359518 0.01843536 0.03273085
v -0.00352764 0.01884673 0.03041870
v -0.00293324 0.01800018 0.02357902
v 0.02391455 0.00557715 0.02357902
v -0.00368704 0.00820143 0.04771382
v 0.01950251 0.00561947 0.03955118
v 0.01756802 0.00613005 0.04084270
v -0.00368704 0.01628329 0.03981964
v -0.00112303 0.01866023 0.03260266
v -0.00284138 0.01814436 0.03413119
v -0.00112303 0.01909011 0.03035340
v -0.00089338 0.01774755 0.02357902
v 0.01912966 0.00989585 0.02357902
v 0.02301215 0.00704537 0.02358627
v 0.02274737 0.00705066 0.02545098
v 0.02048597 0.00611285 0.03709635
v -0.00368704 0.01011939 0.04702937
v 0.01869197 0.00738002 0.03893445
v 0.00731199 0.01380053 0.03854264
v -0.00368704 0.01204660 0.04583944
v -0.00368704 0.01516691 0.04196975
v -0.00112303 0.01628461 0.03889092
v -0.00112303 0.01705841 0.03709635
v -0.00047460 0.01808616 0.03396190
v 0.00100328 0.01828193 0.03257606
v 0.00112487 0.01875546 0.03035340
v 0.00112487 0.01841949 0.02839679
v 0.00268921 0.01819330 0.02884906
v 0.00091953 0.01724094 0.02357902
v 0.02105605 0.00874640 0.02359353
v 0.01664401 0.01113127 0.02357902
v 0.01369904 0.01359022 0.02873055
v 0.01495268 0.01305981 0.03035340
v 0.01646299 0.01193813 0.03035340
v 0.01858930 0.00964850 0.03260266
v 0.01889461 0.00802551 0.03701654
v 0.01758693 0.00887999 0.03771550
v 0.00839811 0.01382434 0.03764778
v 0.00535859 0.01561399 0.03669487
v 0.00180842 0.01593012 0.03845558
v -0.00368704 0.01391825 0.04391668
v 0.00337276 0.01690497 0.03485192
v 0.00562336 0.01717613 0.03260266
v 0.00272163 0.01812452 0.03180938
v 0.00562336 0.01753194 0.03035340
v 0.00787126 0.01673698 0.03035340
v 0.00785775 0.01619070 0.02818154
v 0.00507220 0.01600948 0.02357902
v 0.01462846 0.01208231 0.02357902
v 0.00921676 0.01587192 0.03182872
v 0.01364771 0.01327409 0.03274536
v 0.01679261 0.01123709 0.03260266
v 0.01819754 0.00923845 0.03553396
v 0.01675208 0.01054266 0.03479388
v 0.00957610 0.01387725 0.03657152
v 0.00610698 0.01595525 0.03533805
v 0.00790368 0.01538780 0.03493657
v 0.00790368 0.01628593 0.03258815
v 0.01226709 0.01312330 0.02357902
v 0.01029207 0.01394471 0.02357902
v 0.01024074 0.01419867 0.03491481
f 1 2 8
f 1 8 20
f 1 20 23
f 1 23 44
f 1 44 24
f 1 24 11
f 1 11 3
f 1 3 4
f 1 4 5
f 1 5 6
f 1 6 15
f 1 15 32
f 1 32 51
f 1 51 63
f 1 63 62
f 1 62 52
f 1 52 34
f 1 34 16
f 1 16 7
f 1 7 2
f 2 7 9
f 2 9 10
f 2 10 8
f 3 11 12
f 3 12 13
f 3 13 4
f 4 13 12
f 4 12 14
f 4 14 5
f 5 14 6
f 6 14 15
f 7 16 17
f 7 17 18
f 7 18 19
f 7 19 9
f 8 10 20
f 9 19 21
f 9 21 10
f 10 21 22
f 10 22 23
f 10 23 20
f 11 24 25
f 11 25 26
f 11 26 12
f 12 26 27
f 12 27 28
f 12 28 29
f 12 29 14
f 14 29 30
f 14 30 15
f 15 30 31
f 15 31 32
f 16 33 17
f 16 34 35
f 16 35 36
f 16 36 33
f 17 33 37
f 17 37 18
f 18 38 39
f 18 39 19
f 18 37 38
f 19 39 21
f 21 40 22
f 21 39 40
f 22 40 41
f 22 41 42
f 22 42 43
f 22 43 44
f 22 44 23
f 24 44 43
f 24 43 25
f 25 43 26
f 26 43 27
f 27 43 28
f 28 43 45
f 28 45 46
f 28 46 47
f 28 47 29
f 29 47 48
f 29 48 31
f 29 31 30
f 31 48 49
f 31 49 50
f 31 50 51
f 31 51 32
f 33 36 37
f 34 52 49
f 34 49 35
f 35 49 36
f 36 49 53
f 36 53 54
f 36 54 55
f 36 55 37
f 37 55 38
f 38 55 56
f 38 56 39
f 39 56 40
f 40 56 57
f 40 57 54
f 40 54 58
f 40 58 41
f 41 58 42
f 42 59 43
f 42 58 60
f 42 60 59
f 43 59 46
f 43 46 45
f 46 59 61
f 46 61 49
f 46 49 48
f 46 48 47
f 49 61 53
f 49 52 62
f 49 62 50
f 50 62 63
f 50 63 51
f 53 61 54
f 54 61 64
f 54 64 58
f 54 57 55
f 55 57 56
f 58 64 60
f 59 60 61
f 60 64 61

