# https://github.com/mikedh/trimesh
v -0.00561664 -0.00658774 -0.12307667
v -0.00336811 -0.00691156 -0.12307667
v -0.00895403 -0.01111311 -0.12830189
v -0.00815436 -0.00670203 -0.12307667
v -0.00336811 -0.01056342 -0.12663440
v -0.00685009 -0.01127774 -0.12812566
v -0.00112548 -0.00747077 -0.12307667
v -0.01011666 -0.01408603 -0.13063405
v -0.01023174 -0.01217166 -0.12913027
v -0.01105798 -0.01129135 -0.12808004
v -0.01024945 -0.00709252 -0.12307667
v -0.00112548 -0.01094575 -0.12623900
v -0.00012220 -0.01352138 -0.12813461
v -0.00336811 -0.01188321 -0.12775710
v 0.00076600 -0.00824087 -0.12307667
v 0.00027911 -0.01784538 -0.13047750
v -0.01011666 -0.01686166 -0.13167087
v -0.01236519 -0.01686166 -0.13183905
v -0.01236519 -0.01493913 -0.13090064
v -0.01236519 -0.01381391 -0.13002038
v -0.01236519 -0.01280842 -0.12889589
v -0.01365471 -0.00874294 -0.12307667
v -0.01240355 -0.00795515 -0.12307667
v 0.00341289 -0.01013075 -0.12307667
v 0.00112010 -0.01401256 -0.12770610
v 0.00255420 -0.01626027 -0.12842803
v 0.00177813 -0.01850119 -0.13023865
v 0.00106403 -0.01700316 -0.12966970
v 0.00247158 -0.02048767 -0.13063763
v 0.00109944 -0.02048767 -0.13089169
v -0.01011666 -0.01911074 -0.13201975
v -0.01236519 -0.01911074 -0.13221566
v -0.01461077 -0.01911074 -0.13192403
v -0.01466389 -0.01676098 -0.13123520
v -0.01395274 -0.01541670 -0.13067520
v -0.01372553 -0.01328191 -0.12839850
v -0.01545176 -0.01594597 -0.13001680
v -0.01487045 -0.00984094 -0.12307667
v 0.00574700 -0.01221928 -0.12307667
v 0.00913455 -0.02048767 -0.12607977
v 0.00476142 -0.02048767 -0.12932976
v -0.00648714 -0.02048767 -0.13173796
v -0.00873862 -0.02048767 -0.13198218
v -0.01279896 -0.02048767 -0.13206895
v -0.01098716 -0.02048767 -0.13215484
v -0.01467274 -0.02048767 -0.13150000
v -0.01624258 -0.01911074 -0.13102140
v -0.01614816 -0.01744400 -0.13088453
v -0.01602127 -0.01101242 -0.12307667
v 0.00781553 -0.01462619 -0.12307667
v 0.00996669 -0.01746033 -0.12307667
v 0.01111161 -0.01911074 -0.12307667
v 0.01021456 -0.02048767 -0.12486940
v -0.01607734 -0.02048767 -0.13066805
v -0.01698914 -0.01911074 -0.12927877
v -0.01811931 -0.01578678 -0.12307667
v -0.01771505 -0.01436767 -0.12307667
v -0.01684160 -0.01237575 -0.12307667
v 0.01180210 -0.02048767 -0.12307667
v -0.01659668 -0.02048767 -0.12930829
v -0.01718390 -0.02048767 -0.12703249
v -0.01800718 -0.02048767 -0.12307667
v -0.01826980 -0.01907944 -0.12307667
v -0.01834357 -0.01723447 -0.12307667
f 1 2 3
f 1 3 4
f 1 4 11
f 1 11 23
f 1 23 22
f 1 22 38
f 1 38 49
f 1 49 58
f 1 58 57
f 1 57 56
f 1 56 64
f 1 64 63
f 1 63 62
f 1 62 59
f 1 59 52
f 1 52 51
f 1 51 50
f 1 50 39
f 1 39 24
f 1 24 15
f 1 15 7
f 1 7 2
f 2 5 6
f 2 6 3
f 2 7 5
f 3 8 9
f 3 9 10
f 3 10 4
f 3 6 8
f 4 10 11
f 5 7 12
f 5 12 13
f 5 13 14
f 5 14 6
f 6 14 13
f 6 13 8
f 7 15 12
f 8 13 16
f 8 16 17
f 8 17 18
f 8 18 19
f 8 19 9
f 9 19 20
f 9 20 10
f 10 20 21
f 10 21 22
f 10 22 23
f 10 23 11
f 12 15 13
f 13 15 24
f 13 24 25
f 13 25 26
f 13 26 27
f 13 27 28
f 13 28 16
f 16 28 27
f 16 27 29
f 16 29 30
f 16 30 17
f 17 31 32
f 17 32 18
f 17 30 31
f 18 32 33
f 18 33 34
f 18 34 19
f 19 34 35
f 19 35 20
f 20 35 21
f 21 35 36
f 21 36 22
f 22 36 37
f 22 37 38
f 24 39 25
f 25 39 26
f 26 39 40
f 26 40 41
f 26 41 27
f 27 41 29
f 29 41 40
f 29 40 53
f 29 53 59
f 29 59 62
f 29 62 61
f 29 61 60
f 29 60 54
f 29 54 46
f 29 46 44
f 29 44 45
f 29 45 43
f 29 43 42
f 29 42 30
f 30 42 31
f 31 42 43
f 31 43 32
f 32 44 33
f 32 43 45
f 32 45 44
f 33 44 46
f 33 46 47
f 33 47 48
f 33 48 34
f 34 48 35
f 35 48 37
f 35 37 36
f 37 48 49
f 37 49 38
f 39 50 40
f 40 50 51
f 40 51 52
f 40 52 53
f 46 54 47
f 47 54 55
f 47 55 48
f 48 55 56
f 48 56 57
f 48 57 58
f 48 58 49
f 52 59 53
f 54 60 55
f 55 61 62
f 55 62 63
f 55 63 64
f 55 64 56
f 55 60 61

