# https://github.com/mikedh/trimesh
v -0.02562079 -0.02872161 0.11127950
v -0.01760410 -0.02281799 0.13103334
v -0.02561207 -0.02239001 0.11401762
v -0.02494001 -0.01549826 0.11542753
v -0.02038398 -0.01517098 0.10515880
v -0.02351734 -0.03584624 0.10762766
v -0.01848563 -0.03487069 0.12226831
v -0.01461038 -0.01797804 0.13402259
v -0.01837217 -0.01401292 0.13253402
v -0.01612033 -0.02965940 0.12803804
v -0.02252234 -0.00817853 0.11663473
v -0.01661783 -0.00229380 0.10515880
v -0.01893949 -0.00896526 0.10515880
v 0.00901203 -0.02353549 0.10515880
v -0.01676621 -0.04297086 0.10636298
v -0.01767392 -0.04056661 0.11317047
v -0.01135483 -0.03486440 0.12543607
v -0.01318335 -0.03981765 0.11934260
v 0.00494040 -0.01856336 0.13511179
v -0.01363721 -0.01240799 0.13521467
v -0.00140924 -0.02931324 0.13123303
v 0.00367920 -0.02499566 0.13311190
v -0.01370267 -0.00615192 0.13497563
v -0.00857932 0.00714066 0.13518742
v -0.01983411 -0.00017907 0.11782982
v -0.01360230 0.00508258 0.10515880
v 0.01099329 -0.01832420 0.10515880
v 0.01224576 -0.02733068 0.11543963
v 0.00459128 -0.03951554 0.11101930
v -0.00126959 -0.04371353 0.10767908
v -0.00892407 -0.04519888 0.10716172
v -0.01200943 -0.04313450 0.11259258
v -0.00584308 -0.03710500 0.12489147
v -0.00560306 -0.04078690 0.12025632
v 0.00917350 -0.01751229 0.13301205
v 0.00855381 -0.01152685 0.13489698
v 0.01278254 0.00898476 0.13574111
v 0.00674274 -0.00281618 0.13606786
v -0.00462988 0.01387507 0.13578044
v -0.01044711 0.00056990 0.13533266
v -0.00136560 -0.03562595 0.12617128
v 0.00302024 -0.03127691 0.12933298
v -0.01060422 0.01740591 0.11859831
v -0.01478495 0.00990995 0.11804766
v -0.01125446 0.01026870 0.10515880
v 0.01242905 -0.01330801 0.10515880
v 0.00819159 -0.03487699 0.11438977
v 0.01405683 -0.02157811 0.11691913
v 0.01614719 -0.01396257 0.11801438
v 0.01580680 0.01142677 0.13344471
v 0.01265598 0.00006639 0.13408915
v 0.01672324 0.01844439 0.13315728
v 0.01095838 0.01446669 0.13603458
v 0.00223035 0.01908636 0.13603155
v -0.00669843 0.01908636 0.11102838
v -0.00650641 0.01546741 0.10515880
v 0.01388227 -0.00671836 0.10515880
v 0.01732548 -0.00674983 0.11804161
v 0.00002652 0.01818635 0.10605739
v 0.01827247 0.00307485 0.11779049
v 0.01896198 0.01573175 0.11738507
v 0.00989356 0.01711010 0.10618144
v 0.01312729 0.01135124 0.10515880
v 0.01538785 0.00398745 0.10515880
f 1 2 3
f 1 3 4
f 1 4 5
f 1 5 6
f 1 6 7
f 1 7 2
f 2 8 9
f 2 9 3
f 2 7 10
f 2 10 8
f 3 9 4
f 4 9 11
f 4 11 12
f 4 12 13
f 4 13 5
f 5 14 15
f 5 15 6
f 5 13 12
f 5 12 26
f 5 26 45
f 5 45 56
f 5 56 63
f 5 63 64
f 5 64 57
f 5 57 46
f 5 46 27
f 5 27 14
f 6 15 16
f 6 16 7
f 7 17 10
f 7 16 18
f 7 18 17
f 8 19 20
f 8 20 9
f 8 10 21
f 8 21 22
f 8 22 19
f 9 20 23
f 9 23 24
f 9 24 25
f 9 25 11
f 10 17 21
f 11 25 12
f 12 25 26
f 14 27 28
f 14 28 29
f 14 29 30
f 14 30 31
f 14 31 15
f 15 31 32
f 15 32 16
f 16 32 18
f 17 18 33
f 17 33 21
f 18 32 34
f 18 34 33
f 19 22 35
f 19 35 36
f 19 36 37
f 19 37 38
f 19 38 20
f 20 38 39
f 20 39 40
f 20 40 23
f 21 33 41
f 21 41 42
f 21 42 22
f 22 42 35
f 23 40 24
f 24 39 43
f 24 43 44
f 24 44 25
f 24 40 39
f 25 44 45
f 25 45 26
f 27 46 28
f 28 47 29
f 28 46 48
f 28 48 35
f 28 35 42
f 28 42 47
f 29 47 42
f 29 42 41
f 29 41 34
f 29 34 30
f 30 34 31
f 31 34 32
f 33 34 41
f 35 48 49
f 35 49 50
f 35 50 51
f 35 51 36
f 36 51 37
f 37 50 52
f 37 52 53
f 37 53 38
f 37 51 50
f 38 53 54
f 38 54 39
f 39 54 43
f 43 54 55
f 43 55 45
f 43 45 44
f 45 55 56
f 46 57 49
f 46 49 48
f 49 57 58
f 49 58 50
f 50 58 52
f 52 59 55
f 52 55 54
f 52 54 53
f 52 58 60
f 52 60 61
f 52 61 62
f 52 62 59
f 55 59 56
f 56 59 62
f 56 62 63
f 57 64 58
f 58 64 60
f 60 64 61
f 61 64 63
f 61 63 62

