# https://github.com/mikedh/trimesh
v -0.00786844 0.04547849 -0.12190312
v -0.00956486 0.04526978 -0.12178150
v -0.00581305 0.04521249 -0.12158294
v 0.00303335 0.04531275 -0.12707957
v 0.00112155 0.04518180 -0.12707957
v -0.00104286 0.04449019 -0.12707957
v -0.00528126 0.04303128 -0.12707957
v -0.00644855 0.04262409 -0.12707957
v -0.01021365 0.04438584 -0.12265214
v -0.01334858 0.04270185 -0.12158294
v -0.00427883 0.04459864 -0.12158294
v 0.00431231 0.04498741 -0.12707957
v -0.00784451 0.04194477 -0.12707957
v -0.01133840 0.04280416 -0.12372994
v -0.01219990 0.04313768 -0.12231421
v -0.01559807 0.04034671 -0.12158294
v -0.00237234 0.04367787 -0.12158294
v 0.00575614 0.04389885 -0.12705320
v 0.00680377 0.04251974 -0.12707957
v -0.00034621 0.04252178 -0.12158294
v 0.00096467 0.04160101 -0.12158294
v -0.00947978 0.04090736 -0.12707957
v -0.01061782 0.03967352 -0.12707957
v -0.01348685 0.04046743 -0.12365891
v -0.01630802 0.03895122 -0.12195208
v -0.01987370 0.03454583 -0.12170294
v -0.01845913 0.03655312 -0.12158294
v 0.00320086 0.03899215 -0.12158294
v 0.00396931 0.03707898 -0.12158294
v 0.00729036 0.04128385 -0.12707957
v -0.01148996 0.03855018 -0.12707957
v -0.01987370 0.03260811 -0.12250739
v -0.01987370 0.03018341 -0.12194724
v -0.01607403 0.02457487 -0.12161146
v 0.00287913 0.02493295 -0.12158294
v 0.00419798 0.03563439 -0.12158294
v 0.00722655 0.03934409 -0.12707957
v 0.00433359 0.03342453 -0.12158294
v 0.00438411 0.03165460 -0.12158294
v -0.01206961 0.03709535 -0.12707957
v -0.01213077 0.03449468 -0.12707957
v -0.01142880 0.03260197 -0.12707957
v -0.01466211 0.02457487 -0.12247565
v 0.00146721 0.02457487 -0.12234650
v 0.00491590 0.03560984 -0.12707957
v 0.00608585 0.03714242 -0.12707957
v 0.00349069 0.02699548 -0.12158294
v 0.00413948 0.03009133 -0.12158294
v 0.00393474 0.02888818 -0.12158294
v -0.01002486 0.03078703 -0.12707957
v -0.01272106 0.02457487 -0.12336888
v 0.00015368 0.02457487 -0.12299006
v 0.00073334 0.03150932 -0.12707957
v 0.00274352 0.03325470 -0.12707957
v -0.00786844 0.02956342 -0.12707957
v -0.01161227 0.02457487 -0.12379504
v -0.00164644 0.02457487 -0.12369496
v -0.00097638 0.03027753 -0.12707957
v -0.00562427 0.02910508 -0.12707957
v -0.00786844 0.02457487 -0.12450964
v -0.01001157 0.02457487 -0.12420239
v -0.00337743 0.02457487 -0.12418140
v -0.00337743 0.02933834 -0.12707957
v -0.00551525 0.02457487 -0.12452685
f 1 2 3
f 1 3 4
f 1 4 5
f 1 5 2
f 2 5 6
f 2 6 7
f 2 7 8
f 2 8 9
f 2 9 10
f 2 10 3
f 3 10 16
f 3 16 27
f 3 27 35
f 3 35 47
f 3 47 49
f 3 49 48
f 3 48 39
f 3 39 38
f 3 38 36
f 3 36 29
f 3 29 28
f 3 28 21
f 3 21 20
f 3 20 17
f 3 17 11
f 3 11 12
f 3 12 4
f 4 12 19
f 4 19 30
f 4 30 37
f 4 37 46
f 4 46 45
f 4 45 54
f 4 54 53
f 4 53 58
f 4 58 63
f 4 63 59
f 4 59 55
f 4 55 50
f 4 50 42
f 4 42 41
f 4 41 40
f 4 40 31
f 4 31 23
f 4 23 22
f 4 22 13
f 4 13 8
f 4 8 7
f 4 7 6
f 4 6 5
f 8 13 9
f 9 14 15
f 9 15 10
f 9 13 14
f 10 15 14
f 10 14 16
f 11 17 12
f 12 18 19
f 12 17 20
f 12 20 21
f 12 21 18
f 13 22 14
f 14 22 23
f 14 23 24
f 14 24 16
f 16 25 26
f 16 26 27
f 16 24 25
f 18 21 28
f 18 28 19
f 19 28 29
f 19 29 30
f 23 31 24
f 24 31 26
f 24 26 25
f 26 31 32
f 26 32 33
f 26 33 34
f 26 34 27
f 27 34 35
f 29 36 30
f 30 36 38
f 30 38 39
f 30 39 37
f 31 40 32
f 32 40 41
f 32 41 42
f 32 42 33
f 33 43 34
f 33 42 43
f 34 44 35
f 34 43 51
f 34 51 56
f 34 56 61
f 34 61 60
f 34 60 64
f 34 64 62
f 34 62 57
f 34 57 52
f 34 52 44
f 35 44 45
f 35 45 46
f 35 46 37
f 35 37 47
f 37 39 48
f 37 48 49
f 37 49 47
f 42 50 43
f 43 50 51
f 44 52 53
f 44 53 54
f 44 54 45
f 50 55 56
f 50 56 51
f 52 57 58
f 52 58 53
f 55 59 60
f 55 60 61
f 55 61 56
f 57 62 58
f 58 62 63
f 59 64 60
f 59 63 64
f 62 64 63

