# https://github.com/mikedh/trimesh
v -0.03333871 0.00606114 -0.11807843
v -0.03320788 0.00606114 -0.11807843
v -0.03333871 0.00606114 -0.11350401
v -0.03333871 0.02186538 -0.11807843
v -0.03309972 0.00606114 -0.11807082
v -0.02820349 0.01452958 -0.11807843
v -0.02807730 0.00606114 -0.11350401
v -0.03333871 0.01996438 -0.11350401
v -0.03333871 0.02186538 -0.11803768
v -0.03253469 0.02360691 -0.11807843
v -0.02807730 0.00606114 -0.11583689
v -0.02816640 0.01459844 -0.11807843
v -0.02807730 0.02457282 -0.11350401
v -0.03268509 0.02135797 -0.11350401
v -0.03333871 0.02017097 -0.11351207
v -0.03253314 0.02360691 -0.11803768
v -0.03207834 0.02457282 -0.11807843
v -0.02812262 0.01469268 -0.11807843
v -0.02807730 0.01481772 -0.11807843
v -0.02807730 0.02457282 -0.11807843
v -0.03077831 0.02457282 -0.11350401
v -0.03267015 0.02138515 -0.11350401
v -0.03207679 0.02457282 -0.11803768
v -0.03165650 0.02457282 -0.11650407
v -0.03108683 0.02408714 -0.11350401
v -0.03175900 0.02296358 -0.11350401
v -0.03181772 0.02457282 -0.11705930
v -0.03109817 0.02406902 -0.11350401
f 1 2 5
f 1 5 11
f 1 11 7
f 1 7 3
f 1 3 8
f 1 8 15
f 1 15 9
f 1 9 4
f 1 4 10
f 1 10 17
f 1 17 20
f 1 20 19
f 1 19 18
f 1 18 12
f 1 12 6
f 1 6 2
f 2 6 5
f 3 7 13
f 3 13 21
f 3 21 25
f 3 25 28
f 3 28 26
f 3 26 22
f 3 22 14
f 3 14 8
f 4 9 10
f 5 6 11
f 6 12 11
f 7 11 19
f 7 19 20
f 7 20 13
f 8 14 15
f 9 15 16
f 9 16 10
f 10 16 23
f 10 23 17
f 11 12 18
f 11 18 19
f 13 20 17
f 13 17 23
f 13 23 27
f 13 27 24
f 13 24 21
f 14 22 23
f 14 23 15
f 15 23 16
f 21 24 25
f 22 26 27
f 22 27 23
f 24 27 28
f 24 28 25
f 26 28 27

