# https://github.com/mikedh/trimesh
v 0.01756451 -0.04058747 -0.08542298
v 0.01738764 -0.04052369 -0.08923854
v 0.02211226 -0.03977098 -0.09160790
v 0.02211226 -0.03985390 -0.08490756
v 0.01716749 -0.04054920 -0.08156125
v 0.01570854 -0.04044076 -0.07812261
v 0.01681749 -0.04027491 -0.09276180
v 0.02061152 -0.03957961 -0.09666968
v 0.02230107 -0.03654964 -0.10814717
v 0.02277943 -0.03282437 -0.11320896
v 0.02286674 -0.03276059 -0.05883704
v 0.02211226 -0.03952220 -0.07878418
v 0.01911003 -0.03989855 -0.07644560
v 0.01524361 -0.03330279 -0.11239353
v 0.01589809 -0.03868019 -0.10141607
v 0.01605331 -0.03974546 -0.09666968
v 0.01681749 -0.03954134 -0.07268388
v 0.01524361 -0.03722580 -0.06409115
v 0.01983689 -0.03866105 -0.10198533
v 0.01778465 -0.03628811 -0.10803948
v 0.01524361 -0.02946270 -0.11677068
v 0.02286674 -0.02866534 -0.11630911
v 0.02286674 -0.03015800 -0.05626768
v 0.01524361 -0.02675168 -0.04912887
v 0.01524361 -0.02938616 -0.05198286
v 0.01524361 -0.03287541 -0.05632923
v 0.01524361 -0.03554178 -0.06058329
v 0.02225928 -0.03670274 -0.06496812
v 0.02211226 -0.03903103 -0.07430703
v 0.02191301 -0.03843141 -0.07034530
v 0.01697421 -0.03822729 -0.06736054
v 0.01524361 0.00838959 -0.11807843
v 0.02286674 -0.02548228 -0.11792458
v 0.02286674 -0.02685374 -0.05363679
v 0.01524361 -0.01920546 -0.04236700
v 0.01524361 -0.02294348 -0.04559793
v 0.01524361 0.01482588 -0.11609371
v 0.02286674 0.00541065 -0.11790150
v 0.02286674 -0.02375998 -0.05152899
v 0.01527346 -0.01563966 -0.03996688
v 0.01524361 0.01971849 -0.11405516
v 0.02286674 0.00936556 -0.11628603
v 0.02286674 -0.02007937 -0.04935196
v 0.02286674 -0.01563966 -0.04725955
v 0.01716376 -0.00957972 -0.03948993
v 0.01615854 0.02433042 -0.03948993
v 0.01529436 0.02357133 -0.11170888
v 0.02286674 0.01274637 -0.11460134
v 0.02286674 -0.01061948 -0.04542869
v 0.01854510 -0.00170818 -0.03948993
v 0.02286674 -0.00400458 -0.04422863
v 0.01768316 0.02456644 -0.10861643
v 0.01817197 0.01999278 -0.03948993
v 0.02286674 0.02168956 -0.05212133
v 0.02286301 0.02410078 -0.05499070
v 0.02286674 0.01973124 -0.10888567
v 0.02286674 0.01658645 -0.11187043
v 0.01893838 0.00449209 -0.03948993
v 0.02286674 0.00270600 -0.04433633
v 0.01889062 0.01572530 -0.03948993
v 0.02239808 0.02411354 -0.10390850
v 0.02286674 0.01306531 -0.04654413
v 0.02286674 0.01802170 -0.04908272
v 0.02286674 0.00899558 -0.04532869
f 1 2 3
f 1 3 4
f 1 4 5
f 1 5 6
f 1 6 2
f 2 6 7
f 2 7 8
f 2 8 3
f 3 8 9
f 3 9 10
f 3 10 11
f 3 11 4
f 4 12 5
f 4 11 12
f 5 12 13
f 5 13 6
f 6 14 15
f 6 15 16
f 6 16 7
f 6 13 17
f 6 17 18
f 6 18 14
f 7 16 8
f 8 16 19
f 8 19 9
f 9 14 10
f 9 19 15
f 9 15 20
f 9 20 14
f 10 14 21
f 10 21 22
f 10 22 11
f 11 23 24
f 11 24 25
f 11 25 26
f 11 26 27
f 11 27 28
f 11 28 29
f 11 29 12
f 11 22 33
f 11 33 38
f 11 38 42
f 11 42 48
f 11 48 57
f 11 57 56
f 11 56 54
f 11 54 63
f 11 63 62
f 11 62 64
f 11 64 59
f 11 59 51
f 11 51 49
f 11 49 44
f 11 44 43
f 11 43 39
f 11 39 34
f 11 34 23
f 12 29 13
f 13 29 30
f 13 30 17
f 14 20 15
f 14 18 27
f 14 27 26
f 14 26 25
f 14 25 24
f 14 24 36
f 14 36 35
f 14 35 41
f 14 41 37
f 14 37 32
f 14 32 21
f 15 19 16
f 17 30 31
f 17 31 18
f 18 31 28
f 18 28 27
f 21 32 33
f 21 33 22
f 23 34 35
f 23 35 36
f 23 36 24
f 28 31 30
f 28 30 29
f 32 37 38
f 32 38 33
f 34 39 35
f 35 39 40
f 35 40 41
f 37 42 38
f 37 41 42
f 39 43 40
f 40 43 44
f 40 44 45
f 40 45 46
f 40 46 47
f 40 47 41
f 41 47 48
f 41 48 42
f 44 49 45
f 45 50 58
f 45 58 60
f 45 60 53
f 45 53 46
f 45 49 51
f 45 51 50
f 46 52 47
f 46 53 54
f 46 54 55
f 46 55 52
f 47 52 56
f 47 56 57
f 47 57 48
f 50 51 58
f 51 59 60
f 51 60 58
f 52 61 56
f 52 55 61
f 53 60 62
f 53 62 63
f 53 63 54
f 54 56 55
f 55 56 61
f 59 64 60
f 60 64 62

