# https://github.com/mikedh/trimesh
v 0.01011365 0.04806771 0.12365969
v 0.00755847 0.04676317 0.11912972
v 0.00710859 0.04797696 0.12365969
v 0.00879636 0.04799681 0.12829441
v 0.01394495 0.04747783 0.12598792
v 0.01178378 0.04678585 0.11964359
v 0.01461242 0.04552102 0.11885302
v 0.00630587 0.03796318 0.11584490
v 0.00447696 0.04048435 0.11690426
v -0.00163608 0.03193676 0.11607022
v 0.00226874 0.04042479 0.12071087
v 0.00900219 0.04679153 0.13288762
v 0.00218053 0.04005044 0.13133415
v 0.01685886 0.04581312 0.13152587
v 0.01885832 0.04533384 0.12815408
v 0.01968456 0.04482620 0.12365969
v 0.01855840 0.04440364 0.11958628
v 0.01555040 0.03497407 0.11584490
v 0.01117806 0.03733359 0.11584490
v 0.01820555 0.03620205 0.11677975
v 0.00290386 0.03649131 0.11584490
v 0.00056038 0.03436717 0.11584490
v -0.00489401 0.02691994 0.11594966
v -0.00695227 0.02331543 0.11584490
v -0.00935455 0.01949255 0.11919889
v 0.00105436 0.03457420 0.13441343
v 0.00657344 0.03792914 0.13516842
v 0.01517403 0.04493397 0.13333232
v -0.00251525 0.02875197 0.13333034
v 0.02009033 0.04373720 0.12998426
v 0.02068429 0.04159321 0.12590688
v 0.02050492 0.04195905 0.12127019
v 0.01828200 0.02898452 0.11584490
v 0.01884067 0.02248733 0.11584490
v 0.01905826 0.01910119 0.11694379
v -0.00664647 0.01909552 0.13290739
v -0.00334443 0.02466535 0.13440749
v -0.00438826 0.02034618 0.13525143
v 0.00077797 0.03107179 0.13536014
v 0.00786721 0.03260321 0.13560324
v 0.01094577 0.03809647 0.13505379
v 0.00449754 0.03260321 0.13562892
v 0.01603556 0.03587307 0.13508540
v 0.02012267 0.03547604 0.13091910
v 0.01787035 0.03035713 0.13483638
v 0.02031968 0.03565470 0.12165559
v 0.01776450 0.02272271 0.13337976
v 0.01720583 0.01909552 0.13265046
v 0.01123393 0.01910119 0.13601433
v -0.00112151 0.01910687 0.13601829
v -0.00112151 0.02248733 0.13589377
v 0.00112787 0.02810537 0.13577321
v 0.01123687 0.03035713 0.13570996
v 0.00449754 0.02923125 0.13581669
v 0.01461242 0.02923125 0.13565066
v 0.01911119 0.03091865 0.13261883
v 0.01807912 0.02642081 0.13381852
v 0.01461242 0.02473625 0.13578112
v 0.01644133 0.02473625 0.13529293
v 0.01537104 0.02023274 0.13547081
v 0.01123687 0.02698233 0.13584437
v 0.00562076 0.01910687 0.13603607
v 0.00112787 0.02473625 0.13590562
v 0.00224521 0.02022991 0.13601631
f 1 2 3
f 1 3 4
f 1 4 5
f 1 5 6
f 1 6 2
f 2 6 7
f 2 7 8
f 2 8 9
f 2 9 10
f 2 10 11
f 2 11 3
f 3 12 4
f 3 11 13
f 3 13 12
f 4 12 14
f 4 14 5
f 5 14 15
f 5 15 16
f 5 16 17
f 5 17 6
f 6 17 7
f 7 18 19
f 7 19 8
f 7 17 20
f 7 20 18
f 8 21 9
f 8 19 18
f 8 18 33
f 8 33 34
f 8 34 24
f 8 24 22
f 8 22 21
f 9 21 22
f 9 22 10
f 10 22 23
f 10 23 11
f 11 23 24
f 11 24 25
f 11 25 13
f 12 13 26
f 12 26 27
f 12 27 28
f 12 28 14
f 13 25 29
f 13 29 26
f 14 28 30
f 14 30 15
f 15 30 16
f 16 30 31
f 16 31 32
f 16 32 17
f 17 32 20
f 18 20 33
f 20 32 33
f 22 24 23
f 24 34 35
f 24 35 25
f 25 36 29
f 25 35 36
f 26 29 37
f 26 37 38
f 26 38 39
f 26 39 27
f 27 40 41
f 27 41 28
f 27 39 42
f 27 42 40
f 28 43 30
f 28 41 43
f 29 36 37
f 30 44 31
f 30 43 45
f 30 45 44
f 31 44 46
f 31 46 32
f 32 46 35
f 32 35 34
f 32 34 33
f 35 46 44
f 35 44 47
f 35 47 48
f 35 48 36
f 36 48 49
f 36 49 50
f 36 50 38
f 36 38 37
f 38 50 51
f 38 51 39
f 39 51 52
f 39 52 42
f 40 42 53
f 40 53 41
f 41 53 43
f 42 54 53
f 42 52 54
f 43 53 55
f 43 55 45
f 44 45 56
f 44 56 47
f 45 57 56
f 45 55 58
f 45 58 59
f 45 59 57
f 47 56 57
f 47 57 59
f 47 59 60
f 47 60 48
f 48 60 49
f 49 60 58
f 49 58 61
f 49 61 62
f 49 62 50
f 50 63 51
f 50 62 64
f 50 64 63
f 51 63 52
f 52 63 54
f 53 61 55
f 53 54 61
f 54 63 64
f 54 64 62
f 54 62 61
f 55 61 58
f 58 60 59

