# https://github.com/mikedh/trimesh
v -0.05220567 -0.02659361 0.05750177
v -0.05143933 -0.02147184 0.08789518
v -0.05150555 -0.02222684 0.06951609
v -0.05085274 -0.02059440 0.01530355
v -0.05204483 -0.02779753 0.01556364
v -0.05200698 -0.03157254 0.06823013
v -0.05200698 -0.03231734 0.08378445
v -0.04811851 -0.00417822 0.08884159
v -0.04987826 -0.01321783 0.08728833
v -0.04619793 -0.03685755 0.08518600
v 0.01521339 -0.04983542 0.08910890
v -0.04984042 -0.01343209 0.06951609
v -0.04725757 -0.00195403 0.01556364
v -0.04340694 0.01700264 0.01530355
v 0.00312223 -0.04688683 0.01530355
v -0.04824151 -0.03517410 0.01540470
v -0.05021886 -0.03484761 0.07622764
v -0.04619793 0.00534092 0.08910890
v -0.04462741 -0.03709221 0.05321043
v 0.02239428 -0.05084549 0.01556364
v 0.03002931 -0.05232488 0.03519979
v 0.03002931 -0.05240650 0.05750177
v 0.03172282 -0.05190657 0.07466715
v 0.03163767 -0.05127400 0.08738225
v 0.03572482 -0.04546865 0.08905832
v 0.04018095 -0.02488975 0.08910890
v -0.00035941 -0.04642771 0.06094063
v -0.04440034 0.01401324 0.08888493
v -0.04202563 0.02443022 0.08910890
v -0.04090924 0.02786854 0.01530355
v 0.03158091 -0.05122299 0.01530355
v 0.03175120 -0.05193718 0.02489767
v 0.03175120 -0.05193718 0.05578957
v 0.03262162 -0.05150866 0.06694418
v 0.03258377 -0.05147806 0.07466715
v 0.03427729 -0.04970278 0.07552687
v 0.03521393 -0.04830501 0.03863142
v 0.03633979 -0.04504014 0.01530355
v 0.03613165 -0.04413209 0.08110417
v 0.04222453 -0.01737034 0.02876277
v 0.04398427 -0.00892249 0.03004873
v 0.04444786 -0.00581066 0.05407014
v 0.04439110 -0.00448430 0.08611796
v 0.04444786 0.03471457 0.08875490
v -0.03938602 0.03497984 0.08910890
v 0.03690745 -0.04205074 0.03863142
v -0.03674640 0.04435615 0.01546249
v -0.00201509 0.04572331 0.01530355
v 0.03504363 -0.04846825 0.02243412
v 0.03273515 -0.05126380 0.03241113
v 0.03266892 -0.05152906 0.04721411
v 0.03432460 -0.04976400 0.06479128
v 0.03342580 -0.05062103 0.07466715
v 0.03698314 -0.04205074 0.02661710
v 0.04444786 0.03497984 0.01530355
v 0.04423972 -0.00787161 0.01866294
v 0.04444786 0.03476558 0.08085853
v 0.00085160 0.04506013 0.02318547
v -0.03158070 0.05182454 0.07348956
v -0.03515695 0.04758021 0.08899330
v -0.03686939 0.04462142 0.07295495
v -0.03130633 0.05176332 0.01812833
v 0.04444786 0.03480639 0.07123552
f 1 2 3
f 1 3 4
f 1 4 5
f 1 5 6
f 1 6 7
f 1 7 2
f 2 8 9
f 2 9 3
f 2 7 10
f 2 10 11
f 2 11 8
f 3 9 12
f 3 12 4
f 4 12 13
f 4 13 14
f 4 14 30
f 4 30 48
f 4 48 55
f 4 55 38
f 4 38 31
f 4 31 15
f 4 15 16
f 4 16 5
f 5 16 6
f 6 16 7
f 7 16 17
f 7 17 10
f 8 18 13
f 8 13 12
f 8 12 9
f 8 11 18
f 10 17 16
f 10 16 19
f 10 19 11
f 11 20 21
f 11 21 22
f 11 22 23
f 11 23 24
f 11 24 25
f 11 25 26
f 11 26 45
f 11 45 29
f 11 29 18
f 11 19 27
f 11 27 15
f 11 15 20
f 13 18 14
f 14 28 29
f 14 29 30
f 14 18 28
f 15 31 20
f 15 27 19
f 15 19 16
f 18 29 28
f 20 31 32
f 20 32 21
f 21 32 22
f 22 32 33
f 22 33 23
f 23 34 35
f 23 35 24
f 23 33 34
f 24 36 25
f 24 35 36
f 25 36 37
f 25 37 38
f 25 38 39
f 25 39 26
f 26 40 41
f 26 41 42
f 26 42 43
f 26 43 44
f 26 44 45
f 26 39 46
f 26 46 40
f 29 45 30
f 30 45 47
f 30 47 48
f 31 38 49
f 31 49 32
f 32 49 50
f 32 50 51
f 32 51 33
f 33 51 34
f 34 51 52
f 34 52 53
f 34 53 35
f 35 53 36
f 36 53 52
f 36 52 37
f 37 52 49
f 37 49 38
f 38 54 46
f 38 46 39
f 38 55 56
f 38 56 54
f 40 54 56
f 40 56 41
f 40 46 54
f 41 56 42
f 42 56 55
f 42 55 63
f 42 63 57
f 42 57 44
f 42 44 43
f 44 57 58
f 44 58 59
f 44 59 60
f 44 60 45
f 45 60 61
f 45 61 47
f 47 61 60
f 47 60 62
f 47 62 48
f 48 62 59
f 48 59 58
f 48 58 55
f 49 52 51
f 49 51 50
f 55 58 63
f 57 63 58
f 59 62 60

