# https://github.com/mikedh/trimesh
v -0.05269376 -0.02899712 0.08911887
v -0.05108286 -0.03395260 0.08911887
v -0.05223029 -0.03224054 0.09463420
v -0.05213579 -0.02729457 0.10029306
v -0.05141134 -0.02109308 0.09677766
v -0.05138884 -0.02121673 0.08911887
v -0.04550324 -0.03708188 0.08911887
v -0.04893651 -0.03596904 0.09356039
v -0.04934148 -0.03460889 0.09985277
v -0.04891851 -0.02487865 0.10270705
v -0.04980495 -0.01704119 0.10160564
v -0.04995794 -0.01317953 0.09785009
v -0.04988144 -0.01321758 0.08911887
v -0.00672481 -0.04521420 0.09012367
v -0.04005860 -0.03859421 0.09841183
v -0.03689980 0.04462173 0.08911887
v -0.00672481 0.04639086 0.08913544
v -0.04446380 -0.03413332 0.10247655
v -0.03261159 -0.03647314 0.10294030
v -0.04205196 -0.02316659 0.10286025
v -0.04033758 0.00258099 0.10289752
v -0.04205196 0.01115083 0.10281884
v -0.04436481 0.00892514 0.10184718
v -0.04071105 0.03003112 0.10042418
v -0.04806356 -0.00384877 0.08911887
v -0.04333888 0.01909292 0.09786113
v -0.04502626 0.01141715 0.09677766
v -0.00672481 -0.01530059 0.10318874
v -0.00697679 -0.04511908 0.09785009
v -0.02146583 -0.04154276 0.10186926
v -0.03951863 0.03448249 0.08911887
v -0.03710229 0.04410810 0.09549268
v -0.03502343 0.04956770 0.09774243
v -0.03328654 0.05077565 0.09017198
v -0.03089720 0.05195508 0.09484813
v -0.00673830 0.04636233 0.09447409
v -0.00672481 -0.00155651 0.10319150
v -0.01657015 -0.04120035 0.10301207
v -0.02384167 -0.03780475 0.10302450
v -0.01459928 -0.03861323 0.10311973
v -0.03003776 0.01630605 0.10306176
v -0.03861869 0.01801812 0.10290580
v -0.03518992 0.03604237 0.10293202
v -0.03861869 0.03003112 0.10268220
v -0.03929815 0.03132468 0.10218257
v -0.03746677 0.04008475 0.10162496
v -0.03965812 0.03431128 0.09796603
v -0.04165599 0.02629311 0.09592055
v -0.04488228 0.01183566 0.08911887
v -0.04370785 0.01739987 0.09119747
v -0.00944713 0.00942925 0.10321773
v -0.00944713 -0.00685440 0.10320944
v -0.00740876 -0.04314069 0.10222949
v -0.04138601 0.02714914 0.08937007
v -0.03550040 0.04634331 0.10184166
v -0.03163965 0.05134634 0.10045178
v -0.02575404 0.04987206 0.10211494
v -0.00743126 0.04482147 0.10158218
v -0.00822321 0.02830954 0.10307143
v -0.02317571 0.01286290 0.10311834
v -0.01298389 0.04018938 0.10303691
v -0.01641266 0.04672376 0.10274432
v -0.04260993 0.02201294 0.08962265
f 1 2 3
f 1 3 4
f 1 4 5
f 1 5 6
f 1 6 13
f 1 13 25
f 1 25 49
f 1 49 31
f 1 31 16
f 1 16 7
f 1 7 2
f 2 7 8
f 2 8 3
f 3 8 9
f 3 9 4
f 4 10 11
f 4 11 12
f 4 12 5
f 4 9 10
f 5 12 6
f 6 12 13
f 7 14 15
f 7 15 8
f 7 16 17
f 7 17 14
f 8 15 9
f 9 18 10
f 9 15 18
f 10 18 19
f 10 19 20
f 10 20 21
f 10 21 22
f 10 22 11
f 11 22 23
f 11 23 24
f 11 24 12
f 12 25 13
f 12 24 26
f 12 26 27
f 12 27 25
f 14 28 29
f 14 29 15
f 14 17 37
f 14 37 28
f 15 29 30
f 15 30 18
f 16 31 32
f 16 32 33
f 16 33 34
f 16 34 17
f 17 34 35
f 17 35 36
f 17 36 37
f 18 30 38
f 18 38 19
f 19 38 39
f 19 39 40
f 19 40 41
f 19 41 20
f 20 41 21
f 21 41 42
f 21 42 22
f 22 42 43
f 22 43 44
f 22 44 23
f 23 44 45
f 23 45 24
f 24 45 46
f 24 46 32
f 24 32 47
f 24 47 48
f 24 48 26
f 25 27 49
f 26 50 27
f 26 48 50
f 27 50 49
f 28 37 51
f 28 51 52
f 28 52 40
f 28 40 53
f 28 53 29
f 29 53 30
f 30 53 38
f 31 49 54
f 31 54 47
f 31 47 32
f 32 55 33
f 32 46 55
f 33 56 35
f 33 35 34
f 33 55 56
f 35 56 57
f 35 57 36
f 36 57 58
f 36 58 37
f 37 58 59
f 37 59 51
f 38 40 39
f 38 53 40
f 40 52 60
f 40 60 41
f 41 60 51
f 41 51 43
f 41 43 42
f 43 61 62
f 43 62 57
f 43 57 55
f 43 55 44
f 43 51 61
f 44 55 45
f 45 55 46
f 47 54 48
f 48 54 63
f 48 63 50
f 49 50 63
f 49 63 54
f 51 59 61
f 51 60 52
f 55 57 56
f 57 62 58
f 58 62 61
f 58 61 59

