# https://github.com/mikedh/trimesh
v -0.00482799 -0.00638779 0.01890775
v -0.00597441 -0.00535031 0.01890775
v -0.00000510 -0.00342098 0.01884475
v -0.00404151 -0.00632711 0.01890775
v -0.00414961 -0.00626038 0.01964937
v -0.00470353 -0.00627494 0.01964937
v -0.00525103 -0.00606805 0.01974530
v -0.00559870 -0.00597158 0.01902229
v -0.00596039 -0.00448939 0.01893925
v -0.00570095 -0.00372312 0.01890775
v -0.00316446 -0.00018965 0.01884475
v -0.00566005 -0.00571070 0.01964937
v -0.00584177 -0.00525688 0.01964937
v -0.00587216 -0.00470356 0.01964937
v -0.00349284 -0.00612751 0.01897074
v -0.00000510 -0.00018965 0.01884475
v -0.00000510 -0.00349014 0.02766551
v -0.00354602 -0.00610506 0.01964937
v -0.00376630 -0.00612447 0.02009893
v -0.00027271 -0.00329721 0.03212528
v -0.00425478 -0.00609960 0.02041963
v -0.00472632 -0.00609717 0.02030796
v -0.00201571 -0.00292348 0.03256052
v -0.00544035 -0.00567794 0.02024210
v -0.00579269 -0.00415024 0.01964937
v -0.00563551 -0.00369461 0.01964937
v -0.00298975 -0.00018965 0.03182032
v -0.00306805 -0.00018965 0.02904997
v -0.00307506 -0.00018965 0.02857750
v -0.00234234 -0.00246056 0.03289983
v -0.00268766 -0.00233194 0.03221834
v -0.00558058 -0.00515617 0.02062866
v -0.00272214 -0.00193758 0.03246173
v -0.00505763 -0.00415995 0.02300530
v -0.00521890 -0.00415024 0.02241543
v -0.00573952 -0.00470356 0.02020201
v -0.00281621 -0.00042991 0.03261206
v -0.00000510 -0.00349378 0.02821815
v -0.00000510 -0.00349136 0.02877222
v -0.00000510 -0.00347740 0.02946660
v -0.00000510 -0.00345678 0.03016097
v -0.00000510 -0.00340581 0.03140370
v -0.00134083 -0.00018965 0.03342097
v -0.00000510 -0.00037469 0.03341382
v -0.00161195 -0.00331723 0.03153255
v -0.00014124 -0.00294289 0.03289554
v -0.00138407 -0.00281184 0.03302725
v -0.00138407 -0.00309396 0.03237439
v -0.00193741 -0.00249089 0.03317758
v -0.00243641 -0.00023394 0.03312604
v -0.00189417 -0.00021210 0.03337086
v -0.00250945 -0.00193758 0.03292703
v -0.00209985 -0.00201645 0.03331646
v -0.00282731 -0.00138426 0.03227561
v -0.00000510 -0.00180167 0.03338375
v -0.00138407 -0.00138426 0.03346393
v -0.00138407 -0.00193758 0.03347108
v -0.00083073 -0.00193758 0.03344817
v -0.00000510 -0.00111245 0.03340809
v -0.00014124 -0.00258069 0.03323055
v -0.00083073 -0.00272751 0.03316899
v -0.00138407 -0.00245267 0.03333507
v -0.00211387 -0.00138426 0.03333507
v -0.00083073 -0.00245025 0.03332505
f 1 2 3
f 1 3 4
f 1 4 5
f 1 5 6
f 1 6 7
f 1 7 8
f 1 8 2
f 2 9 10
f 2 10 11
f 2 11 3
f 2 8 12
f 2 12 13
f 2 13 14
f 2 14 9
f 3 15 4
f 3 11 16
f 3 16 44
f 3 44 59
f 3 59 55
f 3 55 42
f 3 42 41
f 3 41 40
f 3 40 39
f 3 39 38
f 3 38 17
f 3 17 15
f 4 15 18
f 4 18 19
f 4 19 5
f 5 19 20
f 5 20 21
f 5 21 6
f 6 21 20
f 6 20 22
f 6 22 7
f 7 22 23
f 7 23 24
f 7 24 12
f 7 12 8
f 9 14 25
f 9 25 10
f 10 25 26
f 10 26 27
f 10 27 28
f 10 28 29
f 10 29 11
f 11 29 28
f 11 28 27
f 11 27 43
f 11 43 16
f 12 24 30
f 12 30 31
f 12 31 32
f 12 32 13
f 13 32 33
f 13 33 34
f 13 34 35
f 13 35 36
f 13 36 14
f 14 36 35
f 14 35 37
f 14 37 27
f 14 27 25
f 15 17 38
f 15 38 39
f 15 39 40
f 15 40 41
f 15 41 42
f 15 42 18
f 16 43 44
f 18 42 19
f 19 42 20
f 20 45 22
f 20 42 46
f 20 46 47
f 20 47 48
f 20 48 45
f 22 45 23
f 23 45 48
f 23 48 47
f 23 47 49
f 23 49 30
f 23 30 24
f 25 27 26
f 27 37 50
f 27 50 51
f 27 51 43
f 30 52 33
f 30 33 31
f 30 49 53
f 30 53 52
f 31 33 32
f 33 52 37
f 33 37 54
f 33 54 35
f 33 35 34
f 35 54 37
f 37 52 50
f 42 55 46
f 43 51 56
f 43 56 44
f 44 56 57
f 44 57 58
f 44 58 59
f 46 55 60
f 46 60 61
f 46 61 47
f 47 61 62
f 47 62 49
f 49 62 53
f 50 53 63
f 50 63 51
f 50 52 53
f 51 57 56
f 51 63 57
f 53 62 57
f 53 57 63
f 55 59 58
f 55 58 60
f 57 62 64
f 57 64 58
f 58 64 60
f 60 64 61
f 61 64 62

