# https://github.com/mikedh/trimesh
v 0.00695195 0.00054808 -0.02307746
v -0.00043880 0.00054808 -0.02150895
v 0.00055154 0.00628807 -0.02231760
v 0.00447220 0.00628807 -0.02280964
v 0.00747606 0.00219546 -0.02307746
v 0.01549887 0.00144201 -0.02307746
v 0.01553485 0.00062618 -0.02288023
v 0.01554424 0.00054808 -0.02102936
v -0.00043880 0.00054808 -0.01247366
v -0.00043880 0.00628807 -0.02204251
v 0.00970549 0.00628807 -0.02307746
v 0.01517658 0.00334840 -0.02307746
v 0.01539248 0.00224210 -0.02306293
v 0.01549105 0.00147965 -0.01992279
v 0.01553955 0.00068967 -0.02005774
v 0.01551764 0.00080036 -0.01704632
v 0.01546914 0.00060933 -0.01592002
v 0.01320060 0.00061888 -0.01338403
v 0.00866509 0.00068967 -0.01247366
v -0.00043880 0.00628807 -0.01247366
v 0.01408612 0.00628807 -0.01573525
v 0.01433174 0.00608411 -0.02138230
v 0.01446473 0.00571834 -0.02281379
v 0.01489653 0.00446033 -0.02304943
v 0.01516406 0.00332143 -0.01660410
v 0.01535337 0.00249156 -0.02019891
v 0.01489340 0.00447100 -0.01688127
v 0.01545663 0.00168754 -0.01771068
v 0.01534085 0.00214546 -0.01632798
v 0.01517189 0.00166113 -0.01522037
v 0.01513434 0.00088127 -0.01496397
v 0.01378104 0.00138413 -0.01362902
v 0.01287049 0.00318265 -0.01336535
v 0.01433957 0.00103690 -0.01395082
v 0.00853054 0.00140492 -0.01247366
v 0.00603671 0.00621053 -0.01247366
v 0.01160011 0.00616839 -0.01335186
v 0.01370281 0.00609703 -0.01471691
v 0.01438337 0.00537279 -0.01551933
v 0.01459928 0.00525761 -0.01632798
v 0.01430202 0.00606051 -0.01660410
v 0.01434582 0.00605152 -0.02044597
v 0.01464308 0.00525761 -0.02130549
v 0.01528140 0.00276800 -0.01729649
v 0.01483708 0.00441088 -0.01607262
v 0.01499040 0.00332537 -0.01549234
v 0.01454765 0.00548797 -0.01729649
v 0.01488245 0.00248033 -0.01485185
v 0.01372158 0.00304500 -0.01371518
v 0.01240114 0.00435133 -0.01332590
v 0.00836157 0.00219883 -0.01247366
v 0.01323659 0.00415074 -0.01360618
v 0.01443813 0.00303151 -0.01436085
v 0.01391246 0.00388273 -0.01400480
v 0.00655143 0.00571946 -0.01247366
v 0.01245120 0.00525761 -0.01346085
v 0.01272968 0.00603523 -0.01377435
v 0.00710371 0.00501376 -0.01247366
v 0.00775141 0.00388330 -0.01247366
v 0.01331012 0.00571103 -0.01407538
v 0.01383892 0.00495645 -0.01429338
v 0.01453826 0.00429289 -0.01500653
v 0.00810343 0.00306803 -0.01247366
v 0.01309891 0.00501376 -0.01370168
f 1 2 3
f 1 3 4
f 1 4 5
f 1 5 11
f 1 11 12
f 1 12 6
f 1 6 7
f 1 7 8
f 1 8 9
f 1 9 2
f 2 9 20
f 2 20 10
f 2 10 3
f 3 10 20
f 3 20 21
f 3 21 11
f 3 11 4
f 4 11 5
f 6 12 13
f 6 13 14
f 6 14 15
f 6 15 8
f 6 8 7
f 8 15 16
f 8 16 17
f 8 17 18
f 8 18 9
f 9 18 19
f 9 19 35
f 9 35 51
f 9 51 63
f 9 63 59
f 9 59 58
f 9 58 55
f 9 55 36
f 9 36 20
f 11 21 22
f 11 22 23
f 11 23 24
f 11 24 12
f 12 25 26
f 12 26 13
f 12 24 27
f 12 27 25
f 13 26 14
f 14 26 28
f 14 28 16
f 14 16 15
f 16 28 29
f 16 29 17
f 17 29 30
f 17 30 31
f 17 31 18
f 18 32 33
f 18 33 19
f 18 31 34
f 18 34 32
f 19 33 35
f 20 36 21
f 21 36 37
f 21 37 38
f 21 38 39
f 21 39 40
f 21 40 41
f 21 41 22
f 22 41 42
f 22 42 43
f 22 43 23
f 23 43 24
f 24 43 27
f 25 29 44
f 25 44 26
f 25 27 45
f 25 45 46
f 25 46 29
f 26 44 28
f 27 43 47
f 27 47 40
f 27 40 45
f 28 44 29
f 29 46 30
f 30 46 48
f 30 48 31
f 31 48 34
f 32 49 33
f 32 34 49
f 33 50 51
f 33 51 35
f 33 49 52
f 33 52 50
f 34 48 53
f 34 53 54
f 34 54 49
f 36 55 37
f 37 50 56
f 37 56 57
f 37 57 38
f 37 55 58
f 37 58 59
f 37 59 50
f 38 60 61
f 38 61 62
f 38 62 39
f 38 57 60
f 39 62 46
f 39 46 45
f 39 45 40
f 40 47 41
f 41 47 42
f 42 47 43
f 46 62 48
f 48 62 53
f 49 54 52
f 50 52 56
f 50 59 63
f 50 63 51
f 52 54 64
f 52 64 56
f 53 62 61
f 53 61 54
f 54 61 60
f 54 60 64
f 56 64 57
f 57 64 60

