# https://github.com/mikedh/trimesh
v -0.00563753 0.01005010 -0.01316635
v -0.00568073 0.01182184 -0.01331611
v -0.00570233 0.01111506 -0.01322210
v -0.00784760 0.00900002 -0.01314449
v -0.00677362 0.00900002 -0.01313575
v -0.00579009 0.00909355 -0.01315980
v -0.00563753 0.00900002 -0.01871041
v -0.00563753 0.01442896 -0.02185955
v -0.00569153 0.01414997 -0.01535250
v -0.00570301 0.01367170 -0.01437529
v -0.00939007 0.00907123 -0.01332157
v -0.00864077 0.00908346 -0.01321882
v -0.00570301 0.01280177 -0.01367026
v -0.00664199 0.01189836 -0.01350521
v -0.00719552 0.01134569 -0.01345930
v -0.01030407 0.00903297 -0.01353363
v -0.01210642 0.00900002 -0.01492073
v -0.00787663 0.00900002 -0.02430147
v -0.00563753 0.01062988 -0.02430147
v -0.00579009 0.01438273 -0.02430147
v -0.00663253 0.01395228 -0.01660406
v -0.00571246 0.01435191 -0.01660625
v -0.00646850 0.01383697 -0.01537545
v -0.00685597 0.01324657 -0.01454144
v -0.00750671 0.01261046 -0.01422991
v -0.00658798 0.01258070 -0.01377520
v -0.00926923 0.00996242 -0.01351614
v -0.00751548 0.01208383 -0.01382220
v -0.00828098 0.01160449 -0.01384406
v -0.01006780 0.01006551 -0.01379706
v -0.01079212 0.00940762 -0.01386920
v -0.01151036 0.00909090 -0.01421352
v -0.01159069 0.00982850 -0.01494150
v -0.01243516 0.00900002 -0.01609579
v -0.01253237 0.00900002 -0.02430147
v -0.00836941 0.01305898 -0.02430147
v -0.00764239 0.01349527 -0.02427196
v -0.00672771 0.01395760 -0.02427196
v -0.00681074 0.01391881 -0.02351993
v -0.00771260 0.01337942 -0.01660406
v -0.00766264 0.01333584 -0.01572851
v -0.00734943 0.01329120 -0.01506939
v -0.00911532 0.01216195 -0.01498304
v -0.00924898 0.01165604 -0.01443978
v -0.01010763 0.01097423 -0.01437311
v -0.00939209 0.01078080 -0.01387139
v -0.01024669 0.01024566 -0.01396758
v -0.01090080 0.01033388 -0.01451302
v -0.01100273 0.01072819 -0.01514372
v -0.01147863 0.01030677 -0.01577333
v -0.01160352 0.01021006 -0.01660406
v -0.01225965 0.00931037 -0.01680300
v -0.01146918 0.01058258 -0.02430147
v -0.00923143 0.01248398 -0.02430147
v -0.00868668 0.01279539 -0.01715716
v -0.00889526 0.01262694 -0.01632752
v -0.00847404 0.01284163 -0.01577333
v -0.00828773 0.01280762 -0.01520712
v -0.00961080 0.01211784 -0.01601162
v -0.01012451 0.01153488 -0.01526505
v -0.01090418 0.01104279 -0.01604988
v -0.01083127 0.01125907 -0.02418670
v -0.00997060 0.01195310 -0.02427196
v -0.01025951 0.01163744 -0.01632752
f 1 2 3
f 1 3 4
f 1 4 5
f 1 5 6
f 1 6 7
f 1 7 19
f 1 19 8
f 1 8 9
f 1 9 10
f 1 10 2
f 2 11 12
f 2 12 3
f 2 10 13
f 2 13 14
f 2 14 15
f 2 15 11
f 3 12 4
f 4 12 11
f 4 11 16
f 4 16 17
f 4 17 34
f 4 34 35
f 4 35 18
f 4 18 7
f 4 7 5
f 5 7 6
f 7 18 19
f 8 19 20
f 8 20 21
f 8 21 22
f 8 22 9
f 9 22 23
f 9 23 10
f 10 24 25
f 10 25 26
f 10 26 13
f 10 23 24
f 11 15 27
f 11 27 16
f 13 26 14
f 14 27 15
f 14 26 28
f 14 28 29
f 14 29 27
f 16 27 30
f 16 30 31
f 16 31 32
f 16 32 17
f 17 32 33
f 17 33 34
f 18 35 53
f 18 53 54
f 18 54 36
f 18 36 20
f 18 20 19
f 20 36 37
f 20 37 38
f 20 38 39
f 20 39 21
f 21 39 37
f 21 37 40
f 21 40 41
f 21 41 23
f 21 23 22
f 23 41 42
f 23 42 24
f 24 42 43
f 24 43 25
f 25 29 28
f 25 28 26
f 25 43 44
f 25 44 29
f 27 29 30
f 29 44 45
f 29 45 46
f 29 46 30
f 30 46 47
f 30 47 31
f 31 47 32
f 32 47 48
f 32 48 33
f 33 49 50
f 33 50 34
f 33 48 49
f 34 50 51
f 34 51 52
f 34 52 35
f 35 52 53
f 36 54 55
f 36 55 40
f 36 40 37
f 37 39 38
f 40 56 57
f 40 57 41
f 40 55 56
f 41 57 58
f 41 58 42
f 42 58 43
f 43 45 44
f 43 58 59
f 43 59 60
f 43 60 45
f 45 47 46
f 45 60 49
f 45 49 48
f 45 48 47
f 49 60 61
f 49 61 50
f 50 61 51
f 51 61 53
f 51 53 52
f 53 61 62
f 53 62 63
f 53 63 54
f 54 63 55
f 55 63 59
f 55 59 56
f 56 59 57
f 57 59 58
f 59 63 64
f 59 64 61
f 59 61 60
f 61 64 62
f 62 64 63

