# https://github.com/mikedh/trimesh
v 0.00621000 0.00054494 -0.01247158
v 0.00621000 0.00038459 -0.02219051
v -0.00043880 0.00054494 -0.02150915
v -0.00043880 0.00054494 -0.01247158
v 0.00600432 -0.00643160 -0.01247158
v 0.00621000 -0.01170252 -0.01339322
v 0.00621000 -0.00623982 -0.02368050
v -0.00043880 -0.00678058 -0.02368050
v -0.00039779 -0.01295226 -0.01329338
v -0.00004697 -0.00867642 -0.01247158
v -0.00043880 -0.01541716 -0.01668480
v 0.00496290 -0.00717673 -0.01247158
v 0.00388243 -0.00775365 -0.01247158
v 0.00429900 -0.01230145 -0.01332959
v 0.00531112 -0.01215997 -0.01339871
v 0.00600822 -0.01264257 -0.01370812
v 0.00601082 -0.01325094 -0.01414041
v 0.00621000 -0.01414226 -0.01609670
v 0.00615011 -0.01426331 -0.02227170
v 0.00594574 -0.01434977 -0.02319883
v 0.00525645 -0.01461072 -0.02368050
v 0.00111682 -0.01547689 -0.02368050
v -0.00003851 -0.01551305 -0.02363771
v -0.00043880 -0.01545017 -0.01783246
v -0.00037762 -0.01387502 -0.01365655
v 0.00041581 -0.01337198 -0.01342614
v 0.00167137 -0.01298055 -0.01334056
v 0.00110705 -0.00865284 -0.01247158
v 0.00054013 -0.01546589 -0.01594200
v -0.00035744 -0.01531026 -0.01549764
v -0.00035744 -0.01478993 -0.01439825
v 0.00279285 -0.00817338 -0.01247158
v 0.00359604 -0.01251839 -0.01332739
v 0.00359604 -0.01300414 -0.01349197
v 0.00496420 -0.01318334 -0.01381564
v 0.00494467 -0.01389074 -0.01438508
v 0.00600952 -0.01390961 -0.01499951
v 0.00518290 -0.01436549 -0.01530014
v 0.00551876 -0.01442051 -0.01605282
v 0.00600106 -0.01429003 -0.01715769
v 0.00536580 -0.01456985 -0.02268973
v 0.00470320 -0.01477106 -0.01909204
v 0.00441225 -0.01486853 -0.02359931
v 0.00323935 -0.01517035 -0.02363990
v 0.00217451 -0.01537157 -0.02368050
v 0.00134788 -0.01548790 -0.01610987
v 0.00055380 -0.01416270 -0.01380906
v 0.00166096 -0.01365494 -0.01358523
v 0.00269847 -0.01272118 -0.01332520
v 0.00198054 -0.00843747 -0.01247158
v 0.00055380 -0.01529611 -0.01522114
v 0.00055380 -0.01480879 -0.01437521
v 0.00280652 -0.01398506 -0.01395608
v 0.00385444 -0.01412183 -0.01431267
v 0.00440509 -0.01433248 -0.01478007
v 0.00266267 -0.01492040 -0.01498196
v 0.00324131 -0.01507603 -0.01589153
v 0.00470320 -0.01469089 -0.01605062
v 0.00497982 -0.01466260 -0.01715769
v 0.00410308 -0.01492669 -0.01688120
v 0.00387006 -0.01501158 -0.01950788
v 0.00221421 -0.01535113 -0.01605062
v 0.00166096 -0.01508232 -0.01495124
v 0.00166096 -0.01436077 -0.01406361
f 1 2 3
f 1 3 4
f 1 4 10
f 1 10 28
f 1 28 50
f 1 50 32
f 1 32 13
f 1 13 12
f 1 12 5
f 1 5 6
f 1 6 18
f 1 18 7
f 1 7 2
f 2 7 8
f 2 8 3
f 3 8 24
f 3 24 11
f 3 11 4
f 4 9 10
f 4 11 9
f 5 12 6
f 6 12 13
f 6 13 14
f 6 14 15
f 6 15 16
f 6 16 17
f 6 17 18
f 7 18 19
f 7 19 20
f 7 20 21
f 7 21 45
f 7 45 22
f 7 22 8
f 8 22 23
f 8 23 24
f 9 25 26
f 9 26 27
f 9 27 28
f 9 28 10
f 9 11 25
f 11 24 29
f 11 29 30
f 11 30 31
f 11 31 25
f 13 32 14
f 14 32 33
f 14 33 34
f 14 34 15
f 15 34 16
f 16 34 35
f 16 35 17
f 17 35 36
f 17 36 37
f 17 37 18
f 18 37 38
f 18 38 39
f 18 39 40
f 18 40 19
f 19 40 20
f 20 40 41
f 20 41 21
f 21 41 42
f 21 42 43
f 21 43 44
f 21 44 45
f 22 45 46
f 22 46 23
f 23 46 29
f 23 29 24
f 25 31 47
f 25 47 26
f 26 47 48
f 26 48 27
f 27 34 49
f 27 49 28
f 27 48 34
f 28 49 33
f 28 33 50
f 29 46 51
f 29 51 30
f 30 51 31
f 31 51 52
f 31 52 47
f 32 50 33
f 33 49 34
f 34 48 53
f 34 53 35
f 35 53 54
f 35 54 36
f 36 54 55
f 36 55 37
f 37 55 38
f 38 55 56
f 38 56 57
f 38 57 58
f 38 58 39
f 39 58 59
f 39 59 40
f 40 59 41
f 41 59 42
f 42 59 60
f 42 60 61
f 42 61 43
f 43 61 44
f 44 61 62
f 44 62 45
f 45 62 46
f 46 62 63
f 46 63 51
f 47 52 64
f 47 64 48
f 48 64 53
f 51 63 52
f 52 63 64
f 53 64 54
f 54 64 56
f 54 56 55
f 56 63 62
f 56 62 57
f 56 64 63
f 57 60 58
f 57 62 60
f 58 60 59
f 60 62 61

