# https://github.com/mikedh/trimesh
v -0.01561950 0.00012243 -0.03182155
v -0.01168129 0.00004453 -0.03339504
v -0.01051546 -0.00003479 -0.03343167
v -0.01552178 -0.00003479 -0.02712609
v -0.01546607 0.00083060 -0.02628886
v -0.01549148 0.00155153 -0.03159102
v -0.01505857 0.00296363 -0.03254351
v -0.01512795 0.00166059 -0.03281246
v -0.01502144 0.00029381 -0.03288394
v -0.01466475 0.00152320 -0.03303227
v -0.01148291 0.00283899 -0.03336912
v -0.00940924 0.00004453 -0.03339951
v -0.00811442 -0.00003479 -0.03311894
v -0.00885613 0.00581333 -0.03339504
v -0.00664272 0.00968423 -0.03336108
v -0.00705413 -0.00003479 -0.02430346
v -0.01542601 0.00058699 -0.02430346
v -0.01524620 0.00215773 -0.02430346
v -0.01510841 0.00332197 -0.02698045
v -0.01521590 0.00318458 -0.03147575
v -0.01424454 0.00624391 -0.03154456
v -0.01448690 0.00464909 -0.03254798
v -0.01355853 0.00553573 -0.03302244
v -0.01134414 0.00442956 -0.03332713
v -0.00982456 0.00657392 -0.03335126
v -0.00563618 0.00922675 -0.03325744
v -0.00715674 -0.00003337 -0.03164284
v -0.01105586 0.00994909 -0.03296079
v -0.00587364 0.01092920 -0.03331373
v -0.00680298 0.00122152 -0.02430346
v -0.01455726 0.00509241 -0.02430346
v -0.01504587 0.00332764 -0.02474307
v -0.01502535 0.00389276 -0.02877911
v -0.01475954 0.00488279 -0.03057598
v -0.01429927 0.00611219 -0.02988439
v -0.01350381 0.00771266 -0.02974590
v -0.01353117 0.00765035 -0.03154456
v -0.01279239 0.00831745 -0.03246488
v -0.01332302 0.00660649 -0.03290539
v -0.00570947 0.01409334 -0.03266860
v -0.00563618 0.01062752 -0.02430346
v -0.00563618 0.00799735 -0.03256228
v -0.00563618 0.00760644 -0.03155974
v -0.01054477 0.01129887 -0.03257657
v -0.00939751 0.01164871 -0.03294292
v -0.00616681 0.01316562 -0.03305371
v -0.00652936 0.00315909 -0.02430346
v -0.01474586 0.00489412 -0.02933041
v -0.01396799 0.00654984 -0.02430346
v -0.01328002 0.00802001 -0.02767293
v -0.01217772 0.00968989 -0.03154456
v -0.00755545 0.01317129 -0.03278119
v -0.00717628 0.01386955 -0.03156332
v -0.00595866 0.01443468 -0.03154366
v -0.00578472 0.01438369 -0.02430346
v -0.01005323 0.01197022 -0.03147575
v -0.00881509 0.01284553 -0.03159191
v -0.01143600 0.01062327 -0.03154456
v -0.00782125 0.01339082 -0.02430346
v -0.01001903 0.01191074 -0.02434456
v -0.01125717 0.01082864 -0.02446608
v -0.01315201 0.00808233 -0.02474307
v -0.00883952 0.01276480 -0.02476362
v -0.00677171 0.01393612 -0.02430346
f 1 2 3
f 1 3 4
f 1 4 5
f 1 5 6
f 1 6 7
f 1 7 8
f 1 8 9
f 1 9 2
f 2 9 10
f 2 10 11
f 2 11 3
f 3 12 13
f 3 13 16
f 3 16 4
f 3 11 14
f 3 14 15
f 3 15 12
f 4 16 17
f 4 17 5
f 5 17 18
f 5 18 6
f 6 18 19
f 6 19 20
f 6 20 7
f 7 20 21
f 7 21 22
f 7 22 23
f 7 23 8
f 8 10 9
f 8 23 10
f 10 23 11
f 11 23 24
f 11 24 25
f 11 25 14
f 12 15 26
f 12 26 13
f 13 27 16
f 13 26 27
f 14 25 15
f 15 25 28
f 15 28 29
f 15 29 26
f 16 27 30
f 16 30 47
f 16 47 41
f 16 41 55
f 16 55 64
f 16 64 59
f 16 59 49
f 16 49 31
f 16 31 18
f 16 18 17
f 18 31 32
f 18 32 19
f 19 32 33
f 19 33 20
f 20 33 34
f 20 34 21
f 21 34 35
f 21 35 36
f 21 36 37
f 21 37 38
f 21 38 22
f 22 38 39
f 22 39 23
f 23 39 28
f 23 28 25
f 23 25 24
f 26 29 40
f 26 40 41
f 26 41 43
f 26 43 42
f 26 42 27
f 27 42 43
f 27 43 30
f 28 39 38
f 28 38 44
f 28 44 45
f 28 45 29
f 29 45 46
f 29 46 40
f 30 43 47
f 31 35 48
f 31 48 33
f 31 33 32
f 31 49 35
f 33 48 34
f 34 48 35
f 35 49 36
f 36 50 51
f 36 51 37
f 36 49 50
f 37 51 38
f 38 51 44
f 40 46 52
f 40 52 53
f 40 53 54
f 40 54 55
f 40 55 41
f 41 47 43
f 44 56 57
f 44 57 52
f 44 52 45
f 44 51 58
f 44 58 56
f 45 52 46
f 49 59 60
f 49 60 61
f 49 61 62
f 49 62 50
f 50 62 61
f 50 61 51
f 51 61 58
f 52 57 53
f 53 57 63
f 53 63 59
f 53 59 64
f 53 64 54
f 54 64 55
f 56 60 63
f 56 63 57
f 56 58 61
f 56 61 60
f 59 63 60

