# https://github.com/mikedh/trimesh
v 0.02747972 -0.03871228 -0.06813295
v 0.02536539 -0.04458499 -0.06813295
v 0.02732067 -0.04329200 -0.06823484
v 0.02750166 -0.04256383 -0.06962939
v 0.02750166 -0.03949655 -0.06909112
v -0.00051392 -0.04873829 -0.06931960
v -0.00051392 -0.04805127 -0.06822352
v 0.00890596 -0.05062230 -0.06818399
v 0.02575480 -0.04442540 -0.06880645
v 0.02611404 -0.04413488 -0.06820273
v 0.01354597 -0.04950012 -0.06823484
v 0.02054438 -0.04707498 -0.06823484
v 0.02370628 -0.04551889 -0.06818399
v 0.02707112 -0.04338676 -0.06919013
v 0.02660492 -0.04296407 -0.06996861
v 0.02704095 -0.04218479 -0.07011702
v 0.02734261 -0.04132570 -0.07005053
v 0.02750166 -0.04042172 -0.06969052
v -0.00051392 -0.04967718 -0.06977553
v -0.00051392 -0.05144897 -0.06870168
v 0.00292495 -0.05122204 -0.06823484
v 0.01003580 -0.05044524 -0.06823484
v 0.01098738 -0.05022206 -0.06823484
v 0.00409044 -0.05114348 -0.06823484
v 0.00531077 -0.05104249 -0.06823484
v 0.00642690 -0.05092902 -0.06823484
v 0.00770756 -0.05078314 -0.06823484
v 0.01075977 -0.05029188 -0.06903452
v 0.02287536 -0.04595405 -0.06823484
v 0.02108736 -0.04675578 -0.06902546
v 0.02229124 -0.04559869 -0.07011620
v 0.02426023 -0.04446530 -0.07012175
v 0.01227079 -0.04988665 -0.06833652
v 0.01486229 -0.04911983 -0.06865104
v 0.01883043 -0.04780689 -0.06827518
v 0.02141644 -0.04667099 -0.06823484
v 0.02582610 -0.04329075 -0.07011681
v 0.02502534 -0.04373089 -0.07013616
v 0.02624019 -0.04259999 -0.07013101
v 0.02627858 -0.04195661 -0.07012031
v 0.02564785 -0.04203018 -0.07010199
v 0.00292495 -0.04921085 -0.07003427
v 0.00142490 -0.05020210 -0.07014316
v -0.00051392 -0.05080808 -0.06953409
v 0.00058575 -0.05144398 -0.06886635
v 0.00150168 -0.05141655 -0.06889496
v 0.00993159 -0.05038789 -0.06917634
v 0.01343628 -0.04935299 -0.06939514
v 0.01784868 -0.04800888 -0.06923253
v 0.02036888 -0.04688920 -0.06945031
v 0.01993559 -0.04675578 -0.07010755
v 0.01696291 -0.04736550 -0.07021067
v 0.02394487 -0.04380695 -0.07016271
v 0.00759513 -0.04876447 -0.07022220
v 0.00292495 -0.05010236 -0.07019276
v 0.00292495 -0.05097266 -0.06950424
v 0.00642690 -0.05067840 -0.06950424
v 0.00876336 -0.05049387 -0.06932043
v 0.00731267 -0.05038664 -0.06983811
v 0.01343628 -0.04887295 -0.06997911
v 0.01687790 -0.04796648 -0.06996429
v 0.01460177 -0.04819590 -0.07021047
v 0.01576726 -0.04768220 -0.07022899
v 0.00876336 -0.04903130 -0.07023579
f 1 2 3
f 1 3 4
f 1 4 5
f 1 5 6
f 1 6 7
f 1 7 8
f 1 8 2
f 2 9 10
f 2 10 3
f 2 8 11
f 2 11 12
f 2 12 13
f 2 13 9
f 3 10 9
f 3 9 14
f 3 14 4
f 4 14 15
f 4 15 16
f 4 16 17
f 4 17 18
f 4 18 5
f 5 18 6
f 6 19 44
f 6 44 20
f 6 20 7
f 6 18 19
f 7 20 21
f 7 21 8
f 8 22 23
f 8 23 11
f 8 21 24
f 8 24 25
f 8 25 26
f 8 26 27
f 8 27 28
f 8 28 22
f 9 13 29
f 9 29 30
f 9 30 31
f 9 31 32
f 9 32 14
f 11 23 33
f 11 33 34
f 11 34 35
f 11 35 12
f 12 35 30
f 12 30 36
f 12 36 13
f 13 36 29
f 14 32 15
f 15 37 16
f 15 32 37
f 16 37 38
f 16 38 39
f 16 39 40
f 16 40 17
f 17 40 41
f 17 41 42
f 17 42 19
f 17 19 18
f 19 42 43
f 19 43 44
f 20 45 46
f 20 46 21
f 20 44 45
f 21 46 24
f 22 28 23
f 23 28 33
f 24 46 25
f 25 46 26
f 26 46 27
f 27 47 28
f 27 46 47
f 28 48 34
f 28 34 33
f 28 47 48
f 29 36 30
f 30 35 49
f 30 49 50
f 30 50 31
f 31 50 51
f 31 51 52
f 31 52 32
f 32 52 38
f 32 38 37
f 34 48 49
f 34 49 35
f 38 52 53
f 38 53 39
f 39 53 40
f 40 53 54
f 40 54 43
f 40 43 41
f 41 43 42
f 43 54 55
f 43 55 56
f 43 56 44
f 44 56 45
f 45 56 46
f 46 56 57
f 46 57 58
f 46 58 47
f 47 58 59
f 47 59 60
f 47 60 48
f 48 60 61
f 48 61 49
f 49 61 51
f 49 51 50
f 51 61 62
f 51 62 52
f 52 62 63
f 52 63 53
f 53 63 64
f 53 64 54
f 54 64 55
f 55 64 62
f 55 62 59
f 55 59 56
f 56 59 57
f 57 59 58
f 59 62 60
f 60 62 61
f 62 64 63

