# https://github.com/mikedh/trimesh
v 0.02960525 -0.03821150 0.06011151
v 0.02194962 -0.03821150 0.06956262
v 0.02960525 -0.03889189 0.07008353
v 0.02957237 -0.04191646 0.06902577
v 0.02907687 -0.04129255 0.06011151
v 0.00561450 -0.03821150 0.06011151
v 0.01927250 -0.03913453 0.06965525
v 0.00561450 -0.03821150 0.06774790
v 0.01109790 -0.04263923 0.06980166
v 0.02568820 -0.04264436 0.07028672
v 0.02858606 -0.04141451 0.07010346
v 0.02921307 -0.04271754 0.06655368
v 0.02586667 -0.04333247 0.07015226
v 0.02370619 -0.04572413 0.06916422
v 0.02614612 -0.04434279 0.06885048
v 0.02840994 -0.04307699 0.06848195
v 0.02901816 -0.04265592 0.06436744
v 0.02739545 -0.04240173 0.06011151
v 0.00601137 -0.05010308 0.06011151
v 0.00584933 -0.05131753 0.06809749
v 0.00561450 -0.04362773 0.06965525
v 0.00596205 -0.04966275 0.07012637
v 0.02410071 -0.04423239 0.07016521
v 0.01460398 -0.04811067 0.07015026
v 0.02615082 -0.04468299 0.06716722
v 0.02642793 -0.04448529 0.06483358
v 0.02072613 -0.04691804 0.06910446
v 0.01882867 -0.04792966 0.06871900
v 0.02277624 -0.04637115 0.06833554
v 0.02434259 -0.04566123 0.06749790
v 0.01693824 -0.04766520 0.06999688
v 0.02533595 -0.04371760 0.06011151
v 0.00602076 -0.05111983 0.06429374
v 0.00815541 -0.04979369 0.06011151
v 0.00847009 -0.05080916 0.06424892
v 0.00620628 -0.05132524 0.06662241
v 0.00817890 -0.05105949 0.06658356
v 0.01051550 -0.05066024 0.06687539
v 0.01020552 -0.05048179 0.06867020
v 0.00805443 -0.05067564 0.06899589
v 0.01271356 -0.04907735 0.06995007
v 0.02215393 -0.04513231 0.07013831
v 0.02432381 -0.04577163 0.06532561
v 0.02230657 -0.04670108 0.06432263
v 0.02133670 -0.04687568 0.06287941
v 0.01482238 -0.04915566 0.06903474
v 0.01299536 -0.05001835 0.06800686
v 0.01460398 -0.04964863 0.06716722
v 0.01810302 -0.04840978 0.06716722
v 0.02221733 -0.04670879 0.06667719
v 0.01990891 -0.04771013 0.06658356
v 0.02091165 -0.04596420 0.06011151
v 0.00990728 -0.04949329 0.06011151
v 0.01077852 -0.05034700 0.06379972
v 0.00993311 -0.05072443 0.06541624
v 0.01231669 -0.05023916 0.06599990
v 0.01978210 -0.04770885 0.06349494
v 0.01810302 -0.04850863 0.06541624
v 0.01867133 -0.04692318 0.06011151
v 0.01660947 -0.04904782 0.06448796
v 0.01665879 -0.04901188 0.06623994
v 0.01162393 -0.04914795 0.06011151
v 0.01641456 -0.04776790 0.06011151
v 0.01400985 -0.04852019 0.06011151
f 1 2 3
f 1 3 4
f 1 4 5
f 1 5 18
f 1 18 32
f 1 32 52
f 1 52 59
f 1 59 63
f 1 63 64
f 1 64 62
f 1 62 53
f 1 53 34
f 1 34 19
f 1 19 6
f 1 6 8
f 1 8 2
f 2 7 3
f 2 8 7
f 3 7 9
f 3 9 10
f 3 10 11
f 3 11 4
f 4 12 5
f 4 11 13
f 4 13 14
f 4 14 15
f 4 15 16
f 4 16 12
f 5 12 17
f 5 17 18
f 6 19 20
f 6 20 21
f 6 21 8
f 7 8 21
f 7 21 9
f 9 21 22
f 9 22 10
f 10 23 13
f 10 13 11
f 10 22 24
f 10 24 23
f 12 16 25
f 12 25 26
f 12 26 17
f 13 23 14
f 14 27 28
f 14 28 29
f 14 29 30
f 14 30 25
f 14 25 16
f 14 16 15
f 14 23 31
f 14 31 27
f 17 26 18
f 18 26 32
f 19 33 20
f 19 34 35
f 19 35 33
f 20 36 37
f 20 37 38
f 20 38 39
f 20 39 40
f 20 40 22
f 20 22 21
f 20 33 36
f 22 40 41
f 22 41 24
f 23 42 31
f 23 24 42
f 24 41 31
f 24 31 42
f 25 30 43
f 25 43 26
f 26 43 44
f 26 44 45
f 26 45 32
f 27 31 28
f 28 31 46
f 28 46 47
f 28 47 48
f 28 48 49
f 28 49 29
f 29 50 43
f 29 43 30
f 29 49 51
f 29 51 50
f 31 41 46
f 32 45 52
f 33 35 36
f 34 53 54
f 34 54 35
f 35 55 36
f 35 54 55
f 36 55 37
f 37 55 38
f 38 56 48
f 38 48 47
f 38 47 39
f 38 55 56
f 39 47 46
f 39 46 41
f 39 41 40
f 43 50 44
f 44 57 45
f 44 50 58
f 44 58 57
f 45 57 59
f 45 59 52
f 48 56 60
f 48 60 61
f 48 61 49
f 49 61 58
f 49 58 51
f 50 51 58
f 53 62 54
f 54 62 60
f 54 60 56
f 54 56 55
f 57 58 60
f 57 60 63
f 57 63 59
f 58 61 60
f 60 62 64
f 60 64 63

