# https://github.com/mikedh/trimesh
v -0.05152525 0.00018125 -0.06776584
v -0.05148076 0.00175700 -0.06779542
v -0.05144071 0.00342863 -0.06879082
v -0.05150300 0.00016040 -0.06934957
v -0.04734497 -0.00027730 -0.06821457
v -0.03115332 -0.00027730 -0.06706271
v -0.05106251 0.00412479 -0.06709515
v -0.05130055 0.00298258 -0.06749489
v -0.05119599 0.00525867 -0.06833700
v -0.05133837 0.00175700 -0.06949332
v -0.05092457 0.00701367 -0.06830616
v -0.05051522 0.00818089 -0.06931745
v -0.05016149 0.00016040 -0.07020313
v -0.05043291 0.00292839 -0.07022921
v -0.04146721 -0.00027730 -0.06799736
v -0.02949366 0.00729714 -0.06702136
v -0.05089343 0.00535038 -0.06705825
v -0.03278850 -0.00027730 -0.06749680
v -0.02879954 0.01694340 -0.06766503
v -0.05101579 0.00292839 -0.06966378
v -0.05070433 0.00654678 -0.06705825
v -0.05005247 0.01050283 -0.06722776
v -0.05060866 0.00876867 -0.06833700
v -0.05025048 0.01047365 -0.06843940
v -0.04910029 0.01492161 -0.06886905
v -0.04903799 0.01336670 -0.07006861
v -0.05013257 0.00175700 -0.07027023
v -0.04826379 0.01460479 -0.07022062
v -0.02879954 0.01344173 -0.06730344
v -0.02879954 0.01191184 -0.06710469
v -0.02925339 0.04180942 -0.06702136
v -0.04722483 0.01927785 -0.06702136
v -0.02879954 0.03036230 -0.06814969
v -0.04958305 0.01234538 -0.06705825
v -0.04970097 0.01285395 -0.06833700
v -0.04847069 0.01694340 -0.06833700
v -0.04799904 0.01808978 -0.06875011
v -0.04787446 0.01668912 -0.07005780
v -0.04730715 0.01577201 -0.07024225
v -0.04649957 0.01752701 -0.07022603
v -0.04672871 0.01952380 -0.06997988
v -0.02879954 0.03802845 -0.06821457
v -0.02905761 0.04230966 -0.06819771
v -0.03258605 0.03958336 -0.06762846
v -0.03360720 0.03874129 -0.06761065
v -0.03862622 0.03332204 -0.06709515
v -0.04570978 0.02262945 -0.06702136
v -0.04624595 0.02154143 -0.06702136
v -0.04756522 0.01927785 -0.06833700
v -0.04801462 0.01748116 -0.06715366
v -0.04860862 0.01581370 -0.06709515
v -0.04913811 0.01405036 -0.06714221
v -0.04684885 0.02076606 -0.06871163
v -0.04543392 0.02071603 -0.07004031
v -0.03961845 0.03257585 -0.06821457
v -0.03832365 0.03409324 -0.06815033
v -0.03533138 0.03719055 -0.06795538
v -0.03627022 0.03626094 -0.06795061
v -0.03733809 0.03499784 -0.06761256
v -0.03969632 0.03203393 -0.06709515
v -0.04527818 0.02377999 -0.06755436
v -0.04320918 0.02744007 -0.06764563
v -0.04415247 0.02583514 -0.06758298
v -0.04219247 0.02891578 -0.06758680
f 1 2 3
f 1 3 4
f 1 4 5
f 1 5 6
f 1 6 7
f 1 7 8
f 1 8 2
f 2 8 9
f 2 9 3
f 3 10 4
f 3 9 11
f 3 11 12
f 3 12 10
f 4 13 5
f 4 10 14
f 4 14 13
f 5 15 18
f 5 18 6
f 5 13 15
f 6 16 17
f 6 17 7
f 6 18 19
f 6 19 16
f 7 9 8
f 7 17 9
f 9 17 11
f 10 12 20
f 10 20 14
f 11 17 21
f 11 21 22
f 11 22 23
f 11 23 12
f 12 23 24
f 12 24 25
f 12 25 26
f 12 26 20
f 13 18 15
f 13 14 27
f 13 27 19
f 13 19 18
f 14 20 26
f 14 26 28
f 14 28 27
f 16 19 29
f 16 29 30
f 16 30 31
f 16 31 47
f 16 47 48
f 16 48 32
f 16 32 17
f 17 32 21
f 19 27 33
f 19 33 42
f 19 42 30
f 19 30 29
f 21 34 22
f 21 32 34
f 22 24 23
f 22 34 35
f 22 35 24
f 24 35 25
f 25 35 36
f 25 36 37
f 25 37 38
f 25 38 26
f 26 38 28
f 27 28 39
f 27 39 40
f 27 40 33
f 28 38 41
f 28 41 40
f 28 40 39
f 30 42 31
f 31 42 43
f 31 43 44
f 31 44 45
f 31 45 46
f 31 46 47
f 32 48 49
f 32 49 50
f 32 50 51
f 32 51 34
f 33 40 42
f 34 52 35
f 34 51 52
f 35 52 51
f 35 51 36
f 36 51 50
f 36 50 49
f 36 49 37
f 37 49 53
f 37 53 41
f 37 41 38
f 40 41 54
f 40 54 43
f 40 43 42
f 41 53 55
f 41 55 54
f 43 56 57
f 43 57 44
f 43 54 56
f 44 57 45
f 45 57 58
f 45 58 59
f 45 59 46
f 46 56 55
f 46 55 60
f 46 60 47
f 46 59 56
f 47 61 48
f 47 60 62
f 47 62 63
f 47 63 61
f 48 61 49
f 49 61 53
f 53 61 63
f 53 63 62
f 53 62 55
f 54 55 56
f 55 62 64
f 55 64 60
f 56 59 58
f 56 58 57
f 60 64 62

