# https://github.com/mikedh/trimesh
v -0.00051392 -0.00056324 -0.01799867
v -0.00051392 -0.00056324 -0.06482323
v 0.00021413 -0.05035777 -0.02002456
v 0.00745973 -0.04963597 -0.01875953
v 0.01567772 -0.04765715 -0.01799867
v 0.04100990 -0.02889030 -0.01799867
v 0.05022523 -0.00249787 -0.01875953
v 0.05042968 -0.00234074 -0.05490005
v 0.01552813 -0.04812362 -0.06431905
v 0.00176996 -0.05061801 -0.06299443
v 0.00058812 -0.05072604 -0.05665093
v 0.05033992 -0.00324422 -0.06010227
v 0.04974152 -0.00818881 -0.06438780
v 0.04872924 -0.01310394 -0.06445655
v 0.00089730 -0.05066712 -0.03064900
v 0.00416854 -0.05048053 -0.02365007
v 0.01238155 -0.04918914 -0.02964523
v 0.01457069 -0.04843297 -0.02375549
v 0.02162680 -0.04545247 -0.01995581
v 0.02823411 -0.04144572 -0.01799867
v 0.04015719 -0.03074145 -0.02234379
v 0.04332869 -0.02564464 -0.02004748
v 0.04832033 -0.01396814 -0.01905287
v 0.03575397 -0.03545035 -0.02021248
v 0.04971659 -0.00826247 -0.01958913
v 0.05027510 -0.00358794 -0.03212946
v 0.04991606 -0.00759468 -0.04379893
v 0.01005278 -0.04958687 -0.05672427
v 0.00936463 -0.04962124 -0.06283401
v 0.03803287 -0.03320147 -0.06358111
v 0.02838371 -0.04179926 -0.06306777
v 0.02198085 -0.04549174 -0.06300360
v 0.01779206 -0.04740673 -0.05745304
v 0.00175500 -0.05066712 -0.05665093
v 0.00495643 -0.05037250 -0.05898391
v 0.04964678 -0.00905792 -0.05927725
v 0.04960689 -0.00964224 -0.03154278
v 0.04849985 -0.01420874 -0.02685390
v 0.04806601 -0.01569163 -0.03913756
v 0.04765711 -0.01663930 -0.06121147
v 0.04428613 -0.02430415 -0.06285693
v 0.04143875 -0.02893940 -0.06321443
v 0.00568947 -0.05036760 -0.03008524
v 0.02100347 -0.04608097 -0.03066734
v 0.02119296 -0.04598277 -0.02614347
v 0.02918656 -0.04122477 -0.02271504
v 0.04126921 -0.02949425 -0.03139611
v 0.03840687 -0.03313764 -0.03096068
v 0.04492442 -0.02338103 -0.03125402
v 0.04631570 -0.01988987 -0.02096875
v 0.03523536 -0.03637347 -0.03052067
v 0.03894543 -0.03221451 -0.05781971
v 0.03861132 -0.03288230 -0.04021467
v 0.03353492 -0.03779743 -0.06230691
v 0.03274204 -0.03857816 -0.05548215
v 0.03149039 -0.03967804 -0.04146595
v 0.02898709 -0.04150465 -0.03052067
v 0.02321255 -0.04496635 -0.05540881
v 0.04688916 -0.01901585 -0.03096068
v 0.04647028 -0.02005190 -0.04088844
v 0.04492941 -0.02320426 -0.05854848
v 0.04377251 -0.02539422 -0.05373127
v 0.04313421 -0.02643519 -0.05854848
v 0.04386227 -0.02535985 -0.03971966
f 1 2 3
f 1 3 4
f 1 4 5
f 1 5 20
f 1 20 6
f 1 6 7
f 1 7 8
f 1 8 2
f 2 9 10
f 2 10 11
f 2 11 3
f 2 8 12
f 2 12 13
f 2 13 14
f 2 14 9
f 3 11 15
f 3 15 16
f 3 16 4
f 4 17 18
f 4 18 5
f 4 16 17
f 5 19 20
f 5 18 19
f 6 21 22
f 6 22 23
f 6 23 7
f 6 20 24
f 6 24 21
f 7 23 25
f 7 25 26
f 7 26 8
f 8 26 27
f 8 27 12
f 9 17 28
f 9 28 29
f 9 29 10
f 9 14 30
f 9 30 31
f 9 31 32
f 9 32 33
f 9 33 17
f 10 34 11
f 10 29 35
f 10 35 34
f 11 34 15
f 12 27 13
f 13 27 36
f 13 36 14
f 14 37 38
f 14 38 39
f 14 39 40
f 14 40 41
f 14 41 42
f 14 42 30
f 14 36 37
f 15 34 16
f 16 34 43
f 16 43 17
f 17 33 18
f 17 43 28
f 18 33 44
f 18 44 45
f 18 45 19
f 19 45 46
f 19 46 20
f 20 46 24
f 21 47 22
f 21 24 48
f 21 48 47
f 22 49 50
f 22 50 23
f 22 47 49
f 23 38 25
f 23 50 38
f 24 46 51
f 24 51 48
f 25 27 26
f 25 38 37
f 25 37 27
f 27 37 36
f 28 43 35
f 28 35 29
f 30 42 52
f 30 52 53
f 30 53 54
f 30 54 31
f 31 54 55
f 31 55 56
f 31 56 57
f 31 57 58
f 31 58 32
f 32 58 44
f 32 44 33
f 34 35 43
f 38 50 59
f 38 59 39
f 39 59 40
f 40 59 60
f 40 60 61
f 40 61 41
f 41 61 62
f 41 62 63
f 41 63 42
f 42 47 53
f 42 53 52
f 42 63 47
f 44 58 45
f 45 58 57
f 45 57 46
f 46 57 56
f 46 56 51
f 47 64 49
f 47 48 53
f 47 63 64
f 48 51 53
f 49 61 60
f 49 60 59
f 49 59 50
f 49 64 61
f 51 56 55
f 51 55 54
f 51 54 53
f 61 64 62
f 62 64 63

