# https://github.com/mikedh/trimesh
v 0.00028889 0.05172193 0.06658316
v 0.00102677 0.05142299 0.06303829
v -0.00095292 0.05142090 0.06304026
v -0.00408957 0.05157769 0.06599958
v -0.00350595 0.05157559 0.06779863
v -0.00175251 0.05159441 0.06818407
v 0.00175180 0.05158187 0.06826885
v 0.00350267 0.05169893 0.06658316
v 0.00117846 0.05058052 0.06011151
v -0.00113289 0.05062024 0.06011151
v 0.00466992 0.05122857 0.06366426
v 0.00737978 0.05014151 0.06011151
v 0.00466992 0.05039028 0.06011151
v -0.00574788 0.05136654 0.06504041
v -0.00349566 0.05052616 0.06011151
v -0.00817493 0.05099444 0.06424883
v -0.00817493 0.05109478 0.06687495
v -0.00594328 0.05130592 0.06802634
v -0.00292233 0.05079793 0.06950403
v 0.00350267 0.05130801 0.06876272
v -0.00657575 0.05025649 0.06996143
v 0.00560063 0.05143135 0.06742009
v 0.00798911 0.05116377 0.06725940
v 0.00642336 0.05102370 0.06366426
v 0.00818965 0.05085855 0.06448049
v 0.00839019 0.03036743 0.06011151
v -0.00580188 0.05029412 0.06011151
v -0.01212917 0.05025439 0.06334881
v -0.01050942 0.05061814 0.06424883
v -0.01050942 0.05066832 0.06658316
v -0.01088479 0.05033384 0.06851135
v -0.00817493 0.05068086 0.06883468
v -0.00292233 0.05030875 0.07014972
v -0.00058526 0.05059724 0.06983624
v 0.00496815 0.05031711 0.06987863
v 0.00798911 0.05067250 0.06888594
v -0.01284906 0.04943074 0.06936799
v -0.01568747 0.04782941 0.07007283
v 0.00839019 0.04882449 0.07005705
v 0.00839019 0.03036743 0.06828560
v -0.01787542 0.03036743 0.06011151
v -0.01048629 0.04948718 0.06011151
v -0.01292619 0.04896873 0.06011151
v -0.01459993 0.04847119 0.06011151
v -0.01401630 0.04986556 0.06395605
v -0.01297504 0.05017287 0.06541599
v -0.01316787 0.04997427 0.06775131
v -0.01502158 0.04938266 0.06803620
v -0.01459993 0.04730678 0.07018225
v -0.01740492 0.04823079 0.06900325
v -0.01763888 0.04663573 0.07001269
v -0.01459993 0.04654584 0.07016548
v -0.00424126 0.03036743 0.06832996
v -0.01699870 0.03036743 0.06812492
v -0.01787542 0.04858199 0.06651514
v -0.01787542 0.04734859 0.06011151
v -0.01619654 0.04795066 0.06011151
v -0.01787542 0.04853600 0.06425277
v -0.01598828 0.04924886 0.06432769
v -0.01614511 0.04925513 0.06599958
v -0.01489560 0.03036743 0.06818111
v -0.01233742 0.03036743 0.06823434
f 1 2 3
f 1 3 4
f 1 4 5
f 1 5 6
f 1 6 7
f 1 7 8
f 1 8 2
f 2 9 10
f 2 10 3
f 2 8 11
f 2 11 12
f 2 12 13
f 2 13 9
f 3 14 4
f 3 10 15
f 3 15 16
f 3 16 14
f 4 14 17
f 4 17 18
f 4 18 5
f 5 18 6
f 6 19 20
f 6 20 7
f 6 18 21
f 6 21 19
f 7 20 22
f 7 22 8
f 8 22 23
f 8 23 24
f 8 24 11
f 9 13 12
f 9 12 26
f 9 26 41
f 9 41 56
f 9 56 57
f 9 57 44
f 9 44 43
f 9 43 42
f 9 42 27
f 9 27 15
f 9 15 10
f 11 24 12
f 12 24 25
f 12 25 26
f 14 16 17
f 15 27 16
f 16 28 29
f 16 29 17
f 16 27 28
f 17 29 30
f 17 30 31
f 17 31 18
f 18 31 32
f 18 32 21
f 19 33 34
f 19 34 20
f 19 21 33
f 20 35 36
f 20 36 23
f 20 23 22
f 20 34 35
f 21 32 37
f 21 37 38
f 21 38 33
f 23 36 39
f 23 39 25
f 23 25 24
f 25 39 26
f 26 39 40
f 26 40 53
f 26 53 62
f 26 62 61
f 26 61 54
f 26 54 41
f 27 42 28
f 28 43 44
f 28 44 45
f 28 45 46
f 28 46 29
f 28 42 43
f 29 46 30
f 30 46 47
f 30 47 31
f 31 47 48
f 31 48 37
f 31 37 32
f 33 39 35
f 33 35 34
f 33 38 49
f 33 49 39
f 35 39 36
f 37 48 50
f 37 50 38
f 38 50 51
f 38 51 49
f 39 49 52
f 39 52 40
f 40 52 53
f 41 54 51
f 41 51 55
f 41 55 58
f 41 58 56
f 44 57 45
f 45 57 56
f 45 56 58
f 45 58 59
f 45 59 60
f 45 60 46
f 46 60 47
f 47 60 48
f 48 60 55
f 48 55 50
f 49 51 52
f 50 55 51
f 51 54 52
f 52 54 61
f 52 61 62
f 52 62 53
f 55 60 58
f 58 60 59

