# https://github.com/mikedh/trimesh
v 0.01925841 0.04736533 -0.06833330
v 0.02056388 0.04677874 -0.06832997
v 0.02020254 0.04687813 -0.06930348
v 0.01923976 0.04715681 -0.06961428
v 0.01923976 0.04337805 -0.06837859
v 0.03893598 0.02745817 -0.06836113
v 0.04217866 0.02880480 -0.06832997
v 0.02360142 0.04533467 -0.06832997
v 0.02257569 0.04573612 -0.06926609
v 0.02447095 0.04436611 -0.07005844
v 0.01923976 0.04504234 -0.07003601
v 0.01954515 0.04666765 -0.07013469
v 0.01923976 0.04400362 -0.06926900
v 0.03942319 0.02745817 -0.06918881
v 0.04252601 0.02745817 -0.06960887
v 0.04305519 0.02750689 -0.06845628
v 0.04095479 0.03046909 -0.06906894
v 0.04146532 0.02978895 -0.06832997
v 0.02525190 0.04446160 -0.06832997
v 0.02482296 0.04455904 -0.06928001
v 0.02678116 0.04315589 -0.07000069
v 0.02600254 0.04337221 -0.07018746
v 0.02511669 0.04360996 -0.07030940
v 0.02511669 0.04263556 -0.07045234
v 0.04049321 0.02745817 -0.06994730
v 0.02402802 0.04390618 -0.07033038
v 0.04229988 0.02840140 -0.06926962
v 0.04168212 0.02753807 -0.07008960
v 0.04090583 0.02923744 -0.07009729
v 0.04062842 0.03001697 -0.06984737
v 0.03955607 0.03132462 -0.06996080
v 0.03987778 0.03175336 -0.06918257
v 0.03863525 0.03340596 -0.06832997
v 0.03969828 0.03211000 -0.06832997
v 0.04073565 0.03076531 -0.06832997
v 0.02628461 0.04384382 -0.06832997
v 0.02704225 0.04331959 -0.06922225
v 0.02834772 0.04223410 -0.06982535
v 0.02745254 0.04237052 -0.07023607
v 0.02634756 0.04271351 -0.07032291
v 0.02745254 0.04146821 -0.07040434
v 0.03563035 0.03560228 -0.07028447
v 0.03915278 0.03094460 -0.07019098
v 0.04026242 0.02969151 -0.07015920
v 0.03984747 0.03054510 -0.07014050
v 0.03634369 0.03519692 -0.07017769
v 0.03741371 0.03392434 -0.07011287
v 0.03879844 0.03302204 -0.06925778
v 0.03781234 0.03437062 -0.06832997
v 0.02737095 0.04316368 -0.06832997
v 0.02883260 0.04219512 -0.06832997
v 0.03050173 0.04097906 -0.06921831
v 0.03178156 0.03990721 -0.06927876
v 0.03524337 0.03638765 -0.07023233
v 0.03877745 0.03183326 -0.07018060
v 0.03627609 0.03578936 -0.06959330
v 0.03639265 0.03599399 -0.06846335
v 0.03730181 0.03495722 -0.06832997
v 0.02978373 0.04152278 -0.06832997
v 0.03080479 0.04076274 -0.06832997
v 0.03212424 0.03971428 -0.06832997
v 0.03494964 0.03730164 -0.06832997
v 0.03563035 0.03655914 -0.06942523
v 0.03573059 0.03660981 -0.06834659
f 1 2 3
f 1 3 4
f 1 4 5
f 1 5 6
f 1 6 7
f 1 7 2
f 2 8 3
f 2 7 18
f 2 18 35
f 2 35 34
f 2 34 33
f 2 33 49
f 2 49 58
f 2 58 62
f 2 62 61
f 2 61 60
f 2 60 59
f 2 59 51
f 2 51 50
f 2 50 36
f 2 36 19
f 2 19 8
f 3 8 9
f 3 9 10
f 3 10 4
f 4 11 13
f 4 13 5
f 4 10 12
f 4 12 11
f 5 13 14
f 5 14 6
f 6 14 25
f 6 25 15
f 6 15 16
f 6 16 7
f 7 16 17
f 7 17 18
f 8 19 20
f 8 20 9
f 9 20 10
f 10 20 21
f 10 21 22
f 10 22 23
f 10 23 12
f 11 12 24
f 11 24 25
f 11 25 13
f 12 23 26
f 12 26 24
f 13 25 14
f 15 27 16
f 15 25 28
f 15 28 29
f 15 29 27
f 16 27 17
f 17 27 30
f 17 30 31
f 17 31 32
f 17 32 33
f 17 33 34
f 17 34 35
f 17 35 18
f 19 36 37
f 19 37 20
f 20 37 21
f 21 37 38
f 21 38 39
f 21 39 22
f 22 39 23
f 23 24 26
f 23 39 40
f 23 40 41
f 23 41 24
f 24 41 42
f 24 42 43
f 24 43 44
f 24 44 28
f 24 28 25
f 27 29 30
f 28 44 29
f 29 44 45
f 29 45 46
f 29 46 47
f 29 47 31
f 29 31 30
f 31 47 32
f 32 47 46
f 32 46 48
f 32 48 33
f 33 48 49
f 36 50 37
f 37 50 51
f 37 51 52
f 37 52 38
f 38 52 53
f 38 53 54
f 38 54 39
f 39 41 40
f 39 54 41
f 41 54 42
f 42 54 46
f 42 46 55
f 42 55 44
f 42 44 43
f 44 55 45
f 45 55 46
f 46 54 56
f 46 56 48
f 48 56 57
f 48 57 49
f 49 57 58
f 51 59 52
f 52 59 60
f 52 60 61
f 52 61 53
f 53 61 62
f 53 62 63
f 53 63 54
f 54 63 56
f 56 63 57
f 57 63 64
f 57 64 58
f 58 64 62
f 62 64 63

