# https://github.com/mikedh/trimesh
v -0.05124828 0.00096963 -0.06701486
v -0.03102605 -0.00027225 -0.06701486
v -0.05024511 0.00114128 -0.01800393
v -0.05056294 0.00169659 -0.02255301
v -0.05050832 0.00468517 -0.03096684
v -0.05093044 0.00481138 -0.06701486
v -0.02878631 0.03808970 -0.06829490
v -0.02870188 0.03036077 -0.06814720
v -0.02878631 0.01694747 -0.06765488
v -0.00051392 -0.00027225 -0.01800393
v -0.00055365 0.00409957 -0.06695578
v -0.00142770 -0.00007031 -0.06678346
v -0.04964917 0.00819374 -0.01800393
v -0.04992728 0.00787569 -0.02249393
v -0.04978822 0.01137416 -0.06701486
v -0.02798179 0.04303197 -0.06829490
v -0.01744358 0.04420318 -0.06829490
v -0.00051889 0.04733817 -0.06828998
v -0.00113966 0.04146195 -0.06827520
v -0.00051392 0.05107390 -0.06828998
v -0.00143763 0.05066499 -0.02221330
v -0.00238120 0.05034189 -0.01800393
v -0.04879002 0.01249992 -0.01967291
v -0.04692275 0.01796217 -0.01800393
v -0.04740943 0.01745735 -0.02220838
v -0.04795074 0.01744220 -0.06701486
v -0.02486304 0.04422337 -0.03096684
v -0.02465446 0.04485945 -0.06829490
v -0.04531371 0.02337899 -0.06701486
v -0.04258728 0.02811428 -0.06701486
v -0.03924009 0.03253658 -0.06701486
v -0.03679177 0.03530809 -0.06701486
v -0.03310687 0.03898830 -0.06701486
v -0.03170641 0.03943759 -0.03169548
v -0.03138361 0.03957894 -0.02571373
v -0.02995832 0.04061384 -0.02249885
v -0.02021471 0.04693935 -0.06829490
v -0.00650312 0.05064480 -0.06828998
v -0.00172070 0.05130107 -0.06347012
v -0.00735233 0.05016521 -0.02263670
v -0.00751125 0.04974620 -0.01800393
v -0.04385366 0.02442398 -0.01800393
v -0.04591462 0.02096086 -0.02206068
v -0.02031403 0.04647995 -0.03161178
v -0.02440615 0.04420318 -0.02177021
v -0.04350602 0.02551946 -0.02220838
v -0.04142023 0.02899268 -0.03212872
v -0.03934437 0.03165818 -0.03052867
v -0.03713443 0.03420757 -0.02600421
v -0.03364322 0.03757982 -0.02289271
v -0.03175111 0.03876112 -0.01800393
v -0.02850820 0.04127517 -0.01800393
v -0.01577992 0.04821657 -0.03096684
v -0.01529323 0.04882236 -0.06828998
v -0.00964174 0.04979668 -0.03023820
v -0.01460790 0.04860528 -0.03096684
v -0.01379842 0.04841850 -0.01800393
v -0.03477054 0.03609563 -0.01800393
v -0.04093355 0.02909365 -0.01969260
v -0.01968829 0.04651025 -0.02191299
v -0.02415784 0.04402649 -0.01800393
v -0.03679177 0.03444988 -0.02228223
v -0.01562597 0.04807521 -0.02220838
v -0.01830770 0.04681314 -0.01800393
f 1 2 3
f 1 3 4
f 1 4 5
f 1 5 6
f 1 6 7
f 1 7 8
f 1 8 9
f 1 9 2
f 2 10 3
f 2 9 11
f 2 11 12
f 2 12 10
f 3 10 22
f 3 22 41
f 3 41 57
f 3 57 64
f 3 64 61
f 3 61 52
f 3 52 51
f 3 51 58
f 3 58 42
f 3 42 24
f 3 24 13
f 3 13 4
f 4 13 14
f 4 14 5
f 5 14 6
f 6 14 15
f 6 15 16
f 6 16 7
f 7 16 28
f 7 28 37
f 7 37 17
f 7 17 18
f 7 18 19
f 7 19 8
f 8 11 9
f 8 19 11
f 10 12 11
f 10 11 20
f 10 20 21
f 10 21 22
f 11 19 18
f 11 18 20
f 13 23 14
f 13 24 23
f 14 23 15
f 15 23 25
f 15 25 26
f 15 26 16
f 16 27 28
f 16 26 29
f 16 29 30
f 16 30 31
f 16 31 32
f 16 32 33
f 16 33 34
f 16 34 35
f 16 35 36
f 16 36 27
f 17 37 20
f 17 20 18
f 20 37 38
f 20 38 39
f 20 39 21
f 21 39 40
f 21 40 22
f 22 40 41
f 23 24 25
f 24 42 43
f 24 43 25
f 25 43 26
f 26 43 29
f 27 44 28
f 27 36 45
f 27 45 44
f 28 44 37
f 29 43 46
f 29 46 30
f 30 46 47
f 30 47 31
f 31 47 48
f 31 48 49
f 31 49 32
f 32 49 33
f 33 49 50
f 33 50 34
f 34 50 35
f 35 50 36
f 36 50 51
f 36 51 52
f 36 52 45
f 37 53 54
f 37 54 38
f 37 44 53
f 38 55 40
f 38 40 39
f 38 54 55
f 40 55 56
f 40 56 57
f 40 57 41
f 42 58 59
f 42 59 46
f 42 46 43
f 44 45 60
f 44 60 53
f 45 61 60
f 45 52 61
f 46 59 47
f 47 59 48
f 48 62 49
f 48 59 62
f 49 62 50
f 50 62 58
f 50 58 51
f 53 63 56
f 53 56 54
f 53 60 63
f 54 56 55
f 56 63 57
f 57 63 64
f 58 62 59
f 60 61 64
f 60 64 63

