# https://github.com/mikedh/trimesh
v -0.05107503 -0.00278103 -0.06688376
v -0.05060980 -0.00292510 -0.03096832
v -0.05018912 -0.00140001 -0.01800388
v -0.03043188 -0.00027730 -0.06688376
v -0.02496301 -0.03432104 -0.06796617
v -0.04999115 -0.01056047 -0.06688376
v -0.04976844 -0.00886648 -0.02450324
v -0.05039698 -0.00313374 -0.02239230
v -0.00051392 -0.00027730 -0.01800388
v -0.04961006 -0.00741094 -0.01800388
v -0.00142953 -0.00027730 -0.06677601
v -0.03809821 -0.03424155 -0.06688376
v -0.04106773 -0.03038164 -0.06688376
v -0.04441340 -0.02555302 -0.06688376
v -0.04609612 -0.02206569 -0.06688376
v -0.04834801 -0.01654656 -0.06688376
v -0.01972675 -0.03713773 -0.06803474
v -0.02626465 -0.03882675 -0.06745191
v -0.03360927 -0.03846908 -0.06688376
v -0.04910524 -0.01230414 -0.02768680
v -0.04843710 -0.01414219 -0.02191231
v -0.04838761 -0.01308903 -0.01800388
v -0.00051392 -0.03387394 -0.06758904
v -0.00751210 -0.04963153 -0.01800388
v -0.00122166 -0.05033694 -0.01966423
v -0.01199609 -0.03882675 -0.06800536
v -0.03508908 -0.03633296 -0.02256372
v -0.03773691 -0.03339207 -0.02169192
v -0.04031545 -0.03039654 -0.02220129
v -0.04289894 -0.02656147 -0.02205435
v -0.04660094 -0.01955203 -0.02687377
v -0.04737797 -0.01777359 -0.03052752
v -0.01143188 -0.04981533 -0.06688376
v -0.01754415 -0.04795244 -0.06688376
v -0.02285959 -0.04566729 -0.06688376
v -0.02913519 -0.04187692 -0.06688376
v -0.02902631 -0.04156396 -0.03096832
v -0.03151576 -0.03956197 -0.02230904
v -0.04620996 -0.02001899 -0.02169192
v -0.04696718 -0.01735133 -0.01800388
v -0.00099895 -0.05102745 -0.06688376
v -0.01784110 -0.04686451 -0.01800388
v -0.01481218 -0.04809650 -0.01949281
v -0.01158035 -0.04928876 -0.02220129
v -0.00766553 -0.04999914 -0.02216700
v -0.00175618 -0.05070952 -0.03096832
v -0.00467621 -0.05081384 -0.06688376
v -0.03500495 -0.03573683 -0.01800388
v -0.03840011 -0.03204582 -0.01800388
v -0.04266632 -0.02605973 -0.01800388
v -0.04524981 -0.02132550 -0.01800388
v -0.00828913 -0.05062507 -0.06369531
v -0.01285725 -0.04958682 -0.06219658
v -0.01314925 -0.04944275 -0.05737717
v -0.01823704 -0.04735134 -0.03064017
v -0.02063245 -0.04622864 -0.02232373
v -0.02547773 -0.04384911 -0.03096832
v -0.02836311 -0.04186699 -0.02453753
v -0.03153555 -0.03890623 -0.01800388
v -0.02792263 -0.04158383 -0.01800388
v -0.02125110 -0.04538910 -0.01800388
v -0.00829903 -0.05010346 -0.03096832
v -0.01294138 -0.04908508 -0.02921491
v -0.02503230 -0.04364046 -0.01966423
f 1 2 3
f 1 3 4
f 1 4 5
f 1 5 6
f 1 6 7
f 1 7 2
f 2 8 3
f 2 7 8
f 3 9 4
f 3 8 10
f 3 10 22
f 3 22 40
f 3 40 51
f 3 51 50
f 3 50 49
f 3 49 48
f 3 48 59
f 3 59 60
f 3 60 61
f 3 61 42
f 3 42 24
f 3 24 9
f 4 9 11
f 4 11 5
f 5 12 13
f 5 13 14
f 5 14 15
f 5 15 16
f 5 16 6
f 5 11 17
f 5 17 18
f 5 18 19
f 5 19 12
f 6 16 20
f 6 20 7
f 7 20 21
f 7 21 22
f 7 22 10
f 7 10 8
f 9 23 11
f 9 24 25
f 9 25 23
f 11 23 26
f 11 26 17
f 12 19 27
f 12 27 28
f 12 28 29
f 12 29 13
f 13 29 14
f 14 29 30
f 14 30 31
f 14 31 15
f 15 31 32
f 15 32 16
f 16 32 21
f 16 21 20
f 17 26 33
f 17 33 34
f 17 34 35
f 17 35 18
f 18 35 36
f 18 36 19
f 19 36 37
f 19 37 38
f 19 38 27
f 21 32 31
f 21 31 39
f 21 39 40
f 21 40 22
f 23 41 26
f 23 25 41
f 24 42 43
f 24 43 44
f 24 44 45
f 24 45 25
f 25 45 46
f 25 46 41
f 26 41 47
f 26 47 33
f 27 48 28
f 27 38 48
f 28 49 29
f 28 48 49
f 29 49 50
f 29 50 30
f 30 50 51
f 30 51 39
f 30 39 31
f 33 47 52
f 33 52 53
f 33 53 34
f 34 53 54
f 34 54 55
f 34 55 35
f 35 56 57
f 35 57 36
f 35 55 56
f 36 57 37
f 37 57 58
f 37 58 38
f 38 59 48
f 38 58 60
f 38 60 59
f 39 51 40
f 41 46 52
f 41 52 47
f 42 61 56
f 42 56 43
f 43 55 44
f 43 56 55
f 44 53 52
f 44 52 62
f 44 62 45
f 44 55 63
f 44 63 53
f 45 62 46
f 46 62 52
f 53 63 54
f 54 63 55
f 56 61 64
f 56 64 57
f 57 64 58
f 58 64 60
f 60 64 61

