# https://github.com/mikedh/trimesh
v 0.00058436 0.05109944 -0.06833006
v 0.00292209 0.05108200 -0.06833006
v 0.00058436 0.05075447 -0.06950428
v -0.00051392 0.05074538 -0.06950428
v -0.00051392 0.05108200 -0.06833006
v 0.00408418 0.05105016 -0.06832689
v 0.00058436 0.05031626 -0.07015007
v -0.00051392 0.05030943 -0.07015720
v 0.00408998 0.05065819 -0.06946880
v -0.00051392 0.04736474 -0.06832351
v 0.00786244 0.05068397 -0.06832351
v 0.00642578 0.05088563 -0.06833006
v 0.00525981 0.05097434 -0.06833006
v 0.00759367 0.05053233 -0.06927851
v 0.00525981 0.05062179 -0.06941390
v 0.00175226 0.05028365 -0.07012073
v 0.01109543 0.04918660 -0.07015304
v 0.01226332 0.04847696 -0.07026206
v 0.01576894 0.04730864 -0.07034848
v -0.00051392 0.05026925 -0.07015780
v 0.00256630 0.05024954 -0.07010011
v 0.01923976 0.04335407 -0.06832351
v -0.00051392 0.04787422 -0.06894155
v 0.01923976 0.04400609 -0.06926900
v 0.01923976 0.04340411 -0.06842658
v 0.00758787 0.05074993 -0.06833006
v 0.00892592 0.05042998 -0.06832351
v 0.00959302 0.05030792 -0.06862857
v 0.00876157 0.05042998 -0.06921112
v 0.01293042 0.04907894 -0.07010349
v 0.01226332 0.04912291 -0.07013144
v 0.01336548 0.04851487 -0.07022262
v 0.01460105 0.04820099 -0.07023768
v 0.01576894 0.04807741 -0.07021667
v 0.01702579 0.04740340 -0.07024996
v 0.01810474 0.04709256 -0.07022162
v 0.01923976 0.04634881 -0.07023569
v 0.01923976 0.04624115 -0.07024343
v 0.01810474 0.04614258 -0.07028922
v -0.00051392 0.04956113 -0.07014531
v 0.01923976 0.04737232 -0.06833006
v 0.01775089 0.04798188 -0.06832689
v -0.00051392 0.04862177 -0.06966127
v 0.01923976 0.04475743 -0.06985909
v -0.00051392 0.04909941 -0.07008466
v 0.00959302 0.05030792 -0.06909001
v 0.01225752 0.04957705 -0.06833006
v 0.01576894 0.04859751 -0.06833006
v 0.01406738 0.04907818 -0.06833006
v 0.01343315 0.04925711 -0.06833006
v 0.01747438 0.04785527 -0.07004125
v 0.01669707 0.04798643 -0.07016593
v 0.01906574 0.04686284 -0.07017148
v 0.01923976 0.04653304 -0.07020735
v 0.01923976 0.04533439 -0.07021310
v -0.00012527 0.04905392 -0.07009357
v 0.01923976 0.04715928 -0.06961429
v 0.01773155 0.04796975 -0.06926286
v 0.01833870 0.04775140 -0.06833006
v 0.01693297 0.04825254 -0.06833006
v 0.01810474 0.04544584 -0.07015601
v 0.01405191 0.04907060 -0.06897782
v 0.01702579 0.04810546 -0.06959308
v 0.01923976 0.04683099 -0.07015146
f 1 2 3
f 1 3 4
f 1 4 5
f 1 5 6
f 1 6 2
f 2 6 3
f 3 7 8
f 3 8 4
f 3 6 9
f 3 9 7
f 4 8 20
f 4 20 40
f 4 40 45
f 4 45 43
f 4 43 23
f 4 23 10
f 4 10 5
f 5 10 11
f 5 11 6
f 6 11 12
f 6 12 13
f 6 13 14
f 6 14 15
f 6 15 9
f 7 9 16
f 7 16 17
f 7 17 18
f 7 18 8
f 8 18 19
f 8 19 20
f 9 15 21
f 9 21 16
f 10 22 27
f 10 27 11
f 10 23 24
f 10 24 25
f 10 25 22
f 11 26 12
f 11 27 28
f 11 28 26
f 12 26 29
f 12 29 14
f 12 14 13
f 14 21 15
f 14 29 30
f 14 30 21
f 16 21 31
f 16 31 17
f 17 31 32
f 17 32 18
f 18 32 33
f 18 33 19
f 19 33 34
f 19 34 35
f 19 35 36
f 19 36 37
f 19 37 38
f 19 38 39
f 19 39 40
f 19 40 20
f 21 30 31
f 22 25 24
f 22 24 44
f 22 44 55
f 22 55 38
f 22 38 37
f 22 37 54
f 22 54 64
f 22 64 57
f 22 57 41
f 22 41 42
f 22 42 27
f 23 43 24
f 24 43 45
f 24 45 44
f 26 28 46
f 26 46 29
f 27 47 28
f 27 42 48
f 27 48 49
f 27 49 50
f 27 50 47
f 28 47 50
f 28 50 46
f 29 46 30
f 30 51 52
f 30 52 34
f 30 34 31
f 30 46 51
f 31 34 32
f 32 34 33
f 34 52 35
f 35 52 36
f 36 53 54
f 36 54 37
f 36 52 53
f 38 55 39
f 39 55 56
f 39 56 40
f 40 56 45
f 41 57 58
f 41 58 59
f 41 59 42
f 42 59 58
f 42 58 60
f 42 60 48
f 44 45 61
f 44 61 55
f 45 56 55
f 45 55 61
f 46 50 62
f 46 62 63
f 46 63 51
f 48 60 58
f 48 58 62
f 48 62 49
f 49 62 50
f 51 63 58
f 51 58 57
f 51 57 64
f 51 64 52
f 52 64 53
f 53 64 54
f 58 63 62

