# https://github.com/mikedh/trimesh
v -0.05164132 -0.00043216 -0.06823291
v -0.04729691 -0.00027731 -0.06812912
v -0.04933117 -0.00027731 -0.07015944
v -0.05158280 -0.00043216 -0.06918556
v -0.05150199 -0.00175288 -0.06919397
v -0.05141931 -0.00323287 -0.06897902
v -0.05136730 -0.00323066 -0.06812912
v -0.05150756 -0.00175288 -0.06812912
v -0.04215180 -0.02287765 -0.06833482
v -0.04267291 -0.02287765 -0.06923137
v -0.04787747 -0.00027731 -0.06912316
v -0.04607171 -0.02282898 -0.06824321
v -0.04964514 -0.00175288 -0.07026512
v -0.05054152 -0.00043216 -0.07025419
v -0.05115830 -0.00043216 -0.06979174
v -0.04855741 -0.00027731 -0.06969025
v -0.04390090 -0.02287765 -0.06992306
v -0.04438670 -0.02230247 -0.07010207
v -0.05113972 -0.00175288 -0.06977745
v -0.05111836 -0.00292095 -0.06963856
v -0.05045327 -0.00876128 -0.06938181
v -0.05033066 -0.00993157 -0.06918283
v -0.05025635 -0.01064391 -0.06901033
v -0.05063441 -0.00876350 -0.06823291
v -0.05081926 -0.00754234 -0.06823291
v -0.05113786 -0.00525708 -0.06833650
v -0.05130692 -0.00399389 -0.06842055
v -0.05098181 -0.00632339 -0.06823291
v -0.05041705 -0.00993157 -0.06823291
v -0.04900514 -0.01559271 -0.06823291
v -0.04860386 -0.01681830 -0.06823291
v -0.04581069 -0.02287765 -0.06928558
v -0.04778922 -0.01901285 -0.06828460
v -0.04670428 -0.02156358 -0.06828460
v -0.04680739 -0.02121404 -0.06908051
v -0.04964514 -0.00292095 -0.07027353
v -0.04605963 -0.01809477 -0.07020818
v -0.04730899 -0.01576969 -0.07027541
v -0.04964514 -0.00408901 -0.07026806
v -0.05055638 -0.00175288 -0.07023675
v -0.04489202 -0.02287323 -0.06991507
v -0.04563699 -0.02113440 -0.07011636
v -0.04686962 -0.01906373 -0.07018128
v -0.04702661 -0.01810362 -0.07022436
v -0.05053409 -0.00292095 -0.07022036
v -0.05045699 -0.00408901 -0.07019746
v -0.05027957 -0.00738748 -0.06996025
v -0.05005757 -0.00876128 -0.06996571
v -0.04910639 -0.01361054 -0.06995268
v -0.05019783 -0.01096690 -0.06828460
v -0.04918162 -0.01460163 -0.06922948
v -0.04908967 -0.01529406 -0.06899184
v -0.04988572 -0.01226106 -0.06833650
v -0.04958941 -0.01343134 -0.06833650
v -0.04928659 -0.01460163 -0.06833650
v -0.04814591 -0.01810362 -0.06833650
v -0.04670335 -0.01984466 -0.07008295
v -0.04796757 -0.01841112 -0.06905761
v -0.04720495 -0.02044196 -0.06833650
v -0.04696530 -0.02044196 -0.06932802
v -0.04809111 -0.01576969 -0.07022289
v -0.04826481 -0.01460163 -0.07022856
v -0.04797686 -0.01658380 -0.07015838
v -0.04823416 -0.01695767 -0.06957133
f 1 2 3
f 1 3 4
f 1 4 5
f 1 5 6
f 1 6 7
f 1 7 8
f 1 8 2
f 2 9 10
f 2 10 11
f 2 11 16
f 2 16 3
f 2 8 7
f 2 7 12
f 2 12 9
f 3 13 14
f 3 14 15
f 3 15 4
f 3 16 10
f 3 10 17
f 3 17 18
f 3 18 13
f 4 15 19
f 4 19 5
f 5 19 20
f 5 20 6
f 6 21 22
f 6 22 23
f 6 23 24
f 6 24 25
f 6 25 26
f 6 26 27
f 6 27 7
f 6 20 21
f 7 27 26
f 7 26 28
f 7 28 25
f 7 25 24
f 7 24 29
f 7 29 30
f 7 30 31
f 7 31 12
f 9 12 32
f 9 32 17
f 9 17 10
f 10 16 11
f 12 31 33
f 12 33 34
f 12 34 35
f 12 35 32
f 13 36 14
f 13 18 37
f 13 37 38
f 13 38 36
f 14 36 39
f 14 39 40
f 14 40 15
f 15 40 19
f 17 32 41
f 17 41 18
f 18 41 42
f 18 42 43
f 18 43 44
f 18 44 38
f 18 38 37
f 19 40 45
f 19 45 46
f 19 46 47
f 19 47 20
f 20 47 21
f 21 48 49
f 21 49 22
f 21 47 48
f 22 49 23
f 23 50 29
f 23 29 24
f 23 49 51
f 23 51 52
f 23 52 53
f 23 53 50
f 25 28 26
f 29 50 30
f 30 54 55
f 30 55 52
f 30 52 31
f 30 50 54
f 31 52 56
f 31 56 33
f 32 35 57
f 32 57 41
f 33 58 59
f 33 59 34
f 33 56 58
f 34 59 35
f 35 59 58
f 35 58 60
f 35 60 57
f 36 38 39
f 38 44 61
f 38 61 62
f 38 62 39
f 39 62 40
f 40 62 45
f 41 57 42
f 42 57 43
f 43 57 63
f 43 63 61
f 43 61 44
f 45 62 61
f 45 61 46
f 46 48 47
f 46 61 48
f 48 61 49
f 49 61 63
f 49 63 64
f 49 64 52
f 49 52 51
f 50 53 54
f 52 55 54
f 52 54 53
f 52 64 58
f 52 58 56
f 57 60 64
f 57 64 63
f 58 64 60

