# https://github.com/mikedh/trimesh
v 0.00561450 -0.03821157 0.06011252
v 0.00544978 -0.03821157 0.06777211
v 0.00552369 -0.04362847 0.06965959
v 0.00547934 -0.05131423 0.06832950
v 0.00546667 -0.05141103 0.06664224
v 0.00543500 -0.05118163 0.06429396
v 0.00494295 -0.05021627 0.06011252
v -0.01497330 -0.03821157 0.06011252
v 0.00233489 -0.03821157 0.06816047
v -0.01576734 -0.04075891 0.06987893
v 0.00350271 -0.04380748 0.06981554
v 0.00543500 -0.04911167 0.07031659
v 0.00543500 -0.05048413 0.06982963
v 0.00350271 -0.05144020 0.06848646
v 0.00320917 -0.05160331 0.06658288
v 0.00415736 -0.05141501 0.06535240
v 0.00408556 -0.05122406 0.06366614
v 0.00289452 -0.05038733 0.06011252
v -0.01478536 -0.04850699 0.06011252
v -0.01595951 -0.03914908 0.06882653
v -0.01497330 -0.03821157 0.06808804
v -0.00900329 -0.03821157 0.06815243
v -0.01568920 -0.04680567 0.07033068
v -0.00058571 -0.04964341 0.07039004
v -0.00233849 -0.04997360 0.07025824
v -0.00058571 -0.05061806 0.06983265
v -0.00168172 -0.05121478 0.06909818
v -0.00004931 -0.05147203 0.06871988
v 0.00174993 -0.05147468 0.06858606
v -0.00000285 -0.05175713 0.06716643
v 0.00145639 -0.05168818 0.06658288
v 0.00203080 -0.05144816 0.06408368
v -0.00018658 -0.05142827 0.06328784
v 0.00115229 -0.05040589 0.06011252
v -0.01297556 -0.04900426 0.06011252
v -0.01159445 -0.05037406 0.06347598
v -0.01487827 -0.04952805 0.06412090
v -0.01530274 -0.04897376 0.06909818
v -0.01234624 -0.04857462 0.07027735
v -0.01051110 -0.04907719 0.07028339
v -0.00491487 -0.05031439 0.06996847
v -0.00379985 -0.05144020 0.06834158
v -0.00700554 -0.05031174 0.06969481
v -0.00175564 -0.05173326 0.06716643
v -0.00029428 -0.05166298 0.06541578
v -0.00175564 -0.05151446 0.06436137
v -0.00344718 -0.05142562 0.06460586
v -0.00581449 -0.05116439 0.06427182
v -0.00643535 -0.05022953 0.06011252
v -0.00467412 -0.05033163 0.06011252
v -0.01051110 -0.04960231 0.06011252
v -0.01109395 -0.05059154 0.06483324
v -0.01285941 -0.05022953 0.06445393
v -0.00818602 -0.05000145 0.06011252
v -0.01478536 -0.04948959 0.06716643
v -0.01282351 -0.05007173 0.06740085
v -0.01057868 -0.05025605 0.06869372
v -0.01286152 -0.04924958 0.06968273
v -0.00759050 -0.05101189 0.06833453
v -0.00553151 -0.05132882 0.06816350
v -0.00876043 -0.05038600 0.06919175
v -0.00759050 -0.05121345 0.06716643
v -0.00438270 -0.05150916 0.06658288
v -0.00610380 -0.05135666 0.06631223
f 1 2 3
f 1 3 4
f 1 4 5
f 1 5 6
f 1 6 7
f 1 7 18
f 1 18 34
f 1 34 50
f 1 50 49
f 1 49 54
f 1 54 51
f 1 51 35
f 1 35 19
f 1 19 8
f 1 8 21
f 1 21 22
f 1 22 9
f 1 9 2
f 2 9 3
f 3 9 10
f 3 10 11
f 3 11 12
f 3 12 4
f 4 12 13
f 4 13 14
f 4 14 15
f 4 15 5
f 5 15 16
f 5 16 6
f 6 16 17
f 6 17 7
f 7 17 18
f 8 19 20
f 8 20 21
f 9 22 20
f 9 20 10
f 10 20 23
f 10 23 12
f 10 12 11
f 12 23 24
f 12 24 13
f 13 24 25
f 13 25 26
f 13 26 27
f 13 27 28
f 13 28 29
f 13 29 14
f 14 29 30
f 14 30 15
f 15 30 31
f 15 31 32
f 15 32 16
f 16 32 17
f 17 32 33
f 17 33 18
f 18 33 34
f 19 35 36
f 19 36 37
f 19 37 38
f 19 38 23
f 19 23 20
f 20 22 21
f 23 38 39
f 23 39 40
f 23 40 24
f 24 40 25
f 25 40 41
f 25 41 26
f 26 41 27
f 27 42 28
f 27 41 43
f 27 43 42
f 28 42 44
f 28 44 30
f 28 30 29
f 30 44 45
f 30 45 31
f 31 45 32
f 32 45 33
f 33 45 46
f 33 46 47
f 33 47 48
f 33 48 49
f 33 49 50
f 33 50 34
f 35 51 36
f 36 52 53
f 36 53 37
f 36 51 54
f 36 54 49
f 36 49 48
f 36 48 52
f 37 53 55
f 37 55 38
f 38 55 56
f 38 56 57
f 38 57 58
f 38 58 39
f 39 58 40
f 40 58 43
f 40 43 41
f 42 43 59
f 42 59 60
f 42 60 44
f 43 58 61
f 43 61 59
f 44 60 62
f 44 62 63
f 44 63 47
f 44 47 46
f 44 46 45
f 47 63 64
f 47 64 48
f 48 64 52
f 52 62 56
f 52 56 53
f 52 64 62
f 53 56 55
f 56 62 59
f 56 59 57
f 57 59 61
f 57 61 58
f 59 62 60
f 62 64 63

