# https://github.com/mikedh/trimesh
v -0.00139116 -0.01769924 0.03252545
v -0.01591951 -0.01536747 0.02887615
v -0.00854013 -0.02917260 0.02777943
v 0.01111475 -0.03067633 0.02618247
v 0.01328440 -0.01379750 0.03058215
v -0.00400882 -0.00623250 0.03201236
v -0.01949719 -0.02368102 0.02400187
v -0.01375626 -0.00151596 0.02731125
v -0.02295968 -0.00581516 0.02210346
v -0.01874198 -0.03305447 0.01892877
v -0.01068418 -0.04614418 0.00964839
v 0.00411298 -0.04659463 0.01374022
v 0.02653272 -0.02061395 0.01965991
v 0.02308304 -0.03465756 0.01402883
v 0.02091338 -0.00521897 0.02568221
v 0.00936750 -0.00095289 0.02941488
v -0.00073194 0.00738053 0.02537436
v -0.02756779 -0.02060733 0.01490748
v -0.00921855 0.01356105 0.01678023
v -0.02228126 0.00983816 0.00785901
v -0.02685097 0.00076281 0.01219456
v -0.03238070 -0.01157834 0.00428668
v -0.02518693 -0.03139838 0.00966763
v -0.02100763 -0.03897001 0.00454322
v 0.00122011 -0.04942985 0.00013071
v -0.00973696 -0.04307048 -0.01197803
v 0.01718209 -0.04241467 -0.00445497
v 0.02381265 -0.03694959 0.00286929
v 0.03007841 -0.02618502 0.00560786
v 0.02982880 -0.00929957 0.01601061
v 0.02988000 -0.00031033 0.01105295
v 0.01798211 0.00767200 0.01974328
v 0.01316280 0.01598555 0.01391980
v -0.03017905 -0.02503901 -0.00398678
v -0.01782035 0.01824446 -0.00234491
v -0.03051826 0.00015337 -0.00330694
v -0.03181109 -0.01259187 -0.01206782
v -0.02304928 -0.03545248 -0.00879692
v 0.00338336 -0.04360043 -0.01476151
v -0.02087323 -0.03106717 -0.01974482
v -0.00669688 -0.03650575 -0.02311192
v 0.01374521 -0.03864542 -0.01749367
v 0.02508628 -0.03161699 -0.01089415
v 0.02913758 -0.02266750 -0.01292724
v 0.03300328 -0.01186319 0.00299756
v 0.03066722 0.00080256 0.00041290
v 0.02557910 0.00862591 0.00918661
v 0.02123979 0.01824446 0.00013071
v -0.02761259 -0.01904398 -0.02030921
v -0.01522829 0.01824446 -0.02154702
v -0.02804780 0.00027261 -0.01433180
v -0.02478372 -0.00917371 -0.02373404
v 0.00977071 -0.02737741 -0.02861473
v -0.01945879 -0.02138900 -0.02717810
v -0.00397042 -0.02607904 -0.03033356
v 0.02065098 -0.02441633 -0.02479868
v 0.02740954 -0.01336692 -0.01969351
v 0.03110243 -0.00533821 -0.00952807
v 0.02157900 0.01824446 -0.01488978
v -0.00079594 0.01824446 -0.03060934
v -0.01223302 -0.01417509 -0.03147516
v 0.00202653 -0.01376438 -0.03298235
v 0.01655488 -0.01495676 -0.02987178
v 0.01488444 0.01824446 -0.02646620
f 1 2 3
f 1 3 4
f 1 4 5
f 1 5 6
f 1 6 2
f 2 7 3
f 2 6 8
f 2 8 9
f 2 9 7
f 3 7 10
f 3 10 11
f 3 11 12
f 3 12 4
f 4 13 5
f 4 12 14
f 4 14 13
f 5 15 16
f 5 16 6
f 5 13 15
f 6 16 17
f 6 17 8
f 7 9 18
f 7 18 10
f 8 17 19
f 8 19 20
f 8 20 21
f 8 21 9
f 9 21 22
f 9 22 18
f 10 23 24
f 10 24 11
f 10 18 23
f 11 25 12
f 11 24 26
f 11 26 25
f 12 25 27
f 12 27 28
f 12 28 14
f 13 14 29
f 13 29 30
f 13 30 15
f 14 28 29
f 15 31 32
f 15 32 16
f 15 30 31
f 16 32 17
f 17 32 33
f 17 33 19
f 18 34 23
f 18 22 34
f 19 33 35
f 19 35 20
f 20 36 21
f 20 35 36
f 21 36 22
f 22 36 37
f 22 37 34
f 23 34 24
f 24 34 38
f 24 38 26
f 25 26 39
f 25 39 27
f 26 38 40
f 26 40 41
f 26 41 39
f 27 39 42
f 27 42 43
f 27 43 28
f 28 43 29
f 29 44 45
f 29 45 30
f 29 43 44
f 30 45 31
f 31 45 46
f 31 46 47
f 31 47 32
f 32 47 33
f 33 48 35
f 33 47 48
f 34 37 49
f 34 49 38
f 35 48 59
f 35 59 64
f 35 64 60
f 35 60 50
f 35 50 36
f 36 50 51
f 36 51 37
f 37 51 52
f 37 52 49
f 38 49 40
f 39 41 53
f 39 53 42
f 40 49 54
f 40 54 41
f 41 55 53
f 41 54 55
f 42 53 56
f 42 56 43
f 43 56 44
f 44 56 57
f 44 57 58
f 44 58 45
f 45 58 46
f 46 59 48
f 46 48 47
f 46 58 59
f 49 52 54
f 50 60 52
f 50 52 51
f 52 61 54
f 52 60 61
f 53 55 62
f 53 62 63
f 53 63 56
f 54 61 55
f 55 61 62
f 56 63 57
f 57 64 58
f 57 63 64
f 58 64 59
f 60 64 63
f 60 63 62
f 60 62 61

