# https://github.com/mikedh/trimesh
v -0.00606789 -0.02114671 0.02176727
v -0.00136117 -0.02651981 0.01747526
v -0.00606789 -0.02114671 0.02109147
v -0.00612445 -0.02114671 0.02241617
v -0.00136117 -0.02726573 0.02366423
v -0.00136117 -0.03837518 0.01747526
v -0.00611707 -0.02114671 0.01747526
v -0.00608510 -0.02114671 0.01849589
v -0.00607527 -0.02114671 0.01914478
v -0.00619084 -0.02114671 0.02306506
v -0.00136117 -0.02757080 0.02433188
v -0.00628921 -0.02114671 0.02370662
v -0.00651053 -0.02114671 0.02434248
v -0.00136117 -0.03798723 0.02521800
v -0.00142757 -0.03909817 0.02462943
v -0.00227596 -0.03916166 0.02433433
v -0.02394062 -0.03855152 0.01747526
v -0.02617102 -0.02114671 0.01747526
v -0.00136117 -0.02803986 0.02477616
v -0.00693349 -0.02114671 0.02483893
v -0.00149396 -0.03854270 0.02520251
v -0.00136117 -0.02887924 0.02502072
v -0.00811386 -0.02114671 0.02521066
v -0.02498328 -0.02758314 0.02580331
v -0.02433407 -0.03820765 0.02549028
v -0.00227596 -0.03883014 0.02505170
v -0.02367995 -0.03881074 0.02492697
v -0.02422587 -0.03885306 0.02472318
v -0.02484311 -0.03846158 0.01747526
v -0.02619807 -0.02174274 0.01747526
v -0.02619069 -0.02114671 0.01911707
v -0.00746466 -0.02114671 0.02510224
v -0.02501033 -0.02114671 0.02559299
v -0.02563002 -0.02498564 0.02559299
v -0.02561772 -0.02693421 0.02560277
v -0.02560297 -0.02758314 0.02560196
v -0.02522181 -0.03731184 0.02549924
v -0.02519230 -0.03796078 0.02546582
v -0.02512836 -0.03847040 0.02507860
v -0.02498328 -0.03866085 0.02433433
v -0.02556854 -0.03808422 0.01747526
v -0.02622266 -0.02239168 0.01747526
v -0.02618823 -0.02303884 0.02433433
v -0.02616610 -0.02239168 0.02433433
v -0.02608495 -0.02114671 0.02433433
v -0.02628414 -0.02405986 0.01747526
v -0.02648333 -0.02967983 0.01756819
v -0.02584396 -0.02145707 0.02534110
v -0.02597429 -0.02520431 0.02533294
v -0.02560789 -0.03796078 0.02498322
v -0.02555133 -0.03817239 0.02433433
v -0.02598905 -0.03748642 0.01747607
v -0.02613905 -0.03666467 0.01747526
v -0.02641447 -0.02952818 0.01979368
v -0.02637267 -0.02952818 0.02044258
v -0.02601856 -0.03601574 0.02452345
v -0.02605053 -0.02239168 0.02516583
v -0.02647103 -0.03054742 0.01747526
v -0.02595954 -0.03693800 0.02454465
v -0.02620299 -0.03601574 0.01747526
v -0.02644890 -0.03147321 0.01747526
v -0.02643169 -0.03212214 0.01747526
v -0.02640709 -0.03276931 0.01747526
v -0.02628906 -0.03497181 0.01747526
f 1 2 3
f 1 3 9
f 1 9 8
f 1 8 7
f 1 7 18
f 1 18 31
f 1 31 45
f 1 45 33
f 1 33 23
f 1 23 32
f 1 32 20
f 1 20 13
f 1 13 12
f 1 12 10
f 1 10 4
f 1 4 2
f 2 5 11
f 2 11 19
f 2 19 22
f 2 22 14
f 2 14 6
f 2 6 17
f 2 17 29
f 2 29 41
f 2 41 53
f 2 53 60
f 2 60 64
f 2 64 63
f 2 63 62
f 2 62 61
f 2 61 58
f 2 58 46
f 2 46 42
f 2 42 30
f 2 30 18
f 2 18 7
f 2 7 8
f 2 8 9
f 2 9 3
f 2 4 5
f 4 10 5
f 5 10 12
f 5 12 13
f 5 13 11
f 6 14 15
f 6 15 16
f 6 16 17
f 11 13 19
f 13 20 19
f 14 21 15
f 14 22 23
f 14 23 24
f 14 24 25
f 14 25 21
f 15 21 26
f 15 26 27
f 15 27 16
f 16 27 28
f 16 28 17
f 17 28 29
f 18 30 31
f 19 20 32
f 19 32 22
f 21 25 26
f 22 32 23
f 23 33 24
f 24 33 34
f 24 34 35
f 24 35 36
f 24 36 37
f 24 37 25
f 25 37 38
f 25 38 39
f 25 39 27
f 25 27 26
f 27 39 28
f 28 39 40
f 28 40 29
f 29 40 41
f 30 42 31
f 31 43 44
f 31 44 45
f 31 42 46
f 31 46 47
f 31 47 43
f 33 45 48
f 33 48 34
f 34 48 49
f 34 49 35
f 35 49 36
f 36 49 37
f 37 49 50
f 37 50 38
f 38 50 39
f 39 50 51
f 39 51 40
f 40 51 41
f 41 51 52
f 41 52 53
f 43 47 54
f 43 54 55
f 43 55 56
f 43 56 57
f 43 57 44
f 44 57 45
f 45 57 48
f 46 58 47
f 47 58 54
f 48 57 49
f 49 57 56
f 49 56 50
f 50 56 59
f 50 59 52
f 50 52 51
f 52 59 53
f 53 59 60
f 54 58 61
f 54 61 62
f 54 62 56
f 54 56 55
f 56 62 63
f 56 63 64
f 56 64 59
f 59 64 60

