# https://github.com/mikedh/trimesh
v -0.00589487 0.00053651 0.01867613
v -0.00590139 0.00053651 0.02190485
v -0.00401979 -0.00328820 0.01354121
v -0.00606652 0.00053438 0.01368922
v -0.00829576 0.00053651 0.01354121
v -0.00592963 0.00053651 0.02290630
v -0.00401979 -0.00416266 0.02266757
v -0.00401979 -0.01759156 0.01354121
v -0.02581461 0.00053651 0.01354121
v -0.00599482 0.00053651 0.02359262
v -0.00401979 -0.00429637 0.02353652
v -0.00401979 -0.01717344 0.02271174
v -0.00433266 -0.01839174 0.01354121
v -0.02620571 -0.02113610 0.01354121
v -0.02588849 -0.00032522 0.01525047
v -0.02587328 0.00043038 0.01525047
v -0.02596453 0.00053651 0.01943527
v -0.00654887 0.00053651 0.02468120
v -0.00401979 -0.00462748 0.02426343
v -0.00401979 -0.01694421 0.02407365
v -0.00615777 -0.02114671 0.02275351
v -0.00606869 -0.02114671 0.02176640
v -0.00545815 -0.02114671 0.01354121
v -0.02619050 -0.02114671 0.01914522
v -0.02621657 -0.02113185 0.01488522
v -0.02604492 -0.00292101 0.01914522
v -0.02603841 -0.00227153 0.01946869
v -0.02603189 -0.00162418 0.01979097
v -0.02577116 0.00053651 0.02507628
v -0.00735930 0.00053651 0.02513835
v -0.00401979 -0.00528120 0.02482562
v -0.00401979 -0.01637963 0.02478623
v -0.00628814 -0.02114671 0.02370602
v -0.02608403 -0.02114671 0.02433386
v -0.02618181 -0.01784414 0.02498318
v -0.02582765 -0.01784414 0.02547376
v -0.02522145 0.00053651 0.02567190
v -0.00800895 0.00053651 0.02522787
v -0.00412191 -0.00616627 0.02508225
v -0.00401979 -0.00681575 0.02507986
v -0.00401979 -0.01542452 0.02507390
v -0.00780471 -0.02114671 0.02515864
v -0.00670965 -0.02114671 0.02458809
v -0.02585155 -0.02114671 0.02532455
v -0.02529315 -0.02043993 0.02559312
v -0.02498245 -0.00486732 0.02573396
v -0.01589820 0.00053651 0.02550121
v -0.00811542 -0.00032522 0.02526368
v -0.00987751 0.00053651 0.02531739
v -0.00486933 -0.00616627 0.02512761
v -0.00486933 -0.01589571 0.02513477
v -0.00811542 -0.01979257 0.02522549
v -0.02499549 -0.02111700 0.02559550
v -0.01622194 -0.00486732 0.02551195
v -0.01589820 -0.00292101 0.02550359
v -0.00811542 -0.01914309 0.02523026
v -0.00746577 -0.01849362 0.02521832
v -0.01070968 -0.00162418 0.02535797
v -0.01070968 -0.00097470 0.02535678
v -0.01092912 0.00053651 0.02535201
v -0.00811542 -0.00097470 0.02526487
v -0.00551898 -0.01589571 0.02516580
f 1 2 3
f 1 3 4
f 1 4 5
f 1 5 9
f 1 9 17
f 1 17 29
f 1 29 37
f 1 37 47
f 1 47 60
f 1 60 49
f 1 49 38
f 1 38 30
f 1 30 18
f 1 18 10
f 1 10 6
f 1 6 2
f 2 6 3
f 3 6 7
f 3 7 11
f 3 11 19
f 3 19 31
f 3 31 40
f 3 40 41
f 3 41 32
f 3 32 20
f 3 20 12
f 3 12 8
f 3 8 13
f 3 13 23
f 3 23 14
f 3 14 9
f 3 9 5
f 3 5 4
f 6 10 11
f 6 11 7
f 8 12 13
f 9 14 15
f 9 15 16
f 9 16 17
f 10 18 19
f 10 19 11
f 12 20 21
f 12 21 22
f 12 22 23
f 12 23 13
f 14 24 25
f 14 25 26
f 14 26 15
f 14 23 24
f 15 26 16
f 16 26 27
f 16 27 28
f 16 28 17
f 17 28 29
f 18 30 31
f 18 31 19
f 20 32 33
f 20 33 21
f 21 33 43
f 21 43 42
f 21 42 44
f 21 44 34
f 21 34 24
f 21 24 23
f 21 23 22
f 24 34 35
f 24 35 25
f 25 35 26
f 26 35 27
f 27 35 28
f 28 35 29
f 29 35 36
f 29 36 37
f 30 38 39
f 30 39 31
f 31 39 40
f 32 41 42
f 32 42 43
f 32 43 33
f 34 44 35
f 35 44 36
f 36 44 45
f 36 45 46
f 36 46 37
f 37 46 47
f 38 48 39
f 38 49 48
f 39 50 40
f 39 48 50
f 40 50 51
f 40 51 41
f 41 51 42
f 42 51 52
f 42 52 53
f 42 53 44
f 44 53 45
f 45 53 46
f 46 54 55
f 46 55 47
f 46 53 52
f 46 52 56
f 46 56 57
f 46 57 54
f 47 55 58
f 47 58 59
f 47 59 60
f 48 49 59
f 48 59 58
f 48 58 61
f 48 61 50
f 49 60 59
f 50 61 62
f 50 62 51
f 51 62 57
f 51 57 52
f 52 57 56
f 54 58 55
f 54 57 58
f 57 62 58
f 58 62 61

