# https://github.com/mikedh/trimesh
v -0.00335989 0.00053651 -0.02524784
v -0.00335989 0.02168036 -0.02525552
v -0.00291987 0.02168036 -0.02525936
v -0.00156252 0.02168036 -0.02525936
v 0.00123175 0.00071657 -0.02517871
v 0.00123175 0.00053651 -0.02517487
v -0.00335989 0.00053651 0.01302783
v -0.00335989 0.02168036 0.01314689
v 0.00123175 0.02168036 -0.02519407
v 0.00123175 0.00053651 0.01278587
v -0.00335719 0.00053651 0.01302783
v -0.00335989 0.00505669 0.01396878
v -0.00335989 0.01820744 0.01396878
v -0.00297965 0.02168036 0.01315073
v 0.00123175 0.02168036 0.01283964
v 0.00123175 0.00561136 0.01396878
v 0.00118545 0.00053651 0.01278971
v -0.00291987 0.00053651 0.01302015
v 0.00123175 0.01763828 0.01396878
v -0.00233064 0.02168036 0.01313152
v -0.00161960 0.02168036 0.01308543
v -0.00236749 0.00053651 0.01299326
v 0.00032430 0.00053651 0.01284732
v 0.00097331 0.00053651 0.01280507
v -0.00227131 0.02168036 0.01312768
f 1 2 3
f 1 3 4
f 1 4 5
f 1 5 6
f 1 6 10
f 1 10 17
f 1 17 24
f 1 24 23
f 1 23 22
f 1 22 18
f 1 18 11
f 1 11 7
f 1 7 12
f 1 12 13
f 1 13 8
f 1 8 2
f 2 8 14
f 2 14 20
f 2 20 25
f 2 25 21
f 2 21 15
f 2 15 9
f 2 9 4
f 2 4 3
f 4 9 5
f 5 9 15
f 5 15 19
f 5 19 16
f 5 16 10
f 5 10 6
f 7 11 12
f 8 13 14
f 10 16 17
f 11 18 12
f 12 16 19
f 12 19 13
f 12 18 16
f 13 19 14
f 14 19 20
f 15 21 19
f 16 18 22
f 16 22 23
f 16 23 24
f 16 24 17
f 19 21 25
f 19 25 20

