# https://github.com/mikedh/trimesh
v 0.00069592 -0.00426666 0.01354121
v -0.00594976 0.00053438 0.01353736
v -0.00829405 0.00053651 0.01354121
v 0.00069592 -0.01599759 0.01354121
v 0.00069592 0.00053651 0.01282152
v -0.02580513 0.00053651 0.01221343
v -0.02581567 0.00046859 0.01353352
v -0.02620814 -0.02114671 0.01354121
v -0.00545719 -0.02114671 0.01354121
v -0.00197763 -0.02114671 0.01332569
v 0.00069592 -0.02114671 0.01309092
v 0.00069592 0.00053651 -0.02517993
v -0.02563392 0.00053651 -0.01005479
v -0.02564972 -0.00162418 -0.01524660
v -0.02583147 -0.00746523 -0.00875779
v -0.02598688 -0.01524835 -0.01135178
v -0.02612912 -0.02113185 -0.00847684
v -0.02621341 -0.02114671 0.01264833
v -0.00221733 -0.02114671 -0.02548012
v 0.00069592 -0.02113398 -0.02541470
v -0.00484083 -0.02079226 -0.02553401
v -0.02011297 0.00053651 -0.02561868
v -0.02557334 0.00053651 -0.01622030
v -0.02551802 -0.00032522 -0.02011512
v -0.02588942 -0.01395152 -0.01654359
v -0.02587625 -0.01135573 -0.01427289
v -0.02608697 -0.02113185 -0.01363787
v -0.02599215 -0.02114671 -0.01849485
v -0.01260070 -0.02114671 -0.02566871
v -0.02276282 0.00048344 -0.02562252
v -0.02368473 0.00053651 -0.02556864
v -0.01524527 -0.01849362 -0.02568795
v -0.02206216 -0.00032522 -0.02564946
v -0.02173554 0.00043038 -0.02563022
v -0.02549431 0.00053651 -0.02006124
v -0.02546007 0.00043038 -0.02108883
v -0.02586044 -0.02113822 -0.02207408
v -0.02599742 -0.02043993 -0.01784058
v -0.02599742 -0.01979257 -0.01719016
v -0.02453552 -0.02114671 -0.02552631
v -0.01654649 -0.02114671 -0.02572259
v -0.02303676 -0.00357049 -0.02565331
v -0.02368473 -0.00357049 -0.02561098
v -0.02400872 -0.02011519 -0.02569950
v -0.02454606 -0.01524835 -0.02548397
v -0.02457767 -0.00292101 -0.02524151
v -0.02460401 0.00045585 -0.02505678
v -0.02512291 0.00048344 -0.02422162
v -0.02529939 0.00053651 -0.02334028
v -0.02092689 -0.02077740 -0.02577262
v -0.02303676 -0.01784414 -0.02576877
v -0.02540476 0.00053651 -0.02205869
v -0.02546007 -0.00032522 -0.02141212
v -0.02534417 -0.00097470 -0.02335953
v -0.02572084 -0.01930440 -0.02335953
v -0.02574718 -0.02113185 -0.02336338
v -0.02540476 -0.02078801 -0.02456800
v -0.02496487 -0.02011519 -0.02522996
v -0.02480420 -0.01914309 -0.02540700
v -0.02319743 -0.02079226 -0.02577647
v -0.02512818 -0.01914309 -0.02503368
v -0.02522564 -0.01605914 -0.02481046
v -0.02530993 -0.00387188 -0.02400994
v -0.02529149 -0.00162418 -0.02390218
f 1 2 3
f 1 3 8
f 1 8 9
f 1 9 4
f 1 4 11
f 1 11 20
f 1 20 12
f 1 12 5
f 1 5 2
f 2 5 3
f 3 5 12
f 3 12 22
f 3 22 31
f 3 31 49
f 3 49 52
f 3 52 35
f 3 35 23
f 3 23 13
f 3 13 6
f 3 6 7
f 3 7 8
f 4 9 10
f 4 10 11
f 6 13 14
f 6 14 15
f 6 15 16
f 6 16 7
f 7 16 17
f 7 17 18
f 7 18 8
f 8 18 28
f 8 28 40
f 8 40 41
f 8 41 29
f 8 29 19
f 8 19 11
f 8 11 10
f 8 10 9
f 11 19 20
f 12 20 19
f 12 19 21
f 12 21 22
f 13 23 14
f 14 23 24
f 14 24 25
f 14 25 26
f 14 26 16
f 14 16 15
f 16 26 27
f 16 27 17
f 17 27 28
f 17 28 18
f 19 29 21
f 21 29 22
f 22 30 31
f 22 29 32
f 22 32 33
f 22 33 34
f 22 34 30
f 23 35 24
f 24 35 36
f 24 36 37
f 24 37 28
f 24 28 38
f 24 38 25
f 25 38 39
f 25 39 26
f 26 39 27
f 27 39 38
f 27 38 28
f 28 37 40
f 29 41 32
f 30 34 33
f 30 33 42
f 30 42 31
f 31 42 43
f 31 43 44
f 31 44 45
f 31 45 46
f 31 46 47
f 31 47 48
f 31 48 49
f 32 41 33
f 33 41 50
f 33 50 51
f 33 51 42
f 35 52 36
f 36 53 37
f 36 52 53
f 37 53 52
f 37 52 54
f 37 54 55
f 37 55 56
f 37 56 40
f 40 56 57
f 40 57 58
f 40 58 59
f 40 59 45
f 40 45 44
f 40 44 60
f 40 60 41
f 41 60 50
f 42 51 43
f 43 51 60
f 43 60 44
f 45 59 46
f 46 59 61
f 46 61 62
f 46 62 47
f 47 62 48
f 48 62 63
f 48 63 64
f 48 64 49
f 49 54 52
f 49 64 54
f 50 60 51
f 54 64 55
f 55 64 63
f 55 63 56
f 56 63 57
f 57 63 62
f 57 62 61
f 57 61 58
f 58 61 59

