# https://github.com/mikedh/trimesh
v -0.02431380 0.03977900 0.03459962
v -0.02732342 0.03880833 0.03459962
v -0.04151523 0.02952573 0.03557564
v -0.03698212 0.03002856 0.03557564
v -0.02431380 0.03705281 0.03459962
v -0.02431380 0.03698066 0.00637253
v -0.02459011 0.03942265 0.00637253
v -0.02594183 0.03902257 0.00637253
v -0.03053718 0.03720803 0.03411161
v -0.03329290 0.03578044 0.03459962
v -0.02824200 0.03815028 0.00119628
v -0.02843119 0.03808688 0.00341756
v -0.02992480 0.03737637 0.00119628
v -0.03167481 0.03656747 0.00292955
v -0.04537871 0.02515552 0.03557564
v -0.03453757 0.03505025 0.03459962
v -0.03578474 0.03424792 0.03459962
v -0.03850062 0.03215354 0.03459962
v -0.03984736 0.03109542 0.01219162
v -0.04088791 0.03017066 0.01414028
v -0.04186623 0.02918906 0.00133090
v -0.04282463 0.02819434 0.00732163
v -0.04700426 0.01744480 0.03557564
v -0.02431380 0.03694131 0.02875362
v -0.02431380 0.03694350 0.00926693
v -0.04712623 0.01744480 0.00975494
v -0.04717851 0.01744480 0.00637253
v -0.02773915 0.03526450 0.00119628
v -0.03102758 0.03695880 0.03265095
v -0.03470685 0.03486661 0.01024295
v -0.04097255 0.03005698 0.00119628
v -0.03637472 0.03371886 0.00133090
v -0.03199345 0.03633137 0.00133090
v -0.03467698 0.03484475 0.00487822
v -0.04785562 0.02136466 0.03557564
v -0.04450494 0.02621583 0.01215796
v -0.04614792 0.02402745 0.01073432
v -0.04683747 0.02298682 0.01122233
v -0.03573495 0.03421512 0.00926693
v -0.03825916 0.03235686 0.01267962
v -0.03737295 0.03302365 0.00439021
v -0.03960838 0.03129218 0.00487822
v -0.04291425 0.02801507 0.00133090
v -0.04389256 0.02685201 0.00133090
v -0.04695696 0.01744480 0.03118356
v -0.04949859 0.01774213 0.03557564
v -0.04968031 0.01745355 0.03266105
v -0.02431380 0.03693694 0.01316763
v -0.04698185 0.01744480 0.02717516
v -0.04974503 0.01750602 0.01869391
v -0.04963550 0.01779022 0.00637253
v -0.04210521 0.02515115 0.00119628
v -0.03837865 0.03225848 0.00487822
v -0.03633738 0.03376258 0.00292955
v -0.04724821 0.02235063 0.01219498
v -0.04784814 0.02134279 0.01316763
v -0.04853272 0.02005512 0.01316763
v -0.04504016 0.02535665 0.00190305
v -0.04665575 0.02319013 0.00829764
v -0.04695696 0.02267419 0.00684708
v -0.04897831 0.01915004 0.00684708
v -0.04757681 0.02165979 0.00637253
v -0.04776849 0.02146303 0.01056941
v -0.04864225 0.01981027 0.00829764
f 1 2 3
f 1 3 4
f 1 4 5
f 1 5 24
f 1 24 48
f 1 48 25
f 1 25 6
f 1 6 7
f 1 7 8
f 1 8 2
f 2 9 10
f 2 10 3
f 2 8 11
f 2 11 12
f 2 12 13
f 2 13 14
f 2 14 9
f 3 15 35
f 3 35 46
f 3 46 23
f 3 23 4
f 3 10 16
f 3 16 17
f 3 17 18
f 3 18 19
f 3 19 20
f 3 20 21
f 3 21 22
f 3 22 15
f 4 23 5
f 5 23 24
f 6 25 26
f 6 26 27
f 6 27 28
f 6 28 7
f 7 28 11
f 7 11 8
f 9 29 10
f 9 14 29
f 10 29 14
f 10 14 30
f 10 30 16
f 11 28 52
f 11 52 31
f 11 31 13
f 11 13 12
f 13 31 32
f 13 32 33
f 13 33 14
f 14 33 34
f 14 34 30
f 15 22 36
f 15 36 37
f 15 37 38
f 15 38 35
f 16 30 39
f 16 39 17
f 17 40 18
f 17 39 41
f 17 41 40
f 18 40 42
f 18 42 19
f 19 42 20
f 20 42 31
f 20 31 21
f 21 31 43
f 21 43 22
f 22 43 44
f 22 44 36
f 23 45 24
f 23 46 47
f 23 47 27
f 23 27 26
f 23 26 49
f 23 49 45
f 24 45 48
f 25 48 45
f 25 45 49
f 25 49 26
f 27 47 50
f 27 50 51
f 27 51 52
f 27 52 28
f 30 34 39
f 31 42 32
f 31 52 44
f 31 44 43
f 32 42 53
f 32 53 41
f 32 41 54
f 32 54 34
f 32 34 33
f 34 54 39
f 35 38 55
f 35 55 56
f 35 56 57
f 35 57 51
f 35 51 50
f 35 50 47
f 35 47 46
f 36 44 58
f 36 58 37
f 37 58 59
f 37 59 38
f 38 59 60
f 38 60 55
f 39 54 41
f 40 41 53
f 40 53 42
f 44 52 58
f 51 57 61
f 51 61 58
f 51 58 52
f 55 60 62
f 55 62 63
f 55 63 56
f 56 63 64
f 56 64 57
f 57 64 61
f 58 61 62
f 58 62 60
f 58 60 59
f 61 64 62
f 62 64 63

