# https://github.com/mikedh/trimesh
v -0.02774995 -0.03544550 -0.03667023
v -0.02774995 -0.03308809 -0.03667023
v -0.01768196 -0.03544550 -0.03667023
v -0.02774995 -0.03544550 0.00238454
v -0.02774995 -0.02927211 -0.03641792
v -0.02081688 -0.03220319 -0.03667023
v -0.01792243 -0.03251906 -0.03667023
v -0.01768196 -0.02518671 -0.03113467
v -0.01768196 -0.03500189 -0.00177477
v -0.01768196 -0.03362925 -0.00140777
v -0.01768196 -0.03260732 -0.00118987
v -0.01768196 -0.03110229 -0.00120134
v -0.01768196 -0.02953688 -0.00146512
v -0.02727789 -0.02874488 0.00064130
v -0.02774995 -0.02774850 0.00045780
v -0.02774995 -0.02721663 -0.03593241
v -0.01915727 -0.03229609 -0.03667023
v -0.02774995 -0.02608322 -0.03528251
v -0.02774995 -0.02040453 -0.03076767
v -0.02774995 -0.01939421 -0.02989605
v -0.01768196 -0.02437613 -0.03038155
v -0.01768196 -0.02834540 -0.00187035
v -0.02679302 -0.02729792 0.00009845
v -0.02767702 -0.02625044 -0.00005447
v -0.02774995 -0.02437845 -0.00082287
v -0.02774995 -0.01837693 -0.02890209
v -0.01768196 -0.02357716 -0.02946788
v -0.02680682 -0.02583006 -0.00042911
v -0.01768196 -0.02652915 -0.00274579
v -0.02774995 -0.02276891 -0.00164862
v -0.02774995 -0.01768712 -0.02807252
v -0.02774995 -0.01612868 -0.02586671
v -0.01768196 -0.02192349 -0.02711680
v -0.01768196 -0.02565819 -0.00328482
v -0.02774995 -0.02190027 -0.00213030
v -0.02774995 -0.01553642 -0.02497979
v -0.01768196 -0.02131266 -0.02611519
v -0.01768196 -0.02483600 -0.00390413
v -0.02774995 -0.02103163 -0.00271521
v -0.02774995 -0.01267734 -0.01900842
v -0.01768196 -0.02057872 -0.02449046
v -0.02774995 -0.01886931 -0.00435141
v -0.01768196 -0.02384658 -0.00484456
v -0.02774995 -0.01579423 -0.00706185
v -0.02774995 -0.01765228 -0.00536066
v -0.01768196 -0.02010260 -0.02316009
v -0.02774995 -0.01220353 -0.01763217
v -0.01768196 -0.02311729 -0.00556709
v -0.02774995 -0.01473514 -0.00828900
v -0.01768196 -0.02230439 -0.00650370
v -0.01768196 -0.01872067 -0.01860319
v -0.02774995 -0.01178315 -0.01528109
v -0.01768196 -0.01844660 -0.01718872
v -0.02774995 -0.01411501 -0.00923326
v -0.01768196 -0.02130337 -0.00776144
v -0.01768196 -0.01835835 -0.01609154
v -0.02774995 -0.01172276 -0.01375193
v -0.02774995 -0.01329514 -0.01053304
v -0.01768196 -0.02066930 -0.00874775
v -0.01768196 -0.01850467 -0.01461590
v -0.02774995 -0.01226624 -0.01220365
v -0.01768196 -0.01918286 -0.01175255
v -0.01768196 -0.01875086 -0.01314409
v -0.01768196 -0.01983550 -0.01026162
f 1 2 6
f 1 6 17
f 1 17 7
f 1 7 3
f 1 3 4
f 1 4 15
f 1 15 25
f 1 25 30
f 1 30 35
f 1 35 39
f 1 39 42
f 1 42 45
f 1 45 44
f 1 44 49
f 1 49 54
f 1 54 58
f 1 58 61
f 1 61 57
f 1 57 52
f 1 52 47
f 1 47 40
f 1 40 36
f 1 36 32
f 1 32 31
f 1 31 26
f 1 26 20
f 1 20 19
f 1 19 18
f 1 18 16
f 1 16 5
f 1 5 2
f 2 5 6
f 3 7 8
f 3 8 21
f 3 21 27
f 3 27 33
f 3 33 37
f 3 37 41
f 3 41 46
f 3 46 51
f 3 51 53
f 3 53 56
f 3 56 60
f 3 60 63
f 3 63 62
f 3 62 64
f 3 64 59
f 3 59 55
f 3 55 50
f 3 50 48
f 3 48 43
f 3 43 38
f 3 38 34
f 3 34 29
f 3 29 22
f 3 22 13
f 3 13 12
f 3 12 11
f 3 11 10
f 3 10 9
f 3 9 4
f 4 9 10
f 4 10 11
f 4 11 12
f 4 12 13
f 4 13 14
f 4 14 15
f 5 16 7
f 5 7 17
f 5 17 6
f 7 16 18
f 7 18 8
f 8 18 19
f 8 19 20
f 8 20 21
f 13 22 23
f 13 23 14
f 14 23 15
f 15 23 24
f 15 24 25
f 20 26 21
f 21 26 27
f 22 25 28
f 22 28 23
f 22 29 25
f 23 28 24
f 24 28 25
f 25 29 30
f 26 31 27
f 27 31 32
f 27 32 33
f 29 34 35
f 29 35 30
f 32 36 33
f 33 36 37
f 34 38 39
f 34 39 35
f 36 40 37
f 37 40 41
f 38 42 39
f 38 43 44
f 38 44 45
f 38 45 42
f 40 46 41
f 40 47 46
f 43 48 44
f 44 48 50
f 44 50 49
f 46 47 51
f 47 52 53
f 47 53 51
f 49 50 55
f 49 55 54
f 52 56 53
f 52 57 56
f 54 55 59
f 54 59 58
f 56 57 60
f 57 61 62
f 57 62 63
f 57 63 60
f 58 59 61
f 59 64 61
f 61 64 62

