# https://github.com/mikedh/trimesh
v -0.00010316 0.01755340 -0.01368948
v -0.00768953 0.02154825 -0.01282706
v -0.00768953 0.02158291 -0.01460196
v -0.00010316 0.01790459 -0.01656551
v -0.00010316 0.01777290 -0.01147568
v -0.00768953 0.02179317 -0.01122157
v -0.00768953 0.02218595 -0.01776289
v -0.00768953 0.02302928 -0.02052726
v -0.00010316 0.01871789 -0.01890252
v -0.00010316 0.01858850 -0.00931962
v -0.00768953 0.02214436 -0.00979703
v -0.00010316 0.01961667 -0.02095078
v -0.00768953 0.02371781 -0.02207885
v -0.00010316 0.01985004 -0.00724826
v -0.00768953 0.02297383 -0.00787583
v -0.00768953 0.02445717 -0.02355729
v -0.00010316 0.02098218 -0.02334169
v -0.00010316 0.02080427 -0.00590073
v -0.00768953 0.02421457 -0.00595463
v -0.00768953 0.02577878 -0.02558245
v -0.00010316 0.02237079 -0.02530524
v -0.00010316 0.02240545 -0.00439534
v -0.00768953 0.02558470 -0.00439919
v -0.00768953 0.02844048 -0.02867408
v -0.00010316 0.02403897 -0.02724184
v -0.00010316 0.02402511 -0.00307090
v -0.00768953 0.02725750 -0.00303240
v -0.00010316 0.02688320 -0.03003317
v -0.00010316 0.02559394 -0.02879343
v -0.00768953 0.04092642 -0.03023722
v -0.00761675 0.04028641 -0.03563121
v -0.00710584 0.03675597 -0.03666689
v -0.00010316 0.03626845 0.00266575
v -0.00019970 0.02630095 -0.00166177
v -0.00768953 0.02876164 -0.00205448
v -0.00010316 0.02813087 -0.03104189
v -0.00389931 0.04032569 -0.02825827
v -0.00487137 0.04045508 -0.03142690
v -0.00694025 0.04077855 -0.03203522
v -0.00749868 0.04073465 -0.03362531
v -0.00768953 0.04115747 0.00266575
v -0.00617240 0.04094259 0.00263495
v -0.00606621 0.04004843 -0.03596617
v -0.00379015 0.03940842 -0.03663609
v -0.00010316 0.03555913 -0.03666689
v -0.00201015 0.03570469 -0.03666689
v -0.00033931 0.03956785 0.00266575
v -0.00768953 0.03846112 0.00266575
v -0.00085021 0.02981754 -0.00002932
v -0.00010316 0.03914965 -0.03313635
v -0.00093933 0.02809390 -0.00085710
v -0.00397654 0.02921218 -0.00096105
v -0.00168415 0.03981969 -0.02923234
v -0.00389931 0.04030259 -0.03021027
v -0.00389931 0.04051053 0.00266575
v -0.00198342 0.04008771 0.00266575
v -0.00195074 0.03960250 -0.03399107
v -0.00413100 0.03996294 -0.03532705
v -0.00584640 0.04044583 -0.03399107
v -0.00194480 0.03983124 -0.03094179
v -0.00116508 0.03879383 -0.03640893
v -0.00010539 0.03896943 -0.03465714
v -0.00029549 0.03944077 -0.02835452
v -0.00029549 0.03936914 -0.03122670
f 1 2 3
f 1 3 4
f 1 4 9
f 1 9 12
f 1 12 17
f 1 17 21
f 1 21 25
f 1 25 29
f 1 29 28
f 1 28 36
f 1 36 45
f 1 45 50
f 1 50 33
f 1 33 26
f 1 26 22
f 1 22 18
f 1 18 14
f 1 14 10
f 1 10 5
f 1 5 2
f 2 5 6
f 2 6 11
f 2 11 15
f 2 15 19
f 2 19 23
f 2 23 27
f 2 27 35
f 2 35 48
f 2 48 41
f 2 41 30
f 2 30 24
f 2 24 20
f 2 20 16
f 2 16 13
f 2 13 8
f 2 8 7
f 2 7 3
f 3 7 4
f 4 7 8
f 4 8 9
f 5 10 11
f 5 11 6
f 8 12 9
f 8 13 12
f 10 14 15
f 10 15 11
f 12 13 16
f 12 16 17
f 14 18 19
f 14 19 15
f 16 20 17
f 17 20 21
f 18 22 23
f 18 23 19
f 20 24 21
f 21 24 25
f 22 26 23
f 23 26 27
f 24 28 29
f 24 29 25
f 24 30 31
f 24 31 32
f 24 32 28
f 26 33 34
f 26 34 35
f 26 35 27
f 28 32 36
f 30 37 38
f 30 38 39
f 30 39 40
f 30 40 31
f 30 41 42
f 30 42 37
f 31 43 44
f 31 44 32
f 31 40 43
f 32 44 45
f 32 45 46
f 32 46 36
f 33 47 56
f 33 56 55
f 33 55 41
f 33 41 48
f 33 48 49
f 33 49 34
f 33 50 47
f 34 51 35
f 34 49 51
f 35 51 52
f 35 52 48
f 36 46 45
f 37 53 54
f 37 54 38
f 37 42 55
f 37 55 56
f 37 56 53
f 38 57 58
f 38 58 59
f 38 59 39
f 38 54 60
f 38 60 57
f 39 59 40
f 40 59 58
f 40 58 43
f 41 55 42
f 43 58 44
f 44 58 61
f 44 61 45
f 45 61 62
f 45 62 50
f 47 50 63
f 47 63 56
f 48 52 51
f 48 51 49
f 50 62 57
f 50 57 64
f 50 64 63
f 53 60 54
f 53 56 63
f 53 63 64
f 53 64 60
f 57 60 64
f 57 62 58
f 58 62 61

