# https://github.com/mikedh/trimesh
v -0.05179641 0.00194293 -0.03701091
v -0.05160073 0.00595631 -0.03660266
v -0.05090684 0.00495616 -0.03802691
v -0.05040377 0.00292606 -0.03894170
v -0.05165000 -0.00024889 -0.03735975
v -0.05169718 -0.00391753 -0.03689128
v -0.04470968 0.01775809 -0.03656167
v -0.04791477 0.01718354 -0.03699125
v -0.04949407 0.01325103 -0.03697284
v -0.05080206 0.00840349 -0.03732211
v -0.05116843 -0.00780322 -0.03667084
v -0.04872038 0.00052995 -0.03656167
v -0.04933031 0.00896102 -0.03897181
v -0.04942052 0.00145775 -0.03981507
v -0.05045164 0.00097683 -0.03898018
v -0.04874258 0.00562009 -0.03997109
v -0.05083398 -0.00219386 -0.03839082
v -0.05034964 -0.00535604 -0.03877648
v -0.05075487 -0.00749254 -0.03792485
v -0.05134677 -0.00584548 -0.03710377
v -0.04470829 0.01629830 -0.03779602
v -0.04503581 0.02167358 -0.03742250
v -0.04507050 0.01607699 -0.03656167
v -0.04949268 -0.01387648 -0.03669092
v -0.04533418 -0.02180534 -0.03720624
v -0.04470829 0.00052995 -0.03863928
v -0.04688781 0.01877953 -0.03727860
v -0.04763860 0.01569395 -0.03833435
v -0.04877867 0.01515770 -0.03700923
v -0.04817914 0.01373195 -0.03858783
v -0.04878699 0.01119965 -0.03891827
v -0.04838245 0.00779914 -0.03989831
v -0.04825686 0.01023781 -0.03956201
v -0.04865099 0.00292606 -0.04015723
v -0.04919986 -0.00413884 -0.03984394
v -0.04667270 0.00682452 -0.04062780
v -0.04850388 -0.01174425 -0.03911361
v -0.04987571 -0.01102073 -0.03766928
v -0.04470829 0.00438160 -0.04083024
v -0.04486441 0.00999096 -0.04079929
v -0.04534736 0.01927747 -0.03887226
v -0.04538137 0.01765595 -0.03955323
v -0.04871552 -0.01566399 -0.03690090
v -0.04696830 -0.01913260 -0.03710836
v -0.04647078 -0.01822608 -0.03849707
v -0.04511213 -0.01990718 -0.03884507
v -0.04470829 0.00124496 -0.04081226
v -0.04573109 0.01314463 -0.04035549
v -0.04728194 0.00099385 -0.04059894
v -0.04787036 -0.00587953 -0.04032872
v -0.04773922 -0.00764150 -0.04026180
v -0.04533210 0.00243662 -0.04083485
v -0.04655127 -0.00061064 -0.04072358
v -0.04692181 -0.01170169 -0.04011456
v -0.04664078 -0.01488515 -0.03960844
v -0.04795085 -0.01425526 -0.03874971
v -0.04512185 -0.00167038 -0.04081853
v -0.04719035 -0.01656625 -0.03856734
v -0.04781416 -0.01753235 -0.03705315
v -0.04515169 -0.01763875 -0.03974606
v -0.04512185 -0.01336577 -0.04051653
v -0.04512185 -0.01141654 -0.04064327
v -0.04630771 -0.00974394 -0.04053954
v -0.04549794 -0.00755638 -0.04070267
f 1 2 3
f 1 3 4
f 1 4 5
f 1 5 6
f 1 6 2
f 2 7 8
f 2 8 9
f 2 9 10
f 2 10 3
f 2 6 11
f 2 11 12
f 2 12 7
f 3 10 13
f 3 13 4
f 4 14 15
f 4 15 5
f 4 13 16
f 4 16 14
f 5 17 6
f 5 15 17
f 6 17 18
f 6 18 19
f 6 19 20
f 6 20 11
f 7 21 22
f 7 22 8
f 7 12 23
f 7 23 24
f 7 24 25
f 7 25 26
f 7 26 21
f 8 22 27
f 8 27 28
f 8 28 29
f 8 29 9
f 9 29 30
f 9 30 31
f 9 31 10
f 10 31 13
f 11 20 19
f 11 19 24
f 11 24 12
f 12 24 23
f 13 32 16
f 13 31 33
f 13 33 32
f 14 16 34
f 14 34 35
f 14 35 15
f 15 35 18
f 15 18 17
f 16 32 36
f 16 36 34
f 18 35 37
f 18 37 19
f 19 37 38
f 19 38 24
f 21 39 40
f 21 40 22
f 21 26 47
f 21 47 39
f 22 41 27
f 22 40 42
f 22 42 41
f 24 38 43
f 24 43 44
f 24 44 25
f 25 44 45
f 25 45 46
f 25 46 26
f 26 46 47
f 27 41 28
f 28 30 29
f 28 41 42
f 28 42 30
f 30 42 31
f 31 42 33
f 32 33 48
f 32 48 36
f 33 42 48
f 34 49 50
f 34 50 35
f 34 36 49
f 35 50 51
f 35 51 37
f 36 52 53
f 36 53 49
f 36 48 40
f 36 40 52
f 37 51 54
f 37 54 55
f 37 55 56
f 37 56 38
f 38 56 43
f 39 47 57
f 39 57 52
f 39 52 40
f 40 48 42
f 43 58 59
f 43 59 44
f 43 56 58
f 44 59 45
f 45 59 58
f 45 58 60
f 45 60 46
f 46 60 47
f 47 60 61
f 47 61 62
f 47 62 57
f 49 53 50
f 50 63 51
f 50 53 63
f 51 63 54
f 52 57 53
f 53 57 64
f 53 64 63
f 54 61 60
f 54 60 55
f 54 63 61
f 55 60 58
f 55 58 56
f 57 62 64
f 61 63 62
f 62 63 64

