# https://github.com/mikedh/trimesh
v -0.01663087 0.04624010 0.03857446
v -0.01652367 0.04546279 0.04066403
v -0.01619901 0.04393990 0.04103281
v -0.01619289 0.04256930 0.03691178
v -0.01733533 0.04130499 0.03460752
v -0.01894026 0.04590221 0.03818232
v -0.02085760 0.04578958 0.03925583
v -0.01914241 0.04545010 0.04028198
v -0.02230326 0.04501862 0.04014369
v -0.02523747 0.04421751 0.04031166
v -0.02260036 0.04358932 0.04103344
v -0.01619901 0.04171902 0.04046132
v -0.03460059 0.03753424 0.04105870
v -0.04214438 0.03224538 0.04096840
v -0.04421793 0.03004036 0.04090588
v -0.04257931 0.03006098 0.04086610
v -0.01619595 0.03907300 0.03702608
v -0.01663087 0.03891437 0.03482664
v -0.02019909 0.04085446 0.03460752
v -0.04072935 0.03003719 0.03460752
v -0.02486074 0.04414930 0.03776870
v -0.02345796 0.04507255 0.03835471
v -0.02502001 0.04487585 0.03909480
v -0.02819618 0.04343545 0.03989931
v -0.03265262 0.04123519 0.04023651
v -0.02656675 0.04310231 0.04078527
v -0.03331726 0.03904921 0.04102965
v -0.01619901 0.03978527 0.03892115
v -0.04067728 0.03004036 0.04034829
v -0.03537855 0.03829728 0.04098861
v -0.04435270 0.03168698 0.04078401
v -0.04575548 0.03038618 0.04061288
v -0.04747986 0.03011650 0.03878222
v -0.04310305 0.03003719 0.03732982
v -0.03703555 0.03003719 0.03686442
v -0.03793297 0.03004036 0.03879169
v -0.03703555 0.03003719 0.03509312
v -0.02345489 0.04004384 0.03460752
v -0.04633129 0.03147441 0.03802760
v -0.04220870 0.03534192 0.03788236
v -0.03888551 0.03181865 0.03460752
v -0.02732327 0.03880808 0.03460752
v -0.02762343 0.04349890 0.03798088
v -0.02950095 0.04287705 0.03805855
v -0.03233408 0.04201408 0.03878159
v -0.03233408 0.04201408 0.03921289
v -0.03078428 0.04240591 0.03971302
v -0.03414423 0.04050547 0.04022515
v -0.03787171 0.03834963 0.04019421
v -0.03989932 0.03576706 0.04076569
v -0.04135417 0.03454082 0.04075559
v -0.04385958 0.03338120 0.04030851
v -0.04626391 0.03187100 0.03910869
v -0.04422099 0.03392690 0.03876454
v -0.03882732 0.03834804 0.03830672
v -0.03577673 0.03425369 0.03460752
v -0.03053620 0.03720904 0.03460752
v -0.03302629 0.04114159 0.03786279
v -0.03153162 0.04195856 0.03801308
v -0.03645055 0.03952035 0.03988036
v -0.03969104 0.03745810 0.03971239
v -0.04283965 0.03468200 0.04007991
v -0.04162982 0.03597011 0.03931898
v -0.03391145 0.03542282 0.03460752
f 1 2 3
f 1 3 4
f 1 4 5
f 1 5 6
f 1 6 7
f 1 7 2
f 2 7 8
f 2 8 9
f 2 9 10
f 2 10 11
f 2 11 3
f 3 12 4
f 3 11 13
f 3 13 14
f 3 14 15
f 3 15 16
f 3 16 12
f 4 17 18
f 4 18 5
f 4 12 17
f 5 19 6
f 5 18 20
f 5 20 41
f 5 41 56
f 5 56 64
f 5 64 57
f 5 57 42
f 5 42 38
f 5 38 19
f 6 19 21
f 6 21 22
f 6 22 7
f 7 9 8
f 7 22 23
f 7 23 9
f 9 23 10
f 10 23 24
f 10 24 25
f 10 25 26
f 10 26 11
f 11 26 27
f 11 27 13
f 12 28 17
f 12 16 29
f 12 29 28
f 13 27 30
f 13 30 14
f 14 31 15
f 14 30 31
f 15 31 32
f 15 32 33
f 15 33 34
f 15 34 35
f 15 35 29
f 15 29 16
f 17 28 36
f 17 36 35
f 17 35 37
f 17 37 18
f 18 37 20
f 19 38 21
f 20 37 35
f 20 35 34
f 20 34 33
f 20 33 39
f 20 39 40
f 20 40 41
f 21 38 42
f 21 42 43
f 21 43 22
f 22 43 23
f 23 43 44
f 23 44 45
f 23 45 46
f 23 46 24
f 24 46 47
f 24 47 25
f 25 47 46
f 25 46 48
f 25 48 30
f 25 30 26
f 26 30 27
f 28 29 36
f 29 35 36
f 30 48 49
f 30 49 50
f 30 50 31
f 31 50 51
f 31 51 52
f 31 52 32
f 32 53 33
f 32 52 53
f 33 53 39
f 39 53 54
f 39 54 40
f 40 54 55
f 40 55 56
f 40 56 41
f 42 57 58
f 42 58 44
f 42 44 43
f 44 58 59
f 44 59 45
f 45 58 55
f 45 55 46
f 45 59 58
f 46 55 60
f 46 60 48
f 48 60 49
f 49 61 62
f 49 62 50
f 49 60 61
f 50 62 52
f 50 52 51
f 52 62 53
f 53 62 54
f 54 62 63
f 54 63 55
f 55 64 56
f 55 63 61
f 55 61 60
f 55 58 64
f 57 64 58
f 61 63 62

