# https://github.com/mikedh/trimesh
v -0.03089419 -0.00616756 -0.01316640
v -0.03099965 -0.00616756 -0.01207684
v -0.03093119 -0.00616756 -0.01428581
v -0.03223936 0.00053226 -0.01670746
v -0.03221531 0.00053226 -0.01460297
v -0.03246140 0.00053226 -0.01268878
v -0.03325333 0.00053226 -0.00956190
v -0.03142152 -0.00616756 -0.01080818
v -0.03100150 -0.00616756 -0.01584551
v -0.03238738 0.00053226 -0.01803209
v -0.03372516 0.00053226 -0.00831563
v -0.03425250 0.00053226 -0.00711786
v -0.03284996 -0.00616756 -0.00796488
v -0.03116988 -0.00616756 -0.01715149
v -0.03153624 -0.00616756 -0.01865523
v -0.03203028 -0.00616756 -0.02042762
v -0.03281481 0.00053226 -0.01946866
v -0.03501483 0.00053226 -0.00596114
v -0.03404341 -0.00616756 -0.00627458
v -0.03257057 -0.00616756 -0.02187539
v -0.03406192 0.00053226 -0.02257689
v -0.03652838 0.00053226 -0.00414397
v -0.03532568 -0.00616756 -0.00482308
v -0.03300169 -0.00616756 -0.02291271
v -0.03465216 0.00053226 -0.02387913
v -0.03765152 0.00053226 -0.00307307
v -0.03656909 -0.00616756 -0.00357680
v -0.03367890 -0.00616756 -0.02440152
v -0.03511289 0.00053226 -0.02485302
v -0.03738322 -0.00616756 -0.00285292
v -0.03879131 0.00053226 -0.00224844
v -0.03450969 -0.00616756 -0.02579332
v -0.03570129 0.00053226 -0.02583063
v -0.03830283 -0.00616756 -0.00219620
v -0.04114861 0.00053226 -0.00084918
v -0.04096728 -0.00616756 -0.00059918
v -0.03515545 -0.00616756 -0.02678213
v -0.03639146 0.00053226 -0.02687168
v -0.04238276 0.00053226 -0.00037157
v -0.04283054 -0.00616756 0.00014709
v -0.03602880 -0.00616756 -0.02793885
v -0.03702982 0.00053226 -0.02781571
v -0.04392777 0.00053226 0.00000903
v -0.04435335 -0.00616756 0.00050903
v -0.03693175 -0.00616756 -0.02902841
v -0.03791241 0.00053226 -0.02890527
v -0.04528405 0.00053226 0.00006873
v -0.04953607 -0.00616625 0.00144934
v -0.04979511 -0.00616756 -0.03667023
v -0.03812150 -0.00616756 -0.03030826
v -0.03895599 0.00053226 -0.03003587
v -0.04674210 0.00053226 0.00006127
v -0.04979511 0.00004237 0.00005008
v -0.04934363 0.00053226 -0.03667023
v -0.04772276 -0.00591310 -0.03667023
v -0.04345964 -0.00616756 -0.03411425
v -0.03949258 -0.00616756 -0.03147618
v -0.04034372 0.00053226 -0.03129707
v -0.04592056 0.00053226 -0.03523739
v -0.04733050 -0.00151782 -0.03667023
v -0.04659962 -0.00431947 -0.03667023
v -0.04046214 -0.00616756 -0.03221872
v -0.04651081 -0.00296849 -0.03667023
v -0.04121152 0.00053226 -0.03200976
f 1 2 8
f 1 8 13
f 1 13 19
f 1 19 23
f 1 23 27
f 1 27 30
f 1 30 34
f 1 34 36
f 1 36 40
f 1 40 44
f 1 44 49
f 1 49 56
f 1 56 62
f 1 62 57
f 1 57 50
f 1 50 45
f 1 45 41
f 1 41 37
f 1 37 32
f 1 32 28
f 1 28 24
f 1 24 20
f 1 20 16
f 1 16 15
f 1 15 14
f 1 14 9
f 1 9 3
f 1 3 4
f 1 4 5
f 1 5 2
f 2 5 6
f 2 6 7
f 2 7 8
f 3 9 4
f 4 9 10
f 4 10 17
f 4 17 21
f 4 21 25
f 4 25 29
f 4 29 33
f 4 33 38
f 4 38 42
f 4 42 46
f 4 46 51
f 4 51 58
f 4 58 64
f 4 64 59
f 4 59 54
f 4 54 52
f 4 52 47
f 4 47 43
f 4 43 39
f 4 39 35
f 4 35 31
f 4 31 26
f 4 26 22
f 4 22 18
f 4 18 12
f 4 12 11
f 4 11 7
f 4 7 6
f 4 6 5
f 7 11 8
f 8 11 12
f 8 12 13
f 9 14 10
f 10 15 16
f 10 16 17
f 10 14 15
f 12 18 13
f 13 18 19
f 16 20 17
f 17 20 21
f 18 22 19
f 19 22 23
f 20 24 21
f 21 24 25
f 22 26 27
f 22 27 23
f 24 28 25
f 25 28 29
f 26 30 27
f 26 31 30
f 28 32 29
f 29 32 33
f 30 31 34
f 31 35 36
f 31 36 34
f 32 37 33
f 33 37 38
f 35 39 40
f 35 40 36
f 37 41 42
f 37 42 38
f 39 43 40
f 40 43 44
f 41 45 46
f 41 46 42
f 43 47 48
f 43 48 44
f 44 48 49
f 45 50 51
f 45 51 46
f 47 52 48
f 48 52 53
f 48 53 49
f 49 53 54
f 49 54 60
f 49 60 63
f 49 63 61
f 49 61 55
f 49 55 56
f 50 57 58
f 50 58 51
f 52 54 53
f 54 59 60
f 55 61 56
f 56 61 62
f 57 62 63
f 57 63 64
f 57 64 58
f 59 63 60
f 59 64 63
f 61 63 62

