# https://github.com/mikedh/trimesh
v -0.02988044 -0.02428554 -0.04046235
v -0.00768953 -0.02428554 -0.04001676
v -0.02988044 -0.02428554 -0.03839419
v -0.02988044 0.00053226 -0.03954546
v -0.00768953 0.00053226 -0.03922660
v -0.00768953 -0.02428554 -0.03788211
v -0.02779081 -0.02428554 -0.03779615
v -0.02988044 -0.01900908 -0.03780680
v -0.02988044 0.00053226 -0.03720326
v -0.00768953 0.00053226 -0.03682930
v -0.00771342 -0.02428554 -0.03787991
v -0.00768953 -0.02426124 -0.03787954
v -0.02680682 -0.02428554 -0.03760807
v -0.02988044 -0.01413346 -0.03731199
v -0.02846201 0.00053226 -0.03702179
v -0.02988044 0.00034035 -0.03720068
v -0.01608715 0.00053226 -0.03673562
v -0.01608715 0.00048610 -0.03673379
v -0.00828687 -0.00243878 -0.03679219
v -0.00768953 -0.00476606 -0.03679109
v -0.00926218 -0.02388227 -0.03773995
v -0.00926218 -0.02428554 -0.03778697
v -0.00768953 -0.01803493 -0.03727930
v -0.01063934 -0.02428554 -0.03773885
v -0.01608715 -0.02388227 -0.03763709
v -0.01706028 -0.02388227 -0.03762938
v -0.01608715 -0.01998323 -0.03715366
v -0.01998402 -0.01998323 -0.03722383
v -0.02973274 -0.01413346 -0.03730354
v -0.02988044 -0.01023686 -0.03721317
v -0.02583369 -0.00243878 -0.03690130
v -0.02680682 -0.00048805 -0.03694795
v -0.02680247 0.00053226 -0.03695787
v -0.02988044 -0.00048805 -0.03719885
v -0.02988044 -0.00438708 -0.03720252
v -0.01998402 0.00053226 -0.03672718
v -0.01998402 0.00048610 -0.03672644
v -0.01803559 -0.00341293 -0.03670954
v -0.01023748 -0.00536367 -0.03675509
v -0.01023748 -0.01023686 -0.03682562
v -0.00828687 -0.01315931 -0.03698468
v -0.00768953 -0.00536367 -0.03680689
v -0.00828687 -0.01705835 -0.03715734
v -0.00926218 -0.01705835 -0.03711840
v -0.00768953 -0.01315931 -0.03701885
v -0.01218592 -0.01413346 -0.03693105
v -0.01316123 -0.01315931 -0.03686970
v -0.02095933 -0.01608420 -0.03710591
v -0.02485838 -0.01413346 -0.03716211
v -0.02193246 -0.00926270 -0.03693656
v -0.02583369 -0.00341293 -0.03691856
v -0.02290777 -0.00243878 -0.03682526
v -0.02095933 0.00053226 -0.03675987
v -0.02193246 -0.00828855 -0.03691342
v -0.01706028 -0.01023686 -0.03685979
f 1 2 6
f 1 6 11
f 1 11 22
f 1 22 24
f 1 24 13
f 1 13 7
f 1 7 3
f 1 3 8
f 1 8 14
f 1 14 30
f 1 30 35
f 1 35 34
f 1 34 16
f 1 16 9
f 1 9 4
f 1 4 5
f 1 5 2
f 2 5 10
f 2 10 20
f 2 20 42
f 2 42 45
f 2 45 23
f 2 23 12
f 2 12 6
f 3 7 8
f 4 9 15
f 4 15 33
f 4 33 53
f 4 53 36
f 4 36 17
f 4 17 10
f 4 10 5
f 6 12 11
f 7 13 14
f 7 14 8
f 9 16 15
f 10 17 18
f 10 18 19
f 10 19 20
f 11 21 22
f 11 12 23
f 11 23 21
f 13 24 25
f 13 25 26
f 13 26 27
f 13 27 28
f 13 28 29
f 13 29 14
f 14 29 30
f 15 31 32
f 15 32 33
f 15 16 34
f 15 34 35
f 15 35 30
f 15 30 31
f 17 36 18
f 18 36 37
f 18 37 38
f 18 38 39
f 18 39 19
f 19 39 20
f 20 39 40
f 20 40 41
f 20 41 42
f 21 27 24
f 21 24 22
f 21 23 43
f 21 43 44
f 21 44 27
f 23 45 43
f 24 27 25
f 25 27 26
f 27 44 46
f 27 46 47
f 27 47 48
f 27 48 28
f 28 48 29
f 29 48 49
f 29 49 50
f 29 50 30
f 30 50 51
f 30 51 31
f 31 51 38
f 31 38 52
f 31 52 37
f 31 37 32
f 32 37 53
f 32 53 33
f 36 53 37
f 37 52 38
f 38 51 54
f 38 54 50
f 38 50 55
f 38 55 47
f 38 47 40
f 38 40 39
f 40 47 41
f 41 47 46
f 41 46 44
f 41 44 43
f 41 43 45
f 41 45 42
f 47 55 48
f 48 55 50
f 48 50 49
f 50 54 51

