# https://github.com/mikedh/trimesh
v 0.02530102 -0.01063556 0.00004003
v 0.02675597 0.00561779 0.00342422
v 0.02681827 0.00561779 0.00004003
v 0.02803397 -0.01063556 0.00004003
v 0.02605466 -0.01063556 0.03613933
v 0.02695534 0.00561779 0.03557197
v 0.02904033 0.00561779 0.00004003
v 0.02826375 -0.00971757 0.00004003
v 0.03039160 -0.00983530 0.02402099
v 0.03039310 -0.01063556 0.03755374
v 0.02609005 -0.01063556 0.03659082
v 0.02698226 0.00561779 0.03583168
v 0.03039160 0.00561779 0.02303810
v 0.02906973 0.00536006 0.00004003
v 0.02832556 -0.00945347 0.00004003
v 0.03039160 -0.00978121 0.02387316
v 0.03039160 -0.00970803 0.02369336
v 0.03039160 -0.00928005 0.02294620
v 0.03039160 -0.00828570 0.02249871
v 0.03039310 -0.00475374 0.03725807
v 0.03039310 -0.00472988 0.04061828
v 0.03037166 -0.01059261 0.04085801
v 0.02973316 -0.01063556 0.04075413
v 0.02706999 0.00561779 0.03661480
v 0.02616980 -0.01063556 0.03705829
v 0.03039160 0.00497504 0.02259460
v 0.02937378 0.00146059 0.00004003
v 0.02930948 0.00247722 0.00004003
v 0.02919135 0.00393296 0.00004003
v 0.02915397 0.00438479 0.00004003
v 0.02911609 0.00483345 0.00004003
v 0.03039160 0.00561779 0.04058632
v 0.02837541 -0.00923073 0.00004003
v 0.02858326 -0.00828570 0.00004003
v 0.02875970 -0.00731202 0.00004003
v 0.02889877 -0.00633676 0.00004003
v 0.02923921 -0.00385484 0.00004003
v 0.02929902 -0.00338233 0.00004003
v 0.02933491 -0.00303390 0.00004003
v 0.02938525 -0.00243729 0.00004003
v 0.02940469 -0.00199023 0.00004003
v 0.02942363 -0.00146203 0.00004003
v 0.03037366 -0.00048835 0.02095645
v 0.03039160 0.00343339 0.02212713
v 0.03039160 0.00427024 0.02216309
v 0.02973316 0.00561779 0.04037456
v 0.02933341 -0.01063556 0.04061029
v 0.02623609 -0.01063556 0.03733798
v 0.02714625 0.00561779 0.03693444
v 0.02940718 -0.00004129 0.00004003
v 0.02941266 -0.00048835 0.00004003
v 0.02908519 0.00561779 0.04008289
v 0.02875821 -0.01063556 0.04036656
v 0.02639509 -0.01063556 0.03778148
v 0.02735808 0.00561779 0.03770157
v 0.02859821 0.00561779 0.03958744
v 0.02796917 -0.01063556 0.03987112
v 0.02816905 -0.01063556 0.04003494
v 0.02661142 -0.01063556 0.03815706
v 0.02775883 0.00561779 0.03848469
v 0.02818101 0.00561779 0.03909999
v 0.02717765 -0.01063556 0.03904006
v 0.02744830 -0.01063556 0.03933173
v 0.02682824 -0.01063556 0.03850067
f 1 2 3
f 1 3 7
f 1 7 14
f 1 14 31
f 1 31 30
f 1 30 29
f 1 29 28
f 1 28 27
f 1 27 50
f 1 50 51
f 1 51 42
f 1 42 41
f 1 41 40
f 1 40 39
f 1 39 38
f 1 38 37
f 1 37 36
f 1 36 35
f 1 35 34
f 1 34 33
f 1 33 15
f 1 15 8
f 1 8 4
f 1 4 10
f 1 10 23
f 1 23 47
f 1 47 53
f 1 53 58
f 1 58 57
f 1 57 63
f 1 63 62
f 1 62 64
f 1 64 59
f 1 59 54
f 1 54 48
f 1 48 25
f 1 25 11
f 1 11 5
f 1 5 6
f 1 6 2
f 2 6 12
f 2 12 24
f 2 24 49
f 2 49 55
f 2 55 60
f 2 60 61
f 2 61 56
f 2 56 52
f 2 52 46
f 2 46 32
f 2 32 13
f 2 13 7
f 2 7 3
f 4 8 9
f 4 9 10
f 5 11 6
f 6 11 12
f 7 13 14
f 8 15 16
f 8 16 9
f 9 16 10
f 10 16 17
f 10 17 18
f 10 18 19
f 10 19 20
f 10 20 21
f 10 21 22
f 10 22 23
f 11 24 12
f 11 25 24
f 13 26 27
f 13 27 28
f 13 28 29
f 13 29 30
f 13 30 31
f 13 31 14
f 13 32 21
f 13 21 20
f 13 20 26
f 15 33 16
f 16 33 17
f 17 33 34
f 17 34 35
f 17 35 18
f 18 35 36
f 18 36 37
f 18 37 38
f 18 38 39
f 18 39 40
f 18 40 41
f 18 41 42
f 18 42 19
f 19 43 44
f 19 44 20
f 19 42 43
f 20 44 45
f 20 45 26
f 21 32 22
f 22 32 23
f 23 32 46
f 23 46 47
f 24 25 48
f 24 48 49
f 26 45 27
f 27 45 50
f 42 51 45
f 42 45 43
f 43 45 44
f 45 51 50
f 46 52 53
f 46 53 47
f 48 54 55
f 48 55 49
f 52 56 57
f 52 57 58
f 52 58 53
f 54 59 60
f 54 60 55
f 56 61 62
f 56 62 63
f 56 63 57
f 59 64 60
f 60 64 62
f 60 62 61

