# https://github.com/mikedh/trimesh
v -0.05574930 -0.01532038 0.03816690
v -0.05450653 -0.01881892 0.03865489
v -0.05551539 -0.01694873 0.03924186
v -0.05563502 -0.01555070 0.03994368
v -0.05273165 -0.01505551 0.04093343
v -0.05418869 -0.01502327 0.03742644
v -0.05035324 -0.01502787 0.03557079
v -0.05312805 -0.01901469 0.03740315
v -0.05339768 -0.02032751 0.03783345
v -0.05274236 -0.02261918 0.03897722
v -0.05320662 -0.02084112 0.04002201
v -0.05400656 -0.01582938 0.04093078
v -0.05429940 -0.01737482 0.04054600
v -0.05066929 -0.01502327 0.04025066
v -0.04791948 -0.02652079 0.04097789
v -0.03812731 -0.03557002 0.04094190
v -0.03788625 -0.03400385 0.04082122
v -0.05159602 -0.01502327 0.03728671
v -0.04977650 -0.01662398 0.03557079
v -0.04868014 -0.01502327 0.03744973
v -0.04813375 -0.01504630 0.03606620
v -0.03799874 -0.03207608 0.03557079
v -0.05215133 -0.02096319 0.03737986
v -0.05221204 -0.02196968 0.03763233
v -0.05081393 -0.02514578 0.03789008
v -0.05169958 -0.02442949 0.03899045
v -0.05051573 -0.02548666 0.04007864
v -0.05069072 -0.02343912 0.04081116
v -0.04914619 -0.01502327 0.03892747
v -0.03750949 -0.03219585 0.04011093
v -0.04673921 -0.03112717 0.03989657
v -0.04538395 -0.02997557 0.04086727
v -0.04021824 -0.03470172 0.04092231
v -0.03750949 -0.03702563 0.04079529
v -0.04906405 -0.01811184 0.03557079
v -0.03751128 -0.02972453 0.03625780
v -0.03750949 -0.03073562 0.03887136
v -0.03770055 -0.03796533 0.03773236
v -0.03990218 -0.03691278 0.03767414
v -0.04045929 -0.03557923 0.03733911
v -0.04002717 -0.03026577 0.03557079
v -0.04778914 -0.02051177 0.03557079
v -0.05020325 -0.02486019 0.03744708
v -0.05135139 -0.02323414 0.03755929
v -0.04861408 -0.02795798 0.03773924
v -0.04969079 -0.02746049 0.03857021
v -0.04782306 -0.03029572 0.03896293
v -0.04893013 -0.02856372 0.03925774
v -0.04562857 -0.03197244 0.04006488
v -0.04302697 -0.03524297 0.03914500
v -0.03974148 -0.03680683 0.04022472
v -0.03767734 -0.03855265 0.03979337
v -0.03750949 -0.03387257 0.03728671
v -0.04080034 -0.03706939 0.03872158
v -0.04174848 -0.03601223 0.03816425
v -0.04315553 -0.03417428 0.03769637
v -0.04148243 -0.02879864 0.03557079
v -0.04674992 -0.02234510 0.03557079
v -0.04445365 -0.02553272 0.03557079
v -0.04638566 -0.03077478 0.03769531
v -0.04594641 -0.02356349 0.03557079
v -0.04684456 -0.03123772 0.03852363
v -0.04543216 -0.03214517 0.03781757
v -0.04533395 -0.03070568 0.03731423
f 1 2 3
f 1 3 4
f 1 4 5
f 1 5 6
f 1 6 7
f 1 7 8
f 1 8 9
f 1 9 2
f 2 9 10
f 2 10 3
f 3 10 11
f 3 11 4
f 4 12 5
f 4 11 13
f 4 13 12
f 5 14 6
f 5 12 15
f 5 15 16
f 5 16 17
f 5 17 14
f 6 14 29
f 6 29 20
f 6 20 18
f 6 18 7
f 7 19 8
f 7 18 20
f 7 20 21
f 7 21 22
f 7 22 41
f 7 41 57
f 7 57 59
f 7 59 61
f 7 61 58
f 7 58 42
f 7 42 35
f 7 35 19
f 8 23 24
f 8 24 9
f 8 19 23
f 9 24 25
f 9 25 10
f 10 25 26
f 10 26 11
f 11 26 27
f 11 27 28
f 11 28 13
f 12 13 28
f 12 28 15
f 14 17 30
f 14 30 29
f 15 31 32
f 15 32 33
f 15 33 16
f 15 28 31
f 16 33 34
f 16 34 17
f 17 34 30
f 19 35 23
f 20 29 21
f 21 36 22
f 21 29 37
f 21 37 36
f 22 36 38
f 22 38 39
f 22 39 40
f 22 40 41
f 23 35 42
f 23 42 43
f 23 43 24
f 24 43 44
f 24 44 25
f 25 44 43
f 25 43 45
f 25 45 46
f 25 46 26
f 26 46 47
f 26 47 48
f 26 48 27
f 27 48 31
f 27 31 28
f 29 30 37
f 30 34 53
f 30 53 37
f 31 49 32
f 31 48 47
f 31 47 50
f 31 50 49
f 32 49 33
f 33 51 34
f 33 49 51
f 34 51 52
f 34 52 38
f 34 38 53
f 36 37 53
f 36 53 38
f 38 52 54
f 38 54 39
f 39 55 56
f 39 56 40
f 39 54 55
f 40 56 41
f 41 56 57
f 42 58 43
f 43 59 60
f 43 60 45
f 43 58 61
f 43 61 59
f 45 60 62
f 45 62 46
f 46 62 47
f 47 62 50
f 49 50 51
f 50 55 54
f 50 54 52
f 50 52 51
f 50 62 55
f 55 62 63
f 55 63 56
f 56 63 60
f 56 60 64
f 56 64 57
f 57 64 59
f 59 64 60
f 60 63 62

