# https://github.com/mikedh/trimesh
v 0.02326307 -0.02185911 0.00097808
v 0.02057351 -0.02180133 0.00147473
v 0.02211082 -0.02361075 0.00147473
v 0.02289429 -0.02246507 -0.00078654
v 0.02079122 -0.02517920 -0.02095366
v 0.02041948 -0.02500164 -0.03338127
v 0.01984040 -0.02492554 -0.03614672
v 0.01953975 -0.02180133 -0.00108378
v 0.00813577 -0.02713940 -0.00152776
v 0.00813281 -0.03344983 0.00147473
v 0.01762329 -0.02906156 0.00147473
v 0.01903471 -0.02757062 0.00122641
v 0.01993814 -0.02650526 -0.00000394
v 0.02162208 -0.02432663 -0.00000394
v 0.02089638 -0.02525529 -0.00537305
v 0.01965675 -0.02683360 -0.00366487
v 0.01967896 -0.02654472 -0.02095366
v 0.01978116 -0.02610364 -0.03129683
v 0.01848821 -0.02751425 -0.03231647
v 0.01823199 -0.02737615 -0.03481103
v 0.01815794 -0.02682233 -0.03671486
v 0.01503592 -0.02488749 -0.03695566
v 0.00813577 -0.02713940 -0.03695566
v 0.00813281 -0.03387540 -0.00097091
v 0.00813281 -0.03619777 -0.00080912
v 0.00835645 -0.03608504 0.00097808
v 0.01414433 -0.03216604 0.00147097
v 0.01646808 -0.03011846 0.00146721
v 0.01587715 -0.03074415 -0.00415024
v 0.01744408 -0.02914470 -0.01219451
v 0.01824236 -0.02819067 -0.02045324
v 0.01809574 -0.02809484 -0.03021322
v 0.01737447 -0.02871630 -0.03216597
v 0.01697311 -0.02891500 -0.03410744
v 0.01533213 -0.02979012 -0.03628217
v 0.00815503 -0.03484212 -0.03673744
v 0.01256555 -0.02714081 -0.03695943
v 0.00813577 -0.03601739 -0.02095366
v 0.00886296 -0.03578629 -0.00757413
v 0.00964643 -0.03534520 0.00097432
v 0.01157918 -0.03402901 -0.00147132
v 0.01299505 -0.03300451 -0.00927103
v 0.01520920 -0.03105699 -0.02241352
v 0.01622075 -0.03011705 -0.02338801
v 0.01711529 -0.02930112 -0.02096118
v 0.01726192 -0.02897278 -0.02923873
v 0.01472342 -0.03113309 -0.03270025
v 0.01499889 -0.03108095 -0.03021322
v 0.01364374 -0.03178414 -0.03435576
v 0.01303652 -0.03170805 -0.03622573
v 0.00971456 -0.03407551 -0.03635742
v 0.00886592 -0.03489849 -0.03534154
v 0.00870005 -0.03533111 -0.03314799
v 0.00862451 -0.03550867 -0.03168061
v 0.00848678 -0.03567214 -0.02962627
v 0.01005964 -0.03497317 -0.01511799
v 0.00988191 -0.03517892 -0.00537305
v 0.01129630 -0.03416993 -0.01414726
v 0.01334902 -0.03244647 -0.02909952
v 0.01057060 -0.03425730 -0.03213963
v 0.01035288 -0.03419107 -0.03411496
v 0.01145626 -0.03299042 -0.03608652
v 0.01059429 -0.03433340 -0.03021322
v 0.01134666 -0.03388949 -0.02875337
f 1 2 3
f 1 3 4
f 1 4 5
f 1 5 6
f 1 6 7
f 1 7 8
f 1 8 2
f 2 8 9
f 2 9 10
f 2 10 11
f 2 11 3
f 3 11 12
f 3 12 13
f 3 13 14
f 3 14 4
f 4 14 5
f 5 14 15
f 5 15 16
f 5 16 17
f 5 17 18
f 5 18 6
f 6 18 19
f 6 19 20
f 6 20 7
f 7 20 21
f 7 21 22
f 7 22 8
f 8 22 23
f 8 23 9
f 9 23 10
f 10 24 25
f 10 25 26
f 10 26 27
f 10 27 11
f 10 23 24
f 11 27 28
f 11 28 29
f 11 29 30
f 11 30 12
f 12 30 31
f 12 31 16
f 12 16 13
f 13 16 15
f 13 15 14
f 16 31 17
f 17 31 32
f 17 32 18
f 18 32 19
f 19 32 33
f 19 33 34
f 19 34 20
f 20 34 21
f 21 35 36
f 21 36 37
f 21 37 22
f 21 34 35
f 22 37 23
f 23 37 36
f 23 36 38
f 23 38 25
f 23 25 24
f 25 38 39
f 25 39 26
f 26 39 40
f 26 40 27
f 27 40 41
f 27 41 42
f 27 42 29
f 27 29 28
f 29 42 43
f 29 43 44
f 29 44 30
f 30 44 45
f 30 45 31
f 31 45 46
f 31 46 32
f 32 46 33
f 33 47 34
f 33 46 48
f 33 48 47
f 34 49 35
f 34 47 49
f 35 50 36
f 35 49 50
f 36 51 52
f 36 52 53
f 36 53 54
f 36 54 55
f 36 55 38
f 36 50 51
f 38 56 39
f 38 55 56
f 39 56 57
f 39 57 40
f 40 57 41
f 41 57 58
f 41 58 42
f 42 58 59
f 42 59 43
f 43 59 48
f 43 48 44
f 44 48 46
f 44 46 45
f 47 48 59
f 47 59 60
f 47 60 49
f 49 60 61
f 49 61 62
f 49 62 50
f 50 62 51
f 51 62 52
f 52 62 61
f 52 61 53
f 53 60 54
f 53 61 60
f 54 60 63
f 54 63 55
f 55 63 64
f 55 64 56
f 56 64 58
f 56 58 57
f 58 64 59
f 59 64 60
f 60 64 63

