# https://github.com/mikedh/trimesh
v 0.02976020 -0.00193915 -0.02889170
v 0.02976020 -0.00246927 -0.02500496
v 0.02976020 -0.00050813 -0.02874176
v 0.03753274 -0.00097379 -0.02695568
v 0.03852535 -0.00245189 -0.02686601
v 0.03670673 -0.00246927 -0.02722175
v 0.02976020 -0.00036184 -0.02297338
v 0.04610146 -0.00246927 -0.02076247
v 0.04767281 -0.00243740 -0.01939829
v 0.04767281 0.00017045 -0.01455897
v 0.02976020 0.00134510 -0.02837425
v 0.03647875 -0.00056462 -0.02716001
v 0.03753274 0.00048837 -0.02664697
v 0.03850957 -0.00146045 -0.02675722
v 0.03982662 -0.00245189 -0.02649556
v 0.04480020 -0.00245261 -0.02453455
v 0.02976020 0.00077660 -0.02229864
v 0.04661180 -0.00237367 -0.02347025
v 0.04767281 -0.00205068 -0.02263381
v 0.04767281 0.00133931 -0.01387541
v 0.02976020 0.00243647 -0.02805231
v 0.03457595 0.00142766 -0.02715707
v 0.03655942 0.00048837 -0.02691158
v 0.03558434 0.00146097 -0.02688071
v 0.03740121 0.00153991 -0.02634268
v 0.03850957 0.00083381 -0.02624566
v 0.04180833 -0.00030246 -0.02546801
v 0.04170837 -0.00196812 -0.02582229
v 0.04300087 -0.00204923 -0.02532689
v 0.04484755 -0.00144669 -0.02435962
v 0.02976020 0.00238360 -0.02214429
v 0.04567531 0.00037395 -0.02333354
v 0.04764475 -0.00076522 -0.02228247
v 0.04767281 0.00035946 -0.02174444
v 0.04767281 0.00239664 -0.01472802
v 0.02976020 0.00434401 -0.02294398
v 0.02976020 0.00338807 -0.02234862
v 0.02976020 0.00354160 -0.02751135
v 0.03713639 0.00258348 -0.02570763
v 0.03950393 0.00193967 -0.02535041
v 0.04118225 0.00085119 -0.02529455
v 0.04271501 0.00119591 -0.02451250
v 0.04394438 -0.00029884 -0.02451691
v 0.04586646 0.00152543 -0.02246770
v 0.04652587 0.00046157 -0.02264851
v 0.04767281 0.00144287 -0.02109322
v 0.04767281 0.00303466 -0.01584818
v 0.02976020 0.00492917 -0.02436991
v 0.02976020 0.00454389 -0.02633239
v 0.03717848 0.00350829 -0.02471977
v 0.04227658 0.00208089 -0.02402592
v 0.04350594 0.00202295 -0.02346437
v 0.04650132 0.00211927 -0.02151953
v 0.04767281 0.00237781 -0.02027589
v 0.04767281 0.00325844 -0.01704478
v 0.04747639 0.00328089 -0.01804734
v 0.04630315 0.00333231 -0.01901167
v 0.04435475 0.00331999 -0.02095798
v 0.04552098 0.00298541 -0.02117554
v 0.04210822 0.00284057 -0.02326151
v 0.04374094 0.00289127 -0.02236773
v 0.04675385 0.00291227 -0.02044053
v 0.04758687 0.00298614 -0.01921453
v 0.04571564 0.00325047 -0.02001570
f 1 2 7
f 1 7 17
f 1 17 31
f 1 31 37
f 1 37 36
f 1 36 48
f 1 48 49
f 1 49 38
f 1 38 21
f 1 21 11
f 1 11 3
f 1 3 4
f 1 4 5
f 1 5 6
f 1 6 2
f 2 6 8
f 2 8 9
f 2 9 10
f 2 10 7
f 3 11 12
f 3 12 4
f 4 13 14
f 4 14 5
f 4 12 13
f 5 15 6
f 5 14 15
f 6 15 16
f 6 16 8
f 7 10 17
f 8 16 9
f 9 16 18
f 9 18 19
f 9 19 34
f 9 34 46
f 9 46 54
f 9 54 55
f 9 55 47
f 9 47 35
f 9 35 20
f 9 20 10
f 10 20 17
f 11 21 22
f 11 22 23
f 11 23 12
f 12 23 13
f 13 23 24
f 13 24 25
f 13 25 26
f 13 26 27
f 13 27 14
f 14 27 28
f 14 28 15
f 15 28 29
f 15 29 16
f 16 29 30
f 16 30 18
f 17 20 31
f 18 30 32
f 18 32 19
f 19 32 33
f 19 33 34
f 20 35 36
f 20 36 37
f 20 37 31
f 21 38 25
f 21 25 24
f 21 24 22
f 22 24 23
f 25 39 40
f 25 40 41
f 25 41 26
f 25 38 39
f 26 41 27
f 27 41 42
f 27 42 43
f 27 43 29
f 27 29 28
f 29 43 30
f 30 43 32
f 32 43 42
f 32 42 44
f 32 44 45
f 32 45 33
f 33 45 34
f 34 45 46
f 35 47 36
f 36 47 48
f 38 49 50
f 38 50 39
f 39 50 51
f 39 51 40
f 40 51 42
f 40 42 41
f 42 51 52
f 42 52 44
f 44 53 46
f 44 46 45
f 44 52 53
f 46 53 54
f 47 55 48
f 48 55 56
f 48 56 57
f 48 57 58
f 48 58 49
f 49 58 59
f 49 59 50
f 50 60 51
f 50 59 61
f 50 61 60
f 51 60 52
f 52 60 61
f 52 61 59
f 52 59 53
f 53 59 62
f 53 62 54
f 54 62 63
f 54 63 55
f 55 63 56
f 56 63 62
f 56 62 64
f 56 64 57
f 57 64 58
f 58 64 62
f 58 62 59

