# https://github.com/mikedh/trimesh
v 0.02696818 0.01428793 -0.00731199
v 0.02683739 0.01469958 -0.00584974
v 0.02676473 0.01484142 0.00076522
v 0.01231778 0.01428793 -0.00199071
v 0.02309642 0.01428793 -0.03667434
v 0.02649485 0.01463246 -0.03021697
v 0.02629555 0.01603610 -0.00584974
v 0.02594678 0.01684597 0.00076522
v 0.02088755 0.01479086 0.00076522
v 0.00716928 0.01885813 -0.00298753
v 0.00588838 0.01833775 -0.00390007
v 0.01073586 0.01428793 -0.00293622
v 0.01653831 0.01477923 -0.00005203
v 0.01494186 0.01469958 -0.00062740
v 0.01724207 0.01428793 -0.03400637
v 0.02052840 0.01885813 -0.03667434
v 0.02485065 0.01608576 -0.03655340
v 0.02557102 0.01501413 -0.03583510
v 0.02604851 0.01470629 -0.03460739
v 0.02626026 0.01469018 -0.03313781
v 0.02631631 0.01488169 -0.03168289
v 0.02580769 0.01608576 -0.03168289
v 0.02476345 0.01844648 -0.03021697
v 0.02617722 0.01625937 -0.00731199
v 0.02564161 0.01742318 -0.00682457
v 0.02547345 0.01780350 -0.00536232
v 0.02531568 0.01819681 0.00062596
v 0.02011735 0.01844648 0.00076522
v 0.01952984 0.01647504 0.00073224
v 0.01844408 0.01490540 0.00039141
v 0.00980373 0.01885813 -0.00183679
v 0.00896087 0.01885813 -0.02985415
v 0.00652572 0.01885545 -0.02774689
v 0.00575967 0.01699587 -0.00480527
v 0.00876573 0.01428793 -0.00428487
v 0.00575967 0.01787375 -0.02627731
v 0.01605252 0.01657303 0.00000661
v 0.01121334 0.01885813 -0.00133104
v 0.01754517 0.01657303 0.00036576
v 0.01589474 0.01428793 -0.03321477
v 0.01213717 0.01885813 -0.03199073
v 0.02399948 0.01845275 -0.03595237
v 0.02458907 0.01885813 -0.02875838
v 0.02458492 0.01842456 -0.03375716
v 0.02573918 0.01608576 -0.03265772
v 0.02478837 0.01824916 -0.03217030
v 0.02504787 0.01855521 -0.00828683
v 0.02523471 0.01829569 -0.00438748
v 0.02504372 0.01872703 -0.00056877
v 0.01462630 0.01885813 -0.00038186
v 0.01661097 0.01823887 0.00010556
v 0.01094969 0.01885813 -0.03129075
v 0.01419034 0.01428793 -0.03198340
v 0.01310251 0.01428793 -0.03109652
v 0.01207074 0.01428793 -0.03018765
v 0.01105142 0.01428793 -0.02919082
v 0.00576590 0.01582893 -0.00565550
v 0.00575967 0.01679765 -0.02533912
v 0.00705925 0.01441769 -0.00563351
v 0.00592160 0.01444454 -0.00687588
v 0.00577835 0.01431388 -0.02293502
v 0.00719627 0.01428793 -0.02485903
v 0.00826126 0.01428793 -0.02614904
v 0.01270599 0.01885813 -0.00089127
f 1 2 3
f 1 3 4
f 1 4 12
f 1 12 35
f 1 35 62
f 1 62 63
f 1 63 56
f 1 56 55
f 1 55 54
f 1 54 53
f 1 53 40
f 1 40 15
f 1 15 5
f 1 5 6
f 1 6 2
f 2 6 7
f 2 7 3
f 3 8 28
f 3 28 9
f 3 9 4
f 3 7 8
f 4 10 11
f 4 11 12
f 4 9 13
f 4 13 14
f 4 14 10
f 5 15 16
f 5 16 17
f 5 17 18
f 5 18 19
f 5 19 20
f 5 20 6
f 6 20 21
f 6 21 22
f 6 22 23
f 6 23 24
f 6 24 7
f 7 25 26
f 7 26 8
f 7 24 25
f 8 27 28
f 8 26 27
f 9 28 29
f 9 29 30
f 9 30 13
f 10 14 31
f 10 31 38
f 10 38 64
f 10 64 50
f 10 50 43
f 10 43 16
f 10 16 41
f 10 41 52
f 10 52 32
f 10 32 33
f 10 33 11
f 11 34 35
f 11 35 12
f 11 33 36
f 11 36 34
f 13 37 38
f 13 38 14
f 13 30 39
f 13 39 37
f 14 38 31
f 15 40 41
f 15 41 16
f 16 42 17
f 16 43 42
f 17 42 18
f 18 42 19
f 19 42 44
f 19 44 45
f 19 45 20
f 20 45 21
f 21 45 22
f 22 45 46
f 22 46 23
f 23 43 25
f 23 25 24
f 23 46 43
f 25 43 26
f 26 43 47
f 26 47 48
f 26 48 27
f 27 48 49
f 27 49 28
f 28 49 50
f 28 50 51
f 28 51 39
f 28 39 29
f 29 39 30
f 32 52 40
f 32 40 53
f 32 53 54
f 32 54 33
f 33 54 55
f 33 55 56
f 33 56 36
f 34 57 35
f 34 36 58
f 34 58 57
f 35 57 59
f 35 59 60
f 35 60 61
f 35 61 62
f 36 56 63
f 36 63 58
f 37 39 50
f 37 50 64
f 37 64 38
f 39 51 50
f 40 52 41
f 42 43 44
f 43 46 44
f 43 50 49
f 43 49 47
f 44 46 45
f 47 49 48
f 57 58 61
f 57 61 60
f 57 60 59
f 58 63 62
f 58 62 61

