# https://github.com/mikedh/trimesh
v -0.01280754 0.04676566 0.03852739
v -0.00789113 0.04613848 0.03775303
v -0.01579136 0.04632585 0.03830978
v -0.01437477 0.04643629 0.03979678
v -0.00682067 0.04646391 0.03899379
v -0.00535921 0.04631599 0.03850639
v -0.01266973 0.04155489 0.03460915
v -0.01619198 0.04137345 0.03460915
v -0.00370865 0.04588405 0.03818570
v -0.00288177 0.04066145 0.03452833
v -0.00692002 0.04133203 0.03452833
v -0.01619198 0.04171860 0.04046106
v -0.01588430 0.04500836 0.04079066
v -0.01169542 0.04615820 0.04029690
v -0.00925965 0.04619962 0.04000421
v -0.00341059 0.04584066 0.03955563
v -0.00182413 0.04571444 0.03881626
v -0.01619198 0.03894360 0.03507681
v -0.00768601 0.03882329 0.03452833
v 0.01654991 0.02661683 0.03500428
v 0.00006038 0.04503400 0.03838550
v -0.00101969 0.04019205 0.03452833
v 0.00555048 0.03769711 0.03452707
v -0.01619198 0.03978576 0.03892061
v 0.01654991 0.02899540 0.03966061
v 0.01654991 0.03117477 0.04060041
v 0.01644094 0.03334034 0.04097709
v -0.00048766 0.04276982 0.04102672
v -0.00341059 0.04399066 0.04098345
v -0.01072111 0.04532984 0.04083328
v -0.00788792 0.04565330 0.04042734
v -0.00514127 0.04584658 0.03987631
v -0.00292344 0.04515037 0.04026699
v 0.00136160 0.04444034 0.03991512
v 0.00454092 0.04343251 0.03964471
v -0.01619198 0.03907179 0.03701621
v 0.00555048 0.03494775 0.03452707
v 0.01654991 0.03012552 0.03452707
v 0.01654991 0.02754183 0.03828306
v 0.00810484 0.04207755 0.03928775
v 0.00775229 0.04212094 0.03836704
v 0.00289998 0.03890415 0.03452833
v 0.01002781 0.04080543 0.03805081
v 0.00684208 0.03707584 0.03452707
v 0.01613647 0.03698512 0.03815071
v 0.01617814 0.03682734 0.04002075
v 0.01588969 0.03552957 0.04093700
v 0.00279742 0.04212291 0.04097963
v -0.00169594 0.04389796 0.04090773
v -0.00341059 0.04447782 0.04079129
v 0.00633249 0.04223336 0.04029435
v 0.00942208 0.04127483 0.03971279
v 0.01228731 0.03371310 0.03452707
v 0.01179054 0.04002638 0.03962753
v 0.01377442 0.03893373 0.03933865
v 0.01136108 0.04028869 0.03828306
v 0.00961438 0.03544476 0.03452707
v 0.00826188 0.03626326 0.03452707
v 0.01507563 0.03776023 0.03991576
v 0.01366224 0.03841305 0.04022563
v 0.01050215 0.03998299 0.04039616
v 0.00640300 0.04087249 0.04094400
v 0.01217834 0.03931241 0.04021927
f 1 2 3
f 1 3 4
f 1 4 5
f 1 5 6
f 1 6 2
f 2 7 8
f 2 8 3
f 2 6 9
f 2 9 10
f 2 10 11
f 2 11 7
f 3 8 12
f 3 12 13
f 3 13 4
f 4 13 14
f 4 14 15
f 4 15 5
f 5 16 6
f 5 15 16
f 6 16 17
f 6 17 9
f 7 11 8
f 8 18 36
f 8 36 24
f 8 24 12
f 8 11 19
f 8 19 20
f 8 20 18
f 9 17 21
f 9 21 22
f 9 22 10
f 10 22 23
f 10 23 11
f 11 23 19
f 12 24 25
f 12 25 26
f 12 26 27
f 12 27 13
f 13 27 28
f 13 28 29
f 13 29 30
f 13 30 14
f 14 30 31
f 14 31 15
f 15 31 32
f 15 32 16
f 16 32 33
f 16 33 34
f 16 34 17
f 17 34 35
f 17 35 21
f 18 20 36
f 19 23 37
f 19 37 38
f 19 38 20
f 20 38 26
f 20 26 25
f 20 25 39
f 20 39 36
f 21 35 40
f 21 40 41
f 21 41 42
f 21 42 22
f 22 42 23
f 23 42 43
f 23 43 44
f 23 44 58
f 23 58 57
f 23 57 53
f 23 53 38
f 23 38 37
f 24 36 39
f 24 39 25
f 26 38 27
f 27 38 45
f 27 45 46
f 27 46 47
f 27 47 28
f 28 47 48
f 28 48 29
f 29 48 49
f 29 49 50
f 29 50 30
f 30 50 31
f 31 50 33
f 31 33 32
f 33 49 34
f 33 50 49
f 34 49 51
f 34 51 35
f 35 51 52
f 35 52 40
f 38 53 45
f 40 52 54
f 40 54 55
f 40 55 56
f 40 56 41
f 41 56 43
f 41 43 42
f 43 57 58
f 43 58 44
f 43 56 45
f 43 45 53
f 43 53 57
f 45 56 55
f 45 55 46
f 46 55 59
f 46 59 60
f 46 60 47
f 47 60 61
f 47 61 62
f 47 62 48
f 48 62 51
f 48 51 49
f 51 62 61
f 51 61 52
f 52 61 63
f 52 63 54
f 54 63 60
f 54 60 59
f 54 59 55
f 60 63 61

