# https://github.com/mikedh/trimesh
v -0.00768953 -0.03897492 0.00824926
v -0.02775131 -0.03577709 0.00824926
v -0.01072550 -0.04139032 0.00824926
v -0.00768953 -0.04122917 0.00768644
v -0.00768953 -0.03817794 -0.00074695
v -0.01768507 -0.03544782 -0.00190336
v -0.02724270 -0.03829080 0.00824926
v -0.02733696 -0.03544899 0.00152628
v -0.02775131 -0.03544782 -0.03667023
v -0.02748228 -0.03791441 -0.03103771
v -0.01391269 -0.04126175 0.00824926
v -0.01413655 -0.04130363 0.00486798
v -0.01218654 -0.04133912 -0.00439204
v -0.01121448 -0.04129316 -0.01608360
v -0.01072746 -0.04127164 -0.01875696
v -0.00975148 -0.04136065 0.00608595
v -0.00870086 -0.04115180 -0.02015080
v -0.00871068 -0.04100462 -0.03001321
v -0.00768953 -0.03817794 -0.03667023
v -0.01768507 -0.03544782 -0.03667023
v -0.02705614 -0.03839493 0.00622225
v -0.02513166 -0.03910232 0.00824926
v -0.02725841 -0.03834141 -0.00927268
v -0.01653038 -0.04021462 -0.03608543
v -0.02727216 -0.03735535 -0.03596232
v -0.02583272 -0.03860494 -0.02875568
v -0.02720342 -0.03819830 -0.02338697
v -0.02733107 -0.03785274 -0.03313506
v -0.01645183 -0.04100986 0.00824926
v -0.01535605 -0.04119776 -0.00342471
v -0.01267355 -0.04121114 -0.02022115
v -0.01081780 -0.04108839 -0.03039575
v -0.00876567 -0.04082661 -0.03320541
v -0.00885993 -0.04033445 -0.03587438
v -0.02485477 -0.03920471 -0.00342471
v -0.02335249 -0.03969279 0.00736107
v -0.02050700 -0.04033445 0.00824926
v -0.02435401 -0.03930535 -0.01875696
v -0.02570115 -0.03882832 -0.02046298
v -0.01170149 -0.04050141 -0.03583481
v -0.01364954 -0.04067535 -0.03509171
v -0.01679549 -0.04052934 -0.03411559
v -0.01915397 -0.04013957 -0.03426069
v -0.02153601 -0.03932223 -0.03582161
v -0.02343693 -0.03894177 -0.03514448
v -0.02539284 -0.03845717 -0.03404084
v -0.02242166 -0.03950955 -0.03314386
v -0.02361563 -0.03936876 -0.02838633
v -0.02550084 -0.03882891 -0.02436310
v -0.01843327 -0.04076087 0.00824926
v -0.01840774 -0.04078821 0.00486798
v -0.01852163 -0.04076902 -0.00586063
v -0.01605319 -0.04102963 -0.01775884
v -0.01472961 -0.04103138 -0.02558546
v -0.01253413 -0.04098426 -0.03267338
v -0.02244916 -0.03997726 -0.00610247
v -0.02046969 -0.04045080 -0.00488450
v -0.02253164 -0.03982368 -0.01656726
v -0.01549548 -0.04080857 -0.03216773
v -0.01749459 -0.04059100 -0.03140266
v -0.01968025 -0.04020065 -0.03221169
v -0.01803462 -0.04076959 -0.01510747
v -0.01823296 -0.04059391 -0.02583169
v -0.01925215 -0.04052178 -0.01924502
f 1 2 7
f 1 7 22
f 1 22 37
f 1 37 50
f 1 50 29
f 1 29 11
f 1 11 3
f 1 3 4
f 1 4 19
f 1 19 5
f 1 5 6
f 1 6 2
f 2 6 8
f 2 8 9
f 2 9 10
f 2 10 7
f 3 11 12
f 3 12 13
f 3 13 14
f 3 14 15
f 3 15 16
f 3 16 4
f 4 16 17
f 4 17 18
f 4 18 19
f 5 19 20
f 5 20 6
f 6 20 9
f 6 9 8
f 7 21 22
f 7 10 23
f 7 23 21
f 9 20 19
f 9 19 24
f 9 24 25
f 9 25 10
f 10 26 27
f 10 27 23
f 10 25 28
f 10 28 26
f 11 29 12
f 12 29 30
f 12 30 13
f 13 30 31
f 13 31 14
f 14 31 15
f 15 31 32
f 15 32 18
f 15 18 17
f 15 17 16
f 18 32 33
f 18 33 19
f 19 33 34
f 19 34 24
f 21 23 22
f 22 23 35
f 22 35 36
f 22 36 37
f 23 38 35
f 23 27 39
f 23 39 38
f 24 34 40
f 24 40 41
f 24 41 42
f 24 42 43
f 24 43 44
f 24 44 25
f 25 44 45
f 25 45 46
f 25 46 28
f 26 28 46
f 26 46 47
f 26 47 48
f 26 48 49
f 26 49 27
f 27 49 39
f 29 50 51
f 29 51 30
f 30 51 52
f 30 52 53
f 30 53 31
f 31 54 55
f 31 55 32
f 31 53 54
f 32 55 33
f 33 41 40
f 33 40 34
f 33 55 41
f 35 38 56
f 35 56 36
f 36 56 57
f 36 57 37
f 37 57 50
f 38 58 56
f 38 39 49
f 38 49 48
f 38 48 58
f 41 55 59
f 41 59 42
f 42 59 60
f 42 60 61
f 42 61 43
f 43 61 47
f 43 47 44
f 44 47 45
f 45 47 46
f 47 61 48
f 48 61 58
f 50 57 51
f 51 57 52
f 52 57 62
f 52 62 53
f 53 62 63
f 53 63 60
f 53 60 54
f 54 60 59
f 54 59 55
f 56 58 57
f 57 58 64
f 57 64 62
f 58 61 64
f 60 63 61
f 61 63 64
f 62 64 63

