# https://github.com/mikedh/trimesh
v 0.02975860 -0.00361925 -0.02874122
v 0.02975860 -0.00584035 -0.02807980
v 0.02975860 -0.00246991 -0.02500464
v 0.03851721 -0.00294152 -0.02685823
v 0.03802181 -0.00438849 -0.02680271
v 0.03619616 -0.00511582 -0.02704441
v 0.03502935 -0.00637834 -0.02687946
v 0.03411653 -0.00805727 -0.02615436
v 0.02975860 -0.00729501 -0.02727958
v 0.02975860 -0.00684855 -0.02307919
v 0.04894304 -0.00476438 -0.01205890
v 0.04767062 -0.00244057 -0.01940141
v 0.04631772 -0.00244057 -0.02052826
v 0.04679551 -0.00275777 -0.02334866
v 0.04209559 -0.00297506 -0.02573301
v 0.04003607 -0.00317279 -0.02643525
v 0.04210313 -0.00475390 -0.02545702
v 0.03938225 -0.00554341 -0.02608250
v 0.03715425 -0.00644821 -0.02636013
v 0.03314838 -0.00884957 -0.02545375
v 0.02975860 -0.00848696 -0.02626704
v 0.03655827 -0.00805448 -0.02556807
v 0.03655827 -0.00854215 -0.02507813
v 0.02975860 -0.00860434 -0.02340745
v 0.04830683 -0.00724261 -0.01205890
v 0.04892041 -0.00880626 -0.01205890
v 0.05100759 -0.00957830 -0.01206543
v 0.05544850 -0.00571599 -0.01232020
v 0.05372344 -0.00359130 -0.01639647
v 0.04589777 -0.00624419 -0.02297467
v 0.04367983 -0.00549660 -0.02459636
v 0.04461277 -0.00308964 -0.02458330
v 0.05125654 -0.00396649 -0.01943734
v 0.04971505 -0.00536246 -0.02046293
v 0.04087597 -0.00638253 -0.02532473
v 0.03946524 -0.00726147 -0.02531167
v 0.03511988 -0.00892713 -0.02472538
v 0.03363623 -0.00907595 -0.02485766
v 0.02975860 -0.00913114 -0.02484296
v 0.04130095 -0.00774845 -0.02430893
v 0.03916851 -0.00844783 -0.02433506
v 0.04010899 -0.00902844 -0.02304816
v 0.05069074 -0.00950983 -0.01413950
v 0.05251137 -0.00897324 -0.01370182
v 0.05401011 -0.00819770 -0.01245902
v 0.05459854 -0.00507111 -0.01438446
v 0.05457088 -0.00668716 -0.01326414
v 0.05252645 -0.00556717 -0.01737797
v 0.05255411 -0.00402308 -0.01790710
v 0.05006962 -0.00664104 -0.01958595
v 0.04749208 -0.00707912 -0.02130889
v 0.04447950 -0.00718811 -0.02328497
v 0.04273431 -0.00707143 -0.02417012
v 0.04143674 -0.00919961 -0.02193111
v 0.04524899 -0.00799089 -0.02212545
v 0.04637807 -0.00880765 -0.02029799
v 0.04483658 -0.00907874 -0.02053806
v 0.04730850 -0.00902494 -0.01904702
v 0.04957674 -0.00927088 -0.01613190
v 0.05187264 -0.00855753 -0.01545906
v 0.05364548 -0.00714968 -0.01446612
v 0.05162620 -0.00773727 -0.01701542
v 0.05265218 -0.00684296 -0.01632951
v 0.05103525 -0.00704698 -0.01831538
f 1 2 9
f 1 9 21
f 1 21 39
f 1 39 24
f 1 24 10
f 1 10 3
f 1 3 4
f 1 4 5
f 1 5 6
f 1 6 2
f 2 6 7
f 2 7 8
f 2 8 9
f 3 10 11
f 3 11 12
f 3 12 13
f 3 13 14
f 3 14 4
f 4 15 16
f 4 16 5
f 4 14 15
f 5 16 17
f 5 17 18
f 5 18 6
f 6 18 19
f 6 19 7
f 7 19 8
f 8 20 21
f 8 21 9
f 8 19 22
f 8 22 23
f 8 23 20
f 10 24 25
f 10 25 11
f 11 25 26
f 11 26 27
f 11 27 28
f 11 28 29
f 11 29 12
f 12 14 13
f 12 29 14
f 14 30 31
f 14 31 32
f 14 32 15
f 14 29 33
f 14 33 34
f 14 34 30
f 15 17 16
f 15 32 17
f 17 31 35
f 17 35 18
f 17 32 31
f 18 35 19
f 19 35 36
f 19 36 22
f 20 23 37
f 20 37 38
f 20 38 39
f 20 39 21
f 22 36 40
f 22 40 41
f 22 41 23
f 23 41 42
f 23 42 37
f 24 39 27
f 24 27 26
f 24 26 25
f 27 43 44
f 27 44 45
f 27 45 28
f 27 39 43
f 28 46 29
f 28 45 47
f 28 47 46
f 29 46 48
f 29 48 49
f 29 49 33
f 30 34 50
f 30 50 51
f 30 51 52
f 30 52 31
f 31 52 53
f 31 53 35
f 33 49 48
f 33 48 50
f 33 50 34
f 35 53 40
f 35 40 36
f 37 42 38
f 38 42 54
f 38 54 39
f 39 54 43
f 40 53 52
f 40 52 55
f 40 55 41
f 41 55 42
f 42 55 56
f 42 56 57
f 42 57 54
f 43 54 57
f 43 57 58
f 43 58 59
f 43 59 44
f 44 59 60
f 44 60 45
f 45 61 47
f 45 60 62
f 45 62 61
f 46 47 61
f 46 61 63
f 46 63 48
f 48 64 50
f 48 63 64
f 50 64 51
f 51 64 56
f 51 56 55
f 51 55 52
f 56 58 57
f 56 64 62
f 56 62 60
f 56 60 58
f 58 60 59
f 61 62 63
f 62 64 63

