# https://github.com/mikedh/trimesh
v -0.03750770 -0.02979490 0.00824926
v -0.03502383 -0.03429802 0.00824926
v -0.03706989 -0.03285617 0.00825193
v -0.03750770 -0.03254754 0.01618498
v -0.03750770 -0.02968646 0.00973302
v -0.00768953 -0.03897393 0.00824926
v -0.03368995 -0.03513335 0.00824926
v -0.03306825 -0.03554564 0.01121678
v -0.03223348 -0.03615099 0.03561049
v -0.03575352 -0.03391670 0.03561049
v -0.03665542 -0.03322676 0.03561049
v -0.03750770 -0.03250583 0.03561049
v -0.03750770 -0.02947555 0.02972901
v -0.00768953 -0.03895009 0.01139355
v -0.00768953 -0.04122727 0.00824926
v -0.03226559 -0.03594841 0.00825461
v -0.02830189 -0.03785500 0.00824926
v -0.03207879 -0.03607472 0.00975445
v -0.03028958 -0.03707806 0.01706613
v -0.03005024 -0.03727945 0.03561049
v -0.03750770 -0.02954824 0.03509626
v -0.00768953 -0.04131069 0.03561049
v -0.00768953 -0.03901325 0.03555960
v -0.03750770 -0.02946125 0.03298578
v -0.00768953 -0.03895724 0.01569753
v -0.00877531 -0.04138219 0.02485455
v -0.01072797 -0.04143104 0.00975445
v -0.00975018 -0.04135716 0.00824926
v -0.00768953 -0.04129996 0.03167611
v -0.03036547 -0.03692196 0.00825997
v -0.02680748 -0.03846034 0.00824926
v -0.02792537 -0.03807783 0.01414146
v -0.02806839 -0.03818389 0.03561049
v -0.00922480 -0.04143819 0.03561049
v -0.01023761 -0.04148109 0.02582944
v -0.01266311 -0.04163361 0.03561049
v -0.01218735 -0.04146679 0.01219167
v -0.01169992 -0.04142270 0.00824926
v -0.02680748 -0.03854018 0.01511635
v -0.02524302 -0.03905853 0.00824926
v -0.02520216 -0.03910262 0.00975445
v -0.02680748 -0.03868794 0.03561049
v -0.01462453 -0.04152518 0.03561049
v -0.01511196 -0.04137265 0.01804102
v -0.01316222 -0.04142866 0.01316657
v -0.01364966 -0.04128685 0.00824926
v -0.02592310 -0.03902517 0.03362589
v -0.02339252 -0.03963408 0.00824926
v -0.02388288 -0.03954709 0.00975445
v -0.02524010 -0.03926468 0.03561049
v -0.01655967 -0.04130235 0.03561049
v -0.01608975 -0.04127494 0.01657868
v -0.01511196 -0.04114386 0.00824926
v -0.02235928 -0.04022512 0.03561049
v -0.02268326 -0.03990816 0.01092217
v -0.02050877 -0.04033475 0.00824926
v -0.01833429 -0.04103543 0.03561049
v -0.01706170 -0.04115339 0.01609124
v -0.01645168 -0.04100921 0.00824926
v -0.02096410 -0.04043366 0.02290477
v -0.02096410 -0.04030973 0.01072934
v -0.01852693 -0.04075063 0.00824926
v -0.01998631 -0.04049681 0.00975445
v -0.01868746 -0.04084596 0.01609124
f 1 2 3
f 1 3 4
f 1 4 12
f 1 12 21
f 1 21 24
f 1 24 13
f 1 13 5
f 1 5 6
f 1 6 15
f 1 15 28
f 1 28 38
f 1 38 46
f 1 46 53
f 1 53 59
f 1 59 62
f 1 62 56
f 1 56 48
f 1 48 40
f 1 40 31
f 1 31 17
f 1 17 7
f 1 7 2
f 2 7 8
f 2 8 9
f 2 9 10
f 2 10 3
f 3 10 4
f 4 10 11
f 4 11 12
f 5 13 6
f 6 14 25
f 6 25 23
f 6 23 22
f 6 22 29
f 6 29 15
f 6 13 14
f 7 16 8
f 7 17 16
f 8 16 18
f 8 18 9
f 9 18 19
f 9 19 20
f 9 20 33
f 9 33 42
f 9 42 50
f 9 50 54
f 9 54 57
f 9 57 51
f 9 51 43
f 9 43 36
f 9 36 34
f 9 34 22
f 9 22 12
f 9 12 11
f 9 11 10
f 12 22 23
f 12 23 21
f 13 24 14
f 14 24 25
f 15 26 27
f 15 27 28
f 15 29 26
f 16 17 30
f 16 30 18
f 17 31 32
f 17 32 19
f 17 19 30
f 18 30 19
f 19 32 33
f 19 33 20
f 21 23 24
f 22 34 26
f 22 26 29
f 23 25 24
f 26 34 35
f 26 35 27
f 27 35 36
f 27 36 37
f 27 37 38
f 27 38 28
f 31 39 32
f 31 40 41
f 31 41 39
f 32 39 33
f 33 39 42
f 34 36 35
f 36 43 44
f 36 44 45
f 36 45 37
f 37 45 38
f 38 45 46
f 39 41 47
f 39 47 42
f 40 48 49
f 40 49 41
f 41 49 47
f 42 47 50
f 43 51 52
f 43 52 44
f 44 52 45
f 45 52 46
f 46 52 53
f 47 49 54
f 47 54 50
f 48 55 49
f 48 56 55
f 49 55 54
f 51 57 58
f 51 58 52
f 52 59 53
f 52 58 59
f 54 55 60
f 54 60 57
f 55 56 61
f 55 61 60
f 56 62 63
f 56 63 61
f 57 60 64
f 57 64 58
f 58 64 62
f 58 62 59
f 60 61 64
f 61 63 64
f 62 64 63

