# https://github.com/mikedh/trimesh
v -0.00754506 -0.04111941 0.00083758
v -0.00576174 -0.04090540 0.00149255
v -0.00768992 -0.03887465 0.00149255
v -0.01767958 -0.03817554 -0.00206083
v -0.01767958 -0.03817554 -0.03666867
v -0.00768570 -0.04094345 -0.02974259
v -0.00712876 -0.04098387 -0.01982775
v -0.00688686 -0.04104094 -0.00536202
v -0.00387576 -0.04058200 0.00149255
v -0.00536232 -0.04077699 -0.01511500
v -0.00387576 -0.04051780 -0.01633459
v -0.00331320 -0.03780934 0.00149255
v -0.01767958 -0.03012865 -0.00133058
v -0.01767958 -0.03205477 -0.00118378
v -0.01767958 -0.03256127 -0.03666867
v -0.00768992 -0.03733852 -0.03696228
v -0.00749161 -0.03993283 -0.03692464
v -0.00691921 -0.04065334 -0.03316422
v -0.00585034 -0.04062480 -0.03045778
v -0.00438769 -0.04040603 -0.02972753
v -0.00559860 -0.04077462 -0.01937228
v -0.00336383 -0.04047262 -0.00438709
v -0.00438769 -0.04054871 -0.02095323
v -0.00341305 -0.04023720 -0.02778145
v -0.00331320 -0.02912992 -0.00105203
v -0.00331320 -0.03733852 -0.03696228
v -0.01767958 -0.02813119 -0.00195920
v -0.01767958 -0.02478783 -0.03075891
v -0.00596145 -0.03142224 -0.03695098
v -0.00740160 -0.03204525 -0.03695098
v -0.00392217 -0.03938115 -0.03674396
v -0.00383919 -0.03986149 -0.03508772
v -0.00672231 -0.04026574 -0.03525334
v -0.00413453 -0.04017300 -0.03315670
v -0.00386310 -0.04025385 -0.03119180
v -0.00331320 -0.02732032 -0.00182369
v -0.00386732 -0.03166003 -0.03693969
v -0.00331320 -0.03038309 -0.03625085
v -0.00331320 -0.02523488 -0.00286260
v -0.01767958 -0.02641671 -0.00282120
v -0.01767958 -0.02360125 -0.02950544
v -0.00331320 -0.02328023 -0.03013783
v -0.00331320 -0.02373203 -0.00381117
v -0.01767958 -0.02484015 -0.00390151
v -0.01767958 -0.02162282 -0.02662961
v -0.00331320 -0.02159190 -0.02826327
v -0.00331320 -0.02100693 -0.00614873
v -0.01767958 -0.02281178 -0.00593793
v -0.01767958 -0.02033874 -0.02382530
v -0.00331320 -0.01847682 -0.02311764
v -0.00331320 -0.01962536 -0.02536861
v -0.00331320 -0.01917831 -0.00852769
v -0.01767958 -0.02109016 -0.00808728
v -0.01767958 -0.01867895 -0.01840112
v -0.00331320 -0.01743767 -0.01958307
v -0.00331320 -0.01828421 -0.00991290
v -0.01767958 -0.02012948 -0.00972093
v -0.01767958 -0.01837933 -0.01647386
v -0.00331320 -0.01708098 -0.01765205
v -0.00331320 -0.01740676 -0.01174229
v -0.01767958 -0.01896667 -0.01244996
v -0.01767958 -0.01850298 -0.01461436
v -0.00331320 -0.01691690 -0.01369214
v -0.00331320 -0.01682654 -0.01563822
f 1 2 3
f 1 3 4
f 1 4 5
f 1 5 6
f 1 6 7
f 1 7 8
f 1 8 2
f 2 9 12
f 2 12 3
f 2 8 10
f 2 10 11
f 2 11 9
f 3 12 13
f 3 13 14
f 3 14 4
f 4 14 13
f 4 13 27
f 4 27 40
f 4 40 44
f 4 44 48
f 4 48 53
f 4 53 57
f 4 57 61
f 4 61 62
f 4 62 58
f 4 58 54
f 4 54 49
f 4 49 45
f 4 45 41
f 4 41 28
f 4 28 15
f 4 15 5
f 5 15 16
f 5 16 17
f 5 17 18
f 5 18 6
f 6 19 20
f 6 20 21
f 6 21 7
f 6 18 19
f 7 21 10
f 7 10 8
f 9 11 22
f 9 22 12
f 10 21 11
f 11 21 23
f 11 23 24
f 11 24 22
f 12 25 13
f 12 22 26
f 12 26 38
f 12 38 42
f 12 42 46
f 12 46 51
f 12 51 50
f 12 50 55
f 12 55 59
f 12 59 64
f 12 64 63
f 12 63 60
f 12 60 56
f 12 56 52
f 12 52 47
f 12 47 43
f 12 43 39
f 12 39 36
f 12 36 25
f 13 25 27
f 15 28 29
f 15 29 30
f 15 30 16
f 16 26 17
f 16 30 29
f 16 29 26
f 17 31 32
f 17 32 33
f 17 33 18
f 17 26 31
f 18 33 32
f 18 32 34
f 18 34 35
f 18 35 19
f 19 35 20
f 20 24 23
f 20 23 21
f 20 35 24
f 22 24 26
f 24 35 32
f 24 32 26
f 25 36 27
f 26 32 31
f 26 29 37
f 26 37 38
f 27 36 39
f 27 39 40
f 28 38 29
f 28 41 42
f 28 42 38
f 29 38 37
f 32 35 34
f 39 43 40
f 40 43 44
f 41 45 46
f 41 46 42
f 43 47 44
f 44 47 48
f 45 49 50
f 45 50 51
f 45 51 46
f 47 52 53
f 47 53 48
f 49 54 50
f 50 54 55
f 52 56 53
f 53 56 57
f 54 58 59
f 54 59 55
f 56 60 57
f 57 60 61
f 58 62 63
f 58 63 64
f 58 64 59
f 60 63 61
f 61 63 62

