# https://github.com/mikedh/trimesh
v -0.02773401 0.03526520 0.00118174
v -0.02820118 0.03816988 0.00118174
v -0.03403666 0.03179240 0.00118544
v -0.03802152 0.02902120 0.00118544
v -0.02773679 0.02902120 -0.00088739
v -0.02773401 0.03179240 -0.00031838
v -0.02773401 0.03787048 -0.02875425
v -0.02838888 0.03823391 -0.00317822
v -0.02992249 0.03737810 0.00118174
v -0.03882238 0.03179240 0.00118544
v -0.04193825 0.02910506 0.00118544
v -0.03559807 0.02902120 -0.03656155
v -0.02773679 0.02902120 -0.03203531
v -0.02773401 0.03179240 -0.03343567
v -0.02774096 0.03781547 -0.03036891
v -0.02974173 0.03704444 -0.02679965
v -0.02828739 0.03768832 -0.02679965
v -0.02773401 0.03773431 -0.03218310
v -0.03197749 0.03633112 0.00118174
v -0.02899649 0.03790295 -0.00585332
v -0.03635861 0.03372585 0.00118174
v -0.04091075 0.03014754 0.00016935
v -0.04098444 0.02929264 -0.02192979
v -0.04060070 0.02933502 -0.03116701
v -0.04047695 0.02926288 -0.03308096
v -0.04016967 0.02916999 -0.03490993
v -0.03217770 0.03123059 -0.03656155
v -0.02773401 0.03408837 -0.03655785
v -0.03890303 0.02969483 -0.03626965
v -0.03688418 0.03136766 -0.03652090
v -0.02775765 0.03687941 -0.03654677
v -0.02895894 0.03724464 -0.03118918
v -0.03109320 0.03614265 -0.03306618
v -0.03177727 0.03586400 -0.03118918
v -0.03135042 0.03615437 -0.02875425
v -0.02812193 0.03729153 -0.03459217
v -0.02934408 0.03697049 -0.03321028
v -0.03364317 0.03534907 -0.00390612
v -0.03148390 0.03623102 -0.02192979
v -0.03422436 0.03473766 -0.02046661
v -0.03585251 0.03398015 -0.00439015
v -0.03670065 0.03340661 -0.00280874
v -0.03837051 0.03205753 -0.00731650
v -0.03932432 0.03048571 -0.03155497
v -0.03841361 0.03111696 -0.03314008
v -0.03937020 0.03011868 -0.03411553
v -0.03780323 0.03120714 -0.03512424
v -0.02923146 0.03621750 -0.03653568
v -0.03516705 0.03286013 -0.03633985
v -0.03344852 0.03468625 -0.03362781
v -0.03339985 0.03483054 -0.03216093
v -0.03304670 0.03515338 -0.03056474
v -0.03009073 0.03630227 -0.03483603
v -0.03168550 0.03553214 -0.03460326
v -0.03281033 0.03490810 -0.03460326
v -0.03484725 0.03395490 -0.03070145
v -0.03640727 0.03288718 -0.03038000
v -0.03658524 0.03316403 -0.01608817
v -0.03742226 0.03208278 -0.03118918
v -0.03612781 0.03270321 -0.03452566
v -0.03605272 0.03297285 -0.03293686
v -0.03357087 0.03407304 -0.03602209
v -0.03157566 0.03514707 -0.03614402
v -0.03422019 0.03404869 -0.03472149
f 1 2 3
f 1 3 4
f 1 4 5
f 1 5 6
f 1 6 14
f 1 14 28
f 1 28 18
f 1 18 7
f 1 7 2
f 2 7 8
f 2 8 9
f 2 9 10
f 2 10 3
f 3 10 11
f 3 11 4
f 4 11 12
f 4 12 13
f 4 13 5
f 5 13 14
f 5 14 6
f 7 15 16
f 7 16 17
f 7 17 8
f 7 18 15
f 8 19 9
f 8 17 20
f 8 20 19
f 9 19 10
f 10 19 21
f 10 21 22
f 10 22 11
f 11 22 23
f 11 23 24
f 11 24 25
f 11 25 26
f 11 26 12
f 12 27 28
f 12 28 13
f 12 26 29
f 12 29 30
f 12 30 31
f 12 31 27
f 13 28 14
f 15 32 16
f 15 18 32
f 16 20 17
f 16 32 33
f 16 33 34
f 16 34 35
f 16 35 20
f 18 28 31
f 18 31 36
f 18 36 37
f 18 37 32
f 19 20 38
f 19 38 21
f 20 35 39
f 20 39 40
f 20 40 38
f 21 38 41
f 21 41 42
f 21 42 43
f 21 43 22
f 22 43 44
f 22 44 24
f 22 24 23
f 24 44 25
f 25 44 45
f 25 45 46
f 25 46 26
f 26 46 47
f 26 47 29
f 27 31 28
f 29 47 30
f 30 48 31
f 30 47 49
f 30 49 48
f 31 48 36
f 32 37 33
f 33 50 51
f 33 51 52
f 33 52 34
f 33 37 53
f 33 53 54
f 33 54 55
f 33 55 50
f 34 52 40
f 34 40 39
f 34 39 35
f 36 48 53
f 36 53 37
f 38 40 41
f 40 52 56
f 40 56 57
f 40 57 58
f 40 58 41
f 41 58 42
f 42 58 43
f 43 58 57
f 43 57 59
f 43 59 44
f 44 59 45
f 45 60 47
f 45 47 46
f 45 59 61
f 45 61 60
f 47 60 49
f 48 49 62
f 48 62 63
f 48 63 53
f 49 60 64
f 49 64 62
f 50 61 51
f 50 55 64
f 50 64 61
f 51 61 56
f 51 56 52
f 53 63 54
f 54 63 55
f 55 63 62
f 55 62 64
f 56 61 57
f 57 61 59
f 60 61 64

