# https://github.com/mikedh/trimesh
v 0.02912611 0.00561856 0.00915446
v 0.02982453 0.00566115 0.02788328
v 0.02701315 0.00561856 0.03465365
v 0.02690282 0.00561856 0.00934022
v 0.02683204 0.00562226 0.00076862
v 0.02909489 0.00562226 0.00218506
v 0.02908552 0.00731080 0.03465365
v 0.02924165 0.00597034 0.03465365
v 0.02982453 0.00588702 0.02280798
v 0.02982453 0.00620548 0.02639386
v 0.02172763 0.02008222 0.03465365
v 0.01972501 0.01637558 0.00076531
v 0.02040677 0.01522212 0.00076531
v 0.02675398 0.00562226 0.00341574
v 0.02158607 0.01420751 0.00076531
v 0.02462020 0.01293741 0.00076531
v 0.02901162 0.00591294 0.00076862
v 0.02982453 0.00645357 0.02436374
v 0.02888463 0.00828838 0.03465365
v 0.02829550 0.01077304 0.03465365
v 0.02867021 0.00926225 0.03465365
v 0.02172763 0.02453314 0.03465365
v 0.01947103 0.02340375 0.00890567
v 0.01919520 0.02340375 0.00536292
v 0.01919104 0.02340375 0.00438767
v 0.01925766 0.02340375 0.00076862
v 0.02249267 0.02313344 0.00076531
v 0.02317756 0.02202070 0.00076531
v 0.02883467 0.00731636 0.00076862
v 0.02749195 0.01316514 0.00926393
v 0.02715471 0.01419826 0.00926393
v 0.02786354 0.01218571 0.01802792
v 0.02784168 0.01218386 0.03465365
v 0.02877013 0.00828838 0.00244048
v 0.02857862 0.00926410 0.00244048
v 0.02813104 0.01080267 0.00076862
v 0.02771678 0.01218942 0.00076862
v 0.02172763 0.02412767 0.00915446
v 0.02232821 0.02370739 0.03465365
v 0.02350647 0.02161523 0.01317489
v 0.02477737 0.01918611 0.00076862
v 0.02539981 0.01803635 0.00076862
v 0.02594731 0.01683845 0.00076862
v 0.02366573 0.02126901 0.00536292
v 0.02404772 0.02060063 0.00438767
v 0.02849847 0.00936223 0.00111693
v 0.02871289 0.00828838 0.00111693
v 0.02680394 0.01510918 0.00926393
v 0.02619399 0.01663664 0.03465365
v 0.02732437 0.01372613 0.01900981
v 0.02709434 0.01413716 0.00244048
v 0.02675606 0.01510733 0.00341574
v 0.02711828 0.01394461 0.00111693
v 0.02403523 0.02088946 0.03465365
v 0.02456504 0.01998224 0.03465365
v 0.02542167 0.01818076 0.00731342
v 0.02624916 0.01639595 0.00536292
v 0.02611176 0.01672366 0.00633817
v 0.02658952 0.01547392 0.00244048
v 0.02647190 0.01565536 0.00133918
v 0.02497826 0.01900652 0.00828868
v 0.02645108 0.01588309 0.00438767
v 0.02554449 0.01806782 0.03465365
v 0.02510941 0.01896393 0.03465365
f 1 2 3
f 1 3 4
f 1 4 5
f 1 5 6
f 1 6 2
f 2 7 8
f 2 8 3
f 2 6 9
f 2 9 18
f 2 18 10
f 2 10 7
f 3 8 7
f 3 7 19
f 3 19 21
f 3 21 20
f 3 20 33
f 3 33 49
f 3 49 63
f 3 63 64
f 3 64 55
f 3 55 54
f 3 54 39
f 3 39 22
f 3 22 11
f 3 11 12
f 3 12 13
f 3 13 14
f 3 14 4
f 4 14 5
f 5 13 15
f 5 15 16
f 5 16 17
f 5 17 6
f 5 14 13
f 6 17 18
f 6 18 9
f 7 10 19
f 10 18 20
f 10 20 21
f 10 21 19
f 11 22 23
f 11 23 24
f 11 24 12
f 12 24 25
f 12 25 26
f 12 26 27
f 12 27 28
f 12 28 16
f 12 16 15
f 12 15 13
f 16 28 29
f 16 29 17
f 17 29 18
f 18 30 31
f 18 31 32
f 18 32 33
f 18 33 20
f 18 29 34
f 18 34 35
f 18 35 36
f 18 36 37
f 18 37 30
f 22 38 26
f 22 26 25
f 22 25 24
f 22 24 23
f 22 39 27
f 22 27 38
f 26 38 27
f 27 39 40
f 27 40 28
f 28 41 42
f 28 42 43
f 28 43 37
f 28 37 36
f 28 36 29
f 28 40 44
f 28 44 45
f 28 45 41
f 29 36 46
f 29 46 47
f 29 47 34
f 30 37 31
f 31 48 49
f 31 49 50
f 31 50 32
f 31 37 51
f 31 51 52
f 31 52 48
f 32 50 33
f 33 50 49
f 34 47 35
f 35 47 46
f 35 46 36
f 37 43 53
f 37 53 51
f 39 54 40
f 40 54 55
f 40 55 45
f 40 45 44
f 41 45 56
f 41 56 42
f 42 57 43
f 42 56 58
f 42 58 57
f 43 57 59
f 43 59 60
f 43 60 53
f 45 55 61
f 45 61 56
f 48 52 62
f 48 62 57
f 48 57 58
f 48 58 49
f 49 58 63
f 51 53 59
f 51 59 52
f 52 59 62
f 53 60 59
f 55 64 56
f 55 56 61
f 56 64 63
f 56 63 58
f 57 62 59

