# https://github.com/mikedh/trimesh
v 0.02975845 0.00288492 -0.02223871
v 0.02975845 0.00020880 -0.02263084
v 0.02975845 0.00463278 -0.02364599
v 0.02941458 -0.00074814 0.00003592
v 0.02975845 -0.00273750 -0.02499463
v 0.02975845 0.00404110 -0.02691865
v 0.02799966 0.00929825 -0.03217030
v 0.02861513 0.00870658 0.00076522
v 0.02892395 0.00660855 0.00076522
v 0.02934668 0.00197024 -0.00009601
v 0.02931601 -0.00308314 0.00003592
v 0.02975845 -0.00177150 -0.02884633
v 0.02891957 -0.00612151 0.00003959
v 0.02885167 -0.00612151 -0.01679282
v 0.02879911 -0.00612151 -0.02129319
v 0.02975845 0.00189024 -0.02820499
v 0.02843114 0.00414072 -0.03497754
v 0.02803032 0.00760021 -0.03453043
v 0.02775435 0.00928769 -0.03412730
v 0.02555312 0.00929825 -0.03667434
v 0.02574367 0.00928769 0.00028513
v 0.02683224 0.00561689 0.00076522
v 0.02879473 -0.00251109 -0.03411631
v 0.02869179 -0.00030590 -0.03490791
v 0.02659569 -0.00612151 0.00003959
v 0.00833534 -0.00612151 -0.02113194
v 0.02037530 -0.00273750 -0.03590106
v 0.02584004 -0.00273750 -0.03590106
v 0.02838953 -0.00273750 -0.03573981
v 0.02832820 0.00256946 -0.03590106
v 0.02819021 0.00420713 -0.03590106
v 0.02792300 0.00597008 -0.03604033
v 0.02737105 0.00853602 -0.03633351
v 0.02124046 0.00561689 -0.03590106
v 0.01617654 0.00561689 -0.03188811
v 0.01410015 0.00561689 -0.02966725
v 0.01166894 0.00561689 -0.02649720
v 0.01060228 0.00561689 -0.02469778
v 0.00948962 0.00561689 -0.02240362
v 0.00869017 0.00561689 -0.01958539
v 0.00797614 0.00561689 -0.01609651
v 0.00797833 0.00561689 -0.01446934
v 0.02555312 0.00561689 -0.03667434
v 0.00856313 0.00561689 -0.01150818
v 0.00984006 0.00561689 -0.00847740
v 0.01114985 0.00561689 -0.00660469
v 0.01284731 0.00561689 -0.00464768
v 0.01465648 0.00561689 -0.00320375
v 0.01683800 0.00561689 -0.00210798
v 0.01765716 -0.00612151 -0.00145198
v 0.01926045 -0.00612151 -0.00103420
v 0.00798490 -0.00612151 -0.01950477
v 0.01087168 -0.00273750 -0.02535378
v 0.01220556 -0.00273750 -0.02751968
v 0.01419653 -0.00273750 -0.03015467
v 0.01602760 -0.00273750 -0.03200905
v 0.00763883 -0.00612151 -0.01752944
v 0.00738257 -0.00612151 -0.01451332
v 0.00752494 -0.00612151 -0.01255998
v 0.00798928 -0.00612151 -0.01070559
v 0.01002405 -0.00612151 -0.00728634
v 0.01334670 -0.00612151 -0.00396603
v 0.01183103 -0.00612151 -0.00522306
v 0.01544936 -0.00612151 -0.00247813
f 1 2 5
f 1 5 12
f 1 12 16
f 1 16 6
f 1 6 3
f 1 3 4
f 1 4 2
f 2 4 5
f 3 6 7
f 3 7 8
f 3 8 9
f 3 9 10
f 3 10 4
f 4 10 9
f 4 9 11
f 4 11 5
f 5 11 13
f 5 13 14
f 5 14 15
f 5 15 12
f 6 16 17
f 6 17 18
f 6 18 19
f 6 19 7
f 7 19 20
f 7 20 21
f 7 21 8
f 8 21 22
f 8 22 9
f 9 22 13
f 9 13 11
f 12 15 23
f 12 23 24
f 12 24 16
f 13 22 25
f 13 25 51
f 13 51 50
f 13 50 64
f 13 64 62
f 13 62 63
f 13 63 61
f 13 61 60
f 13 60 59
f 13 59 58
f 13 58 57
f 13 57 52
f 13 52 26
f 13 26 15
f 13 15 14
f 15 26 27
f 15 27 28
f 15 28 29
f 15 29 23
f 16 24 17
f 17 24 30
f 17 30 31
f 17 31 32
f 17 32 18
f 18 32 33
f 18 33 19
f 19 33 20
f 20 27 34
f 20 34 35
f 20 35 36
f 20 36 37
f 20 37 38
f 20 38 39
f 20 39 40
f 20 40 41
f 20 41 42
f 20 42 21
f 20 33 43
f 20 43 27
f 21 42 44
f 21 44 45
f 21 45 46
f 21 46 47
f 21 47 48
f 21 48 49
f 21 49 22
f 22 49 50
f 22 50 51
f 22 51 25
f 23 29 24
f 24 29 30
f 26 52 40
f 26 40 39
f 26 39 38
f 26 38 53
f 26 53 54
f 26 54 55
f 26 55 56
f 26 56 27
f 27 56 35
f 27 35 34
f 27 43 28
f 28 43 29
f 29 43 33
f 29 33 30
f 30 33 32
f 30 32 31
f 35 56 55
f 35 55 36
f 36 55 37
f 37 53 38
f 37 55 54
f 37 54 53
f 40 52 41
f 41 52 57
f 41 57 58
f 41 58 42
f 42 59 44
f 42 58 59
f 44 60 45
f 44 59 60
f 45 61 46
f 45 60 61
f 46 61 47
f 47 62 48
f 47 61 63
f 47 63 62
f 48 64 49
f 48 62 64
f 49 64 50

