# https://github.com/mikedh/trimesh
v 0.02495074 0.01889752 0.00017519
v 0.02493008 0.01893506 -0.00135670
v 0.02450367 0.01973047 -0.00146298
v 0.02297836 0.02235099 0.00062596
v 0.02025834 0.01885997 0.00076522
v 0.02488688 0.01885997 -0.00828683
v 0.02469339 0.01937031 -0.00243781
v 0.02443416 0.01961505 -0.01316101
v 0.02298211 0.02236420 -0.00438748
v 0.01975867 0.02267986 0.00076522
v 0.01498926 0.02596159 -0.00161690
v 0.00604966 0.02589276 -0.00100488
v 0.00576225 0.02485888 -0.00121011
v 0.01639247 0.01885997 0.00000294
v 0.01459478 0.01885928 -0.00039286
v 0.01272195 0.01885858 -0.00088760
v 0.02443792 0.01912696 -0.02924213
v 0.01456472 0.01885858 -0.03321110
v 0.02454687 0.01885997 -0.03070438
v 0.02396267 0.01998563 -0.02973321
v 0.02340289 0.02098128 -0.03021697
v 0.02242233 0.02259573 -0.02778354
v 0.01498926 0.02596159 -0.03572882
v 0.02281869 0.02193451 -0.02973321
v 0.01121355 0.02596159 -0.00121744
v 0.01023863 0.02596159 -0.00112582
v 0.00926371 0.02596159 -0.00104519
v 0.00764071 0.02596159 -0.00097556
v 0.00823243 0.02596159 -0.03319278
v 0.00578479 0.02578082 -0.03203470
v 0.00576225 0.02388409 -0.00145931
v 0.00576225 0.02443823 -0.03130907
v 0.01121355 0.01885858 -0.00133471
v 0.01216781 0.01885858 -0.03200539
v 0.02052696 0.01885997 -0.03667434
v 0.02446798 0.01885997 -0.03265772
v 0.02451494 0.01885997 -0.03168289
v 0.02337847 0.02093609 -0.03168289
v 0.02253880 0.02230719 -0.03070438
v 0.02196962 0.02267986 -0.03438384
v 0.02148310 0.02267082 -0.03605865
v 0.01780883 0.02229467 -0.03667434
v 0.01045465 0.02596159 -0.03409066
v 0.02261581 0.02209791 -0.03233155
v 0.00576225 0.02266247 -0.00185877
v 0.01094868 0.01885858 -0.03128709
v 0.00935575 0.01885858 -0.03018032
v 0.00576225 0.02331257 -0.03057245
v 0.00980470 0.01885858 -0.00184045
v 0.02337096 0.01947391 -0.03624922
v 0.02391195 0.01893506 -0.03554191
v 0.02385748 0.01998563 -0.03265772
v 0.02426886 0.01893506 -0.03420060
v 0.02377482 0.01998563 -0.03362889
v 0.02335217 0.02089228 -0.03265772
v 0.02245051 0.02174192 -0.03492256
v 0.02245427 0.02216535 -0.03357392
v 0.00584115 0.02007115 -0.00297654
v 0.00576225 0.02229676 -0.02982117
v 0.00856867 0.01885858 -0.02952799
v 0.00709220 0.01913947 -0.00287392
v 0.00601584 0.01888431 -0.00352259
v 0.00607783 0.01885858 -0.02734743
v 0.02327891 0.02065589 -0.03417861
f 1 2 3
f 1 3 4
f 1 4 5
f 1 5 6
f 1 6 2
f 2 6 7
f 2 7 3
f 3 7 8
f 3 8 9
f 3 9 4
f 4 10 5
f 4 9 11
f 4 11 10
f 5 10 12
f 5 12 13
f 5 13 14
f 5 14 15
f 5 15 16
f 5 16 6
f 6 17 8
f 6 8 7
f 6 16 18
f 6 18 19
f 6 19 17
f 8 17 20
f 8 20 21
f 8 21 9
f 9 22 23
f 9 23 11
f 9 21 24
f 9 24 22
f 10 11 25
f 10 25 26
f 10 26 27
f 10 27 28
f 10 28 12
f 11 23 43
f 11 43 29
f 11 29 28
f 11 28 27
f 11 27 26
f 11 26 25
f 12 28 29
f 12 29 30
f 12 30 13
f 13 31 16
f 13 16 15
f 13 15 14
f 13 30 32
f 13 32 48
f 13 48 59
f 13 59 45
f 13 45 31
f 16 31 33
f 16 33 49
f 16 49 63
f 16 63 60
f 16 60 47
f 16 47 46
f 16 46 34
f 16 34 18
f 17 19 20
f 18 34 35
f 18 35 36
f 18 36 37
f 18 37 19
f 19 37 21
f 19 21 20
f 21 37 38
f 21 38 24
f 22 24 39
f 22 39 40
f 22 40 23
f 23 40 41
f 23 41 42
f 23 42 43
f 24 38 44
f 24 44 39
f 29 43 42
f 29 42 30
f 30 42 35
f 30 35 34
f 30 34 32
f 31 45 33
f 32 34 46
f 32 46 47
f 32 47 48
f 33 45 49
f 35 42 50
f 35 50 51
f 35 51 36
f 36 52 37
f 36 51 53
f 36 53 54
f 36 54 52
f 37 52 38
f 38 52 55
f 38 55 44
f 39 44 40
f 40 56 41
f 40 44 57
f 40 57 56
f 41 50 42
f 41 56 50
f 44 55 57
f 45 58 49
f 45 59 58
f 47 59 48
f 47 60 59
f 49 58 61
f 49 61 62
f 49 62 63
f 50 56 51
f 51 56 64
f 51 64 53
f 52 54 55
f 53 64 54
f 54 64 57
f 54 57 55
f 56 57 64
f 58 59 63
f 58 63 62
f 58 62 61
f 59 60 63

