# https://github.com/mikedh/trimesh
v -0.02775131 -0.01329003 -0.01053061
v -0.02795078 -0.01401772 -0.00905065
v -0.02783258 -0.01401772 -0.02177449
v -0.02775131 -0.01243478 -0.01831868
v -0.02775131 -0.01223576 -0.01224122
v -0.03121113 -0.00616756 -0.01144165
v -0.03285116 -0.00616756 -0.00796278
v -0.02937903 -0.01401772 -0.00694794
v -0.02921897 -0.01401772 -0.02438845
v -0.03368103 -0.00616756 -0.02439998
v -0.03278714 -0.00616756 -0.02239723
v -0.03203115 -0.00616756 -0.02042522
v -0.03152141 -0.00616756 -0.01859930
v -0.03103630 -0.00616756 -0.01599302
v -0.02775131 -0.01177855 -0.01528187
v -0.02775131 -0.01171708 -0.01374809
v -0.03091317 -0.00616756 -0.01365199
v -0.03402332 -0.00616756 -0.00630599
v -0.03532844 -0.00616756 -0.00481834
v -0.03079990 -0.01401772 -0.00546029
v -0.03043791 -0.01401772 -0.02640658
v -0.03486057 -0.00616756 -0.02632586
v -0.03656955 -0.00616756 -0.00357286
v -0.03203854 -0.01401772 -0.00431476
v -0.03191295 -0.01401772 -0.02825558
v -0.03648090 -0.00616756 -0.02848238
v -0.03785744 -0.00616756 -0.00251574
v -0.03409719 -0.01401772 -0.00287708
v -0.03334120 -0.01401772 -0.02983549
v -0.03816033 -0.00616756 -0.03033522
v -0.05290828 -0.00625362 0.00259686
v -0.04113996 -0.00618907 -0.00051683
v -0.04798327 -0.00616756 -0.03667023
v -0.03608936 -0.01401772 -0.00182381
v -0.03474729 -0.01401772 -0.03088876
v -0.03999243 -0.00616756 -0.03185746
v -0.05249212 -0.00853045 -0.00158548
v -0.05245272 -0.00870334 0.00255842
v -0.04803744 -0.01401542 0.00260070
v -0.04992619 -0.00679536 0.00260070
v -0.05159576 -0.00628282 -0.03616281
v -0.05209073 -0.00651796 -0.03384484
v -0.05228527 -0.00678229 -0.03045823
v -0.04186886 -0.00779507 0.00001749
v -0.03770969 -0.01401772 -0.00105884
v -0.04343748 -0.00616756 -0.03410239
v -0.03870454 -0.01401772 -0.03333358
v -0.04017466 -0.01401772 -0.03414084
v -0.04636294 -0.01401772 -0.03667023
v -0.05118206 -0.00783810 -0.03661257
v -0.05162285 -0.01154265 -0.00536419
v -0.05121161 -0.01335150 0.00199719
v -0.05191343 -0.00875943 -0.02948183
v -0.05148495 -0.01023633 -0.03168064
v -0.05080284 -0.01401772 -0.00868546
v -0.05165733 -0.00792109 -0.03495578
v -0.05167703 -0.00881092 -0.03368339
v -0.05183216 -0.00869796 -0.03216499
v -0.04979813 -0.01352440 -0.03615897
v -0.05101461 -0.00983906 -0.03578225
v -0.05131996 -0.01243632 -0.00731313
v -0.05129041 -0.01066819 -0.03316829
v -0.05032265 -0.01349135 -0.03339893
v -0.05078560 -0.01149961 -0.03489043
f 1 2 3
f 1 3 4
f 1 4 15
f 1 15 16
f 1 16 5
f 1 5 6
f 1 6 2
f 2 6 7
f 2 7 8
f 2 8 20
f 2 20 24
f 2 24 28
f 2 28 34
f 2 34 45
f 2 45 55
f 2 55 49
f 2 49 48
f 2 48 47
f 2 47 35
f 2 35 29
f 2 29 25
f 2 25 21
f 2 21 9
f 2 9 3
f 3 9 10
f 3 10 11
f 3 11 12
f 3 12 4
f 4 13 14
f 4 14 15
f 4 12 13
f 5 16 6
f 6 16 17
f 6 17 14
f 6 14 13
f 6 13 12
f 6 12 11
f 6 11 10
f 6 10 22
f 6 22 26
f 6 26 30
f 6 30 36
f 6 36 46
f 6 46 33
f 6 33 27
f 6 27 23
f 6 23 19
f 6 19 18
f 6 18 7
f 7 18 8
f 8 18 19
f 8 19 20
f 9 21 10
f 10 21 22
f 14 17 15
f 15 17 16
f 19 23 20
f 20 23 24
f 21 25 26
f 21 26 22
f 23 27 24
f 24 27 28
f 25 29 26
f 26 29 30
f 27 31 32
f 27 32 28
f 27 33 31
f 28 32 34
f 29 35 36
f 29 36 30
f 31 37 38
f 31 38 39
f 31 39 40
f 31 40 32
f 31 33 41
f 31 41 42
f 31 42 43
f 31 43 37
f 32 40 44
f 32 44 45
f 32 45 34
f 33 46 47
f 33 47 48
f 33 48 49
f 33 49 50
f 33 50 41
f 35 47 46
f 35 46 36
f 37 51 52
f 37 52 38
f 37 43 53
f 37 53 54
f 37 54 51
f 38 52 39
f 39 45 44
f 39 44 40
f 39 52 55
f 39 55 45
f 41 50 56
f 41 56 42
f 42 56 57
f 42 57 58
f 42 58 43
f 43 58 53
f 49 59 50
f 49 55 59
f 50 59 60
f 50 60 56
f 51 54 61
f 51 61 52
f 52 61 55
f 53 58 54
f 54 58 62
f 54 62 63
f 54 63 55
f 54 55 61
f 55 63 59
f 56 60 64
f 56 64 57
f 57 62 58
f 57 64 62
f 59 64 60
f 59 63 64
f 62 64 63

