# https://github.com/mikedh/trimesh
v -0.04470829 0.00053226 -0.03863886
v -0.04470829 0.00536719 -0.04083195
v -0.04462494 0.00121246 -0.04081172
v -0.00768953 0.00053226 -0.03922586
v -0.03654793 0.00053226 -0.03747131
v -0.04470829 0.01777254 -0.03656198
v -0.04457421 0.01383106 -0.04062452
v -0.04453073 0.01048155 -0.04083324
v -0.03637399 0.02204492 -0.04095589
v -0.00769315 0.03336195 -0.04090726
v -0.00768953 0.00829020 -0.03671690
v -0.00847947 0.00123452 -0.03680297
v -0.01609267 0.00053226 -0.03673627
v -0.00768953 0.03188758 -0.03839399
v -0.03363092 0.00053226 -0.03730089
v -0.04158474 0.02671072 -0.03686150
v -0.04432781 0.02315530 -0.03701557
v -0.04448000 0.02073600 -0.03883769
v -0.02846004 0.00053226 -0.03702202
v -0.02631486 0.00099921 -0.03690626
v -0.02047723 0.00053226 -0.03674402
v -0.01511792 0.00341483 -0.03668291
v -0.01219367 0.00438917 -0.03667602
v -0.00863166 0.01111762 -0.03663428
v -0.02198465 0.03626659 -0.03656284
v -0.03256921 0.03067425 -0.03656198
v -0.04389298 0.01807403 -0.04018857
v -0.04166808 0.01901528 -0.04067272
v -0.04288924 0.01584960 -0.04078719
v -0.03509123 0.02631730 -0.04074588
v -0.02875717 0.02972933 -0.04088574
v -0.02170926 0.03211186 -0.04095804
v -0.01000501 0.03461940 -0.04089435
v -0.00769315 0.03463779 -0.03817709
v -0.00768953 0.01541574 -0.03672422
v -0.00768953 0.02817038 -0.03782033
v -0.04163909 0.02448628 -0.03895776
v -0.03328668 0.03382155 -0.03679824
v -0.03819304 0.02982124 -0.03719804
v -0.03974395 0.02747916 -0.03830534
v -0.04316101 0.02221037 -0.03913678
v -0.02445233 0.03809025 -0.03678017
v -0.00772576 0.02151547 -0.03704828
v -0.03900473 0.02586874 -0.03984859
v -0.03901923 0.02386491 -0.04045237
v -0.03467452 0.02819612 -0.04043731
v -0.03081901 0.02997199 -0.04063915
v -0.02680767 0.03216701 -0.04070241
v -0.02245210 0.03362668 -0.04077686
v -0.01745514 0.03449439 -0.04086379
v -0.02223830 0.03535107 -0.04018986
v -0.02241224 0.03795054 -0.03807553
v -0.02843829 0.03634747 -0.03693596
v -0.03103642 0.03417819 -0.03812760
v -0.03347873 0.03217069 -0.03880541
v -0.03501877 0.03229570 -0.03736244
v -0.03639211 0.03079926 -0.03795331
v -0.03388095 0.03043526 -0.03987613
v -0.02436174 0.03700561 -0.03848910
v -0.02913403 0.03278470 -0.04017738
v -0.02510820 0.03338402 -0.04058105
v -0.01965830 0.03433262 -0.04079537
v -0.02414795 0.03565625 -0.03967559
v -0.02667722 0.03559007 -0.03899649
f 1 2 3
f 1 3 4
f 1 4 13
f 1 13 21
f 1 21 19
f 1 19 15
f 1 15 5
f 1 5 6
f 1 6 2
f 2 6 7
f 2 7 8
f 2 8 9
f 2 9 3
f 3 9 10
f 3 10 4
f 4 11 12
f 4 12 13
f 4 10 14
f 4 14 36
f 4 36 35
f 4 35 11
f 5 15 6
f 6 16 17
f 6 17 18
f 6 18 7
f 6 15 19
f 6 19 20
f 6 20 21
f 6 21 22
f 6 22 23
f 6 23 24
f 6 24 25
f 6 25 26
f 6 26 16
f 7 18 27
f 7 27 28
f 7 28 29
f 7 29 8
f 8 29 9
f 9 29 28
f 9 28 30
f 9 30 31
f 9 31 32
f 9 32 10
f 10 32 33
f 10 33 34
f 10 34 14
f 11 35 24
f 11 24 12
f 12 24 23
f 12 23 13
f 13 23 22
f 13 22 21
f 14 34 36
f 16 37 17
f 16 26 38
f 16 38 39
f 16 39 40
f 16 40 37
f 17 37 41
f 17 41 18
f 18 41 27
f 19 21 20
f 24 35 25
f 25 34 42
f 25 42 38
f 25 38 26
f 25 35 43
f 25 43 34
f 27 41 44
f 27 44 45
f 27 45 28
f 28 45 30
f 30 45 46
f 30 46 47
f 30 47 31
f 31 47 48
f 31 48 49
f 31 49 32
f 32 49 50
f 32 50 33
f 33 50 51
f 33 51 52
f 33 52 34
f 34 52 42
f 34 43 35
f 34 35 36
f 37 40 44
f 37 44 41
f 38 42 53
f 38 53 54
f 38 54 55
f 38 55 56
f 38 56 39
f 39 56 57
f 39 57 40
f 40 57 58
f 40 58 44
f 42 52 59
f 42 59 53
f 44 58 46
f 44 46 45
f 46 58 60
f 46 60 47
f 47 60 48
f 48 60 61
f 48 61 49
f 49 61 51
f 49 51 62
f 49 62 50
f 50 62 51
f 51 63 52
f 51 61 60
f 51 60 63
f 52 63 59
f 53 59 64
f 53 64 54
f 54 64 55
f 55 64 60
f 55 60 58
f 55 58 57
f 55 57 56
f 59 63 64
f 60 64 63

