# https://github.com/mikedh/trimesh
v -0.02386648 0.01753587 -0.01377264
v -0.01429528 0.02174894 -0.01413994
v -0.01429528 0.02176566 -0.01274846
v -0.01429528 0.02184558 -0.01129694
v -0.02386648 0.01762693 -0.01219045
v -0.02386648 0.01759162 -0.01490631
v -0.01429528 0.02184558 -0.01511468
v -0.01429528 0.02203514 -0.01024450
v -0.02386648 0.01785552 -0.01112035
v -0.02386648 0.01784065 -0.01610002
v -0.01429528 0.02238452 -0.01843799
v -0.01429528 0.02204257 -0.01661565
v -0.02386648 0.01832570 -0.00978891
v -0.01429528 0.02239753 -0.00929801
v -0.02386648 0.01848924 -0.01803185
v -0.01429528 0.02290303 -0.01998133
v -0.01429528 0.02287701 -0.00835858
v -0.02386648 0.01937200 -0.00807958
v -0.02386648 0.01887394 -0.01902425
v -0.01429528 0.02380065 -0.02199792
v -0.01429528 0.02343826 -0.00746507
v -0.02386648 0.01995369 -0.00730967
v -0.02386648 0.01981059 -0.02097727
v -0.01429528 0.02433959 -0.02300798
v -0.01429528 0.02428942 -0.00637025
v -0.02386648 0.02058184 -0.00654683
v -0.02386648 0.02027334 -0.02181075
v -0.01429528 0.02492686 -0.02388031
v -0.02386461 0.02094795 -0.02293029
v -0.01429528 0.02496775 -0.00561094
v -0.02386648 0.02131592 -0.00575573
v -0.02386648 0.02164115 -0.02391209
v -0.01429528 0.02548253 -0.02466787
v -0.01429528 0.02571298 -0.00489401
v -0.01429528 0.02707150 -0.00385216
v -0.02386648 0.02389729 -0.00391926
v -0.02386648 0.02265028 -0.02507048
v -0.01429528 0.02638016 -0.02581567
v -0.01429528 0.02840771 -0.00293039
v -0.02386648 0.02487854 -0.00335773
v -0.02386648 0.02336949 -0.02586158
v -0.01429528 0.02959525 -0.02936500
v -0.01429528 0.02972906 -0.00229469
v -0.02386648 0.02717928 -0.00221346
v -0.02386648 0.02602705 -0.00277500
v -0.02386648 0.02408685 -0.02658557
v -0.02386648 0.02584307 -0.02824546
v -0.01429528 0.03060995 -0.03029030
v -0.01429528 0.03081252 -0.00186736
v -0.02386648 0.03530994 0.00108513
v -0.02386648 0.02690238 -0.02915664
v -0.01435149 0.03651792 -0.03496271
v -0.01429528 0.03651792 -0.00082198
v -0.01429528 0.03168041 -0.00156363
v -0.01429528 0.03265423 -0.00133760
v -0.01429528 0.03558684 -0.00092440
v -0.02019483 0.03651792 0.00022693
v -0.02019483 0.03651792 -0.03421047
v -0.02386648 0.03530622 -0.03365600
v -0.02386648 0.02786505 -0.02989476
v -0.02386648 0.02870320 -0.03047749
v -0.01567999 0.03651792 -0.03499450
v -0.02386648 0.03228069 -0.03249407
v -0.02386648 0.02956551 -0.03099664
f 1 2 3
f 1 3 4
f 1 4 5
f 1 5 9
f 1 9 13
f 1 13 18
f 1 18 22
f 1 22 26
f 1 26 31
f 1 31 36
f 1 36 40
f 1 40 45
f 1 45 44
f 1 44 50
f 1 50 59
f 1 59 63
f 1 63 64
f 1 64 61
f 1 61 60
f 1 60 51
f 1 51 47
f 1 47 46
f 1 46 41
f 1 41 37
f 1 37 32
f 1 32 27
f 1 27 23
f 1 23 19
f 1 19 15
f 1 15 10
f 1 10 6
f 1 6 2
f 2 6 7
f 2 7 12
f 2 12 11
f 2 11 16
f 2 16 20
f 2 20 24
f 2 24 28
f 2 28 33
f 2 33 38
f 2 38 42
f 2 42 48
f 2 48 53
f 2 53 56
f 2 56 55
f 2 55 54
f 2 54 49
f 2 49 43
f 2 43 39
f 2 39 35
f 2 35 34
f 2 34 30
f 2 30 25
f 2 25 21
f 2 21 17
f 2 17 14
f 2 14 8
f 2 8 4
f 2 4 3
f 4 8 5
f 5 8 9
f 6 10 11
f 6 11 12
f 6 12 7
f 8 13 9
f 8 14 13
f 10 15 11
f 11 15 16
f 13 14 17
f 13 17 18
f 15 19 16
f 16 19 20
f 17 21 18
f 18 21 22
f 19 23 20
f 20 23 24
f 21 25 22
f 22 25 26
f 23 27 24
f 24 27 29
f 24 29 28
f 25 30 26
f 26 30 31
f 27 32 29
f 28 29 33
f 29 32 33
f 30 34 31
f 31 34 35
f 31 35 36
f 32 37 38
f 32 38 33
f 35 39 36
f 36 39 40
f 37 41 42
f 37 42 38
f 39 43 44
f 39 44 45
f 39 45 40
f 41 46 42
f 42 46 47
f 42 47 48
f 43 49 50
f 43 50 44
f 47 51 48
f 48 51 52
f 48 52 53
f 49 54 50
f 50 54 55
f 50 55 56
f 50 56 53
f 50 53 57
f 50 57 58
f 50 58 59
f 51 60 52
f 52 60 61
f 52 61 62
f 52 62 58
f 52 58 57
f 52 57 53
f 58 62 59
f 59 62 63
f 61 64 62
f 62 64 63

