# https://github.com/mikedh/trimesh
v -0.05340535 0.00049808 0.00824925
v -0.05132120 0.00053084 0.00824704
v -0.05340218 0.00050805 0.00733363
v -0.05343066 -0.00048881 0.00731096
v -0.05342011 -0.00050733 0.00824925
v -0.04855343 -0.01401630 0.00824925
v -0.05108963 0.00053084 0.00438716
v -0.05337475 0.00053084 0.00341293
v -0.04804228 -0.01401487 0.00260181
v -0.05342697 -0.00048881 0.00633563
v -0.05340587 -0.00146432 0.00536250
v -0.05340693 -0.00146432 0.00633563
v -0.05340324 -0.00146432 0.00731096
v -0.05338266 -0.00146432 0.00824925
v -0.05096303 -0.01401630 0.00824925
v -0.05100260 -0.01401630 0.00260071
v -0.05109491 0.00053084 0.00336759
v -0.05110388 0.00053084 0.00260071
v -0.05336895 0.00051232 0.00260071
v -0.05341009 -0.00048881 0.00438716
v -0.05339849 -0.00146432 0.00438716
v -0.05333835 -0.00243840 0.00536250
v -0.05333730 -0.00243840 0.00633563
v -0.05326661 -0.00341391 0.00633563
v -0.05333044 -0.00243840 0.00731096
v -0.05318327 -0.00438799 0.00731096
v -0.05308621 -0.00536349 0.00824925
v -0.05124155 -0.01317750 0.00824925
v -0.05098625 -0.01401630 0.00737012
v -0.05130696 -0.01306785 0.00260071
v -0.05337950 -0.00048881 0.00260071
v -0.05339902 -0.00048881 0.00341293
v -0.05338372 -0.00146432 0.00341293
v -0.05331462 -0.00235723 0.00260071
v -0.05332833 -0.00243840 0.00438716
v -0.05326134 -0.00341391 0.00536250
v -0.05319276 -0.00438799 0.00633563
v -0.05309729 -0.00536349 0.00731096
v -0.05293218 -0.00635466 0.00824925
v -0.05125738 -0.01315899 0.00731096
v -0.05175797 -0.01147429 0.00824925
v -0.05185134 -0.01120940 0.00731096
v -0.05184501 -0.01120940 0.00633563
v -0.05210243 -0.01023390 0.00536250
v -0.05235510 -0.00916156 0.00260071
v -0.05336895 -0.00138172 0.00260071
v -0.05318221 -0.00438799 0.00536250
v -0.05304454 -0.00536349 0.00260071
v -0.05306722 -0.00536349 0.00341293
v -0.05308568 -0.00536349 0.00438716
v -0.05309412 -0.00536349 0.00536250
v -0.05310098 -0.00536349 0.00633563
v -0.05294220 -0.00633757 0.00438716
v -0.05256979 -0.00819887 0.00332336
v -0.05260513 -0.00800804 0.00428377
v -0.05233611 -0.00925982 0.00536250
v -0.05210612 -0.01023390 0.00731096
v -0.05207711 -0.01023390 0.00824925
v -0.05211034 -0.01023390 0.00633563
v -0.05233664 -0.00925982 0.00341293
v -0.05256452 -0.00819744 0.00260071
v -0.05290370 -0.00633757 0.00260071
v -0.05293060 -0.00633757 0.00341293
v -0.05233875 -0.00925982 0.00438716
f 1 2 3
f 1 3 4
f 1 4 5
f 1 5 14
f 1 14 27
f 1 27 39
f 1 39 58
f 1 58 41
f 1 41 28
f 1 28 15
f 1 15 6
f 1 6 2
f 2 7 17
f 2 17 18
f 2 18 8
f 2 8 3
f 2 6 9
f 2 9 7
f 3 8 10
f 3 10 4
f 4 10 11
f 4 11 12
f 4 12 13
f 4 13 5
f 5 13 14
f 6 15 29
f 6 29 16
f 6 16 9
f 7 9 17
f 8 18 19
f 8 19 10
f 9 16 18
f 9 18 17
f 10 19 20
f 10 20 21
f 10 21 11
f 11 21 22
f 11 22 12
f 12 22 23
f 12 23 13
f 13 23 24
f 13 24 25
f 13 25 14
f 14 25 26
f 14 26 27
f 15 28 29
f 16 29 30
f 16 30 45
f 16 45 61
f 16 61 62
f 16 62 48
f 16 48 34
f 16 34 46
f 16 46 31
f 16 31 19
f 16 19 18
f 19 31 32
f 19 32 20
f 20 32 21
f 21 32 33
f 21 33 34
f 21 34 35
f 21 35 22
f 22 35 36
f 22 36 37
f 22 37 24
f 22 24 23
f 24 37 26
f 24 26 25
f 26 37 38
f 26 38 27
f 27 38 39
f 28 40 29
f 28 41 42
f 28 42 40
f 29 40 30
f 30 40 42
f 30 42 43
f 30 43 44
f 30 44 45
f 31 46 32
f 32 46 33
f 33 46 34
f 34 47 36
f 34 36 35
f 34 48 49
f 34 49 50
f 34 50 47
f 36 47 37
f 37 47 50
f 37 50 51
f 37 51 52
f 37 52 38
f 38 52 39
f 39 52 53
f 39 53 54
f 39 54 55
f 39 55 56
f 39 56 57
f 39 57 58
f 41 58 57
f 41 57 42
f 42 57 59
f 42 59 43
f 43 59 44
f 44 59 60
f 44 60 45
f 45 54 61
f 45 60 54
f 48 62 63
f 48 63 49
f 49 63 50
f 50 63 53
f 50 53 51
f 51 53 52
f 53 63 61
f 53 61 54
f 54 60 64
f 54 64 56
f 54 56 55
f 56 64 59
f 56 59 57
f 59 64 60
f 61 63 62

