# https://github.com/mikedh/trimesh
v 0.02254058 0.02302080 -0.00439115
v 0.02203131 0.02372332 -0.00018030
v 0.01922867 0.02268292 -0.00018030
v 0.02236315 0.02268292 -0.02777621
v 0.02044435 0.02531420 -0.03114049
v 0.02109654 0.02489747 -0.00536598
v 0.02060863 0.02552678 -0.00536598
v 0.02056099 0.02560844 -0.00032323
v 0.01115916 0.03418508 0.00076522
v 0.01118545 0.03124126 0.00076522
v 0.00575759 0.03387253 0.00076522
v 0.00575759 0.02638839 -0.00089860
v 0.01501649 0.02268292 -0.00080331
v 0.02228266 0.02268292 -0.03070438
v 0.01933873 0.02674739 -0.03045518
v 0.02176189 0.02327140 -0.03297289
v 0.01973794 0.02593083 -0.03331738
v 0.01840233 0.02772866 -0.03215564
v 0.01990879 0.02635741 -0.00707744
v 0.01904631 0.02733024 -0.00092425
v 0.01692215 0.02949130 -0.00074101
v 0.01512820 0.03108639 -0.00074101
v 0.01354946 0.03239429 -0.00074101
v 0.01263441 0.03311229 -0.00439115
v 0.01260155 0.03308977 -0.01219350
v 0.01168651 0.03365150 -0.02485170
v 0.01092917 0.03425688 -0.01121133
v 0.00972170 0.03507625 -0.00536232
v 0.00901036 0.03555633 0.00027780
v 0.00647714 0.03688956 0.00076522
v 0.00639664 0.03699797 -0.00135303
v 0.00579209 0.03706554 -0.02983216
v 0.00575759 0.03682902 -0.03310483
v 0.00575759 0.02596462 -0.03211900
v 0.01498692 0.02268292 -0.01618813
v 0.01756285 0.02268292 -0.03667067
v 0.02095033 0.02361351 -0.03560055
v 0.01776985 0.02849876 -0.02948034
v 0.01873254 0.02633911 -0.03579845
v 0.01715543 0.02833686 -0.03517544
v 0.01662645 0.02954620 -0.03180016
v 0.01790456 0.02850439 -0.01195162
v 0.01593154 0.03029800 -0.02753067
v 0.01482428 0.03136655 -0.00926533
v 0.01439058 0.03169740 -0.01462692
v 0.01501978 0.03110892 -0.02484804
v 0.01199207 0.03335304 -0.03118814
v 0.00983670 0.03480594 -0.02985782
v 0.00881322 0.03532262 -0.03222894
v 0.00723776 0.03602514 -0.03411631
v 0.00617979 0.03614340 -0.03587908
v 0.00575759 0.03318973 -0.03667434
v 0.01498692 0.02268292 -0.03450844
v 0.00795075 0.03145525 -0.03667434
v 0.01509206 0.02596322 -0.03667434
v 0.01068275 0.03317987 -0.03656073
v 0.01537955 0.02959688 -0.03623456
v 0.01440536 0.03122154 -0.03383778
v 0.01501813 0.03101881 -0.03079600
v 0.01214157 0.03310666 -0.03314147
v 0.01056446 0.03428644 -0.03218130
v 0.01100474 0.03365291 -0.03460006
v 0.00830231 0.03487633 -0.03607331
v 0.01268041 0.03188746 -0.03616859
f 1 2 3
f 1 3 4
f 1 4 5
f 1 5 6
f 1 6 2
f 2 6 7
f 2 7 8
f 2 8 9
f 2 9 10
f 2 10 3
f 3 10 11
f 3 11 12
f 3 12 13
f 3 13 35
f 3 35 53
f 3 53 36
f 3 36 14
f 3 14 4
f 4 14 5
f 5 15 7
f 5 7 6
f 5 14 16
f 5 16 17
f 5 17 18
f 5 18 15
f 7 19 8
f 7 15 19
f 8 20 21
f 8 21 9
f 8 19 20
f 9 21 22
f 9 22 23
f 9 23 24
f 9 24 25
f 9 25 26
f 9 26 27
f 9 27 28
f 9 28 29
f 9 29 30
f 9 30 11
f 9 11 10
f 11 30 31
f 11 31 32
f 11 32 33
f 11 33 52
f 11 52 34
f 11 34 12
f 12 34 13
f 13 34 35
f 14 36 37
f 14 37 16
f 15 18 38
f 15 38 19
f 16 37 17
f 17 37 39
f 17 39 40
f 17 40 18
f 18 41 38
f 18 40 41
f 19 38 42
f 19 42 20
f 20 42 21
f 21 42 43
f 21 43 44
f 21 44 22
f 22 44 23
f 23 44 24
f 24 44 45
f 24 45 25
f 25 45 46
f 25 46 47
f 25 47 26
f 26 47 48
f 26 48 27
f 27 48 28
f 28 48 29
f 29 31 30
f 29 48 32
f 29 32 31
f 32 48 49
f 32 49 50
f 32 50 33
f 33 50 51
f 33 51 52
f 34 52 36
f 34 36 53
f 34 53 35
f 36 52 54
f 36 54 55
f 36 55 56
f 36 56 57
f 36 57 37
f 37 57 39
f 38 43 42
f 38 41 43
f 39 57 40
f 40 57 58
f 40 58 41
f 41 58 59
f 41 59 43
f 43 46 44
f 43 59 46
f 44 46 45
f 46 59 47
f 47 59 60
f 47 60 61
f 47 61 48
f 48 61 49
f 49 61 50
f 50 62 63
f 50 63 51
f 50 61 62
f 51 63 56
f 51 56 52
f 52 56 55
f 52 55 54
f 56 63 62
f 56 62 64
f 56 64 57
f 57 64 58
f 58 64 62
f 58 62 60
f 58 60 59
f 60 62 61

