# https://github.com/mikedh/trimesh
v -0.02773640 0.02034124 -0.00435274
v -0.02932700 0.02255214 -0.00251656
v -0.03705480 0.01007464 -0.00222100
v -0.03447248 0.01007464 -0.00429363
v -0.02773640 0.01802164 -0.00595985
v -0.02773640 0.01908677 -0.02467998
v -0.02852691 0.02243487 -0.02838558
v -0.03417064 0.02255214 -0.00087989
v -0.03986469 0.01007464 -0.00066561
v -0.03139429 0.02255214 -0.03056165
v -0.03238123 0.01007464 -0.00669876
v -0.02773640 0.01637263 -0.00758175
v -0.02773640 0.01747930 -0.02261844
v -0.03192609 0.01007464 -0.02162831
v -0.03359094 0.01007464 -0.02491273
v -0.03629783 0.01007464 -0.02842622
v -0.03833877 0.01007464 -0.03058751
v -0.04095702 0.01007464 -0.03260842
v -0.04362079 0.02255214 0.00118535
v -0.03775667 0.02190353 -0.00007449
v -0.03892327 0.01869712 0.00001418
v -0.04142893 0.01364993 0.00026541
v -0.04302671 0.01078554 0.00040580
v -0.04905852 0.01007464 0.00118535
v -0.04312014 0.01007464 -0.03397539
v -0.04731222 0.01010762 -0.03655786
v -0.04158703 0.02255214 -0.03655786
v -0.03084094 0.01007464 -0.00975043
v -0.02773640 0.01507907 -0.00949920
v -0.02773640 0.01485310 -0.01764192
v -0.03047203 0.01007464 -0.01744242
v -0.04724993 0.02210018 0.00118535
v -0.04451909 0.01803141 0.00118535
v -0.04627977 0.02255214 -0.02485732
v -0.04665825 0.02243731 -0.01413952
v -0.04045398 0.01608680 0.00019891
v -0.04635163 0.01325661 0.00118535
v -0.05199537 0.01093823 0.00100801
v -0.05220617 0.01015648 -0.00536504
v -0.05139410 0.01074768 -0.03229069
v -0.05095573 0.01084540 -0.03504680
v -0.04926692 0.01452207 -0.03648027
v -0.04739366 0.01869956 -0.03634727
v -0.04581025 0.02210141 -0.03505788
v -0.04610489 0.02247396 -0.03152592
v -0.03029717 0.01007464 -0.01287599
v -0.02773640 0.01408112 -0.01362967
v -0.03015344 0.01007464 -0.01536240
v -0.04861296 0.01975126 0.00100801
v -0.04779370 0.02101062 -0.00438968
v -0.04722358 0.02088603 -0.02871070
v -0.04978914 0.01745120 0.00083437
v -0.05120965 0.01375009 -0.00040330
v -0.05173905 0.01199604 -0.00323330
v -0.05094854 0.01286940 -0.02591764
v -0.05057964 0.01341174 -0.03119341
v -0.05005264 0.01387346 -0.03449632
v -0.04801649 0.01831113 -0.03491010
v -0.04714214 0.02029849 -0.03397908
v -0.04862014 0.01958758 -0.00341802
v -0.04892916 0.01755991 -0.03033998
v -0.04960947 0.01762832 -0.00390201
v -0.05008138 0.01495937 -0.02948655
v -0.04911361 0.01654242 -0.03356899
f 1 2 3
f 1 3 4
f 1 4 5
f 1 5 12
f 1 12 29
f 1 29 47
f 1 47 30
f 1 30 13
f 1 13 6
f 1 6 7
f 1 7 2
f 2 8 9
f 2 9 3
f 2 7 10
f 2 10 27
f 2 27 34
f 2 34 19
f 2 19 8
f 3 9 24
f 3 24 25
f 3 25 18
f 3 18 17
f 3 17 16
f 3 16 15
f 3 15 14
f 3 14 31
f 3 31 48
f 3 48 46
f 3 46 28
f 3 28 11
f 3 11 4
f 4 11 5
f 5 11 12
f 6 13 14
f 6 14 15
f 6 15 16
f 6 16 7
f 7 16 17
f 7 17 18
f 7 18 10
f 8 19 20
f 8 20 21
f 8 21 22
f 8 22 23
f 8 23 9
f 9 23 24
f 10 18 25
f 10 25 26
f 10 26 27
f 11 28 12
f 12 28 29
f 13 30 31
f 13 31 14
f 19 32 24
f 19 24 37
f 19 37 33
f 19 33 20
f 19 34 35
f 19 35 32
f 20 33 21
f 21 36 22
f 21 33 36
f 22 36 33
f 22 33 23
f 23 33 37
f 23 37 24
f 24 32 38
f 24 38 39
f 24 39 26
f 24 26 25
f 26 40 41
f 26 41 42
f 26 42 27
f 26 39 40
f 27 42 43
f 27 43 44
f 27 44 45
f 27 45 34
f 28 46 29
f 29 46 47
f 30 48 31
f 30 47 48
f 32 49 38
f 32 35 50
f 32 50 49
f 34 45 51
f 34 51 35
f 35 51 50
f 38 49 52
f 38 52 53
f 38 53 54
f 38 54 39
f 39 54 40
f 40 54 55
f 40 55 56
f 40 56 57
f 40 57 41
f 41 57 42
f 42 57 58
f 42 58 43
f 43 58 59
f 43 59 44
f 44 59 45
f 45 59 51
f 46 48 47
f 49 50 60
f 49 60 52
f 50 51 60
f 51 61 60
f 51 59 61
f 52 60 62
f 52 62 63
f 52 63 53
f 53 63 55
f 53 55 54
f 55 63 56
f 56 64 57
f 56 63 64
f 57 64 58
f 58 64 59
f 59 64 61
f 60 61 62
f 61 64 63
f 61 63 62

