# https://github.com/mikedh/trimesh
v 0.00837408 -0.07809429 0.00195129
v 0.00737996 -0.07809429 0.00473257
v 0.00768314 -0.08814527 0.00251652
v 0.00794078 -0.08814527 -0.00000056
v 0.00820753 -0.07809429 -0.00085560
v 0.00571570 -0.07809429 0.00654352
v 0.00571310 -0.08814527 0.00569969
v 0.00681002 -0.08814527 0.00436590
v 0.00766622 -0.08814527 -0.00251764
v 0.00759986 -0.07809429 -0.00251764
v 0.00419719 -0.07809429 0.00738735
v 0.00436114 -0.08814527 0.00677730
v 0.00654197 -0.08814527 -0.00522366
v 0.00659793 -0.07809429 -0.00409002
v 0.00251862 -0.07809429 0.00769958
v 0.00251862 -0.08814527 0.00737614
v 0.00526939 -0.08814527 -0.00696416
v 0.00540862 -0.07809429 -0.00536777
v 0.00084005 -0.08060999 0.00752025
v 0.00017513 -0.07809429 0.00729288
v 0.00024019 -0.08731588 0.00711355
v -0.00213452 -0.08814527 0.00262540
v 0.00352446 -0.08814527 -0.00818107
v 0.00322388 -0.07809429 -0.00694495
v 0.00016212 -0.08396786 0.00724805
v -0.00165047 -0.07809429 0.00590625
v -0.00111957 -0.08060999 0.00651630
v -0.00163225 -0.08396786 0.00589023
v -0.00146049 -0.08695186 0.00540667
v -0.00261467 -0.08648650 0.00251652
v -0.00350730 -0.08551249 -0.00052095
v -0.00264330 -0.08814527 -0.00000056
v -0.00087104 -0.08814527 -0.00830436
v 0.00083485 -0.08731588 -0.00865822
v 0.00016863 -0.07831467 -0.00828034
v -0.00491912 -0.07809429 -0.00492904
v -0.00305448 -0.07893252 0.00342119
v -0.00260036 -0.08228941 0.00419617
v -0.00486056 -0.07809527 -0.00184674
v -0.00238435 -0.08480708 0.00419617
v -0.00347477 -0.08377895 0.00123556
v -0.00408114 -0.08312863 -0.00083799
v -0.00384041 -0.08480708 -0.00251764
v -0.00335896 -0.08649535 -0.00251764
v -0.00272007 -0.08814527 -0.00335026
v -0.00134468 -0.08396786 -0.00851412
v -0.00223732 -0.08814527 -0.00655906
v -0.00183524 -0.08655439 -0.00805137
v -0.00083851 -0.08145019 -0.00851892
v -0.00226074 -0.07943429 -0.00829475
v -0.00396273 -0.07893252 -0.00738848
v -0.00448712 -0.08060999 -0.00587695
v -0.00465107 -0.08060999 -0.00335667
v -0.00411237 -0.07893252 0.00083686
v -0.00334465 -0.08145019 0.00248289
v -0.00445198 -0.08060999 -0.00083799
v -0.00390808 -0.08145019 0.00083686
v -0.00420475 -0.08312863 -0.00335667
v -0.00353333 -0.08557152 -0.00419730
v -0.00335376 -0.08565416 -0.00591378
v -0.00188469 -0.08145019 -0.00844527
v -0.00272397 -0.08145019 -0.00816826
v -0.00368166 -0.08345527 -0.00657987
v -0.00380528 -0.08145019 -0.00732763
f 1 2 3
f 1 3 4
f 1 4 5
f 1 5 10
f 1 10 14
f 1 14 18
f 1 18 24
f 1 24 36
f 1 36 26
f 1 26 20
f 1 20 15
f 1 15 11
f 1 11 6
f 1 6 2
f 2 6 7
f 2 7 8
f 2 8 3
f 3 8 7
f 3 7 12
f 3 12 16
f 3 16 22
f 3 22 32
f 3 32 45
f 3 45 47
f 3 47 33
f 3 33 23
f 3 23 17
f 3 17 13
f 3 13 9
f 3 9 4
f 4 9 5
f 5 9 10
f 6 11 12
f 6 12 7
f 9 13 10
f 10 13 14
f 11 15 16
f 11 16 12
f 13 17 14
f 14 17 18
f 15 19 16
f 15 20 19
f 16 19 21
f 16 21 22
f 17 23 24
f 17 24 18
f 19 20 25
f 19 25 21
f 20 26 27
f 20 27 25
f 21 25 27
f 21 27 28
f 21 28 29
f 21 29 22
f 22 30 31
f 22 31 32
f 22 29 30
f 23 33 34
f 23 34 35
f 23 35 24
f 24 35 36
f 26 37 38
f 26 38 28
f 26 28 27
f 26 36 39
f 26 39 37
f 28 38 40
f 28 40 29
f 29 40 30
f 30 40 41
f 30 41 42
f 30 42 31
f 31 42 43
f 31 43 44
f 31 44 32
f 32 44 45
f 33 46 34
f 33 47 48
f 33 48 46
f 34 46 49
f 34 49 35
f 35 50 51
f 35 51 36
f 35 49 50
f 36 51 52
f 36 52 53
f 36 53 39
f 37 39 54
f 37 54 55
f 37 55 38
f 38 55 40
f 39 53 56
f 39 56 54
f 40 55 57
f 40 57 41
f 41 57 56
f 41 56 42
f 42 56 53
f 42 53 58
f 42 58 43
f 43 58 59
f 43 59 44
f 44 59 45
f 45 59 60
f 45 60 47
f 46 61 49
f 46 48 62
f 46 62 61
f 47 63 48
f 47 60 63
f 48 63 64
f 48 64 62
f 49 61 50
f 50 61 62
f 50 62 51
f 51 62 64
f 51 64 52
f 52 60 58
f 52 58 53
f 52 64 63
f 52 63 60
f 54 56 57
f 54 57 55
f 58 60 59

