# https://github.com/mikedh/trimesh
v 0.02109282 -0.09688295 0.00668675
v 0.02081615 -0.09495452 0.00615905
v 0.02088298 -0.09995404 0.00330423
v 0.02163278 -0.09879260 0.00561206
v 0.02649512 -0.09526131 0.00522490
v 0.02771003 -0.09152654 0.00634505
v 0.03075601 -0.08417595 0.00613425
v 0.02081615 -0.09318574 0.00504991
v 0.02081615 -0.09267546 -0.00600149
v 0.02086293 -0.09880669 -0.00586233
v 0.02895435 -0.08396308 0.00543570
v 0.02090570 -0.09988517 -0.00002455
v 0.02260979 -0.09903522 0.00167842
v 0.02437002 -0.09737289 0.00492316
v 0.02708320 -0.09550549 0.00263048
v 0.02852532 -0.09323114 0.00487493
v 0.03143096 -0.08751941 0.00577326
v 0.03285305 -0.08444988 0.00584078
v 0.03421899 -0.08402569 0.00469031
v 0.02081615 -0.09163611 0.00329872
v 0.02707651 -0.08396308 0.00377269
v 0.02086159 -0.09425170 -0.00716987
v 0.02081615 -0.09155158 -0.00437292
v 0.02733046 -0.08396308 -0.00495298
v 0.02090570 -0.09723357 -0.00729663
v 0.02267394 -0.09728210 -0.00651541
v 0.02414414 -0.09723044 -0.00444319
v 0.02201503 -0.09876912 -0.00380939
v 0.03427379 -0.08396308 -0.00244812
v 0.02248683 -0.09896165 -0.00083884
v 0.02465737 -0.09762176 0.00167842
v 0.02670362 -0.09578882 0.00017247
v 0.02882337 -0.09355828 0.00167842
v 0.03028822 -0.09162046 0.00167842
v 0.03210191 -0.08877946 0.00289778
v 0.02993805 -0.09114304 0.00493556
v 0.03361888 -0.08569272 0.00431416
v 0.03446892 -0.08438727 0.00269111
v 0.02604337 -0.08396308 0.00178589
v 0.02081615 -0.09059206 0.00109974
v 0.02267261 -0.09488251 -0.00738894
v 0.03036441 -0.08462050 -0.00661323
v 0.02081615 -0.09062024 -0.00152774
v 0.02588565 -0.08396308 -0.00168206
v 0.03316446 -0.08448275 -0.00509902
v 0.02506234 -0.09495295 -0.00680062
v 0.02570389 -0.09579664 -0.00478902
v 0.02623048 -0.09589212 -0.00251839
v 0.02449298 -0.09749497 -0.00167792
v 0.03436334 -0.08438727 0.00000576
v 0.03340637 -0.08594943 -0.00177437
v 0.03212330 -0.08740045 -0.00446661
v 0.02809362 -0.09405448 -0.00167792
v 0.03020669 -0.09150776 -0.00083884
v 0.03208453 -0.08873876 0.00036950
v 0.03349993 -0.08632979 0.00167842
v 0.03009977 -0.08773072 -0.00665732
v 0.02812703 -0.09131366 -0.00663941
v 0.02661540 -0.09335167 -0.00669453
v 0.03052479 -0.08947289 -0.00546414
v 0.02716606 -0.09435501 -0.00478902
v 0.03155393 -0.08909878 -0.00251839
v 0.03007170 -0.09116652 -0.00332992
v 0.02841573 -0.09305739 -0.00445421
f 1 2 3
f 1 3 4
f 1 4 5
f 1 5 6
f 1 6 7
f 1 7 2
f 2 8 20
f 2 20 40
f 2 40 43
f 2 43 23
f 2 23 9
f 2 9 10
f 2 10 3
f 2 7 11
f 2 11 8
f 3 10 12
f 3 12 13
f 3 13 14
f 3 14 4
f 4 14 5
f 5 15 16
f 5 16 6
f 5 14 15
f 6 17 18
f 6 18 7
f 6 16 17
f 7 18 19
f 7 19 11
f 8 11 21
f 8 21 20
f 9 22 10
f 9 23 24
f 9 24 22
f 10 25 26
f 10 26 27
f 10 27 28
f 10 28 12
f 10 22 25
f 11 19 29
f 11 29 24
f 11 24 44
f 11 44 39
f 11 39 21
f 12 28 30
f 12 30 13
f 13 30 31
f 13 31 14
f 14 31 15
f 15 31 32
f 15 32 33
f 15 33 16
f 16 33 34
f 16 34 35
f 16 35 36
f 16 36 17
f 17 36 37
f 17 37 19
f 17 19 18
f 19 37 38
f 19 38 29
f 20 21 39
f 20 39 40
f 22 41 25
f 22 24 42
f 22 42 41
f 23 43 44
f 23 44 24
f 24 29 45
f 24 45 42
f 25 41 46
f 25 46 26
f 26 46 47
f 26 47 27
f 27 47 48
f 27 48 49
f 27 49 28
f 28 49 30
f 29 38 50
f 29 50 51
f 29 51 52
f 29 52 45
f 30 49 31
f 31 49 32
f 32 53 33
f 32 49 48
f 32 48 53
f 33 53 54
f 33 54 34
f 34 54 55
f 34 55 35
f 35 55 56
f 35 56 38
f 35 38 37
f 35 37 36
f 38 56 50
f 39 44 40
f 40 44 43
f 41 42 57
f 41 57 58
f 41 58 59
f 41 59 46
f 42 45 57
f 45 52 60
f 45 60 57
f 46 59 61
f 46 61 47
f 47 61 48
f 48 61 53
f 50 56 51
f 51 56 55
f 51 55 62
f 51 62 52
f 52 62 63
f 52 63 60
f 53 64 63
f 53 63 54
f 53 61 64
f 54 63 62
f 54 62 55
f 57 60 58
f 58 60 59
f 59 60 61
f 60 63 64
f 60 64 61

