# https://github.com/mikedh/trimesh
v 0.00223858 -0.09080828 -0.00863854
v 0.00396532 -0.09459356 -0.00821219
v -0.00001112 -0.09119099 -0.00768395
v -0.00001909 -0.08815280 -0.00848806
v 0.01288600 -0.09782049 -0.00824510
v 0.01049439 -0.09815340 -0.00810717
v 0.00263240 -0.09560279 -0.00614000
v 0.00102205 -0.09364068 -0.00658516
v 0.00752562 -0.09766582 -0.00797393
v 0.00553262 -0.09746398 -0.00674034
v -0.00075730 -0.09152653 -0.00587667
v -0.00192918 -0.08914500 -0.00617605
v -0.00265145 -0.08815805 -0.00419791
v -0.00045596 -0.08815150 0.00630879
v 0.00440059 -0.08814888 -0.00757266
v 0.01351897 -0.09562901 -0.00743943
v 0.01318415 -0.09990187 -0.00683282
v 0.00420607 -0.09738534 -0.00419791
v 0.00170446 -0.09529871 -0.00335775
v -0.00002866 -0.09326976 -0.00335775
v 0.00831485 -0.09924783 -0.00612903
v -0.00141897 -0.09089871 -0.00381389
v -0.00276943 -0.08815805 -0.00167743
v -0.00252071 -0.08815805 0.00083834
v -0.00173467 -0.08889073 0.00326321
v 0.00004469 -0.09115298 0.00597335
v 0.00186868 -0.09247941 0.00694204
v 0.00252079 -0.08900214 0.00737466
v 0.00503995 -0.08814757 0.00623825
v 0.00654187 -0.08814757 -0.00522460
v 0.01351897 -0.09374029 -0.00481079
v 0.01351897 -0.09610217 0.00614107
v 0.01305660 -0.10153630 0.00158289
v 0.01305660 -0.10131217 -0.00167743
v 0.01149090 -0.10048250 -0.00507099
v 0.00400040 -0.09754786 -0.00167743
v 0.00684321 -0.09936579 -0.00187180
v 0.00163112 -0.09556871 -0.00035920
v -0.00014664 -0.09345456 -0.00000025
v 0.00923482 -0.10011420 -0.00419791
v -0.00165495 -0.09064444 0.00004364
v -0.00026144 -0.09242436 0.00345914
v 0.00151313 -0.09470496 0.00483224
v 0.00304057 -0.09534065 0.00635268
v 0.00755591 -0.09656222 0.00720067
v 0.00419970 -0.09320553 0.00728688
v 0.01198516 -0.09905516 0.00688875
v 0.01351897 -0.09365248 0.00335412
v 0.00724660 -0.08814757 0.00344033
v 0.00766593 -0.08814757 -0.00251759
v 0.01351897 -0.09301155 -0.00216805
v 0.01305660 -0.10143407 0.00400775
v 0.01018827 -0.10078528 -0.00159593
v 0.01012768 -0.10096484 0.00167850
v 0.00672204 -0.09951915 0.00167850
v 0.00389198 -0.09763437 0.00167850
v 0.00199145 -0.09584658 0.00251710
v 0.00337380 -0.09693970 0.00419741
v 0.00523606 -0.09769204 0.00590281
v 0.00789552 -0.09876812 0.00647964
v 0.01057411 -0.10073285 0.00501093
v 0.01351897 -0.09286868 0.00016747
v 0.00794016 -0.08814757 -0.00000652
v 0.00682568 -0.09936055 0.00431811
f 1 2 3
f 1 3 4
f 1 4 5
f 1 5 6
f 1 6 2
f 2 7 8
f 2 8 3
f 2 6 9
f 2 9 10
f 2 10 7
f 3 8 11
f 3 11 12
f 3 12 4
f 4 12 13
f 4 13 14
f 4 14 15
f 4 15 5
f 5 16 17
f 5 17 6
f 5 15 16
f 6 17 9
f 7 10 18
f 7 18 19
f 7 19 8
f 8 20 11
f 8 19 20
f 9 17 21
f 9 21 10
f 10 21 18
f 11 22 12
f 11 20 22
f 12 22 13
f 13 22 23
f 13 23 14
f 14 23 24
f 14 24 25
f 14 25 26
f 14 26 27
f 14 27 28
f 14 28 29
f 14 29 15
f 15 29 30
f 15 30 16
f 16 31 51
f 16 51 62
f 16 62 48
f 16 48 32
f 16 32 17
f 16 30 31
f 17 32 33
f 17 33 34
f 17 34 35
f 17 35 21
f 18 36 19
f 18 21 37
f 18 37 36
f 19 36 38
f 19 38 20
f 20 38 39
f 20 39 22
f 21 35 40
f 21 40 37
f 22 39 41
f 22 41 23
f 23 41 24
f 24 41 42
f 24 42 25
f 25 42 26
f 26 42 43
f 26 43 44
f 26 44 27
f 27 44 45
f 27 45 46
f 27 46 28
f 28 46 45
f 28 45 47
f 28 47 32
f 28 32 29
f 29 32 48
f 29 48 49
f 29 49 63
f 29 63 50
f 29 50 30
f 30 50 31
f 31 50 51
f 32 52 33
f 32 47 52
f 33 53 34
f 33 52 54
f 33 54 53
f 34 53 35
f 35 53 40
f 36 37 55
f 36 55 56
f 36 56 38
f 37 40 53
f 37 53 54
f 37 54 55
f 38 56 57
f 38 57 39
f 39 42 41
f 39 57 43
f 39 43 42
f 43 57 58
f 43 58 44
f 44 58 59
f 44 59 60
f 44 60 45
f 45 60 47
f 47 60 61
f 47 61 52
f 48 62 49
f 49 62 63
f 50 63 51
f 51 63 62
f 52 61 54
f 54 64 55
f 54 61 64
f 55 64 56
f 56 58 57
f 56 64 58
f 58 64 59
f 59 64 60
f 60 64 61

