# https://github.com/mikedh/trimesh
v 0.02760949 -0.03359433 0.00744702
v 0.02755894 -0.03699611 0.00721880
v 0.03675133 -0.06114913 0.00657029
v 0.03717104 -0.05541534 0.00679713
v 0.03525944 -0.04743836 0.00701422
v 0.02939060 -0.03611142 0.00735100
v 0.02804096 -0.03034801 0.00679852
v 0.02750839 -0.02574691 0.00487110
v 0.02750839 -0.03960575 0.00605538
v 0.03384631 -0.06141195 0.00515221
v 0.03935187 -0.06135273 0.00371047
v 0.03844191 -0.05877640 0.00569912
v 0.03885104 -0.05528208 0.00489058
v 0.03654207 -0.05228377 0.00685279
v 0.03706053 -0.04696826 0.00447587
v 0.03513129 -0.04345543 0.00581881
v 0.03132454 -0.03649639 0.00684862
v 0.03338898 -0.03960945 0.00606234
v 0.02750839 -0.02382577 0.00160353
v 0.02750839 -0.04174898 0.00372578
v 0.03219217 -0.06141195 0.00164388
v 0.03329022 -0.06141195 -0.00496223
v 0.03947648 -0.06135273 0.00001566
v 0.03951881 -0.05877640 0.00167867
v 0.03921079 -0.05541534 0.00167867
v 0.03855595 -0.05201356 0.00340013
v 0.03788231 -0.04953718 0.00419754
v 0.03628107 -0.04449928 0.00335838
v 0.03778708 -0.04869691 0.00167867
v 0.02750839 -0.02360368 -0.00169327
v 0.03550750 -0.04235605 0.00178583
v 0.02750839 -0.04255963 0.00083812
v 0.03207578 -0.06141195 -0.00167657
v 0.03610472 -0.05541534 -0.00647634
v 0.03726156 -0.06130460 -0.00579444
v 0.03918845 -0.06135273 -0.00251712
v 0.02750839 -0.03979453 -0.00489822
v 0.02750839 -0.03535630 -0.00676998
v 0.03924958 -0.05877640 -0.00167796
v 0.03908264 -0.05541534 -0.00083880
v 0.03862649 -0.05248736 -0.00042409
v 0.03666433 -0.04530623 0.00083812
v 0.03803396 -0.05037744 -0.00167796
v 0.03707934 -0.04700527 -0.00172667
v 0.02857352 -0.02850091 -0.00506800
v 0.02750839 -0.02606155 -0.00481194
v 0.03541815 -0.04240417 -0.00152906
v 0.03442120 -0.04114932 -0.00419683
v 0.02750839 -0.04196368 -0.00192707
v 0.03421899 -0.04766416 -0.00654453
v 0.03610472 -0.05289454 -0.00643598
v 0.03760603 -0.05541534 -0.00569563
v 0.03692533 -0.05877640 -0.00608668
v 0.03869703 -0.05877640 -0.00448490
v 0.02750839 -0.02919311 -0.00601710
v 0.02763888 -0.03173982 -0.00660437
v 0.03868997 -0.05543755 -0.00331592
v 0.03794579 -0.05205428 -0.00419683
v 0.03606358 -0.04514706 -0.00387119
v 0.02987261 -0.03483807 -0.00633578
v 0.03365820 -0.04150838 -0.00571511
v 0.03148913 -0.03842493 -0.00631630
v 0.03741675 -0.05289454 -0.00562466
v 0.03673135 -0.04948905 -0.00519325
f 1 2 3
f 1 3 4
f 1 4 5
f 1 5 6
f 1 6 7
f 1 7 8
f 1 8 2
f 2 8 9
f 2 9 10
f 2 10 3
f 3 10 11
f 3 11 12
f 3 12 4
f 4 13 14
f 4 14 5
f 4 12 13
f 5 15 16
f 5 16 17
f 5 17 6
f 5 14 13
f 5 13 15
f 6 17 7
f 7 17 8
f 8 17 18
f 8 18 19
f 8 19 30
f 8 30 46
f 8 46 55
f 8 55 38
f 8 38 37
f 8 37 49
f 8 49 32
f 8 32 20
f 8 20 9
f 9 20 21
f 9 21 10
f 10 21 33
f 10 33 22
f 10 22 23
f 10 23 11
f 11 23 24
f 11 24 13
f 11 13 12
f 13 24 25
f 13 25 26
f 13 26 27
f 13 27 15
f 15 28 18
f 15 18 16
f 15 27 29
f 15 29 28
f 16 18 17
f 18 28 19
f 19 28 31
f 19 31 30
f 20 32 21
f 21 32 33
f 22 34 35
f 22 35 36
f 22 36 23
f 22 33 37
f 22 37 38
f 22 38 34
f 23 36 39
f 23 39 24
f 24 39 40
f 24 40 25
f 25 40 41
f 25 41 26
f 26 29 27
f 26 41 29
f 28 29 42
f 28 42 31
f 29 41 43
f 29 43 44
f 29 44 42
f 30 45 46
f 30 31 47
f 30 47 48
f 30 48 45
f 31 42 47
f 32 49 33
f 33 49 37
f 34 50 51
f 34 51 52
f 34 52 53
f 34 53 35
f 34 38 50
f 35 53 52
f 35 52 54
f 35 54 36
f 36 54 39
f 38 55 56
f 38 56 50
f 39 54 57
f 39 57 40
f 40 58 41
f 40 57 58
f 41 58 43
f 42 44 47
f 43 58 44
f 44 59 47
f 44 58 59
f 45 60 55
f 45 55 46
f 45 48 61
f 45 61 60
f 47 59 48
f 48 59 61
f 50 56 62
f 50 62 61
f 50 61 51
f 51 61 63
f 51 63 52
f 52 63 54
f 54 63 58
f 54 58 57
f 55 60 56
f 56 60 62
f 58 63 64
f 58 64 59
f 59 64 61
f 60 61 62
f 61 64 63

