# https://github.com/mikedh/trimesh
v 0.01679178 -0.00500379 -0.00810731
v 0.01343948 -0.00500379 -0.00784985
v 0.01679178 -0.00167809 -0.00809926
v 0.02014938 -0.00167809 -0.00788364
v 0.01930865 -0.00500379 -0.00790617
v 0.02099011 -0.00581188 -0.00752643
v 0.01343948 -0.00167809 -0.00771308
v 0.00385998 -0.00581188 -0.00473144
v 0.01091996 -0.00500379 -0.00729472
v 0.01511828 0.00083859 -0.00779836
v 0.02033768 0.00382107 -0.00765676
v 0.02567378 0.00382107 -0.00664304
v 0.02299247 -0.00167809 -0.00726093
v 0.02302164 -0.00494910 -0.00697290
v 0.02577455 -0.00581188 -0.00549737
v 0.01188268 0.00083859 -0.00715956
v 0.00267978 -0.00581188 -0.00260262
v 0.00940028 0.00382107 -0.00558748
v 0.01193307 0.00349482 -0.00690210
v 0.01428021 0.00251795 -0.00746528
v 0.02581964 0.00146941 -0.00652236
v 0.02464740 -0.00060126 -0.00681843
v 0.02946633 0.00382107 -0.00251734
v 0.02821982 0.00341750 -0.00519486
v 0.02468983 -0.00335650 -0.00650788
v 0.02270339 -0.00581188 0.00745900
v 0.02602386 -0.00167809 -0.00602032
v 0.02732871 -0.00000062 -0.00544910
v 0.02692823 -0.00397600 -0.00481351
v 0.02696536 -0.00572513 -0.00329453
v 0.00240661 -0.00581188 -0.00001521
v 0.00823865 0.00382107 -0.00328809
v 0.02949550 0.00382107 -0.00064919
v 0.02767614 -0.00500379 0.00166146
v 0.02765227 -0.00419665 -0.00167740
v 0.02857521 0.00071224 -0.00335085
v 0.02434771 -0.00251729 0.00720637
v 0.02508500 0.00041899 0.00719189
v 0.02182818 -0.00167809 0.00795460
v 0.02018386 -0.00581188 0.00801896
v 0.02679563 -0.00496985 0.00518858
v 0.02487813 -0.00501134 0.00674939
v 0.00252065 -0.00581188 0.00255289
v 0.00795487 0.00382107 -0.00007153
v 0.02659672 0.00371641 0.00678962
v 0.02875290 0.00289417 0.00468976
v 0.02932576 0.00316951 0.00219246
v 0.02862825 -0.00043625 0.00124631
v 0.01082183 0.00382107 0.00661905
v 0.02872638 0.00062360 0.00302435
v 0.02681154 0.00186355 0.00669146
v 0.01883923 -0.00180632 0.00833112
v 0.01682360 -0.00581188 0.00827963
v 0.00365576 -0.00581188 0.00493756
v 0.00928359 0.00382107 0.00549108
v 0.00831556 0.00382107 0.00318365
v 0.01259611 0.00316951 0.00730613
v 0.01511828 0.00083859 0.00796586
v 0.01259611 0.00083859 0.00753945
v 0.01511828 -0.00167809 0.00817504
v 0.01431203 -0.00581188 0.00812677
v 0.01095443 -0.00581188 0.00739142
v 0.01259611 -0.00167809 0.00766013
v 0.01261467 -0.00500379 0.00780334
f 1 2 3
f 1 3 4
f 1 4 5
f 1 5 6
f 1 6 2
f 2 7 3
f 2 6 8
f 2 8 9
f 2 9 7
f 3 7 10
f 3 10 11
f 3 11 4
f 4 11 12
f 4 12 13
f 4 13 6
f 4 6 5
f 6 13 14
f 6 14 15
f 6 15 26
f 6 26 40
f 6 40 53
f 6 53 61
f 6 61 62
f 6 62 54
f 6 54 43
f 6 43 31
f 6 31 17
f 6 17 8
f 7 9 16
f 7 16 10
f 8 17 18
f 8 18 19
f 8 19 16
f 8 16 9
f 10 16 20
f 10 20 11
f 11 20 19
f 11 19 18
f 11 18 32
f 11 32 44
f 11 44 56
f 11 56 55
f 11 55 49
f 11 49 33
f 11 33 23
f 11 23 12
f 12 21 22
f 12 22 13
f 12 23 24
f 12 24 21
f 13 22 14
f 14 22 25
f 14 25 15
f 15 25 27
f 15 27 28
f 15 28 29
f 15 29 30
f 15 30 26
f 16 19 20
f 17 31 32
f 17 32 18
f 21 24 28
f 21 28 27
f 21 27 25
f 21 25 22
f 23 33 34
f 23 34 35
f 23 35 36
f 23 36 24
f 24 36 29
f 24 29 28
f 26 37 38
f 26 38 39
f 26 39 40
f 26 30 41
f 26 41 42
f 26 42 37
f 29 36 30
f 30 35 34
f 30 34 41
f 30 36 35
f 31 43 44
f 31 44 32
f 33 45 46
f 33 46 47
f 33 47 48
f 33 48 34
f 33 49 45
f 34 48 47
f 34 47 50
f 34 50 41
f 37 42 51
f 37 51 38
f 38 51 45
f 38 45 39
f 39 52 40
f 39 45 52
f 40 52 53
f 41 50 46
f 41 46 51
f 41 51 42
f 43 54 55
f 43 55 56
f 43 56 44
f 45 51 46
f 45 49 57
f 45 57 58
f 45 58 52
f 46 50 47
f 49 55 54
f 49 54 59
f 49 59 57
f 52 58 60
f 52 60 53
f 53 60 61
f 54 62 59
f 57 59 58
f 58 59 60
f 59 63 60
f 59 62 63
f 60 63 64
f 60 64 61
f 61 64 62
f 62 64 63

