# https://github.com/mikedh/trimesh
v -0.00539595 -0.03941519 0.00646991
v -0.00419818 -0.04618821 0.00612059
v -0.00419818 -0.04450802 0.00619992
v -0.00419818 -0.04282783 0.00627229
v -0.00417331 -0.03941519 0.00640032
v -0.00454364 -0.03941519 -0.00685851
v -0.00539595 -0.03944394 -0.00705196
v -0.00539595 -0.05409268 0.00574761
v -0.00419818 -0.04954598 0.00593689
v -0.00263662 -0.04618821 0.00555277
v -0.00251928 -0.04282783 0.00564323
v -0.00250358 -0.03941519 0.00576988
v -0.00370877 -0.03941519 -0.00655094
v -0.00093984 -0.04973673 -0.00691696
v -0.00093984 -0.05111903 -0.00708118
v -0.00093984 -0.05122094 -0.00709232
v -0.00093984 -0.05289590 -0.00724958
v -0.00539595 -0.04199427 -0.00691000
v -0.00093984 -0.05457609 -0.00738040
v -0.00093984 -0.05626151 -0.00750009
v -0.00093984 -0.05793386 -0.00759612
v -0.00093984 -0.06140921 -0.00774781
v -0.00251928 -0.06141183 -0.00741937
v -0.00395522 -0.06610747 -0.00705196
v -0.00539595 -0.05580162 0.00564463
v -0.00287478 -0.04954598 0.00544144
v -0.00275264 -0.04786579 0.00549989
v -0.00539595 -0.05735638 0.00554999
v -0.00419818 -0.05122094 0.00583251
v -0.00093984 -0.06141183 0.00389942
v -0.00159718 -0.03941519 0.00512830
v -0.00167438 -0.04373978 0.00504341
v -0.00288437 -0.03941519 -0.00571313
v -0.00093984 -0.04786579 -0.00653563
v -0.00539595 -0.04335305 -0.00682233
v -0.00395522 -0.06610747 0.00033385
v -0.00476479 -0.06610747 -0.00596782
v -0.00539595 -0.04582761 -0.00664697
v -0.00539595 -0.04473797 -0.00672491
v -0.00539595 -0.05793386 0.00549015
v -0.00539595 -0.05912802 0.00535793
v -0.00539595 -0.05953566 0.00529948
v -0.00539595 -0.06065143 0.00509072
v -0.00539595 -0.06158429 0.00443662
v -0.00539595 -0.06178026 0.00429327
v -0.00093984 -0.04791021 0.00264270
v -0.00142837 -0.03941519 0.00419585
v -0.00093984 -0.03941519 -0.00357407
v -0.00471375 -0.06610747 -0.00110378
v -0.00539595 -0.06241001 0.00354175
v -0.00482760 -0.06610747 -0.00579942
v -0.00539595 -0.05344203 -0.00589962
v -0.00539595 -0.05170435 -0.00607080
v -0.00093984 -0.04713152 0.00245761
v -0.00093984 -0.04618821 0.00213055
v -0.00093984 -0.04452893 0.00151542
v -0.00093984 -0.04278080 0.00036586
v -0.00093984 -0.03941519 -0.00206406
v -0.00539595 -0.06558748 -0.00187340
v -0.00517437 -0.06610747 -0.00235354
v -0.00507797 -0.06610747 -0.00509800
v -0.00539595 -0.06359372 -0.00455523
v -0.00539595 -0.06580959 -0.00367288
v -0.00527251 -0.06610747 -0.00397349
f 1 2 3
f 1 3 4
f 1 4 5
f 1 5 12
f 1 12 31
f 1 31 47
f 1 47 58
f 1 58 48
f 1 48 33
f 1 33 13
f 1 13 6
f 1 6 7
f 1 7 18
f 1 18 35
f 1 35 39
f 1 39 38
f 1 38 53
f 1 53 52
f 1 52 62
f 1 62 63
f 1 63 59
f 1 59 50
f 1 50 45
f 1 45 44
f 1 44 43
f 1 43 42
f 1 42 41
f 1 41 40
f 1 40 28
f 1 28 25
f 1 25 8
f 1 8 2
f 2 9 10
f 2 10 3
f 2 8 9
f 3 10 4
f 4 10 5
f 5 10 11
f 5 11 12
f 6 13 14
f 6 14 15
f 6 15 16
f 6 16 17
f 6 17 7
f 7 17 19
f 7 19 20
f 7 20 21
f 7 21 22
f 7 22 23
f 7 23 24
f 7 24 18
f 8 25 9
f 9 26 27
f 9 27 10
f 9 25 28
f 9 28 29
f 9 29 26
f 10 27 30
f 10 30 11
f 11 30 12
f 12 30 32
f 12 32 31
f 13 33 34
f 13 34 14
f 14 34 48
f 14 48 58
f 14 58 57
f 14 57 56
f 14 56 55
f 14 55 54
f 14 54 46
f 14 46 30
f 14 30 22
f 14 22 21
f 14 21 20
f 14 20 19
f 14 19 17
f 14 17 16
f 14 16 15
f 18 24 35
f 22 30 24
f 22 24 23
f 24 30 36
f 24 36 49
f 24 49 60
f 24 60 64
f 24 64 61
f 24 61 51
f 24 51 37
f 24 37 38
f 24 38 39
f 24 39 35
f 26 29 30
f 26 30 27
f 28 40 30
f 28 30 29
f 30 40 41
f 30 41 42
f 30 42 43
f 30 43 44
f 30 44 45
f 30 45 36
f 30 46 31
f 30 31 32
f 31 46 47
f 33 48 34
f 36 45 50
f 36 50 49
f 37 51 52
f 37 52 53
f 37 53 38
f 46 54 47
f 47 54 55
f 47 55 56
f 47 56 57
f 47 57 58
f 49 50 59
f 49 59 60
f 51 61 62
f 51 62 52
f 59 63 64
f 59 64 60
f 61 64 63
f 61 63 62

