# https://github.com/mikedh/trimesh
v 0.00000375 -0.07809213 -0.00827166
v -0.00475775 -0.07809213 -0.00123438
v -0.00322816 -0.07767235 -0.00779965
v -0.00251704 -0.07556993 -0.00812704
v 0.00000208 -0.06611432 -0.00787752
v 0.00252120 -0.06611432 -0.00738008
v 0.00509734 -0.06611432 -0.00643129
v 0.00322561 -0.07809213 -0.00694462
v -0.00416067 -0.07809213 0.00083803
v -0.00503616 -0.07551130 -0.00179380
v -0.00502274 -0.07781540 -0.00342439
v -0.00493218 -0.07735693 -0.00550474
v -0.00457997 -0.07389081 -0.00662835
v -0.00452798 -0.07053491 -0.00669034
v -0.00324158 -0.06622572 -0.00739756
v -0.00251704 -0.06969535 -0.00786322
v -0.00490031 -0.06625855 -0.00159832
v -0.00160466 -0.06622572 0.00414530
v 0.00263189 -0.06617061 0.00763374
v 0.00771206 -0.06611432 -0.00511855
v 0.00600302 -0.07809213 -0.00472918
v -0.00420931 -0.07556993 0.00083803
v -0.00164994 -0.07809213 0.00590621
v -0.00306045 -0.07809096 0.00343807
v -0.00515859 -0.07179425 -0.00212278
v -0.00528774 -0.07389081 -0.00419677
v -0.00528774 -0.07053491 -0.00453847
v -0.00496907 -0.06755423 -0.00559851
v -0.00373803 -0.07221286 0.00166763
v -0.00323487 -0.06969535 0.00231923
v -0.00310405 -0.06700079 0.00206971
v -0.00036690 -0.06880303 0.00611599
v 0.00017650 -0.06622572 0.00614619
v -0.00175896 -0.06927557 0.00453308
v 0.00103522 -0.06801623 0.00710611
v 0.00018824 -0.07263147 0.00706478
v 0.00252120 -0.06885579 0.00772751
v 0.00419670 -0.06885579 0.00795954
v 0.00514598 -0.06617061 0.00796431
v 0.01076117 -0.06617061 0.00555816
v 0.00981691 -0.06625972 -0.00336718
v 0.01032342 -0.06890738 -0.00188121
v 0.00800389 -0.07774974 -0.00166348
v 0.00843157 -0.07809213 0.00126713
v 0.00017650 -0.07809096 0.00729205
v -0.00080297 -0.07546557 0.00643702
v -0.00189984 -0.07270886 0.00484458
v -0.00300175 -0.07556993 0.00342218
v 0.00335811 -0.07809213 0.00754315
v 0.00252120 -0.07221286 0.00779744
v 0.00252120 -0.07556993 0.00777042
v 0.00419670 -0.07221286 0.00787372
v 0.00587555 -0.06885579 0.00781015
v 0.00837790 -0.06716964 0.00702505
v 0.00635522 -0.07809213 0.00595071
v 0.01033181 -0.06885579 0.00516084
v 0.01184462 -0.06653176 0.00315677
v 0.01135992 -0.06750499 -0.00015844
v 0.01067898 -0.07064982 0.00055991
v 0.00805923 -0.07788458 0.00355409
v 0.01107144 -0.06969535 0.00251789
v 0.01036200 -0.07160782 0.00305983
v 0.00419670 -0.07556993 0.00763692
v 0.00587555 -0.07137447 0.00757653
f 1 2 3
f 1 3 4
f 1 4 5
f 1 5 6
f 1 6 7
f 1 7 8
f 1 8 21
f 1 21 44
f 1 44 55
f 1 55 49
f 1 49 23
f 1 23 9
f 1 9 2
f 2 9 10
f 2 10 11
f 2 11 3
f 3 11 12
f 3 12 13
f 3 13 14
f 3 14 15
f 3 15 4
f 4 15 16
f 4 16 5
f 5 16 15
f 5 15 17
f 5 17 18
f 5 18 19
f 5 19 20
f 5 20 7
f 5 7 6
f 7 20 8
f 8 20 21
f 9 22 10
f 9 23 24
f 9 24 22
f 10 25 26
f 10 26 11
f 10 22 25
f 11 26 12
f 12 26 27
f 12 27 28
f 12 28 13
f 13 28 14
f 14 28 15
f 15 28 17
f 17 28 27
f 17 27 25
f 17 25 22
f 17 22 29
f 17 29 30
f 17 30 31
f 17 31 18
f 18 32 33
f 18 33 19
f 18 31 34
f 18 34 32
f 19 35 36
f 19 36 37
f 19 37 38
f 19 38 39
f 19 39 20
f 19 33 35
f 20 39 40
f 20 40 41
f 20 41 21
f 21 41 42
f 21 42 43
f 21 43 44
f 22 24 29
f 23 45 46
f 23 46 32
f 23 32 34
f 23 34 47
f 23 47 48
f 23 48 24
f 23 49 45
f 24 48 29
f 25 27 26
f 29 48 30
f 30 48 47
f 30 47 34
f 30 34 31
f 32 46 36
f 32 36 35
f 32 35 33
f 36 46 45
f 36 45 37
f 37 45 50
f 37 50 38
f 38 50 51
f 38 51 52
f 38 52 39
f 39 52 53
f 39 53 54
f 39 54 40
f 40 54 55
f 40 55 56
f 40 56 57
f 40 57 41
f 41 57 58
f 41 58 42
f 42 58 43
f 43 58 59
f 43 59 44
f 44 60 55
f 44 59 61
f 44 61 62
f 44 62 60
f 45 49 51
f 45 51 50
f 49 55 63
f 49 63 52
f 49 52 51
f 52 63 53
f 53 63 64
f 53 64 54
f 54 64 55
f 55 60 56
f 55 64 63
f 56 62 57
f 56 60 62
f 57 62 61
f 57 61 58
f 58 61 59

