# https://github.com/mikedh/trimesh
v 0.01380323 -0.10155247 0.00148838
v 0.01595446 -0.10138399 0.00083791
v 0.01595446 -0.10141833 0.00251830
v 0.01370896 -0.10147413 0.00381925
v 0.01370896 -0.10032162 -0.00624407
v 0.01389751 -0.10126380 -0.00251703
v 0.01389751 -0.10143550 -0.00083809
v 0.01595446 -0.10128420 -0.00083809
v 0.01763288 -0.10109211 0.00083791
v 0.01763288 -0.10112538 0.00251830
v 0.01595446 -0.10134536 0.00419723
v 0.01595446 -0.10070687 0.00603585
v 0.01389751 -0.10026153 0.00649294
v 0.01351969 -0.09824196 0.00700570
v 0.01351969 -0.09625887 -0.00785415
v 0.01380323 -0.09869802 -0.00784536
v 0.01595446 -0.09962089 -0.00727106
v 0.01581590 -0.10070580 -0.00492261
v 0.01389751 -0.10087641 -0.00462521
v 0.01595446 -0.10112216 -0.00251703
v 0.01849637 -0.10075623 -0.00095237
v 0.01912916 -0.10069506 0.00083791
v 0.01917345 -0.10071009 0.00251830
v 0.01832638 -0.10085496 0.00430564
v 0.01763288 -0.10052981 0.00571501
v 0.01900275 -0.09953719 0.00631567
v 0.01595446 -0.09955221 0.00685627
v 0.01763288 -0.09879353 0.00684308
v 0.02081615 -0.09692204 0.00669072
v 0.02081615 -0.09495612 0.00615891
v 0.01351969 -0.09674820 0.00658524
v 0.01351969 -0.09500120 -0.00702347
v 0.02081615 -0.09425218 -0.00716265
v 0.01931200 -0.09656255 -0.00770178
v 0.01595446 -0.09824196 -0.00795817
v 0.01763288 -0.09883967 -0.00740878
v 0.01925415 -0.09923028 -0.00655759
v 0.01763288 -0.10007052 -0.00587635
v 0.01750075 -0.10072618 -0.00319534
v 0.01931200 -0.10029909 -0.00251703
v 0.02081615 -0.09999433 0.00083791
v 0.02081615 -0.10002867 0.00251830
v 0.02081615 -0.09984732 -0.00093039
v 0.02081615 -0.09972391 0.00478324
v 0.02036476 -0.09861647 0.00654129
v 0.02081615 -0.09318766 0.00504988
v 0.01351969 -0.09520509 0.00550844
v 0.01351969 -0.09406545 -0.00566392
v 0.02081615 -0.09155118 -0.00437469
v 0.02081615 -0.09267686 -0.00600088
v 0.02081615 -0.09724612 -0.00730622
v 0.01936629 -0.09834712 -0.00723590
v 0.02062903 -0.09901995 -0.00564194
v 0.01931200 -0.09999755 -0.00419742
v 0.02080258 -0.09938481 -0.00408608
v 0.02081615 -0.09962948 -0.00259467
v 0.02081615 -0.09163596 0.00329916
v 0.01351969 -0.09407404 0.00419137
v 0.01351969 -0.09341515 -0.00395569
v 0.02081615 -0.09061973 -0.00152813
v 0.02081615 -0.09059076 0.00110015
v 0.01351969 -0.09323058 0.00251830
v 0.01351969 -0.09301167 -0.00216835
v 0.01351969 -0.09286895 0.00016692
f 1 2 3
f 1 3 4
f 1 4 5
f 1 5 6
f 1 6 7
f 1 7 2
f 2 8 9
f 2 9 3
f 2 7 8
f 3 10 11
f 3 11 4
f 3 9 10
f 4 11 12
f 4 12 13
f 4 13 14
f 4 14 5
f 5 15 16
f 5 16 17
f 5 17 18
f 5 18 19
f 5 19 6
f 5 14 15
f 6 19 18
f 6 18 20
f 6 20 7
f 7 20 8
f 8 20 21
f 8 21 9
f 9 21 22
f 9 22 10
f 10 22 23
f 10 23 24
f 10 24 11
f 11 24 25
f 11 25 12
f 12 25 26
f 12 26 27
f 12 27 13
f 13 27 14
f 14 27 28
f 14 28 29
f 14 29 30
f 14 30 31
f 14 31 47
f 14 47 58
f 14 58 62
f 14 62 64
f 14 64 63
f 14 63 59
f 14 59 48
f 14 48 32
f 14 32 15
f 15 32 33
f 15 33 34
f 15 34 35
f 15 35 16
f 16 35 17
f 17 35 36
f 17 36 37
f 17 37 38
f 17 38 18
f 18 39 20
f 18 38 39
f 20 39 21
f 21 39 40
f 21 40 22
f 22 41 42
f 22 42 23
f 22 40 43
f 22 43 41
f 23 42 24
f 24 44 25
f 24 42 44
f 25 44 26
f 26 45 27
f 26 44 45
f 27 45 28
f 28 45 29
f 29 45 44
f 29 44 42
f 29 42 41
f 29 41 43
f 29 43 56
f 29 56 51
f 29 51 33
f 29 33 50
f 29 50 49
f 29 49 60
f 29 60 61
f 29 61 57
f 29 57 46
f 29 46 30
f 30 46 31
f 31 46 47
f 32 48 49
f 32 49 50
f 32 50 33
f 33 51 34
f 34 51 35
f 35 51 52
f 35 52 36
f 36 52 37
f 37 53 38
f 37 52 51
f 37 51 53
f 38 53 54
f 38 54 39
f 39 54 40
f 40 54 55
f 40 55 56
f 40 56 43
f 46 57 47
f 47 57 58
f 48 59 49
f 49 59 60
f 51 56 55
f 51 55 53
f 53 55 54
f 57 61 62
f 57 62 58
f 59 63 60
f 60 63 64
f 60 64 61
f 61 64 62

