# https://github.com/mikedh/trimesh
v 0.02029741 0.00616444 -0.00828275
v 0.02033898 0.00382107 -0.00765735
v 0.01198726 0.00386957 -0.00686539
v 0.01763669 0.00755981 -0.00798883
v 0.01847509 0.01427234 -0.00805741
v 0.02434855 0.01259382 -0.00793331
v 0.02567429 0.00382107 -0.00664332
v 0.00823638 0.00382107 -0.00328770
v 0.00956213 0.00494426 -0.00551498
v 0.01092020 0.00755981 -0.00602771
v 0.01576124 0.01514211 -0.00711523
v 0.02166011 0.01601656 -0.00770307
v 0.01835730 0.01647335 -0.00737159
v 0.02434855 0.01496690 -0.00761653
v 0.02630252 0.01354806 -0.00721647
v 0.02693537 0.01091842 -0.00707440
v 0.02770679 0.00587816 -0.00618447
v 0.02830037 0.00401036 -0.00527494
v 0.02950601 0.00391650 -0.00158295
v 0.02946444 0.00382107 0.00186574
v 0.00794998 0.00382107 -0.00006925
v 0.00944895 0.00923677 -0.00251697
v 0.01013492 0.01118749 -0.00319136
v 0.00994322 0.00833259 -0.00504960
v 0.01348623 0.01478700 -0.00600485
v 0.02938591 0.01980224 -0.00288437
v 0.01684216 0.01980224 -0.00252677
v 0.02009647 0.01980224 -0.00314564
v 0.03149001 0.01980224 -0.00210058
v 0.02829113 0.00842802 -0.00614038
v 0.02921038 0.00587816 -0.00480140
v 0.03004647 0.00693721 -0.00274394
v 0.03021277 0.00689028 0.00037000
v 0.02977624 0.00673072 0.00333046
v 0.02891705 0.00401036 0.00478864
v 0.02663742 0.00391650 0.00679058
v 0.00928035 0.00382107 0.00549079
v 0.00831491 0.00382107 0.00318350
v 0.00938890 0.00923677 0.00251727
v 0.01018573 0.01219961 0.00103296
v 0.01133825 0.01256723 -0.00490428
v 0.01154843 0.01461962 -0.00167766
v 0.01514226 0.01980224 -0.00050033
v 0.03154544 0.01980224 0.00029979
v 0.02844819 0.00839829 0.00625009
v 0.02849438 0.00587816 0.00595453
v 0.02709011 0.01139867 0.00715798
v 0.02339697 0.01402987 0.00839082
v 0.01173089 0.00386957 0.00692448
v 0.01238222 0.01223559 0.00645747
v 0.00974459 0.00671821 0.00542221
v 0.00994091 0.00997670 0.00442287
v 0.01027350 0.01181478 0.00348232
v 0.01152302 0.01479170 0.00113094
v 0.01486741 0.01980224 0.00164367
v 0.02902098 0.01980224 0.00283569
v 0.02014959 0.01710847 0.00718248
v 0.01998561 0.01499662 0.00839899
v 0.01595525 0.01427234 0.00786829
v 0.01367332 0.01516557 0.00615538
v 0.01166160 0.01449917 0.00344476
v 0.01654191 0.01980224 0.00331249
v 0.02051914 0.01980224 0.00385299
v 0.01661120 0.01644519 0.00704368
f 1 2 3
f 1 3 4
f 1 4 5
f 1 5 6
f 1 6 7
f 1 7 2
f 2 7 20
f 2 20 37
f 2 37 38
f 2 38 21
f 2 21 8
f 2 8 3
f 3 8 9
f 3 9 10
f 3 10 11
f 3 11 5
f 3 5 4
f 5 12 6
f 5 11 13
f 5 13 12
f 6 14 15
f 6 15 16
f 6 16 7
f 6 12 14
f 7 16 17
f 7 17 18
f 7 18 19
f 7 19 20
f 8 21 22
f 8 22 23
f 8 23 24
f 8 24 9
f 9 24 10
f 10 24 25
f 10 25 11
f 11 25 13
f 12 26 14
f 12 13 26
f 13 25 27
f 13 27 28
f 13 28 26
f 14 26 29
f 14 29 15
f 15 29 16
f 16 29 30
f 16 30 17
f 17 30 31
f 17 31 18
f 18 31 19
f 19 32 33
f 19 33 20
f 19 31 32
f 20 33 34
f 20 34 35
f 20 35 36
f 20 36 37
f 21 38 39
f 21 39 40
f 21 40 22
f 22 40 23
f 23 41 24
f 23 40 42
f 23 42 41
f 24 41 25
f 25 42 43
f 25 43 27
f 25 41 42
f 26 28 27
f 26 27 43
f 26 43 55
f 26 55 62
f 26 62 63
f 26 63 56
f 26 56 44
f 26 44 29
f 29 44 33
f 29 33 32
f 29 32 31
f 29 31 30
f 33 44 34
f 34 44 45
f 34 45 46
f 34 46 35
f 35 46 36
f 36 46 45
f 36 45 47
f 36 47 48
f 36 48 49
f 36 49 37
f 37 49 50
f 37 50 51
f 37 51 38
f 38 51 52
f 38 52 39
f 39 52 53
f 39 53 40
f 40 53 54
f 40 54 42
f 42 55 43
f 42 54 55
f 44 56 47
f 44 47 45
f 47 56 48
f 48 57 58
f 48 58 49
f 48 56 57
f 49 59 50
f 49 58 59
f 50 59 60
f 50 60 52
f 50 52 51
f 52 60 53
f 53 60 61
f 53 61 54
f 54 61 55
f 55 61 60
f 55 60 62
f 56 63 57
f 57 63 62
f 57 62 64
f 57 64 58
f 58 64 59
f 59 64 60
f 60 64 62

