# https://github.com/mikedh/trimesh
v -0.00544437 -0.06298334 0.00178768
v -0.00584587 -0.06298334 0.00419668
v -0.00539797 -0.06537842 -0.00162875
v -0.00539797 -0.06328952 -0.00454963
v -0.01343806 -0.06298334 -0.00539032
v -0.00729047 -0.06392362 0.00532772
v -0.00670738 -0.06520993 0.00388885
v -0.01181592 -0.06298334 0.00480884
v -0.00923946 -0.06382035 0.00551311
v -0.00539797 -0.06581504 -0.00367395
v -0.01008483 -0.07095487 0.00308663
v -0.01530433 -0.07160165 -0.00555473
v -0.01427738 -0.06969573 -0.00581242
v -0.01259673 -0.06633682 -0.00600715
v -0.01091809 -0.06382035 -0.00596984
v -0.01650480 -0.06298334 -0.00304779
v -0.02600967 -0.07473047 -0.00617855
v -0.02600967 -0.07219770 -0.00502186
v -0.02600967 -0.06953086 -0.00307578
v -0.00871085 -0.06764668 0.00472488
v -0.01091809 -0.06801627 0.00544432
v -0.01039554 -0.06963413 0.00504437
v -0.01549802 -0.06298334 0.00329185
v -0.02600967 -0.07232996 0.00349590
v -0.02600967 -0.07556024 0.00434593
v -0.02517842 -0.07892278 0.00469107
v -0.02266854 -0.07808757 0.00490678
v -0.01595198 -0.07304921 0.00526708
v -0.01259673 -0.06969573 0.00540234
v -0.01178364 -0.07303834 0.00251761
v -0.01305472 -0.07427030 0.00167808
v -0.01483020 -0.07560009 0.00006198
v -0.01657945 -0.07574685 -0.00296967
v -0.01782229 -0.07546603 -0.00451464
v -0.01698700 -0.07327386 -0.00554191
v -0.01146688 -0.07200204 0.00424565
v -0.02098990 -0.07473047 -0.00610976
v -0.01427738 -0.06801627 -0.00603163
v -0.02517842 -0.07640993 -0.00639893
v -0.02600967 -0.06830253 -0.00083936
v -0.01793931 -0.06298334 -0.00095945
v -0.02518649 -0.07866189 -0.00548827
v -0.02588861 -0.08041562 -0.00345357
v -0.02600967 -0.08148997 0.00000484
v -0.01591970 -0.07525406 0.00497908
v -0.01318183 -0.07341336 0.00461061
v -0.01756202 -0.06298334 0.00146237
v -0.02600967 -0.06928990 0.00162794
v -0.02600967 -0.08135409 0.00321956
v -0.02299135 -0.08035041 0.00343527
v -0.01947671 -0.07715092 0.00503038
v -0.01458809 -0.07565263 0.00311811
v -0.01714236 -0.07742630 0.00010162
v -0.01910749 -0.07732847 -0.00334396
v -0.02092332 -0.07753863 -0.00463591
v -0.02266854 -0.07707664 -0.00574013
v -0.02255555 -0.07928330 -0.00329849
v -0.02401427 -0.08057506 -0.00158677
v -0.02351794 -0.08088667 0.00083855
v -0.02069533 -0.07959854 0.00316242
v -0.01727754 -0.07737195 0.00346209
v -0.01923258 -0.07896807 0.00167808
v -0.02098990 -0.07985400 0.00083855
v -0.02054200 -0.07905503 -0.00158211
f 1 2 3
f 1 3 4
f 1 4 5
f 1 5 16
f 1 16 41
f 1 41 47
f 1 47 23
f 1 23 8
f 1 8 2
f 2 6 7
f 2 7 3
f 2 8 9
f 2 9 6
f 3 10 4
f 3 7 11
f 3 11 10
f 4 10 12
f 4 12 13
f 4 13 14
f 4 14 15
f 4 15 5
f 5 15 17
f 5 17 18
f 5 18 19
f 5 19 16
f 6 20 7
f 6 9 21
f 6 21 22
f 6 22 20
f 7 20 11
f 8 23 24
f 8 24 25
f 8 25 9
f 9 25 26
f 9 26 27
f 9 27 28
f 9 28 29
f 9 29 21
f 10 11 30
f 10 30 31
f 10 31 32
f 10 32 33
f 10 33 34
f 10 34 35
f 10 35 12
f 11 36 30
f 11 20 36
f 12 35 13
f 13 35 37
f 13 37 38
f 13 38 14
f 14 38 39
f 14 39 15
f 15 39 17
f 16 19 40
f 16 40 41
f 17 39 42
f 17 42 43
f 17 43 44
f 17 44 49
f 17 49 25
f 17 25 24
f 17 24 48
f 17 48 40
f 17 40 19
f 17 19 18
f 20 22 36
f 21 29 45
f 21 45 22
f 22 45 46
f 22 46 36
f 23 47 48
f 23 48 24
f 25 49 26
f 26 49 27
f 27 49 50
f 27 50 51
f 27 51 28
f 28 45 29
f 28 51 45
f 30 36 52
f 30 52 31
f 31 52 32
f 32 52 53
f 32 53 33
f 33 53 54
f 33 54 34
f 34 54 55
f 34 55 35
f 35 55 56
f 35 56 37
f 36 46 52
f 37 56 39
f 37 39 38
f 39 56 42
f 40 48 47
f 40 47 41
f 42 56 55
f 42 55 57
f 42 57 43
f 43 57 58
f 43 58 44
f 44 58 59
f 44 59 49
f 45 52 46
f 45 51 60
f 45 60 61
f 45 61 52
f 49 59 50
f 50 59 60
f 50 60 51
f 52 61 62
f 52 62 53
f 53 62 63
f 53 63 64
f 53 64 54
f 54 64 57
f 54 57 55
f 57 64 58
f 58 64 63
f 58 63 59
f 59 63 60
f 60 63 62
f 60 62 61

