# https://github.com/mikedh/trimesh
v 0.00030903 -0.03641867 0.00152472
v 0.00030903 -0.03411947 0.00545313
v 0.00030903 -0.03629367 -0.00337806
v 0.00037981 -0.03941519 -0.00333407
v 0.00150458 -0.03941519 -0.00010302
v 0.00338493 -0.03941519 0.00338546
v 0.00501470 -0.03941519 0.00594194
v 0.00686253 -0.03941519 0.00751429
v 0.00587931 -0.03442537 0.00752406
v 0.00030903 -0.02487992 0.00606252
v 0.00030903 -0.03349122 -0.00574880
v 0.00169586 -0.03941519 -0.00626531
v 0.01524664 -0.03941519 0.00636721
v 0.01132525 -0.03900074 0.00834038
v 0.00797964 -0.03589238 0.00800310
v 0.00030903 -0.01900529 0.00605926
v 0.00030903 -0.02236363 0.00607555
v 0.00030903 -0.03080060 -0.00619687
v 0.00503956 -0.03900732 -0.00742379
v 0.00855542 -0.03941519 -0.00706044
v 0.01672146 -0.03941519 0.00436471
v 0.01985092 -0.03738242 0.00345552
v 0.01985092 -0.03534636 0.00645031
v 0.01971510 -0.03190250 0.00812204
v 0.01457331 -0.03329057 0.00844466
v 0.01222813 -0.03526413 0.00848050
v 0.01512804 -0.00581533 0.00820188
v 0.01218987 -0.00668699 0.00775543
v 0.00030903 -0.01565024 0.00598105
v 0.00030903 -0.02015653 -0.00624901
v 0.00755881 -0.03610619 -0.00774803
v 0.00587931 -0.02770540 -0.00752481
v 0.00755881 -0.02518911 -0.00779366
v 0.01166574 -0.03941519 -0.00585959
v 0.01007615 -0.03358332 -0.00798918
v 0.01511274 -0.03064600 -0.00803480
v 0.01860564 -0.02945200 -0.00786698
v 0.01985092 -0.03204723 -0.00710606
v 0.01725898 -0.03941519 0.00167788
v 0.01985092 -0.03765872 0.00083712
v 0.01958120 -0.00581533 -0.00781647
v 0.01863050 -0.00581533 0.00819699
v 0.00251649 -0.00581533 0.00255285
v 0.00362404 -0.00588770 0.00497736
v 0.00030903 -0.01228861 0.00582463
v 0.00030903 -0.01679490 -0.00620339
v 0.01007615 -0.02308727 -0.00807880
v 0.01259349 -0.00924275 -0.00791097
v 0.01431698 -0.03941519 -0.00419763
v 0.01985092 -0.03483653 -0.00502210
v 0.01259349 -0.02099859 -0.00816515
v 0.01679224 -0.00582849 -0.00809835
v 0.01637906 -0.03941519 -0.00167537
v 0.01985092 -0.03698771 -0.00174543
v 0.01091399 -0.00581533 -0.00735373
v 0.00240554 -0.00581533 0.00006154
v 0.00030903 -0.00824610 0.00179519
v 0.00089437 -0.00869673 0.00496921
v 0.00030903 -0.01343656 -0.00604860
v 0.01343324 -0.00584823 -0.00788164
v 0.00383637 -0.00601598 -0.00495855
v 0.00267717 -0.00581533 -0.00260248
v 0.00062466 -0.00985784 -0.00529420
v 0.00030903 -0.00826584 -0.00149614
f 1 2 10
f 1 10 17
f 1 17 16
f 1 16 29
f 1 29 45
f 1 45 57
f 1 57 64
f 1 64 59
f 1 59 46
f 1 46 30
f 1 30 18
f 1 18 11
f 1 11 3
f 1 3 4
f 1 4 2
f 2 4 5
f 2 5 6
f 2 6 7
f 2 7 8
f 2 8 9
f 2 9 10
f 3 11 4
f 4 12 20
f 4 20 34
f 4 34 49
f 4 49 53
f 4 53 39
f 4 39 21
f 4 21 13
f 4 13 8
f 4 8 7
f 4 7 6
f 4 6 5
f 4 11 12
f 8 13 14
f 8 14 15
f 8 15 9
f 9 15 16
f 9 16 17
f 9 17 10
f 11 18 12
f 12 18 19
f 12 19 20
f 13 21 22
f 13 22 23
f 13 23 14
f 14 23 24
f 14 24 25
f 14 25 26
f 14 26 15
f 15 26 27
f 15 27 28
f 15 28 29
f 15 29 16
f 18 30 19
f 19 31 20
f 19 30 32
f 19 32 33
f 19 33 31
f 20 31 35
f 20 35 36
f 20 36 37
f 20 37 38
f 20 38 34
f 21 39 22
f 22 39 40
f 22 40 54
f 22 54 50
f 22 50 38
f 22 38 23
f 23 38 41
f 23 41 24
f 24 41 42
f 24 42 25
f 25 42 26
f 26 42 27
f 27 42 41
f 27 41 55
f 27 55 62
f 27 62 56
f 27 56 43
f 27 43 44
f 27 44 28
f 28 44 45
f 28 45 29
f 30 46 32
f 31 33 47
f 31 47 35
f 32 46 33
f 33 46 48
f 33 48 47
f 34 38 50
f 34 50 49
f 35 47 51
f 35 51 36
f 36 51 52
f 36 52 37
f 37 52 41
f 37 41 38
f 39 53 40
f 40 53 54
f 41 52 55
f 43 56 57
f 43 57 58
f 43 58 44
f 44 58 45
f 45 58 57
f 46 59 48
f 47 48 52
f 47 52 51
f 48 60 52
f 48 59 60
f 49 50 54
f 49 54 53
f 52 60 55
f 55 61 62
f 55 60 59
f 55 59 63
f 55 63 61
f 56 62 64
f 56 64 57
f 59 64 63
f 61 63 62
f 62 63 64

