# https://github.com/mikedh/trimesh
v -0.00083889 -0.06538395 -0.00792125
v -0.00083889 -0.06141566 -0.00778200
v 0.00084055 -0.06141566 -0.00777574
v 0.00084055 -0.06538395 -0.00780703
v 0.00252000 -0.06611269 -0.00737834
v -0.00326997 -0.06610441 -0.00736895
v -0.00321125 -0.06459544 -0.00730480
v -0.00315924 -0.06141566 -0.00707012
v 0.00252000 -0.06141566 -0.00745031
v 0.00546280 -0.06261152 -0.00647715
v 0.00432360 -0.06611269 -0.00676033
v -0.00381357 -0.06611269 0.00060724
v -0.00385216 -0.06297659 -0.00686047
v -0.00395450 -0.06212830 0.00095927
v 0.00084055 -0.06141566 0.00587359
v 0.00760363 -0.06141566 -0.00561663
v 0.00587553 -0.06538395 -0.00615015
v 0.00771268 -0.06611269 -0.00511753
v -0.00302502 -0.06611269 0.00202474
v -0.00158046 -0.06611269 0.00415099
v -0.00045468 -0.06611269 0.00554503
v 0.00068956 -0.06297659 0.00606760
v 0.00135563 -0.06465521 0.00695001
v 0.00214586 -0.06261888 0.00710960
v 0.00414072 -0.06141566 0.00781209
v 0.00896430 -0.06141566 -0.00484530
v 0.00783684 -0.06429751 -0.00523957
v 0.00910858 -0.06304877 -0.00454020
v 0.00923442 -0.06465521 -0.00420539
v 0.01012028 -0.06597154 -0.00311644
v 0.01178462 -0.06608097 -0.00002798
v 0.01172758 -0.06611269 0.00409623
v 0.00051675 -0.06465521 0.00624752
v 0.00086069 -0.06611269 0.00674818
v 0.00257536 -0.06538395 0.00756489
v 0.00419944 -0.06297659 0.00789345
v 0.00581681 -0.06141566 0.00805773
v 0.01045919 -0.06141566 -0.00371098
v 0.01031993 -0.06297659 -0.00359051
v 0.01164201 -0.06141566 -0.00239987
v 0.01190206 -0.06302854 -0.00157221
v 0.01181146 -0.06465521 -0.00098863
v 0.01274263 -0.06297659 0.00083880
v 0.01235506 -0.06465521 0.00083880
v 0.01227117 -0.06538395 0.00251758
v 0.01247250 -0.06297659 0.00419793
v 0.01183495 -0.06447406 0.00483158
v 0.01076622 -0.06611269 0.00556380
v 0.00593090 -0.06538395 0.00799984
v 0.00425481 -0.06538395 0.00795134
v 0.00587553 -0.06297659 0.00805930
v 0.00749625 -0.06141566 0.00795447
v 0.01258156 -0.06141566 -0.00078367
v 0.01285336 -0.06297659 0.00251758
v 0.01307650 -0.06141566 0.00089825
v 0.01318555 -0.06141566 0.00251758
v 0.01243727 -0.06141566 0.00485505
v 0.01147423 -0.06297659 0.00568115
v 0.00946427 -0.06500878 0.00683424
v 0.00760866 -0.06538395 0.00763217
v 0.00755497 -0.06297659 0.00785121
v 0.00917569 -0.06141566 0.00742408
v 0.01073098 -0.06141566 0.00659955
v 0.00967902 -0.06318762 0.00698913
f 1 2 3
f 1 3 4
f 1 4 5
f 1 5 6
f 1 6 2
f 2 6 7
f 2 7 8
f 2 8 15
f 2 15 25
f 2 25 37
f 2 37 52
f 2 52 62
f 2 62 63
f 2 63 57
f 2 57 56
f 2 56 55
f 2 55 53
f 2 53 40
f 2 40 38
f 2 38 26
f 2 26 16
f 2 16 9
f 2 9 3
f 3 9 4
f 4 9 5
f 5 9 10
f 5 10 11
f 5 11 18
f 5 18 32
f 5 32 48
f 5 48 34
f 5 34 21
f 5 21 20
f 5 20 19
f 5 19 12
f 5 12 6
f 6 12 13
f 6 13 7
f 7 13 8
f 8 13 14
f 8 14 15
f 9 16 10
f 10 17 11
f 10 16 17
f 11 17 18
f 12 19 14
f 12 14 13
f 14 19 20
f 14 20 21
f 14 21 22
f 14 22 15
f 15 22 23
f 15 23 24
f 15 24 25
f 16 26 27
f 16 27 17
f 17 27 18
f 18 27 26
f 18 26 28
f 18 28 29
f 18 29 30
f 18 30 31
f 18 31 32
f 21 33 22
f 21 34 33
f 22 33 23
f 23 34 35
f 23 35 24
f 23 33 34
f 24 35 25
f 25 35 36
f 25 36 37
f 26 38 28
f 28 38 29
f 29 38 39
f 29 39 30
f 30 39 40
f 30 40 41
f 30 41 42
f 30 42 31
f 31 42 43
f 31 43 44
f 31 44 45
f 31 45 32
f 32 45 46
f 32 46 47
f 32 47 48
f 34 49 50
f 34 50 35
f 34 48 49
f 35 50 36
f 36 50 37
f 37 50 51
f 37 51 52
f 38 40 39
f 40 53 41
f 41 53 42
f 42 53 43
f 43 54 44
f 43 53 55
f 43 55 56
f 43 56 54
f 44 54 45
f 45 54 46
f 46 54 56
f 46 56 57
f 46 57 47
f 47 58 48
f 47 57 58
f 48 58 59
f 48 59 60
f 48 60 49
f 49 52 51
f 49 51 50
f 49 60 61
f 49 61 52
f 52 61 62
f 57 63 58
f 58 63 59
f 59 63 64
f 59 64 60
f 60 64 62
f 60 62 61
f 62 64 63

