# https://github.com/mikedh/trimesh
v -0.00544955 -0.00736360 -0.01362083
v -0.00550868 -0.00732914 -0.01438704
v -0.00453264 -0.00724236 -0.01542792
v -0.00707804 -0.00480033 -0.00593774
v -0.00731658 -0.00548900 -0.00800111
v -0.00606717 -0.00677710 -0.01422013
v -0.00752151 -0.00489880 -0.01689462
v -0.00532765 -0.00722944 -0.01522815
v -0.00732184 -0.00549269 -0.00867663
v -0.00727405 -0.00480156 -0.01756620
v -0.00760898 -0.00107635 -0.01887256
v -0.00702053 -0.00107635 -0.01053629
v -0.00707925 -0.00107635 -0.00987523
v -0.00711975 -0.00410489 -0.00599951
v -0.00725542 -0.00452216 -0.00544621
v -0.00749073 -0.00480033 -0.00593774
v -0.00760088 -0.00496834 -0.00685114
v -0.00805772 -0.00433260 -0.00685114
v -0.00836227 -0.00387718 -0.00685114
v -0.00732549 -0.00549638 -0.00959004
v -0.00642113 -0.00642507 -0.01395991
v -0.00797793 -0.00418551 -0.01689462
v -0.00824523 -0.00369686 -0.01740849
v -0.00723720 -0.00541576 -0.01415310
v -0.00730807 -0.00548038 -0.01101862
v -0.00731901 -0.00549146 -0.01050344
v -0.00758144 -0.00499173 -0.01324101
v -0.00757335 -0.00495850 -0.01415310
v -0.00802977 -0.00426675 -0.01415310
v -0.00830760 -0.00379041 -0.01506650
v -0.00828128 -0.00107635 -0.01881211
v -0.00770537 -0.00107635 -0.00978454
v -0.00821972 -0.00270479 -0.00619402
v -0.00777098 -0.00403473 -0.00546199
v -0.00794716 -0.00422244 -0.00593774
v -0.00844489 -0.00319713 -0.00685114
v -0.00855262 -0.00319713 -0.01050344
v -0.00856761 -0.00319713 -0.01141684
v -0.00835904 -0.00388211 -0.00776323
v -0.00828371 -0.00347531 -0.00580763
v -0.00761870 -0.00502189 -0.01050344
v -0.00826751 -0.00372825 -0.01689462
v -0.00845542 -0.00319713 -0.01689462
v -0.00832704 -0.00319713 -0.01754780
v -0.00805731 -0.00431414 -0.01141684
v -0.00831611 -0.00381133 -0.01415310
v -0.00834608 -0.00385872 -0.01141684
v -0.00852549 -0.00319713 -0.01506650
v -0.00849633 -0.00319713 -0.01598122
v -0.00862269 -0.00228383 -0.01689462
v -0.00858867 -0.00122344 -0.01689462
v -0.00849876 -0.00107635 -0.01379431
v -0.00802086 -0.00107635 -0.01044824
v -0.00832826 -0.00107635 -0.01151409
v -0.00842626 -0.00115021 -0.01216859
v -0.00850605 -0.00122344 -0.01305570
v -0.00859353 -0.00228383 -0.01141684
v -0.00862795 -0.00228383 -0.01232761
v -0.00867007 -0.00228383 -0.01506650
v -0.00856437 -0.00319713 -0.01232761
v -0.00865671 -0.00228383 -0.01598122
v -0.00860892 -0.00122344 -0.01598122
v -0.00859515 -0.00122344 -0.01506650
f 1 2 3
f 1 3 4
f 1 4 5
f 1 5 2
f 2 6 7
f 2 7 8
f 2 8 3
f 2 5 9
f 2 9 6
f 3 8 10
f 3 10 11
f 3 11 12
f 3 12 13
f 3 13 14
f 3 14 4
f 4 14 15
f 4 15 16
f 4 16 5
f 5 16 17
f 5 17 18
f 5 18 19
f 5 19 9
f 6 9 20
f 6 20 21
f 6 21 7
f 7 22 23
f 7 23 10
f 7 10 8
f 7 21 24
f 7 24 25
f 7 25 26
f 7 26 27
f 7 27 28
f 7 28 29
f 7 29 30
f 7 30 22
f 9 19 20
f 10 31 11
f 10 23 31
f 11 31 52
f 11 52 54
f 11 54 53
f 11 53 32
f 11 32 13
f 11 13 12
f 13 32 33
f 13 33 14
f 14 33 15
f 15 34 16
f 15 33 34
f 16 34 35
f 16 35 17
f 17 35 18
f 18 35 19
f 19 36 37
f 19 37 38
f 19 38 39
f 19 39 20
f 19 35 40
f 19 40 36
f 20 39 41
f 20 41 26
f 20 26 21
f 21 26 25
f 21 25 24
f 22 42 23
f 22 30 42
f 23 42 43
f 23 43 44
f 23 44 31
f 26 41 45
f 26 45 29
f 26 29 27
f 27 29 28
f 29 46 30
f 29 45 47
f 29 47 46
f 30 46 48
f 30 48 49
f 30 49 42
f 31 44 50
f 31 50 51
f 31 51 52
f 32 53 33
f 33 53 54
f 33 54 55
f 33 55 36
f 33 36 40
f 33 40 34
f 34 40 35
f 36 55 56
f 36 56 57
f 36 57 58
f 36 58 37
f 37 58 38
f 38 58 59
f 38 59 60
f 38 60 39
f 39 60 47
f 39 47 41
f 41 47 45
f 42 49 43
f 43 49 50
f 43 50 44
f 46 47 48
f 47 60 48
f 48 60 59
f 48 59 61
f 48 61 49
f 49 61 50
f 50 61 51
f 51 61 62
f 51 62 52
f 52 62 63
f 52 63 56
f 52 56 55
f 52 55 54
f 56 63 57
f 57 63 58
f 58 63 59
f 59 63 62
f 59 62 61

