# https://github.com/mikedh/trimesh
v -0.00429612 0.00304270 -0.02130233
v -0.00430198 0.00304270 -0.02215434
v -0.00445837 0.00304270 -0.02015211
v -0.00438812 0.00287257 -0.01963316
v -0.00436596 0.00228275 -0.01963316
v -0.00437223 0.00226058 -0.02050066
v -0.00545778 0.00087533 -0.02762465
v -0.00554518 0.00136960 -0.02952425
v -0.00514876 0.00228275 -0.02785121
v -0.00501787 0.00304270 -0.02785121
v -0.00489117 0.00304270 -0.02033994
v -0.00776229 0.00094548 -0.00998799
v -0.00728600 0.00093742 -0.01000735
v -0.00451524 0.00276453 -0.01916261
v -0.00709615 -0.00045590 -0.00974400
v -0.00688623 -0.00045590 -0.01050500
v -0.00704514 -0.00107595 -0.00999961
v -0.00456500 0.00182436 -0.01917810
v -0.00454409 0.00180017 -0.01963316
v -0.00453824 0.00179332 -0.02016760
v -0.00592864 0.00079833 -0.02952425
v -0.00702088 -0.00107595 -0.01053792
v -0.00724251 -0.00101185 -0.01938336
v -0.00546029 0.00304270 -0.02952425
v -0.00523030 0.00304270 -0.02870709
v -0.00505760 0.00304270 -0.02067300
v -0.00823314 0.00088702 -0.01002865
v -0.00779741 0.00050523 -0.00989310
v -0.00720864 0.00045726 -0.00988536
v -0.00698994 0.00045726 -0.01050500
v -0.00759335 -0.00045590 -0.00974400
v -0.00711288 -0.00107595 -0.00975562
v -0.00612936 0.00081566 -0.02952425
v -0.00776229 -0.00102515 -0.01937174
v -0.00749633 -0.00107595 -0.01875403
v -0.00772047 -0.00107595 -0.01899415
v -0.00653957 0.00304270 -0.02952425
v -0.00531937 0.00304270 -0.02123843
v -0.00841044 -0.00052363 -0.01689703
v -0.00855095 -0.00107595 -0.01689703
v -0.00856809 -0.00107595 -0.01598306
v -0.00855095 -0.00107595 -0.01507102
v -0.00849868 -0.00107595 -0.01379687
v -0.00845895 -0.00107595 -0.01287515
v -0.00842675 -0.00107595 -0.01233102
v -0.00838870 -0.00107595 -0.01201152
v -0.00832806 -0.00107595 -0.01151580
v -0.00802113 -0.00107595 -0.01044885
v -0.00770542 -0.00107595 -0.00978467
v -0.00541722 0.00304270 -0.02145917
v -0.00573837 0.00304270 -0.02237122
v -0.00597923 0.00304270 -0.02328519
v -0.00650361 0.00304270 -0.02896851
v -0.00735960 0.00190056 -0.02328519
v -0.00734705 0.00188605 -0.02382545
v -0.00643211 0.00084227 -0.02938677
v -0.00645636 0.00107610 -0.02952425
v -0.00828123 -0.00107595 -0.01881406
v -0.00660564 0.00236943 -0.02952425
v -0.00735834 0.00101361 -0.02480526
v -0.00829127 -0.00076270 -0.01872305
v -0.00823607 -0.00091993 -0.01923039
v -0.00650110 0.00136275 -0.02952425
v -0.00735834 0.00081889 -0.02480526
f 1 2 10
f 1 10 25
f 1 25 24
f 1 24 37
f 1 37 53
f 1 53 52
f 1 52 51
f 1 51 50
f 1 50 38
f 1 38 26
f 1 26 11
f 1 11 3
f 1 3 4
f 1 4 5
f 1 5 6
f 1 6 2
f 2 6 7
f 2 7 8
f 2 8 9
f 2 9 10
f 3 11 12
f 3 12 13
f 3 13 4
f 4 13 14
f 4 14 5
f 5 14 15
f 5 15 16
f 5 16 17
f 5 17 18
f 5 18 19
f 5 19 20
f 5 20 6
f 6 20 7
f 7 21 8
f 7 20 22
f 7 22 23
f 7 23 21
f 8 24 25
f 8 25 10
f 8 10 9
f 8 21 33
f 8 33 57
f 8 57 63
f 8 63 59
f 8 59 37
f 8 37 24
f 11 26 27
f 11 27 12
f 12 27 28
f 12 28 29
f 12 29 13
f 13 30 14
f 13 29 30
f 14 30 15
f 15 31 32
f 15 32 17
f 15 17 16
f 15 30 29
f 15 29 31
f 17 32 49
f 17 49 48
f 17 48 47
f 17 47 46
f 17 46 45
f 17 45 44
f 17 44 43
f 17 43 42
f 17 42 41
f 17 41 40
f 17 40 58
f 17 58 36
f 17 36 35
f 17 35 22
f 17 22 19
f 17 19 18
f 19 22 20
f 21 23 34
f 21 34 33
f 22 35 23
f 23 35 36
f 23 36 34
f 26 38 27
f 27 39 40
f 27 40 41
f 27 41 42
f 27 42 43
f 27 43 44
f 27 44 45
f 27 45 46
f 27 46 47
f 27 47 48
f 27 48 49
f 27 49 31
f 27 31 28
f 27 38 50
f 27 50 51
f 27 51 52
f 27 52 53
f 27 53 37
f 27 37 54
f 27 54 55
f 27 55 39
f 28 31 29
f 31 49 32
f 33 56 57
f 33 34 58
f 33 58 56
f 34 36 58
f 37 59 60
f 37 60 40
f 37 40 55
f 37 55 54
f 39 55 40
f 40 60 61
f 40 61 62
f 40 62 58
f 56 58 62
f 56 62 57
f 57 62 63
f 59 63 64
f 59 64 60
f 60 62 61
f 60 64 62
f 62 64 63

