# https://github.com/mikedh/trimesh
v -0.00284797 0.00544526 0.01751424
v -0.00284797 0.00528751 0.01689047
v -0.00284797 0.00607204 0.01324318
v -0.00334501 0.00557783 0.01871845
v -0.00347793 0.00553378 0.01933356
v -0.00544046 0.00457598 0.02924016
v -0.00455272 0.00456129 0.02574880
v -0.00533080 0.00362909 0.02927048
v -0.00284797 0.00511592 0.01324318
v -0.00433862 0.00649535 0.01598082
v -0.00284797 0.00614882 0.01238551
v -0.00769780 0.00416148 0.03424327
v -0.00769780 0.00398989 0.03515726
v -0.00722212 0.00366517 0.03564241
v -0.00706736 0.00368237 0.03515726
v -0.00533887 0.00410987 0.02927048
v -0.00521877 0.00410987 0.02876367
v -0.00530991 0.00362615 0.02876367
v -0.00697194 0.00347721 0.03424327
v -0.00769780 0.00325234 0.03428659
v -0.00769780 0.00285546 0.02419805
v -0.00769780 0.00282526 0.02328407
v -0.00769780 0.00280470 0.02237008
v -0.00769780 0.00299894 0.00683660
v -0.00284797 0.00574480 -0.00278411
v -0.00350214 0.00645969 0.01216026
v -0.00402387 0.00664681 0.01241150
v -0.00502318 0.00690692 0.01233353
v -0.00502318 0.00665100 0.01506683
v -0.00508014 0.00652766 0.01605013
v -0.00284797 0.00690272 0.00302470
v -0.00560282 0.00648025 0.01579889
v -0.00571248 0.00651633 0.01506683
v -0.00580363 0.00663925 0.01233353
v -0.00769780 0.00438509 0.03063496
v -0.00769780 0.00366768 0.03565974
v -0.00769780 0.00340128 0.03518325
v -0.00769780 0.00280973 0.02146042
v -0.00769780 0.00337317 0.00593560
v -0.00731707 0.00458353 -0.00001615
v -0.00296238 0.00610980 -0.00859292
v -0.00284797 0.00576662 -0.00319562
v -0.00284797 0.00693167 0.00211071
v -0.00284797 0.00694971 0.00136999
v -0.00410980 0.00700803 0.00411196
v -0.00502318 0.00709068 0.00411196
v -0.00580648 0.00671855 0.00411196
v -0.00737926 0.00557238 0.01324318
v -0.00769780 0.00442327 0.02967332
v -0.00769780 0.00414302 0.00583598
v -0.00769780 0.00465275 0.00684959
v -0.00713430 0.00510627 0.00046033
v -0.00548936 0.00640977 -0.00367644
v -0.00298137 0.00668876 -0.00859292
v -0.00284797 0.00694510 0.00046033
v -0.00319642 0.00698118 0.00046033
v -0.00502318 0.00706844 0.00319797
v -0.00580126 0.00671351 0.00319797
v -0.00737024 0.00555853 0.01233353
v -0.00735220 0.00553462 0.01142387
v -0.00674787 0.00580732 0.00319797
v -0.00667761 0.00567264 0.00046033
v -0.00502318 0.00664303 -0.00319562
v -0.00669185 0.00572676 0.00136999
f 1 2 9
f 1 9 25
f 1 25 42
f 1 42 55
f 1 55 44
f 1 44 43
f 1 43 31
f 1 31 11
f 1 11 3
f 1 3 4
f 1 4 5
f 1 5 6
f 1 6 7
f 1 7 8
f 1 8 2
f 2 8 9
f 3 10 4
f 3 11 10
f 4 10 5
f 5 10 6
f 6 12 13
f 6 13 14
f 6 14 15
f 6 15 16
f 6 16 7
f 6 10 12
f 7 16 17
f 7 17 8
f 8 18 9
f 8 17 16
f 8 16 15
f 8 15 14
f 8 14 19
f 8 19 20
f 8 20 21
f 8 21 22
f 8 22 23
f 8 23 18
f 9 18 24
f 9 24 25
f 10 11 26
f 10 26 27
f 10 27 28
f 10 28 29
f 10 29 30
f 10 30 12
f 11 31 26
f 12 30 29
f 12 29 32
f 12 32 33
f 12 33 34
f 12 34 35
f 12 35 49
f 12 49 51
f 12 51 50
f 12 50 39
f 12 39 24
f 12 24 38
f 12 38 23
f 12 23 22
f 12 22 21
f 12 21 20
f 12 20 37
f 12 37 36
f 12 36 13
f 13 36 14
f 14 36 37
f 14 37 19
f 18 23 38
f 18 38 24
f 19 37 20
f 24 39 40
f 24 40 41
f 24 41 42
f 24 42 25
f 26 31 27
f 27 31 28
f 28 34 33
f 28 33 32
f 28 32 29
f 28 31 43
f 28 43 44
f 28 44 45
f 28 45 46
f 28 46 34
f 34 46 47
f 34 47 48
f 34 48 35
f 35 48 49
f 39 50 40
f 40 50 51
f 40 51 52
f 40 52 53
f 40 53 54
f 40 54 41
f 41 54 42
f 42 54 55
f 44 55 56
f 44 56 46
f 44 46 45
f 46 56 57
f 46 57 58
f 46 58 47
f 47 58 48
f 48 58 59
f 48 59 51
f 48 51 49
f 51 59 60
f 51 60 52
f 52 60 61
f 52 61 62
f 52 62 53
f 53 63 54
f 53 62 58
f 53 58 57
f 53 57 63
f 54 63 57
f 54 57 56
f 54 56 55
f 58 62 64
f 58 64 61
f 58 61 59
f 59 61 60
f 61 64 62

