# https://github.com/mikedh/trimesh
v -0.00284797 0.00337846 -0.03789320
v -0.00284797 0.00349229 -0.04001624
v -0.00264884 0.00356370 -0.03880962
v 0.00032032 0.00523088 -0.02160006
v 0.00032032 0.00523684 -0.02145114
v -0.00269909 0.00454050 -0.01730817
v -0.00281912 0.00454050 -0.01730817
v -0.00284797 0.00342756 -0.03704552
v -0.00284797 0.00362768 -0.04246384
v -0.00284797 0.00398775 -0.04794325
v -0.00182320 0.00456282 -0.04205145
v 0.00032032 0.00528370 -0.02237520
v 0.00032032 0.00589746 -0.01689578
v 0.00032032 0.00609684 -0.01596409
v -0.00228286 0.00532016 -0.01618174
v -0.00228286 0.00546672 -0.01596409
v -0.00256851 0.00547936 -0.01596409
v -0.00262961 0.00548234 -0.01596409
v -0.00284797 0.00538860 -0.01611683
v -0.00284797 0.00533132 -0.01620083
v -0.00284797 0.00461043 -0.01725853
v -0.00284797 0.00406438 -0.04864202
v -0.00064986 0.00610948 -0.04520164
v 0.00032032 0.00720755 -0.04428904
v 0.00032032 0.00710339 -0.01596409
v -0.00284797 0.00581563 -0.01596409
v -0.00284797 0.00410232 -0.04885585
v 0.00032032 0.00965513 -0.05434290
v 0.00015531 0.00711604 -0.04492671
v 0.00032032 0.00740172 -0.04508708
v -0.00094669 0.01097712 -0.05456437
v -0.00136974 0.00682813 -0.01596409
v 0.00032032 0.01063193 -0.05432763
v -0.00077641 0.01097712 -0.05456437
v -0.00284797 0.00630663 -0.01596409
v -0.00284797 0.00435303 -0.04956226
v 0.00032032 0.00968712 -0.05444218
v -0.00094669 0.01097712 -0.05482020
v -0.00284797 0.00731765 -0.05100562
v -0.00284797 0.00707289 -0.02930942
v -0.00284797 0.00704760 -0.02876721
v -0.00281137 0.00642789 -0.01596409
v -0.00254432 0.00652237 -0.01596409
v -0.00242646 0.00656329 -0.01596409
v -0.00138711 0.00682516 -0.01596409
v 0.00032032 0.01042139 -0.05488512
v -0.00077641 0.01097712 -0.05482020
v -0.00284797 0.00500101 -0.05065432
v 0.00032032 0.00987980 -0.05496912
v 0.00032032 0.01037824 -0.05497294
v -0.00094669 0.01080675 -0.05482020
v -0.00284797 0.00588556 -0.05161656
v -0.00284797 0.00678722 -0.05147146
v -0.00284797 0.00731765 -0.05125763
v -0.00284797 0.00504267 -0.05071923
v -0.00284797 0.00515426 -0.05086434
v -0.00284797 0.00577248 -0.05151346
v -0.00024231 0.00996684 -0.05488893
v 0.00032032 0.00995494 -0.05497294
v -0.00085116 0.01019821 -0.05471329
f 1 2 3
f 1 3 4
f 1 4 5
f 1 5 6
f 1 6 7
f 1 7 8
f 1 8 21
f 1 21 20
f 1 20 19
f 1 19 26
f 1 26 35
f 1 35 41
f 1 41 40
f 1 40 39
f 1 39 54
f 1 54 53
f 1 53 52
f 1 52 57
f 1 57 56
f 1 56 55
f 1 55 48
f 1 48 36
f 1 36 27
f 1 27 22
f 1 22 10
f 1 10 9
f 1 9 2
f 2 9 3
f 3 9 10
f 3 10 11
f 3 11 4
f 4 12 24
f 4 24 30
f 4 30 28
f 4 28 37
f 4 37 49
f 4 49 59
f 4 59 50
f 4 50 46
f 4 46 33
f 4 33 25
f 4 25 14
f 4 14 13
f 4 13 5
f 4 11 12
f 5 13 6
f 6 13 14
f 6 14 15
f 6 15 16
f 6 16 7
f 7 16 17
f 7 17 18
f 7 18 19
f 7 19 20
f 7 20 21
f 7 21 8
f 10 22 23
f 10 23 11
f 11 23 12
f 12 23 24
f 14 25 32
f 14 32 45
f 14 45 44
f 14 44 43
f 14 43 42
f 14 42 35
f 14 35 26
f 14 26 18
f 14 18 17
f 14 17 16
f 14 16 15
f 18 26 19
f 22 27 23
f 23 27 28
f 23 28 29
f 23 29 24
f 24 29 30
f 25 31 32
f 25 33 34
f 25 34 31
f 27 36 37
f 27 37 28
f 28 30 29
f 31 34 47
f 31 47 38
f 31 38 54
f 31 54 39
f 31 39 40
f 31 40 41
f 31 41 42
f 31 42 43
f 31 43 44
f 31 44 45
f 31 45 32
f 33 46 47
f 33 47 34
f 35 42 41
f 36 48 49
f 36 49 37
f 38 47 50
f 38 50 59
f 38 59 51
f 38 51 52
f 38 52 53
f 38 53 54
f 46 50 47
f 48 55 49
f 49 55 56
f 49 56 57
f 49 57 52
f 49 52 58
f 49 58 59
f 51 59 58
f 51 58 60
f 51 60 52
f 52 60 58

