# https://github.com/mikedh/trimesh
v -0.00714198 -0.00820933 0.02519431
v -0.00670916 -0.00758963 0.02516137
v -0.00829918 -0.00708972 0.02551611
v -0.00847518 -0.00681335 0.01963004
v -0.00792075 -0.00721422 0.01871533
v -0.00765146 -0.00722271 0.01768153
v -0.00681604 -0.00814896 0.02393247
v -0.00947716 0.00142669 0.02506255
v -0.01004745 -0.00045693 0.02574922
v -0.00670916 -0.00717744 0.02342570
v -0.00670916 -0.00710198 0.02417572
v -0.00905680 0.00142669 0.02328381
v -0.01005689 -0.00115021 0.02575175
v -0.01003990 -0.00228491 0.02574922
v -0.01021212 -0.00308477 0.02539955
v -0.00915915 -0.00553339 0.02535141
v -0.00906625 -0.00582673 0.01963004
v -0.00905227 -0.00580975 0.01871533
v -0.00845743 -0.00675770 0.01871533
v -0.00824706 -0.00549943 0.00999897
v -0.00834715 -0.00311495 0.00031976
v -0.00817795 -0.00208495 0.00010692
v -0.00979743 0.00142669 0.02344851
v -0.01014980 0.00074379 0.02540209
v -0.01049802 -0.00045693 0.02511070
v -0.01050860 -0.00122378 0.02516137
v -0.00824329 -0.00131810 0.00137383
v -0.00901148 0.00142669 0.02145692
v -0.00901904 0.00142669 0.02237163
v -0.01049122 -0.00228491 0.02511070
v -0.01026084 -0.00316589 0.02419852
v -0.01025102 -0.00315645 0.02328381
v -0.01017851 -0.00306685 0.01963004
v -0.00923582 -0.00482691 0.01233262
v -0.00928303 -0.00311495 0.00411290
v -0.00922449 -0.00298290 0.00320072
v -0.00897258 -0.00249431 0.00046166
v -0.00918521 -0.00199062 -0.00006791
v -0.00899864 -0.00122472 -0.00013379
v -0.00838982 -0.00107852 0.00034510
v -0.00980838 0.00142669 0.02054475
v -0.01027330 0.00108336 0.01323973
v -0.01051955 -0.00045693 0.02419852
v -0.01050709 0.00045517 0.01323973
v -0.01055732 -0.00122378 0.02427200
v -0.00904207 0.00142669 0.02054475
v -0.01051804 -0.00228491 0.02419852
v -0.01050897 -0.00228491 0.02328381
v -0.01048518 -0.00228491 0.02237163
v -0.01038434 -0.00228491 0.01963004
v -0.01013092 -0.00210570 0.01233262
v -0.01033675 -0.00122472 0.01247958
v -0.01014225 -0.00071727 0.00872699
v -0.00932420 -0.00137092 0.00046166
v -0.00998362 0.00104846 0.00872699
v -0.00913121 0.00142669 0.01963004
v -0.00975211 0.00142669 0.01967058
v -0.01027330 0.00045517 0.00872699
v -0.01048745 -0.00045693 0.01323973
v -0.01056298 -0.00137092 0.02237163
v -0.01056714 -0.00137092 0.02328381
v -0.01038094 -0.00122378 0.01323973
v -0.00946205 0.00142669 0.01876347
f 1 2 3
f 1 3 4
f 1 4 5
f 1 5 6
f 1 6 7
f 1 7 2
f 2 8 9
f 2 9 3
f 2 7 10
f 2 10 11
f 2 11 12
f 2 12 8
f 3 9 13
f 3 13 14
f 3 14 15
f 3 15 16
f 3 16 17
f 3 17 4
f 4 17 18
f 4 18 19
f 4 19 5
f 5 19 20
f 5 20 6
f 6 20 21
f 6 21 7
f 7 21 22
f 7 22 10
f 8 23 24
f 8 24 9
f 8 12 29
f 8 29 28
f 8 28 46
f 8 46 56
f 8 56 63
f 8 63 57
f 8 57 41
f 8 41 23
f 9 24 25
f 9 25 26
f 9 26 13
f 10 22 27
f 10 27 11
f 11 27 28
f 11 28 29
f 11 29 12
f 13 26 14
f 14 26 30
f 14 30 15
f 15 30 31
f 15 31 16
f 16 31 17
f 17 31 32
f 17 32 18
f 18 32 33
f 18 33 34
f 18 34 19
f 19 34 20
f 20 34 35
f 20 35 36
f 20 36 21
f 21 37 38
f 21 38 22
f 21 36 37
f 22 38 39
f 22 39 40
f 22 40 27
f 23 41 42
f 23 42 24
f 24 43 25
f 24 42 44
f 24 44 43
f 25 43 45
f 25 45 26
f 26 45 30
f 27 40 28
f 28 40 46
f 30 45 47
f 30 47 31
f 31 47 48
f 31 48 32
f 32 48 49
f 32 49 33
f 33 50 51
f 33 51 34
f 33 49 50
f 34 51 35
f 35 38 36
f 35 51 52
f 35 52 38
f 36 38 37
f 38 52 53
f 38 53 54
f 38 54 39
f 39 54 55
f 39 55 40
f 40 55 56
f 40 56 46
f 41 57 42
f 42 57 55
f 42 55 58
f 42 58 44
f 43 44 45
f 44 58 59
f 44 59 60
f 44 60 61
f 44 61 45
f 45 61 47
f 47 61 60
f 47 60 48
f 48 60 59
f 48 59 49
f 49 59 62
f 49 62 50
f 50 62 51
f 51 62 52
f 52 62 59
f 52 59 53
f 53 58 54
f 53 59 58
f 54 58 55
f 55 57 63
f 55 63 56

