# https://github.com/mikedh/trimesh
v 0.00393215 -0.00489567 -0.02145208
v 0.00393215 -0.00458599 -0.02228245
v 0.00092252 -0.00451200 -0.02176192
v 0.00134075 -0.00502334 -0.02164108
v 0.00227918 -0.00596352 -0.02143969
v 0.00387452 -0.00649057 -0.02143969
v 0.00393215 -0.00938442 -0.04799603
v 0.00393215 -0.00439743 -0.02296720
v 0.00083311 -0.00502399 -0.02176192
v -0.00099720 -0.00364778 -0.02557604
v -0.00170952 -0.00367855 -0.02563801
v -0.00228219 -0.00375515 -0.02584251
v -0.00294204 -0.00437255 -0.02543662
v 0.00235972 -0.00685590 -0.02143969
v 0.00320653 -0.00696524 -0.02143969
v 0.00290431 -0.01024341 -0.04793716
v 0.00289323 -0.01031609 -0.04885118
v 0.00393215 -0.00935692 -0.04885738
v 0.00393215 -0.00435225 -0.02330802
v -0.00294204 -0.00465670 -0.02543662
v 0.00089075 -0.00550063 -0.02187036
v -0.00361668 -0.00365956 -0.04702623
v -0.00361668 -0.00365432 -0.04642824
v -0.00229401 -0.00363141 -0.02692075
v -0.00228219 -0.00364188 -0.02630107
v -0.00274254 -0.00365236 -0.02648078
v -0.00292948 -0.00408513 -0.02611826
v -0.00361668 -0.00437713 -0.03260320
v 0.00253854 -0.01024341 -0.04793716
v 0.00250455 -0.01031609 -0.04885118
v 0.00016143 -0.00921878 -0.05304641
v 0.00275874 -0.01016419 -0.04932214
v 0.00393215 -0.00803046 -0.05083416
v 0.00393215 -0.00596810 -0.04428725
v -0.00361668 -0.00468681 -0.03260320
v -0.00361668 -0.00474443 -0.03284798
v -0.00361668 -0.00506000 -0.03428253
v -0.00361668 -0.00518702 -0.03516248
v -0.00015261 -0.00923646 -0.05250419
v -0.00361668 -0.00370081 -0.04749719
v -0.00361668 -0.00403602 -0.03425155
v -0.00279057 -0.00363795 -0.02694553
v -0.00269894 -0.00362879 -0.02785956
v -0.00361668 -0.00414864 -0.03333752
v -0.00012823 -0.00921878 -0.05304641
v -0.00049399 -0.00864066 -0.05308979
v 0.00012448 -0.00867471 -0.05302782
v 0.00393215 -0.00702874 -0.05132680
v 0.00393215 -0.00768346 -0.05130202
v 0.00393215 -0.00663591 -0.05067614
v -0.00361668 -0.00583650 -0.04976521
v -0.00339279 -0.00611279 -0.05067924
v -0.00293613 -0.00658354 -0.05067924
v -0.00115090 -0.00843835 -0.05250419
v -0.00057823 -0.00891761 -0.05252278
v -0.00361668 -0.00463378 -0.05112541
v -0.00107996 -0.00837747 -0.05308049
v -0.00107996 -0.00802326 -0.05308049
v -0.00050064 -0.00806647 -0.05305261
v 0.00000478 -0.00821510 -0.05296276
v -0.00361668 -0.00587186 -0.05067924
v -0.00361668 -0.00490942 -0.05118118
v -0.00361668 -0.00577037 -0.05101077
v -0.00361668 -0.00553729 -0.05119977
f 1 2 3
f 1 3 4
f 1 4 5
f 1 5 6
f 1 6 7
f 1 7 18
f 1 18 33
f 1 33 49
f 1 49 48
f 1 48 50
f 1 50 34
f 1 34 19
f 1 19 8
f 1 8 2
f 2 8 3
f 3 9 4
f 3 8 10
f 3 10 11
f 3 11 12
f 3 12 13
f 3 13 9
f 4 9 14
f 4 14 5
f 5 14 15
f 5 15 6
f 6 15 16
f 6 16 7
f 7 16 17
f 7 17 18
f 8 19 10
f 9 13 20
f 9 20 21
f 9 21 14
f 10 19 22
f 10 22 23
f 10 23 24
f 10 24 25
f 10 25 11
f 11 25 26
f 11 26 12
f 12 26 13
f 13 26 27
f 13 27 28
f 13 28 35
f 13 35 20
f 14 21 20
f 14 20 29
f 14 29 15
f 15 29 16
f 16 29 30
f 16 30 17
f 17 30 45
f 17 45 31
f 17 31 32
f 17 32 18
f 18 32 33
f 19 34 22
f 20 35 36
f 20 36 37
f 20 37 38
f 20 38 39
f 20 39 29
f 22 34 40
f 22 40 56
f 22 56 62
f 22 62 64
f 22 64 63
f 22 63 61
f 22 61 51
f 22 51 38
f 22 38 37
f 22 37 36
f 22 36 35
f 22 35 28
f 22 28 44
f 22 44 41
f 22 41 23
f 23 41 42
f 23 42 43
f 23 43 24
f 24 43 42
f 24 42 25
f 25 42 26
f 26 42 27
f 27 42 44
f 27 44 28
f 29 39 30
f 30 39 45
f 31 45 46
f 31 46 47
f 31 47 48
f 31 48 49
f 31 49 32
f 32 49 33
f 34 50 40
f 38 51 52
f 38 52 53
f 38 53 54
f 38 54 55
f 38 55 39
f 39 55 45
f 40 50 56
f 41 44 42
f 45 57 46
f 45 55 54
f 45 54 57
f 46 57 58
f 46 58 59
f 46 59 47
f 47 60 48
f 47 59 60
f 48 56 50
f 48 60 59
f 48 59 56
f 51 61 52
f 52 61 54
f 52 54 53
f 54 61 57
f 56 59 58
f 56 58 62
f 57 61 63
f 57 63 64
f 57 64 58
f 58 64 62

