# https://github.com/mikedh/trimesh
v -0.00082123 -0.00827456 0.04520202
v -0.00271036 -0.01007564 0.03360752
v -0.00085927 -0.00824462 0.04469451
v -0.00088347 -0.00830168 0.04665167
v -0.00083967 -0.00831729 0.04611446
v -0.00103792 -0.00893880 0.04611446
v -0.00269826 -0.01008818 0.03425001
v -0.00319734 -0.01016596 0.03425001
v -0.00319734 -0.01010839 0.03355353
v -0.00392291 -0.00868037 0.02731761
v -0.00308900 -0.00857137 0.02731761
v -0.00277606 -0.00813971 0.02731761
v -0.00319734 -0.00779198 0.02876996
v -0.00410848 -0.00767607 0.02876996
v -0.00315585 -0.00814381 0.05430754
v -0.00271094 -0.00824948 0.05483126
v -0.00271036 -0.00916346 0.05316024
v -0.00149436 -0.00927143 0.04611446
v -0.00156928 -0.00922154 0.04687303
v -0.00270575 -0.01007948 0.03516245
v -0.00410848 -0.01013551 0.03516245
v -0.00408486 -0.01011939 0.03430940
v -0.00376558 -0.01009918 0.03365881
v -0.00502251 -0.01020920 0.04976693
v -0.00502251 -0.01022046 0.04885449
v -0.00593595 -0.01028980 0.04885449
v -0.00502251 -0.00844881 0.02731761
v -0.00319734 -0.00790917 0.02731761
v -0.00410848 -0.00773185 0.02731761
v -0.00410848 -0.00771011 0.02785752
v -0.00502251 -0.00793809 0.02731761
v -0.00670878 -0.00795139 0.03783769
v -0.00410848 -0.00809954 0.05433454
v -0.00469113 -0.00834723 0.05484205
v -0.00319734 -0.00829938 0.05488255
v -0.00410848 -0.00904959 0.05443172
v -0.00364802 -0.00913224 0.05388102
v -0.00328494 -0.00918469 0.05344640
v -0.00489514 -0.01005542 0.05082515
v -0.00451248 -0.01007026 0.05036623
v -0.00445312 -0.01009380 0.04976693
v -0.00228332 -0.00955494 0.04611446
v -0.00273457 -0.01005031 0.03662290
v -0.00272189 -0.01006310 0.03607490
v -0.00358693 -0.01005952 0.04487268
v -0.00670878 -0.01022020 0.04801223
v -0.00461045 -0.01006515 0.03465224
v -0.00551583 -0.01006412 0.05116799
v -0.00593595 -0.01025219 0.04976693
v -0.00670878 -0.01022379 0.04892468
v -0.00548643 -0.00821699 0.02731761
v -0.00670878 -0.00917574 0.04976693
v -0.00647422 -0.00911254 0.05305226
v -0.00474646 -0.00817170 0.05433454
v -0.00670878 -0.00805579 0.03713581
v -0.00410848 -0.00837256 0.05489065
v -0.00670878 -0.01017185 0.04716998
v -0.00670878 -0.01001551 0.04484568
v -0.00670878 -0.00922333 0.03813734
v -0.00596131 -0.01012477 0.05073876
v -0.00670878 -0.01015931 0.04979662
v -0.00670878 -0.00899919 0.03772161
v -0.00670878 -0.00858698 0.03717900
v -0.00668976 -0.00990472 0.05047421
f 1 2 3
f 1 3 4
f 1 4 5
f 1 5 6
f 1 6 2
f 2 7 8
f 2 8 9
f 2 9 10
f 2 10 11
f 2 11 12
f 2 12 3
f 2 6 7
f 3 12 13
f 3 13 14
f 3 14 15
f 3 15 4
f 4 15 16
f 4 16 17
f 4 17 6
f 4 6 5
f 6 18 7
f 6 17 19
f 6 19 18
f 7 20 8
f 7 18 20
f 8 21 22
f 8 22 23
f 8 23 9
f 8 20 24
f 8 24 25
f 8 25 26
f 8 26 21
f 9 23 10
f 10 23 27
f 10 27 51
f 10 51 31
f 10 31 29
f 10 29 28
f 10 28 12
f 10 12 11
f 12 28 13
f 13 28 29
f 13 29 30
f 13 30 14
f 14 30 31
f 14 31 32
f 14 32 33
f 14 33 15
f 15 33 16
f 16 34 35
f 16 35 36
f 16 36 17
f 16 33 34
f 17 36 37
f 17 37 38
f 17 38 39
f 17 39 40
f 17 40 18
f 17 18 19
f 18 40 41
f 18 41 42
f 18 42 43
f 18 43 44
f 18 44 20
f 20 44 45
f 20 45 24
f 21 26 46
f 21 46 22
f 22 46 47
f 22 47 23
f 23 47 27
f 24 41 40
f 24 40 39
f 24 39 48
f 24 48 49
f 24 49 26
f 24 26 25
f 24 45 41
f 26 49 50
f 26 50 46
f 27 47 51
f 29 31 30
f 31 51 32
f 32 52 53
f 32 53 54
f 32 54 33
f 32 51 55
f 32 55 63
f 32 63 62
f 32 62 59
f 32 59 58
f 32 58 57
f 32 57 46
f 32 46 50
f 32 50 61
f 32 61 52
f 33 54 34
f 34 54 53
f 34 53 36
f 34 36 56
f 34 56 35
f 35 56 36
f 36 53 48
f 36 48 37
f 37 48 38
f 38 48 39
f 41 45 42
f 42 45 43
f 43 45 44
f 46 57 47
f 47 58 59
f 47 59 51
f 47 57 58
f 48 60 49
f 48 53 60
f 49 61 50
f 49 60 61
f 51 59 62
f 51 62 63
f 51 63 55
f 52 61 64
f 52 64 53
f 53 64 61
f 53 61 60

