# https://github.com/mikedh/trimesh
v -0.00054725 -0.00778230 0.02139146
v -0.00090551 -0.00822663 0.02192378
v -0.00054725 -0.00805487 0.02093196
v -0.00054725 -0.00729318 0.02067585
v -0.00277640 -0.00813982 0.02731222
v -0.00084218 -0.00828077 0.02145926
v -0.00308822 -0.00857076 0.02731222
v -0.00066245 -0.00912803 0.01324603
v -0.00054725 -0.00960222 0.00411130
v -0.00054725 -0.00685103 0.01968655
v -0.00319678 -0.00790925 0.02731222
v -0.00084941 -0.00917968 0.01416001
v -0.00373718 -0.00866628 0.02731222
v -0.00137052 -0.00940060 0.01324603
v -0.00054725 -0.00965792 0.00319732
v -0.00054725 -0.00661736 0.01881274
v -0.00410871 -0.00773159 0.02731222
v -0.00137052 -0.00945816 0.01232954
v -0.00410871 -0.00869335 0.02731222
v -0.00228365 -0.00950981 0.01324603
v -0.00137052 -0.00949145 0.01141557
v -0.00137052 -0.00970988 0.00502527
v -0.00137052 -0.00973789 0.00319732
v -0.00054725 -0.00966197 0.00228335
v -0.00054725 -0.00655948 0.01792388
v -0.00670878 -0.00710400 0.02417607
v -0.00502184 -0.00793819 0.02731222
v -0.00228365 -0.00956706 0.01232954
v -0.00228365 -0.00960409 0.01141557
v -0.00502184 -0.00844848 0.02731222
v -0.00670878 -0.00831593 0.02516287
v -0.00455442 -0.00917128 0.02035696
v -0.00319678 -0.00963645 0.01050410
v -0.00319678 -0.00968343 0.00319732
v -0.00319678 -0.00967690 0.00228335
v -0.00137052 -0.00971735 0.00228335
v -0.00054725 -0.00938753 0.00166566
v -0.00054725 -0.00660149 0.01689440
v -0.00670878 -0.00759250 0.02516036
v -0.00484331 -0.00818369 0.00411130
v -0.00548202 -0.00822009 0.00631086
v -0.00670878 -0.00717898 0.02342531
v -0.00548685 -0.00821636 0.02731222
v -0.00319678 -0.00957609 0.01232954
v -0.00319678 -0.00961405 0.01141557
v -0.00670878 -0.00816844 0.02567761
v -0.00670878 -0.00827610 0.02427400
v -0.00485960 -0.00929014 0.00228335
v -0.00498746 -0.00930383 0.01050410
v -0.00410871 -0.00955057 0.01050410
v -0.00410871 -0.00955431 0.00228335
v -0.00410871 -0.00934459 0.00166064
v -0.00319678 -0.00939593 0.00169579
v -0.00054725 -0.00896592 0.00166566
v -0.00054725 -0.00769923 0.00776720
v -0.00462257 -0.00820174 0.00352625
v -0.00485960 -0.00879977 0.00228335
v -0.00477878 -0.00909069 0.00171839
v -0.00670878 -0.00822601 0.02381199
v -0.00670878 -0.00794130 0.02344540
v -0.00410871 -0.00889685 0.00166064
v -0.00410871 -0.00859783 0.00228335
v -0.00054725 -0.00875061 0.00228335
v -0.00054725 -0.00781529 0.00682309
f 1 2 3
f 1 3 9
f 1 9 15
f 1 15 24
f 1 24 37
f 1 37 54
f 1 54 63
f 1 63 64
f 1 64 55
f 1 55 38
f 1 38 25
f 1 25 16
f 1 16 10
f 1 10 4
f 1 4 5
f 1 5 2
f 2 6 3
f 2 5 7
f 2 7 6
f 3 6 8
f 3 8 9
f 4 10 5
f 5 11 17
f 5 17 27
f 5 27 43
f 5 43 30
f 5 30 19
f 5 19 13
f 5 13 7
f 5 10 11
f 6 12 8
f 6 7 12
f 7 13 14
f 7 14 12
f 8 12 15
f 8 15 9
f 10 16 11
f 11 16 17
f 12 14 18
f 12 18 15
f 13 19 20
f 13 20 14
f 14 20 18
f 15 18 21
f 15 21 22
f 15 22 23
f 15 23 24
f 16 25 26
f 16 26 17
f 17 26 27
f 18 20 28
f 18 28 29
f 18 29 21
f 19 30 31
f 19 31 32
f 19 32 20
f 20 32 28
f 21 29 22
f 22 29 33
f 22 33 23
f 23 34 35
f 23 35 36
f 23 36 24
f 23 33 34
f 24 36 37
f 25 38 26
f 26 39 27
f 26 38 40
f 26 40 41
f 26 41 42
f 26 42 60
f 26 60 59
f 26 59 47
f 26 47 31
f 26 31 46
f 26 46 39
f 27 39 43
f 28 44 45
f 28 45 29
f 28 32 44
f 29 45 33
f 30 43 46
f 30 46 31
f 31 47 48
f 31 48 49
f 31 49 32
f 32 49 50
f 32 50 45
f 32 45 44
f 33 45 50
f 33 50 34
f 34 51 35
f 34 50 51
f 35 51 52
f 35 52 53
f 35 53 36
f 36 53 37
f 37 53 52
f 37 52 61
f 37 61 54
f 38 55 56
f 38 56 40
f 39 46 43
f 40 56 57
f 40 57 41
f 41 57 58
f 41 58 48
f 41 48 59
f 41 59 60
f 41 60 42
f 47 59 48
f 48 58 52
f 48 52 51
f 48 51 49
f 49 51 50
f 52 58 61
f 54 61 62
f 54 62 63
f 55 64 56
f 56 64 63
f 56 63 62
f 56 62 57
f 57 62 61
f 57 61 58

