# https://github.com/mikedh/trimesh
v -0.00670904 -0.00959653 0.05060481
v -0.00670904 -0.00983091 0.05053562
v -0.00670904 -0.00917575 0.04976905
v -0.00688683 -0.00902729 0.05068230
v -0.00702109 -0.00917455 0.05119427
v -0.00670904 -0.01010228 0.05028794
v -0.00776284 -0.00931418 0.05123855
v -0.00670904 -0.00858694 0.03717868
v -0.00677947 -0.00793464 0.03786777
v -0.00776284 -0.00879840 0.05068230
v -0.00776284 -0.00899459 0.05123855
v -0.00940354 -0.00795660 0.04794255
v -0.00833022 -0.00922992 0.05121502
v -0.00776284 -0.00963615 0.05068230
v -0.00724346 -0.01000538 0.05013435
v -0.00737139 -0.01007411 0.04952552
v -0.00680611 -0.01014763 0.04980226
v -0.00674439 -0.01022090 0.04892637
v -0.00674439 -0.01021851 0.04801312
v -0.00670904 -0.01001564 0.04484719
v -0.00670904 -0.00898337 0.03769065
v -0.00776284 -0.00846879 0.03710396
v -0.00677947 -0.00802605 0.03712887
v -0.00776284 -0.00778284 0.03790098
v -0.00940354 -0.00781507 0.04501878
v -0.00940354 -0.00809455 0.04873542
v -0.00833022 -0.00900820 0.05121502
v -0.00940354 -0.00876618 0.04937884
v -0.00915717 -0.00914687 0.04935532
v -0.00846079 -0.00932897 0.05068230
v -0.00771061 -0.00986790 0.04980641
v -0.00922496 -0.00918792 0.04885580
v -0.00867551 -0.00947122 0.04885580
v -0.00788075 -0.00987220 0.04885580
v -0.00742415 -0.01009727 0.04885580
v -0.00742942 -0.01009917 0.04794255
v -0.00738326 -0.01007889 0.04702931
v -0.00733684 -0.01005884 0.04642878
v -0.00677947 -0.01016433 0.04709987
v -0.00831071 -0.00918744 0.03916153
v -0.00772406 -0.00922682 0.03884051
v -0.00670904 -0.00922348 0.03813621
v -0.00867551 -0.00842703 0.03713302
v -0.00776284 -0.00796447 0.03710396
v -0.00867551 -0.00779000 0.03790098
v -0.00940354 -0.00778404 0.04419962
v -0.00940354 -0.00828382 0.04902323
v -0.00940354 -0.00906142 0.04885580
v -0.00871086 -0.00935236 0.04970401
v -0.00933496 -0.00917240 0.04794255
v -0.00867551 -0.00947170 0.04702931
v -0.00783986 -0.00986742 0.04702931
v -0.00931834 -0.00914162 0.04702931
v -0.00940354 -0.00901679 0.04618663
v -0.00927745 -0.00840602 0.03790098
v -0.00922918 -0.00833967 0.03725755
v -0.00739381 -0.00917336 0.03828426
v -0.00867551 -0.00799908 0.03713302
v -0.00922918 -0.00809479 0.03725755
v -0.00927745 -0.00803918 0.03790098
v -0.00940354 -0.00780456 0.04332373
v -0.00940354 -0.00873802 0.04338047
v -0.00940354 -0.00851557 0.04284358
v -0.00940354 -0.00801579 0.04278132
f 1 2 6
f 1 6 20
f 1 20 42
f 1 42 21
f 1 21 8
f 1 8 3
f 1 3 4
f 1 4 5
f 1 5 2
f 2 5 7
f 2 7 6
f 3 8 9
f 3 9 4
f 4 10 11
f 4 11 5
f 4 9 12
f 4 12 10
f 5 11 7
f 6 7 13
f 6 13 14
f 6 14 15
f 6 15 16
f 6 16 17
f 6 17 18
f 6 18 19
f 6 19 20
f 7 11 27
f 7 27 13
f 8 21 22
f 8 22 23
f 8 23 9
f 9 23 24
f 9 24 25
f 9 25 12
f 10 12 26
f 10 26 11
f 11 26 27
f 12 25 46
f 12 46 61
f 12 61 64
f 12 64 63
f 12 63 62
f 12 62 54
f 12 54 48
f 12 48 28
f 12 28 47
f 12 47 26
f 13 27 28
f 13 28 29
f 13 29 30
f 13 30 14
f 14 30 15
f 15 30 31
f 15 31 16
f 16 32 33
f 16 33 34
f 16 34 35
f 16 35 18
f 16 18 17
f 16 31 32
f 18 35 36
f 18 36 19
f 19 36 37
f 19 37 38
f 19 38 39
f 19 39 20
f 20 39 38
f 20 38 40
f 20 40 41
f 20 41 42
f 21 42 43
f 21 43 22
f 22 44 23
f 22 43 58
f 22 58 44
f 23 44 24
f 24 44 45
f 24 45 46
f 24 46 25
f 26 47 27
f 27 47 28
f 28 48 29
f 29 49 30
f 29 48 32
f 29 32 49
f 30 49 31
f 31 49 32
f 32 48 50
f 32 50 33
f 33 50 34
f 34 50 35
f 35 50 36
f 36 50 51
f 36 51 52
f 36 52 37
f 37 52 40
f 37 40 38
f 40 52 51
f 40 51 53
f 40 53 54
f 40 54 55
f 40 55 56
f 40 56 57
f 40 57 41
f 41 57 42
f 42 57 43
f 43 56 59
f 43 59 58
f 43 57 56
f 44 58 45
f 45 58 59
f 45 59 60
f 45 60 61
f 45 61 46
f 48 54 50
f 50 54 53
f 50 53 51
f 54 62 55
f 55 60 59
f 55 59 56
f 55 62 63
f 55 63 64
f 55 64 60
f 60 64 61

