# https://github.com/mikedh/trimesh
v 0.00896368 -0.03007887 0.03462660
v 0.01088268 -0.03028761 0.03468701
v 0.01221852 -0.03046539 0.03015704
v 0.00839634 -0.03007887 0.03168108
v -0.01066031 -0.03081258 0.03466010
v 0.01017746 -0.03149437 0.03461746
v 0.01165571 -0.03239223 0.03390519
v -0.00441734 -0.03240639 0.03472052
v 0.00559356 -0.03211217 0.03473016
v 0.00795106 -0.03211217 0.03466518
v 0.01216427 -0.03323660 0.03185673
v 0.01145454 -0.03243104 0.02983467
v -0.00485810 -0.03387748 0.02954428
v -0.01081627 -0.03296913 0.02981842
v -0.01087278 -0.03089964 0.03030224
v -0.01057441 -0.03360739 0.03314368
v -0.01005680 -0.03258313 0.03421792
v -0.00942392 -0.03152269 0.03467229
v 0.01030630 -0.03283067 0.03403262
v 0.00715317 -0.03306458 0.03439561
v 0.00860881 -0.03308818 0.03418543
v 0.01100926 -0.03355599 0.03262180
v -0.00765636 -0.03196428 0.03468092
v -0.00647874 -0.03270113 0.03462203
v -0.00147216 -0.03299430 0.03467939
v 0.00353442 -0.03270113 0.03470985
v 0.00529972 -0.03270113 0.03466366
v 0.00751256 -0.03458234 0.03164351
v 0.00982034 -0.03384287 0.03088911
v 0.00941348 -0.03330320 0.02979558
v -0.00294362 -0.03461538 0.02979964
v -0.00484228 -0.03451154 0.02982807
v -0.00741677 -0.03412922 0.02992402
v 0.00067739 -0.03470139 0.02977680
v -0.00944652 -0.03386070 0.03027888
v -0.01014044 -0.03399600 0.03187755
v -0.00684265 -0.03479317 0.03232836
v -0.00730601 -0.03423463 0.03348992
v -0.00868932 -0.03362574 0.03369146
v -0.00705512 -0.03337610 0.03427529
v 0.00735660 -0.03418061 0.03351835
v 0.00896594 -0.03399233 0.03301778
v 0.00577891 -0.03354498 0.03432250
v -0.00363753 -0.03367504 0.03439357
v 0.00055986 -0.03328904 0.03460527
v 0.00296256 -0.03534227 0.03181663
v 0.00527938 -0.03499299 0.03122468
v 0.00715995 -0.03383710 0.02981842
v -0.00063811 -0.03538580 0.03086372
v -0.00400370 -0.03528458 0.03104344
v -0.00625949 -0.03488443 0.03099927
v 0.00275914 -0.03474020 0.02995702
v -0.00809712 -0.03455664 0.03159579
v -0.00515420 -0.03506117 0.03240451
v -0.00410542 -0.03476223 0.03344575
v -0.00542091 -0.03414285 0.03385239
v 0.00400683 -0.03402118 0.03413111
v 0.00224379 -0.03450420 0.03388285
v 0.00564555 -0.03447483 0.03344423
v -0.00172983 -0.03454773 0.03387372
v 0.00154083 -0.03538423 0.03098709
v 0.00039712 -0.03489229 0.03355642
v -0.00231073 -0.03543667 0.03216083
v 0.00455608 -0.03442815 0.02993519
f 1 2 3
f 1 3 4
f 1 4 5
f 1 5 2
f 2 6 7
f 2 7 3
f 2 5 8
f 2 8 9
f 2 9 10
f 2 10 6
f 3 7 11
f 3 11 12
f 3 12 13
f 3 13 14
f 3 14 15
f 3 15 4
f 4 15 5
f 5 15 14
f 5 14 16
f 5 16 17
f 5 17 18
f 5 18 8
f 6 19 7
f 6 10 20
f 6 20 21
f 6 21 19
f 7 19 22
f 7 22 11
f 8 18 23
f 8 23 24
f 8 24 25
f 8 25 26
f 8 26 9
f 9 26 27
f 9 27 10
f 10 27 20
f 11 22 28
f 11 28 29
f 11 29 12
f 12 29 30
f 12 30 13
f 13 31 32
f 13 32 33
f 13 33 14
f 13 30 34
f 13 34 31
f 14 33 35
f 14 35 36
f 14 36 16
f 16 36 37
f 16 37 38
f 16 38 39
f 16 39 17
f 17 39 40
f 17 40 24
f 17 24 18
f 18 24 23
f 19 21 41
f 19 41 42
f 19 42 22
f 20 27 43
f 20 43 21
f 21 43 41
f 22 42 28
f 24 40 44
f 24 44 25
f 25 44 45
f 25 45 26
f 26 45 27
f 27 45 43
f 28 42 41
f 28 41 46
f 28 46 47
f 28 47 29
f 29 47 48
f 29 48 30
f 30 48 34
f 31 49 50
f 31 50 32
f 31 34 49
f 32 50 51
f 32 51 33
f 33 51 35
f 34 48 52
f 34 52 49
f 35 51 53
f 35 53 36
f 36 53 37
f 37 50 54
f 37 54 38
f 37 53 51
f 37 51 50
f 38 40 39
f 38 54 55
f 38 55 56
f 38 56 40
f 40 56 44
f 41 43 57
f 41 57 58
f 41 58 59
f 41 59 46
f 43 45 57
f 44 56 60
f 44 60 45
f 45 60 58
f 45 58 57
f 46 61 47
f 46 59 62
f 46 62 63
f 46 63 61
f 47 61 52
f 47 52 64
f 47 64 48
f 48 64 52
f 49 63 50
f 49 52 61
f 49 61 63
f 50 63 54
f 54 63 55
f 55 63 62
f 55 62 60
f 55 60 56
f 58 60 62
f 58 62 59

