# https://github.com/mikedh/trimesh
v 0.02207871 0.01809967 0.03007956
v 0.02441423 0.01468735 0.02969846
v 0.02813248 0.00439567 0.03016986
v 0.02824037 0.00439567 0.03178602
v 0.02207871 0.01842108 0.03182389
v 0.02207871 0.02170575 0.02969943
v 0.03015012 0.00662952 0.02969846
v 0.03055100 0.00441846 0.02980963
v 0.02487569 0.01839372 0.02969846
v 0.02998164 0.00439567 0.03421050
v 0.02867776 0.00439567 0.03299972
v 0.02207871 0.01953344 0.03345267
v 0.02207871 0.02768245 0.03228461
v 0.02208120 0.02593412 0.02973632
v 0.02769093 0.02002808 0.02973050
v 0.02974510 0.00825248 0.02969846
v 0.02896742 0.01860115 0.02987420
v 0.03055764 0.00589554 0.03455374
v 0.03055764 0.01137076 0.03048930
v 0.02594801 0.01684142 0.02969846
v 0.02207871 0.02238503 0.03454645
v 0.02207871 0.02079397 0.03416535
v 0.02213846 0.02716502 0.03344490
v 0.02394779 0.02604581 0.03279242
v 0.02525332 0.02510440 0.03196468
v 0.02356684 0.02650626 0.03105100
v 0.02254100 0.02699178 0.03039561
v 0.02208120 0.02355894 0.03461685
v 0.02208701 0.02474197 0.03457558
v 0.02493462 0.02443880 0.03001111
v 0.02568574 0.02332188 0.02987226
v 0.02925459 0.00988912 0.02969846
v 0.02878815 0.01122032 0.02969846
v 0.02674892 0.01551023 0.02969846
v 0.02800217 0.02032669 0.02989022
v 0.02808766 0.02045662 0.02997372
v 0.02853999 0.02096721 0.03122141
v 0.02903880 0.02027882 0.03250987
v 0.03055764 0.00707401 0.03459889
v 0.03050369 0.01057752 0.03465811
v 0.03055764 0.00884058 0.03465083
v 0.02296179 0.02575632 0.03405175
v 0.02484332 0.02437726 0.03377309
v 0.02616048 0.02357489 0.03322595
v 0.02742618 0.02210693 0.03317061
v 0.02712573 0.02294349 0.03153405
v 0.02622936 0.02397608 0.03156464
v 0.02465824 0.02545088 0.03080681
v 0.02430550 0.02150060 0.03464015
v 0.02651321 0.01987992 0.03460471
v 0.02592477 0.02105839 0.03455908
v 0.02493379 0.02284775 0.03440275
v 0.02599615 0.02342673 0.03009072
v 0.02876325 0.01951977 0.03378037
v 0.02921973 0.01711268 0.03438673
v 0.02917408 0.01546692 0.03458626
v 0.02857485 0.01678900 0.03458820
v 0.02769093 0.01752298 0.03463238
v 0.02621940 0.02150060 0.03440130
v 0.02719378 0.02192230 0.03365511
v 0.02680702 0.02032213 0.03450713
v 0.02839474 0.01842791 0.03436391
v 0.02754320 0.01921432 0.03449596
f 1 2 3
f 1 3 4
f 1 4 5
f 1 5 12
f 1 12 22
f 1 22 21
f 1 21 13
f 1 13 6
f 1 6 2
f 2 7 8
f 2 8 3
f 2 6 9
f 2 9 20
f 2 20 34
f 2 34 33
f 2 33 32
f 2 32 16
f 2 16 7
f 3 8 10
f 3 10 11
f 3 11 4
f 4 11 12
f 4 12 5
f 6 13 14
f 6 14 15
f 6 15 9
f 7 16 15
f 7 15 17
f 7 17 8
f 8 18 10
f 8 17 19
f 8 19 18
f 9 15 20
f 10 18 21
f 10 21 22
f 10 22 11
f 11 22 12
f 13 23 24
f 13 24 25
f 13 25 26
f 13 26 27
f 13 27 14
f 13 21 28
f 13 28 29
f 13 29 23
f 14 27 30
f 14 30 31
f 14 31 15
f 15 16 32
f 15 32 33
f 15 33 34
f 15 34 20
f 15 31 35
f 15 35 17
f 17 35 36
f 17 36 37
f 17 37 38
f 17 38 19
f 18 19 41
f 18 41 39
f 18 39 28
f 18 28 21
f 19 40 41
f 19 38 40
f 23 42 43
f 23 43 24
f 23 29 42
f 24 43 44
f 24 44 25
f 25 44 45
f 25 45 46
f 25 46 47
f 25 47 48
f 25 48 26
f 26 48 27
f 27 48 30
f 28 39 41
f 28 41 49
f 28 49 29
f 29 49 50
f 29 50 51
f 29 51 52
f 29 52 42
f 30 53 31
f 30 48 53
f 31 36 35
f 31 53 36
f 36 53 37
f 37 53 46
f 37 46 38
f 38 54 55
f 38 55 40
f 38 46 45
f 38 45 54
f 40 55 56
f 40 56 57
f 40 57 58
f 40 58 49
f 40 49 41
f 42 52 59
f 42 59 43
f 43 59 60
f 43 60 44
f 44 60 45
f 45 60 54
f 46 53 48
f 46 48 47
f 49 58 50
f 50 58 57
f 50 57 61
f 50 61 51
f 51 61 59
f 51 59 52
f 54 62 55
f 54 60 59
f 54 59 62
f 55 62 61
f 55 61 63
f 55 63 57
f 55 57 56
f 57 63 61
f 59 61 62

