# https://github.com/mikedh/trimesh
v -0.01544842 -0.01840044 -0.02826508
v -0.01536803 -0.01898938 -0.03302846
v -0.01544842 -0.01880534 -0.02928463
v -0.01544842 -0.02189642 -0.02928341
v -0.01519411 -0.02235988 -0.02826508
v -0.00051867 -0.02372013 -0.02826508
v -0.01536803 -0.01965277 -0.03413267
v -0.00051721 -0.02436093 -0.03328853
v -0.00060929 -0.02482355 -0.03424657
v -0.01536803 -0.02044165 -0.03437873
v -0.01536803 -0.02192571 -0.03269897
v -0.01169223 -0.02436846 -0.02826508
v -0.01454810 -0.02246696 -0.03299375
v -0.01378225 -0.02293961 -0.03303151
v -0.00070283 -0.02694506 -0.02826508
v -0.00051721 -0.02668071 -0.02928463
v -0.00051721 -0.02420700 -0.02928463
v -0.00051721 -0.02427393 -0.03240419
v -0.00051721 -0.02675851 -0.03075001
v -0.00070137 -0.02660375 -0.03362960
v -0.00070137 -0.02584331 -0.03443050
v -0.01105353 -0.02345410 -0.03430382
v -0.01207662 -0.02316549 -0.03425083
v -0.01452326 -0.02185711 -0.03420333
v -0.01523942 -0.02136605 -0.03410161
v -0.00530379 -0.02503938 -0.03448653
v -0.00707081 -0.02445212 -0.03448105
v -0.01510788 -0.02198761 -0.03344140
v -0.01180769 -0.02404220 -0.03269897
v -0.01059168 -0.02460102 -0.03269897
v -0.01030376 -0.02498417 -0.02826508
v -0.01291116 -0.02344155 -0.03284636
v -0.01216139 -0.02373769 -0.03348891
v -0.00176976 -0.02693753 -0.02826508
v -0.00176830 -0.02656861 -0.03356565
v -0.00235877 -0.02604576 -0.03429407
v -0.00147307 -0.02586172 -0.03444085
v -0.01001876 -0.02420784 -0.03420089
v -0.00795505 -0.02445212 -0.03440492
v -0.01411987 -0.02239083 -0.03389758
v -0.00618657 -0.02503938 -0.03443355
v -0.01126546 -0.02417438 -0.03347855
v -0.00970452 -0.02482689 -0.03350353
v -0.00924706 -0.02510463 -0.03299375
v -0.00855136 -0.02565592 -0.02826508
v -0.00294631 -0.02688232 -0.02826508
v -0.00383055 -0.02639795 -0.03328853
v -0.00310270 -0.02616706 -0.03400538
v -0.00500856 -0.02592697 -0.03390976
v -0.00618657 -0.02542085 -0.03423195
v -0.00530379 -0.02550200 -0.03429225
v -0.00817866 -0.02483610 -0.03423865
v -0.00904682 -0.02479845 -0.03396579
v -0.00795505 -0.02516905 -0.03396519
v -0.00827074 -0.02537819 -0.03337441
v -0.00859813 -0.02535225 -0.03269897
v -0.00677265 -0.02623064 -0.02826508
v -0.00383055 -0.02677189 -0.02826508
v -0.00530379 -0.02619049 -0.03269897
v -0.00471479 -0.02624152 -0.03328853
v -0.00589864 -0.02581403 -0.03377577
v -0.00653296 -0.02587510 -0.03318316
v -0.00765981 -0.02561661 -0.03284636
f 1 2 3
f 1 3 4
f 1 4 5
f 1 5 12
f 1 12 31
f 1 31 45
f 1 45 57
f 1 57 58
f 1 58 46
f 1 46 34
f 1 34 15
f 1 15 6
f 1 6 2
f 2 7 3
f 2 6 8
f 2 8 9
f 2 9 7
f 3 7 10
f 3 10 4
f 4 10 11
f 4 11 5
f 5 11 13
f 5 13 14
f 5 14 12
f 6 15 16
f 6 16 17
f 6 17 18
f 6 18 8
f 7 9 10
f 8 18 17
f 8 17 16
f 8 16 19
f 8 19 9
f 9 19 20
f 9 20 21
f 9 21 10
f 10 22 23
f 10 23 24
f 10 24 25
f 10 25 11
f 10 21 26
f 10 26 27
f 10 27 22
f 11 25 28
f 11 28 13
f 12 29 30
f 12 30 31
f 12 14 32
f 12 32 29
f 13 28 14
f 14 33 32
f 14 28 33
f 15 19 16
f 15 34 20
f 15 20 19
f 20 34 35
f 20 35 36
f 20 36 21
f 21 36 37
f 21 37 26
f 22 38 23
f 22 27 39
f 22 39 38
f 23 38 33
f 23 33 40
f 23 40 24
f 24 40 28
f 24 28 25
f 26 41 27
f 26 37 41
f 27 41 39
f 28 40 33
f 29 42 30
f 29 32 33
f 29 33 42
f 30 42 43
f 30 43 44
f 30 44 31
f 31 44 45
f 33 38 42
f 34 46 35
f 35 46 47
f 35 47 48
f 35 48 36
f 36 48 49
f 36 49 50
f 36 50 51
f 36 51 41
f 36 41 37
f 38 39 52
f 38 52 53
f 38 53 42
f 39 41 52
f 41 51 50
f 41 50 52
f 42 53 43
f 43 53 54
f 43 54 55
f 43 55 44
f 44 55 56
f 44 56 45
f 45 56 57
f 46 58 47
f 47 58 59
f 47 59 60
f 47 60 49
f 47 49 48
f 49 60 61
f 49 61 50
f 50 61 54
f 50 54 52
f 52 54 53
f 54 61 55
f 55 61 62
f 55 62 63
f 55 63 56
f 56 63 57
f 57 63 62
f 57 62 59
f 57 59 58
f 59 62 60
f 60 62 61

