# https://github.com/mikedh/trimesh
v 0.00750980 0.02476593 -0.03433863
v 0.00530049 0.02541127 -0.03433019
v 0.00641282 0.02530399 -0.03427105
v 0.00861445 0.02466514 -0.03418355
v 0.00865281 0.02356031 -0.03431691
v -0.00639808 0.02514414 -0.03431389
v 0.00073613 0.02579653 -0.03431932
v 0.00432050 0.02590815 -0.03415881
v 0.00515282 0.02605662 -0.03366642
v 0.00750021 0.02552669 -0.03356626
v 0.00859719 0.02533433 -0.03303343
v 0.00867007 0.02535871 -0.02949256
v 0.00867007 0.02288841 -0.03358255
v -0.01092217 0.02252212 -0.03409666
v -0.01076108 0.02383828 -0.03419502
v -0.00742794 0.02499784 -0.03423967
v -0.00530110 0.02552831 -0.03425778
v -0.00353289 0.02572284 -0.03428070
v 0.00147257 0.02633730 -0.03400434
v -0.00439398 0.02591574 -0.03416726
v 0.00147257 0.02658059 -0.03370987
v 0.00423995 0.02646030 -0.03311188
v 0.00648378 0.02601327 -0.03282043
v 0.00765747 0.02568924 -0.03269914
v 0.00712816 0.02620780 -0.02817469
v 0.00867007 0.02258227 -0.02922947
v 0.00867007 0.02266192 -0.03236907
v -0.01092217 0.02192446 -0.03297973
v -0.01092217 0.02172831 -0.02921197
v -0.01064985 0.02471445 -0.02946300
v -0.01003040 0.02491656 -0.03292120
v -0.00905999 0.02474751 -0.03406830
v -0.00530110 0.02594933 -0.03394581
v 0.00023750 0.02641641 -0.03393615
v -0.00324330 0.02643862 -0.03369177
v 0.00176599 0.02675561 -0.03299361
v -0.00111263 0.02662827 -0.03356444
v 0.00058846 0.02686127 -0.03269914
v 0.00441831 0.02689811 -0.02817469
v 0.00749829 0.02251074 -0.02817469
v -0.01092217 0.02183614 -0.03211020
v -0.00971971 0.02504444 -0.02921197
v -0.00120852 0.02374617 -0.02817469
v -0.00063318 0.02726332 -0.02817469
v -0.00971971 0.02506503 -0.02975505
v -0.00971971 0.02508508 -0.03211020
v -0.00880876 0.02541019 -0.03181573
v -0.00816821 0.02549905 -0.03316739
v -0.00515343 0.02636060 -0.03291999
v -0.00648055 0.02605337 -0.03294232
v -0.00235536 0.02659847 -0.03352884
v -0.00359618 0.02662773 -0.03283672
v -0.00111263 0.02683363 -0.03269914
v -0.00672986 0.02598184 -0.02921197
v -0.00871095 0.02540640 -0.02948351
v -0.00235536 0.02677891 -0.03269914
v -0.00588987 0.02623597 -0.03181573
v -0.00559644 0.02629558 -0.03034399
v -0.00588987 0.02621376 -0.02948351
v -0.00872629 0.02542590 -0.03063846
v -0.00757945 0.02580357 -0.03181573
v -0.00618521 0.02616499 -0.03093353
v -0.00780383 0.02570279 -0.02998133
f 1 2 3
f 1 3 4
f 1 4 5
f 1 5 6
f 1 6 2
f 2 6 7
f 2 7 8
f 2 8 3
f 3 8 9
f 3 9 10
f 3 10 4
f 4 11 12
f 4 12 5
f 4 10 11
f 5 12 13
f 5 13 14
f 5 14 15
f 5 15 6
f 6 15 16
f 6 16 17
f 6 17 18
f 6 18 7
f 7 19 8
f 7 18 20
f 7 20 19
f 8 19 21
f 8 21 9
f 9 21 22
f 9 22 10
f 10 22 23
f 10 23 11
f 11 23 24
f 11 24 25
f 11 25 12
f 12 26 27
f 12 27 13
f 12 25 26
f 13 27 28
f 13 28 14
f 14 28 41
f 14 41 29
f 14 29 30
f 14 30 15
f 15 30 31
f 15 31 32
f 15 32 16
f 16 33 20
f 16 20 17
f 16 32 33
f 17 20 18
f 19 20 34
f 19 34 21
f 20 35 34
f 20 33 35
f 21 36 22
f 21 34 37
f 21 37 38
f 21 38 36
f 22 36 39
f 22 39 23
f 23 25 24
f 23 39 25
f 25 40 26
f 25 39 44
f 25 44 43
f 25 43 40
f 26 40 29
f 26 29 27
f 27 29 41
f 27 41 28
f 29 42 30
f 29 40 43
f 29 43 44
f 29 44 42
f 30 42 45
f 30 45 46
f 30 46 31
f 31 46 47
f 31 47 48
f 31 48 32
f 32 48 33
f 33 49 35
f 33 48 50
f 33 50 49
f 34 51 37
f 34 35 51
f 35 49 52
f 35 52 51
f 36 38 39
f 37 51 53
f 37 53 38
f 38 53 44
f 38 44 39
f 42 44 54
f 42 54 55
f 42 55 45
f 44 53 56
f 44 56 52
f 44 52 49
f 44 49 57
f 44 57 58
f 44 58 59
f 44 59 54
f 45 55 60
f 45 60 47
f 45 47 46
f 47 60 61
f 47 61 48
f 48 61 50
f 49 50 57
f 50 61 57
f 51 56 53
f 51 52 56
f 54 59 62
f 54 62 61
f 54 61 63
f 54 63 55
f 55 63 60
f 57 61 62
f 57 62 58
f 58 62 59
f 60 63 61

