# https://github.com/mikedh/trimesh
v 0.02924279 0.01136294 0.03137885
v 0.02924279 0.01175245 0.03461857
v 0.02924279 0.01568169 0.03001491
v 0.03001081 -0.00961669 0.03133223
v 0.02996834 0.01358629 0.03457542
v 0.02944723 0.01568169 0.03451094
v 0.02954975 0.01942897 0.03240106
v 0.03072908 -0.00949443 0.03470487
v 0.03211225 0.00618556 0.03468106
v 0.02974085 0.01870965 0.03048212
v 0.03081401 0.01494531 0.02976543
v 0.03194663 -0.00961669 0.02987108
v 0.03001081 -0.00712893 0.03079607
v 0.03344445 -0.00958257 0.03006352
v 0.03163057 0.00884959 0.03461113
v 0.03028684 0.01659719 0.03396437
v 0.02978635 0.01806426 0.03357206
v 0.03198000 0.01070617 0.03434826
v 0.03210679 0.01230402 0.03407151
v 0.03157294 0.01573003 0.03298085
v 0.03089591 0.01746151 0.03160105
v 0.03305438 -0.00935228 0.03397380
v 0.03211164 -0.00780276 0.03467065
v 0.03233246 -0.00566755 0.03468602
v 0.03270009 -0.00088252 0.03468305
v 0.03255328 0.00375466 0.03467213
v 0.03364647 0.00587281 0.03416574
v 0.03246047 0.01426296 0.03109763
v 0.03125869 0.01537463 0.03002186
v 0.03270009 0.01001529 0.02975700
v 0.03328794 -0.00618500 0.02963797
v 0.03423917 -0.00889453 0.03168040
v 0.03402987 -0.00391617 0.02974560
v 0.03392007 -0.00749570 0.03016966
v 0.03148922 0.01424874 0.03386220
v 0.03376537 0.00970538 0.03317230
v 0.03308168 0.01254569 0.03266194
v 0.03247988 0.01430276 0.03185151
v 0.03432289 -0.00794492 0.03290596
v 0.03324365 -0.00776580 0.03416326
v 0.03328612 -0.00373705 0.03446432
v 0.03378600 -0.00080860 0.03436760
v 0.03401470 0.00288750 0.03421336
v 0.03476271 0.00121573 0.03368216
v 0.03477181 0.00612301 0.03287273
v 0.03369197 0.01110421 0.03188574
v 0.03414938 0.00922773 0.03101034
v 0.03274741 0.01263952 0.03057140
v 0.03205037 0.01411796 0.03030903
v 0.03302465 0.01080568 0.03004765
v 0.03388367 0.00788292 0.03002434
v 0.03426768 0.00110769 0.02976692
v 0.03515278 -0.00269645 0.03081889
v 0.03518130 -0.00426872 0.03181729
v 0.03440418 0.00798243 0.03255927
v 0.03500233 -0.00342714 0.03308650
v 0.03429134 -0.00576706 0.03345749
v 0.03495198 0.00462751 0.03288414
v 0.03511638 -0.00116968 0.03312518
v 0.03537057 0.00248093 0.03146416
v 0.03452005 0.00588703 0.03036358
v 0.03544034 0.00015523 0.03125089
f 1 2 3
f 1 3 4
f 1 4 2
f 2 5 6
f 2 6 7
f 2 7 3
f 2 4 8
f 2 8 9
f 2 9 5
f 3 7 10
f 3 10 11
f 3 11 12
f 3 12 13
f 3 13 4
f 4 12 14
f 4 14 8
f 4 13 12
f 5 9 15
f 5 15 6
f 6 16 17
f 6 17 7
f 6 15 18
f 6 18 19
f 6 19 16
f 7 17 20
f 7 20 21
f 7 21 10
f 8 14 22
f 8 22 23
f 8 23 24
f 8 24 25
f 8 25 9
f 9 18 15
f 9 25 26
f 9 26 27
f 9 27 18
f 10 21 28
f 10 28 29
f 10 29 11
f 11 29 30
f 11 30 31
f 11 31 12
f 12 31 14
f 14 32 22
f 14 31 33
f 14 33 34
f 14 34 32
f 16 19 35
f 16 35 20
f 16 20 17
f 18 27 19
f 19 27 36
f 19 36 37
f 19 37 20
f 19 20 35
f 20 37 38
f 20 38 21
f 21 38 28
f 22 32 39
f 22 39 40
f 22 40 23
f 23 40 41
f 23 41 24
f 24 41 25
f 25 41 42
f 25 42 26
f 26 42 43
f 26 43 27
f 27 43 44
f 27 44 45
f 27 45 36
f 28 38 46
f 28 46 47
f 28 47 48
f 28 48 49
f 28 49 29
f 29 49 50
f 29 50 30
f 30 50 51
f 30 51 52
f 30 52 31
f 31 52 33
f 32 34 53
f 32 53 54
f 32 54 39
f 33 52 53
f 33 53 34
f 36 55 46
f 36 46 37
f 36 45 55
f 37 46 38
f 39 54 56
f 39 56 57
f 39 57 40
f 40 57 56
f 40 56 42
f 40 42 41
f 42 56 44
f 42 44 43
f 44 58 45
f 44 56 59
f 44 59 58
f 45 58 60
f 45 60 47
f 45 47 55
f 46 55 47
f 47 60 61
f 47 61 51
f 47 51 50
f 47 50 48
f 48 50 49
f 51 61 52
f 52 61 62
f 52 62 53
f 53 62 54
f 54 62 59
f 54 59 56
f 58 59 60
f 59 62 60
f 60 62 61

