# https://github.com/mikedh/trimesh
v 0.01154136 0.01788947 -0.01119335
v 0.01154136 0.01790342 -0.01001974
v 0.00692094 0.02009309 -0.01001687
v 0.00692094 0.02013146 -0.01107829
v 0.01154136 0.01798831 -0.01238709
v 0.01154136 0.01803715 -0.00882887
v 0.00692094 0.02012798 -0.00884038
v 0.00692094 0.02025705 -0.01226916
v 0.00692094 0.02044544 -0.01346290
v 0.01154136 0.01819879 -0.01352043
v 0.01154136 0.01837438 -0.00717777
v 0.00692094 0.02028380 -0.00759198
v 0.00692094 0.02075360 -0.01464514
v 0.01154136 0.01862207 -0.01480910
v 0.01154136 0.02828894 -0.00206337
v 0.01143732 0.02233160 0.00042767
v 0.01149884 0.01896395 -0.00538572
v 0.00692094 0.02095826 -0.00497725
v 0.00692094 0.02056521 -0.00629756
v 0.00692094 0.02116641 -0.01576985
v 0.00692094 0.02173505 -0.01693195
v 0.01154136 0.01949771 -0.01648609
v 0.01108949 0.02855989 0.00369824
v 0.01137717 0.02526434 0.00369824
v 0.01152462 0.02796334 -0.02490846
v 0.01151512 0.02806451 -0.02002993
v 0.01140159 0.02296652 0.00118419
v 0.01049831 0.02262348 0.00030974
v 0.01125142 0.02177808 -0.00045541
v 0.01118719 0.02123502 -0.00129535
v 0.01125142 0.02063498 -0.00223021
v 0.01132832 0.01974423 -0.00372023
v 0.01071859 0.01948840 -0.00482768
v 0.00694130 0.02132340 -0.00407404
v 0.00692366 0.02243509 -0.00219856
v 0.00692094 0.02728074 0.00369824
v 0.00692094 0.02318165 -0.01953517
v 0.00692094 0.02690165 -0.02568799
v 0.01151738 0.02522712 -0.02568511
v 0.00972123 0.02904945 0.00369824
v 0.01074257 0.02837034 -0.02120929
v 0.00961992 0.02877850 -0.02253248
v 0.01031015 0.02374448 0.00156676
v 0.01123650 0.02394216 0.00221110
v 0.00940099 0.02875408 -0.02566785
v 0.01056978 0.02834010 -0.02519611
v 0.01041373 0.02845523 -0.02356514
v 0.00934446 0.02294326 0.00004798
v 0.00996684 0.02203972 -0.00083798
v 0.01000439 0.02132107 -0.00190804
v 0.00918931 0.02098501 -0.00300973
v 0.00812908 0.02116176 -0.00344984
v 0.00730451 0.02177691 -0.00298960
v 0.00884872 0.02172924 -0.00201735
v 0.00801193 0.02286303 -0.00089839
v 0.00703538 0.02330840 -0.00088976
v 0.00820688 0.02950762 0.00369824
v 0.00718510 0.02976810 0.00282667
v 0.00698472 0.02946459 -0.02538308
v 0.00972123 0.02870292 -0.02415482
v 0.00917665 0.02888200 -0.02430152
v 0.00824895 0.02915992 -0.02415482
v 0.00805038 0.02302234 -0.00065101
v 0.00706071 0.02948087 -0.02380964
f 1 2 3
f 1 3 4
f 1 4 5
f 1 5 10
f 1 10 14
f 1 14 22
f 1 22 15
f 1 15 11
f 1 11 6
f 1 6 2
f 2 6 7
f 2 7 3
f 3 7 12
f 3 12 19
f 3 19 18
f 3 18 36
f 3 36 38
f 3 38 37
f 3 37 21
f 3 21 20
f 3 20 13
f 3 13 9
f 3 9 8
f 3 8 4
f 4 8 5
f 5 8 9
f 5 9 10
f 6 11 12
f 6 12 7
f 9 13 10
f 10 13 14
f 11 15 16
f 11 16 17
f 11 17 18
f 11 18 19
f 11 19 12
f 13 20 14
f 14 20 21
f 14 21 22
f 15 23 24
f 15 24 16
f 15 22 25
f 15 25 26
f 15 26 23
f 16 24 27
f 16 27 28
f 16 28 29
f 16 29 30
f 16 30 31
f 16 31 32
f 16 32 17
f 17 32 33
f 17 33 18
f 18 33 34
f 18 34 35
f 18 35 36
f 21 37 22
f 22 37 38
f 22 38 39
f 22 39 25
f 23 40 57
f 23 57 36
f 23 36 24
f 23 26 41
f 23 41 42
f 23 42 40
f 24 43 44
f 24 44 27
f 24 36 43
f 25 39 45
f 25 45 46
f 25 46 47
f 25 47 41
f 25 41 26
f 27 44 43
f 27 43 28
f 28 48 49
f 28 49 29
f 28 43 48
f 29 49 30
f 30 50 31
f 30 49 50
f 31 50 51
f 31 51 32
f 32 34 33
f 32 51 52
f 32 52 34
f 34 52 53
f 34 53 35
f 35 53 54
f 35 54 49
f 35 49 55
f 35 55 56
f 35 56 36
f 36 56 43
f 36 57 58
f 36 58 59
f 36 59 38
f 38 59 45
f 38 45 39
f 40 42 57
f 41 47 42
f 42 47 60
f 42 60 61
f 42 61 62
f 42 62 57
f 43 56 48
f 45 59 62
f 45 62 61
f 45 61 60
f 45 60 46
f 46 60 47
f 48 56 63
f 48 63 55
f 48 55 49
f 49 54 50
f 50 54 51
f 51 54 53
f 51 53 52
f 55 63 56
f 57 62 64
f 57 64 58
f 58 64 59
f 59 64 62

