# https://github.com/mikedh/trimesh
v -0.00121065 0.02209957 -0.01060696
v -0.00441847 0.02216356 -0.01060696
v -0.00524647 0.02218601 -0.01087467
v -0.00536571 0.02223421 -0.01171530
v -0.00121065 0.02217686 -0.01149042
v -0.00121065 0.02210123 -0.00900335
v -0.00500756 0.02218102 -0.01031515
v -0.00548495 0.02219764 -0.01031515
v -0.00548495 0.02231732 -0.01255325
v -0.00548495 0.02238879 -0.01314490
v -0.00121065 0.02230984 -0.01246490
v -0.00524647 0.02219432 -0.00972350
v -0.00121065 0.02215609 -0.00818681
v -0.00548495 0.02224169 -0.00884004
v -0.00548495 0.02267302 -0.01496536
v -0.00121065 0.02253589 -0.01370978
v -0.00121065 0.02239378 -0.00663407
v -0.00548495 0.02243616 -0.00705438
v -0.00548495 0.02231732 -0.00791107
v -0.00548495 0.02284589 -0.01581670
v -0.00121065 0.02272704 -0.01453166
v -0.00548495 0.02259905 -0.00618698
v -0.00121065 0.02264642 -0.00583360
v -0.00548495 0.02274532 -0.00559801
v -0.00548495 0.02315422 -0.01704016
v -0.00121065 0.02297304 -0.01535087
v -0.00121065 0.02298135 -0.00494746
v -0.00548495 0.02303787 -0.00467171
v -0.00548495 0.02355812 -0.01826897
v -0.00121065 0.02322153 -0.01607906
v -0.00121065 0.02336116 -0.00420857
v -0.00548495 0.02349413 -0.00357944
v -0.00548495 0.02403018 -0.01933983
v -0.00121065 0.02420637 -0.01875086
v -0.00121065 0.02386812 -0.01789417
v -0.00121065 0.02375010 -0.00357944
v -0.00548495 0.02411079 -0.00243362
v -0.00121065 0.02467011 -0.01978424
v -0.00548495 0.02719411 -0.02589350
v -0.00265159 0.02744427 -0.02589350
v -0.00121065 0.02413905 -0.00299314
v -0.00548495 0.02466596 -0.00168401
v -0.00121065 0.02774346 -0.02589350
v -0.00544688 0.02979041 -0.02579444
v -0.00548495 0.02755065 0.00145629
v -0.00121065 0.02809418 0.00145629
v -0.00126169 0.03021011 -0.02575964
v -0.00121065 0.03028408 -0.02503681
v -0.00536571 0.02991341 -0.02363666
v -0.00524647 0.02990594 -0.02474500
v -0.00461427 0.02993004 -0.02575964
v -0.00364737 0.03004556 -0.02577035
v -0.00524647 0.03017271 0.00142684
v -0.00264322 0.03051595 0.00145629
v -0.00134202 0.03058826 0.00145629
v -0.00121065 0.03030486 -0.02435146
v -0.00324111 0.03016690 -0.02445051
v -0.00324111 0.03019598 -0.02356437
v -0.00446742 0.03005470 -0.02415603
v -0.00414484 0.03005054 -0.02508232
v -0.00500756 0.03020596 0.00088338
v -0.00205413 0.03056831 0.00145629
v -0.00382937 0.03013282 -0.02415603
v -0.00441847 0.03028408 0.00058889
f 1 2 3
f 1 3 4
f 1 4 5
f 1 5 11
f 1 11 16
f 1 16 21
f 1 21 26
f 1 26 30
f 1 30 35
f 1 35 34
f 1 34 38
f 1 38 43
f 1 43 48
f 1 48 56
f 1 56 46
f 1 46 41
f 1 41 36
f 1 36 31
f 1 31 27
f 1 27 23
f 1 23 17
f 1 17 13
f 1 13 6
f 1 6 2
f 2 6 7
f 2 7 3
f 3 7 8
f 3 8 4
f 4 9 5
f 4 8 9
f 5 9 10
f 5 10 11
f 6 12 7
f 6 13 14
f 6 14 12
f 7 12 8
f 8 12 14
f 8 14 19
f 8 19 18
f 8 18 22
f 8 22 24
f 8 24 28
f 8 28 32
f 8 32 37
f 8 37 42
f 8 42 45
f 8 45 39
f 8 39 33
f 8 33 29
f 8 29 25
f 8 25 20
f 8 20 15
f 8 15 10
f 8 10 9
f 10 15 11
f 11 15 16
f 13 17 18
f 13 18 19
f 13 19 14
f 15 20 16
f 16 20 21
f 17 22 18
f 17 23 24
f 17 24 22
f 20 25 21
f 21 25 26
f 23 27 28
f 23 28 24
f 25 29 26
f 26 29 30
f 27 31 32
f 27 32 28
f 29 33 34
f 29 34 35
f 29 35 30
f 31 36 37
f 31 37 32
f 33 38 34
f 33 39 40
f 33 40 38
f 36 41 37
f 37 41 42
f 38 40 43
f 39 44 43
f 39 43 40
f 39 45 44
f 41 46 42
f 42 46 45
f 43 44 47
f 43 47 48
f 44 49 50
f 44 50 51
f 44 51 52
f 44 52 47
f 44 45 53
f 44 53 49
f 45 46 55
f 45 55 62
f 45 62 54
f 45 54 53
f 46 56 55
f 47 52 48
f 48 52 57
f 48 57 58
f 48 58 56
f 49 59 50
f 49 53 59
f 50 59 60
f 50 60 51
f 51 60 52
f 52 60 57
f 53 54 61
f 53 61 59
f 54 62 58
f 54 58 63
f 54 63 59
f 54 59 64
f 54 64 61
f 55 56 62
f 56 58 62
f 57 63 58
f 57 60 63
f 59 63 60
f 59 61 64

