# https://github.com/mikedh/trimesh
v -0.02483867 0.01097100 -0.01726199
v -0.02483867 0.01103004 -0.01798325
v -0.02233959 0.01302445 -0.01727547
v -0.02217368 0.01313353 -0.01678677
v -0.02217368 0.01312752 -0.01627447
v -0.02217368 0.01338270 -0.00971911
v -0.02217368 0.01341172 -0.00912929
v -0.02483867 0.01100302 -0.01679014
v -0.02274185 0.01276326 -0.01796639
v -0.02483867 0.01149237 -0.02148506
v -0.02231064 0.01316455 -0.01800684
v -0.02217368 0.01347977 -0.01855621
v -0.02217368 0.01348377 -0.00842489
v -0.02483867 0.01381701 0.00853817
v -0.02483867 0.01237199 -0.02589350
v -0.02454937 0.01273024 -0.02589350
v -0.02217368 0.01372494 -0.01909547
v -0.02217368 0.01360486 -0.00766318
v -0.02217368 0.01467261 -0.00265819
v -0.02217368 0.01771475 0.00853817
v -0.02465215 0.01837322 0.00853817
v -0.02479067 0.01819409 0.00801577
v -0.02479119 0.01819509 0.00748999
v -0.02482041 0.01761769 -0.02337246
v -0.02478858 0.01759167 -0.02503405
v -0.02477528 0.01752662 -0.02569465
v -0.02238655 0.02041966 -0.02575194
v -0.02217394 0.01684814 -0.02589350
v -0.02217368 0.02110514 -0.00501070
v -0.02224099 0.02119421 0.00853817
v -0.02411294 0.01909172 0.00853817
v -0.02422538 0.01894062 0.00794836
v -0.02473745 0.01825313 0.00618229
v -0.02478989 0.01819109 0.00691028
v -0.02415338 0.01855835 -0.02150191
v -0.02412312 0.01851832 -0.02503405
v -0.02452537 0.01796993 -0.02503405
v -0.02479797 0.01763170 -0.02385780
v -0.02479458 0.01761568 -0.02434650
v -0.02448102 0.01796993 -0.02562387
v -0.02409129 0.01848129 -0.02569128
v -0.02355183 0.01913175 -0.02569128
v -0.02302097 0.01974418 -0.02569128
v -0.02305149 0.01982224 -0.02503405
v -0.02262654 0.02027456 -0.02503405
v -0.02225664 0.02065383 -0.02503405
v -0.02228325 0.02073188 -0.02256695
v -0.02228455 0.02073989 -0.02208835
v -0.02235577 0.02091101 -0.00560052
v -0.02226446 0.02067584 -0.02450828
v -0.02284802 0.02048671 0.00205696
v -0.02258689 0.02082795 0.00853817
v -0.02357870 0.01975419 0.00853817
v -0.02348922 0.01934390 -0.02385780
v -0.02348426 0.01933590 -0.02444761
v -0.02359461 0.01918279 -0.02503405
v -0.02306271 0.01983725 -0.02444761
v -0.02264089 0.02029057 -0.02444761
v -0.02306818 0.01984225 -0.02385780
v -0.02308175 0.02014747 -0.00501070
v -0.02308592 0.02015247 -0.00442426
v -0.02266280 0.02059779 -0.00501070
v -0.02327218 0.02001938 0.00146714
v -0.02301966 0.02036862 0.00853817
f 1 2 3
f 1 3 4
f 1 4 5
f 1 5 6
f 1 6 7
f 1 7 8
f 1 8 14
f 1 14 15
f 1 15 10
f 1 10 2
f 2 9 3
f 2 10 9
f 3 9 11
f 3 11 4
f 4 11 12
f 4 12 17
f 4 17 29
f 4 29 20
f 4 20 19
f 4 19 18
f 4 18 13
f 4 13 7
f 4 7 6
f 4 6 5
f 7 13 8
f 8 13 14
f 9 10 11
f 10 15 11
f 11 15 12
f 12 15 16
f 12 16 17
f 13 18 14
f 14 18 19
f 14 19 20
f 14 20 30
f 14 30 52
f 14 52 64
f 14 64 53
f 14 53 31
f 14 31 21
f 14 21 22
f 14 22 23
f 14 23 24
f 14 24 15
f 15 25 26
f 15 26 27
f 15 27 28
f 15 28 16
f 15 24 25
f 16 28 17
f 17 28 29
f 20 29 30
f 21 31 22
f 22 31 23
f 23 31 32
f 23 32 33
f 23 33 34
f 23 34 24
f 24 35 36
f 24 36 37
f 24 37 38
f 24 38 39
f 24 39 25
f 24 34 33
f 24 33 35
f 25 37 40
f 25 40 26
f 25 39 37
f 26 41 27
f 26 40 41
f 27 41 42
f 27 42 43
f 27 43 44
f 27 44 45
f 27 45 46
f 27 46 28
f 28 46 29
f 29 47 48
f 29 48 49
f 29 49 30
f 29 46 50
f 29 50 47
f 30 49 51
f 30 51 52
f 31 53 35
f 31 35 32
f 32 35 33
f 35 54 36
f 35 53 54
f 36 40 37
f 36 54 55
f 36 55 56
f 36 56 41
f 36 41 40
f 37 39 38
f 41 56 42
f 42 56 44
f 42 44 43
f 44 56 57
f 44 57 58
f 44 58 45
f 45 58 50
f 45 50 46
f 47 50 58
f 47 58 57
f 47 57 48
f 48 57 59
f 48 59 60
f 48 60 61
f 48 61 62
f 48 62 49
f 49 62 51
f 51 63 64
f 51 64 52
f 51 62 61
f 51 61 63
f 53 64 63
f 53 63 54
f 54 59 57
f 54 57 55
f 54 63 61
f 54 61 60
f 54 60 59
f 55 57 56

