# https://github.com/mikedh/trimesh
v 0.02460156 -0.01802811 0.00853933
v 0.02218688 -0.01715572 0.00853933
v 0.02218688 -0.01719257 0.01150911
v 0.02218688 -0.01724242 0.01502181
v 0.02218688 -0.01735729 0.02209064
v 0.02218688 -0.01754261 0.02930064
v 0.02195448 -0.02153610 0.02953952
v 0.02399500 -0.01883223 0.00824072
v 0.02399336 -0.01836840 -0.02389479
v 0.02420103 -0.01805412 -0.02476346
v 0.01766410 -0.01944020 -0.00715110
v 0.01768388 -0.01944995 -0.00294346
v 0.02063753 -0.01800536 -0.02592532
v 0.01167274 -0.02300237 -0.01894878
v 0.01064588 -0.02377290 -0.01884562
v 0.01025854 -0.02411968 -0.01796066
v 0.00913114 -0.02611697 0.00029778
v 0.01227929 -0.02553718 0.02953952
v 0.02370162 -0.01917144 0.00573785
v 0.01934531 -0.02393545 0.02953952
v 0.02006724 -0.02330690 0.02944180
v 0.02095070 -0.02249519 0.02934950
v 0.02166109 -0.02107769 -0.02209229
v 0.02269619 -0.01999723 -0.02289582
v 0.02271926 -0.01992570 -0.02458973
v 0.02364723 -0.01876179 -0.02520866
v 0.02412027 -0.01807905 -0.02578958
v 0.01490329 -0.02114271 -0.01973601
v 0.01929586 -0.02308257 -0.02592532
v 0.00788837 -0.02611806 -0.02592532
v 0.01186558 -0.02292109 -0.01990432
v 0.01056512 -0.02382925 -0.02002376
v 0.00776310 -0.02611806 -0.02209229
v 0.00800375 -0.02611806 -0.01620160
v 0.01227929 -0.02822697 0.02953952
v 0.01831845 -0.02472548 0.02953952
v 0.01788167 -0.02431800 -0.02341159
v 0.01892336 -0.02362334 -0.01560981
v 0.01954475 -0.02305981 -0.01973601
v 0.01998977 -0.02265450 -0.02179368
v 0.02044304 -0.02294927 0.02827451
v 0.02113365 -0.02151118 -0.02540411
v 0.02304562 -0.01946296 -0.02577330
v 0.02020899 -0.02235323 -0.02538240
v 0.01875524 -0.02360492 -0.02474175
v 0.01829867 -0.02392461 -0.02569729
v 0.01726852 -0.02467021 -0.02569729
v 0.01523624 -0.02597934 -0.02573529
v 0.01513899 -0.02611806 -0.02385679
v 0.01251169 -0.02782708 0.00853933
v 0.01384842 -0.02748029 0.02953952
v 0.01597630 -0.02629470 0.02949066
v 0.01732291 -0.02539522 0.02768816
v 0.01707733 -0.02492380 -0.02252663
v 0.01726687 -0.02476666 -0.02363419
v 0.01793936 -0.02424214 -0.02481233
v 0.01890688 -0.02361034 -0.01737431
v 0.01951673 -0.02303597 -0.02267865
v 0.01967166 -0.02286907 -0.02422597
v 0.01609497 -0.02545482 -0.02562671
v 0.01734929 -0.02467238 -0.02458973
v 0.01579994 -0.02569541 -0.02474175
v 0.01604223 -0.02557512 -0.02370477
v 0.01477968 -0.02699804 0.02944180
f 1 2 3
f 1 3 4
f 1 4 5
f 1 5 6
f 1 6 7
f 1 7 8
f 1 8 9
f 1 9 10
f 1 10 2
f 2 11 12
f 2 12 3
f 2 10 13
f 2 13 11
f 3 12 4
f 4 12 5
f 5 12 6
f 6 12 14
f 6 14 15
f 6 15 16
f 6 16 17
f 6 17 18
f 6 18 7
f 7 19 8
f 7 18 35
f 7 35 51
f 7 51 36
f 7 36 20
f 7 20 21
f 7 21 22
f 7 22 23
f 7 23 24
f 7 24 19
f 8 19 9
f 9 24 25
f 9 25 26
f 9 26 10
f 9 19 24
f 10 26 27
f 10 27 13
f 11 13 28
f 11 28 14
f 11 14 12
f 13 27 29
f 13 29 30
f 13 30 31
f 13 31 28
f 14 28 31
f 14 31 32
f 14 32 15
f 15 32 33
f 15 33 16
f 16 33 34
f 16 34 17
f 17 34 35
f 17 35 18
f 20 36 37
f 20 37 38
f 20 38 39
f 20 39 40
f 20 40 21
f 21 41 22
f 21 40 41
f 22 41 40
f 22 40 23
f 23 40 42
f 23 42 25
f 23 25 24
f 25 42 43
f 25 43 26
f 26 43 27
f 27 43 29
f 29 43 42
f 29 42 44
f 29 44 45
f 29 45 46
f 29 46 47
f 29 47 48
f 29 48 30
f 30 33 32
f 30 32 31
f 30 48 49
f 30 49 50
f 30 50 35
f 30 35 33
f 33 35 34
f 35 50 51
f 36 51 52
f 36 52 53
f 36 53 54
f 36 54 37
f 37 54 55
f 37 55 56
f 37 56 45
f 37 45 57
f 37 57 38
f 38 57 39
f 39 57 58
f 39 58 40
f 40 58 59
f 40 59 44
f 40 44 42
f 44 59 45
f 45 56 46
f 45 59 58
f 45 58 57
f 46 56 47
f 47 60 48
f 47 56 61
f 47 61 60
f 48 60 62
f 48 62 49
f 49 62 63
f 49 63 52
f 49 52 64
f 49 64 51
f 49 51 50
f 51 64 52
f 52 63 54
f 52 54 53
f 54 63 55
f 55 63 62
f 55 62 61
f 55 61 56
f 60 61 62

