# https://github.com/mikedh/trimesh
v -0.03550395 0.00279349 0.03144957
v -0.03499406 0.00280711 0.03351063
v -0.03518296 0.00478827 0.03191024
v -0.03432937 0.00547248 0.03015816
v -0.03534345 0.00053660 0.03055164
v -0.03525681 -0.00254748 0.03108001
v -0.03496424 -0.00448438 0.03318383
v -0.03491311 0.00030172 0.03365468
v -0.03332522 0.00306922 0.03457195
v -0.03359082 0.00610223 0.03413215
v -0.03246169 0.00683070 0.03024521
v -0.03110247 -0.00009315 0.02952951
v -0.03443589 0.00333814 0.02997542
v -0.03269746 -0.01031553 0.02965830
v -0.03324569 -0.01084997 0.02997033
v -0.03473841 -0.00521626 0.03057506
v -0.03484919 -0.00688765 0.03194587
v -0.03390612 -0.00848755 0.03350605
v -0.03378966 -0.00601621 0.03421665
v -0.03485487 -0.00194496 0.03356051
v -0.03348430 -0.00393293 0.03452563
v -0.03314059 0.00015534 0.03465187
v -0.03210804 0.00264711 0.03472771
v -0.02867520 -0.00009315 0.02952951
v -0.02795370 -0.00658128 0.02952799
v -0.03034688 -0.00688424 0.02952799
v -0.03101584 -0.00230238 0.02952951
v -0.03074882 -0.00471586 0.02952951
v -0.02981285 -0.00888242 0.02952799
v -0.02827894 -0.01958818 0.02960841
v -0.03066076 -0.01594584 0.02973109
v -0.03219468 -0.01290602 0.02985478
v -0.03198447 -0.01540119 0.03102199
v -0.03366609 -0.01135717 0.03203139
v -0.03411206 -0.00842288 0.03058829
v -0.03278409 -0.01344386 0.03244625
v -0.03299714 -0.01057424 0.03396926
v -0.03255117 -0.00599238 0.03467783
v -0.03140357 -0.01232733 0.03448694
v -0.03166633 -0.00928070 0.03466765
v -0.02596671 -0.02106214 0.03456126
v -0.02099429 -0.02304670 0.03441313
v -0.02099429 -0.02027921 0.03255314
v -0.02147150 -0.01889716 0.02980795
v -0.02166750 -0.02223313 0.02952850
v -0.02553352 -0.01769553 0.02952799
v -0.02672657 -0.01586074 0.02952799
v -0.02863685 -0.01214691 0.02952951
v -0.02324686 -0.02059578 0.02952850
v -0.02557897 -0.02351306 0.02973414
v -0.02763271 -0.02216846 0.03091662
v -0.02978871 -0.01934990 0.03172037
v -0.03058549 -0.01752532 0.03287078
v -0.03097323 -0.01556799 0.03387102
v -0.02894080 -0.01660623 0.03460046
v -0.02547955 -0.02337349 0.03400235
v -0.02222567 -0.02518785 0.03445182
v -0.02874764 -0.01948266 0.03373867
v -0.02126698 -0.02731880 0.03374936
v -0.02176692 -0.02794514 0.03095378
v -0.02320425 -0.02610014 0.02992961
v -0.02569544 -0.02453428 0.03196572
v -0.02811277 -0.02115405 0.03306319
v -0.02333634 -0.02665841 0.03247526
f 1 2 3
f 1 3 4
f 1 4 5
f 1 5 6
f 1 6 7
f 1 7 2
f 2 7 8
f 2 8 9
f 2 9 10
f 2 10 3
f 3 10 4
f 4 10 11
f 4 11 12
f 4 12 13
f 4 13 5
f 5 13 14
f 5 14 15
f 5 15 16
f 5 16 6
f 6 16 17
f 6 17 7
f 7 17 18
f 7 18 19
f 7 19 20
f 7 20 8
f 8 20 19
f 8 19 21
f 8 21 9
f 9 21 22
f 9 22 23
f 9 23 10
f 10 23 24
f 10 24 11
f 11 24 12
f 12 24 25
f 12 25 26
f 12 26 27
f 12 27 14
f 12 14 13
f 14 27 28
f 14 28 26
f 14 26 29
f 14 29 30
f 14 30 31
f 14 31 32
f 14 32 15
f 15 32 33
f 15 33 34
f 15 34 35
f 15 35 16
f 16 35 17
f 17 35 34
f 17 34 18
f 18 34 36
f 18 36 37
f 18 37 19
f 19 38 21
f 19 37 39
f 19 39 38
f 21 38 22
f 22 38 23
f 23 38 40
f 23 40 41
f 23 41 42
f 23 42 43
f 23 43 24
f 24 43 44
f 24 44 45
f 24 45 25
f 25 45 46
f 25 46 47
f 25 47 29
f 25 29 26
f 26 28 27
f 29 47 48
f 29 48 30
f 30 49 45
f 30 45 50
f 30 50 51
f 30 51 33
f 30 33 31
f 30 48 47
f 30 47 46
f 30 46 49
f 31 33 32
f 33 36 34
f 33 51 52
f 33 52 53
f 33 53 36
f 36 53 54
f 36 54 37
f 37 54 39
f 38 39 40
f 39 54 55
f 39 55 40
f 40 55 41
f 41 56 57
f 41 57 42
f 41 55 58
f 41 58 56
f 42 57 59
f 42 59 43
f 43 59 60
f 43 60 45
f 43 45 44
f 45 60 61
f 45 61 50
f 45 49 46
f 50 61 51
f 51 61 62
f 51 62 52
f 52 62 63
f 52 63 53
f 53 63 58
f 53 58 54
f 54 58 55
f 56 62 64
f 56 64 59
f 56 59 57
f 56 58 63
f 56 63 62
f 59 64 60
f 60 64 62
f 60 62 61

