# https://github.com/mikedh/trimesh
v -0.02614791 0.01716056 0.03461329
v -0.02614791 0.01883057 0.03472535
v -0.02614791 0.01945815 0.03055644
v -0.02607455 0.01635038 0.02969767
v -0.02565470 0.01594262 0.03413878
v -0.01021689 0.02966258 0.03461081
v -0.01163878 0.03034158 0.03469510
v -0.01826122 0.02651226 0.03476154
v -0.02433427 0.02196671 0.03474419
v -0.02403147 0.02364204 0.03451760
v -0.02458087 0.02532091 0.03299839
v -0.02438733 0.02567016 0.03107458
v -0.02458400 0.02356581 0.02981221
v -0.02383794 0.01582916 0.03055793
v -0.02504287 0.01826858 0.02969767
v -0.02298418 0.02030202 0.02969668
v -0.02009984 0.02030202 0.02969767
v -0.02426091 0.01582916 0.03272320
v -0.01020285 0.02777806 0.03359635
v -0.01023094 0.03393866 0.03195170
v -0.01023094 0.03141414 0.03461180
v -0.01156542 0.03107553 0.03462866
v -0.01300603 0.03063409 0.03461974
v -0.02027621 0.02610451 0.03468915
v -0.01502570 0.02975122 0.03459891
v -0.02281718 0.02528368 0.03438521
v -0.02243790 0.02696433 0.03366279
v -0.02358977 0.02616301 0.03333456
v -0.02341808 0.02663636 0.03145438
v -0.02138125 0.02785606 0.03043993
v -0.02360850 0.02526596 0.02992228
v -0.02186197 0.02636334 0.02979535
v -0.01021065 0.02716998 0.02988212
v -0.01020285 0.02676045 0.03142116
v -0.02011232 0.02354808 0.02969767
v -0.01020285 0.02923356 0.02972792
v -0.01161849 0.03349899 0.03181931
v -0.01273445 0.03302210 0.03259577
v -0.01042916 0.03307351 0.03380609
v -0.01061334 0.03327384 0.03034374
v -0.01233177 0.03215164 0.03409664
v -0.01472915 0.03082201 0.03430241
v -0.01944118 0.02768942 0.03447000
v -0.01758072 0.02868043 0.03449032
v -0.01969091 0.02797839 0.03427663
v -0.01931008 0.02849251 0.03411647
v -0.01843291 0.02956330 0.03369155
v -0.01858899 0.02977250 0.03321357
v -0.02056495 0.02883290 0.03159669
v -0.01995780 0.02824077 0.02999517
v -0.01852656 0.03002424 0.03085295
v -0.01671760 0.03094789 0.03065412
v -0.01544399 0.03067664 0.02989353
v -0.01370683 0.03166057 0.02999170
v -0.01292019 0.03275086 0.03085493
v -0.01502570 0.03207718 0.03152330
v -0.01397372 0.03230588 0.03296864
v -0.01641793 0.03140528 0.03187088
v -0.01523640 0.03158788 0.03331869
v -0.01501633 0.03180948 0.03066206
v -0.01764471 0.03068196 0.03194327
v -0.01539405 0.03183430 0.03114201
f 1 2 3
f 1 3 4
f 1 4 5
f 1 5 6
f 1 6 2
f 2 6 7
f 2 7 8
f 2 8 9
f 2 9 10
f 2 10 11
f 2 11 3
f 3 11 12
f 3 12 13
f 3 13 4
f 4 14 5
f 4 13 15
f 4 15 16
f 4 16 17
f 4 17 14
f 5 14 18
f 5 18 19
f 5 19 6
f 6 20 21
f 6 21 7
f 6 19 20
f 7 21 22
f 7 22 23
f 7 23 8
f 8 24 9
f 8 23 25
f 8 25 24
f 9 24 10
f 10 24 26
f 10 26 27
f 10 27 28
f 10 28 11
f 11 28 29
f 11 29 12
f 12 29 30
f 12 30 31
f 12 31 13
f 13 31 32
f 13 32 15
f 14 17 33
f 14 33 34
f 14 34 18
f 15 32 35
f 15 35 16
f 16 35 17
f 17 35 36
f 17 36 33
f 18 34 19
f 19 34 36
f 19 36 20
f 20 37 38
f 20 38 39
f 20 39 21
f 20 36 40
f 20 40 37
f 21 39 41
f 21 41 22
f 22 41 23
f 23 42 25
f 23 41 42
f 24 25 43
f 24 43 26
f 25 42 44
f 25 44 43
f 26 43 45
f 26 45 27
f 27 45 46
f 27 46 47
f 27 47 48
f 27 48 49
f 27 49 28
f 28 49 29
f 29 49 30
f 30 50 31
f 30 49 51
f 30 51 52
f 30 52 50
f 31 50 32
f 32 50 53
f 32 53 36
f 32 36 35
f 33 36 34
f 36 53 54
f 36 54 40
f 37 40 55
f 37 55 56
f 37 56 38
f 38 57 39
f 38 56 58
f 38 58 59
f 38 59 57
f 39 57 59
f 39 59 41
f 40 54 60
f 40 60 55
f 41 59 42
f 42 47 46
f 42 46 45
f 42 45 43
f 42 43 44
f 42 59 47
f 47 59 48
f 48 59 58
f 48 58 61
f 48 61 49
f 49 61 51
f 50 52 53
f 51 61 58
f 51 58 62
f 51 62 52
f 52 62 60
f 52 60 53
f 53 60 54
f 55 60 62
f 55 62 56
f 56 62 58

