# https://github.com/mikedh/trimesh
v 0.02002299 0.01048179 -0.01221972
v 0.02002299 0.01050670 -0.01425531
v 0.02002299 0.01076511 -0.01065533
v 0.01543556 0.01539788 -0.01091382
v 0.01543556 0.01529358 -0.01185622
v 0.01543556 0.01551464 -0.01384603
v 0.02002299 0.01081181 -0.01561236
v 0.01543556 0.01537920 -0.01298172
v 0.02002299 0.01131463 -0.00940328
v 0.01543556 0.01628365 -0.00770696
v 0.01543556 0.01569988 -0.00944636
v 0.01543511 0.01871212 -0.00297879
v 0.01543556 0.01571234 -0.01469150
v 0.01543556 0.01598788 -0.01562044
v 0.02002299 0.01114339 -0.01661939
v 0.02002299 0.01183146 -0.00859551
v 0.01543511 0.01936905 -0.00194215
v 0.01543556 0.01774696 -0.00472089
v 0.01543556 0.01704955 -0.00599717
v 0.01543556 0.01670085 -0.00675648
v 0.01543511 0.02638360 0.00181938
v 0.01543556 0.01822798 -0.01963238
v 0.01543556 0.01755548 -0.01856343
v 0.01543556 0.01690011 -0.01743793
v 0.01543556 0.01636460 -0.01647937
v 0.02002299 0.01165555 -0.01762103
v 0.02002299 0.01258646 -0.00772850
v 0.01983887 0.01984852 0.00181938
v 0.01543511 0.02006802 -0.00094590
v 0.01543511 0.02272532 0.00181938
v 0.01664406 0.02563326 0.00181938
v 0.01651517 0.02569397 -0.00044508
v 0.01548002 0.02628085 -0.00483937
v 0.01555412 0.02587611 -0.02563413
v 0.01544904 0.02301331 -0.02568799
v 0.02002299 0.01327920 -0.01993664
v 0.02002299 0.01225488 -0.01851766
v 0.02002299 0.01327453 -0.00708767
v 0.02002299 0.01810812 -0.00466435
v 0.01983887 0.02326083 0.00164436
v 0.01860343 0.02426180 0.00181938
v 0.01543511 0.02088685 0.00002881
v 0.02002299 0.01393613 -0.00657069
v 0.02002299 0.01497134 -0.00586793
v 0.02002299 0.01611397 -0.00528633
v 0.01769358 0.02492963 0.00181938
v 0.01643658 0.02539975 -0.02417476
v 0.01580426 0.02585587 -0.02209340
v 0.01564080 0.02594616 -0.02297656
v 0.01561924 0.02593837 -0.02385973
v 0.01558736 0.02591035 -0.02474289
v 0.01628793 0.02539975 -0.02565568
v 0.02002299 0.01902191 -0.02568799
v 0.02002299 0.01407001 -0.02090866
v 0.02002299 0.02295416 -0.00522171
v 0.01981776 0.02275957 -0.02550220
v 0.01857513 0.02390064 -0.02120754
v 0.01853876 0.02395045 -0.02013051
v 0.01869774 0.02403607 -0.00795737
v 0.01842110 0.02427425 -0.00618835
v 0.01721575 0.02484089 -0.02415322
v 0.01719868 0.02478952 -0.02534603
v 0.01785974 0.02429449 -0.02562606
v 0.01884863 0.02355972 -0.02551028
f 1 2 7
f 1 7 15
f 1 15 26
f 1 26 37
f 1 37 36
f 1 36 54
f 1 54 53
f 1 53 55
f 1 55 39
f 1 39 45
f 1 45 44
f 1 44 43
f 1 43 38
f 1 38 27
f 1 27 16
f 1 16 9
f 1 9 3
f 1 3 4
f 1 4 5
f 1 5 2
f 2 6 7
f 2 5 8
f 2 8 6
f 3 9 10
f 3 10 11
f 3 11 4
f 4 11 12
f 4 12 5
f 5 12 8
f 6 8 12
f 6 12 13
f 6 13 7
f 7 13 14
f 7 14 15
f 9 16 17
f 9 17 12
f 9 12 18
f 9 18 19
f 9 19 20
f 9 20 10
f 10 20 12
f 10 12 11
f 12 17 29
f 12 29 42
f 12 42 30
f 12 30 21
f 12 21 22
f 12 22 23
f 12 23 24
f 12 24 25
f 12 25 14
f 12 14 13
f 12 20 19
f 12 19 18
f 14 25 15
f 15 25 26
f 16 27 28
f 16 28 29
f 16 29 17
f 21 30 28
f 21 28 41
f 21 41 46
f 21 46 31
f 21 31 32
f 21 32 33
f 21 33 34
f 21 34 35
f 21 35 22
f 22 35 36
f 22 36 37
f 22 37 26
f 22 26 23
f 23 26 24
f 24 26 25
f 27 38 28
f 28 39 40
f 28 40 41
f 28 30 42
f 28 42 29
f 28 38 43
f 28 43 44
f 28 44 45
f 28 45 39
f 31 46 32
f 32 46 47
f 32 47 48
f 32 48 49
f 32 49 33
f 33 50 51
f 33 51 34
f 33 49 50
f 34 51 47
f 34 47 52
f 34 52 35
f 35 52 53
f 35 53 54
f 35 54 36
f 39 55 40
f 40 55 56
f 40 56 57
f 40 57 58
f 40 58 59
f 40 59 41
f 41 59 60
f 41 60 46
f 46 60 61
f 46 61 47
f 47 61 62
f 47 62 52
f 47 51 50
f 47 50 49
f 47 49 48
f 52 62 63
f 52 63 53
f 53 63 56
f 53 56 55
f 56 63 64
f 56 64 57
f 57 64 61
f 57 61 58
f 58 61 60
f 58 60 59
f 61 64 63
f 61 63 62

