# https://github.com/mikedh/trimesh
v 0.01168631 0.01183918 -0.02739761
v 0.01749580 0.00630912 -0.02684635
v 0.01749580 0.00643918 -0.02729016
v 0.01168265 0.01183918 -0.02798647
v 0.01147392 0.01183918 -0.02674219
v 0.01749580 0.00582841 -0.02639358
v 0.01125238 0.01183918 -0.02647835
v 0.01749580 0.00634992 -0.02798617
v 0.01149223 0.01183918 -0.02848669
v 0.01749580 0.00506591 -0.02619959
v 0.01089718 0.01183918 -0.02636583
v 0.01749580 0.00606813 -0.02846311
v 0.01106929 0.01183918 -0.02890185
v 0.01749580 0.00029581 -0.02622137
v 0.01030763 0.01183918 -0.02629270
v 0.01207629 0.00913089 -0.02616944
v 0.01749580 0.00575318 -0.02874456
v 0.01045227 0.01183918 -0.02903437
v 0.01749580 0.00546501 -0.02893349
v 0.01749580 -0.00023590 -0.02622883
v -0.00120882 -0.00062098 -0.02623122
v -0.00120882 -0.00100096 -0.02623480
v 0.00653961 0.01183918 -0.02624376
v 0.00618991 0.01148853 -0.02622107
v 0.00618991 0.01089944 -0.02620018
v 0.01089718 0.00972126 -0.02918778
v 0.00795491 0.01183918 -0.02906601
v 0.01749580 0.00500981 -0.02901795
v 0.01148674 0.00913089 -0.02920360
v 0.01749580 -0.00118712 -0.02626823
v -0.00120882 0.01183918 -0.02626913
v -0.00029153 0.00677325 -0.02623898
v -0.00087925 0.01183918 -0.02626137
v -0.00120882 -0.00118584 -0.02908630
v 0.01522180 -0.00118712 -0.02628942
v 0.01589741 -0.00118712 -0.02627689
v 0.01648513 -0.00118712 -0.02627092
v 0.01707469 -0.00118712 -0.02626883
v 0.00618991 0.01183918 -0.02624077
v -0.00029153 0.01183918 -0.02625629
v 0.01089718 0.00913089 -0.02921792
v -0.00104403 0.01148853 -0.02902661
v -0.00103671 0.01183918 -0.02899676
v 0.01749580 -0.00118712 -0.02826762
v 0.01743721 0.00441817 -0.02900691
v 0.01507899 0.00383035 -0.02912032
v 0.01443268 0.00442072 -0.02915256
v 0.01384129 0.00500981 -0.02917823
v 0.01325357 0.00618416 -0.02919196
v 0.01148674 0.00854308 -0.02921852
v -0.00120882 0.00736362 -0.02915256
v 0.01513575 -0.00118712 -0.02896453
v -0.00120882 0.00618416 -0.02916480
v -0.00104403 0.00324126 -0.02914569
v -0.00087925 -0.00118584 -0.02910630
v -0.00120882 0.00677325 -0.02916330
v 0.01671216 -0.00118712 -0.02872307
v 0.01626359 -0.00118712 -0.02888782
v 0.01561179 -0.00088237 -0.02896363
v 0.01207629 -0.00118584 -0.02913316
v 0.01325357 0.00559507 -0.02919793
v -0.00029153 -0.00118584 -0.02911824
v 0.01266402 0.00618416 -0.02920449
v 0.01574727 -0.00118712 -0.02893707
f 1 2 3
f 1 3 4
f 1 4 9
f 1 9 13
f 1 13 18
f 1 18 27
f 1 27 43
f 1 43 31
f 1 31 33
f 1 33 40
f 1 40 39
f 1 39 23
f 1 23 15
f 1 15 11
f 1 11 7
f 1 7 5
f 1 5 2
f 2 6 10
f 2 10 14
f 2 14 20
f 2 20 30
f 2 30 44
f 2 44 28
f 2 28 19
f 2 19 17
f 2 17 12
f 2 12 8
f 2 8 3
f 2 5 7
f 2 7 6
f 3 8 4
f 4 8 9
f 6 7 11
f 6 11 10
f 8 12 9
f 9 12 13
f 10 11 15
f 10 15 16
f 10 16 14
f 12 17 13
f 13 17 19
f 13 19 18
f 14 16 21
f 14 21 22
f 14 22 20
f 15 23 16
f 16 23 24
f 16 24 25
f 16 25 21
f 18 26 27
f 18 19 28
f 18 28 29
f 18 29 26
f 20 22 30
f 21 31 51
f 21 51 56
f 21 56 53
f 21 53 34
f 21 34 22
f 21 25 32
f 21 32 33
f 21 33 31
f 22 34 35
f 22 35 36
f 22 36 37
f 22 37 38
f 22 38 30
f 23 39 24
f 24 39 40
f 24 40 25
f 25 40 32
f 26 41 27
f 26 29 41
f 27 41 42
f 27 42 43
f 28 44 45
f 28 45 46
f 28 46 47
f 28 47 48
f 28 48 49
f 28 49 50
f 28 50 29
f 29 50 41
f 30 38 37
f 30 37 36
f 30 36 35
f 30 35 52
f 30 52 64
f 30 64 58
f 30 58 57
f 30 57 44
f 31 43 51
f 32 40 33
f 34 52 35
f 34 53 54
f 34 54 55
f 34 55 52
f 41 50 53
f 41 53 56
f 41 56 51
f 41 51 42
f 42 51 43
f 44 57 45
f 45 57 58
f 45 58 59
f 45 59 46
f 46 59 60
f 46 60 47
f 47 60 48
f 48 60 61
f 48 61 49
f 49 61 50
f 50 62 54
f 50 54 53
f 50 61 63
f 50 63 62
f 52 55 62
f 52 62 60
f 52 60 64
f 54 62 55
f 58 64 59
f 59 64 60
f 60 63 61
f 60 62 63

