# https://github.com/mikedh/trimesh
v 0.01749603 -0.00118457 -0.02826761
v 0.02416387 -0.00118457 -0.02922821
v 0.01749603 -0.00118457 -0.02626843
v 0.01749603 0.00560904 -0.02883905
v 0.01761551 0.00471283 -0.02901578
v 0.02654375 -0.00118457 -0.02922821
v 0.02094512 0.01183918 -0.02922786
v 0.02246889 0.00864316 -0.02922821
v 0.02739986 -0.00118457 -0.02568799
v 0.02268568 0.00265397 -0.02580789
v 0.01749603 0.00003163 -0.02622512
v 0.01749603 0.00620949 -0.02822463
v 0.01759827 0.01183918 -0.02815394
v 0.01839895 0.01183918 -0.02887266
v 0.02939048 -0.00118457 -0.02720062
v 0.02660164 0.00032866 -0.02922821
v 0.02925991 0.00057853 -0.02749067
v 0.02246889 0.01183918 -0.02922821
v 0.03004827 -0.00099462 -0.02593472
v 0.03003472 0.00238243 -0.02582036
v 0.02925498 0.00712610 -0.02568799
v 0.02500274 0.01183918 -0.02568799
v 0.01918855 0.01157019 -0.02596729
v 0.01749603 0.00506724 -0.02619982
v 0.01749603 0.00637395 -0.02706824
v 0.01759457 0.01183918 -0.02711087
v 0.02979452 0.00059255 -0.02691785
v 0.02658316 0.00119683 -0.02922821
v 0.02877827 0.00442089 -0.02765354
v 0.02933751 0.00436225 -0.02715938
v 0.02974032 0.00177050 -0.02691923
v 0.02669526 0.01174994 -0.02758666
v 0.02410597 0.01138406 -0.02922821
v 0.03006182 -0.00013665 -0.02608858
v 0.03008030 0.00119045 -0.02595655
v 0.02946685 0.00528396 -0.02663473
v 0.02972307 0.00458280 -0.02602032
v 0.02953337 0.00587676 -0.02577462
v 0.02886819 0.00839329 -0.02638071
v 0.02895442 0.00826326 -0.02568799
v 0.02868465 0.00913015 -0.02568799
v 0.02770535 0.01166452 -0.02601477
v 0.01829302 0.01183918 -0.02619462
v 0.01749603 0.00582832 -0.02639388
v 0.02646860 0.00265014 -0.02922821
v 0.02637991 0.00353743 -0.02922821
v 0.02625673 0.00442089 -0.02922821
v 0.02608797 0.00533623 -0.02922821
v 0.02889283 0.00530308 -0.02746537
v 0.02898275 0.00618399 -0.02723458
v 0.02726682 0.01166198 -0.02712300
v 0.02775339 0.01048402 -0.02717567
v 0.02699952 0.01089707 -0.02764765
v 0.02468123 0.01006205 -0.02922821
v 0.02822272 0.00922958 -0.02716215
v 0.02821779 0.00997791 -0.02665829
v 0.02863661 0.00913015 -0.02621957
v 0.02808352 0.01078234 -0.02595378
v 0.02772752 0.01112909 -0.02675428
v 0.02579849 0.00658174 -0.02922821
v 0.02765238 0.00942463 -0.02755270
v 0.02815989 0.00853990 -0.02737354
v 0.02501629 0.00913015 -0.02922821
v 0.02550902 0.00766026 -0.02922821
f 1 2 6
f 1 6 15
f 1 15 9
f 1 9 3
f 1 3 11
f 1 11 24
f 1 24 44
f 1 44 25
f 1 25 12
f 1 12 4
f 1 4 5
f 1 5 2
f 2 5 7
f 2 7 8
f 2 8 18
f 2 18 33
f 2 33 54
f 2 54 63
f 2 63 64
f 2 64 60
f 2 60 48
f 2 48 47
f 2 47 46
f 2 46 45
f 2 45 28
f 2 28 16
f 2 16 6
f 3 9 10
f 3 10 11
f 4 12 13
f 4 13 14
f 4 14 5
f 5 14 7
f 6 16 17
f 6 17 15
f 7 14 13
f 7 13 26
f 7 26 43
f 7 43 22
f 7 22 18
f 7 18 8
f 9 15 19
f 9 19 20
f 9 20 21
f 9 21 40
f 9 40 41
f 9 41 22
f 9 22 10
f 10 22 23
f 10 23 11
f 11 23 24
f 12 25 26
f 12 26 13
f 15 17 27
f 15 27 19
f 16 28 17
f 17 28 29
f 17 29 30
f 17 30 31
f 17 31 27
f 18 22 32
f 18 32 33
f 19 34 35
f 19 35 20
f 19 27 34
f 20 35 31
f 20 31 36
f 20 36 37
f 20 37 38
f 20 38 21
f 21 38 39
f 21 39 40
f 22 41 42
f 22 42 32
f 22 43 23
f 23 43 24
f 24 43 26
f 24 26 44
f 25 44 26
f 27 31 35
f 27 35 34
f 28 45 29
f 29 45 46
f 29 46 47
f 29 47 48
f 29 48 49
f 29 49 30
f 30 49 50
f 30 50 36
f 30 36 31
f 32 42 51
f 32 51 52
f 32 52 53
f 32 53 33
f 33 53 54
f 36 50 39
f 36 39 38
f 36 38 37
f 39 55 56
f 39 56 57
f 39 57 41
f 39 41 40
f 39 50 55
f 41 57 58
f 41 58 42
f 42 58 59
f 42 59 51
f 48 60 49
f 49 60 61
f 49 61 62
f 49 62 50
f 50 62 55
f 51 59 52
f 52 59 56
f 52 56 55
f 52 55 61
f 52 61 53
f 53 61 63
f 53 63 54
f 55 62 61
f 56 59 58
f 56 58 57
f 60 64 61
f 61 64 63

