# https://github.com/mikedh/trimesh
v -0.03080189 -0.00008908 0.00854361
v -0.03164326 0.00683025 0.03086355
v -0.03080236 0.00029456 0.00854361
v -0.02845431 -0.00008908 0.00854361
v -0.03164326 -0.00008908 0.03208547
v -0.03164232 -0.00008724 0.03134258
v -0.02959720 0.00930965 0.02969286
v -0.02958316 0.00930965 0.02822757
v -0.02939728 0.00927377 0.00854361
v -0.02948811 0.00894257 0.00854361
v -0.02975639 0.00795357 0.00854361
v -0.02991465 0.00736477 0.00854361
v -0.03002093 0.00696457 0.00854361
v -0.03009678 0.00667017 0.00854361
v -0.03019978 0.00618625 0.00854361
v -0.03030419 0.00559469 0.00854361
v -0.03050271 0.00441985 0.00854361
v -0.03058839 0.00382921 0.00854361
v -0.03063053 0.00344189 0.00854361
v -0.03077146 0.00147493 0.00854361
v -0.03079909 0.00088429 0.00854361
v -0.03164326 0.00606389 0.03471375
v -0.03158192 0.00683025 0.03470607
v -0.02686008 0.00930965 0.00854361
v -0.02686054 0.00930965 0.00895604
v -0.02686476 0.00930965 0.00954779
v -0.02691626 0.00930965 0.01561642
v -0.02854749 -0.00008908 0.01894660
v -0.03158192 -0.00008908 0.03462666
v -0.03164326 0.00206281 0.03467020
v -0.02708809 0.00930965 0.02969286
v -0.03158192 0.00265161 0.03467533
v -0.03152059 0.00618441 0.03470607
v -0.03090443 0.00681645 0.03466252
v -0.02696261 0.00930965 0.01960239
v -0.02866032 -0.00008908 0.02895253
v -0.03131552 -0.00008908 0.03456261
v -0.03030981 0.00683025 0.03453187
v -0.03152059 0.00206281 0.03465996
v -0.02868701 -0.00008908 0.02975177
v -0.02867765 -0.00008908 0.02954684
v -0.02866313 -0.00008908 0.02916003
v -0.02697151 0.00930965 0.02032735
v -0.02976342 0.00683025 0.03429364
v -0.02948390 0.00683025 0.03413737
v -0.02916833 0.00683025 0.03389914
v -0.02881296 0.00683025 0.03360454
v -0.02859618 0.00683025 0.03326128
v -0.02834616 0.00683025 0.03282579
v -0.02818650 0.00683025 0.03253120
v -0.02804885 0.00683025 0.03211108
v -0.02893891 -0.00008908 0.03209571
v -0.02886119 -0.00008908 0.03177807
v -0.02882513 -0.00008908 0.03154239
v -0.02879751 -0.00008908 0.03131440
v -0.02875818 -0.00008908 0.03093015
v -0.03093159 -0.00008908 0.03445246
v -0.03050037 -0.00008908 0.03426546
v -0.03020540 -0.00008908 0.03403235
v -0.02987719 -0.00008908 0.03373775
v -0.02958269 -0.00008908 0.03343291
v -0.02932424 -0.00008908 0.03306147
v -0.02914351 -0.00008908 0.03269515
f 1 2 3
f 1 3 21
f 1 21 20
f 1 20 19
f 1 19 18
f 1 18 17
f 1 17 16
f 1 16 15
f 1 15 14
f 1 14 13
f 1 13 12
f 1 12 11
f 1 11 10
f 1 10 9
f 1 9 24
f 1 24 4
f 1 4 28
f 1 28 36
f 1 36 42
f 1 42 41
f 1 41 40
f 1 40 56
f 1 56 55
f 1 55 54
f 1 54 53
f 1 53 52
f 1 52 63
f 1 63 62
f 1 62 61
f 1 61 60
f 1 60 59
f 1 59 58
f 1 58 57
f 1 57 37
f 1 37 29
f 1 29 5
f 1 5 6
f 1 6 2
f 2 7 8
f 2 8 9
f 2 9 10
f 2 10 11
f 2 11 12
f 2 12 13
f 2 13 14
f 2 14 15
f 2 15 16
f 2 16 17
f 2 17 18
f 2 18 19
f 2 19 20
f 2 20 21
f 2 21 3
f 2 6 5
f 2 5 30
f 2 30 22
f 2 22 23
f 2 23 7
f 4 24 25
f 4 25 26
f 4 26 27
f 4 27 28
f 5 29 30
f 7 23 31
f 7 31 43
f 7 43 35
f 7 35 27
f 7 27 26
f 7 26 25
f 7 25 24
f 7 24 8
f 8 24 9
f 22 30 32
f 22 32 33
f 22 33 23
f 23 33 34
f 23 34 31
f 27 35 36
f 27 36 28
f 29 37 38
f 29 38 34
f 29 34 39
f 29 39 30
f 30 39 32
f 31 40 41
f 31 41 42
f 31 42 36
f 31 36 43
f 31 34 38
f 31 38 44
f 31 44 45
f 31 45 46
f 31 46 47
f 31 47 48
f 31 48 49
f 31 49 50
f 31 50 51
f 31 51 52
f 31 52 53
f 31 53 54
f 31 54 55
f 31 55 56
f 31 56 40
f 32 39 34
f 32 34 33
f 35 43 36
f 37 57 38
f 38 57 58
f 38 58 44
f 44 58 45
f 45 58 46
f 46 58 59
f 46 59 47
f 47 60 61
f 47 61 62
f 47 62 48
f 47 59 60
f 48 62 49
f 49 62 50
f 50 62 63
f 50 63 52
f 50 52 51

