# https://github.com/mikedh/trimesh
v 0.03042310 0.00002393 -0.00598722
v 0.03037551 0.00141962 -0.00578460
v 0.02516765 -0.00103494 -0.00578460
v 0.03035633 -0.00111103 -0.00638271
v 0.03040179 -0.00029426 -0.00707240
v 0.03041387 0.00029477 -0.00736658
v 0.03022704 0.00303932 -0.00578460
v 0.03020004 0.00176708 -0.02003025
v 0.03012474 0.00265089 -0.02003025
v 0.02482312 0.00117858 -0.00578460
v 0.02482667 -0.00006972 -0.00629894
v 0.02462776 -0.00046187 -0.00795885
v 0.02500355 -0.00118712 -0.00706655
v 0.03033857 -0.00118712 -0.00765103
v 0.03022420 -0.00118712 -0.01767286
v 0.03018797 -0.00118712 -0.02061278
v 0.03037977 -0.00029426 -0.00883947
v 0.03018157 -0.00099716 -0.02174082
v 0.03019862 0.00058955 -0.02150313
v 0.03010201 0.00403913 -0.00578460
v 0.03004802 0.00353098 -0.01881649
v 0.03012545 0.00118816 -0.02527885
v 0.03007146 0.00229438 -0.02534120
v 0.03005015 0.00325907 -0.02120895
v 0.03004092 0.00286958 -0.02415471
v 0.02449421 0.00058955 -0.00751465
v 0.02494672 0.00235238 -0.00578460
v 0.02379305 0.00424877 -0.00972397
v 0.02353518 0.00386992 -0.01060848
v 0.02330715 0.00424877 -0.01149299
v 0.02400262 0.00206133 -0.00913560
v 0.02389819 0.00176708 -0.01001816
v 0.02399764 0.00088380 -0.01060653
v 0.02432442 -0.00012985 -0.00981165
v 0.02468104 -0.00093810 -0.00876543
v 0.02445584 -0.00099716 -0.01158456
v 0.02451196 -0.00118712 -0.01415041
v 0.02740040 -0.00118712 -0.02568799
v 0.03010130 -0.00102483 -0.02527691
v 0.03015032 -0.00063587 -0.02371635
v 0.03017660 0.00029477 -0.02268378
v 0.02418874 0.00424877 -0.00864659
v 0.02474568 0.00411415 -0.00735879
v 0.02532607 0.00371774 -0.00592293
v 0.02994786 0.00403913 -0.02236621
v 0.02981643 0.00424877 -0.02565876
v 0.03012261 -0.00012878 -0.02535483
v 0.02995851 0.00323992 -0.02533341
v 0.02993294 0.00393430 -0.02361699
v 0.02318496 0.00424877 -0.01237555
v 0.02418874 -0.00005376 -0.01115594
v 0.02419797 -0.00020753 -0.01236971
v 0.02433650 -0.00066460 -0.01316849
v 0.02464054 -0.00118712 -0.01725398
v 0.02727395 0.00424877 -0.02568799
v 0.02528274 -0.00118712 -0.02058161
v 0.02436207 0.00424877 -0.01978087
v 0.02988818 0.00403913 -0.02451124
v 0.02316649 0.00424877 -0.01355230
v 0.02472792 -0.00118712 -0.01815992
v 0.02326239 0.00424877 -0.01473489
v 0.02495809 -0.00118712 -0.01942824
v 0.02387830 0.00424877 -0.01846580
v 0.02358349 0.00424877 -0.01714293
f 1 2 3
f 1 3 4
f 1 4 5
f 1 5 6
f 1 6 2
f 2 7 20
f 2 20 27
f 2 27 10
f 2 10 3
f 2 6 8
f 2 8 9
f 2 9 7
f 3 10 11
f 3 11 12
f 3 12 13
f 3 13 4
f 4 13 14
f 4 14 5
f 5 14 15
f 5 15 16
f 5 16 17
f 5 17 6
f 6 17 18
f 6 18 19
f 6 19 8
f 7 9 21
f 7 21 20
f 8 19 22
f 8 22 23
f 8 23 9
f 9 24 21
f 9 23 25
f 9 25 24
f 10 26 11
f 10 27 28
f 10 28 29
f 10 29 30
f 10 30 31
f 10 31 26
f 11 26 12
f 12 32 33
f 12 33 34
f 12 34 35
f 12 35 13
f 12 26 32
f 13 35 36
f 13 36 37
f 13 37 54
f 13 54 60
f 13 60 62
f 13 62 56
f 13 56 38
f 13 38 16
f 13 16 15
f 13 15 14
f 16 38 39
f 16 39 18
f 16 18 17
f 18 39 40
f 18 40 41
f 18 41 19
f 19 41 22
f 20 42 43
f 20 43 44
f 20 44 27
f 20 21 45
f 20 45 46
f 20 46 42
f 21 24 45
f 22 47 23
f 22 41 47
f 23 47 46
f 23 46 48
f 23 48 49
f 23 49 25
f 24 25 45
f 25 49 45
f 26 31 32
f 27 44 43
f 27 43 42
f 27 42 28
f 28 42 46
f 28 46 55
f 28 55 57
f 28 57 63
f 28 63 64
f 28 64 61
f 28 61 59
f 28 59 50
f 28 50 30
f 28 30 29
f 30 50 32
f 30 32 31
f 32 50 33
f 33 50 51
f 33 51 34
f 34 51 36
f 34 36 35
f 36 51 52
f 36 52 53
f 36 53 37
f 37 53 54
f 38 55 46
f 38 46 47
f 38 47 39
f 38 56 57
f 38 57 55
f 39 47 40
f 40 47 41
f 45 49 58
f 45 58 46
f 46 58 48
f 48 58 49
f 50 52 51
f 50 59 52
f 52 59 53
f 53 59 54
f 54 59 61
f 54 61 60
f 56 62 63
f 56 63 57
f 60 61 64
f 60 64 62
f 62 64 63

