# https://github.com/mikedh/trimesh
v 0.02778601 0.00439567 0.00854154
v 0.02782729 0.00439567 0.01384734
v 0.01944781 0.02055997 0.01443549
v 0.01944781 0.02054478 0.00854361
v 0.02029292 0.02294293 0.00854154
v 0.02976736 0.00707105 0.00854154
v 0.03018666 0.00470707 0.00854361
v 0.03026487 0.00440326 0.00958945
v 0.02815317 0.00439567 0.02969846
v 0.02786422 0.00439567 0.01854013
v 0.01944781 0.02080871 0.02755502
v 0.01944781 0.02087896 0.02942923
v 0.01962921 0.02348029 0.00854361
v 0.02113804 0.02216254 0.00854154
v 0.01984321 0.02379359 0.02969432
v 0.02054168 0.02316889 0.02969846
v 0.02211568 0.02166506 0.02724437
v 0.03000960 0.00593178 0.00854361
v 0.02949797 0.00809829 0.00854154
v 0.03004653 0.00706725 0.02806447
v 0.03013995 0.00527670 0.00913383
v 0.03054513 0.00440326 0.02944373
v 0.02799348 0.00439567 0.02649883
v 0.03023555 0.00619001 0.02969846
v 0.02788486 0.00439567 0.02032530
v 0.01944781 0.02084099 0.02857393
v 0.02232751 0.02100048 0.00854154
v 0.02175722 0.02202582 0.02969846
v 0.02240029 0.02137264 0.02969846
v 0.02318457 0.02050490 0.02969846
v 0.02297166 0.02031882 0.00854154
v 0.02894288 0.00999896 0.00854154
v 0.02936870 0.00956035 0.02969846
v 0.02973912 0.00827487 0.02969846
v 0.03006283 0.00706155 0.02942923
v 0.03030615 0.00559949 0.02680326
v 0.02368534 0.01991058 0.02969846
v 0.02351914 0.01967893 0.00854154
v 0.02860506 0.01090278 0.00854154
v 0.02877994 0.01123507 0.02969846
v 0.02911234 0.01031226 0.02969846
v 0.02422848 0.01923462 0.02969846
v 0.02415244 0.01885486 0.00854154
v 0.02476401 0.01855676 0.02969846
v 0.02485308 0.01840295 0.02798577
v 0.02416765 0.01886436 0.00972406
v 0.02774473 0.01290789 0.00854154
v 0.02821400 0.01183508 0.00854361
v 0.02819662 0.01192242 0.00942791
v 0.02834544 0.01233446 0.02969846
v 0.02477704 0.01801560 0.00854154
v 0.02438925 0.01855676 0.00913383
v 0.02556567 0.01741179 0.02969846
v 0.02515289 0.01800991 0.02942923
v 0.02720703 0.01401488 0.00854361
v 0.02779035 0.01355348 0.02969846
v 0.02532126 0.01721432 0.00883976
v 0.02656504 0.01520921 0.00859124
v 0.02594913 0.01683646 0.02969846
v 0.02699086 0.01508389 0.02969846
v 0.02733847 0.01443451 0.02969846
v 0.02560695 0.01679089 0.00972406
v 0.02586983 0.01641114 0.01090243
v 0.02651507 0.01591176 0.02969639
f 1 2 3
f 1 3 4
f 1 4 5
f 1 5 14
f 1 14 27
f 1 27 31
f 1 31 38
f 1 38 43
f 1 43 51
f 1 51 47
f 1 47 39
f 1 39 32
f 1 32 19
f 1 19 6
f 1 6 7
f 1 7 8
f 1 8 9
f 1 9 23
f 1 23 25
f 1 25 10
f 1 10 2
f 2 10 3
f 3 10 11
f 3 11 26
f 3 26 12
f 3 12 4
f 4 12 13
f 4 13 5
f 5 13 15
f 5 15 16
f 5 16 17
f 5 17 14
f 6 18 7
f 6 19 20
f 6 20 18
f 7 18 21
f 7 21 8
f 8 21 22
f 8 22 9
f 9 15 12
f 9 12 23
f 9 22 24
f 9 24 34
f 9 34 33
f 9 33 41
f 9 41 40
f 9 40 50
f 9 50 56
f 9 56 61
f 9 61 60
f 9 60 59
f 9 59 53
f 9 53 44
f 9 44 42
f 9 42 37
f 9 37 30
f 9 30 29
f 9 29 28
f 9 28 16
f 9 16 15
f 10 25 11
f 11 25 26
f 12 26 23
f 12 15 13
f 14 17 27
f 16 28 17
f 17 28 29
f 17 29 30
f 17 30 31
f 17 31 27
f 18 20 24
f 18 24 21
f 19 32 33
f 19 33 34
f 19 34 20
f 20 34 35
f 20 35 24
f 21 24 36
f 21 36 22
f 22 36 24
f 23 26 25
f 24 35 34
f 30 37 38
f 30 38 31
f 32 39 40
f 32 40 41
f 32 41 33
f 37 42 38
f 38 42 44
f 38 44 45
f 38 45 46
f 38 46 43
f 39 47 48
f 39 48 49
f 39 49 50
f 39 50 40
f 43 46 52
f 43 52 51
f 44 53 54
f 44 54 45
f 45 54 51
f 45 51 52
f 45 52 46
f 47 51 55
f 47 55 56
f 47 56 50
f 47 50 49
f 47 49 48
f 51 57 58
f 51 58 55
f 51 54 53
f 51 53 57
f 53 59 57
f 55 58 60
f 55 60 61
f 55 61 56
f 57 62 58
f 57 59 62
f 58 62 63
f 58 63 59
f 58 59 64
f 58 64 60
f 59 60 64
f 59 63 62

