# https://github.com/mikedh/trimesh
v -0.02871981 -0.00949032 -0.02607481
v -0.02832877 -0.01063027 -0.02599940
v -0.02633849 -0.00889288 -0.02573320
v -0.02853144 -0.00901437 -0.02699015
v -0.02708549 -0.01295345 -0.02680493
v -0.02761424 -0.01230942 -0.02608975
v -0.02707640 -0.01354256 -0.02597959
v -0.02595914 -0.01558783 -0.02577942
v -0.01973884 -0.00889288 -0.02620721
v -0.02265931 -0.00889288 -0.02928338
v -0.02467688 -0.01757318 -0.02573320
v -0.01545038 -0.02298505 -0.02573320
v -0.02530177 -0.00904266 -0.02928338
v -0.02785069 -0.00911921 -0.02763965
v -0.02795592 -0.01014933 -0.02720213
v -0.02658792 -0.01439295 -0.02606716
v -0.02662689 -0.01325799 -0.02721708
v -0.02504974 -0.01648814 -0.02699467
v -0.02541220 -0.01639495 -0.02604700
v -0.01877228 -0.00889288 -0.02668295
v -0.01546986 -0.01462760 -0.02626316
v -0.01932831 -0.00889288 -0.02884447
v -0.01545038 -0.01473910 -0.02892927
v -0.01545038 -0.01880133 -0.02928338
v -0.02473145 -0.01736516 -0.02621937
v -0.02415073 -0.01826214 -0.02602581
v -0.02342321 -0.01925232 -0.02587429
v -0.02088469 -0.02195326 -0.02585483
v -0.01892558 -0.02362575 -0.02573320
v -0.01561537 -0.02589401 -0.02573320
v -0.01552443 -0.02487887 -0.02756633
v -0.01545038 -0.01368235 -0.02715835
v -0.02476912 -0.01037898 -0.02928338
v -0.02675291 -0.01241093 -0.02746624
v -0.02737780 -0.01116780 -0.02737276
v -0.02433910 -0.01648315 -0.02763340
v -0.02364406 -0.01837697 -0.02699884
v -0.01856052 -0.00889288 -0.02775225
v -0.01545038 -0.01382214 -0.02831973
v -0.01560238 -0.02179018 -0.02928303
v -0.01662480 -0.02102133 -0.02928338
v -0.02289316 -0.01934219 -0.02698702
v -0.02276325 -0.01995793 -0.02607029
v -0.02175901 -0.02107459 -0.02603415
v -0.02072879 -0.02178185 -0.02693629
v -0.01884114 -0.02355419 -0.02646819
v -0.01826172 -0.02411169 -0.02604979
v -0.01638706 -0.02538977 -0.02600009
v -0.01562706 -0.02557616 -0.02677435
v -0.01666767 -0.02450443 -0.02732724
v -0.01647540 -0.02413832 -0.02768587
v -0.02409097 -0.01184511 -0.02928338
v -0.02362588 -0.01271714 -0.02928338
v -0.02314130 -0.01358417 -0.02928338
v -0.02249043 -0.01463093 -0.02928338
v -0.02183176 -0.01555621 -0.02928338
v -0.02111464 -0.01650811 -0.02928338
v -0.02027669 -0.01752824 -0.02928338
v -0.02173562 -0.02027911 -0.02734079
v -0.02078335 -0.02099138 -0.02750899
v -0.01918281 -0.01871979 -0.02928338
v -0.02178109 -0.02059697 -0.02707529
v -0.01788367 -0.02365737 -0.02732168
v -0.01713276 -0.02477569 -0.02657105
f 1 2 3
f 1 3 4
f 1 4 2
f 2 4 5
f 2 5 6
f 2 6 7
f 2 7 8
f 2 8 3
f 3 9 20
f 3 20 38
f 3 38 22
f 3 22 10
f 3 10 4
f 3 8 11
f 3 11 29
f 3 29 30
f 3 30 12
f 3 12 9
f 4 10 13
f 4 13 14
f 4 14 15
f 4 15 5
f 5 16 7
f 5 7 6
f 5 15 17
f 5 17 18
f 5 18 16
f 7 16 8
f 8 16 19
f 8 19 11
f 9 12 21
f 9 21 20
f 10 22 23
f 10 23 24
f 10 24 41
f 10 41 61
f 10 61 58
f 10 58 57
f 10 57 56
f 10 56 55
f 10 55 54
f 10 54 53
f 10 53 52
f 10 52 33
f 10 33 13
f 11 25 26
f 11 26 27
f 11 27 28
f 11 28 29
f 11 19 25
f 12 30 31
f 12 31 24
f 12 24 23
f 12 23 39
f 12 39 32
f 12 32 21
f 13 33 14
f 14 33 34
f 14 34 35
f 14 35 15
f 15 35 17
f 16 18 19
f 17 35 34
f 17 34 36
f 17 36 18
f 18 37 26
f 18 26 25
f 18 25 19
f 18 36 37
f 20 21 32
f 20 32 38
f 22 38 39
f 22 39 23
f 24 31 40
f 24 40 41
f 26 37 42
f 26 42 27
f 27 42 43
f 27 43 44
f 27 44 28
f 28 44 45
f 28 45 46
f 28 46 29
f 29 46 47
f 29 47 30
f 30 47 48
f 30 48 49
f 30 49 31
f 31 49 50
f 31 50 51
f 31 51 40
f 32 39 38
f 33 52 34
f 34 52 36
f 36 52 53
f 36 53 54
f 36 54 55
f 36 55 56
f 36 56 57
f 36 57 58
f 36 58 59
f 36 59 37
f 37 59 42
f 40 51 41
f 41 60 61
f 41 51 60
f 42 59 62
f 42 62 43
f 43 62 44
f 44 62 45
f 45 63 64
f 45 64 46
f 45 62 60
f 45 60 63
f 46 64 47
f 47 64 48
f 48 64 49
f 49 64 50
f 50 64 63
f 50 63 51
f 51 63 60
f 58 61 60
f 58 60 59
f 59 60 62

