# https://github.com/mikedh/trimesh
v -0.02425161 0.03303904 -0.05150415
v -0.02231127 0.03291653 -0.04383714
v -0.01778380 0.03232977 -0.05279788
v -0.02988134 0.03288429 -0.05279788
v -0.01992455 0.03272309 -0.03507485
v -0.01734654 0.03235556 -0.02760371
v -0.00759927 0.03055014 -0.05279788
v -0.03498272 0.03044052 -0.05279788
v -0.02578202 0.03076936 -0.02646976
v -0.00747173 0.03029222 -0.02646976
v 0.00135547 0.02824178 -0.05279788
v -0.03881786 0.02572063 -0.05278757
v -0.03269621 0.02368954 -0.02646976
v -0.04146875 0.02072993 -0.05279788
v 0.00222999 0.02733907 -0.02646976
v 0.00980007 0.02507584 -0.05279788
v -0.03726012 0.01601650 -0.02646976
v -0.04442937 0.01387578 -0.05279530
v -0.03661333 -0.00840827 -0.05279788
v 0.01000048 0.02420537 -0.02646976
v 0.01733370 0.02062677 -0.02646976
v 0.02023966 0.01980788 -0.05279788
v -0.03945553 0.01069050 -0.02646976
v -0.04650636 0.00410716 -0.05276695
v -0.04130478 0.00219213 -0.02646976
v -0.03763361 -0.00807943 -0.03387905
v -0.03890895 -0.00707355 -0.04011317
v -0.04153252 -0.00486836 -0.04542982
v -0.04240704 -0.00388827 -0.05132117
v -0.02666565 -0.01511412 -0.05279788
v 0.02388350 0.01704817 -0.02646976
v 0.03036043 0.01311493 -0.02646976
v 0.02735426 0.01527498 -0.05279788
v -0.03879053 -0.00665443 -0.02769391
v -0.01444968 -0.02125900 -0.02646976
v -0.02112702 -0.01857021 -0.05279788
v 0.04100044 0.00263059 -0.02646976
v 0.03687379 0.00891087 -0.02855983
v 0.03820379 0.00793079 -0.03507485
v 0.03990729 0.00642197 -0.04144555
v 0.04080003 0.00524200 -0.05164847
v 0.04655729 -0.00326927 -0.05277726
v 0.04606537 -0.00918847 -0.05279788
v -0.01597099 -0.02147823 -0.05279788
v -0.00858310 -0.02413478 -0.02646976
v 0.04105510 -0.00479743 -0.02646976
v 0.03870482 -0.01327646 -0.02646976
v 0.04386996 -0.01555903 -0.05279788
v -0.00830070 -0.02508907 -0.05279788
v -0.00317200 -0.02627549 -0.02646976
v 0.03391317 -0.02281940 -0.02646976
v 0.04054496 -0.02285809 -0.05279788
v -0.00010207 -0.02802933 -0.05279788
v 0.00379684 -0.02843555 -0.02646976
v 0.02887556 -0.02943498 -0.02646976
v 0.03783030 -0.02783589 -0.05279788
v 0.00726760 -0.02986699 -0.05279788
v 0.01854528 -0.03216890 -0.02893867
v 0.02372864 -0.03202060 -0.02655996
v 0.03242831 -0.03196257 -0.05279272
v 0.01882768 -0.03195612 -0.05279788
v 0.02091377 -0.03252999 -0.03666753
v 0.02390172 -0.03283304 -0.04563084
v 0.02431166 -0.03276856 -0.05176702
f 1 2 3
f 1 3 4
f 1 4 2
f 2 5 3
f 2 4 5
f 3 5 6
f 3 6 7
f 3 7 11
f 3 11 16
f 3 16 22
f 3 22 33
f 3 33 43
f 3 43 48
f 3 48 52
f 3 52 56
f 3 56 61
f 3 61 57
f 3 57 53
f 3 53 49
f 3 49 44
f 3 44 36
f 3 36 30
f 3 30 19
f 3 19 14
f 3 14 8
f 3 8 4
f 4 8 9
f 4 9 5
f 5 9 6
f 6 9 10
f 6 10 7
f 7 10 11
f 8 12 13
f 8 13 9
f 8 14 12
f 9 13 17
f 9 17 23
f 9 23 25
f 9 25 35
f 9 35 45
f 9 45 50
f 9 50 54
f 9 54 55
f 9 55 51
f 9 51 47
f 9 47 46
f 9 46 37
f 9 37 32
f 9 32 31
f 9 31 21
f 9 21 20
f 9 20 15
f 9 15 10
f 10 15 11
f 11 15 16
f 12 17 13
f 12 14 17
f 14 18 17
f 14 19 18
f 15 20 16
f 16 20 21
f 16 21 22
f 17 18 23
f 18 24 25
f 18 25 23
f 18 19 24
f 19 26 27
f 19 27 28
f 19 28 29
f 19 29 24
f 19 30 26
f 21 31 22
f 22 31 32
f 22 32 33
f 24 29 28
f 24 28 34
f 24 34 25
f 25 34 35
f 26 30 36
f 26 36 35
f 26 35 34
f 26 34 28
f 26 28 27
f 32 37 38
f 32 38 33
f 33 38 39
f 33 39 40
f 33 40 41
f 33 41 42
f 33 42 43
f 35 36 44
f 35 44 45
f 37 40 38
f 37 46 42
f 37 42 40
f 38 40 39
f 40 42 41
f 42 46 43
f 43 46 47
f 43 47 48
f 44 49 45
f 45 49 50
f 47 51 52
f 47 52 48
f 49 53 50
f 50 53 54
f 51 55 56
f 51 56 52
f 53 57 58
f 53 58 54
f 54 58 59
f 54 59 55
f 55 60 56
f 55 59 60
f 56 60 61
f 57 61 62
f 57 62 58
f 58 62 59
f 59 62 63
f 59 63 60
f 60 63 64
f 60 64 61
f 61 64 63
f 61 63 62

