# https://github.com/mikedh/trimesh
v -0.01923494 0.03243047 -0.01220194
v -0.01297986 0.03148022 -0.01201397
v -0.01736261 0.03237979 -0.02290132
v -0.02268572 0.03233544 -0.02646828
v -0.02777374 0.03127750 -0.01134794
v -0.00411361 0.02939603 -0.01238250
v -0.00907569 0.03070103 -0.01962594
v -0.01110754 0.03115715 -0.02561872
v 0.00942926 0.02458781 -0.01142490
v -0.02973842 0.02750822 -0.02646828
v 0.00812787 0.02502493 -0.02602722
v 0.01731318 0.02063481 -0.02646828
v -0.03372656 0.02575978 -0.01134794
v 0.03427325 0.01044190 -0.01134794
v 0.02380334 0.01708725 -0.01136718
v -0.00031018 0.02830642 -0.01893031
v -0.00395408 0.02938970 -0.02438139
v 0.00385427 0.02688739 -0.01312402
v 0.00193996 0.02749555 -0.02547072
v 0.01563396 0.02159772 -0.01190000
v -0.03444862 0.02108459 -0.02646828
v 0.02349269 0.01730263 -0.01833384
v 0.02387891 0.01704290 -0.02644608
v 0.04099851 0.00264359 -0.02646828
v -0.03750480 0.01951353 -0.01134794
v 0.04290441 0.00118022 -0.01134794
v 0.03873996 0.00714773 -0.01230110
v 0.03687603 0.00887083 -0.01982575
v 0.03173763 0.01226636 -0.02596506
v -0.03738725 0.01577591 -0.02646828
v 0.03648142 0.00916858 -0.02558764
v 0.04288762 -0.00615564 -0.01134794
v 0.04057030 -0.00691583 -0.02646828
v -0.04101435 0.01160753 -0.01134794
v -0.03945268 0.01071430 -0.02646828
v 0.04135953 -0.01173038 -0.01134794
v 0.03677528 -0.01779292 -0.02646828
v -0.04286989 0.00508888 -0.01134794
v -0.04102275 0.00471511 -0.02646828
v 0.03896666 -0.01768522 -0.01134794
v 0.03582652 -0.02351970 -0.01134794
v 0.03247649 -0.02505276 -0.02646828
v -0.04256763 -0.00118271 -0.01134794
v -0.04083804 -0.00279179 -0.02646828
v 0.03211546 -0.02860032 -0.01134794
v 0.02886618 -0.02944287 -0.02646828
v -0.03793299 -0.00741629 -0.01681382
v -0.03815129 -0.00686515 -0.01150187
v -0.03213970 -0.01081182 -0.01138642
v -0.01563302 -0.02042192 -0.01138642
v 0.01329146 -0.03050081 -0.01134794
v -0.00007509 -0.02731433 -0.02644608
v -0.01633829 -0.02024454 -0.02644608
v -0.03626218 -0.00881631 -0.02327874
v 0.02626339 -0.03203386 -0.01142490
v 0.02374457 -0.03202119 -0.02645644
v -0.01354240 -0.02166357 -0.01833384
v -0.00949549 -0.02358305 -0.01237362
v -0.00403804 -0.02581929 -0.01190000
v 0.00335890 -0.02809986 -0.01192812
v 0.00615479 -0.02908178 -0.02642536
v 0.01994954 -0.03227458 -0.02202069
v 0.02072198 -0.03217323 -0.01422962
v -0.00790024 -0.02438759 -0.02548404
f 1 2 3
f 1 3 4
f 1 4 5
f 1 5 2
f 2 6 7
f 2 7 8
f 2 8 3
f 2 5 9
f 2 9 6
f 3 8 4
f 4 10 5
f 4 8 11
f 4 11 12
f 4 12 24
f 4 24 33
f 4 33 37
f 4 37 42
f 4 42 46
f 4 46 44
f 4 44 39
f 4 39 35
f 4 35 30
f 4 30 21
f 4 21 10
f 5 10 13
f 5 13 25
f 5 25 34
f 5 34 38
f 5 38 43
f 5 43 51
f 5 51 45
f 5 45 41
f 5 41 40
f 5 40 36
f 5 36 32
f 5 32 26
f 5 26 14
f 5 14 15
f 5 15 9
f 6 16 17
f 6 17 7
f 6 9 18
f 6 18 16
f 7 17 8
f 8 17 19
f 8 19 11
f 9 15 20
f 9 20 12
f 9 12 11
f 9 11 18
f 10 21 13
f 11 19 18
f 12 20 22
f 12 22 23
f 12 23 24
f 13 21 25
f 14 26 27
f 14 27 28
f 14 28 29
f 14 29 15
f 15 29 22
f 15 22 20
f 16 18 19
f 16 19 17
f 21 30 25
f 22 29 23
f 23 29 24
f 24 29 31
f 24 31 27
f 24 27 26
f 24 26 32
f 24 32 33
f 25 30 34
f 27 31 28
f 28 31 29
f 30 35 34
f 32 36 33
f 33 36 37
f 34 35 38
f 35 39 38
f 36 40 37
f 37 41 42
f 37 40 41
f 38 39 44
f 38 44 43
f 41 45 42
f 42 45 46
f 43 44 47
f 43 47 48
f 43 48 49
f 43 49 50
f 43 50 51
f 44 52 53
f 44 53 54
f 44 54 47
f 44 46 52
f 45 51 55
f 45 55 46
f 46 55 56
f 46 56 52
f 47 54 49
f 47 49 48
f 49 54 50
f 50 54 53
f 50 53 57
f 50 57 58
f 50 58 59
f 50 59 51
f 51 60 61
f 51 61 62
f 51 62 63
f 51 63 55
f 51 59 60
f 52 61 60
f 52 60 59
f 52 59 64
f 52 64 53
f 52 56 61
f 53 64 57
f 55 63 62
f 55 62 56
f 56 62 61
f 57 64 58
f 58 64 59

