# https://github.com/mikedh/trimesh
v -0.00741181 0.02243377 -0.09639496
v -0.00741181 -0.00050740 -0.09356603
v -0.00741181 0.03198400 -0.09119366
v -0.00729003 0.02999275 -0.09448768
v -0.00490195 0.02653547 -0.09587014
v 0.02350612 0.01116295 -0.09627549
v 0.02569829 0.00797310 -0.09637363
v 0.02869000 0.00478325 -0.09634803
v 0.03078156 0.00179639 -0.09619015
v -0.00741181 -0.00050740 -0.05280472
v 0.03505998 0.00026590 -0.09609201
v 0.04566071 -0.00043007 -0.08940158
v -0.00492842 0.02999920 -0.05280472
v -0.00499726 0.03240931 -0.07701488
v 0.00035077 0.03105282 -0.08923944
v -0.00274156 0.02985743 -0.09367697
v -0.00018933 0.02743765 -0.09500824
v -0.00023699 0.02574284 -0.09570373
v 0.02172168 0.01472979 -0.09585734
v 0.02711207 0.01144005 -0.09586587
v 0.03348734 0.00572087 -0.09584881
v 0.04656087 -0.00038496 -0.06038693
v 0.04562894 0.00036256 -0.05517710
v 0.04185885 0.00449004 -0.05280472
v 0.03930133 0.00281456 -0.09480769
v 0.03991556 0.00768634 -0.08807459
v 0.04606314 0.00047856 -0.07120343
v 0.04668266 -0.00034629 -0.06714137
v 0.03782400 0.00736735 -0.09327589
v -0.00014168 0.02871682 -0.05280472
v -0.00017345 0.03147813 -0.07950673
v 0.00363371 0.03029241 -0.07861923
v 0.01168222 0.02733777 -0.08767777
v 0.01095680 0.02662247 -0.09182089
v 0.00300360 0.02856860 -0.09334416
v 0.00774269 0.02514676 -0.09465835
v 0.01834872 0.01958546 -0.09492290
v 0.03132695 0.01050243 -0.09503383
v 0.04234600 0.00491213 -0.07333258
v 0.03858120 0.00888817 -0.07572203
v 0.03466285 0.01253878 -0.07651993
v 0.03170290 0.01517766 -0.07811147
v 0.03832704 0.00730935 -0.05280472
v 0.03184057 0.01540320 -0.08747723
v 0.02969606 0.01470079 -0.09336549
v 0.00381374 0.02744087 -0.05280472
v 0.00640833 0.02900358 -0.07492412
v 0.00909293 0.02840105 -0.07934459
v 0.01212701 0.02726366 -0.08329144
v 0.02221413 0.02227267 -0.08767777
v 0.02211881 0.02153159 -0.09125766
v 0.01349314 0.02368716 -0.09411219
v 0.02404622 0.01839973 -0.09374098
v 0.02729740 0.01847384 -0.07811147
v 0.02751450 0.01517121 -0.05280472
v 0.00870110 0.02558818 -0.05280472
v 0.01036375 0.02724755 -0.07282056
v 0.01271476 0.02680935 -0.07831201
v 0.01602948 0.02522731 -0.07811147
v 0.02145163 0.02237577 -0.07896484
v 0.02270657 0.01838040 -0.05280472
v 0.01443566 0.02297508 -0.05280472
v 0.01584415 0.02474400 -0.07294857
v 0.01925418 0.02046508 -0.05280472
f 1 2 10
f 1 10 3
f 1 3 4
f 1 4 5
f 1 5 6
f 1 6 7
f 1 7 8
f 1 8 9
f 1 9 2
f 2 9 11
f 2 11 12
f 2 12 10
f 3 10 13
f 3 13 14
f 3 14 15
f 3 15 16
f 3 16 4
f 4 16 17
f 4 17 5
f 5 17 18
f 5 18 6
f 6 19 20
f 6 20 21
f 6 21 7
f 6 18 19
f 7 21 8
f 8 21 11
f 8 11 9
f 10 12 22
f 10 22 23
f 10 23 24
f 10 24 43
f 10 43 55
f 10 55 61
f 10 61 64
f 10 64 62
f 10 62 56
f 10 56 46
f 10 46 30
f 10 30 13
f 11 21 25
f 11 25 12
f 12 26 27
f 12 27 28
f 12 28 22
f 12 25 29
f 12 29 26
f 13 30 31
f 13 31 14
f 14 31 15
f 15 32 33
f 15 33 34
f 15 34 35
f 15 35 16
f 15 31 32
f 16 35 17
f 17 35 36
f 17 36 18
f 18 36 37
f 18 37 19
f 19 37 20
f 20 38 21
f 20 37 38
f 21 38 25
f 22 28 39
f 22 39 24
f 22 24 23
f 24 39 40
f 24 40 41
f 24 41 42
f 24 42 43
f 25 38 29
f 26 39 27
f 26 29 44
f 26 44 40
f 26 40 39
f 27 39 28
f 29 38 45
f 29 45 44
f 30 32 31
f 30 46 47
f 30 47 32
f 32 47 48
f 32 48 33
f 33 48 49
f 33 49 50
f 33 50 51
f 33 51 34
f 34 52 35
f 34 51 52
f 35 52 36
f 36 52 37
f 37 52 53
f 37 53 38
f 38 53 45
f 40 44 41
f 41 44 42
f 42 54 43
f 42 44 54
f 43 54 55
f 44 45 51
f 44 51 50
f 44 50 54
f 45 53 51
f 46 56 47
f 47 56 57
f 47 57 48
f 48 57 58
f 48 58 49
f 49 58 59
f 49 59 50
f 50 59 60
f 50 60 54
f 51 53 52
f 54 60 61
f 54 61 55
f 56 62 57
f 57 62 63
f 57 63 58
f 58 63 59
f 59 63 60
f 60 63 64
f 60 64 61
f 62 64 63

