# https://github.com/mikedh/trimesh
v -0.00741573 0.01270554 -0.05280046
v -0.00990000 0.03103836 -0.05280046
v -0.01929239 0.03252288 -0.05280046
v -0.02694110 0.03312505 -0.05295416
v -0.04118056 0.02186358 -0.05382940
v -0.04502451 0.01357952 -0.05457228
v -0.04739122 0.01291672 -0.07131278
v -0.04144701 0.01270554 -0.09329616
v -0.00741573 0.01270554 -0.09444464
v -0.00809361 0.03306024 -0.07769560
v -0.01258410 0.03366868 -0.07725158
v -0.01754087 0.03393422 -0.07492473
v -0.02192164 0.03406386 -0.07492473
v -0.02789327 0.03379832 -0.07174399
v -0.03355928 0.03285324 -0.06232986
v -0.03248955 0.03256470 -0.05630995
v -0.03634526 0.02993856 -0.05429050
v -0.03917826 0.02641752 -0.05541763
v -0.04077304 0.02548499 -0.06020795
v -0.04321029 0.01891335 -0.05638680
v -0.04524002 0.01603212 -0.06060928
v -0.04649782 0.01453296 -0.06594609
v -0.04543593 0.01760446 -0.06994655
v -0.04489128 0.01905972 -0.07373782
v -0.04558092 0.01759401 -0.07970224
v -0.04743823 0.01291672 -0.07850680
v -0.04532622 0.01515396 -0.08866807
v -0.03842592 0.02580698 -0.09181892
v -0.03337511 0.02615825 -0.09474776
v -0.03546362 0.01270554 -0.09433363
v -0.01295635 0.02371401 -0.09641712
v -0.00866178 0.02414891 -0.09631892
v -0.00952383 0.02951620 -0.09499113
v -0.00963746 0.03261697 -0.09034596
v -0.02272099 0.03400950 -0.08647785
v -0.03364156 0.03315851 -0.07171411
v -0.03664305 0.03233261 -0.07453194
v -0.03620419 0.03213607 -0.06755566
v -0.03792045 0.02965838 -0.05879476
v -0.04311625 0.02148095 -0.06256468
v -0.04092978 0.02672070 -0.06603574
v -0.04454646 0.01913708 -0.06578812
v -0.04311625 0.02269575 -0.06963489
v -0.04348066 0.02223367 -0.08070129
v -0.04486385 0.01905135 -0.08325869
v -0.04663496 0.01455596 -0.08405281
v -0.04232865 0.02259539 -0.08794227
v -0.03603178 0.02933847 -0.09192566
v -0.04053402 0.02664124 -0.08706703
v -0.03748551 0.03068918 -0.08786542
v -0.03225837 0.03053655 -0.09327908
v -0.02700380 0.03050728 -0.09431655
v -0.02701555 0.02598261 -0.09578951
v -0.02072261 0.02623770 -0.09604567
v -0.01873598 0.03029609 -0.09480327
v -0.02294434 0.03269015 -0.09223733
v -0.03387275 0.03253543 -0.08866807
v -0.03561251 0.03243088 -0.08438582
v -0.03978561 0.02939702 -0.07810973
v -0.03989924 0.02897257 -0.07253811
v -0.03732485 0.03180780 -0.07990290
v -0.04176440 0.02570453 -0.08129901
v -0.03933891 0.02957683 -0.08298544
f 1 2 3
f 1 3 4
f 1 4 5
f 1 5 6
f 1 6 7
f 1 7 8
f 1 8 30
f 1 30 9
f 1 9 10
f 1 10 2
f 2 10 3
f 3 10 11
f 3 11 12
f 3 12 4
f 4 12 13
f 4 13 14
f 4 14 15
f 4 15 16
f 4 16 17
f 4 17 5
f 5 17 18
f 5 18 19
f 5 19 20
f 5 20 6
f 6 20 21
f 6 21 22
f 6 22 7
f 7 22 23
f 7 23 24
f 7 24 25
f 7 25 26
f 7 26 8
f 8 26 27
f 8 27 28
f 8 28 29
f 8 29 30
f 9 30 31
f 9 31 32
f 9 32 10
f 10 32 33
f 10 33 34
f 10 34 11
f 11 34 35
f 11 35 12
f 12 35 13
f 13 35 14
f 14 35 36
f 14 36 15
f 15 36 37
f 15 37 38
f 15 38 16
f 16 38 17
f 17 39 18
f 17 38 39
f 18 39 19
f 19 40 20
f 19 39 41
f 19 41 40
f 20 40 21
f 21 40 42
f 21 42 22
f 22 42 23
f 23 42 43
f 23 43 24
f 24 43 44
f 24 44 25
f 25 44 45
f 25 45 46
f 25 46 26
f 26 46 27
f 27 46 47
f 27 47 28
f 28 48 29
f 28 47 49
f 28 49 50
f 28 50 48
f 29 48 51
f 29 51 52
f 29 52 53
f 29 53 30
f 30 53 31
f 31 53 54
f 31 54 32
f 32 54 33
f 33 54 55
f 33 55 56
f 33 56 34
f 34 56 35
f 35 56 57
f 35 57 36
f 36 57 58
f 36 58 37
f 37 59 60
f 37 60 38
f 37 58 61
f 37 61 59
f 38 60 39
f 39 60 41
f 40 41 42
f 41 60 43
f 41 43 42
f 43 60 59
f 43 59 62
f 43 62 44
f 44 62 45
f 45 62 49
f 45 49 47
f 45 47 46
f 48 50 57
f 48 57 51
f 49 62 63
f 49 63 50
f 50 63 61
f 50 61 58
f 50 58 57
f 51 57 56
f 51 56 52
f 52 56 55
f 52 55 54
f 52 54 53
f 59 61 63
f 59 63 62

