# https://github.com/mikedh/trimesh
v -0.00743010 0.03184266 0.04524773
v -0.01612122 0.03085647 0.04549455
v -0.01015602 0.02924548 0.05082460
v 0.00504260 0.02938024 0.05127622
v 0.00437739 0.02834505 0.04376337
v -0.02700320 0.02561923 0.04529325
v -0.02264318 0.02830217 0.04620172
v -0.00721318 0.02166833 0.06047122
v -0.00384374 0.02770188 0.05435347
v 0.00130441 0.02334057 0.06018765
v 0.00677071 0.02460241 0.05768454
v 0.01262022 0.02632978 0.05247701
v 0.01272868 0.02498831 0.04376337
v -0.01615014 -0.02111164 0.04376337
v -0.03600524 0.01075282 0.04471385
v -0.03225258 0.01634534 0.04631375
v -0.02899883 0.02096391 0.04678636
v -0.01742272 0.01189215 0.06164401
v -0.01304824 0.01704364 0.06164401
v 0.02178856 0.00158306 0.06164401
v 0.02127519 0.00823527 0.06085632
v 0.01302513 0.02065764 0.05915490
v 0.02019784 0.02256877 0.05023121
v 0.01873004 0.02198685 0.04376337
v 0.02458679 0.01988583 0.04742702
v -0.01000417 -0.02410085 0.04376337
v -0.01510171 -0.02388646 0.05069332
v -0.02161644 -0.01966604 0.04977785
v -0.02919406 -0.01334460 0.04562933
v -0.03641738 0.00398423 0.04557682
v -0.02056801 0.00380659 0.06128867
v -0.01124060 -0.01761402 0.06136569
v 0.01461586 -0.01541500 0.06164401
v 0.01948202 -0.00993274 0.06114864
v 0.02157888 -0.00476288 0.06115039
v 0.03744994 -0.00112438 0.04543328
v 0.03495540 0.00636702 0.04674435
v 0.02524477 0.01565316 0.05253827
v 0.01911326 0.01717840 0.05752525
v 0.02797792 0.01689050 0.04427800
v 0.03221502 0.01319687 0.04380188
v 0.01553414 -0.03073468 0.04380188
v -0.00333037 -0.02665515 0.04376337
v 0.02941680 0.01335000 0.04912494
v -0.00586107 -0.02746371 0.05177684
v -0.00924497 -0.02326779 0.05623168
v -0.01655505 -0.01906575 0.05598137
v -0.02458820 -0.01355899 0.05282710
v -0.02954113 -0.00983473 0.04987412
v -0.03415422 -0.00531417 0.04654480
v -0.02026433 -0.00618398 0.06094384
v -0.01795055 -0.01337523 0.05951199
v -0.00649736 -0.02087888 0.06026642
v 0.00727685 -0.02011932 0.06102261
v 0.01512199 -0.02780060 0.04993713
v 0.02080521 -0.02869492 0.04608619
v 0.02653181 -0.02562608 0.04558732
v 0.03102198 -0.02121577 0.04496066
v 0.03504217 -0.01516998 0.04446704
v 0.03640151 -0.00916706 0.04531075
v 0.00829635 -0.02972399 0.04793114
v 0.00026321 -0.02799049 0.05238074
v 0.00049459 -0.02319428 0.05876980
v 0.00620672 -0.02644689 0.05429746
f 1 2 3
f 1 3 4
f 1 4 5
f 1 5 2
f 2 5 6
f 2 6 7
f 2 7 3
f 3 7 8
f 3 8 9
f 3 9 4
f 4 9 10
f 4 10 11
f 4 11 12
f 4 12 13
f 4 13 5
f 5 13 24
f 5 24 43
f 5 43 26
f 5 26 14
f 5 14 15
f 5 15 6
f 6 15 16
f 6 16 17
f 6 17 18
f 6 18 19
f 6 19 7
f 7 19 8
f 8 19 10
f 8 10 9
f 10 20 21
f 10 21 22
f 10 22 11
f 10 19 20
f 11 22 12
f 12 22 23
f 12 23 13
f 13 23 25
f 13 25 24
f 14 26 27
f 14 27 28
f 14 28 29
f 14 29 15
f 15 29 30
f 15 30 31
f 15 31 18
f 15 18 16
f 16 18 17
f 18 31 32
f 18 32 33
f 18 33 20
f 18 20 19
f 20 33 34
f 20 34 35
f 20 35 36
f 20 36 37
f 20 37 21
f 21 37 38
f 21 38 39
f 21 39 22
f 22 39 23
f 23 38 25
f 23 39 38
f 24 25 40
f 24 40 41
f 24 41 42
f 24 42 43
f 25 38 44
f 25 44 41
f 25 41 40
f 26 43 27
f 27 43 45
f 27 45 46
f 27 46 47
f 27 47 28
f 28 47 48
f 28 48 49
f 28 49 29
f 29 49 50
f 29 50 30
f 30 50 51
f 30 51 31
f 31 51 32
f 32 51 52
f 32 52 47
f 32 47 46
f 32 46 53
f 32 53 54
f 32 54 33
f 33 54 55
f 33 55 56
f 33 56 57
f 33 57 58
f 33 58 34
f 34 58 59
f 34 59 35
f 35 59 60
f 35 60 36
f 36 60 59
f 36 59 41
f 36 41 37
f 37 41 44
f 37 44 38
f 41 59 42
f 42 59 58
f 42 58 57
f 42 57 56
f 42 56 55
f 42 55 61
f 42 61 45
f 42 45 43
f 45 61 62
f 45 62 63
f 45 63 53
f 45 53 46
f 47 52 48
f 48 52 49
f 49 52 51
f 49 51 50
f 53 63 54
f 54 64 55
f 54 63 64
f 55 64 61
f 61 64 62
f 62 64 63

