# https://github.com/mikedh/trimesh
v -0.00741182 0.01270135 -0.05280892
v -0.04640065 0.01260177 -0.05924516
v -0.04532948 0.01163440 -0.05296549
v -0.00741182 -0.00051068 -0.05280892
v -0.00741182 0.01244658 -0.09443079
v -0.03546325 0.01270135 -0.09433769
v -0.04698343 0.01232760 -0.06226228
v -0.04814488 0.00938412 -0.06293510
v -0.04741846 0.00951991 -0.05882623
v -0.04603949 0.01150249 -0.05557638
v -0.04645810 0.01232760 -0.08873508
v -0.04776731 0.01200557 -0.08130018
v -0.04667152 0.00238754 -0.05310936
v -0.04683568 0.00790979 -0.05422227
v -0.04588353 0.00004931 -0.05427305
v -0.04487803 -0.00046153 -0.08926825
v -0.03208559 -0.00051068 -0.09600493
v -0.00741182 -0.00051068 -0.09356754
v -0.03547967 -0.00018348 -0.09603033
v -0.03745784 0.00239142 -0.09578913
v -0.03997775 0.00363683 -0.09551831
v -0.04005162 0.00717263 -0.09496820
v -0.04088065 0.01203791 -0.09375796
v -0.04778373 0.01171976 -0.06855465
v -0.04758673 0.01166415 -0.06533018
v -0.04876050 0.00876723 -0.06695934
v -0.04901495 0.00637598 -0.06536826
v -0.04800945 0.00635011 -0.05822112
v -0.04752927 0.00890044 -0.08889164
v -0.04763598 0.01176891 -0.08445271
v -0.04502578 0.01132273 -0.09166333
v -0.04852246 0.00956388 -0.08249349
v -0.04851015 0.00996221 -0.07850734
v -0.04785349 0.01182969 -0.07810956
v -0.04723378 0.00469990 -0.05427305
v -0.04716401 0.00239142 -0.05580065
v -0.04687672 0.00076319 -0.06105205
v -0.04665510 0.00023037 -0.07134326
v -0.04644169 0.00096623 -0.08767718
v -0.04635550 0.00204482 -0.09091434
v -0.04390536 0.00103995 -0.09335597
v -0.03998596 -0.00009295 -0.09526441
v -0.04268645 0.00418647 -0.09474816
v -0.04296963 0.00792919 -0.09412611
v -0.04807511 0.01119728 -0.07171141
v -0.04868252 0.00956388 -0.07413188
v -0.04907651 0.00796928 -0.06935018
v -0.04933917 0.00617811 -0.07193568
v -0.04902726 0.00478396 -0.06775488
v -0.04867841 0.00398731 -0.06456850
v -0.04855529 0.00518229 -0.06217765
v -0.04797662 0.00343767 -0.05938903
v -0.04794378 0.00425372 -0.08840924
v -0.04860865 0.00757096 -0.08548099
v -0.04568243 0.00796928 -0.09229384
v -0.04595741 0.00468050 -0.09258158
v -0.04912576 0.00637598 -0.08130018
v -0.04915449 0.00757096 -0.07791068
v -0.04788222 0.00207715 -0.06496626
v -0.04736100 0.00120161 -0.06775488
v -0.04842807 0.00335490 -0.08050464
v -0.04838292 0.00359286 -0.08388991
v -0.04900674 0.00478396 -0.07771180
v -0.04844038 0.00304322 -0.07134326
f 1 2 3
f 1 3 4
f 1 4 18
f 1 18 5
f 1 5 6
f 1 6 2
f 2 7 8
f 2 8 9
f 2 9 10
f 2 10 3
f 2 6 11
f 2 11 12
f 2 12 7
f 3 13 4
f 3 10 14
f 3 14 13
f 4 13 15
f 4 15 16
f 4 16 17
f 4 17 18
f 5 18 17
f 5 17 19
f 5 19 20
f 5 20 6
f 6 20 21
f 6 21 22
f 6 22 23
f 6 23 11
f 7 24 25
f 7 25 8
f 7 12 24
f 8 25 26
f 8 26 27
f 8 27 28
f 8 28 9
f 9 28 14
f 9 14 10
f 11 29 30
f 11 30 12
f 11 23 31
f 11 31 29
f 12 30 32
f 12 32 33
f 12 33 34
f 12 34 24
f 13 14 35
f 13 35 36
f 13 36 15
f 14 28 35
f 15 36 37
f 15 37 38
f 15 38 16
f 16 39 40
f 16 40 41
f 16 41 42
f 16 42 17
f 16 38 39
f 17 42 19
f 19 42 21
f 19 21 20
f 21 43 44
f 21 44 22
f 21 42 43
f 22 44 23
f 23 44 31
f 24 45 26
f 24 26 25
f 24 34 45
f 26 45 46
f 26 46 47
f 26 47 27
f 27 47 48
f 27 48 49
f 27 49 50
f 27 50 51
f 27 51 28
f 28 51 52
f 28 52 35
f 29 53 54
f 29 54 30
f 29 31 55
f 29 55 56
f 29 56 53
f 30 54 32
f 31 44 55
f 32 57 58
f 32 58 33
f 32 54 57
f 33 58 46
f 33 46 34
f 34 46 45
f 35 52 36
f 36 52 59
f 36 59 37
f 37 59 60
f 37 60 38
f 38 60 61
f 38 61 39
f 39 53 40
f 39 61 62
f 39 62 53
f 40 53 56
f 40 56 41
f 41 56 43
f 41 43 42
f 43 56 44
f 44 56 55
f 46 58 47
f 47 58 48
f 48 63 49
f 48 58 57
f 48 57 63
f 49 63 64
f 49 64 50
f 50 64 59
f 50 59 52
f 50 52 51
f 53 62 57
f 53 57 54
f 57 62 63
f 59 64 60
f 60 64 61
f 61 64 63
f 61 63 62

