# https://github.com/mikedh/trimesh
v 0.00217355 0.01435895 0.07768401
v 0.00318500 0.01321137 0.08631355
v 0.00610932 0.01301009 0.08644019
v 0.00616697 0.01340220 0.07768401
v -0.00159191 0.01429360 0.07768401
v -0.00137966 0.01108091 0.09306192
v 0.00159183 0.01078814 0.09431725
v 0.00370645 0.00934256 0.09556342
v 0.00633467 0.00852958 0.09475405
v 0.00904674 0.01071233 0.08639981
v 0.00961797 0.01107568 0.07768401
v -0.00475729 0.01348062 0.07768401
v -0.00018215 0.00955952 0.09568638
v -0.00344450 0.01077245 0.09141566
v -0.00435114 0.00953338 0.09403279
v 0.00478080 0.00637559 0.09632690
v 0.00892882 0.00457712 0.09498714
v 0.01090719 0.00213296 0.09184512
v 0.01315283 0.00598871 0.07768401
v 0.01185838 0.00855311 0.07768401
v -0.00729642 0.01201675 0.07768401
v -0.00329776 0.00742383 0.09617640
v -0.00595742 0.00921185 0.09166342
v -0.00614608 0.00762773 0.09469349
v 0.00717056 0.00159185 0.09637461
v -0.00557747 0.00398372 0.09638746
v 0.00956557 0.00159185 0.09529546
v 0.01000055 -0.00117906 0.09409886
v 0.01399659 0.00001034 0.07768401
v 0.01389439 0.00311585 0.07768401
v -0.00966260 0.00969807 0.07768401
v -0.00769209 0.00707616 0.09244526
v -0.00785717 0.00543191 0.09464761
v 0.00744046 -0.00172278 0.09622229
v -0.00398429 -0.00398134 0.09643335
v -0.00818472 0.00191077 0.09530281
v -0.00697936 -0.00163129 0.09572676
v 0.01343845 -0.00315006 0.07768401
v 0.00625344 -0.00425059 0.09613603
v 0.00775752 -0.00559422 0.09383090
v 0.00949220 -0.00410158 0.09229844
v -0.01188204 0.00620306 0.07768401
v -0.00925906 0.00355763 0.09265081
v -0.00610154 -0.00563343 0.09418328
v -0.00099446 -0.00602031 0.09618925
v -0.00814803 -0.00386893 0.09288022
v -0.00943725 -0.00096470 0.09199194
v 0.01162517 -0.00680714 0.07768401
v 0.00355709 -0.00617977 0.09604977
v 0.00929567 -0.00931142 0.07768401
v 0.00543327 -0.00788414 0.09251133
v -0.01263932 0.00318643 0.07768401
v -0.01277296 -0.00017787 0.07768401
v -0.00340519 -0.00796256 0.09349321
v -0.00835504 -0.00676009 0.08657233
v 0.00088695 -0.00851151 0.09394836
v -0.01178247 -0.00455643 0.07768401
v 0.00464454 -0.01188627 0.07768401
v -0.00815590 -0.00937154 0.07768401
v -0.00471275 -0.01154644 0.07768401
v 0.00000127 -0.01061584 0.08648607
v -0.01019191 -0.00719141 0.07768401
v 0.00159183 -0.01234635 0.07768401
v -0.00156308 -0.01226531 0.07768401
f 1 2 3
f 1 3 4
f 1 4 11
f 1 11 20
f 1 20 19
f 1 19 30
f 1 30 29
f 1 29 38
f 1 38 48
f 1 48 50
f 1 50 58
f 1 58 63
f 1 63 64
f 1 64 60
f 1 60 59
f 1 59 62
f 1 62 57
f 1 57 53
f 1 53 52
f 1 52 42
f 1 42 31
f 1 31 21
f 1 21 12
f 1 12 5
f 1 5 2
f 2 5 6
f 2 6 7
f 2 7 3
f 3 7 8
f 3 8 9
f 3 9 10
f 3 10 11
f 3 11 4
f 5 12 6
f 6 13 7
f 6 12 14
f 6 14 15
f 6 15 13
f 7 13 8
f 8 13 16
f 8 16 9
f 9 16 17
f 9 17 10
f 10 17 18
f 10 18 19
f 10 19 20
f 10 20 11
f 12 21 14
f 13 15 22
f 13 22 16
f 14 21 23
f 14 23 15
f 15 23 24
f 15 24 22
f 16 25 17
f 16 22 26
f 16 26 25
f 17 27 18
f 17 25 27
f 18 28 29
f 18 29 30
f 18 30 19
f 18 27 28
f 21 31 23
f 22 24 26
f 23 31 32
f 23 32 24
f 24 32 33
f 24 33 26
f 25 34 27
f 25 26 35
f 25 35 34
f 26 33 36
f 26 36 37
f 26 37 35
f 27 34 28
f 28 38 29
f 28 34 39
f 28 39 40
f 28 40 41
f 28 41 38
f 31 42 32
f 32 42 43
f 32 43 33
f 33 43 36
f 34 35 39
f 35 37 44
f 35 44 45
f 35 45 39
f 36 46 37
f 36 43 47
f 36 47 46
f 37 46 44
f 38 41 48
f 39 49 40
f 39 45 49
f 40 50 48
f 40 48 41
f 40 49 51
f 40 51 50
f 42 52 43
f 43 52 53
f 43 53 47
f 44 54 45
f 44 46 55
f 44 55 54
f 45 54 56
f 45 56 49
f 46 47 57
f 46 57 55
f 47 53 57
f 49 56 51
f 50 51 58
f 51 56 58
f 54 55 59
f 54 59 60
f 54 60 61
f 54 61 56
f 55 57 62
f 55 62 59
f 56 61 58
f 58 61 63
f 60 64 61
f 61 64 63

