# https://github.com/mikedh/trimesh
v -0.04096077 0.01635605 0.00590595
v -0.03960062 0.01635605 0.00562531
v -0.04096077 0.01635605 0.00866162
v -0.04096077 0.03010396 0.00483774
v -0.03430963 0.01635605 0.00460496
v -0.03331853 0.01635605 0.00731602
v -0.03391337 0.01965961 0.00781687
v -0.03389614 0.02092202 0.00783552
v -0.04096077 0.02092202 0.00868108
v -0.04096077 0.03176783 0.00496549
v -0.03248793 0.01635605 0.00460172
v -0.03332306 0.01635605 0.00453967
v -0.03333667 0.01635605 0.00453886
v -0.03334573 0.01635605 0.00453845
v -0.03174710 0.01635605 0.00672798
v -0.03331853 0.01782161 0.00747662
v -0.03400949 0.02185392 0.00779619
v -0.03552379 0.02509622 0.00780795
v -0.04096077 0.02247142 0.00863891
v -0.04096077 0.03194840 0.00500158
v -0.03641695 0.02556861 0.00517110
v -0.03169813 0.01635605 0.00526843
v -0.03512572 0.02556861 0.00575508
v -0.03251332 0.02023358 0.00628797
v -0.03236461 0.01937101 0.00657023
v -0.03213792 0.01782161 0.00676773
v -0.03377191 0.02241177 0.00696604
v -0.03515745 0.02559441 0.00707756
v -0.03596357 0.02612807 0.00766317
v -0.03699547 0.02644892 0.00777469
v -0.04096077 0.02257622 0.00863080
v -0.04096077 0.03280614 0.00567884
v -0.03539775 0.02663272 0.00594326
v -0.03398319 0.02360647 0.00604870
v -0.03236461 0.01937101 0.00589256
v -0.03251332 0.02023358 0.00614887
v -0.03398319 0.02360647 0.00644532
v -0.03539775 0.02663272 0.00663025
v -0.04027344 0.03256429 0.00622146
v -0.04096077 0.03282549 0.00637354
v -0.04096077 0.03187263 0.00672312
v -0.04096077 0.03176783 0.00675759
v -0.04096077 0.03021843 0.00724870
v -0.04096077 0.02871417 0.00758855
v -0.04096077 0.02705675 0.00792109
v -0.04096077 0.02556700 0.00820862
v -0.04096077 0.02402082 0.00844506
v -0.04096077 0.03282549 0.00636421
v -0.04027344 0.03256429 0.00614968
f 1 2 5
f 1 5 14
f 1 14 13
f 1 13 12
f 1 12 11
f 1 11 22
f 1 22 15
f 1 15 6
f 1 6 3
f 1 3 9
f 1 9 19
f 1 19 31
f 1 31 47
f 1 47 46
f 1 46 45
f 1 45 44
f 1 44 43
f 1 43 42
f 1 42 41
f 1 41 40
f 1 40 48
f 1 48 32
f 1 32 20
f 1 20 10
f 1 10 4
f 1 4 2
f 2 4 5
f 3 6 7
f 3 7 8
f 3 8 9
f 4 10 11
f 4 11 12
f 4 12 13
f 4 13 14
f 4 14 5
f 6 15 16
f 6 16 7
f 7 16 15
f 7 15 8
f 8 15 17
f 8 17 18
f 8 18 19
f 8 19 9
f 10 20 21
f 10 21 11
f 11 21 23
f 11 23 22
f 15 22 24
f 15 24 25
f 15 25 26
f 15 26 17
f 17 26 25
f 17 25 24
f 17 24 27
f 17 27 28
f 17 28 18
f 18 28 29
f 18 29 30
f 18 30 31
f 18 31 19
f 20 32 33
f 20 33 21
f 21 33 23
f 22 23 34
f 22 34 35
f 22 35 36
f 22 36 24
f 23 33 34
f 24 36 34
f 24 34 37
f 24 37 27
f 27 37 28
f 28 37 38
f 28 38 29
f 29 38 39
f 29 39 40
f 29 40 41
f 29 41 30
f 30 41 42
f 30 42 43
f 30 43 44
f 30 44 45
f 30 45 46
f 30 46 47
f 30 47 31
f 32 48 49
f 32 49 33
f 33 49 39
f 33 39 38
f 33 38 37
f 33 37 34
f 34 36 35
f 39 49 48
f 39 48 40

