# https://github.com/mikedh/trimesh
v -0.07337051 0.02319489 0.00132782
v -0.06961801 0.02319489 0.00246077
v -0.07337051 0.02319489 0.00269839
v -0.07337051 0.02856737 0.00006549
v -0.06900619 0.02319489 0.00267957
v -0.06898209 0.02319489 0.00269839
v -0.07337051 0.02856737 0.00269839
v -0.07051628 0.02856737 0.00133220
v -0.07035313 0.02856737 0.00140668
v -0.06863539 0.02829283 0.00225330
v -0.06863539 0.02749603 0.00252339
v -0.06863539 0.02705214 0.00267390
v -0.06863539 0.02701269 0.00269839
v -0.06863539 0.02856737 0.00269839
v -0.06863539 0.02856737 0.00223887
f 1 2 5
f 1 5 6
f 1 6 3
f 1 3 7
f 1 7 4
f 1 4 2
f 2 4 5
f 3 6 13
f 3 13 14
f 3 14 7
f 4 7 14
f 4 14 15
f 4 15 9
f 4 9 8
f 4 8 5
f 5 8 9
f 5 9 10
f 5 10 6
f 6 10 11
f 6 11 12
f 6 12 13
f 9 15 10
f 10 15 14
f 10 14 13
f 10 13 12
f 10 12 11

