# https://github.com/mikedh/trimesh
v -0.00388672 -0.00542246 0.00644645
v -0.00692854 -0.00235041 0.00461084
v -0.00445875 -0.00542246 0.00600060
v -0.00388672 -0.00700945 0.00561768
v -0.00388672 -0.00445413 0.00639825
v -0.00692854 0.00390837 0.00457134
v -0.00692854 0.00077403 0.00460816
v -0.00692854 -0.00387369 0.00426675
v -0.00486284 -0.00647715 0.00502723
v -0.00392662 -0.00705051 0.00554069
v -0.00388672 -0.00710997 0.00550454
v -0.00388672 0.00388855 0.00453118
v -0.00692854 0.00533115 0.00422189
v -0.00692854 -0.00496095 0.00351764
v -0.00437984 -0.00751061 0.00413821
v -0.00388672 -0.00801743 0.00373789
v -0.00388672 0.00516268 0.00377604
v -0.00692854 0.00632355 0.00341789
v -0.00692854 -0.00496236 0.00259783
v -0.00465172 -0.00774986 0.00310526
v -0.00388672 -0.00803017 0.00370709
v -0.00388672 0.00516268 0.00247063
v -0.00600661 0.00625135 0.00325790
v -0.00692854 0.00632355 0.00290845
v -0.00692854 -0.00393740 0.00194311
v -0.00388672 -0.00703352 0.00044959
v -0.00401179 -0.00713970 0.00068657
v -0.00457668 -0.00762245 0.00204286
v -0.00465172 -0.00774986 0.00307514
v -0.00398588 -0.00809104 0.00246528
v -0.00388672 -0.00813918 0.00245725
v -0.00692854 0.00542600 0.00225574
v -0.00692854 0.00630231 0.00289238
v -0.00600661 0.00625135 0.00300619
v -0.00388672 0.00386024 0.00172755
v -0.00692854 -0.00387369 0.00191433
v -0.00388672 -0.00611615 -0.00008931
v -0.00388672 -0.00720623 0.00061226
v -0.00388672 -0.00737187 0.00079636
v -0.00388672 -0.00787869 0.00141158
v -0.00388672 -0.00807122 0.00215867
v -0.00692854 0.00537786 0.00223365
v -0.00388672 0.00379370 0.00169743
v -0.00692854 -0.00240703 0.00175768
v -0.00388672 -0.00542246 -0.00039257
v -0.00692854 0.00387298 0.00180186
v -0.00388672 -0.00387369 -0.00035441
v -0.00388672 -0.00497935 -0.00039123
v -0.00692854 0.00073297 0.00177174
v -0.00692854 0.00382909 0.00180119
f 1 2 3
f 1 3 4
f 1 4 11
f 1 11 16
f 1 16 21
f 1 21 31
f 1 31 41
f 1 41 40
f 1 40 39
f 1 39 38
f 1 38 26
f 1 26 37
f 1 37 45
f 1 45 48
f 1 48 47
f 1 47 43
f 1 43 35
f 1 35 22
f 1 22 17
f 1 17 12
f 1 12 5
f 1 5 6
f 1 6 7
f 1 7 2
f 2 8 3
f 2 7 6
f 2 6 13
f 2 13 18
f 2 18 24
f 2 24 33
f 2 33 32
f 2 32 42
f 2 42 46
f 2 46 50
f 2 50 49
f 2 49 44
f 2 44 36
f 2 36 25
f 2 25 19
f 2 19 14
f 2 14 8
f 3 9 4
f 3 8 9
f 4 9 10
f 4 10 11
f 5 12 6
f 6 12 13
f 8 14 9
f 9 15 10
f 9 14 15
f 10 15 11
f 11 15 16
f 12 17 13
f 13 17 18
f 14 19 20
f 14 20 15
f 15 20 21
f 15 21 16
f 17 22 34
f 17 34 23
f 17 23 18
f 18 23 34
f 18 34 24
f 19 25 26
f 19 26 27
f 19 27 28
f 19 28 29
f 19 29 20
f 20 29 30
f 20 30 31
f 20 31 21
f 22 32 33
f 22 33 24
f 22 24 34
f 22 35 32
f 25 36 37
f 25 37 26
f 26 38 27
f 27 38 39
f 27 39 28
f 28 39 40
f 28 40 30
f 28 30 29
f 30 41 31
f 30 40 41
f 32 35 42
f 35 43 42
f 36 44 45
f 36 45 37
f 42 43 46
f 43 47 46
f 44 48 45
f 44 49 48
f 46 47 48
f 46 48 50
f 48 49 50

