# https://github.com/mikedh/trimesh
v 0.05041240 -0.02963713 -0.00306047
v 0.05143387 -0.02849883 -0.00556938
v 0.05417695 -0.03102232 -0.00396569
v 0.05726177 -0.03257385 -0.00321110
v 0.05260576 -0.03077024 -0.00232360
v 0.05047740 -0.02968131 0.00029606
v 0.05041240 -0.02760482 0.00363783
v 0.05041240 -0.01162960 -0.00444562
v 0.05059255 -0.02040337 -0.00770617
v 0.05163444 -0.02460573 -0.00753635
v 0.05435710 -0.02622742 -0.00772684
v 0.05894997 -0.02938504 -0.00772979
v 0.06862414 -0.03459316 -0.00764415
v 0.06585876 -0.03446322 -0.00662079
v 0.06193635 -0.03410978 -0.00468484
v 0.06938374 -0.03716604 -0.00455194
v 0.06067531 -0.03400322 -0.00232360
v 0.05363650 -0.02956956 0.00292163
v 0.05905397 -0.03312481 -0.00015433
v 0.05416024 -0.03102232 0.00091775
v 0.05882925 -0.03101193 0.00311508
v 0.05813466 -0.02787510 0.00464642
v 0.05122400 -0.02499556 0.00506580
v 0.05041240 -0.02168461 0.00557969
v 0.05089527 -0.01061864 -0.00039208
v 0.06062331 -0.01389321 -0.00326130
v 0.05892211 -0.01393999 -0.00465974
v 0.05343407 -0.01279649 -0.00502153
v 0.05143572 -0.01403875 -0.00644950
v 0.05078941 -0.01706642 -0.00747433
v 0.05086556 -0.01485999 0.00489598
v 0.06933174 -0.02689013 -0.00950626
v 0.06832699 -0.03140436 -0.00912232
v 0.06915159 -0.03422413 0.00293197
v 0.06915902 -0.03707768 -0.00164875
v 0.06933174 -0.02226415 -0.00884470
v 0.06938560 -0.02479285 0.00448546
v 0.06938560 -0.02789069 0.00455043
v 0.06521803 -0.03559893 -0.00118506
v 0.06354655 -0.03408639 0.00154092
v 0.06786454 -0.03581463 0.00085278
v 0.06834370 -0.03137837 0.00413105
v 0.05078941 -0.01859715 0.00556640
v 0.05121285 -0.01199084 0.00298809
v 0.05402466 -0.01217016 0.00188352
v 0.05993985 -0.01377366 0.00063423
v 0.06529975 -0.01543174 0.00016907
v 0.06642150 -0.01565524 -0.00167828
v 0.06927788 -0.01663501 -0.00181119
v 0.06918131 -0.01726654 -0.00499199
v 0.06275909 -0.01526801 -0.00495212
v 0.06584762 -0.01706382 -0.00616006
v 0.05974113 -0.01548372 -0.00620879
v 0.06503231 -0.01908054 -0.00789075
v 0.05733977 -0.01745885 -0.00762938
v 0.05346564 -0.01455072 0.00429644
v 0.05365879 -0.01584496 0.00485611
v 0.06927788 -0.01897659 -0.00714355
v 0.06873000 -0.02155466 0.00407789
v 0.05623845 -0.01682473 0.00474093
v 0.05623659 -0.01395039 0.00308407
v 0.06361155 -0.01547072 0.00158522
v 0.06820627 -0.01823071 0.00237969
v 0.06317325 -0.01693908 0.00317563
f 1 2 3
f 1 3 4
f 1 4 5
f 1 5 6
f 1 6 7
f 1 7 24
f 1 24 8
f 1 8 9
f 1 9 2
f 2 9 10
f 2 10 11
f 2 11 12
f 2 12 13
f 2 13 14
f 2 14 3
f 3 14 15
f 3 15 4
f 4 15 16
f 4 16 17
f 4 17 5
f 5 17 6
f 6 18 7
f 6 17 19
f 6 19 20
f 6 20 18
f 7 18 21
f 7 21 22
f 7 22 23
f 7 23 24
f 8 25 26
f 8 26 27
f 8 27 28
f 8 28 29
f 8 29 30
f 8 30 9
f 8 24 31
f 8 31 25
f 9 30 32
f 9 32 33
f 9 33 10
f 10 33 11
f 11 33 12
f 12 33 13
f 13 33 32
f 13 32 16
f 13 16 14
f 14 16 15
f 16 34 35
f 16 35 17
f 16 32 36
f 16 36 37
f 16 37 38
f 16 38 34
f 17 35 39
f 17 39 19
f 18 20 40
f 18 40 21
f 19 39 41
f 19 41 40
f 19 40 20
f 21 40 34
f 21 34 22
f 22 34 42
f 22 42 24
f 22 24 23
f 24 43 31
f 24 42 38
f 24 38 43
f 25 31 44
f 25 44 45
f 25 45 46
f 25 46 47
f 25 47 48
f 25 48 26
f 26 48 49
f 26 49 50
f 26 50 27
f 27 50 51
f 27 51 52
f 27 52 53
f 27 53 28
f 28 53 29
f 29 53 54
f 29 54 55
f 29 55 30
f 30 55 36
f 30 36 32
f 31 56 44
f 31 43 57
f 31 57 56
f 34 40 41
f 34 41 35
f 34 38 42
f 35 41 39
f 36 55 54
f 36 54 58
f 36 58 49
f 36 49 37
f 37 49 59
f 37 59 60
f 37 60 43
f 37 43 38
f 43 60 57
f 44 56 61
f 44 61 62
f 44 62 45
f 45 62 47
f 45 47 46
f 47 62 63
f 47 63 49
f 47 49 48
f 49 58 50
f 49 63 59
f 50 58 52
f 50 52 51
f 52 58 53
f 53 58 54
f 56 57 60
f 56 60 64
f 56 64 61
f 59 63 64
f 59 64 60
f 61 64 62
f 62 64 63

