# https://github.com/mikedh/trimesh
v -0.02365077 0.01098197 0.00461133
v -0.02427917 0.01020474 0.00324964
v -0.02427917 0.01007208 0.00554400
v -0.01936916 0.00965849 0.00498204
v -0.01737526 0.00938693 0.00469127
v -0.01936916 0.00989104 0.00387360
v -0.01827371 0.00940410 0.00299761
v -0.01936916 0.00952739 0.00291442
v -0.02427917 0.00875797 0.00284876
v -0.02091978 0.00958514 0.00288791
v -0.02091978 0.00852230 0.00253352
v -0.02427917 0.00852230 0.00566798
v -0.01936916 0.00852230 0.00533153
v -0.01781854 0.00852230 0.00517901
v -0.01231070 0.00778721 0.00468882
v -0.00692854 0.00631703 0.00315952
v -0.01212218 0.00784496 0.00299191
v -0.01317518 0.00794484 0.00287364
v -0.01007394 0.00673530 0.00258368
v -0.00694043 0.00540090 0.00224275
v -0.00852332 0.00542275 0.00209920
v -0.01007394 0.00542275 0.00198828
v -0.01936916 0.00852230 0.00256003
v -0.02427917 0.00555229 0.00244013
v -0.02246870 0.00542275 0.00215997
v -0.01162286 0.00542275 0.00197523
v -0.01552573 0.00314880 0.00153152
v -0.02427917 0.00542275 0.00568348
v -0.02414839 0.00386517 0.00569775
v -0.02246870 0.00387297 0.00565330
v -0.01627132 0.00697252 0.00524141
v -0.00911266 0.00627801 0.00469820
v -0.00692854 0.00532910 0.00422228
v -0.00692854 0.00384956 0.00180150
v -0.00852332 0.00651992 0.00272030
v -0.02427917 0.00383551 0.00261101
v -0.02246870 0.00387297 0.00205964
v -0.01550875 0.00193770 0.00154213
v -0.00692854 0.00073440 0.00177173
v -0.00692854 -0.00240730 0.00175786
v -0.02414839 0.00266342 0.00514802
v -0.02091978 0.00116359 0.00498163
v -0.00917719 -0.00314863 0.00468066
v -0.01005016 -0.00239949 0.00478832
v -0.01162286 -0.00077324 0.00499427
v -0.01007394 -0.00077324 0.00489762
v -0.00761639 0.00472667 0.00466435
v -0.00692854 0.00390730 0.00457096
v -0.02246870 0.00258851 0.00264975
v -0.02413651 0.00281793 0.00332754
v -0.01007394 -0.00232302 0.00193526
v -0.00692854 -0.00390401 0.00192874
v -0.02200504 0.00135400 0.00453344
v -0.01827201 -0.00012399 0.00477976
v -0.01055288 -0.00296759 0.00455750
v -0.00792549 -0.00472338 0.00311139
v -0.00692854 -0.00496061 0.00305797
v -0.00692854 -0.00387124 0.00426673
v -0.00692854 -0.00234955 0.00461052
v -0.00810212 -0.00261955 0.00467821
v -0.00692854 0.00077654 0.00460807
v -0.01859640 0.00000243 0.00309916
v -0.01007394 -0.00350603 0.00259673
v -0.01123902 -0.00330470 0.00317461
f 1 2 3
f 1 3 4
f 1 4 5
f 1 5 6
f 1 6 7
f 1 7 8
f 1 8 2
f 2 9 24
f 2 24 36
f 2 36 28
f 2 28 12
f 2 12 3
f 2 8 10
f 2 10 11
f 2 11 9
f 3 12 13
f 3 13 14
f 3 14 15
f 3 15 4
f 4 15 5
f 5 15 16
f 5 16 17
f 5 17 6
f 6 17 7
f 7 17 18
f 7 18 19
f 7 19 8
f 8 19 20
f 8 20 21
f 8 21 22
f 8 22 23
f 8 23 10
f 9 11 25
f 9 25 24
f 10 23 11
f 11 23 22
f 11 22 26
f 11 26 27
f 11 27 25
f 12 28 29
f 12 29 30
f 12 30 31
f 12 31 13
f 13 31 32
f 13 32 14
f 14 32 15
f 15 32 16
f 16 33 48
f 16 48 61
f 16 61 59
f 16 59 58
f 16 58 57
f 16 57 52
f 16 52 40
f 16 40 39
f 16 39 34
f 16 34 20
f 16 20 35
f 16 35 17
f 16 32 33
f 17 35 19
f 17 19 18
f 19 35 20
f 20 34 21
f 21 34 22
f 22 34 27
f 22 27 26
f 24 25 37
f 24 37 36
f 25 27 37
f 27 38 37
f 27 34 39
f 27 39 40
f 27 40 38
f 28 36 41
f 28 41 29
f 29 41 42
f 29 42 43
f 29 43 44
f 29 44 45
f 29 45 30
f 30 45 46
f 30 46 31
f 31 46 47
f 31 47 32
f 32 47 33
f 33 47 48
f 36 37 49
f 36 49 50
f 36 50 41
f 37 38 51
f 37 51 49
f 38 40 52
f 38 52 51
f 41 53 54
f 41 54 42
f 41 50 53
f 42 54 43
f 43 54 55
f 43 55 56
f 43 56 57
f 43 57 58
f 43 58 59
f 43 59 60
f 43 60 44
f 44 60 45
f 45 60 46
f 46 60 59
f 46 59 61
f 46 61 47
f 47 61 48
f 49 62 50
f 49 51 52
f 49 52 63
f 49 63 62
f 50 62 53
f 52 57 56
f 52 56 63
f 53 62 64
f 53 64 56
f 53 56 54
f 54 56 55
f 56 64 63
f 62 63 64

