# https://github.com/mikedh/trimesh
v -0.05037616 -0.00197848 0.00576658
v -0.05036417 -0.00197711 0.00576786
v -0.04881446 -0.00180047 0.00593580
v -0.05009971 -0.00194699 0.00593656
v -0.05035269 -0.00197369 0.00593656
v -0.05037616 -0.00197574 0.00593146
v -0.05037616 -0.00196753 0.00576218
v -0.04584545 -0.00087074 0.00587350
v -0.04596542 -0.00100698 0.00593656
v -0.04881446 -0.00180047 0.00593656
v -0.05037616 -0.00177583 0.00593656
v -0.05037616 -0.00077420 0.00528527
v -0.04504791 -0.00065919 0.00588645
v -0.04504791 -0.00066055 0.00590341
v -0.04504791 -0.00066192 0.00593656
v -0.05037616 0.00281740 0.00593656
v -0.04571557 0.00077513 0.00542177
v -0.04504791 0.00077513 0.00545059
v -0.05037616 0.00077513 0.00543013
v -0.04504791 0.00232446 0.00552105
v -0.04504791 0.00501577 0.00593656
f 1 2 3
f 1 3 4
f 1 4 5
f 1 5 6
f 1 6 11
f 1 11 16
f 1 16 19
f 1 19 12
f 1 12 7
f 1 7 8
f 1 8 9
f 1 9 2
f 2 9 3
f 3 10 4
f 3 9 10
f 4 10 9
f 4 9 15
f 4 15 21
f 4 21 16
f 4 16 11
f 4 11 5
f 5 11 6
f 7 12 8
f 8 12 13
f 8 13 9
f 9 13 14
f 9 14 15
f 12 17 18
f 12 18 13
f 12 19 20
f 12 20 17
f 13 18 20
f 13 20 21
f 13 21 15
f 13 15 14
f 16 21 19
f 17 20 18
f 19 21 20

