# https://github.com/mikedh/trimesh
v -0.04504791 0.02829112 0.00506983
v -0.04096168 0.02688722 0.00533987
v -0.04393355 0.02688722 0.00541633
v -0.04504791 0.02829112 0.00593619
v -0.04504791 0.03267179 0.00414743
v -0.04504791 0.03331668 0.00401191
v -0.04156165 0.03069642 0.00456740
v -0.04096168 0.02856535 0.00503540
v -0.04096168 0.02688722 0.00593639
v -0.04393355 0.02688722 0.00593639
v -0.04504791 0.03481081 0.00593619
v -0.04504791 0.03419953 0.00389161
v -0.04154325 0.03176681 0.00455218
v -0.04096168 0.03010549 0.00483763
v -0.04096168 0.03281421 0.00593639
v -0.04393355 0.03451446 0.00593639
v -0.04417794 0.03464804 0.00593619
v -0.04504791 0.03520005 0.00577064
v -0.04504791 0.03485327 0.00397768
v -0.04172405 0.03266206 0.00460183
v -0.04096168 0.03194816 0.00500137
v -0.04096168 0.03176681 0.00496534
v -0.04096168 0.03280625 0.00567836
v -0.04472952 0.03581575 0.00445530
v -0.04472952 0.03581575 0.00495353
v -0.04300959 0.03431542 0.00593639
v -0.04504791 0.03592456 0.00504761
v -0.04504791 0.03557513 0.00424391
v -0.04419394 0.03483646 0.00428735
v -0.04314518 0.03429950 0.00450894
v -0.04504791 0.03592456 0.00437603
f 1 2 3
f 1 3 10
f 1 10 4
f 1 4 11
f 1 11 18
f 1 18 27
f 1 27 31
f 1 31 28
f 1 28 19
f 1 19 12
f 1 12 6
f 1 6 5
f 1 5 2
f 2 5 6
f 2 6 7
f 2 7 8
f 2 8 14
f 2 14 22
f 2 22 21
f 2 21 23
f 2 23 15
f 2 15 9
f 2 9 10
f 2 10 3
f 4 10 16
f 4 16 11
f 6 12 7
f 7 13 14
f 7 14 8
f 7 12 13
f 9 15 26
f 9 26 16
f 9 16 10
f 11 16 17
f 11 17 18
f 12 19 20
f 12 20 13
f 13 20 21
f 13 21 22
f 13 22 14
f 15 23 24
f 15 24 25
f 15 25 26
f 16 26 17
f 17 26 18
f 18 26 27
f 19 28 29
f 19 29 30
f 19 30 20
f 20 23 21
f 20 30 23
f 23 30 24
f 24 30 29
f 24 29 31
f 24 31 27
f 24 27 25
f 25 27 26
f 28 31 29

