# https://github.com/mikedh/trimesh
v -0.04096167 0.01635605 0.00866187
v -0.04088260 0.01635605 0.00864580
v -0.04096167 0.01635605 0.00590605
v -0.04096167 0.01627126 0.00866113
v -0.03769125 0.00849749 0.00794423
v -0.03951630 0.01627126 0.00836697
v -0.03951630 0.01635605 0.00836734
v -0.03960081 0.01635605 0.00562535
v -0.04096167 0.01306714 0.00571281
v -0.04096167 0.01007277 0.00852096
v -0.03951630 0.00852426 0.00827539
v -0.03769125 0.00691179 0.00791209
v -0.03769125 0.01635605 0.00792218
v -0.03943178 0.01635605 0.00834753
v -0.03805139 0.01635605 0.00533679
v -0.04096167 0.00387428 0.00521532
v -0.04096167 0.00852426 0.00848284
v -0.04096167 0.00397990 0.00827539
v -0.03951630 0.00542428 0.00812476
v -0.03807124 0.00542428 0.00789601
v -0.03769125 0.00542428 0.00780967
v -0.03769125 0.01635605 0.00527251
v -0.03769125 0.01599458 0.00525382
v -0.03769125 0.00697427 0.00485874
v -0.03796688 0.00542428 0.00487332
v -0.03769125 0.00540643 0.00484341
v -0.04096167 0.00232429 0.00537978
v -0.03769125 0.01007277 0.00496975
v -0.04096167 0.00387428 0.00826455
v -0.03828029 0.00436070 0.00780556
v -0.03769125 0.00499736 0.00775435
v -0.03769125 0.00379842 0.00550910
v -0.03955855 0.00230793 0.00571057
v -0.04096167 0.00120865 0.00587876
v -0.04096167 0.00226330 0.00799394
v -0.03991198 0.00271402 0.00787022
v -0.03887924 0.00332836 0.00766502
v -0.03769125 0.00387131 0.00720977
v -0.03769125 0.00378354 0.00716043
v -0.03830557 0.00281368 0.00591539
v -0.04010341 0.00142583 0.00604136
v -0.04096167 0.00115956 0.00702363
v -0.04096167 0.00152400 0.00773604
v -0.04043218 0.00168168 0.00760372
v -0.03830557 0.00281368 0.00663229
v -0.04010341 0.00142583 0.00657099
v -0.04096167 0.00118188 0.00707558
f 1 2 7
f 1 7 14
f 1 14 13
f 1 13 22
f 1 22 15
f 1 15 8
f 1 8 3
f 1 3 9
f 1 9 16
f 1 16 27
f 1 27 34
f 1 34 42
f 1 42 47
f 1 47 43
f 1 43 35
f 1 35 29
f 1 29 18
f 1 18 17
f 1 17 10
f 1 10 4
f 1 4 5
f 1 5 2
f 2 6 7
f 2 5 6
f 3 8 9
f 4 10 11
f 4 11 5
f 5 11 12
f 5 12 21
f 5 21 31
f 5 31 38
f 5 38 39
f 5 39 32
f 5 32 26
f 5 26 24
f 5 24 28
f 5 28 23
f 5 23 22
f 5 22 13
f 5 13 14
f 5 14 7
f 5 7 6
f 8 15 16
f 8 16 9
f 10 17 11
f 11 17 18
f 11 18 19
f 11 19 12
f 12 19 20
f 12 20 21
f 15 22 23
f 15 23 16
f 16 24 25
f 16 25 26
f 16 26 27
f 16 23 28
f 16 28 24
f 18 29 20
f 18 20 19
f 20 29 30
f 20 30 31
f 20 31 21
f 24 26 25
f 26 32 27
f 27 32 33
f 27 33 34
f 29 35 36
f 29 36 30
f 30 36 37
f 30 37 38
f 30 38 31
f 32 39 40
f 32 40 41
f 32 41 33
f 33 41 34
f 34 41 42
f 35 43 36
f 36 43 44
f 36 44 37
f 37 39 38
f 37 44 39
f 39 44 45
f 39 45 40
f 40 45 46
f 40 46 41
f 41 46 42
f 42 46 44
f 42 44 47
f 43 47 44
f 44 46 45

