# https://github.com/mikedh/trimesh
v -0.07337051 0.01317054 0.00546816
v -0.07337051 0.01346321 0.00546656
v -0.07557880 0.01317054 0.00446944
v -0.07546428 0.01162108 0.00449266
v -0.07445432 0.00914194 0.00468648
v -0.07337051 0.01029278 0.00521508
v -0.07337051 0.01472000 0.00544974
v -0.07337051 0.01568940 0.00540809
v -0.07361018 0.01568940 0.00529356
v -0.07400503 0.01568940 0.00509895
v -0.07462014 0.01568940 0.00478900
v -0.07753866 0.01568940 0.00313674
v -0.07976258 0.01157738 0.00200587
v -0.07670766 0.01162108 0.00383993
v -0.07976258 0.01009678 0.00203471
v -0.07337051 0.00697535 0.00472573
v -0.07337051 0.00761897 0.00485948
v -0.07365085 0.00858705 0.00492195
v -0.07337051 0.00884794 0.00505890
v -0.07592359 0.00476373 0.00309189
v -0.07337051 0.01568940 0.00147247
v -0.07976258 0.01568940 0.00174478
v -0.07976258 0.00861354 0.00170794
v -0.07337051 0.00559408 0.00442299
v -0.07337051 0.00857646 0.00502526
v -0.07896349 0.00646416 0.00149490
v -0.07447184 0.00305006 0.00313995
v -0.07482914 0.00387643 0.00327770
v -0.07361018 0.00387643 0.00381030
v -0.07337051 0.00412541 0.00399130
v -0.07976258 0.01568940 -0.00168947
v -0.07337051 0.00994713 -0.00036799
v -0.07976258 0.00687338 0.00093587
v -0.07946097 0.00590265 0.00046334
v -0.07976258 0.00677670 0.00085498
v -0.07481475 0.00289379 0.00232303
v -0.07337051 0.00216011 0.00232303
v -0.07337051 0.00268322 0.00338742
v -0.07337051 0.00293616 0.00349875
v -0.07337051 0.00387246 0.00390400
v -0.07745918 0.00469089 0.00142762
v -0.07337051 0.00852481 -0.00065952
v -0.07976258 0.00992330 -0.00252882
v -0.07976258 0.00608805 -0.00077405
v -0.07759748 0.00458760 0.00039687
v -0.07487107 0.00287525 0.00114971
v -0.07684845 0.00412673 0.00085819
v -0.07337051 0.00242365 0.00120738
v -0.07976258 0.00841622 -0.00271382
v -0.07976258 0.00855792 -0.00270341
v -0.07337051 0.00374665 0.00014458
v -0.07388050 0.00425652 -0.00022303
v -0.07591483 0.00620857 -0.00155973
v -0.07976258 0.00626287 -0.00118090
v -0.07948099 0.00591457 -0.00077405
v -0.07759748 0.00458760 -0.00012532
v -0.07361018 0.00261833 0.00090063
v -0.07670766 0.00436908 -0.00035758
v -0.07337051 0.00256006 0.00092066
v -0.07670766 0.00598078 -0.00168227
v -0.07825764 0.00595032 -0.00174634
v -0.07976071 0.00696476 -0.00209393
v -0.07515954 0.00412011 -0.00043126
v -0.07920191 0.00611719 -0.00164462
f 1 2 3
f 1 3 4
f 1 4 5
f 1 5 6
f 1 6 19
f 1 19 25
f 1 25 17
f 1 17 16
f 1 16 24
f 1 24 30
f 1 30 40
f 1 40 39
f 1 39 38
f 1 38 37
f 1 37 48
f 1 48 59
f 1 59 51
f 1 51 42
f 1 42 32
f 1 32 21
f 1 21 8
f 1 8 7
f 1 7 2
f 2 7 3
f 3 7 8
f 3 8 9
f 3 9 10
f 3 10 11
f 3 11 12
f 3 12 13
f 3 13 14
f 3 14 4
f 4 14 15
f 4 15 5
f 5 16 17
f 5 17 18
f 5 18 19
f 5 19 6
f 5 15 20
f 5 20 16
f 8 21 31
f 8 31 22
f 8 22 12
f 8 12 11
f 8 11 10
f 8 10 9
f 12 22 13
f 13 22 31
f 13 31 43
f 13 43 50
f 13 50 49
f 13 49 54
f 13 54 44
f 13 44 35
f 13 35 33
f 13 33 23
f 13 23 15
f 13 15 14
f 15 23 20
f 16 20 24
f 17 25 18
f 18 25 19
f 20 23 26
f 20 26 27
f 20 27 28
f 20 28 29
f 20 29 30
f 20 30 24
f 21 32 31
f 23 33 26
f 26 34 27
f 26 33 35
f 26 35 34
f 27 36 37
f 27 37 38
f 27 38 39
f 27 39 40
f 27 40 29
f 27 29 28
f 27 34 41
f 27 41 36
f 29 40 30
f 31 32 42
f 31 42 43
f 34 35 44
f 34 44 45
f 34 45 36
f 34 36 41
f 36 46 37
f 36 45 47
f 36 47 46
f 37 46 48
f 42 49 50
f 42 50 43
f 42 51 52
f 42 52 53
f 42 53 49
f 44 54 55
f 44 55 56
f 44 56 45
f 45 56 46
f 45 46 47
f 46 57 48
f 46 56 58
f 46 58 57
f 48 57 59
f 49 53 60
f 49 60 61
f 49 61 62
f 49 62 54
f 51 59 63
f 51 63 52
f 52 63 60
f 52 60 53
f 54 64 55
f 54 62 64
f 55 64 56
f 56 64 58
f 57 58 63
f 57 63 59
f 58 64 61
f 58 61 63
f 60 63 61
f 61 64 62

