# https://github.com/mikedh/trimesh
v 0.03125238 -0.09362360 0.01026797
v 0.03490359 -0.09362360 0.01015503
v 0.03123156 -0.08999262 0.00952543
v 0.02839491 -0.08999262 0.00939838
v 0.02839491 -0.09362360 0.01007598
v 0.03490359 -0.08999262 0.00934756
v 0.03858864 -0.09362360 0.00950002
v 0.02839491 -0.08915151 0.00917534
v 0.03490359 -0.08631566 0.00850903
v 0.03123156 -0.08631566 0.00854009
v 0.02839491 -0.09362360 -0.01286076
v 0.03734728 -0.08372341 0.00751239
v 0.04184428 -0.09362360 0.00815894
v 0.04978170 -0.04667810 -0.00392774
v 0.04782467 -0.04667810 -0.00329249
v 0.04307523 -0.04667810 -0.00308639
v 0.02839491 -0.08610424 0.00816458
v 0.04591448 -0.04667810 -0.00287182
v 0.03490359 -0.08351198 0.00771285
v 0.03120814 -0.09362360 -0.01289464
v 0.02839491 -0.07418631 -0.01857518
v 0.04368420 -0.09362360 0.00701267
v 0.05298009 -0.04667810 -0.00564433
v 0.05015645 -0.04667810 -0.00408867
v 0.04120929 -0.04667810 -0.00552292
v 0.02839491 -0.07170436 0.00121072
v 0.02839491 -0.07529859 0.00305436
v 0.02839491 -0.08560325 0.00796695
v 0.03019319 -0.07396569 -0.01851024
v 0.03490359 -0.09362360 -0.01239209
v 0.02839491 -0.07304186 -0.01857518
v 0.04531853 -0.09362360 0.00518879
v 0.05340168 -0.04667810 -0.00595489
v 0.04171676 -0.04667810 -0.00940500
v 0.02839491 -0.06964068 -0.01502061
v 0.02839491 -0.06959471 -0.01285511
v 0.02839491 -0.06996241 -0.00186389
v 0.02839491 -0.07000837 -0.00148274
v 0.02839491 -0.07098736 0.00041736
v 0.03019319 -0.07315676 -0.01851024
v 0.05322472 -0.04667810 -0.01210411
v 0.03490359 -0.07530318 -0.01704494
v 0.03795104 -0.09362360 -0.01148862
v 0.04958652 -0.04667810 -0.01287770
v 0.02839491 -0.07114822 -0.01663273
v 0.04176100 -0.04667810 -0.00965910
v 0.04383774 -0.04667810 -0.01154509
v 0.04590147 -0.04667810 -0.01231021
v 0.04639593 -0.04667810 -0.01241467
v 0.04724953 -0.09362360 0.00157775
v 0.05489288 -0.04667810 -0.00868223
v 0.05014344 -0.04667810 -0.01276477
v 0.05498136 -0.04667810 -0.00917914
v 0.04593010 -0.09362360 -0.00550881
v 0.04442329 -0.09362360 -0.00770818
v 0.04494378 -0.07530318 -0.01187824
v 0.04220862 -0.07552840 -0.01386022
v 0.04096206 -0.07444829 -0.01500931
v 0.03857302 -0.07163083 -0.01599466
v 0.03883066 -0.07552840 -0.01562198
v 0.03978315 -0.09362360 -0.01077996
v 0.04743691 -0.09362360 -0.00162108
v 0.04223985 -0.09362360 -0.00929772
v 0.04219821 -0.09362360 -0.00932313
f 1 2 3
f 1 3 4
f 1 4 5
f 1 5 11
f 1 11 20
f 1 20 30
f 1 30 43
f 1 43 61
f 1 61 64
f 1 64 63
f 1 63 55
f 1 55 54
f 1 54 62
f 1 62 50
f 1 50 32
f 1 32 22
f 1 22 13
f 1 13 7
f 1 7 2
f 2 6 3
f 2 7 6
f 3 8 4
f 3 6 9
f 3 9 10
f 3 10 8
f 4 8 17
f 4 17 28
f 4 28 27
f 4 27 26
f 4 26 39
f 4 39 38
f 4 38 37
f 4 37 36
f 4 36 35
f 4 35 45
f 4 45 31
f 4 31 21
f 4 21 11
f 4 11 5
f 6 7 12
f 6 12 9
f 7 13 14
f 7 14 15
f 7 15 12
f 8 10 16
f 8 16 17
f 9 12 18
f 9 18 19
f 9 19 10
f 10 19 18
f 10 18 16
f 11 21 20
f 12 15 18
f 13 22 23
f 13 23 24
f 13 24 14
f 14 24 23
f 14 23 33
f 14 33 51
f 14 51 53
f 14 53 41
f 14 41 52
f 14 52 44
f 14 44 49
f 14 49 48
f 14 48 47
f 14 47 46
f 14 46 34
f 14 34 25
f 14 25 16
f 14 16 18
f 14 18 15
f 16 25 26
f 16 26 27
f 16 27 28
f 16 28 17
f 20 21 29
f 20 29 30
f 21 31 40
f 21 40 29
f 22 32 33
f 22 33 23
f 25 34 35
f 25 35 36
f 25 36 37
f 25 37 38
f 25 38 39
f 25 39 26
f 29 40 41
f 29 41 42
f 29 42 30
f 30 42 43
f 31 44 40
f 31 45 46
f 31 46 47
f 31 47 48
f 31 48 49
f 31 49 44
f 32 50 51
f 32 51 33
f 34 46 35
f 35 46 45
f 40 44 52
f 40 52 41
f 41 53 54
f 41 54 55
f 41 55 56
f 41 56 57
f 41 57 58
f 41 58 59
f 41 59 42
f 42 60 43
f 42 59 58
f 42 58 60
f 43 60 61
f 50 62 53
f 50 53 51
f 53 62 54
f 55 63 57
f 55 57 56
f 57 63 58
f 58 63 64
f 58 64 61
f 58 61 60

