# https://github.com/mikedh/trimesh
v -0.09539495 0.00316133 -0.04963122
v -0.10621377 0.00316133 -0.02754574
v -0.10600254 0.00330828 -0.04641244
v -0.10567990 0.00369457 -0.04959692
v -0.10994847 0.00957279 -0.04961407
v -0.10587024 0.01715150 -0.04963122
v -0.11583487 0.03206959 -0.04588646
v -0.11583024 0.04574485 -0.00183557
v -0.09212214 0.00316133 -0.00184128
v -0.10632750 0.00327050 -0.02344080
v -0.10794765 0.00552102 -0.03855703
v -0.10658979 0.00379534 -0.04137560
v -0.10631590 0.00316133 -0.00184128
v -0.10781303 0.00559659 -0.04590361
v -0.10744165 0.00606685 -0.04960263
v -0.11261081 0.01353219 -0.04952831
v -0.11443059 0.01642512 -0.04948829
v -0.11028968 0.00904795 -0.04590361
v -0.11334197 0.01368335 -0.04637242
v -0.11548671 0.01711791 -0.04589790
v -0.11571418 0.01711371 -0.04172436
v -0.11583487 0.01715150 -0.03488660
v -0.11583487 0.03252305 -0.01122318
v -0.11583024 0.04604717 0.00194349
v -0.09296472 0.00316133 0.00178913
v -0.10816352 0.00551682 -0.00184128
v -0.11042199 0.00885481 -0.03869425
v -0.11038716 0.00890099 -0.04223318
v -0.10102602 0.00316133 0.00560249
v -0.10646677 0.00335867 0.00183487
v -0.11345803 0.01349860 -0.04223318
v -0.11557491 0.01674422 -0.03844841
v -0.11546582 0.01653429 -0.03488089
v -0.11577221 0.01681980 -0.00156686
v -0.11583487 0.01708432 -0.02387531
v -0.11583487 0.01706753 -0.01204645
v -0.11583024 0.03122145 0.00877553
v -0.11583024 0.03538659 0.00838104
v -0.11583024 0.03856503 0.00768926
v -0.11583024 0.04272597 0.00567681
v -0.11371799 0.04078196 0.00394451
v -0.09473110 0.00316133 0.00406457
v -0.11052179 0.00869526 -0.00184128
v -0.11107886 0.00975753 -0.03488089
v -0.11350446 0.01343142 -0.03855703
v -0.09738416 0.00316133 0.00515655
v -0.10504391 0.00439576 0.00476206
v -0.11046144 0.00877083 0.00183487
v -0.10724435 0.00551682 0.00418463
v -0.11075854 0.01019420 0.00416748
v -0.11413813 0.01428377 -0.02387531
v -0.11414740 0.01427117 -0.02021059
v -0.11583487 0.01705913 -0.01580836
v -0.11583487 0.01705913 -0.01947879
v -0.11357874 0.01329706 -0.00184128
v -0.11352535 0.01335165 0.00234370
v -0.11576756 0.01748740 0.00246376
v -0.11583024 0.01998144 0.00491071
v -0.11583024 0.02547338 0.00722617
v -0.11293578 0.01244472 -0.02387531
v -0.11292882 0.01248251 -0.03121046
v -0.11109047 0.00974494 -0.03121046
v -0.11200268 0.01305354 0.00457911
v -0.11469055 0.01653429 0.00435043
f 1 2 3
f 1 3 4
f 1 4 5
f 1 5 6
f 1 6 7
f 1 7 8
f 1 8 9
f 1 9 25
f 1 25 42
f 1 42 46
f 1 46 29
f 1 29 13
f 1 13 2
f 2 10 11
f 2 11 12
f 2 12 3
f 2 13 10
f 3 14 4
f 3 12 14
f 4 14 15
f 4 15 5
f 5 16 17
f 5 17 6
f 5 15 18
f 5 18 19
f 5 19 16
f 6 17 7
f 7 17 20
f 7 20 21
f 7 21 22
f 7 22 35
f 7 35 54
f 7 54 53
f 7 53 36
f 7 36 23
f 7 23 24
f 7 24 8
f 8 24 9
f 9 24 25
f 10 13 26
f 10 26 11
f 11 27 28
f 11 28 12
f 11 26 27
f 12 28 14
f 13 29 30
f 13 30 26
f 14 28 18
f 14 18 15
f 16 19 17
f 17 19 20
f 18 28 31
f 18 31 19
f 19 31 20
f 20 31 21
f 21 31 32
f 21 32 22
f 22 32 33
f 22 33 34
f 22 34 35
f 23 36 37
f 23 37 38
f 23 38 39
f 23 39 40
f 23 40 24
f 24 40 41
f 24 41 25
f 25 41 40
f 25 40 42
f 26 30 43
f 26 43 27
f 27 44 45
f 27 45 28
f 27 43 44
f 28 45 31
f 29 46 37
f 29 37 47
f 29 47 30
f 30 48 43
f 30 47 49
f 30 49 50
f 30 50 48
f 31 45 32
f 32 45 51
f 32 51 33
f 33 51 52
f 33 52 34
f 34 36 53
f 34 53 54
f 34 54 35
f 34 52 55
f 34 55 56
f 34 56 57
f 34 57 58
f 34 58 36
f 36 58 59
f 36 59 37
f 37 59 47
f 37 46 38
f 38 46 42
f 38 42 39
f 39 42 40
f 43 48 56
f 43 56 55
f 43 55 60
f 43 60 61
f 43 61 62
f 43 62 44
f 44 62 61
f 44 61 45
f 45 61 51
f 47 59 49
f 48 50 56
f 49 59 50
f 50 59 63
f 50 63 64
f 50 64 56
f 51 61 52
f 52 61 60
f 52 60 55
f 56 64 57
f 57 64 58
f 58 64 59
f 59 64 63

