# https://github.com/mikedh/trimesh
v 0.06940450 -0.02318084 0.01187637
v 0.06940450 -0.02795326 0.01013312
v 0.07001922 -0.02624796 0.01134161
v 0.07176941 -0.02404855 0.01159237
v 0.07527457 -0.02278314 0.01132046
v 0.07163564 -0.02019205 0.01178875
v 0.06940450 -0.02019205 0.01175250
v 0.06940450 -0.02866430 -0.01898857
v 0.06953987 -0.02957419 0.00745932
v 0.07308166 -0.02539230 0.01071017
v 0.07726205 -0.02190940 0.01107272
v 0.07521724 -0.02037282 0.01131442
v 0.08567379 0.00119345 0.00871918
v 0.08567379 0.00486315 0.00826599
v 0.08567379 0.00809900 0.00767685
v 0.06940450 -0.01728160 0.01113617
v 0.07163564 -0.02730247 -0.01898857
v 0.06940450 0.00594177 -0.01898857
v 0.07380944 -0.02594065 -0.01898857
v 0.08084047 -0.02206607 0.00732639
v 0.08567379 -0.01013502 0.00746537
v 0.08567379 -0.00582056 0.00847446
v 0.08567379 -0.00215086 0.00877658
v 0.08567379 0.01031648 0.00709980
v 0.06940450 -0.01467846 0.01028418
v 0.06940450 0.00664076 -0.01722115
v 0.08457017 0.02974963 -0.01898253
v 0.08567379 0.03147300 -0.01898253
v 0.08142970 0.02422399 -0.01898857
v 0.07564723 -0.02463908 -0.01898857
v 0.07821279 -0.02280121 -0.01898857
v 0.08004898 -0.02145747 -0.01898857
v 0.08193135 -0.02000525 -0.01898555
v 0.08514030 -0.01745032 -0.01898253
v 0.08567379 -0.01723339 -0.00184306
v 0.08567379 -0.01710082 0.00119932
v 0.08567379 -0.01605836 0.00400605
v 0.08567379 -0.01302137 0.00609372
v 0.08567379 0.01226884 0.00645929
v 0.06940450 -0.01140646 0.00905453
v 0.06940450 0.00699025 -0.01558666
v 0.08567379 0.03198519 -0.01625737
v 0.08567379 0.01608918 0.00498191
v 0.06940450 -0.00739932 0.00742911
v 0.06940450 0.00715295 -0.01284942
v 0.08567379 0.03187673 -0.01262887
v 0.08567379 0.01877065 0.00382176
v 0.06940450 -0.00410924 0.00524476
v 0.08567379 0.02046993 0.00285194
v 0.08567379 0.02288024 0.00129298
v 0.06940450 0.00700833 -0.01060464
v 0.08567379 0.03107530 -0.00935687
v 0.06940450 0.00676127 -0.00890066
v 0.06940450 -0.00240997 0.00407252
v 0.08567379 0.02558581 -0.00100920
v 0.06940450 0.00001240 0.00207850
v 0.08567379 0.03006297 -0.00705167
v 0.06940450 0.00624305 -0.00700333
v 0.06940450 0.00574291 -0.00550480
v 0.08567379 0.02695367 -0.00240803
v 0.06940450 0.00175385 0.00031108
v 0.08567379 0.02903256 -0.00516642
v 0.06940450 0.00444737 -0.00302738
v 0.06940450 0.00312773 -0.00127507
f 1 2 3
f 1 3 4
f 1 4 5
f 1 5 6
f 1 6 7
f 1 7 16
f 1 16 25
f 1 25 40
f 1 40 44
f 1 44 48
f 1 48 54
f 1 54 56
f 1 56 61
f 1 61 64
f 1 64 63
f 1 63 59
f 1 59 58
f 1 58 53
f 1 53 51
f 1 51 45
f 1 45 41
f 1 41 26
f 1 26 18
f 1 18 8
f 1 8 2
f 2 8 9
f 2 9 10
f 2 10 3
f 3 10 5
f 3 5 4
f 5 10 11
f 5 11 6
f 6 11 12
f 6 12 13
f 6 13 14
f 6 14 7
f 7 14 15
f 7 15 16
f 8 17 9
f 8 18 29
f 8 29 32
f 8 32 31
f 8 31 30
f 8 30 19
f 8 19 17
f 9 17 19
f 9 19 20
f 9 20 10
f 10 20 11
f 11 20 21
f 11 21 22
f 11 22 23
f 11 23 13
f 11 13 12
f 13 23 22
f 13 22 21
f 13 21 38
f 13 38 37
f 13 37 36
f 13 36 35
f 13 35 28
f 13 28 42
f 13 42 46
f 13 46 52
f 13 52 57
f 13 57 62
f 13 62 60
f 13 60 55
f 13 55 50
f 13 50 49
f 13 49 47
f 13 47 43
f 13 43 39
f 13 39 24
f 13 24 15
f 13 15 14
f 15 24 16
f 16 24 25
f 18 26 27
f 18 27 28
f 18 28 29
f 19 30 20
f 20 30 31
f 20 31 32
f 20 32 33
f 20 33 34
f 20 34 35
f 20 35 36
f 20 36 37
f 20 37 38
f 20 38 21
f 24 39 25
f 25 39 40
f 26 41 28
f 26 28 27
f 28 41 42
f 28 35 34
f 28 34 29
f 29 34 32
f 32 34 33
f 39 43 40
f 40 43 44
f 41 45 42
f 42 45 46
f 43 47 44
f 44 47 49
f 44 49 50
f 44 50 48
f 45 51 46
f 46 51 53
f 46 53 52
f 48 50 54
f 50 55 56
f 50 56 54
f 52 53 58
f 52 58 59
f 52 59 57
f 55 60 61
f 55 61 56
f 57 59 63
f 57 63 62
f 60 62 64
f 60 64 61
f 62 63 64

