# https://github.com/mikedh/trimesh
v -0.07808877 0.16713408 -0.06542452
v -0.07490923 0.16713408 -0.06676628
v -0.07503759 0.13228094 -0.06969998
v -0.07604478 0.12227614 -0.06542452
v -0.07535686 0.11299671 -0.05566827
v -0.07535357 0.18219879 -0.05474285
v -0.07535357 0.19284049 -0.05699604
v -0.07534699 0.18863865 -0.06022888
v -0.07535357 0.18224301 -0.06302088
v -0.07507380 0.17144207 -0.06589510
v -0.06795438 0.14144537 -0.07137063
v -0.07162765 0.17079632 -0.06745729
v -0.07162765 0.16713408 -0.06785614
v -0.06427782 0.13776545 -0.07226106
v -0.07503759 0.12699989 -0.06883929
v -0.06427782 0.14143653 -0.07244474
v -0.07535028 0.11299671 -0.06265001
v -0.06520931 0.11299671 -0.05550557
v -0.05981132 0.19210628 -0.05474285
v -0.07484669 0.19498122 -0.05495802
v -0.07110102 0.19615774 -0.05660593
v -0.07234518 0.19389317 -0.05804741
v -0.07406990 0.19144283 -0.05911978
v -0.07132154 0.19273434 -0.05950989
v -0.06795438 0.19284935 -0.06076593
v -0.07166056 0.18783367 -0.06202023
v -0.07485986 0.18491450 -0.06231238
v -0.06795768 0.16713408 -0.06835296
v -0.06983051 0.17635160 -0.06613301
v -0.06356687 0.19164629 -0.06270949
v -0.06795768 0.17079632 -0.06779841
v -0.06060456 0.13776545 -0.07258644
v -0.06060456 0.13409436 -0.07175374
v -0.06520931 0.11299671 -0.06351420
v -0.05694447 0.15919040 -0.07013557
v -0.06060456 0.14143653 -0.07261443
v -0.05189867 0.12226730 -0.06615925
v -0.04460151 0.13390860 -0.06542626
v -0.04446656 0.14505453 -0.06564493
v -0.04446327 0.17016826 -0.06615400
v -0.06021288 0.20334952 -0.05541461
v -0.06297770 0.20229685 -0.05504199
v -0.06895828 0.19870538 -0.05536912
v -0.06795438 0.19717502 -0.05762056
v -0.06892536 0.19504315 -0.05904805
v -0.06458722 0.19286703 -0.06188728
v -0.06452140 0.19778540 -0.05892035
v -0.06747054 0.18950557 -0.06253980
v -0.06036099 0.19483969 -0.06208846
v -0.05694776 0.13409436 -0.07160504
v -0.05694776 0.13776545 -0.07216834
v -0.05694776 0.13077713 -0.07047495
v -0.05275115 0.15734160 -0.07027027
v -0.05694776 0.14143653 -0.07198816
v -0.05053600 0.15612970 -0.07009359
v -0.05430472 0.13147596 -0.07019155
v -0.05216856 0.13476666 -0.07024753
v -0.04446327 0.14888484 -0.06702519
v -0.04446327 0.16639987 -0.06717214
v -0.06021617 0.20028881 -0.05872967
v -0.06411654 0.20010305 -0.05687359
v -0.04953540 0.15244977 -0.06979620
v -0.05327449 0.13776545 -0.07098751
v -0.04446327 0.15978308 -0.06761648
f 1 2 3
f 1 3 4
f 1 4 5
f 1 5 6
f 1 6 7
f 1 7 8
f 1 8 9
f 1 9 10
f 1 10 2
f 2 11 3
f 2 10 12
f 2 12 13
f 2 13 11
f 3 14 15
f 3 15 4
f 3 11 16
f 3 16 14
f 4 15 17
f 4 17 5
f 5 17 34
f 5 34 18
f 5 18 6
f 6 19 20
f 6 20 7
f 6 18 19
f 7 20 21
f 7 21 22
f 7 22 23
f 7 23 8
f 8 23 24
f 8 24 25
f 8 25 26
f 8 26 27
f 8 27 9
f 9 27 12
f 9 12 10
f 11 13 16
f 12 28 16
f 12 16 13
f 12 27 29
f 12 29 30
f 12 30 31
f 12 31 28
f 14 32 33
f 14 33 15
f 14 16 32
f 15 34 17
f 15 33 34
f 16 35 36
f 16 36 32
f 16 28 31
f 16 31 35
f 18 34 37
f 18 37 38
f 18 38 19
f 19 38 39
f 19 39 40
f 19 40 41
f 19 41 42
f 19 42 20
f 20 42 43
f 20 43 21
f 21 43 44
f 21 44 22
f 22 44 45
f 22 45 23
f 23 45 24
f 24 45 25
f 25 46 26
f 25 45 47
f 25 47 46
f 26 48 27
f 26 46 48
f 27 48 29
f 29 48 30
f 30 48 46
f 30 46 49
f 30 49 31
f 31 49 35
f 32 50 33
f 32 36 51
f 32 51 50
f 33 50 52
f 33 52 34
f 34 52 37
f 35 53 36
f 35 49 53
f 36 54 51
f 36 53 55
f 36 55 54
f 37 52 56
f 37 56 57
f 37 57 38
f 38 57 58
f 38 58 39
f 39 58 40
f 40 59 49
f 40 49 60
f 40 60 41
f 40 58 64
f 40 64 59
f 41 60 61
f 41 61 42
f 42 61 43
f 43 61 44
f 44 61 47
f 44 47 45
f 46 47 49
f 47 61 60
f 47 60 49
f 49 59 53
f 50 51 57
f 50 57 56
f 50 56 52
f 51 54 55
f 51 55 62
f 51 62 63
f 51 63 57
f 53 59 55
f 55 59 64
f 55 64 62
f 57 63 58
f 58 63 64
f 62 64 63

