# https://github.com/mikedh/trimesh
v 0.00183373 0.09499257 0.04916581
v 0.00183373 0.07877856 0.04921467
v -0.00173500 0.07877856 0.04930541
v -0.00183486 0.09499257 0.04936822
v 0.00644311 0.09499257 0.05045705
v 0.00657188 0.07877856 0.05071995
v -0.00763208 0.07904360 0.05209495
v -0.00626818 0.09499257 0.05121086
v -0.01124548 0.07877856 0.05633395
v 0.01021157 0.09499257 0.05336991
v 0.00947049 0.07877856 0.05299068
v -0.00885932 0.09499257 0.05349089
v -0.01271712 0.07877856 0.06051246
v -0.01111934 0.09499257 0.05663873
v 0.01169372 0.07882935 0.05588260
v 0.01231654 0.09499257 0.05650612
v 0.01315748 0.07877856 0.06061483
v -0.01316913 0.07877856 0.06418378
v -0.01245958 0.09499257 0.06061483
v 0.01361736 0.09466244 0.06729905
v 0.01367255 0.09466244 0.06362541
v 0.01331778 0.09466244 0.05995409
v 0.01325997 0.08265430 0.06061483
v 0.00183373 0.09499257 0.07267807
v 0.01354115 0.08265430 0.06428383
v 0.01344392 0.07888014 0.06433501
v 0.01338611 0.07888014 0.06795747
v 0.01213521 0.07888014 0.07112625
v 0.00907893 0.07882935 0.07266178
v -0.01313759 0.07877856 0.06785743
v -0.01310080 0.08265430 0.06795747
v -0.01305350 0.08632689 0.06795747
v -0.01287217 0.09499257 0.06428383
v 0.01236647 0.09433233 0.07084706
v 0.01358057 0.08999790 0.06795747
v 0.01366729 0.08999790 0.06428383
v 0.01340450 0.08999790 0.06061483
v -0.00183486 0.09499257 0.07269435
v 0.00583869 0.09433233 0.07269203
v 0.00945472 0.09433233 0.07245007
v 0.01347283 0.08265430 0.06795747
v 0.01217726 0.08265430 0.07120535
v 0.00918142 0.08265430 0.07278509
v 0.00550757 0.07888014 0.07278043
v -0.00550608 0.07888014 0.07283162
v -0.00922198 0.07888014 0.07250590
v -0.01204700 0.07888014 0.07096339
v -0.01203123 0.08265430 0.07106576
v -0.01201809 0.08632689 0.07106576
v -0.01248849 0.08999790 0.06946974
v -0.01233082 0.09433233 0.06952557
v -0.00701451 0.09449738 0.07256872
v 0.01223770 0.08999790 0.07120535
v 0.01221142 0.08632689 0.07122862
v 0.01352801 0.08632689 0.06795747
v -0.00550608 0.08999790 0.07285722
v 0.00550757 0.08999790 0.07281999
v 0.00918142 0.08999790 0.07273391
v 0.00918142 0.08632689 0.07279440
v -0.00550608 0.08265430 0.07293167
v -0.00918256 0.08265430 0.07263154
v -0.00918256 0.08632689 0.07264783
v -0.00918256 0.08999790 0.07253848
v -0.00550608 0.08632689 0.07292003
f 1 2 3
f 1 3 4
f 1 4 8
f 1 8 12
f 1 12 14
f 1 14 19
f 1 19 33
f 1 33 38
f 1 38 24
f 1 24 16
f 1 16 10
f 1 10 5
f 1 5 2
f 2 5 6
f 2 6 11
f 2 11 17
f 2 17 30
f 2 30 18
f 2 18 13
f 2 13 9
f 2 9 3
f 3 7 8
f 3 8 4
f 3 9 7
f 5 10 6
f 6 10 11
f 7 12 8
f 7 9 12
f 9 13 14
f 9 14 12
f 10 15 11
f 10 16 15
f 11 15 17
f 13 18 19
f 13 19 14
f 15 16 17
f 16 20 21
f 16 21 22
f 16 22 23
f 16 23 17
f 16 24 20
f 17 23 25
f 17 25 26
f 17 26 27
f 17 27 28
f 17 28 29
f 17 29 30
f 18 30 31
f 18 31 32
f 18 32 33
f 18 33 19
f 20 34 35
f 20 35 36
f 20 36 21
f 20 24 34
f 21 36 37
f 21 37 22
f 22 37 23
f 23 37 25
f 24 38 39
f 24 39 40
f 24 40 34
f 25 36 41
f 25 41 27
f 25 27 26
f 25 37 36
f 27 41 28
f 28 42 43
f 28 43 29
f 28 41 42
f 29 43 44
f 29 44 45
f 29 45 46
f 29 46 30
f 30 46 47
f 30 47 48
f 30 48 31
f 31 48 49
f 31 49 32
f 32 49 50
f 32 50 51
f 32 51 33
f 33 51 52
f 33 52 38
f 34 53 35
f 34 40 53
f 35 53 54
f 35 54 42
f 35 42 55
f 35 55 36
f 36 55 41
f 38 52 56
f 38 56 39
f 39 57 58
f 39 58 40
f 39 56 57
f 40 58 53
f 41 55 42
f 42 54 43
f 43 54 59
f 43 59 60
f 43 60 44
f 44 60 45
f 45 60 61
f 45 61 46
f 46 61 47
f 47 61 48
f 48 61 62
f 48 62 49
f 49 51 50
f 49 62 63
f 49 63 51
f 51 63 52
f 52 63 56
f 53 58 59
f 53 59 54
f 56 63 62
f 56 62 64
f 56 64 57
f 57 59 58
f 57 64 60
f 57 60 59
f 60 64 62
f 60 62 61

