# https://github.com/mikedh/trimesh
v -0.13442522 0.09226085 -0.04803426
v -0.13197826 0.08489039 -0.05472547
v -0.13226946 0.07364949 -0.05330981
v -0.13107858 0.06544873 -0.05340566
v -0.12896628 0.05676258 -0.05417248
v -0.12146459 0.03485558 -0.05489874
v -0.12774498 0.08823712 -0.04647114
v -0.13268236 0.10924995 -0.04804348
v -0.13282579 0.10316964 -0.05047480
v -0.13070914 0.09597802 -0.05595127
v -0.12850558 0.08006191 -0.05881024
v -0.12897063 0.06983013 -0.05748675
v -0.12515893 0.04778263 -0.05618906
v -0.11753120 0.03997786 -0.06049134
v -0.11552755 0.02823878 -0.05801393
v -0.11448011 0.02197964 -0.05580196
v -0.11481477 0.14002193 -0.04874762
v -0.12353342 0.13926828 -0.04890246
v -0.13106554 0.11705471 -0.04805085
v -0.09214018 0.00953800 -0.05535220
v -0.12922271 0.11511311 -0.05421303
v -0.12744943 0.10651636 -0.05851716
v -0.12296406 0.07990862 -0.06257981
v -0.12385940 0.07292138 -0.06170793
v -0.12354211 0.09222253 -0.06224064
v -0.12370728 0.06226806 -0.06081576
v -0.12243382 0.05452717 -0.06042314
v -0.11932622 0.04833190 -0.06133742
v -0.11001646 0.03140667 -0.06258165
v -0.10483134 0.01222048 -0.05871255
v -0.11026420 0.01729166 -0.05720472
v -0.10682194 0.13930660 -0.05555496
v -0.11444533 0.13815696 -0.06110516
v -0.09002788 0.03490668 -0.05597339
v -0.09393085 0.08153090 -0.05578906
v -0.12145155 0.13831025 -0.05479736
v -0.12580218 0.13314965 -0.04934854
v -0.12889673 0.12386313 -0.04930430
v -0.09222276 0.01080260 -0.06279548
v -0.09002788 0.02116211 -0.06416321
v -0.12520674 0.12749088 -0.05522501
v -0.12521109 0.12125728 -0.05769320
v -0.12298578 0.11131930 -0.06120654
v -0.11698357 0.06914035 -0.06371345
v -0.11571444 0.06064580 -0.06379087
v -0.11853084 0.05514031 -0.06284340
v -0.12178621 0.10122803 -0.06263880
v -0.11711396 0.08749624 -0.06391805
v -0.10334925 0.02463658 -0.06337980
v -0.09917247 0.01752159 -0.06342958
v -0.11571444 0.05330089 -0.06350331
v -0.11021639 0.04273699 -0.06382957
v -0.09393085 0.08153090 -0.06366368
v -0.10670024 0.13629199 -0.06425722
v -0.11380642 0.12898540 -0.06309041
v -0.11930882 0.12542152 -0.06116415
v -0.12076918 0.13267702 -0.05822223
v -0.09002788 0.03490668 -0.06399363
v -0.09735138 0.02022963 -0.06400838
v -0.09918985 0.04409101 -0.06480468
v -0.10479657 0.09547984 -0.06530238
v -0.11761812 0.11843428 -0.06300377
v -0.11431494 0.11108937 -0.06419086
v -0.10658724 0.12947081 -0.06500745
f 1 2 3
f 1 3 4
f 1 4 5
f 1 5 6
f 1 6 7
f 1 7 8
f 1 8 9
f 1 9 2
f 2 9 10
f 2 10 11
f 2 11 12
f 2 12 3
f 3 12 4
f 4 12 5
f 5 12 13
f 5 13 6
f 6 13 14
f 6 14 15
f 6 15 16
f 6 16 7
f 7 17 18
f 7 18 19
f 7 19 8
f 7 16 20
f 7 20 17
f 8 21 9
f 8 19 21
f 9 21 10
f 10 21 22
f 10 22 11
f 11 23 24
f 11 24 12
f 11 22 25
f 11 25 23
f 12 26 27
f 12 27 13
f 12 24 26
f 13 27 28
f 13 28 14
f 14 29 15
f 14 28 29
f 15 29 30
f 15 30 31
f 15 31 16
f 16 31 20
f 17 32 33
f 17 33 18
f 17 20 34
f 17 34 35
f 17 35 32
f 18 33 36
f 18 36 37
f 18 37 19
f 19 37 38
f 19 38 21
f 20 31 30
f 20 30 39
f 20 39 40
f 20 40 34
f 21 38 41
f 21 41 42
f 21 42 22
f 22 42 43
f 22 43 25
f 23 44 45
f 23 45 46
f 23 46 24
f 23 25 47
f 23 47 48
f 23 48 44
f 24 46 26
f 25 43 47
f 26 46 27
f 27 46 28
f 28 46 29
f 29 49 50
f 29 50 30
f 29 46 51
f 29 51 52
f 29 52 49
f 30 50 39
f 32 53 54
f 32 54 33
f 32 35 53
f 33 54 55
f 33 55 56
f 33 56 57
f 33 57 36
f 34 40 58
f 34 58 53
f 34 53 35
f 36 57 41
f 36 41 37
f 37 41 38
f 39 50 59
f 39 59 40
f 40 59 60
f 40 60 61
f 40 61 58
f 41 57 42
f 42 57 56
f 42 56 43
f 43 56 62
f 43 62 47
f 44 48 45
f 45 60 52
f 45 52 51
f 45 51 46
f 45 48 61
f 45 61 60
f 47 62 63
f 47 63 48
f 48 63 61
f 49 52 59
f 49 59 50
f 52 60 59
f 53 58 64
f 53 64 54
f 54 64 55
f 55 64 62
f 55 62 56
f 58 61 64
f 61 63 64
f 62 64 63

