# https://github.com/mikedh/trimesh
v 0.00000954 0.21955260 -0.05164941
v -0.00317718 0.21204844 -0.06038599
v -0.02405906 0.21265725 -0.05874425
v -0.03385672 0.21486746 -0.05239461
v 0.01216259 0.21509246 -0.05074316
v 0.02265302 0.21537039 -0.05559465
v 0.00703614 0.21183669 -0.06046751
v -0.01681473 0.20798535 -0.06227808
v 0.01590352 0.20851474 -0.06215583
v -0.03409424 0.20457076 -0.06206074
v -0.04363459 0.20983823 -0.05562182
v -0.05511467 0.20274435 -0.05247223
v 0.01782346 0.08437185 -0.05493873
v 0.03035259 0.08437185 -0.05508622
v 0.12454868 0.08494094 -0.05645240
v 0.12684470 0.11364734 -0.05632626
v 0.11443432 0.14750208 -0.05664840
v 0.07635211 0.19171972 -0.05643882
v 0.06532727 0.19909153 -0.05628163
v 0.04630595 0.20761478 -0.05701517
v -0.06328929 0.08828936 -0.05539283
v -0.04957256 0.08828936 -0.05518325
v -0.02926469 0.08828936 -0.05490380
v -0.01311339 0.08637031 -0.05482230
v 0.03165895 0.21218080 -0.05709086
v 0.02388020 0.17995393 -0.06847248
v -0.04610874 0.19796656 -0.06319405
v 0.03532070 0.20502074 -0.06173859
v 0.04745396 0.20030913 -0.06214806
v -0.05748986 0.19166677 -0.06341916
v -0.06516964 0.17574526 -0.06534229
v -0.06516964 0.17574526 -0.05643300
v -0.07536317 0.10271535 -0.05560824
v -0.07536317 0.09232599 -0.05558883
v 0.01404295 0.08437185 -0.06304268
v -0.07348281 0.08828936 -0.06352395
v 0.05430243 0.08437185 -0.05930120
v 0.09171168 0.08438508 -0.06406537
v 0.11750229 0.08603943 -0.06373547
v 0.12441013 0.10133892 -0.06032584
v 0.12292563 0.12448668 -0.05768274
v 0.11859092 0.13663627 -0.05769632
v 0.10909015 0.15504594 -0.05764393
v 0.09951022 0.16899548 -0.05725775
v 0.08444755 0.18454642 -0.05705981
v 0.06702949 0.18949626 -0.06197923
v 0.05444098 0.20406783 -0.05711221
v -0.04220947 0.16342361 -0.06801061
v 0.05453995 0.19479020 -0.06297088
v 0.03437062 0.16879695 -0.07029858
v -0.07536317 0.10004191 -0.06408672
v -0.07532359 0.11265472 -0.05915566
v -0.05321452 0.11391203 -0.06691030
v 0.03682499 0.08437185 -0.06328332
v 0.03116412 0.15978402 -0.07056639
v 0.11752208 0.09554206 -0.06400133
v 0.11756165 0.11344881 -0.06322315
v 0.11397909 0.12636602 -0.06313971
v 0.10754628 0.14337281 -0.06270308
v 0.09873828 0.15647530 -0.06277682
v 0.09074181 0.16539560 -0.06336870
v 0.09198878 0.17700256 -0.05737419
v 0.08183484 0.17468646 -0.06326002
f 1 2 3
f 1 3 4
f 1 4 5
f 1 5 6
f 1 6 7
f 1 7 2
f 2 8 3
f 2 7 9
f 2 9 8
f 3 8 10
f 3 10 11
f 3 11 4
f 4 11 12
f 4 12 5
f 5 13 14
f 5 14 15
f 5 15 16
f 5 16 17
f 5 17 18
f 5 18 19
f 5 19 20
f 5 20 6
f 5 12 21
f 5 21 22
f 5 22 23
f 5 23 24
f 5 24 13
f 6 9 7
f 6 20 25
f 6 25 9
f 8 9 26
f 8 26 27
f 8 27 10
f 9 25 28
f 9 28 29
f 9 29 26
f 10 27 11
f 11 27 30
f 11 30 12
f 12 30 31
f 12 31 32
f 12 32 33
f 12 33 34
f 12 34 21
f 13 35 54
f 13 54 37
f 13 37 14
f 13 24 21
f 13 21 36
f 13 36 35
f 14 37 38
f 14 38 15
f 15 38 39
f 15 39 40
f 15 40 16
f 16 40 41
f 16 41 42
f 16 42 17
f 17 42 43
f 17 43 44
f 17 44 18
f 18 44 45
f 18 45 46
f 18 46 19
f 19 46 47
f 19 47 20
f 20 29 28
f 20 28 25
f 20 47 29
f 21 34 36
f 21 24 22
f 22 24 23
f 26 48 27
f 26 29 49
f 26 49 50
f 26 50 48
f 27 48 31
f 27 31 30
f 29 47 46
f 29 46 49
f 31 51 52
f 31 52 32
f 31 48 53
f 31 53 51
f 32 52 33
f 33 52 51
f 33 51 34
f 34 51 36
f 35 36 38
f 35 38 54
f 36 51 53
f 36 53 38
f 37 54 38
f 38 53 55
f 38 55 39
f 39 56 40
f 39 55 56
f 40 56 57
f 40 57 41
f 41 57 58
f 41 58 42
f 42 58 59
f 42 59 43
f 43 59 60
f 43 60 44
f 44 60 61
f 44 61 62
f 44 62 45
f 45 63 46
f 45 62 63
f 46 63 49
f 48 50 55
f 48 55 53
f 49 63 50
f 50 63 61
f 50 61 58
f 50 58 56
f 50 56 55
f 56 58 57
f 58 61 59
f 59 61 60
f 61 63 62

