# https://github.com/mikedh/trimesh
v 0.11531218 0.10644493 0.00195720
v 0.11531218 0.10891707 0.00550279
v 0.10418334 0.12393717 0.00159061
v 0.10418334 0.12272270 -0.00184615
v 0.10418334 0.12256428 -0.00551776
v 0.10418334 0.12332753 -0.00968769
v 0.11531218 0.10757780 -0.00193780
v 0.11531436 0.12711015 -0.03790350
v 0.11454076 0.11311732 0.00788561
v 0.10418334 0.12715336 0.00545697
v 0.10579808 0.12384116 0.00479253
v 0.11531218 0.11630952 0.01025698
v 0.10418334 0.12459001 -0.01332493
v 0.10500923 0.12514204 -0.01656121
v 0.11531109 0.12216106 -0.03359036
v 0.11427491 0.13438258 -0.04369444
v 0.11531436 0.15429417 -0.04369444
v 0.11531436 0.15429417 -0.03790350
v 0.11531218 0.13104639 0.01446701
v 0.11531218 0.12673093 0.01358491
v 0.11531218 0.12306831 0.01264553
v 0.10722215 0.12979831 0.01044600
v 0.10719272 0.12631330 0.00852141
v 0.10418334 0.13129600 0.00844122
v 0.11425530 0.11995294 0.01115053
v 0.11058890 0.12620290 0.01129946
v 0.10418334 0.12752778 -0.01930490
v 0.11036990 0.12889106 -0.03274263
v 0.10418334 0.12962071 -0.02241516
v 0.10710338 0.15429417 -0.04369444
v 0.10647252 0.13215526 -0.02947198
v 0.10418334 0.13340334 -0.02654500
v 0.10418334 0.13828522 -0.02956363
v 0.10604105 0.15547984 -0.03790350
v 0.11509209 0.15489420 -0.03790350
v 0.11531218 0.15548464 0.00246126
v 0.11531218 0.14876424 0.01377393
v 0.11491339 0.14285028 0.01465603
v 0.11432830 0.13774279 0.01481068
v 0.11398182 0.13413777 0.01458157
v 0.11241393 0.13082077 0.01355627
v 0.11278765 0.12357234 0.01164887
v 0.10787479 0.13219366 0.01176342
v 0.10431191 0.13799720 0.01139684
v 0.10419641 0.13416658 0.00986175
v 0.10418334 0.15547984 -0.03453547
v 0.10418334 0.14152542 -0.03096697
v 0.10418334 0.14477041 -0.03188344
v 0.11384562 0.15548464 -0.02418510
v 0.10836836 0.15547984 0.01397441
v 0.11241393 0.15547984 0.01325269
v 0.11527840 0.15524943 0.01195245
v 0.11203912 0.15244606 0.01401450
v 0.10836836 0.15244606 0.01422643
v 0.11213609 0.14141501 0.01467321
v 0.11150632 0.13774279 0.01439255
v 0.10836836 0.13774279 0.01338443
v 0.10443939 0.14141501 0.01234195
v 0.10443939 0.14509202 0.01306939
v 0.10443939 0.14874984 0.01349899
v 0.10443939 0.15390534 0.01370520
v 0.10836836 0.14877384 0.01429517
v 0.10836836 0.14509202 0.01418634
v 0.10836836 0.14141501 0.01391140
f 1 2 3
f 1 3 4
f 1 4 5
f 1 5 6
f 1 6 7
f 1 7 8
f 1 8 2
f 2 9 10
f 2 10 11
f 2 11 3
f 2 8 12
f 2 12 9
f 3 11 10
f 3 10 24
f 3 24 46
f 3 46 48
f 3 48 47
f 3 47 33
f 3 33 32
f 3 32 29
f 3 29 27
f 3 27 13
f 3 13 6
f 3 6 5
f 3 5 4
f 6 13 7
f 7 13 14
f 7 14 15
f 7 15 8
f 8 16 17
f 8 17 18
f 8 18 19
f 8 19 20
f 8 20 21
f 8 21 12
f 8 15 16
f 9 12 22
f 9 22 23
f 9 23 10
f 10 23 24
f 12 21 25
f 12 25 26
f 12 26 22
f 13 27 14
f 14 27 15
f 15 28 16
f 15 27 29
f 15 29 28
f 16 30 17
f 16 28 31
f 16 31 32
f 16 32 33
f 16 33 30
f 17 30 34
f 17 34 35
f 17 35 36
f 17 36 18
f 18 36 37
f 18 37 19
f 19 38 39
f 19 39 40
f 19 40 41
f 19 41 20
f 19 37 38
f 20 41 21
f 21 42 25
f 21 41 42
f 22 26 43
f 22 43 44
f 22 44 45
f 22 45 24
f 22 24 23
f 24 45 46
f 25 42 26
f 26 42 43
f 28 29 31
f 29 32 31
f 30 46 34
f 30 33 47
f 30 47 48
f 30 48 46
f 34 46 49
f 34 49 35
f 35 49 36
f 36 49 46
f 36 46 50
f 36 50 51
f 36 51 52
f 36 52 37
f 37 52 51
f 37 51 53
f 37 53 38
f 38 54 55
f 38 55 39
f 38 53 50
f 38 50 54
f 39 55 40
f 40 55 56
f 40 56 41
f 41 56 57
f 41 57 43
f 41 43 42
f 43 57 58
f 43 58 44
f 44 58 59
f 44 59 60
f 44 60 45
f 45 60 61
f 45 61 46
f 46 61 50
f 50 61 54
f 50 53 51
f 54 61 62
f 54 62 55
f 55 62 63
f 55 63 56
f 56 63 64
f 56 64 57
f 57 59 58
f 57 64 59
f 59 64 60
f 60 64 63
f 60 63 61
f 61 63 62

