# https://github.com/mikedh/trimesh
v -0.09212920 0.00315193 -0.00188907
v -0.09746340 0.00315193 -0.01286005
v -0.09383229 0.00315193 0.00292505
v -0.04009177 -0.02953199 0.00138016
v -0.04009177 -0.02915626 -0.00327926
v -0.10567038 0.00245794 -0.01285799
v -0.10547114 0.00266570 0.00300755
v -0.04009177 -0.03110121 -0.00767467
v -0.04009177 -0.03451812 -0.01189063
v -0.05546456 -0.02928445 -0.01357784
v -0.07602375 -0.01683238 -0.01358403
v -0.09917935 0.00248888 0.00548267
v -0.04009177 -0.03183056 0.00475251
v -0.10246985 -0.00142753 -0.01285799
v -0.10252126 -0.00148942 -0.00183957
v -0.10574107 0.00242700 -0.00183957
v -0.07513686 -0.02562884 -0.01358403
v -0.10247627 -0.00141427 0.00235783
v -0.10093386 -0.00167507 0.00476076
v -0.04009177 -0.03590611 0.00699044
v -0.04063161 -0.04017615 0.00580031
v -0.04117146 -0.04193102 -0.01189063
v -0.05671778 -0.03598125 -0.01357784
v -0.07049032 -0.02080184 -0.01358403
v -0.09733487 -0.00184304 0.00609733
v -0.09899940 -0.00532184 -0.01285799
v -0.09633230 -0.00822158 -0.01285593
v -0.09632587 -0.00822158 -0.00183957
v -0.07524611 -0.02565978 -0.00184163
v -0.07968057 -0.02251251 -0.01285593
v -0.08264974 -0.02028024 -0.01285799
v -0.08588239 -0.01769877 -0.01285593
v -0.08971917 -0.01444982 -0.01286005
v -0.09359450 -0.01093566 -0.01285799
v -0.07078595 -0.02846227 -0.01358196
v -0.09569605 -0.00850006 0.00295392
v -0.09874233 -0.00510525 0.00324681
v -0.08847880 -0.01496700 0.00393160
v -0.06649930 -0.02915626 0.00647479
v -0.06613940 -0.02541224 0.00748752
v -0.05266250 -0.03316550 0.00745865
v -0.05255967 -0.03720568 0.00432349
v -0.04534242 -0.04050767 0.00290648
v -0.04117146 -0.04200616 -0.00000385
v -0.04579229 -0.04042810 -0.01189063
v -0.06160211 -0.03361637 -0.01357784
v -0.05117149 -0.03834171 -0.01189063
v -0.05516250 -0.03669293 -0.00025961
v -0.06210340 -0.03336000 -0.00183957
v -0.09358807 -0.01092682 -0.00183957
v -0.07084379 -0.02848879 -0.00020598
v -0.07405717 -0.02610623 0.00288792
v -0.08157004 -0.02100075 0.00183393
v -0.07968057 -0.02253461 -0.00184163
v -0.08264974 -0.02029792 -0.00184163
v -0.08589525 -0.01772971 -0.00184163
v -0.08973845 -0.01445424 -0.00183957
v -0.06778465 -0.03030555 -0.00183957
v -0.09247624 -0.01161197 0.00293123
v -0.08966775 -0.01440120 0.00183187
v -0.08565103 -0.01779159 0.00231864
v -0.06255970 -0.03311246 0.00278273
v -0.04960336 -0.03901360 -0.00000385
v -0.04595939 -0.04041042 -0.00183957
f 1 2 3
f 1 3 4
f 1 4 5
f 1 5 2
f 2 6 7
f 2 7 3
f 2 5 8
f 2 8 9
f 2 9 10
f 2 10 11
f 2 11 6
f 3 7 12
f 3 12 13
f 3 13 4
f 4 13 20
f 4 20 9
f 4 9 8
f 4 8 5
f 6 14 15
f 6 15 16
f 6 16 7
f 6 11 17
f 6 17 14
f 7 16 18
f 7 18 19
f 7 19 12
f 9 20 21
f 9 21 22
f 9 22 10
f 10 23 24
f 10 24 11
f 10 22 23
f 11 24 17
f 12 19 25
f 12 25 20
f 12 20 13
f 14 26 15
f 14 17 26
f 15 26 27
f 15 27 28
f 15 28 18
f 15 18 16
f 17 29 30
f 17 30 31
f 17 31 32
f 17 32 33
f 17 33 34
f 17 34 27
f 17 27 26
f 17 24 23
f 17 23 35
f 17 35 29
f 18 28 36
f 18 36 37
f 18 37 19
f 19 37 36
f 19 36 38
f 19 38 39
f 19 39 25
f 20 25 40
f 20 40 41
f 20 41 21
f 21 41 39
f 21 39 42
f 21 42 43
f 21 43 44
f 21 44 22
f 22 44 45
f 22 45 23
f 23 46 35
f 23 45 47
f 23 47 48
f 23 48 49
f 23 49 46
f 25 39 40
f 27 34 28
f 28 34 50
f 28 50 36
f 29 35 51
f 29 51 52
f 29 52 53
f 29 53 54
f 29 54 30
f 30 54 31
f 31 54 55
f 31 55 56
f 31 56 32
f 32 56 33
f 33 56 57
f 33 57 34
f 34 57 50
f 35 58 51
f 35 46 58
f 36 50 59
f 36 59 38
f 38 59 60
f 38 60 61
f 38 61 52
f 38 52 39
f 39 52 62
f 39 62 42
f 39 41 40
f 42 62 43
f 43 62 48
f 43 48 63
f 43 63 64
f 43 64 44
f 44 64 45
f 45 64 63
f 45 63 47
f 46 49 58
f 47 63 48
f 48 62 49
f 49 62 58
f 50 57 60
f 50 60 59
f 51 58 62
f 51 62 52
f 52 61 53
f 53 61 55
f 53 55 54
f 55 61 56
f 56 61 60
f 56 60 57

