# https://github.com/mikedh/trimesh
v 0.10418132 0.12271866 -0.00183734
v 0.10418132 0.12392782 0.00159182
v 0.10202676 0.12577203 -0.00137980
v 0.10091994 0.12674064 -0.00551177
v 0.10333840 0.12355578 -0.00551177
v 0.10332658 0.12427100 -0.00980411
v 0.10394696 0.12486115 -0.01341722
v 0.10418132 0.13829340 -0.02957246
v 0.10338764 0.12764189 0.00476626
v 0.10277121 0.12626916 0.00195973
v 0.10418132 0.13417842 0.00986047
v 0.09903717 0.13017247 -0.00183734
v 0.09882250 0.12982928 -0.00551177
v 0.09888553 0.12992229 -0.00919092
v 0.10171756 0.12718004 -0.01285592
v 0.10337977 0.12756171 -0.01770485
v 0.10396271 0.13355939 -0.02632254
v 0.09208705 0.15115475 -0.02168116
v 0.09132882 0.15454168 -0.02259623
v 0.10418132 0.14152958 -0.03097337
v 0.09944681 0.13184669 0.00227104
v 0.10309026 0.13088128 0.00695960
v 0.09946454 0.13451839 0.00495965
v 0.10418132 0.14142695 0.01221890
v 0.10382288 0.13762307 0.01095478
v 0.09114763 0.15451922 0.00786052
v 0.10213705 0.13408540 0.00802561
v 0.09583291 0.13564736 -0.00163451
v 0.09584472 0.13462744 -0.00551177
v 0.09593138 0.13478779 -0.00969091
v 0.09620513 0.13538757 -0.01312006
v 0.09924593 0.13045792 -0.01285592
v 0.09969890 0.13163180 -0.01628979
v 0.10214296 0.13055093 -0.01986517
v 0.10330296 0.13080111 -0.02235567
v 0.09944090 0.13555435 -0.02063401
v 0.09188814 0.14703976 -0.01827087
v 0.08742344 0.15519918 -0.01767654
v 0.08933379 0.15548463 -0.02057741
v 0.09395407 0.15548463 -0.02581784
v 0.09766841 0.15548463 -0.02924699
v 0.10418132 0.14477860 -0.03189315
v 0.08579866 0.15548463 0.00191728
v 0.08426644 0.15548463 -0.00183734
v 0.09926759 0.13791172 0.00719544
v 0.08839240 0.15509655 0.00528512
v 0.10418132 0.14509933 0.01296416
v 0.10151668 0.14509933 0.01177079
v 0.10262547 0.14050003 0.01116704
v 0.09921639 0.14701731 0.01099723
v 0.09524208 0.15528578 0.01070478
v 0.08406359 0.15488485 -0.00443633
v 0.09410965 0.13775778 -0.00919092
v 0.08430583 0.15471807 -0.00880414
v 0.08493999 0.15548463 -0.01295497
v 0.08820136 0.15067686 -0.01458700
v 0.09564187 0.13902788 -0.01714826
v 0.10418132 0.15548463 -0.03453931
v 0.10101842 0.15548463 0.01301605
v 0.10101842 0.15244730 0.01274718
v 0.09806821 0.15244730 0.01155382
v 0.10418132 0.14873322 0.01340283
v 0.10418132 0.15527294 0.01362452
v 0.10418132 0.15244730 0.01364810
f 1 2 3
f 1 3 4
f 1 4 5
f 1 5 6
f 1 6 7
f 1 7 8
f 1 8 20
f 1 20 42
f 1 42 58
f 1 58 63
f 1 63 64
f 1 64 62
f 1 62 47
f 1 47 24
f 1 24 11
f 1 11 2
f 2 9 10
f 2 10 3
f 2 11 9
f 3 10 12
f 3 12 13
f 3 13 4
f 4 13 14
f 4 14 5
f 5 14 6
f 6 14 15
f 6 15 7
f 7 15 16
f 7 16 17
f 7 17 8
f 8 17 18
f 8 18 19
f 8 19 20
f 9 21 10
f 9 11 22
f 9 22 23
f 9 23 21
f 10 21 12
f 11 24 25
f 11 25 26
f 11 26 27
f 11 27 22
f 12 28 29
f 12 29 13
f 12 21 28
f 13 29 14
f 14 30 31
f 14 31 32
f 14 32 15
f 14 29 30
f 15 32 33
f 15 33 16
f 16 34 35
f 16 35 17
f 16 33 34
f 17 35 36
f 17 36 37
f 17 37 18
f 18 37 38
f 18 38 39
f 18 39 19
f 19 40 20
f 19 39 40
f 20 40 41
f 20 41 42
f 21 23 43
f 21 43 44
f 21 44 28
f 22 45 23
f 22 27 45
f 23 46 43
f 23 45 46
f 24 47 48
f 24 48 49
f 24 49 25
f 25 49 26
f 26 49 50
f 26 50 51
f 26 51 46
f 26 46 45
f 26 45 27
f 28 44 52
f 28 52 29
f 29 52 53
f 29 53 30
f 30 53 31
f 31 53 54
f 31 54 55
f 31 55 56
f 31 56 57
f 31 57 33
f 31 33 32
f 33 57 36
f 33 36 34
f 34 36 35
f 36 57 37
f 37 57 56
f 37 56 38
f 38 56 55
f 38 55 39
f 39 55 44
f 39 44 43
f 39 43 59
f 39 59 58
f 39 58 41
f 39 41 40
f 41 58 42
f 43 46 51
f 43 51 59
f 44 55 52
f 47 60 61
f 47 61 48
f 47 62 60
f 48 61 50
f 48 50 49
f 50 61 51
f 51 61 60
f 51 60 59
f 52 55 54
f 52 54 53
f 58 59 63
f 59 60 62
f 59 62 64
f 59 64 63

