# https://github.com/mikedh/trimesh
v -0.00768460 0.13383892 0.04398434
v -0.00701856 0.13780317 0.04899848
v -0.00374304 0.13738623 0.04398434
v -0.00750069 0.12659820 0.04398434
v -0.00876815 0.13044919 0.04495254
v -0.00982934 0.13408186 0.04959598
v -0.00291547 0.13979268 0.04912286
v -0.00839785 0.13720567 0.05326879
v 0.00094904 0.13800015 0.04398434
v -0.00695394 0.12309193 0.04563296
v -0.00937703 0.12307716 0.04959598
v 0.00715711 0.13765380 0.04398434
v 0.00788528 0.12340382 0.04493303
v -0.01053017 0.12820196 0.05031054
v -0.01094272 0.12986974 0.05326879
v -0.01001076 0.13408186 0.05326879
v -0.00338269 0.13939052 0.05271274
v 0.00668492 0.13960063 0.05236888
v 0.00679179 0.13984521 0.04855462
v -0.00959076 0.13408186 0.05693672
v -0.00862649 0.13413932 0.06045588
v -0.00609406 0.13632909 0.05891701
v 0.01155097 0.12307716 0.05227620
v -0.01121609 0.12307716 0.05528566
v 0.01100423 0.13726640 0.04842293
v 0.01126766 0.13388160 0.04498424
v 0.01129997 0.12903420 0.04535494
v -0.01112911 0.12829060 0.06087047
v -0.01174544 0.12307716 0.06060952
v -0.01115147 0.12839895 0.05693672
v -0.00183440 0.13759470 0.05693672
v 0.00550693 0.13753069 0.05693672
v 0.00988339 0.13575620 0.05923893
v 0.01161310 0.13586455 0.05473449
v -0.01130556 0.12510771 0.06469692
v -0.00956094 0.12775219 0.06615287
v -0.00685702 0.13317903 0.06388969
v -0.00183440 0.13581365 0.06044369
v 0.01323843 0.12307716 0.05692452
v 0.01236861 0.13408186 0.04959598
v 0.01293524 0.13040980 0.04959598
v -0.00918070 0.12307716 0.06788197
v 0.00550693 0.13574144 0.06030711
v 0.00550693 0.13215145 0.06515541
v 0.01105393 0.13324961 0.06207279
v 0.01301725 0.13040980 0.06060952
v -0.00551003 0.12673773 0.06806976
v -0.00551003 0.13115176 0.06643334
v -0.00183440 0.13346793 0.06405796
v 0.01364353 0.12307716 0.06059733
v 0.01311169 0.13040980 0.05693672
v 0.01315891 0.13040980 0.05326879
v 0.01342980 0.12673773 0.05693672
v -0.00551003 0.12307716 0.06889651
v 0.01050967 0.13038518 0.06585046
v 0.01263204 0.12673773 0.06561878
v 0.01356897 0.12307716 0.06427013
v 0.01357642 0.12673773 0.06060952
v -0.00183440 0.12673773 0.06804049
v 0.00550693 0.12673773 0.06796732
v 0.00918008 0.12673773 0.06787465
v -0.00183440 0.12307716 0.06886236
v 0.01070848 0.12307716 0.06801122
v 0.00550693 0.12307716 0.06878188
f 1 2 3
f 1 3 9
f 1 9 12
f 1 12 4
f 1 4 5
f 1 5 6
f 1 6 2
f 2 7 3
f 2 6 8
f 2 8 7
f 3 7 9
f 4 10 11
f 4 11 5
f 4 12 13
f 4 13 10
f 5 11 14
f 5 14 6
f 6 14 15
f 6 15 16
f 6 16 8
f 7 8 17
f 7 17 18
f 7 18 19
f 7 19 9
f 8 16 20
f 8 20 21
f 8 21 22
f 8 22 17
f 9 19 12
f 10 13 23
f 10 23 11
f 11 24 14
f 11 23 39
f 11 39 50
f 11 50 57
f 11 57 63
f 11 63 64
f 11 64 62
f 11 62 54
f 11 54 42
f 11 42 29
f 11 29 24
f 12 19 25
f 12 25 26
f 12 26 13
f 13 26 27
f 13 27 23
f 14 24 15
f 15 28 16
f 15 24 29
f 15 29 30
f 15 30 28
f 16 28 20
f 17 22 31
f 17 31 18
f 18 32 33
f 18 33 34
f 18 34 25
f 18 25 19
f 18 31 32
f 20 28 21
f 21 28 35
f 21 35 36
f 21 36 37
f 21 37 22
f 22 37 38
f 22 38 31
f 23 27 39
f 25 34 40
f 25 40 26
f 26 40 41
f 26 41 27
f 27 41 39
f 28 30 29
f 28 29 35
f 29 42 35
f 31 38 32
f 32 43 33
f 32 38 43
f 33 43 44
f 33 44 45
f 33 45 34
f 34 45 46
f 34 46 40
f 35 42 36
f 36 42 47
f 36 47 48
f 36 48 37
f 37 48 49
f 37 49 38
f 38 49 43
f 39 41 50
f 40 46 51
f 40 51 52
f 40 52 41
f 41 52 53
f 41 53 50
f 42 54 47
f 43 49 44
f 44 55 45
f 44 49 48
f 44 48 55
f 45 56 46
f 45 55 56
f 46 57 58
f 46 58 51
f 46 56 57
f 47 54 59
f 47 59 48
f 48 59 60
f 48 60 61
f 48 61 55
f 50 58 57
f 50 53 58
f 51 58 52
f 52 58 53
f 54 62 59
f 55 61 56
f 56 63 57
f 56 61 63
f 59 62 60
f 60 62 64
f 60 64 61
f 61 64 63

