# https://github.com/mikedh/trimesh
v -0.02571462 0.14510164 -0.06542791
v -0.02075040 0.14510164 -0.07005008
v -0.02550535 0.14142632 -0.06542791
v -0.00918425 0.16174307 -0.06535722
v -0.02264119 0.15879381 -0.06542791
v -0.02316924 0.15595529 -0.06597291
v -0.02374354 0.15237022 -0.06627818
v -0.02314004 0.14877285 -0.06751470
v -0.02044379 0.14877285 -0.06985855
v -0.01652838 0.14510164 -0.07162078
v -0.01652838 0.14142632 -0.07144533
v -0.02047542 0.14142632 -0.06988426
v -0.02066036 0.13776332 -0.06868952
v -0.02340529 0.13776332 -0.06614129
v -0.02300134 0.13487147 -0.06542791
v -0.00085457 0.12642564 -0.06535722
v -0.00426626 0.15611936 -0.06535722
v -0.00642959 0.15897839 -0.06591892
v -0.00918425 0.15916298 -0.06703655
v -0.01313616 0.15962239 -0.06743950
v -0.01383942 0.16244450 -0.06539257
v -0.01710510 0.16215737 -0.06542791
v -0.02021018 0.15956497 -0.06604296
v -0.01700533 0.15450321 -0.06989005
v -0.01956288 0.15230459 -0.06958799
v -0.01652838 0.14877285 -0.07128981
v -0.01313616 0.14169706 -0.07180010
v -0.01313616 0.14877285 -0.07161628
v -0.01286118 0.14510164 -0.07192285
v -0.01313616 0.13776332 -0.07135921
v -0.01756502 0.13729981 -0.07037848
v -0.01651378 0.12196686 -0.06542791
v -0.00843231 0.12053940 -0.06552560
v -0.00250201 0.12375941 -0.06583859
v -0.00677514 0.13776742 -0.07015226
v -0.00569956 0.14142632 -0.06952758
v -0.00479675 0.14510164 -0.06865417
v -0.00306901 0.14142632 -0.06694528
v -0.00185228 0.14510164 -0.06535722
v -0.00250688 0.15188209 -0.06535722
v -0.00711095 0.14979833 -0.06995881
v -0.00633712 0.15611936 -0.06708539
v -0.00868539 0.15273939 -0.06987269
v -0.00990941 0.15534821 -0.06941703
v -0.01320429 0.15602092 -0.06962333
v -0.01652838 0.15953625 -0.06733347
v -0.01286118 0.15244815 -0.07090934
v -0.00918425 0.14142632 -0.07129431
v -0.00918425 0.13776742 -0.07100960
v -0.00918425 0.14877285 -0.07099096
v -0.00918425 0.14510164 -0.07134764
v -0.00950060 0.13107310 -0.06971138
v -0.01313616 0.13436284 -0.07061113
v -0.01621203 0.13444487 -0.07004558
v -0.01228932 0.12107265 -0.06604681
v -0.01395380 0.13160225 -0.06973837
v -0.01286118 0.12673739 -0.06817923
v -0.00928645 0.12280366 -0.06683731
v -0.00528344 0.12266419 -0.06612779
v -0.00551218 0.12673739 -0.06762267
v -0.00765605 0.13402648 -0.07000509
v -0.00663157 0.14510164 -0.07028594
v -0.00215646 0.14877285 -0.06535722
v -0.00918425 0.12673739 -0.06845044
f 1 2 3
f 1 3 4
f 1 4 5
f 1 5 6
f 1 6 7
f 1 7 8
f 1 8 2
f 2 8 9
f 2 9 10
f 2 10 11
f 2 11 12
f 2 12 3
f 3 12 13
f 3 13 14
f 3 14 15
f 3 15 16
f 3 16 4
f 4 17 18
f 4 18 19
f 4 19 20
f 4 20 21
f 4 21 5
f 4 16 39
f 4 39 63
f 4 63 40
f 4 40 17
f 5 21 22
f 5 22 23
f 5 23 24
f 5 24 25
f 5 25 6
f 6 25 9
f 6 9 7
f 7 9 8
f 9 25 26
f 9 26 10
f 10 27 11
f 10 26 28
f 10 28 29
f 10 29 27
f 11 27 30
f 11 30 31
f 11 31 12
f 12 31 13
f 13 31 32
f 13 32 15
f 13 15 14
f 15 32 16
f 16 32 33
f 16 33 34
f 16 34 35
f 16 35 36
f 16 36 37
f 16 37 38
f 16 38 39
f 17 40 41
f 17 41 42
f 17 42 18
f 18 42 43
f 18 43 44
f 18 44 19
f 19 44 45
f 19 45 20
f 20 45 46
f 20 46 21
f 21 46 22
f 22 46 23
f 23 46 24
f 24 46 45
f 24 45 47
f 24 47 26
f 24 26 25
f 26 47 28
f 27 29 48
f 27 48 49
f 27 49 30
f 28 47 50
f 28 50 51
f 28 51 29
f 29 51 48
f 30 49 52
f 30 52 53
f 30 53 54
f 30 54 31
f 31 54 32
f 32 55 33
f 32 54 56
f 32 56 57
f 32 57 55
f 33 55 58
f 33 58 59
f 33 59 34
f 34 59 60
f 34 60 61
f 34 61 35
f 35 49 48
f 35 48 62
f 35 62 36
f 35 61 49
f 36 62 37
f 37 39 38
f 37 62 41
f 37 41 40
f 37 40 63
f 37 63 39
f 41 62 50
f 41 50 43
f 41 43 42
f 43 50 47
f 43 47 44
f 44 47 45
f 48 51 62
f 49 61 52
f 50 62 51
f 52 60 64
f 52 64 53
f 52 61 60
f 53 64 56
f 53 56 54
f 55 57 64
f 55 64 58
f 56 64 57
f 58 64 59
f 59 64 60

