# https://github.com/mikedh/trimesh
v 0.08725932 0.17803129 -0.02588284
v 0.09900824 0.17803129 0.00550707
v 0.09872033 0.17730096 -0.02588284
v 0.10812876 0.16569901 -0.02588284
v 0.09099761 0.16570384 -0.02551346
v 0.07916510 0.17803129 -0.02462172
v 0.09740612 0.17803129 0.00840242
v 0.09954693 0.17691105 0.00774201
v 0.10323879 0.17303730 0.00776067
v 0.11014419 0.16569901 0.00716742
v 0.10341061 0.17324493 0.00550707
v 0.10117693 0.17449192 -0.02588284
v 0.10648948 0.16793586 -0.02588284
v 0.08791875 0.16569901 -0.02342776
v 0.07150276 0.17803009 -0.02214426
v 0.07543145 0.17802888 -0.02386803
v 0.06842389 0.17803129 -0.01974888
v 0.10280226 0.16894747 0.01100674
v 0.09376071 0.17803129 0.01040603
v 0.10825879 0.16569901 0.00952922
v 0.10470160 0.17023429 -0.02588284
v 0.10279762 0.17259428 -0.02588284
v 0.08577793 0.16569901 -0.02178607
v 0.06636666 0.17803129 -0.01753259
v 0.08410150 0.16569901 -0.02042794
v 0.08129662 0.16569901 -0.01800645
v 0.09058431 0.17803129 0.01145075
v 0.10120014 0.16569901 0.01206265
v 0.10522635 0.16569901 0.01120822
v 0.07980130 0.16569901 -0.01639087
v 0.06614840 0.17633524 -0.01465963
v 0.06501531 0.17803129 -0.01564092
v 0.08632591 0.17803129 0.01219697
v 0.09734111 0.16569901 0.01223428
v 0.07756297 0.16569901 -0.01321942
v 0.06561436 0.17587411 -0.01221201
v 0.06408189 0.17773555 -0.01327165
v 0.07619304 0.16569901 -0.01009647
v 0.06289771 0.17781160 -0.00984649
v 0.06274447 0.17803129 -0.00183950
v 0.08267120 0.17803129 0.01214473
v 0.09360281 0.16569901 0.01174551
v 0.06518713 0.17547575 -0.00917862
v 0.07545467 0.16569901 -0.00551466
v 0.06270267 0.17753756 -0.00551839
v 0.06435124 0.17803129 0.00194385
v 0.06532644 0.17556749 -0.00185070
v 0.06575367 0.17597672 0.00061931
v 0.07910008 0.17803129 0.01160372
v 0.09016637 0.16569901 0.01088362
v 0.06506639 0.17531640 -0.00551839
v 0.07585403 0.16569901 -0.00274616
v 0.07673172 0.16569901 0.00043275
v 0.06652456 0.17668532 0.00306692
v 0.06761586 0.17803129 0.00582049
v 0.07531535 0.17803129 0.01053662
v 0.08647451 0.16569901 0.00922327
v 0.07805522 0.16569901 0.00245502
v 0.06897186 0.17554093 0.00453698
v 0.07026285 0.17672274 0.00698086
v 0.07247796 0.17803129 0.00917476
v 0.08366034 0.16569901 0.00777186
v 0.07988025 0.16569901 0.00463399
v 0.08188175 0.16569901 0.00643612
f 1 2 3
f 1 3 12
f 1 12 22
f 1 22 21
f 1 21 13
f 1 13 4
f 1 4 5
f 1 5 6
f 1 6 17
f 1 17 24
f 1 24 32
f 1 32 40
f 1 40 46
f 1 46 55
f 1 55 61
f 1 61 56
f 1 56 49
f 1 49 41
f 1 41 33
f 1 33 27
f 1 27 19
f 1 19 7
f 1 7 2
f 2 7 8
f 2 8 9
f 2 9 10
f 2 10 11
f 2 11 3
f 3 11 10
f 3 10 12
f 4 13 10
f 4 10 20
f 4 20 29
f 4 29 28
f 4 28 34
f 4 34 42
f 4 42 50
f 4 50 57
f 4 57 62
f 4 62 64
f 4 64 63
f 4 63 58
f 4 58 53
f 4 53 52
f 4 52 44
f 4 44 38
f 4 38 35
f 4 35 30
f 4 30 26
f 4 26 25
f 4 25 23
f 4 23 14
f 4 14 5
f 5 14 15
f 5 15 16
f 5 16 6
f 6 16 15
f 6 15 17
f 7 18 8
f 7 19 18
f 8 18 20
f 8 20 9
f 9 20 10
f 10 13 21
f 10 21 22
f 10 22 12
f 14 23 15
f 15 23 17
f 17 23 25
f 17 25 26
f 17 26 24
f 18 19 27
f 18 27 28
f 18 28 29
f 18 29 20
f 24 26 30
f 24 30 31
f 24 31 32
f 27 33 28
f 28 33 34
f 30 35 31
f 31 36 37
f 31 37 32
f 31 35 38
f 31 38 36
f 32 37 39
f 32 39 40
f 33 41 34
f 34 41 42
f 36 43 39
f 36 39 37
f 36 38 43
f 38 44 43
f 39 43 45
f 39 45 40
f 40 45 47
f 40 47 48
f 40 48 46
f 41 49 42
f 42 49 50
f 43 51 45
f 43 44 51
f 44 52 51
f 45 51 47
f 46 48 53
f 46 53 54
f 46 54 55
f 47 51 52
f 47 52 53
f 47 53 48
f 49 56 50
f 50 56 57
f 53 58 54
f 54 58 59
f 54 59 55
f 55 59 60
f 55 60 61
f 56 61 57
f 57 61 62
f 58 63 59
f 59 63 60
f 60 63 64
f 60 64 62
f 60 62 61

