# https://github.com/mikedh/trimesh
v -0.00319362 0.06270416 0.04759195
v -0.00794322 0.06270416 0.05004364
v -0.00762605 0.07842768 0.05200500
v -0.00173362 0.07877856 0.04930444
v 0.00183382 0.07877856 0.04921327
v 0.00328072 0.06270416 0.04771269
v -0.01148969 0.06270416 0.05475238
v -0.01103884 0.07373564 0.05507517
v -0.01124592 0.07877856 0.05633428
v 0.00657293 0.07877856 0.05072125
v 0.00835272 0.06270416 0.05045760
v -0.01304667 0.06270416 0.05982333
v -0.01217120 0.06796107 0.05694042
v -0.01197723 0.07163194 0.05694042
v -0.01271903 0.07877856 0.06050832
v 0.00947197 0.07877856 0.05299061
v 0.01076159 0.06270416 0.05357458
v -0.01062732 0.06349561 0.07069209
v -0.01314890 0.06329892 0.06552752
v -0.01333501 0.06796107 0.06428319
v -0.01309124 0.06796107 0.06060934
v -0.01300474 0.07163194 0.06060934
v -0.00183322 0.06270416 0.07144608
v -0.01288678 0.07530595 0.06060934
v -0.01320395 0.07704147 0.06423391
v -0.01314104 0.07704147 0.06790776
v -0.01066139 0.07877856 0.07169988
v 0.01169474 0.07877856 0.05588336
v 0.01210102 0.06270416 0.05694042
v -0.00550813 0.06349561 0.07155450
v -0.00918304 0.06796107 0.07181815
v -0.01189073 0.06796107 0.07066499
v -0.01304667 0.06796107 0.06795704
v -0.01312269 0.07163194 0.06795704
v -0.01328783 0.07163194 0.06428319
v 0.01272749 0.06270416 0.06060934
v 0.01209054 0.06349561 0.06916440
v 0.00714697 0.06349561 0.07140913
v 0.00183382 0.06349561 0.07155450
v -0.00183322 0.06428705 0.07166538
v -0.01201917 0.07530595 0.07091879
v -0.00918304 0.07530595 0.07236762
v -0.00550813 0.07704147 0.07276187
v 0.00908141 0.07877856 0.07265838
v 0.01316261 0.07877856 0.06071037
v -0.00550813 0.06796107 0.07209412
v -0.00918304 0.07163194 0.07212123
v -0.00550813 0.07163194 0.07242430
v -0.01197723 0.07163194 0.07080297
v 0.01344307 0.07877856 0.06428319
v 0.01291621 0.06349561 0.06428319
v 0.01236576 0.06796107 0.06929500
v 0.00918102 0.07530595 0.07242923
v 0.00918102 0.07163194 0.07213601
v 0.00918102 0.06796107 0.07178119
v 0.00550873 0.06796107 0.07209412
v -0.00183322 0.07530595 0.07269287
v 0.00183382 0.07530595 0.07268302
v 0.00550873 0.07704147 0.07272491
v 0.00550873 0.07163194 0.07242923
v 0.01274059 0.07877856 0.06958082
v -0.00183322 0.07163194 0.07242676
v 0.01266458 0.07530595 0.06947487
v 0.01252566 0.07163194 0.06938863
f 1 2 3
f 1 3 4
f 1 4 5
f 1 5 6
f 1 6 11
f 1 11 17
f 1 17 29
f 1 29 36
f 1 36 23
f 1 23 12
f 1 12 7
f 1 7 2
f 2 7 8
f 2 8 3
f 3 8 9
f 3 9 4
f 4 9 15
f 4 15 27
f 4 27 44
f 4 44 61
f 4 61 50
f 4 50 45
f 4 45 28
f 4 28 16
f 4 16 10
f 4 10 5
f 5 10 6
f 6 10 11
f 7 12 13
f 7 13 14
f 7 14 8
f 8 14 9
f 9 14 15
f 10 16 11
f 11 16 17
f 12 18 19
f 12 19 20
f 12 20 21
f 12 21 22
f 12 22 13
f 12 23 18
f 13 22 24
f 13 24 15
f 13 15 14
f 15 24 25
f 15 25 26
f 15 26 27
f 16 28 17
f 17 28 29
f 18 30 31
f 18 31 32
f 18 32 19
f 18 23 30
f 19 33 34
f 19 34 20
f 19 32 33
f 20 34 26
f 20 26 35
f 20 35 21
f 21 35 25
f 21 25 22
f 22 25 24
f 23 36 37
f 23 37 38
f 23 38 39
f 23 39 40
f 23 40 30
f 25 35 26
f 26 34 41
f 26 41 27
f 27 41 42
f 27 42 43
f 27 43 44
f 28 45 29
f 29 45 36
f 30 46 31
f 30 40 46
f 31 47 32
f 31 46 48
f 31 48 47
f 32 47 42
f 32 42 49
f 32 49 33
f 33 49 41
f 33 41 34
f 36 45 50
f 36 50 51
f 36 51 37
f 37 51 52
f 37 52 53
f 37 53 54
f 37 54 55
f 37 55 38
f 38 56 39
f 38 55 56
f 39 56 40
f 40 56 46
f 41 49 42
f 42 47 48
f 42 48 43
f 43 48 57
f 43 57 58
f 43 58 59
f 43 59 44
f 44 59 60
f 44 60 53
f 44 53 61
f 46 56 60
f 46 60 62
f 46 62 48
f 48 62 57
f 50 61 63
f 50 63 51
f 51 63 64
f 51 64 52
f 52 64 53
f 53 64 63
f 53 63 61
f 53 60 54
f 54 60 56
f 54 56 55
f 57 62 60
f 57 60 58
f 58 60 59

