# https://github.com/mikedh/trimesh
v 0.04398512 -0.19995708 0.00197950
v 0.04592012 -0.20387922 0.00241883
v 0.04560849 -0.20894370 0.00384544
v 0.04224941 -0.21122198 0.00547965
v 0.03945199 -0.20160952 0.00410614
v 0.03434271 -0.19998066 0.00781630
v 0.03725972 -0.19990564 0.02349699
v 0.05883826 -0.19987992 0.00431132
v 0.05135190 -0.20191815 0.00200364
v 0.05326154 -0.21122198 0.00420994
v 0.04528599 -0.21611500 0.00619658
v 0.05142800 -0.21633576 0.00574035
v 0.03715463 -0.21662938 0.01131163
v 0.03738292 -0.21075903 0.00838116
v 0.03347667 -0.20399495 0.01030262
v 0.03138948 -0.20000637 0.01469350
v 0.03437895 -0.20339485 0.02137276
v 0.03581027 -0.20938951 0.02282593
v 0.03940851 -0.21305874 0.02481498
v 0.04196315 -0.20640611 0.02556570
v 0.04517004 -0.20194815 0.02595434
v 0.04964156 -0.20194387 0.02627056
v 0.06620867 -0.20014568 0.01811641
v 0.06627028 -0.20000637 0.01233030
v 0.06307063 -0.20189243 0.00755560
v 0.06202703 -0.20998103 0.00717421
v 0.05653727 -0.20546094 0.00379475
v 0.05693588 -0.21122198 0.00500411
v 0.04234000 -0.21963636 0.01028572
v 0.04775729 -0.22017003 0.00939741
v 0.05960285 -0.21656509 0.00807459
v 0.05506972 -0.22043149 0.01122956
v 0.03541168 -0.21812751 0.01652807
v 0.03332448 -0.21195925 0.01510628
v 0.03180982 -0.20387922 0.01652807
v 0.03338246 -0.20938951 0.01978200
v 0.03494061 -0.21587067 0.02066066
v 0.04261902 -0.21595855 0.02583365
v 0.04775729 -0.21122198 0.02663989
v 0.05142800 -0.20755488 0.02659885
v 0.05430876 -0.20298120 0.02603400
v 0.06195093 -0.20194387 0.02340285
v 0.06569774 -0.20935306 0.02213073
v 0.06686455 -0.20422642 0.01847608
v 0.06840820 -0.20938951 0.01652807
v 0.06676670 -0.20669759 0.01199476
v 0.06681381 -0.21172136 0.01189097
v 0.06456718 -0.21624574 0.01133336
v 0.04775729 -0.22177532 0.01469350
v 0.04054995 -0.22090946 0.01573148
v 0.06043990 -0.21977567 0.01297722
v 0.05326154 -0.22133382 0.01652807
v 0.03963317 -0.21953777 0.02185071
v 0.04592012 -0.21896767 0.02423082
v 0.04855810 -0.21584281 0.02615228
v 0.05326154 -0.21288299 0.02652402
v 0.05813166 -0.20727412 0.02581433
v 0.06566151 -0.21588782 0.02200037
v 0.06738996 -0.21605071 0.01591494
v 0.04799645 -0.22097803 0.02076205
v 0.06428454 -0.21859902 0.01836504
v 0.05990723 -0.21981853 0.01863540
v 0.06060658 -0.21761314 0.02327250
v 0.05777655 -0.21351096 0.02581675
f 1 2 3
f 1 3 4
f 1 4 5
f 1 5 6
f 1 6 7
f 1 7 8
f 1 8 9
f 1 9 2
f 2 9 10
f 2 10 3
f 3 11 4
f 3 10 12
f 3 12 11
f 4 11 13
f 4 13 14
f 4 14 5
f 5 14 6
f 6 15 16
f 6 16 7
f 6 14 15
f 7 16 17
f 7 17 18
f 7 18 19
f 7 19 20
f 7 20 21
f 7 21 22
f 7 22 23
f 7 23 24
f 7 24 8
f 8 24 25
f 8 25 26
f 8 26 27
f 8 27 9
f 9 27 10
f 10 27 28
f 10 28 12
f 11 29 13
f 11 12 30
f 11 30 29
f 12 28 31
f 12 31 32
f 12 32 30
f 13 33 34
f 13 34 15
f 13 15 14
f 13 29 33
f 15 34 16
f 16 34 35
f 16 35 17
f 17 35 36
f 17 36 18
f 18 36 37
f 18 37 19
f 19 37 38
f 19 38 20
f 20 38 39
f 20 39 21
f 21 39 22
f 22 40 41
f 22 41 42
f 22 42 23
f 22 39 40
f 23 42 43
f 23 43 44
f 23 44 45
f 23 45 24
f 24 45 46
f 24 46 25
f 25 46 47
f 25 47 26
f 26 47 48
f 26 48 31
f 26 31 28
f 26 28 27
f 29 30 49
f 29 49 50
f 29 50 33
f 30 32 49
f 31 48 51
f 31 51 32
f 32 52 49
f 32 51 52
f 33 50 53
f 33 53 37
f 33 37 34
f 34 37 36
f 34 36 35
f 37 53 38
f 38 53 54
f 38 54 55
f 38 55 39
f 39 55 56
f 39 56 40
f 40 56 57
f 40 57 41
f 41 57 42
f 42 57 43
f 43 57 58
f 43 58 45
f 43 45 44
f 45 59 47
f 45 47 46
f 45 58 59
f 47 59 48
f 48 59 51
f 49 52 60
f 49 60 50
f 50 60 53
f 51 59 61
f 51 61 62
f 51 62 52
f 52 62 60
f 53 60 54
f 54 60 63
f 54 63 55
f 55 63 64
f 55 64 56
f 56 64 57
f 57 64 58
f 58 63 61
f 58 61 59
f 58 64 63
f 60 62 63
f 61 63 62

