# https://github.com/mikedh/trimesh
v -0.09392743 0.03491326 -0.06399226
v -0.09002030 0.00954066 -0.06401475
v -0.09002030 0.00951246 -0.06023338
v -0.09392743 0.03491326 -0.05604887
v -0.09392743 0.03516001 -0.06400264
v -0.08999817 0.00951246 -0.06401561
v -0.09002030 0.01288231 -0.06414711
v -0.09002030 0.00951246 -0.05589661
v -0.09392743 0.03857921 -0.05597880
v -0.09392743 0.04959117 -0.06445682
v -0.08665438 0.00951246 -0.06415749
v -0.08999817 0.01286116 -0.06414798
v -0.07337579 0.00951246 -0.05622621
v -0.07337579 0.01286116 -0.05617085
v -0.07337579 0.03122616 -0.05592602
v -0.07337579 0.03315784 -0.05590613
v -0.08265672 0.05326417 -0.05564746
v -0.08632644 0.06795617 -0.05564660
v -0.09392743 0.05301037 -0.05581702
v -0.09392743 0.04959117 -0.05584470
v -0.09392743 0.05326417 -0.06440838
v -0.09366990 0.05326417 -0.06440838
v -0.07337378 0.07162917 -0.06362113
v -0.07337579 0.01827549 -0.06401908
v -0.07530722 0.02020716 -0.06406233
v -0.07898097 0.02020716 -0.06412462
v -0.08298265 0.00951246 -0.06412029
v -0.08632442 0.00951246 -0.06415836
v -0.07337579 0.00951246 -0.06394900
v -0.07337378 0.03491326 -0.05589834
v -0.07337378 0.08153429 -0.05561891
v -0.09392743 0.07137537 -0.05576338
v -0.08265672 0.08153429 -0.05566130
v -0.08376931 0.08153429 -0.05566822
v -0.08744305 0.08153429 -0.05569936
v -0.09000018 0.08153429 -0.05572532
v -0.09111679 0.08153429 -0.05573743
v -0.09392743 0.07504837 -0.05576511
v -0.09392743 0.07530217 -0.06383568
v -0.07898298 0.07162917 -0.06377166
v -0.07337378 0.07336345 -0.06359864
v -0.07337378 0.04225221 -0.06360989
v -0.07337579 0.01460249 -0.06399745
v -0.07337378 0.03491326 -0.06360469
v -0.07337378 0.08153429 -0.06345157
v -0.09366990 0.08153429 -0.05578069
v -0.09366990 0.07897517 -0.05577117
v -0.09392743 0.07872137 -0.05577636
v -0.09392743 0.08153429 -0.06366439
v -0.07337378 0.07530217 -0.06356404
v -0.09392743 0.08153429 -0.05578587
f 1 2 3
f 1 3 8
f 1 8 4
f 1 4 9
f 1 9 20
f 1 20 19
f 1 19 32
f 1 32 38
f 1 38 48
f 1 48 51
f 1 51 49
f 1 49 39
f 1 39 21
f 1 21 10
f 1 10 5
f 1 5 2
f 2 6 3
f 2 5 7
f 2 7 6
f 3 6 11
f 3 11 28
f 3 28 27
f 3 27 29
f 3 29 13
f 3 13 8
f 4 8 9
f 5 10 7
f 6 7 12
f 6 12 11
f 7 10 12
f 8 13 14
f 8 14 15
f 8 15 16
f 8 16 17
f 8 17 18
f 8 18 19
f 8 19 20
f 8 20 9
f 10 21 22
f 10 22 23
f 10 23 24
f 10 24 25
f 10 25 26
f 10 26 27
f 10 27 28
f 10 28 11
f 10 11 12
f 13 29 44
f 13 44 30
f 13 30 14
f 14 30 15
f 15 30 16
f 16 30 31
f 16 31 17
f 17 31 18
f 18 32 19
f 18 31 33
f 18 33 34
f 18 34 35
f 18 35 36
f 18 36 37
f 18 37 38
f 18 38 32
f 21 39 22
f 22 39 40
f 22 40 41
f 22 41 23
f 23 42 24
f 23 41 50
f 23 50 45
f 23 45 31
f 23 31 30
f 23 30 44
f 23 44 42
f 24 43 26
f 24 26 25
f 24 42 44
f 24 44 43
f 26 43 27
f 27 43 29
f 29 43 44
f 31 45 49
f 31 49 51
f 31 51 46
f 31 46 37
f 31 37 36
f 31 36 35
f 31 35 34
f 31 34 33
f 37 46 47
f 37 47 38
f 38 47 48
f 39 49 45
f 39 45 40
f 40 45 50
f 40 50 41
f 46 51 47
f 47 51 48

