# https://github.com/mikedh/trimesh
v 0.10215221 -0.00037337 -0.03436304
v 0.10207126 -0.00037337 -0.03856931
v 0.07034698 -0.00037337 -0.01899367
v 0.10170389 -0.00110532 -0.01929503
v 0.10191248 -0.00073799 -0.02887982
v 0.09847854 -0.00441122 -0.04118706
v 0.10120888 -0.00127817 -0.04202985
v 0.10124002 -0.00108101 -0.04498471
v 0.07605050 -0.00037337 -0.04456076
v 0.07034698 -0.00037337 -0.03130347
v 0.07034698 -0.02796305 -0.02755434
v 0.07099143 -0.02769567 -0.01959895
v 0.09289021 -0.01054766 -0.01899367
v 0.09663860 -0.00673399 -0.01959895
v 0.09930667 -0.00381432 -0.01959895
v 0.10101275 -0.00183996 -0.02388184
v 0.09577933 -0.00711752 -0.04497194
v 0.09910742 -0.00359555 -0.04399635
v 0.09843184 -0.00469481 -0.02755434
v 0.09570150 -0.00755236 -0.03489425
v 0.09566414 -0.00751455 -0.03856931
v 0.08707461 -0.01522291 -0.04508176
v 0.07034698 -0.00608577 -0.04470123
v 0.07105681 -0.02708256 -0.04508176
v 0.07116577 -0.02715819 -0.04213200
v 0.07067077 -0.02781721 -0.02474761
v 0.07472736 -0.02529457 -0.01959895
v 0.07469000 -0.02527026 -0.02388184
v 0.09578245 -0.00763339 -0.02388184
v 0.07905792 -0.02219393 -0.01959895
v 0.08344142 -0.01883942 -0.01959895
v 0.08738283 -0.01555513 -0.01959895
v 0.09011317 -0.01313782 -0.01959895
v 0.09301786 -0.01037480 -0.02388184
v 0.09845675 -0.00471912 -0.02388184
v 0.09467100 -0.00837073 -0.04224182
v 0.09214614 -0.01065299 -0.04496938
v 0.09575754 -0.00760908 -0.02755434
v 0.09572952 -0.00758207 -0.03122685
v 0.09298984 -0.01034779 -0.02755434
v 0.09287153 -0.01024516 -0.03856931
v 0.08311141 -0.01870707 -0.04224182
v 0.08299311 -0.01862065 -0.04508176
v 0.09094753 -0.01194132 -0.04224182
v 0.08710886 -0.01536606 -0.04224182
v 0.07487057 -0.02465445 -0.04410361
v 0.07890538 -0.02175909 -0.04508176
v 0.07443782 -0.02512711 -0.03912095
v 0.07909217 -0.02210751 -0.02755434
v 0.07911708 -0.02212641 -0.02388184
v 0.07542784 -0.02455452 -0.03489425
v 0.07808347 -0.02271791 -0.03489425
v 0.08240470 -0.01962538 -0.02388184
v 0.08408586 -0.01803995 -0.03856931
v 0.08814869 -0.01468003 -0.03438858
v 0.08999798 -0.01291365 -0.03856931
v 0.08224903 -0.01947413 -0.03856931
v 0.07992030 -0.02137016 -0.03489425
v 0.07887113 -0.02194005 -0.04224182
v 0.08717735 -0.01541738 -0.03856931
v 0.07905481 -0.02208050 -0.03122685
v 0.07894274 -0.02199947 -0.03856931
v 0.08232064 -0.01957946 -0.03122685
v 0.08228951 -0.01953355 -0.03489425
f 1 2 9
f 1 9 10
f 1 10 3
f 1 3 4
f 1 4 5
f 1 5 6
f 1 6 2
f 2 6 7
f 2 7 8
f 2 8 9
f 3 10 23
f 3 23 11
f 3 11 12
f 3 12 13
f 3 13 4
f 4 13 14
f 4 14 15
f 4 15 16
f 4 16 5
f 5 16 6
f 6 17 18
f 6 18 7
f 6 16 19
f 6 19 20
f 6 20 21
f 6 21 17
f 7 18 8
f 8 18 17
f 8 17 22
f 8 22 23
f 8 23 9
f 9 23 10
f 11 23 24
f 11 24 25
f 11 25 26
f 11 26 12
f 12 27 13
f 12 26 28
f 12 28 27
f 13 29 14
f 13 27 30
f 13 30 31
f 13 31 32
f 13 32 33
f 13 33 34
f 13 34 29
f 14 29 35
f 14 35 15
f 15 35 16
f 16 35 19
f 17 21 36
f 17 36 37
f 17 37 22
f 19 35 29
f 19 29 38
f 19 38 39
f 19 39 20
f 20 39 40
f 20 40 41
f 20 41 21
f 21 41 36
f 22 42 43
f 22 43 47
f 22 47 24
f 22 24 23
f 22 37 44
f 22 44 45
f 22 45 42
f 24 46 25
f 24 47 46
f 25 46 48
f 25 48 28
f 25 28 26
f 27 28 49
f 27 49 50
f 27 50 30
f 28 48 51
f 28 51 52
f 28 52 49
f 29 34 38
f 30 50 53
f 30 53 31
f 31 53 54
f 31 54 32
f 32 55 33
f 32 54 55
f 33 55 56
f 33 56 40
f 33 40 34
f 34 40 39
f 34 39 38
f 36 41 44
f 36 44 37
f 40 56 41
f 41 56 44
f 42 47 43
f 42 45 54
f 42 54 57
f 42 57 58
f 42 58 59
f 42 59 47
f 44 56 45
f 45 56 60
f 45 60 54
f 46 59 48
f 46 47 59
f 48 59 52
f 48 52 51
f 49 61 58
f 49 58 53
f 49 53 50
f 49 52 61
f 52 59 62
f 52 62 58
f 52 58 61
f 53 63 54
f 53 58 63
f 54 63 64
f 54 64 57
f 54 60 55
f 55 60 56
f 57 64 58
f 58 62 59
f 58 64 63

