# https://github.com/mikedh/trimesh
v 0.08567783 -0.01725351 -0.00184015
v 0.08722829 -0.01568917 -0.01898857
v 0.08932669 -0.01407383 -0.00184015
v 0.09066942 -0.01262852 0.00257730
v 0.08567783 -0.01658186 0.00260252
v 0.08567783 0.03173393 -0.01762353
v 0.09146121 -0.01190587 -0.01898857
v 0.09658527 0.05029338 -0.01837192
v 0.11610003 0.06705895 -0.01898857
v 0.09363487 -0.01003547 -0.00184015
v 0.09899977 -0.00439877 -0.00000422
v 0.09829228 -0.00388016 0.00699754
v 0.08567783 -0.01158280 0.00678171
v 0.08567783 0.03147888 -0.01099457
v 0.09622700 0.05018286 -0.01285572
v 0.09473374 -0.00870918 -0.01898857
v 0.09999628 0.05574305 -0.01714143
v 0.10351568 0.05999395 -0.01713863
v 0.10731808 0.06312262 -0.01836071
v 0.11642819 0.01944031 0.00004904
v 0.11546177 0.01824156 -0.01898857
v 0.11170153 0.06591971 -0.01816450
v 0.11511857 0.06960100 -0.01176257
v 0.11506137 0.06960100 0.00150096
v 0.09847593 -0.00473034 -0.01898857
v 0.10228133 -0.00040292 -0.01898857
v 0.10220908 -0.00075999 0.00083386
v 0.09130767 -0.00595460 0.00791130
v 0.10590310 0.00515727 0.00754972
v 0.10072786 0.00515727 0.00951739
v 0.08567783 -0.00582707 0.00847750
v 0.08567783 0.02954897 -0.00611184
v 0.09246976 0.04293932 -0.00918106
v 0.09930986 0.05457830 -0.01101699
v 0.10459047 0.06160079 -0.01285572
v 0.10896187 0.06559664 -0.01336306
v 0.11272213 0.06960100 -0.00816359
v 0.11430872 0.01588656 0.00193822
v 0.11333929 0.01437323 -0.00184015
v 0.11276728 0.01381211 -0.01898857
v 0.11242709 0.06960100 -0.00320798
v 0.10631856 0.06016399 -0.00063768
v 0.10576762 0.05676326 0.00188497
v 0.08782439 0.00512326 0.00874378
v 0.09524554 0.00515727 0.00964633
v 0.10667683 0.00506375 -0.01898857
v 0.11005473 0.00937417 -0.00184015
v 0.11151488 0.01154213 0.00193822
v 0.09184054 -0.00183972 0.00885870
v 0.08567783 -0.00071748 0.00875219
v 0.08567783 0.02628427 -0.00170561
v 0.08829104 0.03283917 -0.00406008
v 0.09494448 0.04623802 -0.00707325
v 0.09947846 0.05276741 -0.00504391
v 0.10240778 0.05804704 -0.00707885
v 0.10638179 0.06260401 -0.00458703
v 0.10814600 0.06540960 -0.00918106
v 0.11004570 0.00970574 -0.01898857
v 0.10235660 0.05420422 -0.00088995
v 0.09946039 0.04909463 -0.00055079
v 0.10084527 0.04845699 0.00193822
v 0.08567783 0.02240744 0.00161589
v 0.09561886 0.04002319 0.00155422
v 0.09175926 0.03685202 -0.00165795
f 1 2 3
f 1 3 4
f 1 4 5
f 1 5 13
f 1 13 31
f 1 31 50
f 1 50 62
f 1 62 51
f 1 51 32
f 1 32 14
f 1 14 6
f 1 6 2
f 2 7 3
f 2 6 8
f 2 8 9
f 2 9 21
f 2 21 40
f 2 40 58
f 2 58 46
f 2 46 26
f 2 26 25
f 2 25 16
f 2 16 7
f 3 7 10
f 3 10 4
f 4 10 11
f 4 11 12
f 4 12 5
f 5 12 13
f 6 14 15
f 6 15 8
f 7 16 10
f 8 15 17
f 8 17 18
f 8 18 19
f 8 19 9
f 9 20 21
f 9 19 22
f 9 22 23
f 9 23 24
f 9 24 20
f 10 16 11
f 11 16 25
f 11 25 26
f 11 26 27
f 11 27 12
f 12 28 13
f 12 27 29
f 12 29 30
f 12 30 28
f 13 28 31
f 14 32 33
f 14 33 15
f 15 34 17
f 15 33 34
f 17 35 18
f 17 34 35
f 18 35 36
f 18 36 19
f 19 36 37
f 19 37 22
f 20 38 21
f 20 24 38
f 21 38 39
f 21 39 40
f 22 37 23
f 23 37 41
f 23 41 24
f 24 41 42
f 24 42 43
f 24 43 44
f 24 44 45
f 24 45 30
f 24 30 29
f 24 29 38
f 26 46 27
f 27 46 47
f 27 47 48
f 27 48 29
f 28 30 49
f 28 49 31
f 29 48 38
f 30 45 49
f 31 49 45
f 31 45 50
f 32 51 52
f 32 52 53
f 32 53 33
f 33 53 34
f 34 53 54
f 34 54 55
f 34 55 35
f 35 55 56
f 35 56 57
f 35 57 36
f 36 57 37
f 37 57 41
f 38 48 39
f 39 48 47
f 39 47 40
f 40 47 58
f 41 57 56
f 41 56 42
f 42 56 54
f 42 54 59
f 42 59 43
f 43 59 60
f 43 60 61
f 43 61 44
f 44 50 45
f 44 61 62
f 44 62 50
f 46 58 47
f 51 63 60
f 51 60 64
f 51 64 52
f 51 62 63
f 52 64 54
f 52 54 53
f 54 56 55
f 54 64 60
f 54 60 59
f 60 63 61
f 61 63 62

