# https://github.com/mikedh/trimesh
v 0.12840997 0.10573353 0.01130582
v 0.12549013 0.10123732 0.01120480
v 0.12974242 0.09936572 0.01088492
v 0.13327823 0.10607715 0.00705192
v 0.12126574 0.14396239 -0.00067021
v 0.12087681 0.10742236 0.01032372
v 0.12198407 0.07521041 0.00794423
v 0.12604655 0.07521041 0.00902173
v 0.13400215 0.09546899 0.00704069
v 0.13384396 0.10102530 0.00713610
v 0.13159593 0.07522503 0.00749526
v 0.13210397 0.10684480 -0.04431480
v 0.13125909 0.11201363 -0.04223275
v 0.13051658 0.11570564 -0.04223275
v 0.12967915 0.11937573 -0.04223275
v 0.12967728 0.12110842 -0.00067021
v 0.12755392 0.12820734 -0.00067021
v 0.12577112 0.13336885 -0.00067021
v 0.12408510 0.13766037 -0.00067021
v 0.13292280 0.10112765 -0.04223836
v 0.12428422 0.13644676 -0.03212552
v 0.12049717 0.14521988 -0.01283704
v 0.11531813 0.10695446 0.00265210
v 0.11658729 0.10744429 0.00658612
v 0.11732424 0.07521041 0.00320208
v 0.12559806 0.07053872 -0.01898780
v 0.13349783 0.07899016 0.00550300
v 0.13432595 0.09000772 0.00550300
v 0.13356482 0.09185739 -0.04409593
v 0.13329684 0.09736983 -0.04223275
v 0.13312005 0.07137216 -0.01959951
v 0.13369323 0.07526158 0.00182714
v 0.13107672 0.11201363 -0.04595912
v 0.13298048 0.09925605 -0.04595912
v 0.13031559 0.11570564 -0.04595912
v 0.12899802 0.12115229 -0.04595912
v 0.12741808 0.12670129 -0.04595912
v 0.12804894 0.12521717 -0.04039201
v 0.12846580 0.12452994 -0.02388148
v 0.12767303 0.12670129 -0.03486979
v 0.12648573 0.13038599 -0.03486979
v 0.12544174 0.13366129 -0.02388148
v 0.12507885 0.13453860 -0.02754051
v 0.12442379 0.13575953 -0.04039201
v 0.12420978 0.13581802 -0.04595912
v 0.11534976 0.10744429 -0.00155129
v 0.11580011 0.07521041 -0.00191046
v 0.12090100 0.07054603 -0.03416829
v 0.12563900 0.07054603 -0.04590300
v 0.13289673 0.07081654 -0.03658145
v 0.13396865 0.07899016 0.00182714
v 0.13422546 0.08491932 0.00182714
v 0.13384768 0.08266024 -0.02754051
v 0.13368951 0.08450260 -0.04223275
v 0.13358157 0.08492663 -0.04595912
v 0.13360019 0.07653368 -0.01928524
v 0.12312113 0.11936111 -0.04602646
v 0.12693795 0.08436369 -0.04601524
v 0.12385434 0.11352699 -0.04602646
v 0.12572460 0.13178970 -0.04595912
v 0.12640943 0.13038599 -0.04039201
v 0.13279253 0.07095544 -0.04363575
v 0.13335081 0.07715511 -0.04406787
v 0.13372859 0.07899016 -0.02388148
f 1 2 3
f 1 3 4
f 1 4 5
f 1 5 6
f 1 6 2
f 2 7 8
f 2 8 3
f 2 6 7
f 3 9 10
f 3 10 4
f 3 8 11
f 3 11 9
f 4 12 13
f 4 13 14
f 4 14 15
f 4 15 16
f 4 16 17
f 4 17 18
f 4 18 19
f 4 19 5
f 4 10 20
f 4 20 12
f 5 19 21
f 5 21 22
f 5 22 23
f 5 23 24
f 5 24 6
f 6 24 7
f 7 25 26
f 7 26 8
f 7 24 25
f 8 26 11
f 9 11 27
f 9 27 28
f 9 28 10
f 10 28 29
f 10 29 30
f 10 30 20
f 11 26 31
f 11 31 32
f 11 32 27
f 12 33 13
f 12 20 34
f 12 34 33
f 13 33 14
f 14 35 15
f 14 33 35
f 15 35 36
f 15 36 37
f 15 37 38
f 15 38 39
f 15 39 16
f 16 39 17
f 17 40 41
f 17 41 18
f 17 39 40
f 18 41 42
f 18 42 43
f 18 43 19
f 19 43 21
f 20 30 34
f 21 43 44
f 21 44 22
f 22 44 45
f 22 45 46
f 22 46 23
f 23 46 47
f 23 47 25
f 23 25 24
f 25 47 48
f 25 48 26
f 26 49 50
f 26 50 31
f 26 48 49
f 27 32 28
f 28 32 51
f 28 51 52
f 28 52 53
f 28 53 54
f 28 54 29
f 29 54 55
f 29 55 34
f 29 34 30
f 31 50 56
f 31 56 32
f 32 56 51
f 33 57 35
f 33 34 57
f 34 55 58
f 34 58 59
f 34 59 57
f 35 57 36
f 36 57 37
f 37 60 61
f 37 61 38
f 37 57 60
f 38 61 40
f 38 40 39
f 40 61 41
f 41 61 43
f 41 43 42
f 43 61 44
f 44 61 60
f 44 60 45
f 45 60 57
f 45 57 46
f 46 57 48
f 46 48 47
f 48 57 49
f 49 58 55
f 49 55 62
f 49 62 50
f 49 57 58
f 50 62 63
f 50 63 56
f 51 56 64
f 51 64 52
f 52 64 53
f 53 64 63
f 53 63 54
f 54 63 55
f 55 63 62
f 56 63 64
f 57 59 58

