# https://github.com/mikedh/trimesh
v -0.12842018 0.08826670 -0.02003872
v -0.13516980 0.08826670 -0.01687669
v -0.12774835 0.08827683 -0.04647114
v -0.12626178 0.08826670 -0.00465196
v -0.13523842 0.08914826 -0.02938010
v -0.13522984 0.08913306 -0.03677603
v -0.13497255 0.08892534 -0.04464895
v -0.13473813 0.08826670 -0.00368727
v -0.13513550 0.08914320 -0.00961474
v -0.13433218 0.09912415 -0.04618709
v -0.13098167 0.11869594 -0.04632643
v -0.12369171 0.11800689 -0.04647114
v -0.11604440 0.14001565 -0.04646042
v -0.10603288 0.13979272 -0.00677427
v -0.11605871 0.11204872 -0.00552018
v -0.11416617 0.11741412 -0.00196156
v -0.12094725 0.10296960 0.00155955
v -0.12444358 0.09463019 0.00078780
v -0.12737671 0.08826670 0.00002141
v -0.13499257 0.09368783 -0.01101890
v -0.13497827 0.09552695 -0.03121836
v -0.13478673 0.09453393 -0.04421484
v -0.13495540 0.09551176 -0.03674924
v -0.13208516 0.08826670 0.00160242
v -0.13394910 0.09754341 0.00319952
v -0.13437506 0.10097341 -0.00006970
v -0.13414063 0.10286827 -0.04223723
v -0.13343451 0.10738757 -0.04421484
v -0.12942647 0.12441092 -0.04625676
v -0.13237962 0.11342680 -0.04390400
v -0.13062717 0.12121904 -0.04131542
v -0.12554135 0.13600300 -0.04445601
v -0.12453505 0.13915435 -0.03677603
v -0.11623023 0.14002072 -0.03498600
v -0.10885451 0.14002072 0.00371402
v -0.10636164 0.13999032 -0.00068067
v -0.11790835 0.11002720 0.00094858
v -0.11743092 0.11531153 0.00379441
v -0.12359451 0.10260482 0.00496275
v -0.12758540 0.09657572 0.00447505
v -0.13428643 0.10286827 -0.03121836
v -0.13424355 0.10286827 -0.03677603
v -0.13167921 0.10470740 0.00757276
v -0.13213661 0.10998667 0.00699931
v -0.13350026 0.10837553 0.00183288
v -0.13346596 0.10837553 -0.03677603
v -0.12787128 0.12962938 -0.04447209
v -0.13247109 0.11363453 -0.03677603
v -0.13070150 0.12121397 -0.03583278
v -0.12836585 0.12899101 -0.03674924
v -0.12625892 0.13482252 -0.03677603
v -0.12659339 0.13406254 -0.03121836
v -0.12593302 0.13586620 0.00250280
v -0.12183349 0.13915942 0.00660272
v -0.11479511 0.13943301 0.00733695
v -0.11805701 0.13084027 0.00769067
v -0.12166768 0.10775235 0.00525752
v -0.12624749 0.10588789 0.00754597
v -0.12672776 0.11204872 0.00827484
v -0.12355734 0.13234501 0.00775498
v -0.12883184 0.12792705 0.00230986
v -0.13254829 0.11344200 0.00242777
v -0.13222524 0.11497208 -0.02938010
v -0.13102168 0.12020574 -0.00009650
f 1 2 3
f 1 3 4
f 1 4 19
f 1 19 24
f 1 24 8
f 1 8 2
f 2 5 6
f 2 6 7
f 2 7 3
f 2 8 9
f 2 9 5
f 3 7 10
f 3 10 11
f 3 11 12
f 3 12 13
f 3 13 14
f 3 14 15
f 3 15 4
f 4 15 16
f 4 16 17
f 4 17 18
f 4 18 19
f 5 9 20
f 5 20 21
f 5 21 6
f 6 22 7
f 6 21 23
f 6 23 22
f 7 22 10
f 8 24 25
f 8 25 26
f 8 26 9
f 9 26 20
f 10 22 23
f 10 23 27
f 10 27 28
f 10 28 11
f 11 29 13
f 11 13 12
f 11 28 30
f 11 30 31
f 11 31 29
f 13 29 32
f 13 32 33
f 13 33 34
f 13 34 35
f 13 35 36
f 13 36 14
f 14 36 16
f 14 16 15
f 16 36 37
f 16 37 17
f 17 37 38
f 17 38 39
f 17 39 18
f 18 39 19
f 19 39 40
f 19 40 24
f 20 26 21
f 21 26 41
f 21 41 23
f 23 41 42
f 23 42 27
f 24 40 43
f 24 43 25
f 25 43 44
f 25 44 45
f 25 45 26
f 26 45 41
f 27 42 46
f 27 46 28
f 28 46 30
f 29 47 32
f 29 31 47
f 30 46 48
f 30 48 31
f 31 48 49
f 31 49 50
f 31 50 47
f 32 47 51
f 32 51 33
f 33 51 52
f 33 52 53
f 33 53 54
f 33 54 34
f 34 54 35
f 35 54 55
f 35 55 56
f 35 56 57
f 35 57 38
f 35 38 36
f 36 38 37
f 38 57 39
f 39 57 58
f 39 58 40
f 40 58 43
f 41 46 42
f 41 45 46
f 43 59 60
f 43 60 44
f 43 58 59
f 44 60 53
f 44 53 61
f 44 61 62
f 44 62 45
f 45 62 46
f 46 62 48
f 47 50 51
f 48 62 63
f 48 63 49
f 49 63 64
f 49 64 61
f 49 61 50
f 50 61 52
f 50 52 51
f 52 61 53
f 53 60 54
f 54 60 55
f 55 60 56
f 56 60 59
f 56 59 58
f 56 58 57
f 61 64 62
f 62 64 63

