# https://github.com/mikedh/trimesh
v -0.12404344 0.14073446 0.00183427
v -0.12168932 0.14575084 0.00277500
v -0.12044789 0.14842623 0.00175350
v -0.12212613 0.14461379 -0.01683295
v -0.12394228 0.14063413 -0.01683295
v -0.12280201 0.14003218 0.00563043
v -0.11814435 0.15168128 0.00438088
v -0.11793285 0.15305800 0.00183427
v -0.12058583 0.14776295 -0.01683295
v -0.11778113 0.15296324 -0.01683057
v -0.11423616 0.14003218 -0.01683295
v -0.12041110 0.14003218 0.00735272
v -0.10664505 0.16650742 0.00651652
v -0.11406143 0.15920025 0.00300305
v -0.11612128 0.15612912 0.00183427
v -0.10771636 0.15310259 -0.01683295
v -0.11377636 0.15966844 -0.01332899
v -0.11082912 0.16403826 -0.01288475
v -0.10559673 0.17103886 -0.01470444
v -0.10279662 0.17443885 -0.01470444
v -0.09933441 0.17833489 -0.01470444
v -0.09596416 0.18185191 -0.01470444
v -0.09248816 0.18519616 -0.01470444
v -0.08985817 0.18759844 -0.01470444
v -0.10967046 0.14003218 -0.01351190
v -0.08183027 0.18450501 -0.01470444
v -0.10884743 0.14003218 0.00371810
v -0.11484768 0.14058398 0.00743586
v -0.10267707 0.16526447 0.00739785
v -0.10654389 0.16981264 0.00312183
v -0.09368361 0.17815652 0.00641437
v -0.09323762 0.18318960 0.00465169
v -0.09990915 0.17711424 0.00450916
v -0.11079233 0.16432252 0.00183189
v -0.10763359 0.16842478 -0.01244052
v -0.10871869 0.16715397 0.00183189
v -0.10283800 0.17448900 0.00183189
v -0.09940338 0.17840734 0.00183189
v -0.09397328 0.18392534 0.00183189
v -0.08920528 0.18823941 -0.00184073
v -0.08598676 0.19094268 -0.01377797
v -0.08189005 0.19418101 -0.01364019
v -0.10651631 0.14003218 -0.00898645
v -0.07708066 0.18822827 -0.01230274
v -0.07818875 0.19687312 -0.01230274
v -0.10618526 0.14003218 -0.00098078
v -0.07708066 0.18928727 0.00378699
v -0.08633620 0.18549713 0.00562093
v -0.09003290 0.18558631 0.00480136
v -0.09652511 0.18103257 0.00310282
v -0.08604653 0.18991154 0.00342828
v -0.09000991 0.18732532 0.00239966
v -0.08611090 0.19082005 -0.00184073
v -0.08521891 0.19158922 -0.00917887
v -0.08286939 0.19342856 -0.00917887
v -0.08103484 0.19483872 -0.00917887
v -0.10578984 0.14003218 -0.00550861
v -0.07708066 0.18636663 0.00032578
v -0.07731515 0.19601477 0.00315509
v -0.07803702 0.19697345 -0.00168157
v -0.08266249 0.19057481 0.00471821
v -0.08106242 0.19432593 0.00206470
v -0.08193142 0.19410856 -0.00184073
v -0.08143026 0.19453216 -0.00589821
f 1 2 3
f 1 3 4
f 1 4 5
f 1 5 6
f 1 6 2
f 2 7 8
f 2 8 3
f 2 6 7
f 3 9 4
f 3 8 10
f 3 10 9
f 4 9 16
f 4 16 11
f 4 11 5
f 5 11 6
f 6 12 7
f 6 11 25
f 6 25 43
f 6 43 57
f 6 57 46
f 6 46 27
f 6 27 12
f 7 12 13
f 7 13 14
f 7 14 8
f 8 14 15
f 8 15 10
f 9 10 16
f 10 15 17
f 10 17 18
f 10 18 19
f 10 19 20
f 10 20 21
f 10 21 22
f 10 22 23
f 10 23 24
f 10 24 16
f 11 16 26
f 11 26 25
f 12 27 28
f 12 28 29
f 12 29 13
f 13 30 14
f 13 29 31
f 13 31 32
f 13 32 33
f 13 33 30
f 14 34 15
f 14 30 34
f 15 34 17
f 16 24 26
f 17 34 18
f 18 34 35
f 18 35 19
f 19 35 36
f 19 36 37
f 19 37 20
f 20 37 38
f 20 38 21
f 21 38 22
f 22 38 39
f 22 39 23
f 23 39 24
f 24 39 40
f 24 40 41
f 24 41 42
f 24 42 26
f 25 26 44
f 25 44 43
f 26 42 45
f 26 45 44
f 27 46 47
f 27 47 28
f 28 47 29
f 29 47 48
f 29 48 31
f 30 37 36
f 30 36 34
f 30 33 37
f 31 48 49
f 31 49 32
f 32 50 33
f 32 49 51
f 32 51 52
f 32 52 50
f 33 50 38
f 33 38 37
f 34 36 35
f 38 50 39
f 39 50 52
f 39 52 40
f 40 53 54
f 40 54 41
f 40 52 53
f 41 54 42
f 42 54 55
f 42 55 56
f 42 56 45
f 43 44 57
f 44 58 57
f 44 45 59
f 44 59 47
f 44 47 58
f 45 56 60
f 45 60 59
f 46 57 58
f 46 58 47
f 47 59 61
f 47 61 48
f 48 61 49
f 49 61 51
f 51 61 59
f 51 59 62
f 51 62 52
f 52 62 63
f 52 63 53
f 53 63 54
f 54 63 64
f 54 64 55
f 55 64 56
f 56 64 60
f 59 60 62
f 60 64 63
f 60 63 62

