# https://github.com/mikedh/trimesh
v -0.00775444 -0.01841242 0.01720340
v -0.01168734 -0.01718618 0.01720340
v -0.01216200 -0.01762869 0.01719963
v -0.01043400 -0.01872222 0.01718831
v -0.00775444 -0.01903948 0.01715814
v -0.00775444 -0.02103806 0.00097574
v -0.00781033 -0.02063167 -0.00206010
v -0.01445855 -0.01718618 -0.00206010
v -0.01431101 -0.01718618 -0.00113426
v -0.01254724 -0.01718696 0.01717511
v -0.01482144 -0.01718618 0.01472946
v -0.01303383 -0.01728630 0.01672257
v -0.01205842 -0.01848584 0.01667542
v -0.01172683 -0.01816073 0.01716380
v -0.01098541 -0.01864919 0.01709592
v -0.01045710 -0.01907011 0.01683570
v -0.00992208 -0.01929784 0.01675651
v -0.00963892 -0.01909484 0.01701672
v -0.00933863 -0.01950124 0.01660754
v -0.00836546 -0.01942388 0.01669805
v -0.00786621 -0.01953775 0.01653778
v -0.00775444 -0.01982007 0.01613991
v -0.00790123 -0.02103374 0.00097574
v -0.00779766 -0.02102000 0.00050434
v -0.00775444 -0.02063678 0.01486334
v -0.00781033 -0.02119748 0.00690037
v -0.00853983 -0.02081465 -0.00206010
v -0.01488776 -0.01736915 -0.00206010
v -0.01536689 -0.01721091 0.00680986
v -0.01350849 -0.01847289 0.01467478
v -0.01443694 -0.01754859 0.01482752
v -0.01242653 -0.01821452 0.01655286
v -0.01154129 -0.01864133 0.01690736
v -0.01236990 -0.01860089 0.01614368
v -0.01169107 -0.01946629 0.01558176
v -0.01155917 -0.01900296 0.01641709
v -0.01097572 -0.01903123 0.01668297
v -0.00973281 -0.02030499 0.01541017
v -0.00914340 -0.02030734 0.01546863
v -0.00836546 -0.01956995 0.01650383
v -0.00775444 -0.02035642 0.01538000
v -0.00929839 -0.02075143 -0.00206010
v -0.00817098 -0.02116803 0.00622720
v -0.00898245 -0.02104081 0.00544844
v -0.00855995 -0.02065994 0.01487277
v -0.00836546 -0.02070470 0.01458804
v -0.00914340 -0.02065523 0.01478038
v -0.00972238 -0.02062500 0.01475963
v -0.00991388 -0.02061871 -0.00206010
v -0.01430952 -0.01787567 -0.00198091
v -0.01219479 -0.01956092 0.01458804
v -0.01378121 -0.01833899 -0.00116443
v -0.01214933 -0.01952401 0.01489917
v -0.01315454 -0.01860560 0.01507265
v -0.01279836 -0.01864055 0.01550634
v -0.01289597 -0.01872026 0.01524801
v -0.01156066 -0.01980200 0.01510848
v -0.01076112 -0.02029988 0.01475963
v -0.01010762 -0.02068154 0.00875205
v -0.00998765 -0.02076085 0.00467156
v -0.01017469 -0.02065602 0.00389280
v -0.01340863 -0.01857969 -0.00116443
v -0.01380729 -0.01827539 -0.00190360
v -0.01163220 -0.01994061 0.01465404
f 1 2 3
f 1 3 4
f 1 4 5
f 1 5 22
f 1 22 41
f 1 41 25
f 1 25 6
f 1 6 7
f 1 7 8
f 1 8 9
f 1 9 2
f 2 10 3
f 2 9 8
f 2 8 11
f 2 11 10
f 3 10 12
f 3 12 13
f 3 13 14
f 3 14 4
f 4 14 15
f 4 15 16
f 4 16 17
f 4 17 18
f 4 18 5
f 5 18 19
f 5 19 20
f 5 20 21
f 5 21 22
f 6 23 24
f 6 24 7
f 6 25 26
f 6 26 23
f 7 24 27
f 7 27 42
f 7 42 49
f 7 49 28
f 7 28 8
f 8 28 29
f 8 29 11
f 10 11 12
f 11 29 30
f 11 30 31
f 11 31 32
f 11 32 12
f 12 32 13
f 13 33 14
f 13 32 34
f 13 34 35
f 13 35 36
f 13 36 33
f 14 33 15
f 15 33 16
f 16 33 37
f 16 37 17
f 17 37 38
f 17 38 19
f 17 19 18
f 19 38 39
f 19 39 40
f 19 40 20
f 20 40 21
f 21 40 22
f 22 40 41
f 23 42 24
f 23 26 43
f 23 43 44
f 23 44 42
f 24 42 27
f 25 45 46
f 25 46 26
f 25 41 45
f 26 46 47
f 26 47 48
f 26 48 43
f 28 49 50
f 28 50 29
f 29 51 30
f 29 50 52
f 29 52 51
f 30 51 53
f 30 53 54
f 30 54 31
f 31 54 34
f 31 34 32
f 33 36 37
f 34 54 55
f 34 55 56
f 34 56 53
f 34 53 35
f 35 53 57
f 35 57 38
f 35 38 36
f 36 38 37
f 38 57 58
f 38 58 48
f 38 48 45
f 38 45 39
f 39 45 41
f 39 41 40
f 42 44 49
f 43 48 44
f 44 48 59
f 44 59 60
f 44 60 49
f 45 48 47
f 45 47 46
f 48 58 59
f 49 60 61
f 49 61 62
f 49 62 63
f 49 63 50
f 50 63 52
f 51 52 64
f 51 64 53
f 52 63 62
f 52 62 64
f 53 56 54
f 53 64 57
f 54 56 55
f 57 64 58
f 58 64 59
f 59 64 60
f 60 64 61
f 61 64 62

