# https://github.com/mikedh/trimesh
v 0.01098560 0.01367185 0.01681014
v 0.01364512 0.01108560 0.01678920
v 0.01279817 0.01305096 0.01674437
v 0.01247373 0.01357394 0.01661480
v 0.01371448 0.01367185 0.01443117
v 0.01538987 -0.01072442 0.01694758
v 0.01525116 -0.00088328 0.01694758
v 0.01624915 -0.00092627 0.01694758
v 0.01388633 0.01108560 0.01663402
v 0.01342471 0.01184739 0.01673575
v 0.01307484 0.01258529 0.01675102
v 0.01488201 0.00706174 0.01675792
v 0.01391639 0.01050292 0.01674856
v 0.01393951 0.01304141 0.01577411
v 0.01341238 0.01280977 0.01639878
v 0.01418997 0.01357156 0.01480188
v 0.01481959 0.01251604 0.01465729
v 0.01522033 0.01176619 0.01459054
v 0.01597788 0.01005874 0.01461419
v 0.01846786 -0.00022657 0.01443117
v 0.01832606 -0.00088328 0.01443117
v 0.01819967 -0.01071009 0.01464350
v 0.01802319 -0.01071009 0.01550956
v 0.01674468 -0.01046651 0.01677393
v 0.01675547 -0.00543251 0.01694758
v 0.01587153 0.00548325 0.01639114
v 0.01674699 -0.00272685 0.01687837
v 0.01391485 0.01174948 0.01639287
v 0.01575208 0.00706413 0.01616748
v 0.01594474 0.00853994 0.01555661
v 0.01368904 0.01225335 0.01639878
v 0.01569043 0.00603011 0.01642563
v 0.01595939 0.00935427 0.01518417
v 0.01518873 0.01170172 0.01480533
v 0.01559564 0.01096620 0.01465606
v 0.01796000 0.00305460 0.01470483
v 0.01876918 -0.00252148 0.01471912
v 0.01880078 -0.00310417 0.01473907
v 0.01885781 -0.00660982 0.01476050
v 0.01871293 -0.00936323 0.01462724
v 0.01867825 -0.00191492 0.01479178
v 0.01832683 -0.01036144 0.01512037
v 0.01815112 -0.00982174 0.01554257
v 0.01772341 -0.01050949 0.01592732
v 0.01789680 -0.00915308 0.01595171
v 0.01785827 -0.00491669 0.01636602
v 0.01704832 -0.00469699 0.01681211
v 0.01752150 0.00354176 0.01518811
v 0.01764018 -0.00350058 0.01642193
v 0.01770183 -0.00262417 0.01626577
v 0.01791453 -0.00202477 0.01597240
v 0.01711845 -0.00349580 0.01672983
v 0.01789680 0.00176745 0.01517580
v 0.01875685 -0.00369401 0.01492381
v 0.01876841 -0.00447252 0.01494155
v 0.01877920 -0.00719250 0.01493243
v 0.01874992 -0.00855607 0.01476863
v 0.01825901 -0.00305163 0.01566844
v 0.01838077 -0.00913876 0.01530438
v 0.01816114 -0.00719250 0.01578150
v 0.01827751 -0.00447252 0.01574628
v 0.01826749 -0.00388744 0.01572928
v 0.01783438 -0.00350058 0.01628867
v 0.01755155 -0.00419073 0.01652613
f 1 2 3
f 1 3 4
f 1 4 5
f 1 5 6
f 1 6 7
f 1 7 8
f 1 8 2
f 2 9 10
f 2 10 11
f 2 11 3
f 2 8 12
f 2 12 13
f 2 13 9
f 3 14 4
f 3 11 15
f 3 15 14
f 4 16 5
f 4 14 16
f 5 16 17
f 5 17 18
f 5 18 19
f 5 19 20
f 5 20 21
f 5 21 22
f 5 22 6
f 6 22 23
f 6 23 24
f 6 24 25
f 6 25 8
f 6 8 7
f 8 26 12
f 8 25 27
f 8 27 26
f 9 28 10
f 9 13 29
f 9 29 30
f 9 30 28
f 10 28 31
f 10 31 11
f 11 31 15
f 12 32 13
f 12 26 32
f 13 32 29
f 14 15 31
f 14 31 28
f 14 28 33
f 14 33 34
f 14 34 16
f 16 34 17
f 17 34 18
f 18 35 19
f 18 34 35
f 19 35 33
f 19 33 36
f 19 36 20
f 20 37 38
f 20 38 39
f 20 39 40
f 20 40 21
f 20 36 41
f 20 41 37
f 21 40 22
f 22 40 42
f 22 42 23
f 23 42 43
f 23 43 44
f 23 44 24
f 24 44 45
f 24 45 46
f 24 46 25
f 25 46 47
f 25 47 27
f 26 48 29
f 26 29 32
f 26 27 49
f 26 49 50
f 26 50 51
f 26 51 48
f 27 47 52
f 27 52 49
f 28 30 33
f 29 48 30
f 30 48 36
f 30 36 33
f 33 35 34
f 36 48 53
f 36 53 41
f 37 41 54
f 37 54 38
f 38 54 55
f 38 55 39
f 39 56 57
f 39 57 40
f 39 55 56
f 40 57 42
f 41 51 58
f 41 58 54
f 41 53 51
f 42 57 59
f 42 59 43
f 43 59 45
f 43 45 44
f 45 59 60
f 45 60 46
f 46 60 56
f 46 56 61
f 46 61 62
f 46 62 63
f 46 63 49
f 46 49 64
f 46 64 47
f 47 64 52
f 48 51 53
f 49 63 50
f 49 52 64
f 50 63 51
f 51 63 58
f 54 62 61
f 54 61 55
f 54 58 62
f 55 61 56
f 56 60 59
f 56 59 57
f 58 63 62

