# https://github.com/mikedh/trimesh
v 0.00591130 0.01890524 0.01449094
v 0.00653816 0.01875366 0.01465948
v 0.00794538 0.01798026 0.01463109
v -0.01762771 0.01231556 0.01447002
v 0.00136469 0.01833181 0.01443117
v 0.00181756 0.01882784 0.01460419
v 0.00583199 0.01870206 0.01501688
v 0.00783536 0.01702626 0.01649908
v 0.00797353 0.01560137 0.01680987
v -0.01324740 0.01231556 0.01748403
v -0.01815989 0.01231556 0.01455728
v -0.01784519 0.01285868 0.01454921
v -0.01678593 0.01365595 0.01447002
v -0.00766201 0.01710173 0.01473777
v -0.01436295 0.01500149 0.01451514
v 0.00174848 0.01713204 0.01679014
v -0.00797415 0.01687403 0.01512446
v -0.00751361 0.01674889 0.01551533
v -0.00194868 0.01695466 0.01672948
v -0.00136532 0.01707270 0.01665836
v 0.00231905 0.01714881 0.01679582
v 0.00589851 0.01790673 0.01596328
v 0.00706523 0.01708625 0.01669332
v 0.00650745 0.01711463 0.01678297
v 0.00120862 0.01611224 0.01746909
v 0.00136469 0.01521564 0.01748403
v -0.01440900 0.01236717 0.01748403
v -0.01679617 0.01231556 0.01599615
v -0.01719019 0.01249811 0.01562918
v -0.01768911 0.01262131 0.01513223
v -0.01734371 0.01325151 0.01474674
v -0.01677570 0.01364756 0.01481965
v -0.01610279 0.01410425 0.01459045
v -0.01550152 0.01446289 0.01463677
v -0.01241075 0.01566007 0.01464095
v -0.01487211 0.01478153 0.01468428
v -0.01359793 0.01523177 0.01481128
v 0.00136469 0.01663665 0.01716249
v -0.00194868 0.01650765 0.01709913
v -0.01375401 0.01487506 0.01550308
v -0.01198602 0.01518275 0.01606966
v -0.01162526 0.01497827 0.01658096
v -0.01086792 0.01513695 0.01666882
v -0.00758781 0.01630511 0.01609924
v -0.00758781 0.01596453 0.01655466
v -0.00797415 0.01565556 0.01683407
v -0.00972423 0.01506277 0.01709077
v -0.00781040 0.01513114 0.01741171
v 0.00582687 0.01722557 0.01675010
v -0.00237340 0.01579875 0.01748403
v -0.01588275 0.01276967 0.01629886
v -0.01634585 0.01284643 0.01595700
v -0.01090630 0.01416488 0.01748403
v -0.01365934 0.01303413 0.01747118
v -0.01427596 0.01313153 0.01704415
v -0.01369772 0.01379076 0.01682839
v -0.01315785 0.01445708 0.01641451
v -0.01256938 0.01479443 0.01635206
v -0.01320647 0.01489313 0.01581775
v -0.01279965 0.01437903 0.01671215
v -0.01042272 0.01482024 0.01714725
v -0.00882361 0.01482604 0.01748403
v -0.01123380 0.01446869 0.01717085
v -0.01002103 0.01454545 0.01744697
f 1 2 3
f 1 3 4
f 1 4 5
f 1 5 6
f 1 6 7
f 1 7 2
f 2 8 3
f 2 7 8
f 3 8 9
f 3 9 4
f 4 10 28
f 4 28 11
f 4 11 12
f 4 12 13
f 4 13 5
f 4 9 10
f 5 14 6
f 5 13 15
f 5 15 14
f 6 16 7
f 6 14 17
f 6 17 18
f 6 18 19
f 6 19 20
f 6 20 16
f 7 16 21
f 7 21 22
f 7 22 23
f 7 23 8
f 8 23 9
f 9 23 24
f 9 24 25
f 9 25 26
f 9 26 10
f 10 26 50
f 10 50 62
f 10 62 53
f 10 53 27
f 10 27 28
f 11 28 29
f 11 29 30
f 11 30 12
f 12 30 31
f 12 31 13
f 13 31 32
f 13 32 33
f 13 33 34
f 13 34 15
f 14 15 35
f 14 35 17
f 15 34 36
f 15 36 37
f 15 37 35
f 16 38 21
f 16 20 19
f 16 19 39
f 16 39 38
f 17 35 37
f 17 37 40
f 17 40 41
f 17 41 42
f 17 42 43
f 17 43 18
f 18 44 19
f 18 43 44
f 19 44 45
f 19 45 46
f 19 46 47
f 19 47 48
f 19 48 39
f 21 49 22
f 21 38 49
f 22 24 23
f 22 49 24
f 24 49 25
f 25 39 50
f 25 50 26
f 25 49 38
f 25 38 39
f 27 51 52
f 27 52 28
f 27 53 54
f 27 54 55
f 27 55 51
f 28 52 29
f 29 52 30
f 30 52 32
f 30 32 31
f 32 52 56
f 32 56 40
f 32 40 36
f 32 36 34
f 32 34 33
f 36 40 37
f 39 48 50
f 40 56 57
f 40 57 58
f 40 58 59
f 40 59 41
f 41 59 58
f 41 58 42
f 42 58 60
f 42 60 61
f 42 61 43
f 43 61 47
f 43 47 45
f 43 45 44
f 45 47 46
f 47 61 62
f 47 62 48
f 48 62 50
f 51 55 52
f 52 55 56
f 53 63 54
f 53 62 64
f 53 64 61
f 53 61 63
f 54 63 60
f 54 60 56
f 54 56 55
f 56 60 57
f 57 60 58
f 60 63 61
f 61 64 62

