# https://github.com/mikedh/trimesh
v 0.01329306 -0.01663715 0.01459044
v 0.01326473 -0.01656075 -0.00205452
v 0.01398502 -0.01640448 -0.00206010
v 0.01376731 -0.01636976 0.01471324
v 0.01317817 -0.01646525 0.01512630
v 0.01818664 -0.01079040 -0.00206010
v 0.01314932 -0.01353841 0.01694783
v 0.01539098 -0.01072442 0.01694783
v 0.01451593 -0.01603812 -0.00206010
v 0.01440786 -0.01595941 0.01468720
v 0.01409152 -0.01598487 0.01505932
v 0.01392417 -0.01512598 0.01643802
v 0.01331194 -0.01503627 0.01679154
v 0.01848462 -0.01072442 0.01419972
v 0.01850823 -0.01090673 0.01284706
v 0.01790283 -0.01187154 -0.00206010
v 0.01387695 -0.01471273 0.01686224
v 0.01445612 -0.01394586 0.01694783
v 0.01633843 -0.01094493 0.01694783
v 0.01674973 -0.01081760 0.01674502
v 0.01766518 -0.01072442 0.01592264
v 0.01578024 -0.01509125 -0.00206010
v 0.01619154 -0.01472605 0.01128043
v 0.01535321 -0.01529845 0.01458672
v 0.01587520 -0.01491472 0.01464998
v 0.01600740 -0.01465254 0.01501838
v 0.01563440 -0.01462244 0.01551144
v 0.01471581 -0.01473125 0.01627057
v 0.01435592 -0.01481575 0.01649570
v 0.01838442 -0.01078114 0.01473185
v 0.01831727 -0.01117412 0.01443043
v 0.01841170 -0.01116718 0.01361549
v 0.01830625 -0.01165277 0.01287124
v 0.01624925 -0.01454489 -0.00206010
v 0.01792433 -0.01271481 0.01283775
v 0.01427776 -0.01437705 0.01687154
v 0.01505838 -0.01319114 0.01693667
v 0.01542351 -0.01264710 0.01694783
v 0.01510297 -0.01366111 0.01678037
v 0.01613173 -0.01145309 0.01694783
v 0.01636571 -0.01173553 0.01675060
v 0.01799201 -0.01092120 0.01542771
v 0.01590300 -0.01269687 0.01674874
v 0.01751933 -0.01324207 0.01275775
v 0.01627548 -0.01463113 0.01244889
v 0.01611757 -0.01474167 0.01419972
v 0.01627548 -0.01451132 0.01463696
v 0.01597750 -0.01366458 0.01598590
v 0.01567585 -0.01421673 0.01586496
v 0.01711433 -0.01322471 0.01477092
v 0.01526298 -0.01447949 0.01603427
v 0.01484119 -0.01427750 0.01657757
v 0.01791856 -0.01192016 0.01472999
v 0.01795056 -0.01217077 0.01419972
v 0.01797155 -0.01238549 0.01358758
v 0.01833825 -0.01145367 0.01342012
v 0.01590405 -0.01221881 0.01687341
v 0.01566640 -0.01305802 0.01673014
v 0.01534272 -0.01377975 0.01651059
v 0.01598537 -0.01313558 0.01638221
v 0.01753874 -0.01250298 0.01482116
v 0.01783935 -0.01236523 0.01419972
v 0.01566693 -0.01352336 0.01640267
v 0.01759068 -0.01257417 0.01458672
f 1 2 3
f 1 3 4
f 1 4 5
f 1 5 2
f 2 6 3
f 2 5 7
f 2 7 8
f 2 8 6
f 3 6 16
f 3 16 34
f 3 34 22
f 3 22 9
f 3 9 10
f 3 10 4
f 4 10 11
f 4 11 5
f 5 11 12
f 5 12 13
f 5 13 7
f 6 14 15
f 6 15 16
f 6 8 14
f 7 13 17
f 7 17 18
f 7 18 38
f 7 38 40
f 7 40 19
f 7 19 8
f 8 19 20
f 8 20 21
f 8 21 14
f 9 22 23
f 9 23 24
f 9 24 10
f 10 24 25
f 10 25 26
f 10 26 11
f 11 26 27
f 11 27 28
f 11 28 29
f 11 29 12
f 12 29 17
f 12 17 13
f 14 21 30
f 14 30 31
f 14 31 32
f 14 32 15
f 15 32 33
f 15 33 16
f 16 33 35
f 16 35 34
f 17 36 18
f 17 29 36
f 18 37 38
f 18 36 39
f 18 39 37
f 19 40 20
f 20 40 41
f 20 41 21
f 21 42 30
f 21 41 43
f 21 43 42
f 22 34 44
f 22 44 23
f 23 44 45
f 23 45 46
f 23 46 25
f 23 25 24
f 25 46 47
f 25 47 26
f 26 48 49
f 26 49 27
f 26 47 50
f 26 50 48
f 27 49 51
f 27 51 28
f 28 51 52
f 28 52 29
f 29 52 36
f 30 53 31
f 30 42 53
f 31 54 55
f 31 55 56
f 31 56 32
f 31 53 54
f 32 56 33
f 33 56 35
f 34 35 44
f 35 56 55
f 35 55 47
f 35 47 44
f 36 52 39
f 37 39 43
f 37 43 38
f 38 43 57
f 38 57 40
f 39 58 43
f 39 52 59
f 39 59 58
f 40 57 41
f 41 57 43
f 42 43 60
f 42 60 61
f 42 61 53
f 43 58 60
f 44 47 46
f 44 46 45
f 47 55 62
f 47 62 50
f 48 60 49
f 48 50 61
f 48 61 60
f 49 60 63
f 49 63 59
f 49 59 52
f 49 52 51
f 50 62 64
f 50 64 61
f 53 61 64
f 53 64 62
f 53 62 54
f 54 62 55
f 58 59 63
f 58 63 60

