# https://github.com/mikedh/trimesh
v -0.01777508 0.01239504 -0.01616042
v -0.01777508 0.01256493 -0.01729994
v -0.01775730 0.01236323 -0.01698967
v -0.01771984 0.01230087 -0.01650014
v -0.01751033 0.01245358 -0.01634475
v -0.01777508 0.01362752 -0.01355179
v -0.01757890 0.01249112 -0.01706381
v -0.01777508 0.01283344 -0.01751170
v -0.01585265 0.01433443 -0.01793725
v -0.01559362 0.01441715 -0.01787326
v -0.01743161 0.01240713 -0.01670428
v -0.01672689 0.01283853 -0.01672917
v -0.01128975 0.01733323 -0.01355179
v -0.01777508 0.01413145 -0.01355179
v -0.01635358 0.01362752 -0.01749596
v -0.01711670 0.01283916 -0.01712018
v -0.01452321 0.01447886 -0.01700288
v -0.01730653 0.01257574 -0.01692975
v -0.01756557 0.01459085 -0.01795553
v -0.01731288 0.01459085 -0.01802662
v -0.01692370 0.01459085 -0.01804592
v -0.01653452 0.01459085 -0.01805862
v -0.01614597 0.01459085 -0.01806979
v -0.01614597 0.01428607 -0.01795299
v -0.01777508 0.01851035 -0.01658342
v -0.01756557 0.01486254 -0.01796010
v -0.01573647 0.01456476 -0.01802104
v -0.01536760 0.01468693 -0.01797838
v -0.01533586 0.01447950 -0.01772701
v -0.01544506 0.01431916 -0.01761428
v -0.01514920 0.01476392 -0.01791795
v -0.01438290 0.01438788 -0.01672612
v -0.01128975 0.01702018 -0.01460144
v -0.01128975 0.01709844 -0.01433179
v -0.01128975 0.01880049 -0.01848061
v -0.01138371 0.01775126 -0.01355179
v -0.01570980 0.01568526 -0.01355179
v -0.01775667 0.01879349 -0.01636659
v -0.01478097 0.01439424 -0.01712120
v -0.01497842 0.01447505 -0.01740405
v -0.01463304 0.01461503 -0.01727354
v -0.01128975 0.01664286 -0.01681600
v -0.01393340 0.01473274 -0.01679112
v -0.01248523 0.01867769 -0.01868170
v -0.01225667 0.01868278 -0.01870303
v -0.01186749 0.01867769 -0.01873857
v -0.01138371 0.01867833 -0.01873908
v -0.01722717 0.01873559 -0.01676878
v -0.01366548 0.01874895 -0.01833690
v -0.01128975 0.01840345 -0.01855779
v -0.01500318 0.01467993 -0.01768436
v -0.01474478 0.01475056 -0.01754268
v -0.01128975 0.01658878 -0.01653518
v -0.01128975 0.01664159 -0.01625487
v -0.01128975 0.01692919 -0.01497976
v -0.01225667 0.01879667 -0.01848061
v -0.01303441 0.01879795 -0.01841865
v -0.01185733 0.01758392 -0.01355179
v -0.01535935 0.01588314 -0.01355179
v -0.01364770 0.01677712 -0.01355179
v -0.01342486 0.01688974 -0.01355179
v -0.01287314 0.01715825 -0.01355179
v -0.01342359 0.01879477 -0.01838209
f 1 2 3
f 1 3 4
f 1 4 5
f 1 5 6
f 1 6 14
f 1 14 25
f 1 25 8
f 1 8 2
f 2 7 3
f 2 8 9
f 2 9 10
f 2 10 7
f 3 7 11
f 3 11 4
f 4 11 5
f 5 11 12
f 5 12 13
f 5 13 6
f 6 13 36
f 6 36 58
f 6 58 62
f 6 62 61
f 6 61 60
f 6 60 59
f 6 59 37
f 6 37 14
f 7 10 15
f 7 15 16
f 7 16 17
f 7 17 18
f 7 18 11
f 8 19 20
f 8 20 21
f 8 21 22
f 8 22 23
f 8 23 24
f 8 24 9
f 8 25 26
f 8 26 19
f 9 27 28
f 9 28 10
f 9 24 27
f 10 29 30
f 10 30 15
f 10 28 31
f 10 31 29
f 11 18 12
f 12 18 32
f 12 32 33
f 12 33 34
f 12 34 13
f 13 34 33
f 13 33 55
f 13 55 54
f 13 54 53
f 13 53 42
f 13 42 50
f 13 50 35
f 13 35 36
f 14 37 38
f 14 38 25
f 15 30 16
f 16 30 39
f 16 39 17
f 17 32 18
f 17 39 40
f 17 40 41
f 17 41 42
f 17 42 43
f 17 43 32
f 19 26 20
f 20 26 44
f 20 44 45
f 20 45 46
f 20 46 21
f 21 46 22
f 22 46 23
f 23 27 24
f 23 46 47
f 23 47 27
f 25 38 48
f 25 48 26
f 26 48 49
f 26 49 44
f 27 47 28
f 28 47 50
f 28 50 31
f 29 40 30
f 29 31 51
f 29 51 40
f 30 40 39
f 31 50 42
f 31 42 52
f 31 52 51
f 32 43 42
f 32 42 53
f 32 53 54
f 32 54 55
f 32 55 33
f 35 50 47
f 35 47 46
f 35 46 56
f 35 56 57
f 35 57 38
f 35 38 36
f 36 38 58
f 37 59 38
f 38 59 60
f 38 60 61
f 38 61 62
f 38 62 58
f 38 57 63
f 38 63 48
f 40 51 41
f 41 51 52
f 41 52 42
f 44 49 63
f 44 63 45
f 45 63 57
f 45 57 56
f 45 56 46
f 48 63 49

