# https://github.com/mikedh/trimesh
v 0.02182301 -0.01031094 -0.01673280
v 0.02181922 -0.01069976 -0.01679365
v 0.02179651 -0.00981761 -0.01675453
v 0.02181316 -0.00918797 -0.01615180
v 0.02181771 -0.01195644 -0.01589680
v 0.02181771 -0.01215766 -0.01599967
v 0.02181392 -0.01096330 -0.01676468
v 0.02159289 -0.01069976 -0.01684726
v 0.02159289 -0.01031094 -0.01686320
v 0.02161484 -0.00993640 -0.01677192
v 0.02149902 -0.00981631 -0.01666325
v 0.02176623 -0.00930741 -0.01636479
v 0.02153309 -0.00918797 -0.01614166
v 0.02180181 -0.00918797 -0.01589391
v 0.02180332 -0.01247183 -0.01558964
v 0.01986776 -0.01445423 -0.01594462
v 0.02180030 -0.01169809 -0.01635465
v 0.01964749 -0.01451005 -0.01602720
v 0.01925765 -0.01452823 -0.01602720
v 0.01886857 -0.01450031 -0.01599822
v 0.01848025 -0.01444903 -0.01597070
v 0.01825164 -0.01439840 -0.01595476
v 0.02134082 -0.01031094 -0.01678931
v 0.02138245 -0.01007596 -0.01674584
v 0.02136504 -0.00965079 -0.01640391
v 0.02146799 -0.00939179 -0.01629814
v 0.02133022 -0.00921264 -0.01598518
v 0.02096385 -0.00918797 -0.01529987
v 0.01830615 -0.00918797 -0.00206300
v 0.01872021 -0.00920160 -0.00206300
v 0.01868690 -0.00942555 -0.00206300
v 0.01844618 -0.01069976 -0.00206300
v 0.01833567 -0.01098861 -0.00206300
v 0.01795643 -0.01178377 -0.00206300
v 0.01783986 -0.01197916 -0.00206300
v 0.01625023 -0.01454510 -0.00206300
v 0.01602768 -0.01486901 -0.00206300
v 0.01584677 -0.01504427 -0.00206300
v 0.01563027 -0.01522148 -0.00206300
v 0.01663552 -0.01581931 -0.00992022
v 0.01787165 -0.01581931 -0.01556067
v 0.01770284 -0.01458924 -0.01573453
v 0.01765364 -0.01578815 -0.01553169
v 0.01754767 -0.01548697 -0.01554763
v 0.01749089 -0.01437374 -0.01558819
v 0.01707154 -0.01434063 -0.01486811
v 0.02080489 -0.00918797 -0.01497822
v 0.01845073 -0.00918797 -0.00491003
v 0.01408985 -0.01581931 -0.00206300
v 0.01481124 -0.01581931 -0.00206300
v 0.01624720 -0.01581931 -0.01484637
v 0.01750149 -0.01522667 -0.01556936
v 0.01748711 -0.01497871 -0.01559254
v 0.01747803 -0.01458924 -0.01560703
v 0.01632441 -0.01553175 -0.01480001
v 0.01673015 -0.01478333 -0.01478407
v 0.02007290 -0.00918797 -0.01303239
v 0.01848025 -0.00918797 -0.00527659
v 0.01630322 -0.01549476 -0.01458847
v 0.01613668 -0.01581931 -0.01458847
v 0.01854913 -0.00918797 -0.00568807
v 0.01864678 -0.00918797 -0.00625168
v 0.01939845 -0.00918797 -0.01029403
v 0.01948625 -0.00918797 -0.01069102
f 1 2 3
f 1 3 4
f 1 4 5
f 1 5 6
f 1 6 2
f 2 7 8
f 2 8 9
f 2 9 3
f 2 6 7
f 3 9 10
f 3 10 11
f 3 11 12
f 3 12 4
f 4 12 13
f 4 13 28
f 4 28 47
f 4 47 57
f 4 57 64
f 4 64 63
f 4 63 62
f 4 62 61
f 4 61 58
f 4 58 48
f 4 48 29
f 4 29 14
f 4 14 5
f 5 14 15
f 5 15 6
f 6 15 16
f 6 16 17
f 6 17 7
f 7 17 16
f 7 16 18
f 7 18 8
f 8 18 19
f 8 19 20
f 8 20 21
f 8 21 22
f 8 22 9
f 9 22 23
f 9 23 24
f 9 24 10
f 10 24 11
f 11 25 26
f 11 26 12
f 11 24 25
f 12 26 13
f 13 26 27
f 13 27 28
f 14 29 30
f 14 30 15
f 15 30 31
f 15 31 32
f 15 32 33
f 15 33 34
f 15 34 35
f 15 35 36
f 15 36 37
f 15 37 16
f 16 37 38
f 16 38 39
f 16 39 40
f 16 40 41
f 16 41 18
f 18 41 19
f 19 41 20
f 20 41 21
f 21 41 22
f 22 42 23
f 22 41 43
f 22 43 44
f 22 44 42
f 23 42 45
f 23 45 24
f 24 45 25
f 25 45 27
f 25 27 26
f 27 45 46
f 27 46 28
f 28 46 47
f 29 48 49
f 29 49 50
f 29 50 39
f 29 39 38
f 29 38 37
f 29 37 36
f 29 36 35
f 29 35 34
f 29 34 33
f 29 33 32
f 29 32 31
f 29 31 30
f 39 50 40
f 40 50 49
f 40 49 60
f 40 60 51
f 40 51 41
f 41 51 43
f 42 52 53
f 42 53 54
f 42 54 45
f 42 44 52
f 43 51 44
f 44 51 52
f 45 54 51
f 45 51 55
f 45 55 56
f 45 56 46
f 46 56 57
f 46 57 47
f 48 58 49
f 49 58 56
f 49 56 59
f 49 59 60
f 51 60 55
f 51 54 53
f 51 53 52
f 55 60 59
f 55 59 56
f 56 58 61
f 56 61 62
f 56 62 63
f 56 63 64
f 56 64 57

