# https://github.com/mikedh/trimesh
v -0.01777508 0.01635198 -0.01680118
v -0.01777508 0.01851051 -0.01658292
v -0.01777508 0.01630964 -0.01641161
v -0.02075920 0.01425541 -0.01667734
v -0.02104620 0.01434009 -0.01675783
v -0.02081682 0.01456873 -0.01677692
v -0.02068939 0.01488830 -0.01677950
v -0.02033535 0.01528408 -0.01677950
v -0.01995250 0.01568254 -0.01677796
v -0.01809255 0.01642775 -0.01679395
v -0.01777508 0.01877927 -0.01636001
v -0.01957187 0.01605381 -0.01677538
v -0.01937019 0.01872756 -0.01636672
v -0.01887099 0.01877793 -0.01640232
v -0.01848094 0.01879888 -0.01642760
v -0.01777508 0.01655834 -0.01613865
v -0.02061847 0.01478133 -0.01283379
v -0.02103345 0.01442611 -0.01249427
v -0.02104287 0.01429909 -0.01269241
v -0.02140633 0.01426922 -0.01241842
v -0.02159748 0.01425541 -0.01263204
v -0.02128111 0.01425541 -0.01647508
v -0.02335714 0.01600255 -0.01477801
v -0.02341199 0.01876144 -0.01401023
v -0.01777508 0.01848065 -0.01615465
v -0.01809255 0.01880467 -0.01634247
v -0.02156700 0.01878328 -0.01380332
v -0.02136256 0.01871553 -0.01370941
v -0.02140190 0.01713329 -0.01165219
v -0.02130771 0.01692382 -0.01157170
v -0.01962616 0.01876144 -0.01613607
v -0.02314937 0.01880601 -0.01400971
v -0.01777508 0.01685250 -0.01599934
v -0.02094093 0.01468551 -0.01237560
v -0.02117806 0.01456873 -0.01224144
v -0.02139081 0.01471136 -0.01201183
v -0.02159803 0.01460929 -0.01227240
v -0.02144567 0.01425541 -0.01615362
v -0.02340368 0.01667066 -0.01315318
v -0.02339426 0.01629137 -0.01390703
v -0.02332667 0.01597403 -0.01446790
v -0.02342640 0.01633995 -0.01420063
v -0.02340424 0.01639789 -0.01452105
v -0.02342307 0.01848065 -0.01397617
v -0.02342806 0.01770201 -0.01351385
v -0.02340036 0.01801890 -0.01356648
v -0.02157088 0.01690108 -0.01158253
v -0.02126283 0.01653472 -0.01153042
v -0.02275987 0.01880868 -0.01400610
v -0.02237149 0.01880734 -0.01388949
v -0.02198254 0.01880556 -0.01388794
v -0.02090491 0.01498012 -0.01233587
v -0.02108110 0.01498012 -0.01214134
v -0.02127557 0.01498012 -0.01195868
v -0.02139802 0.01565981 -0.01165787
v -0.02150938 0.01498012 -0.01195868
v -0.02301973 0.01668135 -0.01279251
v -0.02341809 0.01692382 -0.01314544
v -0.02342751 0.01660915 -0.01342356
v -0.02343526 0.01695323 -0.01344936
v -0.02338374 0.01719391 -0.01319343
v -0.02180469 0.01672503 -0.01165683
v -0.02160911 0.01655166 -0.01154951
v -0.02140134 0.01614696 -0.01158666
f 1 2 11
f 1 11 25
f 1 25 33
f 1 33 16
f 1 16 3
f 1 3 4
f 1 4 5
f 1 5 6
f 1 6 7
f 1 7 8
f 1 8 9
f 1 9 10
f 1 10 2
f 2 10 12
f 2 12 13
f 2 13 14
f 2 14 15
f 2 15 11
f 3 16 17
f 3 17 18
f 3 18 19
f 3 19 4
f 4 19 20
f 4 20 21
f 4 21 38
f 4 38 22
f 4 22 5
f 5 13 7
f 5 7 6
f 5 22 23
f 5 23 24
f 5 24 13
f 7 13 8
f 8 13 9
f 9 12 10
f 9 13 12
f 11 15 26
f 11 26 27
f 11 27 28
f 11 28 29
f 11 29 30
f 11 30 25
f 13 24 31
f 13 31 14
f 14 31 32
f 14 32 15
f 15 32 26
f 16 33 34
f 16 34 17
f 17 34 18
f 18 34 35
f 18 35 20
f 18 20 19
f 20 36 37
f 20 37 21
f 20 35 36
f 21 37 39
f 21 39 40
f 21 40 41
f 21 41 23
f 21 23 38
f 22 38 23
f 23 41 40
f 23 40 42
f 23 42 43
f 23 43 24
f 24 43 44
f 24 44 45
f 24 45 46
f 24 46 47
f 24 47 29
f 24 29 32
f 24 32 31
f 25 30 48
f 25 48 33
f 26 32 49
f 26 49 50
f 26 50 51
f 26 51 27
f 27 51 50
f 27 50 29
f 27 29 28
f 29 50 32
f 29 47 30
f 30 47 48
f 32 50 49
f 33 48 52
f 33 52 34
f 34 52 53
f 34 53 54
f 34 54 35
f 35 54 36
f 36 55 56
f 36 56 37
f 36 54 55
f 37 56 39
f 39 57 58
f 39 58 59
f 39 59 40
f 39 56 57
f 40 59 42
f 42 59 60
f 42 60 44
f 42 44 43
f 44 60 45
f 45 60 58
f 45 58 46
f 46 58 61
f 46 61 62
f 46 62 47
f 47 62 63
f 47 63 48
f 48 63 64
f 48 64 55
f 48 55 54
f 48 54 53
f 48 53 52
f 55 64 63
f 55 63 56
f 56 63 62
f 56 62 57
f 57 62 58
f 58 60 59
f 58 62 61

