# https://github.com/mikedh/trimesh
v 0.01767031 -0.00088653 -0.00205688
v 0.01765102 -0.00088653 -0.00165493
v 0.01750334 -0.00040914 -0.00146767
v 0.01748051 -0.00012127 -0.00206010
v 0.01806615 -0.00075400 -0.00206010
v 0.01870203 -0.00088653 0.01314460
v 0.01763580 -0.00088653 -0.00111576
v 0.01749624 -0.00044904 -0.00097209
v 0.01352414 0.01367043 0.00898950
v 0.01379158 0.01367043 0.00355752
v 0.01409252 0.01367043 -0.00206010
v 0.01686391 0.00560175 -0.00206010
v 0.01805092 0.00330741 0.01186611
v 0.01808188 0.00291837 0.01108804
v 0.01830314 0.00204766 0.01225515
v 0.01842088 0.00136221 0.01225515
v 0.01845894 0.00097317 0.01186611
v 0.01868426 -0.00069700 0.01225515
v 0.01870862 -0.00075827 0.01264418
v 0.01846300 0.00097317 0.01303322
v 0.01845082 0.00019509 0.01420033
v 0.01846909 -0.00017115 0.01437306
v 0.01853303 -0.00088653 0.01443117
v 0.01763275 -0.00088653 -0.00058306
v 0.01766472 -0.00088653 0.00291827
v 0.01767234 -0.00088653 0.00330731
v 0.01768401 -0.00088653 0.00373993
v 0.01371394 0.01367043 0.01443117
v 0.01464112 0.01357210 -0.00206010
v 0.01444015 0.01355072 0.01293959
v 0.01635135 0.00822244 -0.00206010
v 0.01807122 0.00330741 0.01225515
v 0.01609304 0.00953064 -0.00206010
v 0.01807731 0.00330741 0.01283789
v 0.01842951 0.00136221 0.01264418
v 0.01847975 0.00097317 0.01244886
v 0.01840362 0.00136221 0.01303322
v 0.01805194 0.00295827 0.01431494
v 0.01795805 0.00345419 0.01431494
v 0.01598444 0.01025742 0.01429719
v 0.01563579 0.01107255 0.01431172
v 0.01811994 -0.00088653 0.01443117
v 0.01786924 -0.00088653 0.00874575
v 0.01485781 0.01259166 0.01431494
v 0.01434627 0.01351937 0.01431494
v 0.01488319 0.01314458 -0.00206010
v 0.01478778 0.01304340 0.01303322
v 0.01485528 0.01294935 0.01264418
v 0.01565558 0.01153569 0.01280400
v 0.01443660 0.01352365 0.01342226
v 0.01599306 0.01000518 -0.00206010
v 0.01798952 0.00369645 0.01264418
v 0.01830416 0.00205479 0.01279915
v 0.01794689 0.00382043 0.01303322
v 0.01805498 0.00330741 0.01342226
v 0.01637824 0.00947078 0.01303322
v 0.01597023 0.01085879 0.01311071
v 0.01600017 0.01041845 0.01385972
v 0.01471267 0.01309898 0.01342226
v 0.01441478 0.01351082 0.01381129
v 0.01514049 0.01255603 -0.00206010
v 0.01599408 0.01087162 0.01264418
v 0.01566218 0.01121933 -0.00206010
v 0.01638992 0.00951211 0.01264418
f 1 2 3
f 1 3 4
f 1 4 5
f 1 5 6
f 1 6 23
f 1 23 42
f 1 42 43
f 1 43 27
f 1 27 26
f 1 26 25
f 1 25 24
f 1 24 7
f 1 7 2
f 2 7 8
f 2 8 3
f 3 8 9
f 3 9 10
f 3 10 11
f 3 11 4
f 4 11 29
f 4 29 46
f 4 46 61
f 4 61 63
f 4 63 51
f 4 51 33
f 4 33 31
f 4 31 12
f 4 12 5
f 5 12 13
f 5 13 14
f 5 14 15
f 5 15 16
f 5 16 17
f 5 17 18
f 5 18 19
f 5 19 6
f 6 20 21
f 6 21 22
f 6 22 23
f 6 19 20
f 7 24 8
f 8 24 25
f 8 25 9
f 9 25 26
f 9 26 27
f 9 27 28
f 9 28 11
f 9 11 10
f 11 28 30
f 11 30 29
f 12 31 13
f 13 32 15
f 13 15 14
f 13 31 33
f 13 33 32
f 15 32 34
f 15 34 35
f 15 35 16
f 16 35 36
f 16 36 17
f 17 36 19
f 17 19 18
f 19 36 35
f 19 35 20
f 20 37 38
f 20 38 21
f 20 35 37
f 21 38 22
f 22 38 23
f 23 38 39
f 23 39 40
f 23 40 41
f 23 41 28
f 23 28 42
f 27 43 28
f 28 43 42
f 28 41 44
f 28 44 45
f 28 45 30
f 29 30 47
f 29 47 48
f 29 48 49
f 29 49 46
f 30 45 50
f 30 50 47
f 32 33 51
f 32 51 52
f 32 52 34
f 34 53 35
f 34 52 54
f 34 54 55
f 34 55 53
f 35 53 55
f 35 55 37
f 37 55 38
f 38 55 39
f 39 55 54
f 39 54 56
f 39 56 57
f 39 57 58
f 39 58 40
f 40 58 57
f 40 57 41
f 41 57 44
f 44 57 49
f 44 49 59
f 44 59 45
f 45 59 60
f 45 60 50
f 46 49 62
f 46 62 61
f 47 49 48
f 47 50 60
f 47 60 59
f 47 59 49
f 49 57 62
f 51 63 52
f 52 64 54
f 52 63 64
f 54 64 56
f 56 64 57
f 57 64 62
f 61 62 63
f 62 64 63

