# https://github.com/mikedh/trimesh
v -0.00795240 -0.02042505 -0.00210092
v -0.00795240 -0.02041413 -0.00252942
v -0.01510659 -0.01652850 -0.00206010
v -0.00796480 -0.02083710 -0.00206010
v -0.00795240 -0.02192336 -0.00950654
v -0.00795240 -0.02040927 -0.00291858
v -0.00795240 -0.02041898 -0.00330774
v -0.01539852 -0.01652850 -0.00445917
v -0.01718961 -0.01652850 -0.00875592
v -0.01567806 -0.01653274 -0.00206010
v -0.00836720 -0.02082557 -0.00206010
v -0.01536696 -0.02232569 -0.01547943
v -0.00795240 -0.02264732 -0.01462096
v -0.00795240 -0.02044993 -0.00371001
v -0.01545376 -0.01652850 -0.00486436
v -0.01769458 -0.01652850 -0.01263437
v -0.01946650 -0.02025149 -0.01671832
v -0.01754241 -0.02064837 -0.01314158
v -0.01553378 -0.01670387 -0.00206010
v -0.00871550 -0.02080312 -0.00206010
v -0.01561381 -0.02227715 -0.01550713
v -0.01536696 -0.02232569 -0.01568057
v -0.00795240 -0.02272803 -0.01613240
v -0.00795240 -0.02270679 -0.01534097
v -0.00795240 -0.02269284 -0.01496493
v -0.00910437 -0.02077156 -0.00206010
v -0.00949325 -0.02073090 -0.00206010
v -0.00980209 -0.02066840 -0.00206010
v -0.00795240 -0.02049181 -0.00411083
v -0.01757059 -0.01652850 -0.01657403
v -0.01552139 -0.01652850 -0.00525352
v -0.01812742 -0.01652850 -0.01655216
v -0.01809360 -0.01652850 -0.01690343
v -0.01925685 -0.02014166 -0.01677079
v -0.01925685 -0.02031521 -0.01677079
v -0.01561381 -0.02227715 -0.01563539
v -0.01757510 -0.02106588 -0.01458889
v -0.01754241 -0.02103736 -0.01430905
v -0.01002753 -0.02056888 -0.00206010
v -0.01371565 -0.01833083 -0.00206010
v -0.01389036 -0.01819914 -0.00206010
v -0.01411805 -0.01802437 -0.00206010
v -0.01433785 -0.01784838 -0.00206010
v -0.01452834 -0.01769364 -0.00206010
v -0.01476618 -0.01748853 -0.00206010
v -0.01494765 -0.01731436 -0.00206010
v -0.01515618 -0.01710439 -0.00206010
v -0.01535907 -0.01689078 -0.00206010
v -0.00795240 -0.02272379 -0.01652156
v -0.01210942 -0.02225955 -0.01675330
v -0.00796480 -0.02264065 -0.01677516
v -0.00795240 -0.02053428 -0.00449270
v -0.00815529 -0.02216731 -0.01674018
v -0.01774756 -0.01652850 -0.01680577
v -0.00795240 -0.02058223 -0.00490080
v -0.00795240 -0.02061803 -0.00515441
v -0.00795240 -0.02238881 -0.01677662
v -0.01731247 -0.01809294 -0.01695007
v -0.01186821 -0.02226562 -0.01676496
v -0.01731247 -0.01848193 -0.01692966
v -0.01149399 -0.02198222 -0.01679703
v -0.00875608 -0.02226016 -0.01679411
v -0.00795240 -0.02226683 -0.01654488
v -0.00875608 -0.02207992 -0.01679411
f 1 2 3
f 1 3 4
f 1 4 5
f 1 5 13
f 1 13 25
f 1 25 24
f 1 24 23
f 1 23 49
f 1 49 57
f 1 57 63
f 1 63 56
f 1 56 55
f 1 55 52
f 1 52 29
f 1 29 14
f 1 14 7
f 1 7 6
f 1 6 2
f 2 6 3
f 3 6 7
f 3 7 8
f 3 8 15
f 3 15 31
f 3 31 30
f 3 30 54
f 3 54 33
f 3 33 32
f 3 32 16
f 3 16 9
f 3 9 10
f 3 10 19
f 3 19 48
f 3 48 47
f 3 47 46
f 3 46 45
f 3 45 44
f 3 44 43
f 3 43 42
f 3 42 41
f 3 41 40
f 3 40 39
f 3 39 28
f 3 28 27
f 3 27 26
f 3 26 20
f 3 20 11
f 3 11 4
f 4 11 5
f 5 12 13
f 5 11 12
f 7 14 15
f 7 15 8
f 9 16 17
f 9 17 10
f 10 17 18
f 10 18 19
f 11 20 12
f 12 21 36
f 12 36 22
f 12 22 23
f 12 23 24
f 12 24 25
f 12 25 13
f 12 20 26
f 12 26 27
f 12 27 28
f 12 28 21
f 14 29 30
f 14 30 31
f 14 31 15
f 16 32 17
f 17 32 33
f 17 33 34
f 17 34 35
f 17 35 36
f 17 36 21
f 17 21 37
f 17 37 38
f 17 38 18
f 18 38 39
f 18 39 40
f 18 40 41
f 18 41 42
f 18 42 43
f 18 43 44
f 18 44 45
f 18 45 46
f 18 46 47
f 18 47 48
f 18 48 19
f 21 38 37
f 21 28 39
f 21 39 38
f 22 49 23
f 22 36 35
f 22 35 50
f 22 50 51
f 22 51 49
f 29 52 30
f 30 53 54
f 30 52 55
f 30 55 56
f 30 56 53
f 33 54 53
f 33 53 57
f 33 57 58
f 33 58 35
f 33 35 34
f 35 59 50
f 35 58 60
f 35 60 61
f 35 61 59
f 49 51 57
f 50 59 51
f 51 59 61
f 51 61 62
f 51 62 57
f 53 56 63
f 53 63 57
f 57 62 64
f 57 64 58
f 58 64 62
f 58 62 61
f 58 61 60

