# https://github.com/mikedh/trimesh
v -0.05468052 -0.02967306 -0.00021239
v -0.05455459 -0.02296267 0.00332428
v -0.05440505 -0.01319398 -0.00139607
v -0.05429880 -0.02249905 -0.00427634
v -0.05343696 -0.03522031 -0.00567522
v -0.05196515 -0.05091854 -0.00392841
v -0.05288995 -0.03992164 0.00466219
v -0.04964724 -0.03149503 0.01162434
v -0.05010373 -0.02002637 0.01193998
v -0.05311426 -0.01508916 0.00652737
v -0.05127646 -0.00694723 0.00874765
v -0.05242164 -0.00623145 -0.00413645
v -0.05187463 -0.01437338 -0.00858060
v -0.04979285 -0.02124644 -0.01276292
v -0.05021393 -0.04145893 -0.01106632
v -0.04756545 -0.06028054 -0.00978938
v -0.04740410 -0.06634022 0.00064487
v -0.05145355 -0.04755115 0.00523609
v -0.04861225 -0.05651459 0.00661345
v -0.04582997 -0.04512727 0.01228791
v -0.04251249 -0.03521218 0.01506416
v -0.04265810 -0.01904218 0.01635903
v -0.04431487 -0.00718311 0.01587839
v -0.01961675 -0.00497071 0.01261073
v -0.03180446 -0.00497071 -0.01768412
v -0.04714437 -0.00831370 -0.01430886
v -0.04860831 -0.02915250 -0.01447386
v -0.04754971 -0.05030037 -0.01334040
v -0.04347664 -0.07130997 -0.01039198
v -0.03996240 -0.08211165 -0.00623837
v -0.03809705 -0.08193271 0.00221234
v -0.04172149 -0.07448215 0.00455099
v -0.04127286 -0.06435557 0.00946862
v -0.03508653 -0.05950782 0.01230585
v -0.03595230 -0.02477651 0.01697597
v -0.03457887 -0.04733967 0.01445081
v -0.03302441 -0.00677642 0.01799824
v -0.01447721 -0.00497071 0.00213702
v -0.03244199 -0.03394330 0.01609360
v -0.02837286 -0.05396871 0.01273986
v -0.02393774 -0.06313550 0.00871178
v -0.02141520 -0.07428694 0.00363992
v -0.01829055 -0.06468092 0.00117215
v -0.02245019 -0.00497071 -0.01416897
v -0.02481138 -0.05925568 -0.01565036
v -0.03283158 -0.05573375 -0.01815401
v -0.03490550 -0.04693298 -0.01864541
v -0.03945080 -0.01072944 -0.01841944
v -0.04251249 -0.03704228 -0.01825803
v -0.04281551 -0.05305772 -0.01652556
v -0.03465364 -0.07989112 -0.01419050
v -0.03092688 -0.08632496 -0.01117034
v -0.03537774 -0.08806559 -0.00269093
v -0.02799900 -0.08215232 0.00437165
v -0.03054516 -0.07523046 0.00804821
v -0.03089147 -0.06696652 0.01079935
v -0.01876672 -0.07241616 -0.00673336
v -0.01875098 -0.06333071 -0.00943428
v -0.01591361 -0.00497071 -0.00675488
v -0.02480745 -0.08694313 -0.00304603
v -0.02115153 -0.08057436 -0.00908277
v -0.02760153 -0.07706056 -0.01473570
v -0.03751856 -0.06332258 -0.01716044
v -0.04031657 -0.02176700 -0.01853422
f 1 2 3
f 1 3 4
f 1 4 5
f 1 5 6
f 1 6 7
f 1 7 2
f 2 7 8
f 2 8 9
f 2 9 10
f 2 10 3
f 3 10 11
f 3 11 12
f 3 12 13
f 3 13 4
f 4 14 5
f 4 13 14
f 5 14 15
f 5 15 6
f 6 16 17
f 6 17 18
f 6 18 7
f 6 15 16
f 7 18 8
f 8 18 19
f 8 19 20
f 8 20 21
f 8 21 22
f 8 22 9
f 9 22 23
f 9 23 11
f 9 11 10
f 11 24 12
f 11 23 24
f 12 24 25
f 12 25 26
f 12 26 13
f 13 26 14
f 14 27 15
f 14 26 27
f 15 27 28
f 15 28 16
f 16 28 29
f 16 29 17
f 17 29 30
f 17 30 31
f 17 31 32
f 17 32 19
f 17 19 18
f 19 32 33
f 19 33 20
f 20 33 34
f 20 34 21
f 21 35 22
f 21 34 36
f 21 36 35
f 22 37 23
f 22 35 37
f 23 37 24
f 24 38 59
f 24 59 44
f 24 44 25
f 24 37 39
f 24 39 40
f 24 40 41
f 24 41 42
f 24 42 43
f 24 43 38
f 25 44 45
f 25 45 46
f 25 46 47
f 25 47 48
f 25 48 26
f 26 48 49
f 26 49 27
f 27 49 28
f 28 50 29
f 28 49 50
f 29 51 30
f 29 50 51
f 30 51 52
f 30 52 53
f 30 53 31
f 31 53 54
f 31 54 55
f 31 55 32
f 32 55 33
f 33 55 56
f 33 56 34
f 34 56 36
f 35 36 39
f 35 39 37
f 36 56 40
f 36 40 39
f 38 57 58
f 38 58 59
f 38 43 57
f 40 56 41
f 41 56 55
f 41 55 42
f 42 55 54
f 42 54 60
f 42 60 61
f 42 61 57
f 42 57 43
f 44 59 58
f 44 58 45
f 45 58 61
f 45 61 62
f 45 62 46
f 46 62 63
f 46 63 47
f 47 49 64
f 47 64 48
f 47 63 49
f 48 64 49
f 49 63 50
f 50 63 51
f 51 63 62
f 51 62 52
f 52 60 53
f 52 62 61
f 52 61 60
f 53 60 54
f 57 61 58

