# https://github.com/mikedh/trimesh
v 0.03070148 0.07088847 -0.00831208
v 0.03070148 0.07106955 -0.00643939
v 0.03070148 0.07089524 -0.00969459
v 0.03835375 0.07568793 -0.01241115
v 0.03070148 0.07137586 -0.00497429
v 0.03835375 0.07582162 -0.01104300
v 0.03070148 0.07107463 -0.01115073
v 0.03835375 0.07597731 -0.01390139
v 0.03835375 0.07616347 -0.00957789
v 0.03835375 0.07665594 -0.00817742
v 0.03070148 0.07184633 -0.00367077
v 0.03070148 0.07154171 -0.01245604
v 0.03070148 0.07232357 -0.01371646
v 0.03835375 0.07695210 -0.01514387
v 0.03835375 0.07735995 -0.00659560
v 0.03070148 0.07272126 -0.00198482
v 0.03070148 0.07370620 -0.01476143
v 0.03835375 0.07807242 -0.01574535
v 0.03835375 0.07808596 -0.00525977
v 0.03070148 0.07359282 -0.00073157
v 0.03070148 0.07509053 -0.01533778
v 0.03835375 0.07957183 -0.01635222
v 0.03835375 0.07880351 -0.00424712
v 0.03070148 0.07430190 0.00005484
v 0.03070148 0.07658486 -0.01575253
v 0.03835375 0.08104247 -0.01684777
v 0.03835375 0.07983583 -0.00358818
v 0.03070148 0.07509223 0.00070840
v 0.03070148 0.07807242 -0.01606135
v 0.03835375 0.08253003 -0.01705246
v 0.03070148 0.07973260 -0.01632170
v 0.03835375 0.08126078 -0.00339606
v 0.03070148 0.07642917 0.00129013
v 0.03070148 0.08102724 -0.01642045
v 0.03070148 0.08227448 -0.01622474
v 0.03835375 0.08370958 -0.01675441
v 0.03835375 0.08268742 -0.00378748
v 0.03070148 0.07794211 0.00125781
v 0.03070148 0.08381451 -0.01530905
v 0.03835375 0.08522761 -0.01588899
v 0.03070148 0.07962091 0.00067787
v 0.03835375 0.08428836 -0.00446796
v 0.03835375 0.08638008 -0.01498407
v 0.03070148 0.08455913 -0.01468602
v 0.03070148 0.08104247 -0.00003493
v 0.03835375 0.08563715 -0.00520231
v 0.03070148 0.08259772 -0.00083751
v 0.03070148 0.08536130 -0.01392474
v 0.03835375 0.08711117 -0.01423535
v 0.03835375 0.08654086 -0.00588998
v 0.03070148 0.08557115 -0.00272096
v 0.03070148 0.08401759 -0.00165984
v 0.03070148 0.08634962 -0.01288336
v 0.03835375 0.08791334 -0.01307727
v 0.03835375 0.08715856 -0.00685415
v 0.03070148 0.08638685 -0.00367616
v 0.03070148 0.08720763 -0.01126204
v 0.03813578 0.08817734 -0.01126025
v 0.03835375 0.08802503 -0.00983105
v 0.03835375 0.08766964 -0.00818998
v 0.03070148 0.08700286 -0.00530645
v 0.03070148 0.08737518 -0.00977180
v 0.03070148 0.08732102 -0.00839287
v 0.03070148 0.08720933 -0.00680208
f 1 2 5
f 1 5 11
f 1 11 16
f 1 16 20
f 1 20 24
f 1 24 28
f 1 28 33
f 1 33 38
f 1 38 41
f 1 41 45
f 1 45 47
f 1 47 52
f 1 52 51
f 1 51 56
f 1 56 61
f 1 61 64
f 1 64 63
f 1 63 62
f 1 62 57
f 1 57 53
f 1 53 48
f 1 48 44
f 1 44 39
f 1 39 35
f 1 35 34
f 1 34 31
f 1 31 29
f 1 29 25
f 1 25 21
f 1 21 17
f 1 17 13
f 1 13 12
f 1 12 7
f 1 7 3
f 1 3 4
f 1 4 2
f 2 4 6
f 2 6 5
f 3 7 4
f 4 7 8
f 4 8 14
f 4 14 18
f 4 18 22
f 4 22 26
f 4 26 30
f 4 30 36
f 4 36 40
f 4 40 43
f 4 43 49
f 4 49 54
f 4 54 59
f 4 59 60
f 4 60 55
f 4 55 50
f 4 50 46
f 4 46 42
f 4 42 37
f 4 37 32
f 4 32 27
f 4 27 23
f 4 23 19
f 4 19 15
f 4 15 10
f 4 10 9
f 4 9 6
f 5 6 9
f 5 9 10
f 5 10 11
f 7 12 8
f 8 12 13
f 8 13 14
f 10 15 11
f 11 15 16
f 13 17 14
f 14 17 18
f 15 19 16
f 16 19 20
f 17 21 18
f 18 21 22
f 19 23 20
f 20 23 24
f 21 25 26
f 21 26 22
f 23 27 28
f 23 28 24
f 25 29 26
f 26 29 31
f 26 31 30
f 27 32 33
f 27 33 28
f 30 31 34
f 30 34 35
f 30 35 36
f 32 37 38
f 32 38 33
f 35 39 40
f 35 40 36
f 37 41 38
f 37 42 41
f 39 43 40
f 39 44 43
f 41 42 45
f 42 46 47
f 42 47 45
f 43 44 48
f 43 48 49
f 46 50 51
f 46 51 52
f 46 52 47
f 48 53 49
f 49 53 54
f 50 55 56
f 50 56 51
f 53 57 54
f 54 57 58
f 54 58 59
f 55 60 56
f 56 60 61
f 57 62 58
f 58 62 63
f 58 63 64
f 58 64 59
f 59 64 61
f 59 61 60

