# https://github.com/mikedh/trimesh
v 0.06504104 -0.02719064 0.00505861
v 0.06432980 -0.02719064 0.00392337
v 0.06334004 -0.02719064 0.00505861
v 0.06505382 -0.02755510 0.00505861
v 0.06268149 -0.02719064 0.00152513
v 0.06388509 -0.03608060 0.00325346
v 0.06295576 -0.02719064 0.00449180
v 0.06230922 -0.02791395 0.00376327
v 0.06222787 -0.02874286 0.00388334
v 0.06283644 -0.02996612 0.00505861
v 0.06504569 -0.02786255 0.00505861
v 0.06251453 -0.02719064 0.00136503
v 0.06239831 -0.03438167 0.00116895
v 0.06239831 -0.03417234 0.00116895
v 0.06442277 -0.03485172 0.00505861
v 0.06414115 -0.03616844 0.00505861
v 0.06372936 -0.03673662 0.00342407
v 0.06341364 -0.03608060 0.00264218
v 0.06502283 -0.02832793 0.00505861
v 0.06201054 -0.02719064 0.00306345
v 0.06198924 -0.02751211 0.00313137
v 0.06133185 -0.02751959 0.00200987
v 0.06176688 -0.02874286 0.00305738
v 0.06113390 -0.03172954 0.00247642
v 0.06219339 -0.02996612 0.00400504
v 0.06276594 -0.03118939 0.00505861
v 0.06217673 -0.02719064 0.00114631
v 0.06176610 -0.03440222 0.00108203
v 0.06171110 -0.02719064 0.00092840
v 0.06280235 -0.03608060 0.00207739
v 0.06262842 -0.03673662 0.00229975
v 0.06389167 -0.03616844 0.00505861
v 0.06372936 -0.03673662 0.00388011
v 0.06153058 -0.02719064 0.00224234
v 0.06136516 -0.02719064 0.00195084
v 0.06109632 -0.02719064 0.00138039
v 0.06113234 -0.03241173 0.00247925
v 0.06270473 -0.03363406 0.00505861
v 0.06230069 -0.03673662 0.00229975
v 0.06111724 -0.03431905 0.00108931
v 0.06109748 -0.02719064 0.00099551
v 0.06352792 -0.03673662 0.00388011
v 0.06336444 -0.03600397 0.00505861
v 0.06109632 -0.02719064 0.00121302
v 0.06111724 -0.03431905 0.00136220
v 0.06114551 -0.03306495 0.00245984
v 0.06277601 -0.03412281 0.00505861
v 0.06230069 -0.03673662 0.00252251
v 0.06212443 -0.03608060 0.00279460
v 0.06289610 -0.03489284 0.00505861
v 0.06126909 -0.03388077 0.00217765
v 0.06198459 -0.03495358 0.00316816
f 1 2 5
f 1 5 12
f 1 12 27
f 1 27 29
f 1 29 41
f 1 41 44
f 1 44 36
f 1 36 35
f 1 35 34
f 1 34 20
f 1 20 7
f 1 7 3
f 1 3 10
f 1 10 26
f 1 26 38
f 1 38 47
f 1 47 50
f 1 50 43
f 1 43 32
f 1 32 16
f 1 16 15
f 1 15 19
f 1 19 11
f 1 11 4
f 1 4 2
f 2 4 6
f 2 6 5
f 3 7 8
f 3 8 9
f 3 9 10
f 4 11 6
f 5 6 13
f 5 13 14
f 5 14 12
f 6 15 16
f 6 16 17
f 6 17 18
f 6 18 13
f 6 11 19
f 6 19 15
f 7 20 8
f 8 20 21
f 8 21 9
f 9 21 22
f 9 22 23
f 9 23 24
f 9 24 25
f 9 25 10
f 10 25 24
f 10 24 26
f 12 14 27
f 13 28 29
f 13 29 14
f 13 18 30
f 13 30 31
f 13 31 28
f 14 29 27
f 16 32 42
f 16 42 33
f 16 33 17
f 17 33 42
f 17 42 48
f 17 48 39
f 17 39 31
f 17 31 18
f 18 31 30
f 20 34 22
f 20 22 21
f 22 34 35
f 22 35 36
f 22 36 24
f 22 24 23
f 24 37 38
f 24 38 26
f 24 36 37
f 28 31 39
f 28 39 40
f 28 40 29
f 29 40 41
f 32 43 42
f 36 44 40
f 36 40 45
f 36 45 37
f 37 46 38
f 37 45 46
f 38 46 47
f 39 48 45
f 39 45 40
f 40 44 41
f 42 43 48
f 43 49 48
f 43 50 49
f 45 48 49
f 45 49 51
f 45 51 46
f 46 51 49
f 46 49 52
f 46 52 50
f 46 50 47
f 49 50 52

