# https://github.com/mikedh/trimesh
v 0.06270466 -0.03363478 0.00505892
v 0.06277605 -0.03412327 0.00505892
v 0.06353252 -0.03805058 0.00652275
v 0.06397607 -0.03730329 0.00815705
v 0.06287327 -0.03363478 0.00550419
v 0.06276593 -0.03118912 0.00505892
v 0.06289656 -0.03489320 0.00505892
v 0.06353252 -0.03805058 0.00598071
v 0.06429354 -0.03820586 0.00815705
v 0.06409506 -0.03485762 0.00815705
v 0.06330467 -0.03363478 0.00661253
v 0.06283681 -0.02996628 0.00505892
v 0.06336492 -0.03600389 0.00505892
v 0.06395581 -0.03805058 0.00598071
v 0.06389201 -0.03616780 0.00505892
v 0.06496798 -0.03820478 0.00815705
v 0.06417404 -0.03363047 0.00815705
v 0.06339480 -0.03118912 0.00638413
v 0.06350315 -0.02996628 0.00623490
v 0.06350315 -0.02719064 0.00535951
v 0.06304644 -0.02881030 0.00505892
v 0.06477152 -0.03787049 0.00617605
v 0.06488241 -0.03802469 0.00699108
v 0.06414164 -0.03616780 0.00505892
v 0.06764801 -0.03209815 0.00815705
v 0.06528849 -0.02719064 0.00815705
v 0.06391126 -0.02719064 0.00603561
v 0.06334062 -0.02719064 0.00505892
v 0.06490671 -0.03705527 0.00579902
v 0.06442316 -0.03485223 0.00505892
v 0.06786017 -0.03121499 0.00815705
v 0.06692395 -0.02719064 0.00815705
v 0.06504140 -0.02719064 0.00505892
v 0.06494874 -0.03608045 0.00568831
v 0.06787688 -0.03114167 0.00815705
v 0.06502317 -0.02832829 0.00505892
v 0.06682268 -0.02719064 0.00792380
v 0.06702015 -0.02751953 0.00815705
v 0.06522722 -0.02719064 0.00529793
v 0.06604901 -0.02812664 0.00611296
v 0.06504595 -0.02732112 0.00505892
v 0.06504595 -0.02786244 0.00505892
v 0.06604901 -0.02815359 0.00611296
v 0.06764548 -0.03003314 0.00815705
v 0.06626065 -0.02719064 0.00690251
v 0.06693003 -0.02751953 0.00794988
v 0.06630926 -0.02763923 0.00673386
v 0.06505406 -0.02755512 0.00505892
f 1 2 3
f 1 3 4
f 1 4 5
f 1 5 6
f 1 6 12
f 1 12 21
f 1 21 28
f 1 28 33
f 1 33 41
f 1 41 48
f 1 48 42
f 1 42 36
f 1 36 30
f 1 30 24
f 1 24 15
f 1 15 13
f 1 13 7
f 1 7 2
f 2 7 3
f 3 8 9
f 3 9 4
f 3 7 8
f 4 9 16
f 4 16 25
f 4 25 31
f 4 31 35
f 4 35 44
f 4 44 38
f 4 38 32
f 4 32 26
f 4 26 17
f 4 17 10
f 4 10 11
f 4 11 5
f 5 11 6
f 6 11 12
f 7 13 8
f 8 14 9
f 8 13 15
f 8 15 24
f 8 24 14
f 9 14 16
f 10 17 11
f 11 17 18
f 11 18 12
f 12 19 20
f 12 20 21
f 12 18 19
f 14 22 23
f 14 23 16
f 14 24 22
f 16 23 25
f 17 26 19
f 17 19 18
f 19 26 27
f 19 27 20
f 20 27 26
f 20 26 32
f 20 32 37
f 20 37 45
f 20 45 39
f 20 39 33
f 20 33 28
f 20 28 21
f 22 24 29
f 22 29 25
f 22 25 23
f 24 30 29
f 25 29 31
f 29 30 34
f 29 34 35
f 29 35 31
f 30 36 34
f 32 38 37
f 33 39 40
f 33 40 41
f 34 36 35
f 35 36 42
f 35 42 43
f 35 43 40
f 35 40 44
f 37 38 46
f 37 46 47
f 37 47 45
f 38 44 46
f 39 45 47
f 39 47 40
f 40 43 48
f 40 48 41
f 40 47 44
f 42 48 43
f 44 47 46

