# https://github.com/mikedh/trimesh
v 0.06988898 -0.04499089 -0.00439498
v 0.06913641 -0.04499089 -0.00393719
v 0.06985773 -0.04548572 -0.00460099
v 0.06985838 -0.04802253 -0.00708800
v 0.06985838 -0.04756154 -0.00745822
v 0.06985773 -0.04741382 -0.00757764
v 0.06985903 -0.04499089 -0.00518617
v 0.06910190 -0.04499089 -0.00393321
v 0.06910320 -0.04966298 -0.00840864
v 0.06947623 -0.04966298 -0.00846935
v 0.06984341 -0.04932776 -0.00825140
v 0.06984341 -0.04869938 -0.00875597
v 0.06961621 -0.04534257 -0.00603209
v 0.06985252 -0.04615800 -0.00639833
v 0.06985513 -0.04499683 -0.00521304
v 0.06938835 -0.04499089 -0.00578628
v 0.06802707 -0.04499089 -0.00447360
v 0.06476613 -0.04650191 -0.00731392
v 0.06791836 -0.04966298 -0.00904657
v 0.06983169 -0.04966298 -0.00906946
v 0.06983104 -0.04966298 -0.00909135
v 0.06965917 -0.04966298 -0.00982482
v 0.06880113 -0.04508053 -0.00628885
v 0.06955957 -0.04659932 -0.00721439
v 0.06898797 -0.04966298 -0.01043587
v 0.06830636 -0.04966298 -0.01094542
v 0.06366917 -0.04765941 -0.01227202
v 0.06887209 -0.04499089 -0.00613758
v 0.06783047 -0.04499089 -0.00457412
v 0.06430000 -0.04677996 -0.00794189
v 0.06532080 -0.04966298 -0.01064586
v 0.06545166 -0.04966298 -0.01056425
v 0.06779010 -0.04966298 -0.00911623
v 0.06499008 -0.04510796 -0.00618933
v 0.06344131 -0.04663271 -0.00834296
v 0.06907195 -0.04966298 -0.01036521
v 0.06870543 -0.04499089 -0.00624905
v 0.06788059 -0.04966298 -0.01123303
v 0.06773932 -0.04966298 -0.01132558
v 0.06323820 -0.04955642 -0.01402557
v 0.06323820 -0.04889924 -0.01347124
v 0.06355068 -0.04765941 -0.01227202
v 0.06407085 -0.04499089 -0.00889629
v 0.06510466 -0.04499089 -0.00607389
v 0.06409038 -0.04966298 -0.01156642
v 0.06478241 -0.04499089 -0.00633065
v 0.06323820 -0.04966024 -0.01236358
v 0.06411772 -0.04499089 -0.00696261
v 0.06372451 -0.04499089 -0.00738258
v 0.06367568 -0.04502564 -0.00745026
v 0.06336124 -0.04586668 -0.00817576
v 0.06323820 -0.04966298 -0.01410021
v 0.06323820 -0.04818946 -0.01264821
v 0.06336254 -0.04499089 -0.00886146
v 0.06366266 -0.04499089 -0.00889629
v 0.06323820 -0.04966298 -0.01268006
v 0.06323820 -0.04942791 -0.01219440
v 0.06365160 -0.04499089 -0.00748907
v 0.06338598 -0.04499089 -0.00797672
v 0.06337296 -0.04499089 -0.00825140
v 0.06331567 -0.04589869 -0.00914211
v 0.06323820 -0.04866966 -0.01182816
v 0.06323820 -0.04798640 -0.01226605
f 1 2 3
f 1 3 4
f 1 4 5
f 1 5 6
f 1 6 7
f 1 7 16
f 1 16 28
f 1 28 37
f 1 37 43
f 1 43 55
f 1 55 54
f 1 54 60
f 1 60 59
f 1 59 58
f 1 58 49
f 1 49 48
f 1 48 46
f 1 46 44
f 1 44 29
f 1 29 17
f 1 17 8
f 1 8 2
f 2 8 9
f 2 9 10
f 2 10 3
f 3 10 11
f 3 11 4
f 4 11 5
f 5 11 12
f 5 12 6
f 6 13 14
f 6 14 7
f 6 12 13
f 7 15 16
f 7 14 15
f 8 17 18
f 8 18 9
f 9 19 33
f 9 33 32
f 9 32 31
f 9 31 45
f 9 45 56
f 9 56 52
f 9 52 39
f 9 39 38
f 9 38 26
f 9 26 25
f 9 25 36
f 9 36 22
f 9 22 21
f 9 21 20
f 9 20 10
f 9 18 19
f 10 20 11
f 11 20 12
f 12 20 21
f 12 21 22
f 12 22 13
f 13 23 16
f 13 16 15
f 13 15 14
f 13 22 24
f 13 24 25
f 13 25 26
f 13 26 27
f 13 27 23
f 16 23 28
f 17 29 18
f 18 30 31
f 18 31 32
f 18 32 33
f 18 33 19
f 18 29 34
f 18 34 35
f 18 35 30
f 22 36 24
f 23 37 28
f 23 27 37
f 24 36 25
f 26 38 27
f 27 38 39
f 27 39 40
f 27 40 41
f 27 41 42
f 27 42 55
f 27 55 43
f 27 43 37
f 29 44 34
f 30 35 31
f 31 35 45
f 34 44 46
f 34 46 35
f 35 47 45
f 35 46 48
f 35 48 49
f 35 49 50
f 35 50 51
f 35 51 47
f 39 52 40
f 40 52 56
f 40 56 47
f 40 47 57
f 40 57 62
f 40 62 63
f 40 63 53
f 40 53 41
f 41 53 42
f 42 53 54
f 42 54 55
f 45 47 56
f 47 51 57
f 49 58 50
f 50 58 59
f 50 59 51
f 51 59 60
f 51 60 61
f 51 61 62
f 51 62 57
f 53 63 54
f 54 63 61
f 54 61 60
f 61 63 62

