# https://github.com/mikedh/trimesh
v 0.07139897 -0.04264902 0.00938415
v 0.07117006 -0.04252055 0.00938415
v 0.07136034 -0.04335406 0.00938415
v 0.07138975 -0.04434369 0.00428193
v 0.07138975 -0.04349297 0.00428193
v 0.07134074 -0.04334453 0.00309826
v 0.07113547 -0.04271448 0.00218768
v 0.06672794 -0.04120391 0.00938415
v 0.06741813 -0.04154199 0.00210819
v 0.07074857 -0.04358179 0.00938415
v 0.07093769 -0.04403143 0.00856093
v 0.07112221 -0.04408767 0.00794864
v 0.07132286 -0.04416482 0.00672561
v 0.07135804 -0.04426286 0.00550338
v 0.07032708 -0.04417065 0.00672561
v 0.07022848 -0.04431203 0.00431813
v 0.07043720 -0.04423243 0.00326983
v 0.07037608 -0.04421706 0.00310534
v 0.07131018 -0.04424442 0.00326983
v 0.07134823 -0.04342751 0.00326983
v 0.07129346 -0.04422352 0.00305891
v 0.07120870 -0.04341952 0.00218926
v 0.07023424 -0.04259862 0.00134400
v 0.06910353 -0.04213607 0.00134400
v 0.06551477 -0.04128690 0.00938415
v 0.06721920 -0.04154199 0.00210819
v 0.06837298 -0.04212716 0.00134400
v 0.07041760 -0.04366139 0.00938415
v 0.06970204 -0.04403358 0.00735365
v 0.07044758 -0.04407722 0.00783609
v 0.06931514 -0.04348037 0.00938415
v 0.06910353 -0.04349420 0.00917166
v 0.06553668 -0.04307592 0.00428193
v 0.06964381 -0.04408399 0.00354450
v 0.07010163 -0.04416727 0.00327062
v 0.06665990 -0.04335651 0.00672561
v 0.06665990 -0.04340999 0.00550338
v 0.06572350 -0.04295820 0.00352797
v 0.06910353 -0.04339647 0.00134400
v 0.07081661 -0.04407722 0.00236240
v 0.07110145 -0.04407722 0.00236240
v 0.07024232 -0.04331072 0.00134400
v 0.07024232 -0.04309835 0.00134400
v 0.06551477 -0.04198425 0.00938415
v 0.06550843 -0.04130472 0.00917166
v 0.06791516 -0.04221567 0.00134400
v 0.06572350 -0.04261306 0.00352797
v 0.06553668 -0.04248459 0.00428193
v 0.06788229 -0.04349052 0.00794864
v 0.06909027 -0.04343335 0.00938415
v 0.06784309 -0.04314107 0.00932041
v 0.06555168 -0.04308083 0.00550338
v 0.06550843 -0.04200883 0.00917166
v 0.06658437 -0.04310849 0.00800688
v 0.06568199 -0.04300246 0.00672561
v 0.06791516 -0.04255098 0.00134400
v 0.06805354 -0.04306362 0.00134400
v 0.06869934 -0.04327046 0.00134400
v 0.06986291 -0.04341060 0.00134400
v 0.06586477 -0.04291026 0.00763777
v 0.06612655 -0.04272370 0.00845311
v 0.06659301 -0.04258110 0.00938415
v 0.06717250 -0.04283312 0.00938415
v 0.06694186 -0.04296742 0.00890565
f 1 2 8
f 1 8 25
f 1 25 44
f 1 44 62
f 1 62 63
f 1 63 50
f 1 50 31
f 1 31 28
f 1 28 10
f 1 10 3
f 1 3 4
f 1 4 5
f 1 5 6
f 1 6 7
f 1 7 2
f 2 7 9
f 2 9 8
f 3 10 11
f 3 11 12
f 3 12 13
f 3 13 14
f 3 14 4
f 4 14 15
f 4 15 16
f 4 16 17
f 4 17 18
f 4 18 19
f 4 19 6
f 4 6 20
f 4 20 5
f 5 20 6
f 6 19 21
f 6 21 22
f 6 22 7
f 7 22 23
f 7 23 24
f 7 24 9
f 8 9 26
f 8 26 25
f 9 24 27
f 9 27 26
f 10 28 11
f 11 29 30
f 11 30 15
f 11 15 12
f 11 28 31
f 11 31 32
f 11 32 29
f 12 15 14
f 12 14 13
f 15 30 29
f 15 29 16
f 16 33 34
f 16 34 35
f 16 35 18
f 16 18 17
f 16 29 36
f 16 36 37
f 16 37 33
f 18 21 19
f 18 35 34
f 18 34 33
f 18 33 38
f 18 38 39
f 18 39 40
f 18 40 21
f 21 41 22
f 21 40 41
f 22 42 43
f 22 43 23
f 22 41 42
f 23 43 42
f 23 42 59
f 23 59 39
f 23 39 58
f 23 58 57
f 23 57 56
f 23 56 46
f 23 46 27
f 23 27 24
f 25 26 45
f 25 45 53
f 25 53 44
f 26 27 46
f 26 46 47
f 26 47 48
f 26 48 45
f 29 32 49
f 29 49 36
f 31 50 32
f 32 50 51
f 32 51 49
f 33 37 52
f 33 52 53
f 33 53 45
f 33 45 48
f 33 48 47
f 33 47 38
f 36 49 54
f 36 54 55
f 36 55 52
f 36 52 37
f 38 47 46
f 38 46 56
f 38 56 57
f 38 57 58
f 38 58 39
f 39 59 40
f 40 59 41
f 41 59 42
f 44 53 52
f 44 52 55
f 44 55 60
f 44 60 61
f 44 61 62
f 49 51 54
f 50 63 51
f 51 63 64
f 51 64 54
f 54 64 60
f 54 60 55
f 60 64 61
f 61 64 62
f 62 64 63

