# https://github.com/mikedh/trimesh
v 0.06329605 -0.02138605 0.00794459
v 0.06305289 -0.02018607 0.00794459
v 0.06450462 -0.02138605 0.00794459
v 0.06350674 -0.02138605 0.00903089
v 0.06305332 -0.02018093 0.00795035
v 0.06291443 -0.01896414 0.00794459
v 0.06469906 -0.02120629 0.00794459
v 0.06474222 -0.02138605 0.00794939
v 0.06524308 -0.02138605 0.01651099
v 0.06291614 -0.01895807 0.00795035
v 0.06322469 -0.01820866 0.00794459
v 0.06450291 -0.02018093 0.00794459
v 0.06491616 -0.01686860 0.00966248
v 0.06496872 -0.01773521 0.00952213
v 0.06728029 -0.01707592 0.01583518
v 0.06629908 -0.02138605 0.01275988
v 0.06578839 -0.02138605 0.01776553
v 0.06574437 -0.01895807 0.01765401
v 0.06577685 -0.01773521 0.01762229
v 0.06529821 -0.02018093 0.01651099
v 0.06467983 -0.01681444 0.01373083
v 0.06459180 -0.01666036 0.01284256
v 0.06322981 -0.01820353 0.00795035
v 0.06323281 -0.01820399 0.00794459
v 0.06450462 -0.01661647 0.01161975
v 0.06442898 -0.01665615 0.01039694
v 0.06425034 -0.01895854 0.00794459
v 0.06383324 -0.01820399 0.00794459
v 0.06455803 -0.01686860 0.00966248
v 0.06506573 -0.01665615 0.01039694
v 0.06637558 -0.01676168 0.01426917
v 0.06673327 -0.01679530 0.01537182
v 0.06728029 -0.01707592 0.01597745
v 0.06728029 -0.01715342 0.01583518
v 0.06645506 -0.02138605 0.01406537
v 0.06647430 -0.02138605 0.01776553
v 0.06643113 -0.01773521 0.01762229
v 0.06592942 -0.01688821 0.01742425
v 0.06576061 -0.01674907 0.01528818
v 0.06531958 -0.01666036 0.01284256
v 0.06518625 -0.01661647 0.01161975
v 0.06634310 -0.01688821 0.01742425
v 0.06671361 -0.01687140 0.01643601
v 0.06728029 -0.01715342 0.01597745
v 0.06669909 -0.02138605 0.01651099
v 0.06648541 -0.02138605 0.01772419
f 1 2 6
f 1 6 11
f 1 11 24
f 1 24 28
f 1 28 27
f 1 27 12
f 1 12 7
f 1 7 3
f 1 3 8
f 1 8 16
f 1 16 35
f 1 35 45
f 1 45 46
f 1 46 36
f 1 36 17
f 1 17 9
f 1 9 4
f 1 4 2
f 2 4 5
f 2 5 6
f 3 7 8
f 4 9 5
f 5 9 6
f 6 10 11
f 6 9 10
f 7 12 8
f 8 12 13
f 8 13 14
f 8 14 15
f 8 15 16
f 9 17 18
f 9 18 19
f 9 19 20
f 9 20 10
f 10 20 21
f 10 21 22
f 10 22 11
f 11 23 24
f 11 22 25
f 11 25 26
f 11 26 23
f 12 27 13
f 13 27 28
f 13 28 24
f 13 24 29
f 13 29 26
f 13 26 30
f 13 30 15
f 13 15 14
f 15 31 32
f 15 32 33
f 15 33 44
f 15 44 34
f 15 34 16
f 15 30 31
f 16 34 35
f 17 36 37
f 17 37 19
f 17 19 18
f 19 37 42
f 19 42 38
f 19 38 21
f 19 21 20
f 21 38 22
f 22 38 39
f 22 39 40
f 22 40 41
f 22 41 25
f 23 26 24
f 24 26 29
f 25 41 30
f 25 30 26
f 30 41 31
f 31 41 32
f 32 39 42
f 32 42 43
f 32 43 33
f 32 41 39
f 33 43 42
f 33 42 37
f 33 37 36
f 33 36 44
f 34 44 45
f 34 45 35
f 36 46 44
f 38 42 39
f 39 41 40
f 44 46 45

