# https://github.com/mikedh/trimesh
v 0.06326351 -0.03862849 0.01274141
v 0.06326642 -0.03852718 0.01284266
v 0.06326767 -0.03852718 0.01274141
v 0.06331386 -0.03889753 0.01274141
v 0.06345118 -0.03850050 0.01395122
v 0.06353524 -0.03807480 0.01484202
v 0.06341664 -0.03761704 0.01406577
v 0.06339209 -0.03723788 0.01279982
v 0.06338668 -0.03730202 0.01274141
v 0.06345618 -0.03889753 0.01354752
v 0.06518523 -0.03889753 0.01274141
v 0.06353524 -0.03783215 0.01484202
v 0.06372583 -0.03889016 0.01428288
v 0.06454188 -0.03889753 0.01566338
v 0.06464134 -0.03831632 0.01598044
v 0.06368838 -0.03678608 0.01317919
v 0.06341664 -0.03715757 0.01274141
v 0.06339584 -0.03724044 0.01274141
v 0.06372209 -0.03889753 0.01426016
v 0.06645070 -0.03599825 0.01274141
v 0.06675324 -0.03599825 0.01314381
v 0.06695090 -0.03889753 0.01540734
v 0.06464134 -0.03778646 0.01598044
v 0.06431675 -0.03740192 0.01517920
v 0.06534211 -0.03599825 0.01458241
v 0.06503583 -0.03599825 0.01422901
v 0.06467962 -0.03599825 0.01380486
v 0.06425017 -0.03599825 0.01295916
v 0.06373000 -0.03889753 0.01428028
v 0.06506247 -0.03889753 0.01597395
v 0.06543117 -0.03889753 0.01605118
v 0.06531506 -0.03864524 0.01605638
v 0.06418400 -0.03605813 0.01290367
v 0.06400048 -0.03623380 0.01274141
v 0.06420481 -0.03599825 0.01274141
v 0.06730337 -0.03599825 0.01404955
v 0.06751061 -0.03599825 0.01485468
v 0.06699418 -0.03889753 0.01566241
v 0.06665836 -0.03640891 0.01603366
v 0.06593969 -0.03661324 0.01596356
v 0.06570915 -0.03599825 0.01498319
v 0.06422520 -0.03599825 0.01288095
v 0.06660426 -0.03889753 0.01602295
v 0.06743986 -0.03683432 0.01601484
v 0.06751435 -0.03599825 0.01518245
v 0.06743986 -0.03683432 0.01558095
v 0.06698586 -0.03889753 0.01596583
v 0.06743986 -0.03639358 0.01601484
v 0.06665836 -0.03599825 0.01571109
v 0.06648108 -0.03599825 0.01565430
v 0.06748605 -0.03599825 0.01525871
f 1 2 3
f 1 3 9
f 1 9 18
f 1 18 17
f 1 17 34
f 1 34 35
f 1 35 20
f 1 20 11
f 1 11 4
f 1 4 5
f 1 5 6
f 1 6 2
f 2 6 7
f 2 7 8
f 2 8 3
f 3 8 9
f 4 10 5
f 4 11 22
f 4 22 38
f 4 38 47
f 4 47 43
f 4 43 31
f 4 31 30
f 4 30 14
f 4 14 29
f 4 29 19
f 4 19 10
f 5 10 6
f 6 12 7
f 6 10 13
f 6 13 14
f 6 14 15
f 6 15 23
f 6 23 12
f 7 12 16
f 7 16 17
f 7 17 8
f 8 17 18
f 8 18 9
f 10 19 13
f 11 20 21
f 11 21 22
f 12 23 24
f 12 24 25
f 12 25 26
f 12 26 27
f 12 27 28
f 12 28 16
f 13 19 29
f 13 29 14
f 14 30 15
f 15 30 31
f 15 31 32
f 15 32 23
f 16 28 33
f 16 33 34
f 16 34 17
f 20 35 42
f 20 42 28
f 20 28 27
f 20 27 26
f 20 26 25
f 20 25 41
f 20 41 50
f 20 50 49
f 20 49 51
f 20 51 45
f 20 45 37
f 20 37 36
f 20 36 21
f 21 36 22
f 22 36 37
f 22 37 38
f 23 32 39
f 23 39 40
f 23 40 24
f 24 40 41
f 24 41 25
f 28 42 33
f 31 43 32
f 32 43 44
f 32 44 39
f 33 42 34
f 34 42 35
f 37 45 46
f 37 46 38
f 38 46 44
f 38 44 47
f 39 44 48
f 39 48 49
f 39 49 50
f 39 50 40
f 40 50 41
f 43 47 44
f 44 46 45
f 44 45 48
f 45 51 48
f 48 51 49

