# https://github.com/mikedh/trimesh
v -0.06421184 0.05788918 -0.02293181
v -0.06421184 0.05788918 -0.02358026
v -0.06543508 0.05788918 -0.02289305
v -0.06298976 0.05788146 -0.02292622
v -0.06421184 0.05687331 -0.02392225
v -0.06909439 0.05786646 -0.02355577
v -0.06543508 0.05788918 -0.02355059
v -0.06298976 0.05788146 -0.02356193
v -0.06909439 0.05787332 -0.02289921
v -0.06788039 0.05782445 -0.02285261
v -0.06176652 0.05785746 -0.02288424
v -0.06421184 0.05565085 -0.02387580
v -0.06543508 0.05565085 -0.02385313
v -0.06909439 0.05687331 -0.02380989
v -0.06298976 0.05687331 -0.02389917
v -0.05809682 0.05442752 -0.02385943
v -0.06176652 0.05565085 -0.02389819
v -0.06176652 0.05785746 -0.02349896
v -0.06909439 0.05687331 -0.02253553
v -0.06788039 0.05687331 -0.02249285
v -0.06054329 0.05687331 -0.02249788
v -0.06054329 0.05778245 -0.02285387
v -0.06054329 0.05442752 -0.02384921
v -0.06543508 0.05442752 -0.02368815
v -0.06909439 0.05686517 -0.02380821
v -0.06176652 0.05687331 -0.02379883
v -0.05809682 0.05565085 -0.02369263
v -0.05735988 0.05565085 -0.02343543
v -0.05729519 0.05442752 -0.02353394
v -0.05735988 0.05366155 -0.02343599
v -0.05809682 0.05353682 -0.02354976
v -0.06054329 0.05353296 -0.02355185
v -0.06054329 0.05778245 -0.02341794
v -0.06909439 0.05574643 -0.02287682
v -0.06610272 0.05374299 -0.02317796
v -0.06543508 0.05442752 -0.02290691
v -0.06054329 0.05442752 -0.02256043
v -0.05932005 0.05442752 -0.02252825
v -0.05809682 0.05442752 -0.02269421
v -0.05809682 0.05565085 -0.02284170
v -0.05744535 0.05629808 -0.02319545
v -0.05976245 0.05765300 -0.02296764
v -0.06543508 0.05370399 -0.02340283
v -0.06610272 0.05374299 -0.02333622
v -0.06909439 0.05573786 -0.02349000
v -0.06054329 0.05687331 -0.02367024
v -0.05744535 0.05629808 -0.02330459
v -0.05976245 0.05765300 -0.02333188
v -0.05735988 0.05565085 -0.02310589
v -0.05729519 0.05442752 -0.02304040
v -0.05735988 0.05366155 -0.02310827
v -0.05809682 0.05353682 -0.02296652
v -0.05932005 0.05351067 -0.02352961
v -0.06054329 0.05353296 -0.02291992
v -0.06909439 0.05573786 -0.02287962
v -0.06543508 0.05370399 -0.02314115
v -0.05932005 0.05351067 -0.02287598
f 1 2 7
f 1 7 3
f 1 3 4
f 1 4 8
f 1 8 2
f 2 5 6
f 2 6 7
f 2 8 5
f 3 7 9
f 3 9 10
f 3 10 11
f 3 11 4
f 4 11 18
f 4 18 8
f 5 12 13
f 5 13 14
f 5 14 6
f 5 8 15
f 5 15 16
f 5 16 17
f 5 17 12
f 6 14 25
f 6 25 45
f 6 45 55
f 6 55 34
f 6 34 19
f 6 19 9
f 6 9 7
f 8 18 15
f 9 19 20
f 9 20 10
f 10 20 21
f 10 21 22
f 10 22 11
f 11 22 33
f 11 33 18
f 12 17 23
f 12 23 13
f 13 23 24
f 13 24 14
f 14 24 25
f 15 18 26
f 15 26 27
f 15 27 16
f 16 27 28
f 16 28 29
f 16 29 30
f 16 30 31
f 16 31 32
f 16 32 23
f 16 23 17
f 18 33 26
f 19 34 35
f 19 35 36
f 19 36 37
f 19 37 20
f 20 37 38
f 20 38 21
f 21 38 39
f 21 39 40
f 21 40 41
f 21 41 42
f 21 42 22
f 22 42 48
f 22 48 33
f 23 32 24
f 24 43 44
f 24 44 45
f 24 45 25
f 24 32 43
f 26 33 46
f 26 46 27
f 27 47 28
f 27 46 33
f 27 33 48
f 27 48 47
f 28 49 50
f 28 50 29
f 28 47 41
f 28 41 49
f 29 50 51
f 29 51 30
f 30 51 52
f 30 52 31
f 31 52 57
f 31 57 53
f 31 53 32
f 32 53 57
f 32 57 54
f 32 54 56
f 32 56 43
f 34 55 35
f 35 56 36
f 35 55 45
f 35 45 44
f 35 44 43
f 35 43 56
f 36 56 37
f 37 54 57
f 37 57 38
f 37 56 54
f 38 57 52
f 38 52 39
f 39 52 51
f 39 51 50
f 39 50 49
f 39 49 40
f 40 49 41
f 41 47 48
f 41 48 42

